<?xml version="1.0" encoding="utf-8" standalone="no"?>
<!DOCTYPE svg PUBLIC "-//W3C//DTD SVG 1.1//EN"
  "http://www.w3.org/Graphics/SVG/1.1/DTD/svg11.dtd">
<!-- Created with matplotlib (https://matplotlib.org/) -->
<svg height="345.6pt" version="1.1" viewBox="0 0 460.8 345.6" width="460.8pt" xmlns="http://www.w3.org/2000/svg" xmlns:xlink="http://www.w3.org/1999/xlink">
 <metadata>
  <rdf:RDF xmlns:cc="http://creativecommons.org/ns#" xmlns:dc="http://purl.org/dc/elements/1.1/" xmlns:rdf="http://www.w3.org/1999/02/22-rdf-syntax-ns#">
   <cc:Work>
    <dc:type rdf:resource="http://purl.org/dc/dcmitype/StillImage"/>
    <dc:date>2022-05-25T21:35:31.069294</dc:date>
    <dc:format>image/svg+xml</dc:format>
    <dc:creator>
     <cc:Agent>
      <dc:title>Matplotlib v3.3.4, https://matplotlib.org/</dc:title>
     </cc:Agent>
    </dc:creator>
   </cc:Work>
  </rdf:RDF>
 </metadata>
 <defs>
  <style type="text/css">*{stroke-linecap:butt;stroke-linejoin:round;}</style>
 </defs>
 <g id="figure_1">
  <g id="patch_1">
   <path d="M 0 345.6 
L 460.8 345.6 
L 460.8 0 
L 0 0 
z
" style="fill:#ffffff;"/>
  </g>
  <g id="axes_1">
   <g id="patch_2">
    <path d="M 57.6 307.584 
L 414.72 307.584 
L 414.72 41.472 
L 57.6 41.472 
z
" style="fill:#ffffff;"/>
   </g>
   <g id="matplotlib.axis_1">
    <g id="xtick_1">
     <g id="line2d_1">
      <defs>
       <path d="M 0 0 
L 0 3.5 
" id="m5154bf56e7" style="stroke:#000000;stroke-width:0.8;"/>
      </defs>
      <g>
       <use style="stroke:#000000;stroke-width:0.8;" x="73.832727" xlink:href="#m5154bf56e7" y="307.584"/>
      </g>
     </g>
     <g id="text_1">
      <!-- 0 -->
      <g transform="translate(70.651477 322.182437)scale(0.1 -0.1)">
       <defs>
        <path d="M 31.78125 66.40625 
Q 24.171875 66.40625 20.328125 58.90625 
Q 16.5 51.421875 16.5 36.375 
Q 16.5 21.390625 20.328125 13.890625 
Q 24.171875 6.390625 31.78125 6.390625 
Q 39.453125 6.390625 43.28125 13.890625 
Q 47.125 21.390625 47.125 36.375 
Q 47.125 51.421875 43.28125 58.90625 
Q 39.453125 66.40625 31.78125 66.40625 
z
M 31.78125 74.21875 
Q 44.046875 74.21875 50.515625 64.515625 
Q 56.984375 54.828125 56.984375 36.375 
Q 56.984375 17.96875 50.515625 8.265625 
Q 44.046875 -1.421875 31.78125 -1.421875 
Q 19.53125 -1.421875 13.0625 8.265625 
Q 6.59375 17.96875 6.59375 36.375 
Q 6.59375 54.828125 13.0625 64.515625 
Q 19.53125 74.21875 31.78125 74.21875 
z
" id="DejaVuSans-48"/>
       </defs>
       <use xlink:href="#DejaVuSans-48"/>
      </g>
     </g>
    </g>
    <g id="xtick_2">
     <g id="line2d_2">
      <g>
       <use style="stroke:#000000;stroke-width:0.8;" x="115.497838" xlink:href="#m5154bf56e7" y="307.584"/>
      </g>
     </g>
     <g id="text_2">
      <!-- 500 -->
      <g transform="translate(105.954088 322.182437)scale(0.1 -0.1)">
       <defs>
        <path d="M 10.796875 72.90625 
L 49.515625 72.90625 
L 49.515625 64.59375 
L 19.828125 64.59375 
L 19.828125 46.734375 
Q 21.96875 47.46875 24.109375 47.828125 
Q 26.265625 48.1875 28.421875 48.1875 
Q 40.625 48.1875 47.75 41.5 
Q 54.890625 34.8125 54.890625 23.390625 
Q 54.890625 11.625 47.5625 5.09375 
Q 40.234375 -1.421875 26.90625 -1.421875 
Q 22.3125 -1.421875 17.546875 -0.640625 
Q 12.796875 0.140625 7.71875 1.703125 
L 7.71875 11.625 
Q 12.109375 9.234375 16.796875 8.0625 
Q 21.484375 6.890625 26.703125 6.890625 
Q 35.15625 6.890625 40.078125 11.328125 
Q 45.015625 15.765625 45.015625 23.390625 
Q 45.015625 31 40.078125 35.4375 
Q 35.15625 39.890625 26.703125 39.890625 
Q 22.75 39.890625 18.8125 39.015625 
Q 14.890625 38.140625 10.796875 36.28125 
z
" id="DejaVuSans-53"/>
       </defs>
       <use xlink:href="#DejaVuSans-53"/>
       <use x="63.623047" xlink:href="#DejaVuSans-48"/>
       <use x="127.246094" xlink:href="#DejaVuSans-48"/>
      </g>
     </g>
    </g>
    <g id="xtick_3">
     <g id="line2d_3">
      <g>
       <use style="stroke:#000000;stroke-width:0.8;" x="157.162949" xlink:href="#m5154bf56e7" y="307.584"/>
      </g>
     </g>
     <g id="text_3">
      <!-- 1000 -->
      <g transform="translate(144.437949 322.182437)scale(0.1 -0.1)">
       <defs>
        <path d="M 12.40625 8.296875 
L 28.515625 8.296875 
L 28.515625 63.921875 
L 10.984375 60.40625 
L 10.984375 69.390625 
L 28.421875 72.90625 
L 38.28125 72.90625 
L 38.28125 8.296875 
L 54.390625 8.296875 
L 54.390625 0 
L 12.40625 0 
z
" id="DejaVuSans-49"/>
       </defs>
       <use xlink:href="#DejaVuSans-49"/>
       <use x="63.623047" xlink:href="#DejaVuSans-48"/>
       <use x="127.246094" xlink:href="#DejaVuSans-48"/>
       <use x="190.869141" xlink:href="#DejaVuSans-48"/>
      </g>
     </g>
    </g>
    <g id="xtick_4">
     <g id="line2d_4">
      <g>
       <use style="stroke:#000000;stroke-width:0.8;" x="198.82806" xlink:href="#m5154bf56e7" y="307.584"/>
      </g>
     </g>
     <g id="text_4">
      <!-- 1500 -->
      <g transform="translate(186.10306 322.182437)scale(0.1 -0.1)">
       <use xlink:href="#DejaVuSans-49"/>
       <use x="63.623047" xlink:href="#DejaVuSans-53"/>
       <use x="127.246094" xlink:href="#DejaVuSans-48"/>
       <use x="190.869141" xlink:href="#DejaVuSans-48"/>
      </g>
     </g>
    </g>
    <g id="xtick_5">
     <g id="line2d_5">
      <g>
       <use style="stroke:#000000;stroke-width:0.8;" x="240.493172" xlink:href="#m5154bf56e7" y="307.584"/>
      </g>
     </g>
     <g id="text_5">
      <!-- 2000 -->
      <g transform="translate(227.768172 322.182437)scale(0.1 -0.1)">
       <defs>
        <path d="M 19.1875 8.296875 
L 53.609375 8.296875 
L 53.609375 0 
L 7.328125 0 
L 7.328125 8.296875 
Q 12.9375 14.109375 22.625 23.890625 
Q 32.328125 33.6875 34.8125 36.53125 
Q 39.546875 41.84375 41.421875 45.53125 
Q 43.3125 49.21875 43.3125 52.78125 
Q 43.3125 58.59375 39.234375 62.25 
Q 35.15625 65.921875 28.609375 65.921875 
Q 23.96875 65.921875 18.8125 64.3125 
Q 13.671875 62.703125 7.8125 59.421875 
L 7.8125 69.390625 
Q 13.765625 71.78125 18.9375 73 
Q 24.125 74.21875 28.421875 74.21875 
Q 39.75 74.21875 46.484375 68.546875 
Q 53.21875 62.890625 53.21875 53.421875 
Q 53.21875 48.921875 51.53125 44.890625 
Q 49.859375 40.875 45.40625 35.40625 
Q 44.1875 33.984375 37.640625 27.21875 
Q 31.109375 20.453125 19.1875 8.296875 
z
" id="DejaVuSans-50"/>
       </defs>
       <use xlink:href="#DejaVuSans-50"/>
       <use x="63.623047" xlink:href="#DejaVuSans-48"/>
       <use x="127.246094" xlink:href="#DejaVuSans-48"/>
       <use x="190.869141" xlink:href="#DejaVuSans-48"/>
      </g>
     </g>
    </g>
    <g id="xtick_6">
     <g id="line2d_6">
      <g>
       <use style="stroke:#000000;stroke-width:0.8;" x="282.158283" xlink:href="#m5154bf56e7" y="307.584"/>
      </g>
     </g>
     <g id="text_6">
      <!-- 2500 -->
      <g transform="translate(269.433283 322.182437)scale(0.1 -0.1)">
       <use xlink:href="#DejaVuSans-50"/>
       <use x="63.623047" xlink:href="#DejaVuSans-53"/>
       <use x="127.246094" xlink:href="#DejaVuSans-48"/>
       <use x="190.869141" xlink:href="#DejaVuSans-48"/>
      </g>
     </g>
    </g>
    <g id="xtick_7">
     <g id="line2d_7">
      <g>
       <use style="stroke:#000000;stroke-width:0.8;" x="323.823394" xlink:href="#m5154bf56e7" y="307.584"/>
      </g>
     </g>
     <g id="text_7">
      <!-- 3000 -->
      <g transform="translate(311.098394 322.182437)scale(0.1 -0.1)">
       <defs>
        <path d="M 40.578125 39.3125 
Q 47.65625 37.796875 51.625 33 
Q 55.609375 28.21875 55.609375 21.1875 
Q 55.609375 10.40625 48.1875 4.484375 
Q 40.765625 -1.421875 27.09375 -1.421875 
Q 22.515625 -1.421875 17.65625 -0.515625 
Q 12.796875 0.390625 7.625 2.203125 
L 7.625 11.71875 
Q 11.71875 9.328125 16.59375 8.109375 
Q 21.484375 6.890625 26.8125 6.890625 
Q 36.078125 6.890625 40.9375 10.546875 
Q 45.796875 14.203125 45.796875 21.1875 
Q 45.796875 27.640625 41.28125 31.265625 
Q 36.765625 34.90625 28.71875 34.90625 
L 20.21875 34.90625 
L 20.21875 43.015625 
L 29.109375 43.015625 
Q 36.375 43.015625 40.234375 45.921875 
Q 44.09375 48.828125 44.09375 54.296875 
Q 44.09375 59.90625 40.109375 62.90625 
Q 36.140625 65.921875 28.71875 65.921875 
Q 24.65625 65.921875 20.015625 65.03125 
Q 15.375 64.15625 9.8125 62.3125 
L 9.8125 71.09375 
Q 15.4375 72.65625 20.34375 73.4375 
Q 25.25 74.21875 29.59375 74.21875 
Q 40.828125 74.21875 47.359375 69.109375 
Q 53.90625 64.015625 53.90625 55.328125 
Q 53.90625 49.265625 50.4375 45.09375 
Q 46.96875 40.921875 40.578125 39.3125 
z
" id="DejaVuSans-51"/>
       </defs>
       <use xlink:href="#DejaVuSans-51"/>
       <use x="63.623047" xlink:href="#DejaVuSans-48"/>
       <use x="127.246094" xlink:href="#DejaVuSans-48"/>
       <use x="190.869141" xlink:href="#DejaVuSans-48"/>
      </g>
     </g>
    </g>
    <g id="xtick_8">
     <g id="line2d_8">
      <g>
       <use style="stroke:#000000;stroke-width:0.8;" x="365.488505" xlink:href="#m5154bf56e7" y="307.584"/>
      </g>
     </g>
     <g id="text_8">
      <!-- 3500 -->
      <g transform="translate(352.763505 322.182437)scale(0.1 -0.1)">
       <use xlink:href="#DejaVuSans-51"/>
       <use x="63.623047" xlink:href="#DejaVuSans-53"/>
       <use x="127.246094" xlink:href="#DejaVuSans-48"/>
       <use x="190.869141" xlink:href="#DejaVuSans-48"/>
      </g>
     </g>
    </g>
    <g id="xtick_9">
     <g id="line2d_9">
      <g>
       <use style="stroke:#000000;stroke-width:0.8;" x="407.153616" xlink:href="#m5154bf56e7" y="307.584"/>
      </g>
     </g>
     <g id="text_9">
      <!-- 4000 -->
      <g transform="translate(394.428616 322.182437)scale(0.1 -0.1)">
       <defs>
        <path d="M 37.796875 64.3125 
L 12.890625 25.390625 
L 37.796875 25.390625 
z
M 35.203125 72.90625 
L 47.609375 72.90625 
L 47.609375 25.390625 
L 58.015625 25.390625 
L 58.015625 17.1875 
L 47.609375 17.1875 
L 47.609375 0 
L 37.796875 0 
L 37.796875 17.1875 
L 4.890625 17.1875 
L 4.890625 26.703125 
z
" id="DejaVuSans-52"/>
       </defs>
       <use xlink:href="#DejaVuSans-52"/>
       <use x="63.623047" xlink:href="#DejaVuSans-48"/>
       <use x="127.246094" xlink:href="#DejaVuSans-48"/>
       <use x="190.869141" xlink:href="#DejaVuSans-48"/>
      </g>
     </g>
    </g>
    <g id="text_10">
     <!-- num swaps -->
     <g transform="translate(207.826406 335.860562)scale(0.1 -0.1)">
      <defs>
       <path d="M 54.890625 33.015625 
L 54.890625 0 
L 45.90625 0 
L 45.90625 32.71875 
Q 45.90625 40.484375 42.875 44.328125 
Q 39.84375 48.1875 33.796875 48.1875 
Q 26.515625 48.1875 22.3125 43.546875 
Q 18.109375 38.921875 18.109375 30.90625 
L 18.109375 0 
L 9.078125 0 
L 9.078125 54.6875 
L 18.109375 54.6875 
L 18.109375 46.1875 
Q 21.34375 51.125 25.703125 53.5625 
Q 30.078125 56 35.796875 56 
Q 45.21875 56 50.046875 50.171875 
Q 54.890625 44.34375 54.890625 33.015625 
z
" id="DejaVuSans-110"/>
       <path d="M 8.5 21.578125 
L 8.5 54.6875 
L 17.484375 54.6875 
L 17.484375 21.921875 
Q 17.484375 14.15625 20.5 10.265625 
Q 23.53125 6.390625 29.59375 6.390625 
Q 36.859375 6.390625 41.078125 11.03125 
Q 45.3125 15.671875 45.3125 23.6875 
L 45.3125 54.6875 
L 54.296875 54.6875 
L 54.296875 0 
L 45.3125 0 
L 45.3125 8.40625 
Q 42.046875 3.421875 37.71875 1 
Q 33.40625 -1.421875 27.6875 -1.421875 
Q 18.265625 -1.421875 13.375 4.4375 
Q 8.5 10.296875 8.5 21.578125 
z
M 31.109375 56 
z
" id="DejaVuSans-117"/>
       <path d="M 52 44.1875 
Q 55.375 50.25 60.0625 53.125 
Q 64.75 56 71.09375 56 
Q 79.640625 56 84.28125 50.015625 
Q 88.921875 44.046875 88.921875 33.015625 
L 88.921875 0 
L 79.890625 0 
L 79.890625 32.71875 
Q 79.890625 40.578125 77.09375 44.375 
Q 74.3125 48.1875 68.609375 48.1875 
Q 61.625 48.1875 57.5625 43.546875 
Q 53.515625 38.921875 53.515625 30.90625 
L 53.515625 0 
L 44.484375 0 
L 44.484375 32.71875 
Q 44.484375 40.625 41.703125 44.40625 
Q 38.921875 48.1875 33.109375 48.1875 
Q 26.21875 48.1875 22.15625 43.53125 
Q 18.109375 38.875 18.109375 30.90625 
L 18.109375 0 
L 9.078125 0 
L 9.078125 54.6875 
L 18.109375 54.6875 
L 18.109375 46.1875 
Q 21.1875 51.21875 25.484375 53.609375 
Q 29.78125 56 35.6875 56 
Q 41.65625 56 45.828125 52.96875 
Q 50 49.953125 52 44.1875 
z
" id="DejaVuSans-109"/>
       <path id="DejaVuSans-32"/>
       <path d="M 44.28125 53.078125 
L 44.28125 44.578125 
Q 40.484375 46.53125 36.375 47.5 
Q 32.28125 48.484375 27.875 48.484375 
Q 21.1875 48.484375 17.84375 46.4375 
Q 14.5 44.390625 14.5 40.28125 
Q 14.5 37.15625 16.890625 35.375 
Q 19.28125 33.59375 26.515625 31.984375 
L 29.59375 31.296875 
Q 39.15625 29.25 43.1875 25.515625 
Q 47.21875 21.78125 47.21875 15.09375 
Q 47.21875 7.46875 41.1875 3.015625 
Q 35.15625 -1.421875 24.609375 -1.421875 
Q 20.21875 -1.421875 15.453125 -0.5625 
Q 10.6875 0.296875 5.421875 2 
L 5.421875 11.28125 
Q 10.40625 8.6875 15.234375 7.390625 
Q 20.0625 6.109375 24.8125 6.109375 
Q 31.15625 6.109375 34.5625 8.28125 
Q 37.984375 10.453125 37.984375 14.40625 
Q 37.984375 18.0625 35.515625 20.015625 
Q 33.0625 21.96875 24.703125 23.78125 
L 21.578125 24.515625 
Q 13.234375 26.265625 9.515625 29.90625 
Q 5.8125 33.546875 5.8125 39.890625 
Q 5.8125 47.609375 11.28125 51.796875 
Q 16.75 56 26.8125 56 
Q 31.78125 56 36.171875 55.265625 
Q 40.578125 54.546875 44.28125 53.078125 
z
" id="DejaVuSans-115"/>
       <path d="M 4.203125 54.6875 
L 13.1875 54.6875 
L 24.421875 12.015625 
L 35.59375 54.6875 
L 46.1875 54.6875 
L 57.421875 12.015625 
L 68.609375 54.6875 
L 77.59375 54.6875 
L 63.28125 0 
L 52.6875 0 
L 40.921875 44.828125 
L 29.109375 0 
L 18.5 0 
z
" id="DejaVuSans-119"/>
       <path d="M 34.28125 27.484375 
Q 23.390625 27.484375 19.1875 25 
Q 14.984375 22.515625 14.984375 16.5 
Q 14.984375 11.71875 18.140625 8.90625 
Q 21.296875 6.109375 26.703125 6.109375 
Q 34.1875 6.109375 38.703125 11.40625 
Q 43.21875 16.703125 43.21875 25.484375 
L 43.21875 27.484375 
z
M 52.203125 31.203125 
L 52.203125 0 
L 43.21875 0 
L 43.21875 8.296875 
Q 40.140625 3.328125 35.546875 0.953125 
Q 30.953125 -1.421875 24.3125 -1.421875 
Q 15.921875 -1.421875 10.953125 3.296875 
Q 6 8.015625 6 15.921875 
Q 6 25.140625 12.171875 29.828125 
Q 18.359375 34.515625 30.609375 34.515625 
L 43.21875 34.515625 
L 43.21875 35.40625 
Q 43.21875 41.609375 39.140625 45 
Q 35.0625 48.390625 27.6875 48.390625 
Q 23 48.390625 18.546875 47.265625 
Q 14.109375 46.140625 10.015625 43.890625 
L 10.015625 52.203125 
Q 14.9375 54.109375 19.578125 55.046875 
Q 24.21875 56 28.609375 56 
Q 40.484375 56 46.34375 49.84375 
Q 52.203125 43.703125 52.203125 31.203125 
z
" id="DejaVuSans-97"/>
       <path d="M 18.109375 8.203125 
L 18.109375 -20.796875 
L 9.078125 -20.796875 
L 9.078125 54.6875 
L 18.109375 54.6875 
L 18.109375 46.390625 
Q 20.953125 51.265625 25.265625 53.625 
Q 29.59375 56 35.59375 56 
Q 45.5625 56 51.78125 48.09375 
Q 58.015625 40.1875 58.015625 27.296875 
Q 58.015625 14.40625 51.78125 6.484375 
Q 45.5625 -1.421875 35.59375 -1.421875 
Q 29.59375 -1.421875 25.265625 0.953125 
Q 20.953125 3.328125 18.109375 8.203125 
z
M 48.6875 27.296875 
Q 48.6875 37.203125 44.609375 42.84375 
Q 40.53125 48.484375 33.40625 48.484375 
Q 26.265625 48.484375 22.1875 42.84375 
Q 18.109375 37.203125 18.109375 27.296875 
Q 18.109375 17.390625 22.1875 11.75 
Q 26.265625 6.109375 33.40625 6.109375 
Q 40.53125 6.109375 44.609375 11.75 
Q 48.6875 17.390625 48.6875 27.296875 
z
" id="DejaVuSans-112"/>
      </defs>
      <use xlink:href="#DejaVuSans-110"/>
      <use x="63.378906" xlink:href="#DejaVuSans-117"/>
      <use x="126.757812" xlink:href="#DejaVuSans-109"/>
      <use x="224.169922" xlink:href="#DejaVuSans-32"/>
      <use x="255.957031" xlink:href="#DejaVuSans-115"/>
      <use x="308.056641" xlink:href="#DejaVuSans-119"/>
      <use x="389.84375" xlink:href="#DejaVuSans-97"/>
      <use x="451.123047" xlink:href="#DejaVuSans-112"/>
      <use x="514.599609" xlink:href="#DejaVuSans-115"/>
     </g>
    </g>
   </g>
   <g id="matplotlib.axis_2">
    <g id="ytick_1">
     <g id="line2d_10">
      <defs>
       <path d="M 0 0 
L -3.5 0 
" id="m14b403a360" style="stroke:#000000;stroke-width:0.8;"/>
      </defs>
      <g>
       <use style="stroke:#000000;stroke-width:0.8;" x="57.6" xlink:href="#m14b403a360" y="261.731721"/>
      </g>
     </g>
     <g id="text_11">
      <!-- 180 -->
      <g transform="translate(31.5125 265.53094)scale(0.1 -0.1)">
       <defs>
        <path d="M 31.78125 34.625 
Q 24.75 34.625 20.71875 30.859375 
Q 16.703125 27.09375 16.703125 20.515625 
Q 16.703125 13.921875 20.71875 10.15625 
Q 24.75 6.390625 31.78125 6.390625 
Q 38.8125 6.390625 42.859375 10.171875 
Q 46.921875 13.96875 46.921875 20.515625 
Q 46.921875 27.09375 42.890625 30.859375 
Q 38.875 34.625 31.78125 34.625 
z
M 21.921875 38.8125 
Q 15.578125 40.375 12.03125 44.71875 
Q 8.5 49.078125 8.5 55.328125 
Q 8.5 64.0625 14.71875 69.140625 
Q 20.953125 74.21875 31.78125 74.21875 
Q 42.671875 74.21875 48.875 69.140625 
Q 55.078125 64.0625 55.078125 55.328125 
Q 55.078125 49.078125 51.53125 44.71875 
Q 48 40.375 41.703125 38.8125 
Q 48.828125 37.15625 52.796875 32.3125 
Q 56.78125 27.484375 56.78125 20.515625 
Q 56.78125 9.90625 50.3125 4.234375 
Q 43.84375 -1.421875 31.78125 -1.421875 
Q 19.734375 -1.421875 13.25 4.234375 
Q 6.78125 9.90625 6.78125 20.515625 
Q 6.78125 27.484375 10.78125 32.3125 
Q 14.796875 37.15625 21.921875 38.8125 
z
M 18.3125 54.390625 
Q 18.3125 48.734375 21.84375 45.5625 
Q 25.390625 42.390625 31.78125 42.390625 
Q 38.140625 42.390625 41.71875 45.5625 
Q 45.3125 48.734375 45.3125 54.390625 
Q 45.3125 60.0625 41.71875 63.234375 
Q 38.140625 66.40625 31.78125 66.40625 
Q 25.390625 66.40625 21.84375 63.234375 
Q 18.3125 60.0625 18.3125 54.390625 
z
" id="DejaVuSans-56"/>
       </defs>
       <use xlink:href="#DejaVuSans-49"/>
       <use x="63.623047" xlink:href="#DejaVuSans-56"/>
       <use x="127.246094" xlink:href="#DejaVuSans-48"/>
      </g>
     </g>
    </g>
    <g id="ytick_2">
     <g id="line2d_11">
      <g>
       <use style="stroke:#000000;stroke-width:0.8;" x="57.6" xlink:href="#m14b403a360" y="205.471256"/>
      </g>
     </g>
     <g id="text_12">
      <!-- 200 -->
      <g transform="translate(31.5125 209.270475)scale(0.1 -0.1)">
       <use xlink:href="#DejaVuSans-50"/>
       <use x="63.623047" xlink:href="#DejaVuSans-48"/>
       <use x="127.246094" xlink:href="#DejaVuSans-48"/>
      </g>
     </g>
    </g>
    <g id="ytick_3">
     <g id="line2d_12">
      <g>
       <use style="stroke:#000000;stroke-width:0.8;" x="57.6" xlink:href="#m14b403a360" y="149.210791"/>
      </g>
     </g>
     <g id="text_13">
      <!-- 220 -->
      <g transform="translate(31.5125 153.010009)scale(0.1 -0.1)">
       <use xlink:href="#DejaVuSans-50"/>
       <use x="63.623047" xlink:href="#DejaVuSans-50"/>
       <use x="127.246094" xlink:href="#DejaVuSans-48"/>
      </g>
     </g>
    </g>
    <g id="ytick_4">
     <g id="line2d_13">
      <g>
       <use style="stroke:#000000;stroke-width:0.8;" x="57.6" xlink:href="#m14b403a360" y="92.950326"/>
      </g>
     </g>
     <g id="text_14">
      <!-- 240 -->
      <g transform="translate(31.5125 96.749544)scale(0.1 -0.1)">
       <use xlink:href="#DejaVuSans-50"/>
       <use x="63.623047" xlink:href="#DejaVuSans-52"/>
       <use x="127.246094" xlink:href="#DejaVuSans-48"/>
      </g>
     </g>
    </g>
    <g id="text_15">
     <!-- total cost -->
     <g transform="translate(25.432812 197.923313)rotate(-90)scale(0.1 -0.1)">
      <defs>
       <path d="M 18.3125 70.21875 
L 18.3125 54.6875 
L 36.8125 54.6875 
L 36.8125 47.703125 
L 18.3125 47.703125 
L 18.3125 18.015625 
Q 18.3125 11.328125 20.140625 9.421875 
Q 21.96875 7.515625 27.59375 7.515625 
L 36.8125 7.515625 
L 36.8125 0 
L 27.59375 0 
Q 17.1875 0 13.234375 3.875 
Q 9.28125 7.765625 9.28125 18.015625 
L 9.28125 47.703125 
L 2.6875 47.703125 
L 2.6875 54.6875 
L 9.28125 54.6875 
L 9.28125 70.21875 
z
" id="DejaVuSans-116"/>
       <path d="M 30.609375 48.390625 
Q 23.390625 48.390625 19.1875 42.75 
Q 14.984375 37.109375 14.984375 27.296875 
Q 14.984375 17.484375 19.15625 11.84375 
Q 23.34375 6.203125 30.609375 6.203125 
Q 37.796875 6.203125 41.984375 11.859375 
Q 46.1875 17.53125 46.1875 27.296875 
Q 46.1875 37.015625 41.984375 42.703125 
Q 37.796875 48.390625 30.609375 48.390625 
z
M 30.609375 56 
Q 42.328125 56 49.015625 48.375 
Q 55.71875 40.765625 55.71875 27.296875 
Q 55.71875 13.875 49.015625 6.21875 
Q 42.328125 -1.421875 30.609375 -1.421875 
Q 18.84375 -1.421875 12.171875 6.21875 
Q 5.515625 13.875 5.515625 27.296875 
Q 5.515625 40.765625 12.171875 48.375 
Q 18.84375 56 30.609375 56 
z
" id="DejaVuSans-111"/>
       <path d="M 9.421875 75.984375 
L 18.40625 75.984375 
L 18.40625 0 
L 9.421875 0 
z
" id="DejaVuSans-108"/>
       <path d="M 48.78125 52.59375 
L 48.78125 44.1875 
Q 44.96875 46.296875 41.140625 47.34375 
Q 37.3125 48.390625 33.40625 48.390625 
Q 24.65625 48.390625 19.8125 42.84375 
Q 14.984375 37.3125 14.984375 27.296875 
Q 14.984375 17.28125 19.8125 11.734375 
Q 24.65625 6.203125 33.40625 6.203125 
Q 37.3125 6.203125 41.140625 7.25 
Q 44.96875 8.296875 48.78125 10.40625 
L 48.78125 2.09375 
Q 45.015625 0.34375 40.984375 -0.53125 
Q 36.96875 -1.421875 32.421875 -1.421875 
Q 20.0625 -1.421875 12.78125 6.34375 
Q 5.515625 14.109375 5.515625 27.296875 
Q 5.515625 40.671875 12.859375 48.328125 
Q 20.21875 56 33.015625 56 
Q 37.15625 56 41.109375 55.140625 
Q 45.0625 54.296875 48.78125 52.59375 
z
" id="DejaVuSans-99"/>
      </defs>
      <use xlink:href="#DejaVuSans-116"/>
      <use x="39.208984" xlink:href="#DejaVuSans-111"/>
      <use x="100.390625" xlink:href="#DejaVuSans-116"/>
      <use x="139.599609" xlink:href="#DejaVuSans-97"/>
      <use x="200.878906" xlink:href="#DejaVuSans-108"/>
      <use x="228.662109" xlink:href="#DejaVuSans-32"/>
      <use x="260.449219" xlink:href="#DejaVuSans-99"/>
      <use x="315.429688" xlink:href="#DejaVuSans-111"/>
      <use x="376.611328" xlink:href="#DejaVuSans-115"/>
      <use x="428.710938" xlink:href="#DejaVuSans-116"/>
     </g>
    </g>
   </g>
   <g id="line2d_14">
    <path clip-path="url(#p59a206f533)" d="M 73.832727 78.885209 
L 75.166011 101.389395 
L 75.832653 129.519628 
L 77.165936 129.519628 
L 77.832578 166.08893 
L 78.49922 149.210791 
L 79.165861 104.202419 
L 79.832503 76.072186 
L 80.499145 101.389395 
L 81.165787 107.015442 
L 81.832429 143.584744 
L 82.49907 121.080558 
L 83.165712 126.706605 
L 83.832354 123.893581 
L 84.498996 135.145674 
L 85.165637 112.641488 
L 85.832279 107.015442 
L 86.498921 107.015442 
L 87.165563 101.389395 
L 87.832205 107.015442 
L 88.498846 90.137302 
L 89.165488 92.950326 
L 89.83213 115.454512 
L 90.498772 118.267535 
L 91.165413 126.706605 
L 91.832055 107.015442 
L 92.498697 81.698233 
L 93.165339 121.080558 
L 93.831981 81.698233 
L 94.498622 90.137302 
L 95.165264 123.893581 
L 96.498548 129.519628 
L 97.165189 118.267535 
L 97.831831 140.771721 
L 98.498473 118.267535 
L 99.165115 107.015442 
L 101.16504 98.576372 
L 101.831682 118.267535 
L 102.498324 104.202419 
L 103.164965 115.454512 
L 103.831607 109.828465 
L 104.498249 107.015442 
L 105.164891 98.576372 
L 105.831533 121.080558 
L 106.498174 101.389395 
L 107.164816 101.389395 
L 107.831458 92.950326 
L 108.4981 90.137302 
L 109.164741 118.267535 
L 109.831383 160.462884 
L 110.498025 163.275907 
L 111.164667 171.714977 
L 111.831309 152.023814 
L 112.49795 146.397767 
L 113.164592 115.454512 
L 113.831234 92.950326 
L 114.497876 101.389395 
L 115.164517 126.706605 
L 115.831159 121.080558 
L 116.497801 126.706605 
L 117.164443 109.828465 
L 117.831085 146.397767 
L 118.497726 146.397767 
L 119.164368 149.210791 
L 119.83101 163.275907 
L 120.497652 146.397767 
L 121.164293 118.267535 
L 121.830935 98.576372 
L 122.497577 115.454512 
L 123.164219 109.828465 
L 123.830861 115.454512 
L 124.497502 104.202419 
L 125.164144 149.210791 
L 125.830786 174.528 
L 127.164069 146.397767 
L 127.830711 121.080558 
L 128.497353 140.771721 
L 129.163995 129.519628 
L 129.830637 123.893581 
L 130.497278 107.015442 
L 131.16392 78.885209 
L 131.830562 70.44614 
L 132.497204 92.950326 
L 133.163845 104.202419 
L 133.830487 109.828465 
L 134.497129 92.950326 
L 135.163771 101.389395 
L 135.830413 90.137302 
L 136.497054 135.145674 
L 137.163696 109.828465 
L 137.830338 115.454512 
L 138.49698 123.893581 
L 139.163621 154.836837 
L 139.830263 118.267535 
L 140.496905 104.202419 
L 141.163547 104.202419 
L 141.830189 157.64986 
L 142.49683 154.836837 
L 143.163472 177.341023 
L 143.830114 171.714977 
L 144.496756 137.958698 
L 145.163397 112.641488 
L 145.830039 95.763349 
L 146.496681 104.202419 
L 147.163323 76.072186 
L 147.829965 87.324279 
L 148.496606 129.519628 
L 149.163248 115.454512 
L 149.82989 115.454512 
L 150.496532 118.267535 
L 151.163173 87.324279 
L 151.829815 98.576372 
L 152.496457 95.763349 
L 153.163099 109.828465 
L 153.829741 126.706605 
L 154.496382 132.332651 
L 155.163024 129.519628 
L 155.829666 132.332651 
L 156.496308 137.958698 
L 157.162949 126.706605 
L 157.829591 109.828465 
L 158.496233 101.389395 
L 159.162875 115.454512 
L 159.829517 90.137302 
L 160.496158 115.454512 
L 161.1628 92.950326 
L 161.829442 123.893581 
L 162.496084 132.332651 
L 163.162725 143.584744 
L 163.829367 129.519628 
L 164.496009 132.332651 
L 165.162651 118.267535 
L 165.829293 137.958698 
L 166.495934 143.584744 
L 167.162576 143.584744 
L 167.829218 185.780093 
L 168.49586 171.714977 
L 169.162501 118.267535 
L 169.829143 137.958698 
L 170.495785 143.584744 
L 171.162427 140.771721 
L 171.829069 64.820093 
L 172.49571 78.885209 
L 173.162352 64.820093 
L 173.828994 109.828465 
L 174.495636 98.576372 
L 175.828919 135.145674 
L 176.495561 143.584744 
L 177.162203 109.828465 
L 177.828845 135.145674 
L 178.495486 140.771721 
L 179.162128 115.454512 
L 179.82877 132.332651 
L 180.495412 135.145674 
L 181.162053 160.462884 
L 181.828695 154.836837 
L 183.161979 104.202419 
L 184.495262 121.080558 
L 185.161904 135.145674 
L 186.495188 135.145674 
L 187.161829 118.267535 
L 187.828471 87.324279 
L 188.495113 126.706605 
L 189.161755 107.015442 
L 189.828396 98.576372 
L 190.495038 132.332651 
L 191.16168 129.519628 
L 191.828322 95.763349 
L 192.494964 90.137302 
L 193.161605 70.44614 
L 193.828247 157.64986 
L 194.494889 160.462884 
L 195.161531 174.528 
L 195.828172 171.714977 
L 197.828098 115.454512 
L 198.49474 87.324279 
L 199.161381 123.893581 
L 199.828023 118.267535 
L 200.494665 95.763349 
L 201.161307 121.080558 
L 201.827948 135.145674 
L 202.49459 166.08893 
L 203.161232 143.584744 
L 203.827874 146.397767 
L 204.494516 129.519628 
L 205.161157 121.080558 
L 205.827799 121.080558 
L 206.494441 129.519628 
L 207.161083 143.584744 
L 207.827724 126.706605 
L 208.494366 121.080558 
L 209.161008 98.576372 
L 209.82765 123.893581 
L 210.494292 132.332651 
L 211.160933 121.080558 
L 211.827575 137.958698 
L 212.494217 177.341023 
L 213.160859 177.341023 
L 213.8275 146.397767 
L 214.494142 123.893581 
L 215.160784 129.519628 
L 215.827426 163.275907 
L 216.494068 149.210791 
L 217.160709 109.828465 
L 217.827351 132.332651 
L 218.493993 78.885209 
L 219.160635 90.137302 
L 219.827276 129.519628 
L 220.493918 123.893581 
L 221.16056 101.389395 
L 221.827202 137.958698 
L 222.493844 101.389395 
L 223.160485 126.706605 
L 223.827127 109.828465 
L 224.493769 123.893581 
L 225.160411 109.828465 
L 225.827052 109.828465 
L 226.493694 92.950326 
L 227.160336 90.137302 
L 228.49362 121.080558 
L 229.160261 104.202419 
L 229.826903 140.771721 
L 230.493545 135.145674 
L 231.160187 107.015442 
L 231.826828 129.519628 
L 232.49347 140.771721 
L 233.160112 137.958698 
L 233.826754 84.511256 
L 234.493396 84.511256 
L 235.160037 101.389395 
L 235.826679 140.771721 
L 236.493321 90.137302 
L 237.826604 78.885209 
L 238.493246 92.950326 
L 239.159888 70.44614 
L 239.82653 87.324279 
L 240.493172 53.568 
L 241.159813 98.576372 
L 241.826455 87.324279 
L 242.493097 118.267535 
L 243.159739 157.64986 
L 243.82638 160.462884 
L 244.493022 107.015442 
L 245.159664 118.267535 
L 245.826306 123.893581 
L 246.492948 157.64986 
L 247.159589 174.528 
L 247.826231 177.341023 
L 248.492873 152.023814 
L 249.159515 121.080558 
L 249.826156 98.576372 
L 250.492798 115.454512 
L 251.15944 87.324279 
L 251.826082 121.080558 
L 253.826007 129.519628 
L 254.492649 152.023814 
L 255.159291 163.275907 
L 255.825932 143.584744 
L 256.492574 107.015442 
L 257.159216 149.210791 
L 257.825858 104.202419 
L 258.4925 76.072186 
L 259.159141 118.267535 
L 259.825783 104.202419 
L 261.159067 115.454512 
L 261.825708 107.015442 
L 262.49235 132.332651 
L 263.158992 135.145674 
L 263.825634 143.584744 
L 264.492276 121.080558 
L 265.158917 107.015442 
L 265.825559 129.519628 
L 266.492201 112.641488 
L 267.158843 78.885209 
L 267.825484 81.698233 
L 268.492126 115.454512 
L 269.158768 140.771721 
L 269.82541 137.958698 
L 270.492052 160.462884 
L 271.158693 199.845209 
L 271.825335 168.901953 
L 272.491977 182.96707 
L 273.158619 185.780093 
L 273.82526 157.64986 
L 274.491902 166.08893 
L 275.158544 171.714977 
L 275.825186 160.462884 
L 276.491828 182.96707 
L 277.158469 174.528 
L 277.825111 197.032186 
L 278.491753 174.528 
L 279.158395 191.40614 
L 279.825036 168.901953 
L 280.491678 154.836837 
L 281.15832 149.210791 
L 281.824962 160.462884 
L 282.491604 180.154047 
L 283.158245 160.462884 
L 283.824887 157.64986 
L 284.491529 174.528 
L 285.158171 163.275907 
L 285.824812 171.714977 
L 286.491454 157.64986 
L 287.158096 140.771721 
L 287.824738 160.462884 
L 288.49138 174.528 
L 289.158021 191.40614 
L 289.824663 171.714977 
L 290.491305 137.958698 
L 291.157947 129.519628 
L 291.824588 135.145674 
L 292.49123 171.714977 
L 293.157872 177.341023 
L 293.824514 171.714977 
L 294.491155 171.714977 
L 295.157797 177.341023 
L 295.824439 154.836837 
L 296.491081 171.714977 
L 297.157723 157.64986 
L 297.824364 154.836837 
L 298.491006 137.958698 
L 299.157648 205.471256 
L 299.82429 202.658233 
L 300.490931 191.40614 
L 301.824215 233.601488 
L 302.490857 191.40614 
L 303.157499 182.96707 
L 303.82414 202.658233 
L 304.490782 160.462884 
L 305.157424 202.658233 
L 305.824066 174.528 
L 306.490707 182.96707 
L 307.157349 180.154047 
L 307.823991 157.64986 
L 309.157275 194.219163 
L 309.823916 199.845209 
L 310.490558 194.219163 
L 311.1572 182.96707 
L 311.823842 152.023814 
L 312.490483 160.462884 
L 313.157125 135.145674 
L 313.823767 137.958698 
L 314.490409 135.145674 
L 315.157051 135.145674 
L 315.823692 118.267535 
L 316.490334 140.771721 
L 317.156976 146.397767 
L 317.823618 132.332651 
L 318.490259 160.462884 
L 319.156901 168.901953 
L 320.490185 191.40614 
L 321.156827 182.96707 
L 321.823468 185.780093 
L 322.49011 185.780093 
L 323.156752 160.462884 
L 323.823394 121.080558 
L 324.490035 112.641488 
L 325.156677 101.389395 
L 325.823319 140.771721 
L 326.489961 115.454512 
L 327.156603 107.015442 
L 327.823244 140.771721 
L 328.489886 160.462884 
L 329.156528 188.593116 
L 329.82317 199.845209 
L 330.489811 194.219163 
L 331.156453 140.771721 
L 331.823095 174.528 
L 332.489737 180.154047 
L 333.156379 180.154047 
L 333.82302 154.836837 
L 335.156304 199.845209 
L 335.822946 188.593116 
L 336.489587 188.593116 
L 337.156229 154.836837 
L 337.822871 177.341023 
L 338.489513 182.96707 
L 339.156155 177.341023 
L 339.822796 191.40614 
L 340.489438 168.901953 
L 341.15608 180.154047 
L 341.822722 152.023814 
L 342.489363 171.714977 
L 343.156005 182.96707 
L 343.822647 149.210791 
L 344.489289 166.08893 
L 345.155931 174.528 
L 345.822572 205.471256 
L 346.489214 216.723349 
L 347.155856 202.658233 
L 349.155781 177.341023 
L 349.822423 208.284279 
L 350.489065 185.780093 
L 351.155707 185.780093 
L 351.822348 213.910326 
L 352.48899 216.723349 
L 353.155632 242.040558 
L 353.822274 239.227535 
L 354.488915 174.528 
L 355.155557 185.780093 
L 355.822199 208.284279 
L 356.488841 219.536372 
L 357.155483 244.853581 
L 357.822124 222.349395 
L 358.488766 236.414512 
L 359.155408 236.414512 
L 359.82205 216.723349 
L 360.488691 230.788465 
L 361.155333 194.219163 
L 361.821975 197.032186 
L 362.488617 191.40614 
L 363.155259 171.714977 
L 363.8219 211.097302 
L 364.488542 216.723349 
L 365.155184 227.975442 
L 365.821826 191.40614 
L 366.488467 208.284279 
L 367.155109 230.788465 
L 367.821751 211.097302 
L 368.488393 219.536372 
L 369.155035 208.284279 
L 369.821676 194.219163 
L 370.488318 205.471256 
L 371.15496 205.471256 
L 371.821602 197.032186 
L 372.488243 211.097302 
L 373.154885 216.723349 
L 373.821527 236.414512 
L 374.488169 236.414512 
L 375.154811 242.040558 
L 375.821452 253.292651 
L 377.154736 242.040558 
L 377.821378 272.983814 
L 378.488019 284.235907 
L 379.154661 264.544744 
L 379.821303 264.544744 
L 381.821228 289.861953 
L 382.48787 272.983814 
L 383.154512 287.04893 
L 383.821154 295.488 
L 384.487795 253.292651 
L 385.821079 264.544744 
L 386.487721 247.666605 
L 387.154363 247.666605 
L 387.821004 267.357767 
L 388.487646 244.853581 
L 389.154288 258.918698 
L 389.82093 275.796837 
L 390.487571 239.227535 
L 391.154213 272.983814 
L 391.820855 256.105674 
L 392.487497 261.731721 
L 393.154139 253.292651 
L 393.82078 236.414512 
L 394.487422 244.853581 
L 395.154064 247.666605 
L 395.820706 236.414512 
L 396.487347 256.105674 
L 397.153989 256.105674 
L 397.820631 250.479628 
L 398.487273 270.170791 
L 398.487273 270.170791 
" style="fill:none;stroke:#1f77b4;stroke-linecap:square;stroke-width:1.5;"/>
   </g>
   <g id="patch_3">
    <path d="M 57.6 307.584 
L 57.6 41.472 
" style="fill:none;stroke:#000000;stroke-linecap:square;stroke-linejoin:miter;stroke-width:0.8;"/>
   </g>
   <g id="patch_4">
    <path d="M 414.72 307.584 
L 414.72 41.472 
" style="fill:none;stroke:#000000;stroke-linecap:square;stroke-linejoin:miter;stroke-width:0.8;"/>
   </g>
   <g id="patch_5">
    <path d="M 57.6 307.584 
L 414.72 307.584 
" style="fill:none;stroke:#000000;stroke-linecap:square;stroke-linejoin:miter;stroke-width:0.8;"/>
   </g>
   <g id="patch_6">
    <path d="M 57.6 41.472 
L 414.72 41.472 
" style="fill:none;stroke:#000000;stroke-linecap:square;stroke-linejoin:miter;stroke-width:0.8;"/>
   </g>
   <g id="text_16">
    <!-- Simulated Anealling Cost -->
    <g transform="translate(160.8 35.472)scale(0.12 -0.12)">
     <defs>
      <path d="M 53.515625 70.515625 
L 53.515625 60.890625 
Q 47.90625 63.578125 42.921875 64.890625 
Q 37.9375 66.21875 33.296875 66.21875 
Q 25.25 66.21875 20.875 63.09375 
Q 16.5 59.96875 16.5 54.203125 
Q 16.5 49.359375 19.40625 46.890625 
Q 22.3125 44.4375 30.421875 42.921875 
L 36.375 41.703125 
Q 47.40625 39.59375 52.65625 34.296875 
Q 57.90625 29 57.90625 20.125 
Q 57.90625 9.515625 50.796875 4.046875 
Q 43.703125 -1.421875 29.984375 -1.421875 
Q 24.8125 -1.421875 18.96875 -0.25 
Q 13.140625 0.921875 6.890625 3.21875 
L 6.890625 13.375 
Q 12.890625 10.015625 18.65625 8.296875 
Q 24.421875 6.59375 29.984375 6.59375 
Q 38.421875 6.59375 43.015625 9.90625 
Q 47.609375 13.234375 47.609375 19.390625 
Q 47.609375 24.75 44.3125 27.78125 
Q 41.015625 30.8125 33.5 32.328125 
L 27.484375 33.5 
Q 16.453125 35.6875 11.515625 40.375 
Q 6.59375 45.0625 6.59375 53.421875 
Q 6.59375 63.09375 13.40625 68.65625 
Q 20.21875 74.21875 32.171875 74.21875 
Q 37.3125 74.21875 42.625 73.28125 
Q 47.953125 72.359375 53.515625 70.515625 
z
" id="DejaVuSans-83"/>
      <path d="M 9.421875 54.6875 
L 18.40625 54.6875 
L 18.40625 0 
L 9.421875 0 
z
M 9.421875 75.984375 
L 18.40625 75.984375 
L 18.40625 64.59375 
L 9.421875 64.59375 
z
" id="DejaVuSans-105"/>
      <path d="M 56.203125 29.59375 
L 56.203125 25.203125 
L 14.890625 25.203125 
Q 15.484375 15.921875 20.484375 11.0625 
Q 25.484375 6.203125 34.421875 6.203125 
Q 39.59375 6.203125 44.453125 7.46875 
Q 49.3125 8.734375 54.109375 11.28125 
L 54.109375 2.78125 
Q 49.265625 0.734375 44.1875 -0.34375 
Q 39.109375 -1.421875 33.890625 -1.421875 
Q 20.796875 -1.421875 13.15625 6.1875 
Q 5.515625 13.8125 5.515625 26.8125 
Q 5.515625 40.234375 12.765625 48.109375 
Q 20.015625 56 32.328125 56 
Q 43.359375 56 49.78125 48.890625 
Q 56.203125 41.796875 56.203125 29.59375 
z
M 47.21875 32.234375 
Q 47.125 39.59375 43.09375 43.984375 
Q 39.0625 48.390625 32.421875 48.390625 
Q 24.90625 48.390625 20.390625 44.140625 
Q 15.875 39.890625 15.1875 32.171875 
z
" id="DejaVuSans-101"/>
      <path d="M 45.40625 46.390625 
L 45.40625 75.984375 
L 54.390625 75.984375 
L 54.390625 0 
L 45.40625 0 
L 45.40625 8.203125 
Q 42.578125 3.328125 38.25 0.953125 
Q 33.9375 -1.421875 27.875 -1.421875 
Q 17.96875 -1.421875 11.734375 6.484375 
Q 5.515625 14.40625 5.515625 27.296875 
Q 5.515625 40.1875 11.734375 48.09375 
Q 17.96875 56 27.875 56 
Q 33.9375 56 38.25 53.625 
Q 42.578125 51.265625 45.40625 46.390625 
z
M 14.796875 27.296875 
Q 14.796875 17.390625 18.875 11.75 
Q 22.953125 6.109375 30.078125 6.109375 
Q 37.203125 6.109375 41.296875 11.75 
Q 45.40625 17.390625 45.40625 27.296875 
Q 45.40625 37.203125 41.296875 42.84375 
Q 37.203125 48.484375 30.078125 48.484375 
Q 22.953125 48.484375 18.875 42.84375 
Q 14.796875 37.203125 14.796875 27.296875 
z
" id="DejaVuSans-100"/>
      <path d="M 34.1875 63.1875 
L 20.796875 26.90625 
L 47.609375 26.90625 
z
M 28.609375 72.90625 
L 39.796875 72.90625 
L 67.578125 0 
L 57.328125 0 
L 50.6875 18.703125 
L 17.828125 18.703125 
L 11.1875 0 
L 0.78125 0 
z
" id="DejaVuSans-65"/>
      <path d="M 45.40625 27.984375 
Q 45.40625 37.75 41.375 43.109375 
Q 37.359375 48.484375 30.078125 48.484375 
Q 22.859375 48.484375 18.828125 43.109375 
Q 14.796875 37.75 14.796875 27.984375 
Q 14.796875 18.265625 18.828125 12.890625 
Q 22.859375 7.515625 30.078125 7.515625 
Q 37.359375 7.515625 41.375 12.890625 
Q 45.40625 18.265625 45.40625 27.984375 
z
M 54.390625 6.78125 
Q 54.390625 -7.171875 48.1875 -13.984375 
Q 42 -20.796875 29.203125 -20.796875 
Q 24.46875 -20.796875 20.265625 -20.09375 
Q 16.0625 -19.390625 12.109375 -17.921875 
L 12.109375 -9.1875 
Q 16.0625 -11.328125 19.921875 -12.34375 
Q 23.78125 -13.375 27.78125 -13.375 
Q 36.625 -13.375 41.015625 -8.765625 
Q 45.40625 -4.15625 45.40625 5.171875 
L 45.40625 9.625 
Q 42.625 4.78125 38.28125 2.390625 
Q 33.9375 0 27.875 0 
Q 17.828125 0 11.671875 7.65625 
Q 5.515625 15.328125 5.515625 27.984375 
Q 5.515625 40.671875 11.671875 48.328125 
Q 17.828125 56 27.875 56 
Q 33.9375 56 38.28125 53.609375 
Q 42.625 51.21875 45.40625 46.390625 
L 45.40625 54.6875 
L 54.390625 54.6875 
z
" id="DejaVuSans-103"/>
      <path d="M 64.40625 67.28125 
L 64.40625 56.890625 
Q 59.421875 61.53125 53.78125 63.8125 
Q 48.140625 66.109375 41.796875 66.109375 
Q 29.296875 66.109375 22.65625 58.46875 
Q 16.015625 50.828125 16.015625 36.375 
Q 16.015625 21.96875 22.65625 14.328125 
Q 29.296875 6.6875 41.796875 6.6875 
Q 48.140625 6.6875 53.78125 8.984375 
Q 59.421875 11.28125 64.40625 15.921875 
L 64.40625 5.609375 
Q 59.234375 2.09375 53.4375 0.328125 
Q 47.65625 -1.421875 41.21875 -1.421875 
Q 24.65625 -1.421875 15.125 8.703125 
Q 5.609375 18.84375 5.609375 36.375 
Q 5.609375 53.953125 15.125 64.078125 
Q 24.65625 74.21875 41.21875 74.21875 
Q 47.75 74.21875 53.53125 72.484375 
Q 59.328125 70.75 64.40625 67.28125 
z
" id="DejaVuSans-67"/>
     </defs>
     <use xlink:href="#DejaVuSans-83"/>
     <use x="63.476562" xlink:href="#DejaVuSans-105"/>
     <use x="91.259766" xlink:href="#DejaVuSans-109"/>
     <use x="188.671875" xlink:href="#DejaVuSans-117"/>
     <use x="252.050781" xlink:href="#DejaVuSans-108"/>
     <use x="279.833984" xlink:href="#DejaVuSans-97"/>
     <use x="341.113281" xlink:href="#DejaVuSans-116"/>
     <use x="380.322266" xlink:href="#DejaVuSans-101"/>
     <use x="441.845703" xlink:href="#DejaVuSans-100"/>
     <use x="505.322266" xlink:href="#DejaVuSans-32"/>
     <use x="537.109375" xlink:href="#DejaVuSans-65"/>
     <use x="605.517578" xlink:href="#DejaVuSans-110"/>
     <use x="668.896484" xlink:href="#DejaVuSans-101"/>
     <use x="730.419922" xlink:href="#DejaVuSans-97"/>
     <use x="791.699219" xlink:href="#DejaVuSans-108"/>
     <use x="819.482422" xlink:href="#DejaVuSans-108"/>
     <use x="847.265625" xlink:href="#DejaVuSans-105"/>
     <use x="875.048828" xlink:href="#DejaVuSans-110"/>
     <use x="938.427734" xlink:href="#DejaVuSans-103"/>
     <use x="1001.904297" xlink:href="#DejaVuSans-32"/>
     <use x="1033.691406" xlink:href="#DejaVuSans-67"/>
     <use x="1103.515625" xlink:href="#DejaVuSans-111"/>
     <use x="1164.697266" xlink:href="#DejaVuSans-115"/>
     <use x="1216.796875" xlink:href="#DejaVuSans-116"/>
    </g>
   </g>
  </g>
 </g>
 <defs>
  <clipPath id="p59a206f533">
   <rect height="266.112" width="357.12" x="57.6" y="41.472"/>
  </clipPath>
 </defs>
</svg>
