<?xml version="1.0" encoding="utf-8" standalone="no"?>
<!DOCTYPE svg PUBLIC "-//W3C//DTD SVG 1.1//EN"
  "http://www.w3.org/Graphics/SVG/1.1/DTD/svg11.dtd">
<svg xmlns:xlink="http://www.w3.org/1999/xlink" width="460.8pt" height="345.6pt" viewBox="0 0 460.8 345.6" xmlns="http://www.w3.org/2000/svg" version="1.1">
 <metadata>
  <rdf:RDF xmlns:dc="http://purl.org/dc/elements/1.1/" xmlns:cc="http://creativecommons.org/ns#" xmlns:rdf="http://www.w3.org/1999/02/22-rdf-syntax-ns#">
   <cc:Work>
    <dc:type rdf:resource="http://purl.org/dc/dcmitype/StillImage"/>
    <dc:date>2022-06-01T08:04:59.271899</dc:date>
    <dc:format>image/svg+xml</dc:format>
    <dc:creator>
     <cc:Agent>
      <dc:title>Matplotlib v3.5.1, https://matplotlib.org/</dc:title>
     </cc:Agent>
    </dc:creator>
   </cc:Work>
  </rdf:RDF>
 </metadata>
 <defs>
  <style type="text/css">*{stroke-linejoin: round; stroke-linecap: butt}</style>
 </defs>
 <g id="figure_1">
  <g id="patch_1">
   <path d="M 0 345.6 
L 460.8 345.6 
L 460.8 0 
L 0 0 
z
" style="fill: #ffffff"/>
  </g>
  <g id="axes_1">
   <g id="patch_2">
    <path d="M 57.6 307.584 
L 414.72 307.584 
L 414.72 41.472 
L 57.6 41.472 
z
" style="fill: #ffffff"/>
   </g>
   <g id="matplotlib.axis_1">
    <g id="xtick_1">
     <g id="line2d_1">
      <defs>
       <path id="ma4a01ecbd3" d="M 0 0 
L 0 3.5 
" style="stroke: #000000; stroke-width: 0.8"/>
      </defs>
      <g>
       <use xlink:href="#ma4a01ecbd3" x="73.832727" y="307.584" style="stroke: #000000; stroke-width: 0.8"/>
      </g>
     </g>
     <g id="text_1">
      <!-- 0 -->
      <g transform="translate(70.651477 322.182437)scale(0.1 -0.1)">
       <defs>
        <path id="DejaVuSans-30" d="M 2034 4250 
Q 1547 4250 1301 3770 
Q 1056 3291 1056 2328 
Q 1056 1369 1301 889 
Q 1547 409 2034 409 
Q 2525 409 2770 889 
Q 3016 1369 3016 2328 
Q 3016 3291 2770 3770 
Q 2525 4250 2034 4250 
z
M 2034 4750 
Q 2819 4750 3233 4129 
Q 3647 3509 3647 2328 
Q 3647 1150 3233 529 
Q 2819 -91 2034 -91 
Q 1250 -91 836 529 
Q 422 1150 422 2328 
Q 422 3509 836 4129 
Q 1250 4750 2034 4750 
z
" transform="scale(0.015625)"/>
       </defs>
       <use xlink:href="#DejaVuSans-30"/>
      </g>
     </g>
    </g>
    <g id="xtick_2">
     <g id="line2d_2">
      <g>
       <use xlink:href="#ma4a01ecbd3" x="113.657868" y="307.584" style="stroke: #000000; stroke-width: 0.8"/>
      </g>
     </g>
     <g id="text_2">
      <!-- 250 -->
      <g transform="translate(104.114118 322.182437)scale(0.1 -0.1)">
       <defs>
        <path id="DejaVuSans-32" d="M 1228 531 
L 3431 531 
L 3431 0 
L 469 0 
L 469 531 
Q 828 903 1448 1529 
Q 2069 2156 2228 2338 
Q 2531 2678 2651 2914 
Q 2772 3150 2772 3378 
Q 2772 3750 2511 3984 
Q 2250 4219 1831 4219 
Q 1534 4219 1204 4116 
Q 875 4013 500 3803 
L 500 4441 
Q 881 4594 1212 4672 
Q 1544 4750 1819 4750 
Q 2544 4750 2975 4387 
Q 3406 4025 3406 3419 
Q 3406 3131 3298 2873 
Q 3191 2616 2906 2266 
Q 2828 2175 2409 1742 
Q 1991 1309 1228 531 
z
" transform="scale(0.015625)"/>
        <path id="DejaVuSans-35" d="M 691 4666 
L 3169 4666 
L 3169 4134 
L 1269 4134 
L 1269 2991 
Q 1406 3038 1543 3061 
Q 1681 3084 1819 3084 
Q 2600 3084 3056 2656 
Q 3513 2228 3513 1497 
Q 3513 744 3044 326 
Q 2575 -91 1722 -91 
Q 1428 -91 1123 -41 
Q 819 9 494 109 
L 494 744 
Q 775 591 1075 516 
Q 1375 441 1709 441 
Q 2250 441 2565 725 
Q 2881 1009 2881 1497 
Q 2881 1984 2565 2268 
Q 2250 2553 1709 2553 
Q 1456 2553 1204 2497 
Q 953 2441 691 2322 
L 691 4666 
z
" transform="scale(0.015625)"/>
       </defs>
       <use xlink:href="#DejaVuSans-32"/>
       <use xlink:href="#DejaVuSans-35" x="63.623047"/>
       <use xlink:href="#DejaVuSans-30" x="127.246094"/>
      </g>
     </g>
    </g>
    <g id="xtick_3">
     <g id="line2d_3">
      <g>
       <use xlink:href="#ma4a01ecbd3" x="153.483008" y="307.584" style="stroke: #000000; stroke-width: 0.8"/>
      </g>
     </g>
     <g id="text_3">
      <!-- 500 -->
      <g transform="translate(143.939258 322.182437)scale(0.1 -0.1)">
       <use xlink:href="#DejaVuSans-35"/>
       <use xlink:href="#DejaVuSans-30" x="63.623047"/>
       <use xlink:href="#DejaVuSans-30" x="127.246094"/>
      </g>
     </g>
    </g>
    <g id="xtick_4">
     <g id="line2d_4">
      <g>
       <use xlink:href="#ma4a01ecbd3" x="193.308149" y="307.584" style="stroke: #000000; stroke-width: 0.8"/>
      </g>
     </g>
     <g id="text_4">
      <!-- 750 -->
      <g transform="translate(183.764399 322.182437)scale(0.1 -0.1)">
       <defs>
        <path id="DejaVuSans-37" d="M 525 4666 
L 3525 4666 
L 3525 4397 
L 1831 0 
L 1172 0 
L 2766 4134 
L 525 4134 
L 525 4666 
z
" transform="scale(0.015625)"/>
       </defs>
       <use xlink:href="#DejaVuSans-37"/>
       <use xlink:href="#DejaVuSans-35" x="63.623047"/>
       <use xlink:href="#DejaVuSans-30" x="127.246094"/>
      </g>
     </g>
    </g>
    <g id="xtick_5">
     <g id="line2d_5">
      <g>
       <use xlink:href="#ma4a01ecbd3" x="233.133289" y="307.584" style="stroke: #000000; stroke-width: 0.8"/>
      </g>
     </g>
     <g id="text_5">
      <!-- 1000 -->
      <g transform="translate(220.408289 322.182437)scale(0.1 -0.1)">
       <defs>
        <path id="DejaVuSans-31" d="M 794 531 
L 1825 531 
L 1825 4091 
L 703 3866 
L 703 4441 
L 1819 4666 
L 2450 4666 
L 2450 531 
L 3481 531 
L 3481 0 
L 794 0 
L 794 531 
z
" transform="scale(0.015625)"/>
       </defs>
       <use xlink:href="#DejaVuSans-31"/>
       <use xlink:href="#DejaVuSans-30" x="63.623047"/>
       <use xlink:href="#DejaVuSans-30" x="127.246094"/>
       <use xlink:href="#DejaVuSans-30" x="190.869141"/>
      </g>
     </g>
    </g>
    <g id="xtick_6">
     <g id="line2d_6">
      <g>
       <use xlink:href="#ma4a01ecbd3" x="272.95843" y="307.584" style="stroke: #000000; stroke-width: 0.8"/>
      </g>
     </g>
     <g id="text_6">
      <!-- 1250 -->
      <g transform="translate(260.23343 322.182437)scale(0.1 -0.1)">
       <use xlink:href="#DejaVuSans-31"/>
       <use xlink:href="#DejaVuSans-32" x="63.623047"/>
       <use xlink:href="#DejaVuSans-35" x="127.246094"/>
       <use xlink:href="#DejaVuSans-30" x="190.869141"/>
      </g>
     </g>
    </g>
    <g id="xtick_7">
     <g id="line2d_7">
      <g>
       <use xlink:href="#ma4a01ecbd3" x="312.78357" y="307.584" style="stroke: #000000; stroke-width: 0.8"/>
      </g>
     </g>
     <g id="text_7">
      <!-- 1500 -->
      <g transform="translate(300.05857 322.182437)scale(0.1 -0.1)">
       <use xlink:href="#DejaVuSans-31"/>
       <use xlink:href="#DejaVuSans-35" x="63.623047"/>
       <use xlink:href="#DejaVuSans-30" x="127.246094"/>
       <use xlink:href="#DejaVuSans-30" x="190.869141"/>
      </g>
     </g>
    </g>
    <g id="xtick_8">
     <g id="line2d_8">
      <g>
       <use xlink:href="#ma4a01ecbd3" x="352.608711" y="307.584" style="stroke: #000000; stroke-width: 0.8"/>
      </g>
     </g>
     <g id="text_8">
      <!-- 1750 -->
      <g transform="translate(339.883711 322.182437)scale(0.1 -0.1)">
       <use xlink:href="#DejaVuSans-31"/>
       <use xlink:href="#DejaVuSans-37" x="63.623047"/>
       <use xlink:href="#DejaVuSans-35" x="127.246094"/>
       <use xlink:href="#DejaVuSans-30" x="190.869141"/>
      </g>
     </g>
    </g>
    <g id="xtick_9">
     <g id="line2d_9">
      <g>
       <use xlink:href="#ma4a01ecbd3" x="392.433851" y="307.584" style="stroke: #000000; stroke-width: 0.8"/>
      </g>
     </g>
     <g id="text_9">
      <!-- 2000 -->
      <g transform="translate(379.708851 322.182437)scale(0.1 -0.1)">
       <use xlink:href="#DejaVuSans-32"/>
       <use xlink:href="#DejaVuSans-30" x="63.623047"/>
       <use xlink:href="#DejaVuSans-30" x="127.246094"/>
       <use xlink:href="#DejaVuSans-30" x="190.869141"/>
      </g>
     </g>
    </g>
    <g id="text_10">
     <!-- num swaps -->
     <g transform="translate(207.826406 335.860562)scale(0.1 -0.1)">
      <defs>
       <path id="DejaVuSans-6e" d="M 3513 2113 
L 3513 0 
L 2938 0 
L 2938 2094 
Q 2938 2591 2744 2837 
Q 2550 3084 2163 3084 
Q 1697 3084 1428 2787 
Q 1159 2491 1159 1978 
L 1159 0 
L 581 0 
L 581 3500 
L 1159 3500 
L 1159 2956 
Q 1366 3272 1645 3428 
Q 1925 3584 2291 3584 
Q 2894 3584 3203 3211 
Q 3513 2838 3513 2113 
z
" transform="scale(0.015625)"/>
       <path id="DejaVuSans-75" d="M 544 1381 
L 544 3500 
L 1119 3500 
L 1119 1403 
Q 1119 906 1312 657 
Q 1506 409 1894 409 
Q 2359 409 2629 706 
Q 2900 1003 2900 1516 
L 2900 3500 
L 3475 3500 
L 3475 0 
L 2900 0 
L 2900 538 
Q 2691 219 2414 64 
Q 2138 -91 1772 -91 
Q 1169 -91 856 284 
Q 544 659 544 1381 
z
M 1991 3584 
L 1991 3584 
z
" transform="scale(0.015625)"/>
       <path id="DejaVuSans-6d" d="M 3328 2828 
Q 3544 3216 3844 3400 
Q 4144 3584 4550 3584 
Q 5097 3584 5394 3201 
Q 5691 2819 5691 2113 
L 5691 0 
L 5113 0 
L 5113 2094 
Q 5113 2597 4934 2840 
Q 4756 3084 4391 3084 
Q 3944 3084 3684 2787 
Q 3425 2491 3425 1978 
L 3425 0 
L 2847 0 
L 2847 2094 
Q 2847 2600 2669 2842 
Q 2491 3084 2119 3084 
Q 1678 3084 1418 2786 
Q 1159 2488 1159 1978 
L 1159 0 
L 581 0 
L 581 3500 
L 1159 3500 
L 1159 2956 
Q 1356 3278 1631 3431 
Q 1906 3584 2284 3584 
Q 2666 3584 2933 3390 
Q 3200 3197 3328 2828 
z
" transform="scale(0.015625)"/>
       <path id="DejaVuSans-20" transform="scale(0.015625)"/>
       <path id="DejaVuSans-73" d="M 2834 3397 
L 2834 2853 
Q 2591 2978 2328 3040 
Q 2066 3103 1784 3103 
Q 1356 3103 1142 2972 
Q 928 2841 928 2578 
Q 928 2378 1081 2264 
Q 1234 2150 1697 2047 
L 1894 2003 
Q 2506 1872 2764 1633 
Q 3022 1394 3022 966 
Q 3022 478 2636 193 
Q 2250 -91 1575 -91 
Q 1294 -91 989 -36 
Q 684 19 347 128 
L 347 722 
Q 666 556 975 473 
Q 1284 391 1588 391 
Q 1994 391 2212 530 
Q 2431 669 2431 922 
Q 2431 1156 2273 1281 
Q 2116 1406 1581 1522 
L 1381 1569 
Q 847 1681 609 1914 
Q 372 2147 372 2553 
Q 372 3047 722 3315 
Q 1072 3584 1716 3584 
Q 2034 3584 2315 3537 
Q 2597 3491 2834 3397 
z
" transform="scale(0.015625)"/>
       <path id="DejaVuSans-77" d="M 269 3500 
L 844 3500 
L 1563 769 
L 2278 3500 
L 2956 3500 
L 3675 769 
L 4391 3500 
L 4966 3500 
L 4050 0 
L 3372 0 
L 2619 2869 
L 1863 0 
L 1184 0 
L 269 3500 
z
" transform="scale(0.015625)"/>
       <path id="DejaVuSans-61" d="M 2194 1759 
Q 1497 1759 1228 1600 
Q 959 1441 959 1056 
Q 959 750 1161 570 
Q 1363 391 1709 391 
Q 2188 391 2477 730 
Q 2766 1069 2766 1631 
L 2766 1759 
L 2194 1759 
z
M 3341 1997 
L 3341 0 
L 2766 0 
L 2766 531 
Q 2569 213 2275 61 
Q 1981 -91 1556 -91 
Q 1019 -91 701 211 
Q 384 513 384 1019 
Q 384 1609 779 1909 
Q 1175 2209 1959 2209 
L 2766 2209 
L 2766 2266 
Q 2766 2663 2505 2880 
Q 2244 3097 1772 3097 
Q 1472 3097 1187 3025 
Q 903 2953 641 2809 
L 641 3341 
Q 956 3463 1253 3523 
Q 1550 3584 1831 3584 
Q 2591 3584 2966 3190 
Q 3341 2797 3341 1997 
z
" transform="scale(0.015625)"/>
       <path id="DejaVuSans-70" d="M 1159 525 
L 1159 -1331 
L 581 -1331 
L 581 3500 
L 1159 3500 
L 1159 2969 
Q 1341 3281 1617 3432 
Q 1894 3584 2278 3584 
Q 2916 3584 3314 3078 
Q 3713 2572 3713 1747 
Q 3713 922 3314 415 
Q 2916 -91 2278 -91 
Q 1894 -91 1617 61 
Q 1341 213 1159 525 
z
M 3116 1747 
Q 3116 2381 2855 2742 
Q 2594 3103 2138 3103 
Q 1681 3103 1420 2742 
Q 1159 2381 1159 1747 
Q 1159 1113 1420 752 
Q 1681 391 2138 391 
Q 2594 391 2855 752 
Q 3116 1113 3116 1747 
z
" transform="scale(0.015625)"/>
      </defs>
      <use xlink:href="#DejaVuSans-6e"/>
      <use xlink:href="#DejaVuSans-75" x="63.378906"/>
      <use xlink:href="#DejaVuSans-6d" x="126.757812"/>
      <use xlink:href="#DejaVuSans-20" x="224.169922"/>
      <use xlink:href="#DejaVuSans-73" x="255.957031"/>
      <use xlink:href="#DejaVuSans-77" x="308.056641"/>
      <use xlink:href="#DejaVuSans-61" x="389.84375"/>
      <use xlink:href="#DejaVuSans-70" x="451.123047"/>
      <use xlink:href="#DejaVuSans-73" x="514.599609"/>
     </g>
    </g>
   </g>
   <g id="matplotlib.axis_2">
    <g id="ytick_1">
     <g id="line2d_10">
      <defs>
       <path id="m074a870a90" d="M 0 0 
L -3.5 0 
" style="stroke: #000000; stroke-width: 0.8"/>
      </defs>
      <g>
       <use xlink:href="#m074a870a90" x="57.6" y="303.463385" style="stroke: #000000; stroke-width: 0.8"/>
      </g>
     </g>
     <g id="text_11">
      <!-- 420 -->
      <g transform="translate(31.5125 307.262603)scale(0.1 -0.1)">
       <defs>
        <path id="DejaVuSans-34" d="M 2419 4116 
L 825 1625 
L 2419 1625 
L 2419 4116 
z
M 2253 4666 
L 3047 4666 
L 3047 1625 
L 3713 1625 
L 3713 1100 
L 3047 1100 
L 3047 0 
L 2419 0 
L 2419 1100 
L 313 1100 
L 313 1709 
L 2253 4666 
z
" transform="scale(0.015625)"/>
       </defs>
       <use xlink:href="#DejaVuSans-34"/>
       <use xlink:href="#DejaVuSans-32" x="63.623047"/>
       <use xlink:href="#DejaVuSans-30" x="127.246094"/>
      </g>
     </g>
    </g>
    <g id="ytick_2">
     <g id="line2d_11">
      <g>
       <use xlink:href="#m074a870a90" x="57.6" y="250.294154" style="stroke: #000000; stroke-width: 0.8"/>
      </g>
     </g>
     <g id="text_12">
      <!-- 440 -->
      <g transform="translate(31.5125 254.093373)scale(0.1 -0.1)">
       <use xlink:href="#DejaVuSans-34"/>
       <use xlink:href="#DejaVuSans-34" x="63.623047"/>
       <use xlink:href="#DejaVuSans-30" x="127.246094"/>
      </g>
     </g>
    </g>
    <g id="ytick_3">
     <g id="line2d_12">
      <g>
       <use xlink:href="#m074a870a90" x="57.6" y="197.124923" style="stroke: #000000; stroke-width: 0.8"/>
      </g>
     </g>
     <g id="text_13">
      <!-- 460 -->
      <g transform="translate(31.5125 200.924142)scale(0.1 -0.1)">
       <defs>
        <path id="DejaVuSans-36" d="M 2113 2584 
Q 1688 2584 1439 2293 
Q 1191 2003 1191 1497 
Q 1191 994 1439 701 
Q 1688 409 2113 409 
Q 2538 409 2786 701 
Q 3034 994 3034 1497 
Q 3034 2003 2786 2293 
Q 2538 2584 2113 2584 
z
M 3366 4563 
L 3366 3988 
Q 3128 4100 2886 4159 
Q 2644 4219 2406 4219 
Q 1781 4219 1451 3797 
Q 1122 3375 1075 2522 
Q 1259 2794 1537 2939 
Q 1816 3084 2150 3084 
Q 2853 3084 3261 2657 
Q 3669 2231 3669 1497 
Q 3669 778 3244 343 
Q 2819 -91 2113 -91 
Q 1303 -91 875 529 
Q 447 1150 447 2328 
Q 447 3434 972 4092 
Q 1497 4750 2381 4750 
Q 2619 4750 2861 4703 
Q 3103 4656 3366 4563 
z
" transform="scale(0.015625)"/>
       </defs>
       <use xlink:href="#DejaVuSans-34"/>
       <use xlink:href="#DejaVuSans-36" x="63.623047"/>
       <use xlink:href="#DejaVuSans-30" x="127.246094"/>
      </g>
     </g>
    </g>
    <g id="ytick_4">
     <g id="line2d_13">
      <g>
       <use xlink:href="#m074a870a90" x="57.6" y="143.955692" style="stroke: #000000; stroke-width: 0.8"/>
      </g>
     </g>
     <g id="text_14">
      <!-- 480 -->
      <g transform="translate(31.5125 147.754911)scale(0.1 -0.1)">
       <defs>
        <path id="DejaVuSans-38" d="M 2034 2216 
Q 1584 2216 1326 1975 
Q 1069 1734 1069 1313 
Q 1069 891 1326 650 
Q 1584 409 2034 409 
Q 2484 409 2743 651 
Q 3003 894 3003 1313 
Q 3003 1734 2745 1975 
Q 2488 2216 2034 2216 
z
M 1403 2484 
Q 997 2584 770 2862 
Q 544 3141 544 3541 
Q 544 4100 942 4425 
Q 1341 4750 2034 4750 
Q 2731 4750 3128 4425 
Q 3525 4100 3525 3541 
Q 3525 3141 3298 2862 
Q 3072 2584 2669 2484 
Q 3125 2378 3379 2068 
Q 3634 1759 3634 1313 
Q 3634 634 3220 271 
Q 2806 -91 2034 -91 
Q 1263 -91 848 271 
Q 434 634 434 1313 
Q 434 1759 690 2068 
Q 947 2378 1403 2484 
z
M 1172 3481 
Q 1172 3119 1398 2916 
Q 1625 2713 2034 2713 
Q 2441 2713 2670 2916 
Q 2900 3119 2900 3481 
Q 2900 3844 2670 4047 
Q 2441 4250 2034 4250 
Q 1625 4250 1398 4047 
Q 1172 3844 1172 3481 
z
" transform="scale(0.015625)"/>
       </defs>
       <use xlink:href="#DejaVuSans-34"/>
       <use xlink:href="#DejaVuSans-38" x="63.623047"/>
       <use xlink:href="#DejaVuSans-30" x="127.246094"/>
      </g>
     </g>
    </g>
    <g id="ytick_5">
     <g id="line2d_14">
      <g>
       <use xlink:href="#m074a870a90" x="57.6" y="90.786462" style="stroke: #000000; stroke-width: 0.8"/>
      </g>
     </g>
     <g id="text_15">
      <!-- 500 -->
      <g transform="translate(31.5125 94.58568)scale(0.1 -0.1)">
       <use xlink:href="#DejaVuSans-35"/>
       <use xlink:href="#DejaVuSans-30" x="63.623047"/>
       <use xlink:href="#DejaVuSans-30" x="127.246094"/>
      </g>
     </g>
    </g>
    <g id="text_16">
     <!-- total cost -->
     <g transform="translate(25.432812 197.923313)rotate(-90)scale(0.1 -0.1)">
      <defs>
       <path id="DejaVuSans-74" d="M 1172 4494 
L 1172 3500 
L 2356 3500 
L 2356 3053 
L 1172 3053 
L 1172 1153 
Q 1172 725 1289 603 
Q 1406 481 1766 481 
L 2356 481 
L 2356 0 
L 1766 0 
Q 1100 0 847 248 
Q 594 497 594 1153 
L 594 3053 
L 172 3053 
L 172 3500 
L 594 3500 
L 594 4494 
L 1172 4494 
z
" transform="scale(0.015625)"/>
       <path id="DejaVuSans-6f" d="M 1959 3097 
Q 1497 3097 1228 2736 
Q 959 2375 959 1747 
Q 959 1119 1226 758 
Q 1494 397 1959 397 
Q 2419 397 2687 759 
Q 2956 1122 2956 1747 
Q 2956 2369 2687 2733 
Q 2419 3097 1959 3097 
z
M 1959 3584 
Q 2709 3584 3137 3096 
Q 3566 2609 3566 1747 
Q 3566 888 3137 398 
Q 2709 -91 1959 -91 
Q 1206 -91 779 398 
Q 353 888 353 1747 
Q 353 2609 779 3096 
Q 1206 3584 1959 3584 
z
" transform="scale(0.015625)"/>
       <path id="DejaVuSans-6c" d="M 603 4863 
L 1178 4863 
L 1178 0 
L 603 0 
L 603 4863 
z
" transform="scale(0.015625)"/>
       <path id="DejaVuSans-63" d="M 3122 3366 
L 3122 2828 
Q 2878 2963 2633 3030 
Q 2388 3097 2138 3097 
Q 1578 3097 1268 2742 
Q 959 2388 959 1747 
Q 959 1106 1268 751 
Q 1578 397 2138 397 
Q 2388 397 2633 464 
Q 2878 531 3122 666 
L 3122 134 
Q 2881 22 2623 -34 
Q 2366 -91 2075 -91 
Q 1284 -91 818 406 
Q 353 903 353 1747 
Q 353 2603 823 3093 
Q 1294 3584 2113 3584 
Q 2378 3584 2631 3529 
Q 2884 3475 3122 3366 
z
" transform="scale(0.015625)"/>
      </defs>
      <use xlink:href="#DejaVuSans-74"/>
      <use xlink:href="#DejaVuSans-6f" x="39.208984"/>
      <use xlink:href="#DejaVuSans-74" x="100.390625"/>
      <use xlink:href="#DejaVuSans-61" x="139.599609"/>
      <use xlink:href="#DejaVuSans-6c" x="200.878906"/>
      <use xlink:href="#DejaVuSans-20" x="228.662109"/>
      <use xlink:href="#DejaVuSans-63" x="260.449219"/>
      <use xlink:href="#DejaVuSans-6f" x="315.429688"/>
      <use xlink:href="#DejaVuSans-73" x="376.611328"/>
      <use xlink:href="#DejaVuSans-74" x="428.710938"/>
     </g>
    </g>
   </g>
   <g id="line2d_15">
    <path d="M 73.832727 197.124923 
L 74.151328 199.783385 
L 74.46993 189.149538 
L 74.788531 183.832615 
L 75.107132 189.149538 
L 75.425733 191.808 
L 75.744334 183.832615 
L 76.062935 186.491077 
L 76.381536 197.124923 
L 76.700137 239.660308 
L 77.018739 210.417231 
L 77.33734 218.392615 
L 77.655941 218.392615 
L 78.293143 223.709538 
L 78.611744 221.051077 
L 78.930345 226.368 
L 79.248946 242.318769 
L 79.567548 213.075692 
L 79.886149 205.100308 
L 80.20475 221.051077 
L 80.523351 207.758769 
L 80.841952 215.734154 
L 81.160553 218.392615 
L 81.479154 197.124923 
L 81.797755 191.808 
L 82.116356 175.857231 
L 82.434958 170.540308 
L 82.753559 207.758769 
L 83.07216 207.758769 
L 83.390761 221.051077 
L 83.709362 244.977231 
L 84.027963 210.417231 
L 84.346564 207.758769 
L 84.665165 202.441846 
L 84.983767 221.051077 
L 85.302368 202.441846 
L 85.620969 199.783385 
L 86.258171 210.417231 
L 86.576772 202.441846 
L 86.895373 199.783385 
L 87.213974 194.466462 
L 87.851177 218.392615 
L 88.169778 210.417231 
L 88.488379 244.977231 
L 88.80698 229.026462 
L 89.444182 173.198769 
L 89.762783 175.857231 
L 90.081385 170.540308 
L 90.399986 186.491077 
L 90.718587 173.198769 
L 91.037188 135.980308 
L 91.355789 130.663385 
L 91.67439 133.321846 
L 91.992991 128.004923 
L 92.311592 138.638769 
L 92.630194 159.906462 
L 92.948795 135.980308 
L 93.267396 122.688 
L 93.585997 125.346462 
L 93.904598 104.078769 
L 94.223199 98.761846 
L 94.5418 112.054154 
L 94.860401 133.321846 
L 95.179003 133.321846 
L 95.497604 146.614154 
L 95.816205 135.980308 
L 96.134806 135.980308 
L 96.453407 120.029538 
L 96.772008 122.688 
L 97.090609 93.444923 
L 97.40921 112.054154 
L 97.727812 112.054154 
L 98.046413 93.444923 
L 98.365014 85.469538 
L 98.683615 90.786462 
L 99.002216 74.835692 
L 99.639418 96.103385 
L 99.958019 128.004923 
L 100.276621 135.980308 
L 100.595222 157.248 
L 100.913823 154.589538 
L 101.232424 154.589538 
L 101.869626 112.054154 
L 102.188227 128.004923 
L 102.82543 104.078769 
L 103.144031 104.078769 
L 103.462632 90.786462 
L 103.781233 120.029538 
L 104.099834 93.444923 
L 104.418435 96.103385 
L 104.737036 130.663385 
L 105.055637 138.638769 
L 105.374239 122.688 
L 106.011441 112.054154 
L 106.330042 114.712615 
L 106.648643 120.029538 
L 106.967244 120.029538 
L 107.285845 117.371077 
L 107.604446 120.029538 
L 108.241649 114.712615 
L 108.56025 125.346462 
L 108.878851 130.663385 
L 109.197452 122.688 
L 109.516053 122.688 
L 109.834654 151.931077 
L 110.153255 141.297231 
L 110.471857 178.515692 
L 110.790458 197.124923 
L 111.42766 181.174154 
L 111.746261 202.441846 
L 112.064862 197.124923 
L 112.383463 135.980308 
L 112.702064 130.663385 
L 113.020666 101.420308 
L 113.339267 109.395692 
L 113.657868 138.638769 
L 113.976469 143.955692 
L 114.29507 151.931077 
L 114.613671 135.980308 
L 115.569475 151.931077 
L 115.888076 154.589538 
L 116.206677 138.638769 
L 116.525278 141.297231 
L 117.16248 165.223385 
L 117.481081 159.906462 
L 117.799682 210.417231 
L 118.118284 183.832615 
L 118.755486 197.124923 
L 119.074087 173.198769 
L 119.392688 181.174154 
L 119.711289 181.174154 
L 120.02989 191.808 
L 120.348491 191.808 
L 120.667093 223.709538 
L 120.985694 213.075692 
L 121.304295 207.758769 
L 121.622896 197.124923 
L 121.941497 218.392615 
L 122.260098 258.269538 
L 122.578699 271.561846 
L 122.8973 279.537231 
L 123.215902 263.586462 
L 123.534503 221.051077 
L 123.853104 197.124923 
L 124.171705 215.734154 
L 124.490306 218.392615 
L 124.808907 197.124923 
L 125.127508 194.466462 
L 125.446109 205.100308 
L 125.764711 191.808 
L 126.083312 173.198769 
L 126.401913 175.857231 
L 126.720514 173.198769 
L 127.357716 205.100308 
L 127.676317 205.100308 
L 127.994918 186.491077 
L 128.313519 186.491077 
L 128.632121 173.198769 
L 128.950722 175.857231 
L 129.269323 183.832615 
L 129.587924 183.832615 
L 129.906525 173.198769 
L 130.225126 130.663385 
L 130.543727 128.004923 
L 130.862328 109.395692 
L 131.18093 104.078769 
L 131.499531 112.054154 
L 131.818132 114.712615 
L 132.136733 98.761846 
L 132.455334 101.420308 
L 132.773935 106.737231 
L 133.092536 109.395692 
L 133.411137 117.371077 
L 133.729739 106.737231 
L 134.04834 104.078769 
L 134.366941 106.737231 
L 135.004143 138.638769 
L 135.322744 133.321846 
L 135.641345 141.297231 
L 135.959946 165.223385 
L 136.278548 162.564923 
L 136.597149 149.272615 
L 136.91575 162.564923 
L 137.234351 101.420308 
L 137.552952 90.786462 
L 137.871553 53.568 
L 138.190154 66.860308 
L 138.508755 93.444923 
L 138.827357 162.564923 
L 139.464559 138.638769 
L 139.78316 133.321846 
L 140.101761 138.638769 
L 140.420362 135.980308 
L 140.738963 157.248 
L 141.057564 138.638769 
L 141.376166 90.786462 
L 141.694767 93.444923 
L 142.013368 77.494154 
L 142.65057 96.103385 
L 142.969171 104.078769 
L 143.287772 104.078769 
L 143.606373 109.395692 
L 143.924975 109.395692 
L 144.243576 98.761846 
L 144.880778 56.226462 
L 145.199379 58.884923 
L 145.836581 85.469538 
L 146.155182 69.518769 
L 146.473784 69.518769 
L 146.792385 138.638769 
L 147.110986 135.980308 
L 147.429587 135.980308 
L 147.748188 162.564923 
L 148.066789 165.223385 
L 148.38539 162.564923 
L 148.703991 130.663385 
L 149.022593 130.663385 
L 150.296997 159.906462 
L 150.615598 162.564923 
L 150.934199 191.808 
L 151.2528 191.808 
L 151.571402 194.466462 
L 151.890003 199.783385 
L 152.208604 237.001846 
L 152.527205 255.611077 
L 152.845806 258.269538 
L 153.164407 258.269538 
L 153.483008 247.635692 
L 153.801609 229.026462 
L 154.120211 202.441846 
L 154.757413 173.198769 
L 155.076014 125.346462 
L 155.394615 143.955692 
L 155.713216 149.272615 
L 156.031817 141.297231 
L 156.350418 138.638769 
L 156.66902 146.614154 
L 156.987621 186.491077 
L 157.306222 189.149538 
L 157.943424 218.392615 
L 158.262025 205.100308 
L 158.580626 202.441846 
L 159.217829 221.051077 
L 159.53643 215.734154 
L 159.855031 242.318769 
L 160.173632 237.001846 
L 160.492233 223.709538 
L 160.810834 218.392615 
L 161.129435 221.051077 
L 161.448036 194.466462 
L 161.766638 205.100308 
L 162.085239 223.709538 
L 162.40384 229.026462 
L 162.722441 218.392615 
L 163.041042 221.051077 
L 163.359643 221.051077 
L 163.996845 183.832615 
L 164.315447 218.392615 
L 164.634048 221.051077 
L 164.952649 258.269538 
L 165.27125 266.244923 
L 165.589851 250.294154 
L 165.908452 252.952615 
L 166.227053 266.244923 
L 166.545654 215.734154 
L 166.864256 221.051077 
L 167.182857 213.075692 
L 167.501458 213.075692 
L 167.820059 229.026462 
L 168.13866 231.684923 
L 168.457261 221.051077 
L 168.775862 226.368 
L 169.094463 234.343385 
L 169.413065 229.026462 
L 169.731666 215.734154 
L 170.050267 213.075692 
L 170.368868 197.124923 
L 170.687469 205.100308 
L 171.00607 183.832615 
L 171.324671 207.758769 
L 171.643272 218.392615 
L 171.961873 221.051077 
L 172.280475 226.368 
L 172.599076 218.392615 
L 172.917677 215.734154 
L 173.236278 197.124923 
L 173.554879 197.124923 
L 173.87348 181.174154 
L 174.192081 197.124923 
L 174.510682 173.198769 
L 174.829284 183.832615 
L 175.147885 226.368 
L 175.466486 223.709538 
L 175.785087 223.709538 
L 176.103688 250.294154 
L 176.422289 250.294154 
L 176.74089 268.903385 
L 177.378093 231.684923 
L 177.696694 244.977231 
L 178.015295 229.026462 
L 178.333896 229.026462 
L 178.652497 226.368 
L 178.971098 210.417231 
L 179.289699 229.026462 
L 179.6083 197.124923 
L 179.926902 191.808 
L 180.245503 189.149538 
L 180.564104 178.515692 
L 180.882705 181.174154 
L 181.201306 199.783385 
L 181.519907 199.783385 
L 181.838508 189.149538 
L 182.475711 178.515692 
L 182.794312 183.832615 
L 183.112913 167.881846 
L 183.431514 165.223385 
L 183.750115 165.223385 
L 184.068716 159.906462 
L 184.387317 165.223385 
L 184.705918 159.906462 
L 185.02452 159.906462 
L 185.343121 143.955692 
L 185.661722 154.589538 
L 185.980323 157.248 
L 186.617525 167.881846 
L 186.936126 162.564923 
L 187.254727 162.564923 
L 187.573329 141.297231 
L 187.89193 130.663385 
L 188.847733 157.248 
L 189.166334 170.540308 
L 189.484935 165.223385 
L 189.803536 157.248 
L 190.122138 175.857231 
L 190.440739 178.515692 
L 190.75934 162.564923 
L 191.077941 154.589538 
L 191.396542 167.881846 
L 191.715143 162.564923 
L 192.033744 183.832615 
L 192.352345 189.149538 
L 192.989548 165.223385 
L 193.308149 165.223385 
L 193.62675 170.540308 
L 193.945351 170.540308 
L 194.263952 167.881846 
L 194.901154 178.515692 
L 195.219756 186.491077 
L 195.538357 183.832615 
L 195.856958 178.515692 
L 196.175559 229.026462 
L 196.49416 237.001846 
L 196.812761 237.001846 
L 197.131362 229.026462 
L 197.449963 194.466462 
L 197.768565 189.149538 
L 198.087166 189.149538 
L 198.405767 167.881846 
L 199.042969 162.564923 
L 199.36157 181.174154 
L 199.998772 186.491077 
L 200.317374 194.466462 
L 200.635975 175.857231 
L 200.954576 175.857231 
L 201.591778 151.931077 
L 201.910379 159.906462 
L 202.22898 151.931077 
L 202.866183 146.614154 
L 203.184784 135.980308 
L 203.503385 154.589538 
L 203.821986 138.638769 
L 204.140587 135.980308 
L 204.459188 141.297231 
L 205.09639 183.832615 
L 205.414992 175.857231 
L 205.733593 186.491077 
L 206.052194 186.491077 
L 206.370795 189.149538 
L 206.689396 181.174154 
L 207.007997 194.466462 
L 207.326598 181.174154 
L 207.645199 157.248 
L 207.963801 154.589538 
L 208.282402 162.564923 
L 208.601003 157.248 
L 208.919604 154.589538 
L 209.238205 154.589538 
L 209.556806 159.906462 
L 209.875407 181.174154 
L 210.194008 159.906462 
L 210.51261 183.832615 
L 210.831211 175.857231 
L 211.468413 149.272615 
L 211.787014 143.955692 
L 212.105615 149.272615 
L 212.424216 197.124923 
L 212.742817 191.808 
L 213.061419 202.441846 
L 213.38002 194.466462 
L 213.698621 197.124923 
L 214.017222 207.758769 
L 214.335823 205.100308 
L 214.973025 181.174154 
L 215.291626 186.491077 
L 215.610227 183.832615 
L 215.928829 173.198769 
L 216.24743 175.857231 
L 216.566031 159.906462 
L 216.884632 167.881846 
L 217.203233 165.223385 
L 217.521834 165.223385 
L 217.840435 186.491077 
L 218.159036 170.540308 
L 218.477638 175.857231 
L 218.796239 162.564923 
L 219.11484 162.564923 
L 219.433441 165.223385 
L 219.752042 175.857231 
L 220.070643 181.174154 
L 220.389244 173.198769 
L 220.707845 194.466462 
L 221.026447 223.709538 
L 221.345048 221.051077 
L 221.663649 205.100308 
L 221.98225 181.174154 
L 222.300851 218.392615 
L 222.619452 215.734154 
L 223.256654 215.734154 
L 223.575256 207.758769 
L 223.893857 221.051077 
L 224.212458 226.368 
L 224.531059 221.051077 
L 225.168261 194.466462 
L 225.805463 218.392615 
L 226.124065 221.051077 
L 226.442666 218.392615 
L 226.761267 234.343385 
L 227.079868 237.001846 
L 227.398469 229.026462 
L 228.035671 173.198769 
L 228.354272 165.223385 
L 228.672874 162.564923 
L 228.991475 167.881846 
L 229.310076 165.223385 
L 229.947278 207.758769 
L 230.265879 205.100308 
L 230.58448 207.758769 
L 230.903081 213.075692 
L 231.540284 183.832615 
L 231.858885 197.124923 
L 232.177486 189.149538 
L 232.496087 189.149538 
L 232.814688 183.832615 
L 233.133289 191.808 
L 233.45189 194.466462 
L 233.770492 199.783385 
L 234.089093 202.441846 
L 234.407694 199.783385 
L 234.726295 199.783385 
L 235.044896 197.124923 
L 235.363497 170.540308 
L 235.682098 167.881846 
L 236.000699 159.906462 
L 236.319301 199.783385 
L 236.637902 197.124923 
L 236.956503 191.808 
L 237.275104 207.758769 
L 237.593705 207.758769 
L 237.912306 202.441846 
L 238.549508 197.124923 
L 238.86811 197.124923 
L 239.186711 199.783385 
L 239.505312 130.663385 
L 240.142514 109.395692 
L 240.461115 114.712615 
L 240.779716 114.712615 
L 241.098317 154.589538 
L 241.416919 159.906462 
L 241.73552 135.980308 
L 242.054121 138.638769 
L 242.372722 138.638769 
L 242.691323 162.564923 
L 243.009924 149.272615 
L 243.328525 130.663385 
L 243.647126 133.321846 
L 243.965728 122.688 
L 244.284329 128.004923 
L 244.60293 143.955692 
L 244.921531 149.272615 
L 245.240132 146.614154 
L 245.558733 128.004923 
L 245.877334 149.272615 
L 246.195935 141.297231 
L 246.514537 138.638769 
L 246.833138 151.931077 
L 247.151739 154.589538 
L 247.47034 167.881846 
L 247.788941 167.881846 
L 248.107542 149.272615 
L 248.426143 146.614154 
L 249.063346 133.321846 
L 249.700548 151.931077 
L 250.019149 133.321846 
L 250.33775 167.881846 
L 250.656351 167.881846 
L 250.974952 165.223385 
L 251.293553 159.906462 
L 251.612155 151.931077 
L 251.930756 154.589538 
L 252.249357 165.223385 
L 252.567958 165.223385 
L 252.886559 149.272615 
L 253.20516 143.955692 
L 253.523761 125.346462 
L 253.842362 151.931077 
L 254.160964 157.248 
L 254.479565 170.540308 
L 254.798166 178.515692 
L 255.116767 167.881846 
L 255.753969 183.832615 
L 256.07257 181.174154 
L 256.391171 165.223385 
L 256.709773 167.881846 
L 257.028374 159.906462 
L 257.346975 146.614154 
L 257.665576 146.614154 
L 257.984177 122.688 
L 258.621379 128.004923 
L 259.258581 138.638769 
L 259.577183 157.248 
L 259.895784 149.272615 
L 260.214385 154.589538 
L 260.532986 143.955692 
L 260.851587 143.955692 
L 261.170188 170.540308 
L 261.488789 157.248 
L 261.80739 173.198769 
L 262.125992 165.223385 
L 262.444593 165.223385 
L 262.763194 167.881846 
L 263.081795 159.906462 
L 263.400396 165.223385 
L 263.718997 157.248 
L 264.037598 135.980308 
L 264.356199 159.906462 
L 264.674801 146.614154 
L 264.993402 109.395692 
L 265.312003 88.128 
L 265.630604 104.078769 
L 265.949205 96.103385 
L 266.267806 122.688 
L 266.586407 106.737231 
L 266.905008 98.761846 
L 267.22361 101.420308 
L 267.542211 106.737231 
L 267.860812 104.078769 
L 268.179413 106.737231 
L 268.498014 77.494154 
L 269.135216 109.395692 
L 269.453817 117.371077 
L 270.09102 82.811077 
L 270.409621 82.811077 
L 271.046823 146.614154 
L 271.365424 154.589538 
L 271.684025 151.931077 
L 272.002626 157.248 
L 272.95843 130.663385 
L 273.277031 90.786462 
L 273.595632 85.469538 
L 274.232834 85.469538 
L 274.551435 56.226462 
L 274.870037 58.884923 
L 275.188638 66.860308 
L 275.507239 96.103385 
L 275.82584 98.761846 
L 276.144441 90.786462 
L 276.463042 93.444923 
L 276.781643 112.054154 
L 277.100244 117.371077 
L 277.418846 125.346462 
L 277.737447 125.346462 
L 278.056048 151.931077 
L 278.374649 162.564923 
L 278.69325 162.564923 
L 279.011851 181.174154 
L 279.330452 181.174154 
L 279.649053 175.857231 
L 279.967655 178.515692 
L 280.604857 189.149538 
L 281.242059 162.564923 
L 281.56066 213.075692 
L 281.879261 218.392615 
L 282.516464 189.149538 
L 282.835065 186.491077 
L 283.153666 170.540308 
L 283.472267 194.466462 
L 283.790868 205.100308 
L 284.109469 202.441846 
L 284.42807 189.149538 
L 284.746671 197.124923 
L 285.065273 178.515692 
L 285.383874 202.441846 
L 285.702475 191.808 
L 286.021076 205.100308 
L 286.339677 207.758769 
L 286.658278 207.758769 
L 286.976879 213.075692 
L 287.29548 210.417231 
L 287.614082 197.124923 
L 287.932683 199.783385 
L 288.251284 207.758769 
L 288.569885 210.417231 
L 288.888486 210.417231 
L 289.525688 244.977231 
L 289.844289 234.343385 
L 290.162891 237.001846 
L 290.481492 223.709538 
L 290.800093 244.977231 
L 291.118694 231.684923 
L 291.437295 207.758769 
L 291.755896 207.758769 
L 292.074497 210.417231 
L 292.7117 181.174154 
L 293.030301 199.783385 
L 293.348902 207.758769 
L 293.667503 207.758769 
L 293.986104 210.417231 
L 294.304705 207.758769 
L 294.623306 215.734154 
L 294.941907 197.124923 
L 295.260509 218.392615 
L 295.57911 221.051077 
L 295.897711 213.075692 
L 296.216312 213.075692 
L 296.534913 229.026462 
L 296.853514 229.026462 
L 297.172115 215.734154 
L 297.490716 218.392615 
L 297.809318 218.392615 
L 298.127919 250.294154 
L 298.44652 255.611077 
L 298.765121 221.051077 
L 299.083722 215.734154 
L 299.402323 207.758769 
L 299.720924 218.392615 
L 300.039525 221.051077 
L 300.358127 226.368 
L 300.676728 247.635692 
L 300.995329 244.977231 
L 301.31393 250.294154 
L 301.632531 266.244923 
L 301.951132 252.952615 
L 302.269733 279.537231 
L 302.588334 276.878769 
L 302.906935 295.488 
L 303.225537 268.903385 
L 303.862739 239.660308 
L 304.18134 234.343385 
L 304.499941 244.977231 
L 304.818542 207.758769 
L 305.137143 218.392615 
L 305.455744 215.734154 
L 305.774346 207.758769 
L 306.092947 183.832615 
L 306.411548 205.100308 
L 306.730149 207.758769 
L 307.04875 205.100308 
L 307.367351 237.001846 
L 307.685952 247.635692 
L 308.004553 244.977231 
L 308.323155 239.660308 
L 308.641756 239.660308 
L 308.960357 242.318769 
L 309.278958 229.026462 
L 309.91616 215.734154 
L 310.234761 218.392615 
L 310.553362 210.417231 
L 310.871964 218.392615 
L 311.509166 207.758769 
L 311.827767 226.368 
L 312.146368 231.684923 
L 312.464969 215.734154 
L 312.78357 226.368 
L 313.102171 218.392615 
L 313.739374 191.808 
L 314.057975 183.832615 
L 314.695177 215.734154 
L 315.013778 226.368 
L 315.332379 210.417231 
L 315.65098 213.075692 
L 315.969582 189.149538 
L 316.288183 181.174154 
L 316.606784 162.564923 
L 316.925385 162.564923 
L 317.243986 159.906462 
L 317.562587 154.589538 
L 317.881188 135.980308 
L 318.199789 143.955692 
L 318.518391 159.906462 
L 318.836992 149.272615 
L 319.155593 173.198769 
L 319.474194 170.540308 
L 320.111396 159.906462 
L 320.429997 135.980308 
L 320.748598 128.004923 
L 321.385801 202.441846 
L 321.704402 202.441846 
L 322.023003 207.758769 
L 322.341604 189.149538 
L 322.660205 157.248 
L 322.978806 138.638769 
L 323.297407 154.589538 
L 323.616009 146.614154 
L 323.93461 157.248 
L 324.571812 186.491077 
L 324.890413 181.174154 
L 325.209014 173.198769 
L 325.527615 173.198769 
L 325.846216 178.515692 
L 326.483419 167.881846 
L 326.80202 189.149538 
L 327.120621 183.832615 
L 327.439222 213.075692 
L 328.395025 189.149538 
L 329.032228 226.368 
L 329.350829 226.368 
L 329.66943 229.026462 
L 329.988031 226.368 
L 330.306632 221.051077 
L 330.625233 210.417231 
L 330.943834 186.491077 
L 331.262436 202.441846 
L 331.581037 186.491077 
L 331.899638 191.808 
L 332.218239 186.491077 
L 332.53684 205.100308 
L 332.855441 215.734154 
L 333.174042 215.734154 
L 333.811245 226.368 
L 334.129846 226.368 
L 334.448447 234.343385 
L 335.40425 226.368 
L 335.722851 234.343385 
L 336.041452 221.051077 
L 336.360054 183.832615 
L 336.678655 199.783385 
L 336.997256 207.758769 
L 337.315857 202.441846 
L 337.634458 194.466462 
L 337.953059 202.441846 
L 338.590261 197.124923 
L 338.908863 186.491077 
L 339.227464 205.100308 
L 339.546065 237.001846 
L 339.864666 226.368 
L 340.183267 197.124923 
L 340.501868 207.758769 
L 340.820469 189.149538 
L 341.13907 194.466462 
L 341.457672 189.149538 
L 341.776273 186.491077 
L 342.094874 186.491077 
L 342.413475 194.466462 
L 342.732076 189.149538 
L 343.050677 210.417231 
L 343.369278 218.392615 
L 343.687879 218.392615 
L 344.006481 231.684923 
L 344.325082 221.051077 
L 344.643683 221.051077 
L 344.962284 234.343385 
L 345.280885 260.928 
L 345.599486 239.660308 
L 345.918087 229.026462 
L 346.236688 226.368 
L 346.555289 231.684923 
L 346.873891 191.808 
L 347.192492 207.758769 
L 347.511093 194.466462 
L 347.829694 191.808 
L 348.148295 210.417231 
L 348.466896 194.466462 
L 349.104098 199.783385 
L 349.4227 191.808 
L 349.741301 191.808 
L 350.059902 199.783385 
L 350.378503 194.466462 
L 350.697104 181.174154 
L 351.334306 194.466462 
L 351.652907 189.149538 
L 351.971509 178.515692 
L 352.29011 186.491077 
L 352.608711 183.832615 
L 352.927312 189.149538 
L 353.245913 213.075692 
L 353.564514 213.075692 
L 353.883115 223.709538 
L 354.201716 210.417231 
L 354.520318 213.075692 
L 354.838919 202.441846 
L 355.15752 215.734154 
L 355.476121 210.417231 
L 355.794722 226.368 
L 356.113323 226.368 
L 356.431924 213.075692 
L 356.750525 205.100308 
L 357.069127 213.075692 
L 357.387728 226.368 
L 357.706329 223.709538 
L 358.02493 255.611077 
L 358.343531 247.635692 
L 358.662132 229.026462 
L 358.980733 221.051077 
L 359.299334 205.100308 
L 359.617936 173.198769 
L 359.936537 175.857231 
L 360.255138 181.174154 
L 360.573739 183.832615 
L 360.89234 162.564923 
L 361.529542 186.491077 
L 361.848143 183.832615 
L 362.166745 186.491077 
L 362.803947 135.980308 
L 363.122548 162.564923 
L 363.441149 162.564923 
L 363.75975 143.955692 
L 364.078351 143.955692 
L 364.396952 133.321846 
L 364.715554 106.737231 
L 365.034155 114.712615 
L 365.671357 85.469538 
L 365.989958 90.786462 
L 366.308559 109.395692 
L 366.62716 106.737231 
L 366.945761 109.395692 
L 367.264363 167.881846 
L 367.582964 135.980308 
L 367.901565 138.638769 
L 368.220166 138.638769 
L 368.538767 122.688 
L 368.857368 130.663385 
L 369.175969 122.688 
L 369.49457 90.786462 
L 369.813172 96.103385 
L 370.450374 130.663385 
L 370.768975 135.980308 
L 371.406177 130.663385 
L 371.724778 159.906462 
L 372.043379 146.614154 
L 372.361981 143.955692 
L 372.680582 157.248 
L 372.999183 154.589538 
L 373.317784 157.248 
L 373.636385 151.931077 
L 373.954986 162.564923 
L 374.273587 167.881846 
L 375.229391 146.614154 
L 375.547992 151.931077 
L 375.866593 151.931077 
L 376.822396 125.346462 
L 377.140997 138.638769 
L 377.459599 146.614154 
L 377.7782 138.638769 
L 378.096801 138.638769 
L 378.415402 207.758769 
L 378.734003 213.075692 
L 379.052604 213.075692 
L 379.371205 226.368 
L 379.689806 215.734154 
L 380.008408 213.075692 
L 380.327009 207.758769 
L 380.64561 205.100308 
L 380.964211 221.051077 
L 381.282812 202.441846 
L 381.601413 167.881846 
L 381.920014 151.931077 
L 382.238615 146.614154 
L 382.557217 143.955692 
L 382.875818 143.955692 
L 383.194419 157.248 
L 383.51302 159.906462 
L 384.150222 146.614154 
L 384.787424 159.906462 
L 385.106026 186.491077 
L 385.424627 191.808 
L 385.743228 183.832615 
L 386.061829 181.174154 
L 386.38043 183.832615 
L 386.699031 181.174154 
L 387.017632 165.223385 
L 387.336233 167.881846 
L 387.654835 189.149538 
L 387.973436 167.881846 
L 388.292037 167.881846 
L 388.610638 159.906462 
L 389.24784 178.515692 
L 389.566441 173.198769 
L 389.885042 162.564923 
L 390.522245 151.931077 
L 390.840846 157.248 
L 391.159447 151.931077 
L 391.478048 149.272615 
L 391.796649 170.540308 
L 392.11525 149.272615 
L 392.433851 146.614154 
L 392.752452 149.272615 
L 393.071054 165.223385 
L 393.389655 189.149538 
L 393.708256 186.491077 
L 394.026857 194.466462 
L 394.345458 213.075692 
L 394.664059 210.417231 
L 394.98266 210.417231 
L 395.301261 202.441846 
L 395.619863 189.149538 
L 395.938464 205.100308 
L 396.257065 202.441846 
L 396.575666 186.491077 
L 396.894267 178.515692 
L 397.212868 194.466462 
L 397.85007 194.466462 
L 398.168672 186.491077 
L 398.487273 186.491077 
L 398.487273 186.491077 
" clip-path="url(#p8aa8f0295c)" style="fill: none; stroke: #1f77b4; stroke-width: 1.5; stroke-linecap: square"/>
   </g>
   <g id="patch_3">
    <path d="M 57.6 307.584 
L 57.6 41.472 
" style="fill: none; stroke: #000000; stroke-width: 0.8; stroke-linejoin: miter; stroke-linecap: square"/>
   </g>
   <g id="patch_4">
    <path d="M 414.72 307.584 
L 414.72 41.472 
" style="fill: none; stroke: #000000; stroke-width: 0.8; stroke-linejoin: miter; stroke-linecap: square"/>
   </g>
   <g id="patch_5">
    <path d="M 57.6 307.584 
L 414.72 307.584 
" style="fill: none; stroke: #000000; stroke-width: 0.8; stroke-linejoin: miter; stroke-linecap: square"/>
   </g>
   <g id="patch_6">
    <path d="M 57.6 41.472 
L 414.72 41.472 
" style="fill: none; stroke: #000000; stroke-width: 0.8; stroke-linejoin: miter; stroke-linecap: square"/>
   </g>
   <g id="text_17">
    <!-- Simulated Anealling Cost -->
    <g transform="translate(160.8 35.472)scale(0.12 -0.12)">
     <defs>
      <path id="DejaVuSans-53" d="M 3425 4513 
L 3425 3897 
Q 3066 4069 2747 4153 
Q 2428 4238 2131 4238 
Q 1616 4238 1336 4038 
Q 1056 3838 1056 3469 
Q 1056 3159 1242 3001 
Q 1428 2844 1947 2747 
L 2328 2669 
Q 3034 2534 3370 2195 
Q 3706 1856 3706 1288 
Q 3706 609 3251 259 
Q 2797 -91 1919 -91 
Q 1588 -91 1214 -16 
Q 841 59 441 206 
L 441 856 
Q 825 641 1194 531 
Q 1563 422 1919 422 
Q 2459 422 2753 634 
Q 3047 847 3047 1241 
Q 3047 1584 2836 1778 
Q 2625 1972 2144 2069 
L 1759 2144 
Q 1053 2284 737 2584 
Q 422 2884 422 3419 
Q 422 4038 858 4394 
Q 1294 4750 2059 4750 
Q 2388 4750 2728 4690 
Q 3069 4631 3425 4513 
z
" transform="scale(0.015625)"/>
      <path id="DejaVuSans-69" d="M 603 3500 
L 1178 3500 
L 1178 0 
L 603 0 
L 603 3500 
z
M 603 4863 
L 1178 4863 
L 1178 4134 
L 603 4134 
L 603 4863 
z
" transform="scale(0.015625)"/>
      <path id="DejaVuSans-65" d="M 3597 1894 
L 3597 1613 
L 953 1613 
Q 991 1019 1311 708 
Q 1631 397 2203 397 
Q 2534 397 2845 478 
Q 3156 559 3463 722 
L 3463 178 
Q 3153 47 2828 -22 
Q 2503 -91 2169 -91 
Q 1331 -91 842 396 
Q 353 884 353 1716 
Q 353 2575 817 3079 
Q 1281 3584 2069 3584 
Q 2775 3584 3186 3129 
Q 3597 2675 3597 1894 
z
M 3022 2063 
Q 3016 2534 2758 2815 
Q 2500 3097 2075 3097 
Q 1594 3097 1305 2825 
Q 1016 2553 972 2059 
L 3022 2063 
z
" transform="scale(0.015625)"/>
      <path id="DejaVuSans-64" d="M 2906 2969 
L 2906 4863 
L 3481 4863 
L 3481 0 
L 2906 0 
L 2906 525 
Q 2725 213 2448 61 
Q 2172 -91 1784 -91 
Q 1150 -91 751 415 
Q 353 922 353 1747 
Q 353 2572 751 3078 
Q 1150 3584 1784 3584 
Q 2172 3584 2448 3432 
Q 2725 3281 2906 2969 
z
M 947 1747 
Q 947 1113 1208 752 
Q 1469 391 1925 391 
Q 2381 391 2643 752 
Q 2906 1113 2906 1747 
Q 2906 2381 2643 2742 
Q 2381 3103 1925 3103 
Q 1469 3103 1208 2742 
Q 947 2381 947 1747 
z
" transform="scale(0.015625)"/>
      <path id="DejaVuSans-41" d="M 2188 4044 
L 1331 1722 
L 3047 1722 
L 2188 4044 
z
M 1831 4666 
L 2547 4666 
L 4325 0 
L 3669 0 
L 3244 1197 
L 1141 1197 
L 716 0 
L 50 0 
L 1831 4666 
z
" transform="scale(0.015625)"/>
      <path id="DejaVuSans-67" d="M 2906 1791 
Q 2906 2416 2648 2759 
Q 2391 3103 1925 3103 
Q 1463 3103 1205 2759 
Q 947 2416 947 1791 
Q 947 1169 1205 825 
Q 1463 481 1925 481 
Q 2391 481 2648 825 
Q 2906 1169 2906 1791 
z
M 3481 434 
Q 3481 -459 3084 -895 
Q 2688 -1331 1869 -1331 
Q 1566 -1331 1297 -1286 
Q 1028 -1241 775 -1147 
L 775 -588 
Q 1028 -725 1275 -790 
Q 1522 -856 1778 -856 
Q 2344 -856 2625 -561 
Q 2906 -266 2906 331 
L 2906 616 
Q 2728 306 2450 153 
Q 2172 0 1784 0 
Q 1141 0 747 490 
Q 353 981 353 1791 
Q 353 2603 747 3093 
Q 1141 3584 1784 3584 
Q 2172 3584 2450 3431 
Q 2728 3278 2906 2969 
L 2906 3500 
L 3481 3500 
L 3481 434 
z
" transform="scale(0.015625)"/>
      <path id="DejaVuSans-43" d="M 4122 4306 
L 4122 3641 
Q 3803 3938 3442 4084 
Q 3081 4231 2675 4231 
Q 1875 4231 1450 3742 
Q 1025 3253 1025 2328 
Q 1025 1406 1450 917 
Q 1875 428 2675 428 
Q 3081 428 3442 575 
Q 3803 722 4122 1019 
L 4122 359 
Q 3791 134 3420 21 
Q 3050 -91 2638 -91 
Q 1578 -91 968 557 
Q 359 1206 359 2328 
Q 359 3453 968 4101 
Q 1578 4750 2638 4750 
Q 3056 4750 3426 4639 
Q 3797 4528 4122 4306 
z
" transform="scale(0.015625)"/>
     </defs>
     <use xlink:href="#DejaVuSans-53"/>
     <use xlink:href="#DejaVuSans-69" x="63.476562"/>
     <use xlink:href="#DejaVuSans-6d" x="91.259766"/>
     <use xlink:href="#DejaVuSans-75" x="188.671875"/>
     <use xlink:href="#DejaVuSans-6c" x="252.050781"/>
     <use xlink:href="#DejaVuSans-61" x="279.833984"/>
     <use xlink:href="#DejaVuSans-74" x="341.113281"/>
     <use xlink:href="#DejaVuSans-65" x="380.322266"/>
     <use xlink:href="#DejaVuSans-64" x="441.845703"/>
     <use xlink:href="#DejaVuSans-20" x="505.322266"/>
     <use xlink:href="#DejaVuSans-41" x="537.109375"/>
     <use xlink:href="#DejaVuSans-6e" x="605.517578"/>
     <use xlink:href="#DejaVuSans-65" x="668.896484"/>
     <use xlink:href="#DejaVuSans-61" x="730.419922"/>
     <use xlink:href="#DejaVuSans-6c" x="791.699219"/>
     <use xlink:href="#DejaVuSans-6c" x="819.482422"/>
     <use xlink:href="#DejaVuSans-69" x="847.265625"/>
     <use xlink:href="#DejaVuSans-6e" x="875.048828"/>
     <use xlink:href="#DejaVuSans-67" x="938.427734"/>
     <use xlink:href="#DejaVuSans-20" x="1001.904297"/>
     <use xlink:href="#DejaVuSans-43" x="1033.691406"/>
     <use xlink:href="#DejaVuSans-6f" x="1103.515625"/>
     <use xlink:href="#DejaVuSans-73" x="1164.697266"/>
     <use xlink:href="#DejaVuSans-74" x="1216.796875"/>
    </g>
   </g>
  </g>
 </g>
 <defs>
  <clipPath id="p8aa8f0295c">
   <rect x="57.6" y="41.472" width="357.12" height="266.112"/>
  </clipPath>
 </defs>
</svg>
