<?xml version="1.0" encoding="utf-8" standalone="no"?>
<!DOCTYPE svg PUBLIC "-//W3C//DTD SVG 1.1//EN"
  "http://www.w3.org/Graphics/SVG/1.1/DTD/svg11.dtd">
<svg xmlns:xlink="http://www.w3.org/1999/xlink" width="460.8pt" height="345.6pt" viewBox="0 0 460.8 345.6" xmlns="http://www.w3.org/2000/svg" version="1.1">
 <metadata>
  <rdf:RDF xmlns:dc="http://purl.org/dc/elements/1.1/" xmlns:cc="http://creativecommons.org/ns#" xmlns:rdf="http://www.w3.org/1999/02/22-rdf-syntax-ns#">
   <cc:Work>
    <dc:type rdf:resource="http://purl.org/dc/dcmitype/StillImage"/>
    <dc:date>2022-06-01T08:05:03.541294</dc:date>
    <dc:format>image/svg+xml</dc:format>
    <dc:creator>
     <cc:Agent>
      <dc:title>Matplotlib v3.5.1, https://matplotlib.org/</dc:title>
     </cc:Agent>
    </dc:creator>
   </cc:Work>
  </rdf:RDF>
 </metadata>
 <defs>
  <style type="text/css">*{stroke-linejoin: round; stroke-linecap: butt}</style>
 </defs>
 <g id="figure_1">
  <g id="patch_1">
   <path d="M 0 345.6 
L 460.8 345.6 
L 460.8 0 
L 0 0 
z
" style="fill: #ffffff"/>
  </g>
  <g id="axes_1">
   <g id="patch_2">
    <path d="M 57.6 307.584 
L 414.72 307.584 
L 414.72 41.472 
L 57.6 41.472 
z
" style="fill: #ffffff"/>
   </g>
   <g id="matplotlib.axis_1">
    <g id="xtick_1">
     <g id="line2d_1">
      <defs>
       <path id="mc32b953868" d="M 0 0 
L 0 3.5 
" style="stroke: #000000; stroke-width: 0.8"/>
      </defs>
      <g>
       <use xlink:href="#mc32b953868" x="73.832727" y="307.584" style="stroke: #000000; stroke-width: 0.8"/>
      </g>
     </g>
     <g id="text_1">
      <!-- 0 -->
      <g transform="translate(70.651477 322.182437)scale(0.1 -0.1)">
       <defs>
        <path id="DejaVuSans-30" d="M 2034 4250 
Q 1547 4250 1301 3770 
Q 1056 3291 1056 2328 
Q 1056 1369 1301 889 
Q 1547 409 2034 409 
Q 2525 409 2770 889 
Q 3016 1369 3016 2328 
Q 3016 3291 2770 3770 
Q 2525 4250 2034 4250 
z
M 2034 4750 
Q 2819 4750 3233 4129 
Q 3647 3509 3647 2328 
Q 3647 1150 3233 529 
Q 2819 -91 2034 -91 
Q 1250 -91 836 529 
Q 422 1150 422 2328 
Q 422 3509 836 4129 
Q 1250 4750 2034 4750 
z
" transform="scale(0.015625)"/>
       </defs>
       <use xlink:href="#DejaVuSans-30"/>
      </g>
     </g>
    </g>
    <g id="xtick_2">
     <g id="line2d_2">
      <g>
       <use xlink:href="#mc32b953868" x="152.785681" y="307.584" style="stroke: #000000; stroke-width: 0.8"/>
      </g>
     </g>
     <g id="text_2">
      <!-- 500 -->
      <g transform="translate(143.241931 322.182437)scale(0.1 -0.1)">
       <defs>
        <path id="DejaVuSans-35" d="M 691 4666 
L 3169 4666 
L 3169 4134 
L 1269 4134 
L 1269 2991 
Q 1406 3038 1543 3061 
Q 1681 3084 1819 3084 
Q 2600 3084 3056 2656 
Q 3513 2228 3513 1497 
Q 3513 744 3044 326 
Q 2575 -91 1722 -91 
Q 1428 -91 1123 -41 
Q 819 9 494 109 
L 494 744 
Q 775 591 1075 516 
Q 1375 441 1709 441 
Q 2250 441 2565 725 
Q 2881 1009 2881 1497 
Q 2881 1984 2565 2268 
Q 2250 2553 1709 2553 
Q 1456 2553 1204 2497 
Q 953 2441 691 2322 
L 691 4666 
z
" transform="scale(0.015625)"/>
       </defs>
       <use xlink:href="#DejaVuSans-35"/>
       <use xlink:href="#DejaVuSans-30" x="63.623047"/>
       <use xlink:href="#DejaVuSans-30" x="127.246094"/>
      </g>
     </g>
    </g>
    <g id="xtick_3">
     <g id="line2d_3">
      <g>
       <use xlink:href="#mc32b953868" x="231.738635" y="307.584" style="stroke: #000000; stroke-width: 0.8"/>
      </g>
     </g>
     <g id="text_3">
      <!-- 1000 -->
      <g transform="translate(219.013635 322.182437)scale(0.1 -0.1)">
       <defs>
        <path id="DejaVuSans-31" d="M 794 531 
L 1825 531 
L 1825 4091 
L 703 3866 
L 703 4441 
L 1819 4666 
L 2450 4666 
L 2450 531 
L 3481 531 
L 3481 0 
L 794 0 
L 794 531 
z
" transform="scale(0.015625)"/>
       </defs>
       <use xlink:href="#DejaVuSans-31"/>
       <use xlink:href="#DejaVuSans-30" x="63.623047"/>
       <use xlink:href="#DejaVuSans-30" x="127.246094"/>
       <use xlink:href="#DejaVuSans-30" x="190.869141"/>
      </g>
     </g>
    </g>
    <g id="xtick_4">
     <g id="line2d_4">
      <g>
       <use xlink:href="#mc32b953868" x="310.691588" y="307.584" style="stroke: #000000; stroke-width: 0.8"/>
      </g>
     </g>
     <g id="text_4">
      <!-- 1500 -->
      <g transform="translate(297.966588 322.182437)scale(0.1 -0.1)">
       <use xlink:href="#DejaVuSans-31"/>
       <use xlink:href="#DejaVuSans-35" x="63.623047"/>
       <use xlink:href="#DejaVuSans-30" x="127.246094"/>
       <use xlink:href="#DejaVuSans-30" x="190.869141"/>
      </g>
     </g>
    </g>
    <g id="xtick_5">
     <g id="line2d_5">
      <g>
       <use xlink:href="#mc32b953868" x="389.644542" y="307.584" style="stroke: #000000; stroke-width: 0.8"/>
      </g>
     </g>
     <g id="text_5">
      <!-- 2000 -->
      <g transform="translate(376.919542 322.182437)scale(0.1 -0.1)">
       <defs>
        <path id="DejaVuSans-32" d="M 1228 531 
L 3431 531 
L 3431 0 
L 469 0 
L 469 531 
Q 828 903 1448 1529 
Q 2069 2156 2228 2338 
Q 2531 2678 2651 2914 
Q 2772 3150 2772 3378 
Q 2772 3750 2511 3984 
Q 2250 4219 1831 4219 
Q 1534 4219 1204 4116 
Q 875 4013 500 3803 
L 500 4441 
Q 881 4594 1212 4672 
Q 1544 4750 1819 4750 
Q 2544 4750 2975 4387 
Q 3406 4025 3406 3419 
Q 3406 3131 3298 2873 
Q 3191 2616 2906 2266 
Q 2828 2175 2409 1742 
Q 1991 1309 1228 531 
z
" transform="scale(0.015625)"/>
       </defs>
       <use xlink:href="#DejaVuSans-32"/>
       <use xlink:href="#DejaVuSans-30" x="63.623047"/>
       <use xlink:href="#DejaVuSans-30" x="127.246094"/>
       <use xlink:href="#DejaVuSans-30" x="190.869141"/>
      </g>
     </g>
    </g>
    <g id="text_6">
     <!-- num swaps -->
     <g transform="translate(207.826406 335.860562)scale(0.1 -0.1)">
      <defs>
       <path id="DejaVuSans-6e" d="M 3513 2113 
L 3513 0 
L 2938 0 
L 2938 2094 
Q 2938 2591 2744 2837 
Q 2550 3084 2163 3084 
Q 1697 3084 1428 2787 
Q 1159 2491 1159 1978 
L 1159 0 
L 581 0 
L 581 3500 
L 1159 3500 
L 1159 2956 
Q 1366 3272 1645 3428 
Q 1925 3584 2291 3584 
Q 2894 3584 3203 3211 
Q 3513 2838 3513 2113 
z
" transform="scale(0.015625)"/>
       <path id="DejaVuSans-75" d="M 544 1381 
L 544 3500 
L 1119 3500 
L 1119 1403 
Q 1119 906 1312 657 
Q 1506 409 1894 409 
Q 2359 409 2629 706 
Q 2900 1003 2900 1516 
L 2900 3500 
L 3475 3500 
L 3475 0 
L 2900 0 
L 2900 538 
Q 2691 219 2414 64 
Q 2138 -91 1772 -91 
Q 1169 -91 856 284 
Q 544 659 544 1381 
z
M 1991 3584 
L 1991 3584 
z
" transform="scale(0.015625)"/>
       <path id="DejaVuSans-6d" d="M 3328 2828 
Q 3544 3216 3844 3400 
Q 4144 3584 4550 3584 
Q 5097 3584 5394 3201 
Q 5691 2819 5691 2113 
L 5691 0 
L 5113 0 
L 5113 2094 
Q 5113 2597 4934 2840 
Q 4756 3084 4391 3084 
Q 3944 3084 3684 2787 
Q 3425 2491 3425 1978 
L 3425 0 
L 2847 0 
L 2847 2094 
Q 2847 2600 2669 2842 
Q 2491 3084 2119 3084 
Q 1678 3084 1418 2786 
Q 1159 2488 1159 1978 
L 1159 0 
L 581 0 
L 581 3500 
L 1159 3500 
L 1159 2956 
Q 1356 3278 1631 3431 
Q 1906 3584 2284 3584 
Q 2666 3584 2933 3390 
Q 3200 3197 3328 2828 
z
" transform="scale(0.015625)"/>
       <path id="DejaVuSans-20" transform="scale(0.015625)"/>
       <path id="DejaVuSans-73" d="M 2834 3397 
L 2834 2853 
Q 2591 2978 2328 3040 
Q 2066 3103 1784 3103 
Q 1356 3103 1142 2972 
Q 928 2841 928 2578 
Q 928 2378 1081 2264 
Q 1234 2150 1697 2047 
L 1894 2003 
Q 2506 1872 2764 1633 
Q 3022 1394 3022 966 
Q 3022 478 2636 193 
Q 2250 -91 1575 -91 
Q 1294 -91 989 -36 
Q 684 19 347 128 
L 347 722 
Q 666 556 975 473 
Q 1284 391 1588 391 
Q 1994 391 2212 530 
Q 2431 669 2431 922 
Q 2431 1156 2273 1281 
Q 2116 1406 1581 1522 
L 1381 1569 
Q 847 1681 609 1914 
Q 372 2147 372 2553 
Q 372 3047 722 3315 
Q 1072 3584 1716 3584 
Q 2034 3584 2315 3537 
Q 2597 3491 2834 3397 
z
" transform="scale(0.015625)"/>
       <path id="DejaVuSans-77" d="M 269 3500 
L 844 3500 
L 1563 769 
L 2278 3500 
L 2956 3500 
L 3675 769 
L 4391 3500 
L 4966 3500 
L 4050 0 
L 3372 0 
L 2619 2869 
L 1863 0 
L 1184 0 
L 269 3500 
z
" transform="scale(0.015625)"/>
       <path id="DejaVuSans-61" d="M 2194 1759 
Q 1497 1759 1228 1600 
Q 959 1441 959 1056 
Q 959 750 1161 570 
Q 1363 391 1709 391 
Q 2188 391 2477 730 
Q 2766 1069 2766 1631 
L 2766 1759 
L 2194 1759 
z
M 3341 1997 
L 3341 0 
L 2766 0 
L 2766 531 
Q 2569 213 2275 61 
Q 1981 -91 1556 -91 
Q 1019 -91 701 211 
Q 384 513 384 1019 
Q 384 1609 779 1909 
Q 1175 2209 1959 2209 
L 2766 2209 
L 2766 2266 
Q 2766 2663 2505 2880 
Q 2244 3097 1772 3097 
Q 1472 3097 1187 3025 
Q 903 2953 641 2809 
L 641 3341 
Q 956 3463 1253 3523 
Q 1550 3584 1831 3584 
Q 2591 3584 2966 3190 
Q 3341 2797 3341 1997 
z
" transform="scale(0.015625)"/>
       <path id="DejaVuSans-70" d="M 1159 525 
L 1159 -1331 
L 581 -1331 
L 581 3500 
L 1159 3500 
L 1159 2969 
Q 1341 3281 1617 3432 
Q 1894 3584 2278 3584 
Q 2916 3584 3314 3078 
Q 3713 2572 3713 1747 
Q 3713 922 3314 415 
Q 2916 -91 2278 -91 
Q 1894 -91 1617 61 
Q 1341 213 1159 525 
z
M 3116 1747 
Q 3116 2381 2855 2742 
Q 2594 3103 2138 3103 
Q 1681 3103 1420 2742 
Q 1159 2381 1159 1747 
Q 1159 1113 1420 752 
Q 1681 391 2138 391 
Q 2594 391 2855 752 
Q 3116 1113 3116 1747 
z
" transform="scale(0.015625)"/>
      </defs>
      <use xlink:href="#DejaVuSans-6e"/>
      <use xlink:href="#DejaVuSans-75" x="63.378906"/>
      <use xlink:href="#DejaVuSans-6d" x="126.757812"/>
      <use xlink:href="#DejaVuSans-20" x="224.169922"/>
      <use xlink:href="#DejaVuSans-73" x="255.957031"/>
      <use xlink:href="#DejaVuSans-77" x="308.056641"/>
      <use xlink:href="#DejaVuSans-61" x="389.84375"/>
      <use xlink:href="#DejaVuSans-70" x="451.123047"/>
      <use xlink:href="#DejaVuSans-73" x="514.599609"/>
     </g>
    </g>
   </g>
   <g id="matplotlib.axis_2">
    <g id="ytick_1">
     <g id="line2d_6">
      <defs>
       <path id="mda09ef247b" d="M 0 0 
L -3.5 0 
" style="stroke: #000000; stroke-width: 0.8"/>
      </defs>
      <g>
       <use xlink:href="#mda09ef247b" x="57.6" y="278.208" style="stroke: #000000; stroke-width: 0.8"/>
      </g>
     </g>
     <g id="text_7">
      <!-- 420 -->
      <g transform="translate(31.5125 282.007219)scale(0.1 -0.1)">
       <defs>
        <path id="DejaVuSans-34" d="M 2419 4116 
L 825 1625 
L 2419 1625 
L 2419 4116 
z
M 2253 4666 
L 3047 4666 
L 3047 1625 
L 3713 1625 
L 3713 1100 
L 3047 1100 
L 3047 0 
L 2419 0 
L 2419 1100 
L 313 1100 
L 313 1709 
L 2253 4666 
z
" transform="scale(0.015625)"/>
       </defs>
       <use xlink:href="#DejaVuSans-34"/>
       <use xlink:href="#DejaVuSans-32" x="63.623047"/>
       <use xlink:href="#DejaVuSans-30" x="127.246094"/>
      </g>
     </g>
    </g>
    <g id="ytick_2">
     <g id="line2d_7">
      <g>
       <use xlink:href="#mda09ef247b" x="57.6" y="220.608" style="stroke: #000000; stroke-width: 0.8"/>
      </g>
     </g>
     <g id="text_8">
      <!-- 440 -->
      <g transform="translate(31.5125 224.407219)scale(0.1 -0.1)">
       <use xlink:href="#DejaVuSans-34"/>
       <use xlink:href="#DejaVuSans-34" x="63.623047"/>
       <use xlink:href="#DejaVuSans-30" x="127.246094"/>
      </g>
     </g>
    </g>
    <g id="ytick_3">
     <g id="line2d_8">
      <g>
       <use xlink:href="#mda09ef247b" x="57.6" y="163.008" style="stroke: #000000; stroke-width: 0.8"/>
      </g>
     </g>
     <g id="text_9">
      <!-- 460 -->
      <g transform="translate(31.5125 166.807219)scale(0.1 -0.1)">
       <defs>
        <path id="DejaVuSans-36" d="M 2113 2584 
Q 1688 2584 1439 2293 
Q 1191 2003 1191 1497 
Q 1191 994 1439 701 
Q 1688 409 2113 409 
Q 2538 409 2786 701 
Q 3034 994 3034 1497 
Q 3034 2003 2786 2293 
Q 2538 2584 2113 2584 
z
M 3366 4563 
L 3366 3988 
Q 3128 4100 2886 4159 
Q 2644 4219 2406 4219 
Q 1781 4219 1451 3797 
Q 1122 3375 1075 2522 
Q 1259 2794 1537 2939 
Q 1816 3084 2150 3084 
Q 2853 3084 3261 2657 
Q 3669 2231 3669 1497 
Q 3669 778 3244 343 
Q 2819 -91 2113 -91 
Q 1303 -91 875 529 
Q 447 1150 447 2328 
Q 447 3434 972 4092 
Q 1497 4750 2381 4750 
Q 2619 4750 2861 4703 
Q 3103 4656 3366 4563 
z
" transform="scale(0.015625)"/>
       </defs>
       <use xlink:href="#DejaVuSans-34"/>
       <use xlink:href="#DejaVuSans-36" x="63.623047"/>
       <use xlink:href="#DejaVuSans-30" x="127.246094"/>
      </g>
     </g>
    </g>
    <g id="ytick_4">
     <g id="line2d_9">
      <g>
       <use xlink:href="#mda09ef247b" x="57.6" y="105.408" style="stroke: #000000; stroke-width: 0.8"/>
      </g>
     </g>
     <g id="text_10">
      <!-- 480 -->
      <g transform="translate(31.5125 109.207219)scale(0.1 -0.1)">
       <defs>
        <path id="DejaVuSans-38" d="M 2034 2216 
Q 1584 2216 1326 1975 
Q 1069 1734 1069 1313 
Q 1069 891 1326 650 
Q 1584 409 2034 409 
Q 2484 409 2743 651 
Q 3003 894 3003 1313 
Q 3003 1734 2745 1975 
Q 2488 2216 2034 2216 
z
M 1403 2484 
Q 997 2584 770 2862 
Q 544 3141 544 3541 
Q 544 4100 942 4425 
Q 1341 4750 2034 4750 
Q 2731 4750 3128 4425 
Q 3525 4100 3525 3541 
Q 3525 3141 3298 2862 
Q 3072 2584 2669 2484 
Q 3125 2378 3379 2068 
Q 3634 1759 3634 1313 
Q 3634 634 3220 271 
Q 2806 -91 2034 -91 
Q 1263 -91 848 271 
Q 434 634 434 1313 
Q 434 1759 690 2068 
Q 947 2378 1403 2484 
z
M 1172 3481 
Q 1172 3119 1398 2916 
Q 1625 2713 2034 2713 
Q 2441 2713 2670 2916 
Q 2900 3119 2900 3481 
Q 2900 3844 2670 4047 
Q 2441 4250 2034 4250 
Q 1625 4250 1398 4047 
Q 1172 3844 1172 3481 
z
" transform="scale(0.015625)"/>
       </defs>
       <use xlink:href="#DejaVuSans-34"/>
       <use xlink:href="#DejaVuSans-38" x="63.623047"/>
       <use xlink:href="#DejaVuSans-30" x="127.246094"/>
      </g>
     </g>
    </g>
    <g id="ytick_5">
     <g id="line2d_10">
      <g>
       <use xlink:href="#mda09ef247b" x="57.6" y="47.808" style="stroke: #000000; stroke-width: 0.8"/>
      </g>
     </g>
     <g id="text_11">
      <!-- 500 -->
      <g transform="translate(31.5125 51.607219)scale(0.1 -0.1)">
       <use xlink:href="#DejaVuSans-35"/>
       <use xlink:href="#DejaVuSans-30" x="63.623047"/>
       <use xlink:href="#DejaVuSans-30" x="127.246094"/>
      </g>
     </g>
    </g>
    <g id="text_12">
     <!-- total cost -->
     <g transform="translate(25.432812 197.923313)rotate(-90)scale(0.1 -0.1)">
      <defs>
       <path id="DejaVuSans-74" d="M 1172 4494 
L 1172 3500 
L 2356 3500 
L 2356 3053 
L 1172 3053 
L 1172 1153 
Q 1172 725 1289 603 
Q 1406 481 1766 481 
L 2356 481 
L 2356 0 
L 1766 0 
Q 1100 0 847 248 
Q 594 497 594 1153 
L 594 3053 
L 172 3053 
L 172 3500 
L 594 3500 
L 594 4494 
L 1172 4494 
z
" transform="scale(0.015625)"/>
       <path id="DejaVuSans-6f" d="M 1959 3097 
Q 1497 3097 1228 2736 
Q 959 2375 959 1747 
Q 959 1119 1226 758 
Q 1494 397 1959 397 
Q 2419 397 2687 759 
Q 2956 1122 2956 1747 
Q 2956 2369 2687 2733 
Q 2419 3097 1959 3097 
z
M 1959 3584 
Q 2709 3584 3137 3096 
Q 3566 2609 3566 1747 
Q 3566 888 3137 398 
Q 2709 -91 1959 -91 
Q 1206 -91 779 398 
Q 353 888 353 1747 
Q 353 2609 779 3096 
Q 1206 3584 1959 3584 
z
" transform="scale(0.015625)"/>
       <path id="DejaVuSans-6c" d="M 603 4863 
L 1178 4863 
L 1178 0 
L 603 0 
L 603 4863 
z
" transform="scale(0.015625)"/>
       <path id="DejaVuSans-63" d="M 3122 3366 
L 3122 2828 
Q 2878 2963 2633 3030 
Q 2388 3097 2138 3097 
Q 1578 3097 1268 2742 
Q 959 2388 959 1747 
Q 959 1106 1268 751 
Q 1578 397 2138 397 
Q 2388 397 2633 464 
Q 2878 531 3122 666 
L 3122 134 
Q 2881 22 2623 -34 
Q 2366 -91 2075 -91 
Q 1284 -91 818 406 
Q 353 903 353 1747 
Q 353 2603 823 3093 
Q 1294 3584 2113 3584 
Q 2378 3584 2631 3529 
Q 2884 3475 3122 3366 
z
" transform="scale(0.015625)"/>
      </defs>
      <use xlink:href="#DejaVuSans-74"/>
      <use xlink:href="#DejaVuSans-6f" x="39.208984"/>
      <use xlink:href="#DejaVuSans-74" x="100.390625"/>
      <use xlink:href="#DejaVuSans-61" x="139.599609"/>
      <use xlink:href="#DejaVuSans-6c" x="200.878906"/>
      <use xlink:href="#DejaVuSans-20" x="228.662109"/>
      <use xlink:href="#DejaVuSans-63" x="260.449219"/>
      <use xlink:href="#DejaVuSans-6f" x="315.429688"/>
      <use xlink:href="#DejaVuSans-73" x="376.611328"/>
      <use xlink:href="#DejaVuSans-74" x="428.710938"/>
     </g>
    </g>
   </g>
   <g id="line2d_11">
    <path d="M 73.832727 76.608 
L 74.148539 79.488 
L 74.464351 73.728 
L 74.780163 91.008 
L 75.095975 148.608 
L 75.411786 134.208 
L 75.727598 134.208 
L 76.04341 119.808 
L 76.359222 142.848 
L 76.675034 145.728 
L 77.306657 157.248 
L 77.622469 148.608 
L 77.938281 151.488 
L 78.254093 134.208 
L 78.569904 128.448 
L 79.201528 174.528 
L 79.51734 177.408 
L 79.833152 171.648 
L 80.148964 174.528 
L 80.464775 102.528 
L 80.780587 96.768 
L 81.096399 108.288 
L 81.412211 91.008 
L 82.043834 85.248 
L 82.359646 88.128 
L 82.675458 108.288 
L 82.99127 174.528 
L 83.622894 108.288 
L 83.938705 108.288 
L 84.254517 125.568 
L 85.517764 59.328 
L 85.833576 65.088 
L 86.149388 65.088 
L 86.4652 73.728 
L 86.781012 88.128 
L 87.096823 142.848 
L 87.412635 139.968 
L 87.728447 151.488 
L 88.360071 114.048 
L 88.675883 111.168 
L 89.307506 122.688 
L 89.623318 114.048 
L 89.93913 114.048 
L 90.254942 116.928 
L 90.570753 131.328 
L 90.886565 114.048 
L 91.202377 116.928 
L 91.518189 125.568 
L 91.834001 128.448 
L 92.149813 114.048 
L 92.465624 108.288 
L 92.781436 114.048 
L 93.097248 116.928 
L 93.41306 116.928 
L 93.728872 119.808 
L 94.044683 114.048 
L 94.360495 91.008 
L 94.992119 76.608 
L 96.255366 108.288 
L 96.571178 108.288 
L 96.88699 82.368 
L 97.202802 88.128 
L 97.834425 114.048 
L 98.150237 96.768 
L 98.466049 96.768 
L 98.781861 85.248 
L 99.097672 65.088 
L 99.413484 102.528 
L 100.045108 116.928 
L 100.36092 105.408 
L 100.676732 99.648 
L 101.308355 114.048 
L 101.624167 134.208 
L 101.939979 139.968 
L 102.255791 151.488 
L 102.571602 200.448 
L 102.887414 188.928 
L 103.203226 148.608 
L 103.519038 154.368 
L 104.466473 116.928 
L 104.782285 119.808 
L 105.098097 125.568 
L 105.413909 160.128 
L 105.729721 145.728 
L 106.045532 163.008 
L 106.361344 163.008 
L 107.624591 131.328 
L 107.940403 137.088 
L 108.256215 145.728 
L 108.572027 131.328 
L 108.887839 157.248 
L 109.203651 151.488 
L 109.519462 160.128 
L 109.835274 116.928 
L 110.151086 128.448 
L 110.466898 128.448 
L 110.78271 139.968 
L 111.098521 160.128 
L 111.414333 154.368 
L 111.730145 165.888 
L 112.045957 160.128 
L 112.361769 148.608 
L 112.67758 165.888 
L 113.940828 197.568 
L 114.25664 186.048 
L 114.572451 191.808 
L 114.888263 177.408 
L 115.519887 188.928 
L 115.835699 200.448 
L 116.15151 188.928 
L 116.783134 188.928 
L 117.098946 200.448 
L 117.414758 203.328 
L 117.73057 188.928 
L 118.046381 157.248 
L 118.362193 148.608 
L 118.678005 148.608 
L 118.993817 108.288 
L 119.309629 108.288 
L 119.62544 105.408 
L 119.941252 93.888 
L 120.572876 122.688 
L 120.888688 122.688 
L 121.204499 142.848 
L 121.520311 119.808 
L 122.151935 119.808 
L 122.467747 134.208 
L 122.783559 174.528 
L 123.09937 160.128 
L 123.415182 214.848 
L 123.730994 211.968 
L 124.046806 217.728 
L 124.362618 235.008 
L 124.678429 223.488 
L 124.994241 243.648 
L 125.310053 237.888 
L 125.941677 223.488 
L 126.5733 223.488 
L 126.889112 214.848 
L 127.204924 229.248 
L 127.520736 237.888 
L 127.836548 217.728 
L 128.152359 209.088 
L 128.468171 214.848 
L 128.783983 214.848 
L 129.099795 206.208 
L 129.415607 217.728 
L 129.731418 214.848 
L 130.04723 177.408 
L 130.363042 183.168 
L 130.678854 191.808 
L 130.994666 186.048 
L 131.310478 200.448 
L 131.626289 226.368 
L 131.942101 223.488 
L 132.257913 223.488 
L 132.573725 197.568 
L 132.889537 188.928 
L 133.205348 151.488 
L 133.52116 154.368 
L 133.836972 139.968 
L 134.152784 165.888 
L 134.784407 151.488 
L 135.100219 151.488 
L 135.416031 154.368 
L 135.731843 131.328 
L 136.047655 131.328 
L 136.363467 145.728 
L 136.679278 165.888 
L 136.99509 154.368 
L 137.626714 197.568 
L 137.942526 197.568 
L 138.258337 217.728 
L 138.574149 217.728 
L 138.889961 203.328 
L 139.205773 194.688 
L 139.521585 191.808 
L 139.837397 206.208 
L 140.153208 226.368 
L 140.784832 237.888 
L 141.416456 237.888 
L 141.732267 232.128 
L 142.048079 220.608 
L 142.363891 214.848 
L 142.679703 206.208 
L 142.995515 206.208 
L 143.311326 235.008 
L 143.627138 243.648 
L 143.94295 258.048 
L 144.258762 255.168 
L 144.574574 235.008 
L 144.890386 206.208 
L 145.206197 203.328 
L 145.522009 237.888 
L 145.837821 255.168 
L 146.153633 249.408 
L 146.469445 214.848 
L 146.785256 226.368 
L 147.101068 229.248 
L 147.41688 214.848 
L 148.680127 246.528 
L 148.995939 246.528 
L 149.311751 255.168 
L 149.943375 249.408 
L 150.259186 255.168 
L 150.574998 246.528 
L 150.89081 226.368 
L 151.522434 252.288 
L 151.838245 237.888 
L 152.154057 237.888 
L 152.785681 203.328 
L 153.417305 237.888 
L 153.733116 223.488 
L 154.36474 174.528 
L 154.680552 174.528 
L 154.996364 186.048 
L 155.312175 174.528 
L 155.627987 186.048 
L 155.943799 188.928 
L 156.259611 177.408 
L 156.575423 203.328 
L 156.891235 209.088 
L 157.207046 217.728 
L 157.522858 217.728 
L 157.83867 220.608 
L 158.154482 206.208 
L 158.470294 200.448 
L 158.786105 174.528 
L 159.733541 203.328 
L 160.049353 217.728 
L 160.680976 232.128 
L 160.996788 200.448 
L 161.3126 229.248 
L 161.944224 197.568 
L 162.260035 211.968 
L 162.575847 206.208 
L 162.891659 211.968 
L 163.207471 209.088 
L 163.523283 220.608 
L 163.839094 171.648 
L 164.154906 168.768 
L 164.470718 171.648 
L 165.102342 142.848 
L 165.418154 145.728 
L 165.733965 157.248 
L 166.365589 157.248 
L 166.681401 165.888 
L 167.313024 151.488 
L 167.628836 163.008 
L 167.944648 183.168 
L 168.26046 180.288 
L 168.576272 191.808 
L 168.892083 197.568 
L 169.207895 186.048 
L 169.523707 168.768 
L 169.839519 168.768 
L 170.155331 174.528 
L 170.471143 171.648 
L 170.786954 165.888 
L 171.102766 165.888 
L 171.418578 177.408 
L 171.73439 180.288 
L 172.050202 186.048 
L 172.366013 203.328 
L 172.681825 209.088 
L 173.313449 237.888 
L 173.629261 252.288 
L 173.945073 232.128 
L 174.260884 229.248 
L 174.576696 223.488 
L 174.892508 226.368 
L 175.20832 217.728 
L 175.524132 220.608 
L 175.839943 232.128 
L 176.155755 223.488 
L 176.787379 237.888 
L 177.103191 226.368 
L 177.419002 223.488 
L 177.734814 226.368 
L 178.050626 232.128 
L 178.366438 223.488 
L 178.68225 223.488 
L 178.998062 214.848 
L 179.313873 214.848 
L 179.629685 220.608 
L 179.945497 209.088 
L 180.261309 206.208 
L 180.577121 209.088 
L 180.892932 180.288 
L 181.208744 183.168 
L 181.840368 183.168 
L 182.15618 200.448 
L 182.471992 180.288 
L 182.787803 177.408 
L 183.103615 131.328 
L 183.419427 119.808 
L 183.735239 122.688 
L 184.051051 119.808 
L 184.366862 131.328 
L 184.682674 125.568 
L 184.998486 134.208 
L 185.314298 122.688 
L 186.261733 168.768 
L 186.577545 163.008 
L 186.893357 163.008 
L 187.524981 131.328 
L 187.840792 151.488 
L 188.156604 157.248 
L 188.472416 200.448 
L 188.788228 194.688 
L 189.735663 148.608 
L 190.051475 145.728 
L 190.367287 105.408 
L 190.683099 105.408 
L 191.314722 168.768 
L 191.630534 145.728 
L 191.946346 142.848 
L 192.57797 93.888 
L 193.209593 93.888 
L 193.525405 105.408 
L 193.841217 99.648 
L 194.157029 99.648 
L 194.47284 70.848 
L 194.788652 65.088 
L 195.104464 67.968 
L 195.420276 67.968 
L 195.736088 59.328 
L 196.0519 79.488 
L 196.367711 79.488 
L 196.683523 105.408 
L 197.315147 125.568 
L 197.94677 125.568 
L 198.262582 131.328 
L 198.578394 96.768 
L 198.894206 88.128 
L 199.210018 93.888 
L 199.52583 85.248 
L 199.841641 96.768 
L 200.157453 82.368 
L 200.789077 119.808 
L 201.4207 177.408 
L 201.736512 174.528 
L 202.052324 157.248 
L 202.368136 163.008 
L 202.683948 142.848 
L 202.999759 142.848 
L 203.315571 128.448 
L 203.631383 137.088 
L 203.947195 139.968 
L 204.263007 154.368 
L 204.578819 142.848 
L 204.89463 154.368 
L 205.526254 142.848 
L 205.842066 157.248 
L 206.473689 151.488 
L 206.789501 160.128 
L 207.105313 154.368 
L 207.421125 139.968 
L 207.736937 139.968 
L 208.052748 116.928 
L 208.36856 114.048 
L 208.684372 116.928 
L 209.000184 105.408 
L 209.315996 102.528 
L 209.631808 108.288 
L 209.947619 91.008 
L 210.263431 91.008 
L 210.579243 88.128 
L 210.895055 76.608 
L 211.210867 73.728 
L 211.526678 53.568 
L 211.84249 73.728 
L 212.158302 70.848 
L 212.474114 88.128 
L 213.105738 93.888 
L 213.421549 82.368 
L 213.737361 85.248 
L 214.053173 82.368 
L 214.368985 67.968 
L 214.684797 70.848 
L 215.31642 70.848 
L 215.632232 73.728 
L 215.948044 99.648 
L 216.263856 93.888 
L 216.895479 62.208 
L 217.211291 73.728 
L 217.527103 76.608 
L 217.842915 76.608 
L 218.158727 82.368 
L 218.474538 79.488 
L 218.79035 96.768 
L 219.106162 93.888 
L 219.421974 96.768 
L 220.053597 111.168 
L 220.369409 111.168 
L 220.685221 137.088 
L 221.001033 137.088 
L 221.316845 148.608 
L 221.632657 151.488 
L 221.948468 163.008 
L 222.26428 154.368 
L 222.580092 171.648 
L 223.211716 151.488 
L 223.527527 160.128 
L 223.843339 157.248 
L 224.159151 142.848 
L 224.474963 157.248 
L 224.790775 188.928 
L 225.106586 197.568 
L 225.422398 188.928 
L 225.73821 194.688 
L 226.054022 168.768 
L 226.369834 168.768 
L 226.685646 154.368 
L 227.001457 148.608 
L 227.317269 151.488 
L 227.948893 174.528 
L 228.264705 177.408 
L 228.580516 165.888 
L 228.896328 174.528 
L 229.21214 200.448 
L 229.527952 197.568 
L 229.843764 174.528 
L 230.159576 174.528 
L 230.475387 168.768 
L 230.791199 211.968 
L 231.107011 223.488 
L 231.422823 220.608 
L 231.738635 214.848 
L 232.054446 211.968 
L 232.370258 197.568 
L 232.68607 211.968 
L 233.001882 249.408 
L 233.317694 223.488 
L 233.633505 240.768 
L 233.949317 237.888 
L 234.265129 243.648 
L 234.580941 246.528 
L 234.896753 226.368 
L 235.212565 226.368 
L 235.528376 214.848 
L 235.844188 214.848 
L 236.16 211.968 
L 236.475812 203.328 
L 236.791624 214.848 
L 237.107435 194.688 
L 237.739059 183.168 
L 238.370683 183.168 
L 238.686495 174.528 
L 239.002306 171.648 
L 239.63393 183.168 
L 239.949742 197.568 
L 240.265554 194.688 
L 240.581365 203.328 
L 240.897177 194.688 
L 241.212989 203.328 
L 241.528801 200.448 
L 241.844613 183.168 
L 242.160424 180.288 
L 242.476236 180.288 
L 242.792048 197.568 
L 243.423672 197.568 
L 243.739484 191.808 
L 244.055295 171.648 
L 244.371107 171.648 
L 244.686919 180.288 
L 245.002731 197.568 
L 245.318543 183.168 
L 245.634354 142.848 
L 245.950166 148.608 
L 246.265978 163.008 
L 246.897602 151.488 
L 247.213414 183.168 
L 247.529225 177.408 
L 247.845037 180.288 
L 248.160849 157.248 
L 248.476661 145.728 
L 248.792473 157.248 
L 249.108284 160.128 
L 249.424096 151.488 
L 249.739908 151.488 
L 250.05572 148.608 
L 250.371532 142.848 
L 250.687343 119.808 
L 251.003155 134.208 
L 251.318967 131.328 
L 251.634779 125.568 
L 251.950591 154.368 
L 252.266403 154.368 
L 252.582214 174.528 
L 252.898026 186.048 
L 253.213838 186.048 
L 253.52965 194.688 
L 254.161273 232.128 
L 254.477085 226.368 
L 254.792897 223.488 
L 255.108709 229.248 
L 255.424521 226.368 
L 255.740333 211.968 
L 256.056144 226.368 
L 256.371956 226.368 
L 256.687768 211.968 
L 257.00358 223.488 
L 257.319392 226.368 
L 257.635203 232.128 
L 257.951015 217.728 
L 258.266827 211.968 
L 258.582639 229.248 
L 258.898451 235.008 
L 259.214262 226.368 
L 259.845886 252.288 
L 260.161698 255.168 
L 260.47751 249.408 
L 260.793322 252.288 
L 261.109133 249.408 
L 261.424945 266.688 
L 261.740757 260.928 
L 262.056569 266.688 
L 262.372381 255.168 
L 262.688192 229.248 
L 263.635628 266.688 
L 263.95144 255.168 
L 264.267252 260.928 
L 265.214687 289.728 
L 265.846311 269.568 
L 266.162122 292.608 
L 266.477934 295.488 
L 266.793746 286.848 
L 267.109558 289.728 
L 267.42537 286.848 
L 267.741181 269.568 
L 268.056993 240.768 
L 268.372805 240.768 
L 268.688617 229.248 
L 269.636052 229.248 
L 269.951864 217.728 
L 270.267676 235.008 
L 270.583488 237.888 
L 271.215111 223.488 
L 271.530923 220.608 
L 272.162547 203.328 
L 272.79417 223.488 
L 273.109982 235.008 
L 273.425794 237.888 
L 273.741606 229.248 
L 274.057418 209.088 
L 274.37323 197.568 
L 274.689041 200.448 
L 275.004853 206.208 
L 275.320665 188.928 
L 275.636477 186.048 
L 276.2681 220.608 
L 276.583912 217.728 
L 276.899724 223.488 
L 277.215536 211.968 
L 277.531348 214.848 
L 278.162971 188.928 
L 278.478783 186.048 
L 278.794595 186.048 
L 279.110407 183.168 
L 279.426219 183.168 
L 279.74203 174.528 
L 280.057842 154.368 
L 280.689466 203.328 
L 281.005278 235.008 
L 281.636901 214.848 
L 281.952713 226.368 
L 282.268525 223.488 
L 282.584337 237.888 
L 282.900149 237.888 
L 283.21596 240.768 
L 283.531772 232.128 
L 283.847584 200.448 
L 284.163396 214.848 
L 284.479208 180.288 
L 284.795019 183.168 
L 285.110831 177.408 
L 285.742455 139.968 
L 286.058267 134.208 
L 286.374079 139.968 
L 286.68989 154.368 
L 287.005702 145.728 
L 287.637326 163.008 
L 287.953138 160.128 
L 288.268949 174.528 
L 288.584761 163.008 
L 288.900573 168.768 
L 289.216385 134.208 
L 289.532197 142.848 
L 289.848008 116.928 
L 290.16382 119.808 
L 290.479632 82.368 
L 290.795444 85.248 
L 291.111256 76.608 
L 291.427068 116.928 
L 291.742879 122.688 
L 292.058691 125.568 
L 292.374503 125.568 
L 292.690315 99.648 
L 293.006127 93.888 
L 293.321938 70.848 
L 293.63775 111.168 
L 293.953562 125.568 
L 294.269374 128.448 
L 294.585186 128.448 
L 294.900998 145.728 
L 295.216809 145.728 
L 295.532621 151.488 
L 295.848433 125.568 
L 296.164245 188.928 
L 296.480057 203.328 
L 296.795868 180.288 
L 297.11168 177.408 
L 297.427492 180.288 
L 297.743304 91.008 
L 298.059116 85.248 
L 298.374927 91.008 
L 298.690739 88.128 
L 299.006551 53.568 
L 299.322363 59.328 
L 299.638175 59.328 
L 299.953987 79.488 
L 300.269798 85.248 
L 300.58561 85.248 
L 300.901422 91.008 
L 301.217234 99.648 
L 301.533046 93.888 
L 301.848857 99.648 
L 302.480481 163.008 
L 302.796293 163.008 
L 303.112105 168.768 
L 303.427917 168.768 
L 303.743728 188.928 
L 304.05954 191.808 
L 304.375352 186.048 
L 304.691164 197.568 
L 305.006976 203.328 
L 305.322787 194.688 
L 305.638599 235.008 
L 305.954411 226.368 
L 306.270223 203.328 
L 306.586035 191.808 
L 306.901846 191.808 
L 307.217658 188.928 
L 307.53347 197.568 
L 307.849282 194.688 
L 308.165094 194.688 
L 308.480906 200.448 
L 308.796717 186.048 
L 309.112529 160.128 
L 309.744153 194.688 
L 310.059965 177.408 
L 310.375776 191.808 
L 310.691588 217.728 
L 311.0074 206.208 
L 311.323212 206.208 
L 311.639024 203.328 
L 311.954836 191.808 
L 312.270647 197.568 
L 312.586459 197.568 
L 312.902271 194.688 
L 314.165518 171.648 
L 314.48133 151.488 
L 314.797142 174.528 
L 315.112954 154.368 
L 315.428765 163.008 
L 315.744577 134.208 
L 316.060389 131.328 
L 316.376201 160.128 
L 316.692013 160.128 
L 317.007825 165.888 
L 317.323636 180.288 
L 317.639448 145.728 
L 317.95526 203.328 
L 318.271072 203.328 
L 318.586884 220.608 
L 318.902695 226.368 
L 319.534319 226.368 
L 319.850131 223.488 
L 320.165943 249.408 
L 320.481755 258.048 
L 320.797566 237.888 
L 321.113378 237.888 
L 321.42919 235.008 
L 321.745002 235.008 
L 322.060814 237.888 
L 322.376625 211.968 
L 322.692437 209.088 
L 323.008249 211.968 
L 323.324061 200.448 
L 323.639873 209.088 
L 323.955684 206.208 
L 324.587308 206.208 
L 324.90312 217.728 
L 325.218932 203.328 
L 325.850555 197.568 
L 326.482179 186.048 
L 326.797991 186.048 
L 327.113803 180.288 
L 327.429614 180.288 
L 327.745426 191.808 
L 328.061238 194.688 
L 328.37705 191.808 
L 328.692862 174.528 
L 329.008674 174.528 
L 329.324485 183.168 
L 329.640297 177.408 
L 330.271921 206.208 
L 330.587733 194.688 
L 330.903544 163.008 
L 331.219356 160.128 
L 331.535168 163.008 
L 332.166792 191.808 
L 332.482603 180.288 
L 332.798415 180.288 
L 333.114227 188.928 
L 333.430039 177.408 
L 333.745851 160.128 
L 334.061663 160.128 
L 334.377474 148.608 
L 334.693286 163.008 
L 335.009098 171.648 
L 335.32491 174.528 
L 335.640722 186.048 
L 335.956533 203.328 
L 336.272345 188.928 
L 336.588157 223.488 
L 336.903969 188.928 
L 337.219781 209.088 
L 337.535593 194.688 
L 337.851404 200.448 
L 338.167216 203.328 
L 338.483028 188.928 
L 338.79884 188.928 
L 339.114652 235.008 
L 339.430463 243.648 
L 339.746275 260.928 
L 340.062087 252.288 
L 340.377899 235.008 
L 340.693711 226.368 
L 341.009522 243.648 
L 341.325334 252.288 
L 341.641146 255.168 
L 341.956958 266.688 
L 342.27277 263.808 
L 342.588582 258.048 
L 342.904393 191.808 
L 343.220205 217.728 
L 343.851829 211.968 
L 344.167641 211.968 
L 344.483452 217.728 
L 344.799264 209.088 
L 345.115076 191.808 
L 345.430888 203.328 
L 345.7467 139.968 
L 346.378323 180.288 
L 346.694135 154.368 
L 347.009947 157.248 
L 347.641571 125.568 
L 347.957382 122.688 
L 348.273194 114.048 
L 348.589006 145.728 
L 348.904818 157.248 
L 349.22063 145.728 
L 349.536441 139.968 
L 349.852253 119.808 
L 350.483877 134.208 
L 350.799689 122.688 
L 351.115501 139.968 
L 351.431312 145.728 
L 351.747124 174.528 
L 352.062936 186.048 
L 352.378748 168.768 
L 352.69456 165.888 
L 353.010371 165.888 
L 353.326183 174.528 
L 353.957807 206.208 
L 354.273619 214.848 
L 354.58943 191.808 
L 354.905242 197.568 
L 355.221054 197.568 
L 355.536866 206.208 
L 355.852678 203.328 
L 356.16849 183.168 
L 356.484301 171.648 
L 356.800113 186.048 
L 357.115925 209.088 
L 357.747549 263.808 
L 358.06336 263.808 
L 358.379172 246.528 
L 358.694984 220.608 
L 359.010796 211.968 
L 359.326608 188.928 
L 359.64242 188.928 
L 359.958231 180.288 
L 360.274043 177.408 
L 360.589855 151.488 
L 361.221479 163.008 
L 361.53729 139.968 
L 361.853102 160.128 
L 362.168914 163.008 
L 362.484726 151.488 
L 362.800538 128.448 
L 363.116349 128.448 
L 364.063785 105.408 
L 364.379597 116.928 
L 364.695409 105.408 
L 365.01122 116.928 
L 365.327032 108.288 
L 365.642844 122.688 
L 365.958656 116.928 
L 366.274468 151.488 
L 366.590279 163.008 
L 366.906091 168.768 
L 367.221903 180.288 
L 367.537715 174.528 
L 367.853527 157.248 
L 368.169339 174.528 
L 368.48515 139.968 
L 368.800962 137.088 
L 369.116774 137.088 
L 369.432586 139.968 
L 369.748398 139.968 
L 370.064209 148.608 
L 370.380021 165.888 
L 370.695833 165.888 
L 371.011645 180.288 
L 371.327457 180.288 
L 371.643268 177.408 
L 371.95908 165.888 
L 372.590704 171.648 
L 372.906516 151.488 
L 373.222328 157.248 
L 373.538139 157.248 
L 373.853951 160.128 
L 374.169763 157.248 
L 374.485575 183.168 
L 374.801387 171.648 
L 375.117198 174.528 
L 375.43301 154.368 
L 375.748822 148.608 
L 376.064634 157.248 
L 376.380446 157.248 
L 376.696258 174.528 
L 377.012069 174.528 
L 377.327881 177.408 
L 377.959505 177.408 
L 378.275317 174.528 
L 378.591128 186.048 
L 378.90694 151.488 
L 379.538564 125.568 
L 379.854376 116.928 
L 380.170187 76.608 
L 380.485999 131.328 
L 380.801811 148.608 
L 381.117623 139.968 
L 381.433435 142.848 
L 381.749247 160.128 
L 382.38087 137.088 
L 382.696682 131.328 
L 383.012494 142.848 
L 383.328306 137.088 
L 383.644117 134.208 
L 383.959929 139.968 
L 384.275741 151.488 
L 384.591553 148.608 
L 384.907365 165.888 
L 385.223177 165.888 
L 385.538988 186.048 
L 385.8548 154.368 
L 386.170612 145.728 
L 386.486424 157.248 
L 386.802236 148.608 
L 387.118047 148.608 
L 387.433859 137.088 
L 387.749671 108.288 
L 388.065483 154.368 
L 388.381295 142.848 
L 388.697106 151.488 
L 389.32873 200.448 
L 389.644542 197.568 
L 389.960354 197.568 
L 390.276166 157.248 
L 390.591977 148.608 
L 390.907789 151.488 
L 391.223601 165.888 
L 391.539413 186.048 
L 391.855225 183.168 
L 392.171036 186.048 
L 392.486848 183.168 
L 392.80266 194.688 
L 393.118472 217.728 
L 393.434284 217.728 
L 393.750096 171.648 
L 394.065907 191.808 
L 394.381719 197.568 
L 394.697531 194.688 
L 395.013343 197.568 
L 395.644966 209.088 
L 395.960778 211.968 
L 396.27659 211.968 
L 396.592402 214.848 
L 396.908214 232.128 
L 397.224025 232.128 
L 397.539837 223.488 
L 397.855649 260.928 
L 398.171461 246.528 
L 398.487273 258.048 
L 398.487273 258.048 
" clip-path="url(#p5c3c0ae4c5)" style="fill: none; stroke: #1f77b4; stroke-width: 1.5; stroke-linecap: square"/>
   </g>
   <g id="patch_3">
    <path d="M 57.6 307.584 
L 57.6 41.472 
" style="fill: none; stroke: #000000; stroke-width: 0.8; stroke-linejoin: miter; stroke-linecap: square"/>
   </g>
   <g id="patch_4">
    <path d="M 414.72 307.584 
L 414.72 41.472 
" style="fill: none; stroke: #000000; stroke-width: 0.8; stroke-linejoin: miter; stroke-linecap: square"/>
   </g>
   <g id="patch_5">
    <path d="M 57.6 307.584 
L 414.72 307.584 
" style="fill: none; stroke: #000000; stroke-width: 0.8; stroke-linejoin: miter; stroke-linecap: square"/>
   </g>
   <g id="patch_6">
    <path d="M 57.6 41.472 
L 414.72 41.472 
" style="fill: none; stroke: #000000; stroke-width: 0.8; stroke-linejoin: miter; stroke-linecap: square"/>
   </g>
   <g id="text_13">
    <!-- Simulated Anealling Cost -->
    <g transform="translate(160.8 35.472)scale(0.12 -0.12)">
     <defs>
      <path id="DejaVuSans-53" d="M 3425 4513 
L 3425 3897 
Q 3066 4069 2747 4153 
Q 2428 4238 2131 4238 
Q 1616 4238 1336 4038 
Q 1056 3838 1056 3469 
Q 1056 3159 1242 3001 
Q 1428 2844 1947 2747 
L 2328 2669 
Q 3034 2534 3370 2195 
Q 3706 1856 3706 1288 
Q 3706 609 3251 259 
Q 2797 -91 1919 -91 
Q 1588 -91 1214 -16 
Q 841 59 441 206 
L 441 856 
Q 825 641 1194 531 
Q 1563 422 1919 422 
Q 2459 422 2753 634 
Q 3047 847 3047 1241 
Q 3047 1584 2836 1778 
Q 2625 1972 2144 2069 
L 1759 2144 
Q 1053 2284 737 2584 
Q 422 2884 422 3419 
Q 422 4038 858 4394 
Q 1294 4750 2059 4750 
Q 2388 4750 2728 4690 
Q 3069 4631 3425 4513 
z
" transform="scale(0.015625)"/>
      <path id="DejaVuSans-69" d="M 603 3500 
L 1178 3500 
L 1178 0 
L 603 0 
L 603 3500 
z
M 603 4863 
L 1178 4863 
L 1178 4134 
L 603 4134 
L 603 4863 
z
" transform="scale(0.015625)"/>
      <path id="DejaVuSans-65" d="M 3597 1894 
L 3597 1613 
L 953 1613 
Q 991 1019 1311 708 
Q 1631 397 2203 397 
Q 2534 397 2845 478 
Q 3156 559 3463 722 
L 3463 178 
Q 3153 47 2828 -22 
Q 2503 -91 2169 -91 
Q 1331 -91 842 396 
Q 353 884 353 1716 
Q 353 2575 817 3079 
Q 1281 3584 2069 3584 
Q 2775 3584 3186 3129 
Q 3597 2675 3597 1894 
z
M 3022 2063 
Q 3016 2534 2758 2815 
Q 2500 3097 2075 3097 
Q 1594 3097 1305 2825 
Q 1016 2553 972 2059 
L 3022 2063 
z
" transform="scale(0.015625)"/>
      <path id="DejaVuSans-64" d="M 2906 2969 
L 2906 4863 
L 3481 4863 
L 3481 0 
L 2906 0 
L 2906 525 
Q 2725 213 2448 61 
Q 2172 -91 1784 -91 
Q 1150 -91 751 415 
Q 353 922 353 1747 
Q 353 2572 751 3078 
Q 1150 3584 1784 3584 
Q 2172 3584 2448 3432 
Q 2725 3281 2906 2969 
z
M 947 1747 
Q 947 1113 1208 752 
Q 1469 391 1925 391 
Q 2381 391 2643 752 
Q 2906 1113 2906 1747 
Q 2906 2381 2643 2742 
Q 2381 3103 1925 3103 
Q 1469 3103 1208 2742 
Q 947 2381 947 1747 
z
" transform="scale(0.015625)"/>
      <path id="DejaVuSans-41" d="M 2188 4044 
L 1331 1722 
L 3047 1722 
L 2188 4044 
z
M 1831 4666 
L 2547 4666 
L 4325 0 
L 3669 0 
L 3244 1197 
L 1141 1197 
L 716 0 
L 50 0 
L 1831 4666 
z
" transform="scale(0.015625)"/>
      <path id="DejaVuSans-67" d="M 2906 1791 
Q 2906 2416 2648 2759 
Q 2391 3103 1925 3103 
Q 1463 3103 1205 2759 
Q 947 2416 947 1791 
Q 947 1169 1205 825 
Q 1463 481 1925 481 
Q 2391 481 2648 825 
Q 2906 1169 2906 1791 
z
M 3481 434 
Q 3481 -459 3084 -895 
Q 2688 -1331 1869 -1331 
Q 1566 -1331 1297 -1286 
Q 1028 -1241 775 -1147 
L 775 -588 
Q 1028 -725 1275 -790 
Q 1522 -856 1778 -856 
Q 2344 -856 2625 -561 
Q 2906 -266 2906 331 
L 2906 616 
Q 2728 306 2450 153 
Q 2172 0 1784 0 
Q 1141 0 747 490 
Q 353 981 353 1791 
Q 353 2603 747 3093 
Q 1141 3584 1784 3584 
Q 2172 3584 2450 3431 
Q 2728 3278 2906 2969 
L 2906 3500 
L 3481 3500 
L 3481 434 
z
" transform="scale(0.015625)"/>
      <path id="DejaVuSans-43" d="M 4122 4306 
L 4122 3641 
Q 3803 3938 3442 4084 
Q 3081 4231 2675 4231 
Q 1875 4231 1450 3742 
Q 1025 3253 1025 2328 
Q 1025 1406 1450 917 
Q 1875 428 2675 428 
Q 3081 428 3442 575 
Q 3803 722 4122 1019 
L 4122 359 
Q 3791 134 3420 21 
Q 3050 -91 2638 -91 
Q 1578 -91 968 557 
Q 359 1206 359 2328 
Q 359 3453 968 4101 
Q 1578 4750 2638 4750 
Q 3056 4750 3426 4639 
Q 3797 4528 4122 4306 
z
" transform="scale(0.015625)"/>
     </defs>
     <use xlink:href="#DejaVuSans-53"/>
     <use xlink:href="#DejaVuSans-69" x="63.476562"/>
     <use xlink:href="#DejaVuSans-6d" x="91.259766"/>
     <use xlink:href="#DejaVuSans-75" x="188.671875"/>
     <use xlink:href="#DejaVuSans-6c" x="252.050781"/>
     <use xlink:href="#DejaVuSans-61" x="279.833984"/>
     <use xlink:href="#DejaVuSans-74" x="341.113281"/>
     <use xlink:href="#DejaVuSans-65" x="380.322266"/>
     <use xlink:href="#DejaVuSans-64" x="441.845703"/>
     <use xlink:href="#DejaVuSans-20" x="505.322266"/>
     <use xlink:href="#DejaVuSans-41" x="537.109375"/>
     <use xlink:href="#DejaVuSans-6e" x="605.517578"/>
     <use xlink:href="#DejaVuSans-65" x="668.896484"/>
     <use xlink:href="#DejaVuSans-61" x="730.419922"/>
     <use xlink:href="#DejaVuSans-6c" x="791.699219"/>
     <use xlink:href="#DejaVuSans-6c" x="819.482422"/>
     <use xlink:href="#DejaVuSans-69" x="847.265625"/>
     <use xlink:href="#DejaVuSans-6e" x="875.048828"/>
     <use xlink:href="#DejaVuSans-67" x="938.427734"/>
     <use xlink:href="#DejaVuSans-20" x="1001.904297"/>
     <use xlink:href="#DejaVuSans-43" x="1033.691406"/>
     <use xlink:href="#DejaVuSans-6f" x="1103.515625"/>
     <use xlink:href="#DejaVuSans-73" x="1164.697266"/>
     <use xlink:href="#DejaVuSans-74" x="1216.796875"/>
    </g>
   </g>
  </g>
 </g>
 <defs>
  <clipPath id="p5c3c0ae4c5">
   <rect x="57.6" y="41.472" width="357.12" height="266.112"/>
  </clipPath>
 </defs>
</svg>
