<?xml version="1.0" encoding="utf-8" standalone="no"?>
<!DOCTYPE svg PUBLIC "-//W3C//DTD SVG 1.1//EN"
  "http://www.w3.org/Graphics/SVG/1.1/DTD/svg11.dtd">
<svg xmlns:xlink="http://www.w3.org/1999/xlink" width="460.8pt" height="345.6pt" viewBox="0 0 460.8 345.6" xmlns="http://www.w3.org/2000/svg" version="1.1">
 <metadata>
  <rdf:RDF xmlns:dc="http://purl.org/dc/elements/1.1/" xmlns:cc="http://creativecommons.org/ns#" xmlns:rdf="http://www.w3.org/1999/02/22-rdf-syntax-ns#">
   <cc:Work>
    <dc:type rdf:resource="http://purl.org/dc/dcmitype/StillImage"/>
    <dc:date>2022-06-01T08:05:07.632617</dc:date>
    <dc:format>image/svg+xml</dc:format>
    <dc:creator>
     <cc:Agent>
      <dc:title>Matplotlib v3.5.1, https://matplotlib.org/</dc:title>
     </cc:Agent>
    </dc:creator>
   </cc:Work>
  </rdf:RDF>
 </metadata>
 <defs>
  <style type="text/css">*{stroke-linejoin: round; stroke-linecap: butt}</style>
 </defs>
 <g id="figure_1">
  <g id="patch_1">
   <path d="M 0 345.6 
L 460.8 345.6 
L 460.8 0 
L 0 0 
z
" style="fill: #ffffff"/>
  </g>
  <g id="axes_1">
   <g id="patch_2">
    <path d="M 57.6 307.584 
L 414.72 307.584 
L 414.72 41.472 
L 57.6 41.472 
z
" style="fill: #ffffff"/>
   </g>
   <g id="matplotlib.axis_1">
    <g id="xtick_1">
     <g id="line2d_1">
      <defs>
       <path id="mb3d6ab04ef" d="M 0 0 
L 0 3.5 
" style="stroke: #000000; stroke-width: 0.8"/>
      </defs>
      <g>
       <use xlink:href="#mb3d6ab04ef" x="73.832727" y="307.584" style="stroke: #000000; stroke-width: 0.8"/>
      </g>
     </g>
     <g id="text_1">
      <!-- 0 -->
      <g transform="translate(70.651477 322.182437)scale(0.1 -0.1)">
       <defs>
        <path id="DejaVuSans-30" d="M 2034 4250 
Q 1547 4250 1301 3770 
Q 1056 3291 1056 2328 
Q 1056 1369 1301 889 
Q 1547 409 2034 409 
Q 2525 409 2770 889 
Q 3016 1369 3016 2328 
Q 3016 3291 2770 3770 
Q 2525 4250 2034 4250 
z
M 2034 4750 
Q 2819 4750 3233 4129 
Q 3647 3509 3647 2328 
Q 3647 1150 3233 529 
Q 2819 -91 2034 -91 
Q 1250 -91 836 529 
Q 422 1150 422 2328 
Q 422 3509 836 4129 
Q 1250 4750 2034 4750 
z
" transform="scale(0.015625)"/>
       </defs>
       <use xlink:href="#DejaVuSans-30"/>
      </g>
     </g>
    </g>
    <g id="xtick_2">
     <g id="line2d_2">
      <g>
       <use xlink:href="#mb3d6ab04ef" x="113.775462" y="307.584" style="stroke: #000000; stroke-width: 0.8"/>
      </g>
     </g>
     <g id="text_2">
      <!-- 250 -->
      <g transform="translate(104.231712 322.182437)scale(0.1 -0.1)">
       <defs>
        <path id="DejaVuSans-32" d="M 1228 531 
L 3431 531 
L 3431 0 
L 469 0 
L 469 531 
Q 828 903 1448 1529 
Q 2069 2156 2228 2338 
Q 2531 2678 2651 2914 
Q 2772 3150 2772 3378 
Q 2772 3750 2511 3984 
Q 2250 4219 1831 4219 
Q 1534 4219 1204 4116 
Q 875 4013 500 3803 
L 500 4441 
Q 881 4594 1212 4672 
Q 1544 4750 1819 4750 
Q 2544 4750 2975 4387 
Q 3406 4025 3406 3419 
Q 3406 3131 3298 2873 
Q 3191 2616 2906 2266 
Q 2828 2175 2409 1742 
Q 1991 1309 1228 531 
z
" transform="scale(0.015625)"/>
        <path id="DejaVuSans-35" d="M 691 4666 
L 3169 4666 
L 3169 4134 
L 1269 4134 
L 1269 2991 
Q 1406 3038 1543 3061 
Q 1681 3084 1819 3084 
Q 2600 3084 3056 2656 
Q 3513 2228 3513 1497 
Q 3513 744 3044 326 
Q 2575 -91 1722 -91 
Q 1428 -91 1123 -41 
Q 819 9 494 109 
L 494 744 
Q 775 591 1075 516 
Q 1375 441 1709 441 
Q 2250 441 2565 725 
Q 2881 1009 2881 1497 
Q 2881 1984 2565 2268 
Q 2250 2553 1709 2553 
Q 1456 2553 1204 2497 
Q 953 2441 691 2322 
L 691 4666 
z
" transform="scale(0.015625)"/>
       </defs>
       <use xlink:href="#DejaVuSans-32"/>
       <use xlink:href="#DejaVuSans-35" x="63.623047"/>
       <use xlink:href="#DejaVuSans-30" x="127.246094"/>
      </g>
     </g>
    </g>
    <g id="xtick_3">
     <g id="line2d_3">
      <g>
       <use xlink:href="#mb3d6ab04ef" x="153.718196" y="307.584" style="stroke: #000000; stroke-width: 0.8"/>
      </g>
     </g>
     <g id="text_3">
      <!-- 500 -->
      <g transform="translate(144.174446 322.182437)scale(0.1 -0.1)">
       <use xlink:href="#DejaVuSans-35"/>
       <use xlink:href="#DejaVuSans-30" x="63.623047"/>
       <use xlink:href="#DejaVuSans-30" x="127.246094"/>
      </g>
     </g>
    </g>
    <g id="xtick_4">
     <g id="line2d_4">
      <g>
       <use xlink:href="#mb3d6ab04ef" x="193.660931" y="307.584" style="stroke: #000000; stroke-width: 0.8"/>
      </g>
     </g>
     <g id="text_4">
      <!-- 750 -->
      <g transform="translate(184.117181 322.182437)scale(0.1 -0.1)">
       <defs>
        <path id="DejaVuSans-37" d="M 525 4666 
L 3525 4666 
L 3525 4397 
L 1831 0 
L 1172 0 
L 2766 4134 
L 525 4134 
L 525 4666 
z
" transform="scale(0.015625)"/>
       </defs>
       <use xlink:href="#DejaVuSans-37"/>
       <use xlink:href="#DejaVuSans-35" x="63.623047"/>
       <use xlink:href="#DejaVuSans-30" x="127.246094"/>
      </g>
     </g>
    </g>
    <g id="xtick_5">
     <g id="line2d_5">
      <g>
       <use xlink:href="#mb3d6ab04ef" x="233.603665" y="307.584" style="stroke: #000000; stroke-width: 0.8"/>
      </g>
     </g>
     <g id="text_5">
      <!-- 1000 -->
      <g transform="translate(220.878665 322.182437)scale(0.1 -0.1)">
       <defs>
        <path id="DejaVuSans-31" d="M 794 531 
L 1825 531 
L 1825 4091 
L 703 3866 
L 703 4441 
L 1819 4666 
L 2450 4666 
L 2450 531 
L 3481 531 
L 3481 0 
L 794 0 
L 794 531 
z
" transform="scale(0.015625)"/>
       </defs>
       <use xlink:href="#DejaVuSans-31"/>
       <use xlink:href="#DejaVuSans-30" x="63.623047"/>
       <use xlink:href="#DejaVuSans-30" x="127.246094"/>
       <use xlink:href="#DejaVuSans-30" x="190.869141"/>
      </g>
     </g>
    </g>
    <g id="xtick_6">
     <g id="line2d_6">
      <g>
       <use xlink:href="#mb3d6ab04ef" x="273.546399" y="307.584" style="stroke: #000000; stroke-width: 0.8"/>
      </g>
     </g>
     <g id="text_6">
      <!-- 1250 -->
      <g transform="translate(260.821399 322.182437)scale(0.1 -0.1)">
       <use xlink:href="#DejaVuSans-31"/>
       <use xlink:href="#DejaVuSans-32" x="63.623047"/>
       <use xlink:href="#DejaVuSans-35" x="127.246094"/>
       <use xlink:href="#DejaVuSans-30" x="190.869141"/>
      </g>
     </g>
    </g>
    <g id="xtick_7">
     <g id="line2d_7">
      <g>
       <use xlink:href="#mb3d6ab04ef" x="313.489134" y="307.584" style="stroke: #000000; stroke-width: 0.8"/>
      </g>
     </g>
     <g id="text_7">
      <!-- 1500 -->
      <g transform="translate(300.764134 322.182437)scale(0.1 -0.1)">
       <use xlink:href="#DejaVuSans-31"/>
       <use xlink:href="#DejaVuSans-35" x="63.623047"/>
       <use xlink:href="#DejaVuSans-30" x="127.246094"/>
       <use xlink:href="#DejaVuSans-30" x="190.869141"/>
      </g>
     </g>
    </g>
    <g id="xtick_8">
     <g id="line2d_8">
      <g>
       <use xlink:href="#mb3d6ab04ef" x="353.431868" y="307.584" style="stroke: #000000; stroke-width: 0.8"/>
      </g>
     </g>
     <g id="text_8">
      <!-- 1750 -->
      <g transform="translate(340.706868 322.182437)scale(0.1 -0.1)">
       <use xlink:href="#DejaVuSans-31"/>
       <use xlink:href="#DejaVuSans-37" x="63.623047"/>
       <use xlink:href="#DejaVuSans-35" x="127.246094"/>
       <use xlink:href="#DejaVuSans-30" x="190.869141"/>
      </g>
     </g>
    </g>
    <g id="xtick_9">
     <g id="line2d_9">
      <g>
       <use xlink:href="#mb3d6ab04ef" x="393.374603" y="307.584" style="stroke: #000000; stroke-width: 0.8"/>
      </g>
     </g>
     <g id="text_9">
      <!-- 2000 -->
      <g transform="translate(380.649603 322.182437)scale(0.1 -0.1)">
       <use xlink:href="#DejaVuSans-32"/>
       <use xlink:href="#DejaVuSans-30" x="63.623047"/>
       <use xlink:href="#DejaVuSans-30" x="127.246094"/>
       <use xlink:href="#DejaVuSans-30" x="190.869141"/>
      </g>
     </g>
    </g>
    <g id="text_10">
     <!-- num swaps -->
     <g transform="translate(207.826406 335.860562)scale(0.1 -0.1)">
      <defs>
       <path id="DejaVuSans-6e" d="M 3513 2113 
L 3513 0 
L 2938 0 
L 2938 2094 
Q 2938 2591 2744 2837 
Q 2550 3084 2163 3084 
Q 1697 3084 1428 2787 
Q 1159 2491 1159 1978 
L 1159 0 
L 581 0 
L 581 3500 
L 1159 3500 
L 1159 2956 
Q 1366 3272 1645 3428 
Q 1925 3584 2291 3584 
Q 2894 3584 3203 3211 
Q 3513 2838 3513 2113 
z
" transform="scale(0.015625)"/>
       <path id="DejaVuSans-75" d="M 544 1381 
L 544 3500 
L 1119 3500 
L 1119 1403 
Q 1119 906 1312 657 
Q 1506 409 1894 409 
Q 2359 409 2629 706 
Q 2900 1003 2900 1516 
L 2900 3500 
L 3475 3500 
L 3475 0 
L 2900 0 
L 2900 538 
Q 2691 219 2414 64 
Q 2138 -91 1772 -91 
Q 1169 -91 856 284 
Q 544 659 544 1381 
z
M 1991 3584 
L 1991 3584 
z
" transform="scale(0.015625)"/>
       <path id="DejaVuSans-6d" d="M 3328 2828 
Q 3544 3216 3844 3400 
Q 4144 3584 4550 3584 
Q 5097 3584 5394 3201 
Q 5691 2819 5691 2113 
L 5691 0 
L 5113 0 
L 5113 2094 
Q 5113 2597 4934 2840 
Q 4756 3084 4391 3084 
Q 3944 3084 3684 2787 
Q 3425 2491 3425 1978 
L 3425 0 
L 2847 0 
L 2847 2094 
Q 2847 2600 2669 2842 
Q 2491 3084 2119 3084 
Q 1678 3084 1418 2786 
Q 1159 2488 1159 1978 
L 1159 0 
L 581 0 
L 581 3500 
L 1159 3500 
L 1159 2956 
Q 1356 3278 1631 3431 
Q 1906 3584 2284 3584 
Q 2666 3584 2933 3390 
Q 3200 3197 3328 2828 
z
" transform="scale(0.015625)"/>
       <path id="DejaVuSans-20" transform="scale(0.015625)"/>
       <path id="DejaVuSans-73" d="M 2834 3397 
L 2834 2853 
Q 2591 2978 2328 3040 
Q 2066 3103 1784 3103 
Q 1356 3103 1142 2972 
Q 928 2841 928 2578 
Q 928 2378 1081 2264 
Q 1234 2150 1697 2047 
L 1894 2003 
Q 2506 1872 2764 1633 
Q 3022 1394 3022 966 
Q 3022 478 2636 193 
Q 2250 -91 1575 -91 
Q 1294 -91 989 -36 
Q 684 19 347 128 
L 347 722 
Q 666 556 975 473 
Q 1284 391 1588 391 
Q 1994 391 2212 530 
Q 2431 669 2431 922 
Q 2431 1156 2273 1281 
Q 2116 1406 1581 1522 
L 1381 1569 
Q 847 1681 609 1914 
Q 372 2147 372 2553 
Q 372 3047 722 3315 
Q 1072 3584 1716 3584 
Q 2034 3584 2315 3537 
Q 2597 3491 2834 3397 
z
" transform="scale(0.015625)"/>
       <path id="DejaVuSans-77" d="M 269 3500 
L 844 3500 
L 1563 769 
L 2278 3500 
L 2956 3500 
L 3675 769 
L 4391 3500 
L 4966 3500 
L 4050 0 
L 3372 0 
L 2619 2869 
L 1863 0 
L 1184 0 
L 269 3500 
z
" transform="scale(0.015625)"/>
       <path id="DejaVuSans-61" d="M 2194 1759 
Q 1497 1759 1228 1600 
Q 959 1441 959 1056 
Q 959 750 1161 570 
Q 1363 391 1709 391 
Q 2188 391 2477 730 
Q 2766 1069 2766 1631 
L 2766 1759 
L 2194 1759 
z
M 3341 1997 
L 3341 0 
L 2766 0 
L 2766 531 
Q 2569 213 2275 61 
Q 1981 -91 1556 -91 
Q 1019 -91 701 211 
Q 384 513 384 1019 
Q 384 1609 779 1909 
Q 1175 2209 1959 2209 
L 2766 2209 
L 2766 2266 
Q 2766 2663 2505 2880 
Q 2244 3097 1772 3097 
Q 1472 3097 1187 3025 
Q 903 2953 641 2809 
L 641 3341 
Q 956 3463 1253 3523 
Q 1550 3584 1831 3584 
Q 2591 3584 2966 3190 
Q 3341 2797 3341 1997 
z
" transform="scale(0.015625)"/>
       <path id="DejaVuSans-70" d="M 1159 525 
L 1159 -1331 
L 581 -1331 
L 581 3500 
L 1159 3500 
L 1159 2969 
Q 1341 3281 1617 3432 
Q 1894 3584 2278 3584 
Q 2916 3584 3314 3078 
Q 3713 2572 3713 1747 
Q 3713 922 3314 415 
Q 2916 -91 2278 -91 
Q 1894 -91 1617 61 
Q 1341 213 1159 525 
z
M 3116 1747 
Q 3116 2381 2855 2742 
Q 2594 3103 2138 3103 
Q 1681 3103 1420 2742 
Q 1159 2381 1159 1747 
Q 1159 1113 1420 752 
Q 1681 391 2138 391 
Q 2594 391 2855 752 
Q 3116 1113 3116 1747 
z
" transform="scale(0.015625)"/>
      </defs>
      <use xlink:href="#DejaVuSans-6e"/>
      <use xlink:href="#DejaVuSans-75" x="63.378906"/>
      <use xlink:href="#DejaVuSans-6d" x="126.757812"/>
      <use xlink:href="#DejaVuSans-20" x="224.169922"/>
      <use xlink:href="#DejaVuSans-73" x="255.957031"/>
      <use xlink:href="#DejaVuSans-77" x="308.056641"/>
      <use xlink:href="#DejaVuSans-61" x="389.84375"/>
      <use xlink:href="#DejaVuSans-70" x="451.123047"/>
      <use xlink:href="#DejaVuSans-73" x="514.599609"/>
     </g>
    </g>
   </g>
   <g id="matplotlib.axis_2">
    <g id="ytick_1">
     <g id="line2d_10">
      <defs>
       <path id="m60cf1ea5c6" d="M 0 0 
L -3.5 0 
" style="stroke: #000000; stroke-width: 0.8"/>
      </defs>
      <g>
       <use xlink:href="#m60cf1ea5c6" x="57.6" y="254.184585" style="stroke: #000000; stroke-width: 0.8"/>
      </g>
     </g>
     <g id="text_11">
      <!-- 420 -->
      <g transform="translate(31.5125 257.983804)scale(0.1 -0.1)">
       <defs>
        <path id="DejaVuSans-34" d="M 2419 4116 
L 825 1625 
L 2419 1625 
L 2419 4116 
z
M 2253 4666 
L 3047 4666 
L 3047 1625 
L 3713 1625 
L 3713 1100 
L 3047 1100 
L 3047 0 
L 2419 0 
L 2419 1100 
L 313 1100 
L 313 1709 
L 2253 4666 
z
" transform="scale(0.015625)"/>
       </defs>
       <use xlink:href="#DejaVuSans-34"/>
       <use xlink:href="#DejaVuSans-32" x="63.623047"/>
       <use xlink:href="#DejaVuSans-30" x="127.246094"/>
      </g>
     </g>
    </g>
    <g id="ytick_2">
     <g id="line2d_11">
      <g>
       <use xlink:href="#m60cf1ea5c6" x="57.6" y="195.179707" style="stroke: #000000; stroke-width: 0.8"/>
      </g>
     </g>
     <g id="text_12">
      <!-- 440 -->
      <g transform="translate(31.5125 198.978926)scale(0.1 -0.1)">
       <use xlink:href="#DejaVuSans-34"/>
       <use xlink:href="#DejaVuSans-34" x="63.623047"/>
       <use xlink:href="#DejaVuSans-30" x="127.246094"/>
      </g>
     </g>
    </g>
    <g id="ytick_3">
     <g id="line2d_12">
      <g>
       <use xlink:href="#m60cf1ea5c6" x="57.6" y="136.174829" style="stroke: #000000; stroke-width: 0.8"/>
      </g>
     </g>
     <g id="text_13">
      <!-- 460 -->
      <g transform="translate(31.5125 139.974048)scale(0.1 -0.1)">
       <defs>
        <path id="DejaVuSans-36" d="M 2113 2584 
Q 1688 2584 1439 2293 
Q 1191 2003 1191 1497 
Q 1191 994 1439 701 
Q 1688 409 2113 409 
Q 2538 409 2786 701 
Q 3034 994 3034 1497 
Q 3034 2003 2786 2293 
Q 2538 2584 2113 2584 
z
M 3366 4563 
L 3366 3988 
Q 3128 4100 2886 4159 
Q 2644 4219 2406 4219 
Q 1781 4219 1451 3797 
Q 1122 3375 1075 2522 
Q 1259 2794 1537 2939 
Q 1816 3084 2150 3084 
Q 2853 3084 3261 2657 
Q 3669 2231 3669 1497 
Q 3669 778 3244 343 
Q 2819 -91 2113 -91 
Q 1303 -91 875 529 
Q 447 1150 447 2328 
Q 447 3434 972 4092 
Q 1497 4750 2381 4750 
Q 2619 4750 2861 4703 
Q 3103 4656 3366 4563 
z
" transform="scale(0.015625)"/>
       </defs>
       <use xlink:href="#DejaVuSans-34"/>
       <use xlink:href="#DejaVuSans-36" x="63.623047"/>
       <use xlink:href="#DejaVuSans-30" x="127.246094"/>
      </g>
     </g>
    </g>
    <g id="ytick_4">
     <g id="line2d_13">
      <g>
       <use xlink:href="#m60cf1ea5c6" x="57.6" y="77.169951" style="stroke: #000000; stroke-width: 0.8"/>
      </g>
     </g>
     <g id="text_14">
      <!-- 480 -->
      <g transform="translate(31.5125 80.96917)scale(0.1 -0.1)">
       <defs>
        <path id="DejaVuSans-38" d="M 2034 2216 
Q 1584 2216 1326 1975 
Q 1069 1734 1069 1313 
Q 1069 891 1326 650 
Q 1584 409 2034 409 
Q 2484 409 2743 651 
Q 3003 894 3003 1313 
Q 3003 1734 2745 1975 
Q 2488 2216 2034 2216 
z
M 1403 2484 
Q 997 2584 770 2862 
Q 544 3141 544 3541 
Q 544 4100 942 4425 
Q 1341 4750 2034 4750 
Q 2731 4750 3128 4425 
Q 3525 4100 3525 3541 
Q 3525 3141 3298 2862 
Q 3072 2584 2669 2484 
Q 3125 2378 3379 2068 
Q 3634 1759 3634 1313 
Q 3634 634 3220 271 
Q 2806 -91 2034 -91 
Q 1263 -91 848 271 
Q 434 634 434 1313 
Q 434 1759 690 2068 
Q 947 2378 1403 2484 
z
M 1172 3481 
Q 1172 3119 1398 2916 
Q 1625 2713 2034 2713 
Q 2441 2713 2670 2916 
Q 2900 3119 2900 3481 
Q 2900 3844 2670 4047 
Q 2441 4250 2034 4250 
Q 1625 4250 1398 4047 
Q 1172 3844 1172 3481 
z
" transform="scale(0.015625)"/>
       </defs>
       <use xlink:href="#DejaVuSans-34"/>
       <use xlink:href="#DejaVuSans-38" x="63.623047"/>
       <use xlink:href="#DejaVuSans-30" x="127.246094"/>
      </g>
     </g>
    </g>
    <g id="text_15">
     <!-- total cost -->
     <g transform="translate(25.432812 197.923313)rotate(-90)scale(0.1 -0.1)">
      <defs>
       <path id="DejaVuSans-74" d="M 1172 4494 
L 1172 3500 
L 2356 3500 
L 2356 3053 
L 1172 3053 
L 1172 1153 
Q 1172 725 1289 603 
Q 1406 481 1766 481 
L 2356 481 
L 2356 0 
L 1766 0 
Q 1100 0 847 248 
Q 594 497 594 1153 
L 594 3053 
L 172 3053 
L 172 3500 
L 594 3500 
L 594 4494 
L 1172 4494 
z
" transform="scale(0.015625)"/>
       <path id="DejaVuSans-6f" d="M 1959 3097 
Q 1497 3097 1228 2736 
Q 959 2375 959 1747 
Q 959 1119 1226 758 
Q 1494 397 1959 397 
Q 2419 397 2687 759 
Q 2956 1122 2956 1747 
Q 2956 2369 2687 2733 
Q 2419 3097 1959 3097 
z
M 1959 3584 
Q 2709 3584 3137 3096 
Q 3566 2609 3566 1747 
Q 3566 888 3137 398 
Q 2709 -91 1959 -91 
Q 1206 -91 779 398 
Q 353 888 353 1747 
Q 353 2609 779 3096 
Q 1206 3584 1959 3584 
z
" transform="scale(0.015625)"/>
       <path id="DejaVuSans-6c" d="M 603 4863 
L 1178 4863 
L 1178 0 
L 603 0 
L 603 4863 
z
" transform="scale(0.015625)"/>
       <path id="DejaVuSans-63" d="M 3122 3366 
L 3122 2828 
Q 2878 2963 2633 3030 
Q 2388 3097 2138 3097 
Q 1578 3097 1268 2742 
Q 959 2388 959 1747 
Q 959 1106 1268 751 
Q 1578 397 2138 397 
Q 2388 397 2633 464 
Q 2878 531 3122 666 
L 3122 134 
Q 2881 22 2623 -34 
Q 2366 -91 2075 -91 
Q 1284 -91 818 406 
Q 353 903 353 1747 
Q 353 2603 823 3093 
Q 1294 3584 2113 3584 
Q 2378 3584 2631 3529 
Q 2884 3475 3122 3366 
z
" transform="scale(0.015625)"/>
      </defs>
      <use xlink:href="#DejaVuSans-74"/>
      <use xlink:href="#DejaVuSans-6f" x="39.208984"/>
      <use xlink:href="#DejaVuSans-74" x="100.390625"/>
      <use xlink:href="#DejaVuSans-61" x="139.599609"/>
      <use xlink:href="#DejaVuSans-6c" x="200.878906"/>
      <use xlink:href="#DejaVuSans-20" x="228.662109"/>
      <use xlink:href="#DejaVuSans-63" x="260.449219"/>
      <use xlink:href="#DejaVuSans-6f" x="315.429688"/>
      <use xlink:href="#DejaVuSans-73" x="376.611328"/>
      <use xlink:href="#DejaVuSans-74" x="428.710938"/>
     </g>
    </g>
   </g>
   <g id="line2d_14">
    <path d="M 73.832727 233.532878 
L 74.471811 221.731902 
L 74.791353 177.478244 
L 75.110895 177.478244 
L 75.430437 168.627512 
L 75.749979 180.428488 
L 76.06952 177.478244 
L 76.708604 195.179707 
L 77.028146 189.27922 
L 77.66723 189.27922 
L 77.986772 206.980683 
L 78.625855 147.975805 
L 78.945397 171.577756 
L 79.264939 153.876293 
L 79.584481 177.478244 
L 79.904023 180.428488 
L 80.223565 186.328976 
L 80.543107 168.627512 
L 80.862649 174.528 
L 81.18219 189.27922 
L 81.501732 171.577756 
L 81.821274 174.528 
L 82.460358 209.930927 
L 82.7799 204.030439 
L 83.099442 227.63239 
L 83.418984 221.731902 
L 83.738525 221.731902 
L 84.058067 224.682146 
L 84.377609 224.682146 
L 84.697151 227.63239 
L 85.016693 251.234341 
L 85.336235 265.985561 
L 85.655777 263.035317 
L 85.975319 245.333854 
L 86.29486 251.234341 
L 86.933944 209.930927 
L 87.253486 245.333854 
L 87.573028 257.134829 
L 87.89257 277.786537 
L 88.212112 286.637268 
L 88.531654 283.687024 
L 88.851195 274.836293 
L 89.170737 257.134829 
L 89.809821 239.433366 
L 90.129363 251.234341 
L 90.448905 242.38361 
L 90.768447 206.980683 
L 91.087989 209.930927 
L 91.40753 209.930927 
L 91.727072 218.781659 
L 92.046614 221.731902 
L 92.366156 212.881171 
L 92.685698 156.826537 
L 93.00524 165.677268 
L 93.324782 159.77678 
L 93.644324 204.030439 
L 93.963865 192.229463 
L 94.283407 206.980683 
L 94.602949 206.980683 
L 94.922491 218.781659 
L 95.242033 218.781659 
L 95.561575 224.682146 
L 95.881117 201.080195 
L 96.200659 192.229463 
L 96.5202 171.577756 
L 96.839742 162.727024 
L 97.159284 177.478244 
L 97.478826 168.627512 
L 97.798368 183.378732 
L 98.11791 227.63239 
L 98.437452 230.582634 
L 99.076535 186.328976 
L 99.396077 180.428488 
L 99.715619 162.727024 
L 100.035161 174.528 
L 100.354703 171.577756 
L 100.674245 177.478244 
L 100.993787 165.677268 
L 101.313329 159.77678 
L 101.63287 159.77678 
L 101.952412 150.926049 
L 102.271954 153.876293 
L 102.911038 133.224585 
L 103.23058 136.174829 
L 103.550122 127.324098 
L 103.869664 156.826537 
L 104.189205 162.727024 
L 104.508747 153.876293 
L 104.828289 133.224585 
L 105.147831 130.274341 
L 105.467373 133.224585 
L 105.786915 130.274341 
L 106.106457 168.627512 
L 106.425999 168.627512 
L 106.74554 162.727024 
L 107.065082 77.169951 
L 107.384624 124.373854 
L 107.704166 127.324098 
L 108.023708 121.42361 
L 108.34325 97.821659 
L 108.662792 94.871415 
L 108.982334 106.67239 
L 109.301875 106.67239 
L 109.621417 112.572878 
L 109.940959 103.722146 
L 110.580043 68.31922 
L 110.899585 86.020683 
L 111.219127 88.970927 
L 111.538669 71.269463 
L 111.85821 88.970927 
L 112.497294 106.67239 
L 112.816836 97.821659 
L 113.136378 171.577756 
L 113.45592 174.528 
L 113.775462 147.975805 
L 114.095004 153.876293 
L 114.734087 171.577756 
L 115.053629 165.677268 
L 115.692713 165.677268 
L 116.012255 156.826537 
L 116.331797 153.876293 
L 116.651339 59.468488 
L 117.290422 65.368976 
L 117.609964 86.020683 
L 117.929506 91.921171 
L 118.56859 91.921171 
L 118.888132 130.274341 
L 119.207674 145.025561 
L 119.527215 145.025561 
L 119.846757 156.826537 
L 120.166299 145.025561 
L 120.485841 121.42361 
L 121.444467 121.42361 
L 121.764009 133.224585 
L 122.403092 112.572878 
L 122.722634 121.42361 
L 123.042176 118.473366 
L 123.361718 112.572878 
L 123.68126 112.572878 
L 124.000802 130.274341 
L 124.320344 118.473366 
L 124.959427 88.970927 
L 125.278969 97.821659 
L 125.598511 91.921171 
L 125.918053 168.627512 
L 126.237595 168.627512 
L 126.876679 204.030439 
L 127.19622 198.129951 
L 127.515762 201.080195 
L 127.835304 195.179707 
L 128.154846 177.478244 
L 128.474388 171.577756 
L 128.79393 159.77678 
L 129.113472 156.826537 
L 129.433014 159.77678 
L 130.072097 130.274341 
L 130.391639 136.174829 
L 130.711181 162.727024 
L 131.669807 186.328976 
L 131.989349 192.229463 
L 132.30889 189.27922 
L 132.628432 239.433366 
L 132.947974 221.731902 
L 133.267516 215.831415 
L 133.587058 218.781659 
L 133.9066 206.980683 
L 134.226142 215.831415 
L 134.545684 215.831415 
L 134.865225 195.179707 
L 135.184767 209.930927 
L 135.504309 230.582634 
L 135.823851 227.63239 
L 136.143393 218.781659 
L 136.462935 218.781659 
L 136.782477 236.483122 
L 137.102019 180.428488 
L 137.42156 168.627512 
L 137.741102 118.473366 
L 138.060644 112.572878 
L 138.380186 97.821659 
L 139.01927 112.572878 
L 139.338812 130.274341 
L 139.977895 100.771902 
L 140.297437 103.722146 
L 140.616979 97.821659 
L 140.936521 88.970927 
L 141.256063 91.921171 
L 141.575605 88.970927 
L 141.895147 91.921171 
L 142.214689 118.473366 
L 142.53423 130.274341 
L 143.173314 103.722146 
L 143.492856 103.722146 
L 143.812398 106.67239 
L 144.451482 106.67239 
L 145.090565 100.771902 
L 145.410107 103.722146 
L 145.729649 100.771902 
L 146.049191 106.67239 
L 146.368733 121.42361 
L 146.688275 130.274341 
L 147.007817 130.274341 
L 147.327359 118.473366 
L 147.646901 124.373854 
L 147.966442 124.373854 
L 148.285984 118.473366 
L 148.605526 109.622634 
L 148.925068 109.622634 
L 149.24461 112.572878 
L 149.883694 147.975805 
L 150.203236 156.826537 
L 150.522777 127.324098 
L 150.842319 121.42361 
L 151.161861 106.67239 
L 151.481403 142.075317 
L 151.800945 139.125073 
L 152.120487 150.926049 
L 152.440029 153.876293 
L 152.759571 162.727024 
L 153.079112 162.727024 
L 153.398654 150.926049 
L 153.718196 150.926049 
L 154.037738 153.876293 
L 154.35728 153.876293 
L 154.676822 165.677268 
L 154.996364 189.27922 
L 155.315906 162.727024 
L 155.635447 180.428488 
L 155.954989 168.627512 
L 156.274531 150.926049 
L 156.594073 112.572878 
L 157.233157 133.224585 
L 157.552699 139.125073 
L 157.872241 136.174829 
L 158.191782 130.274341 
L 158.511324 130.274341 
L 158.830866 124.373854 
L 159.150408 133.224585 
L 159.46995 109.622634 
L 159.789492 115.523122 
L 160.109034 192.229463 
L 160.428576 212.881171 
L 161.067659 180.428488 
L 161.387201 174.528 
L 161.706743 156.826537 
L 162.026285 150.926049 
L 162.345827 171.577756 
L 162.665369 156.826537 
L 162.984911 162.727024 
L 163.304452 171.577756 
L 163.623994 165.677268 
L 163.943536 153.876293 
L 164.263078 162.727024 
L 164.58262 156.826537 
L 165.221704 136.174829 
L 165.541246 130.274341 
L 166.180329 109.622634 
L 166.499871 106.67239 
L 166.819413 112.572878 
L 167.138955 106.67239 
L 167.458497 109.622634 
L 167.778039 109.622634 
L 168.097581 127.324098 
L 168.417122 121.42361 
L 168.736664 121.42361 
L 169.056206 115.523122 
L 169.375748 121.42361 
L 169.69529 109.622634 
L 170.014832 91.921171 
L 170.334374 91.921171 
L 170.653916 94.871415 
L 170.973457 103.722146 
L 171.292999 124.373854 
L 171.612541 156.826537 
L 171.932083 145.025561 
L 172.251625 145.025561 
L 172.571167 147.975805 
L 172.890709 136.174829 
L 173.210251 136.174829 
L 173.529792 127.324098 
L 173.849334 142.075317 
L 174.168876 130.274341 
L 174.488418 147.975805 
L 174.80796 147.975805 
L 175.127502 153.876293 
L 175.447044 153.876293 
L 175.766586 183.378732 
L 176.086127 183.378732 
L 176.405669 189.27922 
L 176.725211 183.378732 
L 177.044753 183.378732 
L 177.364295 165.677268 
L 177.683837 159.77678 
L 178.003379 168.627512 
L 178.322921 150.926049 
L 178.642462 195.179707 
L 178.962004 192.229463 
L 179.281546 186.328976 
L 179.601088 186.328976 
L 179.92063 183.378732 
L 180.240172 162.727024 
L 180.559714 165.677268 
L 180.879256 156.826537 
L 181.198797 156.826537 
L 181.518339 174.528 
L 181.837881 177.478244 
L 182.157423 165.677268 
L 182.476965 159.77678 
L 182.796507 142.075317 
L 183.116049 150.926049 
L 183.435591 130.274341 
L 183.755132 130.274341 
L 184.394216 109.622634 
L 184.713758 127.324098 
L 185.0333 127.324098 
L 185.352842 130.274341 
L 185.672384 121.42361 
L 185.991926 118.473366 
L 186.311467 121.42361 
L 186.631009 115.523122 
L 186.950551 118.473366 
L 187.270093 124.373854 
L 187.589635 118.473366 
L 187.909177 109.622634 
L 188.228719 91.921171 
L 188.548261 91.921171 
L 188.867802 106.67239 
L 189.187344 74.219707 
L 189.506886 53.568 
L 189.826428 56.518244 
L 190.14597 56.518244 
L 190.465512 86.020683 
L 190.785054 83.070439 
L 191.104596 100.771902 
L 191.424137 100.771902 
L 192.063221 130.274341 
L 192.702305 115.523122 
L 193.021847 112.572878 
L 193.341389 127.324098 
L 193.660931 121.42361 
L 193.980472 142.075317 
L 194.300014 171.577756 
L 194.619556 171.577756 
L 194.939098 212.881171 
L 195.25864 206.980683 
L 195.578182 224.682146 
L 195.897724 212.881171 
L 196.536807 212.881171 
L 196.856349 171.577756 
L 197.175891 174.528 
L 197.495433 186.328976 
L 198.134517 254.184585 
L 198.454059 245.333854 
L 199.093142 263.035317 
L 199.412684 265.985561 
L 199.732226 271.886049 
L 200.051768 265.985561 
L 200.37131 251.234341 
L 200.690852 251.234341 
L 201.010394 233.532878 
L 201.329936 245.333854 
L 201.649477 195.179707 
L 201.969019 209.930927 
L 202.288561 198.129951 
L 202.608103 215.831415 
L 203.247187 227.63239 
L 203.566729 209.930927 
L 203.886271 212.881171 
L 204.205812 204.030439 
L 204.525354 201.080195 
L 204.844896 192.229463 
L 205.164438 230.582634 
L 205.48398 209.930927 
L 206.123064 230.582634 
L 206.442606 265.985561 
L 206.762147 277.786537 
L 207.081689 271.886049 
L 207.401231 268.935805 
L 207.720773 251.234341 
L 208.040315 248.284098 
L 208.359857 265.985561 
L 208.679399 254.184585 
L 209.318482 271.886049 
L 209.957566 251.234341 
L 210.277108 257.134829 
L 210.59665 277.786537 
L 210.916192 283.687024 
L 211.235734 271.886049 
L 211.555276 236.483122 
L 211.874817 221.731902 
L 212.194359 236.483122 
L 212.513901 239.433366 
L 213.152985 233.532878 
L 213.472527 233.532878 
L 213.792069 218.781659 
L 214.750694 248.284098 
L 215.070236 236.483122 
L 215.389778 245.333854 
L 215.70932 239.433366 
L 216.028862 227.63239 
L 216.348404 239.433366 
L 216.667946 224.682146 
L 216.987487 224.682146 
L 217.307029 215.831415 
L 218.265655 248.284098 
L 218.585197 239.433366 
L 218.904739 257.134829 
L 219.224281 242.38361 
L 219.543822 233.532878 
L 219.863364 248.284098 
L 220.502448 260.085073 
L 221.141532 245.333854 
L 221.461074 245.333854 
L 221.780616 233.532878 
L 222.100157 230.582634 
L 222.419699 239.433366 
L 223.058783 245.333854 
L 223.378325 224.682146 
L 223.697867 230.582634 
L 224.017409 233.532878 
L 224.336951 215.831415 
L 224.976034 227.63239 
L 225.295576 245.333854 
L 225.615118 248.284098 
L 225.93466 292.537756 
L 226.254202 265.985561 
L 226.573744 251.234341 
L 226.893286 260.085073 
L 227.532369 218.781659 
L 227.851911 209.930927 
L 228.171453 206.980683 
L 228.810537 218.781659 
L 229.130079 212.881171 
L 229.449621 227.63239 
L 229.769162 227.63239 
L 230.088704 224.682146 
L 230.408246 206.980683 
L 230.727788 204.030439 
L 231.04733 221.731902 
L 231.366872 218.781659 
L 231.686414 204.030439 
L 232.325497 215.831415 
L 232.645039 215.831415 
L 232.964581 195.179707 
L 233.284123 192.229463 
L 233.603665 209.930927 
L 233.923207 212.881171 
L 234.242749 198.129951 
L 234.562291 221.731902 
L 234.881832 198.129951 
L 235.201374 230.582634 
L 235.520916 215.831415 
L 235.840458 159.77678 
L 236.16 165.677268 
L 236.479542 159.77678 
L 236.799084 177.478244 
L 237.438168 171.577756 
L 237.757709 186.328976 
L 238.077251 186.328976 
L 238.396793 168.627512 
L 238.716335 180.428488 
L 239.035877 236.483122 
L 239.355419 242.38361 
L 239.674961 215.831415 
L 239.994503 201.080195 
L 240.314044 221.731902 
L 240.633586 230.582634 
L 240.953128 227.63239 
L 241.27267 204.030439 
L 241.592212 215.831415 
L 241.911754 221.731902 
L 242.231296 221.731902 
L 242.870379 248.284098 
L 243.189921 251.234341 
L 243.829005 245.333854 
L 244.148547 224.682146 
L 244.468089 227.63239 
L 245.746256 183.378732 
L 246.065798 177.478244 
L 246.38534 162.727024 
L 246.704882 162.727024 
L 247.024424 142.075317 
L 247.343966 145.025561 
L 247.663508 142.075317 
L 247.983049 145.025561 
L 248.302591 127.324098 
L 248.622133 130.274341 
L 248.941675 150.926049 
L 249.261217 156.826537 
L 249.580759 153.876293 
L 249.900301 156.826537 
L 250.219843 156.826537 
L 250.539384 147.975805 
L 250.858926 156.826537 
L 251.178468 159.77678 
L 251.49801 147.975805 
L 251.817552 147.975805 
L 252.137094 180.428488 
L 252.456636 195.179707 
L 253.095719 230.582634 
L 253.415261 227.63239 
L 253.734803 186.328976 
L 254.373887 212.881171 
L 254.693429 221.731902 
L 255.012971 221.731902 
L 255.332513 245.333854 
L 255.652054 233.532878 
L 255.971596 236.483122 
L 256.291138 221.731902 
L 256.61068 233.532878 
L 258.208389 192.229463 
L 258.847473 204.030439 
L 259.167015 212.881171 
L 259.486557 201.080195 
L 259.806099 204.030439 
L 260.125641 204.030439 
L 260.445183 257.134829 
L 260.764724 271.886049 
L 261.084266 277.786537 
L 261.403808 274.836293 
L 261.72335 265.985561 
L 262.362434 292.537756 
L 262.681976 295.488 
L 263.001518 295.488 
L 263.321059 150.926049 
L 263.960143 174.528 
L 264.279685 171.577756 
L 264.599227 165.677268 
L 264.918769 162.727024 
L 265.238311 171.577756 
L 265.557853 198.129951 
L 265.877394 177.478244 
L 266.196936 171.577756 
L 266.83602 221.731902 
L 267.475104 245.333854 
L 267.794646 215.831415 
L 268.114188 224.682146 
L 268.433729 254.184585 
L 268.753271 251.234341 
L 269.072813 236.483122 
L 269.392355 236.483122 
L 269.711897 242.38361 
L 270.031439 251.234341 
L 270.350981 265.985561 
L 270.990064 245.333854 
L 271.309606 257.134829 
L 271.629148 260.085073 
L 271.94869 280.73678 
L 272.268232 257.134829 
L 272.587774 263.035317 
L 272.907316 260.085073 
L 273.226858 271.886049 
L 273.546399 254.184585 
L 274.185483 271.886049 
L 274.824567 248.284098 
L 275.144109 268.935805 
L 275.463651 268.935805 
L 275.783193 260.085073 
L 276.102734 230.582634 
L 276.422276 230.582634 
L 276.741818 233.532878 
L 277.06136 233.532878 
L 277.700444 227.63239 
L 278.019986 215.831415 
L 278.339528 227.63239 
L 278.659069 257.134829 
L 278.978611 209.930927 
L 279.298153 198.129951 
L 279.937237 218.781659 
L 280.576321 224.682146 
L 280.895863 260.085073 
L 281.215404 248.284098 
L 281.534946 248.284098 
L 281.854488 233.532878 
L 282.17403 233.532878 
L 282.493572 230.582634 
L 282.813114 242.38361 
L 283.132656 239.433366 
L 283.452198 227.63239 
L 283.771739 245.333854 
L 284.091281 227.63239 
L 284.730365 221.731902 
L 285.369449 236.483122 
L 285.688991 236.483122 
L 286.008533 206.980683 
L 286.328074 221.731902 
L 286.647616 221.731902 
L 286.967158 209.930927 
L 287.2867 209.930927 
L 287.606242 212.881171 
L 287.925784 224.682146 
L 288.245326 224.682146 
L 288.564868 227.63239 
L 289.523493 268.935805 
L 289.843035 274.836293 
L 290.162577 265.985561 
L 290.482119 227.63239 
L 290.801661 224.682146 
L 291.121203 248.284098 
L 291.760286 209.930927 
L 292.079828 209.930927 
L 292.39937 218.781659 
L 292.718912 183.378732 
L 293.038454 186.328976 
L 293.357996 180.428488 
L 293.677538 177.478244 
L 293.997079 183.378732 
L 294.316621 183.378732 
L 294.636163 94.871415 
L 294.955705 88.970927 
L 295.275247 97.821659 
L 295.594789 127.324098 
L 295.914331 130.274341 
L 296.233873 139.125073 
L 296.553414 139.125073 
L 296.872956 145.025561 
L 297.192498 159.77678 
L 297.51204 156.826537 
L 297.831582 162.727024 
L 298.151124 139.125073 
L 298.470666 139.125073 
L 298.790208 183.378732 
L 299.109749 180.428488 
L 299.429291 186.328976 
L 299.748833 195.179707 
L 300.387917 195.179707 
L 301.346543 145.025561 
L 301.666084 159.77678 
L 301.985626 145.025561 
L 302.62471 133.224585 
L 302.944252 124.373854 
L 303.263794 130.274341 
L 303.583336 124.373854 
L 303.902878 106.67239 
L 304.222419 109.622634 
L 304.541961 109.622634 
L 304.861503 112.572878 
L 305.181045 106.67239 
L 305.500587 86.020683 
L 305.820129 74.219707 
L 306.459213 103.722146 
L 306.778754 109.622634 
L 307.098296 142.075317 
L 307.417838 147.975805 
L 307.73738 145.025561 
L 308.376464 150.926049 
L 308.696006 156.826537 
L 309.015548 159.77678 
L 309.335089 121.42361 
L 309.654631 124.373854 
L 309.974173 139.125073 
L 310.613257 139.125073 
L 310.932799 130.274341 
L 311.252341 150.926049 
L 311.571883 159.77678 
L 311.891424 153.876293 
L 312.210966 159.77678 
L 312.530508 156.826537 
L 312.85005 168.627512 
L 313.169592 171.577756 
L 313.489134 159.77678 
L 313.808676 180.428488 
L 314.128218 142.075317 
L 314.447759 142.075317 
L 315.086843 112.572878 
L 315.406385 142.075317 
L 316.365011 142.075317 
L 316.684553 133.224585 
L 317.004094 145.025561 
L 317.323636 136.174829 
L 317.643178 147.975805 
L 318.601804 77.169951 
L 318.921346 65.368976 
L 319.240888 65.368976 
L 319.560429 74.219707 
L 319.879971 165.677268 
L 320.199513 177.478244 
L 320.519055 174.528 
L 320.838597 180.428488 
L 321.158139 165.677268 
L 321.477681 174.528 
L 321.797223 156.826537 
L 322.116764 153.876293 
L 323.07539 153.876293 
L 323.394932 159.77678 
L 323.714474 159.77678 
L 324.034016 145.025561 
L 324.353558 156.826537 
L 324.673099 150.926049 
L 324.992641 136.174829 
L 325.312183 139.125073 
L 325.631725 159.77678 
L 325.951267 165.677268 
L 326.270809 142.075317 
L 326.590351 150.926049 
L 326.909893 130.274341 
L 327.229435 139.125073 
L 327.548976 156.826537 
L 327.868518 147.975805 
L 328.18806 147.975805 
L 328.507602 136.174829 
L 328.827144 156.826537 
L 329.146686 162.727024 
L 329.466228 174.528 
L 330.105311 180.428488 
L 330.424853 192.229463 
L 330.744395 171.577756 
L 331.063937 186.328976 
L 331.383479 189.27922 
L 331.703021 198.129951 
L 332.022563 212.881171 
L 332.661646 212.881171 
L 332.981188 227.63239 
L 333.30073 198.129951 
L 333.939814 204.030439 
L 334.259356 218.781659 
L 334.578898 177.478244 
L 334.89844 186.328976 
L 335.217981 206.980683 
L 335.537523 206.980683 
L 335.857065 198.129951 
L 336.176607 212.881171 
L 336.496149 212.881171 
L 337.454775 239.433366 
L 337.774316 224.682146 
L 338.093858 236.483122 
L 338.4134 227.63239 
L 338.732942 242.38361 
L 339.372026 230.582634 
L 339.691568 221.731902 
L 340.01111 233.532878 
L 340.330651 212.881171 
L 340.650193 209.930927 
L 340.969735 159.77678 
L 341.608819 171.577756 
L 341.928361 156.826537 
L 342.247903 150.926049 
L 342.567445 156.826537 
L 342.886986 139.125073 
L 343.206528 136.174829 
L 343.52607 124.373854 
L 343.845612 124.373854 
L 344.165154 112.572878 
L 344.484696 133.224585 
L 344.804238 139.125073 
L 345.443321 145.025561 
L 345.762863 145.025561 
L 346.082405 150.926049 
L 346.401947 159.77678 
L 346.721489 156.826537 
L 347.041031 139.125073 
L 347.360573 133.224585 
L 347.999656 165.677268 
L 348.319198 171.577756 
L 348.63874 162.727024 
L 348.958282 162.727024 
L 349.277824 168.627512 
L 349.916908 183.378732 
L 350.23645 189.27922 
L 350.555991 198.129951 
L 350.875533 195.179707 
L 351.195075 201.080195 
L 351.514617 201.080195 
L 351.834159 183.378732 
L 352.153701 192.229463 
L 352.473243 192.229463 
L 352.792785 195.179707 
L 353.112326 180.428488 
L 353.431868 174.528 
L 353.75141 183.378732 
L 354.070952 180.428488 
L 354.390494 168.627512 
L 354.710036 171.577756 
L 355.029578 124.373854 
L 355.34912 121.42361 
L 355.668661 145.025561 
L 355.988203 145.025561 
L 356.307745 147.975805 
L 356.627287 183.378732 
L 356.946829 186.328976 
L 357.266371 198.129951 
L 357.585913 168.627512 
L 357.905455 174.528 
L 358.544538 147.975805 
L 358.86408 165.677268 
L 359.503164 153.876293 
L 360.142248 183.378732 
L 360.46179 183.378732 
L 360.781331 186.328976 
L 361.100873 159.77678 
L 361.420415 156.826537 
L 361.739957 177.478244 
L 362.059499 162.727024 
L 362.379041 183.378732 
L 362.698583 180.428488 
L 363.018125 180.428488 
L 363.337666 186.328976 
L 363.657208 156.826537 
L 363.97675 174.528 
L 364.615834 168.627512 
L 364.935376 156.826537 
L 365.254918 156.826537 
L 365.57446 159.77678 
L 365.894001 180.428488 
L 366.213543 174.528 
L 366.533085 133.224585 
L 366.852627 145.025561 
L 367.172169 133.224585 
L 367.491711 145.025561 
L 368.130795 189.27922 
L 368.450336 174.528 
L 368.769878 180.428488 
L 369.08942 171.577756 
L 369.728504 206.980683 
L 370.048046 206.980683 
L 370.367588 215.831415 
L 371.006671 215.831415 
L 371.326213 227.63239 
L 371.645755 224.682146 
L 371.965297 230.582634 
L 372.284839 224.682146 
L 372.923923 201.080195 
L 373.243465 195.179707 
L 373.563006 198.129951 
L 373.882548 221.731902 
L 374.20209 230.582634 
L 374.521632 245.333854 
L 374.841174 236.483122 
L 375.160716 233.532878 
L 375.480258 227.63239 
L 375.7998 245.333854 
L 376.119341 236.483122 
L 376.758425 201.080195 
L 377.077967 192.229463 
L 377.397509 189.27922 
L 377.717051 183.378732 
L 378.036593 180.428488 
L 378.356135 183.378732 
L 378.675676 183.378732 
L 378.995218 189.27922 
L 379.31476 189.27922 
L 379.634302 201.080195 
L 379.953844 204.030439 
L 380.273386 198.129951 
L 380.592928 218.781659 
L 380.91247 206.980683 
L 381.232011 209.930927 
L 381.551553 201.080195 
L 381.871095 186.328976 
L 382.510179 192.229463 
L 382.829721 180.428488 
L 383.149263 180.428488 
L 383.468805 177.478244 
L 383.788346 195.179707 
L 384.107888 183.378732 
L 384.42743 206.980683 
L 384.746972 204.030439 
L 385.066514 204.030439 
L 385.386056 218.781659 
L 386.02514 218.781659 
L 386.344681 224.682146 
L 386.664223 233.532878 
L 386.983765 236.483122 
L 387.303307 224.682146 
L 388.261933 215.831415 
L 388.901016 215.831415 
L 389.220558 230.582634 
L 389.5401 236.483122 
L 389.859642 212.881171 
L 390.179184 212.881171 
L 390.498726 221.731902 
L 391.457351 230.582634 
L 391.776893 215.831415 
L 392.415977 201.080195 
L 392.735519 206.980683 
L 393.055061 201.080195 
L 393.374603 180.428488 
L 393.694145 177.478244 
L 394.013686 177.478244 
L 394.333228 192.229463 
L 394.65277 183.378732 
L 394.972312 150.926049 
L 395.291854 162.727024 
L 395.611396 165.677268 
L 395.930938 174.528 
L 396.25048 171.577756 
L 396.570021 195.179707 
L 396.889563 204.030439 
L 397.209105 201.080195 
L 397.528647 195.179707 
L 397.848189 218.781659 
L 398.167731 224.682146 
L 398.487273 227.63239 
L 398.487273 227.63239 
" clip-path="url(#pe0543b7314)" style="fill: none; stroke: #1f77b4; stroke-width: 1.5; stroke-linecap: square"/>
   </g>
   <g id="patch_3">
    <path d="M 57.6 307.584 
L 57.6 41.472 
" style="fill: none; stroke: #000000; stroke-width: 0.8; stroke-linejoin: miter; stroke-linecap: square"/>
   </g>
   <g id="patch_4">
    <path d="M 414.72 307.584 
L 414.72 41.472 
" style="fill: none; stroke: #000000; stroke-width: 0.8; stroke-linejoin: miter; stroke-linecap: square"/>
   </g>
   <g id="patch_5">
    <path d="M 57.6 307.584 
L 414.72 307.584 
" style="fill: none; stroke: #000000; stroke-width: 0.8; stroke-linejoin: miter; stroke-linecap: square"/>
   </g>
   <g id="patch_6">
    <path d="M 57.6 41.472 
L 414.72 41.472 
" style="fill: none; stroke: #000000; stroke-width: 0.8; stroke-linejoin: miter; stroke-linecap: square"/>
   </g>
   <g id="text_16">
    <!-- Simulated Anealling Cost -->
    <g transform="translate(160.8 35.472)scale(0.12 -0.12)">
     <defs>
      <path id="DejaVuSans-53" d="M 3425 4513 
L 3425 3897 
Q 3066 4069 2747 4153 
Q 2428 4238 2131 4238 
Q 1616 4238 1336 4038 
Q 1056 3838 1056 3469 
Q 1056 3159 1242 3001 
Q 1428 2844 1947 2747 
L 2328 2669 
Q 3034 2534 3370 2195 
Q 3706 1856 3706 1288 
Q 3706 609 3251 259 
Q 2797 -91 1919 -91 
Q 1588 -91 1214 -16 
Q 841 59 441 206 
L 441 856 
Q 825 641 1194 531 
Q 1563 422 1919 422 
Q 2459 422 2753 634 
Q 3047 847 3047 1241 
Q 3047 1584 2836 1778 
Q 2625 1972 2144 2069 
L 1759 2144 
Q 1053 2284 737 2584 
Q 422 2884 422 3419 
Q 422 4038 858 4394 
Q 1294 4750 2059 4750 
Q 2388 4750 2728 4690 
Q 3069 4631 3425 4513 
z
" transform="scale(0.015625)"/>
      <path id="DejaVuSans-69" d="M 603 3500 
L 1178 3500 
L 1178 0 
L 603 0 
L 603 3500 
z
M 603 4863 
L 1178 4863 
L 1178 4134 
L 603 4134 
L 603 4863 
z
" transform="scale(0.015625)"/>
      <path id="DejaVuSans-65" d="M 3597 1894 
L 3597 1613 
L 953 1613 
Q 991 1019 1311 708 
Q 1631 397 2203 397 
Q 2534 397 2845 478 
Q 3156 559 3463 722 
L 3463 178 
Q 3153 47 2828 -22 
Q 2503 -91 2169 -91 
Q 1331 -91 842 396 
Q 353 884 353 1716 
Q 353 2575 817 3079 
Q 1281 3584 2069 3584 
Q 2775 3584 3186 3129 
Q 3597 2675 3597 1894 
z
M 3022 2063 
Q 3016 2534 2758 2815 
Q 2500 3097 2075 3097 
Q 1594 3097 1305 2825 
Q 1016 2553 972 2059 
L 3022 2063 
z
" transform="scale(0.015625)"/>
      <path id="DejaVuSans-64" d="M 2906 2969 
L 2906 4863 
L 3481 4863 
L 3481 0 
L 2906 0 
L 2906 525 
Q 2725 213 2448 61 
Q 2172 -91 1784 -91 
Q 1150 -91 751 415 
Q 353 922 353 1747 
Q 353 2572 751 3078 
Q 1150 3584 1784 3584 
Q 2172 3584 2448 3432 
Q 2725 3281 2906 2969 
z
M 947 1747 
Q 947 1113 1208 752 
Q 1469 391 1925 391 
Q 2381 391 2643 752 
Q 2906 1113 2906 1747 
Q 2906 2381 2643 2742 
Q 2381 3103 1925 3103 
Q 1469 3103 1208 2742 
Q 947 2381 947 1747 
z
" transform="scale(0.015625)"/>
      <path id="DejaVuSans-41" d="M 2188 4044 
L 1331 1722 
L 3047 1722 
L 2188 4044 
z
M 1831 4666 
L 2547 4666 
L 4325 0 
L 3669 0 
L 3244 1197 
L 1141 1197 
L 716 0 
L 50 0 
L 1831 4666 
z
" transform="scale(0.015625)"/>
      <path id="DejaVuSans-67" d="M 2906 1791 
Q 2906 2416 2648 2759 
Q 2391 3103 1925 3103 
Q 1463 3103 1205 2759 
Q 947 2416 947 1791 
Q 947 1169 1205 825 
Q 1463 481 1925 481 
Q 2391 481 2648 825 
Q 2906 1169 2906 1791 
z
M 3481 434 
Q 3481 -459 3084 -895 
Q 2688 -1331 1869 -1331 
Q 1566 -1331 1297 -1286 
Q 1028 -1241 775 -1147 
L 775 -588 
Q 1028 -725 1275 -790 
Q 1522 -856 1778 -856 
Q 2344 -856 2625 -561 
Q 2906 -266 2906 331 
L 2906 616 
Q 2728 306 2450 153 
Q 2172 0 1784 0 
Q 1141 0 747 490 
Q 353 981 353 1791 
Q 353 2603 747 3093 
Q 1141 3584 1784 3584 
Q 2172 3584 2450 3431 
Q 2728 3278 2906 2969 
L 2906 3500 
L 3481 3500 
L 3481 434 
z
" transform="scale(0.015625)"/>
      <path id="DejaVuSans-43" d="M 4122 4306 
L 4122 3641 
Q 3803 3938 3442 4084 
Q 3081 4231 2675 4231 
Q 1875 4231 1450 3742 
Q 1025 3253 1025 2328 
Q 1025 1406 1450 917 
Q 1875 428 2675 428 
Q 3081 428 3442 575 
Q 3803 722 4122 1019 
L 4122 359 
Q 3791 134 3420 21 
Q 3050 -91 2638 -91 
Q 1578 -91 968 557 
Q 359 1206 359 2328 
Q 359 3453 968 4101 
Q 1578 4750 2638 4750 
Q 3056 4750 3426 4639 
Q 3797 4528 4122 4306 
z
" transform="scale(0.015625)"/>
     </defs>
     <use xlink:href="#DejaVuSans-53"/>
     <use xlink:href="#DejaVuSans-69" x="63.476562"/>
     <use xlink:href="#DejaVuSans-6d" x="91.259766"/>
     <use xlink:href="#DejaVuSans-75" x="188.671875"/>
     <use xlink:href="#DejaVuSans-6c" x="252.050781"/>
     <use xlink:href="#DejaVuSans-61" x="279.833984"/>
     <use xlink:href="#DejaVuSans-74" x="341.113281"/>
     <use xlink:href="#DejaVuSans-65" x="380.322266"/>
     <use xlink:href="#DejaVuSans-64" x="441.845703"/>
     <use xlink:href="#DejaVuSans-20" x="505.322266"/>
     <use xlink:href="#DejaVuSans-41" x="537.109375"/>
     <use xlink:href="#DejaVuSans-6e" x="605.517578"/>
     <use xlink:href="#DejaVuSans-65" x="668.896484"/>
     <use xlink:href="#DejaVuSans-61" x="730.419922"/>
     <use xlink:href="#DejaVuSans-6c" x="791.699219"/>
     <use xlink:href="#DejaVuSans-6c" x="819.482422"/>
     <use xlink:href="#DejaVuSans-69" x="847.265625"/>
     <use xlink:href="#DejaVuSans-6e" x="875.048828"/>
     <use xlink:href="#DejaVuSans-67" x="938.427734"/>
     <use xlink:href="#DejaVuSans-20" x="1001.904297"/>
     <use xlink:href="#DejaVuSans-43" x="1033.691406"/>
     <use xlink:href="#DejaVuSans-6f" x="1103.515625"/>
     <use xlink:href="#DejaVuSans-73" x="1164.697266"/>
     <use xlink:href="#DejaVuSans-74" x="1216.796875"/>
    </g>
   </g>
  </g>
 </g>
 <defs>
  <clipPath id="pe0543b7314">
   <rect x="57.6" y="41.472" width="357.12" height="266.112"/>
  </clipPath>
 </defs>
</svg>
