<?xml version="1.0" encoding="utf-8" standalone="no"?>
<!DOCTYPE svg PUBLIC "-//W3C//DTD SVG 1.1//EN"
  "http://www.w3.org/Graphics/SVG/1.1/DTD/svg11.dtd">
<svg xmlns:xlink="http://www.w3.org/1999/xlink" width="460.8pt" height="345.6pt" viewBox="0 0 460.8 345.6" xmlns="http://www.w3.org/2000/svg" version="1.1">
 <metadata>
  <rdf:RDF xmlns:dc="http://purl.org/dc/elements/1.1/" xmlns:cc="http://creativecommons.org/ns#" xmlns:rdf="http://www.w3.org/1999/02/22-rdf-syntax-ns#">
   <cc:Work>
    <dc:type rdf:resource="http://purl.org/dc/dcmitype/StillImage"/>
    <dc:date>2022-06-01T08:05:11.834015</dc:date>
    <dc:format>image/svg+xml</dc:format>
    <dc:creator>
     <cc:Agent>
      <dc:title>Matplotlib v3.5.1, https://matplotlib.org/</dc:title>
     </cc:Agent>
    </dc:creator>
   </cc:Work>
  </rdf:RDF>
 </metadata>
 <defs>
  <style type="text/css">*{stroke-linejoin: round; stroke-linecap: butt}</style>
 </defs>
 <g id="figure_1">
  <g id="patch_1">
   <path d="M 0 345.6 
L 460.8 345.6 
L 460.8 0 
L 0 0 
z
" style="fill: #ffffff"/>
  </g>
  <g id="axes_1">
   <g id="patch_2">
    <path d="M 57.6 307.584 
L 414.72 307.584 
L 414.72 41.472 
L 57.6 41.472 
z
" style="fill: #ffffff"/>
   </g>
   <g id="matplotlib.axis_1">
    <g id="xtick_1">
     <g id="line2d_1">
      <defs>
       <path id="mcfc01da8c5" d="M 0 0 
L 0 3.5 
" style="stroke: #000000; stroke-width: 0.8"/>
      </defs>
      <g>
       <use xlink:href="#mcfc01da8c5" x="73.832727" y="307.584" style="stroke: #000000; stroke-width: 0.8"/>
      </g>
     </g>
     <g id="text_1">
      <!-- 0 -->
      <g transform="translate(70.651477 322.182437)scale(0.1 -0.1)">
       <defs>
        <path id="DejaVuSans-30" d="M 2034 4250 
Q 1547 4250 1301 3770 
Q 1056 3291 1056 2328 
Q 1056 1369 1301 889 
Q 1547 409 2034 409 
Q 2525 409 2770 889 
Q 3016 1369 3016 2328 
Q 3016 3291 2770 3770 
Q 2525 4250 2034 4250 
z
M 2034 4750 
Q 2819 4750 3233 4129 
Q 3647 3509 3647 2328 
Q 3647 1150 3233 529 
Q 2819 -91 2034 -91 
Q 1250 -91 836 529 
Q 422 1150 422 2328 
Q 422 3509 836 4129 
Q 1250 4750 2034 4750 
z
" transform="scale(0.015625)"/>
       </defs>
       <use xlink:href="#DejaVuSans-30"/>
      </g>
     </g>
    </g>
    <g id="xtick_2">
     <g id="line2d_2">
      <g>
       <use xlink:href="#mcfc01da8c5" x="116.061466" y="307.584" style="stroke: #000000; stroke-width: 0.8"/>
      </g>
     </g>
     <g id="text_2">
      <!-- 250 -->
      <g transform="translate(106.517716 322.182437)scale(0.1 -0.1)">
       <defs>
        <path id="DejaVuSans-32" d="M 1228 531 
L 3431 531 
L 3431 0 
L 469 0 
L 469 531 
Q 828 903 1448 1529 
Q 2069 2156 2228 2338 
Q 2531 2678 2651 2914 
Q 2772 3150 2772 3378 
Q 2772 3750 2511 3984 
Q 2250 4219 1831 4219 
Q 1534 4219 1204 4116 
Q 875 4013 500 3803 
L 500 4441 
Q 881 4594 1212 4672 
Q 1544 4750 1819 4750 
Q 2544 4750 2975 4387 
Q 3406 4025 3406 3419 
Q 3406 3131 3298 2873 
Q 3191 2616 2906 2266 
Q 2828 2175 2409 1742 
Q 1991 1309 1228 531 
z
" transform="scale(0.015625)"/>
        <path id="DejaVuSans-35" d="M 691 4666 
L 3169 4666 
L 3169 4134 
L 1269 4134 
L 1269 2991 
Q 1406 3038 1543 3061 
Q 1681 3084 1819 3084 
Q 2600 3084 3056 2656 
Q 3513 2228 3513 1497 
Q 3513 744 3044 326 
Q 2575 -91 1722 -91 
Q 1428 -91 1123 -41 
Q 819 9 494 109 
L 494 744 
Q 775 591 1075 516 
Q 1375 441 1709 441 
Q 2250 441 2565 725 
Q 2881 1009 2881 1497 
Q 2881 1984 2565 2268 
Q 2250 2553 1709 2553 
Q 1456 2553 1204 2497 
Q 953 2441 691 2322 
L 691 4666 
z
" transform="scale(0.015625)"/>
       </defs>
       <use xlink:href="#DejaVuSans-32"/>
       <use xlink:href="#DejaVuSans-35" x="63.623047"/>
       <use xlink:href="#DejaVuSans-30" x="127.246094"/>
      </g>
     </g>
    </g>
    <g id="xtick_3">
     <g id="line2d_3">
      <g>
       <use xlink:href="#mcfc01da8c5" x="158.290205" y="307.584" style="stroke: #000000; stroke-width: 0.8"/>
      </g>
     </g>
     <g id="text_3">
      <!-- 500 -->
      <g transform="translate(148.746455 322.182437)scale(0.1 -0.1)">
       <use xlink:href="#DejaVuSans-35"/>
       <use xlink:href="#DejaVuSans-30" x="63.623047"/>
       <use xlink:href="#DejaVuSans-30" x="127.246094"/>
      </g>
     </g>
    </g>
    <g id="xtick_4">
     <g id="line2d_4">
      <g>
       <use xlink:href="#mcfc01da8c5" x="200.518944" y="307.584" style="stroke: #000000; stroke-width: 0.8"/>
      </g>
     </g>
     <g id="text_4">
      <!-- 750 -->
      <g transform="translate(190.975194 322.182437)scale(0.1 -0.1)">
       <defs>
        <path id="DejaVuSans-37" d="M 525 4666 
L 3525 4666 
L 3525 4397 
L 1831 0 
L 1172 0 
L 2766 4134 
L 525 4134 
L 525 4666 
z
" transform="scale(0.015625)"/>
       </defs>
       <use xlink:href="#DejaVuSans-37"/>
       <use xlink:href="#DejaVuSans-35" x="63.623047"/>
       <use xlink:href="#DejaVuSans-30" x="127.246094"/>
      </g>
     </g>
    </g>
    <g id="xtick_5">
     <g id="line2d_5">
      <g>
       <use xlink:href="#mcfc01da8c5" x="242.747683" y="307.584" style="stroke: #000000; stroke-width: 0.8"/>
      </g>
     </g>
     <g id="text_5">
      <!-- 1000 -->
      <g transform="translate(230.022683 322.182437)scale(0.1 -0.1)">
       <defs>
        <path id="DejaVuSans-31" d="M 794 531 
L 1825 531 
L 1825 4091 
L 703 3866 
L 703 4441 
L 1819 4666 
L 2450 4666 
L 2450 531 
L 3481 531 
L 3481 0 
L 794 0 
L 794 531 
z
" transform="scale(0.015625)"/>
       </defs>
       <use xlink:href="#DejaVuSans-31"/>
       <use xlink:href="#DejaVuSans-30" x="63.623047"/>
       <use xlink:href="#DejaVuSans-30" x="127.246094"/>
       <use xlink:href="#DejaVuSans-30" x="190.869141"/>
      </g>
     </g>
    </g>
    <g id="xtick_6">
     <g id="line2d_6">
      <g>
       <use xlink:href="#mcfc01da8c5" x="284.976422" y="307.584" style="stroke: #000000; stroke-width: 0.8"/>
      </g>
     </g>
     <g id="text_6">
      <!-- 1250 -->
      <g transform="translate(272.251422 322.182437)scale(0.1 -0.1)">
       <use xlink:href="#DejaVuSans-31"/>
       <use xlink:href="#DejaVuSans-32" x="63.623047"/>
       <use xlink:href="#DejaVuSans-35" x="127.246094"/>
       <use xlink:href="#DejaVuSans-30" x="190.869141"/>
      </g>
     </g>
    </g>
    <g id="xtick_7">
     <g id="line2d_7">
      <g>
       <use xlink:href="#mcfc01da8c5" x="327.205161" y="307.584" style="stroke: #000000; stroke-width: 0.8"/>
      </g>
     </g>
     <g id="text_7">
      <!-- 1500 -->
      <g transform="translate(314.480161 322.182437)scale(0.1 -0.1)">
       <use xlink:href="#DejaVuSans-31"/>
       <use xlink:href="#DejaVuSans-35" x="63.623047"/>
       <use xlink:href="#DejaVuSans-30" x="127.246094"/>
       <use xlink:href="#DejaVuSans-30" x="190.869141"/>
      </g>
     </g>
    </g>
    <g id="xtick_8">
     <g id="line2d_8">
      <g>
       <use xlink:href="#mcfc01da8c5" x="369.4339" y="307.584" style="stroke: #000000; stroke-width: 0.8"/>
      </g>
     </g>
     <g id="text_8">
      <!-- 1750 -->
      <g transform="translate(356.7089 322.182437)scale(0.1 -0.1)">
       <use xlink:href="#DejaVuSans-31"/>
       <use xlink:href="#DejaVuSans-37" x="63.623047"/>
       <use xlink:href="#DejaVuSans-35" x="127.246094"/>
       <use xlink:href="#DejaVuSans-30" x="190.869141"/>
      </g>
     </g>
    </g>
    <g id="xtick_9">
     <g id="line2d_9">
      <g>
       <use xlink:href="#mcfc01da8c5" x="411.662639" y="307.584" style="stroke: #000000; stroke-width: 0.8"/>
      </g>
     </g>
     <g id="text_9">
      <!-- 2000 -->
      <g transform="translate(398.937639 322.182437)scale(0.1 -0.1)">
       <use xlink:href="#DejaVuSans-32"/>
       <use xlink:href="#DejaVuSans-30" x="63.623047"/>
       <use xlink:href="#DejaVuSans-30" x="127.246094"/>
       <use xlink:href="#DejaVuSans-30" x="190.869141"/>
      </g>
     </g>
    </g>
    <g id="text_10">
     <!-- num swaps -->
     <g transform="translate(207.826406 335.860562)scale(0.1 -0.1)">
      <defs>
       <path id="DejaVuSans-6e" d="M 3513 2113 
L 3513 0 
L 2938 0 
L 2938 2094 
Q 2938 2591 2744 2837 
Q 2550 3084 2163 3084 
Q 1697 3084 1428 2787 
Q 1159 2491 1159 1978 
L 1159 0 
L 581 0 
L 581 3500 
L 1159 3500 
L 1159 2956 
Q 1366 3272 1645 3428 
Q 1925 3584 2291 3584 
Q 2894 3584 3203 3211 
Q 3513 2838 3513 2113 
z
" transform="scale(0.015625)"/>
       <path id="DejaVuSans-75" d="M 544 1381 
L 544 3500 
L 1119 3500 
L 1119 1403 
Q 1119 906 1312 657 
Q 1506 409 1894 409 
Q 2359 409 2629 706 
Q 2900 1003 2900 1516 
L 2900 3500 
L 3475 3500 
L 3475 0 
L 2900 0 
L 2900 538 
Q 2691 219 2414 64 
Q 2138 -91 1772 -91 
Q 1169 -91 856 284 
Q 544 659 544 1381 
z
M 1991 3584 
L 1991 3584 
z
" transform="scale(0.015625)"/>
       <path id="DejaVuSans-6d" d="M 3328 2828 
Q 3544 3216 3844 3400 
Q 4144 3584 4550 3584 
Q 5097 3584 5394 3201 
Q 5691 2819 5691 2113 
L 5691 0 
L 5113 0 
L 5113 2094 
Q 5113 2597 4934 2840 
Q 4756 3084 4391 3084 
Q 3944 3084 3684 2787 
Q 3425 2491 3425 1978 
L 3425 0 
L 2847 0 
L 2847 2094 
Q 2847 2600 2669 2842 
Q 2491 3084 2119 3084 
Q 1678 3084 1418 2786 
Q 1159 2488 1159 1978 
L 1159 0 
L 581 0 
L 581 3500 
L 1159 3500 
L 1159 2956 
Q 1356 3278 1631 3431 
Q 1906 3584 2284 3584 
Q 2666 3584 2933 3390 
Q 3200 3197 3328 2828 
z
" transform="scale(0.015625)"/>
       <path id="DejaVuSans-20" transform="scale(0.015625)"/>
       <path id="DejaVuSans-73" d="M 2834 3397 
L 2834 2853 
Q 2591 2978 2328 3040 
Q 2066 3103 1784 3103 
Q 1356 3103 1142 2972 
Q 928 2841 928 2578 
Q 928 2378 1081 2264 
Q 1234 2150 1697 2047 
L 1894 2003 
Q 2506 1872 2764 1633 
Q 3022 1394 3022 966 
Q 3022 478 2636 193 
Q 2250 -91 1575 -91 
Q 1294 -91 989 -36 
Q 684 19 347 128 
L 347 722 
Q 666 556 975 473 
Q 1284 391 1588 391 
Q 1994 391 2212 530 
Q 2431 669 2431 922 
Q 2431 1156 2273 1281 
Q 2116 1406 1581 1522 
L 1381 1569 
Q 847 1681 609 1914 
Q 372 2147 372 2553 
Q 372 3047 722 3315 
Q 1072 3584 1716 3584 
Q 2034 3584 2315 3537 
Q 2597 3491 2834 3397 
z
" transform="scale(0.015625)"/>
       <path id="DejaVuSans-77" d="M 269 3500 
L 844 3500 
L 1563 769 
L 2278 3500 
L 2956 3500 
L 3675 769 
L 4391 3500 
L 4966 3500 
L 4050 0 
L 3372 0 
L 2619 2869 
L 1863 0 
L 1184 0 
L 269 3500 
z
" transform="scale(0.015625)"/>
       <path id="DejaVuSans-61" d="M 2194 1759 
Q 1497 1759 1228 1600 
Q 959 1441 959 1056 
Q 959 750 1161 570 
Q 1363 391 1709 391 
Q 2188 391 2477 730 
Q 2766 1069 2766 1631 
L 2766 1759 
L 2194 1759 
z
M 3341 1997 
L 3341 0 
L 2766 0 
L 2766 531 
Q 2569 213 2275 61 
Q 1981 -91 1556 -91 
Q 1019 -91 701 211 
Q 384 513 384 1019 
Q 384 1609 779 1909 
Q 1175 2209 1959 2209 
L 2766 2209 
L 2766 2266 
Q 2766 2663 2505 2880 
Q 2244 3097 1772 3097 
Q 1472 3097 1187 3025 
Q 903 2953 641 2809 
L 641 3341 
Q 956 3463 1253 3523 
Q 1550 3584 1831 3584 
Q 2591 3584 2966 3190 
Q 3341 2797 3341 1997 
z
" transform="scale(0.015625)"/>
       <path id="DejaVuSans-70" d="M 1159 525 
L 1159 -1331 
L 581 -1331 
L 581 3500 
L 1159 3500 
L 1159 2969 
Q 1341 3281 1617 3432 
Q 1894 3584 2278 3584 
Q 2916 3584 3314 3078 
Q 3713 2572 3713 1747 
Q 3713 922 3314 415 
Q 2916 -91 2278 -91 
Q 1894 -91 1617 61 
Q 1341 213 1159 525 
z
M 3116 1747 
Q 3116 2381 2855 2742 
Q 2594 3103 2138 3103 
Q 1681 3103 1420 2742 
Q 1159 2381 1159 1747 
Q 1159 1113 1420 752 
Q 1681 391 2138 391 
Q 2594 391 2855 752 
Q 3116 1113 3116 1747 
z
" transform="scale(0.015625)"/>
      </defs>
      <use xlink:href="#DejaVuSans-6e"/>
      <use xlink:href="#DejaVuSans-75" x="63.378906"/>
      <use xlink:href="#DejaVuSans-6d" x="126.757812"/>
      <use xlink:href="#DejaVuSans-20" x="224.169922"/>
      <use xlink:href="#DejaVuSans-73" x="255.957031"/>
      <use xlink:href="#DejaVuSans-77" x="308.056641"/>
      <use xlink:href="#DejaVuSans-61" x="389.84375"/>
      <use xlink:href="#DejaVuSans-70" x="451.123047"/>
      <use xlink:href="#DejaVuSans-73" x="514.599609"/>
     </g>
    </g>
   </g>
   <g id="matplotlib.axis_2">
    <g id="ytick_1">
     <g id="line2d_10">
      <defs>
       <path id="m718c2816f1" d="M 0 0 
L -3.5 0 
" style="stroke: #000000; stroke-width: 0.8"/>
      </defs>
      <g>
       <use xlink:href="#m718c2816f1" x="57.6" y="273.495273" style="stroke: #000000; stroke-width: 0.8"/>
      </g>
     </g>
     <g id="text_11">
      <!-- 400 -->
      <g transform="translate(31.5125 277.294491)scale(0.1 -0.1)">
       <defs>
        <path id="DejaVuSans-34" d="M 2419 4116 
L 825 1625 
L 2419 1625 
L 2419 4116 
z
M 2253 4666 
L 3047 4666 
L 3047 1625 
L 3713 1625 
L 3713 1100 
L 3047 1100 
L 3047 0 
L 2419 0 
L 2419 1100 
L 313 1100 
L 313 1709 
L 2253 4666 
z
" transform="scale(0.015625)"/>
       </defs>
       <use xlink:href="#DejaVuSans-34"/>
       <use xlink:href="#DejaVuSans-30" x="63.623047"/>
       <use xlink:href="#DejaVuSans-30" x="127.246094"/>
      </g>
     </g>
    </g>
    <g id="ytick_2">
     <g id="line2d_11">
      <g>
       <use xlink:href="#m718c2816f1" x="57.6" y="218.513455" style="stroke: #000000; stroke-width: 0.8"/>
      </g>
     </g>
     <g id="text_12">
      <!-- 420 -->
      <g transform="translate(31.5125 222.312673)scale(0.1 -0.1)">
       <use xlink:href="#DejaVuSans-34"/>
       <use xlink:href="#DejaVuSans-32" x="63.623047"/>
       <use xlink:href="#DejaVuSans-30" x="127.246094"/>
      </g>
     </g>
    </g>
    <g id="ytick_3">
     <g id="line2d_12">
      <g>
       <use xlink:href="#m718c2816f1" x="57.6" y="163.531636" style="stroke: #000000; stroke-width: 0.8"/>
      </g>
     </g>
     <g id="text_13">
      <!-- 440 -->
      <g transform="translate(31.5125 167.330855)scale(0.1 -0.1)">
       <use xlink:href="#DejaVuSans-34"/>
       <use xlink:href="#DejaVuSans-34" x="63.623047"/>
       <use xlink:href="#DejaVuSans-30" x="127.246094"/>
      </g>
     </g>
    </g>
    <g id="ytick_4">
     <g id="line2d_13">
      <g>
       <use xlink:href="#m718c2816f1" x="57.6" y="108.549818" style="stroke: #000000; stroke-width: 0.8"/>
      </g>
     </g>
     <g id="text_14">
      <!-- 460 -->
      <g transform="translate(31.5125 112.349037)scale(0.1 -0.1)">
       <defs>
        <path id="DejaVuSans-36" d="M 2113 2584 
Q 1688 2584 1439 2293 
Q 1191 2003 1191 1497 
Q 1191 994 1439 701 
Q 1688 409 2113 409 
Q 2538 409 2786 701 
Q 3034 994 3034 1497 
Q 3034 2003 2786 2293 
Q 2538 2584 2113 2584 
z
M 3366 4563 
L 3366 3988 
Q 3128 4100 2886 4159 
Q 2644 4219 2406 4219 
Q 1781 4219 1451 3797 
Q 1122 3375 1075 2522 
Q 1259 2794 1537 2939 
Q 1816 3084 2150 3084 
Q 2853 3084 3261 2657 
Q 3669 2231 3669 1497 
Q 3669 778 3244 343 
Q 2819 -91 2113 -91 
Q 1303 -91 875 529 
Q 447 1150 447 2328 
Q 447 3434 972 4092 
Q 1497 4750 2381 4750 
Q 2619 4750 2861 4703 
Q 3103 4656 3366 4563 
z
" transform="scale(0.015625)"/>
       </defs>
       <use xlink:href="#DejaVuSans-34"/>
       <use xlink:href="#DejaVuSans-36" x="63.623047"/>
       <use xlink:href="#DejaVuSans-30" x="127.246094"/>
      </g>
     </g>
    </g>
    <g id="ytick_5">
     <g id="line2d_14">
      <g>
       <use xlink:href="#m718c2816f1" x="57.6" y="53.568" style="stroke: #000000; stroke-width: 0.8"/>
      </g>
     </g>
     <g id="text_15">
      <!-- 480 -->
      <g transform="translate(31.5125 57.367219)scale(0.1 -0.1)">
       <defs>
        <path id="DejaVuSans-38" d="M 2034 2216 
Q 1584 2216 1326 1975 
Q 1069 1734 1069 1313 
Q 1069 891 1326 650 
Q 1584 409 2034 409 
Q 2484 409 2743 651 
Q 3003 894 3003 1313 
Q 3003 1734 2745 1975 
Q 2488 2216 2034 2216 
z
M 1403 2484 
Q 997 2584 770 2862 
Q 544 3141 544 3541 
Q 544 4100 942 4425 
Q 1341 4750 2034 4750 
Q 2731 4750 3128 4425 
Q 3525 4100 3525 3541 
Q 3525 3141 3298 2862 
Q 3072 2584 2669 2484 
Q 3125 2378 3379 2068 
Q 3634 1759 3634 1313 
Q 3634 634 3220 271 
Q 2806 -91 2034 -91 
Q 1263 -91 848 271 
Q 434 634 434 1313 
Q 434 1759 690 2068 
Q 947 2378 1403 2484 
z
M 1172 3481 
Q 1172 3119 1398 2916 
Q 1625 2713 2034 2713 
Q 2441 2713 2670 2916 
Q 2900 3119 2900 3481 
Q 2900 3844 2670 4047 
Q 2441 4250 2034 4250 
Q 1625 4250 1398 4047 
Q 1172 3844 1172 3481 
z
" transform="scale(0.015625)"/>
       </defs>
       <use xlink:href="#DejaVuSans-34"/>
       <use xlink:href="#DejaVuSans-38" x="63.623047"/>
       <use xlink:href="#DejaVuSans-30" x="127.246094"/>
      </g>
     </g>
    </g>
    <g id="text_16">
     <!-- total cost -->
     <g transform="translate(25.432812 197.923313)rotate(-90)scale(0.1 -0.1)">
      <defs>
       <path id="DejaVuSans-74" d="M 1172 4494 
L 1172 3500 
L 2356 3500 
L 2356 3053 
L 1172 3053 
L 1172 1153 
Q 1172 725 1289 603 
Q 1406 481 1766 481 
L 2356 481 
L 2356 0 
L 1766 0 
Q 1100 0 847 248 
Q 594 497 594 1153 
L 594 3053 
L 172 3053 
L 172 3500 
L 594 3500 
L 594 4494 
L 1172 4494 
z
" transform="scale(0.015625)"/>
       <path id="DejaVuSans-6f" d="M 1959 3097 
Q 1497 3097 1228 2736 
Q 959 2375 959 1747 
Q 959 1119 1226 758 
Q 1494 397 1959 397 
Q 2419 397 2687 759 
Q 2956 1122 2956 1747 
Q 2956 2369 2687 2733 
Q 2419 3097 1959 3097 
z
M 1959 3584 
Q 2709 3584 3137 3096 
Q 3566 2609 3566 1747 
Q 3566 888 3137 398 
Q 2709 -91 1959 -91 
Q 1206 -91 779 398 
Q 353 888 353 1747 
Q 353 2609 779 3096 
Q 1206 3584 1959 3584 
z
" transform="scale(0.015625)"/>
       <path id="DejaVuSans-6c" d="M 603 4863 
L 1178 4863 
L 1178 0 
L 603 0 
L 603 4863 
z
" transform="scale(0.015625)"/>
       <path id="DejaVuSans-63" d="M 3122 3366 
L 3122 2828 
Q 2878 2963 2633 3030 
Q 2388 3097 2138 3097 
Q 1578 3097 1268 2742 
Q 959 2388 959 1747 
Q 959 1106 1268 751 
Q 1578 397 2138 397 
Q 2388 397 2633 464 
Q 2878 531 3122 666 
L 3122 134 
Q 2881 22 2623 -34 
Q 2366 -91 2075 -91 
Q 1284 -91 818 406 
Q 353 903 353 1747 
Q 353 2603 823 3093 
Q 1294 3584 2113 3584 
Q 2378 3584 2631 3529 
Q 2884 3475 3122 3366 
z
" transform="scale(0.015625)"/>
      </defs>
      <use xlink:href="#DejaVuSans-74"/>
      <use xlink:href="#DejaVuSans-6f" x="39.208984"/>
      <use xlink:href="#DejaVuSans-74" x="100.390625"/>
      <use xlink:href="#DejaVuSans-61" x="139.599609"/>
      <use xlink:href="#DejaVuSans-6c" x="200.878906"/>
      <use xlink:href="#DejaVuSans-20" x="228.662109"/>
      <use xlink:href="#DejaVuSans-63" x="260.449219"/>
      <use xlink:href="#DejaVuSans-6f" x="315.429688"/>
      <use xlink:href="#DejaVuSans-73" x="376.611328"/>
      <use xlink:href="#DejaVuSans-74" x="428.710938"/>
     </g>
    </g>
   </g>
   <g id="line2d_15">
    <path d="M 73.832727 185.524364 
L 74.170557 196.520727 
L 74.508387 199.269818 
L 74.846217 221.262545 
L 75.184047 224.011636 
L 75.521877 218.513455 
L 75.859707 215.764364 
L 76.197537 218.513455 
L 76.535367 215.764364 
L 76.873196 210.266182 
L 77.211026 218.513455 
L 77.548856 207.517091 
L 77.886686 202.018909 
L 78.224516 202.018909 
L 78.562346 207.517091 
L 78.900176 221.262545 
L 79.238006 224.011636 
L 79.575836 229.509818 
L 79.913666 224.011636 
L 80.927155 193.771636 
L 81.264985 188.273455 
L 81.602815 188.273455 
L 81.940645 204.768 
L 82.278475 202.018909 
L 82.616305 210.266182 
L 82.954135 226.760727 
L 83.291965 232.258909 
L 83.629795 235.008 
L 83.967625 235.008 
L 84.305455 213.015273 
L 84.643284 199.269818 
L 84.981114 204.768 
L 85.318944 199.269818 
L 85.656774 207.517091 
L 85.994604 202.018909 
L 86.332434 174.528 
L 86.670264 158.033455 
L 87.008094 163.531636 
L 87.345924 155.284364 
L 87.683754 144.288 
L 88.021584 163.531636 
L 88.359413 155.284364 
L 88.697243 158.033455 
L 89.035073 158.033455 
L 89.372903 152.535273 
L 90.048563 213.015273 
L 90.724223 218.513455 
L 91.062053 224.011636 
L 91.399883 232.258909 
L 91.737713 160.782545 
L 92.075543 141.538909 
L 92.751202 171.778909 
L 93.089032 174.528 
L 93.426862 185.524364 
L 93.764692 182.775273 
L 94.102522 130.542545 
L 94.440352 122.295273 
L 94.778182 122.295273 
L 95.116012 119.546182 
L 95.453842 114.048 
L 95.791672 103.051636 
L 96.129501 108.549818 
L 96.467331 116.797091 
L 97.142991 111.298909 
L 97.480821 116.797091 
L 97.818651 125.044364 
L 98.156481 127.793455 
L 98.494311 141.538909 
L 98.832141 141.538909 
L 99.169971 138.789818 
L 99.507801 155.284364 
L 99.84563 160.782545 
L 100.18346 171.778909 
L 100.52129 163.531636 
L 100.85912 166.280727 
L 101.19695 166.280727 
L 101.53478 163.531636 
L 101.87261 180.026182 
L 102.21044 180.026182 
L 102.54827 166.280727 
L 102.8861 174.528 
L 103.22393 166.280727 
L 103.56176 160.782545 
L 103.899589 188.273455 
L 104.237419 136.040727 
L 104.913079 105.800727 
L 105.250909 119.546182 
L 105.588739 122.295273 
L 105.926569 155.284364 
L 106.264399 147.037091 
L 106.602229 158.033455 
L 106.940059 119.546182 
L 107.277889 108.549818 
L 107.615718 166.280727 
L 107.953548 171.778909 
L 108.291378 180.026182 
L 108.629208 166.280727 
L 108.967038 174.528 
L 109.304868 188.273455 
L 109.642698 188.273455 
L 109.980528 182.775273 
L 110.318358 174.528 
L 110.656188 171.778909 
L 110.994018 166.280727 
L 111.331848 180.026182 
L 111.669677 171.778909 
L 112.007507 152.535273 
L 112.345337 155.284364 
L 112.683167 160.782545 
L 113.020997 158.033455 
L 113.358827 160.782545 
L 113.696657 141.538909 
L 114.034487 138.789818 
L 114.372317 149.786182 
L 114.710147 114.048 
L 115.047977 119.546182 
L 115.385806 114.048 
L 115.723636 125.044364 
L 116.061466 108.549818 
L 116.399296 125.044364 
L 116.737126 180.026182 
L 117.074956 202.018909 
L 117.412786 180.026182 
L 117.750616 180.026182 
L 118.088446 185.524364 
L 118.426276 185.524364 
L 118.764106 180.026182 
L 119.101935 202.018909 
L 119.439765 204.768 
L 119.777595 199.269818 
L 120.115425 204.768 
L 120.791085 180.026182 
L 121.128915 185.524364 
L 121.466745 185.524364 
L 121.804575 177.277091 
L 122.142405 193.771636 
L 122.480235 177.277091 
L 122.818065 166.280727 
L 123.155894 180.026182 
L 123.493724 182.775273 
L 123.831554 144.288 
L 124.169384 177.277091 
L 124.507214 182.775273 
L 125.182874 160.782545 
L 125.520704 163.531636 
L 126.196364 163.531636 
L 126.534194 169.029818 
L 126.872023 152.535273 
L 127.209853 144.288 
L 127.547683 155.284364 
L 127.885513 160.782545 
L 128.223343 169.029818 
L 128.561173 180.026182 
L 128.899003 180.026182 
L 129.236833 182.775273 
L 129.574663 191.022545 
L 129.912493 196.520727 
L 130.588152 213.015273 
L 130.925982 218.513455 
L 131.263812 218.513455 
L 131.601642 213.015273 
L 132.277302 243.255273 
L 132.615132 273.495273 
L 132.952962 273.495273 
L 133.628622 251.502545 
L 133.966452 251.502545 
L 134.304282 248.753455 
L 134.642111 267.997091 
L 134.979941 265.248 
L 135.317771 246.004364 
L 135.655601 240.506182 
L 136.669091 202.018909 
L 137.006921 191.022545 
L 137.344751 188.273455 
L 137.682581 180.026182 
L 138.020411 224.011636 
L 138.35824 226.760727 
L 138.69607 191.022545 
L 139.0339 188.273455 
L 139.37173 193.771636 
L 139.70956 210.266182 
L 140.04739 215.764364 
L 140.72305 210.266182 
L 141.39871 210.266182 
L 141.73654 213.015273 
L 142.07437 221.262545 
L 142.750029 215.764364 
L 143.087859 202.018909 
L 143.425689 182.775273 
L 143.763519 185.524364 
L 144.101349 174.528 
L 144.777009 185.524364 
L 145.114839 182.775273 
L 145.452669 185.524364 
L 145.790499 193.771636 
L 146.128328 188.273455 
L 146.466158 177.277091 
L 146.803988 210.266182 
L 147.141818 207.517091 
L 147.479648 207.517091 
L 148.155308 174.528 
L 148.493138 125.044364 
L 148.830968 130.542545 
L 149.168798 92.055273 
L 149.506628 105.800727 
L 149.844457 136.040727 
L 150.182287 138.789818 
L 150.520117 136.040727 
L 150.857947 136.040727 
L 151.195777 108.549818 
L 151.533607 111.298909 
L 151.871437 119.546182 
L 152.547097 130.542545 
L 152.884927 133.291636 
L 153.222757 144.288 
L 153.560587 111.298909 
L 153.898416 108.549818 
L 154.236246 97.553455 
L 154.911906 103.051636 
L 155.249736 152.535273 
L 155.587566 155.284364 
L 155.925396 169.029818 
L 156.263226 160.782545 
L 156.601056 169.029818 
L 157.276716 141.538909 
L 157.614545 144.288 
L 157.952375 155.284364 
L 158.628035 130.542545 
L 158.965865 144.288 
L 159.303695 171.778909 
L 159.641525 166.280727 
L 159.979355 177.277091 
L 160.317185 169.029818 
L 160.655015 169.029818 
L 160.992845 166.280727 
L 161.330674 149.786182 
L 161.668504 144.288 
L 162.006334 147.037091 
L 162.681994 147.037091 
L 163.019824 144.288 
L 163.357654 147.037091 
L 163.695484 136.040727 
L 164.033314 138.789818 
L 164.371144 144.288 
L 164.708974 147.037091 
L 165.046804 158.033455 
L 165.384633 138.789818 
L 165.722463 149.786182 
L 166.060293 171.778909 
L 166.398123 152.535273 
L 166.735953 155.284364 
L 167.073783 147.037091 
L 167.411613 158.033455 
L 167.749443 149.786182 
L 168.087273 149.786182 
L 168.425103 155.284364 
L 168.762933 141.538909 
L 169.100762 149.786182 
L 169.776422 171.778909 
L 170.114252 174.528 
L 170.452082 169.029818 
L 171.127742 188.273455 
L 171.465572 193.771636 
L 171.803402 202.018909 
L 172.141232 199.269818 
L 172.479062 191.022545 
L 172.816891 210.266182 
L 173.154721 169.029818 
L 173.492551 171.778909 
L 173.830381 171.778909 
L 174.168211 174.528 
L 174.506041 169.029818 
L 174.843871 191.022545 
L 175.181701 188.273455 
L 175.519531 204.768 
L 175.857361 202.018909 
L 176.195191 207.517091 
L 176.533021 193.771636 
L 176.87085 240.506182 
L 177.20868 226.760727 
L 177.54651 221.262545 
L 177.88434 221.262545 
L 178.22217 226.760727 
L 178.89783 215.764364 
L 179.23566 224.011636 
L 179.91132 196.520727 
L 180.24915 202.018909 
L 180.586979 191.022545 
L 180.924809 204.768 
L 181.262639 210.266182 
L 181.600469 218.513455 
L 181.938299 213.015273 
L 182.276129 232.258909 
L 182.613959 218.513455 
L 182.951789 215.764364 
L 183.289619 193.771636 
L 183.627449 207.517091 
L 183.965279 207.517091 
L 184.303109 196.520727 
L 184.640938 191.022545 
L 184.978768 193.771636 
L 185.316598 191.022545 
L 185.654428 169.029818 
L 185.992258 171.778909 
L 186.330088 180.026182 
L 186.667918 182.775273 
L 187.005748 149.786182 
L 187.343578 147.037091 
L 187.681408 149.786182 
L 188.019238 180.026182 
L 188.357067 188.273455 
L 188.694897 188.273455 
L 189.370557 163.531636 
L 189.708387 158.033455 
L 190.046217 185.524364 
L 190.384047 182.775273 
L 190.721877 171.778909 
L 191.059707 188.273455 
L 191.397537 188.273455 
L 191.735367 199.269818 
L 192.073196 204.768 
L 192.411026 207.517091 
L 192.748856 202.018909 
L 193.086686 213.015273 
L 193.424516 213.015273 
L 193.762346 243.255273 
L 194.100176 262.498909 
L 194.438006 267.997091 
L 194.775836 295.488 
L 195.113666 254.251636 
L 195.451496 237.757091 
L 195.789326 229.509818 
L 196.127155 240.506182 
L 196.464985 221.262545 
L 196.802815 229.509818 
L 197.140645 224.011636 
L 197.478475 248.753455 
L 197.816305 254.251636 
L 198.154135 273.495273 
L 198.491965 259.749818 
L 198.829795 254.251636 
L 199.167625 240.506182 
L 199.505455 237.757091 
L 199.843284 210.266182 
L 200.181114 196.520727 
L 200.518944 207.517091 
L 200.856774 202.018909 
L 201.532434 207.517091 
L 201.870264 213.015273 
L 202.208094 213.015273 
L 202.545924 202.018909 
L 202.883754 196.520727 
L 203.221584 177.277091 
L 203.559413 177.277091 
L 203.897243 180.026182 
L 204.235073 185.524364 
L 204.572903 182.775273 
L 204.910733 188.273455 
L 205.586393 169.029818 
L 205.924223 160.782545 
L 206.262053 149.786182 
L 206.599883 147.037091 
L 206.937713 141.538909 
L 207.275543 149.786182 
L 207.613372 169.029818 
L 207.951202 180.026182 
L 208.289032 182.775273 
L 208.626862 191.022545 
L 208.964692 193.771636 
L 209.302522 185.524364 
L 209.640352 182.775273 
L 209.978182 193.771636 
L 210.316012 185.524364 
L 210.653842 166.280727 
L 210.991672 169.029818 
L 211.329501 138.789818 
L 211.667331 138.789818 
L 212.005161 144.288 
L 212.342991 130.542545 
L 212.680821 130.542545 
L 213.018651 125.044364 
L 213.356481 141.538909 
L 214.369971 116.797091 
L 214.707801 119.546182 
L 215.04563 133.291636 
L 215.72129 133.291636 
L 216.05912 127.793455 
L 216.39695 133.291636 
L 216.73478 127.793455 
L 217.07261 111.298909 
L 217.41044 155.284364 
L 218.0861 149.786182 
L 218.42393 133.291636 
L 218.76176 152.535273 
L 219.099589 185.524364 
L 219.775249 213.015273 
L 220.113079 215.764364 
L 220.450909 213.015273 
L 220.788739 202.018909 
L 221.126569 199.269818 
L 221.464399 191.022545 
L 221.802229 191.022545 
L 222.140059 207.517091 
L 222.477889 213.015273 
L 222.815718 202.018909 
L 223.491378 224.011636 
L 223.829208 202.018909 
L 224.167038 213.015273 
L 224.504868 196.520727 
L 224.842698 193.771636 
L 225.180528 177.277091 
L 225.518358 180.026182 
L 225.856188 160.782545 
L 226.194018 155.284364 
L 227.207507 202.018909 
L 227.545337 182.775273 
L 227.883167 152.535273 
L 228.220997 158.033455 
L 228.558827 169.029818 
L 228.896657 163.531636 
L 229.234487 169.029818 
L 229.572317 163.531636 
L 229.910147 149.786182 
L 230.247977 152.535273 
L 230.585806 169.029818 
L 230.923636 163.531636 
L 231.261466 163.531636 
L 231.599296 171.778909 
L 231.937126 171.778909 
L 232.274956 177.277091 
L 232.612786 155.284364 
L 232.950616 166.280727 
L 233.288446 171.778909 
L 233.626276 182.775273 
L 233.964106 185.524364 
L 234.301935 193.771636 
L 234.639765 174.528 
L 234.977595 185.524364 
L 235.653255 138.789818 
L 235.991085 144.288 
L 236.328915 147.037091 
L 236.666745 169.029818 
L 237.004575 171.778909 
L 237.342405 163.531636 
L 237.680235 152.535273 
L 238.018065 160.782545 
L 238.355894 158.033455 
L 238.693724 127.793455 
L 239.031554 138.789818 
L 239.369384 141.538909 
L 239.707214 136.040727 
L 240.045044 147.037091 
L 240.720704 141.538909 
L 241.058534 147.037091 
L 241.396364 138.789818 
L 241.734194 127.793455 
L 242.072023 136.040727 
L 242.409853 130.542545 
L 242.747683 130.542545 
L 243.085513 133.291636 
L 243.423343 152.535273 
L 243.761173 133.291636 
L 244.099003 130.542545 
L 244.436833 130.542545 
L 244.774663 114.048 
L 245.112493 86.557091 
L 245.450323 83.808 
L 245.788152 114.048 
L 246.125982 81.058909 
L 246.463812 64.564364 
L 246.801642 53.568 
L 247.139472 64.564364 
L 247.477302 61.815273 
L 248.490792 61.815273 
L 248.828622 86.557091 
L 249.166452 89.306182 
L 249.504282 97.553455 
L 249.842111 70.062545 
L 250.179941 61.815273 
L 250.517771 78.309818 
L 250.855601 70.062545 
L 251.193431 89.306182 
L 251.531261 81.058909 
L 251.869091 108.549818 
L 252.206921 114.048 
L 252.544751 116.797091 
L 252.882581 141.538909 
L 253.220411 138.789818 
L 253.55824 141.538909 
L 253.89607 133.291636 
L 254.2339 141.538909 
L 254.57173 136.040727 
L 254.90956 149.786182 
L 255.24739 144.288 
L 255.58522 180.026182 
L 255.92305 196.520727 
L 256.26088 185.524364 
L 256.59871 185.524364 
L 256.93654 188.273455 
L 257.27437 185.524364 
L 257.612199 199.269818 
L 257.950029 180.026182 
L 258.625689 204.768 
L 258.963519 257.000727 
L 259.301349 259.749818 
L 259.639179 235.008 
L 259.977009 240.506182 
L 260.314839 232.258909 
L 260.652669 232.258909 
L 260.990499 226.760727 
L 261.328328 235.008 
L 261.666158 215.764364 
L 262.003988 215.764364 
L 262.341818 213.015273 
L 262.679648 218.513455 
L 263.017478 221.262545 
L 263.355308 229.509818 
L 264.030968 218.513455 
L 264.368798 215.764364 
L 264.706628 221.262545 
L 265.044457 240.506182 
L 265.382287 221.262545 
L 265.720117 213.015273 
L 266.057947 166.280727 
L 266.395777 185.524364 
L 266.733607 193.771636 
L 267.071437 185.524364 
L 267.409267 191.022545 
L 267.747097 188.273455 
L 268.084927 193.771636 
L 268.422757 171.778909 
L 268.760587 193.771636 
L 269.098416 193.771636 
L 269.436246 177.277091 
L 269.774076 177.277091 
L 270.111906 185.524364 
L 270.449736 199.269818 
L 270.787566 196.520727 
L 271.463226 207.517091 
L 271.801056 221.262545 
L 272.138886 221.262545 
L 272.476716 215.764364 
L 272.814545 237.757091 
L 273.152375 237.757091 
L 273.490205 235.008 
L 273.828035 224.011636 
L 274.165865 237.757091 
L 274.503695 232.258909 
L 274.841525 246.004364 
L 275.179355 235.008 
L 275.517185 232.258909 
L 275.855015 232.258909 
L 276.192845 210.266182 
L 276.530674 213.015273 
L 276.868504 204.768 
L 277.206334 232.258909 
L 277.544164 226.760727 
L 277.881994 226.760727 
L 278.219824 210.266182 
L 278.557654 221.262545 
L 278.895484 196.520727 
L 279.233314 204.768 
L 279.571144 204.768 
L 279.908974 193.771636 
L 280.922463 177.277091 
L 281.260293 188.273455 
L 281.598123 171.778909 
L 281.935953 166.280727 
L 282.273783 158.033455 
L 282.611613 163.531636 
L 282.949443 141.538909 
L 283.287273 133.291636 
L 283.625103 130.542545 
L 283.962933 119.546182 
L 284.300762 89.306182 
L 284.638592 89.306182 
L 284.976422 86.557091 
L 285.314252 92.055273 
L 285.652082 92.055273 
L 285.989912 81.058909 
L 286.327742 111.298909 
L 286.665572 111.298909 
L 287.003402 92.055273 
L 287.341232 111.298909 
L 287.679062 116.797091 
L 288.016891 130.542545 
L 288.354721 136.040727 
L 288.692551 127.793455 
L 289.030381 133.291636 
L 289.368211 108.549818 
L 289.706041 105.800727 
L 290.043871 108.549818 
L 290.381701 127.793455 
L 290.719531 125.044364 
L 291.057361 108.549818 
L 291.395191 127.793455 
L 291.733021 125.044364 
L 292.07085 100.302545 
L 292.40868 89.306182 
L 292.74651 89.306182 
L 293.08434 94.804364 
L 293.42217 111.298909 
L 293.76 119.546182 
L 294.09783 122.295273 
L 294.43566 119.546182 
L 294.77349 108.549818 
L 295.11132 105.800727 
L 295.44915 119.546182 
L 295.786979 111.298909 
L 296.124809 111.298909 
L 296.462639 108.549818 
L 296.800469 125.044364 
L 297.138299 136.040727 
L 297.476129 152.535273 
L 297.813959 127.793455 
L 298.151789 158.033455 
L 298.489619 160.782545 
L 298.827449 160.782545 
L 299.503109 130.542545 
L 299.840938 147.037091 
L 300.516598 152.535273 
L 300.854428 149.786182 
L 301.192258 141.538909 
L 301.530088 141.538909 
L 301.867918 147.037091 
L 302.205748 207.517091 
L 302.543578 210.266182 
L 302.881408 207.517091 
L 303.219238 191.022545 
L 303.557067 182.775273 
L 303.894897 188.273455 
L 304.232727 202.018909 
L 304.570557 188.273455 
L 304.908387 182.775273 
L 305.246217 196.520727 
L 305.584047 191.022545 
L 305.921877 193.771636 
L 306.259707 207.517091 
L 306.597537 215.764364 
L 306.935367 221.262545 
L 307.273196 229.509818 
L 307.611026 229.509818 
L 307.948856 226.760727 
L 308.286686 221.262545 
L 308.624516 207.517091 
L 308.962346 210.266182 
L 309.300176 210.266182 
L 309.638006 215.764364 
L 309.975836 215.764364 
L 310.313666 213.015273 
L 310.989326 166.280727 
L 311.327155 169.029818 
L 311.664985 169.029818 
L 312.002815 166.280727 
L 312.340645 141.538909 
L 313.016305 163.531636 
L 313.354135 166.280727 
L 313.691965 141.538909 
L 314.029795 130.542545 
L 314.367625 141.538909 
L 314.705455 138.789818 
L 315.043284 147.037091 
L 315.381114 147.037091 
L 315.718944 136.040727 
L 316.056774 149.786182 
L 316.394604 147.037091 
L 316.732434 160.782545 
L 317.070264 160.782545 
L 317.408094 166.280727 
L 317.745924 163.531636 
L 318.083754 166.280727 
L 318.421584 163.531636 
L 318.759413 180.026182 
L 319.097243 169.029818 
L 319.435073 163.531636 
L 319.772903 180.026182 
L 320.110733 171.778909 
L 320.448563 180.026182 
L 320.786393 171.778909 
L 321.124223 188.273455 
L 321.462053 171.778909 
L 321.799883 180.026182 
L 322.137713 185.524364 
L 322.813372 191.022545 
L 323.151202 188.273455 
L 323.489032 180.026182 
L 323.826862 182.775273 
L 324.164692 182.775273 
L 324.502522 196.520727 
L 324.840352 199.269818 
L 325.178182 185.524364 
L 325.516012 191.022545 
L 325.853842 199.269818 
L 326.191672 199.269818 
L 326.529501 193.771636 
L 326.867331 196.520727 
L 327.205161 193.771636 
L 327.542991 193.771636 
L 327.880821 171.778909 
L 328.218651 169.029818 
L 328.556481 160.782545 
L 328.894311 163.531636 
L 329.232141 177.277091 
L 329.569971 182.775273 
L 329.907801 202.018909 
L 330.24563 196.520727 
L 330.58346 182.775273 
L 330.92129 174.528 
L 331.25912 180.026182 
L 331.59695 188.273455 
L 331.93478 193.771636 
L 332.61044 182.775273 
L 332.94827 202.018909 
L 333.2861 196.520727 
L 333.62393 196.520727 
L 333.96176 177.277091 
L 334.299589 185.524364 
L 334.637419 185.524364 
L 334.975249 160.782545 
L 335.650909 166.280727 
L 335.988739 177.277091 
L 336.326569 169.029818 
L 336.664399 155.284364 
L 337.002229 163.531636 
L 337.340059 169.029818 
L 337.677889 163.531636 
L 338.015718 174.528 
L 338.353548 169.029818 
L 338.691378 180.026182 
L 339.029208 185.524364 
L 339.367038 196.520727 
L 339.704868 193.771636 
L 340.042698 196.520727 
L 340.380528 188.273455 
L 340.718358 171.778909 
L 341.056188 185.524364 
L 341.394018 152.535273 
L 341.731848 163.531636 
L 342.069677 155.284364 
L 342.407507 155.284364 
L 342.745337 149.786182 
L 343.083167 155.284364 
L 343.420997 141.538909 
L 343.758827 144.288 
L 344.096657 158.033455 
L 344.434487 166.280727 
L 344.772317 180.026182 
L 345.110147 185.524364 
L 345.785806 160.782545 
L 346.123636 152.535273 
L 346.461466 155.284364 
L 346.799296 155.284364 
L 347.137126 144.288 
L 347.812786 149.786182 
L 348.488446 130.542545 
L 348.826276 125.044364 
L 349.164106 100.302545 
L 349.501935 111.298909 
L 349.839765 100.302545 
L 350.177595 105.800727 
L 350.515425 127.793455 
L 351.191085 116.797091 
L 351.528915 116.797091 
L 351.866745 105.800727 
L 352.204575 108.549818 
L 352.542405 133.291636 
L 352.880235 127.793455 
L 353.218065 116.797091 
L 353.555894 127.793455 
L 353.893724 122.295273 
L 354.231554 199.269818 
L 354.569384 204.768 
L 354.907214 193.771636 
L 355.245044 207.517091 
L 355.582874 185.524364 
L 355.920704 185.524364 
L 356.258534 169.029818 
L 356.596364 182.775273 
L 356.934194 180.026182 
L 357.272023 163.531636 
L 357.609853 155.284364 
L 357.947683 169.029818 
L 358.285513 174.528 
L 358.623343 177.277091 
L 358.961173 171.778909 
L 359.299003 193.771636 
L 359.636833 138.789818 
L 359.974663 144.288 
L 360.312493 144.288 
L 360.650323 133.291636 
L 361.325982 138.789818 
L 361.663812 147.037091 
L 362.001642 171.778909 
L 362.339472 169.029818 
L 362.677302 180.026182 
L 363.015132 174.528 
L 363.352962 177.277091 
L 363.690792 213.015273 
L 364.028622 218.513455 
L 364.366452 210.266182 
L 364.704282 171.778909 
L 365.042111 163.531636 
L 365.379941 160.782545 
L 365.717771 155.284364 
L 366.055601 177.277091 
L 366.393431 180.026182 
L 366.731261 188.273455 
L 367.069091 188.273455 
L 367.406921 171.778909 
L 367.744751 180.026182 
L 368.082581 185.524364 
L 368.420411 199.269818 
L 368.75824 196.520727 
L 369.09607 191.022545 
L 369.4339 182.775273 
L 369.77173 171.778909 
L 370.10956 174.528 
L 370.78522 138.789818 
L 371.46088 158.033455 
L 371.79871 160.782545 
L 372.13654 177.277091 
L 372.47437 180.026182 
L 372.812199 193.771636 
L 373.150029 166.280727 
L 373.487859 177.277091 
L 373.825689 174.528 
L 374.163519 177.277091 
L 374.501349 177.277091 
L 374.839179 158.033455 
L 375.177009 160.782545 
L 375.514839 155.284364 
L 375.852669 152.535273 
L 376.190499 133.291636 
L 376.528328 141.538909 
L 376.866158 130.542545 
L 377.203988 125.044364 
L 377.541818 125.044364 
L 377.879648 141.538909 
L 378.217478 152.535273 
L 378.555308 171.778909 
L 379.568798 125.044364 
L 379.906628 171.778909 
L 380.244457 185.524364 
L 380.582287 191.022545 
L 381.595777 133.291636 
L 381.933607 122.295273 
L 382.271437 130.542545 
L 382.609267 133.291636 
L 382.947097 149.786182 
L 383.284927 155.284364 
L 383.622757 152.535273 
L 383.960587 152.535273 
L 384.298416 149.786182 
L 384.636246 108.549818 
L 385.311906 127.793455 
L 385.649736 122.295273 
L 385.987566 122.295273 
L 386.325396 163.531636 
L 386.663226 166.280727 
L 387.001056 152.535273 
L 387.338886 163.531636 
L 387.676716 188.273455 
L 388.014545 193.771636 
L 388.352375 160.782545 
L 388.690205 174.528 
L 389.028035 180.026182 
L 389.365865 180.026182 
L 389.703695 188.273455 
L 390.041525 188.273455 
L 390.717185 177.277091 
L 391.055015 169.029818 
L 391.392845 171.778909 
L 391.730674 180.026182 
L 392.068504 199.269818 
L 392.406334 169.029818 
L 392.744164 174.528 
L 393.081994 166.280727 
L 393.419824 155.284364 
L 393.757654 166.280727 
L 394.095484 169.029818 
L 394.433314 163.531636 
L 394.771144 166.280727 
L 395.108974 174.528 
L 395.446804 174.528 
L 395.784633 182.775273 
L 396.460293 204.768 
L 396.798123 163.531636 
L 397.135953 171.778909 
L 397.473783 177.277091 
L 397.811613 177.277091 
L 398.487273 202.018909 
L 398.487273 202.018909 
" clip-path="url(#p54385820a3)" style="fill: none; stroke: #1f77b4; stroke-width: 1.5; stroke-linecap: square"/>
   </g>
   <g id="patch_3">
    <path d="M 57.6 307.584 
L 57.6 41.472 
" style="fill: none; stroke: #000000; stroke-width: 0.8; stroke-linejoin: miter; stroke-linecap: square"/>
   </g>
   <g id="patch_4">
    <path d="M 414.72 307.584 
L 414.72 41.472 
" style="fill: none; stroke: #000000; stroke-width: 0.8; stroke-linejoin: miter; stroke-linecap: square"/>
   </g>
   <g id="patch_5">
    <path d="M 57.6 307.584 
L 414.72 307.584 
" style="fill: none; stroke: #000000; stroke-width: 0.8; stroke-linejoin: miter; stroke-linecap: square"/>
   </g>
   <g id="patch_6">
    <path d="M 57.6 41.472 
L 414.72 41.472 
" style="fill: none; stroke: #000000; stroke-width: 0.8; stroke-linejoin: miter; stroke-linecap: square"/>
   </g>
   <g id="text_17">
    <!-- Simulated Anealling Cost -->
    <g transform="translate(160.8 35.472)scale(0.12 -0.12)">
     <defs>
      <path id="DejaVuSans-53" d="M 3425 4513 
L 3425 3897 
Q 3066 4069 2747 4153 
Q 2428 4238 2131 4238 
Q 1616 4238 1336 4038 
Q 1056 3838 1056 3469 
Q 1056 3159 1242 3001 
Q 1428 2844 1947 2747 
L 2328 2669 
Q 3034 2534 3370 2195 
Q 3706 1856 3706 1288 
Q 3706 609 3251 259 
Q 2797 -91 1919 -91 
Q 1588 -91 1214 -16 
Q 841 59 441 206 
L 441 856 
Q 825 641 1194 531 
Q 1563 422 1919 422 
Q 2459 422 2753 634 
Q 3047 847 3047 1241 
Q 3047 1584 2836 1778 
Q 2625 1972 2144 2069 
L 1759 2144 
Q 1053 2284 737 2584 
Q 422 2884 422 3419 
Q 422 4038 858 4394 
Q 1294 4750 2059 4750 
Q 2388 4750 2728 4690 
Q 3069 4631 3425 4513 
z
" transform="scale(0.015625)"/>
      <path id="DejaVuSans-69" d="M 603 3500 
L 1178 3500 
L 1178 0 
L 603 0 
L 603 3500 
z
M 603 4863 
L 1178 4863 
L 1178 4134 
L 603 4134 
L 603 4863 
z
" transform="scale(0.015625)"/>
      <path id="DejaVuSans-65" d="M 3597 1894 
L 3597 1613 
L 953 1613 
Q 991 1019 1311 708 
Q 1631 397 2203 397 
Q 2534 397 2845 478 
Q 3156 559 3463 722 
L 3463 178 
Q 3153 47 2828 -22 
Q 2503 -91 2169 -91 
Q 1331 -91 842 396 
Q 353 884 353 1716 
Q 353 2575 817 3079 
Q 1281 3584 2069 3584 
Q 2775 3584 3186 3129 
Q 3597 2675 3597 1894 
z
M 3022 2063 
Q 3016 2534 2758 2815 
Q 2500 3097 2075 3097 
Q 1594 3097 1305 2825 
Q 1016 2553 972 2059 
L 3022 2063 
z
" transform="scale(0.015625)"/>
      <path id="DejaVuSans-64" d="M 2906 2969 
L 2906 4863 
L 3481 4863 
L 3481 0 
L 2906 0 
L 2906 525 
Q 2725 213 2448 61 
Q 2172 -91 1784 -91 
Q 1150 -91 751 415 
Q 353 922 353 1747 
Q 353 2572 751 3078 
Q 1150 3584 1784 3584 
Q 2172 3584 2448 3432 
Q 2725 3281 2906 2969 
z
M 947 1747 
Q 947 1113 1208 752 
Q 1469 391 1925 391 
Q 2381 391 2643 752 
Q 2906 1113 2906 1747 
Q 2906 2381 2643 2742 
Q 2381 3103 1925 3103 
Q 1469 3103 1208 2742 
Q 947 2381 947 1747 
z
" transform="scale(0.015625)"/>
      <path id="DejaVuSans-41" d="M 2188 4044 
L 1331 1722 
L 3047 1722 
L 2188 4044 
z
M 1831 4666 
L 2547 4666 
L 4325 0 
L 3669 0 
L 3244 1197 
L 1141 1197 
L 716 0 
L 50 0 
L 1831 4666 
z
" transform="scale(0.015625)"/>
      <path id="DejaVuSans-67" d="M 2906 1791 
Q 2906 2416 2648 2759 
Q 2391 3103 1925 3103 
Q 1463 3103 1205 2759 
Q 947 2416 947 1791 
Q 947 1169 1205 825 
Q 1463 481 1925 481 
Q 2391 481 2648 825 
Q 2906 1169 2906 1791 
z
M 3481 434 
Q 3481 -459 3084 -895 
Q 2688 -1331 1869 -1331 
Q 1566 -1331 1297 -1286 
Q 1028 -1241 775 -1147 
L 775 -588 
Q 1028 -725 1275 -790 
Q 1522 -856 1778 -856 
Q 2344 -856 2625 -561 
Q 2906 -266 2906 331 
L 2906 616 
Q 2728 306 2450 153 
Q 2172 0 1784 0 
Q 1141 0 747 490 
Q 353 981 353 1791 
Q 353 2603 747 3093 
Q 1141 3584 1784 3584 
Q 2172 3584 2450 3431 
Q 2728 3278 2906 2969 
L 2906 3500 
L 3481 3500 
L 3481 434 
z
" transform="scale(0.015625)"/>
      <path id="DejaVuSans-43" d="M 4122 4306 
L 4122 3641 
Q 3803 3938 3442 4084 
Q 3081 4231 2675 4231 
Q 1875 4231 1450 3742 
Q 1025 3253 1025 2328 
Q 1025 1406 1450 917 
Q 1875 428 2675 428 
Q 3081 428 3442 575 
Q 3803 722 4122 1019 
L 4122 359 
Q 3791 134 3420 21 
Q 3050 -91 2638 -91 
Q 1578 -91 968 557 
Q 359 1206 359 2328 
Q 359 3453 968 4101 
Q 1578 4750 2638 4750 
Q 3056 4750 3426 4639 
Q 3797 4528 4122 4306 
z
" transform="scale(0.015625)"/>
     </defs>
     <use xlink:href="#DejaVuSans-53"/>
     <use xlink:href="#DejaVuSans-69" x="63.476562"/>
     <use xlink:href="#DejaVuSans-6d" x="91.259766"/>
     <use xlink:href="#DejaVuSans-75" x="188.671875"/>
     <use xlink:href="#DejaVuSans-6c" x="252.050781"/>
     <use xlink:href="#DejaVuSans-61" x="279.833984"/>
     <use xlink:href="#DejaVuSans-74" x="341.113281"/>
     <use xlink:href="#DejaVuSans-65" x="380.322266"/>
     <use xlink:href="#DejaVuSans-64" x="441.845703"/>
     <use xlink:href="#DejaVuSans-20" x="505.322266"/>
     <use xlink:href="#DejaVuSans-41" x="537.109375"/>
     <use xlink:href="#DejaVuSans-6e" x="605.517578"/>
     <use xlink:href="#DejaVuSans-65" x="668.896484"/>
     <use xlink:href="#DejaVuSans-61" x="730.419922"/>
     <use xlink:href="#DejaVuSans-6c" x="791.699219"/>
     <use xlink:href="#DejaVuSans-6c" x="819.482422"/>
     <use xlink:href="#DejaVuSans-69" x="847.265625"/>
     <use xlink:href="#DejaVuSans-6e" x="875.048828"/>
     <use xlink:href="#DejaVuSans-67" x="938.427734"/>
     <use xlink:href="#DejaVuSans-20" x="1001.904297"/>
     <use xlink:href="#DejaVuSans-43" x="1033.691406"/>
     <use xlink:href="#DejaVuSans-6f" x="1103.515625"/>
     <use xlink:href="#DejaVuSans-73" x="1164.697266"/>
     <use xlink:href="#DejaVuSans-74" x="1216.796875"/>
    </g>
   </g>
  </g>
 </g>
 <defs>
  <clipPath id="p54385820a3">
   <rect x="57.6" y="41.472" width="357.12" height="266.112"/>
  </clipPath>
 </defs>
</svg>
