<?xml version="1.0" encoding="utf-8" standalone="no"?>
<!DOCTYPE svg PUBLIC "-//W3C//DTD SVG 1.1//EN"
  "http://www.w3.org/Graphics/SVG/1.1/DTD/svg11.dtd">
<svg xmlns:xlink="http://www.w3.org/1999/xlink" width="460.8pt" height="345.6pt" viewBox="0 0 460.8 345.6" xmlns="http://www.w3.org/2000/svg" version="1.1">
 <metadata>
  <rdf:RDF xmlns:dc="http://purl.org/dc/elements/1.1/" xmlns:cc="http://creativecommons.org/ns#" xmlns:rdf="http://www.w3.org/1999/02/22-rdf-syntax-ns#">
   <cc:Work>
    <dc:type rdf:resource="http://purl.org/dc/dcmitype/StillImage"/>
    <dc:date>2022-06-01T08:05:16.047639</dc:date>
    <dc:format>image/svg+xml</dc:format>
    <dc:creator>
     <cc:Agent>
      <dc:title>Matplotlib v3.5.1, https://matplotlib.org/</dc:title>
     </cc:Agent>
    </dc:creator>
   </cc:Work>
  </rdf:RDF>
 </metadata>
 <defs>
  <style type="text/css">*{stroke-linejoin: round; stroke-linecap: butt}</style>
 </defs>
 <g id="figure_1">
  <g id="patch_1">
   <path d="M 0 345.6 
L 460.8 345.6 
L 460.8 0 
L 0 0 
z
" style="fill: #ffffff"/>
  </g>
  <g id="axes_1">
   <g id="patch_2">
    <path d="M 57.6 307.584 
L 414.72 307.584 
L 414.72 41.472 
L 57.6 41.472 
z
" style="fill: #ffffff"/>
   </g>
   <g id="matplotlib.axis_1">
    <g id="xtick_1">
     <g id="line2d_1">
      <defs>
       <path id="m4b01fbf403" d="M 0 0 
L 0 3.5 
" style="stroke: #000000; stroke-width: 0.8"/>
      </defs>
      <g>
       <use xlink:href="#m4b01fbf403" x="73.832727" y="307.584" style="stroke: #000000; stroke-width: 0.8"/>
      </g>
     </g>
     <g id="text_1">
      <!-- 0 -->
      <g transform="translate(70.651477 322.182437)scale(0.1 -0.1)">
       <defs>
        <path id="DejaVuSans-30" d="M 2034 4250 
Q 1547 4250 1301 3770 
Q 1056 3291 1056 2328 
Q 1056 1369 1301 889 
Q 1547 409 2034 409 
Q 2525 409 2770 889 
Q 3016 1369 3016 2328 
Q 3016 3291 2770 3770 
Q 2525 4250 2034 4250 
z
M 2034 4750 
Q 2819 4750 3233 4129 
Q 3647 3509 3647 2328 
Q 3647 1150 3233 529 
Q 2819 -91 2034 -91 
Q 1250 -91 836 529 
Q 422 1150 422 2328 
Q 422 3509 836 4129 
Q 1250 4750 2034 4750 
z
" transform="scale(0.015625)"/>
       </defs>
       <use xlink:href="#DejaVuSans-30"/>
      </g>
     </g>
    </g>
    <g id="xtick_2">
     <g id="line2d_2">
      <g>
       <use xlink:href="#m4b01fbf403" x="116.913214" y="307.584" style="stroke: #000000; stroke-width: 0.8"/>
      </g>
     </g>
     <g id="text_2">
      <!-- 250 -->
      <g transform="translate(107.369464 322.182437)scale(0.1 -0.1)">
       <defs>
        <path id="DejaVuSans-32" d="M 1228 531 
L 3431 531 
L 3431 0 
L 469 0 
L 469 531 
Q 828 903 1448 1529 
Q 2069 2156 2228 2338 
Q 2531 2678 2651 2914 
Q 2772 3150 2772 3378 
Q 2772 3750 2511 3984 
Q 2250 4219 1831 4219 
Q 1534 4219 1204 4116 
Q 875 4013 500 3803 
L 500 4441 
Q 881 4594 1212 4672 
Q 1544 4750 1819 4750 
Q 2544 4750 2975 4387 
Q 3406 4025 3406 3419 
Q 3406 3131 3298 2873 
Q 3191 2616 2906 2266 
Q 2828 2175 2409 1742 
Q 1991 1309 1228 531 
z
" transform="scale(0.015625)"/>
        <path id="DejaVuSans-35" d="M 691 4666 
L 3169 4666 
L 3169 4134 
L 1269 4134 
L 1269 2991 
Q 1406 3038 1543 3061 
Q 1681 3084 1819 3084 
Q 2600 3084 3056 2656 
Q 3513 2228 3513 1497 
Q 3513 744 3044 326 
Q 2575 -91 1722 -91 
Q 1428 -91 1123 -41 
Q 819 9 494 109 
L 494 744 
Q 775 591 1075 516 
Q 1375 441 1709 441 
Q 2250 441 2565 725 
Q 2881 1009 2881 1497 
Q 2881 1984 2565 2268 
Q 2250 2553 1709 2553 
Q 1456 2553 1204 2497 
Q 953 2441 691 2322 
L 691 4666 
z
" transform="scale(0.015625)"/>
       </defs>
       <use xlink:href="#DejaVuSans-32"/>
       <use xlink:href="#DejaVuSans-35" x="63.623047"/>
       <use xlink:href="#DejaVuSans-30" x="127.246094"/>
      </g>
     </g>
    </g>
    <g id="xtick_3">
     <g id="line2d_3">
      <g>
       <use xlink:href="#m4b01fbf403" x="159.9937" y="307.584" style="stroke: #000000; stroke-width: 0.8"/>
      </g>
     </g>
     <g id="text_3">
      <!-- 500 -->
      <g transform="translate(150.44995 322.182437)scale(0.1 -0.1)">
       <use xlink:href="#DejaVuSans-35"/>
       <use xlink:href="#DejaVuSans-30" x="63.623047"/>
       <use xlink:href="#DejaVuSans-30" x="127.246094"/>
      </g>
     </g>
    </g>
    <g id="xtick_4">
     <g id="line2d_4">
      <g>
       <use xlink:href="#m4b01fbf403" x="203.074186" y="307.584" style="stroke: #000000; stroke-width: 0.8"/>
      </g>
     </g>
     <g id="text_4">
      <!-- 750 -->
      <g transform="translate(193.530436 322.182437)scale(0.1 -0.1)">
       <defs>
        <path id="DejaVuSans-37" d="M 525 4666 
L 3525 4666 
L 3525 4397 
L 1831 0 
L 1172 0 
L 2766 4134 
L 525 4134 
L 525 4666 
z
" transform="scale(0.015625)"/>
       </defs>
       <use xlink:href="#DejaVuSans-37"/>
       <use xlink:href="#DejaVuSans-35" x="63.623047"/>
       <use xlink:href="#DejaVuSans-30" x="127.246094"/>
      </g>
     </g>
    </g>
    <g id="xtick_5">
     <g id="line2d_5">
      <g>
       <use xlink:href="#m4b01fbf403" x="246.154673" y="307.584" style="stroke: #000000; stroke-width: 0.8"/>
      </g>
     </g>
     <g id="text_5">
      <!-- 1000 -->
      <g transform="translate(233.429673 322.182437)scale(0.1 -0.1)">
       <defs>
        <path id="DejaVuSans-31" d="M 794 531 
L 1825 531 
L 1825 4091 
L 703 3866 
L 703 4441 
L 1819 4666 
L 2450 4666 
L 2450 531 
L 3481 531 
L 3481 0 
L 794 0 
L 794 531 
z
" transform="scale(0.015625)"/>
       </defs>
       <use xlink:href="#DejaVuSans-31"/>
       <use xlink:href="#DejaVuSans-30" x="63.623047"/>
       <use xlink:href="#DejaVuSans-30" x="127.246094"/>
       <use xlink:href="#DejaVuSans-30" x="190.869141"/>
      </g>
     </g>
    </g>
    <g id="xtick_6">
     <g id="line2d_6">
      <g>
       <use xlink:href="#m4b01fbf403" x="289.235159" y="307.584" style="stroke: #000000; stroke-width: 0.8"/>
      </g>
     </g>
     <g id="text_6">
      <!-- 1250 -->
      <g transform="translate(276.510159 322.182437)scale(0.1 -0.1)">
       <use xlink:href="#DejaVuSans-31"/>
       <use xlink:href="#DejaVuSans-32" x="63.623047"/>
       <use xlink:href="#DejaVuSans-35" x="127.246094"/>
       <use xlink:href="#DejaVuSans-30" x="190.869141"/>
      </g>
     </g>
    </g>
    <g id="xtick_7">
     <g id="line2d_7">
      <g>
       <use xlink:href="#m4b01fbf403" x="332.315646" y="307.584" style="stroke: #000000; stroke-width: 0.8"/>
      </g>
     </g>
     <g id="text_7">
      <!-- 1500 -->
      <g transform="translate(319.590646 322.182437)scale(0.1 -0.1)">
       <use xlink:href="#DejaVuSans-31"/>
       <use xlink:href="#DejaVuSans-35" x="63.623047"/>
       <use xlink:href="#DejaVuSans-30" x="127.246094"/>
       <use xlink:href="#DejaVuSans-30" x="190.869141"/>
      </g>
     </g>
    </g>
    <g id="xtick_8">
     <g id="line2d_8">
      <g>
       <use xlink:href="#m4b01fbf403" x="375.396132" y="307.584" style="stroke: #000000; stroke-width: 0.8"/>
      </g>
     </g>
     <g id="text_8">
      <!-- 1750 -->
      <g transform="translate(362.671132 322.182437)scale(0.1 -0.1)">
       <use xlink:href="#DejaVuSans-31"/>
       <use xlink:href="#DejaVuSans-37" x="63.623047"/>
       <use xlink:href="#DejaVuSans-35" x="127.246094"/>
       <use xlink:href="#DejaVuSans-30" x="190.869141"/>
      </g>
     </g>
    </g>
    <g id="text_9">
     <!-- num swaps -->
     <g transform="translate(207.826406 335.860562)scale(0.1 -0.1)">
      <defs>
       <path id="DejaVuSans-6e" d="M 3513 2113 
L 3513 0 
L 2938 0 
L 2938 2094 
Q 2938 2591 2744 2837 
Q 2550 3084 2163 3084 
Q 1697 3084 1428 2787 
Q 1159 2491 1159 1978 
L 1159 0 
L 581 0 
L 581 3500 
L 1159 3500 
L 1159 2956 
Q 1366 3272 1645 3428 
Q 1925 3584 2291 3584 
Q 2894 3584 3203 3211 
Q 3513 2838 3513 2113 
z
" transform="scale(0.015625)"/>
       <path id="DejaVuSans-75" d="M 544 1381 
L 544 3500 
L 1119 3500 
L 1119 1403 
Q 1119 906 1312 657 
Q 1506 409 1894 409 
Q 2359 409 2629 706 
Q 2900 1003 2900 1516 
L 2900 3500 
L 3475 3500 
L 3475 0 
L 2900 0 
L 2900 538 
Q 2691 219 2414 64 
Q 2138 -91 1772 -91 
Q 1169 -91 856 284 
Q 544 659 544 1381 
z
M 1991 3584 
L 1991 3584 
z
" transform="scale(0.015625)"/>
       <path id="DejaVuSans-6d" d="M 3328 2828 
Q 3544 3216 3844 3400 
Q 4144 3584 4550 3584 
Q 5097 3584 5394 3201 
Q 5691 2819 5691 2113 
L 5691 0 
L 5113 0 
L 5113 2094 
Q 5113 2597 4934 2840 
Q 4756 3084 4391 3084 
Q 3944 3084 3684 2787 
Q 3425 2491 3425 1978 
L 3425 0 
L 2847 0 
L 2847 2094 
Q 2847 2600 2669 2842 
Q 2491 3084 2119 3084 
Q 1678 3084 1418 2786 
Q 1159 2488 1159 1978 
L 1159 0 
L 581 0 
L 581 3500 
L 1159 3500 
L 1159 2956 
Q 1356 3278 1631 3431 
Q 1906 3584 2284 3584 
Q 2666 3584 2933 3390 
Q 3200 3197 3328 2828 
z
" transform="scale(0.015625)"/>
       <path id="DejaVuSans-20" transform="scale(0.015625)"/>
       <path id="DejaVuSans-73" d="M 2834 3397 
L 2834 2853 
Q 2591 2978 2328 3040 
Q 2066 3103 1784 3103 
Q 1356 3103 1142 2972 
Q 928 2841 928 2578 
Q 928 2378 1081 2264 
Q 1234 2150 1697 2047 
L 1894 2003 
Q 2506 1872 2764 1633 
Q 3022 1394 3022 966 
Q 3022 478 2636 193 
Q 2250 -91 1575 -91 
Q 1294 -91 989 -36 
Q 684 19 347 128 
L 347 722 
Q 666 556 975 473 
Q 1284 391 1588 391 
Q 1994 391 2212 530 
Q 2431 669 2431 922 
Q 2431 1156 2273 1281 
Q 2116 1406 1581 1522 
L 1381 1569 
Q 847 1681 609 1914 
Q 372 2147 372 2553 
Q 372 3047 722 3315 
Q 1072 3584 1716 3584 
Q 2034 3584 2315 3537 
Q 2597 3491 2834 3397 
z
" transform="scale(0.015625)"/>
       <path id="DejaVuSans-77" d="M 269 3500 
L 844 3500 
L 1563 769 
L 2278 3500 
L 2956 3500 
L 3675 769 
L 4391 3500 
L 4966 3500 
L 4050 0 
L 3372 0 
L 2619 2869 
L 1863 0 
L 1184 0 
L 269 3500 
z
" transform="scale(0.015625)"/>
       <path id="DejaVuSans-61" d="M 2194 1759 
Q 1497 1759 1228 1600 
Q 959 1441 959 1056 
Q 959 750 1161 570 
Q 1363 391 1709 391 
Q 2188 391 2477 730 
Q 2766 1069 2766 1631 
L 2766 1759 
L 2194 1759 
z
M 3341 1997 
L 3341 0 
L 2766 0 
L 2766 531 
Q 2569 213 2275 61 
Q 1981 -91 1556 -91 
Q 1019 -91 701 211 
Q 384 513 384 1019 
Q 384 1609 779 1909 
Q 1175 2209 1959 2209 
L 2766 2209 
L 2766 2266 
Q 2766 2663 2505 2880 
Q 2244 3097 1772 3097 
Q 1472 3097 1187 3025 
Q 903 2953 641 2809 
L 641 3341 
Q 956 3463 1253 3523 
Q 1550 3584 1831 3584 
Q 2591 3584 2966 3190 
Q 3341 2797 3341 1997 
z
" transform="scale(0.015625)"/>
       <path id="DejaVuSans-70" d="M 1159 525 
L 1159 -1331 
L 581 -1331 
L 581 3500 
L 1159 3500 
L 1159 2969 
Q 1341 3281 1617 3432 
Q 1894 3584 2278 3584 
Q 2916 3584 3314 3078 
Q 3713 2572 3713 1747 
Q 3713 922 3314 415 
Q 2916 -91 2278 -91 
Q 1894 -91 1617 61 
Q 1341 213 1159 525 
z
M 3116 1747 
Q 3116 2381 2855 2742 
Q 2594 3103 2138 3103 
Q 1681 3103 1420 2742 
Q 1159 2381 1159 1747 
Q 1159 1113 1420 752 
Q 1681 391 2138 391 
Q 2594 391 2855 752 
Q 3116 1113 3116 1747 
z
" transform="scale(0.015625)"/>
      </defs>
      <use xlink:href="#DejaVuSans-6e"/>
      <use xlink:href="#DejaVuSans-75" x="63.378906"/>
      <use xlink:href="#DejaVuSans-6d" x="126.757812"/>
      <use xlink:href="#DejaVuSans-20" x="224.169922"/>
      <use xlink:href="#DejaVuSans-73" x="255.957031"/>
      <use xlink:href="#DejaVuSans-77" x="308.056641"/>
      <use xlink:href="#DejaVuSans-61" x="389.84375"/>
      <use xlink:href="#DejaVuSans-70" x="451.123047"/>
      <use xlink:href="#DejaVuSans-73" x="514.599609"/>
     </g>
    </g>
   </g>
   <g id="matplotlib.axis_2">
    <g id="ytick_1">
     <g id="line2d_9">
      <defs>
       <path id="m37918d6923" d="M 0 0 
L -3.5 0 
" style="stroke: #000000; stroke-width: 0.8"/>
      </defs>
      <g>
       <use xlink:href="#m37918d6923" x="57.6" y="303.9552" style="stroke: #000000; stroke-width: 0.8"/>
      </g>
     </g>
     <g id="text_10">
      <!-- 750 -->
      <g transform="translate(31.5125 307.754419)scale(0.1 -0.1)">
       <use xlink:href="#DejaVuSans-37"/>
       <use xlink:href="#DejaVuSans-35" x="63.623047"/>
       <use xlink:href="#DejaVuSans-30" x="127.246094"/>
      </g>
     </g>
    </g>
    <g id="ytick_2">
     <g id="line2d_10">
      <g>
       <use xlink:href="#m37918d6923" x="57.6" y="273.7152" style="stroke: #000000; stroke-width: 0.8"/>
      </g>
     </g>
     <g id="text_11">
      <!-- 800 -->
      <g transform="translate(31.5125 277.514419)scale(0.1 -0.1)">
       <defs>
        <path id="DejaVuSans-38" d="M 2034 2216 
Q 1584 2216 1326 1975 
Q 1069 1734 1069 1313 
Q 1069 891 1326 650 
Q 1584 409 2034 409 
Q 2484 409 2743 651 
Q 3003 894 3003 1313 
Q 3003 1734 2745 1975 
Q 2488 2216 2034 2216 
z
M 1403 2484 
Q 997 2584 770 2862 
Q 544 3141 544 3541 
Q 544 4100 942 4425 
Q 1341 4750 2034 4750 
Q 2731 4750 3128 4425 
Q 3525 4100 3525 3541 
Q 3525 3141 3298 2862 
Q 3072 2584 2669 2484 
Q 3125 2378 3379 2068 
Q 3634 1759 3634 1313 
Q 3634 634 3220 271 
Q 2806 -91 2034 -91 
Q 1263 -91 848 271 
Q 434 634 434 1313 
Q 434 1759 690 2068 
Q 947 2378 1403 2484 
z
M 1172 3481 
Q 1172 3119 1398 2916 
Q 1625 2713 2034 2713 
Q 2441 2713 2670 2916 
Q 2900 3119 2900 3481 
Q 2900 3844 2670 4047 
Q 2441 4250 2034 4250 
Q 1625 4250 1398 4047 
Q 1172 3844 1172 3481 
z
" transform="scale(0.015625)"/>
       </defs>
       <use xlink:href="#DejaVuSans-38"/>
       <use xlink:href="#DejaVuSans-30" x="63.623047"/>
       <use xlink:href="#DejaVuSans-30" x="127.246094"/>
      </g>
     </g>
    </g>
    <g id="ytick_3">
     <g id="line2d_11">
      <g>
       <use xlink:href="#m37918d6923" x="57.6" y="243.4752" style="stroke: #000000; stroke-width: 0.8"/>
      </g>
     </g>
     <g id="text_12">
      <!-- 850 -->
      <g transform="translate(31.5125 247.274419)scale(0.1 -0.1)">
       <use xlink:href="#DejaVuSans-38"/>
       <use xlink:href="#DejaVuSans-35" x="63.623047"/>
       <use xlink:href="#DejaVuSans-30" x="127.246094"/>
      </g>
     </g>
    </g>
    <g id="ytick_4">
     <g id="line2d_12">
      <g>
       <use xlink:href="#m37918d6923" x="57.6" y="213.2352" style="stroke: #000000; stroke-width: 0.8"/>
      </g>
     </g>
     <g id="text_13">
      <!-- 900 -->
      <g transform="translate(31.5125 217.034419)scale(0.1 -0.1)">
       <defs>
        <path id="DejaVuSans-39" d="M 703 97 
L 703 672 
Q 941 559 1184 500 
Q 1428 441 1663 441 
Q 2288 441 2617 861 
Q 2947 1281 2994 2138 
Q 2813 1869 2534 1725 
Q 2256 1581 1919 1581 
Q 1219 1581 811 2004 
Q 403 2428 403 3163 
Q 403 3881 828 4315 
Q 1253 4750 1959 4750 
Q 2769 4750 3195 4129 
Q 3622 3509 3622 2328 
Q 3622 1225 3098 567 
Q 2575 -91 1691 -91 
Q 1453 -91 1209 -44 
Q 966 3 703 97 
z
M 1959 2075 
Q 2384 2075 2632 2365 
Q 2881 2656 2881 3163 
Q 2881 3666 2632 3958 
Q 2384 4250 1959 4250 
Q 1534 4250 1286 3958 
Q 1038 3666 1038 3163 
Q 1038 2656 1286 2365 
Q 1534 2075 1959 2075 
z
" transform="scale(0.015625)"/>
       </defs>
       <use xlink:href="#DejaVuSans-39"/>
       <use xlink:href="#DejaVuSans-30" x="63.623047"/>
       <use xlink:href="#DejaVuSans-30" x="127.246094"/>
      </g>
     </g>
    </g>
    <g id="ytick_5">
     <g id="line2d_13">
      <g>
       <use xlink:href="#m37918d6923" x="57.6" y="182.9952" style="stroke: #000000; stroke-width: 0.8"/>
      </g>
     </g>
     <g id="text_14">
      <!-- 950 -->
      <g transform="translate(31.5125 186.794419)scale(0.1 -0.1)">
       <use xlink:href="#DejaVuSans-39"/>
       <use xlink:href="#DejaVuSans-35" x="63.623047"/>
       <use xlink:href="#DejaVuSans-30" x="127.246094"/>
      </g>
     </g>
    </g>
    <g id="ytick_6">
     <g id="line2d_14">
      <g>
       <use xlink:href="#m37918d6923" x="57.6" y="152.7552" style="stroke: #000000; stroke-width: 0.8"/>
      </g>
     </g>
     <g id="text_15">
      <!-- 1000 -->
      <g transform="translate(25.15 156.554419)scale(0.1 -0.1)">
       <use xlink:href="#DejaVuSans-31"/>
       <use xlink:href="#DejaVuSans-30" x="63.623047"/>
       <use xlink:href="#DejaVuSans-30" x="127.246094"/>
       <use xlink:href="#DejaVuSans-30" x="190.869141"/>
      </g>
     </g>
    </g>
    <g id="ytick_7">
     <g id="line2d_15">
      <g>
       <use xlink:href="#m37918d6923" x="57.6" y="122.5152" style="stroke: #000000; stroke-width: 0.8"/>
      </g>
     </g>
     <g id="text_16">
      <!-- 1050 -->
      <g transform="translate(25.15 126.314419)scale(0.1 -0.1)">
       <use xlink:href="#DejaVuSans-31"/>
       <use xlink:href="#DejaVuSans-30" x="63.623047"/>
       <use xlink:href="#DejaVuSans-35" x="127.246094"/>
       <use xlink:href="#DejaVuSans-30" x="190.869141"/>
      </g>
     </g>
    </g>
    <g id="ytick_8">
     <g id="line2d_16">
      <g>
       <use xlink:href="#m37918d6923" x="57.6" y="92.2752" style="stroke: #000000; stroke-width: 0.8"/>
      </g>
     </g>
     <g id="text_17">
      <!-- 1100 -->
      <g transform="translate(25.15 96.074419)scale(0.1 -0.1)">
       <use xlink:href="#DejaVuSans-31"/>
       <use xlink:href="#DejaVuSans-31" x="63.623047"/>
       <use xlink:href="#DejaVuSans-30" x="127.246094"/>
       <use xlink:href="#DejaVuSans-30" x="190.869141"/>
      </g>
     </g>
    </g>
    <g id="ytick_9">
     <g id="line2d_17">
      <g>
       <use xlink:href="#m37918d6923" x="57.6" y="62.0352" style="stroke: #000000; stroke-width: 0.8"/>
      </g>
     </g>
     <g id="text_18">
      <!-- 1150 -->
      <g transform="translate(25.15 65.834419)scale(0.1 -0.1)">
       <use xlink:href="#DejaVuSans-31"/>
       <use xlink:href="#DejaVuSans-31" x="63.623047"/>
       <use xlink:href="#DejaVuSans-35" x="127.246094"/>
       <use xlink:href="#DejaVuSans-30" x="190.869141"/>
      </g>
     </g>
    </g>
    <g id="text_19">
     <!-- total cost -->
     <g transform="translate(19.070312 197.923313)rotate(-90)scale(0.1 -0.1)">
      <defs>
       <path id="DejaVuSans-74" d="M 1172 4494 
L 1172 3500 
L 2356 3500 
L 2356 3053 
L 1172 3053 
L 1172 1153 
Q 1172 725 1289 603 
Q 1406 481 1766 481 
L 2356 481 
L 2356 0 
L 1766 0 
Q 1100 0 847 248 
Q 594 497 594 1153 
L 594 3053 
L 172 3053 
L 172 3500 
L 594 3500 
L 594 4494 
L 1172 4494 
z
" transform="scale(0.015625)"/>
       <path id="DejaVuSans-6f" d="M 1959 3097 
Q 1497 3097 1228 2736 
Q 959 2375 959 1747 
Q 959 1119 1226 758 
Q 1494 397 1959 397 
Q 2419 397 2687 759 
Q 2956 1122 2956 1747 
Q 2956 2369 2687 2733 
Q 2419 3097 1959 3097 
z
M 1959 3584 
Q 2709 3584 3137 3096 
Q 3566 2609 3566 1747 
Q 3566 888 3137 398 
Q 2709 -91 1959 -91 
Q 1206 -91 779 398 
Q 353 888 353 1747 
Q 353 2609 779 3096 
Q 1206 3584 1959 3584 
z
" transform="scale(0.015625)"/>
       <path id="DejaVuSans-6c" d="M 603 4863 
L 1178 4863 
L 1178 0 
L 603 0 
L 603 4863 
z
" transform="scale(0.015625)"/>
       <path id="DejaVuSans-63" d="M 3122 3366 
L 3122 2828 
Q 2878 2963 2633 3030 
Q 2388 3097 2138 3097 
Q 1578 3097 1268 2742 
Q 959 2388 959 1747 
Q 959 1106 1268 751 
Q 1578 397 2138 397 
Q 2388 397 2633 464 
Q 2878 531 3122 666 
L 3122 134 
Q 2881 22 2623 -34 
Q 2366 -91 2075 -91 
Q 1284 -91 818 406 
Q 353 903 353 1747 
Q 353 2603 823 3093 
Q 1294 3584 2113 3584 
Q 2378 3584 2631 3529 
Q 2884 3475 3122 3366 
z
" transform="scale(0.015625)"/>
      </defs>
      <use xlink:href="#DejaVuSans-74"/>
      <use xlink:href="#DejaVuSans-6f" x="39.208984"/>
      <use xlink:href="#DejaVuSans-74" x="100.390625"/>
      <use xlink:href="#DejaVuSans-61" x="139.599609"/>
      <use xlink:href="#DejaVuSans-6c" x="200.878906"/>
      <use xlink:href="#DejaVuSans-20" x="228.662109"/>
      <use xlink:href="#DejaVuSans-63" x="260.449219"/>
      <use xlink:href="#DejaVuSans-6f" x="315.429688"/>
      <use xlink:href="#DejaVuSans-73" x="376.611328"/>
      <use xlink:href="#DejaVuSans-74" x="428.710938"/>
     </g>
    </g>
   </g>
   <g id="line2d_18">
    <path d="M 73.832727 175.7376 
L 74.177371 143.0784 
L 74.522015 152.1504 
L 74.866659 140.0544 
L 75.211303 135.216 
L 75.555947 135.216 
L 75.900591 131.5872 
L 76.245235 132.192 
L 76.589878 135.216 
L 76.934522 132.7968 
L 77.279166 172.7136 
L 77.62381 169.6896 
L 77.968454 164.8512 
L 78.313098 156.384 
L 79.002386 167.2704 
L 79.34703 166.6656 
L 79.691673 160.0128 
L 80.036317 166.6656 
L 80.380961 190.8576 
L 80.725605 181.1808 
L 81.070249 201.1392 
L 81.414893 205.9776 
L 81.759537 191.4624 
L 82.104181 190.8576 
L 82.448825 192.0672 
L 82.793468 196.9056 
L 83.138112 186.0192 
L 83.482756 192.0672 
L 83.8274 176.3424 
L 84.172044 175.7376 
L 84.516688 166.6656 
L 84.861332 166.6656 
L 85.205976 148.5216 
L 85.55062 144.8928 
L 85.895263 143.6832 
L 86.239907 141.264 
L 86.584551 146.1024 
L 86.929195 156.9888 
L 87.273839 188.4384 
L 87.618483 181.1808 
L 87.963127 202.9536 
L 88.307771 201.744 
L 88.652415 173.9232 
L 88.997058 169.6896 
L 89.341702 198.72 
L 90.03099 175.7376 
L 90.375634 182.9952 
L 90.720278 181.1808 
L 91.064922 173.9232 
L 91.409566 162.432 
L 91.75421 136.4256 
L 92.098854 145.4976 
L 92.443497 134.6112 
L 92.788141 118.2816 
L 93.132785 107.3952 
L 93.822073 134.0064 
L 94.166717 137.6352 
L 94.511361 133.4016 
L 94.856005 125.5392 
L 95.200649 124.9344 
L 95.545292 122.5152 
L 95.889936 117.6768 
L 96.23458 99.5328 
L 96.579224 124.9344 
L 96.923868 114.6528 
L 97.268512 123.7248 
L 97.613156 124.9344 
L 97.9578 137.0304 
L 98.302444 138.24 
L 98.647087 144.288 
L 98.991731 142.4736 
L 99.336375 150.9408 
L 99.681019 142.4736 
L 100.025663 140.0544 
L 100.370307 105.5808 
L 100.714951 105.5808 
L 101.404239 115.2576 
L 101.748882 124.3296 
L 102.43817 90.4608 
L 102.782814 83.2032 
L 103.472102 62.64 
L 103.816746 54.7776 
L 104.16139 53.568 
L 104.506034 69.8976 
L 104.850677 66.2688 
L 105.195321 72.3168 
L 105.539965 94.0896 
L 105.884609 102.5568 
L 106.229253 102.5568 
L 106.573897 98.928 
L 106.918541 104.976 
L 107.263185 124.9344 
L 107.607829 117.6768 
L 107.952472 145.4976 
L 108.297116 158.8032 
L 108.64176 152.7552 
L 108.986404 158.8032 
L 109.331048 127.3536 
L 109.675692 120.7008 
L 110.020336 127.9584 
L 110.36498 123.12 
L 110.709624 132.7968 
L 111.054268 146.1024 
L 111.743555 156.9888 
L 112.088199 162.432 
L 112.432843 163.0368 
L 112.777487 150.336 
L 113.122131 124.9344 
L 113.466775 125.5392 
L 113.811419 134.6112 
L 114.156063 150.336 
L 114.500706 155.7792 
L 114.84535 143.6832 
L 115.189994 163.0368 
L 115.534638 166.6656 
L 115.879282 177.552 
L 116.223926 169.6896 
L 116.56857 182.3904 
L 116.913214 177.552 
L 117.257858 169.6896 
L 117.602501 172.1088 
L 117.947145 168.48 
L 118.291789 184.2048 
L 118.636433 178.1568 
L 118.981077 176.3424 
L 119.325721 178.7616 
L 119.670365 184.8096 
L 120.359653 171.504 
L 120.704296 172.7136 
L 121.04894 172.7136 
L 121.393584 173.9232 
L 121.738228 179.3664 
L 122.082872 179.9712 
L 122.427516 158.1984 
L 122.77216 156.9888 
L 123.461448 161.2224 
L 123.806091 152.7552 
L 124.150735 165.456 
L 124.495379 156.384 
L 124.840023 176.9472 
L 125.184667 169.6896 
L 125.529311 169.6896 
L 125.873955 165.456 
L 126.218599 166.6656 
L 126.907887 160.6176 
L 127.25253 142.4736 
L 127.597174 97.7184 
L 127.941818 100.1376 
L 128.286462 97.7184 
L 128.631106 108.6048 
L 128.97575 126.144 
L 129.320394 127.3536 
L 129.665038 149.1264 
L 130.009682 143.6832 
L 130.354325 152.1504 
L 130.698969 136.4256 
L 131.043613 138.8448 
L 131.388257 126.7488 
L 131.732901 134.0064 
L 132.077545 136.4256 
L 132.422189 133.4016 
L 132.766833 127.3536 
L 133.111477 124.9344 
L 133.45612 117.6768 
L 133.800764 127.3536 
L 134.145408 146.7072 
L 134.490052 147.312 
L 134.834696 146.7072 
L 135.17934 147.9168 
L 135.868628 141.8688 
L 136.213272 143.0784 
L 136.557915 134.0064 
L 136.902559 130.9824 
L 137.247203 140.6592 
L 137.591847 139.4496 
L 137.936491 143.6832 
L 138.281135 136.4256 
L 138.625779 136.4256 
L 138.970423 142.4736 
L 139.315067 141.8688 
L 139.65971 141.8688 
L 140.004354 145.4976 
L 140.348998 143.0784 
L 140.693642 135.216 
L 141.038286 137.6352 
L 141.38293 138.8448 
L 141.727574 127.9584 
L 142.072218 135.216 
L 142.416862 135.216 
L 142.761506 149.7312 
L 143.106149 149.7312 
L 143.450793 158.1984 
L 143.795437 152.1504 
L 144.140081 143.6832 
L 144.484725 141.264 
L 144.829369 134.6112 
L 145.174013 132.192 
L 145.518657 132.7968 
L 146.207944 144.8928 
L 146.552588 124.3296 
L 146.897232 143.6832 
L 147.241876 147.312 
L 147.58652 137.6352 
L 147.931164 140.0544 
L 148.275808 138.24 
L 148.620452 144.8928 
L 148.965096 142.4736 
L 149.654383 123.7248 
L 149.999027 125.5392 
L 150.343671 114.048 
L 150.688315 112.8384 
L 151.032959 105.5808 
L 151.722247 97.1136 
L 152.411534 124.9344 
L 152.756178 120.096 
L 153.100822 122.5152 
L 153.445466 116.4672 
L 153.79011 116.4672 
L 154.134754 111.6288 
L 154.479398 114.6528 
L 154.824042 112.8384 
L 155.168686 100.7424 
L 155.513329 93.4848 
L 155.857973 113.4432 
L 156.202617 98.3232 
L 156.891905 103.1616 
L 157.236549 113.4432 
L 157.581193 119.4912 
L 157.925837 121.9104 
L 158.270481 134.6112 
L 158.615124 136.4256 
L 158.959768 140.0544 
L 159.304412 156.9888 
L 159.649056 154.5696 
L 159.9937 173.9232 
L 160.338344 179.3664 
L 160.682988 152.7552 
L 161.027632 160.6176 
L 161.372276 149.1264 
L 161.71692 178.7616 
L 162.061563 183.6 
L 162.406207 182.9952 
L 162.750851 191.4624 
L 163.095495 181.7856 
L 163.440139 192.0672 
L 163.784783 176.9472 
L 164.129427 199.9296 
L 164.474071 205.9776 
L 164.818715 198.1152 
L 165.163358 201.1392 
L 165.508002 210.816 
L 165.852646 200.5344 
L 166.19729 201.744 
L 166.886578 162.432 
L 167.231222 160.0128 
L 167.575866 164.8512 
L 167.92051 157.5936 
L 168.265153 166.6656 
L 168.609797 164.8512 
L 168.954441 178.1568 
L 169.299085 186.624 
L 169.643729 167.2704 
L 169.988373 170.2944 
L 170.333017 169.0848 
L 170.677661 169.6896 
L 171.022305 163.6416 
L 171.366948 166.0608 
L 172.056236 137.0304 
L 172.40088 137.6352 
L 172.745524 144.288 
L 173.090168 146.7072 
L 173.779456 129.7728 
L 174.1241 124.9344 
L 174.468743 130.9824 
L 174.813387 140.0544 
L 175.158031 159.408 
L 175.502675 167.8752 
L 175.847319 165.456 
L 176.191963 158.1984 
L 176.536607 167.8752 
L 176.881251 166.6656 
L 177.570539 176.9472 
L 177.915182 175.7376 
L 178.60447 157.5936 
L 178.949114 158.8032 
L 179.293758 145.4976 
L 179.638402 163.6416 
L 179.983046 161.2224 
L 180.32769 155.1744 
L 180.672334 155.7792 
L 181.016977 151.5456 
L 181.361621 166.0608 
L 181.706265 150.336 
L 182.050909 151.5456 
L 182.395553 161.8272 
L 182.740197 158.1984 
L 183.084841 160.0128 
L 183.429485 163.6416 
L 183.774129 168.48 
L 184.118772 164.2464 
L 184.463416 167.2704 
L 184.80806 172.1088 
L 185.497348 160.0128 
L 185.841992 151.5456 
L 186.186636 151.5456 
L 186.53128 140.6592 
L 187.220567 157.5936 
L 187.565211 162.432 
L 187.909855 162.432 
L 188.599143 144.8928 
L 188.943787 149.7312 
L 189.288431 166.6656 
L 189.633075 161.2224 
L 189.977719 158.8032 
L 190.322362 153.36 
L 191.01165 161.2224 
L 191.700938 134.0064 
L 192.045582 132.7968 
L 192.390226 124.9344 
L 192.73487 109.2096 
L 193.424157 100.1376 
L 193.768801 118.8864 
L 194.113445 127.3536 
L 194.458089 120.7008 
L 194.802733 125.5392 
L 195.147377 138.8448 
L 195.492021 140.0544 
L 195.836665 137.6352 
L 196.181309 138.8448 
L 196.525953 123.12 
L 196.870596 129.168 
L 197.21524 144.288 
L 197.904528 137.6352 
L 198.249172 144.8928 
L 198.593816 138.8448 
L 198.93846 136.4256 
L 199.627748 129.168 
L 199.972391 149.7312 
L 200.317035 152.7552 
L 200.661679 150.336 
L 201.006323 178.1568 
L 202.040255 204.1632 
L 202.384899 205.9776 
L 202.729543 205.9776 
L 203.074186 197.5104 
L 203.41883 210.816 
L 203.763474 207.1872 
L 204.452762 187.8336 
L 204.797406 201.1392 
L 205.14205 201.1392 
L 205.486694 212.0256 
L 205.831338 193.8816 
L 206.175981 202.9536 
L 206.520625 201.744 
L 206.865269 204.1632 
L 207.209913 175.7376 
L 207.554557 160.6176 
L 207.899201 156.9888 
L 208.243845 157.5936 
L 208.588489 165.456 
L 209.277776 163.0368 
L 209.62242 175.7376 
L 210.311708 192.0672 
L 210.656352 182.3904 
L 211.000996 185.4144 
L 211.34564 182.9952 
L 211.690284 182.3904 
L 212.034928 190.2528 
L 212.379572 189.0432 
L 212.724215 196.3008 
L 213.068859 193.8816 
L 213.413503 203.5584 
L 213.758147 175.7376 
L 214.102791 164.8512 
L 214.447435 160.6176 
L 214.792079 163.0368 
L 215.136723 154.5696 
L 215.481367 156.384 
L 215.82601 161.8272 
L 216.170654 169.0848 
L 216.515298 172.7136 
L 216.859942 163.0368 
L 217.204586 166.6656 
L 217.54923 160.6176 
L 217.893874 156.9888 
L 218.238518 173.9232 
L 218.583162 173.9232 
L 218.927805 165.456 
L 219.272449 176.9472 
L 219.617093 166.6656 
L 219.961737 167.8752 
L 220.306381 181.1808 
L 220.651025 182.3904 
L 220.995669 172.1088 
L 221.340313 177.552 
L 221.684957 176.3424 
L 222.0296 187.8336 
L 222.374244 212.0256 
L 222.718888 227.7504 
L 223.063532 213.2352 
L 223.75282 199.9296 
L 224.097464 196.9056 
L 224.442108 198.1152 
L 224.786752 201.744 
L 225.131395 210.2112 
L 225.476039 189.0432 
L 225.820683 192.0672 
L 226.165327 200.5344 
L 226.509971 178.1568 
L 226.854615 175.1328 
L 227.199259 168.48 
L 227.888547 141.8688 
L 228.233191 142.4736 
L 228.577834 137.6352 
L 228.922478 144.288 
L 229.267122 148.5216 
L 229.611766 158.1984 
L 229.95641 163.0368 
L 230.301054 159.408 
L 230.645698 177.552 
L 230.990342 158.8032 
L 231.334986 161.2224 
L 231.679629 166.0608 
L 232.024273 150.9408 
L 232.368917 151.5456 
L 232.713561 148.5216 
L 233.058205 155.1744 
L 233.747493 132.192 
L 234.092137 123.7248 
L 234.436781 127.3536 
L 234.781424 124.3296 
L 235.126068 127.3536 
L 235.470712 127.3536 
L 236.16 118.2816 
L 236.504644 119.4912 
L 236.849288 126.7488 
L 237.193932 127.9584 
L 237.538576 147.312 
L 237.883219 150.9408 
L 238.227863 146.1024 
L 238.572507 146.1024 
L 238.917151 149.1264 
L 239.261795 137.0304 
L 239.606439 137.0304 
L 239.951083 127.9584 
L 240.295727 122.5152 
L 240.640371 121.9104 
L 240.985014 133.4016 
L 241.329658 135.8208 
L 241.674302 133.4016 
L 242.018946 163.6416 
L 242.36359 162.432 
L 242.708234 169.6896 
L 243.052878 170.2944 
L 243.397522 186.624 
L 243.742166 174.528 
L 244.086809 193.8816 
L 244.431453 194.4864 
L 244.776097 170.2944 
L 245.120741 176.3424 
L 245.465385 178.7616 
L 245.810029 164.8512 
L 246.154673 180.576 
L 246.499317 164.8512 
L 246.843961 172.1088 
L 247.188605 162.432 
L 247.533248 170.2944 
L 247.877892 162.432 
L 248.222536 162.432 
L 248.56718 158.1984 
L 248.911824 161.2224 
L 249.256468 154.5696 
L 249.601112 155.7792 
L 249.945756 153.9648 
L 250.2904 155.7792 
L 250.635043 148.5216 
L 251.324331 163.0368 
L 251.668975 165.456 
L 252.013619 175.7376 
L 252.358263 175.1328 
L 253.047551 170.2944 
L 253.392195 155.7792 
L 253.736838 163.0368 
L 254.081482 160.0128 
L 254.426126 152.7552 
L 254.77077 152.1504 
L 255.115414 165.456 
L 255.460058 154.5696 
L 255.804702 164.8512 
L 256.149346 159.408 
L 256.49399 161.8272 
L 256.838633 159.408 
L 257.183277 162.432 
L 257.527921 151.5456 
L 257.872565 153.9648 
L 258.217209 143.6832 
L 258.561853 143.6832 
L 258.906497 154.5696 
L 259.251141 155.7792 
L 259.595785 152.1504 
L 259.940428 164.2464 
L 260.285072 155.7792 
L 260.97436 171.504 
L 261.319004 177.552 
L 261.663648 172.1088 
L 262.008292 164.2464 
L 262.352936 173.9232 
L 262.69758 149.1264 
L 263.042224 150.9408 
L 263.386867 166.6656 
L 263.731511 168.48 
L 264.076155 200.5344 
L 264.420799 201.744 
L 264.765443 194.4864 
L 265.110087 199.3248 
L 265.454731 201.744 
L 265.799375 186.624 
L 266.144019 181.7856 
L 266.833306 178.1568 
L 267.17795 195.0912 
L 267.522594 190.8576 
L 267.867238 202.3488 
L 268.556526 207.1872 
L 268.90117 199.9296 
L 269.245814 196.3008 
L 269.590457 200.5344 
L 269.935101 202.3488 
L 270.279745 207.792 
L 270.624389 201.744 
L 270.969033 187.2288 
L 271.313677 186.0192 
L 271.658321 197.5104 
L 272.347609 175.1328 
L 272.692252 193.8816 
L 273.036896 219.2832 
L 273.38154 224.1216 
L 273.726184 234.4032 
L 274.415472 223.5168 
L 275.10476 205.3728 
L 275.449404 210.816 
L 275.794047 205.3728 
L 276.138691 207.792 
L 276.483335 201.744 
L 276.827979 209.0016 
L 277.172623 193.2768 
L 277.517267 197.5104 
L 277.861911 189.648 
L 278.206555 193.2768 
L 278.551199 192.0672 
L 278.895843 195.696 
L 279.240486 198.1152 
L 279.58513 199.3248 
L 279.929774 194.4864 
L 280.619062 166.0608 
L 280.963706 190.8576 
L 281.30835 193.2768 
L 281.652994 215.0496 
L 281.997638 215.6544 
L 282.342281 214.4448 
L 282.686925 210.2112 
L 283.031569 223.5168 
L 283.376213 225.936 
L 283.720857 254.9664 
L 284.065501 239.2416 
L 284.410145 236.8224 
L 284.754789 227.1456 
L 285.099433 246.4992 
L 285.444076 239.2416 
L 285.78872 237.4272 
L 286.133364 227.1456 
L 286.822652 241.6608 
L 287.167296 245.8944 
L 287.51194 239.8464 
L 288.201228 245.8944 
L 288.545871 224.7264 
L 288.890515 212.0256 
L 289.235159 215.0496 
L 289.579803 215.0496 
L 289.924447 202.3488 
L 290.269091 202.9536 
L 290.613735 189.648 
L 290.958379 189.0432 
L 291.303023 192.0672 
L 291.647666 188.4384 
L 291.99231 141.264 
L 292.336954 142.4736 
L 292.681598 130.9824 
L 293.026242 123.7248 
L 293.370886 127.9584 
L 293.71553 147.312 
L 294.060174 146.7072 
L 294.404818 152.7552 
L 294.749461 162.432 
L 295.094105 162.432 
L 295.438749 163.0368 
L 295.783393 164.2464 
L 296.472681 182.9952 
L 296.817325 199.9296 
L 297.161969 179.9712 
L 297.506613 175.1328 
L 298.1959 192.672 
L 298.540544 168.48 
L 298.885188 163.6416 
L 299.229832 149.1264 
L 299.574476 173.3184 
L 300.263764 149.7312 
L 300.608408 158.1984 
L 300.953052 154.5696 
L 301.297695 166.6656 
L 301.642339 152.1504 
L 301.986983 153.9648 
L 302.331627 163.0368 
L 303.365559 174.528 
L 303.710203 189.0432 
L 304.054847 178.7616 
L 304.39949 178.1568 
L 304.744134 182.9952 
L 305.433422 219.2832 
L 305.778066 217.4688 
L 306.12271 207.792 
L 306.467354 205.3728 
L 306.811998 216.2592 
L 307.156642 209.0016 
L 307.845929 184.2048 
L 308.190573 190.2528 
L 308.535217 172.1088 
L 308.879861 166.0608 
L 309.569149 179.3664 
L 309.913793 190.2528 
L 310.258437 192.0672 
L 310.60308 201.744 
L 310.947724 202.9536 
L 311.292368 207.792 
L 311.637012 205.3728 
L 311.981656 218.6784 
L 312.3263 225.936 
L 312.670944 230.7744 
L 313.015588 213.2352 
L 313.360232 216.864 
L 313.704876 204.768 
L 314.049519 197.5104 
L 314.738807 207.1872 
L 315.083451 200.5344 
L 315.428095 197.5104 
L 315.772739 186.624 
L 316.117383 193.2768 
L 316.462027 190.8576 
L 316.806671 194.4864 
L 317.151314 206.5824 
L 317.495958 202.3488 
L 317.840602 224.1216 
L 318.185246 225.3312 
L 318.52989 224.1216 
L 318.874534 225.3312 
L 319.219178 222.912 
L 319.563822 219.2832 
L 320.253109 240.4512 
L 320.597753 239.2416 
L 321.287041 224.7264 
L 321.976329 233.1936 
L 322.320973 250.128 
L 322.665617 243.4752 
L 323.010261 247.104 
L 323.699548 242.8704 
L 324.044192 250.128 
L 324.388836 248.3136 
L 324.73348 243.4752 
L 325.422768 220.4928 
L 325.767412 226.5408 
L 326.112056 220.4928 
L 326.456699 218.0736 
L 327.490631 201.744 
L 327.835275 190.8576 
L 328.179919 209.0016 
L 328.524563 204.1632 
L 328.869207 224.1216 
L 329.213851 222.912 
L 329.903138 215.0496 
L 330.247782 196.3008 
L 330.592426 191.4624 
L 330.93707 205.3728 
L 331.281714 205.9776 
L 331.626358 201.744 
L 331.971002 192.0672 
L 332.315646 190.2528 
L 333.004933 200.5344 
L 333.349577 195.696 
L 333.694221 195.696 
L 334.038865 225.936 
L 334.383509 220.4928 
L 334.728153 222.912 
L 335.072797 215.6544 
L 335.417441 183.6 
L 336.451372 209.6064 
L 336.796016 210.816 
L 337.14066 184.2048 
L 337.485304 188.4384 
L 337.829948 194.4864 
L 338.174592 210.2112 
L 338.519236 212.6304 
L 338.86388 233.1936 
L 339.208523 227.7504 
L 339.553167 225.936 
L 340.242455 251.3376 
L 340.587099 248.9184 
L 340.931743 244.08 
L 341.276387 241.6608 
L 341.621031 221.7024 
L 341.965675 231.3792 
L 342.310318 231.984 
L 342.654962 231.984 
L 342.999606 233.7984 
L 343.34425 230.1696 
L 343.688894 233.7984 
L 344.033538 224.7264 
L 344.378182 222.3072 
L 344.722826 221.0976 
L 345.06747 216.864 
L 345.756757 220.4928 
L 346.446045 218.0736 
L 346.790689 220.4928 
L 347.135333 205.9776 
L 347.824621 196.9056 
L 348.169265 202.9536 
L 348.513909 191.4624 
L 348.858552 187.2288 
L 349.203196 171.504 
L 349.54784 164.8512 
L 349.892484 162.432 
L 350.926416 195.696 
L 351.27106 198.1152 
L 351.615704 177.552 
L 351.960347 195.696 
L 352.304991 188.4384 
L 352.649635 184.2048 
L 352.994279 190.2528 
L 353.338923 182.9952 
L 353.683567 195.0912 
L 354.028211 193.2768 
L 354.372855 168.48 
L 354.717499 166.0608 
L 355.062142 157.5936 
L 355.406786 157.5936 
L 355.75143 160.6176 
L 356.096074 179.9712 
L 356.440718 182.3904 
L 357.130006 181.1808 
L 357.47465 184.2048 
L 357.819294 197.5104 
L 358.163937 200.5344 
L 358.508581 207.792 
L 358.853225 205.3728 
L 359.197869 205.3728 
L 359.542513 206.5824 
L 359.887157 210.816 
L 360.231801 222.3072 
L 360.576445 219.2832 
L 360.921089 222.912 
L 361.265732 235.6128 
L 361.610376 231.984 
L 361.95502 221.7024 
L 362.299664 221.7024 
L 362.644308 216.864 
L 362.988952 226.5408 
L 363.333596 224.1216 
L 363.67824 224.7264 
L 364.022884 241.6608 
L 364.367528 216.2592 
L 364.712171 216.2592 
L 365.056815 223.5168 
L 365.401459 215.0496 
L 365.746103 223.5168 
L 366.090747 265.8528 
L 366.435391 258.5952 
L 366.780035 266.4576 
L 367.124679 267.0624 
L 367.469323 261.6192 
L 367.813966 258.5952 
L 368.15861 265.8528 
L 368.503254 270.6912 
L 368.847898 267.0624 
L 369.192542 270.6912 
L 369.537186 254.9664 
L 369.88183 247.104 
L 370.226474 267.6672 
L 370.571118 261.6192 
L 370.915761 251.3376 
L 371.260405 251.3376 
L 371.605049 252.5472 
L 371.949693 248.9184 
L 372.294337 255.5712 
L 372.638981 248.3136 
L 373.328269 279.1584 
L 373.672913 283.9968 
L 374.017556 276.7392 
L 374.3622 276.7392 
L 374.706844 285.2064 
L 375.051488 286.416 
L 375.396132 285.2064 
L 375.740776 285.2064 
L 376.08542 287.6256 
L 376.430064 287.0208 
L 376.774708 295.488 
L 377.119351 289.44 
L 377.463995 288.8352 
L 377.808639 271.296 
L 378.153283 271.296 
L 378.497927 266.4576 
L 378.842571 254.3616 
L 379.876503 235.008 
L 380.221146 249.5232 
L 380.56579 253.152 
L 381.255078 242.8704 
L 381.599722 240.4512 
L 382.28901 247.104 
L 382.633654 239.8464 
L 382.978298 242.2656 
L 383.322942 250.7328 
L 383.667585 256.176 
L 384.012229 247.7088 
L 384.356873 255.5712 
L 384.701517 258.5952 
L 385.046161 270.0864 
L 385.390805 266.4576 
L 385.735449 270.6912 
L 386.76938 262.8288 
L 387.114024 250.7328 
L 387.458668 245.8944 
L 387.803312 264.0384 
L 388.147956 265.248 
L 388.4926 259.2 
L 388.837244 262.224 
L 389.181888 270.0864 
L 389.526532 269.4816 
L 389.871175 267.6672 
L 390.215819 273.7152 
L 390.560463 270.0864 
L 390.905107 270.6912 
L 391.249751 270.6912 
L 391.594395 281.5776 
L 392.628327 269.4816 
L 392.97297 258.5952 
L 393.317614 255.5712 
L 393.662258 253.7568 
L 394.006902 253.152 
L 394.351546 265.248 
L 394.69619 254.3616 
L 395.040834 253.152 
L 395.385478 259.2 
L 395.730122 254.9664 
L 396.074765 264.6432 
L 396.419409 259.8048 
L 396.764053 259.2 
L 397.108697 273.7152 
L 397.453341 272.5056 
L 397.797985 270.0864 
L 398.142629 275.5296 
L 398.487273 273.1104 
L 398.487273 273.1104 
" clip-path="url(#p326265b464)" style="fill: none; stroke: #1f77b4; stroke-width: 1.5; stroke-linecap: square"/>
   </g>
   <g id="patch_3">
    <path d="M 57.6 307.584 
L 57.6 41.472 
" style="fill: none; stroke: #000000; stroke-width: 0.8; stroke-linejoin: miter; stroke-linecap: square"/>
   </g>
   <g id="patch_4">
    <path d="M 414.72 307.584 
L 414.72 41.472 
" style="fill: none; stroke: #000000; stroke-width: 0.8; stroke-linejoin: miter; stroke-linecap: square"/>
   </g>
   <g id="patch_5">
    <path d="M 57.6 307.584 
L 414.72 307.584 
" style="fill: none; stroke: #000000; stroke-width: 0.8; stroke-linejoin: miter; stroke-linecap: square"/>
   </g>
   <g id="patch_6">
    <path d="M 57.6 41.472 
L 414.72 41.472 
" style="fill: none; stroke: #000000; stroke-width: 0.8; stroke-linejoin: miter; stroke-linecap: square"/>
   </g>
   <g id="text_20">
    <!-- Simulated Anealling Cost -->
    <g transform="translate(160.8 35.472)scale(0.12 -0.12)">
     <defs>
      <path id="DejaVuSans-53" d="M 3425 4513 
L 3425 3897 
Q 3066 4069 2747 4153 
Q 2428 4238 2131 4238 
Q 1616 4238 1336 4038 
Q 1056 3838 1056 3469 
Q 1056 3159 1242 3001 
Q 1428 2844 1947 2747 
L 2328 2669 
Q 3034 2534 3370 2195 
Q 3706 1856 3706 1288 
Q 3706 609 3251 259 
Q 2797 -91 1919 -91 
Q 1588 -91 1214 -16 
Q 841 59 441 206 
L 441 856 
Q 825 641 1194 531 
Q 1563 422 1919 422 
Q 2459 422 2753 634 
Q 3047 847 3047 1241 
Q 3047 1584 2836 1778 
Q 2625 1972 2144 2069 
L 1759 2144 
Q 1053 2284 737 2584 
Q 422 2884 422 3419 
Q 422 4038 858 4394 
Q 1294 4750 2059 4750 
Q 2388 4750 2728 4690 
Q 3069 4631 3425 4513 
z
" transform="scale(0.015625)"/>
      <path id="DejaVuSans-69" d="M 603 3500 
L 1178 3500 
L 1178 0 
L 603 0 
L 603 3500 
z
M 603 4863 
L 1178 4863 
L 1178 4134 
L 603 4134 
L 603 4863 
z
" transform="scale(0.015625)"/>
      <path id="DejaVuSans-65" d="M 3597 1894 
L 3597 1613 
L 953 1613 
Q 991 1019 1311 708 
Q 1631 397 2203 397 
Q 2534 397 2845 478 
Q 3156 559 3463 722 
L 3463 178 
Q 3153 47 2828 -22 
Q 2503 -91 2169 -91 
Q 1331 -91 842 396 
Q 353 884 353 1716 
Q 353 2575 817 3079 
Q 1281 3584 2069 3584 
Q 2775 3584 3186 3129 
Q 3597 2675 3597 1894 
z
M 3022 2063 
Q 3016 2534 2758 2815 
Q 2500 3097 2075 3097 
Q 1594 3097 1305 2825 
Q 1016 2553 972 2059 
L 3022 2063 
z
" transform="scale(0.015625)"/>
      <path id="DejaVuSans-64" d="M 2906 2969 
L 2906 4863 
L 3481 4863 
L 3481 0 
L 2906 0 
L 2906 525 
Q 2725 213 2448 61 
Q 2172 -91 1784 -91 
Q 1150 -91 751 415 
Q 353 922 353 1747 
Q 353 2572 751 3078 
Q 1150 3584 1784 3584 
Q 2172 3584 2448 3432 
Q 2725 3281 2906 2969 
z
M 947 1747 
Q 947 1113 1208 752 
Q 1469 391 1925 391 
Q 2381 391 2643 752 
Q 2906 1113 2906 1747 
Q 2906 2381 2643 2742 
Q 2381 3103 1925 3103 
Q 1469 3103 1208 2742 
Q 947 2381 947 1747 
z
" transform="scale(0.015625)"/>
      <path id="DejaVuSans-41" d="M 2188 4044 
L 1331 1722 
L 3047 1722 
L 2188 4044 
z
M 1831 4666 
L 2547 4666 
L 4325 0 
L 3669 0 
L 3244 1197 
L 1141 1197 
L 716 0 
L 50 0 
L 1831 4666 
z
" transform="scale(0.015625)"/>
      <path id="DejaVuSans-67" d="M 2906 1791 
Q 2906 2416 2648 2759 
Q 2391 3103 1925 3103 
Q 1463 3103 1205 2759 
Q 947 2416 947 1791 
Q 947 1169 1205 825 
Q 1463 481 1925 481 
Q 2391 481 2648 825 
Q 2906 1169 2906 1791 
z
M 3481 434 
Q 3481 -459 3084 -895 
Q 2688 -1331 1869 -1331 
Q 1566 -1331 1297 -1286 
Q 1028 -1241 775 -1147 
L 775 -588 
Q 1028 -725 1275 -790 
Q 1522 -856 1778 -856 
Q 2344 -856 2625 -561 
Q 2906 -266 2906 331 
L 2906 616 
Q 2728 306 2450 153 
Q 2172 0 1784 0 
Q 1141 0 747 490 
Q 353 981 353 1791 
Q 353 2603 747 3093 
Q 1141 3584 1784 3584 
Q 2172 3584 2450 3431 
Q 2728 3278 2906 2969 
L 2906 3500 
L 3481 3500 
L 3481 434 
z
" transform="scale(0.015625)"/>
      <path id="DejaVuSans-43" d="M 4122 4306 
L 4122 3641 
Q 3803 3938 3442 4084 
Q 3081 4231 2675 4231 
Q 1875 4231 1450 3742 
Q 1025 3253 1025 2328 
Q 1025 1406 1450 917 
Q 1875 428 2675 428 
Q 3081 428 3442 575 
Q 3803 722 4122 1019 
L 4122 359 
Q 3791 134 3420 21 
Q 3050 -91 2638 -91 
Q 1578 -91 968 557 
Q 359 1206 359 2328 
Q 359 3453 968 4101 
Q 1578 4750 2638 4750 
Q 3056 4750 3426 4639 
Q 3797 4528 4122 4306 
z
" transform="scale(0.015625)"/>
     </defs>
     <use xlink:href="#DejaVuSans-53"/>
     <use xlink:href="#DejaVuSans-69" x="63.476562"/>
     <use xlink:href="#DejaVuSans-6d" x="91.259766"/>
     <use xlink:href="#DejaVuSans-75" x="188.671875"/>
     <use xlink:href="#DejaVuSans-6c" x="252.050781"/>
     <use xlink:href="#DejaVuSans-61" x="279.833984"/>
     <use xlink:href="#DejaVuSans-74" x="341.113281"/>
     <use xlink:href="#DejaVuSans-65" x="380.322266"/>
     <use xlink:href="#DejaVuSans-64" x="441.845703"/>
     <use xlink:href="#DejaVuSans-20" x="505.322266"/>
     <use xlink:href="#DejaVuSans-41" x="537.109375"/>
     <use xlink:href="#DejaVuSans-6e" x="605.517578"/>
     <use xlink:href="#DejaVuSans-65" x="668.896484"/>
     <use xlink:href="#DejaVuSans-61" x="730.419922"/>
     <use xlink:href="#DejaVuSans-6c" x="791.699219"/>
     <use xlink:href="#DejaVuSans-6c" x="819.482422"/>
     <use xlink:href="#DejaVuSans-69" x="847.265625"/>
     <use xlink:href="#DejaVuSans-6e" x="875.048828"/>
     <use xlink:href="#DejaVuSans-67" x="938.427734"/>
     <use xlink:href="#DejaVuSans-20" x="1001.904297"/>
     <use xlink:href="#DejaVuSans-43" x="1033.691406"/>
     <use xlink:href="#DejaVuSans-6f" x="1103.515625"/>
     <use xlink:href="#DejaVuSans-73" x="1164.697266"/>
     <use xlink:href="#DejaVuSans-74" x="1216.796875"/>
    </g>
   </g>
  </g>
 </g>
 <defs>
  <clipPath id="p326265b464">
   <rect x="57.6" y="41.472" width="357.12" height="266.112"/>
  </clipPath>
 </defs>
</svg>
