<?xml version="1.0" encoding="utf-8" standalone="no"?>
<!DOCTYPE svg PUBLIC "-//W3C//DTD SVG 1.1//EN"
  "http://www.w3.org/Graphics/SVG/1.1/DTD/svg11.dtd">
<svg xmlns:xlink="http://www.w3.org/1999/xlink" width="460.8pt" height="345.6pt" viewBox="0 0 460.8 345.6" xmlns="http://www.w3.org/2000/svg" version="1.1">
 <metadata>
  <rdf:RDF xmlns:dc="http://purl.org/dc/elements/1.1/" xmlns:cc="http://creativecommons.org/ns#" xmlns:rdf="http://www.w3.org/1999/02/22-rdf-syntax-ns#">
   <cc:Work>
    <dc:type rdf:resource="http://purl.org/dc/dcmitype/StillImage"/>
    <dc:date>2022-06-01T08:02:42.960512</dc:date>
    <dc:format>image/svg+xml</dc:format>
    <dc:creator>
     <cc:Agent>
      <dc:title>Matplotlib v3.5.1, https://matplotlib.org/</dc:title>
     </cc:Agent>
    </dc:creator>
   </cc:Work>
  </rdf:RDF>
 </metadata>
 <defs>
  <style type="text/css">*{stroke-linejoin: round; stroke-linecap: butt}</style>
 </defs>
 <g id="figure_1">
  <g id="patch_1">
   <path d="M 0 345.6 
L 460.8 345.6 
L 460.8 0 
L 0 0 
z
" style="fill: #ffffff"/>
  </g>
  <g id="axes_1">
   <g id="patch_2">
    <path d="M 57.6 307.584 
L 414.72 307.584 
L 414.72 41.472 
L 57.6 41.472 
z
" style="fill: #ffffff"/>
   </g>
   <g id="matplotlib.axis_1">
    <g id="xtick_1">
     <g id="line2d_1">
      <defs>
       <path id="mfb9cb953ea" d="M 0 0 
L 0 3.5 
" style="stroke: #000000; stroke-width: 0.8"/>
      </defs>
      <g>
       <use xlink:href="#mfb9cb953ea" x="73.832727" y="307.584" style="stroke: #000000; stroke-width: 0.8"/>
      </g>
     </g>
     <g id="text_1">
      <!-- 0 -->
      <g transform="translate(70.651477 322.182437)scale(0.1 -0.1)">
       <defs>
        <path id="DejaVuSans-30" d="M 2034 4250 
Q 1547 4250 1301 3770 
Q 1056 3291 1056 2328 
Q 1056 1369 1301 889 
Q 1547 409 2034 409 
Q 2525 409 2770 889 
Q 3016 1369 3016 2328 
Q 3016 3291 2770 3770 
Q 2525 4250 2034 4250 
z
M 2034 4750 
Q 2819 4750 3233 4129 
Q 3647 3509 3647 2328 
Q 3647 1150 3233 529 
Q 2819 -91 2034 -91 
Q 1250 -91 836 529 
Q 422 1150 422 2328 
Q 422 3509 836 4129 
Q 1250 4750 2034 4750 
z
" transform="scale(0.015625)"/>
       </defs>
       <use xlink:href="#DejaVuSans-30"/>
      </g>
     </g>
    </g>
    <g id="xtick_2">
     <g id="line2d_2">
      <g>
       <use xlink:href="#mfb9cb953ea" x="133.380516" y="307.584" style="stroke: #000000; stroke-width: 0.8"/>
      </g>
     </g>
     <g id="text_2">
      <!-- 500 -->
      <g transform="translate(123.836766 322.182437)scale(0.1 -0.1)">
       <defs>
        <path id="DejaVuSans-35" d="M 691 4666 
L 3169 4666 
L 3169 4134 
L 1269 4134 
L 1269 2991 
Q 1406 3038 1543 3061 
Q 1681 3084 1819 3084 
Q 2600 3084 3056 2656 
Q 3513 2228 3513 1497 
Q 3513 744 3044 326 
Q 2575 -91 1722 -91 
Q 1428 -91 1123 -41 
Q 819 9 494 109 
L 494 744 
Q 775 591 1075 516 
Q 1375 441 1709 441 
Q 2250 441 2565 725 
Q 2881 1009 2881 1497 
Q 2881 1984 2565 2268 
Q 2250 2553 1709 2553 
Q 1456 2553 1204 2497 
Q 953 2441 691 2322 
L 691 4666 
z
" transform="scale(0.015625)"/>
       </defs>
       <use xlink:href="#DejaVuSans-35"/>
       <use xlink:href="#DejaVuSans-30" x="63.623047"/>
       <use xlink:href="#DejaVuSans-30" x="127.246094"/>
      </g>
     </g>
    </g>
    <g id="xtick_3">
     <g id="line2d_3">
      <g>
       <use xlink:href="#mfb9cb953ea" x="192.928305" y="307.584" style="stroke: #000000; stroke-width: 0.8"/>
      </g>
     </g>
     <g id="text_3">
      <!-- 1000 -->
      <g transform="translate(180.203305 322.182437)scale(0.1 -0.1)">
       <defs>
        <path id="DejaVuSans-31" d="M 794 531 
L 1825 531 
L 1825 4091 
L 703 3866 
L 703 4441 
L 1819 4666 
L 2450 4666 
L 2450 531 
L 3481 531 
L 3481 0 
L 794 0 
L 794 531 
z
" transform="scale(0.015625)"/>
       </defs>
       <use xlink:href="#DejaVuSans-31"/>
       <use xlink:href="#DejaVuSans-30" x="63.623047"/>
       <use xlink:href="#DejaVuSans-30" x="127.246094"/>
       <use xlink:href="#DejaVuSans-30" x="190.869141"/>
      </g>
     </g>
    </g>
    <g id="xtick_4">
     <g id="line2d_4">
      <g>
       <use xlink:href="#mfb9cb953ea" x="252.476094" y="307.584" style="stroke: #000000; stroke-width: 0.8"/>
      </g>
     </g>
     <g id="text_4">
      <!-- 1500 -->
      <g transform="translate(239.751094 322.182437)scale(0.1 -0.1)">
       <use xlink:href="#DejaVuSans-31"/>
       <use xlink:href="#DejaVuSans-35" x="63.623047"/>
       <use xlink:href="#DejaVuSans-30" x="127.246094"/>
       <use xlink:href="#DejaVuSans-30" x="190.869141"/>
      </g>
     </g>
    </g>
    <g id="xtick_5">
     <g id="line2d_5">
      <g>
       <use xlink:href="#mfb9cb953ea" x="312.023883" y="307.584" style="stroke: #000000; stroke-width: 0.8"/>
      </g>
     </g>
     <g id="text_5">
      <!-- 2000 -->
      <g transform="translate(299.298883 322.182437)scale(0.1 -0.1)">
       <defs>
        <path id="DejaVuSans-32" d="M 1228 531 
L 3431 531 
L 3431 0 
L 469 0 
L 469 531 
Q 828 903 1448 1529 
Q 2069 2156 2228 2338 
Q 2531 2678 2651 2914 
Q 2772 3150 2772 3378 
Q 2772 3750 2511 3984 
Q 2250 4219 1831 4219 
Q 1534 4219 1204 4116 
Q 875 4013 500 3803 
L 500 4441 
Q 881 4594 1212 4672 
Q 1544 4750 1819 4750 
Q 2544 4750 2975 4387 
Q 3406 4025 3406 3419 
Q 3406 3131 3298 2873 
Q 3191 2616 2906 2266 
Q 2828 2175 2409 1742 
Q 1991 1309 1228 531 
z
" transform="scale(0.015625)"/>
       </defs>
       <use xlink:href="#DejaVuSans-32"/>
       <use xlink:href="#DejaVuSans-30" x="63.623047"/>
       <use xlink:href="#DejaVuSans-30" x="127.246094"/>
       <use xlink:href="#DejaVuSans-30" x="190.869141"/>
      </g>
     </g>
    </g>
    <g id="xtick_6">
     <g id="line2d_6">
      <g>
       <use xlink:href="#mfb9cb953ea" x="371.571672" y="307.584" style="stroke: #000000; stroke-width: 0.8"/>
      </g>
     </g>
     <g id="text_6">
      <!-- 2500 -->
      <g transform="translate(358.846672 322.182437)scale(0.1 -0.1)">
       <use xlink:href="#DejaVuSans-32"/>
       <use xlink:href="#DejaVuSans-35" x="63.623047"/>
       <use xlink:href="#DejaVuSans-30" x="127.246094"/>
       <use xlink:href="#DejaVuSans-30" x="190.869141"/>
      </g>
     </g>
    </g>
    <g id="text_7">
     <!-- num swaps -->
     <g transform="translate(207.826406 335.860562)scale(0.1 -0.1)">
      <defs>
       <path id="DejaVuSans-6e" d="M 3513 2113 
L 3513 0 
L 2938 0 
L 2938 2094 
Q 2938 2591 2744 2837 
Q 2550 3084 2163 3084 
Q 1697 3084 1428 2787 
Q 1159 2491 1159 1978 
L 1159 0 
L 581 0 
L 581 3500 
L 1159 3500 
L 1159 2956 
Q 1366 3272 1645 3428 
Q 1925 3584 2291 3584 
Q 2894 3584 3203 3211 
Q 3513 2838 3513 2113 
z
" transform="scale(0.015625)"/>
       <path id="DejaVuSans-75" d="M 544 1381 
L 544 3500 
L 1119 3500 
L 1119 1403 
Q 1119 906 1312 657 
Q 1506 409 1894 409 
Q 2359 409 2629 706 
Q 2900 1003 2900 1516 
L 2900 3500 
L 3475 3500 
L 3475 0 
L 2900 0 
L 2900 538 
Q 2691 219 2414 64 
Q 2138 -91 1772 -91 
Q 1169 -91 856 284 
Q 544 659 544 1381 
z
M 1991 3584 
L 1991 3584 
z
" transform="scale(0.015625)"/>
       <path id="DejaVuSans-6d" d="M 3328 2828 
Q 3544 3216 3844 3400 
Q 4144 3584 4550 3584 
Q 5097 3584 5394 3201 
Q 5691 2819 5691 2113 
L 5691 0 
L 5113 0 
L 5113 2094 
Q 5113 2597 4934 2840 
Q 4756 3084 4391 3084 
Q 3944 3084 3684 2787 
Q 3425 2491 3425 1978 
L 3425 0 
L 2847 0 
L 2847 2094 
Q 2847 2600 2669 2842 
Q 2491 3084 2119 3084 
Q 1678 3084 1418 2786 
Q 1159 2488 1159 1978 
L 1159 0 
L 581 0 
L 581 3500 
L 1159 3500 
L 1159 2956 
Q 1356 3278 1631 3431 
Q 1906 3584 2284 3584 
Q 2666 3584 2933 3390 
Q 3200 3197 3328 2828 
z
" transform="scale(0.015625)"/>
       <path id="DejaVuSans-20" transform="scale(0.015625)"/>
       <path id="DejaVuSans-73" d="M 2834 3397 
L 2834 2853 
Q 2591 2978 2328 3040 
Q 2066 3103 1784 3103 
Q 1356 3103 1142 2972 
Q 928 2841 928 2578 
Q 928 2378 1081 2264 
Q 1234 2150 1697 2047 
L 1894 2003 
Q 2506 1872 2764 1633 
Q 3022 1394 3022 966 
Q 3022 478 2636 193 
Q 2250 -91 1575 -91 
Q 1294 -91 989 -36 
Q 684 19 347 128 
L 347 722 
Q 666 556 975 473 
Q 1284 391 1588 391 
Q 1994 391 2212 530 
Q 2431 669 2431 922 
Q 2431 1156 2273 1281 
Q 2116 1406 1581 1522 
L 1381 1569 
Q 847 1681 609 1914 
Q 372 2147 372 2553 
Q 372 3047 722 3315 
Q 1072 3584 1716 3584 
Q 2034 3584 2315 3537 
Q 2597 3491 2834 3397 
z
" transform="scale(0.015625)"/>
       <path id="DejaVuSans-77" d="M 269 3500 
L 844 3500 
L 1563 769 
L 2278 3500 
L 2956 3500 
L 3675 769 
L 4391 3500 
L 4966 3500 
L 4050 0 
L 3372 0 
L 2619 2869 
L 1863 0 
L 1184 0 
L 269 3500 
z
" transform="scale(0.015625)"/>
       <path id="DejaVuSans-61" d="M 2194 1759 
Q 1497 1759 1228 1600 
Q 959 1441 959 1056 
Q 959 750 1161 570 
Q 1363 391 1709 391 
Q 2188 391 2477 730 
Q 2766 1069 2766 1631 
L 2766 1759 
L 2194 1759 
z
M 3341 1997 
L 3341 0 
L 2766 0 
L 2766 531 
Q 2569 213 2275 61 
Q 1981 -91 1556 -91 
Q 1019 -91 701 211 
Q 384 513 384 1019 
Q 384 1609 779 1909 
Q 1175 2209 1959 2209 
L 2766 2209 
L 2766 2266 
Q 2766 2663 2505 2880 
Q 2244 3097 1772 3097 
Q 1472 3097 1187 3025 
Q 903 2953 641 2809 
L 641 3341 
Q 956 3463 1253 3523 
Q 1550 3584 1831 3584 
Q 2591 3584 2966 3190 
Q 3341 2797 3341 1997 
z
" transform="scale(0.015625)"/>
       <path id="DejaVuSans-70" d="M 1159 525 
L 1159 -1331 
L 581 -1331 
L 581 3500 
L 1159 3500 
L 1159 2969 
Q 1341 3281 1617 3432 
Q 1894 3584 2278 3584 
Q 2916 3584 3314 3078 
Q 3713 2572 3713 1747 
Q 3713 922 3314 415 
Q 2916 -91 2278 -91 
Q 1894 -91 1617 61 
Q 1341 213 1159 525 
z
M 3116 1747 
Q 3116 2381 2855 2742 
Q 2594 3103 2138 3103 
Q 1681 3103 1420 2742 
Q 1159 2381 1159 1747 
Q 1159 1113 1420 752 
Q 1681 391 2138 391 
Q 2594 391 2855 752 
Q 3116 1113 3116 1747 
z
" transform="scale(0.015625)"/>
      </defs>
      <use xlink:href="#DejaVuSans-6e"/>
      <use xlink:href="#DejaVuSans-75" x="63.378906"/>
      <use xlink:href="#DejaVuSans-6d" x="126.757812"/>
      <use xlink:href="#DejaVuSans-20" x="224.169922"/>
      <use xlink:href="#DejaVuSans-73" x="255.957031"/>
      <use xlink:href="#DejaVuSans-77" x="308.056641"/>
      <use xlink:href="#DejaVuSans-61" x="389.84375"/>
      <use xlink:href="#DejaVuSans-70" x="451.123047"/>
      <use xlink:href="#DejaVuSans-73" x="514.599609"/>
     </g>
    </g>
   </g>
   <g id="matplotlib.axis_2">
    <g id="ytick_1">
     <g id="line2d_7">
      <defs>
       <path id="md7c6b065f6" d="M 0 0 
L -3.5 0 
" style="stroke: #000000; stroke-width: 0.8"/>
      </defs>
      <g>
       <use xlink:href="#md7c6b065f6" x="57.6" y="301.780717" style="stroke: #000000; stroke-width: 0.8"/>
      </g>
     </g>
     <g id="text_8">
      <!-- 2000 -->
      <g transform="translate(25.15 305.579936)scale(0.1 -0.1)">
       <use xlink:href="#DejaVuSans-32"/>
       <use xlink:href="#DejaVuSans-30" x="63.623047"/>
       <use xlink:href="#DejaVuSans-30" x="127.246094"/>
       <use xlink:href="#DejaVuSans-30" x="190.869141"/>
      </g>
     </g>
    </g>
    <g id="ytick_2">
     <g id="line2d_8">
      <g>
       <use xlink:href="#md7c6b065f6" x="57.6" y="266.821179" style="stroke: #000000; stroke-width: 0.8"/>
      </g>
     </g>
     <g id="text_9">
      <!-- 2050 -->
      <g transform="translate(25.15 270.620398)scale(0.1 -0.1)">
       <use xlink:href="#DejaVuSans-32"/>
       <use xlink:href="#DejaVuSans-30" x="63.623047"/>
       <use xlink:href="#DejaVuSans-35" x="127.246094"/>
       <use xlink:href="#DejaVuSans-30" x="190.869141"/>
      </g>
     </g>
    </g>
    <g id="ytick_3">
     <g id="line2d_9">
      <g>
       <use xlink:href="#md7c6b065f6" x="57.6" y="231.861642" style="stroke: #000000; stroke-width: 0.8"/>
      </g>
     </g>
     <g id="text_10">
      <!-- 2100 -->
      <g transform="translate(25.15 235.66086)scale(0.1 -0.1)">
       <use xlink:href="#DejaVuSans-32"/>
       <use xlink:href="#DejaVuSans-31" x="63.623047"/>
       <use xlink:href="#DejaVuSans-30" x="127.246094"/>
       <use xlink:href="#DejaVuSans-30" x="190.869141"/>
      </g>
     </g>
    </g>
    <g id="ytick_4">
     <g id="line2d_10">
      <g>
       <use xlink:href="#md7c6b065f6" x="57.6" y="196.902104" style="stroke: #000000; stroke-width: 0.8"/>
      </g>
     </g>
     <g id="text_11">
      <!-- 2150 -->
      <g transform="translate(25.15 200.701323)scale(0.1 -0.1)">
       <use xlink:href="#DejaVuSans-32"/>
       <use xlink:href="#DejaVuSans-31" x="63.623047"/>
       <use xlink:href="#DejaVuSans-35" x="127.246094"/>
       <use xlink:href="#DejaVuSans-30" x="190.869141"/>
      </g>
     </g>
    </g>
    <g id="ytick_5">
     <g id="line2d_11">
      <g>
       <use xlink:href="#md7c6b065f6" x="57.6" y="161.942566" style="stroke: #000000; stroke-width: 0.8"/>
      </g>
     </g>
     <g id="text_12">
      <!-- 2200 -->
      <g transform="translate(25.15 165.741785)scale(0.1 -0.1)">
       <use xlink:href="#DejaVuSans-32"/>
       <use xlink:href="#DejaVuSans-32" x="63.623047"/>
       <use xlink:href="#DejaVuSans-30" x="127.246094"/>
       <use xlink:href="#DejaVuSans-30" x="190.869141"/>
      </g>
     </g>
    </g>
    <g id="ytick_6">
     <g id="line2d_12">
      <g>
       <use xlink:href="#md7c6b065f6" x="57.6" y="126.983029" style="stroke: #000000; stroke-width: 0.8"/>
      </g>
     </g>
     <g id="text_13">
      <!-- 2250 -->
      <g transform="translate(25.15 130.782248)scale(0.1 -0.1)">
       <use xlink:href="#DejaVuSans-32"/>
       <use xlink:href="#DejaVuSans-32" x="63.623047"/>
       <use xlink:href="#DejaVuSans-35" x="127.246094"/>
       <use xlink:href="#DejaVuSans-30" x="190.869141"/>
      </g>
     </g>
    </g>
    <g id="ytick_7">
     <g id="line2d_13">
      <g>
       <use xlink:href="#md7c6b065f6" x="57.6" y="92.023491" style="stroke: #000000; stroke-width: 0.8"/>
      </g>
     </g>
     <g id="text_14">
      <!-- 2300 -->
      <g transform="translate(25.15 95.82271)scale(0.1 -0.1)">
       <defs>
        <path id="DejaVuSans-33" d="M 2597 2516 
Q 3050 2419 3304 2112 
Q 3559 1806 3559 1356 
Q 3559 666 3084 287 
Q 2609 -91 1734 -91 
Q 1441 -91 1130 -33 
Q 819 25 488 141 
L 488 750 
Q 750 597 1062 519 
Q 1375 441 1716 441 
Q 2309 441 2620 675 
Q 2931 909 2931 1356 
Q 2931 1769 2642 2001 
Q 2353 2234 1838 2234 
L 1294 2234 
L 1294 2753 
L 1863 2753 
Q 2328 2753 2575 2939 
Q 2822 3125 2822 3475 
Q 2822 3834 2567 4026 
Q 2313 4219 1838 4219 
Q 1578 4219 1281 4162 
Q 984 4106 628 3988 
L 628 4550 
Q 988 4650 1302 4700 
Q 1616 4750 1894 4750 
Q 2613 4750 3031 4423 
Q 3450 4097 3450 3541 
Q 3450 3153 3228 2886 
Q 3006 2619 2597 2516 
z
" transform="scale(0.015625)"/>
       </defs>
       <use xlink:href="#DejaVuSans-32"/>
       <use xlink:href="#DejaVuSans-33" x="63.623047"/>
       <use xlink:href="#DejaVuSans-30" x="127.246094"/>
       <use xlink:href="#DejaVuSans-30" x="190.869141"/>
      </g>
     </g>
    </g>
    <g id="ytick_8">
     <g id="line2d_14">
      <g>
       <use xlink:href="#md7c6b065f6" x="57.6" y="57.063954" style="stroke: #000000; stroke-width: 0.8"/>
      </g>
     </g>
     <g id="text_15">
      <!-- 2350 -->
      <g transform="translate(25.15 60.863173)scale(0.1 -0.1)">
       <use xlink:href="#DejaVuSans-32"/>
       <use xlink:href="#DejaVuSans-33" x="63.623047"/>
       <use xlink:href="#DejaVuSans-35" x="127.246094"/>
       <use xlink:href="#DejaVuSans-30" x="190.869141"/>
      </g>
     </g>
    </g>
    <g id="text_16">
     <!-- total cost -->
     <g transform="translate(19.070312 197.923313)rotate(-90)scale(0.1 -0.1)">
      <defs>
       <path id="DejaVuSans-74" d="M 1172 4494 
L 1172 3500 
L 2356 3500 
L 2356 3053 
L 1172 3053 
L 1172 1153 
Q 1172 725 1289 603 
Q 1406 481 1766 481 
L 2356 481 
L 2356 0 
L 1766 0 
Q 1100 0 847 248 
Q 594 497 594 1153 
L 594 3053 
L 172 3053 
L 172 3500 
L 594 3500 
L 594 4494 
L 1172 4494 
z
" transform="scale(0.015625)"/>
       <path id="DejaVuSans-6f" d="M 1959 3097 
Q 1497 3097 1228 2736 
Q 959 2375 959 1747 
Q 959 1119 1226 758 
Q 1494 397 1959 397 
Q 2419 397 2687 759 
Q 2956 1122 2956 1747 
Q 2956 2369 2687 2733 
Q 2419 3097 1959 3097 
z
M 1959 3584 
Q 2709 3584 3137 3096 
Q 3566 2609 3566 1747 
Q 3566 888 3137 398 
Q 2709 -91 1959 -91 
Q 1206 -91 779 398 
Q 353 888 353 1747 
Q 353 2609 779 3096 
Q 1206 3584 1959 3584 
z
" transform="scale(0.015625)"/>
       <path id="DejaVuSans-6c" d="M 603 4863 
L 1178 4863 
L 1178 0 
L 603 0 
L 603 4863 
z
" transform="scale(0.015625)"/>
       <path id="DejaVuSans-63" d="M 3122 3366 
L 3122 2828 
Q 2878 2963 2633 3030 
Q 2388 3097 2138 3097 
Q 1578 3097 1268 2742 
Q 959 2388 959 1747 
Q 959 1106 1268 751 
Q 1578 397 2138 397 
Q 2388 397 2633 464 
Q 2878 531 3122 666 
L 3122 134 
Q 2881 22 2623 -34 
Q 2366 -91 2075 -91 
Q 1284 -91 818 406 
Q 353 903 353 1747 
Q 353 2603 823 3093 
Q 1294 3584 2113 3584 
Q 2378 3584 2631 3529 
Q 2884 3475 3122 3366 
z
" transform="scale(0.015625)"/>
      </defs>
      <use xlink:href="#DejaVuSans-74"/>
      <use xlink:href="#DejaVuSans-6f" x="39.208984"/>
      <use xlink:href="#DejaVuSans-74" x="100.390625"/>
      <use xlink:href="#DejaVuSans-61" x="139.599609"/>
      <use xlink:href="#DejaVuSans-6c" x="200.878906"/>
      <use xlink:href="#DejaVuSans-20" x="228.662109"/>
      <use xlink:href="#DejaVuSans-63" x="260.449219"/>
      <use xlink:href="#DejaVuSans-6f" x="315.429688"/>
      <use xlink:href="#DejaVuSans-73" x="376.611328"/>
      <use xlink:href="#DejaVuSans-74" x="428.710938"/>
     </g>
    </g>
   </g>
   <g id="line2d_15">
    <path d="M 73.832727 129.779792 
L 74.070918 130.478983 
L 74.30911 126.283838 
L 74.547301 129.080601 
L 74.785492 125.584647 
L 75.023683 134.674127 
L 75.261874 129.080601 
L 75.500065 120.690312 
L 75.738257 119.291931 
L 75.976448 117.194358 
L 76.214639 124.186266 
L 76.45283 124.885457 
L 76.691021 123.487075 
L 76.929212 132.576555 
L 77.167403 125.584647 
L 77.405595 133.974936 
L 77.643786 133.974936 
L 78.120168 115.795977 
L 78.358359 126.283838 
L 78.59655 121.389503 
L 78.834742 130.478983 
L 79.311124 118.59274 
L 79.549315 133.974936 
L 79.787506 127.68222 
L 80.025697 129.779792 
L 80.263888 129.779792 
L 80.50208 126.983029 
L 80.740271 127.68222 
L 80.978462 133.275746 
L 81.216653 142.365225 
L 81.454844 133.275746 
L 81.693035 133.974936 
L 81.931227 136.072509 
L 82.169418 127.68222 
L 82.407609 126.983029 
L 82.6458 122.088694 
L 82.883991 124.885457 
L 83.122182 121.389503 
L 83.598565 136.072509 
L 83.836756 140.267653 
L 84.074947 142.365225 
L 84.313138 135.373318 
L 84.551329 136.771699 
L 84.78952 135.373318 
L 85.265903 141.666035 
L 85.504094 138.869272 
L 85.742285 129.080601 
L 85.980476 134.674127 
L 86.218667 133.974936 
L 86.456859 135.373318 
L 86.69505 150.755514 
L 86.933241 154.251468 
L 87.409623 150.056324 
L 87.647814 145.161988 
L 87.886005 154.950659 
L 88.124197 154.251468 
L 88.362388 143.763607 
L 88.600579 141.666035 
L 89.076961 154.251468 
L 89.315152 155.64985 
L 89.553344 162.641757 
L 89.791535 160.544185 
L 90.029726 157.048231 
L 90.506108 143.763607 
L 90.744299 156.34904 
L 90.98249 154.950659 
L 91.220682 159.844994 
L 91.458873 158.446613 
L 91.935255 159.844994 
L 92.173446 159.145803 
L 92.411637 161.243376 
L 92.649829 166.836902 
L 92.88802 168.235283 
L 93.126211 162.641757 
L 93.364402 172.430428 
L 93.602593 175.227191 
L 93.840784 172.430428 
L 94.078976 173.828809 
L 94.317167 191.308578 
L 94.555358 180.820717 
L 94.793549 178.723145 
L 95.03174 180.121526 
L 95.269931 176.625572 
L 95.508122 175.227191 
L 95.984505 185.015861 
L 96.222696 187.812624 
L 96.460887 187.812624 
L 96.699078 185.715052 
L 96.937269 185.715052 
L 97.175461 198.300486 
L 97.413652 192.007769 
L 97.651843 191.308578 
L 98.128225 180.820717 
L 98.366416 186.414243 
L 98.604607 188.511815 
L 98.842799 187.113434 
L 99.08099 186.414243 
L 99.319181 178.023954 
L 99.557372 180.820717 
L 99.795563 180.820717 
L 100.271946 186.414243 
L 100.510137 180.121526 
L 100.748328 180.820717 
L 101.462901 154.950659 
L 101.701093 152.853087 
L 101.939284 164.040139 
L 102.177475 166.836902 
L 102.415666 166.137711 
L 102.653857 173.828809 
L 102.892048 175.227191 
L 103.130239 168.235283 
L 103.368431 171.032046 
L 103.844813 162.641757 
L 104.083004 164.739329 
L 104.559386 159.145803 
L 104.797578 152.153896 
L 105.035769 157.048231 
L 105.27396 146.56037 
L 105.750342 136.072509 
L 105.988533 121.389503 
L 106.226724 119.991121 
L 106.464916 124.186266 
L 106.703107 131.178173 
L 106.941298 118.59274 
L 107.179489 118.59274 
L 107.41768 113.698405 
L 107.655871 116.495168 
L 107.894063 115.096786 
L 108.132254 118.59274 
L 108.370445 124.885457 
L 108.608636 126.283838 
L 108.846827 124.885457 
L 109.085018 124.186266 
L 109.323209 117.893549 
L 109.561401 121.389503 
L 109.799592 115.795977 
L 110.037783 122.088694 
L 110.514165 106.706497 
L 110.752356 112.999214 
L 110.990548 103.909734 
L 111.228739 101.812162 
L 111.46693 103.909734 
L 111.705121 108.104879 
L 111.943312 106.007306 
L 112.181503 108.104879 
L 112.419695 108.104879 
L 112.657886 106.007306 
L 112.896077 106.007306 
L 113.134268 99.71459 
L 113.372459 103.210543 
L 113.61065 101.812162 
L 114.087033 113.698405 
L 114.325224 111.600832 
L 114.563415 106.706497 
L 115.039797 116.495168 
L 115.277988 133.974936 
L 115.51618 134.674127 
L 115.754371 138.869272 
L 115.992562 123.487075 
L 116.230753 118.59274 
L 116.468944 122.088694 
L 116.707135 122.787884 
L 116.945326 117.893549 
L 117.183518 115.795977 
L 117.421709 117.893549 
L 117.6599 126.283838 
L 117.898091 119.991121 
L 118.136282 126.283838 
L 118.374473 124.186266 
L 118.612665 119.291931 
L 118.850856 106.007306 
L 119.089047 103.210543 
L 119.327238 104.608925 
L 119.565429 105.308116 
L 120.041812 112.300023 
L 120.280003 110.901642 
L 120.518194 112.300023 
L 120.994576 129.080601 
L 121.232767 129.779792 
L 121.470958 143.064416 
L 121.70915 135.373318 
L 121.947341 136.072509 
L 122.185532 131.877364 
L 122.423723 121.389503 
L 122.661914 122.088694 
L 122.900105 115.096786 
L 123.138297 113.698405 
L 123.376488 109.50326 
L 123.614679 102.511353 
L 123.85287 109.50326 
L 124.091061 108.104879 
L 124.329252 105.308116 
L 124.805635 106.706497 
L 125.043826 102.511353 
L 125.282017 104.608925 
L 125.758399 104.608925 
L 125.99659 103.210543 
L 126.711164 94.820254 
L 126.949355 94.820254 
L 127.663928 102.511353 
L 127.90212 98.316208 
L 128.140311 85.730775 
L 128.616693 80.137249 
L 128.854884 85.031584 
L 129.093075 85.730775 
L 129.331267 87.828347 
L 129.569458 93.421873 
L 129.807649 96.218636 
L 130.04584 89.226728 
L 130.284031 61.259098 
L 130.522222 62.65748 
L 130.760414 62.65748 
L 130.998605 64.055861 
L 131.236796 61.259098 
L 131.474987 53.568 
L 131.951369 67.551815 
L 132.18956 69.649387 
L 132.427752 73.145341 
L 132.665943 68.950197 
L 132.904134 75.942104 
L 133.142325 74.543723 
L 133.380516 72.44615 
L 133.856899 95.519445 
L 134.09509 92.722682 
L 134.333281 94.820254 
L 134.571472 94.121064 
L 134.809663 96.218636 
L 135.047854 96.218636 
L 135.286045 101.812162 
L 135.524237 103.210543 
L 135.762428 103.909734 
L 136.000619 96.917827 
L 136.477001 101.112971 
L 136.715192 100.41378 
L 136.953384 99.015399 
L 137.191575 111.600832 
L 137.429766 107.405688 
L 137.667957 105.308116 
L 137.906148 105.308116 
L 138.144339 103.909734 
L 138.382531 110.901642 
L 138.858913 108.104879 
L 139.097104 102.511353 
L 139.335295 111.600832 
L 139.573486 108.104879 
L 139.811677 107.405688 
L 140.049869 103.210543 
L 140.28806 102.511353 
L 140.526251 87.828347 
L 140.764442 101.112971 
L 141.002633 106.007306 
L 141.240824 105.308116 
L 141.479016 102.511353 
L 141.955398 115.096786 
L 142.43178 122.088694 
L 142.908162 114.397595 
L 143.146354 116.495168 
L 143.384545 109.50326 
L 143.622736 112.300023 
L 143.860927 113.698405 
L 144.337309 122.088694 
L 144.575501 122.787884 
L 145.051883 114.397595 
L 145.290074 122.787884 
L 145.528265 119.291931 
L 145.766456 131.178173 
L 146.004648 134.674127 
L 146.242839 133.974936 
L 146.48103 127.68222 
L 146.719221 141.666035 
L 146.957412 139.568462 
L 147.195603 136.072509 
L 147.671986 126.983029 
L 147.910177 124.885457 
L 148.148368 117.893549 
L 148.862941 142.365225 
L 149.101133 144.462798 
L 149.339324 138.869272 
L 149.577515 144.462798 
L 149.815706 145.161988 
L 150.053897 144.462798 
L 150.292088 149.357133 
L 150.530279 146.56037 
L 150.768471 138.170081 
L 151.006662 138.170081 
L 151.244853 144.462798 
L 151.483044 143.064416 
L 151.721235 131.877364 
L 151.959426 128.38141 
L 152.197618 126.983029 
L 152.435809 129.080601 
L 152.674 123.487075 
L 152.912191 121.389503 
L 153.150382 127.68222 
L 153.388573 124.186266 
L 153.864956 124.186266 
L 154.103147 117.194358 
L 154.341338 121.389503 
L 154.579529 123.487075 
L 154.81772 128.38141 
L 155.294103 115.096786 
L 155.532294 112.300023 
L 155.770485 142.365225 
L 156.008676 139.568462 
L 156.485058 147.259561 
L 156.72325 133.974936 
L 156.961441 133.974936 
L 157.199632 127.68222 
L 157.437823 129.779792 
L 157.676014 120.690312 
L 157.914205 129.779792 
L 158.390588 133.275746 
L 158.628779 147.259561 
L 158.86697 148.657942 
L 159.105161 150.755514 
L 159.343352 148.657942 
L 159.581543 152.853087 
L 159.819735 152.153896 
L 160.057926 150.056324 
L 160.296117 152.853087 
L 160.534308 158.446613 
L 160.772499 159.145803 
L 161.01069 156.34904 
L 161.487073 147.259561 
L 161.725264 151.454705 
L 161.963455 159.844994 
L 162.439837 149.357133 
L 162.678028 152.153896 
L 162.91622 147.259561 
L 163.154411 145.161988 
L 163.392602 145.861179 
L 163.630793 131.877364 
L 163.868984 131.178173 
L 164.107175 136.072509 
L 164.345367 147.958751 
L 164.583558 146.56037 
L 164.821749 145.861179 
L 165.05994 145.861179 
L 165.298131 147.958751 
L 165.536322 138.170081 
L 165.774513 144.462798 
L 166.012705 132.576555 
L 166.489087 143.763607 
L 166.727278 143.763607 
L 166.965469 150.056324 
L 167.20366 149.357133 
L 167.441852 145.861179 
L 167.680043 145.861179 
L 167.918234 157.048231 
L 168.156425 119.291931 
L 168.394616 126.283838 
L 169.10919 120.690312 
L 169.347381 123.487075 
L 169.585572 121.389503 
L 169.823763 148.657942 
L 170.061954 143.064416 
L 170.300145 147.958751 
L 170.538337 142.365225 
L 170.776528 141.666035 
L 171.014719 133.974936 
L 171.25291 133.974936 
L 171.491101 137.47089 
L 171.729292 147.958751 
L 171.967483 151.454705 
L 172.205675 151.454705 
L 172.443866 152.153896 
L 172.682057 157.048231 
L 172.920248 154.251468 
L 173.158439 154.950659 
L 173.39663 170.332855 
L 173.634822 170.332855 
L 173.873013 169.633665 
L 174.111204 166.836902 
L 174.349395 152.853087 
L 174.587586 159.844994 
L 174.825777 152.853087 
L 175.063969 151.454705 
L 175.778542 157.747422 
L 176.254924 152.153896 
L 176.493115 152.153896 
L 176.731307 166.137711 
L 176.969498 168.235283 
L 177.207689 171.731237 
L 177.44588 161.942566 
L 177.684071 166.836902 
L 178.160454 152.153896 
L 178.398645 149.357133 
L 178.636836 150.755514 
L 178.875027 143.064416 
L 179.113218 145.861179 
L 179.351409 159.844994 
L 179.5896 162.641757 
L 179.827792 163.340948 
L 180.304174 152.853087 
L 180.542365 154.251468 
L 180.780556 151.454705 
L 181.256939 158.446613 
L 181.49513 154.251468 
L 181.733321 155.64985 
L 182.209703 162.641757 
L 182.447894 157.048231 
L 182.686086 160.544185 
L 182.924277 171.032046 
L 183.162468 150.056324 
L 183.400659 150.755514 
L 183.63885 147.958751 
L 183.877041 150.755514 
L 184.115232 155.64985 
L 184.353424 151.454705 
L 184.591615 159.145803 
L 184.829806 157.048231 
L 185.306188 162.641757 
L 185.544379 164.739329 
L 185.782571 161.942566 
L 186.020762 166.137711 
L 186.497144 161.243376 
L 186.735335 161.243376 
L 186.973526 163.340948 
L 187.211717 158.446613 
L 187.449909 163.340948 
L 187.6881 163.340948 
L 187.926291 161.243376 
L 188.164482 169.633665 
L 188.402673 171.731237 
L 188.640864 166.836902 
L 188.879056 166.836902 
L 189.355438 157.048231 
L 189.593629 160.544185 
L 189.83182 159.844994 
L 190.070011 151.454705 
L 190.546394 154.251468 
L 190.784585 154.251468 
L 191.260967 147.259561 
L 191.499158 144.462798 
L 191.737349 130.478983 
L 191.975541 127.68222 
L 192.213732 128.38141 
L 192.451923 127.68222 
L 192.690114 119.991121 
L 192.928305 131.877364 
L 193.166496 131.178173 
L 193.404688 129.779792 
L 193.642879 133.974936 
L 193.88107 136.072509 
L 194.119261 136.072509 
L 194.357452 126.283838 
L 194.833834 123.487075 
L 195.072026 118.59274 
L 195.548408 131.877364 
L 195.786599 133.275746 
L 196.02479 138.170081 
L 196.262981 136.771699 
L 196.501173 134.674127 
L 196.739364 138.869272 
L 196.977555 124.885457 
L 197.215746 122.787884 
L 197.453937 137.47089 
L 197.692128 141.666035 
L 197.930319 140.966844 
L 198.168511 141.666035 
L 198.406702 140.966844 
L 198.644893 136.072509 
L 198.883084 138.170081 
L 199.121275 141.666035 
L 199.359466 135.373318 
L 199.835849 154.251468 
L 200.07404 152.153896 
L 200.312231 145.861179 
L 200.550422 150.056324 
L 200.788613 147.958751 
L 201.026805 151.454705 
L 201.264996 150.056324 
L 201.741378 157.048231 
L 201.979569 157.048231 
L 202.21776 157.747422 
L 202.694143 178.723145 
L 203.170525 180.121526 
L 203.408716 173.828809 
L 203.646907 171.032046 
L 203.885098 161.243376 
L 204.12329 168.235283 
L 204.361481 171.032046 
L 204.599672 175.926382 
L 204.837863 170.332855 
L 205.076054 173.129618 
L 205.314245 173.129618 
L 205.790628 168.235283 
L 206.028819 166.137711 
L 206.26701 168.235283 
L 206.981583 152.153896 
L 207.219775 152.853087 
L 207.457966 160.544185 
L 207.696157 154.950659 
L 207.934348 143.763607 
L 208.172539 147.958751 
L 208.41073 155.64985 
L 208.648921 155.64985 
L 208.887113 152.153896 
L 209.125304 155.64985 
L 209.363495 154.950659 
L 209.601686 154.950659 
L 209.839877 171.032046 
L 210.078068 172.430428 
L 210.31626 178.723145 
L 210.554451 175.227191 
L 210.792642 180.820717 
L 211.030833 182.219098 
L 211.269024 191.308578 
L 211.507215 192.007769 
L 211.983598 182.918289 
L 212.221789 184.316671 
L 212.45998 178.023954 
L 212.698171 182.219098 
L 212.936362 181.519908 
L 213.174553 179.422335 
L 213.412745 187.812624 
L 213.650936 187.812624 
L 213.889127 182.918289 
L 214.127318 194.804532 
L 214.365509 191.308578 
L 214.6037 193.40615 
L 214.841892 192.007769 
L 215.318274 204.593202 
L 215.556465 203.894012 
L 215.794656 196.202913 
L 216.032847 201.097249 
L 216.271038 211.58511 
L 216.50923 203.894012 
L 216.747421 205.292393 
L 217.223803 196.902104 
L 217.461994 196.902104 
L 217.700185 194.105341 
L 218.176568 185.015861 
L 218.65295 181.519908 
L 218.891141 193.40615 
L 219.129332 198.300486 
L 219.605715 187.812624 
L 219.843906 189.211006 
L 220.082097 177.324763 
L 220.320288 182.219098 
L 220.558479 179.422335 
L 220.79667 180.121526 
L 221.034862 187.113434 
L 221.273053 187.113434 
L 221.749435 196.902104 
L 221.987626 194.105341 
L 222.225817 198.999676 
L 222.464009 200.398058 
L 222.7022 189.910197 
L 222.940391 190.609387 
L 223.178582 179.422335 
L 223.654964 167.536092 
L 223.893155 156.34904 
L 224.369538 148.657942 
L 224.607729 146.56037 
L 224.84592 146.56037 
L 225.084111 140.267653 
L 225.322302 140.966844 
L 225.560494 146.56037 
L 225.798685 147.958751 
L 226.275067 129.779792 
L 226.513258 133.275746 
L 226.751449 133.275746 
L 226.98964 132.576555 
L 227.227832 136.072509 
L 227.466023 128.38141 
L 227.704214 138.869272 
L 227.942405 136.771699 
L 228.180596 178.023954 
L 228.418787 177.324763 
L 228.89517 165.43852 
L 229.133361 153.552277 
L 229.371552 155.64985 
L 229.609743 159.145803 
L 229.847934 153.552277 
L 230.086126 161.942566 
L 230.324317 160.544185 
L 230.800699 164.040139 
L 231.03889 172.430428 
L 231.753464 185.015861 
L 231.991655 194.804532 
L 232.229846 210.186728 
L 232.468037 208.089156 
L 232.706228 212.983491 
L 232.944419 206.690775 
L 233.182611 211.58511 
L 233.420802 210.186728 
L 233.658993 213.682682 
L 233.897184 212.983491 
L 234.373566 196.202913 
L 234.611757 205.991584 
L 234.849949 206.690775 
L 235.08814 212.983491 
L 235.326331 206.690775 
L 235.564522 215.081064 
L 235.802713 212.983491 
L 236.040904 208.089156 
L 236.279096 205.991584 
L 236.517287 212.284301 
L 236.755478 213.682682 
L 236.993669 213.682682 
L 237.23186 215.081064 
L 237.470051 213.682682 
L 237.708243 218.577017 
L 237.946434 217.877827 
L 238.184625 201.097249 
L 238.422816 199.698867 
L 238.661007 199.698867 
L 238.899198 200.398058 
L 239.137389 200.398058 
L 239.375581 197.601295 
L 239.613772 192.007769 
L 239.851963 193.40615 
L 240.566536 205.292393 
L 240.804728 205.292393 
L 241.042919 207.389965 
L 241.519301 205.991584 
L 241.757492 210.186728 
L 241.995683 216.479445 
L 242.472066 202.49563 
L 242.710257 205.292393 
L 242.948448 201.097249 
L 243.186639 201.097249 
L 243.42483 203.894012 
L 243.901213 212.284301 
L 244.139404 205.292393 
L 244.377595 208.788347 
L 244.615786 207.389965 
L 245.092168 212.983491 
L 245.33036 218.577017 
L 245.568551 218.577017 
L 246.044933 199.698867 
L 246.283124 210.885919 
L 246.521315 205.292393 
L 246.759506 205.292393 
L 246.997698 202.49563 
L 247.235889 194.804532 
L 247.712271 196.202913 
L 247.950462 205.292393 
L 248.188653 203.894012 
L 248.426845 206.690775 
L 248.665036 204.593202 
L 248.903227 204.593202 
L 249.379609 212.284301 
L 249.855991 208.788347 
L 250.094183 203.894012 
L 250.332374 203.194821 
L 250.570565 205.292393 
L 250.808756 198.300486 
L 251.046947 195.503723 
L 251.52333 187.113434 
L 251.761521 187.812624 
L 251.999712 198.300486 
L 252.237903 203.194821 
L 252.476094 192.70696 
L 252.714285 189.910197 
L 252.952476 194.105341 
L 253.190668 193.40615 
L 253.66705 206.690775 
L 253.905241 203.894012 
L 254.143432 203.194821 
L 254.381623 196.902104 
L 254.619815 199.698867 
L 255.096197 189.910197 
L 255.334388 187.113434 
L 255.572579 182.918289 
L 255.81077 181.519908 
L 256.287153 190.609387 
L 256.525344 182.918289 
L 256.763535 184.316671 
L 257.001726 189.211006 
L 257.239917 185.015861 
L 257.478108 194.105341 
L 257.7163 194.804532 
L 257.954491 192.007769 
L 258.192682 192.007769 
L 258.430873 192.70696 
L 258.669064 173.828809 
L 258.907255 168.934474 
L 259.145447 173.129618 
L 259.383638 174.528 
L 259.621829 176.625572 
L 259.86002 176.625572 
L 260.336402 181.519908 
L 260.574593 192.70696 
L 260.812785 196.902104 
L 261.050976 196.902104 
L 261.289167 198.300486 
L 261.527358 202.49563 
L 261.765549 201.796439 
L 262.00374 205.292393 
L 262.718314 188.511815 
L 262.956505 194.105341 
L 263.671079 172.430428 
L 263.90927 168.934474 
L 264.147461 172.430428 
L 264.385652 173.129618 
L 264.623843 168.934474 
L 264.862034 173.828809 
L 265.100225 170.332855 
L 265.338417 172.430428 
L 265.576608 181.519908 
L 265.814799 175.227191 
L 266.05299 173.129618 
L 266.291181 173.129618 
L 266.529372 179.422335 
L 266.767564 174.528 
L 267.005755 174.528 
L 267.243946 178.723145 
L 267.482137 178.023954 
L 267.720328 180.121526 
L 267.958519 173.129618 
L 268.19671 170.332855 
L 268.434902 175.926382 
L 268.673093 175.926382 
L 269.149475 204.593202 
L 269.387666 205.991584 
L 269.625857 205.991584 
L 269.864049 199.698867 
L 270.10224 208.788347 
L 270.340431 210.885919 
L 270.578622 203.894012 
L 270.816813 206.690775 
L 271.055004 213.682682 
L 271.293195 212.983491 
L 271.531387 208.089156 
L 271.769578 200.398058 
L 272.007769 198.999676 
L 272.24596 196.902104 
L 272.484151 189.211006 
L 272.722342 194.804532 
L 273.198725 187.113434 
L 273.675107 196.202913 
L 273.913298 191.308578 
L 274.151489 194.105341 
L 274.389681 200.398058 
L 274.627872 196.202913 
L 274.866063 196.202913 
L 275.104254 198.999676 
L 275.342445 204.593202 
L 275.580636 202.49563 
L 276.057019 187.113434 
L 276.29521 189.211006 
L 276.533401 198.999676 
L 276.771592 196.902104 
L 277.009783 205.292393 
L 277.247974 208.089156 
L 277.486166 203.194821 
L 277.724357 203.894012 
L 277.962548 208.089156 
L 278.200739 208.788347 
L 278.43893 208.788347 
L 278.677121 206.690775 
L 278.915312 201.097249 
L 279.153504 208.089156 
L 279.391695 210.885919 
L 279.629886 204.593202 
L 279.868077 205.292393 
L 280.106268 206.690775 
L 280.344459 204.593202 
L 280.582651 198.300486 
L 280.820842 198.999676 
L 281.059033 205.991584 
L 281.297224 205.292393 
L 281.773606 196.202913 
L 282.011798 178.023954 
L 282.249989 173.828809 
L 282.726371 182.219098 
L 282.964562 176.625572 
L 283.202753 185.015861 
L 283.440944 187.113434 
L 283.679136 178.723145 
L 283.917327 180.121526 
L 284.393709 189.211006 
L 284.6319 197.601295 
L 284.870091 198.999676 
L 285.108283 211.58511 
L 285.346474 205.292393 
L 285.584665 195.503723 
L 285.822856 198.999676 
L 286.061047 200.398058 
L 286.299238 204.593202 
L 286.537429 198.999676 
L 286.775621 201.097249 
L 287.013812 208.089156 
L 287.252003 208.788347 
L 287.490194 208.788347 
L 288.442959 189.211006 
L 288.68115 180.820717 
L 288.919341 178.723145 
L 289.395723 191.308578 
L 289.633914 182.918289 
L 289.872106 182.918289 
L 290.110297 190.609387 
L 290.348488 189.910197 
L 290.586679 194.804532 
L 290.82487 194.105341 
L 291.063061 186.414243 
L 291.301253 185.715052 
L 292.015826 172.430428 
L 292.254017 183.61748 
L 292.492208 185.715052 
L 292.7304 185.715052 
L 292.968591 188.511815 
L 293.206782 185.015861 
L 293.444973 200.398058 
L 293.683164 195.503723 
L 294.159546 205.292393 
L 294.397738 205.292393 
L 294.635929 203.894012 
L 295.112311 197.601295 
L 295.350502 205.292393 
L 295.588693 208.089156 
L 295.826885 214.381873 
L 296.065076 214.381873 
L 296.303267 217.178636 
L 296.541458 215.780254 
L 296.779649 217.877827 
L 297.01784 229.764069 
L 297.256031 232.560832 
L 297.494223 229.064879 
L 297.732414 222.072971 
L 297.970605 226.268116 
L 298.208796 222.772162 
L 298.446987 222.072971 
L 298.685178 220.67459 
L 299.161561 226.967306 
L 299.399752 228.365688 
L 299.637943 215.780254 
L 299.876134 210.186728 
L 300.114325 215.081064 
L 300.352517 216.479445 
L 300.590708 215.780254 
L 300.828899 213.682682 
L 301.06709 218.577017 
L 301.305281 214.381873 
L 301.543472 212.983491 
L 301.781663 200.398058 
L 302.019855 198.999676 
L 302.258046 187.812624 
L 302.496237 185.715052 
L 302.972619 184.316671 
L 303.21081 185.015861 
L 303.449002 179.422335 
L 303.687193 183.61748 
L 303.925384 180.820717 
L 304.163575 183.61748 
L 304.401766 175.926382 
L 304.639957 180.121526 
L 304.878148 180.820717 
L 305.11634 189.211006 
L 305.354531 189.910197 
L 305.830913 194.105341 
L 306.069104 202.49563 
L 306.307295 201.796439 
L 306.545487 197.601295 
L 307.498251 213.682682 
L 307.974633 197.601295 
L 308.212825 195.503723 
L 308.451016 194.804532 
L 308.689207 199.698867 
L 308.927398 195.503723 
L 309.165589 196.202913 
L 309.40378 201.097249 
L 309.641972 198.999676 
L 309.880163 193.40615 
L 310.118354 190.609387 
L 310.356545 201.796439 
L 310.594736 203.894012 
L 310.832927 204.593202 
L 311.071119 205.991584 
L 311.30931 204.593202 
L 311.547501 201.796439 
L 311.785692 196.202913 
L 312.023883 175.926382 
L 312.500265 192.70696 
L 312.738457 193.40615 
L 313.214839 187.113434 
L 313.45303 187.812624 
L 313.691221 187.113434 
L 313.929412 172.430428 
L 314.167604 173.828809 
L 314.405795 177.324763 
L 314.643986 175.926382 
L 314.882177 178.723145 
L 315.120368 177.324763 
L 315.358559 178.723145 
L 315.59675 180.820717 
L 316.073133 186.414243 
L 316.311324 193.40615 
L 316.549515 185.015861 
L 316.787706 187.812624 
L 317.025897 182.918289 
L 317.264089 182.918289 
L 317.50228 190.609387 
L 317.740471 189.910197 
L 317.978662 195.503723 
L 318.216853 193.40615 
L 318.455044 198.300486 
L 318.693236 199.698867 
L 318.931427 207.389965 
L 319.169618 205.292393 
L 319.407809 208.089156 
L 319.646 209.487538 
L 319.884191 206.690775 
L 320.122382 217.178636 
L 320.360574 209.487538 
L 320.598765 215.780254 
L 320.836956 214.381873 
L 321.075147 215.780254 
L 321.551529 225.568925 
L 321.789721 219.975399 
L 322.027912 218.577017 
L 322.266103 215.780254 
L 322.504294 219.276208 
L 322.742485 212.284301 
L 322.980676 213.682682 
L 323.218867 217.877827 
L 323.69525 210.186728 
L 324.171632 219.276208 
L 324.409823 208.788347 
L 324.886206 211.58511 
L 325.124397 203.194821 
L 325.362588 201.796439 
L 325.600779 197.601295 
L 325.83897 202.49563 
L 326.077161 194.105341 
L 326.315352 196.902104 
L 326.553544 189.910197 
L 326.791735 186.414243 
L 327.029926 187.113434 
L 327.268117 180.820717 
L 327.744499 192.70696 
L 327.982691 190.609387 
L 328.220882 198.300486 
L 328.459073 197.601295 
L 328.697264 192.007769 
L 328.935455 197.601295 
L 329.173646 198.300486 
L 329.411838 194.105341 
L 329.650029 194.804532 
L 329.88822 196.902104 
L 330.126411 196.202913 
L 330.364602 194.105341 
L 330.602793 195.503723 
L 330.840984 192.70696 
L 331.079176 193.40615 
L 331.317367 201.796439 
L 331.555558 204.593202 
L 331.793749 200.398058 
L 332.03194 199.698867 
L 332.746514 187.812624 
L 332.984705 189.910197 
L 333.222896 182.219098 
L 333.461087 193.40615 
L 333.699278 195.503723 
L 333.937469 194.105341 
L 334.175661 195.503723 
L 334.413852 201.097249 
L 334.652043 199.698867 
L 334.890234 185.015861 
L 335.128425 187.113434 
L 335.366616 187.812624 
L 335.604808 189.211006 
L 335.842999 200.398058 
L 336.08119 201.097249 
L 336.557572 194.105341 
L 336.795763 192.70696 
L 337.033955 194.105341 
L 337.272146 198.300486 
L 337.510337 192.007769 
L 337.748528 191.308578 
L 337.986719 189.910197 
L 338.22491 189.211006 
L 338.701293 195.503723 
L 338.939484 201.796439 
L 339.177675 198.300486 
L 339.654057 202.49563 
L 339.892248 203.194821 
L 340.13044 205.991584 
L 340.606822 215.780254 
L 340.845013 216.479445 
L 341.797778 208.089156 
L 342.27416 215.081064 
L 342.512351 214.381873 
L 342.750542 216.479445 
L 342.988733 217.178636 
L 343.465116 207.389965 
L 343.703307 211.58511 
L 343.941498 212.983491 
L 344.179689 209.487538 
L 344.41788 214.381873 
L 344.894263 209.487538 
L 345.132454 216.479445 
L 345.370645 219.975399 
L 345.608836 220.67459 
L 345.847027 225.568925 
L 346.085218 225.568925 
L 346.32341 229.064879 
L 346.561601 224.170543 
L 346.799792 225.568925 
L 347.037983 226.268116 
L 347.276174 225.568925 
L 347.514365 221.37378 
L 347.990748 206.690775 
L 348.228939 200.398058 
L 348.46713 197.601295 
L 348.705321 201.097249 
L 348.943512 201.097249 
L 349.419895 208.089156 
L 349.658086 213.682682 
L 349.896277 215.780254 
L 350.134468 225.568925 
L 350.372659 215.081064 
L 350.61085 210.885919 
L 350.849042 210.186728 
L 351.325424 206.690775 
L 351.563615 209.487538 
L 351.801806 207.389965 
L 352.039997 209.487538 
L 352.278188 217.178636 
L 352.51638 215.081064 
L 352.754571 222.072971 
L 352.992762 222.772162 
L 353.469144 219.975399 
L 353.707335 222.772162 
L 353.945527 226.967306 
L 354.183718 221.37378 
L 354.421909 224.869734 
L 354.6601 224.170543 
L 354.898291 225.568925 
L 355.136482 224.869734 
L 355.374674 227.666497 
L 355.612865 227.666497 
L 355.851056 226.967306 
L 356.089247 227.666497 
L 356.327438 217.877827 
L 356.80382 222.772162 
L 357.042012 221.37378 
L 357.280203 229.064879 
L 357.518394 229.064879 
L 357.756585 232.560832 
L 357.994776 243.048694 
L 358.70935 230.46326 
L 358.947541 218.577017 
L 359.185732 215.780254 
L 359.423923 211.58511 
L 359.662114 214.381873 
L 359.900305 219.276208 
L 360.138497 219.975399 
L 360.376688 217.877827 
L 360.85307 205.292393 
L 361.091261 205.292393 
L 361.329452 193.40615 
L 361.567644 196.902104 
L 361.805835 196.902104 
L 362.044026 195.503723 
L 362.282217 193.40615 
L 362.520408 201.796439 
L 362.758599 202.49563 
L 362.996791 222.072971 
L 363.234982 229.764069 
L 363.473173 225.568925 
L 363.711364 218.577017 
L 363.949555 218.577017 
L 364.187746 222.072971 
L 364.425937 222.072971 
L 364.664129 225.568925 
L 364.90232 223.471353 
L 365.140511 234.658405 
L 365.378702 236.056786 
L 365.616893 236.056786 
L 365.855084 242.349503 
L 366.093276 236.056786 
L 366.331467 236.755977 
L 366.569658 234.658405 
L 366.807849 225.568925 
L 367.04604 225.568925 
L 367.284231 223.471353 
L 367.522422 223.471353 
L 367.760614 231.162451 
L 367.998805 229.064879 
L 368.236996 231.162451 
L 368.475187 236.056786 
L 368.713378 244.447075 
L 368.951569 247.243838 
L 369.189761 241.650312 
L 369.427952 240.951121 
L 369.666143 243.747884 
L 369.904334 244.447075 
L 370.142525 242.349503 
L 370.380716 246.544647 
L 370.618907 248.64222 
L 370.857099 254.934936 
L 371.09529 254.934936 
L 371.333481 250.040601 
L 371.571672 250.739792 
L 371.809863 237.455168 
L 372.286246 229.764069 
L 372.524437 229.064879 
L 372.762628 231.861642 
L 373.000819 236.056786 
L 373.23901 233.260023 
L 373.477201 239.55274 
L 373.715393 240.951121 
L 373.953584 245.146266 
L 374.191775 246.544647 
L 374.429966 243.048694 
L 375.144539 255.634127 
L 375.382731 256.333318 
L 375.620922 264.024416 
L 375.859113 267.52037 
L 376.097304 276.60985 
L 376.335495 277.30904 
L 376.573686 266.821179 
L 377.050069 259.130081 
L 377.28826 256.333318 
L 377.526451 258.43089 
L 378.241024 256.333318 
L 378.479216 258.43089 
L 378.717407 251.438983 
L 378.955598 252.837364 
L 379.43198 236.056786 
L 379.908363 243.747884 
L 380.384745 265.422798 
L 380.622936 269.617942 
L 380.861127 276.60985 
L 381.099318 278.008231 
L 381.33751 276.60985 
L 381.575701 274.512277 
L 381.813892 268.219561 
L 382.052083 268.219561 
L 382.290274 269.617942 
L 382.766656 279.406613 
L 383.004848 277.30904 
L 383.243039 278.707422 
L 383.48123 273.113896 
L 383.719421 272.414705 
L 383.957612 283.601757 
L 384.195803 280.804994 
L 384.433995 280.105803 
L 384.672186 282.902566 
L 384.910377 282.902566 
L 385.148568 280.105803 
L 385.386759 278.707422 
L 385.62495 280.105803 
L 385.863141 280.105803 
L 386.101333 275.211468 
L 386.577715 279.406613 
L 386.815906 275.910659 
L 387.054097 278.008231 
L 387.292288 282.902566 
L 387.53048 285.000139 
L 387.768671 289.195283 
L 388.006862 295.488 
L 388.721435 270.317133 
L 388.959626 273.113896 
L 389.197818 270.317133 
L 389.436009 268.918751 
L 389.912391 275.910659 
L 390.150582 276.60985 
L 390.388773 290.593665 
L 390.865156 290.593665 
L 391.103347 289.894474 
L 391.341538 287.097711 
L 391.579729 289.195283 
L 392.056112 286.39852 
L 392.294303 285.699329 
L 392.532494 282.203376 
L 392.770685 280.804994 
L 393.247067 271.715514 
L 393.485258 271.715514 
L 393.72345 275.211468 
L 393.961641 275.211468 
L 394.199832 276.60985 
L 394.438023 272.414705 
L 394.676214 272.414705 
L 394.914405 269.617942 
L 395.152597 270.317133 
L 395.390788 273.113896 
L 395.628979 272.414705 
L 395.86717 275.211468 
L 396.105361 274.512277 
L 396.581743 271.715514 
L 396.819935 273.113896 
L 397.058126 279.406613 
L 397.296317 279.406613 
L 397.534508 277.30904 
L 397.772699 273.813087 
L 398.01089 273.113896 
L 398.249082 271.715514 
L 398.487273 285.699329 
L 398.487273 285.699329 
" clip-path="url(#p8ff57f830e)" style="fill: none; stroke: #1f77b4; stroke-width: 1.5; stroke-linecap: square"/>
   </g>
   <g id="patch_3">
    <path d="M 57.6 307.584 
L 57.6 41.472 
" style="fill: none; stroke: #000000; stroke-width: 0.8; stroke-linejoin: miter; stroke-linecap: square"/>
   </g>
   <g id="patch_4">
    <path d="M 414.72 307.584 
L 414.72 41.472 
" style="fill: none; stroke: #000000; stroke-width: 0.8; stroke-linejoin: miter; stroke-linecap: square"/>
   </g>
   <g id="patch_5">
    <path d="M 57.6 307.584 
L 414.72 307.584 
" style="fill: none; stroke: #000000; stroke-width: 0.8; stroke-linejoin: miter; stroke-linecap: square"/>
   </g>
   <g id="patch_6">
    <path d="M 57.6 41.472 
L 414.72 41.472 
" style="fill: none; stroke: #000000; stroke-width: 0.8; stroke-linejoin: miter; stroke-linecap: square"/>
   </g>
   <g id="text_17">
    <!-- Simulated Anealling Cost -->
    <g transform="translate(160.8 35.472)scale(0.12 -0.12)">
     <defs>
      <path id="DejaVuSans-53" d="M 3425 4513 
L 3425 3897 
Q 3066 4069 2747 4153 
Q 2428 4238 2131 4238 
Q 1616 4238 1336 4038 
Q 1056 3838 1056 3469 
Q 1056 3159 1242 3001 
Q 1428 2844 1947 2747 
L 2328 2669 
Q 3034 2534 3370 2195 
Q 3706 1856 3706 1288 
Q 3706 609 3251 259 
Q 2797 -91 1919 -91 
Q 1588 -91 1214 -16 
Q 841 59 441 206 
L 441 856 
Q 825 641 1194 531 
Q 1563 422 1919 422 
Q 2459 422 2753 634 
Q 3047 847 3047 1241 
Q 3047 1584 2836 1778 
Q 2625 1972 2144 2069 
L 1759 2144 
Q 1053 2284 737 2584 
Q 422 2884 422 3419 
Q 422 4038 858 4394 
Q 1294 4750 2059 4750 
Q 2388 4750 2728 4690 
Q 3069 4631 3425 4513 
z
" transform="scale(0.015625)"/>
      <path id="DejaVuSans-69" d="M 603 3500 
L 1178 3500 
L 1178 0 
L 603 0 
L 603 3500 
z
M 603 4863 
L 1178 4863 
L 1178 4134 
L 603 4134 
L 603 4863 
z
" transform="scale(0.015625)"/>
      <path id="DejaVuSans-65" d="M 3597 1894 
L 3597 1613 
L 953 1613 
Q 991 1019 1311 708 
Q 1631 397 2203 397 
Q 2534 397 2845 478 
Q 3156 559 3463 722 
L 3463 178 
Q 3153 47 2828 -22 
Q 2503 -91 2169 -91 
Q 1331 -91 842 396 
Q 353 884 353 1716 
Q 353 2575 817 3079 
Q 1281 3584 2069 3584 
Q 2775 3584 3186 3129 
Q 3597 2675 3597 1894 
z
M 3022 2063 
Q 3016 2534 2758 2815 
Q 2500 3097 2075 3097 
Q 1594 3097 1305 2825 
Q 1016 2553 972 2059 
L 3022 2063 
z
" transform="scale(0.015625)"/>
      <path id="DejaVuSans-64" d="M 2906 2969 
L 2906 4863 
L 3481 4863 
L 3481 0 
L 2906 0 
L 2906 525 
Q 2725 213 2448 61 
Q 2172 -91 1784 -91 
Q 1150 -91 751 415 
Q 353 922 353 1747 
Q 353 2572 751 3078 
Q 1150 3584 1784 3584 
Q 2172 3584 2448 3432 
Q 2725 3281 2906 2969 
z
M 947 1747 
Q 947 1113 1208 752 
Q 1469 391 1925 391 
Q 2381 391 2643 752 
Q 2906 1113 2906 1747 
Q 2906 2381 2643 2742 
Q 2381 3103 1925 3103 
Q 1469 3103 1208 2742 
Q 947 2381 947 1747 
z
" transform="scale(0.015625)"/>
      <path id="DejaVuSans-41" d="M 2188 4044 
L 1331 1722 
L 3047 1722 
L 2188 4044 
z
M 1831 4666 
L 2547 4666 
L 4325 0 
L 3669 0 
L 3244 1197 
L 1141 1197 
L 716 0 
L 50 0 
L 1831 4666 
z
" transform="scale(0.015625)"/>
      <path id="DejaVuSans-67" d="M 2906 1791 
Q 2906 2416 2648 2759 
Q 2391 3103 1925 3103 
Q 1463 3103 1205 2759 
Q 947 2416 947 1791 
Q 947 1169 1205 825 
Q 1463 481 1925 481 
Q 2391 481 2648 825 
Q 2906 1169 2906 1791 
z
M 3481 434 
Q 3481 -459 3084 -895 
Q 2688 -1331 1869 -1331 
Q 1566 -1331 1297 -1286 
Q 1028 -1241 775 -1147 
L 775 -588 
Q 1028 -725 1275 -790 
Q 1522 -856 1778 -856 
Q 2344 -856 2625 -561 
Q 2906 -266 2906 331 
L 2906 616 
Q 2728 306 2450 153 
Q 2172 0 1784 0 
Q 1141 0 747 490 
Q 353 981 353 1791 
Q 353 2603 747 3093 
Q 1141 3584 1784 3584 
Q 2172 3584 2450 3431 
Q 2728 3278 2906 2969 
L 2906 3500 
L 3481 3500 
L 3481 434 
z
" transform="scale(0.015625)"/>
      <path id="DejaVuSans-43" d="M 4122 4306 
L 4122 3641 
Q 3803 3938 3442 4084 
Q 3081 4231 2675 4231 
Q 1875 4231 1450 3742 
Q 1025 3253 1025 2328 
Q 1025 1406 1450 917 
Q 1875 428 2675 428 
Q 3081 428 3442 575 
Q 3803 722 4122 1019 
L 4122 359 
Q 3791 134 3420 21 
Q 3050 -91 2638 -91 
Q 1578 -91 968 557 
Q 359 1206 359 2328 
Q 359 3453 968 4101 
Q 1578 4750 2638 4750 
Q 3056 4750 3426 4639 
Q 3797 4528 4122 4306 
z
" transform="scale(0.015625)"/>
     </defs>
     <use xlink:href="#DejaVuSans-53"/>
     <use xlink:href="#DejaVuSans-69" x="63.476562"/>
     <use xlink:href="#DejaVuSans-6d" x="91.259766"/>
     <use xlink:href="#DejaVuSans-75" x="188.671875"/>
     <use xlink:href="#DejaVuSans-6c" x="252.050781"/>
     <use xlink:href="#DejaVuSans-61" x="279.833984"/>
     <use xlink:href="#DejaVuSans-74" x="341.113281"/>
     <use xlink:href="#DejaVuSans-65" x="380.322266"/>
     <use xlink:href="#DejaVuSans-64" x="441.845703"/>
     <use xlink:href="#DejaVuSans-20" x="505.322266"/>
     <use xlink:href="#DejaVuSans-41" x="537.109375"/>
     <use xlink:href="#DejaVuSans-6e" x="605.517578"/>
     <use xlink:href="#DejaVuSans-65" x="668.896484"/>
     <use xlink:href="#DejaVuSans-61" x="730.419922"/>
     <use xlink:href="#DejaVuSans-6c" x="791.699219"/>
     <use xlink:href="#DejaVuSans-6c" x="819.482422"/>
     <use xlink:href="#DejaVuSans-69" x="847.265625"/>
     <use xlink:href="#DejaVuSans-6e" x="875.048828"/>
     <use xlink:href="#DejaVuSans-67" x="938.427734"/>
     <use xlink:href="#DejaVuSans-20" x="1001.904297"/>
     <use xlink:href="#DejaVuSans-43" x="1033.691406"/>
     <use xlink:href="#DejaVuSans-6f" x="1103.515625"/>
     <use xlink:href="#DejaVuSans-73" x="1164.697266"/>
     <use xlink:href="#DejaVuSans-74" x="1216.796875"/>
    </g>
   </g>
  </g>
 </g>
 <defs>
  <clipPath id="p8ff57f830e">
   <rect x="57.6" y="41.472" width="357.12" height="266.112"/>
  </clipPath>
 </defs>
</svg>
