<?xml version="1.0" encoding="utf-8" standalone="no"?>
<!DOCTYPE svg PUBLIC "-//W3C//DTD SVG 1.1//EN"
  "http://www.w3.org/Graphics/SVG/1.1/DTD/svg11.dtd">
<svg xmlns:xlink="http://www.w3.org/1999/xlink" width="460.8pt" height="345.6pt" viewBox="0 0 460.8 345.6" xmlns="http://www.w3.org/2000/svg" version="1.1">
 <metadata>
  <rdf:RDF xmlns:dc="http://purl.org/dc/elements/1.1/" xmlns:cc="http://creativecommons.org/ns#" xmlns:rdf="http://www.w3.org/1999/02/22-rdf-syntax-ns#">
   <cc:Work>
    <dc:type rdf:resource="http://purl.org/dc/dcmitype/StillImage"/>
    <dc:date>2022-06-01T08:03:04.293201</dc:date>
    <dc:format>image/svg+xml</dc:format>
    <dc:creator>
     <cc:Agent>
      <dc:title>Matplotlib v3.5.1, https://matplotlib.org/</dc:title>
     </cc:Agent>
    </dc:creator>
   </cc:Work>
  </rdf:RDF>
 </metadata>
 <defs>
  <style type="text/css">*{stroke-linejoin: round; stroke-linecap: butt}</style>
 </defs>
 <g id="figure_1">
  <g id="patch_1">
   <path d="M 0 345.6 
L 460.8 345.6 
L 460.8 0 
L 0 0 
z
" style="fill: #ffffff"/>
  </g>
  <g id="axes_1">
   <g id="patch_2">
    <path d="M 57.6 307.584 
L 414.72 307.584 
L 414.72 41.472 
L 57.6 41.472 
z
" style="fill: #ffffff"/>
   </g>
   <g id="matplotlib.axis_1">
    <g id="xtick_1">
     <g id="line2d_1">
      <defs>
       <path id="m799512cb76" d="M 0 0 
L 0 3.5 
" style="stroke: #000000; stroke-width: 0.8"/>
      </defs>
      <g>
       <use xlink:href="#m799512cb76" x="73.832727" y="307.584" style="stroke: #000000; stroke-width: 0.8"/>
      </g>
     </g>
     <g id="text_1">
      <!-- 0 -->
      <g transform="translate(70.651477 322.182437)scale(0.1 -0.1)">
       <defs>
        <path id="DejaVuSans-30" d="M 2034 4250 
Q 1547 4250 1301 3770 
Q 1056 3291 1056 2328 
Q 1056 1369 1301 889 
Q 1547 409 2034 409 
Q 2525 409 2770 889 
Q 3016 1369 3016 2328 
Q 3016 3291 2770 3770 
Q 2525 4250 2034 4250 
z
M 2034 4750 
Q 2819 4750 3233 4129 
Q 3647 3509 3647 2328 
Q 3647 1150 3233 529 
Q 2819 -91 2034 -91 
Q 1250 -91 836 529 
Q 422 1150 422 2328 
Q 422 3509 836 4129 
Q 1250 4750 2034 4750 
z
" transform="scale(0.015625)"/>
       </defs>
       <use xlink:href="#DejaVuSans-30"/>
      </g>
     </g>
    </g>
    <g id="xtick_2">
     <g id="line2d_2">
      <g>
       <use xlink:href="#m799512cb76" x="133.424237" y="307.584" style="stroke: #000000; stroke-width: 0.8"/>
      </g>
     </g>
     <g id="text_2">
      <!-- 500 -->
      <g transform="translate(123.880487 322.182437)scale(0.1 -0.1)">
       <defs>
        <path id="DejaVuSans-35" d="M 691 4666 
L 3169 4666 
L 3169 4134 
L 1269 4134 
L 1269 2991 
Q 1406 3038 1543 3061 
Q 1681 3084 1819 3084 
Q 2600 3084 3056 2656 
Q 3513 2228 3513 1497 
Q 3513 744 3044 326 
Q 2575 -91 1722 -91 
Q 1428 -91 1123 -41 
Q 819 9 494 109 
L 494 744 
Q 775 591 1075 516 
Q 1375 441 1709 441 
Q 2250 441 2565 725 
Q 2881 1009 2881 1497 
Q 2881 1984 2565 2268 
Q 2250 2553 1709 2553 
Q 1456 2553 1204 2497 
Q 953 2441 691 2322 
L 691 4666 
z
" transform="scale(0.015625)"/>
       </defs>
       <use xlink:href="#DejaVuSans-35"/>
       <use xlink:href="#DejaVuSans-30" x="63.623047"/>
       <use xlink:href="#DejaVuSans-30" x="127.246094"/>
      </g>
     </g>
    </g>
    <g id="xtick_3">
     <g id="line2d_3">
      <g>
       <use xlink:href="#m799512cb76" x="193.015747" y="307.584" style="stroke: #000000; stroke-width: 0.8"/>
      </g>
     </g>
     <g id="text_3">
      <!-- 1000 -->
      <g transform="translate(180.290747 322.182437)scale(0.1 -0.1)">
       <defs>
        <path id="DejaVuSans-31" d="M 794 531 
L 1825 531 
L 1825 4091 
L 703 3866 
L 703 4441 
L 1819 4666 
L 2450 4666 
L 2450 531 
L 3481 531 
L 3481 0 
L 794 0 
L 794 531 
z
" transform="scale(0.015625)"/>
       </defs>
       <use xlink:href="#DejaVuSans-31"/>
       <use xlink:href="#DejaVuSans-30" x="63.623047"/>
       <use xlink:href="#DejaVuSans-30" x="127.246094"/>
       <use xlink:href="#DejaVuSans-30" x="190.869141"/>
      </g>
     </g>
    </g>
    <g id="xtick_4">
     <g id="line2d_4">
      <g>
       <use xlink:href="#m799512cb76" x="252.607257" y="307.584" style="stroke: #000000; stroke-width: 0.8"/>
      </g>
     </g>
     <g id="text_4">
      <!-- 1500 -->
      <g transform="translate(239.882257 322.182437)scale(0.1 -0.1)">
       <use xlink:href="#DejaVuSans-31"/>
       <use xlink:href="#DejaVuSans-35" x="63.623047"/>
       <use xlink:href="#DejaVuSans-30" x="127.246094"/>
       <use xlink:href="#DejaVuSans-30" x="190.869141"/>
      </g>
     </g>
    </g>
    <g id="xtick_5">
     <g id="line2d_5">
      <g>
       <use xlink:href="#m799512cb76" x="312.198767" y="307.584" style="stroke: #000000; stroke-width: 0.8"/>
      </g>
     </g>
     <g id="text_5">
      <!-- 2000 -->
      <g transform="translate(299.473767 322.182437)scale(0.1 -0.1)">
       <defs>
        <path id="DejaVuSans-32" d="M 1228 531 
L 3431 531 
L 3431 0 
L 469 0 
L 469 531 
Q 828 903 1448 1529 
Q 2069 2156 2228 2338 
Q 2531 2678 2651 2914 
Q 2772 3150 2772 3378 
Q 2772 3750 2511 3984 
Q 2250 4219 1831 4219 
Q 1534 4219 1204 4116 
Q 875 4013 500 3803 
L 500 4441 
Q 881 4594 1212 4672 
Q 1544 4750 1819 4750 
Q 2544 4750 2975 4387 
Q 3406 4025 3406 3419 
Q 3406 3131 3298 2873 
Q 3191 2616 2906 2266 
Q 2828 2175 2409 1742 
Q 1991 1309 1228 531 
z
" transform="scale(0.015625)"/>
       </defs>
       <use xlink:href="#DejaVuSans-32"/>
       <use xlink:href="#DejaVuSans-30" x="63.623047"/>
       <use xlink:href="#DejaVuSans-30" x="127.246094"/>
       <use xlink:href="#DejaVuSans-30" x="190.869141"/>
      </g>
     </g>
    </g>
    <g id="xtick_6">
     <g id="line2d_6">
      <g>
       <use xlink:href="#m799512cb76" x="371.790276" y="307.584" style="stroke: #000000; stroke-width: 0.8"/>
      </g>
     </g>
     <g id="text_6">
      <!-- 2500 -->
      <g transform="translate(359.065276 322.182437)scale(0.1 -0.1)">
       <use xlink:href="#DejaVuSans-32"/>
       <use xlink:href="#DejaVuSans-35" x="63.623047"/>
       <use xlink:href="#DejaVuSans-30" x="127.246094"/>
       <use xlink:href="#DejaVuSans-30" x="190.869141"/>
      </g>
     </g>
    </g>
    <g id="text_7">
     <!-- num swaps -->
     <g transform="translate(207.826406 335.860562)scale(0.1 -0.1)">
      <defs>
       <path id="DejaVuSans-6e" d="M 3513 2113 
L 3513 0 
L 2938 0 
L 2938 2094 
Q 2938 2591 2744 2837 
Q 2550 3084 2163 3084 
Q 1697 3084 1428 2787 
Q 1159 2491 1159 1978 
L 1159 0 
L 581 0 
L 581 3500 
L 1159 3500 
L 1159 2956 
Q 1366 3272 1645 3428 
Q 1925 3584 2291 3584 
Q 2894 3584 3203 3211 
Q 3513 2838 3513 2113 
z
" transform="scale(0.015625)"/>
       <path id="DejaVuSans-75" d="M 544 1381 
L 544 3500 
L 1119 3500 
L 1119 1403 
Q 1119 906 1312 657 
Q 1506 409 1894 409 
Q 2359 409 2629 706 
Q 2900 1003 2900 1516 
L 2900 3500 
L 3475 3500 
L 3475 0 
L 2900 0 
L 2900 538 
Q 2691 219 2414 64 
Q 2138 -91 1772 -91 
Q 1169 -91 856 284 
Q 544 659 544 1381 
z
M 1991 3584 
L 1991 3584 
z
" transform="scale(0.015625)"/>
       <path id="DejaVuSans-6d" d="M 3328 2828 
Q 3544 3216 3844 3400 
Q 4144 3584 4550 3584 
Q 5097 3584 5394 3201 
Q 5691 2819 5691 2113 
L 5691 0 
L 5113 0 
L 5113 2094 
Q 5113 2597 4934 2840 
Q 4756 3084 4391 3084 
Q 3944 3084 3684 2787 
Q 3425 2491 3425 1978 
L 3425 0 
L 2847 0 
L 2847 2094 
Q 2847 2600 2669 2842 
Q 2491 3084 2119 3084 
Q 1678 3084 1418 2786 
Q 1159 2488 1159 1978 
L 1159 0 
L 581 0 
L 581 3500 
L 1159 3500 
L 1159 2956 
Q 1356 3278 1631 3431 
Q 1906 3584 2284 3584 
Q 2666 3584 2933 3390 
Q 3200 3197 3328 2828 
z
" transform="scale(0.015625)"/>
       <path id="DejaVuSans-20" transform="scale(0.015625)"/>
       <path id="DejaVuSans-73" d="M 2834 3397 
L 2834 2853 
Q 2591 2978 2328 3040 
Q 2066 3103 1784 3103 
Q 1356 3103 1142 2972 
Q 928 2841 928 2578 
Q 928 2378 1081 2264 
Q 1234 2150 1697 2047 
L 1894 2003 
Q 2506 1872 2764 1633 
Q 3022 1394 3022 966 
Q 3022 478 2636 193 
Q 2250 -91 1575 -91 
Q 1294 -91 989 -36 
Q 684 19 347 128 
L 347 722 
Q 666 556 975 473 
Q 1284 391 1588 391 
Q 1994 391 2212 530 
Q 2431 669 2431 922 
Q 2431 1156 2273 1281 
Q 2116 1406 1581 1522 
L 1381 1569 
Q 847 1681 609 1914 
Q 372 2147 372 2553 
Q 372 3047 722 3315 
Q 1072 3584 1716 3584 
Q 2034 3584 2315 3537 
Q 2597 3491 2834 3397 
z
" transform="scale(0.015625)"/>
       <path id="DejaVuSans-77" d="M 269 3500 
L 844 3500 
L 1563 769 
L 2278 3500 
L 2956 3500 
L 3675 769 
L 4391 3500 
L 4966 3500 
L 4050 0 
L 3372 0 
L 2619 2869 
L 1863 0 
L 1184 0 
L 269 3500 
z
" transform="scale(0.015625)"/>
       <path id="DejaVuSans-61" d="M 2194 1759 
Q 1497 1759 1228 1600 
Q 959 1441 959 1056 
Q 959 750 1161 570 
Q 1363 391 1709 391 
Q 2188 391 2477 730 
Q 2766 1069 2766 1631 
L 2766 1759 
L 2194 1759 
z
M 3341 1997 
L 3341 0 
L 2766 0 
L 2766 531 
Q 2569 213 2275 61 
Q 1981 -91 1556 -91 
Q 1019 -91 701 211 
Q 384 513 384 1019 
Q 384 1609 779 1909 
Q 1175 2209 1959 2209 
L 2766 2209 
L 2766 2266 
Q 2766 2663 2505 2880 
Q 2244 3097 1772 3097 
Q 1472 3097 1187 3025 
Q 903 2953 641 2809 
L 641 3341 
Q 956 3463 1253 3523 
Q 1550 3584 1831 3584 
Q 2591 3584 2966 3190 
Q 3341 2797 3341 1997 
z
" transform="scale(0.015625)"/>
       <path id="DejaVuSans-70" d="M 1159 525 
L 1159 -1331 
L 581 -1331 
L 581 3500 
L 1159 3500 
L 1159 2969 
Q 1341 3281 1617 3432 
Q 1894 3584 2278 3584 
Q 2916 3584 3314 3078 
Q 3713 2572 3713 1747 
Q 3713 922 3314 415 
Q 2916 -91 2278 -91 
Q 1894 -91 1617 61 
Q 1341 213 1159 525 
z
M 3116 1747 
Q 3116 2381 2855 2742 
Q 2594 3103 2138 3103 
Q 1681 3103 1420 2742 
Q 1159 2381 1159 1747 
Q 1159 1113 1420 752 
Q 1681 391 2138 391 
Q 2594 391 2855 752 
Q 3116 1113 3116 1747 
z
" transform="scale(0.015625)"/>
      </defs>
      <use xlink:href="#DejaVuSans-6e"/>
      <use xlink:href="#DejaVuSans-75" x="63.378906"/>
      <use xlink:href="#DejaVuSans-6d" x="126.757812"/>
      <use xlink:href="#DejaVuSans-20" x="224.169922"/>
      <use xlink:href="#DejaVuSans-73" x="255.957031"/>
      <use xlink:href="#DejaVuSans-77" x="308.056641"/>
      <use xlink:href="#DejaVuSans-61" x="389.84375"/>
      <use xlink:href="#DejaVuSans-70" x="451.123047"/>
      <use xlink:href="#DejaVuSans-73" x="514.599609"/>
     </g>
    </g>
   </g>
   <g id="matplotlib.axis_2">
    <g id="ytick_1">
     <g id="line2d_7">
      <defs>
       <path id="m8dfadd5736" d="M 0 0 
L -3.5 0 
" style="stroke: #000000; stroke-width: 0.8"/>
      </defs>
      <g>
       <use xlink:href="#m8dfadd5736" x="57.6" y="307.217455" style="stroke: #000000; stroke-width: 0.8"/>
      </g>
     </g>
     <g id="text_8">
      <!-- 1850 -->
      <g transform="translate(25.15 311.016673)scale(0.1 -0.1)">
       <defs>
        <path id="DejaVuSans-38" d="M 2034 2216 
Q 1584 2216 1326 1975 
Q 1069 1734 1069 1313 
Q 1069 891 1326 650 
Q 1584 409 2034 409 
Q 2484 409 2743 651 
Q 3003 894 3003 1313 
Q 3003 1734 2745 1975 
Q 2488 2216 2034 2216 
z
M 1403 2484 
Q 997 2584 770 2862 
Q 544 3141 544 3541 
Q 544 4100 942 4425 
Q 1341 4750 2034 4750 
Q 2731 4750 3128 4425 
Q 3525 4100 3525 3541 
Q 3525 3141 3298 2862 
Q 3072 2584 2669 2484 
Q 3125 2378 3379 2068 
Q 3634 1759 3634 1313 
Q 3634 634 3220 271 
Q 2806 -91 2034 -91 
Q 1263 -91 848 271 
Q 434 634 434 1313 
Q 434 1759 690 2068 
Q 947 2378 1403 2484 
z
M 1172 3481 
Q 1172 3119 1398 2916 
Q 1625 2713 2034 2713 
Q 2441 2713 2670 2916 
Q 2900 3119 2900 3481 
Q 2900 3844 2670 4047 
Q 2441 4250 2034 4250 
Q 1625 4250 1398 4047 
Q 1172 3844 1172 3481 
z
" transform="scale(0.015625)"/>
       </defs>
       <use xlink:href="#DejaVuSans-31"/>
       <use xlink:href="#DejaVuSans-38" x="63.623047"/>
       <use xlink:href="#DejaVuSans-35" x="127.246094"/>
       <use xlink:href="#DejaVuSans-30" x="190.869141"/>
      </g>
     </g>
    </g>
    <g id="ytick_2">
     <g id="line2d_8">
      <g>
       <use xlink:href="#m8dfadd5736" x="57.6" y="270.562909" style="stroke: #000000; stroke-width: 0.8"/>
      </g>
     </g>
     <g id="text_9">
      <!-- 1900 -->
      <g transform="translate(25.15 274.362128)scale(0.1 -0.1)">
       <defs>
        <path id="DejaVuSans-39" d="M 703 97 
L 703 672 
Q 941 559 1184 500 
Q 1428 441 1663 441 
Q 2288 441 2617 861 
Q 2947 1281 2994 2138 
Q 2813 1869 2534 1725 
Q 2256 1581 1919 1581 
Q 1219 1581 811 2004 
Q 403 2428 403 3163 
Q 403 3881 828 4315 
Q 1253 4750 1959 4750 
Q 2769 4750 3195 4129 
Q 3622 3509 3622 2328 
Q 3622 1225 3098 567 
Q 2575 -91 1691 -91 
Q 1453 -91 1209 -44 
Q 966 3 703 97 
z
M 1959 2075 
Q 2384 2075 2632 2365 
Q 2881 2656 2881 3163 
Q 2881 3666 2632 3958 
Q 2384 4250 1959 4250 
Q 1534 4250 1286 3958 
Q 1038 3666 1038 3163 
Q 1038 2656 1286 2365 
Q 1534 2075 1959 2075 
z
" transform="scale(0.015625)"/>
       </defs>
       <use xlink:href="#DejaVuSans-31"/>
       <use xlink:href="#DejaVuSans-39" x="63.623047"/>
       <use xlink:href="#DejaVuSans-30" x="127.246094"/>
       <use xlink:href="#DejaVuSans-30" x="190.869141"/>
      </g>
     </g>
    </g>
    <g id="ytick_3">
     <g id="line2d_9">
      <g>
       <use xlink:href="#m8dfadd5736" x="57.6" y="233.908364" style="stroke: #000000; stroke-width: 0.8"/>
      </g>
     </g>
     <g id="text_10">
      <!-- 1950 -->
      <g transform="translate(25.15 237.707582)scale(0.1 -0.1)">
       <use xlink:href="#DejaVuSans-31"/>
       <use xlink:href="#DejaVuSans-39" x="63.623047"/>
       <use xlink:href="#DejaVuSans-35" x="127.246094"/>
       <use xlink:href="#DejaVuSans-30" x="190.869141"/>
      </g>
     </g>
    </g>
    <g id="ytick_4">
     <g id="line2d_10">
      <g>
       <use xlink:href="#m8dfadd5736" x="57.6" y="197.253818" style="stroke: #000000; stroke-width: 0.8"/>
      </g>
     </g>
     <g id="text_11">
      <!-- 2000 -->
      <g transform="translate(25.15 201.053037)scale(0.1 -0.1)">
       <use xlink:href="#DejaVuSans-32"/>
       <use xlink:href="#DejaVuSans-30" x="63.623047"/>
       <use xlink:href="#DejaVuSans-30" x="127.246094"/>
       <use xlink:href="#DejaVuSans-30" x="190.869141"/>
      </g>
     </g>
    </g>
    <g id="ytick_5">
     <g id="line2d_11">
      <g>
       <use xlink:href="#m8dfadd5736" x="57.6" y="160.599273" style="stroke: #000000; stroke-width: 0.8"/>
      </g>
     </g>
     <g id="text_12">
      <!-- 2050 -->
      <g transform="translate(25.15 164.398491)scale(0.1 -0.1)">
       <use xlink:href="#DejaVuSans-32"/>
       <use xlink:href="#DejaVuSans-30" x="63.623047"/>
       <use xlink:href="#DejaVuSans-35" x="127.246094"/>
       <use xlink:href="#DejaVuSans-30" x="190.869141"/>
      </g>
     </g>
    </g>
    <g id="ytick_6">
     <g id="line2d_12">
      <g>
       <use xlink:href="#m8dfadd5736" x="57.6" y="123.944727" style="stroke: #000000; stroke-width: 0.8"/>
      </g>
     </g>
     <g id="text_13">
      <!-- 2100 -->
      <g transform="translate(25.15 127.743946)scale(0.1 -0.1)">
       <use xlink:href="#DejaVuSans-32"/>
       <use xlink:href="#DejaVuSans-31" x="63.623047"/>
       <use xlink:href="#DejaVuSans-30" x="127.246094"/>
       <use xlink:href="#DejaVuSans-30" x="190.869141"/>
      </g>
     </g>
    </g>
    <g id="ytick_7">
     <g id="line2d_13">
      <g>
       <use xlink:href="#m8dfadd5736" x="57.6" y="87.290182" style="stroke: #000000; stroke-width: 0.8"/>
      </g>
     </g>
     <g id="text_14">
      <!-- 2150 -->
      <g transform="translate(25.15 91.089401)scale(0.1 -0.1)">
       <use xlink:href="#DejaVuSans-32"/>
       <use xlink:href="#DejaVuSans-31" x="63.623047"/>
       <use xlink:href="#DejaVuSans-35" x="127.246094"/>
       <use xlink:href="#DejaVuSans-30" x="190.869141"/>
      </g>
     </g>
    </g>
    <g id="ytick_8">
     <g id="line2d_14">
      <g>
       <use xlink:href="#m8dfadd5736" x="57.6" y="50.635636" style="stroke: #000000; stroke-width: 0.8"/>
      </g>
     </g>
     <g id="text_15">
      <!-- 2200 -->
      <g transform="translate(25.15 54.434855)scale(0.1 -0.1)">
       <use xlink:href="#DejaVuSans-32"/>
       <use xlink:href="#DejaVuSans-32" x="63.623047"/>
       <use xlink:href="#DejaVuSans-30" x="127.246094"/>
       <use xlink:href="#DejaVuSans-30" x="190.869141"/>
      </g>
     </g>
    </g>
    <g id="text_16">
     <!-- total cost -->
     <g transform="translate(19.070312 197.923313)rotate(-90)scale(0.1 -0.1)">
      <defs>
       <path id="DejaVuSans-74" d="M 1172 4494 
L 1172 3500 
L 2356 3500 
L 2356 3053 
L 1172 3053 
L 1172 1153 
Q 1172 725 1289 603 
Q 1406 481 1766 481 
L 2356 481 
L 2356 0 
L 1766 0 
Q 1100 0 847 248 
Q 594 497 594 1153 
L 594 3053 
L 172 3053 
L 172 3500 
L 594 3500 
L 594 4494 
L 1172 4494 
z
" transform="scale(0.015625)"/>
       <path id="DejaVuSans-6f" d="M 1959 3097 
Q 1497 3097 1228 2736 
Q 959 2375 959 1747 
Q 959 1119 1226 758 
Q 1494 397 1959 397 
Q 2419 397 2687 759 
Q 2956 1122 2956 1747 
Q 2956 2369 2687 2733 
Q 2419 3097 1959 3097 
z
M 1959 3584 
Q 2709 3584 3137 3096 
Q 3566 2609 3566 1747 
Q 3566 888 3137 398 
Q 2709 -91 1959 -91 
Q 1206 -91 779 398 
Q 353 888 353 1747 
Q 353 2609 779 3096 
Q 1206 3584 1959 3584 
z
" transform="scale(0.015625)"/>
       <path id="DejaVuSans-6c" d="M 603 4863 
L 1178 4863 
L 1178 0 
L 603 0 
L 603 4863 
z
" transform="scale(0.015625)"/>
       <path id="DejaVuSans-63" d="M 3122 3366 
L 3122 2828 
Q 2878 2963 2633 3030 
Q 2388 3097 2138 3097 
Q 1578 3097 1268 2742 
Q 959 2388 959 1747 
Q 959 1106 1268 751 
Q 1578 397 2138 397 
Q 2388 397 2633 464 
Q 2878 531 3122 666 
L 3122 134 
Q 2881 22 2623 -34 
Q 2366 -91 2075 -91 
Q 1284 -91 818 406 
Q 353 903 353 1747 
Q 353 2603 823 3093 
Q 1294 3584 2113 3584 
Q 2378 3584 2631 3529 
Q 2884 3475 3122 3366 
z
" transform="scale(0.015625)"/>
      </defs>
      <use xlink:href="#DejaVuSans-74"/>
      <use xlink:href="#DejaVuSans-6f" x="39.208984"/>
      <use xlink:href="#DejaVuSans-74" x="100.390625"/>
      <use xlink:href="#DejaVuSans-61" x="139.599609"/>
      <use xlink:href="#DejaVuSans-6c" x="200.878906"/>
      <use xlink:href="#DejaVuSans-20" x="228.662109"/>
      <use xlink:href="#DejaVuSans-63" x="260.449219"/>
      <use xlink:href="#DejaVuSans-6f" x="315.429688"/>
      <use xlink:href="#DejaVuSans-73" x="376.611328"/>
      <use xlink:href="#DejaVuSans-74" x="428.710938"/>
     </g>
    </g>
   </g>
   <g id="line2d_15">
    <path d="M 73.832727 112.948364 
L 74.071093 114.414545 
L 74.309459 115.147636 
L 74.547825 108.549818 
L 74.786191 108.549818 
L 75.024557 102.685091 
L 75.262924 87.290182 
L 75.739656 74.827636 
L 75.978022 74.827636 
L 76.216388 74.094545 
L 76.454754 70.429091 
L 76.69312 72.628364 
L 76.931486 79.226182 
L 77.169852 78.493091 
L 77.408218 84.357818 
L 77.646584 76.293818 
L 77.88495 82.158545 
L 78.123316 72.628364 
L 78.361682 80.692364 
L 78.600048 77.76 
L 78.838414 82.158545 
L 79.07678 91.688727 
L 79.315146 89.489455 
L 79.553512 101.952 
L 80.26861 115.880727 
L 80.506976 118.813091 
L 80.745342 117.346909 
L 80.983708 121.012364 
L 81.222074 121.745455 
L 81.460441 123.944727 
L 81.698807 121.745455 
L 81.937173 105.617455 
L 82.175539 106.350545 
L 82.413905 106.350545 
L 82.652271 104.151273 
L 83.129003 110.016 
L 83.367369 111.482182 
L 83.605735 110.016 
L 83.844101 102.685091 
L 84.082467 99.019636 
L 84.320833 103.418182 
L 84.559199 101.952 
L 84.797565 103.418182 
L 85.035931 107.083636 
L 85.274297 104.884364 
L 85.512663 101.218909 
L 85.751029 106.350545 
L 85.989395 95.354182 
L 86.227761 118.813091 
L 86.704493 105.617455 
L 86.942859 109.282909 
L 87.181225 110.016 
L 87.419592 106.350545 
L 87.657958 104.884364 
L 87.896324 104.151273 
L 88.13469 102.685091 
L 88.373056 114.414545 
L 88.611422 113.681455 
L 88.849788 115.147636 
L 89.088154 114.414545 
L 89.32652 117.346909 
L 89.564886 110.016 
L 89.803252 110.016 
L 90.041618 108.549818 
L 90.279984 118.813091 
L 90.51835 119.546182 
L 90.756716 126.877091 
L 90.995082 141.538909 
L 91.233448 134.208 
L 91.471814 133.474909 
L 91.71018 130.542545 
L 91.948546 112.948364 
L 92.90201 97.553455 
L 93.140376 96.820364 
L 93.378742 90.955636 
L 93.617109 96.087273 
L 93.855475 110.016 
L 94.093841 110.749091 
L 94.808939 129.809455 
L 95.047305 125.410909 
L 95.285671 123.944727 
L 95.524037 124.677818 
L 95.762403 126.144 
L 96.000769 116.613818 
L 96.239135 112.215273 
L 96.477501 110.016 
L 96.715867 117.346909 
L 96.954233 118.08 
L 97.192599 115.147636 
L 97.669331 115.147636 
L 97.907697 110.016 
L 98.146063 109.282909 
L 98.384429 105.617455 
L 98.861161 117.346909 
L 99.099527 115.147636 
L 99.337893 110.749091 
L 99.57626 114.414545 
L 99.814626 114.414545 
L 100.291358 107.816727 
L 100.529724 110.016 
L 100.76809 107.816727 
L 101.006456 103.418182 
L 101.244822 102.685091 
L 101.483188 98.286545 
L 101.721554 88.756364 
L 101.95992 93.888 
L 102.198286 85.090909 
L 102.436652 90.955636 
L 102.675018 84.357818 
L 102.913384 87.290182 
L 103.15175 82.158545 
L 103.390116 80.692364 
L 103.628482 80.692364 
L 104.105214 90.955636 
L 104.581946 80.692364 
L 104.820312 78.493091 
L 105.058678 79.226182 
L 105.297044 81.425455 
L 105.53541 75.560727 
L 105.773777 90.222545 
L 106.012143 83.624727 
L 106.250509 81.425455 
L 106.488875 57.233455 
L 106.727241 53.568 
L 106.965607 60.165818 
L 107.203973 81.425455 
L 107.442339 63.098182 
L 107.680705 71.162182 
L 107.919071 71.895273 
L 108.157437 83.624727 
L 108.395803 78.493091 
L 108.634169 67.496727 
L 108.872535 66.030545 
L 109.110901 74.827636 
L 109.349267 70.429091 
L 109.587633 75.560727 
L 109.825999 68.962909 
L 110.064365 66.030545 
L 110.779463 81.425455 
L 111.017829 79.959273 
L 111.256195 86.557091 
L 111.494561 86.557091 
L 111.732928 85.824 
L 111.971294 88.023273 
L 112.20966 92.421818 
L 112.686392 87.290182 
L 112.924758 85.090909 
L 113.163124 99.019636 
L 113.40149 97.553455 
L 113.639856 104.151273 
L 113.878222 100.485818 
L 114.116588 112.215273 
L 114.354954 112.948364 
L 114.59332 111.482182 
L 114.831686 109.282909 
L 115.070052 108.549818 
L 115.308418 112.215273 
L 115.78515 115.147636 
L 116.023516 110.749091 
L 116.261882 110.749091 
L 116.500248 110.016 
L 116.738614 110.749091 
L 116.97698 110.749091 
L 117.453712 140.072727 
L 117.930445 130.542545 
L 118.168811 126.144 
L 119.360641 151.069091 
L 119.599007 153.268364 
L 119.837373 145.204364 
L 120.075739 143.005091 
L 120.314105 134.208 
L 120.552471 139.339636 
L 120.790837 138.606545 
L 121.267569 132.008727 
L 121.505935 127.610182 
L 121.744301 134.941091 
L 121.982667 129.809455 
L 122.221033 131.275636 
L 122.459399 131.275636 
L 122.697765 132.008727 
L 123.174497 140.072727 
L 123.412863 145.204364 
L 123.889596 143.738182 
L 124.127962 144.471273 
L 124.366328 143.738182 
L 124.604694 141.538909 
L 124.84306 137.873455 
L 125.319792 145.937455 
L 125.558158 154.001455 
L 125.796524 153.268364 
L 126.03489 154.734545 
L 126.273256 154.001455 
L 126.511622 156.933818 
L 126.749988 149.602909 
L 126.988354 148.136727 
L 127.22672 150.336 
L 127.465086 148.869818 
L 127.703452 159.133091 
L 127.941818 156.200727 
L 128.180184 158.4 
L 128.41855 155.467636 
L 128.656916 144.471273 
L 128.895282 115.147636 
L 129.133648 104.884364 
L 129.372014 104.151273 
L 129.61038 102.685091 
L 129.848746 104.151273 
L 130.087113 102.685091 
L 130.325479 104.884364 
L 130.563845 111.482182 
L 130.802211 110.749091 
L 131.040577 107.083636 
L 131.278943 106.350545 
L 131.517309 101.952 
L 131.755675 94.621091 
L 131.994041 98.286545 
L 132.232407 99.019636 
L 132.470773 101.952 
L 132.709139 99.019636 
L 133.424237 117.346909 
L 133.662603 118.08 
L 134.139335 123.211636 
L 134.377701 120.279273 
L 134.616067 115.147636 
L 134.854433 114.414545 
L 135.331165 126.144 
L 135.569531 121.745455 
L 135.807897 113.681455 
L 136.046264 115.880727 
L 136.28463 126.877091 
L 136.522996 126.877091 
L 136.761362 127.610182 
L 137.238094 123.944727 
L 137.47646 123.211636 
L 137.714826 123.944727 
L 137.953192 137.873455 
L 138.191558 140.072727 
L 138.429924 132.008727 
L 138.66829 131.275636 
L 138.906656 132.741818 
L 139.145022 123.211636 
L 139.383388 121.745455 
L 139.621754 112.948364 
L 139.86012 110.016 
L 140.098486 109.282909 
L 140.336852 114.414545 
L 140.575218 113.681455 
L 140.813584 105.617455 
L 141.05195 105.617455 
L 141.290316 101.952 
L 141.528682 107.083636 
L 141.767048 107.083636 
L 142.005414 98.286545 
L 142.243781 101.952 
L 142.482147 96.820364 
L 142.720513 98.286545 
L 142.958879 98.286545 
L 143.197245 101.218909 
L 143.435611 106.350545 
L 143.673977 107.816727 
L 143.912343 110.016 
L 144.150709 118.08 
L 144.389075 121.012364 
L 144.627441 127.610182 
L 144.865807 124.677818 
L 145.104173 126.877091 
L 145.342539 131.275636 
L 145.580905 143.738182 
L 145.819271 123.211636 
L 146.057637 121.745455 
L 146.296003 122.478545 
L 146.534369 114.414545 
L 146.772735 112.215273 
L 147.249467 122.478545 
L 147.487833 118.08 
L 147.726199 119.546182 
L 147.964565 115.147636 
L 148.202932 113.681455 
L 148.441298 114.414545 
L 148.91803 123.211636 
L 149.156396 120.279273 
L 149.394762 122.478545 
L 149.633128 140.072727 
L 149.871494 145.204364 
L 150.10986 141.538909 
L 150.348226 150.336 
L 150.586592 145.937455 
L 151.063324 144.471273 
L 151.30169 146.670545 
L 151.540056 146.670545 
L 151.778422 149.602909 
L 152.016788 136.407273 
L 152.255154 134.941091 
L 152.731886 142.272 
L 152.970252 154.734545 
L 153.208618 154.734545 
L 153.446984 162.798545 
L 153.68535 165.730909 
L 153.923716 158.4 
L 154.400449 163.531636 
L 154.638815 159.866182 
L 154.877181 153.268364 
L 155.115547 156.200727 
L 155.353913 156.933818 
L 155.830645 142.272 
L 156.069011 139.339636 
L 156.307377 140.072727 
L 156.545743 148.869818 
L 156.784109 149.602909 
L 157.022475 149.602909 
L 157.260841 165.730909 
L 157.499207 157.666909 
L 157.737573 157.666909 
L 157.975939 162.065455 
L 158.214305 163.531636 
L 158.452671 173.794909 
L 158.929403 163.531636 
L 159.167769 164.264727 
L 159.406135 156.933818 
L 159.644501 159.133091 
L 159.882867 151.069091 
L 160.121233 154.001455 
L 160.3596 154.734545 
L 160.597966 156.933818 
L 160.836332 156.933818 
L 161.074698 152.535273 
L 161.313064 153.268364 
L 161.55143 160.599273 
L 161.789796 158.4 
L 162.028162 162.798545 
L 162.266528 164.264727 
L 162.504894 170.129455 
L 162.74326 168.663273 
L 162.981626 166.464 
L 163.219992 160.599273 
L 163.458358 167.197091 
L 163.696724 162.065455 
L 164.173456 169.396364 
L 164.411822 156.933818 
L 164.650188 160.599273 
L 164.888554 156.933818 
L 165.12692 155.467636 
L 165.365286 156.933818 
L 165.603652 154.734545 
L 166.080384 157.666909 
L 166.318751 154.734545 
L 166.557117 153.268364 
L 166.795483 152.535273 
L 167.033849 162.798545 
L 167.272215 163.531636 
L 167.510581 167.197091 
L 167.748947 163.531636 
L 167.987313 163.531636 
L 168.225679 167.197091 
L 168.464045 174.528 
L 168.702411 167.930182 
L 168.940777 165.730909 
L 169.179143 160.599273 
L 169.417509 161.332364 
L 169.655875 156.933818 
L 169.894241 162.798545 
L 170.132607 152.535273 
L 170.370973 152.535273 
L 170.609339 151.069091 
L 170.847705 151.069091 
L 171.086071 152.535273 
L 171.324437 152.535273 
L 171.801169 156.200727 
L 172.039535 154.001455 
L 172.277901 150.336 
L 172.754634 147.403636 
L 173.231366 156.200727 
L 173.469732 152.535273 
L 173.708098 157.666909 
L 173.946464 159.133091 
L 174.18483 158.4 
L 174.423196 156.200727 
L 174.661562 148.136727 
L 174.899928 146.670545 
L 175.37666 140.072727 
L 175.615026 146.670545 
L 175.853392 145.204364 
L 176.091758 145.937455 
L 176.330124 148.136727 
L 176.56849 148.136727 
L 177.045222 139.339636 
L 177.283588 141.538909 
L 177.521954 137.873455 
L 177.76032 141.538909 
L 178.237052 133.474909 
L 178.475419 136.407273 
L 178.713785 137.140364 
L 178.952151 144.471273 
L 179.428883 132.008727 
L 180.143981 143.005091 
L 180.382347 149.602909 
L 180.620713 147.403636 
L 181.097445 147.403636 
L 181.335811 148.136727 
L 181.574177 136.407273 
L 181.812543 137.873455 
L 182.050909 134.941091 
L 182.289275 129.809455 
L 182.527641 149.602909 
L 182.766007 143.738182 
L 183.004373 146.670545 
L 183.242739 164.264727 
L 183.481105 156.933818 
L 183.719471 157.666909 
L 183.957837 160.599273 
L 184.196203 156.933818 
L 184.434569 156.200727 
L 184.672936 158.4 
L 184.911302 170.129455 
L 185.149668 171.595636 
L 185.388034 178.926545 
L 185.6264 173.794909 
L 185.864766 172.328727 
L 186.341498 164.997818 
L 186.579864 162.065455 
L 186.81823 162.065455 
L 187.056596 163.531636 
L 187.294962 167.930182 
L 187.533328 167.197091 
L 187.771694 159.866182 
L 188.01006 160.599273 
L 188.248426 166.464 
L 188.486792 162.065455 
L 188.963524 162.065455 
L 189.20189 161.332364 
L 189.440256 154.734545 
L 189.678622 154.001455 
L 189.916988 154.734545 
L 190.155354 154.001455 
L 190.39372 134.208 
L 190.632087 134.208 
L 190.870453 132.008727 
L 191.108819 128.343273 
L 191.347185 137.140364 
L 191.585551 134.941091 
L 191.823917 147.403636 
L 192.062283 147.403636 
L 192.300649 145.937455 
L 192.539015 135.674182 
L 192.777381 131.275636 
L 193.015747 119.546182 
L 193.254113 124.677818 
L 193.492479 125.410909 
L 193.730845 122.478545 
L 194.207577 128.343273 
L 194.445943 126.144 
L 194.684309 131.275636 
L 194.922675 133.474909 
L 195.637773 121.012364 
L 195.876139 123.944727 
L 196.114505 122.478545 
L 196.352871 122.478545 
L 196.591237 123.944727 
L 196.829604 121.745455 
L 197.06797 133.474909 
L 197.306336 134.941091 
L 197.544702 134.941091 
L 197.783068 139.339636 
L 198.021434 134.941091 
L 198.2598 140.072727 
L 198.498166 173.794909 
L 198.736532 184.791273 
L 199.213264 193.588364 
L 199.45163 187.723636 
L 199.689996 192.122182 
L 199.928362 188.456727 
L 200.166728 187.723636 
L 200.405094 173.794909 
L 200.881826 186.257455 
L 201.120192 185.524364 
L 201.596924 188.456727 
L 201.83529 195.054545 
L 202.073656 197.253818 
L 202.312022 194.321455 
L 202.788755 185.524364 
L 203.027121 185.524364 
L 203.265487 181.125818 
L 203.503853 182.592 
L 203.742219 183.325091 
L 203.980585 185.524364 
L 204.218951 192.122182 
L 204.457317 182.592 
L 204.695683 186.990545 
L 204.934049 181.858909 
L 205.172415 162.798545 
L 205.410781 159.866182 
L 205.649147 159.133091 
L 205.887513 163.531636 
L 206.125879 161.332364 
L 206.364245 160.599273 
L 206.602611 162.065455 
L 206.840977 161.332364 
L 207.079343 162.798545 
L 207.317709 165.730909 
L 207.556075 166.464 
L 207.794441 150.336 
L 208.032807 143.005091 
L 208.271173 124.677818 
L 208.509539 126.144 
L 208.747905 128.343273 
L 208.986272 125.410909 
L 209.463004 136.407273 
L 209.70137 130.542545 
L 209.939736 134.208 
L 210.416468 145.937455 
L 210.654834 140.805818 
L 211.369932 159.133091 
L 211.608298 153.268364 
L 211.846664 159.866182 
L 212.08503 156.933818 
L 212.323396 159.866182 
L 212.561762 157.666909 
L 212.800128 162.065455 
L 213.038494 175.994182 
L 213.27686 178.193455 
L 213.515226 181.858909 
L 213.753592 179.659636 
L 213.991958 170.129455 
L 214.230324 181.858909 
L 214.46869 178.926545 
L 214.945423 180.392727 
L 215.183789 179.659636 
L 215.660521 175.994182 
L 215.898887 175.994182 
L 216.137253 169.396364 
L 216.375619 170.129455 
L 216.613985 169.396364 
L 216.852351 170.129455 
L 217.090717 168.663273 
L 217.329083 180.392727 
L 217.567449 167.930182 
L 217.805815 164.264727 
L 218.044181 156.933818 
L 218.282547 155.467636 
L 218.520913 154.734545 
L 218.759279 160.599273 
L 218.997645 162.065455 
L 219.236011 164.997818 
L 219.951109 186.990545 
L 220.189475 187.723636 
L 220.427841 189.922909 
L 220.666207 190.656 
L 220.904573 184.058182 
L 221.14294 186.990545 
L 221.381306 195.787636 
L 221.619672 194.321455 
L 221.858038 197.986909 
L 222.096404 194.321455 
L 222.33477 195.787636 
L 222.573136 197.986909 
L 222.811502 196.520727 
L 223.049868 197.986909 
L 223.288234 195.054545 
L 223.764966 200.919273 
L 224.003332 197.986909 
L 224.241698 199.453091 
L 224.71843 200.919273 
L 224.956796 192.122182 
L 225.195162 189.189818 
L 225.433528 195.054545 
L 225.91026 201.652364 
L 226.148626 206.784 
L 226.386992 203.851636 
L 226.625358 197.986909 
L 226.863724 198.72 
L 227.102091 200.919273 
L 227.340457 191.389091 
L 227.578823 192.122182 
L 227.817189 201.652364 
L 228.055555 204.584727 
L 228.293921 208.983273 
L 228.532287 215.581091 
L 228.770653 214.114909 
L 229.009019 206.784 
L 229.247385 206.784 
L 229.485751 205.317818 
L 229.962483 210.449455 
L 230.200849 201.652364 
L 230.439215 203.851636 
L 230.677581 210.449455 
L 230.915947 210.449455 
L 231.154313 208.983273 
L 231.392679 211.915636 
L 231.869411 199.453091 
L 232.107777 195.787636 
L 232.346143 188.456727 
L 232.584509 185.524364 
L 232.822875 187.723636 
L 233.061241 186.990545 
L 233.299608 191.389091 
L 233.537974 192.855273 
L 233.77634 189.189818 
L 234.014706 170.862545 
L 234.253072 173.794909 
L 234.491438 181.858909 
L 234.729804 173.794909 
L 234.96817 175.994182 
L 235.206536 176.727273 
L 235.444902 169.396364 
L 235.683268 167.930182 
L 235.921634 178.926545 
L 236.16 181.125818 
L 236.398366 196.520727 
L 236.875098 196.520727 
L 237.113464 195.787636 
L 237.35183 198.72 
L 237.590196 190.656 
L 237.828562 188.456727 
L 238.066928 203.118545 
L 238.54366 216.314182 
L 238.782026 203.118545 
L 239.020392 202.385455 
L 239.258759 192.855273 
L 239.497125 189.922909 
L 239.735491 189.189818 
L 239.973857 178.926545 
L 240.212223 173.794909 
L 240.450589 173.061818 
L 240.688955 170.862545 
L 240.927321 164.997818 
L 242.119151 175.994182 
L 242.595883 189.922909 
L 242.834249 185.524364 
L 243.072615 184.791273 
L 243.310981 185.524364 
L 243.549347 179.659636 
L 243.787713 178.926545 
L 244.026079 178.926545 
L 244.264445 170.129455 
L 244.502811 175.261091 
L 244.741177 171.595636 
L 245.217909 180.392727 
L 245.456276 189.189818 
L 245.694642 189.922909 
L 245.933008 191.389091 
L 246.171374 192.122182 
L 246.40974 195.054545 
L 246.648106 187.723636 
L 247.124838 179.659636 
L 247.363204 181.858909 
L 248.078302 193.588364 
L 248.316668 192.122182 
L 248.555034 189.189818 
L 248.7934 180.392727 
L 249.031766 179.659636 
L 249.270132 176.727273 
L 249.746864 165.730909 
L 249.98523 165.730909 
L 250.461962 180.392727 
L 250.700328 178.193455 
L 251.17706 189.922909 
L 251.415427 185.524364 
L 251.653793 173.061818 
L 251.892159 179.659636 
L 252.130525 178.926545 
L 252.368891 181.858909 
L 252.845623 184.791273 
L 253.083989 177.460364 
L 253.322355 186.257455 
L 253.560721 186.257455 
L 253.799087 184.058182 
L 254.037453 172.328727 
L 254.275819 175.261091 
L 254.514185 165.730909 
L 254.752551 164.264727 
L 255.229283 167.197091 
L 255.467649 166.464 
L 255.706015 153.268364 
L 255.944381 154.734545 
L 256.182747 155.467636 
L 256.421113 175.994182 
L 256.659479 185.524364 
L 256.897845 177.460364 
L 257.374577 168.663273 
L 257.612944 164.264727 
L 257.85131 165.730909 
L 258.089676 172.328727 
L 258.328042 173.794909 
L 258.566408 171.595636 
L 258.804774 164.264727 
L 259.04314 164.264727 
L 259.519872 175.261091 
L 259.758238 176.727273 
L 260.23497 191.389091 
L 260.473336 192.855273 
L 260.711702 187.723636 
L 260.950068 191.389091 
L 261.188434 192.122182 
L 261.4268 187.723636 
L 261.665166 185.524364 
L 261.903532 185.524364 
L 262.141898 189.189818 
L 262.380264 200.919273 
L 262.61863 204.584727 
L 262.856996 195.787636 
L 263.095362 197.986909 
L 263.572095 192.122182 
L 263.810461 180.392727 
L 264.048827 178.926545 
L 264.287193 175.261091 
L 264.525559 175.261091 
L 264.763925 174.528 
L 265.002291 181.125818 
L 265.240657 181.858909 
L 265.479023 176.727273 
L 265.717389 179.659636 
L 266.194121 176.727273 
L 266.432487 186.257455 
L 266.670853 181.125818 
L 266.909219 185.524364 
L 267.147585 186.257455 
L 267.862683 169.396364 
L 268.339415 172.328727 
L 268.577781 173.061818 
L 269.292879 168.663273 
L 269.769612 173.794909 
L 270.007978 170.862545 
L 270.246344 169.396364 
L 270.48471 168.663273 
L 270.723076 159.866182 
L 270.961442 156.933818 
L 271.199808 161.332364 
L 271.438174 173.794909 
L 271.67654 176.727273 
L 272.153272 163.531636 
L 272.630004 149.602909 
L 272.86837 153.268364 
L 273.106736 153.268364 
L 273.345102 159.133091 
L 273.821834 162.798545 
L 274.0602 163.531636 
L 274.298566 164.997818 
L 274.536932 164.997818 
L 274.775298 170.862545 
L 275.013664 163.531636 
L 275.25203 164.997818 
L 275.490396 165.730909 
L 275.967129 156.200727 
L 276.205495 165.730909 
L 276.443861 167.197091 
L 276.682227 162.798545 
L 276.920593 169.396364 
L 277.158959 168.663273 
L 277.397325 164.997818 
L 277.635691 164.264727 
L 277.874057 161.332364 
L 278.589155 175.261091 
L 278.827521 168.663273 
L 279.065887 170.129455 
L 279.304253 173.794909 
L 279.780985 188.456727 
L 280.019351 192.855273 
L 280.257717 203.118545 
L 280.496083 193.588364 
L 280.734449 192.122182 
L 280.972815 194.321455 
L 281.211181 187.723636 
L 281.449547 199.453091 
L 281.687913 195.787636 
L 281.92628 186.257455 
L 282.164646 182.592 
L 282.403012 176.727273 
L 282.641378 166.464 
L 282.879744 171.595636 
L 283.11811 169.396364 
L 283.356476 173.794909 
L 283.594842 174.528 
L 284.071574 185.524364 
L 284.30994 189.189818 
L 284.548306 187.723636 
L 285.025038 206.050909 
L 285.263404 206.050909 
L 285.50177 204.584727 
L 285.978502 217.047273 
L 286.216868 216.314182 
L 286.6936 201.652364 
L 286.931966 214.848 
L 287.170332 208.983273 
L 287.408698 212.648727 
L 287.647064 222.178909 
L 287.885431 223.645091 
L 288.362163 227.310545 
L 288.838895 219.246545 
L 289.077261 226.577455 
L 289.315627 224.378182 
L 289.553993 216.314182 
L 289.792359 222.912 
L 290.030725 219.979636 
L 290.269091 219.246545 
L 290.507457 217.780364 
L 290.745823 219.979636 
L 290.984189 210.449455 
L 291.222555 209.716364 
L 291.460921 211.915636 
L 291.699287 206.050909 
L 291.937653 211.915636 
L 292.176019 208.983273 
L 292.414385 200.186182 
L 292.652751 197.253818 
L 293.129483 189.189818 
L 293.367849 187.723636 
L 293.606215 185.524364 
L 293.844581 186.257455 
L 294.082948 184.058182 
L 294.321314 185.524364 
L 294.55968 179.659636 
L 294.798046 192.122182 
L 295.036412 190.656 
L 295.274778 185.524364 
L 295.513144 184.791273 
L 295.75151 181.125818 
L 295.989876 185.524364 
L 296.228242 185.524364 
L 296.466608 187.723636 
L 296.704974 186.257455 
L 297.181706 187.723636 
L 297.420072 189.189818 
L 297.658438 195.054545 
L 297.896804 192.122182 
L 298.373536 192.122182 
L 298.611902 195.054545 
L 298.850268 183.325091 
L 299.088634 179.659636 
L 299.327 181.858909 
L 299.803732 167.197091 
L 300.042099 165.730909 
L 300.280465 163.531636 
L 300.518831 163.531636 
L 300.995563 168.663273 
L 301.233929 162.798545 
L 301.472295 167.197091 
L 301.710661 165.730909 
L 301.949027 167.197091 
L 302.187393 179.659636 
L 302.425759 183.325091 
L 302.664125 172.328727 
L 302.902491 173.794909 
L 303.140857 178.193455 
L 303.379223 192.855273 
L 303.617589 192.122182 
L 303.855955 198.72 
L 304.094321 197.986909 
L 304.332687 200.919273 
L 304.571053 201.652364 
L 304.809419 206.050909 
L 305.047785 195.787636 
L 305.286151 201.652364 
L 305.524517 210.449455 
L 306.001249 210.449455 
L 306.716348 221.445818 
L 306.954714 222.912 
L 307.19308 216.314182 
L 307.669812 214.848 
L 307.908178 215.581091 
L 308.623276 209.716364 
L 308.861642 216.314182 
L 309.100008 215.581091 
L 309.57674 203.118545 
L 309.815106 205.317818 
L 310.053472 206.050909 
L 310.291838 208.250182 
L 310.530204 213.381818 
L 310.76857 208.983273 
L 311.006936 217.047273 
L 311.245302 215.581091 
L 311.483668 209.716364 
L 311.722034 211.182545 
L 311.9604 213.381818 
L 312.198767 198.72 
L 312.437133 200.919273 
L 312.675499 192.855273 
L 312.913865 190.656 
L 313.628963 157.666909 
L 313.867329 157.666909 
L 314.105695 156.933818 
L 314.344061 158.4 
L 314.820793 148.869818 
L 315.059159 148.869818 
L 315.297525 147.403636 
L 315.535891 149.602909 
L 315.774257 154.001455 
L 316.012623 152.535273 
L 316.250989 162.065455 
L 316.489355 163.531636 
L 316.727721 159.133091 
L 316.966087 162.065455 
L 317.204453 159.866182 
L 317.442819 161.332364 
L 317.681185 153.268364 
L 317.919551 154.001455 
L 318.396284 167.197091 
L 319.111382 193.588364 
L 319.349748 192.122182 
L 319.588114 197.986909 
L 319.82648 196.520727 
L 320.064846 197.253818 
L 320.303212 200.186182 
L 320.541578 198.72 
L 320.779944 200.919273 
L 321.01831 206.784 
L 321.256676 207.517091 
L 321.495042 211.182545 
L 321.733408 199.453091 
L 321.971774 194.321455 
L 322.21014 192.122182 
L 322.448506 186.990545 
L 322.686872 188.456727 
L 322.925238 195.054545 
L 323.163604 208.250182 
L 323.40197 208.983273 
L 323.640336 208.250182 
L 323.878702 203.851636 
L 324.117068 205.317818 
L 324.355435 198.72 
L 324.593801 201.652364 
L 324.832167 199.453091 
L 325.308899 206.784 
L 325.547265 208.983273 
L 325.785631 207.517091 
L 326.023997 207.517091 
L 326.262363 219.246545 
L 326.500729 217.780364 
L 326.739095 209.716364 
L 326.977461 210.449455 
L 327.215827 215.581091 
L 327.454193 214.114909 
L 327.692559 222.178909 
L 327.930925 225.844364 
L 328.169291 224.378182 
L 328.407657 215.581091 
L 328.646023 221.445818 
L 328.884389 224.378182 
L 329.122755 230.976 
L 329.361121 225.844364 
L 329.599487 229.509818 
L 329.837853 228.776727 
L 330.076219 233.908364 
L 330.314586 226.577455 
L 330.552952 232.442182 
L 330.791318 234.641455 
L 331.029684 233.175273 
L 331.26805 230.976 
L 331.506416 245.637818 
L 331.744782 241.239273 
L 332.45988 234.641455 
L 332.698246 235.374545 
L 332.936612 230.976 
L 333.174978 231.709091 
L 333.65171 242.705455 
L 333.890076 236.840727 
L 334.128442 235.374545 
L 334.366808 231.709091 
L 334.84354 244.904727 
L 335.081906 242.705455 
L 335.320272 248.570182 
L 335.558638 249.303273 
L 335.797004 247.837091 
L 336.03537 247.837091 
L 336.750469 238.306909 
L 337.465567 244.171636 
L 337.703933 252.235636 
L 337.942299 241.972364 
L 338.180665 240.506182 
L 338.419031 241.239273 
L 338.657397 244.904727 
L 338.895763 250.769455 
L 339.134129 244.904727 
L 339.372495 234.641455 
L 339.610861 230.242909 
L 339.849227 230.976 
L 340.087593 228.776727 
L 340.325959 222.912 
L 340.564325 224.378182 
L 341.041057 228.776727 
L 341.279423 233.175273 
L 341.517789 233.175273 
L 341.756155 227.310545 
L 342.232887 233.908364 
L 342.471254 241.239273 
L 342.70962 241.972364 
L 343.186352 250.036364 
L 343.663084 248.570182 
L 343.90145 249.303273 
L 344.378182 259.566545 
L 344.616548 261.765818 
L 344.854914 265.431273 
L 345.09328 266.164364 
L 345.331646 263.965091 
L 345.570012 266.164364 
L 345.808378 261.765818 
L 346.046744 260.299636 
L 346.28511 251.502545 
L 346.523476 252.968727 
L 346.761842 260.299636 
L 347.000208 250.769455 
L 347.238574 246.370909 
L 347.47694 251.502545 
L 347.715306 253.701818 
L 347.953672 254.434909 
L 348.192038 257.367273 
L 348.907137 241.972364 
L 349.383869 247.837091 
L 349.622235 248.570182 
L 349.860601 251.502545 
L 350.098967 250.036364 
L 350.337333 246.370909 
L 350.575699 240.506182 
L 350.814065 244.171636 
L 351.052431 242.705455 
L 351.290797 244.904727 
L 351.529163 241.972364 
L 351.767529 244.171636 
L 352.005895 249.303273 
L 352.244261 250.036364 
L 352.482627 247.837091 
L 352.720993 250.036364 
L 353.197725 239.04 
L 353.436091 238.306909 
L 354.151189 250.036364 
L 354.627922 248.570182 
L 354.866288 247.104 
L 355.104654 242.705455 
L 355.34302 255.168 
L 356.296484 244.171636 
L 356.53485 252.968727 
L 356.773216 252.235636 
L 357.011582 256.634182 
L 357.249948 245.637818 
L 357.72668 239.04 
L 357.965046 239.04 
L 358.203412 236.107636 
L 358.441778 239.04 
L 358.680144 243.438545 
L 358.91851 244.904727 
L 359.156876 244.904727 
L 359.395242 250.036364 
L 359.633608 248.570182 
L 359.871974 242.705455 
L 360.348706 236.840727 
L 360.587072 246.370909 
L 360.825439 249.303273 
L 361.063805 247.104 
L 361.302171 249.303273 
L 361.540537 255.168 
L 361.778903 252.235636 
L 362.017269 250.769455 
L 362.255635 252.235636 
L 362.494001 248.570182 
L 362.732367 247.104 
L 362.970733 251.502545 
L 363.209099 263.965091 
L 363.447465 259.566545 
L 363.685831 250.769455 
L 363.924197 250.769455 
L 364.162563 247.837091 
L 364.400929 250.769455 
L 364.639295 255.168 
L 364.877661 271.296 
L 365.116027 265.431273 
L 365.354393 264.698182 
L 365.831125 267.630545 
L 366.069491 269.829818 
L 366.307857 279.36 
L 366.546223 278.626909 
L 366.78459 277.160727 
L 367.261322 273.495273 
L 367.499688 257.367273 
L 367.738054 259.566545 
L 367.97642 257.367273 
L 368.214786 256.634182 
L 368.453152 254.434909 
L 368.929884 257.367273 
L 369.406616 257.367273 
L 369.644982 258.100364 
L 369.883348 256.634182 
L 370.121714 258.833455 
L 370.36008 264.698182 
L 370.598446 261.032727 
L 370.836812 255.168 
L 371.075178 253.701818 
L 371.313544 256.634182 
L 371.55191 261.032727 
L 371.790276 269.096727 
L 372.028642 268.363636 
L 372.267008 268.363636 
L 372.505374 269.096727 
L 372.982107 283.025455 
L 373.220473 277.160727 
L 373.458839 281.559273 
L 373.697205 277.893818 
L 373.935571 278.626909 
L 374.173937 281.559273 
L 374.412303 283.025455 
L 374.650669 285.957818 
L 375.127401 280.826182 
L 375.365767 283.758545 
L 376.080865 295.488 
L 376.319231 292.555636 
L 376.557597 292.555636 
L 376.795963 283.758545 
L 377.034329 280.093091 
L 377.511061 285.957818 
L 377.987793 276.427636 
L 378.226159 279.36 
L 378.464525 278.626909 
L 378.702891 277.160727 
L 378.941258 270.562909 
L 379.179624 270.562909 
L 379.656356 277.893818 
L 379.894722 270.562909 
L 380.133088 270.562909 
L 380.371454 271.296 
L 380.60982 269.829818 
L 380.848186 274.228364 
L 381.086552 275.694545 
L 381.324918 272.762182 
L 381.563284 280.826182 
L 381.80165 275.694545 
L 382.040016 275.694545 
L 382.278382 283.758545 
L 382.516748 282.292364 
L 382.755114 283.025455 
L 382.99348 281.559273 
L 383.231846 284.491636 
L 383.470212 285.224727 
L 383.708578 283.758545 
L 383.946944 284.491636 
L 384.18531 285.957818 
L 384.423676 285.957818 
L 384.662042 282.292364 
L 384.900408 281.559273 
L 385.138775 281.559273 
L 385.377141 287.424 
L 385.853873 282.292364 
L 386.092239 282.292364 
L 386.330605 283.758545 
L 386.568971 278.626909 
L 386.807337 281.559273 
L 387.045703 276.427636 
L 387.284069 277.160727 
L 387.522435 280.826182 
L 387.760801 280.826182 
L 387.999167 283.025455 
L 388.237533 280.826182 
L 388.475899 277.160727 
L 388.714265 266.164364 
L 388.952631 266.164364 
L 389.190997 277.893818 
L 389.429363 274.961455 
L 389.667729 287.424 
L 389.906095 280.093091 
L 390.144461 280.093091 
L 390.382827 277.160727 
L 390.859559 288.157091 
L 391.097926 286.690909 
L 391.336292 292.555636 
L 392.05139 277.160727 
L 392.289756 281.559273 
L 393.004854 287.424 
L 393.24322 284.491636 
L 393.481586 285.224727 
L 393.719952 286.690909 
L 393.958318 291.822545 
L 394.196684 291.089455 
L 394.43505 289.623273 
L 394.673416 285.957818 
L 394.911782 289.623273 
L 395.150148 291.089455 
L 395.388514 291.822545 
L 395.865246 278.626909 
L 396.103612 277.893818 
L 396.580344 287.424 
L 396.81871 285.957818 
L 397.057076 285.957818 
L 397.295443 278.626909 
L 397.533809 285.957818 
L 397.772175 285.957818 
L 398.010541 282.292364 
L 398.248907 283.025455 
L 398.487273 289.623273 
L 398.487273 289.623273 
" clip-path="url(#p65c2bd17a4)" style="fill: none; stroke: #1f77b4; stroke-width: 1.5; stroke-linecap: square"/>
   </g>
   <g id="patch_3">
    <path d="M 57.6 307.584 
L 57.6 41.472 
" style="fill: none; stroke: #000000; stroke-width: 0.8; stroke-linejoin: miter; stroke-linecap: square"/>
   </g>
   <g id="patch_4">
    <path d="M 414.72 307.584 
L 414.72 41.472 
" style="fill: none; stroke: #000000; stroke-width: 0.8; stroke-linejoin: miter; stroke-linecap: square"/>
   </g>
   <g id="patch_5">
    <path d="M 57.6 307.584 
L 414.72 307.584 
" style="fill: none; stroke: #000000; stroke-width: 0.8; stroke-linejoin: miter; stroke-linecap: square"/>
   </g>
   <g id="patch_6">
    <path d="M 57.6 41.472 
L 414.72 41.472 
" style="fill: none; stroke: #000000; stroke-width: 0.8; stroke-linejoin: miter; stroke-linecap: square"/>
   </g>
   <g id="text_17">
    <!-- Simulated Anealling Cost -->
    <g transform="translate(160.8 35.472)scale(0.12 -0.12)">
     <defs>
      <path id="DejaVuSans-53" d="M 3425 4513 
L 3425 3897 
Q 3066 4069 2747 4153 
Q 2428 4238 2131 4238 
Q 1616 4238 1336 4038 
Q 1056 3838 1056 3469 
Q 1056 3159 1242 3001 
Q 1428 2844 1947 2747 
L 2328 2669 
Q 3034 2534 3370 2195 
Q 3706 1856 3706 1288 
Q 3706 609 3251 259 
Q 2797 -91 1919 -91 
Q 1588 -91 1214 -16 
Q 841 59 441 206 
L 441 856 
Q 825 641 1194 531 
Q 1563 422 1919 422 
Q 2459 422 2753 634 
Q 3047 847 3047 1241 
Q 3047 1584 2836 1778 
Q 2625 1972 2144 2069 
L 1759 2144 
Q 1053 2284 737 2584 
Q 422 2884 422 3419 
Q 422 4038 858 4394 
Q 1294 4750 2059 4750 
Q 2388 4750 2728 4690 
Q 3069 4631 3425 4513 
z
" transform="scale(0.015625)"/>
      <path id="DejaVuSans-69" d="M 603 3500 
L 1178 3500 
L 1178 0 
L 603 0 
L 603 3500 
z
M 603 4863 
L 1178 4863 
L 1178 4134 
L 603 4134 
L 603 4863 
z
" transform="scale(0.015625)"/>
      <path id="DejaVuSans-65" d="M 3597 1894 
L 3597 1613 
L 953 1613 
Q 991 1019 1311 708 
Q 1631 397 2203 397 
Q 2534 397 2845 478 
Q 3156 559 3463 722 
L 3463 178 
Q 3153 47 2828 -22 
Q 2503 -91 2169 -91 
Q 1331 -91 842 396 
Q 353 884 353 1716 
Q 353 2575 817 3079 
Q 1281 3584 2069 3584 
Q 2775 3584 3186 3129 
Q 3597 2675 3597 1894 
z
M 3022 2063 
Q 3016 2534 2758 2815 
Q 2500 3097 2075 3097 
Q 1594 3097 1305 2825 
Q 1016 2553 972 2059 
L 3022 2063 
z
" transform="scale(0.015625)"/>
      <path id="DejaVuSans-64" d="M 2906 2969 
L 2906 4863 
L 3481 4863 
L 3481 0 
L 2906 0 
L 2906 525 
Q 2725 213 2448 61 
Q 2172 -91 1784 -91 
Q 1150 -91 751 415 
Q 353 922 353 1747 
Q 353 2572 751 3078 
Q 1150 3584 1784 3584 
Q 2172 3584 2448 3432 
Q 2725 3281 2906 2969 
z
M 947 1747 
Q 947 1113 1208 752 
Q 1469 391 1925 391 
Q 2381 391 2643 752 
Q 2906 1113 2906 1747 
Q 2906 2381 2643 2742 
Q 2381 3103 1925 3103 
Q 1469 3103 1208 2742 
Q 947 2381 947 1747 
z
" transform="scale(0.015625)"/>
      <path id="DejaVuSans-41" d="M 2188 4044 
L 1331 1722 
L 3047 1722 
L 2188 4044 
z
M 1831 4666 
L 2547 4666 
L 4325 0 
L 3669 0 
L 3244 1197 
L 1141 1197 
L 716 0 
L 50 0 
L 1831 4666 
z
" transform="scale(0.015625)"/>
      <path id="DejaVuSans-67" d="M 2906 1791 
Q 2906 2416 2648 2759 
Q 2391 3103 1925 3103 
Q 1463 3103 1205 2759 
Q 947 2416 947 1791 
Q 947 1169 1205 825 
Q 1463 481 1925 481 
Q 2391 481 2648 825 
Q 2906 1169 2906 1791 
z
M 3481 434 
Q 3481 -459 3084 -895 
Q 2688 -1331 1869 -1331 
Q 1566 -1331 1297 -1286 
Q 1028 -1241 775 -1147 
L 775 -588 
Q 1028 -725 1275 -790 
Q 1522 -856 1778 -856 
Q 2344 -856 2625 -561 
Q 2906 -266 2906 331 
L 2906 616 
Q 2728 306 2450 153 
Q 2172 0 1784 0 
Q 1141 0 747 490 
Q 353 981 353 1791 
Q 353 2603 747 3093 
Q 1141 3584 1784 3584 
Q 2172 3584 2450 3431 
Q 2728 3278 2906 2969 
L 2906 3500 
L 3481 3500 
L 3481 434 
z
" transform="scale(0.015625)"/>
      <path id="DejaVuSans-43" d="M 4122 4306 
L 4122 3641 
Q 3803 3938 3442 4084 
Q 3081 4231 2675 4231 
Q 1875 4231 1450 3742 
Q 1025 3253 1025 2328 
Q 1025 1406 1450 917 
Q 1875 428 2675 428 
Q 3081 428 3442 575 
Q 3803 722 4122 1019 
L 4122 359 
Q 3791 134 3420 21 
Q 3050 -91 2638 -91 
Q 1578 -91 968 557 
Q 359 1206 359 2328 
Q 359 3453 968 4101 
Q 1578 4750 2638 4750 
Q 3056 4750 3426 4639 
Q 3797 4528 4122 4306 
z
" transform="scale(0.015625)"/>
     </defs>
     <use xlink:href="#DejaVuSans-53"/>
     <use xlink:href="#DejaVuSans-69" x="63.476562"/>
     <use xlink:href="#DejaVuSans-6d" x="91.259766"/>
     <use xlink:href="#DejaVuSans-75" x="188.671875"/>
     <use xlink:href="#DejaVuSans-6c" x="252.050781"/>
     <use xlink:href="#DejaVuSans-61" x="279.833984"/>
     <use xlink:href="#DejaVuSans-74" x="341.113281"/>
     <use xlink:href="#DejaVuSans-65" x="380.322266"/>
     <use xlink:href="#DejaVuSans-64" x="441.845703"/>
     <use xlink:href="#DejaVuSans-20" x="505.322266"/>
     <use xlink:href="#DejaVuSans-41" x="537.109375"/>
     <use xlink:href="#DejaVuSans-6e" x="605.517578"/>
     <use xlink:href="#DejaVuSans-65" x="668.896484"/>
     <use xlink:href="#DejaVuSans-61" x="730.419922"/>
     <use xlink:href="#DejaVuSans-6c" x="791.699219"/>
     <use xlink:href="#DejaVuSans-6c" x="819.482422"/>
     <use xlink:href="#DejaVuSans-69" x="847.265625"/>
     <use xlink:href="#DejaVuSans-6e" x="875.048828"/>
     <use xlink:href="#DejaVuSans-67" x="938.427734"/>
     <use xlink:href="#DejaVuSans-20" x="1001.904297"/>
     <use xlink:href="#DejaVuSans-43" x="1033.691406"/>
     <use xlink:href="#DejaVuSans-6f" x="1103.515625"/>
     <use xlink:href="#DejaVuSans-73" x="1164.697266"/>
     <use xlink:href="#DejaVuSans-74" x="1216.796875"/>
    </g>
   </g>
  </g>
 </g>
 <defs>
  <clipPath id="p65c2bd17a4">
   <rect x="57.6" y="41.472" width="357.12" height="266.112"/>
  </clipPath>
 </defs>
</svg>
