<?xml version="1.0" encoding="utf-8" standalone="no"?>
<!DOCTYPE svg PUBLIC "-//W3C//DTD SVG 1.1//EN"
  "http://www.w3.org/Graphics/SVG/1.1/DTD/svg11.dtd">
<svg xmlns:xlink="http://www.w3.org/1999/xlink" width="460.8pt" height="345.6pt" viewBox="0 0 460.8 345.6" xmlns="http://www.w3.org/2000/svg" version="1.1">
 <metadata>
  <rdf:RDF xmlns:dc="http://purl.org/dc/elements/1.1/" xmlns:cc="http://creativecommons.org/ns#" xmlns:rdf="http://www.w3.org/1999/02/22-rdf-syntax-ns#">
   <cc:Work>
    <dc:type rdf:resource="http://purl.org/dc/dcmitype/StillImage"/>
    <dc:date>2022-06-01T08:03:23.738619</dc:date>
    <dc:format>image/svg+xml</dc:format>
    <dc:creator>
     <cc:Agent>
      <dc:title>Matplotlib v3.5.1, https://matplotlib.org/</dc:title>
     </cc:Agent>
    </dc:creator>
   </cc:Work>
  </rdf:RDF>
 </metadata>
 <defs>
  <style type="text/css">*{stroke-linejoin: round; stroke-linecap: butt}</style>
 </defs>
 <g id="figure_1">
  <g id="patch_1">
   <path d="M 0 345.6 
L 460.8 345.6 
L 460.8 0 
L 0 0 
z
" style="fill: #ffffff"/>
  </g>
  <g id="axes_1">
   <g id="patch_2">
    <path d="M 57.6 307.584 
L 414.72 307.584 
L 414.72 41.472 
L 57.6 41.472 
z
" style="fill: #ffffff"/>
   </g>
   <g id="matplotlib.axis_1">
    <g id="xtick_1">
     <g id="line2d_1">
      <defs>
       <path id="m3fc2777d72" d="M 0 0 
L 0 3.5 
" style="stroke: #000000; stroke-width: 0.8"/>
      </defs>
      <g>
       <use xlink:href="#m3fc2777d72" x="73.832727" y="307.584" style="stroke: #000000; stroke-width: 0.8"/>
      </g>
     </g>
     <g id="text_1">
      <!-- 0 -->
      <g transform="translate(70.651477 322.182437)scale(0.1 -0.1)">
       <defs>
        <path id="DejaVuSans-30" d="M 2034 4250 
Q 1547 4250 1301 3770 
Q 1056 3291 1056 2328 
Q 1056 1369 1301 889 
Q 1547 409 2034 409 
Q 2525 409 2770 889 
Q 3016 1369 3016 2328 
Q 3016 3291 2770 3770 
Q 2525 4250 2034 4250 
z
M 2034 4750 
Q 2819 4750 3233 4129 
Q 3647 3509 3647 2328 
Q 3647 1150 3233 529 
Q 2819 -91 2034 -91 
Q 1250 -91 836 529 
Q 422 1150 422 2328 
Q 422 3509 836 4129 
Q 1250 4750 2034 4750 
z
" transform="scale(0.015625)"/>
       </defs>
       <use xlink:href="#DejaVuSans-30"/>
      </g>
     </g>
    </g>
    <g id="xtick_2">
     <g id="line2d_2">
      <g>
       <use xlink:href="#m3fc2777d72" x="140.360298" y="307.584" style="stroke: #000000; stroke-width: 0.8"/>
      </g>
     </g>
     <g id="text_2">
      <!-- 500 -->
      <g transform="translate(130.816548 322.182437)scale(0.1 -0.1)">
       <defs>
        <path id="DejaVuSans-35" d="M 691 4666 
L 3169 4666 
L 3169 4134 
L 1269 4134 
L 1269 2991 
Q 1406 3038 1543 3061 
Q 1681 3084 1819 3084 
Q 2600 3084 3056 2656 
Q 3513 2228 3513 1497 
Q 3513 744 3044 326 
Q 2575 -91 1722 -91 
Q 1428 -91 1123 -41 
Q 819 9 494 109 
L 494 744 
Q 775 591 1075 516 
Q 1375 441 1709 441 
Q 2250 441 2565 725 
Q 2881 1009 2881 1497 
Q 2881 1984 2565 2268 
Q 2250 2553 1709 2553 
Q 1456 2553 1204 2497 
Q 953 2441 691 2322 
L 691 4666 
z
" transform="scale(0.015625)"/>
       </defs>
       <use xlink:href="#DejaVuSans-35"/>
       <use xlink:href="#DejaVuSans-30" x="63.623047"/>
       <use xlink:href="#DejaVuSans-30" x="127.246094"/>
      </g>
     </g>
    </g>
    <g id="xtick_3">
     <g id="line2d_3">
      <g>
       <use xlink:href="#m3fc2777d72" x="206.887869" y="307.584" style="stroke: #000000; stroke-width: 0.8"/>
      </g>
     </g>
     <g id="text_3">
      <!-- 1000 -->
      <g transform="translate(194.162869 322.182437)scale(0.1 -0.1)">
       <defs>
        <path id="DejaVuSans-31" d="M 794 531 
L 1825 531 
L 1825 4091 
L 703 3866 
L 703 4441 
L 1819 4666 
L 2450 4666 
L 2450 531 
L 3481 531 
L 3481 0 
L 794 0 
L 794 531 
z
" transform="scale(0.015625)"/>
       </defs>
       <use xlink:href="#DejaVuSans-31"/>
       <use xlink:href="#DejaVuSans-30" x="63.623047"/>
       <use xlink:href="#DejaVuSans-30" x="127.246094"/>
       <use xlink:href="#DejaVuSans-30" x="190.869141"/>
      </g>
     </g>
    </g>
    <g id="xtick_4">
     <g id="line2d_4">
      <g>
       <use xlink:href="#m3fc2777d72" x="273.41544" y="307.584" style="stroke: #000000; stroke-width: 0.8"/>
      </g>
     </g>
     <g id="text_4">
      <!-- 1500 -->
      <g transform="translate(260.69044 322.182437)scale(0.1 -0.1)">
       <use xlink:href="#DejaVuSans-31"/>
       <use xlink:href="#DejaVuSans-35" x="63.623047"/>
       <use xlink:href="#DejaVuSans-30" x="127.246094"/>
       <use xlink:href="#DejaVuSans-30" x="190.869141"/>
      </g>
     </g>
    </g>
    <g id="xtick_5">
     <g id="line2d_5">
      <g>
       <use xlink:href="#m3fc2777d72" x="339.94301" y="307.584" style="stroke: #000000; stroke-width: 0.8"/>
      </g>
     </g>
     <g id="text_5">
      <!-- 2000 -->
      <g transform="translate(327.21801 322.182437)scale(0.1 -0.1)">
       <defs>
        <path id="DejaVuSans-32" d="M 1228 531 
L 3431 531 
L 3431 0 
L 469 0 
L 469 531 
Q 828 903 1448 1529 
Q 2069 2156 2228 2338 
Q 2531 2678 2651 2914 
Q 2772 3150 2772 3378 
Q 2772 3750 2511 3984 
Q 2250 4219 1831 4219 
Q 1534 4219 1204 4116 
Q 875 4013 500 3803 
L 500 4441 
Q 881 4594 1212 4672 
Q 1544 4750 1819 4750 
Q 2544 4750 2975 4387 
Q 3406 4025 3406 3419 
Q 3406 3131 3298 2873 
Q 3191 2616 2906 2266 
Q 2828 2175 2409 1742 
Q 1991 1309 1228 531 
z
" transform="scale(0.015625)"/>
       </defs>
       <use xlink:href="#DejaVuSans-32"/>
       <use xlink:href="#DejaVuSans-30" x="63.623047"/>
       <use xlink:href="#DejaVuSans-30" x="127.246094"/>
       <use xlink:href="#DejaVuSans-30" x="190.869141"/>
      </g>
     </g>
    </g>
    <g id="xtick_6">
     <g id="line2d_6">
      <g>
       <use xlink:href="#m3fc2777d72" x="406.470581" y="307.584" style="stroke: #000000; stroke-width: 0.8"/>
      </g>
     </g>
     <g id="text_6">
      <!-- 2500 -->
      <g transform="translate(393.745581 322.182437)scale(0.1 -0.1)">
       <use xlink:href="#DejaVuSans-32"/>
       <use xlink:href="#DejaVuSans-35" x="63.623047"/>
       <use xlink:href="#DejaVuSans-30" x="127.246094"/>
       <use xlink:href="#DejaVuSans-30" x="190.869141"/>
      </g>
     </g>
    </g>
    <g id="text_7">
     <!-- num swaps -->
     <g transform="translate(207.826406 335.860562)scale(0.1 -0.1)">
      <defs>
       <path id="DejaVuSans-6e" d="M 3513 2113 
L 3513 0 
L 2938 0 
L 2938 2094 
Q 2938 2591 2744 2837 
Q 2550 3084 2163 3084 
Q 1697 3084 1428 2787 
Q 1159 2491 1159 1978 
L 1159 0 
L 581 0 
L 581 3500 
L 1159 3500 
L 1159 2956 
Q 1366 3272 1645 3428 
Q 1925 3584 2291 3584 
Q 2894 3584 3203 3211 
Q 3513 2838 3513 2113 
z
" transform="scale(0.015625)"/>
       <path id="DejaVuSans-75" d="M 544 1381 
L 544 3500 
L 1119 3500 
L 1119 1403 
Q 1119 906 1312 657 
Q 1506 409 1894 409 
Q 2359 409 2629 706 
Q 2900 1003 2900 1516 
L 2900 3500 
L 3475 3500 
L 3475 0 
L 2900 0 
L 2900 538 
Q 2691 219 2414 64 
Q 2138 -91 1772 -91 
Q 1169 -91 856 284 
Q 544 659 544 1381 
z
M 1991 3584 
L 1991 3584 
z
" transform="scale(0.015625)"/>
       <path id="DejaVuSans-6d" d="M 3328 2828 
Q 3544 3216 3844 3400 
Q 4144 3584 4550 3584 
Q 5097 3584 5394 3201 
Q 5691 2819 5691 2113 
L 5691 0 
L 5113 0 
L 5113 2094 
Q 5113 2597 4934 2840 
Q 4756 3084 4391 3084 
Q 3944 3084 3684 2787 
Q 3425 2491 3425 1978 
L 3425 0 
L 2847 0 
L 2847 2094 
Q 2847 2600 2669 2842 
Q 2491 3084 2119 3084 
Q 1678 3084 1418 2786 
Q 1159 2488 1159 1978 
L 1159 0 
L 581 0 
L 581 3500 
L 1159 3500 
L 1159 2956 
Q 1356 3278 1631 3431 
Q 1906 3584 2284 3584 
Q 2666 3584 2933 3390 
Q 3200 3197 3328 2828 
z
" transform="scale(0.015625)"/>
       <path id="DejaVuSans-20" transform="scale(0.015625)"/>
       <path id="DejaVuSans-73" d="M 2834 3397 
L 2834 2853 
Q 2591 2978 2328 3040 
Q 2066 3103 1784 3103 
Q 1356 3103 1142 2972 
Q 928 2841 928 2578 
Q 928 2378 1081 2264 
Q 1234 2150 1697 2047 
L 1894 2003 
Q 2506 1872 2764 1633 
Q 3022 1394 3022 966 
Q 3022 478 2636 193 
Q 2250 -91 1575 -91 
Q 1294 -91 989 -36 
Q 684 19 347 128 
L 347 722 
Q 666 556 975 473 
Q 1284 391 1588 391 
Q 1994 391 2212 530 
Q 2431 669 2431 922 
Q 2431 1156 2273 1281 
Q 2116 1406 1581 1522 
L 1381 1569 
Q 847 1681 609 1914 
Q 372 2147 372 2553 
Q 372 3047 722 3315 
Q 1072 3584 1716 3584 
Q 2034 3584 2315 3537 
Q 2597 3491 2834 3397 
z
" transform="scale(0.015625)"/>
       <path id="DejaVuSans-77" d="M 269 3500 
L 844 3500 
L 1563 769 
L 2278 3500 
L 2956 3500 
L 3675 769 
L 4391 3500 
L 4966 3500 
L 4050 0 
L 3372 0 
L 2619 2869 
L 1863 0 
L 1184 0 
L 269 3500 
z
" transform="scale(0.015625)"/>
       <path id="DejaVuSans-61" d="M 2194 1759 
Q 1497 1759 1228 1600 
Q 959 1441 959 1056 
Q 959 750 1161 570 
Q 1363 391 1709 391 
Q 2188 391 2477 730 
Q 2766 1069 2766 1631 
L 2766 1759 
L 2194 1759 
z
M 3341 1997 
L 3341 0 
L 2766 0 
L 2766 531 
Q 2569 213 2275 61 
Q 1981 -91 1556 -91 
Q 1019 -91 701 211 
Q 384 513 384 1019 
Q 384 1609 779 1909 
Q 1175 2209 1959 2209 
L 2766 2209 
L 2766 2266 
Q 2766 2663 2505 2880 
Q 2244 3097 1772 3097 
Q 1472 3097 1187 3025 
Q 903 2953 641 2809 
L 641 3341 
Q 956 3463 1253 3523 
Q 1550 3584 1831 3584 
Q 2591 3584 2966 3190 
Q 3341 2797 3341 1997 
z
" transform="scale(0.015625)"/>
       <path id="DejaVuSans-70" d="M 1159 525 
L 1159 -1331 
L 581 -1331 
L 581 3500 
L 1159 3500 
L 1159 2969 
Q 1341 3281 1617 3432 
Q 1894 3584 2278 3584 
Q 2916 3584 3314 3078 
Q 3713 2572 3713 1747 
Q 3713 922 3314 415 
Q 2916 -91 2278 -91 
Q 1894 -91 1617 61 
Q 1341 213 1159 525 
z
M 3116 1747 
Q 3116 2381 2855 2742 
Q 2594 3103 2138 3103 
Q 1681 3103 1420 2742 
Q 1159 2381 1159 1747 
Q 1159 1113 1420 752 
Q 1681 391 2138 391 
Q 2594 391 2855 752 
Q 3116 1113 3116 1747 
z
" transform="scale(0.015625)"/>
      </defs>
      <use xlink:href="#DejaVuSans-6e"/>
      <use xlink:href="#DejaVuSans-75" x="63.378906"/>
      <use xlink:href="#DejaVuSans-6d" x="126.757812"/>
      <use xlink:href="#DejaVuSans-20" x="224.169922"/>
      <use xlink:href="#DejaVuSans-73" x="255.957031"/>
      <use xlink:href="#DejaVuSans-77" x="308.056641"/>
      <use xlink:href="#DejaVuSans-61" x="389.84375"/>
      <use xlink:href="#DejaVuSans-70" x="451.123047"/>
      <use xlink:href="#DejaVuSans-73" x="514.599609"/>
     </g>
    </g>
   </g>
   <g id="matplotlib.axis_2">
    <g id="ytick_1">
     <g id="line2d_7">
      <defs>
       <path id="mc528d125ae" d="M 0 0 
L -3.5 0 
" style="stroke: #000000; stroke-width: 0.8"/>
      </defs>
      <g>
       <use xlink:href="#mc528d125ae" x="57.6" y="276.1344" style="stroke: #000000; stroke-width: 0.8"/>
      </g>
     </g>
     <g id="text_8">
      <!-- 1900 -->
      <g transform="translate(25.15 279.933619)scale(0.1 -0.1)">
       <defs>
        <path id="DejaVuSans-39" d="M 703 97 
L 703 672 
Q 941 559 1184 500 
Q 1428 441 1663 441 
Q 2288 441 2617 861 
Q 2947 1281 2994 2138 
Q 2813 1869 2534 1725 
Q 2256 1581 1919 1581 
Q 1219 1581 811 2004 
Q 403 2428 403 3163 
Q 403 3881 828 4315 
Q 1253 4750 1959 4750 
Q 2769 4750 3195 4129 
Q 3622 3509 3622 2328 
Q 3622 1225 3098 567 
Q 2575 -91 1691 -91 
Q 1453 -91 1209 -44 
Q 966 3 703 97 
z
M 1959 2075 
Q 2384 2075 2632 2365 
Q 2881 2656 2881 3163 
Q 2881 3666 2632 3958 
Q 2384 4250 1959 4250 
Q 1534 4250 1286 3958 
Q 1038 3666 1038 3163 
Q 1038 2656 1286 2365 
Q 1534 2075 1959 2075 
z
" transform="scale(0.015625)"/>
       </defs>
       <use xlink:href="#DejaVuSans-31"/>
       <use xlink:href="#DejaVuSans-39" x="63.623047"/>
       <use xlink:href="#DejaVuSans-30" x="127.246094"/>
       <use xlink:href="#DejaVuSans-30" x="190.869141"/>
      </g>
     </g>
    </g>
    <g id="ytick_2">
     <g id="line2d_8">
      <g>
       <use xlink:href="#mc528d125ae" x="57.6" y="235.8144" style="stroke: #000000; stroke-width: 0.8"/>
      </g>
     </g>
     <g id="text_9">
      <!-- 1950 -->
      <g transform="translate(25.15 239.613619)scale(0.1 -0.1)">
       <use xlink:href="#DejaVuSans-31"/>
       <use xlink:href="#DejaVuSans-39" x="63.623047"/>
       <use xlink:href="#DejaVuSans-35" x="127.246094"/>
       <use xlink:href="#DejaVuSans-30" x="190.869141"/>
      </g>
     </g>
    </g>
    <g id="ytick_3">
     <g id="line2d_9">
      <g>
       <use xlink:href="#mc528d125ae" x="57.6" y="195.4944" style="stroke: #000000; stroke-width: 0.8"/>
      </g>
     </g>
     <g id="text_10">
      <!-- 2000 -->
      <g transform="translate(25.15 199.293619)scale(0.1 -0.1)">
       <use xlink:href="#DejaVuSans-32"/>
       <use xlink:href="#DejaVuSans-30" x="63.623047"/>
       <use xlink:href="#DejaVuSans-30" x="127.246094"/>
       <use xlink:href="#DejaVuSans-30" x="190.869141"/>
      </g>
     </g>
    </g>
    <g id="ytick_4">
     <g id="line2d_10">
      <g>
       <use xlink:href="#mc528d125ae" x="57.6" y="155.1744" style="stroke: #000000; stroke-width: 0.8"/>
      </g>
     </g>
     <g id="text_11">
      <!-- 2050 -->
      <g transform="translate(25.15 158.973619)scale(0.1 -0.1)">
       <use xlink:href="#DejaVuSans-32"/>
       <use xlink:href="#DejaVuSans-30" x="63.623047"/>
       <use xlink:href="#DejaVuSans-35" x="127.246094"/>
       <use xlink:href="#DejaVuSans-30" x="190.869141"/>
      </g>
     </g>
    </g>
    <g id="ytick_5">
     <g id="line2d_11">
      <g>
       <use xlink:href="#mc528d125ae" x="57.6" y="114.8544" style="stroke: #000000; stroke-width: 0.8"/>
      </g>
     </g>
     <g id="text_12">
      <!-- 2100 -->
      <g transform="translate(25.15 118.653619)scale(0.1 -0.1)">
       <use xlink:href="#DejaVuSans-32"/>
       <use xlink:href="#DejaVuSans-31" x="63.623047"/>
       <use xlink:href="#DejaVuSans-30" x="127.246094"/>
       <use xlink:href="#DejaVuSans-30" x="190.869141"/>
      </g>
     </g>
    </g>
    <g id="ytick_6">
     <g id="line2d_12">
      <g>
       <use xlink:href="#mc528d125ae" x="57.6" y="74.5344" style="stroke: #000000; stroke-width: 0.8"/>
      </g>
     </g>
     <g id="text_13">
      <!-- 2150 -->
      <g transform="translate(25.15 78.333619)scale(0.1 -0.1)">
       <use xlink:href="#DejaVuSans-32"/>
       <use xlink:href="#DejaVuSans-31" x="63.623047"/>
       <use xlink:href="#DejaVuSans-35" x="127.246094"/>
       <use xlink:href="#DejaVuSans-30" x="190.869141"/>
      </g>
     </g>
    </g>
    <g id="text_14">
     <!-- total cost -->
     <g transform="translate(19.070312 197.923313)rotate(-90)scale(0.1 -0.1)">
      <defs>
       <path id="DejaVuSans-74" d="M 1172 4494 
L 1172 3500 
L 2356 3500 
L 2356 3053 
L 1172 3053 
L 1172 1153 
Q 1172 725 1289 603 
Q 1406 481 1766 481 
L 2356 481 
L 2356 0 
L 1766 0 
Q 1100 0 847 248 
Q 594 497 594 1153 
L 594 3053 
L 172 3053 
L 172 3500 
L 594 3500 
L 594 4494 
L 1172 4494 
z
" transform="scale(0.015625)"/>
       <path id="DejaVuSans-6f" d="M 1959 3097 
Q 1497 3097 1228 2736 
Q 959 2375 959 1747 
Q 959 1119 1226 758 
Q 1494 397 1959 397 
Q 2419 397 2687 759 
Q 2956 1122 2956 1747 
Q 2956 2369 2687 2733 
Q 2419 3097 1959 3097 
z
M 1959 3584 
Q 2709 3584 3137 3096 
Q 3566 2609 3566 1747 
Q 3566 888 3137 398 
Q 2709 -91 1959 -91 
Q 1206 -91 779 398 
Q 353 888 353 1747 
Q 353 2609 779 3096 
Q 1206 3584 1959 3584 
z
" transform="scale(0.015625)"/>
       <path id="DejaVuSans-6c" d="M 603 4863 
L 1178 4863 
L 1178 0 
L 603 0 
L 603 4863 
z
" transform="scale(0.015625)"/>
       <path id="DejaVuSans-63" d="M 3122 3366 
L 3122 2828 
Q 2878 2963 2633 3030 
Q 2388 3097 2138 3097 
Q 1578 3097 1268 2742 
Q 959 2388 959 1747 
Q 959 1106 1268 751 
Q 1578 397 2138 397 
Q 2388 397 2633 464 
Q 2878 531 3122 666 
L 3122 134 
Q 2881 22 2623 -34 
Q 2366 -91 2075 -91 
Q 1284 -91 818 406 
Q 353 903 353 1747 
Q 353 2603 823 3093 
Q 1294 3584 2113 3584 
Q 2378 3584 2631 3529 
Q 2884 3475 3122 3366 
z
" transform="scale(0.015625)"/>
      </defs>
      <use xlink:href="#DejaVuSans-74"/>
      <use xlink:href="#DejaVuSans-6f" x="39.208984"/>
      <use xlink:href="#DejaVuSans-74" x="100.390625"/>
      <use xlink:href="#DejaVuSans-61" x="139.599609"/>
      <use xlink:href="#DejaVuSans-6c" x="200.878906"/>
      <use xlink:href="#DejaVuSans-20" x="228.662109"/>
      <use xlink:href="#DejaVuSans-63" x="260.449219"/>
      <use xlink:href="#DejaVuSans-6f" x="315.429688"/>
      <use xlink:href="#DejaVuSans-73" x="376.611328"/>
      <use xlink:href="#DejaVuSans-74" x="428.710938"/>
     </g>
    </g>
   </g>
   <g id="line2d_13">
    <path d="M 73.832727 56.7936 
L 74.098838 57.6 
L 74.364948 55.1808 
L 74.897168 69.696 
L 75.163279 53.568 
L 75.429389 54.3744 
L 75.695499 61.632 
L 75.96161 55.1808 
L 76.22772 64.0512 
L 76.49383 85.824 
L 76.75994 86.6304 
L 77.026051 92.2752 
L 77.292161 89.0496 
L 77.558271 94.6944 
L 77.824382 91.4688 
L 78.090492 92.2752 
L 78.356602 92.2752 
L 78.622712 101.1456 
L 78.888823 86.6304 
L 79.154933 90.6624 
L 79.421043 99.5328 
L 79.687154 103.5648 
L 79.953264 110.8224 
L 80.219374 112.4352 
L 80.485484 108.4032 
L 80.751595 110.016 
L 81.017705 104.3712 
L 81.283815 105.984 
L 81.549925 105.984 
L 81.816036 106.7904 
L 82.082146 105.1776 
L 82.348256 101.952 
L 82.614367 92.2752 
L 82.880477 95.5008 
L 83.146587 93.0816 
L 83.412697 86.6304 
L 83.678808 95.5008 
L 83.944918 97.1136 
L 84.211028 104.3712 
L 84.477139 93.0816 
L 84.743249 94.6944 
L 85.009359 97.1136 
L 85.275469 104.3712 
L 86.0738 91.4688 
L 86.339911 93.0816 
L 86.606021 75.3408 
L 87.138241 92.2752 
L 87.404352 93.0816 
L 87.670462 95.5008 
L 87.936572 89.0496 
L 88.202683 85.824 
L 88.468793 88.2432 
L 88.734903 86.6304 
L 89.001013 92.2752 
L 89.267124 89.856 
L 89.533234 89.856 
L 89.799344 95.5008 
L 90.065455 82.5984 
L 90.331565 76.1472 
L 90.597675 78.5664 
L 90.863785 72.9216 
L 91.129896 78.5664 
L 91.662116 93.888 
L 91.928227 84.2112 
L 92.194337 89.0496 
L 92.992668 131.7888 
L 93.258778 134.208 
L 93.524888 149.5296 
L 93.790999 147.9168 
L 94.057109 136.6272 
L 94.323219 134.208 
L 94.589329 135.0144 
L 94.85544 134.208 
L 95.12155 136.6272 
L 95.919881 131.7888 
L 96.185991 125.3376 
L 96.452101 126.9504 
L 96.718212 130.9824 
L 96.984322 130.176 
L 97.250432 130.9824 
L 98.314873 113.2416 
L 98.580984 120.4992 
L 98.847094 122.112 
L 99.113204 131.7888 
L 99.379314 136.6272 
L 99.645425 135.8208 
L 99.911535 134.208 
L 100.177645 135.8208 
L 100.443756 143.0784 
L 100.709866 140.6592 
L 100.975976 142.272 
L 101.242086 151.9488 
L 101.508197 141.4656 
L 101.774307 145.4976 
L 102.040417 143.8848 
L 102.306528 146.304 
L 102.572638 147.1104 
L 102.838748 148.7232 
L 103.104858 143.0784 
L 103.370969 143.8848 
L 103.637079 150.336 
L 103.903189 149.5296 
L 104.43541 156.7872 
L 104.70152 157.5936 
L 104.96763 150.336 
L 105.233741 148.7232 
L 105.499851 143.8848 
L 106.032072 148.7232 
L 106.298182 149.5296 
L 106.564292 144.6912 
L 106.830402 147.1104 
L 107.096513 130.176 
L 107.628733 121.3056 
L 107.894844 122.112 
L 108.427064 144.6912 
L 108.693174 143.8848 
L 109.225395 152.7552 
L 109.491505 149.5296 
L 109.757615 159.2064 
L 110.023726 159.2064 
L 110.289836 154.368 
L 110.555946 151.9488 
L 110.822057 152.7552 
L 111.088167 147.9168 
L 111.620387 130.176 
L 112.152608 133.4016 
L 112.684829 123.7248 
L 112.950939 118.8864 
L 113.217049 122.112 
L 113.483159 121.3056 
L 113.74927 114.8544 
L 114.01538 115.6608 
L 114.28149 113.2416 
L 114.547601 122.9184 
L 114.813711 122.9184 
L 115.079821 124.5312 
L 115.345931 130.9824 
L 116.144262 118.08 
L 116.410373 124.5312 
L 116.676483 114.048 
L 117.208703 101.952 
L 117.474814 105.984 
L 117.740924 114.8544 
L 118.273145 121.3056 
L 118.539255 121.3056 
L 118.805365 120.4992 
L 119.071475 114.8544 
L 119.337586 117.2736 
L 119.869806 113.2416 
L 120.135917 117.2736 
L 120.402027 118.08 
L 120.668137 117.2736 
L 120.934247 119.6928 
L 121.466468 130.9824 
L 121.732578 123.7248 
L 121.998689 122.112 
L 122.264799 121.3056 
L 122.530909 113.2416 
L 122.797019 110.016 
L 123.06313 115.6608 
L 123.32924 106.7904 
L 123.59535 110.8224 
L 124.127571 97.92 
L 124.393681 99.5328 
L 124.659791 105.1776 
L 124.925902 105.1776 
L 125.192012 103.5648 
L 125.458122 99.5328 
L 125.724232 91.4688 
L 126.256453 109.2096 
L 126.522563 116.4672 
L 126.788674 113.2416 
L 127.054784 111.6288 
L 127.320894 112.4352 
L 128.119225 135.8208 
L 128.385335 148.7232 
L 128.651446 146.304 
L 128.917556 141.4656 
L 129.183666 148.7232 
L 129.449776 141.4656 
L 129.715887 138.24 
L 129.981997 136.6272 
L 130.248107 133.4016 
L 130.514218 124.5312 
L 130.780328 122.112 
L 131.046438 113.2416 
L 132.110879 95.5008 
L 132.37699 110.8224 
L 132.6431 114.8544 
L 133.17532 137.4336 
L 133.441431 138.24 
L 133.707541 136.6272 
L 133.973651 129.3696 
L 134.239762 135.8208 
L 134.505872 130.9824 
L 134.771982 133.4016 
L 135.038092 120.4992 
L 135.304203 126.144 
L 135.570313 134.208 
L 135.836423 135.8208 
L 136.102534 132.5952 
L 136.368644 133.4016 
L 136.900864 144.6912 
L 137.166975 151.1424 
L 137.433085 149.5296 
L 137.699195 137.4336 
L 137.965306 143.0784 
L 138.231416 159.2064 
L 138.497526 155.9808 
L 138.763636 161.6256 
L 139.029747 153.5616 
L 139.295857 151.9488 
L 139.561967 151.1424 
L 139.828077 152.7552 
L 140.094188 155.1744 
L 140.360298 149.5296 
L 140.626408 141.4656 
L 140.892519 126.9504 
L 141.158629 132.5952 
L 141.424739 127.7568 
L 141.690849 130.9824 
L 141.95696 136.6272 
L 142.22307 155.9808 
L 142.48918 151.1424 
L 142.755291 150.336 
L 143.287511 159.2064 
L 143.819732 151.1424 
L 144.085842 147.1104 
L 144.351952 134.208 
L 144.618063 131.7888 
L 144.884173 130.9824 
L 145.150283 133.4016 
L 145.416393 139.8528 
L 145.682504 138.24 
L 145.948614 142.272 
L 146.214724 141.4656 
L 146.480835 139.0464 
L 146.746945 138.24 
L 147.013055 150.336 
L 147.279165 149.5296 
L 147.545276 154.368 
L 147.811386 162.432 
L 148.077496 160.0128 
L 148.343607 166.464 
L 148.609717 165.6576 
L 148.875827 160.0128 
L 149.141937 161.6256 
L 149.408048 157.5936 
L 149.940268 143.0784 
L 150.206379 142.272 
L 150.472489 131.7888 
L 150.738599 131.7888 
L 151.004709 120.4992 
L 151.27082 114.8544 
L 151.80304 126.9504 
L 152.069151 117.2736 
L 152.867481 124.5312 
L 153.133592 121.3056 
L 153.399702 124.5312 
L 153.665812 133.4016 
L 153.931923 128.5632 
L 154.464143 139.0464 
L 154.730253 137.4336 
L 154.996364 137.4336 
L 155.262474 134.208 
L 155.794694 116.4672 
L 156.060805 113.2416 
L 156.593025 122.112 
L 156.859136 122.112 
L 157.125246 114.8544 
L 157.391356 113.2416 
L 157.657466 118.08 
L 157.923577 95.5008 
L 158.189687 101.1456 
L 158.455797 95.5008 
L 158.721908 92.2752 
L 158.988018 95.5008 
L 159.254128 95.5008 
L 159.520238 115.6608 
L 159.786349 126.9504 
L 160.052459 125.3376 
L 160.318569 124.5312 
L 160.58468 124.5312 
L 160.85079 122.9184 
L 161.1169 119.6928 
L 161.38301 124.5312 
L 161.649121 124.5312 
L 161.915231 119.6928 
L 162.181341 118.08 
L 162.447452 115.6608 
L 162.713562 117.2736 
L 162.979672 114.048 
L 163.245782 106.7904 
L 163.778003 116.4672 
L 164.044113 112.4352 
L 164.310224 105.984 
L 164.576334 122.112 
L 164.842444 126.144 
L 165.108554 141.4656 
L 165.374665 139.8528 
L 165.640775 143.0784 
L 165.906885 143.0784 
L 166.172996 140.6592 
L 166.439106 131.7888 
L 166.705216 132.5952 
L 166.971326 142.272 
L 167.237437 142.272 
L 167.503547 147.1104 
L 167.769657 142.272 
L 168.035768 153.5616 
L 168.301878 137.4336 
L 168.567988 135.8208 
L 168.834098 139.8528 
L 169.366319 130.9824 
L 169.632429 140.6592 
L 169.898539 141.4656 
L 170.16465 151.1424 
L 170.43076 151.1424 
L 170.69687 149.5296 
L 170.962981 147.1104 
L 171.229091 142.272 
L 171.495201 142.272 
L 171.761311 141.4656 
L 172.027422 139.8528 
L 172.559642 131.7888 
L 172.825753 119.6928 
L 173.091863 119.6928 
L 173.624083 115.6608 
L 174.156304 117.2736 
L 174.422414 112.4352 
L 174.688525 115.6608 
L 175.220745 131.7888 
L 175.486855 137.4336 
L 175.752966 154.368 
L 176.019076 156.7872 
L 176.285186 147.1104 
L 176.817407 168.0768 
L 177.083517 161.6256 
L 177.349627 160.0128 
L 177.615738 149.5296 
L 177.881848 156.7872 
L 178.147958 156.7872 
L 178.414069 154.368 
L 178.680179 160.8192 
L 178.946289 163.2384 
L 179.212399 161.6256 
L 179.47851 161.6256 
L 179.74462 164.8512 
L 180.01073 157.5936 
L 180.276841 147.1104 
L 180.542951 161.6256 
L 180.809061 160.8192 
L 181.341282 162.432 
L 181.607392 166.464 
L 181.873502 156.7872 
L 182.139613 159.2064 
L 182.405723 151.1424 
L 182.671833 158.4 
L 182.937943 155.1744 
L 183.204054 144.6912 
L 183.736274 146.304 
L 184.002385 150.336 
L 184.534605 148.7232 
L 184.800715 142.272 
L 185.066826 151.1424 
L 185.332936 153.5616 
L 185.599046 150.336 
L 185.865156 137.4336 
L 186.131267 135.8208 
L 186.397377 133.4016 
L 186.663487 144.6912 
L 186.929598 139.0464 
L 187.195708 145.4976 
L 187.461818 138.24 
L 187.727928 135.0144 
L 187.994039 119.6928 
L 188.526259 113.2416 
L 189.05848 117.2736 
L 189.5907 129.3696 
L 189.856811 126.144 
L 190.389031 126.144 
L 190.921252 131.7888 
L 191.187362 117.2736 
L 191.453472 117.2736 
L 191.719583 118.08 
L 191.985693 118.08 
L 192.251803 131.7888 
L 192.517914 124.5312 
L 192.784024 130.176 
L 193.050134 141.4656 
L 193.582355 155.1744 
L 194.114575 146.304 
L 194.380686 146.304 
L 194.646796 154.368 
L 194.912906 154.368 
L 195.179016 155.9808 
L 195.445127 155.9808 
L 195.711237 162.432 
L 195.977347 163.2384 
L 196.243458 146.304 
L 196.509568 141.4656 
L 196.775678 155.9808 
L 197.041788 154.368 
L 197.307899 158.4 
L 197.574009 158.4 
L 197.840119 157.5936 
L 198.37234 160.8192 
L 198.63845 153.5616 
L 199.170671 135.0144 
L 199.436781 134.208 
L 199.702891 131.7888 
L 199.969001 122.112 
L 200.501222 134.208 
L 200.767332 135.8208 
L 201.033443 141.4656 
L 201.299553 151.1424 
L 201.565663 149.5296 
L 202.097884 147.9168 
L 202.363994 141.4656 
L 202.630104 143.0784 
L 202.896215 139.8528 
L 203.162325 138.24 
L 203.428435 155.1744 
L 203.694545 145.4976 
L 203.960656 141.4656 
L 204.226766 139.8528 
L 204.492876 140.6592 
L 204.758987 155.1744 
L 205.025097 153.5616 
L 205.291207 154.368 
L 205.557317 153.5616 
L 205.823428 161.6256 
L 206.089538 160.0128 
L 206.355648 151.1424 
L 206.621759 162.432 
L 206.887869 148.7232 
L 207.420089 135.8208 
L 207.95231 140.6592 
L 208.21842 135.8208 
L 208.484531 135.8208 
L 208.750641 139.0464 
L 209.016751 139.0464 
L 209.282861 139.8528 
L 209.548972 138.24 
L 209.815082 133.4016 
L 210.081192 134.208 
L 210.613413 126.144 
L 210.879523 126.9504 
L 211.145633 124.5312 
L 212.210075 139.0464 
L 212.476185 139.8528 
L 212.742295 135.8208 
L 213.008405 141.4656 
L 213.274516 151.9488 
L 213.806736 135.0144 
L 214.072846 143.0784 
L 214.338957 143.0784 
L 214.605067 146.304 
L 214.871177 145.4976 
L 215.137288 139.8528 
L 215.403398 145.4976 
L 215.935618 140.6592 
L 216.201729 153.5616 
L 216.467839 158.4 
L 216.733949 151.1424 
L 217.00006 156.7872 
L 217.53228 163.2384 
L 218.064501 176.1408 
L 218.330611 180.1728 
L 218.596721 170.496 
L 219.128942 161.6256 
L 219.395052 161.6256 
L 219.661162 168.8832 
L 220.193383 151.1424 
L 220.459493 150.336 
L 220.725604 152.7552 
L 220.991714 148.7232 
L 221.257824 178.56 
L 221.523934 178.56 
L 221.790045 174.528 
L 222.056155 173.7216 
L 222.322265 168.0768 
L 222.588376 170.496 
L 222.854486 161.6256 
L 223.120596 164.0448 
L 223.652817 151.9488 
L 223.918927 148.7232 
L 224.185037 152.7552 
L 224.451148 154.368 
L 224.717258 158.4 
L 224.983368 149.5296 
L 225.249478 147.9168 
L 225.515589 144.6912 
L 225.781699 143.0784 
L 226.047809 143.8848 
L 226.31392 142.272 
L 226.84614 131.7888 
L 227.11225 137.4336 
L 227.378361 116.4672 
L 227.644471 121.3056 
L 227.910581 122.9184 
L 228.442802 143.8848 
L 228.708912 143.8848 
L 228.975022 145.4976 
L 229.241133 143.8848 
L 229.507243 145.4976 
L 229.773353 151.1424 
L 230.039463 146.304 
L 230.305574 146.304 
L 230.571684 139.8528 
L 230.837794 139.8528 
L 231.103905 130.9824 
L 231.370015 131.7888 
L 231.636125 130.9824 
L 232.168346 137.4336 
L 232.700566 126.144 
L 232.966677 144.6912 
L 233.232787 148.7232 
L 233.498897 155.9808 
L 233.765007 153.5616 
L 234.031118 146.304 
L 234.297228 145.4976 
L 234.563338 146.304 
L 235.095559 135.0144 
L 235.361669 131.7888 
L 235.627779 133.4016 
L 236.16 147.1104 
L 236.42611 158.4 
L 236.692221 146.304 
L 236.958331 145.4976 
L 237.224441 136.6272 
L 237.490551 141.4656 
L 238.022772 146.304 
L 238.288882 144.6912 
L 238.554993 144.6912 
L 239.087213 161.6256 
L 239.353323 148.7232 
L 239.619434 145.4976 
L 239.885544 151.1424 
L 240.417765 141.4656 
L 240.683875 147.1104 
L 240.949985 149.5296 
L 241.216095 150.336 
L 241.482206 168.0768 
L 241.748316 165.6576 
L 242.014426 178.56 
L 242.280537 169.6896 
L 242.546647 184.2048 
L 242.812757 180.9792 
L 243.078867 195.4944 
L 243.344978 194.688 
L 243.611088 188.2368 
L 243.877198 194.688 
L 244.143308 185.0112 
L 244.409419 191.4624 
L 244.675529 184.2048 
L 244.941639 187.4304 
L 245.20775 184.2048 
L 245.47386 188.2368 
L 245.73997 182.592 
L 246.00608 181.7856 
L 246.272191 184.2048 
L 246.538301 177.7536 
L 247.336632 182.592 
L 247.602742 179.3664 
L 247.868852 183.3984 
L 248.401073 181.7856 
L 248.667183 183.3984 
L 248.933294 189.0432 
L 249.199404 189.0432 
L 249.465514 189.8496 
L 249.731624 187.4304 
L 249.997735 188.2368 
L 250.263845 185.0112 
L 250.529955 176.9472 
L 251.062176 171.3024 
L 251.328286 181.7856 
L 251.594396 187.4304 
L 251.860507 187.4304 
L 252.658838 167.2704 
L 253.191058 175.3344 
L 253.457168 176.9472 
L 253.723279 174.528 
L 253.989389 177.7536 
L 254.52161 173.7216 
L 254.78772 176.1408 
L 255.31994 159.2064 
L 255.586051 158.4 
L 255.852161 156.7872 
L 256.118271 160.0128 
L 256.384382 158.4 
L 257.182712 148.7232 
L 257.448823 147.1104 
L 257.714933 149.5296 
L 258.247154 146.304 
L 259.045484 162.432 
L 259.311595 172.9152 
L 259.577705 177.7536 
L 259.843815 171.3024 
L 260.109925 172.9152 
L 260.376036 167.2704 
L 260.642146 166.464 
L 260.908256 163.2384 
L 261.174367 175.3344 
L 261.440477 172.1088 
L 261.972697 181.7856 
L 262.238808 180.1728 
L 262.504918 193.0752 
L 262.771028 193.0752 
L 263.037139 189.0432 
L 263.303249 193.0752 
L 263.569359 192.2688 
L 263.835469 192.2688 
L 264.10158 189.8496 
L 264.36769 182.592 
L 264.6338 184.2048 
L 264.899911 187.4304 
L 265.166021 189.0432 
L 265.432131 192.2688 
L 265.698241 185.8176 
L 265.964352 189.8496 
L 266.230462 185.8176 
L 266.496572 194.688 
L 266.762683 195.4944 
L 267.028793 204.3648 
L 267.294903 201.1392 
L 267.561013 201.9456 
L 267.827124 205.1712 
L 268.359344 201.1392 
L 268.891565 208.3968 
L 269.157675 204.3648 
L 269.423785 205.1712 
L 269.689896 204.3648 
L 270.222116 204.3648 
L 270.488227 200.3328 
L 271.020447 185.8176 
L 271.286557 194.688 
L 271.552668 195.4944 
L 271.818778 200.3328 
L 272.617109 176.9472 
L 272.883219 177.7536 
L 273.149329 174.528 
L 273.41544 186.624 
L 273.68155 188.2368 
L 273.94766 188.2368 
L 274.479881 203.5584 
L 274.745991 193.0752 
L 275.012101 198.72 
L 275.278212 192.2688 
L 275.544322 192.2688 
L 275.810432 193.8816 
L 276.076542 199.5264 
L 276.608763 219.6864 
L 276.874873 214.848 
L 277.140984 224.5248 
L 277.407094 216.4608 
L 277.673204 218.0736 
L 277.939314 214.848 
L 278.205425 215.6544 
L 278.471535 217.2672 
L 278.737645 209.2032 
L 279.003756 208.3968 
L 279.269866 204.3648 
L 279.535976 202.752 
L 280.068197 214.848 
L 280.334307 213.2352 
L 280.600417 206.784 
L 280.866528 206.784 
L 281.132638 212.4288 
L 281.398748 212.4288 
L 281.664858 216.4608 
L 281.930969 214.0416 
L 282.197079 216.4608 
L 282.463189 213.2352 
L 282.7293 218.88 
L 282.99541 229.3632 
L 283.26152 232.5888 
L 283.52763 226.944 
L 283.793741 232.5888 
L 284.059851 224.5248 
L 284.325961 212.4288 
L 284.592072 218.0736 
L 284.858182 218.0736 
L 285.124292 215.6544 
L 285.390402 210.0096 
L 285.922623 218.88 
L 286.188733 214.848 
L 286.454844 216.4608 
L 286.720954 211.6224 
L 286.987064 209.2032 
L 287.253174 208.3968 
L 287.519285 205.1712 
L 287.785395 214.0416 
L 288.051505 214.0416 
L 288.317615 208.3968 
L 288.583726 212.4288 
L 288.849836 197.9136 
L 289.115946 196.3008 
L 289.382057 205.9776 
L 289.648167 204.3648 
L 289.914277 204.3648 
L 290.446498 200.3328 
L 290.712608 205.9776 
L 290.978718 203.5584 
L 291.244829 204.3648 
L 291.510939 209.2032 
L 292.043159 212.4288 
L 292.30927 210.816 
L 292.57538 213.2352 
L 292.84149 202.752 
L 293.107601 204.3648 
L 293.639821 189.0432 
L 293.905931 189.8496 
L 294.172042 185.8176 
L 294.438152 184.2048 
L 294.970373 188.2368 
L 295.236483 183.3984 
L 295.502593 188.2368 
L 296.034814 193.0752 
L 296.300924 198.72 
L 296.833145 193.0752 
L 297.099255 194.688 
L 297.365365 187.4304 
L 297.631475 188.2368 
L 297.897586 189.8496 
L 298.163696 193.0752 
L 298.429806 192.2688 
L 298.695917 189.0432 
L 298.962027 192.2688 
L 299.228137 187.4304 
L 299.494247 185.8176 
L 300.026468 181.7856 
L 300.292578 180.9792 
L 300.824799 180.9792 
L 301.090909 179.3664 
L 301.357019 172.9152 
L 301.62313 183.3984 
L 301.88924 177.7536 
L 302.15535 190.656 
L 302.421461 191.4624 
L 302.687571 185.8176 
L 302.953681 186.624 
L 303.485902 166.464 
L 303.752012 172.1088 
L 304.018122 169.6896 
L 304.816453 185.8176 
L 305.348674 175.3344 
L 305.614784 176.9472 
L 305.880894 182.592 
L 306.147004 185.8176 
L 306.413115 180.9792 
L 306.945335 184.2048 
L 307.211446 188.2368 
L 307.743666 189.8496 
L 308.009776 194.688 
L 308.275887 189.8496 
L 308.541997 187.4304 
L 308.808107 172.9152 
L 309.074218 168.0768 
L 309.340328 174.528 
L 309.606438 173.7216 
L 309.872548 178.56 
L 310.138659 185.8176 
L 310.404769 178.56 
L 310.670879 185.0112 
L 310.93699 187.4304 
L 311.46921 183.3984 
L 311.73532 185.0112 
L 312.001431 187.4304 
L 312.267541 182.592 
L 312.533651 182.592 
L 312.799762 165.6576 
L 313.065872 171.3024 
L 313.331982 162.432 
L 313.598092 168.0768 
L 313.864203 166.464 
L 314.130313 160.0128 
L 314.396423 162.432 
L 314.662534 156.7872 
L 314.928644 155.1744 
L 315.194754 160.0128 
L 315.460864 153.5616 
L 315.726975 177.7536 
L 315.993085 179.3664 
L 316.259195 172.9152 
L 316.525306 173.7216 
L 316.791416 169.6896 
L 317.057526 174.528 
L 317.323636 170.496 
L 317.589747 182.592 
L 317.855857 177.7536 
L 318.121967 183.3984 
L 318.388077 183.3984 
L 318.654188 184.2048 
L 318.920298 181.7856 
L 319.186408 184.2048 
L 319.452519 181.7856 
L 319.718629 176.9472 
L 319.984739 177.7536 
L 320.250849 180.1728 
L 320.51696 175.3344 
L 320.78307 178.56 
L 321.315291 193.0752 
L 321.581401 185.0112 
L 321.847511 188.2368 
L 322.113621 193.8816 
L 322.645842 212.4288 
L 322.911952 217.2672 
L 323.178063 215.6544 
L 323.444173 214.848 
L 323.710283 211.6224 
L 323.976393 214.0416 
L 324.242504 205.9776 
L 324.508614 207.5904 
L 325.040835 204.3648 
L 325.306945 205.1712 
L 325.839165 210.0096 
L 326.105276 207.5904 
L 326.371386 208.3968 
L 326.637496 210.816 
L 326.903607 214.848 
L 327.169717 208.3968 
L 327.435827 217.2672 
L 327.701937 218.88 
L 327.968048 215.6544 
L 328.234158 221.2992 
L 328.500268 218.88 
L 329.298599 235.008 
L 329.83082 227.7504 
L 330.09693 229.3632 
L 330.895261 218.88 
L 331.161371 233.3952 
L 331.427481 228.5568 
L 331.693592 229.3632 
L 331.959702 228.5568 
L 332.225812 232.5888 
L 333.024143 205.9776 
L 333.290253 193.0752 
L 333.556364 199.5264 
L 333.822474 193.8816 
L 334.088584 185.8176 
L 334.354694 183.3984 
L 334.620805 172.1088 
L 334.886915 176.1408 
L 335.153025 177.7536 
L 335.419136 175.3344 
L 335.685246 175.3344 
L 335.951356 180.1728 
L 336.217466 175.3344 
L 336.483577 175.3344 
L 336.749687 182.592 
L 337.015797 182.592 
L 337.281908 194.688 
L 337.548018 218.0736 
L 337.814128 222.912 
L 338.080238 222.912 
L 338.346349 221.2992 
L 338.612459 220.4928 
L 339.14468 222.1056 
L 339.41079 228.5568 
L 339.6769 230.976 
L 339.94301 228.5568 
L 340.475231 235.8144 
L 341.007452 229.3632 
L 341.273562 230.1696 
L 341.539672 226.944 
L 341.805782 220.4928 
L 342.071893 220.4928 
L 342.338003 218.0736 
L 342.604113 218.88 
L 343.402444 235.8144 
L 343.668554 226.1376 
L 343.934665 230.976 
L 344.200775 239.8464 
L 344.732996 230.976 
L 344.999106 234.2016 
L 345.265216 242.2656 
L 345.531326 236.6208 
L 345.797437 234.2016 
L 346.063547 235.8144 
L 346.329657 232.5888 
L 346.595768 231.7824 
L 346.861878 233.3952 
L 347.127988 241.4592 
L 347.394098 242.2656 
L 347.660209 245.4912 
L 347.926319 241.4592 
L 348.192429 247.104 
L 348.458539 245.4912 
L 348.72465 242.2656 
L 348.99076 236.6208 
L 349.25687 237.4272 
L 349.789091 222.1056 
L 350.055201 219.6864 
L 350.321311 222.912 
L 350.587422 215.6544 
L 350.853532 218.88 
L 351.119642 205.9776 
L 351.385753 204.3648 
L 351.651863 213.2352 
L 351.917973 216.4608 
L 352.184083 215.6544 
L 352.450194 224.5248 
L 352.716304 218.88 
L 352.982414 217.2672 
L 353.248525 218.0736 
L 353.780745 223.7184 
L 354.046855 222.912 
L 354.312966 223.7184 
L 354.579076 231.7824 
L 354.845186 226.944 
L 355.111297 224.5248 
L 355.377407 217.2672 
L 355.643517 216.4608 
L 355.909627 214.0416 
L 356.175738 224.5248 
L 356.441848 223.7184 
L 356.707958 218.88 
L 356.974069 217.2672 
L 357.240179 224.5248 
L 357.506289 222.1056 
L 357.772399 222.912 
L 358.03851 230.1696 
L 358.30462 233.3952 
L 358.57073 233.3952 
L 358.836841 232.5888 
L 359.102951 236.6208 
L 359.369061 232.5888 
L 359.635171 237.4272 
L 359.901282 239.8464 
L 360.167392 239.04 
L 360.433502 230.1696 
L 360.699613 228.5568 
L 360.965723 228.5568 
L 361.231833 230.976 
L 361.497943 231.7824 
L 361.764054 229.3632 
L 362.030164 234.2016 
L 362.296274 231.7824 
L 362.562385 225.3312 
L 362.828495 226.944 
L 363.094605 222.1056 
L 363.360715 209.2032 
L 363.626826 211.6224 
L 363.892936 224.5248 
L 364.159046 223.7184 
L 364.957377 247.104 
L 365.223487 251.9424 
L 365.489598 248.7168 
L 365.755708 241.4592 
L 366.021818 244.6848 
L 366.287928 243.8784 
L 366.554039 250.3296 
L 366.820149 253.5552 
L 367.086259 252.7488 
L 367.35237 237.4272 
L 367.61848 240.6528 
L 367.88459 235.8144 
L 368.1507 238.2336 
L 368.416811 239.04 
L 368.682921 233.3952 
L 369.215142 239.04 
L 369.481252 230.1696 
L 370.545693 223.7184 
L 370.811803 218.0736 
L 371.077914 225.3312 
L 371.344024 221.2992 
L 371.876244 232.5888 
L 372.142355 234.2016 
L 372.408465 229.3632 
L 372.674575 229.3632 
L 372.940686 230.976 
L 373.206796 230.1696 
L 373.472906 240.6528 
L 373.739016 241.4592 
L 374.005127 243.8784 
L 374.271237 240.6528 
L 374.537347 240.6528 
L 374.803458 235.008 
L 375.069568 226.944 
L 375.335678 225.3312 
L 375.601788 221.2992 
L 376.134009 238.2336 
L 376.400119 239.8464 
L 376.66623 237.4272 
L 376.93234 231.7824 
L 377.46456 251.136 
L 377.996781 266.4576 
L 378.262891 262.4256 
L 378.529001 270.4896 
L 378.795112 267.264 
L 379.061222 258.3936 
L 379.327332 272.1024 
L 379.593443 275.328 
L 379.859553 272.1024 
L 380.125663 274.5216 
L 380.391773 274.5216 
L 380.657884 273.7152 
L 380.923994 269.6832 
L 381.190104 273.7152 
L 381.456215 272.9088 
L 381.722325 270.4896 
L 381.988435 264.8448 
L 382.254545 262.4256 
L 382.520656 275.328 
L 382.786766 281.7792 
L 383.318987 276.1344 
L 383.585097 276.1344 
L 383.851207 277.7472 
L 384.117317 278.5536 
L 384.383428 274.5216 
L 384.915648 277.7472 
L 385.181759 276.9408 
L 385.447869 278.5536 
L 385.713979 271.296 
L 385.980089 273.7152 
L 386.2462 269.6832 
L 386.51231 270.4896 
L 386.77842 267.264 
L 387.044531 272.1024 
L 387.576751 275.328 
L 387.842861 268.0704 
L 388.108972 266.4576 
L 388.641192 260.0064 
L 388.907303 266.4576 
L 389.173413 268.0704 
L 389.439523 267.264 
L 389.971744 260.0064 
L 390.237854 254.3616 
L 390.503964 251.136 
L 391.036185 259.2 
L 391.302295 254.3616 
L 391.834516 252.7488 
L 392.100626 262.4256 
L 392.366736 261.6192 
L 392.632846 263.232 
L 392.898957 262.4256 
L 393.165067 271.296 
L 393.697288 272.9088 
L 394.229508 264.8448 
L 394.761729 273.7152 
L 395.027839 272.9088 
L 395.293949 274.5216 
L 395.56006 273.7152 
L 395.82617 279.36 
L 396.09228 277.7472 
L 396.35839 280.9728 
L 396.624501 287.424 
L 397.156721 293.8752 
L 397.422832 288.2304 
L 397.688942 289.0368 
L 397.955052 288.2304 
L 398.221162 295.488 
L 398.487273 295.488 
L 398.487273 295.488 
" clip-path="url(#pd797a49ea3)" style="fill: none; stroke: #1f77b4; stroke-width: 1.5; stroke-linecap: square"/>
   </g>
   <g id="patch_3">
    <path d="M 57.6 307.584 
L 57.6 41.472 
" style="fill: none; stroke: #000000; stroke-width: 0.8; stroke-linejoin: miter; stroke-linecap: square"/>
   </g>
   <g id="patch_4">
    <path d="M 414.72 307.584 
L 414.72 41.472 
" style="fill: none; stroke: #000000; stroke-width: 0.8; stroke-linejoin: miter; stroke-linecap: square"/>
   </g>
   <g id="patch_5">
    <path d="M 57.6 307.584 
L 414.72 307.584 
" style="fill: none; stroke: #000000; stroke-width: 0.8; stroke-linejoin: miter; stroke-linecap: square"/>
   </g>
   <g id="patch_6">
    <path d="M 57.6 41.472 
L 414.72 41.472 
" style="fill: none; stroke: #000000; stroke-width: 0.8; stroke-linejoin: miter; stroke-linecap: square"/>
   </g>
   <g id="text_15">
    <!-- Simulated Anealling Cost -->
    <g transform="translate(160.8 35.472)scale(0.12 -0.12)">
     <defs>
      <path id="DejaVuSans-53" d="M 3425 4513 
L 3425 3897 
Q 3066 4069 2747 4153 
Q 2428 4238 2131 4238 
Q 1616 4238 1336 4038 
Q 1056 3838 1056 3469 
Q 1056 3159 1242 3001 
Q 1428 2844 1947 2747 
L 2328 2669 
Q 3034 2534 3370 2195 
Q 3706 1856 3706 1288 
Q 3706 609 3251 259 
Q 2797 -91 1919 -91 
Q 1588 -91 1214 -16 
Q 841 59 441 206 
L 441 856 
Q 825 641 1194 531 
Q 1563 422 1919 422 
Q 2459 422 2753 634 
Q 3047 847 3047 1241 
Q 3047 1584 2836 1778 
Q 2625 1972 2144 2069 
L 1759 2144 
Q 1053 2284 737 2584 
Q 422 2884 422 3419 
Q 422 4038 858 4394 
Q 1294 4750 2059 4750 
Q 2388 4750 2728 4690 
Q 3069 4631 3425 4513 
z
" transform="scale(0.015625)"/>
      <path id="DejaVuSans-69" d="M 603 3500 
L 1178 3500 
L 1178 0 
L 603 0 
L 603 3500 
z
M 603 4863 
L 1178 4863 
L 1178 4134 
L 603 4134 
L 603 4863 
z
" transform="scale(0.015625)"/>
      <path id="DejaVuSans-65" d="M 3597 1894 
L 3597 1613 
L 953 1613 
Q 991 1019 1311 708 
Q 1631 397 2203 397 
Q 2534 397 2845 478 
Q 3156 559 3463 722 
L 3463 178 
Q 3153 47 2828 -22 
Q 2503 -91 2169 -91 
Q 1331 -91 842 396 
Q 353 884 353 1716 
Q 353 2575 817 3079 
Q 1281 3584 2069 3584 
Q 2775 3584 3186 3129 
Q 3597 2675 3597 1894 
z
M 3022 2063 
Q 3016 2534 2758 2815 
Q 2500 3097 2075 3097 
Q 1594 3097 1305 2825 
Q 1016 2553 972 2059 
L 3022 2063 
z
" transform="scale(0.015625)"/>
      <path id="DejaVuSans-64" d="M 2906 2969 
L 2906 4863 
L 3481 4863 
L 3481 0 
L 2906 0 
L 2906 525 
Q 2725 213 2448 61 
Q 2172 -91 1784 -91 
Q 1150 -91 751 415 
Q 353 922 353 1747 
Q 353 2572 751 3078 
Q 1150 3584 1784 3584 
Q 2172 3584 2448 3432 
Q 2725 3281 2906 2969 
z
M 947 1747 
Q 947 1113 1208 752 
Q 1469 391 1925 391 
Q 2381 391 2643 752 
Q 2906 1113 2906 1747 
Q 2906 2381 2643 2742 
Q 2381 3103 1925 3103 
Q 1469 3103 1208 2742 
Q 947 2381 947 1747 
z
" transform="scale(0.015625)"/>
      <path id="DejaVuSans-41" d="M 2188 4044 
L 1331 1722 
L 3047 1722 
L 2188 4044 
z
M 1831 4666 
L 2547 4666 
L 4325 0 
L 3669 0 
L 3244 1197 
L 1141 1197 
L 716 0 
L 50 0 
L 1831 4666 
z
" transform="scale(0.015625)"/>
      <path id="DejaVuSans-67" d="M 2906 1791 
Q 2906 2416 2648 2759 
Q 2391 3103 1925 3103 
Q 1463 3103 1205 2759 
Q 947 2416 947 1791 
Q 947 1169 1205 825 
Q 1463 481 1925 481 
Q 2391 481 2648 825 
Q 2906 1169 2906 1791 
z
M 3481 434 
Q 3481 -459 3084 -895 
Q 2688 -1331 1869 -1331 
Q 1566 -1331 1297 -1286 
Q 1028 -1241 775 -1147 
L 775 -588 
Q 1028 -725 1275 -790 
Q 1522 -856 1778 -856 
Q 2344 -856 2625 -561 
Q 2906 -266 2906 331 
L 2906 616 
Q 2728 306 2450 153 
Q 2172 0 1784 0 
Q 1141 0 747 490 
Q 353 981 353 1791 
Q 353 2603 747 3093 
Q 1141 3584 1784 3584 
Q 2172 3584 2450 3431 
Q 2728 3278 2906 2969 
L 2906 3500 
L 3481 3500 
L 3481 434 
z
" transform="scale(0.015625)"/>
      <path id="DejaVuSans-43" d="M 4122 4306 
L 4122 3641 
Q 3803 3938 3442 4084 
Q 3081 4231 2675 4231 
Q 1875 4231 1450 3742 
Q 1025 3253 1025 2328 
Q 1025 1406 1450 917 
Q 1875 428 2675 428 
Q 3081 428 3442 575 
Q 3803 722 4122 1019 
L 4122 359 
Q 3791 134 3420 21 
Q 3050 -91 2638 -91 
Q 1578 -91 968 557 
Q 359 1206 359 2328 
Q 359 3453 968 4101 
Q 1578 4750 2638 4750 
Q 3056 4750 3426 4639 
Q 3797 4528 4122 4306 
z
" transform="scale(0.015625)"/>
     </defs>
     <use xlink:href="#DejaVuSans-53"/>
     <use xlink:href="#DejaVuSans-69" x="63.476562"/>
     <use xlink:href="#DejaVuSans-6d" x="91.259766"/>
     <use xlink:href="#DejaVuSans-75" x="188.671875"/>
     <use xlink:href="#DejaVuSans-6c" x="252.050781"/>
     <use xlink:href="#DejaVuSans-61" x="279.833984"/>
     <use xlink:href="#DejaVuSans-74" x="341.113281"/>
     <use xlink:href="#DejaVuSans-65" x="380.322266"/>
     <use xlink:href="#DejaVuSans-64" x="441.845703"/>
     <use xlink:href="#DejaVuSans-20" x="505.322266"/>
     <use xlink:href="#DejaVuSans-41" x="537.109375"/>
     <use xlink:href="#DejaVuSans-6e" x="605.517578"/>
     <use xlink:href="#DejaVuSans-65" x="668.896484"/>
     <use xlink:href="#DejaVuSans-61" x="730.419922"/>
     <use xlink:href="#DejaVuSans-6c" x="791.699219"/>
     <use xlink:href="#DejaVuSans-6c" x="819.482422"/>
     <use xlink:href="#DejaVuSans-69" x="847.265625"/>
     <use xlink:href="#DejaVuSans-6e" x="875.048828"/>
     <use xlink:href="#DejaVuSans-67" x="938.427734"/>
     <use xlink:href="#DejaVuSans-20" x="1001.904297"/>
     <use xlink:href="#DejaVuSans-43" x="1033.691406"/>
     <use xlink:href="#DejaVuSans-6f" x="1103.515625"/>
     <use xlink:href="#DejaVuSans-73" x="1164.697266"/>
     <use xlink:href="#DejaVuSans-74" x="1216.796875"/>
    </g>
   </g>
  </g>
 </g>
 <defs>
  <clipPath id="pd797a49ea3">
   <rect x="57.6" y="41.472" width="357.12" height="266.112"/>
  </clipPath>
 </defs>
</svg>
