<?xml version="1.0" encoding="utf-8" standalone="no"?>
<!DOCTYPE svg PUBLIC "-//W3C//DTD SVG 1.1//EN"
  "http://www.w3.org/Graphics/SVG/1.1/DTD/svg11.dtd">
<svg xmlns:xlink="http://www.w3.org/1999/xlink" width="460.8pt" height="345.6pt" viewBox="0 0 460.8 345.6" xmlns="http://www.w3.org/2000/svg" version="1.1">
 <metadata>
  <rdf:RDF xmlns:dc="http://purl.org/dc/elements/1.1/" xmlns:cc="http://creativecommons.org/ns#" xmlns:rdf="http://www.w3.org/1999/02/22-rdf-syntax-ns#">
   <cc:Work>
    <dc:type rdf:resource="http://purl.org/dc/dcmitype/StillImage"/>
    <dc:date>2022-06-01T07:48:06.170333</dc:date>
    <dc:format>image/svg+xml</dc:format>
    <dc:creator>
     <cc:Agent>
      <dc:title>Matplotlib v3.5.1, https://matplotlib.org/</dc:title>
     </cc:Agent>
    </dc:creator>
   </cc:Work>
  </rdf:RDF>
 </metadata>
 <defs>
  <style type="text/css">*{stroke-linejoin: round; stroke-linecap: butt}</style>
 </defs>
 <g id="figure_1">
  <g id="patch_1">
   <path d="M 0 345.6 
L 460.8 345.6 
L 460.8 0 
L 0 0 
z
" style="fill: #ffffff"/>
  </g>
  <g id="axes_1">
   <g id="patch_2">
    <path d="M 57.6 307.584 
L 414.72 307.584 
L 414.72 41.472 
L 57.6 41.472 
z
" style="fill: #ffffff"/>
   </g>
   <g id="matplotlib.axis_1">
    <g id="xtick_1">
     <g id="line2d_1">
      <defs>
       <path id="mbb69ea3d84" d="M 0 0 
L 0 3.5 
" style="stroke: #000000; stroke-width: 0.8"/>
      </defs>
      <g>
       <use xlink:href="#mbb69ea3d84" x="73.832727" y="307.584" style="stroke: #000000; stroke-width: 0.8"/>
      </g>
     </g>
     <g id="text_1">
      <!-- 0 -->
      <g transform="translate(70.651477 322.182437)scale(0.1 -0.1)">
       <defs>
        <path id="DejaVuSans-30" d="M 2034 4250 
Q 1547 4250 1301 3770 
Q 1056 3291 1056 2328 
Q 1056 1369 1301 889 
Q 1547 409 2034 409 
Q 2525 409 2770 889 
Q 3016 1369 3016 2328 
Q 3016 3291 2770 3770 
Q 2525 4250 2034 4250 
z
M 2034 4750 
Q 2819 4750 3233 4129 
Q 3647 3509 3647 2328 
Q 3647 1150 3233 529 
Q 2819 -91 2034 -91 
Q 1250 -91 836 529 
Q 422 1150 422 2328 
Q 422 3509 836 4129 
Q 1250 4750 2034 4750 
z
" transform="scale(0.015625)"/>
       </defs>
       <use xlink:href="#DejaVuSans-30"/>
      </g>
     </g>
    </g>
    <g id="xtick_2">
     <g id="line2d_2">
      <g>
       <use xlink:href="#mbb69ea3d84" x="144.779962" y="307.584" style="stroke: #000000; stroke-width: 0.8"/>
      </g>
     </g>
     <g id="text_2">
      <!-- 500 -->
      <g transform="translate(135.236212 322.182437)scale(0.1 -0.1)">
       <defs>
        <path id="DejaVuSans-35" d="M 691 4666 
L 3169 4666 
L 3169 4134 
L 1269 4134 
L 1269 2991 
Q 1406 3038 1543 3061 
Q 1681 3084 1819 3084 
Q 2600 3084 3056 2656 
Q 3513 2228 3513 1497 
Q 3513 744 3044 326 
Q 2575 -91 1722 -91 
Q 1428 -91 1123 -41 
Q 819 9 494 109 
L 494 744 
Q 775 591 1075 516 
Q 1375 441 1709 441 
Q 2250 441 2565 725 
Q 2881 1009 2881 1497 
Q 2881 1984 2565 2268 
Q 2250 2553 1709 2553 
Q 1456 2553 1204 2497 
Q 953 2441 691 2322 
L 691 4666 
z
" transform="scale(0.015625)"/>
       </defs>
       <use xlink:href="#DejaVuSans-35"/>
       <use xlink:href="#DejaVuSans-30" x="63.623047"/>
       <use xlink:href="#DejaVuSans-30" x="127.246094"/>
      </g>
     </g>
    </g>
    <g id="xtick_3">
     <g id="line2d_3">
      <g>
       <use xlink:href="#mbb69ea3d84" x="215.727196" y="307.584" style="stroke: #000000; stroke-width: 0.8"/>
      </g>
     </g>
     <g id="text_3">
      <!-- 1000 -->
      <g transform="translate(203.002196 322.182437)scale(0.1 -0.1)">
       <defs>
        <path id="DejaVuSans-31" d="M 794 531 
L 1825 531 
L 1825 4091 
L 703 3866 
L 703 4441 
L 1819 4666 
L 2450 4666 
L 2450 531 
L 3481 531 
L 3481 0 
L 794 0 
L 794 531 
z
" transform="scale(0.015625)"/>
       </defs>
       <use xlink:href="#DejaVuSans-31"/>
       <use xlink:href="#DejaVuSans-30" x="63.623047"/>
       <use xlink:href="#DejaVuSans-30" x="127.246094"/>
       <use xlink:href="#DejaVuSans-30" x="190.869141"/>
      </g>
     </g>
    </g>
    <g id="xtick_4">
     <g id="line2d_4">
      <g>
       <use xlink:href="#mbb69ea3d84" x="286.674431" y="307.584" style="stroke: #000000; stroke-width: 0.8"/>
      </g>
     </g>
     <g id="text_4">
      <!-- 1500 -->
      <g transform="translate(273.949431 322.182437)scale(0.1 -0.1)">
       <use xlink:href="#DejaVuSans-31"/>
       <use xlink:href="#DejaVuSans-35" x="63.623047"/>
       <use xlink:href="#DejaVuSans-30" x="127.246094"/>
       <use xlink:href="#DejaVuSans-30" x="190.869141"/>
      </g>
     </g>
    </g>
    <g id="xtick_5">
     <g id="line2d_5">
      <g>
       <use xlink:href="#mbb69ea3d84" x="357.621666" y="307.584" style="stroke: #000000; stroke-width: 0.8"/>
      </g>
     </g>
     <g id="text_5">
      <!-- 2000 -->
      <g transform="translate(344.896666 322.182437)scale(0.1 -0.1)">
       <defs>
        <path id="DejaVuSans-32" d="M 1228 531 
L 3431 531 
L 3431 0 
L 469 0 
L 469 531 
Q 828 903 1448 1529 
Q 2069 2156 2228 2338 
Q 2531 2678 2651 2914 
Q 2772 3150 2772 3378 
Q 2772 3750 2511 3984 
Q 2250 4219 1831 4219 
Q 1534 4219 1204 4116 
Q 875 4013 500 3803 
L 500 4441 
Q 881 4594 1212 4672 
Q 1544 4750 1819 4750 
Q 2544 4750 2975 4387 
Q 3406 4025 3406 3419 
Q 3406 3131 3298 2873 
Q 3191 2616 2906 2266 
Q 2828 2175 2409 1742 
Q 1991 1309 1228 531 
z
" transform="scale(0.015625)"/>
       </defs>
       <use xlink:href="#DejaVuSans-32"/>
       <use xlink:href="#DejaVuSans-30" x="63.623047"/>
       <use xlink:href="#DejaVuSans-30" x="127.246094"/>
       <use xlink:href="#DejaVuSans-30" x="190.869141"/>
      </g>
     </g>
    </g>
    <g id="text_6">
     <!-- num swaps -->
     <g transform="translate(207.826406 335.860562)scale(0.1 -0.1)">
      <defs>
       <path id="DejaVuSans-6e" d="M 3513 2113 
L 3513 0 
L 2938 0 
L 2938 2094 
Q 2938 2591 2744 2837 
Q 2550 3084 2163 3084 
Q 1697 3084 1428 2787 
Q 1159 2491 1159 1978 
L 1159 0 
L 581 0 
L 581 3500 
L 1159 3500 
L 1159 2956 
Q 1366 3272 1645 3428 
Q 1925 3584 2291 3584 
Q 2894 3584 3203 3211 
Q 3513 2838 3513 2113 
z
" transform="scale(0.015625)"/>
       <path id="DejaVuSans-75" d="M 544 1381 
L 544 3500 
L 1119 3500 
L 1119 1403 
Q 1119 906 1312 657 
Q 1506 409 1894 409 
Q 2359 409 2629 706 
Q 2900 1003 2900 1516 
L 2900 3500 
L 3475 3500 
L 3475 0 
L 2900 0 
L 2900 538 
Q 2691 219 2414 64 
Q 2138 -91 1772 -91 
Q 1169 -91 856 284 
Q 544 659 544 1381 
z
M 1991 3584 
L 1991 3584 
z
" transform="scale(0.015625)"/>
       <path id="DejaVuSans-6d" d="M 3328 2828 
Q 3544 3216 3844 3400 
Q 4144 3584 4550 3584 
Q 5097 3584 5394 3201 
Q 5691 2819 5691 2113 
L 5691 0 
L 5113 0 
L 5113 2094 
Q 5113 2597 4934 2840 
Q 4756 3084 4391 3084 
Q 3944 3084 3684 2787 
Q 3425 2491 3425 1978 
L 3425 0 
L 2847 0 
L 2847 2094 
Q 2847 2600 2669 2842 
Q 2491 3084 2119 3084 
Q 1678 3084 1418 2786 
Q 1159 2488 1159 1978 
L 1159 0 
L 581 0 
L 581 3500 
L 1159 3500 
L 1159 2956 
Q 1356 3278 1631 3431 
Q 1906 3584 2284 3584 
Q 2666 3584 2933 3390 
Q 3200 3197 3328 2828 
z
" transform="scale(0.015625)"/>
       <path id="DejaVuSans-20" transform="scale(0.015625)"/>
       <path id="DejaVuSans-73" d="M 2834 3397 
L 2834 2853 
Q 2591 2978 2328 3040 
Q 2066 3103 1784 3103 
Q 1356 3103 1142 2972 
Q 928 2841 928 2578 
Q 928 2378 1081 2264 
Q 1234 2150 1697 2047 
L 1894 2003 
Q 2506 1872 2764 1633 
Q 3022 1394 3022 966 
Q 3022 478 2636 193 
Q 2250 -91 1575 -91 
Q 1294 -91 989 -36 
Q 684 19 347 128 
L 347 722 
Q 666 556 975 473 
Q 1284 391 1588 391 
Q 1994 391 2212 530 
Q 2431 669 2431 922 
Q 2431 1156 2273 1281 
Q 2116 1406 1581 1522 
L 1381 1569 
Q 847 1681 609 1914 
Q 372 2147 372 2553 
Q 372 3047 722 3315 
Q 1072 3584 1716 3584 
Q 2034 3584 2315 3537 
Q 2597 3491 2834 3397 
z
" transform="scale(0.015625)"/>
       <path id="DejaVuSans-77" d="M 269 3500 
L 844 3500 
L 1563 769 
L 2278 3500 
L 2956 3500 
L 3675 769 
L 4391 3500 
L 4966 3500 
L 4050 0 
L 3372 0 
L 2619 2869 
L 1863 0 
L 1184 0 
L 269 3500 
z
" transform="scale(0.015625)"/>
       <path id="DejaVuSans-61" d="M 2194 1759 
Q 1497 1759 1228 1600 
Q 959 1441 959 1056 
Q 959 750 1161 570 
Q 1363 391 1709 391 
Q 2188 391 2477 730 
Q 2766 1069 2766 1631 
L 2766 1759 
L 2194 1759 
z
M 3341 1997 
L 3341 0 
L 2766 0 
L 2766 531 
Q 2569 213 2275 61 
Q 1981 -91 1556 -91 
Q 1019 -91 701 211 
Q 384 513 384 1019 
Q 384 1609 779 1909 
Q 1175 2209 1959 2209 
L 2766 2209 
L 2766 2266 
Q 2766 2663 2505 2880 
Q 2244 3097 1772 3097 
Q 1472 3097 1187 3025 
Q 903 2953 641 2809 
L 641 3341 
Q 956 3463 1253 3523 
Q 1550 3584 1831 3584 
Q 2591 3584 2966 3190 
Q 3341 2797 3341 1997 
z
" transform="scale(0.015625)"/>
       <path id="DejaVuSans-70" d="M 1159 525 
L 1159 -1331 
L 581 -1331 
L 581 3500 
L 1159 3500 
L 1159 2969 
Q 1341 3281 1617 3432 
Q 1894 3584 2278 3584 
Q 2916 3584 3314 3078 
Q 3713 2572 3713 1747 
Q 3713 922 3314 415 
Q 2916 -91 2278 -91 
Q 1894 -91 1617 61 
Q 1341 213 1159 525 
z
M 3116 1747 
Q 3116 2381 2855 2742 
Q 2594 3103 2138 3103 
Q 1681 3103 1420 2742 
Q 1159 2381 1159 1747 
Q 1159 1113 1420 752 
Q 1681 391 2138 391 
Q 2594 391 2855 752 
Q 3116 1113 3116 1747 
z
" transform="scale(0.015625)"/>
      </defs>
      <use xlink:href="#DejaVuSans-6e"/>
      <use xlink:href="#DejaVuSans-75" x="63.378906"/>
      <use xlink:href="#DejaVuSans-6d" x="126.757812"/>
      <use xlink:href="#DejaVuSans-20" x="224.169922"/>
      <use xlink:href="#DejaVuSans-73" x="255.957031"/>
      <use xlink:href="#DejaVuSans-77" x="308.056641"/>
      <use xlink:href="#DejaVuSans-61" x="389.84375"/>
      <use xlink:href="#DejaVuSans-70" x="451.123047"/>
      <use xlink:href="#DejaVuSans-73" x="514.599609"/>
     </g>
    </g>
   </g>
   <g id="matplotlib.axis_2">
    <g id="ytick_1">
     <g id="line2d_6">
      <defs>
       <path id="m0bd9c17dc8" d="M 0 0 
L -3.5 0 
" style="stroke: #000000; stroke-width: 0.8"/>
      </defs>
      <g>
       <use xlink:href="#m0bd9c17dc8" x="57.6" y="297.117091" style="stroke: #000000; stroke-width: 0.8"/>
      </g>
     </g>
     <g id="text_7">
      <!-- 1850 -->
      <g transform="translate(25.15 300.91631)scale(0.1 -0.1)">
       <defs>
        <path id="DejaVuSans-38" d="M 2034 2216 
Q 1584 2216 1326 1975 
Q 1069 1734 1069 1313 
Q 1069 891 1326 650 
Q 1584 409 2034 409 
Q 2484 409 2743 651 
Q 3003 894 3003 1313 
Q 3003 1734 2745 1975 
Q 2488 2216 2034 2216 
z
M 1403 2484 
Q 997 2584 770 2862 
Q 544 3141 544 3541 
Q 544 4100 942 4425 
Q 1341 4750 2034 4750 
Q 2731 4750 3128 4425 
Q 3525 4100 3525 3541 
Q 3525 3141 3298 2862 
Q 3072 2584 2669 2484 
Q 3125 2378 3379 2068 
Q 3634 1759 3634 1313 
Q 3634 634 3220 271 
Q 2806 -91 2034 -91 
Q 1263 -91 848 271 
Q 434 634 434 1313 
Q 434 1759 690 2068 
Q 947 2378 1403 2484 
z
M 1172 3481 
Q 1172 3119 1398 2916 
Q 1625 2713 2034 2713 
Q 2441 2713 2670 2916 
Q 2900 3119 2900 3481 
Q 2900 3844 2670 4047 
Q 2441 4250 2034 4250 
Q 1625 4250 1398 4047 
Q 1172 3844 1172 3481 
z
" transform="scale(0.015625)"/>
       </defs>
       <use xlink:href="#DejaVuSans-31"/>
       <use xlink:href="#DejaVuSans-38" x="63.623047"/>
       <use xlink:href="#DejaVuSans-35" x="127.246094"/>
       <use xlink:href="#DejaVuSans-30" x="190.869141"/>
      </g>
     </g>
    </g>
    <g id="ytick_2">
     <g id="line2d_7">
      <g>
       <use xlink:href="#m0bd9c17dc8" x="57.6" y="256.389818" style="stroke: #000000; stroke-width: 0.8"/>
      </g>
     </g>
     <g id="text_8">
      <!-- 1900 -->
      <g transform="translate(25.15 260.189037)scale(0.1 -0.1)">
       <defs>
        <path id="DejaVuSans-39" d="M 703 97 
L 703 672 
Q 941 559 1184 500 
Q 1428 441 1663 441 
Q 2288 441 2617 861 
Q 2947 1281 2994 2138 
Q 2813 1869 2534 1725 
Q 2256 1581 1919 1581 
Q 1219 1581 811 2004 
Q 403 2428 403 3163 
Q 403 3881 828 4315 
Q 1253 4750 1959 4750 
Q 2769 4750 3195 4129 
Q 3622 3509 3622 2328 
Q 3622 1225 3098 567 
Q 2575 -91 1691 -91 
Q 1453 -91 1209 -44 
Q 966 3 703 97 
z
M 1959 2075 
Q 2384 2075 2632 2365 
Q 2881 2656 2881 3163 
Q 2881 3666 2632 3958 
Q 2384 4250 1959 4250 
Q 1534 4250 1286 3958 
Q 1038 3666 1038 3163 
Q 1038 2656 1286 2365 
Q 1534 2075 1959 2075 
z
" transform="scale(0.015625)"/>
       </defs>
       <use xlink:href="#DejaVuSans-31"/>
       <use xlink:href="#DejaVuSans-39" x="63.623047"/>
       <use xlink:href="#DejaVuSans-30" x="127.246094"/>
       <use xlink:href="#DejaVuSans-30" x="190.869141"/>
      </g>
     </g>
    </g>
    <g id="ytick_3">
     <g id="line2d_8">
      <g>
       <use xlink:href="#m0bd9c17dc8" x="57.6" y="215.662545" style="stroke: #000000; stroke-width: 0.8"/>
      </g>
     </g>
     <g id="text_9">
      <!-- 1950 -->
      <g transform="translate(25.15 219.461764)scale(0.1 -0.1)">
       <use xlink:href="#DejaVuSans-31"/>
       <use xlink:href="#DejaVuSans-39" x="63.623047"/>
       <use xlink:href="#DejaVuSans-35" x="127.246094"/>
       <use xlink:href="#DejaVuSans-30" x="190.869141"/>
      </g>
     </g>
    </g>
    <g id="ytick_4">
     <g id="line2d_9">
      <g>
       <use xlink:href="#m0bd9c17dc8" x="57.6" y="174.935273" style="stroke: #000000; stroke-width: 0.8"/>
      </g>
     </g>
     <g id="text_10">
      <!-- 2000 -->
      <g transform="translate(25.15 178.734491)scale(0.1 -0.1)">
       <use xlink:href="#DejaVuSans-32"/>
       <use xlink:href="#DejaVuSans-30" x="63.623047"/>
       <use xlink:href="#DejaVuSans-30" x="127.246094"/>
       <use xlink:href="#DejaVuSans-30" x="190.869141"/>
      </g>
     </g>
    </g>
    <g id="ytick_5">
     <g id="line2d_10">
      <g>
       <use xlink:href="#m0bd9c17dc8" x="57.6" y="134.208" style="stroke: #000000; stroke-width: 0.8"/>
      </g>
     </g>
     <g id="text_11">
      <!-- 2050 -->
      <g transform="translate(25.15 138.007219)scale(0.1 -0.1)">
       <use xlink:href="#DejaVuSans-32"/>
       <use xlink:href="#DejaVuSans-30" x="63.623047"/>
       <use xlink:href="#DejaVuSans-35" x="127.246094"/>
       <use xlink:href="#DejaVuSans-30" x="190.869141"/>
      </g>
     </g>
    </g>
    <g id="ytick_6">
     <g id="line2d_11">
      <g>
       <use xlink:href="#m0bd9c17dc8" x="57.6" y="93.480727" style="stroke: #000000; stroke-width: 0.8"/>
      </g>
     </g>
     <g id="text_12">
      <!-- 2100 -->
      <g transform="translate(25.15 97.279946)scale(0.1 -0.1)">
       <use xlink:href="#DejaVuSans-32"/>
       <use xlink:href="#DejaVuSans-31" x="63.623047"/>
       <use xlink:href="#DejaVuSans-30" x="127.246094"/>
       <use xlink:href="#DejaVuSans-30" x="190.869141"/>
      </g>
     </g>
    </g>
    <g id="ytick_7">
     <g id="line2d_12">
      <g>
       <use xlink:href="#m0bd9c17dc8" x="57.6" y="52.753455" style="stroke: #000000; stroke-width: 0.8"/>
      </g>
     </g>
     <g id="text_13">
      <!-- 2150 -->
      <g transform="translate(25.15 56.552673)scale(0.1 -0.1)">
       <use xlink:href="#DejaVuSans-32"/>
       <use xlink:href="#DejaVuSans-31" x="63.623047"/>
       <use xlink:href="#DejaVuSans-35" x="127.246094"/>
       <use xlink:href="#DejaVuSans-30" x="190.869141"/>
      </g>
     </g>
    </g>
    <g id="text_14">
     <!-- total cost -->
     <g transform="translate(19.070312 197.923313)rotate(-90)scale(0.1 -0.1)">
      <defs>
       <path id="DejaVuSans-74" d="M 1172 4494 
L 1172 3500 
L 2356 3500 
L 2356 3053 
L 1172 3053 
L 1172 1153 
Q 1172 725 1289 603 
Q 1406 481 1766 481 
L 2356 481 
L 2356 0 
L 1766 0 
Q 1100 0 847 248 
Q 594 497 594 1153 
L 594 3053 
L 172 3053 
L 172 3500 
L 594 3500 
L 594 4494 
L 1172 4494 
z
" transform="scale(0.015625)"/>
       <path id="DejaVuSans-6f" d="M 1959 3097 
Q 1497 3097 1228 2736 
Q 959 2375 959 1747 
Q 959 1119 1226 758 
Q 1494 397 1959 397 
Q 2419 397 2687 759 
Q 2956 1122 2956 1747 
Q 2956 2369 2687 2733 
Q 2419 3097 1959 3097 
z
M 1959 3584 
Q 2709 3584 3137 3096 
Q 3566 2609 3566 1747 
Q 3566 888 3137 398 
Q 2709 -91 1959 -91 
Q 1206 -91 779 398 
Q 353 888 353 1747 
Q 353 2609 779 3096 
Q 1206 3584 1959 3584 
z
" transform="scale(0.015625)"/>
       <path id="DejaVuSans-6c" d="M 603 4863 
L 1178 4863 
L 1178 0 
L 603 0 
L 603 4863 
z
" transform="scale(0.015625)"/>
       <path id="DejaVuSans-63" d="M 3122 3366 
L 3122 2828 
Q 2878 2963 2633 3030 
Q 2388 3097 2138 3097 
Q 1578 3097 1268 2742 
Q 959 2388 959 1747 
Q 959 1106 1268 751 
Q 1578 397 2138 397 
Q 2388 397 2633 464 
Q 2878 531 3122 666 
L 3122 134 
Q 2881 22 2623 -34 
Q 2366 -91 2075 -91 
Q 1284 -91 818 406 
Q 353 903 353 1747 
Q 353 2603 823 3093 
Q 1294 3584 2113 3584 
Q 2378 3584 2631 3529 
Q 2884 3475 3122 3366 
z
" transform="scale(0.015625)"/>
      </defs>
      <use xlink:href="#DejaVuSans-74"/>
      <use xlink:href="#DejaVuSans-6f" x="39.208984"/>
      <use xlink:href="#DejaVuSans-74" x="100.390625"/>
      <use xlink:href="#DejaVuSans-61" x="139.599609"/>
      <use xlink:href="#DejaVuSans-6c" x="200.878906"/>
      <use xlink:href="#DejaVuSans-20" x="228.662109"/>
      <use xlink:href="#DejaVuSans-63" x="260.449219"/>
      <use xlink:href="#DejaVuSans-6f" x="315.429688"/>
      <use xlink:href="#DejaVuSans-73" x="376.611328"/>
      <use xlink:href="#DejaVuSans-74" x="428.710938"/>
     </g>
    </g>
   </g>
   <g id="line2d_13">
    <path d="M 73.832727 93.480727 
L 74.116516 74.746182 
L 74.400305 83.706182 
L 74.684094 82.891636 
L 74.967883 71.488 
L 75.251672 70.673455 
L 75.535461 71.488 
L 75.81925 56.826182 
L 76.103039 56.011636 
L 76.386828 58.455273 
L 76.670617 53.568 
L 76.954406 80.448 
L 77.238195 89.408 
L 77.521983 87.778909 
L 78.089561 95.924364 
L 78.37335 95.924364 
L 78.657139 99.997091 
L 78.940928 92.666182 
L 79.224717 91.037091 
L 79.508506 98.368 
L 79.792295 100.811636 
L 80.076084 114.658909 
L 80.359873 104.884364 
L 80.643662 101.626182 
L 80.927451 108.142545 
L 81.21124 104.884364 
L 81.778818 95.109818 
L 82.062606 75.560727 
L 82.346395 80.448 
L 82.630184 75.560727 
L 83.197762 86.149818 
L 83.481551 88.593455 
L 83.76534 82.077091 
L 84.049129 86.964364 
L 84.332918 88.593455 
L 84.616707 91.037091 
L 84.900496 88.593455 
L 85.184285 91.037091 
L 85.468074 97.553455 
L 85.751863 91.851636 
L 86.035652 95.924364 
L 86.603229 83.706182 
L 86.887018 86.964364 
L 87.170807 79.633455 
L 87.738385 93.480727 
L 88.022174 95.924364 
L 88.305963 92.666182 
L 88.589752 91.851636 
L 88.873541 91.851636 
L 89.15733 98.368 
L 89.441119 77.189818 
L 89.724908 80.448 
L 90.292486 91.037091 
L 90.576275 87.778909 
L 90.860064 87.778909 
L 91.143853 84.520727 
L 91.427641 76.375273 
L 91.71143 79.633455 
L 91.995219 77.189818 
L 92.562797 82.077091 
L 92.846586 82.077091 
L 93.130375 101.626182 
L 93.414164 97.553455 
L 93.697953 114.658909 
L 94.265531 129.320727 
L 94.54932 119.546182 
L 94.833109 124.433455 
L 95.116898 121.989818 
L 95.400687 121.989818 
L 95.684476 117.917091 
L 95.968264 111.400727 
L 96.252053 110.586182 
L 96.819631 102.440727 
L 97.10342 108.957091 
L 97.387209 112.215273 
L 97.954787 110.586182 
L 98.238576 97.553455 
L 98.522365 97.553455 
L 98.806154 98.368 
L 99.373732 119.546182 
L 99.657521 113.029818 
L 99.94131 99.997091 
L 100.792676 88.593455 
L 101.076465 86.149818 
L 101.360254 86.964364 
L 101.927832 103.255273 
L 102.211621 90.222545 
L 102.49541 88.593455 
L 102.779199 100.811636 
L 103.062988 103.255273 
L 103.346777 96.738909 
L 103.630566 104.069818 
L 103.914355 105.698909 
L 104.198144 94.295273 
L 104.481933 96.738909 
L 104.765722 80.448 
L 105.04951 95.109818 
L 105.333299 87.778909 
L 105.617088 83.706182 
L 105.900877 85.335273 
L 106.184666 90.222545 
L 106.468455 109.771636 
L 106.752244 108.142545 
L 107.036033 107.328 
L 107.319822 108.957091 
L 107.603611 112.215273 
L 107.8874 113.844364 
L 108.171189 111.400727 
L 108.454978 102.440727 
L 108.738767 104.884364 
L 109.022556 105.698909 
L 109.590134 112.215273 
L 109.873922 112.215273 
L 110.157711 122.804364 
L 110.4415 123.618909 
L 110.725289 115.473455 
L 111.009078 118.731636 
L 111.292867 113.844364 
L 111.576656 116.288 
L 111.860445 113.844364 
L 112.428023 138.280727 
L 112.711812 139.095273 
L 112.995601 135.837091 
L 113.563179 143.168 
L 113.846968 146.426182 
L 114.130757 134.208 
L 114.414545 141.538909 
L 114.698334 142.353455 
L 114.982123 152.942545 
L 115.265912 148.869818 
L 115.549701 154.571636 
L 116.117279 145.611636 
L 116.401068 142.353455 
L 116.684857 155.386182 
L 116.968646 152.128 
L 117.252435 140.724364 
L 117.536224 141.538909 
L 117.820013 135.837091 
L 118.103802 135.022545 
L 118.387591 135.022545 
L 118.67138 147.240727 
L 118.955168 144.797091 
L 119.238957 139.095273 
L 119.522746 139.095273 
L 119.806535 138.280727 
L 120.090324 139.909818 
L 120.657902 167.604364 
L 120.941691 162.717091 
L 121.22548 152.128 
L 121.509269 148.869818 
L 121.793058 148.869818 
L 122.076847 137.466182 
L 122.360636 146.426182 
L 122.644425 140.724364 
L 122.928214 130.949818 
L 123.212003 134.208 
L 123.495791 109.771636 
L 123.77958 112.215273 
L 124.063369 117.917091 
L 124.347158 121.175273 
L 125.198525 112.215273 
L 125.766103 119.546182 
L 126.333681 137.466182 
L 127.185048 139.909818 
L 127.468837 134.208 
L 127.752626 135.837091 
L 128.036414 142.353455 
L 128.603992 143.982545 
L 128.887781 131.764364 
L 129.17157 145.611636 
L 129.455359 143.982545 
L 129.739148 143.982545 
L 130.022937 149.684364 
L 130.306726 152.942545 
L 130.590515 161.902545 
L 130.874304 162.717091 
L 131.441882 152.942545 
L 132.293249 121.175273 
L 132.577038 121.989818 
L 132.860826 116.288 
L 133.428404 126.062545 
L 133.712193 122.804364 
L 133.995982 133.393455 
L 134.279771 134.208 
L 134.56356 135.837091 
L 134.847349 129.320727 
L 135.131138 129.320727 
L 135.414927 130.135273 
L 135.698716 134.208 
L 136.266294 148.869818 
L 136.550083 148.869818 
L 136.833872 158.644364 
L 137.117661 151.313455 
L 137.401449 148.055273 
L 137.685238 142.353455 
L 137.969027 142.353455 
L 138.252816 143.168 
L 138.536605 136.651636 
L 138.820394 138.280727 
L 139.104183 147.240727 
L 139.387972 142.353455 
L 139.671761 148.055273 
L 140.239339 138.280727 
L 140.523128 138.280727 
L 140.806917 135.022545 
L 141.658284 153.757091 
L 142.225861 139.095273 
L 142.50965 140.724364 
L 142.793439 143.168 
L 143.077228 136.651636 
L 143.361017 146.426182 
L 143.644806 144.797091 
L 143.928595 138.280727 
L 144.212384 128.506182 
L 144.496173 128.506182 
L 144.779962 123.618909 
L 145.063751 128.506182 
L 145.631329 133.393455 
L 145.915118 131.764364 
L 146.198907 137.466182 
L 146.482695 135.837091 
L 146.766484 139.909818 
L 147.050273 142.353455 
L 147.334062 154.571636 
L 147.617851 138.280727 
L 147.90164 135.837091 
L 148.185429 135.837091 
L 148.469218 127.691636 
L 148.753007 116.288 
L 149.036796 115.473455 
L 149.320585 111.400727 
L 149.604374 115.473455 
L 149.888163 130.135273 
L 150.171952 126.877091 
L 150.455741 110.586182 
L 150.73953 112.215273 
L 151.023318 112.215273 
L 151.307107 121.175273 
L 151.590896 119.546182 
L 151.874685 112.215273 
L 152.158474 120.360727 
L 152.442263 120.360727 
L 152.726052 119.546182 
L 153.29363 132.578909 
L 153.577419 133.393455 
L 153.861208 132.578909 
L 154.428786 127.691636 
L 154.712575 136.651636 
L 154.996364 139.095273 
L 155.280153 147.240727 
L 155.563942 143.168 
L 155.84773 134.208 
L 156.131519 141.538909 
L 156.415308 139.909818 
L 156.699097 141.538909 
L 157.266675 135.837091 
L 157.550464 129.320727 
L 157.834253 126.062545 
L 158.118042 119.546182 
L 158.401831 117.102545 
L 158.68562 117.917091 
L 159.253198 126.877091 
L 159.536987 139.909818 
L 160.104565 145.611636 
L 160.388353 137.466182 
L 160.672142 139.095273 
L 160.955931 148.055273 
L 161.23972 141.538909 
L 161.523509 129.320727 
L 161.807298 132.578909 
L 162.091087 133.393455 
L 162.374876 138.280727 
L 162.658665 152.128 
L 162.942454 149.684364 
L 163.226243 150.498909 
L 163.510032 148.055273 
L 163.793821 148.869818 
L 164.07761 141.538909 
L 164.361399 140.724364 
L 164.645188 143.168 
L 164.928976 143.982545 
L 165.212765 153.757091 
L 165.496554 152.942545 
L 165.780343 155.386182 
L 166.064132 160.273455 
L 166.347921 161.902545 
L 166.63171 164.346182 
L 167.199288 152.128 
L 167.766866 163.531636 
L 168.050655 172.491636 
L 168.334444 174.120727 
L 168.618233 174.120727 
L 168.902022 182.266182 
L 169.185811 180.637091 
L 169.753388 167.604364 
L 170.037177 172.491636 
L 170.320966 170.862545 
L 170.888544 162.717091 
L 171.172333 167.604364 
L 171.456122 169.233455 
L 172.0237 161.902545 
L 172.307489 161.902545 
L 172.591278 168.418909 
L 172.875067 165.160727 
L 173.158856 168.418909 
L 173.442645 174.120727 
L 174.010223 165.160727 
L 174.294011 165.160727 
L 174.5778 169.233455 
L 174.861589 169.233455 
L 175.145378 177.378909 
L 175.429167 176.564364 
L 175.712956 177.378909 
L 176.280534 157.829818 
L 176.564323 162.717091 
L 176.848112 154.571636 
L 177.131901 157.829818 
L 177.41569 155.386182 
L 177.699479 161.088 
L 178.550846 147.240727 
L 178.834634 146.426182 
L 179.118423 150.498909 
L 179.402212 146.426182 
L 179.686001 152.128 
L 179.96979 135.837091 
L 180.253579 143.982545 
L 180.537368 143.168 
L 180.821157 145.611636 
L 181.104946 144.797091 
L 181.388735 150.498909 
L 181.672524 151.313455 
L 182.523891 143.168 
L 182.80768 145.611636 
L 183.091469 154.571636 
L 183.375257 156.200727 
L 183.659046 152.942545 
L 183.942835 157.829818 
L 184.226624 152.128 
L 184.510413 148.869818 
L 184.794202 134.208 
L 185.077991 149.684364 
L 185.36178 152.128 
L 185.645569 151.313455 
L 185.929358 148.055273 
L 186.213147 161.088 
L 186.496936 155.386182 
L 186.780725 152.942545 
L 187.064514 158.644364 
L 187.348303 173.306182 
L 187.632092 161.088 
L 187.91588 163.531636 
L 188.199669 161.902545 
L 188.483458 173.306182 
L 188.767247 179.008 
L 189.051036 167.604364 
L 189.334825 165.160727 
L 189.618614 170.048 
L 189.902403 161.088 
L 190.186192 168.418909 
L 190.469981 170.862545 
L 190.75377 164.346182 
L 191.037559 170.862545 
L 191.321348 151.313455 
L 191.605137 141.538909 
L 191.888926 146.426182 
L 192.172715 146.426182 
L 192.456503 163.531636 
L 192.740292 164.346182 
L 193.024081 150.498909 
L 193.30787 154.571636 
L 193.875448 150.498909 
L 194.159237 149.684364 
L 194.726815 154.571636 
L 195.010604 153.757091 
L 195.294393 154.571636 
L 195.578182 165.160727 
L 195.861971 157.829818 
L 196.14576 159.458909 
L 196.429549 166.789818 
L 196.997127 170.862545 
L 197.280915 176.564364 
L 197.564704 168.418909 
L 197.848493 173.306182 
L 198.132282 169.233455 
L 198.416071 186.338909 
L 198.69986 184.709818 
L 199.267438 176.564364 
L 199.551227 174.935273 
L 199.835016 174.120727 
L 200.118805 164.346182 
L 200.402594 173.306182 
L 200.686383 173.306182 
L 201.253961 165.975273 
L 201.53775 163.531636 
L 201.821538 165.975273 
L 202.105327 164.346182 
L 202.389116 165.160727 
L 202.672905 170.862545 
L 202.956694 161.088 
L 203.240483 160.273455 
L 203.524272 153.757091 
L 203.808061 151.313455 
L 204.09185 152.128 
L 204.375639 150.498909 
L 204.659428 159.458909 
L 205.227006 167.604364 
L 205.510795 169.233455 
L 205.794584 169.233455 
L 206.078373 165.975273 
L 206.362161 157.829818 
L 206.929739 171.677091 
L 207.213528 166.789818 
L 207.497317 165.975273 
L 208.064895 170.862545 
L 208.348684 180.637091 
L 209.200051 178.193455 
L 209.48384 179.008 
L 209.767629 180.637091 
L 210.051418 169.233455 
L 210.335207 180.637091 
L 210.618996 179.008 
L 210.902784 179.822545 
L 211.186573 170.862545 
L 211.470362 174.120727 
L 212.03794 188.782545 
L 212.321729 183.080727 
L 212.605518 182.266182 
L 212.889307 180.637091 
L 213.173096 182.266182 
L 213.456885 187.968 
L 213.740674 184.709818 
L 214.024463 189.597091 
L 214.308252 184.709818 
L 214.592041 183.080727 
L 214.87583 183.895273 
L 215.159619 179.822545 
L 215.443408 183.080727 
L 216.010985 170.048 
L 216.294774 167.604364 
L 216.862352 150.498909 
L 217.146141 154.571636 
L 217.42993 160.273455 
L 217.713719 163.531636 
L 218.281297 144.797091 
L 218.565086 152.128 
L 218.848875 146.426182 
L 219.132664 145.611636 
L 219.416453 143.982545 
L 219.700242 143.982545 
L 219.984031 142.353455 
L 220.267819 143.168 
L 220.551608 147.240727 
L 220.835397 141.538909 
L 221.119186 144.797091 
L 221.402975 131.764364 
L 221.970553 135.022545 
L 222.254342 139.095273 
L 223.105709 146.426182 
L 223.389498 139.095273 
L 223.673287 150.498909 
L 223.957076 150.498909 
L 224.524654 136.651636 
L 224.808442 124.433455 
L 225.092231 119.546182 
L 225.37602 108.142545 
L 225.659809 105.698909 
L 225.943598 115.473455 
L 226.227387 102.440727 
L 226.794965 114.658909 
L 227.078754 107.328 
L 227.362543 111.400727 
L 227.930121 124.433455 
L 228.21391 135.022545 
L 228.497699 135.022545 
L 228.781488 134.208 
L 229.065277 130.135273 
L 229.632854 138.280727 
L 229.916643 131.764364 
L 230.200432 129.320727 
L 230.484221 116.288 
L 230.76801 119.546182 
L 231.051799 137.466182 
L 231.619377 155.386182 
L 231.903166 154.571636 
L 232.186955 155.386182 
L 232.470744 159.458909 
L 233.038322 149.684364 
L 233.322111 149.684364 
L 233.6059 147.240727 
L 233.889688 143.168 
L 234.173477 146.426182 
L 234.457266 144.797091 
L 234.741055 143.982545 
L 235.592422 130.949818 
L 235.876211 131.764364 
L 236.443789 123.618909 
L 236.727578 124.433455 
L 237.011367 121.989818 
L 237.295156 122.804364 
L 237.578945 116.288 
L 237.862734 115.473455 
L 238.146523 104.884364 
L 238.430312 84.520727 
L 238.7141 88.593455 
L 238.997889 98.368 
L 239.281678 100.811636 
L 239.565467 113.029818 
L 239.849256 111.400727 
L 240.133045 118.731636 
L 240.416834 113.029818 
L 240.700623 113.844364 
L 240.984412 110.586182 
L 241.268201 116.288 
L 241.55199 117.917091 
L 241.835779 120.360727 
L 242.119568 116.288 
L 242.403357 126.062545 
L 242.687146 126.062545 
L 242.970935 121.175273 
L 243.254723 113.844364 
L 243.538512 114.658909 
L 243.822301 119.546182 
L 244.10609 121.989818 
L 244.389879 115.473455 
L 244.673668 113.029818 
L 244.957457 121.175273 
L 245.241246 124.433455 
L 245.525035 130.949818 
L 245.808824 128.506182 
L 246.376402 140.724364 
L 246.660191 138.280727 
L 246.94398 138.280727 
L 247.227769 141.538909 
L 247.511558 131.764364 
L 247.795346 126.877091 
L 248.079135 135.837091 
L 248.362924 149.684364 
L 248.930502 154.571636 
L 249.214291 152.942545 
L 249.49808 156.200727 
L 249.781869 156.200727 
L 250.065658 149.684364 
L 250.349447 151.313455 
L 250.917025 140.724364 
L 251.200814 142.353455 
L 251.484603 152.128 
L 251.768392 147.240727 
L 252.052181 146.426182 
L 252.619758 133.393455 
L 252.903547 145.611636 
L 253.187336 143.982545 
L 253.754914 162.717091 
L 254.322492 157.015273 
L 254.606281 158.644364 
L 254.89007 152.128 
L 255.173859 160.273455 
L 255.457648 155.386182 
L 255.741437 165.160727 
L 256.025226 165.160727 
L 256.309015 168.418909 
L 256.592804 161.088 
L 256.876592 149.684364 
L 257.160381 144.797091 
L 257.44417 158.644364 
L 258.011748 158.644364 
L 258.295537 149.684364 
L 258.863115 155.386182 
L 259.146904 160.273455 
L 259.430693 161.088 
L 259.714482 159.458909 
L 260.565849 174.935273 
L 261.133427 162.717091 
L 261.417216 153.757091 
L 261.701004 155.386182 
L 261.984793 156.200727 
L 262.268582 160.273455 
L 262.552371 158.644364 
L 262.83616 162.717091 
L 263.119949 172.491636 
L 263.403738 175.749818 
L 263.971316 161.088 
L 264.255105 160.273455 
L 264.538894 143.168 
L 265.390261 164.346182 
L 265.67405 164.346182 
L 265.957839 170.862545 
L 266.241627 169.233455 
L 266.809205 165.160727 
L 267.092994 167.604364 
L 267.376783 157.015273 
L 267.660572 159.458909 
L 267.944361 167.604364 
L 268.22815 157.829818 
L 268.511939 164.346182 
L 268.795728 161.902545 
L 269.079517 174.120727 
L 269.363306 198.557091 
L 270.214673 177.378909 
L 270.498462 179.822545 
L 270.78225 173.306182 
L 271.066039 173.306182 
L 271.349828 172.491636 
L 271.633617 173.306182 
L 271.917406 169.233455 
L 272.201195 157.829818 
L 272.484984 165.975273 
L 272.768773 166.789818 
L 273.052562 164.346182 
L 273.336351 164.346182 
L 273.62014 170.862545 
L 273.903929 170.048 
L 274.187718 158.644364 
L 274.471507 176.564364 
L 274.755296 172.491636 
L 275.039085 179.822545 
L 275.606662 178.193455 
L 275.890451 178.193455 
L 276.17424 180.637091 
L 276.458029 186.338909 
L 276.741818 195.298909 
L 277.025607 197.742545 
L 277.309396 196.928 
L 277.593185 195.298909 
L 277.876974 184.709818 
L 278.160763 194.484364 
L 278.444552 188.782545 
L 278.728341 191.226182 
L 279.01213 187.968 
L 279.579708 177.378909 
L 279.863497 183.895273 
L 280.147285 178.193455 
L 280.431074 183.895273 
L 280.714863 183.080727 
L 281.282441 163.531636 
L 282.133808 147.240727 
L 282.417597 157.015273 
L 282.701386 160.273455 
L 282.985175 160.273455 
L 283.268964 157.015273 
L 283.552753 155.386182 
L 283.836542 158.644364 
L 284.120331 157.829818 
L 284.40412 159.458909 
L 284.971697 170.862545 
L 285.255486 173.306182 
L 285.539275 169.233455 
L 285.823064 174.935273 
L 286.390642 180.637091 
L 286.674431 179.008 
L 286.95822 180.637091 
L 287.242009 181.451636 
L 287.809587 170.048 
L 288.093376 170.862545 
L 288.377165 173.306182 
L 288.660954 166.789818 
L 288.944743 156.200727 
L 289.228531 152.128 
L 289.51232 152.128 
L 289.796109 152.942545 
L 290.079898 149.684364 
L 290.363687 144.797091 
L 290.647476 145.611636 
L 290.931265 149.684364 
L 291.215054 157.829818 
L 291.498843 152.942545 
L 291.782632 154.571636 
L 292.066421 153.757091 
L 292.35021 147.240727 
L 292.633999 147.240727 
L 293.201577 157.829818 
L 293.485366 154.571636 
L 293.769154 158.644364 
L 294.336732 150.498909 
L 294.620521 152.128 
L 294.90431 152.942545 
L 295.188099 146.426182 
L 295.471888 150.498909 
L 295.755677 152.942545 
L 296.039466 164.346182 
L 296.323255 165.975273 
L 296.607044 164.346182 
L 296.890833 172.491636 
L 297.174622 174.120727 
L 297.458411 174.120727 
L 298.025989 189.597091 
L 298.877355 165.160727 
L 299.161144 165.160727 
L 299.444933 166.789818 
L 299.728722 160.273455 
L 300.012511 160.273455 
L 300.2963 166.789818 
L 300.580089 170.048 
L 300.863878 165.975273 
L 301.147667 155.386182 
L 301.431456 158.644364 
L 301.715245 154.571636 
L 301.999034 158.644364 
L 302.282823 160.273455 
L 302.566612 155.386182 
L 302.850401 155.386182 
L 303.985556 172.491636 
L 304.269345 172.491636 
L 304.553134 181.451636 
L 304.836923 180.637091 
L 305.404501 190.411636 
L 305.68829 191.226182 
L 305.972079 187.968 
L 306.255868 191.226182 
L 306.539657 201.000727 
L 306.823446 201.000727 
L 307.107235 206.702545 
L 307.391024 208.331636 
L 307.674812 214.848 
L 307.958601 209.960727 
L 308.24239 217.291636 
L 308.526179 213.218909 
L 308.809968 214.033455 
L 309.377546 212.404364 
L 309.661335 218.920727 
L 309.945124 210.775273 
L 310.228913 210.775273 
L 310.512702 216.477091 
L 310.796491 210.775273 
L 311.08028 209.960727 
L 311.364069 213.218909 
L 311.647858 214.848 
L 311.931647 214.848 
L 312.499224 225.437091 
L 312.783013 221.364364 
L 313.066802 213.218909 
L 313.350591 216.477091 
L 313.63438 206.702545 
L 313.918169 204.258909 
L 314.201958 198.557091 
L 314.485747 198.557091 
L 314.769536 202.629818 
L 315.053325 192.855273 
L 315.337114 201.000727 
L 315.620903 191.226182 
L 315.904692 191.226182 
L 316.188481 201.000727 
L 316.47227 195.298909 
L 316.756058 195.298909 
L 317.323636 192.040727 
L 317.891214 199.371636 
L 318.175003 198.557091 
L 318.458792 194.484364 
L 318.742581 192.855273 
L 319.02637 207.517091 
L 319.310159 192.040727 
L 319.877737 183.080727 
L 320.445315 188.782545 
L 321.012893 196.928 
L 321.296682 202.629818 
L 321.58047 197.742545 
L 321.864259 196.113455 
L 322.148048 196.113455 
L 322.431837 202.629818 
L 322.715626 202.629818 
L 322.999415 201.815273 
L 323.283204 193.669818 
L 323.850782 192.040727 
L 324.134571 202.629818 
L 324.41836 196.928 
L 324.702149 196.113455 
L 324.985938 178.193455 
L 325.269727 176.564364 
L 325.553516 167.604364 
L 325.837305 170.048 
L 326.121093 170.048 
L 326.404882 166.789818 
L 326.688671 161.088 
L 326.97246 159.458909 
L 327.256249 164.346182 
L 327.540038 176.564364 
L 328.107616 169.233455 
L 328.391405 162.717091 
L 328.675194 171.677091 
L 329.242772 152.128 
L 329.81035 165.975273 
L 330.094139 162.717091 
L 330.377928 171.677091 
L 330.945505 165.975273 
L 331.229294 165.975273 
L 331.513083 162.717091 
L 331.796872 162.717091 
L 332.080661 157.829818 
L 332.36445 157.015273 
L 333.215817 182.266182 
L 333.499606 180.637091 
L 333.783395 185.524364 
L 334.067184 179.008 
L 334.350973 186.338909 
L 334.634762 173.306182 
L 334.918551 176.564364 
L 335.202339 173.306182 
L 335.486128 176.564364 
L 335.769917 176.564364 
L 336.053706 181.451636 
L 336.337495 183.080727 
L 336.621284 182.266182 
L 336.905073 179.822545 
L 337.188862 174.935273 
L 337.472651 161.902545 
L 337.75644 157.015273 
L 338.040229 154.571636 
L 338.324018 148.869818 
L 338.607807 154.571636 
L 338.891596 150.498909 
L 339.175385 148.055273 
L 339.459174 143.982545 
L 339.742962 143.982545 
L 340.026751 147.240727 
L 340.31054 144.797091 
L 340.594329 140.724364 
L 340.878118 147.240727 
L 341.161907 146.426182 
L 341.445696 140.724364 
L 341.729485 147.240727 
L 342.013274 141.538909 
L 342.297063 144.797091 
L 342.580852 150.498909 
L 342.864641 144.797091 
L 343.14843 145.611636 
L 343.432219 134.208 
L 343.716008 135.022545 
L 344.283586 143.982545 
L 344.567374 152.128 
L 344.851163 156.200727 
L 345.134952 157.015273 
L 345.418741 154.571636 
L 345.70253 157.015273 
L 346.553897 176.564364 
L 346.837686 176.564364 
L 347.121475 166.789818 
L 347.405264 169.233455 
L 347.689053 177.378909 
L 347.972842 175.749818 
L 348.256631 182.266182 
L 348.54042 185.524364 
L 348.824209 190.411636 
L 349.107997 187.968 
L 349.391786 189.597091 
L 349.675575 187.153455 
L 349.959364 170.862545 
L 350.243153 173.306182 
L 350.526942 183.895273 
L 350.810731 199.371636 
L 351.09452 193.669818 
L 351.378309 194.484364 
L 351.662098 191.226182 
L 351.945887 183.895273 
L 352.229676 181.451636 
L 352.513465 191.226182 
L 352.797254 190.411636 
L 353.364832 190.411636 
L 353.64862 183.895273 
L 353.932409 186.338909 
L 354.216198 185.524364 
L 354.499987 181.451636 
L 355.067565 190.411636 
L 355.351354 199.371636 
L 355.635143 200.186182 
L 355.918932 211.589818 
L 356.202721 209.960727 
L 356.48651 209.960727 
L 356.770299 217.291636 
L 357.054088 218.920727 
L 357.337877 219.735273 
L 357.621666 214.033455 
L 358.189243 219.735273 
L 358.473032 218.106182 
L 358.756821 224.622545 
L 359.04061 220.549818 
L 359.324399 222.178909 
L 359.608188 222.178909 
L 359.891977 221.364364 
L 360.175766 225.437091 
L 360.459555 233.582545 
L 360.743344 234.397091 
L 361.027133 218.106182 
L 361.310922 220.549818 
L 361.594711 219.735273 
L 361.8785 220.549818 
L 362.162289 222.178909 
L 362.446078 211.589818 
L 362.729866 222.993455 
L 363.013655 212.404364 
L 363.297444 222.178909 
L 363.581233 215.662545 
L 363.865022 214.848 
L 364.148811 212.404364 
L 364.4326 211.589818 
L 364.716389 214.033455 
L 365.000178 211.589818 
L 365.283967 221.364364 
L 365.851545 205.888 
L 366.135334 195.298909 
L 366.419123 199.371636 
L 366.702912 199.371636 
L 366.986701 188.782545 
L 367.27049 192.855273 
L 367.554278 192.040727 
L 367.838067 187.153455 
L 368.121856 187.968 
L 368.689434 209.146182 
L 368.973223 213.218909 
L 369.257012 213.218909 
L 369.540801 209.146182 
L 369.82459 216.477091 
L 370.392168 209.146182 
L 370.675957 217.291636 
L 370.959746 222.178909 
L 371.243535 215.662545 
L 371.527324 214.033455 
L 371.811113 209.146182 
L 372.094901 222.993455 
L 372.37869 220.549818 
L 372.946268 227.066182 
L 373.230057 222.993455 
L 373.513846 225.437091 
L 373.797635 222.178909 
L 374.081424 223.808 
L 374.365213 218.106182 
L 374.649002 218.106182 
L 374.932791 217.291636 
L 375.21658 217.291636 
L 375.784158 221.364364 
L 376.067947 221.364364 
L 376.351736 231.953455 
L 377.203102 239.284364 
L 377.486891 239.284364 
L 377.77068 236.026182 
L 378.338258 227.880727 
L 378.622047 224.622545 
L 378.905836 224.622545 
L 379.189625 243.357091 
L 379.757203 237.655273 
L 380.040992 237.655273 
L 380.60857 241.728 
L 380.892359 243.357091 
L 381.176147 241.728 
L 381.459936 237.655273 
L 382.027514 224.622545 
L 382.311303 221.364364 
L 382.595092 220.549818 
L 382.878881 210.775273 
L 383.16267 215.662545 
L 383.730248 212.404364 
L 384.014037 208.331636 
L 384.297826 209.960727 
L 384.581615 209.960727 
L 384.865404 214.848 
L 385.149193 213.218909 
L 385.432982 206.702545 
L 385.716771 220.549818 
L 386.000559 217.291636 
L 386.284348 223.808 
L 386.568137 226.251636 
L 386.851926 222.993455 
L 387.135715 224.622545 
L 387.419504 219.735273 
L 387.703293 231.953455 
L 387.987082 231.953455 
L 388.270871 235.211636 
L 388.838449 224.622545 
L 389.122238 223.808 
L 389.406027 221.364364 
L 389.689816 223.808 
L 389.973605 227.880727 
L 390.257394 239.284364 
L 390.541182 244.986182 
L 390.824971 240.098909 
L 391.10876 238.469818 
L 391.676338 240.098909 
L 391.960127 247.429818 
L 392.527705 234.397091 
L 392.811494 239.284364 
L 393.095283 240.913455 
L 393.662861 251.502545 
L 393.94665 248.244364 
L 394.230439 246.615273 
L 394.514228 253.946182 
L 394.798017 256.389818 
L 395.081805 254.760727 
L 395.365594 265.349818 
L 395.649383 264.535273 
L 395.933172 269.422545 
L 396.216961 262.906182 
L 396.784539 275.124364 
L 397.068328 271.051636 
L 397.635906 295.488 
L 397.919695 294.673455 
L 398.203484 281.640727 
L 398.487273 280.826182 
L 398.487273 280.826182 
" clip-path="url(#pdd61b6b440)" style="fill: none; stroke: #1f77b4; stroke-width: 1.5; stroke-linecap: square"/>
   </g>
   <g id="patch_3">
    <path d="M 57.6 307.584 
L 57.6 41.472 
" style="fill: none; stroke: #000000; stroke-width: 0.8; stroke-linejoin: miter; stroke-linecap: square"/>
   </g>
   <g id="patch_4">
    <path d="M 414.72 307.584 
L 414.72 41.472 
" style="fill: none; stroke: #000000; stroke-width: 0.8; stroke-linejoin: miter; stroke-linecap: square"/>
   </g>
   <g id="patch_5">
    <path d="M 57.6 307.584 
L 414.72 307.584 
" style="fill: none; stroke: #000000; stroke-width: 0.8; stroke-linejoin: miter; stroke-linecap: square"/>
   </g>
   <g id="patch_6">
    <path d="M 57.6 41.472 
L 414.72 41.472 
" style="fill: none; stroke: #000000; stroke-width: 0.8; stroke-linejoin: miter; stroke-linecap: square"/>
   </g>
   <g id="text_15">
    <!-- Simulated Anealling Cost -->
    <g transform="translate(160.8 35.472)scale(0.12 -0.12)">
     <defs>
      <path id="DejaVuSans-53" d="M 3425 4513 
L 3425 3897 
Q 3066 4069 2747 4153 
Q 2428 4238 2131 4238 
Q 1616 4238 1336 4038 
Q 1056 3838 1056 3469 
Q 1056 3159 1242 3001 
Q 1428 2844 1947 2747 
L 2328 2669 
Q 3034 2534 3370 2195 
Q 3706 1856 3706 1288 
Q 3706 609 3251 259 
Q 2797 -91 1919 -91 
Q 1588 -91 1214 -16 
Q 841 59 441 206 
L 441 856 
Q 825 641 1194 531 
Q 1563 422 1919 422 
Q 2459 422 2753 634 
Q 3047 847 3047 1241 
Q 3047 1584 2836 1778 
Q 2625 1972 2144 2069 
L 1759 2144 
Q 1053 2284 737 2584 
Q 422 2884 422 3419 
Q 422 4038 858 4394 
Q 1294 4750 2059 4750 
Q 2388 4750 2728 4690 
Q 3069 4631 3425 4513 
z
" transform="scale(0.015625)"/>
      <path id="DejaVuSans-69" d="M 603 3500 
L 1178 3500 
L 1178 0 
L 603 0 
L 603 3500 
z
M 603 4863 
L 1178 4863 
L 1178 4134 
L 603 4134 
L 603 4863 
z
" transform="scale(0.015625)"/>
      <path id="DejaVuSans-65" d="M 3597 1894 
L 3597 1613 
L 953 1613 
Q 991 1019 1311 708 
Q 1631 397 2203 397 
Q 2534 397 2845 478 
Q 3156 559 3463 722 
L 3463 178 
Q 3153 47 2828 -22 
Q 2503 -91 2169 -91 
Q 1331 -91 842 396 
Q 353 884 353 1716 
Q 353 2575 817 3079 
Q 1281 3584 2069 3584 
Q 2775 3584 3186 3129 
Q 3597 2675 3597 1894 
z
M 3022 2063 
Q 3016 2534 2758 2815 
Q 2500 3097 2075 3097 
Q 1594 3097 1305 2825 
Q 1016 2553 972 2059 
L 3022 2063 
z
" transform="scale(0.015625)"/>
      <path id="DejaVuSans-64" d="M 2906 2969 
L 2906 4863 
L 3481 4863 
L 3481 0 
L 2906 0 
L 2906 525 
Q 2725 213 2448 61 
Q 2172 -91 1784 -91 
Q 1150 -91 751 415 
Q 353 922 353 1747 
Q 353 2572 751 3078 
Q 1150 3584 1784 3584 
Q 2172 3584 2448 3432 
Q 2725 3281 2906 2969 
z
M 947 1747 
Q 947 1113 1208 752 
Q 1469 391 1925 391 
Q 2381 391 2643 752 
Q 2906 1113 2906 1747 
Q 2906 2381 2643 2742 
Q 2381 3103 1925 3103 
Q 1469 3103 1208 2742 
Q 947 2381 947 1747 
z
" transform="scale(0.015625)"/>
      <path id="DejaVuSans-41" d="M 2188 4044 
L 1331 1722 
L 3047 1722 
L 2188 4044 
z
M 1831 4666 
L 2547 4666 
L 4325 0 
L 3669 0 
L 3244 1197 
L 1141 1197 
L 716 0 
L 50 0 
L 1831 4666 
z
" transform="scale(0.015625)"/>
      <path id="DejaVuSans-67" d="M 2906 1791 
Q 2906 2416 2648 2759 
Q 2391 3103 1925 3103 
Q 1463 3103 1205 2759 
Q 947 2416 947 1791 
Q 947 1169 1205 825 
Q 1463 481 1925 481 
Q 2391 481 2648 825 
Q 2906 1169 2906 1791 
z
M 3481 434 
Q 3481 -459 3084 -895 
Q 2688 -1331 1869 -1331 
Q 1566 -1331 1297 -1286 
Q 1028 -1241 775 -1147 
L 775 -588 
Q 1028 -725 1275 -790 
Q 1522 -856 1778 -856 
Q 2344 -856 2625 -561 
Q 2906 -266 2906 331 
L 2906 616 
Q 2728 306 2450 153 
Q 2172 0 1784 0 
Q 1141 0 747 490 
Q 353 981 353 1791 
Q 353 2603 747 3093 
Q 1141 3584 1784 3584 
Q 2172 3584 2450 3431 
Q 2728 3278 2906 2969 
L 2906 3500 
L 3481 3500 
L 3481 434 
z
" transform="scale(0.015625)"/>
      <path id="DejaVuSans-43" d="M 4122 4306 
L 4122 3641 
Q 3803 3938 3442 4084 
Q 3081 4231 2675 4231 
Q 1875 4231 1450 3742 
Q 1025 3253 1025 2328 
Q 1025 1406 1450 917 
Q 1875 428 2675 428 
Q 3081 428 3442 575 
Q 3803 722 4122 1019 
L 4122 359 
Q 3791 134 3420 21 
Q 3050 -91 2638 -91 
Q 1578 -91 968 557 
Q 359 1206 359 2328 
Q 359 3453 968 4101 
Q 1578 4750 2638 4750 
Q 3056 4750 3426 4639 
Q 3797 4528 4122 4306 
z
" transform="scale(0.015625)"/>
     </defs>
     <use xlink:href="#DejaVuSans-53"/>
     <use xlink:href="#DejaVuSans-69" x="63.476562"/>
     <use xlink:href="#DejaVuSans-6d" x="91.259766"/>
     <use xlink:href="#DejaVuSans-75" x="188.671875"/>
     <use xlink:href="#DejaVuSans-6c" x="252.050781"/>
     <use xlink:href="#DejaVuSans-61" x="279.833984"/>
     <use xlink:href="#DejaVuSans-74" x="341.113281"/>
     <use xlink:href="#DejaVuSans-65" x="380.322266"/>
     <use xlink:href="#DejaVuSans-64" x="441.845703"/>
     <use xlink:href="#DejaVuSans-20" x="505.322266"/>
     <use xlink:href="#DejaVuSans-41" x="537.109375"/>
     <use xlink:href="#DejaVuSans-6e" x="605.517578"/>
     <use xlink:href="#DejaVuSans-65" x="668.896484"/>
     <use xlink:href="#DejaVuSans-61" x="730.419922"/>
     <use xlink:href="#DejaVuSans-6c" x="791.699219"/>
     <use xlink:href="#DejaVuSans-6c" x="819.482422"/>
     <use xlink:href="#DejaVuSans-69" x="847.265625"/>
     <use xlink:href="#DejaVuSans-6e" x="875.048828"/>
     <use xlink:href="#DejaVuSans-67" x="938.427734"/>
     <use xlink:href="#DejaVuSans-20" x="1001.904297"/>
     <use xlink:href="#DejaVuSans-43" x="1033.691406"/>
     <use xlink:href="#DejaVuSans-6f" x="1103.515625"/>
     <use xlink:href="#DejaVuSans-73" x="1164.697266"/>
     <use xlink:href="#DejaVuSans-74" x="1216.796875"/>
    </g>
   </g>
  </g>
 </g>
 <defs>
  <clipPath id="pdd61b6b440">
   <rect x="57.6" y="41.472" width="357.12" height="266.112"/>
  </clipPath>
 </defs>
</svg>
