<?xml version="1.0" encoding="utf-8" standalone="no"?>
<!DOCTYPE svg PUBLIC "-//W3C//DTD SVG 1.1//EN"
  "http://www.w3.org/Graphics/SVG/1.1/DTD/svg11.dtd">
<svg xmlns:xlink="http://www.w3.org/1999/xlink" width="460.8pt" height="345.6pt" viewBox="0 0 460.8 345.6" xmlns="http://www.w3.org/2000/svg" version="1.1">
 <metadata>
  <rdf:RDF xmlns:dc="http://purl.org/dc/elements/1.1/" xmlns:cc="http://creativecommons.org/ns#" xmlns:rdf="http://www.w3.org/1999/02/22-rdf-syntax-ns#">
   <cc:Work>
    <dc:type rdf:resource="http://purl.org/dc/dcmitype/StillImage"/>
    <dc:date>2022-06-01T08:03:42.273450</dc:date>
    <dc:format>image/svg+xml</dc:format>
    <dc:creator>
     <cc:Agent>
      <dc:title>Matplotlib v3.5.1, https://matplotlib.org/</dc:title>
     </cc:Agent>
    </dc:creator>
   </cc:Work>
  </rdf:RDF>
 </metadata>
 <defs>
  <style type="text/css">*{stroke-linejoin: round; stroke-linecap: butt}</style>
 </defs>
 <g id="figure_1">
  <g id="patch_1">
   <path d="M 0 345.6 
L 460.8 345.6 
L 460.8 0 
L 0 0 
z
" style="fill: #ffffff"/>
  </g>
  <g id="axes_1">
   <g id="patch_2">
    <path d="M 57.6 307.584 
L 414.72 307.584 
L 414.72 41.472 
L 57.6 41.472 
z
" style="fill: #ffffff"/>
   </g>
   <g id="matplotlib.axis_1">
    <g id="xtick_1">
     <g id="line2d_1">
      <defs>
       <path id="mfe4be83579" d="M 0 0 
L 0 3.5 
" style="stroke: #000000; stroke-width: 0.8"/>
      </defs>
      <g>
       <use xlink:href="#mfe4be83579" x="73.832727" y="307.584" style="stroke: #000000; stroke-width: 0.8"/>
      </g>
     </g>
     <g id="text_1">
      <!-- 0 -->
      <g transform="translate(70.651477 322.182437)scale(0.1 -0.1)">
       <defs>
        <path id="DejaVuSans-30" d="M 2034 4250 
Q 1547 4250 1301 3770 
Q 1056 3291 1056 2328 
Q 1056 1369 1301 889 
Q 1547 409 2034 409 
Q 2525 409 2770 889 
Q 3016 1369 3016 2328 
Q 3016 3291 2770 3770 
Q 2525 4250 2034 4250 
z
M 2034 4750 
Q 2819 4750 3233 4129 
Q 3647 3509 3647 2328 
Q 3647 1150 3233 529 
Q 2819 -91 2034 -91 
Q 1250 -91 836 529 
Q 422 1150 422 2328 
Q 422 3509 836 4129 
Q 1250 4750 2034 4750 
z
" transform="scale(0.015625)"/>
       </defs>
       <use xlink:href="#DejaVuSans-30"/>
      </g>
     </g>
    </g>
    <g id="xtick_2">
     <g id="line2d_2">
      <g>
       <use xlink:href="#mfe4be83579" x="149.333784" y="307.584" style="stroke: #000000; stroke-width: 0.8"/>
      </g>
     </g>
     <g id="text_2">
      <!-- 500 -->
      <g transform="translate(139.790034 322.182437)scale(0.1 -0.1)">
       <defs>
        <path id="DejaVuSans-35" d="M 691 4666 
L 3169 4666 
L 3169 4134 
L 1269 4134 
L 1269 2991 
Q 1406 3038 1543 3061 
Q 1681 3084 1819 3084 
Q 2600 3084 3056 2656 
Q 3513 2228 3513 1497 
Q 3513 744 3044 326 
Q 2575 -91 1722 -91 
Q 1428 -91 1123 -41 
Q 819 9 494 109 
L 494 744 
Q 775 591 1075 516 
Q 1375 441 1709 441 
Q 2250 441 2565 725 
Q 2881 1009 2881 1497 
Q 2881 1984 2565 2268 
Q 2250 2553 1709 2553 
Q 1456 2553 1204 2497 
Q 953 2441 691 2322 
L 691 4666 
z
" transform="scale(0.015625)"/>
       </defs>
       <use xlink:href="#DejaVuSans-35"/>
       <use xlink:href="#DejaVuSans-30" x="63.623047"/>
       <use xlink:href="#DejaVuSans-30" x="127.246094"/>
      </g>
     </g>
    </g>
    <g id="xtick_3">
     <g id="line2d_3">
      <g>
       <use xlink:href="#mfe4be83579" x="224.834841" y="307.584" style="stroke: #000000; stroke-width: 0.8"/>
      </g>
     </g>
     <g id="text_3">
      <!-- 1000 -->
      <g transform="translate(212.109841 322.182437)scale(0.1 -0.1)">
       <defs>
        <path id="DejaVuSans-31" d="M 794 531 
L 1825 531 
L 1825 4091 
L 703 3866 
L 703 4441 
L 1819 4666 
L 2450 4666 
L 2450 531 
L 3481 531 
L 3481 0 
L 794 0 
L 794 531 
z
" transform="scale(0.015625)"/>
       </defs>
       <use xlink:href="#DejaVuSans-31"/>
       <use xlink:href="#DejaVuSans-30" x="63.623047"/>
       <use xlink:href="#DejaVuSans-30" x="127.246094"/>
       <use xlink:href="#DejaVuSans-30" x="190.869141"/>
      </g>
     </g>
    </g>
    <g id="xtick_4">
     <g id="line2d_4">
      <g>
       <use xlink:href="#mfe4be83579" x="300.335899" y="307.584" style="stroke: #000000; stroke-width: 0.8"/>
      </g>
     </g>
     <g id="text_4">
      <!-- 1500 -->
      <g transform="translate(287.610899 322.182437)scale(0.1 -0.1)">
       <use xlink:href="#DejaVuSans-31"/>
       <use xlink:href="#DejaVuSans-35" x="63.623047"/>
       <use xlink:href="#DejaVuSans-30" x="127.246094"/>
       <use xlink:href="#DejaVuSans-30" x="190.869141"/>
      </g>
     </g>
    </g>
    <g id="xtick_5">
     <g id="line2d_5">
      <g>
       <use xlink:href="#mfe4be83579" x="375.836956" y="307.584" style="stroke: #000000; stroke-width: 0.8"/>
      </g>
     </g>
     <g id="text_5">
      <!-- 2000 -->
      <g transform="translate(363.111956 322.182437)scale(0.1 -0.1)">
       <defs>
        <path id="DejaVuSans-32" d="M 1228 531 
L 3431 531 
L 3431 0 
L 469 0 
L 469 531 
Q 828 903 1448 1529 
Q 2069 2156 2228 2338 
Q 2531 2678 2651 2914 
Q 2772 3150 2772 3378 
Q 2772 3750 2511 3984 
Q 2250 4219 1831 4219 
Q 1534 4219 1204 4116 
Q 875 4013 500 3803 
L 500 4441 
Q 881 4594 1212 4672 
Q 1544 4750 1819 4750 
Q 2544 4750 2975 4387 
Q 3406 4025 3406 3419 
Q 3406 3131 3298 2873 
Q 3191 2616 2906 2266 
Q 2828 2175 2409 1742 
Q 1991 1309 1228 531 
z
" transform="scale(0.015625)"/>
       </defs>
       <use xlink:href="#DejaVuSans-32"/>
       <use xlink:href="#DejaVuSans-30" x="63.623047"/>
       <use xlink:href="#DejaVuSans-30" x="127.246094"/>
       <use xlink:href="#DejaVuSans-30" x="190.869141"/>
      </g>
     </g>
    </g>
    <g id="text_6">
     <!-- num swaps -->
     <g transform="translate(207.826406 335.860562)scale(0.1 -0.1)">
      <defs>
       <path id="DejaVuSans-6e" d="M 3513 2113 
L 3513 0 
L 2938 0 
L 2938 2094 
Q 2938 2591 2744 2837 
Q 2550 3084 2163 3084 
Q 1697 3084 1428 2787 
Q 1159 2491 1159 1978 
L 1159 0 
L 581 0 
L 581 3500 
L 1159 3500 
L 1159 2956 
Q 1366 3272 1645 3428 
Q 1925 3584 2291 3584 
Q 2894 3584 3203 3211 
Q 3513 2838 3513 2113 
z
" transform="scale(0.015625)"/>
       <path id="DejaVuSans-75" d="M 544 1381 
L 544 3500 
L 1119 3500 
L 1119 1403 
Q 1119 906 1312 657 
Q 1506 409 1894 409 
Q 2359 409 2629 706 
Q 2900 1003 2900 1516 
L 2900 3500 
L 3475 3500 
L 3475 0 
L 2900 0 
L 2900 538 
Q 2691 219 2414 64 
Q 2138 -91 1772 -91 
Q 1169 -91 856 284 
Q 544 659 544 1381 
z
M 1991 3584 
L 1991 3584 
z
" transform="scale(0.015625)"/>
       <path id="DejaVuSans-6d" d="M 3328 2828 
Q 3544 3216 3844 3400 
Q 4144 3584 4550 3584 
Q 5097 3584 5394 3201 
Q 5691 2819 5691 2113 
L 5691 0 
L 5113 0 
L 5113 2094 
Q 5113 2597 4934 2840 
Q 4756 3084 4391 3084 
Q 3944 3084 3684 2787 
Q 3425 2491 3425 1978 
L 3425 0 
L 2847 0 
L 2847 2094 
Q 2847 2600 2669 2842 
Q 2491 3084 2119 3084 
Q 1678 3084 1418 2786 
Q 1159 2488 1159 1978 
L 1159 0 
L 581 0 
L 581 3500 
L 1159 3500 
L 1159 2956 
Q 1356 3278 1631 3431 
Q 1906 3584 2284 3584 
Q 2666 3584 2933 3390 
Q 3200 3197 3328 2828 
z
" transform="scale(0.015625)"/>
       <path id="DejaVuSans-20" transform="scale(0.015625)"/>
       <path id="DejaVuSans-73" d="M 2834 3397 
L 2834 2853 
Q 2591 2978 2328 3040 
Q 2066 3103 1784 3103 
Q 1356 3103 1142 2972 
Q 928 2841 928 2578 
Q 928 2378 1081 2264 
Q 1234 2150 1697 2047 
L 1894 2003 
Q 2506 1872 2764 1633 
Q 3022 1394 3022 966 
Q 3022 478 2636 193 
Q 2250 -91 1575 -91 
Q 1294 -91 989 -36 
Q 684 19 347 128 
L 347 722 
Q 666 556 975 473 
Q 1284 391 1588 391 
Q 1994 391 2212 530 
Q 2431 669 2431 922 
Q 2431 1156 2273 1281 
Q 2116 1406 1581 1522 
L 1381 1569 
Q 847 1681 609 1914 
Q 372 2147 372 2553 
Q 372 3047 722 3315 
Q 1072 3584 1716 3584 
Q 2034 3584 2315 3537 
Q 2597 3491 2834 3397 
z
" transform="scale(0.015625)"/>
       <path id="DejaVuSans-77" d="M 269 3500 
L 844 3500 
L 1563 769 
L 2278 3500 
L 2956 3500 
L 3675 769 
L 4391 3500 
L 4966 3500 
L 4050 0 
L 3372 0 
L 2619 2869 
L 1863 0 
L 1184 0 
L 269 3500 
z
" transform="scale(0.015625)"/>
       <path id="DejaVuSans-61" d="M 2194 1759 
Q 1497 1759 1228 1600 
Q 959 1441 959 1056 
Q 959 750 1161 570 
Q 1363 391 1709 391 
Q 2188 391 2477 730 
Q 2766 1069 2766 1631 
L 2766 1759 
L 2194 1759 
z
M 3341 1997 
L 3341 0 
L 2766 0 
L 2766 531 
Q 2569 213 2275 61 
Q 1981 -91 1556 -91 
Q 1019 -91 701 211 
Q 384 513 384 1019 
Q 384 1609 779 1909 
Q 1175 2209 1959 2209 
L 2766 2209 
L 2766 2266 
Q 2766 2663 2505 2880 
Q 2244 3097 1772 3097 
Q 1472 3097 1187 3025 
Q 903 2953 641 2809 
L 641 3341 
Q 956 3463 1253 3523 
Q 1550 3584 1831 3584 
Q 2591 3584 2966 3190 
Q 3341 2797 3341 1997 
z
" transform="scale(0.015625)"/>
       <path id="DejaVuSans-70" d="M 1159 525 
L 1159 -1331 
L 581 -1331 
L 581 3500 
L 1159 3500 
L 1159 2969 
Q 1341 3281 1617 3432 
Q 1894 3584 2278 3584 
Q 2916 3584 3314 3078 
Q 3713 2572 3713 1747 
Q 3713 922 3314 415 
Q 2916 -91 2278 -91 
Q 1894 -91 1617 61 
Q 1341 213 1159 525 
z
M 3116 1747 
Q 3116 2381 2855 2742 
Q 2594 3103 2138 3103 
Q 1681 3103 1420 2742 
Q 1159 2381 1159 1747 
Q 1159 1113 1420 752 
Q 1681 391 2138 391 
Q 2594 391 2855 752 
Q 3116 1113 3116 1747 
z
" transform="scale(0.015625)"/>
      </defs>
      <use xlink:href="#DejaVuSans-6e"/>
      <use xlink:href="#DejaVuSans-75" x="63.378906"/>
      <use xlink:href="#DejaVuSans-6d" x="126.757812"/>
      <use xlink:href="#DejaVuSans-20" x="224.169922"/>
      <use xlink:href="#DejaVuSans-73" x="255.957031"/>
      <use xlink:href="#DejaVuSans-77" x="308.056641"/>
      <use xlink:href="#DejaVuSans-61" x="389.84375"/>
      <use xlink:href="#DejaVuSans-70" x="451.123047"/>
      <use xlink:href="#DejaVuSans-73" x="514.599609"/>
     </g>
    </g>
   </g>
   <g id="matplotlib.axis_2">
    <g id="ytick_1">
     <g id="line2d_6">
      <defs>
       <path id="mbdebb35a81" d="M 0 0 
L -3.5 0 
" style="stroke: #000000; stroke-width: 0.8"/>
      </defs>
      <g>
       <use xlink:href="#mbdebb35a81" x="57.6" y="264.948594" style="stroke: #000000; stroke-width: 0.8"/>
      </g>
     </g>
     <g id="text_7">
      <!-- 3000 -->
      <g transform="translate(25.15 268.747813)scale(0.1 -0.1)">
       <defs>
        <path id="DejaVuSans-33" d="M 2597 2516 
Q 3050 2419 3304 2112 
Q 3559 1806 3559 1356 
Q 3559 666 3084 287 
Q 2609 -91 1734 -91 
Q 1441 -91 1130 -33 
Q 819 25 488 141 
L 488 750 
Q 750 597 1062 519 
Q 1375 441 1716 441 
Q 2309 441 2620 675 
Q 2931 909 2931 1356 
Q 2931 1769 2642 2001 
Q 2353 2234 1838 2234 
L 1294 2234 
L 1294 2753 
L 1863 2753 
Q 2328 2753 2575 2939 
Q 2822 3125 2822 3475 
Q 2822 3834 2567 4026 
Q 2313 4219 1838 4219 
Q 1578 4219 1281 4162 
Q 984 4106 628 3988 
L 628 4550 
Q 988 4650 1302 4700 
Q 1616 4750 1894 4750 
Q 2613 4750 3031 4423 
Q 3450 4097 3450 3541 
Q 3450 3153 3228 2886 
Q 3006 2619 2597 2516 
z
" transform="scale(0.015625)"/>
       </defs>
       <use xlink:href="#DejaVuSans-33"/>
       <use xlink:href="#DejaVuSans-30" x="63.623047"/>
       <use xlink:href="#DejaVuSans-30" x="127.246094"/>
       <use xlink:href="#DejaVuSans-30" x="190.869141"/>
      </g>
     </g>
    </g>
    <g id="ytick_2">
     <g id="line2d_7">
      <g>
       <use xlink:href="#mbdebb35a81" x="57.6" y="215.047604" style="stroke: #000000; stroke-width: 0.8"/>
      </g>
     </g>
     <g id="text_8">
      <!-- 3500 -->
      <g transform="translate(25.15 218.846823)scale(0.1 -0.1)">
       <use xlink:href="#DejaVuSans-33"/>
       <use xlink:href="#DejaVuSans-35" x="63.623047"/>
       <use xlink:href="#DejaVuSans-30" x="127.246094"/>
       <use xlink:href="#DejaVuSans-30" x="190.869141"/>
      </g>
     </g>
    </g>
    <g id="ytick_3">
     <g id="line2d_8">
      <g>
       <use xlink:href="#mbdebb35a81" x="57.6" y="165.146614" style="stroke: #000000; stroke-width: 0.8"/>
      </g>
     </g>
     <g id="text_9">
      <!-- 4000 -->
      <g transform="translate(25.15 168.945833)scale(0.1 -0.1)">
       <defs>
        <path id="DejaVuSans-34" d="M 2419 4116 
L 825 1625 
L 2419 1625 
L 2419 4116 
z
M 2253 4666 
L 3047 4666 
L 3047 1625 
L 3713 1625 
L 3713 1100 
L 3047 1100 
L 3047 0 
L 2419 0 
L 2419 1100 
L 313 1100 
L 313 1709 
L 2253 4666 
z
" transform="scale(0.015625)"/>
       </defs>
       <use xlink:href="#DejaVuSans-34"/>
       <use xlink:href="#DejaVuSans-30" x="63.623047"/>
       <use xlink:href="#DejaVuSans-30" x="127.246094"/>
       <use xlink:href="#DejaVuSans-30" x="190.869141"/>
      </g>
     </g>
    </g>
    <g id="ytick_4">
     <g id="line2d_9">
      <g>
       <use xlink:href="#mbdebb35a81" x="57.6" y="115.245624" style="stroke: #000000; stroke-width: 0.8"/>
      </g>
     </g>
     <g id="text_10">
      <!-- 4500 -->
      <g transform="translate(25.15 119.044843)scale(0.1 -0.1)">
       <use xlink:href="#DejaVuSans-34"/>
       <use xlink:href="#DejaVuSans-35" x="63.623047"/>
       <use xlink:href="#DejaVuSans-30" x="127.246094"/>
       <use xlink:href="#DejaVuSans-30" x="190.869141"/>
      </g>
     </g>
    </g>
    <g id="ytick_5">
     <g id="line2d_10">
      <g>
       <use xlink:href="#mbdebb35a81" x="57.6" y="65.344634" style="stroke: #000000; stroke-width: 0.8"/>
      </g>
     </g>
     <g id="text_11">
      <!-- 5000 -->
      <g transform="translate(25.15 69.143852)scale(0.1 -0.1)">
       <use xlink:href="#DejaVuSans-35"/>
       <use xlink:href="#DejaVuSans-30" x="63.623047"/>
       <use xlink:href="#DejaVuSans-30" x="127.246094"/>
       <use xlink:href="#DejaVuSans-30" x="190.869141"/>
      </g>
     </g>
    </g>
    <g id="text_12">
     <!-- total cost -->
     <g transform="translate(19.070312 197.923313)rotate(-90)scale(0.1 -0.1)">
      <defs>
       <path id="DejaVuSans-74" d="M 1172 4494 
L 1172 3500 
L 2356 3500 
L 2356 3053 
L 1172 3053 
L 1172 1153 
Q 1172 725 1289 603 
Q 1406 481 1766 481 
L 2356 481 
L 2356 0 
L 1766 0 
Q 1100 0 847 248 
Q 594 497 594 1153 
L 594 3053 
L 172 3053 
L 172 3500 
L 594 3500 
L 594 4494 
L 1172 4494 
z
" transform="scale(0.015625)"/>
       <path id="DejaVuSans-6f" d="M 1959 3097 
Q 1497 3097 1228 2736 
Q 959 2375 959 1747 
Q 959 1119 1226 758 
Q 1494 397 1959 397 
Q 2419 397 2687 759 
Q 2956 1122 2956 1747 
Q 2956 2369 2687 2733 
Q 2419 3097 1959 3097 
z
M 1959 3584 
Q 2709 3584 3137 3096 
Q 3566 2609 3566 1747 
Q 3566 888 3137 398 
Q 2709 -91 1959 -91 
Q 1206 -91 779 398 
Q 353 888 353 1747 
Q 353 2609 779 3096 
Q 1206 3584 1959 3584 
z
" transform="scale(0.015625)"/>
       <path id="DejaVuSans-6c" d="M 603 4863 
L 1178 4863 
L 1178 0 
L 603 0 
L 603 4863 
z
" transform="scale(0.015625)"/>
       <path id="DejaVuSans-63" d="M 3122 3366 
L 3122 2828 
Q 2878 2963 2633 3030 
Q 2388 3097 2138 3097 
Q 1578 3097 1268 2742 
Q 959 2388 959 1747 
Q 959 1106 1268 751 
Q 1578 397 2138 397 
Q 2388 397 2633 464 
Q 2878 531 3122 666 
L 3122 134 
Q 2881 22 2623 -34 
Q 2366 -91 2075 -91 
Q 1284 -91 818 406 
Q 353 903 353 1747 
Q 353 2603 823 3093 
Q 1294 3584 2113 3584 
Q 2378 3584 2631 3529 
Q 2884 3475 3122 3366 
z
" transform="scale(0.015625)"/>
      </defs>
      <use xlink:href="#DejaVuSans-74"/>
      <use xlink:href="#DejaVuSans-6f" x="39.208984"/>
      <use xlink:href="#DejaVuSans-74" x="100.390625"/>
      <use xlink:href="#DejaVuSans-61" x="139.599609"/>
      <use xlink:href="#DejaVuSans-6c" x="200.878906"/>
      <use xlink:href="#DejaVuSans-20" x="228.662109"/>
      <use xlink:href="#DejaVuSans-63" x="260.449219"/>
      <use xlink:href="#DejaVuSans-6f" x="315.429688"/>
      <use xlink:href="#DejaVuSans-73" x="376.611328"/>
      <use xlink:href="#DejaVuSans-74" x="428.710938"/>
     </g>
    </g>
   </g>
   <g id="line2d_11">
    <path d="M 73.832727 65.743842 
L 74.134732 65.444436 
L 74.436736 68.638099 
L 74.73874 66.14305 
L 75.040744 66.043248 
L 75.342748 69.436515 
L 75.644753 71.432554 
L 75.946757 71.831762 
L 76.248761 75.22503 
L 76.550765 73.728 
L 76.85277 74.925624 
L 77.154774 73.927604 
L 77.456778 73.428594 
L 77.758782 72.23097 
L 78.060786 72.131168 
L 78.362791 72.23097 
L 78.664795 76.023446 
L 79.570808 66.242851 
L 79.872812 69.436515 
L 80.47682 71.432554 
L 80.778825 71.632158 
L 81.080829 71.23295 
L 81.382833 72.430574 
L 81.684837 71.23295 
L 82.288846 75.424634 
L 82.59085 74.526416 
L 82.892854 68.937505 
L 83.496863 72.031366 
L 83.798867 72.430574 
L 84.100871 77.121267 
L 84.402875 75.524436 
L 84.704879 77.520475 
L 85.006884 82.410772 
L 85.308888 82.510574 
L 85.610892 80.714139 
L 85.912896 77.720079 
L 86.214901 78.019485 
L 86.516905 69.236911 
L 86.818909 67.640079 
L 87.120913 68.937505 
L 87.422918 71.23295 
L 87.724922 70.334733 
L 88.026926 70.733941 
L 88.32893 68.737901 
L 88.630934 64.14701 
L 88.932939 61.552158 
L 89.234943 62.849584 
L 90.140956 54.665822 
L 90.44296 53.568 
L 91.046968 65.344634 
L 91.348973 64.945426 
L 91.952981 68.737901 
L 92.254985 68.238891 
L 93.160998 81.013545 
L 93.463002 90.893941 
L 93.765006 95.085624 
L 94.369015 98.279287 
L 94.671019 107.960079 
L 94.973023 105.165624 
L 95.275027 104.666614 
L 95.577032 101.073743 
L 95.879036 101.47295 
L 96.18104 103.069782 
L 96.483044 100.674535 
L 96.785049 106.662653 
L 97.087053 102.570772 
L 97.389057 106.962059 
L 97.691061 105.165624 
L 97.993066 96.981861 
L 98.29507 92.39097 
L 98.597074 92.490772 
L 98.899078 89.796119 
L 99.201082 92.291168 
L 99.503087 89.895921 
L 99.805091 85.105426 
L 100.107095 83.508594 
L 100.409099 82.80998 
L 100.711104 87.800079 
L 101.013108 87.101465 
L 101.315112 87.999683 
L 101.617116 87.800079 
L 101.919121 89.895921 
L 102.221125 90.594535 
L 102.523129 89.796119 
L 103.127137 92.191366 
L 103.429142 88.897901 
L 103.731146 88.698297 
L 104.335154 87.301069 
L 104.637159 88.299089 
L 104.939163 97.880079 
L 105.241167 97.480871 
L 105.543171 94.786218 
L 105.845175 95.584634 
L 106.751188 86.901861 
L 107.053192 92.39097 
L 107.355197 90.394931 
L 107.657201 91.792158 
L 107.959205 90.594535 
L 108.261209 87.400871 
L 108.563214 88.798099 
L 108.865218 90.893941 
L 109.469226 79.316911 
L 109.77123 78.219089 
L 110.073235 80.015525 
L 110.375239 79.516515 
L 110.677243 83.907802 
L 110.979247 80.015525 
L 111.583256 80.514535 
L 111.88526 82.909782 
L 112.187264 87.400871 
L 112.791273 82.31097 
L 113.093277 83.30899 
L 113.395281 84.905822 
L 113.697285 83.508594 
L 113.99929 83.209188 
L 114.301294 84.80602 
L 114.905302 83.907802 
L 115.207307 81.013545 
L 115.509311 76.22305 
L 115.811315 75.324832 
L 116.113319 77.720079 
L 116.415323 82.410772 
L 116.717328 82.111366 
L 117.019332 80.015525 
L 117.321336 82.31097 
L 117.62334 83.30899 
L 118.227349 92.690376 
L 118.529353 92.989782 
L 118.831357 95.784238 
L 119.133362 94.087604 
L 119.435366 91.492752 
L 119.73737 91.89196 
L 121.247391 75.524436 
L 121.549395 70.833743 
L 121.8514 70.234931 
L 122.153404 70.135129 
L 122.455408 69.037307 
L 122.757412 69.436515 
L 123.059416 71.23295 
L 123.361421 69.037307 
L 123.663425 67.839683 
L 123.965429 70.035327 
L 124.267433 69.336713 
L 124.871442 74.027406 
L 125.173446 76.722059 
L 125.47545 82.80998 
L 125.777455 84.30701 
L 126.079459 84.406812 
L 126.381463 84.80602 
L 126.683467 82.80998 
L 126.985471 79.017505 
L 127.287476 82.80998 
L 127.58948 84.207208 
L 127.891484 88.798099 
L 128.193488 90.993743 
L 128.495493 86.602455 
L 128.797497 87.101465 
L 129.099501 88.598495 
L 129.401505 85.604436 
L 129.70351 84.606416 
L 130.005514 85.604436 
L 130.307518 86.003644 
L 130.609522 82.410772 
L 130.911526 82.011564 
L 131.213531 83.109386 
L 131.515535 83.209188 
L 131.817539 83.508594 
L 132.119543 83.30899 
L 132.421548 77.919683 
L 133.025556 92.790178 
L 133.32756 94.187406 
L 133.629564 96.882059 
L 133.931569 98.279287 
L 134.233573 102.870178 
L 134.535577 102.770376 
L 134.837581 105.864238 
L 135.139586 104.866218 
L 135.44159 102.670574 
L 135.743594 103.668594 
L 136.045598 107.261465 
L 136.347603 107.261465 
L 136.649607 115.54503 
L 136.951611 118.738693 
L 137.253615 116.143842 
L 137.555619 116.443248 
L 138.159628 113.54899 
L 138.461632 118.638891 
L 138.763636 118.139881 
L 139.065641 119.137901 
L 139.367645 117.541069 
L 139.971653 107.760475 
L 140.575662 106.762455 
L 140.877666 108.858297 
L 141.481674 109.157703 
L 141.783679 107.960079 
L 142.085683 105.265426 
L 142.689691 107.461069 
L 142.991696 106.662653 
L 143.595704 109.656713 
L 143.897708 100.574733 
L 144.199712 99.676515 
L 144.501717 101.47295 
L 144.803721 102.271366 
L 145.407729 99.975921 
L 145.709734 97.680475 
L 146.011738 99.476911 
L 146.313742 99.476911 
L 146.615746 99.676515 
L 146.917751 96.582653 
L 147.219755 95.983842 
L 147.521759 94.287208 
L 147.823763 97.480871 
L 148.125767 96.482851 
L 148.427772 98.578693 
L 148.729776 98.478891 
L 149.03178 91.991762 
L 149.333784 93.588594 
L 149.635789 93.089584 
L 149.937793 89.895921 
L 150.239797 90.494733 
L 150.541801 90.494733 
L 150.843805 89.895921 
L 151.14581 85.903842 
L 151.447814 84.30701 
L 151.749818 85.404832 
L 152.051822 84.107406 
L 152.353827 86.802059 
L 152.655831 91.093545 
L 152.957835 92.39097 
L 153.259839 95.784238 
L 153.561844 88.598495 
L 154.165852 91.692356 
L 154.467856 93.289188 
L 154.76986 92.091564 
L 155.071865 94.287208 
L 155.373869 94.985822 
L 155.977877 99.177505 
L 156.279882 102.171564 
L 156.88389 101.97196 
L 157.185894 105.165624 
L 157.487899 100.375129 
L 157.789903 98.578693 
L 158.091907 94.087604 
L 158.695915 91.39295 
L 158.99792 91.692356 
L 159.299924 91.293149 
L 159.601928 91.492752 
L 159.903932 94.985822 
L 160.205937 96.38305 
L 160.507941 98.578693 
L 161.413953 110.255525 
L 161.715958 108.259485 
L 162.319966 112.151762 
L 162.62197 112.251564 
L 162.923975 113.449188 
L 163.225979 115.445228 
L 163.527983 114.347406 
L 163.829987 109.756515 
L 164.131992 107.461069 
L 164.433996 111.453149 
L 164.736 113.449188 
L 165.340008 107.660673 
L 165.642013 105.764436 
L 165.944017 107.061861 
L 166.246021 105.664634 
L 166.548025 102.670574 
L 166.85003 104.866218 
L 167.152034 102.770376 
L 167.454038 98.878099 
L 167.756042 97.480871 
L 168.360051 91.193347 
L 168.964059 94.187406 
L 169.266063 92.39097 
L 169.568068 91.991762 
L 169.870072 94.786218 
L 170.172076 95.185426 
L 170.47408 94.786218 
L 170.776085 97.281267 
L 171.078089 94.486812 
L 171.380093 95.983842 
L 171.682097 92.989782 
L 171.984101 94.087604 
L 172.286106 92.690376 
L 172.58811 93.788198 
L 173.192118 93.588594 
L 173.494123 93.987802 
L 173.796127 96.38305 
L 174.098131 94.686416 
L 174.400135 96.083644 
L 174.70214 95.88404 
L 175.004144 96.083644 
L 175.306148 95.88404 
L 175.608152 96.283248 
L 175.910156 98.778297 
L 176.212161 99.776317 
L 176.514165 101.373149 
L 176.816169 99.975921 
L 177.118173 105.265426 
L 177.420178 107.461069 
L 177.722182 108.758495 
L 178.024186 112.55097 
L 178.32619 112.650772 
L 178.628195 109.357307 
L 178.930199 110.954139 
L 179.232203 110.654733 
L 179.534207 115.54503 
L 179.836211 118.239683 
L 180.138216 118.040079 
L 180.44022 115.245624 
L 180.742224 118.439287 
L 181.648237 107.361267 
L 181.950241 110.854337 
L 182.252245 112.251564 
L 182.554249 108.958099 
L 182.856254 104.367208 
L 183.158258 105.564832 
L 183.460262 105.165624 
L 183.762266 106.263446 
L 184.064271 106.163644 
L 184.366275 104.96602 
L 184.668279 102.870178 
L 184.970283 98.578693 
L 185.272288 106.562851 
L 185.574292 110.355327 
L 185.876296 110.455129 
L 186.1783 105.46503 
L 186.480304 105.065822 
L 187.084313 97.281267 
L 187.386317 95.185426 
L 187.688321 94.187406 
L 187.990326 95.38503 
L 188.29233 98.678495 
L 188.594334 97.880079 
L 188.896338 100.674535 
L 189.198342 98.678495 
L 189.500347 95.185426 
L 189.802351 94.38701 
L 190.104355 94.38701 
L 190.406359 99.776317 
L 190.708364 107.760475 
L 191.010368 112.251564 
L 191.312372 112.351366 
L 191.614376 114.347406 
L 192.218385 112.650772 
L 192.520389 113.249584 
L 192.822393 115.04602 
L 193.124397 115.54503 
L 194.03041 118.738693 
L 194.332414 120.834535 
L 194.634419 125.525228 
L 194.936423 125.425426 
L 195.540431 117.241663 
L 195.842436 116.343446 
L 196.14444 113.449188 
L 196.446444 114.946218 
L 196.748448 114.447208 
L 197.352457 123.12998 
L 197.956465 121.732752 
L 198.560474 126.922455 
L 198.862478 126.223842 
L 199.164482 124.826614 
L 199.466486 122.032158 
L 199.76849 122.63097 
L 200.070495 119.537109 
L 200.372499 119.537109 
L 200.674503 120.435327 
L 200.976507 119.936317 
L 201.278512 121.333545 
L 201.88252 115.345426 
L 202.184524 111.55295 
L 202.486529 114.048 
L 202.788533 113.04998 
L 203.090537 113.449188 
L 203.392541 114.147802 
L 203.694545 115.145822 
L 203.99655 116.54305 
L 204.600558 117.840475 
L 204.902562 122.730772 
L 205.204567 115.944238 
L 205.506571 113.349386 
L 205.808575 112.451168 
L 206.110579 112.650772 
L 206.412584 115.145822 
L 206.714588 114.746614 
L 207.016592 114.147802 
L 207.6206 118.838495 
L 207.922605 115.245624 
L 208.224609 116.243644 
L 208.526613 113.848396 
L 208.828617 115.644832 
L 209.130622 118.439287 
L 209.432626 114.846416 
L 209.73463 106.063842 
L 210.036634 106.862257 
L 210.338638 110.854337 
L 210.640643 109.756515 
L 210.942647 109.157703 
L 211.244651 108.159683 
L 211.84866 104.367208 
L 212.150664 104.566812 
L 212.452668 109.756515 
L 212.754672 109.357307 
L 213.056677 111.353347 
L 213.358681 109.956119 
L 213.660685 111.253545 
L 213.962689 113.648792 
L 214.264693 113.149782 
L 214.868702 115.744634 
L 215.170706 117.241663 
L 215.47271 120.634931 
L 216.076719 118.539089 
L 216.378723 121.533149 
L 216.680727 121.932356 
L 217.284736 119.836515 
L 217.58674 121.832554 
L 217.888744 123.030178 
L 218.190748 122.730772 
L 218.492753 122.730772 
L 218.794757 124.527208 
L 219.096761 119.337505 
L 219.398765 122.331564 
L 220.002774 119.137901 
L 220.304778 118.239683 
L 220.606782 111.253545 
L 220.908786 114.247604 
L 221.210791 115.04602 
L 221.512795 114.048 
L 221.814799 109.956119 
L 222.116803 111.752554 
L 222.418808 109.357307 
L 222.720812 111.453149 
L 223.022816 115.644832 
L 223.626825 120.435327 
L 223.928829 124.62701 
L 224.230833 121.333545 
L 224.532837 124.128 
L 224.834841 124.926416 
L 225.136846 130.315723 
L 225.43885 125.924436 
L 225.740854 124.527208 
L 226.042858 125.12602 
L 226.344863 121.732752 
L 226.646867 123.12998 
L 226.948871 123.12998 
L 227.250875 121.63295 
L 227.552879 121.034139 
L 227.854884 123.030178 
L 228.156888 128.319683 
L 228.458892 126.323644 
L 228.760896 123.329584 
L 229.062901 118.938297 
L 229.364905 119.537109 
L 229.666909 122.331564 
L 229.968913 123.728792 
L 230.270918 122.13196 
L 230.572922 119.836515 
L 230.874926 123.928396 
L 231.17693 123.928396 
L 231.478934 124.327604 
L 231.780939 117.840475 
L 232.082943 116.04404 
L 232.686951 117.840475 
L 232.988956 116.842455 
L 233.29096 121.333545 
L 233.592964 114.54701 
L 233.894968 114.147802 
L 234.196973 116.443248 
L 234.800981 117.341465 
L 235.102985 117.840475 
L 235.404989 118.838495 
L 235.706994 117.042059 
L 236.311002 126.922455 
L 236.613006 126.423446 
L 236.915011 124.826614 
L 237.217015 129.118099 
L 237.519019 129.317703 
L 237.821023 130.415525 
L 238.123027 130.615129 
L 238.425032 131.213941 
L 238.727036 139.198099 
L 239.02904 129.916515 
L 239.633049 126.12404 
L 239.935053 129.816713 
L 240.237057 129.217901 
L 240.841066 134.008396 
L 241.14307 133.20998 
L 241.445074 135.70503 
L 241.747078 136.104238 
L 242.049082 136.902653 
L 242.351087 132.012356 
L 242.653091 130.814733 
L 242.955095 126.024238 
L 243.257099 127.022257 
L 243.559104 128.818693 
L 243.861108 128.619089 
L 244.163112 129.517307 
L 244.767121 133.509386 
L 245.069125 134.507406 
L 245.371129 132.910574 
L 245.673133 132.311762 
L 245.975137 133.70899 
L 246.579146 123.329584 
L 246.88115 122.331564 
L 247.183154 119.537109 
L 248.089167 128.020277 
L 248.391171 126.423446 
L 248.693175 126.722851 
L 248.99518 128.619089 
L 249.297184 123.828594 
L 249.599188 123.828594 
L 249.901192 124.028198 
L 250.203197 128.519287 
L 250.505201 128.020277 
L 250.807205 129.417505 
L 251.109209 127.421465 
L 251.411214 126.722851 
L 251.713218 131.812752 
L 252.015222 131.71295 
L 252.317226 135.904634 
L 252.61923 136.802851 
L 252.921235 133.509386 
L 253.223239 138.000475 
L 253.525243 137.800871 
L 254.129252 144.487604 
L 254.431256 145.28602 
L 254.73326 149.976713 
L 255.035264 149.377901 
L 255.337268 153.170376 
L 255.639273 150.276119 
L 255.941277 149.777109 
L 256.243281 152.671366 
L 256.545285 153.86899 
L 256.84729 158.559683 
L 257.149294 158.559683 
L 257.451298 156.962851 
L 257.753302 157.362059 
L 258.055307 153.170376 
L 258.357311 153.36998 
L 258.659315 151.573545 
L 258.961319 150.874931 
L 259.263323 150.575525 
L 259.565328 149.876911 
L 259.867332 150.076515 
L 260.169336 150.675327 
L 260.47134 148.379881 
L 260.773345 148.878891 
L 261.377353 147.182257 
L 261.679357 150.176317 
L 261.981362 150.276119 
L 262.283366 150.176317 
L 262.887374 151.972752 
L 263.189378 151.274139 
L 263.793387 154.268198 
L 264.095391 150.874931 
L 264.397395 154.068594 
L 264.6994 150.775129 
L 265.001404 151.373941 
L 265.303408 154.667406 
L 265.907416 153.968792 
L 266.209421 155.565624 
L 266.813429 156.463842 
L 267.115433 153.469782 
L 267.417438 152.671366 
L 267.719442 154.068594 
L 268.021446 156.463842 
L 268.32345 154.467802 
L 268.625455 155.266218 
L 269.229463 150.176317 
L 269.531467 150.575525 
L 269.833471 149.777109 
L 270.135476 147.781069 
L 270.43748 149.078495 
L 270.739484 146.982653 
L 271.041488 143.988594 
L 271.343493 143.389782 
L 271.645497 143.589386 
L 271.947501 143.988594 
L 272.249505 143.988594 
L 272.55151 147.182257 
L 272.853514 145.984634 
L 273.155518 148.180277 
L 273.457522 148.080475 
L 273.759526 144.886812 
L 274.061531 144.587406 
L 274.363535 142.29196 
L 274.665539 140.894733 
L 274.967543 143.888792 
L 275.269548 145.086416 
L 275.571552 144.088396 
L 275.873556 142.192158 
L 276.17556 141.194139 
L 276.477564 141.593347 
L 276.779569 142.691168 
L 277.081573 141.493545 
L 277.383577 141.892752 
L 277.685581 148.579485 
L 277.987586 151.074535 
L 278.591594 150.575525 
L 278.893598 151.174337 
L 279.195603 150.775129 
L 279.799611 155.36602 
L 280.403619 153.469782 
L 280.705624 154.467802 
L 281.007628 153.270178 
L 281.309632 148.479683 
L 281.611636 149.477703 
L 281.913641 148.679287 
L 282.215645 144.886812 
L 282.517649 146.084436 
L 282.819653 141.493545 
L 283.121658 141.493545 
L 283.423662 142.691168 
L 283.725666 139.796911 
L 284.02767 138.898693 
L 284.329674 139.996515 
L 284.631679 138.898693 
L 284.933683 137.102257 
L 285.235687 137.601267 
L 285.537691 135.605228 
L 285.839696 135.505426 
L 286.1417 133.010376 
L 286.443704 128.718891 
L 286.745708 128.918495 
L 287.047712 129.517307 
L 287.651721 135.804832 
L 287.953725 132.21196 
L 288.255729 133.309782 
L 288.557734 135.106218 
L 288.859738 134.307802 
L 289.161742 139.597307 
L 289.463746 139.896713 
L 289.765751 144.587406 
L 290.067755 144.088396 
L 290.369759 142.29196 
L 290.671763 150.675327 
L 290.973767 152.471762 
L 291.275772 151.673347 
L 291.577776 151.473743 
L 291.87978 152.072554 
L 292.181784 149.078495 
L 292.483789 151.673347 
L 292.785793 151.373941 
L 293.087797 153.569584 
L 293.389801 154.567604 
L 293.691805 154.368 
L 293.99381 152.37196 
L 294.295814 152.272158 
L 294.597818 155.565624 
L 295.201827 152.172356 
L 295.503831 150.675327 
L 295.805835 151.074535 
L 296.107839 150.874931 
L 296.409844 152.571564 
L 296.711848 152.970772 
L 297.013852 155.36602 
L 297.315856 156.563644 
L 297.61786 153.170376 
L 297.919865 154.068594 
L 298.523873 158.160475 
L 298.825877 158.859089 
L 299.127882 160.555723 
L 299.429886 159.657505 
L 299.73189 161.354139 
L 300.033894 164.248396 
L 300.335899 165.046812 
L 300.939907 161.254337 
L 301.241911 157.362059 
L 301.543915 157.761267 
L 301.84592 158.859089 
L 302.147924 154.767208 
L 302.751932 155.066614 
L 303.053937 162.751366 
L 303.355941 161.753347 
L 303.657945 164.148594 
L 303.959949 163.94899 
L 304.261953 164.547802 
L 304.563958 163.649584 
L 304.865962 166.843248 
L 305.167966 167.641663 
L 305.46997 167.342257 
L 305.771975 164.94701 
L 306.073979 160.156515 
L 306.375983 157.861069 
L 306.677987 162.152554 
L 306.979992 163.050772 
L 307.281996 162.052752 
L 307.584 163.749386 
L 307.886004 166.244436 
L 308.188008 164.747406 
L 308.490013 164.547802 
L 308.792017 168.539881 
L 309.396025 169.038891 
L 309.69803 172.332356 
L 310.302038 174.827406 
L 310.604042 175.226614 
L 311.208051 179.418297 
L 311.510055 179.518099 
L 311.812059 181.713743 
L 312.114063 181.613941 
L 312.718072 180.815525 
L 313.020076 178.819485 
L 313.624085 177.721663 
L 313.926089 176.424238 
L 314.228093 179.218693 
L 314.530097 178.420277 
L 314.832101 174.128792 
L 315.134106 177.122851 
L 315.43611 178.021069 
L 315.738114 177.322455 
L 316.040118 177.322455 
L 316.342123 179.318495 
L 316.946131 177.422257 
L 317.55014 179.218693 
L 317.852144 178.420277 
L 318.154148 174.627802 
L 318.456152 176.02503 
L 318.758156 178.520079 
L 319.362165 181.314535 
L 319.966173 177.821465 
L 320.268178 180.715723 
L 320.570182 177.122851 
L 320.872186 177.122851 
L 321.17419 174.727604 
L 321.476195 173.629782 
L 321.778199 174.927208 
L 322.080203 174.128792 
L 322.382207 174.727604 
L 322.986216 171.234535 
L 323.28822 171.334337 
L 323.590224 170.136713 
L 323.892228 170.036911 
L 324.194233 173.52998 
L 324.496237 173.629782 
L 324.798241 171.533941 
L 325.100245 175.725624 
L 325.402249 176.923248 
L 325.704254 175.326416 
L 326.006258 175.725624 
L 326.308262 177.222653 
L 326.610266 177.621861 
L 326.912271 173.829386 
L 327.214275 174.228594 
L 327.516279 175.226614 
L 327.818283 174.02899 
L 328.120288 175.925228 
L 328.422292 175.925228 
L 328.724296 176.424238 
L 329.0263 181.414337 
L 329.328304 182.013149 
L 329.630309 184.408396 
L 329.932313 184.10899 
L 330.234317 184.707802 
L 330.536321 185.705822 
L 330.838326 185.60602 
L 331.14033 187.10305 
L 331.442334 187.10305 
L 331.744338 188.200871 
L 332.046342 186.903446 
L 332.650351 185.506218 
L 332.952355 182.911366 
L 333.858368 181.015129 
L 334.160372 179.817505 
L 334.462376 180.416317 
L 334.764381 180.216713 
L 335.066385 182.212752 
L 335.368389 179.717703 
L 335.670393 180.516119 
L 335.972397 182.512158 
L 336.274402 179.019089 
L 336.576406 177.621861 
L 336.87841 179.717703 
L 337.180414 179.518099 
L 337.482419 179.019089 
L 337.784423 180.316515 
L 338.086427 183.011168 
L 338.388431 183.809584 
L 338.99244 189.099089 
L 339.294444 189.498297 
L 339.596448 187.901465 
L 339.898452 188.400475 
L 340.200457 188.600079 
L 340.502461 189.398495 
L 340.804465 188.799683 
L 341.106469 191.594139 
L 341.408474 190.695921 
L 341.710478 190.496317 
L 342.012482 194.887604 
L 342.314486 191.893545 
L 342.61649 192.69196 
L 342.918495 191.793743 
L 343.220499 193.390574 
L 343.522503 190.995327 
L 344.126512 192.791762 
L 344.428516 195.785822 
L 344.73052 195.985426 
L 345.334529 194.588198 
L 345.938537 197.981465 
L 346.542545 196.983446 
L 346.84455 195.386614 
L 347.146554 197.382653 
L 347.448558 198.380673 
L 347.750562 202.672158 
L 348.052567 202.77196 
L 348.354571 208.261069 
L 348.656575 208.360871 
L 348.958579 209.259089 
L 349.260584 206.863842 
L 349.562588 207.861861 
L 349.864592 208.460673 
L 350.166596 210.157307 
L 350.4686 210.157307 
L 350.770605 210.556515 
L 351.072609 212.552554 
L 351.374613 210.057505 
L 351.676617 210.057505 
L 351.978622 209.159287 
L 352.58263 212.153347 
L 352.884634 213.949782 
L 353.186638 214.249188 
L 353.488643 214.249188 
L 353.790647 212.053545 
L 354.092651 211.554535 
L 354.394655 209.358891 
L 354.69666 210.057505 
L 354.998664 211.953743 
L 355.602672 213.84998 
L 355.904677 215.147406 
L 356.206681 215.945822 
L 356.508685 217.143446 
L 356.810689 217.043644 
L 357.112693 218.939881 
L 357.414698 218.341069 
L 358.018706 219.738297 
L 358.32071 221.335129 
L 358.622715 221.434931 
L 358.924719 222.632554 
L 359.226723 221.035723 
L 359.528727 220.037703 
L 359.830732 222.832158 
L 360.132736 223.331168 
L 360.43474 223.131564 
L 360.736744 224.528792 
L 361.038748 223.630574 
L 361.340753 224.628594 
L 361.642757 226.025822 
L 361.944761 229.019881 
L 362.54877 232.313347 
L 363.152778 237.702653 
L 363.756786 240.996119 
L 364.058791 241.295525 
L 364.360795 242.093941 
L 364.662799 243.291564 
L 365.266808 243.291564 
L 365.568812 243.890376 
L 365.870816 245.886416 
L 366.17282 246.08602 
L 366.474825 247.383446 
L 366.776829 246.984238 
L 367.078833 246.784634 
L 367.380837 247.08404 
L 367.682841 246.884436 
L 367.984846 246.08602 
L 368.28685 244.888396 
L 368.588854 244.888396 
L 368.890858 245.287604 
L 369.192863 246.684832 
L 369.494867 247.283644 
L 369.796871 249.279683 
L 370.098875 249.479287 
L 370.400879 249.978297 
L 371.004888 250.277703 
L 371.306892 250.676911 
L 371.910901 252.173941 
L 372.212905 250.177901 
L 372.514909 250.277703 
L 372.816913 252.173941 
L 373.118918 252.074139 
L 373.420922 252.772752 
L 373.722926 252.373545 
L 374.02493 252.573149 
L 374.930943 256.365624 
L 375.534951 257.064238 
L 376.440964 259.060277 
L 376.742968 256.66503 
L 377.346977 257.363644 
L 377.648981 258.760871 
L 378.252989 259.259881 
L 378.554994 261.754931 
L 378.856998 260.956515 
L 379.159002 261.056317 
L 379.461006 261.655129 
L 380.367019 267.443644 
L 380.669023 267.044436 
L 380.971027 268.641267 
L 381.273032 268.840871 
L 381.575036 269.439683 
L 381.87704 268.641267 
L 382.179044 268.541465 
L 382.481049 269.739089 
L 382.783053 269.739089 
L 383.085057 268.840871 
L 383.387061 268.840871 
L 383.689066 269.639287 
L 383.99107 269.639287 
L 384.293074 271.635327 
L 384.595078 272.333941 
L 384.897082 273.531564 
L 385.199087 273.83097 
L 385.501091 273.631366 
L 385.803095 274.729188 
L 386.105099 275.028594 
L 386.407104 275.627406 
L 387.011112 275.328 
L 387.313116 276.126416 
L 387.615121 276.126416 
L 388.219129 277.423842 
L 388.521133 277.623446 
L 388.823137 278.721267 
L 389.125142 279.320079 
L 389.427146 279.320079 
L 389.72915 277.922851 
L 390.031154 278.322059 
L 390.333159 278.421861 
L 390.635163 277.32404 
L 391.541175 278.521663 
L 391.84318 278.721267 
L 392.145184 279.120475 
L 392.447188 283.611564 
L 392.749192 284.90899 
L 393.051197 285.308198 
L 393.353201 287.703446 
L 393.655205 287.204436 
L 393.957209 287.204436 
L 394.259214 288.901069 
L 394.561218 289.499881 
L 394.863222 291.196515 
L 395.165226 291.595723 
L 396.071239 291.795327 
L 396.373243 291.795327 
L 396.675247 292.593743 
L 396.977252 292.793347 
L 397.279256 293.392158 
L 397.58126 294.689584 
L 398.185268 295.488 
L 398.487273 295.488 
L 398.487273 295.488 
" clip-path="url(#pf7e9c88b6e)" style="fill: none; stroke: #1f77b4; stroke-width: 1.5; stroke-linecap: square"/>
   </g>
   <g id="patch_3">
    <path d="M 57.6 307.584 
L 57.6 41.472 
" style="fill: none; stroke: #000000; stroke-width: 0.8; stroke-linejoin: miter; stroke-linecap: square"/>
   </g>
   <g id="patch_4">
    <path d="M 414.72 307.584 
L 414.72 41.472 
" style="fill: none; stroke: #000000; stroke-width: 0.8; stroke-linejoin: miter; stroke-linecap: square"/>
   </g>
   <g id="patch_5">
    <path d="M 57.6 307.584 
L 414.72 307.584 
" style="fill: none; stroke: #000000; stroke-width: 0.8; stroke-linejoin: miter; stroke-linecap: square"/>
   </g>
   <g id="patch_6">
    <path d="M 57.6 41.472 
L 414.72 41.472 
" style="fill: none; stroke: #000000; stroke-width: 0.8; stroke-linejoin: miter; stroke-linecap: square"/>
   </g>
   <g id="text_13">
    <!-- Simulated Anealling Cost -->
    <g transform="translate(160.8 35.472)scale(0.12 -0.12)">
     <defs>
      <path id="DejaVuSans-53" d="M 3425 4513 
L 3425 3897 
Q 3066 4069 2747 4153 
Q 2428 4238 2131 4238 
Q 1616 4238 1336 4038 
Q 1056 3838 1056 3469 
Q 1056 3159 1242 3001 
Q 1428 2844 1947 2747 
L 2328 2669 
Q 3034 2534 3370 2195 
Q 3706 1856 3706 1288 
Q 3706 609 3251 259 
Q 2797 -91 1919 -91 
Q 1588 -91 1214 -16 
Q 841 59 441 206 
L 441 856 
Q 825 641 1194 531 
Q 1563 422 1919 422 
Q 2459 422 2753 634 
Q 3047 847 3047 1241 
Q 3047 1584 2836 1778 
Q 2625 1972 2144 2069 
L 1759 2144 
Q 1053 2284 737 2584 
Q 422 2884 422 3419 
Q 422 4038 858 4394 
Q 1294 4750 2059 4750 
Q 2388 4750 2728 4690 
Q 3069 4631 3425 4513 
z
" transform="scale(0.015625)"/>
      <path id="DejaVuSans-69" d="M 603 3500 
L 1178 3500 
L 1178 0 
L 603 0 
L 603 3500 
z
M 603 4863 
L 1178 4863 
L 1178 4134 
L 603 4134 
L 603 4863 
z
" transform="scale(0.015625)"/>
      <path id="DejaVuSans-65" d="M 3597 1894 
L 3597 1613 
L 953 1613 
Q 991 1019 1311 708 
Q 1631 397 2203 397 
Q 2534 397 2845 478 
Q 3156 559 3463 722 
L 3463 178 
Q 3153 47 2828 -22 
Q 2503 -91 2169 -91 
Q 1331 -91 842 396 
Q 353 884 353 1716 
Q 353 2575 817 3079 
Q 1281 3584 2069 3584 
Q 2775 3584 3186 3129 
Q 3597 2675 3597 1894 
z
M 3022 2063 
Q 3016 2534 2758 2815 
Q 2500 3097 2075 3097 
Q 1594 3097 1305 2825 
Q 1016 2553 972 2059 
L 3022 2063 
z
" transform="scale(0.015625)"/>
      <path id="DejaVuSans-64" d="M 2906 2969 
L 2906 4863 
L 3481 4863 
L 3481 0 
L 2906 0 
L 2906 525 
Q 2725 213 2448 61 
Q 2172 -91 1784 -91 
Q 1150 -91 751 415 
Q 353 922 353 1747 
Q 353 2572 751 3078 
Q 1150 3584 1784 3584 
Q 2172 3584 2448 3432 
Q 2725 3281 2906 2969 
z
M 947 1747 
Q 947 1113 1208 752 
Q 1469 391 1925 391 
Q 2381 391 2643 752 
Q 2906 1113 2906 1747 
Q 2906 2381 2643 2742 
Q 2381 3103 1925 3103 
Q 1469 3103 1208 2742 
Q 947 2381 947 1747 
z
" transform="scale(0.015625)"/>
      <path id="DejaVuSans-41" d="M 2188 4044 
L 1331 1722 
L 3047 1722 
L 2188 4044 
z
M 1831 4666 
L 2547 4666 
L 4325 0 
L 3669 0 
L 3244 1197 
L 1141 1197 
L 716 0 
L 50 0 
L 1831 4666 
z
" transform="scale(0.015625)"/>
      <path id="DejaVuSans-67" d="M 2906 1791 
Q 2906 2416 2648 2759 
Q 2391 3103 1925 3103 
Q 1463 3103 1205 2759 
Q 947 2416 947 1791 
Q 947 1169 1205 825 
Q 1463 481 1925 481 
Q 2391 481 2648 825 
Q 2906 1169 2906 1791 
z
M 3481 434 
Q 3481 -459 3084 -895 
Q 2688 -1331 1869 -1331 
Q 1566 -1331 1297 -1286 
Q 1028 -1241 775 -1147 
L 775 -588 
Q 1028 -725 1275 -790 
Q 1522 -856 1778 -856 
Q 2344 -856 2625 -561 
Q 2906 -266 2906 331 
L 2906 616 
Q 2728 306 2450 153 
Q 2172 0 1784 0 
Q 1141 0 747 490 
Q 353 981 353 1791 
Q 353 2603 747 3093 
Q 1141 3584 1784 3584 
Q 2172 3584 2450 3431 
Q 2728 3278 2906 2969 
L 2906 3500 
L 3481 3500 
L 3481 434 
z
" transform="scale(0.015625)"/>
      <path id="DejaVuSans-43" d="M 4122 4306 
L 4122 3641 
Q 3803 3938 3442 4084 
Q 3081 4231 2675 4231 
Q 1875 4231 1450 3742 
Q 1025 3253 1025 2328 
Q 1025 1406 1450 917 
Q 1875 428 2675 428 
Q 3081 428 3442 575 
Q 3803 722 4122 1019 
L 4122 359 
Q 3791 134 3420 21 
Q 3050 -91 2638 -91 
Q 1578 -91 968 557 
Q 359 1206 359 2328 
Q 359 3453 968 4101 
Q 1578 4750 2638 4750 
Q 3056 4750 3426 4639 
Q 3797 4528 4122 4306 
z
" transform="scale(0.015625)"/>
     </defs>
     <use xlink:href="#DejaVuSans-53"/>
     <use xlink:href="#DejaVuSans-69" x="63.476562"/>
     <use xlink:href="#DejaVuSans-6d" x="91.259766"/>
     <use xlink:href="#DejaVuSans-75" x="188.671875"/>
     <use xlink:href="#DejaVuSans-6c" x="252.050781"/>
     <use xlink:href="#DejaVuSans-61" x="279.833984"/>
     <use xlink:href="#DejaVuSans-74" x="341.113281"/>
     <use xlink:href="#DejaVuSans-65" x="380.322266"/>
     <use xlink:href="#DejaVuSans-64" x="441.845703"/>
     <use xlink:href="#DejaVuSans-20" x="505.322266"/>
     <use xlink:href="#DejaVuSans-41" x="537.109375"/>
     <use xlink:href="#DejaVuSans-6e" x="605.517578"/>
     <use xlink:href="#DejaVuSans-65" x="668.896484"/>
     <use xlink:href="#DejaVuSans-61" x="730.419922"/>
     <use xlink:href="#DejaVuSans-6c" x="791.699219"/>
     <use xlink:href="#DejaVuSans-6c" x="819.482422"/>
     <use xlink:href="#DejaVuSans-69" x="847.265625"/>
     <use xlink:href="#DejaVuSans-6e" x="875.048828"/>
     <use xlink:href="#DejaVuSans-67" x="938.427734"/>
     <use xlink:href="#DejaVuSans-20" x="1001.904297"/>
     <use xlink:href="#DejaVuSans-43" x="1033.691406"/>
     <use xlink:href="#DejaVuSans-6f" x="1103.515625"/>
     <use xlink:href="#DejaVuSans-73" x="1164.697266"/>
     <use xlink:href="#DejaVuSans-74" x="1216.796875"/>
    </g>
   </g>
  </g>
 </g>
 <defs>
  <clipPath id="pf7e9c88b6e">
   <rect x="57.6" y="41.472" width="357.12" height="266.112"/>
  </clipPath>
 </defs>
</svg>
