<?xml version="1.0" encoding="utf-8" standalone="no"?>
<!DOCTYPE svg PUBLIC "-//W3C//DTD SVG 1.1//EN"
  "http://www.w3.org/Graphics/SVG/1.1/DTD/svg11.dtd">
<svg xmlns:xlink="http://www.w3.org/1999/xlink" width="460.8pt" height="345.6pt" viewBox="0 0 460.8 345.6" xmlns="http://www.w3.org/2000/svg" version="1.1">
 <metadata>
  <rdf:RDF xmlns:dc="http://purl.org/dc/elements/1.1/" xmlns:cc="http://creativecommons.org/ns#" xmlns:rdf="http://www.w3.org/1999/02/22-rdf-syntax-ns#">
   <cc:Work>
    <dc:type rdf:resource="http://purl.org/dc/dcmitype/StillImage"/>
    <dc:date>2022-06-01T08:07:47.732846</dc:date>
    <dc:format>image/svg+xml</dc:format>
    <dc:creator>
     <cc:Agent>
      <dc:title>Matplotlib v3.5.1, https://matplotlib.org/</dc:title>
     </cc:Agent>
    </dc:creator>
   </cc:Work>
  </rdf:RDF>
 </metadata>
 <defs>
  <style type="text/css">*{stroke-linejoin: round; stroke-linecap: butt}</style>
 </defs>
 <g id="figure_1">
  <g id="patch_1">
   <path d="M 0 345.6 
L 460.8 345.6 
L 460.8 0 
L 0 0 
z
" style="fill: #ffffff"/>
  </g>
  <g id="axes_1">
   <g id="patch_2">
    <path d="M 57.6 307.584 
L 414.72 307.584 
L 414.72 41.472 
L 57.6 41.472 
z
" style="fill: #ffffff"/>
   </g>
   <g id="matplotlib.axis_1">
    <g id="xtick_1">
     <g id="line2d_1">
      <defs>
       <path id="mf6ab5c467f" d="M 0 0 
L 0 3.5 
" style="stroke: #000000; stroke-width: 0.8"/>
      </defs>
      <g>
       <use xlink:href="#mf6ab5c467f" x="73.832727" y="307.584" style="stroke: #000000; stroke-width: 0.8"/>
      </g>
     </g>
     <g id="text_1">
      <!-- 0 -->
      <g transform="translate(70.651477 322.182437)scale(0.1 -0.1)">
       <defs>
        <path id="DejaVuSans-30" d="M 2034 4250 
Q 1547 4250 1301 3770 
Q 1056 3291 1056 2328 
Q 1056 1369 1301 889 
Q 1547 409 2034 409 
Q 2525 409 2770 889 
Q 3016 1369 3016 2328 
Q 3016 3291 2770 3770 
Q 2525 4250 2034 4250 
z
M 2034 4750 
Q 2819 4750 3233 4129 
Q 3647 3509 3647 2328 
Q 3647 1150 3233 529 
Q 2819 -91 2034 -91 
Q 1250 -91 836 529 
Q 422 1150 422 2328 
Q 422 3509 836 4129 
Q 1250 4750 2034 4750 
z
" transform="scale(0.015625)"/>
       </defs>
       <use xlink:href="#DejaVuSans-30"/>
      </g>
     </g>
    </g>
    <g id="xtick_2">
     <g id="line2d_2">
      <g>
       <use xlink:href="#mf6ab5c467f" x="137.867154" y="307.584" style="stroke: #000000; stroke-width: 0.8"/>
      </g>
     </g>
     <g id="text_2">
      <!-- 200 -->
      <g transform="translate(128.323404 322.182437)scale(0.1 -0.1)">
       <defs>
        <path id="DejaVuSans-32" d="M 1228 531 
L 3431 531 
L 3431 0 
L 469 0 
L 469 531 
Q 828 903 1448 1529 
Q 2069 2156 2228 2338 
Q 2531 2678 2651 2914 
Q 2772 3150 2772 3378 
Q 2772 3750 2511 3984 
Q 2250 4219 1831 4219 
Q 1534 4219 1204 4116 
Q 875 4013 500 3803 
L 500 4441 
Q 881 4594 1212 4672 
Q 1544 4750 1819 4750 
Q 2544 4750 2975 4387 
Q 3406 4025 3406 3419 
Q 3406 3131 3298 2873 
Q 3191 2616 2906 2266 
Q 2828 2175 2409 1742 
Q 1991 1309 1228 531 
z
" transform="scale(0.015625)"/>
       </defs>
       <use xlink:href="#DejaVuSans-32"/>
       <use xlink:href="#DejaVuSans-30" x="63.623047"/>
       <use xlink:href="#DejaVuSans-30" x="127.246094"/>
      </g>
     </g>
    </g>
    <g id="xtick_3">
     <g id="line2d_3">
      <g>
       <use xlink:href="#mf6ab5c467f" x="201.901581" y="307.584" style="stroke: #000000; stroke-width: 0.8"/>
      </g>
     </g>
     <g id="text_3">
      <!-- 400 -->
      <g transform="translate(192.357831 322.182437)scale(0.1 -0.1)">
       <defs>
        <path id="DejaVuSans-34" d="M 2419 4116 
L 825 1625 
L 2419 1625 
L 2419 4116 
z
M 2253 4666 
L 3047 4666 
L 3047 1625 
L 3713 1625 
L 3713 1100 
L 3047 1100 
L 3047 0 
L 2419 0 
L 2419 1100 
L 313 1100 
L 313 1709 
L 2253 4666 
z
" transform="scale(0.015625)"/>
       </defs>
       <use xlink:href="#DejaVuSans-34"/>
       <use xlink:href="#DejaVuSans-30" x="63.623047"/>
       <use xlink:href="#DejaVuSans-30" x="127.246094"/>
      </g>
     </g>
    </g>
    <g id="xtick_4">
     <g id="line2d_4">
      <g>
       <use xlink:href="#mf6ab5c467f" x="265.936009" y="307.584" style="stroke: #000000; stroke-width: 0.8"/>
      </g>
     </g>
     <g id="text_4">
      <!-- 600 -->
      <g transform="translate(256.392259 322.182437)scale(0.1 -0.1)">
       <defs>
        <path id="DejaVuSans-36" d="M 2113 2584 
Q 1688 2584 1439 2293 
Q 1191 2003 1191 1497 
Q 1191 994 1439 701 
Q 1688 409 2113 409 
Q 2538 409 2786 701 
Q 3034 994 3034 1497 
Q 3034 2003 2786 2293 
Q 2538 2584 2113 2584 
z
M 3366 4563 
L 3366 3988 
Q 3128 4100 2886 4159 
Q 2644 4219 2406 4219 
Q 1781 4219 1451 3797 
Q 1122 3375 1075 2522 
Q 1259 2794 1537 2939 
Q 1816 3084 2150 3084 
Q 2853 3084 3261 2657 
Q 3669 2231 3669 1497 
Q 3669 778 3244 343 
Q 2819 -91 2113 -91 
Q 1303 -91 875 529 
Q 447 1150 447 2328 
Q 447 3434 972 4092 
Q 1497 4750 2381 4750 
Q 2619 4750 2861 4703 
Q 3103 4656 3366 4563 
z
" transform="scale(0.015625)"/>
       </defs>
       <use xlink:href="#DejaVuSans-36"/>
       <use xlink:href="#DejaVuSans-30" x="63.623047"/>
       <use xlink:href="#DejaVuSans-30" x="127.246094"/>
      </g>
     </g>
    </g>
    <g id="xtick_5">
     <g id="line2d_5">
      <g>
       <use xlink:href="#mf6ab5c467f" x="329.970436" y="307.584" style="stroke: #000000; stroke-width: 0.8"/>
      </g>
     </g>
     <g id="text_5">
      <!-- 800 -->
      <g transform="translate(320.426686 322.182437)scale(0.1 -0.1)">
       <defs>
        <path id="DejaVuSans-38" d="M 2034 2216 
Q 1584 2216 1326 1975 
Q 1069 1734 1069 1313 
Q 1069 891 1326 650 
Q 1584 409 2034 409 
Q 2484 409 2743 651 
Q 3003 894 3003 1313 
Q 3003 1734 2745 1975 
Q 2488 2216 2034 2216 
z
M 1403 2484 
Q 997 2584 770 2862 
Q 544 3141 544 3541 
Q 544 4100 942 4425 
Q 1341 4750 2034 4750 
Q 2731 4750 3128 4425 
Q 3525 4100 3525 3541 
Q 3525 3141 3298 2862 
Q 3072 2584 2669 2484 
Q 3125 2378 3379 2068 
Q 3634 1759 3634 1313 
Q 3634 634 3220 271 
Q 2806 -91 2034 -91 
Q 1263 -91 848 271 
Q 434 634 434 1313 
Q 434 1759 690 2068 
Q 947 2378 1403 2484 
z
M 1172 3481 
Q 1172 3119 1398 2916 
Q 1625 2713 2034 2713 
Q 2441 2713 2670 2916 
Q 2900 3119 2900 3481 
Q 2900 3844 2670 4047 
Q 2441 4250 2034 4250 
Q 1625 4250 1398 4047 
Q 1172 3844 1172 3481 
z
" transform="scale(0.015625)"/>
       </defs>
       <use xlink:href="#DejaVuSans-38"/>
       <use xlink:href="#DejaVuSans-30" x="63.623047"/>
       <use xlink:href="#DejaVuSans-30" x="127.246094"/>
      </g>
     </g>
    </g>
    <g id="xtick_6">
     <g id="line2d_6">
      <g>
       <use xlink:href="#mf6ab5c467f" x="394.004863" y="307.584" style="stroke: #000000; stroke-width: 0.8"/>
      </g>
     </g>
     <g id="text_6">
      <!-- 1000 -->
      <g transform="translate(381.279863 322.182437)scale(0.1 -0.1)">
       <defs>
        <path id="DejaVuSans-31" d="M 794 531 
L 1825 531 
L 1825 4091 
L 703 3866 
L 703 4441 
L 1819 4666 
L 2450 4666 
L 2450 531 
L 3481 531 
L 3481 0 
L 794 0 
L 794 531 
z
" transform="scale(0.015625)"/>
       </defs>
       <use xlink:href="#DejaVuSans-31"/>
       <use xlink:href="#DejaVuSans-30" x="63.623047"/>
       <use xlink:href="#DejaVuSans-30" x="127.246094"/>
       <use xlink:href="#DejaVuSans-30" x="190.869141"/>
      </g>
     </g>
    </g>
    <g id="text_7">
     <!-- num swaps -->
     <g transform="translate(207.826406 335.860562)scale(0.1 -0.1)">
      <defs>
       <path id="DejaVuSans-6e" d="M 3513 2113 
L 3513 0 
L 2938 0 
L 2938 2094 
Q 2938 2591 2744 2837 
Q 2550 3084 2163 3084 
Q 1697 3084 1428 2787 
Q 1159 2491 1159 1978 
L 1159 0 
L 581 0 
L 581 3500 
L 1159 3500 
L 1159 2956 
Q 1366 3272 1645 3428 
Q 1925 3584 2291 3584 
Q 2894 3584 3203 3211 
Q 3513 2838 3513 2113 
z
" transform="scale(0.015625)"/>
       <path id="DejaVuSans-75" d="M 544 1381 
L 544 3500 
L 1119 3500 
L 1119 1403 
Q 1119 906 1312 657 
Q 1506 409 1894 409 
Q 2359 409 2629 706 
Q 2900 1003 2900 1516 
L 2900 3500 
L 3475 3500 
L 3475 0 
L 2900 0 
L 2900 538 
Q 2691 219 2414 64 
Q 2138 -91 1772 -91 
Q 1169 -91 856 284 
Q 544 659 544 1381 
z
M 1991 3584 
L 1991 3584 
z
" transform="scale(0.015625)"/>
       <path id="DejaVuSans-6d" d="M 3328 2828 
Q 3544 3216 3844 3400 
Q 4144 3584 4550 3584 
Q 5097 3584 5394 3201 
Q 5691 2819 5691 2113 
L 5691 0 
L 5113 0 
L 5113 2094 
Q 5113 2597 4934 2840 
Q 4756 3084 4391 3084 
Q 3944 3084 3684 2787 
Q 3425 2491 3425 1978 
L 3425 0 
L 2847 0 
L 2847 2094 
Q 2847 2600 2669 2842 
Q 2491 3084 2119 3084 
Q 1678 3084 1418 2786 
Q 1159 2488 1159 1978 
L 1159 0 
L 581 0 
L 581 3500 
L 1159 3500 
L 1159 2956 
Q 1356 3278 1631 3431 
Q 1906 3584 2284 3584 
Q 2666 3584 2933 3390 
Q 3200 3197 3328 2828 
z
" transform="scale(0.015625)"/>
       <path id="DejaVuSans-20" transform="scale(0.015625)"/>
       <path id="DejaVuSans-73" d="M 2834 3397 
L 2834 2853 
Q 2591 2978 2328 3040 
Q 2066 3103 1784 3103 
Q 1356 3103 1142 2972 
Q 928 2841 928 2578 
Q 928 2378 1081 2264 
Q 1234 2150 1697 2047 
L 1894 2003 
Q 2506 1872 2764 1633 
Q 3022 1394 3022 966 
Q 3022 478 2636 193 
Q 2250 -91 1575 -91 
Q 1294 -91 989 -36 
Q 684 19 347 128 
L 347 722 
Q 666 556 975 473 
Q 1284 391 1588 391 
Q 1994 391 2212 530 
Q 2431 669 2431 922 
Q 2431 1156 2273 1281 
Q 2116 1406 1581 1522 
L 1381 1569 
Q 847 1681 609 1914 
Q 372 2147 372 2553 
Q 372 3047 722 3315 
Q 1072 3584 1716 3584 
Q 2034 3584 2315 3537 
Q 2597 3491 2834 3397 
z
" transform="scale(0.015625)"/>
       <path id="DejaVuSans-77" d="M 269 3500 
L 844 3500 
L 1563 769 
L 2278 3500 
L 2956 3500 
L 3675 769 
L 4391 3500 
L 4966 3500 
L 4050 0 
L 3372 0 
L 2619 2869 
L 1863 0 
L 1184 0 
L 269 3500 
z
" transform="scale(0.015625)"/>
       <path id="DejaVuSans-61" d="M 2194 1759 
Q 1497 1759 1228 1600 
Q 959 1441 959 1056 
Q 959 750 1161 570 
Q 1363 391 1709 391 
Q 2188 391 2477 730 
Q 2766 1069 2766 1631 
L 2766 1759 
L 2194 1759 
z
M 3341 1997 
L 3341 0 
L 2766 0 
L 2766 531 
Q 2569 213 2275 61 
Q 1981 -91 1556 -91 
Q 1019 -91 701 211 
Q 384 513 384 1019 
Q 384 1609 779 1909 
Q 1175 2209 1959 2209 
L 2766 2209 
L 2766 2266 
Q 2766 2663 2505 2880 
Q 2244 3097 1772 3097 
Q 1472 3097 1187 3025 
Q 903 2953 641 2809 
L 641 3341 
Q 956 3463 1253 3523 
Q 1550 3584 1831 3584 
Q 2591 3584 2966 3190 
Q 3341 2797 3341 1997 
z
" transform="scale(0.015625)"/>
       <path id="DejaVuSans-70" d="M 1159 525 
L 1159 -1331 
L 581 -1331 
L 581 3500 
L 1159 3500 
L 1159 2969 
Q 1341 3281 1617 3432 
Q 1894 3584 2278 3584 
Q 2916 3584 3314 3078 
Q 3713 2572 3713 1747 
Q 3713 922 3314 415 
Q 2916 -91 2278 -91 
Q 1894 -91 1617 61 
Q 1341 213 1159 525 
z
M 3116 1747 
Q 3116 2381 2855 2742 
Q 2594 3103 2138 3103 
Q 1681 3103 1420 2742 
Q 1159 2381 1159 1747 
Q 1159 1113 1420 752 
Q 1681 391 2138 391 
Q 2594 391 2855 752 
Q 3116 1113 3116 1747 
z
" transform="scale(0.015625)"/>
      </defs>
      <use xlink:href="#DejaVuSans-6e"/>
      <use xlink:href="#DejaVuSans-75" x="63.378906"/>
      <use xlink:href="#DejaVuSans-6d" x="126.757812"/>
      <use xlink:href="#DejaVuSans-20" x="224.169922"/>
      <use xlink:href="#DejaVuSans-73" x="255.957031"/>
      <use xlink:href="#DejaVuSans-77" x="308.056641"/>
      <use xlink:href="#DejaVuSans-61" x="389.84375"/>
      <use xlink:href="#DejaVuSans-70" x="451.123047"/>
      <use xlink:href="#DejaVuSans-73" x="514.599609"/>
     </g>
    </g>
   </g>
   <g id="matplotlib.axis_2">
    <g id="ytick_1">
     <g id="line2d_7">
      <defs>
       <path id="me9879482da" d="M 0 0 
L -3.5 0 
" style="stroke: #000000; stroke-width: 0.8"/>
      </defs>
      <g>
       <use xlink:href="#me9879482da" x="57.6" y="291.275463" style="stroke: #000000; stroke-width: 0.8"/>
      </g>
     </g>
     <g id="text_8">
      <!-- 1600 -->
      <g transform="translate(25.15 295.074681)scale(0.1 -0.1)">
       <use xlink:href="#DejaVuSans-31"/>
       <use xlink:href="#DejaVuSans-36" x="63.623047"/>
       <use xlink:href="#DejaVuSans-30" x="127.246094"/>
       <use xlink:href="#DejaVuSans-30" x="190.869141"/>
      </g>
     </g>
    </g>
    <g id="ytick_2">
     <g id="line2d_8">
      <g>
       <use xlink:href="#me9879482da" x="57.6" y="261.18591" style="stroke: #000000; stroke-width: 0.8"/>
      </g>
     </g>
     <g id="text_9">
      <!-- 1650 -->
      <g transform="translate(25.15 264.985129)scale(0.1 -0.1)">
       <defs>
        <path id="DejaVuSans-35" d="M 691 4666 
L 3169 4666 
L 3169 4134 
L 1269 4134 
L 1269 2991 
Q 1406 3038 1543 3061 
Q 1681 3084 1819 3084 
Q 2600 3084 3056 2656 
Q 3513 2228 3513 1497 
Q 3513 744 3044 326 
Q 2575 -91 1722 -91 
Q 1428 -91 1123 -41 
Q 819 9 494 109 
L 494 744 
Q 775 591 1075 516 
Q 1375 441 1709 441 
Q 2250 441 2565 725 
Q 2881 1009 2881 1497 
Q 2881 1984 2565 2268 
Q 2250 2553 1709 2553 
Q 1456 2553 1204 2497 
Q 953 2441 691 2322 
L 691 4666 
z
" transform="scale(0.015625)"/>
       </defs>
       <use xlink:href="#DejaVuSans-31"/>
       <use xlink:href="#DejaVuSans-36" x="63.623047"/>
       <use xlink:href="#DejaVuSans-35" x="127.246094"/>
       <use xlink:href="#DejaVuSans-30" x="190.869141"/>
      </g>
     </g>
    </g>
    <g id="ytick_3">
     <g id="line2d_9">
      <g>
       <use xlink:href="#me9879482da" x="57.6" y="231.096358" style="stroke: #000000; stroke-width: 0.8"/>
      </g>
     </g>
     <g id="text_10">
      <!-- 1700 -->
      <g transform="translate(25.15 234.895577)scale(0.1 -0.1)">
       <defs>
        <path id="DejaVuSans-37" d="M 525 4666 
L 3525 4666 
L 3525 4397 
L 1831 0 
L 1172 0 
L 2766 4134 
L 525 4134 
L 525 4666 
z
" transform="scale(0.015625)"/>
       </defs>
       <use xlink:href="#DejaVuSans-31"/>
       <use xlink:href="#DejaVuSans-37" x="63.623047"/>
       <use xlink:href="#DejaVuSans-30" x="127.246094"/>
       <use xlink:href="#DejaVuSans-30" x="190.869141"/>
      </g>
     </g>
    </g>
    <g id="ytick_4">
     <g id="line2d_10">
      <g>
       <use xlink:href="#me9879482da" x="57.6" y="201.006806" style="stroke: #000000; stroke-width: 0.8"/>
      </g>
     </g>
     <g id="text_11">
      <!-- 1750 -->
      <g transform="translate(25.15 204.806025)scale(0.1 -0.1)">
       <use xlink:href="#DejaVuSans-31"/>
       <use xlink:href="#DejaVuSans-37" x="63.623047"/>
       <use xlink:href="#DejaVuSans-35" x="127.246094"/>
       <use xlink:href="#DejaVuSans-30" x="190.869141"/>
      </g>
     </g>
    </g>
    <g id="ytick_5">
     <g id="line2d_11">
      <g>
       <use xlink:href="#me9879482da" x="57.6" y="170.917254" style="stroke: #000000; stroke-width: 0.8"/>
      </g>
     </g>
     <g id="text_12">
      <!-- 1800 -->
      <g transform="translate(25.15 174.716472)scale(0.1 -0.1)">
       <use xlink:href="#DejaVuSans-31"/>
       <use xlink:href="#DejaVuSans-38" x="63.623047"/>
       <use xlink:href="#DejaVuSans-30" x="127.246094"/>
       <use xlink:href="#DejaVuSans-30" x="190.869141"/>
      </g>
     </g>
    </g>
    <g id="ytick_6">
     <g id="line2d_12">
      <g>
       <use xlink:href="#me9879482da" x="57.6" y="140.827701" style="stroke: #000000; stroke-width: 0.8"/>
      </g>
     </g>
     <g id="text_13">
      <!-- 1850 -->
      <g transform="translate(25.15 144.62692)scale(0.1 -0.1)">
       <use xlink:href="#DejaVuSans-31"/>
       <use xlink:href="#DejaVuSans-38" x="63.623047"/>
       <use xlink:href="#DejaVuSans-35" x="127.246094"/>
       <use xlink:href="#DejaVuSans-30" x="190.869141"/>
      </g>
     </g>
    </g>
    <g id="ytick_7">
     <g id="line2d_13">
      <g>
       <use xlink:href="#me9879482da" x="57.6" y="110.738149" style="stroke: #000000; stroke-width: 0.8"/>
      </g>
     </g>
     <g id="text_14">
      <!-- 1900 -->
      <g transform="translate(25.15 114.537368)scale(0.1 -0.1)">
       <defs>
        <path id="DejaVuSans-39" d="M 703 97 
L 703 672 
Q 941 559 1184 500 
Q 1428 441 1663 441 
Q 2288 441 2617 861 
Q 2947 1281 2994 2138 
Q 2813 1869 2534 1725 
Q 2256 1581 1919 1581 
Q 1219 1581 811 2004 
Q 403 2428 403 3163 
Q 403 3881 828 4315 
Q 1253 4750 1959 4750 
Q 2769 4750 3195 4129 
Q 3622 3509 3622 2328 
Q 3622 1225 3098 567 
Q 2575 -91 1691 -91 
Q 1453 -91 1209 -44 
Q 966 3 703 97 
z
M 1959 2075 
Q 2384 2075 2632 2365 
Q 2881 2656 2881 3163 
Q 2881 3666 2632 3958 
Q 2384 4250 1959 4250 
Q 1534 4250 1286 3958 
Q 1038 3666 1038 3163 
Q 1038 2656 1286 2365 
Q 1534 2075 1959 2075 
z
" transform="scale(0.015625)"/>
       </defs>
       <use xlink:href="#DejaVuSans-31"/>
       <use xlink:href="#DejaVuSans-39" x="63.623047"/>
       <use xlink:href="#DejaVuSans-30" x="127.246094"/>
       <use xlink:href="#DejaVuSans-30" x="190.869141"/>
      </g>
     </g>
    </g>
    <g id="ytick_8">
     <g id="line2d_14">
      <g>
       <use xlink:href="#me9879482da" x="57.6" y="80.648597" style="stroke: #000000; stroke-width: 0.8"/>
      </g>
     </g>
     <g id="text_15">
      <!-- 1950 -->
      <g transform="translate(25.15 84.447816)scale(0.1 -0.1)">
       <use xlink:href="#DejaVuSans-31"/>
       <use xlink:href="#DejaVuSans-39" x="63.623047"/>
       <use xlink:href="#DejaVuSans-35" x="127.246094"/>
       <use xlink:href="#DejaVuSans-30" x="190.869141"/>
      </g>
     </g>
    </g>
    <g id="ytick_9">
     <g id="line2d_15">
      <g>
       <use xlink:href="#me9879482da" x="57.6" y="50.559045" style="stroke: #000000; stroke-width: 0.8"/>
      </g>
     </g>
     <g id="text_16">
      <!-- 2000 -->
      <g transform="translate(25.15 54.358264)scale(0.1 -0.1)">
       <use xlink:href="#DejaVuSans-32"/>
       <use xlink:href="#DejaVuSans-30" x="63.623047"/>
       <use xlink:href="#DejaVuSans-30" x="127.246094"/>
       <use xlink:href="#DejaVuSans-30" x="190.869141"/>
      </g>
     </g>
    </g>
    <g id="text_17">
     <!-- total cost -->
     <g transform="translate(19.070312 197.923313)rotate(-90)scale(0.1 -0.1)">
      <defs>
       <path id="DejaVuSans-74" d="M 1172 4494 
L 1172 3500 
L 2356 3500 
L 2356 3053 
L 1172 3053 
L 1172 1153 
Q 1172 725 1289 603 
Q 1406 481 1766 481 
L 2356 481 
L 2356 0 
L 1766 0 
Q 1100 0 847 248 
Q 594 497 594 1153 
L 594 3053 
L 172 3053 
L 172 3500 
L 594 3500 
L 594 4494 
L 1172 4494 
z
" transform="scale(0.015625)"/>
       <path id="DejaVuSans-6f" d="M 1959 3097 
Q 1497 3097 1228 2736 
Q 959 2375 959 1747 
Q 959 1119 1226 758 
Q 1494 397 1959 397 
Q 2419 397 2687 759 
Q 2956 1122 2956 1747 
Q 2956 2369 2687 2733 
Q 2419 3097 1959 3097 
z
M 1959 3584 
Q 2709 3584 3137 3096 
Q 3566 2609 3566 1747 
Q 3566 888 3137 398 
Q 2709 -91 1959 -91 
Q 1206 -91 779 398 
Q 353 888 353 1747 
Q 353 2609 779 3096 
Q 1206 3584 1959 3584 
z
" transform="scale(0.015625)"/>
       <path id="DejaVuSans-6c" d="M 603 4863 
L 1178 4863 
L 1178 0 
L 603 0 
L 603 4863 
z
" transform="scale(0.015625)"/>
       <path id="DejaVuSans-63" d="M 3122 3366 
L 3122 2828 
Q 2878 2963 2633 3030 
Q 2388 3097 2138 3097 
Q 1578 3097 1268 2742 
Q 959 2388 959 1747 
Q 959 1106 1268 751 
Q 1578 397 2138 397 
Q 2388 397 2633 464 
Q 2878 531 3122 666 
L 3122 134 
Q 2881 22 2623 -34 
Q 2366 -91 2075 -91 
Q 1284 -91 818 406 
Q 353 903 353 1747 
Q 353 2603 823 3093 
Q 1294 3584 2113 3584 
Q 2378 3584 2631 3529 
Q 2884 3475 3122 3366 
z
" transform="scale(0.015625)"/>
      </defs>
      <use xlink:href="#DejaVuSans-74"/>
      <use xlink:href="#DejaVuSans-6f" x="39.208984"/>
      <use xlink:href="#DejaVuSans-74" x="100.390625"/>
      <use xlink:href="#DejaVuSans-61" x="139.599609"/>
      <use xlink:href="#DejaVuSans-6c" x="200.878906"/>
      <use xlink:href="#DejaVuSans-20" x="228.662109"/>
      <use xlink:href="#DejaVuSans-63" x="260.449219"/>
      <use xlink:href="#DejaVuSans-6f" x="315.429688"/>
      <use xlink:href="#DejaVuSans-73" x="376.611328"/>
      <use xlink:href="#DejaVuSans-74" x="428.710938"/>
     </g>
    </g>
   </g>
   <g id="line2d_16">
    <path d="M 73.832727 170.315463 
L 74.473072 173.926209 
L 75.113416 164.297552 
L 75.75376 190.174567 
L 76.394104 181.749493 
L 77.034449 208.228299 
L 77.674793 207.024716 
L 78.315137 205.219343 
L 78.955481 172.120836 
L 79.595826 198.599642 
L 80.23617 166.102925 
L 80.876514 173.324418 
L 81.516859 165.501134 
L 82.157203 160.085015 
L 82.797547 178.740537 
L 83.437891 184.758448 
L 84.078236 189.572776 
L 84.71858 178.740537 
L 85.358924 178.138746 
L 85.999268 179.944119 
L 86.639613 185.96203 
L 87.279957 185.360239 
L 87.920301 188.369194 
L 88.560646 222.069493 
L 89.20099 204.617552 
L 89.841334 219.060537 
L 90.481678 215.449791 
L 91.122023 223.874866 
L 91.762367 220.264119 
L 92.402711 207.024716 
L 93.043055 200.405015 
L 93.6834 189.572776 
L 94.323744 192.581731 
L 94.964088 187.767403 
L 95.604432 202.210388 
L 96.244777 201.608597 
L 96.885121 202.210388 
L 98.16581 243.73397 
L 98.806154 246.141134 
L 99.446498 227.485612 
L 100.086842 213.042627 
L 100.727187 211.237254 
L 101.367531 210.635463 
L 102.007875 197.39606 
L 102.648219 222.069493 
L 103.288564 220.86591 
L 103.928908 204.015761 
L 104.569252 208.228299 
L 105.209597 205.219343 
L 105.849941 182.351284 
L 106.490285 199.201433 
L 107.130629 198.599642 
L 107.770974 192.581731 
L 108.411318 181.147701 
L 109.051662 182.351284 
L 109.692006 199.201433 
L 110.972695 226.28203 
L 111.613039 213.042627 
L 112.253384 222.671284 
L 112.893728 218.458746 
L 113.534072 222.069493 
L 114.174416 219.060537 
L 114.814761 222.671284 
L 115.455105 202.210388 
L 116.095449 172.120836 
L 116.735793 176.935164 
L 117.376138 169.111881 
L 118.016482 164.297552 
L 118.656826 146.845612 
L 119.297171 140.22591 
L 120.577859 173.926209 
L 121.858548 188.369194 
L 122.498892 171.519045 
L 123.77958 157.677851 
L 124.419925 129.995463 
L 125.060269 129.995463 
L 125.700613 133.004418 
L 126.340958 133.606209 
L 127.621646 124.579343 
L 128.26199 137.818746 
L 128.902335 145.64203 
L 129.542679 190.776358 
L 130.183023 198.599642 
L 130.823367 193.785313 
L 131.463712 205.821134 
L 132.104056 205.219343 
L 132.7444 199.201433 
L 133.384744 195.590687 
L 134.025089 194.988896 
L 134.665433 192.581731 
L 135.305777 217.856955 
L 135.946122 201.608597 
L 136.586466 211.237254 
L 137.22681 207.024716 
L 137.867154 231.096358 
L 138.507499 235.910687 
L 139.147843 252.159045 
L 139.788187 262.389493 
L 140.428531 276.230687 
L 141.068876 266.000239 
L 142.349564 255.168 
L 142.989909 247.344716 
L 143.630253 247.344716 
L 144.270597 250.353672 
L 144.910941 256.371582 
L 145.551286 246.141134 
L 146.19163 249.751881 
L 146.831974 245.539343 
L 147.472318 232.29994 
L 148.112663 215.449791 
L 148.753007 241.326806 
L 149.393351 241.928597 
L 150.033696 238.919642 
L 150.67404 182.351284 
L 151.314384 157.07606 
L 151.954728 137.216955 
L 152.595073 145.040239 
L 153.235417 156.474269 
L 153.875761 178.138746 
L 154.516105 167.908299 
L 155.15645 135.411582 
L 155.796794 137.818746 
L 156.437138 139.022328 
L 157.077483 126.986507 
L 157.717827 117.357851 
L 158.358171 126.384716 
L 158.998515 120.968597 
L 159.63886 152.863522 
L 160.279204 153.465313 
L 161.559892 173.926209 
L 162.200237 160.686806 
L 162.840581 156.474269 
L 163.480925 158.279642 
L 164.121269 182.351284 
L 165.401958 169.111881 
L 166.042302 172.120836 
L 166.682647 178.138746 
L 167.322991 181.749493 
L 167.963335 192.581731 
L 168.603679 197.997851 
L 169.244024 216.051582 
L 169.884368 227.485612 
L 170.524712 223.874866 
L 171.165056 226.883821 
L 171.805401 222.671284 
L 172.445745 208.83009 
L 173.086089 210.033672 
L 173.726434 178.740537 
L 175.007122 163.09397 
L 175.647466 165.501134 
L 176.287811 96.295164 
L 176.928155 104.720239 
L 177.568499 103.516657 
L 178.208843 96.896955 
L 178.849188 100.507701 
L 179.489532 99.304119 
L 180.129876 102.914866 
L 180.770221 110.136358 
L 181.410565 102.914866 
L 182.050909 122.77397 
L 182.691253 132.402627 
L 183.331598 127.588299 
L 183.971942 119.163224 
L 184.612286 117.959642 
L 185.25263 112.543522 
L 185.892975 119.765015 
L 186.533319 71.01994 
L 187.173663 72.825313 
L 187.814008 85.462925 
L 188.454352 77.037851 
L 189.094696 81.250388 
L 189.73504 53.568 
L 190.375385 68.010985 
L 191.015729 68.010985 
L 191.656073 72.825313 
L 192.296417 95.693373 
L 192.936762 96.295164 
L 193.577106 117.357851 
L 194.21745 111.941731 
L 194.857795 97.498746 
L 195.498139 263.593075 
L 196.138483 261.787701 
L 196.778827 232.901731 
L 197.419172 232.901731 
L 198.059516 195.590687 
L 198.69986 190.174567 
L 199.340204 204.015761 
L 199.980549 208.228299 
L 200.620893 202.210388 
L 201.261237 202.812179 
L 201.901581 211.839045 
L 202.541926 218.458746 
L 203.18227 209.431881 
L 203.822614 210.635463 
L 204.462959 208.83009 
L 205.103303 197.39606 
L 205.743647 196.192478 
L 206.383991 196.192478 
L 207.024336 197.39606 
L 207.66468 201.608597 
L 208.305024 192.581731 
L 208.945368 191.378149 
L 209.585713 210.635463 
L 210.226057 222.671284 
L 210.866401 209.431881 
L 211.506746 222.069493 
L 212.14709 229.892776 
L 213.427778 205.219343 
L 214.068123 206.422925 
L 214.708467 213.644418 
L 215.348811 200.405015 
L 215.989155 218.458746 
L 216.6295 191.97994 
L 217.269844 198.599642 
L 217.910188 212.440836 
L 218.550533 216.653373 
L 219.190877 208.228299 
L 219.831221 209.431881 
L 220.471565 222.069493 
L 221.11191 225.078448 
L 221.752254 224.476657 
L 222.392598 225.078448 
L 223.032942 236.512478 
L 223.673287 219.662328 
L 224.313631 229.892776 
L 224.953975 249.15009 
L 225.59432 246.742925 
L 226.234664 237.114269 
L 227.515352 226.883821 
L 228.155697 196.192478 
L 228.796041 218.458746 
L 229.436385 211.839045 
L 230.076729 208.228299 
L 230.717074 193.785313 
L 231.357418 167.306507 
L 231.997762 184.156657 
L 232.638107 179.342328 
L 233.278451 156.474269 
L 233.918795 166.102925 
L 234.559139 162.492179 
L 235.839828 210.635463 
L 236.480172 213.042627 
L 237.120516 211.839045 
L 237.760861 221.467701 
L 238.401205 205.821134 
L 239.041549 195.590687 
L 239.681893 170.917254 
L 240.322238 170.917254 
L 240.962582 191.378149 
L 241.602926 198.599642 
L 242.243271 175.731582 
L 242.883615 181.147701 
L 244.164303 228.087403 
L 244.804648 197.997851 
L 245.444992 211.237254 
L 246.085336 214.246209 
L 246.72568 213.042627 
L 247.366025 214.246209 
L 248.006369 216.653373 
L 248.646713 209.431881 
L 249.287058 208.228299 
L 249.927402 222.671284 
L 250.567746 203.41397 
L 251.20809 196.192478 
L 251.848435 205.219343 
L 252.488779 219.060537 
L 253.129123 242.530388 
L 253.769467 225.680239 
L 254.409812 220.264119 
L 255.050156 226.883821 
L 255.6905 226.883821 
L 256.330845 235.308896 
L 256.971189 237.71606 
L 257.611533 237.114269 
L 258.251877 235.910687 
L 258.892222 216.653373 
L 259.532566 228.689194 
L 260.17291 208.228299 
L 260.813254 208.83009 
L 261.453599 207.626507 
L 262.093943 212.440836 
L 262.734287 252.760836 
L 263.374632 240.725015 
L 264.014976 221.467701 
L 264.65532 232.901731 
L 265.295664 226.883821 
L 265.936009 241.928597 
L 266.576353 232.29994 
L 267.216697 237.114269 
L 267.857041 240.123224 
L 268.497386 234.105313 
L 269.13773 223.273075 
L 269.778074 229.892776 
L 270.418419 228.689194 
L 271.058763 259.982328 
L 271.699107 266.000239 
L 272.339451 263.593075 
L 272.979796 278.637851 
L 273.62014 285.859343 
L 274.260484 267.805612 
L 274.900828 266.60203 
L 275.541173 263.593075 
L 276.181517 258.176955 
L 276.821861 258.176955 
L 278.10255 245.539343 
L 278.742894 222.671284 
L 279.383238 248.548299 
L 280.023583 257.575164 
L 280.663927 240.725015 
L 281.304271 261.18591 
L 281.944615 266.60203 
L 282.58496 243.73397 
L 283.225304 241.326806 
L 284.505992 212.440836 
L 285.146337 209.431881 
L 285.786681 226.883821 
L 286.427025 223.874866 
L 287.06737 232.29994 
L 287.707714 237.71606 
L 288.348058 241.326806 
L 288.988402 261.18591 
L 289.628747 276.832478 
L 290.269091 275.628896 
L 290.909435 281.646806 
L 291.549779 285.859343 
L 292.190124 278.03606 
L 292.830468 267.805612 
L 293.470812 275.628896 
L 294.111157 295.488 
L 294.751501 281.045015 
L 295.391845 275.027104 
L 296.032189 267.805612 
L 296.672534 273.823522 
L 297.312878 269.009194 
L 297.953222 269.610985 
L 298.593566 266.000239 
L 299.233911 267.203821 
L 299.874255 258.778746 
L 300.514599 262.389493 
L 301.154944 251.557254 
L 301.795288 256.973373 
L 302.435632 256.973373 
L 303.075976 242.530388 
L 303.716321 262.991284 
L 304.356665 262.991284 
L 304.997009 269.009194 
L 305.637353 280.443224 
L 306.277698 285.257552 
L 306.918042 266.000239 
L 307.558386 256.973373 
L 308.198731 259.380537 
L 308.839075 256.973373 
L 309.479419 234.105313 
L 310.119763 228.689194 
L 311.400452 253.964418 
L 312.040796 256.973373 
L 312.68114 249.751881 
L 313.321485 249.751881 
L 313.961829 234.105313 
L 314.602173 229.290985 
L 315.242517 220.264119 
L 315.882862 228.689194 
L 316.523206 217.255164 
L 317.16355 225.680239 
L 317.803895 237.71606 
L 318.444239 252.159045 
L 319.084583 250.955463 
L 319.724927 252.159045 
L 320.365272 241.326806 
L 321.005616 250.353672 
L 321.64596 253.964418 
L 322.286304 266.000239 
L 322.926649 261.18591 
L 323.566993 252.159045 
L 324.207337 252.159045 
L 324.847682 251.557254 
L 325.488026 267.203821 
L 326.12837 259.982328 
L 326.768714 256.371582 
L 327.409059 255.769791 
L 328.049403 249.751881 
L 328.689747 226.883821 
L 329.330091 211.839045 
L 329.970436 222.069493 
L 330.61078 228.689194 
L 331.251124 217.255164 
L 331.891469 213.644418 
L 332.531813 216.051582 
L 333.172157 202.210388 
L 333.812501 201.006806 
L 334.452846 214.246209 
L 335.09319 213.644418 
L 335.733534 233.503522 
L 337.014223 210.033672 
L 337.654567 205.219343 
L 338.294911 226.28203 
L 340.215944 204.617552 
L 340.856288 211.839045 
L 341.496633 205.821134 
L 342.136977 231.096358 
L 342.777321 223.874866 
L 343.417665 219.060537 
L 344.05801 224.476657 
L 344.698354 225.680239 
L 345.338698 223.273075 
L 345.979042 223.273075 
L 346.619387 205.821134 
L 347.259731 218.458746 
L 347.900075 204.015761 
L 348.54042 223.273075 
L 349.180764 220.264119 
L 350.461452 240.123224 
L 351.101797 236.512478 
L 351.742141 230.494567 
L 352.382485 239.521433 
L 353.663174 269.610985 
L 354.303518 271.416358 
L 355.584207 222.671284 
L 356.224551 227.485612 
L 356.864895 231.096358 
L 357.505239 218.458746 
L 358.145584 193.183522 
L 358.785928 198.599642 
L 359.426272 195.590687 
L 360.066616 198.599642 
L 360.706961 219.060537 
L 361.347305 221.467701 
L 361.987649 219.662328 
L 362.627994 196.794269 
L 363.268338 217.856955 
L 363.908682 228.689194 
L 364.549026 229.892776 
L 365.189371 199.803224 
L 365.829715 229.892776 
L 366.470059 236.512478 
L 367.110403 235.308896 
L 367.750748 235.308896 
L 368.391092 258.778746 
L 369.031436 261.18591 
L 369.671781 276.230687 
L 370.312125 216.051582 
L 370.952469 229.290985 
L 371.592813 210.033672 
L 372.233158 178.138746 
L 372.873502 184.156657 
L 373.513846 195.590687 
L 374.15419 213.644418 
L 374.794535 278.637851 
L 375.434879 262.389493 
L 376.075223 260.584119 
L 376.715568 264.194866 
L 377.355912 264.796657 
L 377.996256 274.425313 
L 378.6366 268.407403 
L 379.276945 247.946507 
L 379.917289 249.15009 
L 380.557633 235.910687 
L 381.197977 228.689194 
L 381.838322 205.821134 
L 382.478666 209.431881 
L 383.11901 192.581731 
L 383.759354 202.210388 
L 384.399699 202.210388 
L 385.040043 204.617552 
L 385.680387 208.228299 
L 386.320732 208.228299 
L 386.961076 204.617552 
L 387.60142 205.821134 
L 388.241764 182.953075 
L 388.882109 199.201433 
L 389.522453 226.883821 
L 390.162797 216.051582 
L 390.803141 224.476657 
L 391.443486 208.83009 
L 392.08383 180.54591 
L 392.724174 197.997851 
L 393.364519 208.83009 
L 394.004863 226.883821 
L 394.645207 239.521433 
L 395.285551 242.530388 
L 395.925896 240.123224 
L 396.56624 238.919642 
L 397.206584 238.317851 
L 397.846928 241.326806 
L 398.487273 241.326806 
L 398.487273 241.326806 
" clip-path="url(#p3b184a33aa)" style="fill: none; stroke: #1f77b4; stroke-width: 1.5; stroke-linecap: square"/>
   </g>
   <g id="patch_3">
    <path d="M 57.6 307.584 
L 57.6 41.472 
" style="fill: none; stroke: #000000; stroke-width: 0.8; stroke-linejoin: miter; stroke-linecap: square"/>
   </g>
   <g id="patch_4">
    <path d="M 414.72 307.584 
L 414.72 41.472 
" style="fill: none; stroke: #000000; stroke-width: 0.8; stroke-linejoin: miter; stroke-linecap: square"/>
   </g>
   <g id="patch_5">
    <path d="M 57.6 307.584 
L 414.72 307.584 
" style="fill: none; stroke: #000000; stroke-width: 0.8; stroke-linejoin: miter; stroke-linecap: square"/>
   </g>
   <g id="patch_6">
    <path d="M 57.6 41.472 
L 414.72 41.472 
" style="fill: none; stroke: #000000; stroke-width: 0.8; stroke-linejoin: miter; stroke-linecap: square"/>
   </g>
   <g id="text_18">
    <!-- Simulated Anealling Cost -->
    <g transform="translate(160.8 35.472)scale(0.12 -0.12)">
     <defs>
      <path id="DejaVuSans-53" d="M 3425 4513 
L 3425 3897 
Q 3066 4069 2747 4153 
Q 2428 4238 2131 4238 
Q 1616 4238 1336 4038 
Q 1056 3838 1056 3469 
Q 1056 3159 1242 3001 
Q 1428 2844 1947 2747 
L 2328 2669 
Q 3034 2534 3370 2195 
Q 3706 1856 3706 1288 
Q 3706 609 3251 259 
Q 2797 -91 1919 -91 
Q 1588 -91 1214 -16 
Q 841 59 441 206 
L 441 856 
Q 825 641 1194 531 
Q 1563 422 1919 422 
Q 2459 422 2753 634 
Q 3047 847 3047 1241 
Q 3047 1584 2836 1778 
Q 2625 1972 2144 2069 
L 1759 2144 
Q 1053 2284 737 2584 
Q 422 2884 422 3419 
Q 422 4038 858 4394 
Q 1294 4750 2059 4750 
Q 2388 4750 2728 4690 
Q 3069 4631 3425 4513 
z
" transform="scale(0.015625)"/>
      <path id="DejaVuSans-69" d="M 603 3500 
L 1178 3500 
L 1178 0 
L 603 0 
L 603 3500 
z
M 603 4863 
L 1178 4863 
L 1178 4134 
L 603 4134 
L 603 4863 
z
" transform="scale(0.015625)"/>
      <path id="DejaVuSans-65" d="M 3597 1894 
L 3597 1613 
L 953 1613 
Q 991 1019 1311 708 
Q 1631 397 2203 397 
Q 2534 397 2845 478 
Q 3156 559 3463 722 
L 3463 178 
Q 3153 47 2828 -22 
Q 2503 -91 2169 -91 
Q 1331 -91 842 396 
Q 353 884 353 1716 
Q 353 2575 817 3079 
Q 1281 3584 2069 3584 
Q 2775 3584 3186 3129 
Q 3597 2675 3597 1894 
z
M 3022 2063 
Q 3016 2534 2758 2815 
Q 2500 3097 2075 3097 
Q 1594 3097 1305 2825 
Q 1016 2553 972 2059 
L 3022 2063 
z
" transform="scale(0.015625)"/>
      <path id="DejaVuSans-64" d="M 2906 2969 
L 2906 4863 
L 3481 4863 
L 3481 0 
L 2906 0 
L 2906 525 
Q 2725 213 2448 61 
Q 2172 -91 1784 -91 
Q 1150 -91 751 415 
Q 353 922 353 1747 
Q 353 2572 751 3078 
Q 1150 3584 1784 3584 
Q 2172 3584 2448 3432 
Q 2725 3281 2906 2969 
z
M 947 1747 
Q 947 1113 1208 752 
Q 1469 391 1925 391 
Q 2381 391 2643 752 
Q 2906 1113 2906 1747 
Q 2906 2381 2643 2742 
Q 2381 3103 1925 3103 
Q 1469 3103 1208 2742 
Q 947 2381 947 1747 
z
" transform="scale(0.015625)"/>
      <path id="DejaVuSans-41" d="M 2188 4044 
L 1331 1722 
L 3047 1722 
L 2188 4044 
z
M 1831 4666 
L 2547 4666 
L 4325 0 
L 3669 0 
L 3244 1197 
L 1141 1197 
L 716 0 
L 50 0 
L 1831 4666 
z
" transform="scale(0.015625)"/>
      <path id="DejaVuSans-67" d="M 2906 1791 
Q 2906 2416 2648 2759 
Q 2391 3103 1925 3103 
Q 1463 3103 1205 2759 
Q 947 2416 947 1791 
Q 947 1169 1205 825 
Q 1463 481 1925 481 
Q 2391 481 2648 825 
Q 2906 1169 2906 1791 
z
M 3481 434 
Q 3481 -459 3084 -895 
Q 2688 -1331 1869 -1331 
Q 1566 -1331 1297 -1286 
Q 1028 -1241 775 -1147 
L 775 -588 
Q 1028 -725 1275 -790 
Q 1522 -856 1778 -856 
Q 2344 -856 2625 -561 
Q 2906 -266 2906 331 
L 2906 616 
Q 2728 306 2450 153 
Q 2172 0 1784 0 
Q 1141 0 747 490 
Q 353 981 353 1791 
Q 353 2603 747 3093 
Q 1141 3584 1784 3584 
Q 2172 3584 2450 3431 
Q 2728 3278 2906 2969 
L 2906 3500 
L 3481 3500 
L 3481 434 
z
" transform="scale(0.015625)"/>
      <path id="DejaVuSans-43" d="M 4122 4306 
L 4122 3641 
Q 3803 3938 3442 4084 
Q 3081 4231 2675 4231 
Q 1875 4231 1450 3742 
Q 1025 3253 1025 2328 
Q 1025 1406 1450 917 
Q 1875 428 2675 428 
Q 3081 428 3442 575 
Q 3803 722 4122 1019 
L 4122 359 
Q 3791 134 3420 21 
Q 3050 -91 2638 -91 
Q 1578 -91 968 557 
Q 359 1206 359 2328 
Q 359 3453 968 4101 
Q 1578 4750 2638 4750 
Q 3056 4750 3426 4639 
Q 3797 4528 4122 4306 
z
" transform="scale(0.015625)"/>
     </defs>
     <use xlink:href="#DejaVuSans-53"/>
     <use xlink:href="#DejaVuSans-69" x="63.476562"/>
     <use xlink:href="#DejaVuSans-6d" x="91.259766"/>
     <use xlink:href="#DejaVuSans-75" x="188.671875"/>
     <use xlink:href="#DejaVuSans-6c" x="252.050781"/>
     <use xlink:href="#DejaVuSans-61" x="279.833984"/>
     <use xlink:href="#DejaVuSans-74" x="341.113281"/>
     <use xlink:href="#DejaVuSans-65" x="380.322266"/>
     <use xlink:href="#DejaVuSans-64" x="441.845703"/>
     <use xlink:href="#DejaVuSans-20" x="505.322266"/>
     <use xlink:href="#DejaVuSans-41" x="537.109375"/>
     <use xlink:href="#DejaVuSans-6e" x="605.517578"/>
     <use xlink:href="#DejaVuSans-65" x="668.896484"/>
     <use xlink:href="#DejaVuSans-61" x="730.419922"/>
     <use xlink:href="#DejaVuSans-6c" x="791.699219"/>
     <use xlink:href="#DejaVuSans-6c" x="819.482422"/>
     <use xlink:href="#DejaVuSans-69" x="847.265625"/>
     <use xlink:href="#DejaVuSans-6e" x="875.048828"/>
     <use xlink:href="#DejaVuSans-67" x="938.427734"/>
     <use xlink:href="#DejaVuSans-20" x="1001.904297"/>
     <use xlink:href="#DejaVuSans-43" x="1033.691406"/>
     <use xlink:href="#DejaVuSans-6f" x="1103.515625"/>
     <use xlink:href="#DejaVuSans-73" x="1164.697266"/>
     <use xlink:href="#DejaVuSans-74" x="1216.796875"/>
    </g>
   </g>
  </g>
 </g>
 <defs>
  <clipPath id="p3b184a33aa">
   <rect x="57.6" y="41.472" width="357.12" height="266.112"/>
  </clipPath>
 </defs>
</svg>
