<?xml version="1.0" encoding="utf-8" standalone="no"?>
<!DOCTYPE svg PUBLIC "-//W3C//DTD SVG 1.1//EN"
  "http://www.w3.org/Graphics/SVG/1.1/DTD/svg11.dtd">
<svg xmlns:xlink="http://www.w3.org/1999/xlink" width="460.8pt" height="345.6pt" viewBox="0 0 460.8 345.6" xmlns="http://www.w3.org/2000/svg" version="1.1">
 <metadata>
  <rdf:RDF xmlns:dc="http://purl.org/dc/elements/1.1/" xmlns:cc="http://creativecommons.org/ns#" xmlns:rdf="http://www.w3.org/1999/02/22-rdf-syntax-ns#">
   <cc:Work>
    <dc:type rdf:resource="http://purl.org/dc/dcmitype/StillImage"/>
    <dc:date>2022-06-01T08:07:50.211417</dc:date>
    <dc:format>image/svg+xml</dc:format>
    <dc:creator>
     <cc:Agent>
      <dc:title>Matplotlib v3.5.1, https://matplotlib.org/</dc:title>
     </cc:Agent>
    </dc:creator>
   </cc:Work>
  </rdf:RDF>
 </metadata>
 <defs>
  <style type="text/css">*{stroke-linejoin: round; stroke-linecap: butt}</style>
 </defs>
 <g id="figure_1">
  <g id="patch_1">
   <path d="M 0 345.6 
L 460.8 345.6 
L 460.8 0 
L 0 0 
z
" style="fill: #ffffff"/>
  </g>
  <g id="axes_1">
   <g id="patch_2">
    <path d="M 57.6 307.584 
L 414.72 307.584 
L 414.72 41.472 
L 57.6 41.472 
z
" style="fill: #ffffff"/>
   </g>
   <g id="matplotlib.axis_1">
    <g id="xtick_1">
     <g id="line2d_1">
      <defs>
       <path id="m1493bcfff8" d="M 0 0 
L 0 3.5 
" style="stroke: #000000; stroke-width: 0.8"/>
      </defs>
      <g>
       <use xlink:href="#m1493bcfff8" x="73.832727" y="307.584" style="stroke: #000000; stroke-width: 0.8"/>
      </g>
     </g>
     <g id="text_1">
      <!-- 0 -->
      <g transform="translate(70.651477 322.182437)scale(0.1 -0.1)">
       <defs>
        <path id="DejaVuSans-30" d="M 2034 4250 
Q 1547 4250 1301 3770 
Q 1056 3291 1056 2328 
Q 1056 1369 1301 889 
Q 1547 409 2034 409 
Q 2525 409 2770 889 
Q 3016 1369 3016 2328 
Q 3016 3291 2770 3770 
Q 2525 4250 2034 4250 
z
M 2034 4750 
Q 2819 4750 3233 4129 
Q 3647 3509 3647 2328 
Q 3647 1150 3233 529 
Q 2819 -91 2034 -91 
Q 1250 -91 836 529 
Q 422 1150 422 2328 
Q 422 3509 836 4129 
Q 1250 4750 2034 4750 
z
" transform="scale(0.015625)"/>
       </defs>
       <use xlink:href="#DejaVuSans-30"/>
      </g>
     </g>
    </g>
    <g id="xtick_2">
     <g id="line2d_2">
      <g>
       <use xlink:href="#m1493bcfff8" x="114.374004" y="307.584" style="stroke: #000000; stroke-width: 0.8"/>
      </g>
     </g>
     <g id="text_2">
      <!-- 250 -->
      <g transform="translate(104.830254 322.182437)scale(0.1 -0.1)">
       <defs>
        <path id="DejaVuSans-32" d="M 1228 531 
L 3431 531 
L 3431 0 
L 469 0 
L 469 531 
Q 828 903 1448 1529 
Q 2069 2156 2228 2338 
Q 2531 2678 2651 2914 
Q 2772 3150 2772 3378 
Q 2772 3750 2511 3984 
Q 2250 4219 1831 4219 
Q 1534 4219 1204 4116 
Q 875 4013 500 3803 
L 500 4441 
Q 881 4594 1212 4672 
Q 1544 4750 1819 4750 
Q 2544 4750 2975 4387 
Q 3406 4025 3406 3419 
Q 3406 3131 3298 2873 
Q 3191 2616 2906 2266 
Q 2828 2175 2409 1742 
Q 1991 1309 1228 531 
z
" transform="scale(0.015625)"/>
        <path id="DejaVuSans-35" d="M 691 4666 
L 3169 4666 
L 3169 4134 
L 1269 4134 
L 1269 2991 
Q 1406 3038 1543 3061 
Q 1681 3084 1819 3084 
Q 2600 3084 3056 2656 
Q 3513 2228 3513 1497 
Q 3513 744 3044 326 
Q 2575 -91 1722 -91 
Q 1428 -91 1123 -41 
Q 819 9 494 109 
L 494 744 
Q 775 591 1075 516 
Q 1375 441 1709 441 
Q 2250 441 2565 725 
Q 2881 1009 2881 1497 
Q 2881 1984 2565 2268 
Q 2250 2553 1709 2553 
Q 1456 2553 1204 2497 
Q 953 2441 691 2322 
L 691 4666 
z
" transform="scale(0.015625)"/>
       </defs>
       <use xlink:href="#DejaVuSans-32"/>
       <use xlink:href="#DejaVuSans-35" x="63.623047"/>
       <use xlink:href="#DejaVuSans-30" x="127.246094"/>
      </g>
     </g>
    </g>
    <g id="xtick_3">
     <g id="line2d_3">
      <g>
       <use xlink:href="#m1493bcfff8" x="154.915281" y="307.584" style="stroke: #000000; stroke-width: 0.8"/>
      </g>
     </g>
     <g id="text_3">
      <!-- 500 -->
      <g transform="translate(145.371531 322.182437)scale(0.1 -0.1)">
       <use xlink:href="#DejaVuSans-35"/>
       <use xlink:href="#DejaVuSans-30" x="63.623047"/>
       <use xlink:href="#DejaVuSans-30" x="127.246094"/>
      </g>
     </g>
    </g>
    <g id="xtick_4">
     <g id="line2d_4">
      <g>
       <use xlink:href="#m1493bcfff8" x="195.456558" y="307.584" style="stroke: #000000; stroke-width: 0.8"/>
      </g>
     </g>
     <g id="text_4">
      <!-- 750 -->
      <g transform="translate(185.912808 322.182437)scale(0.1 -0.1)">
       <defs>
        <path id="DejaVuSans-37" d="M 525 4666 
L 3525 4666 
L 3525 4397 
L 1831 0 
L 1172 0 
L 2766 4134 
L 525 4134 
L 525 4666 
z
" transform="scale(0.015625)"/>
       </defs>
       <use xlink:href="#DejaVuSans-37"/>
       <use xlink:href="#DejaVuSans-35" x="63.623047"/>
       <use xlink:href="#DejaVuSans-30" x="127.246094"/>
      </g>
     </g>
    </g>
    <g id="xtick_5">
     <g id="line2d_5">
      <g>
       <use xlink:href="#m1493bcfff8" x="235.997835" y="307.584" style="stroke: #000000; stroke-width: 0.8"/>
      </g>
     </g>
     <g id="text_5">
      <!-- 1000 -->
      <g transform="translate(223.272835 322.182437)scale(0.1 -0.1)">
       <defs>
        <path id="DejaVuSans-31" d="M 794 531 
L 1825 531 
L 1825 4091 
L 703 3866 
L 703 4441 
L 1819 4666 
L 2450 4666 
L 2450 531 
L 3481 531 
L 3481 0 
L 794 0 
L 794 531 
z
" transform="scale(0.015625)"/>
       </defs>
       <use xlink:href="#DejaVuSans-31"/>
       <use xlink:href="#DejaVuSans-30" x="63.623047"/>
       <use xlink:href="#DejaVuSans-30" x="127.246094"/>
       <use xlink:href="#DejaVuSans-30" x="190.869141"/>
      </g>
     </g>
    </g>
    <g id="xtick_6">
     <g id="line2d_6">
      <g>
       <use xlink:href="#m1493bcfff8" x="276.539112" y="307.584" style="stroke: #000000; stroke-width: 0.8"/>
      </g>
     </g>
     <g id="text_6">
      <!-- 1250 -->
      <g transform="translate(263.814112 322.182437)scale(0.1 -0.1)">
       <use xlink:href="#DejaVuSans-31"/>
       <use xlink:href="#DejaVuSans-32" x="63.623047"/>
       <use xlink:href="#DejaVuSans-35" x="127.246094"/>
       <use xlink:href="#DejaVuSans-30" x="190.869141"/>
      </g>
     </g>
    </g>
    <g id="xtick_7">
     <g id="line2d_7">
      <g>
       <use xlink:href="#m1493bcfff8" x="317.080389" y="307.584" style="stroke: #000000; stroke-width: 0.8"/>
      </g>
     </g>
     <g id="text_7">
      <!-- 1500 -->
      <g transform="translate(304.355389 322.182437)scale(0.1 -0.1)">
       <use xlink:href="#DejaVuSans-31"/>
       <use xlink:href="#DejaVuSans-35" x="63.623047"/>
       <use xlink:href="#DejaVuSans-30" x="127.246094"/>
       <use xlink:href="#DejaVuSans-30" x="190.869141"/>
      </g>
     </g>
    </g>
    <g id="xtick_8">
     <g id="line2d_8">
      <g>
       <use xlink:href="#m1493bcfff8" x="357.621666" y="307.584" style="stroke: #000000; stroke-width: 0.8"/>
      </g>
     </g>
     <g id="text_8">
      <!-- 1750 -->
      <g transform="translate(344.896666 322.182437)scale(0.1 -0.1)">
       <use xlink:href="#DejaVuSans-31"/>
       <use xlink:href="#DejaVuSans-37" x="63.623047"/>
       <use xlink:href="#DejaVuSans-35" x="127.246094"/>
       <use xlink:href="#DejaVuSans-30" x="190.869141"/>
      </g>
     </g>
    </g>
    <g id="xtick_9">
     <g id="line2d_9">
      <g>
       <use xlink:href="#m1493bcfff8" x="398.162943" y="307.584" style="stroke: #000000; stroke-width: 0.8"/>
      </g>
     </g>
     <g id="text_9">
      <!-- 2000 -->
      <g transform="translate(385.437943 322.182437)scale(0.1 -0.1)">
       <use xlink:href="#DejaVuSans-32"/>
       <use xlink:href="#DejaVuSans-30" x="63.623047"/>
       <use xlink:href="#DejaVuSans-30" x="127.246094"/>
       <use xlink:href="#DejaVuSans-30" x="190.869141"/>
      </g>
     </g>
    </g>
    <g id="text_10">
     <!-- num swaps -->
     <g transform="translate(207.826406 335.860562)scale(0.1 -0.1)">
      <defs>
       <path id="DejaVuSans-6e" d="M 3513 2113 
L 3513 0 
L 2938 0 
L 2938 2094 
Q 2938 2591 2744 2837 
Q 2550 3084 2163 3084 
Q 1697 3084 1428 2787 
Q 1159 2491 1159 1978 
L 1159 0 
L 581 0 
L 581 3500 
L 1159 3500 
L 1159 2956 
Q 1366 3272 1645 3428 
Q 1925 3584 2291 3584 
Q 2894 3584 3203 3211 
Q 3513 2838 3513 2113 
z
" transform="scale(0.015625)"/>
       <path id="DejaVuSans-75" d="M 544 1381 
L 544 3500 
L 1119 3500 
L 1119 1403 
Q 1119 906 1312 657 
Q 1506 409 1894 409 
Q 2359 409 2629 706 
Q 2900 1003 2900 1516 
L 2900 3500 
L 3475 3500 
L 3475 0 
L 2900 0 
L 2900 538 
Q 2691 219 2414 64 
Q 2138 -91 1772 -91 
Q 1169 -91 856 284 
Q 544 659 544 1381 
z
M 1991 3584 
L 1991 3584 
z
" transform="scale(0.015625)"/>
       <path id="DejaVuSans-6d" d="M 3328 2828 
Q 3544 3216 3844 3400 
Q 4144 3584 4550 3584 
Q 5097 3584 5394 3201 
Q 5691 2819 5691 2113 
L 5691 0 
L 5113 0 
L 5113 2094 
Q 5113 2597 4934 2840 
Q 4756 3084 4391 3084 
Q 3944 3084 3684 2787 
Q 3425 2491 3425 1978 
L 3425 0 
L 2847 0 
L 2847 2094 
Q 2847 2600 2669 2842 
Q 2491 3084 2119 3084 
Q 1678 3084 1418 2786 
Q 1159 2488 1159 1978 
L 1159 0 
L 581 0 
L 581 3500 
L 1159 3500 
L 1159 2956 
Q 1356 3278 1631 3431 
Q 1906 3584 2284 3584 
Q 2666 3584 2933 3390 
Q 3200 3197 3328 2828 
z
" transform="scale(0.015625)"/>
       <path id="DejaVuSans-20" transform="scale(0.015625)"/>
       <path id="DejaVuSans-73" d="M 2834 3397 
L 2834 2853 
Q 2591 2978 2328 3040 
Q 2066 3103 1784 3103 
Q 1356 3103 1142 2972 
Q 928 2841 928 2578 
Q 928 2378 1081 2264 
Q 1234 2150 1697 2047 
L 1894 2003 
Q 2506 1872 2764 1633 
Q 3022 1394 3022 966 
Q 3022 478 2636 193 
Q 2250 -91 1575 -91 
Q 1294 -91 989 -36 
Q 684 19 347 128 
L 347 722 
Q 666 556 975 473 
Q 1284 391 1588 391 
Q 1994 391 2212 530 
Q 2431 669 2431 922 
Q 2431 1156 2273 1281 
Q 2116 1406 1581 1522 
L 1381 1569 
Q 847 1681 609 1914 
Q 372 2147 372 2553 
Q 372 3047 722 3315 
Q 1072 3584 1716 3584 
Q 2034 3584 2315 3537 
Q 2597 3491 2834 3397 
z
" transform="scale(0.015625)"/>
       <path id="DejaVuSans-77" d="M 269 3500 
L 844 3500 
L 1563 769 
L 2278 3500 
L 2956 3500 
L 3675 769 
L 4391 3500 
L 4966 3500 
L 4050 0 
L 3372 0 
L 2619 2869 
L 1863 0 
L 1184 0 
L 269 3500 
z
" transform="scale(0.015625)"/>
       <path id="DejaVuSans-61" d="M 2194 1759 
Q 1497 1759 1228 1600 
Q 959 1441 959 1056 
Q 959 750 1161 570 
Q 1363 391 1709 391 
Q 2188 391 2477 730 
Q 2766 1069 2766 1631 
L 2766 1759 
L 2194 1759 
z
M 3341 1997 
L 3341 0 
L 2766 0 
L 2766 531 
Q 2569 213 2275 61 
Q 1981 -91 1556 -91 
Q 1019 -91 701 211 
Q 384 513 384 1019 
Q 384 1609 779 1909 
Q 1175 2209 1959 2209 
L 2766 2209 
L 2766 2266 
Q 2766 2663 2505 2880 
Q 2244 3097 1772 3097 
Q 1472 3097 1187 3025 
Q 903 2953 641 2809 
L 641 3341 
Q 956 3463 1253 3523 
Q 1550 3584 1831 3584 
Q 2591 3584 2966 3190 
Q 3341 2797 3341 1997 
z
" transform="scale(0.015625)"/>
       <path id="DejaVuSans-70" d="M 1159 525 
L 1159 -1331 
L 581 -1331 
L 581 3500 
L 1159 3500 
L 1159 2969 
Q 1341 3281 1617 3432 
Q 1894 3584 2278 3584 
Q 2916 3584 3314 3078 
Q 3713 2572 3713 1747 
Q 3713 922 3314 415 
Q 2916 -91 2278 -91 
Q 1894 -91 1617 61 
Q 1341 213 1159 525 
z
M 3116 1747 
Q 3116 2381 2855 2742 
Q 2594 3103 2138 3103 
Q 1681 3103 1420 2742 
Q 1159 2381 1159 1747 
Q 1159 1113 1420 752 
Q 1681 391 2138 391 
Q 2594 391 2855 752 
Q 3116 1113 3116 1747 
z
" transform="scale(0.015625)"/>
      </defs>
      <use xlink:href="#DejaVuSans-6e"/>
      <use xlink:href="#DejaVuSans-75" x="63.378906"/>
      <use xlink:href="#DejaVuSans-6d" x="126.757812"/>
      <use xlink:href="#DejaVuSans-20" x="224.169922"/>
      <use xlink:href="#DejaVuSans-73" x="255.957031"/>
      <use xlink:href="#DejaVuSans-77" x="308.056641"/>
      <use xlink:href="#DejaVuSans-61" x="389.84375"/>
      <use xlink:href="#DejaVuSans-70" x="451.123047"/>
      <use xlink:href="#DejaVuSans-73" x="514.599609"/>
     </g>
    </g>
   </g>
   <g id="matplotlib.axis_2">
    <g id="ytick_1">
     <g id="line2d_10">
      <defs>
       <path id="m3f31796ef6" d="M 0 0 
L -3.5 0 
" style="stroke: #000000; stroke-width: 0.8"/>
      </defs>
      <g>
       <use xlink:href="#m3f31796ef6" x="57.6" y="277.568" style="stroke: #000000; stroke-width: 0.8"/>
      </g>
     </g>
     <g id="text_11">
      <!-- 250 -->
      <g transform="translate(31.5125 281.367219)scale(0.1 -0.1)">
       <use xlink:href="#DejaVuSans-32"/>
       <use xlink:href="#DejaVuSans-35" x="63.623047"/>
       <use xlink:href="#DejaVuSans-30" x="127.246094"/>
      </g>
     </g>
    </g>
    <g id="ytick_2">
     <g id="line2d_11">
      <g>
       <use xlink:href="#m3f31796ef6" x="57.6" y="232.768" style="stroke: #000000; stroke-width: 0.8"/>
      </g>
     </g>
     <g id="text_12">
      <!-- 260 -->
      <g transform="translate(31.5125 236.567219)scale(0.1 -0.1)">
       <defs>
        <path id="DejaVuSans-36" d="M 2113 2584 
Q 1688 2584 1439 2293 
Q 1191 2003 1191 1497 
Q 1191 994 1439 701 
Q 1688 409 2113 409 
Q 2538 409 2786 701 
Q 3034 994 3034 1497 
Q 3034 2003 2786 2293 
Q 2538 2584 2113 2584 
z
M 3366 4563 
L 3366 3988 
Q 3128 4100 2886 4159 
Q 2644 4219 2406 4219 
Q 1781 4219 1451 3797 
Q 1122 3375 1075 2522 
Q 1259 2794 1537 2939 
Q 1816 3084 2150 3084 
Q 2853 3084 3261 2657 
Q 3669 2231 3669 1497 
Q 3669 778 3244 343 
Q 2819 -91 2113 -91 
Q 1303 -91 875 529 
Q 447 1150 447 2328 
Q 447 3434 972 4092 
Q 1497 4750 2381 4750 
Q 2619 4750 2861 4703 
Q 3103 4656 3366 4563 
z
" transform="scale(0.015625)"/>
       </defs>
       <use xlink:href="#DejaVuSans-32"/>
       <use xlink:href="#DejaVuSans-36" x="63.623047"/>
       <use xlink:href="#DejaVuSans-30" x="127.246094"/>
      </g>
     </g>
    </g>
    <g id="ytick_3">
     <g id="line2d_12">
      <g>
       <use xlink:href="#m3f31796ef6" x="57.6" y="187.968" style="stroke: #000000; stroke-width: 0.8"/>
      </g>
     </g>
     <g id="text_13">
      <!-- 270 -->
      <g transform="translate(31.5125 191.767219)scale(0.1 -0.1)">
       <use xlink:href="#DejaVuSans-32"/>
       <use xlink:href="#DejaVuSans-37" x="63.623047"/>
       <use xlink:href="#DejaVuSans-30" x="127.246094"/>
      </g>
     </g>
    </g>
    <g id="ytick_4">
     <g id="line2d_13">
      <g>
       <use xlink:href="#m3f31796ef6" x="57.6" y="143.168" style="stroke: #000000; stroke-width: 0.8"/>
      </g>
     </g>
     <g id="text_14">
      <!-- 280 -->
      <g transform="translate(31.5125 146.967219)scale(0.1 -0.1)">
       <defs>
        <path id="DejaVuSans-38" d="M 2034 2216 
Q 1584 2216 1326 1975 
Q 1069 1734 1069 1313 
Q 1069 891 1326 650 
Q 1584 409 2034 409 
Q 2484 409 2743 651 
Q 3003 894 3003 1313 
Q 3003 1734 2745 1975 
Q 2488 2216 2034 2216 
z
M 1403 2484 
Q 997 2584 770 2862 
Q 544 3141 544 3541 
Q 544 4100 942 4425 
Q 1341 4750 2034 4750 
Q 2731 4750 3128 4425 
Q 3525 4100 3525 3541 
Q 3525 3141 3298 2862 
Q 3072 2584 2669 2484 
Q 3125 2378 3379 2068 
Q 3634 1759 3634 1313 
Q 3634 634 3220 271 
Q 2806 -91 2034 -91 
Q 1263 -91 848 271 
Q 434 634 434 1313 
Q 434 1759 690 2068 
Q 947 2378 1403 2484 
z
M 1172 3481 
Q 1172 3119 1398 2916 
Q 1625 2713 2034 2713 
Q 2441 2713 2670 2916 
Q 2900 3119 2900 3481 
Q 2900 3844 2670 4047 
Q 2441 4250 2034 4250 
Q 1625 4250 1398 4047 
Q 1172 3844 1172 3481 
z
" transform="scale(0.015625)"/>
       </defs>
       <use xlink:href="#DejaVuSans-32"/>
       <use xlink:href="#DejaVuSans-38" x="63.623047"/>
       <use xlink:href="#DejaVuSans-30" x="127.246094"/>
      </g>
     </g>
    </g>
    <g id="ytick_5">
     <g id="line2d_14">
      <g>
       <use xlink:href="#m3f31796ef6" x="57.6" y="98.368" style="stroke: #000000; stroke-width: 0.8"/>
      </g>
     </g>
     <g id="text_15">
      <!-- 290 -->
      <g transform="translate(31.5125 102.167219)scale(0.1 -0.1)">
       <defs>
        <path id="DejaVuSans-39" d="M 703 97 
L 703 672 
Q 941 559 1184 500 
Q 1428 441 1663 441 
Q 2288 441 2617 861 
Q 2947 1281 2994 2138 
Q 2813 1869 2534 1725 
Q 2256 1581 1919 1581 
Q 1219 1581 811 2004 
Q 403 2428 403 3163 
Q 403 3881 828 4315 
Q 1253 4750 1959 4750 
Q 2769 4750 3195 4129 
Q 3622 3509 3622 2328 
Q 3622 1225 3098 567 
Q 2575 -91 1691 -91 
Q 1453 -91 1209 -44 
Q 966 3 703 97 
z
M 1959 2075 
Q 2384 2075 2632 2365 
Q 2881 2656 2881 3163 
Q 2881 3666 2632 3958 
Q 2384 4250 1959 4250 
Q 1534 4250 1286 3958 
Q 1038 3666 1038 3163 
Q 1038 2656 1286 2365 
Q 1534 2075 1959 2075 
z
" transform="scale(0.015625)"/>
       </defs>
       <use xlink:href="#DejaVuSans-32"/>
       <use xlink:href="#DejaVuSans-39" x="63.623047"/>
       <use xlink:href="#DejaVuSans-30" x="127.246094"/>
      </g>
     </g>
    </g>
    <g id="ytick_6">
     <g id="line2d_15">
      <g>
       <use xlink:href="#m3f31796ef6" x="57.6" y="53.568" style="stroke: #000000; stroke-width: 0.8"/>
      </g>
     </g>
     <g id="text_16">
      <!-- 300 -->
      <g transform="translate(31.5125 57.367219)scale(0.1 -0.1)">
       <defs>
        <path id="DejaVuSans-33" d="M 2597 2516 
Q 3050 2419 3304 2112 
Q 3559 1806 3559 1356 
Q 3559 666 3084 287 
Q 2609 -91 1734 -91 
Q 1441 -91 1130 -33 
Q 819 25 488 141 
L 488 750 
Q 750 597 1062 519 
Q 1375 441 1716 441 
Q 2309 441 2620 675 
Q 2931 909 2931 1356 
Q 2931 1769 2642 2001 
Q 2353 2234 1838 2234 
L 1294 2234 
L 1294 2753 
L 1863 2753 
Q 2328 2753 2575 2939 
Q 2822 3125 2822 3475 
Q 2822 3834 2567 4026 
Q 2313 4219 1838 4219 
Q 1578 4219 1281 4162 
Q 984 4106 628 3988 
L 628 4550 
Q 988 4650 1302 4700 
Q 1616 4750 1894 4750 
Q 2613 4750 3031 4423 
Q 3450 4097 3450 3541 
Q 3450 3153 3228 2886 
Q 3006 2619 2597 2516 
z
" transform="scale(0.015625)"/>
       </defs>
       <use xlink:href="#DejaVuSans-33"/>
       <use xlink:href="#DejaVuSans-30" x="63.623047"/>
       <use xlink:href="#DejaVuSans-30" x="127.246094"/>
      </g>
     </g>
    </g>
    <g id="text_17">
     <!-- total cost -->
     <g transform="translate(25.432812 197.923313)rotate(-90)scale(0.1 -0.1)">
      <defs>
       <path id="DejaVuSans-74" d="M 1172 4494 
L 1172 3500 
L 2356 3500 
L 2356 3053 
L 1172 3053 
L 1172 1153 
Q 1172 725 1289 603 
Q 1406 481 1766 481 
L 2356 481 
L 2356 0 
L 1766 0 
Q 1100 0 847 248 
Q 594 497 594 1153 
L 594 3053 
L 172 3053 
L 172 3500 
L 594 3500 
L 594 4494 
L 1172 4494 
z
" transform="scale(0.015625)"/>
       <path id="DejaVuSans-6f" d="M 1959 3097 
Q 1497 3097 1228 2736 
Q 959 2375 959 1747 
Q 959 1119 1226 758 
Q 1494 397 1959 397 
Q 2419 397 2687 759 
Q 2956 1122 2956 1747 
Q 2956 2369 2687 2733 
Q 2419 3097 1959 3097 
z
M 1959 3584 
Q 2709 3584 3137 3096 
Q 3566 2609 3566 1747 
Q 3566 888 3137 398 
Q 2709 -91 1959 -91 
Q 1206 -91 779 398 
Q 353 888 353 1747 
Q 353 2609 779 3096 
Q 1206 3584 1959 3584 
z
" transform="scale(0.015625)"/>
       <path id="DejaVuSans-6c" d="M 603 4863 
L 1178 4863 
L 1178 0 
L 603 0 
L 603 4863 
z
" transform="scale(0.015625)"/>
       <path id="DejaVuSans-63" d="M 3122 3366 
L 3122 2828 
Q 2878 2963 2633 3030 
Q 2388 3097 2138 3097 
Q 1578 3097 1268 2742 
Q 959 2388 959 1747 
Q 959 1106 1268 751 
Q 1578 397 2138 397 
Q 2388 397 2633 464 
Q 2878 531 3122 666 
L 3122 134 
Q 2881 22 2623 -34 
Q 2366 -91 2075 -91 
Q 1284 -91 818 406 
Q 353 903 353 1747 
Q 353 2603 823 3093 
Q 1294 3584 2113 3584 
Q 2378 3584 2631 3529 
Q 2884 3475 3122 3366 
z
" transform="scale(0.015625)"/>
      </defs>
      <use xlink:href="#DejaVuSans-74"/>
      <use xlink:href="#DejaVuSans-6f" x="39.208984"/>
      <use xlink:href="#DejaVuSans-74" x="100.390625"/>
      <use xlink:href="#DejaVuSans-61" x="139.599609"/>
      <use xlink:href="#DejaVuSans-6c" x="200.878906"/>
      <use xlink:href="#DejaVuSans-20" x="228.662109"/>
      <use xlink:href="#DejaVuSans-63" x="260.449219"/>
      <use xlink:href="#DejaVuSans-6f" x="315.429688"/>
      <use xlink:href="#DejaVuSans-73" x="376.611328"/>
      <use xlink:href="#DejaVuSans-74" x="428.710938"/>
     </g>
    </g>
   </g>
   <g id="line2d_16">
    <path d="M 73.832727 210.368 
L 74.157057 196.928 
L 74.481388 237.248 
L 74.805718 232.768 
L 75.130048 246.208 
L 75.454378 282.048 
L 75.778709 237.248 
L 76.103039 223.808 
L 76.427369 255.168 
L 76.751699 268.608 
L 77.40036 250.688 
L 77.72469 228.288 
L 78.04902 237.248 
L 78.37335 192.448 
L 78.697681 192.448 
L 79.022011 179.008 
L 79.346341 174.528 
L 79.670671 205.888 
L 79.995001 174.528 
L 80.319332 214.848 
L 80.967992 259.648 
L 81.616652 241.728 
L 81.940983 255.168 
L 82.265313 250.688 
L 82.589643 237.248 
L 82.913973 237.248 
L 83.238304 246.208 
L 83.562634 250.688 
L 83.886964 192.448 
L 84.535624 237.248 
L 85.184285 205.888 
L 85.508615 259.648 
L 85.832945 241.728 
L 86.157275 232.768 
L 86.481606 232.768 
L 86.805936 228.288 
L 87.454596 277.568 
L 87.778927 255.168 
L 88.103257 282.048 
L 88.427587 282.048 
L 88.751917 286.528 
L 89.076247 295.488 
L 89.400578 241.728 
L 89.724908 255.168 
L 90.373568 223.808 
L 90.697898 223.808 
L 91.022229 228.288 
L 91.670889 174.528 
L 91.995219 219.328 
L 92.31955 183.488 
L 92.64388 205.888 
L 92.96821 179.008 
L 93.29254 214.848 
L 93.61687 214.848 
L 93.941201 196.928 
L 94.265531 161.088 
L 94.589861 170.048 
L 94.914191 196.928 
L 95.238521 196.928 
L 95.887182 223.808 
L 96.211512 246.208 
L 96.535842 282.048 
L 96.860173 277.568 
L 97.184503 246.208 
L 97.508833 232.768 
L 97.833163 237.248 
L 98.157493 237.248 
L 98.481824 250.688 
L 99.454814 196.928 
L 99.779144 205.888 
L 100.427805 71.488 
L 100.752135 53.568 
L 101.076465 67.008 
L 101.400796 107.328 
L 101.725126 102.848 
L 102.049456 134.208 
L 102.373786 152.128 
L 102.698116 80.448 
L 103.346777 80.448 
L 103.671107 98.368 
L 103.995437 125.248 
L 104.319768 93.888 
L 104.644098 98.368 
L 104.968428 107.328 
L 105.292758 138.688 
L 105.617088 98.368 
L 106.265749 98.368 
L 106.590079 111.808 
L 106.914409 67.008 
L 107.238739 170.048 
L 107.56307 170.048 
L 107.8874 143.168 
L 108.21173 143.168 
L 108.53606 161.088 
L 108.860391 170.048 
L 109.184721 138.688 
L 109.509051 147.648 
L 109.833381 147.648 
L 110.157711 143.168 
L 110.482042 134.208 
L 110.806372 138.688 
L 111.130702 152.128 
L 111.455032 156.608 
L 111.779362 152.128 
L 112.103693 187.968 
L 112.752353 143.168 
L 113.076683 138.688 
L 113.401014 196.928 
L 113.725344 192.448 
L 114.049674 192.448 
L 114.374004 147.648 
L 114.698334 170.048 
L 115.022665 165.568 
L 115.346995 174.528 
L 115.995655 111.808 
L 116.319985 134.208 
L 116.644316 165.568 
L 116.968646 161.088 
L 117.292976 170.048 
L 117.617306 80.448 
L 117.941637 89.408 
L 118.265967 116.288 
L 118.590297 102.848 
L 118.914627 134.208 
L 119.238957 143.168 
L 119.563288 147.648 
L 120.211948 210.368 
L 120.536278 179.008 
L 120.860608 183.488 
L 121.184939 179.008 
L 121.833599 179.008 
L 122.157929 165.568 
L 122.48226 174.528 
L 122.80659 152.128 
L 123.13092 147.648 
L 123.45525 165.568 
L 123.77958 152.128 
L 124.103911 156.608 
L 124.752571 201.408 
L 125.076901 147.648 
L 125.401231 138.688 
L 125.725562 107.328 
L 126.049892 152.128 
L 126.374222 156.608 
L 126.698552 174.528 
L 127.347213 183.488 
L 127.671543 170.048 
L 127.995873 170.048 
L 128.320203 125.248 
L 128.644534 143.168 
L 128.968864 125.248 
L 129.293194 98.368 
L 129.617524 111.808 
L 129.941855 147.648 
L 130.266185 120.768 
L 130.590515 237.248 
L 130.914845 241.728 
L 131.239175 273.088 
L 131.563506 246.208 
L 131.887836 259.648 
L 132.212166 214.848 
L 132.536496 219.328 
L 132.860826 259.648 
L 133.185157 228.288 
L 133.509487 120.768 
L 133.833817 174.528 
L 134.158147 125.248 
L 134.482478 138.688 
L 134.806808 183.488 
L 135.131138 170.048 
L 135.455468 165.568 
L 135.779798 156.608 
L 136.428459 196.928 
L 136.752789 246.208 
L 137.077119 228.288 
L 137.401449 201.408 
L 137.72578 210.368 
L 138.37444 156.608 
L 138.69877 174.528 
L 139.023101 147.648 
L 139.347431 134.208 
L 139.671761 134.208 
L 139.996091 156.608 
L 140.320421 170.048 
L 140.644752 201.408 
L 140.969082 161.088 
L 141.293412 156.608 
L 141.617742 129.728 
L 141.942072 161.088 
L 142.590733 125.248 
L 142.915063 161.088 
L 143.239393 183.488 
L 143.563724 196.928 
L 143.888054 192.448 
L 144.212384 143.168 
L 144.536714 134.208 
L 144.861044 165.568 
L 145.185375 156.608 
L 145.509705 134.208 
L 145.834035 156.608 
L 146.158365 138.688 
L 146.482695 134.208 
L 146.807026 125.248 
L 147.131356 152.128 
L 147.455686 205.888 
L 147.780016 174.528 
L 148.104347 174.528 
L 148.428677 192.448 
L 148.753007 228.288 
L 149.077337 223.808 
L 149.401667 241.728 
L 149.725998 219.328 
L 150.050328 237.248 
L 150.374658 210.368 
L 150.698988 246.208 
L 151.023318 246.208 
L 151.996309 205.888 
L 152.64497 246.208 
L 152.9693 241.728 
L 153.29363 192.448 
L 153.61796 201.408 
L 153.94229 201.408 
L 154.266621 196.928 
L 154.590951 219.328 
L 154.915281 223.808 
L 155.239611 237.248 
L 155.563942 237.248 
L 155.888272 228.288 
L 156.212602 201.408 
L 156.536932 210.368 
L 156.861262 187.968 
L 157.185593 201.408 
L 157.834253 170.048 
L 158.482913 232.768 
L 158.807244 228.288 
L 159.131574 237.248 
L 159.455904 196.928 
L 160.104565 165.568 
L 160.428895 187.968 
L 160.753225 174.528 
L 161.077555 223.808 
L 161.401885 214.848 
L 161.726216 170.048 
L 162.050546 192.448 
L 162.374876 196.928 
L 163.023536 250.688 
L 163.347867 237.248 
L 163.672197 232.768 
L 163.996527 255.168 
L 164.320857 255.168 
L 164.645188 250.688 
L 164.969518 223.808 
L 165.293848 223.808 
L 165.618178 174.528 
L 165.942508 183.488 
L 166.266839 165.568 
L 166.591169 161.088 
L 166.915499 161.088 
L 167.239829 170.048 
L 167.564159 174.528 
L 167.88849 152.128 
L 168.21282 174.528 
L 168.53715 170.048 
L 168.86148 174.528 
L 169.834471 102.848 
L 170.158801 102.848 
L 170.483131 125.248 
L 171.131792 125.248 
L 171.456122 179.008 
L 171.780452 165.568 
L 172.104782 161.088 
L 172.429113 192.448 
L 172.753443 205.888 
L 173.077773 205.888 
L 173.726434 187.968 
L 174.050764 205.888 
L 174.375094 183.488 
L 174.699424 170.048 
L 175.023754 183.488 
L 175.348085 179.008 
L 175.672415 179.008 
L 175.996745 156.608 
L 176.321075 165.568 
L 176.645406 138.688 
L 176.969736 152.128 
L 177.294066 196.928 
L 177.618396 201.408 
L 178.267057 273.088 
L 178.591387 273.088 
L 178.915717 282.048 
L 179.240047 250.688 
L 179.564377 246.208 
L 179.888708 174.528 
L 180.213038 156.608 
L 181.186029 143.168 
L 181.510359 93.888 
L 181.834689 75.968 
L 182.483349 102.848 
L 182.80768 125.248 
L 183.13201 129.728 
L 183.45634 125.248 
L 183.78067 143.168 
L 184.429331 241.728 
L 185.077991 241.728 
L 185.402321 246.208 
L 185.726652 219.328 
L 186.050982 205.888 
L 186.699642 223.808 
L 187.023972 205.888 
L 187.348303 201.408 
L 187.672633 179.008 
L 187.996963 165.568 
L 188.321293 165.568 
L 188.645623 187.968 
L 188.969954 156.608 
L 189.294284 156.608 
L 189.618614 147.648 
L 189.942944 165.568 
L 190.591605 156.608 
L 190.915935 116.288 
L 191.240265 120.768 
L 191.564595 111.808 
L 191.888926 165.568 
L 192.213256 165.568 
L 192.537586 219.328 
L 192.861916 223.808 
L 193.186246 232.768 
L 193.510577 268.608 
L 193.834907 241.728 
L 194.159237 232.768 
L 194.483567 228.288 
L 194.807898 228.288 
L 195.132228 250.688 
L 195.456558 259.648 
L 195.780888 273.088 
L 196.105218 273.088 
L 196.429549 223.808 
L 196.753879 219.328 
L 197.078209 232.768 
L 197.402539 183.488 
L 197.726869 210.368 
L 198.0512 187.968 
L 198.37553 179.008 
L 198.69986 152.128 
L 199.02419 170.048 
L 199.672851 143.168 
L 199.997181 138.688 
L 200.321511 125.248 
L 200.645841 143.168 
L 200.970172 138.688 
L 201.294502 161.088 
L 201.618832 129.728 
L 201.943162 134.208 
L 202.267493 111.808 
L 202.591823 71.488 
L 203.240483 111.808 
L 203.564813 107.328 
L 203.889144 107.328 
L 204.213474 98.368 
L 204.537804 102.848 
L 204.862134 120.768 
L 205.186464 111.808 
L 205.510795 111.808 
L 205.835125 125.248 
L 206.159455 161.088 
L 206.483785 179.008 
L 206.808116 156.608 
L 207.132446 183.488 
L 207.456776 179.008 
L 207.781106 152.128 
L 208.105436 187.968 
L 208.754097 214.848 
L 209.078427 210.368 
L 209.727087 192.448 
L 210.051418 161.088 
L 210.375748 205.888 
L 210.700078 192.448 
L 211.024408 201.408 
L 211.348739 187.968 
L 211.673069 152.128 
L 211.997399 187.968 
L 212.321729 192.448 
L 212.646059 165.568 
L 212.97039 219.328 
L 213.29472 210.368 
L 213.61905 179.008 
L 214.26771 147.648 
L 214.592041 156.608 
L 214.916371 196.928 
L 215.240701 196.928 
L 215.565031 223.808 
L 215.889362 205.888 
L 216.213692 201.408 
L 216.538022 241.728 
L 216.862352 246.208 
L 217.186682 246.208 
L 217.511013 179.008 
L 218.159673 107.328 
L 218.484003 129.728 
L 218.808333 134.208 
L 219.456994 161.088 
L 219.781324 196.928 
L 220.429985 165.568 
L 220.754315 111.808 
L 221.078645 107.328 
L 221.402975 129.728 
L 221.727305 138.688 
L 222.051636 143.168 
L 222.375966 134.208 
L 222.700296 111.808 
L 223.024626 134.208 
L 223.348956 93.888 
L 223.997617 102.848 
L 224.321947 102.848 
L 224.646277 67.008 
L 224.970608 120.768 
L 225.294938 120.768 
L 225.619268 116.288 
L 225.943598 134.208 
L 226.267928 116.288 
L 226.592259 138.688 
L 226.916589 152.128 
L 227.240919 143.168 
L 227.565249 165.568 
L 227.88958 165.568 
L 228.21391 116.288 
L 228.53824 120.768 
L 228.86257 129.728 
L 229.1869 143.168 
L 229.511231 143.168 
L 229.835561 152.128 
L 230.159891 152.128 
L 230.484221 116.288 
L 230.808551 107.328 
L 231.132882 107.328 
L 231.457212 147.648 
L 231.781542 147.648 
L 232.105872 129.728 
L 232.430203 143.168 
L 232.754533 129.728 
L 233.078863 174.528 
L 233.403193 179.008 
L 233.727523 161.088 
L 234.051854 179.008 
L 234.376184 165.568 
L 234.700514 161.088 
L 235.349174 201.408 
L 235.673505 187.968 
L 235.997835 134.208 
L 236.322165 147.648 
L 236.646495 125.248 
L 236.970826 134.208 
L 237.295156 165.568 
L 238.592477 165.568 
L 238.916807 147.648 
L 239.241137 196.928 
L 239.889797 138.688 
L 240.214128 156.608 
L 240.538458 134.208 
L 240.862788 134.208 
L 241.187118 161.088 
L 241.511449 161.088 
L 241.835779 196.928 
L 242.160109 192.448 
L 242.808769 223.808 
L 243.1331 214.848 
L 243.45743 223.808 
L 243.78176 237.248 
L 244.10609 241.728 
L 244.754751 273.088 
L 245.079081 219.328 
L 245.403411 187.968 
L 245.727741 192.448 
L 246.052072 156.608 
L 246.376402 143.168 
L 246.700732 170.048 
L 247.025062 156.608 
L 247.349392 129.728 
L 247.673723 138.688 
L 247.998053 152.128 
L 248.322383 152.128 
L 248.646713 201.408 
L 248.971044 179.008 
L 249.295374 179.008 
L 249.944034 241.728 
L 250.268364 246.208 
L 250.592695 174.528 
L 250.917025 196.928 
L 251.241355 138.688 
L 251.565685 165.568 
L 251.890015 138.688 
L 252.214346 143.168 
L 252.538676 165.568 
L 252.863006 201.408 
L 253.187336 152.128 
L 253.835997 125.248 
L 254.160327 223.808 
L 254.484657 187.968 
L 254.808987 219.328 
L 255.133318 196.928 
L 255.457648 219.328 
L 255.781978 161.088 
L 256.106308 147.648 
L 256.430638 152.128 
L 256.754969 187.968 
L 257.079299 192.448 
L 257.403629 205.888 
L 257.727959 125.248 
L 258.05229 138.688 
L 258.37662 107.328 
L 258.70095 143.168 
L 259.02528 134.208 
L 259.34961 134.208 
L 259.673941 111.808 
L 259.998271 125.248 
L 260.322601 116.288 
L 260.971261 147.648 
L 261.295592 143.168 
L 261.619922 165.568 
L 262.268582 192.448 
L 262.592913 170.048 
L 262.917243 129.728 
L 263.241573 138.688 
L 263.565903 161.088 
L 263.890233 170.048 
L 264.214564 170.048 
L 264.538894 134.208 
L 264.863224 179.008 
L 265.187554 165.568 
L 265.836215 196.928 
L 266.484875 102.848 
L 266.809205 102.848 
L 267.133536 125.248 
L 267.457866 170.048 
L 267.782196 192.448 
L 268.106526 179.008 
L 268.430856 210.368 
L 268.755187 183.488 
L 269.079517 170.048 
L 269.403847 174.528 
L 269.728177 174.528 
L 270.052507 138.688 
L 270.376838 138.688 
L 270.701168 179.008 
L 271.025498 152.128 
L 271.349828 165.568 
L 271.674159 205.888 
L 271.998489 201.408 
L 272.322819 179.008 
L 272.647149 196.928 
L 273.29581 170.048 
L 273.94447 237.248 
L 274.2688 228.288 
L 274.593131 205.888 
L 274.917461 214.848 
L 275.241791 228.288 
L 275.566121 255.168 
L 275.890451 250.688 
L 276.214782 219.328 
L 276.539112 214.848 
L 277.187772 174.528 
L 277.512102 116.288 
L 277.836433 143.168 
L 278.160763 143.168 
L 278.485093 192.448 
L 279.133754 241.728 
L 279.458084 268.608 
L 279.782414 228.288 
L 280.106744 255.168 
L 280.431074 268.608 
L 280.755405 268.608 
L 281.079735 273.088 
L 281.404065 268.608 
L 281.728395 210.368 
L 282.052725 174.528 
L 282.377056 170.048 
L 283.025716 170.048 
L 283.350046 223.808 
L 283.674377 192.448 
L 284.323037 183.488 
L 284.647367 214.848 
L 284.971697 223.808 
L 285.296028 223.808 
L 285.620358 219.328 
L 285.944688 205.888 
L 286.269018 138.688 
L 286.593348 116.288 
L 287.242009 165.568 
L 287.566339 214.848 
L 287.890669 228.288 
L 288.215 228.288 
L 288.86366 183.488 
L 289.18799 192.448 
L 289.51232 156.608 
L 289.836651 183.488 
L 290.160981 179.008 
L 290.485311 179.008 
L 290.809641 183.488 
L 291.133971 219.328 
L 291.458302 241.728 
L 291.782632 246.208 
L 292.106962 228.288 
L 292.431292 223.808 
L 292.755623 192.448 
L 293.079953 205.888 
L 293.404283 201.408 
L 293.728613 214.848 
L 294.052943 214.848 
L 294.377274 174.528 
L 294.701604 219.328 
L 295.025934 152.128 
L 295.674594 219.328 
L 295.998925 196.928 
L 296.323255 192.448 
L 296.647585 179.008 
L 296.971915 210.368 
L 297.296246 187.968 
L 297.620576 134.208 
L 298.269236 152.128 
L 298.593566 143.168 
L 299.566557 228.288 
L 299.890887 201.408 
L 300.215218 219.328 
L 300.539548 192.448 
L 300.863878 196.928 
L 301.512538 165.568 
L 301.836869 152.128 
L 302.161199 120.768 
L 302.485529 165.568 
L 302.809859 147.648 
L 303.134189 120.768 
L 303.45852 129.728 
L 303.78285 111.808 
L 304.10718 219.328 
L 304.43151 156.608 
L 304.755841 196.928 
L 305.080171 183.488 
L 305.404501 210.368 
L 306.053161 201.408 
L 306.377492 214.848 
L 307.026152 183.488 
L 308.323473 134.208 
L 308.647803 161.088 
L 308.972133 129.728 
L 309.296464 143.168 
L 309.620794 143.168 
L 309.945124 107.328 
L 310.269454 111.808 
L 310.918115 138.688 
L 311.242445 174.528 
L 311.566775 138.688 
L 311.891105 223.808 
L 312.539766 120.768 
L 312.864096 102.848 
L 313.188426 152.128 
L 313.512756 120.768 
L 313.837087 116.288 
L 314.161417 201.408 
L 314.485747 210.368 
L 314.810077 232.768 
L 315.458738 201.408 
L 315.783068 241.728 
L 316.107398 232.768 
L 316.431728 241.728 
L 316.756058 241.728 
L 317.080389 219.328 
L 317.404719 170.048 
L 317.729049 170.048 
L 318.70204 134.208 
L 319.3507 214.848 
L 319.67503 179.008 
L 319.999361 179.008 
L 320.323691 228.288 
L 320.972351 273.088 
L 321.296682 264.128 
L 321.945342 241.728 
L 322.269672 232.768 
L 322.594002 246.208 
L 322.918333 214.848 
L 323.242663 196.928 
L 323.566993 196.928 
L 323.891323 201.408 
L 324.215653 210.368 
L 324.539984 187.968 
L 324.864314 196.928 
L 325.188644 196.928 
L 325.512974 165.568 
L 325.837305 170.048 
L 326.161635 170.048 
L 326.485965 192.448 
L 327.134625 214.848 
L 327.458956 210.368 
L 327.783286 201.408 
L 328.107616 214.848 
L 328.431946 210.368 
L 328.756276 174.528 
L 329.080607 161.088 
L 329.404937 179.008 
L 329.729267 187.968 
L 330.377928 187.968 
L 330.702258 147.648 
L 331.350918 156.608 
L 331.999579 147.648 
L 332.323909 138.688 
L 332.972569 129.728 
L 333.62123 179.008 
L 333.94556 165.568 
L 334.26989 205.888 
L 334.59422 187.968 
L 334.918551 161.088 
L 335.242881 165.568 
L 335.567211 201.408 
L 335.891541 214.848 
L 336.215871 219.328 
L 336.540202 214.848 
L 336.864532 223.808 
L 337.188862 223.808 
L 337.513192 210.368 
L 337.837522 228.288 
L 338.161853 232.768 
L 338.810513 179.008 
L 339.134843 192.448 
L 339.459174 179.008 
L 339.783504 237.248 
L 340.107834 246.208 
L 340.432164 214.848 
L 340.756494 223.808 
L 341.080825 201.408 
L 341.729485 210.368 
L 342.053815 237.248 
L 342.378145 228.288 
L 342.702476 241.728 
L 343.026806 241.728 
L 343.675466 183.488 
L 343.999797 219.328 
L 344.324127 161.088 
L 344.648457 183.488 
L 344.972787 98.368 
L 345.297117 102.848 
L 345.621448 210.368 
L 345.945778 214.848 
L 346.594438 246.208 
L 346.918769 183.488 
L 347.243099 161.088 
L 347.567429 161.088 
L 347.891759 165.568 
L 348.216089 201.408 
L 348.54042 170.048 
L 348.86475 179.008 
L 349.18908 179.008 
L 349.51341 205.888 
L 349.83774 214.848 
L 350.162071 174.528 
L 350.486401 179.008 
L 350.810731 187.968 
L 351.135061 187.968 
L 351.783722 196.928 
L 352.108052 241.728 
L 352.432382 228.288 
L 352.756712 205.888 
L 353.081043 237.248 
L 353.405373 210.368 
L 353.729703 210.368 
L 354.378363 187.968 
L 354.702694 161.088 
L 355.027024 147.648 
L 355.351354 152.128 
L 356.000015 214.848 
L 356.324345 196.928 
L 356.648675 223.808 
L 357.297335 174.528 
L 357.621666 179.008 
L 357.945996 192.448 
L 358.270326 165.568 
L 358.594656 179.008 
L 358.918986 219.328 
L 359.243317 214.848 
L 359.567647 273.088 
L 360.216307 264.128 
L 360.540638 241.728 
L 360.864968 196.928 
L 361.189298 179.008 
L 361.837958 237.248 
L 362.162289 237.248 
L 362.486619 232.768 
L 363.135279 187.968 
L 363.459609 210.368 
L 363.78394 210.368 
L 364.10827 241.728 
L 364.4326 250.688 
L 364.75693 268.608 
L 365.405591 237.248 
L 365.729921 268.608 
L 366.378581 237.248 
L 366.702912 241.728 
L 367.351572 259.648 
L 367.675902 264.128 
L 368.000232 264.128 
L 368.324563 250.688 
L 368.973223 241.728 
L 369.297553 228.288 
L 369.946214 237.248 
L 370.270544 237.248 
L 370.919204 268.608 
L 371.567865 219.328 
L 371.892195 192.448 
L 372.216525 214.848 
L 372.540856 192.448 
L 372.865186 138.688 
L 373.189516 116.288 
L 373.513846 152.128 
L 373.838176 143.168 
L 374.162507 152.128 
L 374.486837 183.488 
L 375.135497 183.488 
L 375.459827 152.128 
L 375.784158 183.488 
L 376.108488 187.968 
L 376.432818 174.528 
L 376.757148 192.448 
L 377.081479 170.048 
L 377.405809 161.088 
L 378.054469 210.368 
L 378.378799 192.448 
L 378.70313 214.848 
L 379.02746 214.848 
L 379.67612 170.048 
L 380.00045 179.008 
L 380.649111 152.128 
L 380.973441 192.448 
L 381.297771 187.968 
L 381.946432 219.328 
L 382.270762 214.848 
L 382.595092 228.288 
L 382.919422 179.008 
L 383.243753 161.088 
L 383.568083 174.528 
L 383.892413 219.328 
L 384.216743 214.848 
L 384.541073 214.848 
L 384.865404 205.888 
L 385.189734 183.488 
L 385.514064 183.488 
L 385.838394 152.128 
L 386.162725 152.128 
L 386.487055 165.568 
L 386.811385 143.168 
L 387.135715 147.648 
L 387.784376 80.448 
L 388.108706 89.408 
L 388.433036 143.168 
L 388.757366 84.928 
L 389.081696 84.928 
L 389.406027 98.368 
L 389.730357 152.128 
L 390.054687 143.168 
L 391.352008 179.008 
L 391.676338 183.488 
L 392.000668 156.608 
L 392.324999 143.168 
L 392.649329 156.608 
L 392.973659 120.768 
L 393.297989 161.088 
L 393.622319 161.088 
L 393.94665 129.728 
L 394.91964 183.488 
L 395.243971 179.008 
L 395.568301 205.888 
L 395.892631 210.368 
L 396.216961 219.328 
L 396.541291 183.488 
L 397.189952 210.368 
L 397.514282 210.368 
L 397.838612 201.408 
L 398.487273 232.768 
L 398.487273 232.768 
" clip-path="url(#p18c7c0583a)" style="fill: none; stroke: #1f77b4; stroke-width: 1.5; stroke-linecap: square"/>
   </g>
   <g id="patch_3">
    <path d="M 57.6 307.584 
L 57.6 41.472 
" style="fill: none; stroke: #000000; stroke-width: 0.8; stroke-linejoin: miter; stroke-linecap: square"/>
   </g>
   <g id="patch_4">
    <path d="M 414.72 307.584 
L 414.72 41.472 
" style="fill: none; stroke: #000000; stroke-width: 0.8; stroke-linejoin: miter; stroke-linecap: square"/>
   </g>
   <g id="patch_5">
    <path d="M 57.6 307.584 
L 414.72 307.584 
" style="fill: none; stroke: #000000; stroke-width: 0.8; stroke-linejoin: miter; stroke-linecap: square"/>
   </g>
   <g id="patch_6">
    <path d="M 57.6 41.472 
L 414.72 41.472 
" style="fill: none; stroke: #000000; stroke-width: 0.8; stroke-linejoin: miter; stroke-linecap: square"/>
   </g>
   <g id="text_18">
    <!-- Simulated Anealling Cost -->
    <g transform="translate(160.8 35.472)scale(0.12 -0.12)">
     <defs>
      <path id="DejaVuSans-53" d="M 3425 4513 
L 3425 3897 
Q 3066 4069 2747 4153 
Q 2428 4238 2131 4238 
Q 1616 4238 1336 4038 
Q 1056 3838 1056 3469 
Q 1056 3159 1242 3001 
Q 1428 2844 1947 2747 
L 2328 2669 
Q 3034 2534 3370 2195 
Q 3706 1856 3706 1288 
Q 3706 609 3251 259 
Q 2797 -91 1919 -91 
Q 1588 -91 1214 -16 
Q 841 59 441 206 
L 441 856 
Q 825 641 1194 531 
Q 1563 422 1919 422 
Q 2459 422 2753 634 
Q 3047 847 3047 1241 
Q 3047 1584 2836 1778 
Q 2625 1972 2144 2069 
L 1759 2144 
Q 1053 2284 737 2584 
Q 422 2884 422 3419 
Q 422 4038 858 4394 
Q 1294 4750 2059 4750 
Q 2388 4750 2728 4690 
Q 3069 4631 3425 4513 
z
" transform="scale(0.015625)"/>
      <path id="DejaVuSans-69" d="M 603 3500 
L 1178 3500 
L 1178 0 
L 603 0 
L 603 3500 
z
M 603 4863 
L 1178 4863 
L 1178 4134 
L 603 4134 
L 603 4863 
z
" transform="scale(0.015625)"/>
      <path id="DejaVuSans-65" d="M 3597 1894 
L 3597 1613 
L 953 1613 
Q 991 1019 1311 708 
Q 1631 397 2203 397 
Q 2534 397 2845 478 
Q 3156 559 3463 722 
L 3463 178 
Q 3153 47 2828 -22 
Q 2503 -91 2169 -91 
Q 1331 -91 842 396 
Q 353 884 353 1716 
Q 353 2575 817 3079 
Q 1281 3584 2069 3584 
Q 2775 3584 3186 3129 
Q 3597 2675 3597 1894 
z
M 3022 2063 
Q 3016 2534 2758 2815 
Q 2500 3097 2075 3097 
Q 1594 3097 1305 2825 
Q 1016 2553 972 2059 
L 3022 2063 
z
" transform="scale(0.015625)"/>
      <path id="DejaVuSans-64" d="M 2906 2969 
L 2906 4863 
L 3481 4863 
L 3481 0 
L 2906 0 
L 2906 525 
Q 2725 213 2448 61 
Q 2172 -91 1784 -91 
Q 1150 -91 751 415 
Q 353 922 353 1747 
Q 353 2572 751 3078 
Q 1150 3584 1784 3584 
Q 2172 3584 2448 3432 
Q 2725 3281 2906 2969 
z
M 947 1747 
Q 947 1113 1208 752 
Q 1469 391 1925 391 
Q 2381 391 2643 752 
Q 2906 1113 2906 1747 
Q 2906 2381 2643 2742 
Q 2381 3103 1925 3103 
Q 1469 3103 1208 2742 
Q 947 2381 947 1747 
z
" transform="scale(0.015625)"/>
      <path id="DejaVuSans-41" d="M 2188 4044 
L 1331 1722 
L 3047 1722 
L 2188 4044 
z
M 1831 4666 
L 2547 4666 
L 4325 0 
L 3669 0 
L 3244 1197 
L 1141 1197 
L 716 0 
L 50 0 
L 1831 4666 
z
" transform="scale(0.015625)"/>
      <path id="DejaVuSans-67" d="M 2906 1791 
Q 2906 2416 2648 2759 
Q 2391 3103 1925 3103 
Q 1463 3103 1205 2759 
Q 947 2416 947 1791 
Q 947 1169 1205 825 
Q 1463 481 1925 481 
Q 2391 481 2648 825 
Q 2906 1169 2906 1791 
z
M 3481 434 
Q 3481 -459 3084 -895 
Q 2688 -1331 1869 -1331 
Q 1566 -1331 1297 -1286 
Q 1028 -1241 775 -1147 
L 775 -588 
Q 1028 -725 1275 -790 
Q 1522 -856 1778 -856 
Q 2344 -856 2625 -561 
Q 2906 -266 2906 331 
L 2906 616 
Q 2728 306 2450 153 
Q 2172 0 1784 0 
Q 1141 0 747 490 
Q 353 981 353 1791 
Q 353 2603 747 3093 
Q 1141 3584 1784 3584 
Q 2172 3584 2450 3431 
Q 2728 3278 2906 2969 
L 2906 3500 
L 3481 3500 
L 3481 434 
z
" transform="scale(0.015625)"/>
      <path id="DejaVuSans-43" d="M 4122 4306 
L 4122 3641 
Q 3803 3938 3442 4084 
Q 3081 4231 2675 4231 
Q 1875 4231 1450 3742 
Q 1025 3253 1025 2328 
Q 1025 1406 1450 917 
Q 1875 428 2675 428 
Q 3081 428 3442 575 
Q 3803 722 4122 1019 
L 4122 359 
Q 3791 134 3420 21 
Q 3050 -91 2638 -91 
Q 1578 -91 968 557 
Q 359 1206 359 2328 
Q 359 3453 968 4101 
Q 1578 4750 2638 4750 
Q 3056 4750 3426 4639 
Q 3797 4528 4122 4306 
z
" transform="scale(0.015625)"/>
     </defs>
     <use xlink:href="#DejaVuSans-53"/>
     <use xlink:href="#DejaVuSans-69" x="63.476562"/>
     <use xlink:href="#DejaVuSans-6d" x="91.259766"/>
     <use xlink:href="#DejaVuSans-75" x="188.671875"/>
     <use xlink:href="#DejaVuSans-6c" x="252.050781"/>
     <use xlink:href="#DejaVuSans-61" x="279.833984"/>
     <use xlink:href="#DejaVuSans-74" x="341.113281"/>
     <use xlink:href="#DejaVuSans-65" x="380.322266"/>
     <use xlink:href="#DejaVuSans-64" x="441.845703"/>
     <use xlink:href="#DejaVuSans-20" x="505.322266"/>
     <use xlink:href="#DejaVuSans-41" x="537.109375"/>
     <use xlink:href="#DejaVuSans-6e" x="605.517578"/>
     <use xlink:href="#DejaVuSans-65" x="668.896484"/>
     <use xlink:href="#DejaVuSans-61" x="730.419922"/>
     <use xlink:href="#DejaVuSans-6c" x="791.699219"/>
     <use xlink:href="#DejaVuSans-6c" x="819.482422"/>
     <use xlink:href="#DejaVuSans-69" x="847.265625"/>
     <use xlink:href="#DejaVuSans-6e" x="875.048828"/>
     <use xlink:href="#DejaVuSans-67" x="938.427734"/>
     <use xlink:href="#DejaVuSans-20" x="1001.904297"/>
     <use xlink:href="#DejaVuSans-43" x="1033.691406"/>
     <use xlink:href="#DejaVuSans-6f" x="1103.515625"/>
     <use xlink:href="#DejaVuSans-73" x="1164.697266"/>
     <use xlink:href="#DejaVuSans-74" x="1216.796875"/>
    </g>
   </g>
  </g>
 </g>
 <defs>
  <clipPath id="p18c7c0583a">
   <rect x="57.6" y="41.472" width="357.12" height="266.112"/>
  </clipPath>
 </defs>
</svg>
