<?xml version="1.0" encoding="utf-8" standalone="no"?>
<!DOCTYPE svg PUBLIC "-//W3C//DTD SVG 1.1//EN"
  "http://www.w3.org/Graphics/SVG/1.1/DTD/svg11.dtd">
<svg xmlns:xlink="http://www.w3.org/1999/xlink" width="460.8pt" height="345.6pt" viewBox="0 0 460.8 345.6" xmlns="http://www.w3.org/2000/svg" version="1.1">
 <metadata>
  <rdf:RDF xmlns:dc="http://purl.org/dc/elements/1.1/" xmlns:cc="http://creativecommons.org/ns#" xmlns:rdf="http://www.w3.org/1999/02/22-rdf-syntax-ns#">
   <cc:Work>
    <dc:type rdf:resource="http://purl.org/dc/dcmitype/StillImage"/>
    <dc:date>2022-06-01T08:07:53.504496</dc:date>
    <dc:format>image/svg+xml</dc:format>
    <dc:creator>
     <cc:Agent>
      <dc:title>Matplotlib v3.5.1, https://matplotlib.org/</dc:title>
     </cc:Agent>
    </dc:creator>
   </cc:Work>
  </rdf:RDF>
 </metadata>
 <defs>
  <style type="text/css">*{stroke-linejoin: round; stroke-linecap: butt}</style>
 </defs>
 <g id="figure_1">
  <g id="patch_1">
   <path d="M 0 345.6 
L 460.8 345.6 
L 460.8 0 
L 0 0 
z
" style="fill: #ffffff"/>
  </g>
  <g id="axes_1">
   <g id="patch_2">
    <path d="M 57.6 307.584 
L 414.72 307.584 
L 414.72 41.472 
L 57.6 41.472 
z
" style="fill: #ffffff"/>
   </g>
   <g id="matplotlib.axis_1">
    <g id="xtick_1">
     <g id="line2d_1">
      <defs>
       <path id="m2e97638fcf" d="M 0 0 
L 0 3.5 
" style="stroke: #000000; stroke-width: 0.8"/>
      </defs>
      <g>
       <use xlink:href="#m2e97638fcf" x="73.832727" y="307.584" style="stroke: #000000; stroke-width: 0.8"/>
      </g>
     </g>
     <g id="text_1">
      <!-- 0 -->
      <g transform="translate(70.651477 322.182437)scale(0.1 -0.1)">
       <defs>
        <path id="DejaVuSans-30" d="M 2034 4250 
Q 1547 4250 1301 3770 
Q 1056 3291 1056 2328 
Q 1056 1369 1301 889 
Q 1547 409 2034 409 
Q 2525 409 2770 889 
Q 3016 1369 3016 2328 
Q 3016 3291 2770 3770 
Q 2525 4250 2034 4250 
z
M 2034 4750 
Q 2819 4750 3233 4129 
Q 3647 3509 3647 2328 
Q 3647 1150 3233 529 
Q 2819 -91 2034 -91 
Q 1250 -91 836 529 
Q 422 1150 422 2328 
Q 422 3509 836 4129 
Q 1250 4750 2034 4750 
z
" transform="scale(0.015625)"/>
       </defs>
       <use xlink:href="#DejaVuSans-30"/>
      </g>
     </g>
    </g>
    <g id="xtick_2">
     <g id="line2d_2">
      <g>
       <use xlink:href="#m2e97638fcf" x="115.412459" y="307.584" style="stroke: #000000; stroke-width: 0.8"/>
      </g>
     </g>
     <g id="text_2">
      <!-- 250 -->
      <g transform="translate(105.868709 322.182437)scale(0.1 -0.1)">
       <defs>
        <path id="DejaVuSans-32" d="M 1228 531 
L 3431 531 
L 3431 0 
L 469 0 
L 469 531 
Q 828 903 1448 1529 
Q 2069 2156 2228 2338 
Q 2531 2678 2651 2914 
Q 2772 3150 2772 3378 
Q 2772 3750 2511 3984 
Q 2250 4219 1831 4219 
Q 1534 4219 1204 4116 
Q 875 4013 500 3803 
L 500 4441 
Q 881 4594 1212 4672 
Q 1544 4750 1819 4750 
Q 2544 4750 2975 4387 
Q 3406 4025 3406 3419 
Q 3406 3131 3298 2873 
Q 3191 2616 2906 2266 
Q 2828 2175 2409 1742 
Q 1991 1309 1228 531 
z
" transform="scale(0.015625)"/>
        <path id="DejaVuSans-35" d="M 691 4666 
L 3169 4666 
L 3169 4134 
L 1269 4134 
L 1269 2991 
Q 1406 3038 1543 3061 
Q 1681 3084 1819 3084 
Q 2600 3084 3056 2656 
Q 3513 2228 3513 1497 
Q 3513 744 3044 326 
Q 2575 -91 1722 -91 
Q 1428 -91 1123 -41 
Q 819 9 494 109 
L 494 744 
Q 775 591 1075 516 
Q 1375 441 1709 441 
Q 2250 441 2565 725 
Q 2881 1009 2881 1497 
Q 2881 1984 2565 2268 
Q 2250 2553 1709 2553 
Q 1456 2553 1204 2497 
Q 953 2441 691 2322 
L 691 4666 
z
" transform="scale(0.015625)"/>
       </defs>
       <use xlink:href="#DejaVuSans-32"/>
       <use xlink:href="#DejaVuSans-35" x="63.623047"/>
       <use xlink:href="#DejaVuSans-30" x="127.246094"/>
      </g>
     </g>
    </g>
    <g id="xtick_3">
     <g id="line2d_3">
      <g>
       <use xlink:href="#m2e97638fcf" x="156.992191" y="307.584" style="stroke: #000000; stroke-width: 0.8"/>
      </g>
     </g>
     <g id="text_3">
      <!-- 500 -->
      <g transform="translate(147.448441 322.182437)scale(0.1 -0.1)">
       <use xlink:href="#DejaVuSans-35"/>
       <use xlink:href="#DejaVuSans-30" x="63.623047"/>
       <use xlink:href="#DejaVuSans-30" x="127.246094"/>
      </g>
     </g>
    </g>
    <g id="xtick_4">
     <g id="line2d_4">
      <g>
       <use xlink:href="#m2e97638fcf" x="198.571923" y="307.584" style="stroke: #000000; stroke-width: 0.8"/>
      </g>
     </g>
     <g id="text_4">
      <!-- 750 -->
      <g transform="translate(189.028173 322.182437)scale(0.1 -0.1)">
       <defs>
        <path id="DejaVuSans-37" d="M 525 4666 
L 3525 4666 
L 3525 4397 
L 1831 0 
L 1172 0 
L 2766 4134 
L 525 4134 
L 525 4666 
z
" transform="scale(0.015625)"/>
       </defs>
       <use xlink:href="#DejaVuSans-37"/>
       <use xlink:href="#DejaVuSans-35" x="63.623047"/>
       <use xlink:href="#DejaVuSans-30" x="127.246094"/>
      </g>
     </g>
    </g>
    <g id="xtick_5">
     <g id="line2d_5">
      <g>
       <use xlink:href="#m2e97638fcf" x="240.151654" y="307.584" style="stroke: #000000; stroke-width: 0.8"/>
      </g>
     </g>
     <g id="text_5">
      <!-- 1000 -->
      <g transform="translate(227.426654 322.182437)scale(0.1 -0.1)">
       <defs>
        <path id="DejaVuSans-31" d="M 794 531 
L 1825 531 
L 1825 4091 
L 703 3866 
L 703 4441 
L 1819 4666 
L 2450 4666 
L 2450 531 
L 3481 531 
L 3481 0 
L 794 0 
L 794 531 
z
" transform="scale(0.015625)"/>
       </defs>
       <use xlink:href="#DejaVuSans-31"/>
       <use xlink:href="#DejaVuSans-30" x="63.623047"/>
       <use xlink:href="#DejaVuSans-30" x="127.246094"/>
       <use xlink:href="#DejaVuSans-30" x="190.869141"/>
      </g>
     </g>
    </g>
    <g id="xtick_6">
     <g id="line2d_6">
      <g>
       <use xlink:href="#m2e97638fcf" x="281.731386" y="307.584" style="stroke: #000000; stroke-width: 0.8"/>
      </g>
     </g>
     <g id="text_6">
      <!-- 1250 -->
      <g transform="translate(269.006386 322.182437)scale(0.1 -0.1)">
       <use xlink:href="#DejaVuSans-31"/>
       <use xlink:href="#DejaVuSans-32" x="63.623047"/>
       <use xlink:href="#DejaVuSans-35" x="127.246094"/>
       <use xlink:href="#DejaVuSans-30" x="190.869141"/>
      </g>
     </g>
    </g>
    <g id="xtick_7">
     <g id="line2d_7">
      <g>
       <use xlink:href="#m2e97638fcf" x="323.311118" y="307.584" style="stroke: #000000; stroke-width: 0.8"/>
      </g>
     </g>
     <g id="text_7">
      <!-- 1500 -->
      <g transform="translate(310.586118 322.182437)scale(0.1 -0.1)">
       <use xlink:href="#DejaVuSans-31"/>
       <use xlink:href="#DejaVuSans-35" x="63.623047"/>
       <use xlink:href="#DejaVuSans-30" x="127.246094"/>
       <use xlink:href="#DejaVuSans-30" x="190.869141"/>
      </g>
     </g>
    </g>
    <g id="xtick_8">
     <g id="line2d_8">
      <g>
       <use xlink:href="#m2e97638fcf" x="364.890849" y="307.584" style="stroke: #000000; stroke-width: 0.8"/>
      </g>
     </g>
     <g id="text_8">
      <!-- 1750 -->
      <g transform="translate(352.165849 322.182437)scale(0.1 -0.1)">
       <use xlink:href="#DejaVuSans-31"/>
       <use xlink:href="#DejaVuSans-37" x="63.623047"/>
       <use xlink:href="#DejaVuSans-35" x="127.246094"/>
       <use xlink:href="#DejaVuSans-30" x="190.869141"/>
      </g>
     </g>
    </g>
    <g id="xtick_9">
     <g id="line2d_9">
      <g>
       <use xlink:href="#m2e97638fcf" x="406.470581" y="307.584" style="stroke: #000000; stroke-width: 0.8"/>
      </g>
     </g>
     <g id="text_9">
      <!-- 2000 -->
      <g transform="translate(393.745581 322.182437)scale(0.1 -0.1)">
       <use xlink:href="#DejaVuSans-32"/>
       <use xlink:href="#DejaVuSans-30" x="63.623047"/>
       <use xlink:href="#DejaVuSans-30" x="127.246094"/>
       <use xlink:href="#DejaVuSans-30" x="190.869141"/>
      </g>
     </g>
    </g>
    <g id="text_10">
     <!-- num swaps -->
     <g transform="translate(207.826406 335.860562)scale(0.1 -0.1)">
      <defs>
       <path id="DejaVuSans-6e" d="M 3513 2113 
L 3513 0 
L 2938 0 
L 2938 2094 
Q 2938 2591 2744 2837 
Q 2550 3084 2163 3084 
Q 1697 3084 1428 2787 
Q 1159 2491 1159 1978 
L 1159 0 
L 581 0 
L 581 3500 
L 1159 3500 
L 1159 2956 
Q 1366 3272 1645 3428 
Q 1925 3584 2291 3584 
Q 2894 3584 3203 3211 
Q 3513 2838 3513 2113 
z
" transform="scale(0.015625)"/>
       <path id="DejaVuSans-75" d="M 544 1381 
L 544 3500 
L 1119 3500 
L 1119 1403 
Q 1119 906 1312 657 
Q 1506 409 1894 409 
Q 2359 409 2629 706 
Q 2900 1003 2900 1516 
L 2900 3500 
L 3475 3500 
L 3475 0 
L 2900 0 
L 2900 538 
Q 2691 219 2414 64 
Q 2138 -91 1772 -91 
Q 1169 -91 856 284 
Q 544 659 544 1381 
z
M 1991 3584 
L 1991 3584 
z
" transform="scale(0.015625)"/>
       <path id="DejaVuSans-6d" d="M 3328 2828 
Q 3544 3216 3844 3400 
Q 4144 3584 4550 3584 
Q 5097 3584 5394 3201 
Q 5691 2819 5691 2113 
L 5691 0 
L 5113 0 
L 5113 2094 
Q 5113 2597 4934 2840 
Q 4756 3084 4391 3084 
Q 3944 3084 3684 2787 
Q 3425 2491 3425 1978 
L 3425 0 
L 2847 0 
L 2847 2094 
Q 2847 2600 2669 2842 
Q 2491 3084 2119 3084 
Q 1678 3084 1418 2786 
Q 1159 2488 1159 1978 
L 1159 0 
L 581 0 
L 581 3500 
L 1159 3500 
L 1159 2956 
Q 1356 3278 1631 3431 
Q 1906 3584 2284 3584 
Q 2666 3584 2933 3390 
Q 3200 3197 3328 2828 
z
" transform="scale(0.015625)"/>
       <path id="DejaVuSans-20" transform="scale(0.015625)"/>
       <path id="DejaVuSans-73" d="M 2834 3397 
L 2834 2853 
Q 2591 2978 2328 3040 
Q 2066 3103 1784 3103 
Q 1356 3103 1142 2972 
Q 928 2841 928 2578 
Q 928 2378 1081 2264 
Q 1234 2150 1697 2047 
L 1894 2003 
Q 2506 1872 2764 1633 
Q 3022 1394 3022 966 
Q 3022 478 2636 193 
Q 2250 -91 1575 -91 
Q 1294 -91 989 -36 
Q 684 19 347 128 
L 347 722 
Q 666 556 975 473 
Q 1284 391 1588 391 
Q 1994 391 2212 530 
Q 2431 669 2431 922 
Q 2431 1156 2273 1281 
Q 2116 1406 1581 1522 
L 1381 1569 
Q 847 1681 609 1914 
Q 372 2147 372 2553 
Q 372 3047 722 3315 
Q 1072 3584 1716 3584 
Q 2034 3584 2315 3537 
Q 2597 3491 2834 3397 
z
" transform="scale(0.015625)"/>
       <path id="DejaVuSans-77" d="M 269 3500 
L 844 3500 
L 1563 769 
L 2278 3500 
L 2956 3500 
L 3675 769 
L 4391 3500 
L 4966 3500 
L 4050 0 
L 3372 0 
L 2619 2869 
L 1863 0 
L 1184 0 
L 269 3500 
z
" transform="scale(0.015625)"/>
       <path id="DejaVuSans-61" d="M 2194 1759 
Q 1497 1759 1228 1600 
Q 959 1441 959 1056 
Q 959 750 1161 570 
Q 1363 391 1709 391 
Q 2188 391 2477 730 
Q 2766 1069 2766 1631 
L 2766 1759 
L 2194 1759 
z
M 3341 1997 
L 3341 0 
L 2766 0 
L 2766 531 
Q 2569 213 2275 61 
Q 1981 -91 1556 -91 
Q 1019 -91 701 211 
Q 384 513 384 1019 
Q 384 1609 779 1909 
Q 1175 2209 1959 2209 
L 2766 2209 
L 2766 2266 
Q 2766 2663 2505 2880 
Q 2244 3097 1772 3097 
Q 1472 3097 1187 3025 
Q 903 2953 641 2809 
L 641 3341 
Q 956 3463 1253 3523 
Q 1550 3584 1831 3584 
Q 2591 3584 2966 3190 
Q 3341 2797 3341 1997 
z
" transform="scale(0.015625)"/>
       <path id="DejaVuSans-70" d="M 1159 525 
L 1159 -1331 
L 581 -1331 
L 581 3500 
L 1159 3500 
L 1159 2969 
Q 1341 3281 1617 3432 
Q 1894 3584 2278 3584 
Q 2916 3584 3314 3078 
Q 3713 2572 3713 1747 
Q 3713 922 3314 415 
Q 2916 -91 2278 -91 
Q 1894 -91 1617 61 
Q 1341 213 1159 525 
z
M 3116 1747 
Q 3116 2381 2855 2742 
Q 2594 3103 2138 3103 
Q 1681 3103 1420 2742 
Q 1159 2381 1159 1747 
Q 1159 1113 1420 752 
Q 1681 391 2138 391 
Q 2594 391 2855 752 
Q 3116 1113 3116 1747 
z
" transform="scale(0.015625)"/>
      </defs>
      <use xlink:href="#DejaVuSans-6e"/>
      <use xlink:href="#DejaVuSans-75" x="63.378906"/>
      <use xlink:href="#DejaVuSans-6d" x="126.757812"/>
      <use xlink:href="#DejaVuSans-20" x="224.169922"/>
      <use xlink:href="#DejaVuSans-73" x="255.957031"/>
      <use xlink:href="#DejaVuSans-77" x="308.056641"/>
      <use xlink:href="#DejaVuSans-61" x="389.84375"/>
      <use xlink:href="#DejaVuSans-70" x="451.123047"/>
      <use xlink:href="#DejaVuSans-73" x="514.599609"/>
     </g>
    </g>
   </g>
   <g id="matplotlib.axis_2">
    <g id="ytick_1">
     <g id="line2d_10">
      <defs>
       <path id="mb46603c26d" d="M 0 0 
L -3.5 0 
" style="stroke: #000000; stroke-width: 0.8"/>
      </defs>
      <g>
       <use xlink:href="#mb46603c26d" x="57.6" y="276.637091" style="stroke: #000000; stroke-width: 0.8"/>
      </g>
     </g>
     <g id="text_11">
      <!-- 250 -->
      <g transform="translate(31.5125 280.43631)scale(0.1 -0.1)">
       <use xlink:href="#DejaVuSans-32"/>
       <use xlink:href="#DejaVuSans-35" x="63.623047"/>
       <use xlink:href="#DejaVuSans-30" x="127.246094"/>
      </g>
     </g>
    </g>
    <g id="ytick_2">
     <g id="line2d_11">
      <g>
       <use xlink:href="#mb46603c26d" x="57.6" y="245.218909" style="stroke: #000000; stroke-width: 0.8"/>
      </g>
     </g>
     <g id="text_12">
      <!-- 260 -->
      <g transform="translate(31.5125 249.018128)scale(0.1 -0.1)">
       <defs>
        <path id="DejaVuSans-36" d="M 2113 2584 
Q 1688 2584 1439 2293 
Q 1191 2003 1191 1497 
Q 1191 994 1439 701 
Q 1688 409 2113 409 
Q 2538 409 2786 701 
Q 3034 994 3034 1497 
Q 3034 2003 2786 2293 
Q 2538 2584 2113 2584 
z
M 3366 4563 
L 3366 3988 
Q 3128 4100 2886 4159 
Q 2644 4219 2406 4219 
Q 1781 4219 1451 3797 
Q 1122 3375 1075 2522 
Q 1259 2794 1537 2939 
Q 1816 3084 2150 3084 
Q 2853 3084 3261 2657 
Q 3669 2231 3669 1497 
Q 3669 778 3244 343 
Q 2819 -91 2113 -91 
Q 1303 -91 875 529 
Q 447 1150 447 2328 
Q 447 3434 972 4092 
Q 1497 4750 2381 4750 
Q 2619 4750 2861 4703 
Q 3103 4656 3366 4563 
z
" transform="scale(0.015625)"/>
       </defs>
       <use xlink:href="#DejaVuSans-32"/>
       <use xlink:href="#DejaVuSans-36" x="63.623047"/>
       <use xlink:href="#DejaVuSans-30" x="127.246094"/>
      </g>
     </g>
    </g>
    <g id="ytick_3">
     <g id="line2d_12">
      <g>
       <use xlink:href="#mb46603c26d" x="57.6" y="213.800727" style="stroke: #000000; stroke-width: 0.8"/>
      </g>
     </g>
     <g id="text_13">
      <!-- 270 -->
      <g transform="translate(31.5125 217.599946)scale(0.1 -0.1)">
       <use xlink:href="#DejaVuSans-32"/>
       <use xlink:href="#DejaVuSans-37" x="63.623047"/>
       <use xlink:href="#DejaVuSans-30" x="127.246094"/>
      </g>
     </g>
    </g>
    <g id="ytick_4">
     <g id="line2d_13">
      <g>
       <use xlink:href="#mb46603c26d" x="57.6" y="182.382545" style="stroke: #000000; stroke-width: 0.8"/>
      </g>
     </g>
     <g id="text_14">
      <!-- 280 -->
      <g transform="translate(31.5125 186.181764)scale(0.1 -0.1)">
       <defs>
        <path id="DejaVuSans-38" d="M 2034 2216 
Q 1584 2216 1326 1975 
Q 1069 1734 1069 1313 
Q 1069 891 1326 650 
Q 1584 409 2034 409 
Q 2484 409 2743 651 
Q 3003 894 3003 1313 
Q 3003 1734 2745 1975 
Q 2488 2216 2034 2216 
z
M 1403 2484 
Q 997 2584 770 2862 
Q 544 3141 544 3541 
Q 544 4100 942 4425 
Q 1341 4750 2034 4750 
Q 2731 4750 3128 4425 
Q 3525 4100 3525 3541 
Q 3525 3141 3298 2862 
Q 3072 2584 2669 2484 
Q 3125 2378 3379 2068 
Q 3634 1759 3634 1313 
Q 3634 634 3220 271 
Q 2806 -91 2034 -91 
Q 1263 -91 848 271 
Q 434 634 434 1313 
Q 434 1759 690 2068 
Q 947 2378 1403 2484 
z
M 1172 3481 
Q 1172 3119 1398 2916 
Q 1625 2713 2034 2713 
Q 2441 2713 2670 2916 
Q 2900 3119 2900 3481 
Q 2900 3844 2670 4047 
Q 2441 4250 2034 4250 
Q 1625 4250 1398 4047 
Q 1172 3844 1172 3481 
z
" transform="scale(0.015625)"/>
       </defs>
       <use xlink:href="#DejaVuSans-32"/>
       <use xlink:href="#DejaVuSans-38" x="63.623047"/>
       <use xlink:href="#DejaVuSans-30" x="127.246094"/>
      </g>
     </g>
    </g>
    <g id="ytick_5">
     <g id="line2d_14">
      <g>
       <use xlink:href="#mb46603c26d" x="57.6" y="150.964364" style="stroke: #000000; stroke-width: 0.8"/>
      </g>
     </g>
     <g id="text_15">
      <!-- 290 -->
      <g transform="translate(31.5125 154.763582)scale(0.1 -0.1)">
       <defs>
        <path id="DejaVuSans-39" d="M 703 97 
L 703 672 
Q 941 559 1184 500 
Q 1428 441 1663 441 
Q 2288 441 2617 861 
Q 2947 1281 2994 2138 
Q 2813 1869 2534 1725 
Q 2256 1581 1919 1581 
Q 1219 1581 811 2004 
Q 403 2428 403 3163 
Q 403 3881 828 4315 
Q 1253 4750 1959 4750 
Q 2769 4750 3195 4129 
Q 3622 3509 3622 2328 
Q 3622 1225 3098 567 
Q 2575 -91 1691 -91 
Q 1453 -91 1209 -44 
Q 966 3 703 97 
z
M 1959 2075 
Q 2384 2075 2632 2365 
Q 2881 2656 2881 3163 
Q 2881 3666 2632 3958 
Q 2384 4250 1959 4250 
Q 1534 4250 1286 3958 
Q 1038 3666 1038 3163 
Q 1038 2656 1286 2365 
Q 1534 2075 1959 2075 
z
" transform="scale(0.015625)"/>
       </defs>
       <use xlink:href="#DejaVuSans-32"/>
       <use xlink:href="#DejaVuSans-39" x="63.623047"/>
       <use xlink:href="#DejaVuSans-30" x="127.246094"/>
      </g>
     </g>
    </g>
    <g id="ytick_6">
     <g id="line2d_15">
      <g>
       <use xlink:href="#mb46603c26d" x="57.6" y="119.546182" style="stroke: #000000; stroke-width: 0.8"/>
      </g>
     </g>
     <g id="text_16">
      <!-- 300 -->
      <g transform="translate(31.5125 123.345401)scale(0.1 -0.1)">
       <defs>
        <path id="DejaVuSans-33" d="M 2597 2516 
Q 3050 2419 3304 2112 
Q 3559 1806 3559 1356 
Q 3559 666 3084 287 
Q 2609 -91 1734 -91 
Q 1441 -91 1130 -33 
Q 819 25 488 141 
L 488 750 
Q 750 597 1062 519 
Q 1375 441 1716 441 
Q 2309 441 2620 675 
Q 2931 909 2931 1356 
Q 2931 1769 2642 2001 
Q 2353 2234 1838 2234 
L 1294 2234 
L 1294 2753 
L 1863 2753 
Q 2328 2753 2575 2939 
Q 2822 3125 2822 3475 
Q 2822 3834 2567 4026 
Q 2313 4219 1838 4219 
Q 1578 4219 1281 4162 
Q 984 4106 628 3988 
L 628 4550 
Q 988 4650 1302 4700 
Q 1616 4750 1894 4750 
Q 2613 4750 3031 4423 
Q 3450 4097 3450 3541 
Q 3450 3153 3228 2886 
Q 3006 2619 2597 2516 
z
" transform="scale(0.015625)"/>
       </defs>
       <use xlink:href="#DejaVuSans-33"/>
       <use xlink:href="#DejaVuSans-30" x="63.623047"/>
       <use xlink:href="#DejaVuSans-30" x="127.246094"/>
      </g>
     </g>
    </g>
    <g id="ytick_7">
     <g id="line2d_16">
      <g>
       <use xlink:href="#mb46603c26d" x="57.6" y="88.128" style="stroke: #000000; stroke-width: 0.8"/>
      </g>
     </g>
     <g id="text_17">
      <!-- 310 -->
      <g transform="translate(31.5125 91.927219)scale(0.1 -0.1)">
       <use xlink:href="#DejaVuSans-33"/>
       <use xlink:href="#DejaVuSans-31" x="63.623047"/>
       <use xlink:href="#DejaVuSans-30" x="127.246094"/>
      </g>
     </g>
    </g>
    <g id="ytick_8">
     <g id="line2d_17">
      <g>
       <use xlink:href="#mb46603c26d" x="57.6" y="56.709818" style="stroke: #000000; stroke-width: 0.8"/>
      </g>
     </g>
     <g id="text_18">
      <!-- 320 -->
      <g transform="translate(31.5125 60.509037)scale(0.1 -0.1)">
       <use xlink:href="#DejaVuSans-33"/>
       <use xlink:href="#DejaVuSans-32" x="63.623047"/>
       <use xlink:href="#DejaVuSans-30" x="127.246094"/>
      </g>
     </g>
    </g>
    <g id="text_19">
     <!-- total cost -->
     <g transform="translate(25.432812 197.923313)rotate(-90)scale(0.1 -0.1)">
      <defs>
       <path id="DejaVuSans-74" d="M 1172 4494 
L 1172 3500 
L 2356 3500 
L 2356 3053 
L 1172 3053 
L 1172 1153 
Q 1172 725 1289 603 
Q 1406 481 1766 481 
L 2356 481 
L 2356 0 
L 1766 0 
Q 1100 0 847 248 
Q 594 497 594 1153 
L 594 3053 
L 172 3053 
L 172 3500 
L 594 3500 
L 594 4494 
L 1172 4494 
z
" transform="scale(0.015625)"/>
       <path id="DejaVuSans-6f" d="M 1959 3097 
Q 1497 3097 1228 2736 
Q 959 2375 959 1747 
Q 959 1119 1226 758 
Q 1494 397 1959 397 
Q 2419 397 2687 759 
Q 2956 1122 2956 1747 
Q 2956 2369 2687 2733 
Q 2419 3097 1959 3097 
z
M 1959 3584 
Q 2709 3584 3137 3096 
Q 3566 2609 3566 1747 
Q 3566 888 3137 398 
Q 2709 -91 1959 -91 
Q 1206 -91 779 398 
Q 353 888 353 1747 
Q 353 2609 779 3096 
Q 1206 3584 1959 3584 
z
" transform="scale(0.015625)"/>
       <path id="DejaVuSans-6c" d="M 603 4863 
L 1178 4863 
L 1178 0 
L 603 0 
L 603 4863 
z
" transform="scale(0.015625)"/>
       <path id="DejaVuSans-63" d="M 3122 3366 
L 3122 2828 
Q 2878 2963 2633 3030 
Q 2388 3097 2138 3097 
Q 1578 3097 1268 2742 
Q 959 2388 959 1747 
Q 959 1106 1268 751 
Q 1578 397 2138 397 
Q 2388 397 2633 464 
Q 2878 531 3122 666 
L 3122 134 
Q 2881 22 2623 -34 
Q 2366 -91 2075 -91 
Q 1284 -91 818 406 
Q 353 903 353 1747 
Q 353 2603 823 3093 
Q 1294 3584 2113 3584 
Q 2378 3584 2631 3529 
Q 2884 3475 3122 3366 
z
" transform="scale(0.015625)"/>
      </defs>
      <use xlink:href="#DejaVuSans-74"/>
      <use xlink:href="#DejaVuSans-6f" x="39.208984"/>
      <use xlink:href="#DejaVuSans-74" x="100.390625"/>
      <use xlink:href="#DejaVuSans-61" x="139.599609"/>
      <use xlink:href="#DejaVuSans-6c" x="200.878906"/>
      <use xlink:href="#DejaVuSans-20" x="228.662109"/>
      <use xlink:href="#DejaVuSans-63" x="260.449219"/>
      <use xlink:href="#DejaVuSans-6f" x="315.429688"/>
      <use xlink:href="#DejaVuSans-73" x="376.611328"/>
      <use xlink:href="#DejaVuSans-74" x="428.710938"/>
     </g>
    </g>
   </g>
   <g id="line2d_18">
    <path d="M 73.832727 220.084364 
L 74.165365 216.942545 
L 74.498003 198.091636 
L 74.830641 207.517091 
L 75.163279 198.091636 
L 75.495917 179.240727 
L 75.828554 176.098909 
L 76.161192 179.240727 
L 76.49383 185.524364 
L 76.826468 163.531636 
L 77.159106 166.673455 
L 77.491744 179.240727 
L 77.824382 172.957091 
L 78.157019 176.098909 
L 78.489657 169.815273 
L 78.822295 176.098909 
L 79.154933 172.957091 
L 79.487571 166.673455 
L 79.820209 154.106182 
L 80.152846 135.255273 
L 80.485484 163.531636 
L 80.818122 144.680727 
L 81.15076 141.538909 
L 81.483398 132.113455 
L 81.816036 138.397091 
L 82.148674 132.113455 
L 82.813949 169.815273 
L 83.146587 163.531636 
L 83.479225 166.673455 
L 83.811863 185.524364 
L 84.144501 179.240727 
L 84.809776 210.658909 
L 85.142414 210.658909 
L 85.475052 198.091636 
L 86.140328 235.793455 
L 86.472966 232.651636 
L 86.805604 238.935273 
L 87.138241 235.793455 
L 87.803517 235.793455 
L 88.136155 248.360727 
L 88.468793 238.935273 
L 88.801431 210.658909 
L 89.134069 223.226182 
L 89.466706 207.517091 
L 89.799344 207.517091 
L 90.131982 223.226182 
L 90.46462 210.658909 
L 90.797258 188.666182 
L 91.129896 223.226182 
L 91.462534 194.949818 
L 91.795171 204.375273 
L 92.127809 204.375273 
L 92.793085 188.666182 
L 93.125723 198.091636 
L 93.458361 179.240727 
L 93.790999 213.800727 
L 94.123636 210.658909 
L 94.456274 166.673455 
L 94.788912 204.375273 
L 95.12155 216.942545 
L 95.454188 207.517091 
L 95.786826 188.666182 
L 96.119463 191.808 
L 96.452101 204.375273 
L 96.784739 185.524364 
L 97.117377 201.233455 
L 97.450015 135.255273 
L 97.782653 150.964364 
L 98.115291 144.680727 
L 98.447928 88.128 
L 98.780566 100.695273 
L 99.113204 94.411636 
L 99.445842 78.702545 
L 99.77848 91.269818 
L 100.111118 81.844364 
L 100.443756 100.695273 
L 100.776393 88.128 
L 101.109031 141.538909 
L 101.441669 154.106182 
L 101.774307 154.106182 
L 102.106945 150.964364 
L 102.439583 132.113455 
L 102.772221 147.822545 
L 103.104858 147.822545 
L 103.437496 163.531636 
L 103.770134 154.106182 
L 104.102772 163.531636 
L 104.43541 166.673455 
L 104.768048 160.389818 
L 105.100686 150.964364 
L 105.765961 116.404364 
L 106.098599 113.262545 
L 106.431237 128.971636 
L 106.763875 132.113455 
L 107.096513 154.106182 
L 107.429151 157.248 
L 107.761788 185.524364 
L 108.094426 188.666182 
L 108.759702 160.389818 
L 109.09234 163.531636 
L 109.424978 172.957091 
L 109.757615 166.673455 
L 110.090253 169.815273 
L 110.422891 169.815273 
L 110.755529 194.949818 
L 111.088167 191.808 
L 111.420805 210.658909 
L 111.753443 216.942545 
L 112.08608 242.077091 
L 112.418718 213.800727 
L 112.751356 226.368 
L 113.083994 213.800727 
L 113.416632 229.509818 
L 113.74927 213.800727 
L 114.081908 210.658909 
L 114.414545 204.375273 
L 114.747183 213.800727 
L 115.079821 213.800727 
L 115.412459 157.248 
L 115.745097 169.815273 
L 116.077735 147.822545 
L 116.410373 150.964364 
L 116.74301 135.255273 
L 117.075648 135.255273 
L 117.408286 128.971636 
L 117.740924 100.695273 
L 118.073562 128.971636 
L 118.4062 125.829818 
L 118.738838 110.120727 
L 119.071475 119.546182 
L 119.404113 119.546182 
L 119.736751 138.397091 
L 120.069389 147.822545 
L 120.402027 116.404364 
L 120.734665 110.120727 
L 122.065216 75.560727 
L 122.397854 94.411636 
L 122.730492 84.986182 
L 123.06313 106.978909 
L 123.395768 106.978909 
L 123.728405 103.837091 
L 124.061043 113.262545 
L 124.393681 150.964364 
L 124.726319 147.822545 
L 125.058957 122.688 
L 125.391595 113.262545 
L 125.724232 150.964364 
L 126.05687 138.397091 
L 126.722146 160.389818 
L 127.054784 188.666182 
L 127.387422 194.949818 
L 127.72006 185.524364 
L 128.052697 166.673455 
L 128.385335 163.531636 
L 129.050611 135.255273 
L 129.383249 147.822545 
L 130.048525 160.389818 
L 130.381162 179.240727 
L 130.7138 179.240727 
L 131.046438 185.524364 
L 131.379076 169.815273 
L 131.711714 172.957091 
L 132.044352 172.957091 
L 132.37699 176.098909 
L 132.709627 154.106182 
L 133.042265 176.098909 
L 133.374903 188.666182 
L 133.707541 194.949818 
L 134.040179 194.949818 
L 134.372817 188.666182 
L 134.705455 185.524364 
L 135.038092 166.673455 
L 135.37073 176.098909 
L 135.703368 176.098909 
L 136.036006 160.389818 
L 136.701282 147.822545 
L 137.03392 144.680727 
L 137.366557 138.397091 
L 137.699195 160.389818 
L 138.031833 166.673455 
L 138.364471 144.680727 
L 138.697109 144.680727 
L 139.029747 138.397091 
L 139.362385 125.829818 
L 139.695022 157.248 
L 140.02766 147.822545 
L 140.360298 182.382545 
L 140.692936 176.098909 
L 141.025574 198.091636 
L 141.358212 198.091636 
L 141.690849 185.524364 
L 142.023487 207.517091 
L 142.356125 220.084364 
L 142.688763 245.218909 
L 143.021401 238.935273 
L 143.354039 251.502545 
L 144.019314 207.517091 
L 144.351952 207.517091 
L 144.68459 191.808 
L 145.017228 166.673455 
L 145.349866 176.098909 
L 145.682504 210.658909 
L 146.015142 207.517091 
L 146.347779 245.218909 
L 146.680417 210.658909 
L 147.345693 210.658909 
L 147.678331 201.233455 
L 148.010969 204.375273 
L 148.343607 220.084364 
L 148.676244 191.808 
L 149.008882 185.524364 
L 149.34152 185.524364 
L 149.674158 216.942545 
L 150.006796 232.651636 
L 150.339434 235.793455 
L 150.672072 235.793455 
L 151.004709 229.509818 
L 151.337347 226.368 
L 152.002623 163.531636 
L 152.335261 154.106182 
L 152.667899 179.240727 
L 153.000537 176.098909 
L 153.333174 182.382545 
L 153.665812 176.098909 
L 154.331088 198.091636 
L 154.663726 213.800727 
L 154.996364 210.658909 
L 155.661639 176.098909 
L 155.994277 157.248 
L 156.326915 176.098909 
L 156.659553 163.531636 
L 156.992191 179.240727 
L 157.324829 185.524364 
L 157.657466 204.375273 
L 157.990104 179.240727 
L 158.322742 185.524364 
L 158.65538 185.524364 
L 158.988018 201.233455 
L 159.320656 201.233455 
L 159.653294 185.524364 
L 159.985931 194.949818 
L 160.318569 213.800727 
L 160.983845 207.517091 
L 161.316483 226.368 
L 161.649121 223.226182 
L 161.981759 194.949818 
L 162.314396 185.524364 
L 162.647034 166.673455 
L 162.979672 157.248 
L 163.31231 172.957091 
L 163.644948 163.531636 
L 163.977586 188.666182 
L 164.310224 185.524364 
L 164.642861 210.658909 
L 165.308137 232.651636 
L 165.640775 220.084364 
L 165.973413 213.800727 
L 166.306051 216.942545 
L 166.638689 207.517091 
L 166.971326 207.517091 
L 167.303964 204.375273 
L 167.636602 220.084364 
L 167.96924 207.517091 
L 168.301878 201.233455 
L 168.634516 207.517091 
L 168.967154 201.233455 
L 169.299791 220.084364 
L 169.632429 216.942545 
L 169.965067 238.935273 
L 170.630343 220.084364 
L 170.962981 242.077091 
L 171.628256 242.077091 
L 171.960894 238.935273 
L 172.293532 251.502545 
L 172.62617 248.360727 
L 172.958808 270.353455 
L 173.291446 273.495273 
L 173.624083 207.517091 
L 173.956721 194.949818 
L 174.289359 191.808 
L 174.621997 198.091636 
L 174.954635 194.949818 
L 175.619911 223.226182 
L 175.952548 207.517091 
L 176.285186 204.375273 
L 176.617824 264.069818 
L 176.950462 235.793455 
L 177.2831 235.793455 
L 177.615738 238.935273 
L 177.948376 238.935273 
L 178.281013 226.368 
L 178.613651 229.509818 
L 178.946289 213.800727 
L 179.278927 210.658909 
L 179.611565 157.248 
L 179.944203 157.248 
L 180.276841 172.957091 
L 180.942116 216.942545 
L 181.274754 194.949818 
L 181.607392 198.091636 
L 181.94003 157.248 
L 182.272668 169.815273 
L 182.605306 169.815273 
L 182.937943 176.098909 
L 183.270581 176.098909 
L 183.603219 182.382545 
L 183.935857 182.382545 
L 184.268495 176.098909 
L 184.601133 179.240727 
L 184.93377 166.673455 
L 185.266408 182.382545 
L 185.599046 182.382545 
L 185.931684 166.673455 
L 186.264322 166.673455 
L 186.59696 172.957091 
L 186.929598 154.106182 
L 187.262235 150.964364 
L 187.594873 179.240727 
L 187.927511 163.531636 
L 188.260149 172.957091 
L 188.592787 166.673455 
L 188.925425 185.524364 
L 189.258063 176.098909 
L 189.923338 169.815273 
L 190.255976 179.240727 
L 190.588614 201.233455 
L 190.921252 207.517091 
L 191.25389 204.375273 
L 191.586528 207.517091 
L 191.919165 238.935273 
L 192.251803 238.935273 
L 192.584441 210.658909 
L 193.249717 179.240727 
L 193.582355 169.815273 
L 193.914993 191.808 
L 194.24763 182.382545 
L 194.580268 204.375273 
L 194.912906 216.942545 
L 195.245544 220.084364 
L 195.578182 210.658909 
L 195.91082 223.226182 
L 196.243458 201.233455 
L 196.576095 210.658909 
L 196.908733 210.658909 
L 197.574009 226.368 
L 197.906647 220.084364 
L 198.239285 223.226182 
L 198.571923 210.658909 
L 198.90456 216.942545 
L 199.237198 213.800727 
L 199.569836 216.942545 
L 199.902474 216.942545 
L 200.235112 235.793455 
L 200.56775 235.793455 
L 200.900387 238.935273 
L 201.898301 210.658909 
L 202.230939 220.084364 
L 202.563577 188.666182 
L 202.896215 182.382545 
L 203.228852 182.382545 
L 203.56149 128.971636 
L 203.894128 157.248 
L 204.226766 135.255273 
L 204.559404 138.397091 
L 204.892042 144.680727 
L 205.22468 141.538909 
L 205.557317 154.106182 
L 205.889955 125.829818 
L 206.222593 122.688 
L 206.555231 125.829818 
L 206.887869 125.829818 
L 207.220507 113.262545 
L 207.553145 110.120727 
L 207.885782 122.688 
L 208.21842 150.964364 
L 208.551058 160.389818 
L 208.883696 160.389818 
L 209.216334 150.964364 
L 209.548972 160.389818 
L 209.88161 179.240727 
L 210.214247 141.538909 
L 210.546885 138.397091 
L 210.879523 150.964364 
L 211.212161 223.226182 
L 211.544799 223.226182 
L 211.877437 226.368 
L 212.210075 232.651636 
L 212.542712 201.233455 
L 212.87535 226.368 
L 213.207988 220.084364 
L 213.540626 216.942545 
L 213.873264 242.077091 
L 214.205902 245.218909 
L 214.871177 216.942545 
L 215.203815 204.375273 
L 215.536453 223.226182 
L 215.869091 198.091636 
L 216.201729 207.517091 
L 216.534367 223.226182 
L 216.867004 201.233455 
L 217.199642 213.800727 
L 217.53228 248.360727 
L 217.864918 216.942545 
L 218.197556 207.517091 
L 218.530194 238.935273 
L 218.862832 226.368 
L 219.528107 232.651636 
L 219.860745 257.786182 
L 220.193383 251.502545 
L 220.858659 226.368 
L 221.191297 226.368 
L 221.523934 245.218909 
L 222.18921 229.509818 
L 222.521848 229.509818 
L 222.854486 238.935273 
L 223.187124 216.942545 
L 223.519762 226.368 
L 223.852399 226.368 
L 224.185037 232.651636 
L 224.517675 198.091636 
L 224.850313 207.517091 
L 225.182951 210.658909 
L 225.515589 204.375273 
L 225.848227 213.800727 
L 226.180864 194.949818 
L 226.84614 176.098909 
L 227.178778 182.382545 
L 227.511416 169.815273 
L 227.844054 176.098909 
L 228.176692 179.240727 
L 228.509329 163.531636 
L 228.841967 169.815273 
L 229.507243 176.098909 
L 229.839881 169.815273 
L 230.172519 176.098909 
L 230.505156 188.666182 
L 231.170432 163.531636 
L 231.50307 179.240727 
L 231.835708 188.666182 
L 232.168346 185.524364 
L 232.500984 201.233455 
L 232.833621 182.382545 
L 233.166259 179.240727 
L 233.498897 191.808 
L 233.831535 176.098909 
L 234.164173 185.524364 
L 234.496811 185.524364 
L 234.829449 188.666182 
L 235.162086 194.949818 
L 235.494724 198.091636 
L 235.827362 141.538909 
L 236.492638 160.389818 
L 236.825276 157.248 
L 237.157914 166.673455 
L 237.490551 166.673455 
L 237.823189 138.397091 
L 238.155827 147.822545 
L 238.488465 132.113455 
L 238.821103 188.666182 
L 239.153741 191.808 
L 239.486379 188.666182 
L 239.819016 191.808 
L 240.151654 169.815273 
L 240.484292 163.531636 
L 240.81693 154.106182 
L 241.482206 160.389818 
L 241.814844 169.815273 
L 242.480119 204.375273 
L 243.145395 198.091636 
L 243.478033 220.084364 
L 243.810671 232.651636 
L 244.143308 229.509818 
L 244.475946 235.793455 
L 244.808584 232.651636 
L 245.141222 242.077091 
L 245.47386 220.084364 
L 245.806498 176.098909 
L 246.139136 176.098909 
L 246.471773 166.673455 
L 246.804411 169.815273 
L 247.469687 191.808 
L 247.802325 188.666182 
L 248.134963 176.098909 
L 248.467601 154.106182 
L 248.800238 226.368 
L 249.132876 220.084364 
L 249.465514 229.509818 
L 249.798152 260.928 
L 250.13079 267.211636 
L 250.463428 282.920727 
L 250.796066 276.637091 
L 251.128703 267.211636 
L 251.461341 273.495273 
L 251.793979 267.211636 
L 252.126617 232.651636 
L 252.459255 220.084364 
L 252.791893 223.226182 
L 253.124531 248.360727 
L 253.457168 264.069818 
L 253.789806 267.211636 
L 254.122444 248.360727 
L 254.455082 273.495273 
L 254.78772 267.211636 
L 255.452996 267.211636 
L 255.785633 276.637091 
L 256.118271 273.495273 
L 256.450909 260.928 
L 256.783547 264.069818 
L 257.116185 216.942545 
L 257.448823 201.233455 
L 257.781461 223.226182 
L 258.114098 179.240727 
L 258.446736 194.949818 
L 259.112012 207.517091 
L 259.44465 188.666182 
L 259.777288 110.120727 
L 260.442563 150.964364 
L 260.775201 128.971636 
L 261.107839 182.382545 
L 261.440477 182.382545 
L 261.773115 191.808 
L 262.105753 172.957091 
L 262.43839 166.673455 
L 262.771028 169.815273 
L 263.103666 176.098909 
L 263.436304 201.233455 
L 263.768942 198.091636 
L 264.10158 213.800727 
L 264.434218 213.800727 
L 264.766855 216.942545 
L 265.099493 201.233455 
L 265.432131 213.800727 
L 266.430045 154.106182 
L 266.762683 141.538909 
L 267.09532 163.531636 
L 267.427958 154.106182 
L 267.760596 154.106182 
L 268.093234 160.389818 
L 268.425872 160.389818 
L 268.75851 132.113455 
L 269.091148 160.389818 
L 269.423785 128.971636 
L 269.756423 144.680727 
L 270.089061 141.538909 
L 270.421699 157.248 
L 270.754337 191.808 
L 271.086975 201.233455 
L 271.419613 204.375273 
L 271.75225 198.091636 
L 272.084888 194.949818 
L 272.750164 210.658909 
L 273.082802 210.658909 
L 273.748077 248.360727 
L 274.080715 213.800727 
L 274.413353 220.084364 
L 274.745991 260.928 
L 275.411267 229.509818 
L 275.743905 235.793455 
L 276.076542 223.226182 
L 276.741818 191.808 
L 277.074456 204.375273 
L 277.407094 229.509818 
L 278.07237 223.226182 
L 278.405007 238.935273 
L 278.737645 213.800727 
L 279.070283 213.800727 
L 279.402921 210.658909 
L 280.068197 166.673455 
L 280.400835 172.957091 
L 280.733472 166.673455 
L 281.06611 179.240727 
L 281.398748 172.957091 
L 281.731386 157.248 
L 282.7293 207.517091 
L 283.061937 191.808 
L 283.394575 157.248 
L 283.727213 154.106182 
L 284.059851 179.240727 
L 284.392489 179.240727 
L 284.725127 172.957091 
L 285.057765 179.240727 
L 285.390402 182.382545 
L 285.72304 182.382545 
L 286.055678 176.098909 
L 286.388316 157.248 
L 286.720954 157.248 
L 287.053592 119.546182 
L 287.38623 110.120727 
L 287.718867 132.113455 
L 288.051505 138.397091 
L 288.384143 135.255273 
L 288.716781 138.397091 
L 289.049419 119.546182 
L 289.382057 125.829818 
L 289.714694 116.404364 
L 290.047332 132.113455 
L 290.37997 125.829818 
L 290.712608 62.993455 
L 291.045246 53.568 
L 291.377884 56.709818 
L 291.710522 75.560727 
L 292.043159 78.702545 
L 292.375797 78.702545 
L 292.708435 88.128 
L 293.373711 125.829818 
L 293.706349 135.255273 
L 294.038987 154.106182 
L 294.704262 110.120727 
L 295.0369 113.262545 
L 295.702176 128.971636 
L 296.034814 132.113455 
L 296.367452 122.688 
L 296.700089 138.397091 
L 297.032727 135.255273 
L 297.365365 141.538909 
L 297.698003 144.680727 
L 298.030641 154.106182 
L 298.363279 147.822545 
L 298.695917 157.248 
L 299.028554 144.680727 
L 299.69383 150.964364 
L 300.026468 135.255273 
L 300.359106 213.800727 
L 300.691744 216.942545 
L 301.024382 213.800727 
L 301.357019 229.509818 
L 301.689657 185.524364 
L 302.022295 179.240727 
L 302.354933 182.382545 
L 302.687571 163.531636 
L 303.685484 194.949818 
L 304.018122 163.531636 
L 304.35076 157.248 
L 305.016036 216.942545 
L 305.348674 223.226182 
L 305.681311 226.368 
L 306.013949 223.226182 
L 306.346587 245.218909 
L 306.679225 238.935273 
L 307.011863 238.935273 
L 307.344501 254.644364 
L 307.677139 257.786182 
L 308.009776 279.778909 
L 308.342414 260.928 
L 308.675052 257.786182 
L 309.00769 238.935273 
L 309.340328 232.651636 
L 310.005604 163.531636 
L 310.338241 172.957091 
L 310.670879 150.964364 
L 311.003517 179.240727 
L 311.336155 163.531636 
L 311.668793 176.098909 
L 312.001431 169.815273 
L 312.334069 194.949818 
L 312.999344 163.531636 
L 313.331982 169.815273 
L 313.66462 172.957091 
L 313.997258 150.964364 
L 314.662534 144.680727 
L 314.995171 157.248 
L 315.327809 154.106182 
L 315.660447 163.531636 
L 315.993085 166.673455 
L 316.325723 128.971636 
L 316.990999 163.531636 
L 317.323636 166.673455 
L 317.656274 166.673455 
L 318.32155 154.106182 
L 318.654188 135.255273 
L 318.986826 169.815273 
L 319.319463 160.389818 
L 319.652101 163.531636 
L 319.984739 154.106182 
L 320.650015 166.673455 
L 321.315291 188.666182 
L 321.647928 201.233455 
L 321.980566 198.091636 
L 322.313204 207.517091 
L 323.311118 188.666182 
L 323.643756 188.666182 
L 323.976393 185.524364 
L 324.309031 188.666182 
L 324.641669 188.666182 
L 324.974307 229.509818 
L 325.639583 198.091636 
L 325.972221 210.658909 
L 326.304858 201.233455 
L 326.637496 185.524364 
L 326.970134 188.666182 
L 327.63541 201.233455 
L 327.968048 210.658909 
L 328.300686 201.233455 
L 328.965961 229.509818 
L 329.298599 226.368 
L 329.631237 242.077091 
L 329.963875 226.368 
L 330.296513 223.226182 
L 330.629151 207.517091 
L 330.961788 207.517091 
L 331.294426 210.658909 
L 331.627064 204.375273 
L 331.959702 226.368 
L 332.29234 232.651636 
L 332.624978 210.658909 
L 332.957615 213.800727 
L 333.290253 223.226182 
L 333.622891 254.644364 
L 333.955529 251.502545 
L 334.288167 245.218909 
L 334.620805 245.218909 
L 334.953443 276.637091 
L 335.28608 279.778909 
L 335.618718 232.651636 
L 335.951356 229.509818 
L 336.283994 254.644364 
L 336.616632 260.928 
L 336.94927 245.218909 
L 337.281908 242.077091 
L 338.279821 270.353455 
L 338.945097 276.637091 
L 339.277735 276.637091 
L 339.610373 282.920727 
L 339.94301 276.637091 
L 340.275648 276.637091 
L 340.940924 251.502545 
L 341.6062 270.353455 
L 341.938838 273.495273 
L 342.271475 279.778909 
L 342.604113 273.495273 
L 342.936751 295.488 
L 343.269389 289.204364 
L 343.602027 273.495273 
L 343.934665 286.062545 
L 344.59994 273.495273 
L 345.265216 273.495273 
L 345.597854 286.062545 
L 346.26313 242.077091 
L 346.595768 251.502545 
L 346.928405 251.502545 
L 347.593681 220.084364 
L 348.258957 204.375273 
L 348.591595 210.658909 
L 348.924232 204.375273 
L 349.25687 169.815273 
L 349.589508 154.106182 
L 349.922146 157.248 
L 350.254784 166.673455 
L 350.587422 169.815273 
L 350.92006 166.673455 
L 351.252697 191.808 
L 351.585335 188.666182 
L 351.917973 182.382545 
L 352.583249 210.658909 
L 352.915887 210.658909 
L 353.248525 207.517091 
L 353.581162 207.517091 
L 353.9138 179.240727 
L 354.246438 204.375273 
L 354.579076 188.666182 
L 355.244352 204.375273 
L 355.57699 201.233455 
L 355.909627 194.949818 
L 356.242265 204.375273 
L 356.574903 185.524364 
L 357.240179 204.375273 
L 357.572817 125.829818 
L 357.905455 150.964364 
L 358.238092 150.964364 
L 358.57073 138.397091 
L 358.903368 147.822545 
L 359.236006 132.113455 
L 359.568644 103.837091 
L 359.901282 116.404364 
L 360.23392 113.262545 
L 360.566557 119.546182 
L 360.899195 119.546182 
L 361.231833 128.971636 
L 361.564471 128.971636 
L 361.897109 125.829818 
L 362.229747 97.553455 
L 362.895022 125.829818 
L 363.22766 138.397091 
L 363.560298 141.538909 
L 364.225574 188.666182 
L 364.558212 182.382545 
L 364.890849 204.375273 
L 365.223487 185.524364 
L 365.556125 198.091636 
L 366.221401 179.240727 
L 366.554039 154.106182 
L 366.886677 172.957091 
L 367.219314 147.822545 
L 367.551952 144.680727 
L 367.88459 157.248 
L 368.217228 144.680727 
L 368.882504 163.531636 
L 369.215142 150.964364 
L 369.547779 116.404364 
L 369.880417 116.404364 
L 370.213055 135.255273 
L 370.545693 191.808 
L 371.210969 154.106182 
L 371.543607 147.822545 
L 371.876244 132.113455 
L 372.208882 138.397091 
L 372.54152 147.822545 
L 372.874158 169.815273 
L 373.206796 238.935273 
L 373.539434 238.935273 
L 373.872072 232.651636 
L 374.204709 220.084364 
L 374.537347 194.949818 
L 374.869985 182.382545 
L 375.202623 204.375273 
L 375.535261 185.524364 
L 375.867899 185.524364 
L 376.200537 182.382545 
L 376.533174 182.382545 
L 377.19845 207.517091 
L 377.531088 213.800727 
L 377.863726 201.233455 
L 378.196364 226.368 
L 378.529001 188.666182 
L 378.861639 188.666182 
L 379.194277 185.524364 
L 379.526915 172.957091 
L 379.859553 176.098909 
L 380.192191 169.815273 
L 380.524829 141.538909 
L 380.857466 191.808 
L 381.190104 204.375273 
L 381.522742 188.666182 
L 381.85538 185.524364 
L 382.188018 188.666182 
L 382.520656 226.368 
L 382.853294 216.942545 
L 383.185931 220.084364 
L 383.851207 198.091636 
L 384.183845 201.233455 
L 384.516483 201.233455 
L 384.849121 198.091636 
L 385.514396 176.098909 
L 385.847034 179.240727 
L 386.179672 166.673455 
L 386.51231 172.957091 
L 386.844948 172.957091 
L 387.177586 179.240727 
L 387.510224 179.240727 
L 387.842861 191.808 
L 388.175499 188.666182 
L 388.508137 207.517091 
L 388.840775 194.949818 
L 389.173413 204.375273 
L 389.506051 235.793455 
L 390.171326 235.793455 
L 390.503964 238.935273 
L 390.836602 226.368 
L 391.16924 235.793455 
L 391.501878 254.644364 
L 391.834516 260.928 
L 392.167154 235.793455 
L 392.499791 245.218909 
L 392.832429 229.509818 
L 393.165067 264.069818 
L 393.497705 267.211636 
L 393.830343 235.793455 
L 394.162981 223.226182 
L 394.495618 198.091636 
L 394.828256 194.949818 
L 395.160894 226.368 
L 395.493532 232.651636 
L 395.82617 223.226182 
L 396.158808 235.793455 
L 396.491446 242.077091 
L 396.824083 229.509818 
L 397.156721 229.509818 
L 397.489359 238.935273 
L 397.821997 229.509818 
L 398.154635 213.800727 
L 398.487273 220.084364 
L 398.487273 220.084364 
" clip-path="url(#p8634e97988)" style="fill: none; stroke: #1f77b4; stroke-width: 1.5; stroke-linecap: square"/>
   </g>
   <g id="patch_3">
    <path d="M 57.6 307.584 
L 57.6 41.472 
" style="fill: none; stroke: #000000; stroke-width: 0.8; stroke-linejoin: miter; stroke-linecap: square"/>
   </g>
   <g id="patch_4">
    <path d="M 414.72 307.584 
L 414.72 41.472 
" style="fill: none; stroke: #000000; stroke-width: 0.8; stroke-linejoin: miter; stroke-linecap: square"/>
   </g>
   <g id="patch_5">
    <path d="M 57.6 307.584 
L 414.72 307.584 
" style="fill: none; stroke: #000000; stroke-width: 0.8; stroke-linejoin: miter; stroke-linecap: square"/>
   </g>
   <g id="patch_6">
    <path d="M 57.6 41.472 
L 414.72 41.472 
" style="fill: none; stroke: #000000; stroke-width: 0.8; stroke-linejoin: miter; stroke-linecap: square"/>
   </g>
   <g id="text_20">
    <!-- Simulated Anealling Cost -->
    <g transform="translate(160.8 35.472)scale(0.12 -0.12)">
     <defs>
      <path id="DejaVuSans-53" d="M 3425 4513 
L 3425 3897 
Q 3066 4069 2747 4153 
Q 2428 4238 2131 4238 
Q 1616 4238 1336 4038 
Q 1056 3838 1056 3469 
Q 1056 3159 1242 3001 
Q 1428 2844 1947 2747 
L 2328 2669 
Q 3034 2534 3370 2195 
Q 3706 1856 3706 1288 
Q 3706 609 3251 259 
Q 2797 -91 1919 -91 
Q 1588 -91 1214 -16 
Q 841 59 441 206 
L 441 856 
Q 825 641 1194 531 
Q 1563 422 1919 422 
Q 2459 422 2753 634 
Q 3047 847 3047 1241 
Q 3047 1584 2836 1778 
Q 2625 1972 2144 2069 
L 1759 2144 
Q 1053 2284 737 2584 
Q 422 2884 422 3419 
Q 422 4038 858 4394 
Q 1294 4750 2059 4750 
Q 2388 4750 2728 4690 
Q 3069 4631 3425 4513 
z
" transform="scale(0.015625)"/>
      <path id="DejaVuSans-69" d="M 603 3500 
L 1178 3500 
L 1178 0 
L 603 0 
L 603 3500 
z
M 603 4863 
L 1178 4863 
L 1178 4134 
L 603 4134 
L 603 4863 
z
" transform="scale(0.015625)"/>
      <path id="DejaVuSans-65" d="M 3597 1894 
L 3597 1613 
L 953 1613 
Q 991 1019 1311 708 
Q 1631 397 2203 397 
Q 2534 397 2845 478 
Q 3156 559 3463 722 
L 3463 178 
Q 3153 47 2828 -22 
Q 2503 -91 2169 -91 
Q 1331 -91 842 396 
Q 353 884 353 1716 
Q 353 2575 817 3079 
Q 1281 3584 2069 3584 
Q 2775 3584 3186 3129 
Q 3597 2675 3597 1894 
z
M 3022 2063 
Q 3016 2534 2758 2815 
Q 2500 3097 2075 3097 
Q 1594 3097 1305 2825 
Q 1016 2553 972 2059 
L 3022 2063 
z
" transform="scale(0.015625)"/>
      <path id="DejaVuSans-64" d="M 2906 2969 
L 2906 4863 
L 3481 4863 
L 3481 0 
L 2906 0 
L 2906 525 
Q 2725 213 2448 61 
Q 2172 -91 1784 -91 
Q 1150 -91 751 415 
Q 353 922 353 1747 
Q 353 2572 751 3078 
Q 1150 3584 1784 3584 
Q 2172 3584 2448 3432 
Q 2725 3281 2906 2969 
z
M 947 1747 
Q 947 1113 1208 752 
Q 1469 391 1925 391 
Q 2381 391 2643 752 
Q 2906 1113 2906 1747 
Q 2906 2381 2643 2742 
Q 2381 3103 1925 3103 
Q 1469 3103 1208 2742 
Q 947 2381 947 1747 
z
" transform="scale(0.015625)"/>
      <path id="DejaVuSans-41" d="M 2188 4044 
L 1331 1722 
L 3047 1722 
L 2188 4044 
z
M 1831 4666 
L 2547 4666 
L 4325 0 
L 3669 0 
L 3244 1197 
L 1141 1197 
L 716 0 
L 50 0 
L 1831 4666 
z
" transform="scale(0.015625)"/>
      <path id="DejaVuSans-67" d="M 2906 1791 
Q 2906 2416 2648 2759 
Q 2391 3103 1925 3103 
Q 1463 3103 1205 2759 
Q 947 2416 947 1791 
Q 947 1169 1205 825 
Q 1463 481 1925 481 
Q 2391 481 2648 825 
Q 2906 1169 2906 1791 
z
M 3481 434 
Q 3481 -459 3084 -895 
Q 2688 -1331 1869 -1331 
Q 1566 -1331 1297 -1286 
Q 1028 -1241 775 -1147 
L 775 -588 
Q 1028 -725 1275 -790 
Q 1522 -856 1778 -856 
Q 2344 -856 2625 -561 
Q 2906 -266 2906 331 
L 2906 616 
Q 2728 306 2450 153 
Q 2172 0 1784 0 
Q 1141 0 747 490 
Q 353 981 353 1791 
Q 353 2603 747 3093 
Q 1141 3584 1784 3584 
Q 2172 3584 2450 3431 
Q 2728 3278 2906 2969 
L 2906 3500 
L 3481 3500 
L 3481 434 
z
" transform="scale(0.015625)"/>
      <path id="DejaVuSans-43" d="M 4122 4306 
L 4122 3641 
Q 3803 3938 3442 4084 
Q 3081 4231 2675 4231 
Q 1875 4231 1450 3742 
Q 1025 3253 1025 2328 
Q 1025 1406 1450 917 
Q 1875 428 2675 428 
Q 3081 428 3442 575 
Q 3803 722 4122 1019 
L 4122 359 
Q 3791 134 3420 21 
Q 3050 -91 2638 -91 
Q 1578 -91 968 557 
Q 359 1206 359 2328 
Q 359 3453 968 4101 
Q 1578 4750 2638 4750 
Q 3056 4750 3426 4639 
Q 3797 4528 4122 4306 
z
" transform="scale(0.015625)"/>
     </defs>
     <use xlink:href="#DejaVuSans-53"/>
     <use xlink:href="#DejaVuSans-69" x="63.476562"/>
     <use xlink:href="#DejaVuSans-6d" x="91.259766"/>
     <use xlink:href="#DejaVuSans-75" x="188.671875"/>
     <use xlink:href="#DejaVuSans-6c" x="252.050781"/>
     <use xlink:href="#DejaVuSans-61" x="279.833984"/>
     <use xlink:href="#DejaVuSans-74" x="341.113281"/>
     <use xlink:href="#DejaVuSans-65" x="380.322266"/>
     <use xlink:href="#DejaVuSans-64" x="441.845703"/>
     <use xlink:href="#DejaVuSans-20" x="505.322266"/>
     <use xlink:href="#DejaVuSans-41" x="537.109375"/>
     <use xlink:href="#DejaVuSans-6e" x="605.517578"/>
     <use xlink:href="#DejaVuSans-65" x="668.896484"/>
     <use xlink:href="#DejaVuSans-61" x="730.419922"/>
     <use xlink:href="#DejaVuSans-6c" x="791.699219"/>
     <use xlink:href="#DejaVuSans-6c" x="819.482422"/>
     <use xlink:href="#DejaVuSans-69" x="847.265625"/>
     <use xlink:href="#DejaVuSans-6e" x="875.048828"/>
     <use xlink:href="#DejaVuSans-67" x="938.427734"/>
     <use xlink:href="#DejaVuSans-20" x="1001.904297"/>
     <use xlink:href="#DejaVuSans-43" x="1033.691406"/>
     <use xlink:href="#DejaVuSans-6f" x="1103.515625"/>
     <use xlink:href="#DejaVuSans-73" x="1164.697266"/>
     <use xlink:href="#DejaVuSans-74" x="1216.796875"/>
    </g>
   </g>
  </g>
 </g>
 <defs>
  <clipPath id="p8634e97988">
   <rect x="57.6" y="41.472" width="357.12" height="266.112"/>
  </clipPath>
 </defs>
</svg>
