<?xml version="1.0" encoding="utf-8" standalone="no"?>
<!DOCTYPE svg PUBLIC "-//W3C//DTD SVG 1.1//EN"
  "http://www.w3.org/Graphics/SVG/1.1/DTD/svg11.dtd">
<svg xmlns:xlink="http://www.w3.org/1999/xlink" width="460.8pt" height="345.6pt" viewBox="0 0 460.8 345.6" xmlns="http://www.w3.org/2000/svg" version="1.1">
 <metadata>
  <rdf:RDF xmlns:dc="http://purl.org/dc/elements/1.1/" xmlns:cc="http://creativecommons.org/ns#" xmlns:rdf="http://www.w3.org/1999/02/22-rdf-syntax-ns#">
   <cc:Work>
    <dc:type rdf:resource="http://purl.org/dc/dcmitype/StillImage"/>
    <dc:date>2022-06-01T08:07:59.005870</dc:date>
    <dc:format>image/svg+xml</dc:format>
    <dc:creator>
     <cc:Agent>
      <dc:title>Matplotlib v3.5.1, https://matplotlib.org/</dc:title>
     </cc:Agent>
    </dc:creator>
   </cc:Work>
  </rdf:RDF>
 </metadata>
 <defs>
  <style type="text/css">*{stroke-linejoin: round; stroke-linecap: butt}</style>
 </defs>
 <g id="figure_1">
  <g id="patch_1">
   <path d="M 0 345.6 
L 460.8 345.6 
L 460.8 0 
L 0 0 
z
" style="fill: #ffffff"/>
  </g>
  <g id="axes_1">
   <g id="patch_2">
    <path d="M 57.6 307.584 
L 414.72 307.584 
L 414.72 41.472 
L 57.6 41.472 
z
" style="fill: #ffffff"/>
   </g>
   <g id="matplotlib.axis_1">
    <g id="xtick_1">
     <g id="line2d_1">
      <defs>
       <path id="ma378bef6b9" d="M 0 0 
L 0 3.5 
" style="stroke: #000000; stroke-width: 0.8"/>
      </defs>
      <g>
       <use xlink:href="#ma378bef6b9" x="73.832727" y="307.584" style="stroke: #000000; stroke-width: 0.8"/>
      </g>
     </g>
     <g id="text_1">
      <!-- 0 -->
      <g transform="translate(70.651477 322.182437)scale(0.1 -0.1)">
       <defs>
        <path id="DejaVuSans-30" d="M 2034 4250 
Q 1547 4250 1301 3770 
Q 1056 3291 1056 2328 
Q 1056 1369 1301 889 
Q 1547 409 2034 409 
Q 2525 409 2770 889 
Q 3016 1369 3016 2328 
Q 3016 3291 2770 3770 
Q 2525 4250 2034 4250 
z
M 2034 4750 
Q 2819 4750 3233 4129 
Q 3647 3509 3647 2328 
Q 3647 1150 3233 529 
Q 2819 -91 2034 -91 
Q 1250 -91 836 529 
Q 422 1150 422 2328 
Q 422 3509 836 4129 
Q 1250 4750 2034 4750 
z
" transform="scale(0.015625)"/>
       </defs>
       <use xlink:href="#DejaVuSans-30"/>
      </g>
     </g>
    </g>
    <g id="xtick_2">
     <g id="line2d_2">
      <g>
       <use xlink:href="#ma378bef6b9" x="114.333544" y="307.584" style="stroke: #000000; stroke-width: 0.8"/>
      </g>
     </g>
     <g id="text_2">
      <!-- 250 -->
      <g transform="translate(104.789794 322.182437)scale(0.1 -0.1)">
       <defs>
        <path id="DejaVuSans-32" d="M 1228 531 
L 3431 531 
L 3431 0 
L 469 0 
L 469 531 
Q 828 903 1448 1529 
Q 2069 2156 2228 2338 
Q 2531 2678 2651 2914 
Q 2772 3150 2772 3378 
Q 2772 3750 2511 3984 
Q 2250 4219 1831 4219 
Q 1534 4219 1204 4116 
Q 875 4013 500 3803 
L 500 4441 
Q 881 4594 1212 4672 
Q 1544 4750 1819 4750 
Q 2544 4750 2975 4387 
Q 3406 4025 3406 3419 
Q 3406 3131 3298 2873 
Q 3191 2616 2906 2266 
Q 2828 2175 2409 1742 
Q 1991 1309 1228 531 
z
" transform="scale(0.015625)"/>
        <path id="DejaVuSans-35" d="M 691 4666 
L 3169 4666 
L 3169 4134 
L 1269 4134 
L 1269 2991 
Q 1406 3038 1543 3061 
Q 1681 3084 1819 3084 
Q 2600 3084 3056 2656 
Q 3513 2228 3513 1497 
Q 3513 744 3044 326 
Q 2575 -91 1722 -91 
Q 1428 -91 1123 -41 
Q 819 9 494 109 
L 494 744 
Q 775 591 1075 516 
Q 1375 441 1709 441 
Q 2250 441 2565 725 
Q 2881 1009 2881 1497 
Q 2881 1984 2565 2268 
Q 2250 2553 1709 2553 
Q 1456 2553 1204 2497 
Q 953 2441 691 2322 
L 691 4666 
z
" transform="scale(0.015625)"/>
       </defs>
       <use xlink:href="#DejaVuSans-32"/>
       <use xlink:href="#DejaVuSans-35" x="63.623047"/>
       <use xlink:href="#DejaVuSans-30" x="127.246094"/>
      </g>
     </g>
    </g>
    <g id="xtick_3">
     <g id="line2d_3">
      <g>
       <use xlink:href="#ma378bef6b9" x="154.83436" y="307.584" style="stroke: #000000; stroke-width: 0.8"/>
      </g>
     </g>
     <g id="text_3">
      <!-- 500 -->
      <g transform="translate(145.29061 322.182437)scale(0.1 -0.1)">
       <use xlink:href="#DejaVuSans-35"/>
       <use xlink:href="#DejaVuSans-30" x="63.623047"/>
       <use xlink:href="#DejaVuSans-30" x="127.246094"/>
      </g>
     </g>
    </g>
    <g id="xtick_4">
     <g id="line2d_4">
      <g>
       <use xlink:href="#ma378bef6b9" x="195.335177" y="307.584" style="stroke: #000000; stroke-width: 0.8"/>
      </g>
     </g>
     <g id="text_4">
      <!-- 750 -->
      <g transform="translate(185.791427 322.182437)scale(0.1 -0.1)">
       <defs>
        <path id="DejaVuSans-37" d="M 525 4666 
L 3525 4666 
L 3525 4397 
L 1831 0 
L 1172 0 
L 2766 4134 
L 525 4134 
L 525 4666 
z
" transform="scale(0.015625)"/>
       </defs>
       <use xlink:href="#DejaVuSans-37"/>
       <use xlink:href="#DejaVuSans-35" x="63.623047"/>
       <use xlink:href="#DejaVuSans-30" x="127.246094"/>
      </g>
     </g>
    </g>
    <g id="xtick_5">
     <g id="line2d_5">
      <g>
       <use xlink:href="#ma378bef6b9" x="235.835993" y="307.584" style="stroke: #000000; stroke-width: 0.8"/>
      </g>
     </g>
     <g id="text_5">
      <!-- 1000 -->
      <g transform="translate(223.110993 322.182437)scale(0.1 -0.1)">
       <defs>
        <path id="DejaVuSans-31" d="M 794 531 
L 1825 531 
L 1825 4091 
L 703 3866 
L 703 4441 
L 1819 4666 
L 2450 4666 
L 2450 531 
L 3481 531 
L 3481 0 
L 794 0 
L 794 531 
z
" transform="scale(0.015625)"/>
       </defs>
       <use xlink:href="#DejaVuSans-31"/>
       <use xlink:href="#DejaVuSans-30" x="63.623047"/>
       <use xlink:href="#DejaVuSans-30" x="127.246094"/>
       <use xlink:href="#DejaVuSans-30" x="190.869141"/>
      </g>
     </g>
    </g>
    <g id="xtick_6">
     <g id="line2d_6">
      <g>
       <use xlink:href="#ma378bef6b9" x="276.33681" y="307.584" style="stroke: #000000; stroke-width: 0.8"/>
      </g>
     </g>
     <g id="text_6">
      <!-- 1250 -->
      <g transform="translate(263.61181 322.182437)scale(0.1 -0.1)">
       <use xlink:href="#DejaVuSans-31"/>
       <use xlink:href="#DejaVuSans-32" x="63.623047"/>
       <use xlink:href="#DejaVuSans-35" x="127.246094"/>
       <use xlink:href="#DejaVuSans-30" x="190.869141"/>
      </g>
     </g>
    </g>
    <g id="xtick_7">
     <g id="line2d_7">
      <g>
       <use xlink:href="#ma378bef6b9" x="316.837627" y="307.584" style="stroke: #000000; stroke-width: 0.8"/>
      </g>
     </g>
     <g id="text_7">
      <!-- 1500 -->
      <g transform="translate(304.112627 322.182437)scale(0.1 -0.1)">
       <use xlink:href="#DejaVuSans-31"/>
       <use xlink:href="#DejaVuSans-35" x="63.623047"/>
       <use xlink:href="#DejaVuSans-30" x="127.246094"/>
       <use xlink:href="#DejaVuSans-30" x="190.869141"/>
      </g>
     </g>
    </g>
    <g id="xtick_8">
     <g id="line2d_8">
      <g>
       <use xlink:href="#ma378bef6b9" x="357.338443" y="307.584" style="stroke: #000000; stroke-width: 0.8"/>
      </g>
     </g>
     <g id="text_8">
      <!-- 1750 -->
      <g transform="translate(344.613443 322.182437)scale(0.1 -0.1)">
       <use xlink:href="#DejaVuSans-31"/>
       <use xlink:href="#DejaVuSans-37" x="63.623047"/>
       <use xlink:href="#DejaVuSans-35" x="127.246094"/>
       <use xlink:href="#DejaVuSans-30" x="190.869141"/>
      </g>
     </g>
    </g>
    <g id="xtick_9">
     <g id="line2d_9">
      <g>
       <use xlink:href="#ma378bef6b9" x="397.83926" y="307.584" style="stroke: #000000; stroke-width: 0.8"/>
      </g>
     </g>
     <g id="text_9">
      <!-- 2000 -->
      <g transform="translate(385.11426 322.182437)scale(0.1 -0.1)">
       <use xlink:href="#DejaVuSans-32"/>
       <use xlink:href="#DejaVuSans-30" x="63.623047"/>
       <use xlink:href="#DejaVuSans-30" x="127.246094"/>
       <use xlink:href="#DejaVuSans-30" x="190.869141"/>
      </g>
     </g>
    </g>
    <g id="text_10">
     <!-- num swaps -->
     <g transform="translate(207.826406 335.860562)scale(0.1 -0.1)">
      <defs>
       <path id="DejaVuSans-6e" d="M 3513 2113 
L 3513 0 
L 2938 0 
L 2938 2094 
Q 2938 2591 2744 2837 
Q 2550 3084 2163 3084 
Q 1697 3084 1428 2787 
Q 1159 2491 1159 1978 
L 1159 0 
L 581 0 
L 581 3500 
L 1159 3500 
L 1159 2956 
Q 1366 3272 1645 3428 
Q 1925 3584 2291 3584 
Q 2894 3584 3203 3211 
Q 3513 2838 3513 2113 
z
" transform="scale(0.015625)"/>
       <path id="DejaVuSans-75" d="M 544 1381 
L 544 3500 
L 1119 3500 
L 1119 1403 
Q 1119 906 1312 657 
Q 1506 409 1894 409 
Q 2359 409 2629 706 
Q 2900 1003 2900 1516 
L 2900 3500 
L 3475 3500 
L 3475 0 
L 2900 0 
L 2900 538 
Q 2691 219 2414 64 
Q 2138 -91 1772 -91 
Q 1169 -91 856 284 
Q 544 659 544 1381 
z
M 1991 3584 
L 1991 3584 
z
" transform="scale(0.015625)"/>
       <path id="DejaVuSans-6d" d="M 3328 2828 
Q 3544 3216 3844 3400 
Q 4144 3584 4550 3584 
Q 5097 3584 5394 3201 
Q 5691 2819 5691 2113 
L 5691 0 
L 5113 0 
L 5113 2094 
Q 5113 2597 4934 2840 
Q 4756 3084 4391 3084 
Q 3944 3084 3684 2787 
Q 3425 2491 3425 1978 
L 3425 0 
L 2847 0 
L 2847 2094 
Q 2847 2600 2669 2842 
Q 2491 3084 2119 3084 
Q 1678 3084 1418 2786 
Q 1159 2488 1159 1978 
L 1159 0 
L 581 0 
L 581 3500 
L 1159 3500 
L 1159 2956 
Q 1356 3278 1631 3431 
Q 1906 3584 2284 3584 
Q 2666 3584 2933 3390 
Q 3200 3197 3328 2828 
z
" transform="scale(0.015625)"/>
       <path id="DejaVuSans-20" transform="scale(0.015625)"/>
       <path id="DejaVuSans-73" d="M 2834 3397 
L 2834 2853 
Q 2591 2978 2328 3040 
Q 2066 3103 1784 3103 
Q 1356 3103 1142 2972 
Q 928 2841 928 2578 
Q 928 2378 1081 2264 
Q 1234 2150 1697 2047 
L 1894 2003 
Q 2506 1872 2764 1633 
Q 3022 1394 3022 966 
Q 3022 478 2636 193 
Q 2250 -91 1575 -91 
Q 1294 -91 989 -36 
Q 684 19 347 128 
L 347 722 
Q 666 556 975 473 
Q 1284 391 1588 391 
Q 1994 391 2212 530 
Q 2431 669 2431 922 
Q 2431 1156 2273 1281 
Q 2116 1406 1581 1522 
L 1381 1569 
Q 847 1681 609 1914 
Q 372 2147 372 2553 
Q 372 3047 722 3315 
Q 1072 3584 1716 3584 
Q 2034 3584 2315 3537 
Q 2597 3491 2834 3397 
z
" transform="scale(0.015625)"/>
       <path id="DejaVuSans-77" d="M 269 3500 
L 844 3500 
L 1563 769 
L 2278 3500 
L 2956 3500 
L 3675 769 
L 4391 3500 
L 4966 3500 
L 4050 0 
L 3372 0 
L 2619 2869 
L 1863 0 
L 1184 0 
L 269 3500 
z
" transform="scale(0.015625)"/>
       <path id="DejaVuSans-61" d="M 2194 1759 
Q 1497 1759 1228 1600 
Q 959 1441 959 1056 
Q 959 750 1161 570 
Q 1363 391 1709 391 
Q 2188 391 2477 730 
Q 2766 1069 2766 1631 
L 2766 1759 
L 2194 1759 
z
M 3341 1997 
L 3341 0 
L 2766 0 
L 2766 531 
Q 2569 213 2275 61 
Q 1981 -91 1556 -91 
Q 1019 -91 701 211 
Q 384 513 384 1019 
Q 384 1609 779 1909 
Q 1175 2209 1959 2209 
L 2766 2209 
L 2766 2266 
Q 2766 2663 2505 2880 
Q 2244 3097 1772 3097 
Q 1472 3097 1187 3025 
Q 903 2953 641 2809 
L 641 3341 
Q 956 3463 1253 3523 
Q 1550 3584 1831 3584 
Q 2591 3584 2966 3190 
Q 3341 2797 3341 1997 
z
" transform="scale(0.015625)"/>
       <path id="DejaVuSans-70" d="M 1159 525 
L 1159 -1331 
L 581 -1331 
L 581 3500 
L 1159 3500 
L 1159 2969 
Q 1341 3281 1617 3432 
Q 1894 3584 2278 3584 
Q 2916 3584 3314 3078 
Q 3713 2572 3713 1747 
Q 3713 922 3314 415 
Q 2916 -91 2278 -91 
Q 1894 -91 1617 61 
Q 1341 213 1159 525 
z
M 3116 1747 
Q 3116 2381 2855 2742 
Q 2594 3103 2138 3103 
Q 1681 3103 1420 2742 
Q 1159 2381 1159 1747 
Q 1159 1113 1420 752 
Q 1681 391 2138 391 
Q 2594 391 2855 752 
Q 3116 1113 3116 1747 
z
" transform="scale(0.015625)"/>
      </defs>
      <use xlink:href="#DejaVuSans-6e"/>
      <use xlink:href="#DejaVuSans-75" x="63.378906"/>
      <use xlink:href="#DejaVuSans-6d" x="126.757812"/>
      <use xlink:href="#DejaVuSans-20" x="224.169922"/>
      <use xlink:href="#DejaVuSans-73" x="255.957031"/>
      <use xlink:href="#DejaVuSans-77" x="308.056641"/>
      <use xlink:href="#DejaVuSans-61" x="389.84375"/>
      <use xlink:href="#DejaVuSans-70" x="451.123047"/>
      <use xlink:href="#DejaVuSans-73" x="514.599609"/>
     </g>
    </g>
   </g>
   <g id="matplotlib.axis_2">
    <g id="ytick_1">
     <g id="line2d_10">
      <defs>
       <path id="m2da035ec54" d="M 0 0 
L -3.5 0 
" style="stroke: #000000; stroke-width: 0.8"/>
      </defs>
      <g>
       <use xlink:href="#m2da035ec54" x="57.6" y="288.157091" style="stroke: #000000; stroke-width: 0.8"/>
      </g>
     </g>
     <g id="text_11">
      <!-- 240 -->
      <g transform="translate(31.5125 291.95631)scale(0.1 -0.1)">
       <defs>
        <path id="DejaVuSans-34" d="M 2419 4116 
L 825 1625 
L 2419 1625 
L 2419 4116 
z
M 2253 4666 
L 3047 4666 
L 3047 1625 
L 3713 1625 
L 3713 1100 
L 3047 1100 
L 3047 0 
L 2419 0 
L 2419 1100 
L 313 1100 
L 313 1709 
L 2253 4666 
z
" transform="scale(0.015625)"/>
       </defs>
       <use xlink:href="#DejaVuSans-32"/>
       <use xlink:href="#DejaVuSans-34" x="63.623047"/>
       <use xlink:href="#DejaVuSans-30" x="127.246094"/>
      </g>
     </g>
    </g>
    <g id="ytick_2">
     <g id="line2d_11">
      <g>
       <use xlink:href="#m2da035ec54" x="57.6" y="251.502545" style="stroke: #000000; stroke-width: 0.8"/>
      </g>
     </g>
     <g id="text_12">
      <!-- 250 -->
      <g transform="translate(31.5125 255.301764)scale(0.1 -0.1)">
       <use xlink:href="#DejaVuSans-32"/>
       <use xlink:href="#DejaVuSans-35" x="63.623047"/>
       <use xlink:href="#DejaVuSans-30" x="127.246094"/>
      </g>
     </g>
    </g>
    <g id="ytick_3">
     <g id="line2d_12">
      <g>
       <use xlink:href="#m2da035ec54" x="57.6" y="214.848" style="stroke: #000000; stroke-width: 0.8"/>
      </g>
     </g>
     <g id="text_13">
      <!-- 260 -->
      <g transform="translate(31.5125 218.647219)scale(0.1 -0.1)">
       <defs>
        <path id="DejaVuSans-36" d="M 2113 2584 
Q 1688 2584 1439 2293 
Q 1191 2003 1191 1497 
Q 1191 994 1439 701 
Q 1688 409 2113 409 
Q 2538 409 2786 701 
Q 3034 994 3034 1497 
Q 3034 2003 2786 2293 
Q 2538 2584 2113 2584 
z
M 3366 4563 
L 3366 3988 
Q 3128 4100 2886 4159 
Q 2644 4219 2406 4219 
Q 1781 4219 1451 3797 
Q 1122 3375 1075 2522 
Q 1259 2794 1537 2939 
Q 1816 3084 2150 3084 
Q 2853 3084 3261 2657 
Q 3669 2231 3669 1497 
Q 3669 778 3244 343 
Q 2819 -91 2113 -91 
Q 1303 -91 875 529 
Q 447 1150 447 2328 
Q 447 3434 972 4092 
Q 1497 4750 2381 4750 
Q 2619 4750 2861 4703 
Q 3103 4656 3366 4563 
z
" transform="scale(0.015625)"/>
       </defs>
       <use xlink:href="#DejaVuSans-32"/>
       <use xlink:href="#DejaVuSans-36" x="63.623047"/>
       <use xlink:href="#DejaVuSans-30" x="127.246094"/>
      </g>
     </g>
    </g>
    <g id="ytick_4">
     <g id="line2d_13">
      <g>
       <use xlink:href="#m2da035ec54" x="57.6" y="178.193455" style="stroke: #000000; stroke-width: 0.8"/>
      </g>
     </g>
     <g id="text_14">
      <!-- 270 -->
      <g transform="translate(31.5125 181.992673)scale(0.1 -0.1)">
       <use xlink:href="#DejaVuSans-32"/>
       <use xlink:href="#DejaVuSans-37" x="63.623047"/>
       <use xlink:href="#DejaVuSans-30" x="127.246094"/>
      </g>
     </g>
    </g>
    <g id="ytick_5">
     <g id="line2d_14">
      <g>
       <use xlink:href="#m2da035ec54" x="57.6" y="141.538909" style="stroke: #000000; stroke-width: 0.8"/>
      </g>
     </g>
     <g id="text_15">
      <!-- 280 -->
      <g transform="translate(31.5125 145.338128)scale(0.1 -0.1)">
       <defs>
        <path id="DejaVuSans-38" d="M 2034 2216 
Q 1584 2216 1326 1975 
Q 1069 1734 1069 1313 
Q 1069 891 1326 650 
Q 1584 409 2034 409 
Q 2484 409 2743 651 
Q 3003 894 3003 1313 
Q 3003 1734 2745 1975 
Q 2488 2216 2034 2216 
z
M 1403 2484 
Q 997 2584 770 2862 
Q 544 3141 544 3541 
Q 544 4100 942 4425 
Q 1341 4750 2034 4750 
Q 2731 4750 3128 4425 
Q 3525 4100 3525 3541 
Q 3525 3141 3298 2862 
Q 3072 2584 2669 2484 
Q 3125 2378 3379 2068 
Q 3634 1759 3634 1313 
Q 3634 634 3220 271 
Q 2806 -91 2034 -91 
Q 1263 -91 848 271 
Q 434 634 434 1313 
Q 434 1759 690 2068 
Q 947 2378 1403 2484 
z
M 1172 3481 
Q 1172 3119 1398 2916 
Q 1625 2713 2034 2713 
Q 2441 2713 2670 2916 
Q 2900 3119 2900 3481 
Q 2900 3844 2670 4047 
Q 2441 4250 2034 4250 
Q 1625 4250 1398 4047 
Q 1172 3844 1172 3481 
z
" transform="scale(0.015625)"/>
       </defs>
       <use xlink:href="#DejaVuSans-32"/>
       <use xlink:href="#DejaVuSans-38" x="63.623047"/>
       <use xlink:href="#DejaVuSans-30" x="127.246094"/>
      </g>
     </g>
    </g>
    <g id="ytick_6">
     <g id="line2d_15">
      <g>
       <use xlink:href="#m2da035ec54" x="57.6" y="104.884364" style="stroke: #000000; stroke-width: 0.8"/>
      </g>
     </g>
     <g id="text_16">
      <!-- 290 -->
      <g transform="translate(31.5125 108.683582)scale(0.1 -0.1)">
       <defs>
        <path id="DejaVuSans-39" d="M 703 97 
L 703 672 
Q 941 559 1184 500 
Q 1428 441 1663 441 
Q 2288 441 2617 861 
Q 2947 1281 2994 2138 
Q 2813 1869 2534 1725 
Q 2256 1581 1919 1581 
Q 1219 1581 811 2004 
Q 403 2428 403 3163 
Q 403 3881 828 4315 
Q 1253 4750 1959 4750 
Q 2769 4750 3195 4129 
Q 3622 3509 3622 2328 
Q 3622 1225 3098 567 
Q 2575 -91 1691 -91 
Q 1453 -91 1209 -44 
Q 966 3 703 97 
z
M 1959 2075 
Q 2384 2075 2632 2365 
Q 2881 2656 2881 3163 
Q 2881 3666 2632 3958 
Q 2384 4250 1959 4250 
Q 1534 4250 1286 3958 
Q 1038 3666 1038 3163 
Q 1038 2656 1286 2365 
Q 1534 2075 1959 2075 
z
" transform="scale(0.015625)"/>
       </defs>
       <use xlink:href="#DejaVuSans-32"/>
       <use xlink:href="#DejaVuSans-39" x="63.623047"/>
       <use xlink:href="#DejaVuSans-30" x="127.246094"/>
      </g>
     </g>
    </g>
    <g id="ytick_7">
     <g id="line2d_16">
      <g>
       <use xlink:href="#m2da035ec54" x="57.6" y="68.229818" style="stroke: #000000; stroke-width: 0.8"/>
      </g>
     </g>
     <g id="text_17">
      <!-- 300 -->
      <g transform="translate(31.5125 72.029037)scale(0.1 -0.1)">
       <defs>
        <path id="DejaVuSans-33" d="M 2597 2516 
Q 3050 2419 3304 2112 
Q 3559 1806 3559 1356 
Q 3559 666 3084 287 
Q 2609 -91 1734 -91 
Q 1441 -91 1130 -33 
Q 819 25 488 141 
L 488 750 
Q 750 597 1062 519 
Q 1375 441 1716 441 
Q 2309 441 2620 675 
Q 2931 909 2931 1356 
Q 2931 1769 2642 2001 
Q 2353 2234 1838 2234 
L 1294 2234 
L 1294 2753 
L 1863 2753 
Q 2328 2753 2575 2939 
Q 2822 3125 2822 3475 
Q 2822 3834 2567 4026 
Q 2313 4219 1838 4219 
Q 1578 4219 1281 4162 
Q 984 4106 628 3988 
L 628 4550 
Q 988 4650 1302 4700 
Q 1616 4750 1894 4750 
Q 2613 4750 3031 4423 
Q 3450 4097 3450 3541 
Q 3450 3153 3228 2886 
Q 3006 2619 2597 2516 
z
" transform="scale(0.015625)"/>
       </defs>
       <use xlink:href="#DejaVuSans-33"/>
       <use xlink:href="#DejaVuSans-30" x="63.623047"/>
       <use xlink:href="#DejaVuSans-30" x="127.246094"/>
      </g>
     </g>
    </g>
    <g id="text_18">
     <!-- total cost -->
     <g transform="translate(25.432812 197.923313)rotate(-90)scale(0.1 -0.1)">
      <defs>
       <path id="DejaVuSans-74" d="M 1172 4494 
L 1172 3500 
L 2356 3500 
L 2356 3053 
L 1172 3053 
L 1172 1153 
Q 1172 725 1289 603 
Q 1406 481 1766 481 
L 2356 481 
L 2356 0 
L 1766 0 
Q 1100 0 847 248 
Q 594 497 594 1153 
L 594 3053 
L 172 3053 
L 172 3500 
L 594 3500 
L 594 4494 
L 1172 4494 
z
" transform="scale(0.015625)"/>
       <path id="DejaVuSans-6f" d="M 1959 3097 
Q 1497 3097 1228 2736 
Q 959 2375 959 1747 
Q 959 1119 1226 758 
Q 1494 397 1959 397 
Q 2419 397 2687 759 
Q 2956 1122 2956 1747 
Q 2956 2369 2687 2733 
Q 2419 3097 1959 3097 
z
M 1959 3584 
Q 2709 3584 3137 3096 
Q 3566 2609 3566 1747 
Q 3566 888 3137 398 
Q 2709 -91 1959 -91 
Q 1206 -91 779 398 
Q 353 888 353 1747 
Q 353 2609 779 3096 
Q 1206 3584 1959 3584 
z
" transform="scale(0.015625)"/>
       <path id="DejaVuSans-6c" d="M 603 4863 
L 1178 4863 
L 1178 0 
L 603 0 
L 603 4863 
z
" transform="scale(0.015625)"/>
       <path id="DejaVuSans-63" d="M 3122 3366 
L 3122 2828 
Q 2878 2963 2633 3030 
Q 2388 3097 2138 3097 
Q 1578 3097 1268 2742 
Q 959 2388 959 1747 
Q 959 1106 1268 751 
Q 1578 397 2138 397 
Q 2388 397 2633 464 
Q 2878 531 3122 666 
L 3122 134 
Q 2881 22 2623 -34 
Q 2366 -91 2075 -91 
Q 1284 -91 818 406 
Q 353 903 353 1747 
Q 353 2603 823 3093 
Q 1294 3584 2113 3584 
Q 2378 3584 2631 3529 
Q 2884 3475 3122 3366 
z
" transform="scale(0.015625)"/>
      </defs>
      <use xlink:href="#DejaVuSans-74"/>
      <use xlink:href="#DejaVuSans-6f" x="39.208984"/>
      <use xlink:href="#DejaVuSans-74" x="100.390625"/>
      <use xlink:href="#DejaVuSans-61" x="139.599609"/>
      <use xlink:href="#DejaVuSans-6c" x="200.878906"/>
      <use xlink:href="#DejaVuSans-20" x="228.662109"/>
      <use xlink:href="#DejaVuSans-63" x="260.449219"/>
      <use xlink:href="#DejaVuSans-6f" x="315.429688"/>
      <use xlink:href="#DejaVuSans-73" x="376.611328"/>
      <use xlink:href="#DejaVuSans-74" x="428.710938"/>
     </g>
    </g>
   </g>
   <g id="line2d_17">
    <path d="M 73.832727 181.858909 
L 74.156734 200.186182 
L 74.48074 192.855273 
L 74.804747 174.528 
L 75.128753 134.208 
L 75.45276 156.200727 
L 76.100773 156.200727 
L 76.42478 152.535273 
L 77.072793 167.197091 
L 77.396799 167.197091 
L 77.720806 192.855273 
L 78.044812 156.200727 
L 78.368819 181.858909 
L 78.692825 174.528 
L 79.340838 123.211636 
L 79.664845 119.546182 
L 79.988851 101.218909 
L 80.312858 108.549818 
L 80.636864 104.884364 
L 80.960871 108.549818 
L 81.284878 104.884364 
L 81.608884 112.215273 
L 81.932891 141.538909 
L 82.580904 93.888 
L 82.90491 93.888 
L 83.228917 137.873455 
L 83.552923 148.869818 
L 83.87693 134.208 
L 84.200936 145.204364 
L 84.524943 137.873455 
L 84.848949 159.866182 
L 85.172956 148.869818 
L 85.496962 181.858909 
L 86.144976 189.189818 
L 86.792989 189.189818 
L 87.116995 192.855273 
L 87.765008 207.517091 
L 88.089015 196.520727 
L 88.413021 167.197091 
L 88.737028 148.869818 
L 89.061034 159.866182 
L 89.385041 159.866182 
L 89.709047 185.524364 
L 90.033054 189.189818 
L 90.681067 222.178909 
L 91.005073 214.848 
L 91.32908 214.848 
L 91.653087 218.513455 
L 91.977093 262.498909 
L 92.949113 203.851636 
L 93.273119 203.851636 
L 93.597126 222.178909 
L 93.921132 203.851636 
L 94.245139 196.520727 
L 94.569145 196.520727 
L 95.217158 163.531636 
L 95.541165 167.197091 
L 96.189178 159.866182 
L 96.513185 159.866182 
L 96.837191 134.208 
L 97.161198 145.204364 
L 97.485204 126.877091 
L 97.809211 137.873455 
L 98.133217 137.873455 
L 98.457224 148.869818 
L 98.78123 126.877091 
L 99.429243 126.877091 
L 99.75325 134.208 
L 100.077256 152.535273 
L 100.401263 145.204364 
L 100.725269 134.208 
L 101.049276 145.204364 
L 101.373283 115.880727 
L 101.697289 104.884364 
L 102.021296 104.884364 
L 102.345302 112.215273 
L 102.669309 123.211636 
L 103.317322 130.542545 
L 103.965335 130.542545 
L 104.289341 145.204364 
L 104.613348 145.204364 
L 104.937354 130.542545 
L 105.261361 82.891636 
L 105.585367 93.888 
L 105.909374 97.553455 
L 106.557387 134.208 
L 106.881394 134.208 
L 107.2054 126.877091 
L 107.529407 181.858909 
L 107.853413 189.189818 
L 108.17742 214.848 
L 108.825433 196.520727 
L 109.149439 189.189818 
L 109.473446 189.189818 
L 109.797452 152.535273 
L 110.121459 152.535273 
L 110.445465 148.869818 
L 110.769472 148.869818 
L 111.093478 134.208 
L 111.417485 137.873455 
L 111.741492 148.869818 
L 112.065498 178.193455 
L 112.389505 170.862545 
L 112.713511 185.524364 
L 113.037518 185.524364 
L 113.361524 174.528 
L 113.685531 170.862545 
L 114.009537 189.189818 
L 114.65755 207.517091 
L 114.981557 174.528 
L 115.305563 181.858909 
L 115.62957 170.862545 
L 115.953576 145.204364 
L 116.277583 163.531636 
L 116.60159 192.855273 
L 116.925596 185.524364 
L 117.573609 159.866182 
L 117.897616 167.197091 
L 118.221622 178.193455 
L 118.545629 174.528 
L 119.193642 207.517091 
L 119.517648 214.848 
L 119.841655 170.862545 
L 120.165661 148.869818 
L 120.489668 152.535273 
L 120.813674 170.862545 
L 121.137681 170.862545 
L 121.461688 163.531636 
L 121.785694 159.866182 
L 122.109701 170.862545 
L 122.433707 189.189818 
L 122.757714 185.524364 
L 123.405727 222.178909 
L 124.05374 229.509818 
L 124.377746 240.506182 
L 125.349766 159.866182 
L 125.673772 159.866182 
L 125.997779 185.524364 
L 126.321786 163.531636 
L 126.645792 159.866182 
L 126.969799 178.193455 
L 127.293805 148.869818 
L 127.617812 130.542545 
L 127.941818 163.531636 
L 128.265825 159.866182 
L 129.237844 115.880727 
L 129.561851 119.546182 
L 129.885857 130.542545 
L 130.209864 134.208 
L 130.857877 134.208 
L 131.181884 123.211636 
L 131.50589 126.877091 
L 131.829897 126.877091 
L 132.153903 134.208 
L 132.47791 145.204364 
L 132.801916 145.204364 
L 133.125923 170.862545 
L 133.449929 163.531636 
L 134.421949 192.855273 
L 134.745955 170.862545 
L 135.069962 185.524364 
L 135.393968 163.531636 
L 135.717975 244.171636 
L 136.041981 247.837091 
L 136.365988 244.171636 
L 136.689995 196.520727 
L 137.014001 207.517091 
L 137.338008 229.509818 
L 137.662014 222.178909 
L 137.986021 211.182545 
L 138.310027 214.848 
L 138.634034 181.858909 
L 139.606053 192.855273 
L 139.93006 207.517091 
L 140.254066 207.517091 
L 140.578073 214.848 
L 140.902079 240.506182 
L 141.226086 244.171636 
L 141.550093 229.509818 
L 141.874099 240.506182 
L 142.198106 225.844364 
L 142.522112 222.178909 
L 142.846119 225.844364 
L 143.494132 203.851636 
L 143.818138 211.182545 
L 144.142145 211.182545 
L 144.790158 189.189818 
L 145.114164 189.189818 
L 145.438171 170.862545 
L 145.762177 167.197091 
L 146.086184 189.189818 
L 146.734197 159.866182 
L 147.058204 189.189818 
L 147.38221 200.186182 
L 147.706217 200.186182 
L 148.030223 233.175273 
L 148.35423 225.844364 
L 148.678236 280.826182 
L 149.002243 295.488 
L 149.326249 284.491636 
L 149.650256 258.833455 
L 149.974262 244.171636 
L 150.298269 244.171636 
L 150.622275 233.175273 
L 150.946282 170.862545 
L 151.270289 178.193455 
L 151.594295 159.866182 
L 151.918302 134.208 
L 152.242308 123.211636 
L 152.890321 123.211636 
L 153.538334 148.869818 
L 153.862341 145.204364 
L 154.186347 170.862545 
L 154.510354 185.524364 
L 154.83436 185.524364 
L 155.158367 79.226182 
L 155.482373 64.564364 
L 155.80638 57.233455 
L 156.130386 53.568 
L 156.454393 60.898909 
L 156.7784 207.517091 
L 157.102406 211.182545 
L 157.426413 229.509818 
L 157.750419 218.513455 
L 158.074426 214.848 
L 158.398432 214.848 
L 158.722439 207.517091 
L 159.046445 189.189818 
L 159.370452 196.520727 
L 159.694458 178.193455 
L 160.018465 200.186182 
L 160.342471 211.182545 
L 160.666478 189.189818 
L 160.990484 185.524364 
L 161.314491 174.528 
L 161.638498 181.858909 
L 162.286511 174.528 
L 162.610517 75.560727 
L 162.934524 60.898909 
L 163.25853 86.557091 
L 163.582537 90.222545 
L 163.906543 137.873455 
L 164.878563 178.193455 
L 165.202569 148.869818 
L 165.526576 170.862545 
L 165.850582 159.866182 
L 166.174589 141.538909 
L 166.498596 170.862545 
L 166.822602 123.211636 
L 167.470615 130.542545 
L 167.794622 141.538909 
L 168.118628 145.204364 
L 168.442635 159.866182 
L 168.766641 145.204364 
L 169.090648 152.535273 
L 169.414654 192.855273 
L 169.738661 207.517091 
L 170.062667 181.858909 
L 170.386674 192.855273 
L 170.71068 174.528 
L 171.034687 181.858909 
L 171.358694 170.862545 
L 171.6827 170.862545 
L 172.006707 178.193455 
L 172.330713 163.531636 
L 172.65472 181.858909 
L 172.978726 167.197091 
L 173.302733 185.524364 
L 173.626739 178.193455 
L 173.950746 200.186182 
L 174.274752 211.182545 
L 174.598759 200.186182 
L 174.922765 196.520727 
L 175.246772 200.186182 
L 175.570778 207.517091 
L 175.894785 181.858909 
L 176.218792 174.528 
L 176.542798 229.509818 
L 176.866805 229.509818 
L 177.190811 196.520727 
L 177.514818 222.178909 
L 177.838824 218.513455 
L 178.162831 218.513455 
L 178.486837 236.840727 
L 179.13485 251.502545 
L 179.458857 269.829818 
L 179.782863 181.858909 
L 180.10687 163.531636 
L 180.430876 181.858909 
L 180.754883 170.862545 
L 181.402896 123.211636 
L 181.726903 214.848 
L 182.050909 211.182545 
L 182.374916 211.182545 
L 182.698922 214.848 
L 183.022929 196.520727 
L 183.346935 211.182545 
L 183.670942 203.851636 
L 183.994948 218.513455 
L 184.318955 203.851636 
L 184.642961 211.182545 
L 184.966968 207.517091 
L 185.290974 189.189818 
L 185.614981 192.855273 
L 185.938987 185.524364 
L 186.262994 203.851636 
L 186.587001 211.182545 
L 186.911007 211.182545 
L 187.235014 247.837091 
L 187.55902 247.837091 
L 187.883027 229.509818 
L 188.207033 233.175273 
L 188.53104 222.178909 
L 189.179053 229.509818 
L 189.503059 218.513455 
L 189.827066 225.844364 
L 190.151072 218.513455 
L 190.475079 233.175273 
L 190.799085 203.851636 
L 191.123092 203.851636 
L 191.447099 214.848 
L 191.771105 192.855273 
L 192.095112 196.520727 
L 193.067131 236.840727 
L 193.391138 233.175273 
L 193.715144 236.840727 
L 194.039151 222.178909 
L 194.687164 229.509818 
L 195.01117 200.186182 
L 195.335177 196.520727 
L 195.98319 214.848 
L 196.307197 211.182545 
L 196.631203 233.175273 
L 196.95521 236.840727 
L 197.279216 233.175273 
L 197.603223 211.182545 
L 197.927229 203.851636 
L 198.251236 222.178909 
L 198.575242 222.178909 
L 198.899249 244.171636 
L 199.223255 229.509818 
L 199.547262 207.517091 
L 199.871268 207.517091 
L 200.195275 222.178909 
L 200.519281 222.178909 
L 201.167295 200.186182 
L 201.491301 200.186182 
L 201.815308 211.182545 
L 202.139314 211.182545 
L 202.463321 200.186182 
L 202.787327 211.182545 
L 203.111334 233.175273 
L 203.43534 229.509818 
L 203.759347 214.848 
L 204.083353 244.171636 
L 204.40736 240.506182 
L 204.731366 214.848 
L 205.055373 225.844364 
L 205.379379 203.851636 
L 205.703386 200.186182 
L 206.027392 214.848 
L 206.351399 200.186182 
L 206.675406 192.855273 
L 206.999412 192.855273 
L 208.295438 240.506182 
L 208.619445 222.178909 
L 208.943451 192.855273 
L 209.591464 218.513455 
L 209.915471 178.193455 
L 210.239477 181.858909 
L 210.88749 181.858909 
L 211.211497 207.517091 
L 211.535504 181.858909 
L 211.85951 167.197091 
L 212.183517 163.531636 
L 212.83153 196.520727 
L 213.479543 203.851636 
L 214.127556 203.851636 
L 214.451562 196.520727 
L 214.775569 207.517091 
L 215.099575 189.189818 
L 215.423582 203.851636 
L 215.747588 156.200727 
L 216.071595 152.535273 
L 216.395602 145.204364 
L 216.719608 145.204364 
L 217.043615 126.877091 
L 217.367621 145.204364 
L 217.691628 152.535273 
L 218.015634 163.531636 
L 218.663647 137.873455 
L 218.987654 134.208 
L 219.31166 93.888 
L 219.635667 90.222545 
L 219.959673 101.218909 
L 220.28368 126.877091 
L 220.607686 130.542545 
L 220.931693 159.866182 
L 221.2557 148.869818 
L 221.579706 112.215273 
L 222.551726 145.204364 
L 222.875732 141.538909 
L 223.199739 152.535273 
L 223.523745 170.862545 
L 223.847752 170.862545 
L 224.171758 156.200727 
L 224.495765 148.869818 
L 224.819771 152.535273 
L 225.143778 167.197091 
L 225.467784 152.535273 
L 225.791791 130.542545 
L 226.115797 134.208 
L 226.439804 115.880727 
L 226.763811 134.208 
L 227.087817 137.873455 
L 227.411824 167.197091 
L 228.059837 152.535273 
L 228.383843 159.866182 
L 228.70785 152.535273 
L 229.031856 134.208 
L 229.355863 126.877091 
L 229.679869 141.538909 
L 230.003876 145.204364 
L 230.327882 222.178909 
L 230.651889 233.175273 
L 230.975895 225.844364 
L 231.299902 196.520727 
L 231.623909 200.186182 
L 231.947915 218.513455 
L 232.271922 178.193455 
L 232.595928 163.531636 
L 232.919935 159.866182 
L 233.243941 185.524364 
L 233.567948 170.862545 
L 233.891954 163.531636 
L 234.539967 141.538909 
L 234.863974 148.869818 
L 235.18798 163.531636 
L 235.511987 145.204364 
L 235.835993 82.891636 
L 236.16 60.898909 
L 236.484007 68.229818 
L 236.808013 53.568 
L 237.13202 108.549818 
L 237.456026 115.880727 
L 237.780033 134.208 
L 238.428046 141.538909 
L 238.752052 137.873455 
L 239.076059 148.869818 
L 239.400065 141.538909 
L 239.724072 137.873455 
L 240.048078 159.866182 
L 240.372085 156.200727 
L 240.696091 159.866182 
L 241.020098 167.197091 
L 241.344105 163.531636 
L 241.668111 200.186182 
L 241.992118 203.851636 
L 242.316124 233.175273 
L 242.640131 207.517091 
L 242.964137 200.186182 
L 243.61215 167.197091 
L 243.936157 181.858909 
L 244.260163 189.189818 
L 244.58417 192.855273 
L 244.908176 207.517091 
L 245.232183 200.186182 
L 245.556189 207.517091 
L 246.204203 233.175273 
L 246.852216 207.517091 
L 247.500229 163.531636 
L 247.824235 148.869818 
L 248.148242 174.528 
L 249.120261 207.517091 
L 249.444268 207.517091 
L 249.768274 192.855273 
L 250.092281 196.520727 
L 250.416287 192.855273 
L 250.740294 192.855273 
L 251.0643 185.524364 
L 251.388307 185.524364 
L 251.712314 207.517091 
L 252.360327 207.517091 
L 252.684333 170.862545 
L 253.00834 167.197091 
L 253.332346 152.535273 
L 253.656353 130.542545 
L 253.980359 126.877091 
L 254.304366 126.877091 
L 254.952379 167.197091 
L 255.276385 181.858909 
L 255.924398 137.873455 
L 256.248405 130.542545 
L 256.572412 152.535273 
L 256.896418 163.531636 
L 257.220425 167.197091 
L 257.544431 174.528 
L 257.868438 196.520727 
L 258.516451 156.200727 
L 258.840457 156.200727 
L 259.164464 178.193455 
L 259.48847 167.197091 
L 259.812477 181.858909 
L 260.136483 167.197091 
L 260.46049 174.528 
L 260.784496 170.862545 
L 261.108503 156.200727 
L 261.43251 174.528 
L 261.756516 174.528 
L 262.080523 185.524364 
L 262.728536 192.855273 
L 263.052542 200.186182 
L 263.376549 196.520727 
L 263.700555 185.524364 
L 264.024562 181.858909 
L 264.672575 167.197091 
L 265.320588 167.197091 
L 265.644594 196.520727 
L 265.968601 203.851636 
L 266.292608 222.178909 
L 266.616614 196.520727 
L 267.264627 214.848 
L 267.91264 189.189818 
L 268.236647 255.168 
L 268.560653 167.197091 
L 268.88466 123.211636 
L 269.208666 119.546182 
L 269.532673 126.877091 
L 269.856679 123.211636 
L 270.180686 130.542545 
L 270.504692 141.538909 
L 270.828699 185.524364 
L 271.152705 167.197091 
L 271.476712 170.862545 
L 271.800719 178.193455 
L 272.124725 189.189818 
L 272.772738 170.862545 
L 273.096745 181.858909 
L 273.420751 218.513455 
L 273.744758 214.848 
L 274.068764 214.848 
L 274.392771 207.517091 
L 274.716777 192.855273 
L 275.040784 200.186182 
L 275.688797 225.844364 
L 276.012803 251.502545 
L 276.33681 288.157091 
L 276.660817 277.160727 
L 276.984823 258.833455 
L 277.632836 280.826182 
L 277.956843 251.502545 
L 278.280849 244.171636 
L 278.604856 225.844364 
L 278.928862 222.178909 
L 279.252869 236.840727 
L 279.900882 181.858909 
L 280.224888 192.855273 
L 280.548895 189.189818 
L 280.872901 196.520727 
L 281.196908 218.513455 
L 281.520915 222.178909 
L 281.844921 255.168 
L 282.492934 233.175273 
L 282.816941 233.175273 
L 283.140947 240.506182 
L 283.464954 214.848 
L 283.78896 203.851636 
L 284.112967 214.848 
L 284.436973 200.186182 
L 284.76098 196.520727 
L 285.084986 170.862545 
L 285.408993 159.866182 
L 285.732999 185.524364 
L 286.057006 181.858909 
L 286.381013 174.528 
L 286.705019 178.193455 
L 287.029026 159.866182 
L 287.353032 148.869818 
L 287.677039 185.524364 
L 288.001045 185.524364 
L 288.325052 196.520727 
L 288.649058 214.848 
L 288.973065 214.848 
L 289.297071 203.851636 
L 289.621078 200.186182 
L 289.945084 185.524364 
L 290.593097 200.186182 
L 290.917104 196.520727 
L 291.565117 174.528 
L 291.889124 170.862545 
L 292.21313 174.528 
L 292.537137 163.531636 
L 292.861143 178.193455 
L 293.18515 207.517091 
L 293.509156 207.517091 
L 293.833163 211.182545 
L 294.157169 207.517091 
L 294.481176 222.178909 
L 294.805182 211.182545 
L 295.129189 214.848 
L 295.453195 229.509818 
L 295.777202 211.182545 
L 296.101208 244.171636 
L 296.425215 244.171636 
L 296.749222 222.178909 
L 297.073228 225.844364 
L 297.721241 207.517091 
L 298.045248 218.513455 
L 298.369254 196.520727 
L 298.693261 189.189818 
L 299.017267 189.189818 
L 299.341274 178.193455 
L 299.66528 174.528 
L 299.989287 196.520727 
L 300.313293 178.193455 
L 300.961306 225.844364 
L 301.285313 214.848 
L 301.60932 244.171636 
L 302.257333 163.531636 
L 302.581339 163.531636 
L 302.905346 181.858909 
L 303.553359 174.528 
L 303.877365 174.528 
L 304.201372 159.866182 
L 304.525378 159.866182 
L 304.849385 167.197091 
L 305.173391 163.531636 
L 305.821404 189.189818 
L 306.469418 181.858909 
L 306.793424 159.866182 
L 307.117431 167.197091 
L 307.441437 163.531636 
L 307.765444 178.193455 
L 308.08945 170.862545 
L 308.413457 181.858909 
L 308.737463 159.866182 
L 309.06147 189.189818 
L 309.385476 185.524364 
L 309.709483 167.197091 
L 310.033489 178.193455 
L 310.357496 159.866182 
L 310.681502 159.866182 
L 311.005509 123.211636 
L 311.329516 145.204364 
L 311.653522 141.538909 
L 311.977529 159.866182 
L 312.301535 145.204364 
L 312.625542 137.873455 
L 312.949548 104.884364 
L 313.273555 123.211636 
L 313.921568 141.538909 
L 314.245574 126.877091 
L 314.569581 119.546182 
L 315.217594 145.204364 
L 315.865607 126.877091 
L 316.189614 130.542545 
L 316.51362 123.211636 
L 316.837627 145.204364 
L 317.161633 115.880727 
L 317.48564 108.549818 
L 317.809646 123.211636 
L 318.457659 167.197091 
L 318.781666 170.862545 
L 319.105672 156.200727 
L 319.753685 141.538909 
L 320.077692 152.535273 
L 320.401698 130.542545 
L 321.049711 145.204364 
L 321.373718 123.211636 
L 322.021731 141.538909 
L 322.345738 134.208 
L 322.669744 119.546182 
L 322.993751 134.208 
L 323.317757 141.538909 
L 323.641764 134.208 
L 323.96577 115.880727 
L 324.289777 119.546182 
L 324.613783 159.866182 
L 325.261796 181.858909 
L 325.585803 181.858909 
L 325.909809 178.193455 
L 326.233816 170.862545 
L 326.557823 258.833455 
L 327.205836 236.840727 
L 327.529842 236.840727 
L 328.501862 273.495273 
L 328.825868 258.833455 
L 329.149875 262.498909 
L 329.473881 236.840727 
L 329.797888 236.840727 
L 330.121894 240.506182 
L 330.445901 222.178909 
L 330.769907 225.844364 
L 331.093914 203.851636 
L 331.741927 203.851636 
L 332.065934 196.520727 
L 332.38994 192.855273 
L 333.037953 192.855273 
L 333.36196 185.524364 
L 333.685966 211.182545 
L 334.009973 203.851636 
L 334.333979 192.855273 
L 334.657986 203.851636 
L 334.981992 196.520727 
L 335.305999 203.851636 
L 335.630005 207.517091 
L 335.954012 196.520727 
L 336.278019 192.855273 
L 336.602025 185.524364 
L 336.926032 214.848 
L 337.250038 225.844364 
L 337.574045 225.844364 
L 338.222058 269.829818 
L 338.546064 258.833455 
L 338.870071 233.175273 
L 339.194077 233.175273 
L 339.518084 255.168 
L 339.84209 236.840727 
L 340.166097 233.175273 
L 340.490103 203.851636 
L 340.81411 196.520727 
L 341.138116 167.197091 
L 341.78613 211.182545 
L 342.110136 214.848 
L 342.758149 163.531636 
L 343.082156 152.535273 
L 343.406162 156.200727 
L 344.054175 178.193455 
L 344.378182 156.200727 
L 344.702188 159.866182 
L 345.026195 145.204364 
L 345.674208 181.858909 
L 346.322221 181.858909 
L 346.646228 189.189818 
L 346.970234 185.524364 
L 347.618247 218.513455 
L 347.942254 222.178909 
L 348.26626 214.848 
L 348.590267 200.186182 
L 348.914273 200.186182 
L 349.23828 159.866182 
L 349.562286 181.858909 
L 349.886293 145.204364 
L 350.210299 233.175273 
L 350.534306 225.844364 
L 350.858312 196.520727 
L 351.506326 170.862545 
L 352.154339 211.182545 
L 352.478345 214.848 
L 352.802352 240.506182 
L 353.126358 244.171636 
L 353.450365 258.833455 
L 353.774371 207.517091 
L 354.098378 203.851636 
L 354.422384 203.851636 
L 355.070397 167.197091 
L 355.394404 159.866182 
L 355.71841 156.200727 
L 356.042417 178.193455 
L 356.366424 214.848 
L 356.69043 218.513455 
L 357.014437 229.509818 
L 357.338443 225.844364 
L 357.66245 225.844364 
L 358.310463 255.168 
L 358.634469 255.168 
L 358.958476 244.171636 
L 359.282482 244.171636 
L 359.606489 247.837091 
L 359.930495 218.513455 
L 360.578508 258.833455 
L 360.902515 262.498909 
L 361.226522 229.509818 
L 361.550528 240.506182 
L 361.874535 244.171636 
L 362.198541 262.498909 
L 362.522548 255.168 
L 363.170561 236.840727 
L 363.494567 255.168 
L 363.818574 262.498909 
L 364.14258 247.837091 
L 364.466587 240.506182 
L 365.1146 218.513455 
L 365.438606 233.175273 
L 365.762613 222.178909 
L 366.086619 233.175273 
L 366.410626 225.844364 
L 366.734633 233.175273 
L 367.058639 214.848 
L 367.382646 185.524364 
L 367.706652 192.855273 
L 368.030659 218.513455 
L 368.354665 200.186182 
L 368.678672 196.520727 
L 369.002678 189.189818 
L 369.326685 200.186182 
L 369.650691 203.851636 
L 369.974698 200.186182 
L 370.298704 207.517091 
L 370.622711 207.517091 
L 370.946717 214.848 
L 371.270724 200.186182 
L 371.594731 200.186182 
L 371.918737 196.520727 
L 372.242744 181.858909 
L 372.56675 178.193455 
L 372.890757 178.193455 
L 373.214763 192.855273 
L 373.53877 189.189818 
L 374.186783 167.197091 
L 374.510789 181.858909 
L 374.834796 189.189818 
L 375.482809 211.182545 
L 375.806815 229.509818 
L 376.130822 229.509818 
L 376.454829 244.171636 
L 376.778835 236.840727 
L 377.102842 251.502545 
L 377.426848 240.506182 
L 377.750855 214.848 
L 378.074861 200.186182 
L 378.398868 214.848 
L 378.722874 211.182545 
L 379.046881 211.182545 
L 379.370887 207.517091 
L 380.0189 229.509818 
L 380.342907 222.178909 
L 380.666913 229.509818 
L 380.99092 196.520727 
L 381.314927 207.517091 
L 381.638933 211.182545 
L 381.96294 196.520727 
L 382.286946 200.186182 
L 382.610953 211.182545 
L 383.258966 203.851636 
L 383.906979 222.178909 
L 384.554992 214.848 
L 384.878998 203.851636 
L 385.527011 167.197091 
L 385.851018 174.528 
L 386.175024 178.193455 
L 386.499031 159.866182 
L 386.823038 167.197091 
L 387.147044 159.866182 
L 387.471051 189.189818 
L 387.795057 181.858909 
L 388.119064 222.178909 
L 388.767077 236.840727 
L 389.091083 247.837091 
L 389.41509 233.175273 
L 389.739096 240.506182 
L 390.063103 244.171636 
L 390.387109 255.168 
L 390.711116 255.168 
L 391.359129 262.498909 
L 391.683136 269.829818 
L 392.331149 262.498909 
L 392.655155 229.509818 
L 392.979162 247.837091 
L 393.303168 236.840727 
L 393.627175 240.506182 
L 393.951181 240.506182 
L 394.275188 236.840727 
L 394.599194 214.848 
L 394.923201 244.171636 
L 395.247207 244.171636 
L 395.89522 214.848 
L 396.219227 229.509818 
L 397.191247 229.509818 
L 397.515253 196.520727 
L 397.83926 185.524364 
L 398.163266 181.858909 
L 398.487273 189.189818 
L 398.487273 189.189818 
" clip-path="url(#pfd79092f05)" style="fill: none; stroke: #1f77b4; stroke-width: 1.5; stroke-linecap: square"/>
   </g>
   <g id="patch_3">
    <path d="M 57.6 307.584 
L 57.6 41.472 
" style="fill: none; stroke: #000000; stroke-width: 0.8; stroke-linejoin: miter; stroke-linecap: square"/>
   </g>
   <g id="patch_4">
    <path d="M 414.72 307.584 
L 414.72 41.472 
" style="fill: none; stroke: #000000; stroke-width: 0.8; stroke-linejoin: miter; stroke-linecap: square"/>
   </g>
   <g id="patch_5">
    <path d="M 57.6 307.584 
L 414.72 307.584 
" style="fill: none; stroke: #000000; stroke-width: 0.8; stroke-linejoin: miter; stroke-linecap: square"/>
   </g>
   <g id="patch_6">
    <path d="M 57.6 41.472 
L 414.72 41.472 
" style="fill: none; stroke: #000000; stroke-width: 0.8; stroke-linejoin: miter; stroke-linecap: square"/>
   </g>
   <g id="text_19">
    <!-- Simulated Anealling Cost -->
    <g transform="translate(160.8 35.472)scale(0.12 -0.12)">
     <defs>
      <path id="DejaVuSans-53" d="M 3425 4513 
L 3425 3897 
Q 3066 4069 2747 4153 
Q 2428 4238 2131 4238 
Q 1616 4238 1336 4038 
Q 1056 3838 1056 3469 
Q 1056 3159 1242 3001 
Q 1428 2844 1947 2747 
L 2328 2669 
Q 3034 2534 3370 2195 
Q 3706 1856 3706 1288 
Q 3706 609 3251 259 
Q 2797 -91 1919 -91 
Q 1588 -91 1214 -16 
Q 841 59 441 206 
L 441 856 
Q 825 641 1194 531 
Q 1563 422 1919 422 
Q 2459 422 2753 634 
Q 3047 847 3047 1241 
Q 3047 1584 2836 1778 
Q 2625 1972 2144 2069 
L 1759 2144 
Q 1053 2284 737 2584 
Q 422 2884 422 3419 
Q 422 4038 858 4394 
Q 1294 4750 2059 4750 
Q 2388 4750 2728 4690 
Q 3069 4631 3425 4513 
z
" transform="scale(0.015625)"/>
      <path id="DejaVuSans-69" d="M 603 3500 
L 1178 3500 
L 1178 0 
L 603 0 
L 603 3500 
z
M 603 4863 
L 1178 4863 
L 1178 4134 
L 603 4134 
L 603 4863 
z
" transform="scale(0.015625)"/>
      <path id="DejaVuSans-65" d="M 3597 1894 
L 3597 1613 
L 953 1613 
Q 991 1019 1311 708 
Q 1631 397 2203 397 
Q 2534 397 2845 478 
Q 3156 559 3463 722 
L 3463 178 
Q 3153 47 2828 -22 
Q 2503 -91 2169 -91 
Q 1331 -91 842 396 
Q 353 884 353 1716 
Q 353 2575 817 3079 
Q 1281 3584 2069 3584 
Q 2775 3584 3186 3129 
Q 3597 2675 3597 1894 
z
M 3022 2063 
Q 3016 2534 2758 2815 
Q 2500 3097 2075 3097 
Q 1594 3097 1305 2825 
Q 1016 2553 972 2059 
L 3022 2063 
z
" transform="scale(0.015625)"/>
      <path id="DejaVuSans-64" d="M 2906 2969 
L 2906 4863 
L 3481 4863 
L 3481 0 
L 2906 0 
L 2906 525 
Q 2725 213 2448 61 
Q 2172 -91 1784 -91 
Q 1150 -91 751 415 
Q 353 922 353 1747 
Q 353 2572 751 3078 
Q 1150 3584 1784 3584 
Q 2172 3584 2448 3432 
Q 2725 3281 2906 2969 
z
M 947 1747 
Q 947 1113 1208 752 
Q 1469 391 1925 391 
Q 2381 391 2643 752 
Q 2906 1113 2906 1747 
Q 2906 2381 2643 2742 
Q 2381 3103 1925 3103 
Q 1469 3103 1208 2742 
Q 947 2381 947 1747 
z
" transform="scale(0.015625)"/>
      <path id="DejaVuSans-41" d="M 2188 4044 
L 1331 1722 
L 3047 1722 
L 2188 4044 
z
M 1831 4666 
L 2547 4666 
L 4325 0 
L 3669 0 
L 3244 1197 
L 1141 1197 
L 716 0 
L 50 0 
L 1831 4666 
z
" transform="scale(0.015625)"/>
      <path id="DejaVuSans-67" d="M 2906 1791 
Q 2906 2416 2648 2759 
Q 2391 3103 1925 3103 
Q 1463 3103 1205 2759 
Q 947 2416 947 1791 
Q 947 1169 1205 825 
Q 1463 481 1925 481 
Q 2391 481 2648 825 
Q 2906 1169 2906 1791 
z
M 3481 434 
Q 3481 -459 3084 -895 
Q 2688 -1331 1869 -1331 
Q 1566 -1331 1297 -1286 
Q 1028 -1241 775 -1147 
L 775 -588 
Q 1028 -725 1275 -790 
Q 1522 -856 1778 -856 
Q 2344 -856 2625 -561 
Q 2906 -266 2906 331 
L 2906 616 
Q 2728 306 2450 153 
Q 2172 0 1784 0 
Q 1141 0 747 490 
Q 353 981 353 1791 
Q 353 2603 747 3093 
Q 1141 3584 1784 3584 
Q 2172 3584 2450 3431 
Q 2728 3278 2906 2969 
L 2906 3500 
L 3481 3500 
L 3481 434 
z
" transform="scale(0.015625)"/>
      <path id="DejaVuSans-43" d="M 4122 4306 
L 4122 3641 
Q 3803 3938 3442 4084 
Q 3081 4231 2675 4231 
Q 1875 4231 1450 3742 
Q 1025 3253 1025 2328 
Q 1025 1406 1450 917 
Q 1875 428 2675 428 
Q 3081 428 3442 575 
Q 3803 722 4122 1019 
L 4122 359 
Q 3791 134 3420 21 
Q 3050 -91 2638 -91 
Q 1578 -91 968 557 
Q 359 1206 359 2328 
Q 359 3453 968 4101 
Q 1578 4750 2638 4750 
Q 3056 4750 3426 4639 
Q 3797 4528 4122 4306 
z
" transform="scale(0.015625)"/>
     </defs>
     <use xlink:href="#DejaVuSans-53"/>
     <use xlink:href="#DejaVuSans-69" x="63.476562"/>
     <use xlink:href="#DejaVuSans-6d" x="91.259766"/>
     <use xlink:href="#DejaVuSans-75" x="188.671875"/>
     <use xlink:href="#DejaVuSans-6c" x="252.050781"/>
     <use xlink:href="#DejaVuSans-61" x="279.833984"/>
     <use xlink:href="#DejaVuSans-74" x="341.113281"/>
     <use xlink:href="#DejaVuSans-65" x="380.322266"/>
     <use xlink:href="#DejaVuSans-64" x="441.845703"/>
     <use xlink:href="#DejaVuSans-20" x="505.322266"/>
     <use xlink:href="#DejaVuSans-41" x="537.109375"/>
     <use xlink:href="#DejaVuSans-6e" x="605.517578"/>
     <use xlink:href="#DejaVuSans-65" x="668.896484"/>
     <use xlink:href="#DejaVuSans-61" x="730.419922"/>
     <use xlink:href="#DejaVuSans-6c" x="791.699219"/>
     <use xlink:href="#DejaVuSans-6c" x="819.482422"/>
     <use xlink:href="#DejaVuSans-69" x="847.265625"/>
     <use xlink:href="#DejaVuSans-6e" x="875.048828"/>
     <use xlink:href="#DejaVuSans-67" x="938.427734"/>
     <use xlink:href="#DejaVuSans-20" x="1001.904297"/>
     <use xlink:href="#DejaVuSans-43" x="1033.691406"/>
     <use xlink:href="#DejaVuSans-6f" x="1103.515625"/>
     <use xlink:href="#DejaVuSans-73" x="1164.697266"/>
     <use xlink:href="#DejaVuSans-74" x="1216.796875"/>
    </g>
   </g>
  </g>
 </g>
 <defs>
  <clipPath id="pfd79092f05">
   <rect x="57.6" y="41.472" width="357.12" height="266.112"/>
  </clipPath>
 </defs>
</svg>
