<?xml version="1.0" encoding="utf-8" standalone="no"?>
<!DOCTYPE svg PUBLIC "-//W3C//DTD SVG 1.1//EN"
  "http://www.w3.org/Graphics/SVG/1.1/DTD/svg11.dtd">
<svg xmlns:xlink="http://www.w3.org/1999/xlink" width="460.8pt" height="345.6pt" viewBox="0 0 460.8 345.6" xmlns="http://www.w3.org/2000/svg" version="1.1">
 <metadata>
  <rdf:RDF xmlns:dc="http://purl.org/dc/elements/1.1/" xmlns:cc="http://creativecommons.org/ns#" xmlns:rdf="http://www.w3.org/1999/02/22-rdf-syntax-ns#">
   <cc:Work>
    <dc:type rdf:resource="http://purl.org/dc/dcmitype/StillImage"/>
    <dc:date>2022-06-01T08:08:02.515130</dc:date>
    <dc:format>image/svg+xml</dc:format>
    <dc:creator>
     <cc:Agent>
      <dc:title>Matplotlib v3.5.1, https://matplotlib.org/</dc:title>
     </cc:Agent>
    </dc:creator>
   </cc:Work>
  </rdf:RDF>
 </metadata>
 <defs>
  <style type="text/css">*{stroke-linejoin: round; stroke-linecap: butt}</style>
 </defs>
 <g id="figure_1">
  <g id="patch_1">
   <path d="M 0 345.6 
L 460.8 345.6 
L 460.8 0 
L 0 0 
z
" style="fill: #ffffff"/>
  </g>
  <g id="axes_1">
   <g id="patch_2">
    <path d="M 57.6 307.584 
L 414.72 307.584 
L 414.72 41.472 
L 57.6 41.472 
z
" style="fill: #ffffff"/>
   </g>
   <g id="matplotlib.axis_1">
    <g id="xtick_1">
     <g id="line2d_1">
      <defs>
       <path id="mebd0aedf1d" d="M 0 0 
L 0 3.5 
" style="stroke: #000000; stroke-width: 0.8"/>
      </defs>
      <g>
       <use xlink:href="#mebd0aedf1d" x="73.832727" y="307.584" style="stroke: #000000; stroke-width: 0.8"/>
      </g>
     </g>
     <g id="text_1">
      <!-- 0 -->
      <g transform="translate(70.651477 322.182437)scale(0.1 -0.1)">
       <defs>
        <path id="DejaVuSans-30" d="M 2034 4250 
Q 1547 4250 1301 3770 
Q 1056 3291 1056 2328 
Q 1056 1369 1301 889 
Q 1547 409 2034 409 
Q 2525 409 2770 889 
Q 3016 1369 3016 2328 
Q 3016 3291 2770 3770 
Q 2525 4250 2034 4250 
z
M 2034 4750 
Q 2819 4750 3233 4129 
Q 3647 3509 3647 2328 
Q 3647 1150 3233 529 
Q 2819 -91 2034 -91 
Q 1250 -91 836 529 
Q 422 1150 422 2328 
Q 422 3509 836 4129 
Q 1250 4750 2034 4750 
z
" transform="scale(0.015625)"/>
       </defs>
       <use xlink:href="#DejaVuSans-30"/>
      </g>
     </g>
    </g>
    <g id="xtick_2">
     <g id="line2d_2">
      <g>
       <use xlink:href="#mebd0aedf1d" x="151.205117" y="307.584" style="stroke: #000000; stroke-width: 0.8"/>
      </g>
     </g>
     <g id="text_2">
      <!-- 500 -->
      <g transform="translate(141.661367 322.182437)scale(0.1 -0.1)">
       <defs>
        <path id="DejaVuSans-35" d="M 691 4666 
L 3169 4666 
L 3169 4134 
L 1269 4134 
L 1269 2991 
Q 1406 3038 1543 3061 
Q 1681 3084 1819 3084 
Q 2600 3084 3056 2656 
Q 3513 2228 3513 1497 
Q 3513 744 3044 326 
Q 2575 -91 1722 -91 
Q 1428 -91 1123 -41 
Q 819 9 494 109 
L 494 744 
Q 775 591 1075 516 
Q 1375 441 1709 441 
Q 2250 441 2565 725 
Q 2881 1009 2881 1497 
Q 2881 1984 2565 2268 
Q 2250 2553 1709 2553 
Q 1456 2553 1204 2497 
Q 953 2441 691 2322 
L 691 4666 
z
" transform="scale(0.015625)"/>
       </defs>
       <use xlink:href="#DejaVuSans-35"/>
       <use xlink:href="#DejaVuSans-30" x="63.623047"/>
       <use xlink:href="#DejaVuSans-30" x="127.246094"/>
      </g>
     </g>
    </g>
    <g id="xtick_3">
     <g id="line2d_3">
      <g>
       <use xlink:href="#mebd0aedf1d" x="228.577506" y="307.584" style="stroke: #000000; stroke-width: 0.8"/>
      </g>
     </g>
     <g id="text_3">
      <!-- 1000 -->
      <g transform="translate(215.852506 322.182437)scale(0.1 -0.1)">
       <defs>
        <path id="DejaVuSans-31" d="M 794 531 
L 1825 531 
L 1825 4091 
L 703 3866 
L 703 4441 
L 1819 4666 
L 2450 4666 
L 2450 531 
L 3481 531 
L 3481 0 
L 794 0 
L 794 531 
z
" transform="scale(0.015625)"/>
       </defs>
       <use xlink:href="#DejaVuSans-31"/>
       <use xlink:href="#DejaVuSans-30" x="63.623047"/>
       <use xlink:href="#DejaVuSans-30" x="127.246094"/>
       <use xlink:href="#DejaVuSans-30" x="190.869141"/>
      </g>
     </g>
    </g>
    <g id="xtick_4">
     <g id="line2d_4">
      <g>
       <use xlink:href="#mebd0aedf1d" x="305.949895" y="307.584" style="stroke: #000000; stroke-width: 0.8"/>
      </g>
     </g>
     <g id="text_4">
      <!-- 1500 -->
      <g transform="translate(293.224895 322.182437)scale(0.1 -0.1)">
       <use xlink:href="#DejaVuSans-31"/>
       <use xlink:href="#DejaVuSans-35" x="63.623047"/>
       <use xlink:href="#DejaVuSans-30" x="127.246094"/>
       <use xlink:href="#DejaVuSans-30" x="190.869141"/>
      </g>
     </g>
    </g>
    <g id="xtick_5">
     <g id="line2d_5">
      <g>
       <use xlink:href="#mebd0aedf1d" x="383.322284" y="307.584" style="stroke: #000000; stroke-width: 0.8"/>
      </g>
     </g>
     <g id="text_5">
      <!-- 2000 -->
      <g transform="translate(370.597284 322.182437)scale(0.1 -0.1)">
       <defs>
        <path id="DejaVuSans-32" d="M 1228 531 
L 3431 531 
L 3431 0 
L 469 0 
L 469 531 
Q 828 903 1448 1529 
Q 2069 2156 2228 2338 
Q 2531 2678 2651 2914 
Q 2772 3150 2772 3378 
Q 2772 3750 2511 3984 
Q 2250 4219 1831 4219 
Q 1534 4219 1204 4116 
Q 875 4013 500 3803 
L 500 4441 
Q 881 4594 1212 4672 
Q 1544 4750 1819 4750 
Q 2544 4750 2975 4387 
Q 3406 4025 3406 3419 
Q 3406 3131 3298 2873 
Q 3191 2616 2906 2266 
Q 2828 2175 2409 1742 
Q 1991 1309 1228 531 
z
" transform="scale(0.015625)"/>
       </defs>
       <use xlink:href="#DejaVuSans-32"/>
       <use xlink:href="#DejaVuSans-30" x="63.623047"/>
       <use xlink:href="#DejaVuSans-30" x="127.246094"/>
       <use xlink:href="#DejaVuSans-30" x="190.869141"/>
      </g>
     </g>
    </g>
    <g id="text_6">
     <!-- num swaps -->
     <g transform="translate(207.826406 335.860562)scale(0.1 -0.1)">
      <defs>
       <path id="DejaVuSans-6e" d="M 3513 2113 
L 3513 0 
L 2938 0 
L 2938 2094 
Q 2938 2591 2744 2837 
Q 2550 3084 2163 3084 
Q 1697 3084 1428 2787 
Q 1159 2491 1159 1978 
L 1159 0 
L 581 0 
L 581 3500 
L 1159 3500 
L 1159 2956 
Q 1366 3272 1645 3428 
Q 1925 3584 2291 3584 
Q 2894 3584 3203 3211 
Q 3513 2838 3513 2113 
z
" transform="scale(0.015625)"/>
       <path id="DejaVuSans-75" d="M 544 1381 
L 544 3500 
L 1119 3500 
L 1119 1403 
Q 1119 906 1312 657 
Q 1506 409 1894 409 
Q 2359 409 2629 706 
Q 2900 1003 2900 1516 
L 2900 3500 
L 3475 3500 
L 3475 0 
L 2900 0 
L 2900 538 
Q 2691 219 2414 64 
Q 2138 -91 1772 -91 
Q 1169 -91 856 284 
Q 544 659 544 1381 
z
M 1991 3584 
L 1991 3584 
z
" transform="scale(0.015625)"/>
       <path id="DejaVuSans-6d" d="M 3328 2828 
Q 3544 3216 3844 3400 
Q 4144 3584 4550 3584 
Q 5097 3584 5394 3201 
Q 5691 2819 5691 2113 
L 5691 0 
L 5113 0 
L 5113 2094 
Q 5113 2597 4934 2840 
Q 4756 3084 4391 3084 
Q 3944 3084 3684 2787 
Q 3425 2491 3425 1978 
L 3425 0 
L 2847 0 
L 2847 2094 
Q 2847 2600 2669 2842 
Q 2491 3084 2119 3084 
Q 1678 3084 1418 2786 
Q 1159 2488 1159 1978 
L 1159 0 
L 581 0 
L 581 3500 
L 1159 3500 
L 1159 2956 
Q 1356 3278 1631 3431 
Q 1906 3584 2284 3584 
Q 2666 3584 2933 3390 
Q 3200 3197 3328 2828 
z
" transform="scale(0.015625)"/>
       <path id="DejaVuSans-20" transform="scale(0.015625)"/>
       <path id="DejaVuSans-73" d="M 2834 3397 
L 2834 2853 
Q 2591 2978 2328 3040 
Q 2066 3103 1784 3103 
Q 1356 3103 1142 2972 
Q 928 2841 928 2578 
Q 928 2378 1081 2264 
Q 1234 2150 1697 2047 
L 1894 2003 
Q 2506 1872 2764 1633 
Q 3022 1394 3022 966 
Q 3022 478 2636 193 
Q 2250 -91 1575 -91 
Q 1294 -91 989 -36 
Q 684 19 347 128 
L 347 722 
Q 666 556 975 473 
Q 1284 391 1588 391 
Q 1994 391 2212 530 
Q 2431 669 2431 922 
Q 2431 1156 2273 1281 
Q 2116 1406 1581 1522 
L 1381 1569 
Q 847 1681 609 1914 
Q 372 2147 372 2553 
Q 372 3047 722 3315 
Q 1072 3584 1716 3584 
Q 2034 3584 2315 3537 
Q 2597 3491 2834 3397 
z
" transform="scale(0.015625)"/>
       <path id="DejaVuSans-77" d="M 269 3500 
L 844 3500 
L 1563 769 
L 2278 3500 
L 2956 3500 
L 3675 769 
L 4391 3500 
L 4966 3500 
L 4050 0 
L 3372 0 
L 2619 2869 
L 1863 0 
L 1184 0 
L 269 3500 
z
" transform="scale(0.015625)"/>
       <path id="DejaVuSans-61" d="M 2194 1759 
Q 1497 1759 1228 1600 
Q 959 1441 959 1056 
Q 959 750 1161 570 
Q 1363 391 1709 391 
Q 2188 391 2477 730 
Q 2766 1069 2766 1631 
L 2766 1759 
L 2194 1759 
z
M 3341 1997 
L 3341 0 
L 2766 0 
L 2766 531 
Q 2569 213 2275 61 
Q 1981 -91 1556 -91 
Q 1019 -91 701 211 
Q 384 513 384 1019 
Q 384 1609 779 1909 
Q 1175 2209 1959 2209 
L 2766 2209 
L 2766 2266 
Q 2766 2663 2505 2880 
Q 2244 3097 1772 3097 
Q 1472 3097 1187 3025 
Q 903 2953 641 2809 
L 641 3341 
Q 956 3463 1253 3523 
Q 1550 3584 1831 3584 
Q 2591 3584 2966 3190 
Q 3341 2797 3341 1997 
z
" transform="scale(0.015625)"/>
       <path id="DejaVuSans-70" d="M 1159 525 
L 1159 -1331 
L 581 -1331 
L 581 3500 
L 1159 3500 
L 1159 2969 
Q 1341 3281 1617 3432 
Q 1894 3584 2278 3584 
Q 2916 3584 3314 3078 
Q 3713 2572 3713 1747 
Q 3713 922 3314 415 
Q 2916 -91 2278 -91 
Q 1894 -91 1617 61 
Q 1341 213 1159 525 
z
M 3116 1747 
Q 3116 2381 2855 2742 
Q 2594 3103 2138 3103 
Q 1681 3103 1420 2742 
Q 1159 2381 1159 1747 
Q 1159 1113 1420 752 
Q 1681 391 2138 391 
Q 2594 391 2855 752 
Q 3116 1113 3116 1747 
z
" transform="scale(0.015625)"/>
      </defs>
      <use xlink:href="#DejaVuSans-6e"/>
      <use xlink:href="#DejaVuSans-75" x="63.378906"/>
      <use xlink:href="#DejaVuSans-6d" x="126.757812"/>
      <use xlink:href="#DejaVuSans-20" x="224.169922"/>
      <use xlink:href="#DejaVuSans-73" x="255.957031"/>
      <use xlink:href="#DejaVuSans-77" x="308.056641"/>
      <use xlink:href="#DejaVuSans-61" x="389.84375"/>
      <use xlink:href="#DejaVuSans-70" x="451.123047"/>
      <use xlink:href="#DejaVuSans-73" x="514.599609"/>
     </g>
    </g>
   </g>
   <g id="matplotlib.axis_2">
    <g id="ytick_1">
     <g id="line2d_6">
      <defs>
       <path id="mc5c16ccfa4" d="M 0 0 
L -3.5 0 
" style="stroke: #000000; stroke-width: 0.8"/>
      </defs>
      <g>
       <use xlink:href="#mc5c16ccfa4" x="57.6" y="307.10016" style="stroke: #000000; stroke-width: 0.8"/>
      </g>
     </g>
     <g id="text_7">
      <!-- 260 -->
      <g transform="translate(31.5125 310.899379)scale(0.1 -0.1)">
       <defs>
        <path id="DejaVuSans-36" d="M 2113 2584 
Q 1688 2584 1439 2293 
Q 1191 2003 1191 1497 
Q 1191 994 1439 701 
Q 1688 409 2113 409 
Q 2538 409 2786 701 
Q 3034 994 3034 1497 
Q 3034 2003 2786 2293 
Q 2538 2584 2113 2584 
z
M 3366 4563 
L 3366 3988 
Q 3128 4100 2886 4159 
Q 2644 4219 2406 4219 
Q 1781 4219 1451 3797 
Q 1122 3375 1075 2522 
Q 1259 2794 1537 2939 
Q 1816 3084 2150 3084 
Q 2853 3084 3261 2657 
Q 3669 2231 3669 1497 
Q 3669 778 3244 343 
Q 2819 -91 2113 -91 
Q 1303 -91 875 529 
Q 447 1150 447 2328 
Q 447 3434 972 4092 
Q 1497 4750 2381 4750 
Q 2619 4750 2861 4703 
Q 3103 4656 3366 4563 
z
" transform="scale(0.015625)"/>
       </defs>
       <use xlink:href="#DejaVuSans-32"/>
       <use xlink:href="#DejaVuSans-36" x="63.623047"/>
       <use xlink:href="#DejaVuSans-30" x="127.246094"/>
      </g>
     </g>
    </g>
    <g id="ytick_2">
     <g id="line2d_7">
      <g>
       <use xlink:href="#mc5c16ccfa4" x="57.6" y="268.39296" style="stroke: #000000; stroke-width: 0.8"/>
      </g>
     </g>
     <g id="text_8">
      <!-- 280 -->
      <g transform="translate(31.5125 272.192179)scale(0.1 -0.1)">
       <defs>
        <path id="DejaVuSans-38" d="M 2034 2216 
Q 1584 2216 1326 1975 
Q 1069 1734 1069 1313 
Q 1069 891 1326 650 
Q 1584 409 2034 409 
Q 2484 409 2743 651 
Q 3003 894 3003 1313 
Q 3003 1734 2745 1975 
Q 2488 2216 2034 2216 
z
M 1403 2484 
Q 997 2584 770 2862 
Q 544 3141 544 3541 
Q 544 4100 942 4425 
Q 1341 4750 2034 4750 
Q 2731 4750 3128 4425 
Q 3525 4100 3525 3541 
Q 3525 3141 3298 2862 
Q 3072 2584 2669 2484 
Q 3125 2378 3379 2068 
Q 3634 1759 3634 1313 
Q 3634 634 3220 271 
Q 2806 -91 2034 -91 
Q 1263 -91 848 271 
Q 434 634 434 1313 
Q 434 1759 690 2068 
Q 947 2378 1403 2484 
z
M 1172 3481 
Q 1172 3119 1398 2916 
Q 1625 2713 2034 2713 
Q 2441 2713 2670 2916 
Q 2900 3119 2900 3481 
Q 2900 3844 2670 4047 
Q 2441 4250 2034 4250 
Q 1625 4250 1398 4047 
Q 1172 3844 1172 3481 
z
" transform="scale(0.015625)"/>
       </defs>
       <use xlink:href="#DejaVuSans-32"/>
       <use xlink:href="#DejaVuSans-38" x="63.623047"/>
       <use xlink:href="#DejaVuSans-30" x="127.246094"/>
      </g>
     </g>
    </g>
    <g id="ytick_3">
     <g id="line2d_8">
      <g>
       <use xlink:href="#mc5c16ccfa4" x="57.6" y="229.68576" style="stroke: #000000; stroke-width: 0.8"/>
      </g>
     </g>
     <g id="text_9">
      <!-- 300 -->
      <g transform="translate(31.5125 233.484979)scale(0.1 -0.1)">
       <defs>
        <path id="DejaVuSans-33" d="M 2597 2516 
Q 3050 2419 3304 2112 
Q 3559 1806 3559 1356 
Q 3559 666 3084 287 
Q 2609 -91 1734 -91 
Q 1441 -91 1130 -33 
Q 819 25 488 141 
L 488 750 
Q 750 597 1062 519 
Q 1375 441 1716 441 
Q 2309 441 2620 675 
Q 2931 909 2931 1356 
Q 2931 1769 2642 2001 
Q 2353 2234 1838 2234 
L 1294 2234 
L 1294 2753 
L 1863 2753 
Q 2328 2753 2575 2939 
Q 2822 3125 2822 3475 
Q 2822 3834 2567 4026 
Q 2313 4219 1838 4219 
Q 1578 4219 1281 4162 
Q 984 4106 628 3988 
L 628 4550 
Q 988 4650 1302 4700 
Q 1616 4750 1894 4750 
Q 2613 4750 3031 4423 
Q 3450 4097 3450 3541 
Q 3450 3153 3228 2886 
Q 3006 2619 2597 2516 
z
" transform="scale(0.015625)"/>
       </defs>
       <use xlink:href="#DejaVuSans-33"/>
       <use xlink:href="#DejaVuSans-30" x="63.623047"/>
       <use xlink:href="#DejaVuSans-30" x="127.246094"/>
      </g>
     </g>
    </g>
    <g id="ytick_4">
     <g id="line2d_9">
      <g>
       <use xlink:href="#mc5c16ccfa4" x="57.6" y="190.97856" style="stroke: #000000; stroke-width: 0.8"/>
      </g>
     </g>
     <g id="text_10">
      <!-- 320 -->
      <g transform="translate(31.5125 194.777779)scale(0.1 -0.1)">
       <use xlink:href="#DejaVuSans-33"/>
       <use xlink:href="#DejaVuSans-32" x="63.623047"/>
       <use xlink:href="#DejaVuSans-30" x="127.246094"/>
      </g>
     </g>
    </g>
    <g id="ytick_5">
     <g id="line2d_10">
      <g>
       <use xlink:href="#mc5c16ccfa4" x="57.6" y="152.27136" style="stroke: #000000; stroke-width: 0.8"/>
      </g>
     </g>
     <g id="text_11">
      <!-- 340 -->
      <g transform="translate(31.5125 156.070579)scale(0.1 -0.1)">
       <defs>
        <path id="DejaVuSans-34" d="M 2419 4116 
L 825 1625 
L 2419 1625 
L 2419 4116 
z
M 2253 4666 
L 3047 4666 
L 3047 1625 
L 3713 1625 
L 3713 1100 
L 3047 1100 
L 3047 0 
L 2419 0 
L 2419 1100 
L 313 1100 
L 313 1709 
L 2253 4666 
z
" transform="scale(0.015625)"/>
       </defs>
       <use xlink:href="#DejaVuSans-33"/>
       <use xlink:href="#DejaVuSans-34" x="63.623047"/>
       <use xlink:href="#DejaVuSans-30" x="127.246094"/>
      </g>
     </g>
    </g>
    <g id="ytick_6">
     <g id="line2d_11">
      <g>
       <use xlink:href="#mc5c16ccfa4" x="57.6" y="113.56416" style="stroke: #000000; stroke-width: 0.8"/>
      </g>
     </g>
     <g id="text_12">
      <!-- 360 -->
      <g transform="translate(31.5125 117.363379)scale(0.1 -0.1)">
       <use xlink:href="#DejaVuSans-33"/>
       <use xlink:href="#DejaVuSans-36" x="63.623047"/>
       <use xlink:href="#DejaVuSans-30" x="127.246094"/>
      </g>
     </g>
    </g>
    <g id="ytick_7">
     <g id="line2d_12">
      <g>
       <use xlink:href="#mc5c16ccfa4" x="57.6" y="74.85696" style="stroke: #000000; stroke-width: 0.8"/>
      </g>
     </g>
     <g id="text_13">
      <!-- 380 -->
      <g transform="translate(31.5125 78.656179)scale(0.1 -0.1)">
       <use xlink:href="#DejaVuSans-33"/>
       <use xlink:href="#DejaVuSans-38" x="63.623047"/>
       <use xlink:href="#DejaVuSans-30" x="127.246094"/>
      </g>
     </g>
    </g>
    <g id="text_14">
     <!-- total cost -->
     <g transform="translate(25.432812 197.923313)rotate(-90)scale(0.1 -0.1)">
      <defs>
       <path id="DejaVuSans-74" d="M 1172 4494 
L 1172 3500 
L 2356 3500 
L 2356 3053 
L 1172 3053 
L 1172 1153 
Q 1172 725 1289 603 
Q 1406 481 1766 481 
L 2356 481 
L 2356 0 
L 1766 0 
Q 1100 0 847 248 
Q 594 497 594 1153 
L 594 3053 
L 172 3053 
L 172 3500 
L 594 3500 
L 594 4494 
L 1172 4494 
z
" transform="scale(0.015625)"/>
       <path id="DejaVuSans-6f" d="M 1959 3097 
Q 1497 3097 1228 2736 
Q 959 2375 959 1747 
Q 959 1119 1226 758 
Q 1494 397 1959 397 
Q 2419 397 2687 759 
Q 2956 1122 2956 1747 
Q 2956 2369 2687 2733 
Q 2419 3097 1959 3097 
z
M 1959 3584 
Q 2709 3584 3137 3096 
Q 3566 2609 3566 1747 
Q 3566 888 3137 398 
Q 2709 -91 1959 -91 
Q 1206 -91 779 398 
Q 353 888 353 1747 
Q 353 2609 779 3096 
Q 1206 3584 1959 3584 
z
" transform="scale(0.015625)"/>
       <path id="DejaVuSans-6c" d="M 603 4863 
L 1178 4863 
L 1178 0 
L 603 0 
L 603 4863 
z
" transform="scale(0.015625)"/>
       <path id="DejaVuSans-63" d="M 3122 3366 
L 3122 2828 
Q 2878 2963 2633 3030 
Q 2388 3097 2138 3097 
Q 1578 3097 1268 2742 
Q 959 2388 959 1747 
Q 959 1106 1268 751 
Q 1578 397 2138 397 
Q 2388 397 2633 464 
Q 2878 531 3122 666 
L 3122 134 
Q 2881 22 2623 -34 
Q 2366 -91 2075 -91 
Q 1284 -91 818 406 
Q 353 903 353 1747 
Q 353 2603 823 3093 
Q 1294 3584 2113 3584 
Q 2378 3584 2631 3529 
Q 2884 3475 3122 3366 
z
" transform="scale(0.015625)"/>
      </defs>
      <use xlink:href="#DejaVuSans-74"/>
      <use xlink:href="#DejaVuSans-6f" x="39.208984"/>
      <use xlink:href="#DejaVuSans-74" x="100.390625"/>
      <use xlink:href="#DejaVuSans-61" x="139.599609"/>
      <use xlink:href="#DejaVuSans-6c" x="200.878906"/>
      <use xlink:href="#DejaVuSans-20" x="228.662109"/>
      <use xlink:href="#DejaVuSans-63" x="260.449219"/>
      <use xlink:href="#DejaVuSans-6f" x="315.429688"/>
      <use xlink:href="#DejaVuSans-73" x="376.611328"/>
      <use xlink:href="#DejaVuSans-74" x="428.710938"/>
     </g>
    </g>
   </g>
   <g id="line2d_13">
    <path d="M 73.832727 107.75808 
L 74.142217 123.24096 
L 74.451706 158.07744 
L 74.761196 163.88352 
L 75.070686 152.27136 
L 75.689665 190.97856 
L 75.999154 187.10784 
L 76.308644 169.6896 
L 76.618133 198.72 
L 77.237112 163.88352 
L 77.546602 160.0128 
L 77.856092 148.40064 
L 78.165581 117.43488 
L 78.475071 101.952 
L 78.78456 121.3056 
L 79.09405 129.04704 
L 79.403539 156.14208 
L 79.713029 163.88352 
L 80.022518 167.75424 
L 80.332008 192.91392 
L 80.641498 192.91392 
L 80.950987 210.33216 
L 81.260477 202.59072 
L 81.569966 200.65536 
L 81.879456 181.30176 
L 82.188945 154.20672 
L 82.498435 158.07744 
L 82.807924 160.0128 
L 83.117414 167.75424 
L 83.426904 169.6896 
L 83.736393 167.75424 
L 84.045883 163.88352 
L 84.664862 221.94432 
L 84.974351 198.72 
L 85.283841 136.78848 
L 85.59333 140.6592 
L 85.90282 142.59456 
L 86.21231 165.81888 
L 87.140778 134.85312 
L 87.450268 169.6896 
L 87.759757 169.6896 
L 88.069247 119.37024 
L 88.688226 175.49568 
L 88.997716 177.43104 
L 89.307205 181.30176 
L 89.926184 132.91776 
L 90.235674 121.3056 
L 90.545163 129.04704 
L 90.854653 119.37024 
L 91.164142 74.85696 
L 91.783122 65.18016 
L 92.092611 132.91776 
L 92.402101 161.94816 
L 92.71159 210.33216 
L 93.02108 167.75424 
L 93.330569 140.6592 
L 93.640059 144.52992 
L 93.949548 125.17632 
L 94.568528 132.91776 
L 94.878017 175.49568 
L 95.187507 132.91776 
L 95.496996 130.9824 
L 95.806486 130.9824 
L 96.115975 163.88352 
L 96.425465 183.23712 
L 96.734955 192.91392 
L 97.044444 165.81888 
L 97.353934 163.88352 
L 97.663423 136.78848 
L 97.972913 70.98624 
L 98.282402 82.5984 
L 98.901381 74.85696 
L 99.520361 127.11168 
L 100.13934 150.336 
L 100.448829 138.72384 
L 100.758319 142.59456 
L 101.067808 134.85312 
L 101.377298 142.59456 
L 101.686787 136.78848 
L 102.305767 74.85696 
L 102.924746 140.6592 
L 103.234235 146.46528 
L 103.543725 129.04704 
L 103.853214 152.27136 
L 104.162704 132.91776 
L 104.472193 125.17632 
L 104.781683 86.46912 
L 105.091173 78.72768 
L 105.400662 90.33984 
L 105.710152 115.49952 
L 106.019641 111.6288 
L 106.329131 111.6288 
L 106.63862 98.08128 
L 106.94811 129.04704 
L 107.257599 148.40064 
L 107.567089 134.85312 
L 107.876579 156.14208 
L 108.186068 163.88352 
L 108.495558 160.0128 
L 108.805047 150.336 
L 109.114537 146.46528 
L 109.424026 154.20672 
L 110.043005 100.01664 
L 110.352495 115.49952 
L 110.661985 117.43488 
L 110.971474 127.11168 
L 111.280964 140.6592 
L 111.590453 125.17632 
L 111.899943 101.952 
L 112.209432 121.3056 
L 112.518922 125.17632 
L 113.137901 167.75424 
L 113.75688 127.11168 
L 114.06637 160.0128 
L 114.375859 179.3664 
L 114.685349 175.49568 
L 114.994838 189.0432 
L 115.304328 192.91392 
L 115.613817 202.59072 
L 115.923307 221.94432 
L 116.542286 158.07744 
L 116.851776 165.81888 
L 117.161265 167.75424 
L 117.470755 121.3056 
L 117.780244 132.91776 
L 118.089734 123.24096 
L 118.399224 101.952 
L 118.708713 105.82272 
L 119.018203 129.04704 
L 119.327692 86.46912 
L 119.637182 127.11168 
L 119.946671 146.46528 
L 120.256161 138.72384 
L 120.56565 154.20672 
L 120.87514 129.04704 
L 121.18463 175.49568 
L 121.494119 160.0128 
L 121.803609 169.6896 
L 122.113098 169.6896 
L 122.422588 181.30176 
L 122.732077 165.81888 
L 123.041567 181.30176 
L 123.351056 163.88352 
L 123.660546 181.30176 
L 123.970036 187.10784 
L 124.279525 200.65536 
L 124.589015 206.46144 
L 124.898504 208.3968 
L 125.207994 200.65536 
L 125.517483 204.52608 
L 125.826973 200.65536 
L 126.136462 208.3968 
L 126.445952 208.3968 
L 126.755442 192.91392 
L 127.064931 194.84928 
L 127.374421 210.33216 
L 127.68391 249.03936 
L 128.302889 204.52608 
L 128.612379 187.10784 
L 128.921868 214.20288 
L 129.231358 214.20288 
L 129.540848 216.13824 
L 129.850337 169.6896 
L 130.159827 175.49568 
L 130.469316 190.97856 
L 130.778806 171.62496 
L 131.088295 189.0432 
L 131.397785 194.84928 
L 131.707274 208.3968 
L 132.016764 206.46144 
L 132.326254 214.20288 
L 132.635743 218.0736 
L 132.945233 187.10784 
L 133.254722 167.75424 
L 133.564212 206.46144 
L 133.873701 208.3968 
L 134.183191 177.43104 
L 134.49268 175.49568 
L 134.80217 148.40064 
L 135.11166 144.52992 
L 135.421149 134.85312 
L 136.040128 163.88352 
L 136.349618 152.27136 
L 136.659107 158.07744 
L 136.968597 138.72384 
L 137.278086 160.0128 
L 137.587576 154.20672 
L 137.897066 132.91776 
L 138.206555 152.27136 
L 138.516045 132.91776 
L 138.825534 158.07744 
L 139.135024 123.24096 
L 139.444513 189.0432 
L 139.754003 210.33216 
L 140.063493 200.65536 
L 140.372982 179.3664 
L 140.991961 160.0128 
L 141.301451 144.52992 
L 141.61094 123.24096 
L 141.92043 138.72384 
L 142.539409 53.568 
L 142.848899 55.50336 
L 143.158388 74.85696 
L 143.467878 84.53376 
L 143.777367 84.53376 
L 144.086857 63.2448 
L 144.396346 98.08128 
L 145.015325 136.78848 
L 145.324815 144.52992 
L 145.634305 142.59456 
L 145.943794 158.07744 
L 146.253284 165.81888 
L 146.562773 160.0128 
L 146.872263 187.10784 
L 147.491242 214.20288 
L 147.800731 187.10784 
L 148.110221 136.78848 
L 149.03869 175.49568 
L 149.348179 171.62496 
L 149.657669 158.07744 
L 150.276648 173.56032 
L 150.586137 206.46144 
L 150.895627 198.72 
L 151.205117 218.0736 
L 151.514606 190.97856 
L 151.824096 194.84928 
L 152.133585 202.59072 
L 152.443075 220.00896 
L 152.752564 223.87968 
L 153.062054 189.0432 
L 153.371543 221.94432 
L 153.681033 241.29792 
L 153.990523 189.0432 
L 154.300012 169.6896 
L 154.609502 160.0128 
L 154.918991 115.49952 
L 155.228481 92.2752 
L 155.53797 115.49952 
L 155.84746 115.49952 
L 156.156949 158.07744 
L 156.775929 132.91776 
L 157.085418 109.69344 
L 157.394908 105.82272 
L 157.704397 61.30944 
L 158.013887 72.9216 
L 158.942355 61.30944 
L 159.561335 84.53376 
L 160.180314 123.24096 
L 160.489803 127.11168 
L 160.799293 132.91776 
L 161.108782 148.40064 
L 161.418272 148.40064 
L 161.727762 185.17248 
L 162.037251 181.30176 
L 162.346741 208.3968 
L 162.65623 179.3664 
L 162.96572 169.6896 
L 163.275209 150.336 
L 163.584699 165.81888 
L 163.894188 167.75424 
L 164.203678 163.88352 
L 164.513168 171.62496 
L 164.822657 165.81888 
L 165.132147 165.81888 
L 165.751126 196.78464 
L 166.370105 243.23328 
L 166.679594 216.13824 
L 166.989084 200.65536 
L 167.608063 152.27136 
L 167.917553 156.14208 
L 168.227042 165.81888 
L 168.536532 129.04704 
L 168.846021 144.52992 
L 169.155511 154.20672 
L 169.465 194.84928 
L 169.77449 202.59072 
L 170.08398 183.23712 
L 170.393469 185.17248 
L 170.702959 171.62496 
L 171.012448 134.85312 
L 171.321938 158.07744 
L 171.631427 158.07744 
L 171.940917 152.27136 
L 172.250406 132.91776 
L 172.559896 150.336 
L 172.869386 158.07744 
L 174.107344 111.6288 
L 174.416833 115.49952 
L 175.035812 150.336 
L 175.345302 150.336 
L 175.654792 165.81888 
L 175.964281 165.81888 
L 176.273771 173.56032 
L 176.58326 156.14208 
L 176.89275 163.88352 
L 177.202239 138.72384 
L 177.511729 150.336 
L 177.821218 148.40064 
L 178.130708 127.11168 
L 178.440198 150.336 
L 178.749687 187.10784 
L 179.059177 156.14208 
L 179.368666 148.40064 
L 179.678156 171.62496 
L 179.987645 156.14208 
L 180.297135 154.20672 
L 180.606624 150.336 
L 180.916114 152.27136 
L 181.225604 165.81888 
L 181.535093 173.56032 
L 181.844583 161.94816 
L 182.154072 171.62496 
L 182.463562 144.52992 
L 182.773051 140.6592 
L 183.082541 163.88352 
L 183.392031 169.6896 
L 183.70152 183.23712 
L 184.01101 190.97856 
L 184.320499 177.43104 
L 184.629989 130.9824 
L 184.939478 109.69344 
L 185.248968 129.04704 
L 185.867947 107.75808 
L 186.177437 115.49952 
L 186.486926 109.69344 
L 186.796416 132.91776 
L 187.105905 121.3056 
L 187.415395 134.85312 
L 187.724884 171.62496 
L 188.034374 187.10784 
L 188.343863 183.23712 
L 188.653353 218.0736 
L 188.962843 187.10784 
L 189.272332 167.75424 
L 189.891311 204.52608 
L 190.200801 158.07744 
L 190.51029 138.72384 
L 190.81978 150.336 
L 191.129269 138.72384 
L 191.438759 150.336 
L 191.748249 198.72 
L 192.057738 181.30176 
L 192.367228 221.94432 
L 192.676717 233.55648 
L 192.986207 194.84928 
L 193.295696 187.10784 
L 193.605186 160.0128 
L 193.914675 148.40064 
L 194.224165 198.72 
L 194.533655 216.13824 
L 194.843144 206.46144 
L 195.152634 210.33216 
L 195.462123 194.84928 
L 195.771613 167.75424 
L 196.081102 194.84928 
L 196.390592 175.49568 
L 196.700081 198.72 
L 197.009571 198.72 
L 197.319061 173.56032 
L 197.62855 171.62496 
L 197.93804 183.23712 
L 198.247529 210.33216 
L 198.557019 214.20288 
L 198.866508 187.10784 
L 199.175998 204.52608 
L 199.485487 198.72 
L 200.104467 194.84928 
L 200.413956 189.0432 
L 200.723446 173.56032 
L 201.032935 185.17248 
L 201.342425 181.30176 
L 201.651914 179.3664 
L 201.961404 165.81888 
L 202.270893 190.97856 
L 202.580383 181.30176 
L 202.889873 154.20672 
L 203.199362 181.30176 
L 203.508852 154.20672 
L 203.818341 173.56032 
L 204.127831 185.17248 
L 204.43732 190.97856 
L 204.74681 163.88352 
L 205.0563 167.75424 
L 205.365789 150.336 
L 205.675279 154.20672 
L 205.984768 146.46528 
L 206.294258 148.40064 
L 206.603747 152.27136 
L 206.913237 136.78848 
L 207.222726 150.336 
L 207.532216 129.04704 
L 207.841706 154.20672 
L 208.151195 134.85312 
L 208.770174 148.40064 
L 209.079664 132.91776 
L 209.389153 160.0128 
L 209.698643 163.88352 
L 210.008132 69.05088 
L 210.317622 67.11552 
L 210.627112 82.5984 
L 210.936601 78.72768 
L 211.246091 113.56416 
L 211.86507 90.33984 
L 212.174559 101.952 
L 212.484049 94.21056 
L 212.793538 94.21056 
L 213.412518 105.82272 
L 214.031497 98.08128 
L 214.340986 98.08128 
L 214.650476 127.11168 
L 214.959965 171.62496 
L 215.269455 154.20672 
L 215.888434 146.46528 
L 216.507413 146.46528 
L 216.816903 165.81888 
L 217.126392 165.81888 
L 217.435882 121.3056 
L 217.745371 142.59456 
L 218.054861 113.56416 
L 218.36435 107.75808 
L 218.67384 105.82272 
L 219.292819 113.56416 
L 219.602309 115.49952 
L 219.911798 82.5984 
L 220.221288 70.98624 
L 220.530777 90.33984 
L 220.840267 142.59456 
L 221.149756 173.56032 
L 221.459246 173.56032 
L 221.768736 167.75424 
L 222.078225 200.65536 
L 222.387715 177.43104 
L 222.697204 169.6896 
L 223.006694 154.20672 
L 223.316183 150.336 
L 223.625673 158.07744 
L 223.935162 140.6592 
L 224.244652 148.40064 
L 224.554142 121.3056 
L 225.173121 173.56032 
L 225.48261 181.30176 
L 225.7921 177.43104 
L 226.101589 175.49568 
L 226.411079 194.84928 
L 226.720569 187.10784 
L 227.030058 163.88352 
L 227.339548 196.78464 
L 227.958527 175.49568 
L 228.268016 175.49568 
L 228.577506 206.46144 
L 228.886995 216.13824 
L 229.196485 237.4272 
L 229.505975 239.36256 
L 229.815464 237.4272 
L 230.124954 245.16864 
L 230.434443 247.104 
L 231.053422 189.0432 
L 231.362912 173.56032 
L 231.672401 167.75424 
L 231.981891 156.14208 
L 232.291381 177.43104 
L 232.60087 179.3664 
L 232.91036 198.72 
L 233.219849 167.75424 
L 233.529339 177.43104 
L 234.148318 150.336 
L 234.457807 152.27136 
L 234.767297 175.49568 
L 235.076787 132.91776 
L 235.386276 132.91776 
L 235.695766 140.6592 
L 236.005255 130.9824 
L 236.314745 173.56032 
L 236.624234 158.07744 
L 236.933724 127.11168 
L 237.243213 117.43488 
L 237.552703 117.43488 
L 237.862193 115.49952 
L 238.171682 121.3056 
L 238.481172 115.49952 
L 238.790661 119.37024 
L 239.100151 152.27136 
L 239.40964 144.52992 
L 239.71913 167.75424 
L 240.028619 150.336 
L 240.338109 142.59456 
L 240.647599 140.6592 
L 240.957088 100.01664 
L 241.266578 109.69344 
L 241.576067 156.14208 
L 241.885557 156.14208 
L 242.195046 160.0128 
L 242.814025 138.72384 
L 243.123515 156.14208 
L 243.433005 154.20672 
L 243.742494 150.336 
L 244.051984 165.81888 
L 244.361473 171.62496 
L 244.670963 171.62496 
L 245.289942 220.00896 
L 245.599431 221.94432 
L 245.908921 233.55648 
L 246.218411 167.75424 
L 246.5279 154.20672 
L 246.83739 154.20672 
L 247.146879 148.40064 
L 247.456369 161.94816 
L 247.765858 181.30176 
L 248.075348 160.0128 
L 248.384838 160.0128 
L 248.694327 198.72 
L 249.313306 177.43104 
L 249.622796 185.17248 
L 249.932285 165.81888 
L 250.241775 187.10784 
L 250.551264 221.94432 
L 250.860754 210.33216 
L 251.170244 235.49184 
L 251.789223 227.7504 
L 252.098712 221.94432 
L 252.408202 190.97856 
L 252.717691 192.91392 
L 253.027181 187.10784 
L 253.33667 206.46144 
L 253.95565 179.3664 
L 254.265139 179.3664 
L 254.574629 194.84928 
L 254.884118 198.72 
L 255.193608 198.72 
L 255.503097 214.20288 
L 255.812587 198.72 
L 256.122076 189.0432 
L 256.431566 154.20672 
L 256.741056 156.14208 
L 257.050545 192.91392 
L 257.360035 200.65536 
L 257.669524 192.91392 
L 257.979014 167.75424 
L 258.288503 163.88352 
L 258.597993 171.62496 
L 258.907482 140.6592 
L 259.216972 175.49568 
L 259.526462 177.43104 
L 259.835951 167.75424 
L 260.145441 117.43488 
L 260.45493 113.56416 
L 260.76442 127.11168 
L 261.073909 103.88736 
L 261.383399 121.3056 
L 261.692888 111.6288 
L 262.002378 125.17632 
L 262.311868 98.08128 
L 262.621357 96.14592 
L 262.930847 142.59456 
L 263.240336 138.72384 
L 263.549826 132.91776 
L 263.859315 123.24096 
L 264.168805 136.78848 
L 264.478294 125.17632 
L 264.787784 142.59456 
L 265.097274 144.52992 
L 265.716253 103.88736 
L 266.335232 148.40064 
L 266.644721 161.94816 
L 266.954211 156.14208 
L 267.2637 156.14208 
L 267.57319 148.40064 
L 267.88268 173.56032 
L 268.501659 160.0128 
L 268.811148 152.27136 
L 269.120638 152.27136 
L 269.430127 158.07744 
L 269.739617 156.14208 
L 270.049107 171.62496 
L 270.358596 177.43104 
L 270.668086 169.6896 
L 270.977575 190.97856 
L 271.287065 158.07744 
L 271.596554 146.46528 
L 271.906044 187.10784 
L 272.215533 167.75424 
L 272.525023 187.10784 
L 272.834513 189.0432 
L 273.144002 181.30176 
L 273.453492 183.23712 
L 273.762981 177.43104 
L 274.072471 158.07744 
L 274.38196 167.75424 
L 274.69145 105.82272 
L 275.000939 123.24096 
L 275.310429 206.46144 
L 275.619919 196.78464 
L 275.929408 204.52608 
L 276.238898 208.3968 
L 276.548387 214.20288 
L 276.857877 208.3968 
L 277.167366 190.97856 
L 277.476856 192.91392 
L 277.786345 208.3968 
L 278.405325 223.87968 
L 279.024304 179.3664 
L 279.333793 175.49568 
L 279.643283 198.72 
L 279.952772 200.65536 
L 280.262262 218.0736 
L 280.571751 187.10784 
L 281.190731 146.46528 
L 281.50022 196.78464 
L 281.80971 206.46144 
L 282.119199 202.59072 
L 282.738178 233.55648 
L 283.047668 218.0736 
L 283.357157 233.55648 
L 283.666647 241.29792 
L 283.976137 214.20288 
L 284.285626 204.52608 
L 284.595116 212.26752 
L 284.904605 198.72 
L 285.214095 160.0128 
L 285.523584 154.20672 
L 285.833074 142.59456 
L 286.142563 103.88736 
L 286.452053 117.43488 
L 286.761543 72.9216 
L 287.071032 55.50336 
L 287.380522 98.08128 
L 287.690011 98.08128 
L 287.999501 82.5984 
L 288.30899 142.59456 
L 288.61848 150.336 
L 288.927969 115.49952 
L 289.237459 103.88736 
L 289.546949 100.01664 
L 289.856438 150.336 
L 290.165928 179.3664 
L 290.475417 148.40064 
L 290.784907 177.43104 
L 291.094396 169.6896 
L 291.403886 169.6896 
L 291.713376 146.46528 
L 292.022865 138.72384 
L 292.332355 140.6592 
L 292.641844 146.46528 
L 292.951334 140.6592 
L 293.260823 171.62496 
L 293.570313 181.30176 
L 293.879802 167.75424 
L 294.189292 165.81888 
L 294.498782 173.56032 
L 294.808271 177.43104 
L 295.117761 154.20672 
L 295.73674 169.6896 
L 296.046229 158.07744 
L 296.355719 163.88352 
L 296.665208 160.0128 
L 296.974698 167.75424 
L 297.284188 163.88352 
L 297.593677 171.62496 
L 297.903167 154.20672 
L 298.212656 216.13824 
L 298.522146 210.33216 
L 298.831635 212.26752 
L 299.141125 206.46144 
L 299.450614 210.33216 
L 300.069594 156.14208 
L 300.379083 160.0128 
L 300.688573 160.0128 
L 300.998062 175.49568 
L 301.307552 163.88352 
L 301.617041 165.81888 
L 301.926531 196.78464 
L 302.23602 181.30176 
L 302.54551 152.27136 
L 302.855 142.59456 
L 303.164489 169.6896 
L 303.783468 169.6896 
L 304.092958 192.91392 
L 304.402447 198.72 
L 304.711937 179.3664 
L 305.021426 152.27136 
L 305.330916 161.94816 
L 305.640406 154.20672 
L 305.949895 169.6896 
L 306.259385 241.29792 
L 306.568874 235.49184 
L 306.878364 216.13824 
L 307.806832 142.59456 
L 308.116322 150.336 
L 308.425812 169.6896 
L 308.735301 181.30176 
L 309.044791 171.62496 
L 309.35428 177.43104 
L 309.66377 154.20672 
L 309.973259 150.336 
L 310.282749 161.94816 
L 310.592238 218.0736 
L 311.211218 198.72 
L 311.830197 190.97856 
L 312.139686 190.97856 
L 312.449176 187.10784 
L 313.068155 158.07744 
L 313.377645 163.88352 
L 313.687134 152.27136 
L 313.996624 161.94816 
L 314.306113 167.75424 
L 314.615603 169.6896 
L 315.234582 138.72384 
L 315.544071 158.07744 
L 315.853561 165.81888 
L 316.163051 154.20672 
L 316.47254 156.14208 
L 316.78203 144.52992 
L 317.091519 113.56416 
L 317.401009 105.82272 
L 317.710498 129.04704 
L 318.019988 129.04704 
L 318.329477 130.9824 
L 318.638967 146.46528 
L 318.948457 150.336 
L 319.567436 187.10784 
L 319.876925 192.91392 
L 320.186415 189.0432 
L 320.495904 179.3664 
L 320.805394 183.23712 
L 321.114883 183.23712 
L 321.733863 221.94432 
L 322.043352 239.36256 
L 322.352842 216.13824 
L 322.662331 169.6896 
L 322.971821 167.75424 
L 323.28131 148.40064 
L 323.5908 144.52992 
L 324.209779 117.43488 
L 324.519269 98.08128 
L 325.138248 163.88352 
L 325.447737 167.75424 
L 325.757227 132.91776 
L 326.066716 146.46528 
L 326.376206 144.52992 
L 326.685695 158.07744 
L 326.995185 154.20672 
L 327.304675 156.14208 
L 327.614164 144.52992 
L 327.923654 200.65536 
L 328.233143 194.84928 
L 328.852122 198.72 
L 329.161612 196.78464 
L 329.471101 181.30176 
L 329.780591 200.65536 
L 330.090081 177.43104 
L 330.39957 167.75424 
L 330.70906 189.0432 
L 331.018549 158.07744 
L 331.328039 161.94816 
L 331.637528 169.6896 
L 331.947018 136.78848 
L 332.256507 130.9824 
L 332.565997 132.91776 
L 333.184976 175.49568 
L 333.494466 177.43104 
L 334.422934 138.72384 
L 334.732424 142.59456 
L 335.351403 121.3056 
L 335.660893 129.04704 
L 335.970382 101.952 
L 336.279872 129.04704 
L 336.589361 138.72384 
L 336.898851 158.07744 
L 337.20834 165.81888 
L 337.51783 156.14208 
L 338.136809 163.88352 
L 338.446299 154.20672 
L 338.755788 154.20672 
L 339.065278 161.94816 
L 339.684257 152.27136 
L 339.993746 132.91776 
L 340.303236 125.17632 
L 340.612726 127.11168 
L 340.922215 148.40064 
L 341.231705 160.0128 
L 341.541194 185.17248 
L 341.850684 161.94816 
L 342.469663 169.6896 
L 342.779152 167.75424 
L 343.088642 169.6896 
L 343.398132 187.10784 
L 343.707621 169.6896 
L 344.3266 169.6896 
L 344.63609 152.27136 
L 344.945579 163.88352 
L 345.255069 152.27136 
L 345.564558 148.40064 
L 345.874048 152.27136 
L 346.183538 160.0128 
L 346.493027 152.27136 
L 346.802517 123.24096 
L 347.112006 169.6896 
L 347.421496 125.17632 
L 347.730985 117.43488 
L 348.040475 138.72384 
L 348.349964 127.11168 
L 348.659454 130.9824 
L 348.968944 127.11168 
L 349.587923 167.75424 
L 349.897412 132.91776 
L 350.206902 123.24096 
L 350.516391 125.17632 
L 350.825881 123.24096 
L 352.063839 185.17248 
L 352.373329 192.91392 
L 352.992308 218.0736 
L 353.301797 204.52608 
L 353.611287 200.65536 
L 353.920776 200.65536 
L 354.230266 208.3968 
L 354.539756 189.0432 
L 354.849245 194.84928 
L 355.158735 173.56032 
L 355.468224 183.23712 
L 355.777714 187.10784 
L 356.087203 171.62496 
L 356.396693 169.6896 
L 356.706183 160.0128 
L 357.015672 160.0128 
L 357.325162 171.62496 
L 357.634651 225.81504 
L 357.944141 225.81504 
L 358.25363 237.4272 
L 358.56312 241.29792 
L 358.872609 192.91392 
L 359.182099 189.0432 
L 359.801078 225.81504 
L 360.110568 243.23328 
L 360.420057 241.29792 
L 361.039036 192.91392 
L 361.348526 194.84928 
L 361.658015 181.30176 
L 362.276995 181.30176 
L 362.586484 194.84928 
L 362.895974 221.94432 
L 363.205463 227.7504 
L 363.824442 285.8112 
L 364.133932 285.8112 
L 364.443421 281.94048 
L 364.752911 250.97472 
L 365.062401 239.36256 
L 365.990869 270.32832 
L 366.300359 264.52224 
L 366.609848 268.39296 
L 366.919338 256.7808 
L 367.228827 254.84544 
L 367.538317 249.03936 
L 368.157296 220.00896 
L 368.466786 266.4576 
L 369.085765 229.68576 
L 369.395254 237.4272 
L 369.704744 237.4272 
L 370.014233 181.30176 
L 370.323723 189.0432 
L 370.633213 216.13824 
L 370.942702 216.13824 
L 371.871171 185.17248 
L 372.18066 192.91392 
L 372.49015 212.26752 
L 372.799639 220.00896 
L 373.109129 204.52608 
L 373.728108 204.52608 
L 374.037598 212.26752 
L 374.347087 194.84928 
L 374.656577 202.59072 
L 374.966066 183.23712 
L 375.275556 171.62496 
L 375.585045 179.3664 
L 375.894535 136.78848 
L 376.204025 134.85312 
L 376.513514 152.27136 
L 376.823004 134.85312 
L 377.132493 129.04704 
L 377.441983 136.78848 
L 377.751472 161.94816 
L 378.060962 169.6896 
L 378.370452 196.78464 
L 378.679941 187.10784 
L 379.29892 183.23712 
L 379.60841 183.23712 
L 379.917899 177.43104 
L 380.227389 192.91392 
L 380.536878 167.75424 
L 380.846368 179.3664 
L 381.155858 225.81504 
L 381.465347 247.104 
L 381.774837 249.03936 
L 382.084326 268.39296 
L 382.393816 268.39296 
L 382.703305 276.1344 
L 383.012795 276.1344 
L 383.322284 241.29792 
L 383.631774 225.81504 
L 383.941264 245.16864 
L 384.560243 229.68576 
L 385.179222 264.52224 
L 385.488711 214.20288 
L 385.798201 245.16864 
L 386.10769 249.03936 
L 386.41718 237.4272 
L 386.72667 243.23328 
L 387.036159 243.23328 
L 387.655138 229.68576 
L 387.964628 237.4272 
L 388.274117 221.94432 
L 388.583607 196.78464 
L 388.893096 198.72 
L 389.202586 220.00896 
L 389.512076 229.68576 
L 389.821565 229.68576 
L 390.131055 206.46144 
L 390.440544 214.20288 
L 390.750034 225.81504 
L 391.059523 225.81504 
L 391.369013 198.72 
L 391.678502 196.78464 
L 391.987992 181.30176 
L 392.297482 177.43104 
L 392.606971 189.0432 
L 392.916461 216.13824 
L 393.22595 210.33216 
L 393.53544 218.0736 
L 393.844929 247.104 
L 394.463908 270.32832 
L 394.773398 289.68192 
L 395.392377 281.94048 
L 395.701867 260.65152 
L 396.011356 262.58688 
L 396.630335 295.488 
L 396.939825 272.26368 
L 397.249314 278.06976 
L 397.558804 287.74656 
L 397.868294 245.16864 
L 398.177783 229.68576 
L 398.487273 235.49184 
L 398.487273 235.49184 
" clip-path="url(#p6e81c7c735)" style="fill: none; stroke: #1f77b4; stroke-width: 1.5; stroke-linecap: square"/>
   </g>
   <g id="patch_3">
    <path d="M 57.6 307.584 
L 57.6 41.472 
" style="fill: none; stroke: #000000; stroke-width: 0.8; stroke-linejoin: miter; stroke-linecap: square"/>
   </g>
   <g id="patch_4">
    <path d="M 414.72 307.584 
L 414.72 41.472 
" style="fill: none; stroke: #000000; stroke-width: 0.8; stroke-linejoin: miter; stroke-linecap: square"/>
   </g>
   <g id="patch_5">
    <path d="M 57.6 307.584 
L 414.72 307.584 
" style="fill: none; stroke: #000000; stroke-width: 0.8; stroke-linejoin: miter; stroke-linecap: square"/>
   </g>
   <g id="patch_6">
    <path d="M 57.6 41.472 
L 414.72 41.472 
" style="fill: none; stroke: #000000; stroke-width: 0.8; stroke-linejoin: miter; stroke-linecap: square"/>
   </g>
   <g id="text_15">
    <!-- Simulated Anealling Cost -->
    <g transform="translate(160.8 35.472)scale(0.12 -0.12)">
     <defs>
      <path id="DejaVuSans-53" d="M 3425 4513 
L 3425 3897 
Q 3066 4069 2747 4153 
Q 2428 4238 2131 4238 
Q 1616 4238 1336 4038 
Q 1056 3838 1056 3469 
Q 1056 3159 1242 3001 
Q 1428 2844 1947 2747 
L 2328 2669 
Q 3034 2534 3370 2195 
Q 3706 1856 3706 1288 
Q 3706 609 3251 259 
Q 2797 -91 1919 -91 
Q 1588 -91 1214 -16 
Q 841 59 441 206 
L 441 856 
Q 825 641 1194 531 
Q 1563 422 1919 422 
Q 2459 422 2753 634 
Q 3047 847 3047 1241 
Q 3047 1584 2836 1778 
Q 2625 1972 2144 2069 
L 1759 2144 
Q 1053 2284 737 2584 
Q 422 2884 422 3419 
Q 422 4038 858 4394 
Q 1294 4750 2059 4750 
Q 2388 4750 2728 4690 
Q 3069 4631 3425 4513 
z
" transform="scale(0.015625)"/>
      <path id="DejaVuSans-69" d="M 603 3500 
L 1178 3500 
L 1178 0 
L 603 0 
L 603 3500 
z
M 603 4863 
L 1178 4863 
L 1178 4134 
L 603 4134 
L 603 4863 
z
" transform="scale(0.015625)"/>
      <path id="DejaVuSans-65" d="M 3597 1894 
L 3597 1613 
L 953 1613 
Q 991 1019 1311 708 
Q 1631 397 2203 397 
Q 2534 397 2845 478 
Q 3156 559 3463 722 
L 3463 178 
Q 3153 47 2828 -22 
Q 2503 -91 2169 -91 
Q 1331 -91 842 396 
Q 353 884 353 1716 
Q 353 2575 817 3079 
Q 1281 3584 2069 3584 
Q 2775 3584 3186 3129 
Q 3597 2675 3597 1894 
z
M 3022 2063 
Q 3016 2534 2758 2815 
Q 2500 3097 2075 3097 
Q 1594 3097 1305 2825 
Q 1016 2553 972 2059 
L 3022 2063 
z
" transform="scale(0.015625)"/>
      <path id="DejaVuSans-64" d="M 2906 2969 
L 2906 4863 
L 3481 4863 
L 3481 0 
L 2906 0 
L 2906 525 
Q 2725 213 2448 61 
Q 2172 -91 1784 -91 
Q 1150 -91 751 415 
Q 353 922 353 1747 
Q 353 2572 751 3078 
Q 1150 3584 1784 3584 
Q 2172 3584 2448 3432 
Q 2725 3281 2906 2969 
z
M 947 1747 
Q 947 1113 1208 752 
Q 1469 391 1925 391 
Q 2381 391 2643 752 
Q 2906 1113 2906 1747 
Q 2906 2381 2643 2742 
Q 2381 3103 1925 3103 
Q 1469 3103 1208 2742 
Q 947 2381 947 1747 
z
" transform="scale(0.015625)"/>
      <path id="DejaVuSans-41" d="M 2188 4044 
L 1331 1722 
L 3047 1722 
L 2188 4044 
z
M 1831 4666 
L 2547 4666 
L 4325 0 
L 3669 0 
L 3244 1197 
L 1141 1197 
L 716 0 
L 50 0 
L 1831 4666 
z
" transform="scale(0.015625)"/>
      <path id="DejaVuSans-67" d="M 2906 1791 
Q 2906 2416 2648 2759 
Q 2391 3103 1925 3103 
Q 1463 3103 1205 2759 
Q 947 2416 947 1791 
Q 947 1169 1205 825 
Q 1463 481 1925 481 
Q 2391 481 2648 825 
Q 2906 1169 2906 1791 
z
M 3481 434 
Q 3481 -459 3084 -895 
Q 2688 -1331 1869 -1331 
Q 1566 -1331 1297 -1286 
Q 1028 -1241 775 -1147 
L 775 -588 
Q 1028 -725 1275 -790 
Q 1522 -856 1778 -856 
Q 2344 -856 2625 -561 
Q 2906 -266 2906 331 
L 2906 616 
Q 2728 306 2450 153 
Q 2172 0 1784 0 
Q 1141 0 747 490 
Q 353 981 353 1791 
Q 353 2603 747 3093 
Q 1141 3584 1784 3584 
Q 2172 3584 2450 3431 
Q 2728 3278 2906 2969 
L 2906 3500 
L 3481 3500 
L 3481 434 
z
" transform="scale(0.015625)"/>
      <path id="DejaVuSans-43" d="M 4122 4306 
L 4122 3641 
Q 3803 3938 3442 4084 
Q 3081 4231 2675 4231 
Q 1875 4231 1450 3742 
Q 1025 3253 1025 2328 
Q 1025 1406 1450 917 
Q 1875 428 2675 428 
Q 3081 428 3442 575 
Q 3803 722 4122 1019 
L 4122 359 
Q 3791 134 3420 21 
Q 3050 -91 2638 -91 
Q 1578 -91 968 557 
Q 359 1206 359 2328 
Q 359 3453 968 4101 
Q 1578 4750 2638 4750 
Q 3056 4750 3426 4639 
Q 3797 4528 4122 4306 
z
" transform="scale(0.015625)"/>
     </defs>
     <use xlink:href="#DejaVuSans-53"/>
     <use xlink:href="#DejaVuSans-69" x="63.476562"/>
     <use xlink:href="#DejaVuSans-6d" x="91.259766"/>
     <use xlink:href="#DejaVuSans-75" x="188.671875"/>
     <use xlink:href="#DejaVuSans-6c" x="252.050781"/>
     <use xlink:href="#DejaVuSans-61" x="279.833984"/>
     <use xlink:href="#DejaVuSans-74" x="341.113281"/>
     <use xlink:href="#DejaVuSans-65" x="380.322266"/>
     <use xlink:href="#DejaVuSans-64" x="441.845703"/>
     <use xlink:href="#DejaVuSans-20" x="505.322266"/>
     <use xlink:href="#DejaVuSans-41" x="537.109375"/>
     <use xlink:href="#DejaVuSans-6e" x="605.517578"/>
     <use xlink:href="#DejaVuSans-65" x="668.896484"/>
     <use xlink:href="#DejaVuSans-61" x="730.419922"/>
     <use xlink:href="#DejaVuSans-6c" x="791.699219"/>
     <use xlink:href="#DejaVuSans-6c" x="819.482422"/>
     <use xlink:href="#DejaVuSans-69" x="847.265625"/>
     <use xlink:href="#DejaVuSans-6e" x="875.048828"/>
     <use xlink:href="#DejaVuSans-67" x="938.427734"/>
     <use xlink:href="#DejaVuSans-20" x="1001.904297"/>
     <use xlink:href="#DejaVuSans-43" x="1033.691406"/>
     <use xlink:href="#DejaVuSans-6f" x="1103.515625"/>
     <use xlink:href="#DejaVuSans-73" x="1164.697266"/>
     <use xlink:href="#DejaVuSans-74" x="1216.796875"/>
    </g>
   </g>
  </g>
 </g>
 <defs>
  <clipPath id="p6e81c7c735">
   <rect x="57.6" y="41.472" width="357.12" height="266.112"/>
  </clipPath>
 </defs>
</svg>
