<?xml version="1.0" encoding="utf-8" standalone="no"?>
<!DOCTYPE svg PUBLIC "-//W3C//DTD SVG 1.1//EN"
  "http://www.w3.org/Graphics/SVG/1.1/DTD/svg11.dtd">
<svg xmlns:xlink="http://www.w3.org/1999/xlink" width="460.8pt" height="345.6pt" viewBox="0 0 460.8 345.6" xmlns="http://www.w3.org/2000/svg" version="1.1">
 <metadata>
  <rdf:RDF xmlns:dc="http://purl.org/dc/elements/1.1/" xmlns:cc="http://creativecommons.org/ns#" xmlns:rdf="http://www.w3.org/1999/02/22-rdf-syntax-ns#">
   <cc:Work>
    <dc:type rdf:resource="http://purl.org/dc/dcmitype/StillImage"/>
    <dc:date>2022-06-01T08:04:15.815519</dc:date>
    <dc:format>image/svg+xml</dc:format>
    <dc:creator>
     <cc:Agent>
      <dc:title>Matplotlib v3.5.1, https://matplotlib.org/</dc:title>
     </cc:Agent>
    </dc:creator>
   </cc:Work>
  </rdf:RDF>
 </metadata>
 <defs>
  <style type="text/css">*{stroke-linejoin: round; stroke-linecap: butt}</style>
 </defs>
 <g id="figure_1">
  <g id="patch_1">
   <path d="M 0 345.6 
L 460.8 345.6 
L 460.8 0 
L 0 0 
z
" style="fill: #ffffff"/>
  </g>
  <g id="axes_1">
   <g id="patch_2">
    <path d="M 57.6 307.584 
L 414.72 307.584 
L 414.72 41.472 
L 57.6 41.472 
z
" style="fill: #ffffff"/>
   </g>
   <g id="matplotlib.axis_1">
    <g id="xtick_1">
     <g id="line2d_1">
      <defs>
       <path id="m52be0268b8" d="M 0 0 
L 0 3.5 
" style="stroke: #000000; stroke-width: 0.8"/>
      </defs>
      <g>
       <use xlink:href="#m52be0268b8" x="73.832727" y="307.584" style="stroke: #000000; stroke-width: 0.8"/>
      </g>
     </g>
     <g id="text_1">
      <!-- 0 -->
      <g transform="translate(70.651477 322.182437)scale(0.1 -0.1)">
       <defs>
        <path id="DejaVuSans-30" d="M 2034 4250 
Q 1547 4250 1301 3770 
Q 1056 3291 1056 2328 
Q 1056 1369 1301 889 
Q 1547 409 2034 409 
Q 2525 409 2770 889 
Q 3016 1369 3016 2328 
Q 3016 3291 2770 3770 
Q 2525 4250 2034 4250 
z
M 2034 4750 
Q 2819 4750 3233 4129 
Q 3647 3509 3647 2328 
Q 3647 1150 3233 529 
Q 2819 -91 2034 -91 
Q 1250 -91 836 529 
Q 422 1150 422 2328 
Q 422 3509 836 4129 
Q 1250 4750 2034 4750 
z
" transform="scale(0.015625)"/>
       </defs>
       <use xlink:href="#DejaVuSans-30"/>
      </g>
     </g>
    </g>
    <g id="xtick_2">
     <g id="line2d_2">
      <g>
       <use xlink:href="#m52be0268b8" x="122.07263" y="307.584" style="stroke: #000000; stroke-width: 0.8"/>
      </g>
     </g>
     <g id="text_2">
      <!-- 200 -->
      <g transform="translate(112.52888 322.182437)scale(0.1 -0.1)">
       <defs>
        <path id="DejaVuSans-32" d="M 1228 531 
L 3431 531 
L 3431 0 
L 469 0 
L 469 531 
Q 828 903 1448 1529 
Q 2069 2156 2228 2338 
Q 2531 2678 2651 2914 
Q 2772 3150 2772 3378 
Q 2772 3750 2511 3984 
Q 2250 4219 1831 4219 
Q 1534 4219 1204 4116 
Q 875 4013 500 3803 
L 500 4441 
Q 881 4594 1212 4672 
Q 1544 4750 1819 4750 
Q 2544 4750 2975 4387 
Q 3406 4025 3406 3419 
Q 3406 3131 3298 2873 
Q 3191 2616 2906 2266 
Q 2828 2175 2409 1742 
Q 1991 1309 1228 531 
z
" transform="scale(0.015625)"/>
       </defs>
       <use xlink:href="#DejaVuSans-32"/>
       <use xlink:href="#DejaVuSans-30" x="63.623047"/>
       <use xlink:href="#DejaVuSans-30" x="127.246094"/>
      </g>
     </g>
    </g>
    <g id="xtick_3">
     <g id="line2d_3">
      <g>
       <use xlink:href="#m52be0268b8" x="170.312533" y="307.584" style="stroke: #000000; stroke-width: 0.8"/>
      </g>
     </g>
     <g id="text_3">
      <!-- 400 -->
      <g transform="translate(160.768783 322.182437)scale(0.1 -0.1)">
       <defs>
        <path id="DejaVuSans-34" d="M 2419 4116 
L 825 1625 
L 2419 1625 
L 2419 4116 
z
M 2253 4666 
L 3047 4666 
L 3047 1625 
L 3713 1625 
L 3713 1100 
L 3047 1100 
L 3047 0 
L 2419 0 
L 2419 1100 
L 313 1100 
L 313 1709 
L 2253 4666 
z
" transform="scale(0.015625)"/>
       </defs>
       <use xlink:href="#DejaVuSans-34"/>
       <use xlink:href="#DejaVuSans-30" x="63.623047"/>
       <use xlink:href="#DejaVuSans-30" x="127.246094"/>
      </g>
     </g>
    </g>
    <g id="xtick_4">
     <g id="line2d_4">
      <g>
       <use xlink:href="#m52be0268b8" x="218.552435" y="307.584" style="stroke: #000000; stroke-width: 0.8"/>
      </g>
     </g>
     <g id="text_4">
      <!-- 600 -->
      <g transform="translate(209.008685 322.182437)scale(0.1 -0.1)">
       <defs>
        <path id="DejaVuSans-36" d="M 2113 2584 
Q 1688 2584 1439 2293 
Q 1191 2003 1191 1497 
Q 1191 994 1439 701 
Q 1688 409 2113 409 
Q 2538 409 2786 701 
Q 3034 994 3034 1497 
Q 3034 2003 2786 2293 
Q 2538 2584 2113 2584 
z
M 3366 4563 
L 3366 3988 
Q 3128 4100 2886 4159 
Q 2644 4219 2406 4219 
Q 1781 4219 1451 3797 
Q 1122 3375 1075 2522 
Q 1259 2794 1537 2939 
Q 1816 3084 2150 3084 
Q 2853 3084 3261 2657 
Q 3669 2231 3669 1497 
Q 3669 778 3244 343 
Q 2819 -91 2113 -91 
Q 1303 -91 875 529 
Q 447 1150 447 2328 
Q 447 3434 972 4092 
Q 1497 4750 2381 4750 
Q 2619 4750 2861 4703 
Q 3103 4656 3366 4563 
z
" transform="scale(0.015625)"/>
       </defs>
       <use xlink:href="#DejaVuSans-36"/>
       <use xlink:href="#DejaVuSans-30" x="63.623047"/>
       <use xlink:href="#DejaVuSans-30" x="127.246094"/>
      </g>
     </g>
    </g>
    <g id="xtick_5">
     <g id="line2d_5">
      <g>
       <use xlink:href="#m52be0268b8" x="266.792338" y="307.584" style="stroke: #000000; stroke-width: 0.8"/>
      </g>
     </g>
     <g id="text_5">
      <!-- 800 -->
      <g transform="translate(257.248588 322.182437)scale(0.1 -0.1)">
       <defs>
        <path id="DejaVuSans-38" d="M 2034 2216 
Q 1584 2216 1326 1975 
Q 1069 1734 1069 1313 
Q 1069 891 1326 650 
Q 1584 409 2034 409 
Q 2484 409 2743 651 
Q 3003 894 3003 1313 
Q 3003 1734 2745 1975 
Q 2488 2216 2034 2216 
z
M 1403 2484 
Q 997 2584 770 2862 
Q 544 3141 544 3541 
Q 544 4100 942 4425 
Q 1341 4750 2034 4750 
Q 2731 4750 3128 4425 
Q 3525 4100 3525 3541 
Q 3525 3141 3298 2862 
Q 3072 2584 2669 2484 
Q 3125 2378 3379 2068 
Q 3634 1759 3634 1313 
Q 3634 634 3220 271 
Q 2806 -91 2034 -91 
Q 1263 -91 848 271 
Q 434 634 434 1313 
Q 434 1759 690 2068 
Q 947 2378 1403 2484 
z
M 1172 3481 
Q 1172 3119 1398 2916 
Q 1625 2713 2034 2713 
Q 2441 2713 2670 2916 
Q 2900 3119 2900 3481 
Q 2900 3844 2670 4047 
Q 2441 4250 2034 4250 
Q 1625 4250 1398 4047 
Q 1172 3844 1172 3481 
z
" transform="scale(0.015625)"/>
       </defs>
       <use xlink:href="#DejaVuSans-38"/>
       <use xlink:href="#DejaVuSans-30" x="63.623047"/>
       <use xlink:href="#DejaVuSans-30" x="127.246094"/>
      </g>
     </g>
    </g>
    <g id="xtick_6">
     <g id="line2d_6">
      <g>
       <use xlink:href="#m52be0268b8" x="315.032241" y="307.584" style="stroke: #000000; stroke-width: 0.8"/>
      </g>
     </g>
     <g id="text_6">
      <!-- 1000 -->
      <g transform="translate(302.307241 322.182437)scale(0.1 -0.1)">
       <defs>
        <path id="DejaVuSans-31" d="M 794 531 
L 1825 531 
L 1825 4091 
L 703 3866 
L 703 4441 
L 1819 4666 
L 2450 4666 
L 2450 531 
L 3481 531 
L 3481 0 
L 794 0 
L 794 531 
z
" transform="scale(0.015625)"/>
       </defs>
       <use xlink:href="#DejaVuSans-31"/>
       <use xlink:href="#DejaVuSans-30" x="63.623047"/>
       <use xlink:href="#DejaVuSans-30" x="127.246094"/>
       <use xlink:href="#DejaVuSans-30" x="190.869141"/>
      </g>
     </g>
    </g>
    <g id="xtick_7">
     <g id="line2d_7">
      <g>
       <use xlink:href="#m52be0268b8" x="363.272144" y="307.584" style="stroke: #000000; stroke-width: 0.8"/>
      </g>
     </g>
     <g id="text_7">
      <!-- 1200 -->
      <g transform="translate(350.547144 322.182437)scale(0.1 -0.1)">
       <use xlink:href="#DejaVuSans-31"/>
       <use xlink:href="#DejaVuSans-32" x="63.623047"/>
       <use xlink:href="#DejaVuSans-30" x="127.246094"/>
       <use xlink:href="#DejaVuSans-30" x="190.869141"/>
      </g>
     </g>
    </g>
    <g id="xtick_8">
     <g id="line2d_8">
      <g>
       <use xlink:href="#m52be0268b8" x="411.512046" y="307.584" style="stroke: #000000; stroke-width: 0.8"/>
      </g>
     </g>
     <g id="text_8">
      <!-- 1400 -->
      <g transform="translate(398.787046 322.182437)scale(0.1 -0.1)">
       <use xlink:href="#DejaVuSans-31"/>
       <use xlink:href="#DejaVuSans-34" x="63.623047"/>
       <use xlink:href="#DejaVuSans-30" x="127.246094"/>
       <use xlink:href="#DejaVuSans-30" x="190.869141"/>
      </g>
     </g>
    </g>
    <g id="text_9">
     <!-- num swaps -->
     <g transform="translate(207.826406 335.860562)scale(0.1 -0.1)">
      <defs>
       <path id="DejaVuSans-6e" d="M 3513 2113 
L 3513 0 
L 2938 0 
L 2938 2094 
Q 2938 2591 2744 2837 
Q 2550 3084 2163 3084 
Q 1697 3084 1428 2787 
Q 1159 2491 1159 1978 
L 1159 0 
L 581 0 
L 581 3500 
L 1159 3500 
L 1159 2956 
Q 1366 3272 1645 3428 
Q 1925 3584 2291 3584 
Q 2894 3584 3203 3211 
Q 3513 2838 3513 2113 
z
" transform="scale(0.015625)"/>
       <path id="DejaVuSans-75" d="M 544 1381 
L 544 3500 
L 1119 3500 
L 1119 1403 
Q 1119 906 1312 657 
Q 1506 409 1894 409 
Q 2359 409 2629 706 
Q 2900 1003 2900 1516 
L 2900 3500 
L 3475 3500 
L 3475 0 
L 2900 0 
L 2900 538 
Q 2691 219 2414 64 
Q 2138 -91 1772 -91 
Q 1169 -91 856 284 
Q 544 659 544 1381 
z
M 1991 3584 
L 1991 3584 
z
" transform="scale(0.015625)"/>
       <path id="DejaVuSans-6d" d="M 3328 2828 
Q 3544 3216 3844 3400 
Q 4144 3584 4550 3584 
Q 5097 3584 5394 3201 
Q 5691 2819 5691 2113 
L 5691 0 
L 5113 0 
L 5113 2094 
Q 5113 2597 4934 2840 
Q 4756 3084 4391 3084 
Q 3944 3084 3684 2787 
Q 3425 2491 3425 1978 
L 3425 0 
L 2847 0 
L 2847 2094 
Q 2847 2600 2669 2842 
Q 2491 3084 2119 3084 
Q 1678 3084 1418 2786 
Q 1159 2488 1159 1978 
L 1159 0 
L 581 0 
L 581 3500 
L 1159 3500 
L 1159 2956 
Q 1356 3278 1631 3431 
Q 1906 3584 2284 3584 
Q 2666 3584 2933 3390 
Q 3200 3197 3328 2828 
z
" transform="scale(0.015625)"/>
       <path id="DejaVuSans-20" transform="scale(0.015625)"/>
       <path id="DejaVuSans-73" d="M 2834 3397 
L 2834 2853 
Q 2591 2978 2328 3040 
Q 2066 3103 1784 3103 
Q 1356 3103 1142 2972 
Q 928 2841 928 2578 
Q 928 2378 1081 2264 
Q 1234 2150 1697 2047 
L 1894 2003 
Q 2506 1872 2764 1633 
Q 3022 1394 3022 966 
Q 3022 478 2636 193 
Q 2250 -91 1575 -91 
Q 1294 -91 989 -36 
Q 684 19 347 128 
L 347 722 
Q 666 556 975 473 
Q 1284 391 1588 391 
Q 1994 391 2212 530 
Q 2431 669 2431 922 
Q 2431 1156 2273 1281 
Q 2116 1406 1581 1522 
L 1381 1569 
Q 847 1681 609 1914 
Q 372 2147 372 2553 
Q 372 3047 722 3315 
Q 1072 3584 1716 3584 
Q 2034 3584 2315 3537 
Q 2597 3491 2834 3397 
z
" transform="scale(0.015625)"/>
       <path id="DejaVuSans-77" d="M 269 3500 
L 844 3500 
L 1563 769 
L 2278 3500 
L 2956 3500 
L 3675 769 
L 4391 3500 
L 4966 3500 
L 4050 0 
L 3372 0 
L 2619 2869 
L 1863 0 
L 1184 0 
L 269 3500 
z
" transform="scale(0.015625)"/>
       <path id="DejaVuSans-61" d="M 2194 1759 
Q 1497 1759 1228 1600 
Q 959 1441 959 1056 
Q 959 750 1161 570 
Q 1363 391 1709 391 
Q 2188 391 2477 730 
Q 2766 1069 2766 1631 
L 2766 1759 
L 2194 1759 
z
M 3341 1997 
L 3341 0 
L 2766 0 
L 2766 531 
Q 2569 213 2275 61 
Q 1981 -91 1556 -91 
Q 1019 -91 701 211 
Q 384 513 384 1019 
Q 384 1609 779 1909 
Q 1175 2209 1959 2209 
L 2766 2209 
L 2766 2266 
Q 2766 2663 2505 2880 
Q 2244 3097 1772 3097 
Q 1472 3097 1187 3025 
Q 903 2953 641 2809 
L 641 3341 
Q 956 3463 1253 3523 
Q 1550 3584 1831 3584 
Q 2591 3584 2966 3190 
Q 3341 2797 3341 1997 
z
" transform="scale(0.015625)"/>
       <path id="DejaVuSans-70" d="M 1159 525 
L 1159 -1331 
L 581 -1331 
L 581 3500 
L 1159 3500 
L 1159 2969 
Q 1341 3281 1617 3432 
Q 1894 3584 2278 3584 
Q 2916 3584 3314 3078 
Q 3713 2572 3713 1747 
Q 3713 922 3314 415 
Q 2916 -91 2278 -91 
Q 1894 -91 1617 61 
Q 1341 213 1159 525 
z
M 3116 1747 
Q 3116 2381 2855 2742 
Q 2594 3103 2138 3103 
Q 1681 3103 1420 2742 
Q 1159 2381 1159 1747 
Q 1159 1113 1420 752 
Q 1681 391 2138 391 
Q 2594 391 2855 752 
Q 3116 1113 3116 1747 
z
" transform="scale(0.015625)"/>
      </defs>
      <use xlink:href="#DejaVuSans-6e"/>
      <use xlink:href="#DejaVuSans-75" x="63.378906"/>
      <use xlink:href="#DejaVuSans-6d" x="126.757812"/>
      <use xlink:href="#DejaVuSans-20" x="224.169922"/>
      <use xlink:href="#DejaVuSans-73" x="255.957031"/>
      <use xlink:href="#DejaVuSans-77" x="308.056641"/>
      <use xlink:href="#DejaVuSans-61" x="389.84375"/>
      <use xlink:href="#DejaVuSans-70" x="451.123047"/>
      <use xlink:href="#DejaVuSans-73" x="514.599609"/>
     </g>
    </g>
   </g>
   <g id="matplotlib.axis_2">
    <g id="ytick_1">
     <g id="line2d_9">
      <defs>
       <path id="mcb4cca9b61" d="M 0 0 
L -3.5 0 
" style="stroke: #000000; stroke-width: 0.8"/>
      </defs>
      <g>
       <use xlink:href="#mcb4cca9b61" x="57.6" y="295.488" style="stroke: #000000; stroke-width: 0.8"/>
      </g>
     </g>
     <g id="text_10">
      <!-- 530 -->
      <g transform="translate(31.5125 299.287219)scale(0.1 -0.1)">
       <defs>
        <path id="DejaVuSans-35" d="M 691 4666 
L 3169 4666 
L 3169 4134 
L 1269 4134 
L 1269 2991 
Q 1406 3038 1543 3061 
Q 1681 3084 1819 3084 
Q 2600 3084 3056 2656 
Q 3513 2228 3513 1497 
Q 3513 744 3044 326 
Q 2575 -91 1722 -91 
Q 1428 -91 1123 -41 
Q 819 9 494 109 
L 494 744 
Q 775 591 1075 516 
Q 1375 441 1709 441 
Q 2250 441 2565 725 
Q 2881 1009 2881 1497 
Q 2881 1984 2565 2268 
Q 2250 2553 1709 2553 
Q 1456 2553 1204 2497 
Q 953 2441 691 2322 
L 691 4666 
z
" transform="scale(0.015625)"/>
        <path id="DejaVuSans-33" d="M 2597 2516 
Q 3050 2419 3304 2112 
Q 3559 1806 3559 1356 
Q 3559 666 3084 287 
Q 2609 -91 1734 -91 
Q 1441 -91 1130 -33 
Q 819 25 488 141 
L 488 750 
Q 750 597 1062 519 
Q 1375 441 1716 441 
Q 2309 441 2620 675 
Q 2931 909 2931 1356 
Q 2931 1769 2642 2001 
Q 2353 2234 1838 2234 
L 1294 2234 
L 1294 2753 
L 1863 2753 
Q 2328 2753 2575 2939 
Q 2822 3125 2822 3475 
Q 2822 3834 2567 4026 
Q 2313 4219 1838 4219 
Q 1578 4219 1281 4162 
Q 984 4106 628 3988 
L 628 4550 
Q 988 4650 1302 4700 
Q 1616 4750 1894 4750 
Q 2613 4750 3031 4423 
Q 3450 4097 3450 3541 
Q 3450 3153 3228 2886 
Q 3006 2619 2597 2516 
z
" transform="scale(0.015625)"/>
       </defs>
       <use xlink:href="#DejaVuSans-35"/>
       <use xlink:href="#DejaVuSans-33" x="63.623047"/>
       <use xlink:href="#DejaVuSans-30" x="127.246094"/>
      </g>
     </g>
    </g>
    <g id="ytick_2">
     <g id="line2d_10">
      <g>
       <use xlink:href="#mcb4cca9b61" x="57.6" y="265.621333" style="stroke: #000000; stroke-width: 0.8"/>
      </g>
     </g>
     <g id="text_11">
      <!-- 540 -->
      <g transform="translate(31.5125 269.420552)scale(0.1 -0.1)">
       <use xlink:href="#DejaVuSans-35"/>
       <use xlink:href="#DejaVuSans-34" x="63.623047"/>
       <use xlink:href="#DejaVuSans-30" x="127.246094"/>
      </g>
     </g>
    </g>
    <g id="ytick_3">
     <g id="line2d_11">
      <g>
       <use xlink:href="#mcb4cca9b61" x="57.6" y="235.754667" style="stroke: #000000; stroke-width: 0.8"/>
      </g>
     </g>
     <g id="text_12">
      <!-- 550 -->
      <g transform="translate(31.5125 239.553885)scale(0.1 -0.1)">
       <use xlink:href="#DejaVuSans-35"/>
       <use xlink:href="#DejaVuSans-35" x="63.623047"/>
       <use xlink:href="#DejaVuSans-30" x="127.246094"/>
      </g>
     </g>
    </g>
    <g id="ytick_4">
     <g id="line2d_12">
      <g>
       <use xlink:href="#mcb4cca9b61" x="57.6" y="205.888" style="stroke: #000000; stroke-width: 0.8"/>
      </g>
     </g>
     <g id="text_13">
      <!-- 560 -->
      <g transform="translate(31.5125 209.687219)scale(0.1 -0.1)">
       <use xlink:href="#DejaVuSans-35"/>
       <use xlink:href="#DejaVuSans-36" x="63.623047"/>
       <use xlink:href="#DejaVuSans-30" x="127.246094"/>
      </g>
     </g>
    </g>
    <g id="ytick_5">
     <g id="line2d_13">
      <g>
       <use xlink:href="#mcb4cca9b61" x="57.6" y="176.021333" style="stroke: #000000; stroke-width: 0.8"/>
      </g>
     </g>
     <g id="text_14">
      <!-- 570 -->
      <g transform="translate(31.5125 179.820552)scale(0.1 -0.1)">
       <defs>
        <path id="DejaVuSans-37" d="M 525 4666 
L 3525 4666 
L 3525 4397 
L 1831 0 
L 1172 0 
L 2766 4134 
L 525 4134 
L 525 4666 
z
" transform="scale(0.015625)"/>
       </defs>
       <use xlink:href="#DejaVuSans-35"/>
       <use xlink:href="#DejaVuSans-37" x="63.623047"/>
       <use xlink:href="#DejaVuSans-30" x="127.246094"/>
      </g>
     </g>
    </g>
    <g id="ytick_6">
     <g id="line2d_14">
      <g>
       <use xlink:href="#mcb4cca9b61" x="57.6" y="146.154667" style="stroke: #000000; stroke-width: 0.8"/>
      </g>
     </g>
     <g id="text_15">
      <!-- 580 -->
      <g transform="translate(31.5125 149.953885)scale(0.1 -0.1)">
       <use xlink:href="#DejaVuSans-35"/>
       <use xlink:href="#DejaVuSans-38" x="63.623047"/>
       <use xlink:href="#DejaVuSans-30" x="127.246094"/>
      </g>
     </g>
    </g>
    <g id="ytick_7">
     <g id="line2d_15">
      <g>
       <use xlink:href="#mcb4cca9b61" x="57.6" y="116.288" style="stroke: #000000; stroke-width: 0.8"/>
      </g>
     </g>
     <g id="text_16">
      <!-- 590 -->
      <g transform="translate(31.5125 120.087219)scale(0.1 -0.1)">
       <defs>
        <path id="DejaVuSans-39" d="M 703 97 
L 703 672 
Q 941 559 1184 500 
Q 1428 441 1663 441 
Q 2288 441 2617 861 
Q 2947 1281 2994 2138 
Q 2813 1869 2534 1725 
Q 2256 1581 1919 1581 
Q 1219 1581 811 2004 
Q 403 2428 403 3163 
Q 403 3881 828 4315 
Q 1253 4750 1959 4750 
Q 2769 4750 3195 4129 
Q 3622 3509 3622 2328 
Q 3622 1225 3098 567 
Q 2575 -91 1691 -91 
Q 1453 -91 1209 -44 
Q 966 3 703 97 
z
M 1959 2075 
Q 2384 2075 2632 2365 
Q 2881 2656 2881 3163 
Q 2881 3666 2632 3958 
Q 2384 4250 1959 4250 
Q 1534 4250 1286 3958 
Q 1038 3666 1038 3163 
Q 1038 2656 1286 2365 
Q 1534 2075 1959 2075 
z
" transform="scale(0.015625)"/>
       </defs>
       <use xlink:href="#DejaVuSans-35"/>
       <use xlink:href="#DejaVuSans-39" x="63.623047"/>
       <use xlink:href="#DejaVuSans-30" x="127.246094"/>
      </g>
     </g>
    </g>
    <g id="ytick_8">
     <g id="line2d_16">
      <g>
       <use xlink:href="#mcb4cca9b61" x="57.6" y="86.421333" style="stroke: #000000; stroke-width: 0.8"/>
      </g>
     </g>
     <g id="text_17">
      <!-- 600 -->
      <g transform="translate(31.5125 90.220552)scale(0.1 -0.1)">
       <use xlink:href="#DejaVuSans-36"/>
       <use xlink:href="#DejaVuSans-30" x="63.623047"/>
       <use xlink:href="#DejaVuSans-30" x="127.246094"/>
      </g>
     </g>
    </g>
    <g id="ytick_9">
     <g id="line2d_17">
      <g>
       <use xlink:href="#mcb4cca9b61" x="57.6" y="56.554667" style="stroke: #000000; stroke-width: 0.8"/>
      </g>
     </g>
     <g id="text_18">
      <!-- 610 -->
      <g transform="translate(31.5125 60.353885)scale(0.1 -0.1)">
       <use xlink:href="#DejaVuSans-36"/>
       <use xlink:href="#DejaVuSans-31" x="63.623047"/>
       <use xlink:href="#DejaVuSans-30" x="127.246094"/>
      </g>
     </g>
    </g>
    <g id="text_19">
     <!-- total cost -->
     <g transform="translate(25.432812 197.923313)rotate(-90)scale(0.1 -0.1)">
      <defs>
       <path id="DejaVuSans-74" d="M 1172 4494 
L 1172 3500 
L 2356 3500 
L 2356 3053 
L 1172 3053 
L 1172 1153 
Q 1172 725 1289 603 
Q 1406 481 1766 481 
L 2356 481 
L 2356 0 
L 1766 0 
Q 1100 0 847 248 
Q 594 497 594 1153 
L 594 3053 
L 172 3053 
L 172 3500 
L 594 3500 
L 594 4494 
L 1172 4494 
z
" transform="scale(0.015625)"/>
       <path id="DejaVuSans-6f" d="M 1959 3097 
Q 1497 3097 1228 2736 
Q 959 2375 959 1747 
Q 959 1119 1226 758 
Q 1494 397 1959 397 
Q 2419 397 2687 759 
Q 2956 1122 2956 1747 
Q 2956 2369 2687 2733 
Q 2419 3097 1959 3097 
z
M 1959 3584 
Q 2709 3584 3137 3096 
Q 3566 2609 3566 1747 
Q 3566 888 3137 398 
Q 2709 -91 1959 -91 
Q 1206 -91 779 398 
Q 353 888 353 1747 
Q 353 2609 779 3096 
Q 1206 3584 1959 3584 
z
" transform="scale(0.015625)"/>
       <path id="DejaVuSans-6c" d="M 603 4863 
L 1178 4863 
L 1178 0 
L 603 0 
L 603 4863 
z
" transform="scale(0.015625)"/>
       <path id="DejaVuSans-63" d="M 3122 3366 
L 3122 2828 
Q 2878 2963 2633 3030 
Q 2388 3097 2138 3097 
Q 1578 3097 1268 2742 
Q 959 2388 959 1747 
Q 959 1106 1268 751 
Q 1578 397 2138 397 
Q 2388 397 2633 464 
Q 2878 531 3122 666 
L 3122 134 
Q 2881 22 2623 -34 
Q 2366 -91 2075 -91 
Q 1284 -91 818 406 
Q 353 903 353 1747 
Q 353 2603 823 3093 
Q 1294 3584 2113 3584 
Q 2378 3584 2631 3529 
Q 2884 3475 3122 3366 
z
" transform="scale(0.015625)"/>
      </defs>
      <use xlink:href="#DejaVuSans-74"/>
      <use xlink:href="#DejaVuSans-6f" x="39.208984"/>
      <use xlink:href="#DejaVuSans-74" x="100.390625"/>
      <use xlink:href="#DejaVuSans-61" x="139.599609"/>
      <use xlink:href="#DejaVuSans-6c" x="200.878906"/>
      <use xlink:href="#DejaVuSans-20" x="228.662109"/>
      <use xlink:href="#DejaVuSans-63" x="260.449219"/>
      <use xlink:href="#DejaVuSans-6f" x="315.429688"/>
      <use xlink:href="#DejaVuSans-73" x="376.611328"/>
      <use xlink:href="#DejaVuSans-74" x="428.710938"/>
     </g>
    </g>
   </g>
   <g id="line2d_18">
    <path d="M 73.832727 113.301333 
L 74.315126 110.314667 
L 74.797525 125.248 
L 75.279924 107.328 
L 75.762323 122.261333 
L 76.244722 131.221333 
L 76.727121 149.141333 
L 77.20952 161.088 
L 77.691919 143.168 
L 78.656718 137.194667 
L 79.139117 149.141333 
L 79.621516 143.168 
L 80.103915 152.128 
L 80.586314 140.181333 
L 81.068713 149.141333 
L 81.551112 152.128 
L 82.51591 181.994667 
L 83.480708 140.181333 
L 83.963107 137.194667 
L 84.445506 107.328 
L 84.927905 98.368 
L 85.410304 131.221333 
L 85.892703 122.261333 
L 86.375102 119.274667 
L 86.857501 122.261333 
L 87.3399 122.261333 
L 87.822299 125.248 
L 88.304698 116.288 
L 88.787097 131.221333 
L 89.269496 155.114667 
L 89.751895 149.141333 
L 90.234294 146.154667 
L 90.716693 134.208 
L 91.199092 158.101333 
L 91.681491 125.248 
L 92.646289 86.421333 
L 93.128688 104.341333 
L 93.611087 116.288 
L 94.093486 98.368 
L 94.575885 98.368 
L 95.058284 110.314667 
L 95.540684 86.421333 
L 96.023083 83.434667 
L 96.505482 92.394667 
L 96.987881 143.168 
L 97.47028 134.208 
L 97.952679 107.328 
L 98.435078 89.408 
L 98.917477 107.328 
L 99.399876 71.488 
L 99.882275 53.568 
L 100.364674 98.368 
L 100.847073 125.248 
L 101.329472 131.221333 
L 102.29427 149.141333 
L 102.776669 161.088 
L 103.259068 149.141333 
L 103.741467 155.114667 
L 104.223866 149.141333 
L 104.706265 128.234667 
L 105.188664 128.234667 
L 105.671063 158.101333 
L 106.153462 152.128 
L 106.635861 149.141333 
L 107.11826 122.261333 
L 107.600659 113.301333 
L 108.083058 134.208 
L 108.565457 149.141333 
L 109.047856 155.114667 
L 109.530255 170.048 
L 110.012654 176.021333 
L 110.495053 170.048 
L 110.977452 125.248 
L 111.459851 134.208 
L 111.94225 149.141333 
L 112.424649 146.154667 
L 112.907048 155.114667 
L 113.389448 161.088 
L 113.871847 184.981333 
L 114.354246 152.128 
L 114.836645 173.034667 
L 115.319044 214.848 
L 115.801443 223.808 
L 116.283842 199.914667 
L 116.766241 223.808 
L 117.24864 205.888 
L 117.731039 164.074667 
L 118.213438 140.181333 
L 118.695837 128.234667 
L 119.178236 92.394667 
L 119.660635 110.314667 
L 120.143034 122.261333 
L 120.625433 125.248 
L 121.107832 134.208 
L 121.590231 104.341333 
L 122.07263 128.234667 
L 122.555029 125.248 
L 123.037428 137.194667 
L 123.519827 122.261333 
L 124.002226 140.181333 
L 124.484625 173.034667 
L 124.967024 196.928 
L 125.449423 196.928 
L 125.931822 214.848 
L 126.414221 184.981333 
L 126.89662 184.981333 
L 127.379019 170.048 
L 128.343817 187.968 
L 128.826216 176.021333 
L 129.308615 199.914667 
L 129.791014 196.928 
L 130.273413 208.874667 
L 130.755813 214.848 
L 131.238212 164.074667 
L 131.720611 137.194667 
L 132.685409 143.168 
L 133.167808 149.141333 
L 133.650207 149.141333 
L 134.132606 143.168 
L 134.615005 170.048 
L 135.097404 164.074667 
L 135.579803 164.074667 
L 136.062202 167.061333 
L 136.544601 158.101333 
L 137.027 137.194667 
L 137.509399 158.101333 
L 137.991798 173.034667 
L 138.474197 152.128 
L 139.438995 181.994667 
L 139.921394 155.114667 
L 140.886192 143.168 
L 141.368591 149.141333 
L 141.85099 161.088 
L 142.333389 155.114667 
L 142.815788 193.941333 
L 143.298187 176.021333 
L 143.780586 179.008 
L 144.745384 137.194667 
L 145.227783 137.194667 
L 145.710182 119.274667 
L 146.192581 125.248 
L 146.67498 143.168 
L 147.157379 170.048 
L 147.639778 137.194667 
L 148.122177 134.208 
L 148.604577 134.208 
L 149.086976 122.261333 
L 149.569375 137.194667 
L 150.051774 125.248 
L 150.534173 128.234667 
L 151.016572 152.128 
L 151.498971 161.088 
L 151.98137 176.021333 
L 152.463769 173.034667 
L 152.946168 181.994667 
L 153.428567 184.981333 
L 153.910966 164.074667 
L 154.393365 181.994667 
L 154.875764 176.021333 
L 155.358163 184.981333 
L 155.840562 152.128 
L 156.322961 134.208 
L 156.80536 140.181333 
L 157.287759 152.128 
L 157.770158 125.248 
L 158.252557 122.261333 
L 158.734956 113.301333 
L 159.217355 83.434667 
L 159.699754 86.421333 
L 160.182153 101.354667 
L 160.664552 95.381333 
L 161.146951 98.368 
L 161.62935 92.394667 
L 162.111749 98.368 
L 162.594148 119.274667 
L 163.076547 125.248 
L 163.558946 113.301333 
L 164.523744 155.114667 
L 165.006143 164.074667 
L 165.488542 184.981333 
L 165.970942 158.101333 
L 166.453341 170.048 
L 166.93574 170.048 
L 167.418139 181.994667 
L 167.900538 173.034667 
L 168.382937 190.954667 
L 168.865336 184.981333 
L 169.347735 202.901333 
L 169.830134 214.848 
L 170.312533 223.808 
L 170.794932 223.808 
L 171.277331 202.901333 
L 171.75973 164.074667 
L 172.242129 202.901333 
L 173.206927 158.101333 
L 173.689326 164.074667 
L 174.171725 179.008 
L 174.654124 167.061333 
L 175.136523 184.981333 
L 175.618922 161.088 
L 176.101321 158.101333 
L 176.58372 173.034667 
L 177.066119 181.994667 
L 177.548518 149.141333 
L 178.030917 143.168 
L 178.513316 161.088 
L 178.995715 170.048 
L 179.478114 158.101333 
L 179.960513 179.008 
L 180.442912 181.994667 
L 180.925311 187.968 
L 181.40771 208.874667 
L 181.890109 196.928 
L 182.372508 173.034667 
L 182.854907 190.954667 
L 183.337306 137.194667 
L 183.819706 137.194667 
L 184.302105 131.221333 
L 184.784504 122.261333 
L 185.266903 128.234667 
L 185.749302 137.194667 
L 186.231701 140.181333 
L 186.7141 113.301333 
L 187.196499 125.248 
L 187.678898 98.368 
L 188.161297 95.381333 
L 188.643696 122.261333 
L 189.126095 167.061333 
L 189.608494 152.128 
L 190.090893 146.154667 
L 190.573292 167.061333 
L 191.055691 176.021333 
L 191.53809 199.914667 
L 192.020489 179.008 
L 192.502888 190.954667 
L 192.985287 184.981333 
L 193.467686 202.901333 
L 193.950085 205.888 
L 194.432484 217.834667 
L 194.914883 226.794667 
L 195.397282 223.808 
L 195.879681 205.888 
L 196.36208 202.901333 
L 196.844479 208.874667 
L 197.326878 202.901333 
L 197.809277 202.901333 
L 198.291676 244.714667 
L 198.774075 241.728 
L 199.256474 208.874667 
L 199.738873 184.981333 
L 200.221272 184.981333 
L 200.703671 190.954667 
L 201.186071 187.968 
L 201.66847 176.021333 
L 202.150869 184.981333 
L 202.633268 164.074667 
L 203.115667 167.061333 
L 203.598066 140.181333 
L 204.080465 155.114667 
L 204.562864 193.941333 
L 205.045263 211.861333 
L 205.527662 199.914667 
L 206.010061 152.128 
L 206.49246 176.021333 
L 206.974859 149.141333 
L 207.457258 155.114667 
L 207.939657 152.128 
L 208.422056 125.248 
L 208.904455 116.288 
L 209.386854 95.381333 
L 209.869253 95.381333 
L 210.351652 128.234667 
L 210.834051 122.261333 
L 211.31645 119.274667 
L 211.798849 113.301333 
L 212.281248 125.248 
L 212.763647 110.314667 
L 213.246046 86.421333 
L 213.728445 92.394667 
L 214.210844 101.354667 
L 214.693243 119.274667 
L 215.175642 119.274667 
L 216.14044 143.168 
L 216.622839 143.168 
L 217.105238 134.208 
L 218.070036 128.234667 
L 218.552435 128.234667 
L 219.034835 149.141333 
L 219.517234 149.141333 
L 219.999633 170.048 
L 220.482032 179.008 
L 220.964431 143.168 
L 221.44683 122.261333 
L 221.929229 125.248 
L 222.411628 143.168 
L 222.894027 140.181333 
L 223.376426 119.274667 
L 223.858825 122.261333 
L 224.341224 131.221333 
L 224.823623 137.194667 
L 225.306022 155.114667 
L 225.788421 158.101333 
L 226.27082 134.208 
L 226.753219 137.194667 
L 227.235618 155.114667 
L 227.718017 149.141333 
L 228.200416 131.221333 
L 228.682815 122.261333 
L 229.165214 134.208 
L 229.647613 140.181333 
L 230.130012 143.168 
L 230.612411 170.048 
L 232.059608 116.288 
L 232.542007 116.288 
L 233.506805 98.368 
L 233.989204 122.261333 
L 234.471603 110.314667 
L 234.954002 113.301333 
L 235.436401 110.314667 
L 235.9188 119.274667 
L 236.4012 131.221333 
L 236.883599 155.114667 
L 237.365998 134.208 
L 237.848397 137.194667 
L 238.330796 161.088 
L 238.813195 140.181333 
L 239.295594 164.074667 
L 239.777993 176.021333 
L 240.260392 179.008 
L 240.742791 167.061333 
L 241.22519 140.181333 
L 241.707589 98.368 
L 242.189988 110.314667 
L 242.672387 116.288 
L 243.154786 104.341333 
L 243.637185 113.301333 
L 244.601983 140.181333 
L 245.084382 152.128 
L 245.566781 134.208 
L 246.04918 137.194667 
L 246.531579 137.194667 
L 247.013978 134.208 
L 247.496377 110.314667 
L 247.978776 125.248 
L 248.461175 155.114667 
L 248.943574 146.154667 
L 249.425973 131.221333 
L 249.908372 110.314667 
L 250.390771 98.368 
L 250.87317 107.328 
L 251.355569 164.074667 
L 251.837968 179.008 
L 252.320367 173.034667 
L 252.802766 164.074667 
L 253.285165 164.074667 
L 253.767565 161.088 
L 254.249964 86.421333 
L 254.732363 98.368 
L 255.214762 107.328 
L 255.697161 152.128 
L 256.17956 149.141333 
L 256.661959 161.088 
L 257.144358 140.181333 
L 257.626757 161.088 
L 258.109156 143.168 
L 258.591555 155.114667 
L 259.073954 149.141333 
L 259.556353 167.061333 
L 260.038752 190.954667 
L 260.521151 155.114667 
L 261.00355 164.074667 
L 261.485949 152.128 
L 261.968348 158.101333 
L 262.450747 149.141333 
L 262.933146 122.261333 
L 263.415545 140.181333 
L 263.897944 131.221333 
L 264.380343 164.074667 
L 264.862742 152.128 
L 265.345141 146.154667 
L 265.82754 173.034667 
L 266.309939 152.128 
L 266.792338 173.034667 
L 267.274737 143.168 
L 267.757136 146.154667 
L 268.239535 146.154667 
L 268.721934 173.034667 
L 269.204333 149.141333 
L 269.686732 161.088 
L 270.169131 125.248 
L 270.65153 131.221333 
L 271.133929 104.341333 
L 271.616329 95.381333 
L 272.098728 77.461333 
L 272.581127 83.434667 
L 273.063526 110.314667 
L 273.545925 101.354667 
L 274.028324 104.341333 
L 274.510723 119.274667 
L 274.993122 104.341333 
L 275.475521 128.234667 
L 275.95792 134.208 
L 276.440319 107.328 
L 276.922718 104.341333 
L 277.405117 134.208 
L 277.887516 131.221333 
L 278.369915 140.181333 
L 278.852314 155.114667 
L 279.334713 152.128 
L 279.817112 116.288 
L 280.299511 128.234667 
L 280.78191 152.128 
L 281.264309 146.154667 
L 281.746708 170.048 
L 282.229107 167.061333 
L 282.711506 208.874667 
L 283.676304 190.954667 
L 284.158703 208.874667 
L 284.641102 211.861333 
L 285.123501 202.901333 
L 285.6059 187.968 
L 286.088299 181.994667 
L 286.570698 134.208 
L 287.053097 131.221333 
L 287.535496 125.248 
L 288.017895 179.008 
L 288.500294 152.128 
L 288.982694 152.128 
L 289.465093 143.168 
L 289.947492 143.168 
L 290.429891 152.128 
L 290.91229 140.181333 
L 291.394689 161.088 
L 291.877088 149.141333 
L 292.359487 134.208 
L 292.841886 125.248 
L 293.324285 137.194667 
L 294.289083 155.114667 
L 294.771482 134.208 
L 295.253881 164.074667 
L 295.73628 176.021333 
L 296.218679 158.101333 
L 296.701078 149.141333 
L 297.183477 143.168 
L 297.665876 149.141333 
L 298.148275 152.128 
L 298.630674 137.194667 
L 299.113073 161.088 
L 300.077871 116.288 
L 300.56027 125.248 
L 301.042669 143.168 
L 301.525068 134.208 
L 302.007467 181.994667 
L 302.489866 193.941333 
L 302.972265 184.981333 
L 303.454664 184.981333 
L 304.419462 161.088 
L 304.901861 161.088 
L 305.38426 146.154667 
L 305.866659 167.061333 
L 306.349058 179.008 
L 306.831458 187.968 
L 307.313857 193.941333 
L 307.796256 202.901333 
L 308.278655 208.874667 
L 308.761054 202.901333 
L 309.725852 268.608 
L 310.208251 232.768 
L 310.69065 226.794667 
L 311.173049 214.848 
L 311.655448 223.808 
L 312.137847 244.714667 
L 312.620246 253.674667 
L 313.585044 223.808 
L 314.067443 214.848 
L 314.549842 181.994667 
L 315.51464 241.728 
L 315.997039 241.728 
L 316.479438 244.714667 
L 316.961837 238.741333 
L 317.444236 235.754667 
L 317.926635 226.794667 
L 318.409034 238.741333 
L 318.891433 217.834667 
L 319.373832 214.848 
L 320.33863 158.101333 
L 320.821029 181.994667 
L 321.303428 170.048 
L 321.785827 187.968 
L 322.268226 187.968 
L 322.750625 181.994667 
L 323.233024 155.114667 
L 323.715423 152.128 
L 324.197823 152.128 
L 324.680222 116.288 
L 325.162621 122.261333 
L 325.64502 152.128 
L 326.127419 158.101333 
L 326.609818 146.154667 
L 327.092217 158.101333 
L 327.574616 149.141333 
L 328.057015 137.194667 
L 328.539414 140.181333 
L 329.021813 131.221333 
L 329.504212 149.141333 
L 329.986611 184.981333 
L 330.46901 173.034667 
L 330.951409 181.994667 
L 331.433808 193.941333 
L 331.916207 181.994667 
L 332.881005 181.994667 
L 333.363404 179.008 
L 334.328202 179.008 
L 334.810601 184.981333 
L 335.293 179.008 
L 335.775399 161.088 
L 336.257798 170.048 
L 336.740197 170.048 
L 337.222596 167.061333 
L 337.704995 173.034667 
L 338.187394 152.128 
L 338.669793 190.954667 
L 339.152192 199.914667 
L 339.634591 181.994667 
L 340.11699 170.048 
L 340.599389 152.128 
L 341.081788 173.034667 
L 341.564187 167.061333 
L 342.046587 170.048 
L 342.528986 170.048 
L 343.011385 173.034667 
L 343.493784 208.874667 
L 343.976183 223.808 
L 344.458582 214.848 
L 344.940981 217.834667 
L 345.42338 223.808 
L 345.905779 226.794667 
L 346.388178 235.754667 
L 346.870577 211.861333 
L 347.352976 241.728 
L 347.835375 244.714667 
L 348.317774 238.741333 
L 349.282572 199.914667 
L 349.764971 187.968 
L 350.729769 193.941333 
L 351.212168 229.781333 
L 352.176966 259.648 
L 352.659365 259.648 
L 353.141764 271.594667 
L 353.624163 244.714667 
L 354.106562 295.488 
L 354.588961 289.514667 
L 355.07136 256.661333 
L 355.553759 247.701333 
L 356.036158 241.728 
L 356.518557 247.701333 
L 357.000956 244.714667 
L 357.483355 196.928 
L 358.930552 146.154667 
L 359.412952 143.168 
L 359.895351 143.168 
L 360.37775 131.221333 
L 360.860149 137.194667 
L 361.342548 122.261333 
L 361.824947 128.234667 
L 362.307346 98.368 
L 362.789745 98.368 
L 363.272144 101.354667 
L 363.754543 113.301333 
L 364.236942 104.341333 
L 364.719341 92.394667 
L 365.20174 98.368 
L 365.684139 89.408 
L 366.166538 95.381333 
L 366.648937 137.194667 
L 367.131336 152.128 
L 367.613735 152.128 
L 368.096134 164.074667 
L 368.578533 164.074667 
L 369.060932 149.141333 
L 369.543331 152.128 
L 370.02573 125.248 
L 370.990528 179.008 
L 371.955326 179.008 
L 372.437725 167.061333 
L 372.920124 149.141333 
L 373.402523 202.901333 
L 373.884922 214.848 
L 374.367321 241.728 
L 374.84972 226.794667 
L 375.332119 220.821333 
L 375.814518 196.928 
L 376.296917 217.834667 
L 376.779316 226.794667 
L 377.261716 202.901333 
L 377.744115 190.954667 
L 378.226514 226.794667 
L 379.191312 152.128 
L 379.673711 208.874667 
L 380.15611 226.794667 
L 380.638509 220.821333 
L 381.603307 187.968 
L 382.085706 181.994667 
L 382.568105 164.074667 
L 383.532903 202.901333 
L 384.015302 223.808 
L 384.497701 211.861333 
L 384.9801 205.888 
L 385.462499 214.848 
L 385.944898 167.061333 
L 386.427297 161.088 
L 386.909696 173.034667 
L 387.874494 241.728 
L 388.356893 250.688 
L 388.839292 241.728 
L 389.321691 226.794667 
L 389.80409 229.781333 
L 390.286489 199.914667 
L 390.768888 196.928 
L 391.251287 167.061333 
L 391.733686 158.101333 
L 392.216085 125.248 
L 392.698484 119.274667 
L 393.180883 116.288 
L 393.663282 122.261333 
L 394.628081 110.314667 
L 395.11048 143.168 
L 395.592879 122.261333 
L 396.075278 107.328 
L 396.557677 146.154667 
L 397.040076 140.181333 
L 397.522475 170.048 
L 398.004874 146.154667 
L 398.487273 137.194667 
L 398.487273 137.194667 
" clip-path="url(#p8f753ba0ad)" style="fill: none; stroke: #1f77b4; stroke-width: 1.5; stroke-linecap: square"/>
   </g>
   <g id="patch_3">
    <path d="M 57.6 307.584 
L 57.6 41.472 
" style="fill: none; stroke: #000000; stroke-width: 0.8; stroke-linejoin: miter; stroke-linecap: square"/>
   </g>
   <g id="patch_4">
    <path d="M 414.72 307.584 
L 414.72 41.472 
" style="fill: none; stroke: #000000; stroke-width: 0.8; stroke-linejoin: miter; stroke-linecap: square"/>
   </g>
   <g id="patch_5">
    <path d="M 57.6 307.584 
L 414.72 307.584 
" style="fill: none; stroke: #000000; stroke-width: 0.8; stroke-linejoin: miter; stroke-linecap: square"/>
   </g>
   <g id="patch_6">
    <path d="M 57.6 41.472 
L 414.72 41.472 
" style="fill: none; stroke: #000000; stroke-width: 0.8; stroke-linejoin: miter; stroke-linecap: square"/>
   </g>
   <g id="text_20">
    <!-- Simulated Anealling Cost -->
    <g transform="translate(160.8 35.472)scale(0.12 -0.12)">
     <defs>
      <path id="DejaVuSans-53" d="M 3425 4513 
L 3425 3897 
Q 3066 4069 2747 4153 
Q 2428 4238 2131 4238 
Q 1616 4238 1336 4038 
Q 1056 3838 1056 3469 
Q 1056 3159 1242 3001 
Q 1428 2844 1947 2747 
L 2328 2669 
Q 3034 2534 3370 2195 
Q 3706 1856 3706 1288 
Q 3706 609 3251 259 
Q 2797 -91 1919 -91 
Q 1588 -91 1214 -16 
Q 841 59 441 206 
L 441 856 
Q 825 641 1194 531 
Q 1563 422 1919 422 
Q 2459 422 2753 634 
Q 3047 847 3047 1241 
Q 3047 1584 2836 1778 
Q 2625 1972 2144 2069 
L 1759 2144 
Q 1053 2284 737 2584 
Q 422 2884 422 3419 
Q 422 4038 858 4394 
Q 1294 4750 2059 4750 
Q 2388 4750 2728 4690 
Q 3069 4631 3425 4513 
z
" transform="scale(0.015625)"/>
      <path id="DejaVuSans-69" d="M 603 3500 
L 1178 3500 
L 1178 0 
L 603 0 
L 603 3500 
z
M 603 4863 
L 1178 4863 
L 1178 4134 
L 603 4134 
L 603 4863 
z
" transform="scale(0.015625)"/>
      <path id="DejaVuSans-65" d="M 3597 1894 
L 3597 1613 
L 953 1613 
Q 991 1019 1311 708 
Q 1631 397 2203 397 
Q 2534 397 2845 478 
Q 3156 559 3463 722 
L 3463 178 
Q 3153 47 2828 -22 
Q 2503 -91 2169 -91 
Q 1331 -91 842 396 
Q 353 884 353 1716 
Q 353 2575 817 3079 
Q 1281 3584 2069 3584 
Q 2775 3584 3186 3129 
Q 3597 2675 3597 1894 
z
M 3022 2063 
Q 3016 2534 2758 2815 
Q 2500 3097 2075 3097 
Q 1594 3097 1305 2825 
Q 1016 2553 972 2059 
L 3022 2063 
z
" transform="scale(0.015625)"/>
      <path id="DejaVuSans-64" d="M 2906 2969 
L 2906 4863 
L 3481 4863 
L 3481 0 
L 2906 0 
L 2906 525 
Q 2725 213 2448 61 
Q 2172 -91 1784 -91 
Q 1150 -91 751 415 
Q 353 922 353 1747 
Q 353 2572 751 3078 
Q 1150 3584 1784 3584 
Q 2172 3584 2448 3432 
Q 2725 3281 2906 2969 
z
M 947 1747 
Q 947 1113 1208 752 
Q 1469 391 1925 391 
Q 2381 391 2643 752 
Q 2906 1113 2906 1747 
Q 2906 2381 2643 2742 
Q 2381 3103 1925 3103 
Q 1469 3103 1208 2742 
Q 947 2381 947 1747 
z
" transform="scale(0.015625)"/>
      <path id="DejaVuSans-41" d="M 2188 4044 
L 1331 1722 
L 3047 1722 
L 2188 4044 
z
M 1831 4666 
L 2547 4666 
L 4325 0 
L 3669 0 
L 3244 1197 
L 1141 1197 
L 716 0 
L 50 0 
L 1831 4666 
z
" transform="scale(0.015625)"/>
      <path id="DejaVuSans-67" d="M 2906 1791 
Q 2906 2416 2648 2759 
Q 2391 3103 1925 3103 
Q 1463 3103 1205 2759 
Q 947 2416 947 1791 
Q 947 1169 1205 825 
Q 1463 481 1925 481 
Q 2391 481 2648 825 
Q 2906 1169 2906 1791 
z
M 3481 434 
Q 3481 -459 3084 -895 
Q 2688 -1331 1869 -1331 
Q 1566 -1331 1297 -1286 
Q 1028 -1241 775 -1147 
L 775 -588 
Q 1028 -725 1275 -790 
Q 1522 -856 1778 -856 
Q 2344 -856 2625 -561 
Q 2906 -266 2906 331 
L 2906 616 
Q 2728 306 2450 153 
Q 2172 0 1784 0 
Q 1141 0 747 490 
Q 353 981 353 1791 
Q 353 2603 747 3093 
Q 1141 3584 1784 3584 
Q 2172 3584 2450 3431 
Q 2728 3278 2906 2969 
L 2906 3500 
L 3481 3500 
L 3481 434 
z
" transform="scale(0.015625)"/>
      <path id="DejaVuSans-43" d="M 4122 4306 
L 4122 3641 
Q 3803 3938 3442 4084 
Q 3081 4231 2675 4231 
Q 1875 4231 1450 3742 
Q 1025 3253 1025 2328 
Q 1025 1406 1450 917 
Q 1875 428 2675 428 
Q 3081 428 3442 575 
Q 3803 722 4122 1019 
L 4122 359 
Q 3791 134 3420 21 
Q 3050 -91 2638 -91 
Q 1578 -91 968 557 
Q 359 1206 359 2328 
Q 359 3453 968 4101 
Q 1578 4750 2638 4750 
Q 3056 4750 3426 4639 
Q 3797 4528 4122 4306 
z
" transform="scale(0.015625)"/>
     </defs>
     <use xlink:href="#DejaVuSans-53"/>
     <use xlink:href="#DejaVuSans-69" x="63.476562"/>
     <use xlink:href="#DejaVuSans-6d" x="91.259766"/>
     <use xlink:href="#DejaVuSans-75" x="188.671875"/>
     <use xlink:href="#DejaVuSans-6c" x="252.050781"/>
     <use xlink:href="#DejaVuSans-61" x="279.833984"/>
     <use xlink:href="#DejaVuSans-74" x="341.113281"/>
     <use xlink:href="#DejaVuSans-65" x="380.322266"/>
     <use xlink:href="#DejaVuSans-64" x="441.845703"/>
     <use xlink:href="#DejaVuSans-20" x="505.322266"/>
     <use xlink:href="#DejaVuSans-41" x="537.109375"/>
     <use xlink:href="#DejaVuSans-6e" x="605.517578"/>
     <use xlink:href="#DejaVuSans-65" x="668.896484"/>
     <use xlink:href="#DejaVuSans-61" x="730.419922"/>
     <use xlink:href="#DejaVuSans-6c" x="791.699219"/>
     <use xlink:href="#DejaVuSans-6c" x="819.482422"/>
     <use xlink:href="#DejaVuSans-69" x="847.265625"/>
     <use xlink:href="#DejaVuSans-6e" x="875.048828"/>
     <use xlink:href="#DejaVuSans-67" x="938.427734"/>
     <use xlink:href="#DejaVuSans-20" x="1001.904297"/>
     <use xlink:href="#DejaVuSans-43" x="1033.691406"/>
     <use xlink:href="#DejaVuSans-6f" x="1103.515625"/>
     <use xlink:href="#DejaVuSans-73" x="1164.697266"/>
     <use xlink:href="#DejaVuSans-74" x="1216.796875"/>
    </g>
   </g>
  </g>
 </g>
 <defs>
  <clipPath id="p8f753ba0ad">
   <rect x="57.6" y="41.472" width="357.12" height="266.112"/>
  </clipPath>
 </defs>
</svg>
