<?xml version="1.0" encoding="utf-8" standalone="no"?>
<!DOCTYPE svg PUBLIC "-//W3C//DTD SVG 1.1//EN"
  "http://www.w3.org/Graphics/SVG/1.1/DTD/svg11.dtd">
<svg xmlns:xlink="http://www.w3.org/1999/xlink" width="460.8pt" height="345.6pt" viewBox="0 0 460.8 345.6" xmlns="http://www.w3.org/2000/svg" version="1.1">
 <metadata>
  <rdf:RDF xmlns:dc="http://purl.org/dc/elements/1.1/" xmlns:cc="http://creativecommons.org/ns#" xmlns:rdf="http://www.w3.org/1999/02/22-rdf-syntax-ns#">
   <cc:Work>
    <dc:type rdf:resource="http://purl.org/dc/dcmitype/StillImage"/>
    <dc:date>2022-06-01T08:04:19.286232</dc:date>
    <dc:format>image/svg+xml</dc:format>
    <dc:creator>
     <cc:Agent>
      <dc:title>Matplotlib v3.5.1, https://matplotlib.org/</dc:title>
     </cc:Agent>
    </dc:creator>
   </cc:Work>
  </rdf:RDF>
 </metadata>
 <defs>
  <style type="text/css">*{stroke-linejoin: round; stroke-linecap: butt}</style>
 </defs>
 <g id="figure_1">
  <g id="patch_1">
   <path d="M 0 345.6 
L 460.8 345.6 
L 460.8 0 
L 0 0 
z
" style="fill: #ffffff"/>
  </g>
  <g id="axes_1">
   <g id="patch_2">
    <path d="M 57.6 307.584 
L 414.72 307.584 
L 414.72 41.472 
L 57.6 41.472 
z
" style="fill: #ffffff"/>
   </g>
   <g id="matplotlib.axis_1">
    <g id="xtick_1">
     <g id="line2d_1">
      <defs>
       <path id="m5aebeb686e" d="M 0 0 
L 0 3.5 
" style="stroke: #000000; stroke-width: 0.8"/>
      </defs>
      <g>
       <use xlink:href="#m5aebeb686e" x="73.832727" y="307.584" style="stroke: #000000; stroke-width: 0.8"/>
      </g>
     </g>
     <g id="text_1">
      <!-- 0 -->
      <g transform="translate(70.651477 322.182437)scale(0.1 -0.1)">
       <defs>
        <path id="DejaVuSans-30" d="M 2034 4250 
Q 1547 4250 1301 3770 
Q 1056 3291 1056 2328 
Q 1056 1369 1301 889 
Q 1547 409 2034 409 
Q 2525 409 2770 889 
Q 3016 1369 3016 2328 
Q 3016 3291 2770 3770 
Q 2525 4250 2034 4250 
z
M 2034 4750 
Q 2819 4750 3233 4129 
Q 3647 3509 3647 2328 
Q 3647 1150 3233 529 
Q 2819 -91 2034 -91 
Q 1250 -91 836 529 
Q 422 1150 422 2328 
Q 422 3509 836 4129 
Q 1250 4750 2034 4750 
z
" transform="scale(0.015625)"/>
       </defs>
       <use xlink:href="#DejaVuSans-30"/>
      </g>
     </g>
    </g>
    <g id="xtick_2">
     <g id="line2d_2">
      <g>
       <use xlink:href="#m5aebeb686e" x="125.944211" y="307.584" style="stroke: #000000; stroke-width: 0.8"/>
      </g>
     </g>
     <g id="text_2">
      <!-- 200 -->
      <g transform="translate(116.400461 322.182437)scale(0.1 -0.1)">
       <defs>
        <path id="DejaVuSans-32" d="M 1228 531 
L 3431 531 
L 3431 0 
L 469 0 
L 469 531 
Q 828 903 1448 1529 
Q 2069 2156 2228 2338 
Q 2531 2678 2651 2914 
Q 2772 3150 2772 3378 
Q 2772 3750 2511 3984 
Q 2250 4219 1831 4219 
Q 1534 4219 1204 4116 
Q 875 4013 500 3803 
L 500 4441 
Q 881 4594 1212 4672 
Q 1544 4750 1819 4750 
Q 2544 4750 2975 4387 
Q 3406 4025 3406 3419 
Q 3406 3131 3298 2873 
Q 3191 2616 2906 2266 
Q 2828 2175 2409 1742 
Q 1991 1309 1228 531 
z
" transform="scale(0.015625)"/>
       </defs>
       <use xlink:href="#DejaVuSans-32"/>
       <use xlink:href="#DejaVuSans-30" x="63.623047"/>
       <use xlink:href="#DejaVuSans-30" x="127.246094"/>
      </g>
     </g>
    </g>
    <g id="xtick_3">
     <g id="line2d_3">
      <g>
       <use xlink:href="#m5aebeb686e" x="178.055695" y="307.584" style="stroke: #000000; stroke-width: 0.8"/>
      </g>
     </g>
     <g id="text_3">
      <!-- 400 -->
      <g transform="translate(168.511945 322.182437)scale(0.1 -0.1)">
       <defs>
        <path id="DejaVuSans-34" d="M 2419 4116 
L 825 1625 
L 2419 1625 
L 2419 4116 
z
M 2253 4666 
L 3047 4666 
L 3047 1625 
L 3713 1625 
L 3713 1100 
L 3047 1100 
L 3047 0 
L 2419 0 
L 2419 1100 
L 313 1100 
L 313 1709 
L 2253 4666 
z
" transform="scale(0.015625)"/>
       </defs>
       <use xlink:href="#DejaVuSans-34"/>
       <use xlink:href="#DejaVuSans-30" x="63.623047"/>
       <use xlink:href="#DejaVuSans-30" x="127.246094"/>
      </g>
     </g>
    </g>
    <g id="xtick_4">
     <g id="line2d_4">
      <g>
       <use xlink:href="#m5aebeb686e" x="230.167179" y="307.584" style="stroke: #000000; stroke-width: 0.8"/>
      </g>
     </g>
     <g id="text_4">
      <!-- 600 -->
      <g transform="translate(220.623429 322.182437)scale(0.1 -0.1)">
       <defs>
        <path id="DejaVuSans-36" d="M 2113 2584 
Q 1688 2584 1439 2293 
Q 1191 2003 1191 1497 
Q 1191 994 1439 701 
Q 1688 409 2113 409 
Q 2538 409 2786 701 
Q 3034 994 3034 1497 
Q 3034 2003 2786 2293 
Q 2538 2584 2113 2584 
z
M 3366 4563 
L 3366 3988 
Q 3128 4100 2886 4159 
Q 2644 4219 2406 4219 
Q 1781 4219 1451 3797 
Q 1122 3375 1075 2522 
Q 1259 2794 1537 2939 
Q 1816 3084 2150 3084 
Q 2853 3084 3261 2657 
Q 3669 2231 3669 1497 
Q 3669 778 3244 343 
Q 2819 -91 2113 -91 
Q 1303 -91 875 529 
Q 447 1150 447 2328 
Q 447 3434 972 4092 
Q 1497 4750 2381 4750 
Q 2619 4750 2861 4703 
Q 3103 4656 3366 4563 
z
" transform="scale(0.015625)"/>
       </defs>
       <use xlink:href="#DejaVuSans-36"/>
       <use xlink:href="#DejaVuSans-30" x="63.623047"/>
       <use xlink:href="#DejaVuSans-30" x="127.246094"/>
      </g>
     </g>
    </g>
    <g id="xtick_5">
     <g id="line2d_5">
      <g>
       <use xlink:href="#m5aebeb686e" x="282.278663" y="307.584" style="stroke: #000000; stroke-width: 0.8"/>
      </g>
     </g>
     <g id="text_5">
      <!-- 800 -->
      <g transform="translate(272.734913 322.182437)scale(0.1 -0.1)">
       <defs>
        <path id="DejaVuSans-38" d="M 2034 2216 
Q 1584 2216 1326 1975 
Q 1069 1734 1069 1313 
Q 1069 891 1326 650 
Q 1584 409 2034 409 
Q 2484 409 2743 651 
Q 3003 894 3003 1313 
Q 3003 1734 2745 1975 
Q 2488 2216 2034 2216 
z
M 1403 2484 
Q 997 2584 770 2862 
Q 544 3141 544 3541 
Q 544 4100 942 4425 
Q 1341 4750 2034 4750 
Q 2731 4750 3128 4425 
Q 3525 4100 3525 3541 
Q 3525 3141 3298 2862 
Q 3072 2584 2669 2484 
Q 3125 2378 3379 2068 
Q 3634 1759 3634 1313 
Q 3634 634 3220 271 
Q 2806 -91 2034 -91 
Q 1263 -91 848 271 
Q 434 634 434 1313 
Q 434 1759 690 2068 
Q 947 2378 1403 2484 
z
M 1172 3481 
Q 1172 3119 1398 2916 
Q 1625 2713 2034 2713 
Q 2441 2713 2670 2916 
Q 2900 3119 2900 3481 
Q 2900 3844 2670 4047 
Q 2441 4250 2034 4250 
Q 1625 4250 1398 4047 
Q 1172 3844 1172 3481 
z
" transform="scale(0.015625)"/>
       </defs>
       <use xlink:href="#DejaVuSans-38"/>
       <use xlink:href="#DejaVuSans-30" x="63.623047"/>
       <use xlink:href="#DejaVuSans-30" x="127.246094"/>
      </g>
     </g>
    </g>
    <g id="xtick_6">
     <g id="line2d_6">
      <g>
       <use xlink:href="#m5aebeb686e" x="334.390147" y="307.584" style="stroke: #000000; stroke-width: 0.8"/>
      </g>
     </g>
     <g id="text_6">
      <!-- 1000 -->
      <g transform="translate(321.665147 322.182437)scale(0.1 -0.1)">
       <defs>
        <path id="DejaVuSans-31" d="M 794 531 
L 1825 531 
L 1825 4091 
L 703 3866 
L 703 4441 
L 1819 4666 
L 2450 4666 
L 2450 531 
L 3481 531 
L 3481 0 
L 794 0 
L 794 531 
z
" transform="scale(0.015625)"/>
       </defs>
       <use xlink:href="#DejaVuSans-31"/>
       <use xlink:href="#DejaVuSans-30" x="63.623047"/>
       <use xlink:href="#DejaVuSans-30" x="127.246094"/>
       <use xlink:href="#DejaVuSans-30" x="190.869141"/>
      </g>
     </g>
    </g>
    <g id="xtick_7">
     <g id="line2d_7">
      <g>
       <use xlink:href="#m5aebeb686e" x="386.501631" y="307.584" style="stroke: #000000; stroke-width: 0.8"/>
      </g>
     </g>
     <g id="text_7">
      <!-- 1200 -->
      <g transform="translate(373.776631 322.182437)scale(0.1 -0.1)">
       <use xlink:href="#DejaVuSans-31"/>
       <use xlink:href="#DejaVuSans-32" x="63.623047"/>
       <use xlink:href="#DejaVuSans-30" x="127.246094"/>
       <use xlink:href="#DejaVuSans-30" x="190.869141"/>
      </g>
     </g>
    </g>
    <g id="text_8">
     <!-- num swaps -->
     <g transform="translate(207.826406 335.860562)scale(0.1 -0.1)">
      <defs>
       <path id="DejaVuSans-6e" d="M 3513 2113 
L 3513 0 
L 2938 0 
L 2938 2094 
Q 2938 2591 2744 2837 
Q 2550 3084 2163 3084 
Q 1697 3084 1428 2787 
Q 1159 2491 1159 1978 
L 1159 0 
L 581 0 
L 581 3500 
L 1159 3500 
L 1159 2956 
Q 1366 3272 1645 3428 
Q 1925 3584 2291 3584 
Q 2894 3584 3203 3211 
Q 3513 2838 3513 2113 
z
" transform="scale(0.015625)"/>
       <path id="DejaVuSans-75" d="M 544 1381 
L 544 3500 
L 1119 3500 
L 1119 1403 
Q 1119 906 1312 657 
Q 1506 409 1894 409 
Q 2359 409 2629 706 
Q 2900 1003 2900 1516 
L 2900 3500 
L 3475 3500 
L 3475 0 
L 2900 0 
L 2900 538 
Q 2691 219 2414 64 
Q 2138 -91 1772 -91 
Q 1169 -91 856 284 
Q 544 659 544 1381 
z
M 1991 3584 
L 1991 3584 
z
" transform="scale(0.015625)"/>
       <path id="DejaVuSans-6d" d="M 3328 2828 
Q 3544 3216 3844 3400 
Q 4144 3584 4550 3584 
Q 5097 3584 5394 3201 
Q 5691 2819 5691 2113 
L 5691 0 
L 5113 0 
L 5113 2094 
Q 5113 2597 4934 2840 
Q 4756 3084 4391 3084 
Q 3944 3084 3684 2787 
Q 3425 2491 3425 1978 
L 3425 0 
L 2847 0 
L 2847 2094 
Q 2847 2600 2669 2842 
Q 2491 3084 2119 3084 
Q 1678 3084 1418 2786 
Q 1159 2488 1159 1978 
L 1159 0 
L 581 0 
L 581 3500 
L 1159 3500 
L 1159 2956 
Q 1356 3278 1631 3431 
Q 1906 3584 2284 3584 
Q 2666 3584 2933 3390 
Q 3200 3197 3328 2828 
z
" transform="scale(0.015625)"/>
       <path id="DejaVuSans-20" transform="scale(0.015625)"/>
       <path id="DejaVuSans-73" d="M 2834 3397 
L 2834 2853 
Q 2591 2978 2328 3040 
Q 2066 3103 1784 3103 
Q 1356 3103 1142 2972 
Q 928 2841 928 2578 
Q 928 2378 1081 2264 
Q 1234 2150 1697 2047 
L 1894 2003 
Q 2506 1872 2764 1633 
Q 3022 1394 3022 966 
Q 3022 478 2636 193 
Q 2250 -91 1575 -91 
Q 1294 -91 989 -36 
Q 684 19 347 128 
L 347 722 
Q 666 556 975 473 
Q 1284 391 1588 391 
Q 1994 391 2212 530 
Q 2431 669 2431 922 
Q 2431 1156 2273 1281 
Q 2116 1406 1581 1522 
L 1381 1569 
Q 847 1681 609 1914 
Q 372 2147 372 2553 
Q 372 3047 722 3315 
Q 1072 3584 1716 3584 
Q 2034 3584 2315 3537 
Q 2597 3491 2834 3397 
z
" transform="scale(0.015625)"/>
       <path id="DejaVuSans-77" d="M 269 3500 
L 844 3500 
L 1563 769 
L 2278 3500 
L 2956 3500 
L 3675 769 
L 4391 3500 
L 4966 3500 
L 4050 0 
L 3372 0 
L 2619 2869 
L 1863 0 
L 1184 0 
L 269 3500 
z
" transform="scale(0.015625)"/>
       <path id="DejaVuSans-61" d="M 2194 1759 
Q 1497 1759 1228 1600 
Q 959 1441 959 1056 
Q 959 750 1161 570 
Q 1363 391 1709 391 
Q 2188 391 2477 730 
Q 2766 1069 2766 1631 
L 2766 1759 
L 2194 1759 
z
M 3341 1997 
L 3341 0 
L 2766 0 
L 2766 531 
Q 2569 213 2275 61 
Q 1981 -91 1556 -91 
Q 1019 -91 701 211 
Q 384 513 384 1019 
Q 384 1609 779 1909 
Q 1175 2209 1959 2209 
L 2766 2209 
L 2766 2266 
Q 2766 2663 2505 2880 
Q 2244 3097 1772 3097 
Q 1472 3097 1187 3025 
Q 903 2953 641 2809 
L 641 3341 
Q 956 3463 1253 3523 
Q 1550 3584 1831 3584 
Q 2591 3584 2966 3190 
Q 3341 2797 3341 1997 
z
" transform="scale(0.015625)"/>
       <path id="DejaVuSans-70" d="M 1159 525 
L 1159 -1331 
L 581 -1331 
L 581 3500 
L 1159 3500 
L 1159 2969 
Q 1341 3281 1617 3432 
Q 1894 3584 2278 3584 
Q 2916 3584 3314 3078 
Q 3713 2572 3713 1747 
Q 3713 922 3314 415 
Q 2916 -91 2278 -91 
Q 1894 -91 1617 61 
Q 1341 213 1159 525 
z
M 3116 1747 
Q 3116 2381 2855 2742 
Q 2594 3103 2138 3103 
Q 1681 3103 1420 2742 
Q 1159 2381 1159 1747 
Q 1159 1113 1420 752 
Q 1681 391 2138 391 
Q 2594 391 2855 752 
Q 3116 1113 3116 1747 
z
" transform="scale(0.015625)"/>
      </defs>
      <use xlink:href="#DejaVuSans-6e"/>
      <use xlink:href="#DejaVuSans-75" x="63.378906"/>
      <use xlink:href="#DejaVuSans-6d" x="126.757812"/>
      <use xlink:href="#DejaVuSans-20" x="224.169922"/>
      <use xlink:href="#DejaVuSans-73" x="255.957031"/>
      <use xlink:href="#DejaVuSans-77" x="308.056641"/>
      <use xlink:href="#DejaVuSans-61" x="389.84375"/>
      <use xlink:href="#DejaVuSans-70" x="451.123047"/>
      <use xlink:href="#DejaVuSans-73" x="514.599609"/>
     </g>
    </g>
   </g>
   <g id="matplotlib.axis_2">
    <g id="ytick_1">
     <g id="line2d_8">
      <defs>
       <path id="mb391632cee" d="M 0 0 
L -3.5 0 
" style="stroke: #000000; stroke-width: 0.8"/>
      </defs>
      <g>
       <use xlink:href="#mb391632cee" x="57.6" y="271.886049" style="stroke: #000000; stroke-width: 0.8"/>
      </g>
     </g>
     <g id="text_9">
      <!-- 500 -->
      <g transform="translate(31.5125 275.685268)scale(0.1 -0.1)">
       <defs>
        <path id="DejaVuSans-35" d="M 691 4666 
L 3169 4666 
L 3169 4134 
L 1269 4134 
L 1269 2991 
Q 1406 3038 1543 3061 
Q 1681 3084 1819 3084 
Q 2600 3084 3056 2656 
Q 3513 2228 3513 1497 
Q 3513 744 3044 326 
Q 2575 -91 1722 -91 
Q 1428 -91 1123 -41 
Q 819 9 494 109 
L 494 744 
Q 775 591 1075 516 
Q 1375 441 1709 441 
Q 2250 441 2565 725 
Q 2881 1009 2881 1497 
Q 2881 1984 2565 2268 
Q 2250 2553 1709 2553 
Q 1456 2553 1204 2497 
Q 953 2441 691 2322 
L 691 4666 
z
" transform="scale(0.015625)"/>
       </defs>
       <use xlink:href="#DejaVuSans-35"/>
       <use xlink:href="#DejaVuSans-30" x="63.623047"/>
       <use xlink:href="#DejaVuSans-30" x="127.246094"/>
      </g>
     </g>
    </g>
    <g id="ytick_2">
     <g id="line2d_9">
      <g>
       <use xlink:href="#mb391632cee" x="57.6" y="212.881171" style="stroke: #000000; stroke-width: 0.8"/>
      </g>
     </g>
     <g id="text_10">
      <!-- 520 -->
      <g transform="translate(31.5125 216.680389)scale(0.1 -0.1)">
       <use xlink:href="#DejaVuSans-35"/>
       <use xlink:href="#DejaVuSans-32" x="63.623047"/>
       <use xlink:href="#DejaVuSans-30" x="127.246094"/>
      </g>
     </g>
    </g>
    <g id="ytick_3">
     <g id="line2d_10">
      <g>
       <use xlink:href="#mb391632cee" x="57.6" y="153.876293" style="stroke: #000000; stroke-width: 0.8"/>
      </g>
     </g>
     <g id="text_11">
      <!-- 540 -->
      <g transform="translate(31.5125 157.675511)scale(0.1 -0.1)">
       <use xlink:href="#DejaVuSans-35"/>
       <use xlink:href="#DejaVuSans-34" x="63.623047"/>
       <use xlink:href="#DejaVuSans-30" x="127.246094"/>
      </g>
     </g>
    </g>
    <g id="ytick_4">
     <g id="line2d_11">
      <g>
       <use xlink:href="#mb391632cee" x="57.6" y="94.871415" style="stroke: #000000; stroke-width: 0.8"/>
      </g>
     </g>
     <g id="text_12">
      <!-- 560 -->
      <g transform="translate(31.5125 98.670633)scale(0.1 -0.1)">
       <use xlink:href="#DejaVuSans-35"/>
       <use xlink:href="#DejaVuSans-36" x="63.623047"/>
       <use xlink:href="#DejaVuSans-30" x="127.246094"/>
      </g>
     </g>
    </g>
    <g id="text_13">
     <!-- total cost -->
     <g transform="translate(25.432812 197.923313)rotate(-90)scale(0.1 -0.1)">
      <defs>
       <path id="DejaVuSans-74" d="M 1172 4494 
L 1172 3500 
L 2356 3500 
L 2356 3053 
L 1172 3053 
L 1172 1153 
Q 1172 725 1289 603 
Q 1406 481 1766 481 
L 2356 481 
L 2356 0 
L 1766 0 
Q 1100 0 847 248 
Q 594 497 594 1153 
L 594 3053 
L 172 3053 
L 172 3500 
L 594 3500 
L 594 4494 
L 1172 4494 
z
" transform="scale(0.015625)"/>
       <path id="DejaVuSans-6f" d="M 1959 3097 
Q 1497 3097 1228 2736 
Q 959 2375 959 1747 
Q 959 1119 1226 758 
Q 1494 397 1959 397 
Q 2419 397 2687 759 
Q 2956 1122 2956 1747 
Q 2956 2369 2687 2733 
Q 2419 3097 1959 3097 
z
M 1959 3584 
Q 2709 3584 3137 3096 
Q 3566 2609 3566 1747 
Q 3566 888 3137 398 
Q 2709 -91 1959 -91 
Q 1206 -91 779 398 
Q 353 888 353 1747 
Q 353 2609 779 3096 
Q 1206 3584 1959 3584 
z
" transform="scale(0.015625)"/>
       <path id="DejaVuSans-6c" d="M 603 4863 
L 1178 4863 
L 1178 0 
L 603 0 
L 603 4863 
z
" transform="scale(0.015625)"/>
       <path id="DejaVuSans-63" d="M 3122 3366 
L 3122 2828 
Q 2878 2963 2633 3030 
Q 2388 3097 2138 3097 
Q 1578 3097 1268 2742 
Q 959 2388 959 1747 
Q 959 1106 1268 751 
Q 1578 397 2138 397 
Q 2388 397 2633 464 
Q 2878 531 3122 666 
L 3122 134 
Q 2881 22 2623 -34 
Q 2366 -91 2075 -91 
Q 1284 -91 818 406 
Q 353 903 353 1747 
Q 353 2603 823 3093 
Q 1294 3584 2113 3584 
Q 2378 3584 2631 3529 
Q 2884 3475 3122 3366 
z
" transform="scale(0.015625)"/>
      </defs>
      <use xlink:href="#DejaVuSans-74"/>
      <use xlink:href="#DejaVuSans-6f" x="39.208984"/>
      <use xlink:href="#DejaVuSans-74" x="100.390625"/>
      <use xlink:href="#DejaVuSans-61" x="139.599609"/>
      <use xlink:href="#DejaVuSans-6c" x="200.878906"/>
      <use xlink:href="#DejaVuSans-20" x="228.662109"/>
      <use xlink:href="#DejaVuSans-63" x="260.449219"/>
      <use xlink:href="#DejaVuSans-6f" x="315.429688"/>
      <use xlink:href="#DejaVuSans-73" x="376.611328"/>
      <use xlink:href="#DejaVuSans-74" x="428.710938"/>
     </g>
    </g>
   </g>
   <g id="line2d_12">
    <path d="M 73.832727 83.070439 
L 74.874957 94.871415 
L 75.396072 86.020683 
L 75.917187 68.31922 
L 76.959416 68.31922 
L 77.480531 62.418732 
L 78.001646 77.169951 
L 78.522761 74.219707 
L 79.043876 53.568 
L 79.564991 88.970927 
L 80.086105 80.120195 
L 80.60722 94.871415 
L 81.128335 97.821659 
L 81.64945 91.921171 
L 82.170565 77.169951 
L 82.69168 86.020683 
L 83.212794 80.120195 
L 83.733909 109.622634 
L 84.255024 91.921171 
L 85.297254 97.821659 
L 85.818369 94.871415 
L 86.860598 94.871415 
L 87.381713 77.169951 
L 87.902828 103.722146 
L 88.945058 103.722146 
L 89.466172 127.324098 
L 89.987287 133.224585 
L 90.508402 127.324098 
L 91.029517 139.125073 
L 91.550632 136.174829 
L 92.071747 150.926049 
L 92.592862 147.975805 
L 93.113976 147.975805 
L 93.635091 150.926049 
L 94.156206 130.274341 
L 95.198436 162.727024 
L 95.719551 165.677268 
L 96.240665 177.478244 
L 96.76178 177.478244 
L 97.282895 168.627512 
L 97.80401 156.826537 
L 98.325125 168.627512 
L 98.84624 174.528 
L 99.367354 177.478244 
L 99.888469 153.876293 
L 100.409584 150.926049 
L 100.930699 142.075317 
L 101.451814 145.025561 
L 101.972929 133.224585 
L 102.494043 127.324098 
L 103.015158 142.075317 
L 103.536273 136.174829 
L 104.057388 115.523122 
L 104.578503 145.025561 
L 105.099618 156.826537 
L 105.620733 162.727024 
L 106.141847 145.025561 
L 107.184077 145.025561 
L 107.705192 139.125073 
L 108.226307 153.876293 
L 108.747422 145.025561 
L 109.268536 156.826537 
L 109.789651 133.224585 
L 110.310766 159.77678 
L 110.831881 165.677268 
L 111.352996 212.881171 
L 111.874111 209.930927 
L 112.395225 201.080195 
L 113.437455 156.826537 
L 114.479685 162.727024 
L 115.0008 156.826537 
L 115.521914 165.677268 
L 116.564144 106.67239 
L 117.085259 112.572878 
L 117.606374 97.821659 
L 118.127489 124.373854 
L 119.169718 142.075317 
L 119.690833 124.373854 
L 120.211948 124.373854 
L 120.733063 139.125073 
L 121.775293 133.224585 
L 122.296407 133.224585 
L 122.817522 168.627512 
L 123.338637 156.826537 
L 123.859752 171.577756 
L 124.380867 177.478244 
L 124.901982 165.677268 
L 125.944211 136.174829 
L 126.465326 130.274341 
L 126.986441 136.174829 
L 127.507556 127.324098 
L 128.028671 136.174829 
L 128.549785 147.975805 
L 129.0709 136.174829 
L 129.592015 153.876293 
L 130.11313 133.224585 
L 130.634245 145.025561 
L 131.15536 153.876293 
L 131.676475 180.428488 
L 132.197589 162.727024 
L 133.239819 168.627512 
L 133.760934 174.528 
L 134.282049 192.229463 
L 134.803164 159.77678 
L 135.324278 142.075317 
L 135.845393 153.876293 
L 136.887623 159.77678 
L 137.408738 156.826537 
L 138.450967 168.627512 
L 138.972082 180.428488 
L 139.493197 183.378732 
L 140.014312 183.378732 
L 140.535427 192.229463 
L 141.056542 177.478244 
L 141.577657 221.731902 
L 142.098771 215.831415 
L 142.619886 201.080195 
L 143.141001 195.179707 
L 145.22546 230.582634 
L 145.746575 230.582634 
L 146.26769 215.831415 
L 146.788805 221.731902 
L 147.30992 233.532878 
L 147.831035 201.080195 
L 148.352149 180.428488 
L 148.873264 165.677268 
L 149.394379 171.577756 
L 149.915494 174.528 
L 150.957724 192.229463 
L 151.478838 142.075317 
L 151.999953 168.627512 
L 152.521068 159.77678 
L 153.563298 127.324098 
L 154.084413 168.627512 
L 154.605528 168.627512 
L 155.126642 142.075317 
L 155.647757 150.926049 
L 156.168872 142.075317 
L 156.689987 145.025561 
L 157.211102 159.77678 
L 158.253331 165.677268 
L 159.295561 112.572878 
L 159.816676 124.373854 
L 160.337791 139.125073 
L 161.38002 121.42361 
L 161.901135 139.125073 
L 162.943365 145.025561 
L 163.46448 139.125073 
L 163.985595 156.826537 
L 164.506709 168.627512 
L 165.027824 183.378732 
L 165.548939 159.77678 
L 166.070054 177.478244 
L 166.591169 174.528 
L 167.112284 195.179707 
L 167.633399 201.080195 
L 168.154513 198.129951 
L 168.675628 189.27922 
L 169.196743 212.881171 
L 169.717858 195.179707 
L 170.238973 201.080195 
L 170.760088 189.27922 
L 171.281202 192.229463 
L 171.802317 177.478244 
L 172.323432 174.528 
L 172.844547 189.27922 
L 173.886777 150.926049 
L 174.407891 147.975805 
L 174.929006 162.727024 
L 175.450121 145.025561 
L 175.971236 150.926049 
L 176.492351 177.478244 
L 177.013466 159.77678 
L 177.53458 150.926049 
L 178.055695 147.975805 
L 178.57681 147.975805 
L 179.097925 142.075317 
L 180.140155 177.478244 
L 180.66127 180.428488 
L 181.182384 168.627512 
L 181.703499 162.727024 
L 182.224614 159.77678 
L 182.745729 145.025561 
L 183.266844 147.975805 
L 183.787959 153.876293 
L 184.309073 153.876293 
L 184.830188 145.025561 
L 185.351303 133.224585 
L 185.872418 133.224585 
L 186.914648 183.378732 
L 187.435762 195.179707 
L 187.956877 209.930927 
L 188.477992 198.129951 
L 188.999107 201.080195 
L 189.520222 206.980683 
L 190.041337 209.930927 
L 190.562451 201.080195 
L 191.083566 206.980683 
L 191.604681 215.831415 
L 192.125796 198.129951 
L 192.646911 215.831415 
L 193.168026 221.731902 
L 193.689141 212.881171 
L 194.210255 206.980683 
L 194.73137 206.980683 
L 195.252485 212.881171 
L 195.7736 183.378732 
L 196.294715 189.27922 
L 196.81583 218.781659 
L 197.336944 215.831415 
L 197.858059 218.781659 
L 198.379174 224.682146 
L 198.900289 195.179707 
L 199.421404 209.930927 
L 200.463633 209.930927 
L 200.984748 183.378732 
L 201.505863 186.328976 
L 202.026978 180.428488 
L 202.548093 156.826537 
L 203.069208 153.876293 
L 203.590322 147.975805 
L 204.111437 150.926049 
L 204.632552 145.025561 
L 205.153667 150.926049 
L 206.195897 124.373854 
L 206.717012 156.826537 
L 207.238126 139.125073 
L 207.759241 136.174829 
L 208.280356 118.473366 
L 208.801471 118.473366 
L 209.322586 127.324098 
L 209.843701 186.328976 
L 210.364815 201.080195 
L 210.88593 204.030439 
L 211.407045 209.930927 
L 211.92816 201.080195 
L 212.449275 195.179707 
L 212.97039 204.030439 
L 213.491504 177.478244 
L 214.012619 195.179707 
L 214.533734 195.179707 
L 215.054849 201.080195 
L 215.575964 177.478244 
L 216.097079 183.378732 
L 216.618193 174.528 
L 217.139308 174.528 
L 217.660423 189.27922 
L 218.181538 168.627512 
L 218.702653 156.826537 
L 219.223768 162.727024 
L 219.744883 165.677268 
L 220.265997 159.77678 
L 220.787112 159.77678 
L 221.308227 177.478244 
L 221.829342 150.926049 
L 222.871572 133.224585 
L 223.392686 130.274341 
L 223.913801 130.274341 
L 224.434916 142.075317 
L 224.956031 145.025561 
L 225.477146 162.727024 
L 225.998261 168.627512 
L 226.519375 177.478244 
L 227.04049 183.378732 
L 227.561605 192.229463 
L 228.08272 224.682146 
L 228.603835 221.731902 
L 229.12495 215.831415 
L 229.646064 206.980683 
L 230.167179 215.831415 
L 230.688294 227.63239 
L 231.209409 233.532878 
L 231.730524 206.980683 
L 232.251639 198.129951 
L 232.772754 195.179707 
L 233.293868 201.080195 
L 233.814983 198.129951 
L 234.336098 204.030439 
L 235.378328 177.478244 
L 236.420557 171.577756 
L 236.941672 183.378732 
L 237.462787 192.229463 
L 237.983902 192.229463 
L 238.505017 204.030439 
L 239.026132 201.080195 
L 239.547246 195.179707 
L 240.068361 195.179707 
L 240.589476 189.27922 
L 241.631706 171.577756 
L 242.152821 180.428488 
L 242.673936 180.428488 
L 243.19505 189.27922 
L 243.716165 195.179707 
L 244.23728 198.129951 
L 245.27951 198.129951 
L 245.800625 206.980683 
L 246.321739 195.179707 
L 246.842854 168.627512 
L 247.363969 198.129951 
L 247.885084 177.478244 
L 248.406199 189.27922 
L 248.927314 186.328976 
L 249.448428 180.428488 
L 249.969543 177.478244 
L 250.490658 168.627512 
L 251.011773 124.373854 
L 251.532888 115.523122 
L 252.054003 112.572878 
L 252.575117 100.771902 
L 253.096232 115.523122 
L 253.617347 106.67239 
L 255.180692 159.77678 
L 255.701807 156.826537 
L 256.222921 136.174829 
L 256.744036 142.075317 
L 257.265151 177.478244 
L 257.786266 189.27922 
L 258.307381 174.528 
L 258.828496 177.478244 
L 259.34961 201.080195 
L 259.870725 204.030439 
L 260.39184 201.080195 
L 260.912955 221.731902 
L 261.43407 221.731902 
L 261.955185 201.080195 
L 262.476299 192.229463 
L 262.997414 174.528 
L 263.518529 165.677268 
L 264.560759 183.378732 
L 265.081874 150.926049 
L 265.602988 130.274341 
L 266.124103 115.523122 
L 266.645218 130.274341 
L 267.166333 183.378732 
L 268.208563 145.025561 
L 268.729678 174.528 
L 269.250792 168.627512 
L 269.771907 183.378732 
L 270.293022 171.577756 
L 270.814137 150.926049 
L 271.335252 142.075317 
L 271.856367 165.677268 
L 272.377481 142.075317 
L 272.898596 153.876293 
L 273.419711 186.328976 
L 273.940826 186.328976 
L 274.461941 156.826537 
L 274.983056 156.826537 
L 275.50417 183.378732 
L 276.025285 153.876293 
L 276.5464 168.627512 
L 278.109745 142.075317 
L 278.630859 136.174829 
L 279.151974 103.722146 
L 279.673089 112.572878 
L 280.194204 103.722146 
L 280.715319 97.821659 
L 281.757549 130.274341 
L 282.278663 136.174829 
L 282.799778 139.125073 
L 283.320893 156.826537 
L 284.363123 127.324098 
L 284.884238 171.577756 
L 285.405352 162.727024 
L 285.926467 136.174829 
L 286.447582 124.373854 
L 286.968697 115.523122 
L 287.489812 118.473366 
L 288.010927 133.224585 
L 288.532041 156.826537 
L 289.053156 153.876293 
L 289.574271 171.577756 
L 290.095386 174.528 
L 290.616501 162.727024 
L 291.137616 174.528 
L 291.65873 171.577756 
L 292.179845 174.528 
L 292.70096 180.428488 
L 293.222075 183.378732 
L 293.74319 171.577756 
L 294.264305 121.42361 
L 294.78542 136.174829 
L 295.306534 133.224585 
L 295.827649 118.473366 
L 296.348764 145.025561 
L 296.869879 127.324098 
L 297.390994 133.224585 
L 297.912109 142.075317 
L 298.433223 162.727024 
L 298.954338 147.975805 
L 299.475453 142.075317 
L 299.996568 133.224585 
L 300.517683 133.224585 
L 301.038798 156.826537 
L 301.559912 127.324098 
L 302.081027 124.373854 
L 303.644372 124.373854 
L 304.165487 127.324098 
L 304.686601 124.373854 
L 305.207716 139.125073 
L 305.728831 130.274341 
L 306.249946 127.324098 
L 306.771061 121.42361 
L 307.292176 100.771902 
L 308.85552 83.070439 
L 309.376635 86.020683 
L 309.89775 83.070439 
L 310.418865 86.020683 
L 310.93998 97.821659 
L 311.461094 91.921171 
L 311.982209 97.821659 
L 312.503324 100.771902 
L 313.024439 112.572878 
L 313.545554 112.572878 
L 314.066669 103.722146 
L 314.587783 124.373854 
L 315.108898 133.224585 
L 315.630013 139.125073 
L 316.151128 124.373854 
L 316.672243 139.125073 
L 317.714472 112.572878 
L 318.235587 124.373854 
L 318.756702 115.523122 
L 319.277817 118.473366 
L 319.798932 139.125073 
L 320.320047 133.224585 
L 321.362276 133.224585 
L 321.883391 118.473366 
L 322.404506 115.523122 
L 322.925621 124.373854 
L 323.446736 121.42361 
L 323.967851 150.926049 
L 324.488965 147.975805 
L 325.01008 156.826537 
L 325.531195 142.075317 
L 326.05231 106.67239 
L 326.573425 103.722146 
L 327.09454 88.970927 
L 327.615654 115.523122 
L 328.136769 147.975805 
L 328.657884 127.324098 
L 329.178999 147.975805 
L 329.700114 127.324098 
L 330.221229 165.677268 
L 330.742343 168.627512 
L 331.263458 147.975805 
L 331.784573 150.926049 
L 332.305688 162.727024 
L 332.826803 159.77678 
L 333.347918 171.577756 
L 333.869033 165.677268 
L 334.390147 156.826537 
L 334.911262 180.428488 
L 335.432377 165.677268 
L 335.953492 156.826537 
L 336.474607 192.229463 
L 336.995722 195.179707 
L 337.516836 189.27922 
L 338.037951 195.179707 
L 339.080181 165.677268 
L 339.601296 171.577756 
L 340.122411 174.528 
L 340.643525 180.428488 
L 341.16464 180.428488 
L 341.685755 206.980683 
L 342.20687 198.129951 
L 342.727985 206.980683 
L 343.770215 233.532878 
L 344.291329 233.532878 
L 344.812444 236.483122 
L 345.333559 251.234341 
L 345.854674 280.73678 
L 346.375789 295.488 
L 346.896904 274.836293 
L 347.418018 263.035317 
L 348.460248 206.980683 
L 348.981363 204.030439 
L 349.502478 198.129951 
L 350.023593 218.781659 
L 350.544707 201.080195 
L 351.065822 209.930927 
L 351.586937 227.63239 
L 352.108052 198.129951 
L 352.629167 198.129951 
L 353.150282 192.229463 
L 353.671396 171.577756 
L 354.192511 183.378732 
L 354.713626 171.577756 
L 355.234741 177.478244 
L 355.755856 153.876293 
L 356.276971 180.428488 
L 356.798086 183.378732 
L 357.3192 189.27922 
L 357.840315 192.229463 
L 358.36143 204.030439 
L 358.882545 183.378732 
L 359.40366 209.930927 
L 359.924775 198.129951 
L 360.445889 218.781659 
L 360.967004 218.781659 
L 361.488119 212.881171 
L 362.009234 218.781659 
L 362.530349 206.980683 
L 363.051464 236.483122 
L 363.572578 254.184585 
L 364.093693 265.985561 
L 364.614808 271.886049 
L 365.135923 268.935805 
L 365.657038 251.234341 
L 366.178153 251.234341 
L 366.699267 254.184585 
L 367.220382 239.433366 
L 367.741497 230.582634 
L 368.262612 195.179707 
L 368.783727 180.428488 
L 369.304842 180.428488 
L 369.825957 189.27922 
L 370.347071 189.27922 
L 370.868186 192.229463 
L 371.389301 204.030439 
L 371.910416 171.577756 
L 372.431531 165.677268 
L 372.952646 171.577756 
L 373.47376 192.229463 
L 373.994875 180.428488 
L 374.51599 174.528 
L 375.037105 162.727024 
L 375.55822 147.975805 
L 376.079335 150.926049 
L 376.600449 133.224585 
L 377.121564 127.324098 
L 377.642679 136.174829 
L 378.163794 139.125073 
L 379.206024 168.627512 
L 380.769368 177.478244 
L 381.290483 174.528 
L 381.811598 186.328976 
L 382.332713 165.677268 
L 382.853828 168.627512 
L 383.374942 180.428488 
L 383.896057 174.528 
L 384.417172 162.727024 
L 384.938287 156.826537 
L 385.459402 156.826537 
L 385.980517 165.677268 
L 386.501631 180.428488 
L 387.543861 180.428488 
L 388.064976 168.627512 
L 388.586091 183.378732 
L 389.107206 183.378732 
L 389.62832 174.528 
L 390.149435 153.876293 
L 390.67055 165.677268 
L 391.191665 168.627512 
L 391.71278 177.478244 
L 392.755009 145.025561 
L 393.276124 150.926049 
L 393.797239 150.926049 
L 394.318354 156.826537 
L 395.360584 156.826537 
L 395.881699 174.528 
L 396.402813 174.528 
L 396.923928 153.876293 
L 397.966158 189.27922 
L 398.487273 198.129951 
L 398.487273 198.129951 
" clip-path="url(#pea5dbfc323)" style="fill: none; stroke: #1f77b4; stroke-width: 1.5; stroke-linecap: square"/>
   </g>
   <g id="patch_3">
    <path d="M 57.6 307.584 
L 57.6 41.472 
" style="fill: none; stroke: #000000; stroke-width: 0.8; stroke-linejoin: miter; stroke-linecap: square"/>
   </g>
   <g id="patch_4">
    <path d="M 414.72 307.584 
L 414.72 41.472 
" style="fill: none; stroke: #000000; stroke-width: 0.8; stroke-linejoin: miter; stroke-linecap: square"/>
   </g>
   <g id="patch_5">
    <path d="M 57.6 307.584 
L 414.72 307.584 
" style="fill: none; stroke: #000000; stroke-width: 0.8; stroke-linejoin: miter; stroke-linecap: square"/>
   </g>
   <g id="patch_6">
    <path d="M 57.6 41.472 
L 414.72 41.472 
" style="fill: none; stroke: #000000; stroke-width: 0.8; stroke-linejoin: miter; stroke-linecap: square"/>
   </g>
   <g id="text_14">
    <!-- Simulated Anealling Cost -->
    <g transform="translate(160.8 35.472)scale(0.12 -0.12)">
     <defs>
      <path id="DejaVuSans-53" d="M 3425 4513 
L 3425 3897 
Q 3066 4069 2747 4153 
Q 2428 4238 2131 4238 
Q 1616 4238 1336 4038 
Q 1056 3838 1056 3469 
Q 1056 3159 1242 3001 
Q 1428 2844 1947 2747 
L 2328 2669 
Q 3034 2534 3370 2195 
Q 3706 1856 3706 1288 
Q 3706 609 3251 259 
Q 2797 -91 1919 -91 
Q 1588 -91 1214 -16 
Q 841 59 441 206 
L 441 856 
Q 825 641 1194 531 
Q 1563 422 1919 422 
Q 2459 422 2753 634 
Q 3047 847 3047 1241 
Q 3047 1584 2836 1778 
Q 2625 1972 2144 2069 
L 1759 2144 
Q 1053 2284 737 2584 
Q 422 2884 422 3419 
Q 422 4038 858 4394 
Q 1294 4750 2059 4750 
Q 2388 4750 2728 4690 
Q 3069 4631 3425 4513 
z
" transform="scale(0.015625)"/>
      <path id="DejaVuSans-69" d="M 603 3500 
L 1178 3500 
L 1178 0 
L 603 0 
L 603 3500 
z
M 603 4863 
L 1178 4863 
L 1178 4134 
L 603 4134 
L 603 4863 
z
" transform="scale(0.015625)"/>
      <path id="DejaVuSans-65" d="M 3597 1894 
L 3597 1613 
L 953 1613 
Q 991 1019 1311 708 
Q 1631 397 2203 397 
Q 2534 397 2845 478 
Q 3156 559 3463 722 
L 3463 178 
Q 3153 47 2828 -22 
Q 2503 -91 2169 -91 
Q 1331 -91 842 396 
Q 353 884 353 1716 
Q 353 2575 817 3079 
Q 1281 3584 2069 3584 
Q 2775 3584 3186 3129 
Q 3597 2675 3597 1894 
z
M 3022 2063 
Q 3016 2534 2758 2815 
Q 2500 3097 2075 3097 
Q 1594 3097 1305 2825 
Q 1016 2553 972 2059 
L 3022 2063 
z
" transform="scale(0.015625)"/>
      <path id="DejaVuSans-64" d="M 2906 2969 
L 2906 4863 
L 3481 4863 
L 3481 0 
L 2906 0 
L 2906 525 
Q 2725 213 2448 61 
Q 2172 -91 1784 -91 
Q 1150 -91 751 415 
Q 353 922 353 1747 
Q 353 2572 751 3078 
Q 1150 3584 1784 3584 
Q 2172 3584 2448 3432 
Q 2725 3281 2906 2969 
z
M 947 1747 
Q 947 1113 1208 752 
Q 1469 391 1925 391 
Q 2381 391 2643 752 
Q 2906 1113 2906 1747 
Q 2906 2381 2643 2742 
Q 2381 3103 1925 3103 
Q 1469 3103 1208 2742 
Q 947 2381 947 1747 
z
" transform="scale(0.015625)"/>
      <path id="DejaVuSans-41" d="M 2188 4044 
L 1331 1722 
L 3047 1722 
L 2188 4044 
z
M 1831 4666 
L 2547 4666 
L 4325 0 
L 3669 0 
L 3244 1197 
L 1141 1197 
L 716 0 
L 50 0 
L 1831 4666 
z
" transform="scale(0.015625)"/>
      <path id="DejaVuSans-67" d="M 2906 1791 
Q 2906 2416 2648 2759 
Q 2391 3103 1925 3103 
Q 1463 3103 1205 2759 
Q 947 2416 947 1791 
Q 947 1169 1205 825 
Q 1463 481 1925 481 
Q 2391 481 2648 825 
Q 2906 1169 2906 1791 
z
M 3481 434 
Q 3481 -459 3084 -895 
Q 2688 -1331 1869 -1331 
Q 1566 -1331 1297 -1286 
Q 1028 -1241 775 -1147 
L 775 -588 
Q 1028 -725 1275 -790 
Q 1522 -856 1778 -856 
Q 2344 -856 2625 -561 
Q 2906 -266 2906 331 
L 2906 616 
Q 2728 306 2450 153 
Q 2172 0 1784 0 
Q 1141 0 747 490 
Q 353 981 353 1791 
Q 353 2603 747 3093 
Q 1141 3584 1784 3584 
Q 2172 3584 2450 3431 
Q 2728 3278 2906 2969 
L 2906 3500 
L 3481 3500 
L 3481 434 
z
" transform="scale(0.015625)"/>
      <path id="DejaVuSans-43" d="M 4122 4306 
L 4122 3641 
Q 3803 3938 3442 4084 
Q 3081 4231 2675 4231 
Q 1875 4231 1450 3742 
Q 1025 3253 1025 2328 
Q 1025 1406 1450 917 
Q 1875 428 2675 428 
Q 3081 428 3442 575 
Q 3803 722 4122 1019 
L 4122 359 
Q 3791 134 3420 21 
Q 3050 -91 2638 -91 
Q 1578 -91 968 557 
Q 359 1206 359 2328 
Q 359 3453 968 4101 
Q 1578 4750 2638 4750 
Q 3056 4750 3426 4639 
Q 3797 4528 4122 4306 
z
" transform="scale(0.015625)"/>
     </defs>
     <use xlink:href="#DejaVuSans-53"/>
     <use xlink:href="#DejaVuSans-69" x="63.476562"/>
     <use xlink:href="#DejaVuSans-6d" x="91.259766"/>
     <use xlink:href="#DejaVuSans-75" x="188.671875"/>
     <use xlink:href="#DejaVuSans-6c" x="252.050781"/>
     <use xlink:href="#DejaVuSans-61" x="279.833984"/>
     <use xlink:href="#DejaVuSans-74" x="341.113281"/>
     <use xlink:href="#DejaVuSans-65" x="380.322266"/>
     <use xlink:href="#DejaVuSans-64" x="441.845703"/>
     <use xlink:href="#DejaVuSans-20" x="505.322266"/>
     <use xlink:href="#DejaVuSans-41" x="537.109375"/>
     <use xlink:href="#DejaVuSans-6e" x="605.517578"/>
     <use xlink:href="#DejaVuSans-65" x="668.896484"/>
     <use xlink:href="#DejaVuSans-61" x="730.419922"/>
     <use xlink:href="#DejaVuSans-6c" x="791.699219"/>
     <use xlink:href="#DejaVuSans-6c" x="819.482422"/>
     <use xlink:href="#DejaVuSans-69" x="847.265625"/>
     <use xlink:href="#DejaVuSans-6e" x="875.048828"/>
     <use xlink:href="#DejaVuSans-67" x="938.427734"/>
     <use xlink:href="#DejaVuSans-20" x="1001.904297"/>
     <use xlink:href="#DejaVuSans-43" x="1033.691406"/>
     <use xlink:href="#DejaVuSans-6f" x="1103.515625"/>
     <use xlink:href="#DejaVuSans-73" x="1164.697266"/>
     <use xlink:href="#DejaVuSans-74" x="1216.796875"/>
    </g>
   </g>
  </g>
 </g>
 <defs>
  <clipPath id="pea5dbfc323">
   <rect x="57.6" y="41.472" width="357.12" height="266.112"/>
  </clipPath>
 </defs>
</svg>
