<?xml version="1.0" encoding="utf-8" standalone="no"?>
<!DOCTYPE svg PUBLIC "-//W3C//DTD SVG 1.1//EN"
  "http://www.w3.org/Graphics/SVG/1.1/DTD/svg11.dtd">
<svg xmlns:xlink="http://www.w3.org/1999/xlink" width="460.8pt" height="345.6pt" viewBox="0 0 460.8 345.6" xmlns="http://www.w3.org/2000/svg" version="1.1">
 <metadata>
  <rdf:RDF xmlns:dc="http://purl.org/dc/elements/1.1/" xmlns:cc="http://creativecommons.org/ns#" xmlns:rdf="http://www.w3.org/1999/02/22-rdf-syntax-ns#">
   <cc:Work>
    <dc:type rdf:resource="http://purl.org/dc/dcmitype/StillImage"/>
    <dc:date>2022-06-01T08:04:25.857888</dc:date>
    <dc:format>image/svg+xml</dc:format>
    <dc:creator>
     <cc:Agent>
      <dc:title>Matplotlib v3.5.1, https://matplotlib.org/</dc:title>
     </cc:Agent>
    </dc:creator>
   </cc:Work>
  </rdf:RDF>
 </metadata>
 <defs>
  <style type="text/css">*{stroke-linejoin: round; stroke-linecap: butt}</style>
 </defs>
 <g id="figure_1">
  <g id="patch_1">
   <path d="M 0 345.6 
L 460.8 345.6 
L 460.8 0 
L 0 0 
z
" style="fill: #ffffff"/>
  </g>
  <g id="axes_1">
   <g id="patch_2">
    <path d="M 57.6 307.584 
L 414.72 307.584 
L 414.72 41.472 
L 57.6 41.472 
z
" style="fill: #ffffff"/>
   </g>
   <g id="matplotlib.axis_1">
    <g id="xtick_1">
     <g id="line2d_1">
      <defs>
       <path id="m39e9e3515c" d="M 0 0 
L 0 3.5 
" style="stroke: #000000; stroke-width: 0.8"/>
      </defs>
      <g>
       <use xlink:href="#m39e9e3515c" x="73.832727" y="307.584" style="stroke: #000000; stroke-width: 0.8"/>
      </g>
     </g>
     <g id="text_1">
      <!-- 0 -->
      <g transform="translate(70.651477 322.182437)scale(0.1 -0.1)">
       <defs>
        <path id="DejaVuSans-30" d="M 2034 4250 
Q 1547 4250 1301 3770 
Q 1056 3291 1056 2328 
Q 1056 1369 1301 889 
Q 1547 409 2034 409 
Q 2525 409 2770 889 
Q 3016 1369 3016 2328 
Q 3016 3291 2770 3770 
Q 2525 4250 2034 4250 
z
M 2034 4750 
Q 2819 4750 3233 4129 
Q 3647 3509 3647 2328 
Q 3647 1150 3233 529 
Q 2819 -91 2034 -91 
Q 1250 -91 836 529 
Q 422 1150 422 2328 
Q 422 3509 836 4129 
Q 1250 4750 2034 4750 
z
" transform="scale(0.015625)"/>
       </defs>
       <use xlink:href="#DejaVuSans-30"/>
      </g>
     </g>
    </g>
    <g id="xtick_2">
     <g id="line2d_2">
      <g>
       <use xlink:href="#m39e9e3515c" x="125.447122" y="307.584" style="stroke: #000000; stroke-width: 0.8"/>
      </g>
     </g>
     <g id="text_2">
      <!-- 200 -->
      <g transform="translate(115.903372 322.182437)scale(0.1 -0.1)">
       <defs>
        <path id="DejaVuSans-32" d="M 1228 531 
L 3431 531 
L 3431 0 
L 469 0 
L 469 531 
Q 828 903 1448 1529 
Q 2069 2156 2228 2338 
Q 2531 2678 2651 2914 
Q 2772 3150 2772 3378 
Q 2772 3750 2511 3984 
Q 2250 4219 1831 4219 
Q 1534 4219 1204 4116 
Q 875 4013 500 3803 
L 500 4441 
Q 881 4594 1212 4672 
Q 1544 4750 1819 4750 
Q 2544 4750 2975 4387 
Q 3406 4025 3406 3419 
Q 3406 3131 3298 2873 
Q 3191 2616 2906 2266 
Q 2828 2175 2409 1742 
Q 1991 1309 1228 531 
z
" transform="scale(0.015625)"/>
       </defs>
       <use xlink:href="#DejaVuSans-32"/>
       <use xlink:href="#DejaVuSans-30" x="63.623047"/>
       <use xlink:href="#DejaVuSans-30" x="127.246094"/>
      </g>
     </g>
    </g>
    <g id="xtick_3">
     <g id="line2d_3">
      <g>
       <use xlink:href="#m39e9e3515c" x="177.061518" y="307.584" style="stroke: #000000; stroke-width: 0.8"/>
      </g>
     </g>
     <g id="text_3">
      <!-- 400 -->
      <g transform="translate(167.517768 322.182437)scale(0.1 -0.1)">
       <defs>
        <path id="DejaVuSans-34" d="M 2419 4116 
L 825 1625 
L 2419 1625 
L 2419 4116 
z
M 2253 4666 
L 3047 4666 
L 3047 1625 
L 3713 1625 
L 3713 1100 
L 3047 1100 
L 3047 0 
L 2419 0 
L 2419 1100 
L 313 1100 
L 313 1709 
L 2253 4666 
z
" transform="scale(0.015625)"/>
       </defs>
       <use xlink:href="#DejaVuSans-34"/>
       <use xlink:href="#DejaVuSans-30" x="63.623047"/>
       <use xlink:href="#DejaVuSans-30" x="127.246094"/>
      </g>
     </g>
    </g>
    <g id="xtick_4">
     <g id="line2d_4">
      <g>
       <use xlink:href="#m39e9e3515c" x="228.675913" y="307.584" style="stroke: #000000; stroke-width: 0.8"/>
      </g>
     </g>
     <g id="text_4">
      <!-- 600 -->
      <g transform="translate(219.132163 322.182437)scale(0.1 -0.1)">
       <defs>
        <path id="DejaVuSans-36" d="M 2113 2584 
Q 1688 2584 1439 2293 
Q 1191 2003 1191 1497 
Q 1191 994 1439 701 
Q 1688 409 2113 409 
Q 2538 409 2786 701 
Q 3034 994 3034 1497 
Q 3034 2003 2786 2293 
Q 2538 2584 2113 2584 
z
M 3366 4563 
L 3366 3988 
Q 3128 4100 2886 4159 
Q 2644 4219 2406 4219 
Q 1781 4219 1451 3797 
Q 1122 3375 1075 2522 
Q 1259 2794 1537 2939 
Q 1816 3084 2150 3084 
Q 2853 3084 3261 2657 
Q 3669 2231 3669 1497 
Q 3669 778 3244 343 
Q 2819 -91 2113 -91 
Q 1303 -91 875 529 
Q 447 1150 447 2328 
Q 447 3434 972 4092 
Q 1497 4750 2381 4750 
Q 2619 4750 2861 4703 
Q 3103 4656 3366 4563 
z
" transform="scale(0.015625)"/>
       </defs>
       <use xlink:href="#DejaVuSans-36"/>
       <use xlink:href="#DejaVuSans-30" x="63.623047"/>
       <use xlink:href="#DejaVuSans-30" x="127.246094"/>
      </g>
     </g>
    </g>
    <g id="xtick_5">
     <g id="line2d_5">
      <g>
       <use xlink:href="#m39e9e3515c" x="280.290308" y="307.584" style="stroke: #000000; stroke-width: 0.8"/>
      </g>
     </g>
     <g id="text_5">
      <!-- 800 -->
      <g transform="translate(270.746558 322.182437)scale(0.1 -0.1)">
       <defs>
        <path id="DejaVuSans-38" d="M 2034 2216 
Q 1584 2216 1326 1975 
Q 1069 1734 1069 1313 
Q 1069 891 1326 650 
Q 1584 409 2034 409 
Q 2484 409 2743 651 
Q 3003 894 3003 1313 
Q 3003 1734 2745 1975 
Q 2488 2216 2034 2216 
z
M 1403 2484 
Q 997 2584 770 2862 
Q 544 3141 544 3541 
Q 544 4100 942 4425 
Q 1341 4750 2034 4750 
Q 2731 4750 3128 4425 
Q 3525 4100 3525 3541 
Q 3525 3141 3298 2862 
Q 3072 2584 2669 2484 
Q 3125 2378 3379 2068 
Q 3634 1759 3634 1313 
Q 3634 634 3220 271 
Q 2806 -91 2034 -91 
Q 1263 -91 848 271 
Q 434 634 434 1313 
Q 434 1759 690 2068 
Q 947 2378 1403 2484 
z
M 1172 3481 
Q 1172 3119 1398 2916 
Q 1625 2713 2034 2713 
Q 2441 2713 2670 2916 
Q 2900 3119 2900 3481 
Q 2900 3844 2670 4047 
Q 2441 4250 2034 4250 
Q 1625 4250 1398 4047 
Q 1172 3844 1172 3481 
z
" transform="scale(0.015625)"/>
       </defs>
       <use xlink:href="#DejaVuSans-38"/>
       <use xlink:href="#DejaVuSans-30" x="63.623047"/>
       <use xlink:href="#DejaVuSans-30" x="127.246094"/>
      </g>
     </g>
    </g>
    <g id="xtick_6">
     <g id="line2d_6">
      <g>
       <use xlink:href="#m39e9e3515c" x="331.904703" y="307.584" style="stroke: #000000; stroke-width: 0.8"/>
      </g>
     </g>
     <g id="text_6">
      <!-- 1000 -->
      <g transform="translate(319.179703 322.182437)scale(0.1 -0.1)">
       <defs>
        <path id="DejaVuSans-31" d="M 794 531 
L 1825 531 
L 1825 4091 
L 703 3866 
L 703 4441 
L 1819 4666 
L 2450 4666 
L 2450 531 
L 3481 531 
L 3481 0 
L 794 0 
L 794 531 
z
" transform="scale(0.015625)"/>
       </defs>
       <use xlink:href="#DejaVuSans-31"/>
       <use xlink:href="#DejaVuSans-30" x="63.623047"/>
       <use xlink:href="#DejaVuSans-30" x="127.246094"/>
       <use xlink:href="#DejaVuSans-30" x="190.869141"/>
      </g>
     </g>
    </g>
    <g id="xtick_7">
     <g id="line2d_7">
      <g>
       <use xlink:href="#m39e9e3515c" x="383.519098" y="307.584" style="stroke: #000000; stroke-width: 0.8"/>
      </g>
     </g>
     <g id="text_7">
      <!-- 1200 -->
      <g transform="translate(370.794098 322.182437)scale(0.1 -0.1)">
       <use xlink:href="#DejaVuSans-31"/>
       <use xlink:href="#DejaVuSans-32" x="63.623047"/>
       <use xlink:href="#DejaVuSans-30" x="127.246094"/>
       <use xlink:href="#DejaVuSans-30" x="190.869141"/>
      </g>
     </g>
    </g>
    <g id="text_8">
     <!-- num swaps -->
     <g transform="translate(207.826406 335.860562)scale(0.1 -0.1)">
      <defs>
       <path id="DejaVuSans-6e" d="M 3513 2113 
L 3513 0 
L 2938 0 
L 2938 2094 
Q 2938 2591 2744 2837 
Q 2550 3084 2163 3084 
Q 1697 3084 1428 2787 
Q 1159 2491 1159 1978 
L 1159 0 
L 581 0 
L 581 3500 
L 1159 3500 
L 1159 2956 
Q 1366 3272 1645 3428 
Q 1925 3584 2291 3584 
Q 2894 3584 3203 3211 
Q 3513 2838 3513 2113 
z
" transform="scale(0.015625)"/>
       <path id="DejaVuSans-75" d="M 544 1381 
L 544 3500 
L 1119 3500 
L 1119 1403 
Q 1119 906 1312 657 
Q 1506 409 1894 409 
Q 2359 409 2629 706 
Q 2900 1003 2900 1516 
L 2900 3500 
L 3475 3500 
L 3475 0 
L 2900 0 
L 2900 538 
Q 2691 219 2414 64 
Q 2138 -91 1772 -91 
Q 1169 -91 856 284 
Q 544 659 544 1381 
z
M 1991 3584 
L 1991 3584 
z
" transform="scale(0.015625)"/>
       <path id="DejaVuSans-6d" d="M 3328 2828 
Q 3544 3216 3844 3400 
Q 4144 3584 4550 3584 
Q 5097 3584 5394 3201 
Q 5691 2819 5691 2113 
L 5691 0 
L 5113 0 
L 5113 2094 
Q 5113 2597 4934 2840 
Q 4756 3084 4391 3084 
Q 3944 3084 3684 2787 
Q 3425 2491 3425 1978 
L 3425 0 
L 2847 0 
L 2847 2094 
Q 2847 2600 2669 2842 
Q 2491 3084 2119 3084 
Q 1678 3084 1418 2786 
Q 1159 2488 1159 1978 
L 1159 0 
L 581 0 
L 581 3500 
L 1159 3500 
L 1159 2956 
Q 1356 3278 1631 3431 
Q 1906 3584 2284 3584 
Q 2666 3584 2933 3390 
Q 3200 3197 3328 2828 
z
" transform="scale(0.015625)"/>
       <path id="DejaVuSans-20" transform="scale(0.015625)"/>
       <path id="DejaVuSans-73" d="M 2834 3397 
L 2834 2853 
Q 2591 2978 2328 3040 
Q 2066 3103 1784 3103 
Q 1356 3103 1142 2972 
Q 928 2841 928 2578 
Q 928 2378 1081 2264 
Q 1234 2150 1697 2047 
L 1894 2003 
Q 2506 1872 2764 1633 
Q 3022 1394 3022 966 
Q 3022 478 2636 193 
Q 2250 -91 1575 -91 
Q 1294 -91 989 -36 
Q 684 19 347 128 
L 347 722 
Q 666 556 975 473 
Q 1284 391 1588 391 
Q 1994 391 2212 530 
Q 2431 669 2431 922 
Q 2431 1156 2273 1281 
Q 2116 1406 1581 1522 
L 1381 1569 
Q 847 1681 609 1914 
Q 372 2147 372 2553 
Q 372 3047 722 3315 
Q 1072 3584 1716 3584 
Q 2034 3584 2315 3537 
Q 2597 3491 2834 3397 
z
" transform="scale(0.015625)"/>
       <path id="DejaVuSans-77" d="M 269 3500 
L 844 3500 
L 1563 769 
L 2278 3500 
L 2956 3500 
L 3675 769 
L 4391 3500 
L 4966 3500 
L 4050 0 
L 3372 0 
L 2619 2869 
L 1863 0 
L 1184 0 
L 269 3500 
z
" transform="scale(0.015625)"/>
       <path id="DejaVuSans-61" d="M 2194 1759 
Q 1497 1759 1228 1600 
Q 959 1441 959 1056 
Q 959 750 1161 570 
Q 1363 391 1709 391 
Q 2188 391 2477 730 
Q 2766 1069 2766 1631 
L 2766 1759 
L 2194 1759 
z
M 3341 1997 
L 3341 0 
L 2766 0 
L 2766 531 
Q 2569 213 2275 61 
Q 1981 -91 1556 -91 
Q 1019 -91 701 211 
Q 384 513 384 1019 
Q 384 1609 779 1909 
Q 1175 2209 1959 2209 
L 2766 2209 
L 2766 2266 
Q 2766 2663 2505 2880 
Q 2244 3097 1772 3097 
Q 1472 3097 1187 3025 
Q 903 2953 641 2809 
L 641 3341 
Q 956 3463 1253 3523 
Q 1550 3584 1831 3584 
Q 2591 3584 2966 3190 
Q 3341 2797 3341 1997 
z
" transform="scale(0.015625)"/>
       <path id="DejaVuSans-70" d="M 1159 525 
L 1159 -1331 
L 581 -1331 
L 581 3500 
L 1159 3500 
L 1159 2969 
Q 1341 3281 1617 3432 
Q 1894 3584 2278 3584 
Q 2916 3584 3314 3078 
Q 3713 2572 3713 1747 
Q 3713 922 3314 415 
Q 2916 -91 2278 -91 
Q 1894 -91 1617 61 
Q 1341 213 1159 525 
z
M 3116 1747 
Q 3116 2381 2855 2742 
Q 2594 3103 2138 3103 
Q 1681 3103 1420 2742 
Q 1159 2381 1159 1747 
Q 1159 1113 1420 752 
Q 1681 391 2138 391 
Q 2594 391 2855 752 
Q 3116 1113 3116 1747 
z
" transform="scale(0.015625)"/>
      </defs>
      <use xlink:href="#DejaVuSans-6e"/>
      <use xlink:href="#DejaVuSans-75" x="63.378906"/>
      <use xlink:href="#DejaVuSans-6d" x="126.757812"/>
      <use xlink:href="#DejaVuSans-20" x="224.169922"/>
      <use xlink:href="#DejaVuSans-73" x="255.957031"/>
      <use xlink:href="#DejaVuSans-77" x="308.056641"/>
      <use xlink:href="#DejaVuSans-61" x="389.84375"/>
      <use xlink:href="#DejaVuSans-70" x="451.123047"/>
      <use xlink:href="#DejaVuSans-73" x="514.599609"/>
     </g>
    </g>
   </g>
   <g id="matplotlib.axis_2">
    <g id="ytick_1">
     <g id="line2d_8">
      <defs>
       <path id="m2bb247a429" d="M 0 0 
L -3.5 0 
" style="stroke: #000000; stroke-width: 0.8"/>
      </defs>
      <g>
       <use xlink:href="#m2bb247a429" x="57.6" y="298.26869" style="stroke: #000000; stroke-width: 0.8"/>
      </g>
     </g>
     <g id="text_9">
      <!-- 500 -->
      <g transform="translate(31.5125 302.067908)scale(0.1 -0.1)">
       <defs>
        <path id="DejaVuSans-35" d="M 691 4666 
L 3169 4666 
L 3169 4134 
L 1269 4134 
L 1269 2991 
Q 1406 3038 1543 3061 
Q 1681 3084 1819 3084 
Q 2600 3084 3056 2656 
Q 3513 2228 3513 1497 
Q 3513 744 3044 326 
Q 2575 -91 1722 -91 
Q 1428 -91 1123 -41 
Q 819 9 494 109 
L 494 744 
Q 775 591 1075 516 
Q 1375 441 1709 441 
Q 2250 441 2565 725 
Q 2881 1009 2881 1497 
Q 2881 1984 2565 2268 
Q 2250 2553 1709 2553 
Q 1456 2553 1204 2497 
Q 953 2441 691 2322 
L 691 4666 
z
" transform="scale(0.015625)"/>
       </defs>
       <use xlink:href="#DejaVuSans-35"/>
       <use xlink:href="#DejaVuSans-30" x="63.623047"/>
       <use xlink:href="#DejaVuSans-30" x="127.246094"/>
      </g>
     </g>
    </g>
    <g id="ytick_2">
     <g id="line2d_9">
      <g>
       <use xlink:href="#m2bb247a429" x="57.6" y="242.654897" style="stroke: #000000; stroke-width: 0.8"/>
      </g>
     </g>
     <g id="text_10">
      <!-- 520 -->
      <g transform="translate(31.5125 246.454115)scale(0.1 -0.1)">
       <use xlink:href="#DejaVuSans-35"/>
       <use xlink:href="#DejaVuSans-32" x="63.623047"/>
       <use xlink:href="#DejaVuSans-30" x="127.246094"/>
      </g>
     </g>
    </g>
    <g id="ytick_3">
     <g id="line2d_10">
      <g>
       <use xlink:href="#m2bb247a429" x="57.6" y="187.041103" style="stroke: #000000; stroke-width: 0.8"/>
      </g>
     </g>
     <g id="text_11">
      <!-- 540 -->
      <g transform="translate(31.5125 190.840322)scale(0.1 -0.1)">
       <use xlink:href="#DejaVuSans-35"/>
       <use xlink:href="#DejaVuSans-34" x="63.623047"/>
       <use xlink:href="#DejaVuSans-30" x="127.246094"/>
      </g>
     </g>
    </g>
    <g id="ytick_4">
     <g id="line2d_11">
      <g>
       <use xlink:href="#m2bb247a429" x="57.6" y="131.42731" style="stroke: #000000; stroke-width: 0.8"/>
      </g>
     </g>
     <g id="text_12">
      <!-- 560 -->
      <g transform="translate(31.5125 135.226529)scale(0.1 -0.1)">
       <use xlink:href="#DejaVuSans-35"/>
       <use xlink:href="#DejaVuSans-36" x="63.623047"/>
       <use xlink:href="#DejaVuSans-30" x="127.246094"/>
      </g>
     </g>
    </g>
    <g id="ytick_5">
     <g id="line2d_12">
      <g>
       <use xlink:href="#m2bb247a429" x="57.6" y="75.813517" style="stroke: #000000; stroke-width: 0.8"/>
      </g>
     </g>
     <g id="text_13">
      <!-- 580 -->
      <g transform="translate(31.5125 79.612736)scale(0.1 -0.1)">
       <use xlink:href="#DejaVuSans-35"/>
       <use xlink:href="#DejaVuSans-38" x="63.623047"/>
       <use xlink:href="#DejaVuSans-30" x="127.246094"/>
      </g>
     </g>
    </g>
    <g id="text_14">
     <!-- total cost -->
     <g transform="translate(25.432812 197.923313)rotate(-90)scale(0.1 -0.1)">
      <defs>
       <path id="DejaVuSans-74" d="M 1172 4494 
L 1172 3500 
L 2356 3500 
L 2356 3053 
L 1172 3053 
L 1172 1153 
Q 1172 725 1289 603 
Q 1406 481 1766 481 
L 2356 481 
L 2356 0 
L 1766 0 
Q 1100 0 847 248 
Q 594 497 594 1153 
L 594 3053 
L 172 3053 
L 172 3500 
L 594 3500 
L 594 4494 
L 1172 4494 
z
" transform="scale(0.015625)"/>
       <path id="DejaVuSans-6f" d="M 1959 3097 
Q 1497 3097 1228 2736 
Q 959 2375 959 1747 
Q 959 1119 1226 758 
Q 1494 397 1959 397 
Q 2419 397 2687 759 
Q 2956 1122 2956 1747 
Q 2956 2369 2687 2733 
Q 2419 3097 1959 3097 
z
M 1959 3584 
Q 2709 3584 3137 3096 
Q 3566 2609 3566 1747 
Q 3566 888 3137 398 
Q 2709 -91 1959 -91 
Q 1206 -91 779 398 
Q 353 888 353 1747 
Q 353 2609 779 3096 
Q 1206 3584 1959 3584 
z
" transform="scale(0.015625)"/>
       <path id="DejaVuSans-6c" d="M 603 4863 
L 1178 4863 
L 1178 0 
L 603 0 
L 603 4863 
z
" transform="scale(0.015625)"/>
       <path id="DejaVuSans-63" d="M 3122 3366 
L 3122 2828 
Q 2878 2963 2633 3030 
Q 2388 3097 2138 3097 
Q 1578 3097 1268 2742 
Q 959 2388 959 1747 
Q 959 1106 1268 751 
Q 1578 397 2138 397 
Q 2388 397 2633 464 
Q 2878 531 3122 666 
L 3122 134 
Q 2881 22 2623 -34 
Q 2366 -91 2075 -91 
Q 1284 -91 818 406 
Q 353 903 353 1747 
Q 353 2603 823 3093 
Q 1294 3584 2113 3584 
Q 2378 3584 2631 3529 
Q 2884 3475 3122 3366 
z
" transform="scale(0.015625)"/>
      </defs>
      <use xlink:href="#DejaVuSans-74"/>
      <use xlink:href="#DejaVuSans-6f" x="39.208984"/>
      <use xlink:href="#DejaVuSans-74" x="100.390625"/>
      <use xlink:href="#DejaVuSans-61" x="139.599609"/>
      <use xlink:href="#DejaVuSans-6c" x="200.878906"/>
      <use xlink:href="#DejaVuSans-20" x="228.662109"/>
      <use xlink:href="#DejaVuSans-63" x="260.449219"/>
      <use xlink:href="#DejaVuSans-6f" x="315.429688"/>
      <use xlink:href="#DejaVuSans-73" x="376.611328"/>
      <use xlink:href="#DejaVuSans-74" x="428.710938"/>
     </g>
    </g>
   </g>
   <g id="line2d_13">
    <path d="M 73.832727 167.576276 
L 74.348871 167.576276 
L 74.865015 156.453517 
L 75.381159 156.453517 
L 75.897303 167.576276 
L 76.413447 175.918345 
L 76.929591 170.356966 
L 77.445735 156.453517 
L 77.961879 150.892138 
L 78.478023 148.111448 
L 78.994167 134.208 
L 79.510311 125.865931 
L 80.026455 134.208 
L 80.542599 131.42731 
L 81.058743 103.620414 
L 81.574887 100.839724 
L 82.09103 106.401103 
L 82.607174 109.181793 
L 83.123318 120.304552 
L 83.639462 123.085241 
L 84.155606 109.181793 
L 84.67175 134.208 
L 85.187894 131.42731 
L 85.704038 125.865931 
L 86.736326 170.356966 
L 87.25247 162.014897 
L 87.768614 164.795586 
L 88.284758 175.918345 
L 88.800902 200.944552 
L 89.317046 206.505931 
L 89.83319 195.383172 
L 90.349334 206.505931 
L 90.865478 209.286621 
L 91.897766 181.479724 
L 92.41391 209.286621 
L 92.930053 212.06731 
L 93.446197 203.725241 
L 93.962341 214.848 
L 94.478485 212.06731 
L 94.994629 206.505931 
L 95.510773 206.505931 
L 96.026917 200.944552 
L 96.543061 209.286621 
L 97.059205 181.479724 
L 97.575349 164.795586 
L 98.091493 173.137655 
L 98.607637 162.014897 
L 99.123781 181.479724 
L 99.639925 173.137655 
L 100.156069 181.479724 
L 100.672213 170.356966 
L 101.188357 170.356966 
L 101.704501 164.795586 
L 102.220645 164.795586 
L 102.736789 145.330759 
L 103.252933 167.576276 
L 103.769076 148.111448 
L 104.801364 175.918345 
L 105.317508 181.479724 
L 105.833652 184.260414 
L 106.349796 167.576276 
L 106.86594 173.137655 
L 107.382084 184.260414 
L 107.898228 187.041103 
L 108.414372 150.892138 
L 108.930516 142.550069 
L 109.44666 128.646621 
L 109.962804 123.085241 
L 110.478948 114.743172 
L 110.995092 125.865931 
L 111.511236 125.865931 
L 112.02738 131.42731 
L 112.543524 117.523862 
L 113.059668 111.962483 
L 113.575812 98.059034 
L 114.091955 92.497655 
L 115.124243 123.085241 
L 115.640387 95.278345 
L 116.156531 78.594207 
L 116.672675 114.743172 
L 117.188819 95.278345 
L 117.704963 100.839724 
L 118.221107 81.374897 
L 118.737251 73.032828 
L 119.253395 111.962483 
L 119.769539 125.865931 
L 120.285683 148.111448 
L 120.801827 148.111448 
L 121.317971 162.014897 
L 121.834115 136.98869 
L 122.350259 150.892138 
L 122.866403 153.672828 
L 123.382547 145.330759 
L 123.898691 117.523862 
L 124.414835 120.304552 
L 124.930978 117.523862 
L 125.447122 128.646621 
L 125.963266 153.672828 
L 126.47941 153.672828 
L 126.995554 184.260414 
L 127.511698 187.041103 
L 128.027842 184.260414 
L 128.543986 189.821793 
L 129.06013 164.795586 
L 129.576274 164.795586 
L 130.092418 145.330759 
L 130.608562 167.576276 
L 131.124706 195.383172 
L 131.64085 200.944552 
L 132.156994 200.944552 
L 132.673138 198.163862 
L 133.189282 242.654897 
L 133.705426 231.532138 
L 134.22157 234.312828 
L 134.737714 234.312828 
L 135.253857 206.505931 
L 135.770001 209.286621 
L 136.286145 239.874207 
L 136.802289 237.093517 
L 137.318433 245.435586 
L 137.834577 245.435586 
L 138.350721 239.874207 
L 138.866865 248.216276 
L 139.383009 245.435586 
L 139.899153 259.339034 
L 140.415297 284.365241 
L 140.931441 287.145931 
L 141.447585 295.488 
L 141.963729 295.488 
L 142.479873 281.584552 
L 142.996017 248.216276 
L 143.512161 239.874207 
L 144.028305 234.312828 
L 144.544449 248.216276 
L 145.060593 237.093517 
L 145.576737 239.874207 
L 146.09288 262.119724 
L 146.609024 245.435586 
L 147.125168 253.777655 
L 147.641312 264.900414 
L 148.157456 225.970759 
L 149.189744 195.383172 
L 149.705888 164.795586 
L 150.222032 167.576276 
L 150.738176 142.550069 
L 151.25432 150.892138 
L 151.770464 128.646621 
L 152.286608 123.085241 
L 152.802752 114.743172 
L 153.318896 114.743172 
L 154.351184 125.865931 
L 154.867328 120.304552 
L 155.383472 136.98869 
L 155.899616 148.111448 
L 156.41576 134.208 
L 156.931903 134.208 
L 157.964191 128.646621 
L 158.480335 128.646621 
L 158.996479 139.769379 
L 159.512623 111.962483 
L 160.544911 142.550069 
L 161.061055 162.014897 
L 161.577199 164.795586 
L 162.093343 150.892138 
L 162.609487 148.111448 
L 163.125631 153.672828 
L 163.641775 150.892138 
L 164.157919 131.42731 
L 164.674063 139.769379 
L 165.190207 189.821793 
L 165.706351 200.944552 
L 166.222495 195.383172 
L 166.738639 200.944552 
L 167.254782 187.041103 
L 167.770926 187.041103 
L 168.28707 195.383172 
L 168.803214 198.163862 
L 169.319358 195.383172 
L 169.835502 195.383172 
L 170.351646 198.163862 
L 170.86779 209.286621 
L 171.383934 209.286621 
L 171.900078 200.944552 
L 172.416222 220.409379 
L 172.932366 212.06731 
L 173.44851 209.286621 
L 173.964654 187.041103 
L 174.480798 184.260414 
L 174.996942 184.260414 
L 175.513086 181.479724 
L 176.02923 148.111448 
L 176.545374 156.453517 
L 177.061518 142.550069 
L 177.577662 153.672828 
L 178.093805 150.892138 
L 178.609949 156.453517 
L 179.126093 153.672828 
L 180.158381 53.568 
L 180.674525 86.936276 
L 181.190669 106.401103 
L 181.706813 89.716966 
L 182.222957 92.497655 
L 182.739101 86.936276 
L 183.255245 86.936276 
L 183.771389 95.278345 
L 184.287533 100.839724 
L 184.803677 92.497655 
L 185.319821 81.374897 
L 185.835965 78.594207 
L 186.352109 92.497655 
L 186.868253 89.716966 
L 187.900541 95.278345 
L 188.416684 106.401103 
L 188.932828 139.769379 
L 189.448972 123.085241 
L 189.965116 153.672828 
L 190.48126 134.208 
L 190.997404 162.014897 
L 191.513548 173.137655 
L 192.029692 173.137655 
L 192.545836 175.918345 
L 193.06198 170.356966 
L 193.578124 167.576276 
L 194.094268 184.260414 
L 194.610412 189.821793 
L 195.126556 162.014897 
L 195.6427 162.014897 
L 196.674988 192.602483 
L 197.191132 198.163862 
L 197.707276 175.918345 
L 198.22342 198.163862 
L 198.739564 173.137655 
L 199.255707 175.918345 
L 199.771851 203.725241 
L 200.287995 159.234207 
L 200.804139 131.42731 
L 201.320283 156.453517 
L 201.836427 153.672828 
L 202.352571 153.672828 
L 202.868715 150.892138 
L 203.384859 187.041103 
L 203.901003 203.725241 
L 204.417147 225.970759 
L 204.933291 217.62869 
L 205.449435 214.848 
L 206.481723 192.602483 
L 206.997867 173.137655 
L 207.514011 162.014897 
L 208.030155 170.356966 
L 208.546299 203.725241 
L 209.062443 209.286621 
L 209.578587 212.06731 
L 210.09473 187.041103 
L 210.610874 189.821793 
L 211.127018 173.137655 
L 211.643162 192.602483 
L 212.159306 200.944552 
L 212.67545 220.409379 
L 213.191594 200.944552 
L 213.707738 206.505931 
L 214.223882 200.944552 
L 214.740026 200.944552 
L 215.25617 212.06731 
L 215.772314 203.725241 
L 216.288458 203.725241 
L 216.804602 214.848 
L 217.83689 162.014897 
L 218.353034 170.356966 
L 218.869178 189.821793 
L 219.385322 184.260414 
L 219.901466 203.725241 
L 220.417609 195.383172 
L 220.933753 195.383172 
L 221.449897 167.576276 
L 221.966041 153.672828 
L 222.482185 156.453517 
L 222.998329 170.356966 
L 223.514473 153.672828 
L 224.030617 184.260414 
L 224.546761 198.163862 
L 225.062905 192.602483 
L 225.579049 200.944552 
L 226.095193 200.944552 
L 226.611337 214.848 
L 227.127481 220.409379 
L 227.643625 231.532138 
L 228.159769 153.672828 
L 228.675913 148.111448 
L 229.192057 162.014897 
L 229.708201 136.98869 
L 230.224345 125.865931 
L 230.740489 131.42731 
L 231.256632 103.620414 
L 231.772776 109.181793 
L 232.28892 123.085241 
L 232.805064 131.42731 
L 233.321208 111.962483 
L 233.837352 109.181793 
L 234.353496 89.716966 
L 234.86964 109.181793 
L 235.385784 98.059034 
L 235.901928 70.252138 
L 236.418072 70.252138 
L 236.934216 84.155586 
L 237.45036 89.716966 
L 237.966504 86.936276 
L 238.482648 70.252138 
L 238.998792 78.594207 
L 239.514936 84.155586 
L 240.03108 92.497655 
L 240.547224 134.208 
L 241.579511 145.330759 
L 242.095655 131.42731 
L 242.611799 136.98869 
L 243.127943 164.795586 
L 243.644087 139.769379 
L 244.160231 156.453517 
L 244.676375 167.576276 
L 245.192519 242.654897 
L 245.708663 242.654897 
L 246.224807 253.777655 
L 246.740951 250.996966 
L 247.257095 239.874207 
L 247.773239 223.190069 
L 248.289383 231.532138 
L 248.805527 225.970759 
L 249.321671 253.777655 
L 249.837815 267.681103 
L 250.353959 256.558345 
L 250.870103 231.532138 
L 251.386247 220.409379 
L 251.902391 256.558345 
L 252.418534 248.216276 
L 252.934678 237.093517 
L 253.450822 209.286621 
L 253.966966 214.848 
L 254.48311 164.795586 
L 254.999254 164.795586 
L 255.515398 128.646621 
L 256.031542 100.839724 
L 256.547686 100.839724 
L 257.06383 103.620414 
L 257.579974 86.936276 
L 258.096118 103.620414 
L 258.612262 103.620414 
L 259.128406 111.962483 
L 259.64455 114.743172 
L 260.160694 120.304552 
L 260.676838 128.646621 
L 261.709126 117.523862 
L 262.22527 117.523862 
L 262.741413 164.795586 
L 263.257557 139.769379 
L 263.773701 139.769379 
L 264.289845 117.523862 
L 264.805989 114.743172 
L 265.322133 125.865931 
L 265.838277 142.550069 
L 266.354421 139.769379 
L 266.870565 139.769379 
L 267.386709 142.550069 
L 267.902853 131.42731 
L 268.418997 139.769379 
L 268.935141 142.550069 
L 269.451285 150.892138 
L 269.967429 150.892138 
L 270.483573 159.234207 
L 270.999717 156.453517 
L 271.515861 156.453517 
L 272.032005 192.602483 
L 273.064293 234.312828 
L 273.580436 234.312828 
L 274.09658 206.505931 
L 274.612724 206.505931 
L 275.128868 209.286621 
L 275.645012 220.409379 
L 276.161156 212.06731 
L 276.6773 220.409379 
L 277.193444 217.62869 
L 277.709588 239.874207 
L 278.225732 234.312828 
L 278.741876 239.874207 
L 279.25802 217.62869 
L 279.774164 223.190069 
L 280.290308 223.190069 
L 280.806452 217.62869 
L 281.322596 220.409379 
L 281.83874 203.725241 
L 282.354884 228.751448 
L 282.871028 206.505931 
L 283.387172 200.944552 
L 283.903316 181.479724 
L 284.419459 173.137655 
L 284.935603 175.918345 
L 285.451747 173.137655 
L 285.967891 150.892138 
L 286.484035 139.769379 
L 287.000179 131.42731 
L 287.516323 142.550069 
L 288.032467 128.646621 
L 288.548611 139.769379 
L 289.064755 142.550069 
L 289.580899 164.795586 
L 290.097043 156.453517 
L 290.613187 153.672828 
L 291.129331 148.111448 
L 292.161619 148.111448 
L 292.677763 150.892138 
L 293.710051 187.041103 
L 294.226195 184.260414 
L 294.742338 145.330759 
L 295.258482 159.234207 
L 295.774626 200.944552 
L 296.29077 220.409379 
L 296.806914 214.848 
L 297.323058 250.996966 
L 298.355346 256.558345 
L 298.87149 262.119724 
L 299.387634 256.558345 
L 299.903778 262.119724 
L 300.419922 242.654897 
L 300.936066 239.874207 
L 301.45221 248.216276 
L 301.968354 239.874207 
L 302.484498 239.874207 
L 303.000642 253.777655 
L 303.516786 250.996966 
L 304.03293 256.558345 
L 304.549074 231.532138 
L 305.065218 220.409379 
L 305.581361 228.751448 
L 306.097505 239.874207 
L 306.613649 245.435586 
L 307.129793 231.532138 
L 307.645937 237.093517 
L 308.162081 239.874207 
L 308.678225 259.339034 
L 309.194369 214.848 
L 309.710513 228.751448 
L 310.226657 225.970759 
L 310.742801 217.62869 
L 311.258945 248.216276 
L 311.775089 245.435586 
L 312.291233 231.532138 
L 312.807377 237.093517 
L 313.323521 245.435586 
L 314.355809 234.312828 
L 314.871953 231.532138 
L 315.388097 225.970759 
L 315.90424 248.216276 
L 316.420384 237.093517 
L 316.936528 239.874207 
L 317.452672 228.751448 
L 317.968816 231.532138 
L 318.48496 200.944552 
L 319.001104 209.286621 
L 319.517248 184.260414 
L 320.033392 175.918345 
L 320.549536 156.453517 
L 321.06568 153.672828 
L 321.581824 153.672828 
L 322.097968 159.234207 
L 322.614112 120.304552 
L 323.130256 123.085241 
L 323.6464 142.550069 
L 324.162544 139.769379 
L 324.678688 111.962483 
L 325.194832 131.42731 
L 325.710976 162.014897 
L 326.22712 139.769379 
L 326.743263 156.453517 
L 327.259407 156.453517 
L 327.775551 142.550069 
L 328.291695 164.795586 
L 328.807839 173.137655 
L 329.323983 170.356966 
L 329.840127 181.479724 
L 330.356271 184.260414 
L 330.872415 181.479724 
L 331.388559 195.383172 
L 331.904703 189.821793 
L 332.420847 175.918345 
L 332.936991 178.699034 
L 333.453135 173.137655 
L 333.969279 175.918345 
L 334.485423 184.260414 
L 335.001567 184.260414 
L 335.517711 189.821793 
L 336.033855 181.479724 
L 336.549999 195.383172 
L 337.066143 189.821793 
L 337.582286 178.699034 
L 338.09843 195.383172 
L 338.614574 192.602483 
L 339.130718 198.163862 
L 339.646862 220.409379 
L 340.163006 214.848 
L 340.67915 212.06731 
L 341.195294 200.944552 
L 341.711438 187.041103 
L 342.743726 198.163862 
L 343.776014 203.725241 
L 344.292158 212.06731 
L 344.808302 209.286621 
L 345.84059 209.286621 
L 346.356734 225.970759 
L 346.872878 212.06731 
L 347.389022 153.672828 
L 347.905165 170.356966 
L 348.421309 220.409379 
L 349.453597 231.532138 
L 350.485885 248.216276 
L 351.002029 242.654897 
L 351.518173 242.654897 
L 352.034317 245.435586 
L 352.550461 239.874207 
L 353.066605 231.532138 
L 353.582749 225.970759 
L 354.098893 184.260414 
L 354.615037 181.479724 
L 355.131181 187.041103 
L 356.163469 170.356966 
L 356.679613 153.672828 
L 357.195757 189.821793 
L 357.711901 187.041103 
L 358.228045 178.699034 
L 358.744188 189.821793 
L 359.260332 209.286621 
L 359.776476 200.944552 
L 360.808764 175.918345 
L 361.324908 203.725241 
L 361.841052 223.190069 
L 362.357196 206.505931 
L 362.87334 209.286621 
L 363.389484 200.944552 
L 363.905628 195.383172 
L 364.421772 206.505931 
L 364.937916 214.848 
L 365.45406 220.409379 
L 365.970204 223.190069 
L 367.002492 192.602483 
L 367.518636 178.699034 
L 368.03478 189.821793 
L 368.550924 175.918345 
L 369.067067 198.163862 
L 369.583211 195.383172 
L 370.099355 195.383172 
L 370.615499 184.260414 
L 371.131643 187.041103 
L 371.647787 198.163862 
L 372.163931 192.602483 
L 372.680075 206.505931 
L 373.196219 198.163862 
L 373.712363 192.602483 
L 374.228507 184.260414 
L 374.744651 209.286621 
L 375.260795 217.62869 
L 375.776939 228.751448 
L 376.293083 234.312828 
L 376.809227 220.409379 
L 377.325371 231.532138 
L 378.357659 203.725241 
L 378.873803 184.260414 
L 379.389947 181.479724 
L 379.90609 175.918345 
L 380.422234 173.137655 
L 380.938378 206.505931 
L 381.454522 206.505931 
L 381.970666 195.383172 
L 382.48681 192.602483 
L 383.002954 203.725241 
L 383.519098 198.163862 
L 384.035242 200.944552 
L 384.551386 217.62869 
L 385.06753 217.62869 
L 385.583674 242.654897 
L 386.099818 239.874207 
L 386.615962 239.874207 
L 388.164394 223.190069 
L 388.680538 223.190069 
L 389.196682 214.848 
L 389.712826 209.286621 
L 390.22897 206.505931 
L 390.745113 237.093517 
L 391.261257 209.286621 
L 391.777401 200.944552 
L 392.809689 189.821793 
L 393.325833 198.163862 
L 393.841977 195.383172 
L 394.358121 198.163862 
L 395.390409 159.234207 
L 395.906553 145.330759 
L 396.938841 167.576276 
L 397.454985 145.330759 
L 397.971129 145.330759 
L 398.487273 139.769379 
L 398.487273 139.769379 
" clip-path="url(#p92220cf2ac)" style="fill: none; stroke: #1f77b4; stroke-width: 1.5; stroke-linecap: square"/>
   </g>
   <g id="patch_3">
    <path d="M 57.6 307.584 
L 57.6 41.472 
" style="fill: none; stroke: #000000; stroke-width: 0.8; stroke-linejoin: miter; stroke-linecap: square"/>
   </g>
   <g id="patch_4">
    <path d="M 414.72 307.584 
L 414.72 41.472 
" style="fill: none; stroke: #000000; stroke-width: 0.8; stroke-linejoin: miter; stroke-linecap: square"/>
   </g>
   <g id="patch_5">
    <path d="M 57.6 307.584 
L 414.72 307.584 
" style="fill: none; stroke: #000000; stroke-width: 0.8; stroke-linejoin: miter; stroke-linecap: square"/>
   </g>
   <g id="patch_6">
    <path d="M 57.6 41.472 
L 414.72 41.472 
" style="fill: none; stroke: #000000; stroke-width: 0.8; stroke-linejoin: miter; stroke-linecap: square"/>
   </g>
   <g id="text_15">
    <!-- Simulated Anealling Cost -->
    <g transform="translate(160.8 35.472)scale(0.12 -0.12)">
     <defs>
      <path id="DejaVuSans-53" d="M 3425 4513 
L 3425 3897 
Q 3066 4069 2747 4153 
Q 2428 4238 2131 4238 
Q 1616 4238 1336 4038 
Q 1056 3838 1056 3469 
Q 1056 3159 1242 3001 
Q 1428 2844 1947 2747 
L 2328 2669 
Q 3034 2534 3370 2195 
Q 3706 1856 3706 1288 
Q 3706 609 3251 259 
Q 2797 -91 1919 -91 
Q 1588 -91 1214 -16 
Q 841 59 441 206 
L 441 856 
Q 825 641 1194 531 
Q 1563 422 1919 422 
Q 2459 422 2753 634 
Q 3047 847 3047 1241 
Q 3047 1584 2836 1778 
Q 2625 1972 2144 2069 
L 1759 2144 
Q 1053 2284 737 2584 
Q 422 2884 422 3419 
Q 422 4038 858 4394 
Q 1294 4750 2059 4750 
Q 2388 4750 2728 4690 
Q 3069 4631 3425 4513 
z
" transform="scale(0.015625)"/>
      <path id="DejaVuSans-69" d="M 603 3500 
L 1178 3500 
L 1178 0 
L 603 0 
L 603 3500 
z
M 603 4863 
L 1178 4863 
L 1178 4134 
L 603 4134 
L 603 4863 
z
" transform="scale(0.015625)"/>
      <path id="DejaVuSans-65" d="M 3597 1894 
L 3597 1613 
L 953 1613 
Q 991 1019 1311 708 
Q 1631 397 2203 397 
Q 2534 397 2845 478 
Q 3156 559 3463 722 
L 3463 178 
Q 3153 47 2828 -22 
Q 2503 -91 2169 -91 
Q 1331 -91 842 396 
Q 353 884 353 1716 
Q 353 2575 817 3079 
Q 1281 3584 2069 3584 
Q 2775 3584 3186 3129 
Q 3597 2675 3597 1894 
z
M 3022 2063 
Q 3016 2534 2758 2815 
Q 2500 3097 2075 3097 
Q 1594 3097 1305 2825 
Q 1016 2553 972 2059 
L 3022 2063 
z
" transform="scale(0.015625)"/>
      <path id="DejaVuSans-64" d="M 2906 2969 
L 2906 4863 
L 3481 4863 
L 3481 0 
L 2906 0 
L 2906 525 
Q 2725 213 2448 61 
Q 2172 -91 1784 -91 
Q 1150 -91 751 415 
Q 353 922 353 1747 
Q 353 2572 751 3078 
Q 1150 3584 1784 3584 
Q 2172 3584 2448 3432 
Q 2725 3281 2906 2969 
z
M 947 1747 
Q 947 1113 1208 752 
Q 1469 391 1925 391 
Q 2381 391 2643 752 
Q 2906 1113 2906 1747 
Q 2906 2381 2643 2742 
Q 2381 3103 1925 3103 
Q 1469 3103 1208 2742 
Q 947 2381 947 1747 
z
" transform="scale(0.015625)"/>
      <path id="DejaVuSans-41" d="M 2188 4044 
L 1331 1722 
L 3047 1722 
L 2188 4044 
z
M 1831 4666 
L 2547 4666 
L 4325 0 
L 3669 0 
L 3244 1197 
L 1141 1197 
L 716 0 
L 50 0 
L 1831 4666 
z
" transform="scale(0.015625)"/>
      <path id="DejaVuSans-67" d="M 2906 1791 
Q 2906 2416 2648 2759 
Q 2391 3103 1925 3103 
Q 1463 3103 1205 2759 
Q 947 2416 947 1791 
Q 947 1169 1205 825 
Q 1463 481 1925 481 
Q 2391 481 2648 825 
Q 2906 1169 2906 1791 
z
M 3481 434 
Q 3481 -459 3084 -895 
Q 2688 -1331 1869 -1331 
Q 1566 -1331 1297 -1286 
Q 1028 -1241 775 -1147 
L 775 -588 
Q 1028 -725 1275 -790 
Q 1522 -856 1778 -856 
Q 2344 -856 2625 -561 
Q 2906 -266 2906 331 
L 2906 616 
Q 2728 306 2450 153 
Q 2172 0 1784 0 
Q 1141 0 747 490 
Q 353 981 353 1791 
Q 353 2603 747 3093 
Q 1141 3584 1784 3584 
Q 2172 3584 2450 3431 
Q 2728 3278 2906 2969 
L 2906 3500 
L 3481 3500 
L 3481 434 
z
" transform="scale(0.015625)"/>
      <path id="DejaVuSans-43" d="M 4122 4306 
L 4122 3641 
Q 3803 3938 3442 4084 
Q 3081 4231 2675 4231 
Q 1875 4231 1450 3742 
Q 1025 3253 1025 2328 
Q 1025 1406 1450 917 
Q 1875 428 2675 428 
Q 3081 428 3442 575 
Q 3803 722 4122 1019 
L 4122 359 
Q 3791 134 3420 21 
Q 3050 -91 2638 -91 
Q 1578 -91 968 557 
Q 359 1206 359 2328 
Q 359 3453 968 4101 
Q 1578 4750 2638 4750 
Q 3056 4750 3426 4639 
Q 3797 4528 4122 4306 
z
" transform="scale(0.015625)"/>
     </defs>
     <use xlink:href="#DejaVuSans-53"/>
     <use xlink:href="#DejaVuSans-69" x="63.476562"/>
     <use xlink:href="#DejaVuSans-6d" x="91.259766"/>
     <use xlink:href="#DejaVuSans-75" x="188.671875"/>
     <use xlink:href="#DejaVuSans-6c" x="252.050781"/>
     <use xlink:href="#DejaVuSans-61" x="279.833984"/>
     <use xlink:href="#DejaVuSans-74" x="341.113281"/>
     <use xlink:href="#DejaVuSans-65" x="380.322266"/>
     <use xlink:href="#DejaVuSans-64" x="441.845703"/>
     <use xlink:href="#DejaVuSans-20" x="505.322266"/>
     <use xlink:href="#DejaVuSans-41" x="537.109375"/>
     <use xlink:href="#DejaVuSans-6e" x="605.517578"/>
     <use xlink:href="#DejaVuSans-65" x="668.896484"/>
     <use xlink:href="#DejaVuSans-61" x="730.419922"/>
     <use xlink:href="#DejaVuSans-6c" x="791.699219"/>
     <use xlink:href="#DejaVuSans-6c" x="819.482422"/>
     <use xlink:href="#DejaVuSans-69" x="847.265625"/>
     <use xlink:href="#DejaVuSans-6e" x="875.048828"/>
     <use xlink:href="#DejaVuSans-67" x="938.427734"/>
     <use xlink:href="#DejaVuSans-20" x="1001.904297"/>
     <use xlink:href="#DejaVuSans-43" x="1033.691406"/>
     <use xlink:href="#DejaVuSans-6f" x="1103.515625"/>
     <use xlink:href="#DejaVuSans-73" x="1164.697266"/>
     <use xlink:href="#DejaVuSans-74" x="1216.796875"/>
    </g>
   </g>
  </g>
 </g>
 <defs>
  <clipPath id="p92220cf2ac">
   <rect x="57.6" y="41.472" width="357.12" height="266.112"/>
  </clipPath>
 </defs>
</svg>
