<?xml version="1.0" encoding="utf-8" standalone="no"?>
<!DOCTYPE svg PUBLIC "-//W3C//DTD SVG 1.1//EN"
  "http://www.w3.org/Graphics/SVG/1.1/DTD/svg11.dtd">
<svg xmlns:xlink="http://www.w3.org/1999/xlink" width="460.8pt" height="345.6pt" viewBox="0 0 460.8 345.6" xmlns="http://www.w3.org/2000/svg" version="1.1">
 <metadata>
  <rdf:RDF xmlns:dc="http://purl.org/dc/elements/1.1/" xmlns:cc="http://creativecommons.org/ns#" xmlns:rdf="http://www.w3.org/1999/02/22-rdf-syntax-ns#">
   <cc:Work>
    <dc:type rdf:resource="http://purl.org/dc/dcmitype/StillImage"/>
    <dc:date>2022-06-01T08:04:29.168670</dc:date>
    <dc:format>image/svg+xml</dc:format>
    <dc:creator>
     <cc:Agent>
      <dc:title>Matplotlib v3.5.1, https://matplotlib.org/</dc:title>
     </cc:Agent>
    </dc:creator>
   </cc:Work>
  </rdf:RDF>
 </metadata>
 <defs>
  <style type="text/css">*{stroke-linejoin: round; stroke-linecap: butt}</style>
 </defs>
 <g id="figure_1">
  <g id="patch_1">
   <path d="M 0 345.6 
L 460.8 345.6 
L 460.8 0 
L 0 0 
z
" style="fill: #ffffff"/>
  </g>
  <g id="axes_1">
   <g id="patch_2">
    <path d="M 57.6 307.584 
L 414.72 307.584 
L 414.72 41.472 
L 57.6 41.472 
z
" style="fill: #ffffff"/>
   </g>
   <g id="matplotlib.axis_1">
    <g id="xtick_1">
     <g id="line2d_1">
      <defs>
       <path id="m8bbae24e4e" d="M 0 0 
L 0 3.5 
" style="stroke: #000000; stroke-width: 0.8"/>
      </defs>
      <g>
       <use xlink:href="#m8bbae24e4e" x="73.832727" y="307.584" style="stroke: #000000; stroke-width: 0.8"/>
      </g>
     </g>
     <g id="text_1">
      <!-- 0 -->
      <g transform="translate(70.651477 322.182437)scale(0.1 -0.1)">
       <defs>
        <path id="DejaVuSans-30" d="M 2034 4250 
Q 1547 4250 1301 3770 
Q 1056 3291 1056 2328 
Q 1056 1369 1301 889 
Q 1547 409 2034 409 
Q 2525 409 2770 889 
Q 3016 1369 3016 2328 
Q 3016 3291 2770 3770 
Q 2525 4250 2034 4250 
z
M 2034 4750 
Q 2819 4750 3233 4129 
Q 3647 3509 3647 2328 
Q 3647 1150 3233 529 
Q 2819 -91 2034 -91 
Q 1250 -91 836 529 
Q 422 1150 422 2328 
Q 422 3509 836 4129 
Q 1250 4750 2034 4750 
z
" transform="scale(0.015625)"/>
       </defs>
       <use xlink:href="#DejaVuSans-30"/>
      </g>
     </g>
    </g>
    <g id="xtick_2">
     <g id="line2d_2">
      <g>
       <use xlink:href="#m8bbae24e4e" x="126.536387" y="307.584" style="stroke: #000000; stroke-width: 0.8"/>
      </g>
     </g>
     <g id="text_2">
      <!-- 200 -->
      <g transform="translate(116.992637 322.182437)scale(0.1 -0.1)">
       <defs>
        <path id="DejaVuSans-32" d="M 1228 531 
L 3431 531 
L 3431 0 
L 469 0 
L 469 531 
Q 828 903 1448 1529 
Q 2069 2156 2228 2338 
Q 2531 2678 2651 2914 
Q 2772 3150 2772 3378 
Q 2772 3750 2511 3984 
Q 2250 4219 1831 4219 
Q 1534 4219 1204 4116 
Q 875 4013 500 3803 
L 500 4441 
Q 881 4594 1212 4672 
Q 1544 4750 1819 4750 
Q 2544 4750 2975 4387 
Q 3406 4025 3406 3419 
Q 3406 3131 3298 2873 
Q 3191 2616 2906 2266 
Q 2828 2175 2409 1742 
Q 1991 1309 1228 531 
z
" transform="scale(0.015625)"/>
       </defs>
       <use xlink:href="#DejaVuSans-32"/>
       <use xlink:href="#DejaVuSans-30" x="63.623047"/>
       <use xlink:href="#DejaVuSans-30" x="127.246094"/>
      </g>
     </g>
    </g>
    <g id="xtick_3">
     <g id="line2d_3">
      <g>
       <use xlink:href="#m8bbae24e4e" x="179.240047" y="307.584" style="stroke: #000000; stroke-width: 0.8"/>
      </g>
     </g>
     <g id="text_3">
      <!-- 400 -->
      <g transform="translate(169.696297 322.182437)scale(0.1 -0.1)">
       <defs>
        <path id="DejaVuSans-34" d="M 2419 4116 
L 825 1625 
L 2419 1625 
L 2419 4116 
z
M 2253 4666 
L 3047 4666 
L 3047 1625 
L 3713 1625 
L 3713 1100 
L 3047 1100 
L 3047 0 
L 2419 0 
L 2419 1100 
L 313 1100 
L 313 1709 
L 2253 4666 
z
" transform="scale(0.015625)"/>
       </defs>
       <use xlink:href="#DejaVuSans-34"/>
       <use xlink:href="#DejaVuSans-30" x="63.623047"/>
       <use xlink:href="#DejaVuSans-30" x="127.246094"/>
      </g>
     </g>
    </g>
    <g id="xtick_4">
     <g id="line2d_4">
      <g>
       <use xlink:href="#m8bbae24e4e" x="231.943707" y="307.584" style="stroke: #000000; stroke-width: 0.8"/>
      </g>
     </g>
     <g id="text_4">
      <!-- 600 -->
      <g transform="translate(222.399957 322.182437)scale(0.1 -0.1)">
       <defs>
        <path id="DejaVuSans-36" d="M 2113 2584 
Q 1688 2584 1439 2293 
Q 1191 2003 1191 1497 
Q 1191 994 1439 701 
Q 1688 409 2113 409 
Q 2538 409 2786 701 
Q 3034 994 3034 1497 
Q 3034 2003 2786 2293 
Q 2538 2584 2113 2584 
z
M 3366 4563 
L 3366 3988 
Q 3128 4100 2886 4159 
Q 2644 4219 2406 4219 
Q 1781 4219 1451 3797 
Q 1122 3375 1075 2522 
Q 1259 2794 1537 2939 
Q 1816 3084 2150 3084 
Q 2853 3084 3261 2657 
Q 3669 2231 3669 1497 
Q 3669 778 3244 343 
Q 2819 -91 2113 -91 
Q 1303 -91 875 529 
Q 447 1150 447 2328 
Q 447 3434 972 4092 
Q 1497 4750 2381 4750 
Q 2619 4750 2861 4703 
Q 3103 4656 3366 4563 
z
" transform="scale(0.015625)"/>
       </defs>
       <use xlink:href="#DejaVuSans-36"/>
       <use xlink:href="#DejaVuSans-30" x="63.623047"/>
       <use xlink:href="#DejaVuSans-30" x="127.246094"/>
      </g>
     </g>
    </g>
    <g id="xtick_5">
     <g id="line2d_5">
      <g>
       <use xlink:href="#m8bbae24e4e" x="284.647367" y="307.584" style="stroke: #000000; stroke-width: 0.8"/>
      </g>
     </g>
     <g id="text_5">
      <!-- 800 -->
      <g transform="translate(275.103617 322.182437)scale(0.1 -0.1)">
       <defs>
        <path id="DejaVuSans-38" d="M 2034 2216 
Q 1584 2216 1326 1975 
Q 1069 1734 1069 1313 
Q 1069 891 1326 650 
Q 1584 409 2034 409 
Q 2484 409 2743 651 
Q 3003 894 3003 1313 
Q 3003 1734 2745 1975 
Q 2488 2216 2034 2216 
z
M 1403 2484 
Q 997 2584 770 2862 
Q 544 3141 544 3541 
Q 544 4100 942 4425 
Q 1341 4750 2034 4750 
Q 2731 4750 3128 4425 
Q 3525 4100 3525 3541 
Q 3525 3141 3298 2862 
Q 3072 2584 2669 2484 
Q 3125 2378 3379 2068 
Q 3634 1759 3634 1313 
Q 3634 634 3220 271 
Q 2806 -91 2034 -91 
Q 1263 -91 848 271 
Q 434 634 434 1313 
Q 434 1759 690 2068 
Q 947 2378 1403 2484 
z
M 1172 3481 
Q 1172 3119 1398 2916 
Q 1625 2713 2034 2713 
Q 2441 2713 2670 2916 
Q 2900 3119 2900 3481 
Q 2900 3844 2670 4047 
Q 2441 4250 2034 4250 
Q 1625 4250 1398 4047 
Q 1172 3844 1172 3481 
z
" transform="scale(0.015625)"/>
       </defs>
       <use xlink:href="#DejaVuSans-38"/>
       <use xlink:href="#DejaVuSans-30" x="63.623047"/>
       <use xlink:href="#DejaVuSans-30" x="127.246094"/>
      </g>
     </g>
    </g>
    <g id="xtick_6">
     <g id="line2d_6">
      <g>
       <use xlink:href="#m8bbae24e4e" x="337.351027" y="307.584" style="stroke: #000000; stroke-width: 0.8"/>
      </g>
     </g>
     <g id="text_6">
      <!-- 1000 -->
      <g transform="translate(324.626027 322.182437)scale(0.1 -0.1)">
       <defs>
        <path id="DejaVuSans-31" d="M 794 531 
L 1825 531 
L 1825 4091 
L 703 3866 
L 703 4441 
L 1819 4666 
L 2450 4666 
L 2450 531 
L 3481 531 
L 3481 0 
L 794 0 
L 794 531 
z
" transform="scale(0.015625)"/>
       </defs>
       <use xlink:href="#DejaVuSans-31"/>
       <use xlink:href="#DejaVuSans-30" x="63.623047"/>
       <use xlink:href="#DejaVuSans-30" x="127.246094"/>
       <use xlink:href="#DejaVuSans-30" x="190.869141"/>
      </g>
     </g>
    </g>
    <g id="xtick_7">
     <g id="line2d_7">
      <g>
       <use xlink:href="#m8bbae24e4e" x="390.054687" y="307.584" style="stroke: #000000; stroke-width: 0.8"/>
      </g>
     </g>
     <g id="text_7">
      <!-- 1200 -->
      <g transform="translate(377.329687 322.182437)scale(0.1 -0.1)">
       <use xlink:href="#DejaVuSans-31"/>
       <use xlink:href="#DejaVuSans-32" x="63.623047"/>
       <use xlink:href="#DejaVuSans-30" x="127.246094"/>
       <use xlink:href="#DejaVuSans-30" x="190.869141"/>
      </g>
     </g>
    </g>
    <g id="text_8">
     <!-- num swaps -->
     <g transform="translate(207.826406 335.860562)scale(0.1 -0.1)">
      <defs>
       <path id="DejaVuSans-6e" d="M 3513 2113 
L 3513 0 
L 2938 0 
L 2938 2094 
Q 2938 2591 2744 2837 
Q 2550 3084 2163 3084 
Q 1697 3084 1428 2787 
Q 1159 2491 1159 1978 
L 1159 0 
L 581 0 
L 581 3500 
L 1159 3500 
L 1159 2956 
Q 1366 3272 1645 3428 
Q 1925 3584 2291 3584 
Q 2894 3584 3203 3211 
Q 3513 2838 3513 2113 
z
" transform="scale(0.015625)"/>
       <path id="DejaVuSans-75" d="M 544 1381 
L 544 3500 
L 1119 3500 
L 1119 1403 
Q 1119 906 1312 657 
Q 1506 409 1894 409 
Q 2359 409 2629 706 
Q 2900 1003 2900 1516 
L 2900 3500 
L 3475 3500 
L 3475 0 
L 2900 0 
L 2900 538 
Q 2691 219 2414 64 
Q 2138 -91 1772 -91 
Q 1169 -91 856 284 
Q 544 659 544 1381 
z
M 1991 3584 
L 1991 3584 
z
" transform="scale(0.015625)"/>
       <path id="DejaVuSans-6d" d="M 3328 2828 
Q 3544 3216 3844 3400 
Q 4144 3584 4550 3584 
Q 5097 3584 5394 3201 
Q 5691 2819 5691 2113 
L 5691 0 
L 5113 0 
L 5113 2094 
Q 5113 2597 4934 2840 
Q 4756 3084 4391 3084 
Q 3944 3084 3684 2787 
Q 3425 2491 3425 1978 
L 3425 0 
L 2847 0 
L 2847 2094 
Q 2847 2600 2669 2842 
Q 2491 3084 2119 3084 
Q 1678 3084 1418 2786 
Q 1159 2488 1159 1978 
L 1159 0 
L 581 0 
L 581 3500 
L 1159 3500 
L 1159 2956 
Q 1356 3278 1631 3431 
Q 1906 3584 2284 3584 
Q 2666 3584 2933 3390 
Q 3200 3197 3328 2828 
z
" transform="scale(0.015625)"/>
       <path id="DejaVuSans-20" transform="scale(0.015625)"/>
       <path id="DejaVuSans-73" d="M 2834 3397 
L 2834 2853 
Q 2591 2978 2328 3040 
Q 2066 3103 1784 3103 
Q 1356 3103 1142 2972 
Q 928 2841 928 2578 
Q 928 2378 1081 2264 
Q 1234 2150 1697 2047 
L 1894 2003 
Q 2506 1872 2764 1633 
Q 3022 1394 3022 966 
Q 3022 478 2636 193 
Q 2250 -91 1575 -91 
Q 1294 -91 989 -36 
Q 684 19 347 128 
L 347 722 
Q 666 556 975 473 
Q 1284 391 1588 391 
Q 1994 391 2212 530 
Q 2431 669 2431 922 
Q 2431 1156 2273 1281 
Q 2116 1406 1581 1522 
L 1381 1569 
Q 847 1681 609 1914 
Q 372 2147 372 2553 
Q 372 3047 722 3315 
Q 1072 3584 1716 3584 
Q 2034 3584 2315 3537 
Q 2597 3491 2834 3397 
z
" transform="scale(0.015625)"/>
       <path id="DejaVuSans-77" d="M 269 3500 
L 844 3500 
L 1563 769 
L 2278 3500 
L 2956 3500 
L 3675 769 
L 4391 3500 
L 4966 3500 
L 4050 0 
L 3372 0 
L 2619 2869 
L 1863 0 
L 1184 0 
L 269 3500 
z
" transform="scale(0.015625)"/>
       <path id="DejaVuSans-61" d="M 2194 1759 
Q 1497 1759 1228 1600 
Q 959 1441 959 1056 
Q 959 750 1161 570 
Q 1363 391 1709 391 
Q 2188 391 2477 730 
Q 2766 1069 2766 1631 
L 2766 1759 
L 2194 1759 
z
M 3341 1997 
L 3341 0 
L 2766 0 
L 2766 531 
Q 2569 213 2275 61 
Q 1981 -91 1556 -91 
Q 1019 -91 701 211 
Q 384 513 384 1019 
Q 384 1609 779 1909 
Q 1175 2209 1959 2209 
L 2766 2209 
L 2766 2266 
Q 2766 2663 2505 2880 
Q 2244 3097 1772 3097 
Q 1472 3097 1187 3025 
Q 903 2953 641 2809 
L 641 3341 
Q 956 3463 1253 3523 
Q 1550 3584 1831 3584 
Q 2591 3584 2966 3190 
Q 3341 2797 3341 1997 
z
" transform="scale(0.015625)"/>
       <path id="DejaVuSans-70" d="M 1159 525 
L 1159 -1331 
L 581 -1331 
L 581 3500 
L 1159 3500 
L 1159 2969 
Q 1341 3281 1617 3432 
Q 1894 3584 2278 3584 
Q 2916 3584 3314 3078 
Q 3713 2572 3713 1747 
Q 3713 922 3314 415 
Q 2916 -91 2278 -91 
Q 1894 -91 1617 61 
Q 1341 213 1159 525 
z
M 3116 1747 
Q 3116 2381 2855 2742 
Q 2594 3103 2138 3103 
Q 1681 3103 1420 2742 
Q 1159 2381 1159 1747 
Q 1159 1113 1420 752 
Q 1681 391 2138 391 
Q 2594 391 2855 752 
Q 3116 1113 3116 1747 
z
" transform="scale(0.015625)"/>
      </defs>
      <use xlink:href="#DejaVuSans-6e"/>
      <use xlink:href="#DejaVuSans-75" x="63.378906"/>
      <use xlink:href="#DejaVuSans-6d" x="126.757812"/>
      <use xlink:href="#DejaVuSans-20" x="224.169922"/>
      <use xlink:href="#DejaVuSans-73" x="255.957031"/>
      <use xlink:href="#DejaVuSans-77" x="308.056641"/>
      <use xlink:href="#DejaVuSans-61" x="389.84375"/>
      <use xlink:href="#DejaVuSans-70" x="451.123047"/>
      <use xlink:href="#DejaVuSans-73" x="514.599609"/>
     </g>
    </g>
   </g>
   <g id="matplotlib.axis_2">
    <g id="ytick_1">
     <g id="line2d_8">
      <defs>
       <path id="m5de07fe1a5" d="M 0 0 
L -3.5 0 
" style="stroke: #000000; stroke-width: 0.8"/>
      </defs>
      <g>
       <use xlink:href="#m5de07fe1a5" x="57.6" y="284.097148" style="stroke: #000000; stroke-width: 0.8"/>
      </g>
     </g>
     <g id="text_9">
      <!-- 1100 -->
      <g transform="translate(25.15 287.896367)scale(0.1 -0.1)">
       <use xlink:href="#DejaVuSans-31"/>
       <use xlink:href="#DejaVuSans-31" x="63.623047"/>
       <use xlink:href="#DejaVuSans-30" x="127.246094"/>
       <use xlink:href="#DejaVuSans-30" x="190.869141"/>
      </g>
     </g>
    </g>
    <g id="ytick_2">
     <g id="line2d_9">
      <g>
       <use xlink:href="#m5de07fe1a5" x="57.6" y="229.854996" style="stroke: #000000; stroke-width: 0.8"/>
      </g>
     </g>
     <g id="text_10">
      <!-- 1200 -->
      <g transform="translate(25.15 233.654214)scale(0.1 -0.1)">
       <use xlink:href="#DejaVuSans-31"/>
       <use xlink:href="#DejaVuSans-32" x="63.623047"/>
       <use xlink:href="#DejaVuSans-30" x="127.246094"/>
       <use xlink:href="#DejaVuSans-30" x="190.869141"/>
      </g>
     </g>
    </g>
    <g id="ytick_3">
     <g id="line2d_10">
      <g>
       <use xlink:href="#m5de07fe1a5" x="57.6" y="175.612843" style="stroke: #000000; stroke-width: 0.8"/>
      </g>
     </g>
     <g id="text_11">
      <!-- 1300 -->
      <g transform="translate(25.15 179.412062)scale(0.1 -0.1)">
       <defs>
        <path id="DejaVuSans-33" d="M 2597 2516 
Q 3050 2419 3304 2112 
Q 3559 1806 3559 1356 
Q 3559 666 3084 287 
Q 2609 -91 1734 -91 
Q 1441 -91 1130 -33 
Q 819 25 488 141 
L 488 750 
Q 750 597 1062 519 
Q 1375 441 1716 441 
Q 2309 441 2620 675 
Q 2931 909 2931 1356 
Q 2931 1769 2642 2001 
Q 2353 2234 1838 2234 
L 1294 2234 
L 1294 2753 
L 1863 2753 
Q 2328 2753 2575 2939 
Q 2822 3125 2822 3475 
Q 2822 3834 2567 4026 
Q 2313 4219 1838 4219 
Q 1578 4219 1281 4162 
Q 984 4106 628 3988 
L 628 4550 
Q 988 4650 1302 4700 
Q 1616 4750 1894 4750 
Q 2613 4750 3031 4423 
Q 3450 4097 3450 3541 
Q 3450 3153 3228 2886 
Q 3006 2619 2597 2516 
z
" transform="scale(0.015625)"/>
       </defs>
       <use xlink:href="#DejaVuSans-31"/>
       <use xlink:href="#DejaVuSans-33" x="63.623047"/>
       <use xlink:href="#DejaVuSans-30" x="127.246094"/>
       <use xlink:href="#DejaVuSans-30" x="190.869141"/>
      </g>
     </g>
    </g>
    <g id="ytick_4">
     <g id="line2d_11">
      <g>
       <use xlink:href="#m5de07fe1a5" x="57.6" y="121.370691" style="stroke: #000000; stroke-width: 0.8"/>
      </g>
     </g>
     <g id="text_12">
      <!-- 1400 -->
      <g transform="translate(25.15 125.169909)scale(0.1 -0.1)">
       <use xlink:href="#DejaVuSans-31"/>
       <use xlink:href="#DejaVuSans-34" x="63.623047"/>
       <use xlink:href="#DejaVuSans-30" x="127.246094"/>
       <use xlink:href="#DejaVuSans-30" x="190.869141"/>
      </g>
     </g>
    </g>
    <g id="ytick_5">
     <g id="line2d_12">
      <g>
       <use xlink:href="#m5de07fe1a5" x="57.6" y="67.128538" style="stroke: #000000; stroke-width: 0.8"/>
      </g>
     </g>
     <g id="text_13">
      <!-- 1500 -->
      <g transform="translate(25.15 70.927757)scale(0.1 -0.1)">
       <defs>
        <path id="DejaVuSans-35" d="M 691 4666 
L 3169 4666 
L 3169 4134 
L 1269 4134 
L 1269 2991 
Q 1406 3038 1543 3061 
Q 1681 3084 1819 3084 
Q 2600 3084 3056 2656 
Q 3513 2228 3513 1497 
Q 3513 744 3044 326 
Q 2575 -91 1722 -91 
Q 1428 -91 1123 -41 
Q 819 9 494 109 
L 494 744 
Q 775 591 1075 516 
Q 1375 441 1709 441 
Q 2250 441 2565 725 
Q 2881 1009 2881 1497 
Q 2881 1984 2565 2268 
Q 2250 2553 1709 2553 
Q 1456 2553 1204 2497 
Q 953 2441 691 2322 
L 691 4666 
z
" transform="scale(0.015625)"/>
       </defs>
       <use xlink:href="#DejaVuSans-31"/>
       <use xlink:href="#DejaVuSans-35" x="63.623047"/>
       <use xlink:href="#DejaVuSans-30" x="127.246094"/>
       <use xlink:href="#DejaVuSans-30" x="190.869141"/>
      </g>
     </g>
    </g>
    <g id="text_14">
     <!-- total cost -->
     <g transform="translate(19.070312 197.923313)rotate(-90)scale(0.1 -0.1)">
      <defs>
       <path id="DejaVuSans-74" d="M 1172 4494 
L 1172 3500 
L 2356 3500 
L 2356 3053 
L 1172 3053 
L 1172 1153 
Q 1172 725 1289 603 
Q 1406 481 1766 481 
L 2356 481 
L 2356 0 
L 1766 0 
Q 1100 0 847 248 
Q 594 497 594 1153 
L 594 3053 
L 172 3053 
L 172 3500 
L 594 3500 
L 594 4494 
L 1172 4494 
z
" transform="scale(0.015625)"/>
       <path id="DejaVuSans-6f" d="M 1959 3097 
Q 1497 3097 1228 2736 
Q 959 2375 959 1747 
Q 959 1119 1226 758 
Q 1494 397 1959 397 
Q 2419 397 2687 759 
Q 2956 1122 2956 1747 
Q 2956 2369 2687 2733 
Q 2419 3097 1959 3097 
z
M 1959 3584 
Q 2709 3584 3137 3096 
Q 3566 2609 3566 1747 
Q 3566 888 3137 398 
Q 2709 -91 1959 -91 
Q 1206 -91 779 398 
Q 353 888 353 1747 
Q 353 2609 779 3096 
Q 1206 3584 1959 3584 
z
" transform="scale(0.015625)"/>
       <path id="DejaVuSans-6c" d="M 603 4863 
L 1178 4863 
L 1178 0 
L 603 0 
L 603 4863 
z
" transform="scale(0.015625)"/>
       <path id="DejaVuSans-63" d="M 3122 3366 
L 3122 2828 
Q 2878 2963 2633 3030 
Q 2388 3097 2138 3097 
Q 1578 3097 1268 2742 
Q 959 2388 959 1747 
Q 959 1106 1268 751 
Q 1578 397 2138 397 
Q 2388 397 2633 464 
Q 2878 531 3122 666 
L 3122 134 
Q 2881 22 2623 -34 
Q 2366 -91 2075 -91 
Q 1284 -91 818 406 
Q 353 903 353 1747 
Q 353 2603 823 3093 
Q 1294 3584 2113 3584 
Q 2378 3584 2631 3529 
Q 2884 3475 3122 3366 
z
" transform="scale(0.015625)"/>
      </defs>
      <use xlink:href="#DejaVuSans-74"/>
      <use xlink:href="#DejaVuSans-6f" x="39.208984"/>
      <use xlink:href="#DejaVuSans-74" x="100.390625"/>
      <use xlink:href="#DejaVuSans-61" x="139.599609"/>
      <use xlink:href="#DejaVuSans-6c" x="200.878906"/>
      <use xlink:href="#DejaVuSans-20" x="228.662109"/>
      <use xlink:href="#DejaVuSans-63" x="260.449219"/>
      <use xlink:href="#DejaVuSans-6f" x="315.429688"/>
      <use xlink:href="#DejaVuSans-73" x="376.611328"/>
      <use xlink:href="#DejaVuSans-74" x="428.710938"/>
     </g>
    </g>
   </g>
   <g id="line2d_13">
    <path d="M 73.832727 113.776789 
L 74.359764 139.813022 
L 74.8868 119.201004 
L 75.413837 130.049435 
L 75.940874 136.558493 
L 76.46791 133.303964 
L 76.994947 139.813022 
L 77.521983 97.504143 
L 78.04902 82.858762 
L 78.576057 53.568 
L 79.103093 64.41643 
L 79.63013 95.334457 
L 80.157166 147.949345 
L 80.684203 123.540377 
L 81.21124 163.67957 
L 81.738276 171.815892 
L 82.265313 162.052305 
L 82.792349 169.103785 
L 83.319386 155.543247 
L 83.846423 165.849256 
L 84.373459 147.949345 
L 84.900496 146.322081 
L 85.427532 184.291587 
L 85.954569 196.767283 
L 86.481606 200.564233 
L 87.008642 185.918852 
L 87.535679 198.394547 
L 88.062715 202.733919 
L 88.589752 209.242978 
L 89.116789 201.649076 
L 89.643825 198.394547 
L 90.170862 194.055175 
L 90.697898 199.47939 
L 91.224935 215.752036 
L 91.751972 215.752036 
L 92.279008 192.970332 
L 92.806045 191.343067 
L 93.333081 197.852126 
L 93.860118 232.567103 
L 94.387155 252.6367 
L 94.914191 253.721543 
L 95.968264 248.297327 
L 96.495301 254.263964 
L 97.549374 256.43365 
L 98.076411 244.500377 
L 98.603447 222.803516 
L 99.130484 220.63383 
L 99.657521 214.667193 
L 100.184557 221.176251 
L 100.711594 210.327821 
L 101.23863 205.446027 
L 101.765667 229.312574 
L 102.292704 243.415534 
L 102.81974 261.315444 
L 103.346777 266.739659 
L 103.873813 268.909345 
L 104.40085 269.994188 
L 104.927887 273.248717 
L 105.454923 280.842619 
L 105.98196 280.842619 
L 106.508996 278.672933 
L 107.036033 279.757776 
L 107.56307 261.857865 
L 108.090106 237.991318 
L 108.617143 234.736789 
L 109.144179 239.618583 
L 109.671216 236.364054 
L 110.198253 229.312574 
L 110.725289 217.3793 
L 111.252326 223.345937 
L 111.779362 226.600466 
L 112.833436 261.857865 
L 113.360472 274.333561 
L 113.887509 266.739659 
L 114.414545 267.282081 
L 114.941582 255.891229 
L 115.468619 240.161004 
L 115.995655 247.754906 
L 116.522692 249.924592 
L 117.049728 270.53661 
L 117.576765 259.145758 
L 118.103802 260.773022 
L 118.630838 249.924592 
L 119.157875 252.094278 
L 119.684911 265.654816 
L 120.211948 265.654816 
L 120.738985 262.400287 
L 121.266021 262.942709 
L 121.793058 250.467013 
L 122.320094 205.988448 
L 122.847131 204.903605 
L 123.374168 197.309704 
L 123.901204 212.497507 
L 124.428241 202.191498 
L 124.955277 195.682439 
L 125.482314 169.646206 
L 126.009351 160.967462 
L 126.536387 158.797776 
L 127.063424 183.206744 
L 127.59046 182.664323 
L 128.117497 188.088538 
L 128.644534 188.63096 
L 129.17157 186.461274 
L 129.698607 188.63096 
L 130.225643 191.885489 
L 130.75268 197.309704 
L 131.279717 192.970332 
L 131.806753 179.952215 
L 132.33379 172.900735 
L 132.860826 177.782529 
L 133.387863 177.782529 
L 133.9149 172.900735 
L 134.441936 178.867372 
L 134.968973 174.528 
L 135.496009 197.309704 
L 136.023046 185.37643 
L 136.550083 177.782529 
L 137.077119 181.57948 
L 137.604156 158.797776 
L 138.131192 164.221991 
L 138.658229 162.052305 
L 139.185266 154.458404 
L 139.712302 150.119031 
L 140.239339 139.813022 
L 140.766375 152.831139 
L 141.293412 135.47365 
L 142.347485 177.782529 
L 143.401558 189.173381 
L 143.928595 172.358314 
L 144.455632 178.867372 
L 144.982668 166.934099 
L 145.509705 168.561363 
L 146.036741 156.085668 
L 146.563778 162.594726 
L 147.090815 167.47652 
L 147.617851 165.306834 
L 148.144888 158.797776 
L 148.671924 181.037058 
L 149.198961 169.103785 
L 149.725998 179.409794 
L 150.253034 198.936969 
L 150.780071 230.939839 
L 151.307107 236.364054 
L 151.834144 230.939839 
L 152.361181 241.788269 
L 152.888217 232.567103 
L 153.415254 232.567103 
L 153.94229 227.685309 
L 154.469327 230.939839 
L 154.996364 239.618583 
L 155.5234 239.076161 
L 156.050437 235.279211 
L 156.577473 245.042798 
L 157.10451 230.397417 
L 157.631547 223.345937 
L 158.158583 226.058045 
L 159.212656 247.212484 
L 159.739693 215.752036 
L 160.26673 224.973202 
L 160.793766 222.803516 
L 161.320803 224.973202 
L 162.374876 207.073291 
L 162.901913 205.446027 
L 163.428949 200.021812 
L 163.955986 217.921722 
L 164.483022 229.854996 
L 165.010059 222.261094 
L 165.537096 254.806386 
L 166.064132 273.248717 
L 166.591169 259.145758 
L 167.118205 251.551857 
L 167.645242 253.721543 
L 168.172279 258.603336 
L 168.699315 235.821632 
L 169.753388 283.554726 
L 170.280425 267.282081 
L 170.807462 274.333561 
L 171.334498 258.060915 
L 171.861535 277.58809 
L 172.388571 261.315444 
L 172.915608 240.703426 
L 173.442645 236.364054 
L 174.496718 195.682439 
L 175.023754 189.715803 
L 175.550791 179.952215 
L 176.604864 165.849256 
L 177.658937 191.343067 
L 178.185974 187.546117 
L 178.713011 185.37643 
L 179.240047 170.731049 
L 179.767084 171.815892 
L 180.29412 165.306834 
L 180.821157 184.834009 
L 181.348194 181.57948 
L 181.87523 184.291587 
L 182.402267 170.731049 
L 182.929303 215.209614 
L 183.45634 206.53087 
L 184.510413 200.564233 
L 185.03745 224.43078 
L 185.564486 223.345937 
L 186.091523 199.47939 
L 186.61856 204.361184 
L 187.145596 221.718673 
L 187.672633 203.818762 
L 188.199669 202.733919 
L 188.726706 172.900735 
L 189.253743 176.155265 
L 189.780779 175.612843 
L 190.307816 168.018942 
L 190.834852 177.240108 
L 191.361889 167.47652 
L 191.888926 166.934099 
L 192.415962 155.543247 
L 192.942999 136.558493 
L 193.470035 127.879749 
L 193.997072 135.47365 
L 195.051145 160.967462 
L 195.578182 167.47652 
L 196.105218 175.612843 
L 196.632255 179.409794 
L 197.159292 188.088538 
L 197.686328 219.006565 
L 198.213365 215.209614 
L 198.740401 230.397417 
L 199.267438 234.194368 
L 200.321511 213.58235 
L 200.848548 216.836879 
L 201.375584 187.546117 
L 201.902621 201.106655 
L 202.429658 193.512753 
L 202.956694 180.494637 
L 203.483731 204.903605 
L 204.010767 209.242978 
L 205.064841 193.512753 
L 205.591877 198.394547 
L 206.64595 185.37643 
L 207.172987 188.63096 
L 207.700024 175.612843 
L 208.22706 204.903605 
L 208.754097 190.800646 
L 209.281133 190.800646 
L 209.80817 201.649076 
L 210.335207 191.885489 
L 210.862243 155.000825 
L 211.38928 143.609973 
L 211.916316 143.609973 
L 212.443353 138.728179 
L 213.497426 164.764413 
L 214.024463 159.340197 
L 214.551499 162.594726 
L 215.078536 175.612843 
L 215.605573 156.085668 
L 216.132609 172.358314 
L 216.659646 175.070422 
L 217.186682 170.188628 
L 217.713719 188.088538 
L 218.240756 189.173381 
L 218.767792 207.615713 
L 219.294829 205.446027 
L 219.821865 209.242978 
L 220.348902 204.361184 
L 220.875939 209.785399 
L 221.402975 227.142888 
L 221.930012 222.803516 
L 222.457048 211.955085 
L 222.984085 192.42791 
L 223.511122 213.58235 
L 224.038158 216.294457 
L 225.092231 235.279211 
L 225.619268 232.024682 
L 226.146305 227.685309 
L 226.673341 221.176251 
L 227.200378 219.006565 
L 227.727414 233.109525 
L 228.254451 221.176251 
L 228.781488 222.803516 
L 229.308524 226.058045 
L 229.835561 235.821632 
L 230.362597 227.685309 
L 230.889634 224.973202 
L 231.416671 214.124771 
L 231.943707 224.973202 
L 232.470744 211.955085 
L 232.99778 217.921722 
L 233.524817 222.261094 
L 234.051854 219.006565 
L 234.57889 241.788269 
L 235.105927 246.127641 
L 235.632963 223.345937 
L 236.16 210.870242 
L 236.687037 184.834009 
L 237.214073 198.394547 
L 237.74111 198.394547 
L 238.268146 197.852126 
L 238.795183 190.258224 
L 239.32222 207.615713 
L 239.849256 220.63383 
L 240.376293 255.891229 
L 240.903329 241.245848 
L 241.430366 238.53374 
L 241.957403 241.245848 
L 242.484439 232.567103 
L 243.011476 216.836879 
L 243.538512 223.345937 
L 244.065549 215.752036 
L 244.592586 220.091408 
L 245.119622 213.58235 
L 245.646659 216.836879 
L 246.700732 204.903605 
L 247.227769 202.733919 
L 247.754805 199.47939 
L 248.281842 202.733919 
L 248.808878 192.970332 
L 249.335915 206.53087 
L 249.862952 196.224861 
L 250.389988 211.412664 
L 250.917025 220.091408 
L 251.444061 214.124771 
L 251.971098 214.124771 
L 252.498135 249.38217 
L 253.025171 250.467013 
L 253.552208 264.569973 
L 254.079244 265.654816 
L 254.606281 264.569973 
L 255.133318 281.927462 
L 255.660354 283.554726 
L 256.714427 237.448897 
L 257.241464 268.909345 
L 257.768501 258.060915 
L 258.295537 255.891229 
L 258.822574 257.518493 
L 259.34961 265.654816 
L 259.876647 253.721543 
L 260.403684 248.839749 
L 260.93072 254.263964 
L 261.457757 236.906475 
L 261.984793 247.754906 
L 262.51183 246.670063 
L 263.038867 241.788269 
L 263.565903 245.58522 
L 264.619976 226.058045 
L 265.147013 227.685309 
L 265.67405 253.721543 
L 266.728123 272.706296 
L 267.255159 275.960825 
L 267.782196 242.873112 
L 268.309233 221.176251 
L 268.836269 236.364054 
L 269.363306 239.618583 
L 269.890342 255.891229 
L 270.417379 249.38217 
L 270.944416 249.924592 
L 271.471452 252.094278 
L 271.998489 248.297327 
L 272.525525 248.297327 
L 273.052562 239.618583 
L 273.579599 241.788269 
L 274.106635 234.736789 
L 274.633672 235.279211 
L 275.160708 214.667193 
L 275.687745 186.461274 
L 276.214782 200.564233 
L 276.741818 209.785399 
L 277.268855 205.446027 
L 277.795891 216.294457 
L 278.322928 203.818762 
L 278.849965 185.37643 
L 279.377001 203.276341 
L 279.904038 208.158135 
L 280.431074 194.055175 
L 280.958111 192.970332 
L 281.485148 205.446027 
L 282.012184 208.158135 
L 282.539221 197.309704 
L 283.066257 207.073291 
L 283.593294 219.006565 
L 284.120331 249.38217 
L 284.647367 253.721543 
L 285.174404 251.009435 
L 285.70144 242.330691 
L 286.228477 250.467013 
L 286.755514 229.854996 
L 287.28255 225.515623 
L 287.809587 223.345937 
L 288.336623 217.921722 
L 288.86366 224.973202 
L 289.917733 213.039928 
L 290.44477 217.3793 
L 290.971806 229.854996 
L 291.498843 229.312574 
L 292.552916 220.63383 
L 293.079953 208.700556 
L 293.606989 202.733919 
L 294.134026 211.412664 
L 294.661063 213.58235 
L 295.188099 227.142888 
L 295.715136 220.091408 
L 296.242172 223.888359 
L 296.769209 208.158135 
L 297.296246 200.021812 
L 297.823282 176.155265 
L 298.350319 173.985578 
L 298.877355 177.782529 
L 299.404392 166.934099 
L 299.931429 175.612843 
L 300.458465 203.818762 
L 300.985502 202.191498 
L 301.512538 196.224861 
L 302.039575 183.206744 
L 302.566612 198.394547 
L 303.093648 207.073291 
L 304.147721 207.073291 
L 304.674758 205.446027 
L 305.201795 201.649076 
L 305.728831 205.988448 
L 306.255868 214.667193 
L 306.782904 200.564233 
L 307.309941 181.57948 
L 307.836978 202.191498 
L 308.364014 207.073291 
L 308.891051 216.836879 
L 310.472161 240.703426 
L 312.05327 269.451767 
L 312.580307 267.824502 
L 313.107344 295.488 
L 314.161417 286.809256 
L 314.688453 287.351677 
L 315.21549 266.739659 
L 315.742527 281.927462 
L 316.269563 255.891229 
L 316.7966 285.181991 
L 317.323636 286.809256 
L 317.850673 284.097148 
L 318.37771 272.163874 
L 318.904746 271.621453 
L 319.431783 273.791139 
L 319.958819 274.333561 
L 320.485856 254.806386 
L 321.012893 255.891229 
L 321.539929 254.806386 
L 323.121039 289.521363 
L 323.648076 292.233471 
L 324.175112 292.775892 
L 325.229185 283.012305 
L 325.756222 288.43652 
L 326.283259 267.824502 
L 326.810295 257.518493 
L 327.337332 260.773022 
L 327.864368 244.500377 
L 328.391405 262.942709 
L 328.918442 251.551857 
L 329.445478 252.6367 
L 329.972515 245.042798 
L 330.499551 240.703426 
L 331.026588 240.161004 
L 331.553625 229.312574 
L 332.080661 242.330691 
L 332.607698 233.651946 
L 333.134734 240.161004 
L 333.661771 228.227731 
L 334.188808 226.058045 
L 334.715844 248.839749 
L 335.242881 249.924592 
L 335.769917 242.330691 
L 336.296954 231.48226 
L 336.823991 207.615713 
L 337.351027 202.191498 
L 337.878064 194.055175 
L 338.4051 202.733919 
L 338.932137 217.3793 
L 339.459174 224.973202 
L 339.98621 206.53087 
L 340.513247 215.752036 
L 341.040283 209.242978 
L 341.56732 220.63383 
L 342.094357 209.242978 
L 342.621393 204.361184 
L 343.675466 205.446027 
L 344.202503 200.564233 
L 344.72954 197.852126 
L 345.256576 189.173381 
L 345.783613 194.055175 
L 346.310649 195.682439 
L 346.837686 198.394547 
L 347.364723 199.47939 
L 347.891759 196.767283 
L 348.418796 195.140018 
L 348.945832 204.361184 
L 349.472869 216.294457 
L 349.999906 215.209614 
L 350.526942 237.991318 
L 351.053979 219.548987 
L 351.581015 227.685309 
L 352.108052 247.754906 
L 352.635089 254.263964 
L 353.162125 239.618583 
L 353.689162 234.736789 
L 354.216198 236.906475 
L 354.743235 252.094278 
L 355.270272 244.500377 
L 355.797308 254.263964 
L 356.324345 228.770152 
L 356.851381 234.736789 
L 357.378418 249.38217 
L 357.905455 228.770152 
L 358.432491 213.58235 
L 358.959528 214.667193 
L 359.486564 216.836879 
L 360.013601 213.039928 
L 360.540638 211.955085 
L 361.067674 208.158135 
L 361.594711 222.261094 
L 362.121747 213.58235 
L 362.648784 207.615713 
L 363.175821 226.600466 
L 363.702857 236.364054 
L 364.229894 237.448897 
L 364.75693 229.854996 
L 365.283967 229.312574 
L 365.811004 229.312574 
L 366.33804 228.770152 
L 366.865077 221.718673 
L 367.392113 226.058045 
L 367.91915 225.515623 
L 369.50026 246.127641 
L 370.027296 258.060915 
L 370.554333 258.060915 
L 371.08137 261.857865 
L 371.608406 256.976072 
L 372.135443 280.842619 
L 372.662479 272.163874 
L 373.716553 262.400287 
L 374.243589 259.688179 
L 374.770626 259.688179 
L 375.297662 256.43365 
L 375.824699 259.688179 
L 376.351736 248.839749 
L 376.878772 264.027552 
L 377.932845 232.567103 
L 378.459882 233.109525 
L 378.986919 237.448897 
L 379.513955 247.754906 
L 380.040992 236.906475 
L 380.568028 240.703426 
L 381.095065 230.397417 
L 381.622102 223.888359 
L 382.149138 211.412664 
L 382.676175 204.903605 
L 383.203211 208.158135 
L 383.730248 234.736789 
L 384.784321 246.127641 
L 385.311358 249.38217 
L 385.838394 230.939839 
L 386.365431 227.142888 
L 386.892468 224.973202 
L 387.419504 219.548987 
L 387.946541 219.548987 
L 388.473577 222.261094 
L 389.000614 220.091408 
L 389.527651 231.48226 
L 390.054687 223.888359 
L 391.10876 213.039928 
L 391.635797 219.006565 
L 392.162834 238.53374 
L 392.68987 240.703426 
L 393.216907 207.073291 
L 393.743943 201.649076 
L 394.27098 210.327821 
L 394.798017 183.206744 
L 395.325053 205.988448 
L 395.85209 220.091408 
L 396.379126 229.854996 
L 397.4332 232.024682 
L 397.960236 230.939839 
L 398.487273 226.600466 
L 398.487273 226.600466 
" clip-path="url(#pc801a03286)" style="fill: none; stroke: #1f77b4; stroke-width: 1.5; stroke-linecap: square"/>
   </g>
   <g id="patch_3">
    <path d="M 57.6 307.584 
L 57.6 41.472 
" style="fill: none; stroke: #000000; stroke-width: 0.8; stroke-linejoin: miter; stroke-linecap: square"/>
   </g>
   <g id="patch_4">
    <path d="M 414.72 307.584 
L 414.72 41.472 
" style="fill: none; stroke: #000000; stroke-width: 0.8; stroke-linejoin: miter; stroke-linecap: square"/>
   </g>
   <g id="patch_5">
    <path d="M 57.6 307.584 
L 414.72 307.584 
" style="fill: none; stroke: #000000; stroke-width: 0.8; stroke-linejoin: miter; stroke-linecap: square"/>
   </g>
   <g id="patch_6">
    <path d="M 57.6 41.472 
L 414.72 41.472 
" style="fill: none; stroke: #000000; stroke-width: 0.8; stroke-linejoin: miter; stroke-linecap: square"/>
   </g>
   <g id="text_15">
    <!-- Simulated Anealling Cost -->
    <g transform="translate(160.8 35.472)scale(0.12 -0.12)">
     <defs>
      <path id="DejaVuSans-53" d="M 3425 4513 
L 3425 3897 
Q 3066 4069 2747 4153 
Q 2428 4238 2131 4238 
Q 1616 4238 1336 4038 
Q 1056 3838 1056 3469 
Q 1056 3159 1242 3001 
Q 1428 2844 1947 2747 
L 2328 2669 
Q 3034 2534 3370 2195 
Q 3706 1856 3706 1288 
Q 3706 609 3251 259 
Q 2797 -91 1919 -91 
Q 1588 -91 1214 -16 
Q 841 59 441 206 
L 441 856 
Q 825 641 1194 531 
Q 1563 422 1919 422 
Q 2459 422 2753 634 
Q 3047 847 3047 1241 
Q 3047 1584 2836 1778 
Q 2625 1972 2144 2069 
L 1759 2144 
Q 1053 2284 737 2584 
Q 422 2884 422 3419 
Q 422 4038 858 4394 
Q 1294 4750 2059 4750 
Q 2388 4750 2728 4690 
Q 3069 4631 3425 4513 
z
" transform="scale(0.015625)"/>
      <path id="DejaVuSans-69" d="M 603 3500 
L 1178 3500 
L 1178 0 
L 603 0 
L 603 3500 
z
M 603 4863 
L 1178 4863 
L 1178 4134 
L 603 4134 
L 603 4863 
z
" transform="scale(0.015625)"/>
      <path id="DejaVuSans-65" d="M 3597 1894 
L 3597 1613 
L 953 1613 
Q 991 1019 1311 708 
Q 1631 397 2203 397 
Q 2534 397 2845 478 
Q 3156 559 3463 722 
L 3463 178 
Q 3153 47 2828 -22 
Q 2503 -91 2169 -91 
Q 1331 -91 842 396 
Q 353 884 353 1716 
Q 353 2575 817 3079 
Q 1281 3584 2069 3584 
Q 2775 3584 3186 3129 
Q 3597 2675 3597 1894 
z
M 3022 2063 
Q 3016 2534 2758 2815 
Q 2500 3097 2075 3097 
Q 1594 3097 1305 2825 
Q 1016 2553 972 2059 
L 3022 2063 
z
" transform="scale(0.015625)"/>
      <path id="DejaVuSans-64" d="M 2906 2969 
L 2906 4863 
L 3481 4863 
L 3481 0 
L 2906 0 
L 2906 525 
Q 2725 213 2448 61 
Q 2172 -91 1784 -91 
Q 1150 -91 751 415 
Q 353 922 353 1747 
Q 353 2572 751 3078 
Q 1150 3584 1784 3584 
Q 2172 3584 2448 3432 
Q 2725 3281 2906 2969 
z
M 947 1747 
Q 947 1113 1208 752 
Q 1469 391 1925 391 
Q 2381 391 2643 752 
Q 2906 1113 2906 1747 
Q 2906 2381 2643 2742 
Q 2381 3103 1925 3103 
Q 1469 3103 1208 2742 
Q 947 2381 947 1747 
z
" transform="scale(0.015625)"/>
      <path id="DejaVuSans-41" d="M 2188 4044 
L 1331 1722 
L 3047 1722 
L 2188 4044 
z
M 1831 4666 
L 2547 4666 
L 4325 0 
L 3669 0 
L 3244 1197 
L 1141 1197 
L 716 0 
L 50 0 
L 1831 4666 
z
" transform="scale(0.015625)"/>
      <path id="DejaVuSans-67" d="M 2906 1791 
Q 2906 2416 2648 2759 
Q 2391 3103 1925 3103 
Q 1463 3103 1205 2759 
Q 947 2416 947 1791 
Q 947 1169 1205 825 
Q 1463 481 1925 481 
Q 2391 481 2648 825 
Q 2906 1169 2906 1791 
z
M 3481 434 
Q 3481 -459 3084 -895 
Q 2688 -1331 1869 -1331 
Q 1566 -1331 1297 -1286 
Q 1028 -1241 775 -1147 
L 775 -588 
Q 1028 -725 1275 -790 
Q 1522 -856 1778 -856 
Q 2344 -856 2625 -561 
Q 2906 -266 2906 331 
L 2906 616 
Q 2728 306 2450 153 
Q 2172 0 1784 0 
Q 1141 0 747 490 
Q 353 981 353 1791 
Q 353 2603 747 3093 
Q 1141 3584 1784 3584 
Q 2172 3584 2450 3431 
Q 2728 3278 2906 2969 
L 2906 3500 
L 3481 3500 
L 3481 434 
z
" transform="scale(0.015625)"/>
      <path id="DejaVuSans-43" d="M 4122 4306 
L 4122 3641 
Q 3803 3938 3442 4084 
Q 3081 4231 2675 4231 
Q 1875 4231 1450 3742 
Q 1025 3253 1025 2328 
Q 1025 1406 1450 917 
Q 1875 428 2675 428 
Q 3081 428 3442 575 
Q 3803 722 4122 1019 
L 4122 359 
Q 3791 134 3420 21 
Q 3050 -91 2638 -91 
Q 1578 -91 968 557 
Q 359 1206 359 2328 
Q 359 3453 968 4101 
Q 1578 4750 2638 4750 
Q 3056 4750 3426 4639 
Q 3797 4528 4122 4306 
z
" transform="scale(0.015625)"/>
     </defs>
     <use xlink:href="#DejaVuSans-53"/>
     <use xlink:href="#DejaVuSans-69" x="63.476562"/>
     <use xlink:href="#DejaVuSans-6d" x="91.259766"/>
     <use xlink:href="#DejaVuSans-75" x="188.671875"/>
     <use xlink:href="#DejaVuSans-6c" x="252.050781"/>
     <use xlink:href="#DejaVuSans-61" x="279.833984"/>
     <use xlink:href="#DejaVuSans-74" x="341.113281"/>
     <use xlink:href="#DejaVuSans-65" x="380.322266"/>
     <use xlink:href="#DejaVuSans-64" x="441.845703"/>
     <use xlink:href="#DejaVuSans-20" x="505.322266"/>
     <use xlink:href="#DejaVuSans-41" x="537.109375"/>
     <use xlink:href="#DejaVuSans-6e" x="605.517578"/>
     <use xlink:href="#DejaVuSans-65" x="668.896484"/>
     <use xlink:href="#DejaVuSans-61" x="730.419922"/>
     <use xlink:href="#DejaVuSans-6c" x="791.699219"/>
     <use xlink:href="#DejaVuSans-6c" x="819.482422"/>
     <use xlink:href="#DejaVuSans-69" x="847.265625"/>
     <use xlink:href="#DejaVuSans-6e" x="875.048828"/>
     <use xlink:href="#DejaVuSans-67" x="938.427734"/>
     <use xlink:href="#DejaVuSans-20" x="1001.904297"/>
     <use xlink:href="#DejaVuSans-43" x="1033.691406"/>
     <use xlink:href="#DejaVuSans-6f" x="1103.515625"/>
     <use xlink:href="#DejaVuSans-73" x="1164.697266"/>
     <use xlink:href="#DejaVuSans-74" x="1216.796875"/>
    </g>
   </g>
  </g>
 </g>
 <defs>
  <clipPath id="pc801a03286">
   <rect x="57.6" y="41.472" width="357.12" height="266.112"/>
  </clipPath>
 </defs>
</svg>
