<?xml version="1.0" encoding="utf-8" standalone="no"?>
<!DOCTYPE svg PUBLIC "-//W3C//DTD SVG 1.1//EN"
  "http://www.w3.org/Graphics/SVG/1.1/DTD/svg11.dtd">
<svg xmlns:xlink="http://www.w3.org/1999/xlink" width="460.8pt" height="345.6pt" viewBox="0 0 460.8 345.6" xmlns="http://www.w3.org/2000/svg" version="1.1">
 <metadata>
  <rdf:RDF xmlns:dc="http://purl.org/dc/elements/1.1/" xmlns:cc="http://creativecommons.org/ns#" xmlns:rdf="http://www.w3.org/1999/02/22-rdf-syntax-ns#">
   <cc:Work>
    <dc:type rdf:resource="http://purl.org/dc/dcmitype/StillImage"/>
    <dc:date>2022-06-01T08:08:06.893512</dc:date>
    <dc:format>image/svg+xml</dc:format>
    <dc:creator>
     <cc:Agent>
      <dc:title>Matplotlib v3.5.1, https://matplotlib.org/</dc:title>
     </cc:Agent>
    </dc:creator>
   </cc:Work>
  </rdf:RDF>
 </metadata>
 <defs>
  <style type="text/css">*{stroke-linejoin: round; stroke-linecap: butt}</style>
 </defs>
 <g id="figure_1">
  <g id="patch_1">
   <path d="M 0 345.6 
L 460.8 345.6 
L 460.8 0 
L 0 0 
z
" style="fill: #ffffff"/>
  </g>
  <g id="axes_1">
   <g id="patch_2">
    <path d="M 57.6 307.584 
L 414.72 307.584 
L 414.72 41.472 
L 57.6 41.472 
z
" style="fill: #ffffff"/>
   </g>
   <g id="matplotlib.axis_1">
    <g id="xtick_1">
     <g id="line2d_1">
      <defs>
       <path id="m98ff927893" d="M 0 0 
L 0 3.5 
" style="stroke: #000000; stroke-width: 0.8"/>
      </defs>
      <g>
       <use xlink:href="#m98ff927893" x="73.832727" y="307.584" style="stroke: #000000; stroke-width: 0.8"/>
      </g>
     </g>
     <g id="text_1">
      <!-- 0 -->
      <g transform="translate(70.651477 322.182437)scale(0.1 -0.1)">
       <defs>
        <path id="DejaVuSans-30" d="M 2034 4250 
Q 1547 4250 1301 3770 
Q 1056 3291 1056 2328 
Q 1056 1369 1301 889 
Q 1547 409 2034 409 
Q 2525 409 2770 889 
Q 3016 1369 3016 2328 
Q 3016 3291 2770 3770 
Q 2525 4250 2034 4250 
z
M 2034 4750 
Q 2819 4750 3233 4129 
Q 3647 3509 3647 2328 
Q 3647 1150 3233 529 
Q 2819 -91 2034 -91 
Q 1250 -91 836 529 
Q 422 1150 422 2328 
Q 422 3509 836 4129 
Q 1250 4750 2034 4750 
z
" transform="scale(0.015625)"/>
       </defs>
       <use xlink:href="#DejaVuSans-30"/>
      </g>
     </g>
    </g>
    <g id="xtick_2">
     <g id="line2d_2">
      <g>
       <use xlink:href="#m98ff927893" x="114.86591" y="307.584" style="stroke: #000000; stroke-width: 0.8"/>
      </g>
     </g>
     <g id="text_2">
      <!-- 250 -->
      <g transform="translate(105.32216 322.182437)scale(0.1 -0.1)">
       <defs>
        <path id="DejaVuSans-32" d="M 1228 531 
L 3431 531 
L 3431 0 
L 469 0 
L 469 531 
Q 828 903 1448 1529 
Q 2069 2156 2228 2338 
Q 2531 2678 2651 2914 
Q 2772 3150 2772 3378 
Q 2772 3750 2511 3984 
Q 2250 4219 1831 4219 
Q 1534 4219 1204 4116 
Q 875 4013 500 3803 
L 500 4441 
Q 881 4594 1212 4672 
Q 1544 4750 1819 4750 
Q 2544 4750 2975 4387 
Q 3406 4025 3406 3419 
Q 3406 3131 3298 2873 
Q 3191 2616 2906 2266 
Q 2828 2175 2409 1742 
Q 1991 1309 1228 531 
z
" transform="scale(0.015625)"/>
        <path id="DejaVuSans-35" d="M 691 4666 
L 3169 4666 
L 3169 4134 
L 1269 4134 
L 1269 2991 
Q 1406 3038 1543 3061 
Q 1681 3084 1819 3084 
Q 2600 3084 3056 2656 
Q 3513 2228 3513 1497 
Q 3513 744 3044 326 
Q 2575 -91 1722 -91 
Q 1428 -91 1123 -41 
Q 819 9 494 109 
L 494 744 
Q 775 591 1075 516 
Q 1375 441 1709 441 
Q 2250 441 2565 725 
Q 2881 1009 2881 1497 
Q 2881 1984 2565 2268 
Q 2250 2553 1709 2553 
Q 1456 2553 1204 2497 
Q 953 2441 691 2322 
L 691 4666 
z
" transform="scale(0.015625)"/>
       </defs>
       <use xlink:href="#DejaVuSans-32"/>
       <use xlink:href="#DejaVuSans-35" x="63.623047"/>
       <use xlink:href="#DejaVuSans-30" x="127.246094"/>
      </g>
     </g>
    </g>
    <g id="xtick_3">
     <g id="line2d_3">
      <g>
       <use xlink:href="#m98ff927893" x="155.899094" y="307.584" style="stroke: #000000; stroke-width: 0.8"/>
      </g>
     </g>
     <g id="text_3">
      <!-- 500 -->
      <g transform="translate(146.355344 322.182437)scale(0.1 -0.1)">
       <use xlink:href="#DejaVuSans-35"/>
       <use xlink:href="#DejaVuSans-30" x="63.623047"/>
       <use xlink:href="#DejaVuSans-30" x="127.246094"/>
      </g>
     </g>
    </g>
    <g id="xtick_4">
     <g id="line2d_4">
      <g>
       <use xlink:href="#m98ff927893" x="196.932277" y="307.584" style="stroke: #000000; stroke-width: 0.8"/>
      </g>
     </g>
     <g id="text_4">
      <!-- 750 -->
      <g transform="translate(187.388527 322.182437)scale(0.1 -0.1)">
       <defs>
        <path id="DejaVuSans-37" d="M 525 4666 
L 3525 4666 
L 3525 4397 
L 1831 0 
L 1172 0 
L 2766 4134 
L 525 4134 
L 525 4666 
z
" transform="scale(0.015625)"/>
       </defs>
       <use xlink:href="#DejaVuSans-37"/>
       <use xlink:href="#DejaVuSans-35" x="63.623047"/>
       <use xlink:href="#DejaVuSans-30" x="127.246094"/>
      </g>
     </g>
    </g>
    <g id="xtick_5">
     <g id="line2d_5">
      <g>
       <use xlink:href="#m98ff927893" x="237.96546" y="307.584" style="stroke: #000000; stroke-width: 0.8"/>
      </g>
     </g>
     <g id="text_5">
      <!-- 1000 -->
      <g transform="translate(225.24046 322.182437)scale(0.1 -0.1)">
       <defs>
        <path id="DejaVuSans-31" d="M 794 531 
L 1825 531 
L 1825 4091 
L 703 3866 
L 703 4441 
L 1819 4666 
L 2450 4666 
L 2450 531 
L 3481 531 
L 3481 0 
L 794 0 
L 794 531 
z
" transform="scale(0.015625)"/>
       </defs>
       <use xlink:href="#DejaVuSans-31"/>
       <use xlink:href="#DejaVuSans-30" x="63.623047"/>
       <use xlink:href="#DejaVuSans-30" x="127.246094"/>
       <use xlink:href="#DejaVuSans-30" x="190.869141"/>
      </g>
     </g>
    </g>
    <g id="xtick_6">
     <g id="line2d_6">
      <g>
       <use xlink:href="#m98ff927893" x="278.998643" y="307.584" style="stroke: #000000; stroke-width: 0.8"/>
      </g>
     </g>
     <g id="text_6">
      <!-- 1250 -->
      <g transform="translate(266.273643 322.182437)scale(0.1 -0.1)">
       <use xlink:href="#DejaVuSans-31"/>
       <use xlink:href="#DejaVuSans-32" x="63.623047"/>
       <use xlink:href="#DejaVuSans-35" x="127.246094"/>
       <use xlink:href="#DejaVuSans-30" x="190.869141"/>
      </g>
     </g>
    </g>
    <g id="xtick_7">
     <g id="line2d_7">
      <g>
       <use xlink:href="#m98ff927893" x="320.031826" y="307.584" style="stroke: #000000; stroke-width: 0.8"/>
      </g>
     </g>
     <g id="text_7">
      <!-- 1500 -->
      <g transform="translate(307.306826 322.182437)scale(0.1 -0.1)">
       <use xlink:href="#DejaVuSans-31"/>
       <use xlink:href="#DejaVuSans-35" x="63.623047"/>
       <use xlink:href="#DejaVuSans-30" x="127.246094"/>
       <use xlink:href="#DejaVuSans-30" x="190.869141"/>
      </g>
     </g>
    </g>
    <g id="xtick_8">
     <g id="line2d_8">
      <g>
       <use xlink:href="#m98ff927893" x="361.06501" y="307.584" style="stroke: #000000; stroke-width: 0.8"/>
      </g>
     </g>
     <g id="text_8">
      <!-- 1750 -->
      <g transform="translate(348.34001 322.182437)scale(0.1 -0.1)">
       <use xlink:href="#DejaVuSans-31"/>
       <use xlink:href="#DejaVuSans-37" x="63.623047"/>
       <use xlink:href="#DejaVuSans-35" x="127.246094"/>
       <use xlink:href="#DejaVuSans-30" x="190.869141"/>
      </g>
     </g>
    </g>
    <g id="xtick_9">
     <g id="line2d_9">
      <g>
       <use xlink:href="#m98ff927893" x="402.098193" y="307.584" style="stroke: #000000; stroke-width: 0.8"/>
      </g>
     </g>
     <g id="text_9">
      <!-- 2000 -->
      <g transform="translate(389.373193 322.182437)scale(0.1 -0.1)">
       <use xlink:href="#DejaVuSans-32"/>
       <use xlink:href="#DejaVuSans-30" x="63.623047"/>
       <use xlink:href="#DejaVuSans-30" x="127.246094"/>
       <use xlink:href="#DejaVuSans-30" x="190.869141"/>
      </g>
     </g>
    </g>
    <g id="text_10">
     <!-- num swaps -->
     <g transform="translate(207.826406 335.860562)scale(0.1 -0.1)">
      <defs>
       <path id="DejaVuSans-6e" d="M 3513 2113 
L 3513 0 
L 2938 0 
L 2938 2094 
Q 2938 2591 2744 2837 
Q 2550 3084 2163 3084 
Q 1697 3084 1428 2787 
Q 1159 2491 1159 1978 
L 1159 0 
L 581 0 
L 581 3500 
L 1159 3500 
L 1159 2956 
Q 1366 3272 1645 3428 
Q 1925 3584 2291 3584 
Q 2894 3584 3203 3211 
Q 3513 2838 3513 2113 
z
" transform="scale(0.015625)"/>
       <path id="DejaVuSans-75" d="M 544 1381 
L 544 3500 
L 1119 3500 
L 1119 1403 
Q 1119 906 1312 657 
Q 1506 409 1894 409 
Q 2359 409 2629 706 
Q 2900 1003 2900 1516 
L 2900 3500 
L 3475 3500 
L 3475 0 
L 2900 0 
L 2900 538 
Q 2691 219 2414 64 
Q 2138 -91 1772 -91 
Q 1169 -91 856 284 
Q 544 659 544 1381 
z
M 1991 3584 
L 1991 3584 
z
" transform="scale(0.015625)"/>
       <path id="DejaVuSans-6d" d="M 3328 2828 
Q 3544 3216 3844 3400 
Q 4144 3584 4550 3584 
Q 5097 3584 5394 3201 
Q 5691 2819 5691 2113 
L 5691 0 
L 5113 0 
L 5113 2094 
Q 5113 2597 4934 2840 
Q 4756 3084 4391 3084 
Q 3944 3084 3684 2787 
Q 3425 2491 3425 1978 
L 3425 0 
L 2847 0 
L 2847 2094 
Q 2847 2600 2669 2842 
Q 2491 3084 2119 3084 
Q 1678 3084 1418 2786 
Q 1159 2488 1159 1978 
L 1159 0 
L 581 0 
L 581 3500 
L 1159 3500 
L 1159 2956 
Q 1356 3278 1631 3431 
Q 1906 3584 2284 3584 
Q 2666 3584 2933 3390 
Q 3200 3197 3328 2828 
z
" transform="scale(0.015625)"/>
       <path id="DejaVuSans-20" transform="scale(0.015625)"/>
       <path id="DejaVuSans-73" d="M 2834 3397 
L 2834 2853 
Q 2591 2978 2328 3040 
Q 2066 3103 1784 3103 
Q 1356 3103 1142 2972 
Q 928 2841 928 2578 
Q 928 2378 1081 2264 
Q 1234 2150 1697 2047 
L 1894 2003 
Q 2506 1872 2764 1633 
Q 3022 1394 3022 966 
Q 3022 478 2636 193 
Q 2250 -91 1575 -91 
Q 1294 -91 989 -36 
Q 684 19 347 128 
L 347 722 
Q 666 556 975 473 
Q 1284 391 1588 391 
Q 1994 391 2212 530 
Q 2431 669 2431 922 
Q 2431 1156 2273 1281 
Q 2116 1406 1581 1522 
L 1381 1569 
Q 847 1681 609 1914 
Q 372 2147 372 2553 
Q 372 3047 722 3315 
Q 1072 3584 1716 3584 
Q 2034 3584 2315 3537 
Q 2597 3491 2834 3397 
z
" transform="scale(0.015625)"/>
       <path id="DejaVuSans-77" d="M 269 3500 
L 844 3500 
L 1563 769 
L 2278 3500 
L 2956 3500 
L 3675 769 
L 4391 3500 
L 4966 3500 
L 4050 0 
L 3372 0 
L 2619 2869 
L 1863 0 
L 1184 0 
L 269 3500 
z
" transform="scale(0.015625)"/>
       <path id="DejaVuSans-61" d="M 2194 1759 
Q 1497 1759 1228 1600 
Q 959 1441 959 1056 
Q 959 750 1161 570 
Q 1363 391 1709 391 
Q 2188 391 2477 730 
Q 2766 1069 2766 1631 
L 2766 1759 
L 2194 1759 
z
M 3341 1997 
L 3341 0 
L 2766 0 
L 2766 531 
Q 2569 213 2275 61 
Q 1981 -91 1556 -91 
Q 1019 -91 701 211 
Q 384 513 384 1019 
Q 384 1609 779 1909 
Q 1175 2209 1959 2209 
L 2766 2209 
L 2766 2266 
Q 2766 2663 2505 2880 
Q 2244 3097 1772 3097 
Q 1472 3097 1187 3025 
Q 903 2953 641 2809 
L 641 3341 
Q 956 3463 1253 3523 
Q 1550 3584 1831 3584 
Q 2591 3584 2966 3190 
Q 3341 2797 3341 1997 
z
" transform="scale(0.015625)"/>
       <path id="DejaVuSans-70" d="M 1159 525 
L 1159 -1331 
L 581 -1331 
L 581 3500 
L 1159 3500 
L 1159 2969 
Q 1341 3281 1617 3432 
Q 1894 3584 2278 3584 
Q 2916 3584 3314 3078 
Q 3713 2572 3713 1747 
Q 3713 922 3314 415 
Q 2916 -91 2278 -91 
Q 1894 -91 1617 61 
Q 1341 213 1159 525 
z
M 3116 1747 
Q 3116 2381 2855 2742 
Q 2594 3103 2138 3103 
Q 1681 3103 1420 2742 
Q 1159 2381 1159 1747 
Q 1159 1113 1420 752 
Q 1681 391 2138 391 
Q 2594 391 2855 752 
Q 3116 1113 3116 1747 
z
" transform="scale(0.015625)"/>
      </defs>
      <use xlink:href="#DejaVuSans-6e"/>
      <use xlink:href="#DejaVuSans-75" x="63.378906"/>
      <use xlink:href="#DejaVuSans-6d" x="126.757812"/>
      <use xlink:href="#DejaVuSans-20" x="224.169922"/>
      <use xlink:href="#DejaVuSans-73" x="255.957031"/>
      <use xlink:href="#DejaVuSans-77" x="308.056641"/>
      <use xlink:href="#DejaVuSans-61" x="389.84375"/>
      <use xlink:href="#DejaVuSans-70" x="451.123047"/>
      <use xlink:href="#DejaVuSans-73" x="514.599609"/>
     </g>
    </g>
   </g>
   <g id="matplotlib.axis_2">
    <g id="ytick_1">
     <g id="line2d_10">
      <defs>
       <path id="mb11fa53473" d="M 0 0 
L -3.5 0 
" style="stroke: #000000; stroke-width: 0.8"/>
      </defs>
      <g>
       <use xlink:href="#mb11fa53473" x="57.6" y="282.920727" style="stroke: #000000; stroke-width: 0.8"/>
      </g>
     </g>
     <g id="text_11">
      <!-- 470 -->
      <g transform="translate(31.5125 286.719946)scale(0.1 -0.1)">
       <defs>
        <path id="DejaVuSans-34" d="M 2419 4116 
L 825 1625 
L 2419 1625 
L 2419 4116 
z
M 2253 4666 
L 3047 4666 
L 3047 1625 
L 3713 1625 
L 3713 1100 
L 3047 1100 
L 3047 0 
L 2419 0 
L 2419 1100 
L 313 1100 
L 313 1709 
L 2253 4666 
z
" transform="scale(0.015625)"/>
       </defs>
       <use xlink:href="#DejaVuSans-34"/>
       <use xlink:href="#DejaVuSans-37" x="63.623047"/>
       <use xlink:href="#DejaVuSans-30" x="127.246094"/>
      </g>
     </g>
    </g>
    <g id="ytick_2">
     <g id="line2d_11">
      <g>
       <use xlink:href="#mb11fa53473" x="57.6" y="251.502545" style="stroke: #000000; stroke-width: 0.8"/>
      </g>
     </g>
     <g id="text_12">
      <!-- 480 -->
      <g transform="translate(31.5125 255.301764)scale(0.1 -0.1)">
       <defs>
        <path id="DejaVuSans-38" d="M 2034 2216 
Q 1584 2216 1326 1975 
Q 1069 1734 1069 1313 
Q 1069 891 1326 650 
Q 1584 409 2034 409 
Q 2484 409 2743 651 
Q 3003 894 3003 1313 
Q 3003 1734 2745 1975 
Q 2488 2216 2034 2216 
z
M 1403 2484 
Q 997 2584 770 2862 
Q 544 3141 544 3541 
Q 544 4100 942 4425 
Q 1341 4750 2034 4750 
Q 2731 4750 3128 4425 
Q 3525 4100 3525 3541 
Q 3525 3141 3298 2862 
Q 3072 2584 2669 2484 
Q 3125 2378 3379 2068 
Q 3634 1759 3634 1313 
Q 3634 634 3220 271 
Q 2806 -91 2034 -91 
Q 1263 -91 848 271 
Q 434 634 434 1313 
Q 434 1759 690 2068 
Q 947 2378 1403 2484 
z
M 1172 3481 
Q 1172 3119 1398 2916 
Q 1625 2713 2034 2713 
Q 2441 2713 2670 2916 
Q 2900 3119 2900 3481 
Q 2900 3844 2670 4047 
Q 2441 4250 2034 4250 
Q 1625 4250 1398 4047 
Q 1172 3844 1172 3481 
z
" transform="scale(0.015625)"/>
       </defs>
       <use xlink:href="#DejaVuSans-34"/>
       <use xlink:href="#DejaVuSans-38" x="63.623047"/>
       <use xlink:href="#DejaVuSans-30" x="127.246094"/>
      </g>
     </g>
    </g>
    <g id="ytick_3">
     <g id="line2d_12">
      <g>
       <use xlink:href="#mb11fa53473" x="57.6" y="220.084364" style="stroke: #000000; stroke-width: 0.8"/>
      </g>
     </g>
     <g id="text_13">
      <!-- 490 -->
      <g transform="translate(31.5125 223.883582)scale(0.1 -0.1)">
       <defs>
        <path id="DejaVuSans-39" d="M 703 97 
L 703 672 
Q 941 559 1184 500 
Q 1428 441 1663 441 
Q 2288 441 2617 861 
Q 2947 1281 2994 2138 
Q 2813 1869 2534 1725 
Q 2256 1581 1919 1581 
Q 1219 1581 811 2004 
Q 403 2428 403 3163 
Q 403 3881 828 4315 
Q 1253 4750 1959 4750 
Q 2769 4750 3195 4129 
Q 3622 3509 3622 2328 
Q 3622 1225 3098 567 
Q 2575 -91 1691 -91 
Q 1453 -91 1209 -44 
Q 966 3 703 97 
z
M 1959 2075 
Q 2384 2075 2632 2365 
Q 2881 2656 2881 3163 
Q 2881 3666 2632 3958 
Q 2384 4250 1959 4250 
Q 1534 4250 1286 3958 
Q 1038 3666 1038 3163 
Q 1038 2656 1286 2365 
Q 1534 2075 1959 2075 
z
" transform="scale(0.015625)"/>
       </defs>
       <use xlink:href="#DejaVuSans-34"/>
       <use xlink:href="#DejaVuSans-39" x="63.623047"/>
       <use xlink:href="#DejaVuSans-30" x="127.246094"/>
      </g>
     </g>
    </g>
    <g id="ytick_4">
     <g id="line2d_13">
      <g>
       <use xlink:href="#mb11fa53473" x="57.6" y="188.666182" style="stroke: #000000; stroke-width: 0.8"/>
      </g>
     </g>
     <g id="text_14">
      <!-- 500 -->
      <g transform="translate(31.5125 192.465401)scale(0.1 -0.1)">
       <use xlink:href="#DejaVuSans-35"/>
       <use xlink:href="#DejaVuSans-30" x="63.623047"/>
       <use xlink:href="#DejaVuSans-30" x="127.246094"/>
      </g>
     </g>
    </g>
    <g id="ytick_5">
     <g id="line2d_14">
      <g>
       <use xlink:href="#mb11fa53473" x="57.6" y="157.248" style="stroke: #000000; stroke-width: 0.8"/>
      </g>
     </g>
     <g id="text_15">
      <!-- 510 -->
      <g transform="translate(31.5125 161.047219)scale(0.1 -0.1)">
       <use xlink:href="#DejaVuSans-35"/>
       <use xlink:href="#DejaVuSans-31" x="63.623047"/>
       <use xlink:href="#DejaVuSans-30" x="127.246094"/>
      </g>
     </g>
    </g>
    <g id="ytick_6">
     <g id="line2d_15">
      <g>
       <use xlink:href="#mb11fa53473" x="57.6" y="125.829818" style="stroke: #000000; stroke-width: 0.8"/>
      </g>
     </g>
     <g id="text_16">
      <!-- 520 -->
      <g transform="translate(31.5125 129.629037)scale(0.1 -0.1)">
       <use xlink:href="#DejaVuSans-35"/>
       <use xlink:href="#DejaVuSans-32" x="63.623047"/>
       <use xlink:href="#DejaVuSans-30" x="127.246094"/>
      </g>
     </g>
    </g>
    <g id="ytick_7">
     <g id="line2d_16">
      <g>
       <use xlink:href="#mb11fa53473" x="57.6" y="94.411636" style="stroke: #000000; stroke-width: 0.8"/>
      </g>
     </g>
     <g id="text_17">
      <!-- 530 -->
      <g transform="translate(31.5125 98.210855)scale(0.1 -0.1)">
       <defs>
        <path id="DejaVuSans-33" d="M 2597 2516 
Q 3050 2419 3304 2112 
Q 3559 1806 3559 1356 
Q 3559 666 3084 287 
Q 2609 -91 1734 -91 
Q 1441 -91 1130 -33 
Q 819 25 488 141 
L 488 750 
Q 750 597 1062 519 
Q 1375 441 1716 441 
Q 2309 441 2620 675 
Q 2931 909 2931 1356 
Q 2931 1769 2642 2001 
Q 2353 2234 1838 2234 
L 1294 2234 
L 1294 2753 
L 1863 2753 
Q 2328 2753 2575 2939 
Q 2822 3125 2822 3475 
Q 2822 3834 2567 4026 
Q 2313 4219 1838 4219 
Q 1578 4219 1281 4162 
Q 984 4106 628 3988 
L 628 4550 
Q 988 4650 1302 4700 
Q 1616 4750 1894 4750 
Q 2613 4750 3031 4423 
Q 3450 4097 3450 3541 
Q 3450 3153 3228 2886 
Q 3006 2619 2597 2516 
z
" transform="scale(0.015625)"/>
       </defs>
       <use xlink:href="#DejaVuSans-35"/>
       <use xlink:href="#DejaVuSans-33" x="63.623047"/>
       <use xlink:href="#DejaVuSans-30" x="127.246094"/>
      </g>
     </g>
    </g>
    <g id="ytick_8">
     <g id="line2d_17">
      <g>
       <use xlink:href="#mb11fa53473" x="57.6" y="62.993455" style="stroke: #000000; stroke-width: 0.8"/>
      </g>
     </g>
     <g id="text_18">
      <!-- 540 -->
      <g transform="translate(31.5125 66.792673)scale(0.1 -0.1)">
       <use xlink:href="#DejaVuSans-35"/>
       <use xlink:href="#DejaVuSans-34" x="63.623047"/>
       <use xlink:href="#DejaVuSans-30" x="127.246094"/>
      </g>
     </g>
    </g>
    <g id="text_19">
     <!-- total cost -->
     <g transform="translate(25.432812 197.923313)rotate(-90)scale(0.1 -0.1)">
      <defs>
       <path id="DejaVuSans-74" d="M 1172 4494 
L 1172 3500 
L 2356 3500 
L 2356 3053 
L 1172 3053 
L 1172 1153 
Q 1172 725 1289 603 
Q 1406 481 1766 481 
L 2356 481 
L 2356 0 
L 1766 0 
Q 1100 0 847 248 
Q 594 497 594 1153 
L 594 3053 
L 172 3053 
L 172 3500 
L 594 3500 
L 594 4494 
L 1172 4494 
z
" transform="scale(0.015625)"/>
       <path id="DejaVuSans-6f" d="M 1959 3097 
Q 1497 3097 1228 2736 
Q 959 2375 959 1747 
Q 959 1119 1226 758 
Q 1494 397 1959 397 
Q 2419 397 2687 759 
Q 2956 1122 2956 1747 
Q 2956 2369 2687 2733 
Q 2419 3097 1959 3097 
z
M 1959 3584 
Q 2709 3584 3137 3096 
Q 3566 2609 3566 1747 
Q 3566 888 3137 398 
Q 2709 -91 1959 -91 
Q 1206 -91 779 398 
Q 353 888 353 1747 
Q 353 2609 779 3096 
Q 1206 3584 1959 3584 
z
" transform="scale(0.015625)"/>
       <path id="DejaVuSans-6c" d="M 603 4863 
L 1178 4863 
L 1178 0 
L 603 0 
L 603 4863 
z
" transform="scale(0.015625)"/>
       <path id="DejaVuSans-63" d="M 3122 3366 
L 3122 2828 
Q 2878 2963 2633 3030 
Q 2388 3097 2138 3097 
Q 1578 3097 1268 2742 
Q 959 2388 959 1747 
Q 959 1106 1268 751 
Q 1578 397 2138 397 
Q 2388 397 2633 464 
Q 2878 531 3122 666 
L 3122 134 
Q 2881 22 2623 -34 
Q 2366 -91 2075 -91 
Q 1284 -91 818 406 
Q 353 903 353 1747 
Q 353 2603 823 3093 
Q 1294 3584 2113 3584 
Q 2378 3584 2631 3529 
Q 2884 3475 3122 3366 
z
" transform="scale(0.015625)"/>
      </defs>
      <use xlink:href="#DejaVuSans-74"/>
      <use xlink:href="#DejaVuSans-6f" x="39.208984"/>
      <use xlink:href="#DejaVuSans-74" x="100.390625"/>
      <use xlink:href="#DejaVuSans-61" x="139.599609"/>
      <use xlink:href="#DejaVuSans-6c" x="200.878906"/>
      <use xlink:href="#DejaVuSans-20" x="228.662109"/>
      <use xlink:href="#DejaVuSans-63" x="260.449219"/>
      <use xlink:href="#DejaVuSans-6f" x="315.429688"/>
      <use xlink:href="#DejaVuSans-73" x="376.611328"/>
      <use xlink:href="#DejaVuSans-74" x="428.710938"/>
     </g>
    </g>
   </g>
   <g id="line2d_18">
    <path d="M 73.832727 125.829818 
L 74.160993 132.113455 
L 74.489258 179.240727 
L 75.474055 260.928 
L 75.80232 248.360727 
L 76.130586 286.062545 
L 76.458851 251.502545 
L 76.787116 254.644364 
L 77.443647 270.353455 
L 77.771913 232.651636 
L 78.100178 229.509818 
L 78.428444 245.218909 
L 78.756709 204.375273 
L 79.084975 198.091636 
L 79.41324 201.233455 
L 80.069771 194.949818 
L 80.398037 179.240727 
L 81.382833 169.815273 
L 82.039364 185.524364 
L 82.367629 179.240727 
L 83.02416 150.964364 
L 83.352426 132.113455 
L 83.680691 103.837091 
L 84.008957 119.546182 
L 84.337222 172.957091 
L 84.665488 172.957091 
L 84.993753 163.531636 
L 85.322019 185.524364 
L 85.650284 163.531636 
L 86.306815 150.964364 
L 86.63508 141.538909 
L 86.963346 113.262545 
L 87.291611 119.546182 
L 87.619877 135.255273 
L 87.948142 119.546182 
L 88.276408 141.538909 
L 88.604673 135.255273 
L 88.932939 132.113455 
L 89.261204 132.113455 
L 89.58947 116.404364 
L 89.917735 157.248 
L 90.246001 154.106182 
L 90.574266 138.397091 
L 90.902531 144.680727 
L 91.230797 144.680727 
L 91.559062 150.964364 
L 91.887328 160.389818 
L 92.215593 125.829818 
L 92.543859 125.829818 
L 92.872124 122.688 
L 93.20039 110.120727 
L 93.528655 125.829818 
L 94.185186 106.978909 
L 94.513452 116.404364 
L 94.841717 116.404364 
L 95.169983 113.262545 
L 95.498248 88.128 
L 96.154779 100.695273 
L 96.483044 125.829818 
L 96.81131 119.546182 
L 97.139575 157.248 
L 97.467841 150.964364 
L 98.124372 185.524364 
L 98.452637 179.240727 
L 98.780903 157.248 
L 99.109168 166.673455 
L 99.437434 163.531636 
L 99.765699 172.957091 
L 100.42223 135.255273 
L 100.750495 157.248 
L 101.078761 147.822545 
L 101.407026 157.248 
L 101.735292 172.957091 
L 102.063557 157.248 
L 102.391823 150.964364 
L 102.720088 163.531636 
L 103.048354 182.382545 
L 103.376619 182.382545 
L 103.704885 169.815273 
L 104.03315 182.382545 
L 104.361416 204.375273 
L 104.689681 216.942545 
L 105.017947 235.793455 
L 105.346212 220.084364 
L 105.674477 223.226182 
L 106.331008 223.226182 
L 106.659274 245.218909 
L 106.987539 242.077091 
L 107.315805 207.517091 
L 107.64407 201.233455 
L 107.972336 191.808 
L 108.628867 185.524364 
L 108.957132 160.389818 
L 109.285398 172.957091 
L 109.613663 179.240727 
L 109.941928 163.531636 
L 110.270194 163.531636 
L 110.598459 166.673455 
L 110.926725 182.382545 
L 111.583256 150.964364 
L 111.911521 166.673455 
L 112.239787 176.098909 
L 113.224583 132.113455 
L 113.552849 132.113455 
L 113.881114 106.978909 
L 114.20938 100.695273 
L 114.537645 97.553455 
L 114.86591 78.702545 
L 115.194176 88.128 
L 115.522441 81.844364 
L 115.850707 88.128 
L 116.178972 72.418909 
L 116.835503 97.553455 
L 117.163769 122.688 
L 117.492034 100.695273 
L 117.8203 94.411636 
L 118.148565 100.695273 
L 118.476831 132.113455 
L 118.805096 128.971636 
L 119.133362 144.680727 
L 119.461627 128.971636 
L 119.789892 122.688 
L 120.118158 138.397091 
L 120.446423 125.829818 
L 120.774689 125.829818 
L 121.43122 81.844364 
L 121.759485 75.560727 
L 122.087751 88.128 
L 122.744282 100.695273 
L 123.072547 91.269818 
L 123.400813 116.404364 
L 123.729078 91.269818 
L 124.057344 132.113455 
L 124.385609 141.538909 
L 124.713874 163.531636 
L 125.370405 132.113455 
L 125.698671 154.106182 
L 126.026936 125.829818 
L 126.355202 141.538909 
L 126.683467 132.113455 
L 127.011733 144.680727 
L 127.339998 147.822545 
L 127.668264 163.531636 
L 127.996529 163.531636 
L 128.324795 157.248 
L 128.65306 147.822545 
L 128.981325 113.262545 
L 129.309591 110.120727 
L 129.637856 91.269818 
L 129.966122 84.986182 
L 130.294387 106.978909 
L 130.950918 113.262545 
L 131.279184 103.837091 
L 131.607449 110.120727 
L 131.935715 81.844364 
L 132.26398 94.411636 
L 132.592246 100.695273 
L 132.920511 100.695273 
L 133.248777 103.837091 
L 133.577042 116.404364 
L 133.905307 119.546182 
L 134.233573 100.695273 
L 134.561838 103.837091 
L 134.890104 103.837091 
L 135.218369 100.695273 
L 135.546635 116.404364 
L 135.8749 103.837091 
L 136.203166 103.837091 
L 136.531431 119.546182 
L 137.516228 128.971636 
L 137.844493 160.389818 
L 138.172759 144.680727 
L 138.501024 147.822545 
L 138.829289 84.986182 
L 139.157555 97.553455 
L 139.48582 75.560727 
L 139.814086 113.262545 
L 140.142351 91.269818 
L 140.470617 78.702545 
L 140.798882 91.269818 
L 141.127148 72.418909 
L 141.455413 81.844364 
L 141.783679 81.844364 
L 142.111944 94.411636 
L 142.44021 97.553455 
L 142.768475 110.120727 
L 143.096741 135.255273 
L 143.425006 144.680727 
L 143.753271 122.688 
L 144.081537 147.822545 
L 144.409802 154.106182 
L 144.738068 110.120727 
L 145.066333 128.971636 
L 145.394599 125.829818 
L 145.722864 163.531636 
L 146.05113 157.248 
L 146.379395 147.822545 
L 146.707661 163.531636 
L 147.035926 163.531636 
L 147.364192 172.957091 
L 147.692457 176.098909 
L 148.020722 154.106182 
L 148.348988 166.673455 
L 148.677253 185.524364 
L 149.005519 179.240727 
L 149.333784 176.098909 
L 149.66205 179.240727 
L 149.990315 176.098909 
L 150.646846 154.106182 
L 150.975112 150.964364 
L 151.303377 128.971636 
L 151.631643 119.546182 
L 151.959908 116.404364 
L 152.288174 144.680727 
L 152.616439 150.964364 
L 152.944704 172.957091 
L 153.27297 185.524364 
L 153.601235 179.240727 
L 153.929501 176.098909 
L 154.257766 169.815273 
L 154.586032 185.524364 
L 154.914297 172.957091 
L 155.242563 169.815273 
L 155.570828 147.822545 
L 155.899094 150.964364 
L 156.555625 176.098909 
L 156.88389 198.091636 
L 157.540421 169.815273 
L 158.196952 135.255273 
L 158.525217 147.822545 
L 158.853483 147.822545 
L 159.181748 119.546182 
L 159.510014 106.978909 
L 159.838279 88.128 
L 160.49481 69.277091 
L 161.151341 91.269818 
L 162.136138 66.135273 
L 162.464403 69.277091 
L 162.792668 84.986182 
L 163.120934 94.411636 
L 163.449199 91.269818 
L 163.777465 94.411636 
L 164.10573 110.120727 
L 164.433996 113.262545 
L 164.762261 141.538909 
L 165.090527 144.680727 
L 165.418792 125.829818 
L 166.075323 147.822545 
L 166.403589 128.971636 
L 167.060119 141.538909 
L 167.388385 166.673455 
L 168.373181 147.822545 
L 168.701447 138.397091 
L 169.029712 179.240727 
L 169.357978 144.680727 
L 169.686243 128.971636 
L 170.014509 144.680727 
L 170.67104 198.091636 
L 171.327571 191.808 
L 171.655836 213.800727 
L 171.984101 201.233455 
L 172.312367 207.517091 
L 172.640632 198.091636 
L 172.968898 157.248 
L 173.297163 150.964364 
L 173.625429 132.113455 
L 173.953694 128.971636 
L 174.28196 113.262545 
L 174.610225 78.702545 
L 175.266756 97.553455 
L 175.923287 97.553455 
L 176.251553 100.695273 
L 176.579818 100.695273 
L 176.908083 106.978909 
L 177.236349 97.553455 
L 177.564614 106.978909 
L 178.221145 100.695273 
L 178.549411 106.978909 
L 178.877676 125.829818 
L 179.205942 116.404364 
L 179.534207 119.546182 
L 179.862473 113.262545 
L 180.190738 110.120727 
L 180.519004 113.262545 
L 180.847269 128.971636 
L 181.175535 128.971636 
L 181.5038 116.404364 
L 181.832065 125.829818 
L 182.488596 132.113455 
L 182.816862 160.389818 
L 183.145127 204.375273 
L 183.473393 191.808 
L 183.801658 188.666182 
L 184.129924 198.091636 
L 184.458189 198.091636 
L 184.786455 216.942545 
L 185.11472 194.949818 
L 185.442986 185.524364 
L 185.771251 201.233455 
L 186.099516 235.793455 
L 186.427782 220.084364 
L 186.756047 216.942545 
L 187.084313 229.509818 
L 187.412578 220.084364 
L 187.740844 216.942545 
L 188.069109 207.517091 
L 188.397375 188.666182 
L 188.72564 226.368 
L 189.053906 220.084364 
L 189.382171 226.368 
L 189.710437 216.942545 
L 190.038702 220.084364 
L 190.366968 226.368 
L 190.695233 210.658909 
L 191.023498 201.233455 
L 191.351764 207.517091 
L 191.680029 198.091636 
L 192.33656 226.368 
L 192.664826 245.218909 
L 192.993091 251.502545 
L 193.321357 226.368 
L 193.649622 235.793455 
L 194.306153 216.942545 
L 194.634419 220.084364 
L 194.962684 229.509818 
L 195.29095 216.942545 
L 195.619215 242.077091 
L 195.94748 251.502545 
L 196.275746 245.218909 
L 196.604011 248.360727 
L 196.932277 257.786182 
L 197.260542 232.651636 
L 197.588808 220.084364 
L 197.917073 201.233455 
L 198.245339 210.658909 
L 198.573604 147.822545 
L 198.90187 157.248 
L 199.230135 138.397091 
L 199.558401 144.680727 
L 199.886666 144.680727 
L 200.543197 138.397091 
L 200.871462 157.248 
L 201.199728 150.964364 
L 201.527993 125.829818 
L 201.856259 132.113455 
L 202.184524 122.688 
L 202.51279 81.844364 
L 202.841055 88.128 
L 203.169321 84.986182 
L 203.497586 88.128 
L 203.825852 88.128 
L 204.154117 91.269818 
L 204.482383 81.844364 
L 204.810648 56.709818 
L 205.467179 94.411636 
L 205.795444 163.531636 
L 206.12371 154.106182 
L 206.451975 163.531636 
L 206.780241 157.248 
L 207.108506 154.106182 
L 207.436772 125.829818 
L 207.765037 147.822545 
L 208.421568 110.120727 
L 208.749834 150.964364 
L 209.078099 172.957091 
L 209.406365 138.397091 
L 209.73463 135.255273 
L 210.062895 141.538909 
L 210.391161 141.538909 
L 210.719426 182.382545 
L 211.047692 251.502545 
L 211.375957 229.509818 
L 212.032488 207.517091 
L 212.360754 201.233455 
L 212.689019 216.942545 
L 213.017285 194.949818 
L 213.34555 135.255273 
L 213.673816 144.680727 
L 214.002081 144.680727 
L 214.330347 160.389818 
L 214.658612 147.822545 
L 214.986877 150.964364 
L 215.315143 157.248 
L 215.971674 128.971636 
L 216.299939 128.971636 
L 216.628205 122.688 
L 216.95647 125.829818 
L 217.284736 100.695273 
L 217.613001 91.269818 
L 217.941267 97.553455 
L 218.269532 88.128 
L 218.597798 94.411636 
L 218.926063 110.120727 
L 219.254329 110.120727 
L 219.582594 91.269818 
L 219.910859 110.120727 
L 220.56739 116.404364 
L 220.895656 110.120727 
L 221.223921 150.964364 
L 221.552187 157.248 
L 221.880452 166.673455 
L 222.536983 166.673455 
L 222.865249 160.389818 
L 223.193514 166.673455 
L 223.52178 185.524364 
L 223.850045 191.808 
L 224.178311 182.382545 
L 224.506576 166.673455 
L 224.834841 157.248 
L 225.163107 176.098909 
L 225.491372 163.531636 
L 225.819638 179.240727 
L 226.147903 172.957091 
L 226.476169 182.382545 
L 226.804434 179.240727 
L 227.1327 194.949818 
L 228.117496 220.084364 
L 228.445762 226.368 
L 228.774027 226.368 
L 229.102292 235.793455 
L 229.430558 235.793455 
L 229.758823 229.509818 
L 230.415354 242.077091 
L 230.74362 238.935273 
L 231.071885 216.942545 
L 231.400151 207.517091 
L 231.728416 207.517091 
L 232.056682 213.800727 
L 232.713213 220.084364 
L 233.041478 198.091636 
L 233.698009 223.226182 
L 234.026274 220.084364 
L 234.35454 166.673455 
L 234.682805 226.368 
L 235.011071 223.226182 
L 235.339336 207.517091 
L 235.667602 216.942545 
L 235.995867 201.233455 
L 236.324133 201.233455 
L 236.652398 204.375273 
L 236.980664 188.666182 
L 237.308929 191.808 
L 237.637195 191.808 
L 237.96546 188.666182 
L 238.293726 166.673455 
L 238.621991 172.957091 
L 239.278522 144.680727 
L 239.606787 157.248 
L 239.935053 176.098909 
L 240.591584 128.971636 
L 241.248115 157.248 
L 241.57638 150.964364 
L 242.232911 198.091636 
L 242.561177 207.517091 
L 243.217708 213.800727 
L 243.545973 176.098909 
L 243.874238 194.949818 
L 245.1873 116.404364 
L 245.515566 132.113455 
L 245.843831 113.262545 
L 246.172097 119.546182 
L 246.500362 132.113455 
L 246.828628 119.546182 
L 247.156893 125.829818 
L 247.485159 144.680727 
L 247.813424 147.822545 
L 248.141689 157.248 
L 248.469955 172.957091 
L 248.79822 172.957091 
L 249.126486 176.098909 
L 249.454751 172.957091 
L 249.783017 185.524364 
L 250.111282 188.666182 
L 250.439548 188.666182 
L 251.096079 182.382545 
L 251.424344 223.226182 
L 252.080875 235.793455 
L 252.409141 235.793455 
L 252.737406 260.928 
L 253.065671 264.069818 
L 253.393937 260.928 
L 253.722202 276.637091 
L 254.050468 286.062545 
L 254.378733 276.637091 
L 254.706999 282.920727 
L 255.36353 282.920727 
L 255.691795 295.488 
L 256.020061 292.346182 
L 256.348326 267.211636 
L 256.676592 270.353455 
L 257.004857 270.353455 
L 257.333123 251.502545 
L 257.661388 251.502545 
L 257.989653 245.218909 
L 258.317919 229.509818 
L 258.646184 242.077091 
L 259.302715 276.637091 
L 259.630981 276.637091 
L 259.959246 279.778909 
L 260.287512 286.062545 
L 260.615777 229.509818 
L 260.944043 213.800727 
L 261.600574 235.793455 
L 261.928839 232.651636 
L 262.257105 232.651636 
L 263.241901 198.091636 
L 263.570166 198.091636 
L 263.898432 188.666182 
L 264.226697 194.949818 
L 264.554963 194.949818 
L 264.883228 188.666182 
L 265.539759 182.382545 
L 265.868025 172.957091 
L 266.19629 169.815273 
L 267.509352 132.113455 
L 267.837617 110.120727 
L 268.165883 154.106182 
L 268.822414 191.808 
L 269.150679 194.949818 
L 269.478945 207.517091 
L 269.80721 213.800727 
L 270.135476 198.091636 
L 270.463741 191.808 
L 270.792007 169.815273 
L 271.120272 182.382545 
L 271.448538 188.666182 
L 272.105068 150.964364 
L 272.761599 179.240727 
L 273.089865 179.240727 
L 273.41813 201.233455 
L 273.746396 201.233455 
L 274.074661 188.666182 
L 274.402927 213.800727 
L 274.731192 213.800727 
L 275.059458 229.509818 
L 275.387723 220.084364 
L 275.715989 235.793455 
L 276.044254 223.226182 
L 276.37252 220.084364 
L 276.700785 223.226182 
L 277.02905 232.651636 
L 277.357316 229.509818 
L 277.685581 229.509818 
L 278.013847 242.077091 
L 278.342112 229.509818 
L 278.670378 201.233455 
L 278.998643 198.091636 
L 279.326909 216.942545 
L 279.655174 188.666182 
L 279.98344 188.666182 
L 280.311705 176.098909 
L 280.639971 185.524364 
L 280.968236 163.531636 
L 281.296502 169.815273 
L 281.624767 185.524364 
L 281.953032 176.098909 
L 282.281298 176.098909 
L 282.609563 169.815273 
L 282.937829 166.673455 
L 283.266094 160.389818 
L 283.59436 163.531636 
L 283.922625 188.666182 
L 284.250891 166.673455 
L 284.579156 182.382545 
L 284.907422 185.524364 
L 285.235687 191.808 
L 285.563953 188.666182 
L 285.892218 188.666182 
L 286.220484 169.815273 
L 286.548749 128.971636 
L 287.20528 113.262545 
L 287.533545 122.688 
L 288.518342 188.666182 
L 288.846607 194.949818 
L 289.174873 207.517091 
L 289.503138 204.375273 
L 289.831404 169.815273 
L 290.8162 138.397091 
L 291.144465 122.688 
L 291.472731 119.546182 
L 292.129262 160.389818 
L 292.457527 144.680727 
L 292.785793 135.255273 
L 293.442324 154.106182 
L 293.770589 172.957091 
L 294.42712 125.829818 
L 294.755386 119.546182 
L 295.083651 94.411636 
L 295.411917 125.829818 
L 295.740182 132.113455 
L 296.068447 128.971636 
L 296.396713 122.688 
L 297.053244 179.240727 
L 297.381509 179.240727 
L 297.709775 182.382545 
L 298.03804 169.815273 
L 298.366306 169.815273 
L 298.694571 150.964364 
L 299.022837 141.538909 
L 299.351102 147.822545 
L 299.679368 160.389818 
L 300.007633 150.964364 
L 300.335899 128.971636 
L 300.664164 150.964364 
L 300.992429 160.389818 
L 301.320695 150.964364 
L 301.64896 125.829818 
L 301.977226 110.120727 
L 302.305491 106.978909 
L 302.633757 97.553455 
L 302.962022 94.411636 
L 303.290288 62.993455 
L 303.618553 78.702545 
L 304.275084 53.568 
L 304.60335 62.993455 
L 304.931615 62.993455 
L 305.259881 84.986182 
L 305.588146 94.411636 
L 305.916411 110.120727 
L 306.244677 88.128 
L 306.572942 91.269818 
L 306.901208 91.269818 
L 307.229473 103.837091 
L 307.557739 125.829818 
L 307.886004 110.120727 
L 308.21427 88.128 
L 308.542535 103.837091 
L 308.870801 125.829818 
L 309.527332 91.269818 
L 309.855597 100.695273 
L 310.183862 84.986182 
L 310.840393 116.404364 
L 311.168659 125.829818 
L 311.496924 119.546182 
L 311.82519 128.971636 
L 312.153455 144.680727 
L 312.481721 125.829818 
L 312.809986 122.688 
L 313.138252 132.113455 
L 313.466517 132.113455 
L 313.794783 125.829818 
L 314.123048 113.262545 
L 314.451314 106.978909 
L 314.779579 106.978909 
L 315.107844 113.262545 
L 315.43611 106.978909 
L 315.764375 116.404364 
L 316.092641 169.815273 
L 316.420906 172.957091 
L 316.749172 147.822545 
L 317.077437 172.957091 
L 317.405703 172.957091 
L 317.733968 188.666182 
L 318.062234 194.949818 
L 318.390499 188.666182 
L 318.718765 154.106182 
L 319.04703 150.964364 
L 319.375296 154.106182 
L 319.703561 150.964364 
L 320.360092 176.098909 
L 320.688357 150.964364 
L 321.016623 150.964364 
L 321.344888 141.538909 
L 322.001419 176.098909 
L 322.329685 169.815273 
L 322.65795 138.397091 
L 322.986216 154.106182 
L 323.314481 138.397091 
L 323.642747 160.389818 
L 323.971012 150.964364 
L 324.299278 163.531636 
L 324.627543 154.106182 
L 325.284074 122.688 
L 325.612339 138.397091 
L 325.940605 147.822545 
L 326.26887 163.531636 
L 326.597136 163.531636 
L 326.925401 166.673455 
L 327.253667 166.673455 
L 327.581932 160.389818 
L 327.910198 172.957091 
L 328.238463 176.098909 
L 328.566729 198.091636 
L 328.894994 188.666182 
L 329.223259 201.233455 
L 329.87979 188.666182 
L 330.208056 185.524364 
L 330.536321 194.949818 
L 330.864587 185.524364 
L 331.521118 157.248 
L 331.849383 176.098909 
L 332.177649 169.815273 
L 332.505914 179.240727 
L 333.162445 160.389818 
L 333.490711 144.680727 
L 333.818976 144.680727 
L 334.147241 138.397091 
L 334.475507 160.389818 
L 334.803772 154.106182 
L 335.132038 154.106182 
L 335.460303 188.666182 
L 335.788569 185.524364 
L 336.116834 188.666182 
L 336.4451 201.233455 
L 337.101631 182.382545 
L 337.429896 182.382545 
L 337.758162 213.800727 
L 338.086427 194.949818 
L 338.414693 242.077091 
L 338.742958 235.793455 
L 339.071223 242.077091 
L 339.399489 238.935273 
L 339.727754 198.091636 
L 340.05602 204.375273 
L 340.384285 207.517091 
L 340.712551 204.375273 
L 341.040816 198.091636 
L 341.369082 207.517091 
L 341.697347 223.226182 
L 342.025613 223.226182 
L 342.353878 235.793455 
L 342.682144 229.509818 
L 343.010409 226.368 
L 343.338675 198.091636 
L 343.66694 185.524364 
L 343.995205 185.524364 
L 344.323471 182.382545 
L 344.651736 172.957091 
L 344.980002 201.233455 
L 345.308267 204.375273 
L 345.636533 216.942545 
L 345.964798 213.800727 
L 346.621329 220.084364 
L 346.949595 220.084364 
L 347.27786 216.942545 
L 347.606126 210.658909 
L 348.262656 191.808 
L 348.919187 207.517091 
L 349.247453 207.517091 
L 349.575718 235.793455 
L 349.903984 242.077091 
L 350.232249 223.226182 
L 350.560515 242.077091 
L 350.88878 245.218909 
L 351.545311 260.928 
L 351.873577 257.786182 
L 352.201842 264.069818 
L 352.530108 226.368 
L 352.858373 204.375273 
L 353.186638 163.531636 
L 353.514904 166.673455 
L 353.843169 157.248 
L 354.171435 154.106182 
L 354.4997 157.248 
L 355.156231 135.255273 
L 355.484497 163.531636 
L 355.812762 179.240727 
L 356.141028 172.957091 
L 356.469293 135.255273 
L 356.797559 122.688 
L 357.125824 125.829818 
L 357.45409 122.688 
L 358.11062 128.971636 
L 358.438886 122.688 
L 358.767151 135.255273 
L 359.095417 188.666182 
L 359.423682 207.517091 
L 359.751948 213.800727 
L 360.080213 210.658909 
L 360.408479 220.084364 
L 360.736744 213.800727 
L 361.06501 210.658909 
L 361.393275 182.382545 
L 361.721541 166.673455 
L 362.049806 169.815273 
L 362.378072 185.524364 
L 362.706337 182.382545 
L 363.034602 201.233455 
L 363.362868 194.949818 
L 363.691133 204.375273 
L 364.019399 198.091636 
L 364.347664 201.233455 
L 364.67593 216.942545 
L 365.004195 198.091636 
L 365.332461 198.091636 
L 365.660726 207.517091 
L 365.988992 210.658909 
L 366.317257 201.233455 
L 366.645523 216.942545 
L 366.973788 198.091636 
L 367.302053 226.368 
L 367.630319 226.368 
L 367.958584 229.509818 
L 368.28685 235.793455 
L 368.615115 213.800727 
L 368.943381 201.233455 
L 369.271646 144.680727 
L 369.928177 176.098909 
L 370.256443 166.673455 
L 370.584708 185.524364 
L 370.912974 176.098909 
L 371.241239 185.524364 
L 371.569505 185.524364 
L 371.89777 201.233455 
L 372.226035 198.091636 
L 372.554301 207.517091 
L 372.882566 191.808 
L 373.210832 223.226182 
L 373.539097 226.368 
L 373.867363 232.651636 
L 374.195628 235.793455 
L 374.523894 229.509818 
L 374.852159 216.942545 
L 375.180425 210.658909 
L 375.50869 182.382545 
L 375.836956 188.666182 
L 376.165221 179.240727 
L 376.493487 176.098909 
L 376.821752 169.815273 
L 377.478283 201.233455 
L 377.806548 235.793455 
L 378.134814 248.360727 
L 378.463079 235.793455 
L 378.791345 229.509818 
L 379.11961 251.502545 
L 379.447876 257.786182 
L 379.776141 223.226182 
L 380.104407 232.651636 
L 380.432672 229.509818 
L 380.760938 248.360727 
L 381.089203 245.218909 
L 381.417469 238.935273 
L 382.073999 216.942545 
L 382.402265 213.800727 
L 382.73053 213.800727 
L 383.058796 223.226182 
L 384.043592 176.098909 
L 384.371858 188.666182 
L 384.700123 147.822545 
L 385.028389 147.822545 
L 385.356654 172.957091 
L 385.68492 163.531636 
L 386.013185 166.673455 
L 386.341451 176.098909 
L 386.669716 172.957091 
L 386.997981 172.957091 
L 387.326247 176.098909 
L 387.654512 166.673455 
L 387.982778 169.815273 
L 388.311043 157.248 
L 388.639309 150.964364 
L 388.967574 172.957091 
L 389.29584 176.098909 
L 389.624105 172.957091 
L 390.608902 154.106182 
L 390.937167 166.673455 
L 391.265432 141.538909 
L 391.593698 141.538909 
L 391.921963 157.248 
L 392.250229 147.822545 
L 392.578494 157.248 
L 393.235025 150.964364 
L 393.563291 157.248 
L 393.891556 150.964364 
L 394.219822 182.382545 
L 394.548087 166.673455 
L 394.876353 172.957091 
L 395.204618 172.957091 
L 395.861149 144.680727 
L 396.189414 147.822545 
L 396.51768 163.531636 
L 396.845945 166.673455 
L 397.174211 172.957091 
L 397.502476 157.248 
L 397.830742 169.815273 
L 398.159007 176.098909 
L 398.487273 213.800727 
L 398.487273 213.800727 
" clip-path="url(#p4e99bda6ef)" style="fill: none; stroke: #1f77b4; stroke-width: 1.5; stroke-linecap: square"/>
   </g>
   <g id="patch_3">
    <path d="M 57.6 307.584 
L 57.6 41.472 
" style="fill: none; stroke: #000000; stroke-width: 0.8; stroke-linejoin: miter; stroke-linecap: square"/>
   </g>
   <g id="patch_4">
    <path d="M 414.72 307.584 
L 414.72 41.472 
" style="fill: none; stroke: #000000; stroke-width: 0.8; stroke-linejoin: miter; stroke-linecap: square"/>
   </g>
   <g id="patch_5">
    <path d="M 57.6 307.584 
L 414.72 307.584 
" style="fill: none; stroke: #000000; stroke-width: 0.8; stroke-linejoin: miter; stroke-linecap: square"/>
   </g>
   <g id="patch_6">
    <path d="M 57.6 41.472 
L 414.72 41.472 
" style="fill: none; stroke: #000000; stroke-width: 0.8; stroke-linejoin: miter; stroke-linecap: square"/>
   </g>
   <g id="text_20">
    <!-- Simulated Anealling Cost -->
    <g transform="translate(160.8 35.472)scale(0.12 -0.12)">
     <defs>
      <path id="DejaVuSans-53" d="M 3425 4513 
L 3425 3897 
Q 3066 4069 2747 4153 
Q 2428 4238 2131 4238 
Q 1616 4238 1336 4038 
Q 1056 3838 1056 3469 
Q 1056 3159 1242 3001 
Q 1428 2844 1947 2747 
L 2328 2669 
Q 3034 2534 3370 2195 
Q 3706 1856 3706 1288 
Q 3706 609 3251 259 
Q 2797 -91 1919 -91 
Q 1588 -91 1214 -16 
Q 841 59 441 206 
L 441 856 
Q 825 641 1194 531 
Q 1563 422 1919 422 
Q 2459 422 2753 634 
Q 3047 847 3047 1241 
Q 3047 1584 2836 1778 
Q 2625 1972 2144 2069 
L 1759 2144 
Q 1053 2284 737 2584 
Q 422 2884 422 3419 
Q 422 4038 858 4394 
Q 1294 4750 2059 4750 
Q 2388 4750 2728 4690 
Q 3069 4631 3425 4513 
z
" transform="scale(0.015625)"/>
      <path id="DejaVuSans-69" d="M 603 3500 
L 1178 3500 
L 1178 0 
L 603 0 
L 603 3500 
z
M 603 4863 
L 1178 4863 
L 1178 4134 
L 603 4134 
L 603 4863 
z
" transform="scale(0.015625)"/>
      <path id="DejaVuSans-65" d="M 3597 1894 
L 3597 1613 
L 953 1613 
Q 991 1019 1311 708 
Q 1631 397 2203 397 
Q 2534 397 2845 478 
Q 3156 559 3463 722 
L 3463 178 
Q 3153 47 2828 -22 
Q 2503 -91 2169 -91 
Q 1331 -91 842 396 
Q 353 884 353 1716 
Q 353 2575 817 3079 
Q 1281 3584 2069 3584 
Q 2775 3584 3186 3129 
Q 3597 2675 3597 1894 
z
M 3022 2063 
Q 3016 2534 2758 2815 
Q 2500 3097 2075 3097 
Q 1594 3097 1305 2825 
Q 1016 2553 972 2059 
L 3022 2063 
z
" transform="scale(0.015625)"/>
      <path id="DejaVuSans-64" d="M 2906 2969 
L 2906 4863 
L 3481 4863 
L 3481 0 
L 2906 0 
L 2906 525 
Q 2725 213 2448 61 
Q 2172 -91 1784 -91 
Q 1150 -91 751 415 
Q 353 922 353 1747 
Q 353 2572 751 3078 
Q 1150 3584 1784 3584 
Q 2172 3584 2448 3432 
Q 2725 3281 2906 2969 
z
M 947 1747 
Q 947 1113 1208 752 
Q 1469 391 1925 391 
Q 2381 391 2643 752 
Q 2906 1113 2906 1747 
Q 2906 2381 2643 2742 
Q 2381 3103 1925 3103 
Q 1469 3103 1208 2742 
Q 947 2381 947 1747 
z
" transform="scale(0.015625)"/>
      <path id="DejaVuSans-41" d="M 2188 4044 
L 1331 1722 
L 3047 1722 
L 2188 4044 
z
M 1831 4666 
L 2547 4666 
L 4325 0 
L 3669 0 
L 3244 1197 
L 1141 1197 
L 716 0 
L 50 0 
L 1831 4666 
z
" transform="scale(0.015625)"/>
      <path id="DejaVuSans-67" d="M 2906 1791 
Q 2906 2416 2648 2759 
Q 2391 3103 1925 3103 
Q 1463 3103 1205 2759 
Q 947 2416 947 1791 
Q 947 1169 1205 825 
Q 1463 481 1925 481 
Q 2391 481 2648 825 
Q 2906 1169 2906 1791 
z
M 3481 434 
Q 3481 -459 3084 -895 
Q 2688 -1331 1869 -1331 
Q 1566 -1331 1297 -1286 
Q 1028 -1241 775 -1147 
L 775 -588 
Q 1028 -725 1275 -790 
Q 1522 -856 1778 -856 
Q 2344 -856 2625 -561 
Q 2906 -266 2906 331 
L 2906 616 
Q 2728 306 2450 153 
Q 2172 0 1784 0 
Q 1141 0 747 490 
Q 353 981 353 1791 
Q 353 2603 747 3093 
Q 1141 3584 1784 3584 
Q 2172 3584 2450 3431 
Q 2728 3278 2906 2969 
L 2906 3500 
L 3481 3500 
L 3481 434 
z
" transform="scale(0.015625)"/>
      <path id="DejaVuSans-43" d="M 4122 4306 
L 4122 3641 
Q 3803 3938 3442 4084 
Q 3081 4231 2675 4231 
Q 1875 4231 1450 3742 
Q 1025 3253 1025 2328 
Q 1025 1406 1450 917 
Q 1875 428 2675 428 
Q 3081 428 3442 575 
Q 3803 722 4122 1019 
L 4122 359 
Q 3791 134 3420 21 
Q 3050 -91 2638 -91 
Q 1578 -91 968 557 
Q 359 1206 359 2328 
Q 359 3453 968 4101 
Q 1578 4750 2638 4750 
Q 3056 4750 3426 4639 
Q 3797 4528 4122 4306 
z
" transform="scale(0.015625)"/>
     </defs>
     <use xlink:href="#DejaVuSans-53"/>
     <use xlink:href="#DejaVuSans-69" x="63.476562"/>
     <use xlink:href="#DejaVuSans-6d" x="91.259766"/>
     <use xlink:href="#DejaVuSans-75" x="188.671875"/>
     <use xlink:href="#DejaVuSans-6c" x="252.050781"/>
     <use xlink:href="#DejaVuSans-61" x="279.833984"/>
     <use xlink:href="#DejaVuSans-74" x="341.113281"/>
     <use xlink:href="#DejaVuSans-65" x="380.322266"/>
     <use xlink:href="#DejaVuSans-64" x="441.845703"/>
     <use xlink:href="#DejaVuSans-20" x="505.322266"/>
     <use xlink:href="#DejaVuSans-41" x="537.109375"/>
     <use xlink:href="#DejaVuSans-6e" x="605.517578"/>
     <use xlink:href="#DejaVuSans-65" x="668.896484"/>
     <use xlink:href="#DejaVuSans-61" x="730.419922"/>
     <use xlink:href="#DejaVuSans-6c" x="791.699219"/>
     <use xlink:href="#DejaVuSans-6c" x="819.482422"/>
     <use xlink:href="#DejaVuSans-69" x="847.265625"/>
     <use xlink:href="#DejaVuSans-6e" x="875.048828"/>
     <use xlink:href="#DejaVuSans-67" x="938.427734"/>
     <use xlink:href="#DejaVuSans-20" x="1001.904297"/>
     <use xlink:href="#DejaVuSans-43" x="1033.691406"/>
     <use xlink:href="#DejaVuSans-6f" x="1103.515625"/>
     <use xlink:href="#DejaVuSans-73" x="1164.697266"/>
     <use xlink:href="#DejaVuSans-74" x="1216.796875"/>
    </g>
   </g>
  </g>
 </g>
 <defs>
  <clipPath id="p4e99bda6ef">
   <rect x="57.6" y="41.472" width="357.12" height="266.112"/>
  </clipPath>
 </defs>
</svg>
