<?xml version="1.0" encoding="utf-8" standalone="no"?>
<!DOCTYPE svg PUBLIC "-//W3C//DTD SVG 1.1//EN"
  "http://www.w3.org/Graphics/SVG/1.1/DTD/svg11.dtd">
<svg xmlns:xlink="http://www.w3.org/1999/xlink" width="460.8pt" height="345.6pt" viewBox="0 0 460.8 345.6" xmlns="http://www.w3.org/2000/svg" version="1.1">
 <metadata>
  <rdf:RDF xmlns:dc="http://purl.org/dc/elements/1.1/" xmlns:cc="http://creativecommons.org/ns#" xmlns:rdf="http://www.w3.org/1999/02/22-rdf-syntax-ns#">
   <cc:Work>
    <dc:type rdf:resource="http://purl.org/dc/dcmitype/StillImage"/>
    <dc:date>2022-06-01T08:08:11.508112</dc:date>
    <dc:format>image/svg+xml</dc:format>
    <dc:creator>
     <cc:Agent>
      <dc:title>Matplotlib v3.5.1, https://matplotlib.org/</dc:title>
     </cc:Agent>
    </dc:creator>
   </cc:Work>
  </rdf:RDF>
 </metadata>
 <defs>
  <style type="text/css">*{stroke-linejoin: round; stroke-linecap: butt}</style>
 </defs>
 <g id="figure_1">
  <g id="patch_1">
   <path d="M 0 345.6 
L 460.8 345.6 
L 460.8 0 
L 0 0 
z
" style="fill: #ffffff"/>
  </g>
  <g id="axes_1">
   <g id="patch_2">
    <path d="M 57.6 307.584 
L 414.72 307.584 
L 414.72 41.472 
L 57.6 41.472 
z
" style="fill: #ffffff"/>
   </g>
   <g id="matplotlib.axis_1">
    <g id="xtick_1">
     <g id="line2d_1">
      <defs>
       <path id="m0db76f1b9b" d="M 0 0 
L 0 3.5 
" style="stroke: #000000; stroke-width: 0.8"/>
      </defs>
      <g>
       <use xlink:href="#m0db76f1b9b" x="73.832727" y="307.584" style="stroke: #000000; stroke-width: 0.8"/>
      </g>
     </g>
     <g id="text_1">
      <!-- 0 -->
      <g transform="translate(70.651477 322.182437)scale(0.1 -0.1)">
       <defs>
        <path id="DejaVuSans-30" d="M 2034 4250 
Q 1547 4250 1301 3770 
Q 1056 3291 1056 2328 
Q 1056 1369 1301 889 
Q 1547 409 2034 409 
Q 2525 409 2770 889 
Q 3016 1369 3016 2328 
Q 3016 3291 2770 3770 
Q 2525 4250 2034 4250 
z
M 2034 4750 
Q 2819 4750 3233 4129 
Q 3647 3509 3647 2328 
Q 3647 1150 3233 529 
Q 2819 -91 2034 -91 
Q 1250 -91 836 529 
Q 422 1150 422 2328 
Q 422 3509 836 4129 
Q 1250 4750 2034 4750 
z
" transform="scale(0.015625)"/>
       </defs>
       <use xlink:href="#DejaVuSans-30"/>
      </g>
     </g>
    </g>
    <g id="xtick_2">
     <g id="line2d_2">
      <g>
       <use xlink:href="#m0db76f1b9b" x="151.650212" y="307.584" style="stroke: #000000; stroke-width: 0.8"/>
      </g>
     </g>
     <g id="text_2">
      <!-- 500 -->
      <g transform="translate(142.106462 322.182437)scale(0.1 -0.1)">
       <defs>
        <path id="DejaVuSans-35" d="M 691 4666 
L 3169 4666 
L 3169 4134 
L 1269 4134 
L 1269 2991 
Q 1406 3038 1543 3061 
Q 1681 3084 1819 3084 
Q 2600 3084 3056 2656 
Q 3513 2228 3513 1497 
Q 3513 744 3044 326 
Q 2575 -91 1722 -91 
Q 1428 -91 1123 -41 
Q 819 9 494 109 
L 494 744 
Q 775 591 1075 516 
Q 1375 441 1709 441 
Q 2250 441 2565 725 
Q 2881 1009 2881 1497 
Q 2881 1984 2565 2268 
Q 2250 2553 1709 2553 
Q 1456 2553 1204 2497 
Q 953 2441 691 2322 
L 691 4666 
z
" transform="scale(0.015625)"/>
       </defs>
       <use xlink:href="#DejaVuSans-35"/>
       <use xlink:href="#DejaVuSans-30" x="63.623047"/>
       <use xlink:href="#DejaVuSans-30" x="127.246094"/>
      </g>
     </g>
    </g>
    <g id="xtick_3">
     <g id="line2d_3">
      <g>
       <use xlink:href="#m0db76f1b9b" x="229.467696" y="307.584" style="stroke: #000000; stroke-width: 0.8"/>
      </g>
     </g>
     <g id="text_3">
      <!-- 1000 -->
      <g transform="translate(216.742696 322.182437)scale(0.1 -0.1)">
       <defs>
        <path id="DejaVuSans-31" d="M 794 531 
L 1825 531 
L 1825 4091 
L 703 3866 
L 703 4441 
L 1819 4666 
L 2450 4666 
L 2450 531 
L 3481 531 
L 3481 0 
L 794 0 
L 794 531 
z
" transform="scale(0.015625)"/>
       </defs>
       <use xlink:href="#DejaVuSans-31"/>
       <use xlink:href="#DejaVuSans-30" x="63.623047"/>
       <use xlink:href="#DejaVuSans-30" x="127.246094"/>
       <use xlink:href="#DejaVuSans-30" x="190.869141"/>
      </g>
     </g>
    </g>
    <g id="xtick_4">
     <g id="line2d_4">
      <g>
       <use xlink:href="#m0db76f1b9b" x="307.285181" y="307.584" style="stroke: #000000; stroke-width: 0.8"/>
      </g>
     </g>
     <g id="text_4">
      <!-- 1500 -->
      <g transform="translate(294.560181 322.182437)scale(0.1 -0.1)">
       <use xlink:href="#DejaVuSans-31"/>
       <use xlink:href="#DejaVuSans-35" x="63.623047"/>
       <use xlink:href="#DejaVuSans-30" x="127.246094"/>
       <use xlink:href="#DejaVuSans-30" x="190.869141"/>
      </g>
     </g>
    </g>
    <g id="xtick_5">
     <g id="line2d_5">
      <g>
       <use xlink:href="#m0db76f1b9b" x="385.102665" y="307.584" style="stroke: #000000; stroke-width: 0.8"/>
      </g>
     </g>
     <g id="text_5">
      <!-- 2000 -->
      <g transform="translate(372.377665 322.182437)scale(0.1 -0.1)">
       <defs>
        <path id="DejaVuSans-32" d="M 1228 531 
L 3431 531 
L 3431 0 
L 469 0 
L 469 531 
Q 828 903 1448 1529 
Q 2069 2156 2228 2338 
Q 2531 2678 2651 2914 
Q 2772 3150 2772 3378 
Q 2772 3750 2511 3984 
Q 2250 4219 1831 4219 
Q 1534 4219 1204 4116 
Q 875 4013 500 3803 
L 500 4441 
Q 881 4594 1212 4672 
Q 1544 4750 1819 4750 
Q 2544 4750 2975 4387 
Q 3406 4025 3406 3419 
Q 3406 3131 3298 2873 
Q 3191 2616 2906 2266 
Q 2828 2175 2409 1742 
Q 1991 1309 1228 531 
z
" transform="scale(0.015625)"/>
       </defs>
       <use xlink:href="#DejaVuSans-32"/>
       <use xlink:href="#DejaVuSans-30" x="63.623047"/>
       <use xlink:href="#DejaVuSans-30" x="127.246094"/>
       <use xlink:href="#DejaVuSans-30" x="190.869141"/>
      </g>
     </g>
    </g>
    <g id="text_6">
     <!-- num swaps -->
     <g transform="translate(207.826406 335.860562)scale(0.1 -0.1)">
      <defs>
       <path id="DejaVuSans-6e" d="M 3513 2113 
L 3513 0 
L 2938 0 
L 2938 2094 
Q 2938 2591 2744 2837 
Q 2550 3084 2163 3084 
Q 1697 3084 1428 2787 
Q 1159 2491 1159 1978 
L 1159 0 
L 581 0 
L 581 3500 
L 1159 3500 
L 1159 2956 
Q 1366 3272 1645 3428 
Q 1925 3584 2291 3584 
Q 2894 3584 3203 3211 
Q 3513 2838 3513 2113 
z
" transform="scale(0.015625)"/>
       <path id="DejaVuSans-75" d="M 544 1381 
L 544 3500 
L 1119 3500 
L 1119 1403 
Q 1119 906 1312 657 
Q 1506 409 1894 409 
Q 2359 409 2629 706 
Q 2900 1003 2900 1516 
L 2900 3500 
L 3475 3500 
L 3475 0 
L 2900 0 
L 2900 538 
Q 2691 219 2414 64 
Q 2138 -91 1772 -91 
Q 1169 -91 856 284 
Q 544 659 544 1381 
z
M 1991 3584 
L 1991 3584 
z
" transform="scale(0.015625)"/>
       <path id="DejaVuSans-6d" d="M 3328 2828 
Q 3544 3216 3844 3400 
Q 4144 3584 4550 3584 
Q 5097 3584 5394 3201 
Q 5691 2819 5691 2113 
L 5691 0 
L 5113 0 
L 5113 2094 
Q 5113 2597 4934 2840 
Q 4756 3084 4391 3084 
Q 3944 3084 3684 2787 
Q 3425 2491 3425 1978 
L 3425 0 
L 2847 0 
L 2847 2094 
Q 2847 2600 2669 2842 
Q 2491 3084 2119 3084 
Q 1678 3084 1418 2786 
Q 1159 2488 1159 1978 
L 1159 0 
L 581 0 
L 581 3500 
L 1159 3500 
L 1159 2956 
Q 1356 3278 1631 3431 
Q 1906 3584 2284 3584 
Q 2666 3584 2933 3390 
Q 3200 3197 3328 2828 
z
" transform="scale(0.015625)"/>
       <path id="DejaVuSans-20" transform="scale(0.015625)"/>
       <path id="DejaVuSans-73" d="M 2834 3397 
L 2834 2853 
Q 2591 2978 2328 3040 
Q 2066 3103 1784 3103 
Q 1356 3103 1142 2972 
Q 928 2841 928 2578 
Q 928 2378 1081 2264 
Q 1234 2150 1697 2047 
L 1894 2003 
Q 2506 1872 2764 1633 
Q 3022 1394 3022 966 
Q 3022 478 2636 193 
Q 2250 -91 1575 -91 
Q 1294 -91 989 -36 
Q 684 19 347 128 
L 347 722 
Q 666 556 975 473 
Q 1284 391 1588 391 
Q 1994 391 2212 530 
Q 2431 669 2431 922 
Q 2431 1156 2273 1281 
Q 2116 1406 1581 1522 
L 1381 1569 
Q 847 1681 609 1914 
Q 372 2147 372 2553 
Q 372 3047 722 3315 
Q 1072 3584 1716 3584 
Q 2034 3584 2315 3537 
Q 2597 3491 2834 3397 
z
" transform="scale(0.015625)"/>
       <path id="DejaVuSans-77" d="M 269 3500 
L 844 3500 
L 1563 769 
L 2278 3500 
L 2956 3500 
L 3675 769 
L 4391 3500 
L 4966 3500 
L 4050 0 
L 3372 0 
L 2619 2869 
L 1863 0 
L 1184 0 
L 269 3500 
z
" transform="scale(0.015625)"/>
       <path id="DejaVuSans-61" d="M 2194 1759 
Q 1497 1759 1228 1600 
Q 959 1441 959 1056 
Q 959 750 1161 570 
Q 1363 391 1709 391 
Q 2188 391 2477 730 
Q 2766 1069 2766 1631 
L 2766 1759 
L 2194 1759 
z
M 3341 1997 
L 3341 0 
L 2766 0 
L 2766 531 
Q 2569 213 2275 61 
Q 1981 -91 1556 -91 
Q 1019 -91 701 211 
Q 384 513 384 1019 
Q 384 1609 779 1909 
Q 1175 2209 1959 2209 
L 2766 2209 
L 2766 2266 
Q 2766 2663 2505 2880 
Q 2244 3097 1772 3097 
Q 1472 3097 1187 3025 
Q 903 2953 641 2809 
L 641 3341 
Q 956 3463 1253 3523 
Q 1550 3584 1831 3584 
Q 2591 3584 2966 3190 
Q 3341 2797 3341 1997 
z
" transform="scale(0.015625)"/>
       <path id="DejaVuSans-70" d="M 1159 525 
L 1159 -1331 
L 581 -1331 
L 581 3500 
L 1159 3500 
L 1159 2969 
Q 1341 3281 1617 3432 
Q 1894 3584 2278 3584 
Q 2916 3584 3314 3078 
Q 3713 2572 3713 1747 
Q 3713 922 3314 415 
Q 2916 -91 2278 -91 
Q 1894 -91 1617 61 
Q 1341 213 1159 525 
z
M 3116 1747 
Q 3116 2381 2855 2742 
Q 2594 3103 2138 3103 
Q 1681 3103 1420 2742 
Q 1159 2381 1159 1747 
Q 1159 1113 1420 752 
Q 1681 391 2138 391 
Q 2594 391 2855 752 
Q 3116 1113 3116 1747 
z
" transform="scale(0.015625)"/>
      </defs>
      <use xlink:href="#DejaVuSans-6e"/>
      <use xlink:href="#DejaVuSans-75" x="63.378906"/>
      <use xlink:href="#DejaVuSans-6d" x="126.757812"/>
      <use xlink:href="#DejaVuSans-20" x="224.169922"/>
      <use xlink:href="#DejaVuSans-73" x="255.957031"/>
      <use xlink:href="#DejaVuSans-77" x="308.056641"/>
      <use xlink:href="#DejaVuSans-61" x="389.84375"/>
      <use xlink:href="#DejaVuSans-70" x="451.123047"/>
      <use xlink:href="#DejaVuSans-73" x="514.599609"/>
     </g>
    </g>
   </g>
   <g id="matplotlib.axis_2">
    <g id="ytick_1">
     <g id="line2d_6">
      <defs>
       <path id="m6a7b7072c7" d="M 0 0 
L -3.5 0 
" style="stroke: #000000; stroke-width: 0.8"/>
      </defs>
      <g>
       <use xlink:href="#m6a7b7072c7" x="57.6" y="287.04893" style="stroke: #000000; stroke-width: 0.8"/>
      </g>
     </g>
     <g id="text_7">
      <!-- 440 -->
      <g transform="translate(31.5125 290.848149)scale(0.1 -0.1)">
       <defs>
        <path id="DejaVuSans-34" d="M 2419 4116 
L 825 1625 
L 2419 1625 
L 2419 4116 
z
M 2253 4666 
L 3047 4666 
L 3047 1625 
L 3713 1625 
L 3713 1100 
L 3047 1100 
L 3047 0 
L 2419 0 
L 2419 1100 
L 313 1100 
L 313 1709 
L 2253 4666 
z
" transform="scale(0.015625)"/>
       </defs>
       <use xlink:href="#DejaVuSans-34"/>
       <use xlink:href="#DejaVuSans-34" x="63.623047"/>
       <use xlink:href="#DejaVuSans-30" x="127.246094"/>
      </g>
     </g>
    </g>
    <g id="ytick_2">
     <g id="line2d_7">
      <g>
       <use xlink:href="#m6a7b7072c7" x="57.6" y="230.788465" style="stroke: #000000; stroke-width: 0.8"/>
      </g>
     </g>
     <g id="text_8">
      <!-- 460 -->
      <g transform="translate(31.5125 234.587684)scale(0.1 -0.1)">
       <defs>
        <path id="DejaVuSans-36" d="M 2113 2584 
Q 1688 2584 1439 2293 
Q 1191 2003 1191 1497 
Q 1191 994 1439 701 
Q 1688 409 2113 409 
Q 2538 409 2786 701 
Q 3034 994 3034 1497 
Q 3034 2003 2786 2293 
Q 2538 2584 2113 2584 
z
M 3366 4563 
L 3366 3988 
Q 3128 4100 2886 4159 
Q 2644 4219 2406 4219 
Q 1781 4219 1451 3797 
Q 1122 3375 1075 2522 
Q 1259 2794 1537 2939 
Q 1816 3084 2150 3084 
Q 2853 3084 3261 2657 
Q 3669 2231 3669 1497 
Q 3669 778 3244 343 
Q 2819 -91 2113 -91 
Q 1303 -91 875 529 
Q 447 1150 447 2328 
Q 447 3434 972 4092 
Q 1497 4750 2381 4750 
Q 2619 4750 2861 4703 
Q 3103 4656 3366 4563 
z
" transform="scale(0.015625)"/>
       </defs>
       <use xlink:href="#DejaVuSans-34"/>
       <use xlink:href="#DejaVuSans-36" x="63.623047"/>
       <use xlink:href="#DejaVuSans-30" x="127.246094"/>
      </g>
     </g>
    </g>
    <g id="ytick_3">
     <g id="line2d_8">
      <g>
       <use xlink:href="#m6a7b7072c7" x="57.6" y="174.528" style="stroke: #000000; stroke-width: 0.8"/>
      </g>
     </g>
     <g id="text_9">
      <!-- 480 -->
      <g transform="translate(31.5125 178.327219)scale(0.1 -0.1)">
       <defs>
        <path id="DejaVuSans-38" d="M 2034 2216 
Q 1584 2216 1326 1975 
Q 1069 1734 1069 1313 
Q 1069 891 1326 650 
Q 1584 409 2034 409 
Q 2484 409 2743 651 
Q 3003 894 3003 1313 
Q 3003 1734 2745 1975 
Q 2488 2216 2034 2216 
z
M 1403 2484 
Q 997 2584 770 2862 
Q 544 3141 544 3541 
Q 544 4100 942 4425 
Q 1341 4750 2034 4750 
Q 2731 4750 3128 4425 
Q 3525 4100 3525 3541 
Q 3525 3141 3298 2862 
Q 3072 2584 2669 2484 
Q 3125 2378 3379 2068 
Q 3634 1759 3634 1313 
Q 3634 634 3220 271 
Q 2806 -91 2034 -91 
Q 1263 -91 848 271 
Q 434 634 434 1313 
Q 434 1759 690 2068 
Q 947 2378 1403 2484 
z
M 1172 3481 
Q 1172 3119 1398 2916 
Q 1625 2713 2034 2713 
Q 2441 2713 2670 2916 
Q 2900 3119 2900 3481 
Q 2900 3844 2670 4047 
Q 2441 4250 2034 4250 
Q 1625 4250 1398 4047 
Q 1172 3844 1172 3481 
z
" transform="scale(0.015625)"/>
       </defs>
       <use xlink:href="#DejaVuSans-34"/>
       <use xlink:href="#DejaVuSans-38" x="63.623047"/>
       <use xlink:href="#DejaVuSans-30" x="127.246094"/>
      </g>
     </g>
    </g>
    <g id="ytick_4">
     <g id="line2d_9">
      <g>
       <use xlink:href="#m6a7b7072c7" x="57.6" y="118.267535" style="stroke: #000000; stroke-width: 0.8"/>
      </g>
     </g>
     <g id="text_10">
      <!-- 500 -->
      <g transform="translate(31.5125 122.066754)scale(0.1 -0.1)">
       <use xlink:href="#DejaVuSans-35"/>
       <use xlink:href="#DejaVuSans-30" x="63.623047"/>
       <use xlink:href="#DejaVuSans-30" x="127.246094"/>
      </g>
     </g>
    </g>
    <g id="ytick_5">
     <g id="line2d_10">
      <g>
       <use xlink:href="#m6a7b7072c7" x="57.6" y="62.00707" style="stroke: #000000; stroke-width: 0.8"/>
      </g>
     </g>
     <g id="text_11">
      <!-- 520 -->
      <g transform="translate(31.5125 65.806289)scale(0.1 -0.1)">
       <use xlink:href="#DejaVuSans-35"/>
       <use xlink:href="#DejaVuSans-32" x="63.623047"/>
       <use xlink:href="#DejaVuSans-30" x="127.246094"/>
      </g>
     </g>
    </g>
    <g id="text_12">
     <!-- total cost -->
     <g transform="translate(25.432812 197.923313)rotate(-90)scale(0.1 -0.1)">
      <defs>
       <path id="DejaVuSans-74" d="M 1172 4494 
L 1172 3500 
L 2356 3500 
L 2356 3053 
L 1172 3053 
L 1172 1153 
Q 1172 725 1289 603 
Q 1406 481 1766 481 
L 2356 481 
L 2356 0 
L 1766 0 
Q 1100 0 847 248 
Q 594 497 594 1153 
L 594 3053 
L 172 3053 
L 172 3500 
L 594 3500 
L 594 4494 
L 1172 4494 
z
" transform="scale(0.015625)"/>
       <path id="DejaVuSans-6f" d="M 1959 3097 
Q 1497 3097 1228 2736 
Q 959 2375 959 1747 
Q 959 1119 1226 758 
Q 1494 397 1959 397 
Q 2419 397 2687 759 
Q 2956 1122 2956 1747 
Q 2956 2369 2687 2733 
Q 2419 3097 1959 3097 
z
M 1959 3584 
Q 2709 3584 3137 3096 
Q 3566 2609 3566 1747 
Q 3566 888 3137 398 
Q 2709 -91 1959 -91 
Q 1206 -91 779 398 
Q 353 888 353 1747 
Q 353 2609 779 3096 
Q 1206 3584 1959 3584 
z
" transform="scale(0.015625)"/>
       <path id="DejaVuSans-6c" d="M 603 4863 
L 1178 4863 
L 1178 0 
L 603 0 
L 603 4863 
z
" transform="scale(0.015625)"/>
       <path id="DejaVuSans-63" d="M 3122 3366 
L 3122 2828 
Q 2878 2963 2633 3030 
Q 2388 3097 2138 3097 
Q 1578 3097 1268 2742 
Q 959 2388 959 1747 
Q 959 1106 1268 751 
Q 1578 397 2138 397 
Q 2388 397 2633 464 
Q 2878 531 3122 666 
L 3122 134 
Q 2881 22 2623 -34 
Q 2366 -91 2075 -91 
Q 1284 -91 818 406 
Q 353 903 353 1747 
Q 353 2603 823 3093 
Q 1294 3584 2113 3584 
Q 2378 3584 2631 3529 
Q 2884 3475 3122 3366 
z
" transform="scale(0.015625)"/>
      </defs>
      <use xlink:href="#DejaVuSans-74"/>
      <use xlink:href="#DejaVuSans-6f" x="39.208984"/>
      <use xlink:href="#DejaVuSans-74" x="100.390625"/>
      <use xlink:href="#DejaVuSans-61" x="139.599609"/>
      <use xlink:href="#DejaVuSans-6c" x="200.878906"/>
      <use xlink:href="#DejaVuSans-20" x="228.662109"/>
      <use xlink:href="#DejaVuSans-63" x="260.449219"/>
      <use xlink:href="#DejaVuSans-6f" x="315.429688"/>
      <use xlink:href="#DejaVuSans-73" x="376.611328"/>
      <use xlink:href="#DejaVuSans-74" x="428.710938"/>
     </g>
    </g>
   </g>
   <g id="line2d_11">
    <path d="M 73.832727 256.105674 
L 74.143997 236.414512 
L 74.455267 233.601488 
L 74.766537 227.975442 
L 75.077807 219.536372 
L 75.389077 219.536372 
L 75.700347 233.601488 
L 76.011617 222.349395 
L 76.322887 185.780093 
L 76.634157 191.40614 
L 76.945427 199.845209 
L 77.256697 199.845209 
L 77.567967 197.032186 
L 77.879236 227.975442 
L 78.190506 213.910326 
L 78.501776 208.284279 
L 78.813046 211.097302 
L 79.124316 188.593116 
L 79.435586 197.032186 
L 79.746856 188.593116 
L 80.058126 197.032186 
L 80.369396 185.780093 
L 80.680666 211.097302 
L 80.991936 213.910326 
L 81.303206 222.349395 
L 81.614476 222.349395 
L 81.925746 191.40614 
L 82.237016 180.154047 
L 82.548286 208.284279 
L 83.170825 222.349395 
L 83.482095 225.162419 
L 83.793365 222.349395 
L 84.104635 205.471256 
L 84.415905 216.723349 
L 84.727175 219.536372 
L 85.038445 202.658233 
L 85.349715 205.471256 
L 85.660985 216.723349 
L 85.972255 213.910326 
L 86.283525 191.40614 
L 86.594795 202.658233 
L 86.906065 233.601488 
L 87.217335 250.479628 
L 87.528605 247.666605 
L 87.839874 242.040558 
L 88.151144 227.975442 
L 88.462414 225.162419 
L 88.773684 208.284279 
L 89.396224 197.032186 
L 89.707494 194.219163 
L 90.330034 171.714977 
L 90.641304 146.397767 
L 90.952574 191.40614 
L 91.263844 188.593116 
L 91.575114 171.714977 
L 92.197654 197.032186 
L 92.508924 219.536372 
L 92.820193 197.032186 
L 93.131463 202.658233 
L 93.442733 199.845209 
L 94.065273 180.154047 
L 94.687813 208.284279 
L 95.621623 171.714977 
L 95.932893 157.64986 
L 96.244163 166.08893 
L 96.555433 160.462884 
L 96.866703 118.267535 
L 97.800513 76.072186 
L 98.111782 87.324279 
L 98.423052 70.44614 
L 99.356862 112.641488 
L 99.668132 109.828465 
L 99.979402 92.950326 
L 100.290672 107.015442 
L 100.601942 109.828465 
L 100.913212 132.332651 
L 101.224482 115.454512 
L 101.535752 118.267535 
L 101.847022 123.893581 
L 102.158292 123.893581 
L 102.469562 126.706605 
L 102.780832 112.641488 
L 103.092101 104.202419 
L 103.403371 107.015442 
L 103.714641 123.893581 
L 104.025911 121.080558 
L 104.648451 121.080558 
L 104.959721 104.202419 
L 105.582261 109.828465 
L 105.893531 109.828465 
L 106.516071 104.202419 
L 106.827341 104.202419 
L 107.138611 84.511256 
L 107.449881 129.519628 
L 107.761151 137.958698 
L 108.07242 135.145674 
L 108.38369 166.08893 
L 108.69496 185.780093 
L 109.00623 177.341023 
L 109.62877 177.341023 
L 109.94004 171.714977 
L 110.25131 154.836837 
L 110.56258 171.714977 
L 110.87385 168.901953 
L 111.18512 177.341023 
L 111.49639 191.40614 
L 112.11893 166.08893 
L 112.74147 171.714977 
L 113.052739 171.714977 
L 113.675279 177.341023 
L 113.986549 177.341023 
L 114.297819 168.901953 
L 114.609089 180.154047 
L 114.920359 185.780093 
L 115.231629 194.219163 
L 116.165439 168.901953 
L 116.476709 185.780093 
L 116.787979 191.40614 
L 117.099249 205.471256 
L 117.410519 202.658233 
L 117.721789 227.975442 
L 118.033058 219.536372 
L 118.344328 205.471256 
L 118.655598 180.154047 
L 119.278138 174.528 
L 119.589408 146.397767 
L 119.900678 157.64986 
L 120.211948 163.275907 
L 120.834488 191.40614 
L 121.145758 191.40614 
L 121.457028 199.845209 
L 121.768298 182.96707 
L 122.079568 197.032186 
L 122.390838 115.454512 
L 122.702108 109.828465 
L 123.013377 123.893581 
L 123.324647 107.015442 
L 123.635917 121.080558 
L 123.947187 121.080558 
L 124.258457 115.454512 
L 124.569727 129.519628 
L 124.880997 112.641488 
L 125.192267 135.145674 
L 125.814807 95.763349 
L 126.126077 101.389395 
L 126.437347 121.080558 
L 126.748617 107.015442 
L 127.371157 126.706605 
L 127.993697 152.023814 
L 128.304966 143.584744 
L 128.616236 168.901953 
L 128.927506 154.836837 
L 129.238776 132.332651 
L 129.550046 90.137302 
L 129.861316 92.950326 
L 130.172586 109.828465 
L 130.483856 104.202419 
L 130.795126 84.511256 
L 131.106396 107.015442 
L 131.728936 135.145674 
L 132.040206 132.332651 
L 132.351476 135.145674 
L 132.662746 132.332651 
L 132.974016 143.584744 
L 133.285285 132.332651 
L 133.596555 132.332651 
L 134.219095 109.828465 
L 134.530365 107.015442 
L 134.841635 107.015442 
L 135.152905 137.958698 
L 135.775445 152.023814 
L 136.086715 154.836837 
L 136.397985 140.771721 
L 136.709255 143.584744 
L 137.020525 174.528 
L 137.954335 197.032186 
L 138.265604 182.96707 
L 138.576874 194.219163 
L 138.888144 174.528 
L 139.199414 180.154047 
L 139.821954 208.284279 
L 140.133224 199.845209 
L 140.444494 199.845209 
L 140.755764 180.154047 
L 141.067034 199.845209 
L 141.378304 205.471256 
L 141.689574 213.910326 
L 142.000844 227.975442 
L 142.312114 230.788465 
L 142.623384 211.097302 
L 142.934654 261.731721 
L 143.245923 272.983814 
L 143.557193 242.040558 
L 143.868463 242.040558 
L 144.179733 247.666605 
L 144.491003 247.666605 
L 144.802273 244.853581 
L 145.424813 270.170791 
L 145.736083 239.227535 
L 146.047353 242.040558 
L 146.358623 247.666605 
L 146.669893 230.788465 
L 147.292433 225.162419 
L 147.603703 213.910326 
L 148.226242 225.162419 
L 148.537512 233.601488 
L 148.848782 236.414512 
L 149.160052 250.479628 
L 149.471322 242.040558 
L 150.093862 242.040558 
L 150.716402 225.162419 
L 151.027672 227.975442 
L 151.338942 233.601488 
L 151.650212 205.471256 
L 151.961482 211.097302 
L 152.272752 160.462884 
L 152.584022 140.771721 
L 152.895292 157.64986 
L 153.206561 149.210791 
L 153.517831 152.023814 
L 153.829101 146.397767 
L 154.140371 166.08893 
L 154.451641 137.958698 
L 154.762911 149.210791 
L 155.074181 171.714977 
L 156.007991 194.219163 
L 156.319261 174.528 
L 156.630531 168.901953 
L 156.941801 152.023814 
L 157.253071 174.528 
L 157.564341 171.714977 
L 157.875611 171.714977 
L 158.186881 180.154047 
L 158.49815 174.528 
L 158.80942 163.275907 
L 159.12069 140.771721 
L 159.43196 132.332651 
L 159.74323 104.202419 
L 160.0545 101.389395 
L 160.36577 90.137302 
L 160.98831 112.641488 
L 161.29958 104.202419 
L 161.61085 123.893581 
L 161.92212 126.706605 
L 162.23339 135.145674 
L 162.54466 137.958698 
L 163.1672 132.332651 
L 163.478469 126.706605 
L 163.789739 143.584744 
L 164.101009 137.958698 
L 164.412279 154.836837 
L 164.723549 152.023814 
L 165.034819 157.64986 
L 165.346089 154.836837 
L 165.657359 154.836837 
L 165.968629 137.958698 
L 166.279899 129.519628 
L 166.591169 126.706605 
L 167.213709 109.828465 
L 167.524979 121.080558 
L 167.836249 123.893581 
L 168.147519 135.145674 
L 168.458788 115.454512 
L 168.770058 107.015442 
L 169.081328 219.536372 
L 169.392598 216.723349 
L 169.703868 227.975442 
L 170.015138 216.723349 
L 170.326408 227.975442 
L 170.637678 227.975442 
L 170.948948 230.788465 
L 171.882758 278.60986 
L 172.194028 270.170791 
L 172.505298 256.105674 
L 172.816568 258.918698 
L 173.127838 242.040558 
L 173.439107 250.479628 
L 173.750377 239.227535 
L 174.061647 239.227535 
L 174.684187 261.731721 
L 174.995457 258.918698 
L 175.306727 253.292651 
L 175.617997 253.292651 
L 175.929267 261.731721 
L 176.240537 258.918698 
L 176.551807 261.731721 
L 176.863077 256.105674 
L 177.485617 216.723349 
L 177.796887 236.414512 
L 178.108157 216.723349 
L 178.419426 227.975442 
L 178.730696 227.975442 
L 179.041966 202.658233 
L 179.353236 211.097302 
L 179.975776 216.723349 
L 180.598316 250.479628 
L 180.909586 275.796837 
L 181.220856 278.60986 
L 181.843396 272.983814 
L 182.154666 281.422884 
L 182.465936 278.60986 
L 182.777206 264.544744 
L 183.088476 270.170791 
L 183.711015 264.544744 
L 184.022285 267.357767 
L 184.333555 264.544744 
L 184.644825 270.170791 
L 184.956095 278.60986 
L 185.267365 275.796837 
L 185.578635 270.170791 
L 185.889905 267.357767 
L 186.512445 256.105674 
L 186.823715 261.731721 
L 187.134985 270.170791 
L 187.446255 267.357767 
L 187.757525 261.731721 
L 188.068795 267.357767 
L 188.691334 233.601488 
L 189.002604 244.853581 
L 189.313874 242.040558 
L 189.625144 222.349395 
L 189.936414 225.162419 
L 190.247684 205.471256 
L 190.558954 199.845209 
L 190.870224 182.96707 
L 191.181494 191.40614 
L 191.804034 166.08893 
L 192.115304 168.901953 
L 192.426574 180.154047 
L 192.737844 180.154047 
L 193.360384 199.845209 
L 193.671653 185.780093 
L 193.982923 182.96707 
L 194.294193 188.593116 
L 194.605463 177.341023 
L 195.228003 197.032186 
L 195.850543 168.901953 
L 196.161813 163.275907 
L 196.473083 152.023814 
L 196.784353 146.397767 
L 197.095623 132.332651 
L 197.406893 157.64986 
L 197.718163 149.210791 
L 198.340703 199.845209 
L 198.963242 199.845209 
L 199.274512 188.593116 
L 199.585782 188.593116 
L 199.897052 205.471256 
L 200.519592 199.845209 
L 200.830862 202.658233 
L 201.142132 216.723349 
L 201.764672 202.658233 
L 202.075942 197.032186 
L 202.387212 202.658233 
L 202.698482 202.658233 
L 203.009752 197.032186 
L 203.321022 194.219163 
L 203.632291 185.780093 
L 203.943561 188.593116 
L 204.254831 185.780093 
L 204.566101 185.780093 
L 204.877371 174.528 
L 205.188641 177.341023 
L 205.499911 168.901953 
L 205.811181 171.714977 
L 206.122451 180.154047 
L 206.433721 182.96707 
L 206.744991 180.154047 
L 207.056261 182.96707 
L 207.367531 177.341023 
L 207.678801 163.275907 
L 207.990071 174.528 
L 208.301341 191.40614 
L 208.61261 174.528 
L 209.23515 180.154047 
L 209.54642 180.154047 
L 209.85769 177.341023 
L 210.16896 177.341023 
L 210.48023 182.96707 
L 210.7915 182.96707 
L 211.10277 185.780093 
L 211.41404 174.528 
L 211.72531 149.210791 
L 212.03658 146.397767 
L 212.34785 149.210791 
L 212.65912 146.397767 
L 213.28166 174.528 
L 214.526739 143.584744 
L 214.838009 126.706605 
L 215.149279 118.267535 
L 216.083089 149.210791 
L 216.705629 123.893581 
L 217.016899 107.015442 
L 217.328169 118.267535 
L 217.639439 118.267535 
L 217.950709 126.706605 
L 218.573248 132.332651 
L 218.884518 143.584744 
L 219.195788 137.958698 
L 219.507058 126.706605 
L 219.818328 132.332651 
L 220.129598 140.771721 
L 220.440868 143.584744 
L 220.752138 174.528 
L 221.063408 174.528 
L 221.685948 154.836837 
L 221.997218 149.210791 
L 222.308488 166.08893 
L 222.619758 216.723349 
L 222.931028 230.788465 
L 223.242298 233.601488 
L 223.553568 239.227535 
L 223.864837 242.040558 
L 224.176107 256.105674 
L 225.109917 216.723349 
L 225.421187 225.162419 
L 225.732457 227.975442 
L 226.043727 216.723349 
L 226.354997 222.349395 
L 226.666267 216.723349 
L 226.977537 208.284279 
L 227.288807 211.097302 
L 227.600077 185.780093 
L 227.911347 191.40614 
L 228.222617 185.780093 
L 228.533887 188.593116 
L 228.845156 205.471256 
L 229.156426 208.284279 
L 229.467696 208.284279 
L 229.778966 188.593116 
L 230.090236 197.032186 
L 230.401506 191.40614 
L 230.712776 191.40614 
L 231.335316 168.901953 
L 231.957856 168.901953 
L 232.269126 146.397767 
L 232.580396 146.397767 
L 232.891666 177.341023 
L 233.202936 163.275907 
L 233.514206 157.64986 
L 233.825475 160.462884 
L 234.136745 152.023814 
L 234.448015 152.023814 
L 234.759285 154.836837 
L 235.070555 146.397767 
L 235.381825 143.584744 
L 235.693095 135.145674 
L 236.004365 157.64986 
L 236.315635 149.210791 
L 236.938175 149.210791 
L 237.249445 152.023814 
L 237.560715 149.210791 
L 237.871985 129.519628 
L 238.183255 140.771721 
L 238.494525 157.64986 
L 238.805794 149.210791 
L 239.117064 174.528 
L 239.739604 163.275907 
L 240.362144 174.528 
L 240.673414 188.593116 
L 240.984684 174.528 
L 241.295954 171.714977 
L 241.607224 157.64986 
L 241.918494 152.023814 
L 242.229764 152.023814 
L 242.541034 140.771721 
L 242.852304 123.893581 
L 243.163574 137.958698 
L 243.474844 143.584744 
L 243.786113 146.397767 
L 244.097383 140.771721 
L 244.408653 140.771721 
L 245.031193 146.397767 
L 245.342463 135.145674 
L 245.965003 149.210791 
L 246.587543 121.080558 
L 246.898813 126.706605 
L 247.210083 140.771721 
L 247.521353 140.771721 
L 247.832623 146.397767 
L 248.143893 140.771721 
L 248.455163 143.584744 
L 248.766432 152.023814 
L 249.077702 146.397767 
L 249.388972 121.080558 
L 250.011512 135.145674 
L 250.322782 137.958698 
L 250.634052 143.584744 
L 250.945322 137.958698 
L 251.256592 135.145674 
L 251.567862 123.893581 
L 252.190402 129.519628 
L 252.501672 115.454512 
L 252.812942 109.828465 
L 253.124212 146.397767 
L 253.746752 146.397767 
L 254.058021 166.08893 
L 254.369291 135.145674 
L 254.680561 140.771721 
L 254.991831 152.023814 
L 255.303101 152.023814 
L 255.614371 149.210791 
L 255.925641 140.771721 
L 256.548181 154.836837 
L 256.859451 152.023814 
L 257.481991 177.341023 
L 257.793261 180.154047 
L 258.415801 154.836837 
L 258.727071 152.023814 
L 259.03834 152.023814 
L 259.34961 171.714977 
L 259.97215 194.219163 
L 260.28342 180.154047 
L 260.59469 182.96707 
L 261.5285 174.528 
L 261.83977 188.593116 
L 262.15104 182.96707 
L 262.46231 180.154047 
L 262.77358 188.593116 
L 263.08485 177.341023 
L 263.39612 180.154047 
L 263.70739 185.780093 
L 264.018659 174.528 
L 264.329929 174.528 
L 264.641199 171.714977 
L 264.952469 166.08893 
L 265.263739 163.275907 
L 265.886279 177.341023 
L 266.197549 194.219163 
L 266.508819 180.154047 
L 266.820089 174.528 
L 267.131359 197.032186 
L 267.442629 208.284279 
L 267.753899 202.658233 
L 268.065169 171.714977 
L 268.376439 168.901953 
L 268.687709 180.154047 
L 268.998978 154.836837 
L 269.310248 157.64986 
L 269.621518 152.023814 
L 269.932788 140.771721 
L 270.244058 140.771721 
L 270.866598 118.267535 
L 271.177868 123.893581 
L 271.489138 121.080558 
L 271.800408 115.454512 
L 272.111678 126.706605 
L 272.422948 123.893581 
L 272.734218 152.023814 
L 273.045488 149.210791 
L 273.356758 132.332651 
L 273.979297 115.454512 
L 274.290567 152.023814 
L 274.601837 146.397767 
L 274.913107 126.706605 
L 275.224377 126.706605 
L 275.535647 140.771721 
L 275.846917 168.901953 
L 276.158187 163.275907 
L 276.469457 160.462884 
L 276.780727 137.958698 
L 277.091997 140.771721 
L 277.403267 137.958698 
L 277.714537 152.023814 
L 278.025807 152.023814 
L 278.648347 177.341023 
L 278.959616 163.275907 
L 279.270886 168.901953 
L 279.582156 182.96707 
L 279.893426 168.901953 
L 280.204696 188.593116 
L 280.515966 188.593116 
L 281.138506 182.96707 
L 281.449776 166.08893 
L 281.761046 182.96707 
L 282.072316 185.780093 
L 282.383586 197.032186 
L 282.694856 213.910326 
L 283.006126 213.910326 
L 283.628666 188.593116 
L 283.939936 180.154047 
L 284.251205 149.210791 
L 284.562475 157.64986 
L 284.873745 154.836837 
L 285.185015 157.64986 
L 285.496285 146.397767 
L 285.807555 126.706605 
L 286.118825 132.332651 
L 286.430095 132.332651 
L 286.741365 126.706605 
L 287.052635 143.584744 
L 287.363905 137.958698 
L 287.675175 135.145674 
L 287.986445 129.519628 
L 288.297715 129.519628 
L 288.608985 126.706605 
L 288.920255 140.771721 
L 289.231524 140.771721 
L 289.542794 149.210791 
L 289.854064 168.901953 
L 290.165334 149.210791 
L 290.476604 152.023814 
L 290.787874 140.771721 
L 291.099144 154.836837 
L 291.410414 129.519628 
L 291.721684 154.836837 
L 292.032954 168.901953 
L 292.344224 157.64986 
L 292.655494 166.08893 
L 292.966764 166.08893 
L 293.278034 177.341023 
L 293.589304 194.219163 
L 293.900574 230.788465 
L 294.211843 219.536372 
L 294.523113 216.723349 
L 294.834383 225.162419 
L 295.145653 216.723349 
L 295.456923 216.723349 
L 295.768193 233.601488 
L 296.079463 222.349395 
L 296.390733 222.349395 
L 296.702003 236.414512 
L 297.013273 227.975442 
L 297.324543 227.975442 
L 297.635813 219.536372 
L 297.947083 236.414512 
L 298.258353 225.162419 
L 298.880893 219.536372 
L 299.192162 222.349395 
L 299.814702 211.097302 
L 300.125972 202.658233 
L 300.437242 182.96707 
L 300.748512 182.96707 
L 301.059782 213.910326 
L 301.371052 205.471256 
L 301.682322 191.40614 
L 302.304862 174.528 
L 302.616132 182.96707 
L 302.927402 180.154047 
L 303.238672 168.901953 
L 303.549942 177.341023 
L 303.861212 166.08893 
L 304.172481 188.593116 
L 304.795021 205.471256 
L 305.106291 219.536372 
L 305.417561 205.471256 
L 305.728831 205.471256 
L 306.662641 197.032186 
L 307.285181 185.780093 
L 307.596451 185.780093 
L 307.907721 194.219163 
L 308.218991 188.593116 
L 308.530261 185.780093 
L 308.841531 171.714977 
L 309.1528 174.528 
L 309.46407 180.154047 
L 309.77534 188.593116 
L 310.08661 191.40614 
L 310.39788 188.593116 
L 310.70915 180.154047 
L 311.02042 185.780093 
L 311.64296 247.666605 
L 312.2655 267.357767 
L 312.57677 233.601488 
L 312.88804 222.349395 
L 313.19931 233.601488 
L 313.82185 205.471256 
L 314.133119 185.780093 
L 315.066929 219.536372 
L 315.378199 216.723349 
L 315.689469 197.032186 
L 316.000739 202.658233 
L 316.312009 182.96707 
L 316.934549 166.08893 
L 317.245819 185.780093 
L 317.557089 188.593116 
L 317.868359 197.032186 
L 318.179629 199.845209 
L 318.490899 197.032186 
L 318.802169 205.471256 
L 319.113439 199.845209 
L 319.424708 208.284279 
L 319.735978 211.097302 
L 320.047248 208.284279 
L 320.358518 211.097302 
L 320.669788 225.162419 
L 320.981058 225.162419 
L 321.292328 216.723349 
L 321.914868 185.780093 
L 322.226138 185.780093 
L 322.848678 213.910326 
L 323.159948 168.901953 
L 323.471218 174.528 
L 323.782488 208.284279 
L 324.716297 244.853581 
L 325.338837 244.853581 
L 325.650107 242.040558 
L 325.961377 112.641488 
L 326.583917 112.641488 
L 326.895187 121.080558 
L 327.206457 98.576372 
L 327.828997 92.950326 
L 328.140267 87.324279 
L 328.762807 73.259163 
L 329.074077 53.568 
L 329.385346 84.511256 
L 329.696616 87.324279 
L 330.007886 98.576372 
L 330.319156 197.032186 
L 330.630426 202.658233 
L 330.941696 191.40614 
L 331.252966 197.032186 
L 331.564236 211.097302 
L 331.875506 202.658233 
L 332.186776 208.284279 
L 332.498046 199.845209 
L 332.809316 185.780093 
L 333.120586 180.154047 
L 333.431856 185.780093 
L 333.743126 180.154047 
L 334.054396 177.341023 
L 334.365665 182.96707 
L 334.676935 177.341023 
L 335.299475 149.210791 
L 335.610745 140.771721 
L 335.922015 140.771721 
L 336.233285 166.08893 
L 336.544555 154.836837 
L 337.167095 180.154047 
L 337.478365 182.96707 
L 337.789635 197.032186 
L 338.100905 197.032186 
L 338.412175 216.723349 
L 338.723445 219.536372 
L 339.034715 205.471256 
L 339.345984 211.097302 
L 339.657254 194.219163 
L 339.968524 191.40614 
L 340.279794 182.96707 
L 340.591064 194.219163 
L 340.902334 191.40614 
L 341.213604 213.910326 
L 341.524874 205.471256 
L 341.836144 205.471256 
L 342.147414 202.658233 
L 342.458684 219.536372 
L 342.769954 219.536372 
L 343.081224 227.975442 
L 343.392494 219.536372 
L 343.703764 222.349395 
L 344.015034 205.471256 
L 344.326303 199.845209 
L 344.637573 208.284279 
L 344.948843 205.471256 
L 345.571383 188.593116 
L 345.882653 199.845209 
L 346.193923 188.593116 
L 346.505193 191.40614 
L 346.816463 182.96707 
L 347.127733 188.593116 
L 347.439003 216.723349 
L 347.750273 222.349395 
L 348.061543 261.731721 
L 348.372813 233.601488 
L 348.684083 250.479628 
L 348.995353 253.292651 
L 349.306623 236.414512 
L 349.929162 230.788465 
L 350.240432 233.601488 
L 350.551702 216.723349 
L 351.485512 244.853581 
L 351.796782 233.601488 
L 352.419322 222.349395 
L 352.730592 225.162419 
L 353.041862 205.471256 
L 353.353132 197.032186 
L 353.664402 199.845209 
L 353.975672 174.528 
L 354.598211 211.097302 
L 355.532021 182.96707 
L 356.154561 154.836837 
L 356.465831 154.836837 
L 356.777101 166.08893 
L 357.088371 171.714977 
L 357.399641 202.658233 
L 357.710911 197.032186 
L 358.333451 202.658233 
L 358.644721 197.032186 
L 358.955991 188.593116 
L 359.267261 188.593116 
L 359.57853 174.528 
L 359.8898 177.341023 
L 360.20107 149.210791 
L 360.82361 166.08893 
L 361.13488 160.462884 
L 361.44615 163.275907 
L 361.75742 163.275907 
L 362.06869 191.40614 
L 362.37996 202.658233 
L 362.69123 202.658233 
L 363.0025 211.097302 
L 363.31377 211.097302 
L 363.62504 208.284279 
L 363.93631 194.219163 
L 364.24758 199.845209 
L 364.870119 180.154047 
L 365.181389 180.154047 
L 365.492659 174.528 
L 365.803929 174.528 
L 366.115199 180.154047 
L 366.426469 180.154047 
L 366.737739 188.593116 
L 367.049009 188.593116 
L 367.360279 208.284279 
L 367.671549 197.032186 
L 367.982819 191.40614 
L 368.294089 202.658233 
L 368.605359 197.032186 
L 368.916629 199.845209 
L 369.539168 180.154047 
L 369.850438 180.154047 
L 370.161708 191.40614 
L 370.472978 182.96707 
L 370.784248 194.219163 
L 371.095518 166.08893 
L 371.406788 166.08893 
L 371.718058 163.275907 
L 372.029328 166.08893 
L 372.340598 160.462884 
L 373.274408 211.097302 
L 373.585678 213.910326 
L 373.896948 208.284279 
L 374.208218 213.910326 
L 374.519487 225.162419 
L 374.830757 205.471256 
L 375.142027 197.032186 
L 375.453297 199.845209 
L 375.764567 213.910326 
L 376.075837 208.284279 
L 376.387107 197.032186 
L 376.698377 205.471256 
L 377.320917 194.219163 
L 377.943457 213.910326 
L 378.254727 208.284279 
L 378.565997 225.162419 
L 379.188537 208.284279 
L 379.499807 213.910326 
L 379.811076 208.284279 
L 380.122346 205.471256 
L 380.433616 213.910326 
L 380.744886 208.284279 
L 381.056156 211.097302 
L 381.367426 205.471256 
L 381.678696 197.032186 
L 381.989966 194.219163 
L 382.612506 244.853581 
L 382.923776 233.601488 
L 383.546316 239.227535 
L 383.857586 239.227535 
L 384.168856 256.105674 
L 384.480126 250.479628 
L 384.791395 250.479628 
L 385.102665 247.666605 
L 385.413935 250.479628 
L 385.725205 258.918698 
L 386.036475 256.105674 
L 386.347745 230.788465 
L 386.659015 236.414512 
L 387.281555 236.414512 
L 387.592825 233.601488 
L 387.904095 233.601488 
L 388.215365 244.853581 
L 388.526635 230.788465 
L 388.837905 253.292651 
L 389.149175 253.292651 
L 389.771714 258.918698 
L 390.082984 258.918698 
L 390.394254 264.544744 
L 390.705524 267.357767 
L 391.328064 281.422884 
L 391.639334 272.983814 
L 391.950604 287.04893 
L 392.261874 284.235907 
L 392.573144 287.04893 
L 392.884414 292.674977 
L 393.195684 295.488 
L 393.506954 289.861953 
L 393.818224 261.731721 
L 394.129494 264.544744 
L 394.440764 272.983814 
L 394.752033 272.983814 
L 395.063303 270.170791 
L 395.374573 261.731721 
L 395.685843 264.544744 
L 395.997113 227.975442 
L 396.308383 216.723349 
L 396.619653 225.162419 
L 396.930923 211.097302 
L 397.242193 211.097302 
L 397.553463 188.593116 
L 397.864733 182.96707 
L 398.176003 157.64986 
L 398.487273 146.397767 
L 398.487273 146.397767 
" clip-path="url(#p90057c4a3a)" style="fill: none; stroke: #1f77b4; stroke-width: 1.5; stroke-linecap: square"/>
   </g>
   <g id="patch_3">
    <path d="M 57.6 307.584 
L 57.6 41.472 
" style="fill: none; stroke: #000000; stroke-width: 0.8; stroke-linejoin: miter; stroke-linecap: square"/>
   </g>
   <g id="patch_4">
    <path d="M 414.72 307.584 
L 414.72 41.472 
" style="fill: none; stroke: #000000; stroke-width: 0.8; stroke-linejoin: miter; stroke-linecap: square"/>
   </g>
   <g id="patch_5">
    <path d="M 57.6 307.584 
L 414.72 307.584 
" style="fill: none; stroke: #000000; stroke-width: 0.8; stroke-linejoin: miter; stroke-linecap: square"/>
   </g>
   <g id="patch_6">
    <path d="M 57.6 41.472 
L 414.72 41.472 
" style="fill: none; stroke: #000000; stroke-width: 0.8; stroke-linejoin: miter; stroke-linecap: square"/>
   </g>
   <g id="text_13">
    <!-- Simulated Anealling Cost -->
    <g transform="translate(160.8 35.472)scale(0.12 -0.12)">
     <defs>
      <path id="DejaVuSans-53" d="M 3425 4513 
L 3425 3897 
Q 3066 4069 2747 4153 
Q 2428 4238 2131 4238 
Q 1616 4238 1336 4038 
Q 1056 3838 1056 3469 
Q 1056 3159 1242 3001 
Q 1428 2844 1947 2747 
L 2328 2669 
Q 3034 2534 3370 2195 
Q 3706 1856 3706 1288 
Q 3706 609 3251 259 
Q 2797 -91 1919 -91 
Q 1588 -91 1214 -16 
Q 841 59 441 206 
L 441 856 
Q 825 641 1194 531 
Q 1563 422 1919 422 
Q 2459 422 2753 634 
Q 3047 847 3047 1241 
Q 3047 1584 2836 1778 
Q 2625 1972 2144 2069 
L 1759 2144 
Q 1053 2284 737 2584 
Q 422 2884 422 3419 
Q 422 4038 858 4394 
Q 1294 4750 2059 4750 
Q 2388 4750 2728 4690 
Q 3069 4631 3425 4513 
z
" transform="scale(0.015625)"/>
      <path id="DejaVuSans-69" d="M 603 3500 
L 1178 3500 
L 1178 0 
L 603 0 
L 603 3500 
z
M 603 4863 
L 1178 4863 
L 1178 4134 
L 603 4134 
L 603 4863 
z
" transform="scale(0.015625)"/>
      <path id="DejaVuSans-65" d="M 3597 1894 
L 3597 1613 
L 953 1613 
Q 991 1019 1311 708 
Q 1631 397 2203 397 
Q 2534 397 2845 478 
Q 3156 559 3463 722 
L 3463 178 
Q 3153 47 2828 -22 
Q 2503 -91 2169 -91 
Q 1331 -91 842 396 
Q 353 884 353 1716 
Q 353 2575 817 3079 
Q 1281 3584 2069 3584 
Q 2775 3584 3186 3129 
Q 3597 2675 3597 1894 
z
M 3022 2063 
Q 3016 2534 2758 2815 
Q 2500 3097 2075 3097 
Q 1594 3097 1305 2825 
Q 1016 2553 972 2059 
L 3022 2063 
z
" transform="scale(0.015625)"/>
      <path id="DejaVuSans-64" d="M 2906 2969 
L 2906 4863 
L 3481 4863 
L 3481 0 
L 2906 0 
L 2906 525 
Q 2725 213 2448 61 
Q 2172 -91 1784 -91 
Q 1150 -91 751 415 
Q 353 922 353 1747 
Q 353 2572 751 3078 
Q 1150 3584 1784 3584 
Q 2172 3584 2448 3432 
Q 2725 3281 2906 2969 
z
M 947 1747 
Q 947 1113 1208 752 
Q 1469 391 1925 391 
Q 2381 391 2643 752 
Q 2906 1113 2906 1747 
Q 2906 2381 2643 2742 
Q 2381 3103 1925 3103 
Q 1469 3103 1208 2742 
Q 947 2381 947 1747 
z
" transform="scale(0.015625)"/>
      <path id="DejaVuSans-41" d="M 2188 4044 
L 1331 1722 
L 3047 1722 
L 2188 4044 
z
M 1831 4666 
L 2547 4666 
L 4325 0 
L 3669 0 
L 3244 1197 
L 1141 1197 
L 716 0 
L 50 0 
L 1831 4666 
z
" transform="scale(0.015625)"/>
      <path id="DejaVuSans-67" d="M 2906 1791 
Q 2906 2416 2648 2759 
Q 2391 3103 1925 3103 
Q 1463 3103 1205 2759 
Q 947 2416 947 1791 
Q 947 1169 1205 825 
Q 1463 481 1925 481 
Q 2391 481 2648 825 
Q 2906 1169 2906 1791 
z
M 3481 434 
Q 3481 -459 3084 -895 
Q 2688 -1331 1869 -1331 
Q 1566 -1331 1297 -1286 
Q 1028 -1241 775 -1147 
L 775 -588 
Q 1028 -725 1275 -790 
Q 1522 -856 1778 -856 
Q 2344 -856 2625 -561 
Q 2906 -266 2906 331 
L 2906 616 
Q 2728 306 2450 153 
Q 2172 0 1784 0 
Q 1141 0 747 490 
Q 353 981 353 1791 
Q 353 2603 747 3093 
Q 1141 3584 1784 3584 
Q 2172 3584 2450 3431 
Q 2728 3278 2906 2969 
L 2906 3500 
L 3481 3500 
L 3481 434 
z
" transform="scale(0.015625)"/>
      <path id="DejaVuSans-43" d="M 4122 4306 
L 4122 3641 
Q 3803 3938 3442 4084 
Q 3081 4231 2675 4231 
Q 1875 4231 1450 3742 
Q 1025 3253 1025 2328 
Q 1025 1406 1450 917 
Q 1875 428 2675 428 
Q 3081 428 3442 575 
Q 3803 722 4122 1019 
L 4122 359 
Q 3791 134 3420 21 
Q 3050 -91 2638 -91 
Q 1578 -91 968 557 
Q 359 1206 359 2328 
Q 359 3453 968 4101 
Q 1578 4750 2638 4750 
Q 3056 4750 3426 4639 
Q 3797 4528 4122 4306 
z
" transform="scale(0.015625)"/>
     </defs>
     <use xlink:href="#DejaVuSans-53"/>
     <use xlink:href="#DejaVuSans-69" x="63.476562"/>
     <use xlink:href="#DejaVuSans-6d" x="91.259766"/>
     <use xlink:href="#DejaVuSans-75" x="188.671875"/>
     <use xlink:href="#DejaVuSans-6c" x="252.050781"/>
     <use xlink:href="#DejaVuSans-61" x="279.833984"/>
     <use xlink:href="#DejaVuSans-74" x="341.113281"/>
     <use xlink:href="#DejaVuSans-65" x="380.322266"/>
     <use xlink:href="#DejaVuSans-64" x="441.845703"/>
     <use xlink:href="#DejaVuSans-20" x="505.322266"/>
     <use xlink:href="#DejaVuSans-41" x="537.109375"/>
     <use xlink:href="#DejaVuSans-6e" x="605.517578"/>
     <use xlink:href="#DejaVuSans-65" x="668.896484"/>
     <use xlink:href="#DejaVuSans-61" x="730.419922"/>
     <use xlink:href="#DejaVuSans-6c" x="791.699219"/>
     <use xlink:href="#DejaVuSans-6c" x="819.482422"/>
     <use xlink:href="#DejaVuSans-69" x="847.265625"/>
     <use xlink:href="#DejaVuSans-6e" x="875.048828"/>
     <use xlink:href="#DejaVuSans-67" x="938.427734"/>
     <use xlink:href="#DejaVuSans-20" x="1001.904297"/>
     <use xlink:href="#DejaVuSans-43" x="1033.691406"/>
     <use xlink:href="#DejaVuSans-6f" x="1103.515625"/>
     <use xlink:href="#DejaVuSans-73" x="1164.697266"/>
     <use xlink:href="#DejaVuSans-74" x="1216.796875"/>
    </g>
   </g>
  </g>
 </g>
 <defs>
  <clipPath id="p90057c4a3a">
   <rect x="57.6" y="41.472" width="357.12" height="266.112"/>
  </clipPath>
 </defs>
</svg>
