<?xml version="1.0" encoding="utf-8" standalone="no"?>
<!DOCTYPE svg PUBLIC "-//W3C//DTD SVG 1.1//EN"
  "http://www.w3.org/Graphics/SVG/1.1/DTD/svg11.dtd">
<svg xmlns:xlink="http://www.w3.org/1999/xlink" width="460.8pt" height="345.6pt" viewBox="0 0 460.8 345.6" xmlns="http://www.w3.org/2000/svg" version="1.1">
 <metadata>
  <rdf:RDF xmlns:dc="http://purl.org/dc/elements/1.1/" xmlns:cc="http://creativecommons.org/ns#" xmlns:rdf="http://www.w3.org/1999/02/22-rdf-syntax-ns#">
   <cc:Work>
    <dc:type rdf:resource="http://purl.org/dc/dcmitype/StillImage"/>
    <dc:date>2022-06-01T08:08:15.345706</dc:date>
    <dc:format>image/svg+xml</dc:format>
    <dc:creator>
     <cc:Agent>
      <dc:title>Matplotlib v3.5.1, https://matplotlib.org/</dc:title>
     </cc:Agent>
    </dc:creator>
   </cc:Work>
  </rdf:RDF>
 </metadata>
 <defs>
  <style type="text/css">*{stroke-linejoin: round; stroke-linecap: butt}</style>
 </defs>
 <g id="figure_1">
  <g id="patch_1">
   <path d="M 0 345.6 
L 460.8 345.6 
L 460.8 0 
L 0 0 
z
" style="fill: #ffffff"/>
  </g>
  <g id="axes_1">
   <g id="patch_2">
    <path d="M 57.6 307.584 
L 414.72 307.584 
L 414.72 41.472 
L 57.6 41.472 
z
" style="fill: #ffffff"/>
   </g>
   <g id="matplotlib.axis_1">
    <g id="xtick_1">
     <g id="line2d_1">
      <defs>
       <path id="m25fe365b83" d="M 0 0 
L 0 3.5 
" style="stroke: #000000; stroke-width: 0.8"/>
      </defs>
      <g>
       <use xlink:href="#m25fe365b83" x="73.832727" y="307.584" style="stroke: #000000; stroke-width: 0.8"/>
      </g>
     </g>
     <g id="text_1">
      <!-- 0 -->
      <g transform="translate(70.651477 322.182437)scale(0.1 -0.1)">
       <defs>
        <path id="DejaVuSans-30" d="M 2034 4250 
Q 1547 4250 1301 3770 
Q 1056 3291 1056 2328 
Q 1056 1369 1301 889 
Q 1547 409 2034 409 
Q 2525 409 2770 889 
Q 3016 1369 3016 2328 
Q 3016 3291 2770 3770 
Q 2525 4250 2034 4250 
z
M 2034 4750 
Q 2819 4750 3233 4129 
Q 3647 3509 3647 2328 
Q 3647 1150 3233 529 
Q 2819 -91 2034 -91 
Q 1250 -91 836 529 
Q 422 1150 422 2328 
Q 422 3509 836 4129 
Q 1250 4750 2034 4750 
z
" transform="scale(0.015625)"/>
       </defs>
       <use xlink:href="#DejaVuSans-30"/>
      </g>
     </g>
    </g>
    <g id="xtick_2">
     <g id="line2d_2">
      <g>
       <use xlink:href="#m25fe365b83" x="116.958995" y="307.584" style="stroke: #000000; stroke-width: 0.8"/>
      </g>
     </g>
     <g id="text_2">
      <!-- 250 -->
      <g transform="translate(107.415245 322.182437)scale(0.1 -0.1)">
       <defs>
        <path id="DejaVuSans-32" d="M 1228 531 
L 3431 531 
L 3431 0 
L 469 0 
L 469 531 
Q 828 903 1448 1529 
Q 2069 2156 2228 2338 
Q 2531 2678 2651 2914 
Q 2772 3150 2772 3378 
Q 2772 3750 2511 3984 
Q 2250 4219 1831 4219 
Q 1534 4219 1204 4116 
Q 875 4013 500 3803 
L 500 4441 
Q 881 4594 1212 4672 
Q 1544 4750 1819 4750 
Q 2544 4750 2975 4387 
Q 3406 4025 3406 3419 
Q 3406 3131 3298 2873 
Q 3191 2616 2906 2266 
Q 2828 2175 2409 1742 
Q 1991 1309 1228 531 
z
" transform="scale(0.015625)"/>
        <path id="DejaVuSans-35" d="M 691 4666 
L 3169 4666 
L 3169 4134 
L 1269 4134 
L 1269 2991 
Q 1406 3038 1543 3061 
Q 1681 3084 1819 3084 
Q 2600 3084 3056 2656 
Q 3513 2228 3513 1497 
Q 3513 744 3044 326 
Q 2575 -91 1722 -91 
Q 1428 -91 1123 -41 
Q 819 9 494 109 
L 494 744 
Q 775 591 1075 516 
Q 1375 441 1709 441 
Q 2250 441 2565 725 
Q 2881 1009 2881 1497 
Q 2881 1984 2565 2268 
Q 2250 2553 1709 2553 
Q 1456 2553 1204 2497 
Q 953 2441 691 2322 
L 691 4666 
z
" transform="scale(0.015625)"/>
       </defs>
       <use xlink:href="#DejaVuSans-32"/>
       <use xlink:href="#DejaVuSans-35" x="63.623047"/>
       <use xlink:href="#DejaVuSans-30" x="127.246094"/>
      </g>
     </g>
    </g>
    <g id="xtick_3">
     <g id="line2d_3">
      <g>
       <use xlink:href="#m25fe365b83" x="160.085263" y="307.584" style="stroke: #000000; stroke-width: 0.8"/>
      </g>
     </g>
     <g id="text_3">
      <!-- 500 -->
      <g transform="translate(150.541513 322.182437)scale(0.1 -0.1)">
       <use xlink:href="#DejaVuSans-35"/>
       <use xlink:href="#DejaVuSans-30" x="63.623047"/>
       <use xlink:href="#DejaVuSans-30" x="127.246094"/>
      </g>
     </g>
    </g>
    <g id="xtick_4">
     <g id="line2d_4">
      <g>
       <use xlink:href="#m25fe365b83" x="203.211531" y="307.584" style="stroke: #000000; stroke-width: 0.8"/>
      </g>
     </g>
     <g id="text_4">
      <!-- 750 -->
      <g transform="translate(193.667781 322.182437)scale(0.1 -0.1)">
       <defs>
        <path id="DejaVuSans-37" d="M 525 4666 
L 3525 4666 
L 3525 4397 
L 1831 0 
L 1172 0 
L 2766 4134 
L 525 4134 
L 525 4666 
z
" transform="scale(0.015625)"/>
       </defs>
       <use xlink:href="#DejaVuSans-37"/>
       <use xlink:href="#DejaVuSans-35" x="63.623047"/>
       <use xlink:href="#DejaVuSans-30" x="127.246094"/>
      </g>
     </g>
    </g>
    <g id="xtick_5">
     <g id="line2d_5">
      <g>
       <use xlink:href="#m25fe365b83" x="246.337799" y="307.584" style="stroke: #000000; stroke-width: 0.8"/>
      </g>
     </g>
     <g id="text_5">
      <!-- 1000 -->
      <g transform="translate(233.612799 322.182437)scale(0.1 -0.1)">
       <defs>
        <path id="DejaVuSans-31" d="M 794 531 
L 1825 531 
L 1825 4091 
L 703 3866 
L 703 4441 
L 1819 4666 
L 2450 4666 
L 2450 531 
L 3481 531 
L 3481 0 
L 794 0 
L 794 531 
z
" transform="scale(0.015625)"/>
       </defs>
       <use xlink:href="#DejaVuSans-31"/>
       <use xlink:href="#DejaVuSans-30" x="63.623047"/>
       <use xlink:href="#DejaVuSans-30" x="127.246094"/>
       <use xlink:href="#DejaVuSans-30" x="190.869141"/>
      </g>
     </g>
    </g>
    <g id="xtick_6">
     <g id="line2d_6">
      <g>
       <use xlink:href="#m25fe365b83" x="289.464067" y="307.584" style="stroke: #000000; stroke-width: 0.8"/>
      </g>
     </g>
     <g id="text_6">
      <!-- 1250 -->
      <g transform="translate(276.739067 322.182437)scale(0.1 -0.1)">
       <use xlink:href="#DejaVuSans-31"/>
       <use xlink:href="#DejaVuSans-32" x="63.623047"/>
       <use xlink:href="#DejaVuSans-35" x="127.246094"/>
       <use xlink:href="#DejaVuSans-30" x="190.869141"/>
      </g>
     </g>
    </g>
    <g id="xtick_7">
     <g id="line2d_7">
      <g>
       <use xlink:href="#m25fe365b83" x="332.590335" y="307.584" style="stroke: #000000; stroke-width: 0.8"/>
      </g>
     </g>
     <g id="text_7">
      <!-- 1500 -->
      <g transform="translate(319.865335 322.182437)scale(0.1 -0.1)">
       <use xlink:href="#DejaVuSans-31"/>
       <use xlink:href="#DejaVuSans-35" x="63.623047"/>
       <use xlink:href="#DejaVuSans-30" x="127.246094"/>
       <use xlink:href="#DejaVuSans-30" x="190.869141"/>
      </g>
     </g>
    </g>
    <g id="xtick_8">
     <g id="line2d_8">
      <g>
       <use xlink:href="#m25fe365b83" x="375.716603" y="307.584" style="stroke: #000000; stroke-width: 0.8"/>
      </g>
     </g>
     <g id="text_8">
      <!-- 1750 -->
      <g transform="translate(362.991603 322.182437)scale(0.1 -0.1)">
       <use xlink:href="#DejaVuSans-31"/>
       <use xlink:href="#DejaVuSans-37" x="63.623047"/>
       <use xlink:href="#DejaVuSans-35" x="127.246094"/>
       <use xlink:href="#DejaVuSans-30" x="190.869141"/>
      </g>
     </g>
    </g>
    <g id="text_9">
     <!-- num swaps -->
     <g transform="translate(207.826406 335.860562)scale(0.1 -0.1)">
      <defs>
       <path id="DejaVuSans-6e" d="M 3513 2113 
L 3513 0 
L 2938 0 
L 2938 2094 
Q 2938 2591 2744 2837 
Q 2550 3084 2163 3084 
Q 1697 3084 1428 2787 
Q 1159 2491 1159 1978 
L 1159 0 
L 581 0 
L 581 3500 
L 1159 3500 
L 1159 2956 
Q 1366 3272 1645 3428 
Q 1925 3584 2291 3584 
Q 2894 3584 3203 3211 
Q 3513 2838 3513 2113 
z
" transform="scale(0.015625)"/>
       <path id="DejaVuSans-75" d="M 544 1381 
L 544 3500 
L 1119 3500 
L 1119 1403 
Q 1119 906 1312 657 
Q 1506 409 1894 409 
Q 2359 409 2629 706 
Q 2900 1003 2900 1516 
L 2900 3500 
L 3475 3500 
L 3475 0 
L 2900 0 
L 2900 538 
Q 2691 219 2414 64 
Q 2138 -91 1772 -91 
Q 1169 -91 856 284 
Q 544 659 544 1381 
z
M 1991 3584 
L 1991 3584 
z
" transform="scale(0.015625)"/>
       <path id="DejaVuSans-6d" d="M 3328 2828 
Q 3544 3216 3844 3400 
Q 4144 3584 4550 3584 
Q 5097 3584 5394 3201 
Q 5691 2819 5691 2113 
L 5691 0 
L 5113 0 
L 5113 2094 
Q 5113 2597 4934 2840 
Q 4756 3084 4391 3084 
Q 3944 3084 3684 2787 
Q 3425 2491 3425 1978 
L 3425 0 
L 2847 0 
L 2847 2094 
Q 2847 2600 2669 2842 
Q 2491 3084 2119 3084 
Q 1678 3084 1418 2786 
Q 1159 2488 1159 1978 
L 1159 0 
L 581 0 
L 581 3500 
L 1159 3500 
L 1159 2956 
Q 1356 3278 1631 3431 
Q 1906 3584 2284 3584 
Q 2666 3584 2933 3390 
Q 3200 3197 3328 2828 
z
" transform="scale(0.015625)"/>
       <path id="DejaVuSans-20" transform="scale(0.015625)"/>
       <path id="DejaVuSans-73" d="M 2834 3397 
L 2834 2853 
Q 2591 2978 2328 3040 
Q 2066 3103 1784 3103 
Q 1356 3103 1142 2972 
Q 928 2841 928 2578 
Q 928 2378 1081 2264 
Q 1234 2150 1697 2047 
L 1894 2003 
Q 2506 1872 2764 1633 
Q 3022 1394 3022 966 
Q 3022 478 2636 193 
Q 2250 -91 1575 -91 
Q 1294 -91 989 -36 
Q 684 19 347 128 
L 347 722 
Q 666 556 975 473 
Q 1284 391 1588 391 
Q 1994 391 2212 530 
Q 2431 669 2431 922 
Q 2431 1156 2273 1281 
Q 2116 1406 1581 1522 
L 1381 1569 
Q 847 1681 609 1914 
Q 372 2147 372 2553 
Q 372 3047 722 3315 
Q 1072 3584 1716 3584 
Q 2034 3584 2315 3537 
Q 2597 3491 2834 3397 
z
" transform="scale(0.015625)"/>
       <path id="DejaVuSans-77" d="M 269 3500 
L 844 3500 
L 1563 769 
L 2278 3500 
L 2956 3500 
L 3675 769 
L 4391 3500 
L 4966 3500 
L 4050 0 
L 3372 0 
L 2619 2869 
L 1863 0 
L 1184 0 
L 269 3500 
z
" transform="scale(0.015625)"/>
       <path id="DejaVuSans-61" d="M 2194 1759 
Q 1497 1759 1228 1600 
Q 959 1441 959 1056 
Q 959 750 1161 570 
Q 1363 391 1709 391 
Q 2188 391 2477 730 
Q 2766 1069 2766 1631 
L 2766 1759 
L 2194 1759 
z
M 3341 1997 
L 3341 0 
L 2766 0 
L 2766 531 
Q 2569 213 2275 61 
Q 1981 -91 1556 -91 
Q 1019 -91 701 211 
Q 384 513 384 1019 
Q 384 1609 779 1909 
Q 1175 2209 1959 2209 
L 2766 2209 
L 2766 2266 
Q 2766 2663 2505 2880 
Q 2244 3097 1772 3097 
Q 1472 3097 1187 3025 
Q 903 2953 641 2809 
L 641 3341 
Q 956 3463 1253 3523 
Q 1550 3584 1831 3584 
Q 2591 3584 2966 3190 
Q 3341 2797 3341 1997 
z
" transform="scale(0.015625)"/>
       <path id="DejaVuSans-70" d="M 1159 525 
L 1159 -1331 
L 581 -1331 
L 581 3500 
L 1159 3500 
L 1159 2969 
Q 1341 3281 1617 3432 
Q 1894 3584 2278 3584 
Q 2916 3584 3314 3078 
Q 3713 2572 3713 1747 
Q 3713 922 3314 415 
Q 2916 -91 2278 -91 
Q 1894 -91 1617 61 
Q 1341 213 1159 525 
z
M 3116 1747 
Q 3116 2381 2855 2742 
Q 2594 3103 2138 3103 
Q 1681 3103 1420 2742 
Q 1159 2381 1159 1747 
Q 1159 1113 1420 752 
Q 1681 391 2138 391 
Q 2594 391 2855 752 
Q 3116 1113 3116 1747 
z
" transform="scale(0.015625)"/>
      </defs>
      <use xlink:href="#DejaVuSans-6e"/>
      <use xlink:href="#DejaVuSans-75" x="63.378906"/>
      <use xlink:href="#DejaVuSans-6d" x="126.757812"/>
      <use xlink:href="#DejaVuSans-20" x="224.169922"/>
      <use xlink:href="#DejaVuSans-73" x="255.957031"/>
      <use xlink:href="#DejaVuSans-77" x="308.056641"/>
      <use xlink:href="#DejaVuSans-61" x="389.84375"/>
      <use xlink:href="#DejaVuSans-70" x="451.123047"/>
      <use xlink:href="#DejaVuSans-73" x="514.599609"/>
     </g>
    </g>
   </g>
   <g id="matplotlib.axis_2">
    <g id="ytick_1">
     <g id="line2d_9">
      <defs>
       <path id="m50514e4c6c" d="M 0 0 
L -3.5 0 
" style="stroke: #000000; stroke-width: 0.8"/>
      </defs>
      <g>
       <use xlink:href="#m50514e4c6c" x="57.6" y="292.941474" style="stroke: #000000; stroke-width: 0.8"/>
      </g>
     </g>
     <g id="text_10">
      <!-- 420 -->
      <g transform="translate(31.5125 296.740692)scale(0.1 -0.1)">
       <defs>
        <path id="DejaVuSans-34" d="M 2419 4116 
L 825 1625 
L 2419 1625 
L 2419 4116 
z
M 2253 4666 
L 3047 4666 
L 3047 1625 
L 3713 1625 
L 3713 1100 
L 3047 1100 
L 3047 0 
L 2419 0 
L 2419 1100 
L 313 1100 
L 313 1709 
L 2253 4666 
z
" transform="scale(0.015625)"/>
       </defs>
       <use xlink:href="#DejaVuSans-34"/>
       <use xlink:href="#DejaVuSans-32" x="63.623047"/>
       <use xlink:href="#DejaVuSans-30" x="127.246094"/>
      </g>
     </g>
    </g>
    <g id="ytick_2">
     <g id="line2d_10">
      <g>
       <use xlink:href="#m50514e4c6c" x="57.6" y="242.010947" style="stroke: #000000; stroke-width: 0.8"/>
      </g>
     </g>
     <g id="text_11">
      <!-- 440 -->
      <g transform="translate(31.5125 245.810166)scale(0.1 -0.1)">
       <use xlink:href="#DejaVuSans-34"/>
       <use xlink:href="#DejaVuSans-34" x="63.623047"/>
       <use xlink:href="#DejaVuSans-30" x="127.246094"/>
      </g>
     </g>
    </g>
    <g id="ytick_3">
     <g id="line2d_11">
      <g>
       <use xlink:href="#m50514e4c6c" x="57.6" y="191.080421" style="stroke: #000000; stroke-width: 0.8"/>
      </g>
     </g>
     <g id="text_12">
      <!-- 460 -->
      <g transform="translate(31.5125 194.87964)scale(0.1 -0.1)">
       <defs>
        <path id="DejaVuSans-36" d="M 2113 2584 
Q 1688 2584 1439 2293 
Q 1191 2003 1191 1497 
Q 1191 994 1439 701 
Q 1688 409 2113 409 
Q 2538 409 2786 701 
Q 3034 994 3034 1497 
Q 3034 2003 2786 2293 
Q 2538 2584 2113 2584 
z
M 3366 4563 
L 3366 3988 
Q 3128 4100 2886 4159 
Q 2644 4219 2406 4219 
Q 1781 4219 1451 3797 
Q 1122 3375 1075 2522 
Q 1259 2794 1537 2939 
Q 1816 3084 2150 3084 
Q 2853 3084 3261 2657 
Q 3669 2231 3669 1497 
Q 3669 778 3244 343 
Q 2819 -91 2113 -91 
Q 1303 -91 875 529 
Q 447 1150 447 2328 
Q 447 3434 972 4092 
Q 1497 4750 2381 4750 
Q 2619 4750 2861 4703 
Q 3103 4656 3366 4563 
z
" transform="scale(0.015625)"/>
       </defs>
       <use xlink:href="#DejaVuSans-34"/>
       <use xlink:href="#DejaVuSans-36" x="63.623047"/>
       <use xlink:href="#DejaVuSans-30" x="127.246094"/>
      </g>
     </g>
    </g>
    <g id="ytick_4">
     <g id="line2d_12">
      <g>
       <use xlink:href="#m50514e4c6c" x="57.6" y="140.149895" style="stroke: #000000; stroke-width: 0.8"/>
      </g>
     </g>
     <g id="text_13">
      <!-- 480 -->
      <g transform="translate(31.5125 143.949113)scale(0.1 -0.1)">
       <defs>
        <path id="DejaVuSans-38" d="M 2034 2216 
Q 1584 2216 1326 1975 
Q 1069 1734 1069 1313 
Q 1069 891 1326 650 
Q 1584 409 2034 409 
Q 2484 409 2743 651 
Q 3003 894 3003 1313 
Q 3003 1734 2745 1975 
Q 2488 2216 2034 2216 
z
M 1403 2484 
Q 997 2584 770 2862 
Q 544 3141 544 3541 
Q 544 4100 942 4425 
Q 1341 4750 2034 4750 
Q 2731 4750 3128 4425 
Q 3525 4100 3525 3541 
Q 3525 3141 3298 2862 
Q 3072 2584 2669 2484 
Q 3125 2378 3379 2068 
Q 3634 1759 3634 1313 
Q 3634 634 3220 271 
Q 2806 -91 2034 -91 
Q 1263 -91 848 271 
Q 434 634 434 1313 
Q 434 1759 690 2068 
Q 947 2378 1403 2484 
z
M 1172 3481 
Q 1172 3119 1398 2916 
Q 1625 2713 2034 2713 
Q 2441 2713 2670 2916 
Q 2900 3119 2900 3481 
Q 2900 3844 2670 4047 
Q 2441 4250 2034 4250 
Q 1625 4250 1398 4047 
Q 1172 3844 1172 3481 
z
" transform="scale(0.015625)"/>
       </defs>
       <use xlink:href="#DejaVuSans-34"/>
       <use xlink:href="#DejaVuSans-38" x="63.623047"/>
       <use xlink:href="#DejaVuSans-30" x="127.246094"/>
      </g>
     </g>
    </g>
    <g id="ytick_5">
     <g id="line2d_13">
      <g>
       <use xlink:href="#m50514e4c6c" x="57.6" y="89.219368" style="stroke: #000000; stroke-width: 0.8"/>
      </g>
     </g>
     <g id="text_14">
      <!-- 500 -->
      <g transform="translate(31.5125 93.018587)scale(0.1 -0.1)">
       <use xlink:href="#DejaVuSans-35"/>
       <use xlink:href="#DejaVuSans-30" x="63.623047"/>
       <use xlink:href="#DejaVuSans-30" x="127.246094"/>
      </g>
     </g>
    </g>
    <g id="text_15">
     <!-- total cost -->
     <g transform="translate(25.432812 197.923313)rotate(-90)scale(0.1 -0.1)">
      <defs>
       <path id="DejaVuSans-74" d="M 1172 4494 
L 1172 3500 
L 2356 3500 
L 2356 3053 
L 1172 3053 
L 1172 1153 
Q 1172 725 1289 603 
Q 1406 481 1766 481 
L 2356 481 
L 2356 0 
L 1766 0 
Q 1100 0 847 248 
Q 594 497 594 1153 
L 594 3053 
L 172 3053 
L 172 3500 
L 594 3500 
L 594 4494 
L 1172 4494 
z
" transform="scale(0.015625)"/>
       <path id="DejaVuSans-6f" d="M 1959 3097 
Q 1497 3097 1228 2736 
Q 959 2375 959 1747 
Q 959 1119 1226 758 
Q 1494 397 1959 397 
Q 2419 397 2687 759 
Q 2956 1122 2956 1747 
Q 2956 2369 2687 2733 
Q 2419 3097 1959 3097 
z
M 1959 3584 
Q 2709 3584 3137 3096 
Q 3566 2609 3566 1747 
Q 3566 888 3137 398 
Q 2709 -91 1959 -91 
Q 1206 -91 779 398 
Q 353 888 353 1747 
Q 353 2609 779 3096 
Q 1206 3584 1959 3584 
z
" transform="scale(0.015625)"/>
       <path id="DejaVuSans-6c" d="M 603 4863 
L 1178 4863 
L 1178 0 
L 603 0 
L 603 4863 
z
" transform="scale(0.015625)"/>
       <path id="DejaVuSans-63" d="M 3122 3366 
L 3122 2828 
Q 2878 2963 2633 3030 
Q 2388 3097 2138 3097 
Q 1578 3097 1268 2742 
Q 959 2388 959 1747 
Q 959 1106 1268 751 
Q 1578 397 2138 397 
Q 2388 397 2633 464 
Q 2878 531 3122 666 
L 3122 134 
Q 2881 22 2623 -34 
Q 2366 -91 2075 -91 
Q 1284 -91 818 406 
Q 353 903 353 1747 
Q 353 2603 823 3093 
Q 1294 3584 2113 3584 
Q 2378 3584 2631 3529 
Q 2884 3475 3122 3366 
z
" transform="scale(0.015625)"/>
      </defs>
      <use xlink:href="#DejaVuSans-74"/>
      <use xlink:href="#DejaVuSans-6f" x="39.208984"/>
      <use xlink:href="#DejaVuSans-74" x="100.390625"/>
      <use xlink:href="#DejaVuSans-61" x="139.599609"/>
      <use xlink:href="#DejaVuSans-6c" x="200.878906"/>
      <use xlink:href="#DejaVuSans-20" x="228.662109"/>
      <use xlink:href="#DejaVuSans-63" x="260.449219"/>
      <use xlink:href="#DejaVuSans-6f" x="315.429688"/>
      <use xlink:href="#DejaVuSans-73" x="376.611328"/>
      <use xlink:href="#DejaVuSans-74" x="428.710938"/>
     </g>
    </g>
   </g>
   <g id="line2d_14">
    <path d="M 73.832727 170.708211 
L 74.177737 165.615158 
L 74.522748 147.789474 
L 75.212768 147.789474 
L 75.557778 152.882526 
L 75.902788 150.336 
L 76.247798 155.429053 
L 76.592808 150.336 
L 76.937819 140.149895 
L 77.282829 165.615158 
L 77.627839 165.615158 
L 77.972849 155.429053 
L 78.317859 157.975579 
L 78.662869 168.161684 
L 79.007879 165.615158 
L 79.35289 165.615158 
L 79.6979 157.975579 
L 80.38792 147.789474 
L 80.73293 219.092211 
L 81.07794 211.452632 
L 81.42295 183.440842 
L 81.767961 173.254737 
L 82.112971 155.429053 
L 82.457981 178.347789 
L 82.802991 219.092211 
L 83.148001 213.999158 
L 83.493011 188.533895 
L 83.838021 188.533895 
L 84.528042 173.254737 
L 84.873052 188.533895 
L 85.218062 185.987368 
L 85.563072 178.347789 
L 85.908082 175.801263 
L 86.253092 150.336 
L 86.598103 157.975579 
L 86.943113 155.429053 
L 87.288123 157.975579 
L 87.633133 150.336 
L 87.978143 157.975579 
L 88.323153 160.522105 
L 88.668163 168.161684 
L 89.013174 157.975579 
L 89.358184 155.429053 
L 89.703194 160.522105 
L 90.048204 183.440842 
L 90.393214 196.173474 
L 90.738224 196.173474 
L 91.083234 188.533895 
L 91.428245 191.080421 
L 91.773255 183.440842 
L 92.118265 203.813053 
L 92.808285 219.092211 
L 93.153295 221.638737 
L 93.843316 216.545684 
L 94.188326 231.824842 
L 94.533336 229.278316 
L 94.878346 213.999158 
L 95.223356 213.999158 
L 95.568366 196.173474 
L 95.913376 201.266526 
L 96.258387 219.092211 
L 97.293417 173.254737 
L 97.983437 196.173474 
L 98.328447 201.266526 
L 99.018468 201.266526 
L 99.363478 203.813053 
L 100.053498 198.72 
L 100.398508 193.626947 
L 100.743519 191.080421 
L 101.088529 201.266526 
L 101.433539 193.626947 
L 101.778549 188.533895 
L 102.123559 185.987368 
L 102.468569 170.708211 
L 102.813579 170.708211 
L 103.15859 183.440842 
L 103.5036 175.801263 
L 103.84861 183.440842 
L 104.19362 188.533895 
L 104.53863 188.533895 
L 104.88364 183.440842 
L 105.22865 185.987368 
L 105.573661 180.894316 
L 105.918671 193.626947 
L 106.608691 178.347789 
L 106.953701 180.894316 
L 107.298711 188.533895 
L 107.643721 191.080421 
L 107.988732 201.266526 
L 108.333742 203.813053 
L 108.678752 198.72 
L 109.368772 193.626947 
L 109.713782 196.173474 
L 110.058792 193.626947 
L 110.403803 193.626947 
L 110.748813 219.092211 
L 111.093823 219.092211 
L 111.438833 221.638737 
L 111.783843 211.452632 
L 112.128853 229.278316 
L 112.473863 254.743579 
L 112.818874 247.104 
L 113.163884 244.557474 
L 113.508894 259.836632 
L 113.853904 262.383158 
L 114.198914 247.104 
L 114.543924 244.557474 
L 114.888934 226.731789 
L 115.233945 224.185263 
L 115.578955 226.731789 
L 115.923965 234.371368 
L 116.268975 206.359579 
L 116.613985 219.092211 
L 116.958995 226.731789 
L 117.304005 226.731789 
L 117.649016 185.987368 
L 117.994026 183.440842 
L 118.339036 175.801263 
L 118.684046 180.894316 
L 119.029056 188.533895 
L 119.374066 180.894316 
L 119.719076 234.371368 
L 120.064087 229.278316 
L 120.409097 234.371368 
L 120.754107 224.185263 
L 121.099117 229.278316 
L 121.444127 229.278316 
L 121.789137 231.824842 
L 122.134147 242.010947 
L 122.479158 239.464421 
L 122.824168 252.197053 
L 123.169178 257.290105 
L 123.514188 257.290105 
L 123.859198 272.569263 
L 124.204208 264.929684 
L 124.549218 280.208842 
L 124.894229 287.848421 
L 125.239239 285.301895 
L 125.584249 292.941474 
L 125.929259 287.848421 
L 126.274269 287.848421 
L 126.619279 295.488 
L 126.964289 282.755368 
L 127.65431 277.662316 
L 127.99932 270.022737 
L 128.34433 272.569263 
L 129.03435 249.650526 
L 129.37936 270.022737 
L 129.724371 270.022737 
L 130.069381 272.569263 
L 130.414391 270.022737 
L 130.759401 264.929684 
L 131.449421 270.022737 
L 132.139442 239.464421 
L 132.484452 247.104 
L 132.829462 234.371368 
L 133.174472 242.010947 
L 133.864492 242.010947 
L 134.209502 244.557474 
L 134.554513 236.917895 
L 134.899523 247.104 
L 135.244533 239.464421 
L 135.934553 262.383158 
L 136.279563 249.650526 
L 136.624573 254.743579 
L 136.969584 254.743579 
L 137.314594 262.383158 
L 137.659604 262.383158 
L 138.004614 264.929684 
L 138.349624 239.464421 
L 138.694634 229.278316 
L 139.039644 226.731789 
L 139.384655 221.638737 
L 139.729665 226.731789 
L 140.074675 236.917895 
L 140.419685 226.731789 
L 140.764695 234.371368 
L 141.109705 219.092211 
L 141.454715 216.545684 
L 141.799726 193.626947 
L 142.144736 198.72 
L 142.834756 193.626947 
L 143.179766 180.894316 
L 143.524776 191.080421 
L 143.869786 188.533895 
L 144.214797 173.254737 
L 144.559807 173.254737 
L 144.904817 165.615158 
L 145.249827 165.615158 
L 145.594837 155.429053 
L 145.939847 160.522105 
L 146.284858 163.068632 
L 146.629868 180.894316 
L 146.974878 183.440842 
L 147.319888 160.522105 
L 147.664898 160.522105 
L 148.009908 165.615158 
L 148.354918 150.336 
L 148.699929 150.336 
L 149.044939 160.522105 
L 149.389949 157.975579 
L 149.734959 122.324211 
L 150.079969 109.591579 
L 150.424979 178.347789 
L 150.769989 175.801263 
L 151.115 178.347789 
L 151.46001 196.173474 
L 151.80502 180.894316 
L 152.15003 188.533895 
L 152.49504 180.894316 
L 152.84005 188.533895 
L 153.18506 168.161684 
L 153.530071 155.429053 
L 153.875081 157.975579 
L 154.220091 163.068632 
L 154.565101 145.242947 
L 154.910111 140.149895 
L 155.255121 173.254737 
L 155.600131 129.963789 
L 155.945142 124.870737 
L 156.635162 140.149895 
L 156.980172 178.347789 
L 157.325182 178.347789 
L 157.670192 175.801263 
L 158.015202 168.161684 
L 158.360213 170.708211 
L 158.705223 201.266526 
L 159.050233 188.533895 
L 159.395243 183.440842 
L 159.740253 180.894316 
L 160.085263 188.533895 
L 160.430273 124.870737 
L 160.775284 122.324211 
L 161.465304 132.510316 
L 161.810314 129.963789 
L 162.155324 129.963789 
L 162.500334 132.510316 
L 162.845344 140.149895 
L 163.190355 226.731789 
L 163.535365 216.545684 
L 163.880375 229.278316 
L 164.225385 247.104 
L 164.570395 239.464421 
L 164.915405 247.104 
L 165.260415 234.371368 
L 165.605426 239.464421 
L 165.950436 254.743579 
L 166.295446 277.662316 
L 166.640456 277.662316 
L 166.985466 275.115789 
L 168.020497 247.104 
L 168.365507 219.092211 
L 168.710517 242.010947 
L 169.055527 231.824842 
L 169.400537 231.824842 
L 169.745547 221.638737 
L 170.090557 216.545684 
L 170.435568 213.999158 
L 170.780578 165.615158 
L 171.125588 163.068632 
L 171.470598 170.708211 
L 171.815608 183.440842 
L 172.160618 168.161684 
L 172.505628 168.161684 
L 172.850639 157.975579 
L 173.195649 178.347789 
L 173.540659 155.429053 
L 173.885669 155.429053 
L 174.230679 150.336 
L 174.575689 119.777684 
L 174.920699 135.056842 
L 175.26571 124.870737 
L 175.61072 127.417263 
L 175.95573 132.510316 
L 176.30074 109.591579 
L 176.64575 129.963789 
L 176.99076 135.056842 
L 177.33577 127.417263 
L 177.680781 135.056842 
L 178.025791 135.056842 
L 178.715811 129.963789 
L 179.405831 104.498526 
L 179.750841 104.498526 
L 180.095852 76.486737 
L 180.440862 101.952 
L 180.785872 58.661053 
L 181.130882 71.393684 
L 181.475892 58.661053 
L 181.820902 63.754105 
L 182.165912 63.754105 
L 182.510923 56.114526 
L 182.855933 79.033263 
L 183.200943 114.684632 
L 183.545953 112.138105 
L 183.890963 160.522105 
L 184.235973 165.615158 
L 184.580983 163.068632 
L 184.925994 152.882526 
L 185.271004 152.882526 
L 185.616014 180.894316 
L 185.961024 191.080421 
L 186.306034 183.440842 
L 186.651044 188.533895 
L 187.341065 193.626947 
L 187.686075 168.161684 
L 188.031085 173.254737 
L 188.721105 193.626947 
L 189.066115 198.72 
L 189.411125 183.440842 
L 189.756136 196.173474 
L 190.101146 213.999158 
L 190.446156 211.452632 
L 190.791166 196.173474 
L 191.136176 191.080421 
L 191.481186 206.359579 
L 191.826197 193.626947 
L 192.171207 173.254737 
L 192.516217 173.254737 
L 192.861227 168.161684 
L 193.206237 168.161684 
L 193.551247 173.254737 
L 193.896257 173.254737 
L 194.241268 185.987368 
L 194.586278 170.708211 
L 194.931288 137.603368 
L 195.276298 145.242947 
L 195.621308 137.603368 
L 195.966318 142.696421 
L 196.311328 163.068632 
L 196.656339 135.056842 
L 197.001349 140.149895 
L 197.346359 135.056842 
L 197.691369 180.894316 
L 198.036379 175.801263 
L 198.381389 198.72 
L 198.726399 73.940211 
L 199.07141 76.486737 
L 199.76143 66.300632 
L 200.10644 58.661053 
L 200.45145 53.568 
L 200.79646 63.754105 
L 201.14147 66.300632 
L 201.486481 66.300632 
L 201.831491 58.661053 
L 202.176501 56.114526 
L 202.521511 68.847158 
L 202.866521 71.393684 
L 203.211531 94.312421 
L 203.556541 101.952 
L 203.901552 94.312421 
L 204.246562 140.149895 
L 204.936582 160.522105 
L 205.281592 147.789474 
L 205.626602 142.696421 
L 205.971612 129.963789 
L 206.316623 145.242947 
L 206.661633 150.336 
L 207.006643 129.963789 
L 207.351653 132.510316 
L 207.696663 127.417263 
L 208.041673 127.417263 
L 208.386683 137.603368 
L 208.731694 132.510316 
L 209.421714 147.789474 
L 209.766724 168.161684 
L 210.111734 178.347789 
L 210.456744 180.894316 
L 210.801754 193.626947 
L 211.146765 188.533895 
L 211.491775 160.522105 
L 211.836785 180.894316 
L 212.526805 185.987368 
L 212.871815 185.987368 
L 213.216825 203.813053 
L 213.561836 206.359579 
L 213.906846 185.987368 
L 214.251856 178.347789 
L 214.596866 198.72 
L 214.941876 201.266526 
L 215.286886 198.72 
L 215.631896 191.080421 
L 215.976907 191.080421 
L 216.321917 180.894316 
L 216.666927 183.440842 
L 217.011937 191.080421 
L 217.356947 168.161684 
L 217.701957 178.347789 
L 218.046967 213.999158 
L 218.391978 206.359579 
L 218.736988 170.708211 
L 219.081998 178.347789 
L 219.427008 170.708211 
L 219.772018 173.254737 
L 220.117028 155.429053 
L 220.462038 147.789474 
L 220.807049 147.789474 
L 221.152059 142.696421 
L 221.497069 142.696421 
L 221.842079 155.429053 
L 222.187089 155.429053 
L 222.532099 170.708211 
L 222.877109 163.068632 
L 223.22212 173.254737 
L 223.56713 152.882526 
L 223.91214 155.429053 
L 224.25715 168.161684 
L 224.94717 145.242947 
L 225.29218 163.068632 
L 225.637191 157.975579 
L 225.982201 168.161684 
L 226.327211 155.429053 
L 226.672221 157.975579 
L 227.017231 152.882526 
L 227.362241 160.522105 
L 227.707251 152.882526 
L 228.397272 124.870737 
L 228.742282 119.777684 
L 229.087292 165.615158 
L 229.432302 135.056842 
L 229.777312 127.417263 
L 230.122322 137.603368 
L 230.467333 135.056842 
L 230.812343 145.242947 
L 231.502363 140.149895 
L 231.847373 127.417263 
L 232.192383 122.324211 
L 232.537393 96.858947 
L 232.882404 94.312421 
L 233.227414 109.591579 
L 233.572424 94.312421 
L 233.917434 84.126316 
L 234.262444 86.672842 
L 234.607454 76.486737 
L 234.952464 86.672842 
L 235.297475 91.765895 
L 235.642485 91.765895 
L 235.987495 96.858947 
L 236.332505 135.056842 
L 236.677515 152.882526 
L 237.022525 135.056842 
L 237.367536 135.056842 
L 237.712546 142.696421 
L 238.057556 163.068632 
L 238.402566 170.708211 
L 238.747576 173.254737 
L 239.092586 170.708211 
L 239.437596 163.068632 
L 239.782607 152.882526 
L 240.127617 163.068632 
L 240.472627 142.696421 
L 241.162647 165.615158 
L 241.507657 157.975579 
L 242.197678 157.975579 
L 242.887698 163.068632 
L 243.232708 191.080421 
L 243.577718 193.626947 
L 244.267738 208.906105 
L 244.957759 231.824842 
L 245.302769 219.092211 
L 245.647779 198.72 
L 245.992789 201.266526 
L 246.337799 196.173474 
L 246.682809 196.173474 
L 247.02782 191.080421 
L 247.37283 198.72 
L 247.71784 196.173474 
L 248.06285 188.533895 
L 248.40786 191.080421 
L 248.75287 201.266526 
L 249.09788 185.987368 
L 249.442891 208.906105 
L 249.787901 211.452632 
L 250.132911 211.452632 
L 250.477921 206.359579 
L 250.822931 206.359579 
L 251.167941 193.626947 
L 251.512951 188.533895 
L 251.857962 196.173474 
L 252.202972 198.72 
L 252.547982 180.894316 
L 253.583012 196.173474 
L 253.928022 193.626947 
L 254.273033 193.626947 
L 254.618043 198.72 
L 254.963053 229.278316 
L 255.308063 226.731789 
L 255.653073 221.638737 
L 255.998083 219.092211 
L 256.343093 226.731789 
L 256.688104 216.545684 
L 257.033114 226.731789 
L 257.378124 208.906105 
L 257.723134 198.72 
L 258.068144 229.278316 
L 258.413154 211.452632 
L 258.758164 213.999158 
L 259.103175 224.185263 
L 259.448185 206.359579 
L 259.793195 206.359579 
L 260.138205 211.452632 
L 260.483215 196.173474 
L 260.828225 201.266526 
L 261.173235 198.72 
L 261.518246 206.359579 
L 261.863256 203.813053 
L 262.208266 206.359579 
L 262.553276 188.533895 
L 262.898286 183.440842 
L 263.243296 168.161684 
L 263.588306 173.254737 
L 263.933317 183.440842 
L 264.278327 185.987368 
L 264.623337 175.801263 
L 264.968347 203.813053 
L 265.313357 201.266526 
L 265.658367 191.080421 
L 266.003377 191.080421 
L 266.348388 188.533895 
L 266.693398 206.359579 
L 267.038408 201.266526 
L 267.383418 203.813053 
L 267.728428 193.626947 
L 268.073438 196.173474 
L 268.418448 193.626947 
L 268.763459 201.266526 
L 269.108469 188.533895 
L 269.453479 180.894316 
L 269.798489 175.801263 
L 270.143499 173.254737 
L 270.488509 178.347789 
L 270.833519 178.347789 
L 271.17853 180.894316 
L 271.52354 173.254737 
L 271.86855 178.347789 
L 272.21356 188.533895 
L 272.90358 193.626947 
L 273.24859 180.894316 
L 273.593601 193.626947 
L 273.938611 188.533895 
L 274.283621 185.987368 
L 274.628631 185.987368 
L 274.973641 178.347789 
L 275.318651 173.254737 
L 275.663661 173.254737 
L 276.008672 188.533895 
L 276.353682 191.080421 
L 276.698692 188.533895 
L 277.043702 191.080421 
L 277.388712 175.801263 
L 277.733722 170.708211 
L 278.423743 165.615158 
L 278.768753 160.522105 
L 279.113763 132.510316 
L 279.458773 137.603368 
L 279.803783 160.522105 
L 280.148793 160.522105 
L 280.493803 163.068632 
L 280.838814 168.161684 
L 281.183824 175.801263 
L 281.528834 135.056842 
L 281.873844 142.696421 
L 282.218854 155.429053 
L 282.563864 140.149895 
L 282.908875 147.789474 
L 283.253885 145.242947 
L 283.598895 152.882526 
L 283.943905 140.149895 
L 284.288915 147.789474 
L 284.633925 168.161684 
L 284.978935 160.522105 
L 285.323946 165.615158 
L 285.668956 165.615158 
L 286.013966 160.522105 
L 286.358976 165.615158 
L 286.703986 155.429053 
L 287.048996 150.336 
L 287.394006 150.336 
L 287.739017 163.068632 
L 288.084027 152.882526 
L 288.429037 160.522105 
L 288.774047 157.975579 
L 289.119057 157.975579 
L 289.464067 165.615158 
L 289.809077 160.522105 
L 290.154088 157.975579 
L 290.499098 135.056842 
L 290.844108 163.068632 
L 291.189118 152.882526 
L 291.534128 157.975579 
L 291.879138 155.429053 
L 292.224148 163.068632 
L 292.569159 157.975579 
L 292.914169 132.510316 
L 293.259179 132.510316 
L 293.604189 127.417263 
L 293.949199 124.870737 
L 294.639219 101.952 
L 294.98423 117.231158 
L 295.32924 114.684632 
L 295.67425 109.591579 
L 296.01926 112.138105 
L 296.36427 135.056842 
L 296.70928 140.149895 
L 297.05429 122.324211 
L 297.399301 112.138105 
L 297.744311 114.684632 
L 298.089321 132.510316 
L 298.434331 122.324211 
L 298.779341 124.870737 
L 299.124351 135.056842 
L 299.469361 140.149895 
L 299.814372 132.510316 
L 300.159382 114.684632 
L 300.504392 122.324211 
L 300.849402 112.138105 
L 301.194412 114.684632 
L 301.539422 114.684632 
L 301.884432 145.242947 
L 302.229443 152.882526 
L 302.574453 173.254737 
L 302.919463 224.185263 
L 303.264473 213.999158 
L 303.954493 231.824842 
L 304.299503 219.092211 
L 304.644514 226.731789 
L 304.989524 193.626947 
L 305.679544 221.638737 
L 306.024554 213.999158 
L 306.369564 211.452632 
L 306.714574 219.092211 
L 307.059585 213.999158 
L 307.404595 224.185263 
L 308.094615 201.266526 
L 308.439625 206.359579 
L 308.784635 193.626947 
L 309.129645 185.987368 
L 309.474656 198.72 
L 309.819666 229.278316 
L 310.509686 198.72 
L 310.854696 213.999158 
L 311.199706 203.813053 
L 311.544716 211.452632 
L 311.889727 221.638737 
L 312.234737 191.080421 
L 312.579747 193.626947 
L 312.924757 185.987368 
L 313.269767 191.080421 
L 313.614777 191.080421 
L 313.959787 188.533895 
L 314.304798 193.626947 
L 314.649808 193.626947 
L 314.994818 147.789474 
L 315.684838 142.696421 
L 316.029848 135.056842 
L 316.374858 150.336 
L 316.719869 145.242947 
L 317.064879 127.417263 
L 317.409889 137.603368 
L 317.754899 170.708211 
L 318.099909 152.882526 
L 318.444919 157.975579 
L 318.789929 165.615158 
L 319.13494 163.068632 
L 319.47995 155.429053 
L 319.82496 152.882526 
L 320.16997 152.882526 
L 320.51498 140.149895 
L 320.85999 150.336 
L 321.550011 145.242947 
L 321.895021 155.429053 
L 322.240031 145.242947 
L 322.585041 155.429053 
L 322.930051 160.522105 
L 323.275061 157.975579 
L 323.965082 191.080421 
L 324.655102 206.359579 
L 325.000112 206.359579 
L 325.345122 208.906105 
L 325.690132 201.266526 
L 326.035142 216.545684 
L 326.380153 208.906105 
L 326.725163 193.626947 
L 327.070173 185.987368 
L 327.415183 191.080421 
L 327.760193 191.080421 
L 328.105203 193.626947 
L 328.450214 191.080421 
L 328.795224 203.813053 
L 329.140234 193.626947 
L 329.830254 193.626947 
L 330.175264 203.813053 
L 330.520274 191.080421 
L 330.865285 191.080421 
L 331.210295 242.010947 
L 331.555305 247.104 
L 331.900315 242.010947 
L 332.245325 239.464421 
L 332.590335 180.894316 
L 332.935345 180.894316 
L 333.280356 188.533895 
L 333.625366 183.440842 
L 333.970376 203.813053 
L 334.315386 203.813053 
L 334.660396 198.72 
L 335.005406 203.813053 
L 335.350416 219.092211 
L 335.695427 221.638737 
L 336.040437 221.638737 
L 336.385447 226.731789 
L 336.730457 226.731789 
L 337.075467 211.452632 
L 337.420477 221.638737 
L 337.765487 224.185263 
L 338.110498 216.545684 
L 338.455508 213.999158 
L 338.800518 196.173474 
L 339.145528 196.173474 
L 339.490538 191.080421 
L 339.835548 183.440842 
L 340.525569 193.626947 
L 340.870579 206.359579 
L 341.560599 206.359579 
L 341.905609 208.906105 
L 342.250619 193.626947 
L 342.595629 183.440842 
L 342.94064 198.72 
L 343.28565 188.533895 
L 343.63066 201.266526 
L 343.97567 203.813053 
L 344.66569 178.347789 
L 345.0107 175.801263 
L 345.355711 178.347789 
L 345.700721 178.347789 
L 346.045731 175.801263 
L 346.390741 188.533895 
L 346.735751 155.429053 
L 347.080761 170.708211 
L 347.425771 160.522105 
L 347.770782 165.615158 
L 348.460802 188.533895 
L 348.805812 219.092211 
L 349.150822 201.266526 
L 349.495832 203.813053 
L 349.840842 193.626947 
L 350.185853 168.161684 
L 350.530863 160.522105 
L 350.875873 157.975579 
L 351.220883 163.068632 
L 351.910903 185.987368 
L 352.600924 211.452632 
L 352.945934 213.999158 
L 353.635954 198.72 
L 353.980964 211.452632 
L 354.325974 213.999158 
L 354.670984 208.906105 
L 355.015995 221.638737 
L 355.361005 219.092211 
L 355.706015 219.092211 
L 356.051025 211.452632 
L 356.396035 231.824842 
L 356.741045 219.092211 
L 357.086055 211.452632 
L 357.431066 219.092211 
L 357.776076 211.452632 
L 358.121086 216.545684 
L 358.466096 213.999158 
L 358.811106 206.359579 
L 359.156116 213.999158 
L 359.501126 234.371368 
L 359.846137 267.476211 
L 360.191147 267.476211 
L 360.536157 270.022737 
L 360.881167 257.290105 
L 361.226177 264.929684 
L 361.571187 267.476211 
L 361.916197 249.650526 
L 362.261208 247.104 
L 362.606218 247.104 
L 362.951228 249.650526 
L 363.296238 257.290105 
L 363.641248 257.290105 
L 363.986258 272.569263 
L 364.331268 264.929684 
L 364.676279 277.662316 
L 365.021289 206.359579 
L 365.366299 229.278316 
L 366.056319 211.452632 
L 366.746339 211.452632 
L 367.09135 249.650526 
L 367.78137 254.743579 
L 368.12638 262.383158 
L 368.47139 262.383158 
L 368.8164 275.115789 
L 369.16141 267.476211 
L 369.506421 275.115789 
L 369.851431 270.022737 
L 370.196441 257.290105 
L 370.541451 267.476211 
L 370.886461 262.383158 
L 371.231471 247.104 
L 371.576481 226.731789 
L 371.921492 231.824842 
L 372.611512 226.731789 
L 372.956522 206.359579 
L 373.301532 208.906105 
L 373.646542 206.359579 
L 373.991553 213.999158 
L 374.336563 208.906105 
L 374.681573 208.906105 
L 375.026583 213.999158 
L 375.371593 234.371368 
L 375.716603 247.104 
L 376.061613 208.906105 
L 376.406624 206.359579 
L 376.751634 193.626947 
L 377.096644 206.359579 
L 377.441654 211.452632 
L 377.786664 221.638737 
L 378.131674 249.650526 
L 378.821695 226.731789 
L 379.166705 226.731789 
L 379.511715 239.464421 
L 379.856725 231.824842 
L 380.546745 206.359579 
L 380.891755 226.731789 
L 381.236766 219.092211 
L 381.581776 219.092211 
L 381.926786 201.266526 
L 382.271796 203.813053 
L 382.961816 244.557474 
L 383.306826 226.731789 
L 383.651837 226.731789 
L 383.996847 244.557474 
L 384.341857 242.010947 
L 384.686867 249.650526 
L 385.031877 244.557474 
L 385.376887 244.557474 
L 385.721897 267.476211 
L 386.066908 272.569263 
L 386.411918 267.476211 
L 386.756928 275.115789 
L 387.101938 259.836632 
L 387.446948 275.115789 
L 387.791958 262.383158 
L 388.136968 244.557474 
L 388.481979 236.917895 
L 388.826989 226.731789 
L 389.171999 206.359579 
L 389.517009 211.452632 
L 389.862019 211.452632 
L 390.207029 201.266526 
L 390.552039 211.452632 
L 391.24206 206.359579 
L 391.58707 201.266526 
L 391.93208 193.626947 
L 392.27709 188.533895 
L 392.6221 180.894316 
L 392.96711 178.347789 
L 393.312121 168.161684 
L 393.657131 173.254737 
L 394.002141 183.440842 
L 394.347151 173.254737 
L 394.692161 170.708211 
L 395.037171 175.801263 
L 395.382181 183.440842 
L 395.727192 196.173474 
L 396.417212 180.894316 
L 396.762222 196.173474 
L 397.107232 206.359579 
L 397.452242 224.185263 
L 397.797252 216.545684 
L 398.142263 185.987368 
L 398.487273 175.801263 
L 398.487273 175.801263 
" clip-path="url(#pd5dea256d0)" style="fill: none; stroke: #1f77b4; stroke-width: 1.5; stroke-linecap: square"/>
   </g>
   <g id="patch_3">
    <path d="M 57.6 307.584 
L 57.6 41.472 
" style="fill: none; stroke: #000000; stroke-width: 0.8; stroke-linejoin: miter; stroke-linecap: square"/>
   </g>
   <g id="patch_4">
    <path d="M 414.72 307.584 
L 414.72 41.472 
" style="fill: none; stroke: #000000; stroke-width: 0.8; stroke-linejoin: miter; stroke-linecap: square"/>
   </g>
   <g id="patch_5">
    <path d="M 57.6 307.584 
L 414.72 307.584 
" style="fill: none; stroke: #000000; stroke-width: 0.8; stroke-linejoin: miter; stroke-linecap: square"/>
   </g>
   <g id="patch_6">
    <path d="M 57.6 41.472 
L 414.72 41.472 
" style="fill: none; stroke: #000000; stroke-width: 0.8; stroke-linejoin: miter; stroke-linecap: square"/>
   </g>
   <g id="text_16">
    <!-- Simulated Anealling Cost -->
    <g transform="translate(160.8 35.472)scale(0.12 -0.12)">
     <defs>
      <path id="DejaVuSans-53" d="M 3425 4513 
L 3425 3897 
Q 3066 4069 2747 4153 
Q 2428 4238 2131 4238 
Q 1616 4238 1336 4038 
Q 1056 3838 1056 3469 
Q 1056 3159 1242 3001 
Q 1428 2844 1947 2747 
L 2328 2669 
Q 3034 2534 3370 2195 
Q 3706 1856 3706 1288 
Q 3706 609 3251 259 
Q 2797 -91 1919 -91 
Q 1588 -91 1214 -16 
Q 841 59 441 206 
L 441 856 
Q 825 641 1194 531 
Q 1563 422 1919 422 
Q 2459 422 2753 634 
Q 3047 847 3047 1241 
Q 3047 1584 2836 1778 
Q 2625 1972 2144 2069 
L 1759 2144 
Q 1053 2284 737 2584 
Q 422 2884 422 3419 
Q 422 4038 858 4394 
Q 1294 4750 2059 4750 
Q 2388 4750 2728 4690 
Q 3069 4631 3425 4513 
z
" transform="scale(0.015625)"/>
      <path id="DejaVuSans-69" d="M 603 3500 
L 1178 3500 
L 1178 0 
L 603 0 
L 603 3500 
z
M 603 4863 
L 1178 4863 
L 1178 4134 
L 603 4134 
L 603 4863 
z
" transform="scale(0.015625)"/>
      <path id="DejaVuSans-65" d="M 3597 1894 
L 3597 1613 
L 953 1613 
Q 991 1019 1311 708 
Q 1631 397 2203 397 
Q 2534 397 2845 478 
Q 3156 559 3463 722 
L 3463 178 
Q 3153 47 2828 -22 
Q 2503 -91 2169 -91 
Q 1331 -91 842 396 
Q 353 884 353 1716 
Q 353 2575 817 3079 
Q 1281 3584 2069 3584 
Q 2775 3584 3186 3129 
Q 3597 2675 3597 1894 
z
M 3022 2063 
Q 3016 2534 2758 2815 
Q 2500 3097 2075 3097 
Q 1594 3097 1305 2825 
Q 1016 2553 972 2059 
L 3022 2063 
z
" transform="scale(0.015625)"/>
      <path id="DejaVuSans-64" d="M 2906 2969 
L 2906 4863 
L 3481 4863 
L 3481 0 
L 2906 0 
L 2906 525 
Q 2725 213 2448 61 
Q 2172 -91 1784 -91 
Q 1150 -91 751 415 
Q 353 922 353 1747 
Q 353 2572 751 3078 
Q 1150 3584 1784 3584 
Q 2172 3584 2448 3432 
Q 2725 3281 2906 2969 
z
M 947 1747 
Q 947 1113 1208 752 
Q 1469 391 1925 391 
Q 2381 391 2643 752 
Q 2906 1113 2906 1747 
Q 2906 2381 2643 2742 
Q 2381 3103 1925 3103 
Q 1469 3103 1208 2742 
Q 947 2381 947 1747 
z
" transform="scale(0.015625)"/>
      <path id="DejaVuSans-41" d="M 2188 4044 
L 1331 1722 
L 3047 1722 
L 2188 4044 
z
M 1831 4666 
L 2547 4666 
L 4325 0 
L 3669 0 
L 3244 1197 
L 1141 1197 
L 716 0 
L 50 0 
L 1831 4666 
z
" transform="scale(0.015625)"/>
      <path id="DejaVuSans-67" d="M 2906 1791 
Q 2906 2416 2648 2759 
Q 2391 3103 1925 3103 
Q 1463 3103 1205 2759 
Q 947 2416 947 1791 
Q 947 1169 1205 825 
Q 1463 481 1925 481 
Q 2391 481 2648 825 
Q 2906 1169 2906 1791 
z
M 3481 434 
Q 3481 -459 3084 -895 
Q 2688 -1331 1869 -1331 
Q 1566 -1331 1297 -1286 
Q 1028 -1241 775 -1147 
L 775 -588 
Q 1028 -725 1275 -790 
Q 1522 -856 1778 -856 
Q 2344 -856 2625 -561 
Q 2906 -266 2906 331 
L 2906 616 
Q 2728 306 2450 153 
Q 2172 0 1784 0 
Q 1141 0 747 490 
Q 353 981 353 1791 
Q 353 2603 747 3093 
Q 1141 3584 1784 3584 
Q 2172 3584 2450 3431 
Q 2728 3278 2906 2969 
L 2906 3500 
L 3481 3500 
L 3481 434 
z
" transform="scale(0.015625)"/>
      <path id="DejaVuSans-43" d="M 4122 4306 
L 4122 3641 
Q 3803 3938 3442 4084 
Q 3081 4231 2675 4231 
Q 1875 4231 1450 3742 
Q 1025 3253 1025 2328 
Q 1025 1406 1450 917 
Q 1875 428 2675 428 
Q 3081 428 3442 575 
Q 3803 722 4122 1019 
L 4122 359 
Q 3791 134 3420 21 
Q 3050 -91 2638 -91 
Q 1578 -91 968 557 
Q 359 1206 359 2328 
Q 359 3453 968 4101 
Q 1578 4750 2638 4750 
Q 3056 4750 3426 4639 
Q 3797 4528 4122 4306 
z
" transform="scale(0.015625)"/>
     </defs>
     <use xlink:href="#DejaVuSans-53"/>
     <use xlink:href="#DejaVuSans-69" x="63.476562"/>
     <use xlink:href="#DejaVuSans-6d" x="91.259766"/>
     <use xlink:href="#DejaVuSans-75" x="188.671875"/>
     <use xlink:href="#DejaVuSans-6c" x="252.050781"/>
     <use xlink:href="#DejaVuSans-61" x="279.833984"/>
     <use xlink:href="#DejaVuSans-74" x="341.113281"/>
     <use xlink:href="#DejaVuSans-65" x="380.322266"/>
     <use xlink:href="#DejaVuSans-64" x="441.845703"/>
     <use xlink:href="#DejaVuSans-20" x="505.322266"/>
     <use xlink:href="#DejaVuSans-41" x="537.109375"/>
     <use xlink:href="#DejaVuSans-6e" x="605.517578"/>
     <use xlink:href="#DejaVuSans-65" x="668.896484"/>
     <use xlink:href="#DejaVuSans-61" x="730.419922"/>
     <use xlink:href="#DejaVuSans-6c" x="791.699219"/>
     <use xlink:href="#DejaVuSans-6c" x="819.482422"/>
     <use xlink:href="#DejaVuSans-69" x="847.265625"/>
     <use xlink:href="#DejaVuSans-6e" x="875.048828"/>
     <use xlink:href="#DejaVuSans-67" x="938.427734"/>
     <use xlink:href="#DejaVuSans-20" x="1001.904297"/>
     <use xlink:href="#DejaVuSans-43" x="1033.691406"/>
     <use xlink:href="#DejaVuSans-6f" x="1103.515625"/>
     <use xlink:href="#DejaVuSans-73" x="1164.697266"/>
     <use xlink:href="#DejaVuSans-74" x="1216.796875"/>
    </g>
   </g>
  </g>
 </g>
 <defs>
  <clipPath id="pd5dea256d0">
   <rect x="57.6" y="41.472" width="357.12" height="266.112"/>
  </clipPath>
 </defs>
</svg>
