<?xml version="1.0" encoding="utf-8" standalone="no"?>
<!DOCTYPE svg PUBLIC "-//W3C//DTD SVG 1.1//EN"
  "http://www.w3.org/Graphics/SVG/1.1/DTD/svg11.dtd">
<svg xmlns:xlink="http://www.w3.org/1999/xlink" width="460.8pt" height="345.6pt" viewBox="0 0 460.8 345.6" xmlns="http://www.w3.org/2000/svg" version="1.1">
 <metadata>
  <rdf:RDF xmlns:dc="http://purl.org/dc/elements/1.1/" xmlns:cc="http://creativecommons.org/ns#" xmlns:rdf="http://www.w3.org/1999/02/22-rdf-syntax-ns#">
   <cc:Work>
    <dc:type rdf:resource="http://purl.org/dc/dcmitype/StillImage"/>
    <dc:date>2022-06-01T07:52:00.744790</dc:date>
    <dc:format>image/svg+xml</dc:format>
    <dc:creator>
     <cc:Agent>
      <dc:title>Matplotlib v3.5.1, https://matplotlib.org/</dc:title>
     </cc:Agent>
    </dc:creator>
   </cc:Work>
  </rdf:RDF>
 </metadata>
 <defs>
  <style type="text/css">*{stroke-linejoin: round; stroke-linecap: butt}</style>
 </defs>
 <g id="figure_1">
  <g id="patch_1">
   <path d="M 0 345.6 
L 460.8 345.6 
L 460.8 0 
L 0 0 
z
" style="fill: #ffffff"/>
  </g>
  <g id="axes_1">
   <g id="patch_2">
    <path d="M 57.6 307.584 
L 414.72 307.584 
L 414.72 41.472 
L 57.6 41.472 
z
" style="fill: #ffffff"/>
   </g>
   <g id="matplotlib.axis_1">
    <g id="xtick_1">
     <g id="line2d_1">
      <defs>
       <path id="mdae95d39c9" d="M 0 0 
L 0 3.5 
" style="stroke: #000000; stroke-width: 0.8"/>
      </defs>
      <g>
       <use xlink:href="#mdae95d39c9" x="73.832727" y="307.584" style="stroke: #000000; stroke-width: 0.8"/>
      </g>
     </g>
     <g id="text_1">
      <!-- 0 -->
      <g transform="translate(70.651477 322.182437)scale(0.1 -0.1)">
       <defs>
        <path id="DejaVuSans-30" d="M 2034 4250 
Q 1547 4250 1301 3770 
Q 1056 3291 1056 2328 
Q 1056 1369 1301 889 
Q 1547 409 2034 409 
Q 2525 409 2770 889 
Q 3016 1369 3016 2328 
Q 3016 3291 2770 3770 
Q 2525 4250 2034 4250 
z
M 2034 4750 
Q 2819 4750 3233 4129 
Q 3647 3509 3647 2328 
Q 3647 1150 3233 529 
Q 2819 -91 2034 -91 
Q 1250 -91 836 529 
Q 422 1150 422 2328 
Q 422 3509 836 4129 
Q 1250 4750 2034 4750 
z
" transform="scale(0.015625)"/>
       </defs>
       <use xlink:href="#DejaVuSans-30"/>
      </g>
     </g>
    </g>
    <g id="xtick_2">
     <g id="line2d_2">
      <g>
       <use xlink:href="#mdae95d39c9" x="113.696989" y="307.584" style="stroke: #000000; stroke-width: 0.8"/>
      </g>
     </g>
     <g id="text_2">
      <!-- 250 -->
      <g transform="translate(104.153239 322.182437)scale(0.1 -0.1)">
       <defs>
        <path id="DejaVuSans-32" d="M 1228 531 
L 3431 531 
L 3431 0 
L 469 0 
L 469 531 
Q 828 903 1448 1529 
Q 2069 2156 2228 2338 
Q 2531 2678 2651 2914 
Q 2772 3150 2772 3378 
Q 2772 3750 2511 3984 
Q 2250 4219 1831 4219 
Q 1534 4219 1204 4116 
Q 875 4013 500 3803 
L 500 4441 
Q 881 4594 1212 4672 
Q 1544 4750 1819 4750 
Q 2544 4750 2975 4387 
Q 3406 4025 3406 3419 
Q 3406 3131 3298 2873 
Q 3191 2616 2906 2266 
Q 2828 2175 2409 1742 
Q 1991 1309 1228 531 
z
" transform="scale(0.015625)"/>
        <path id="DejaVuSans-35" d="M 691 4666 
L 3169 4666 
L 3169 4134 
L 1269 4134 
L 1269 2991 
Q 1406 3038 1543 3061 
Q 1681 3084 1819 3084 
Q 2600 3084 3056 2656 
Q 3513 2228 3513 1497 
Q 3513 744 3044 326 
Q 2575 -91 1722 -91 
Q 1428 -91 1123 -41 
Q 819 9 494 109 
L 494 744 
Q 775 591 1075 516 
Q 1375 441 1709 441 
Q 2250 441 2565 725 
Q 2881 1009 2881 1497 
Q 2881 1984 2565 2268 
Q 2250 2553 1709 2553 
Q 1456 2553 1204 2497 
Q 953 2441 691 2322 
L 691 4666 
z
" transform="scale(0.015625)"/>
       </defs>
       <use xlink:href="#DejaVuSans-32"/>
       <use xlink:href="#DejaVuSans-35" x="63.623047"/>
       <use xlink:href="#DejaVuSans-30" x="127.246094"/>
      </g>
     </g>
    </g>
    <g id="xtick_3">
     <g id="line2d_3">
      <g>
       <use xlink:href="#mdae95d39c9" x="153.56125" y="307.584" style="stroke: #000000; stroke-width: 0.8"/>
      </g>
     </g>
     <g id="text_3">
      <!-- 500 -->
      <g transform="translate(144.0175 322.182437)scale(0.1 -0.1)">
       <use xlink:href="#DejaVuSans-35"/>
       <use xlink:href="#DejaVuSans-30" x="63.623047"/>
       <use xlink:href="#DejaVuSans-30" x="127.246094"/>
      </g>
     </g>
    </g>
    <g id="xtick_4">
     <g id="line2d_4">
      <g>
       <use xlink:href="#mdae95d39c9" x="193.425512" y="307.584" style="stroke: #000000; stroke-width: 0.8"/>
      </g>
     </g>
     <g id="text_4">
      <!-- 750 -->
      <g transform="translate(183.881762 322.182437)scale(0.1 -0.1)">
       <defs>
        <path id="DejaVuSans-37" d="M 525 4666 
L 3525 4666 
L 3525 4397 
L 1831 0 
L 1172 0 
L 2766 4134 
L 525 4134 
L 525 4666 
z
" transform="scale(0.015625)"/>
       </defs>
       <use xlink:href="#DejaVuSans-37"/>
       <use xlink:href="#DejaVuSans-35" x="63.623047"/>
       <use xlink:href="#DejaVuSans-30" x="127.246094"/>
      </g>
     </g>
    </g>
    <g id="xtick_5">
     <g id="line2d_5">
      <g>
       <use xlink:href="#mdae95d39c9" x="233.289773" y="307.584" style="stroke: #000000; stroke-width: 0.8"/>
      </g>
     </g>
     <g id="text_5">
      <!-- 1000 -->
      <g transform="translate(220.564773 322.182437)scale(0.1 -0.1)">
       <defs>
        <path id="DejaVuSans-31" d="M 794 531 
L 1825 531 
L 1825 4091 
L 703 3866 
L 703 4441 
L 1819 4666 
L 2450 4666 
L 2450 531 
L 3481 531 
L 3481 0 
L 794 0 
L 794 531 
z
" transform="scale(0.015625)"/>
       </defs>
       <use xlink:href="#DejaVuSans-31"/>
       <use xlink:href="#DejaVuSans-30" x="63.623047"/>
       <use xlink:href="#DejaVuSans-30" x="127.246094"/>
       <use xlink:href="#DejaVuSans-30" x="190.869141"/>
      </g>
     </g>
    </g>
    <g id="xtick_6">
     <g id="line2d_6">
      <g>
       <use xlink:href="#mdae95d39c9" x="273.154035" y="307.584" style="stroke: #000000; stroke-width: 0.8"/>
      </g>
     </g>
     <g id="text_6">
      <!-- 1250 -->
      <g transform="translate(260.429035 322.182437)scale(0.1 -0.1)">
       <use xlink:href="#DejaVuSans-31"/>
       <use xlink:href="#DejaVuSans-32" x="63.623047"/>
       <use xlink:href="#DejaVuSans-35" x="127.246094"/>
       <use xlink:href="#DejaVuSans-30" x="190.869141"/>
      </g>
     </g>
    </g>
    <g id="xtick_7">
     <g id="line2d_7">
      <g>
       <use xlink:href="#mdae95d39c9" x="313.018296" y="307.584" style="stroke: #000000; stroke-width: 0.8"/>
      </g>
     </g>
     <g id="text_7">
      <!-- 1500 -->
      <g transform="translate(300.293296 322.182437)scale(0.1 -0.1)">
       <use xlink:href="#DejaVuSans-31"/>
       <use xlink:href="#DejaVuSans-35" x="63.623047"/>
       <use xlink:href="#DejaVuSans-30" x="127.246094"/>
       <use xlink:href="#DejaVuSans-30" x="190.869141"/>
      </g>
     </g>
    </g>
    <g id="xtick_8">
     <g id="line2d_8">
      <g>
       <use xlink:href="#mdae95d39c9" x="352.882558" y="307.584" style="stroke: #000000; stroke-width: 0.8"/>
      </g>
     </g>
     <g id="text_8">
      <!-- 1750 -->
      <g transform="translate(340.157558 322.182437)scale(0.1 -0.1)">
       <use xlink:href="#DejaVuSans-31"/>
       <use xlink:href="#DejaVuSans-37" x="63.623047"/>
       <use xlink:href="#DejaVuSans-35" x="127.246094"/>
       <use xlink:href="#DejaVuSans-30" x="190.869141"/>
      </g>
     </g>
    </g>
    <g id="xtick_9">
     <g id="line2d_9">
      <g>
       <use xlink:href="#mdae95d39c9" x="392.746819" y="307.584" style="stroke: #000000; stroke-width: 0.8"/>
      </g>
     </g>
     <g id="text_9">
      <!-- 2000 -->
      <g transform="translate(380.021819 322.182437)scale(0.1 -0.1)">
       <use xlink:href="#DejaVuSans-32"/>
       <use xlink:href="#DejaVuSans-30" x="63.623047"/>
       <use xlink:href="#DejaVuSans-30" x="127.246094"/>
       <use xlink:href="#DejaVuSans-30" x="190.869141"/>
      </g>
     </g>
    </g>
    <g id="text_10">
     <!-- num swaps -->
     <g transform="translate(207.826406 335.860562)scale(0.1 -0.1)">
      <defs>
       <path id="DejaVuSans-6e" d="M 3513 2113 
L 3513 0 
L 2938 0 
L 2938 2094 
Q 2938 2591 2744 2837 
Q 2550 3084 2163 3084 
Q 1697 3084 1428 2787 
Q 1159 2491 1159 1978 
L 1159 0 
L 581 0 
L 581 3500 
L 1159 3500 
L 1159 2956 
Q 1366 3272 1645 3428 
Q 1925 3584 2291 3584 
Q 2894 3584 3203 3211 
Q 3513 2838 3513 2113 
z
" transform="scale(0.015625)"/>
       <path id="DejaVuSans-75" d="M 544 1381 
L 544 3500 
L 1119 3500 
L 1119 1403 
Q 1119 906 1312 657 
Q 1506 409 1894 409 
Q 2359 409 2629 706 
Q 2900 1003 2900 1516 
L 2900 3500 
L 3475 3500 
L 3475 0 
L 2900 0 
L 2900 538 
Q 2691 219 2414 64 
Q 2138 -91 1772 -91 
Q 1169 -91 856 284 
Q 544 659 544 1381 
z
M 1991 3584 
L 1991 3584 
z
" transform="scale(0.015625)"/>
       <path id="DejaVuSans-6d" d="M 3328 2828 
Q 3544 3216 3844 3400 
Q 4144 3584 4550 3584 
Q 5097 3584 5394 3201 
Q 5691 2819 5691 2113 
L 5691 0 
L 5113 0 
L 5113 2094 
Q 5113 2597 4934 2840 
Q 4756 3084 4391 3084 
Q 3944 3084 3684 2787 
Q 3425 2491 3425 1978 
L 3425 0 
L 2847 0 
L 2847 2094 
Q 2847 2600 2669 2842 
Q 2491 3084 2119 3084 
Q 1678 3084 1418 2786 
Q 1159 2488 1159 1978 
L 1159 0 
L 581 0 
L 581 3500 
L 1159 3500 
L 1159 2956 
Q 1356 3278 1631 3431 
Q 1906 3584 2284 3584 
Q 2666 3584 2933 3390 
Q 3200 3197 3328 2828 
z
" transform="scale(0.015625)"/>
       <path id="DejaVuSans-20" transform="scale(0.015625)"/>
       <path id="DejaVuSans-73" d="M 2834 3397 
L 2834 2853 
Q 2591 2978 2328 3040 
Q 2066 3103 1784 3103 
Q 1356 3103 1142 2972 
Q 928 2841 928 2578 
Q 928 2378 1081 2264 
Q 1234 2150 1697 2047 
L 1894 2003 
Q 2506 1872 2764 1633 
Q 3022 1394 3022 966 
Q 3022 478 2636 193 
Q 2250 -91 1575 -91 
Q 1294 -91 989 -36 
Q 684 19 347 128 
L 347 722 
Q 666 556 975 473 
Q 1284 391 1588 391 
Q 1994 391 2212 530 
Q 2431 669 2431 922 
Q 2431 1156 2273 1281 
Q 2116 1406 1581 1522 
L 1381 1569 
Q 847 1681 609 1914 
Q 372 2147 372 2553 
Q 372 3047 722 3315 
Q 1072 3584 1716 3584 
Q 2034 3584 2315 3537 
Q 2597 3491 2834 3397 
z
" transform="scale(0.015625)"/>
       <path id="DejaVuSans-77" d="M 269 3500 
L 844 3500 
L 1563 769 
L 2278 3500 
L 2956 3500 
L 3675 769 
L 4391 3500 
L 4966 3500 
L 4050 0 
L 3372 0 
L 2619 2869 
L 1863 0 
L 1184 0 
L 269 3500 
z
" transform="scale(0.015625)"/>
       <path id="DejaVuSans-61" d="M 2194 1759 
Q 1497 1759 1228 1600 
Q 959 1441 959 1056 
Q 959 750 1161 570 
Q 1363 391 1709 391 
Q 2188 391 2477 730 
Q 2766 1069 2766 1631 
L 2766 1759 
L 2194 1759 
z
M 3341 1997 
L 3341 0 
L 2766 0 
L 2766 531 
Q 2569 213 2275 61 
Q 1981 -91 1556 -91 
Q 1019 -91 701 211 
Q 384 513 384 1019 
Q 384 1609 779 1909 
Q 1175 2209 1959 2209 
L 2766 2209 
L 2766 2266 
Q 2766 2663 2505 2880 
Q 2244 3097 1772 3097 
Q 1472 3097 1187 3025 
Q 903 2953 641 2809 
L 641 3341 
Q 956 3463 1253 3523 
Q 1550 3584 1831 3584 
Q 2591 3584 2966 3190 
Q 3341 2797 3341 1997 
z
" transform="scale(0.015625)"/>
       <path id="DejaVuSans-70" d="M 1159 525 
L 1159 -1331 
L 581 -1331 
L 581 3500 
L 1159 3500 
L 1159 2969 
Q 1341 3281 1617 3432 
Q 1894 3584 2278 3584 
Q 2916 3584 3314 3078 
Q 3713 2572 3713 1747 
Q 3713 922 3314 415 
Q 2916 -91 2278 -91 
Q 1894 -91 1617 61 
Q 1341 213 1159 525 
z
M 3116 1747 
Q 3116 2381 2855 2742 
Q 2594 3103 2138 3103 
Q 1681 3103 1420 2742 
Q 1159 2381 1159 1747 
Q 1159 1113 1420 752 
Q 1681 391 2138 391 
Q 2594 391 2855 752 
Q 3116 1113 3116 1747 
z
" transform="scale(0.015625)"/>
      </defs>
      <use xlink:href="#DejaVuSans-6e"/>
      <use xlink:href="#DejaVuSans-75" x="63.378906"/>
      <use xlink:href="#DejaVuSans-6d" x="126.757812"/>
      <use xlink:href="#DejaVuSans-20" x="224.169922"/>
      <use xlink:href="#DejaVuSans-73" x="255.957031"/>
      <use xlink:href="#DejaVuSans-77" x="308.056641"/>
      <use xlink:href="#DejaVuSans-61" x="389.84375"/>
      <use xlink:href="#DejaVuSans-70" x="451.123047"/>
      <use xlink:href="#DejaVuSans-73" x="514.599609"/>
     </g>
    </g>
   </g>
   <g id="matplotlib.axis_2">
    <g id="ytick_1">
     <g id="line2d_10">
      <defs>
       <path id="m2e9061450b" d="M 0 0 
L -3.5 0 
" style="stroke: #000000; stroke-width: 0.8"/>
      </defs>
      <g>
       <use xlink:href="#m2e9061450b" x="57.6" y="279.710609" style="stroke: #000000; stroke-width: 0.8"/>
      </g>
     </g>
     <g id="text_11">
      <!-- 420 -->
      <g transform="translate(31.5125 283.509827)scale(0.1 -0.1)">
       <defs>
        <path id="DejaVuSans-34" d="M 2419 4116 
L 825 1625 
L 2419 1625 
L 2419 4116 
z
M 2253 4666 
L 3047 4666 
L 3047 1625 
L 3713 1625 
L 3713 1100 
L 3047 1100 
L 3047 0 
L 2419 0 
L 2419 1100 
L 313 1100 
L 313 1709 
L 2253 4666 
z
" transform="scale(0.015625)"/>
       </defs>
       <use xlink:href="#DejaVuSans-34"/>
       <use xlink:href="#DejaVuSans-32" x="63.623047"/>
       <use xlink:href="#DejaVuSans-30" x="127.246094"/>
      </g>
     </g>
    </g>
    <g id="ytick_2">
     <g id="line2d_11">
      <g>
       <use xlink:href="#m2e9061450b" x="57.6" y="227.119304" style="stroke: #000000; stroke-width: 0.8"/>
      </g>
     </g>
     <g id="text_12">
      <!-- 440 -->
      <g transform="translate(31.5125 230.918523)scale(0.1 -0.1)">
       <use xlink:href="#DejaVuSans-34"/>
       <use xlink:href="#DejaVuSans-34" x="63.623047"/>
       <use xlink:href="#DejaVuSans-30" x="127.246094"/>
      </g>
     </g>
    </g>
    <g id="ytick_3">
     <g id="line2d_12">
      <g>
       <use xlink:href="#m2e9061450b" x="57.6" y="174.528" style="stroke: #000000; stroke-width: 0.8"/>
      </g>
     </g>
     <g id="text_13">
      <!-- 460 -->
      <g transform="translate(31.5125 178.327219)scale(0.1 -0.1)">
       <defs>
        <path id="DejaVuSans-36" d="M 2113 2584 
Q 1688 2584 1439 2293 
Q 1191 2003 1191 1497 
Q 1191 994 1439 701 
Q 1688 409 2113 409 
Q 2538 409 2786 701 
Q 3034 994 3034 1497 
Q 3034 2003 2786 2293 
Q 2538 2584 2113 2584 
z
M 3366 4563 
L 3366 3988 
Q 3128 4100 2886 4159 
Q 2644 4219 2406 4219 
Q 1781 4219 1451 3797 
Q 1122 3375 1075 2522 
Q 1259 2794 1537 2939 
Q 1816 3084 2150 3084 
Q 2853 3084 3261 2657 
Q 3669 2231 3669 1497 
Q 3669 778 3244 343 
Q 2819 -91 2113 -91 
Q 1303 -91 875 529 
Q 447 1150 447 2328 
Q 447 3434 972 4092 
Q 1497 4750 2381 4750 
Q 2619 4750 2861 4703 
Q 3103 4656 3366 4563 
z
" transform="scale(0.015625)"/>
       </defs>
       <use xlink:href="#DejaVuSans-34"/>
       <use xlink:href="#DejaVuSans-36" x="63.623047"/>
       <use xlink:href="#DejaVuSans-30" x="127.246094"/>
      </g>
     </g>
    </g>
    <g id="ytick_4">
     <g id="line2d_13">
      <g>
       <use xlink:href="#m2e9061450b" x="57.6" y="121.936696" style="stroke: #000000; stroke-width: 0.8"/>
      </g>
     </g>
     <g id="text_14">
      <!-- 480 -->
      <g transform="translate(31.5125 125.735914)scale(0.1 -0.1)">
       <defs>
        <path id="DejaVuSans-38" d="M 2034 2216 
Q 1584 2216 1326 1975 
Q 1069 1734 1069 1313 
Q 1069 891 1326 650 
Q 1584 409 2034 409 
Q 2484 409 2743 651 
Q 3003 894 3003 1313 
Q 3003 1734 2745 1975 
Q 2488 2216 2034 2216 
z
M 1403 2484 
Q 997 2584 770 2862 
Q 544 3141 544 3541 
Q 544 4100 942 4425 
Q 1341 4750 2034 4750 
Q 2731 4750 3128 4425 
Q 3525 4100 3525 3541 
Q 3525 3141 3298 2862 
Q 3072 2584 2669 2484 
Q 3125 2378 3379 2068 
Q 3634 1759 3634 1313 
Q 3634 634 3220 271 
Q 2806 -91 2034 -91 
Q 1263 -91 848 271 
Q 434 634 434 1313 
Q 434 1759 690 2068 
Q 947 2378 1403 2484 
z
M 1172 3481 
Q 1172 3119 1398 2916 
Q 1625 2713 2034 2713 
Q 2441 2713 2670 2916 
Q 2900 3119 2900 3481 
Q 2900 3844 2670 4047 
Q 2441 4250 2034 4250 
Q 1625 4250 1398 4047 
Q 1172 3844 1172 3481 
z
" transform="scale(0.015625)"/>
       </defs>
       <use xlink:href="#DejaVuSans-34"/>
       <use xlink:href="#DejaVuSans-38" x="63.623047"/>
       <use xlink:href="#DejaVuSans-30" x="127.246094"/>
      </g>
     </g>
    </g>
    <g id="ytick_5">
     <g id="line2d_14">
      <g>
       <use xlink:href="#m2e9061450b" x="57.6" y="69.345391" style="stroke: #000000; stroke-width: 0.8"/>
      </g>
     </g>
     <g id="text_15">
      <!-- 500 -->
      <g transform="translate(31.5125 73.14461)scale(0.1 -0.1)">
       <use xlink:href="#DejaVuSans-35"/>
       <use xlink:href="#DejaVuSans-30" x="63.623047"/>
       <use xlink:href="#DejaVuSans-30" x="127.246094"/>
      </g>
     </g>
    </g>
    <g id="text_16">
     <!-- total cost -->
     <g transform="translate(25.432812 197.923313)rotate(-90)scale(0.1 -0.1)">
      <defs>
       <path id="DejaVuSans-74" d="M 1172 4494 
L 1172 3500 
L 2356 3500 
L 2356 3053 
L 1172 3053 
L 1172 1153 
Q 1172 725 1289 603 
Q 1406 481 1766 481 
L 2356 481 
L 2356 0 
L 1766 0 
Q 1100 0 847 248 
Q 594 497 594 1153 
L 594 3053 
L 172 3053 
L 172 3500 
L 594 3500 
L 594 4494 
L 1172 4494 
z
" transform="scale(0.015625)"/>
       <path id="DejaVuSans-6f" d="M 1959 3097 
Q 1497 3097 1228 2736 
Q 959 2375 959 1747 
Q 959 1119 1226 758 
Q 1494 397 1959 397 
Q 2419 397 2687 759 
Q 2956 1122 2956 1747 
Q 2956 2369 2687 2733 
Q 2419 3097 1959 3097 
z
M 1959 3584 
Q 2709 3584 3137 3096 
Q 3566 2609 3566 1747 
Q 3566 888 3137 398 
Q 2709 -91 1959 -91 
Q 1206 -91 779 398 
Q 353 888 353 1747 
Q 353 2609 779 3096 
Q 1206 3584 1959 3584 
z
" transform="scale(0.015625)"/>
       <path id="DejaVuSans-6c" d="M 603 4863 
L 1178 4863 
L 1178 0 
L 603 0 
L 603 4863 
z
" transform="scale(0.015625)"/>
       <path id="DejaVuSans-63" d="M 3122 3366 
L 3122 2828 
Q 2878 2963 2633 3030 
Q 2388 3097 2138 3097 
Q 1578 3097 1268 2742 
Q 959 2388 959 1747 
Q 959 1106 1268 751 
Q 1578 397 2138 397 
Q 2388 397 2633 464 
Q 2878 531 3122 666 
L 3122 134 
Q 2881 22 2623 -34 
Q 2366 -91 2075 -91 
Q 1284 -91 818 406 
Q 353 903 353 1747 
Q 353 2603 823 3093 
Q 1294 3584 2113 3584 
Q 2378 3584 2631 3529 
Q 2884 3475 3122 3366 
z
" transform="scale(0.015625)"/>
      </defs>
      <use xlink:href="#DejaVuSans-74"/>
      <use xlink:href="#DejaVuSans-6f" x="39.208984"/>
      <use xlink:href="#DejaVuSans-74" x="100.390625"/>
      <use xlink:href="#DejaVuSans-61" x="139.599609"/>
      <use xlink:href="#DejaVuSans-6c" x="200.878906"/>
      <use xlink:href="#DejaVuSans-20" x="228.662109"/>
      <use xlink:href="#DejaVuSans-63" x="260.449219"/>
      <use xlink:href="#DejaVuSans-6f" x="315.429688"/>
      <use xlink:href="#DejaVuSans-73" x="376.611328"/>
      <use xlink:href="#DejaVuSans-74" x="428.710938"/>
     </g>
    </g>
   </g>
   <g id="line2d_15">
    <path d="M 73.832727 121.936696 
L 74.151641 106.159304 
L 74.470555 103.529739 
L 74.78947 87.752348 
L 75.108384 85.122783 
L 75.427298 87.752348 
L 75.746212 100.900174 
L 76.065126 121.936696 
L 76.38404 119.30713 
L 76.702954 129.825391 
L 77.021868 135.084522 
L 77.340782 148.232348 
L 77.659696 174.528 
L 77.97861 166.639304 
L 78.297525 174.528 
L 78.616439 158.750609 
L 78.935353 164.009739 
L 79.254267 148.232348 
L 79.573181 148.232348 
L 79.892095 150.861913 
L 80.211009 140.343652 
L 80.529923 145.602783 
L 80.848837 132.454957 
L 81.167751 127.195826 
L 81.486665 132.454957 
L 81.80558 127.195826 
L 82.124494 114.048 
L 83.081236 135.084522 
L 83.40015 150.861913 
L 83.719064 142.973217 
L 84.037978 150.861913 
L 84.356892 145.602783 
L 84.675806 142.973217 
L 84.99472 137.714087 
L 85.313635 153.491478 
L 85.951463 153.491478 
L 86.270377 171.898435 
L 87.227119 135.084522 
L 87.546033 166.639304 
L 87.864947 145.602783 
L 88.183861 156.121043 
L 88.502775 158.750609 
L 89.140604 153.491478 
L 89.459518 145.602783 
L 89.778432 161.380174 
L 90.41626 174.528 
L 90.735174 153.491478 
L 91.054088 142.973217 
L 91.373002 127.195826 
L 91.691916 132.454957 
L 92.010831 135.084522 
L 92.967573 111.418435 
L 93.286487 127.195826 
L 93.605401 121.936696 
L 93.924315 135.084522 
L 94.243229 158.750609 
L 94.562143 164.009739 
L 94.881057 158.750609 
L 95.199971 161.380174 
L 95.518886 161.380174 
L 95.8378 158.750609 
L 96.156714 153.491478 
L 96.475628 142.973217 
L 96.794542 169.26887 
L 97.113456 174.528 
L 97.43237 161.380174 
L 97.751284 153.491478 
L 98.070198 158.750609 
L 98.389112 182.416696 
L 98.708026 190.305391 
L 99.026941 187.675826 
L 99.345855 198.194087 
L 99.664769 185.046261 
L 99.983683 192.934957 
L 100.621511 224.489739 
L 101.259339 240.26713 
L 101.578253 237.637565 
L 101.897167 245.526261 
L 102.534996 229.74887 
L 102.85391 248.155826 
L 103.172824 232.378435 
L 103.491738 240.26713 
L 104.129566 221.860174 
L 104.44848 211.341913 
L 104.767394 216.601043 
L 105.086308 198.194087 
L 105.405222 203.453217 
L 105.724136 224.489739 
L 106.043051 224.489739 
L 106.361965 237.637565 
L 106.680879 235.008 
L 106.999793 237.637565 
L 107.637621 224.489739 
L 107.956535 248.155826 
L 108.275449 227.119304 
L 109.232191 263.933217 
L 109.551106 263.933217 
L 110.188934 240.26713 
L 110.507848 237.637565 
L 110.826762 232.378435 
L 111.145676 213.971478 
L 111.46459 203.453217 
L 112.102418 208.712348 
L 112.421332 216.601043 
L 112.740246 211.341913 
L 113.059161 200.823652 
L 113.378075 203.453217 
L 113.696989 203.453217 
L 114.334817 208.712348 
L 114.653731 213.971478 
L 114.972645 229.74887 
L 115.291559 221.860174 
L 115.610473 229.74887 
L 115.929387 229.74887 
L 116.248301 227.119304 
L 116.88613 258.674087 
L 117.205044 266.562783 
L 117.523958 256.044522 
L 118.161786 274.451478 
L 118.799614 256.044522 
L 119.118528 261.303652 
L 119.437442 229.74887 
L 119.756356 221.860174 
L 120.075271 219.230609 
L 120.394185 195.564522 
L 120.713099 185.046261 
L 121.350927 190.305391 
L 121.669841 187.675826 
L 121.988755 203.453217 
L 122.307669 192.934957 
L 122.626583 190.305391 
L 122.945497 190.305391 
L 123.264412 195.564522 
L 123.90224 169.26887 
L 124.540068 174.528 
L 124.858982 169.26887 
L 125.177896 182.416696 
L 125.49681 177.157565 
L 125.815724 182.416696 
L 126.453552 221.860174 
L 126.772467 227.119304 
L 127.410295 206.082783 
L 128.048123 200.823652 
L 128.367037 200.823652 
L 128.685951 203.453217 
L 129.004865 198.194087 
L 129.642693 227.119304 
L 130.280522 237.637565 
L 130.599436 237.637565 
L 130.91835 240.26713 
L 131.237264 258.674087 
L 131.556178 263.933217 
L 131.875092 258.674087 
L 132.194006 266.562783 
L 132.51292 240.26713 
L 132.831834 232.378435 
L 133.150748 219.230609 
L 133.469662 219.230609 
L 133.788577 221.860174 
L 134.426405 216.601043 
L 134.745319 221.860174 
L 135.064233 245.526261 
L 135.383147 253.414957 
L 135.702061 256.044522 
L 136.020975 242.896696 
L 136.339889 245.526261 
L 136.658803 240.26713 
L 136.977717 242.896696 
L 137.296632 227.119304 
L 137.615546 221.860174 
L 137.93446 224.489739 
L 138.253374 224.489739 
L 138.572288 192.934957 
L 139.210116 203.453217 
L 139.847944 187.675826 
L 140.166858 185.046261 
L 140.485772 161.380174 
L 140.804687 148.232348 
L 141.123601 87.752348 
L 141.442515 100.900174 
L 141.761429 95.641043 
L 142.080343 114.048 
L 142.399257 103.529739 
L 142.718171 100.900174 
L 143.037085 100.900174 
L 143.355999 129.825391 
L 143.674913 124.566261 
L 144.312742 111.418435 
L 144.631656 106.159304 
L 144.95057 98.270609 
L 145.269484 116.677565 
L 145.907312 135.084522 
L 146.226226 158.750609 
L 146.54514 161.380174 
L 146.864054 169.26887 
L 147.182968 164.009739 
L 147.501882 164.009739 
L 147.820797 169.26887 
L 148.139711 177.157565 
L 148.458625 158.750609 
L 148.777539 156.121043 
L 149.096453 182.416696 
L 149.415367 174.528 
L 149.734281 174.528 
L 150.053195 187.675826 
L 150.372109 190.305391 
L 150.691023 195.564522 
L 151.009937 190.305391 
L 151.328852 187.675826 
L 151.647766 192.934957 
L 151.96668 190.305391 
L 152.285594 200.823652 
L 152.604508 198.194087 
L 152.923422 182.416696 
L 153.242336 187.675826 
L 153.880164 174.528 
L 154.199078 174.528 
L 154.517992 161.380174 
L 155.155821 145.602783 
L 155.474735 153.491478 
L 155.793649 148.232348 
L 156.112563 148.232348 
L 156.431477 158.750609 
L 156.750391 177.157565 
L 157.388219 145.602783 
L 157.707133 140.343652 
L 158.026048 158.750609 
L 158.344962 164.009739 
L 158.663876 166.639304 
L 158.98279 166.639304 
L 159.301704 158.750609 
L 159.620618 190.305391 
L 159.939532 185.046261 
L 160.258446 185.046261 
L 160.57736 187.675826 
L 160.896274 185.046261 
L 161.215188 187.675826 
L 161.534103 206.082783 
L 161.853017 237.637565 
L 162.171931 174.528 
L 162.809759 200.823652 
L 163.128673 211.341913 
L 163.766501 211.341913 
L 164.085415 227.119304 
L 164.404329 219.230609 
L 164.723243 224.489739 
L 165.042158 227.119304 
L 165.361072 232.378435 
L 165.679986 227.119304 
L 165.9989 213.971478 
L 166.317814 227.119304 
L 166.636728 219.230609 
L 166.955642 224.489739 
L 167.274556 213.971478 
L 167.59347 208.712348 
L 167.912384 200.823652 
L 168.231298 187.675826 
L 168.550213 190.305391 
L 168.869127 206.082783 
L 169.188041 187.675826 
L 169.506955 211.341913 
L 169.825869 208.712348 
L 170.144783 211.341913 
L 170.782611 245.526261 
L 171.101525 256.044522 
L 171.420439 258.674087 
L 171.739353 235.008 
L 172.058268 224.489739 
L 172.377182 219.230609 
L 172.696096 227.119304 
L 173.333924 279.710609 
L 173.652838 295.488 
L 173.971752 287.599304 
L 174.290666 271.821913 
L 174.60958 263.933217 
L 174.928494 263.933217 
L 175.247408 256.044522 
L 175.566323 256.044522 
L 175.885237 253.414957 
L 176.204151 263.933217 
L 176.523065 263.933217 
L 176.841979 271.821913 
L 177.160893 274.451478 
L 177.479807 274.451478 
L 177.798721 271.821913 
L 178.117635 266.562783 
L 178.436549 271.821913 
L 178.755463 266.562783 
L 179.074378 256.044522 
L 179.393292 258.674087 
L 179.712206 253.414957 
L 180.03112 258.674087 
L 180.350034 227.119304 
L 180.668948 213.971478 
L 180.987862 227.119304 
L 181.306776 235.008 
L 181.62569 224.489739 
L 182.263518 229.74887 
L 182.901347 211.341913 
L 183.220261 200.823652 
L 183.539175 198.194087 
L 183.858089 200.823652 
L 184.177003 200.823652 
L 184.495917 206.082783 
L 184.814831 208.712348 
L 185.452659 203.453217 
L 185.771573 216.601043 
L 186.090488 240.26713 
L 186.409402 248.155826 
L 186.728316 248.155826 
L 187.04723 256.044522 
L 187.366144 245.526261 
L 187.685058 224.489739 
L 188.003972 229.74887 
L 188.322886 229.74887 
L 188.6418 192.934957 
L 189.279629 216.601043 
L 189.917457 232.378435 
L 190.236371 229.74887 
L 190.555285 235.008 
L 190.874199 224.489739 
L 191.193113 227.119304 
L 191.512027 219.230609 
L 191.830941 229.74887 
L 192.149855 245.526261 
L 192.787684 227.119304 
L 193.425512 232.378435 
L 193.744426 219.230609 
L 194.06334 224.489739 
L 194.382254 242.896696 
L 194.701168 235.008 
L 195.338996 248.155826 
L 195.65791 242.896696 
L 195.976824 224.489739 
L 196.295739 221.860174 
L 196.614653 227.119304 
L 196.933567 227.119304 
L 197.252481 229.74887 
L 197.571395 258.674087 
L 197.890309 232.378435 
L 198.209223 240.26713 
L 198.528137 237.637565 
L 198.847051 253.414957 
L 199.165965 261.303652 
L 199.484879 258.674087 
L 199.803794 258.674087 
L 200.122708 242.896696 
L 200.760536 229.74887 
L 201.07945 227.119304 
L 201.398364 235.008 
L 201.717278 227.119304 
L 202.036192 232.378435 
L 202.355106 250.785391 
L 202.67402 248.155826 
L 202.992934 213.971478 
L 203.311849 198.194087 
L 203.630763 195.564522 
L 204.268591 219.230609 
L 204.587505 216.601043 
L 204.906419 203.453217 
L 205.225333 203.453217 
L 205.863161 174.528 
L 206.182075 179.78713 
L 206.500989 166.639304 
L 206.819904 164.009739 
L 207.138818 166.639304 
L 207.457732 182.416696 
L 207.776646 174.528 
L 208.09556 174.528 
L 208.733388 185.046261 
L 209.052302 185.046261 
L 209.371216 182.416696 
L 209.69013 174.528 
L 210.009044 182.416696 
L 210.327959 179.78713 
L 210.646873 171.898435 
L 210.965787 190.305391 
L 211.284701 187.675826 
L 211.603615 179.78713 
L 211.922529 166.639304 
L 212.241443 169.26887 
L 212.560357 156.121043 
L 212.879271 150.861913 
L 213.517099 179.78713 
L 213.836014 195.564522 
L 214.154928 171.898435 
L 214.792756 182.416696 
L 215.11167 158.750609 
L 215.430584 164.009739 
L 216.068412 137.714087 
L 216.387326 142.973217 
L 217.025154 161.380174 
L 217.344069 161.380174 
L 217.662983 166.639304 
L 217.981897 185.046261 
L 218.300811 182.416696 
L 218.619725 174.528 
L 218.938639 174.528 
L 219.257553 166.639304 
L 219.576467 174.528 
L 219.895381 177.157565 
L 220.214295 166.639304 
L 220.53321 174.528 
L 220.852124 187.675826 
L 221.171038 182.416696 
L 221.489952 203.453217 
L 221.808866 211.341913 
L 222.12778 211.341913 
L 222.446694 208.712348 
L 222.765608 219.230609 
L 223.403436 208.712348 
L 224.041265 227.119304 
L 224.360179 229.74887 
L 224.998007 213.971478 
L 225.316921 216.601043 
L 225.635835 213.971478 
L 225.954749 198.194087 
L 226.273663 200.823652 
L 226.592577 208.712348 
L 226.911491 208.712348 
L 227.230405 206.082783 
L 227.54932 190.305391 
L 227.868234 190.305391 
L 228.187148 192.934957 
L 228.506062 216.601043 
L 228.824976 229.74887 
L 229.14389 229.74887 
L 229.781718 211.341913 
L 230.100632 198.194087 
L 230.419546 203.453217 
L 231.057375 221.860174 
L 231.376289 211.341913 
L 231.695203 216.601043 
L 232.333031 221.860174 
L 232.651945 200.823652 
L 232.970859 200.823652 
L 233.608687 182.416696 
L 233.927601 213.971478 
L 234.246515 219.230609 
L 234.56543 227.119304 
L 234.884344 219.230609 
L 235.203258 192.934957 
L 235.522172 198.194087 
L 236.478914 174.528 
L 237.116742 203.453217 
L 237.435656 208.712348 
L 237.75457 203.453217 
L 238.073485 203.453217 
L 238.392399 198.194087 
L 238.711313 190.305391 
L 239.030227 198.194087 
L 239.349141 169.26887 
L 239.668055 164.009739 
L 239.986969 182.416696 
L 240.305883 179.78713 
L 240.943711 156.121043 
L 241.262625 161.380174 
L 241.58154 169.26887 
L 241.900454 190.305391 
L 242.219368 182.416696 
L 242.538282 187.675826 
L 242.857196 206.082783 
L 243.17611 216.601043 
L 243.495024 198.194087 
L 243.813938 192.934957 
L 244.132852 174.528 
L 244.451766 190.305391 
L 244.77068 185.046261 
L 245.408509 164.009739 
L 245.727423 158.750609 
L 246.046337 164.009739 
L 246.365251 164.009739 
L 246.684165 156.121043 
L 247.003079 190.305391 
L 247.321993 195.564522 
L 247.959821 190.305391 
L 248.278735 192.934957 
L 248.59765 198.194087 
L 248.916564 179.78713 
L 249.554392 206.082783 
L 249.873306 213.971478 
L 250.19222 200.823652 
L 250.830048 227.119304 
L 251.148962 213.971478 
L 251.467876 221.860174 
L 252.105705 203.453217 
L 252.424619 221.860174 
L 252.743533 190.305391 
L 253.062447 185.046261 
L 253.381361 190.305391 
L 253.700275 192.934957 
L 254.338103 187.675826 
L 254.657017 187.675826 
L 254.975931 200.823652 
L 255.294846 200.823652 
L 255.61376 185.046261 
L 255.932674 208.712348 
L 256.251588 206.082783 
L 256.570502 229.74887 
L 257.20833 200.823652 
L 257.527244 206.082783 
L 257.846158 203.453217 
L 258.165072 192.934957 
L 258.483986 190.305391 
L 258.802901 190.305391 
L 259.121815 200.823652 
L 259.759643 195.564522 
L 260.078557 208.712348 
L 260.397471 198.194087 
L 260.716385 195.564522 
L 261.035299 187.675826 
L 261.354213 174.528 
L 261.673127 174.528 
L 261.992041 148.232348 
L 262.310956 150.861913 
L 262.62987 142.973217 
L 262.948784 142.973217 
L 263.267698 124.566261 
L 263.586612 145.602783 
L 263.905526 158.750609 
L 264.22444 145.602783 
L 264.543354 156.121043 
L 264.862268 142.973217 
L 265.181182 135.084522 
L 265.500096 135.084522 
L 265.819011 145.602783 
L 266.137925 148.232348 
L 266.456839 137.714087 
L 266.775753 150.861913 
L 267.094667 150.861913 
L 267.413581 153.491478 
L 267.732495 145.602783 
L 268.051409 148.232348 
L 268.370323 148.232348 
L 268.689237 145.602783 
L 269.008151 156.121043 
L 269.327066 140.343652 
L 269.64598 156.121043 
L 270.283808 161.380174 
L 270.602722 140.343652 
L 270.921636 129.825391 
L 271.559464 124.566261 
L 271.878378 142.973217 
L 272.197292 171.898435 
L 272.516206 140.343652 
L 272.835121 132.454957 
L 273.154035 148.232348 
L 273.791863 153.491478 
L 274.110777 161.380174 
L 274.429691 150.861913 
L 274.748605 145.602783 
L 275.067519 142.973217 
L 275.386433 142.973217 
L 275.705347 153.491478 
L 276.024261 153.491478 
L 276.343176 164.009739 
L 276.66209 169.26887 
L 276.981004 187.675826 
L 277.299918 195.564522 
L 277.618832 182.416696 
L 277.937746 179.78713 
L 278.575574 190.305391 
L 278.894488 190.305391 
L 279.213402 195.564522 
L 279.851231 185.046261 
L 280.170145 185.046261 
L 280.489059 200.823652 
L 280.807973 200.823652 
L 281.126887 203.453217 
L 281.445801 208.712348 
L 281.764715 200.823652 
L 282.083629 169.26887 
L 282.402543 177.157565 
L 282.721457 156.121043 
L 283.040371 150.861913 
L 283.359286 135.084522 
L 284.634942 164.009739 
L 284.953856 185.046261 
L 285.591684 195.564522 
L 285.910598 195.564522 
L 286.548427 219.230609 
L 286.867341 229.74887 
L 287.186255 224.489739 
L 287.505169 213.971478 
L 287.824083 219.230609 
L 288.461911 208.712348 
L 288.780825 192.934957 
L 289.099739 200.823652 
L 289.418653 213.971478 
L 289.737567 219.230609 
L 290.056482 208.712348 
L 290.375396 235.008 
L 290.69431 240.26713 
L 291.332138 258.674087 
L 291.969966 229.74887 
L 292.28888 224.489739 
L 292.607794 213.971478 
L 292.926708 219.230609 
L 293.245622 216.601043 
L 293.564537 227.119304 
L 293.883451 195.564522 
L 294.202365 200.823652 
L 294.840193 174.528 
L 295.159107 182.416696 
L 295.478021 174.528 
L 295.796935 171.898435 
L 296.115849 164.009739 
L 296.434763 169.26887 
L 297.072592 150.861913 
L 297.391506 161.380174 
L 297.71042 158.750609 
L 298.029334 187.675826 
L 298.348248 187.675826 
L 298.667162 203.453217 
L 298.986076 206.082783 
L 299.30499 195.564522 
L 299.623904 211.341913 
L 299.942818 216.601043 
L 300.261732 229.74887 
L 300.580647 232.378435 
L 300.899561 232.378435 
L 301.218475 229.74887 
L 301.856303 250.785391 
L 302.175217 242.896696 
L 302.494131 229.74887 
L 302.813045 242.896696 
L 303.131959 213.971478 
L 303.450873 211.341913 
L 303.769787 237.637565 
L 304.088702 224.489739 
L 304.407616 227.119304 
L 305.364358 219.230609 
L 305.683272 227.119304 
L 306.3211 227.119304 
L 306.640014 237.637565 
L 306.958928 232.378435 
L 307.277842 203.453217 
L 307.596757 198.194087 
L 307.915671 177.157565 
L 308.234585 198.194087 
L 308.553499 211.341913 
L 308.872413 211.341913 
L 309.191327 219.230609 
L 309.829155 206.082783 
L 310.466983 200.823652 
L 310.785897 185.046261 
L 311.104812 179.78713 
L 311.423726 190.305391 
L 311.74264 185.046261 
L 312.061554 182.416696 
L 312.380468 185.046261 
L 313.018296 203.453217 
L 313.33721 219.230609 
L 313.656124 211.341913 
L 313.975038 190.305391 
L 314.293952 213.971478 
L 314.612867 211.341913 
L 315.250695 195.564522 
L 315.569609 195.564522 
L 315.888523 203.453217 
L 316.207437 216.601043 
L 316.526351 224.489739 
L 316.845265 227.119304 
L 317.164179 219.230609 
L 317.802008 229.74887 
L 318.120922 240.26713 
L 318.439836 240.26713 
L 318.75875 235.008 
L 319.077664 232.378435 
L 319.396578 240.26713 
L 319.715492 224.489739 
L 320.034406 229.74887 
L 320.35332 232.378435 
L 320.672234 224.489739 
L 320.991148 229.74887 
L 321.310063 227.119304 
L 321.628977 229.74887 
L 321.947891 211.341913 
L 322.266805 211.341913 
L 322.585719 208.712348 
L 322.904633 211.341913 
L 323.223547 206.082783 
L 323.542461 187.675826 
L 323.861375 195.564522 
L 324.180289 221.860174 
L 324.499203 213.971478 
L 324.818118 211.341913 
L 325.137032 213.971478 
L 326.093774 145.602783 
L 326.412688 153.491478 
L 326.731602 156.121043 
L 327.050516 156.121043 
L 327.36943 135.084522 
L 328.007258 153.491478 
L 328.326173 174.528 
L 328.645087 164.009739 
L 328.964001 164.009739 
L 329.282915 166.639304 
L 329.601829 182.416696 
L 329.920743 171.898435 
L 330.239657 148.232348 
L 330.558571 142.973217 
L 330.877485 142.973217 
L 331.196399 169.26887 
L 331.515313 177.157565 
L 331.834228 171.898435 
L 332.153142 169.26887 
L 332.79097 140.343652 
L 333.109884 166.639304 
L 333.428798 164.009739 
L 334.38554 200.823652 
L 334.704454 198.194087 
L 335.023368 211.341913 
L 335.342283 211.341913 
L 335.661197 221.860174 
L 336.299025 216.601043 
L 336.617939 203.453217 
L 336.936853 213.971478 
L 337.255767 208.712348 
L 337.574681 224.489739 
L 337.893595 227.119304 
L 338.212509 203.453217 
L 338.531423 192.934957 
L 338.850338 198.194087 
L 339.169252 198.194087 
L 339.488166 182.416696 
L 339.80708 192.934957 
L 340.125994 185.046261 
L 340.444908 187.675826 
L 341.40165 161.380174 
L 341.720564 166.639304 
L 342.039478 161.380174 
L 342.358393 161.380174 
L 342.677307 187.675826 
L 342.996221 171.898435 
L 343.315135 185.046261 
L 343.634049 166.639304 
L 343.952963 164.009739 
L 344.271877 164.009739 
L 344.909705 142.973217 
L 345.228619 171.898435 
L 345.866448 177.157565 
L 346.185362 166.639304 
L 346.504276 164.009739 
L 346.82319 177.157565 
L 347.142104 174.528 
L 347.461018 187.675826 
L 347.779932 195.564522 
L 348.098846 182.416696 
L 348.41776 187.675826 
L 348.736674 140.343652 
L 349.055588 137.714087 
L 349.374503 129.825391 
L 349.693417 114.048 
L 350.012331 140.343652 
L 350.331245 150.861913 
L 350.650159 142.973217 
L 350.969073 140.343652 
L 351.287987 148.232348 
L 351.606901 161.380174 
L 351.925815 169.26887 
L 352.244729 185.046261 
L 352.563644 182.416696 
L 352.882558 164.009739 
L 353.520386 164.009739 
L 353.8393 156.121043 
L 354.158214 153.491478 
L 354.477128 171.898435 
L 354.796042 142.973217 
L 355.114956 150.861913 
L 355.43387 145.602783 
L 355.752784 145.602783 
L 356.071699 156.121043 
L 356.390613 161.380174 
L 356.709527 161.380174 
L 357.028441 153.491478 
L 357.347355 121.936696 
L 357.666269 127.195826 
L 357.985183 93.011478 
L 358.304097 95.641043 
L 358.623011 111.418435 
L 358.941925 103.529739 
L 359.260839 77.234087 
L 359.579754 82.493217 
L 359.898668 69.345391 
L 360.217582 64.086261 
L 360.85541 64.086261 
L 361.174324 79.863652 
L 361.493238 82.493217 
L 361.812152 77.234087 
L 362.131066 79.863652 
L 362.44998 74.604522 
L 363.406723 53.568 
L 364.044551 132.454957 
L 364.363465 153.491478 
L 364.682379 150.861913 
L 365.001293 145.602783 
L 365.320207 153.491478 
L 365.958035 153.491478 
L 366.276949 135.084522 
L 366.595864 156.121043 
L 366.914778 158.750609 
L 367.233692 158.750609 
L 367.552606 140.343652 
L 367.87152 132.454957 
L 368.190434 132.454957 
L 368.509348 190.305391 
L 368.828262 190.305391 
L 369.147176 203.453217 
L 369.46609 208.712348 
L 369.785004 185.046261 
L 370.103919 185.046261 
L 370.422833 179.78713 
L 370.741747 195.564522 
L 371.060661 192.934957 
L 371.379575 177.157565 
L 372.017403 177.157565 
L 372.336317 171.898435 
L 372.655231 177.157565 
L 372.974145 174.528 
L 373.293059 145.602783 
L 373.611974 140.343652 
L 373.930888 129.825391 
L 374.249802 95.641043 
L 374.568716 100.900174 
L 374.88763 116.677565 
L 375.206544 114.048 
L 375.525458 129.825391 
L 376.163286 119.30713 
L 376.801114 106.159304 
L 377.120029 124.566261 
L 377.438943 119.30713 
L 377.757857 135.084522 
L 378.076771 135.084522 
L 378.395685 129.825391 
L 378.714599 114.048 
L 379.033513 108.78887 
L 379.352427 108.78887 
L 379.671341 111.418435 
L 379.990255 132.454957 
L 380.309169 171.898435 
L 380.628084 177.157565 
L 380.946998 179.78713 
L 381.265912 198.194087 
L 381.90374 208.712348 
L 382.222654 200.823652 
L 382.541568 216.601043 
L 382.860482 219.230609 
L 383.179396 216.601043 
L 383.49831 232.378435 
L 383.817225 240.26713 
L 384.136139 261.303652 
L 384.455053 263.933217 
L 384.773967 269.192348 
L 385.092881 269.192348 
L 385.411795 256.044522 
L 385.730709 248.155826 
L 386.049623 248.155826 
L 386.368537 256.044522 
L 386.687451 237.637565 
L 387.006365 232.378435 
L 387.32528 237.637565 
L 387.644194 240.26713 
L 387.963108 240.26713 
L 388.282022 245.526261 
L 388.600936 232.378435 
L 388.91985 240.26713 
L 389.238764 229.74887 
L 389.557678 232.378435 
L 389.876592 208.712348 
L 390.195506 200.823652 
L 390.51442 203.453217 
L 390.833335 182.416696 
L 391.152249 179.78713 
L 391.471163 185.046261 
L 391.790077 213.971478 
L 392.108991 200.823652 
L 392.427905 206.082783 
L 392.746819 208.712348 
L 393.065733 203.453217 
L 393.384647 200.823652 
L 393.703561 216.601043 
L 394.022475 221.860174 
L 394.34139 219.230609 
L 394.660304 219.230609 
L 394.979218 211.341913 
L 395.298132 216.601043 
L 395.617046 219.230609 
L 395.93596 198.194087 
L 396.254874 200.823652 
L 396.573788 192.934957 
L 396.892702 161.380174 
L 397.211616 161.380174 
L 397.53053 169.26887 
L 397.849445 156.121043 
L 398.168359 166.639304 
L 398.487273 164.009739 
L 398.487273 164.009739 
" clip-path="url(#pf7a0b0f766)" style="fill: none; stroke: #1f77b4; stroke-width: 1.5; stroke-linecap: square"/>
   </g>
   <g id="patch_3">
    <path d="M 57.6 307.584 
L 57.6 41.472 
" style="fill: none; stroke: #000000; stroke-width: 0.8; stroke-linejoin: miter; stroke-linecap: square"/>
   </g>
   <g id="patch_4">
    <path d="M 414.72 307.584 
L 414.72 41.472 
" style="fill: none; stroke: #000000; stroke-width: 0.8; stroke-linejoin: miter; stroke-linecap: square"/>
   </g>
   <g id="patch_5">
    <path d="M 57.6 307.584 
L 414.72 307.584 
" style="fill: none; stroke: #000000; stroke-width: 0.8; stroke-linejoin: miter; stroke-linecap: square"/>
   </g>
   <g id="patch_6">
    <path d="M 57.6 41.472 
L 414.72 41.472 
" style="fill: none; stroke: #000000; stroke-width: 0.8; stroke-linejoin: miter; stroke-linecap: square"/>
   </g>
   <g id="text_17">
    <!-- Simulated Anealling Cost -->
    <g transform="translate(160.8 35.472)scale(0.12 -0.12)">
     <defs>
      <path id="DejaVuSans-53" d="M 3425 4513 
L 3425 3897 
Q 3066 4069 2747 4153 
Q 2428 4238 2131 4238 
Q 1616 4238 1336 4038 
Q 1056 3838 1056 3469 
Q 1056 3159 1242 3001 
Q 1428 2844 1947 2747 
L 2328 2669 
Q 3034 2534 3370 2195 
Q 3706 1856 3706 1288 
Q 3706 609 3251 259 
Q 2797 -91 1919 -91 
Q 1588 -91 1214 -16 
Q 841 59 441 206 
L 441 856 
Q 825 641 1194 531 
Q 1563 422 1919 422 
Q 2459 422 2753 634 
Q 3047 847 3047 1241 
Q 3047 1584 2836 1778 
Q 2625 1972 2144 2069 
L 1759 2144 
Q 1053 2284 737 2584 
Q 422 2884 422 3419 
Q 422 4038 858 4394 
Q 1294 4750 2059 4750 
Q 2388 4750 2728 4690 
Q 3069 4631 3425 4513 
z
" transform="scale(0.015625)"/>
      <path id="DejaVuSans-69" d="M 603 3500 
L 1178 3500 
L 1178 0 
L 603 0 
L 603 3500 
z
M 603 4863 
L 1178 4863 
L 1178 4134 
L 603 4134 
L 603 4863 
z
" transform="scale(0.015625)"/>
      <path id="DejaVuSans-65" d="M 3597 1894 
L 3597 1613 
L 953 1613 
Q 991 1019 1311 708 
Q 1631 397 2203 397 
Q 2534 397 2845 478 
Q 3156 559 3463 722 
L 3463 178 
Q 3153 47 2828 -22 
Q 2503 -91 2169 -91 
Q 1331 -91 842 396 
Q 353 884 353 1716 
Q 353 2575 817 3079 
Q 1281 3584 2069 3584 
Q 2775 3584 3186 3129 
Q 3597 2675 3597 1894 
z
M 3022 2063 
Q 3016 2534 2758 2815 
Q 2500 3097 2075 3097 
Q 1594 3097 1305 2825 
Q 1016 2553 972 2059 
L 3022 2063 
z
" transform="scale(0.015625)"/>
      <path id="DejaVuSans-64" d="M 2906 2969 
L 2906 4863 
L 3481 4863 
L 3481 0 
L 2906 0 
L 2906 525 
Q 2725 213 2448 61 
Q 2172 -91 1784 -91 
Q 1150 -91 751 415 
Q 353 922 353 1747 
Q 353 2572 751 3078 
Q 1150 3584 1784 3584 
Q 2172 3584 2448 3432 
Q 2725 3281 2906 2969 
z
M 947 1747 
Q 947 1113 1208 752 
Q 1469 391 1925 391 
Q 2381 391 2643 752 
Q 2906 1113 2906 1747 
Q 2906 2381 2643 2742 
Q 2381 3103 1925 3103 
Q 1469 3103 1208 2742 
Q 947 2381 947 1747 
z
" transform="scale(0.015625)"/>
      <path id="DejaVuSans-41" d="M 2188 4044 
L 1331 1722 
L 3047 1722 
L 2188 4044 
z
M 1831 4666 
L 2547 4666 
L 4325 0 
L 3669 0 
L 3244 1197 
L 1141 1197 
L 716 0 
L 50 0 
L 1831 4666 
z
" transform="scale(0.015625)"/>
      <path id="DejaVuSans-67" d="M 2906 1791 
Q 2906 2416 2648 2759 
Q 2391 3103 1925 3103 
Q 1463 3103 1205 2759 
Q 947 2416 947 1791 
Q 947 1169 1205 825 
Q 1463 481 1925 481 
Q 2391 481 2648 825 
Q 2906 1169 2906 1791 
z
M 3481 434 
Q 3481 -459 3084 -895 
Q 2688 -1331 1869 -1331 
Q 1566 -1331 1297 -1286 
Q 1028 -1241 775 -1147 
L 775 -588 
Q 1028 -725 1275 -790 
Q 1522 -856 1778 -856 
Q 2344 -856 2625 -561 
Q 2906 -266 2906 331 
L 2906 616 
Q 2728 306 2450 153 
Q 2172 0 1784 0 
Q 1141 0 747 490 
Q 353 981 353 1791 
Q 353 2603 747 3093 
Q 1141 3584 1784 3584 
Q 2172 3584 2450 3431 
Q 2728 3278 2906 2969 
L 2906 3500 
L 3481 3500 
L 3481 434 
z
" transform="scale(0.015625)"/>
      <path id="DejaVuSans-43" d="M 4122 4306 
L 4122 3641 
Q 3803 3938 3442 4084 
Q 3081 4231 2675 4231 
Q 1875 4231 1450 3742 
Q 1025 3253 1025 2328 
Q 1025 1406 1450 917 
Q 1875 428 2675 428 
Q 3081 428 3442 575 
Q 3803 722 4122 1019 
L 4122 359 
Q 3791 134 3420 21 
Q 3050 -91 2638 -91 
Q 1578 -91 968 557 
Q 359 1206 359 2328 
Q 359 3453 968 4101 
Q 1578 4750 2638 4750 
Q 3056 4750 3426 4639 
Q 3797 4528 4122 4306 
z
" transform="scale(0.015625)"/>
     </defs>
     <use xlink:href="#DejaVuSans-53"/>
     <use xlink:href="#DejaVuSans-69" x="63.476562"/>
     <use xlink:href="#DejaVuSans-6d" x="91.259766"/>
     <use xlink:href="#DejaVuSans-75" x="188.671875"/>
     <use xlink:href="#DejaVuSans-6c" x="252.050781"/>
     <use xlink:href="#DejaVuSans-61" x="279.833984"/>
     <use xlink:href="#DejaVuSans-74" x="341.113281"/>
     <use xlink:href="#DejaVuSans-65" x="380.322266"/>
     <use xlink:href="#DejaVuSans-64" x="441.845703"/>
     <use xlink:href="#DejaVuSans-20" x="505.322266"/>
     <use xlink:href="#DejaVuSans-41" x="537.109375"/>
     <use xlink:href="#DejaVuSans-6e" x="605.517578"/>
     <use xlink:href="#DejaVuSans-65" x="668.896484"/>
     <use xlink:href="#DejaVuSans-61" x="730.419922"/>
     <use xlink:href="#DejaVuSans-6c" x="791.699219"/>
     <use xlink:href="#DejaVuSans-6c" x="819.482422"/>
     <use xlink:href="#DejaVuSans-69" x="847.265625"/>
     <use xlink:href="#DejaVuSans-6e" x="875.048828"/>
     <use xlink:href="#DejaVuSans-67" x="938.427734"/>
     <use xlink:href="#DejaVuSans-20" x="1001.904297"/>
     <use xlink:href="#DejaVuSans-43" x="1033.691406"/>
     <use xlink:href="#DejaVuSans-6f" x="1103.515625"/>
     <use xlink:href="#DejaVuSans-73" x="1164.697266"/>
     <use xlink:href="#DejaVuSans-74" x="1216.796875"/>
    </g>
   </g>
  </g>
 </g>
 <defs>
  <clipPath id="pf7a0b0f766">
   <rect x="57.6" y="41.472" width="357.12" height="266.112"/>
  </clipPath>
 </defs>
</svg>
