<?xml version="1.0" encoding="utf-8" standalone="no"?>
<!DOCTYPE svg PUBLIC "-//W3C//DTD SVG 1.1//EN"
  "http://www.w3.org/Graphics/SVG/1.1/DTD/svg11.dtd">
<svg xmlns:xlink="http://www.w3.org/1999/xlink" width="460.8pt" height="345.6pt" viewBox="0 0 460.8 345.6" xmlns="http://www.w3.org/2000/svg" version="1.1">
 <metadata>
  <rdf:RDF xmlns:dc="http://purl.org/dc/elements/1.1/" xmlns:cc="http://creativecommons.org/ns#" xmlns:rdf="http://www.w3.org/1999/02/22-rdf-syntax-ns#">
   <cc:Work>
    <dc:type rdf:resource="http://purl.org/dc/dcmitype/StillImage"/>
    <dc:date>2022-06-01T08:08:19.315486</dc:date>
    <dc:format>image/svg+xml</dc:format>
    <dc:creator>
     <cc:Agent>
      <dc:title>Matplotlib v3.5.1, https://matplotlib.org/</dc:title>
     </cc:Agent>
    </dc:creator>
   </cc:Work>
  </rdf:RDF>
 </metadata>
 <defs>
  <style type="text/css">*{stroke-linejoin: round; stroke-linecap: butt}</style>
 </defs>
 <g id="figure_1">
  <g id="patch_1">
   <path d="M 0 345.6 
L 460.8 345.6 
L 460.8 0 
L 0 0 
z
" style="fill: #ffffff"/>
  </g>
  <g id="axes_1">
   <g id="patch_2">
    <path d="M 57.6 307.584 
L 414.72 307.584 
L 414.72 41.472 
L 57.6 41.472 
z
" style="fill: #ffffff"/>
   </g>
   <g id="matplotlib.axis_1">
    <g id="xtick_1">
     <g id="line2d_1">
      <defs>
       <path id="m40cf316338" d="M 0 0 
L 0 3.5 
" style="stroke: #000000; stroke-width: 0.8"/>
      </defs>
      <g>
       <use xlink:href="#m40cf316338" x="73.832727" y="307.584" style="stroke: #000000; stroke-width: 0.8"/>
      </g>
     </g>
     <g id="text_1">
      <!-- 0 -->
      <g transform="translate(70.651477 322.182437)scale(0.1 -0.1)">
       <defs>
        <path id="DejaVuSans-30" d="M 2034 4250 
Q 1547 4250 1301 3770 
Q 1056 3291 1056 2328 
Q 1056 1369 1301 889 
Q 1547 409 2034 409 
Q 2525 409 2770 889 
Q 3016 1369 3016 2328 
Q 3016 3291 2770 3770 
Q 2525 4250 2034 4250 
z
M 2034 4750 
Q 2819 4750 3233 4129 
Q 3647 3509 3647 2328 
Q 3647 1150 3233 529 
Q 2819 -91 2034 -91 
Q 1250 -91 836 529 
Q 422 1150 422 2328 
Q 422 3509 836 4129 
Q 1250 4750 2034 4750 
z
" transform="scale(0.015625)"/>
       </defs>
       <use xlink:href="#DejaVuSans-30"/>
      </g>
     </g>
    </g>
    <g id="xtick_2">
     <g id="line2d_2">
      <g>
       <use xlink:href="#m40cf316338" x="117.235741" y="307.584" style="stroke: #000000; stroke-width: 0.8"/>
      </g>
     </g>
     <g id="text_2">
      <!-- 250 -->
      <g transform="translate(107.691991 322.182437)scale(0.1 -0.1)">
       <defs>
        <path id="DejaVuSans-32" d="M 1228 531 
L 3431 531 
L 3431 0 
L 469 0 
L 469 531 
Q 828 903 1448 1529 
Q 2069 2156 2228 2338 
Q 2531 2678 2651 2914 
Q 2772 3150 2772 3378 
Q 2772 3750 2511 3984 
Q 2250 4219 1831 4219 
Q 1534 4219 1204 4116 
Q 875 4013 500 3803 
L 500 4441 
Q 881 4594 1212 4672 
Q 1544 4750 1819 4750 
Q 2544 4750 2975 4387 
Q 3406 4025 3406 3419 
Q 3406 3131 3298 2873 
Q 3191 2616 2906 2266 
Q 2828 2175 2409 1742 
Q 1991 1309 1228 531 
z
" transform="scale(0.015625)"/>
        <path id="DejaVuSans-35" d="M 691 4666 
L 3169 4666 
L 3169 4134 
L 1269 4134 
L 1269 2991 
Q 1406 3038 1543 3061 
Q 1681 3084 1819 3084 
Q 2600 3084 3056 2656 
Q 3513 2228 3513 1497 
Q 3513 744 3044 326 
Q 2575 -91 1722 -91 
Q 1428 -91 1123 -41 
Q 819 9 494 109 
L 494 744 
Q 775 591 1075 516 
Q 1375 441 1709 441 
Q 2250 441 2565 725 
Q 2881 1009 2881 1497 
Q 2881 1984 2565 2268 
Q 2250 2553 1709 2553 
Q 1456 2553 1204 2497 
Q 953 2441 691 2322 
L 691 4666 
z
" transform="scale(0.015625)"/>
       </defs>
       <use xlink:href="#DejaVuSans-32"/>
       <use xlink:href="#DejaVuSans-35" x="63.623047"/>
       <use xlink:href="#DejaVuSans-30" x="127.246094"/>
      </g>
     </g>
    </g>
    <g id="xtick_3">
     <g id="line2d_3">
      <g>
       <use xlink:href="#m40cf316338" x="160.638755" y="307.584" style="stroke: #000000; stroke-width: 0.8"/>
      </g>
     </g>
     <g id="text_3">
      <!-- 500 -->
      <g transform="translate(151.095005 322.182437)scale(0.1 -0.1)">
       <use xlink:href="#DejaVuSans-35"/>
       <use xlink:href="#DejaVuSans-30" x="63.623047"/>
       <use xlink:href="#DejaVuSans-30" x="127.246094"/>
      </g>
     </g>
    </g>
    <g id="xtick_4">
     <g id="line2d_4">
      <g>
       <use xlink:href="#m40cf316338" x="204.04177" y="307.584" style="stroke: #000000; stroke-width: 0.8"/>
      </g>
     </g>
     <g id="text_4">
      <!-- 750 -->
      <g transform="translate(194.49802 322.182437)scale(0.1 -0.1)">
       <defs>
        <path id="DejaVuSans-37" d="M 525 4666 
L 3525 4666 
L 3525 4397 
L 1831 0 
L 1172 0 
L 2766 4134 
L 525 4134 
L 525 4666 
z
" transform="scale(0.015625)"/>
       </defs>
       <use xlink:href="#DejaVuSans-37"/>
       <use xlink:href="#DejaVuSans-35" x="63.623047"/>
       <use xlink:href="#DejaVuSans-30" x="127.246094"/>
      </g>
     </g>
    </g>
    <g id="xtick_5">
     <g id="line2d_5">
      <g>
       <use xlink:href="#m40cf316338" x="247.444784" y="307.584" style="stroke: #000000; stroke-width: 0.8"/>
      </g>
     </g>
     <g id="text_5">
      <!-- 1000 -->
      <g transform="translate(234.719784 322.182437)scale(0.1 -0.1)">
       <defs>
        <path id="DejaVuSans-31" d="M 794 531 
L 1825 531 
L 1825 4091 
L 703 3866 
L 703 4441 
L 1819 4666 
L 2450 4666 
L 2450 531 
L 3481 531 
L 3481 0 
L 794 0 
L 794 531 
z
" transform="scale(0.015625)"/>
       </defs>
       <use xlink:href="#DejaVuSans-31"/>
       <use xlink:href="#DejaVuSans-30" x="63.623047"/>
       <use xlink:href="#DejaVuSans-30" x="127.246094"/>
       <use xlink:href="#DejaVuSans-30" x="190.869141"/>
      </g>
     </g>
    </g>
    <g id="xtick_6">
     <g id="line2d_6">
      <g>
       <use xlink:href="#m40cf316338" x="290.847798" y="307.584" style="stroke: #000000; stroke-width: 0.8"/>
      </g>
     </g>
     <g id="text_6">
      <!-- 1250 -->
      <g transform="translate(278.122798 322.182437)scale(0.1 -0.1)">
       <use xlink:href="#DejaVuSans-31"/>
       <use xlink:href="#DejaVuSans-32" x="63.623047"/>
       <use xlink:href="#DejaVuSans-35" x="127.246094"/>
       <use xlink:href="#DejaVuSans-30" x="190.869141"/>
      </g>
     </g>
    </g>
    <g id="xtick_7">
     <g id="line2d_7">
      <g>
       <use xlink:href="#m40cf316338" x="334.250812" y="307.584" style="stroke: #000000; stroke-width: 0.8"/>
      </g>
     </g>
     <g id="text_7">
      <!-- 1500 -->
      <g transform="translate(321.525812 322.182437)scale(0.1 -0.1)">
       <use xlink:href="#DejaVuSans-31"/>
       <use xlink:href="#DejaVuSans-35" x="63.623047"/>
       <use xlink:href="#DejaVuSans-30" x="127.246094"/>
       <use xlink:href="#DejaVuSans-30" x="190.869141"/>
      </g>
     </g>
    </g>
    <g id="xtick_8">
     <g id="line2d_8">
      <g>
       <use xlink:href="#m40cf316338" x="377.653826" y="307.584" style="stroke: #000000; stroke-width: 0.8"/>
      </g>
     </g>
     <g id="text_8">
      <!-- 1750 -->
      <g transform="translate(364.928826 322.182437)scale(0.1 -0.1)">
       <use xlink:href="#DejaVuSans-31"/>
       <use xlink:href="#DejaVuSans-37" x="63.623047"/>
       <use xlink:href="#DejaVuSans-35" x="127.246094"/>
       <use xlink:href="#DejaVuSans-30" x="190.869141"/>
      </g>
     </g>
    </g>
    <g id="text_9">
     <!-- num swaps -->
     <g transform="translate(207.826406 335.860562)scale(0.1 -0.1)">
      <defs>
       <path id="DejaVuSans-6e" d="M 3513 2113 
L 3513 0 
L 2938 0 
L 2938 2094 
Q 2938 2591 2744 2837 
Q 2550 3084 2163 3084 
Q 1697 3084 1428 2787 
Q 1159 2491 1159 1978 
L 1159 0 
L 581 0 
L 581 3500 
L 1159 3500 
L 1159 2956 
Q 1366 3272 1645 3428 
Q 1925 3584 2291 3584 
Q 2894 3584 3203 3211 
Q 3513 2838 3513 2113 
z
" transform="scale(0.015625)"/>
       <path id="DejaVuSans-75" d="M 544 1381 
L 544 3500 
L 1119 3500 
L 1119 1403 
Q 1119 906 1312 657 
Q 1506 409 1894 409 
Q 2359 409 2629 706 
Q 2900 1003 2900 1516 
L 2900 3500 
L 3475 3500 
L 3475 0 
L 2900 0 
L 2900 538 
Q 2691 219 2414 64 
Q 2138 -91 1772 -91 
Q 1169 -91 856 284 
Q 544 659 544 1381 
z
M 1991 3584 
L 1991 3584 
z
" transform="scale(0.015625)"/>
       <path id="DejaVuSans-6d" d="M 3328 2828 
Q 3544 3216 3844 3400 
Q 4144 3584 4550 3584 
Q 5097 3584 5394 3201 
Q 5691 2819 5691 2113 
L 5691 0 
L 5113 0 
L 5113 2094 
Q 5113 2597 4934 2840 
Q 4756 3084 4391 3084 
Q 3944 3084 3684 2787 
Q 3425 2491 3425 1978 
L 3425 0 
L 2847 0 
L 2847 2094 
Q 2847 2600 2669 2842 
Q 2491 3084 2119 3084 
Q 1678 3084 1418 2786 
Q 1159 2488 1159 1978 
L 1159 0 
L 581 0 
L 581 3500 
L 1159 3500 
L 1159 2956 
Q 1356 3278 1631 3431 
Q 1906 3584 2284 3584 
Q 2666 3584 2933 3390 
Q 3200 3197 3328 2828 
z
" transform="scale(0.015625)"/>
       <path id="DejaVuSans-20" transform="scale(0.015625)"/>
       <path id="DejaVuSans-73" d="M 2834 3397 
L 2834 2853 
Q 2591 2978 2328 3040 
Q 2066 3103 1784 3103 
Q 1356 3103 1142 2972 
Q 928 2841 928 2578 
Q 928 2378 1081 2264 
Q 1234 2150 1697 2047 
L 1894 2003 
Q 2506 1872 2764 1633 
Q 3022 1394 3022 966 
Q 3022 478 2636 193 
Q 2250 -91 1575 -91 
Q 1294 -91 989 -36 
Q 684 19 347 128 
L 347 722 
Q 666 556 975 473 
Q 1284 391 1588 391 
Q 1994 391 2212 530 
Q 2431 669 2431 922 
Q 2431 1156 2273 1281 
Q 2116 1406 1581 1522 
L 1381 1569 
Q 847 1681 609 1914 
Q 372 2147 372 2553 
Q 372 3047 722 3315 
Q 1072 3584 1716 3584 
Q 2034 3584 2315 3537 
Q 2597 3491 2834 3397 
z
" transform="scale(0.015625)"/>
       <path id="DejaVuSans-77" d="M 269 3500 
L 844 3500 
L 1563 769 
L 2278 3500 
L 2956 3500 
L 3675 769 
L 4391 3500 
L 4966 3500 
L 4050 0 
L 3372 0 
L 2619 2869 
L 1863 0 
L 1184 0 
L 269 3500 
z
" transform="scale(0.015625)"/>
       <path id="DejaVuSans-61" d="M 2194 1759 
Q 1497 1759 1228 1600 
Q 959 1441 959 1056 
Q 959 750 1161 570 
Q 1363 391 1709 391 
Q 2188 391 2477 730 
Q 2766 1069 2766 1631 
L 2766 1759 
L 2194 1759 
z
M 3341 1997 
L 3341 0 
L 2766 0 
L 2766 531 
Q 2569 213 2275 61 
Q 1981 -91 1556 -91 
Q 1019 -91 701 211 
Q 384 513 384 1019 
Q 384 1609 779 1909 
Q 1175 2209 1959 2209 
L 2766 2209 
L 2766 2266 
Q 2766 2663 2505 2880 
Q 2244 3097 1772 3097 
Q 1472 3097 1187 3025 
Q 903 2953 641 2809 
L 641 3341 
Q 956 3463 1253 3523 
Q 1550 3584 1831 3584 
Q 2591 3584 2966 3190 
Q 3341 2797 3341 1997 
z
" transform="scale(0.015625)"/>
       <path id="DejaVuSans-70" d="M 1159 525 
L 1159 -1331 
L 581 -1331 
L 581 3500 
L 1159 3500 
L 1159 2969 
Q 1341 3281 1617 3432 
Q 1894 3584 2278 3584 
Q 2916 3584 3314 3078 
Q 3713 2572 3713 1747 
Q 3713 922 3314 415 
Q 2916 -91 2278 -91 
Q 1894 -91 1617 61 
Q 1341 213 1159 525 
z
M 3116 1747 
Q 3116 2381 2855 2742 
Q 2594 3103 2138 3103 
Q 1681 3103 1420 2742 
Q 1159 2381 1159 1747 
Q 1159 1113 1420 752 
Q 1681 391 2138 391 
Q 2594 391 2855 752 
Q 3116 1113 3116 1747 
z
" transform="scale(0.015625)"/>
      </defs>
      <use xlink:href="#DejaVuSans-6e"/>
      <use xlink:href="#DejaVuSans-75" x="63.378906"/>
      <use xlink:href="#DejaVuSans-6d" x="126.757812"/>
      <use xlink:href="#DejaVuSans-20" x="224.169922"/>
      <use xlink:href="#DejaVuSans-73" x="255.957031"/>
      <use xlink:href="#DejaVuSans-77" x="308.056641"/>
      <use xlink:href="#DejaVuSans-61" x="389.84375"/>
      <use xlink:href="#DejaVuSans-70" x="451.123047"/>
      <use xlink:href="#DejaVuSans-73" x="514.599609"/>
     </g>
    </g>
   </g>
   <g id="matplotlib.axis_2">
    <g id="ytick_1">
     <g id="line2d_9">
      <defs>
       <path id="medb5513f5c" d="M 0 0 
L -3.5 0 
" style="stroke: #000000; stroke-width: 0.8"/>
      </defs>
      <g>
       <use xlink:href="#medb5513f5c" x="57.6" y="279.940442" style="stroke: #000000; stroke-width: 0.8"/>
      </g>
     </g>
     <g id="text_10">
      <!-- 900 -->
      <g transform="translate(31.5125 283.739661)scale(0.1 -0.1)">
       <defs>
        <path id="DejaVuSans-39" d="M 703 97 
L 703 672 
Q 941 559 1184 500 
Q 1428 441 1663 441 
Q 2288 441 2617 861 
Q 2947 1281 2994 2138 
Q 2813 1869 2534 1725 
Q 2256 1581 1919 1581 
Q 1219 1581 811 2004 
Q 403 2428 403 3163 
Q 403 3881 828 4315 
Q 1253 4750 1959 4750 
Q 2769 4750 3195 4129 
Q 3622 3509 3622 2328 
Q 3622 1225 3098 567 
Q 2575 -91 1691 -91 
Q 1453 -91 1209 -44 
Q 966 3 703 97 
z
M 1959 2075 
Q 2384 2075 2632 2365 
Q 2881 2656 2881 3163 
Q 2881 3666 2632 3958 
Q 2384 4250 1959 4250 
Q 1534 4250 1286 3958 
Q 1038 3666 1038 3163 
Q 1038 2656 1286 2365 
Q 1534 2075 1959 2075 
z
" transform="scale(0.015625)"/>
       </defs>
       <use xlink:href="#DejaVuSans-39"/>
       <use xlink:href="#DejaVuSans-30" x="63.623047"/>
       <use xlink:href="#DejaVuSans-30" x="127.246094"/>
      </g>
     </g>
    </g>
    <g id="ytick_2">
     <g id="line2d_10">
      <g>
       <use xlink:href="#medb5513f5c" x="57.6" y="248.845326" style="stroke: #000000; stroke-width: 0.8"/>
      </g>
     </g>
     <g id="text_11">
      <!-- 950 -->
      <g transform="translate(31.5125 252.644545)scale(0.1 -0.1)">
       <use xlink:href="#DejaVuSans-39"/>
       <use xlink:href="#DejaVuSans-35" x="63.623047"/>
       <use xlink:href="#DejaVuSans-30" x="127.246094"/>
      </g>
     </g>
    </g>
    <g id="ytick_3">
     <g id="line2d_11">
      <g>
       <use xlink:href="#medb5513f5c" x="57.6" y="217.750211" style="stroke: #000000; stroke-width: 0.8"/>
      </g>
     </g>
     <g id="text_12">
      <!-- 1000 -->
      <g transform="translate(25.15 221.54943)scale(0.1 -0.1)">
       <use xlink:href="#DejaVuSans-31"/>
       <use xlink:href="#DejaVuSans-30" x="63.623047"/>
       <use xlink:href="#DejaVuSans-30" x="127.246094"/>
       <use xlink:href="#DejaVuSans-30" x="190.869141"/>
      </g>
     </g>
    </g>
    <g id="ytick_4">
     <g id="line2d_12">
      <g>
       <use xlink:href="#medb5513f5c" x="57.6" y="186.655095" style="stroke: #000000; stroke-width: 0.8"/>
      </g>
     </g>
     <g id="text_13">
      <!-- 1050 -->
      <g transform="translate(25.15 190.454314)scale(0.1 -0.1)">
       <use xlink:href="#DejaVuSans-31"/>
       <use xlink:href="#DejaVuSans-30" x="63.623047"/>
       <use xlink:href="#DejaVuSans-35" x="127.246094"/>
       <use xlink:href="#DejaVuSans-30" x="190.869141"/>
      </g>
     </g>
    </g>
    <g id="ytick_5">
     <g id="line2d_13">
      <g>
       <use xlink:href="#medb5513f5c" x="57.6" y="155.559979" style="stroke: #000000; stroke-width: 0.8"/>
      </g>
     </g>
     <g id="text_14">
      <!-- 1100 -->
      <g transform="translate(25.15 159.359198)scale(0.1 -0.1)">
       <use xlink:href="#DejaVuSans-31"/>
       <use xlink:href="#DejaVuSans-31" x="63.623047"/>
       <use xlink:href="#DejaVuSans-30" x="127.246094"/>
       <use xlink:href="#DejaVuSans-30" x="190.869141"/>
      </g>
     </g>
    </g>
    <g id="ytick_6">
     <g id="line2d_14">
      <g>
       <use xlink:href="#medb5513f5c" x="57.6" y="124.464864" style="stroke: #000000; stroke-width: 0.8"/>
      </g>
     </g>
     <g id="text_15">
      <!-- 1150 -->
      <g transform="translate(25.15 128.264083)scale(0.1 -0.1)">
       <use xlink:href="#DejaVuSans-31"/>
       <use xlink:href="#DejaVuSans-31" x="63.623047"/>
       <use xlink:href="#DejaVuSans-35" x="127.246094"/>
       <use xlink:href="#DejaVuSans-30" x="190.869141"/>
      </g>
     </g>
    </g>
    <g id="ytick_7">
     <g id="line2d_15">
      <g>
       <use xlink:href="#medb5513f5c" x="57.6" y="93.369748" style="stroke: #000000; stroke-width: 0.8"/>
      </g>
     </g>
     <g id="text_16">
      <!-- 1200 -->
      <g transform="translate(25.15 97.168967)scale(0.1 -0.1)">
       <use xlink:href="#DejaVuSans-31"/>
       <use xlink:href="#DejaVuSans-32" x="63.623047"/>
       <use xlink:href="#DejaVuSans-30" x="127.246094"/>
       <use xlink:href="#DejaVuSans-30" x="190.869141"/>
      </g>
     </g>
    </g>
    <g id="ytick_8">
     <g id="line2d_16">
      <g>
       <use xlink:href="#medb5513f5c" x="57.6" y="62.274632" style="stroke: #000000; stroke-width: 0.8"/>
      </g>
     </g>
     <g id="text_17">
      <!-- 1250 -->
      <g transform="translate(25.15 66.073851)scale(0.1 -0.1)">
       <use xlink:href="#DejaVuSans-31"/>
       <use xlink:href="#DejaVuSans-32" x="63.623047"/>
       <use xlink:href="#DejaVuSans-35" x="127.246094"/>
       <use xlink:href="#DejaVuSans-30" x="190.869141"/>
      </g>
     </g>
    </g>
    <g id="text_18">
     <!-- total cost -->
     <g transform="translate(19.070312 197.923313)rotate(-90)scale(0.1 -0.1)">
      <defs>
       <path id="DejaVuSans-74" d="M 1172 4494 
L 1172 3500 
L 2356 3500 
L 2356 3053 
L 1172 3053 
L 1172 1153 
Q 1172 725 1289 603 
Q 1406 481 1766 481 
L 2356 481 
L 2356 0 
L 1766 0 
Q 1100 0 847 248 
Q 594 497 594 1153 
L 594 3053 
L 172 3053 
L 172 3500 
L 594 3500 
L 594 4494 
L 1172 4494 
z
" transform="scale(0.015625)"/>
       <path id="DejaVuSans-6f" d="M 1959 3097 
Q 1497 3097 1228 2736 
Q 959 2375 959 1747 
Q 959 1119 1226 758 
Q 1494 397 1959 397 
Q 2419 397 2687 759 
Q 2956 1122 2956 1747 
Q 2956 2369 2687 2733 
Q 2419 3097 1959 3097 
z
M 1959 3584 
Q 2709 3584 3137 3096 
Q 3566 2609 3566 1747 
Q 3566 888 3137 398 
Q 2709 -91 1959 -91 
Q 1206 -91 779 398 
Q 353 888 353 1747 
Q 353 2609 779 3096 
Q 1206 3584 1959 3584 
z
" transform="scale(0.015625)"/>
       <path id="DejaVuSans-6c" d="M 603 4863 
L 1178 4863 
L 1178 0 
L 603 0 
L 603 4863 
z
" transform="scale(0.015625)"/>
       <path id="DejaVuSans-63" d="M 3122 3366 
L 3122 2828 
Q 2878 2963 2633 3030 
Q 2388 3097 2138 3097 
Q 1578 3097 1268 2742 
Q 959 2388 959 1747 
Q 959 1106 1268 751 
Q 1578 397 2138 397 
Q 2388 397 2633 464 
Q 2878 531 3122 666 
L 3122 134 
Q 2881 22 2623 -34 
Q 2366 -91 2075 -91 
Q 1284 -91 818 406 
Q 353 903 353 1747 
Q 353 2603 823 3093 
Q 1294 3584 2113 3584 
Q 2378 3584 2631 3529 
Q 2884 3475 3122 3366 
z
" transform="scale(0.015625)"/>
      </defs>
      <use xlink:href="#DejaVuSans-74"/>
      <use xlink:href="#DejaVuSans-6f" x="39.208984"/>
      <use xlink:href="#DejaVuSans-74" x="100.390625"/>
      <use xlink:href="#DejaVuSans-61" x="139.599609"/>
      <use xlink:href="#DejaVuSans-6c" x="200.878906"/>
      <use xlink:href="#DejaVuSans-20" x="228.662109"/>
      <use xlink:href="#DejaVuSans-63" x="260.449219"/>
      <use xlink:href="#DejaVuSans-6f" x="315.429688"/>
      <use xlink:href="#DejaVuSans-73" x="376.611328"/>
      <use xlink:href="#DejaVuSans-74" x="428.710938"/>
     </g>
    </g>
   </g>
   <g id="line2d_17">
    <path d="M 73.832727 197.849337 
L 74.179951 189.142704 
L 74.527175 191.630314 
L 74.8744 186.655095 
L 75.221624 189.142704 
L 75.568848 186.655095 
L 75.916072 186.655095 
L 76.263296 168.619928 
L 76.61052 177.948463 
L 76.957744 174.217049 
L 77.304968 194.117923 
L 77.999417 184.167486 
L 78.346641 191.630314 
L 78.693865 189.142704 
L 79.041089 184.789388 
L 79.388313 198.471239 
L 79.735537 175.460853 
L 80.082761 182.923681 
L 80.429985 165.510416 
L 80.77721 177.32656 
L 81.124434 167.376123 
L 81.471658 169.863733 
L 81.818882 176.704658 
L 82.166106 179.81417 
L 82.51333 178.570365 
L 82.860554 178.570365 
L 83.207778 183.545584 
L 83.555002 177.32656 
L 83.902227 184.789388 
L 84.249451 174.838951 
L 84.596675 176.082756 
L 84.943899 179.81417 
L 85.291123 194.739825 
L 85.638347 189.142704 
L 85.985571 188.520802 
L 86.332795 195.98363 
L 86.680019 161.779003 
L 87.027244 177.948463 
L 87.374468 185.41129 
L 87.721692 186.655095 
L 88.068916 175.460853 
L 88.41614 155.559979 
L 88.763364 145.609542 
L 89.110588 154.316175 
L 89.457812 149.340956 
L 89.805036 148.097152 
L 90.152261 142.500031 
L 90.499485 141.878129 
L 90.846709 146.231445 
L 91.193933 153.694272 
L 91.541157 148.719054 
L 91.888381 151.206663 
L 92.235605 130.061985 
L 92.582829 127.574375 
L 92.930053 127.574375 
L 93.277278 140.634324 
L 93.624502 146.853347 
L 93.971726 135.037203 
L 94.666174 128.196278 
L 95.013398 114.514427 
L 95.360622 109.539208 
L 95.707846 123.221059 
L 96.05507 98.344967 
L 96.402295 87.150725 
L 96.749519 102.07638 
L 97.096743 88.39453 
L 97.443967 87.150725 
L 97.791191 75.956483 
L 98.138415 75.956483 
L 98.485639 69.73746 
L 98.832863 66.627949 
L 99.180088 64.762242 
L 99.527312 82.175506 
L 99.874536 93.369748 
L 100.22176 78.444093 
L 100.568984 85.285018 
L 100.916208 75.334581 
L 101.263432 85.285018 
L 101.95788 74.712679 
L 102.305105 82.797409 
L 102.652329 85.285018 
L 102.999553 108.295404 
L 103.346777 119.489645 
L 103.694001 118.245841 
L 104.041225 112.64872 
L 104.735673 133.793398 
L 105.082897 107.051599 
L 105.777346 128.196278 
L 106.12457 124.464864 
L 106.471794 113.892524 
L 106.819018 122.599157 
L 107.166242 113.270622 
L 107.513466 124.464864 
L 107.86069 118.867743 
L 108.207914 123.842961 
L 108.555139 125.086766 
L 108.902363 122.599157 
L 109.249587 126.952473 
L 109.596811 117.623938 
L 109.944035 168.619928 
L 110.291259 174.838951 
L 110.638483 154.316175 
L 110.985707 161.779003 
L 111.332931 156.803784 
L 111.680156 136.281008 
L 112.02738 174.217049 
L 112.721828 158.669491 
L 113.069052 156.803784 
L 113.416276 152.450468 
L 113.7635 140.012422 
L 114.110724 131.927692 
L 114.457948 134.415301 
L 114.805173 143.743835 
L 115.152397 145.609542 
L 115.499621 139.390519 
L 115.846845 113.892524 
L 116.194069 113.892524 
L 116.541293 112.64872 
L 116.888517 100.832576 
L 117.235741 102.07638 
L 117.582965 89.016432 
L 117.93019 95.235455 
L 118.277414 80.309799 
L 118.624638 70.359362 
L 118.971862 72.225069 
L 119.319086 67.249851 
L 119.66631 59.787023 
L 120.013534 70.981265 
L 120.360758 58.543219 
L 120.707982 59.787023 
L 121.055207 56.055609 
L 121.402431 66.627949 
L 121.749655 53.568 
L 122.096879 53.568 
L 122.444103 72.846972 
L 122.791327 73.468874 
L 123.138551 92.125943 
L 123.485775 79.065995 
L 123.833 82.175506 
L 124.180224 70.981265 
L 124.527448 95.857357 
L 124.874672 93.369748 
L 125.221896 107.051599 
L 125.916344 144.365738 
L 126.263568 130.683887 
L 126.610792 147.475249 
L 126.958017 152.450468 
L 127.652465 149.962859 
L 127.999689 169.863733 
L 128.346913 166.132319 
L 128.694137 166.132319 
L 129.041361 165.510416 
L 129.388585 174.217049 
L 129.735809 167.376123 
L 130.430258 160.535198 
L 130.777482 174.217049 
L 131.124706 179.192267 
L 131.47193 174.838951 
L 132.166378 172.351342 
L 132.513602 167.376123 
L 132.860826 159.913296 
L 133.208051 159.913296 
L 133.555275 152.450468 
L 133.902499 133.171496 
L 134.249723 135.037203 
L 134.596947 145.609542 
L 134.944171 148.097152 
L 135.638619 162.400905 
L 135.985843 157.425686 
L 136.333068 150.584761 
L 137.027516 170.485635 
L 137.37474 179.192267 
L 137.721964 182.301779 
L 138.069188 159.913296 
L 138.416412 156.803784 
L 138.763636 156.803784 
L 139.11086 159.913296 
L 139.458085 146.231445 
L 139.805309 148.097152 
L 140.152533 136.281008 
L 140.499757 106.429697 
L 140.846981 97.723064 
L 141.194205 105.185892 
L 141.541429 108.917306 
L 141.888653 105.807794 
L 142.235877 123.221059 
L 142.583102 99.588771 
L 142.930326 104.56399 
L 143.27755 117.002036 
L 143.624774 107.673501 
L 143.971998 137.524812 
L 144.666446 161.1571 
L 145.01367 163.64471 
L 145.360895 171.107537 
L 145.708119 167.376123 
L 146.055343 178.570365 
L 146.402567 154.938077 
L 146.749791 162.400905 
L 147.097015 161.1571 
L 147.791463 149.340956 
L 148.485912 181.679877 
L 148.833136 176.704658 
L 149.18036 187.276997 
L 149.527584 186.033193 
L 150.222032 166.132319 
L 150.569256 171.107537 
L 150.91648 152.450468 
L 151.263704 148.719054 
L 151.610929 136.281008 
L 151.958153 130.061985 
L 152.305377 141.256226 
L 152.652601 144.365738 
L 152.999825 153.07237 
L 153.347049 144.365738 
L 153.694273 151.828566 
L 154.041497 169.863733 
L 154.388721 164.266612 
L 154.735946 156.181882 
L 155.08317 171.107537 
L 155.430394 174.838951 
L 156.472066 189.764607 
L 156.81929 173.595147 
L 157.166514 146.231445 
L 157.513738 148.097152 
L 157.860963 161.779003 
L 158.208187 154.316175 
L 158.555411 143.121933 
L 158.902635 147.475249 
L 159.249859 148.097152 
L 159.597083 161.779003 
L 159.944307 163.022807 
L 160.291531 166.754221 
L 160.638755 185.41129 
L 160.98598 153.07237 
L 161.333204 163.64471 
L 161.680428 148.097152 
L 162.027652 155.559979 
L 162.374876 153.07237 
L 162.7221 165.510416 
L 163.069324 159.291393 
L 163.416548 174.838951 
L 163.763772 149.962859 
L 164.110997 134.415301 
L 164.458221 131.927692 
L 164.805445 148.097152 
L 165.152669 146.853347 
L 165.499893 136.281008 
L 165.847117 142.500031 
L 166.194341 156.181882 
L 166.541565 143.121933 
L 166.888789 142.500031 
L 167.236014 163.64471 
L 167.583238 159.913296 
L 167.930462 159.291393 
L 168.277686 167.998026 
L 168.62491 162.400905 
L 169.319358 179.192267 
L 169.666582 177.948463 
L 170.013807 169.863733 
L 170.361031 168.619928 
L 170.708255 172.351342 
L 171.055479 164.888514 
L 171.402703 185.41129 
L 171.749927 193.496021 
L 172.097151 194.739825 
L 172.444375 198.471239 
L 172.791599 196.605532 
L 173.138824 195.361728 
L 173.486048 176.704658 
L 173.833272 195.98363 
L 174.180496 202.202653 
L 174.52772 175.460853 
L 175.222168 177.948463 
L 175.569392 161.779003 
L 175.916616 176.704658 
L 176.263841 165.510416 
L 176.611065 167.998026 
L 176.958289 149.962859 
L 177.305513 153.694272 
L 177.652737 144.98764 
L 177.999961 140.634324 
L 178.347185 148.097152 
L 178.694409 163.022807 
L 179.041633 156.181882 
L 179.388858 154.316175 
L 179.736082 151.828566 
L 180.43053 127.574375 
L 181.124978 137.524812 
L 181.472202 149.962859 
L 181.819426 152.450468 
L 182.16665 148.719054 
L 182.513875 131.305789 
L 182.861099 125.086766 
L 183.208323 91.504041 
L 183.555547 90.260237 
L 183.902771 87.772627 
L 184.249995 77.200288 
L 184.597219 74.712679 
L 185.291667 84.663116 
L 185.638892 75.334581 
L 185.986116 82.797409 
L 186.33334 97.723064 
L 186.680564 89.016432 
L 187.027788 88.39453 
L 187.375012 96.47926 
L 187.722236 98.966869 
L 188.06946 106.429697 
L 188.416684 90.260237 
L 188.763909 84.663116 
L 189.111133 107.051599 
L 189.458357 107.673501 
L 189.805581 103.942087 
L 190.152805 107.673501 
L 190.500029 131.305789 
L 190.847253 136.281008 
L 191.541702 125.086766 
L 191.888926 137.524812 
L 192.23615 144.98764 
L 192.583374 144.98764 
L 192.930598 148.719054 
L 193.97227 177.32656 
L 194.319494 154.938077 
L 194.666719 159.913296 
L 195.013943 135.037203 
L 195.361167 120.111548 
L 195.708391 98.344967 
L 196.055615 93.99165 
L 196.402839 94.613553 
L 197.097287 110.783013 
L 197.444511 130.683887 
L 197.791736 130.683887 
L 198.13896 141.256226 
L 198.833408 137.524812 
L 199.180632 135.037203 
L 199.527856 156.181882 
L 199.87508 135.659105 
L 200.222304 144.98764 
L 200.916753 116.380134 
L 201.263977 111.404915 
L 201.611201 102.698283 
L 201.958425 103.942087 
L 202.652873 114.514427 
L 203.000097 111.404915 
L 203.694545 122.599157 
L 204.388994 95.235455 
L 204.736218 90.882139 
L 205.083442 93.369748 
L 205.430666 97.723064 
L 205.77789 97.723064 
L 206.125114 107.673501 
L 206.472338 112.026817 
L 206.819562 103.942087 
L 207.166787 103.320185 
L 207.514011 105.185892 
L 207.861235 102.698283 
L 208.208459 111.404915 
L 208.555683 109.539208 
L 208.902907 113.892524 
L 209.250131 112.026817 
L 209.597355 114.514427 
L 209.944579 129.440082 
L 210.291804 153.694272 
L 210.639028 151.206663 
L 210.986252 159.913296 
L 211.333476 161.779003 
L 211.6807 180.436072 
L 212.027924 180.436072 
L 212.375148 172.973244 
L 212.722372 167.998026 
L 213.069596 165.510416 
L 213.416821 167.998026 
L 213.764045 159.291393 
L 214.111269 155.559979 
L 214.458493 166.132319 
L 214.805717 168.619928 
L 215.152941 156.181882 
L 215.500165 164.888514 
L 216.541838 179.192267 
L 216.889062 205.934067 
L 217.236286 196.605532 
L 217.58351 197.849337 
L 217.930734 197.849337 
L 218.277958 207.177871 
L 218.625182 207.177871 
L 218.972406 214.640699 
L 219.666855 190.386509 
L 220.361303 220.23782 
L 220.708527 232.675866 
L 221.055751 205.312165 
L 221.402975 195.98363 
L 221.750199 197.227434 
L 222.097423 199.093141 
L 222.444648 214.640699 
L 222.791872 214.640699 
L 223.139096 204.690262 
L 223.48632 230.188257 
L 223.833544 233.919671 
L 224.180768 246.97962 
L 224.527992 246.97962 
L 224.875216 237.651085 
L 225.22244 240.138694 
L 225.916889 208.421676 
L 226.264113 210.287383 
L 226.958561 184.167486 
L 227.305785 195.361728 
L 227.653009 186.655095 
L 228.694682 176.082756 
L 229.041906 179.81417 
L 229.38913 181.057974 
L 229.736354 208.421676 
L 230.083578 207.177871 
L 230.430802 211.531188 
L 231.12525 195.98363 
L 231.472474 195.98363 
L 231.819699 209.665481 
L 232.166923 218.372113 
L 232.514147 209.043578 
L 232.861371 211.531188 
L 233.208595 225.213039 
L 233.555819 223.347332 
L 233.903043 222.725429 
L 234.250267 214.018797 
L 234.597491 223.969234 
L 234.944716 220.23782 
L 235.29194 210.287383 
L 235.639164 211.531188 
L 235.986388 217.750211 
L 236.680836 192.874118 
L 237.02806 199.715044 
L 237.375284 170.485635 
L 237.722509 162.400905 
L 238.069733 161.779003 
L 238.416957 170.485635 
L 238.764181 166.132319 
L 239.111405 165.510416 
L 239.458629 160.535198 
L 239.805853 176.082756 
L 240.153077 186.033193 
L 240.500301 217.128308 
L 240.847526 207.177871 
L 241.19475 210.909285 
L 241.541974 218.372113 
L 241.889198 222.103527 
L 242.236422 223.347332 
L 242.93087 201.580751 
L 243.278094 202.824555 
L 243.625318 178.570365 
L 243.972543 188.520802 
L 244.319767 176.082756 
L 244.666991 173.595147 
L 245.014215 162.400905 
L 245.361439 165.510416 
L 245.708663 200.336946 
L 246.055887 188.520802 
L 246.403111 184.789388 
L 246.750335 205.312165 
L 247.09756 207.177871 
L 247.444784 200.958848 
L 247.792008 200.958848 
L 248.139232 218.994015 
L 248.486456 207.799774 
L 248.83368 206.555969 
L 249.180904 212.774992 
L 249.528128 208.421676 
L 249.875352 189.764607 
L 250.569801 171.107537 
L 250.917025 166.754221 
L 251.264249 165.510416 
L 251.611473 163.64471 
L 251.958697 167.376123 
L 252.305921 163.64471 
L 252.653145 161.779003 
L 253.000369 184.167486 
L 253.347594 182.923681 
L 253.694818 182.923681 
L 254.042042 190.386509 
L 254.389266 181.679877 
L 255.083714 173.595147 
L 255.430938 171.107537 
L 255.778162 152.450468 
L 256.125386 156.181882 
L 256.472611 148.097152 
L 256.819835 151.206663 
L 257.167059 151.206663 
L 257.514283 154.316175 
L 257.861507 163.022807 
L 258.208731 156.181882 
L 258.555955 179.81417 
L 258.903179 188.520802 
L 259.250404 192.252216 
L 259.597628 197.227434 
L 259.944852 191.008411 
L 260.292076 188.520802 
L 260.6393 199.715044 
L 260.986524 193.496021 
L 261.333748 184.789388 
L 261.680972 187.276997 
L 262.028196 184.167486 
L 262.375421 204.06836 
L 262.722645 191.008411 
L 263.069869 184.789388 
L 263.417093 173.595147 
L 263.764317 173.595147 
L 264.111541 166.754221 
L 264.458765 171.72944 
L 264.805989 170.485635 
L 265.153213 158.669491 
L 265.500438 159.913296 
L 265.847662 157.425686 
L 266.194886 158.047589 
L 266.54211 159.913296 
L 267.236558 134.415301 
L 267.583782 145.609542 
L 267.931006 166.754221 
L 268.27823 165.510416 
L 268.625455 161.1571 
L 268.972679 180.436072 
L 269.319903 185.41129 
L 269.667127 194.117923 
L 270.014351 191.630314 
L 270.361575 195.98363 
L 271.056023 163.64471 
L 271.403247 174.838951 
L 271.750472 177.32656 
L 272.097696 159.913296 
L 272.44492 157.425686 
L 272.792144 156.181882 
L 273.139368 157.425686 
L 273.486592 156.181882 
L 273.833816 168.619928 
L 274.18104 171.107537 
L 274.528264 191.008411 
L 274.875489 192.874118 
L 275.222713 193.496021 
L 275.569937 192.874118 
L 275.917161 165.510416 
L 276.264385 159.913296 
L 276.611609 166.132319 
L 276.958833 167.376123 
L 277.306057 149.962859 
L 277.653281 179.81417 
L 278.000506 187.276997 
L 278.34773 176.082756 
L 278.694954 181.057974 
L 279.042178 190.386509 
L 279.389402 195.98363 
L 279.736626 192.874118 
L 280.08385 181.679877 
L 280.431074 186.655095 
L 280.778298 196.605532 
L 281.125523 200.336946 
L 281.472747 217.128308 
L 281.819971 215.262602 
L 282.167195 214.018797 
L 282.514419 205.312165 
L 282.861643 205.312165 
L 283.208867 207.799774 
L 283.556091 227.700648 
L 283.903316 232.053964 
L 284.25054 232.053964 
L 284.597764 221.481625 
L 284.944988 228.944452 
L 285.292212 228.944452 
L 285.639436 225.834941 
L 286.333884 213.396895 
L 286.681108 213.396895 
L 287.028333 207.799774 
L 287.375557 211.531188 
L 287.722781 227.700648 
L 288.070005 208.421676 
L 288.417229 217.128308 
L 288.764453 229.566355 
L 289.111677 233.297769 
L 289.458901 214.018797 
L 290.15335 227.700648 
L 290.500574 231.432062 
L 290.847798 221.481625 
L 291.542246 242.626303 
L 291.88947 233.919671 
L 292.236694 216.506406 
L 292.583918 212.774992 
L 292.931142 212.15309 
L 293.278367 207.799774 
L 293.625591 185.41129 
L 293.972815 187.276997 
L 294.320039 188.520802 
L 294.667263 188.520802 
L 295.014487 212.15309 
L 295.708935 212.15309 
L 296.056159 221.481625 
L 297.097832 208.421676 
L 297.445056 199.715044 
L 297.79228 221.481625 
L 298.486728 241.382499 
L 298.833952 231.432062 
L 299.181176 230.810159 
L 299.528401 232.053964 
L 299.875625 232.675866 
L 300.222849 227.078746 
L 300.570073 235.785378 
L 300.917297 233.297769 
L 301.264521 240.138694 
L 301.611745 250.089131 
L 301.958969 255.06435 
L 302.653418 222.725429 
L 303.000642 225.213039 
L 303.69509 220.23782 
L 304.389538 202.824555 
L 304.736762 197.849337 
L 305.083986 210.287383 
L 305.431211 204.690262 
L 306.125659 186.033193 
L 306.472883 189.764607 
L 306.820107 208.421676 
L 307.167331 216.506406 
L 307.514555 209.665481 
L 307.861779 224.591136 
L 308.209003 228.944452 
L 308.556228 230.188257 
L 308.903452 216.506406 
L 309.250676 222.103527 
L 309.5979 195.361728 
L 309.945124 199.093141 
L 310.292348 204.06836 
L 310.639572 206.555969 
L 310.986796 206.555969 
L 311.33402 209.043578 
L 311.681245 215.262602 
L 312.028469 210.909285 
L 313.070141 191.630314 
L 313.417365 195.361728 
L 313.764589 205.312165 
L 314.111813 204.06836 
L 314.459037 192.252216 
L 314.806262 205.312165 
L 315.153486 184.167486 
L 315.50071 189.142704 
L 315.847934 169.863733 
L 316.195158 142.500031 
L 316.542382 142.500031 
L 316.889606 153.694272 
L 317.584054 130.683887 
L 317.931279 138.146715 
L 318.278503 135.659105 
L 318.972951 115.136329 
L 319.320175 161.1571 
L 320.014623 90.260237 
L 320.361847 70.359362 
L 320.709071 101.454478 
L 321.056296 89.016432 
L 321.40352 82.797409 
L 321.750744 89.638334 
L 322.097968 101.454478 
L 322.445192 105.185892 
L 322.792416 105.185892 
L 323.13964 117.623938 
L 323.486864 115.136329 
L 323.834088 116.380134 
L 324.181313 117.002036 
L 324.528537 129.440082 
L 324.875761 136.90291 
L 325.222985 176.704658 
L 325.570209 178.570365 
L 325.917433 153.694272 
L 326.264657 151.828566 
L 326.611881 143.743835 
L 326.959105 163.64471 
L 327.30633 150.584761 
L 327.653554 161.779003 
L 328.000778 159.291393 
L 328.348002 163.022807 
L 329.04245 167.998026 
L 329.389674 164.888514 
L 329.736898 172.351342 
L 330.084123 163.64471 
L 330.431347 164.888514 
L 330.778571 161.1571 
L 331.125795 177.32656 
L 331.473019 174.838951 
L 331.820243 166.132319 
L 332.167467 167.376123 
L 332.514691 171.107537 
L 332.861915 159.291393 
L 333.903588 166.754221 
L 334.250812 164.266612 
L 334.598036 180.436072 
L 334.94526 161.779003 
L 335.292484 176.704658 
L 335.639708 177.948463 
L 335.986932 186.655095 
L 336.334157 209.043578 
L 336.681381 209.043578 
L 337.028605 209.665481 
L 337.375829 198.471239 
L 337.723053 215.884504 
L 338.070277 220.859722 
L 338.417501 237.029183 
L 338.764725 237.029183 
L 339.111949 240.138694 
L 339.806398 235.163476 
L 340.153622 265.014787 
L 340.500846 263.14908 
L 340.84807 278.074735 
L 341.195294 274.965224 
L 341.889742 288.647075 
L 342.236966 287.40327 
L 342.584191 286.781368 
L 342.931415 287.40327 
L 343.278639 291.756586 
L 343.625863 279.940442 
L 343.973087 279.940442 
L 344.320311 295.488 
L 344.667535 294.244195 
L 345.014759 282.428051 
L 345.361983 263.770982 
L 345.709208 263.770982 
L 346.056432 259.417666 
L 346.75088 259.417666 
L 347.098104 251.954838 
L 347.445328 240.138694 
L 347.792552 238.272987 
L 348.139776 228.32255 
L 348.834225 236.40728 
L 349.181449 246.357717 
L 349.528673 242.626303 
L 349.875897 258.173861 
L 350.570345 246.97962 
L 350.917569 253.198643 
L 351.264793 253.820545 
L 351.612018 255.686252 
L 351.959242 243.870108 
L 352.306466 222.725429 
L 352.65369 223.969234 
L 353.000914 230.810159 
L 353.348138 230.810159 
L 353.695362 237.029183 
L 354.042586 238.272987 
L 354.737035 235.785378 
L 355.084259 231.432062 
L 355.431483 224.591136 
L 355.778707 224.591136 
L 356.125931 227.078746 
L 356.473155 226.456843 
L 356.820379 216.506406 
L 357.167603 212.15309 
L 357.514827 212.774992 
L 357.862052 217.750211 
L 358.209276 225.834941 
L 358.5565 223.347332 
L 358.903724 227.078746 
L 359.250948 214.640699 
L 359.598172 215.884504 
L 359.945396 214.640699 
L 360.639844 219.615918 
L 360.987069 225.834941 
L 361.334293 228.32255 
L 361.681517 232.053964 
L 362.375965 234.541573 
L 362.723189 225.834941 
L 363.070413 230.810159 
L 363.417637 238.894889 
L 363.764861 241.382499 
L 364.112086 223.969234 
L 364.45931 222.725429 
L 364.806534 220.859722 
L 365.500982 200.336946 
L 366.19543 227.078746 
L 366.542654 227.078746 
L 366.889878 203.446458 
L 367.237103 202.202653 
L 367.584327 197.227434 
L 367.931551 198.471239 
L 368.278775 195.98363 
L 368.625999 195.98363 
L 368.973223 198.471239 
L 369.320447 210.909285 
L 369.667671 212.15309 
L 370.014895 228.32255 
L 370.36212 238.894889 
L 370.709344 240.760596 
L 371.056568 250.089131 
L 371.403792 251.954838 
L 371.751016 255.06435 
L 372.09824 242.626303 
L 372.792688 251.954838 
L 373.139912 248.223424 
L 373.487137 254.442447 
L 373.834361 251.332936 
L 374.181585 253.820545 
L 374.528809 251.332936 
L 374.876033 253.820545 
L 375.223257 246.357717 
L 375.570481 251.332936 
L 375.917705 250.089131 
L 376.26493 260.039568 
L 376.612154 256.308154 
L 376.959378 261.905275 
L 377.306602 255.686252 
L 377.653826 265.636689 
L 378.00105 265.636689 
L 378.348274 283.671856 
L 379.042722 281.184247 
L 379.389947 274.343321 
L 379.737171 275.587126 
L 380.084395 271.855712 
L 380.431619 264.392884 
L 381.126067 276.209028 
L 381.473291 269.990005 
L 381.820515 256.308154 
L 382.167739 253.820545 
L 382.514964 260.039568 
L 382.862188 261.905275 
L 383.209412 246.97962 
L 383.556636 245.735815 
L 383.90386 243.870108 
L 384.251084 244.49201 
L 384.598308 243.870108 
L 384.945532 248.845326 
L 385.292756 246.97962 
L 385.639981 250.089131 
L 385.987205 242.626303 
L 386.334429 230.188257 
L 386.681653 227.700648 
L 387.028877 226.456843 
L 387.376101 227.078746 
L 387.723325 225.834941 
L 388.070549 220.23782 
L 388.417773 226.456843 
L 388.764998 242.626303 
L 389.112222 242.626303 
L 389.459446 235.163476 
L 389.80667 252.57674 
L 390.501118 257.551959 
L 390.848342 253.820545 
L 391.195566 242.626303 
L 391.54279 227.078746 
L 391.890015 232.675866 
L 392.237239 218.994015 
L 392.584463 230.188257 
L 392.931687 225.213039 
L 393.278911 243.870108 
L 393.626135 239.516792 
L 393.973359 232.053964 
L 394.320583 232.053964 
L 394.667807 223.347332 
L 395.015032 222.103527 
L 395.362256 223.969234 
L 395.70948 222.103527 
L 396.056704 224.591136 
L 396.751152 232.053964 
L 397.098376 242.004401 
L 397.4456 240.138694 
L 398.140049 268.124298 
L 398.487273 268.124298 
L 398.487273 268.124298 
" clip-path="url(#p86f1faa519)" style="fill: none; stroke: #1f77b4; stroke-width: 1.5; stroke-linecap: square"/>
   </g>
   <g id="patch_3">
    <path d="M 57.6 307.584 
L 57.6 41.472 
" style="fill: none; stroke: #000000; stroke-width: 0.8; stroke-linejoin: miter; stroke-linecap: square"/>
   </g>
   <g id="patch_4">
    <path d="M 414.72 307.584 
L 414.72 41.472 
" style="fill: none; stroke: #000000; stroke-width: 0.8; stroke-linejoin: miter; stroke-linecap: square"/>
   </g>
   <g id="patch_5">
    <path d="M 57.6 307.584 
L 414.72 307.584 
" style="fill: none; stroke: #000000; stroke-width: 0.8; stroke-linejoin: miter; stroke-linecap: square"/>
   </g>
   <g id="patch_6">
    <path d="M 57.6 41.472 
L 414.72 41.472 
" style="fill: none; stroke: #000000; stroke-width: 0.8; stroke-linejoin: miter; stroke-linecap: square"/>
   </g>
   <g id="text_19">
    <!-- Simulated Anealling Cost -->
    <g transform="translate(160.8 35.472)scale(0.12 -0.12)">
     <defs>
      <path id="DejaVuSans-53" d="M 3425 4513 
L 3425 3897 
Q 3066 4069 2747 4153 
Q 2428 4238 2131 4238 
Q 1616 4238 1336 4038 
Q 1056 3838 1056 3469 
Q 1056 3159 1242 3001 
Q 1428 2844 1947 2747 
L 2328 2669 
Q 3034 2534 3370 2195 
Q 3706 1856 3706 1288 
Q 3706 609 3251 259 
Q 2797 -91 1919 -91 
Q 1588 -91 1214 -16 
Q 841 59 441 206 
L 441 856 
Q 825 641 1194 531 
Q 1563 422 1919 422 
Q 2459 422 2753 634 
Q 3047 847 3047 1241 
Q 3047 1584 2836 1778 
Q 2625 1972 2144 2069 
L 1759 2144 
Q 1053 2284 737 2584 
Q 422 2884 422 3419 
Q 422 4038 858 4394 
Q 1294 4750 2059 4750 
Q 2388 4750 2728 4690 
Q 3069 4631 3425 4513 
z
" transform="scale(0.015625)"/>
      <path id="DejaVuSans-69" d="M 603 3500 
L 1178 3500 
L 1178 0 
L 603 0 
L 603 3500 
z
M 603 4863 
L 1178 4863 
L 1178 4134 
L 603 4134 
L 603 4863 
z
" transform="scale(0.015625)"/>
      <path id="DejaVuSans-65" d="M 3597 1894 
L 3597 1613 
L 953 1613 
Q 991 1019 1311 708 
Q 1631 397 2203 397 
Q 2534 397 2845 478 
Q 3156 559 3463 722 
L 3463 178 
Q 3153 47 2828 -22 
Q 2503 -91 2169 -91 
Q 1331 -91 842 396 
Q 353 884 353 1716 
Q 353 2575 817 3079 
Q 1281 3584 2069 3584 
Q 2775 3584 3186 3129 
Q 3597 2675 3597 1894 
z
M 3022 2063 
Q 3016 2534 2758 2815 
Q 2500 3097 2075 3097 
Q 1594 3097 1305 2825 
Q 1016 2553 972 2059 
L 3022 2063 
z
" transform="scale(0.015625)"/>
      <path id="DejaVuSans-64" d="M 2906 2969 
L 2906 4863 
L 3481 4863 
L 3481 0 
L 2906 0 
L 2906 525 
Q 2725 213 2448 61 
Q 2172 -91 1784 -91 
Q 1150 -91 751 415 
Q 353 922 353 1747 
Q 353 2572 751 3078 
Q 1150 3584 1784 3584 
Q 2172 3584 2448 3432 
Q 2725 3281 2906 2969 
z
M 947 1747 
Q 947 1113 1208 752 
Q 1469 391 1925 391 
Q 2381 391 2643 752 
Q 2906 1113 2906 1747 
Q 2906 2381 2643 2742 
Q 2381 3103 1925 3103 
Q 1469 3103 1208 2742 
Q 947 2381 947 1747 
z
" transform="scale(0.015625)"/>
      <path id="DejaVuSans-41" d="M 2188 4044 
L 1331 1722 
L 3047 1722 
L 2188 4044 
z
M 1831 4666 
L 2547 4666 
L 4325 0 
L 3669 0 
L 3244 1197 
L 1141 1197 
L 716 0 
L 50 0 
L 1831 4666 
z
" transform="scale(0.015625)"/>
      <path id="DejaVuSans-67" d="M 2906 1791 
Q 2906 2416 2648 2759 
Q 2391 3103 1925 3103 
Q 1463 3103 1205 2759 
Q 947 2416 947 1791 
Q 947 1169 1205 825 
Q 1463 481 1925 481 
Q 2391 481 2648 825 
Q 2906 1169 2906 1791 
z
M 3481 434 
Q 3481 -459 3084 -895 
Q 2688 -1331 1869 -1331 
Q 1566 -1331 1297 -1286 
Q 1028 -1241 775 -1147 
L 775 -588 
Q 1028 -725 1275 -790 
Q 1522 -856 1778 -856 
Q 2344 -856 2625 -561 
Q 2906 -266 2906 331 
L 2906 616 
Q 2728 306 2450 153 
Q 2172 0 1784 0 
Q 1141 0 747 490 
Q 353 981 353 1791 
Q 353 2603 747 3093 
Q 1141 3584 1784 3584 
Q 2172 3584 2450 3431 
Q 2728 3278 2906 2969 
L 2906 3500 
L 3481 3500 
L 3481 434 
z
" transform="scale(0.015625)"/>
      <path id="DejaVuSans-43" d="M 4122 4306 
L 4122 3641 
Q 3803 3938 3442 4084 
Q 3081 4231 2675 4231 
Q 1875 4231 1450 3742 
Q 1025 3253 1025 2328 
Q 1025 1406 1450 917 
Q 1875 428 2675 428 
Q 3081 428 3442 575 
Q 3803 722 4122 1019 
L 4122 359 
Q 3791 134 3420 21 
Q 3050 -91 2638 -91 
Q 1578 -91 968 557 
Q 359 1206 359 2328 
Q 359 3453 968 4101 
Q 1578 4750 2638 4750 
Q 3056 4750 3426 4639 
Q 3797 4528 4122 4306 
z
" transform="scale(0.015625)"/>
     </defs>
     <use xlink:href="#DejaVuSans-53"/>
     <use xlink:href="#DejaVuSans-69" x="63.476562"/>
     <use xlink:href="#DejaVuSans-6d" x="91.259766"/>
     <use xlink:href="#DejaVuSans-75" x="188.671875"/>
     <use xlink:href="#DejaVuSans-6c" x="252.050781"/>
     <use xlink:href="#DejaVuSans-61" x="279.833984"/>
     <use xlink:href="#DejaVuSans-74" x="341.113281"/>
     <use xlink:href="#DejaVuSans-65" x="380.322266"/>
     <use xlink:href="#DejaVuSans-64" x="441.845703"/>
     <use xlink:href="#DejaVuSans-20" x="505.322266"/>
     <use xlink:href="#DejaVuSans-41" x="537.109375"/>
     <use xlink:href="#DejaVuSans-6e" x="605.517578"/>
     <use xlink:href="#DejaVuSans-65" x="668.896484"/>
     <use xlink:href="#DejaVuSans-61" x="730.419922"/>
     <use xlink:href="#DejaVuSans-6c" x="791.699219"/>
     <use xlink:href="#DejaVuSans-6c" x="819.482422"/>
     <use xlink:href="#DejaVuSans-69" x="847.265625"/>
     <use xlink:href="#DejaVuSans-6e" x="875.048828"/>
     <use xlink:href="#DejaVuSans-67" x="938.427734"/>
     <use xlink:href="#DejaVuSans-20" x="1001.904297"/>
     <use xlink:href="#DejaVuSans-43" x="1033.691406"/>
     <use xlink:href="#DejaVuSans-6f" x="1103.515625"/>
     <use xlink:href="#DejaVuSans-73" x="1164.697266"/>
     <use xlink:href="#DejaVuSans-74" x="1216.796875"/>
    </g>
   </g>
  </g>
 </g>
 <defs>
  <clipPath id="p86f1faa519">
   <rect x="57.6" y="41.472" width="357.12" height="266.112"/>
  </clipPath>
 </defs>
</svg>
