<?xml version="1.0" encoding="utf-8" standalone="no"?>
<!DOCTYPE svg PUBLIC "-//W3C//DTD SVG 1.1//EN"
  "http://www.w3.org/Graphics/SVG/1.1/DTD/svg11.dtd">
<!-- Created with matplotlib (https://matplotlib.org/) -->
<svg height="345.6pt" version="1.1" viewBox="0 0 460.8 345.6" width="460.8pt" xmlns="http://www.w3.org/2000/svg" xmlns:xlink="http://www.w3.org/1999/xlink">
 <metadata>
  <rdf:RDF xmlns:cc="http://creativecommons.org/ns#" xmlns:dc="http://purl.org/dc/elements/1.1/" xmlns:rdf="http://www.w3.org/1999/02/22-rdf-syntax-ns#">
   <cc:Work>
    <dc:type rdf:resource="http://purl.org/dc/dcmitype/StillImage"/>
    <dc:date>2022-05-25T21:42:51.520924</dc:date>
    <dc:format>image/svg+xml</dc:format>
    <dc:creator>
     <cc:Agent>
      <dc:title>Matplotlib v3.3.4, https://matplotlib.org/</dc:title>
     </cc:Agent>
    </dc:creator>
   </cc:Work>
  </rdf:RDF>
 </metadata>
 <defs>
  <style type="text/css">*{stroke-linecap:butt;stroke-linejoin:round;}</style>
 </defs>
 <g id="figure_1">
  <g id="patch_1">
   <path d="M 0 345.6 
L 460.8 345.6 
L 460.8 0 
L 0 0 
z
" style="fill:#ffffff;"/>
  </g>
  <g id="axes_1">
   <g id="patch_2">
    <path d="M 57.6 307.584 
L 414.72 307.584 
L 414.72 41.472 
L 57.6 41.472 
z
" style="fill:#ffffff;"/>
   </g>
   <g id="matplotlib.axis_1">
    <g id="xtick_1">
     <g id="line2d_1">
      <defs>
       <path d="M 0 0 
L 0 3.5 
" id="ma96cb76f56" style="stroke:#000000;stroke-width:0.8;"/>
      </defs>
      <g>
       <use style="stroke:#000000;stroke-width:0.8;" x="73.832727" xlink:href="#ma96cb76f56" y="307.584"/>
      </g>
     </g>
     <g id="text_1">
      <!-- 0 -->
      <g transform="translate(70.651477 322.182437)scale(0.1 -0.1)">
       <defs>
        <path d="M 31.78125 66.40625 
Q 24.171875 66.40625 20.328125 58.90625 
Q 16.5 51.421875 16.5 36.375 
Q 16.5 21.390625 20.328125 13.890625 
Q 24.171875 6.390625 31.78125 6.390625 
Q 39.453125 6.390625 43.28125 13.890625 
Q 47.125 21.390625 47.125 36.375 
Q 47.125 51.421875 43.28125 58.90625 
Q 39.453125 66.40625 31.78125 66.40625 
z
M 31.78125 74.21875 
Q 44.046875 74.21875 50.515625 64.515625 
Q 56.984375 54.828125 56.984375 36.375 
Q 56.984375 17.96875 50.515625 8.265625 
Q 44.046875 -1.421875 31.78125 -1.421875 
Q 19.53125 -1.421875 13.0625 8.265625 
Q 6.59375 17.96875 6.59375 36.375 
Q 6.59375 54.828125 13.0625 64.515625 
Q 19.53125 74.21875 31.78125 74.21875 
z
" id="DejaVuSans-48"/>
       </defs>
       <use xlink:href="#DejaVuSans-48"/>
      </g>
     </g>
    </g>
    <g id="xtick_2">
     <g id="line2d_2">
      <g>
       <use style="stroke:#000000;stroke-width:0.8;" x="146.69057" xlink:href="#ma96cb76f56" y="307.584"/>
      </g>
     </g>
     <g id="text_2">
      <!-- 1000 -->
      <g transform="translate(133.96557 322.182437)scale(0.1 -0.1)">
       <defs>
        <path d="M 12.40625 8.296875 
L 28.515625 8.296875 
L 28.515625 63.921875 
L 10.984375 60.40625 
L 10.984375 69.390625 
L 28.421875 72.90625 
L 38.28125 72.90625 
L 38.28125 8.296875 
L 54.390625 8.296875 
L 54.390625 0 
L 12.40625 0 
z
" id="DejaVuSans-49"/>
       </defs>
       <use xlink:href="#DejaVuSans-49"/>
       <use x="63.623047" xlink:href="#DejaVuSans-48"/>
       <use x="127.246094" xlink:href="#DejaVuSans-48"/>
       <use x="190.869141" xlink:href="#DejaVuSans-48"/>
      </g>
     </g>
    </g>
    <g id="xtick_3">
     <g id="line2d_3">
      <g>
       <use style="stroke:#000000;stroke-width:0.8;" x="219.548412" xlink:href="#ma96cb76f56" y="307.584"/>
      </g>
     </g>
     <g id="text_3">
      <!-- 2000 -->
      <g transform="translate(206.823412 322.182437)scale(0.1 -0.1)">
       <defs>
        <path d="M 19.1875 8.296875 
L 53.609375 8.296875 
L 53.609375 0 
L 7.328125 0 
L 7.328125 8.296875 
Q 12.9375 14.109375 22.625 23.890625 
Q 32.328125 33.6875 34.8125 36.53125 
Q 39.546875 41.84375 41.421875 45.53125 
Q 43.3125 49.21875 43.3125 52.78125 
Q 43.3125 58.59375 39.234375 62.25 
Q 35.15625 65.921875 28.609375 65.921875 
Q 23.96875 65.921875 18.8125 64.3125 
Q 13.671875 62.703125 7.8125 59.421875 
L 7.8125 69.390625 
Q 13.765625 71.78125 18.9375 73 
Q 24.125 74.21875 28.421875 74.21875 
Q 39.75 74.21875 46.484375 68.546875 
Q 53.21875 62.890625 53.21875 53.421875 
Q 53.21875 48.921875 51.53125 44.890625 
Q 49.859375 40.875 45.40625 35.40625 
Q 44.1875 33.984375 37.640625 27.21875 
Q 31.109375 20.453125 19.1875 8.296875 
z
" id="DejaVuSans-50"/>
       </defs>
       <use xlink:href="#DejaVuSans-50"/>
       <use x="63.623047" xlink:href="#DejaVuSans-48"/>
       <use x="127.246094" xlink:href="#DejaVuSans-48"/>
       <use x="190.869141" xlink:href="#DejaVuSans-48"/>
      </g>
     </g>
    </g>
    <g id="xtick_4">
     <g id="line2d_4">
      <g>
       <use style="stroke:#000000;stroke-width:0.8;" x="292.406254" xlink:href="#ma96cb76f56" y="307.584"/>
      </g>
     </g>
     <g id="text_4">
      <!-- 3000 -->
      <g transform="translate(279.681254 322.182437)scale(0.1 -0.1)">
       <defs>
        <path d="M 40.578125 39.3125 
Q 47.65625 37.796875 51.625 33 
Q 55.609375 28.21875 55.609375 21.1875 
Q 55.609375 10.40625 48.1875 4.484375 
Q 40.765625 -1.421875 27.09375 -1.421875 
Q 22.515625 -1.421875 17.65625 -0.515625 
Q 12.796875 0.390625 7.625 2.203125 
L 7.625 11.71875 
Q 11.71875 9.328125 16.59375 8.109375 
Q 21.484375 6.890625 26.8125 6.890625 
Q 36.078125 6.890625 40.9375 10.546875 
Q 45.796875 14.203125 45.796875 21.1875 
Q 45.796875 27.640625 41.28125 31.265625 
Q 36.765625 34.90625 28.71875 34.90625 
L 20.21875 34.90625 
L 20.21875 43.015625 
L 29.109375 43.015625 
Q 36.375 43.015625 40.234375 45.921875 
Q 44.09375 48.828125 44.09375 54.296875 
Q 44.09375 59.90625 40.109375 62.90625 
Q 36.140625 65.921875 28.71875 65.921875 
Q 24.65625 65.921875 20.015625 65.03125 
Q 15.375 64.15625 9.8125 62.3125 
L 9.8125 71.09375 
Q 15.4375 72.65625 20.34375 73.4375 
Q 25.25 74.21875 29.59375 74.21875 
Q 40.828125 74.21875 47.359375 69.109375 
Q 53.90625 64.015625 53.90625 55.328125 
Q 53.90625 49.265625 50.4375 45.09375 
Q 46.96875 40.921875 40.578125 39.3125 
z
" id="DejaVuSans-51"/>
       </defs>
       <use xlink:href="#DejaVuSans-51"/>
       <use x="63.623047" xlink:href="#DejaVuSans-48"/>
       <use x="127.246094" xlink:href="#DejaVuSans-48"/>
       <use x="190.869141" xlink:href="#DejaVuSans-48"/>
      </g>
     </g>
    </g>
    <g id="xtick_5">
     <g id="line2d_5">
      <g>
       <use style="stroke:#000000;stroke-width:0.8;" x="365.264097" xlink:href="#ma96cb76f56" y="307.584"/>
      </g>
     </g>
     <g id="text_5">
      <!-- 4000 -->
      <g transform="translate(352.539097 322.182437)scale(0.1 -0.1)">
       <defs>
        <path d="M 37.796875 64.3125 
L 12.890625 25.390625 
L 37.796875 25.390625 
z
M 35.203125 72.90625 
L 47.609375 72.90625 
L 47.609375 25.390625 
L 58.015625 25.390625 
L 58.015625 17.1875 
L 47.609375 17.1875 
L 47.609375 0 
L 37.796875 0 
L 37.796875 17.1875 
L 4.890625 17.1875 
L 4.890625 26.703125 
z
" id="DejaVuSans-52"/>
       </defs>
       <use xlink:href="#DejaVuSans-52"/>
       <use x="63.623047" xlink:href="#DejaVuSans-48"/>
       <use x="127.246094" xlink:href="#DejaVuSans-48"/>
       <use x="190.869141" xlink:href="#DejaVuSans-48"/>
      </g>
     </g>
    </g>
    <g id="text_6">
     <!-- num swaps -->
     <g transform="translate(207.826406 335.860562)scale(0.1 -0.1)">
      <defs>
       <path d="M 54.890625 33.015625 
L 54.890625 0 
L 45.90625 0 
L 45.90625 32.71875 
Q 45.90625 40.484375 42.875 44.328125 
Q 39.84375 48.1875 33.796875 48.1875 
Q 26.515625 48.1875 22.3125 43.546875 
Q 18.109375 38.921875 18.109375 30.90625 
L 18.109375 0 
L 9.078125 0 
L 9.078125 54.6875 
L 18.109375 54.6875 
L 18.109375 46.1875 
Q 21.34375 51.125 25.703125 53.5625 
Q 30.078125 56 35.796875 56 
Q 45.21875 56 50.046875 50.171875 
Q 54.890625 44.34375 54.890625 33.015625 
z
" id="DejaVuSans-110"/>
       <path d="M 8.5 21.578125 
L 8.5 54.6875 
L 17.484375 54.6875 
L 17.484375 21.921875 
Q 17.484375 14.15625 20.5 10.265625 
Q 23.53125 6.390625 29.59375 6.390625 
Q 36.859375 6.390625 41.078125 11.03125 
Q 45.3125 15.671875 45.3125 23.6875 
L 45.3125 54.6875 
L 54.296875 54.6875 
L 54.296875 0 
L 45.3125 0 
L 45.3125 8.40625 
Q 42.046875 3.421875 37.71875 1 
Q 33.40625 -1.421875 27.6875 -1.421875 
Q 18.265625 -1.421875 13.375 4.4375 
Q 8.5 10.296875 8.5 21.578125 
z
M 31.109375 56 
z
" id="DejaVuSans-117"/>
       <path d="M 52 44.1875 
Q 55.375 50.25 60.0625 53.125 
Q 64.75 56 71.09375 56 
Q 79.640625 56 84.28125 50.015625 
Q 88.921875 44.046875 88.921875 33.015625 
L 88.921875 0 
L 79.890625 0 
L 79.890625 32.71875 
Q 79.890625 40.578125 77.09375 44.375 
Q 74.3125 48.1875 68.609375 48.1875 
Q 61.625 48.1875 57.5625 43.546875 
Q 53.515625 38.921875 53.515625 30.90625 
L 53.515625 0 
L 44.484375 0 
L 44.484375 32.71875 
Q 44.484375 40.625 41.703125 44.40625 
Q 38.921875 48.1875 33.109375 48.1875 
Q 26.21875 48.1875 22.15625 43.53125 
Q 18.109375 38.875 18.109375 30.90625 
L 18.109375 0 
L 9.078125 0 
L 9.078125 54.6875 
L 18.109375 54.6875 
L 18.109375 46.1875 
Q 21.1875 51.21875 25.484375 53.609375 
Q 29.78125 56 35.6875 56 
Q 41.65625 56 45.828125 52.96875 
Q 50 49.953125 52 44.1875 
z
" id="DejaVuSans-109"/>
       <path id="DejaVuSans-32"/>
       <path d="M 44.28125 53.078125 
L 44.28125 44.578125 
Q 40.484375 46.53125 36.375 47.5 
Q 32.28125 48.484375 27.875 48.484375 
Q 21.1875 48.484375 17.84375 46.4375 
Q 14.5 44.390625 14.5 40.28125 
Q 14.5 37.15625 16.890625 35.375 
Q 19.28125 33.59375 26.515625 31.984375 
L 29.59375 31.296875 
Q 39.15625 29.25 43.1875 25.515625 
Q 47.21875 21.78125 47.21875 15.09375 
Q 47.21875 7.46875 41.1875 3.015625 
Q 35.15625 -1.421875 24.609375 -1.421875 
Q 20.21875 -1.421875 15.453125 -0.5625 
Q 10.6875 0.296875 5.421875 2 
L 5.421875 11.28125 
Q 10.40625 8.6875 15.234375 7.390625 
Q 20.0625 6.109375 24.8125 6.109375 
Q 31.15625 6.109375 34.5625 8.28125 
Q 37.984375 10.453125 37.984375 14.40625 
Q 37.984375 18.0625 35.515625 20.015625 
Q 33.0625 21.96875 24.703125 23.78125 
L 21.578125 24.515625 
Q 13.234375 26.265625 9.515625 29.90625 
Q 5.8125 33.546875 5.8125 39.890625 
Q 5.8125 47.609375 11.28125 51.796875 
Q 16.75 56 26.8125 56 
Q 31.78125 56 36.171875 55.265625 
Q 40.578125 54.546875 44.28125 53.078125 
z
" id="DejaVuSans-115"/>
       <path d="M 4.203125 54.6875 
L 13.1875 54.6875 
L 24.421875 12.015625 
L 35.59375 54.6875 
L 46.1875 54.6875 
L 57.421875 12.015625 
L 68.609375 54.6875 
L 77.59375 54.6875 
L 63.28125 0 
L 52.6875 0 
L 40.921875 44.828125 
L 29.109375 0 
L 18.5 0 
z
" id="DejaVuSans-119"/>
       <path d="M 34.28125 27.484375 
Q 23.390625 27.484375 19.1875 25 
Q 14.984375 22.515625 14.984375 16.5 
Q 14.984375 11.71875 18.140625 8.90625 
Q 21.296875 6.109375 26.703125 6.109375 
Q 34.1875 6.109375 38.703125 11.40625 
Q 43.21875 16.703125 43.21875 25.484375 
L 43.21875 27.484375 
z
M 52.203125 31.203125 
L 52.203125 0 
L 43.21875 0 
L 43.21875 8.296875 
Q 40.140625 3.328125 35.546875 0.953125 
Q 30.953125 -1.421875 24.3125 -1.421875 
Q 15.921875 -1.421875 10.953125 3.296875 
Q 6 8.015625 6 15.921875 
Q 6 25.140625 12.171875 29.828125 
Q 18.359375 34.515625 30.609375 34.515625 
L 43.21875 34.515625 
L 43.21875 35.40625 
Q 43.21875 41.609375 39.140625 45 
Q 35.0625 48.390625 27.6875 48.390625 
Q 23 48.390625 18.546875 47.265625 
Q 14.109375 46.140625 10.015625 43.890625 
L 10.015625 52.203125 
Q 14.9375 54.109375 19.578125 55.046875 
Q 24.21875 56 28.609375 56 
Q 40.484375 56 46.34375 49.84375 
Q 52.203125 43.703125 52.203125 31.203125 
z
" id="DejaVuSans-97"/>
       <path d="M 18.109375 8.203125 
L 18.109375 -20.796875 
L 9.078125 -20.796875 
L 9.078125 54.6875 
L 18.109375 54.6875 
L 18.109375 46.390625 
Q 20.953125 51.265625 25.265625 53.625 
Q 29.59375 56 35.59375 56 
Q 45.5625 56 51.78125 48.09375 
Q 58.015625 40.1875 58.015625 27.296875 
Q 58.015625 14.40625 51.78125 6.484375 
Q 45.5625 -1.421875 35.59375 -1.421875 
Q 29.59375 -1.421875 25.265625 0.953125 
Q 20.953125 3.328125 18.109375 8.203125 
z
M 48.6875 27.296875 
Q 48.6875 37.203125 44.609375 42.84375 
Q 40.53125 48.484375 33.40625 48.484375 
Q 26.265625 48.484375 22.1875 42.84375 
Q 18.109375 37.203125 18.109375 27.296875 
Q 18.109375 17.390625 22.1875 11.75 
Q 26.265625 6.109375 33.40625 6.109375 
Q 40.53125 6.109375 44.609375 11.75 
Q 48.6875 17.390625 48.6875 27.296875 
z
" id="DejaVuSans-112"/>
      </defs>
      <use xlink:href="#DejaVuSans-110"/>
      <use x="63.378906" xlink:href="#DejaVuSans-117"/>
      <use x="126.757812" xlink:href="#DejaVuSans-109"/>
      <use x="224.169922" xlink:href="#DejaVuSans-32"/>
      <use x="255.957031" xlink:href="#DejaVuSans-115"/>
      <use x="308.056641" xlink:href="#DejaVuSans-119"/>
      <use x="389.84375" xlink:href="#DejaVuSans-97"/>
      <use x="451.123047" xlink:href="#DejaVuSans-112"/>
      <use x="514.599609" xlink:href="#DejaVuSans-115"/>
     </g>
    </g>
   </g>
   <g id="matplotlib.axis_2">
    <g id="ytick_1">
     <g id="line2d_6">
      <defs>
       <path d="M 0 0 
L -3.5 0 
" id="mec174cd926" style="stroke:#000000;stroke-width:0.8;"/>
      </defs>
      <g>
       <use style="stroke:#000000;stroke-width:0.8;" x="57.6" xlink:href="#mec174cd926" y="283.889096"/>
      </g>
     </g>
     <g id="text_7">
      <!-- 220 -->
      <g transform="translate(31.5125 287.688315)scale(0.1 -0.1)">
       <use xlink:href="#DejaVuSans-50"/>
       <use x="63.623047" xlink:href="#DejaVuSans-50"/>
       <use x="127.246094" xlink:href="#DejaVuSans-48"/>
      </g>
     </g>
    </g>
    <g id="ytick_2">
     <g id="line2d_7">
      <g>
       <use style="stroke:#000000;stroke-width:0.8;" x="57.6" xlink:href="#mec174cd926" y="250.74937"/>
      </g>
     </g>
     <g id="text_8">
      <!-- 240 -->
      <g transform="translate(31.5125 254.548589)scale(0.1 -0.1)">
       <use xlink:href="#DejaVuSans-50"/>
       <use x="63.623047" xlink:href="#DejaVuSans-52"/>
       <use x="127.246094" xlink:href="#DejaVuSans-48"/>
      </g>
     </g>
    </g>
    <g id="ytick_3">
     <g id="line2d_8">
      <g>
       <use style="stroke:#000000;stroke-width:0.8;" x="57.6" xlink:href="#mec174cd926" y="217.609644"/>
      </g>
     </g>
     <g id="text_9">
      <!-- 260 -->
      <g transform="translate(31.5125 221.408863)scale(0.1 -0.1)">
       <defs>
        <path d="M 33.015625 40.375 
Q 26.375 40.375 22.484375 35.828125 
Q 18.609375 31.296875 18.609375 23.390625 
Q 18.609375 15.53125 22.484375 10.953125 
Q 26.375 6.390625 33.015625 6.390625 
Q 39.65625 6.390625 43.53125 10.953125 
Q 47.40625 15.53125 47.40625 23.390625 
Q 47.40625 31.296875 43.53125 35.828125 
Q 39.65625 40.375 33.015625 40.375 
z
M 52.59375 71.296875 
L 52.59375 62.3125 
Q 48.875 64.0625 45.09375 64.984375 
Q 41.3125 65.921875 37.59375 65.921875 
Q 27.828125 65.921875 22.671875 59.328125 
Q 17.53125 52.734375 16.796875 39.40625 
Q 19.671875 43.65625 24.015625 45.921875 
Q 28.375 48.1875 33.59375 48.1875 
Q 44.578125 48.1875 50.953125 41.515625 
Q 57.328125 34.859375 57.328125 23.390625 
Q 57.328125 12.15625 50.6875 5.359375 
Q 44.046875 -1.421875 33.015625 -1.421875 
Q 20.359375 -1.421875 13.671875 8.265625 
Q 6.984375 17.96875 6.984375 36.375 
Q 6.984375 53.65625 15.1875 63.9375 
Q 23.390625 74.21875 37.203125 74.21875 
Q 40.921875 74.21875 44.703125 73.484375 
Q 48.484375 72.75 52.59375 71.296875 
z
" id="DejaVuSans-54"/>
       </defs>
       <use xlink:href="#DejaVuSans-50"/>
       <use x="63.623047" xlink:href="#DejaVuSans-54"/>
       <use x="127.246094" xlink:href="#DejaVuSans-48"/>
      </g>
     </g>
    </g>
    <g id="ytick_4">
     <g id="line2d_9">
      <g>
       <use style="stroke:#000000;stroke-width:0.8;" x="57.6" xlink:href="#mec174cd926" y="184.469918"/>
      </g>
     </g>
     <g id="text_10">
      <!-- 280 -->
      <g transform="translate(31.5125 188.269137)scale(0.1 -0.1)">
       <defs>
        <path d="M 31.78125 34.625 
Q 24.75 34.625 20.71875 30.859375 
Q 16.703125 27.09375 16.703125 20.515625 
Q 16.703125 13.921875 20.71875 10.15625 
Q 24.75 6.390625 31.78125 6.390625 
Q 38.8125 6.390625 42.859375 10.171875 
Q 46.921875 13.96875 46.921875 20.515625 
Q 46.921875 27.09375 42.890625 30.859375 
Q 38.875 34.625 31.78125 34.625 
z
M 21.921875 38.8125 
Q 15.578125 40.375 12.03125 44.71875 
Q 8.5 49.078125 8.5 55.328125 
Q 8.5 64.0625 14.71875 69.140625 
Q 20.953125 74.21875 31.78125 74.21875 
Q 42.671875 74.21875 48.875 69.140625 
Q 55.078125 64.0625 55.078125 55.328125 
Q 55.078125 49.078125 51.53125 44.71875 
Q 48 40.375 41.703125 38.8125 
Q 48.828125 37.15625 52.796875 32.3125 
Q 56.78125 27.484375 56.78125 20.515625 
Q 56.78125 9.90625 50.3125 4.234375 
Q 43.84375 -1.421875 31.78125 -1.421875 
Q 19.734375 -1.421875 13.25 4.234375 
Q 6.78125 9.90625 6.78125 20.515625 
Q 6.78125 27.484375 10.78125 32.3125 
Q 14.796875 37.15625 21.921875 38.8125 
z
M 18.3125 54.390625 
Q 18.3125 48.734375 21.84375 45.5625 
Q 25.390625 42.390625 31.78125 42.390625 
Q 38.140625 42.390625 41.71875 45.5625 
Q 45.3125 48.734375 45.3125 54.390625 
Q 45.3125 60.0625 41.71875 63.234375 
Q 38.140625 66.40625 31.78125 66.40625 
Q 25.390625 66.40625 21.84375 63.234375 
Q 18.3125 60.0625 18.3125 54.390625 
z
" id="DejaVuSans-56"/>
       </defs>
       <use xlink:href="#DejaVuSans-50"/>
       <use x="63.623047" xlink:href="#DejaVuSans-56"/>
       <use x="127.246094" xlink:href="#DejaVuSans-48"/>
      </g>
     </g>
    </g>
    <g id="ytick_5">
     <g id="line2d_10">
      <g>
       <use style="stroke:#000000;stroke-width:0.8;" x="57.6" xlink:href="#mec174cd926" y="151.330192"/>
      </g>
     </g>
     <g id="text_11">
      <!-- 300 -->
      <g transform="translate(31.5125 155.129411)scale(0.1 -0.1)">
       <use xlink:href="#DejaVuSans-51"/>
       <use x="63.623047" xlink:href="#DejaVuSans-48"/>
       <use x="127.246094" xlink:href="#DejaVuSans-48"/>
      </g>
     </g>
    </g>
    <g id="ytick_6">
     <g id="line2d_11">
      <g>
       <use style="stroke:#000000;stroke-width:0.8;" x="57.6" xlink:href="#mec174cd926" y="118.190466"/>
      </g>
     </g>
     <g id="text_12">
      <!-- 320 -->
      <g transform="translate(31.5125 121.989685)scale(0.1 -0.1)">
       <use xlink:href="#DejaVuSans-51"/>
       <use x="63.623047" xlink:href="#DejaVuSans-50"/>
       <use x="127.246094" xlink:href="#DejaVuSans-48"/>
      </g>
     </g>
    </g>
    <g id="ytick_7">
     <g id="line2d_12">
      <g>
       <use style="stroke:#000000;stroke-width:0.8;" x="57.6" xlink:href="#mec174cd926" y="85.05074"/>
      </g>
     </g>
     <g id="text_13">
      <!-- 340 -->
      <g transform="translate(31.5125 88.849958)scale(0.1 -0.1)">
       <use xlink:href="#DejaVuSans-51"/>
       <use x="63.623047" xlink:href="#DejaVuSans-52"/>
       <use x="127.246094" xlink:href="#DejaVuSans-48"/>
      </g>
     </g>
    </g>
    <g id="ytick_8">
     <g id="line2d_13">
      <g>
       <use style="stroke:#000000;stroke-width:0.8;" x="57.6" xlink:href="#mec174cd926" y="51.911014"/>
      </g>
     </g>
     <g id="text_14">
      <!-- 360 -->
      <g transform="translate(31.5125 55.710232)scale(0.1 -0.1)">
       <use xlink:href="#DejaVuSans-51"/>
       <use x="63.623047" xlink:href="#DejaVuSans-54"/>
       <use x="127.246094" xlink:href="#DejaVuSans-48"/>
      </g>
     </g>
    </g>
    <g id="text_15">
     <!-- total cost -->
     <g transform="translate(25.432812 197.923313)rotate(-90)scale(0.1 -0.1)">
      <defs>
       <path d="M 18.3125 70.21875 
L 18.3125 54.6875 
L 36.8125 54.6875 
L 36.8125 47.703125 
L 18.3125 47.703125 
L 18.3125 18.015625 
Q 18.3125 11.328125 20.140625 9.421875 
Q 21.96875 7.515625 27.59375 7.515625 
L 36.8125 7.515625 
L 36.8125 0 
L 27.59375 0 
Q 17.1875 0 13.234375 3.875 
Q 9.28125 7.765625 9.28125 18.015625 
L 9.28125 47.703125 
L 2.6875 47.703125 
L 2.6875 54.6875 
L 9.28125 54.6875 
L 9.28125 70.21875 
z
" id="DejaVuSans-116"/>
       <path d="M 30.609375 48.390625 
Q 23.390625 48.390625 19.1875 42.75 
Q 14.984375 37.109375 14.984375 27.296875 
Q 14.984375 17.484375 19.15625 11.84375 
Q 23.34375 6.203125 30.609375 6.203125 
Q 37.796875 6.203125 41.984375 11.859375 
Q 46.1875 17.53125 46.1875 27.296875 
Q 46.1875 37.015625 41.984375 42.703125 
Q 37.796875 48.390625 30.609375 48.390625 
z
M 30.609375 56 
Q 42.328125 56 49.015625 48.375 
Q 55.71875 40.765625 55.71875 27.296875 
Q 55.71875 13.875 49.015625 6.21875 
Q 42.328125 -1.421875 30.609375 -1.421875 
Q 18.84375 -1.421875 12.171875 6.21875 
Q 5.515625 13.875 5.515625 27.296875 
Q 5.515625 40.765625 12.171875 48.375 
Q 18.84375 56 30.609375 56 
z
" id="DejaVuSans-111"/>
       <path d="M 9.421875 75.984375 
L 18.40625 75.984375 
L 18.40625 0 
L 9.421875 0 
z
" id="DejaVuSans-108"/>
       <path d="M 48.78125 52.59375 
L 48.78125 44.1875 
Q 44.96875 46.296875 41.140625 47.34375 
Q 37.3125 48.390625 33.40625 48.390625 
Q 24.65625 48.390625 19.8125 42.84375 
Q 14.984375 37.3125 14.984375 27.296875 
Q 14.984375 17.28125 19.8125 11.734375 
Q 24.65625 6.203125 33.40625 6.203125 
Q 37.3125 6.203125 41.140625 7.25 
Q 44.96875 8.296875 48.78125 10.40625 
L 48.78125 2.09375 
Q 45.015625 0.34375 40.984375 -0.53125 
Q 36.96875 -1.421875 32.421875 -1.421875 
Q 20.0625 -1.421875 12.78125 6.34375 
Q 5.515625 14.109375 5.515625 27.296875 
Q 5.515625 40.671875 12.859375 48.328125 
Q 20.21875 56 33.015625 56 
Q 37.15625 56 41.109375 55.140625 
Q 45.0625 54.296875 48.78125 52.59375 
z
" id="DejaVuSans-99"/>
      </defs>
      <use xlink:href="#DejaVuSans-116"/>
      <use x="39.208984" xlink:href="#DejaVuSans-111"/>
      <use x="100.390625" xlink:href="#DejaVuSans-116"/>
      <use x="139.599609" xlink:href="#DejaVuSans-97"/>
      <use x="200.878906" xlink:href="#DejaVuSans-108"/>
      <use x="228.662109" xlink:href="#DejaVuSans-32"/>
      <use x="260.449219" xlink:href="#DejaVuSans-99"/>
      <use x="315.429688" xlink:href="#DejaVuSans-111"/>
      <use x="376.611328" xlink:href="#DejaVuSans-115"/>
      <use x="428.710938" xlink:href="#DejaVuSans-116"/>
     </g>
    </g>
   </g>
   <g id="line2d_14">
    <path clip-path="url(#pe3fbef7dc0)" d="M 73.832727 63.509918 
L 74.41559 81.736767 
L 74.998453 73.451836 
L 75.581315 81.736767 
L 76.164178 99.963616 
L 76.747041 106.591562 
L 77.329904 93.335671 
L 77.912766 88.364712 
L 78.495629 90.021699 
L 79.078492 90.021699 
L 79.661355 98.30663 
L 80.244217 76.765808 
L 80.82708 93.335671 
L 81.409943 86.707726 
L 81.992806 86.707726 
L 82.575668 90.021699 
L 83.158531 94.992658 
L 83.741394 86.707726 
L 84.324257 94.992658 
L 84.907119 94.992658 
L 85.489982 99.963616 
L 86.072845 93.335671 
L 86.655708 91.678685 
L 87.23857 96.649644 
L 87.821433 133.103342 
L 88.404296 116.533479 
L 88.987158 119.847452 
L 89.570021 133.103342 
L 90.152884 138.074301 
L 90.735747 118.190466 
L 91.318609 86.707726 
L 91.901472 63.509918 
L 92.484335 78.422795 
L 93.067198 90.021699 
L 93.65006 88.364712 
L 94.232923 108.248548 
L 94.815786 98.30663 
L 95.398649 81.736767 
L 95.981511 70.137863 
L 96.564374 90.021699 
L 97.147237 93.335671 
L 97.7301 86.707726 
L 98.312962 71.794849 
L 98.895825 86.707726 
L 99.478688 91.678685 
L 100.061551 104.934575 
L 100.644413 103.277589 
L 101.227276 103.277589 
L 101.810139 111.562521 
L 102.393001 104.934575 
L 102.975864 101.620603 
L 103.558727 86.707726 
L 104.14159 66.82389 
L 104.724452 78.422795 
L 105.307315 76.765808 
L 105.890178 104.934575 
L 107.055903 111.562521 
L 107.638766 90.021699 
L 108.804492 114.876493 
L 109.387354 104.934575 
L 109.970217 71.794849 
L 110.55308 63.509918 
L 111.135943 94.992658 
L 111.718805 94.992658 
L 112.301668 109.905534 
L 112.884531 111.562521 
L 113.467394 96.649644 
L 114.050256 85.05074 
L 114.633119 81.736767 
L 115.215982 68.480877 
L 115.798844 80.079781 
L 116.381707 83.393753 
L 116.96457 78.422795 
L 117.547433 78.422795 
L 118.130295 81.736767 
L 118.713158 61.852932 
L 119.296021 71.794849 
L 119.878884 71.794849 
L 120.461746 56.881973 
L 121.044609 60.195945 
L 121.627472 98.30663 
L 122.210335 68.480877 
L 122.793197 60.195945 
L 123.37606 81.736767 
L 123.958923 90.021699 
L 124.541786 96.649644 
L 125.124648 91.678685 
L 125.707511 114.876493 
L 126.290374 121.504438 
L 126.873236 101.620603 
L 127.456099 104.934575 
L 128.038962 119.847452 
L 128.621825 119.847452 
L 129.204687 111.562521 
L 129.78755 114.876493 
L 130.370413 106.591562 
L 130.953276 86.707726 
L 131.536138 96.649644 
L 132.119001 99.963616 
L 132.701864 101.620603 
L 133.284727 90.021699 
L 133.867589 81.736767 
L 134.450452 99.963616 
L 135.033315 108.248548 
L 135.616178 93.335671 
L 136.781903 96.649644 
L 137.364766 80.079781 
L 137.947629 75.108822 
L 139.113354 108.248548 
L 139.696217 96.649644 
L 140.279079 109.905534 
L 140.861942 111.562521 
L 141.444805 83.393753 
L 142.027668 73.451836 
L 142.61053 76.765808 
L 143.193393 93.335671 
L 143.776256 75.108822 
L 144.359119 76.765808 
L 145.524844 113.219507 
L 146.107707 104.934575 
L 146.69057 90.021699 
L 147.273432 70.137863 
L 147.856295 55.224986 
L 149.022021 101.620603 
L 149.604883 101.620603 
L 150.187746 93.335671 
L 150.770609 113.219507 
L 151.353472 101.620603 
L 151.936334 126.475397 
L 152.519197 134.760329 
L 153.10206 94.992658 
L 153.684922 106.591562 
L 154.267785 106.591562 
L 154.850648 104.934575 
L 155.433511 101.620603 
L 156.016373 90.021699 
L 156.599236 104.934575 
L 157.182099 116.533479 
L 157.764962 109.905534 
L 158.347824 104.934575 
L 158.930687 94.992658 
L 159.51355 63.509918 
L 160.096413 85.05074 
L 160.679275 93.335671 
L 161.262138 88.364712 
L 161.845001 81.736767 
L 162.427864 83.393753 
L 163.010726 90.021699 
L 163.593589 78.422795 
L 164.176452 85.05074 
L 164.759315 78.422795 
L 165.342177 88.364712 
L 165.92504 90.021699 
L 166.507903 124.818411 
L 167.090765 124.818411 
L 167.673628 121.504438 
L 168.256491 116.533479 
L 168.839354 101.620603 
L 169.422216 83.393753 
L 170.587942 93.335671 
L 171.170805 94.992658 
L 171.753667 90.021699 
L 172.33653 71.794849 
L 172.919393 85.05074 
L 173.502256 83.393753 
L 174.085118 106.591562 
L 174.667981 114.876493 
L 175.250844 98.30663 
L 175.833707 104.934575 
L 176.416569 103.277589 
L 176.999432 106.591562 
L 177.582295 99.963616 
L 178.165157 104.934575 
L 178.74802 124.818411 
L 179.913746 121.504438 
L 180.496608 103.277589 
L 181.079471 118.190466 
L 181.662334 96.649644 
L 182.245197 111.562521 
L 182.828059 99.963616 
L 183.993785 119.847452 
L 184.576648 119.847452 
L 185.15951 116.533479 
L 185.742373 128.132384 
L 186.325236 109.905534 
L 186.908099 113.219507 
L 187.490961 109.905534 
L 188.073824 104.934575 
L 188.656687 93.335671 
L 189.23955 93.335671 
L 189.822412 108.248548 
L 190.405275 101.620603 
L 190.988138 103.277589 
L 191.571 111.562521 
L 192.153863 96.649644 
L 192.736726 103.277589 
L 193.319589 128.132384 
L 193.902451 114.876493 
L 194.485314 104.934575 
L 195.068177 106.591562 
L 195.65104 88.364712 
L 196.233902 91.678685 
L 196.816765 108.248548 
L 197.399628 85.05074 
L 197.982491 78.422795 
L 198.565353 96.649644 
L 199.148216 91.678685 
L 199.731079 80.079781 
L 200.313942 86.707726 
L 200.896804 94.992658 
L 201.479667 101.620603 
L 202.06253 118.190466 
L 202.645393 123.161425 
L 203.228255 123.161425 
L 203.811118 86.707726 
L 204.393981 76.765808 
L 204.976843 101.620603 
L 206.725432 53.568 
L 207.308294 80.079781 
L 207.891157 81.736767 
L 208.47402 61.852932 
L 209.056883 76.765808 
L 209.639745 80.079781 
L 210.222608 70.137863 
L 210.805471 80.079781 
L 211.971196 58.538959 
L 212.554059 65.166904 
L 213.136922 124.818411 
L 213.719785 108.248548 
L 214.302647 114.876493 
L 214.88551 119.847452 
L 215.468373 108.248548 
L 216.051236 114.876493 
L 216.634098 103.277589 
L 217.216961 99.963616 
L 217.799824 86.707726 
L 218.965549 119.847452 
L 219.548412 118.190466 
L 220.131275 121.504438 
L 220.714137 104.934575 
L 221.879863 78.422795 
L 222.462726 70.137863 
L 223.045588 68.480877 
L 223.628451 78.422795 
L 224.211314 78.422795 
L 224.794177 81.736767 
L 225.377039 86.707726 
L 225.959902 75.108822 
L 226.542765 101.620603 
L 227.125628 93.335671 
L 227.70849 96.649644 
L 228.291353 94.992658 
L 228.874216 88.364712 
L 229.457079 103.277589 
L 230.039941 104.934575 
L 230.622804 99.963616 
L 231.205667 111.562521 
L 231.788529 118.190466 
L 232.371392 138.074301 
L 232.954255 131.446356 
L 233.537118 138.074301 
L 234.11998 143.04526 
L 234.702843 138.074301 
L 235.285706 146.359233 
L 235.868569 141.388274 
L 236.451431 123.161425 
L 237.034294 94.992658 
L 237.617157 73.451836 
L 238.20002 91.678685 
L 238.782882 119.847452 
L 239.365745 128.132384 
L 239.948608 114.876493 
L 240.531471 128.132384 
L 241.114333 113.219507 
L 241.697196 128.132384 
L 242.280059 124.818411 
L 242.862921 119.847452 
L 243.445784 96.649644 
L 244.61151 96.649644 
L 245.194372 94.992658 
L 245.777235 86.707726 
L 246.360098 81.736767 
L 246.942961 98.30663 
L 247.525823 90.021699 
L 248.108686 104.934575 
L 248.691549 106.591562 
L 249.274412 116.533479 
L 249.857274 109.905534 
L 250.440137 114.876493 
L 251.023 104.934575 
L 251.605863 106.591562 
L 252.188725 113.219507 
L 252.771588 118.190466 
L 253.354451 109.905534 
L 253.937314 90.021699 
L 254.520176 101.620603 
L 255.103039 99.963616 
L 255.685902 116.533479 
L 256.268764 138.074301 
L 256.851627 128.132384 
L 257.43449 121.504438 
L 258.017353 123.161425 
L 258.600215 106.591562 
L 259.183078 124.818411 
L 259.765941 133.103342 
L 260.348804 116.533479 
L 260.931666 123.161425 
L 261.514529 119.847452 
L 262.097392 103.277589 
L 262.680255 116.533479 
L 263.84598 116.533479 
L 264.428843 123.161425 
L 265.011706 123.161425 
L 265.594568 108.248548 
L 266.177431 111.562521 
L 266.760294 104.934575 
L 267.343157 116.533479 
L 267.926019 109.905534 
L 268.508882 106.591562 
L 269.091745 131.446356 
L 269.674607 139.731288 
L 270.25747 121.504438 
L 270.840333 111.562521 
L 272.006058 118.190466 
L 272.588921 123.161425 
L 273.171784 98.30663 
L 273.754647 78.422795 
L 274.337509 109.905534 
L 274.920372 109.905534 
L 275.503235 113.219507 
L 276.086098 113.219507 
L 276.66896 134.760329 
L 277.251823 131.446356 
L 277.834686 136.417315 
L 278.417549 152.987178 
L 279.000411 134.760329 
L 279.583274 128.132384 
L 280.166137 148.016219 
L 280.749 144.702247 
L 281.914725 134.760329 
L 282.497588 134.760329 
L 283.08045 146.359233 
L 283.663313 143.04526 
L 284.246176 149.673205 
L 284.829039 162.929096 
L 285.411901 148.016219 
L 285.994764 146.359233 
L 286.577627 141.388274 
L 287.16049 148.016219 
L 287.743352 148.016219 
L 288.326215 154.644164 
L 288.909078 149.673205 
L 289.491941 141.388274 
L 290.074803 149.673205 
L 290.657666 143.04526 
L 291.240529 126.475397 
L 291.823392 124.818411 
L 292.406254 149.673205 
L 292.989117 139.731288 
L 293.57198 134.760329 
L 294.154843 157.958137 
L 294.737705 156.301151 
L 295.320568 149.673205 
L 295.903431 144.702247 
L 296.486293 141.388274 
L 297.069156 124.818411 
L 297.652019 129.78937 
L 298.234882 139.731288 
L 298.817744 129.78937 
L 299.400607 139.731288 
L 299.98347 128.132384 
L 300.566333 138.074301 
L 301.149195 126.475397 
L 302.314921 157.958137 
L 302.897784 151.330192 
L 303.480646 156.301151 
L 304.063509 148.016219 
L 304.646372 128.132384 
L 305.229235 138.074301 
L 305.812097 144.702247 
L 306.39496 141.388274 
L 306.977823 133.103342 
L 308.143548 149.673205 
L 308.726411 133.103342 
L 309.309274 159.615123 
L 309.892136 154.644164 
L 310.474999 133.103342 
L 311.057862 118.190466 
L 311.640725 141.388274 
L 312.223587 131.446356 
L 312.80645 136.417315 
L 313.389313 149.673205 
L 313.972176 141.388274 
L 314.555038 151.330192 
L 315.137901 148.016219 
L 315.720764 167.900055 
L 316.303627 149.673205 
L 316.886489 152.987178 
L 317.469352 169.557041 
L 318.052215 176.184986 
L 318.635078 166.243068 
L 319.21794 176.184986 
L 319.800803 177.841973 
L 320.383666 161.27211 
L 320.966528 164.586082 
L 321.549391 156.301151 
L 322.715117 169.557041 
L 323.297979 172.871014 
L 323.880842 174.528 
L 324.463705 177.841973 
L 325.046568 176.184986 
L 326.212293 162.929096 
L 326.795156 164.586082 
L 327.378019 184.469918 
L 327.960881 192.754849 
L 328.543744 194.411836 
L 329.126607 197.725808 
L 329.70947 189.440877 
L 330.292332 196.068822 
L 330.875195 206.01074 
L 331.458058 192.754849 
L 332.040921 191.097863 
L 332.623783 182.812932 
L 333.206646 186.126904 
L 333.789509 172.871014 
L 334.372371 171.214027 
L 334.955234 181.155945 
L 335.538097 202.696767 
L 336.12096 202.696767 
L 336.703822 177.841973 
L 337.286685 189.440877 
L 339.035273 209.324712 
L 339.618136 212.638685 
L 340.200999 209.324712 
L 340.783862 207.667726 
L 341.366724 219.26663 
L 341.949587 220.923616 
L 342.53245 230.865534 
L 343.115313 237.493479 
L 343.698175 234.179507 
L 344.281038 235.836493 
L 344.863901 250.74937 
L 345.446764 254.063342 
L 346.029626 255.720329 
L 346.612489 245.778411 
L 347.195352 227.551562 
L 347.778214 224.237589 
L 348.361077 232.522521 
L 348.94394 242.464438 
L 349.526803 232.522521 
L 350.109665 249.092384 
L 350.692528 259.034301 
L 351.275391 264.00526 
L 351.858254 254.063342 
L 352.441116 255.720329 
L 353.023979 265.662247 
L 353.606842 262.348274 
L 354.189705 264.00526 
L 354.772567 250.74937 
L 355.35543 252.406356 
L 355.938293 245.778411 
L 357.104018 259.034301 
L 357.686881 268.976219 
L 358.852606 265.662247 
L 360.018332 265.662247 
L 360.601195 264.00526 
L 361.184057 265.662247 
L 361.76692 239.150466 
L 362.349783 232.522521 
L 362.932646 239.150466 
L 363.515508 234.179507 
L 364.681234 244.121425 
L 365.264097 245.778411 
L 365.846959 260.691288 
L 366.429822 250.74937 
L 367.012685 257.377315 
L 368.17841 264.00526 
L 368.761273 255.720329 
L 369.344136 252.406356 
L 369.926999 244.121425 
L 370.509861 252.406356 
L 371.092724 265.662247 
L 371.675587 272.290192 
L 372.258449 275.604164 
L 372.841312 259.034301 
L 373.424175 262.348274 
L 374.5899 272.290192 
L 375.172763 270.633205 
L 375.755626 267.319233 
L 376.338489 259.034301 
L 376.921351 262.348274 
L 377.504214 272.290192 
L 378.087077 273.947178 
L 378.66994 268.976219 
L 379.252802 277.261151 
L 379.835665 272.290192 
L 380.418528 277.261151 
L 381.001391 283.889096 
L 381.584253 292.174027 
L 382.167116 293.831014 
L 383.332842 273.947178 
L 383.915704 277.261151 
L 384.498567 272.290192 
L 385.08143 290.517041 
L 385.664292 295.488 
L 386.830018 295.488 
L 387.412881 288.860055 
L 387.995743 288.860055 
L 388.578606 283.889096 
L 389.161469 283.889096 
L 389.744332 287.203068 
L 390.327194 282.23211 
L 390.910057 283.889096 
L 391.49292 278.918137 
L 392.075783 277.261151 
L 392.658645 285.546082 
L 393.241508 283.889096 
L 393.824371 277.261151 
L 394.407234 287.203068 
L 394.990096 283.889096 
L 396.155822 287.203068 
L 396.738685 287.203068 
L 397.321547 277.261151 
L 397.90441 275.604164 
L 398.487273 265.662247 
L 398.487273 265.662247 
" style="fill:none;stroke:#1f77b4;stroke-linecap:square;stroke-width:1.5;"/>
   </g>
   <g id="patch_3">
    <path d="M 57.6 307.584 
L 57.6 41.472 
" style="fill:none;stroke:#000000;stroke-linecap:square;stroke-linejoin:miter;stroke-width:0.8;"/>
   </g>
   <g id="patch_4">
    <path d="M 414.72 307.584 
L 414.72 41.472 
" style="fill:none;stroke:#000000;stroke-linecap:square;stroke-linejoin:miter;stroke-width:0.8;"/>
   </g>
   <g id="patch_5">
    <path d="M 57.6 307.584 
L 414.72 307.584 
" style="fill:none;stroke:#000000;stroke-linecap:square;stroke-linejoin:miter;stroke-width:0.8;"/>
   </g>
   <g id="patch_6">
    <path d="M 57.6 41.472 
L 414.72 41.472 
" style="fill:none;stroke:#000000;stroke-linecap:square;stroke-linejoin:miter;stroke-width:0.8;"/>
   </g>
   <g id="text_16">
    <!-- Simulated Anealling Cost -->
    <g transform="translate(160.8 35.472)scale(0.12 -0.12)">
     <defs>
      <path d="M 53.515625 70.515625 
L 53.515625 60.890625 
Q 47.90625 63.578125 42.921875 64.890625 
Q 37.9375 66.21875 33.296875 66.21875 
Q 25.25 66.21875 20.875 63.09375 
Q 16.5 59.96875 16.5 54.203125 
Q 16.5 49.359375 19.40625 46.890625 
Q 22.3125 44.4375 30.421875 42.921875 
L 36.375 41.703125 
Q 47.40625 39.59375 52.65625 34.296875 
Q 57.90625 29 57.90625 20.125 
Q 57.90625 9.515625 50.796875 4.046875 
Q 43.703125 -1.421875 29.984375 -1.421875 
Q 24.8125 -1.421875 18.96875 -0.25 
Q 13.140625 0.921875 6.890625 3.21875 
L 6.890625 13.375 
Q 12.890625 10.015625 18.65625 8.296875 
Q 24.421875 6.59375 29.984375 6.59375 
Q 38.421875 6.59375 43.015625 9.90625 
Q 47.609375 13.234375 47.609375 19.390625 
Q 47.609375 24.75 44.3125 27.78125 
Q 41.015625 30.8125 33.5 32.328125 
L 27.484375 33.5 
Q 16.453125 35.6875 11.515625 40.375 
Q 6.59375 45.0625 6.59375 53.421875 
Q 6.59375 63.09375 13.40625 68.65625 
Q 20.21875 74.21875 32.171875 74.21875 
Q 37.3125 74.21875 42.625 73.28125 
Q 47.953125 72.359375 53.515625 70.515625 
z
" id="DejaVuSans-83"/>
      <path d="M 9.421875 54.6875 
L 18.40625 54.6875 
L 18.40625 0 
L 9.421875 0 
z
M 9.421875 75.984375 
L 18.40625 75.984375 
L 18.40625 64.59375 
L 9.421875 64.59375 
z
" id="DejaVuSans-105"/>
      <path d="M 56.203125 29.59375 
L 56.203125 25.203125 
L 14.890625 25.203125 
Q 15.484375 15.921875 20.484375 11.0625 
Q 25.484375 6.203125 34.421875 6.203125 
Q 39.59375 6.203125 44.453125 7.46875 
Q 49.3125 8.734375 54.109375 11.28125 
L 54.109375 2.78125 
Q 49.265625 0.734375 44.1875 -0.34375 
Q 39.109375 -1.421875 33.890625 -1.421875 
Q 20.796875 -1.421875 13.15625 6.1875 
Q 5.515625 13.8125 5.515625 26.8125 
Q 5.515625 40.234375 12.765625 48.109375 
Q 20.015625 56 32.328125 56 
Q 43.359375 56 49.78125 48.890625 
Q 56.203125 41.796875 56.203125 29.59375 
z
M 47.21875 32.234375 
Q 47.125 39.59375 43.09375 43.984375 
Q 39.0625 48.390625 32.421875 48.390625 
Q 24.90625 48.390625 20.390625 44.140625 
Q 15.875 39.890625 15.1875 32.171875 
z
" id="DejaVuSans-101"/>
      <path d="M 45.40625 46.390625 
L 45.40625 75.984375 
L 54.390625 75.984375 
L 54.390625 0 
L 45.40625 0 
L 45.40625 8.203125 
Q 42.578125 3.328125 38.25 0.953125 
Q 33.9375 -1.421875 27.875 -1.421875 
Q 17.96875 -1.421875 11.734375 6.484375 
Q 5.515625 14.40625 5.515625 27.296875 
Q 5.515625 40.1875 11.734375 48.09375 
Q 17.96875 56 27.875 56 
Q 33.9375 56 38.25 53.625 
Q 42.578125 51.265625 45.40625 46.390625 
z
M 14.796875 27.296875 
Q 14.796875 17.390625 18.875 11.75 
Q 22.953125 6.109375 30.078125 6.109375 
Q 37.203125 6.109375 41.296875 11.75 
Q 45.40625 17.390625 45.40625 27.296875 
Q 45.40625 37.203125 41.296875 42.84375 
Q 37.203125 48.484375 30.078125 48.484375 
Q 22.953125 48.484375 18.875 42.84375 
Q 14.796875 37.203125 14.796875 27.296875 
z
" id="DejaVuSans-100"/>
      <path d="M 34.1875 63.1875 
L 20.796875 26.90625 
L 47.609375 26.90625 
z
M 28.609375 72.90625 
L 39.796875 72.90625 
L 67.578125 0 
L 57.328125 0 
L 50.6875 18.703125 
L 17.828125 18.703125 
L 11.1875 0 
L 0.78125 0 
z
" id="DejaVuSans-65"/>
      <path d="M 45.40625 27.984375 
Q 45.40625 37.75 41.375 43.109375 
Q 37.359375 48.484375 30.078125 48.484375 
Q 22.859375 48.484375 18.828125 43.109375 
Q 14.796875 37.75 14.796875 27.984375 
Q 14.796875 18.265625 18.828125 12.890625 
Q 22.859375 7.515625 30.078125 7.515625 
Q 37.359375 7.515625 41.375 12.890625 
Q 45.40625 18.265625 45.40625 27.984375 
z
M 54.390625 6.78125 
Q 54.390625 -7.171875 48.1875 -13.984375 
Q 42 -20.796875 29.203125 -20.796875 
Q 24.46875 -20.796875 20.265625 -20.09375 
Q 16.0625 -19.390625 12.109375 -17.921875 
L 12.109375 -9.1875 
Q 16.0625 -11.328125 19.921875 -12.34375 
Q 23.78125 -13.375 27.78125 -13.375 
Q 36.625 -13.375 41.015625 -8.765625 
Q 45.40625 -4.15625 45.40625 5.171875 
L 45.40625 9.625 
Q 42.625 4.78125 38.28125 2.390625 
Q 33.9375 0 27.875 0 
Q 17.828125 0 11.671875 7.65625 
Q 5.515625 15.328125 5.515625 27.984375 
Q 5.515625 40.671875 11.671875 48.328125 
Q 17.828125 56 27.875 56 
Q 33.9375 56 38.28125 53.609375 
Q 42.625 51.21875 45.40625 46.390625 
L 45.40625 54.6875 
L 54.390625 54.6875 
z
" id="DejaVuSans-103"/>
      <path d="M 64.40625 67.28125 
L 64.40625 56.890625 
Q 59.421875 61.53125 53.78125 63.8125 
Q 48.140625 66.109375 41.796875 66.109375 
Q 29.296875 66.109375 22.65625 58.46875 
Q 16.015625 50.828125 16.015625 36.375 
Q 16.015625 21.96875 22.65625 14.328125 
Q 29.296875 6.6875 41.796875 6.6875 
Q 48.140625 6.6875 53.78125 8.984375 
Q 59.421875 11.28125 64.40625 15.921875 
L 64.40625 5.609375 
Q 59.234375 2.09375 53.4375 0.328125 
Q 47.65625 -1.421875 41.21875 -1.421875 
Q 24.65625 -1.421875 15.125 8.703125 
Q 5.609375 18.84375 5.609375 36.375 
Q 5.609375 53.953125 15.125 64.078125 
Q 24.65625 74.21875 41.21875 74.21875 
Q 47.75 74.21875 53.53125 72.484375 
Q 59.328125 70.75 64.40625 67.28125 
z
" id="DejaVuSans-67"/>
     </defs>
     <use xlink:href="#DejaVuSans-83"/>
     <use x="63.476562" xlink:href="#DejaVuSans-105"/>
     <use x="91.259766" xlink:href="#DejaVuSans-109"/>
     <use x="188.671875" xlink:href="#DejaVuSans-117"/>
     <use x="252.050781" xlink:href="#DejaVuSans-108"/>
     <use x="279.833984" xlink:href="#DejaVuSans-97"/>
     <use x="341.113281" xlink:href="#DejaVuSans-116"/>
     <use x="380.322266" xlink:href="#DejaVuSans-101"/>
     <use x="441.845703" xlink:href="#DejaVuSans-100"/>
     <use x="505.322266" xlink:href="#DejaVuSans-32"/>
     <use x="537.109375" xlink:href="#DejaVuSans-65"/>
     <use x="605.517578" xlink:href="#DejaVuSans-110"/>
     <use x="668.896484" xlink:href="#DejaVuSans-101"/>
     <use x="730.419922" xlink:href="#DejaVuSans-97"/>
     <use x="791.699219" xlink:href="#DejaVuSans-108"/>
     <use x="819.482422" xlink:href="#DejaVuSans-108"/>
     <use x="847.265625" xlink:href="#DejaVuSans-105"/>
     <use x="875.048828" xlink:href="#DejaVuSans-110"/>
     <use x="938.427734" xlink:href="#DejaVuSans-103"/>
     <use x="1001.904297" xlink:href="#DejaVuSans-32"/>
     <use x="1033.691406" xlink:href="#DejaVuSans-67"/>
     <use x="1103.515625" xlink:href="#DejaVuSans-111"/>
     <use x="1164.697266" xlink:href="#DejaVuSans-115"/>
     <use x="1216.796875" xlink:href="#DejaVuSans-116"/>
    </g>
   </g>
  </g>
 </g>
 <defs>
  <clipPath id="pe3fbef7dc0">
   <rect height="266.112" width="357.12" x="57.6" y="41.472"/>
  </clipPath>
 </defs>
</svg>
