<?xml version="1.0" encoding="utf-8" standalone="no"?>
<!DOCTYPE svg PUBLIC "-//W3C//DTD SVG 1.1//EN"
  "http://www.w3.org/Graphics/SVG/1.1/DTD/svg11.dtd">
<svg xmlns:xlink="http://www.w3.org/1999/xlink" width="460.8pt" height="345.6pt" viewBox="0 0 460.8 345.6" xmlns="http://www.w3.org/2000/svg" version="1.1">
 <metadata>
  <rdf:RDF xmlns:dc="http://purl.org/dc/elements/1.1/" xmlns:cc="http://creativecommons.org/ns#" xmlns:rdf="http://www.w3.org/1999/02/22-rdf-syntax-ns#">
   <cc:Work>
    <dc:type rdf:resource="http://purl.org/dc/dcmitype/StillImage"/>
    <dc:date>2022-06-01T08:05:19.010462</dc:date>
    <dc:format>image/svg+xml</dc:format>
    <dc:creator>
     <cc:Agent>
      <dc:title>Matplotlib v3.5.1, https://matplotlib.org/</dc:title>
     </cc:Agent>
    </dc:creator>
   </cc:Work>
  </rdf:RDF>
 </metadata>
 <defs>
  <style type="text/css">*{stroke-linejoin: round; stroke-linecap: butt}</style>
 </defs>
 <g id="figure_1">
  <g id="patch_1">
   <path d="M 0 345.6 
L 460.8 345.6 
L 460.8 0 
L 0 0 
z
" style="fill: #ffffff"/>
  </g>
  <g id="axes_1">
   <g id="patch_2">
    <path d="M 57.6 307.584 
L 414.72 307.584 
L 414.72 41.472 
L 57.6 41.472 
z
" style="fill: #ffffff"/>
   </g>
   <g id="matplotlib.axis_1">
    <g id="xtick_1">
     <g id="line2d_1">
      <defs>
       <path id="mdc0fdbbb0f" d="M 0 0 
L 0 3.5 
" style="stroke: #000000; stroke-width: 0.8"/>
      </defs>
      <g>
       <use xlink:href="#mdc0fdbbb0f" x="73.832727" y="307.584" style="stroke: #000000; stroke-width: 0.8"/>
      </g>
     </g>
     <g id="text_1">
      <!-- 0 -->
      <g transform="translate(70.651477 322.182437)scale(0.1 -0.1)">
       <defs>
        <path id="DejaVuSans-30" d="M 2034 4250 
Q 1547 4250 1301 3770 
Q 1056 3291 1056 2328 
Q 1056 1369 1301 889 
Q 1547 409 2034 409 
Q 2525 409 2770 889 
Q 3016 1369 3016 2328 
Q 3016 3291 2770 3770 
Q 2525 4250 2034 4250 
z
M 2034 4750 
Q 2819 4750 3233 4129 
Q 3647 3509 3647 2328 
Q 3647 1150 3233 529 
Q 2819 -91 2034 -91 
Q 1250 -91 836 529 
Q 422 1150 422 2328 
Q 422 3509 836 4129 
Q 1250 4750 2034 4750 
z
" transform="scale(0.015625)"/>
       </defs>
       <use xlink:href="#DejaVuSans-30"/>
      </g>
     </g>
    </g>
    <g id="xtick_2">
     <g id="line2d_2">
      <g>
       <use xlink:href="#mdc0fdbbb0f" x="144.717999" y="307.584" style="stroke: #000000; stroke-width: 0.8"/>
      </g>
     </g>
     <g id="text_2">
      <!-- 500 -->
      <g transform="translate(135.174249 322.182437)scale(0.1 -0.1)">
       <defs>
        <path id="DejaVuSans-35" d="M 691 4666 
L 3169 4666 
L 3169 4134 
L 1269 4134 
L 1269 2991 
Q 1406 3038 1543 3061 
Q 1681 3084 1819 3084 
Q 2600 3084 3056 2656 
Q 3513 2228 3513 1497 
Q 3513 744 3044 326 
Q 2575 -91 1722 -91 
Q 1428 -91 1123 -41 
Q 819 9 494 109 
L 494 744 
Q 775 591 1075 516 
Q 1375 441 1709 441 
Q 2250 441 2565 725 
Q 2881 1009 2881 1497 
Q 2881 1984 2565 2268 
Q 2250 2553 1709 2553 
Q 1456 2553 1204 2497 
Q 953 2441 691 2322 
L 691 4666 
z
" transform="scale(0.015625)"/>
       </defs>
       <use xlink:href="#DejaVuSans-35"/>
       <use xlink:href="#DejaVuSans-30" x="63.623047"/>
       <use xlink:href="#DejaVuSans-30" x="127.246094"/>
      </g>
     </g>
    </g>
    <g id="xtick_3">
     <g id="line2d_3">
      <g>
       <use xlink:href="#mdc0fdbbb0f" x="215.603271" y="307.584" style="stroke: #000000; stroke-width: 0.8"/>
      </g>
     </g>
     <g id="text_3">
      <!-- 1000 -->
      <g transform="translate(202.878271 322.182437)scale(0.1 -0.1)">
       <defs>
        <path id="DejaVuSans-31" d="M 794 531 
L 1825 531 
L 1825 4091 
L 703 3866 
L 703 4441 
L 1819 4666 
L 2450 4666 
L 2450 531 
L 3481 531 
L 3481 0 
L 794 0 
L 794 531 
z
" transform="scale(0.015625)"/>
       </defs>
       <use xlink:href="#DejaVuSans-31"/>
       <use xlink:href="#DejaVuSans-30" x="63.623047"/>
       <use xlink:href="#DejaVuSans-30" x="127.246094"/>
       <use xlink:href="#DejaVuSans-30" x="190.869141"/>
      </g>
     </g>
    </g>
    <g id="xtick_4">
     <g id="line2d_4">
      <g>
       <use xlink:href="#mdc0fdbbb0f" x="286.488543" y="307.584" style="stroke: #000000; stroke-width: 0.8"/>
      </g>
     </g>
     <g id="text_4">
      <!-- 1500 -->
      <g transform="translate(273.763543 322.182437)scale(0.1 -0.1)">
       <use xlink:href="#DejaVuSans-31"/>
       <use xlink:href="#DejaVuSans-35" x="63.623047"/>
       <use xlink:href="#DejaVuSans-30" x="127.246094"/>
       <use xlink:href="#DejaVuSans-30" x="190.869141"/>
      </g>
     </g>
    </g>
    <g id="xtick_5">
     <g id="line2d_5">
      <g>
       <use xlink:href="#mdc0fdbbb0f" x="357.373815" y="307.584" style="stroke: #000000; stroke-width: 0.8"/>
      </g>
     </g>
     <g id="text_5">
      <!-- 2000 -->
      <g transform="translate(344.648815 322.182437)scale(0.1 -0.1)">
       <defs>
        <path id="DejaVuSans-32" d="M 1228 531 
L 3431 531 
L 3431 0 
L 469 0 
L 469 531 
Q 828 903 1448 1529 
Q 2069 2156 2228 2338 
Q 2531 2678 2651 2914 
Q 2772 3150 2772 3378 
Q 2772 3750 2511 3984 
Q 2250 4219 1831 4219 
Q 1534 4219 1204 4116 
Q 875 4013 500 3803 
L 500 4441 
Q 881 4594 1212 4672 
Q 1544 4750 1819 4750 
Q 2544 4750 2975 4387 
Q 3406 4025 3406 3419 
Q 3406 3131 3298 2873 
Q 3191 2616 2906 2266 
Q 2828 2175 2409 1742 
Q 1991 1309 1228 531 
z
" transform="scale(0.015625)"/>
       </defs>
       <use xlink:href="#DejaVuSans-32"/>
       <use xlink:href="#DejaVuSans-30" x="63.623047"/>
       <use xlink:href="#DejaVuSans-30" x="127.246094"/>
       <use xlink:href="#DejaVuSans-30" x="190.869141"/>
      </g>
     </g>
    </g>
    <g id="text_6">
     <!-- num swaps -->
     <g transform="translate(207.826406 335.860562)scale(0.1 -0.1)">
      <defs>
       <path id="DejaVuSans-6e" d="M 3513 2113 
L 3513 0 
L 2938 0 
L 2938 2094 
Q 2938 2591 2744 2837 
Q 2550 3084 2163 3084 
Q 1697 3084 1428 2787 
Q 1159 2491 1159 1978 
L 1159 0 
L 581 0 
L 581 3500 
L 1159 3500 
L 1159 2956 
Q 1366 3272 1645 3428 
Q 1925 3584 2291 3584 
Q 2894 3584 3203 3211 
Q 3513 2838 3513 2113 
z
" transform="scale(0.015625)"/>
       <path id="DejaVuSans-75" d="M 544 1381 
L 544 3500 
L 1119 3500 
L 1119 1403 
Q 1119 906 1312 657 
Q 1506 409 1894 409 
Q 2359 409 2629 706 
Q 2900 1003 2900 1516 
L 2900 3500 
L 3475 3500 
L 3475 0 
L 2900 0 
L 2900 538 
Q 2691 219 2414 64 
Q 2138 -91 1772 -91 
Q 1169 -91 856 284 
Q 544 659 544 1381 
z
M 1991 3584 
L 1991 3584 
z
" transform="scale(0.015625)"/>
       <path id="DejaVuSans-6d" d="M 3328 2828 
Q 3544 3216 3844 3400 
Q 4144 3584 4550 3584 
Q 5097 3584 5394 3201 
Q 5691 2819 5691 2113 
L 5691 0 
L 5113 0 
L 5113 2094 
Q 5113 2597 4934 2840 
Q 4756 3084 4391 3084 
Q 3944 3084 3684 2787 
Q 3425 2491 3425 1978 
L 3425 0 
L 2847 0 
L 2847 2094 
Q 2847 2600 2669 2842 
Q 2491 3084 2119 3084 
Q 1678 3084 1418 2786 
Q 1159 2488 1159 1978 
L 1159 0 
L 581 0 
L 581 3500 
L 1159 3500 
L 1159 2956 
Q 1356 3278 1631 3431 
Q 1906 3584 2284 3584 
Q 2666 3584 2933 3390 
Q 3200 3197 3328 2828 
z
" transform="scale(0.015625)"/>
       <path id="DejaVuSans-20" transform="scale(0.015625)"/>
       <path id="DejaVuSans-73" d="M 2834 3397 
L 2834 2853 
Q 2591 2978 2328 3040 
Q 2066 3103 1784 3103 
Q 1356 3103 1142 2972 
Q 928 2841 928 2578 
Q 928 2378 1081 2264 
Q 1234 2150 1697 2047 
L 1894 2003 
Q 2506 1872 2764 1633 
Q 3022 1394 3022 966 
Q 3022 478 2636 193 
Q 2250 -91 1575 -91 
Q 1294 -91 989 -36 
Q 684 19 347 128 
L 347 722 
Q 666 556 975 473 
Q 1284 391 1588 391 
Q 1994 391 2212 530 
Q 2431 669 2431 922 
Q 2431 1156 2273 1281 
Q 2116 1406 1581 1522 
L 1381 1569 
Q 847 1681 609 1914 
Q 372 2147 372 2553 
Q 372 3047 722 3315 
Q 1072 3584 1716 3584 
Q 2034 3584 2315 3537 
Q 2597 3491 2834 3397 
z
" transform="scale(0.015625)"/>
       <path id="DejaVuSans-77" d="M 269 3500 
L 844 3500 
L 1563 769 
L 2278 3500 
L 2956 3500 
L 3675 769 
L 4391 3500 
L 4966 3500 
L 4050 0 
L 3372 0 
L 2619 2869 
L 1863 0 
L 1184 0 
L 269 3500 
z
" transform="scale(0.015625)"/>
       <path id="DejaVuSans-61" d="M 2194 1759 
Q 1497 1759 1228 1600 
Q 959 1441 959 1056 
Q 959 750 1161 570 
Q 1363 391 1709 391 
Q 2188 391 2477 730 
Q 2766 1069 2766 1631 
L 2766 1759 
L 2194 1759 
z
M 3341 1997 
L 3341 0 
L 2766 0 
L 2766 531 
Q 2569 213 2275 61 
Q 1981 -91 1556 -91 
Q 1019 -91 701 211 
Q 384 513 384 1019 
Q 384 1609 779 1909 
Q 1175 2209 1959 2209 
L 2766 2209 
L 2766 2266 
Q 2766 2663 2505 2880 
Q 2244 3097 1772 3097 
Q 1472 3097 1187 3025 
Q 903 2953 641 2809 
L 641 3341 
Q 956 3463 1253 3523 
Q 1550 3584 1831 3584 
Q 2591 3584 2966 3190 
Q 3341 2797 3341 1997 
z
" transform="scale(0.015625)"/>
       <path id="DejaVuSans-70" d="M 1159 525 
L 1159 -1331 
L 581 -1331 
L 581 3500 
L 1159 3500 
L 1159 2969 
Q 1341 3281 1617 3432 
Q 1894 3584 2278 3584 
Q 2916 3584 3314 3078 
Q 3713 2572 3713 1747 
Q 3713 922 3314 415 
Q 2916 -91 2278 -91 
Q 1894 -91 1617 61 
Q 1341 213 1159 525 
z
M 3116 1747 
Q 3116 2381 2855 2742 
Q 2594 3103 2138 3103 
Q 1681 3103 1420 2742 
Q 1159 2381 1159 1747 
Q 1159 1113 1420 752 
Q 1681 391 2138 391 
Q 2594 391 2855 752 
Q 3116 1113 3116 1747 
z
" transform="scale(0.015625)"/>
      </defs>
      <use xlink:href="#DejaVuSans-6e"/>
      <use xlink:href="#DejaVuSans-75" x="63.378906"/>
      <use xlink:href="#DejaVuSans-6d" x="126.757812"/>
      <use xlink:href="#DejaVuSans-20" x="224.169922"/>
      <use xlink:href="#DejaVuSans-73" x="255.957031"/>
      <use xlink:href="#DejaVuSans-77" x="308.056641"/>
      <use xlink:href="#DejaVuSans-61" x="389.84375"/>
      <use xlink:href="#DejaVuSans-70" x="451.123047"/>
      <use xlink:href="#DejaVuSans-73" x="514.599609"/>
     </g>
    </g>
   </g>
   <g id="matplotlib.axis_2">
    <g id="ytick_1">
     <g id="line2d_6">
      <defs>
       <path id="m209d992da9" d="M 0 0 
L -3.5 0 
" style="stroke: #000000; stroke-width: 0.8"/>
      </defs>
      <g>
       <use xlink:href="#m209d992da9" x="57.6" y="286.416" style="stroke: #000000; stroke-width: 0.8"/>
      </g>
     </g>
     <g id="text_7">
      <!-- 280 -->
      <g transform="translate(31.5125 290.215219)scale(0.1 -0.1)">
       <defs>
        <path id="DejaVuSans-38" d="M 2034 2216 
Q 1584 2216 1326 1975 
Q 1069 1734 1069 1313 
Q 1069 891 1326 650 
Q 1584 409 2034 409 
Q 2484 409 2743 651 
Q 3003 894 3003 1313 
Q 3003 1734 2745 1975 
Q 2488 2216 2034 2216 
z
M 1403 2484 
Q 997 2584 770 2862 
Q 544 3141 544 3541 
Q 544 4100 942 4425 
Q 1341 4750 2034 4750 
Q 2731 4750 3128 4425 
Q 3525 4100 3525 3541 
Q 3525 3141 3298 2862 
Q 3072 2584 2669 2484 
Q 3125 2378 3379 2068 
Q 3634 1759 3634 1313 
Q 3634 634 3220 271 
Q 2806 -91 2034 -91 
Q 1263 -91 848 271 
Q 434 634 434 1313 
Q 434 1759 690 2068 
Q 947 2378 1403 2484 
z
M 1172 3481 
Q 1172 3119 1398 2916 
Q 1625 2713 2034 2713 
Q 2441 2713 2670 2916 
Q 2900 3119 2900 3481 
Q 2900 3844 2670 4047 
Q 2441 4250 2034 4250 
Q 1625 4250 1398 4047 
Q 1172 3844 1172 3481 
z
" transform="scale(0.015625)"/>
       </defs>
       <use xlink:href="#DejaVuSans-32"/>
       <use xlink:href="#DejaVuSans-38" x="63.623047"/>
       <use xlink:href="#DejaVuSans-30" x="127.246094"/>
      </g>
     </g>
    </g>
    <g id="ytick_2">
     <g id="line2d_7">
      <g>
       <use xlink:href="#m209d992da9" x="57.6" y="256.176" style="stroke: #000000; stroke-width: 0.8"/>
      </g>
     </g>
     <g id="text_8">
      <!-- 290 -->
      <g transform="translate(31.5125 259.975219)scale(0.1 -0.1)">
       <defs>
        <path id="DejaVuSans-39" d="M 703 97 
L 703 672 
Q 941 559 1184 500 
Q 1428 441 1663 441 
Q 2288 441 2617 861 
Q 2947 1281 2994 2138 
Q 2813 1869 2534 1725 
Q 2256 1581 1919 1581 
Q 1219 1581 811 2004 
Q 403 2428 403 3163 
Q 403 3881 828 4315 
Q 1253 4750 1959 4750 
Q 2769 4750 3195 4129 
Q 3622 3509 3622 2328 
Q 3622 1225 3098 567 
Q 2575 -91 1691 -91 
Q 1453 -91 1209 -44 
Q 966 3 703 97 
z
M 1959 2075 
Q 2384 2075 2632 2365 
Q 2881 2656 2881 3163 
Q 2881 3666 2632 3958 
Q 2384 4250 1959 4250 
Q 1534 4250 1286 3958 
Q 1038 3666 1038 3163 
Q 1038 2656 1286 2365 
Q 1534 2075 1959 2075 
z
" transform="scale(0.015625)"/>
       </defs>
       <use xlink:href="#DejaVuSans-32"/>
       <use xlink:href="#DejaVuSans-39" x="63.623047"/>
       <use xlink:href="#DejaVuSans-30" x="127.246094"/>
      </g>
     </g>
    </g>
    <g id="ytick_3">
     <g id="line2d_8">
      <g>
       <use xlink:href="#m209d992da9" x="57.6" y="225.936" style="stroke: #000000; stroke-width: 0.8"/>
      </g>
     </g>
     <g id="text_9">
      <!-- 300 -->
      <g transform="translate(31.5125 229.735219)scale(0.1 -0.1)">
       <defs>
        <path id="DejaVuSans-33" d="M 2597 2516 
Q 3050 2419 3304 2112 
Q 3559 1806 3559 1356 
Q 3559 666 3084 287 
Q 2609 -91 1734 -91 
Q 1441 -91 1130 -33 
Q 819 25 488 141 
L 488 750 
Q 750 597 1062 519 
Q 1375 441 1716 441 
Q 2309 441 2620 675 
Q 2931 909 2931 1356 
Q 2931 1769 2642 2001 
Q 2353 2234 1838 2234 
L 1294 2234 
L 1294 2753 
L 1863 2753 
Q 2328 2753 2575 2939 
Q 2822 3125 2822 3475 
Q 2822 3834 2567 4026 
Q 2313 4219 1838 4219 
Q 1578 4219 1281 4162 
Q 984 4106 628 3988 
L 628 4550 
Q 988 4650 1302 4700 
Q 1616 4750 1894 4750 
Q 2613 4750 3031 4423 
Q 3450 4097 3450 3541 
Q 3450 3153 3228 2886 
Q 3006 2619 2597 2516 
z
" transform="scale(0.015625)"/>
       </defs>
       <use xlink:href="#DejaVuSans-33"/>
       <use xlink:href="#DejaVuSans-30" x="63.623047"/>
       <use xlink:href="#DejaVuSans-30" x="127.246094"/>
      </g>
     </g>
    </g>
    <g id="ytick_4">
     <g id="line2d_9">
      <g>
       <use xlink:href="#m209d992da9" x="57.6" y="195.696" style="stroke: #000000; stroke-width: 0.8"/>
      </g>
     </g>
     <g id="text_10">
      <!-- 310 -->
      <g transform="translate(31.5125 199.495219)scale(0.1 -0.1)">
       <use xlink:href="#DejaVuSans-33"/>
       <use xlink:href="#DejaVuSans-31" x="63.623047"/>
       <use xlink:href="#DejaVuSans-30" x="127.246094"/>
      </g>
     </g>
    </g>
    <g id="ytick_5">
     <g id="line2d_10">
      <g>
       <use xlink:href="#m209d992da9" x="57.6" y="165.456" style="stroke: #000000; stroke-width: 0.8"/>
      </g>
     </g>
     <g id="text_11">
      <!-- 320 -->
      <g transform="translate(31.5125 169.255219)scale(0.1 -0.1)">
       <use xlink:href="#DejaVuSans-33"/>
       <use xlink:href="#DejaVuSans-32" x="63.623047"/>
       <use xlink:href="#DejaVuSans-30" x="127.246094"/>
      </g>
     </g>
    </g>
    <g id="ytick_6">
     <g id="line2d_11">
      <g>
       <use xlink:href="#m209d992da9" x="57.6" y="135.216" style="stroke: #000000; stroke-width: 0.8"/>
      </g>
     </g>
     <g id="text_12">
      <!-- 330 -->
      <g transform="translate(31.5125 139.015219)scale(0.1 -0.1)">
       <use xlink:href="#DejaVuSans-33"/>
       <use xlink:href="#DejaVuSans-33" x="63.623047"/>
       <use xlink:href="#DejaVuSans-30" x="127.246094"/>
      </g>
     </g>
    </g>
    <g id="ytick_7">
     <g id="line2d_12">
      <g>
       <use xlink:href="#m209d992da9" x="57.6" y="104.976" style="stroke: #000000; stroke-width: 0.8"/>
      </g>
     </g>
     <g id="text_13">
      <!-- 340 -->
      <g transform="translate(31.5125 108.775219)scale(0.1 -0.1)">
       <defs>
        <path id="DejaVuSans-34" d="M 2419 4116 
L 825 1625 
L 2419 1625 
L 2419 4116 
z
M 2253 4666 
L 3047 4666 
L 3047 1625 
L 3713 1625 
L 3713 1100 
L 3047 1100 
L 3047 0 
L 2419 0 
L 2419 1100 
L 313 1100 
L 313 1709 
L 2253 4666 
z
" transform="scale(0.015625)"/>
       </defs>
       <use xlink:href="#DejaVuSans-33"/>
       <use xlink:href="#DejaVuSans-34" x="63.623047"/>
       <use xlink:href="#DejaVuSans-30" x="127.246094"/>
      </g>
     </g>
    </g>
    <g id="ytick_8">
     <g id="line2d_13">
      <g>
       <use xlink:href="#m209d992da9" x="57.6" y="74.736" style="stroke: #000000; stroke-width: 0.8"/>
      </g>
     </g>
     <g id="text_14">
      <!-- 350 -->
      <g transform="translate(31.5125 78.535219)scale(0.1 -0.1)">
       <use xlink:href="#DejaVuSans-33"/>
       <use xlink:href="#DejaVuSans-35" x="63.623047"/>
       <use xlink:href="#DejaVuSans-30" x="127.246094"/>
      </g>
     </g>
    </g>
    <g id="ytick_9">
     <g id="line2d_14">
      <g>
       <use xlink:href="#m209d992da9" x="57.6" y="44.496" style="stroke: #000000; stroke-width: 0.8"/>
      </g>
     </g>
     <g id="text_15">
      <!-- 360 -->
      <g transform="translate(31.5125 48.295219)scale(0.1 -0.1)">
       <defs>
        <path id="DejaVuSans-36" d="M 2113 2584 
Q 1688 2584 1439 2293 
Q 1191 2003 1191 1497 
Q 1191 994 1439 701 
Q 1688 409 2113 409 
Q 2538 409 2786 701 
Q 3034 994 3034 1497 
Q 3034 2003 2786 2293 
Q 2538 2584 2113 2584 
z
M 3366 4563 
L 3366 3988 
Q 3128 4100 2886 4159 
Q 2644 4219 2406 4219 
Q 1781 4219 1451 3797 
Q 1122 3375 1075 2522 
Q 1259 2794 1537 2939 
Q 1816 3084 2150 3084 
Q 2853 3084 3261 2657 
Q 3669 2231 3669 1497 
Q 3669 778 3244 343 
Q 2819 -91 2113 -91 
Q 1303 -91 875 529 
Q 447 1150 447 2328 
Q 447 3434 972 4092 
Q 1497 4750 2381 4750 
Q 2619 4750 2861 4703 
Q 3103 4656 3366 4563 
z
" transform="scale(0.015625)"/>
       </defs>
       <use xlink:href="#DejaVuSans-33"/>
       <use xlink:href="#DejaVuSans-36" x="63.623047"/>
       <use xlink:href="#DejaVuSans-30" x="127.246094"/>
      </g>
     </g>
    </g>
    <g id="text_16">
     <!-- total cost -->
     <g transform="translate(25.432812 197.923313)rotate(-90)scale(0.1 -0.1)">
      <defs>
       <path id="DejaVuSans-74" d="M 1172 4494 
L 1172 3500 
L 2356 3500 
L 2356 3053 
L 1172 3053 
L 1172 1153 
Q 1172 725 1289 603 
Q 1406 481 1766 481 
L 2356 481 
L 2356 0 
L 1766 0 
Q 1100 0 847 248 
Q 594 497 594 1153 
L 594 3053 
L 172 3053 
L 172 3500 
L 594 3500 
L 594 4494 
L 1172 4494 
z
" transform="scale(0.015625)"/>
       <path id="DejaVuSans-6f" d="M 1959 3097 
Q 1497 3097 1228 2736 
Q 959 2375 959 1747 
Q 959 1119 1226 758 
Q 1494 397 1959 397 
Q 2419 397 2687 759 
Q 2956 1122 2956 1747 
Q 2956 2369 2687 2733 
Q 2419 3097 1959 3097 
z
M 1959 3584 
Q 2709 3584 3137 3096 
Q 3566 2609 3566 1747 
Q 3566 888 3137 398 
Q 2709 -91 1959 -91 
Q 1206 -91 779 398 
Q 353 888 353 1747 
Q 353 2609 779 3096 
Q 1206 3584 1959 3584 
z
" transform="scale(0.015625)"/>
       <path id="DejaVuSans-6c" d="M 603 4863 
L 1178 4863 
L 1178 0 
L 603 0 
L 603 4863 
z
" transform="scale(0.015625)"/>
       <path id="DejaVuSans-63" d="M 3122 3366 
L 3122 2828 
Q 2878 2963 2633 3030 
Q 2388 3097 2138 3097 
Q 1578 3097 1268 2742 
Q 959 2388 959 1747 
Q 959 1106 1268 751 
Q 1578 397 2138 397 
Q 2388 397 2633 464 
Q 2878 531 3122 666 
L 3122 134 
Q 2881 22 2623 -34 
Q 2366 -91 2075 -91 
Q 1284 -91 818 406 
Q 353 903 353 1747 
Q 353 2603 823 3093 
Q 1294 3584 2113 3584 
Q 2378 3584 2631 3529 
Q 2884 3475 3122 3366 
z
" transform="scale(0.015625)"/>
      </defs>
      <use xlink:href="#DejaVuSans-74"/>
      <use xlink:href="#DejaVuSans-6f" x="39.208984"/>
      <use xlink:href="#DejaVuSans-74" x="100.390625"/>
      <use xlink:href="#DejaVuSans-61" x="139.599609"/>
      <use xlink:href="#DejaVuSans-6c" x="200.878906"/>
      <use xlink:href="#DejaVuSans-20" x="228.662109"/>
      <use xlink:href="#DejaVuSans-63" x="260.449219"/>
      <use xlink:href="#DejaVuSans-6f" x="315.429688"/>
      <use xlink:href="#DejaVuSans-73" x="376.611328"/>
      <use xlink:href="#DejaVuSans-74" x="428.710938"/>
     </g>
    </g>
   </g>
   <g id="line2d_15">
    <path d="M 73.832727 198.72 
L 74.116268 168.48 
L 74.399809 171.504 
L 75.533974 277.344 
L 75.817515 274.32 
L 76.101056 274.32 
L 76.384597 295.488 
L 76.668138 268.272 
L 76.951679 253.152 
L 77.23522 259.2 
L 77.518761 253.152 
L 77.802303 241.056 
L 78.085844 265.248 
L 78.369385 265.248 
L 79.220008 207.792 
L 79.503549 219.888 
L 79.78709 195.696 
L 80.070631 201.744 
L 80.354172 138.24 
L 80.637713 132.192 
L 80.921254 117.072 
L 81.204796 86.832 
L 81.488337 98.928 
L 81.771878 156.384 
L 82.055419 141.264 
L 82.33896 147.312 
L 82.622501 123.12 
L 82.906042 117.072 
L 83.189583 126.144 
L 83.473124 147.312 
L 83.756665 156.384 
L 84.323748 101.952 
L 84.607289 111.024 
L 84.89083 150.336 
L 85.174371 165.456 
L 85.457912 150.336 
L 86.024994 132.192 
L 86.308535 141.264 
L 86.592076 219.888 
L 87.159158 219.888 
L 87.442699 235.008 
L 87.726241 244.08 
L 88.009782 216.864 
L 88.293323 210.816 
L 88.576864 207.792 
L 89.143946 162.432 
L 89.711028 150.336 
L 89.994569 129.168 
L 90.561651 153.36 
L 90.845193 147.312 
L 91.412275 111.024 
L 91.695816 108 
L 92.262898 147.312 
L 92.546439 141.264 
L 92.82998 153.36 
L 93.113521 132.192 
L 93.397062 144.288 
L 93.680603 132.192 
L 93.964145 174.528 
L 94.247686 177.552 
L 94.531227 117.072 
L 94.814768 104.976 
L 95.098309 129.168 
L 95.38185 135.216 
L 95.665391 144.288 
L 95.948932 177.552 
L 96.232473 150.336 
L 96.516014 174.528 
L 96.799555 177.552 
L 97.083096 159.408 
L 97.366638 159.408 
L 97.650179 141.264 
L 98.500802 183.6 
L 98.784343 177.552 
L 99.067884 177.552 
L 99.351425 186.624 
L 99.634966 186.624 
L 99.918507 168.48 
L 100.202048 204.768 
L 100.48559 156.384 
L 100.769131 156.384 
L 101.052672 183.6 
L 101.336213 162.432 
L 101.619754 168.48 
L 101.903295 183.6 
L 102.186836 183.6 
L 103.037459 129.168 
L 103.321 132.192 
L 103.604541 114.048 
L 103.888083 129.168 
L 104.171624 123.12 
L 104.455165 150.336 
L 104.738706 132.192 
L 105.022247 168.48 
L 105.305788 156.384 
L 105.589329 153.36 
L 105.87287 153.36 
L 106.156411 180.576 
L 106.439952 168.48 
L 106.723493 162.432 
L 107.007035 159.408 
L 107.290576 165.456 
L 107.857658 159.408 
L 108.141199 162.432 
L 108.42474 123.12 
L 108.708281 138.24 
L 108.991822 123.12 
L 109.275363 150.336 
L 109.558904 156.384 
L 109.842445 141.264 
L 110.125987 135.216 
L 110.409528 123.12 
L 110.693069 159.408 
L 110.97661 162.432 
L 111.260151 195.696 
L 111.543692 153.36 
L 111.827233 183.6 
L 112.110774 180.576 
L 112.394315 180.576 
L 112.677856 183.6 
L 112.961397 180.576 
L 113.244938 198.72 
L 113.52848 165.456 
L 113.812021 165.456 
L 114.095562 135.216 
L 114.379103 141.264 
L 114.946185 156.384 
L 115.229726 159.408 
L 115.513267 183.6 
L 115.796808 180.576 
L 116.36389 153.36 
L 116.647432 177.552 
L 116.930973 183.6 
L 117.214514 168.48 
L 117.498055 159.408 
L 117.781596 123.12 
L 118.065137 120.096 
L 118.348678 123.12 
L 118.632219 120.096 
L 118.91576 111.024 
L 119.766383 138.24 
L 120.049925 135.216 
L 120.333466 129.168 
L 120.617007 138.24 
L 121.184089 138.24 
L 121.46763 147.312 
L 122.034712 228.96 
L 122.318253 225.936 
L 122.885335 265.248 
L 123.168877 250.128 
L 123.452418 244.08 
L 123.735959 219.888 
L 124.0195 207.792 
L 124.303041 213.84 
L 124.586582 198.72 
L 124.870123 189.648 
L 125.153664 168.48 
L 126.004287 129.168 
L 126.287829 159.408 
L 127.138452 101.952 
L 127.421993 123.12 
L 127.705534 86.832 
L 127.989075 92.88 
L 128.272616 120.096 
L 128.556157 117.072 
L 128.839698 129.168 
L 129.123239 132.192 
L 129.40678 123.12 
L 129.690322 141.264 
L 129.973863 77.76 
L 130.257404 101.952 
L 130.540945 114.048 
L 130.824486 120.096 
L 131.108027 111.024 
L 131.391568 114.048 
L 132.525732 153.36 
L 132.809274 114.048 
L 133.092815 120.096 
L 133.376356 147.312 
L 133.659897 153.36 
L 133.943438 117.072 
L 134.226979 129.168 
L 134.51052 210.816 
L 134.794061 207.792 
L 135.077602 183.6 
L 135.361143 171.504 
L 135.644684 165.456 
L 135.928225 165.456 
L 136.495308 189.648 
L 136.778849 147.312 
L 137.06239 150.336 
L 137.345931 174.528 
L 137.629472 183.6 
L 137.913013 180.576 
L 138.196554 183.6 
L 138.480095 156.384 
L 138.763636 144.288 
L 139.330719 144.288 
L 139.61426 156.384 
L 139.897801 141.264 
L 140.181342 144.288 
L 140.464883 168.48 
L 140.748424 147.312 
L 141.031965 159.408 
L 141.599047 147.312 
L 141.882588 147.312 
L 142.166129 162.432 
L 142.449671 171.504 
L 142.733212 174.528 
L 143.016753 180.576 
L 143.300294 171.504 
L 143.583835 195.696 
L 143.867376 189.648 
L 144.150917 171.504 
L 144.434458 180.576 
L 144.717999 204.768 
L 145.00154 177.552 
L 145.285081 165.456 
L 145.568622 168.48 
L 145.852164 195.696 
L 146.135705 195.696 
L 146.702787 183.6 
L 146.986328 192.672 
L 147.269869 189.648 
L 147.55341 162.432 
L 147.836951 150.336 
L 148.120492 156.384 
L 148.404033 153.36 
L 148.687574 144.288 
L 148.971116 141.264 
L 149.254657 156.384 
L 149.538198 177.552 
L 149.821739 156.384 
L 150.10528 165.456 
L 150.388821 129.168 
L 150.672362 153.36 
L 150.955903 156.384 
L 151.239444 153.36 
L 151.522985 165.456 
L 151.806526 150.336 
L 152.090067 168.48 
L 152.373609 168.48 
L 152.65715 156.384 
L 152.940691 162.432 
L 153.224232 156.384 
L 153.507773 141.264 
L 153.791314 159.408 
L 154.074855 141.264 
L 154.358396 150.336 
L 154.641937 183.6 
L 154.925478 195.696 
L 155.209019 192.672 
L 155.492561 174.528 
L 155.776102 171.504 
L 156.343184 114.048 
L 156.910266 156.384 
L 157.193807 141.264 
L 157.477348 153.36 
L 157.760889 159.408 
L 158.04443 141.264 
L 158.611513 180.576 
L 158.895054 186.624 
L 159.178595 183.6 
L 159.462136 171.504 
L 159.745677 174.528 
L 160.029218 153.36 
L 160.312759 189.648 
L 160.5963 171.504 
L 160.879841 171.504 
L 161.163382 159.408 
L 161.446923 156.384 
L 161.730464 162.432 
L 162.014006 165.456 
L 162.297547 171.504 
L 162.581088 183.6 
L 162.864629 177.552 
L 163.14817 180.576 
L 163.431711 147.312 
L 163.715252 165.456 
L 163.998793 159.408 
L 164.282334 156.384 
L 164.565875 171.504 
L 164.849416 159.408 
L 165.132958 168.48 
L 165.416499 159.408 
L 165.983581 192.672 
L 166.267122 216.864 
L 166.550663 189.648 
L 166.834204 213.84 
L 167.117745 219.888 
L 167.401286 183.6 
L 167.684827 204.768 
L 167.968368 198.72 
L 168.251909 219.888 
L 168.535451 219.888 
L 168.818992 213.84 
L 169.102533 192.672 
L 169.669615 171.504 
L 169.953156 183.6 
L 170.520238 147.312 
L 170.803779 177.552 
L 171.08732 174.528 
L 171.370861 189.648 
L 171.654403 198.72 
L 171.937944 168.48 
L 172.221485 153.36 
L 172.788567 174.528 
L 173.072108 183.6 
L 173.355649 207.792 
L 173.922731 165.456 
L 174.206272 195.696 
L 174.489813 192.672 
L 174.773355 195.696 
L 175.056896 201.744 
L 175.340437 219.888 
L 175.623978 213.84 
L 175.907519 225.936 
L 176.19106 231.984 
L 176.758142 204.768 
L 177.041683 231.984 
L 177.325224 241.056 
L 177.608765 228.96 
L 177.892306 250.128 
L 178.459389 216.864 
L 178.74293 244.08 
L 179.026471 195.696 
L 179.310012 198.72 
L 179.593553 174.528 
L 179.877094 171.504 
L 180.160635 207.792 
L 180.444176 189.648 
L 180.727717 204.768 
L 181.011258 189.648 
L 181.2948 192.672 
L 181.578341 213.84 
L 181.861882 210.816 
L 182.428964 168.48 
L 182.712505 165.456 
L 182.996046 180.576 
L 183.279587 183.6 
L 183.563128 198.72 
L 183.846669 174.528 
L 184.413751 225.936 
L 184.697293 177.552 
L 184.980834 189.648 
L 185.264375 171.504 
L 185.547916 177.552 
L 185.831457 195.696 
L 186.114998 204.768 
L 186.398539 207.792 
L 186.68208 183.6 
L 186.965621 180.576 
L 187.249162 147.312 
L 187.532703 147.312 
L 187.816245 156.384 
L 188.099786 141.264 
L 188.383327 138.24 
L 188.666868 153.36 
L 188.950409 174.528 
L 189.23395 138.24 
L 189.517491 174.528 
L 189.801032 180.576 
L 190.368114 153.36 
L 190.651655 150.336 
L 190.935197 135.216 
L 191.502279 195.696 
L 191.78582 195.696 
L 192.069361 180.576 
L 192.352902 174.528 
L 192.636443 129.168 
L 192.919984 104.976 
L 193.203525 111.024 
L 193.487066 92.88 
L 193.770607 83.808 
L 194.054148 98.928 
L 194.33769 123.12 
L 194.621231 126.144 
L 194.904772 144.288 
L 195.188313 147.312 
L 195.471854 159.408 
L 195.755395 162.432 
L 196.322477 120.096 
L 197.1731 150.336 
L 197.456642 150.336 
L 197.740183 174.528 
L 198.023724 183.6 
L 198.307265 171.504 
L 198.590806 186.624 
L 198.874347 192.672 
L 199.157888 162.432 
L 199.441429 171.504 
L 199.72497 168.48 
L 200.008511 183.6 
L 200.292052 174.528 
L 200.575593 180.576 
L 200.859135 219.888 
L 201.142676 219.888 
L 201.426217 180.576 
L 201.709758 180.576 
L 201.993299 186.624 
L 202.27684 165.456 
L 202.560381 153.36 
L 202.843922 177.552 
L 203.127463 222.912 
L 203.694545 189.648 
L 203.978087 207.792 
L 204.261628 207.792 
L 205.112251 180.576 
L 205.395792 192.672 
L 205.679333 198.72 
L 205.962874 210.816 
L 206.529956 222.912 
L 206.813497 204.768 
L 207.38058 222.912 
L 207.664121 219.888 
L 207.947662 241.056 
L 208.231203 231.984 
L 208.514744 177.552 
L 208.798285 180.576 
L 209.081826 168.48 
L 209.365367 171.504 
L 209.648908 162.432 
L 210.21599 201.744 
L 210.499532 192.672 
L 210.783073 195.696 
L 211.066614 231.984 
L 211.350155 241.056 
L 211.633696 231.984 
L 211.917237 250.128 
L 212.200778 235.008 
L 212.484319 228.96 
L 212.76786 262.224 
L 213.051401 253.152 
L 213.334942 286.416 
L 213.902025 262.224 
L 214.185566 241.056 
L 214.469107 262.224 
L 215.31973 120.096 
L 215.603271 129.168 
L 216.170353 135.216 
L 216.453894 153.36 
L 216.737435 126.144 
L 217.020977 144.288 
L 217.304518 120.096 
L 217.588059 141.264 
L 217.8716 153.36 
L 218.155141 141.264 
L 218.438682 141.264 
L 218.722223 126.144 
L 219.005764 123.12 
L 219.289305 135.216 
L 219.572846 108 
L 219.856387 111.024 
L 220.139929 126.144 
L 220.42347 123.12 
L 220.707011 153.36 
L 220.990552 135.216 
L 221.274093 59.616 
L 221.557634 83.808 
L 221.841175 89.856 
L 222.408257 95.904 
L 222.691798 95.904 
L 222.975339 135.216 
L 223.258881 150.336 
L 223.542422 147.312 
L 223.825963 159.408 
L 224.109504 141.264 
L 224.393045 144.288 
L 224.676586 117.072 
L 225.243668 101.952 
L 225.527209 144.288 
L 225.81075 114.048 
L 226.094291 120.096 
L 226.377832 114.048 
L 226.661374 95.904 
L 227.228456 156.384 
L 227.511997 177.552 
L 227.795538 162.432 
L 228.079079 162.432 
L 228.36262 126.144 
L 228.646161 138.24 
L 228.929702 123.12 
L 229.213243 132.192 
L 229.496784 150.336 
L 229.780326 159.408 
L 230.347408 165.456 
L 230.630949 165.456 
L 230.91449 171.504 
L 231.765113 138.24 
L 232.048654 147.312 
L 232.332195 162.432 
L 232.899277 144.288 
L 233.182819 162.432 
L 233.46636 156.384 
L 233.749901 159.408 
L 234.033442 144.288 
L 234.316983 183.6 
L 234.600524 195.696 
L 234.884065 180.576 
L 235.167606 180.576 
L 235.451147 195.696 
L 235.734688 141.264 
L 236.585312 186.624 
L 236.868853 186.624 
L 237.152394 180.576 
L 237.719476 213.84 
L 238.003017 198.72 
L 238.286558 228.96 
L 238.570099 210.816 
L 238.85364 228.96 
L 239.420723 216.864 
L 239.987805 216.864 
L 240.271346 210.816 
L 240.554887 216.864 
L 240.838428 228.96 
L 241.121969 256.176 
L 241.40551 259.2 
L 241.972592 238.032 
L 242.256133 244.08 
L 242.823216 225.936 
L 243.106757 210.816 
L 243.390298 204.768 
L 243.95738 180.576 
L 244.240921 174.528 
L 244.524462 192.672 
L 244.808003 183.6 
L 245.091544 180.576 
L 245.375085 180.576 
L 245.658626 171.504 
L 245.942168 168.48 
L 246.225709 168.48 
L 246.50925 180.576 
L 246.792791 156.384 
L 247.076332 162.432 
L 247.359873 165.456 
L 247.926955 150.336 
L 248.210496 177.552 
L 248.494037 177.552 
L 248.777578 192.672 
L 249.061119 198.72 
L 249.344661 201.744 
L 249.628202 216.864 
L 249.911743 219.888 
L 250.195284 207.792 
L 250.478825 216.864 
L 250.762366 231.984 
L 251.045907 213.84 
L 251.329448 207.792 
L 251.612989 198.72 
L 251.89653 183.6 
L 252.180071 156.384 
L 252.463613 150.336 
L 252.747154 183.6 
L 253.030695 180.576 
L 253.314236 174.528 
L 253.597777 189.648 
L 253.881318 174.528 
L 254.164859 147.312 
L 254.4484 180.576 
L 254.731941 186.624 
L 255.015482 186.624 
L 255.299023 192.672 
L 255.582565 204.768 
L 255.866106 150.336 
L 256.149647 147.312 
L 256.433188 168.48 
L 256.716729 159.408 
L 257.00027 168.48 
L 257.567352 120.096 
L 257.850893 138.24 
L 258.134434 101.952 
L 258.417975 114.048 
L 258.701516 120.096 
L 258.985058 98.928 
L 259.268599 108 
L 259.55214 123.12 
L 259.835681 147.312 
L 260.119222 129.168 
L 260.402763 120.096 
L 260.686304 132.192 
L 260.969845 135.216 
L 261.253386 144.288 
L 261.536927 144.288 
L 261.820468 174.528 
L 262.10401 159.408 
L 262.671092 189.648 
L 262.954633 189.648 
L 263.238174 180.576 
L 263.805256 150.336 
L 264.088797 150.336 
L 264.372338 141.264 
L 264.655879 147.312 
L 264.93942 174.528 
L 265.506503 135.216 
L 265.790044 132.192 
L 266.073585 98.928 
L 266.357126 129.168 
L 266.640667 108 
L 266.924208 114.048 
L 267.207749 123.12 
L 267.49129 126.144 
L 268.058372 104.976 
L 268.341913 126.144 
L 268.625455 104.976 
L 268.908996 92.88 
L 269.192537 120.096 
L 269.476078 132.192 
L 269.759619 114.048 
L 270.326701 156.384 
L 270.610242 162.432 
L 270.893783 171.504 
L 271.177324 189.648 
L 271.460865 189.648 
L 271.744407 168.48 
L 272.027948 171.504 
L 272.311489 177.552 
L 272.59503 192.672 
L 272.878571 219.888 
L 273.162112 222.912 
L 273.445653 262.224 
L 273.729194 244.08 
L 274.012735 247.104 
L 274.296276 238.032 
L 274.579817 222.912 
L 274.863358 174.528 
L 275.1469 165.456 
L 275.430441 171.504 
L 275.713982 168.48 
L 275.997523 153.36 
L 276.281064 150.336 
L 276.564605 156.384 
L 276.848146 147.312 
L 277.131687 159.408 
L 277.415228 165.456 
L 277.698769 165.456 
L 277.98231 159.408 
L 278.265852 198.72 
L 278.549393 216.864 
L 279.116475 222.912 
L 279.400016 210.816 
L 279.683557 210.816 
L 279.967098 201.744 
L 280.250639 156.384 
L 280.53418 162.432 
L 280.817721 183.6 
L 281.384803 129.168 
L 281.668345 147.312 
L 281.951886 138.24 
L 282.235427 95.904 
L 282.518968 89.856 
L 282.802509 95.904 
L 283.08605 92.88 
L 283.653132 123.12 
L 284.787297 71.712 
L 285.070838 83.808 
L 285.354379 74.736 
L 285.63792 71.712 
L 285.921461 83.808 
L 286.205002 89.856 
L 286.488543 111.024 
L 286.772084 77.76 
L 287.339166 53.568 
L 287.622707 108 
L 287.906249 123.12 
L 288.18979 144.288 
L 288.473331 141.264 
L 288.756872 159.408 
L 289.323954 129.168 
L 289.607495 156.384 
L 289.891036 165.456 
L 290.174577 162.432 
L 290.458118 174.528 
L 290.741659 150.336 
L 291.308742 150.336 
L 291.592283 180.576 
L 291.875824 162.432 
L 292.159365 168.48 
L 292.442906 153.36 
L 292.726447 156.384 
L 293.009988 186.624 
L 293.293529 192.672 
L 293.860611 207.792 
L 294.144152 192.672 
L 294.427694 195.696 
L 294.711235 180.576 
L 294.994776 159.408 
L 295.278317 165.456 
L 295.561858 153.36 
L 296.12894 171.504 
L 296.696022 222.912 
L 297.263104 192.672 
L 297.546645 198.72 
L 297.830187 183.6 
L 298.113728 180.576 
L 298.397269 213.84 
L 298.68081 225.936 
L 298.964351 201.744 
L 299.247892 210.816 
L 299.531433 207.792 
L 299.814974 207.792 
L 300.098515 189.648 
L 300.382056 180.576 
L 300.665597 177.552 
L 300.949139 156.384 
L 301.23268 168.48 
L 301.516221 153.36 
L 301.799762 156.384 
L 302.083303 171.504 
L 302.366844 180.576 
L 302.650385 177.552 
L 302.933926 147.312 
L 303.217467 183.6 
L 303.501008 201.744 
L 303.784549 198.72 
L 304.068091 186.624 
L 304.351632 201.744 
L 304.635173 165.456 
L 304.918714 159.408 
L 305.202255 192.672 
L 305.485796 168.48 
L 305.769337 177.552 
L 306.052878 207.792 
L 306.336419 204.768 
L 306.61996 192.672 
L 306.903501 162.432 
L 307.470584 156.384 
L 307.754125 180.576 
L 308.037666 192.672 
L 308.321207 195.696 
L 308.604748 195.696 
L 308.888289 171.504 
L 309.17183 159.408 
L 309.455371 159.408 
L 309.738912 150.336 
L 310.022453 159.408 
L 310.589536 147.312 
L 310.873077 150.336 
L 311.156618 138.24 
L 311.440159 150.336 
L 311.7237 141.264 
L 312.007241 150.336 
L 312.290782 147.312 
L 312.574323 120.096 
L 312.857864 120.096 
L 313.424946 135.216 
L 313.708487 174.528 
L 314.27557 198.72 
L 314.842652 174.528 
L 315.126193 183.6 
L 315.976816 144.288 
L 316.260357 141.264 
L 316.543898 150.336 
L 316.827439 168.48 
L 317.110981 159.408 
L 317.394522 168.48 
L 317.678063 171.504 
L 317.961604 180.576 
L 318.245145 171.504 
L 318.528686 177.552 
L 318.812227 129.168 
L 319.095768 159.408 
L 319.379309 174.528 
L 319.66285 180.576 
L 319.946391 177.552 
L 320.229933 147.312 
L 320.513474 138.24 
L 320.797015 135.216 
L 321.080556 117.072 
L 321.364097 111.024 
L 321.647638 138.24 
L 321.931179 144.288 
L 322.21472 165.456 
L 322.498261 153.36 
L 322.781802 162.432 
L 323.065343 159.408 
L 323.348884 147.312 
L 323.632426 168.48 
L 323.915967 171.504 
L 324.199508 165.456 
L 324.483049 141.264 
L 324.76659 150.336 
L 325.050131 132.192 
L 325.617213 171.504 
L 325.900754 168.48 
L 326.184295 144.288 
L 326.467836 171.504 
L 326.751378 186.624 
L 327.034919 180.576 
L 327.31846 147.312 
L 327.602001 138.24 
L 327.885542 141.264 
L 328.169083 141.264 
L 328.452624 150.336 
L 328.736165 141.264 
L 329.019706 126.144 
L 329.303247 126.144 
L 329.586788 138.24 
L 329.870329 126.144 
L 330.153871 123.12 
L 330.437412 135.216 
L 330.720953 153.36 
L 331.004494 141.264 
L 331.288035 147.312 
L 331.855117 177.552 
L 332.138658 180.576 
L 332.422199 180.576 
L 332.70574 192.672 
L 332.989281 219.888 
L 333.272823 207.792 
L 333.556364 216.864 
L 333.839905 150.336 
L 334.123446 162.432 
L 334.406987 159.408 
L 334.974069 147.312 
L 335.25761 153.36 
L 335.541151 150.336 
L 335.824692 126.144 
L 336.108233 171.504 
L 336.391775 174.528 
L 336.958857 186.624 
L 337.242398 111.024 
L 337.525939 144.288 
L 337.80948 153.36 
L 338.093021 147.312 
L 338.376562 162.432 
L 338.660103 117.072 
L 338.943644 126.144 
L 339.227185 123.12 
L 339.510726 126.144 
L 340.36135 86.832 
L 340.644891 135.216 
L 340.928432 117.072 
L 341.211973 111.024 
L 341.495514 141.264 
L 341.779055 150.336 
L 342.062596 153.36 
L 342.346137 183.6 
L 342.629678 183.6 
L 342.91322 165.456 
L 343.196761 165.456 
L 343.480302 180.576 
L 343.763843 174.528 
L 344.047384 144.288 
L 344.330925 129.168 
L 344.614466 132.192 
L 344.898007 95.904 
L 345.181548 95.904 
L 345.465089 104.976 
L 345.74863 98.928 
L 346.315713 147.312 
L 346.599254 150.336 
L 346.882795 156.384 
L 347.166336 177.552 
L 347.449877 159.408 
L 347.733418 132.192 
L 348.016959 135.216 
L 348.584041 198.72 
L 348.867582 165.456 
L 349.151123 159.408 
L 349.434665 156.384 
L 349.718206 144.288 
L 350.285288 150.336 
L 350.568829 156.384 
L 350.85237 153.36 
L 351.135911 132.192 
L 351.419452 120.096 
L 351.702993 138.24 
L 351.986534 138.24 
L 352.270075 147.312 
L 352.553617 147.312 
L 353.120699 132.192 
L 353.40424 144.288 
L 353.687781 168.48 
L 353.971322 204.768 
L 354.254863 171.504 
L 354.538404 159.408 
L 354.821945 183.6 
L 355.105486 186.624 
L 355.672568 231.984 
L 355.95611 222.912 
L 356.239651 201.744 
L 356.523192 195.696 
L 356.806733 204.768 
L 357.090274 189.648 
L 357.373815 183.6 
L 357.940897 195.696 
L 358.224438 186.624 
L 358.507979 201.744 
L 358.79152 228.96 
L 359.075062 222.912 
L 359.358603 219.888 
L 359.642144 225.936 
L 359.925685 210.816 
L 360.209226 213.84 
L 360.492767 228.96 
L 360.776308 225.936 
L 361.059849 207.792 
L 361.626931 147.312 
L 361.910472 141.264 
L 362.194013 129.168 
L 362.477555 129.168 
L 362.761096 111.024 
L 363.044637 126.144 
L 363.328178 114.048 
L 363.89526 147.312 
L 364.178801 123.12 
L 364.462342 129.168 
L 364.745883 129.168 
L 365.029424 98.928 
L 365.312965 111.024 
L 365.596507 141.264 
L 365.880048 123.12 
L 366.163589 144.288 
L 366.44713 135.216 
L 367.014212 80.784 
L 367.297753 83.808 
L 367.864835 138.24 
L 368.148376 138.24 
L 368.431917 108 
L 368.715459 120.096 
L 368.999 141.264 
L 369.282541 138.24 
L 369.566082 144.288 
L 369.849623 144.288 
L 370.133164 150.336 
L 370.416705 135.216 
L 370.700246 171.504 
L 370.983787 171.504 
L 371.267328 153.36 
L 371.550869 153.36 
L 371.83441 162.432 
L 372.117952 150.336 
L 372.401493 126.144 
L 372.685034 126.144 
L 372.968575 132.192 
L 373.252116 135.216 
L 373.535657 126.144 
L 373.819198 123.12 
L 374.38628 171.504 
L 374.669821 180.576 
L 374.953362 174.528 
L 375.236904 195.696 
L 375.520445 195.696 
L 375.803986 201.744 
L 376.371068 165.456 
L 376.654609 165.456 
L 377.221691 204.768 
L 377.505232 204.768 
L 377.788773 201.744 
L 378.072314 195.696 
L 378.355855 186.624 
L 378.639397 189.648 
L 378.922938 171.504 
L 379.206479 219.888 
L 379.773561 186.624 
L 380.057102 204.768 
L 380.340643 198.72 
L 380.624184 150.336 
L 380.907725 144.288 
L 381.191266 129.168 
L 381.474807 144.288 
L 381.758349 150.336 
L 382.04189 144.288 
L 382.325431 117.072 
L 382.608972 120.096 
L 382.892513 126.144 
L 383.176054 138.24 
L 383.459595 144.288 
L 383.743136 135.216 
L 384.026677 165.456 
L 384.310218 165.456 
L 384.593759 156.384 
L 384.877301 129.168 
L 385.160842 141.264 
L 385.444383 168.48 
L 385.727924 165.456 
L 386.011465 153.36 
L 386.295006 153.36 
L 386.578547 183.6 
L 386.862088 180.576 
L 387.145629 168.48 
L 387.42917 171.504 
L 387.712711 141.264 
L 388.279794 162.432 
L 388.563335 174.528 
L 388.846876 165.456 
L 389.130417 120.096 
L 389.413958 120.096 
L 389.98104 144.288 
L 390.264581 138.24 
L 390.548122 129.168 
L 390.831663 144.288 
L 391.115204 144.288 
L 391.398746 141.264 
L 391.682287 189.648 
L 391.965828 183.6 
L 392.249369 195.696 
L 392.816451 207.792 
L 393.099992 207.792 
L 393.383533 216.864 
L 393.667074 213.84 
L 393.950615 186.624 
L 394.234156 201.744 
L 394.517697 168.48 
L 394.801239 183.6 
L 395.08478 183.6 
L 395.368321 204.768 
L 395.651862 183.6 
L 395.935403 192.672 
L 396.218944 177.552 
L 396.502485 186.624 
L 396.786026 222.912 
L 397.069567 238.032 
L 397.353108 219.888 
L 397.636649 216.864 
L 397.920191 235.008 
L 398.203732 183.6 
L 398.487273 171.504 
L 398.487273 171.504 
" clip-path="url(#p4729c5fa93)" style="fill: none; stroke: #1f77b4; stroke-width: 1.5; stroke-linecap: square"/>
   </g>
   <g id="patch_3">
    <path d="M 57.6 307.584 
L 57.6 41.472 
" style="fill: none; stroke: #000000; stroke-width: 0.8; stroke-linejoin: miter; stroke-linecap: square"/>
   </g>
   <g id="patch_4">
    <path d="M 414.72 307.584 
L 414.72 41.472 
" style="fill: none; stroke: #000000; stroke-width: 0.8; stroke-linejoin: miter; stroke-linecap: square"/>
   </g>
   <g id="patch_5">
    <path d="M 57.6 307.584 
L 414.72 307.584 
" style="fill: none; stroke: #000000; stroke-width: 0.8; stroke-linejoin: miter; stroke-linecap: square"/>
   </g>
   <g id="patch_6">
    <path d="M 57.6 41.472 
L 414.72 41.472 
" style="fill: none; stroke: #000000; stroke-width: 0.8; stroke-linejoin: miter; stroke-linecap: square"/>
   </g>
   <g id="text_17">
    <!-- Simulated Anealling Cost -->
    <g transform="translate(160.8 35.472)scale(0.12 -0.12)">
     <defs>
      <path id="DejaVuSans-53" d="M 3425 4513 
L 3425 3897 
Q 3066 4069 2747 4153 
Q 2428 4238 2131 4238 
Q 1616 4238 1336 4038 
Q 1056 3838 1056 3469 
Q 1056 3159 1242 3001 
Q 1428 2844 1947 2747 
L 2328 2669 
Q 3034 2534 3370 2195 
Q 3706 1856 3706 1288 
Q 3706 609 3251 259 
Q 2797 -91 1919 -91 
Q 1588 -91 1214 -16 
Q 841 59 441 206 
L 441 856 
Q 825 641 1194 531 
Q 1563 422 1919 422 
Q 2459 422 2753 634 
Q 3047 847 3047 1241 
Q 3047 1584 2836 1778 
Q 2625 1972 2144 2069 
L 1759 2144 
Q 1053 2284 737 2584 
Q 422 2884 422 3419 
Q 422 4038 858 4394 
Q 1294 4750 2059 4750 
Q 2388 4750 2728 4690 
Q 3069 4631 3425 4513 
z
" transform="scale(0.015625)"/>
      <path id="DejaVuSans-69" d="M 603 3500 
L 1178 3500 
L 1178 0 
L 603 0 
L 603 3500 
z
M 603 4863 
L 1178 4863 
L 1178 4134 
L 603 4134 
L 603 4863 
z
" transform="scale(0.015625)"/>
      <path id="DejaVuSans-65" d="M 3597 1894 
L 3597 1613 
L 953 1613 
Q 991 1019 1311 708 
Q 1631 397 2203 397 
Q 2534 397 2845 478 
Q 3156 559 3463 722 
L 3463 178 
Q 3153 47 2828 -22 
Q 2503 -91 2169 -91 
Q 1331 -91 842 396 
Q 353 884 353 1716 
Q 353 2575 817 3079 
Q 1281 3584 2069 3584 
Q 2775 3584 3186 3129 
Q 3597 2675 3597 1894 
z
M 3022 2063 
Q 3016 2534 2758 2815 
Q 2500 3097 2075 3097 
Q 1594 3097 1305 2825 
Q 1016 2553 972 2059 
L 3022 2063 
z
" transform="scale(0.015625)"/>
      <path id="DejaVuSans-64" d="M 2906 2969 
L 2906 4863 
L 3481 4863 
L 3481 0 
L 2906 0 
L 2906 525 
Q 2725 213 2448 61 
Q 2172 -91 1784 -91 
Q 1150 -91 751 415 
Q 353 922 353 1747 
Q 353 2572 751 3078 
Q 1150 3584 1784 3584 
Q 2172 3584 2448 3432 
Q 2725 3281 2906 2969 
z
M 947 1747 
Q 947 1113 1208 752 
Q 1469 391 1925 391 
Q 2381 391 2643 752 
Q 2906 1113 2906 1747 
Q 2906 2381 2643 2742 
Q 2381 3103 1925 3103 
Q 1469 3103 1208 2742 
Q 947 2381 947 1747 
z
" transform="scale(0.015625)"/>
      <path id="DejaVuSans-41" d="M 2188 4044 
L 1331 1722 
L 3047 1722 
L 2188 4044 
z
M 1831 4666 
L 2547 4666 
L 4325 0 
L 3669 0 
L 3244 1197 
L 1141 1197 
L 716 0 
L 50 0 
L 1831 4666 
z
" transform="scale(0.015625)"/>
      <path id="DejaVuSans-67" d="M 2906 1791 
Q 2906 2416 2648 2759 
Q 2391 3103 1925 3103 
Q 1463 3103 1205 2759 
Q 947 2416 947 1791 
Q 947 1169 1205 825 
Q 1463 481 1925 481 
Q 2391 481 2648 825 
Q 2906 1169 2906 1791 
z
M 3481 434 
Q 3481 -459 3084 -895 
Q 2688 -1331 1869 -1331 
Q 1566 -1331 1297 -1286 
Q 1028 -1241 775 -1147 
L 775 -588 
Q 1028 -725 1275 -790 
Q 1522 -856 1778 -856 
Q 2344 -856 2625 -561 
Q 2906 -266 2906 331 
L 2906 616 
Q 2728 306 2450 153 
Q 2172 0 1784 0 
Q 1141 0 747 490 
Q 353 981 353 1791 
Q 353 2603 747 3093 
Q 1141 3584 1784 3584 
Q 2172 3584 2450 3431 
Q 2728 3278 2906 2969 
L 2906 3500 
L 3481 3500 
L 3481 434 
z
" transform="scale(0.015625)"/>
      <path id="DejaVuSans-43" d="M 4122 4306 
L 4122 3641 
Q 3803 3938 3442 4084 
Q 3081 4231 2675 4231 
Q 1875 4231 1450 3742 
Q 1025 3253 1025 2328 
Q 1025 1406 1450 917 
Q 1875 428 2675 428 
Q 3081 428 3442 575 
Q 3803 722 4122 1019 
L 4122 359 
Q 3791 134 3420 21 
Q 3050 -91 2638 -91 
Q 1578 -91 968 557 
Q 359 1206 359 2328 
Q 359 3453 968 4101 
Q 1578 4750 2638 4750 
Q 3056 4750 3426 4639 
Q 3797 4528 4122 4306 
z
" transform="scale(0.015625)"/>
     </defs>
     <use xlink:href="#DejaVuSans-53"/>
     <use xlink:href="#DejaVuSans-69" x="63.476562"/>
     <use xlink:href="#DejaVuSans-6d" x="91.259766"/>
     <use xlink:href="#DejaVuSans-75" x="188.671875"/>
     <use xlink:href="#DejaVuSans-6c" x="252.050781"/>
     <use xlink:href="#DejaVuSans-61" x="279.833984"/>
     <use xlink:href="#DejaVuSans-74" x="341.113281"/>
     <use xlink:href="#DejaVuSans-65" x="380.322266"/>
     <use xlink:href="#DejaVuSans-64" x="441.845703"/>
     <use xlink:href="#DejaVuSans-20" x="505.322266"/>
     <use xlink:href="#DejaVuSans-41" x="537.109375"/>
     <use xlink:href="#DejaVuSans-6e" x="605.517578"/>
     <use xlink:href="#DejaVuSans-65" x="668.896484"/>
     <use xlink:href="#DejaVuSans-61" x="730.419922"/>
     <use xlink:href="#DejaVuSans-6c" x="791.699219"/>
     <use xlink:href="#DejaVuSans-6c" x="819.482422"/>
     <use xlink:href="#DejaVuSans-69" x="847.265625"/>
     <use xlink:href="#DejaVuSans-6e" x="875.048828"/>
     <use xlink:href="#DejaVuSans-67" x="938.427734"/>
     <use xlink:href="#DejaVuSans-20" x="1001.904297"/>
     <use xlink:href="#DejaVuSans-43" x="1033.691406"/>
     <use xlink:href="#DejaVuSans-6f" x="1103.515625"/>
     <use xlink:href="#DejaVuSans-73" x="1164.697266"/>
     <use xlink:href="#DejaVuSans-74" x="1216.796875"/>
    </g>
   </g>
  </g>
 </g>
 <defs>
  <clipPath id="p4729c5fa93">
   <rect x="57.6" y="41.472" width="357.12" height="266.112"/>
  </clipPath>
 </defs>
</svg>
