<?xml version="1.0" encoding="utf-8" standalone="no"?>
<!DOCTYPE svg PUBLIC "-//W3C//DTD SVG 1.1//EN"
  "http://www.w3.org/Graphics/SVG/1.1/DTD/svg11.dtd">
<svg xmlns:xlink="http://www.w3.org/1999/xlink" width="460.8pt" height="345.6pt" viewBox="0 0 460.8 345.6" xmlns="http://www.w3.org/2000/svg" version="1.1">
 <metadata>
  <rdf:RDF xmlns:dc="http://purl.org/dc/elements/1.1/" xmlns:cc="http://creativecommons.org/ns#" xmlns:rdf="http://www.w3.org/1999/02/22-rdf-syntax-ns#">
   <cc:Work>
    <dc:type rdf:resource="http://purl.org/dc/dcmitype/StillImage"/>
    <dc:date>2022-06-01T08:05:22.349811</dc:date>
    <dc:format>image/svg+xml</dc:format>
    <dc:creator>
     <cc:Agent>
      <dc:title>Matplotlib v3.5.1, https://matplotlib.org/</dc:title>
     </cc:Agent>
    </dc:creator>
   </cc:Work>
  </rdf:RDF>
 </metadata>
 <defs>
  <style type="text/css">*{stroke-linejoin: round; stroke-linecap: butt}</style>
 </defs>
 <g id="figure_1">
  <g id="patch_1">
   <path d="M 0 345.6 
L 460.8 345.6 
L 460.8 0 
L 0 0 
z
" style="fill: #ffffff"/>
  </g>
  <g id="axes_1">
   <g id="patch_2">
    <path d="M 57.6 307.584 
L 414.72 307.584 
L 414.72 41.472 
L 57.6 41.472 
z
" style="fill: #ffffff"/>
   </g>
   <g id="matplotlib.axis_1">
    <g id="xtick_1">
     <g id="line2d_1">
      <defs>
       <path id="mccc3125292" d="M 0 0 
L 0 3.5 
" style="stroke: #000000; stroke-width: 0.8"/>
      </defs>
      <g>
       <use xlink:href="#mccc3125292" x="73.832727" y="307.584" style="stroke: #000000; stroke-width: 0.8"/>
      </g>
     </g>
     <g id="text_1">
      <!-- 0 -->
      <g transform="translate(70.651477 322.182437)scale(0.1 -0.1)">
       <defs>
        <path id="DejaVuSans-30" d="M 2034 4250 
Q 1547 4250 1301 3770 
Q 1056 3291 1056 2328 
Q 1056 1369 1301 889 
Q 1547 409 2034 409 
Q 2525 409 2770 889 
Q 3016 1369 3016 2328 
Q 3016 3291 2770 3770 
Q 2525 4250 2034 4250 
z
M 2034 4750 
Q 2819 4750 3233 4129 
Q 3647 3509 3647 2328 
Q 3647 1150 3233 529 
Q 2819 -91 2034 -91 
Q 1250 -91 836 529 
Q 422 1150 422 2328 
Q 422 3509 836 4129 
Q 1250 4750 2034 4750 
z
" transform="scale(0.015625)"/>
       </defs>
       <use xlink:href="#DejaVuSans-30"/>
      </g>
     </g>
    </g>
    <g id="xtick_2">
     <g id="line2d_2">
      <g>
       <use xlink:href="#mccc3125292" x="142.790787" y="307.584" style="stroke: #000000; stroke-width: 0.8"/>
      </g>
     </g>
     <g id="text_2">
      <!-- 500 -->
      <g transform="translate(133.247037 322.182437)scale(0.1 -0.1)">
       <defs>
        <path id="DejaVuSans-35" d="M 691 4666 
L 3169 4666 
L 3169 4134 
L 1269 4134 
L 1269 2991 
Q 1406 3038 1543 3061 
Q 1681 3084 1819 3084 
Q 2600 3084 3056 2656 
Q 3513 2228 3513 1497 
Q 3513 744 3044 326 
Q 2575 -91 1722 -91 
Q 1428 -91 1123 -41 
Q 819 9 494 109 
L 494 744 
Q 775 591 1075 516 
Q 1375 441 1709 441 
Q 2250 441 2565 725 
Q 2881 1009 2881 1497 
Q 2881 1984 2565 2268 
Q 2250 2553 1709 2553 
Q 1456 2553 1204 2497 
Q 953 2441 691 2322 
L 691 4666 
z
" transform="scale(0.015625)"/>
       </defs>
       <use xlink:href="#DejaVuSans-35"/>
       <use xlink:href="#DejaVuSans-30" x="63.623047"/>
       <use xlink:href="#DejaVuSans-30" x="127.246094"/>
      </g>
     </g>
    </g>
    <g id="xtick_3">
     <g id="line2d_3">
      <g>
       <use xlink:href="#mccc3125292" x="211.748847" y="307.584" style="stroke: #000000; stroke-width: 0.8"/>
      </g>
     </g>
     <g id="text_3">
      <!-- 1000 -->
      <g transform="translate(199.023847 322.182437)scale(0.1 -0.1)">
       <defs>
        <path id="DejaVuSans-31" d="M 794 531 
L 1825 531 
L 1825 4091 
L 703 3866 
L 703 4441 
L 1819 4666 
L 2450 4666 
L 2450 531 
L 3481 531 
L 3481 0 
L 794 0 
L 794 531 
z
" transform="scale(0.015625)"/>
       </defs>
       <use xlink:href="#DejaVuSans-31"/>
       <use xlink:href="#DejaVuSans-30" x="63.623047"/>
       <use xlink:href="#DejaVuSans-30" x="127.246094"/>
       <use xlink:href="#DejaVuSans-30" x="190.869141"/>
      </g>
     </g>
    </g>
    <g id="xtick_4">
     <g id="line2d_4">
      <g>
       <use xlink:href="#mccc3125292" x="280.706907" y="307.584" style="stroke: #000000; stroke-width: 0.8"/>
      </g>
     </g>
     <g id="text_4">
      <!-- 1500 -->
      <g transform="translate(267.981907 322.182437)scale(0.1 -0.1)">
       <use xlink:href="#DejaVuSans-31"/>
       <use xlink:href="#DejaVuSans-35" x="63.623047"/>
       <use xlink:href="#DejaVuSans-30" x="127.246094"/>
       <use xlink:href="#DejaVuSans-30" x="190.869141"/>
      </g>
     </g>
    </g>
    <g id="xtick_5">
     <g id="line2d_5">
      <g>
       <use xlink:href="#mccc3125292" x="349.664966" y="307.584" style="stroke: #000000; stroke-width: 0.8"/>
      </g>
     </g>
     <g id="text_5">
      <!-- 2000 -->
      <g transform="translate(336.939966 322.182437)scale(0.1 -0.1)">
       <defs>
        <path id="DejaVuSans-32" d="M 1228 531 
L 3431 531 
L 3431 0 
L 469 0 
L 469 531 
Q 828 903 1448 1529 
Q 2069 2156 2228 2338 
Q 2531 2678 2651 2914 
Q 2772 3150 2772 3378 
Q 2772 3750 2511 3984 
Q 2250 4219 1831 4219 
Q 1534 4219 1204 4116 
Q 875 4013 500 3803 
L 500 4441 
Q 881 4594 1212 4672 
Q 1544 4750 1819 4750 
Q 2544 4750 2975 4387 
Q 3406 4025 3406 3419 
Q 3406 3131 3298 2873 
Q 3191 2616 2906 2266 
Q 2828 2175 2409 1742 
Q 1991 1309 1228 531 
z
" transform="scale(0.015625)"/>
       </defs>
       <use xlink:href="#DejaVuSans-32"/>
       <use xlink:href="#DejaVuSans-30" x="63.623047"/>
       <use xlink:href="#DejaVuSans-30" x="127.246094"/>
       <use xlink:href="#DejaVuSans-30" x="190.869141"/>
      </g>
     </g>
    </g>
    <g id="text_6">
     <!-- num swaps -->
     <g transform="translate(207.826406 335.860562)scale(0.1 -0.1)">
      <defs>
       <path id="DejaVuSans-6e" d="M 3513 2113 
L 3513 0 
L 2938 0 
L 2938 2094 
Q 2938 2591 2744 2837 
Q 2550 3084 2163 3084 
Q 1697 3084 1428 2787 
Q 1159 2491 1159 1978 
L 1159 0 
L 581 0 
L 581 3500 
L 1159 3500 
L 1159 2956 
Q 1366 3272 1645 3428 
Q 1925 3584 2291 3584 
Q 2894 3584 3203 3211 
Q 3513 2838 3513 2113 
z
" transform="scale(0.015625)"/>
       <path id="DejaVuSans-75" d="M 544 1381 
L 544 3500 
L 1119 3500 
L 1119 1403 
Q 1119 906 1312 657 
Q 1506 409 1894 409 
Q 2359 409 2629 706 
Q 2900 1003 2900 1516 
L 2900 3500 
L 3475 3500 
L 3475 0 
L 2900 0 
L 2900 538 
Q 2691 219 2414 64 
Q 2138 -91 1772 -91 
Q 1169 -91 856 284 
Q 544 659 544 1381 
z
M 1991 3584 
L 1991 3584 
z
" transform="scale(0.015625)"/>
       <path id="DejaVuSans-6d" d="M 3328 2828 
Q 3544 3216 3844 3400 
Q 4144 3584 4550 3584 
Q 5097 3584 5394 3201 
Q 5691 2819 5691 2113 
L 5691 0 
L 5113 0 
L 5113 2094 
Q 5113 2597 4934 2840 
Q 4756 3084 4391 3084 
Q 3944 3084 3684 2787 
Q 3425 2491 3425 1978 
L 3425 0 
L 2847 0 
L 2847 2094 
Q 2847 2600 2669 2842 
Q 2491 3084 2119 3084 
Q 1678 3084 1418 2786 
Q 1159 2488 1159 1978 
L 1159 0 
L 581 0 
L 581 3500 
L 1159 3500 
L 1159 2956 
Q 1356 3278 1631 3431 
Q 1906 3584 2284 3584 
Q 2666 3584 2933 3390 
Q 3200 3197 3328 2828 
z
" transform="scale(0.015625)"/>
       <path id="DejaVuSans-20" transform="scale(0.015625)"/>
       <path id="DejaVuSans-73" d="M 2834 3397 
L 2834 2853 
Q 2591 2978 2328 3040 
Q 2066 3103 1784 3103 
Q 1356 3103 1142 2972 
Q 928 2841 928 2578 
Q 928 2378 1081 2264 
Q 1234 2150 1697 2047 
L 1894 2003 
Q 2506 1872 2764 1633 
Q 3022 1394 3022 966 
Q 3022 478 2636 193 
Q 2250 -91 1575 -91 
Q 1294 -91 989 -36 
Q 684 19 347 128 
L 347 722 
Q 666 556 975 473 
Q 1284 391 1588 391 
Q 1994 391 2212 530 
Q 2431 669 2431 922 
Q 2431 1156 2273 1281 
Q 2116 1406 1581 1522 
L 1381 1569 
Q 847 1681 609 1914 
Q 372 2147 372 2553 
Q 372 3047 722 3315 
Q 1072 3584 1716 3584 
Q 2034 3584 2315 3537 
Q 2597 3491 2834 3397 
z
" transform="scale(0.015625)"/>
       <path id="DejaVuSans-77" d="M 269 3500 
L 844 3500 
L 1563 769 
L 2278 3500 
L 2956 3500 
L 3675 769 
L 4391 3500 
L 4966 3500 
L 4050 0 
L 3372 0 
L 2619 2869 
L 1863 0 
L 1184 0 
L 269 3500 
z
" transform="scale(0.015625)"/>
       <path id="DejaVuSans-61" d="M 2194 1759 
Q 1497 1759 1228 1600 
Q 959 1441 959 1056 
Q 959 750 1161 570 
Q 1363 391 1709 391 
Q 2188 391 2477 730 
Q 2766 1069 2766 1631 
L 2766 1759 
L 2194 1759 
z
M 3341 1997 
L 3341 0 
L 2766 0 
L 2766 531 
Q 2569 213 2275 61 
Q 1981 -91 1556 -91 
Q 1019 -91 701 211 
Q 384 513 384 1019 
Q 384 1609 779 1909 
Q 1175 2209 1959 2209 
L 2766 2209 
L 2766 2266 
Q 2766 2663 2505 2880 
Q 2244 3097 1772 3097 
Q 1472 3097 1187 3025 
Q 903 2953 641 2809 
L 641 3341 
Q 956 3463 1253 3523 
Q 1550 3584 1831 3584 
Q 2591 3584 2966 3190 
Q 3341 2797 3341 1997 
z
" transform="scale(0.015625)"/>
       <path id="DejaVuSans-70" d="M 1159 525 
L 1159 -1331 
L 581 -1331 
L 581 3500 
L 1159 3500 
L 1159 2969 
Q 1341 3281 1617 3432 
Q 1894 3584 2278 3584 
Q 2916 3584 3314 3078 
Q 3713 2572 3713 1747 
Q 3713 922 3314 415 
Q 2916 -91 2278 -91 
Q 1894 -91 1617 61 
Q 1341 213 1159 525 
z
M 3116 1747 
Q 3116 2381 2855 2742 
Q 2594 3103 2138 3103 
Q 1681 3103 1420 2742 
Q 1159 2381 1159 1747 
Q 1159 1113 1420 752 
Q 1681 391 2138 391 
Q 2594 391 2855 752 
Q 3116 1113 3116 1747 
z
" transform="scale(0.015625)"/>
      </defs>
      <use xlink:href="#DejaVuSans-6e"/>
      <use xlink:href="#DejaVuSans-75" x="63.378906"/>
      <use xlink:href="#DejaVuSans-6d" x="126.757812"/>
      <use xlink:href="#DejaVuSans-20" x="224.169922"/>
      <use xlink:href="#DejaVuSans-73" x="255.957031"/>
      <use xlink:href="#DejaVuSans-77" x="308.056641"/>
      <use xlink:href="#DejaVuSans-61" x="389.84375"/>
      <use xlink:href="#DejaVuSans-70" x="451.123047"/>
      <use xlink:href="#DejaVuSans-73" x="514.599609"/>
     </g>
    </g>
   </g>
   <g id="matplotlib.axis_2">
    <g id="ytick_1">
     <g id="line2d_6">
      <defs>
       <path id="m4ca008b206" d="M 0 0 
L -3.5 0 
" style="stroke: #000000; stroke-width: 0.8"/>
      </defs>
      <g>
       <use xlink:href="#m4ca008b206" x="57.6" y="295.488" style="stroke: #000000; stroke-width: 0.8"/>
      </g>
     </g>
     <g id="text_7">
      <!-- 290 -->
      <g transform="translate(31.5125 299.287219)scale(0.1 -0.1)">
       <defs>
        <path id="DejaVuSans-39" d="M 703 97 
L 703 672 
Q 941 559 1184 500 
Q 1428 441 1663 441 
Q 2288 441 2617 861 
Q 2947 1281 2994 2138 
Q 2813 1869 2534 1725 
Q 2256 1581 1919 1581 
Q 1219 1581 811 2004 
Q 403 2428 403 3163 
Q 403 3881 828 4315 
Q 1253 4750 1959 4750 
Q 2769 4750 3195 4129 
Q 3622 3509 3622 2328 
Q 3622 1225 3098 567 
Q 2575 -91 1691 -91 
Q 1453 -91 1209 -44 
Q 966 3 703 97 
z
M 1959 2075 
Q 2384 2075 2632 2365 
Q 2881 2656 2881 3163 
Q 2881 3666 2632 3958 
Q 2384 4250 1959 4250 
Q 1534 4250 1286 3958 
Q 1038 3666 1038 3163 
Q 1038 2656 1286 2365 
Q 1534 2075 1959 2075 
z
" transform="scale(0.015625)"/>
       </defs>
       <use xlink:href="#DejaVuSans-32"/>
       <use xlink:href="#DejaVuSans-39" x="63.623047"/>
       <use xlink:href="#DejaVuSans-30" x="127.246094"/>
      </g>
     </g>
    </g>
    <g id="ytick_2">
     <g id="line2d_7">
      <g>
       <use xlink:href="#m4ca008b206" x="57.6" y="264.865215" style="stroke: #000000; stroke-width: 0.8"/>
      </g>
     </g>
     <g id="text_8">
      <!-- 300 -->
      <g transform="translate(31.5125 268.664434)scale(0.1 -0.1)">
       <defs>
        <path id="DejaVuSans-33" d="M 2597 2516 
Q 3050 2419 3304 2112 
Q 3559 1806 3559 1356 
Q 3559 666 3084 287 
Q 2609 -91 1734 -91 
Q 1441 -91 1130 -33 
Q 819 25 488 141 
L 488 750 
Q 750 597 1062 519 
Q 1375 441 1716 441 
Q 2309 441 2620 675 
Q 2931 909 2931 1356 
Q 2931 1769 2642 2001 
Q 2353 2234 1838 2234 
L 1294 2234 
L 1294 2753 
L 1863 2753 
Q 2328 2753 2575 2939 
Q 2822 3125 2822 3475 
Q 2822 3834 2567 4026 
Q 2313 4219 1838 4219 
Q 1578 4219 1281 4162 
Q 984 4106 628 3988 
L 628 4550 
Q 988 4650 1302 4700 
Q 1616 4750 1894 4750 
Q 2613 4750 3031 4423 
Q 3450 4097 3450 3541 
Q 3450 3153 3228 2886 
Q 3006 2619 2597 2516 
z
" transform="scale(0.015625)"/>
       </defs>
       <use xlink:href="#DejaVuSans-33"/>
       <use xlink:href="#DejaVuSans-30" x="63.623047"/>
       <use xlink:href="#DejaVuSans-30" x="127.246094"/>
      </g>
     </g>
    </g>
    <g id="ytick_3">
     <g id="line2d_8">
      <g>
       <use xlink:href="#m4ca008b206" x="57.6" y="234.24243" style="stroke: #000000; stroke-width: 0.8"/>
      </g>
     </g>
     <g id="text_9">
      <!-- 310 -->
      <g transform="translate(31.5125 238.041649)scale(0.1 -0.1)">
       <use xlink:href="#DejaVuSans-33"/>
       <use xlink:href="#DejaVuSans-31" x="63.623047"/>
       <use xlink:href="#DejaVuSans-30" x="127.246094"/>
      </g>
     </g>
    </g>
    <g id="ytick_4">
     <g id="line2d_9">
      <g>
       <use xlink:href="#m4ca008b206" x="57.6" y="203.619646" style="stroke: #000000; stroke-width: 0.8"/>
      </g>
     </g>
     <g id="text_10">
      <!-- 320 -->
      <g transform="translate(31.5125 207.418864)scale(0.1 -0.1)">
       <use xlink:href="#DejaVuSans-33"/>
       <use xlink:href="#DejaVuSans-32" x="63.623047"/>
       <use xlink:href="#DejaVuSans-30" x="127.246094"/>
      </g>
     </g>
    </g>
    <g id="ytick_5">
     <g id="line2d_10">
      <g>
       <use xlink:href="#m4ca008b206" x="57.6" y="172.996861" style="stroke: #000000; stroke-width: 0.8"/>
      </g>
     </g>
     <g id="text_11">
      <!-- 330 -->
      <g transform="translate(31.5125 176.79608)scale(0.1 -0.1)">
       <use xlink:href="#DejaVuSans-33"/>
       <use xlink:href="#DejaVuSans-33" x="63.623047"/>
       <use xlink:href="#DejaVuSans-30" x="127.246094"/>
      </g>
     </g>
    </g>
    <g id="ytick_6">
     <g id="line2d_11">
      <g>
       <use xlink:href="#m4ca008b206" x="57.6" y="142.374076" style="stroke: #000000; stroke-width: 0.8"/>
      </g>
     </g>
     <g id="text_12">
      <!-- 340 -->
      <g transform="translate(31.5125 146.173295)scale(0.1 -0.1)">
       <defs>
        <path id="DejaVuSans-34" d="M 2419 4116 
L 825 1625 
L 2419 1625 
L 2419 4116 
z
M 2253 4666 
L 3047 4666 
L 3047 1625 
L 3713 1625 
L 3713 1100 
L 3047 1100 
L 3047 0 
L 2419 0 
L 2419 1100 
L 313 1100 
L 313 1709 
L 2253 4666 
z
" transform="scale(0.015625)"/>
       </defs>
       <use xlink:href="#DejaVuSans-33"/>
       <use xlink:href="#DejaVuSans-34" x="63.623047"/>
       <use xlink:href="#DejaVuSans-30" x="127.246094"/>
      </g>
     </g>
    </g>
    <g id="ytick_7">
     <g id="line2d_12">
      <g>
       <use xlink:href="#m4ca008b206" x="57.6" y="111.751291" style="stroke: #000000; stroke-width: 0.8"/>
      </g>
     </g>
     <g id="text_13">
      <!-- 350 -->
      <g transform="translate(31.5125 115.55051)scale(0.1 -0.1)">
       <use xlink:href="#DejaVuSans-33"/>
       <use xlink:href="#DejaVuSans-35" x="63.623047"/>
       <use xlink:href="#DejaVuSans-30" x="127.246094"/>
      </g>
     </g>
    </g>
    <g id="ytick_8">
     <g id="line2d_13">
      <g>
       <use xlink:href="#m4ca008b206" x="57.6" y="81.128506" style="stroke: #000000; stroke-width: 0.8"/>
      </g>
     </g>
     <g id="text_14">
      <!-- 360 -->
      <g transform="translate(31.5125 84.927725)scale(0.1 -0.1)">
       <defs>
        <path id="DejaVuSans-36" d="M 2113 2584 
Q 1688 2584 1439 2293 
Q 1191 2003 1191 1497 
Q 1191 994 1439 701 
Q 1688 409 2113 409 
Q 2538 409 2786 701 
Q 3034 994 3034 1497 
Q 3034 2003 2786 2293 
Q 2538 2584 2113 2584 
z
M 3366 4563 
L 3366 3988 
Q 3128 4100 2886 4159 
Q 2644 4219 2406 4219 
Q 1781 4219 1451 3797 
Q 1122 3375 1075 2522 
Q 1259 2794 1537 2939 
Q 1816 3084 2150 3084 
Q 2853 3084 3261 2657 
Q 3669 2231 3669 1497 
Q 3669 778 3244 343 
Q 2819 -91 2113 -91 
Q 1303 -91 875 529 
Q 447 1150 447 2328 
Q 447 3434 972 4092 
Q 1497 4750 2381 4750 
Q 2619 4750 2861 4703 
Q 3103 4656 3366 4563 
z
" transform="scale(0.015625)"/>
       </defs>
       <use xlink:href="#DejaVuSans-33"/>
       <use xlink:href="#DejaVuSans-36" x="63.623047"/>
       <use xlink:href="#DejaVuSans-30" x="127.246094"/>
      </g>
     </g>
    </g>
    <g id="ytick_9">
     <g id="line2d_14">
      <g>
       <use xlink:href="#m4ca008b206" x="57.6" y="50.505722" style="stroke: #000000; stroke-width: 0.8"/>
      </g>
     </g>
     <g id="text_15">
      <!-- 370 -->
      <g transform="translate(31.5125 54.30494)scale(0.1 -0.1)">
       <defs>
        <path id="DejaVuSans-37" d="M 525 4666 
L 3525 4666 
L 3525 4397 
L 1831 0 
L 1172 0 
L 2766 4134 
L 525 4134 
L 525 4666 
z
" transform="scale(0.015625)"/>
       </defs>
       <use xlink:href="#DejaVuSans-33"/>
       <use xlink:href="#DejaVuSans-37" x="63.623047"/>
       <use xlink:href="#DejaVuSans-30" x="127.246094"/>
      </g>
     </g>
    </g>
    <g id="text_16">
     <!-- total cost -->
     <g transform="translate(25.432812 197.923313)rotate(-90)scale(0.1 -0.1)">
      <defs>
       <path id="DejaVuSans-74" d="M 1172 4494 
L 1172 3500 
L 2356 3500 
L 2356 3053 
L 1172 3053 
L 1172 1153 
Q 1172 725 1289 603 
Q 1406 481 1766 481 
L 2356 481 
L 2356 0 
L 1766 0 
Q 1100 0 847 248 
Q 594 497 594 1153 
L 594 3053 
L 172 3053 
L 172 3500 
L 594 3500 
L 594 4494 
L 1172 4494 
z
" transform="scale(0.015625)"/>
       <path id="DejaVuSans-6f" d="M 1959 3097 
Q 1497 3097 1228 2736 
Q 959 2375 959 1747 
Q 959 1119 1226 758 
Q 1494 397 1959 397 
Q 2419 397 2687 759 
Q 2956 1122 2956 1747 
Q 2956 2369 2687 2733 
Q 2419 3097 1959 3097 
z
M 1959 3584 
Q 2709 3584 3137 3096 
Q 3566 2609 3566 1747 
Q 3566 888 3137 398 
Q 2709 -91 1959 -91 
Q 1206 -91 779 398 
Q 353 888 353 1747 
Q 353 2609 779 3096 
Q 1206 3584 1959 3584 
z
" transform="scale(0.015625)"/>
       <path id="DejaVuSans-6c" d="M 603 4863 
L 1178 4863 
L 1178 0 
L 603 0 
L 603 4863 
z
" transform="scale(0.015625)"/>
       <path id="DejaVuSans-63" d="M 3122 3366 
L 3122 2828 
Q 2878 2963 2633 3030 
Q 2388 3097 2138 3097 
Q 1578 3097 1268 2742 
Q 959 2388 959 1747 
Q 959 1106 1268 751 
Q 1578 397 2138 397 
Q 2388 397 2633 464 
Q 2878 531 3122 666 
L 3122 134 
Q 2881 22 2623 -34 
Q 2366 -91 2075 -91 
Q 1284 -91 818 406 
Q 353 903 353 1747 
Q 353 2603 823 3093 
Q 1294 3584 2113 3584 
Q 2378 3584 2631 3529 
Q 2884 3475 3122 3366 
z
" transform="scale(0.015625)"/>
      </defs>
      <use xlink:href="#DejaVuSans-74"/>
      <use xlink:href="#DejaVuSans-6f" x="39.208984"/>
      <use xlink:href="#DejaVuSans-74" x="100.390625"/>
      <use xlink:href="#DejaVuSans-61" x="139.599609"/>
      <use xlink:href="#DejaVuSans-6c" x="200.878906"/>
      <use xlink:href="#DejaVuSans-20" x="228.662109"/>
      <use xlink:href="#DejaVuSans-63" x="260.449219"/>
      <use xlink:href="#DejaVuSans-6f" x="315.429688"/>
      <use xlink:href="#DejaVuSans-73" x="376.611328"/>
      <use xlink:href="#DejaVuSans-74" x="428.710938"/>
     </g>
    </g>
   </g>
   <g id="line2d_15">
    <path d="M 73.832727 194.43281 
L 74.10856 166.872304 
L 74.384392 163.810025 
L 74.660224 157.685468 
L 74.936056 142.374076 
L 75.211888 163.810025 
L 75.487721 139.311797 
L 75.763553 169.934582 
L 76.039385 166.872304 
L 76.315217 139.311797 
L 76.59105 130.124962 
L 77.142714 176.059139 
L 77.418546 157.685468 
L 77.694379 169.934582 
L 77.970211 194.43281 
L 78.246043 191.370532 
L 78.521875 169.934582 
L 78.797708 160.747747 
L 79.07354 169.934582 
L 79.349372 157.685468 
L 79.625204 163.810025 
L 80.176869 130.124962 
L 80.452701 154.62319 
L 80.728533 139.311797 
L 81.004365 145.436354 
L 81.280198 136.249519 
L 81.55603 182.183696 
L 81.831862 166.872304 
L 82.107694 203.619646 
L 82.383527 169.934582 
L 82.659359 154.62319 
L 82.935191 163.810025 
L 83.211023 157.685468 
L 83.486856 166.872304 
L 83.762688 157.685468 
L 84.03852 176.059139 
L 84.314352 182.183696 
L 84.590185 185.245975 
L 84.866017 212.806481 
L 85.417681 182.183696 
L 85.693514 194.43281 
L 85.969346 182.183696 
L 86.245178 182.183696 
L 86.52101 172.996861 
L 86.796843 176.059139 
L 87.072675 172.996861 
L 87.348507 176.059139 
L 87.624339 145.436354 
L 87.900171 163.810025 
L 88.176004 191.370532 
L 88.727668 169.934582 
L 89.0035 142.374076 
L 89.279333 157.685468 
L 89.555165 142.374076 
L 89.830997 142.374076 
L 90.106829 145.436354 
L 90.382662 179.121418 
L 90.658494 163.810025 
L 90.934326 206.681924 
L 91.210158 209.744203 
L 91.485991 203.619646 
L 91.761823 182.183696 
L 92.037655 203.619646 
L 92.313487 160.747747 
L 92.58932 160.747747 
L 92.865152 154.62319 
L 93.140984 172.996861 
L 93.416816 172.996861 
L 93.692648 157.685468 
L 93.968481 117.875848 
L 94.244313 114.81357 
L 94.520145 130.124962 
L 94.795977 111.751291 
L 95.347642 148.498633 
L 95.623474 148.498633 
L 95.899306 182.183696 
L 96.175139 188.308253 
L 96.450971 182.183696 
L 96.726803 179.121418 
L 97.002635 160.747747 
L 97.278468 176.059139 
L 97.5543 179.121418 
L 98.105964 154.62319 
L 98.381797 172.996861 
L 98.657629 172.996861 
L 98.933461 176.059139 
L 99.209293 176.059139 
L 99.485126 179.121418 
L 99.760958 203.619646 
L 100.03679 200.557367 
L 100.588454 142.374076 
L 100.864287 139.311797 
L 101.415951 154.62319 
L 101.691783 157.685468 
L 101.967616 151.560911 
L 102.243448 160.747747 
L 102.795112 130.124962 
L 103.070945 160.747747 
L 103.622609 172.996861 
L 103.898441 197.495089 
L 104.174274 179.121418 
L 104.450106 130.124962 
L 105.00177 136.249519 
L 105.277603 148.498633 
L 105.553435 169.934582 
L 106.105099 133.187241 
L 106.380931 102.564456 
L 106.932596 124.000405 
L 107.48426 148.498633 
L 107.760093 124.000405 
L 108.035925 130.124962 
L 108.311757 133.187241 
L 108.587589 93.37762 
L 108.863422 96.439899 
L 109.139254 75.003949 
L 109.415086 81.128506 
L 109.690918 130.124962 
L 109.966751 124.000405 
L 110.242583 151.560911 
L 110.518415 145.436354 
L 110.794247 154.62319 
L 111.07008 172.996861 
L 111.345912 148.498633 
L 111.897576 163.810025 
L 112.173409 139.311797 
L 112.449241 148.498633 
L 112.725073 166.872304 
L 113.276737 111.751291 
L 113.55257 93.37762 
L 113.828402 96.439899 
L 114.104234 120.938127 
L 114.380066 99.502177 
L 114.655899 120.938127 
L 114.931731 127.062684 
L 115.207563 194.43281 
L 115.759228 194.43281 
L 116.03506 188.308253 
L 116.310892 200.557367 
L 116.586724 200.557367 
L 116.862557 203.619646 
L 117.138389 203.619646 
L 117.414221 200.557367 
L 117.965886 218.931038 
L 118.241718 209.744203 
L 118.51755 188.308253 
L 118.793382 185.245975 
L 119.069214 166.872304 
L 119.345047 163.810025 
L 119.620879 197.495089 
L 119.896711 197.495089 
L 120.172543 218.931038 
L 120.448376 215.868759 
L 120.724208 228.117873 
L 121.00004 228.117873 
L 121.275872 231.180152 
L 121.551705 225.055595 
L 121.827537 225.055595 
L 122.103369 221.993316 
L 122.379201 249.553823 
L 122.655034 240.366987 
L 122.930866 237.304709 
L 123.206698 212.806481 
L 123.48253 200.557367 
L 123.758363 215.868759 
L 124.310027 228.117873 
L 124.585859 243.429266 
L 124.861692 243.429266 
L 125.137524 228.117873 
L 125.413356 228.117873 
L 125.689188 231.180152 
L 125.96502 218.931038 
L 126.240853 225.055595 
L 126.516685 249.553823 
L 126.792517 234.24243 
L 127.068349 228.117873 
L 127.344182 188.308253 
L 127.895846 200.557367 
L 128.171678 179.121418 
L 128.447511 185.245975 
L 128.723343 185.245975 
L 128.999175 188.308253 
L 129.275007 160.747747 
L 129.826672 206.681924 
L 130.102504 203.619646 
L 130.378336 185.245975 
L 130.654169 197.495089 
L 130.930001 200.557367 
L 131.205833 225.055595 
L 131.481665 191.370532 
L 131.757497 185.245975 
L 132.03333 169.934582 
L 132.309162 130.124962 
L 132.584994 108.689013 
L 132.860826 114.81357 
L 133.412491 136.249519 
L 133.688323 120.938127 
L 133.964155 166.872304 
L 134.239988 151.560911 
L 134.51582 145.436354 
L 135.067484 182.183696 
L 135.343317 176.059139 
L 135.619149 200.557367 
L 135.894981 206.681924 
L 136.170813 197.495089 
L 136.722478 225.055595 
L 136.99831 197.495089 
L 137.274142 212.806481 
L 137.549975 206.681924 
L 138.101639 240.366987 
L 138.377471 237.304709 
L 138.653303 203.619646 
L 138.929136 209.744203 
L 139.204968 206.681924 
L 139.4808 197.495089 
L 139.756632 200.557367 
L 140.032465 194.43281 
L 140.308297 185.245975 
L 140.584129 194.43281 
L 140.859961 197.495089 
L 141.135794 197.495089 
L 141.411626 179.121418 
L 141.687458 151.560911 
L 142.239123 136.249519 
L 142.514955 139.311797 
L 142.790787 130.124962 
L 143.066619 127.062684 
L 143.342452 117.875848 
L 143.618284 151.560911 
L 143.894116 154.62319 
L 144.44578 218.931038 
L 144.721613 212.806481 
L 144.997445 225.055595 
L 145.273277 218.931038 
L 145.549109 218.931038 
L 145.824942 234.24243 
L 146.100774 234.24243 
L 146.376606 200.557367 
L 146.652438 203.619646 
L 146.928271 203.619646 
L 147.204103 188.308253 
L 147.479935 215.868759 
L 147.755767 203.619646 
L 148.0316 206.681924 
L 148.307432 203.619646 
L 148.583264 215.868759 
L 148.859096 212.806481 
L 149.134929 215.868759 
L 149.410761 209.744203 
L 149.686593 209.744203 
L 149.962425 188.308253 
L 150.238258 197.495089 
L 150.789922 197.495089 
L 151.065754 194.43281 
L 151.341586 200.557367 
L 151.617419 185.245975 
L 151.893251 194.43281 
L 152.169083 185.245975 
L 152.444915 163.810025 
L 152.720748 160.747747 
L 152.99658 145.436354 
L 153.272412 139.311797 
L 153.548244 142.374076 
L 153.824077 142.374076 
L 154.099909 136.249519 
L 154.375741 145.436354 
L 154.651573 142.374076 
L 154.927406 142.374076 
L 155.203238 148.498633 
L 155.754902 172.996861 
L 156.030735 197.495089 
L 156.306567 209.744203 
L 156.582399 185.245975 
L 157.134063 200.557367 
L 157.409896 206.681924 
L 157.685728 209.744203 
L 157.96156 200.557367 
L 158.237392 231.180152 
L 158.513225 225.055595 
L 158.789057 228.117873 
L 159.064889 234.24243 
L 159.340721 221.993316 
L 159.616554 194.43281 
L 159.892386 185.245975 
L 160.168218 185.245975 
L 160.44405 191.370532 
L 160.719883 194.43281 
L 161.271547 166.872304 
L 161.547379 179.121418 
L 161.823212 179.121418 
L 162.099044 182.183696 
L 162.374876 182.183696 
L 162.650708 225.055595 
L 162.926541 231.180152 
L 163.202373 234.24243 
L 163.478205 252.616101 
L 163.754037 234.24243 
L 164.305702 176.059139 
L 164.581534 166.872304 
L 164.857366 206.681924 
L 165.133198 212.806481 
L 165.409031 212.806481 
L 165.960695 197.495089 
L 166.236527 154.62319 
L 166.51236 139.311797 
L 166.788192 145.436354 
L 167.064024 154.62319 
L 167.339856 172.996861 
L 167.615689 166.872304 
L 167.891521 163.810025 
L 168.167353 212.806481 
L 168.443185 194.43281 
L 168.719018 197.495089 
L 168.99485 203.619646 
L 169.546514 225.055595 
L 169.822346 228.117873 
L 170.098179 212.806481 
L 170.374011 225.055595 
L 170.649843 209.744203 
L 170.925675 206.681924 
L 171.201508 200.557367 
L 171.47734 209.744203 
L 171.753172 209.744203 
L 172.029004 221.993316 
L 172.304837 194.43281 
L 172.580669 218.931038 
L 172.856501 228.117873 
L 173.132333 185.245975 
L 174.235662 96.439899 
L 174.511495 133.187241 
L 175.063159 157.685468 
L 175.338991 160.747747 
L 175.614824 154.62319 
L 176.44232 145.436354 
L 176.718152 145.436354 
L 176.993985 139.311797 
L 177.269817 136.249519 
L 177.545649 148.498633 
L 177.821481 133.187241 
L 178.097314 179.121418 
L 178.373146 145.436354 
L 178.648978 148.498633 
L 178.92481 166.872304 
L 179.200643 154.62319 
L 179.476475 234.24243 
L 179.752307 246.491544 
L 180.028139 240.366987 
L 180.303972 246.491544 
L 180.579804 212.806481 
L 180.855636 228.117873 
L 181.407301 182.183696 
L 181.683133 203.619646 
L 181.958965 215.868759 
L 182.234797 221.993316 
L 182.510629 212.806481 
L 182.786462 191.370532 
L 183.062294 188.308253 
L 183.338126 188.308253 
L 183.613958 185.245975 
L 184.165623 191.370532 
L 184.441455 188.308253 
L 184.717287 221.993316 
L 185.268952 234.24243 
L 185.544784 255.67838 
L 185.820616 221.993316 
L 186.372281 240.366987 
L 186.923945 200.557367 
L 187.199778 218.931038 
L 187.47561 182.183696 
L 187.751442 185.245975 
L 188.027274 172.996861 
L 188.303107 176.059139 
L 188.578939 166.872304 
L 188.854771 166.872304 
L 189.130603 133.187241 
L 189.406435 130.124962 
L 189.9581 169.934582 
L 190.233932 160.747747 
L 190.509764 172.996861 
L 190.785597 166.872304 
L 191.061429 191.370532 
L 191.337261 185.245975 
L 191.613093 176.059139 
L 191.888926 182.183696 
L 192.164758 194.43281 
L 192.44059 176.059139 
L 192.716422 179.121418 
L 192.992255 185.245975 
L 193.268087 185.245975 
L 193.543919 200.557367 
L 193.819751 225.055595 
L 194.095584 237.304709 
L 194.371416 185.245975 
L 194.647248 172.996861 
L 194.92308 179.121418 
L 195.198912 200.557367 
L 195.474745 200.557367 
L 196.026409 228.117873 
L 196.578074 221.993316 
L 196.853906 206.681924 
L 197.129738 234.24243 
L 197.40557 231.180152 
L 197.681403 218.931038 
L 197.957235 157.685468 
L 198.508899 130.124962 
L 198.784732 127.062684 
L 199.060564 117.875848 
L 199.336396 133.187241 
L 199.612228 136.249519 
L 200.163893 169.934582 
L 200.439725 176.059139 
L 200.99139 136.249519 
L 201.543054 228.117873 
L 201.818886 225.055595 
L 202.094718 228.117873 
L 202.370551 212.806481 
L 202.646383 221.993316 
L 202.922215 188.308253 
L 203.198047 172.996861 
L 203.47388 169.934582 
L 203.749712 182.183696 
L 204.025544 182.183696 
L 204.301376 157.685468 
L 204.577209 120.938127 
L 204.853041 130.124962 
L 205.128873 145.436354 
L 205.404705 191.370532 
L 205.680538 212.806481 
L 205.95637 225.055595 
L 206.232202 221.993316 
L 206.508034 221.993316 
L 207.059699 228.117873 
L 207.335531 221.993316 
L 207.611363 218.931038 
L 207.887195 212.806481 
L 208.163028 194.43281 
L 208.43886 194.43281 
L 208.714692 182.183696 
L 208.990524 176.059139 
L 209.266357 176.059139 
L 209.542189 185.245975 
L 209.818021 179.121418 
L 210.093853 179.121418 
L 211.197182 124.000405 
L 211.748847 172.996861 
L 212.024679 188.308253 
L 212.300511 194.43281 
L 212.576344 203.619646 
L 212.852176 218.931038 
L 213.128008 203.619646 
L 213.40384 172.996861 
L 213.955505 200.557367 
L 214.231337 169.934582 
L 214.507169 176.059139 
L 214.783001 157.685468 
L 215.058834 157.685468 
L 215.334666 139.311797 
L 215.610498 53.568 
L 215.88633 84.190785 
L 216.162163 78.066228 
L 216.437995 139.311797 
L 216.713827 145.436354 
L 216.989659 157.685468 
L 217.265492 145.436354 
L 217.541324 154.62319 
L 217.817156 157.685468 
L 218.092988 145.436354 
L 218.368821 166.872304 
L 218.644653 160.747747 
L 218.920485 179.121418 
L 219.196317 169.934582 
L 219.47215 172.996861 
L 220.023814 114.81357 
L 220.299646 120.938127 
L 220.575478 130.124962 
L 220.851311 105.626734 
L 221.127143 136.249519 
L 221.402975 136.249519 
L 221.678807 166.872304 
L 221.95464 154.62319 
L 222.230472 136.249519 
L 222.506304 105.626734 
L 222.782136 114.81357 
L 223.057969 136.249519 
L 223.333801 127.062684 
L 223.609633 130.124962 
L 223.885465 151.560911 
L 224.161298 148.498633 
L 224.43713 160.747747 
L 224.712962 151.560911 
L 224.988794 148.498633 
L 225.264627 188.308253 
L 226.092123 148.498633 
L 226.367956 176.059139 
L 226.643788 166.872304 
L 227.195452 197.495089 
L 227.471284 191.370532 
L 227.747117 172.996861 
L 228.022949 179.121418 
L 228.574613 197.495089 
L 228.850446 197.495089 
L 229.126278 209.744203 
L 229.40211 209.744203 
L 229.677942 182.183696 
L 229.953775 172.996861 
L 230.229607 182.183696 
L 230.505439 182.183696 
L 231.057104 218.931038 
L 231.332936 206.681924 
L 231.8846 261.802937 
L 232.160433 261.802937 
L 232.436265 277.114329 
L 232.712097 274.052051 
L 232.987929 274.052051 
L 233.263761 261.802937 
L 233.539594 261.802937 
L 234.091258 221.993316 
L 234.36709 225.055595 
L 234.642923 225.055595 
L 234.918755 218.931038 
L 235.194587 231.180152 
L 235.470419 255.67838 
L 235.746252 252.616101 
L 236.022084 255.67838 
L 236.297916 228.117873 
L 236.573748 225.055595 
L 236.849581 243.429266 
L 237.125413 252.616101 
L 237.677077 252.616101 
L 237.95291 240.366987 
L 238.228742 206.681924 
L 238.504574 215.868759 
L 238.780406 209.744203 
L 239.056239 194.43281 
L 239.332071 145.436354 
L 239.607903 157.685468 
L 239.883735 154.62319 
L 240.4354 127.062684 
L 240.987064 133.187241 
L 241.262896 145.436354 
L 241.538729 133.187241 
L 241.814561 148.498633 
L 242.090393 151.560911 
L 242.366225 163.810025 
L 242.642058 182.183696 
L 242.91789 185.245975 
L 243.193722 182.183696 
L 243.469554 182.183696 
L 243.745387 179.121418 
L 244.021219 172.996861 
L 244.297051 148.498633 
L 244.572883 139.311797 
L 244.848716 136.249519 
L 245.124548 148.498633 
L 245.40038 142.374076 
L 245.676212 120.938127 
L 245.952044 120.938127 
L 246.227877 108.689013 
L 246.503709 102.564456 
L 247.055373 102.564456 
L 247.607038 84.190785 
L 248.158702 139.311797 
L 248.434535 148.498633 
L 248.710367 124.000405 
L 248.986199 130.124962 
L 249.537864 124.000405 
L 249.813696 139.311797 
L 250.089528 127.062684 
L 250.641193 142.374076 
L 250.917025 136.249519 
L 251.468689 185.245975 
L 251.744522 166.872304 
L 252.020354 163.810025 
L 252.296186 169.934582 
L 252.84785 169.934582 
L 253.123683 185.245975 
L 253.399515 176.059139 
L 253.675347 176.059139 
L 253.951179 188.308253 
L 254.227012 160.747747 
L 254.502844 169.934582 
L 254.778676 166.872304 
L 255.054508 182.183696 
L 255.330341 185.245975 
L 255.882005 225.055595 
L 256.43367 188.308253 
L 256.709502 200.557367 
L 256.985334 197.495089 
L 257.261166 197.495089 
L 257.812831 176.059139 
L 258.088663 166.872304 
L 258.364495 163.810025 
L 258.640327 203.619646 
L 259.191992 221.993316 
L 259.743656 206.681924 
L 260.019489 212.806481 
L 260.295321 228.117873 
L 260.571153 206.681924 
L 260.846985 200.557367 
L 261.122818 206.681924 
L 261.674482 212.806481 
L 261.950314 200.557367 
L 262.226147 169.934582 
L 262.501979 169.934582 
L 262.777811 209.744203 
L 263.053643 206.681924 
L 263.329476 228.117873 
L 263.605308 218.931038 
L 263.88114 237.304709 
L 264.432805 215.868759 
L 264.708637 215.868759 
L 264.984469 185.245975 
L 265.536133 157.685468 
L 265.811966 188.308253 
L 266.087798 163.810025 
L 266.36363 182.183696 
L 266.639462 166.872304 
L 267.191127 185.245975 
L 267.466959 215.868759 
L 267.742791 215.868759 
L 268.018624 212.806481 
L 268.294456 231.180152 
L 268.84612 206.681924 
L 269.121953 228.117873 
L 269.397785 157.685468 
L 269.673617 231.180152 
L 269.949449 231.180152 
L 270.225282 206.681924 
L 270.776946 194.43281 
L 271.052778 197.495089 
L 271.32861 172.996861 
L 271.604443 200.557367 
L 271.880275 160.747747 
L 272.156107 176.059139 
L 272.431939 179.121418 
L 272.707772 166.872304 
L 272.983604 191.370532 
L 273.535268 166.872304 
L 273.811101 182.183696 
L 274.086933 179.121418 
L 274.362765 185.245975 
L 274.638597 218.931038 
L 274.91443 225.055595 
L 275.190262 206.681924 
L 275.466094 212.806481 
L 275.741926 221.993316 
L 276.017759 206.681924 
L 276.293591 212.806481 
L 276.569423 203.619646 
L 276.845255 179.121418 
L 277.121088 200.557367 
L 277.39692 194.43281 
L 277.672752 194.43281 
L 277.948584 188.308253 
L 278.224416 176.059139 
L 278.500249 182.183696 
L 278.776081 139.311797 
L 279.327745 124.000405 
L 279.603578 105.626734 
L 279.87941 96.439899 
L 280.155242 105.626734 
L 280.431074 99.502177 
L 280.706907 102.564456 
L 280.982739 102.564456 
L 281.258571 108.689013 
L 281.534403 102.564456 
L 281.810236 90.315342 
L 282.086068 111.751291 
L 282.3619 114.81357 
L 282.637732 108.689013 
L 282.913565 124.000405 
L 283.189397 130.124962 
L 283.465229 124.000405 
L 283.741061 127.062684 
L 284.292726 148.498633 
L 284.568558 206.681924 
L 284.84439 228.117873 
L 285.120222 221.993316 
L 285.396055 194.43281 
L 285.671887 194.43281 
L 286.223551 225.055595 
L 286.499384 237.304709 
L 286.775216 228.117873 
L 287.051048 176.059139 
L 287.32688 154.62319 
L 287.602713 151.560911 
L 287.878545 142.374076 
L 288.154377 148.498633 
L 288.430209 145.436354 
L 288.706042 172.996861 
L 288.981874 148.498633 
L 289.257706 157.685468 
L 289.809371 136.249519 
L 290.085203 139.311797 
L 290.361035 139.311797 
L 290.636867 133.187241 
L 290.912699 114.81357 
L 291.464364 102.564456 
L 291.740196 120.938127 
L 292.016028 124.000405 
L 292.291861 120.938127 
L 292.567693 99.502177 
L 292.843525 96.439899 
L 293.119357 120.938127 
L 293.39519 124.000405 
L 293.671022 133.187241 
L 293.946854 148.498633 
L 294.222686 120.938127 
L 294.498519 117.875848 
L 294.774351 105.626734 
L 295.050183 102.564456 
L 295.326015 84.190785 
L 295.601848 90.315342 
L 295.87768 56.630278 
L 296.153512 108.689013 
L 296.429344 127.062684 
L 296.705176 124.000405 
L 296.981009 117.875848 
L 297.256841 182.183696 
L 297.532673 179.121418 
L 297.808505 203.619646 
L 298.084338 200.557367 
L 298.36017 200.557367 
L 298.636002 163.810025 
L 298.911834 166.872304 
L 299.187667 157.685468 
L 299.463499 154.62319 
L 299.739331 157.685468 
L 300.290996 142.374076 
L 300.566828 148.498633 
L 300.84266 160.747747 
L 301.118492 148.498633 
L 301.670157 148.498633 
L 302.221821 176.059139 
L 302.497654 166.872304 
L 302.773486 179.121418 
L 303.049318 209.744203 
L 303.600982 185.245975 
L 303.876815 185.245975 
L 304.152647 191.370532 
L 304.428479 176.059139 
L 304.704311 179.121418 
L 304.980144 185.245975 
L 305.255976 182.183696 
L 305.80764 169.934582 
L 306.083473 169.934582 
L 306.359305 157.685468 
L 306.635137 166.872304 
L 306.910969 160.747747 
L 307.186802 182.183696 
L 307.462634 185.245975 
L 307.738466 191.370532 
L 308.014298 206.681924 
L 308.290131 209.744203 
L 308.565963 188.308253 
L 308.841795 203.619646 
L 309.117627 197.495089 
L 309.393459 182.183696 
L 309.669292 188.308253 
L 309.945124 212.806481 
L 310.220956 200.557367 
L 310.772621 194.43281 
L 311.048453 197.495089 
L 311.324285 212.806481 
L 311.600117 200.557367 
L 311.87595 228.117873 
L 312.427614 185.245975 
L 312.703446 191.370532 
L 312.979279 172.996861 
L 313.255111 197.495089 
L 313.530943 185.245975 
L 313.806775 200.557367 
L 314.082608 206.681924 
L 314.35844 209.744203 
L 315.185937 166.872304 
L 315.461769 188.308253 
L 315.737601 221.993316 
L 316.013433 218.931038 
L 316.289265 240.366987 
L 316.84093 252.616101 
L 317.116762 246.491544 
L 317.392594 246.491544 
L 317.668427 243.429266 
L 317.944259 255.67838 
L 318.220091 234.24243 
L 318.495923 237.304709 
L 318.771756 234.24243 
L 319.047588 209.744203 
L 319.32342 203.619646 
L 319.599252 172.996861 
L 319.875085 163.810025 
L 320.150917 163.810025 
L 320.426749 169.934582 
L 320.702581 160.747747 
L 320.978414 160.747747 
L 321.254246 157.685468 
L 321.530078 172.996861 
L 321.80591 169.934582 
L 322.081742 188.308253 
L 322.357575 197.495089 
L 322.909239 163.810025 
L 323.185071 172.996861 
L 323.460904 176.059139 
L 323.736736 157.685468 
L 324.012568 157.685468 
L 324.2884 182.183696 
L 324.564233 179.121418 
L 325.115897 228.117873 
L 325.391729 228.117873 
L 325.667562 231.180152 
L 325.943394 194.43281 
L 326.219226 194.43281 
L 326.495058 225.055595 
L 326.770891 231.180152 
L 327.046723 228.117873 
L 327.322555 234.24243 
L 327.87422 264.865215 
L 328.150052 252.616101 
L 328.425884 234.24243 
L 328.701716 240.366987 
L 328.977548 237.304709 
L 329.253381 231.180152 
L 329.529213 255.67838 
L 330.080877 228.117873 
L 330.35671 234.24243 
L 330.632542 225.055595 
L 331.184206 246.491544 
L 331.460039 209.744203 
L 331.735871 215.868759 
L 332.287535 194.43281 
L 332.8392 194.43281 
L 333.115032 139.311797 
L 333.390864 166.872304 
L 333.942529 166.872304 
L 334.218361 185.245975 
L 335.045858 212.806481 
L 335.32169 206.681924 
L 335.873354 212.806481 
L 336.149187 218.931038 
L 336.425019 221.993316 
L 336.700851 231.180152 
L 336.976683 231.180152 
L 337.528348 237.304709 
L 337.80418 234.24243 
L 338.080012 218.931038 
L 338.355845 218.931038 
L 338.631677 212.806481 
L 338.907509 237.304709 
L 339.183341 231.180152 
L 339.735006 231.180152 
L 340.28667 209.744203 
L 340.838335 246.491544 
L 341.114167 234.24243 
L 341.389999 243.429266 
L 341.665831 206.681924 
L 341.941664 206.681924 
L 342.217496 203.619646 
L 342.493328 182.183696 
L 342.76916 182.183696 
L 343.044993 166.872304 
L 343.320825 160.747747 
L 343.872489 176.059139 
L 344.148322 182.183696 
L 344.424154 172.996861 
L 344.699986 200.557367 
L 344.975818 206.681924 
L 345.251651 163.810025 
L 345.527483 212.806481 
L 345.803315 197.495089 
L 346.079147 209.744203 
L 346.35498 191.370532 
L 346.630812 191.370532 
L 346.906644 203.619646 
L 347.182476 206.681924 
L 347.458308 206.681924 
L 347.734141 188.308253 
L 348.009973 200.557367 
L 348.285805 169.934582 
L 348.83747 194.43281 
L 349.113302 194.43281 
L 349.389134 191.370532 
L 349.664966 203.619646 
L 350.492463 185.245975 
L 350.768295 185.245975 
L 351.044128 191.370532 
L 351.31996 188.308253 
L 351.595792 194.43281 
L 351.871624 197.495089 
L 352.147457 191.370532 
L 352.423289 206.681924 
L 352.699121 206.681924 
L 352.974953 225.055595 
L 353.250786 200.557367 
L 353.526618 200.557367 
L 354.078282 218.931038 
L 354.354114 237.304709 
L 354.629947 234.24243 
L 354.905779 225.055595 
L 355.181611 221.993316 
L 355.457443 225.055595 
L 355.733276 221.993316 
L 356.28494 188.308253 
L 356.560772 191.370532 
L 357.112437 154.62319 
L 357.388269 166.872304 
L 358.215766 228.117873 
L 358.491598 228.117873 
L 358.76743 249.553823 
L 359.043263 200.557367 
L 359.319095 194.43281 
L 359.594927 200.557367 
L 359.870759 225.055595 
L 360.146591 231.180152 
L 360.698256 225.055595 
L 360.974088 200.557367 
L 361.525753 194.43281 
L 361.801585 200.557367 
L 362.077417 169.934582 
L 362.353249 163.810025 
L 362.629082 154.62319 
L 362.904914 169.934582 
L 363.180746 163.810025 
L 363.456578 163.810025 
L 363.732411 172.996861 
L 364.559907 234.24243 
L 364.83574 231.180152 
L 365.111572 237.304709 
L 365.387404 231.180152 
L 365.663236 243.429266 
L 366.490733 209.744203 
L 366.766565 154.62319 
L 367.042397 160.747747 
L 367.31823 157.685468 
L 367.594062 169.934582 
L 367.869894 188.308253 
L 368.145726 194.43281 
L 368.421559 179.121418 
L 368.697391 179.121418 
L 368.973223 194.43281 
L 369.249055 225.055595 
L 369.524888 218.931038 
L 369.80072 218.931038 
L 370.076552 191.370532 
L 370.352384 203.619646 
L 370.628217 203.619646 
L 370.904049 261.802937 
L 371.179881 237.304709 
L 371.455713 231.180152 
L 371.731546 218.931038 
L 372.007378 182.183696 
L 372.28321 191.370532 
L 372.559042 191.370532 
L 372.834874 194.43281 
L 373.110707 185.245975 
L 373.386539 151.560911 
L 373.938203 157.685468 
L 374.214036 142.374076 
L 374.489868 139.311797 
L 374.7657 142.374076 
L 375.041532 151.560911 
L 375.317365 154.62319 
L 375.593197 151.560911 
L 375.869029 166.872304 
L 376.144861 172.996861 
L 376.420694 148.498633 
L 376.696526 142.374076 
L 376.972358 160.747747 
L 377.24819 154.62319 
L 377.524023 176.059139 
L 377.799855 185.245975 
L 378.075687 172.996861 
L 378.351519 188.308253 
L 378.627352 179.121418 
L 378.903184 200.557367 
L 379.179016 179.121418 
L 379.454848 176.059139 
L 379.73068 194.43281 
L 380.282345 172.996861 
L 380.558177 179.121418 
L 380.834009 172.996861 
L 381.109842 176.059139 
L 381.385674 169.934582 
L 381.661506 176.059139 
L 381.937338 200.557367 
L 382.213171 203.619646 
L 382.764835 172.996861 
L 383.040667 169.934582 
L 383.3165 185.245975 
L 383.592332 176.059139 
L 384.143996 231.180152 
L 384.419829 237.304709 
L 384.971493 209.744203 
L 385.247325 200.557367 
L 385.523157 200.557367 
L 385.79899 194.43281 
L 386.074822 206.681924 
L 386.350654 203.619646 
L 386.626486 206.681924 
L 386.902319 203.619646 
L 387.178151 194.43281 
L 387.453983 203.619646 
L 388.005648 163.810025 
L 388.28148 185.245975 
L 388.557312 176.059139 
L 388.833144 179.121418 
L 389.108977 176.059139 
L 389.384809 182.183696 
L 389.660641 163.810025 
L 389.936473 179.121418 
L 390.212306 169.934582 
L 390.488138 179.121418 
L 390.76397 221.993316 
L 391.039802 225.055595 
L 391.315635 234.24243 
L 391.867299 221.993316 
L 392.143131 209.744203 
L 392.418963 209.744203 
L 392.694796 197.495089 
L 392.970628 176.059139 
L 393.522292 163.810025 
L 393.798125 139.311797 
L 394.073957 145.436354 
L 394.349789 145.436354 
L 394.625621 148.498633 
L 394.901454 166.872304 
L 395.177286 154.62319 
L 395.453118 157.685468 
L 395.72895 166.872304 
L 396.004783 203.619646 
L 396.280615 218.931038 
L 396.556447 218.931038 
L 396.832279 221.993316 
L 397.383944 249.553823 
L 397.659776 237.304709 
L 397.935608 234.24243 
L 398.21144 274.052051 
L 398.487273 295.488 
L 398.487273 295.488 
" clip-path="url(#p7e4291c7d1)" style="fill: none; stroke: #1f77b4; stroke-width: 1.5; stroke-linecap: square"/>
   </g>
   <g id="patch_3">
    <path d="M 57.6 307.584 
L 57.6 41.472 
" style="fill: none; stroke: #000000; stroke-width: 0.8; stroke-linejoin: miter; stroke-linecap: square"/>
   </g>
   <g id="patch_4">
    <path d="M 414.72 307.584 
L 414.72 41.472 
" style="fill: none; stroke: #000000; stroke-width: 0.8; stroke-linejoin: miter; stroke-linecap: square"/>
   </g>
   <g id="patch_5">
    <path d="M 57.6 307.584 
L 414.72 307.584 
" style="fill: none; stroke: #000000; stroke-width: 0.8; stroke-linejoin: miter; stroke-linecap: square"/>
   </g>
   <g id="patch_6">
    <path d="M 57.6 41.472 
L 414.72 41.472 
" style="fill: none; stroke: #000000; stroke-width: 0.8; stroke-linejoin: miter; stroke-linecap: square"/>
   </g>
   <g id="text_17">
    <!-- Simulated Anealling Cost -->
    <g transform="translate(160.8 35.472)scale(0.12 -0.12)">
     <defs>
      <path id="DejaVuSans-53" d="M 3425 4513 
L 3425 3897 
Q 3066 4069 2747 4153 
Q 2428 4238 2131 4238 
Q 1616 4238 1336 4038 
Q 1056 3838 1056 3469 
Q 1056 3159 1242 3001 
Q 1428 2844 1947 2747 
L 2328 2669 
Q 3034 2534 3370 2195 
Q 3706 1856 3706 1288 
Q 3706 609 3251 259 
Q 2797 -91 1919 -91 
Q 1588 -91 1214 -16 
Q 841 59 441 206 
L 441 856 
Q 825 641 1194 531 
Q 1563 422 1919 422 
Q 2459 422 2753 634 
Q 3047 847 3047 1241 
Q 3047 1584 2836 1778 
Q 2625 1972 2144 2069 
L 1759 2144 
Q 1053 2284 737 2584 
Q 422 2884 422 3419 
Q 422 4038 858 4394 
Q 1294 4750 2059 4750 
Q 2388 4750 2728 4690 
Q 3069 4631 3425 4513 
z
" transform="scale(0.015625)"/>
      <path id="DejaVuSans-69" d="M 603 3500 
L 1178 3500 
L 1178 0 
L 603 0 
L 603 3500 
z
M 603 4863 
L 1178 4863 
L 1178 4134 
L 603 4134 
L 603 4863 
z
" transform="scale(0.015625)"/>
      <path id="DejaVuSans-65" d="M 3597 1894 
L 3597 1613 
L 953 1613 
Q 991 1019 1311 708 
Q 1631 397 2203 397 
Q 2534 397 2845 478 
Q 3156 559 3463 722 
L 3463 178 
Q 3153 47 2828 -22 
Q 2503 -91 2169 -91 
Q 1331 -91 842 396 
Q 353 884 353 1716 
Q 353 2575 817 3079 
Q 1281 3584 2069 3584 
Q 2775 3584 3186 3129 
Q 3597 2675 3597 1894 
z
M 3022 2063 
Q 3016 2534 2758 2815 
Q 2500 3097 2075 3097 
Q 1594 3097 1305 2825 
Q 1016 2553 972 2059 
L 3022 2063 
z
" transform="scale(0.015625)"/>
      <path id="DejaVuSans-64" d="M 2906 2969 
L 2906 4863 
L 3481 4863 
L 3481 0 
L 2906 0 
L 2906 525 
Q 2725 213 2448 61 
Q 2172 -91 1784 -91 
Q 1150 -91 751 415 
Q 353 922 353 1747 
Q 353 2572 751 3078 
Q 1150 3584 1784 3584 
Q 2172 3584 2448 3432 
Q 2725 3281 2906 2969 
z
M 947 1747 
Q 947 1113 1208 752 
Q 1469 391 1925 391 
Q 2381 391 2643 752 
Q 2906 1113 2906 1747 
Q 2906 2381 2643 2742 
Q 2381 3103 1925 3103 
Q 1469 3103 1208 2742 
Q 947 2381 947 1747 
z
" transform="scale(0.015625)"/>
      <path id="DejaVuSans-41" d="M 2188 4044 
L 1331 1722 
L 3047 1722 
L 2188 4044 
z
M 1831 4666 
L 2547 4666 
L 4325 0 
L 3669 0 
L 3244 1197 
L 1141 1197 
L 716 0 
L 50 0 
L 1831 4666 
z
" transform="scale(0.015625)"/>
      <path id="DejaVuSans-67" d="M 2906 1791 
Q 2906 2416 2648 2759 
Q 2391 3103 1925 3103 
Q 1463 3103 1205 2759 
Q 947 2416 947 1791 
Q 947 1169 1205 825 
Q 1463 481 1925 481 
Q 2391 481 2648 825 
Q 2906 1169 2906 1791 
z
M 3481 434 
Q 3481 -459 3084 -895 
Q 2688 -1331 1869 -1331 
Q 1566 -1331 1297 -1286 
Q 1028 -1241 775 -1147 
L 775 -588 
Q 1028 -725 1275 -790 
Q 1522 -856 1778 -856 
Q 2344 -856 2625 -561 
Q 2906 -266 2906 331 
L 2906 616 
Q 2728 306 2450 153 
Q 2172 0 1784 0 
Q 1141 0 747 490 
Q 353 981 353 1791 
Q 353 2603 747 3093 
Q 1141 3584 1784 3584 
Q 2172 3584 2450 3431 
Q 2728 3278 2906 2969 
L 2906 3500 
L 3481 3500 
L 3481 434 
z
" transform="scale(0.015625)"/>
      <path id="DejaVuSans-43" d="M 4122 4306 
L 4122 3641 
Q 3803 3938 3442 4084 
Q 3081 4231 2675 4231 
Q 1875 4231 1450 3742 
Q 1025 3253 1025 2328 
Q 1025 1406 1450 917 
Q 1875 428 2675 428 
Q 3081 428 3442 575 
Q 3803 722 4122 1019 
L 4122 359 
Q 3791 134 3420 21 
Q 3050 -91 2638 -91 
Q 1578 -91 968 557 
Q 359 1206 359 2328 
Q 359 3453 968 4101 
Q 1578 4750 2638 4750 
Q 3056 4750 3426 4639 
Q 3797 4528 4122 4306 
z
" transform="scale(0.015625)"/>
     </defs>
     <use xlink:href="#DejaVuSans-53"/>
     <use xlink:href="#DejaVuSans-69" x="63.476562"/>
     <use xlink:href="#DejaVuSans-6d" x="91.259766"/>
     <use xlink:href="#DejaVuSans-75" x="188.671875"/>
     <use xlink:href="#DejaVuSans-6c" x="252.050781"/>
     <use xlink:href="#DejaVuSans-61" x="279.833984"/>
     <use xlink:href="#DejaVuSans-74" x="341.113281"/>
     <use xlink:href="#DejaVuSans-65" x="380.322266"/>
     <use xlink:href="#DejaVuSans-64" x="441.845703"/>
     <use xlink:href="#DejaVuSans-20" x="505.322266"/>
     <use xlink:href="#DejaVuSans-41" x="537.109375"/>
     <use xlink:href="#DejaVuSans-6e" x="605.517578"/>
     <use xlink:href="#DejaVuSans-65" x="668.896484"/>
     <use xlink:href="#DejaVuSans-61" x="730.419922"/>
     <use xlink:href="#DejaVuSans-6c" x="791.699219"/>
     <use xlink:href="#DejaVuSans-6c" x="819.482422"/>
     <use xlink:href="#DejaVuSans-69" x="847.265625"/>
     <use xlink:href="#DejaVuSans-6e" x="875.048828"/>
     <use xlink:href="#DejaVuSans-67" x="938.427734"/>
     <use xlink:href="#DejaVuSans-20" x="1001.904297"/>
     <use xlink:href="#DejaVuSans-43" x="1033.691406"/>
     <use xlink:href="#DejaVuSans-6f" x="1103.515625"/>
     <use xlink:href="#DejaVuSans-73" x="1164.697266"/>
     <use xlink:href="#DejaVuSans-74" x="1216.796875"/>
    </g>
   </g>
  </g>
 </g>
 <defs>
  <clipPath id="p7e4291c7d1">
   <rect x="57.6" y="41.472" width="357.12" height="266.112"/>
  </clipPath>
 </defs>
</svg>
