<?xml version="1.0" encoding="utf-8" standalone="no"?>
<!DOCTYPE svg PUBLIC "-//W3C//DTD SVG 1.1//EN"
  "http://www.w3.org/Graphics/SVG/1.1/DTD/svg11.dtd">
<svg xmlns:xlink="http://www.w3.org/1999/xlink" width="460.8pt" height="345.6pt" viewBox="0 0 460.8 345.6" xmlns="http://www.w3.org/2000/svg" version="1.1">
 <metadata>
  <rdf:RDF xmlns:dc="http://purl.org/dc/elements/1.1/" xmlns:cc="http://creativecommons.org/ns#" xmlns:rdf="http://www.w3.org/1999/02/22-rdf-syntax-ns#">
   <cc:Work>
    <dc:type rdf:resource="http://purl.org/dc/dcmitype/StillImage"/>
    <dc:date>2022-06-01T08:05:25.488641</dc:date>
    <dc:format>image/svg+xml</dc:format>
    <dc:creator>
     <cc:Agent>
      <dc:title>Matplotlib v3.5.1, https://matplotlib.org/</dc:title>
     </cc:Agent>
    </dc:creator>
   </cc:Work>
  </rdf:RDF>
 </metadata>
 <defs>
  <style type="text/css">*{stroke-linejoin: round; stroke-linecap: butt}</style>
 </defs>
 <g id="figure_1">
  <g id="patch_1">
   <path d="M 0 345.6 
L 460.8 345.6 
L 460.8 0 
L 0 0 
z
" style="fill: #ffffff"/>
  </g>
  <g id="axes_1">
   <g id="patch_2">
    <path d="M 57.6 307.584 
L 414.72 307.584 
L 414.72 41.472 
L 57.6 41.472 
z
" style="fill: #ffffff"/>
   </g>
   <g id="matplotlib.axis_1">
    <g id="xtick_1">
     <g id="line2d_1">
      <defs>
       <path id="m268a1c793a" d="M 0 0 
L 0 3.5 
" style="stroke: #000000; stroke-width: 0.8"/>
      </defs>
      <g>
       <use xlink:href="#m268a1c793a" x="73.832727" y="307.584" style="stroke: #000000; stroke-width: 0.8"/>
      </g>
     </g>
     <g id="text_1">
      <!-- 0 -->
      <g transform="translate(70.651477 322.182437)scale(0.1 -0.1)">
       <defs>
        <path id="DejaVuSans-30" d="M 2034 4250 
Q 1547 4250 1301 3770 
Q 1056 3291 1056 2328 
Q 1056 1369 1301 889 
Q 1547 409 2034 409 
Q 2525 409 2770 889 
Q 3016 1369 3016 2328 
Q 3016 3291 2770 3770 
Q 2525 4250 2034 4250 
z
M 2034 4750 
Q 2819 4750 3233 4129 
Q 3647 3509 3647 2328 
Q 3647 1150 3233 529 
Q 2819 -91 2034 -91 
Q 1250 -91 836 529 
Q 422 1150 422 2328 
Q 422 3509 836 4129 
Q 1250 4750 2034 4750 
z
" transform="scale(0.015625)"/>
       </defs>
       <use xlink:href="#DejaVuSans-30"/>
      </g>
     </g>
    </g>
    <g id="xtick_2">
     <g id="line2d_2">
      <g>
       <use xlink:href="#m268a1c793a" x="150.765084" y="307.584" style="stroke: #000000; stroke-width: 0.8"/>
      </g>
     </g>
     <g id="text_2">
      <!-- 500 -->
      <g transform="translate(141.221334 322.182437)scale(0.1 -0.1)">
       <defs>
        <path id="DejaVuSans-35" d="M 691 4666 
L 3169 4666 
L 3169 4134 
L 1269 4134 
L 1269 2991 
Q 1406 3038 1543 3061 
Q 1681 3084 1819 3084 
Q 2600 3084 3056 2656 
Q 3513 2228 3513 1497 
Q 3513 744 3044 326 
Q 2575 -91 1722 -91 
Q 1428 -91 1123 -41 
Q 819 9 494 109 
L 494 744 
Q 775 591 1075 516 
Q 1375 441 1709 441 
Q 2250 441 2565 725 
Q 2881 1009 2881 1497 
Q 2881 1984 2565 2268 
Q 2250 2553 1709 2553 
Q 1456 2553 1204 2497 
Q 953 2441 691 2322 
L 691 4666 
z
" transform="scale(0.015625)"/>
       </defs>
       <use xlink:href="#DejaVuSans-35"/>
       <use xlink:href="#DejaVuSans-30" x="63.623047"/>
       <use xlink:href="#DejaVuSans-30" x="127.246094"/>
      </g>
     </g>
    </g>
    <g id="xtick_3">
     <g id="line2d_3">
      <g>
       <use xlink:href="#m268a1c793a" x="227.697441" y="307.584" style="stroke: #000000; stroke-width: 0.8"/>
      </g>
     </g>
     <g id="text_3">
      <!-- 1000 -->
      <g transform="translate(214.972441 322.182437)scale(0.1 -0.1)">
       <defs>
        <path id="DejaVuSans-31" d="M 794 531 
L 1825 531 
L 1825 4091 
L 703 3866 
L 703 4441 
L 1819 4666 
L 2450 4666 
L 2450 531 
L 3481 531 
L 3481 0 
L 794 0 
L 794 531 
z
" transform="scale(0.015625)"/>
       </defs>
       <use xlink:href="#DejaVuSans-31"/>
       <use xlink:href="#DejaVuSans-30" x="63.623047"/>
       <use xlink:href="#DejaVuSans-30" x="127.246094"/>
       <use xlink:href="#DejaVuSans-30" x="190.869141"/>
      </g>
     </g>
    </g>
    <g id="xtick_4">
     <g id="line2d_4">
      <g>
       <use xlink:href="#m268a1c793a" x="304.629798" y="307.584" style="stroke: #000000; stroke-width: 0.8"/>
      </g>
     </g>
     <g id="text_4">
      <!-- 1500 -->
      <g transform="translate(291.904798 322.182437)scale(0.1 -0.1)">
       <use xlink:href="#DejaVuSans-31"/>
       <use xlink:href="#DejaVuSans-35" x="63.623047"/>
       <use xlink:href="#DejaVuSans-30" x="127.246094"/>
       <use xlink:href="#DejaVuSans-30" x="190.869141"/>
      </g>
     </g>
    </g>
    <g id="xtick_5">
     <g id="line2d_5">
      <g>
       <use xlink:href="#m268a1c793a" x="381.562154" y="307.584" style="stroke: #000000; stroke-width: 0.8"/>
      </g>
     </g>
     <g id="text_5">
      <!-- 2000 -->
      <g transform="translate(368.837154 322.182437)scale(0.1 -0.1)">
       <defs>
        <path id="DejaVuSans-32" d="M 1228 531 
L 3431 531 
L 3431 0 
L 469 0 
L 469 531 
Q 828 903 1448 1529 
Q 2069 2156 2228 2338 
Q 2531 2678 2651 2914 
Q 2772 3150 2772 3378 
Q 2772 3750 2511 3984 
Q 2250 4219 1831 4219 
Q 1534 4219 1204 4116 
Q 875 4013 500 3803 
L 500 4441 
Q 881 4594 1212 4672 
Q 1544 4750 1819 4750 
Q 2544 4750 2975 4387 
Q 3406 4025 3406 3419 
Q 3406 3131 3298 2873 
Q 3191 2616 2906 2266 
Q 2828 2175 2409 1742 
Q 1991 1309 1228 531 
z
" transform="scale(0.015625)"/>
       </defs>
       <use xlink:href="#DejaVuSans-32"/>
       <use xlink:href="#DejaVuSans-30" x="63.623047"/>
       <use xlink:href="#DejaVuSans-30" x="127.246094"/>
       <use xlink:href="#DejaVuSans-30" x="190.869141"/>
      </g>
     </g>
    </g>
    <g id="text_6">
     <!-- num swaps -->
     <g transform="translate(207.826406 335.860562)scale(0.1 -0.1)">
      <defs>
       <path id="DejaVuSans-6e" d="M 3513 2113 
L 3513 0 
L 2938 0 
L 2938 2094 
Q 2938 2591 2744 2837 
Q 2550 3084 2163 3084 
Q 1697 3084 1428 2787 
Q 1159 2491 1159 1978 
L 1159 0 
L 581 0 
L 581 3500 
L 1159 3500 
L 1159 2956 
Q 1366 3272 1645 3428 
Q 1925 3584 2291 3584 
Q 2894 3584 3203 3211 
Q 3513 2838 3513 2113 
z
" transform="scale(0.015625)"/>
       <path id="DejaVuSans-75" d="M 544 1381 
L 544 3500 
L 1119 3500 
L 1119 1403 
Q 1119 906 1312 657 
Q 1506 409 1894 409 
Q 2359 409 2629 706 
Q 2900 1003 2900 1516 
L 2900 3500 
L 3475 3500 
L 3475 0 
L 2900 0 
L 2900 538 
Q 2691 219 2414 64 
Q 2138 -91 1772 -91 
Q 1169 -91 856 284 
Q 544 659 544 1381 
z
M 1991 3584 
L 1991 3584 
z
" transform="scale(0.015625)"/>
       <path id="DejaVuSans-6d" d="M 3328 2828 
Q 3544 3216 3844 3400 
Q 4144 3584 4550 3584 
Q 5097 3584 5394 3201 
Q 5691 2819 5691 2113 
L 5691 0 
L 5113 0 
L 5113 2094 
Q 5113 2597 4934 2840 
Q 4756 3084 4391 3084 
Q 3944 3084 3684 2787 
Q 3425 2491 3425 1978 
L 3425 0 
L 2847 0 
L 2847 2094 
Q 2847 2600 2669 2842 
Q 2491 3084 2119 3084 
Q 1678 3084 1418 2786 
Q 1159 2488 1159 1978 
L 1159 0 
L 581 0 
L 581 3500 
L 1159 3500 
L 1159 2956 
Q 1356 3278 1631 3431 
Q 1906 3584 2284 3584 
Q 2666 3584 2933 3390 
Q 3200 3197 3328 2828 
z
" transform="scale(0.015625)"/>
       <path id="DejaVuSans-20" transform="scale(0.015625)"/>
       <path id="DejaVuSans-73" d="M 2834 3397 
L 2834 2853 
Q 2591 2978 2328 3040 
Q 2066 3103 1784 3103 
Q 1356 3103 1142 2972 
Q 928 2841 928 2578 
Q 928 2378 1081 2264 
Q 1234 2150 1697 2047 
L 1894 2003 
Q 2506 1872 2764 1633 
Q 3022 1394 3022 966 
Q 3022 478 2636 193 
Q 2250 -91 1575 -91 
Q 1294 -91 989 -36 
Q 684 19 347 128 
L 347 722 
Q 666 556 975 473 
Q 1284 391 1588 391 
Q 1994 391 2212 530 
Q 2431 669 2431 922 
Q 2431 1156 2273 1281 
Q 2116 1406 1581 1522 
L 1381 1569 
Q 847 1681 609 1914 
Q 372 2147 372 2553 
Q 372 3047 722 3315 
Q 1072 3584 1716 3584 
Q 2034 3584 2315 3537 
Q 2597 3491 2834 3397 
z
" transform="scale(0.015625)"/>
       <path id="DejaVuSans-77" d="M 269 3500 
L 844 3500 
L 1563 769 
L 2278 3500 
L 2956 3500 
L 3675 769 
L 4391 3500 
L 4966 3500 
L 4050 0 
L 3372 0 
L 2619 2869 
L 1863 0 
L 1184 0 
L 269 3500 
z
" transform="scale(0.015625)"/>
       <path id="DejaVuSans-61" d="M 2194 1759 
Q 1497 1759 1228 1600 
Q 959 1441 959 1056 
Q 959 750 1161 570 
Q 1363 391 1709 391 
Q 2188 391 2477 730 
Q 2766 1069 2766 1631 
L 2766 1759 
L 2194 1759 
z
M 3341 1997 
L 3341 0 
L 2766 0 
L 2766 531 
Q 2569 213 2275 61 
Q 1981 -91 1556 -91 
Q 1019 -91 701 211 
Q 384 513 384 1019 
Q 384 1609 779 1909 
Q 1175 2209 1959 2209 
L 2766 2209 
L 2766 2266 
Q 2766 2663 2505 2880 
Q 2244 3097 1772 3097 
Q 1472 3097 1187 3025 
Q 903 2953 641 2809 
L 641 3341 
Q 956 3463 1253 3523 
Q 1550 3584 1831 3584 
Q 2591 3584 2966 3190 
Q 3341 2797 3341 1997 
z
" transform="scale(0.015625)"/>
       <path id="DejaVuSans-70" d="M 1159 525 
L 1159 -1331 
L 581 -1331 
L 581 3500 
L 1159 3500 
L 1159 2969 
Q 1341 3281 1617 3432 
Q 1894 3584 2278 3584 
Q 2916 3584 3314 3078 
Q 3713 2572 3713 1747 
Q 3713 922 3314 415 
Q 2916 -91 2278 -91 
Q 1894 -91 1617 61 
Q 1341 213 1159 525 
z
M 3116 1747 
Q 3116 2381 2855 2742 
Q 2594 3103 2138 3103 
Q 1681 3103 1420 2742 
Q 1159 2381 1159 1747 
Q 1159 1113 1420 752 
Q 1681 391 2138 391 
Q 2594 391 2855 752 
Q 3116 1113 3116 1747 
z
" transform="scale(0.015625)"/>
      </defs>
      <use xlink:href="#DejaVuSans-6e"/>
      <use xlink:href="#DejaVuSans-75" x="63.378906"/>
      <use xlink:href="#DejaVuSans-6d" x="126.757812"/>
      <use xlink:href="#DejaVuSans-20" x="224.169922"/>
      <use xlink:href="#DejaVuSans-73" x="255.957031"/>
      <use xlink:href="#DejaVuSans-77" x="308.056641"/>
      <use xlink:href="#DejaVuSans-61" x="389.84375"/>
      <use xlink:href="#DejaVuSans-70" x="451.123047"/>
      <use xlink:href="#DejaVuSans-73" x="514.599609"/>
     </g>
    </g>
   </g>
   <g id="matplotlib.axis_2">
    <g id="ytick_1">
     <g id="line2d_6">
      <defs>
       <path id="m4f886e8f8e" d="M 0 0 
L -3.5 0 
" style="stroke: #000000; stroke-width: 0.8"/>
      </defs>
      <g>
       <use xlink:href="#m4f886e8f8e" x="57.6" y="299.328" style="stroke: #000000; stroke-width: 0.8"/>
      </g>
     </g>
     <g id="text_7">
      <!-- 300 -->
      <g transform="translate(31.5125 303.127219)scale(0.1 -0.1)">
       <defs>
        <path id="DejaVuSans-33" d="M 2597 2516 
Q 3050 2419 3304 2112 
Q 3559 1806 3559 1356 
Q 3559 666 3084 287 
Q 2609 -91 1734 -91 
Q 1441 -91 1130 -33 
Q 819 25 488 141 
L 488 750 
Q 750 597 1062 519 
Q 1375 441 1716 441 
Q 2309 441 2620 675 
Q 2931 909 2931 1356 
Q 2931 1769 2642 2001 
Q 2353 2234 1838 2234 
L 1294 2234 
L 1294 2753 
L 1863 2753 
Q 2328 2753 2575 2939 
Q 2822 3125 2822 3475 
Q 2822 3834 2567 4026 
Q 2313 4219 1838 4219 
Q 1578 4219 1281 4162 
Q 984 4106 628 3988 
L 628 4550 
Q 988 4650 1302 4700 
Q 1616 4750 1894 4750 
Q 2613 4750 3031 4423 
Q 3450 4097 3450 3541 
Q 3450 3153 3228 2886 
Q 3006 2619 2597 2516 
z
" transform="scale(0.015625)"/>
       </defs>
       <use xlink:href="#DejaVuSans-33"/>
       <use xlink:href="#DejaVuSans-30" x="63.623047"/>
       <use xlink:href="#DejaVuSans-30" x="127.246094"/>
      </g>
     </g>
    </g>
    <g id="ytick_2">
     <g id="line2d_7">
      <g>
       <use xlink:href="#m4f886e8f8e" x="57.6" y="260.928" style="stroke: #000000; stroke-width: 0.8"/>
      </g>
     </g>
     <g id="text_8">
      <!-- 310 -->
      <g transform="translate(31.5125 264.727219)scale(0.1 -0.1)">
       <use xlink:href="#DejaVuSans-33"/>
       <use xlink:href="#DejaVuSans-31" x="63.623047"/>
       <use xlink:href="#DejaVuSans-30" x="127.246094"/>
      </g>
     </g>
    </g>
    <g id="ytick_3">
     <g id="line2d_8">
      <g>
       <use xlink:href="#m4f886e8f8e" x="57.6" y="222.528" style="stroke: #000000; stroke-width: 0.8"/>
      </g>
     </g>
     <g id="text_9">
      <!-- 320 -->
      <g transform="translate(31.5125 226.327219)scale(0.1 -0.1)">
       <use xlink:href="#DejaVuSans-33"/>
       <use xlink:href="#DejaVuSans-32" x="63.623047"/>
       <use xlink:href="#DejaVuSans-30" x="127.246094"/>
      </g>
     </g>
    </g>
    <g id="ytick_4">
     <g id="line2d_9">
      <g>
       <use xlink:href="#m4f886e8f8e" x="57.6" y="184.128" style="stroke: #000000; stroke-width: 0.8"/>
      </g>
     </g>
     <g id="text_10">
      <!-- 330 -->
      <g transform="translate(31.5125 187.927219)scale(0.1 -0.1)">
       <use xlink:href="#DejaVuSans-33"/>
       <use xlink:href="#DejaVuSans-33" x="63.623047"/>
       <use xlink:href="#DejaVuSans-30" x="127.246094"/>
      </g>
     </g>
    </g>
    <g id="ytick_5">
     <g id="line2d_10">
      <g>
       <use xlink:href="#m4f886e8f8e" x="57.6" y="145.728" style="stroke: #000000; stroke-width: 0.8"/>
      </g>
     </g>
     <g id="text_11">
      <!-- 340 -->
      <g transform="translate(31.5125 149.527219)scale(0.1 -0.1)">
       <defs>
        <path id="DejaVuSans-34" d="M 2419 4116 
L 825 1625 
L 2419 1625 
L 2419 4116 
z
M 2253 4666 
L 3047 4666 
L 3047 1625 
L 3713 1625 
L 3713 1100 
L 3047 1100 
L 3047 0 
L 2419 0 
L 2419 1100 
L 313 1100 
L 313 1709 
L 2253 4666 
z
" transform="scale(0.015625)"/>
       </defs>
       <use xlink:href="#DejaVuSans-33"/>
       <use xlink:href="#DejaVuSans-34" x="63.623047"/>
       <use xlink:href="#DejaVuSans-30" x="127.246094"/>
      </g>
     </g>
    </g>
    <g id="ytick_6">
     <g id="line2d_11">
      <g>
       <use xlink:href="#m4f886e8f8e" x="57.6" y="107.328" style="stroke: #000000; stroke-width: 0.8"/>
      </g>
     </g>
     <g id="text_12">
      <!-- 350 -->
      <g transform="translate(31.5125 111.127219)scale(0.1 -0.1)">
       <use xlink:href="#DejaVuSans-33"/>
       <use xlink:href="#DejaVuSans-35" x="63.623047"/>
       <use xlink:href="#DejaVuSans-30" x="127.246094"/>
      </g>
     </g>
    </g>
    <g id="ytick_7">
     <g id="line2d_12">
      <g>
       <use xlink:href="#m4f886e8f8e" x="57.6" y="68.928" style="stroke: #000000; stroke-width: 0.8"/>
      </g>
     </g>
     <g id="text_13">
      <!-- 360 -->
      <g transform="translate(31.5125 72.727219)scale(0.1 -0.1)">
       <defs>
        <path id="DejaVuSans-36" d="M 2113 2584 
Q 1688 2584 1439 2293 
Q 1191 2003 1191 1497 
Q 1191 994 1439 701 
Q 1688 409 2113 409 
Q 2538 409 2786 701 
Q 3034 994 3034 1497 
Q 3034 2003 2786 2293 
Q 2538 2584 2113 2584 
z
M 3366 4563 
L 3366 3988 
Q 3128 4100 2886 4159 
Q 2644 4219 2406 4219 
Q 1781 4219 1451 3797 
Q 1122 3375 1075 2522 
Q 1259 2794 1537 2939 
Q 1816 3084 2150 3084 
Q 2853 3084 3261 2657 
Q 3669 2231 3669 1497 
Q 3669 778 3244 343 
Q 2819 -91 2113 -91 
Q 1303 -91 875 529 
Q 447 1150 447 2328 
Q 447 3434 972 4092 
Q 1497 4750 2381 4750 
Q 2619 4750 2861 4703 
Q 3103 4656 3366 4563 
z
" transform="scale(0.015625)"/>
       </defs>
       <use xlink:href="#DejaVuSans-33"/>
       <use xlink:href="#DejaVuSans-36" x="63.623047"/>
       <use xlink:href="#DejaVuSans-30" x="127.246094"/>
      </g>
     </g>
    </g>
    <g id="text_14">
     <!-- total cost -->
     <g transform="translate(25.432812 197.923313)rotate(-90)scale(0.1 -0.1)">
      <defs>
       <path id="DejaVuSans-74" d="M 1172 4494 
L 1172 3500 
L 2356 3500 
L 2356 3053 
L 1172 3053 
L 1172 1153 
Q 1172 725 1289 603 
Q 1406 481 1766 481 
L 2356 481 
L 2356 0 
L 1766 0 
Q 1100 0 847 248 
Q 594 497 594 1153 
L 594 3053 
L 172 3053 
L 172 3500 
L 594 3500 
L 594 4494 
L 1172 4494 
z
" transform="scale(0.015625)"/>
       <path id="DejaVuSans-6f" d="M 1959 3097 
Q 1497 3097 1228 2736 
Q 959 2375 959 1747 
Q 959 1119 1226 758 
Q 1494 397 1959 397 
Q 2419 397 2687 759 
Q 2956 1122 2956 1747 
Q 2956 2369 2687 2733 
Q 2419 3097 1959 3097 
z
M 1959 3584 
Q 2709 3584 3137 3096 
Q 3566 2609 3566 1747 
Q 3566 888 3137 398 
Q 2709 -91 1959 -91 
Q 1206 -91 779 398 
Q 353 888 353 1747 
Q 353 2609 779 3096 
Q 1206 3584 1959 3584 
z
" transform="scale(0.015625)"/>
       <path id="DejaVuSans-6c" d="M 603 4863 
L 1178 4863 
L 1178 0 
L 603 0 
L 603 4863 
z
" transform="scale(0.015625)"/>
       <path id="DejaVuSans-63" d="M 3122 3366 
L 3122 2828 
Q 2878 2963 2633 3030 
Q 2388 3097 2138 3097 
Q 1578 3097 1268 2742 
Q 959 2388 959 1747 
Q 959 1106 1268 751 
Q 1578 397 2138 397 
Q 2388 397 2633 464 
Q 2878 531 3122 666 
L 3122 134 
Q 2881 22 2623 -34 
Q 2366 -91 2075 -91 
Q 1284 -91 818 406 
Q 353 903 353 1747 
Q 353 2603 823 3093 
Q 1294 3584 2113 3584 
Q 2378 3584 2631 3529 
Q 2884 3475 3122 3366 
z
" transform="scale(0.015625)"/>
      </defs>
      <use xlink:href="#DejaVuSans-74"/>
      <use xlink:href="#DejaVuSans-6f" x="39.208984"/>
      <use xlink:href="#DejaVuSans-74" x="100.390625"/>
      <use xlink:href="#DejaVuSans-61" x="139.599609"/>
      <use xlink:href="#DejaVuSans-6c" x="200.878906"/>
      <use xlink:href="#DejaVuSans-20" x="228.662109"/>
      <use xlink:href="#DejaVuSans-63" x="260.449219"/>
      <use xlink:href="#DejaVuSans-6f" x="315.429688"/>
      <use xlink:href="#DejaVuSans-73" x="376.611328"/>
      <use xlink:href="#DejaVuSans-74" x="428.710938"/>
     </g>
    </g>
   </g>
   <g id="line2d_13">
    <path d="M 73.832727 130.368 
L 74.140457 107.328 
L 74.448186 122.688 
L 74.755916 118.848 
L 75.063645 130.368 
L 75.371374 164.928 
L 75.679104 161.088 
L 76.294563 168.768 
L 76.602292 145.728 
L 76.910022 149.568 
L 77.217751 149.568 
L 77.52548 161.088 
L 77.83321 164.928 
L 78.140939 184.128 
L 78.448669 168.768 
L 78.756398 168.768 
L 79.064128 153.408 
L 79.679586 222.528 
L 80.295045 195.648 
L 80.602775 161.088 
L 80.910504 153.408 
L 81.525963 195.648 
L 81.833692 195.648 
L 82.141422 211.008 
L 82.449151 218.688 
L 83.06461 180.288 
L 83.37234 187.968 
L 83.680069 249.408 
L 83.987798 245.568 
L 84.295528 195.648 
L 84.603257 191.808 
L 84.910987 161.088 
L 85.218716 184.128 
L 85.526445 176.448 
L 85.834175 195.648 
L 86.141904 203.328 
L 86.449634 187.968 
L 86.757363 180.288 
L 87.065093 164.928 
L 87.372822 180.288 
L 87.680551 161.088 
L 87.988281 172.608 
L 88.29601 172.608 
L 88.60374 191.808 
L 88.911469 195.648 
L 89.219199 187.968 
L 89.526928 203.328 
L 90.142387 176.448 
L 90.450116 203.328 
L 90.757846 199.488 
L 91.065575 199.488 
L 91.373305 184.128 
L 91.988763 226.368 
L 92.296493 226.368 
L 92.911952 249.408 
L 93.219681 283.968 
L 93.527411 280.128 
L 93.83514 257.088 
L 94.142869 276.288 
L 94.450599 253.248 
L 94.758328 249.408 
L 95.066058 253.248 
L 95.373787 230.208 
L 95.681517 226.368 
L 96.604705 260.928 
L 96.912434 222.528 
L 97.220164 214.848 
L 97.527893 214.848 
L 97.835623 187.968 
L 98.143352 187.968 
L 98.451081 176.448 
L 98.758811 172.608 
L 99.06654 191.808 
L 99.37427 164.928 
L 99.681999 157.248 
L 99.989729 195.648 
L 100.297458 195.648 
L 100.605187 184.128 
L 101.220646 214.848 
L 101.528376 191.808 
L 102.143835 168.768 
L 102.451564 195.648 
L 102.759293 203.328 
L 103.990211 245.568 
L 104.297941 203.328 
L 104.60567 241.728 
L 104.913399 226.368 
L 105.221129 222.528 
L 105.836588 207.168 
L 106.144317 195.648 
L 106.452047 253.248 
L 106.759776 237.888 
L 107.067505 230.208 
L 107.375235 230.208 
L 107.682964 257.088 
L 107.990694 257.088 
L 108.606153 176.448 
L 108.913882 168.768 
L 109.221611 176.448 
L 109.529341 176.448 
L 110.1448 149.568 
L 110.452529 157.248 
L 110.760259 122.688 
L 111.067988 141.888 
L 111.375717 130.368 
L 111.683447 134.208 
L 111.991176 145.728 
L 112.298906 149.568 
L 112.606635 161.088 
L 112.914364 187.968 
L 113.222094 176.448 
L 113.529823 199.488 
L 113.837553 164.928 
L 114.145282 157.248 
L 114.453012 161.088 
L 114.760741 111.168 
L 115.06847 126.528 
L 115.3762 111.168 
L 115.683929 107.328 
L 115.991659 95.808 
L 116.299388 107.328 
L 116.914847 107.328 
L 117.222576 76.608 
L 117.530306 61.248 
L 118.453494 99.648 
L 118.761224 145.728 
L 119.068953 157.248 
L 119.376682 95.808 
L 119.684412 103.488 
L 119.992141 99.648 
L 120.299871 91.968 
L 120.6076 95.808 
L 120.91533 107.328 
L 121.223059 191.808 
L 121.530788 180.288 
L 121.838518 176.448 
L 122.146247 176.448 
L 122.761706 141.888 
L 123.069436 161.088 
L 123.377165 99.648 
L 123.684894 107.328 
L 123.992624 76.608 
L 124.300353 84.288 
L 124.608083 145.728 
L 124.915812 141.888 
L 125.223542 130.368 
L 125.531271 91.968 
L 126.14673 107.328 
L 126.454459 118.848 
L 126.762189 118.848 
L 127.377648 111.168 
L 127.685377 111.168 
L 128.300836 95.808 
L 128.608565 149.568 
L 128.916295 153.408 
L 129.224024 161.088 
L 129.531754 176.448 
L 129.839483 164.928 
L 130.147212 176.448 
L 130.454942 176.448 
L 130.762671 141.888 
L 131.070401 145.728 
L 131.37813 153.408 
L 131.68586 157.248 
L 131.993589 195.648 
L 132.301318 214.848 
L 132.609048 203.328 
L 132.916777 207.168 
L 133.224507 199.488 
L 133.532236 207.168 
L 133.839966 211.008 
L 134.147695 237.888 
L 134.455424 180.288 
L 134.763154 168.768 
L 135.070883 115.008 
L 135.378613 107.328 
L 135.686342 107.328 
L 135.994072 95.808 
L 136.301801 65.088 
L 136.60953 65.088 
L 136.91726 61.248 
L 137.224989 53.568 
L 137.532719 161.088 
L 137.840448 164.928 
L 138.148178 164.928 
L 138.455907 149.568 
L 138.763636 168.768 
L 139.071366 172.608 
L 139.379095 153.408 
L 139.686825 164.928 
L 139.994554 168.768 
L 140.302283 141.888 
L 140.610013 149.568 
L 141.225472 141.888 
L 141.533201 149.568 
L 141.840931 145.728 
L 142.456389 187.968 
L 142.764119 149.568 
L 143.071848 130.368 
L 143.687307 164.928 
L 143.995037 234.048 
L 144.302766 226.368 
L 144.610495 237.888 
L 144.918225 218.688 
L 145.225954 218.688 
L 145.533684 230.208 
L 145.841413 195.648 
L 146.149143 195.648 
L 146.456872 199.488 
L 146.764601 214.848 
L 147.072331 211.008 
L 147.38006 153.408 
L 147.68779 172.608 
L 147.995519 168.768 
L 148.303249 149.568 
L 148.610978 149.568 
L 148.918707 141.888 
L 149.226437 207.168 
L 149.534166 214.848 
L 149.841896 195.648 
L 150.149625 218.688 
L 150.457355 195.648 
L 150.765084 195.648 
L 151.072813 187.968 
L 151.688272 211.008 
L 151.996002 214.848 
L 152.303731 207.168 
L 152.611461 214.848 
L 152.91919 272.448 
L 153.226919 272.448 
L 154.150108 237.888 
L 154.457837 249.408 
L 154.765567 195.648 
L 155.073296 184.128 
L 155.381025 187.968 
L 155.688755 172.608 
L 155.996484 172.608 
L 156.304214 149.568 
L 156.611943 153.408 
L 156.919673 161.088 
L 157.227402 214.848 
L 157.535131 199.488 
L 157.842861 218.688 
L 158.15059 138.048 
L 158.45832 226.368 
L 158.766049 226.368 
L 159.073779 161.088 
L 159.381508 180.288 
L 159.689237 176.448 
L 159.996967 153.408 
L 160.304696 153.408 
L 160.612426 161.088 
L 160.920155 172.608 
L 161.227885 141.888 
L 162.151073 172.608 
L 162.458802 145.728 
L 162.766532 145.728 
L 163.074261 184.128 
L 163.381991 172.608 
L 163.68972 126.528 
L 163.997449 118.848 
L 164.305179 91.968 
L 164.612908 91.968 
L 164.920638 111.168 
L 165.228367 103.488 
L 165.536097 126.528 
L 165.843826 222.528 
L 166.151555 230.208 
L 166.459285 230.208 
L 166.767014 226.368 
L 167.074744 184.128 
L 167.382473 191.808 
L 167.690202 180.288 
L 167.997932 195.648 
L 168.305661 172.608 
L 169.22885 207.168 
L 169.536579 161.088 
L 169.844308 172.608 
L 170.152038 161.088 
L 170.459767 164.928 
L 170.767497 184.128 
L 171.075226 180.288 
L 171.382956 203.328 
L 171.690685 187.968 
L 171.998414 203.328 
L 172.306144 180.288 
L 172.613873 214.848 
L 172.921603 214.848 
L 173.229332 226.368 
L 173.537062 207.168 
L 173.844791 207.168 
L 174.46025 180.288 
L 175.075709 99.648 
L 175.691168 115.008 
L 175.998897 76.608 
L 176.306626 91.968 
L 176.614356 95.808 
L 176.922085 111.168 
L 177.229815 111.168 
L 177.537544 130.368 
L 177.845274 118.848 
L 178.460732 118.848 
L 178.768462 91.968 
L 179.383921 65.088 
L 179.69165 68.928 
L 179.99938 149.568 
L 180.307109 145.728 
L 180.614838 164.928 
L 180.922568 172.608 
L 181.230297 191.808 
L 181.538027 184.128 
L 181.845756 184.128 
L 182.153486 187.968 
L 182.461215 164.928 
L 182.768944 161.088 
L 183.076674 168.768 
L 183.384403 184.128 
L 183.692133 230.208 
L 183.999862 141.888 
L 184.615321 149.568 
L 184.92305 149.568 
L 185.23078 172.608 
L 185.538509 172.608 
L 185.846239 176.448 
L 186.153968 172.608 
L 186.461698 187.968 
L 186.769427 191.808 
L 187.077156 207.168 
L 187.384886 214.848 
L 187.692615 203.328 
L 188.000345 218.688 
L 188.308074 203.328 
L 188.615804 203.328 
L 188.923533 241.728 
L 189.231262 218.688 
L 189.538992 214.848 
L 190.154451 164.928 
L 190.46218 187.968 
L 190.76991 176.448 
L 191.077639 172.608 
L 191.385368 141.888 
L 191.693098 184.128 
L 192.000827 187.968 
L 192.308557 195.648 
L 192.616286 180.288 
L 192.924016 141.888 
L 193.231745 134.208 
L 193.539474 138.048 
L 193.847204 134.208 
L 194.154933 141.888 
L 194.462663 138.048 
L 194.770392 145.728 
L 195.385851 184.128 
L 195.69358 180.288 
L 196.00131 180.288 
L 196.309039 187.968 
L 196.616769 218.688 
L 196.924498 237.888 
L 197.232227 268.608 
L 197.539957 226.368 
L 197.847686 207.168 
L 198.155416 222.528 
L 198.770875 199.488 
L 199.078604 203.328 
L 199.386333 222.528 
L 199.694063 191.808 
L 200.309522 184.128 
L 200.617251 168.768 
L 200.924981 172.608 
L 201.23271 134.208 
L 201.540439 130.368 
L 201.848169 145.728 
L 202.155898 222.528 
L 202.463628 222.528 
L 203.079087 199.488 
L 203.386816 199.488 
L 203.694545 187.968 
L 204.002275 234.048 
L 204.310004 245.568 
L 204.925463 230.208 
L 205.233193 184.128 
L 205.848651 203.328 
L 206.156381 195.648 
L 206.46411 195.648 
L 206.77184 176.448 
L 207.079569 180.288 
L 207.387299 172.608 
L 207.695028 157.248 
L 208.002757 164.928 
L 208.310487 138.048 
L 208.618216 130.368 
L 208.925946 91.968 
L 209.541405 91.968 
L 209.849134 111.168 
L 210.156863 103.488 
L 210.772322 141.888 
L 211.080052 141.888 
L 211.387781 199.488 
L 212.00324 207.168 
L 212.310969 191.808 
L 212.618699 191.808 
L 212.926428 195.648 
L 213.234158 203.328 
L 213.541887 214.848 
L 213.849617 237.888 
L 214.157346 276.288 
L 214.465075 276.288 
L 214.772805 280.128 
L 215.080534 237.888 
L 215.388264 253.248 
L 215.695993 245.568 
L 216.003723 241.728 
L 216.311452 161.088 
L 216.926911 203.328 
L 217.54237 276.288 
L 217.850099 272.448 
L 218.157829 214.848 
L 218.465558 199.488 
L 218.773287 141.888 
L 219.081017 138.048 
L 219.388746 138.048 
L 219.696476 122.688 
L 220.004205 130.368 
L 220.311935 153.408 
L 220.619664 164.928 
L 220.927393 161.088 
L 221.235123 176.448 
L 221.542852 176.448 
L 221.850582 187.968 
L 222.158311 207.168 
L 222.46604 199.488 
L 223.389229 153.408 
L 223.696958 191.808 
L 224.004688 199.488 
L 224.312417 187.968 
L 224.620146 203.328 
L 224.927876 257.088 
L 225.235605 249.408 
L 225.543335 176.448 
L 225.851064 214.848 
L 226.158794 207.168 
L 226.466523 234.048 
L 226.774252 187.968 
L 227.081982 195.648 
L 227.389711 207.168 
L 227.697441 245.568 
L 228.00517 264.768 
L 228.3129 276.288 
L 228.620629 226.368 
L 228.928358 218.688 
L 229.236088 207.168 
L 229.851547 214.848 
L 230.159276 226.368 
L 230.467006 226.368 
L 230.774735 187.968 
L 231.082464 187.968 
L 231.390194 203.328 
L 231.697923 195.648 
L 232.005653 218.688 
L 232.313382 207.168 
L 232.621112 222.528 
L 232.928841 260.928 
L 233.23657 272.448 
L 233.5443 268.608 
L 234.159759 237.888 
L 234.467488 245.568 
L 234.775218 264.768 
L 235.082947 268.608 
L 235.390676 276.288 
L 236.313865 234.048 
L 236.621594 249.408 
L 236.929324 218.688 
L 237.237053 203.328 
L 237.544782 207.168 
L 237.852512 187.968 
L 238.160241 203.328 
L 238.467971 199.488 
L 238.7757 226.368 
L 239.391159 191.808 
L 239.698888 203.328 
L 240.006618 234.048 
L 240.314347 245.568 
L 240.622077 187.968 
L 240.929806 207.168 
L 241.237536 211.008 
L 241.545265 234.048 
L 241.852994 207.168 
L 242.160724 199.488 
L 242.468453 164.928 
L 242.776183 161.088 
L 243.083912 195.648 
L 243.391642 195.648 
L 243.699371 172.608 
L 244.31483 172.608 
L 244.622559 180.288 
L 244.930289 199.488 
L 245.238018 203.328 
L 245.545748 199.488 
L 245.853477 245.568 
L 246.161206 222.528 
L 246.468936 237.888 
L 246.776665 222.528 
L 247.084395 226.368 
L 247.392124 234.048 
L 247.699854 257.088 
L 248.623042 226.368 
L 248.930771 234.048 
L 249.238501 234.048 
L 249.54623 222.528 
L 249.85396 187.968 
L 250.161689 191.808 
L 250.469418 203.328 
L 250.777148 222.528 
L 251.084877 249.408 
L 251.392607 264.768 
L 251.700336 257.088 
L 252.008065 230.208 
L 252.315795 241.728 
L 252.623524 264.768 
L 252.931254 249.408 
L 253.238983 260.928 
L 253.546713 245.568 
L 253.854442 245.568 
L 254.469901 230.208 
L 254.77763 237.888 
L 255.08536 230.208 
L 255.700819 191.808 
L 256.008548 164.928 
L 256.316277 164.928 
L 256.624007 141.888 
L 256.931736 168.768 
L 257.239466 168.768 
L 257.547195 176.448 
L 257.854925 161.088 
L 258.162654 180.288 
L 258.470383 172.608 
L 258.778113 103.488 
L 259.085842 99.648 
L 259.393572 149.568 
L 259.701301 138.048 
L 260.009031 134.208 
L 260.31676 138.048 
L 260.624489 149.568 
L 261.239948 230.208 
L 261.855407 230.208 
L 262.163137 222.528 
L 262.470866 118.848 
L 262.778595 126.528 
L 263.086325 172.608 
L 263.394054 187.968 
L 263.701784 184.128 
L 264.009513 184.128 
L 264.317243 249.408 
L 264.624972 230.208 
L 264.932701 226.368 
L 265.240431 203.328 
L 265.54816 195.648 
L 265.85589 180.288 
L 266.163619 187.968 
L 266.471349 226.368 
L 266.779078 214.848 
L 267.086807 283.968 
L 267.394537 280.128 
L 267.702266 295.488 
L 268.009996 149.568 
L 268.317725 141.888 
L 268.625455 115.008 
L 268.933184 126.528 
L 269.240913 145.728 
L 269.548643 141.888 
L 270.164102 126.528 
L 270.471831 122.688 
L 270.779561 103.488 
L 271.08729 107.328 
L 271.395019 126.528 
L 271.702749 138.048 
L 272.010478 214.848 
L 272.318208 230.208 
L 272.933667 237.888 
L 273.241396 153.408 
L 273.549125 168.768 
L 273.856855 126.528 
L 274.164584 122.688 
L 274.472314 115.008 
L 274.780043 115.008 
L 275.087773 107.328 
L 275.395502 107.328 
L 275.703231 115.008 
L 276.010961 91.968 
L 276.31869 103.488 
L 276.62642 195.648 
L 276.934149 195.648 
L 277.241879 191.808 
L 277.549608 199.488 
L 277.857337 184.128 
L 278.165067 195.648 
L 278.472796 276.288 
L 279.088255 249.408 
L 279.703714 241.728 
L 280.011443 245.568 
L 280.319173 222.528 
L 280.626902 222.528 
L 280.934632 211.008 
L 281.242361 218.688 
L 281.55009 211.008 
L 281.85782 218.688 
L 282.165549 176.448 
L 282.473279 157.248 
L 283.088738 130.368 
L 283.396467 130.368 
L 283.704196 126.528 
L 284.011926 107.328 
L 284.319655 107.328 
L 285.242844 149.568 
L 285.550573 95.808 
L 285.858302 95.808 
L 286.166032 84.288 
L 286.473761 149.568 
L 286.781491 134.208 
L 287.08922 95.808 
L 287.39695 118.848 
L 287.704679 122.688 
L 288.012408 107.328 
L 288.320138 103.488 
L 288.627867 103.488 
L 288.935597 99.648 
L 289.243326 91.968 
L 289.551056 107.328 
L 289.858785 95.808 
L 290.166514 122.688 
L 290.474244 126.528 
L 291.089703 126.528 
L 291.397432 145.728 
L 291.705162 145.728 
L 292.012891 164.928 
L 292.32062 164.928 
L 292.62835 153.408 
L 292.936079 126.528 
L 293.243809 68.928 
L 293.551538 88.128 
L 294.166997 72.768 
L 294.474726 84.288 
L 294.782456 134.208 
L 295.090185 145.728 
L 295.397915 141.888 
L 295.705644 126.528 
L 296.013374 95.808 
L 296.321103 95.808 
L 296.628832 138.048 
L 296.936562 130.368 
L 297.244291 130.368 
L 297.552021 134.208 
L 297.85975 126.528 
L 298.475209 103.488 
L 298.782938 107.328 
L 299.090668 122.688 
L 299.398397 115.008 
L 299.706127 118.848 
L 300.013856 118.848 
L 300.321586 115.008 
L 300.629315 115.008 
L 300.937044 84.288 
L 301.244774 88.128 
L 301.552503 134.208 
L 301.860233 134.208 
L 302.167962 115.008 
L 302.475692 115.008 
L 302.783421 134.208 
L 303.09115 107.328 
L 303.39888 107.328 
L 303.706609 115.008 
L 304.014339 138.048 
L 304.322068 118.848 
L 304.629798 107.328 
L 305.245256 130.368 
L 305.552986 180.288 
L 305.860715 168.768 
L 306.168445 168.768 
L 306.476174 157.248 
L 306.783903 207.168 
L 307.091633 214.848 
L 307.399362 230.208 
L 307.707092 234.048 
L 308.014821 211.008 
L 308.322551 218.688 
L 308.63028 199.488 
L 308.938009 241.728 
L 309.245739 237.888 
L 309.553468 199.488 
L 309.861198 211.008 
L 310.168927 214.848 
L 310.476657 211.008 
L 310.784386 103.488 
L 311.092115 84.288 
L 311.399845 95.808 
L 311.707574 68.928 
L 312.015304 91.968 
L 312.323033 99.648 
L 312.630763 91.968 
L 312.938492 80.448 
L 313.246221 80.448 
L 313.553951 222.528 
L 313.86168 207.168 
L 314.16941 207.168 
L 315.092598 168.768 
L 315.400327 168.768 
L 315.708057 164.928 
L 316.015786 172.608 
L 316.323516 176.448 
L 316.631245 184.128 
L 316.938975 161.088 
L 317.246704 153.408 
L 317.554433 199.488 
L 317.862163 218.688 
L 318.169892 230.208 
L 318.477622 211.008 
L 318.785351 241.728 
L 319.093081 245.568 
L 319.40081 241.728 
L 320.016269 257.088 
L 320.323998 222.528 
L 320.631728 234.048 
L 320.939457 222.528 
L 321.247187 253.248 
L 321.554916 257.088 
L 321.862645 257.088 
L 322.170375 230.208 
L 322.478104 245.568 
L 323.093563 237.888 
L 323.401293 241.728 
L 323.709022 249.408 
L 324.016751 245.568 
L 324.324481 245.568 
L 324.93994 253.248 
L 325.247669 260.928 
L 325.555399 211.008 
L 325.863128 203.328 
L 326.170857 234.048 
L 326.786316 234.048 
L 327.094046 268.608 
L 327.401775 272.448 
L 327.709505 260.928 
L 328.017234 257.088 
L 328.324963 260.928 
L 328.632693 249.408 
L 329.248152 276.288 
L 329.863611 276.288 
L 330.479069 226.368 
L 330.786799 253.248 
L 331.094528 253.248 
L 331.402258 237.888 
L 331.709987 234.048 
L 332.017717 241.728 
L 332.325446 272.448 
L 332.633175 283.968 
L 332.940905 268.608 
L 333.556364 218.688 
L 333.864093 249.408 
L 334.171822 253.248 
L 334.479552 249.408 
L 334.787281 264.768 
L 335.095011 257.088 
L 335.40274 234.048 
L 335.71047 230.208 
L 336.633658 180.288 
L 337.249117 141.888 
L 337.556846 95.808 
L 337.864576 84.288 
L 338.172305 84.288 
L 338.480034 76.608 
L 338.787764 76.608 
L 339.095493 126.528 
L 339.403223 130.368 
L 339.710952 122.688 
L 340.018682 118.848 
L 340.326411 134.208 
L 340.63414 172.608 
L 340.94187 153.408 
L 341.557329 211.008 
L 341.865058 203.328 
L 342.172788 187.968 
L 342.480517 195.648 
L 342.788246 207.168 
L 343.095976 283.968 
L 343.403705 295.488 
L 343.711435 295.488 
L 344.019164 272.448 
L 344.326894 260.928 
L 344.634623 264.768 
L 344.942352 245.568 
L 345.250082 253.248 
L 345.557811 237.888 
L 345.865541 237.888 
L 346.17327 222.528 
L 346.481 214.848 
L 346.788729 214.848 
L 347.404188 241.728 
L 347.711917 241.728 
L 348.019647 222.528 
L 348.327376 187.968 
L 348.635106 176.448 
L 349.250564 176.448 
L 349.558294 226.368 
L 350.481482 164.928 
L 350.789212 168.768 
L 351.096941 195.648 
L 351.40467 187.968 
L 351.7124 184.128 
L 352.020129 172.608 
L 352.327859 203.328 
L 352.635588 191.808 
L 352.943318 222.528 
L 353.251047 203.328 
L 353.558776 199.488 
L 353.866506 187.968 
L 354.174235 187.968 
L 354.481965 195.648 
L 355.405153 207.168 
L 355.712882 191.808 
L 356.020612 187.968 
L 356.9438 226.368 
L 357.25153 222.528 
L 357.866988 176.448 
L 358.174718 180.288 
L 358.482447 195.648 
L 358.790177 184.128 
L 359.097906 218.688 
L 359.405636 214.848 
L 359.713365 214.848 
L 360.021094 234.048 
L 360.328824 241.728 
L 360.636553 234.048 
L 360.944283 257.088 
L 361.252012 226.368 
L 361.559741 226.368 
L 361.867471 241.728 
L 362.1752 245.568 
L 362.48293 222.528 
L 362.790659 211.008 
L 363.098389 180.288 
L 363.406118 187.968 
L 363.713847 176.448 
L 364.021577 157.248 
L 364.329306 103.488 
L 365.252495 161.088 
L 365.867953 187.968 
L 366.175683 180.288 
L 366.483412 168.768 
L 366.791142 172.608 
L 367.098871 130.368 
L 367.406601 161.088 
L 368.022059 176.448 
L 368.329789 187.968 
L 368.637518 187.968 
L 368.945248 218.688 
L 369.252977 199.488 
L 369.560707 199.488 
L 370.176165 214.848 
L 370.483895 241.728 
L 370.791624 222.528 
L 371.099354 237.888 
L 371.714813 214.848 
L 372.022542 230.208 
L 372.330271 226.368 
L 372.638001 234.048 
L 372.94573 234.048 
L 373.25346 191.808 
L 373.561189 168.768 
L 373.868919 187.968 
L 374.176648 199.488 
L 374.484377 191.808 
L 375.099836 214.848 
L 375.407566 211.008 
L 376.023025 245.568 
L 376.330754 226.368 
L 376.638483 226.368 
L 377.253942 249.408 
L 377.561672 187.968 
L 377.869401 168.768 
L 378.177131 172.608 
L 378.48486 172.608 
L 378.792589 195.648 
L 379.100319 203.328 
L 379.408048 214.848 
L 379.715778 218.688 
L 380.023507 218.688 
L 380.331237 260.928 
L 380.638966 283.968 
L 380.946695 272.448 
L 381.254425 276.288 
L 381.562154 211.008 
L 381.869884 184.128 
L 382.177613 211.008 
L 382.485343 180.288 
L 382.793072 161.088 
L 383.100801 172.608 
L 383.408531 164.928 
L 383.71626 260.928 
L 384.02399 241.728 
L 384.331719 257.088 
L 384.639449 253.248 
L 384.947178 253.248 
L 385.254907 272.448 
L 385.562637 257.088 
L 385.870366 257.088 
L 386.485825 249.408 
L 387.101284 214.848 
L 387.716743 187.968 
L 388.024472 172.608 
L 388.332202 211.008 
L 388.639931 211.008 
L 388.94766 214.848 
L 389.25539 230.208 
L 389.563119 226.368 
L 389.870849 207.168 
L 390.178578 195.648 
L 390.794037 237.888 
L 391.101766 241.728 
L 391.409496 234.048 
L 391.717225 249.408 
L 392.640414 214.848 
L 392.948143 257.088 
L 393.255872 260.928 
L 393.563602 234.048 
L 393.871331 245.568 
L 394.179061 230.208 
L 394.48679 222.528 
L 394.79452 245.568 
L 395.102249 249.408 
L 395.409978 226.368 
L 395.717708 222.528 
L 396.025437 222.528 
L 396.333167 214.848 
L 396.640896 222.528 
L 396.948626 234.048 
L 397.256355 237.888 
L 397.564084 249.408 
L 397.871814 237.888 
L 398.179543 237.888 
L 398.487273 241.728 
L 398.487273 241.728 
" clip-path="url(#p836f2e678b)" style="fill: none; stroke: #1f77b4; stroke-width: 1.5; stroke-linecap: square"/>
   </g>
   <g id="patch_3">
    <path d="M 57.6 307.584 
L 57.6 41.472 
" style="fill: none; stroke: #000000; stroke-width: 0.8; stroke-linejoin: miter; stroke-linecap: square"/>
   </g>
   <g id="patch_4">
    <path d="M 414.72 307.584 
L 414.72 41.472 
" style="fill: none; stroke: #000000; stroke-width: 0.8; stroke-linejoin: miter; stroke-linecap: square"/>
   </g>
   <g id="patch_5">
    <path d="M 57.6 307.584 
L 414.72 307.584 
" style="fill: none; stroke: #000000; stroke-width: 0.8; stroke-linejoin: miter; stroke-linecap: square"/>
   </g>
   <g id="patch_6">
    <path d="M 57.6 41.472 
L 414.72 41.472 
" style="fill: none; stroke: #000000; stroke-width: 0.8; stroke-linejoin: miter; stroke-linecap: square"/>
   </g>
   <g id="text_15">
    <!-- Simulated Anealling Cost -->
    <g transform="translate(160.8 35.472)scale(0.12 -0.12)">
     <defs>
      <path id="DejaVuSans-53" d="M 3425 4513 
L 3425 3897 
Q 3066 4069 2747 4153 
Q 2428 4238 2131 4238 
Q 1616 4238 1336 4038 
Q 1056 3838 1056 3469 
Q 1056 3159 1242 3001 
Q 1428 2844 1947 2747 
L 2328 2669 
Q 3034 2534 3370 2195 
Q 3706 1856 3706 1288 
Q 3706 609 3251 259 
Q 2797 -91 1919 -91 
Q 1588 -91 1214 -16 
Q 841 59 441 206 
L 441 856 
Q 825 641 1194 531 
Q 1563 422 1919 422 
Q 2459 422 2753 634 
Q 3047 847 3047 1241 
Q 3047 1584 2836 1778 
Q 2625 1972 2144 2069 
L 1759 2144 
Q 1053 2284 737 2584 
Q 422 2884 422 3419 
Q 422 4038 858 4394 
Q 1294 4750 2059 4750 
Q 2388 4750 2728 4690 
Q 3069 4631 3425 4513 
z
" transform="scale(0.015625)"/>
      <path id="DejaVuSans-69" d="M 603 3500 
L 1178 3500 
L 1178 0 
L 603 0 
L 603 3500 
z
M 603 4863 
L 1178 4863 
L 1178 4134 
L 603 4134 
L 603 4863 
z
" transform="scale(0.015625)"/>
      <path id="DejaVuSans-65" d="M 3597 1894 
L 3597 1613 
L 953 1613 
Q 991 1019 1311 708 
Q 1631 397 2203 397 
Q 2534 397 2845 478 
Q 3156 559 3463 722 
L 3463 178 
Q 3153 47 2828 -22 
Q 2503 -91 2169 -91 
Q 1331 -91 842 396 
Q 353 884 353 1716 
Q 353 2575 817 3079 
Q 1281 3584 2069 3584 
Q 2775 3584 3186 3129 
Q 3597 2675 3597 1894 
z
M 3022 2063 
Q 3016 2534 2758 2815 
Q 2500 3097 2075 3097 
Q 1594 3097 1305 2825 
Q 1016 2553 972 2059 
L 3022 2063 
z
" transform="scale(0.015625)"/>
      <path id="DejaVuSans-64" d="M 2906 2969 
L 2906 4863 
L 3481 4863 
L 3481 0 
L 2906 0 
L 2906 525 
Q 2725 213 2448 61 
Q 2172 -91 1784 -91 
Q 1150 -91 751 415 
Q 353 922 353 1747 
Q 353 2572 751 3078 
Q 1150 3584 1784 3584 
Q 2172 3584 2448 3432 
Q 2725 3281 2906 2969 
z
M 947 1747 
Q 947 1113 1208 752 
Q 1469 391 1925 391 
Q 2381 391 2643 752 
Q 2906 1113 2906 1747 
Q 2906 2381 2643 2742 
Q 2381 3103 1925 3103 
Q 1469 3103 1208 2742 
Q 947 2381 947 1747 
z
" transform="scale(0.015625)"/>
      <path id="DejaVuSans-41" d="M 2188 4044 
L 1331 1722 
L 3047 1722 
L 2188 4044 
z
M 1831 4666 
L 2547 4666 
L 4325 0 
L 3669 0 
L 3244 1197 
L 1141 1197 
L 716 0 
L 50 0 
L 1831 4666 
z
" transform="scale(0.015625)"/>
      <path id="DejaVuSans-67" d="M 2906 1791 
Q 2906 2416 2648 2759 
Q 2391 3103 1925 3103 
Q 1463 3103 1205 2759 
Q 947 2416 947 1791 
Q 947 1169 1205 825 
Q 1463 481 1925 481 
Q 2391 481 2648 825 
Q 2906 1169 2906 1791 
z
M 3481 434 
Q 3481 -459 3084 -895 
Q 2688 -1331 1869 -1331 
Q 1566 -1331 1297 -1286 
Q 1028 -1241 775 -1147 
L 775 -588 
Q 1028 -725 1275 -790 
Q 1522 -856 1778 -856 
Q 2344 -856 2625 -561 
Q 2906 -266 2906 331 
L 2906 616 
Q 2728 306 2450 153 
Q 2172 0 1784 0 
Q 1141 0 747 490 
Q 353 981 353 1791 
Q 353 2603 747 3093 
Q 1141 3584 1784 3584 
Q 2172 3584 2450 3431 
Q 2728 3278 2906 2969 
L 2906 3500 
L 3481 3500 
L 3481 434 
z
" transform="scale(0.015625)"/>
      <path id="DejaVuSans-43" d="M 4122 4306 
L 4122 3641 
Q 3803 3938 3442 4084 
Q 3081 4231 2675 4231 
Q 1875 4231 1450 3742 
Q 1025 3253 1025 2328 
Q 1025 1406 1450 917 
Q 1875 428 2675 428 
Q 3081 428 3442 575 
Q 3803 722 4122 1019 
L 4122 359 
Q 3791 134 3420 21 
Q 3050 -91 2638 -91 
Q 1578 -91 968 557 
Q 359 1206 359 2328 
Q 359 3453 968 4101 
Q 1578 4750 2638 4750 
Q 3056 4750 3426 4639 
Q 3797 4528 4122 4306 
z
" transform="scale(0.015625)"/>
     </defs>
     <use xlink:href="#DejaVuSans-53"/>
     <use xlink:href="#DejaVuSans-69" x="63.476562"/>
     <use xlink:href="#DejaVuSans-6d" x="91.259766"/>
     <use xlink:href="#DejaVuSans-75" x="188.671875"/>
     <use xlink:href="#DejaVuSans-6c" x="252.050781"/>
     <use xlink:href="#DejaVuSans-61" x="279.833984"/>
     <use xlink:href="#DejaVuSans-74" x="341.113281"/>
     <use xlink:href="#DejaVuSans-65" x="380.322266"/>
     <use xlink:href="#DejaVuSans-64" x="441.845703"/>
     <use xlink:href="#DejaVuSans-20" x="505.322266"/>
     <use xlink:href="#DejaVuSans-41" x="537.109375"/>
     <use xlink:href="#DejaVuSans-6e" x="605.517578"/>
     <use xlink:href="#DejaVuSans-65" x="668.896484"/>
     <use xlink:href="#DejaVuSans-61" x="730.419922"/>
     <use xlink:href="#DejaVuSans-6c" x="791.699219"/>
     <use xlink:href="#DejaVuSans-6c" x="819.482422"/>
     <use xlink:href="#DejaVuSans-69" x="847.265625"/>
     <use xlink:href="#DejaVuSans-6e" x="875.048828"/>
     <use xlink:href="#DejaVuSans-67" x="938.427734"/>
     <use xlink:href="#DejaVuSans-20" x="1001.904297"/>
     <use xlink:href="#DejaVuSans-43" x="1033.691406"/>
     <use xlink:href="#DejaVuSans-6f" x="1103.515625"/>
     <use xlink:href="#DejaVuSans-73" x="1164.697266"/>
     <use xlink:href="#DejaVuSans-74" x="1216.796875"/>
    </g>
   </g>
  </g>
 </g>
 <defs>
  <clipPath id="p836f2e678b">
   <rect x="57.6" y="41.472" width="357.12" height="266.112"/>
  </clipPath>
 </defs>
</svg>
