<?xml version="1.0" encoding="utf-8" standalone="no"?>
<!DOCTYPE svg PUBLIC "-//W3C//DTD SVG 1.1//EN"
  "http://www.w3.org/Graphics/SVG/1.1/DTD/svg11.dtd">
<svg xmlns:xlink="http://www.w3.org/1999/xlink" width="460.8pt" height="345.6pt" viewBox="0 0 460.8 345.6" xmlns="http://www.w3.org/2000/svg" version="1.1">
 <metadata>
  <rdf:RDF xmlns:dc="http://purl.org/dc/elements/1.1/" xmlns:cc="http://creativecommons.org/ns#" xmlns:rdf="http://www.w3.org/1999/02/22-rdf-syntax-ns#">
   <cc:Work>
    <dc:type rdf:resource="http://purl.org/dc/dcmitype/StillImage"/>
    <dc:date>2022-06-01T08:05:29.606769</dc:date>
    <dc:format>image/svg+xml</dc:format>
    <dc:creator>
     <cc:Agent>
      <dc:title>Matplotlib v3.5.1, https://matplotlib.org/</dc:title>
     </cc:Agent>
    </dc:creator>
   </cc:Work>
  </rdf:RDF>
 </metadata>
 <defs>
  <style type="text/css">*{stroke-linejoin: round; stroke-linecap: butt}</style>
 </defs>
 <g id="figure_1">
  <g id="patch_1">
   <path d="M 0 345.6 
L 460.8 345.6 
L 460.8 0 
L 0 0 
z
" style="fill: #ffffff"/>
  </g>
  <g id="axes_1">
   <g id="patch_2">
    <path d="M 57.6 307.584 
L 414.72 307.584 
L 414.72 41.472 
L 57.6 41.472 
z
" style="fill: #ffffff"/>
   </g>
   <g id="matplotlib.axis_1">
    <g id="xtick_1">
     <g id="line2d_1">
      <defs>
       <path id="mc377b13133" d="M 0 0 
L 0 3.5 
" style="stroke: #000000; stroke-width: 0.8"/>
      </defs>
      <g>
       <use xlink:href="#mc377b13133" x="73.832727" y="307.584" style="stroke: #000000; stroke-width: 0.8"/>
      </g>
     </g>
     <g id="text_1">
      <!-- 0 -->
      <g transform="translate(70.651477 322.182437)scale(0.1 -0.1)">
       <defs>
        <path id="DejaVuSans-30" d="M 2034 4250 
Q 1547 4250 1301 3770 
Q 1056 3291 1056 2328 
Q 1056 1369 1301 889 
Q 1547 409 2034 409 
Q 2525 409 2770 889 
Q 3016 1369 3016 2328 
Q 3016 3291 2770 3770 
Q 2525 4250 2034 4250 
z
M 2034 4750 
Q 2819 4750 3233 4129 
Q 3647 3509 3647 2328 
Q 3647 1150 3233 529 
Q 2819 -91 2034 -91 
Q 1250 -91 836 529 
Q 422 1150 422 2328 
Q 422 3509 836 4129 
Q 1250 4750 2034 4750 
z
" transform="scale(0.015625)"/>
       </defs>
       <use xlink:href="#DejaVuSans-30"/>
      </g>
     </g>
    </g>
    <g id="xtick_2">
     <g id="line2d_2">
      <g>
       <use xlink:href="#mc377b13133" x="140.910113" y="307.584" style="stroke: #000000; stroke-width: 0.8"/>
      </g>
     </g>
     <g id="text_2">
      <!-- 500 -->
      <g transform="translate(131.366363 322.182437)scale(0.1 -0.1)">
       <defs>
        <path id="DejaVuSans-35" d="M 691 4666 
L 3169 4666 
L 3169 4134 
L 1269 4134 
L 1269 2991 
Q 1406 3038 1543 3061 
Q 1681 3084 1819 3084 
Q 2600 3084 3056 2656 
Q 3513 2228 3513 1497 
Q 3513 744 3044 326 
Q 2575 -91 1722 -91 
Q 1428 -91 1123 -41 
Q 819 9 494 109 
L 494 744 
Q 775 591 1075 516 
Q 1375 441 1709 441 
Q 2250 441 2565 725 
Q 2881 1009 2881 1497 
Q 2881 1984 2565 2268 
Q 2250 2553 1709 2553 
Q 1456 2553 1204 2497 
Q 953 2441 691 2322 
L 691 4666 
z
" transform="scale(0.015625)"/>
       </defs>
       <use xlink:href="#DejaVuSans-35"/>
       <use xlink:href="#DejaVuSans-30" x="63.623047"/>
       <use xlink:href="#DejaVuSans-30" x="127.246094"/>
      </g>
     </g>
    </g>
    <g id="xtick_3">
     <g id="line2d_3">
      <g>
       <use xlink:href="#mc377b13133" x="207.987498" y="307.584" style="stroke: #000000; stroke-width: 0.8"/>
      </g>
     </g>
     <g id="text_3">
      <!-- 1000 -->
      <g transform="translate(195.262498 322.182437)scale(0.1 -0.1)">
       <defs>
        <path id="DejaVuSans-31" d="M 794 531 
L 1825 531 
L 1825 4091 
L 703 3866 
L 703 4441 
L 1819 4666 
L 2450 4666 
L 2450 531 
L 3481 531 
L 3481 0 
L 794 0 
L 794 531 
z
" transform="scale(0.015625)"/>
       </defs>
       <use xlink:href="#DejaVuSans-31"/>
       <use xlink:href="#DejaVuSans-30" x="63.623047"/>
       <use xlink:href="#DejaVuSans-30" x="127.246094"/>
       <use xlink:href="#DejaVuSans-30" x="190.869141"/>
      </g>
     </g>
    </g>
    <g id="xtick_4">
     <g id="line2d_4">
      <g>
       <use xlink:href="#mc377b13133" x="275.064884" y="307.584" style="stroke: #000000; stroke-width: 0.8"/>
      </g>
     </g>
     <g id="text_4">
      <!-- 1500 -->
      <g transform="translate(262.339884 322.182437)scale(0.1 -0.1)">
       <use xlink:href="#DejaVuSans-31"/>
       <use xlink:href="#DejaVuSans-35" x="63.623047"/>
       <use xlink:href="#DejaVuSans-30" x="127.246094"/>
       <use xlink:href="#DejaVuSans-30" x="190.869141"/>
      </g>
     </g>
    </g>
    <g id="xtick_5">
     <g id="line2d_5">
      <g>
       <use xlink:href="#mc377b13133" x="342.142269" y="307.584" style="stroke: #000000; stroke-width: 0.8"/>
      </g>
     </g>
     <g id="text_5">
      <!-- 2000 -->
      <g transform="translate(329.417269 322.182437)scale(0.1 -0.1)">
       <defs>
        <path id="DejaVuSans-32" d="M 1228 531 
L 3431 531 
L 3431 0 
L 469 0 
L 469 531 
Q 828 903 1448 1529 
Q 2069 2156 2228 2338 
Q 2531 2678 2651 2914 
Q 2772 3150 2772 3378 
Q 2772 3750 2511 3984 
Q 2250 4219 1831 4219 
Q 1534 4219 1204 4116 
Q 875 4013 500 3803 
L 500 4441 
Q 881 4594 1212 4672 
Q 1544 4750 1819 4750 
Q 2544 4750 2975 4387 
Q 3406 4025 3406 3419 
Q 3406 3131 3298 2873 
Q 3191 2616 2906 2266 
Q 2828 2175 2409 1742 
Q 1991 1309 1228 531 
z
" transform="scale(0.015625)"/>
       </defs>
       <use xlink:href="#DejaVuSans-32"/>
       <use xlink:href="#DejaVuSans-30" x="63.623047"/>
       <use xlink:href="#DejaVuSans-30" x="127.246094"/>
       <use xlink:href="#DejaVuSans-30" x="190.869141"/>
      </g>
     </g>
    </g>
    <g id="xtick_6">
     <g id="line2d_6">
      <g>
       <use xlink:href="#mc377b13133" x="409.219654" y="307.584" style="stroke: #000000; stroke-width: 0.8"/>
      </g>
     </g>
     <g id="text_6">
      <!-- 2500 -->
      <g transform="translate(396.494654 322.182437)scale(0.1 -0.1)">
       <use xlink:href="#DejaVuSans-32"/>
       <use xlink:href="#DejaVuSans-35" x="63.623047"/>
       <use xlink:href="#DejaVuSans-30" x="127.246094"/>
       <use xlink:href="#DejaVuSans-30" x="190.869141"/>
      </g>
     </g>
    </g>
    <g id="text_7">
     <!-- num swaps -->
     <g transform="translate(207.826406 335.860562)scale(0.1 -0.1)">
      <defs>
       <path id="DejaVuSans-6e" d="M 3513 2113 
L 3513 0 
L 2938 0 
L 2938 2094 
Q 2938 2591 2744 2837 
Q 2550 3084 2163 3084 
Q 1697 3084 1428 2787 
Q 1159 2491 1159 1978 
L 1159 0 
L 581 0 
L 581 3500 
L 1159 3500 
L 1159 2956 
Q 1366 3272 1645 3428 
Q 1925 3584 2291 3584 
Q 2894 3584 3203 3211 
Q 3513 2838 3513 2113 
z
" transform="scale(0.015625)"/>
       <path id="DejaVuSans-75" d="M 544 1381 
L 544 3500 
L 1119 3500 
L 1119 1403 
Q 1119 906 1312 657 
Q 1506 409 1894 409 
Q 2359 409 2629 706 
Q 2900 1003 2900 1516 
L 2900 3500 
L 3475 3500 
L 3475 0 
L 2900 0 
L 2900 538 
Q 2691 219 2414 64 
Q 2138 -91 1772 -91 
Q 1169 -91 856 284 
Q 544 659 544 1381 
z
M 1991 3584 
L 1991 3584 
z
" transform="scale(0.015625)"/>
       <path id="DejaVuSans-6d" d="M 3328 2828 
Q 3544 3216 3844 3400 
Q 4144 3584 4550 3584 
Q 5097 3584 5394 3201 
Q 5691 2819 5691 2113 
L 5691 0 
L 5113 0 
L 5113 2094 
Q 5113 2597 4934 2840 
Q 4756 3084 4391 3084 
Q 3944 3084 3684 2787 
Q 3425 2491 3425 1978 
L 3425 0 
L 2847 0 
L 2847 2094 
Q 2847 2600 2669 2842 
Q 2491 3084 2119 3084 
Q 1678 3084 1418 2786 
Q 1159 2488 1159 1978 
L 1159 0 
L 581 0 
L 581 3500 
L 1159 3500 
L 1159 2956 
Q 1356 3278 1631 3431 
Q 1906 3584 2284 3584 
Q 2666 3584 2933 3390 
Q 3200 3197 3328 2828 
z
" transform="scale(0.015625)"/>
       <path id="DejaVuSans-20" transform="scale(0.015625)"/>
       <path id="DejaVuSans-73" d="M 2834 3397 
L 2834 2853 
Q 2591 2978 2328 3040 
Q 2066 3103 1784 3103 
Q 1356 3103 1142 2972 
Q 928 2841 928 2578 
Q 928 2378 1081 2264 
Q 1234 2150 1697 2047 
L 1894 2003 
Q 2506 1872 2764 1633 
Q 3022 1394 3022 966 
Q 3022 478 2636 193 
Q 2250 -91 1575 -91 
Q 1294 -91 989 -36 
Q 684 19 347 128 
L 347 722 
Q 666 556 975 473 
Q 1284 391 1588 391 
Q 1994 391 2212 530 
Q 2431 669 2431 922 
Q 2431 1156 2273 1281 
Q 2116 1406 1581 1522 
L 1381 1569 
Q 847 1681 609 1914 
Q 372 2147 372 2553 
Q 372 3047 722 3315 
Q 1072 3584 1716 3584 
Q 2034 3584 2315 3537 
Q 2597 3491 2834 3397 
z
" transform="scale(0.015625)"/>
       <path id="DejaVuSans-77" d="M 269 3500 
L 844 3500 
L 1563 769 
L 2278 3500 
L 2956 3500 
L 3675 769 
L 4391 3500 
L 4966 3500 
L 4050 0 
L 3372 0 
L 2619 2869 
L 1863 0 
L 1184 0 
L 269 3500 
z
" transform="scale(0.015625)"/>
       <path id="DejaVuSans-61" d="M 2194 1759 
Q 1497 1759 1228 1600 
Q 959 1441 959 1056 
Q 959 750 1161 570 
Q 1363 391 1709 391 
Q 2188 391 2477 730 
Q 2766 1069 2766 1631 
L 2766 1759 
L 2194 1759 
z
M 3341 1997 
L 3341 0 
L 2766 0 
L 2766 531 
Q 2569 213 2275 61 
Q 1981 -91 1556 -91 
Q 1019 -91 701 211 
Q 384 513 384 1019 
Q 384 1609 779 1909 
Q 1175 2209 1959 2209 
L 2766 2209 
L 2766 2266 
Q 2766 2663 2505 2880 
Q 2244 3097 1772 3097 
Q 1472 3097 1187 3025 
Q 903 2953 641 2809 
L 641 3341 
Q 956 3463 1253 3523 
Q 1550 3584 1831 3584 
Q 2591 3584 2966 3190 
Q 3341 2797 3341 1997 
z
" transform="scale(0.015625)"/>
       <path id="DejaVuSans-70" d="M 1159 525 
L 1159 -1331 
L 581 -1331 
L 581 3500 
L 1159 3500 
L 1159 2969 
Q 1341 3281 1617 3432 
Q 1894 3584 2278 3584 
Q 2916 3584 3314 3078 
Q 3713 2572 3713 1747 
Q 3713 922 3314 415 
Q 2916 -91 2278 -91 
Q 1894 -91 1617 61 
Q 1341 213 1159 525 
z
M 3116 1747 
Q 3116 2381 2855 2742 
Q 2594 3103 2138 3103 
Q 1681 3103 1420 2742 
Q 1159 2381 1159 1747 
Q 1159 1113 1420 752 
Q 1681 391 2138 391 
Q 2594 391 2855 752 
Q 3116 1113 3116 1747 
z
" transform="scale(0.015625)"/>
      </defs>
      <use xlink:href="#DejaVuSans-6e"/>
      <use xlink:href="#DejaVuSans-75" x="63.378906"/>
      <use xlink:href="#DejaVuSans-6d" x="126.757812"/>
      <use xlink:href="#DejaVuSans-20" x="224.169922"/>
      <use xlink:href="#DejaVuSans-73" x="255.957031"/>
      <use xlink:href="#DejaVuSans-77" x="308.056641"/>
      <use xlink:href="#DejaVuSans-61" x="389.84375"/>
      <use xlink:href="#DejaVuSans-70" x="451.123047"/>
      <use xlink:href="#DejaVuSans-73" x="514.599609"/>
     </g>
    </g>
   </g>
   <g id="matplotlib.axis_2">
    <g id="ytick_1">
     <g id="line2d_7">
      <defs>
       <path id="m1270b42a1a" d="M 0 0 
L -3.5 0 
" style="stroke: #000000; stroke-width: 0.8"/>
      </defs>
      <g>
       <use xlink:href="#m1270b42a1a" x="57.6" y="275.810297" style="stroke: #000000; stroke-width: 0.8"/>
      </g>
     </g>
     <g id="text_8">
      <!-- 300 -->
      <g transform="translate(31.5125 279.609515)scale(0.1 -0.1)">
       <defs>
        <path id="DejaVuSans-33" d="M 2597 2516 
Q 3050 2419 3304 2112 
Q 3559 1806 3559 1356 
Q 3559 666 3084 287 
Q 2609 -91 1734 -91 
Q 1441 -91 1130 -33 
Q 819 25 488 141 
L 488 750 
Q 750 597 1062 519 
Q 1375 441 1716 441 
Q 2309 441 2620 675 
Q 2931 909 2931 1356 
Q 2931 1769 2642 2001 
Q 2353 2234 1838 2234 
L 1294 2234 
L 1294 2753 
L 1863 2753 
Q 2328 2753 2575 2939 
Q 2822 3125 2822 3475 
Q 2822 3834 2567 4026 
Q 2313 4219 1838 4219 
Q 1578 4219 1281 4162 
Q 984 4106 628 3988 
L 628 4550 
Q 988 4650 1302 4700 
Q 1616 4750 1894 4750 
Q 2613 4750 3031 4423 
Q 3450 4097 3450 3541 
Q 3450 3153 3228 2886 
Q 3006 2619 2597 2516 
z
" transform="scale(0.015625)"/>
       </defs>
       <use xlink:href="#DejaVuSans-33"/>
       <use xlink:href="#DejaVuSans-30" x="63.623047"/>
       <use xlink:href="#DejaVuSans-30" x="127.246094"/>
      </g>
     </g>
    </g>
    <g id="ytick_2">
     <g id="line2d_8">
      <g>
       <use xlink:href="#m1270b42a1a" x="57.6" y="217.934699" style="stroke: #000000; stroke-width: 0.8"/>
      </g>
     </g>
     <g id="text_9">
      <!-- 350 -->
      <g transform="translate(31.5125 221.733917)scale(0.1 -0.1)">
       <use xlink:href="#DejaVuSans-33"/>
       <use xlink:href="#DejaVuSans-35" x="63.623047"/>
       <use xlink:href="#DejaVuSans-30" x="127.246094"/>
      </g>
     </g>
    </g>
    <g id="ytick_3">
     <g id="line2d_9">
      <g>
       <use xlink:href="#m1270b42a1a" x="57.6" y="160.0591" style="stroke: #000000; stroke-width: 0.8"/>
      </g>
     </g>
     <g id="text_10">
      <!-- 400 -->
      <g transform="translate(31.5125 163.858319)scale(0.1 -0.1)">
       <defs>
        <path id="DejaVuSans-34" d="M 2419 4116 
L 825 1625 
L 2419 1625 
L 2419 4116 
z
M 2253 4666 
L 3047 4666 
L 3047 1625 
L 3713 1625 
L 3713 1100 
L 3047 1100 
L 3047 0 
L 2419 0 
L 2419 1100 
L 313 1100 
L 313 1709 
L 2253 4666 
z
" transform="scale(0.015625)"/>
       </defs>
       <use xlink:href="#DejaVuSans-34"/>
       <use xlink:href="#DejaVuSans-30" x="63.623047"/>
       <use xlink:href="#DejaVuSans-30" x="127.246094"/>
      </g>
     </g>
    </g>
    <g id="ytick_4">
     <g id="line2d_10">
      <g>
       <use xlink:href="#m1270b42a1a" x="57.6" y="102.183502" style="stroke: #000000; stroke-width: 0.8"/>
      </g>
     </g>
     <g id="text_11">
      <!-- 450 -->
      <g transform="translate(31.5125 105.982721)scale(0.1 -0.1)">
       <use xlink:href="#DejaVuSans-34"/>
       <use xlink:href="#DejaVuSans-35" x="63.623047"/>
       <use xlink:href="#DejaVuSans-30" x="127.246094"/>
      </g>
     </g>
    </g>
    <g id="ytick_5">
     <g id="line2d_11">
      <g>
       <use xlink:href="#m1270b42a1a" x="57.6" y="44.307904" style="stroke: #000000; stroke-width: 0.8"/>
      </g>
     </g>
     <g id="text_12">
      <!-- 500 -->
      <g transform="translate(31.5125 48.107123)scale(0.1 -0.1)">
       <use xlink:href="#DejaVuSans-35"/>
       <use xlink:href="#DejaVuSans-30" x="63.623047"/>
       <use xlink:href="#DejaVuSans-30" x="127.246094"/>
      </g>
     </g>
    </g>
    <g id="text_13">
     <!-- total cost -->
     <g transform="translate(25.432812 197.923313)rotate(-90)scale(0.1 -0.1)">
      <defs>
       <path id="DejaVuSans-74" d="M 1172 4494 
L 1172 3500 
L 2356 3500 
L 2356 3053 
L 1172 3053 
L 1172 1153 
Q 1172 725 1289 603 
Q 1406 481 1766 481 
L 2356 481 
L 2356 0 
L 1766 0 
Q 1100 0 847 248 
Q 594 497 594 1153 
L 594 3053 
L 172 3053 
L 172 3500 
L 594 3500 
L 594 4494 
L 1172 4494 
z
" transform="scale(0.015625)"/>
       <path id="DejaVuSans-6f" d="M 1959 3097 
Q 1497 3097 1228 2736 
Q 959 2375 959 1747 
Q 959 1119 1226 758 
Q 1494 397 1959 397 
Q 2419 397 2687 759 
Q 2956 1122 2956 1747 
Q 2956 2369 2687 2733 
Q 2419 3097 1959 3097 
z
M 1959 3584 
Q 2709 3584 3137 3096 
Q 3566 2609 3566 1747 
Q 3566 888 3137 398 
Q 2709 -91 1959 -91 
Q 1206 -91 779 398 
Q 353 888 353 1747 
Q 353 2609 779 3096 
Q 1206 3584 1959 3584 
z
" transform="scale(0.015625)"/>
       <path id="DejaVuSans-6c" d="M 603 4863 
L 1178 4863 
L 1178 0 
L 603 0 
L 603 4863 
z
" transform="scale(0.015625)"/>
       <path id="DejaVuSans-63" d="M 3122 3366 
L 3122 2828 
Q 2878 2963 2633 3030 
Q 2388 3097 2138 3097 
Q 1578 3097 1268 2742 
Q 959 2388 959 1747 
Q 959 1106 1268 751 
Q 1578 397 2138 397 
Q 2388 397 2633 464 
Q 2878 531 3122 666 
L 3122 134 
Q 2881 22 2623 -34 
Q 2366 -91 2075 -91 
Q 1284 -91 818 406 
Q 353 903 353 1747 
Q 353 2603 823 3093 
Q 1294 3584 2113 3584 
Q 2378 3584 2631 3529 
Q 2884 3475 3122 3366 
z
" transform="scale(0.015625)"/>
      </defs>
      <use xlink:href="#DejaVuSans-74"/>
      <use xlink:href="#DejaVuSans-6f" x="39.208984"/>
      <use xlink:href="#DejaVuSans-74" x="100.390625"/>
      <use xlink:href="#DejaVuSans-61" x="139.599609"/>
      <use xlink:href="#DejaVuSans-6c" x="200.878906"/>
      <use xlink:href="#DejaVuSans-20" x="228.662109"/>
      <use xlink:href="#DejaVuSans-63" x="260.449219"/>
      <use xlink:href="#DejaVuSans-6f" x="315.429688"/>
      <use xlink:href="#DejaVuSans-73" x="376.611328"/>
      <use xlink:href="#DejaVuSans-74" x="428.710938"/>
     </g>
    </g>
   </g>
   <g id="line2d_12">
    <path d="M 73.832727 79.033263 
L 74.101037 83.663311 
L 74.369346 97.553455 
L 74.637656 102.183502 
L 75.442585 53.568 
L 75.710894 67.458144 
L 75.979204 65.14312 
L 76.515823 91.765895 
L 76.784132 101.02599 
L 77.052442 126.491254 
L 77.320751 101.02599 
L 77.85737 128.806278 
L 78.12568 126.491254 
L 78.393989 131.121301 
L 78.662299 111.443598 
L 78.930609 113.758622 
L 79.198918 110.286086 
L 79.735537 125.333742 
L 80.003847 118.38867 
L 80.272156 129.963789 
L 80.808775 139.223885 
L 81.077085 173.949244 
L 81.345394 149.641493 
L 81.613704 149.641493 
L 81.882014 145.011445 
L 82.150323 134.593837 
L 82.418633 118.38867 
L 82.686942 121.861206 
L 82.955252 119.546182 
L 83.223561 121.861206 
L 83.491871 154.271541 
L 83.76018 151.956517 
L 84.02849 156.586565 
L 84.296799 155.429053 
L 84.565109 173.949244 
L 85.101728 155.429053 
L 85.370038 170.476708 
L 85.638347 164.689148 
L 85.906657 150.799005 
L 86.174966 162.374124 
L 86.443276 141.538909 
L 86.711585 142.696421 
L 87.248204 168.161684 
L 87.516514 176.264268 
L 87.784823 154.271541 
L 88.053133 171.63422 
L 88.321443 167.004172 
L 88.589752 178.579292 
L 88.858062 184.366852 
L 89.126371 168.161684 
L 89.394681 139.223885 
L 89.66299 132.278813 
L 89.9313 119.546182 
L 90.199609 125.333742 
L 90.467919 119.546182 
L 90.736228 110.286086 
L 91.004538 83.663311 
L 91.272847 83.663311 
L 91.541157 116.073646 
L 91.809467 125.333742 
L 92.077776 142.696421 
L 92.346086 147.326469 
L 92.614395 160.0591 
L 92.882705 164.689148 
L 93.419324 160.0591 
L 93.687633 179.736804 
L 93.955943 175.106756 
L 94.224252 167.004172 
L 94.492562 167.004172 
L 94.760872 180.894316 
L 95.297491 188.9969 
L 95.5658 175.106756 
L 95.83411 186.681876 
L 96.370729 198.256995 
L 96.639038 175.106756 
L 96.907348 179.736804 
L 97.443967 163.531636 
L 97.712276 163.531636 
L 97.980586 165.84666 
L 98.248896 175.106756 
L 98.517205 157.744077 
L 98.785515 167.004172 
L 99.053824 207.517091 
L 99.322134 186.681876 
L 99.590443 182.051828 
L 99.858753 183.20934 
L 100.127062 201.729531 
L 100.395372 192.469435 
L 101.200301 127.648766 
L 101.46861 126.491254 
L 101.73692 120.703694 
L 102.005229 121.861206 
L 102.273539 145.011445 
L 102.810158 163.531636 
L 103.078467 157.744077 
L 103.346777 167.004172 
L 103.615086 147.326469 
L 103.883396 157.744077 
L 104.151705 183.20934 
L 104.420015 192.469435 
L 104.688325 175.106756 
L 104.956634 186.681876 
L 105.224944 183.20934 
L 105.493253 192.469435 
L 105.761563 183.20934 
L 106.029872 164.689148 
L 106.298182 162.374124 
L 106.834801 138.066373 
L 107.10311 151.956517 
L 107.37142 160.0591 
L 107.63973 157.744077 
L 107.908039 149.641493 
L 108.176349 153.114029 
L 108.444658 128.806278 
L 108.712968 131.121301 
L 108.981277 107.971062 
L 109.517896 126.491254 
L 109.786206 104.498526 
L 110.054515 119.546182 
L 110.322825 116.073646 
L 110.591134 132.278813 
L 110.859444 127.648766 
L 111.396063 106.81355 
L 111.664373 103.341014 
L 111.932682 154.271541 
L 112.200992 154.271541 
L 113.00592 173.949244 
L 113.27423 171.63422 
L 113.542539 145.011445 
L 113.810849 136.908861 
L 114.079159 153.114029 
L 114.347468 150.799005 
L 114.615778 136.908861 
L 115.152397 153.114029 
L 115.689016 162.374124 
L 115.957325 173.949244 
L 116.225635 191.311923 
L 116.493944 190.154411 
L 117.030563 158.901589 
L 117.298873 162.374124 
L 117.567183 162.374124 
L 118.372111 135.751349 
L 118.640421 135.751349 
L 118.90873 119.546182 
L 119.17704 124.17623 
L 119.713659 147.326469 
L 119.981968 142.696421 
L 120.250278 146.168957 
L 120.518588 146.168957 
L 120.786897 151.956517 
L 121.055207 139.223885 
L 121.323516 135.751349 
L 121.591826 170.476708 
L 121.860135 171.63422 
L 122.128445 187.839388 
L 122.396754 176.264268 
L 122.665064 158.901589 
L 123.201683 182.051828 
L 123.469992 158.901589 
L 123.738302 149.641493 
L 124.006612 150.799005 
L 124.543231 188.9969 
L 125.07985 186.681876 
L 125.348159 176.264268 
L 125.616469 187.839388 
L 125.884778 208.674603 
L 126.153088 202.887043 
L 126.421397 216.777187 
L 126.689707 214.462163 
L 126.958017 208.674603 
L 127.226326 191.311923 
L 127.494636 207.517091 
L 128.031255 201.729531 
L 128.299564 199.414507 
L 128.567874 194.784459 
L 128.836183 197.099483 
L 129.104493 193.626947 
L 129.372802 179.736804 
L 129.641112 172.791732 
L 129.909421 186.681876 
L 130.177731 178.579292 
L 130.71435 141.538909 
L 130.98266 143.853933 
L 131.250969 131.121301 
L 131.519279 154.271541 
L 131.787588 165.84666 
L 132.055898 147.326469 
L 132.324207 154.271541 
L 132.592517 176.264268 
L 132.860826 178.579292 
L 133.129136 187.839388 
L 133.397446 160.0591 
L 133.934065 192.469435 
L 134.202374 176.264268 
L 134.470684 148.483981 
L 134.738993 158.901589 
L 135.007303 160.0591 
L 135.275612 118.38867 
L 135.543922 113.758622 
L 135.812231 114.916134 
L 136.080541 153.114029 
L 136.34885 147.326469 
L 136.61716 165.84666 
L 136.88547 160.0591 
L 137.153779 141.538909 
L 137.422089 133.436325 
L 137.690398 117.231158 
L 137.958708 110.286086 
L 138.227017 142.696421 
L 138.495327 127.648766 
L 138.763636 138.066373 
L 139.031946 127.648766 
L 139.300255 129.963789 
L 139.836875 132.278813 
L 140.105184 131.121301 
L 140.373494 103.341014 
L 140.641803 131.121301 
L 140.910113 132.278813 
L 141.178422 123.018718 
L 141.446732 127.648766 
L 141.715041 143.853933 
L 141.983351 147.326469 
L 142.25166 162.374124 
L 142.51997 124.17623 
L 142.788279 118.38867 
L 143.056589 128.806278 
L 143.324899 127.648766 
L 143.593208 111.443598 
L 143.861518 111.443598 
L 144.129827 124.17623 
L 144.398137 112.60111 
L 144.666446 80.190775 
L 144.934756 84.820823 
L 145.203065 99.868478 
L 145.471375 107.971062 
L 145.739684 110.286086 
L 146.007994 96.395943 
L 146.276304 91.765895 
L 146.544613 106.81355 
L 146.812923 102.183502 
L 147.081232 99.868478 
L 147.349542 102.183502 
L 147.886161 91.765895 
L 148.15447 90.608383 
L 148.42278 121.861206 
L 148.691089 112.60111 
L 148.959399 139.223885 
L 149.227708 148.483981 
L 149.496018 145.011445 
L 149.764328 154.271541 
L 150.032637 158.901589 
L 150.300947 155.429053 
L 150.569256 145.011445 
L 151.105875 182.051828 
L 151.374185 168.161684 
L 151.642494 142.696421 
L 151.910804 155.429053 
L 152.179113 173.949244 
L 152.447423 173.949244 
L 152.715733 171.63422 
L 152.984042 147.326469 
L 153.252352 158.901589 
L 153.520661 158.901589 
L 153.788971 178.579292 
L 154.05728 167.004172 
L 154.32559 183.20934 
L 154.593899 168.161684 
L 154.862209 161.216612 
L 155.130518 168.161684 
L 155.398828 167.004172 
L 155.667137 167.004172 
L 155.935447 169.319196 
L 156.203757 163.531636 
L 156.472066 164.689148 
L 156.740376 161.216612 
L 157.008685 143.853933 
L 157.276995 154.271541 
L 157.545304 131.121301 
L 157.813614 167.004172 
L 158.081923 187.839388 
L 158.350233 170.476708 
L 158.886852 154.271541 
L 159.155162 156.586565 
L 159.423471 170.476708 
L 159.691781 172.791732 
L 160.2284 165.84666 
L 160.496709 169.319196 
L 160.765019 184.366852 
L 161.033328 182.051828 
L 161.301638 199.414507 
L 161.838257 167.004172 
L 162.106566 164.689148 
L 162.374876 168.161684 
L 162.643186 168.161684 
L 162.911495 179.736804 
L 163.179805 151.956517 
L 163.448114 156.586565 
L 163.716424 164.689148 
L 163.984733 131.121301 
L 164.253043 149.641493 
L 164.521352 151.956517 
L 164.789662 128.806278 
L 165.057971 138.066373 
L 165.326281 136.908861 
L 165.594591 129.963789 
L 165.8629 116.073646 
L 166.13121 123.018718 
L 166.399519 116.073646 
L 166.667829 123.018718 
L 166.936138 120.703694 
L 167.741067 147.326469 
L 168.009376 149.641493 
L 168.545995 215.619675 
L 168.814305 221.407234 
L 169.082615 201.729531 
L 169.350924 206.359579 
L 169.619234 197.099483 
L 170.155853 139.223885 
L 170.424162 147.326469 
L 170.692472 147.326469 
L 170.960781 142.696421 
L 171.229091 142.696421 
L 171.76571 170.476708 
L 172.03402 182.051828 
L 172.302329 160.0591 
L 172.570639 169.319196 
L 172.838948 146.168957 
L 173.107258 141.538909 
L 173.375567 156.586565 
L 173.643877 145.011445 
L 173.912186 140.381397 
L 174.180496 145.011445 
L 174.448805 154.271541 
L 174.717115 146.168957 
L 174.985424 150.799005 
L 175.253734 180.894316 
L 175.790353 132.278813 
L 176.058663 153.114029 
L 176.326972 154.271541 
L 176.595282 154.271541 
L 176.863591 149.641493 
L 177.40021 173.949244 
L 177.66852 176.264268 
L 177.936829 172.791732 
L 178.205139 186.681876 
L 178.473449 187.839388 
L 178.741758 178.579292 
L 179.010068 178.579292 
L 179.278377 165.84666 
L 179.546687 171.63422 
L 180.083306 148.483981 
L 180.619925 170.476708 
L 180.888234 170.476708 
L 181.424853 133.436325 
L 181.693163 141.538909 
L 181.961473 139.223885 
L 182.229782 139.223885 
L 182.498092 142.696421 
L 182.766401 165.84666 
L 183.30302 146.168957 
L 183.839639 186.681876 
L 184.107949 188.9969 
L 184.376258 179.736804 
L 184.912878 126.491254 
L 185.181187 117.231158 
L 185.449497 119.546182 
L 185.986116 147.326469 
L 186.254425 131.121301 
L 186.522735 133.436325 
L 187.059354 158.901589 
L 187.327663 145.011445 
L 187.595973 147.326469 
L 187.864282 151.956517 
L 188.132592 158.901589 
L 188.400902 154.271541 
L 188.669211 182.051828 
L 188.937521 177.42178 
L 189.20583 182.051828 
L 189.47414 179.736804 
L 189.742449 167.004172 
L 190.010759 170.476708 
L 190.279068 171.63422 
L 190.547378 162.374124 
L 190.815687 163.531636 
L 191.083997 140.381397 
L 191.352307 165.84666 
L 191.620616 172.791732 
L 191.888926 165.84666 
L 192.157235 165.84666 
L 192.425545 178.579292 
L 192.693854 183.20934 
L 192.962164 170.476708 
L 193.230473 179.736804 
L 193.498783 175.106756 
L 193.767092 151.956517 
L 194.035402 149.641493 
L 195.10864 132.278813 
L 195.37695 111.443598 
L 195.645259 113.758622 
L 195.913569 113.758622 
L 196.181878 150.799005 
L 196.450188 147.326469 
L 196.718497 141.538909 
L 197.255116 113.758622 
L 197.523426 107.971062 
L 197.791736 142.696421 
L 198.060045 162.374124 
L 198.328355 162.374124 
L 199.133283 179.736804 
L 199.401593 170.476708 
L 199.669902 177.42178 
L 200.206521 147.326469 
L 200.474831 149.641493 
L 201.01145 112.60111 
L 201.27976 111.443598 
L 201.548069 127.648766 
L 201.816379 120.703694 
L 202.084688 121.861206 
L 202.352998 118.38867 
L 202.621307 102.183502 
L 203.157926 127.648766 
L 203.426236 127.648766 
L 203.694545 132.278813 
L 203.962855 123.018718 
L 204.231165 127.648766 
L 204.499474 127.648766 
L 204.767784 133.436325 
L 205.036093 131.121301 
L 205.304403 131.121301 
L 205.572712 143.853933 
L 205.841022 149.641493 
L 206.109331 150.799005 
L 206.377641 168.161684 
L 206.64595 170.476708 
L 206.91426 170.476708 
L 207.182569 172.791732 
L 207.450879 176.264268 
L 207.719189 185.524364 
L 207.987498 187.839388 
L 208.255808 176.264268 
L 208.524117 173.949244 
L 208.792427 165.84666 
L 209.060736 169.319196 
L 209.329046 168.161684 
L 209.597355 184.366852 
L 210.133974 170.476708 
L 210.402284 176.264268 
L 210.938903 171.63422 
L 211.207213 148.483981 
L 211.475522 138.066373 
L 211.743832 133.436325 
L 212.012141 165.84666 
L 212.280451 165.84666 
L 212.54876 163.531636 
L 212.81707 175.106756 
L 213.085379 172.791732 
L 213.353689 178.579292 
L 213.621998 171.63422 
L 213.890308 173.949244 
L 214.158618 163.531636 
L 214.963546 201.729531 
L 215.500165 167.004172 
L 216.036784 167.004172 
L 216.305094 155.429053 
L 216.573403 160.0591 
L 216.841713 169.319196 
L 217.110023 167.004172 
L 217.378332 153.114029 
L 217.646642 157.744077 
L 217.914951 160.0591 
L 218.183261 154.271541 
L 218.45157 157.744077 
L 218.71988 156.586565 
L 218.988189 169.319196 
L 219.256499 169.319196 
L 219.524808 172.791732 
L 220.061427 162.374124 
L 220.329737 179.736804 
L 220.598047 149.641493 
L 220.866356 172.791732 
L 221.134666 163.531636 
L 221.402975 176.264268 
L 221.671285 162.374124 
L 221.939594 167.004172 
L 222.207904 161.216612 
L 222.476213 161.216612 
L 222.744523 167.004172 
L 223.012832 158.901589 
L 223.281142 147.326469 
L 223.549452 145.011445 
L 223.817761 143.853933 
L 224.086071 171.63422 
L 224.35438 177.42178 
L 224.62269 193.626947 
L 224.890999 216.777187 
L 225.159309 219.092211 
L 225.427618 173.949244 
L 225.695928 164.689148 
L 225.964237 178.579292 
L 226.232547 176.264268 
L 226.500856 164.689148 
L 226.769166 164.689148 
L 227.037476 155.429053 
L 227.305785 155.429053 
L 227.574095 150.799005 
L 227.842404 134.593837 
L 228.110714 132.278813 
L 228.379023 119.546182 
L 228.647333 118.38867 
L 228.915642 114.916134 
L 229.183952 87.135847 
L 229.452261 111.443598 
L 229.720571 85.978335 
L 229.988881 109.128574 
L 230.793809 83.663311 
L 231.062119 90.608383 
L 231.330428 94.080919 
L 231.598738 105.656038 
L 231.867047 106.81355 
L 232.135357 116.073646 
L 232.403666 154.271541 
L 232.671976 164.689148 
L 232.940285 158.901589 
L 233.208595 160.0591 
L 233.476905 170.476708 
L 233.745214 163.531636 
L 234.013524 177.42178 
L 234.281833 177.42178 
L 234.550143 190.154411 
L 234.818452 185.524364 
L 235.086762 185.524364 
L 235.623381 202.887043 
L 235.89169 194.784459 
L 236.16 206.359579 
L 236.42831 227.194794 
L 236.696619 270.022737 
L 236.964929 276.967809 
L 237.233238 272.337761 
L 237.501548 257.290105 
L 237.769857 220.249722 
L 238.038167 226.037282 
L 238.306476 219.092211 
L 238.574786 219.092211 
L 238.843095 198.256995 
L 239.111405 200.572019 
L 239.379715 212.147139 
L 239.916334 201.729531 
L 240.184643 221.407234 
L 240.452953 206.359579 
L 240.721262 208.674603 
L 240.989572 206.359579 
L 241.257881 201.729531 
L 241.526191 192.469435 
L 241.7945 191.311923 
L 242.06281 188.9969 
L 242.331119 195.941971 
L 242.599429 213.304651 
L 242.867739 222.564746 
L 243.136048 223.722258 
L 243.404358 230.66733 
L 243.672667 226.037282 
L 243.940977 132.278813 
L 244.209286 109.128574 
L 244.477596 97.553455 
L 244.745905 146.168957 
L 245.014215 172.791732 
L 245.550834 160.0591 
L 245.819144 167.004172 
L 246.087453 164.689148 
L 246.355763 157.744077 
L 246.624072 160.0591 
L 246.892382 167.004172 
L 247.160691 168.161684 
L 247.429001 158.901589 
L 247.69731 165.84666 
L 247.96562 168.161684 
L 248.233929 121.861206 
L 248.502239 123.018718 
L 248.770548 151.956517 
L 249.038858 155.429053 
L 249.307168 161.216612 
L 249.575477 170.476708 
L 249.843787 140.381397 
L 250.112096 141.538909 
L 250.648715 172.791732 
L 250.917025 186.681876 
L 251.185334 176.264268 
L 251.453644 215.619675 
L 251.990263 191.311923 
L 252.258573 191.311923 
L 252.795192 178.579292 
L 253.063501 177.42178 
L 253.60012 147.326469 
L 253.86843 141.538909 
L 254.136739 143.853933 
L 254.405049 134.593837 
L 254.673358 146.168957 
L 254.941668 170.476708 
L 255.209977 165.84666 
L 255.478287 163.531636 
L 255.746597 172.791732 
L 256.014906 172.791732 
L 256.283216 161.216612 
L 256.551525 182.051828 
L 256.819835 184.366852 
L 257.356454 173.949244 
L 257.624763 177.42178 
L 257.893073 175.106756 
L 258.161382 169.319196 
L 258.966311 145.011445 
L 259.234621 141.538909 
L 259.77124 171.63422 
L 260.307859 162.374124 
L 260.576168 160.0591 
L 260.844478 182.051828 
L 261.112787 180.894316 
L 261.381097 183.20934 
L 261.649406 201.729531 
L 261.917716 179.736804 
L 262.186026 179.736804 
L 262.454335 180.894316 
L 262.990954 200.572019 
L 263.259264 182.051828 
L 263.527573 193.626947 
L 263.795883 182.051828 
L 264.064192 176.264268 
L 264.600811 147.326469 
L 264.869121 171.63422 
L 265.137431 167.004172 
L 265.40574 171.63422 
L 265.67405 164.689148 
L 265.942359 175.106756 
L 266.210669 156.586565 
L 266.478978 151.956517 
L 266.747288 162.374124 
L 267.015597 151.956517 
L 267.283907 154.271541 
L 267.552216 135.751349 
L 267.820526 134.593837 
L 268.088835 134.593837 
L 268.357145 153.114029 
L 268.625455 161.216612 
L 268.893764 148.483981 
L 269.162074 148.483981 
L 269.430383 157.744077 
L 270.235312 142.696421 
L 270.503621 147.326469 
L 270.771931 140.381397 
L 271.57686 161.216612 
L 271.845169 141.538909 
L 272.113479 142.696421 
L 272.381788 139.223885 
L 272.650098 127.648766 
L 273.186717 140.381397 
L 273.455026 129.963789 
L 273.723336 139.223885 
L 273.991645 140.381397 
L 274.259955 140.381397 
L 274.528264 153.114029 
L 274.796574 143.853933 
L 275.064884 176.264268 
L 275.333193 180.894316 
L 275.601503 187.839388 
L 275.869812 183.20934 
L 276.138122 176.264268 
L 276.406431 190.154411 
L 276.674741 183.20934 
L 276.94305 186.681876 
L 277.21136 195.941971 
L 277.479669 198.256995 
L 277.747979 190.154411 
L 278.016289 197.099483 
L 278.284598 200.572019 
L 278.821217 200.572019 
L 279.357836 178.579292 
L 279.626146 194.784459 
L 279.894455 185.524364 
L 280.162765 182.051828 
L 280.431074 167.004172 
L 280.699384 165.84666 
L 280.967693 161.216612 
L 281.236003 171.63422 
L 281.504313 199.414507 
L 281.772622 194.784459 
L 282.309241 171.63422 
L 282.577551 185.524364 
L 282.84586 192.469435 
L 283.11417 178.579292 
L 283.919098 185.524364 
L 284.187408 190.154411 
L 284.455718 190.154411 
L 284.724027 194.784459 
L 284.992337 204.044555 
L 285.260646 201.729531 
L 285.528956 201.729531 
L 285.797265 193.626947 
L 286.065575 179.736804 
L 286.333884 198.256995 
L 286.602194 173.949244 
L 286.870503 192.469435 
L 287.138813 193.626947 
L 287.407122 172.791732 
L 287.675432 165.84666 
L 287.943742 190.154411 
L 288.212051 180.894316 
L 288.480361 165.84666 
L 288.74867 173.949244 
L 289.01698 156.586565 
L 289.285289 188.9969 
L 289.553599 191.311923 
L 290.090218 172.791732 
L 290.358527 171.63422 
L 290.626837 161.216612 
L 291.163456 176.264268 
L 291.431766 199.414507 
L 291.700075 199.414507 
L 291.968385 216.777187 
L 292.236694 209.832115 
L 292.505004 228.352306 
L 293.041623 192.469435 
L 293.309932 217.934699 
L 293.578242 213.304651 
L 293.846551 227.194794 
L 294.114861 224.87977 
L 294.383171 229.509818 
L 294.65148 228.352306 
L 294.91979 228.352306 
L 295.188099 216.777187 
L 295.456409 212.147139 
L 295.993028 223.722258 
L 296.261337 217.934699 
L 296.529647 236.45489 
L 296.797956 243.399962 
L 297.066266 219.092211 
L 297.334576 213.304651 
L 297.602885 193.626947 
L 297.871195 195.941971 
L 298.139504 205.202067 
L 298.407814 209.832115 
L 298.676123 200.572019 
L 298.944433 182.051828 
L 299.212742 187.839388 
L 299.481052 199.414507 
L 299.749361 182.051828 
L 300.017671 192.469435 
L 300.28598 194.784459 
L 301.090909 161.216612 
L 301.359219 180.894316 
L 301.627528 184.366852 
L 301.895838 163.531636 
L 302.164147 160.0591 
L 302.432457 169.319196 
L 302.700766 167.004172 
L 302.969076 184.366852 
L 303.237385 164.689148 
L 303.505695 168.161684 
L 303.774005 169.319196 
L 304.042314 173.949244 
L 304.310624 169.319196 
L 304.578933 180.894316 
L 304.847243 183.20934 
L 305.115552 171.63422 
L 305.383862 184.366852 
L 305.652171 188.9969 
L 306.18879 169.319196 
L 306.4571 162.374124 
L 306.725409 162.374124 
L 306.993719 155.429053 
L 307.262029 157.744077 
L 307.798648 169.319196 
L 308.066957 185.524364 
L 308.335267 180.894316 
L 308.603576 221.407234 
L 308.871886 216.777187 
L 309.140195 207.517091 
L 309.408505 213.304651 
L 309.676814 178.579292 
L 310.213434 161.216612 
L 310.481743 176.264268 
L 310.750053 180.894316 
L 311.018362 176.264268 
L 311.286672 182.051828 
L 311.554981 184.366852 
L 311.823291 170.476708 
L 312.0916 182.051828 
L 312.896529 156.586565 
L 313.164838 163.531636 
L 313.433148 186.681876 
L 313.701458 183.20934 
L 313.969767 183.20934 
L 314.238077 182.051828 
L 314.506386 193.626947 
L 314.774696 215.619675 
L 315.311315 179.736804 
L 315.579624 192.469435 
L 316.116243 157.744077 
L 316.384553 157.744077 
L 316.652863 171.63422 
L 316.921172 175.106756 
L 317.189482 175.106756 
L 317.726101 209.832115 
L 317.99441 220.249722 
L 318.26272 210.989627 
L 318.531029 219.092211 
L 318.799339 206.359579 
L 319.335958 158.901589 
L 319.604267 185.524364 
L 319.872577 187.839388 
L 320.140887 198.256995 
L 320.409196 188.9969 
L 320.677506 187.839388 
L 320.945815 228.352306 
L 321.214125 214.462163 
L 321.482434 216.777187 
L 321.750744 227.194794 
L 322.019053 219.092211 
L 322.287363 221.407234 
L 322.555672 213.304651 
L 322.823982 200.572019 
L 323.092292 195.941971 
L 323.360601 184.366852 
L 323.628911 179.736804 
L 323.89722 170.476708 
L 324.16553 171.63422 
L 324.433839 176.264268 
L 324.702149 172.791732 
L 324.970458 165.84666 
L 325.238768 170.476708 
L 325.507077 191.311923 
L 325.775387 202.887043 
L 326.312006 232.982354 
L 327.116935 214.462163 
L 327.385244 209.832115 
L 327.653554 214.462163 
L 327.921863 205.202067 
L 328.190173 207.517091 
L 328.458482 202.887043 
L 329.263411 183.20934 
L 329.531721 180.894316 
L 329.80003 197.099483 
L 330.06834 164.689148 
L 330.336649 187.839388 
L 330.604959 192.469435 
L 330.873268 191.311923 
L 331.141578 176.264268 
L 331.409887 185.524364 
L 331.946506 161.216612 
L 332.214816 148.483981 
L 332.483125 164.689148 
L 332.751435 168.161684 
L 333.019745 163.531636 
L 333.288054 191.311923 
L 333.556364 201.729531 
L 334.092983 193.626947 
L 334.361292 178.579292 
L 334.629602 179.736804 
L 335.43453 156.586565 
L 335.70284 158.901589 
L 335.97115 164.689148 
L 336.239459 163.531636 
L 336.776078 193.626947 
L 337.044388 190.154411 
L 337.312697 190.154411 
L 337.581007 193.626947 
L 337.849316 202.887043 
L 338.117626 191.311923 
L 338.385935 212.147139 
L 338.654245 208.674603 
L 338.922554 227.194794 
L 339.190864 234.139866 
L 339.459174 232.982354 
L 339.727483 219.092211 
L 339.995793 216.777187 
L 340.264102 216.777187 
L 340.532412 219.092211 
L 340.800721 224.87977 
L 341.069031 208.674603 
L 341.33734 214.462163 
L 341.60565 207.517091 
L 341.873959 182.051828 
L 342.142269 208.674603 
L 342.410579 206.359579 
L 343.215507 178.579292 
L 343.483817 197.099483 
L 344.020436 177.42178 
L 344.288745 199.414507 
L 344.557055 185.524364 
L 344.825364 182.051828 
L 345.093674 198.256995 
L 345.361983 195.941971 
L 345.630293 192.469435 
L 345.898603 201.729531 
L 346.166912 191.311923 
L 346.435222 190.154411 
L 346.703531 178.579292 
L 347.24015 183.20934 
L 347.776769 201.729531 
L 348.045079 219.092211 
L 348.313388 216.777187 
L 348.581698 217.934699 
L 348.850008 222.564746 
L 349.118317 224.87977 
L 349.654936 201.729531 
L 349.923246 201.729531 
L 350.459865 207.517091 
L 350.728174 216.777187 
L 350.996484 209.832115 
L 351.533103 224.87977 
L 351.801412 224.87977 
L 352.069722 220.249722 
L 352.338032 222.564746 
L 352.606341 213.304651 
L 352.874651 214.462163 
L 353.41127 201.729531 
L 353.679579 197.099483 
L 353.947889 206.359579 
L 354.216198 220.249722 
L 354.484508 224.87977 
L 355.021127 229.509818 
L 355.289437 223.722258 
L 355.557746 200.572019 
L 355.826056 207.517091 
L 356.094365 195.941971 
L 356.362675 219.092211 
L 356.630984 212.147139 
L 356.899294 208.674603 
L 357.167603 217.934699 
L 357.435913 217.934699 
L 357.704222 209.832115 
L 357.972532 209.832115 
L 358.240841 200.572019 
L 358.509151 195.941971 
L 358.777461 185.524364 
L 359.31408 177.42178 
L 359.582389 188.9969 
L 359.850699 188.9969 
L 360.119008 191.311923 
L 360.387318 198.256995 
L 360.655627 198.256995 
L 360.923937 200.572019 
L 361.460556 216.777187 
L 361.728866 221.407234 
L 361.997175 215.619675 
L 362.265485 224.87977 
L 362.533794 224.87977 
L 362.802104 217.934699 
L 363.070413 231.824842 
L 363.607032 210.989627 
L 363.875342 210.989627 
L 364.143651 214.462163 
L 364.411961 222.564746 
L 364.68027 208.674603 
L 364.94858 210.989627 
L 365.21689 215.619675 
L 365.485199 210.989627 
L 365.753509 217.934699 
L 366.021818 216.777187 
L 366.290128 206.359579 
L 366.558437 209.832115 
L 366.826747 185.524364 
L 367.095056 172.791732 
L 367.899985 214.462163 
L 368.168295 216.777187 
L 368.436604 216.777187 
L 368.704914 208.674603 
L 368.973223 215.619675 
L 369.241533 216.777187 
L 369.509842 197.099483 
L 369.778152 192.469435 
L 370.046461 215.619675 
L 370.314771 212.147139 
L 370.58308 215.619675 
L 370.85139 223.722258 
L 371.119699 219.092211 
L 371.388009 228.352306 
L 371.924628 226.037282 
L 372.192938 223.722258 
L 372.729557 254.975081 
L 372.997866 252.660057 
L 373.266176 257.290105 
L 373.534485 254.975081 
L 373.802795 257.290105 
L 374.071104 241.084938 
L 374.339414 248.03001 
L 374.607724 264.235177 
L 374.876033 264.235177 
L 375.144343 259.605129 
L 375.412652 241.084938 
L 375.680962 243.399962 
L 375.949271 257.290105 
L 376.217581 263.077665 
L 376.48589 260.762641 
L 376.7542 263.077665 
L 377.290819 243.399962 
L 377.559128 244.557474 
L 377.827438 246.872498 
L 378.095748 228.352306 
L 378.364057 228.352306 
L 378.900676 239.927426 
L 379.168986 237.612402 
L 379.437295 229.509818 
L 379.705605 242.24245 
L 379.973914 235.297378 
L 380.242224 235.297378 
L 380.510533 249.187522 
L 380.778843 246.872498 
L 381.047153 241.084938 
L 381.852081 271.180249 
L 382.3887 266.550201 
L 382.65701 278.125321 
L 382.925319 280.440344 
L 383.193629 295.488 
L 383.730248 282.755368 
L 384.266867 287.385416 
L 384.535177 261.920153 
L 384.803486 264.235177 
L 385.071796 271.180249 
L 385.340105 271.180249 
L 385.608415 282.755368 
L 385.876724 273.495273 
L 386.145034 278.125321 
L 386.413343 265.392689 
L 386.681653 244.557474 
L 387.218272 238.769914 
L 387.486582 241.084938 
L 387.754891 250.345033 
L 388.023201 250.345033 
L 388.29151 244.557474 
L 388.55982 244.557474 
L 389.096439 254.975081 
L 389.633058 232.982354 
L 389.901367 232.982354 
L 390.169677 245.714986 
L 390.437986 245.714986 
L 390.706296 254.975081 
L 390.974606 245.714986 
L 391.242915 246.872498 
L 391.779534 256.132593 
L 392.047844 253.817569 
L 392.316153 243.399962 
L 392.584463 246.872498 
L 392.852772 231.824842 
L 393.121082 236.45489 
L 393.389391 236.45489 
L 393.657701 227.194794 
L 393.926011 223.722258 
L 394.19432 234.139866 
L 394.46263 235.297378 
L 394.730939 238.769914 
L 394.999249 237.612402 
L 395.267558 230.66733 
L 395.535868 239.927426 
L 395.804177 221.407234 
L 396.072487 212.147139 
L 396.340796 214.462163 
L 396.609106 229.509818 
L 397.145725 209.832115 
L 397.414035 210.989627 
L 397.950654 224.87977 
L 398.218963 237.612402 
L 398.487273 258.447617 
L 398.487273 258.447617 
" clip-path="url(#pe284a090ce)" style="fill: none; stroke: #1f77b4; stroke-width: 1.5; stroke-linecap: square"/>
   </g>
   <g id="patch_3">
    <path d="M 57.6 307.584 
L 57.6 41.472 
" style="fill: none; stroke: #000000; stroke-width: 0.8; stroke-linejoin: miter; stroke-linecap: square"/>
   </g>
   <g id="patch_4">
    <path d="M 414.72 307.584 
L 414.72 41.472 
" style="fill: none; stroke: #000000; stroke-width: 0.8; stroke-linejoin: miter; stroke-linecap: square"/>
   </g>
   <g id="patch_5">
    <path d="M 57.6 307.584 
L 414.72 307.584 
" style="fill: none; stroke: #000000; stroke-width: 0.8; stroke-linejoin: miter; stroke-linecap: square"/>
   </g>
   <g id="patch_6">
    <path d="M 57.6 41.472 
L 414.72 41.472 
" style="fill: none; stroke: #000000; stroke-width: 0.8; stroke-linejoin: miter; stroke-linecap: square"/>
   </g>
   <g id="text_14">
    <!-- Simulated Anealling Cost -->
    <g transform="translate(160.8 35.472)scale(0.12 -0.12)">
     <defs>
      <path id="DejaVuSans-53" d="M 3425 4513 
L 3425 3897 
Q 3066 4069 2747 4153 
Q 2428 4238 2131 4238 
Q 1616 4238 1336 4038 
Q 1056 3838 1056 3469 
Q 1056 3159 1242 3001 
Q 1428 2844 1947 2747 
L 2328 2669 
Q 3034 2534 3370 2195 
Q 3706 1856 3706 1288 
Q 3706 609 3251 259 
Q 2797 -91 1919 -91 
Q 1588 -91 1214 -16 
Q 841 59 441 206 
L 441 856 
Q 825 641 1194 531 
Q 1563 422 1919 422 
Q 2459 422 2753 634 
Q 3047 847 3047 1241 
Q 3047 1584 2836 1778 
Q 2625 1972 2144 2069 
L 1759 2144 
Q 1053 2284 737 2584 
Q 422 2884 422 3419 
Q 422 4038 858 4394 
Q 1294 4750 2059 4750 
Q 2388 4750 2728 4690 
Q 3069 4631 3425 4513 
z
" transform="scale(0.015625)"/>
      <path id="DejaVuSans-69" d="M 603 3500 
L 1178 3500 
L 1178 0 
L 603 0 
L 603 3500 
z
M 603 4863 
L 1178 4863 
L 1178 4134 
L 603 4134 
L 603 4863 
z
" transform="scale(0.015625)"/>
      <path id="DejaVuSans-65" d="M 3597 1894 
L 3597 1613 
L 953 1613 
Q 991 1019 1311 708 
Q 1631 397 2203 397 
Q 2534 397 2845 478 
Q 3156 559 3463 722 
L 3463 178 
Q 3153 47 2828 -22 
Q 2503 -91 2169 -91 
Q 1331 -91 842 396 
Q 353 884 353 1716 
Q 353 2575 817 3079 
Q 1281 3584 2069 3584 
Q 2775 3584 3186 3129 
Q 3597 2675 3597 1894 
z
M 3022 2063 
Q 3016 2534 2758 2815 
Q 2500 3097 2075 3097 
Q 1594 3097 1305 2825 
Q 1016 2553 972 2059 
L 3022 2063 
z
" transform="scale(0.015625)"/>
      <path id="DejaVuSans-64" d="M 2906 2969 
L 2906 4863 
L 3481 4863 
L 3481 0 
L 2906 0 
L 2906 525 
Q 2725 213 2448 61 
Q 2172 -91 1784 -91 
Q 1150 -91 751 415 
Q 353 922 353 1747 
Q 353 2572 751 3078 
Q 1150 3584 1784 3584 
Q 2172 3584 2448 3432 
Q 2725 3281 2906 2969 
z
M 947 1747 
Q 947 1113 1208 752 
Q 1469 391 1925 391 
Q 2381 391 2643 752 
Q 2906 1113 2906 1747 
Q 2906 2381 2643 2742 
Q 2381 3103 1925 3103 
Q 1469 3103 1208 2742 
Q 947 2381 947 1747 
z
" transform="scale(0.015625)"/>
      <path id="DejaVuSans-41" d="M 2188 4044 
L 1331 1722 
L 3047 1722 
L 2188 4044 
z
M 1831 4666 
L 2547 4666 
L 4325 0 
L 3669 0 
L 3244 1197 
L 1141 1197 
L 716 0 
L 50 0 
L 1831 4666 
z
" transform="scale(0.015625)"/>
      <path id="DejaVuSans-67" d="M 2906 1791 
Q 2906 2416 2648 2759 
Q 2391 3103 1925 3103 
Q 1463 3103 1205 2759 
Q 947 2416 947 1791 
Q 947 1169 1205 825 
Q 1463 481 1925 481 
Q 2391 481 2648 825 
Q 2906 1169 2906 1791 
z
M 3481 434 
Q 3481 -459 3084 -895 
Q 2688 -1331 1869 -1331 
Q 1566 -1331 1297 -1286 
Q 1028 -1241 775 -1147 
L 775 -588 
Q 1028 -725 1275 -790 
Q 1522 -856 1778 -856 
Q 2344 -856 2625 -561 
Q 2906 -266 2906 331 
L 2906 616 
Q 2728 306 2450 153 
Q 2172 0 1784 0 
Q 1141 0 747 490 
Q 353 981 353 1791 
Q 353 2603 747 3093 
Q 1141 3584 1784 3584 
Q 2172 3584 2450 3431 
Q 2728 3278 2906 2969 
L 2906 3500 
L 3481 3500 
L 3481 434 
z
" transform="scale(0.015625)"/>
      <path id="DejaVuSans-43" d="M 4122 4306 
L 4122 3641 
Q 3803 3938 3442 4084 
Q 3081 4231 2675 4231 
Q 1875 4231 1450 3742 
Q 1025 3253 1025 2328 
Q 1025 1406 1450 917 
Q 1875 428 2675 428 
Q 3081 428 3442 575 
Q 3803 722 4122 1019 
L 4122 359 
Q 3791 134 3420 21 
Q 3050 -91 2638 -91 
Q 1578 -91 968 557 
Q 359 1206 359 2328 
Q 359 3453 968 4101 
Q 1578 4750 2638 4750 
Q 3056 4750 3426 4639 
Q 3797 4528 4122 4306 
z
" transform="scale(0.015625)"/>
     </defs>
     <use xlink:href="#DejaVuSans-53"/>
     <use xlink:href="#DejaVuSans-69" x="63.476562"/>
     <use xlink:href="#DejaVuSans-6d" x="91.259766"/>
     <use xlink:href="#DejaVuSans-75" x="188.671875"/>
     <use xlink:href="#DejaVuSans-6c" x="252.050781"/>
     <use xlink:href="#DejaVuSans-61" x="279.833984"/>
     <use xlink:href="#DejaVuSans-74" x="341.113281"/>
     <use xlink:href="#DejaVuSans-65" x="380.322266"/>
     <use xlink:href="#DejaVuSans-64" x="441.845703"/>
     <use xlink:href="#DejaVuSans-20" x="505.322266"/>
     <use xlink:href="#DejaVuSans-41" x="537.109375"/>
     <use xlink:href="#DejaVuSans-6e" x="605.517578"/>
     <use xlink:href="#DejaVuSans-65" x="668.896484"/>
     <use xlink:href="#DejaVuSans-61" x="730.419922"/>
     <use xlink:href="#DejaVuSans-6c" x="791.699219"/>
     <use xlink:href="#DejaVuSans-6c" x="819.482422"/>
     <use xlink:href="#DejaVuSans-69" x="847.265625"/>
     <use xlink:href="#DejaVuSans-6e" x="875.048828"/>
     <use xlink:href="#DejaVuSans-67" x="938.427734"/>
     <use xlink:href="#DejaVuSans-20" x="1001.904297"/>
     <use xlink:href="#DejaVuSans-43" x="1033.691406"/>
     <use xlink:href="#DejaVuSans-6f" x="1103.515625"/>
     <use xlink:href="#DejaVuSans-73" x="1164.697266"/>
     <use xlink:href="#DejaVuSans-74" x="1216.796875"/>
    </g>
   </g>
  </g>
 </g>
 <defs>
  <clipPath id="pe284a090ce">
   <rect x="57.6" y="41.472" width="357.12" height="266.112"/>
  </clipPath>
 </defs>
</svg>
