<?xml version="1.0" encoding="utf-8" standalone="no"?>
<!DOCTYPE svg PUBLIC "-//W3C//DTD SVG 1.1//EN"
  "http://www.w3.org/Graphics/SVG/1.1/DTD/svg11.dtd">
<svg xmlns:xlink="http://www.w3.org/1999/xlink" width="460.8pt" height="345.6pt" viewBox="0 0 460.8 345.6" xmlns="http://www.w3.org/2000/svg" version="1.1">
 <metadata>
  <rdf:RDF xmlns:dc="http://purl.org/dc/elements/1.1/" xmlns:cc="http://creativecommons.org/ns#" xmlns:rdf="http://www.w3.org/1999/02/22-rdf-syntax-ns#">
   <cc:Work>
    <dc:type rdf:resource="http://purl.org/dc/dcmitype/StillImage"/>
    <dc:date>2022-06-01T08:05:33.532356</dc:date>
    <dc:format>image/svg+xml</dc:format>
    <dc:creator>
     <cc:Agent>
      <dc:title>Matplotlib v3.5.1, https://matplotlib.org/</dc:title>
     </cc:Agent>
    </dc:creator>
   </cc:Work>
  </rdf:RDF>
 </metadata>
 <defs>
  <style type="text/css">*{stroke-linejoin: round; stroke-linecap: butt}</style>
 </defs>
 <g id="figure_1">
  <g id="patch_1">
   <path d="M 0 345.6 
L 460.8 345.6 
L 460.8 0 
L 0 0 
z
" style="fill: #ffffff"/>
  </g>
  <g id="axes_1">
   <g id="patch_2">
    <path d="M 57.6 307.584 
L 414.72 307.584 
L 414.72 41.472 
L 57.6 41.472 
z
" style="fill: #ffffff"/>
   </g>
   <g id="matplotlib.axis_1">
    <g id="xtick_1">
     <g id="line2d_1">
      <defs>
       <path id="m55ee97c0b4" d="M 0 0 
L 0 3.5 
" style="stroke: #000000; stroke-width: 0.8"/>
      </defs>
      <g>
       <use xlink:href="#m55ee97c0b4" x="73.832727" y="307.584" style="stroke: #000000; stroke-width: 0.8"/>
      </g>
     </g>
     <g id="text_1">
      <!-- 0 -->
      <g transform="translate(70.651477 322.182437)scale(0.1 -0.1)">
       <defs>
        <path id="DejaVuSans-30" d="M 2034 4250 
Q 1547 4250 1301 3770 
Q 1056 3291 1056 2328 
Q 1056 1369 1301 889 
Q 1547 409 2034 409 
Q 2525 409 2770 889 
Q 3016 1369 3016 2328 
Q 3016 3291 2770 3770 
Q 2525 4250 2034 4250 
z
M 2034 4750 
Q 2819 4750 3233 4129 
Q 3647 3509 3647 2328 
Q 3647 1150 3233 529 
Q 2819 -91 2034 -91 
Q 1250 -91 836 529 
Q 422 1150 422 2328 
Q 422 3509 836 4129 
Q 1250 4750 2034 4750 
z
" transform="scale(0.015625)"/>
       </defs>
       <use xlink:href="#DejaVuSans-30"/>
      </g>
     </g>
    </g>
    <g id="xtick_2">
     <g id="line2d_2">
      <g>
       <use xlink:href="#m55ee97c0b4" x="115.242746" y="307.584" style="stroke: #000000; stroke-width: 0.8"/>
      </g>
     </g>
     <g id="text_2">
      <!-- 200 -->
      <g transform="translate(105.698996 322.182437)scale(0.1 -0.1)">
       <defs>
        <path id="DejaVuSans-32" d="M 1228 531 
L 3431 531 
L 3431 0 
L 469 0 
L 469 531 
Q 828 903 1448 1529 
Q 2069 2156 2228 2338 
Q 2531 2678 2651 2914 
Q 2772 3150 2772 3378 
Q 2772 3750 2511 3984 
Q 2250 4219 1831 4219 
Q 1534 4219 1204 4116 
Q 875 4013 500 3803 
L 500 4441 
Q 881 4594 1212 4672 
Q 1544 4750 1819 4750 
Q 2544 4750 2975 4387 
Q 3406 4025 3406 3419 
Q 3406 3131 3298 2873 
Q 3191 2616 2906 2266 
Q 2828 2175 2409 1742 
Q 1991 1309 1228 531 
z
" transform="scale(0.015625)"/>
       </defs>
       <use xlink:href="#DejaVuSans-32"/>
       <use xlink:href="#DejaVuSans-30" x="63.623047"/>
       <use xlink:href="#DejaVuSans-30" x="127.246094"/>
      </g>
     </g>
    </g>
    <g id="xtick_3">
     <g id="line2d_3">
      <g>
       <use xlink:href="#m55ee97c0b4" x="156.652764" y="307.584" style="stroke: #000000; stroke-width: 0.8"/>
      </g>
     </g>
     <g id="text_3">
      <!-- 400 -->
      <g transform="translate(147.109014 322.182437)scale(0.1 -0.1)">
       <defs>
        <path id="DejaVuSans-34" d="M 2419 4116 
L 825 1625 
L 2419 1625 
L 2419 4116 
z
M 2253 4666 
L 3047 4666 
L 3047 1625 
L 3713 1625 
L 3713 1100 
L 3047 1100 
L 3047 0 
L 2419 0 
L 2419 1100 
L 313 1100 
L 313 1709 
L 2253 4666 
z
" transform="scale(0.015625)"/>
       </defs>
       <use xlink:href="#DejaVuSans-34"/>
       <use xlink:href="#DejaVuSans-30" x="63.623047"/>
       <use xlink:href="#DejaVuSans-30" x="127.246094"/>
      </g>
     </g>
    </g>
    <g id="xtick_4">
     <g id="line2d_4">
      <g>
       <use xlink:href="#m55ee97c0b4" x="198.062783" y="307.584" style="stroke: #000000; stroke-width: 0.8"/>
      </g>
     </g>
     <g id="text_4">
      <!-- 600 -->
      <g transform="translate(188.519033 322.182437)scale(0.1 -0.1)">
       <defs>
        <path id="DejaVuSans-36" d="M 2113 2584 
Q 1688 2584 1439 2293 
Q 1191 2003 1191 1497 
Q 1191 994 1439 701 
Q 1688 409 2113 409 
Q 2538 409 2786 701 
Q 3034 994 3034 1497 
Q 3034 2003 2786 2293 
Q 2538 2584 2113 2584 
z
M 3366 4563 
L 3366 3988 
Q 3128 4100 2886 4159 
Q 2644 4219 2406 4219 
Q 1781 4219 1451 3797 
Q 1122 3375 1075 2522 
Q 1259 2794 1537 2939 
Q 1816 3084 2150 3084 
Q 2853 3084 3261 2657 
Q 3669 2231 3669 1497 
Q 3669 778 3244 343 
Q 2819 -91 2113 -91 
Q 1303 -91 875 529 
Q 447 1150 447 2328 
Q 447 3434 972 4092 
Q 1497 4750 2381 4750 
Q 2619 4750 2861 4703 
Q 3103 4656 3366 4563 
z
" transform="scale(0.015625)"/>
       </defs>
       <use xlink:href="#DejaVuSans-36"/>
       <use xlink:href="#DejaVuSans-30" x="63.623047"/>
       <use xlink:href="#DejaVuSans-30" x="127.246094"/>
      </g>
     </g>
    </g>
    <g id="xtick_5">
     <g id="line2d_5">
      <g>
       <use xlink:href="#m55ee97c0b4" x="239.472801" y="307.584" style="stroke: #000000; stroke-width: 0.8"/>
      </g>
     </g>
     <g id="text_5">
      <!-- 800 -->
      <g transform="translate(229.929051 322.182437)scale(0.1 -0.1)">
       <defs>
        <path id="DejaVuSans-38" d="M 2034 2216 
Q 1584 2216 1326 1975 
Q 1069 1734 1069 1313 
Q 1069 891 1326 650 
Q 1584 409 2034 409 
Q 2484 409 2743 651 
Q 3003 894 3003 1313 
Q 3003 1734 2745 1975 
Q 2488 2216 2034 2216 
z
M 1403 2484 
Q 997 2584 770 2862 
Q 544 3141 544 3541 
Q 544 4100 942 4425 
Q 1341 4750 2034 4750 
Q 2731 4750 3128 4425 
Q 3525 4100 3525 3541 
Q 3525 3141 3298 2862 
Q 3072 2584 2669 2484 
Q 3125 2378 3379 2068 
Q 3634 1759 3634 1313 
Q 3634 634 3220 271 
Q 2806 -91 2034 -91 
Q 1263 -91 848 271 
Q 434 634 434 1313 
Q 434 1759 690 2068 
Q 947 2378 1403 2484 
z
M 1172 3481 
Q 1172 3119 1398 2916 
Q 1625 2713 2034 2713 
Q 2441 2713 2670 2916 
Q 2900 3119 2900 3481 
Q 2900 3844 2670 4047 
Q 2441 4250 2034 4250 
Q 1625 4250 1398 4047 
Q 1172 3844 1172 3481 
z
" transform="scale(0.015625)"/>
       </defs>
       <use xlink:href="#DejaVuSans-38"/>
       <use xlink:href="#DejaVuSans-30" x="63.623047"/>
       <use xlink:href="#DejaVuSans-30" x="127.246094"/>
      </g>
     </g>
    </g>
    <g id="xtick_6">
     <g id="line2d_6">
      <g>
       <use xlink:href="#m55ee97c0b4" x="280.88282" y="307.584" style="stroke: #000000; stroke-width: 0.8"/>
      </g>
     </g>
     <g id="text_6">
      <!-- 1000 -->
      <g transform="translate(268.15782 322.182437)scale(0.1 -0.1)">
       <defs>
        <path id="DejaVuSans-31" d="M 794 531 
L 1825 531 
L 1825 4091 
L 703 3866 
L 703 4441 
L 1819 4666 
L 2450 4666 
L 2450 531 
L 3481 531 
L 3481 0 
L 794 0 
L 794 531 
z
" transform="scale(0.015625)"/>
       </defs>
       <use xlink:href="#DejaVuSans-31"/>
       <use xlink:href="#DejaVuSans-30" x="63.623047"/>
       <use xlink:href="#DejaVuSans-30" x="127.246094"/>
       <use xlink:href="#DejaVuSans-30" x="190.869141"/>
      </g>
     </g>
    </g>
    <g id="xtick_7">
     <g id="line2d_7">
      <g>
       <use xlink:href="#m55ee97c0b4" x="322.292839" y="307.584" style="stroke: #000000; stroke-width: 0.8"/>
      </g>
     </g>
     <g id="text_7">
      <!-- 1200 -->
      <g transform="translate(309.567839 322.182437)scale(0.1 -0.1)">
       <use xlink:href="#DejaVuSans-31"/>
       <use xlink:href="#DejaVuSans-32" x="63.623047"/>
       <use xlink:href="#DejaVuSans-30" x="127.246094"/>
       <use xlink:href="#DejaVuSans-30" x="190.869141"/>
      </g>
     </g>
    </g>
    <g id="xtick_8">
     <g id="line2d_8">
      <g>
       <use xlink:href="#m55ee97c0b4" x="363.702857" y="307.584" style="stroke: #000000; stroke-width: 0.8"/>
      </g>
     </g>
     <g id="text_8">
      <!-- 1400 -->
      <g transform="translate(350.977857 322.182437)scale(0.1 -0.1)">
       <use xlink:href="#DejaVuSans-31"/>
       <use xlink:href="#DejaVuSans-34" x="63.623047"/>
       <use xlink:href="#DejaVuSans-30" x="127.246094"/>
       <use xlink:href="#DejaVuSans-30" x="190.869141"/>
      </g>
     </g>
    </g>
    <g id="xtick_9">
     <g id="line2d_9">
      <g>
       <use xlink:href="#m55ee97c0b4" x="405.112876" y="307.584" style="stroke: #000000; stroke-width: 0.8"/>
      </g>
     </g>
     <g id="text_9">
      <!-- 1600 -->
      <g transform="translate(392.387876 322.182437)scale(0.1 -0.1)">
       <use xlink:href="#DejaVuSans-31"/>
       <use xlink:href="#DejaVuSans-36" x="63.623047"/>
       <use xlink:href="#DejaVuSans-30" x="127.246094"/>
       <use xlink:href="#DejaVuSans-30" x="190.869141"/>
      </g>
     </g>
    </g>
    <g id="text_10">
     <!-- num swaps -->
     <g transform="translate(207.826406 335.860562)scale(0.1 -0.1)">
      <defs>
       <path id="DejaVuSans-6e" d="M 3513 2113 
L 3513 0 
L 2938 0 
L 2938 2094 
Q 2938 2591 2744 2837 
Q 2550 3084 2163 3084 
Q 1697 3084 1428 2787 
Q 1159 2491 1159 1978 
L 1159 0 
L 581 0 
L 581 3500 
L 1159 3500 
L 1159 2956 
Q 1366 3272 1645 3428 
Q 1925 3584 2291 3584 
Q 2894 3584 3203 3211 
Q 3513 2838 3513 2113 
z
" transform="scale(0.015625)"/>
       <path id="DejaVuSans-75" d="M 544 1381 
L 544 3500 
L 1119 3500 
L 1119 1403 
Q 1119 906 1312 657 
Q 1506 409 1894 409 
Q 2359 409 2629 706 
Q 2900 1003 2900 1516 
L 2900 3500 
L 3475 3500 
L 3475 0 
L 2900 0 
L 2900 538 
Q 2691 219 2414 64 
Q 2138 -91 1772 -91 
Q 1169 -91 856 284 
Q 544 659 544 1381 
z
M 1991 3584 
L 1991 3584 
z
" transform="scale(0.015625)"/>
       <path id="DejaVuSans-6d" d="M 3328 2828 
Q 3544 3216 3844 3400 
Q 4144 3584 4550 3584 
Q 5097 3584 5394 3201 
Q 5691 2819 5691 2113 
L 5691 0 
L 5113 0 
L 5113 2094 
Q 5113 2597 4934 2840 
Q 4756 3084 4391 3084 
Q 3944 3084 3684 2787 
Q 3425 2491 3425 1978 
L 3425 0 
L 2847 0 
L 2847 2094 
Q 2847 2600 2669 2842 
Q 2491 3084 2119 3084 
Q 1678 3084 1418 2786 
Q 1159 2488 1159 1978 
L 1159 0 
L 581 0 
L 581 3500 
L 1159 3500 
L 1159 2956 
Q 1356 3278 1631 3431 
Q 1906 3584 2284 3584 
Q 2666 3584 2933 3390 
Q 3200 3197 3328 2828 
z
" transform="scale(0.015625)"/>
       <path id="DejaVuSans-20" transform="scale(0.015625)"/>
       <path id="DejaVuSans-73" d="M 2834 3397 
L 2834 2853 
Q 2591 2978 2328 3040 
Q 2066 3103 1784 3103 
Q 1356 3103 1142 2972 
Q 928 2841 928 2578 
Q 928 2378 1081 2264 
Q 1234 2150 1697 2047 
L 1894 2003 
Q 2506 1872 2764 1633 
Q 3022 1394 3022 966 
Q 3022 478 2636 193 
Q 2250 -91 1575 -91 
Q 1294 -91 989 -36 
Q 684 19 347 128 
L 347 722 
Q 666 556 975 473 
Q 1284 391 1588 391 
Q 1994 391 2212 530 
Q 2431 669 2431 922 
Q 2431 1156 2273 1281 
Q 2116 1406 1581 1522 
L 1381 1569 
Q 847 1681 609 1914 
Q 372 2147 372 2553 
Q 372 3047 722 3315 
Q 1072 3584 1716 3584 
Q 2034 3584 2315 3537 
Q 2597 3491 2834 3397 
z
" transform="scale(0.015625)"/>
       <path id="DejaVuSans-77" d="M 269 3500 
L 844 3500 
L 1563 769 
L 2278 3500 
L 2956 3500 
L 3675 769 
L 4391 3500 
L 4966 3500 
L 4050 0 
L 3372 0 
L 2619 2869 
L 1863 0 
L 1184 0 
L 269 3500 
z
" transform="scale(0.015625)"/>
       <path id="DejaVuSans-61" d="M 2194 1759 
Q 1497 1759 1228 1600 
Q 959 1441 959 1056 
Q 959 750 1161 570 
Q 1363 391 1709 391 
Q 2188 391 2477 730 
Q 2766 1069 2766 1631 
L 2766 1759 
L 2194 1759 
z
M 3341 1997 
L 3341 0 
L 2766 0 
L 2766 531 
Q 2569 213 2275 61 
Q 1981 -91 1556 -91 
Q 1019 -91 701 211 
Q 384 513 384 1019 
Q 384 1609 779 1909 
Q 1175 2209 1959 2209 
L 2766 2209 
L 2766 2266 
Q 2766 2663 2505 2880 
Q 2244 3097 1772 3097 
Q 1472 3097 1187 3025 
Q 903 2953 641 2809 
L 641 3341 
Q 956 3463 1253 3523 
Q 1550 3584 1831 3584 
Q 2591 3584 2966 3190 
Q 3341 2797 3341 1997 
z
" transform="scale(0.015625)"/>
       <path id="DejaVuSans-70" d="M 1159 525 
L 1159 -1331 
L 581 -1331 
L 581 3500 
L 1159 3500 
L 1159 2969 
Q 1341 3281 1617 3432 
Q 1894 3584 2278 3584 
Q 2916 3584 3314 3078 
Q 3713 2572 3713 1747 
Q 3713 922 3314 415 
Q 2916 -91 2278 -91 
Q 1894 -91 1617 61 
Q 1341 213 1159 525 
z
M 3116 1747 
Q 3116 2381 2855 2742 
Q 2594 3103 2138 3103 
Q 1681 3103 1420 2742 
Q 1159 2381 1159 1747 
Q 1159 1113 1420 752 
Q 1681 391 2138 391 
Q 2594 391 2855 752 
Q 3116 1113 3116 1747 
z
" transform="scale(0.015625)"/>
      </defs>
      <use xlink:href="#DejaVuSans-6e"/>
      <use xlink:href="#DejaVuSans-75" x="63.378906"/>
      <use xlink:href="#DejaVuSans-6d" x="126.757812"/>
      <use xlink:href="#DejaVuSans-20" x="224.169922"/>
      <use xlink:href="#DejaVuSans-73" x="255.957031"/>
      <use xlink:href="#DejaVuSans-77" x="308.056641"/>
      <use xlink:href="#DejaVuSans-61" x="389.84375"/>
      <use xlink:href="#DejaVuSans-70" x="451.123047"/>
      <use xlink:href="#DejaVuSans-73" x="514.599609"/>
     </g>
    </g>
   </g>
   <g id="matplotlib.axis_2">
    <g id="ytick_1">
     <g id="line2d_10">
      <defs>
       <path id="md6bdc16589" d="M 0 0 
L -3.5 0 
" style="stroke: #000000; stroke-width: 0.8"/>
      </defs>
      <g>
       <use xlink:href="#md6bdc16589" x="57.6" y="282.5856" style="stroke: #000000; stroke-width: 0.8"/>
      </g>
     </g>
     <g id="text_11">
      <!-- 430 -->
      <g transform="translate(31.5125 286.384819)scale(0.1 -0.1)">
       <defs>
        <path id="DejaVuSans-33" d="M 2597 2516 
Q 3050 2419 3304 2112 
Q 3559 1806 3559 1356 
Q 3559 666 3084 287 
Q 2609 -91 1734 -91 
Q 1441 -91 1130 -33 
Q 819 25 488 141 
L 488 750 
Q 750 597 1062 519 
Q 1375 441 1716 441 
Q 2309 441 2620 675 
Q 2931 909 2931 1356 
Q 2931 1769 2642 2001 
Q 2353 2234 1838 2234 
L 1294 2234 
L 1294 2753 
L 1863 2753 
Q 2328 2753 2575 2939 
Q 2822 3125 2822 3475 
Q 2822 3834 2567 4026 
Q 2313 4219 1838 4219 
Q 1578 4219 1281 4162 
Q 984 4106 628 3988 
L 628 4550 
Q 988 4650 1302 4700 
Q 1616 4750 1894 4750 
Q 2613 4750 3031 4423 
Q 3450 4097 3450 3541 
Q 3450 3153 3228 2886 
Q 3006 2619 2597 2516 
z
" transform="scale(0.015625)"/>
       </defs>
       <use xlink:href="#DejaVuSans-34"/>
       <use xlink:href="#DejaVuSans-33" x="63.623047"/>
       <use xlink:href="#DejaVuSans-30" x="127.246094"/>
      </g>
     </g>
    </g>
    <g id="ytick_2">
     <g id="line2d_11">
      <g>
       <use xlink:href="#md6bdc16589" x="57.6" y="250.3296" style="stroke: #000000; stroke-width: 0.8"/>
      </g>
     </g>
     <g id="text_12">
      <!-- 440 -->
      <g transform="translate(31.5125 254.128819)scale(0.1 -0.1)">
       <use xlink:href="#DejaVuSans-34"/>
       <use xlink:href="#DejaVuSans-34" x="63.623047"/>
       <use xlink:href="#DejaVuSans-30" x="127.246094"/>
      </g>
     </g>
    </g>
    <g id="ytick_3">
     <g id="line2d_12">
      <g>
       <use xlink:href="#md6bdc16589" x="57.6" y="218.0736" style="stroke: #000000; stroke-width: 0.8"/>
      </g>
     </g>
     <g id="text_13">
      <!-- 450 -->
      <g transform="translate(31.5125 221.872819)scale(0.1 -0.1)">
       <defs>
        <path id="DejaVuSans-35" d="M 691 4666 
L 3169 4666 
L 3169 4134 
L 1269 4134 
L 1269 2991 
Q 1406 3038 1543 3061 
Q 1681 3084 1819 3084 
Q 2600 3084 3056 2656 
Q 3513 2228 3513 1497 
Q 3513 744 3044 326 
Q 2575 -91 1722 -91 
Q 1428 -91 1123 -41 
Q 819 9 494 109 
L 494 744 
Q 775 591 1075 516 
Q 1375 441 1709 441 
Q 2250 441 2565 725 
Q 2881 1009 2881 1497 
Q 2881 1984 2565 2268 
Q 2250 2553 1709 2553 
Q 1456 2553 1204 2497 
Q 953 2441 691 2322 
L 691 4666 
z
" transform="scale(0.015625)"/>
       </defs>
       <use xlink:href="#DejaVuSans-34"/>
       <use xlink:href="#DejaVuSans-35" x="63.623047"/>
       <use xlink:href="#DejaVuSans-30" x="127.246094"/>
      </g>
     </g>
    </g>
    <g id="ytick_4">
     <g id="line2d_13">
      <g>
       <use xlink:href="#md6bdc16589" x="57.6" y="185.8176" style="stroke: #000000; stroke-width: 0.8"/>
      </g>
     </g>
     <g id="text_14">
      <!-- 460 -->
      <g transform="translate(31.5125 189.616819)scale(0.1 -0.1)">
       <use xlink:href="#DejaVuSans-34"/>
       <use xlink:href="#DejaVuSans-36" x="63.623047"/>
       <use xlink:href="#DejaVuSans-30" x="127.246094"/>
      </g>
     </g>
    </g>
    <g id="ytick_5">
     <g id="line2d_14">
      <g>
       <use xlink:href="#md6bdc16589" x="57.6" y="153.5616" style="stroke: #000000; stroke-width: 0.8"/>
      </g>
     </g>
     <g id="text_15">
      <!-- 470 -->
      <g transform="translate(31.5125 157.360819)scale(0.1 -0.1)">
       <defs>
        <path id="DejaVuSans-37" d="M 525 4666 
L 3525 4666 
L 3525 4397 
L 1831 0 
L 1172 0 
L 2766 4134 
L 525 4134 
L 525 4666 
z
" transform="scale(0.015625)"/>
       </defs>
       <use xlink:href="#DejaVuSans-34"/>
       <use xlink:href="#DejaVuSans-37" x="63.623047"/>
       <use xlink:href="#DejaVuSans-30" x="127.246094"/>
      </g>
     </g>
    </g>
    <g id="ytick_6">
     <g id="line2d_15">
      <g>
       <use xlink:href="#md6bdc16589" x="57.6" y="121.3056" style="stroke: #000000; stroke-width: 0.8"/>
      </g>
     </g>
     <g id="text_16">
      <!-- 480 -->
      <g transform="translate(31.5125 125.104819)scale(0.1 -0.1)">
       <use xlink:href="#DejaVuSans-34"/>
       <use xlink:href="#DejaVuSans-38" x="63.623047"/>
       <use xlink:href="#DejaVuSans-30" x="127.246094"/>
      </g>
     </g>
    </g>
    <g id="ytick_7">
     <g id="line2d_16">
      <g>
       <use xlink:href="#md6bdc16589" x="57.6" y="89.0496" style="stroke: #000000; stroke-width: 0.8"/>
      </g>
     </g>
     <g id="text_17">
      <!-- 490 -->
      <g transform="translate(31.5125 92.848819)scale(0.1 -0.1)">
       <defs>
        <path id="DejaVuSans-39" d="M 703 97 
L 703 672 
Q 941 559 1184 500 
Q 1428 441 1663 441 
Q 2288 441 2617 861 
Q 2947 1281 2994 2138 
Q 2813 1869 2534 1725 
Q 2256 1581 1919 1581 
Q 1219 1581 811 2004 
Q 403 2428 403 3163 
Q 403 3881 828 4315 
Q 1253 4750 1959 4750 
Q 2769 4750 3195 4129 
Q 3622 3509 3622 2328 
Q 3622 1225 3098 567 
Q 2575 -91 1691 -91 
Q 1453 -91 1209 -44 
Q 966 3 703 97 
z
M 1959 2075 
Q 2384 2075 2632 2365 
Q 2881 2656 2881 3163 
Q 2881 3666 2632 3958 
Q 2384 4250 1959 4250 
Q 1534 4250 1286 3958 
Q 1038 3666 1038 3163 
Q 1038 2656 1286 2365 
Q 1534 2075 1959 2075 
z
" transform="scale(0.015625)"/>
       </defs>
       <use xlink:href="#DejaVuSans-34"/>
       <use xlink:href="#DejaVuSans-39" x="63.623047"/>
       <use xlink:href="#DejaVuSans-30" x="127.246094"/>
      </g>
     </g>
    </g>
    <g id="ytick_8">
     <g id="line2d_17">
      <g>
       <use xlink:href="#md6bdc16589" x="57.6" y="56.7936" style="stroke: #000000; stroke-width: 0.8"/>
      </g>
     </g>
     <g id="text_18">
      <!-- 500 -->
      <g transform="translate(31.5125 60.592819)scale(0.1 -0.1)">
       <use xlink:href="#DejaVuSans-35"/>
       <use xlink:href="#DejaVuSans-30" x="63.623047"/>
       <use xlink:href="#DejaVuSans-30" x="127.246094"/>
      </g>
     </g>
    </g>
    <g id="text_19">
     <!-- total cost -->
     <g transform="translate(25.432812 197.923313)rotate(-90)scale(0.1 -0.1)">
      <defs>
       <path id="DejaVuSans-74" d="M 1172 4494 
L 1172 3500 
L 2356 3500 
L 2356 3053 
L 1172 3053 
L 1172 1153 
Q 1172 725 1289 603 
Q 1406 481 1766 481 
L 2356 481 
L 2356 0 
L 1766 0 
Q 1100 0 847 248 
Q 594 497 594 1153 
L 594 3053 
L 172 3053 
L 172 3500 
L 594 3500 
L 594 4494 
L 1172 4494 
z
" transform="scale(0.015625)"/>
       <path id="DejaVuSans-6f" d="M 1959 3097 
Q 1497 3097 1228 2736 
Q 959 2375 959 1747 
Q 959 1119 1226 758 
Q 1494 397 1959 397 
Q 2419 397 2687 759 
Q 2956 1122 2956 1747 
Q 2956 2369 2687 2733 
Q 2419 3097 1959 3097 
z
M 1959 3584 
Q 2709 3584 3137 3096 
Q 3566 2609 3566 1747 
Q 3566 888 3137 398 
Q 2709 -91 1959 -91 
Q 1206 -91 779 398 
Q 353 888 353 1747 
Q 353 2609 779 3096 
Q 1206 3584 1959 3584 
z
" transform="scale(0.015625)"/>
       <path id="DejaVuSans-6c" d="M 603 4863 
L 1178 4863 
L 1178 0 
L 603 0 
L 603 4863 
z
" transform="scale(0.015625)"/>
       <path id="DejaVuSans-63" d="M 3122 3366 
L 3122 2828 
Q 2878 2963 2633 3030 
Q 2388 3097 2138 3097 
Q 1578 3097 1268 2742 
Q 959 2388 959 1747 
Q 959 1106 1268 751 
Q 1578 397 2138 397 
Q 2388 397 2633 464 
Q 2878 531 3122 666 
L 3122 134 
Q 2881 22 2623 -34 
Q 2366 -91 2075 -91 
Q 1284 -91 818 406 
Q 353 903 353 1747 
Q 353 2603 823 3093 
Q 1294 3584 2113 3584 
Q 2378 3584 2631 3529 
Q 2884 3475 3122 3366 
z
" transform="scale(0.015625)"/>
      </defs>
      <use xlink:href="#DejaVuSans-74"/>
      <use xlink:href="#DejaVuSans-6f" x="39.208984"/>
      <use xlink:href="#DejaVuSans-74" x="100.390625"/>
      <use xlink:href="#DejaVuSans-61" x="139.599609"/>
      <use xlink:href="#DejaVuSans-6c" x="200.878906"/>
      <use xlink:href="#DejaVuSans-20" x="228.662109"/>
      <use xlink:href="#DejaVuSans-63" x="260.449219"/>
      <use xlink:href="#DejaVuSans-6f" x="315.429688"/>
      <use xlink:href="#DejaVuSans-73" x="376.611328"/>
      <use xlink:href="#DejaVuSans-74" x="428.710938"/>
     </g>
    </g>
   </g>
   <g id="line2d_18">
    <path d="M 73.832727 118.08 
L 74.246827 105.1776 
L 74.660928 108.4032 
L 75.075028 118.08 
L 75.489128 53.568 
L 75.903228 63.2448 
L 76.317328 82.5984 
L 76.731429 92.2752 
L 77.145529 85.824 
L 77.559629 95.5008 
L 77.973729 82.5984 
L 78.387829 98.7264 
L 78.801929 85.824 
L 79.63013 79.3728 
L 80.45833 101.952 
L 81.286531 160.0128 
L 81.700631 172.9152 
L 82.114731 179.3664 
L 82.942931 150.336 
L 83.357032 147.1104 
L 83.771132 134.208 
L 84.185232 140.6592 
L 84.599332 160.0128 
L 85.013432 163.2384 
L 85.427532 172.9152 
L 85.841633 179.3664 
L 86.255733 163.2384 
L 86.669833 121.3056 
L 87.083933 101.952 
L 87.498033 114.8544 
L 87.912134 134.208 
L 88.326234 143.8848 
L 88.740334 147.1104 
L 89.154434 140.6592 
L 89.568534 130.9824 
L 89.982635 114.8544 
L 90.396735 121.3056 
L 90.810835 124.5312 
L 91.224935 121.3056 
L 91.639035 111.6288 
L 92.053135 98.7264 
L 92.467236 98.7264 
L 92.881336 79.3728 
L 93.295436 89.0496 
L 93.709536 95.5008 
L 94.123636 111.6288 
L 94.537737 121.3056 
L 94.951837 147.1104 
L 95.365937 182.592 
L 95.780037 189.0432 
L 96.194137 205.1712 
L 96.608237 208.3968 
L 97.022338 227.7504 
L 97.436438 237.4272 
L 98.678738 218.0736 
L 99.506939 237.4272 
L 99.921039 243.8784 
L 100.335139 221.2992 
L 100.749239 208.3968 
L 101.16334 201.9456 
L 101.57744 214.848 
L 101.99154 176.1408 
L 102.40564 169.6896 
L 102.81974 160.0128 
L 103.23384 169.6896 
L 103.647941 140.6592 
L 104.062041 150.336 
L 104.476141 143.8848 
L 104.890241 192.2688 
L 105.304341 185.8176 
L 105.718442 189.0432 
L 106.132542 176.1408 
L 106.546642 179.3664 
L 106.960742 163.2384 
L 107.374842 118.08 
L 107.788942 124.5312 
L 108.203043 137.4336 
L 108.617143 143.8848 
L 109.031243 166.464 
L 109.445343 160.0128 
L 109.859443 166.464 
L 110.273544 163.2384 
L 110.687644 147.1104 
L 111.101744 143.8848 
L 111.515844 130.9824 
L 111.929944 111.6288 
L 112.344045 108.4032 
L 112.758145 114.8544 
L 113.172245 108.4032 
L 113.586345 130.9824 
L 114.000445 124.5312 
L 114.414545 114.8544 
L 114.828646 118.08 
L 115.242746 114.8544 
L 115.656846 130.9824 
L 116.070946 160.0128 
L 116.485046 150.336 
L 117.313247 121.3056 
L 117.727347 150.336 
L 118.141447 160.0128 
L 118.969647 195.4944 
L 119.383748 198.72 
L 119.797848 230.976 
L 120.211948 247.104 
L 120.626048 250.3296 
L 121.040148 224.5248 
L 121.454249 243.8784 
L 121.868349 224.5248 
L 122.282449 192.2688 
L 122.696549 189.0432 
L 123.110649 189.0432 
L 123.52475 227.7504 
L 123.93885 247.104 
L 124.35295 253.5552 
L 124.76705 224.5248 
L 125.18115 221.2992 
L 125.59525 214.848 
L 126.009351 201.9456 
L 126.423451 198.72 
L 126.837551 192.2688 
L 127.251651 211.6224 
L 127.665751 201.9456 
L 128.079852 237.4272 
L 128.493952 240.6528 
L 129.322152 189.0432 
L 129.736252 185.8176 
L 130.150353 147.1104 
L 130.564453 140.6592 
L 130.978553 147.1104 
L 131.392653 147.1104 
L 131.806753 137.4336 
L 132.220853 105.1776 
L 132.634954 95.5008 
L 133.049054 101.952 
L 133.463154 92.2752 
L 133.877254 98.7264 
L 134.291354 111.6288 
L 134.705455 130.9824 
L 135.119555 130.9824 
L 135.533655 160.0128 
L 135.947755 179.3664 
L 136.361855 185.8176 
L 136.775955 176.1408 
L 137.190056 189.0432 
L 137.604156 189.0432 
L 138.018256 169.6896 
L 138.432356 189.0432 
L 138.846456 201.9456 
L 139.260557 201.9456 
L 139.674657 224.5248 
L 140.088757 227.7504 
L 140.916957 256.7808 
L 141.745158 295.488 
L 142.987458 243.8784 
L 143.401558 221.2992 
L 143.815659 185.8176 
L 144.229759 169.6896 
L 144.643859 163.2384 
L 145.472059 124.5312 
L 145.88616 143.8848 
L 146.30026 137.4336 
L 146.71436 121.3056 
L 147.12846 114.8544 
L 147.54256 98.7264 
L 147.95666 76.1472 
L 148.370761 101.952 
L 148.784861 101.952 
L 149.198961 105.1776 
L 149.613061 79.3728 
L 150.027161 66.4704 
L 150.441262 82.5984 
L 150.855362 134.208 
L 151.269462 134.208 
L 151.683562 137.4336 
L 152.097662 130.9824 
L 152.511763 153.5616 
L 152.925863 160.0128 
L 153.339963 169.6896 
L 153.754063 163.2384 
L 154.168163 160.0128 
L 154.582263 189.0432 
L 154.996364 192.2688 
L 155.410464 172.9152 
L 155.824564 185.8176 
L 156.238664 192.2688 
L 156.652764 195.4944 
L 157.066865 214.848 
L 157.480965 250.3296 
L 157.895065 266.4576 
L 158.309165 266.4576 
L 159.137365 260.0064 
L 159.551466 234.2016 
L 159.965566 247.104 
L 160.379666 253.5552 
L 161.207866 218.0736 
L 161.621967 195.4944 
L 162.036067 156.7872 
L 162.450167 150.336 
L 162.864267 134.208 
L 163.278367 166.464 
L 163.692468 169.6896 
L 164.106568 143.8848 
L 164.520668 166.464 
L 164.934768 218.0736 
L 165.348868 182.592 
L 165.762968 208.3968 
L 166.177069 179.3664 
L 166.591169 160.0128 
L 167.005269 176.1408 
L 167.419369 185.8176 
L 167.833469 153.5616 
L 168.24757 147.1104 
L 168.66167 163.2384 
L 169.07577 143.8848 
L 169.48987 172.9152 
L 169.90397 160.0128 
L 170.318071 153.5616 
L 170.732171 208.3968 
L 171.146271 189.0432 
L 171.560371 192.2688 
L 171.974471 185.8176 
L 172.388571 143.8848 
L 172.802672 179.3664 
L 173.216772 172.9152 
L 173.630872 153.5616 
L 174.459072 201.9456 
L 175.287273 237.4272 
L 175.701373 240.6528 
L 176.115473 237.4272 
L 176.529573 224.5248 
L 176.943673 227.7504 
L 177.357774 227.7504 
L 177.771874 205.1712 
L 178.185974 195.4944 
L 178.600074 218.0736 
L 179.014174 230.976 
L 179.428275 227.7504 
L 179.842375 250.3296 
L 180.256475 243.8784 
L 181.084675 198.72 
L 181.912876 192.2688 
L 182.326976 195.4944 
L 183.155176 176.1408 
L 183.569276 185.8176 
L 184.397477 166.464 
L 184.811577 176.1408 
L 185.225677 163.2384 
L 185.639777 163.2384 
L 186.053878 156.7872 
L 186.467978 182.592 
L 186.882078 169.6896 
L 187.296178 182.592 
L 187.710278 179.3664 
L 188.124378 195.4944 
L 188.538479 172.9152 
L 189.366679 143.8848 
L 189.780779 140.6592 
L 190.194879 163.2384 
L 190.60898 134.208 
L 191.02308 130.9824 
L 191.43718 134.208 
L 191.85128 176.1408 
L 192.26538 192.2688 
L 192.679481 195.4944 
L 193.093581 201.9456 
L 193.507681 201.9456 
L 193.921781 169.6896 
L 194.335881 182.592 
L 194.749981 185.8176 
L 195.164082 172.9152 
L 195.578182 153.5616 
L 195.992282 163.2384 
L 196.406382 176.1408 
L 196.820482 182.592 
L 197.234583 237.4272 
L 197.648683 185.8176 
L 198.062783 214.848 
L 198.476883 214.848 
L 198.890983 218.0736 
L 199.305083 218.0736 
L 199.719184 224.5248 
L 200.133284 256.7808 
L 200.547384 269.6832 
L 200.961484 253.5552 
L 201.375584 250.3296 
L 201.789685 227.7504 
L 202.203785 230.976 
L 202.617885 214.848 
L 203.031985 243.8784 
L 203.446085 218.0736 
L 203.860186 214.848 
L 204.274286 198.72 
L 204.688386 192.2688 
L 205.516586 166.464 
L 206.344787 195.4944 
L 206.758887 198.72 
L 207.172987 227.7504 
L 207.587087 214.848 
L 208.001187 214.848 
L 208.415288 224.5248 
L 208.829388 169.6896 
L 209.243488 150.336 
L 209.657588 143.8848 
L 210.071688 127.7568 
L 210.485788 121.3056 
L 210.899889 143.8848 
L 211.728089 166.464 
L 212.142189 166.464 
L 212.556289 179.3664 
L 212.97039 179.3664 
L 213.38449 208.3968 
L 213.79859 205.1712 
L 214.62679 156.7872 
L 215.040891 172.9152 
L 215.454991 156.7872 
L 215.869091 124.5312 
L 216.283191 130.9824 
L 216.697291 114.8544 
L 217.111391 118.08 
L 217.525492 108.4032 
L 217.939592 72.9216 
L 218.353692 66.4704 
L 218.767792 63.2448 
L 219.181892 105.1776 
L 219.595993 89.0496 
L 220.010093 89.0496 
L 220.424193 92.2752 
L 220.838293 98.7264 
L 221.252393 95.5008 
L 221.666494 98.7264 
L 222.080594 124.5312 
L 222.494694 140.6592 
L 223.322894 127.7568 
L 223.736994 143.8848 
L 224.151095 137.4336 
L 224.565195 121.3056 
L 224.979295 118.08 
L 225.393395 92.2752 
L 225.807495 127.7568 
L 226.221596 127.7568 
L 226.635696 121.3056 
L 227.049796 118.08 
L 227.463896 121.3056 
L 227.877996 143.8848 
L 228.292096 137.4336 
L 228.706197 134.208 
L 229.120297 147.1104 
L 229.534397 195.4944 
L 230.362597 218.0736 
L 230.776698 211.6224 
L 231.190798 211.6224 
L 231.604898 218.0736 
L 232.018998 208.3968 
L 232.433098 214.848 
L 232.847199 214.848 
L 233.261299 234.2016 
L 233.675399 205.1712 
L 234.089499 198.72 
L 234.503599 205.1712 
L 234.917699 201.9456 
L 235.3318 182.592 
L 235.7459 182.592 
L 236.16 176.1408 
L 236.5741 182.592 
L 236.9882 198.72 
L 237.402301 182.592 
L 237.816401 172.9152 
L 238.230501 172.9152 
L 238.644601 176.1408 
L 239.058701 201.9456 
L 239.472801 176.1408 
L 239.886902 172.9152 
L 240.301002 179.3664 
L 240.715102 208.3968 
L 241.129202 221.2992 
L 242.785603 208.3968 
L 243.199703 201.9456 
L 243.613803 189.0432 
L 244.027904 150.336 
L 244.442004 156.7872 
L 244.856104 182.592 
L 245.270204 176.1408 
L 245.684304 189.0432 
L 246.098404 182.592 
L 246.512505 185.8176 
L 246.926605 172.9152 
L 247.340705 176.1408 
L 247.754805 195.4944 
L 248.583006 182.592 
L 248.997106 169.6896 
L 249.411206 176.1408 
L 249.825306 189.0432 
L 250.239406 192.2688 
L 250.653506 208.3968 
L 251.067607 198.72 
L 251.895807 169.6896 
L 252.309907 172.9152 
L 253.552208 230.976 
L 253.966308 218.0736 
L 254.380408 230.976 
L 254.794508 198.72 
L 255.208609 208.3968 
L 255.622709 221.2992 
L 256.036809 211.6224 
L 256.450909 192.2688 
L 256.865009 198.72 
L 257.279109 127.7568 
L 257.69321 134.208 
L 258.10731 130.9824 
L 258.93551 153.5616 
L 259.34961 163.2384 
L 259.763711 137.4336 
L 260.177811 147.1104 
L 260.591911 130.9824 
L 261.006011 127.7568 
L 261.834212 150.336 
L 262.248312 147.1104 
L 262.662412 169.6896 
L 263.076512 156.7872 
L 263.490612 163.2384 
L 263.904712 182.592 
L 264.318813 166.464 
L 264.732913 166.464 
L 265.147013 153.5616 
L 265.561113 150.336 
L 265.975213 130.9824 
L 266.389314 124.5312 
L 266.803414 127.7568 
L 267.217514 137.4336 
L 267.631614 130.9824 
L 268.045714 153.5616 
L 268.459814 150.336 
L 269.288015 156.7872 
L 269.702115 147.1104 
L 270.116215 147.1104 
L 270.530315 143.8848 
L 270.944416 156.7872 
L 271.358516 137.4336 
L 271.772616 137.4336 
L 272.186716 156.7872 
L 273.014917 127.7568 
L 273.429017 137.4336 
L 273.843117 150.336 
L 274.257217 89.0496 
L 274.671317 79.3728 
L 275.085417 66.4704 
L 275.499518 82.5984 
L 275.913618 89.0496 
L 276.327718 72.9216 
L 276.741818 79.3728 
L 277.570019 101.952 
L 277.984119 72.9216 
L 278.398219 82.5984 
L 278.812319 95.5008 
L 279.226419 60.0192 
L 279.640519 79.3728 
L 280.05462 60.0192 
L 280.46872 76.1472 
L 280.88282 60.0192 
L 281.29692 82.5984 
L 281.71102 98.7264 
L 282.953321 179.3664 
L 283.367421 169.6896 
L 283.781521 182.592 
L 284.609722 160.0128 
L 285.023822 218.0736 
L 285.437922 227.7504 
L 285.852022 214.848 
L 286.266122 224.5248 
L 286.680223 218.0736 
L 287.094323 224.5248 
L 287.508423 227.7504 
L 288.336623 263.232 
L 288.750724 224.5248 
L 289.164824 247.104 
L 289.578924 234.2016 
L 289.993024 208.3968 
L 290.407124 211.6224 
L 290.821224 234.2016 
L 291.235325 240.6528 
L 291.649425 234.2016 
L 292.063525 247.104 
L 292.891725 234.2016 
L 293.305826 201.9456 
L 293.719926 205.1712 
L 294.134026 205.1712 
L 294.548126 208.3968 
L 294.962226 234.2016 
L 295.376327 227.7504 
L 295.790427 224.5248 
L 296.204527 250.3296 
L 296.618627 260.0064 
L 297.446827 247.104 
L 297.860928 263.232 
L 298.275028 269.6832 
L 298.689128 247.104 
L 299.103228 234.2016 
L 299.517328 234.2016 
L 299.931429 247.104 
L 300.345529 247.104 
L 300.759629 260.0064 
L 301.173729 247.104 
L 301.587829 247.104 
L 302.001929 224.5248 
L 302.41603 230.976 
L 302.83013 218.0736 
L 303.24423 211.6224 
L 303.65833 192.2688 
L 304.486531 169.6896 
L 304.900631 163.2384 
L 305.314731 166.464 
L 305.728831 134.208 
L 306.142931 134.208 
L 306.557032 185.8176 
L 306.971132 205.1712 
L 307.799332 205.1712 
L 308.213432 185.8176 
L 308.627532 227.7504 
L 309.041633 230.976 
L 309.455733 247.104 
L 309.869833 243.8784 
L 310.283933 214.848 
L 310.698033 201.9456 
L 311.112134 230.976 
L 311.526234 243.8784 
L 311.940334 276.1344 
L 312.354434 260.0064 
L 312.768534 269.6832 
L 313.182635 256.7808 
L 313.596735 263.232 
L 314.010835 263.232 
L 314.424935 247.104 
L 314.839035 253.5552 
L 315.253135 263.232 
L 315.667236 266.4576 
L 316.081336 272.9088 
L 316.909536 227.7504 
L 317.323636 224.5248 
L 317.737737 208.3968 
L 318.151837 179.3664 
L 318.565937 205.1712 
L 318.980037 211.6224 
L 319.394137 205.1712 
L 319.808237 179.3664 
L 320.222338 169.6896 
L 320.636438 192.2688 
L 321.050538 160.0128 
L 321.464638 172.9152 
L 321.878738 179.3664 
L 322.292839 195.4944 
L 322.706939 176.1408 
L 323.121039 166.464 
L 323.535139 169.6896 
L 323.949239 201.9456 
L 324.36334 130.9824 
L 324.77744 150.336 
L 325.19154 163.2384 
L 325.60564 143.8848 
L 326.01974 140.6592 
L 326.43384 156.7872 
L 326.847941 166.464 
L 327.262041 153.5616 
L 328.090241 166.464 
L 328.504341 189.0432 
L 329.332542 182.592 
L 330.574842 127.7568 
L 330.988942 114.8544 
L 331.403043 127.7568 
L 331.817143 130.9824 
L 332.231243 137.4336 
L 332.645343 137.4336 
L 333.059443 153.5616 
L 333.473544 150.336 
L 334.301744 127.7568 
L 334.715844 121.3056 
L 335.129944 105.1776 
L 335.544045 124.5312 
L 335.958145 127.7568 
L 336.372245 134.208 
L 336.786345 127.7568 
L 337.614545 169.6896 
L 338.028646 150.336 
L 338.856846 182.592 
L 339.685046 201.9456 
L 340.099147 208.3968 
L 340.513247 243.8784 
L 340.927347 221.2992 
L 341.341447 208.3968 
L 341.755547 221.2992 
L 342.169647 218.0736 
L 342.583748 227.7504 
L 342.997848 201.9456 
L 344.240148 156.7872 
L 344.654249 163.2384 
L 345.068349 166.464 
L 345.482449 130.9824 
L 345.896549 127.7568 
L 346.310649 130.9824 
L 346.72475 130.9824 
L 347.13885 124.5312 
L 347.55295 127.7568 
L 348.38115 172.9152 
L 348.79525 195.4944 
L 349.209351 182.592 
L 349.623451 179.3664 
L 350.037551 169.6896 
L 350.451651 150.336 
L 350.865751 140.6592 
L 351.279852 134.208 
L 352.108052 169.6896 
L 352.522152 140.6592 
L 352.936252 101.952 
L 353.350353 124.5312 
L 353.764453 118.08 
L 354.178553 127.7568 
L 354.592653 147.1104 
L 355.006753 140.6592 
L 355.420853 124.5312 
L 355.834954 127.7568 
L 356.249054 98.7264 
L 356.663154 98.7264 
L 357.077254 108.4032 
L 357.491354 105.1776 
L 357.905455 105.1776 
L 358.319555 101.952 
L 358.733655 118.08 
L 359.147755 121.3056 
L 359.561855 140.6592 
L 359.975955 140.6592 
L 360.804156 163.2384 
L 361.218256 153.5616 
L 361.632356 192.2688 
L 362.046456 211.6224 
L 362.460557 214.848 
L 362.874657 201.9456 
L 363.288757 195.4944 
L 363.702857 195.4944 
L 364.116957 211.6224 
L 364.531058 185.8176 
L 364.945158 179.3664 
L 365.359258 195.4944 
L 365.773358 179.3664 
L 366.187458 172.9152 
L 366.601558 185.8176 
L 367.429759 160.0128 
L 367.843859 160.0128 
L 368.257959 208.3968 
L 368.672059 230.976 
L 369.08616 237.4272 
L 369.50026 253.5552 
L 369.91436 250.3296 
L 370.32846 240.6528 
L 370.74256 211.6224 
L 371.15666 214.848 
L 371.570761 205.1712 
L 371.984861 182.592 
L 372.398961 189.0432 
L 373.227161 156.7872 
L 373.641262 160.0128 
L 374.055362 137.4336 
L 374.469462 156.7872 
L 375.297662 176.1408 
L 375.711763 176.1408 
L 376.125863 160.0128 
L 376.539963 179.3664 
L 376.954063 192.2688 
L 377.368163 192.2688 
L 377.782263 211.6224 
L 378.196364 179.3664 
L 378.610464 198.72 
L 379.024564 208.3968 
L 379.438664 208.3968 
L 379.852764 227.7504 
L 380.266865 237.4272 
L 380.680965 230.976 
L 381.095065 201.9456 
L 381.509165 198.72 
L 381.923265 218.0736 
L 382.337365 205.1712 
L 382.751466 182.592 
L 383.165566 176.1408 
L 383.993766 176.1408 
L 384.407866 121.3056 
L 384.821967 134.208 
L 385.236067 127.7568 
L 385.650167 134.208 
L 386.064267 147.1104 
L 386.478367 153.5616 
L 386.892468 172.9152 
L 387.306568 172.9152 
L 387.720668 195.4944 
L 388.134768 169.6896 
L 388.548868 169.6896 
L 388.962968 166.464 
L 389.377069 189.0432 
L 389.791169 189.0432 
L 390.205269 172.9152 
L 391.033469 224.5248 
L 391.44757 205.1712 
L 391.86167 192.2688 
L 392.27577 201.9456 
L 392.68987 201.9456 
L 393.10397 208.3968 
L 393.518071 230.976 
L 393.932171 205.1712 
L 394.346271 201.9456 
L 395.174471 201.9456 
L 395.588571 205.1712 
L 396.002672 169.6896 
L 396.416772 185.8176 
L 397.244972 198.72 
L 397.659072 192.2688 
L 398.073173 195.4944 
L 398.487273 205.1712 
L 398.487273 205.1712 
" clip-path="url(#pfc1ca3cc89)" style="fill: none; stroke: #1f77b4; stroke-width: 1.5; stroke-linecap: square"/>
   </g>
   <g id="patch_3">
    <path d="M 57.6 307.584 
L 57.6 41.472 
" style="fill: none; stroke: #000000; stroke-width: 0.8; stroke-linejoin: miter; stroke-linecap: square"/>
   </g>
   <g id="patch_4">
    <path d="M 414.72 307.584 
L 414.72 41.472 
" style="fill: none; stroke: #000000; stroke-width: 0.8; stroke-linejoin: miter; stroke-linecap: square"/>
   </g>
   <g id="patch_5">
    <path d="M 57.6 307.584 
L 414.72 307.584 
" style="fill: none; stroke: #000000; stroke-width: 0.8; stroke-linejoin: miter; stroke-linecap: square"/>
   </g>
   <g id="patch_6">
    <path d="M 57.6 41.472 
L 414.72 41.472 
" style="fill: none; stroke: #000000; stroke-width: 0.8; stroke-linejoin: miter; stroke-linecap: square"/>
   </g>
   <g id="text_20">
    <!-- Simulated Anealling Cost -->
    <g transform="translate(160.8 35.472)scale(0.12 -0.12)">
     <defs>
      <path id="DejaVuSans-53" d="M 3425 4513 
L 3425 3897 
Q 3066 4069 2747 4153 
Q 2428 4238 2131 4238 
Q 1616 4238 1336 4038 
Q 1056 3838 1056 3469 
Q 1056 3159 1242 3001 
Q 1428 2844 1947 2747 
L 2328 2669 
Q 3034 2534 3370 2195 
Q 3706 1856 3706 1288 
Q 3706 609 3251 259 
Q 2797 -91 1919 -91 
Q 1588 -91 1214 -16 
Q 841 59 441 206 
L 441 856 
Q 825 641 1194 531 
Q 1563 422 1919 422 
Q 2459 422 2753 634 
Q 3047 847 3047 1241 
Q 3047 1584 2836 1778 
Q 2625 1972 2144 2069 
L 1759 2144 
Q 1053 2284 737 2584 
Q 422 2884 422 3419 
Q 422 4038 858 4394 
Q 1294 4750 2059 4750 
Q 2388 4750 2728 4690 
Q 3069 4631 3425 4513 
z
" transform="scale(0.015625)"/>
      <path id="DejaVuSans-69" d="M 603 3500 
L 1178 3500 
L 1178 0 
L 603 0 
L 603 3500 
z
M 603 4863 
L 1178 4863 
L 1178 4134 
L 603 4134 
L 603 4863 
z
" transform="scale(0.015625)"/>
      <path id="DejaVuSans-65" d="M 3597 1894 
L 3597 1613 
L 953 1613 
Q 991 1019 1311 708 
Q 1631 397 2203 397 
Q 2534 397 2845 478 
Q 3156 559 3463 722 
L 3463 178 
Q 3153 47 2828 -22 
Q 2503 -91 2169 -91 
Q 1331 -91 842 396 
Q 353 884 353 1716 
Q 353 2575 817 3079 
Q 1281 3584 2069 3584 
Q 2775 3584 3186 3129 
Q 3597 2675 3597 1894 
z
M 3022 2063 
Q 3016 2534 2758 2815 
Q 2500 3097 2075 3097 
Q 1594 3097 1305 2825 
Q 1016 2553 972 2059 
L 3022 2063 
z
" transform="scale(0.015625)"/>
      <path id="DejaVuSans-64" d="M 2906 2969 
L 2906 4863 
L 3481 4863 
L 3481 0 
L 2906 0 
L 2906 525 
Q 2725 213 2448 61 
Q 2172 -91 1784 -91 
Q 1150 -91 751 415 
Q 353 922 353 1747 
Q 353 2572 751 3078 
Q 1150 3584 1784 3584 
Q 2172 3584 2448 3432 
Q 2725 3281 2906 2969 
z
M 947 1747 
Q 947 1113 1208 752 
Q 1469 391 1925 391 
Q 2381 391 2643 752 
Q 2906 1113 2906 1747 
Q 2906 2381 2643 2742 
Q 2381 3103 1925 3103 
Q 1469 3103 1208 2742 
Q 947 2381 947 1747 
z
" transform="scale(0.015625)"/>
      <path id="DejaVuSans-41" d="M 2188 4044 
L 1331 1722 
L 3047 1722 
L 2188 4044 
z
M 1831 4666 
L 2547 4666 
L 4325 0 
L 3669 0 
L 3244 1197 
L 1141 1197 
L 716 0 
L 50 0 
L 1831 4666 
z
" transform="scale(0.015625)"/>
      <path id="DejaVuSans-67" d="M 2906 1791 
Q 2906 2416 2648 2759 
Q 2391 3103 1925 3103 
Q 1463 3103 1205 2759 
Q 947 2416 947 1791 
Q 947 1169 1205 825 
Q 1463 481 1925 481 
Q 2391 481 2648 825 
Q 2906 1169 2906 1791 
z
M 3481 434 
Q 3481 -459 3084 -895 
Q 2688 -1331 1869 -1331 
Q 1566 -1331 1297 -1286 
Q 1028 -1241 775 -1147 
L 775 -588 
Q 1028 -725 1275 -790 
Q 1522 -856 1778 -856 
Q 2344 -856 2625 -561 
Q 2906 -266 2906 331 
L 2906 616 
Q 2728 306 2450 153 
Q 2172 0 1784 0 
Q 1141 0 747 490 
Q 353 981 353 1791 
Q 353 2603 747 3093 
Q 1141 3584 1784 3584 
Q 2172 3584 2450 3431 
Q 2728 3278 2906 2969 
L 2906 3500 
L 3481 3500 
L 3481 434 
z
" transform="scale(0.015625)"/>
      <path id="DejaVuSans-43" d="M 4122 4306 
L 4122 3641 
Q 3803 3938 3442 4084 
Q 3081 4231 2675 4231 
Q 1875 4231 1450 3742 
Q 1025 3253 1025 2328 
Q 1025 1406 1450 917 
Q 1875 428 2675 428 
Q 3081 428 3442 575 
Q 3803 722 4122 1019 
L 4122 359 
Q 3791 134 3420 21 
Q 3050 -91 2638 -91 
Q 1578 -91 968 557 
Q 359 1206 359 2328 
Q 359 3453 968 4101 
Q 1578 4750 2638 4750 
Q 3056 4750 3426 4639 
Q 3797 4528 4122 4306 
z
" transform="scale(0.015625)"/>
     </defs>
     <use xlink:href="#DejaVuSans-53"/>
     <use xlink:href="#DejaVuSans-69" x="63.476562"/>
     <use xlink:href="#DejaVuSans-6d" x="91.259766"/>
     <use xlink:href="#DejaVuSans-75" x="188.671875"/>
     <use xlink:href="#DejaVuSans-6c" x="252.050781"/>
     <use xlink:href="#DejaVuSans-61" x="279.833984"/>
     <use xlink:href="#DejaVuSans-74" x="341.113281"/>
     <use xlink:href="#DejaVuSans-65" x="380.322266"/>
     <use xlink:href="#DejaVuSans-64" x="441.845703"/>
     <use xlink:href="#DejaVuSans-20" x="505.322266"/>
     <use xlink:href="#DejaVuSans-41" x="537.109375"/>
     <use xlink:href="#DejaVuSans-6e" x="605.517578"/>
     <use xlink:href="#DejaVuSans-65" x="668.896484"/>
     <use xlink:href="#DejaVuSans-61" x="730.419922"/>
     <use xlink:href="#DejaVuSans-6c" x="791.699219"/>
     <use xlink:href="#DejaVuSans-6c" x="819.482422"/>
     <use xlink:href="#DejaVuSans-69" x="847.265625"/>
     <use xlink:href="#DejaVuSans-6e" x="875.048828"/>
     <use xlink:href="#DejaVuSans-67" x="938.427734"/>
     <use xlink:href="#DejaVuSans-20" x="1001.904297"/>
     <use xlink:href="#DejaVuSans-43" x="1033.691406"/>
     <use xlink:href="#DejaVuSans-6f" x="1103.515625"/>
     <use xlink:href="#DejaVuSans-73" x="1164.697266"/>
     <use xlink:href="#DejaVuSans-74" x="1216.796875"/>
    </g>
   </g>
  </g>
 </g>
 <defs>
  <clipPath id="pfc1ca3cc89">
   <rect x="57.6" y="41.472" width="357.12" height="266.112"/>
  </clipPath>
 </defs>
</svg>
