<?xml version="1.0" encoding="utf-8" standalone="no"?>
<!DOCTYPE svg PUBLIC "-//W3C//DTD SVG 1.1//EN"
  "http://www.w3.org/Graphics/SVG/1.1/DTD/svg11.dtd">
<svg xmlns:xlink="http://www.w3.org/1999/xlink" width="460.8pt" height="345.6pt" viewBox="0 0 460.8 345.6" xmlns="http://www.w3.org/2000/svg" version="1.1">
 <metadata>
  <rdf:RDF xmlns:dc="http://purl.org/dc/elements/1.1/" xmlns:cc="http://creativecommons.org/ns#" xmlns:rdf="http://www.w3.org/1999/02/22-rdf-syntax-ns#">
   <cc:Work>
    <dc:type rdf:resource="http://purl.org/dc/dcmitype/StillImage"/>
    <dc:date>2022-06-01T08:05:37.048765</dc:date>
    <dc:format>image/svg+xml</dc:format>
    <dc:creator>
     <cc:Agent>
      <dc:title>Matplotlib v3.5.1, https://matplotlib.org/</dc:title>
     </cc:Agent>
    </dc:creator>
   </cc:Work>
  </rdf:RDF>
 </metadata>
 <defs>
  <style type="text/css">*{stroke-linejoin: round; stroke-linecap: butt}</style>
 </defs>
 <g id="figure_1">
  <g id="patch_1">
   <path d="M 0 345.6 
L 460.8 345.6 
L 460.8 0 
L 0 0 
z
" style="fill: #ffffff"/>
  </g>
  <g id="axes_1">
   <g id="patch_2">
    <path d="M 57.6 307.584 
L 414.72 307.584 
L 414.72 41.472 
L 57.6 41.472 
z
" style="fill: #ffffff"/>
   </g>
   <g id="matplotlib.axis_1">
    <g id="xtick_1">
     <g id="line2d_1">
      <defs>
       <path id="m3829a16a23" d="M 0 0 
L 0 3.5 
" style="stroke: #000000; stroke-width: 0.8"/>
      </defs>
      <g>
       <use xlink:href="#m3829a16a23" x="73.832727" y="307.584" style="stroke: #000000; stroke-width: 0.8"/>
      </g>
     </g>
     <g id="text_1">
      <!-- 0 -->
      <g transform="translate(70.651477 322.182437)scale(0.1 -0.1)">
       <defs>
        <path id="DejaVuSans-30" d="M 2034 4250 
Q 1547 4250 1301 3770 
Q 1056 3291 1056 2328 
Q 1056 1369 1301 889 
Q 1547 409 2034 409 
Q 2525 409 2770 889 
Q 3016 1369 3016 2328 
Q 3016 3291 2770 3770 
Q 2525 4250 2034 4250 
z
M 2034 4750 
Q 2819 4750 3233 4129 
Q 3647 3509 3647 2328 
Q 3647 1150 3233 529 
Q 2819 -91 2034 -91 
Q 1250 -91 836 529 
Q 422 1150 422 2328 
Q 422 3509 836 4129 
Q 1250 4750 2034 4750 
z
" transform="scale(0.015625)"/>
       </defs>
       <use xlink:href="#DejaVuSans-30"/>
      </g>
     </g>
    </g>
    <g id="xtick_2">
     <g id="line2d_2">
      <g>
       <use xlink:href="#m3829a16a23" x="116.326778" y="307.584" style="stroke: #000000; stroke-width: 0.8"/>
      </g>
     </g>
     <g id="text_2">
      <!-- 200 -->
      <g transform="translate(106.783028 322.182437)scale(0.1 -0.1)">
       <defs>
        <path id="DejaVuSans-32" d="M 1228 531 
L 3431 531 
L 3431 0 
L 469 0 
L 469 531 
Q 828 903 1448 1529 
Q 2069 2156 2228 2338 
Q 2531 2678 2651 2914 
Q 2772 3150 2772 3378 
Q 2772 3750 2511 3984 
Q 2250 4219 1831 4219 
Q 1534 4219 1204 4116 
Q 875 4013 500 3803 
L 500 4441 
Q 881 4594 1212 4672 
Q 1544 4750 1819 4750 
Q 2544 4750 2975 4387 
Q 3406 4025 3406 3419 
Q 3406 3131 3298 2873 
Q 3191 2616 2906 2266 
Q 2828 2175 2409 1742 
Q 1991 1309 1228 531 
z
" transform="scale(0.015625)"/>
       </defs>
       <use xlink:href="#DejaVuSans-32"/>
       <use xlink:href="#DejaVuSans-30" x="63.623047"/>
       <use xlink:href="#DejaVuSans-30" x="127.246094"/>
      </g>
     </g>
    </g>
    <g id="xtick_3">
     <g id="line2d_3">
      <g>
       <use xlink:href="#m3829a16a23" x="158.820828" y="307.584" style="stroke: #000000; stroke-width: 0.8"/>
      </g>
     </g>
     <g id="text_3">
      <!-- 400 -->
      <g transform="translate(149.277078 322.182437)scale(0.1 -0.1)">
       <defs>
        <path id="DejaVuSans-34" d="M 2419 4116 
L 825 1625 
L 2419 1625 
L 2419 4116 
z
M 2253 4666 
L 3047 4666 
L 3047 1625 
L 3713 1625 
L 3713 1100 
L 3047 1100 
L 3047 0 
L 2419 0 
L 2419 1100 
L 313 1100 
L 313 1709 
L 2253 4666 
z
" transform="scale(0.015625)"/>
       </defs>
       <use xlink:href="#DejaVuSans-34"/>
       <use xlink:href="#DejaVuSans-30" x="63.623047"/>
       <use xlink:href="#DejaVuSans-30" x="127.246094"/>
      </g>
     </g>
    </g>
    <g id="xtick_4">
     <g id="line2d_4">
      <g>
       <use xlink:href="#m3829a16a23" x="201.314879" y="307.584" style="stroke: #000000; stroke-width: 0.8"/>
      </g>
     </g>
     <g id="text_4">
      <!-- 600 -->
      <g transform="translate(191.771129 322.182437)scale(0.1 -0.1)">
       <defs>
        <path id="DejaVuSans-36" d="M 2113 2584 
Q 1688 2584 1439 2293 
Q 1191 2003 1191 1497 
Q 1191 994 1439 701 
Q 1688 409 2113 409 
Q 2538 409 2786 701 
Q 3034 994 3034 1497 
Q 3034 2003 2786 2293 
Q 2538 2584 2113 2584 
z
M 3366 4563 
L 3366 3988 
Q 3128 4100 2886 4159 
Q 2644 4219 2406 4219 
Q 1781 4219 1451 3797 
Q 1122 3375 1075 2522 
Q 1259 2794 1537 2939 
Q 1816 3084 2150 3084 
Q 2853 3084 3261 2657 
Q 3669 2231 3669 1497 
Q 3669 778 3244 343 
Q 2819 -91 2113 -91 
Q 1303 -91 875 529 
Q 447 1150 447 2328 
Q 447 3434 972 4092 
Q 1497 4750 2381 4750 
Q 2619 4750 2861 4703 
Q 3103 4656 3366 4563 
z
" transform="scale(0.015625)"/>
       </defs>
       <use xlink:href="#DejaVuSans-36"/>
       <use xlink:href="#DejaVuSans-30" x="63.623047"/>
       <use xlink:href="#DejaVuSans-30" x="127.246094"/>
      </g>
     </g>
    </g>
    <g id="xtick_5">
     <g id="line2d_5">
      <g>
       <use xlink:href="#m3829a16a23" x="243.808929" y="307.584" style="stroke: #000000; stroke-width: 0.8"/>
      </g>
     </g>
     <g id="text_5">
      <!-- 800 -->
      <g transform="translate(234.265179 322.182437)scale(0.1 -0.1)">
       <defs>
        <path id="DejaVuSans-38" d="M 2034 2216 
Q 1584 2216 1326 1975 
Q 1069 1734 1069 1313 
Q 1069 891 1326 650 
Q 1584 409 2034 409 
Q 2484 409 2743 651 
Q 3003 894 3003 1313 
Q 3003 1734 2745 1975 
Q 2488 2216 2034 2216 
z
M 1403 2484 
Q 997 2584 770 2862 
Q 544 3141 544 3541 
Q 544 4100 942 4425 
Q 1341 4750 2034 4750 
Q 2731 4750 3128 4425 
Q 3525 4100 3525 3541 
Q 3525 3141 3298 2862 
Q 3072 2584 2669 2484 
Q 3125 2378 3379 2068 
Q 3634 1759 3634 1313 
Q 3634 634 3220 271 
Q 2806 -91 2034 -91 
Q 1263 -91 848 271 
Q 434 634 434 1313 
Q 434 1759 690 2068 
Q 947 2378 1403 2484 
z
M 1172 3481 
Q 1172 3119 1398 2916 
Q 1625 2713 2034 2713 
Q 2441 2713 2670 2916 
Q 2900 3119 2900 3481 
Q 2900 3844 2670 4047 
Q 2441 4250 2034 4250 
Q 1625 4250 1398 4047 
Q 1172 3844 1172 3481 
z
" transform="scale(0.015625)"/>
       </defs>
       <use xlink:href="#DejaVuSans-38"/>
       <use xlink:href="#DejaVuSans-30" x="63.623047"/>
       <use xlink:href="#DejaVuSans-30" x="127.246094"/>
      </g>
     </g>
    </g>
    <g id="xtick_6">
     <g id="line2d_6">
      <g>
       <use xlink:href="#m3829a16a23" x="286.30298" y="307.584" style="stroke: #000000; stroke-width: 0.8"/>
      </g>
     </g>
     <g id="text_6">
      <!-- 1000 -->
      <g transform="translate(273.57798 322.182437)scale(0.1 -0.1)">
       <defs>
        <path id="DejaVuSans-31" d="M 794 531 
L 1825 531 
L 1825 4091 
L 703 3866 
L 703 4441 
L 1819 4666 
L 2450 4666 
L 2450 531 
L 3481 531 
L 3481 0 
L 794 0 
L 794 531 
z
" transform="scale(0.015625)"/>
       </defs>
       <use xlink:href="#DejaVuSans-31"/>
       <use xlink:href="#DejaVuSans-30" x="63.623047"/>
       <use xlink:href="#DejaVuSans-30" x="127.246094"/>
       <use xlink:href="#DejaVuSans-30" x="190.869141"/>
      </g>
     </g>
    </g>
    <g id="xtick_7">
     <g id="line2d_7">
      <g>
       <use xlink:href="#m3829a16a23" x="328.79703" y="307.584" style="stroke: #000000; stroke-width: 0.8"/>
      </g>
     </g>
     <g id="text_7">
      <!-- 1200 -->
      <g transform="translate(316.07203 322.182437)scale(0.1 -0.1)">
       <use xlink:href="#DejaVuSans-31"/>
       <use xlink:href="#DejaVuSans-32" x="63.623047"/>
       <use xlink:href="#DejaVuSans-30" x="127.246094"/>
       <use xlink:href="#DejaVuSans-30" x="190.869141"/>
      </g>
     </g>
    </g>
    <g id="xtick_8">
     <g id="line2d_8">
      <g>
       <use xlink:href="#m3829a16a23" x="371.29108" y="307.584" style="stroke: #000000; stroke-width: 0.8"/>
      </g>
     </g>
     <g id="text_8">
      <!-- 1400 -->
      <g transform="translate(358.56608 322.182437)scale(0.1 -0.1)">
       <use xlink:href="#DejaVuSans-31"/>
       <use xlink:href="#DejaVuSans-34" x="63.623047"/>
       <use xlink:href="#DejaVuSans-30" x="127.246094"/>
       <use xlink:href="#DejaVuSans-30" x="190.869141"/>
      </g>
     </g>
    </g>
    <g id="xtick_9">
     <g id="line2d_9">
      <g>
       <use xlink:href="#m3829a16a23" x="413.785131" y="307.584" style="stroke: #000000; stroke-width: 0.8"/>
      </g>
     </g>
     <g id="text_9">
      <!-- 1600 -->
      <g transform="translate(401.060131 322.182437)scale(0.1 -0.1)">
       <use xlink:href="#DejaVuSans-31"/>
       <use xlink:href="#DejaVuSans-36" x="63.623047"/>
       <use xlink:href="#DejaVuSans-30" x="127.246094"/>
       <use xlink:href="#DejaVuSans-30" x="190.869141"/>
      </g>
     </g>
    </g>
    <g id="text_10">
     <!-- num swaps -->
     <g transform="translate(207.826406 335.860562)scale(0.1 -0.1)">
      <defs>
       <path id="DejaVuSans-6e" d="M 3513 2113 
L 3513 0 
L 2938 0 
L 2938 2094 
Q 2938 2591 2744 2837 
Q 2550 3084 2163 3084 
Q 1697 3084 1428 2787 
Q 1159 2491 1159 1978 
L 1159 0 
L 581 0 
L 581 3500 
L 1159 3500 
L 1159 2956 
Q 1366 3272 1645 3428 
Q 1925 3584 2291 3584 
Q 2894 3584 3203 3211 
Q 3513 2838 3513 2113 
z
" transform="scale(0.015625)"/>
       <path id="DejaVuSans-75" d="M 544 1381 
L 544 3500 
L 1119 3500 
L 1119 1403 
Q 1119 906 1312 657 
Q 1506 409 1894 409 
Q 2359 409 2629 706 
Q 2900 1003 2900 1516 
L 2900 3500 
L 3475 3500 
L 3475 0 
L 2900 0 
L 2900 538 
Q 2691 219 2414 64 
Q 2138 -91 1772 -91 
Q 1169 -91 856 284 
Q 544 659 544 1381 
z
M 1991 3584 
L 1991 3584 
z
" transform="scale(0.015625)"/>
       <path id="DejaVuSans-6d" d="M 3328 2828 
Q 3544 3216 3844 3400 
Q 4144 3584 4550 3584 
Q 5097 3584 5394 3201 
Q 5691 2819 5691 2113 
L 5691 0 
L 5113 0 
L 5113 2094 
Q 5113 2597 4934 2840 
Q 4756 3084 4391 3084 
Q 3944 3084 3684 2787 
Q 3425 2491 3425 1978 
L 3425 0 
L 2847 0 
L 2847 2094 
Q 2847 2600 2669 2842 
Q 2491 3084 2119 3084 
Q 1678 3084 1418 2786 
Q 1159 2488 1159 1978 
L 1159 0 
L 581 0 
L 581 3500 
L 1159 3500 
L 1159 2956 
Q 1356 3278 1631 3431 
Q 1906 3584 2284 3584 
Q 2666 3584 2933 3390 
Q 3200 3197 3328 2828 
z
" transform="scale(0.015625)"/>
       <path id="DejaVuSans-20" transform="scale(0.015625)"/>
       <path id="DejaVuSans-73" d="M 2834 3397 
L 2834 2853 
Q 2591 2978 2328 3040 
Q 2066 3103 1784 3103 
Q 1356 3103 1142 2972 
Q 928 2841 928 2578 
Q 928 2378 1081 2264 
Q 1234 2150 1697 2047 
L 1894 2003 
Q 2506 1872 2764 1633 
Q 3022 1394 3022 966 
Q 3022 478 2636 193 
Q 2250 -91 1575 -91 
Q 1294 -91 989 -36 
Q 684 19 347 128 
L 347 722 
Q 666 556 975 473 
Q 1284 391 1588 391 
Q 1994 391 2212 530 
Q 2431 669 2431 922 
Q 2431 1156 2273 1281 
Q 2116 1406 1581 1522 
L 1381 1569 
Q 847 1681 609 1914 
Q 372 2147 372 2553 
Q 372 3047 722 3315 
Q 1072 3584 1716 3584 
Q 2034 3584 2315 3537 
Q 2597 3491 2834 3397 
z
" transform="scale(0.015625)"/>
       <path id="DejaVuSans-77" d="M 269 3500 
L 844 3500 
L 1563 769 
L 2278 3500 
L 2956 3500 
L 3675 769 
L 4391 3500 
L 4966 3500 
L 4050 0 
L 3372 0 
L 2619 2869 
L 1863 0 
L 1184 0 
L 269 3500 
z
" transform="scale(0.015625)"/>
       <path id="DejaVuSans-61" d="M 2194 1759 
Q 1497 1759 1228 1600 
Q 959 1441 959 1056 
Q 959 750 1161 570 
Q 1363 391 1709 391 
Q 2188 391 2477 730 
Q 2766 1069 2766 1631 
L 2766 1759 
L 2194 1759 
z
M 3341 1997 
L 3341 0 
L 2766 0 
L 2766 531 
Q 2569 213 2275 61 
Q 1981 -91 1556 -91 
Q 1019 -91 701 211 
Q 384 513 384 1019 
Q 384 1609 779 1909 
Q 1175 2209 1959 2209 
L 2766 2209 
L 2766 2266 
Q 2766 2663 2505 2880 
Q 2244 3097 1772 3097 
Q 1472 3097 1187 3025 
Q 903 2953 641 2809 
L 641 3341 
Q 956 3463 1253 3523 
Q 1550 3584 1831 3584 
Q 2591 3584 2966 3190 
Q 3341 2797 3341 1997 
z
" transform="scale(0.015625)"/>
       <path id="DejaVuSans-70" d="M 1159 525 
L 1159 -1331 
L 581 -1331 
L 581 3500 
L 1159 3500 
L 1159 2969 
Q 1341 3281 1617 3432 
Q 1894 3584 2278 3584 
Q 2916 3584 3314 3078 
Q 3713 2572 3713 1747 
Q 3713 922 3314 415 
Q 2916 -91 2278 -91 
Q 1894 -91 1617 61 
Q 1341 213 1159 525 
z
M 3116 1747 
Q 3116 2381 2855 2742 
Q 2594 3103 2138 3103 
Q 1681 3103 1420 2742 
Q 1159 2381 1159 1747 
Q 1159 1113 1420 752 
Q 1681 391 2138 391 
Q 2594 391 2855 752 
Q 3116 1113 3116 1747 
z
" transform="scale(0.015625)"/>
      </defs>
      <use xlink:href="#DejaVuSans-6e"/>
      <use xlink:href="#DejaVuSans-75" x="63.378906"/>
      <use xlink:href="#DejaVuSans-6d" x="126.757812"/>
      <use xlink:href="#DejaVuSans-20" x="224.169922"/>
      <use xlink:href="#DejaVuSans-73" x="255.957031"/>
      <use xlink:href="#DejaVuSans-77" x="308.056641"/>
      <use xlink:href="#DejaVuSans-61" x="389.84375"/>
      <use xlink:href="#DejaVuSans-70" x="451.123047"/>
      <use xlink:href="#DejaVuSans-73" x="514.599609"/>
     </g>
    </g>
   </g>
   <g id="matplotlib.axis_2">
    <g id="ytick_1">
     <g id="line2d_10">
      <defs>
       <path id="m9a27cc720a" d="M 0 0 
L -3.5 0 
" style="stroke: #000000; stroke-width: 0.8"/>
      </defs>
      <g>
       <use xlink:href="#m9a27cc720a" x="57.6" y="282.048" style="stroke: #000000; stroke-width: 0.8"/>
      </g>
     </g>
     <g id="text_11">
      <!-- 410 -->
      <g transform="translate(31.5125 285.847219)scale(0.1 -0.1)">
       <use xlink:href="#DejaVuSans-34"/>
       <use xlink:href="#DejaVuSans-31" x="63.623047"/>
       <use xlink:href="#DejaVuSans-30" x="127.246094"/>
      </g>
     </g>
    </g>
    <g id="ytick_2">
     <g id="line2d_11">
      <g>
       <use xlink:href="#m9a27cc720a" x="57.6" y="248.448" style="stroke: #000000; stroke-width: 0.8"/>
      </g>
     </g>
     <g id="text_12">
      <!-- 420 -->
      <g transform="translate(31.5125 252.247219)scale(0.1 -0.1)">
       <use xlink:href="#DejaVuSans-34"/>
       <use xlink:href="#DejaVuSans-32" x="63.623047"/>
       <use xlink:href="#DejaVuSans-30" x="127.246094"/>
      </g>
     </g>
    </g>
    <g id="ytick_3">
     <g id="line2d_12">
      <g>
       <use xlink:href="#m9a27cc720a" x="57.6" y="214.848" style="stroke: #000000; stroke-width: 0.8"/>
      </g>
     </g>
     <g id="text_13">
      <!-- 430 -->
      <g transform="translate(31.5125 218.647219)scale(0.1 -0.1)">
       <defs>
        <path id="DejaVuSans-33" d="M 2597 2516 
Q 3050 2419 3304 2112 
Q 3559 1806 3559 1356 
Q 3559 666 3084 287 
Q 2609 -91 1734 -91 
Q 1441 -91 1130 -33 
Q 819 25 488 141 
L 488 750 
Q 750 597 1062 519 
Q 1375 441 1716 441 
Q 2309 441 2620 675 
Q 2931 909 2931 1356 
Q 2931 1769 2642 2001 
Q 2353 2234 1838 2234 
L 1294 2234 
L 1294 2753 
L 1863 2753 
Q 2328 2753 2575 2939 
Q 2822 3125 2822 3475 
Q 2822 3834 2567 4026 
Q 2313 4219 1838 4219 
Q 1578 4219 1281 4162 
Q 984 4106 628 3988 
L 628 4550 
Q 988 4650 1302 4700 
Q 1616 4750 1894 4750 
Q 2613 4750 3031 4423 
Q 3450 4097 3450 3541 
Q 3450 3153 3228 2886 
Q 3006 2619 2597 2516 
z
" transform="scale(0.015625)"/>
       </defs>
       <use xlink:href="#DejaVuSans-34"/>
       <use xlink:href="#DejaVuSans-33" x="63.623047"/>
       <use xlink:href="#DejaVuSans-30" x="127.246094"/>
      </g>
     </g>
    </g>
    <g id="ytick_4">
     <g id="line2d_13">
      <g>
       <use xlink:href="#m9a27cc720a" x="57.6" y="181.248" style="stroke: #000000; stroke-width: 0.8"/>
      </g>
     </g>
     <g id="text_14">
      <!-- 440 -->
      <g transform="translate(31.5125 185.047219)scale(0.1 -0.1)">
       <use xlink:href="#DejaVuSans-34"/>
       <use xlink:href="#DejaVuSans-34" x="63.623047"/>
       <use xlink:href="#DejaVuSans-30" x="127.246094"/>
      </g>
     </g>
    </g>
    <g id="ytick_5">
     <g id="line2d_14">
      <g>
       <use xlink:href="#m9a27cc720a" x="57.6" y="147.648" style="stroke: #000000; stroke-width: 0.8"/>
      </g>
     </g>
     <g id="text_15">
      <!-- 450 -->
      <g transform="translate(31.5125 151.447219)scale(0.1 -0.1)">
       <defs>
        <path id="DejaVuSans-35" d="M 691 4666 
L 3169 4666 
L 3169 4134 
L 1269 4134 
L 1269 2991 
Q 1406 3038 1543 3061 
Q 1681 3084 1819 3084 
Q 2600 3084 3056 2656 
Q 3513 2228 3513 1497 
Q 3513 744 3044 326 
Q 2575 -91 1722 -91 
Q 1428 -91 1123 -41 
Q 819 9 494 109 
L 494 744 
Q 775 591 1075 516 
Q 1375 441 1709 441 
Q 2250 441 2565 725 
Q 2881 1009 2881 1497 
Q 2881 1984 2565 2268 
Q 2250 2553 1709 2553 
Q 1456 2553 1204 2497 
Q 953 2441 691 2322 
L 691 4666 
z
" transform="scale(0.015625)"/>
       </defs>
       <use xlink:href="#DejaVuSans-34"/>
       <use xlink:href="#DejaVuSans-35" x="63.623047"/>
       <use xlink:href="#DejaVuSans-30" x="127.246094"/>
      </g>
     </g>
    </g>
    <g id="ytick_6">
     <g id="line2d_15">
      <g>
       <use xlink:href="#m9a27cc720a" x="57.6" y="114.048" style="stroke: #000000; stroke-width: 0.8"/>
      </g>
     </g>
     <g id="text_16">
      <!-- 460 -->
      <g transform="translate(31.5125 117.847219)scale(0.1 -0.1)">
       <use xlink:href="#DejaVuSans-34"/>
       <use xlink:href="#DejaVuSans-36" x="63.623047"/>
       <use xlink:href="#DejaVuSans-30" x="127.246094"/>
      </g>
     </g>
    </g>
    <g id="ytick_7">
     <g id="line2d_16">
      <g>
       <use xlink:href="#m9a27cc720a" x="57.6" y="80.448" style="stroke: #000000; stroke-width: 0.8"/>
      </g>
     </g>
     <g id="text_17">
      <!-- 470 -->
      <g transform="translate(31.5125 84.247219)scale(0.1 -0.1)">
       <defs>
        <path id="DejaVuSans-37" d="M 525 4666 
L 3525 4666 
L 3525 4397 
L 1831 0 
L 1172 0 
L 2766 4134 
L 525 4134 
L 525 4666 
z
" transform="scale(0.015625)"/>
       </defs>
       <use xlink:href="#DejaVuSans-34"/>
       <use xlink:href="#DejaVuSans-37" x="63.623047"/>
       <use xlink:href="#DejaVuSans-30" x="127.246094"/>
      </g>
     </g>
    </g>
    <g id="ytick_8">
     <g id="line2d_17">
      <g>
       <use xlink:href="#m9a27cc720a" x="57.6" y="46.848" style="stroke: #000000; stroke-width: 0.8"/>
      </g>
     </g>
     <g id="text_18">
      <!-- 480 -->
      <g transform="translate(31.5125 50.647219)scale(0.1 -0.1)">
       <use xlink:href="#DejaVuSans-34"/>
       <use xlink:href="#DejaVuSans-38" x="63.623047"/>
       <use xlink:href="#DejaVuSans-30" x="127.246094"/>
      </g>
     </g>
    </g>
    <g id="text_19">
     <!-- total cost -->
     <g transform="translate(25.432812 197.923313)rotate(-90)scale(0.1 -0.1)">
      <defs>
       <path id="DejaVuSans-74" d="M 1172 4494 
L 1172 3500 
L 2356 3500 
L 2356 3053 
L 1172 3053 
L 1172 1153 
Q 1172 725 1289 603 
Q 1406 481 1766 481 
L 2356 481 
L 2356 0 
L 1766 0 
Q 1100 0 847 248 
Q 594 497 594 1153 
L 594 3053 
L 172 3053 
L 172 3500 
L 594 3500 
L 594 4494 
L 1172 4494 
z
" transform="scale(0.015625)"/>
       <path id="DejaVuSans-6f" d="M 1959 3097 
Q 1497 3097 1228 2736 
Q 959 2375 959 1747 
Q 959 1119 1226 758 
Q 1494 397 1959 397 
Q 2419 397 2687 759 
Q 2956 1122 2956 1747 
Q 2956 2369 2687 2733 
Q 2419 3097 1959 3097 
z
M 1959 3584 
Q 2709 3584 3137 3096 
Q 3566 2609 3566 1747 
Q 3566 888 3137 398 
Q 2709 -91 1959 -91 
Q 1206 -91 779 398 
Q 353 888 353 1747 
Q 353 2609 779 3096 
Q 1206 3584 1959 3584 
z
" transform="scale(0.015625)"/>
       <path id="DejaVuSans-6c" d="M 603 4863 
L 1178 4863 
L 1178 0 
L 603 0 
L 603 4863 
z
" transform="scale(0.015625)"/>
       <path id="DejaVuSans-63" d="M 3122 3366 
L 3122 2828 
Q 2878 2963 2633 3030 
Q 2388 3097 2138 3097 
Q 1578 3097 1268 2742 
Q 959 2388 959 1747 
Q 959 1106 1268 751 
Q 1578 397 2138 397 
Q 2388 397 2633 464 
Q 2878 531 3122 666 
L 3122 134 
Q 2881 22 2623 -34 
Q 2366 -91 2075 -91 
Q 1284 -91 818 406 
Q 353 903 353 1747 
Q 353 2603 823 3093 
Q 1294 3584 2113 3584 
Q 2378 3584 2631 3529 
Q 2884 3475 3122 3366 
z
" transform="scale(0.015625)"/>
      </defs>
      <use xlink:href="#DejaVuSans-74"/>
      <use xlink:href="#DejaVuSans-6f" x="39.208984"/>
      <use xlink:href="#DejaVuSans-74" x="100.390625"/>
      <use xlink:href="#DejaVuSans-61" x="139.599609"/>
      <use xlink:href="#DejaVuSans-6c" x="200.878906"/>
      <use xlink:href="#DejaVuSans-20" x="228.662109"/>
      <use xlink:href="#DejaVuSans-63" x="260.449219"/>
      <use xlink:href="#DejaVuSans-6f" x="315.429688"/>
      <use xlink:href="#DejaVuSans-73" x="376.611328"/>
      <use xlink:href="#DejaVuSans-74" x="428.710938"/>
     </g>
    </g>
   </g>
   <g id="line2d_18">
    <path d="M 73.832727 147.648 
L 74.257668 117.408 
L 75.107549 103.968 
L 75.532489 117.408 
L 75.95743 144.288 
L 76.38237 130.848 
L 76.807311 124.128 
L 77.232251 137.568 
L 78.082132 114.048 
L 78.507073 114.048 
L 78.932013 93.888 
L 79.356954 80.448 
L 79.781894 103.968 
L 80.206835 100.608 
L 80.631775 107.328 
L 81.056716 107.328 
L 81.481656 80.448 
L 81.906597 77.088 
L 82.331537 100.608 
L 82.756478 144.288 
L 83.181418 134.208 
L 83.606359 157.728 
L 84.031299 167.808 
L 84.45624 151.008 
L 85.306121 164.448 
L 85.731061 164.448 
L 86.156002 171.168 
L 86.580942 171.168 
L 87.005883 174.528 
L 87.430823 164.448 
L 87.855764 137.568 
L 88.280704 144.288 
L 89.130585 144.288 
L 89.555526 164.448 
L 89.980466 164.448 
L 90.405407 161.088 
L 91.255288 161.088 
L 91.680228 157.728 
L 92.105169 124.128 
L 92.530109 114.048 
L 92.95505 134.208 
L 93.37999 161.088 
L 93.804931 171.168 
L 94.229871 147.648 
L 94.654812 161.088 
L 95.079752 181.248 
L 95.504693 187.968 
L 95.929634 258.528 
L 96.779515 258.528 
L 97.204455 251.808 
L 97.629396 241.728 
L 98.054336 204.768 
L 98.479277 177.888 
L 98.904217 177.888 
L 99.329158 194.688 
L 99.754098 164.448 
L 100.179039 154.368 
L 100.603979 127.488 
L 101.02892 117.408 
L 101.45386 147.648 
L 101.878801 164.448 
L 102.303741 127.488 
L 102.728682 117.408 
L 103.153622 208.128 
L 103.578563 214.848 
L 104.003503 218.208 
L 104.428444 214.848 
L 104.853384 204.768 
L 105.703265 198.048 
L 106.128206 198.048 
L 106.553146 208.128 
L 107.827968 228.288 
L 108.252908 198.048 
L 108.677849 187.968 
L 109.102789 164.448 
L 109.52773 147.648 
L 109.95267 154.368 
L 110.377611 154.368 
L 110.802551 137.568 
L 111.652432 171.168 
L 112.077373 231.648 
L 112.502313 245.088 
L 112.927254 224.928 
L 113.352194 238.368 
L 113.777135 238.368 
L 114.202075 218.208 
L 114.627016 228.288 
L 115.051956 221.568 
L 115.901837 187.968 
L 116.326778 201.408 
L 116.751718 198.048 
L 117.176659 198.048 
L 117.601599 181.248 
L 118.02654 140.928 
L 118.876421 140.928 
L 119.301361 107.328 
L 119.726302 114.048 
L 120.151242 134.208 
L 120.576183 147.648 
L 121.001123 171.168 
L 121.426064 177.888 
L 121.851004 177.888 
L 122.275945 184.608 
L 122.700885 184.608 
L 123.550766 208.128 
L 123.975707 198.048 
L 124.400647 208.128 
L 124.825588 208.128 
L 125.250528 191.328 
L 125.675469 204.768 
L 126.100409 181.248 
L 126.95029 157.728 
L 127.800171 171.168 
L 128.650052 204.768 
L 129.074993 214.848 
L 129.499933 228.288 
L 129.924874 231.648 
L 130.349814 194.688 
L 130.774755 201.408 
L 131.199695 201.408 
L 131.624636 228.288 
L 132.049576 238.368 
L 132.474517 235.008 
L 133.324398 241.728 
L 133.749338 241.728 
L 134.174279 211.488 
L 134.599219 208.128 
L 135.4491 265.248 
L 136.298981 204.768 
L 136.723922 228.288 
L 137.148862 181.248 
L 137.573803 177.888 
L 137.998743 201.408 
L 138.423684 157.728 
L 139.273565 177.888 
L 140.123446 201.408 
L 140.548386 191.328 
L 140.973327 171.168 
L 141.823208 194.688 
L 142.248149 184.608 
L 142.673089 161.088 
L 143.09803 161.088 
L 143.52297 167.808 
L 144.372851 191.328 
L 144.797792 184.608 
L 145.222732 208.128 
L 145.647673 191.328 
L 146.072613 231.648 
L 146.497554 181.248 
L 146.922494 204.768 
L 147.347435 187.968 
L 147.772375 198.048 
L 148.197316 191.328 
L 148.622256 191.328 
L 149.047197 218.208 
L 149.897078 177.888 
L 150.322018 184.608 
L 150.746959 157.728 
L 151.171899 140.928 
L 151.59684 130.848 
L 152.02178 137.568 
L 152.446721 87.168 
L 152.871661 93.888 
L 153.296602 114.048 
L 153.721542 110.688 
L 154.146483 157.728 
L 154.571423 184.608 
L 154.996364 187.968 
L 155.421304 167.808 
L 155.846245 181.248 
L 156.271185 154.368 
L 156.696126 140.928 
L 157.121066 140.928 
L 157.546007 154.368 
L 157.970947 157.728 
L 158.395888 147.648 
L 158.820828 154.368 
L 159.245769 235.008 
L 159.670709 238.368 
L 160.09565 214.848 
L 160.52059 214.848 
L 160.945531 224.928 
L 161.795412 292.128 
L 162.220352 295.488 
L 162.645293 275.328 
L 163.070233 275.328 
L 163.495174 251.808 
L 163.920114 282.048 
L 164.345055 278.688 
L 164.769995 265.248 
L 165.619876 271.968 
L 166.044817 261.888 
L 166.469757 258.528 
L 166.894698 238.368 
L 167.319638 228.288 
L 167.744579 221.568 
L 168.169519 218.208 
L 168.59446 224.928 
L 169.0194 211.488 
L 169.444341 228.288 
L 169.869281 214.848 
L 170.294222 221.568 
L 171.144103 191.328 
L 171.569043 204.768 
L 171.993984 177.888 
L 172.418924 187.968 
L 173.693746 282.048 
L 174.118686 268.608 
L 174.543627 265.248 
L 174.968567 271.968 
L 175.818448 265.248 
L 176.243389 248.448 
L 176.668329 282.048 
L 177.09327 248.448 
L 177.51821 248.448 
L 177.943151 251.808 
L 178.793032 275.328 
L 179.217972 258.528 
L 179.642913 261.888 
L 180.067853 181.248 
L 180.492794 154.368 
L 180.917734 144.288 
L 181.342675 124.128 
L 181.767615 134.208 
L 182.192556 151.008 
L 182.617496 161.088 
L 183.042437 164.448 
L 183.467377 171.168 
L 183.892318 161.088 
L 184.317258 144.288 
L 184.742199 147.648 
L 185.167139 147.648 
L 185.59208 167.808 
L 186.01702 174.528 
L 186.441961 204.768 
L 186.866901 201.408 
L 187.291842 208.128 
L 187.716782 211.488 
L 188.141723 224.928 
L 188.566663 204.768 
L 188.991604 204.768 
L 189.416545 214.848 
L 189.841485 204.768 
L 190.691366 191.328 
L 191.116307 181.248 
L 191.541247 187.968 
L 191.966188 177.888 
L 192.391128 177.888 
L 192.816069 198.048 
L 193.241009 181.248 
L 194.09089 231.648 
L 194.515831 235.008 
L 195.365712 187.968 
L 195.790652 191.328 
L 196.215593 211.488 
L 196.640533 184.608 
L 197.065474 201.408 
L 197.490414 181.248 
L 197.915355 174.528 
L 198.765236 194.688 
L 199.190176 208.128 
L 199.615117 181.248 
L 200.040057 191.328 
L 200.464998 174.528 
L 200.889938 171.168 
L 201.314879 164.448 
L 201.739819 167.808 
L 202.16476 184.608 
L 203.439581 120.768 
L 203.864522 127.488 
L 204.289462 114.048 
L 205.139343 107.328 
L 205.564284 120.768 
L 205.989224 218.208 
L 206.414165 191.328 
L 206.839105 191.328 
L 207.264046 201.408 
L 207.688986 201.408 
L 208.113927 181.248 
L 208.538867 174.528 
L 208.963808 171.168 
L 209.388748 171.168 
L 209.813689 177.888 
L 210.238629 171.168 
L 210.66357 174.528 
L 211.08851 167.808 
L 211.513451 127.488 
L 211.938391 134.208 
L 212.363332 134.208 
L 212.788272 114.048 
L 213.213213 120.768 
L 213.638153 134.208 
L 214.063094 140.928 
L 214.488034 161.088 
L 214.912975 167.808 
L 215.337915 167.808 
L 215.762856 154.368 
L 216.187796 167.808 
L 216.612737 167.808 
L 217.037677 144.288 
L 217.462618 171.168 
L 218.312499 201.408 
L 218.737439 204.768 
L 219.16238 204.768 
L 219.58732 231.648 
L 220.437201 224.928 
L 220.862142 224.928 
L 221.287082 268.608 
L 221.712023 258.528 
L 222.136963 251.808 
L 222.561904 241.728 
L 222.986844 241.728 
L 223.836725 265.248 
L 224.261666 288.768 
L 224.686606 282.048 
L 225.111547 261.888 
L 225.536487 275.328 
L 225.961428 278.688 
L 226.386368 248.448 
L 226.811309 258.528 
L 227.236249 204.768 
L 227.66119 228.288 
L 228.08613 235.008 
L 228.511071 235.008 
L 228.936011 221.568 
L 229.360952 231.648 
L 229.785892 235.008 
L 230.210833 218.208 
L 230.635773 221.568 
L 231.485654 221.568 
L 231.910595 211.488 
L 232.335535 208.128 
L 232.760476 201.408 
L 233.185416 211.488 
L 233.610357 211.488 
L 234.460238 147.648 
L 235.310119 134.208 
L 235.735059 157.728 
L 236.16 154.368 
L 236.584941 208.128 
L 237.009881 204.768 
L 237.434822 198.048 
L 237.859762 201.408 
L 238.709643 177.888 
L 239.134584 181.248 
L 239.984465 194.688 
L 240.409405 194.688 
L 240.834346 184.608 
L 241.684227 191.328 
L 242.109167 184.608 
L 242.959048 157.728 
L 243.383989 164.448 
L 243.808929 161.088 
L 244.23387 187.968 
L 244.65881 198.048 
L 245.083751 184.608 
L 245.508691 198.048 
L 245.933632 201.408 
L 246.358572 208.128 
L 247.208453 238.368 
L 247.633394 208.128 
L 248.058334 201.408 
L 248.483275 208.128 
L 248.908215 235.008 
L 249.333156 228.288 
L 249.758096 198.048 
L 250.183037 198.048 
L 250.607977 208.128 
L 251.032918 214.848 
L 251.457858 224.928 
L 251.882799 221.568 
L 252.307739 214.848 
L 252.73268 201.408 
L 253.15762 171.168 
L 253.582561 164.448 
L 254.007501 137.568 
L 254.432442 157.728 
L 254.857382 164.448 
L 255.282323 177.888 
L 255.707263 198.048 
L 256.132204 177.888 
L 256.557144 177.888 
L 256.982085 151.008 
L 257.407025 157.728 
L 257.831966 154.368 
L 258.256906 157.728 
L 258.681847 137.568 
L 259.106787 140.928 
L 259.531728 130.848 
L 259.956668 144.288 
L 260.381609 130.848 
L 260.806549 127.488 
L 261.23149 103.968 
L 261.65643 100.608 
L 262.081371 130.848 
L 262.506311 130.848 
L 262.931252 107.328 
L 263.356192 117.408 
L 263.781133 137.568 
L 264.206073 130.848 
L 264.631014 114.048 
L 265.055954 110.688 
L 265.480895 120.768 
L 265.905835 120.768 
L 266.330776 114.048 
L 266.755716 127.488 
L 267.180657 120.768 
L 267.605597 107.328 
L 268.030538 110.688 
L 268.455478 120.768 
L 268.880419 127.488 
L 269.305359 137.568 
L 269.7303 181.248 
L 270.15524 191.328 
L 270.580181 194.688 
L 271.005121 194.688 
L 271.430062 224.928 
L 271.855002 228.288 
L 272.279943 201.408 
L 272.704883 191.328 
L 273.129824 211.488 
L 273.554764 204.768 
L 273.979705 231.648 
L 274.404645 204.768 
L 274.829586 194.688 
L 275.254526 198.048 
L 275.679467 181.248 
L 276.104407 194.688 
L 276.529348 201.408 
L 276.954288 228.288 
L 277.379229 231.648 
L 277.804169 224.928 
L 278.65405 224.928 
L 279.078991 211.488 
L 279.503931 208.128 
L 279.928872 201.408 
L 280.353812 211.488 
L 280.778753 211.488 
L 281.203693 198.048 
L 281.628634 211.488 
L 282.053574 248.448 
L 282.478515 251.808 
L 282.903455 265.248 
L 283.328396 235.008 
L 283.753337 235.008 
L 284.178277 228.288 
L 284.603218 211.488 
L 285.028158 208.128 
L 285.453099 208.128 
L 285.878039 181.248 
L 286.30298 187.968 
L 286.72792 177.888 
L 287.152861 191.328 
L 287.577801 194.688 
L 288.002742 201.408 
L 288.427682 161.088 
L 288.852623 164.448 
L 289.277563 137.568 
L 290.127444 181.248 
L 290.552385 214.848 
L 290.977325 224.928 
L 291.402266 224.928 
L 291.827206 221.568 
L 292.252147 235.008 
L 292.677087 181.248 
L 293.526968 211.488 
L 293.951909 208.128 
L 294.376849 194.688 
L 294.80179 201.408 
L 295.22673 174.528 
L 295.651671 167.808 
L 296.076611 198.048 
L 296.501552 194.688 
L 296.926492 177.888 
L 297.351433 218.208 
L 297.776373 204.768 
L 298.626254 228.288 
L 299.051195 211.488 
L 299.476135 181.248 
L 299.901076 167.808 
L 300.326016 171.168 
L 300.750957 167.808 
L 301.600838 167.808 
L 302.025778 184.608 
L 302.450719 177.888 
L 302.875659 167.808 
L 303.3006 177.888 
L 303.72554 177.888 
L 304.150481 171.168 
L 304.575421 167.808 
L 305.000362 161.088 
L 305.425302 164.448 
L 305.850243 191.328 
L 306.275183 194.688 
L 306.700124 187.968 
L 307.550005 181.248 
L 307.974945 181.248 
L 308.399886 214.848 
L 308.824826 211.488 
L 309.249767 204.768 
L 309.674707 204.768 
L 310.524588 191.328 
L 310.949529 191.328 
L 311.374469 194.688 
L 311.79941 208.128 
L 312.22435 191.328 
L 312.649291 201.408 
L 313.499172 208.128 
L 313.924112 191.328 
L 314.349053 167.808 
L 314.773993 191.328 
L 315.198934 171.168 
L 315.623874 127.488 
L 316.048815 120.768 
L 316.473755 140.928 
L 316.898696 134.208 
L 317.323636 157.728 
L 317.748577 140.928 
L 318.173517 147.648 
L 318.598458 110.688 
L 319.023398 161.088 
L 319.448339 147.648 
L 319.873279 140.928 
L 320.29822 154.368 
L 320.72316 144.288 
L 321.148101 151.008 
L 321.573041 144.288 
L 321.997982 124.128 
L 322.422922 120.768 
L 322.847863 120.768 
L 323.272803 117.408 
L 323.697744 147.648 
L 324.122684 157.728 
L 324.547625 154.368 
L 324.972565 157.728 
L 325.397506 144.288 
L 325.822446 144.288 
L 327.097268 181.248 
L 327.522208 157.728 
L 327.947149 171.168 
L 328.372089 161.088 
L 329.22197 198.048 
L 330.071851 211.488 
L 330.496792 214.848 
L 331.346673 194.688 
L 332.196554 187.968 
L 332.621495 204.768 
L 333.046435 201.408 
L 333.471376 204.768 
L 334.321257 258.528 
L 334.746197 231.648 
L 335.171138 238.368 
L 335.596078 251.808 
L 336.021019 238.368 
L 336.445959 211.488 
L 336.8709 214.848 
L 337.29584 191.328 
L 337.720781 198.048 
L 338.145721 181.248 
L 338.995602 214.848 
L 339.420543 224.928 
L 339.845483 231.648 
L 340.270424 261.888 
L 340.695364 261.888 
L 341.120305 248.448 
L 341.970186 255.168 
L 342.395126 235.008 
L 342.820067 221.568 
L 343.669948 208.128 
L 344.094888 218.208 
L 344.519829 221.568 
L 344.944769 211.488 
L 345.36971 191.328 
L 345.79465 184.608 
L 347.069472 282.048 
L 347.494412 278.688 
L 347.919353 278.688 
L 348.344293 251.808 
L 348.769234 248.448 
L 349.194174 251.808 
L 349.619115 245.088 
L 350.044055 231.648 
L 350.468996 235.008 
L 350.893936 255.168 
L 351.318877 251.808 
L 351.743817 251.808 
L 352.168758 241.728 
L 352.593698 248.448 
L 353.86852 228.288 
L 354.29346 224.928 
L 354.718401 245.088 
L 355.568282 265.248 
L 355.993222 258.528 
L 356.418163 245.088 
L 356.843103 278.688 
L 357.268044 268.608 
L 357.692984 261.888 
L 358.117925 251.808 
L 358.967806 285.408 
L 359.392746 261.888 
L 359.817687 268.608 
L 360.242627 258.528 
L 361.092508 285.408 
L 361.517449 275.328 
L 361.942389 248.448 
L 362.36733 238.368 
L 363.217211 238.368 
L 363.642151 231.648 
L 364.067092 147.648 
L 364.492032 120.768 
L 364.916973 73.728 
L 365.341913 80.448 
L 365.766854 90.528 
L 366.191794 120.768 
L 367.041675 114.048 
L 367.466616 120.768 
L 367.891556 120.768 
L 368.316497 124.128 
L 368.741437 107.328 
L 369.166378 97.248 
L 369.591318 83.808 
L 370.016259 56.928 
L 370.441199 53.568 
L 370.86614 154.368 
L 371.29108 191.328 
L 371.716021 157.728 
L 372.140961 151.008 
L 372.565902 157.728 
L 372.990842 218.208 
L 373.415783 221.568 
L 373.840723 245.088 
L 374.265664 245.088 
L 374.690604 211.488 
L 375.115545 204.768 
L 375.540485 214.848 
L 375.965426 214.848 
L 376.815307 251.808 
L 377.240248 194.688 
L 377.665188 181.248 
L 378.090129 231.648 
L 378.515069 248.448 
L 378.94001 275.328 
L 379.36495 238.368 
L 379.789891 238.368 
L 380.214831 221.568 
L 380.639772 238.368 
L 381.064712 261.888 
L 381.914593 201.408 
L 382.339534 201.408 
L 382.764474 187.968 
L 383.189415 157.728 
L 383.614355 177.888 
L 384.039296 181.248 
L 384.464236 157.728 
L 384.889177 171.168 
L 385.739058 177.888 
L 386.163998 147.648 
L 386.588939 140.928 
L 387.013879 137.568 
L 387.43882 171.168 
L 388.288701 147.648 
L 388.713641 177.888 
L 389.138582 174.528 
L 389.563522 167.808 
L 389.988463 201.408 
L 390.413403 198.048 
L 390.838344 208.128 
L 391.263284 231.648 
L 391.688225 231.648 
L 392.113165 224.928 
L 392.538106 224.928 
L 392.963046 228.288 
L 394.237868 228.288 
L 394.662808 204.768 
L 395.087749 191.328 
L 395.512689 171.168 
L 395.93763 174.528 
L 396.36257 191.328 
L 396.787511 184.608 
L 397.212451 174.528 
L 397.637392 181.248 
L 398.062332 184.608 
L 398.487273 208.128 
L 398.487273 208.128 
" clip-path="url(#p6129494ecd)" style="fill: none; stroke: #1f77b4; stroke-width: 1.5; stroke-linecap: square"/>
   </g>
   <g id="patch_3">
    <path d="M 57.6 307.584 
L 57.6 41.472 
" style="fill: none; stroke: #000000; stroke-width: 0.8; stroke-linejoin: miter; stroke-linecap: square"/>
   </g>
   <g id="patch_4">
    <path d="M 414.72 307.584 
L 414.72 41.472 
" style="fill: none; stroke: #000000; stroke-width: 0.8; stroke-linejoin: miter; stroke-linecap: square"/>
   </g>
   <g id="patch_5">
    <path d="M 57.6 307.584 
L 414.72 307.584 
" style="fill: none; stroke: #000000; stroke-width: 0.8; stroke-linejoin: miter; stroke-linecap: square"/>
   </g>
   <g id="patch_6">
    <path d="M 57.6 41.472 
L 414.72 41.472 
" style="fill: none; stroke: #000000; stroke-width: 0.8; stroke-linejoin: miter; stroke-linecap: square"/>
   </g>
   <g id="text_20">
    <!-- Simulated Anealling Cost -->
    <g transform="translate(160.8 35.472)scale(0.12 -0.12)">
     <defs>
      <path id="DejaVuSans-53" d="M 3425 4513 
L 3425 3897 
Q 3066 4069 2747 4153 
Q 2428 4238 2131 4238 
Q 1616 4238 1336 4038 
Q 1056 3838 1056 3469 
Q 1056 3159 1242 3001 
Q 1428 2844 1947 2747 
L 2328 2669 
Q 3034 2534 3370 2195 
Q 3706 1856 3706 1288 
Q 3706 609 3251 259 
Q 2797 -91 1919 -91 
Q 1588 -91 1214 -16 
Q 841 59 441 206 
L 441 856 
Q 825 641 1194 531 
Q 1563 422 1919 422 
Q 2459 422 2753 634 
Q 3047 847 3047 1241 
Q 3047 1584 2836 1778 
Q 2625 1972 2144 2069 
L 1759 2144 
Q 1053 2284 737 2584 
Q 422 2884 422 3419 
Q 422 4038 858 4394 
Q 1294 4750 2059 4750 
Q 2388 4750 2728 4690 
Q 3069 4631 3425 4513 
z
" transform="scale(0.015625)"/>
      <path id="DejaVuSans-69" d="M 603 3500 
L 1178 3500 
L 1178 0 
L 603 0 
L 603 3500 
z
M 603 4863 
L 1178 4863 
L 1178 4134 
L 603 4134 
L 603 4863 
z
" transform="scale(0.015625)"/>
      <path id="DejaVuSans-65" d="M 3597 1894 
L 3597 1613 
L 953 1613 
Q 991 1019 1311 708 
Q 1631 397 2203 397 
Q 2534 397 2845 478 
Q 3156 559 3463 722 
L 3463 178 
Q 3153 47 2828 -22 
Q 2503 -91 2169 -91 
Q 1331 -91 842 396 
Q 353 884 353 1716 
Q 353 2575 817 3079 
Q 1281 3584 2069 3584 
Q 2775 3584 3186 3129 
Q 3597 2675 3597 1894 
z
M 3022 2063 
Q 3016 2534 2758 2815 
Q 2500 3097 2075 3097 
Q 1594 3097 1305 2825 
Q 1016 2553 972 2059 
L 3022 2063 
z
" transform="scale(0.015625)"/>
      <path id="DejaVuSans-64" d="M 2906 2969 
L 2906 4863 
L 3481 4863 
L 3481 0 
L 2906 0 
L 2906 525 
Q 2725 213 2448 61 
Q 2172 -91 1784 -91 
Q 1150 -91 751 415 
Q 353 922 353 1747 
Q 353 2572 751 3078 
Q 1150 3584 1784 3584 
Q 2172 3584 2448 3432 
Q 2725 3281 2906 2969 
z
M 947 1747 
Q 947 1113 1208 752 
Q 1469 391 1925 391 
Q 2381 391 2643 752 
Q 2906 1113 2906 1747 
Q 2906 2381 2643 2742 
Q 2381 3103 1925 3103 
Q 1469 3103 1208 2742 
Q 947 2381 947 1747 
z
" transform="scale(0.015625)"/>
      <path id="DejaVuSans-41" d="M 2188 4044 
L 1331 1722 
L 3047 1722 
L 2188 4044 
z
M 1831 4666 
L 2547 4666 
L 4325 0 
L 3669 0 
L 3244 1197 
L 1141 1197 
L 716 0 
L 50 0 
L 1831 4666 
z
" transform="scale(0.015625)"/>
      <path id="DejaVuSans-67" d="M 2906 1791 
Q 2906 2416 2648 2759 
Q 2391 3103 1925 3103 
Q 1463 3103 1205 2759 
Q 947 2416 947 1791 
Q 947 1169 1205 825 
Q 1463 481 1925 481 
Q 2391 481 2648 825 
Q 2906 1169 2906 1791 
z
M 3481 434 
Q 3481 -459 3084 -895 
Q 2688 -1331 1869 -1331 
Q 1566 -1331 1297 -1286 
Q 1028 -1241 775 -1147 
L 775 -588 
Q 1028 -725 1275 -790 
Q 1522 -856 1778 -856 
Q 2344 -856 2625 -561 
Q 2906 -266 2906 331 
L 2906 616 
Q 2728 306 2450 153 
Q 2172 0 1784 0 
Q 1141 0 747 490 
Q 353 981 353 1791 
Q 353 2603 747 3093 
Q 1141 3584 1784 3584 
Q 2172 3584 2450 3431 
Q 2728 3278 2906 2969 
L 2906 3500 
L 3481 3500 
L 3481 434 
z
" transform="scale(0.015625)"/>
      <path id="DejaVuSans-43" d="M 4122 4306 
L 4122 3641 
Q 3803 3938 3442 4084 
Q 3081 4231 2675 4231 
Q 1875 4231 1450 3742 
Q 1025 3253 1025 2328 
Q 1025 1406 1450 917 
Q 1875 428 2675 428 
Q 3081 428 3442 575 
Q 3803 722 4122 1019 
L 4122 359 
Q 3791 134 3420 21 
Q 3050 -91 2638 -91 
Q 1578 -91 968 557 
Q 359 1206 359 2328 
Q 359 3453 968 4101 
Q 1578 4750 2638 4750 
Q 3056 4750 3426 4639 
Q 3797 4528 4122 4306 
z
" transform="scale(0.015625)"/>
     </defs>
     <use xlink:href="#DejaVuSans-53"/>
     <use xlink:href="#DejaVuSans-69" x="63.476562"/>
     <use xlink:href="#DejaVuSans-6d" x="91.259766"/>
     <use xlink:href="#DejaVuSans-75" x="188.671875"/>
     <use xlink:href="#DejaVuSans-6c" x="252.050781"/>
     <use xlink:href="#DejaVuSans-61" x="279.833984"/>
     <use xlink:href="#DejaVuSans-74" x="341.113281"/>
     <use xlink:href="#DejaVuSans-65" x="380.322266"/>
     <use xlink:href="#DejaVuSans-64" x="441.845703"/>
     <use xlink:href="#DejaVuSans-20" x="505.322266"/>
     <use xlink:href="#DejaVuSans-41" x="537.109375"/>
     <use xlink:href="#DejaVuSans-6e" x="605.517578"/>
     <use xlink:href="#DejaVuSans-65" x="668.896484"/>
     <use xlink:href="#DejaVuSans-61" x="730.419922"/>
     <use xlink:href="#DejaVuSans-6c" x="791.699219"/>
     <use xlink:href="#DejaVuSans-6c" x="819.482422"/>
     <use xlink:href="#DejaVuSans-69" x="847.265625"/>
     <use xlink:href="#DejaVuSans-6e" x="875.048828"/>
     <use xlink:href="#DejaVuSans-67" x="938.427734"/>
     <use xlink:href="#DejaVuSans-20" x="1001.904297"/>
     <use xlink:href="#DejaVuSans-43" x="1033.691406"/>
     <use xlink:href="#DejaVuSans-6f" x="1103.515625"/>
     <use xlink:href="#DejaVuSans-73" x="1164.697266"/>
     <use xlink:href="#DejaVuSans-74" x="1216.796875"/>
    </g>
   </g>
  </g>
 </g>
 <defs>
  <clipPath id="p6129494ecd">
   <rect x="57.6" y="41.472" width="357.12" height="266.112"/>
  </clipPath>
 </defs>
</svg>
