<?xml version="1.0" encoding="utf-8" standalone="no"?>
<!DOCTYPE svg PUBLIC "-//W3C//DTD SVG 1.1//EN"
  "http://www.w3.org/Graphics/SVG/1.1/DTD/svg11.dtd">
<svg xmlns:xlink="http://www.w3.org/1999/xlink" width="460.8pt" height="345.6pt" viewBox="0 0 460.8 345.6" xmlns="http://www.w3.org/2000/svg" version="1.1">
 <metadata>
  <rdf:RDF xmlns:dc="http://purl.org/dc/elements/1.1/" xmlns:cc="http://creativecommons.org/ns#" xmlns:rdf="http://www.w3.org/1999/02/22-rdf-syntax-ns#">
   <cc:Work>
    <dc:type rdf:resource="http://purl.org/dc/dcmitype/StillImage"/>
    <dc:date>2022-06-01T08:05:40.622254</dc:date>
    <dc:format>image/svg+xml</dc:format>
    <dc:creator>
     <cc:Agent>
      <dc:title>Matplotlib v3.5.1, https://matplotlib.org/</dc:title>
     </cc:Agent>
    </dc:creator>
   </cc:Work>
  </rdf:RDF>
 </metadata>
 <defs>
  <style type="text/css">*{stroke-linejoin: round; stroke-linecap: butt}</style>
 </defs>
 <g id="figure_1">
  <g id="patch_1">
   <path d="M 0 345.6 
L 460.8 345.6 
L 460.8 0 
L 0 0 
z
" style="fill: #ffffff"/>
  </g>
  <g id="axes_1">
   <g id="patch_2">
    <path d="M 57.6 307.584 
L 414.72 307.584 
L 414.72 41.472 
L 57.6 41.472 
z
" style="fill: #ffffff"/>
   </g>
   <g id="matplotlib.axis_1">
    <g id="xtick_1">
     <g id="line2d_1">
      <defs>
       <path id="m767d96f3b2" d="M 0 0 
L 0 3.5 
" style="stroke: #000000; stroke-width: 0.8"/>
      </defs>
      <g>
       <use xlink:href="#m767d96f3b2" x="73.832727" y="307.584" style="stroke: #000000; stroke-width: 0.8"/>
      </g>
     </g>
     <g id="text_1">
      <!-- 0 -->
      <g transform="translate(70.651477 322.182437)scale(0.1 -0.1)">
       <defs>
        <path id="DejaVuSans-30" d="M 2034 4250 
Q 1547 4250 1301 3770 
Q 1056 3291 1056 2328 
Q 1056 1369 1301 889 
Q 1547 409 2034 409 
Q 2525 409 2770 889 
Q 3016 1369 3016 2328 
Q 3016 3291 2770 3770 
Q 2525 4250 2034 4250 
z
M 2034 4750 
Q 2819 4750 3233 4129 
Q 3647 3509 3647 2328 
Q 3647 1150 3233 529 
Q 2819 -91 2034 -91 
Q 1250 -91 836 529 
Q 422 1150 422 2328 
Q 422 3509 836 4129 
Q 1250 4750 2034 4750 
z
" transform="scale(0.015625)"/>
       </defs>
       <use xlink:href="#DejaVuSans-30"/>
      </g>
     </g>
    </g>
    <g id="xtick_2">
     <g id="line2d_2">
      <g>
       <use xlink:href="#m767d96f3b2" x="117.883548" y="307.584" style="stroke: #000000; stroke-width: 0.8"/>
      </g>
     </g>
     <g id="text_2">
      <!-- 200 -->
      <g transform="translate(108.339798 322.182437)scale(0.1 -0.1)">
       <defs>
        <path id="DejaVuSans-32" d="M 1228 531 
L 3431 531 
L 3431 0 
L 469 0 
L 469 531 
Q 828 903 1448 1529 
Q 2069 2156 2228 2338 
Q 2531 2678 2651 2914 
Q 2772 3150 2772 3378 
Q 2772 3750 2511 3984 
Q 2250 4219 1831 4219 
Q 1534 4219 1204 4116 
Q 875 4013 500 3803 
L 500 4441 
Q 881 4594 1212 4672 
Q 1544 4750 1819 4750 
Q 2544 4750 2975 4387 
Q 3406 4025 3406 3419 
Q 3406 3131 3298 2873 
Q 3191 2616 2906 2266 
Q 2828 2175 2409 1742 
Q 1991 1309 1228 531 
z
" transform="scale(0.015625)"/>
       </defs>
       <use xlink:href="#DejaVuSans-32"/>
       <use xlink:href="#DejaVuSans-30" x="63.623047"/>
       <use xlink:href="#DejaVuSans-30" x="127.246094"/>
      </g>
     </g>
    </g>
    <g id="xtick_3">
     <g id="line2d_3">
      <g>
       <use xlink:href="#m767d96f3b2" x="161.934368" y="307.584" style="stroke: #000000; stroke-width: 0.8"/>
      </g>
     </g>
     <g id="text_3">
      <!-- 400 -->
      <g transform="translate(152.390618 322.182437)scale(0.1 -0.1)">
       <defs>
        <path id="DejaVuSans-34" d="M 2419 4116 
L 825 1625 
L 2419 1625 
L 2419 4116 
z
M 2253 4666 
L 3047 4666 
L 3047 1625 
L 3713 1625 
L 3713 1100 
L 3047 1100 
L 3047 0 
L 2419 0 
L 2419 1100 
L 313 1100 
L 313 1709 
L 2253 4666 
z
" transform="scale(0.015625)"/>
       </defs>
       <use xlink:href="#DejaVuSans-34"/>
       <use xlink:href="#DejaVuSans-30" x="63.623047"/>
       <use xlink:href="#DejaVuSans-30" x="127.246094"/>
      </g>
     </g>
    </g>
    <g id="xtick_4">
     <g id="line2d_4">
      <g>
       <use xlink:href="#m767d96f3b2" x="205.985188" y="307.584" style="stroke: #000000; stroke-width: 0.8"/>
      </g>
     </g>
     <g id="text_4">
      <!-- 600 -->
      <g transform="translate(196.441438 322.182437)scale(0.1 -0.1)">
       <defs>
        <path id="DejaVuSans-36" d="M 2113 2584 
Q 1688 2584 1439 2293 
Q 1191 2003 1191 1497 
Q 1191 994 1439 701 
Q 1688 409 2113 409 
Q 2538 409 2786 701 
Q 3034 994 3034 1497 
Q 3034 2003 2786 2293 
Q 2538 2584 2113 2584 
z
M 3366 4563 
L 3366 3988 
Q 3128 4100 2886 4159 
Q 2644 4219 2406 4219 
Q 1781 4219 1451 3797 
Q 1122 3375 1075 2522 
Q 1259 2794 1537 2939 
Q 1816 3084 2150 3084 
Q 2853 3084 3261 2657 
Q 3669 2231 3669 1497 
Q 3669 778 3244 343 
Q 2819 -91 2113 -91 
Q 1303 -91 875 529 
Q 447 1150 447 2328 
Q 447 3434 972 4092 
Q 1497 4750 2381 4750 
Q 2619 4750 2861 4703 
Q 3103 4656 3366 4563 
z
" transform="scale(0.015625)"/>
       </defs>
       <use xlink:href="#DejaVuSans-36"/>
       <use xlink:href="#DejaVuSans-30" x="63.623047"/>
       <use xlink:href="#DejaVuSans-30" x="127.246094"/>
      </g>
     </g>
    </g>
    <g id="xtick_5">
     <g id="line2d_5">
      <g>
       <use xlink:href="#m767d96f3b2" x="250.036008" y="307.584" style="stroke: #000000; stroke-width: 0.8"/>
      </g>
     </g>
     <g id="text_5">
      <!-- 800 -->
      <g transform="translate(240.492258 322.182437)scale(0.1 -0.1)">
       <defs>
        <path id="DejaVuSans-38" d="M 2034 2216 
Q 1584 2216 1326 1975 
Q 1069 1734 1069 1313 
Q 1069 891 1326 650 
Q 1584 409 2034 409 
Q 2484 409 2743 651 
Q 3003 894 3003 1313 
Q 3003 1734 2745 1975 
Q 2488 2216 2034 2216 
z
M 1403 2484 
Q 997 2584 770 2862 
Q 544 3141 544 3541 
Q 544 4100 942 4425 
Q 1341 4750 2034 4750 
Q 2731 4750 3128 4425 
Q 3525 4100 3525 3541 
Q 3525 3141 3298 2862 
Q 3072 2584 2669 2484 
Q 3125 2378 3379 2068 
Q 3634 1759 3634 1313 
Q 3634 634 3220 271 
Q 2806 -91 2034 -91 
Q 1263 -91 848 271 
Q 434 634 434 1313 
Q 434 1759 690 2068 
Q 947 2378 1403 2484 
z
M 1172 3481 
Q 1172 3119 1398 2916 
Q 1625 2713 2034 2713 
Q 2441 2713 2670 2916 
Q 2900 3119 2900 3481 
Q 2900 3844 2670 4047 
Q 2441 4250 2034 4250 
Q 1625 4250 1398 4047 
Q 1172 3844 1172 3481 
z
" transform="scale(0.015625)"/>
       </defs>
       <use xlink:href="#DejaVuSans-38"/>
       <use xlink:href="#DejaVuSans-30" x="63.623047"/>
       <use xlink:href="#DejaVuSans-30" x="127.246094"/>
      </g>
     </g>
    </g>
    <g id="xtick_6">
     <g id="line2d_6">
      <g>
       <use xlink:href="#m767d96f3b2" x="294.086829" y="307.584" style="stroke: #000000; stroke-width: 0.8"/>
      </g>
     </g>
     <g id="text_6">
      <!-- 1000 -->
      <g transform="translate(281.361829 322.182437)scale(0.1 -0.1)">
       <defs>
        <path id="DejaVuSans-31" d="M 794 531 
L 1825 531 
L 1825 4091 
L 703 3866 
L 703 4441 
L 1819 4666 
L 2450 4666 
L 2450 531 
L 3481 531 
L 3481 0 
L 794 0 
L 794 531 
z
" transform="scale(0.015625)"/>
       </defs>
       <use xlink:href="#DejaVuSans-31"/>
       <use xlink:href="#DejaVuSans-30" x="63.623047"/>
       <use xlink:href="#DejaVuSans-30" x="127.246094"/>
       <use xlink:href="#DejaVuSans-30" x="190.869141"/>
      </g>
     </g>
    </g>
    <g id="xtick_7">
     <g id="line2d_7">
      <g>
       <use xlink:href="#m767d96f3b2" x="338.137649" y="307.584" style="stroke: #000000; stroke-width: 0.8"/>
      </g>
     </g>
     <g id="text_7">
      <!-- 1200 -->
      <g transform="translate(325.412649 322.182437)scale(0.1 -0.1)">
       <use xlink:href="#DejaVuSans-31"/>
       <use xlink:href="#DejaVuSans-32" x="63.623047"/>
       <use xlink:href="#DejaVuSans-30" x="127.246094"/>
       <use xlink:href="#DejaVuSans-30" x="190.869141"/>
      </g>
     </g>
    </g>
    <g id="xtick_8">
     <g id="line2d_8">
      <g>
       <use xlink:href="#m767d96f3b2" x="382.188469" y="307.584" style="stroke: #000000; stroke-width: 0.8"/>
      </g>
     </g>
     <g id="text_8">
      <!-- 1400 -->
      <g transform="translate(369.463469 322.182437)scale(0.1 -0.1)">
       <use xlink:href="#DejaVuSans-31"/>
       <use xlink:href="#DejaVuSans-34" x="63.623047"/>
       <use xlink:href="#DejaVuSans-30" x="127.246094"/>
       <use xlink:href="#DejaVuSans-30" x="190.869141"/>
      </g>
     </g>
    </g>
    <g id="text_9">
     <!-- num swaps -->
     <g transform="translate(207.826406 335.860562)scale(0.1 -0.1)">
      <defs>
       <path id="DejaVuSans-6e" d="M 3513 2113 
L 3513 0 
L 2938 0 
L 2938 2094 
Q 2938 2591 2744 2837 
Q 2550 3084 2163 3084 
Q 1697 3084 1428 2787 
Q 1159 2491 1159 1978 
L 1159 0 
L 581 0 
L 581 3500 
L 1159 3500 
L 1159 2956 
Q 1366 3272 1645 3428 
Q 1925 3584 2291 3584 
Q 2894 3584 3203 3211 
Q 3513 2838 3513 2113 
z
" transform="scale(0.015625)"/>
       <path id="DejaVuSans-75" d="M 544 1381 
L 544 3500 
L 1119 3500 
L 1119 1403 
Q 1119 906 1312 657 
Q 1506 409 1894 409 
Q 2359 409 2629 706 
Q 2900 1003 2900 1516 
L 2900 3500 
L 3475 3500 
L 3475 0 
L 2900 0 
L 2900 538 
Q 2691 219 2414 64 
Q 2138 -91 1772 -91 
Q 1169 -91 856 284 
Q 544 659 544 1381 
z
M 1991 3584 
L 1991 3584 
z
" transform="scale(0.015625)"/>
       <path id="DejaVuSans-6d" d="M 3328 2828 
Q 3544 3216 3844 3400 
Q 4144 3584 4550 3584 
Q 5097 3584 5394 3201 
Q 5691 2819 5691 2113 
L 5691 0 
L 5113 0 
L 5113 2094 
Q 5113 2597 4934 2840 
Q 4756 3084 4391 3084 
Q 3944 3084 3684 2787 
Q 3425 2491 3425 1978 
L 3425 0 
L 2847 0 
L 2847 2094 
Q 2847 2600 2669 2842 
Q 2491 3084 2119 3084 
Q 1678 3084 1418 2786 
Q 1159 2488 1159 1978 
L 1159 0 
L 581 0 
L 581 3500 
L 1159 3500 
L 1159 2956 
Q 1356 3278 1631 3431 
Q 1906 3584 2284 3584 
Q 2666 3584 2933 3390 
Q 3200 3197 3328 2828 
z
" transform="scale(0.015625)"/>
       <path id="DejaVuSans-20" transform="scale(0.015625)"/>
       <path id="DejaVuSans-73" d="M 2834 3397 
L 2834 2853 
Q 2591 2978 2328 3040 
Q 2066 3103 1784 3103 
Q 1356 3103 1142 2972 
Q 928 2841 928 2578 
Q 928 2378 1081 2264 
Q 1234 2150 1697 2047 
L 1894 2003 
Q 2506 1872 2764 1633 
Q 3022 1394 3022 966 
Q 3022 478 2636 193 
Q 2250 -91 1575 -91 
Q 1294 -91 989 -36 
Q 684 19 347 128 
L 347 722 
Q 666 556 975 473 
Q 1284 391 1588 391 
Q 1994 391 2212 530 
Q 2431 669 2431 922 
Q 2431 1156 2273 1281 
Q 2116 1406 1581 1522 
L 1381 1569 
Q 847 1681 609 1914 
Q 372 2147 372 2553 
Q 372 3047 722 3315 
Q 1072 3584 1716 3584 
Q 2034 3584 2315 3537 
Q 2597 3491 2834 3397 
z
" transform="scale(0.015625)"/>
       <path id="DejaVuSans-77" d="M 269 3500 
L 844 3500 
L 1563 769 
L 2278 3500 
L 2956 3500 
L 3675 769 
L 4391 3500 
L 4966 3500 
L 4050 0 
L 3372 0 
L 2619 2869 
L 1863 0 
L 1184 0 
L 269 3500 
z
" transform="scale(0.015625)"/>
       <path id="DejaVuSans-61" d="M 2194 1759 
Q 1497 1759 1228 1600 
Q 959 1441 959 1056 
Q 959 750 1161 570 
Q 1363 391 1709 391 
Q 2188 391 2477 730 
Q 2766 1069 2766 1631 
L 2766 1759 
L 2194 1759 
z
M 3341 1997 
L 3341 0 
L 2766 0 
L 2766 531 
Q 2569 213 2275 61 
Q 1981 -91 1556 -91 
Q 1019 -91 701 211 
Q 384 513 384 1019 
Q 384 1609 779 1909 
Q 1175 2209 1959 2209 
L 2766 2209 
L 2766 2266 
Q 2766 2663 2505 2880 
Q 2244 3097 1772 3097 
Q 1472 3097 1187 3025 
Q 903 2953 641 2809 
L 641 3341 
Q 956 3463 1253 3523 
Q 1550 3584 1831 3584 
Q 2591 3584 2966 3190 
Q 3341 2797 3341 1997 
z
" transform="scale(0.015625)"/>
       <path id="DejaVuSans-70" d="M 1159 525 
L 1159 -1331 
L 581 -1331 
L 581 3500 
L 1159 3500 
L 1159 2969 
Q 1341 3281 1617 3432 
Q 1894 3584 2278 3584 
Q 2916 3584 3314 3078 
Q 3713 2572 3713 1747 
Q 3713 922 3314 415 
Q 2916 -91 2278 -91 
Q 1894 -91 1617 61 
Q 1341 213 1159 525 
z
M 3116 1747 
Q 3116 2381 2855 2742 
Q 2594 3103 2138 3103 
Q 1681 3103 1420 2742 
Q 1159 2381 1159 1747 
Q 1159 1113 1420 752 
Q 1681 391 2138 391 
Q 2594 391 2855 752 
Q 3116 1113 3116 1747 
z
" transform="scale(0.015625)"/>
      </defs>
      <use xlink:href="#DejaVuSans-6e"/>
      <use xlink:href="#DejaVuSans-75" x="63.378906"/>
      <use xlink:href="#DejaVuSans-6d" x="126.757812"/>
      <use xlink:href="#DejaVuSans-20" x="224.169922"/>
      <use xlink:href="#DejaVuSans-73" x="255.957031"/>
      <use xlink:href="#DejaVuSans-77" x="308.056641"/>
      <use xlink:href="#DejaVuSans-61" x="389.84375"/>
      <use xlink:href="#DejaVuSans-70" x="451.123047"/>
      <use xlink:href="#DejaVuSans-73" x="514.599609"/>
     </g>
    </g>
   </g>
   <g id="matplotlib.axis_2">
    <g id="ytick_1">
     <g id="line2d_9">
      <defs>
       <path id="m88adfd29d7" d="M 0 0 
L -3.5 0 
" style="stroke: #000000; stroke-width: 0.8"/>
      </defs>
      <g>
       <use xlink:href="#m88adfd29d7" x="57.6" y="292.425722" style="stroke: #000000; stroke-width: 0.8"/>
      </g>
     </g>
     <g id="text_10">
      <!-- 400 -->
      <g transform="translate(31.5125 296.22494)scale(0.1 -0.1)">
       <use xlink:href="#DejaVuSans-34"/>
       <use xlink:href="#DejaVuSans-30" x="63.623047"/>
       <use xlink:href="#DejaVuSans-30" x="127.246094"/>
      </g>
     </g>
    </g>
    <g id="ytick_2">
     <g id="line2d_10">
      <g>
       <use xlink:href="#m88adfd29d7" x="57.6" y="261.802937" style="stroke: #000000; stroke-width: 0.8"/>
      </g>
     </g>
     <g id="text_11">
      <!-- 410 -->
      <g transform="translate(31.5125 265.602155)scale(0.1 -0.1)">
       <use xlink:href="#DejaVuSans-34"/>
       <use xlink:href="#DejaVuSans-31" x="63.623047"/>
       <use xlink:href="#DejaVuSans-30" x="127.246094"/>
      </g>
     </g>
    </g>
    <g id="ytick_3">
     <g id="line2d_11">
      <g>
       <use xlink:href="#m88adfd29d7" x="57.6" y="231.180152" style="stroke: #000000; stroke-width: 0.8"/>
      </g>
     </g>
     <g id="text_12">
      <!-- 420 -->
      <g transform="translate(31.5125 234.979371)scale(0.1 -0.1)">
       <use xlink:href="#DejaVuSans-34"/>
       <use xlink:href="#DejaVuSans-32" x="63.623047"/>
       <use xlink:href="#DejaVuSans-30" x="127.246094"/>
      </g>
     </g>
    </g>
    <g id="ytick_4">
     <g id="line2d_12">
      <g>
       <use xlink:href="#m88adfd29d7" x="57.6" y="200.557367" style="stroke: #000000; stroke-width: 0.8"/>
      </g>
     </g>
     <g id="text_13">
      <!-- 430 -->
      <g transform="translate(31.5125 204.356586)scale(0.1 -0.1)">
       <defs>
        <path id="DejaVuSans-33" d="M 2597 2516 
Q 3050 2419 3304 2112 
Q 3559 1806 3559 1356 
Q 3559 666 3084 287 
Q 2609 -91 1734 -91 
Q 1441 -91 1130 -33 
Q 819 25 488 141 
L 488 750 
Q 750 597 1062 519 
Q 1375 441 1716 441 
Q 2309 441 2620 675 
Q 2931 909 2931 1356 
Q 2931 1769 2642 2001 
Q 2353 2234 1838 2234 
L 1294 2234 
L 1294 2753 
L 1863 2753 
Q 2328 2753 2575 2939 
Q 2822 3125 2822 3475 
Q 2822 3834 2567 4026 
Q 2313 4219 1838 4219 
Q 1578 4219 1281 4162 
Q 984 4106 628 3988 
L 628 4550 
Q 988 4650 1302 4700 
Q 1616 4750 1894 4750 
Q 2613 4750 3031 4423 
Q 3450 4097 3450 3541 
Q 3450 3153 3228 2886 
Q 3006 2619 2597 2516 
z
" transform="scale(0.015625)"/>
       </defs>
       <use xlink:href="#DejaVuSans-34"/>
       <use xlink:href="#DejaVuSans-33" x="63.623047"/>
       <use xlink:href="#DejaVuSans-30" x="127.246094"/>
      </g>
     </g>
    </g>
    <g id="ytick_5">
     <g id="line2d_13">
      <g>
       <use xlink:href="#m88adfd29d7" x="57.6" y="169.934582" style="stroke: #000000; stroke-width: 0.8"/>
      </g>
     </g>
     <g id="text_14">
      <!-- 440 -->
      <g transform="translate(31.5125 173.733801)scale(0.1 -0.1)">
       <use xlink:href="#DejaVuSans-34"/>
       <use xlink:href="#DejaVuSans-34" x="63.623047"/>
       <use xlink:href="#DejaVuSans-30" x="127.246094"/>
      </g>
     </g>
    </g>
    <g id="ytick_6">
     <g id="line2d_14">
      <g>
       <use xlink:href="#m88adfd29d7" x="57.6" y="139.311797" style="stroke: #000000; stroke-width: 0.8"/>
      </g>
     </g>
     <g id="text_15">
      <!-- 450 -->
      <g transform="translate(31.5125 143.111016)scale(0.1 -0.1)">
       <defs>
        <path id="DejaVuSans-35" d="M 691 4666 
L 3169 4666 
L 3169 4134 
L 1269 4134 
L 1269 2991 
Q 1406 3038 1543 3061 
Q 1681 3084 1819 3084 
Q 2600 3084 3056 2656 
Q 3513 2228 3513 1497 
Q 3513 744 3044 326 
Q 2575 -91 1722 -91 
Q 1428 -91 1123 -41 
Q 819 9 494 109 
L 494 744 
Q 775 591 1075 516 
Q 1375 441 1709 441 
Q 2250 441 2565 725 
Q 2881 1009 2881 1497 
Q 2881 1984 2565 2268 
Q 2250 2553 1709 2553 
Q 1456 2553 1204 2497 
Q 953 2441 691 2322 
L 691 4666 
z
" transform="scale(0.015625)"/>
       </defs>
       <use xlink:href="#DejaVuSans-34"/>
       <use xlink:href="#DejaVuSans-35" x="63.623047"/>
       <use xlink:href="#DejaVuSans-30" x="127.246094"/>
      </g>
     </g>
    </g>
    <g id="ytick_7">
     <g id="line2d_15">
      <g>
       <use xlink:href="#m88adfd29d7" x="57.6" y="108.689013" style="stroke: #000000; stroke-width: 0.8"/>
      </g>
     </g>
     <g id="text_16">
      <!-- 460 -->
      <g transform="translate(31.5125 112.488231)scale(0.1 -0.1)">
       <use xlink:href="#DejaVuSans-34"/>
       <use xlink:href="#DejaVuSans-36" x="63.623047"/>
       <use xlink:href="#DejaVuSans-30" x="127.246094"/>
      </g>
     </g>
    </g>
    <g id="ytick_8">
     <g id="line2d_16">
      <g>
       <use xlink:href="#m88adfd29d7" x="57.6" y="78.066228" style="stroke: #000000; stroke-width: 0.8"/>
      </g>
     </g>
     <g id="text_17">
      <!-- 470 -->
      <g transform="translate(31.5125 81.865447)scale(0.1 -0.1)">
       <defs>
        <path id="DejaVuSans-37" d="M 525 4666 
L 3525 4666 
L 3525 4397 
L 1831 0 
L 1172 0 
L 2766 4134 
L 525 4134 
L 525 4666 
z
" transform="scale(0.015625)"/>
       </defs>
       <use xlink:href="#DejaVuSans-34"/>
       <use xlink:href="#DejaVuSans-37" x="63.623047"/>
       <use xlink:href="#DejaVuSans-30" x="127.246094"/>
      </g>
     </g>
    </g>
    <g id="ytick_9">
     <g id="line2d_17">
      <g>
       <use xlink:href="#m88adfd29d7" x="57.6" y="47.443443" style="stroke: #000000; stroke-width: 0.8"/>
      </g>
     </g>
     <g id="text_18">
      <!-- 480 -->
      <g transform="translate(31.5125 51.242662)scale(0.1 -0.1)">
       <use xlink:href="#DejaVuSans-34"/>
       <use xlink:href="#DejaVuSans-38" x="63.623047"/>
       <use xlink:href="#DejaVuSans-30" x="127.246094"/>
      </g>
     </g>
    </g>
    <g id="text_19">
     <!-- total cost -->
     <g transform="translate(25.432812 197.923313)rotate(-90)scale(0.1 -0.1)">
      <defs>
       <path id="DejaVuSans-74" d="M 1172 4494 
L 1172 3500 
L 2356 3500 
L 2356 3053 
L 1172 3053 
L 1172 1153 
Q 1172 725 1289 603 
Q 1406 481 1766 481 
L 2356 481 
L 2356 0 
L 1766 0 
Q 1100 0 847 248 
Q 594 497 594 1153 
L 594 3053 
L 172 3053 
L 172 3500 
L 594 3500 
L 594 4494 
L 1172 4494 
z
" transform="scale(0.015625)"/>
       <path id="DejaVuSans-6f" d="M 1959 3097 
Q 1497 3097 1228 2736 
Q 959 2375 959 1747 
Q 959 1119 1226 758 
Q 1494 397 1959 397 
Q 2419 397 2687 759 
Q 2956 1122 2956 1747 
Q 2956 2369 2687 2733 
Q 2419 3097 1959 3097 
z
M 1959 3584 
Q 2709 3584 3137 3096 
Q 3566 2609 3566 1747 
Q 3566 888 3137 398 
Q 2709 -91 1959 -91 
Q 1206 -91 779 398 
Q 353 888 353 1747 
Q 353 2609 779 3096 
Q 1206 3584 1959 3584 
z
" transform="scale(0.015625)"/>
       <path id="DejaVuSans-6c" d="M 603 4863 
L 1178 4863 
L 1178 0 
L 603 0 
L 603 4863 
z
" transform="scale(0.015625)"/>
       <path id="DejaVuSans-63" d="M 3122 3366 
L 3122 2828 
Q 2878 2963 2633 3030 
Q 2388 3097 2138 3097 
Q 1578 3097 1268 2742 
Q 959 2388 959 1747 
Q 959 1106 1268 751 
Q 1578 397 2138 397 
Q 2388 397 2633 464 
Q 2878 531 3122 666 
L 3122 134 
Q 2881 22 2623 -34 
Q 2366 -91 2075 -91 
Q 1284 -91 818 406 
Q 353 903 353 1747 
Q 353 2603 823 3093 
Q 1294 3584 2113 3584 
Q 2378 3584 2631 3529 
Q 2884 3475 3122 3366 
z
" transform="scale(0.015625)"/>
      </defs>
      <use xlink:href="#DejaVuSans-74"/>
      <use xlink:href="#DejaVuSans-6f" x="39.208984"/>
      <use xlink:href="#DejaVuSans-74" x="100.390625"/>
      <use xlink:href="#DejaVuSans-61" x="139.599609"/>
      <use xlink:href="#DejaVuSans-6c" x="200.878906"/>
      <use xlink:href="#DejaVuSans-20" x="228.662109"/>
      <use xlink:href="#DejaVuSans-63" x="260.449219"/>
      <use xlink:href="#DejaVuSans-6f" x="315.429688"/>
      <use xlink:href="#DejaVuSans-73" x="376.611328"/>
      <use xlink:href="#DejaVuSans-74" x="428.710938"/>
     </g>
    </g>
   </g>
   <g id="line2d_18">
    <path d="M 73.832727 225.055595 
L 74.273235 228.117873 
L 74.713744 203.619646 
L 75.154252 200.557367 
L 75.59476 200.557367 
L 76.035268 206.681924 
L 76.916285 206.681924 
L 77.356793 215.868759 
L 77.797301 209.744203 
L 78.237809 212.806481 
L 78.678318 234.24243 
L 79.118826 234.24243 
L 79.559334 225.055595 
L 79.999842 237.304709 
L 80.44035 228.117873 
L 80.880859 221.993316 
L 81.321367 225.055595 
L 81.761875 215.868759 
L 82.202383 212.806481 
L 82.642891 206.681924 
L 83.523908 188.308253 
L 83.964416 188.308253 
L 84.404924 179.121418 
L 84.845432 163.810025 
L 85.726449 209.744203 
L 86.607465 215.868759 
L 87.488482 172.996861 
L 87.92899 142.374076 
L 88.369498 142.374076 
L 88.810006 154.62319 
L 89.691023 127.062684 
L 90.131531 127.062684 
L 90.572039 139.311797 
L 91.893564 148.498633 
L 92.334072 160.747747 
L 92.77458 166.872304 
L 93.655596 194.43281 
L 94.096105 169.934582 
L 94.536613 185.245975 
L 95.417629 185.245975 
L 95.858137 179.121418 
L 96.298646 185.245975 
L 96.739154 194.43281 
L 97.179662 182.183696 
L 97.62017 176.059139 
L 98.060678 172.996861 
L 98.501187 194.43281 
L 98.941695 185.245975 
L 99.382203 200.557367 
L 99.822711 203.619646 
L 100.263219 212.806481 
L 100.703728 215.868759 
L 101.144236 228.117873 
L 101.584744 249.553823 
L 102.025252 246.491544 
L 102.46576 249.553823 
L 102.906269 237.304709 
L 103.346777 240.366987 
L 103.787285 252.616101 
L 104.227793 234.24243 
L 104.668301 231.180152 
L 105.10881 234.24243 
L 105.549318 228.117873 
L 105.989826 231.180152 
L 106.870842 209.744203 
L 107.311351 203.619646 
L 108.192367 203.619646 
L 108.632875 209.744203 
L 109.073383 221.993316 
L 109.513892 228.117873 
L 109.9544 221.993316 
L 110.835416 200.557367 
L 111.275925 197.495089 
L 111.716433 176.059139 
L 112.156941 172.996861 
L 112.597449 172.996861 
L 113.037957 179.121418 
L 113.478466 194.43281 
L 113.918974 218.931038 
L 114.359482 209.744203 
L 114.79999 212.806481 
L 115.240498 200.557367 
L 115.681007 206.681924 
L 116.121515 209.744203 
L 116.562023 206.681924 
L 117.002531 215.868759 
L 117.443039 209.744203 
L 117.883548 209.744203 
L 118.324056 200.557367 
L 118.764564 218.931038 
L 119.205072 231.180152 
L 119.64558 212.806481 
L 120.086089 221.993316 
L 120.526597 255.67838 
L 120.967105 255.67838 
L 121.407613 274.052051 
L 121.848121 280.176608 
L 122.28863 267.927494 
L 122.729138 246.491544 
L 123.169646 240.366987 
L 123.610154 252.616101 
L 124.050662 255.67838 
L 124.491171 267.927494 
L 124.931679 264.865215 
L 125.372187 252.616101 
L 125.812695 277.114329 
L 126.253203 261.802937 
L 126.693712 258.740658 
L 127.13422 264.865215 
L 127.574728 252.616101 
L 128.015236 249.553823 
L 128.896253 255.67838 
L 129.336761 228.117873 
L 129.777269 212.806481 
L 130.217777 203.619646 
L 130.658285 215.868759 
L 131.098794 209.744203 
L 131.539302 225.055595 
L 131.97981 261.802937 
L 132.420318 252.616101 
L 132.860826 258.740658 
L 133.301335 261.802937 
L 133.741843 252.616101 
L 134.182351 283.238886 
L 134.622859 277.114329 
L 135.063367 295.488 
L 135.503876 274.052051 
L 135.944384 289.363443 
L 136.384892 246.491544 
L 136.8254 252.616101 
L 137.706417 277.114329 
L 138.146925 280.176608 
L 138.587433 267.927494 
L 139.027941 261.802937 
L 139.468449 249.553823 
L 139.908958 255.67838 
L 140.349466 246.491544 
L 140.789974 240.366987 
L 141.230482 249.553823 
L 141.670991 228.117873 
L 142.111499 237.304709 
L 142.552007 221.993316 
L 143.433023 182.183696 
L 143.873532 169.934582 
L 144.31404 172.996861 
L 144.754548 166.872304 
L 145.195056 176.059139 
L 145.635564 169.934582 
L 146.076073 169.934582 
L 146.516581 182.183696 
L 146.957089 203.619646 
L 147.397597 212.806481 
L 147.838105 209.744203 
L 148.278614 203.619646 
L 148.719122 209.744203 
L 149.15963 200.557367 
L 149.600138 203.619646 
L 150.040646 197.495089 
L 150.481155 194.43281 
L 150.921663 182.183696 
L 151.362171 176.059139 
L 151.802679 191.370532 
L 152.243187 197.495089 
L 152.683696 200.557367 
L 153.124204 194.43281 
L 153.564712 194.43281 
L 154.445728 218.931038 
L 154.886237 221.993316 
L 155.326745 234.24243 
L 155.767253 234.24243 
L 156.207761 240.366987 
L 156.648269 231.180152 
L 157.088778 231.180152 
L 157.529286 225.055595 
L 157.969794 234.24243 
L 158.410302 212.806481 
L 159.291319 243.429266 
L 159.731827 237.304709 
L 160.172335 258.740658 
L 161.053351 225.055595 
L 161.49386 240.366987 
L 161.934368 200.557367 
L 162.374876 212.806481 
L 162.815384 203.619646 
L 163.255892 197.495089 
L 163.696401 188.308253 
L 164.136909 194.43281 
L 164.577417 194.43281 
L 165.017925 188.308253 
L 165.898942 151.560911 
L 166.33945 154.62319 
L 167.220466 176.059139 
L 167.660974 203.619646 
L 168.541991 215.868759 
L 168.982499 237.304709 
L 169.423007 240.366987 
L 169.863515 160.747747 
L 170.304024 172.996861 
L 170.744532 136.249519 
L 171.18504 124.000405 
L 171.625548 133.187241 
L 172.066056 130.124962 
L 172.506565 136.249519 
L 172.947073 133.187241 
L 173.387581 102.564456 
L 173.828089 99.502177 
L 174.268598 56.630278 
L 174.709106 53.568 
L 175.149614 84.190785 
L 175.590122 93.37762 
L 176.03063 99.502177 
L 176.471139 90.315342 
L 176.911647 87.253063 
L 177.352155 108.689013 
L 177.792663 111.751291 
L 178.233171 117.875848 
L 178.67368 136.249519 
L 179.114188 145.436354 
L 179.554696 148.498633 
L 179.995204 111.751291 
L 180.435712 120.938127 
L 180.876221 114.81357 
L 181.757237 139.311797 
L 182.197745 142.374076 
L 182.638253 154.62319 
L 183.078762 151.560911 
L 183.959778 179.121418 
L 184.400286 169.934582 
L 184.840794 157.685468 
L 185.281303 163.810025 
L 185.721811 124.000405 
L 186.162319 120.938127 
L 186.602827 127.062684 
L 187.043335 136.249519 
L 187.483844 127.062684 
L 188.36486 133.187241 
L 188.805368 212.806481 
L 189.245876 234.24243 
L 189.686385 231.180152 
L 190.567401 249.553823 
L 191.007909 249.553823 
L 191.448417 243.429266 
L 191.888926 261.802937 
L 192.329434 246.491544 
L 192.769942 252.616101 
L 193.650958 231.180152 
L 194.091467 234.24243 
L 194.531975 225.055595 
L 194.972483 221.993316 
L 195.412991 231.180152 
L 195.853499 231.180152 
L 196.294008 237.304709 
L 196.734516 225.055595 
L 197.175024 231.180152 
L 197.615532 252.616101 
L 198.05604 252.616101 
L 198.496549 240.366987 
L 198.937057 234.24243 
L 199.377565 237.304709 
L 199.818073 237.304709 
L 200.258581 258.740658 
L 200.69909 249.553823 
L 201.139598 258.740658 
L 201.580106 249.553823 
L 202.020614 280.176608 
L 202.901631 237.304709 
L 203.342139 255.67838 
L 203.782647 255.67838 
L 204.223155 258.740658 
L 204.663664 270.989772 
L 205.104172 277.114329 
L 205.54468 255.67838 
L 205.985188 246.491544 
L 206.425696 225.055595 
L 206.866205 234.24243 
L 207.747221 240.366987 
L 208.187729 246.491544 
L 208.628237 237.304709 
L 209.068746 231.180152 
L 209.509254 209.744203 
L 210.39027 191.370532 
L 211.271287 191.370532 
L 211.711795 185.245975 
L 212.152303 172.996861 
L 213.033319 194.43281 
L 213.473828 172.996861 
L 213.914336 169.934582 
L 214.795352 191.370532 
L 215.23586 185.245975 
L 215.676369 255.67838 
L 216.116877 267.927494 
L 216.557385 255.67838 
L 216.997893 160.747747 
L 217.438401 255.67838 
L 217.87891 264.865215 
L 218.319418 280.176608 
L 219.200434 249.553823 
L 219.640942 255.67838 
L 220.521959 261.802937 
L 220.962467 234.24243 
L 221.402975 231.180152 
L 221.843483 215.868759 
L 222.283992 209.744203 
L 222.7245 185.245975 
L 223.165008 182.183696 
L 223.605516 194.43281 
L 224.046024 194.43281 
L 224.486533 228.117873 
L 224.927041 221.993316 
L 225.367549 209.744203 
L 225.808057 206.681924 
L 226.248565 228.117873 
L 226.689074 169.934582 
L 227.129582 142.374076 
L 227.57009 148.498633 
L 228.010598 151.560911 
L 228.451106 130.124962 
L 228.891615 130.124962 
L 229.332123 124.000405 
L 229.772631 136.249519 
L 230.213139 124.000405 
L 230.653647 130.124962 
L 231.094156 105.626734 
L 231.534664 96.439899 
L 231.975172 108.689013 
L 232.41568 136.249519 
L 232.856188 148.498633 
L 233.296697 142.374076 
L 233.737205 139.311797 
L 234.177713 142.374076 
L 234.618221 151.560911 
L 235.058729 154.62319 
L 235.939746 191.370532 
L 236.820762 157.685468 
L 237.261271 160.747747 
L 237.701779 160.747747 
L 238.142287 179.121418 
L 238.582795 228.117873 
L 239.023303 237.304709 
L 239.463812 215.868759 
L 239.90432 243.429266 
L 240.344828 228.117873 
L 240.785336 231.180152 
L 241.225844 240.366987 
L 241.666353 264.865215 
L 242.106861 261.802937 
L 242.547369 252.616101 
L 242.987877 252.616101 
L 243.428385 264.865215 
L 243.868894 246.491544 
L 244.74991 225.055595 
L 245.190418 225.055595 
L 246.071435 212.806481 
L 246.511943 215.868759 
L 246.952451 185.245975 
L 247.392959 182.183696 
L 247.833467 200.557367 
L 248.273976 231.180152 
L 248.714484 221.993316 
L 249.154992 243.429266 
L 249.5955 234.24243 
L 250.036008 261.802937 
L 250.476517 255.67838 
L 250.917025 277.114329 
L 251.357533 267.927494 
L 252.238549 267.927494 
L 252.679058 249.553823 
L 253.119566 243.429266 
L 253.560074 243.429266 
L 254.000582 252.616101 
L 254.44109 252.616101 
L 255.322107 258.740658 
L 255.762615 255.67838 
L 256.203123 280.176608 
L 256.643631 280.176608 
L 257.08414 283.238886 
L 257.524648 280.176608 
L 257.965156 267.927494 
L 258.405664 274.052051 
L 258.846172 270.989772 
L 259.286681 277.114329 
L 259.727189 240.366987 
L 260.167697 231.180152 
L 260.608205 206.681924 
L 261.489222 206.681924 
L 261.92973 203.619646 
L 262.370238 221.993316 
L 262.810746 218.931038 
L 263.691763 191.370532 
L 264.132271 194.43281 
L 264.572779 169.934582 
L 265.013287 169.934582 
L 265.453795 209.744203 
L 266.334812 231.180152 
L 266.77532 258.740658 
L 267.215828 270.989772 
L 268.096845 270.989772 
L 268.537353 258.740658 
L 268.977861 258.740658 
L 269.418369 264.865215 
L 269.858878 258.740658 
L 270.739894 240.366987 
L 271.180402 200.557367 
L 271.62091 203.619646 
L 272.501927 191.370532 
L 272.942435 172.996861 
L 273.382943 145.436354 
L 273.823451 145.436354 
L 274.26396 179.121418 
L 274.704468 182.183696 
L 275.144976 191.370532 
L 275.585484 185.245975 
L 276.025992 194.43281 
L 276.466501 182.183696 
L 276.907009 182.183696 
L 277.347517 185.245975 
L 277.788025 197.495089 
L 278.228533 228.117873 
L 278.669042 234.24243 
L 279.10955 209.744203 
L 279.550058 197.495089 
L 280.431074 203.619646 
L 280.871583 197.495089 
L 281.312091 212.806481 
L 281.752599 200.557367 
L 282.193107 234.24243 
L 282.633615 237.304709 
L 283.074124 243.429266 
L 283.514632 267.927494 
L 283.95514 249.553823 
L 284.395648 243.429266 
L 284.836156 255.67838 
L 285.276665 280.176608 
L 285.717173 286.301165 
L 286.157681 261.802937 
L 286.598189 206.681924 
L 287.479206 179.121418 
L 287.919714 185.245975 
L 288.360222 203.619646 
L 288.80073 203.619646 
L 289.241238 221.993316 
L 289.681747 221.993316 
L 290.122255 243.429266 
L 290.562763 228.117873 
L 291.003271 231.180152 
L 291.443779 206.681924 
L 291.884288 172.996861 
L 292.324796 163.810025 
L 292.765304 172.996861 
L 293.205812 172.996861 
L 293.64632 179.121418 
L 294.086829 169.934582 
L 294.527337 157.685468 
L 294.967845 166.872304 
L 295.408353 179.121418 
L 295.848861 148.498633 
L 296.729878 154.62319 
L 297.170386 151.560911 
L 297.610894 185.245975 
L 298.051402 176.059139 
L 298.491911 176.059139 
L 299.372927 157.685468 
L 299.813435 160.747747 
L 300.253944 157.685468 
L 300.694452 157.685468 
L 301.13496 172.996861 
L 302.015976 185.245975 
L 302.456485 182.183696 
L 302.896993 200.557367 
L 303.337501 197.495089 
L 303.778009 172.996861 
L 304.218517 191.370532 
L 304.659026 194.43281 
L 305.099534 191.370532 
L 305.540042 212.806481 
L 306.421058 237.304709 
L 306.861567 240.366987 
L 307.302075 209.744203 
L 307.742583 188.308253 
L 308.183091 200.557367 
L 308.623599 197.495089 
L 309.064108 188.308253 
L 309.504616 194.43281 
L 309.945124 191.370532 
L 310.385632 212.806481 
L 311.266649 212.806481 
L 312.147665 206.681924 
L 312.588173 182.183696 
L 313.028681 179.121418 
L 313.46919 172.996861 
L 313.909698 176.059139 
L 314.350206 163.810025 
L 314.790714 172.996861 
L 315.231222 172.996861 
L 315.671731 90.315342 
L 316.112239 90.315342 
L 316.552747 99.502177 
L 316.993255 105.626734 
L 317.433763 120.938127 
L 317.874272 157.685468 
L 318.31478 139.311797 
L 318.755288 145.436354 
L 319.195796 160.747747 
L 319.636304 157.685468 
L 320.076813 160.747747 
L 320.517321 142.374076 
L 320.957829 145.436354 
L 321.398337 145.436354 
L 321.838845 154.62319 
L 322.279354 237.304709 
L 322.719862 246.491544 
L 323.16037 231.180152 
L 323.600878 225.055595 
L 324.041386 225.055595 
L 324.481895 221.993316 
L 324.922403 228.117873 
L 325.362911 203.619646 
L 325.803419 203.619646 
L 326.243927 221.993316 
L 326.684436 218.931038 
L 327.124944 212.806481 
L 327.565452 194.43281 
L 328.00596 200.557367 
L 328.446468 212.806481 
L 329.327485 191.370532 
L 329.767993 197.495089 
L 330.208501 191.370532 
L 330.649009 197.495089 
L 331.089518 209.744203 
L 331.530026 212.806481 
L 332.411042 231.180152 
L 332.851551 225.055595 
L 333.292059 221.993316 
L 333.732567 215.868759 
L 334.173075 191.370532 
L 335.054092 218.931038 
L 335.4946 215.868759 
L 335.935108 203.619646 
L 336.375616 218.931038 
L 336.816124 209.744203 
L 337.256633 221.993316 
L 338.137649 209.744203 
L 338.578157 221.993316 
L 339.018665 225.055595 
L 339.459174 206.681924 
L 339.899682 221.993316 
L 340.34019 203.619646 
L 340.780698 203.619646 
L 341.221206 191.370532 
L 341.661715 200.557367 
L 342.102223 179.121418 
L 342.542731 169.934582 
L 342.983239 163.810025 
L 343.423747 169.934582 
L 343.864256 124.000405 
L 344.304764 124.000405 
L 344.745272 148.498633 
L 345.18578 142.374076 
L 345.626288 133.187241 
L 346.066797 120.938127 
L 346.507305 160.747747 
L 346.947813 163.810025 
L 347.388321 188.308253 
L 347.828829 194.43281 
L 348.269338 179.121418 
L 348.709846 179.121418 
L 349.150354 203.619646 
L 349.590862 200.557367 
L 350.03137 188.308253 
L 350.471879 206.681924 
L 351.352895 218.931038 
L 351.793403 203.619646 
L 352.233911 200.557367 
L 352.67442 237.304709 
L 353.114928 258.740658 
L 353.555436 231.180152 
L 353.995944 240.366987 
L 354.436452 240.366987 
L 354.876961 234.24243 
L 355.317469 231.180152 
L 355.757977 231.180152 
L 356.198485 218.931038 
L 356.638993 225.055595 
L 357.079502 212.806481 
L 357.52001 206.681924 
L 357.960518 221.993316 
L 358.401026 231.180152 
L 358.841534 200.557367 
L 359.282043 203.619646 
L 359.722551 225.055595 
L 360.163059 197.495089 
L 360.603567 200.557367 
L 361.044075 194.43281 
L 361.484584 194.43281 
L 361.925092 182.183696 
L 362.3656 203.619646 
L 362.806108 197.495089 
L 363.246617 169.934582 
L 363.687125 182.183696 
L 364.127633 154.62319 
L 364.568141 172.996861 
L 365.008649 176.059139 
L 365.449158 188.308253 
L 365.889666 194.43281 
L 366.330174 166.872304 
L 366.770682 172.996861 
L 367.21119 182.183696 
L 367.651699 172.996861 
L 368.092207 185.245975 
L 368.532715 182.183696 
L 368.973223 185.245975 
L 369.413731 194.43281 
L 369.85424 179.121418 
L 370.294748 191.370532 
L 370.735256 194.43281 
L 371.175764 188.308253 
L 371.616272 179.121418 
L 372.497289 197.495089 
L 372.937797 191.370532 
L 373.378305 191.370532 
L 373.818813 188.308253 
L 374.259322 188.308253 
L 375.140338 160.747747 
L 375.580846 160.747747 
L 376.021354 166.872304 
L 376.461863 179.121418 
L 376.902371 176.059139 
L 377.342879 185.245975 
L 378.223895 166.872304 
L 378.664404 151.560911 
L 379.104912 142.374076 
L 379.54542 151.560911 
L 379.985928 176.059139 
L 380.426436 145.436354 
L 380.866945 139.311797 
L 381.307453 120.938127 
L 381.747961 136.249519 
L 382.188469 142.374076 
L 382.628977 154.62319 
L 383.509994 154.62319 
L 383.950502 194.43281 
L 384.39101 194.43281 
L 384.831518 197.495089 
L 385.272027 197.495089 
L 385.712535 188.308253 
L 386.153043 176.059139 
L 386.593551 188.308253 
L 387.034059 160.747747 
L 387.474568 194.43281 
L 387.915076 176.059139 
L 388.355584 166.872304 
L 388.796092 169.934582 
L 389.2366 188.308253 
L 389.677109 179.121418 
L 390.998633 197.495089 
L 391.439141 194.43281 
L 391.87965 206.681924 
L 392.320158 209.744203 
L 392.760666 209.744203 
L 393.201174 194.43281 
L 393.641682 203.619646 
L 394.082191 179.121418 
L 394.522699 182.183696 
L 395.403715 194.43281 
L 395.844224 176.059139 
L 396.72524 209.744203 
L 397.165748 215.868759 
L 397.606256 212.806481 
L 398.046765 243.429266 
L 398.487273 231.180152 
L 398.487273 231.180152 
" clip-path="url(#p495b715f65)" style="fill: none; stroke: #1f77b4; stroke-width: 1.5; stroke-linecap: square"/>
   </g>
   <g id="patch_3">
    <path d="M 57.6 307.584 
L 57.6 41.472 
" style="fill: none; stroke: #000000; stroke-width: 0.8; stroke-linejoin: miter; stroke-linecap: square"/>
   </g>
   <g id="patch_4">
    <path d="M 414.72 307.584 
L 414.72 41.472 
" style="fill: none; stroke: #000000; stroke-width: 0.8; stroke-linejoin: miter; stroke-linecap: square"/>
   </g>
   <g id="patch_5">
    <path d="M 57.6 307.584 
L 414.72 307.584 
" style="fill: none; stroke: #000000; stroke-width: 0.8; stroke-linejoin: miter; stroke-linecap: square"/>
   </g>
   <g id="patch_6">
    <path d="M 57.6 41.472 
L 414.72 41.472 
" style="fill: none; stroke: #000000; stroke-width: 0.8; stroke-linejoin: miter; stroke-linecap: square"/>
   </g>
   <g id="text_20">
    <!-- Simulated Anealling Cost -->
    <g transform="translate(160.8 35.472)scale(0.12 -0.12)">
     <defs>
      <path id="DejaVuSans-53" d="M 3425 4513 
L 3425 3897 
Q 3066 4069 2747 4153 
Q 2428 4238 2131 4238 
Q 1616 4238 1336 4038 
Q 1056 3838 1056 3469 
Q 1056 3159 1242 3001 
Q 1428 2844 1947 2747 
L 2328 2669 
Q 3034 2534 3370 2195 
Q 3706 1856 3706 1288 
Q 3706 609 3251 259 
Q 2797 -91 1919 -91 
Q 1588 -91 1214 -16 
Q 841 59 441 206 
L 441 856 
Q 825 641 1194 531 
Q 1563 422 1919 422 
Q 2459 422 2753 634 
Q 3047 847 3047 1241 
Q 3047 1584 2836 1778 
Q 2625 1972 2144 2069 
L 1759 2144 
Q 1053 2284 737 2584 
Q 422 2884 422 3419 
Q 422 4038 858 4394 
Q 1294 4750 2059 4750 
Q 2388 4750 2728 4690 
Q 3069 4631 3425 4513 
z
" transform="scale(0.015625)"/>
      <path id="DejaVuSans-69" d="M 603 3500 
L 1178 3500 
L 1178 0 
L 603 0 
L 603 3500 
z
M 603 4863 
L 1178 4863 
L 1178 4134 
L 603 4134 
L 603 4863 
z
" transform="scale(0.015625)"/>
      <path id="DejaVuSans-65" d="M 3597 1894 
L 3597 1613 
L 953 1613 
Q 991 1019 1311 708 
Q 1631 397 2203 397 
Q 2534 397 2845 478 
Q 3156 559 3463 722 
L 3463 178 
Q 3153 47 2828 -22 
Q 2503 -91 2169 -91 
Q 1331 -91 842 396 
Q 353 884 353 1716 
Q 353 2575 817 3079 
Q 1281 3584 2069 3584 
Q 2775 3584 3186 3129 
Q 3597 2675 3597 1894 
z
M 3022 2063 
Q 3016 2534 2758 2815 
Q 2500 3097 2075 3097 
Q 1594 3097 1305 2825 
Q 1016 2553 972 2059 
L 3022 2063 
z
" transform="scale(0.015625)"/>
      <path id="DejaVuSans-64" d="M 2906 2969 
L 2906 4863 
L 3481 4863 
L 3481 0 
L 2906 0 
L 2906 525 
Q 2725 213 2448 61 
Q 2172 -91 1784 -91 
Q 1150 -91 751 415 
Q 353 922 353 1747 
Q 353 2572 751 3078 
Q 1150 3584 1784 3584 
Q 2172 3584 2448 3432 
Q 2725 3281 2906 2969 
z
M 947 1747 
Q 947 1113 1208 752 
Q 1469 391 1925 391 
Q 2381 391 2643 752 
Q 2906 1113 2906 1747 
Q 2906 2381 2643 2742 
Q 2381 3103 1925 3103 
Q 1469 3103 1208 2742 
Q 947 2381 947 1747 
z
" transform="scale(0.015625)"/>
      <path id="DejaVuSans-41" d="M 2188 4044 
L 1331 1722 
L 3047 1722 
L 2188 4044 
z
M 1831 4666 
L 2547 4666 
L 4325 0 
L 3669 0 
L 3244 1197 
L 1141 1197 
L 716 0 
L 50 0 
L 1831 4666 
z
" transform="scale(0.015625)"/>
      <path id="DejaVuSans-67" d="M 2906 1791 
Q 2906 2416 2648 2759 
Q 2391 3103 1925 3103 
Q 1463 3103 1205 2759 
Q 947 2416 947 1791 
Q 947 1169 1205 825 
Q 1463 481 1925 481 
Q 2391 481 2648 825 
Q 2906 1169 2906 1791 
z
M 3481 434 
Q 3481 -459 3084 -895 
Q 2688 -1331 1869 -1331 
Q 1566 -1331 1297 -1286 
Q 1028 -1241 775 -1147 
L 775 -588 
Q 1028 -725 1275 -790 
Q 1522 -856 1778 -856 
Q 2344 -856 2625 -561 
Q 2906 -266 2906 331 
L 2906 616 
Q 2728 306 2450 153 
Q 2172 0 1784 0 
Q 1141 0 747 490 
Q 353 981 353 1791 
Q 353 2603 747 3093 
Q 1141 3584 1784 3584 
Q 2172 3584 2450 3431 
Q 2728 3278 2906 2969 
L 2906 3500 
L 3481 3500 
L 3481 434 
z
" transform="scale(0.015625)"/>
      <path id="DejaVuSans-43" d="M 4122 4306 
L 4122 3641 
Q 3803 3938 3442 4084 
Q 3081 4231 2675 4231 
Q 1875 4231 1450 3742 
Q 1025 3253 1025 2328 
Q 1025 1406 1450 917 
Q 1875 428 2675 428 
Q 3081 428 3442 575 
Q 3803 722 4122 1019 
L 4122 359 
Q 3791 134 3420 21 
Q 3050 -91 2638 -91 
Q 1578 -91 968 557 
Q 359 1206 359 2328 
Q 359 3453 968 4101 
Q 1578 4750 2638 4750 
Q 3056 4750 3426 4639 
Q 3797 4528 4122 4306 
z
" transform="scale(0.015625)"/>
     </defs>
     <use xlink:href="#DejaVuSans-53"/>
     <use xlink:href="#DejaVuSans-69" x="63.476562"/>
     <use xlink:href="#DejaVuSans-6d" x="91.259766"/>
     <use xlink:href="#DejaVuSans-75" x="188.671875"/>
     <use xlink:href="#DejaVuSans-6c" x="252.050781"/>
     <use xlink:href="#DejaVuSans-61" x="279.833984"/>
     <use xlink:href="#DejaVuSans-74" x="341.113281"/>
     <use xlink:href="#DejaVuSans-65" x="380.322266"/>
     <use xlink:href="#DejaVuSans-64" x="441.845703"/>
     <use xlink:href="#DejaVuSans-20" x="505.322266"/>
     <use xlink:href="#DejaVuSans-41" x="537.109375"/>
     <use xlink:href="#DejaVuSans-6e" x="605.517578"/>
     <use xlink:href="#DejaVuSans-65" x="668.896484"/>
     <use xlink:href="#DejaVuSans-61" x="730.419922"/>
     <use xlink:href="#DejaVuSans-6c" x="791.699219"/>
     <use xlink:href="#DejaVuSans-6c" x="819.482422"/>
     <use xlink:href="#DejaVuSans-69" x="847.265625"/>
     <use xlink:href="#DejaVuSans-6e" x="875.048828"/>
     <use xlink:href="#DejaVuSans-67" x="938.427734"/>
     <use xlink:href="#DejaVuSans-20" x="1001.904297"/>
     <use xlink:href="#DejaVuSans-43" x="1033.691406"/>
     <use xlink:href="#DejaVuSans-6f" x="1103.515625"/>
     <use xlink:href="#DejaVuSans-73" x="1164.697266"/>
     <use xlink:href="#DejaVuSans-74" x="1216.796875"/>
    </g>
   </g>
  </g>
 </g>
 <defs>
  <clipPath id="p495b715f65">
   <rect x="57.6" y="41.472" width="357.12" height="266.112"/>
  </clipPath>
 </defs>
</svg>
