<?xml version="1.0" encoding="utf-8" standalone="no"?>
<!DOCTYPE svg PUBLIC "-//W3C//DTD SVG 1.1//EN"
  "http://www.w3.org/Graphics/SVG/1.1/DTD/svg11.dtd">
<svg xmlns:xlink="http://www.w3.org/1999/xlink" width="460.8pt" height="345.6pt" viewBox="0 0 460.8 345.6" xmlns="http://www.w3.org/2000/svg" version="1.1">
 <metadata>
  <rdf:RDF xmlns:dc="http://purl.org/dc/elements/1.1/" xmlns:cc="http://creativecommons.org/ns#" xmlns:rdf="http://www.w3.org/1999/02/22-rdf-syntax-ns#">
   <cc:Work>
    <dc:type rdf:resource="http://purl.org/dc/dcmitype/StillImage"/>
    <dc:date>2022-06-01T07:49:46.353341</dc:date>
    <dc:format>image/svg+xml</dc:format>
    <dc:creator>
     <cc:Agent>
      <dc:title>Matplotlib v3.5.1, https://matplotlib.org/</dc:title>
     </cc:Agent>
    </dc:creator>
   </cc:Work>
  </rdf:RDF>
 </metadata>
 <defs>
  <style type="text/css">*{stroke-linejoin: round; stroke-linecap: butt}</style>
 </defs>
 <g id="figure_1">
  <g id="patch_1">
   <path d="M 0 345.6 
L 460.8 345.6 
L 460.8 0 
L 0 0 
z
" style="fill: #ffffff"/>
  </g>
  <g id="axes_1">
   <g id="patch_2">
    <path d="M 57.6 307.584 
L 414.72 307.584 
L 414.72 41.472 
L 57.6 41.472 
z
" style="fill: #ffffff"/>
   </g>
   <g id="matplotlib.axis_1">
    <g id="xtick_1">
     <g id="line2d_1">
      <defs>
       <path id="m92802dbf4c" d="M 0 0 
L 0 3.5 
" style="stroke: #000000; stroke-width: 0.8"/>
      </defs>
      <g>
       <use xlink:href="#m92802dbf4c" x="73.832727" y="307.584" style="stroke: #000000; stroke-width: 0.8"/>
      </g>
     </g>
     <g id="text_1">
      <!-- 0 -->
      <g transform="translate(70.651477 322.182437)scale(0.1 -0.1)">
       <defs>
        <path id="DejaVuSans-30" d="M 2034 4250 
Q 1547 4250 1301 3770 
Q 1056 3291 1056 2328 
Q 1056 1369 1301 889 
Q 1547 409 2034 409 
Q 2525 409 2770 889 
Q 3016 1369 3016 2328 
Q 3016 3291 2770 3770 
Q 2525 4250 2034 4250 
z
M 2034 4750 
Q 2819 4750 3233 4129 
Q 3647 3509 3647 2328 
Q 3647 1150 3233 529 
Q 2819 -91 2034 -91 
Q 1250 -91 836 529 
Q 422 1150 422 2328 
Q 422 3509 836 4129 
Q 1250 4750 2034 4750 
z
" transform="scale(0.015625)"/>
       </defs>
       <use xlink:href="#DejaVuSans-30"/>
      </g>
     </g>
    </g>
    <g id="xtick_2">
     <g id="line2d_2">
      <g>
       <use xlink:href="#m92802dbf4c" x="119.366324" y="307.584" style="stroke: #000000; stroke-width: 0.8"/>
      </g>
     </g>
     <g id="text_2">
      <!-- 200 -->
      <g transform="translate(109.822574 322.182437)scale(0.1 -0.1)">
       <defs>
        <path id="DejaVuSans-32" d="M 1228 531 
L 3431 531 
L 3431 0 
L 469 0 
L 469 531 
Q 828 903 1448 1529 
Q 2069 2156 2228 2338 
Q 2531 2678 2651 2914 
Q 2772 3150 2772 3378 
Q 2772 3750 2511 3984 
Q 2250 4219 1831 4219 
Q 1534 4219 1204 4116 
Q 875 4013 500 3803 
L 500 4441 
Q 881 4594 1212 4672 
Q 1544 4750 1819 4750 
Q 2544 4750 2975 4387 
Q 3406 4025 3406 3419 
Q 3406 3131 3298 2873 
Q 3191 2616 2906 2266 
Q 2828 2175 2409 1742 
Q 1991 1309 1228 531 
z
" transform="scale(0.015625)"/>
       </defs>
       <use xlink:href="#DejaVuSans-32"/>
       <use xlink:href="#DejaVuSans-30" x="63.623047"/>
       <use xlink:href="#DejaVuSans-30" x="127.246094"/>
      </g>
     </g>
    </g>
    <g id="xtick_3">
     <g id="line2d_3">
      <g>
       <use xlink:href="#m92802dbf4c" x="164.899921" y="307.584" style="stroke: #000000; stroke-width: 0.8"/>
      </g>
     </g>
     <g id="text_3">
      <!-- 400 -->
      <g transform="translate(155.356171 322.182437)scale(0.1 -0.1)">
       <defs>
        <path id="DejaVuSans-34" d="M 2419 4116 
L 825 1625 
L 2419 1625 
L 2419 4116 
z
M 2253 4666 
L 3047 4666 
L 3047 1625 
L 3713 1625 
L 3713 1100 
L 3047 1100 
L 3047 0 
L 2419 0 
L 2419 1100 
L 313 1100 
L 313 1709 
L 2253 4666 
z
" transform="scale(0.015625)"/>
       </defs>
       <use xlink:href="#DejaVuSans-34"/>
       <use xlink:href="#DejaVuSans-30" x="63.623047"/>
       <use xlink:href="#DejaVuSans-30" x="127.246094"/>
      </g>
     </g>
    </g>
    <g id="xtick_4">
     <g id="line2d_4">
      <g>
       <use xlink:href="#m92802dbf4c" x="210.433518" y="307.584" style="stroke: #000000; stroke-width: 0.8"/>
      </g>
     </g>
     <g id="text_4">
      <!-- 600 -->
      <g transform="translate(200.889768 322.182437)scale(0.1 -0.1)">
       <defs>
        <path id="DejaVuSans-36" d="M 2113 2584 
Q 1688 2584 1439 2293 
Q 1191 2003 1191 1497 
Q 1191 994 1439 701 
Q 1688 409 2113 409 
Q 2538 409 2786 701 
Q 3034 994 3034 1497 
Q 3034 2003 2786 2293 
Q 2538 2584 2113 2584 
z
M 3366 4563 
L 3366 3988 
Q 3128 4100 2886 4159 
Q 2644 4219 2406 4219 
Q 1781 4219 1451 3797 
Q 1122 3375 1075 2522 
Q 1259 2794 1537 2939 
Q 1816 3084 2150 3084 
Q 2853 3084 3261 2657 
Q 3669 2231 3669 1497 
Q 3669 778 3244 343 
Q 2819 -91 2113 -91 
Q 1303 -91 875 529 
Q 447 1150 447 2328 
Q 447 3434 972 4092 
Q 1497 4750 2381 4750 
Q 2619 4750 2861 4703 
Q 3103 4656 3366 4563 
z
" transform="scale(0.015625)"/>
       </defs>
       <use xlink:href="#DejaVuSans-36"/>
       <use xlink:href="#DejaVuSans-30" x="63.623047"/>
       <use xlink:href="#DejaVuSans-30" x="127.246094"/>
      </g>
     </g>
    </g>
    <g id="xtick_5">
     <g id="line2d_5">
      <g>
       <use xlink:href="#m92802dbf4c" x="255.967115" y="307.584" style="stroke: #000000; stroke-width: 0.8"/>
      </g>
     </g>
     <g id="text_5">
      <!-- 800 -->
      <g transform="translate(246.423365 322.182437)scale(0.1 -0.1)">
       <defs>
        <path id="DejaVuSans-38" d="M 2034 2216 
Q 1584 2216 1326 1975 
Q 1069 1734 1069 1313 
Q 1069 891 1326 650 
Q 1584 409 2034 409 
Q 2484 409 2743 651 
Q 3003 894 3003 1313 
Q 3003 1734 2745 1975 
Q 2488 2216 2034 2216 
z
M 1403 2484 
Q 997 2584 770 2862 
Q 544 3141 544 3541 
Q 544 4100 942 4425 
Q 1341 4750 2034 4750 
Q 2731 4750 3128 4425 
Q 3525 4100 3525 3541 
Q 3525 3141 3298 2862 
Q 3072 2584 2669 2484 
Q 3125 2378 3379 2068 
Q 3634 1759 3634 1313 
Q 3634 634 3220 271 
Q 2806 -91 2034 -91 
Q 1263 -91 848 271 
Q 434 634 434 1313 
Q 434 1759 690 2068 
Q 947 2378 1403 2484 
z
M 1172 3481 
Q 1172 3119 1398 2916 
Q 1625 2713 2034 2713 
Q 2441 2713 2670 2916 
Q 2900 3119 2900 3481 
Q 2900 3844 2670 4047 
Q 2441 4250 2034 4250 
Q 1625 4250 1398 4047 
Q 1172 3844 1172 3481 
z
" transform="scale(0.015625)"/>
       </defs>
       <use xlink:href="#DejaVuSans-38"/>
       <use xlink:href="#DejaVuSans-30" x="63.623047"/>
       <use xlink:href="#DejaVuSans-30" x="127.246094"/>
      </g>
     </g>
    </g>
    <g id="xtick_6">
     <g id="line2d_6">
      <g>
       <use xlink:href="#m92802dbf4c" x="301.500711" y="307.584" style="stroke: #000000; stroke-width: 0.8"/>
      </g>
     </g>
     <g id="text_6">
      <!-- 1000 -->
      <g transform="translate(288.775711 322.182437)scale(0.1 -0.1)">
       <defs>
        <path id="DejaVuSans-31" d="M 794 531 
L 1825 531 
L 1825 4091 
L 703 3866 
L 703 4441 
L 1819 4666 
L 2450 4666 
L 2450 531 
L 3481 531 
L 3481 0 
L 794 0 
L 794 531 
z
" transform="scale(0.015625)"/>
       </defs>
       <use xlink:href="#DejaVuSans-31"/>
       <use xlink:href="#DejaVuSans-30" x="63.623047"/>
       <use xlink:href="#DejaVuSans-30" x="127.246094"/>
       <use xlink:href="#DejaVuSans-30" x="190.869141"/>
      </g>
     </g>
    </g>
    <g id="xtick_7">
     <g id="line2d_7">
      <g>
       <use xlink:href="#m92802dbf4c" x="347.034308" y="307.584" style="stroke: #000000; stroke-width: 0.8"/>
      </g>
     </g>
     <g id="text_7">
      <!-- 1200 -->
      <g transform="translate(334.309308 322.182437)scale(0.1 -0.1)">
       <use xlink:href="#DejaVuSans-31"/>
       <use xlink:href="#DejaVuSans-32" x="63.623047"/>
       <use xlink:href="#DejaVuSans-30" x="127.246094"/>
       <use xlink:href="#DejaVuSans-30" x="190.869141"/>
      </g>
     </g>
    </g>
    <g id="xtick_8">
     <g id="line2d_8">
      <g>
       <use xlink:href="#m92802dbf4c" x="392.567905" y="307.584" style="stroke: #000000; stroke-width: 0.8"/>
      </g>
     </g>
     <g id="text_8">
      <!-- 1400 -->
      <g transform="translate(379.842905 322.182437)scale(0.1 -0.1)">
       <use xlink:href="#DejaVuSans-31"/>
       <use xlink:href="#DejaVuSans-34" x="63.623047"/>
       <use xlink:href="#DejaVuSans-30" x="127.246094"/>
       <use xlink:href="#DejaVuSans-30" x="190.869141"/>
      </g>
     </g>
    </g>
    <g id="text_9">
     <!-- num swaps -->
     <g transform="translate(207.826406 335.860562)scale(0.1 -0.1)">
      <defs>
       <path id="DejaVuSans-6e" d="M 3513 2113 
L 3513 0 
L 2938 0 
L 2938 2094 
Q 2938 2591 2744 2837 
Q 2550 3084 2163 3084 
Q 1697 3084 1428 2787 
Q 1159 2491 1159 1978 
L 1159 0 
L 581 0 
L 581 3500 
L 1159 3500 
L 1159 2956 
Q 1366 3272 1645 3428 
Q 1925 3584 2291 3584 
Q 2894 3584 3203 3211 
Q 3513 2838 3513 2113 
z
" transform="scale(0.015625)"/>
       <path id="DejaVuSans-75" d="M 544 1381 
L 544 3500 
L 1119 3500 
L 1119 1403 
Q 1119 906 1312 657 
Q 1506 409 1894 409 
Q 2359 409 2629 706 
Q 2900 1003 2900 1516 
L 2900 3500 
L 3475 3500 
L 3475 0 
L 2900 0 
L 2900 538 
Q 2691 219 2414 64 
Q 2138 -91 1772 -91 
Q 1169 -91 856 284 
Q 544 659 544 1381 
z
M 1991 3584 
L 1991 3584 
z
" transform="scale(0.015625)"/>
       <path id="DejaVuSans-6d" d="M 3328 2828 
Q 3544 3216 3844 3400 
Q 4144 3584 4550 3584 
Q 5097 3584 5394 3201 
Q 5691 2819 5691 2113 
L 5691 0 
L 5113 0 
L 5113 2094 
Q 5113 2597 4934 2840 
Q 4756 3084 4391 3084 
Q 3944 3084 3684 2787 
Q 3425 2491 3425 1978 
L 3425 0 
L 2847 0 
L 2847 2094 
Q 2847 2600 2669 2842 
Q 2491 3084 2119 3084 
Q 1678 3084 1418 2786 
Q 1159 2488 1159 1978 
L 1159 0 
L 581 0 
L 581 3500 
L 1159 3500 
L 1159 2956 
Q 1356 3278 1631 3431 
Q 1906 3584 2284 3584 
Q 2666 3584 2933 3390 
Q 3200 3197 3328 2828 
z
" transform="scale(0.015625)"/>
       <path id="DejaVuSans-20" transform="scale(0.015625)"/>
       <path id="DejaVuSans-73" d="M 2834 3397 
L 2834 2853 
Q 2591 2978 2328 3040 
Q 2066 3103 1784 3103 
Q 1356 3103 1142 2972 
Q 928 2841 928 2578 
Q 928 2378 1081 2264 
Q 1234 2150 1697 2047 
L 1894 2003 
Q 2506 1872 2764 1633 
Q 3022 1394 3022 966 
Q 3022 478 2636 193 
Q 2250 -91 1575 -91 
Q 1294 -91 989 -36 
Q 684 19 347 128 
L 347 722 
Q 666 556 975 473 
Q 1284 391 1588 391 
Q 1994 391 2212 530 
Q 2431 669 2431 922 
Q 2431 1156 2273 1281 
Q 2116 1406 1581 1522 
L 1381 1569 
Q 847 1681 609 1914 
Q 372 2147 372 2553 
Q 372 3047 722 3315 
Q 1072 3584 1716 3584 
Q 2034 3584 2315 3537 
Q 2597 3491 2834 3397 
z
" transform="scale(0.015625)"/>
       <path id="DejaVuSans-77" d="M 269 3500 
L 844 3500 
L 1563 769 
L 2278 3500 
L 2956 3500 
L 3675 769 
L 4391 3500 
L 4966 3500 
L 4050 0 
L 3372 0 
L 2619 2869 
L 1863 0 
L 1184 0 
L 269 3500 
z
" transform="scale(0.015625)"/>
       <path id="DejaVuSans-61" d="M 2194 1759 
Q 1497 1759 1228 1600 
Q 959 1441 959 1056 
Q 959 750 1161 570 
Q 1363 391 1709 391 
Q 2188 391 2477 730 
Q 2766 1069 2766 1631 
L 2766 1759 
L 2194 1759 
z
M 3341 1997 
L 3341 0 
L 2766 0 
L 2766 531 
Q 2569 213 2275 61 
Q 1981 -91 1556 -91 
Q 1019 -91 701 211 
Q 384 513 384 1019 
Q 384 1609 779 1909 
Q 1175 2209 1959 2209 
L 2766 2209 
L 2766 2266 
Q 2766 2663 2505 2880 
Q 2244 3097 1772 3097 
Q 1472 3097 1187 3025 
Q 903 2953 641 2809 
L 641 3341 
Q 956 3463 1253 3523 
Q 1550 3584 1831 3584 
Q 2591 3584 2966 3190 
Q 3341 2797 3341 1997 
z
" transform="scale(0.015625)"/>
       <path id="DejaVuSans-70" d="M 1159 525 
L 1159 -1331 
L 581 -1331 
L 581 3500 
L 1159 3500 
L 1159 2969 
Q 1341 3281 1617 3432 
Q 1894 3584 2278 3584 
Q 2916 3584 3314 3078 
Q 3713 2572 3713 1747 
Q 3713 922 3314 415 
Q 2916 -91 2278 -91 
Q 1894 -91 1617 61 
Q 1341 213 1159 525 
z
M 3116 1747 
Q 3116 2381 2855 2742 
Q 2594 3103 2138 3103 
Q 1681 3103 1420 2742 
Q 1159 2381 1159 1747 
Q 1159 1113 1420 752 
Q 1681 391 2138 391 
Q 2594 391 2855 752 
Q 3116 1113 3116 1747 
z
" transform="scale(0.015625)"/>
      </defs>
      <use xlink:href="#DejaVuSans-6e"/>
      <use xlink:href="#DejaVuSans-75" x="63.378906"/>
      <use xlink:href="#DejaVuSans-6d" x="126.757812"/>
      <use xlink:href="#DejaVuSans-20" x="224.169922"/>
      <use xlink:href="#DejaVuSans-73" x="255.957031"/>
      <use xlink:href="#DejaVuSans-77" x="308.056641"/>
      <use xlink:href="#DejaVuSans-61" x="389.84375"/>
      <use xlink:href="#DejaVuSans-70" x="451.123047"/>
      <use xlink:href="#DejaVuSans-73" x="514.599609"/>
     </g>
    </g>
   </g>
   <g id="matplotlib.axis_2">
    <g id="ytick_1">
     <g id="line2d_9">
      <defs>
       <path id="mb962082323" d="M 0 0 
L -3.5 0 
" style="stroke: #000000; stroke-width: 0.8"/>
      </defs>
      <g>
       <use xlink:href="#mb962082323" x="57.6" y="282.23211" style="stroke: #000000; stroke-width: 0.8"/>
      </g>
     </g>
     <g id="text_10">
      <!-- 390 -->
      <g transform="translate(31.5125 286.031328)scale(0.1 -0.1)">
       <defs>
        <path id="DejaVuSans-33" d="M 2597 2516 
Q 3050 2419 3304 2112 
Q 3559 1806 3559 1356 
Q 3559 666 3084 287 
Q 2609 -91 1734 -91 
Q 1441 -91 1130 -33 
Q 819 25 488 141 
L 488 750 
Q 750 597 1062 519 
Q 1375 441 1716 441 
Q 2309 441 2620 675 
Q 2931 909 2931 1356 
Q 2931 1769 2642 2001 
Q 2353 2234 1838 2234 
L 1294 2234 
L 1294 2753 
L 1863 2753 
Q 2328 2753 2575 2939 
Q 2822 3125 2822 3475 
Q 2822 3834 2567 4026 
Q 2313 4219 1838 4219 
Q 1578 4219 1281 4162 
Q 984 4106 628 3988 
L 628 4550 
Q 988 4650 1302 4700 
Q 1616 4750 1894 4750 
Q 2613 4750 3031 4423 
Q 3450 4097 3450 3541 
Q 3450 3153 3228 2886 
Q 3006 2619 2597 2516 
z
" transform="scale(0.015625)"/>
        <path id="DejaVuSans-39" d="M 703 97 
L 703 672 
Q 941 559 1184 500 
Q 1428 441 1663 441 
Q 2288 441 2617 861 
Q 2947 1281 2994 2138 
Q 2813 1869 2534 1725 
Q 2256 1581 1919 1581 
Q 1219 1581 811 2004 
Q 403 2428 403 3163 
Q 403 3881 828 4315 
Q 1253 4750 1959 4750 
Q 2769 4750 3195 4129 
Q 3622 3509 3622 2328 
Q 3622 1225 3098 567 
Q 2575 -91 1691 -91 
Q 1453 -91 1209 -44 
Q 966 3 703 97 
z
M 1959 2075 
Q 2384 2075 2632 2365 
Q 2881 2656 2881 3163 
Q 2881 3666 2632 3958 
Q 2384 4250 1959 4250 
Q 1534 4250 1286 3958 
Q 1038 3666 1038 3163 
Q 1038 2656 1286 2365 
Q 1534 2075 1959 2075 
z
" transform="scale(0.015625)"/>
       </defs>
       <use xlink:href="#DejaVuSans-33"/>
       <use xlink:href="#DejaVuSans-39" x="63.623047"/>
       <use xlink:href="#DejaVuSans-30" x="127.246094"/>
      </g>
     </g>
    </g>
    <g id="ytick_2">
     <g id="line2d_10">
      <g>
       <use xlink:href="#mb962082323" x="57.6" y="249.092384" style="stroke: #000000; stroke-width: 0.8"/>
      </g>
     </g>
     <g id="text_11">
      <!-- 400 -->
      <g transform="translate(31.5125 252.891602)scale(0.1 -0.1)">
       <use xlink:href="#DejaVuSans-34"/>
       <use xlink:href="#DejaVuSans-30" x="63.623047"/>
       <use xlink:href="#DejaVuSans-30" x="127.246094"/>
      </g>
     </g>
    </g>
    <g id="ytick_3">
     <g id="line2d_11">
      <g>
       <use xlink:href="#mb962082323" x="57.6" y="215.952658" style="stroke: #000000; stroke-width: 0.8"/>
      </g>
     </g>
     <g id="text_12">
      <!-- 410 -->
      <g transform="translate(31.5125 219.751876)scale(0.1 -0.1)">
       <use xlink:href="#DejaVuSans-34"/>
       <use xlink:href="#DejaVuSans-31" x="63.623047"/>
       <use xlink:href="#DejaVuSans-30" x="127.246094"/>
      </g>
     </g>
    </g>
    <g id="ytick_4">
     <g id="line2d_12">
      <g>
       <use xlink:href="#mb962082323" x="57.6" y="182.812932" style="stroke: #000000; stroke-width: 0.8"/>
      </g>
     </g>
     <g id="text_13">
      <!-- 420 -->
      <g transform="translate(31.5125 186.61215)scale(0.1 -0.1)">
       <use xlink:href="#DejaVuSans-34"/>
       <use xlink:href="#DejaVuSans-32" x="63.623047"/>
       <use xlink:href="#DejaVuSans-30" x="127.246094"/>
      </g>
     </g>
    </g>
    <g id="ytick_5">
     <g id="line2d_13">
      <g>
       <use xlink:href="#mb962082323" x="57.6" y="149.673205" style="stroke: #000000; stroke-width: 0.8"/>
      </g>
     </g>
     <g id="text_14">
      <!-- 430 -->
      <g transform="translate(31.5125 153.472424)scale(0.1 -0.1)">
       <use xlink:href="#DejaVuSans-34"/>
       <use xlink:href="#DejaVuSans-33" x="63.623047"/>
       <use xlink:href="#DejaVuSans-30" x="127.246094"/>
      </g>
     </g>
    </g>
    <g id="ytick_6">
     <g id="line2d_14">
      <g>
       <use xlink:href="#mb962082323" x="57.6" y="116.533479" style="stroke: #000000; stroke-width: 0.8"/>
      </g>
     </g>
     <g id="text_15">
      <!-- 440 -->
      <g transform="translate(31.5125 120.332698)scale(0.1 -0.1)">
       <use xlink:href="#DejaVuSans-34"/>
       <use xlink:href="#DejaVuSans-34" x="63.623047"/>
       <use xlink:href="#DejaVuSans-30" x="127.246094"/>
      </g>
     </g>
    </g>
    <g id="ytick_7">
     <g id="line2d_15">
      <g>
       <use xlink:href="#mb962082323" x="57.6" y="83.393753" style="stroke: #000000; stroke-width: 0.8"/>
      </g>
     </g>
     <g id="text_16">
      <!-- 450 -->
      <g transform="translate(31.5125 87.192972)scale(0.1 -0.1)">
       <defs>
        <path id="DejaVuSans-35" d="M 691 4666 
L 3169 4666 
L 3169 4134 
L 1269 4134 
L 1269 2991 
Q 1406 3038 1543 3061 
Q 1681 3084 1819 3084 
Q 2600 3084 3056 2656 
Q 3513 2228 3513 1497 
Q 3513 744 3044 326 
Q 2575 -91 1722 -91 
Q 1428 -91 1123 -41 
Q 819 9 494 109 
L 494 744 
Q 775 591 1075 516 
Q 1375 441 1709 441 
Q 2250 441 2565 725 
Q 2881 1009 2881 1497 
Q 2881 1984 2565 2268 
Q 2250 2553 1709 2553 
Q 1456 2553 1204 2497 
Q 953 2441 691 2322 
L 691 4666 
z
" transform="scale(0.015625)"/>
       </defs>
       <use xlink:href="#DejaVuSans-34"/>
       <use xlink:href="#DejaVuSans-35" x="63.623047"/>
       <use xlink:href="#DejaVuSans-30" x="127.246094"/>
      </g>
     </g>
    </g>
    <g id="ytick_8">
     <g id="line2d_16">
      <g>
       <use xlink:href="#mb962082323" x="57.6" y="50.254027" style="stroke: #000000; stroke-width: 0.8"/>
      </g>
     </g>
     <g id="text_17">
      <!-- 460 -->
      <g transform="translate(31.5125 54.053246)scale(0.1 -0.1)">
       <use xlink:href="#DejaVuSans-34"/>
       <use xlink:href="#DejaVuSans-36" x="63.623047"/>
       <use xlink:href="#DejaVuSans-30" x="127.246094"/>
      </g>
     </g>
    </g>
    <g id="text_18">
     <!-- total cost -->
     <g transform="translate(25.432812 197.923313)rotate(-90)scale(0.1 -0.1)">
      <defs>
       <path id="DejaVuSans-74" d="M 1172 4494 
L 1172 3500 
L 2356 3500 
L 2356 3053 
L 1172 3053 
L 1172 1153 
Q 1172 725 1289 603 
Q 1406 481 1766 481 
L 2356 481 
L 2356 0 
L 1766 0 
Q 1100 0 847 248 
Q 594 497 594 1153 
L 594 3053 
L 172 3053 
L 172 3500 
L 594 3500 
L 594 4494 
L 1172 4494 
z
" transform="scale(0.015625)"/>
       <path id="DejaVuSans-6f" d="M 1959 3097 
Q 1497 3097 1228 2736 
Q 959 2375 959 1747 
Q 959 1119 1226 758 
Q 1494 397 1959 397 
Q 2419 397 2687 759 
Q 2956 1122 2956 1747 
Q 2956 2369 2687 2733 
Q 2419 3097 1959 3097 
z
M 1959 3584 
Q 2709 3584 3137 3096 
Q 3566 2609 3566 1747 
Q 3566 888 3137 398 
Q 2709 -91 1959 -91 
Q 1206 -91 779 398 
Q 353 888 353 1747 
Q 353 2609 779 3096 
Q 1206 3584 1959 3584 
z
" transform="scale(0.015625)"/>
       <path id="DejaVuSans-6c" d="M 603 4863 
L 1178 4863 
L 1178 0 
L 603 0 
L 603 4863 
z
" transform="scale(0.015625)"/>
       <path id="DejaVuSans-63" d="M 3122 3366 
L 3122 2828 
Q 2878 2963 2633 3030 
Q 2388 3097 2138 3097 
Q 1578 3097 1268 2742 
Q 959 2388 959 1747 
Q 959 1106 1268 751 
Q 1578 397 2138 397 
Q 2388 397 2633 464 
Q 2878 531 3122 666 
L 3122 134 
Q 2881 22 2623 -34 
Q 2366 -91 2075 -91 
Q 1284 -91 818 406 
Q 353 903 353 1747 
Q 353 2603 823 3093 
Q 1294 3584 2113 3584 
Q 2378 3584 2631 3529 
Q 2884 3475 3122 3366 
z
" transform="scale(0.015625)"/>
      </defs>
      <use xlink:href="#DejaVuSans-74"/>
      <use xlink:href="#DejaVuSans-6f" x="39.208984"/>
      <use xlink:href="#DejaVuSans-74" x="100.390625"/>
      <use xlink:href="#DejaVuSans-61" x="139.599609"/>
      <use xlink:href="#DejaVuSans-6c" x="200.878906"/>
      <use xlink:href="#DejaVuSans-20" x="228.662109"/>
      <use xlink:href="#DejaVuSans-63" x="260.449219"/>
      <use xlink:href="#DejaVuSans-6f" x="315.429688"/>
      <use xlink:href="#DejaVuSans-73" x="376.611328"/>
      <use xlink:href="#DejaVuSans-74" x="428.710938"/>
     </g>
    </g>
   </g>
   <g id="line2d_17">
    <path d="M 73.832727 149.673205 
L 74.288063 172.871014 
L 74.743399 166.243068 
L 75.198735 146.359233 
L 75.654071 156.301151 
L 76.109407 113.219507 
L 76.564743 90.021699 
L 77.020079 93.335671 
L 77.475415 113.219507 
L 77.930751 123.161425 
L 78.386087 126.475397 
L 78.841423 116.533479 
L 79.296759 126.475397 
L 79.752095 129.78937 
L 80.207431 126.475397 
L 80.662767 113.219507 
L 81.118103 129.78937 
L 81.573439 123.161425 
L 82.028775 109.905534 
L 82.484111 106.591562 
L 82.939447 93.335671 
L 83.394783 73.451836 
L 83.850119 86.707726 
L 84.760791 80.079781 
L 85.216126 90.021699 
L 86.126798 83.393753 
L 86.582134 109.905534 
L 87.03747 106.591562 
L 87.492806 86.707726 
L 88.403478 113.219507 
L 88.858814 103.277589 
L 89.31415 116.533479 
L 89.769486 116.533479 
L 90.224822 96.649644 
L 90.680158 93.335671 
L 91.135494 70.137863 
L 91.59083 53.568 
L 92.046166 70.137863 
L 92.501502 53.568 
L 92.956838 60.195945 
L 93.412174 60.195945 
L 93.86751 80.079781 
L 94.322846 60.195945 
L 94.778182 70.137863 
L 95.233518 73.451836 
L 95.688854 93.335671 
L 96.14419 66.82389 
L 96.599526 66.82389 
L 97.054862 73.451836 
L 98.42087 73.451836 
L 98.876206 126.475397 
L 99.786877 156.301151 
L 100.242213 169.557041 
L 100.697549 176.184986 
L 101.152885 172.871014 
L 101.608221 152.987178 
L 102.063557 149.673205 
L 102.974229 123.161425 
L 103.429565 159.615123 
L 104.340237 189.440877 
L 104.795573 199.382795 
L 105.250909 186.126904 
L 105.706245 176.184986 
L 106.161581 179.498959 
L 106.616917 166.243068 
L 107.072253 169.557041 
L 107.527589 186.126904 
L 107.982925 186.126904 
L 108.438261 199.382795 
L 109.348933 172.871014 
L 109.804269 169.557041 
L 110.259605 182.812932 
L 110.714941 156.301151 
L 111.170277 152.987178 
L 111.625613 152.987178 
L 112.080949 159.615123 
L 112.536285 162.929096 
L 112.991621 136.417315 
L 113.446957 152.987178 
L 113.902292 159.615123 
L 114.357628 136.417315 
L 114.812964 139.731288 
L 115.2683 146.359233 
L 116.178972 139.731288 
L 116.634308 149.673205 
L 117.089644 139.731288 
L 117.54498 139.731288 
L 118.000316 109.905534 
L 118.455652 93.335671 
L 118.910988 99.963616 
L 119.366324 123.161425 
L 119.82166 106.591562 
L 120.276996 119.847452 
L 120.732332 116.533479 
L 121.187668 176.184986 
L 121.643004 166.243068 
L 122.09834 179.498959 
L 122.553676 189.440877 
L 123.009012 222.580603 
L 123.464348 225.894575 
L 123.919684 206.01074 
L 124.37502 199.382795 
L 125.285692 162.929096 
L 125.741028 159.615123 
L 126.196364 162.929096 
L 126.6517 206.01074 
L 127.107036 212.638685 
L 128.017708 212.638685 
L 128.473043 229.208548 
L 128.928379 212.638685 
L 129.383715 209.324712 
L 129.839051 219.26663 
L 130.294387 215.952658 
L 130.749723 209.324712 
L 131.205059 235.836493 
L 131.660395 272.290192 
L 132.115731 282.23211 
L 132.571067 285.546082 
L 133.026403 255.720329 
L 133.481739 255.720329 
L 133.937075 232.522521 
L 134.392411 219.26663 
L 134.847747 229.208548 
L 135.303083 259.034301 
L 135.758419 245.778411 
L 136.213755 242.464438 
L 136.669091 252.406356 
L 137.124427 245.778411 
L 137.579763 255.720329 
L 138.035099 255.720329 
L 138.490435 252.406356 
L 138.945771 268.976219 
L 139.401107 255.720329 
L 139.856443 235.836493 
L 140.311779 242.464438 
L 140.767115 235.836493 
L 141.222451 249.092384 
L 141.677787 242.464438 
L 142.133123 222.580603 
L 142.588458 225.894575 
L 143.043794 222.580603 
L 143.49913 222.580603 
L 143.954466 232.522521 
L 144.409802 202.696767 
L 144.865138 209.324712 
L 145.320474 206.01074 
L 145.77581 222.580603 
L 146.231146 209.324712 
L 147.141818 156.301151 
L 147.597154 196.068822 
L 148.05249 179.498959 
L 148.507826 196.068822 
L 148.963162 179.498959 
L 149.418498 189.440877 
L 149.873834 232.522521 
L 150.32917 229.208548 
L 150.784506 249.092384 
L 151.239842 249.092384 
L 151.695178 255.720329 
L 152.150514 288.860055 
L 152.60585 282.23211 
L 153.061186 295.488 
L 153.516522 292.174027 
L 153.971858 295.488 
L 154.88253 259.034301 
L 155.337866 245.778411 
L 155.793202 235.836493 
L 156.248538 252.406356 
L 156.703874 239.150466 
L 157.159209 242.464438 
L 157.614545 239.150466 
L 158.069881 252.406356 
L 158.525217 242.464438 
L 158.980553 252.406356 
L 159.435889 235.836493 
L 159.891225 235.836493 
L 160.346561 219.26663 
L 160.801897 212.638685 
L 161.257233 186.126904 
L 161.712569 186.126904 
L 162.167905 176.184986 
L 162.623241 179.498959 
L 163.078577 179.498959 
L 163.533913 152.987178 
L 163.989249 159.615123 
L 164.444585 162.929096 
L 164.899921 176.184986 
L 165.355257 179.498959 
L 165.810593 123.161425 
L 166.265929 136.417315 
L 166.721265 156.301151 
L 167.176601 146.359233 
L 167.631937 169.557041 
L 168.087273 182.812932 
L 168.542609 169.557041 
L 168.997945 179.498959 
L 169.453281 209.324712 
L 169.908617 222.580603 
L 170.363953 225.894575 
L 170.819289 245.778411 
L 171.274625 202.696767 
L 171.72996 206.01074 
L 172.185296 196.068822 
L 172.640632 196.068822 
L 173.095968 186.126904 
L 173.551304 179.498959 
L 174.00664 149.673205 
L 174.461976 146.359233 
L 174.917312 123.161425 
L 175.372648 123.161425 
L 176.28332 60.195945 
L 176.738656 73.451836 
L 177.193992 93.335671 
L 177.649328 93.335671 
L 178.104664 99.963616 
L 178.56 116.533479 
L 179.015336 116.533479 
L 179.470672 96.649644 
L 179.926008 109.905534 
L 180.381344 99.963616 
L 180.83668 113.219507 
L 181.292016 139.731288 
L 181.747352 143.04526 
L 182.202688 162.929096 
L 182.658024 152.987178 
L 183.11336 139.731288 
L 183.568696 143.04526 
L 184.024032 129.78937 
L 184.479368 126.475397 
L 184.934704 119.847452 
L 185.39004 116.533479 
L 185.845375 106.591562 
L 186.300711 103.277589 
L 186.756047 109.905534 
L 187.211383 119.847452 
L 187.666719 116.533479 
L 188.122055 116.533479 
L 188.577391 113.219507 
L 189.032727 116.533479 
L 189.488063 116.533479 
L 189.943399 109.905534 
L 190.398735 109.905534 
L 190.854071 99.963616 
L 191.309407 113.219507 
L 191.764743 109.905534 
L 192.220079 103.277589 
L 192.675415 103.277589 
L 193.130751 113.219507 
L 193.586087 113.219507 
L 194.041423 139.731288 
L 194.496759 159.615123 
L 194.952095 152.987178 
L 195.407431 143.04526 
L 195.862767 149.673205 
L 196.318103 143.04526 
L 196.773439 156.301151 
L 197.228775 143.04526 
L 197.684111 159.615123 
L 198.139447 169.557041 
L 198.594783 182.812932 
L 199.050119 182.812932 
L 199.505455 215.952658 
L 199.960791 206.01074 
L 200.416126 239.150466 
L 200.871462 249.092384 
L 201.326798 232.522521 
L 201.782134 262.348274 
L 202.23747 222.580603 
L 202.692806 206.01074 
L 203.603478 225.894575 
L 204.058814 229.208548 
L 204.51415 235.836493 
L 204.969486 232.522521 
L 205.424822 222.580603 
L 205.880158 209.324712 
L 206.335494 245.778411 
L 206.79083 189.440877 
L 207.246166 192.754849 
L 207.701502 182.812932 
L 208.156838 176.184986 
L 208.612174 196.068822 
L 209.522846 146.359233 
L 209.978182 146.359233 
L 210.433518 149.673205 
L 210.888854 156.301151 
L 211.799526 143.04526 
L 212.254862 143.04526 
L 212.710198 136.417315 
L 213.165534 133.103342 
L 213.62087 162.929096 
L 214.076206 166.243068 
L 214.531542 179.498959 
L 214.986877 186.126904 
L 215.442213 172.871014 
L 216.808221 192.754849 
L 217.263557 206.01074 
L 217.718893 186.126904 
L 218.174229 196.068822 
L 218.629565 199.382795 
L 219.084901 182.812932 
L 219.540237 156.301151 
L 219.995573 156.301151 
L 220.450909 146.359233 
L 221.816917 186.126904 
L 222.272253 162.929096 
L 223.182925 149.673205 
L 223.638261 139.731288 
L 224.548933 159.615123 
L 225.004269 162.929096 
L 225.459605 169.557041 
L 225.914941 149.673205 
L 226.370277 169.557041 
L 226.825613 202.696767 
L 227.736285 215.952658 
L 228.191621 245.778411 
L 228.646957 215.952658 
L 229.102292 199.382795 
L 229.557628 196.068822 
L 230.012964 225.894575 
L 230.4683 219.26663 
L 230.923636 176.184986 
L 231.378972 169.557041 
L 231.834308 166.243068 
L 232.289644 146.359233 
L 232.74498 152.987178 
L 233.200316 146.359233 
L 233.655652 172.871014 
L 234.110988 182.812932 
L 234.566324 182.812932 
L 235.02166 189.440877 
L 235.476996 202.696767 
L 235.932332 196.068822 
L 236.843004 169.557041 
L 237.753676 169.557041 
L 238.209012 159.615123 
L 239.119684 152.987178 
L 239.57502 159.615123 
L 240.030356 159.615123 
L 240.485692 162.929096 
L 240.941028 152.987178 
L 241.396364 149.673205 
L 241.8517 172.871014 
L 242.307036 182.812932 
L 242.762372 186.126904 
L 243.217708 186.126904 
L 243.673043 189.440877 
L 244.128379 196.068822 
L 244.583715 192.754849 
L 245.039051 202.696767 
L 245.494387 199.382795 
L 245.949723 176.184986 
L 246.405059 113.219507 
L 246.860395 119.847452 
L 247.315731 113.219507 
L 247.771067 109.905534 
L 248.226403 196.068822 
L 248.681739 196.068822 
L 249.137075 202.696767 
L 249.592411 166.243068 
L 250.047747 162.929096 
L 250.503083 149.673205 
L 250.958419 162.929096 
L 251.413755 159.615123 
L 251.869091 146.359233 
L 252.324427 149.673205 
L 253.235099 136.417315 
L 253.690435 152.987178 
L 254.145771 136.417315 
L 254.601107 129.78937 
L 255.056443 156.301151 
L 255.967115 235.836493 
L 256.422451 206.01074 
L 256.877787 209.324712 
L 257.788458 156.301151 
L 258.243794 152.987178 
L 258.69913 172.871014 
L 259.154466 159.615123 
L 259.609802 126.475397 
L 260.520474 126.475397 
L 260.97581 109.905534 
L 261.431146 116.533479 
L 261.886482 119.847452 
L 262.341818 156.301151 
L 262.797154 169.557041 
L 263.25249 159.615123 
L 263.707826 159.615123 
L 264.163162 149.673205 
L 264.618498 129.78937 
L 265.073834 133.103342 
L 265.52917 146.359233 
L 265.984506 129.78937 
L 266.439842 139.731288 
L 266.895178 113.219507 
L 267.350514 139.731288 
L 267.80585 159.615123 
L 268.261186 146.359233 
L 268.716522 126.475397 
L 269.171858 136.417315 
L 269.627194 159.615123 
L 270.08253 146.359233 
L 270.537866 136.417315 
L 270.993202 129.78937 
L 271.448538 136.417315 
L 271.903874 162.929096 
L 272.359209 179.498959 
L 272.814545 186.126904 
L 273.269881 159.615123 
L 273.725217 146.359233 
L 274.180553 129.78937 
L 274.635889 133.103342 
L 275.091225 123.161425 
L 275.546561 126.475397 
L 276.001897 123.161425 
L 276.457233 156.301151 
L 276.912569 172.871014 
L 277.367905 172.871014 
L 277.823241 176.184986 
L 278.278577 152.987178 
L 278.733913 143.04526 
L 279.189249 143.04526 
L 279.644585 162.929096 
L 280.099921 192.754849 
L 280.555257 189.440877 
L 281.010593 192.754849 
L 281.465929 199.382795 
L 281.921265 222.580603 
L 282.376601 196.068822 
L 282.831937 202.696767 
L 283.287273 196.068822 
L 283.742609 196.068822 
L 284.197945 182.812932 
L 284.653281 176.184986 
L 285.108617 176.184986 
L 285.563953 166.243068 
L 286.019289 169.557041 
L 286.474625 169.557041 
L 286.92996 172.871014 
L 287.385296 179.498959 
L 287.840632 166.243068 
L 288.295968 172.871014 
L 288.751304 169.557041 
L 289.20664 169.557041 
L 289.661976 162.929096 
L 290.117312 169.557041 
L 290.572648 162.929096 
L 291.027984 166.243068 
L 291.48332 172.871014 
L 291.938656 172.871014 
L 292.393992 166.243068 
L 292.849328 176.184986 
L 293.304664 176.184986 
L 294.215336 156.301151 
L 294.670672 156.301151 
L 295.126008 196.068822 
L 295.581344 166.243068 
L 296.03668 179.498959 
L 296.492016 182.812932 
L 296.947352 182.812932 
L 297.402688 169.557041 
L 297.858024 182.812932 
L 298.768696 255.720329 
L 299.224032 252.406356 
L 299.679368 265.662247 
L 300.134704 232.522521 
L 301.045375 232.522521 
L 301.500711 206.01074 
L 301.956047 222.580603 
L 302.866719 169.557041 
L 303.322055 172.871014 
L 303.777391 152.987178 
L 304.232727 156.301151 
L 304.688063 152.987178 
L 305.143399 146.359233 
L 305.598735 116.533479 
L 306.054071 126.475397 
L 306.509407 113.219507 
L 306.964743 113.219507 
L 307.420079 126.475397 
L 307.875415 136.417315 
L 309.241423 182.812932 
L 309.696759 169.557041 
L 310.152095 199.382795 
L 310.607431 166.243068 
L 311.062767 159.615123 
L 311.518103 156.301151 
L 311.973439 156.301151 
L 312.428775 162.929096 
L 312.884111 126.475397 
L 313.339447 103.277589 
L 313.794783 99.963616 
L 314.250119 109.905534 
L 314.705455 113.219507 
L 315.160791 136.417315 
L 315.616126 109.905534 
L 316.071462 126.475397 
L 316.526798 129.78937 
L 316.982134 119.847452 
L 317.43747 156.301151 
L 317.892806 172.871014 
L 318.348142 166.243068 
L 318.803478 162.929096 
L 319.258814 113.219507 
L 319.71415 86.707726 
L 320.169486 76.765808 
L 320.624822 90.021699 
L 321.080158 96.649644 
L 321.535494 93.335671 
L 321.99083 93.335671 
L 322.446166 103.277589 
L 322.901502 99.963616 
L 323.356838 90.021699 
L 323.812174 133.103342 
L 324.26751 133.103342 
L 324.722846 156.301151 
L 325.178182 156.301151 
L 325.633518 189.440877 
L 326.088854 192.754849 
L 326.54419 176.184986 
L 327.454862 196.068822 
L 327.910198 186.126904 
L 328.365534 152.987178 
L 328.82087 172.871014 
L 329.276206 176.184986 
L 329.731542 189.440877 
L 330.186877 192.754849 
L 330.642213 189.440877 
L 331.097549 96.649644 
L 331.552885 106.591562 
L 332.008221 123.161425 
L 332.463557 103.277589 
L 332.918893 109.905534 
L 333.374229 119.847452 
L 333.829565 119.847452 
L 335.195573 166.243068 
L 335.650909 156.301151 
L 336.106245 139.731288 
L 336.561581 146.359233 
L 337.016917 136.417315 
L 337.472253 129.78937 
L 337.927589 133.103342 
L 338.382925 119.847452 
L 339.293597 126.475397 
L 339.748933 139.731288 
L 340.204269 123.161425 
L 341.114941 149.673205 
L 341.570277 172.871014 
L 342.025613 156.301151 
L 342.480949 169.557041 
L 342.936285 162.929096 
L 343.391621 166.243068 
L 343.846957 159.615123 
L 344.302292 169.557041 
L 344.757628 152.987178 
L 345.6683 152.987178 
L 346.578972 139.731288 
L 347.034308 152.987178 
L 347.489644 143.04526 
L 347.94498 146.359233 
L 348.400316 159.615123 
L 348.855652 133.103342 
L 349.310988 133.103342 
L 349.766324 136.417315 
L 350.22166 126.475397 
L 350.676996 133.103342 
L 351.132332 146.359233 
L 351.587668 152.987178 
L 352.043004 166.243068 
L 352.49834 159.615123 
L 352.953676 176.184986 
L 353.409012 186.126904 
L 353.864348 192.754849 
L 354.319684 202.696767 
L 354.77502 209.324712 
L 355.230356 249.092384 
L 355.685692 272.290192 
L 356.141028 265.662247 
L 356.596364 255.720329 
L 357.0517 235.836493 
L 357.507036 229.208548 
L 357.962372 206.01074 
L 358.873043 179.498959 
L 359.328379 152.987178 
L 359.783715 106.591562 
L 360.239051 119.847452 
L 360.694387 129.78937 
L 361.149723 129.78937 
L 361.605059 116.533479 
L 362.060395 99.963616 
L 362.515731 103.277589 
L 362.971067 96.649644 
L 363.426403 93.335671 
L 363.881739 96.649644 
L 364.337075 103.277589 
L 364.792411 106.591562 
L 365.703083 119.847452 
L 366.613755 106.591562 
L 367.069091 126.475397 
L 367.524427 119.847452 
L 367.979763 116.533479 
L 368.435099 123.161425 
L 368.890435 136.417315 
L 369.345771 136.417315 
L 369.801107 143.04526 
L 370.256443 166.243068 
L 370.711779 159.615123 
L 371.167115 176.184986 
L 371.622451 179.498959 
L 372.077787 169.557041 
L 372.988458 176.184986 
L 373.443794 169.557041 
L 373.89913 172.871014 
L 374.354466 162.929096 
L 374.809802 166.243068 
L 375.265138 176.184986 
L 375.720474 172.871014 
L 376.17581 159.615123 
L 376.631146 162.929096 
L 377.086482 169.557041 
L 377.541818 159.615123 
L 377.997154 146.359233 
L 378.45249 129.78937 
L 378.907826 136.417315 
L 379.363162 146.359233 
L 379.818498 136.417315 
L 380.273834 146.359233 
L 380.72917 99.963616 
L 381.184506 86.707726 
L 381.639842 80.079781 
L 383.00585 99.963616 
L 383.461186 103.277589 
L 383.916522 169.557041 
L 384.371858 162.929096 
L 384.827194 166.243068 
L 385.28253 186.126904 
L 385.737866 189.440877 
L 386.648538 189.440877 
L 387.103874 179.498959 
L 387.559209 215.952658 
L 388.014545 199.382795 
L 388.469881 196.068822 
L 388.925217 179.498959 
L 389.380553 179.498959 
L 389.835889 189.440877 
L 390.291225 179.498959 
L 390.746561 172.871014 
L 391.201897 149.673205 
L 392.112569 162.929096 
L 392.567905 179.498959 
L 393.023241 189.440877 
L 393.478577 206.01074 
L 393.933913 209.324712 
L 394.844585 209.324712 
L 395.299921 215.952658 
L 395.755257 206.01074 
L 396.210593 212.638685 
L 396.665929 215.952658 
L 397.121265 202.696767 
L 397.576601 172.871014 
L 398.031937 176.184986 
L 398.487273 162.929096 
L 398.487273 162.929096 
" clip-path="url(#pf9a4485a1e)" style="fill: none; stroke: #1f77b4; stroke-width: 1.5; stroke-linecap: square"/>
   </g>
   <g id="patch_3">
    <path d="M 57.6 307.584 
L 57.6 41.472 
" style="fill: none; stroke: #000000; stroke-width: 0.8; stroke-linejoin: miter; stroke-linecap: square"/>
   </g>
   <g id="patch_4">
    <path d="M 414.72 307.584 
L 414.72 41.472 
" style="fill: none; stroke: #000000; stroke-width: 0.8; stroke-linejoin: miter; stroke-linecap: square"/>
   </g>
   <g id="patch_5">
    <path d="M 57.6 307.584 
L 414.72 307.584 
" style="fill: none; stroke: #000000; stroke-width: 0.8; stroke-linejoin: miter; stroke-linecap: square"/>
   </g>
   <g id="patch_6">
    <path d="M 57.6 41.472 
L 414.72 41.472 
" style="fill: none; stroke: #000000; stroke-width: 0.8; stroke-linejoin: miter; stroke-linecap: square"/>
   </g>
   <g id="text_19">
    <!-- Simulated Anealling Cost -->
    <g transform="translate(160.8 35.472)scale(0.12 -0.12)">
     <defs>
      <path id="DejaVuSans-53" d="M 3425 4513 
L 3425 3897 
Q 3066 4069 2747 4153 
Q 2428 4238 2131 4238 
Q 1616 4238 1336 4038 
Q 1056 3838 1056 3469 
Q 1056 3159 1242 3001 
Q 1428 2844 1947 2747 
L 2328 2669 
Q 3034 2534 3370 2195 
Q 3706 1856 3706 1288 
Q 3706 609 3251 259 
Q 2797 -91 1919 -91 
Q 1588 -91 1214 -16 
Q 841 59 441 206 
L 441 856 
Q 825 641 1194 531 
Q 1563 422 1919 422 
Q 2459 422 2753 634 
Q 3047 847 3047 1241 
Q 3047 1584 2836 1778 
Q 2625 1972 2144 2069 
L 1759 2144 
Q 1053 2284 737 2584 
Q 422 2884 422 3419 
Q 422 4038 858 4394 
Q 1294 4750 2059 4750 
Q 2388 4750 2728 4690 
Q 3069 4631 3425 4513 
z
" transform="scale(0.015625)"/>
      <path id="DejaVuSans-69" d="M 603 3500 
L 1178 3500 
L 1178 0 
L 603 0 
L 603 3500 
z
M 603 4863 
L 1178 4863 
L 1178 4134 
L 603 4134 
L 603 4863 
z
" transform="scale(0.015625)"/>
      <path id="DejaVuSans-65" d="M 3597 1894 
L 3597 1613 
L 953 1613 
Q 991 1019 1311 708 
Q 1631 397 2203 397 
Q 2534 397 2845 478 
Q 3156 559 3463 722 
L 3463 178 
Q 3153 47 2828 -22 
Q 2503 -91 2169 -91 
Q 1331 -91 842 396 
Q 353 884 353 1716 
Q 353 2575 817 3079 
Q 1281 3584 2069 3584 
Q 2775 3584 3186 3129 
Q 3597 2675 3597 1894 
z
M 3022 2063 
Q 3016 2534 2758 2815 
Q 2500 3097 2075 3097 
Q 1594 3097 1305 2825 
Q 1016 2553 972 2059 
L 3022 2063 
z
" transform="scale(0.015625)"/>
      <path id="DejaVuSans-64" d="M 2906 2969 
L 2906 4863 
L 3481 4863 
L 3481 0 
L 2906 0 
L 2906 525 
Q 2725 213 2448 61 
Q 2172 -91 1784 -91 
Q 1150 -91 751 415 
Q 353 922 353 1747 
Q 353 2572 751 3078 
Q 1150 3584 1784 3584 
Q 2172 3584 2448 3432 
Q 2725 3281 2906 2969 
z
M 947 1747 
Q 947 1113 1208 752 
Q 1469 391 1925 391 
Q 2381 391 2643 752 
Q 2906 1113 2906 1747 
Q 2906 2381 2643 2742 
Q 2381 3103 1925 3103 
Q 1469 3103 1208 2742 
Q 947 2381 947 1747 
z
" transform="scale(0.015625)"/>
      <path id="DejaVuSans-41" d="M 2188 4044 
L 1331 1722 
L 3047 1722 
L 2188 4044 
z
M 1831 4666 
L 2547 4666 
L 4325 0 
L 3669 0 
L 3244 1197 
L 1141 1197 
L 716 0 
L 50 0 
L 1831 4666 
z
" transform="scale(0.015625)"/>
      <path id="DejaVuSans-67" d="M 2906 1791 
Q 2906 2416 2648 2759 
Q 2391 3103 1925 3103 
Q 1463 3103 1205 2759 
Q 947 2416 947 1791 
Q 947 1169 1205 825 
Q 1463 481 1925 481 
Q 2391 481 2648 825 
Q 2906 1169 2906 1791 
z
M 3481 434 
Q 3481 -459 3084 -895 
Q 2688 -1331 1869 -1331 
Q 1566 -1331 1297 -1286 
Q 1028 -1241 775 -1147 
L 775 -588 
Q 1028 -725 1275 -790 
Q 1522 -856 1778 -856 
Q 2344 -856 2625 -561 
Q 2906 -266 2906 331 
L 2906 616 
Q 2728 306 2450 153 
Q 2172 0 1784 0 
Q 1141 0 747 490 
Q 353 981 353 1791 
Q 353 2603 747 3093 
Q 1141 3584 1784 3584 
Q 2172 3584 2450 3431 
Q 2728 3278 2906 2969 
L 2906 3500 
L 3481 3500 
L 3481 434 
z
" transform="scale(0.015625)"/>
      <path id="DejaVuSans-43" d="M 4122 4306 
L 4122 3641 
Q 3803 3938 3442 4084 
Q 3081 4231 2675 4231 
Q 1875 4231 1450 3742 
Q 1025 3253 1025 2328 
Q 1025 1406 1450 917 
Q 1875 428 2675 428 
Q 3081 428 3442 575 
Q 3803 722 4122 1019 
L 4122 359 
Q 3791 134 3420 21 
Q 3050 -91 2638 -91 
Q 1578 -91 968 557 
Q 359 1206 359 2328 
Q 359 3453 968 4101 
Q 1578 4750 2638 4750 
Q 3056 4750 3426 4639 
Q 3797 4528 4122 4306 
z
" transform="scale(0.015625)"/>
     </defs>
     <use xlink:href="#DejaVuSans-53"/>
     <use xlink:href="#DejaVuSans-69" x="63.476562"/>
     <use xlink:href="#DejaVuSans-6d" x="91.259766"/>
     <use xlink:href="#DejaVuSans-75" x="188.671875"/>
     <use xlink:href="#DejaVuSans-6c" x="252.050781"/>
     <use xlink:href="#DejaVuSans-61" x="279.833984"/>
     <use xlink:href="#DejaVuSans-74" x="341.113281"/>
     <use xlink:href="#DejaVuSans-65" x="380.322266"/>
     <use xlink:href="#DejaVuSans-64" x="441.845703"/>
     <use xlink:href="#DejaVuSans-20" x="505.322266"/>
     <use xlink:href="#DejaVuSans-41" x="537.109375"/>
     <use xlink:href="#DejaVuSans-6e" x="605.517578"/>
     <use xlink:href="#DejaVuSans-65" x="668.896484"/>
     <use xlink:href="#DejaVuSans-61" x="730.419922"/>
     <use xlink:href="#DejaVuSans-6c" x="791.699219"/>
     <use xlink:href="#DejaVuSans-6c" x="819.482422"/>
     <use xlink:href="#DejaVuSans-69" x="847.265625"/>
     <use xlink:href="#DejaVuSans-6e" x="875.048828"/>
     <use xlink:href="#DejaVuSans-67" x="938.427734"/>
     <use xlink:href="#DejaVuSans-20" x="1001.904297"/>
     <use xlink:href="#DejaVuSans-43" x="1033.691406"/>
     <use xlink:href="#DejaVuSans-6f" x="1103.515625"/>
     <use xlink:href="#DejaVuSans-73" x="1164.697266"/>
     <use xlink:href="#DejaVuSans-74" x="1216.796875"/>
    </g>
   </g>
  </g>
 </g>
 <defs>
  <clipPath id="pf9a4485a1e">
   <rect x="57.6" y="41.472" width="357.12" height="266.112"/>
  </clipPath>
 </defs>
</svg>
