<?xml version="1.0" encoding="utf-8" standalone="no"?>
<!DOCTYPE svg PUBLIC "-//W3C//DTD SVG 1.1//EN"
  "http://www.w3.org/Graphics/SVG/1.1/DTD/svg11.dtd">
<svg xmlns:xlink="http://www.w3.org/1999/xlink" width="460.8pt" height="345.6pt" viewBox="0 0 460.8 345.6" xmlns="http://www.w3.org/2000/svg" version="1.1">
 <metadata>
  <rdf:RDF xmlns:dc="http://purl.org/dc/elements/1.1/" xmlns:cc="http://creativecommons.org/ns#" xmlns:rdf="http://www.w3.org/1999/02/22-rdf-syntax-ns#">
   <cc:Work>
    <dc:type rdf:resource="http://purl.org/dc/dcmitype/StillImage"/>
    <dc:date>2022-06-01T08:05:44.741858</dc:date>
    <dc:format>image/svg+xml</dc:format>
    <dc:creator>
     <cc:Agent>
      <dc:title>Matplotlib v3.5.1, https://matplotlib.org/</dc:title>
     </cc:Agent>
    </dc:creator>
   </cc:Work>
  </rdf:RDF>
 </metadata>
 <defs>
  <style type="text/css">*{stroke-linejoin: round; stroke-linecap: butt}</style>
 </defs>
 <g id="figure_1">
  <g id="patch_1">
   <path d="M 0 345.6 
L 460.8 345.6 
L 460.8 0 
L 0 0 
z
" style="fill: #ffffff"/>
  </g>
  <g id="axes_1">
   <g id="patch_2">
    <path d="M 57.6 307.584 
L 414.72 307.584 
L 414.72 41.472 
L 57.6 41.472 
z
" style="fill: #ffffff"/>
   </g>
   <g id="matplotlib.axis_1">
    <g id="xtick_1">
     <g id="line2d_1">
      <defs>
       <path id="mb26d3021f9" d="M 0 0 
L 0 3.5 
" style="stroke: #000000; stroke-width: 0.8"/>
      </defs>
      <g>
       <use xlink:href="#mb26d3021f9" x="73.832727" y="307.584" style="stroke: #000000; stroke-width: 0.8"/>
      </g>
     </g>
     <g id="text_1">
      <!-- 0 -->
      <g transform="translate(70.651477 322.182437)scale(0.1 -0.1)">
       <defs>
        <path id="DejaVuSans-30" d="M 2034 4250 
Q 1547 4250 1301 3770 
Q 1056 3291 1056 2328 
Q 1056 1369 1301 889 
Q 1547 409 2034 409 
Q 2525 409 2770 889 
Q 3016 1369 3016 2328 
Q 3016 3291 2770 3770 
Q 2525 4250 2034 4250 
z
M 2034 4750 
Q 2819 4750 3233 4129 
Q 3647 3509 3647 2328 
Q 3647 1150 3233 529 
Q 2819 -91 2034 -91 
Q 1250 -91 836 529 
Q 422 1150 422 2328 
Q 422 3509 836 4129 
Q 1250 4750 2034 4750 
z
" transform="scale(0.015625)"/>
       </defs>
       <use xlink:href="#DejaVuSans-30"/>
      </g>
     </g>
    </g>
    <g id="xtick_2">
     <g id="line2d_2">
      <g>
       <use xlink:href="#mb26d3021f9" x="118.428132" y="307.584" style="stroke: #000000; stroke-width: 0.8"/>
      </g>
     </g>
     <g id="text_2">
      <!-- 200 -->
      <g transform="translate(108.884382 322.182437)scale(0.1 -0.1)">
       <defs>
        <path id="DejaVuSans-32" d="M 1228 531 
L 3431 531 
L 3431 0 
L 469 0 
L 469 531 
Q 828 903 1448 1529 
Q 2069 2156 2228 2338 
Q 2531 2678 2651 2914 
Q 2772 3150 2772 3378 
Q 2772 3750 2511 3984 
Q 2250 4219 1831 4219 
Q 1534 4219 1204 4116 
Q 875 4013 500 3803 
L 500 4441 
Q 881 4594 1212 4672 
Q 1544 4750 1819 4750 
Q 2544 4750 2975 4387 
Q 3406 4025 3406 3419 
Q 3406 3131 3298 2873 
Q 3191 2616 2906 2266 
Q 2828 2175 2409 1742 
Q 1991 1309 1228 531 
z
" transform="scale(0.015625)"/>
       </defs>
       <use xlink:href="#DejaVuSans-32"/>
       <use xlink:href="#DejaVuSans-30" x="63.623047"/>
       <use xlink:href="#DejaVuSans-30" x="127.246094"/>
      </g>
     </g>
    </g>
    <g id="xtick_3">
     <g id="line2d_3">
      <g>
       <use xlink:href="#mb26d3021f9" x="163.023536" y="307.584" style="stroke: #000000; stroke-width: 0.8"/>
      </g>
     </g>
     <g id="text_3">
      <!-- 400 -->
      <g transform="translate(153.479786 322.182437)scale(0.1 -0.1)">
       <defs>
        <path id="DejaVuSans-34" d="M 2419 4116 
L 825 1625 
L 2419 1625 
L 2419 4116 
z
M 2253 4666 
L 3047 4666 
L 3047 1625 
L 3713 1625 
L 3713 1100 
L 3047 1100 
L 3047 0 
L 2419 0 
L 2419 1100 
L 313 1100 
L 313 1709 
L 2253 4666 
z
" transform="scale(0.015625)"/>
       </defs>
       <use xlink:href="#DejaVuSans-34"/>
       <use xlink:href="#DejaVuSans-30" x="63.623047"/>
       <use xlink:href="#DejaVuSans-30" x="127.246094"/>
      </g>
     </g>
    </g>
    <g id="xtick_4">
     <g id="line2d_4">
      <g>
       <use xlink:href="#mb26d3021f9" x="207.618941" y="307.584" style="stroke: #000000; stroke-width: 0.8"/>
      </g>
     </g>
     <g id="text_4">
      <!-- 600 -->
      <g transform="translate(198.075191 322.182437)scale(0.1 -0.1)">
       <defs>
        <path id="DejaVuSans-36" d="M 2113 2584 
Q 1688 2584 1439 2293 
Q 1191 2003 1191 1497 
Q 1191 994 1439 701 
Q 1688 409 2113 409 
Q 2538 409 2786 701 
Q 3034 994 3034 1497 
Q 3034 2003 2786 2293 
Q 2538 2584 2113 2584 
z
M 3366 4563 
L 3366 3988 
Q 3128 4100 2886 4159 
Q 2644 4219 2406 4219 
Q 1781 4219 1451 3797 
Q 1122 3375 1075 2522 
Q 1259 2794 1537 2939 
Q 1816 3084 2150 3084 
Q 2853 3084 3261 2657 
Q 3669 2231 3669 1497 
Q 3669 778 3244 343 
Q 2819 -91 2113 -91 
Q 1303 -91 875 529 
Q 447 1150 447 2328 
Q 447 3434 972 4092 
Q 1497 4750 2381 4750 
Q 2619 4750 2861 4703 
Q 3103 4656 3366 4563 
z
" transform="scale(0.015625)"/>
       </defs>
       <use xlink:href="#DejaVuSans-36"/>
       <use xlink:href="#DejaVuSans-30" x="63.623047"/>
       <use xlink:href="#DejaVuSans-30" x="127.246094"/>
      </g>
     </g>
    </g>
    <g id="xtick_5">
     <g id="line2d_5">
      <g>
       <use xlink:href="#mb26d3021f9" x="252.214346" y="307.584" style="stroke: #000000; stroke-width: 0.8"/>
      </g>
     </g>
     <g id="text_5">
      <!-- 800 -->
      <g transform="translate(242.670596 322.182437)scale(0.1 -0.1)">
       <defs>
        <path id="DejaVuSans-38" d="M 2034 2216 
Q 1584 2216 1326 1975 
Q 1069 1734 1069 1313 
Q 1069 891 1326 650 
Q 1584 409 2034 409 
Q 2484 409 2743 651 
Q 3003 894 3003 1313 
Q 3003 1734 2745 1975 
Q 2488 2216 2034 2216 
z
M 1403 2484 
Q 997 2584 770 2862 
Q 544 3141 544 3541 
Q 544 4100 942 4425 
Q 1341 4750 2034 4750 
Q 2731 4750 3128 4425 
Q 3525 4100 3525 3541 
Q 3525 3141 3298 2862 
Q 3072 2584 2669 2484 
Q 3125 2378 3379 2068 
Q 3634 1759 3634 1313 
Q 3634 634 3220 271 
Q 2806 -91 2034 -91 
Q 1263 -91 848 271 
Q 434 634 434 1313 
Q 434 1759 690 2068 
Q 947 2378 1403 2484 
z
M 1172 3481 
Q 1172 3119 1398 2916 
Q 1625 2713 2034 2713 
Q 2441 2713 2670 2916 
Q 2900 3119 2900 3481 
Q 2900 3844 2670 4047 
Q 2441 4250 2034 4250 
Q 1625 4250 1398 4047 
Q 1172 3844 1172 3481 
z
" transform="scale(0.015625)"/>
       </defs>
       <use xlink:href="#DejaVuSans-38"/>
       <use xlink:href="#DejaVuSans-30" x="63.623047"/>
       <use xlink:href="#DejaVuSans-30" x="127.246094"/>
      </g>
     </g>
    </g>
    <g id="xtick_6">
     <g id="line2d_6">
      <g>
       <use xlink:href="#mb26d3021f9" x="296.80975" y="307.584" style="stroke: #000000; stroke-width: 0.8"/>
      </g>
     </g>
     <g id="text_6">
      <!-- 1000 -->
      <g transform="translate(284.08475 322.182437)scale(0.1 -0.1)">
       <defs>
        <path id="DejaVuSans-31" d="M 794 531 
L 1825 531 
L 1825 4091 
L 703 3866 
L 703 4441 
L 1819 4666 
L 2450 4666 
L 2450 531 
L 3481 531 
L 3481 0 
L 794 0 
L 794 531 
z
" transform="scale(0.015625)"/>
       </defs>
       <use xlink:href="#DejaVuSans-31"/>
       <use xlink:href="#DejaVuSans-30" x="63.623047"/>
       <use xlink:href="#DejaVuSans-30" x="127.246094"/>
       <use xlink:href="#DejaVuSans-30" x="190.869141"/>
      </g>
     </g>
    </g>
    <g id="xtick_7">
     <g id="line2d_7">
      <g>
       <use xlink:href="#mb26d3021f9" x="341.405155" y="307.584" style="stroke: #000000; stroke-width: 0.8"/>
      </g>
     </g>
     <g id="text_7">
      <!-- 1200 -->
      <g transform="translate(328.680155 322.182437)scale(0.1 -0.1)">
       <use xlink:href="#DejaVuSans-31"/>
       <use xlink:href="#DejaVuSans-32" x="63.623047"/>
       <use xlink:href="#DejaVuSans-30" x="127.246094"/>
       <use xlink:href="#DejaVuSans-30" x="190.869141"/>
      </g>
     </g>
    </g>
    <g id="xtick_8">
     <g id="line2d_8">
      <g>
       <use xlink:href="#mb26d3021f9" x="386.000559" y="307.584" style="stroke: #000000; stroke-width: 0.8"/>
      </g>
     </g>
     <g id="text_8">
      <!-- 1400 -->
      <g transform="translate(373.275559 322.182437)scale(0.1 -0.1)">
       <use xlink:href="#DejaVuSans-31"/>
       <use xlink:href="#DejaVuSans-34" x="63.623047"/>
       <use xlink:href="#DejaVuSans-30" x="127.246094"/>
       <use xlink:href="#DejaVuSans-30" x="190.869141"/>
      </g>
     </g>
    </g>
    <g id="text_9">
     <!-- num swaps -->
     <g transform="translate(207.826406 335.860562)scale(0.1 -0.1)">
      <defs>
       <path id="DejaVuSans-6e" d="M 3513 2113 
L 3513 0 
L 2938 0 
L 2938 2094 
Q 2938 2591 2744 2837 
Q 2550 3084 2163 3084 
Q 1697 3084 1428 2787 
Q 1159 2491 1159 1978 
L 1159 0 
L 581 0 
L 581 3500 
L 1159 3500 
L 1159 2956 
Q 1366 3272 1645 3428 
Q 1925 3584 2291 3584 
Q 2894 3584 3203 3211 
Q 3513 2838 3513 2113 
z
" transform="scale(0.015625)"/>
       <path id="DejaVuSans-75" d="M 544 1381 
L 544 3500 
L 1119 3500 
L 1119 1403 
Q 1119 906 1312 657 
Q 1506 409 1894 409 
Q 2359 409 2629 706 
Q 2900 1003 2900 1516 
L 2900 3500 
L 3475 3500 
L 3475 0 
L 2900 0 
L 2900 538 
Q 2691 219 2414 64 
Q 2138 -91 1772 -91 
Q 1169 -91 856 284 
Q 544 659 544 1381 
z
M 1991 3584 
L 1991 3584 
z
" transform="scale(0.015625)"/>
       <path id="DejaVuSans-6d" d="M 3328 2828 
Q 3544 3216 3844 3400 
Q 4144 3584 4550 3584 
Q 5097 3584 5394 3201 
Q 5691 2819 5691 2113 
L 5691 0 
L 5113 0 
L 5113 2094 
Q 5113 2597 4934 2840 
Q 4756 3084 4391 3084 
Q 3944 3084 3684 2787 
Q 3425 2491 3425 1978 
L 3425 0 
L 2847 0 
L 2847 2094 
Q 2847 2600 2669 2842 
Q 2491 3084 2119 3084 
Q 1678 3084 1418 2786 
Q 1159 2488 1159 1978 
L 1159 0 
L 581 0 
L 581 3500 
L 1159 3500 
L 1159 2956 
Q 1356 3278 1631 3431 
Q 1906 3584 2284 3584 
Q 2666 3584 2933 3390 
Q 3200 3197 3328 2828 
z
" transform="scale(0.015625)"/>
       <path id="DejaVuSans-20" transform="scale(0.015625)"/>
       <path id="DejaVuSans-73" d="M 2834 3397 
L 2834 2853 
Q 2591 2978 2328 3040 
Q 2066 3103 1784 3103 
Q 1356 3103 1142 2972 
Q 928 2841 928 2578 
Q 928 2378 1081 2264 
Q 1234 2150 1697 2047 
L 1894 2003 
Q 2506 1872 2764 1633 
Q 3022 1394 3022 966 
Q 3022 478 2636 193 
Q 2250 -91 1575 -91 
Q 1294 -91 989 -36 
Q 684 19 347 128 
L 347 722 
Q 666 556 975 473 
Q 1284 391 1588 391 
Q 1994 391 2212 530 
Q 2431 669 2431 922 
Q 2431 1156 2273 1281 
Q 2116 1406 1581 1522 
L 1381 1569 
Q 847 1681 609 1914 
Q 372 2147 372 2553 
Q 372 3047 722 3315 
Q 1072 3584 1716 3584 
Q 2034 3584 2315 3537 
Q 2597 3491 2834 3397 
z
" transform="scale(0.015625)"/>
       <path id="DejaVuSans-77" d="M 269 3500 
L 844 3500 
L 1563 769 
L 2278 3500 
L 2956 3500 
L 3675 769 
L 4391 3500 
L 4966 3500 
L 4050 0 
L 3372 0 
L 2619 2869 
L 1863 0 
L 1184 0 
L 269 3500 
z
" transform="scale(0.015625)"/>
       <path id="DejaVuSans-61" d="M 2194 1759 
Q 1497 1759 1228 1600 
Q 959 1441 959 1056 
Q 959 750 1161 570 
Q 1363 391 1709 391 
Q 2188 391 2477 730 
Q 2766 1069 2766 1631 
L 2766 1759 
L 2194 1759 
z
M 3341 1997 
L 3341 0 
L 2766 0 
L 2766 531 
Q 2569 213 2275 61 
Q 1981 -91 1556 -91 
Q 1019 -91 701 211 
Q 384 513 384 1019 
Q 384 1609 779 1909 
Q 1175 2209 1959 2209 
L 2766 2209 
L 2766 2266 
Q 2766 2663 2505 2880 
Q 2244 3097 1772 3097 
Q 1472 3097 1187 3025 
Q 903 2953 641 2809 
L 641 3341 
Q 956 3463 1253 3523 
Q 1550 3584 1831 3584 
Q 2591 3584 2966 3190 
Q 3341 2797 3341 1997 
z
" transform="scale(0.015625)"/>
       <path id="DejaVuSans-70" d="M 1159 525 
L 1159 -1331 
L 581 -1331 
L 581 3500 
L 1159 3500 
L 1159 2969 
Q 1341 3281 1617 3432 
Q 1894 3584 2278 3584 
Q 2916 3584 3314 3078 
Q 3713 2572 3713 1747 
Q 3713 922 3314 415 
Q 2916 -91 2278 -91 
Q 1894 -91 1617 61 
Q 1341 213 1159 525 
z
M 3116 1747 
Q 3116 2381 2855 2742 
Q 2594 3103 2138 3103 
Q 1681 3103 1420 2742 
Q 1159 2381 1159 1747 
Q 1159 1113 1420 752 
Q 1681 391 2138 391 
Q 2594 391 2855 752 
Q 3116 1113 3116 1747 
z
" transform="scale(0.015625)"/>
      </defs>
      <use xlink:href="#DejaVuSans-6e"/>
      <use xlink:href="#DejaVuSans-75" x="63.378906"/>
      <use xlink:href="#DejaVuSans-6d" x="126.757812"/>
      <use xlink:href="#DejaVuSans-20" x="224.169922"/>
      <use xlink:href="#DejaVuSans-73" x="255.957031"/>
      <use xlink:href="#DejaVuSans-77" x="308.056641"/>
      <use xlink:href="#DejaVuSans-61" x="389.84375"/>
      <use xlink:href="#DejaVuSans-70" x="451.123047"/>
      <use xlink:href="#DejaVuSans-73" x="514.599609"/>
     </g>
    </g>
   </g>
   <g id="matplotlib.axis_2">
    <g id="ytick_1">
     <g id="line2d_9">
      <defs>
       <path id="m504d63ebce" d="M 0 0 
L -3.5 0 
" style="stroke: #000000; stroke-width: 0.8"/>
      </defs>
      <g>
       <use xlink:href="#m504d63ebce" x="57.6" y="268.511309" style="stroke: #000000; stroke-width: 0.8"/>
      </g>
     </g>
     <g id="text_10">
      <!-- 900 -->
      <g transform="translate(31.5125 272.310528)scale(0.1 -0.1)">
       <defs>
        <path id="DejaVuSans-39" d="M 703 97 
L 703 672 
Q 941 559 1184 500 
Q 1428 441 1663 441 
Q 2288 441 2617 861 
Q 2947 1281 2994 2138 
Q 2813 1869 2534 1725 
Q 2256 1581 1919 1581 
Q 1219 1581 811 2004 
Q 403 2428 403 3163 
Q 403 3881 828 4315 
Q 1253 4750 1959 4750 
Q 2769 4750 3195 4129 
Q 3622 3509 3622 2328 
Q 3622 1225 3098 567 
Q 2575 -91 1691 -91 
Q 1453 -91 1209 -44 
Q 966 3 703 97 
z
M 1959 2075 
Q 2384 2075 2632 2365 
Q 2881 2656 2881 3163 
Q 2881 3666 2632 3958 
Q 2384 4250 1959 4250 
Q 1534 4250 1286 3958 
Q 1038 3666 1038 3163 
Q 1038 2656 1286 2365 
Q 1534 2075 1959 2075 
z
" transform="scale(0.015625)"/>
       </defs>
       <use xlink:href="#DejaVuSans-39"/>
       <use xlink:href="#DejaVuSans-30" x="63.623047"/>
       <use xlink:href="#DejaVuSans-30" x="127.246094"/>
      </g>
     </g>
    </g>
    <g id="ytick_2">
     <g id="line2d_10">
      <g>
       <use xlink:href="#m504d63ebce" x="57.6" y="225.000518" style="stroke: #000000; stroke-width: 0.8"/>
      </g>
     </g>
     <g id="text_11">
      <!-- 950 -->
      <g transform="translate(31.5125 228.799737)scale(0.1 -0.1)">
       <defs>
        <path id="DejaVuSans-35" d="M 691 4666 
L 3169 4666 
L 3169 4134 
L 1269 4134 
L 1269 2991 
Q 1406 3038 1543 3061 
Q 1681 3084 1819 3084 
Q 2600 3084 3056 2656 
Q 3513 2228 3513 1497 
Q 3513 744 3044 326 
Q 2575 -91 1722 -91 
Q 1428 -91 1123 -41 
Q 819 9 494 109 
L 494 744 
Q 775 591 1075 516 
Q 1375 441 1709 441 
Q 2250 441 2565 725 
Q 2881 1009 2881 1497 
Q 2881 1984 2565 2268 
Q 2250 2553 1709 2553 
Q 1456 2553 1204 2497 
Q 953 2441 691 2322 
L 691 4666 
z
" transform="scale(0.015625)"/>
       </defs>
       <use xlink:href="#DejaVuSans-39"/>
       <use xlink:href="#DejaVuSans-35" x="63.623047"/>
       <use xlink:href="#DejaVuSans-30" x="127.246094"/>
      </g>
     </g>
    </g>
    <g id="ytick_3">
     <g id="line2d_11">
      <g>
       <use xlink:href="#m504d63ebce" x="57.6" y="181.489727" style="stroke: #000000; stroke-width: 0.8"/>
      </g>
     </g>
     <g id="text_12">
      <!-- 1000 -->
      <g transform="translate(25.15 185.288945)scale(0.1 -0.1)">
       <use xlink:href="#DejaVuSans-31"/>
       <use xlink:href="#DejaVuSans-30" x="63.623047"/>
       <use xlink:href="#DejaVuSans-30" x="127.246094"/>
       <use xlink:href="#DejaVuSans-30" x="190.869141"/>
      </g>
     </g>
    </g>
    <g id="ytick_4">
     <g id="line2d_12">
      <g>
       <use xlink:href="#m504d63ebce" x="57.6" y="137.978935" style="stroke: #000000; stroke-width: 0.8"/>
      </g>
     </g>
     <g id="text_13">
      <!-- 1050 -->
      <g transform="translate(25.15 141.778154)scale(0.1 -0.1)">
       <use xlink:href="#DejaVuSans-31"/>
       <use xlink:href="#DejaVuSans-30" x="63.623047"/>
       <use xlink:href="#DejaVuSans-35" x="127.246094"/>
       <use xlink:href="#DejaVuSans-30" x="190.869141"/>
      </g>
     </g>
    </g>
    <g id="ytick_5">
     <g id="line2d_13">
      <g>
       <use xlink:href="#m504d63ebce" x="57.6" y="94.468144" style="stroke: #000000; stroke-width: 0.8"/>
      </g>
     </g>
     <g id="text_14">
      <!-- 1100 -->
      <g transform="translate(25.15 98.267363)scale(0.1 -0.1)">
       <use xlink:href="#DejaVuSans-31"/>
       <use xlink:href="#DejaVuSans-31" x="63.623047"/>
       <use xlink:href="#DejaVuSans-30" x="127.246094"/>
       <use xlink:href="#DejaVuSans-30" x="190.869141"/>
      </g>
     </g>
    </g>
    <g id="ytick_6">
     <g id="line2d_14">
      <g>
       <use xlink:href="#m504d63ebce" x="57.6" y="50.957353" style="stroke: #000000; stroke-width: 0.8"/>
      </g>
     </g>
     <g id="text_15">
      <!-- 1150 -->
      <g transform="translate(25.15 54.756571)scale(0.1 -0.1)">
       <use xlink:href="#DejaVuSans-31"/>
       <use xlink:href="#DejaVuSans-31" x="63.623047"/>
       <use xlink:href="#DejaVuSans-35" x="127.246094"/>
       <use xlink:href="#DejaVuSans-30" x="190.869141"/>
      </g>
     </g>
    </g>
    <g id="text_16">
     <!-- total cost -->
     <g transform="translate(19.070312 197.923313)rotate(-90)scale(0.1 -0.1)">
      <defs>
       <path id="DejaVuSans-74" d="M 1172 4494 
L 1172 3500 
L 2356 3500 
L 2356 3053 
L 1172 3053 
L 1172 1153 
Q 1172 725 1289 603 
Q 1406 481 1766 481 
L 2356 481 
L 2356 0 
L 1766 0 
Q 1100 0 847 248 
Q 594 497 594 1153 
L 594 3053 
L 172 3053 
L 172 3500 
L 594 3500 
L 594 4494 
L 1172 4494 
z
" transform="scale(0.015625)"/>
       <path id="DejaVuSans-6f" d="M 1959 3097 
Q 1497 3097 1228 2736 
Q 959 2375 959 1747 
Q 959 1119 1226 758 
Q 1494 397 1959 397 
Q 2419 397 2687 759 
Q 2956 1122 2956 1747 
Q 2956 2369 2687 2733 
Q 2419 3097 1959 3097 
z
M 1959 3584 
Q 2709 3584 3137 3096 
Q 3566 2609 3566 1747 
Q 3566 888 3137 398 
Q 2709 -91 1959 -91 
Q 1206 -91 779 398 
Q 353 888 353 1747 
Q 353 2609 779 3096 
Q 1206 3584 1959 3584 
z
" transform="scale(0.015625)"/>
       <path id="DejaVuSans-6c" d="M 603 4863 
L 1178 4863 
L 1178 0 
L 603 0 
L 603 4863 
z
" transform="scale(0.015625)"/>
       <path id="DejaVuSans-63" d="M 3122 3366 
L 3122 2828 
Q 2878 2963 2633 3030 
Q 2388 3097 2138 3097 
Q 1578 3097 1268 2742 
Q 959 2388 959 1747 
Q 959 1106 1268 751 
Q 1578 397 2138 397 
Q 2388 397 2633 464 
Q 2878 531 3122 666 
L 3122 134 
Q 2881 22 2623 -34 
Q 2366 -91 2075 -91 
Q 1284 -91 818 406 
Q 353 903 353 1747 
Q 353 2603 823 3093 
Q 1294 3584 2113 3584 
Q 2378 3584 2631 3529 
Q 2884 3475 3122 3366 
z
" transform="scale(0.015625)"/>
      </defs>
      <use xlink:href="#DejaVuSans-74"/>
      <use xlink:href="#DejaVuSans-6f" x="39.208984"/>
      <use xlink:href="#DejaVuSans-74" x="100.390625"/>
      <use xlink:href="#DejaVuSans-61" x="139.599609"/>
      <use xlink:href="#DejaVuSans-6c" x="200.878906"/>
      <use xlink:href="#DejaVuSans-20" x="228.662109"/>
      <use xlink:href="#DejaVuSans-63" x="260.449219"/>
      <use xlink:href="#DejaVuSans-6f" x="315.429688"/>
      <use xlink:href="#DejaVuSans-73" x="376.611328"/>
      <use xlink:href="#DejaVuSans-74" x="428.710938"/>
     </g>
    </g>
   </g>
   <g id="line2d_15">
    <path d="M 73.832727 123.185266 
L 74.278681 124.925698 
L 74.724635 148.421525 
L 75.170589 179.749295 
L 76.062498 158.864115 
L 76.508452 140.589583 
L 76.954406 135.368288 
L 77.40036 137.978935 
L 77.846314 165.825842 
L 78.292268 172.787568 
L 78.738222 175.398216 
L 79.184176 151.902388 
L 79.63013 146.681094 
L 80.522038 143.20023 
L 80.967992 153.64282 
L 81.413946 147.551309 
L 81.8599 137.978935 
L 82.305854 115.353324 
L 82.751808 116.22354 
L 83.197762 93.597928 
L 83.643716 113.612892 
L 84.08967 157.993899 
L 84.535624 157.993899 
L 84.981578 147.551309 
L 85.427532 117.093755 
L 85.873487 151.032173 
L 86.319441 149.291741 
L 86.765395 170.176921 
L 87.211349 174.528 
L 87.657303 171.047137 
L 88.103257 159.734331 
L 88.549211 173.657784 
L 88.995165 191.932317 
L 89.441119 217.168576 
L 89.887073 225.870734 
L 90.333027 225.870734 
L 91.224935 294.617784 
L 91.670889 270.251741 
L 92.562797 247.626129 
L 93.008751 223.260086 
L 93.454705 232.83246 
L 93.900659 260.679367 
L 94.346613 261.549583 
L 94.792567 251.977209 
L 95.238521 251.977209 
L 96.13043 290.266705 
L 96.576384 278.083683 
L 97.022338 279.824115 
L 97.468292 268.511309 
L 97.914246 233.702676 
L 98.3602 248.496345 
L 98.806154 252.847424 
L 99.252108 239.794187 
L 99.698062 234.572892 
L 100.144016 238.053755 
L 100.58997 239.794187 
L 101.035924 251.977209 
L 101.481878 257.198504 
L 101.927832 246.755914 
L 102.373786 245.015482 
L 102.81974 278.953899 
L 103.265694 275.473036 
L 103.711648 294.617784 
L 104.603556 285.04541 
L 105.04951 238.053755 
L 105.495465 252.847424 
L 105.941419 246.755914 
L 106.387373 252.847424 
L 106.833327 251.106993 
L 107.279281 240.664403 
L 107.725235 248.496345 
L 108.171189 271.992173 
L 108.617143 271.121957 
L 109.063097 271.992173 
L 109.509051 275.473036 
L 109.955005 263.290014 
L 110.400959 256.328288 
L 110.846913 258.068719 
L 111.292867 254.587856 
L 111.738821 265.900662 
L 112.184775 265.030446 
L 112.630729 247.626129 
L 113.076683 240.664403 
L 113.522637 268.511309 
L 113.968591 277.213468 
L 114.414545 247.626129 
L 114.8605 258.068719 
L 115.306454 240.664403 
L 115.752408 265.030446 
L 116.198362 262.419799 
L 116.644316 268.511309 
L 117.536224 258.938935 
L 117.982178 248.496345 
L 118.428132 260.679367 
L 118.874086 213.687712 
L 119.32004 222.389871 
L 119.765994 204.985554 
L 120.211948 182.359942 
L 120.657902 174.528 
L 121.103856 178.879079 
L 121.54981 176.268432 
L 121.995764 191.932317 
L 122.441718 192.802532 
L 122.887672 187.581237 
L 123.333626 189.321669 
L 123.77958 141.459799 
L 124.225534 197.153612 
L 124.671489 230.221813 
L 125.117443 241.534619 
L 125.563397 236.313324 
L 126.009351 243.27505 
L 126.455305 233.702676 
L 126.901259 240.664403 
L 127.347213 280.694331 
L 127.793167 264.16023 
L 128.239121 238.053755 
L 128.685075 244.145266 
L 129.131029 231.092029 
L 129.576983 232.83246 
L 130.022937 237.18354 
L 130.468891 239.794187 
L 130.914845 238.053755 
L 131.360799 225.870734 
L 131.806753 205.85577 
L 132.252707 236.313324 
L 132.698661 246.755914 
L 133.590569 231.962245 
L 134.036523 233.702676 
L 134.482478 226.74095 
L 134.928432 234.572892 
L 135.374386 225.870734 
L 135.82034 221.519655 
L 136.266294 257.198504 
L 136.712248 271.121957 
L 137.158202 258.938935 
L 137.604156 238.053755 
L 138.05011 239.794187 
L 138.496064 246.755914 
L 138.942018 249.366561 
L 139.387972 248.496345 
L 139.833926 208.466417 
L 140.27988 155.383252 
L 140.725834 151.032173 
L 141.171788 151.032173 
L 141.617742 171.047137 
L 142.063696 167.566273 
L 142.50965 171.917353 
L 142.955604 151.032173 
L 143.401558 171.047137 
L 143.847512 174.528 
L 144.293467 154.513036 
L 145.185375 191.932317 
L 145.631329 198.023827 
L 146.077283 196.283396 
L 146.523237 195.41318 
L 146.969191 185.840806 
L 147.415145 198.894043 
L 147.861099 217.168576 
L 148.307053 211.947281 
L 148.753007 222.389871 
L 149.198961 218.038791 
L 149.644915 215.428144 
L 150.090869 198.894043 
L 150.536823 206.725986 
L 150.982777 185.840806 
L 151.428731 198.023827 
L 151.874685 180.619511 
L 152.320639 191.062101 
L 153.212547 149.291741 
L 153.658501 140.589583 
L 154.104456 137.978935 
L 154.55041 145.810878 
L 154.996364 144.940662 
L 155.888272 197.153612 
L 156.334226 210.206849 
L 156.78018 213.687712 
L 157.226134 203.245122 
L 158.118042 228.481381 
L 158.563996 225.000518 
L 159.00995 240.664403 
L 159.455904 238.923971 
L 159.901858 211.077065 
L 160.347812 191.932317 
L 160.793766 193.672748 
L 161.23972 180.619511 
L 161.685674 191.062101 
L 162.131628 182.359942 
L 162.577582 176.268432 
L 163.023536 194.542964 
L 163.469491 201.504691 
L 163.915445 198.023827 
L 164.361399 180.619511 
L 164.807353 184.100374 
L 165.253307 178.008863 
L 166.145215 161.474763 
L 166.591169 180.619511 
L 167.037123 185.840806 
L 167.929031 220.649439 
L 168.374985 212.817496 
L 168.820939 231.092029 
L 169.266893 225.870734 
L 169.712847 218.909007 
L 170.158801 220.649439 
L 170.604755 184.100374 
L 171.050709 190.191885 
L 171.496663 178.879079 
L 171.942617 199.764259 
L 172.388571 202.374906 
L 172.834525 203.245122 
L 173.28048 243.27505 
L 173.726434 260.679367 
L 174.172388 256.328288 
L 174.618342 258.068719 
L 175.064296 265.030446 
L 175.51025 261.549583 
L 175.956204 238.923971 
L 176.402158 223.260086 
L 176.848112 202.374906 
L 177.294066 215.428144 
L 178.185974 230.221813 
L 179.077882 221.519655 
L 179.523836 231.962245 
L 179.96979 218.038791 
L 180.415744 211.947281 
L 180.861698 188.451453 
L 181.307652 192.802532 
L 181.753606 156.253468 
L 182.19956 184.97059 
L 182.645514 196.283396 
L 183.091469 199.764259 
L 183.537423 180.619511 
L 183.983377 171.917353 
L 184.429331 179.749295 
L 184.875285 171.047137 
L 185.321239 191.062101 
L 185.767193 194.542964 
L 186.659101 211.947281 
L 187.105055 210.206849 
L 187.551009 220.649439 
L 187.996963 204.985554 
L 188.888871 157.993899 
L 189.334825 152.772604 
L 189.780779 156.253468 
L 190.226733 174.528 
L 190.672687 170.176921 
L 191.118641 156.253468 
L 191.564595 163.215194 
L 192.010549 152.772604 
L 192.456503 133.627856 
L 192.902458 153.64282 
L 193.794366 174.528 
L 194.24032 164.08541 
L 194.686274 176.268432 
L 195.132228 202.374906 
L 195.578182 213.687712 
L 196.024136 251.977209 
L 196.47009 243.27505 
L 197.361998 208.466417 
L 197.807952 215.428144 
L 198.253906 211.947281 
L 198.69986 224.130302 
L 199.145814 242.404835 
L 199.591768 231.962245 
L 200.037722 198.894043 
L 200.483676 201.504691 
L 201.375584 204.985554 
L 202.267493 199.764259 
L 202.713447 198.023827 
L 203.159401 199.764259 
L 203.605355 205.85577 
L 204.051309 210.206849 
L 204.943217 225.870734 
L 205.389171 211.947281 
L 205.835125 204.115338 
L 206.281079 236.313324 
L 206.727033 219.779223 
L 207.172987 225.000518 
L 207.618941 213.687712 
L 208.064895 227.611165 
L 208.510849 227.611165 
L 208.956803 206.725986 
L 209.402757 221.519655 
L 210.294665 166.696058 
L 210.740619 173.657784 
L 211.186573 172.787568 
L 211.632527 175.398216 
L 212.078482 180.619511 
L 212.524436 199.764259 
L 212.97039 212.817496 
L 213.416344 210.206849 
L 213.862298 194.542964 
L 214.308252 185.840806 
L 214.754206 187.581237 
L 215.20016 186.711022 
L 215.646114 207.596201 
L 216.092068 208.466417 
L 216.538022 178.879079 
L 216.983976 186.711022 
L 217.42993 187.581237 
L 217.875884 192.802532 
L 218.321838 202.374906 
L 218.767792 181.489727 
L 219.213746 165.825842 
L 219.6597 162.344978 
L 220.105654 134.498072 
L 220.997562 153.64282 
L 221.443516 198.894043 
L 221.889471 202.374906 
L 222.335425 191.932317 
L 222.781379 178.008863 
L 223.227333 179.749295 
L 223.673287 165.825842 
L 224.119241 164.955626 
L 224.565195 163.215194 
L 225.011149 167.566273 
L 225.457103 135.368288 
L 225.903057 126.666129 
L 226.794965 143.20023 
L 227.240919 128.406561 
L 227.686873 133.627856 
L 228.132827 132.75764 
L 228.578781 141.459799 
L 229.024735 144.940662 
L 229.470689 124.925698 
L 229.916643 97.078791 
L 230.362597 94.468144 
L 231.254505 114.483108 
L 231.70046 116.22354 
L 232.146414 96.208576 
L 232.592368 93.597928 
L 233.038322 92.727712 
L 233.484276 106.651165 
L 233.93023 116.22354 
L 234.376184 114.483108 
L 235.268092 139.719367 
L 235.714046 146.681094 
L 236.605954 121.444835 
L 237.051908 135.368288 
L 237.943816 117.963971 
L 238.38977 97.078791 
L 238.835724 81.414906 
L 239.281678 73.582964 
L 239.727632 104.910734 
L 240.173586 113.612892 
L 240.61954 117.963971 
L 241.065495 127.536345 
L 241.511449 115.353324 
L 241.957403 127.536345 
L 242.849311 173.657784 
L 243.295265 182.359942 
L 244.187173 224.130302 
L 244.633127 224.130302 
L 245.079081 238.053755 
L 245.525035 233.702676 
L 245.970989 235.443108 
L 246.416943 214.557928 
L 246.862897 212.817496 
L 247.308851 184.97059 
L 247.754805 184.100374 
L 248.200759 184.100374 
L 248.646713 184.97059 
L 249.092667 184.97059 
L 249.538621 186.711022 
L 249.984575 197.153612 
L 250.876484 158.864115 
L 251.322438 159.734331 
L 251.768392 152.772604 
L 252.214346 166.696058 
L 253.106254 142.330014 
L 253.552208 159.734331 
L 253.998162 161.474763 
L 254.444116 171.917353 
L 254.89007 168.436489 
L 255.336024 210.206849 
L 255.781978 208.466417 
L 256.227932 202.374906 
L 256.673886 209.336633 
L 257.11984 200.634475 
L 257.565794 208.466417 
L 258.011748 201.504691 
L 258.457702 197.153612 
L 258.903656 164.08541 
L 259.795564 177.138647 
L 260.241518 180.619511 
L 260.687473 196.283396 
L 261.133427 217.168576 
L 261.579381 199.764259 
L 262.025335 217.168576 
L 262.471289 212.817496 
L 262.917243 198.894043 
L 263.363197 167.566273 
L 263.809151 162.344978 
L 264.255105 153.64282 
L 264.701059 153.64282 
L 265.147013 181.489727 
L 265.592967 198.023827 
L 266.038921 199.764259 
L 266.484875 210.206849 
L 266.930829 209.336633 
L 267.376783 206.725986 
L 267.822737 191.062101 
L 268.268691 194.542964 
L 268.714645 213.687712 
L 269.606553 194.542964 
L 270.052507 194.542964 
L 270.498462 198.023827 
L 270.944416 199.764259 
L 271.39037 190.191885 
L 271.836324 188.451453 
L 272.282278 182.359942 
L 272.728232 144.070446 
L 273.174186 145.810878 
L 273.62014 170.176921 
L 274.066094 160.604547 
L 274.512048 137.978935 
L 274.958002 176.268432 
L 275.403956 175.398216 
L 275.84991 163.215194 
L 276.295864 160.604547 
L 276.741818 171.917353 
L 277.187772 162.344978 
L 277.633726 156.253468 
L 278.07968 196.283396 
L 278.971588 183.230158 
L 279.417542 148.421525 
L 279.863497 137.978935 
L 280.309451 155.383252 
L 281.201359 179.749295 
L 281.647313 181.489727 
L 282.093267 162.344978 
L 282.539221 150.161957 
L 282.985175 157.993899 
L 283.431129 147.551309 
L 283.877083 121.444835 
L 284.323037 142.330014 
L 284.768991 106.651165 
L 285.214945 97.949007 
L 285.660899 85.765986 
L 286.106853 100.559655 
L 286.552807 119.704403 
L 286.998761 119.704403 
L 287.444715 155.383252 
L 287.890669 165.825842 
L 288.336623 193.672748 
L 289.228531 223.260086 
L 289.674486 225.870734 
L 290.12044 255.458072 
L 290.566394 295.488 
L 291.458302 251.977209 
L 291.904256 267.641094 
L 292.35021 276.343252 
L 292.796164 278.083683 
L 293.242118 289.396489 
L 294.134026 257.198504 
L 294.57998 260.679367 
L 295.025934 246.755914 
L 295.471888 225.870734 
L 295.917842 236.313324 
L 296.363796 222.389871 
L 296.80975 221.519655 
L 297.255704 218.038791 
L 297.701658 216.29836 
L 298.147612 209.336633 
L 298.593566 243.27505 
L 299.03952 243.27505 
L 299.485475 240.664403 
L 299.931429 242.404835 
L 300.377383 246.755914 
L 300.823337 247.626129 
L 301.269291 256.328288 
L 301.715245 259.809151 
L 302.161199 282.434763 
L 303.053107 267.641094 
L 303.499061 262.419799 
L 303.945015 238.923971 
L 304.390969 228.481381 
L 304.836923 236.313324 
L 305.282877 236.313324 
L 305.728831 232.83246 
L 306.174785 233.702676 
L 307.066693 256.328288 
L 307.512647 261.549583 
L 307.958601 271.121957 
L 308.404555 271.992173 
L 308.850509 278.953899 
L 309.296464 281.564547 
L 309.742418 280.694331 
L 310.188372 274.60282 
L 310.634326 271.121957 
L 311.08028 277.213468 
L 311.526234 279.824115 
L 311.972188 288.526273 
L 312.418142 246.755914 
L 312.864096 262.419799 
L 313.31005 245.015482 
L 313.756004 260.679367 
L 314.647912 264.16023 
L 315.093866 234.572892 
L 315.53982 255.458072 
L 315.985774 245.015482 
L 316.431728 245.015482 
L 316.877682 230.221813 
L 317.323636 231.092029 
L 317.76959 211.947281 
L 318.215544 211.947281 
L 318.661499 228.481381 
L 319.107453 225.000518 
L 319.999361 175.398216 
L 320.445315 178.879079 
L 320.891269 169.306705 
L 321.337223 204.115338 
L 321.783177 211.077065 
L 322.229131 199.764259 
L 322.675085 199.764259 
L 323.121039 219.779223 
L 323.566993 204.115338 
L 324.012947 205.85577 
L 324.458901 209.336633 
L 325.350809 209.336633 
L 325.796763 208.466417 
L 326.242717 203.245122 
L 326.688671 194.542964 
L 327.134625 181.489727 
L 327.580579 189.321669 
L 328.026533 157.123683 
L 328.472488 157.123683 
L 328.918442 167.566273 
L 329.364396 169.306705 
L 329.81035 178.879079 
L 330.256304 150.161957 
L 330.702258 157.123683 
L 331.148212 188.451453 
L 331.594166 201.504691 
L 332.04012 208.466417 
L 332.486074 224.130302 
L 332.932028 216.29836 
L 333.377982 236.313324 
L 333.823936 246.755914 
L 334.26989 225.000518 
L 334.715844 237.18354 
L 335.607752 215.428144 
L 336.053706 177.138647 
L 336.49966 192.802532 
L 336.945614 233.702676 
L 337.391568 245.885698 
L 337.837522 243.27505 
L 338.283477 237.18354 
L 338.729431 236.313324 
L 339.175385 262.419799 
L 339.621339 264.16023 
L 340.067293 269.381525 
L 340.513247 245.015482 
L 340.959201 253.71764 
L 341.405155 257.198504 
L 341.851109 229.351597 
L 342.297063 234.572892 
L 342.743017 241.534619 
L 343.188971 232.83246 
L 343.634925 229.351597 
L 344.080879 232.83246 
L 344.526833 229.351597 
L 344.972787 234.572892 
L 345.418741 242.404835 
L 345.864695 242.404835 
L 346.310649 247.626129 
L 346.756603 245.885698 
L 347.202557 221.519655 
L 348.094466 225.000518 
L 349.432328 260.679367 
L 349.878282 265.900662 
L 350.324236 258.068719 
L 350.77019 233.702676 
L 351.216144 226.74095 
L 351.662098 218.038791 
L 352.108052 231.962245 
L 352.554006 252.847424 
L 353.445914 241.534619 
L 353.891868 246.755914 
L 354.337822 226.74095 
L 354.783776 237.18354 
L 355.22973 239.794187 
L 355.675684 176.268432 
L 356.121638 184.97059 
L 356.567592 200.634475 
L 357.013546 204.115338 
L 357.4595 182.359942 
L 357.905455 169.306705 
L 358.351409 134.498072 
L 358.797363 150.161957 
L 359.243317 137.978935 
L 359.689271 131.017209 
L 360.581179 132.75764 
L 361.027133 123.185266 
L 361.473087 122.31505 
L 361.919041 124.925698 
L 362.810949 166.696058 
L 363.256903 177.138647 
L 363.702857 198.894043 
L 364.148811 187.581237 
L 364.594765 163.215194 
L 365.040719 177.138647 
L 365.486673 194.542964 
L 365.932627 220.649439 
L 366.378581 231.092029 
L 366.824535 244.145266 
L 367.27049 225.870734 
L 367.716444 218.909007 
L 368.162398 231.092029 
L 368.608352 223.260086 
L 369.054306 232.83246 
L 369.50026 210.206849 
L 369.946214 208.466417 
L 370.392168 207.596201 
L 370.838122 205.85577 
L 371.284076 206.725986 
L 371.73003 221.519655 
L 372.175984 219.779223 
L 372.621938 211.077065 
L 373.067892 189.321669 
L 373.513846 187.581237 
L 373.9598 181.489727 
L 374.405754 143.20023 
L 374.851708 138.849151 
L 375.297662 151.032173 
L 375.743616 137.978935 
L 376.18957 117.093755 
L 376.635524 114.483108 
L 377.081479 67.491453 
L 377.527433 57.048863 
L 377.973387 53.568 
L 378.419341 62.270158 
L 378.865295 54.438216 
L 379.311249 54.438216 
L 379.757203 139.719367 
L 380.203157 124.925698 
L 380.649111 117.963971 
L 381.095065 149.291741 
L 381.541019 152.772604 
L 381.986973 163.215194 
L 382.432927 166.696058 
L 382.878881 166.696058 
L 383.324835 167.566273 
L 383.770789 174.528 
L 384.216743 172.787568 
L 384.662697 174.528 
L 385.108651 188.451453 
L 385.554605 186.711022 
L 386.446513 204.115338 
L 386.892468 184.100374 
L 387.338422 199.764259 
L 387.784376 209.336633 
L 388.23033 205.85577 
L 388.676284 218.038791 
L 389.122238 211.077065 
L 389.568192 218.909007 
L 390.014146 235.443108 
L 390.4601 201.504691 
L 390.906054 215.428144 
L 391.352008 218.909007 
L 391.797962 210.206849 
L 392.243916 220.649439 
L 392.68987 221.519655 
L 393.135824 224.130302 
L 393.581778 198.023827 
L 394.027732 201.504691 
L 394.473686 203.245122 
L 395.365594 189.321669 
L 395.811548 189.321669 
L 396.257502 178.879079 
L 396.703457 150.161957 
L 397.149411 153.64282 
L 397.595365 132.75764 
L 398.041319 143.20023 
L 398.487273 144.940662 
L 398.487273 144.940662 
" clip-path="url(#p58d7b57f5d)" style="fill: none; stroke: #1f77b4; stroke-width: 1.5; stroke-linecap: square"/>
   </g>
   <g id="patch_3">
    <path d="M 57.6 307.584 
L 57.6 41.472 
" style="fill: none; stroke: #000000; stroke-width: 0.8; stroke-linejoin: miter; stroke-linecap: square"/>
   </g>
   <g id="patch_4">
    <path d="M 414.72 307.584 
L 414.72 41.472 
" style="fill: none; stroke: #000000; stroke-width: 0.8; stroke-linejoin: miter; stroke-linecap: square"/>
   </g>
   <g id="patch_5">
    <path d="M 57.6 307.584 
L 414.72 307.584 
" style="fill: none; stroke: #000000; stroke-width: 0.8; stroke-linejoin: miter; stroke-linecap: square"/>
   </g>
   <g id="patch_6">
    <path d="M 57.6 41.472 
L 414.72 41.472 
" style="fill: none; stroke: #000000; stroke-width: 0.8; stroke-linejoin: miter; stroke-linecap: square"/>
   </g>
   <g id="text_17">
    <!-- Simulated Anealling Cost -->
    <g transform="translate(160.8 35.472)scale(0.12 -0.12)">
     <defs>
      <path id="DejaVuSans-53" d="M 3425 4513 
L 3425 3897 
Q 3066 4069 2747 4153 
Q 2428 4238 2131 4238 
Q 1616 4238 1336 4038 
Q 1056 3838 1056 3469 
Q 1056 3159 1242 3001 
Q 1428 2844 1947 2747 
L 2328 2669 
Q 3034 2534 3370 2195 
Q 3706 1856 3706 1288 
Q 3706 609 3251 259 
Q 2797 -91 1919 -91 
Q 1588 -91 1214 -16 
Q 841 59 441 206 
L 441 856 
Q 825 641 1194 531 
Q 1563 422 1919 422 
Q 2459 422 2753 634 
Q 3047 847 3047 1241 
Q 3047 1584 2836 1778 
Q 2625 1972 2144 2069 
L 1759 2144 
Q 1053 2284 737 2584 
Q 422 2884 422 3419 
Q 422 4038 858 4394 
Q 1294 4750 2059 4750 
Q 2388 4750 2728 4690 
Q 3069 4631 3425 4513 
z
" transform="scale(0.015625)"/>
      <path id="DejaVuSans-69" d="M 603 3500 
L 1178 3500 
L 1178 0 
L 603 0 
L 603 3500 
z
M 603 4863 
L 1178 4863 
L 1178 4134 
L 603 4134 
L 603 4863 
z
" transform="scale(0.015625)"/>
      <path id="DejaVuSans-65" d="M 3597 1894 
L 3597 1613 
L 953 1613 
Q 991 1019 1311 708 
Q 1631 397 2203 397 
Q 2534 397 2845 478 
Q 3156 559 3463 722 
L 3463 178 
Q 3153 47 2828 -22 
Q 2503 -91 2169 -91 
Q 1331 -91 842 396 
Q 353 884 353 1716 
Q 353 2575 817 3079 
Q 1281 3584 2069 3584 
Q 2775 3584 3186 3129 
Q 3597 2675 3597 1894 
z
M 3022 2063 
Q 3016 2534 2758 2815 
Q 2500 3097 2075 3097 
Q 1594 3097 1305 2825 
Q 1016 2553 972 2059 
L 3022 2063 
z
" transform="scale(0.015625)"/>
      <path id="DejaVuSans-64" d="M 2906 2969 
L 2906 4863 
L 3481 4863 
L 3481 0 
L 2906 0 
L 2906 525 
Q 2725 213 2448 61 
Q 2172 -91 1784 -91 
Q 1150 -91 751 415 
Q 353 922 353 1747 
Q 353 2572 751 3078 
Q 1150 3584 1784 3584 
Q 2172 3584 2448 3432 
Q 2725 3281 2906 2969 
z
M 947 1747 
Q 947 1113 1208 752 
Q 1469 391 1925 391 
Q 2381 391 2643 752 
Q 2906 1113 2906 1747 
Q 2906 2381 2643 2742 
Q 2381 3103 1925 3103 
Q 1469 3103 1208 2742 
Q 947 2381 947 1747 
z
" transform="scale(0.015625)"/>
      <path id="DejaVuSans-41" d="M 2188 4044 
L 1331 1722 
L 3047 1722 
L 2188 4044 
z
M 1831 4666 
L 2547 4666 
L 4325 0 
L 3669 0 
L 3244 1197 
L 1141 1197 
L 716 0 
L 50 0 
L 1831 4666 
z
" transform="scale(0.015625)"/>
      <path id="DejaVuSans-67" d="M 2906 1791 
Q 2906 2416 2648 2759 
Q 2391 3103 1925 3103 
Q 1463 3103 1205 2759 
Q 947 2416 947 1791 
Q 947 1169 1205 825 
Q 1463 481 1925 481 
Q 2391 481 2648 825 
Q 2906 1169 2906 1791 
z
M 3481 434 
Q 3481 -459 3084 -895 
Q 2688 -1331 1869 -1331 
Q 1566 -1331 1297 -1286 
Q 1028 -1241 775 -1147 
L 775 -588 
Q 1028 -725 1275 -790 
Q 1522 -856 1778 -856 
Q 2344 -856 2625 -561 
Q 2906 -266 2906 331 
L 2906 616 
Q 2728 306 2450 153 
Q 2172 0 1784 0 
Q 1141 0 747 490 
Q 353 981 353 1791 
Q 353 2603 747 3093 
Q 1141 3584 1784 3584 
Q 2172 3584 2450 3431 
Q 2728 3278 2906 2969 
L 2906 3500 
L 3481 3500 
L 3481 434 
z
" transform="scale(0.015625)"/>
      <path id="DejaVuSans-43" d="M 4122 4306 
L 4122 3641 
Q 3803 3938 3442 4084 
Q 3081 4231 2675 4231 
Q 1875 4231 1450 3742 
Q 1025 3253 1025 2328 
Q 1025 1406 1450 917 
Q 1875 428 2675 428 
Q 3081 428 3442 575 
Q 3803 722 4122 1019 
L 4122 359 
Q 3791 134 3420 21 
Q 3050 -91 2638 -91 
Q 1578 -91 968 557 
Q 359 1206 359 2328 
Q 359 3453 968 4101 
Q 1578 4750 2638 4750 
Q 3056 4750 3426 4639 
Q 3797 4528 4122 4306 
z
" transform="scale(0.015625)"/>
     </defs>
     <use xlink:href="#DejaVuSans-53"/>
     <use xlink:href="#DejaVuSans-69" x="63.476562"/>
     <use xlink:href="#DejaVuSans-6d" x="91.259766"/>
     <use xlink:href="#DejaVuSans-75" x="188.671875"/>
     <use xlink:href="#DejaVuSans-6c" x="252.050781"/>
     <use xlink:href="#DejaVuSans-61" x="279.833984"/>
     <use xlink:href="#DejaVuSans-74" x="341.113281"/>
     <use xlink:href="#DejaVuSans-65" x="380.322266"/>
     <use xlink:href="#DejaVuSans-64" x="441.845703"/>
     <use xlink:href="#DejaVuSans-20" x="505.322266"/>
     <use xlink:href="#DejaVuSans-41" x="537.109375"/>
     <use xlink:href="#DejaVuSans-6e" x="605.517578"/>
     <use xlink:href="#DejaVuSans-65" x="668.896484"/>
     <use xlink:href="#DejaVuSans-61" x="730.419922"/>
     <use xlink:href="#DejaVuSans-6c" x="791.699219"/>
     <use xlink:href="#DejaVuSans-6c" x="819.482422"/>
     <use xlink:href="#DejaVuSans-69" x="847.265625"/>
     <use xlink:href="#DejaVuSans-6e" x="875.048828"/>
     <use xlink:href="#DejaVuSans-67" x="938.427734"/>
     <use xlink:href="#DejaVuSans-20" x="1001.904297"/>
     <use xlink:href="#DejaVuSans-43" x="1033.691406"/>
     <use xlink:href="#DejaVuSans-6f" x="1103.515625"/>
     <use xlink:href="#DejaVuSans-73" x="1164.697266"/>
     <use xlink:href="#DejaVuSans-74" x="1216.796875"/>
    </g>
   </g>
  </g>
 </g>
 <defs>
  <clipPath id="p58d7b57f5d">
   <rect x="57.6" y="41.472" width="357.12" height="266.112"/>
  </clipPath>
 </defs>
</svg>
