<?xml version="1.0" encoding="utf-8" standalone="no"?>
<!DOCTYPE svg PUBLIC "-//W3C//DTD SVG 1.1//EN"
  "http://www.w3.org/Graphics/SVG/1.1/DTD/svg11.dtd">
<svg xmlns:xlink="http://www.w3.org/1999/xlink" width="460.8pt" height="345.6pt" viewBox="0 0 460.8 345.6" xmlns="http://www.w3.org/2000/svg" version="1.1">
 <metadata>
  <rdf:RDF xmlns:dc="http://purl.org/dc/elements/1.1/" xmlns:cc="http://creativecommons.org/ns#" xmlns:rdf="http://www.w3.org/1999/02/22-rdf-syntax-ns#">
   <cc:Work>
    <dc:type rdf:resource="http://purl.org/dc/dcmitype/StillImage"/>
    <dc:date>2022-06-01T08:05:50.567817</dc:date>
    <dc:format>image/svg+xml</dc:format>
    <dc:creator>
     <cc:Agent>
      <dc:title>Matplotlib v3.5.1, https://matplotlib.org/</dc:title>
     </cc:Agent>
    </dc:creator>
   </cc:Work>
  </rdf:RDF>
 </metadata>
 <defs>
  <style type="text/css">*{stroke-linejoin: round; stroke-linecap: butt}</style>
 </defs>
 <g id="figure_1">
  <g id="patch_1">
   <path d="M 0 345.6 
L 460.8 345.6 
L 460.8 0 
L 0 0 
z
" style="fill: #ffffff"/>
  </g>
  <g id="axes_1">
   <g id="patch_2">
    <path d="M 57.6 307.584 
L 414.72 307.584 
L 414.72 41.472 
L 57.6 41.472 
z
" style="fill: #ffffff"/>
   </g>
   <g id="matplotlib.axis_1">
    <g id="xtick_1">
     <g id="line2d_1">
      <defs>
       <path id="m6561942292" d="M 0 0 
L 0 3.5 
" style="stroke: #000000; stroke-width: 0.8"/>
      </defs>
      <g>
       <use xlink:href="#m6561942292" x="73.832727" y="307.584" style="stroke: #000000; stroke-width: 0.8"/>
      </g>
     </g>
     <g id="text_1">
      <!-- 0 -->
      <g transform="translate(70.651477 322.182437)scale(0.1 -0.1)">
       <defs>
        <path id="DejaVuSans-30" d="M 2034 4250 
Q 1547 4250 1301 3770 
Q 1056 3291 1056 2328 
Q 1056 1369 1301 889 
Q 1547 409 2034 409 
Q 2525 409 2770 889 
Q 3016 1369 3016 2328 
Q 3016 3291 2770 3770 
Q 2525 4250 2034 4250 
z
M 2034 4750 
Q 2819 4750 3233 4129 
Q 3647 3509 3647 2328 
Q 3647 1150 3233 529 
Q 2819 -91 2034 -91 
Q 1250 -91 836 529 
Q 422 1150 422 2328 
Q 422 3509 836 4129 
Q 1250 4750 2034 4750 
z
" transform="scale(0.015625)"/>
       </defs>
       <use xlink:href="#DejaVuSans-30"/>
      </g>
     </g>
    </g>
    <g id="xtick_2">
     <g id="line2d_2">
      <g>
       <use xlink:href="#m6561942292" x="146.75603" y="307.584" style="stroke: #000000; stroke-width: 0.8"/>
      </g>
     </g>
     <g id="text_2">
      <!-- 500 -->
      <g transform="translate(137.21228 322.182437)scale(0.1 -0.1)">
       <defs>
        <path id="DejaVuSans-35" d="M 691 4666 
L 3169 4666 
L 3169 4134 
L 1269 4134 
L 1269 2991 
Q 1406 3038 1543 3061 
Q 1681 3084 1819 3084 
Q 2600 3084 3056 2656 
Q 3513 2228 3513 1497 
Q 3513 744 3044 326 
Q 2575 -91 1722 -91 
Q 1428 -91 1123 -41 
Q 819 9 494 109 
L 494 744 
Q 775 591 1075 516 
Q 1375 441 1709 441 
Q 2250 441 2565 725 
Q 2881 1009 2881 1497 
Q 2881 1984 2565 2268 
Q 2250 2553 1709 2553 
Q 1456 2553 1204 2497 
Q 953 2441 691 2322 
L 691 4666 
z
" transform="scale(0.015625)"/>
       </defs>
       <use xlink:href="#DejaVuSans-35"/>
       <use xlink:href="#DejaVuSans-30" x="63.623047"/>
       <use xlink:href="#DejaVuSans-30" x="127.246094"/>
      </g>
     </g>
    </g>
    <g id="xtick_3">
     <g id="line2d_3">
      <g>
       <use xlink:href="#m6561942292" x="219.679333" y="307.584" style="stroke: #000000; stroke-width: 0.8"/>
      </g>
     </g>
     <g id="text_3">
      <!-- 1000 -->
      <g transform="translate(206.954333 322.182437)scale(0.1 -0.1)">
       <defs>
        <path id="DejaVuSans-31" d="M 794 531 
L 1825 531 
L 1825 4091 
L 703 3866 
L 703 4441 
L 1819 4666 
L 2450 4666 
L 2450 531 
L 3481 531 
L 3481 0 
L 794 0 
L 794 531 
z
" transform="scale(0.015625)"/>
       </defs>
       <use xlink:href="#DejaVuSans-31"/>
       <use xlink:href="#DejaVuSans-30" x="63.623047"/>
       <use xlink:href="#DejaVuSans-30" x="127.246094"/>
       <use xlink:href="#DejaVuSans-30" x="190.869141"/>
      </g>
     </g>
    </g>
    <g id="xtick_4">
     <g id="line2d_4">
      <g>
       <use xlink:href="#m6561942292" x="292.602637" y="307.584" style="stroke: #000000; stroke-width: 0.8"/>
      </g>
     </g>
     <g id="text_4">
      <!-- 1500 -->
      <g transform="translate(279.877637 322.182437)scale(0.1 -0.1)">
       <use xlink:href="#DejaVuSans-31"/>
       <use xlink:href="#DejaVuSans-35" x="63.623047"/>
       <use xlink:href="#DejaVuSans-30" x="127.246094"/>
       <use xlink:href="#DejaVuSans-30" x="190.869141"/>
      </g>
     </g>
    </g>
    <g id="xtick_5">
     <g id="line2d_5">
      <g>
       <use xlink:href="#m6561942292" x="365.52594" y="307.584" style="stroke: #000000; stroke-width: 0.8"/>
      </g>
     </g>
     <g id="text_5">
      <!-- 2000 -->
      <g transform="translate(352.80094 322.182437)scale(0.1 -0.1)">
       <defs>
        <path id="DejaVuSans-32" d="M 1228 531 
L 3431 531 
L 3431 0 
L 469 0 
L 469 531 
Q 828 903 1448 1529 
Q 2069 2156 2228 2338 
Q 2531 2678 2651 2914 
Q 2772 3150 2772 3378 
Q 2772 3750 2511 3984 
Q 2250 4219 1831 4219 
Q 1534 4219 1204 4116 
Q 875 4013 500 3803 
L 500 4441 
Q 881 4594 1212 4672 
Q 1544 4750 1819 4750 
Q 2544 4750 2975 4387 
Q 3406 4025 3406 3419 
Q 3406 3131 3298 2873 
Q 3191 2616 2906 2266 
Q 2828 2175 2409 1742 
Q 1991 1309 1228 531 
z
" transform="scale(0.015625)"/>
       </defs>
       <use xlink:href="#DejaVuSans-32"/>
       <use xlink:href="#DejaVuSans-30" x="63.623047"/>
       <use xlink:href="#DejaVuSans-30" x="127.246094"/>
       <use xlink:href="#DejaVuSans-30" x="190.869141"/>
      </g>
     </g>
    </g>
    <g id="text_6">
     <!-- num swaps -->
     <g transform="translate(207.826406 335.860562)scale(0.1 -0.1)">
      <defs>
       <path id="DejaVuSans-6e" d="M 3513 2113 
L 3513 0 
L 2938 0 
L 2938 2094 
Q 2938 2591 2744 2837 
Q 2550 3084 2163 3084 
Q 1697 3084 1428 2787 
Q 1159 2491 1159 1978 
L 1159 0 
L 581 0 
L 581 3500 
L 1159 3500 
L 1159 2956 
Q 1366 3272 1645 3428 
Q 1925 3584 2291 3584 
Q 2894 3584 3203 3211 
Q 3513 2838 3513 2113 
z
" transform="scale(0.015625)"/>
       <path id="DejaVuSans-75" d="M 544 1381 
L 544 3500 
L 1119 3500 
L 1119 1403 
Q 1119 906 1312 657 
Q 1506 409 1894 409 
Q 2359 409 2629 706 
Q 2900 1003 2900 1516 
L 2900 3500 
L 3475 3500 
L 3475 0 
L 2900 0 
L 2900 538 
Q 2691 219 2414 64 
Q 2138 -91 1772 -91 
Q 1169 -91 856 284 
Q 544 659 544 1381 
z
M 1991 3584 
L 1991 3584 
z
" transform="scale(0.015625)"/>
       <path id="DejaVuSans-6d" d="M 3328 2828 
Q 3544 3216 3844 3400 
Q 4144 3584 4550 3584 
Q 5097 3584 5394 3201 
Q 5691 2819 5691 2113 
L 5691 0 
L 5113 0 
L 5113 2094 
Q 5113 2597 4934 2840 
Q 4756 3084 4391 3084 
Q 3944 3084 3684 2787 
Q 3425 2491 3425 1978 
L 3425 0 
L 2847 0 
L 2847 2094 
Q 2847 2600 2669 2842 
Q 2491 3084 2119 3084 
Q 1678 3084 1418 2786 
Q 1159 2488 1159 1978 
L 1159 0 
L 581 0 
L 581 3500 
L 1159 3500 
L 1159 2956 
Q 1356 3278 1631 3431 
Q 1906 3584 2284 3584 
Q 2666 3584 2933 3390 
Q 3200 3197 3328 2828 
z
" transform="scale(0.015625)"/>
       <path id="DejaVuSans-20" transform="scale(0.015625)"/>
       <path id="DejaVuSans-73" d="M 2834 3397 
L 2834 2853 
Q 2591 2978 2328 3040 
Q 2066 3103 1784 3103 
Q 1356 3103 1142 2972 
Q 928 2841 928 2578 
Q 928 2378 1081 2264 
Q 1234 2150 1697 2047 
L 1894 2003 
Q 2506 1872 2764 1633 
Q 3022 1394 3022 966 
Q 3022 478 2636 193 
Q 2250 -91 1575 -91 
Q 1294 -91 989 -36 
Q 684 19 347 128 
L 347 722 
Q 666 556 975 473 
Q 1284 391 1588 391 
Q 1994 391 2212 530 
Q 2431 669 2431 922 
Q 2431 1156 2273 1281 
Q 2116 1406 1581 1522 
L 1381 1569 
Q 847 1681 609 1914 
Q 372 2147 372 2553 
Q 372 3047 722 3315 
Q 1072 3584 1716 3584 
Q 2034 3584 2315 3537 
Q 2597 3491 2834 3397 
z
" transform="scale(0.015625)"/>
       <path id="DejaVuSans-77" d="M 269 3500 
L 844 3500 
L 1563 769 
L 2278 3500 
L 2956 3500 
L 3675 769 
L 4391 3500 
L 4966 3500 
L 4050 0 
L 3372 0 
L 2619 2869 
L 1863 0 
L 1184 0 
L 269 3500 
z
" transform="scale(0.015625)"/>
       <path id="DejaVuSans-61" d="M 2194 1759 
Q 1497 1759 1228 1600 
Q 959 1441 959 1056 
Q 959 750 1161 570 
Q 1363 391 1709 391 
Q 2188 391 2477 730 
Q 2766 1069 2766 1631 
L 2766 1759 
L 2194 1759 
z
M 3341 1997 
L 3341 0 
L 2766 0 
L 2766 531 
Q 2569 213 2275 61 
Q 1981 -91 1556 -91 
Q 1019 -91 701 211 
Q 384 513 384 1019 
Q 384 1609 779 1909 
Q 1175 2209 1959 2209 
L 2766 2209 
L 2766 2266 
Q 2766 2663 2505 2880 
Q 2244 3097 1772 3097 
Q 1472 3097 1187 3025 
Q 903 2953 641 2809 
L 641 3341 
Q 956 3463 1253 3523 
Q 1550 3584 1831 3584 
Q 2591 3584 2966 3190 
Q 3341 2797 3341 1997 
z
" transform="scale(0.015625)"/>
       <path id="DejaVuSans-70" d="M 1159 525 
L 1159 -1331 
L 581 -1331 
L 581 3500 
L 1159 3500 
L 1159 2969 
Q 1341 3281 1617 3432 
Q 1894 3584 2278 3584 
Q 2916 3584 3314 3078 
Q 3713 2572 3713 1747 
Q 3713 922 3314 415 
Q 2916 -91 2278 -91 
Q 1894 -91 1617 61 
Q 1341 213 1159 525 
z
M 3116 1747 
Q 3116 2381 2855 2742 
Q 2594 3103 2138 3103 
Q 1681 3103 1420 2742 
Q 1159 2381 1159 1747 
Q 1159 1113 1420 752 
Q 1681 391 2138 391 
Q 2594 391 2855 752 
Q 3116 1113 3116 1747 
z
" transform="scale(0.015625)"/>
      </defs>
      <use xlink:href="#DejaVuSans-6e"/>
      <use xlink:href="#DejaVuSans-75" x="63.378906"/>
      <use xlink:href="#DejaVuSans-6d" x="126.757812"/>
      <use xlink:href="#DejaVuSans-20" x="224.169922"/>
      <use xlink:href="#DejaVuSans-73" x="255.957031"/>
      <use xlink:href="#DejaVuSans-77" x="308.056641"/>
      <use xlink:href="#DejaVuSans-61" x="389.84375"/>
      <use xlink:href="#DejaVuSans-70" x="451.123047"/>
      <use xlink:href="#DejaVuSans-73" x="514.599609"/>
     </g>
    </g>
   </g>
   <g id="matplotlib.axis_2">
    <g id="ytick_1">
     <g id="line2d_6">
      <defs>
       <path id="mf699f49ae5" d="M 0 0 
L -3.5 0 
" style="stroke: #000000; stroke-width: 0.8"/>
      </defs>
      <g>
       <use xlink:href="#mf699f49ae5" x="57.6" y="300.052528" style="stroke: #000000; stroke-width: 0.8"/>
      </g>
     </g>
     <g id="text_7">
      <!-- 500 -->
      <g transform="translate(31.5125 303.851747)scale(0.1 -0.1)">
       <use xlink:href="#DejaVuSans-35"/>
       <use xlink:href="#DejaVuSans-30" x="63.623047"/>
       <use xlink:href="#DejaVuSans-30" x="127.246094"/>
      </g>
     </g>
    </g>
    <g id="ytick_2">
     <g id="line2d_7">
      <g>
       <use xlink:href="#mf699f49ae5" x="57.6" y="254.407245" style="stroke: #000000; stroke-width: 0.8"/>
      </g>
     </g>
     <g id="text_8">
      <!-- 520 -->
      <g transform="translate(31.5125 258.206464)scale(0.1 -0.1)">
       <use xlink:href="#DejaVuSans-35"/>
       <use xlink:href="#DejaVuSans-32" x="63.623047"/>
       <use xlink:href="#DejaVuSans-30" x="127.246094"/>
      </g>
     </g>
    </g>
    <g id="ytick_3">
     <g id="line2d_8">
      <g>
       <use xlink:href="#mf699f49ae5" x="57.6" y="208.761962" style="stroke: #000000; stroke-width: 0.8"/>
      </g>
     </g>
     <g id="text_9">
      <!-- 540 -->
      <g transform="translate(31.5125 212.561181)scale(0.1 -0.1)">
       <defs>
        <path id="DejaVuSans-34" d="M 2419 4116 
L 825 1625 
L 2419 1625 
L 2419 4116 
z
M 2253 4666 
L 3047 4666 
L 3047 1625 
L 3713 1625 
L 3713 1100 
L 3047 1100 
L 3047 0 
L 2419 0 
L 2419 1100 
L 313 1100 
L 313 1709 
L 2253 4666 
z
" transform="scale(0.015625)"/>
       </defs>
       <use xlink:href="#DejaVuSans-35"/>
       <use xlink:href="#DejaVuSans-34" x="63.623047"/>
       <use xlink:href="#DejaVuSans-30" x="127.246094"/>
      </g>
     </g>
    </g>
    <g id="ytick_4">
     <g id="line2d_9">
      <g>
       <use xlink:href="#mf699f49ae5" x="57.6" y="163.116679" style="stroke: #000000; stroke-width: 0.8"/>
      </g>
     </g>
     <g id="text_10">
      <!-- 560 -->
      <g transform="translate(31.5125 166.915898)scale(0.1 -0.1)">
       <defs>
        <path id="DejaVuSans-36" d="M 2113 2584 
Q 1688 2584 1439 2293 
Q 1191 2003 1191 1497 
Q 1191 994 1439 701 
Q 1688 409 2113 409 
Q 2538 409 2786 701 
Q 3034 994 3034 1497 
Q 3034 2003 2786 2293 
Q 2538 2584 2113 2584 
z
M 3366 4563 
L 3366 3988 
Q 3128 4100 2886 4159 
Q 2644 4219 2406 4219 
Q 1781 4219 1451 3797 
Q 1122 3375 1075 2522 
Q 1259 2794 1537 2939 
Q 1816 3084 2150 3084 
Q 2853 3084 3261 2657 
Q 3669 2231 3669 1497 
Q 3669 778 3244 343 
Q 2819 -91 2113 -91 
Q 1303 -91 875 529 
Q 447 1150 447 2328 
Q 447 3434 972 4092 
Q 1497 4750 2381 4750 
Q 2619 4750 2861 4703 
Q 3103 4656 3366 4563 
z
" transform="scale(0.015625)"/>
       </defs>
       <use xlink:href="#DejaVuSans-35"/>
       <use xlink:href="#DejaVuSans-36" x="63.623047"/>
       <use xlink:href="#DejaVuSans-30" x="127.246094"/>
      </g>
     </g>
    </g>
    <g id="ytick_5">
     <g id="line2d_10">
      <g>
       <use xlink:href="#mf699f49ae5" x="57.6" y="117.471396" style="stroke: #000000; stroke-width: 0.8"/>
      </g>
     </g>
     <g id="text_11">
      <!-- 580 -->
      <g transform="translate(31.5125 121.270615)scale(0.1 -0.1)">
       <defs>
        <path id="DejaVuSans-38" d="M 2034 2216 
Q 1584 2216 1326 1975 
Q 1069 1734 1069 1313 
Q 1069 891 1326 650 
Q 1584 409 2034 409 
Q 2484 409 2743 651 
Q 3003 894 3003 1313 
Q 3003 1734 2745 1975 
Q 2488 2216 2034 2216 
z
M 1403 2484 
Q 997 2584 770 2862 
Q 544 3141 544 3541 
Q 544 4100 942 4425 
Q 1341 4750 2034 4750 
Q 2731 4750 3128 4425 
Q 3525 4100 3525 3541 
Q 3525 3141 3298 2862 
Q 3072 2584 2669 2484 
Q 3125 2378 3379 2068 
Q 3634 1759 3634 1313 
Q 3634 634 3220 271 
Q 2806 -91 2034 -91 
Q 1263 -91 848 271 
Q 434 634 434 1313 
Q 434 1759 690 2068 
Q 947 2378 1403 2484 
z
M 1172 3481 
Q 1172 3119 1398 2916 
Q 1625 2713 2034 2713 
Q 2441 2713 2670 2916 
Q 2900 3119 2900 3481 
Q 2900 3844 2670 4047 
Q 2441 4250 2034 4250 
Q 1625 4250 1398 4047 
Q 1172 3844 1172 3481 
z
" transform="scale(0.015625)"/>
       </defs>
       <use xlink:href="#DejaVuSans-35"/>
       <use xlink:href="#DejaVuSans-38" x="63.623047"/>
       <use xlink:href="#DejaVuSans-30" x="127.246094"/>
      </g>
     </g>
    </g>
    <g id="ytick_6">
     <g id="line2d_11">
      <g>
       <use xlink:href="#mf699f49ae5" x="57.6" y="71.826113" style="stroke: #000000; stroke-width: 0.8"/>
      </g>
     </g>
     <g id="text_12">
      <!-- 600 -->
      <g transform="translate(31.5125 75.625332)scale(0.1 -0.1)">
       <use xlink:href="#DejaVuSans-36"/>
       <use xlink:href="#DejaVuSans-30" x="63.623047"/>
       <use xlink:href="#DejaVuSans-30" x="127.246094"/>
      </g>
     </g>
    </g>
    <g id="text_13">
     <!-- total cost -->
     <g transform="translate(25.432812 197.923313)rotate(-90)scale(0.1 -0.1)">
      <defs>
       <path id="DejaVuSans-74" d="M 1172 4494 
L 1172 3500 
L 2356 3500 
L 2356 3053 
L 1172 3053 
L 1172 1153 
Q 1172 725 1289 603 
Q 1406 481 1766 481 
L 2356 481 
L 2356 0 
L 1766 0 
Q 1100 0 847 248 
Q 594 497 594 1153 
L 594 3053 
L 172 3053 
L 172 3500 
L 594 3500 
L 594 4494 
L 1172 4494 
z
" transform="scale(0.015625)"/>
       <path id="DejaVuSans-6f" d="M 1959 3097 
Q 1497 3097 1228 2736 
Q 959 2375 959 1747 
Q 959 1119 1226 758 
Q 1494 397 1959 397 
Q 2419 397 2687 759 
Q 2956 1122 2956 1747 
Q 2956 2369 2687 2733 
Q 2419 3097 1959 3097 
z
M 1959 3584 
Q 2709 3584 3137 3096 
Q 3566 2609 3566 1747 
Q 3566 888 3137 398 
Q 2709 -91 1959 -91 
Q 1206 -91 779 398 
Q 353 888 353 1747 
Q 353 2609 779 3096 
Q 1206 3584 1959 3584 
z
" transform="scale(0.015625)"/>
       <path id="DejaVuSans-6c" d="M 603 4863 
L 1178 4863 
L 1178 0 
L 603 0 
L 603 4863 
z
" transform="scale(0.015625)"/>
       <path id="DejaVuSans-63" d="M 3122 3366 
L 3122 2828 
Q 2878 2963 2633 3030 
Q 2388 3097 2138 3097 
Q 1578 3097 1268 2742 
Q 959 2388 959 1747 
Q 959 1106 1268 751 
Q 1578 397 2138 397 
Q 2388 397 2633 464 
Q 2878 531 3122 666 
L 3122 134 
Q 2881 22 2623 -34 
Q 2366 -91 2075 -91 
Q 1284 -91 818 406 
Q 353 903 353 1747 
Q 353 2603 823 3093 
Q 1294 3584 2113 3584 
Q 2378 3584 2631 3529 
Q 2884 3475 3122 3366 
z
" transform="scale(0.015625)"/>
      </defs>
      <use xlink:href="#DejaVuSans-74"/>
      <use xlink:href="#DejaVuSans-6f" x="39.208984"/>
      <use xlink:href="#DejaVuSans-74" x="100.390625"/>
      <use xlink:href="#DejaVuSans-61" x="139.599609"/>
      <use xlink:href="#DejaVuSans-6c" x="200.878906"/>
      <use xlink:href="#DejaVuSans-20" x="228.662109"/>
      <use xlink:href="#DejaVuSans-63" x="260.449219"/>
      <use xlink:href="#DejaVuSans-6f" x="315.429688"/>
      <use xlink:href="#DejaVuSans-73" x="376.611328"/>
      <use xlink:href="#DejaVuSans-74" x="428.710938"/>
     </g>
    </g>
   </g>
   <g id="line2d_12">
    <path d="M 73.832727 62.697057 
L 74.12442 69.543849 
L 74.416114 58.132528 
L 74.707807 71.826113 
L 75.291193 55.850264 
L 75.582887 62.697057 
L 75.87458 62.697057 
L 76.166273 55.850264 
L 76.457966 60.414792 
L 76.749659 53.568 
L 77.041353 58.132528 
L 77.333046 60.414792 
L 77.916432 85.519698 
L 78.208125 74.108377 
L 78.499819 110.624604 
L 78.791512 106.060075 
L 79.083205 106.060075 
L 79.374898 110.624604 
L 79.666592 122.035925 
L 79.958285 140.294038 
L 80.249978 142.576302 
L 80.541671 147.14083 
L 80.833364 160.834415 
L 81.125058 142.576302 
L 81.416751 133.447245 
L 81.708444 158.552151 
L 82.000137 142.576302 
L 82.583524 201.91517 
L 82.875217 201.91517 
L 83.16691 192.786113 
L 83.458603 217.891019 
L 83.750296 213.326491 
L 84.04199 153.987623 
L 84.333683 163.116679 
L 84.625376 176.810264 
L 84.917069 183.657057 
L 85.208763 183.657057 
L 85.500456 185.939321 
L 85.792149 197.350642 
L 86.083842 174.528 
L 86.375535 174.528 
L 86.667229 160.834415 
L 86.958922 172.245736 
L 87.250615 149.423094 
L 87.542308 142.576302 
L 87.834001 151.705358 
L 88.125695 151.705358 
L 88.417388 147.14083 
L 88.709081 138.011774 
L 89.292468 142.576302 
L 89.875854 158.552151 
L 90.167547 158.552151 
L 90.45924 160.834415 
L 90.750934 144.858566 
L 91.042627 149.423094 
L 91.33432 133.447245 
L 91.626013 128.882717 
L 91.917706 215.608755 
L 92.2094 217.891019 
L 92.501093 204.197434 
L 93.084479 190.503849 
L 93.376173 192.786113 
L 94.251252 224.737811 
L 94.542945 211.044226 
L 94.834639 220.173283 
L 95.126332 222.455547 
L 95.418025 211.044226 
L 95.709718 213.326491 
L 96.001411 213.326491 
L 96.293105 188.221585 
L 96.584798 185.939321 
L 96.876491 163.116679 
L 97.168184 222.455547 
L 97.459877 229.30234 
L 97.751571 227.020075 
L 98.334957 227.020075 
L 98.62665 224.737811 
L 98.918344 236.149132 
L 99.210037 222.455547 
L 99.50173 229.30234 
L 99.793423 247.560453 
L 100.085116 249.842717 
L 100.37681 245.278189 
L 100.960196 224.737811 
L 101.251889 229.30234 
L 101.835276 247.560453 
L 102.126969 247.560453 
L 102.418662 231.584604 
L 102.710355 197.350642 
L 103.002049 206.479698 
L 103.293742 211.044226 
L 103.585435 213.326491 
L 103.877128 222.455547 
L 104.460515 176.810264 
L 104.752208 163.116679 
L 105.043901 160.834415 
L 105.335594 181.374792 
L 105.627287 185.939321 
L 105.918981 181.374792 
L 106.502367 158.552151 
L 106.79406 156.269887 
L 107.085753 151.705358 
L 107.377447 153.987623 
L 107.66914 153.987623 
L 107.960833 147.14083 
L 108.252526 158.552151 
L 108.54422 144.858566 
L 108.835913 149.423094 
L 109.127606 140.294038 
L 109.419299 135.729509 
L 110.002686 151.705358 
L 110.294379 163.116679 
L 110.877765 172.245736 
L 112.044538 147.14083 
L 112.336231 149.423094 
L 112.627925 144.858566 
L 112.919618 163.116679 
L 113.211311 165.398943 
L 113.503004 169.963472 
L 113.794697 176.810264 
L 114.086391 174.528 
L 114.378084 190.503849 
L 114.669777 181.374792 
L 114.96147 183.657057 
L 115.253163 190.503849 
L 115.544857 190.503849 
L 115.83655 199.632906 
L 116.128243 201.91517 
L 116.419936 199.632906 
L 116.71163 213.326491 
L 117.003323 190.503849 
L 117.295016 188.221585 
L 117.586709 176.810264 
L 117.878402 176.810264 
L 118.170096 195.068377 
L 118.461789 179.092528 
L 118.753482 188.221585 
L 119.045175 204.197434 
L 119.336868 197.350642 
L 119.628562 172.245736 
L 120.211948 181.374792 
L 120.503641 201.91517 
L 120.795334 199.632906 
L 121.087028 174.528 
L 121.378721 179.092528 
L 121.670414 188.221585 
L 122.253801 165.398943 
L 122.545494 165.398943 
L 122.837187 172.245736 
L 123.12888 195.068377 
L 123.420573 204.197434 
L 123.712267 188.221585 
L 124.00396 211.044226 
L 124.295653 204.197434 
L 124.587346 208.761962 
L 124.879039 201.91517 
L 125.462426 206.479698 
L 125.754119 183.657057 
L 126.337506 201.91517 
L 126.629199 204.197434 
L 126.920892 217.891019 
L 127.212585 169.963472 
L 127.504278 176.810264 
L 127.795972 165.398943 
L 128.087665 163.116679 
L 128.379358 163.116679 
L 128.671051 172.245736 
L 128.962744 195.068377 
L 129.254438 199.632906 
L 129.546131 211.044226 
L 129.837824 204.197434 
L 130.129517 206.479698 
L 130.42121 195.068377 
L 130.712904 165.398943 
L 131.004597 165.398943 
L 131.879677 144.858566 
L 132.17137 142.576302 
L 132.463063 133.447245 
L 132.754756 128.882717 
L 133.046449 135.729509 
L 133.338143 138.011774 
L 133.629836 190.503849 
L 133.921529 183.657057 
L 134.213222 181.374792 
L 134.504915 185.939321 
L 134.796609 185.939321 
L 135.088302 188.221585 
L 135.379995 185.939321 
L 135.671688 169.963472 
L 135.963382 163.116679 
L 136.255075 167.681208 
L 136.546768 169.963472 
L 136.838461 153.987623 
L 137.130154 156.269887 
L 137.421848 151.705358 
L 137.713541 144.858566 
L 138.296927 149.423094 
L 138.880314 176.810264 
L 139.172007 176.810264 
L 139.4637 192.786113 
L 139.755393 192.786113 
L 140.33878 208.761962 
L 140.630473 169.963472 
L 140.922166 163.116679 
L 141.213859 183.657057 
L 141.505553 179.092528 
L 141.797246 192.786113 
L 142.088939 190.503849 
L 142.380632 199.632906 
L 142.672325 217.891019 
L 142.964019 215.608755 
L 143.255712 195.068377 
L 143.547405 197.350642 
L 143.839098 208.761962 
L 144.130791 192.786113 
L 144.422485 185.939321 
L 144.714178 172.245736 
L 145.005871 188.221585 
L 145.297564 181.374792 
L 145.589258 179.092528 
L 145.880951 181.374792 
L 146.172644 176.810264 
L 146.464337 147.14083 
L 147.047724 156.269887 
L 147.339417 165.398943 
L 147.63111 156.269887 
L 147.922803 163.116679 
L 148.214496 163.116679 
L 148.50619 160.834415 
L 148.797883 147.14083 
L 149.089576 169.963472 
L 149.381269 163.116679 
L 149.672963 167.681208 
L 150.256349 167.681208 
L 150.839735 151.705358 
L 151.131429 156.269887 
L 151.423122 153.987623 
L 151.714815 149.423094 
L 152.006508 163.116679 
L 152.589895 140.294038 
L 152.881588 133.447245 
L 153.173281 142.576302 
L 153.464974 138.011774 
L 153.756667 163.116679 
L 154.048361 142.576302 
L 154.340054 153.987623 
L 154.631747 151.705358 
L 154.92344 158.552151 
L 155.215134 169.963472 
L 155.506827 160.834415 
L 155.79852 172.245736 
L 156.090213 169.963472 
L 156.381906 160.834415 
L 156.965293 128.882717 
L 157.256986 119.75366 
L 157.548679 122.035925 
L 158.423759 115.189132 
L 158.715452 110.624604 
L 159.007145 115.189132 
L 159.298839 110.624604 
L 159.590532 112.906868 
L 159.882225 112.906868 
L 160.173918 108.34234 
L 160.465611 106.060075 
L 160.757305 124.318189 
L 161.048998 131.164981 
L 161.340691 133.447245 
L 161.632384 142.576302 
L 161.924077 138.011774 
L 162.215771 156.269887 
L 162.507464 149.423094 
L 162.799157 135.729509 
L 163.09085 142.576302 
L 163.382543 135.729509 
L 163.674237 138.011774 
L 163.96593 131.164981 
L 164.257623 131.164981 
L 164.549316 110.624604 
L 164.84101 112.906868 
L 165.424396 112.906868 
L 165.716089 110.624604 
L 166.007782 106.060075 
L 166.299476 115.189132 
L 166.591169 101.495547 
L 166.882862 131.164981 
L 167.174555 133.447245 
L 167.466248 128.882717 
L 167.757942 147.14083 
L 168.341328 163.116679 
L 168.633021 158.552151 
L 168.924715 167.681208 
L 169.216408 167.681208 
L 169.508101 183.657057 
L 169.799794 176.810264 
L 170.091487 179.092528 
L 170.383181 169.963472 
L 170.674874 179.092528 
L 170.966567 181.374792 
L 171.25826 174.528 
L 171.549953 181.374792 
L 172.13334 138.011774 
L 173.00842 156.269887 
L 173.300113 160.834415 
L 173.591806 160.834415 
L 173.883499 176.810264 
L 174.175192 156.269887 
L 174.466886 149.423094 
L 174.758579 156.269887 
L 175.050272 142.576302 
L 175.341965 147.14083 
L 175.633658 133.447245 
L 175.925352 149.423094 
L 176.217045 153.987623 
L 176.508738 163.116679 
L 176.800431 149.423094 
L 177.383818 163.116679 
L 177.675511 147.14083 
L 177.967204 156.269887 
L 178.258897 153.987623 
L 178.550591 156.269887 
L 179.133977 151.705358 
L 179.42567 135.729509 
L 179.717363 135.729509 
L 180.009057 156.269887 
L 180.30075 149.423094 
L 180.592443 147.14083 
L 181.175829 156.269887 
L 181.467523 144.858566 
L 181.759216 128.882717 
L 182.050909 138.011774 
L 182.342602 153.987623 
L 182.634296 149.423094 
L 182.925989 133.447245 
L 183.509375 149.423094 
L 184.092762 165.398943 
L 184.384455 185.939321 
L 184.676148 185.939321 
L 185.259534 181.374792 
L 185.551228 185.939321 
L 185.842921 188.221585 
L 186.134614 172.245736 
L 186.426307 176.810264 
L 186.718 167.681208 
L 187.009694 172.245736 
L 187.301387 188.221585 
L 187.59308 192.786113 
L 187.884773 174.528 
L 188.46816 201.91517 
L 188.759853 185.939321 
L 189.051546 188.221585 
L 189.343239 197.350642 
L 189.926626 176.810264 
L 190.218319 195.068377 
L 190.510012 190.503849 
L 190.801705 179.092528 
L 191.093399 151.705358 
L 191.385092 156.269887 
L 191.968478 167.681208 
L 192.260172 158.552151 
L 192.551865 160.834415 
L 192.843558 158.552151 
L 193.135251 153.987623 
L 193.426944 151.705358 
L 194.010331 167.681208 
L 194.302024 179.092528 
L 194.593717 185.939321 
L 194.88541 185.939321 
L 195.177104 181.374792 
L 195.468797 199.632906 
L 195.76049 195.068377 
L 196.052183 206.479698 
L 196.343877 204.197434 
L 196.63557 220.173283 
L 196.927263 227.020075 
L 197.510649 211.044226 
L 197.802343 220.173283 
L 198.094036 185.939321 
L 198.385729 190.503849 
L 198.677422 185.939321 
L 198.969115 179.092528 
L 199.260809 147.14083 
L 199.552502 142.576302 
L 199.844195 147.14083 
L 200.427581 128.882717 
L 200.719275 128.882717 
L 201.010968 158.552151 
L 201.302661 140.294038 
L 201.594354 158.552151 
L 201.886048 153.987623 
L 202.177741 172.245736 
L 202.469434 181.374792 
L 202.761127 176.810264 
L 203.05282 197.350642 
L 203.344514 206.479698 
L 203.636207 231.584604 
L 203.9279 227.020075 
L 204.219593 249.842717 
L 204.511286 247.560453 
L 204.80298 238.431396 
L 205.094673 220.173283 
L 205.386366 213.326491 
L 205.678059 224.737811 
L 205.969753 211.044226 
L 206.261446 208.761962 
L 206.553139 192.786113 
L 206.844832 220.173283 
L 207.136525 217.891019 
L 207.428219 183.657057 
L 207.719912 195.068377 
L 208.011605 183.657057 
L 208.303298 190.503849 
L 208.594991 190.503849 
L 209.178378 172.245736 
L 209.470071 153.987623 
L 209.761764 160.834415 
L 210.053457 153.987623 
L 210.636844 158.552151 
L 210.928537 142.576302 
L 211.22023 140.294038 
L 211.511924 142.576302 
L 211.803617 138.011774 
L 212.387003 142.576302 
L 212.678696 179.092528 
L 212.97039 181.374792 
L 213.262083 176.810264 
L 213.553776 188.221585 
L 213.845469 181.374792 
L 214.137162 169.963472 
L 214.428856 176.810264 
L 214.720549 174.528 
L 215.012242 147.14083 
L 215.303935 144.858566 
L 215.595629 151.705358 
L 215.887322 135.729509 
L 216.179015 138.011774 
L 216.470708 133.447245 
L 216.762401 147.14083 
L 217.054095 142.576302 
L 217.345788 142.576302 
L 217.637481 138.011774 
L 217.929174 149.423094 
L 218.220867 149.423094 
L 218.512561 156.269887 
L 218.804254 156.269887 
L 219.095947 153.987623 
L 219.38764 140.294038 
L 219.679333 151.705358 
L 219.971027 156.269887 
L 220.26272 156.269887 
L 220.554413 190.503849 
L 221.1378 217.891019 
L 221.721186 217.891019 
L 222.012879 229.30234 
L 222.887959 249.842717 
L 223.179652 236.149132 
L 223.471345 242.995925 
L 223.763038 242.995925 
L 224.054732 240.71366 
L 224.346425 231.584604 
L 224.638118 229.30234 
L 224.929811 222.455547 
L 225.221505 224.737811 
L 225.513198 229.30234 
L 225.804891 222.455547 
L 226.096584 208.761962 
L 226.388277 229.30234 
L 226.679971 240.71366 
L 226.971664 238.431396 
L 227.263357 247.560453 
L 227.55505 224.737811 
L 227.846743 238.431396 
L 228.138437 220.173283 
L 228.43013 215.608755 
L 228.721823 213.326491 
L 229.013516 220.173283 
L 229.596903 208.761962 
L 230.180289 204.197434 
L 230.471982 176.810264 
L 230.763676 179.092528 
L 231.055369 172.245736 
L 231.347062 190.503849 
L 231.638755 188.221585 
L 231.930448 211.044226 
L 232.222142 206.479698 
L 232.513835 222.455547 
L 233.097221 206.479698 
L 233.680608 185.939321 
L 233.972301 172.245736 
L 234.263994 185.939321 
L 234.555687 172.245736 
L 234.847381 174.528 
L 235.139074 188.221585 
L 235.430767 181.374792 
L 235.72246 183.657057 
L 236.305847 206.479698 
L 236.59754 197.350642 
L 236.889233 183.657057 
L 237.180926 185.939321 
L 237.472619 192.786113 
L 238.347699 240.71366 
L 238.931086 199.632906 
L 239.222779 197.350642 
L 239.514472 190.503849 
L 239.806165 227.020075 
L 240.097858 211.044226 
L 240.389552 204.197434 
L 240.972938 204.197434 
L 241.264631 201.91517 
L 241.556324 220.173283 
L 242.139711 236.149132 
L 242.431404 217.891019 
L 242.723097 217.891019 
L 243.306484 222.455547 
L 243.598177 222.455547 
L 244.181563 233.866868 
L 244.473257 238.431396 
L 245.056643 258.971774 
L 245.348336 263.536302 
L 245.640029 188.221585 
L 245.931723 174.528 
L 246.515109 165.398943 
L 246.806802 138.011774 
L 247.098495 147.14083 
L 247.390189 167.681208 
L 247.681882 172.245736 
L 247.973575 153.987623 
L 248.556962 163.116679 
L 248.848655 140.294038 
L 249.432041 163.116679 
L 249.723734 153.987623 
L 250.015428 176.810264 
L 250.307121 179.092528 
L 250.598814 183.657057 
L 250.890507 172.245736 
L 251.473894 197.350642 
L 251.765587 199.632906 
L 252.05728 197.350642 
L 252.348973 192.786113 
L 252.640667 190.503849 
L 252.93236 208.761962 
L 253.224053 208.761962 
L 253.515746 215.608755 
L 253.807439 197.350642 
L 254.099133 213.326491 
L 254.390826 213.326491 
L 254.682519 217.891019 
L 254.974212 229.30234 
L 255.265905 220.173283 
L 255.557599 199.632906 
L 255.849292 190.503849 
L 256.140985 188.221585 
L 256.432678 172.245736 
L 256.724371 185.939321 
L 257.016065 190.503849 
L 257.307758 208.761962 
L 257.599451 195.068377 
L 257.891144 195.068377 
L 258.182838 199.632906 
L 258.474531 201.91517 
L 258.766224 201.91517 
L 259.057917 208.761962 
L 259.34961 206.479698 
L 259.641304 201.91517 
L 259.932997 192.786113 
L 260.22469 208.761962 
L 260.516383 215.608755 
L 260.808076 199.632906 
L 261.09977 195.068377 
L 261.391463 204.197434 
L 261.683156 192.786113 
L 261.974849 188.221585 
L 262.266543 204.197434 
L 262.558236 206.479698 
L 263.141622 224.737811 
L 264.308395 176.810264 
L 264.891781 167.681208 
L 265.183475 183.657057 
L 265.475168 181.374792 
L 265.766861 185.939321 
L 266.058554 195.068377 
L 266.350247 190.503849 
L 266.933634 206.479698 
L 267.225327 229.30234 
L 267.51702 224.737811 
L 267.808714 227.020075 
L 268.100407 215.608755 
L 268.3921 233.866868 
L 268.683793 224.737811 
L 268.975486 208.761962 
L 269.26718 199.632906 
L 269.558873 211.044226 
L 269.850566 211.044226 
L 270.142259 208.761962 
L 270.433952 197.350642 
L 270.725646 195.068377 
L 271.017339 190.503849 
L 271.309032 192.786113 
L 271.600725 201.91517 
L 271.892419 192.786113 
L 272.184112 197.350642 
L 272.475805 199.632906 
L 272.767498 204.197434 
L 273.059191 199.632906 
L 273.350885 222.455547 
L 273.642578 229.30234 
L 273.934271 217.891019 
L 274.225964 220.173283 
L 274.517657 215.608755 
L 274.809351 199.632906 
L 275.392737 179.092528 
L 275.68443 201.91517 
L 275.976123 195.068377 
L 276.267817 192.786113 
L 276.55951 188.221585 
L 276.851203 204.197434 
L 277.142896 199.632906 
L 277.43459 197.350642 
L 277.726283 199.632906 
L 278.017976 215.608755 
L 278.309669 215.608755 
L 278.601362 211.044226 
L 278.893056 197.350642 
L 279.184749 190.503849 
L 279.476442 163.116679 
L 279.768135 165.398943 
L 280.059828 165.398943 
L 280.351522 158.552151 
L 280.643215 167.681208 
L 281.226601 172.245736 
L 281.518295 169.963472 
L 281.809988 174.528 
L 282.101681 192.786113 
L 282.393374 176.810264 
L 282.685067 179.092528 
L 282.976761 201.91517 
L 283.268454 208.761962 
L 283.560147 206.479698 
L 283.85184 192.786113 
L 284.143533 197.350642 
L 284.435227 199.632906 
L 284.72692 199.632906 
L 285.602 217.891019 
L 285.893693 215.608755 
L 286.185386 220.173283 
L 286.477079 229.30234 
L 287.060466 206.479698 
L 287.352159 208.761962 
L 287.643852 204.197434 
L 287.935545 208.761962 
L 288.518932 208.761962 
L 288.810625 201.91517 
L 289.102318 217.891019 
L 289.394011 227.020075 
L 289.685704 222.455547 
L 289.977398 222.455547 
L 290.269091 208.761962 
L 290.560784 220.173283 
L 290.852477 227.020075 
L 291.435864 252.124981 
L 291.727557 279.512151 
L 292.01925 288.641208 
L 292.310943 293.205736 
L 292.602637 288.641208 
L 292.89433 286.358943 
L 293.186023 293.205736 
L 293.477716 270.383094 
L 293.769409 265.818566 
L 294.061103 265.818566 
L 294.644489 242.995925 
L 295.227876 242.995925 
L 295.519569 240.71366 
L 295.811262 197.350642 
L 296.102955 199.632906 
L 296.394648 195.068377 
L 296.686342 181.374792 
L 296.978035 204.197434 
L 297.561421 163.116679 
L 297.853114 167.681208 
L 298.144808 165.398943 
L 298.436501 165.398943 
L 298.728194 176.810264 
L 299.019887 181.374792 
L 299.31158 181.374792 
L 299.603274 190.503849 
L 299.894967 185.939321 
L 300.18666 213.326491 
L 300.770047 208.761962 
L 301.06174 217.891019 
L 301.353433 217.891019 
L 301.645126 227.020075 
L 301.936819 224.737811 
L 302.228513 215.608755 
L 302.520206 213.326491 
L 302.811899 208.761962 
L 303.103592 208.761962 
L 303.395285 206.479698 
L 303.686979 195.068377 
L 303.978672 213.326491 
L 304.270365 217.891019 
L 304.562058 215.608755 
L 304.853752 206.479698 
L 305.145445 208.761962 
L 305.437138 192.786113 
L 305.728831 195.068377 
L 306.020524 211.044226 
L 306.312218 217.891019 
L 306.603911 215.608755 
L 306.895604 199.632906 
L 307.187297 192.786113 
L 307.770684 215.608755 
L 308.062377 213.326491 
L 308.645763 222.455547 
L 308.937457 229.30234 
L 309.22915 199.632906 
L 309.812536 215.608755 
L 310.104229 224.737811 
L 310.395923 224.737811 
L 310.687616 211.044226 
L 311.271002 153.987623 
L 311.562695 172.245736 
L 311.854389 169.963472 
L 312.437775 206.479698 
L 312.729468 213.326491 
L 313.021161 201.91517 
L 313.312855 199.632906 
L 313.604548 206.479698 
L 313.896241 204.197434 
L 314.187934 204.197434 
L 314.479628 220.173283 
L 314.771321 229.30234 
L 315.063014 220.173283 
L 315.354707 204.197434 
L 315.6464 208.761962 
L 316.52148 242.995925 
L 316.813173 245.278189 
L 317.104866 233.866868 
L 317.39656 238.431396 
L 317.688253 240.71366 
L 317.979946 238.431396 
L 318.271639 233.866868 
L 318.563333 217.891019 
L 318.855026 211.044226 
L 319.146719 213.326491 
L 319.438412 222.455547 
L 319.730105 222.455547 
L 320.021799 220.173283 
L 320.313492 204.197434 
L 320.605185 195.068377 
L 321.188571 190.503849 
L 321.480265 183.657057 
L 321.771958 188.221585 
L 322.063651 188.221585 
L 322.647037 224.737811 
L 322.938731 211.044226 
L 323.230424 213.326491 
L 323.522117 208.761962 
L 323.81381 208.761962 
L 324.105504 167.681208 
L 324.397197 149.423094 
L 324.68889 153.987623 
L 324.980583 160.834415 
L 325.56397 160.834415 
L 325.855663 163.116679 
L 326.147356 163.116679 
L 326.439049 174.528 
L 326.730742 195.068377 
L 327.022436 199.632906 
L 327.314129 201.91517 
L 327.605822 197.350642 
L 327.897515 179.092528 
L 328.189209 174.528 
L 328.480902 172.245736 
L 328.772595 185.939321 
L 329.064288 185.939321 
L 329.647675 217.891019 
L 329.939368 222.455547 
L 330.231061 217.891019 
L 330.522754 215.608755 
L 330.814447 231.584604 
L 331.106141 220.173283 
L 331.397834 195.068377 
L 331.689527 199.632906 
L 331.98122 201.91517 
L 332.272914 199.632906 
L 332.564607 199.632906 
L 332.8563 206.479698 
L 333.147993 199.632906 
L 333.439686 206.479698 
L 333.73138 201.91517 
L 334.023073 213.326491 
L 334.314766 208.761962 
L 334.606459 254.407245 
L 334.898152 247.560453 
L 335.189846 288.641208 
L 335.481539 293.205736 
L 335.773232 295.488 
L 336.064925 268.10083 
L 336.356618 270.383094 
L 336.648312 265.818566 
L 336.940005 256.689509 
L 337.231698 252.124981 
L 337.523391 240.71366 
L 337.815085 222.455547 
L 338.106778 229.30234 
L 338.398471 231.584604 
L 338.690164 231.584604 
L 338.981857 236.149132 
L 339.273551 242.995925 
L 339.565244 242.995925 
L 339.856937 240.71366 
L 340.14863 220.173283 
L 340.440323 215.608755 
L 340.732017 215.608755 
L 341.02371 224.737811 
L 341.315403 211.044226 
L 341.607096 240.71366 
L 341.89879 247.560453 
L 342.482176 236.149132 
L 342.773869 231.584604 
L 343.065562 224.737811 
L 343.357256 206.479698 
L 343.648949 201.91517 
L 344.232335 206.479698 
L 344.524028 224.737811 
L 344.815722 215.608755 
L 345.399108 227.020075 
L 345.690801 229.30234 
L 345.982494 242.995925 
L 346.274188 242.995925 
L 346.565881 265.818566 
L 346.857574 268.10083 
L 347.149267 284.076679 
L 347.440961 284.076679 
L 347.732654 290.923472 
L 348.024347 281.794415 
L 348.31604 286.358943 
L 348.607733 295.488 
L 348.899427 288.641208 
L 349.19112 295.488 
L 349.482813 288.641208 
L 349.774506 288.641208 
L 350.066199 286.358943 
L 350.357893 288.641208 
L 350.649586 284.076679 
L 351.524666 284.076679 
L 351.816359 270.383094 
L 352.108052 270.383094 
L 352.399745 277.229887 
L 352.691438 258.971774 
L 352.983132 249.842717 
L 353.274825 245.278189 
L 353.858211 240.71366 
L 354.149904 236.149132 
L 354.441598 229.30234 
L 354.733291 215.608755 
L 355.024984 229.30234 
L 355.316677 227.020075 
L 355.60837 227.020075 
L 356.191757 222.455547 
L 356.48345 224.737811 
L 356.775143 215.608755 
L 357.066837 217.891019 
L 357.35853 206.479698 
L 357.650223 215.608755 
L 357.941916 220.173283 
L 358.233609 222.455547 
L 358.525303 222.455547 
L 358.816996 215.608755 
L 359.108689 217.891019 
L 359.400382 213.326491 
L 359.692075 220.173283 
L 359.983769 238.431396 
L 360.275462 229.30234 
L 360.567155 231.584604 
L 360.858848 229.30234 
L 361.150542 217.891019 
L 361.442235 222.455547 
L 361.733928 215.608755 
L 362.025621 213.326491 
L 362.609008 222.455547 
L 362.900701 240.71366 
L 363.192394 238.431396 
L 363.484087 258.971774 
L 363.77578 261.254038 
L 364.067474 258.971774 
L 364.359167 258.971774 
L 364.65086 247.560453 
L 364.942553 245.278189 
L 365.234247 238.431396 
L 365.52594 240.71366 
L 365.817633 227.020075 
L 366.109326 247.560453 
L 366.401019 258.971774 
L 366.692713 263.536302 
L 366.984406 265.818566 
L 367.276099 261.254038 
L 367.567792 272.665358 
L 368.151179 288.641208 
L 368.442872 286.358943 
L 369.317951 258.971774 
L 369.609645 254.407245 
L 369.901338 256.689509 
L 370.193031 256.689509 
L 370.776418 240.71366 
L 371.359804 252.124981 
L 371.651497 240.71366 
L 372.234884 258.971774 
L 372.81827 240.71366 
L 373.109963 236.149132 
L 373.401656 245.278189 
L 374.568429 220.173283 
L 374.860123 217.891019 
L 375.151816 197.350642 
L 375.443509 190.503849 
L 376.026895 190.503849 
L 376.318589 172.245736 
L 376.610282 172.245736 
L 376.901975 179.092528 
L 377.193668 172.245736 
L 377.485361 188.221585 
L 377.777055 197.350642 
L 378.068748 185.939321 
L 378.360441 183.657057 
L 378.652134 185.939321 
L 378.943827 211.044226 
L 379.235521 199.632906 
L 379.527214 224.737811 
L 379.818907 231.584604 
L 380.1106 252.124981 
L 380.402294 249.842717 
L 380.693987 254.407245 
L 380.98568 254.407245 
L 381.277373 252.124981 
L 381.569066 245.278189 
L 381.86076 242.995925 
L 382.152453 227.020075 
L 382.444146 222.455547 
L 382.735839 224.737811 
L 383.027532 238.431396 
L 383.319226 236.149132 
L 383.610919 236.149132 
L 383.902612 240.71366 
L 384.485999 263.536302 
L 384.777692 284.076679 
L 385.069385 286.358943 
L 385.361078 274.947623 
L 385.652771 252.124981 
L 385.944465 254.407245 
L 386.527851 249.842717 
L 386.819544 236.149132 
L 387.402931 240.71366 
L 387.694624 238.431396 
L 387.986317 238.431396 
L 388.27801 245.278189 
L 388.569704 247.560453 
L 388.861397 238.431396 
L 389.444783 258.971774 
L 389.736476 258.971774 
L 390.02817 254.407245 
L 390.319863 265.818566 
L 390.611556 270.383094 
L 390.903249 258.971774 
L 391.194942 256.689509 
L 391.486636 268.10083 
L 391.778329 254.407245 
L 392.070022 254.407245 
L 392.361715 249.842717 
L 392.653408 252.124981 
L 392.945102 252.124981 
L 393.236795 268.10083 
L 393.528488 249.842717 
L 393.820181 263.536302 
L 394.111875 265.818566 
L 394.403568 254.407245 
L 394.695261 224.737811 
L 394.986954 229.30234 
L 395.278647 242.995925 
L 395.570341 238.431396 
L 395.862034 240.71366 
L 396.153727 233.866868 
L 396.44542 238.431396 
L 396.737113 258.971774 
L 397.028807 261.254038 
L 397.3205 242.995925 
L 397.612193 247.560453 
L 397.903886 242.995925 
L 398.19558 284.076679 
L 398.487273 288.641208 
L 398.487273 288.641208 
" clip-path="url(#pa0e3ade274)" style="fill: none; stroke: #1f77b4; stroke-width: 1.5; stroke-linecap: square"/>
   </g>
   <g id="patch_3">
    <path d="M 57.6 307.584 
L 57.6 41.472 
" style="fill: none; stroke: #000000; stroke-width: 0.8; stroke-linejoin: miter; stroke-linecap: square"/>
   </g>
   <g id="patch_4">
    <path d="M 414.72 307.584 
L 414.72 41.472 
" style="fill: none; stroke: #000000; stroke-width: 0.8; stroke-linejoin: miter; stroke-linecap: square"/>
   </g>
   <g id="patch_5">
    <path d="M 57.6 307.584 
L 414.72 307.584 
" style="fill: none; stroke: #000000; stroke-width: 0.8; stroke-linejoin: miter; stroke-linecap: square"/>
   </g>
   <g id="patch_6">
    <path d="M 57.6 41.472 
L 414.72 41.472 
" style="fill: none; stroke: #000000; stroke-width: 0.8; stroke-linejoin: miter; stroke-linecap: square"/>
   </g>
   <g id="text_14">
    <!-- Simulated Anealling Cost -->
    <g transform="translate(160.8 35.472)scale(0.12 -0.12)">
     <defs>
      <path id="DejaVuSans-53" d="M 3425 4513 
L 3425 3897 
Q 3066 4069 2747 4153 
Q 2428 4238 2131 4238 
Q 1616 4238 1336 4038 
Q 1056 3838 1056 3469 
Q 1056 3159 1242 3001 
Q 1428 2844 1947 2747 
L 2328 2669 
Q 3034 2534 3370 2195 
Q 3706 1856 3706 1288 
Q 3706 609 3251 259 
Q 2797 -91 1919 -91 
Q 1588 -91 1214 -16 
Q 841 59 441 206 
L 441 856 
Q 825 641 1194 531 
Q 1563 422 1919 422 
Q 2459 422 2753 634 
Q 3047 847 3047 1241 
Q 3047 1584 2836 1778 
Q 2625 1972 2144 2069 
L 1759 2144 
Q 1053 2284 737 2584 
Q 422 2884 422 3419 
Q 422 4038 858 4394 
Q 1294 4750 2059 4750 
Q 2388 4750 2728 4690 
Q 3069 4631 3425 4513 
z
" transform="scale(0.015625)"/>
      <path id="DejaVuSans-69" d="M 603 3500 
L 1178 3500 
L 1178 0 
L 603 0 
L 603 3500 
z
M 603 4863 
L 1178 4863 
L 1178 4134 
L 603 4134 
L 603 4863 
z
" transform="scale(0.015625)"/>
      <path id="DejaVuSans-65" d="M 3597 1894 
L 3597 1613 
L 953 1613 
Q 991 1019 1311 708 
Q 1631 397 2203 397 
Q 2534 397 2845 478 
Q 3156 559 3463 722 
L 3463 178 
Q 3153 47 2828 -22 
Q 2503 -91 2169 -91 
Q 1331 -91 842 396 
Q 353 884 353 1716 
Q 353 2575 817 3079 
Q 1281 3584 2069 3584 
Q 2775 3584 3186 3129 
Q 3597 2675 3597 1894 
z
M 3022 2063 
Q 3016 2534 2758 2815 
Q 2500 3097 2075 3097 
Q 1594 3097 1305 2825 
Q 1016 2553 972 2059 
L 3022 2063 
z
" transform="scale(0.015625)"/>
      <path id="DejaVuSans-64" d="M 2906 2969 
L 2906 4863 
L 3481 4863 
L 3481 0 
L 2906 0 
L 2906 525 
Q 2725 213 2448 61 
Q 2172 -91 1784 -91 
Q 1150 -91 751 415 
Q 353 922 353 1747 
Q 353 2572 751 3078 
Q 1150 3584 1784 3584 
Q 2172 3584 2448 3432 
Q 2725 3281 2906 2969 
z
M 947 1747 
Q 947 1113 1208 752 
Q 1469 391 1925 391 
Q 2381 391 2643 752 
Q 2906 1113 2906 1747 
Q 2906 2381 2643 2742 
Q 2381 3103 1925 3103 
Q 1469 3103 1208 2742 
Q 947 2381 947 1747 
z
" transform="scale(0.015625)"/>
      <path id="DejaVuSans-41" d="M 2188 4044 
L 1331 1722 
L 3047 1722 
L 2188 4044 
z
M 1831 4666 
L 2547 4666 
L 4325 0 
L 3669 0 
L 3244 1197 
L 1141 1197 
L 716 0 
L 50 0 
L 1831 4666 
z
" transform="scale(0.015625)"/>
      <path id="DejaVuSans-67" d="M 2906 1791 
Q 2906 2416 2648 2759 
Q 2391 3103 1925 3103 
Q 1463 3103 1205 2759 
Q 947 2416 947 1791 
Q 947 1169 1205 825 
Q 1463 481 1925 481 
Q 2391 481 2648 825 
Q 2906 1169 2906 1791 
z
M 3481 434 
Q 3481 -459 3084 -895 
Q 2688 -1331 1869 -1331 
Q 1566 -1331 1297 -1286 
Q 1028 -1241 775 -1147 
L 775 -588 
Q 1028 -725 1275 -790 
Q 1522 -856 1778 -856 
Q 2344 -856 2625 -561 
Q 2906 -266 2906 331 
L 2906 616 
Q 2728 306 2450 153 
Q 2172 0 1784 0 
Q 1141 0 747 490 
Q 353 981 353 1791 
Q 353 2603 747 3093 
Q 1141 3584 1784 3584 
Q 2172 3584 2450 3431 
Q 2728 3278 2906 2969 
L 2906 3500 
L 3481 3500 
L 3481 434 
z
" transform="scale(0.015625)"/>
      <path id="DejaVuSans-43" d="M 4122 4306 
L 4122 3641 
Q 3803 3938 3442 4084 
Q 3081 4231 2675 4231 
Q 1875 4231 1450 3742 
Q 1025 3253 1025 2328 
Q 1025 1406 1450 917 
Q 1875 428 2675 428 
Q 3081 428 3442 575 
Q 3803 722 4122 1019 
L 4122 359 
Q 3791 134 3420 21 
Q 3050 -91 2638 -91 
Q 1578 -91 968 557 
Q 359 1206 359 2328 
Q 359 3453 968 4101 
Q 1578 4750 2638 4750 
Q 3056 4750 3426 4639 
Q 3797 4528 4122 4306 
z
" transform="scale(0.015625)"/>
     </defs>
     <use xlink:href="#DejaVuSans-53"/>
     <use xlink:href="#DejaVuSans-69" x="63.476562"/>
     <use xlink:href="#DejaVuSans-6d" x="91.259766"/>
     <use xlink:href="#DejaVuSans-75" x="188.671875"/>
     <use xlink:href="#DejaVuSans-6c" x="252.050781"/>
     <use xlink:href="#DejaVuSans-61" x="279.833984"/>
     <use xlink:href="#DejaVuSans-74" x="341.113281"/>
     <use xlink:href="#DejaVuSans-65" x="380.322266"/>
     <use xlink:href="#DejaVuSans-64" x="441.845703"/>
     <use xlink:href="#DejaVuSans-20" x="505.322266"/>
     <use xlink:href="#DejaVuSans-41" x="537.109375"/>
     <use xlink:href="#DejaVuSans-6e" x="605.517578"/>
     <use xlink:href="#DejaVuSans-65" x="668.896484"/>
     <use xlink:href="#DejaVuSans-61" x="730.419922"/>
     <use xlink:href="#DejaVuSans-6c" x="791.699219"/>
     <use xlink:href="#DejaVuSans-6c" x="819.482422"/>
     <use xlink:href="#DejaVuSans-69" x="847.265625"/>
     <use xlink:href="#DejaVuSans-6e" x="875.048828"/>
     <use xlink:href="#DejaVuSans-67" x="938.427734"/>
     <use xlink:href="#DejaVuSans-20" x="1001.904297"/>
     <use xlink:href="#DejaVuSans-43" x="1033.691406"/>
     <use xlink:href="#DejaVuSans-6f" x="1103.515625"/>
     <use xlink:href="#DejaVuSans-73" x="1164.697266"/>
     <use xlink:href="#DejaVuSans-74" x="1216.796875"/>
    </g>
   </g>
  </g>
 </g>
 <defs>
  <clipPath id="pa0e3ade274">
   <rect x="57.6" y="41.472" width="357.12" height="266.112"/>
  </clipPath>
 </defs>
</svg>
