<?xml version="1.0" encoding="utf-8" standalone="no"?>
<!DOCTYPE svg PUBLIC "-//W3C//DTD SVG 1.1//EN"
  "http://www.w3.org/Graphics/SVG/1.1/DTD/svg11.dtd">
<svg xmlns:xlink="http://www.w3.org/1999/xlink" width="460.8pt" height="345.6pt" viewBox="0 0 460.8 345.6" xmlns="http://www.w3.org/2000/svg" version="1.1">
 <metadata>
  <rdf:RDF xmlns:dc="http://purl.org/dc/elements/1.1/" xmlns:cc="http://creativecommons.org/ns#" xmlns:rdf="http://www.w3.org/1999/02/22-rdf-syntax-ns#">
   <cc:Work>
    <dc:type rdf:resource="http://purl.org/dc/dcmitype/StillImage"/>
    <dc:date>2022-06-01T08:05:56.276388</dc:date>
    <dc:format>image/svg+xml</dc:format>
    <dc:creator>
     <cc:Agent>
      <dc:title>Matplotlib v3.5.1, https://matplotlib.org/</dc:title>
     </cc:Agent>
    </dc:creator>
   </cc:Work>
  </rdf:RDF>
 </metadata>
 <defs>
  <style type="text/css">*{stroke-linejoin: round; stroke-linecap: butt}</style>
 </defs>
 <g id="figure_1">
  <g id="patch_1">
   <path d="M 0 345.6 
L 460.8 345.6 
L 460.8 0 
L 0 0 
z
" style="fill: #ffffff"/>
  </g>
  <g id="axes_1">
   <g id="patch_2">
    <path d="M 57.6 307.584 
L 414.72 307.584 
L 414.72 41.472 
L 57.6 41.472 
z
" style="fill: #ffffff"/>
   </g>
   <g id="matplotlib.axis_1">
    <g id="xtick_1">
     <g id="line2d_1">
      <defs>
       <path id="m0e134e9614" d="M 0 0 
L 0 3.5 
" style="stroke: #000000; stroke-width: 0.8"/>
      </defs>
      <g>
       <use xlink:href="#m0e134e9614" x="73.832727" y="307.584" style="stroke: #000000; stroke-width: 0.8"/>
      </g>
     </g>
     <g id="text_1">
      <!-- 0 -->
      <g transform="translate(70.651477 322.182437)scale(0.1 -0.1)">
       <defs>
        <path id="DejaVuSans-30" d="M 2034 4250 
Q 1547 4250 1301 3770 
Q 1056 3291 1056 2328 
Q 1056 1369 1301 889 
Q 1547 409 2034 409 
Q 2525 409 2770 889 
Q 3016 1369 3016 2328 
Q 3016 3291 2770 3770 
Q 2525 4250 2034 4250 
z
M 2034 4750 
Q 2819 4750 3233 4129 
Q 3647 3509 3647 2328 
Q 3647 1150 3233 529 
Q 2819 -91 2034 -91 
Q 1250 -91 836 529 
Q 422 1150 422 2328 
Q 422 3509 836 4129 
Q 1250 4750 2034 4750 
z
" transform="scale(0.015625)"/>
       </defs>
       <use xlink:href="#DejaVuSans-30"/>
      </g>
     </g>
    </g>
    <g id="xtick_2">
     <g id="line2d_2">
      <g>
       <use xlink:href="#m0e134e9614" x="146.235614" y="307.584" style="stroke: #000000; stroke-width: 0.8"/>
      </g>
     </g>
     <g id="text_2">
      <!-- 500 -->
      <g transform="translate(136.691864 322.182437)scale(0.1 -0.1)">
       <defs>
        <path id="DejaVuSans-35" d="M 691 4666 
L 3169 4666 
L 3169 4134 
L 1269 4134 
L 1269 2991 
Q 1406 3038 1543 3061 
Q 1681 3084 1819 3084 
Q 2600 3084 3056 2656 
Q 3513 2228 3513 1497 
Q 3513 744 3044 326 
Q 2575 -91 1722 -91 
Q 1428 -91 1123 -41 
Q 819 9 494 109 
L 494 744 
Q 775 591 1075 516 
Q 1375 441 1709 441 
Q 2250 441 2565 725 
Q 2881 1009 2881 1497 
Q 2881 1984 2565 2268 
Q 2250 2553 1709 2553 
Q 1456 2553 1204 2497 
Q 953 2441 691 2322 
L 691 4666 
z
" transform="scale(0.015625)"/>
       </defs>
       <use xlink:href="#DejaVuSans-35"/>
       <use xlink:href="#DejaVuSans-30" x="63.623047"/>
       <use xlink:href="#DejaVuSans-30" x="127.246094"/>
      </g>
     </g>
    </g>
    <g id="xtick_3">
     <g id="line2d_3">
      <g>
       <use xlink:href="#m0e134e9614" x="218.638501" y="307.584" style="stroke: #000000; stroke-width: 0.8"/>
      </g>
     </g>
     <g id="text_3">
      <!-- 1000 -->
      <g transform="translate(205.913501 322.182437)scale(0.1 -0.1)">
       <defs>
        <path id="DejaVuSans-31" d="M 794 531 
L 1825 531 
L 1825 4091 
L 703 3866 
L 703 4441 
L 1819 4666 
L 2450 4666 
L 2450 531 
L 3481 531 
L 3481 0 
L 794 0 
L 794 531 
z
" transform="scale(0.015625)"/>
       </defs>
       <use xlink:href="#DejaVuSans-31"/>
       <use xlink:href="#DejaVuSans-30" x="63.623047"/>
       <use xlink:href="#DejaVuSans-30" x="127.246094"/>
       <use xlink:href="#DejaVuSans-30" x="190.869141"/>
      </g>
     </g>
    </g>
    <g id="xtick_4">
     <g id="line2d_4">
      <g>
       <use xlink:href="#m0e134e9614" x="291.041388" y="307.584" style="stroke: #000000; stroke-width: 0.8"/>
      </g>
     </g>
     <g id="text_4">
      <!-- 1500 -->
      <g transform="translate(278.316388 322.182437)scale(0.1 -0.1)">
       <use xlink:href="#DejaVuSans-31"/>
       <use xlink:href="#DejaVuSans-35" x="63.623047"/>
       <use xlink:href="#DejaVuSans-30" x="127.246094"/>
       <use xlink:href="#DejaVuSans-30" x="190.869141"/>
      </g>
     </g>
    </g>
    <g id="xtick_5">
     <g id="line2d_5">
      <g>
       <use xlink:href="#m0e134e9614" x="363.444275" y="307.584" style="stroke: #000000; stroke-width: 0.8"/>
      </g>
     </g>
     <g id="text_5">
      <!-- 2000 -->
      <g transform="translate(350.719275 322.182437)scale(0.1 -0.1)">
       <defs>
        <path id="DejaVuSans-32" d="M 1228 531 
L 3431 531 
L 3431 0 
L 469 0 
L 469 531 
Q 828 903 1448 1529 
Q 2069 2156 2228 2338 
Q 2531 2678 2651 2914 
Q 2772 3150 2772 3378 
Q 2772 3750 2511 3984 
Q 2250 4219 1831 4219 
Q 1534 4219 1204 4116 
Q 875 4013 500 3803 
L 500 4441 
Q 881 4594 1212 4672 
Q 1544 4750 1819 4750 
Q 2544 4750 2975 4387 
Q 3406 4025 3406 3419 
Q 3406 3131 3298 2873 
Q 3191 2616 2906 2266 
Q 2828 2175 2409 1742 
Q 1991 1309 1228 531 
z
" transform="scale(0.015625)"/>
       </defs>
       <use xlink:href="#DejaVuSans-32"/>
       <use xlink:href="#DejaVuSans-30" x="63.623047"/>
       <use xlink:href="#DejaVuSans-30" x="127.246094"/>
       <use xlink:href="#DejaVuSans-30" x="190.869141"/>
      </g>
     </g>
    </g>
    <g id="text_6">
     <!-- num swaps -->
     <g transform="translate(207.826406 335.860562)scale(0.1 -0.1)">
      <defs>
       <path id="DejaVuSans-6e" d="M 3513 2113 
L 3513 0 
L 2938 0 
L 2938 2094 
Q 2938 2591 2744 2837 
Q 2550 3084 2163 3084 
Q 1697 3084 1428 2787 
Q 1159 2491 1159 1978 
L 1159 0 
L 581 0 
L 581 3500 
L 1159 3500 
L 1159 2956 
Q 1366 3272 1645 3428 
Q 1925 3584 2291 3584 
Q 2894 3584 3203 3211 
Q 3513 2838 3513 2113 
z
" transform="scale(0.015625)"/>
       <path id="DejaVuSans-75" d="M 544 1381 
L 544 3500 
L 1119 3500 
L 1119 1403 
Q 1119 906 1312 657 
Q 1506 409 1894 409 
Q 2359 409 2629 706 
Q 2900 1003 2900 1516 
L 2900 3500 
L 3475 3500 
L 3475 0 
L 2900 0 
L 2900 538 
Q 2691 219 2414 64 
Q 2138 -91 1772 -91 
Q 1169 -91 856 284 
Q 544 659 544 1381 
z
M 1991 3584 
L 1991 3584 
z
" transform="scale(0.015625)"/>
       <path id="DejaVuSans-6d" d="M 3328 2828 
Q 3544 3216 3844 3400 
Q 4144 3584 4550 3584 
Q 5097 3584 5394 3201 
Q 5691 2819 5691 2113 
L 5691 0 
L 5113 0 
L 5113 2094 
Q 5113 2597 4934 2840 
Q 4756 3084 4391 3084 
Q 3944 3084 3684 2787 
Q 3425 2491 3425 1978 
L 3425 0 
L 2847 0 
L 2847 2094 
Q 2847 2600 2669 2842 
Q 2491 3084 2119 3084 
Q 1678 3084 1418 2786 
Q 1159 2488 1159 1978 
L 1159 0 
L 581 0 
L 581 3500 
L 1159 3500 
L 1159 2956 
Q 1356 3278 1631 3431 
Q 1906 3584 2284 3584 
Q 2666 3584 2933 3390 
Q 3200 3197 3328 2828 
z
" transform="scale(0.015625)"/>
       <path id="DejaVuSans-20" transform="scale(0.015625)"/>
       <path id="DejaVuSans-73" d="M 2834 3397 
L 2834 2853 
Q 2591 2978 2328 3040 
Q 2066 3103 1784 3103 
Q 1356 3103 1142 2972 
Q 928 2841 928 2578 
Q 928 2378 1081 2264 
Q 1234 2150 1697 2047 
L 1894 2003 
Q 2506 1872 2764 1633 
Q 3022 1394 3022 966 
Q 3022 478 2636 193 
Q 2250 -91 1575 -91 
Q 1294 -91 989 -36 
Q 684 19 347 128 
L 347 722 
Q 666 556 975 473 
Q 1284 391 1588 391 
Q 1994 391 2212 530 
Q 2431 669 2431 922 
Q 2431 1156 2273 1281 
Q 2116 1406 1581 1522 
L 1381 1569 
Q 847 1681 609 1914 
Q 372 2147 372 2553 
Q 372 3047 722 3315 
Q 1072 3584 1716 3584 
Q 2034 3584 2315 3537 
Q 2597 3491 2834 3397 
z
" transform="scale(0.015625)"/>
       <path id="DejaVuSans-77" d="M 269 3500 
L 844 3500 
L 1563 769 
L 2278 3500 
L 2956 3500 
L 3675 769 
L 4391 3500 
L 4966 3500 
L 4050 0 
L 3372 0 
L 2619 2869 
L 1863 0 
L 1184 0 
L 269 3500 
z
" transform="scale(0.015625)"/>
       <path id="DejaVuSans-61" d="M 2194 1759 
Q 1497 1759 1228 1600 
Q 959 1441 959 1056 
Q 959 750 1161 570 
Q 1363 391 1709 391 
Q 2188 391 2477 730 
Q 2766 1069 2766 1631 
L 2766 1759 
L 2194 1759 
z
M 3341 1997 
L 3341 0 
L 2766 0 
L 2766 531 
Q 2569 213 2275 61 
Q 1981 -91 1556 -91 
Q 1019 -91 701 211 
Q 384 513 384 1019 
Q 384 1609 779 1909 
Q 1175 2209 1959 2209 
L 2766 2209 
L 2766 2266 
Q 2766 2663 2505 2880 
Q 2244 3097 1772 3097 
Q 1472 3097 1187 3025 
Q 903 2953 641 2809 
L 641 3341 
Q 956 3463 1253 3523 
Q 1550 3584 1831 3584 
Q 2591 3584 2966 3190 
Q 3341 2797 3341 1997 
z
" transform="scale(0.015625)"/>
       <path id="DejaVuSans-70" d="M 1159 525 
L 1159 -1331 
L 581 -1331 
L 581 3500 
L 1159 3500 
L 1159 2969 
Q 1341 3281 1617 3432 
Q 1894 3584 2278 3584 
Q 2916 3584 3314 3078 
Q 3713 2572 3713 1747 
Q 3713 922 3314 415 
Q 2916 -91 2278 -91 
Q 1894 -91 1617 61 
Q 1341 213 1159 525 
z
M 3116 1747 
Q 3116 2381 2855 2742 
Q 2594 3103 2138 3103 
Q 1681 3103 1420 2742 
Q 1159 2381 1159 1747 
Q 1159 1113 1420 752 
Q 1681 391 2138 391 
Q 2594 391 2855 752 
Q 3116 1113 3116 1747 
z
" transform="scale(0.015625)"/>
      </defs>
      <use xlink:href="#DejaVuSans-6e"/>
      <use xlink:href="#DejaVuSans-75" x="63.378906"/>
      <use xlink:href="#DejaVuSans-6d" x="126.757812"/>
      <use xlink:href="#DejaVuSans-20" x="224.169922"/>
      <use xlink:href="#DejaVuSans-73" x="255.957031"/>
      <use xlink:href="#DejaVuSans-77" x="308.056641"/>
      <use xlink:href="#DejaVuSans-61" x="389.84375"/>
      <use xlink:href="#DejaVuSans-70" x="451.123047"/>
      <use xlink:href="#DejaVuSans-73" x="514.599609"/>
     </g>
    </g>
   </g>
   <g id="matplotlib.axis_2">
    <g id="ytick_1">
     <g id="line2d_6">
      <defs>
       <path id="m48c0e6c203" d="M 0 0 
L -3.5 0 
" style="stroke: #000000; stroke-width: 0.8"/>
      </defs>
      <g>
       <use xlink:href="#m48c0e6c203" x="57.6" y="298.26869" style="stroke: #000000; stroke-width: 0.8"/>
      </g>
     </g>
     <g id="text_7">
      <!-- 460 -->
      <g transform="translate(31.5125 302.067908)scale(0.1 -0.1)">
       <defs>
        <path id="DejaVuSans-34" d="M 2419 4116 
L 825 1625 
L 2419 1625 
L 2419 4116 
z
M 2253 4666 
L 3047 4666 
L 3047 1625 
L 3713 1625 
L 3713 1100 
L 3047 1100 
L 3047 0 
L 2419 0 
L 2419 1100 
L 313 1100 
L 313 1709 
L 2253 4666 
z
" transform="scale(0.015625)"/>
        <path id="DejaVuSans-36" d="M 2113 2584 
Q 1688 2584 1439 2293 
Q 1191 2003 1191 1497 
Q 1191 994 1439 701 
Q 1688 409 2113 409 
Q 2538 409 2786 701 
Q 3034 994 3034 1497 
Q 3034 2003 2786 2293 
Q 2538 2584 2113 2584 
z
M 3366 4563 
L 3366 3988 
Q 3128 4100 2886 4159 
Q 2644 4219 2406 4219 
Q 1781 4219 1451 3797 
Q 1122 3375 1075 2522 
Q 1259 2794 1537 2939 
Q 1816 3084 2150 3084 
Q 2853 3084 3261 2657 
Q 3669 2231 3669 1497 
Q 3669 778 3244 343 
Q 2819 -91 2113 -91 
Q 1303 -91 875 529 
Q 447 1150 447 2328 
Q 447 3434 972 4092 
Q 1497 4750 2381 4750 
Q 2619 4750 2861 4703 
Q 3103 4656 3366 4563 
z
" transform="scale(0.015625)"/>
       </defs>
       <use xlink:href="#DejaVuSans-34"/>
       <use xlink:href="#DejaVuSans-36" x="63.623047"/>
       <use xlink:href="#DejaVuSans-30" x="127.246094"/>
      </g>
     </g>
    </g>
    <g id="ytick_2">
     <g id="line2d_7">
      <g>
       <use xlink:href="#m48c0e6c203" x="57.6" y="242.654897" style="stroke: #000000; stroke-width: 0.8"/>
      </g>
     </g>
     <g id="text_8">
      <!-- 480 -->
      <g transform="translate(31.5125 246.454115)scale(0.1 -0.1)">
       <defs>
        <path id="DejaVuSans-38" d="M 2034 2216 
Q 1584 2216 1326 1975 
Q 1069 1734 1069 1313 
Q 1069 891 1326 650 
Q 1584 409 2034 409 
Q 2484 409 2743 651 
Q 3003 894 3003 1313 
Q 3003 1734 2745 1975 
Q 2488 2216 2034 2216 
z
M 1403 2484 
Q 997 2584 770 2862 
Q 544 3141 544 3541 
Q 544 4100 942 4425 
Q 1341 4750 2034 4750 
Q 2731 4750 3128 4425 
Q 3525 4100 3525 3541 
Q 3525 3141 3298 2862 
Q 3072 2584 2669 2484 
Q 3125 2378 3379 2068 
Q 3634 1759 3634 1313 
Q 3634 634 3220 271 
Q 2806 -91 2034 -91 
Q 1263 -91 848 271 
Q 434 634 434 1313 
Q 434 1759 690 2068 
Q 947 2378 1403 2484 
z
M 1172 3481 
Q 1172 3119 1398 2916 
Q 1625 2713 2034 2713 
Q 2441 2713 2670 2916 
Q 2900 3119 2900 3481 
Q 2900 3844 2670 4047 
Q 2441 4250 2034 4250 
Q 1625 4250 1398 4047 
Q 1172 3844 1172 3481 
z
" transform="scale(0.015625)"/>
       </defs>
       <use xlink:href="#DejaVuSans-34"/>
       <use xlink:href="#DejaVuSans-38" x="63.623047"/>
       <use xlink:href="#DejaVuSans-30" x="127.246094"/>
      </g>
     </g>
    </g>
    <g id="ytick_3">
     <g id="line2d_8">
      <g>
       <use xlink:href="#m48c0e6c203" x="57.6" y="187.041103" style="stroke: #000000; stroke-width: 0.8"/>
      </g>
     </g>
     <g id="text_9">
      <!-- 500 -->
      <g transform="translate(31.5125 190.840322)scale(0.1 -0.1)">
       <use xlink:href="#DejaVuSans-35"/>
       <use xlink:href="#DejaVuSans-30" x="63.623047"/>
       <use xlink:href="#DejaVuSans-30" x="127.246094"/>
      </g>
     </g>
    </g>
    <g id="ytick_4">
     <g id="line2d_9">
      <g>
       <use xlink:href="#m48c0e6c203" x="57.6" y="131.42731" style="stroke: #000000; stroke-width: 0.8"/>
      </g>
     </g>
     <g id="text_10">
      <!-- 520 -->
      <g transform="translate(31.5125 135.226529)scale(0.1 -0.1)">
       <use xlink:href="#DejaVuSans-35"/>
       <use xlink:href="#DejaVuSans-32" x="63.623047"/>
       <use xlink:href="#DejaVuSans-30" x="127.246094"/>
      </g>
     </g>
    </g>
    <g id="ytick_5">
     <g id="line2d_10">
      <g>
       <use xlink:href="#m48c0e6c203" x="57.6" y="75.813517" style="stroke: #000000; stroke-width: 0.8"/>
      </g>
     </g>
     <g id="text_11">
      <!-- 540 -->
      <g transform="translate(31.5125 79.612736)scale(0.1 -0.1)">
       <use xlink:href="#DejaVuSans-35"/>
       <use xlink:href="#DejaVuSans-34" x="63.623047"/>
       <use xlink:href="#DejaVuSans-30" x="127.246094"/>
      </g>
     </g>
    </g>
    <g id="text_12">
     <!-- total cost -->
     <g transform="translate(25.432812 197.923313)rotate(-90)scale(0.1 -0.1)">
      <defs>
       <path id="DejaVuSans-74" d="M 1172 4494 
L 1172 3500 
L 2356 3500 
L 2356 3053 
L 1172 3053 
L 1172 1153 
Q 1172 725 1289 603 
Q 1406 481 1766 481 
L 2356 481 
L 2356 0 
L 1766 0 
Q 1100 0 847 248 
Q 594 497 594 1153 
L 594 3053 
L 172 3053 
L 172 3500 
L 594 3500 
L 594 4494 
L 1172 4494 
z
" transform="scale(0.015625)"/>
       <path id="DejaVuSans-6f" d="M 1959 3097 
Q 1497 3097 1228 2736 
Q 959 2375 959 1747 
Q 959 1119 1226 758 
Q 1494 397 1959 397 
Q 2419 397 2687 759 
Q 2956 1122 2956 1747 
Q 2956 2369 2687 2733 
Q 2419 3097 1959 3097 
z
M 1959 3584 
Q 2709 3584 3137 3096 
Q 3566 2609 3566 1747 
Q 3566 888 3137 398 
Q 2709 -91 1959 -91 
Q 1206 -91 779 398 
Q 353 888 353 1747 
Q 353 2609 779 3096 
Q 1206 3584 1959 3584 
z
" transform="scale(0.015625)"/>
       <path id="DejaVuSans-6c" d="M 603 4863 
L 1178 4863 
L 1178 0 
L 603 0 
L 603 4863 
z
" transform="scale(0.015625)"/>
       <path id="DejaVuSans-63" d="M 3122 3366 
L 3122 2828 
Q 2878 2963 2633 3030 
Q 2388 3097 2138 3097 
Q 1578 3097 1268 2742 
Q 959 2388 959 1747 
Q 959 1106 1268 751 
Q 1578 397 2138 397 
Q 2388 397 2633 464 
Q 2878 531 3122 666 
L 3122 134 
Q 2881 22 2623 -34 
Q 2366 -91 2075 -91 
Q 1284 -91 818 406 
Q 353 903 353 1747 
Q 353 2603 823 3093 
Q 1294 3584 2113 3584 
Q 2378 3584 2631 3529 
Q 2884 3475 3122 3366 
z
" transform="scale(0.015625)"/>
      </defs>
      <use xlink:href="#DejaVuSans-74"/>
      <use xlink:href="#DejaVuSans-6f" x="39.208984"/>
      <use xlink:href="#DejaVuSans-74" x="100.390625"/>
      <use xlink:href="#DejaVuSans-61" x="139.599609"/>
      <use xlink:href="#DejaVuSans-6c" x="200.878906"/>
      <use xlink:href="#DejaVuSans-20" x="228.662109"/>
      <use xlink:href="#DejaVuSans-63" x="260.449219"/>
      <use xlink:href="#DejaVuSans-6f" x="315.429688"/>
      <use xlink:href="#DejaVuSans-73" x="376.611328"/>
      <use xlink:href="#DejaVuSans-74" x="428.710938"/>
     </g>
    </g>
   </g>
   <g id="line2d_11">
    <path d="M 73.832727 192.602483 
L 74.122339 195.383172 
L 74.41195 167.576276 
L 74.701562 162.014897 
L 74.991173 167.576276 
L 75.280785 153.672828 
L 75.570397 156.453517 
L 76.14962 184.260414 
L 76.439231 178.699034 
L 76.728843 189.821793 
L 77.018454 159.234207 
L 77.308066 173.137655 
L 77.597677 162.014897 
L 77.887289 162.014897 
L 78.1769 134.208 
L 78.466512 136.98869 
L 79.045735 164.795586 
L 79.335347 150.892138 
L 79.624958 162.014897 
L 79.91457 156.453517 
L 80.204181 162.014897 
L 80.493793 142.550069 
L 81.073016 167.576276 
L 81.362628 164.795586 
L 81.652239 217.62869 
L 81.941851 225.970759 
L 82.231462 245.435586 
L 82.521074 225.970759 
L 82.810685 167.576276 
L 83.100297 159.234207 
L 83.389908 167.576276 
L 83.67952 134.208 
L 83.969131 123.085241 
L 84.258743 117.523862 
L 84.548355 125.865931 
L 84.837966 120.304552 
L 85.127578 156.453517 
L 85.417189 128.646621 
L 85.706801 131.42731 
L 85.996412 131.42731 
L 86.286024 89.716966 
L 86.575635 92.497655 
L 86.865247 81.374897 
L 87.154858 86.936276 
L 87.44447 89.716966 
L 87.734082 100.839724 
L 88.023693 84.155586 
L 88.313305 92.497655 
L 88.602916 81.374897 
L 88.892528 92.497655 
L 89.182139 84.155586 
L 89.471751 111.962483 
L 89.761362 86.936276 
L 90.050974 86.936276 
L 90.340586 114.743172 
L 90.630197 75.813517 
L 90.919809 70.252138 
L 91.20942 86.936276 
L 91.499032 84.155586 
L 91.788643 89.716966 
L 92.078255 128.646621 
L 92.367866 128.646621 
L 92.657478 142.550069 
L 93.236701 111.962483 
L 93.526313 111.962483 
L 93.815924 128.646621 
L 94.105536 109.181793 
L 94.684759 98.059034 
L 94.97437 95.278345 
L 95.263982 86.936276 
L 95.553593 134.208 
L 95.843205 53.568 
L 96.132816 78.594207 
L 96.422428 78.594207 
L 96.71204 81.374897 
L 97.001651 117.523862 
L 97.291263 131.42731 
L 97.580874 123.085241 
L 97.870486 120.304552 
L 98.160097 114.743172 
L 98.449709 78.594207 
L 98.73932 70.252138 
L 99.028932 70.252138 
L 99.318544 75.813517 
L 99.608155 78.594207 
L 99.897767 73.032828 
L 100.187378 86.936276 
L 100.47699 86.936276 
L 100.766601 84.155586 
L 101.056213 95.278345 
L 101.635436 142.550069 
L 101.925047 134.208 
L 102.214659 114.743172 
L 102.504271 120.304552 
L 102.793882 139.769379 
L 103.083494 125.865931 
L 103.373105 139.769379 
L 103.662717 131.42731 
L 103.952328 136.98869 
L 104.24194 156.453517 
L 104.531551 150.892138 
L 104.821163 153.672828 
L 105.110774 150.892138 
L 105.400386 156.453517 
L 105.689998 142.550069 
L 105.979609 142.550069 
L 106.269221 148.111448 
L 106.558832 156.453517 
L 106.848444 175.918345 
L 107.427667 192.602483 
L 108.00689 167.576276 
L 108.296502 167.576276 
L 108.586113 178.699034 
L 108.875725 195.383172 
L 109.165336 203.725241 
L 109.454948 206.505931 
L 109.744559 195.383172 
L 110.034171 203.725241 
L 110.323782 203.725241 
L 110.613394 181.479724 
L 110.903005 173.137655 
L 111.192617 170.356966 
L 111.482229 189.821793 
L 111.77184 195.383172 
L 112.061452 203.725241 
L 112.351063 187.041103 
L 112.640675 189.821793 
L 112.930286 195.383172 
L 114.088732 162.014897 
L 114.378344 136.98869 
L 114.667956 128.646621 
L 114.957567 114.743172 
L 115.247179 106.401103 
L 115.53679 123.085241 
L 116.116013 136.98869 
L 116.405625 162.014897 
L 116.695236 162.014897 
L 116.984848 153.672828 
L 117.274459 162.014897 
L 117.564071 189.821793 
L 117.853683 184.260414 
L 118.432906 167.576276 
L 118.722517 150.892138 
L 119.012129 145.330759 
L 119.30174 148.111448 
L 119.591352 153.672828 
L 119.880963 148.111448 
L 120.170575 150.892138 
L 121.03941 125.865931 
L 121.618633 159.234207 
L 121.908244 162.014897 
L 122.197856 167.576276 
L 122.487467 162.014897 
L 122.777079 142.550069 
L 123.06669 145.330759 
L 123.356302 153.672828 
L 123.935525 206.505931 
L 124.225137 192.602483 
L 124.514748 192.602483 
L 124.80436 198.163862 
L 125.093971 200.944552 
L 125.383583 195.383172 
L 125.673194 192.602483 
L 125.962806 192.602483 
L 127.121252 162.014897 
L 127.700475 178.699034 
L 127.990087 181.479724 
L 128.279698 181.479724 
L 128.56931 187.041103 
L 128.858921 184.260414 
L 129.148533 159.234207 
L 129.438145 159.234207 
L 129.727756 178.699034 
L 130.017368 181.479724 
L 130.306979 187.041103 
L 130.596591 206.505931 
L 130.886202 209.286621 
L 131.175814 242.654897 
L 131.465425 225.970759 
L 131.755037 200.944552 
L 132.044648 250.996966 
L 132.33426 253.777655 
L 132.623872 248.216276 
L 132.913483 234.312828 
L 133.203095 234.312828 
L 133.492706 192.602483 
L 133.782318 184.260414 
L 134.071929 187.041103 
L 134.361541 234.312828 
L 135.230375 181.479724 
L 135.519987 153.672828 
L 135.809599 139.769379 
L 136.09921 142.550069 
L 136.388822 128.646621 
L 136.678433 131.42731 
L 136.968045 131.42731 
L 137.547268 117.523862 
L 137.836879 125.865931 
L 138.126491 125.865931 
L 138.416103 139.769379 
L 138.705714 134.208 
L 138.995326 139.769379 
L 139.574549 120.304552 
L 139.86416 131.42731 
L 140.153772 134.208 
L 140.443383 189.821793 
L 140.732995 189.821793 
L 141.022606 184.260414 
L 141.312218 195.383172 
L 141.60183 214.848 
L 141.891441 212.06731 
L 142.181053 206.505931 
L 142.760276 231.532138 
L 143.049887 231.532138 
L 143.339499 212.06731 
L 143.918722 225.970759 
L 144.208333 225.970759 
L 144.497945 250.996966 
L 144.787557 250.996966 
L 145.077168 242.654897 
L 145.36678 248.216276 
L 145.946003 228.751448 
L 146.235614 209.286621 
L 146.814837 184.260414 
L 147.104449 203.725241 
L 147.39406 206.505931 
L 147.683672 178.699034 
L 147.973284 175.918345 
L 148.262895 181.479724 
L 148.552507 181.479724 
L 149.13173 192.602483 
L 149.421341 200.944552 
L 149.710953 198.163862 
L 150.000564 223.190069 
L 150.290176 228.751448 
L 150.869399 234.312828 
L 151.159011 228.751448 
L 151.448622 225.970759 
L 151.738234 237.093517 
L 152.027845 231.532138 
L 152.317457 223.190069 
L 152.607068 223.190069 
L 152.89668 225.970759 
L 153.186291 206.505931 
L 153.475903 212.06731 
L 153.765515 128.646621 
L 154.055126 106.401103 
L 154.344738 125.865931 
L 154.634349 123.085241 
L 154.923961 123.085241 
L 155.213572 100.839724 
L 155.503184 103.620414 
L 155.792795 123.085241 
L 156.082407 120.304552 
L 156.372018 125.865931 
L 156.66163 139.769379 
L 156.951242 148.111448 
L 157.240853 170.356966 
L 157.530465 167.576276 
L 157.820076 189.821793 
L 158.399299 195.383172 
L 158.688911 209.286621 
L 158.978522 200.944552 
L 159.557746 164.795586 
L 159.847357 167.576276 
L 160.136969 142.550069 
L 160.42658 136.98869 
L 160.716192 117.523862 
L 161.005803 114.743172 
L 161.295415 114.743172 
L 161.585026 111.962483 
L 161.874638 125.865931 
L 162.164249 145.330759 
L 162.453861 156.453517 
L 162.743473 214.848 
L 163.033084 195.383172 
L 163.322696 203.725241 
L 163.612307 195.383172 
L 163.901919 209.286621 
L 164.19153 209.286621 
L 164.481142 195.383172 
L 164.770753 195.383172 
L 165.060365 187.041103 
L 165.349976 198.163862 
L 165.639588 200.944552 
L 165.9292 178.699034 
L 166.218811 187.041103 
L 166.508423 159.234207 
L 167.087646 148.111448 
L 167.377257 136.98869 
L 167.666869 150.892138 
L 167.95648 134.208 
L 168.246092 153.672828 
L 168.535704 156.453517 
L 168.825315 164.795586 
L 169.114927 153.672828 
L 169.404538 164.795586 
L 169.69415 148.111448 
L 169.983761 142.550069 
L 170.273373 156.453517 
L 170.562984 148.111448 
L 170.852596 178.699034 
L 171.142207 178.699034 
L 171.721431 159.234207 
L 172.011042 148.111448 
L 172.300654 150.892138 
L 172.590265 164.795586 
L 172.879877 164.795586 
L 173.169488 173.137655 
L 173.4591 131.42731 
L 174.038323 136.98869 
L 174.327934 136.98869 
L 174.907158 148.111448 
L 175.196769 145.330759 
L 175.486381 150.892138 
L 175.775992 167.576276 
L 176.065604 170.356966 
L 176.355215 206.505931 
L 176.644827 156.453517 
L 176.934438 125.865931 
L 177.22405 142.550069 
L 177.513662 123.085241 
L 177.803273 125.865931 
L 178.092885 120.304552 
L 178.382496 120.304552 
L 178.672108 128.646621 
L 178.961719 162.014897 
L 179.540942 156.453517 
L 179.830554 170.356966 
L 180.120165 162.014897 
L 180.409777 173.137655 
L 180.989 200.944552 
L 181.278612 195.383172 
L 181.568223 198.163862 
L 181.857835 173.137655 
L 182.147446 167.576276 
L 182.437058 173.137655 
L 182.726669 189.821793 
L 183.016281 189.821793 
L 183.305892 175.918345 
L 183.595504 239.874207 
L 183.885116 262.119724 
L 184.174727 250.996966 
L 184.464339 225.970759 
L 184.75395 212.06731 
L 185.043562 184.260414 
L 185.333173 192.602483 
L 185.622785 173.137655 
L 185.912396 178.699034 
L 186.202008 178.699034 
L 186.781231 209.286621 
L 187.360454 167.576276 
L 187.650066 167.576276 
L 187.939677 164.795586 
L 188.229289 181.479724 
L 188.5189 170.356966 
L 188.808512 181.479724 
L 189.098123 175.918345 
L 189.387735 150.892138 
L 189.677347 142.550069 
L 189.966958 114.743172 
L 190.25657 114.743172 
L 190.546181 117.523862 
L 190.835793 136.98869 
L 191.125404 125.865931 
L 191.415016 131.42731 
L 191.704627 156.453517 
L 191.994239 153.672828 
L 192.28385 178.699034 
L 192.573462 173.137655 
L 192.863074 181.479724 
L 193.152685 184.260414 
L 193.442297 214.848 
L 194.02152 178.699034 
L 194.311131 173.137655 
L 194.890354 150.892138 
L 195.179966 148.111448 
L 195.469577 150.892138 
L 196.048801 123.085241 
L 196.338412 120.304552 
L 196.628024 109.181793 
L 196.917635 114.743172 
L 197.496858 100.839724 
L 197.78647 106.401103 
L 198.076081 98.059034 
L 198.365693 100.839724 
L 198.655305 95.278345 
L 198.944916 86.936276 
L 199.234528 86.936276 
L 199.524139 109.181793 
L 200.103362 109.181793 
L 200.392974 106.401103 
L 200.682585 117.523862 
L 200.972197 111.962483 
L 201.261808 98.059034 
L 201.55142 111.962483 
L 201.841032 98.059034 
L 202.420255 78.594207 
L 202.709866 86.936276 
L 202.999478 81.374897 
L 203.289089 81.374897 
L 203.578701 86.936276 
L 203.868312 70.252138 
L 204.157924 100.839724 
L 204.447535 95.278345 
L 204.737147 106.401103 
L 205.026759 106.401103 
L 205.605982 89.716966 
L 205.895593 103.620414 
L 206.185205 109.181793 
L 206.474816 81.374897 
L 206.764428 75.813517 
L 207.343651 136.98869 
L 207.633263 145.330759 
L 207.922874 167.576276 
L 208.212486 178.699034 
L 208.502097 167.576276 
L 208.791709 167.576276 
L 209.08132 175.918345 
L 209.660543 162.014897 
L 209.950155 167.576276 
L 210.239766 187.041103 
L 210.529378 198.163862 
L 210.81899 181.479724 
L 211.108601 184.260414 
L 211.687824 214.848 
L 211.977436 245.435586 
L 212.556659 195.383172 
L 212.84627 198.163862 
L 213.135882 148.111448 
L 213.425493 148.111448 
L 213.715105 136.98869 
L 214.004717 120.304552 
L 214.294328 134.208 
L 215.163163 111.962483 
L 215.452774 95.278345 
L 216.031997 131.42731 
L 216.321609 128.646621 
L 216.900832 106.401103 
L 217.480055 150.892138 
L 217.769667 159.234207 
L 218.34889 153.672828 
L 218.638501 162.014897 
L 218.928113 159.234207 
L 219.217724 153.672828 
L 219.507336 123.085241 
L 219.796948 150.892138 
L 220.086559 145.330759 
L 220.376171 212.06731 
L 220.665782 217.62869 
L 220.955394 234.312828 
L 221.245005 237.093517 
L 221.534617 223.190069 
L 221.824228 223.190069 
L 222.11384 217.62869 
L 222.403451 203.725241 
L 222.693063 212.06731 
L 222.982675 187.041103 
L 223.272286 189.821793 
L 223.561898 195.383172 
L 223.851509 150.892138 
L 224.141121 125.865931 
L 224.720344 164.795586 
L 225.009955 156.453517 
L 225.299567 153.672828 
L 225.589178 128.646621 
L 225.87879 128.646621 
L 226.168402 136.98869 
L 226.458013 167.576276 
L 227.037236 173.137655 
L 227.616459 192.602483 
L 227.906071 173.137655 
L 228.195682 175.918345 
L 228.485294 181.479724 
L 228.774906 175.918345 
L 229.064517 173.137655 
L 229.354129 173.137655 
L 229.933352 145.330759 
L 230.222963 111.962483 
L 230.512575 128.646621 
L 230.802186 123.085241 
L 231.091798 123.085241 
L 231.381409 111.962483 
L 231.671021 111.962483 
L 231.960633 92.497655 
L 232.250244 81.374897 
L 232.539856 111.962483 
L 232.829467 184.260414 
L 233.119079 184.260414 
L 233.40869 195.383172 
L 233.698302 195.383172 
L 233.987913 173.137655 
L 234.567136 195.383172 
L 235.14636 223.190069 
L 235.725583 242.654897 
L 236.015194 239.874207 
L 236.304806 223.190069 
L 236.884029 245.435586 
L 237.17364 234.312828 
L 237.463252 231.532138 
L 237.752864 248.216276 
L 238.042475 245.435586 
L 238.332087 228.751448 
L 238.621698 228.751448 
L 238.91131 231.532138 
L 239.200921 178.699034 
L 239.490533 184.260414 
L 239.780144 192.602483 
L 240.069756 181.479724 
L 240.648979 187.041103 
L 240.938591 195.383172 
L 241.228202 195.383172 
L 241.517814 184.260414 
L 241.807425 181.479724 
L 242.386648 203.725241 
L 242.67626 203.725241 
L 242.965871 198.163862 
L 243.255483 198.163862 
L 243.545094 184.260414 
L 243.834706 225.970759 
L 244.124318 217.62869 
L 244.413929 214.848 
L 244.703541 206.505931 
L 245.282764 206.505931 
L 245.572375 245.435586 
L 245.861987 231.532138 
L 246.151598 228.751448 
L 246.44121 237.093517 
L 247.020433 217.62869 
L 247.310045 223.190069 
L 247.599656 212.06731 
L 247.889268 220.409379 
L 248.468491 206.505931 
L 248.758102 189.821793 
L 249.047714 195.383172 
L 249.337325 209.286621 
L 249.626937 159.234207 
L 250.20616 139.769379 
L 250.495772 145.330759 
L 250.785383 142.550069 
L 251.074995 148.111448 
L 251.364606 145.330759 
L 251.654218 170.356966 
L 252.233441 145.330759 
L 252.523052 164.795586 
L 253.102276 120.304552 
L 253.391887 109.181793 
L 253.681499 106.401103 
L 253.97111 128.646621 
L 254.260722 134.208 
L 254.550333 162.014897 
L 254.839945 167.576276 
L 255.129556 170.356966 
L 255.419168 181.479724 
L 255.708779 170.356966 
L 255.998391 164.795586 
L 256.288003 187.041103 
L 256.577614 184.260414 
L 257.156837 173.137655 
L 257.446449 114.743172 
L 257.73606 100.839724 
L 258.315283 136.98869 
L 258.604895 131.42731 
L 259.184118 125.865931 
L 259.47373 142.550069 
L 259.763341 139.769379 
L 260.052953 178.699034 
L 260.632176 184.260414 
L 260.921787 178.699034 
L 261.50101 212.06731 
L 261.790622 206.505931 
L 262.080234 192.602483 
L 262.659457 206.505931 
L 262.949068 209.286621 
L 263.528291 203.725241 
L 264.107514 223.190069 
L 264.397126 220.409379 
L 264.686737 220.409379 
L 264.976349 225.970759 
L 265.555572 195.383172 
L 265.845184 189.821793 
L 266.134795 170.356966 
L 266.424407 184.260414 
L 266.714018 259.339034 
L 267.00363 228.751448 
L 267.582853 203.725241 
L 268.451688 156.453517 
L 268.741299 153.672828 
L 269.030911 145.330759 
L 269.320522 142.550069 
L 269.610134 150.892138 
L 269.899745 167.576276 
L 270.189357 175.918345 
L 270.478968 173.137655 
L 270.76858 148.111448 
L 271.058192 145.330759 
L 271.347803 145.330759 
L 271.637415 134.208 
L 271.927026 148.111448 
L 272.216638 142.550069 
L 272.506249 159.234207 
L 272.795861 136.98869 
L 273.085472 134.208 
L 273.375084 136.98869 
L 273.664695 125.865931 
L 273.954307 131.42731 
L 274.243919 148.111448 
L 274.53353 139.769379 
L 274.823142 142.550069 
L 275.402365 192.602483 
L 275.691976 195.383172 
L 275.981588 181.479724 
L 276.850423 220.409379 
L 277.140034 217.62869 
L 278.008869 184.260414 
L 278.29848 195.383172 
L 278.877703 189.821793 
L 279.167315 200.944552 
L 279.746538 187.041103 
L 280.03615 214.848 
L 280.325761 223.190069 
L 280.615373 225.970759 
L 280.904984 223.190069 
L 281.194596 228.751448 
L 281.484207 237.093517 
L 281.773819 234.312828 
L 282.06343 245.435586 
L 282.353042 209.286621 
L 282.642653 203.725241 
L 282.932265 195.383172 
L 283.221877 214.848 
L 283.511488 214.848 
L 283.8011 212.06731 
L 284.090711 203.725241 
L 284.380323 206.505931 
L 284.669934 217.62869 
L 284.959546 214.848 
L 285.538769 187.041103 
L 285.828381 192.602483 
L 286.117992 200.944552 
L 286.407604 187.041103 
L 286.986827 206.505931 
L 287.56605 200.944552 
L 287.855661 214.848 
L 288.724496 206.505931 
L 289.014108 198.163862 
L 289.303719 206.505931 
L 289.593331 189.821793 
L 289.882942 192.602483 
L 290.172554 189.821793 
L 290.462165 209.286621 
L 290.751777 214.848 
L 291.041388 225.970759 
L 291.331 223.190069 
L 291.620611 237.093517 
L 291.910223 256.558345 
L 292.199835 242.654897 
L 292.489446 242.654897 
L 292.779058 250.996966 
L 293.068669 239.874207 
L 293.358281 239.874207 
L 293.647892 225.970759 
L 293.937504 178.699034 
L 294.227115 184.260414 
L 294.516727 187.041103 
L 294.806338 184.260414 
L 295.09595 178.699034 
L 295.675173 162.014897 
L 295.964785 162.014897 
L 296.254396 175.918345 
L 296.544008 173.137655 
L 296.833619 178.699034 
L 297.412842 173.137655 
L 297.702454 175.918345 
L 298.281677 120.304552 
L 298.571289 120.304552 
L 298.8609 128.646621 
L 299.440123 117.523862 
L 299.729735 117.523862 
L 300.019346 131.42731 
L 300.308958 131.42731 
L 300.598569 100.839724 
L 301.177793 120.304552 
L 301.467404 98.059034 
L 301.757016 109.181793 
L 302.046627 131.42731 
L 302.336239 142.550069 
L 302.915462 128.646621 
L 303.784296 145.330759 
L 304.073908 134.208 
L 304.36352 114.743172 
L 304.653131 134.208 
L 304.942743 164.795586 
L 305.232354 181.479724 
L 305.521966 170.356966 
L 305.811577 167.576276 
L 306.3908 198.163862 
L 306.680412 203.725241 
L 306.970024 189.821793 
L 307.259635 192.602483 
L 307.549247 181.479724 
L 307.838858 178.699034 
L 308.418081 195.383172 
L 308.707693 189.821793 
L 308.997304 175.918345 
L 309.576527 209.286621 
L 309.866139 206.505931 
L 310.155751 198.163862 
L 310.445362 195.383172 
L 310.734974 203.725241 
L 311.024585 206.505931 
L 311.314197 195.383172 
L 311.603808 200.944552 
L 311.89342 214.848 
L 312.183031 223.190069 
L 312.472643 209.286621 
L 313.341478 192.602483 
L 313.631089 217.62869 
L 313.920701 209.286621 
L 314.210312 239.874207 
L 314.499924 245.435586 
L 314.789535 242.654897 
L 315.079147 245.435586 
L 315.368758 223.190069 
L 316.237593 248.216276 
L 316.527205 220.409379 
L 316.816816 209.286621 
L 317.106428 217.62869 
L 317.685651 167.576276 
L 317.975262 175.918345 
L 318.264874 203.725241 
L 318.844097 228.751448 
L 319.712932 178.699034 
L 320.002543 184.260414 
L 320.292155 175.918345 
L 320.581766 187.041103 
L 320.871378 181.479724 
L 321.160989 178.699034 
L 321.450601 181.479724 
L 321.740212 178.699034 
L 322.029824 173.137655 
L 322.319436 173.137655 
L 322.609047 189.821793 
L 322.898659 189.821793 
L 323.18827 212.06731 
L 323.477882 164.795586 
L 324.057105 134.208 
L 324.346716 111.962483 
L 324.636328 114.743172 
L 324.92594 114.743172 
L 325.215551 98.059034 
L 325.505163 123.085241 
L 325.794774 128.646621 
L 326.084386 125.865931 
L 326.663609 145.330759 
L 326.95322 181.479724 
L 327.242832 159.234207 
L 327.532443 153.672828 
L 327.822055 153.672828 
L 328.111667 164.795586 
L 328.401278 167.576276 
L 328.69089 164.795586 
L 328.980501 170.356966 
L 329.270113 167.576276 
L 329.559724 178.699034 
L 330.138947 164.795586 
L 330.428559 167.576276 
L 330.71817 181.479724 
L 331.007782 184.260414 
L 331.297394 209.286621 
L 331.587005 212.06731 
L 331.876617 203.725241 
L 332.166228 223.190069 
L 332.45584 209.286621 
L 332.745451 209.286621 
L 333.035063 212.06731 
L 333.324674 223.190069 
L 333.614286 206.505931 
L 333.903897 231.532138 
L 334.193509 212.06731 
L 334.483121 225.970759 
L 334.772732 223.190069 
L 335.062344 239.874207 
L 335.351955 237.093517 
L 335.641567 225.970759 
L 335.931178 223.190069 
L 336.22079 206.505931 
L 336.510401 142.550069 
L 336.800013 145.330759 
L 337.089625 150.892138 
L 337.379236 164.795586 
L 338.248071 187.041103 
L 338.537682 173.137655 
L 339.116905 184.260414 
L 339.406517 175.918345 
L 339.696128 175.918345 
L 339.98574 189.821793 
L 340.564963 200.944552 
L 340.854575 203.725241 
L 341.144186 214.848 
L 341.433798 231.532138 
L 341.723409 237.093517 
L 342.013021 228.751448 
L 342.302632 212.06731 
L 342.592244 214.848 
L 342.881855 200.944552 
L 343.171467 192.602483 
L 343.461079 192.602483 
L 343.75069 198.163862 
L 344.040302 200.944552 
L 344.619525 178.699034 
L 344.909136 181.479724 
L 345.198748 173.137655 
L 345.488359 181.479724 
L 345.777971 173.137655 
L 346.067583 178.699034 
L 346.646806 167.576276 
L 346.936417 164.795586 
L 347.226029 175.918345 
L 347.51564 181.479724 
L 347.805252 181.479724 
L 348.094863 167.576276 
L 348.384475 167.576276 
L 348.674086 150.892138 
L 348.963698 150.892138 
L 349.25331 128.646621 
L 349.542921 139.769379 
L 349.832533 145.330759 
L 350.122144 148.111448 
L 350.411756 148.111448 
L 350.701367 167.576276 
L 350.990979 170.356966 
L 351.28059 153.672828 
L 351.570202 162.014897 
L 351.859813 150.892138 
L 352.149425 153.672828 
L 352.439037 164.795586 
L 352.728648 184.260414 
L 353.01826 189.821793 
L 353.307871 203.725241 
L 353.597483 203.725241 
L 353.887094 195.383172 
L 354.176706 181.479724 
L 354.466317 175.918345 
L 355.045541 175.918345 
L 355.335152 184.260414 
L 355.624764 206.505931 
L 356.203987 184.260414 
L 356.493598 184.260414 
L 356.78321 231.532138 
L 357.072821 231.532138 
L 357.362433 239.874207 
L 357.652044 203.725241 
L 357.941656 209.286621 
L 358.231268 237.093517 
L 358.520879 223.190069 
L 358.810491 225.970759 
L 359.100102 231.532138 
L 359.389714 212.06731 
L 359.679325 209.286621 
L 359.968937 203.725241 
L 360.54816 209.286621 
L 360.837771 206.505931 
L 361.127383 212.06731 
L 361.416995 237.093517 
L 361.706606 214.848 
L 362.285829 237.093517 
L 362.575441 234.312828 
L 362.865052 217.62869 
L 364.023498 253.777655 
L 364.31311 267.681103 
L 364.602722 256.558345 
L 364.892333 253.777655 
L 365.471556 234.312828 
L 365.761168 220.409379 
L 366.340391 248.216276 
L 366.630002 248.216276 
L 366.919614 242.654897 
L 367.209226 225.970759 
L 367.498837 239.874207 
L 367.788449 245.435586 
L 368.07806 253.777655 
L 368.367672 237.093517 
L 368.657283 209.286621 
L 368.946895 206.505931 
L 369.236506 195.383172 
L 369.526118 195.383172 
L 369.815729 209.286621 
L 370.105341 206.505931 
L 370.394953 259.339034 
L 370.684564 264.900414 
L 370.974176 264.900414 
L 371.263787 267.681103 
L 371.553399 273.242483 
L 371.84301 276.023172 
L 372.132622 253.777655 
L 372.422233 250.996966 
L 372.711845 256.558345 
L 373.001456 256.558345 
L 373.291068 262.119724 
L 373.58068 253.777655 
L 373.870291 253.777655 
L 374.159903 264.900414 
L 374.449514 267.681103 
L 374.739126 264.900414 
L 375.028737 264.900414 
L 375.318349 245.435586 
L 376.187184 237.093517 
L 376.476795 242.654897 
L 376.766407 250.996966 
L 377.056018 203.725241 
L 377.34563 206.505931 
L 377.635241 206.505931 
L 377.924853 209.286621 
L 378.214464 239.874207 
L 378.504076 234.312828 
L 378.793687 248.216276 
L 379.083299 253.777655 
L 379.372911 237.093517 
L 379.662522 242.654897 
L 379.952134 245.435586 
L 380.241745 250.996966 
L 380.531357 245.435586 
L 380.820968 242.654897 
L 381.11058 234.312828 
L 381.400191 242.654897 
L 381.689803 273.242483 
L 381.979414 278.803862 
L 382.269026 250.996966 
L 382.558638 245.435586 
L 382.848249 228.751448 
L 383.137861 234.312828 
L 383.427472 231.532138 
L 383.717084 292.70731 
L 384.006695 295.488 
L 384.296307 264.900414 
L 384.585918 267.681103 
L 384.87553 262.119724 
L 385.165142 250.996966 
L 385.454753 245.435586 
L 385.744365 228.751448 
L 386.033976 231.532138 
L 386.323588 248.216276 
L 386.613199 231.532138 
L 386.902811 237.093517 
L 387.192422 225.970759 
L 387.482034 234.312828 
L 387.771645 220.409379 
L 388.061257 212.06731 
L 388.350869 220.409379 
L 388.930092 225.970759 
L 389.219703 225.970759 
L 389.509315 270.461793 
L 389.798926 256.558345 
L 390.088538 267.681103 
L 390.378149 264.900414 
L 390.667761 239.874207 
L 390.957372 231.532138 
L 391.246984 259.339034 
L 391.826207 192.602483 
L 392.115819 228.751448 
L 392.40543 231.532138 
L 392.695042 231.532138 
L 392.984653 253.777655 
L 393.274265 250.996966 
L 393.563876 228.751448 
L 393.853488 225.970759 
L 394.1431 234.312828 
L 394.432711 228.751448 
L 394.722323 192.602483 
L 395.011934 187.041103 
L 395.301546 195.383172 
L 395.880769 175.918345 
L 396.17038 178.699034 
L 396.459992 195.383172 
L 396.749603 200.944552 
L 397.039215 225.970759 
L 397.328827 220.409379 
L 397.618438 212.06731 
L 397.90805 209.286621 
L 398.197661 225.970759 
L 398.487273 212.06731 
L 398.487273 212.06731 
" clip-path="url(#pf64dd0ce46)" style="fill: none; stroke: #1f77b4; stroke-width: 1.5; stroke-linecap: square"/>
   </g>
   <g id="patch_3">
    <path d="M 57.6 307.584 
L 57.6 41.472 
" style="fill: none; stroke: #000000; stroke-width: 0.8; stroke-linejoin: miter; stroke-linecap: square"/>
   </g>
   <g id="patch_4">
    <path d="M 414.72 307.584 
L 414.72 41.472 
" style="fill: none; stroke: #000000; stroke-width: 0.8; stroke-linejoin: miter; stroke-linecap: square"/>
   </g>
   <g id="patch_5">
    <path d="M 57.6 307.584 
L 414.72 307.584 
" style="fill: none; stroke: #000000; stroke-width: 0.8; stroke-linejoin: miter; stroke-linecap: square"/>
   </g>
   <g id="patch_6">
    <path d="M 57.6 41.472 
L 414.72 41.472 
" style="fill: none; stroke: #000000; stroke-width: 0.8; stroke-linejoin: miter; stroke-linecap: square"/>
   </g>
   <g id="text_13">
    <!-- Simulated Anealling Cost -->
    <g transform="translate(160.8 35.472)scale(0.12 -0.12)">
     <defs>
      <path id="DejaVuSans-53" d="M 3425 4513 
L 3425 3897 
Q 3066 4069 2747 4153 
Q 2428 4238 2131 4238 
Q 1616 4238 1336 4038 
Q 1056 3838 1056 3469 
Q 1056 3159 1242 3001 
Q 1428 2844 1947 2747 
L 2328 2669 
Q 3034 2534 3370 2195 
Q 3706 1856 3706 1288 
Q 3706 609 3251 259 
Q 2797 -91 1919 -91 
Q 1588 -91 1214 -16 
Q 841 59 441 206 
L 441 856 
Q 825 641 1194 531 
Q 1563 422 1919 422 
Q 2459 422 2753 634 
Q 3047 847 3047 1241 
Q 3047 1584 2836 1778 
Q 2625 1972 2144 2069 
L 1759 2144 
Q 1053 2284 737 2584 
Q 422 2884 422 3419 
Q 422 4038 858 4394 
Q 1294 4750 2059 4750 
Q 2388 4750 2728 4690 
Q 3069 4631 3425 4513 
z
" transform="scale(0.015625)"/>
      <path id="DejaVuSans-69" d="M 603 3500 
L 1178 3500 
L 1178 0 
L 603 0 
L 603 3500 
z
M 603 4863 
L 1178 4863 
L 1178 4134 
L 603 4134 
L 603 4863 
z
" transform="scale(0.015625)"/>
      <path id="DejaVuSans-65" d="M 3597 1894 
L 3597 1613 
L 953 1613 
Q 991 1019 1311 708 
Q 1631 397 2203 397 
Q 2534 397 2845 478 
Q 3156 559 3463 722 
L 3463 178 
Q 3153 47 2828 -22 
Q 2503 -91 2169 -91 
Q 1331 -91 842 396 
Q 353 884 353 1716 
Q 353 2575 817 3079 
Q 1281 3584 2069 3584 
Q 2775 3584 3186 3129 
Q 3597 2675 3597 1894 
z
M 3022 2063 
Q 3016 2534 2758 2815 
Q 2500 3097 2075 3097 
Q 1594 3097 1305 2825 
Q 1016 2553 972 2059 
L 3022 2063 
z
" transform="scale(0.015625)"/>
      <path id="DejaVuSans-64" d="M 2906 2969 
L 2906 4863 
L 3481 4863 
L 3481 0 
L 2906 0 
L 2906 525 
Q 2725 213 2448 61 
Q 2172 -91 1784 -91 
Q 1150 -91 751 415 
Q 353 922 353 1747 
Q 353 2572 751 3078 
Q 1150 3584 1784 3584 
Q 2172 3584 2448 3432 
Q 2725 3281 2906 2969 
z
M 947 1747 
Q 947 1113 1208 752 
Q 1469 391 1925 391 
Q 2381 391 2643 752 
Q 2906 1113 2906 1747 
Q 2906 2381 2643 2742 
Q 2381 3103 1925 3103 
Q 1469 3103 1208 2742 
Q 947 2381 947 1747 
z
" transform="scale(0.015625)"/>
      <path id="DejaVuSans-41" d="M 2188 4044 
L 1331 1722 
L 3047 1722 
L 2188 4044 
z
M 1831 4666 
L 2547 4666 
L 4325 0 
L 3669 0 
L 3244 1197 
L 1141 1197 
L 716 0 
L 50 0 
L 1831 4666 
z
" transform="scale(0.015625)"/>
      <path id="DejaVuSans-67" d="M 2906 1791 
Q 2906 2416 2648 2759 
Q 2391 3103 1925 3103 
Q 1463 3103 1205 2759 
Q 947 2416 947 1791 
Q 947 1169 1205 825 
Q 1463 481 1925 481 
Q 2391 481 2648 825 
Q 2906 1169 2906 1791 
z
M 3481 434 
Q 3481 -459 3084 -895 
Q 2688 -1331 1869 -1331 
Q 1566 -1331 1297 -1286 
Q 1028 -1241 775 -1147 
L 775 -588 
Q 1028 -725 1275 -790 
Q 1522 -856 1778 -856 
Q 2344 -856 2625 -561 
Q 2906 -266 2906 331 
L 2906 616 
Q 2728 306 2450 153 
Q 2172 0 1784 0 
Q 1141 0 747 490 
Q 353 981 353 1791 
Q 353 2603 747 3093 
Q 1141 3584 1784 3584 
Q 2172 3584 2450 3431 
Q 2728 3278 2906 2969 
L 2906 3500 
L 3481 3500 
L 3481 434 
z
" transform="scale(0.015625)"/>
      <path id="DejaVuSans-43" d="M 4122 4306 
L 4122 3641 
Q 3803 3938 3442 4084 
Q 3081 4231 2675 4231 
Q 1875 4231 1450 3742 
Q 1025 3253 1025 2328 
Q 1025 1406 1450 917 
Q 1875 428 2675 428 
Q 3081 428 3442 575 
Q 3803 722 4122 1019 
L 4122 359 
Q 3791 134 3420 21 
Q 3050 -91 2638 -91 
Q 1578 -91 968 557 
Q 359 1206 359 2328 
Q 359 3453 968 4101 
Q 1578 4750 2638 4750 
Q 3056 4750 3426 4639 
Q 3797 4528 4122 4306 
z
" transform="scale(0.015625)"/>
     </defs>
     <use xlink:href="#DejaVuSans-53"/>
     <use xlink:href="#DejaVuSans-69" x="63.476562"/>
     <use xlink:href="#DejaVuSans-6d" x="91.259766"/>
     <use xlink:href="#DejaVuSans-75" x="188.671875"/>
     <use xlink:href="#DejaVuSans-6c" x="252.050781"/>
     <use xlink:href="#DejaVuSans-61" x="279.833984"/>
     <use xlink:href="#DejaVuSans-74" x="341.113281"/>
     <use xlink:href="#DejaVuSans-65" x="380.322266"/>
     <use xlink:href="#DejaVuSans-64" x="441.845703"/>
     <use xlink:href="#DejaVuSans-20" x="505.322266"/>
     <use xlink:href="#DejaVuSans-41" x="537.109375"/>
     <use xlink:href="#DejaVuSans-6e" x="605.517578"/>
     <use xlink:href="#DejaVuSans-65" x="668.896484"/>
     <use xlink:href="#DejaVuSans-61" x="730.419922"/>
     <use xlink:href="#DejaVuSans-6c" x="791.699219"/>
     <use xlink:href="#DejaVuSans-6c" x="819.482422"/>
     <use xlink:href="#DejaVuSans-69" x="847.265625"/>
     <use xlink:href="#DejaVuSans-6e" x="875.048828"/>
     <use xlink:href="#DejaVuSans-67" x="938.427734"/>
     <use xlink:href="#DejaVuSans-20" x="1001.904297"/>
     <use xlink:href="#DejaVuSans-43" x="1033.691406"/>
     <use xlink:href="#DejaVuSans-6f" x="1103.515625"/>
     <use xlink:href="#DejaVuSans-73" x="1164.697266"/>
     <use xlink:href="#DejaVuSans-74" x="1216.796875"/>
    </g>
   </g>
  </g>
 </g>
 <defs>
  <clipPath id="pf64dd0ce46">
   <rect x="57.6" y="41.472" width="357.12" height="266.112"/>
  </clipPath>
 </defs>
</svg>
