<?xml version="1.0" encoding="utf-8" standalone="no"?>
<!DOCTYPE svg PUBLIC "-//W3C//DTD SVG 1.1//EN"
  "http://www.w3.org/Graphics/SVG/1.1/DTD/svg11.dtd">
<svg xmlns:xlink="http://www.w3.org/1999/xlink" width="460.8pt" height="345.6pt" viewBox="0 0 460.8 345.6" xmlns="http://www.w3.org/2000/svg" version="1.1">
 <metadata>
  <rdf:RDF xmlns:dc="http://purl.org/dc/elements/1.1/" xmlns:cc="http://creativecommons.org/ns#" xmlns:rdf="http://www.w3.org/1999/02/22-rdf-syntax-ns#">
   <cc:Work>
    <dc:type rdf:resource="http://purl.org/dc/dcmitype/StillImage"/>
    <dc:date>2022-06-01T08:06:01.253894</dc:date>
    <dc:format>image/svg+xml</dc:format>
    <dc:creator>
     <cc:Agent>
      <dc:title>Matplotlib v3.5.1, https://matplotlib.org/</dc:title>
     </cc:Agent>
    </dc:creator>
   </cc:Work>
  </rdf:RDF>
 </metadata>
 <defs>
  <style type="text/css">*{stroke-linejoin: round; stroke-linecap: butt}</style>
 </defs>
 <g id="figure_1">
  <g id="patch_1">
   <path d="M 0 345.6 
L 460.8 345.6 
L 460.8 0 
L 0 0 
z
" style="fill: #ffffff"/>
  </g>
  <g id="axes_1">
   <g id="patch_2">
    <path d="M 57.6 307.584 
L 414.72 307.584 
L 414.72 41.472 
L 57.6 41.472 
z
" style="fill: #ffffff"/>
   </g>
   <g id="matplotlib.axis_1">
    <g id="xtick_1">
     <g id="line2d_1">
      <defs>
       <path id="m5616a06ab4" d="M 0 0 
L 0 3.5 
" style="stroke: #000000; stroke-width: 0.8"/>
      </defs>
      <g>
       <use xlink:href="#m5616a06ab4" x="73.832727" y="307.584" style="stroke: #000000; stroke-width: 0.8"/>
      </g>
     </g>
     <g id="text_1">
      <!-- 0 -->
      <g transform="translate(70.651477 322.182437)scale(0.1 -0.1)">
       <defs>
        <path id="DejaVuSans-30" d="M 2034 4250 
Q 1547 4250 1301 3770 
Q 1056 3291 1056 2328 
Q 1056 1369 1301 889 
Q 1547 409 2034 409 
Q 2525 409 2770 889 
Q 3016 1369 3016 2328 
Q 3016 3291 2770 3770 
Q 2525 4250 2034 4250 
z
M 2034 4750 
Q 2819 4750 3233 4129 
Q 3647 3509 3647 2328 
Q 3647 1150 3233 529 
Q 2819 -91 2034 -91 
Q 1250 -91 836 529 
Q 422 1150 422 2328 
Q 422 3509 836 4129 
Q 1250 4750 2034 4750 
z
" transform="scale(0.015625)"/>
       </defs>
       <use xlink:href="#DejaVuSans-30"/>
      </g>
     </g>
    </g>
    <g id="xtick_2">
     <g id="line2d_2">
      <g>
       <use xlink:href="#m5616a06ab4" x="149.053892" y="307.584" style="stroke: #000000; stroke-width: 0.8"/>
      </g>
     </g>
     <g id="text_2">
      <!-- 500 -->
      <g transform="translate(139.510142 322.182437)scale(0.1 -0.1)">
       <defs>
        <path id="DejaVuSans-35" d="M 691 4666 
L 3169 4666 
L 3169 4134 
L 1269 4134 
L 1269 2991 
Q 1406 3038 1543 3061 
Q 1681 3084 1819 3084 
Q 2600 3084 3056 2656 
Q 3513 2228 3513 1497 
Q 3513 744 3044 326 
Q 2575 -91 1722 -91 
Q 1428 -91 1123 -41 
Q 819 9 494 109 
L 494 744 
Q 775 591 1075 516 
Q 1375 441 1709 441 
Q 2250 441 2565 725 
Q 2881 1009 2881 1497 
Q 2881 1984 2565 2268 
Q 2250 2553 1709 2553 
Q 1456 2553 1204 2497 
Q 953 2441 691 2322 
L 691 4666 
z
" transform="scale(0.015625)"/>
       </defs>
       <use xlink:href="#DejaVuSans-35"/>
       <use xlink:href="#DejaVuSans-30" x="63.623047"/>
       <use xlink:href="#DejaVuSans-30" x="127.246094"/>
      </g>
     </g>
    </g>
    <g id="xtick_3">
     <g id="line2d_3">
      <g>
       <use xlink:href="#m5616a06ab4" x="224.275056" y="307.584" style="stroke: #000000; stroke-width: 0.8"/>
      </g>
     </g>
     <g id="text_3">
      <!-- 1000 -->
      <g transform="translate(211.550056 322.182437)scale(0.1 -0.1)">
       <defs>
        <path id="DejaVuSans-31" d="M 794 531 
L 1825 531 
L 1825 4091 
L 703 3866 
L 703 4441 
L 1819 4666 
L 2450 4666 
L 2450 531 
L 3481 531 
L 3481 0 
L 794 0 
L 794 531 
z
" transform="scale(0.015625)"/>
       </defs>
       <use xlink:href="#DejaVuSans-31"/>
       <use xlink:href="#DejaVuSans-30" x="63.623047"/>
       <use xlink:href="#DejaVuSans-30" x="127.246094"/>
       <use xlink:href="#DejaVuSans-30" x="190.869141"/>
      </g>
     </g>
    </g>
    <g id="xtick_4">
     <g id="line2d_4">
      <g>
       <use xlink:href="#m5616a06ab4" x="299.49622" y="307.584" style="stroke: #000000; stroke-width: 0.8"/>
      </g>
     </g>
     <g id="text_4">
      <!-- 1500 -->
      <g transform="translate(286.77122 322.182437)scale(0.1 -0.1)">
       <use xlink:href="#DejaVuSans-31"/>
       <use xlink:href="#DejaVuSans-35" x="63.623047"/>
       <use xlink:href="#DejaVuSans-30" x="127.246094"/>
       <use xlink:href="#DejaVuSans-30" x="190.869141"/>
      </g>
     </g>
    </g>
    <g id="xtick_5">
     <g id="line2d_5">
      <g>
       <use xlink:href="#m5616a06ab4" x="374.717385" y="307.584" style="stroke: #000000; stroke-width: 0.8"/>
      </g>
     </g>
     <g id="text_5">
      <!-- 2000 -->
      <g transform="translate(361.992385 322.182437)scale(0.1 -0.1)">
       <defs>
        <path id="DejaVuSans-32" d="M 1228 531 
L 3431 531 
L 3431 0 
L 469 0 
L 469 531 
Q 828 903 1448 1529 
Q 2069 2156 2228 2338 
Q 2531 2678 2651 2914 
Q 2772 3150 2772 3378 
Q 2772 3750 2511 3984 
Q 2250 4219 1831 4219 
Q 1534 4219 1204 4116 
Q 875 4013 500 3803 
L 500 4441 
Q 881 4594 1212 4672 
Q 1544 4750 1819 4750 
Q 2544 4750 2975 4387 
Q 3406 4025 3406 3419 
Q 3406 3131 3298 2873 
Q 3191 2616 2906 2266 
Q 2828 2175 2409 1742 
Q 1991 1309 1228 531 
z
" transform="scale(0.015625)"/>
       </defs>
       <use xlink:href="#DejaVuSans-32"/>
       <use xlink:href="#DejaVuSans-30" x="63.623047"/>
       <use xlink:href="#DejaVuSans-30" x="127.246094"/>
       <use xlink:href="#DejaVuSans-30" x="190.869141"/>
      </g>
     </g>
    </g>
    <g id="text_6">
     <!-- num swaps -->
     <g transform="translate(207.826406 335.860562)scale(0.1 -0.1)">
      <defs>
       <path id="DejaVuSans-6e" d="M 3513 2113 
L 3513 0 
L 2938 0 
L 2938 2094 
Q 2938 2591 2744 2837 
Q 2550 3084 2163 3084 
Q 1697 3084 1428 2787 
Q 1159 2491 1159 1978 
L 1159 0 
L 581 0 
L 581 3500 
L 1159 3500 
L 1159 2956 
Q 1366 3272 1645 3428 
Q 1925 3584 2291 3584 
Q 2894 3584 3203 3211 
Q 3513 2838 3513 2113 
z
" transform="scale(0.015625)"/>
       <path id="DejaVuSans-75" d="M 544 1381 
L 544 3500 
L 1119 3500 
L 1119 1403 
Q 1119 906 1312 657 
Q 1506 409 1894 409 
Q 2359 409 2629 706 
Q 2900 1003 2900 1516 
L 2900 3500 
L 3475 3500 
L 3475 0 
L 2900 0 
L 2900 538 
Q 2691 219 2414 64 
Q 2138 -91 1772 -91 
Q 1169 -91 856 284 
Q 544 659 544 1381 
z
M 1991 3584 
L 1991 3584 
z
" transform="scale(0.015625)"/>
       <path id="DejaVuSans-6d" d="M 3328 2828 
Q 3544 3216 3844 3400 
Q 4144 3584 4550 3584 
Q 5097 3584 5394 3201 
Q 5691 2819 5691 2113 
L 5691 0 
L 5113 0 
L 5113 2094 
Q 5113 2597 4934 2840 
Q 4756 3084 4391 3084 
Q 3944 3084 3684 2787 
Q 3425 2491 3425 1978 
L 3425 0 
L 2847 0 
L 2847 2094 
Q 2847 2600 2669 2842 
Q 2491 3084 2119 3084 
Q 1678 3084 1418 2786 
Q 1159 2488 1159 1978 
L 1159 0 
L 581 0 
L 581 3500 
L 1159 3500 
L 1159 2956 
Q 1356 3278 1631 3431 
Q 1906 3584 2284 3584 
Q 2666 3584 2933 3390 
Q 3200 3197 3328 2828 
z
" transform="scale(0.015625)"/>
       <path id="DejaVuSans-20" transform="scale(0.015625)"/>
       <path id="DejaVuSans-73" d="M 2834 3397 
L 2834 2853 
Q 2591 2978 2328 3040 
Q 2066 3103 1784 3103 
Q 1356 3103 1142 2972 
Q 928 2841 928 2578 
Q 928 2378 1081 2264 
Q 1234 2150 1697 2047 
L 1894 2003 
Q 2506 1872 2764 1633 
Q 3022 1394 3022 966 
Q 3022 478 2636 193 
Q 2250 -91 1575 -91 
Q 1294 -91 989 -36 
Q 684 19 347 128 
L 347 722 
Q 666 556 975 473 
Q 1284 391 1588 391 
Q 1994 391 2212 530 
Q 2431 669 2431 922 
Q 2431 1156 2273 1281 
Q 2116 1406 1581 1522 
L 1381 1569 
Q 847 1681 609 1914 
Q 372 2147 372 2553 
Q 372 3047 722 3315 
Q 1072 3584 1716 3584 
Q 2034 3584 2315 3537 
Q 2597 3491 2834 3397 
z
" transform="scale(0.015625)"/>
       <path id="DejaVuSans-77" d="M 269 3500 
L 844 3500 
L 1563 769 
L 2278 3500 
L 2956 3500 
L 3675 769 
L 4391 3500 
L 4966 3500 
L 4050 0 
L 3372 0 
L 2619 2869 
L 1863 0 
L 1184 0 
L 269 3500 
z
" transform="scale(0.015625)"/>
       <path id="DejaVuSans-61" d="M 2194 1759 
Q 1497 1759 1228 1600 
Q 959 1441 959 1056 
Q 959 750 1161 570 
Q 1363 391 1709 391 
Q 2188 391 2477 730 
Q 2766 1069 2766 1631 
L 2766 1759 
L 2194 1759 
z
M 3341 1997 
L 3341 0 
L 2766 0 
L 2766 531 
Q 2569 213 2275 61 
Q 1981 -91 1556 -91 
Q 1019 -91 701 211 
Q 384 513 384 1019 
Q 384 1609 779 1909 
Q 1175 2209 1959 2209 
L 2766 2209 
L 2766 2266 
Q 2766 2663 2505 2880 
Q 2244 3097 1772 3097 
Q 1472 3097 1187 3025 
Q 903 2953 641 2809 
L 641 3341 
Q 956 3463 1253 3523 
Q 1550 3584 1831 3584 
Q 2591 3584 2966 3190 
Q 3341 2797 3341 1997 
z
" transform="scale(0.015625)"/>
       <path id="DejaVuSans-70" d="M 1159 525 
L 1159 -1331 
L 581 -1331 
L 581 3500 
L 1159 3500 
L 1159 2969 
Q 1341 3281 1617 3432 
Q 1894 3584 2278 3584 
Q 2916 3584 3314 3078 
Q 3713 2572 3713 1747 
Q 3713 922 3314 415 
Q 2916 -91 2278 -91 
Q 1894 -91 1617 61 
Q 1341 213 1159 525 
z
M 3116 1747 
Q 3116 2381 2855 2742 
Q 2594 3103 2138 3103 
Q 1681 3103 1420 2742 
Q 1159 2381 1159 1747 
Q 1159 1113 1420 752 
Q 1681 391 2138 391 
Q 2594 391 2855 752 
Q 3116 1113 3116 1747 
z
" transform="scale(0.015625)"/>
      </defs>
      <use xlink:href="#DejaVuSans-6e"/>
      <use xlink:href="#DejaVuSans-75" x="63.378906"/>
      <use xlink:href="#DejaVuSans-6d" x="126.757812"/>
      <use xlink:href="#DejaVuSans-20" x="224.169922"/>
      <use xlink:href="#DejaVuSans-73" x="255.957031"/>
      <use xlink:href="#DejaVuSans-77" x="308.056641"/>
      <use xlink:href="#DejaVuSans-61" x="389.84375"/>
      <use xlink:href="#DejaVuSans-70" x="451.123047"/>
      <use xlink:href="#DejaVuSans-73" x="514.599609"/>
     </g>
    </g>
   </g>
   <g id="matplotlib.axis_2">
    <g id="ytick_1">
     <g id="line2d_6">
      <defs>
       <path id="m43f2dd20d1" d="M 0 0 
L -3.5 0 
" style="stroke: #000000; stroke-width: 0.8"/>
      </defs>
      <g>
       <use xlink:href="#m43f2dd20d1" x="57.6" y="302.070857" style="stroke: #000000; stroke-width: 0.8"/>
      </g>
     </g>
     <g id="text_7">
      <!-- 460 -->
      <g transform="translate(31.5125 305.870076)scale(0.1 -0.1)">
       <defs>
        <path id="DejaVuSans-34" d="M 2419 4116 
L 825 1625 
L 2419 1625 
L 2419 4116 
z
M 2253 4666 
L 3047 4666 
L 3047 1625 
L 3713 1625 
L 3713 1100 
L 3047 1100 
L 3047 0 
L 2419 0 
L 2419 1100 
L 313 1100 
L 313 1709 
L 2253 4666 
z
" transform="scale(0.015625)"/>
        <path id="DejaVuSans-36" d="M 2113 2584 
Q 1688 2584 1439 2293 
Q 1191 2003 1191 1497 
Q 1191 994 1439 701 
Q 1688 409 2113 409 
Q 2538 409 2786 701 
Q 3034 994 3034 1497 
Q 3034 2003 2786 2293 
Q 2538 2584 2113 2584 
z
M 3366 4563 
L 3366 3988 
Q 3128 4100 2886 4159 
Q 2644 4219 2406 4219 
Q 1781 4219 1451 3797 
Q 1122 3375 1075 2522 
Q 1259 2794 1537 2939 
Q 1816 3084 2150 3084 
Q 2853 3084 3261 2657 
Q 3669 2231 3669 1497 
Q 3669 778 3244 343 
Q 2819 -91 2113 -91 
Q 1303 -91 875 529 
Q 447 1150 447 2328 
Q 447 3434 972 4092 
Q 1497 4750 2381 4750 
Q 2619 4750 2861 4703 
Q 3103 4656 3366 4563 
z
" transform="scale(0.015625)"/>
       </defs>
       <use xlink:href="#DejaVuSans-34"/>
       <use xlink:href="#DejaVuSans-36" x="63.623047"/>
       <use xlink:href="#DejaVuSans-30" x="127.246094"/>
      </g>
     </g>
    </g>
    <g id="ytick_2">
     <g id="line2d_7">
      <g>
       <use xlink:href="#m43f2dd20d1" x="57.6" y="269.156571" style="stroke: #000000; stroke-width: 0.8"/>
      </g>
     </g>
     <g id="text_8">
      <!-- 480 -->
      <g transform="translate(31.5125 272.95579)scale(0.1 -0.1)">
       <defs>
        <path id="DejaVuSans-38" d="M 2034 2216 
Q 1584 2216 1326 1975 
Q 1069 1734 1069 1313 
Q 1069 891 1326 650 
Q 1584 409 2034 409 
Q 2484 409 2743 651 
Q 3003 894 3003 1313 
Q 3003 1734 2745 1975 
Q 2488 2216 2034 2216 
z
M 1403 2484 
Q 997 2584 770 2862 
Q 544 3141 544 3541 
Q 544 4100 942 4425 
Q 1341 4750 2034 4750 
Q 2731 4750 3128 4425 
Q 3525 4100 3525 3541 
Q 3525 3141 3298 2862 
Q 3072 2584 2669 2484 
Q 3125 2378 3379 2068 
Q 3634 1759 3634 1313 
Q 3634 634 3220 271 
Q 2806 -91 2034 -91 
Q 1263 -91 848 271 
Q 434 634 434 1313 
Q 434 1759 690 2068 
Q 947 2378 1403 2484 
z
M 1172 3481 
Q 1172 3119 1398 2916 
Q 1625 2713 2034 2713 
Q 2441 2713 2670 2916 
Q 2900 3119 2900 3481 
Q 2900 3844 2670 4047 
Q 2441 4250 2034 4250 
Q 1625 4250 1398 4047 
Q 1172 3844 1172 3481 
z
" transform="scale(0.015625)"/>
       </defs>
       <use xlink:href="#DejaVuSans-34"/>
       <use xlink:href="#DejaVuSans-38" x="63.623047"/>
       <use xlink:href="#DejaVuSans-30" x="127.246094"/>
      </g>
     </g>
    </g>
    <g id="ytick_3">
     <g id="line2d_8">
      <g>
       <use xlink:href="#m43f2dd20d1" x="57.6" y="236.242286" style="stroke: #000000; stroke-width: 0.8"/>
      </g>
     </g>
     <g id="text_9">
      <!-- 500 -->
      <g transform="translate(31.5125 240.041504)scale(0.1 -0.1)">
       <use xlink:href="#DejaVuSans-35"/>
       <use xlink:href="#DejaVuSans-30" x="63.623047"/>
       <use xlink:href="#DejaVuSans-30" x="127.246094"/>
      </g>
     </g>
    </g>
    <g id="ytick_4">
     <g id="line2d_9">
      <g>
       <use xlink:href="#m43f2dd20d1" x="57.6" y="203.328" style="stroke: #000000; stroke-width: 0.8"/>
      </g>
     </g>
     <g id="text_10">
      <!-- 520 -->
      <g transform="translate(31.5125 207.127219)scale(0.1 -0.1)">
       <use xlink:href="#DejaVuSans-35"/>
       <use xlink:href="#DejaVuSans-32" x="63.623047"/>
       <use xlink:href="#DejaVuSans-30" x="127.246094"/>
      </g>
     </g>
    </g>
    <g id="ytick_5">
     <g id="line2d_10">
      <g>
       <use xlink:href="#m43f2dd20d1" x="57.6" y="170.413714" style="stroke: #000000; stroke-width: 0.8"/>
      </g>
     </g>
     <g id="text_11">
      <!-- 540 -->
      <g transform="translate(31.5125 174.212933)scale(0.1 -0.1)">
       <use xlink:href="#DejaVuSans-35"/>
       <use xlink:href="#DejaVuSans-34" x="63.623047"/>
       <use xlink:href="#DejaVuSans-30" x="127.246094"/>
      </g>
     </g>
    </g>
    <g id="ytick_6">
     <g id="line2d_11">
      <g>
       <use xlink:href="#m43f2dd20d1" x="57.6" y="137.499429" style="stroke: #000000; stroke-width: 0.8"/>
      </g>
     </g>
     <g id="text_12">
      <!-- 560 -->
      <g transform="translate(31.5125 141.298647)scale(0.1 -0.1)">
       <use xlink:href="#DejaVuSans-35"/>
       <use xlink:href="#DejaVuSans-36" x="63.623047"/>
       <use xlink:href="#DejaVuSans-30" x="127.246094"/>
      </g>
     </g>
    </g>
    <g id="ytick_7">
     <g id="line2d_12">
      <g>
       <use xlink:href="#m43f2dd20d1" x="57.6" y="104.585143" style="stroke: #000000; stroke-width: 0.8"/>
      </g>
     </g>
     <g id="text_13">
      <!-- 580 -->
      <g transform="translate(31.5125 108.384362)scale(0.1 -0.1)">
       <use xlink:href="#DejaVuSans-35"/>
       <use xlink:href="#DejaVuSans-38" x="63.623047"/>
       <use xlink:href="#DejaVuSans-30" x="127.246094"/>
      </g>
     </g>
    </g>
    <g id="ytick_8">
     <g id="line2d_13">
      <g>
       <use xlink:href="#m43f2dd20d1" x="57.6" y="71.670857" style="stroke: #000000; stroke-width: 0.8"/>
      </g>
     </g>
     <g id="text_14">
      <!-- 600 -->
      <g transform="translate(31.5125 75.470076)scale(0.1 -0.1)">
       <use xlink:href="#DejaVuSans-36"/>
       <use xlink:href="#DejaVuSans-30" x="63.623047"/>
       <use xlink:href="#DejaVuSans-30" x="127.246094"/>
      </g>
     </g>
    </g>
    <g id="text_15">
     <!-- total cost -->
     <g transform="translate(25.432812 197.923313)rotate(-90)scale(0.1 -0.1)">
      <defs>
       <path id="DejaVuSans-74" d="M 1172 4494 
L 1172 3500 
L 2356 3500 
L 2356 3053 
L 1172 3053 
L 1172 1153 
Q 1172 725 1289 603 
Q 1406 481 1766 481 
L 2356 481 
L 2356 0 
L 1766 0 
Q 1100 0 847 248 
Q 594 497 594 1153 
L 594 3053 
L 172 3053 
L 172 3500 
L 594 3500 
L 594 4494 
L 1172 4494 
z
" transform="scale(0.015625)"/>
       <path id="DejaVuSans-6f" d="M 1959 3097 
Q 1497 3097 1228 2736 
Q 959 2375 959 1747 
Q 959 1119 1226 758 
Q 1494 397 1959 397 
Q 2419 397 2687 759 
Q 2956 1122 2956 1747 
Q 2956 2369 2687 2733 
Q 2419 3097 1959 3097 
z
M 1959 3584 
Q 2709 3584 3137 3096 
Q 3566 2609 3566 1747 
Q 3566 888 3137 398 
Q 2709 -91 1959 -91 
Q 1206 -91 779 398 
Q 353 888 353 1747 
Q 353 2609 779 3096 
Q 1206 3584 1959 3584 
z
" transform="scale(0.015625)"/>
       <path id="DejaVuSans-6c" d="M 603 4863 
L 1178 4863 
L 1178 0 
L 603 0 
L 603 4863 
z
" transform="scale(0.015625)"/>
       <path id="DejaVuSans-63" d="M 3122 3366 
L 3122 2828 
Q 2878 2963 2633 3030 
Q 2388 3097 2138 3097 
Q 1578 3097 1268 2742 
Q 959 2388 959 1747 
Q 959 1106 1268 751 
Q 1578 397 2138 397 
Q 2388 397 2633 464 
Q 2878 531 3122 666 
L 3122 134 
Q 2881 22 2623 -34 
Q 2366 -91 2075 -91 
Q 1284 -91 818 406 
Q 353 903 353 1747 
Q 353 2603 823 3093 
Q 1294 3584 2113 3584 
Q 2378 3584 2631 3529 
Q 2884 3475 3122 3366 
z
" transform="scale(0.015625)"/>
      </defs>
      <use xlink:href="#DejaVuSans-74"/>
      <use xlink:href="#DejaVuSans-6f" x="39.208984"/>
      <use xlink:href="#DejaVuSans-74" x="100.390625"/>
      <use xlink:href="#DejaVuSans-61" x="139.599609"/>
      <use xlink:href="#DejaVuSans-6c" x="200.878906"/>
      <use xlink:href="#DejaVuSans-20" x="228.662109"/>
      <use xlink:href="#DejaVuSans-63" x="260.449219"/>
      <use xlink:href="#DejaVuSans-6f" x="315.429688"/>
      <use xlink:href="#DejaVuSans-73" x="376.611328"/>
      <use xlink:href="#DejaVuSans-74" x="428.710938"/>
     </g>
    </g>
   </g>
   <g id="line2d_14">
    <path d="M 73.832727 60.150857 
L 74.133612 53.568 
L 74.434497 53.568 
L 74.735381 73.316571 
L 75.036266 68.379429 
L 75.337151 66.733714 
L 75.93892 56.859429 
L 76.540689 65.088 
L 76.841574 60.150857 
L 77.142459 63.442286 
L 77.443343 78.253714 
L 77.744228 71.670857 
L 78.045112 61.796571 
L 78.345997 56.859429 
L 78.646882 61.796571 
L 78.947766 71.670857 
L 79.248651 68.379429 
L 79.549536 68.379429 
L 79.85042 79.899429 
L 80.151305 81.545143 
L 80.45219 91.419429 
L 81.354844 106.230857 
L 81.655728 102.939429 
L 81.956613 106.230857 
L 82.257498 99.648 
L 82.558382 99.648 
L 82.859267 213.202286 
L 83.160152 219.785143 
L 83.461036 221.430857 
L 83.761921 214.848 
L 84.062806 216.493714 
L 84.36369 223.076571 
L 84.664575 232.950857 
L 84.96546 229.659429 
L 85.266344 236.242286 
L 85.567229 237.888 
L 86.168998 234.596571 
L 86.469883 236.242286 
L 86.770768 236.242286 
L 87.372537 229.659429 
L 87.673422 229.659429 
L 87.974306 185.225143 
L 88.576075 175.350857 
L 88.87696 163.830857 
L 89.177845 167.122286 
L 89.478729 178.642286 
L 89.779614 183.579429 
L 90.080499 183.579429 
L 90.682268 186.870857 
L 90.983153 190.162286 
L 91.284037 180.288 
L 91.885807 186.870857 
L 92.487576 172.059429 
L 93.089345 175.350857 
L 93.39023 167.122286 
L 93.691115 175.350857 
L 93.991999 188.516571 
L 94.292884 185.225143 
L 94.593769 185.225143 
L 94.894653 173.705143 
L 95.195538 175.350857 
L 95.496423 180.288 
L 95.797307 175.350857 
L 96.098192 155.602286 
L 96.399077 175.350857 
L 96.699961 186.870857 
L 97.000846 186.870857 
L 97.301731 188.516571 
L 97.602615 196.745143 
L 97.9035 208.265143 
L 98.204385 204.973714 
L 98.505269 213.202286 
L 98.806154 213.202286 
L 99.107039 209.910857 
L 99.407923 214.848 
L 99.708808 213.202286 
L 100.009692 204.973714 
L 100.310577 204.973714 
L 100.611462 196.745143 
L 100.912346 195.099429 
L 101.213231 183.579429 
L 101.514116 178.642286 
L 101.815 198.390857 
L 102.115885 190.162286 
L 102.41677 175.350857 
L 102.717654 172.059429 
L 103.018539 172.059429 
L 103.319424 168.768 
L 103.620308 168.768 
L 103.921193 172.059429 
L 104.222078 173.705143 
L 104.522962 176.996571 
L 104.823847 178.642286 
L 105.124732 183.579429 
L 105.726501 183.579429 
L 106.027386 188.516571 
L 106.32827 181.933714 
L 106.629155 180.288 
L 106.93004 183.579429 
L 107.230924 190.162286 
L 107.531809 180.288 
L 107.832694 183.579429 
L 108.133578 175.350857 
L 108.434463 176.996571 
L 108.735348 176.996571 
L 109.036232 195.099429 
L 109.337117 221.430857 
L 109.638002 218.139429 
L 109.938886 223.076571 
L 110.239771 223.076571 
L 110.540655 221.430857 
L 110.84154 214.848 
L 111.142425 204.973714 
L 111.443309 216.493714 
L 111.744194 216.493714 
L 112.045079 206.619429 
L 112.345963 209.910857 
L 112.646848 208.265143 
L 112.947733 196.745143 
L 113.248617 198.390857 
L 113.549502 206.619429 
L 113.850387 203.328 
L 114.151271 196.745143 
L 114.452156 196.745143 
L 114.753041 206.619429 
L 115.053925 209.910857 
L 115.35481 208.265143 
L 115.655695 209.910857 
L 115.956579 175.350857 
L 116.257464 172.059429 
L 116.558349 152.310857 
L 116.859233 168.768 
L 117.461003 165.476571 
L 117.761887 167.122286 
L 118.062772 170.413714 
L 118.363657 175.350857 
L 118.664541 209.910857 
L 118.965426 206.619429 
L 119.266311 206.619429 
L 119.567195 216.493714 
L 119.86808 200.036571 
L 120.168965 200.036571 
L 120.469849 186.870857 
L 120.770734 196.745143 
L 121.071619 201.682286 
L 121.372503 200.036571 
L 121.673388 195.099429 
L 122.576042 200.036571 
L 122.876926 195.099429 
L 123.177811 203.328 
L 123.478696 200.036571 
L 123.77958 201.682286 
L 124.080465 209.910857 
L 124.38135 209.910857 
L 124.682234 204.973714 
L 124.983119 211.556571 
L 125.284004 211.556571 
L 125.584888 226.368 
L 125.885773 228.013714 
L 126.186658 237.888 
L 126.487542 231.305143 
L 126.788427 237.888 
L 127.089312 224.722286 
L 127.390196 242.825143 
L 127.691081 239.533714 
L 127.991966 246.116571 
L 128.29285 232.950857 
L 128.593735 229.659429 
L 128.89462 219.785143 
L 129.496389 223.076571 
L 129.797274 214.848 
L 130.098158 223.076571 
L 130.699928 209.910857 
L 131.000812 200.036571 
L 131.301697 208.265143 
L 131.602582 198.390857 
L 131.903466 196.745143 
L 132.204351 191.808 
L 132.80612 211.556571 
L 133.107005 209.910857 
L 133.708774 221.430857 
L 134.009659 218.139429 
L 134.310543 219.785143 
L 134.611428 226.368 
L 134.912313 224.722286 
L 135.213197 213.202286 
L 135.514082 226.368 
L 135.814967 228.013714 
L 136.115851 223.076571 
L 136.416736 231.305143 
L 136.717621 228.013714 
L 137.620275 195.099429 
L 137.921159 201.682286 
L 138.222044 201.682286 
L 138.522929 198.390857 
L 138.823813 201.682286 
L 139.124698 183.579429 
L 139.425583 186.870857 
L 140.027352 160.539429 
L 140.328237 160.539429 
L 140.629121 157.248 
L 140.930006 157.248 
L 141.230891 153.956571 
L 141.531775 147.373714 
L 141.83266 155.602286 
L 142.133545 160.539429 
L 142.434429 176.996571 
L 142.735314 178.642286 
L 143.036199 185.225143 
L 143.337083 181.933714 
L 143.938852 188.516571 
L 144.540622 178.642286 
L 144.841506 193.453714 
L 145.142391 191.808 
L 145.443276 176.996571 
L 145.74416 168.768 
L 146.045045 172.059429 
L 146.34593 173.705143 
L 146.947699 170.413714 
L 147.248584 173.705143 
L 147.549468 173.705143 
L 147.850353 170.413714 
L 148.151238 175.350857 
L 148.452122 193.453714 
L 149.053892 181.933714 
L 149.655661 190.162286 
L 149.956546 190.162286 
L 150.25743 183.579429 
L 150.558315 190.162286 
L 150.8592 173.705143 
L 151.460969 170.413714 
L 151.761854 157.248 
L 152.062738 152.310857 
L 152.363623 157.248 
L 152.664508 157.248 
L 152.965392 160.539429 
L 153.266277 153.956571 
L 153.567162 175.350857 
L 153.868046 176.996571 
L 154.168931 181.933714 
L 154.469815 183.579429 
L 154.7707 186.870857 
L 155.071585 196.745143 
L 155.372469 190.162286 
L 155.673354 193.453714 
L 155.974239 191.808 
L 156.275123 193.453714 
L 156.576008 186.870857 
L 156.876893 196.745143 
L 157.177777 188.516571 
L 157.478662 188.516571 
L 157.779547 186.870857 
L 158.381316 190.162286 
L 158.682201 193.453714 
L 158.983085 178.642286 
L 159.28397 180.288 
L 159.584855 183.579429 
L 159.885739 178.642286 
L 160.186624 181.933714 
L 160.487509 186.870857 
L 160.788393 211.556571 
L 161.089278 218.139429 
L 161.691047 208.265143 
L 161.991932 209.910857 
L 162.292817 200.036571 
L 163.195471 200.036571 
L 163.496355 196.745143 
L 164.098125 203.328 
L 164.399009 204.973714 
L 164.699894 200.036571 
L 165.000778 191.808 
L 165.301663 190.162286 
L 165.602548 190.162286 
L 165.903432 198.390857 
L 166.204317 198.390857 
L 166.505202 195.099429 
L 166.806086 208.265143 
L 167.106971 213.202286 
L 167.407856 206.619429 
L 167.70874 186.870857 
L 168.009625 196.745143 
L 168.31051 196.745143 
L 169.213164 211.556571 
L 169.514048 200.036571 
L 169.814933 201.682286 
L 170.115818 214.848 
L 170.717587 214.848 
L 171.018472 224.722286 
L 171.319356 226.368 
L 171.620241 218.139429 
L 171.921126 224.722286 
L 172.22201 226.368 
L 172.522895 214.848 
L 172.82378 214.848 
L 173.124664 203.328 
L 173.425549 213.202286 
L 174.027318 219.785143 
L 174.328203 252.699429 
L 174.629088 242.825143 
L 174.929972 242.825143 
L 175.230857 241.179429 
L 175.531742 242.825143 
L 175.832626 218.139429 
L 176.434395 218.139429 
L 176.73528 224.722286 
L 177.036165 218.139429 
L 177.337049 214.848 
L 177.637934 208.265143 
L 177.938819 208.265143 
L 178.239703 204.973714 
L 178.540588 204.973714 
L 178.841473 208.265143 
L 179.142357 190.162286 
L 179.443242 186.870857 
L 179.744127 185.225143 
L 180.646781 195.099429 
L 180.947665 191.808 
L 181.24855 203.328 
L 181.549435 206.619429 
L 181.850319 204.973714 
L 182.452089 208.265143 
L 182.752973 211.556571 
L 183.655627 224.722286 
L 183.956512 224.722286 
L 184.257397 264.219429 
L 184.558281 270.802286 
L 184.859166 274.093714 
L 185.160051 267.510857 
L 185.460935 288.905143 
L 185.76182 295.488 
L 186.062705 293.842286 
L 186.363589 293.842286 
L 186.664474 285.613714 
L 186.965358 265.865143 
L 187.266243 254.345143 
L 187.567128 257.636571 
L 187.868012 255.990857 
L 188.168897 259.282286 
L 188.469782 260.928 
L 188.770666 267.510857 
L 189.071551 262.573714 
L 189.372436 260.928 
L 189.67332 272.448 
L 189.974205 247.762286 
L 190.575974 254.345143 
L 190.876859 262.573714 
L 191.177744 255.990857 
L 191.478628 255.990857 
L 191.779513 239.533714 
L 192.080398 232.950857 
L 192.381282 236.242286 
L 192.682167 231.305143 
L 192.983052 229.659429 
L 193.283936 231.305143 
L 193.584821 219.785143 
L 194.18659 249.408 
L 194.487475 246.116571 
L 194.78836 239.533714 
L 195.089244 208.265143 
L 195.390129 231.305143 
L 195.691014 229.659429 
L 195.991898 236.242286 
L 196.593668 224.722286 
L 196.894552 231.305143 
L 197.195437 229.659429 
L 197.496322 226.368 
L 197.797206 228.013714 
L 198.098091 236.242286 
L 198.398975 237.888 
L 198.69986 228.013714 
L 199.000745 228.013714 
L 199.301629 226.368 
L 199.602514 213.202286 
L 199.903399 213.202286 
L 200.204283 209.910857 
L 200.505168 211.556571 
L 200.806053 223.076571 
L 201.106937 229.659429 
L 201.407822 224.722286 
L 201.708707 228.013714 
L 202.009591 232.950857 
L 202.310476 232.950857 
L 202.611361 237.888 
L 202.912245 231.305143 
L 203.514015 260.928 
L 204.416669 247.762286 
L 204.717553 244.470857 
L 205.018438 244.470857 
L 205.921092 234.596571 
L 206.221977 246.116571 
L 206.522861 251.053714 
L 206.823746 221.430857 
L 207.124631 224.722286 
L 207.425515 224.722286 
L 207.7264 219.785143 
L 208.027285 203.328 
L 208.328169 200.036571 
L 208.629054 200.036571 
L 209.230823 209.910857 
L 209.531708 221.430857 
L 209.832592 221.430857 
L 210.133477 219.785143 
L 210.434362 221.430857 
L 210.735246 221.430857 
L 211.036131 218.139429 
L 211.337016 224.722286 
L 211.6379 219.785143 
L 211.938785 224.722286 
L 212.540554 224.722286 
L 212.841439 228.013714 
L 213.142324 228.013714 
L 213.443208 224.722286 
L 213.744093 226.368 
L 214.044978 216.493714 
L 214.345862 216.493714 
L 214.646747 228.013714 
L 214.947632 223.076571 
L 215.248516 223.076571 
L 215.549401 224.722286 
L 215.850286 221.430857 
L 216.452055 237.888 
L 216.75294 224.722286 
L 217.053824 229.659429 
L 217.354709 231.305143 
L 217.655594 226.368 
L 217.956478 214.848 
L 218.257363 209.910857 
L 218.558248 209.910857 
L 218.859132 216.493714 
L 219.160017 216.493714 
L 219.460902 211.556571 
L 219.761786 193.453714 
L 220.062671 196.745143 
L 220.363555 198.390857 
L 220.66444 209.910857 
L 220.965325 213.202286 
L 221.266209 204.973714 
L 221.567094 203.328 
L 221.867979 211.556571 
L 222.168863 186.870857 
L 222.469748 185.225143 
L 222.770633 168.768 
L 223.071517 167.122286 
L 223.372402 172.059429 
L 223.673287 167.122286 
L 223.974171 170.413714 
L 224.275056 180.288 
L 224.575941 178.642286 
L 224.876825 188.516571 
L 225.17771 178.642286 
L 225.478595 183.579429 
L 225.779479 183.579429 
L 226.080364 196.745143 
L 226.381249 193.453714 
L 226.682133 193.453714 
L 226.983018 200.036571 
L 227.283903 191.808 
L 227.584787 201.682286 
L 227.885672 234.596571 
L 228.186557 216.493714 
L 228.487441 216.493714 
L 228.788326 224.722286 
L 229.089211 224.722286 
L 229.390095 221.430857 
L 229.69098 213.202286 
L 229.991865 211.556571 
L 230.593634 231.305143 
L 230.894518 231.305143 
L 231.195403 204.973714 
L 231.496288 203.328 
L 231.797172 204.973714 
L 232.098057 201.682286 
L 232.699826 198.390857 
L 233.000711 214.848 
L 233.301596 211.556571 
L 233.903365 191.808 
L 234.20425 188.516571 
L 234.505134 201.682286 
L 234.806019 191.808 
L 235.106904 193.453714 
L 235.407788 186.870857 
L 235.708673 198.390857 
L 236.009558 193.453714 
L 236.310442 175.350857 
L 236.611327 173.705143 
L 236.912212 165.476571 
L 237.213096 162.185143 
L 237.814866 168.768 
L 238.11575 165.476571 
L 238.416635 198.390857 
L 238.71752 203.328 
L 239.018404 203.328 
L 239.319289 211.556571 
L 239.921058 208.265143 
L 240.221943 211.556571 
L 240.522828 206.619429 
L 240.823712 208.265143 
L 241.124597 198.390857 
L 241.425482 200.036571 
L 241.726366 200.036571 
L 242.027251 178.642286 
L 242.328135 186.870857 
L 242.929905 180.288 
L 243.230789 178.642286 
L 243.531674 185.225143 
L 243.832559 185.225143 
L 244.133443 186.870857 
L 244.434328 183.579429 
L 244.735213 175.350857 
L 245.036097 176.996571 
L 245.336982 183.579429 
L 245.938751 173.705143 
L 246.239636 193.453714 
L 246.540521 201.682286 
L 246.841405 203.328 
L 247.14229 195.099429 
L 247.443175 191.808 
L 247.744059 193.453714 
L 248.044944 206.619429 
L 248.345829 209.910857 
L 248.646713 209.910857 
L 248.947598 206.619429 
L 249.248483 191.808 
L 249.549367 185.225143 
L 249.850252 185.225143 
L 250.151137 196.745143 
L 250.452021 203.328 
L 250.752906 198.390857 
L 251.053791 201.682286 
L 251.354675 198.390857 
L 251.65556 186.870857 
L 252.257329 206.619429 
L 252.558214 247.762286 
L 252.859098 255.990857 
L 253.159983 260.928 
L 253.460868 255.990857 
L 253.761752 269.156571 
L 254.363522 247.762286 
L 254.664406 244.470857 
L 254.965291 244.470857 
L 255.266176 247.762286 
L 255.56706 244.470857 
L 255.867945 242.825143 
L 256.16883 236.242286 
L 256.770599 252.699429 
L 257.071484 247.762286 
L 257.372368 257.636571 
L 257.974138 246.116571 
L 258.275022 247.762286 
L 258.575907 247.762286 
L 258.876792 255.990857 
L 259.177676 244.470857 
L 259.478561 228.013714 
L 259.779446 228.013714 
L 260.08033 229.659429 
L 260.381215 229.659429 
L 260.6821 234.596571 
L 260.982984 231.305143 
L 261.283869 226.368 
L 261.584754 232.950857 
L 261.885638 234.596571 
L 262.186523 234.596571 
L 262.487408 231.305143 
L 263.089177 175.350857 
L 263.390062 173.705143 
L 263.690946 152.310857 
L 263.991831 142.436571 
L 264.292715 145.728 
L 264.5936 152.310857 
L 264.894485 163.830857 
L 265.195369 160.539429 
L 265.496254 165.476571 
L 265.797139 158.893714 
L 266.098023 149.019429 
L 266.398908 145.728 
L 266.699793 139.145143 
L 267.000677 147.373714 
L 267.301562 147.373714 
L 267.602447 140.790857 
L 267.903331 155.602286 
L 268.204216 152.310857 
L 268.805985 162.185143 
L 269.10687 149.019429 
L 269.407755 152.310857 
L 269.708639 145.728 
L 270.009524 152.310857 
L 270.310409 149.019429 
L 270.912178 149.019429 
L 271.213063 139.145143 
L 271.513947 144.082286 
L 271.814832 139.145143 
L 272.115717 158.893714 
L 272.416601 157.248 
L 272.717486 173.705143 
L 273.018371 183.579429 
L 273.319255 168.768 
L 273.62014 173.705143 
L 273.921025 181.933714 
L 274.221909 172.059429 
L 274.522794 168.768 
L 274.823678 160.539429 
L 275.124563 162.185143 
L 275.425448 157.248 
L 275.726332 167.122286 
L 276.027217 152.310857 
L 276.328102 150.665143 
L 276.628986 145.728 
L 276.929871 145.728 
L 277.53164 167.122286 
L 277.832525 173.705143 
L 278.13341 170.413714 
L 278.434294 180.288 
L 278.735179 175.350857 
L 279.336948 185.225143 
L 279.637833 206.619429 
L 279.938718 203.328 
L 280.540487 214.848 
L 280.841372 228.013714 
L 281.142256 209.910857 
L 281.443141 204.973714 
L 281.744026 209.910857 
L 282.04491 208.265143 
L 282.64668 191.808 
L 282.947564 221.430857 
L 283.248449 214.848 
L 283.549334 224.722286 
L 283.850218 228.013714 
L 284.151103 221.430857 
L 284.451988 218.139429 
L 284.752872 216.493714 
L 285.053757 224.722286 
L 285.354642 213.202286 
L 285.655526 216.493714 
L 285.956411 218.139429 
L 286.257295 213.202286 
L 286.55818 213.202286 
L 286.859065 140.790857 
L 287.159949 147.373714 
L 287.460834 132.562286 
L 287.761719 140.790857 
L 288.062603 137.499429 
L 288.363488 140.790857 
L 288.664373 150.665143 
L 288.965257 152.310857 
L 289.266142 147.373714 
L 289.567027 158.893714 
L 289.867911 152.310857 
L 290.168796 153.956571 
L 290.770565 165.476571 
L 291.07145 165.476571 
L 291.372335 158.893714 
L 291.673219 158.893714 
L 291.974104 157.248 
L 292.274989 208.265143 
L 292.876758 229.659429 
L 293.177643 226.368 
L 293.478527 219.785143 
L 293.779412 218.139429 
L 294.080297 214.848 
L 294.381181 224.722286 
L 294.682066 219.785143 
L 294.982951 239.533714 
L 295.283835 241.179429 
L 295.58472 237.888 
L 295.885605 239.533714 
L 296.186489 218.139429 
L 296.487374 221.430857 
L 296.788258 236.242286 
L 297.089143 239.533714 
L 297.690912 203.328 
L 297.991797 206.619429 
L 298.292682 193.453714 
L 298.593566 196.745143 
L 298.894451 203.328 
L 299.195336 206.619429 
L 299.49622 203.328 
L 299.797105 209.910857 
L 300.09799 213.202286 
L 300.398874 209.910857 
L 301.000644 209.910857 
L 301.301528 216.493714 
L 301.602413 216.493714 
L 301.903298 221.430857 
L 302.204182 241.179429 
L 302.505067 277.385143 
L 302.805952 277.385143 
L 303.106836 244.470857 
L 303.407721 246.116571 
L 303.708606 244.470857 
L 304.00949 249.408 
L 304.61126 237.888 
L 304.912144 218.139429 
L 305.213029 251.053714 
L 305.513914 246.116571 
L 305.814798 244.470857 
L 306.115683 228.013714 
L 306.416568 221.430857 
L 306.717452 208.265143 
L 307.018337 200.036571 
L 307.319222 208.265143 
L 307.920991 216.493714 
L 308.221875 213.202286 
L 308.52276 211.556571 
L 308.823645 213.202286 
L 309.124529 211.556571 
L 309.425414 201.682286 
L 309.726299 211.556571 
L 310.027183 201.682286 
L 310.328068 209.910857 
L 310.628953 223.076571 
L 310.929837 216.493714 
L 311.230722 214.848 
L 311.832491 223.076571 
L 312.133376 219.785143 
L 313.03603 201.682286 
L 313.336915 200.036571 
L 313.637799 201.682286 
L 313.938684 206.619429 
L 314.239569 201.682286 
L 314.540453 191.808 
L 314.841338 201.682286 
L 315.142223 201.682286 
L 315.443107 204.973714 
L 315.743992 214.848 
L 316.044877 196.745143 
L 316.345761 191.808 
L 316.646646 181.933714 
L 316.947531 183.579429 
L 317.248415 201.682286 
L 317.5493 198.390857 
L 317.850185 196.745143 
L 318.151069 224.722286 
L 318.451954 234.596571 
L 318.752838 229.659429 
L 319.354608 246.116571 
L 319.655492 237.888 
L 320.257262 241.179429 
L 320.558146 251.053714 
L 320.859031 247.762286 
L 321.159916 259.282286 
L 321.4608 255.990857 
L 322.06257 259.282286 
L 322.363454 252.699429 
L 322.664339 252.699429 
L 322.965224 251.053714 
L 323.266108 236.242286 
L 323.566993 237.888 
L 323.867878 216.493714 
L 324.168762 219.785143 
L 324.469647 219.785143 
L 324.770532 221.430857 
L 325.071416 213.202286 
L 325.372301 213.202286 
L 325.673186 209.910857 
L 325.97407 226.368 
L 326.274955 228.013714 
L 326.57584 232.950857 
L 326.876724 234.596571 
L 327.177609 239.533714 
L 327.478494 232.950857 
L 327.779378 244.470857 
L 328.080263 241.179429 
L 328.381148 252.699429 
L 328.682032 239.533714 
L 328.982917 231.305143 
L 329.283801 226.368 
L 329.885571 223.076571 
L 330.186455 208.265143 
L 330.48734 213.202286 
L 330.788225 204.973714 
L 331.389994 198.390857 
L 331.690879 203.328 
L 331.991763 218.139429 
L 332.292648 218.139429 
L 332.894417 211.556571 
L 333.195302 204.973714 
L 333.496187 191.808 
L 333.797071 183.579429 
L 334.097956 190.162286 
L 334.398841 191.808 
L 334.699725 204.973714 
L 335.00061 185.225143 
L 335.301495 183.579429 
L 335.602379 176.996571 
L 335.903264 173.705143 
L 336.204149 175.350857 
L 336.505033 173.705143 
L 336.805918 163.830857 
L 337.407687 167.122286 
L 337.708572 176.996571 
L 338.009457 162.185143 
L 338.310341 160.539429 
L 338.611226 165.476571 
L 338.912111 163.830857 
L 339.212995 170.413714 
L 339.51388 168.768 
L 340.115649 181.933714 
L 340.416534 176.996571 
L 340.717418 203.328 
L 341.018303 204.973714 
L 341.319188 208.265143 
L 341.620072 206.619429 
L 341.920957 208.265143 
L 342.221842 204.973714 
L 342.522726 180.288 
L 342.823611 183.579429 
L 343.124496 175.350857 
L 343.42538 170.413714 
L 343.726265 170.413714 
L 344.02715 172.059429 
L 344.328034 172.059429 
L 344.628919 173.705143 
L 344.929804 185.225143 
L 345.230688 183.579429 
L 345.531573 178.642286 
L 345.832458 183.579429 
L 346.434227 204.973714 
L 347.035996 218.139429 
L 347.336881 218.139429 
L 347.637766 221.430857 
L 347.93865 214.848 
L 348.239535 213.202286 
L 348.54042 213.202286 
L 348.841304 216.493714 
L 349.142189 224.722286 
L 349.443074 239.533714 
L 349.743958 232.950857 
L 350.044843 234.596571 
L 350.345728 226.368 
L 350.646612 224.722286 
L 350.947497 229.659429 
L 351.248381 228.013714 
L 351.850151 249.408 
L 352.151035 246.116571 
L 352.45192 247.762286 
L 352.752805 254.345143 
L 353.053689 254.345143 
L 353.354574 247.762286 
L 353.655459 247.762286 
L 353.956343 249.408 
L 354.257228 246.116571 
L 354.558113 255.990857 
L 354.858997 251.053714 
L 355.159882 237.888 
L 355.460767 244.470857 
L 355.761651 241.179429 
L 356.062536 241.179429 
L 356.363421 239.533714 
L 356.664305 239.533714 
L 356.96519 241.179429 
L 357.266075 228.013714 
L 357.566959 229.659429 
L 357.867844 237.888 
L 358.168729 239.533714 
L 358.469613 252.699429 
L 359.071383 252.699429 
L 359.372267 251.053714 
L 359.673152 246.116571 
L 359.974037 232.950857 
L 360.274921 232.950857 
L 360.575806 229.659429 
L 360.876691 229.659429 
L 361.47846 214.848 
L 361.779345 214.848 
L 362.080229 221.430857 
L 362.381114 211.556571 
L 362.681998 218.139429 
L 362.982883 211.556571 
L 363.283768 223.076571 
L 363.584652 201.682286 
L 363.885537 195.099429 
L 364.186422 198.390857 
L 364.487306 195.099429 
L 364.788191 196.745143 
L 365.089076 201.682286 
L 365.38996 198.390857 
L 365.690845 208.265143 
L 365.99173 206.619429 
L 366.292614 214.848 
L 366.593499 214.848 
L 366.894384 218.139429 
L 367.195268 211.556571 
L 367.496153 216.493714 
L 367.797038 209.910857 
L 368.097922 206.619429 
L 368.398807 218.139429 
L 368.699692 211.556571 
L 369.000576 213.202286 
L 369.301461 218.139429 
L 369.602346 211.556571 
L 369.90323 196.745143 
L 370.505 193.453714 
L 370.805884 183.579429 
L 371.106769 185.225143 
L 371.708538 196.745143 
L 372.009423 198.390857 
L 372.310308 188.516571 
L 372.611192 186.870857 
L 372.912077 178.642286 
L 373.212961 181.933714 
L 373.513846 213.202286 
L 373.814731 214.848 
L 374.4165 214.848 
L 374.717385 204.973714 
L 375.018269 214.848 
L 375.319154 216.493714 
L 375.620039 214.848 
L 375.920923 218.139429 
L 376.221808 211.556571 
L 376.522693 213.202286 
L 377.124462 201.682286 
L 377.425347 203.328 
L 377.726231 203.328 
L 378.027116 209.910857 
L 378.628885 193.453714 
L 379.230655 206.619429 
L 379.832424 209.910857 
L 380.133309 204.973714 
L 380.434193 223.076571 
L 381.035963 211.556571 
L 381.336847 221.430857 
L 381.637732 223.076571 
L 381.938617 223.076571 
L 382.239501 226.368 
L 382.540386 224.722286 
L 382.841271 224.722286 
L 383.142155 214.848 
L 383.44304 214.848 
L 383.743925 216.493714 
L 384.044809 226.368 
L 384.646578 226.368 
L 384.947463 237.888 
L 385.248348 242.825143 
L 385.549232 226.368 
L 385.850117 228.013714 
L 386.151002 224.722286 
L 386.451886 214.848 
L 386.752771 218.139429 
L 387.053656 206.619429 
L 387.35454 201.682286 
L 387.655425 201.682286 
L 387.95631 211.556571 
L 388.257194 204.973714 
L 388.558079 201.682286 
L 388.858964 211.556571 
L 389.159848 204.973714 
L 389.460733 188.516571 
L 389.761618 195.099429 
L 390.062502 204.973714 
L 390.363387 206.619429 
L 390.664272 203.328 
L 390.965156 204.973714 
L 391.266041 209.910857 
L 391.566926 219.785143 
L 391.86781 216.493714 
L 392.168695 209.910857 
L 392.46958 218.139429 
L 392.770464 211.556571 
L 393.071349 213.202286 
L 393.372234 209.910857 
L 393.673118 211.556571 
L 393.974003 216.493714 
L 394.274888 214.848 
L 394.575772 209.910857 
L 394.876657 209.910857 
L 395.177541 208.265143 
L 395.478426 211.556571 
L 395.779311 200.036571 
L 396.080195 203.328 
L 396.38108 193.453714 
L 396.681965 191.808 
L 396.982849 193.453714 
L 397.283734 200.036571 
L 397.584619 209.910857 
L 397.885503 214.848 
L 398.186388 223.076571 
L 398.487273 213.202286 
L 398.487273 213.202286 
" clip-path="url(#p920a889ddf)" style="fill: none; stroke: #1f77b4; stroke-width: 1.5; stroke-linecap: square"/>
   </g>
   <g id="patch_3">
    <path d="M 57.6 307.584 
L 57.6 41.472 
" style="fill: none; stroke: #000000; stroke-width: 0.8; stroke-linejoin: miter; stroke-linecap: square"/>
   </g>
   <g id="patch_4">
    <path d="M 414.72 307.584 
L 414.72 41.472 
" style="fill: none; stroke: #000000; stroke-width: 0.8; stroke-linejoin: miter; stroke-linecap: square"/>
   </g>
   <g id="patch_5">
    <path d="M 57.6 307.584 
L 414.72 307.584 
" style="fill: none; stroke: #000000; stroke-width: 0.8; stroke-linejoin: miter; stroke-linecap: square"/>
   </g>
   <g id="patch_6">
    <path d="M 57.6 41.472 
L 414.72 41.472 
" style="fill: none; stroke: #000000; stroke-width: 0.8; stroke-linejoin: miter; stroke-linecap: square"/>
   </g>
   <g id="text_16">
    <!-- Simulated Anealling Cost -->
    <g transform="translate(160.8 35.472)scale(0.12 -0.12)">
     <defs>
      <path id="DejaVuSans-53" d="M 3425 4513 
L 3425 3897 
Q 3066 4069 2747 4153 
Q 2428 4238 2131 4238 
Q 1616 4238 1336 4038 
Q 1056 3838 1056 3469 
Q 1056 3159 1242 3001 
Q 1428 2844 1947 2747 
L 2328 2669 
Q 3034 2534 3370 2195 
Q 3706 1856 3706 1288 
Q 3706 609 3251 259 
Q 2797 -91 1919 -91 
Q 1588 -91 1214 -16 
Q 841 59 441 206 
L 441 856 
Q 825 641 1194 531 
Q 1563 422 1919 422 
Q 2459 422 2753 634 
Q 3047 847 3047 1241 
Q 3047 1584 2836 1778 
Q 2625 1972 2144 2069 
L 1759 2144 
Q 1053 2284 737 2584 
Q 422 2884 422 3419 
Q 422 4038 858 4394 
Q 1294 4750 2059 4750 
Q 2388 4750 2728 4690 
Q 3069 4631 3425 4513 
z
" transform="scale(0.015625)"/>
      <path id="DejaVuSans-69" d="M 603 3500 
L 1178 3500 
L 1178 0 
L 603 0 
L 603 3500 
z
M 603 4863 
L 1178 4863 
L 1178 4134 
L 603 4134 
L 603 4863 
z
" transform="scale(0.015625)"/>
      <path id="DejaVuSans-65" d="M 3597 1894 
L 3597 1613 
L 953 1613 
Q 991 1019 1311 708 
Q 1631 397 2203 397 
Q 2534 397 2845 478 
Q 3156 559 3463 722 
L 3463 178 
Q 3153 47 2828 -22 
Q 2503 -91 2169 -91 
Q 1331 -91 842 396 
Q 353 884 353 1716 
Q 353 2575 817 3079 
Q 1281 3584 2069 3584 
Q 2775 3584 3186 3129 
Q 3597 2675 3597 1894 
z
M 3022 2063 
Q 3016 2534 2758 2815 
Q 2500 3097 2075 3097 
Q 1594 3097 1305 2825 
Q 1016 2553 972 2059 
L 3022 2063 
z
" transform="scale(0.015625)"/>
      <path id="DejaVuSans-64" d="M 2906 2969 
L 2906 4863 
L 3481 4863 
L 3481 0 
L 2906 0 
L 2906 525 
Q 2725 213 2448 61 
Q 2172 -91 1784 -91 
Q 1150 -91 751 415 
Q 353 922 353 1747 
Q 353 2572 751 3078 
Q 1150 3584 1784 3584 
Q 2172 3584 2448 3432 
Q 2725 3281 2906 2969 
z
M 947 1747 
Q 947 1113 1208 752 
Q 1469 391 1925 391 
Q 2381 391 2643 752 
Q 2906 1113 2906 1747 
Q 2906 2381 2643 2742 
Q 2381 3103 1925 3103 
Q 1469 3103 1208 2742 
Q 947 2381 947 1747 
z
" transform="scale(0.015625)"/>
      <path id="DejaVuSans-41" d="M 2188 4044 
L 1331 1722 
L 3047 1722 
L 2188 4044 
z
M 1831 4666 
L 2547 4666 
L 4325 0 
L 3669 0 
L 3244 1197 
L 1141 1197 
L 716 0 
L 50 0 
L 1831 4666 
z
" transform="scale(0.015625)"/>
      <path id="DejaVuSans-67" d="M 2906 1791 
Q 2906 2416 2648 2759 
Q 2391 3103 1925 3103 
Q 1463 3103 1205 2759 
Q 947 2416 947 1791 
Q 947 1169 1205 825 
Q 1463 481 1925 481 
Q 2391 481 2648 825 
Q 2906 1169 2906 1791 
z
M 3481 434 
Q 3481 -459 3084 -895 
Q 2688 -1331 1869 -1331 
Q 1566 -1331 1297 -1286 
Q 1028 -1241 775 -1147 
L 775 -588 
Q 1028 -725 1275 -790 
Q 1522 -856 1778 -856 
Q 2344 -856 2625 -561 
Q 2906 -266 2906 331 
L 2906 616 
Q 2728 306 2450 153 
Q 2172 0 1784 0 
Q 1141 0 747 490 
Q 353 981 353 1791 
Q 353 2603 747 3093 
Q 1141 3584 1784 3584 
Q 2172 3584 2450 3431 
Q 2728 3278 2906 2969 
L 2906 3500 
L 3481 3500 
L 3481 434 
z
" transform="scale(0.015625)"/>
      <path id="DejaVuSans-43" d="M 4122 4306 
L 4122 3641 
Q 3803 3938 3442 4084 
Q 3081 4231 2675 4231 
Q 1875 4231 1450 3742 
Q 1025 3253 1025 2328 
Q 1025 1406 1450 917 
Q 1875 428 2675 428 
Q 3081 428 3442 575 
Q 3803 722 4122 1019 
L 4122 359 
Q 3791 134 3420 21 
Q 3050 -91 2638 -91 
Q 1578 -91 968 557 
Q 359 1206 359 2328 
Q 359 3453 968 4101 
Q 1578 4750 2638 4750 
Q 3056 4750 3426 4639 
Q 3797 4528 4122 4306 
z
" transform="scale(0.015625)"/>
     </defs>
     <use xlink:href="#DejaVuSans-53"/>
     <use xlink:href="#DejaVuSans-69" x="63.476562"/>
     <use xlink:href="#DejaVuSans-6d" x="91.259766"/>
     <use xlink:href="#DejaVuSans-75" x="188.671875"/>
     <use xlink:href="#DejaVuSans-6c" x="252.050781"/>
     <use xlink:href="#DejaVuSans-61" x="279.833984"/>
     <use xlink:href="#DejaVuSans-74" x="341.113281"/>
     <use xlink:href="#DejaVuSans-65" x="380.322266"/>
     <use xlink:href="#DejaVuSans-64" x="441.845703"/>
     <use xlink:href="#DejaVuSans-20" x="505.322266"/>
     <use xlink:href="#DejaVuSans-41" x="537.109375"/>
     <use xlink:href="#DejaVuSans-6e" x="605.517578"/>
     <use xlink:href="#DejaVuSans-65" x="668.896484"/>
     <use xlink:href="#DejaVuSans-61" x="730.419922"/>
     <use xlink:href="#DejaVuSans-6c" x="791.699219"/>
     <use xlink:href="#DejaVuSans-6c" x="819.482422"/>
     <use xlink:href="#DejaVuSans-69" x="847.265625"/>
     <use xlink:href="#DejaVuSans-6e" x="875.048828"/>
     <use xlink:href="#DejaVuSans-67" x="938.427734"/>
     <use xlink:href="#DejaVuSans-20" x="1001.904297"/>
     <use xlink:href="#DejaVuSans-43" x="1033.691406"/>
     <use xlink:href="#DejaVuSans-6f" x="1103.515625"/>
     <use xlink:href="#DejaVuSans-73" x="1164.697266"/>
     <use xlink:href="#DejaVuSans-74" x="1216.796875"/>
    </g>
   </g>
  </g>
 </g>
 <defs>
  <clipPath id="p920a889ddf">
   <rect x="57.6" y="41.472" width="357.12" height="266.112"/>
  </clipPath>
 </defs>
</svg>
