<?xml version="1.0" encoding="utf-8" standalone="no"?>
<!DOCTYPE svg PUBLIC "-//W3C//DTD SVG 1.1//EN"
  "http://www.w3.org/Graphics/SVG/1.1/DTD/svg11.dtd">
<svg xmlns:xlink="http://www.w3.org/1999/xlink" width="460.8pt" height="345.6pt" viewBox="0 0 460.8 345.6" xmlns="http://www.w3.org/2000/svg" version="1.1">
 <metadata>
  <rdf:RDF xmlns:dc="http://purl.org/dc/elements/1.1/" xmlns:cc="http://creativecommons.org/ns#" xmlns:rdf="http://www.w3.org/1999/02/22-rdf-syntax-ns#">
   <cc:Work>
    <dc:type rdf:resource="http://purl.org/dc/dcmitype/StillImage"/>
    <dc:date>2022-06-01T08:06:06.589854</dc:date>
    <dc:format>image/svg+xml</dc:format>
    <dc:creator>
     <cc:Agent>
      <dc:title>Matplotlib v3.5.1, https://matplotlib.org/</dc:title>
     </cc:Agent>
    </dc:creator>
   </cc:Work>
  </rdf:RDF>
 </metadata>
 <defs>
  <style type="text/css">*{stroke-linejoin: round; stroke-linecap: butt}</style>
 </defs>
 <g id="figure_1">
  <g id="patch_1">
   <path d="M 0 345.6 
L 460.8 345.6 
L 460.8 0 
L 0 0 
z
" style="fill: #ffffff"/>
  </g>
  <g id="axes_1">
   <g id="patch_2">
    <path d="M 57.6 307.584 
L 414.72 307.584 
L 414.72 41.472 
L 57.6 41.472 
z
" style="fill: #ffffff"/>
   </g>
   <g id="matplotlib.axis_1">
    <g id="xtick_1">
     <g id="line2d_1">
      <defs>
       <path id="mf807b346f5" d="M 0 0 
L 0 3.5 
" style="stroke: #000000; stroke-width: 0.8"/>
      </defs>
      <g>
       <use xlink:href="#mf807b346f5" x="73.832727" y="307.584" style="stroke: #000000; stroke-width: 0.8"/>
      </g>
     </g>
     <g id="text_1">
      <!-- 0 -->
      <g transform="translate(70.651477 322.182437)scale(0.1 -0.1)">
       <defs>
        <path id="DejaVuSans-30" d="M 2034 4250 
Q 1547 4250 1301 3770 
Q 1056 3291 1056 2328 
Q 1056 1369 1301 889 
Q 1547 409 2034 409 
Q 2525 409 2770 889 
Q 3016 1369 3016 2328 
Q 3016 3291 2770 3770 
Q 2525 4250 2034 4250 
z
M 2034 4750 
Q 2819 4750 3233 4129 
Q 3647 3509 3647 2328 
Q 3647 1150 3233 529 
Q 2819 -91 2034 -91 
Q 1250 -91 836 529 
Q 422 1150 422 2328 
Q 422 3509 836 4129 
Q 1250 4750 2034 4750 
z
" transform="scale(0.015625)"/>
       </defs>
       <use xlink:href="#DejaVuSans-30"/>
      </g>
     </g>
    </g>
    <g id="xtick_2">
     <g id="line2d_2">
      <g>
       <use xlink:href="#mf807b346f5" x="114.700621" y="307.584" style="stroke: #000000; stroke-width: 0.8"/>
      </g>
     </g>
     <g id="text_2">
      <!-- 250 -->
      <g transform="translate(105.156871 322.182437)scale(0.1 -0.1)">
       <defs>
        <path id="DejaVuSans-32" d="M 1228 531 
L 3431 531 
L 3431 0 
L 469 0 
L 469 531 
Q 828 903 1448 1529 
Q 2069 2156 2228 2338 
Q 2531 2678 2651 2914 
Q 2772 3150 2772 3378 
Q 2772 3750 2511 3984 
Q 2250 4219 1831 4219 
Q 1534 4219 1204 4116 
Q 875 4013 500 3803 
L 500 4441 
Q 881 4594 1212 4672 
Q 1544 4750 1819 4750 
Q 2544 4750 2975 4387 
Q 3406 4025 3406 3419 
Q 3406 3131 3298 2873 
Q 3191 2616 2906 2266 
Q 2828 2175 2409 1742 
Q 1991 1309 1228 531 
z
" transform="scale(0.015625)"/>
        <path id="DejaVuSans-35" d="M 691 4666 
L 3169 4666 
L 3169 4134 
L 1269 4134 
L 1269 2991 
Q 1406 3038 1543 3061 
Q 1681 3084 1819 3084 
Q 2600 3084 3056 2656 
Q 3513 2228 3513 1497 
Q 3513 744 3044 326 
Q 2575 -91 1722 -91 
Q 1428 -91 1123 -41 
Q 819 9 494 109 
L 494 744 
Q 775 591 1075 516 
Q 1375 441 1709 441 
Q 2250 441 2565 725 
Q 2881 1009 2881 1497 
Q 2881 1984 2565 2268 
Q 2250 2553 1709 2553 
Q 1456 2553 1204 2497 
Q 953 2441 691 2322 
L 691 4666 
z
" transform="scale(0.015625)"/>
       </defs>
       <use xlink:href="#DejaVuSans-32"/>
       <use xlink:href="#DejaVuSans-35" x="63.623047"/>
       <use xlink:href="#DejaVuSans-30" x="127.246094"/>
      </g>
     </g>
    </g>
    <g id="xtick_3">
     <g id="line2d_3">
      <g>
       <use xlink:href="#mf807b346f5" x="155.568514" y="307.584" style="stroke: #000000; stroke-width: 0.8"/>
      </g>
     </g>
     <g id="text_3">
      <!-- 500 -->
      <g transform="translate(146.024764 322.182437)scale(0.1 -0.1)">
       <use xlink:href="#DejaVuSans-35"/>
       <use xlink:href="#DejaVuSans-30" x="63.623047"/>
       <use xlink:href="#DejaVuSans-30" x="127.246094"/>
      </g>
     </g>
    </g>
    <g id="xtick_4">
     <g id="line2d_4">
      <g>
       <use xlink:href="#mf807b346f5" x="196.436408" y="307.584" style="stroke: #000000; stroke-width: 0.8"/>
      </g>
     </g>
     <g id="text_4">
      <!-- 750 -->
      <g transform="translate(186.892658 322.182437)scale(0.1 -0.1)">
       <defs>
        <path id="DejaVuSans-37" d="M 525 4666 
L 3525 4666 
L 3525 4397 
L 1831 0 
L 1172 0 
L 2766 4134 
L 525 4134 
L 525 4666 
z
" transform="scale(0.015625)"/>
       </defs>
       <use xlink:href="#DejaVuSans-37"/>
       <use xlink:href="#DejaVuSans-35" x="63.623047"/>
       <use xlink:href="#DejaVuSans-30" x="127.246094"/>
      </g>
     </g>
    </g>
    <g id="xtick_5">
     <g id="line2d_5">
      <g>
       <use xlink:href="#mf807b346f5" x="237.304301" y="307.584" style="stroke: #000000; stroke-width: 0.8"/>
      </g>
     </g>
     <g id="text_5">
      <!-- 1000 -->
      <g transform="translate(224.579301 322.182437)scale(0.1 -0.1)">
       <defs>
        <path id="DejaVuSans-31" d="M 794 531 
L 1825 531 
L 1825 4091 
L 703 3866 
L 703 4441 
L 1819 4666 
L 2450 4666 
L 2450 531 
L 3481 531 
L 3481 0 
L 794 0 
L 794 531 
z
" transform="scale(0.015625)"/>
       </defs>
       <use xlink:href="#DejaVuSans-31"/>
       <use xlink:href="#DejaVuSans-30" x="63.623047"/>
       <use xlink:href="#DejaVuSans-30" x="127.246094"/>
       <use xlink:href="#DejaVuSans-30" x="190.869141"/>
      </g>
     </g>
    </g>
    <g id="xtick_6">
     <g id="line2d_6">
      <g>
       <use xlink:href="#mf807b346f5" x="278.172194" y="307.584" style="stroke: #000000; stroke-width: 0.8"/>
      </g>
     </g>
     <g id="text_6">
      <!-- 1250 -->
      <g transform="translate(265.447194 322.182437)scale(0.1 -0.1)">
       <use xlink:href="#DejaVuSans-31"/>
       <use xlink:href="#DejaVuSans-32" x="63.623047"/>
       <use xlink:href="#DejaVuSans-35" x="127.246094"/>
       <use xlink:href="#DejaVuSans-30" x="190.869141"/>
      </g>
     </g>
    </g>
    <g id="xtick_7">
     <g id="line2d_7">
      <g>
       <use xlink:href="#mf807b346f5" x="319.040088" y="307.584" style="stroke: #000000; stroke-width: 0.8"/>
      </g>
     </g>
     <g id="text_7">
      <!-- 1500 -->
      <g transform="translate(306.315088 322.182437)scale(0.1 -0.1)">
       <use xlink:href="#DejaVuSans-31"/>
       <use xlink:href="#DejaVuSans-35" x="63.623047"/>
       <use xlink:href="#DejaVuSans-30" x="127.246094"/>
       <use xlink:href="#DejaVuSans-30" x="190.869141"/>
      </g>
     </g>
    </g>
    <g id="xtick_8">
     <g id="line2d_8">
      <g>
       <use xlink:href="#mf807b346f5" x="359.907981" y="307.584" style="stroke: #000000; stroke-width: 0.8"/>
      </g>
     </g>
     <g id="text_8">
      <!-- 1750 -->
      <g transform="translate(347.182981 322.182437)scale(0.1 -0.1)">
       <use xlink:href="#DejaVuSans-31"/>
       <use xlink:href="#DejaVuSans-37" x="63.623047"/>
       <use xlink:href="#DejaVuSans-35" x="127.246094"/>
       <use xlink:href="#DejaVuSans-30" x="190.869141"/>
      </g>
     </g>
    </g>
    <g id="xtick_9">
     <g id="line2d_9">
      <g>
       <use xlink:href="#mf807b346f5" x="400.775875" y="307.584" style="stroke: #000000; stroke-width: 0.8"/>
      </g>
     </g>
     <g id="text_9">
      <!-- 2000 -->
      <g transform="translate(388.050875 322.182437)scale(0.1 -0.1)">
       <use xlink:href="#DejaVuSans-32"/>
       <use xlink:href="#DejaVuSans-30" x="63.623047"/>
       <use xlink:href="#DejaVuSans-30" x="127.246094"/>
       <use xlink:href="#DejaVuSans-30" x="190.869141"/>
      </g>
     </g>
    </g>
    <g id="text_10">
     <!-- num swaps -->
     <g transform="translate(207.826406 335.860562)scale(0.1 -0.1)">
      <defs>
       <path id="DejaVuSans-6e" d="M 3513 2113 
L 3513 0 
L 2938 0 
L 2938 2094 
Q 2938 2591 2744 2837 
Q 2550 3084 2163 3084 
Q 1697 3084 1428 2787 
Q 1159 2491 1159 1978 
L 1159 0 
L 581 0 
L 581 3500 
L 1159 3500 
L 1159 2956 
Q 1366 3272 1645 3428 
Q 1925 3584 2291 3584 
Q 2894 3584 3203 3211 
Q 3513 2838 3513 2113 
z
" transform="scale(0.015625)"/>
       <path id="DejaVuSans-75" d="M 544 1381 
L 544 3500 
L 1119 3500 
L 1119 1403 
Q 1119 906 1312 657 
Q 1506 409 1894 409 
Q 2359 409 2629 706 
Q 2900 1003 2900 1516 
L 2900 3500 
L 3475 3500 
L 3475 0 
L 2900 0 
L 2900 538 
Q 2691 219 2414 64 
Q 2138 -91 1772 -91 
Q 1169 -91 856 284 
Q 544 659 544 1381 
z
M 1991 3584 
L 1991 3584 
z
" transform="scale(0.015625)"/>
       <path id="DejaVuSans-6d" d="M 3328 2828 
Q 3544 3216 3844 3400 
Q 4144 3584 4550 3584 
Q 5097 3584 5394 3201 
Q 5691 2819 5691 2113 
L 5691 0 
L 5113 0 
L 5113 2094 
Q 5113 2597 4934 2840 
Q 4756 3084 4391 3084 
Q 3944 3084 3684 2787 
Q 3425 2491 3425 1978 
L 3425 0 
L 2847 0 
L 2847 2094 
Q 2847 2600 2669 2842 
Q 2491 3084 2119 3084 
Q 1678 3084 1418 2786 
Q 1159 2488 1159 1978 
L 1159 0 
L 581 0 
L 581 3500 
L 1159 3500 
L 1159 2956 
Q 1356 3278 1631 3431 
Q 1906 3584 2284 3584 
Q 2666 3584 2933 3390 
Q 3200 3197 3328 2828 
z
" transform="scale(0.015625)"/>
       <path id="DejaVuSans-20" transform="scale(0.015625)"/>
       <path id="DejaVuSans-73" d="M 2834 3397 
L 2834 2853 
Q 2591 2978 2328 3040 
Q 2066 3103 1784 3103 
Q 1356 3103 1142 2972 
Q 928 2841 928 2578 
Q 928 2378 1081 2264 
Q 1234 2150 1697 2047 
L 1894 2003 
Q 2506 1872 2764 1633 
Q 3022 1394 3022 966 
Q 3022 478 2636 193 
Q 2250 -91 1575 -91 
Q 1294 -91 989 -36 
Q 684 19 347 128 
L 347 722 
Q 666 556 975 473 
Q 1284 391 1588 391 
Q 1994 391 2212 530 
Q 2431 669 2431 922 
Q 2431 1156 2273 1281 
Q 2116 1406 1581 1522 
L 1381 1569 
Q 847 1681 609 1914 
Q 372 2147 372 2553 
Q 372 3047 722 3315 
Q 1072 3584 1716 3584 
Q 2034 3584 2315 3537 
Q 2597 3491 2834 3397 
z
" transform="scale(0.015625)"/>
       <path id="DejaVuSans-77" d="M 269 3500 
L 844 3500 
L 1563 769 
L 2278 3500 
L 2956 3500 
L 3675 769 
L 4391 3500 
L 4966 3500 
L 4050 0 
L 3372 0 
L 2619 2869 
L 1863 0 
L 1184 0 
L 269 3500 
z
" transform="scale(0.015625)"/>
       <path id="DejaVuSans-61" d="M 2194 1759 
Q 1497 1759 1228 1600 
Q 959 1441 959 1056 
Q 959 750 1161 570 
Q 1363 391 1709 391 
Q 2188 391 2477 730 
Q 2766 1069 2766 1631 
L 2766 1759 
L 2194 1759 
z
M 3341 1997 
L 3341 0 
L 2766 0 
L 2766 531 
Q 2569 213 2275 61 
Q 1981 -91 1556 -91 
Q 1019 -91 701 211 
Q 384 513 384 1019 
Q 384 1609 779 1909 
Q 1175 2209 1959 2209 
L 2766 2209 
L 2766 2266 
Q 2766 2663 2505 2880 
Q 2244 3097 1772 3097 
Q 1472 3097 1187 3025 
Q 903 2953 641 2809 
L 641 3341 
Q 956 3463 1253 3523 
Q 1550 3584 1831 3584 
Q 2591 3584 2966 3190 
Q 3341 2797 3341 1997 
z
" transform="scale(0.015625)"/>
       <path id="DejaVuSans-70" d="M 1159 525 
L 1159 -1331 
L 581 -1331 
L 581 3500 
L 1159 3500 
L 1159 2969 
Q 1341 3281 1617 3432 
Q 1894 3584 2278 3584 
Q 2916 3584 3314 3078 
Q 3713 2572 3713 1747 
Q 3713 922 3314 415 
Q 2916 -91 2278 -91 
Q 1894 -91 1617 61 
Q 1341 213 1159 525 
z
M 3116 1747 
Q 3116 2381 2855 2742 
Q 2594 3103 2138 3103 
Q 1681 3103 1420 2742 
Q 1159 2381 1159 1747 
Q 1159 1113 1420 752 
Q 1681 391 2138 391 
Q 2594 391 2855 752 
Q 3116 1113 3116 1747 
z
" transform="scale(0.015625)"/>
      </defs>
      <use xlink:href="#DejaVuSans-6e"/>
      <use xlink:href="#DejaVuSans-75" x="63.378906"/>
      <use xlink:href="#DejaVuSans-6d" x="126.757812"/>
      <use xlink:href="#DejaVuSans-20" x="224.169922"/>
      <use xlink:href="#DejaVuSans-73" x="255.957031"/>
      <use xlink:href="#DejaVuSans-77" x="308.056641"/>
      <use xlink:href="#DejaVuSans-61" x="389.84375"/>
      <use xlink:href="#DejaVuSans-70" x="451.123047"/>
      <use xlink:href="#DejaVuSans-73" x="514.599609"/>
     </g>
    </g>
   </g>
   <g id="matplotlib.axis_2">
    <g id="ytick_1">
     <g id="line2d_10">
      <defs>
       <path id="m43608555a8" d="M 0 0 
L -3.5 0 
" style="stroke: #000000; stroke-width: 0.8"/>
      </defs>
      <g>
       <use xlink:href="#m43608555a8" x="57.6" y="295.488" style="stroke: #000000; stroke-width: 0.8"/>
      </g>
     </g>
     <g id="text_11">
      <!-- 900 -->
      <g transform="translate(31.5125 299.287219)scale(0.1 -0.1)">
       <defs>
        <path id="DejaVuSans-39" d="M 703 97 
L 703 672 
Q 941 559 1184 500 
Q 1428 441 1663 441 
Q 2288 441 2617 861 
Q 2947 1281 2994 2138 
Q 2813 1869 2534 1725 
Q 2256 1581 1919 1581 
Q 1219 1581 811 2004 
Q 403 2428 403 3163 
Q 403 3881 828 4315 
Q 1253 4750 1959 4750 
Q 2769 4750 3195 4129 
Q 3622 3509 3622 2328 
Q 3622 1225 3098 567 
Q 2575 -91 1691 -91 
Q 1453 -91 1209 -44 
Q 966 3 703 97 
z
M 1959 2075 
Q 2384 2075 2632 2365 
Q 2881 2656 2881 3163 
Q 2881 3666 2632 3958 
Q 2384 4250 1959 4250 
Q 1534 4250 1286 3958 
Q 1038 3666 1038 3163 
Q 1038 2656 1286 2365 
Q 1534 2075 1959 2075 
z
" transform="scale(0.015625)"/>
       </defs>
       <use xlink:href="#DejaVuSans-39"/>
       <use xlink:href="#DejaVuSans-30" x="63.623047"/>
       <use xlink:href="#DejaVuSans-30" x="127.246094"/>
      </g>
     </g>
    </g>
    <g id="ytick_2">
     <g id="line2d_11">
      <g>
       <use xlink:href="#m43608555a8" x="57.6" y="249.143172" style="stroke: #000000; stroke-width: 0.8"/>
      </g>
     </g>
     <g id="text_12">
      <!-- 1000 -->
      <g transform="translate(25.15 252.942391)scale(0.1 -0.1)">
       <use xlink:href="#DejaVuSans-31"/>
       <use xlink:href="#DejaVuSans-30" x="63.623047"/>
       <use xlink:href="#DejaVuSans-30" x="127.246094"/>
       <use xlink:href="#DejaVuSans-30" x="190.869141"/>
      </g>
     </g>
    </g>
    <g id="ytick_3">
     <g id="line2d_12">
      <g>
       <use xlink:href="#m43608555a8" x="57.6" y="202.798345" style="stroke: #000000; stroke-width: 0.8"/>
      </g>
     </g>
     <g id="text_13">
      <!-- 1100 -->
      <g transform="translate(25.15 206.597564)scale(0.1 -0.1)">
       <use xlink:href="#DejaVuSans-31"/>
       <use xlink:href="#DejaVuSans-31" x="63.623047"/>
       <use xlink:href="#DejaVuSans-30" x="127.246094"/>
       <use xlink:href="#DejaVuSans-30" x="190.869141"/>
      </g>
     </g>
    </g>
    <g id="ytick_4">
     <g id="line2d_13">
      <g>
       <use xlink:href="#m43608555a8" x="57.6" y="156.453517" style="stroke: #000000; stroke-width: 0.8"/>
      </g>
     </g>
     <g id="text_14">
      <!-- 1200 -->
      <g transform="translate(25.15 160.252736)scale(0.1 -0.1)">
       <use xlink:href="#DejaVuSans-31"/>
       <use xlink:href="#DejaVuSans-32" x="63.623047"/>
       <use xlink:href="#DejaVuSans-30" x="127.246094"/>
       <use xlink:href="#DejaVuSans-30" x="190.869141"/>
      </g>
     </g>
    </g>
    <g id="ytick_5">
     <g id="line2d_14">
      <g>
       <use xlink:href="#m43608555a8" x="57.6" y="110.10869" style="stroke: #000000; stroke-width: 0.8"/>
      </g>
     </g>
     <g id="text_15">
      <!-- 1300 -->
      <g transform="translate(25.15 113.907908)scale(0.1 -0.1)">
       <defs>
        <path id="DejaVuSans-33" d="M 2597 2516 
Q 3050 2419 3304 2112 
Q 3559 1806 3559 1356 
Q 3559 666 3084 287 
Q 2609 -91 1734 -91 
Q 1441 -91 1130 -33 
Q 819 25 488 141 
L 488 750 
Q 750 597 1062 519 
Q 1375 441 1716 441 
Q 2309 441 2620 675 
Q 2931 909 2931 1356 
Q 2931 1769 2642 2001 
Q 2353 2234 1838 2234 
L 1294 2234 
L 1294 2753 
L 1863 2753 
Q 2328 2753 2575 2939 
Q 2822 3125 2822 3475 
Q 2822 3834 2567 4026 
Q 2313 4219 1838 4219 
Q 1578 4219 1281 4162 
Q 984 4106 628 3988 
L 628 4550 
Q 988 4650 1302 4700 
Q 1616 4750 1894 4750 
Q 2613 4750 3031 4423 
Q 3450 4097 3450 3541 
Q 3450 3153 3228 2886 
Q 3006 2619 2597 2516 
z
" transform="scale(0.015625)"/>
       </defs>
       <use xlink:href="#DejaVuSans-31"/>
       <use xlink:href="#DejaVuSans-33" x="63.623047"/>
       <use xlink:href="#DejaVuSans-30" x="127.246094"/>
       <use xlink:href="#DejaVuSans-30" x="190.869141"/>
      </g>
     </g>
    </g>
    <g id="ytick_6">
     <g id="line2d_15">
      <g>
       <use xlink:href="#m43608555a8" x="57.6" y="63.763862" style="stroke: #000000; stroke-width: 0.8"/>
      </g>
     </g>
     <g id="text_16">
      <!-- 1400 -->
      <g transform="translate(25.15 67.563081)scale(0.1 -0.1)">
       <defs>
        <path id="DejaVuSans-34" d="M 2419 4116 
L 825 1625 
L 2419 1625 
L 2419 4116 
z
M 2253 4666 
L 3047 4666 
L 3047 1625 
L 3713 1625 
L 3713 1100 
L 3047 1100 
L 3047 0 
L 2419 0 
L 2419 1100 
L 313 1100 
L 313 1709 
L 2253 4666 
z
" transform="scale(0.015625)"/>
       </defs>
       <use xlink:href="#DejaVuSans-31"/>
       <use xlink:href="#DejaVuSans-34" x="63.623047"/>
       <use xlink:href="#DejaVuSans-30" x="127.246094"/>
       <use xlink:href="#DejaVuSans-30" x="190.869141"/>
      </g>
     </g>
    </g>
    <g id="text_17">
     <!-- total cost -->
     <g transform="translate(19.070312 197.923313)rotate(-90)scale(0.1 -0.1)">
      <defs>
       <path id="DejaVuSans-74" d="M 1172 4494 
L 1172 3500 
L 2356 3500 
L 2356 3053 
L 1172 3053 
L 1172 1153 
Q 1172 725 1289 603 
Q 1406 481 1766 481 
L 2356 481 
L 2356 0 
L 1766 0 
Q 1100 0 847 248 
Q 594 497 594 1153 
L 594 3053 
L 172 3053 
L 172 3500 
L 594 3500 
L 594 4494 
L 1172 4494 
z
" transform="scale(0.015625)"/>
       <path id="DejaVuSans-6f" d="M 1959 3097 
Q 1497 3097 1228 2736 
Q 959 2375 959 1747 
Q 959 1119 1226 758 
Q 1494 397 1959 397 
Q 2419 397 2687 759 
Q 2956 1122 2956 1747 
Q 2956 2369 2687 2733 
Q 2419 3097 1959 3097 
z
M 1959 3584 
Q 2709 3584 3137 3096 
Q 3566 2609 3566 1747 
Q 3566 888 3137 398 
Q 2709 -91 1959 -91 
Q 1206 -91 779 398 
Q 353 888 353 1747 
Q 353 2609 779 3096 
Q 1206 3584 1959 3584 
z
" transform="scale(0.015625)"/>
       <path id="DejaVuSans-6c" d="M 603 4863 
L 1178 4863 
L 1178 0 
L 603 0 
L 603 4863 
z
" transform="scale(0.015625)"/>
       <path id="DejaVuSans-63" d="M 3122 3366 
L 3122 2828 
Q 2878 2963 2633 3030 
Q 2388 3097 2138 3097 
Q 1578 3097 1268 2742 
Q 959 2388 959 1747 
Q 959 1106 1268 751 
Q 1578 397 2138 397 
Q 2388 397 2633 464 
Q 2878 531 3122 666 
L 3122 134 
Q 2881 22 2623 -34 
Q 2366 -91 2075 -91 
Q 1284 -91 818 406 
Q 353 903 353 1747 
Q 353 2603 823 3093 
Q 1294 3584 2113 3584 
Q 2378 3584 2631 3529 
Q 2884 3475 3122 3366 
z
" transform="scale(0.015625)"/>
      </defs>
      <use xlink:href="#DejaVuSans-74"/>
      <use xlink:href="#DejaVuSans-6f" x="39.208984"/>
      <use xlink:href="#DejaVuSans-74" x="100.390625"/>
      <use xlink:href="#DejaVuSans-61" x="139.599609"/>
      <use xlink:href="#DejaVuSans-6c" x="200.878906"/>
      <use xlink:href="#DejaVuSans-20" x="228.662109"/>
      <use xlink:href="#DejaVuSans-63" x="260.449219"/>
      <use xlink:href="#DejaVuSans-6f" x="315.429688"/>
      <use xlink:href="#DejaVuSans-73" x="376.611328"/>
      <use xlink:href="#DejaVuSans-74" x="428.710938"/>
     </g>
    </g>
   </g>
   <g id="line2d_16">
    <path d="M 73.832727 116.133517 
L 74.15967 122.621793 
L 74.486614 114.743172 
L 74.813557 118.914207 
L 75.1405 131.890759 
L 75.467443 130.036966 
L 76.121329 145.330759 
L 76.448272 143.476966 
L 76.775216 139.769379 
L 77.102159 144.86731 
L 77.429102 130.036966 
L 78.082988 130.036966 
L 78.409931 132.817655 
L 78.736874 142.086621 
L 79.063818 141.623172 
L 79.390761 143.013517 
L 79.717704 133.281103 
L 80.044647 136.525241 
L 80.37159 118.914207 
L 81.025477 124.939034 
L 81.35242 111.499034 
L 82.006306 120.304552 
L 82.660192 149.965241 
L 82.987135 150.42869 
L 83.314079 154.599724 
L 83.641022 161.088 
L 83.967965 160.161103 
L 84.294908 162.014897 
L 84.948794 156.453517 
L 85.275737 160.624552 
L 85.602681 161.551448 
L 85.929624 171.74731 
L 86.256567 171.283862 
L 86.58351 179.625931 
L 86.910453 180.552828 
L 87.237396 162.941793 
L 87.564339 160.624552 
L 87.891283 161.088 
L 88.218226 155.990069 
L 88.545169 166.649379 
L 88.872112 158.30731 
L 89.199055 154.136276 
L 89.525998 153.672828 
L 89.852941 153.672828 
L 90.179885 157.380414 
L 90.506828 154.136276 
L 90.833771 157.380414 
L 91.160714 150.42869 
L 91.487657 149.501793 
L 91.8146 156.453517 
L 92.141544 146.257655 
L 92.468487 155.526621 
L 92.79543 144.403862 
L 93.122373 145.330759 
L 93.449316 145.794207 
L 93.776259 155.990069 
L 94.103202 152.282483 
L 94.430146 142.086621 
L 94.757089 139.305931 
L 95.084032 145.794207 
L 95.410975 146.721103 
L 95.737918 139.305931 
L 96.064861 138.379034 
L 96.718748 158.770759 
L 97.045691 150.42869 
L 97.372634 166.185931 
L 97.699577 168.503172 
L 98.02652 160.161103 
L 98.353463 158.770759 
L 98.680406 161.551448 
L 99.00735 162.478345 
L 99.334293 159.234207 
L 99.661236 158.30731 
L 99.988179 151.819034 
L 100.315122 140.696276 
L 100.642065 148.574897 
L 100.969009 141.623172 
L 101.295952 130.036966 
L 101.622895 144.86731 
L 101.949838 116.596966 
L 102.276781 115.670069 
L 102.603724 113.816276 
L 102.930667 97.132138 
L 103.257611 98.985931 
L 103.911497 91.10731 
L 104.23844 106.864552 
L 104.565383 104.083862 
L 104.892326 112.425931 
L 105.219269 132.354207 
L 105.546213 117.98731 
L 105.873156 123.54869 
L 106.200099 133.744552 
L 106.527042 139.305931 
L 106.853985 150.892138 
L 107.180928 150.42869 
L 107.507871 146.721103 
L 107.834815 147.648 
L 108.161758 132.817655 
L 108.488701 127.256276 
L 108.815644 116.596966 
L 109.142587 112.889379 
L 109.46953 116.596966 
L 110.123417 116.596966 
L 110.45036 128.646621 
L 110.777303 123.085241 
L 111.104246 126.792828 
L 111.431189 117.98731 
L 111.758132 119.841103 
L 112.085076 124.475586 
L 112.412019 126.792828 
L 112.738962 123.085241 
L 113.392848 135.598345 
L 113.719791 139.769379 
L 114.046734 140.232828 
L 114.373678 136.061793 
L 114.700621 124.012138 
L 115.027564 133.281103 
L 115.354507 136.98869 
L 115.68145 136.061793 
L 116.008393 141.623172 
L 116.335336 142.550069 
L 116.66228 127.719724 
L 116.989223 134.208 
L 117.316166 149.501793 
L 117.643109 146.721103 
L 117.970052 150.42869 
L 118.296995 130.963862 
L 118.623938 141.623172 
L 118.950882 134.671448 
L 119.277825 117.060414 
L 119.604768 117.98731 
L 120.258654 105.474207 
L 120.585597 78.130759 
L 120.912541 69.78869 
L 121.239484 76.276966 
L 121.566427 58.665931 
L 122.220313 71.179034 
L 122.874199 86.936276 
L 123.201143 85.545931 
L 123.528086 91.10731 
L 123.855029 82.765241 
L 124.181972 65.617655 
L 124.835858 67.471448 
L 125.162801 66.544552 
L 125.489745 74.423172 
L 125.816688 76.276966 
L 126.143631 81.374897 
L 126.470574 92.034207 
L 126.797517 89.716966 
L 127.12446 102.693517 
L 127.451403 82.301793 
L 127.778347 85.082483 
L 128.10529 86.472828 
L 128.432233 92.034207 
L 128.759176 93.424552 
L 129.086119 87.863172 
L 129.413062 90.180414 
L 129.740005 71.179034 
L 130.066949 77.66731 
L 130.393892 71.179034 
L 130.720835 76.740414 
L 131.047778 69.78869 
L 131.374721 81.838345 
L 131.701664 75.350069 
L 132.028608 63.763862 
L 132.355551 58.665931 
L 132.682494 63.300414 
L 133.33638 54.031448 
L 133.663323 73.032828 
L 133.990266 62.836966 
L 134.31721 68.861793 
L 134.644153 63.300414 
L 134.971096 73.496276 
L 135.298039 77.66731 
L 135.624982 67.471448 
L 135.951925 53.568 
L 136.278868 59.129379 
L 136.605812 62.373517 
L 136.932755 54.031448 
L 137.586641 74.423172 
L 137.913584 93.424552 
L 138.240527 95.278345 
L 138.56747 101.766621 
L 138.894414 100.839724 
L 139.221357 97.132138 
L 139.5483 103.620414 
L 139.875243 115.670069 
L 140.202186 108.718345 
L 140.529129 93.888 
L 140.856073 99.449379 
L 141.183016 96.66869 
L 141.509959 86.472828 
L 141.836902 86.009379 
L 142.163845 86.936276 
L 142.490788 88.790069 
L 142.817731 102.693517 
L 143.144675 107.791448 
L 143.471618 86.936276 
L 143.798561 79.057655 
L 144.125504 87.399724 
L 144.452447 88.326621 
L 144.77939 90.180414 
L 145.106333 88.790069 
L 145.433277 90.180414 
L 145.76022 85.082483 
L 146.087163 85.082483 
L 146.414106 87.399724 
L 146.741049 140.696276 
L 147.067992 132.817655 
L 147.394935 168.503172 
L 147.721879 174.991448 
L 148.048822 154.599724 
L 148.375765 163.86869 
L 148.702708 162.478345 
L 149.029651 155.990069 
L 149.356594 143.940414 
L 149.683537 145.794207 
L 150.010481 136.061793 
L 150.337424 146.721103 
L 150.664367 144.86731 
L 150.99131 147.184552 
L 151.318253 143.940414 
L 151.645196 136.525241 
L 152.299083 143.013517 
L 152.626026 135.598345 
L 152.952969 143.013517 
L 153.279912 138.379034 
L 153.606855 147.648 
L 153.933798 143.940414 
L 154.260742 134.208 
L 154.587685 137.915586 
L 154.914628 136.061793 
L 155.241571 147.184552 
L 155.568514 149.965241 
L 155.895457 140.232828 
L 156.2224 135.598345 
L 156.549344 141.623172 
L 157.20323 165.722483 
L 157.530173 168.503172 
L 157.857116 176.845241 
L 158.184059 175.918345 
L 158.511002 163.86869 
L 158.837946 159.234207 
L 159.491832 155.063172 
L 160.145718 125.402483 
L 160.472661 124.012138 
L 160.799605 125.402483 
L 161.126548 136.525241 
L 161.453491 166.185931 
L 161.780434 163.405241 
L 162.107377 158.30731 
L 163.088207 169.430069 
L 163.41515 172.210759 
L 163.742093 179.162483 
L 164.069036 190.285241 
L 164.395979 175.454897 
L 164.722922 168.503172 
L 165.049865 183.333517 
L 165.376809 182.870069 
L 165.703752 184.723862 
L 166.030695 171.283862 
L 166.357638 181.479724 
L 167.338467 170.820414 
L 167.665411 176.845241 
L 167.992354 170.356966 
L 168.319297 185.18731 
L 168.64624 182.406621 
L 168.973183 186.577655 
L 169.300126 193.065931 
L 169.627069 196.773517 
L 169.954013 202.334897 
L 170.280956 203.725241 
L 170.607899 200.944552 
L 170.934842 180.552828 
L 171.261785 186.114207 
L 171.588728 180.552828 
L 171.915672 189.358345 
L 172.242615 159.697655 
L 172.569558 163.86869 
L 172.896501 155.526621 
L 173.223444 166.649379 
L 173.550387 163.86869 
L 174.204274 178.699034 
L 174.531217 174.991448 
L 174.85816 167.576276 
L 175.185103 162.941793 
L 175.512046 154.136276 
L 175.838989 153.209379 
L 176.165932 153.209379 
L 176.492876 164.332138 
L 176.819819 156.916966 
L 177.146762 155.990069 
L 177.473705 152.282483 
L 177.800648 163.405241 
L 178.127591 161.088 
L 178.454534 155.526621 
L 178.781478 158.30731 
L 179.762307 136.061793 
L 180.08925 144.403862 
L 180.416193 147.184552 
L 180.743137 147.184552 
L 181.07008 143.013517 
L 181.397023 141.159724 
L 181.723966 143.013517 
L 182.050909 143.013517 
L 182.377852 137.915586 
L 182.704795 146.257655 
L 183.031739 148.111448 
L 183.358682 146.257655 
L 183.685625 155.990069 
L 184.012568 157.843862 
L 184.339511 144.403862 
L 184.666454 144.403862 
L 184.993397 143.476966 
L 185.320341 134.208 
L 185.647284 132.354207 
L 185.974227 133.281103 
L 186.30117 136.061793 
L 186.628113 137.452138 
L 186.955056 130.963862 
L 187.281999 128.183172 
L 187.935886 143.013517 
L 188.262829 142.086621 
L 188.589772 143.013517 
L 188.916715 145.330759 
L 189.243658 154.136276 
L 189.570601 171.74731 
L 189.897545 173.601103 
L 190.224488 169.893517 
L 190.551431 163.405241 
L 190.878374 159.234207 
L 191.205317 173.601103 
L 191.53226 180.089379 
L 191.859204 168.966621 
L 192.186147 172.674207 
L 192.840033 187.504552 
L 193.166976 181.016276 
L 193.820862 188.431448 
L 194.147806 181.016276 
L 194.474749 181.943172 
L 194.801692 175.918345 
L 195.128635 161.088 
L 195.455578 156.453517 
L 195.782521 161.088 
L 196.109464 149.038345 
L 196.436408 144.403862 
L 196.763351 147.184552 
L 197.090294 153.672828 
L 197.417237 172.210759 
L 197.74418 171.74731 
L 198.071123 170.820414 
L 198.398066 188.431448 
L 198.72501 197.236966 
L 199.051953 195.383172 
L 199.378896 181.479724 
L 199.705839 179.625931 
L 200.032782 183.333517 
L 200.359725 177.30869 
L 200.686668 176.381793 
L 201.013612 178.235586 
L 201.340555 181.943172 
L 201.667498 184.260414 
L 202.321384 198.62731 
L 202.975271 187.504552 
L 203.302214 194.919724 
L 203.629157 177.772138 
L 203.9561 168.966621 
L 204.283043 179.162483 
L 204.609986 181.943172 
L 204.936929 181.943172 
L 205.263873 174.528 
L 205.590816 175.454897 
L 205.917759 175.454897 
L 206.244702 168.966621 
L 206.571645 186.577655 
L 206.898588 217.62869 
L 207.225531 205.579034 
L 207.552475 219.945931 
L 207.879418 220.409379 
L 208.206361 214.848 
L 208.533304 217.165241 
L 208.860247 221.336276 
L 209.18719 212.530759 
L 209.514133 206.969379 
L 209.841077 187.968 
L 210.16802 188.894897 
L 210.494963 187.041103 
L 210.821906 171.283862 
L 211.148849 168.503172 
L 211.802736 154.136276 
L 212.129679 154.136276 
L 212.783565 170.356966 
L 213.110508 169.893517 
L 213.437451 170.820414 
L 213.764394 177.30869 
L 214.091338 174.064552 
L 214.418281 159.234207 
L 214.745224 174.064552 
L 215.072167 181.479724 
L 215.39911 184.723862 
L 215.726053 191.212138 
L 216.052996 189.358345 
L 216.37994 192.139034 
L 216.706883 181.016276 
L 217.033826 181.943172 
L 217.360769 186.577655 
L 217.687712 187.041103 
L 218.014655 183.333517 
L 218.341598 169.430069 
L 218.995485 177.772138 
L 219.322428 174.991448 
L 219.649371 179.625931 
L 219.976314 169.893517 
L 220.303257 156.453517 
L 220.6302 152.282483 
L 220.957144 168.966621 
L 221.284087 156.453517 
L 221.61103 149.038345 
L 221.937973 146.721103 
L 222.264916 149.501793 
L 222.591859 147.648 
L 222.918803 149.038345 
L 223.572689 133.744552 
L 223.899632 135.598345 
L 224.226575 144.86731 
L 224.553518 148.111448 
L 224.880461 140.696276 
L 225.207405 137.915586 
L 225.534348 137.915586 
L 225.861291 130.500414 
L 226.188234 148.111448 
L 226.515177 140.696276 
L 226.84212 141.623172 
L 227.169063 160.161103 
L 227.496007 166.185931 
L 227.82295 164.332138 
L 228.149893 158.770759 
L 228.476836 166.649379 
L 228.803779 164.332138 
L 229.457665 139.305931 
L 229.784609 142.550069 
L 230.111552 143.013517 
L 230.438495 136.061793 
L 230.765438 132.354207 
L 231.092381 124.012138 
L 231.419324 126.792828 
L 231.746268 118.450759 
L 232.073211 122.158345 
L 232.400154 114.743172 
L 232.727097 117.523862 
L 233.05404 116.133517 
L 233.380983 112.889379 
L 234.03487 133.744552 
L 234.361813 135.598345 
L 234.688756 140.232828 
L 235.015699 155.063172 
L 235.342642 160.624552 
L 235.669585 141.159724 
L 235.996528 135.598345 
L 236.323472 146.257655 
L 236.650415 151.355586 
L 236.977358 149.501793 
L 237.304301 157.380414 
L 237.631244 156.916966 
L 237.958187 151.355586 
L 238.28513 149.965241 
L 238.612074 150.892138 
L 239.26596 136.98869 
L 239.592903 130.036966 
L 240.246789 137.915586 
L 240.573732 142.550069 
L 240.900676 152.745931 
L 241.227619 134.671448 
L 241.554562 134.671448 
L 241.881505 109.645241 
L 242.208448 110.572138 
L 242.535391 121.694897 
L 242.862335 128.183172 
L 243.516221 109.645241 
L 243.843164 117.060414 
L 244.170107 119.377655 
L 244.49705 125.865931 
L 244.823993 119.377655 
L 245.150937 118.450759 
L 245.47788 164.795586 
L 245.804823 160.161103 
L 246.131766 172.674207 
L 247.112595 193.529379 
L 247.439539 191.675586 
L 247.766482 198.163862 
L 248.093425 197.700414 
L 248.420368 196.310069 
L 248.747311 196.773517 
L 249.401197 179.162483 
L 249.728141 173.601103 
L 250.055084 183.796966 
L 250.382027 200.481103 
L 250.70897 206.969379 
L 251.035913 206.969379 
L 251.362856 202.798345 
L 251.6898 203.725241 
L 252.016743 213.921103 
L 252.343686 195.846621 
L 252.670629 198.163862 
L 252.997572 186.114207 
L 253.324515 198.163862 
L 254.305345 192.139034 
L 254.632288 186.114207 
L 254.959231 192.602483 
L 255.286174 189.358345 
L 255.613117 183.333517 
L 255.94006 186.577655 
L 256.267004 185.650759 
L 256.593947 183.796966 
L 257.247833 203.725241 
L 257.574776 204.652138 
L 258.228662 192.139034 
L 258.555606 189.821793 
L 258.882549 159.234207 
L 259.209492 162.941793 
L 259.536435 164.795586 
L 260.190321 174.064552 
L 260.517264 173.601103 
L 260.844208 180.089379 
L 261.171151 176.845241 
L 261.498094 184.260414 
L 261.825037 185.650759 
L 262.15198 180.552828 
L 262.478923 191.212138 
L 262.805867 190.74869 
L 263.13281 190.74869 
L 263.459753 187.504552 
L 263.786696 181.943172 
L 264.113639 181.016276 
L 264.767525 199.554207 
L 265.094469 196.773517 
L 265.421412 186.577655 
L 265.748355 182.870069 
L 266.075298 193.992828 
L 266.402241 185.650759 
L 266.729184 186.114207 
L 267.056127 187.041103 
L 267.383071 184.260414 
L 267.710014 188.894897 
L 268.036957 188.431448 
L 268.3639 186.577655 
L 268.690843 185.650759 
L 269.017786 183.796966 
L 269.344729 195.383172 
L 269.671673 191.675586 
L 269.998616 181.016276 
L 270.325559 184.260414 
L 270.652502 179.625931 
L 270.979445 187.041103 
L 271.306388 187.968 
L 271.633332 183.796966 
L 271.960275 182.870069 
L 272.287218 179.162483 
L 272.614161 169.893517 
L 272.941104 183.333517 
L 273.268047 181.016276 
L 273.59499 190.285241 
L 273.921934 176.845241 
L 274.248877 179.162483 
L 274.57582 188.431448 
L 274.902763 191.212138 
L 275.229706 179.625931 
L 275.556649 181.479724 
L 275.883592 181.943172 
L 276.210536 163.86869 
L 276.537479 165.722483 
L 277.518308 149.501793 
L 278.172194 135.598345 
L 278.499138 144.86731 
L 278.826081 137.915586 
L 279.153024 144.403862 
L 279.80691 182.870069 
L 280.133853 182.406621 
L 280.460796 182.406621 
L 280.78774 178.699034 
L 281.114683 173.137655 
L 281.441626 165.259034 
L 281.768569 165.259034 
L 282.095512 163.405241 
L 282.422455 193.992828 
L 282.749399 194.919724 
L 283.076342 201.871448 
L 283.403285 187.968 
L 283.730228 182.870069 
L 284.057171 188.894897 
L 285.038001 218.555586 
L 285.364944 211.140414 
L 285.691887 213.457655 
L 286.01883 208.359724 
L 286.345773 214.384552 
L 286.672716 206.969379 
L 286.999659 193.992828 
L 287.326603 197.700414 
L 287.653546 200.017655 
L 287.980489 198.62731 
L 288.307432 195.383172 
L 288.634375 209.286621 
L 288.961318 210.676966 
L 289.288261 210.676966 
L 289.615205 212.530759 
L 289.942148 213.457655 
L 290.269091 205.579034 
L 290.596034 210.213517 
L 290.922977 222.263172 
L 291.24992 213.921103 
L 291.576863 211.603862 
L 292.23075 220.409379 
L 293.211579 203.725241 
L 293.538522 208.359724 
L 293.865466 204.652138 
L 294.192409 190.74869 
L 295.173238 177.772138 
L 295.500181 183.796966 
L 295.827124 176.381793 
L 296.154068 202.334897 
L 296.481011 185.18731 
L 296.807954 175.918345 
L 297.134897 175.918345 
L 297.46184 179.625931 
L 297.788783 178.699034 
L 298.115726 199.554207 
L 298.44267 192.139034 
L 298.769613 188.431448 
L 299.096556 190.74869 
L 299.423499 195.383172 
L 299.750442 193.529379 
L 300.077385 197.236966 
L 300.404328 191.675586 
L 300.731272 190.74869 
L 301.058215 195.383172 
L 301.385158 206.969379 
L 302.039044 198.62731 
L 302.365987 200.481103 
L 303.019874 187.504552 
L 303.346817 175.918345 
L 303.67376 178.235586 
L 304.000703 172.674207 
L 304.327646 185.650759 
L 304.654589 181.016276 
L 304.981533 182.870069 
L 305.308476 191.212138 
L 305.635419 182.870069 
L 305.962362 188.431448 
L 306.289305 186.114207 
L 306.943191 162.014897 
L 307.270135 181.943172 
L 307.597078 186.577655 
L 307.924021 203.261793 
L 308.250964 210.213517 
L 308.577907 202.798345 
L 308.90485 205.115586 
L 309.231793 200.481103 
L 309.558737 212.994207 
L 309.88568 216.701793 
L 310.212623 217.165241 
L 310.866509 197.236966 
L 311.193452 204.652138 
L 311.520395 205.115586 
L 311.847339 206.969379 
L 312.174282 193.065931 
L 312.828168 187.041103 
L 313.155111 188.894897 
L 313.482054 187.968 
L 313.808998 187.968 
L 314.135941 190.285241 
L 314.462884 199.554207 
L 314.789827 201.408 
L 315.11677 201.408 
L 315.443713 203.725241 
L 315.770656 204.18869 
L 316.0976 206.505931 
L 316.424543 201.871448 
L 316.751486 214.848 
L 317.078429 212.06731 
L 317.405372 217.165241 
L 317.732315 211.140414 
L 318.059258 209.750069 
L 318.713145 185.650759 
L 319.040088 189.358345 
L 319.367031 181.016276 
L 319.693974 183.796966 
L 320.34786 193.529379 
L 320.674804 187.041103 
L 321.001747 193.529379 
L 321.32869 195.383172 
L 321.982576 193.529379 
L 322.309519 193.529379 
L 322.636463 186.577655 
L 322.963406 202.334897 
L 323.290349 201.408 
L 323.617292 206.969379 
L 323.944235 200.481103 
L 324.271178 205.579034 
L 324.598121 200.017655 
L 324.925065 202.798345 
L 325.252008 203.261793 
L 325.578951 205.115586 
L 325.905894 217.165241 
L 326.232837 217.165241 
L 326.55978 218.092138 
L 326.886723 215.311448 
L 327.213667 210.213517 
L 327.54061 208.823172 
L 327.867553 211.603862 
L 328.194496 211.603862 
L 328.521439 197.700414 
L 328.848382 190.285241 
L 329.175325 202.798345 
L 329.502269 199.554207 
L 329.829212 180.089379 
L 330.156155 183.333517 
L 330.810041 193.529379 
L 331.136984 198.62731 
L 331.463927 185.18731 
L 331.790871 192.602483 
L 332.117814 192.139034 
L 332.444757 186.577655 
L 332.7717 186.114207 
L 333.098643 189.358345 
L 333.425586 196.773517 
L 333.75253 196.310069 
L 334.406416 192.139034 
L 334.733359 195.383172 
L 335.060302 211.603862 
L 335.387245 203.725241 
L 335.714188 219.482483 
L 336.041132 223.190069 
L 336.368075 219.945931 
L 336.695018 224.580414 
L 337.021961 226.897655 
L 337.348904 230.605241 
L 337.675847 240.801103 
L 338.00279 240.801103 
L 338.329734 248.216276 
L 338.656677 236.166621 
L 338.98362 244.50869 
L 339.310563 236.166621 
L 339.637506 243.118345 
L 339.964449 244.50869 
L 340.291392 235.239724 
L 340.618336 232.922483 
L 340.945279 232.922483 
L 341.272222 237.093517 
L 341.599165 237.093517 
L 341.926108 231.532138 
L 342.253051 223.653517 
L 342.579995 230.141793 
L 342.906938 215.774897 
L 344.21471 203.725241 
L 344.868597 213.457655 
L 345.19554 212.06731 
L 345.522483 202.334897 
L 345.849426 188.431448 
L 346.503312 175.918345 
L 347.157199 168.039724 
L 347.484142 174.991448 
L 347.811085 175.918345 
L 348.138028 191.212138 
L 348.464971 197.236966 
L 348.791914 207.432828 
L 349.118857 202.798345 
L 349.445801 215.774897 
L 349.772744 214.848 
L 350.099687 219.019034 
L 350.42663 212.994207 
L 350.753573 220.409379 
L 351.080516 210.213517 
L 351.407459 209.286621 
L 351.734403 211.603862 
L 352.061346 218.092138 
L 352.388289 214.384552 
L 352.715232 212.530759 
L 353.042175 219.945931 
L 353.369118 223.190069 
L 354.023005 232.922483 
L 354.349948 221.799724 
L 354.676891 223.653517 
L 355.003834 219.019034 
L 355.330777 211.140414 
L 355.65772 207.896276 
L 355.984664 211.603862 
L 356.311607 208.823172 
L 356.63855 208.823172 
L 357.292436 187.041103 
L 357.946322 200.017655 
L 358.273266 206.042483 
L 358.600209 206.969379 
L 358.927152 212.530759 
L 359.254095 221.799724 
L 359.581038 220.872828 
L 359.907981 224.580414 
L 360.234924 220.409379 
L 360.561868 205.115586 
L 360.888811 230.605241 
L 361.215754 227.361103 
L 361.542697 226.434207 
L 361.86964 233.849379 
L 362.196583 232.922483 
L 362.523527 239.874207 
L 362.85047 235.239724 
L 363.177413 238.94731 
L 363.504356 250.070069 
L 363.831299 250.996966 
L 364.158242 250.996966 
L 364.485185 263.973517 
L 364.812129 267.217655 
L 365.139072 259.339034 
L 365.792958 264.900414 
L 366.119901 269.534897 
L 366.446844 279.26731 
L 366.773787 276.486621 
L 367.100731 265.82731 
L 367.427674 267.217655 
L 367.754617 264.436966 
L 368.08156 259.339034 
L 368.408503 256.094897 
L 368.735446 257.485241 
L 369.062389 243.118345 
L 369.389333 247.752828 
L 369.716276 248.679724 
L 370.043219 246.825931 
L 370.697105 235.703172 
L 371.024048 231.995586 
L 371.350991 240.337655 
L 371.677935 239.410759 
L 372.004878 242.191448 
L 372.331821 238.020414 
L 372.658764 239.874207 
L 373.31265 246.362483 
L 373.639594 241.728 
L 373.966537 238.94731 
L 374.29348 239.874207 
L 374.620423 233.849379 
L 374.947366 225.50731 
L 375.274309 243.118345 
L 375.601252 242.654897 
L 375.928196 251.923862 
L 376.255139 256.558345 
L 376.582082 257.021793 
L 377.235968 268.144552 
L 377.889854 263.510069 
L 378.216798 265.82731 
L 378.543741 263.973517 
L 378.870684 263.046621 
L 379.197627 269.534897 
L 379.851513 256.558345 
L 380.178456 268.144552 
L 380.832343 261.656276 
L 381.159286 268.608 
L 381.486229 263.046621 
L 381.813172 270.925241 
L 382.140115 266.290759 
L 382.467059 257.021793 
L 382.794002 255.631448 
L 383.120945 256.558345 
L 383.447888 262.583172 
L 383.774831 257.94869 
L 384.101774 257.021793 
L 384.428717 256.558345 
L 384.755661 248.216276 
L 385.082604 252.38731 
L 385.409547 254.241103 
L 385.73649 248.679724 
L 386.063433 256.094897 
L 387.044263 265.363862 
L 387.371206 265.82731 
L 387.698149 270.925241 
L 388.025092 269.998345 
L 388.352035 266.754207 
L 388.678978 265.82731 
L 389.332865 286.219034 
L 389.659808 289.926621 
L 389.986751 281.584552 
L 390.313694 287.609379 
L 390.640637 285.755586 
L 391.294523 295.488 
L 391.621467 292.243862 
L 391.94841 293.170759 
L 392.275353 286.219034 
L 392.602296 282.511448 
L 392.929239 287.145931 
L 393.256182 284.365241 
L 393.583126 291.316966 
L 393.910069 269.998345 
L 394.237012 269.071448 
L 394.563955 268.608 
L 394.890898 272.315586 
L 395.217841 273.705931 
L 395.544784 270.925241 
L 395.871728 275.096276 
L 396.198671 272.315586 
L 396.525614 267.217655 
L 396.852557 267.681103 
L 397.1795 268.608 
L 397.833386 271.852138 
L 398.16033 273.705931 
L 398.487273 273.705931 
L 398.487273 273.705931 
" clip-path="url(#pa47acf92f3)" style="fill: none; stroke: #1f77b4; stroke-width: 1.5; stroke-linecap: square"/>
   </g>
   <g id="patch_3">
    <path d="M 57.6 307.584 
L 57.6 41.472 
" style="fill: none; stroke: #000000; stroke-width: 0.8; stroke-linejoin: miter; stroke-linecap: square"/>
   </g>
   <g id="patch_4">
    <path d="M 414.72 307.584 
L 414.72 41.472 
" style="fill: none; stroke: #000000; stroke-width: 0.8; stroke-linejoin: miter; stroke-linecap: square"/>
   </g>
   <g id="patch_5">
    <path d="M 57.6 307.584 
L 414.72 307.584 
" style="fill: none; stroke: #000000; stroke-width: 0.8; stroke-linejoin: miter; stroke-linecap: square"/>
   </g>
   <g id="patch_6">
    <path d="M 57.6 41.472 
L 414.72 41.472 
" style="fill: none; stroke: #000000; stroke-width: 0.8; stroke-linejoin: miter; stroke-linecap: square"/>
   </g>
   <g id="text_18">
    <!-- Simulated Anealling Cost -->
    <g transform="translate(160.8 35.472)scale(0.12 -0.12)">
     <defs>
      <path id="DejaVuSans-53" d="M 3425 4513 
L 3425 3897 
Q 3066 4069 2747 4153 
Q 2428 4238 2131 4238 
Q 1616 4238 1336 4038 
Q 1056 3838 1056 3469 
Q 1056 3159 1242 3001 
Q 1428 2844 1947 2747 
L 2328 2669 
Q 3034 2534 3370 2195 
Q 3706 1856 3706 1288 
Q 3706 609 3251 259 
Q 2797 -91 1919 -91 
Q 1588 -91 1214 -16 
Q 841 59 441 206 
L 441 856 
Q 825 641 1194 531 
Q 1563 422 1919 422 
Q 2459 422 2753 634 
Q 3047 847 3047 1241 
Q 3047 1584 2836 1778 
Q 2625 1972 2144 2069 
L 1759 2144 
Q 1053 2284 737 2584 
Q 422 2884 422 3419 
Q 422 4038 858 4394 
Q 1294 4750 2059 4750 
Q 2388 4750 2728 4690 
Q 3069 4631 3425 4513 
z
" transform="scale(0.015625)"/>
      <path id="DejaVuSans-69" d="M 603 3500 
L 1178 3500 
L 1178 0 
L 603 0 
L 603 3500 
z
M 603 4863 
L 1178 4863 
L 1178 4134 
L 603 4134 
L 603 4863 
z
" transform="scale(0.015625)"/>
      <path id="DejaVuSans-65" d="M 3597 1894 
L 3597 1613 
L 953 1613 
Q 991 1019 1311 708 
Q 1631 397 2203 397 
Q 2534 397 2845 478 
Q 3156 559 3463 722 
L 3463 178 
Q 3153 47 2828 -22 
Q 2503 -91 2169 -91 
Q 1331 -91 842 396 
Q 353 884 353 1716 
Q 353 2575 817 3079 
Q 1281 3584 2069 3584 
Q 2775 3584 3186 3129 
Q 3597 2675 3597 1894 
z
M 3022 2063 
Q 3016 2534 2758 2815 
Q 2500 3097 2075 3097 
Q 1594 3097 1305 2825 
Q 1016 2553 972 2059 
L 3022 2063 
z
" transform="scale(0.015625)"/>
      <path id="DejaVuSans-64" d="M 2906 2969 
L 2906 4863 
L 3481 4863 
L 3481 0 
L 2906 0 
L 2906 525 
Q 2725 213 2448 61 
Q 2172 -91 1784 -91 
Q 1150 -91 751 415 
Q 353 922 353 1747 
Q 353 2572 751 3078 
Q 1150 3584 1784 3584 
Q 2172 3584 2448 3432 
Q 2725 3281 2906 2969 
z
M 947 1747 
Q 947 1113 1208 752 
Q 1469 391 1925 391 
Q 2381 391 2643 752 
Q 2906 1113 2906 1747 
Q 2906 2381 2643 2742 
Q 2381 3103 1925 3103 
Q 1469 3103 1208 2742 
Q 947 2381 947 1747 
z
" transform="scale(0.015625)"/>
      <path id="DejaVuSans-41" d="M 2188 4044 
L 1331 1722 
L 3047 1722 
L 2188 4044 
z
M 1831 4666 
L 2547 4666 
L 4325 0 
L 3669 0 
L 3244 1197 
L 1141 1197 
L 716 0 
L 50 0 
L 1831 4666 
z
" transform="scale(0.015625)"/>
      <path id="DejaVuSans-67" d="M 2906 1791 
Q 2906 2416 2648 2759 
Q 2391 3103 1925 3103 
Q 1463 3103 1205 2759 
Q 947 2416 947 1791 
Q 947 1169 1205 825 
Q 1463 481 1925 481 
Q 2391 481 2648 825 
Q 2906 1169 2906 1791 
z
M 3481 434 
Q 3481 -459 3084 -895 
Q 2688 -1331 1869 -1331 
Q 1566 -1331 1297 -1286 
Q 1028 -1241 775 -1147 
L 775 -588 
Q 1028 -725 1275 -790 
Q 1522 -856 1778 -856 
Q 2344 -856 2625 -561 
Q 2906 -266 2906 331 
L 2906 616 
Q 2728 306 2450 153 
Q 2172 0 1784 0 
Q 1141 0 747 490 
Q 353 981 353 1791 
Q 353 2603 747 3093 
Q 1141 3584 1784 3584 
Q 2172 3584 2450 3431 
Q 2728 3278 2906 2969 
L 2906 3500 
L 3481 3500 
L 3481 434 
z
" transform="scale(0.015625)"/>
      <path id="DejaVuSans-43" d="M 4122 4306 
L 4122 3641 
Q 3803 3938 3442 4084 
Q 3081 4231 2675 4231 
Q 1875 4231 1450 3742 
Q 1025 3253 1025 2328 
Q 1025 1406 1450 917 
Q 1875 428 2675 428 
Q 3081 428 3442 575 
Q 3803 722 4122 1019 
L 4122 359 
Q 3791 134 3420 21 
Q 3050 -91 2638 -91 
Q 1578 -91 968 557 
Q 359 1206 359 2328 
Q 359 3453 968 4101 
Q 1578 4750 2638 4750 
Q 3056 4750 3426 4639 
Q 3797 4528 4122 4306 
z
" transform="scale(0.015625)"/>
     </defs>
     <use xlink:href="#DejaVuSans-53"/>
     <use xlink:href="#DejaVuSans-69" x="63.476562"/>
     <use xlink:href="#DejaVuSans-6d" x="91.259766"/>
     <use xlink:href="#DejaVuSans-75" x="188.671875"/>
     <use xlink:href="#DejaVuSans-6c" x="252.050781"/>
     <use xlink:href="#DejaVuSans-61" x="279.833984"/>
     <use xlink:href="#DejaVuSans-74" x="341.113281"/>
     <use xlink:href="#DejaVuSans-65" x="380.322266"/>
     <use xlink:href="#DejaVuSans-64" x="441.845703"/>
     <use xlink:href="#DejaVuSans-20" x="505.322266"/>
     <use xlink:href="#DejaVuSans-41" x="537.109375"/>
     <use xlink:href="#DejaVuSans-6e" x="605.517578"/>
     <use xlink:href="#DejaVuSans-65" x="668.896484"/>
     <use xlink:href="#DejaVuSans-61" x="730.419922"/>
     <use xlink:href="#DejaVuSans-6c" x="791.699219"/>
     <use xlink:href="#DejaVuSans-6c" x="819.482422"/>
     <use xlink:href="#DejaVuSans-69" x="847.265625"/>
     <use xlink:href="#DejaVuSans-6e" x="875.048828"/>
     <use xlink:href="#DejaVuSans-67" x="938.427734"/>
     <use xlink:href="#DejaVuSans-20" x="1001.904297"/>
     <use xlink:href="#DejaVuSans-43" x="1033.691406"/>
     <use xlink:href="#DejaVuSans-6f" x="1103.515625"/>
     <use xlink:href="#DejaVuSans-73" x="1164.697266"/>
     <use xlink:href="#DejaVuSans-74" x="1216.796875"/>
    </g>
   </g>
  </g>
 </g>
 <defs>
  <clipPath id="pa47acf92f3">
   <rect x="57.6" y="41.472" width="357.12" height="266.112"/>
  </clipPath>
 </defs>
</svg>
