<?xml version="1.0" encoding="utf-8" standalone="no"?>
<!DOCTYPE svg PUBLIC "-//W3C//DTD SVG 1.1//EN"
  "http://www.w3.org/Graphics/SVG/1.1/DTD/svg11.dtd">
<!-- Created with matplotlib (https://matplotlib.org/) -->
<svg height="345.6pt" version="1.1" viewBox="0 0 460.8 345.6" width="460.8pt" xmlns="http://www.w3.org/2000/svg" xmlns:xlink="http://www.w3.org/1999/xlink">
 <metadata>
  <rdf:RDF xmlns:cc="http://creativecommons.org/ns#" xmlns:dc="http://purl.org/dc/elements/1.1/" xmlns:rdf="http://www.w3.org/1999/02/22-rdf-syntax-ns#">
   <cc:Work>
    <dc:type rdf:resource="http://purl.org/dc/dcmitype/StillImage"/>
    <dc:date>2022-05-25T21:39:58.426828</dc:date>
    <dc:format>image/svg+xml</dc:format>
    <dc:creator>
     <cc:Agent>
      <dc:title>Matplotlib v3.3.4, https://matplotlib.org/</dc:title>
     </cc:Agent>
    </dc:creator>
   </cc:Work>
  </rdf:RDF>
 </metadata>
 <defs>
  <style type="text/css">*{stroke-linecap:butt;stroke-linejoin:round;}</style>
 </defs>
 <g id="figure_1">
  <g id="patch_1">
   <path d="M 0 345.6 
L 460.8 345.6 
L 460.8 0 
L 0 0 
z
" style="fill:#ffffff;"/>
  </g>
  <g id="axes_1">
   <g id="patch_2">
    <path d="M 57.6 307.584 
L 414.72 307.584 
L 414.72 41.472 
L 57.6 41.472 
z
" style="fill:#ffffff;"/>
   </g>
   <g id="matplotlib.axis_1">
    <g id="xtick_1">
     <g id="line2d_1">
      <defs>
       <path d="M 0 0 
L 0 3.5 
" id="m0d45b6e762" style="stroke:#000000;stroke-width:0.8;"/>
      </defs>
      <g>
       <use style="stroke:#000000;stroke-width:0.8;" x="73.832727" xlink:href="#m0d45b6e762" y="307.584"/>
      </g>
     </g>
     <g id="text_1">
      <!-- 0 -->
      <g transform="translate(70.651477 322.182437)scale(0.1 -0.1)">
       <defs>
        <path d="M 31.78125 66.40625 
Q 24.171875 66.40625 20.328125 58.90625 
Q 16.5 51.421875 16.5 36.375 
Q 16.5 21.390625 20.328125 13.890625 
Q 24.171875 6.390625 31.78125 6.390625 
Q 39.453125 6.390625 43.28125 13.890625 
Q 47.125 21.390625 47.125 36.375 
Q 47.125 51.421875 43.28125 58.90625 
Q 39.453125 66.40625 31.78125 66.40625 
z
M 31.78125 74.21875 
Q 44.046875 74.21875 50.515625 64.515625 
Q 56.984375 54.828125 56.984375 36.375 
Q 56.984375 17.96875 50.515625 8.265625 
Q 44.046875 -1.421875 31.78125 -1.421875 
Q 19.53125 -1.421875 13.0625 8.265625 
Q 6.59375 17.96875 6.59375 36.375 
Q 6.59375 54.828125 13.0625 64.515625 
Q 19.53125 74.21875 31.78125 74.21875 
z
" id="DejaVuSans-48"/>
       </defs>
       <use xlink:href="#DejaVuSans-48"/>
      </g>
     </g>
    </g>
    <g id="xtick_2">
     <g id="line2d_2">
      <g>
       <use style="stroke:#000000;stroke-width:0.8;" x="142.152287" xlink:href="#m0d45b6e762" y="307.584"/>
      </g>
     </g>
     <g id="text_2">
      <!-- 1000 -->
      <g transform="translate(129.427287 322.182437)scale(0.1 -0.1)">
       <defs>
        <path d="M 12.40625 8.296875 
L 28.515625 8.296875 
L 28.515625 63.921875 
L 10.984375 60.40625 
L 10.984375 69.390625 
L 28.421875 72.90625 
L 38.28125 72.90625 
L 38.28125 8.296875 
L 54.390625 8.296875 
L 54.390625 0 
L 12.40625 0 
z
" id="DejaVuSans-49"/>
       </defs>
       <use xlink:href="#DejaVuSans-49"/>
       <use x="63.623047" xlink:href="#DejaVuSans-48"/>
       <use x="127.246094" xlink:href="#DejaVuSans-48"/>
       <use x="190.869141" xlink:href="#DejaVuSans-48"/>
      </g>
     </g>
    </g>
    <g id="xtick_3">
     <g id="line2d_3">
      <g>
       <use style="stroke:#000000;stroke-width:0.8;" x="210.471846" xlink:href="#m0d45b6e762" y="307.584"/>
      </g>
     </g>
     <g id="text_3">
      <!-- 2000 -->
      <g transform="translate(197.746846 322.182437)scale(0.1 -0.1)">
       <defs>
        <path d="M 19.1875 8.296875 
L 53.609375 8.296875 
L 53.609375 0 
L 7.328125 0 
L 7.328125 8.296875 
Q 12.9375 14.109375 22.625 23.890625 
Q 32.328125 33.6875 34.8125 36.53125 
Q 39.546875 41.84375 41.421875 45.53125 
Q 43.3125 49.21875 43.3125 52.78125 
Q 43.3125 58.59375 39.234375 62.25 
Q 35.15625 65.921875 28.609375 65.921875 
Q 23.96875 65.921875 18.8125 64.3125 
Q 13.671875 62.703125 7.8125 59.421875 
L 7.8125 69.390625 
Q 13.765625 71.78125 18.9375 73 
Q 24.125 74.21875 28.421875 74.21875 
Q 39.75 74.21875 46.484375 68.546875 
Q 53.21875 62.890625 53.21875 53.421875 
Q 53.21875 48.921875 51.53125 44.890625 
Q 49.859375 40.875 45.40625 35.40625 
Q 44.1875 33.984375 37.640625 27.21875 
Q 31.109375 20.453125 19.1875 8.296875 
z
" id="DejaVuSans-50"/>
       </defs>
       <use xlink:href="#DejaVuSans-50"/>
       <use x="63.623047" xlink:href="#DejaVuSans-48"/>
       <use x="127.246094" xlink:href="#DejaVuSans-48"/>
       <use x="190.869141" xlink:href="#DejaVuSans-48"/>
      </g>
     </g>
    </g>
    <g id="xtick_4">
     <g id="line2d_4">
      <g>
       <use style="stroke:#000000;stroke-width:0.8;" x="278.791405" xlink:href="#m0d45b6e762" y="307.584"/>
      </g>
     </g>
     <g id="text_4">
      <!-- 3000 -->
      <g transform="translate(266.066405 322.182437)scale(0.1 -0.1)">
       <defs>
        <path d="M 40.578125 39.3125 
Q 47.65625 37.796875 51.625 33 
Q 55.609375 28.21875 55.609375 21.1875 
Q 55.609375 10.40625 48.1875 4.484375 
Q 40.765625 -1.421875 27.09375 -1.421875 
Q 22.515625 -1.421875 17.65625 -0.515625 
Q 12.796875 0.390625 7.625 2.203125 
L 7.625 11.71875 
Q 11.71875 9.328125 16.59375 8.109375 
Q 21.484375 6.890625 26.8125 6.890625 
Q 36.078125 6.890625 40.9375 10.546875 
Q 45.796875 14.203125 45.796875 21.1875 
Q 45.796875 27.640625 41.28125 31.265625 
Q 36.765625 34.90625 28.71875 34.90625 
L 20.21875 34.90625 
L 20.21875 43.015625 
L 29.109375 43.015625 
Q 36.375 43.015625 40.234375 45.921875 
Q 44.09375 48.828125 44.09375 54.296875 
Q 44.09375 59.90625 40.109375 62.90625 
Q 36.140625 65.921875 28.71875 65.921875 
Q 24.65625 65.921875 20.015625 65.03125 
Q 15.375 64.15625 9.8125 62.3125 
L 9.8125 71.09375 
Q 15.4375 72.65625 20.34375 73.4375 
Q 25.25 74.21875 29.59375 74.21875 
Q 40.828125 74.21875 47.359375 69.109375 
Q 53.90625 64.015625 53.90625 55.328125 
Q 53.90625 49.265625 50.4375 45.09375 
Q 46.96875 40.921875 40.578125 39.3125 
z
" id="DejaVuSans-51"/>
       </defs>
       <use xlink:href="#DejaVuSans-51"/>
       <use x="63.623047" xlink:href="#DejaVuSans-48"/>
       <use x="127.246094" xlink:href="#DejaVuSans-48"/>
       <use x="190.869141" xlink:href="#DejaVuSans-48"/>
      </g>
     </g>
    </g>
    <g id="xtick_5">
     <g id="line2d_5">
      <g>
       <use style="stroke:#000000;stroke-width:0.8;" x="347.110964" xlink:href="#m0d45b6e762" y="307.584"/>
      </g>
     </g>
     <g id="text_5">
      <!-- 4000 -->
      <g transform="translate(334.385964 322.182437)scale(0.1 -0.1)">
       <defs>
        <path d="M 37.796875 64.3125 
L 12.890625 25.390625 
L 37.796875 25.390625 
z
M 35.203125 72.90625 
L 47.609375 72.90625 
L 47.609375 25.390625 
L 58.015625 25.390625 
L 58.015625 17.1875 
L 47.609375 17.1875 
L 47.609375 0 
L 37.796875 0 
L 37.796875 17.1875 
L 4.890625 17.1875 
L 4.890625 26.703125 
z
" id="DejaVuSans-52"/>
       </defs>
       <use xlink:href="#DejaVuSans-52"/>
       <use x="63.623047" xlink:href="#DejaVuSans-48"/>
       <use x="127.246094" xlink:href="#DejaVuSans-48"/>
       <use x="190.869141" xlink:href="#DejaVuSans-48"/>
      </g>
     </g>
    </g>
    <g id="text_6">
     <!-- num swaps -->
     <g transform="translate(207.826406 335.860562)scale(0.1 -0.1)">
      <defs>
       <path d="M 54.890625 33.015625 
L 54.890625 0 
L 45.90625 0 
L 45.90625 32.71875 
Q 45.90625 40.484375 42.875 44.328125 
Q 39.84375 48.1875 33.796875 48.1875 
Q 26.515625 48.1875 22.3125 43.546875 
Q 18.109375 38.921875 18.109375 30.90625 
L 18.109375 0 
L 9.078125 0 
L 9.078125 54.6875 
L 18.109375 54.6875 
L 18.109375 46.1875 
Q 21.34375 51.125 25.703125 53.5625 
Q 30.078125 56 35.796875 56 
Q 45.21875 56 50.046875 50.171875 
Q 54.890625 44.34375 54.890625 33.015625 
z
" id="DejaVuSans-110"/>
       <path d="M 8.5 21.578125 
L 8.5 54.6875 
L 17.484375 54.6875 
L 17.484375 21.921875 
Q 17.484375 14.15625 20.5 10.265625 
Q 23.53125 6.390625 29.59375 6.390625 
Q 36.859375 6.390625 41.078125 11.03125 
Q 45.3125 15.671875 45.3125 23.6875 
L 45.3125 54.6875 
L 54.296875 54.6875 
L 54.296875 0 
L 45.3125 0 
L 45.3125 8.40625 
Q 42.046875 3.421875 37.71875 1 
Q 33.40625 -1.421875 27.6875 -1.421875 
Q 18.265625 -1.421875 13.375 4.4375 
Q 8.5 10.296875 8.5 21.578125 
z
M 31.109375 56 
z
" id="DejaVuSans-117"/>
       <path d="M 52 44.1875 
Q 55.375 50.25 60.0625 53.125 
Q 64.75 56 71.09375 56 
Q 79.640625 56 84.28125 50.015625 
Q 88.921875 44.046875 88.921875 33.015625 
L 88.921875 0 
L 79.890625 0 
L 79.890625 32.71875 
Q 79.890625 40.578125 77.09375 44.375 
Q 74.3125 48.1875 68.609375 48.1875 
Q 61.625 48.1875 57.5625 43.546875 
Q 53.515625 38.921875 53.515625 30.90625 
L 53.515625 0 
L 44.484375 0 
L 44.484375 32.71875 
Q 44.484375 40.625 41.703125 44.40625 
Q 38.921875 48.1875 33.109375 48.1875 
Q 26.21875 48.1875 22.15625 43.53125 
Q 18.109375 38.875 18.109375 30.90625 
L 18.109375 0 
L 9.078125 0 
L 9.078125 54.6875 
L 18.109375 54.6875 
L 18.109375 46.1875 
Q 21.1875 51.21875 25.484375 53.609375 
Q 29.78125 56 35.6875 56 
Q 41.65625 56 45.828125 52.96875 
Q 50 49.953125 52 44.1875 
z
" id="DejaVuSans-109"/>
       <path id="DejaVuSans-32"/>
       <path d="M 44.28125 53.078125 
L 44.28125 44.578125 
Q 40.484375 46.53125 36.375 47.5 
Q 32.28125 48.484375 27.875 48.484375 
Q 21.1875 48.484375 17.84375 46.4375 
Q 14.5 44.390625 14.5 40.28125 
Q 14.5 37.15625 16.890625 35.375 
Q 19.28125 33.59375 26.515625 31.984375 
L 29.59375 31.296875 
Q 39.15625 29.25 43.1875 25.515625 
Q 47.21875 21.78125 47.21875 15.09375 
Q 47.21875 7.46875 41.1875 3.015625 
Q 35.15625 -1.421875 24.609375 -1.421875 
Q 20.21875 -1.421875 15.453125 -0.5625 
Q 10.6875 0.296875 5.421875 2 
L 5.421875 11.28125 
Q 10.40625 8.6875 15.234375 7.390625 
Q 20.0625 6.109375 24.8125 6.109375 
Q 31.15625 6.109375 34.5625 8.28125 
Q 37.984375 10.453125 37.984375 14.40625 
Q 37.984375 18.0625 35.515625 20.015625 
Q 33.0625 21.96875 24.703125 23.78125 
L 21.578125 24.515625 
Q 13.234375 26.265625 9.515625 29.90625 
Q 5.8125 33.546875 5.8125 39.890625 
Q 5.8125 47.609375 11.28125 51.796875 
Q 16.75 56 26.8125 56 
Q 31.78125 56 36.171875 55.265625 
Q 40.578125 54.546875 44.28125 53.078125 
z
" id="DejaVuSans-115"/>
       <path d="M 4.203125 54.6875 
L 13.1875 54.6875 
L 24.421875 12.015625 
L 35.59375 54.6875 
L 46.1875 54.6875 
L 57.421875 12.015625 
L 68.609375 54.6875 
L 77.59375 54.6875 
L 63.28125 0 
L 52.6875 0 
L 40.921875 44.828125 
L 29.109375 0 
L 18.5 0 
z
" id="DejaVuSans-119"/>
       <path d="M 34.28125 27.484375 
Q 23.390625 27.484375 19.1875 25 
Q 14.984375 22.515625 14.984375 16.5 
Q 14.984375 11.71875 18.140625 8.90625 
Q 21.296875 6.109375 26.703125 6.109375 
Q 34.1875 6.109375 38.703125 11.40625 
Q 43.21875 16.703125 43.21875 25.484375 
L 43.21875 27.484375 
z
M 52.203125 31.203125 
L 52.203125 0 
L 43.21875 0 
L 43.21875 8.296875 
Q 40.140625 3.328125 35.546875 0.953125 
Q 30.953125 -1.421875 24.3125 -1.421875 
Q 15.921875 -1.421875 10.953125 3.296875 
Q 6 8.015625 6 15.921875 
Q 6 25.140625 12.171875 29.828125 
Q 18.359375 34.515625 30.609375 34.515625 
L 43.21875 34.515625 
L 43.21875 35.40625 
Q 43.21875 41.609375 39.140625 45 
Q 35.0625 48.390625 27.6875 48.390625 
Q 23 48.390625 18.546875 47.265625 
Q 14.109375 46.140625 10.015625 43.890625 
L 10.015625 52.203125 
Q 14.9375 54.109375 19.578125 55.046875 
Q 24.21875 56 28.609375 56 
Q 40.484375 56 46.34375 49.84375 
Q 52.203125 43.703125 52.203125 31.203125 
z
" id="DejaVuSans-97"/>
       <path d="M 18.109375 8.203125 
L 18.109375 -20.796875 
L 9.078125 -20.796875 
L 9.078125 54.6875 
L 18.109375 54.6875 
L 18.109375 46.390625 
Q 20.953125 51.265625 25.265625 53.625 
Q 29.59375 56 35.59375 56 
Q 45.5625 56 51.78125 48.09375 
Q 58.015625 40.1875 58.015625 27.296875 
Q 58.015625 14.40625 51.78125 6.484375 
Q 45.5625 -1.421875 35.59375 -1.421875 
Q 29.59375 -1.421875 25.265625 0.953125 
Q 20.953125 3.328125 18.109375 8.203125 
z
M 48.6875 27.296875 
Q 48.6875 37.203125 44.609375 42.84375 
Q 40.53125 48.484375 33.40625 48.484375 
Q 26.265625 48.484375 22.1875 42.84375 
Q 18.109375 37.203125 18.109375 27.296875 
Q 18.109375 17.390625 22.1875 11.75 
Q 26.265625 6.109375 33.40625 6.109375 
Q 40.53125 6.109375 44.609375 11.75 
Q 48.6875 17.390625 48.6875 27.296875 
z
" id="DejaVuSans-112"/>
      </defs>
      <use xlink:href="#DejaVuSans-110"/>
      <use x="63.378906" xlink:href="#DejaVuSans-117"/>
      <use x="126.757812" xlink:href="#DejaVuSans-109"/>
      <use x="224.169922" xlink:href="#DejaVuSans-32"/>
      <use x="255.957031" xlink:href="#DejaVuSans-115"/>
      <use x="308.056641" xlink:href="#DejaVuSans-119"/>
      <use x="389.84375" xlink:href="#DejaVuSans-97"/>
      <use x="451.123047" xlink:href="#DejaVuSans-112"/>
      <use x="514.599609" xlink:href="#DejaVuSans-115"/>
     </g>
    </g>
   </g>
   <g id="matplotlib.axis_2">
    <g id="ytick_1">
     <g id="line2d_6">
      <defs>
       <path d="M 0 0 
L -3.5 0 
" id="mba031e15e2" style="stroke:#000000;stroke-width:0.8;"/>
      </defs>
      <g>
       <use style="stroke:#000000;stroke-width:0.8;" x="57.6" xlink:href="#mba031e15e2" y="302.500174"/>
      </g>
     </g>
     <g id="text_7">
      <!-- 180 -->
      <g transform="translate(31.5125 306.299393)scale(0.1 -0.1)">
       <defs>
        <path d="M 31.78125 34.625 
Q 24.75 34.625 20.71875 30.859375 
Q 16.703125 27.09375 16.703125 20.515625 
Q 16.703125 13.921875 20.71875 10.15625 
Q 24.75 6.390625 31.78125 6.390625 
Q 38.8125 6.390625 42.859375 10.171875 
Q 46.921875 13.96875 46.921875 20.515625 
Q 46.921875 27.09375 42.890625 30.859375 
Q 38.875 34.625 31.78125 34.625 
z
M 21.921875 38.8125 
Q 15.578125 40.375 12.03125 44.71875 
Q 8.5 49.078125 8.5 55.328125 
Q 8.5 64.0625 14.71875 69.140625 
Q 20.953125 74.21875 31.78125 74.21875 
Q 42.671875 74.21875 48.875 69.140625 
Q 55.078125 64.0625 55.078125 55.328125 
Q 55.078125 49.078125 51.53125 44.71875 
Q 48 40.375 41.703125 38.8125 
Q 48.828125 37.15625 52.796875 32.3125 
Q 56.78125 27.484375 56.78125 20.515625 
Q 56.78125 9.90625 50.3125 4.234375 
Q 43.84375 -1.421875 31.78125 -1.421875 
Q 19.734375 -1.421875 13.25 4.234375 
Q 6.78125 9.90625 6.78125 20.515625 
Q 6.78125 27.484375 10.78125 32.3125 
Q 14.796875 37.15625 21.921875 38.8125 
z
M 18.3125 54.390625 
Q 18.3125 48.734375 21.84375 45.5625 
Q 25.390625 42.390625 31.78125 42.390625 
Q 38.140625 42.390625 41.71875 45.5625 
Q 45.3125 48.734375 45.3125 54.390625 
Q 45.3125 60.0625 41.71875 63.234375 
Q 38.140625 66.40625 31.78125 66.40625 
Q 25.390625 66.40625 21.84375 63.234375 
Q 18.3125 60.0625 18.3125 54.390625 
z
" id="DejaVuSans-56"/>
       </defs>
       <use xlink:href="#DejaVuSans-49"/>
       <use x="63.623047" xlink:href="#DejaVuSans-56"/>
       <use x="127.246094" xlink:href="#DejaVuSans-48"/>
      </g>
     </g>
    </g>
    <g id="ytick_2">
     <g id="line2d_7">
      <g>
       <use style="stroke:#000000;stroke-width:0.8;" x="57.6" xlink:href="#mba031e15e2" y="267.439304"/>
      </g>
     </g>
     <g id="text_8">
      <!-- 200 -->
      <g transform="translate(31.5125 271.238523)scale(0.1 -0.1)">
       <use xlink:href="#DejaVuSans-50"/>
       <use x="63.623047" xlink:href="#DejaVuSans-48"/>
       <use x="127.246094" xlink:href="#DejaVuSans-48"/>
      </g>
     </g>
    </g>
    <g id="ytick_3">
     <g id="line2d_8">
      <g>
       <use style="stroke:#000000;stroke-width:0.8;" x="57.6" xlink:href="#mba031e15e2" y="232.378435"/>
      </g>
     </g>
     <g id="text_9">
      <!-- 220 -->
      <g transform="translate(31.5125 236.177654)scale(0.1 -0.1)">
       <use xlink:href="#DejaVuSans-50"/>
       <use x="63.623047" xlink:href="#DejaVuSans-50"/>
       <use x="127.246094" xlink:href="#DejaVuSans-48"/>
      </g>
     </g>
    </g>
    <g id="ytick_4">
     <g id="line2d_9">
      <g>
       <use style="stroke:#000000;stroke-width:0.8;" x="57.6" xlink:href="#mba031e15e2" y="197.317565"/>
      </g>
     </g>
     <g id="text_10">
      <!-- 240 -->
      <g transform="translate(31.5125 201.116784)scale(0.1 -0.1)">
       <use xlink:href="#DejaVuSans-50"/>
       <use x="63.623047" xlink:href="#DejaVuSans-52"/>
       <use x="127.246094" xlink:href="#DejaVuSans-48"/>
      </g>
     </g>
    </g>
    <g id="ytick_5">
     <g id="line2d_10">
      <g>
       <use style="stroke:#000000;stroke-width:0.8;" x="57.6" xlink:href="#mba031e15e2" y="162.256696"/>
      </g>
     </g>
     <g id="text_11">
      <!-- 260 -->
      <g transform="translate(31.5125 166.055914)scale(0.1 -0.1)">
       <defs>
        <path d="M 33.015625 40.375 
Q 26.375 40.375 22.484375 35.828125 
Q 18.609375 31.296875 18.609375 23.390625 
Q 18.609375 15.53125 22.484375 10.953125 
Q 26.375 6.390625 33.015625 6.390625 
Q 39.65625 6.390625 43.53125 10.953125 
Q 47.40625 15.53125 47.40625 23.390625 
Q 47.40625 31.296875 43.53125 35.828125 
Q 39.65625 40.375 33.015625 40.375 
z
M 52.59375 71.296875 
L 52.59375 62.3125 
Q 48.875 64.0625 45.09375 64.984375 
Q 41.3125 65.921875 37.59375 65.921875 
Q 27.828125 65.921875 22.671875 59.328125 
Q 17.53125 52.734375 16.796875 39.40625 
Q 19.671875 43.65625 24.015625 45.921875 
Q 28.375 48.1875 33.59375 48.1875 
Q 44.578125 48.1875 50.953125 41.515625 
Q 57.328125 34.859375 57.328125 23.390625 
Q 57.328125 12.15625 50.6875 5.359375 
Q 44.046875 -1.421875 33.015625 -1.421875 
Q 20.359375 -1.421875 13.671875 8.265625 
Q 6.984375 17.96875 6.984375 36.375 
Q 6.984375 53.65625 15.1875 63.9375 
Q 23.390625 74.21875 37.203125 74.21875 
Q 40.921875 74.21875 44.703125 73.484375 
Q 48.484375 72.75 52.59375 71.296875 
z
" id="DejaVuSans-54"/>
       </defs>
       <use xlink:href="#DejaVuSans-50"/>
       <use x="63.623047" xlink:href="#DejaVuSans-54"/>
       <use x="127.246094" xlink:href="#DejaVuSans-48"/>
      </g>
     </g>
    </g>
    <g id="ytick_6">
     <g id="line2d_11">
      <g>
       <use style="stroke:#000000;stroke-width:0.8;" x="57.6" xlink:href="#mba031e15e2" y="127.195826"/>
      </g>
     </g>
     <g id="text_12">
      <!-- 280 -->
      <g transform="translate(31.5125 130.995045)scale(0.1 -0.1)">
       <use xlink:href="#DejaVuSans-50"/>
       <use x="63.623047" xlink:href="#DejaVuSans-56"/>
       <use x="127.246094" xlink:href="#DejaVuSans-48"/>
      </g>
     </g>
    </g>
    <g id="ytick_7">
     <g id="line2d_12">
      <g>
       <use style="stroke:#000000;stroke-width:0.8;" x="57.6" xlink:href="#mba031e15e2" y="92.134957"/>
      </g>
     </g>
     <g id="text_13">
      <!-- 300 -->
      <g transform="translate(31.5125 95.934175)scale(0.1 -0.1)">
       <use xlink:href="#DejaVuSans-51"/>
       <use x="63.623047" xlink:href="#DejaVuSans-48"/>
       <use x="127.246094" xlink:href="#DejaVuSans-48"/>
      </g>
     </g>
    </g>
    <g id="ytick_8">
     <g id="line2d_13">
      <g>
       <use style="stroke:#000000;stroke-width:0.8;" x="57.6" xlink:href="#mba031e15e2" y="57.074087"/>
      </g>
     </g>
     <g id="text_14">
      <!-- 320 -->
      <g transform="translate(31.5125 60.873306)scale(0.1 -0.1)">
       <use xlink:href="#DejaVuSans-51"/>
       <use x="63.623047" xlink:href="#DejaVuSans-50"/>
       <use x="127.246094" xlink:href="#DejaVuSans-48"/>
      </g>
     </g>
    </g>
    <g id="text_15">
     <!-- total cost -->
     <g transform="translate(25.432812 197.923313)rotate(-90)scale(0.1 -0.1)">
      <defs>
       <path d="M 18.3125 70.21875 
L 18.3125 54.6875 
L 36.8125 54.6875 
L 36.8125 47.703125 
L 18.3125 47.703125 
L 18.3125 18.015625 
Q 18.3125 11.328125 20.140625 9.421875 
Q 21.96875 7.515625 27.59375 7.515625 
L 36.8125 7.515625 
L 36.8125 0 
L 27.59375 0 
Q 17.1875 0 13.234375 3.875 
Q 9.28125 7.765625 9.28125 18.015625 
L 9.28125 47.703125 
L 2.6875 47.703125 
L 2.6875 54.6875 
L 9.28125 54.6875 
L 9.28125 70.21875 
z
" id="DejaVuSans-116"/>
       <path d="M 30.609375 48.390625 
Q 23.390625 48.390625 19.1875 42.75 
Q 14.984375 37.109375 14.984375 27.296875 
Q 14.984375 17.484375 19.15625 11.84375 
Q 23.34375 6.203125 30.609375 6.203125 
Q 37.796875 6.203125 41.984375 11.859375 
Q 46.1875 17.53125 46.1875 27.296875 
Q 46.1875 37.015625 41.984375 42.703125 
Q 37.796875 48.390625 30.609375 48.390625 
z
M 30.609375 56 
Q 42.328125 56 49.015625 48.375 
Q 55.71875 40.765625 55.71875 27.296875 
Q 55.71875 13.875 49.015625 6.21875 
Q 42.328125 -1.421875 30.609375 -1.421875 
Q 18.84375 -1.421875 12.171875 6.21875 
Q 5.515625 13.875 5.515625 27.296875 
Q 5.515625 40.765625 12.171875 48.375 
Q 18.84375 56 30.609375 56 
z
" id="DejaVuSans-111"/>
       <path d="M 9.421875 75.984375 
L 18.40625 75.984375 
L 18.40625 0 
L 9.421875 0 
z
" id="DejaVuSans-108"/>
       <path d="M 48.78125 52.59375 
L 48.78125 44.1875 
Q 44.96875 46.296875 41.140625 47.34375 
Q 37.3125 48.390625 33.40625 48.390625 
Q 24.65625 48.390625 19.8125 42.84375 
Q 14.984375 37.3125 14.984375 27.296875 
Q 14.984375 17.28125 19.8125 11.734375 
Q 24.65625 6.203125 33.40625 6.203125 
Q 37.3125 6.203125 41.140625 7.25 
Q 44.96875 8.296875 48.78125 10.40625 
L 48.78125 2.09375 
Q 45.015625 0.34375 40.984375 -0.53125 
Q 36.96875 -1.421875 32.421875 -1.421875 
Q 20.0625 -1.421875 12.78125 6.34375 
Q 5.515625 14.109375 5.515625 27.296875 
Q 5.515625 40.671875 12.859375 48.328125 
Q 20.21875 56 33.015625 56 
Q 37.15625 56 41.109375 55.140625 
Q 45.0625 54.296875 48.78125 52.59375 
z
" id="DejaVuSans-99"/>
      </defs>
      <use xlink:href="#DejaVuSans-116"/>
      <use x="39.208984" xlink:href="#DejaVuSans-111"/>
      <use x="100.390625" xlink:href="#DejaVuSans-116"/>
      <use x="139.599609" xlink:href="#DejaVuSans-97"/>
      <use x="200.878906" xlink:href="#DejaVuSans-108"/>
      <use x="228.662109" xlink:href="#DejaVuSans-32"/>
      <use x="260.449219" xlink:href="#DejaVuSans-99"/>
      <use x="315.429688" xlink:href="#DejaVuSans-111"/>
      <use x="376.611328" xlink:href="#DejaVuSans-115"/>
      <use x="428.710938" xlink:href="#DejaVuSans-116"/>
     </g>
    </g>
   </g>
   <g id="line2d_14">
    <path clip-path="url(#p9a17d2f012)" d="M 73.832727 109.665391 
L 74.379284 104.406261 
L 74.92584 92.134957 
L 75.472397 92.134957 
L 76.018953 116.677565 
L 76.56551 99.14713 
L 77.112066 106.159304 
L 77.658623 109.665391 
L 78.205179 107.912348 
L 78.751736 109.665391 
L 79.298292 104.406261 
L 79.844848 111.418435 
L 80.391405 134.208 
L 80.937961 97.394087 
L 81.484518 109.665391 
L 82.031074 104.406261 
L 82.577631 120.183652 
L 83.124187 132.454957 
L 83.670744 134.208 
L 84.763857 130.701913 
L 85.310413 134.208 
L 85.85697 134.208 
L 86.403526 123.689739 
L 86.950083 123.689739 
L 87.496639 118.430609 
L 88.043196 107.912348 
L 88.589752 116.677565 
L 89.136309 130.701913 
L 89.682865 134.208 
L 90.229421 141.220174 
L 90.775978 135.961043 
L 91.322534 128.94887 
L 91.869091 118.430609 
L 92.415647 100.900174 
L 92.962204 118.430609 
L 94.055317 88.62887 
L 94.601873 100.900174 
L 95.14843 116.677565 
L 95.694986 142.973217 
L 96.241543 135.961043 
L 96.788099 137.714087 
L 97.334656 128.94887 
L 97.881212 113.171478 
L 98.427769 139.46713 
L 98.974325 135.961043 
L 99.520882 135.961043 
L 100.613994 107.912348 
L 101.160551 99.14713 
L 101.707107 93.888 
L 102.253664 81.616696 
L 102.80022 107.912348 
L 103.346777 123.689739 
L 103.893333 111.418435 
L 104.43989 123.689739 
L 104.986446 123.689739 
L 105.533003 141.220174 
L 106.079559 144.726261 
L 106.626116 139.46713 
L 107.172672 111.418435 
L 107.719229 123.689739 
L 108.265785 139.46713 
L 108.812342 128.94887 
L 109.358898 121.936696 
L 109.905455 121.936696 
L 110.452011 132.454957 
L 110.998567 121.936696 
L 111.545124 104.406261 
L 112.09168 113.171478 
L 112.638237 114.924522 
L 113.184793 132.454957 
L 113.73135 121.936696 
L 114.277906 160.503652 
L 114.824463 148.232348 
L 115.371019 128.94887 
L 115.917576 130.701913 
L 116.464132 135.961043 
L 117.010689 121.936696 
L 117.557245 139.46713 
L 118.103802 137.714087 
L 118.650358 114.924522 
L 119.196915 123.689739 
L 119.743471 118.430609 
L 120.290028 123.689739 
L 120.836584 127.195826 
L 121.38314 106.159304 
L 121.929697 113.171478 
L 122.476253 100.900174 
L 123.02281 97.394087 
L 123.569366 90.381913 
L 124.115923 109.665391 
L 124.662479 116.677565 
L 125.209036 118.430609 
L 125.755592 107.912348 
L 126.302149 118.430609 
L 126.848705 120.183652 
L 127.395262 125.442783 
L 128.488375 132.454957 
L 129.034931 137.714087 
L 129.581488 109.665391 
L 130.128044 102.653217 
L 130.674601 113.171478 
L 131.221157 111.418435 
L 131.767713 104.406261 
L 132.31427 104.406261 
L 132.860826 127.195826 
L 133.407383 123.689739 
L 133.953939 109.665391 
L 134.500496 120.183652 
L 135.047052 134.208 
L 135.593609 123.689739 
L 136.140165 90.381913 
L 136.686722 90.381913 
L 137.233278 102.653217 
L 137.779835 120.183652 
L 138.326391 128.94887 
L 138.872948 123.689739 
L 139.419504 125.442783 
L 139.966061 118.430609 
L 140.512617 128.94887 
L 141.059174 113.171478 
L 141.60573 114.924522 
L 142.152287 132.454957 
L 142.698843 120.183652 
L 143.245399 99.14713 
L 143.791956 97.394087 
L 144.885069 127.195826 
L 145.431625 130.701913 
L 145.978182 141.220174 
L 146.524738 132.454957 
L 147.071295 132.454957 
L 147.617851 139.46713 
L 148.164408 144.726261 
L 148.710964 137.714087 
L 149.257521 142.973217 
L 149.804077 139.46713 
L 151.443747 114.924522 
L 151.990303 116.677565 
L 152.53686 107.912348 
L 153.083416 130.701913 
L 153.629972 167.515826 
L 154.176529 181.540174 
L 154.723085 178.034087 
L 155.269642 176.281043 
L 155.816198 178.034087 
L 156.362755 141.220174 
L 156.909311 139.46713 
L 157.455868 135.961043 
L 158.002424 144.726261 
L 158.548981 158.750609 
L 159.095537 135.961043 
L 159.642094 125.442783 
L 160.18865 135.961043 
L 160.735207 134.208 
L 161.281763 149.985391 
L 161.82832 151.738435 
L 162.374876 158.750609 
L 162.921433 153.491478 
L 163.467989 114.924522 
L 164.014545 121.936696 
L 164.561102 107.912348 
L 165.107658 109.665391 
L 165.654215 127.195826 
L 166.200771 127.195826 
L 166.747328 123.689739 
L 167.293884 125.442783 
L 167.840441 121.936696 
L 168.386997 123.689739 
L 168.933554 132.454957 
L 169.48011 120.183652 
L 170.026667 141.220174 
L 170.573223 123.689739 
L 171.11978 137.714087 
L 171.666336 139.46713 
L 172.212893 139.46713 
L 172.759449 141.220174 
L 173.306006 116.677565 
L 173.852562 113.171478 
L 174.399118 106.159304 
L 174.945675 97.394087 
L 175.492231 120.183652 
L 176.038788 121.936696 
L 177.131901 121.936696 
L 177.678457 118.430609 
L 178.225014 120.183652 
L 178.77157 125.442783 
L 179.318127 121.936696 
L 179.864683 142.973217 
L 180.41124 130.701913 
L 180.957796 135.961043 
L 181.504353 135.961043 
L 182.050909 127.195826 
L 182.597466 127.195826 
L 183.144022 139.46713 
L 183.690579 139.46713 
L 184.237135 146.479304 
L 184.783691 135.961043 
L 185.330248 104.406261 
L 185.876804 116.677565 
L 186.969917 106.159304 
L 187.516474 118.430609 
L 188.06303 125.442783 
L 188.609587 100.900174 
L 189.156143 114.924522 
L 189.7027 102.653217 
L 190.249256 141.220174 
L 191.342369 99.14713 
L 192.435482 127.195826 
L 192.982039 134.208 
L 193.528595 130.701913 
L 194.075152 114.924522 
L 194.621708 123.689739 
L 195.168264 139.46713 
L 195.714821 137.714087 
L 196.261377 128.94887 
L 196.807934 128.94887 
L 197.35449 125.442783 
L 197.901047 106.159304 
L 198.447603 113.171478 
L 198.99416 139.46713 
L 199.540716 141.220174 
L 200.087273 128.94887 
L 200.633829 90.381913 
L 201.180386 97.394087 
L 201.726942 106.159304 
L 202.273499 93.888 
L 202.820055 99.14713 
L 203.366612 102.653217 
L 203.913168 121.936696 
L 204.459725 90.381913 
L 205.006281 109.665391 
L 205.552837 100.900174 
L 206.099394 99.14713 
L 207.192507 114.924522 
L 207.739063 109.665391 
L 208.28562 88.62887 
L 208.832176 78.110609 
L 209.925289 64.086261 
L 210.471846 53.568 
L 211.018402 64.086261 
L 211.564959 92.134957 
L 212.111515 97.394087 
L 212.658072 100.900174 
L 213.204628 120.183652 
L 213.751185 123.689739 
L 214.297741 114.924522 
L 214.844298 121.936696 
L 215.390854 121.936696 
L 215.93741 123.689739 
L 216.483967 135.961043 
L 217.030523 141.220174 
L 217.57708 165.762783 
L 218.123636 160.503652 
L 218.670193 153.491478 
L 219.216749 155.244522 
L 219.763306 153.491478 
L 220.309862 146.479304 
L 220.856419 114.924522 
L 221.949532 118.430609 
L 222.496088 123.689739 
L 223.042645 127.195826 
L 223.589201 118.430609 
L 224.135758 104.406261 
L 224.682314 134.208 
L 225.228871 149.985391 
L 225.775427 142.973217 
L 226.321983 134.208 
L 226.86854 111.418435 
L 227.415096 114.924522 
L 227.961653 123.689739 
L 228.508209 144.726261 
L 229.054766 142.973217 
L 229.601322 148.232348 
L 230.147879 146.479304 
L 230.694435 123.689739 
L 231.240992 149.985391 
L 231.787548 158.750609 
L 232.334105 134.208 
L 232.880661 134.208 
L 233.973774 116.677565 
L 234.520331 113.171478 
L 235.066887 111.418435 
L 235.613444 130.701913 
L 236.706556 123.689739 
L 237.253113 139.46713 
L 237.799669 123.689739 
L 238.346226 128.94887 
L 238.892782 151.738435 
L 239.439339 135.961043 
L 239.985895 123.689739 
L 240.532452 121.936696 
L 241.079008 114.924522 
L 241.625565 120.183652 
L 242.172121 130.701913 
L 242.718678 127.195826 
L 243.265234 130.701913 
L 243.811791 107.912348 
L 244.358347 116.677565 
L 245.45146 109.665391 
L 246.544573 123.689739 
L 247.091129 125.442783 
L 247.637686 128.94887 
L 248.184242 128.94887 
L 248.730799 127.195826 
L 249.277355 135.961043 
L 249.823912 111.418435 
L 250.370468 128.94887 
L 250.917025 132.454957 
L 251.463581 120.183652 
L 252.010138 90.381913 
L 252.556694 107.912348 
L 253.103251 118.430609 
L 253.649807 121.936696 
L 254.196364 130.701913 
L 254.74292 146.479304 
L 255.289477 146.479304 
L 255.836033 132.454957 
L 256.38259 146.479304 
L 256.929146 153.491478 
L 257.475702 171.021913 
L 258.568815 160.503652 
L 259.661928 178.034087 
L 260.208485 176.281043 
L 260.755041 158.750609 
L 261.301598 164.009739 
L 261.848154 149.985391 
L 262.394711 160.503652 
L 262.941267 156.997565 
L 263.487824 127.195826 
L 264.03438 132.454957 
L 264.580937 135.961043 
L 265.127493 156.997565 
L 265.67405 153.491478 
L 266.220606 141.220174 
L 266.767163 155.244522 
L 267.313719 158.750609 
L 267.860275 144.726261 
L 268.406832 135.961043 
L 268.953388 139.46713 
L 269.499945 144.726261 
L 270.046501 146.479304 
L 270.593058 155.244522 
L 271.139614 139.46713 
L 271.686171 128.94887 
L 272.232727 113.171478 
L 272.779284 135.961043 
L 273.32584 144.726261 
L 273.872397 146.479304 
L 274.418953 151.738435 
L 274.96551 146.479304 
L 275.512066 153.491478 
L 276.058623 142.973217 
L 276.605179 146.479304 
L 277.151736 132.454957 
L 277.698292 137.714087 
L 278.244848 153.491478 
L 278.791405 164.009739 
L 279.337961 188.552348 
L 279.884518 186.799304 
L 280.431074 172.774957 
L 280.977631 179.78713 
L 281.524187 171.021913 
L 282.070744 148.232348 
L 282.6173 142.973217 
L 283.163857 158.750609 
L 283.710413 167.515826 
L 284.25697 167.515826 
L 284.803526 164.009739 
L 285.350083 151.738435 
L 286.443196 167.515826 
L 286.989752 162.256696 
L 287.536309 172.774957 
L 288.082865 171.021913 
L 288.629421 186.799304 
L 289.175978 172.774957 
L 289.722534 172.774957 
L 290.269091 155.244522 
L 290.815647 142.973217 
L 291.362204 134.208 
L 291.90876 164.009739 
L 292.455317 172.774957 
L 293.001873 171.021913 
L 293.54843 162.256696 
L 294.094986 169.26887 
L 294.641543 151.738435 
L 295.188099 164.009739 
L 295.734656 185.046261 
L 296.281212 190.305391 
L 296.827769 186.799304 
L 297.374325 176.281043 
L 297.920882 179.78713 
L 298.467438 174.528 
L 299.013994 188.552348 
L 299.560551 176.281043 
L 300.107107 176.281043 
L 300.653664 172.774957 
L 301.20022 167.515826 
L 301.746777 169.26887 
L 302.293333 172.774957 
L 302.83989 185.046261 
L 303.386446 178.034087 
L 303.933003 183.293217 
L 304.479559 186.799304 
L 305.026116 181.540174 
L 305.572672 183.293217 
L 306.119229 183.293217 
L 306.665785 186.799304 
L 307.758898 167.515826 
L 308.305455 165.762783 
L 308.852011 167.515826 
L 309.945124 188.552348 
L 310.49168 183.293217 
L 311.038237 192.058435 
L 311.584793 185.046261 
L 312.13135 190.305391 
L 312.677906 186.799304 
L 313.224463 197.317565 
L 313.771019 186.799304 
L 314.317576 181.540174 
L 314.864132 193.811478 
L 315.410689 200.823652 
L 315.957245 195.564522 
L 316.503802 193.811478 
L 317.050358 195.564522 
L 317.596915 202.576696 
L 318.143471 207.835826 
L 318.690028 214.848 
L 319.236584 232.378435 
L 319.78314 214.848 
L 320.329697 227.119304 
L 320.876253 234.131478 
L 321.42281 232.378435 
L 321.969366 232.378435 
L 322.515923 227.119304 
L 323.062479 230.625391 
L 323.609036 246.402783 
L 324.155592 251.661913 
L 324.702149 232.378435 
L 325.248705 230.625391 
L 325.795262 223.613217 
L 326.341818 209.58887 
L 327.434931 206.082783 
L 327.981488 211.341913 
L 328.528044 209.58887 
L 329.074601 218.354087 
L 329.621157 214.848 
L 330.167713 223.613217 
L 330.71427 218.354087 
L 331.260826 228.872348 
L 331.807383 221.860174 
L 332.353939 218.354087 
L 332.900496 227.119304 
L 333.447052 230.625391 
L 333.993609 239.390609 
L 334.540165 242.896696 
L 335.086722 237.637565 
L 335.633278 260.42713 
L 336.179835 255.168 
L 336.726391 251.661913 
L 337.272948 251.661913 
L 337.819504 262.180174 
L 338.366061 255.168 
L 338.912617 262.180174 
L 339.459174 256.921043 
L 340.00573 258.674087 
L 340.552287 276.204522 
L 341.645399 256.921043 
L 342.191956 265.686261 
L 342.738512 267.439304 
L 343.285069 274.451478 
L 343.831625 263.933217 
L 344.378182 270.945391 
L 344.924738 272.698435 
L 345.471295 269.192348 
L 346.017851 267.439304 
L 346.564408 270.945391 
L 347.110964 269.192348 
L 347.657521 265.686261 
L 348.204077 263.933217 
L 348.750634 270.945391 
L 349.29719 276.204522 
L 349.843747 277.957565 
L 350.390303 263.933217 
L 350.93686 256.921043 
L 351.483416 255.168 
L 352.029972 248.155826 
L 352.576529 267.439304 
L 353.123085 270.945391 
L 353.669642 270.945391 
L 354.216198 276.204522 
L 354.762755 270.945391 
L 355.309311 274.451478 
L 355.855868 263.933217 
L 356.402424 258.674087 
L 356.948981 258.674087 
L 357.495537 255.168 
L 358.042094 244.649739 
L 358.58865 253.414957 
L 359.135207 251.661913 
L 359.681763 262.180174 
L 360.22832 265.686261 
L 360.774876 265.686261 
L 361.321433 267.439304 
L 361.867989 265.686261 
L 362.414545 270.945391 
L 362.961102 253.414957 
L 363.507658 260.42713 
L 364.054215 258.674087 
L 364.600771 272.698435 
L 365.147328 276.204522 
L 365.693884 270.945391 
L 366.240441 267.439304 
L 366.786997 269.192348 
L 367.333554 260.42713 
L 367.88011 269.192348 
L 368.973223 269.192348 
L 369.51978 276.204522 
L 370.066336 281.463652 
L 371.159449 234.131478 
L 371.706006 242.896696 
L 372.252562 255.168 
L 372.799118 255.168 
L 373.345675 263.933217 
L 373.892231 276.204522 
L 374.438788 272.698435 
L 374.985344 265.686261 
L 376.078457 258.674087 
L 376.625014 249.90887 
L 378.264683 281.463652 
L 378.81124 277.957565 
L 379.357796 276.204522 
L 379.904353 277.957565 
L 380.450909 288.475826 
L 380.997466 284.969739 
L 381.544022 274.451478 
L 382.090579 281.463652 
L 382.637135 293.734957 
L 383.183691 295.488 
L 383.730248 286.722783 
L 384.276804 270.945391 
L 384.823361 270.945391 
L 385.369917 283.216696 
L 385.916474 284.969739 
L 386.46303 276.204522 
L 387.009587 283.216696 
L 387.556143 283.216696 
L 388.1027 281.463652 
L 388.649256 286.722783 
L 389.742369 279.710609 
L 390.288926 279.710609 
L 390.835482 286.722783 
L 391.382039 274.451478 
L 391.928595 279.710609 
L 392.475152 279.710609 
L 393.021708 262.180174 
L 393.568264 267.439304 
L 394.661377 267.439304 
L 395.207934 277.957565 
L 395.75449 283.216696 
L 396.301047 281.463652 
L 396.847603 286.722783 
L 397.39416 288.475826 
L 397.940716 284.969739 
L 398.487273 279.710609 
L 398.487273 279.710609 
" style="fill:none;stroke:#1f77b4;stroke-linecap:square;stroke-width:1.5;"/>
   </g>
   <g id="patch_3">
    <path d="M 57.6 307.584 
L 57.6 41.472 
" style="fill:none;stroke:#000000;stroke-linecap:square;stroke-linejoin:miter;stroke-width:0.8;"/>
   </g>
   <g id="patch_4">
    <path d="M 414.72 307.584 
L 414.72 41.472 
" style="fill:none;stroke:#000000;stroke-linecap:square;stroke-linejoin:miter;stroke-width:0.8;"/>
   </g>
   <g id="patch_5">
    <path d="M 57.6 307.584 
L 414.72 307.584 
" style="fill:none;stroke:#000000;stroke-linecap:square;stroke-linejoin:miter;stroke-width:0.8;"/>
   </g>
   <g id="patch_6">
    <path d="M 57.6 41.472 
L 414.72 41.472 
" style="fill:none;stroke:#000000;stroke-linecap:square;stroke-linejoin:miter;stroke-width:0.8;"/>
   </g>
   <g id="text_16">
    <!-- Simulated Anealling Cost -->
    <g transform="translate(160.8 35.472)scale(0.12 -0.12)">
     <defs>
      <path d="M 53.515625 70.515625 
L 53.515625 60.890625 
Q 47.90625 63.578125 42.921875 64.890625 
Q 37.9375 66.21875 33.296875 66.21875 
Q 25.25 66.21875 20.875 63.09375 
Q 16.5 59.96875 16.5 54.203125 
Q 16.5 49.359375 19.40625 46.890625 
Q 22.3125 44.4375 30.421875 42.921875 
L 36.375 41.703125 
Q 47.40625 39.59375 52.65625 34.296875 
Q 57.90625 29 57.90625 20.125 
Q 57.90625 9.515625 50.796875 4.046875 
Q 43.703125 -1.421875 29.984375 -1.421875 
Q 24.8125 -1.421875 18.96875 -0.25 
Q 13.140625 0.921875 6.890625 3.21875 
L 6.890625 13.375 
Q 12.890625 10.015625 18.65625 8.296875 
Q 24.421875 6.59375 29.984375 6.59375 
Q 38.421875 6.59375 43.015625 9.90625 
Q 47.609375 13.234375 47.609375 19.390625 
Q 47.609375 24.75 44.3125 27.78125 
Q 41.015625 30.8125 33.5 32.328125 
L 27.484375 33.5 
Q 16.453125 35.6875 11.515625 40.375 
Q 6.59375 45.0625 6.59375 53.421875 
Q 6.59375 63.09375 13.40625 68.65625 
Q 20.21875 74.21875 32.171875 74.21875 
Q 37.3125 74.21875 42.625 73.28125 
Q 47.953125 72.359375 53.515625 70.515625 
z
" id="DejaVuSans-83"/>
      <path d="M 9.421875 54.6875 
L 18.40625 54.6875 
L 18.40625 0 
L 9.421875 0 
z
M 9.421875 75.984375 
L 18.40625 75.984375 
L 18.40625 64.59375 
L 9.421875 64.59375 
z
" id="DejaVuSans-105"/>
      <path d="M 56.203125 29.59375 
L 56.203125 25.203125 
L 14.890625 25.203125 
Q 15.484375 15.921875 20.484375 11.0625 
Q 25.484375 6.203125 34.421875 6.203125 
Q 39.59375 6.203125 44.453125 7.46875 
Q 49.3125 8.734375 54.109375 11.28125 
L 54.109375 2.78125 
Q 49.265625 0.734375 44.1875 -0.34375 
Q 39.109375 -1.421875 33.890625 -1.421875 
Q 20.796875 -1.421875 13.15625 6.1875 
Q 5.515625 13.8125 5.515625 26.8125 
Q 5.515625 40.234375 12.765625 48.109375 
Q 20.015625 56 32.328125 56 
Q 43.359375 56 49.78125 48.890625 
Q 56.203125 41.796875 56.203125 29.59375 
z
M 47.21875 32.234375 
Q 47.125 39.59375 43.09375 43.984375 
Q 39.0625 48.390625 32.421875 48.390625 
Q 24.90625 48.390625 20.390625 44.140625 
Q 15.875 39.890625 15.1875 32.171875 
z
" id="DejaVuSans-101"/>
      <path d="M 45.40625 46.390625 
L 45.40625 75.984375 
L 54.390625 75.984375 
L 54.390625 0 
L 45.40625 0 
L 45.40625 8.203125 
Q 42.578125 3.328125 38.25 0.953125 
Q 33.9375 -1.421875 27.875 -1.421875 
Q 17.96875 -1.421875 11.734375 6.484375 
Q 5.515625 14.40625 5.515625 27.296875 
Q 5.515625 40.1875 11.734375 48.09375 
Q 17.96875 56 27.875 56 
Q 33.9375 56 38.25 53.625 
Q 42.578125 51.265625 45.40625 46.390625 
z
M 14.796875 27.296875 
Q 14.796875 17.390625 18.875 11.75 
Q 22.953125 6.109375 30.078125 6.109375 
Q 37.203125 6.109375 41.296875 11.75 
Q 45.40625 17.390625 45.40625 27.296875 
Q 45.40625 37.203125 41.296875 42.84375 
Q 37.203125 48.484375 30.078125 48.484375 
Q 22.953125 48.484375 18.875 42.84375 
Q 14.796875 37.203125 14.796875 27.296875 
z
" id="DejaVuSans-100"/>
      <path d="M 34.1875 63.1875 
L 20.796875 26.90625 
L 47.609375 26.90625 
z
M 28.609375 72.90625 
L 39.796875 72.90625 
L 67.578125 0 
L 57.328125 0 
L 50.6875 18.703125 
L 17.828125 18.703125 
L 11.1875 0 
L 0.78125 0 
z
" id="DejaVuSans-65"/>
      <path d="M 45.40625 27.984375 
Q 45.40625 37.75 41.375 43.109375 
Q 37.359375 48.484375 30.078125 48.484375 
Q 22.859375 48.484375 18.828125 43.109375 
Q 14.796875 37.75 14.796875 27.984375 
Q 14.796875 18.265625 18.828125 12.890625 
Q 22.859375 7.515625 30.078125 7.515625 
Q 37.359375 7.515625 41.375 12.890625 
Q 45.40625 18.265625 45.40625 27.984375 
z
M 54.390625 6.78125 
Q 54.390625 -7.171875 48.1875 -13.984375 
Q 42 -20.796875 29.203125 -20.796875 
Q 24.46875 -20.796875 20.265625 -20.09375 
Q 16.0625 -19.390625 12.109375 -17.921875 
L 12.109375 -9.1875 
Q 16.0625 -11.328125 19.921875 -12.34375 
Q 23.78125 -13.375 27.78125 -13.375 
Q 36.625 -13.375 41.015625 -8.765625 
Q 45.40625 -4.15625 45.40625 5.171875 
L 45.40625 9.625 
Q 42.625 4.78125 38.28125 2.390625 
Q 33.9375 0 27.875 0 
Q 17.828125 0 11.671875 7.65625 
Q 5.515625 15.328125 5.515625 27.984375 
Q 5.515625 40.671875 11.671875 48.328125 
Q 17.828125 56 27.875 56 
Q 33.9375 56 38.28125 53.609375 
Q 42.625 51.21875 45.40625 46.390625 
L 45.40625 54.6875 
L 54.390625 54.6875 
z
" id="DejaVuSans-103"/>
      <path d="M 64.40625 67.28125 
L 64.40625 56.890625 
Q 59.421875 61.53125 53.78125 63.8125 
Q 48.140625 66.109375 41.796875 66.109375 
Q 29.296875 66.109375 22.65625 58.46875 
Q 16.015625 50.828125 16.015625 36.375 
Q 16.015625 21.96875 22.65625 14.328125 
Q 29.296875 6.6875 41.796875 6.6875 
Q 48.140625 6.6875 53.78125 8.984375 
Q 59.421875 11.28125 64.40625 15.921875 
L 64.40625 5.609375 
Q 59.234375 2.09375 53.4375 0.328125 
Q 47.65625 -1.421875 41.21875 -1.421875 
Q 24.65625 -1.421875 15.125 8.703125 
Q 5.609375 18.84375 5.609375 36.375 
Q 5.609375 53.953125 15.125 64.078125 
Q 24.65625 74.21875 41.21875 74.21875 
Q 47.75 74.21875 53.53125 72.484375 
Q 59.328125 70.75 64.40625 67.28125 
z
" id="DejaVuSans-67"/>
     </defs>
     <use xlink:href="#DejaVuSans-83"/>
     <use x="63.476562" xlink:href="#DejaVuSans-105"/>
     <use x="91.259766" xlink:href="#DejaVuSans-109"/>
     <use x="188.671875" xlink:href="#DejaVuSans-117"/>
     <use x="252.050781" xlink:href="#DejaVuSans-108"/>
     <use x="279.833984" xlink:href="#DejaVuSans-97"/>
     <use x="341.113281" xlink:href="#DejaVuSans-116"/>
     <use x="380.322266" xlink:href="#DejaVuSans-101"/>
     <use x="441.845703" xlink:href="#DejaVuSans-100"/>
     <use x="505.322266" xlink:href="#DejaVuSans-32"/>
     <use x="537.109375" xlink:href="#DejaVuSans-65"/>
     <use x="605.517578" xlink:href="#DejaVuSans-110"/>
     <use x="668.896484" xlink:href="#DejaVuSans-101"/>
     <use x="730.419922" xlink:href="#DejaVuSans-97"/>
     <use x="791.699219" xlink:href="#DejaVuSans-108"/>
     <use x="819.482422" xlink:href="#DejaVuSans-108"/>
     <use x="847.265625" xlink:href="#DejaVuSans-105"/>
     <use x="875.048828" xlink:href="#DejaVuSans-110"/>
     <use x="938.427734" xlink:href="#DejaVuSans-103"/>
     <use x="1001.904297" xlink:href="#DejaVuSans-32"/>
     <use x="1033.691406" xlink:href="#DejaVuSans-67"/>
     <use x="1103.515625" xlink:href="#DejaVuSans-111"/>
     <use x="1164.697266" xlink:href="#DejaVuSans-115"/>
     <use x="1216.796875" xlink:href="#DejaVuSans-116"/>
    </g>
   </g>
  </g>
 </g>
 <defs>
  <clipPath id="p9a17d2f012">
   <rect height="266.112" width="357.12" x="57.6" y="41.472"/>
  </clipPath>
 </defs>
</svg>
