<?xml version="1.0" encoding="utf-8" standalone="no"?>
<!DOCTYPE svg PUBLIC "-//W3C//DTD SVG 1.1//EN"
  "http://www.w3.org/Graphics/SVG/1.1/DTD/svg11.dtd">
<!-- Created with matplotlib (https://matplotlib.org/) -->
<svg height="345.6pt" version="1.1" viewBox="0 0 460.8 345.6" width="460.8pt" xmlns="http://www.w3.org/2000/svg" xmlns:xlink="http://www.w3.org/1999/xlink">
 <metadata>
  <rdf:RDF xmlns:cc="http://creativecommons.org/ns#" xmlns:dc="http://purl.org/dc/elements/1.1/" xmlns:rdf="http://www.w3.org/1999/02/22-rdf-syntax-ns#">
   <cc:Work>
    <dc:type rdf:resource="http://purl.org/dc/dcmitype/StillImage"/>
    <dc:date>2022-05-25T21:40:31.165457</dc:date>
    <dc:format>image/svg+xml</dc:format>
    <dc:creator>
     <cc:Agent>
      <dc:title>Matplotlib v3.3.4, https://matplotlib.org/</dc:title>
     </cc:Agent>
    </dc:creator>
   </cc:Work>
  </rdf:RDF>
 </metadata>
 <defs>
  <style type="text/css">*{stroke-linecap:butt;stroke-linejoin:round;}</style>
 </defs>
 <g id="figure_1">
  <g id="patch_1">
   <path d="M 0 345.6 
L 460.8 345.6 
L 460.8 0 
L 0 0 
z
" style="fill:#ffffff;"/>
  </g>
  <g id="axes_1">
   <g id="patch_2">
    <path d="M 57.6 307.584 
L 414.72 307.584 
L 414.72 41.472 
L 57.6 41.472 
z
" style="fill:#ffffff;"/>
   </g>
   <g id="matplotlib.axis_1">
    <g id="xtick_1">
     <g id="line2d_1">
      <defs>
       <path d="M 0 0 
L 0 3.5 
" id="m0c44ba359d" style="stroke:#000000;stroke-width:0.8;"/>
      </defs>
      <g>
       <use style="stroke:#000000;stroke-width:0.8;" x="73.832727" xlink:href="#m0c44ba359d" y="307.584"/>
      </g>
     </g>
     <g id="text_1">
      <!-- 0 -->
      <g transform="translate(70.651477 322.182437)scale(0.1 -0.1)">
       <defs>
        <path d="M 31.78125 66.40625 
Q 24.171875 66.40625 20.328125 58.90625 
Q 16.5 51.421875 16.5 36.375 
Q 16.5 21.390625 20.328125 13.890625 
Q 24.171875 6.390625 31.78125 6.390625 
Q 39.453125 6.390625 43.28125 13.890625 
Q 47.125 21.390625 47.125 36.375 
Q 47.125 51.421875 43.28125 58.90625 
Q 39.453125 66.40625 31.78125 66.40625 
z
M 31.78125 74.21875 
Q 44.046875 74.21875 50.515625 64.515625 
Q 56.984375 54.828125 56.984375 36.375 
Q 56.984375 17.96875 50.515625 8.265625 
Q 44.046875 -1.421875 31.78125 -1.421875 
Q 19.53125 -1.421875 13.0625 8.265625 
Q 6.59375 17.96875 6.59375 36.375 
Q 6.59375 54.828125 13.0625 64.515625 
Q 19.53125 74.21875 31.78125 74.21875 
z
" id="DejaVuSans-48"/>
       </defs>
       <use xlink:href="#DejaVuSans-48"/>
      </g>
     </g>
    </g>
    <g id="xtick_2">
     <g id="line2d_2">
      <g>
       <use style="stroke:#000000;stroke-width:0.8;" x="145.154025" xlink:href="#m0c44ba359d" y="307.584"/>
      </g>
     </g>
     <g id="text_2">
      <!-- 1000 -->
      <g transform="translate(132.429025 322.182437)scale(0.1 -0.1)">
       <defs>
        <path d="M 12.40625 8.296875 
L 28.515625 8.296875 
L 28.515625 63.921875 
L 10.984375 60.40625 
L 10.984375 69.390625 
L 28.421875 72.90625 
L 38.28125 72.90625 
L 38.28125 8.296875 
L 54.390625 8.296875 
L 54.390625 0 
L 12.40625 0 
z
" id="DejaVuSans-49"/>
       </defs>
       <use xlink:href="#DejaVuSans-49"/>
       <use x="63.623047" xlink:href="#DejaVuSans-48"/>
       <use x="127.246094" xlink:href="#DejaVuSans-48"/>
       <use x="190.869141" xlink:href="#DejaVuSans-48"/>
      </g>
     </g>
    </g>
    <g id="xtick_3">
     <g id="line2d_3">
      <g>
       <use style="stroke:#000000;stroke-width:0.8;" x="216.475322" xlink:href="#m0c44ba359d" y="307.584"/>
      </g>
     </g>
     <g id="text_3">
      <!-- 2000 -->
      <g transform="translate(203.750322 322.182437)scale(0.1 -0.1)">
       <defs>
        <path d="M 19.1875 8.296875 
L 53.609375 8.296875 
L 53.609375 0 
L 7.328125 0 
L 7.328125 8.296875 
Q 12.9375 14.109375 22.625 23.890625 
Q 32.328125 33.6875 34.8125 36.53125 
Q 39.546875 41.84375 41.421875 45.53125 
Q 43.3125 49.21875 43.3125 52.78125 
Q 43.3125 58.59375 39.234375 62.25 
Q 35.15625 65.921875 28.609375 65.921875 
Q 23.96875 65.921875 18.8125 64.3125 
Q 13.671875 62.703125 7.8125 59.421875 
L 7.8125 69.390625 
Q 13.765625 71.78125 18.9375 73 
Q 24.125 74.21875 28.421875 74.21875 
Q 39.75 74.21875 46.484375 68.546875 
Q 53.21875 62.890625 53.21875 53.421875 
Q 53.21875 48.921875 51.53125 44.890625 
Q 49.859375 40.875 45.40625 35.40625 
Q 44.1875 33.984375 37.640625 27.21875 
Q 31.109375 20.453125 19.1875 8.296875 
z
" id="DejaVuSans-50"/>
       </defs>
       <use xlink:href="#DejaVuSans-50"/>
       <use x="63.623047" xlink:href="#DejaVuSans-48"/>
       <use x="127.246094" xlink:href="#DejaVuSans-48"/>
       <use x="190.869141" xlink:href="#DejaVuSans-48"/>
      </g>
     </g>
    </g>
    <g id="xtick_4">
     <g id="line2d_4">
      <g>
       <use style="stroke:#000000;stroke-width:0.8;" x="287.796619" xlink:href="#m0c44ba359d" y="307.584"/>
      </g>
     </g>
     <g id="text_4">
      <!-- 3000 -->
      <g transform="translate(275.071619 322.182437)scale(0.1 -0.1)">
       <defs>
        <path d="M 40.578125 39.3125 
Q 47.65625 37.796875 51.625 33 
Q 55.609375 28.21875 55.609375 21.1875 
Q 55.609375 10.40625 48.1875 4.484375 
Q 40.765625 -1.421875 27.09375 -1.421875 
Q 22.515625 -1.421875 17.65625 -0.515625 
Q 12.796875 0.390625 7.625 2.203125 
L 7.625 11.71875 
Q 11.71875 9.328125 16.59375 8.109375 
Q 21.484375 6.890625 26.8125 6.890625 
Q 36.078125 6.890625 40.9375 10.546875 
Q 45.796875 14.203125 45.796875 21.1875 
Q 45.796875 27.640625 41.28125 31.265625 
Q 36.765625 34.90625 28.71875 34.90625 
L 20.21875 34.90625 
L 20.21875 43.015625 
L 29.109375 43.015625 
Q 36.375 43.015625 40.234375 45.921875 
Q 44.09375 48.828125 44.09375 54.296875 
Q 44.09375 59.90625 40.109375 62.90625 
Q 36.140625 65.921875 28.71875 65.921875 
Q 24.65625 65.921875 20.015625 65.03125 
Q 15.375 64.15625 9.8125 62.3125 
L 9.8125 71.09375 
Q 15.4375 72.65625 20.34375 73.4375 
Q 25.25 74.21875 29.59375 74.21875 
Q 40.828125 74.21875 47.359375 69.109375 
Q 53.90625 64.015625 53.90625 55.328125 
Q 53.90625 49.265625 50.4375 45.09375 
Q 46.96875 40.921875 40.578125 39.3125 
z
" id="DejaVuSans-51"/>
       </defs>
       <use xlink:href="#DejaVuSans-51"/>
       <use x="63.623047" xlink:href="#DejaVuSans-48"/>
       <use x="127.246094" xlink:href="#DejaVuSans-48"/>
       <use x="190.869141" xlink:href="#DejaVuSans-48"/>
      </g>
     </g>
    </g>
    <g id="xtick_5">
     <g id="line2d_5">
      <g>
       <use style="stroke:#000000;stroke-width:0.8;" x="359.117917" xlink:href="#m0c44ba359d" y="307.584"/>
      </g>
     </g>
     <g id="text_5">
      <!-- 4000 -->
      <g transform="translate(346.392917 322.182437)scale(0.1 -0.1)">
       <defs>
        <path d="M 37.796875 64.3125 
L 12.890625 25.390625 
L 37.796875 25.390625 
z
M 35.203125 72.90625 
L 47.609375 72.90625 
L 47.609375 25.390625 
L 58.015625 25.390625 
L 58.015625 17.1875 
L 47.609375 17.1875 
L 47.609375 0 
L 37.796875 0 
L 37.796875 17.1875 
L 4.890625 17.1875 
L 4.890625 26.703125 
z
" id="DejaVuSans-52"/>
       </defs>
       <use xlink:href="#DejaVuSans-52"/>
       <use x="63.623047" xlink:href="#DejaVuSans-48"/>
       <use x="127.246094" xlink:href="#DejaVuSans-48"/>
       <use x="190.869141" xlink:href="#DejaVuSans-48"/>
      </g>
     </g>
    </g>
    <g id="text_6">
     <!-- num swaps -->
     <g transform="translate(207.826406 335.860562)scale(0.1 -0.1)">
      <defs>
       <path d="M 54.890625 33.015625 
L 54.890625 0 
L 45.90625 0 
L 45.90625 32.71875 
Q 45.90625 40.484375 42.875 44.328125 
Q 39.84375 48.1875 33.796875 48.1875 
Q 26.515625 48.1875 22.3125 43.546875 
Q 18.109375 38.921875 18.109375 30.90625 
L 18.109375 0 
L 9.078125 0 
L 9.078125 54.6875 
L 18.109375 54.6875 
L 18.109375 46.1875 
Q 21.34375 51.125 25.703125 53.5625 
Q 30.078125 56 35.796875 56 
Q 45.21875 56 50.046875 50.171875 
Q 54.890625 44.34375 54.890625 33.015625 
z
" id="DejaVuSans-110"/>
       <path d="M 8.5 21.578125 
L 8.5 54.6875 
L 17.484375 54.6875 
L 17.484375 21.921875 
Q 17.484375 14.15625 20.5 10.265625 
Q 23.53125 6.390625 29.59375 6.390625 
Q 36.859375 6.390625 41.078125 11.03125 
Q 45.3125 15.671875 45.3125 23.6875 
L 45.3125 54.6875 
L 54.296875 54.6875 
L 54.296875 0 
L 45.3125 0 
L 45.3125 8.40625 
Q 42.046875 3.421875 37.71875 1 
Q 33.40625 -1.421875 27.6875 -1.421875 
Q 18.265625 -1.421875 13.375 4.4375 
Q 8.5 10.296875 8.5 21.578125 
z
M 31.109375 56 
z
" id="DejaVuSans-117"/>
       <path d="M 52 44.1875 
Q 55.375 50.25 60.0625 53.125 
Q 64.75 56 71.09375 56 
Q 79.640625 56 84.28125 50.015625 
Q 88.921875 44.046875 88.921875 33.015625 
L 88.921875 0 
L 79.890625 0 
L 79.890625 32.71875 
Q 79.890625 40.578125 77.09375 44.375 
Q 74.3125 48.1875 68.609375 48.1875 
Q 61.625 48.1875 57.5625 43.546875 
Q 53.515625 38.921875 53.515625 30.90625 
L 53.515625 0 
L 44.484375 0 
L 44.484375 32.71875 
Q 44.484375 40.625 41.703125 44.40625 
Q 38.921875 48.1875 33.109375 48.1875 
Q 26.21875 48.1875 22.15625 43.53125 
Q 18.109375 38.875 18.109375 30.90625 
L 18.109375 0 
L 9.078125 0 
L 9.078125 54.6875 
L 18.109375 54.6875 
L 18.109375 46.1875 
Q 21.1875 51.21875 25.484375 53.609375 
Q 29.78125 56 35.6875 56 
Q 41.65625 56 45.828125 52.96875 
Q 50 49.953125 52 44.1875 
z
" id="DejaVuSans-109"/>
       <path id="DejaVuSans-32"/>
       <path d="M 44.28125 53.078125 
L 44.28125 44.578125 
Q 40.484375 46.53125 36.375 47.5 
Q 32.28125 48.484375 27.875 48.484375 
Q 21.1875 48.484375 17.84375 46.4375 
Q 14.5 44.390625 14.5 40.28125 
Q 14.5 37.15625 16.890625 35.375 
Q 19.28125 33.59375 26.515625 31.984375 
L 29.59375 31.296875 
Q 39.15625 29.25 43.1875 25.515625 
Q 47.21875 21.78125 47.21875 15.09375 
Q 47.21875 7.46875 41.1875 3.015625 
Q 35.15625 -1.421875 24.609375 -1.421875 
Q 20.21875 -1.421875 15.453125 -0.5625 
Q 10.6875 0.296875 5.421875 2 
L 5.421875 11.28125 
Q 10.40625 8.6875 15.234375 7.390625 
Q 20.0625 6.109375 24.8125 6.109375 
Q 31.15625 6.109375 34.5625 8.28125 
Q 37.984375 10.453125 37.984375 14.40625 
Q 37.984375 18.0625 35.515625 20.015625 
Q 33.0625 21.96875 24.703125 23.78125 
L 21.578125 24.515625 
Q 13.234375 26.265625 9.515625 29.90625 
Q 5.8125 33.546875 5.8125 39.890625 
Q 5.8125 47.609375 11.28125 51.796875 
Q 16.75 56 26.8125 56 
Q 31.78125 56 36.171875 55.265625 
Q 40.578125 54.546875 44.28125 53.078125 
z
" id="DejaVuSans-115"/>
       <path d="M 4.203125 54.6875 
L 13.1875 54.6875 
L 24.421875 12.015625 
L 35.59375 54.6875 
L 46.1875 54.6875 
L 57.421875 12.015625 
L 68.609375 54.6875 
L 77.59375 54.6875 
L 63.28125 0 
L 52.6875 0 
L 40.921875 44.828125 
L 29.109375 0 
L 18.5 0 
z
" id="DejaVuSans-119"/>
       <path d="M 34.28125 27.484375 
Q 23.390625 27.484375 19.1875 25 
Q 14.984375 22.515625 14.984375 16.5 
Q 14.984375 11.71875 18.140625 8.90625 
Q 21.296875 6.109375 26.703125 6.109375 
Q 34.1875 6.109375 38.703125 11.40625 
Q 43.21875 16.703125 43.21875 25.484375 
L 43.21875 27.484375 
z
M 52.203125 31.203125 
L 52.203125 0 
L 43.21875 0 
L 43.21875 8.296875 
Q 40.140625 3.328125 35.546875 0.953125 
Q 30.953125 -1.421875 24.3125 -1.421875 
Q 15.921875 -1.421875 10.953125 3.296875 
Q 6 8.015625 6 15.921875 
Q 6 25.140625 12.171875 29.828125 
Q 18.359375 34.515625 30.609375 34.515625 
L 43.21875 34.515625 
L 43.21875 35.40625 
Q 43.21875 41.609375 39.140625 45 
Q 35.0625 48.390625 27.6875 48.390625 
Q 23 48.390625 18.546875 47.265625 
Q 14.109375 46.140625 10.015625 43.890625 
L 10.015625 52.203125 
Q 14.9375 54.109375 19.578125 55.046875 
Q 24.21875 56 28.609375 56 
Q 40.484375 56 46.34375 49.84375 
Q 52.203125 43.703125 52.203125 31.203125 
z
" id="DejaVuSans-97"/>
       <path d="M 18.109375 8.203125 
L 18.109375 -20.796875 
L 9.078125 -20.796875 
L 9.078125 54.6875 
L 18.109375 54.6875 
L 18.109375 46.390625 
Q 20.953125 51.265625 25.265625 53.625 
Q 29.59375 56 35.59375 56 
Q 45.5625 56 51.78125 48.09375 
Q 58.015625 40.1875 58.015625 27.296875 
Q 58.015625 14.40625 51.78125 6.484375 
Q 45.5625 -1.421875 35.59375 -1.421875 
Q 29.59375 -1.421875 25.265625 0.953125 
Q 20.953125 3.328125 18.109375 8.203125 
z
M 48.6875 27.296875 
Q 48.6875 37.203125 44.609375 42.84375 
Q 40.53125 48.484375 33.40625 48.484375 
Q 26.265625 48.484375 22.1875 42.84375 
Q 18.109375 37.203125 18.109375 27.296875 
Q 18.109375 17.390625 22.1875 11.75 
Q 26.265625 6.109375 33.40625 6.109375 
Q 40.53125 6.109375 44.609375 11.75 
Q 48.6875 17.390625 48.6875 27.296875 
z
" id="DejaVuSans-112"/>
      </defs>
      <use xlink:href="#DejaVuSans-110"/>
      <use x="63.378906" xlink:href="#DejaVuSans-117"/>
      <use x="126.757812" xlink:href="#DejaVuSans-109"/>
      <use x="224.169922" xlink:href="#DejaVuSans-32"/>
      <use x="255.957031" xlink:href="#DejaVuSans-115"/>
      <use x="308.056641" xlink:href="#DejaVuSans-119"/>
      <use x="389.84375" xlink:href="#DejaVuSans-97"/>
      <use x="451.123047" xlink:href="#DejaVuSans-112"/>
      <use x="514.599609" xlink:href="#DejaVuSans-115"/>
     </g>
    </g>
   </g>
   <g id="matplotlib.axis_2">
    <g id="ytick_1">
     <g id="line2d_6">
      <defs>
       <path d="M 0 0 
L -3.5 0 
" id="ma011852560" style="stroke:#000000;stroke-width:0.8;"/>
      </defs>
      <g>
       <use style="stroke:#000000;stroke-width:0.8;" x="57.6" xlink:href="#ma011852560" y="283.238886"/>
      </g>
     </g>
     <g id="text_7">
      <!-- 200 -->
      <g transform="translate(31.5125 287.038105)scale(0.1 -0.1)">
       <use xlink:href="#DejaVuSans-50"/>
       <use x="63.623047" xlink:href="#DejaVuSans-48"/>
       <use x="127.246094" xlink:href="#DejaVuSans-48"/>
      </g>
     </g>
    </g>
    <g id="ytick_2">
     <g id="line2d_7">
      <g>
       <use style="stroke:#000000;stroke-width:0.8;" x="57.6" xlink:href="#ma011852560" y="252.616101"/>
      </g>
     </g>
     <g id="text_8">
      <!-- 220 -->
      <g transform="translate(31.5125 256.41532)scale(0.1 -0.1)">
       <use xlink:href="#DejaVuSans-50"/>
       <use x="63.623047" xlink:href="#DejaVuSans-50"/>
       <use x="127.246094" xlink:href="#DejaVuSans-48"/>
      </g>
     </g>
    </g>
    <g id="ytick_3">
     <g id="line2d_8">
      <g>
       <use style="stroke:#000000;stroke-width:0.8;" x="57.6" xlink:href="#ma011852560" y="221.993316"/>
      </g>
     </g>
     <g id="text_9">
      <!-- 240 -->
      <g transform="translate(31.5125 225.792535)scale(0.1 -0.1)">
       <use xlink:href="#DejaVuSans-50"/>
       <use x="63.623047" xlink:href="#DejaVuSans-52"/>
       <use x="127.246094" xlink:href="#DejaVuSans-48"/>
      </g>
     </g>
    </g>
    <g id="ytick_4">
     <g id="line2d_9">
      <g>
       <use style="stroke:#000000;stroke-width:0.8;" x="57.6" xlink:href="#ma011852560" y="191.370532"/>
      </g>
     </g>
     <g id="text_10">
      <!-- 260 -->
      <g transform="translate(31.5125 195.16975)scale(0.1 -0.1)">
       <defs>
        <path d="M 33.015625 40.375 
Q 26.375 40.375 22.484375 35.828125 
Q 18.609375 31.296875 18.609375 23.390625 
Q 18.609375 15.53125 22.484375 10.953125 
Q 26.375 6.390625 33.015625 6.390625 
Q 39.65625 6.390625 43.53125 10.953125 
Q 47.40625 15.53125 47.40625 23.390625 
Q 47.40625 31.296875 43.53125 35.828125 
Q 39.65625 40.375 33.015625 40.375 
z
M 52.59375 71.296875 
L 52.59375 62.3125 
Q 48.875 64.0625 45.09375 64.984375 
Q 41.3125 65.921875 37.59375 65.921875 
Q 27.828125 65.921875 22.671875 59.328125 
Q 17.53125 52.734375 16.796875 39.40625 
Q 19.671875 43.65625 24.015625 45.921875 
Q 28.375 48.1875 33.59375 48.1875 
Q 44.578125 48.1875 50.953125 41.515625 
Q 57.328125 34.859375 57.328125 23.390625 
Q 57.328125 12.15625 50.6875 5.359375 
Q 44.046875 -1.421875 33.015625 -1.421875 
Q 20.359375 -1.421875 13.671875 8.265625 
Q 6.984375 17.96875 6.984375 36.375 
Q 6.984375 53.65625 15.1875 63.9375 
Q 23.390625 74.21875 37.203125 74.21875 
Q 40.921875 74.21875 44.703125 73.484375 
Q 48.484375 72.75 52.59375 71.296875 
z
" id="DejaVuSans-54"/>
       </defs>
       <use xlink:href="#DejaVuSans-50"/>
       <use x="63.623047" xlink:href="#DejaVuSans-54"/>
       <use x="127.246094" xlink:href="#DejaVuSans-48"/>
      </g>
     </g>
    </g>
    <g id="ytick_5">
     <g id="line2d_10">
      <g>
       <use style="stroke:#000000;stroke-width:0.8;" x="57.6" xlink:href="#ma011852560" y="160.747747"/>
      </g>
     </g>
     <g id="text_11">
      <!-- 280 -->
      <g transform="translate(31.5125 164.546966)scale(0.1 -0.1)">
       <defs>
        <path d="M 31.78125 34.625 
Q 24.75 34.625 20.71875 30.859375 
Q 16.703125 27.09375 16.703125 20.515625 
Q 16.703125 13.921875 20.71875 10.15625 
Q 24.75 6.390625 31.78125 6.390625 
Q 38.8125 6.390625 42.859375 10.171875 
Q 46.921875 13.96875 46.921875 20.515625 
Q 46.921875 27.09375 42.890625 30.859375 
Q 38.875 34.625 31.78125 34.625 
z
M 21.921875 38.8125 
Q 15.578125 40.375 12.03125 44.71875 
Q 8.5 49.078125 8.5 55.328125 
Q 8.5 64.0625 14.71875 69.140625 
Q 20.953125 74.21875 31.78125 74.21875 
Q 42.671875 74.21875 48.875 69.140625 
Q 55.078125 64.0625 55.078125 55.328125 
Q 55.078125 49.078125 51.53125 44.71875 
Q 48 40.375 41.703125 38.8125 
Q 48.828125 37.15625 52.796875 32.3125 
Q 56.78125 27.484375 56.78125 20.515625 
Q 56.78125 9.90625 50.3125 4.234375 
Q 43.84375 -1.421875 31.78125 -1.421875 
Q 19.734375 -1.421875 13.25 4.234375 
Q 6.78125 9.90625 6.78125 20.515625 
Q 6.78125 27.484375 10.78125 32.3125 
Q 14.796875 37.15625 21.921875 38.8125 
z
M 18.3125 54.390625 
Q 18.3125 48.734375 21.84375 45.5625 
Q 25.390625 42.390625 31.78125 42.390625 
Q 38.140625 42.390625 41.71875 45.5625 
Q 45.3125 48.734375 45.3125 54.390625 
Q 45.3125 60.0625 41.71875 63.234375 
Q 38.140625 66.40625 31.78125 66.40625 
Q 25.390625 66.40625 21.84375 63.234375 
Q 18.3125 60.0625 18.3125 54.390625 
z
" id="DejaVuSans-56"/>
       </defs>
       <use xlink:href="#DejaVuSans-50"/>
       <use x="63.623047" xlink:href="#DejaVuSans-56"/>
       <use x="127.246094" xlink:href="#DejaVuSans-48"/>
      </g>
     </g>
    </g>
    <g id="ytick_6">
     <g id="line2d_11">
      <g>
       <use style="stroke:#000000;stroke-width:0.8;" x="57.6" xlink:href="#ma011852560" y="130.124962"/>
      </g>
     </g>
     <g id="text_12">
      <!-- 300 -->
      <g transform="translate(31.5125 133.924181)scale(0.1 -0.1)">
       <use xlink:href="#DejaVuSans-51"/>
       <use x="63.623047" xlink:href="#DejaVuSans-48"/>
       <use x="127.246094" xlink:href="#DejaVuSans-48"/>
      </g>
     </g>
    </g>
    <g id="ytick_7">
     <g id="line2d_12">
      <g>
       <use style="stroke:#000000;stroke-width:0.8;" x="57.6" xlink:href="#ma011852560" y="99.502177"/>
      </g>
     </g>
     <g id="text_13">
      <!-- 320 -->
      <g transform="translate(31.5125 103.301396)scale(0.1 -0.1)">
       <use xlink:href="#DejaVuSans-51"/>
       <use x="63.623047" xlink:href="#DejaVuSans-50"/>
       <use x="127.246094" xlink:href="#DejaVuSans-48"/>
      </g>
     </g>
    </g>
    <g id="ytick_8">
     <g id="line2d_13">
      <g>
       <use style="stroke:#000000;stroke-width:0.8;" x="57.6" xlink:href="#ma011852560" y="68.879392"/>
      </g>
     </g>
     <g id="text_14">
      <!-- 340 -->
      <g transform="translate(31.5125 72.678611)scale(0.1 -0.1)">
       <use xlink:href="#DejaVuSans-51"/>
       <use x="63.623047" xlink:href="#DejaVuSans-52"/>
       <use x="127.246094" xlink:href="#DejaVuSans-48"/>
      </g>
     </g>
    </g>
    <g id="text_15">
     <!-- total cost -->
     <g transform="translate(25.432812 197.923313)rotate(-90)scale(0.1 -0.1)">
      <defs>
       <path d="M 18.3125 70.21875 
L 18.3125 54.6875 
L 36.8125 54.6875 
L 36.8125 47.703125 
L 18.3125 47.703125 
L 18.3125 18.015625 
Q 18.3125 11.328125 20.140625 9.421875 
Q 21.96875 7.515625 27.59375 7.515625 
L 36.8125 7.515625 
L 36.8125 0 
L 27.59375 0 
Q 17.1875 0 13.234375 3.875 
Q 9.28125 7.765625 9.28125 18.015625 
L 9.28125 47.703125 
L 2.6875 47.703125 
L 2.6875 54.6875 
L 9.28125 54.6875 
L 9.28125 70.21875 
z
" id="DejaVuSans-116"/>
       <path d="M 30.609375 48.390625 
Q 23.390625 48.390625 19.1875 42.75 
Q 14.984375 37.109375 14.984375 27.296875 
Q 14.984375 17.484375 19.15625 11.84375 
Q 23.34375 6.203125 30.609375 6.203125 
Q 37.796875 6.203125 41.984375 11.859375 
Q 46.1875 17.53125 46.1875 27.296875 
Q 46.1875 37.015625 41.984375 42.703125 
Q 37.796875 48.390625 30.609375 48.390625 
z
M 30.609375 56 
Q 42.328125 56 49.015625 48.375 
Q 55.71875 40.765625 55.71875 27.296875 
Q 55.71875 13.875 49.015625 6.21875 
Q 42.328125 -1.421875 30.609375 -1.421875 
Q 18.84375 -1.421875 12.171875 6.21875 
Q 5.515625 13.875 5.515625 27.296875 
Q 5.515625 40.765625 12.171875 48.375 
Q 18.84375 56 30.609375 56 
z
" id="DejaVuSans-111"/>
       <path d="M 9.421875 75.984375 
L 18.40625 75.984375 
L 18.40625 0 
L 9.421875 0 
z
" id="DejaVuSans-108"/>
       <path d="M 48.78125 52.59375 
L 48.78125 44.1875 
Q 44.96875 46.296875 41.140625 47.34375 
Q 37.3125 48.390625 33.40625 48.390625 
Q 24.65625 48.390625 19.8125 42.84375 
Q 14.984375 37.3125 14.984375 27.296875 
Q 14.984375 17.28125 19.8125 11.734375 
Q 24.65625 6.203125 33.40625 6.203125 
Q 37.3125 6.203125 41.140625 7.25 
Q 44.96875 8.296875 48.78125 10.40625 
L 48.78125 2.09375 
Q 45.015625 0.34375 40.984375 -0.53125 
Q 36.96875 -1.421875 32.421875 -1.421875 
Q 20.0625 -1.421875 12.78125 6.34375 
Q 5.515625 14.109375 5.515625 27.296875 
Q 5.515625 40.671875 12.859375 48.328125 
Q 20.21875 56 33.015625 56 
Q 37.15625 56 41.109375 55.140625 
Q 45.0625 54.296875 48.78125 52.59375 
z
" id="DejaVuSans-99"/>
      </defs>
      <use xlink:href="#DejaVuSans-116"/>
      <use x="39.208984" xlink:href="#DejaVuSans-111"/>
      <use x="100.390625" xlink:href="#DejaVuSans-116"/>
      <use x="139.599609" xlink:href="#DejaVuSans-97"/>
      <use x="200.878906" xlink:href="#DejaVuSans-108"/>
      <use x="228.662109" xlink:href="#DejaVuSans-32"/>
      <use x="260.449219" xlink:href="#DejaVuSans-99"/>
      <use x="315.429688" xlink:href="#DejaVuSans-111"/>
      <use x="376.611328" xlink:href="#DejaVuSans-115"/>
      <use x="428.710938" xlink:href="#DejaVuSans-116"/>
     </g>
    </g>
   </g>
   <g id="line2d_14">
    <path clip-path="url(#p7f79517920)" d="M 73.832727 91.846481 
L 74.403298 81.128506 
L 74.973868 82.659646 
L 75.544438 78.066228 
L 76.115009 87.253063 
L 76.685579 90.315342 
L 77.25615 116.344709 
L 77.82672 114.81357 
L 78.39729 108.689013 
L 78.967861 75.003949 
L 79.538431 73.47281 
L 80.109001 70.410532 
L 80.679572 90.315342 
L 81.250142 82.659646 
L 81.820713 73.47281 
L 82.391283 53.568 
L 82.961853 64.285975 
L 83.532424 70.410532 
L 84.102994 62.754835 
L 84.673564 59.692557 
L 85.244135 64.285975 
L 85.814705 73.47281 
L 86.385276 75.003949 
L 86.955846 87.253063 
L 87.526416 88.784203 
L 88.096987 91.846481 
L 88.667557 97.971038 
L 89.238127 122.469266 
L 89.808698 122.469266 
L 90.949839 148.498633 
L 91.520409 146.967494 
L 92.090979 143.905215 
L 92.66155 148.498633 
L 93.23212 156.154329 
L 93.802691 150.029772 
L 94.373261 137.780658 
L 94.943831 117.875848 
L 95.514402 128.593823 
L 96.084972 127.062684 
L 96.655542 139.311797 
L 97.226113 127.062684 
L 97.796683 139.311797 
L 98.367254 120.938127 
L 98.937824 110.220152 
L 99.508394 117.875848 
L 100.078965 145.436354 
L 100.649535 160.747747 
L 101.790676 166.872304 
L 102.361246 153.092051 
L 102.931817 116.344709 
L 103.502387 107.157873 
L 104.072957 117.875848 
L 104.643528 120.938127 
L 105.214098 96.439899 
L 105.784668 111.751291 
L 106.355239 104.095595 
L 106.925809 124.000405 
L 107.49638 125.531544 
L 108.06695 124.000405 
L 108.63752 111.751291 
L 109.208091 139.311797 
L 110.349232 101.033316 
L 110.919802 116.344709 
L 111.490372 122.469266 
L 112.060943 110.220152 
L 112.631513 119.406987 
L 113.202083 117.875848 
L 113.772654 140.842937 
L 114.343224 137.780658 
L 114.913795 133.187241 
L 115.484365 120.938127 
L 116.054935 119.406987 
L 116.625506 124.000405 
L 117.196076 122.469266 
L 117.766646 131.656101 
L 118.907787 108.689013 
L 119.478358 113.28243 
L 120.048928 127.062684 
L 120.619498 116.344709 
L 121.190069 120.938127 
L 121.760639 122.469266 
L 122.331209 116.344709 
L 122.90178 105.626734 
L 123.47235 114.81357 
L 124.042921 139.311797 
L 124.613491 125.531544 
L 125.184061 139.311797 
L 125.754632 119.406987 
L 126.325202 127.062684 
L 126.895772 82.659646 
L 127.466343 90.315342 
L 128.036913 107.157873 
L 128.607484 104.095595 
L 129.178054 96.439899 
L 129.748624 113.28243 
L 130.319195 122.469266 
L 130.889765 105.626734 
L 132.030906 96.439899 
L 132.601476 108.689013 
L 133.172047 97.971038 
L 133.742617 90.315342 
L 134.313187 110.220152 
L 134.883758 105.626734 
L 135.454328 110.220152 
L 136.024899 113.28243 
L 136.595469 122.469266 
L 137.166039 107.157873 
L 137.73661 127.062684 
L 138.30718 124.000405 
L 138.87775 110.220152 
L 139.448321 102.564456 
L 140.018891 87.253063 
L 140.589462 104.095595 
L 141.160032 99.502177 
L 141.730602 82.659646 
L 142.301173 90.315342 
L 142.871743 101.033316 
L 143.442313 101.033316 
L 144.012884 104.095595 
L 144.583454 97.971038 
L 145.154025 102.564456 
L 145.724595 104.095595 
L 146.295165 113.28243 
L 146.865736 99.502177 
L 147.436306 127.062684 
L 148.006876 105.626734 
L 148.577447 99.502177 
L 149.148017 94.908759 
L 149.718588 94.908759 
L 150.289158 85.721924 
L 150.859728 81.128506 
L 151.430299 96.439899 
L 152.000869 99.502177 
L 152.57144 97.971038 
L 153.14201 105.626734 
L 154.283151 134.71838 
L 154.853721 125.531544 
L 155.994862 148.498633 
L 156.565432 142.374076 
L 157.136003 120.938127 
L 158.277143 96.439899 
L 158.847714 120.938127 
L 159.418284 114.81357 
L 159.988854 130.124962 
L 160.559425 136.249519 
L 161.129995 139.311797 
L 161.700566 145.436354 
L 162.271136 119.406987 
L 163.412277 116.344709 
L 163.982847 117.875848 
L 164.553417 108.689013 
L 165.123988 85.721924 
L 165.694558 99.502177 
L 166.265129 104.095595 
L 166.835699 124.000405 
L 167.406269 120.938127 
L 167.97684 134.71838 
L 168.54741 125.531544 
L 169.117981 111.751291 
L 169.688551 110.220152 
L 170.259121 110.220152 
L 170.829692 131.656101 
L 171.400262 127.062684 
L 171.970832 105.626734 
L 172.541403 122.469266 
L 173.111973 117.875848 
L 173.682544 116.344709 
L 174.823684 143.905215 
L 175.394255 131.656101 
L 175.964825 104.095595 
L 176.535395 94.908759 
L 177.105966 107.157873 
L 177.676536 110.220152 
L 178.247107 122.469266 
L 178.817677 128.593823 
L 179.388247 120.938127 
L 179.958818 105.626734 
L 180.529388 110.220152 
L 181.670529 84.190785 
L 182.241099 97.971038 
L 182.81167 102.564456 
L 183.38224 128.593823 
L 183.95281 140.842937 
L 184.523381 133.187241 
L 185.093951 134.71838 
L 185.664521 137.780658 
L 186.235092 114.81357 
L 186.805662 124.000405 
L 187.376233 91.846481 
L 187.946803 91.846481 
L 188.517373 94.908759 
L 189.087944 81.128506 
L 189.658514 90.315342 
L 190.229085 105.626734 
L 190.799655 114.81357 
L 191.370225 120.938127 
L 191.940796 97.971038 
L 192.511366 104.095595 
L 193.081936 97.971038 
L 193.652507 93.37762 
L 194.223077 104.095595 
L 194.793648 102.564456 
L 195.364218 117.875848 
L 195.934788 101.033316 
L 196.505359 122.469266 
L 197.075929 116.344709 
L 197.646499 111.751291 
L 198.21707 122.469266 
L 198.78764 119.406987 
L 199.358211 124.000405 
L 199.928781 125.531544 
L 200.499351 111.751291 
L 201.069922 113.28243 
L 201.640492 102.564456 
L 202.211062 102.564456 
L 202.781633 91.846481 
L 203.352203 94.908759 
L 203.922774 85.721924 
L 204.493344 87.253063 
L 205.063914 107.157873 
L 205.634485 94.908759 
L 206.205055 85.721924 
L 206.775625 85.721924 
L 207.346196 93.37762 
L 207.916766 90.315342 
L 208.487337 78.066228 
L 209.057907 104.095595 
L 209.628477 97.971038 
L 210.199048 88.784203 
L 211.340189 108.689013 
L 211.910759 107.157873 
L 212.481329 101.033316 
L 213.0519 102.564456 
L 213.62247 117.875848 
L 214.19304 125.531544 
L 214.763611 105.626734 
L 215.334181 94.908759 
L 215.904752 91.846481 
L 217.045892 101.033316 
L 217.616463 116.344709 
L 218.187033 101.033316 
L 218.757603 88.784203 
L 219.328174 88.784203 
L 219.898744 79.597367 
L 220.469315 111.751291 
L 221.039885 124.000405 
L 221.610455 99.502177 
L 222.181026 85.721924 
L 222.751596 105.626734 
L 223.322166 110.220152 
L 223.892737 122.469266 
L 224.463307 119.406987 
L 225.033878 114.81357 
L 225.604448 122.469266 
L 226.175018 111.751291 
L 226.745589 111.751291 
L 227.316159 85.721924 
L 227.88673 90.315342 
L 228.4573 65.817114 
L 229.02787 78.066228 
L 229.598441 67.348253 
L 230.169011 68.879392 
L 230.739581 88.784203 
L 231.310152 114.81357 
L 231.880722 105.626734 
L 232.451293 128.593823 
L 233.021863 130.124962 
L 233.592433 130.124962 
L 234.163004 102.564456 
L 234.733574 87.253063 
L 235.304144 99.502177 
L 235.874715 79.597367 
L 237.015856 73.47281 
L 237.586426 76.535089 
L 238.156996 70.410532 
L 238.727567 84.190785 
L 239.298137 91.846481 
L 239.868707 97.971038 
L 240.439278 93.37762 
L 241.580419 116.344709 
L 242.150989 119.406987 
L 242.721559 119.406987 
L 243.29213 111.751291 
L 243.8627 114.81357 
L 244.43327 111.751291 
L 245.003841 76.535089 
L 245.574411 78.066228 
L 246.144982 87.253063 
L 246.715552 107.157873 
L 247.286122 101.033316 
L 247.856693 110.220152 
L 248.427263 113.28243 
L 248.997834 105.626734 
L 249.568404 108.689013 
L 250.709545 128.593823 
L 252.421256 99.502177 
L 252.991826 102.564456 
L 253.562397 96.439899 
L 254.132967 81.128506 
L 254.703537 102.564456 
L 255.274108 93.37762 
L 255.844678 97.971038 
L 256.985819 104.095595 
L 257.556389 102.564456 
L 258.69753 128.593823 
L 259.2681 136.249519 
L 259.838671 127.062684 
L 260.409241 131.656101 
L 260.979811 165.341165 
L 261.550382 133.187241 
L 262.120952 127.062684 
L 262.691523 142.374076 
L 263.262093 130.124962 
L 263.832663 150.029772 
L 264.403234 160.747747 
L 264.973804 145.436354 
L 265.544375 136.249519 
L 266.114945 137.780658 
L 266.685515 151.560911 
L 267.256086 145.436354 
L 267.826656 133.187241 
L 268.397226 139.311797 
L 268.967797 133.187241 
L 269.538367 139.311797 
L 270.108938 143.905215 
L 270.679508 130.124962 
L 271.250078 136.249519 
L 271.820649 131.656101 
L 272.391219 125.531544 
L 272.961789 122.469266 
L 273.53236 113.28243 
L 274.10293 125.531544 
L 274.673501 119.406987 
L 275.244071 110.220152 
L 275.814641 113.28243 
L 276.385212 122.469266 
L 276.955782 120.938127 
L 277.526352 116.344709 
L 278.096923 139.311797 
L 278.667493 140.842937 
L 279.238064 153.092051 
L 279.808634 142.374076 
L 280.379204 145.436354 
L 280.949775 145.436354 
L 281.520345 150.029772 
L 282.090915 163.810025 
L 282.661486 172.996861 
L 283.232056 172.996861 
L 283.802627 168.403443 
L 284.943767 142.374076 
L 285.514338 139.311797 
L 286.655479 183.714835 
L 287.226049 177.590278 
L 287.796619 188.308253 
L 288.36719 168.403443 
L 288.93776 168.403443 
L 289.50833 172.996861 
L 290.078901 168.403443 
L 290.649471 162.278886 
L 291.220042 159.216608 
L 291.790612 160.747747 
L 292.361182 146.967494 
L 292.931753 157.685468 
L 293.502323 156.154329 
L 294.072893 146.967494 
L 294.643464 148.498633 
L 295.784605 165.341165 
L 296.355175 169.934582 
L 296.925745 166.872304 
L 297.496316 156.154329 
L 298.066886 168.403443 
L 298.637456 153.092051 
L 299.208027 166.872304 
L 299.778597 143.905215 
L 300.349168 154.62319 
L 300.919738 154.62319 
L 301.490308 163.810025 
L 302.060879 165.341165 
L 303.202019 162.278886 
L 303.77259 166.872304 
L 304.34316 169.934582 
L 304.913731 171.465722 
L 305.484301 171.465722 
L 306.054871 174.528 
L 306.625442 189.839392 
L 307.196012 199.026228 
L 307.766583 191.370532 
L 308.337153 205.150785 
L 308.907723 212.806481 
L 309.478294 199.026228 
L 310.048864 194.43281 
L 310.619434 200.557367 
L 311.190005 203.619646 
L 311.760575 200.557367 
L 312.331146 209.744203 
L 312.901716 223.524456 
L 313.472286 208.213063 
L 314.613427 191.370532 
L 315.183997 191.370532 
L 315.754568 202.088506 
L 316.325138 197.495089 
L 316.895709 194.43281 
L 317.466279 192.901671 
L 318.036849 202.088506 
L 318.60742 192.901671 
L 319.17799 177.590278 
L 319.74856 188.308253 
L 320.319131 186.777114 
L 320.889701 183.714835 
L 321.460272 192.901671 
L 322.030842 195.963949 
L 322.601412 206.681924 
L 323.171983 205.150785 
L 323.742553 199.026228 
L 324.313124 200.557367 
L 324.883694 188.308253 
L 325.454264 192.901671 
L 326.024835 199.026228 
L 326.595405 199.026228 
L 327.165975 191.370532 
L 327.736546 205.150785 
L 328.307116 199.026228 
L 328.877687 223.524456 
L 329.448257 221.993316 
L 330.589398 215.868759 
L 331.159968 220.462177 
L 331.730538 221.993316 
L 332.871679 209.744203 
L 333.44225 208.213063 
L 334.01282 203.619646 
L 334.58339 217.399899 
L 335.153961 206.681924 
L 335.724531 202.088506 
L 336.865672 223.524456 
L 337.436242 223.524456 
L 338.006813 226.586734 
L 338.577383 231.180152 
L 339.147953 234.24243 
L 339.718524 225.055595 
L 340.289094 221.993316 
L 340.859664 225.055595 
L 341.430235 235.77357 
L 342.000805 218.931038 
L 342.571376 226.586734 
L 343.141946 231.180152 
L 343.712516 240.366987 
L 344.283087 234.24243 
L 344.853657 235.77357 
L 345.424228 238.835848 
L 345.994798 240.366987 
L 346.565368 240.366987 
L 347.135939 241.898127 
L 347.706509 244.960405 
L 348.277079 258.740658 
L 348.84765 254.147241 
L 349.41822 251.084962 
L 349.988791 254.147241 
L 350.559361 258.740658 
L 351.129931 261.802937 
L 351.700502 267.927494 
L 352.271072 278.645468 
L 352.841642 272.520911 
L 353.412213 269.458633 
L 353.982783 290.894582 
L 355.123924 287.832304 
L 355.694494 266.396354 
L 356.265065 266.396354 
L 356.835635 272.520911 
L 357.406205 264.865215 
L 357.976776 263.334076 
L 358.547346 272.520911 
L 359.117917 267.927494 
L 359.688487 270.989772 
L 360.259057 284.770025 
L 360.829628 278.645468 
L 361.400198 270.989772 
L 361.970768 272.520911 
L 362.541339 280.176608 
L 363.68248 280.176608 
L 364.25305 272.520911 
L 364.82362 267.927494 
L 365.394191 274.052051 
L 365.964761 287.832304 
L 366.535332 277.114329 
L 367.105902 284.770025 
L 367.676472 293.956861 
L 368.247043 295.488 
L 369.388183 267.927494 
L 369.958754 280.176608 
L 370.529324 269.458633 
L 371.099895 269.458633 
L 371.670465 257.209519 
L 372.241035 260.271797 
L 372.811606 264.865215 
L 373.382176 258.740658 
L 373.952746 261.802937 
L 374.523317 266.396354 
L 375.664458 269.458633 
L 376.235028 277.114329 
L 376.805598 281.707747 
L 377.376169 284.770025 
L 377.946739 284.770025 
L 378.517309 281.707747 
L 379.08788 272.520911 
L 379.65845 272.520911 
L 380.229021 263.334076 
L 380.799591 260.271797 
L 381.370161 266.396354 
L 381.940732 261.802937 
L 382.511302 272.520911 
L 383.081873 278.645468 
L 383.652443 266.396354 
L 384.223013 275.58319 
L 384.793584 274.052051 
L 385.364154 283.238886 
L 385.934724 286.301165 
L 386.505295 280.176608 
L 387.075865 277.114329 
L 387.646436 278.645468 
L 388.217006 272.520911 
L 388.787576 278.645468 
L 389.358147 278.645468 
L 389.928717 272.520911 
L 390.499287 269.458633 
L 391.069858 278.645468 
L 391.640428 278.645468 
L 392.210999 281.707747 
L 392.781569 286.301165 
L 393.352139 292.425722 
L 393.92271 292.425722 
L 394.49328 289.363443 
L 395.06385 287.832304 
L 395.634421 290.894582 
L 396.204991 286.301165 
L 396.775562 283.238886 
L 397.346132 281.707747 
L 397.916702 284.770025 
L 398.487273 275.58319 
L 398.487273 275.58319 
" style="fill:none;stroke:#1f77b4;stroke-linecap:square;stroke-width:1.5;"/>
   </g>
   <g id="patch_3">
    <path d="M 57.6 307.584 
L 57.6 41.472 
" style="fill:none;stroke:#000000;stroke-linecap:square;stroke-linejoin:miter;stroke-width:0.8;"/>
   </g>
   <g id="patch_4">
    <path d="M 414.72 307.584 
L 414.72 41.472 
" style="fill:none;stroke:#000000;stroke-linecap:square;stroke-linejoin:miter;stroke-width:0.8;"/>
   </g>
   <g id="patch_5">
    <path d="M 57.6 307.584 
L 414.72 307.584 
" style="fill:none;stroke:#000000;stroke-linecap:square;stroke-linejoin:miter;stroke-width:0.8;"/>
   </g>
   <g id="patch_6">
    <path d="M 57.6 41.472 
L 414.72 41.472 
" style="fill:none;stroke:#000000;stroke-linecap:square;stroke-linejoin:miter;stroke-width:0.8;"/>
   </g>
   <g id="text_16">
    <!-- Simulated Anealling Cost -->
    <g transform="translate(160.8 35.472)scale(0.12 -0.12)">
     <defs>
      <path d="M 53.515625 70.515625 
L 53.515625 60.890625 
Q 47.90625 63.578125 42.921875 64.890625 
Q 37.9375 66.21875 33.296875 66.21875 
Q 25.25 66.21875 20.875 63.09375 
Q 16.5 59.96875 16.5 54.203125 
Q 16.5 49.359375 19.40625 46.890625 
Q 22.3125 44.4375 30.421875 42.921875 
L 36.375 41.703125 
Q 47.40625 39.59375 52.65625 34.296875 
Q 57.90625 29 57.90625 20.125 
Q 57.90625 9.515625 50.796875 4.046875 
Q 43.703125 -1.421875 29.984375 -1.421875 
Q 24.8125 -1.421875 18.96875 -0.25 
Q 13.140625 0.921875 6.890625 3.21875 
L 6.890625 13.375 
Q 12.890625 10.015625 18.65625 8.296875 
Q 24.421875 6.59375 29.984375 6.59375 
Q 38.421875 6.59375 43.015625 9.90625 
Q 47.609375 13.234375 47.609375 19.390625 
Q 47.609375 24.75 44.3125 27.78125 
Q 41.015625 30.8125 33.5 32.328125 
L 27.484375 33.5 
Q 16.453125 35.6875 11.515625 40.375 
Q 6.59375 45.0625 6.59375 53.421875 
Q 6.59375 63.09375 13.40625 68.65625 
Q 20.21875 74.21875 32.171875 74.21875 
Q 37.3125 74.21875 42.625 73.28125 
Q 47.953125 72.359375 53.515625 70.515625 
z
" id="DejaVuSans-83"/>
      <path d="M 9.421875 54.6875 
L 18.40625 54.6875 
L 18.40625 0 
L 9.421875 0 
z
M 9.421875 75.984375 
L 18.40625 75.984375 
L 18.40625 64.59375 
L 9.421875 64.59375 
z
" id="DejaVuSans-105"/>
      <path d="M 56.203125 29.59375 
L 56.203125 25.203125 
L 14.890625 25.203125 
Q 15.484375 15.921875 20.484375 11.0625 
Q 25.484375 6.203125 34.421875 6.203125 
Q 39.59375 6.203125 44.453125 7.46875 
Q 49.3125 8.734375 54.109375 11.28125 
L 54.109375 2.78125 
Q 49.265625 0.734375 44.1875 -0.34375 
Q 39.109375 -1.421875 33.890625 -1.421875 
Q 20.796875 -1.421875 13.15625 6.1875 
Q 5.515625 13.8125 5.515625 26.8125 
Q 5.515625 40.234375 12.765625 48.109375 
Q 20.015625 56 32.328125 56 
Q 43.359375 56 49.78125 48.890625 
Q 56.203125 41.796875 56.203125 29.59375 
z
M 47.21875 32.234375 
Q 47.125 39.59375 43.09375 43.984375 
Q 39.0625 48.390625 32.421875 48.390625 
Q 24.90625 48.390625 20.390625 44.140625 
Q 15.875 39.890625 15.1875 32.171875 
z
" id="DejaVuSans-101"/>
      <path d="M 45.40625 46.390625 
L 45.40625 75.984375 
L 54.390625 75.984375 
L 54.390625 0 
L 45.40625 0 
L 45.40625 8.203125 
Q 42.578125 3.328125 38.25 0.953125 
Q 33.9375 -1.421875 27.875 -1.421875 
Q 17.96875 -1.421875 11.734375 6.484375 
Q 5.515625 14.40625 5.515625 27.296875 
Q 5.515625 40.1875 11.734375 48.09375 
Q 17.96875 56 27.875 56 
Q 33.9375 56 38.25 53.625 
Q 42.578125 51.265625 45.40625 46.390625 
z
M 14.796875 27.296875 
Q 14.796875 17.390625 18.875 11.75 
Q 22.953125 6.109375 30.078125 6.109375 
Q 37.203125 6.109375 41.296875 11.75 
Q 45.40625 17.390625 45.40625 27.296875 
Q 45.40625 37.203125 41.296875 42.84375 
Q 37.203125 48.484375 30.078125 48.484375 
Q 22.953125 48.484375 18.875 42.84375 
Q 14.796875 37.203125 14.796875 27.296875 
z
" id="DejaVuSans-100"/>
      <path d="M 34.1875 63.1875 
L 20.796875 26.90625 
L 47.609375 26.90625 
z
M 28.609375 72.90625 
L 39.796875 72.90625 
L 67.578125 0 
L 57.328125 0 
L 50.6875 18.703125 
L 17.828125 18.703125 
L 11.1875 0 
L 0.78125 0 
z
" id="DejaVuSans-65"/>
      <path d="M 45.40625 27.984375 
Q 45.40625 37.75 41.375 43.109375 
Q 37.359375 48.484375 30.078125 48.484375 
Q 22.859375 48.484375 18.828125 43.109375 
Q 14.796875 37.75 14.796875 27.984375 
Q 14.796875 18.265625 18.828125 12.890625 
Q 22.859375 7.515625 30.078125 7.515625 
Q 37.359375 7.515625 41.375 12.890625 
Q 45.40625 18.265625 45.40625 27.984375 
z
M 54.390625 6.78125 
Q 54.390625 -7.171875 48.1875 -13.984375 
Q 42 -20.796875 29.203125 -20.796875 
Q 24.46875 -20.796875 20.265625 -20.09375 
Q 16.0625 -19.390625 12.109375 -17.921875 
L 12.109375 -9.1875 
Q 16.0625 -11.328125 19.921875 -12.34375 
Q 23.78125 -13.375 27.78125 -13.375 
Q 36.625 -13.375 41.015625 -8.765625 
Q 45.40625 -4.15625 45.40625 5.171875 
L 45.40625 9.625 
Q 42.625 4.78125 38.28125 2.390625 
Q 33.9375 0 27.875 0 
Q 17.828125 0 11.671875 7.65625 
Q 5.515625 15.328125 5.515625 27.984375 
Q 5.515625 40.671875 11.671875 48.328125 
Q 17.828125 56 27.875 56 
Q 33.9375 56 38.28125 53.609375 
Q 42.625 51.21875 45.40625 46.390625 
L 45.40625 54.6875 
L 54.390625 54.6875 
z
" id="DejaVuSans-103"/>
      <path d="M 64.40625 67.28125 
L 64.40625 56.890625 
Q 59.421875 61.53125 53.78125 63.8125 
Q 48.140625 66.109375 41.796875 66.109375 
Q 29.296875 66.109375 22.65625 58.46875 
Q 16.015625 50.828125 16.015625 36.375 
Q 16.015625 21.96875 22.65625 14.328125 
Q 29.296875 6.6875 41.796875 6.6875 
Q 48.140625 6.6875 53.78125 8.984375 
Q 59.421875 11.28125 64.40625 15.921875 
L 64.40625 5.609375 
Q 59.234375 2.09375 53.4375 0.328125 
Q 47.65625 -1.421875 41.21875 -1.421875 
Q 24.65625 -1.421875 15.125 8.703125 
Q 5.609375 18.84375 5.609375 36.375 
Q 5.609375 53.953125 15.125 64.078125 
Q 24.65625 74.21875 41.21875 74.21875 
Q 47.75 74.21875 53.53125 72.484375 
Q 59.328125 70.75 64.40625 67.28125 
z
" id="DejaVuSans-67"/>
     </defs>
     <use xlink:href="#DejaVuSans-83"/>
     <use x="63.476562" xlink:href="#DejaVuSans-105"/>
     <use x="91.259766" xlink:href="#DejaVuSans-109"/>
     <use x="188.671875" xlink:href="#DejaVuSans-117"/>
     <use x="252.050781" xlink:href="#DejaVuSans-108"/>
     <use x="279.833984" xlink:href="#DejaVuSans-97"/>
     <use x="341.113281" xlink:href="#DejaVuSans-116"/>
     <use x="380.322266" xlink:href="#DejaVuSans-101"/>
     <use x="441.845703" xlink:href="#DejaVuSans-100"/>
     <use x="505.322266" xlink:href="#DejaVuSans-32"/>
     <use x="537.109375" xlink:href="#DejaVuSans-65"/>
     <use x="605.517578" xlink:href="#DejaVuSans-110"/>
     <use x="668.896484" xlink:href="#DejaVuSans-101"/>
     <use x="730.419922" xlink:href="#DejaVuSans-97"/>
     <use x="791.699219" xlink:href="#DejaVuSans-108"/>
     <use x="819.482422" xlink:href="#DejaVuSans-108"/>
     <use x="847.265625" xlink:href="#DejaVuSans-105"/>
     <use x="875.048828" xlink:href="#DejaVuSans-110"/>
     <use x="938.427734" xlink:href="#DejaVuSans-103"/>
     <use x="1001.904297" xlink:href="#DejaVuSans-32"/>
     <use x="1033.691406" xlink:href="#DejaVuSans-67"/>
     <use x="1103.515625" xlink:href="#DejaVuSans-111"/>
     <use x="1164.697266" xlink:href="#DejaVuSans-115"/>
     <use x="1216.796875" xlink:href="#DejaVuSans-116"/>
    </g>
   </g>
  </g>
 </g>
 <defs>
  <clipPath id="p7f79517920">
   <rect height="266.112" width="357.12" x="57.6" y="41.472"/>
  </clipPath>
 </defs>
</svg>
