<?xml version="1.0" encoding="utf-8" standalone="no"?>
<!DOCTYPE svg PUBLIC "-//W3C//DTD SVG 1.1//EN"
  "http://www.w3.org/Graphics/SVG/1.1/DTD/svg11.dtd">
<svg xmlns:xlink="http://www.w3.org/1999/xlink" width="460.8pt" height="345.6pt" viewBox="0 0 460.8 345.6" xmlns="http://www.w3.org/2000/svg" version="1.1">
 <metadata>
  <rdf:RDF xmlns:dc="http://purl.org/dc/elements/1.1/" xmlns:cc="http://creativecommons.org/ns#" xmlns:rdf="http://www.w3.org/1999/02/22-rdf-syntax-ns#">
   <cc:Work>
    <dc:type rdf:resource="http://purl.org/dc/dcmitype/StillImage"/>
    <dc:date>2022-06-01T08:07:22.980838</dc:date>
    <dc:format>image/svg+xml</dc:format>
    <dc:creator>
     <cc:Agent>
      <dc:title>Matplotlib v3.5.1, https://matplotlib.org/</dc:title>
     </cc:Agent>
    </dc:creator>
   </cc:Work>
  </rdf:RDF>
 </metadata>
 <defs>
  <style type="text/css">*{stroke-linejoin: round; stroke-linecap: butt}</style>
 </defs>
 <g id="figure_1">
  <g id="patch_1">
   <path d="M 0 345.6 
L 460.8 345.6 
L 460.8 0 
L 0 0 
z
" style="fill: #ffffff"/>
  </g>
  <g id="axes_1">
   <g id="patch_2">
    <path d="M 57.6 307.584 
L 414.72 307.584 
L 414.72 41.472 
L 57.6 41.472 
z
" style="fill: #ffffff"/>
   </g>
   <g id="matplotlib.axis_1">
    <g id="xtick_1">
     <g id="line2d_1">
      <defs>
       <path id="m9e6d729a4a" d="M 0 0 
L 0 3.5 
" style="stroke: #000000; stroke-width: 0.8"/>
      </defs>
      <g>
       <use xlink:href="#m9e6d729a4a" x="73.832727" y="307.584" style="stroke: #000000; stroke-width: 0.8"/>
      </g>
     </g>
     <g id="text_1">
      <!-- 0 -->
      <g transform="translate(70.651477 322.182437)scale(0.1 -0.1)">
       <defs>
        <path id="DejaVuSans-30" d="M 2034 4250 
Q 1547 4250 1301 3770 
Q 1056 3291 1056 2328 
Q 1056 1369 1301 889 
Q 1547 409 2034 409 
Q 2525 409 2770 889 
Q 3016 1369 3016 2328 
Q 3016 3291 2770 3770 
Q 2525 4250 2034 4250 
z
M 2034 4750 
Q 2819 4750 3233 4129 
Q 3647 3509 3647 2328 
Q 3647 1150 3233 529 
Q 2819 -91 2034 -91 
Q 1250 -91 836 529 
Q 422 1150 422 2328 
Q 422 3509 836 4129 
Q 1250 4750 2034 4750 
z
" transform="scale(0.015625)"/>
       </defs>
       <use xlink:href="#DejaVuSans-30"/>
      </g>
     </g>
    </g>
    <g id="xtick_2">
     <g id="line2d_2">
      <g>
       <use xlink:href="#m9e6d729a4a" x="126.880856" y="307.584" style="stroke: #000000; stroke-width: 0.8"/>
      </g>
     </g>
     <g id="text_2">
      <!-- 200 -->
      <g transform="translate(117.337106 322.182437)scale(0.1 -0.1)">
       <defs>
        <path id="DejaVuSans-32" d="M 1228 531 
L 3431 531 
L 3431 0 
L 469 0 
L 469 531 
Q 828 903 1448 1529 
Q 2069 2156 2228 2338 
Q 2531 2678 2651 2914 
Q 2772 3150 2772 3378 
Q 2772 3750 2511 3984 
Q 2250 4219 1831 4219 
Q 1534 4219 1204 4116 
Q 875 4013 500 3803 
L 500 4441 
Q 881 4594 1212 4672 
Q 1544 4750 1819 4750 
Q 2544 4750 2975 4387 
Q 3406 4025 3406 3419 
Q 3406 3131 3298 2873 
Q 3191 2616 2906 2266 
Q 2828 2175 2409 1742 
Q 1991 1309 1228 531 
z
" transform="scale(0.015625)"/>
       </defs>
       <use xlink:href="#DejaVuSans-32"/>
       <use xlink:href="#DejaVuSans-30" x="63.623047"/>
       <use xlink:href="#DejaVuSans-30" x="127.246094"/>
      </g>
     </g>
    </g>
    <g id="xtick_3">
     <g id="line2d_3">
      <g>
       <use xlink:href="#m9e6d729a4a" x="179.928984" y="307.584" style="stroke: #000000; stroke-width: 0.8"/>
      </g>
     </g>
     <g id="text_3">
      <!-- 400 -->
      <g transform="translate(170.385234 322.182437)scale(0.1 -0.1)">
       <defs>
        <path id="DejaVuSans-34" d="M 2419 4116 
L 825 1625 
L 2419 1625 
L 2419 4116 
z
M 2253 4666 
L 3047 4666 
L 3047 1625 
L 3713 1625 
L 3713 1100 
L 3047 1100 
L 3047 0 
L 2419 0 
L 2419 1100 
L 313 1100 
L 313 1709 
L 2253 4666 
z
" transform="scale(0.015625)"/>
       </defs>
       <use xlink:href="#DejaVuSans-34"/>
       <use xlink:href="#DejaVuSans-30" x="63.623047"/>
       <use xlink:href="#DejaVuSans-30" x="127.246094"/>
      </g>
     </g>
    </g>
    <g id="xtick_4">
     <g id="line2d_4">
      <g>
       <use xlink:href="#m9e6d729a4a" x="232.977112" y="307.584" style="stroke: #000000; stroke-width: 0.8"/>
      </g>
     </g>
     <g id="text_4">
      <!-- 600 -->
      <g transform="translate(223.433362 322.182437)scale(0.1 -0.1)">
       <defs>
        <path id="DejaVuSans-36" d="M 2113 2584 
Q 1688 2584 1439 2293 
Q 1191 2003 1191 1497 
Q 1191 994 1439 701 
Q 1688 409 2113 409 
Q 2538 409 2786 701 
Q 3034 994 3034 1497 
Q 3034 2003 2786 2293 
Q 2538 2584 2113 2584 
z
M 3366 4563 
L 3366 3988 
Q 3128 4100 2886 4159 
Q 2644 4219 2406 4219 
Q 1781 4219 1451 3797 
Q 1122 3375 1075 2522 
Q 1259 2794 1537 2939 
Q 1816 3084 2150 3084 
Q 2853 3084 3261 2657 
Q 3669 2231 3669 1497 
Q 3669 778 3244 343 
Q 2819 -91 2113 -91 
Q 1303 -91 875 529 
Q 447 1150 447 2328 
Q 447 3434 972 4092 
Q 1497 4750 2381 4750 
Q 2619 4750 2861 4703 
Q 3103 4656 3366 4563 
z
" transform="scale(0.015625)"/>
       </defs>
       <use xlink:href="#DejaVuSans-36"/>
       <use xlink:href="#DejaVuSans-30" x="63.623047"/>
       <use xlink:href="#DejaVuSans-30" x="127.246094"/>
      </g>
     </g>
    </g>
    <g id="xtick_5">
     <g id="line2d_5">
      <g>
       <use xlink:href="#m9e6d729a4a" x="286.025241" y="307.584" style="stroke: #000000; stroke-width: 0.8"/>
      </g>
     </g>
     <g id="text_5">
      <!-- 800 -->
      <g transform="translate(276.481491 322.182437)scale(0.1 -0.1)">
       <defs>
        <path id="DejaVuSans-38" d="M 2034 2216 
Q 1584 2216 1326 1975 
Q 1069 1734 1069 1313 
Q 1069 891 1326 650 
Q 1584 409 2034 409 
Q 2484 409 2743 651 
Q 3003 894 3003 1313 
Q 3003 1734 2745 1975 
Q 2488 2216 2034 2216 
z
M 1403 2484 
Q 997 2584 770 2862 
Q 544 3141 544 3541 
Q 544 4100 942 4425 
Q 1341 4750 2034 4750 
Q 2731 4750 3128 4425 
Q 3525 4100 3525 3541 
Q 3525 3141 3298 2862 
Q 3072 2584 2669 2484 
Q 3125 2378 3379 2068 
Q 3634 1759 3634 1313 
Q 3634 634 3220 271 
Q 2806 -91 2034 -91 
Q 1263 -91 848 271 
Q 434 634 434 1313 
Q 434 1759 690 2068 
Q 947 2378 1403 2484 
z
M 1172 3481 
Q 1172 3119 1398 2916 
Q 1625 2713 2034 2713 
Q 2441 2713 2670 2916 
Q 2900 3119 2900 3481 
Q 2900 3844 2670 4047 
Q 2441 4250 2034 4250 
Q 1625 4250 1398 4047 
Q 1172 3844 1172 3481 
z
" transform="scale(0.015625)"/>
       </defs>
       <use xlink:href="#DejaVuSans-38"/>
       <use xlink:href="#DejaVuSans-30" x="63.623047"/>
       <use xlink:href="#DejaVuSans-30" x="127.246094"/>
      </g>
     </g>
    </g>
    <g id="xtick_6">
     <g id="line2d_6">
      <g>
       <use xlink:href="#m9e6d729a4a" x="339.073369" y="307.584" style="stroke: #000000; stroke-width: 0.8"/>
      </g>
     </g>
     <g id="text_6">
      <!-- 1000 -->
      <g transform="translate(326.348369 322.182437)scale(0.1 -0.1)">
       <defs>
        <path id="DejaVuSans-31" d="M 794 531 
L 1825 531 
L 1825 4091 
L 703 3866 
L 703 4441 
L 1819 4666 
L 2450 4666 
L 2450 531 
L 3481 531 
L 3481 0 
L 794 0 
L 794 531 
z
" transform="scale(0.015625)"/>
       </defs>
       <use xlink:href="#DejaVuSans-31"/>
       <use xlink:href="#DejaVuSans-30" x="63.623047"/>
       <use xlink:href="#DejaVuSans-30" x="127.246094"/>
       <use xlink:href="#DejaVuSans-30" x="190.869141"/>
      </g>
     </g>
    </g>
    <g id="xtick_7">
     <g id="line2d_7">
      <g>
       <use xlink:href="#m9e6d729a4a" x="392.121497" y="307.584" style="stroke: #000000; stroke-width: 0.8"/>
      </g>
     </g>
     <g id="text_7">
      <!-- 1200 -->
      <g transform="translate(379.396497 322.182437)scale(0.1 -0.1)">
       <use xlink:href="#DejaVuSans-31"/>
       <use xlink:href="#DejaVuSans-32" x="63.623047"/>
       <use xlink:href="#DejaVuSans-30" x="127.246094"/>
       <use xlink:href="#DejaVuSans-30" x="190.869141"/>
      </g>
     </g>
    </g>
    <g id="text_8">
     <!-- num swaps -->
     <g transform="translate(207.826406 335.860562)scale(0.1 -0.1)">
      <defs>
       <path id="DejaVuSans-6e" d="M 3513 2113 
L 3513 0 
L 2938 0 
L 2938 2094 
Q 2938 2591 2744 2837 
Q 2550 3084 2163 3084 
Q 1697 3084 1428 2787 
Q 1159 2491 1159 1978 
L 1159 0 
L 581 0 
L 581 3500 
L 1159 3500 
L 1159 2956 
Q 1366 3272 1645 3428 
Q 1925 3584 2291 3584 
Q 2894 3584 3203 3211 
Q 3513 2838 3513 2113 
z
" transform="scale(0.015625)"/>
       <path id="DejaVuSans-75" d="M 544 1381 
L 544 3500 
L 1119 3500 
L 1119 1403 
Q 1119 906 1312 657 
Q 1506 409 1894 409 
Q 2359 409 2629 706 
Q 2900 1003 2900 1516 
L 2900 3500 
L 3475 3500 
L 3475 0 
L 2900 0 
L 2900 538 
Q 2691 219 2414 64 
Q 2138 -91 1772 -91 
Q 1169 -91 856 284 
Q 544 659 544 1381 
z
M 1991 3584 
L 1991 3584 
z
" transform="scale(0.015625)"/>
       <path id="DejaVuSans-6d" d="M 3328 2828 
Q 3544 3216 3844 3400 
Q 4144 3584 4550 3584 
Q 5097 3584 5394 3201 
Q 5691 2819 5691 2113 
L 5691 0 
L 5113 0 
L 5113 2094 
Q 5113 2597 4934 2840 
Q 4756 3084 4391 3084 
Q 3944 3084 3684 2787 
Q 3425 2491 3425 1978 
L 3425 0 
L 2847 0 
L 2847 2094 
Q 2847 2600 2669 2842 
Q 2491 3084 2119 3084 
Q 1678 3084 1418 2786 
Q 1159 2488 1159 1978 
L 1159 0 
L 581 0 
L 581 3500 
L 1159 3500 
L 1159 2956 
Q 1356 3278 1631 3431 
Q 1906 3584 2284 3584 
Q 2666 3584 2933 3390 
Q 3200 3197 3328 2828 
z
" transform="scale(0.015625)"/>
       <path id="DejaVuSans-20" transform="scale(0.015625)"/>
       <path id="DejaVuSans-73" d="M 2834 3397 
L 2834 2853 
Q 2591 2978 2328 3040 
Q 2066 3103 1784 3103 
Q 1356 3103 1142 2972 
Q 928 2841 928 2578 
Q 928 2378 1081 2264 
Q 1234 2150 1697 2047 
L 1894 2003 
Q 2506 1872 2764 1633 
Q 3022 1394 3022 966 
Q 3022 478 2636 193 
Q 2250 -91 1575 -91 
Q 1294 -91 989 -36 
Q 684 19 347 128 
L 347 722 
Q 666 556 975 473 
Q 1284 391 1588 391 
Q 1994 391 2212 530 
Q 2431 669 2431 922 
Q 2431 1156 2273 1281 
Q 2116 1406 1581 1522 
L 1381 1569 
Q 847 1681 609 1914 
Q 372 2147 372 2553 
Q 372 3047 722 3315 
Q 1072 3584 1716 3584 
Q 2034 3584 2315 3537 
Q 2597 3491 2834 3397 
z
" transform="scale(0.015625)"/>
       <path id="DejaVuSans-77" d="M 269 3500 
L 844 3500 
L 1563 769 
L 2278 3500 
L 2956 3500 
L 3675 769 
L 4391 3500 
L 4966 3500 
L 4050 0 
L 3372 0 
L 2619 2869 
L 1863 0 
L 1184 0 
L 269 3500 
z
" transform="scale(0.015625)"/>
       <path id="DejaVuSans-61" d="M 2194 1759 
Q 1497 1759 1228 1600 
Q 959 1441 959 1056 
Q 959 750 1161 570 
Q 1363 391 1709 391 
Q 2188 391 2477 730 
Q 2766 1069 2766 1631 
L 2766 1759 
L 2194 1759 
z
M 3341 1997 
L 3341 0 
L 2766 0 
L 2766 531 
Q 2569 213 2275 61 
Q 1981 -91 1556 -91 
Q 1019 -91 701 211 
Q 384 513 384 1019 
Q 384 1609 779 1909 
Q 1175 2209 1959 2209 
L 2766 2209 
L 2766 2266 
Q 2766 2663 2505 2880 
Q 2244 3097 1772 3097 
Q 1472 3097 1187 3025 
Q 903 2953 641 2809 
L 641 3341 
Q 956 3463 1253 3523 
Q 1550 3584 1831 3584 
Q 2591 3584 2966 3190 
Q 3341 2797 3341 1997 
z
" transform="scale(0.015625)"/>
       <path id="DejaVuSans-70" d="M 1159 525 
L 1159 -1331 
L 581 -1331 
L 581 3500 
L 1159 3500 
L 1159 2969 
Q 1341 3281 1617 3432 
Q 1894 3584 2278 3584 
Q 2916 3584 3314 3078 
Q 3713 2572 3713 1747 
Q 3713 922 3314 415 
Q 2916 -91 2278 -91 
Q 1894 -91 1617 61 
Q 1341 213 1159 525 
z
M 3116 1747 
Q 3116 2381 2855 2742 
Q 2594 3103 2138 3103 
Q 1681 3103 1420 2742 
Q 1159 2381 1159 1747 
Q 1159 1113 1420 752 
Q 1681 391 2138 391 
Q 2594 391 2855 752 
Q 3116 1113 3116 1747 
z
" transform="scale(0.015625)"/>
      </defs>
      <use xlink:href="#DejaVuSans-6e"/>
      <use xlink:href="#DejaVuSans-75" x="63.378906"/>
      <use xlink:href="#DejaVuSans-6d" x="126.757812"/>
      <use xlink:href="#DejaVuSans-20" x="224.169922"/>
      <use xlink:href="#DejaVuSans-73" x="255.957031"/>
      <use xlink:href="#DejaVuSans-77" x="308.056641"/>
      <use xlink:href="#DejaVuSans-61" x="389.84375"/>
      <use xlink:href="#DejaVuSans-70" x="451.123047"/>
      <use xlink:href="#DejaVuSans-73" x="514.599609"/>
     </g>
    </g>
   </g>
   <g id="matplotlib.axis_2">
    <g id="ytick_1">
     <g id="line2d_8">
      <defs>
       <path id="m16110d53e5" d="M 0 0 
L -3.5 0 
" style="stroke: #000000; stroke-width: 0.8"/>
      </defs>
      <g>
       <use xlink:href="#m16110d53e5" x="57.6" y="285.237153" style="stroke: #000000; stroke-width: 0.8"/>
      </g>
     </g>
     <g id="text_9">
      <!-- 420 -->
      <g transform="translate(31.5125 289.036371)scale(0.1 -0.1)">
       <use xlink:href="#DejaVuSans-34"/>
       <use xlink:href="#DejaVuSans-32" x="63.623047"/>
       <use xlink:href="#DejaVuSans-30" x="127.246094"/>
      </g>
     </g>
    </g>
    <g id="ytick_2">
     <g id="line2d_9">
      <g>
       <use xlink:href="#m16110d53e5" x="57.6" y="244.233763" style="stroke: #000000; stroke-width: 0.8"/>
      </g>
     </g>
     <g id="text_10">
      <!-- 440 -->
      <g transform="translate(31.5125 248.032981)scale(0.1 -0.1)">
       <use xlink:href="#DejaVuSans-34"/>
       <use xlink:href="#DejaVuSans-34" x="63.623047"/>
       <use xlink:href="#DejaVuSans-30" x="127.246094"/>
      </g>
     </g>
    </g>
    <g id="ytick_3">
     <g id="line2d_10">
      <g>
       <use xlink:href="#m16110d53e5" x="57.6" y="203.230373" style="stroke: #000000; stroke-width: 0.8"/>
      </g>
     </g>
     <g id="text_11">
      <!-- 460 -->
      <g transform="translate(31.5125 207.029592)scale(0.1 -0.1)">
       <use xlink:href="#DejaVuSans-34"/>
       <use xlink:href="#DejaVuSans-36" x="63.623047"/>
       <use xlink:href="#DejaVuSans-30" x="127.246094"/>
      </g>
     </g>
    </g>
    <g id="ytick_4">
     <g id="line2d_11">
      <g>
       <use xlink:href="#m16110d53e5" x="57.6" y="162.226983" style="stroke: #000000; stroke-width: 0.8"/>
      </g>
     </g>
     <g id="text_12">
      <!-- 480 -->
      <g transform="translate(31.5125 166.026202)scale(0.1 -0.1)">
       <use xlink:href="#DejaVuSans-34"/>
       <use xlink:href="#DejaVuSans-38" x="63.623047"/>
       <use xlink:href="#DejaVuSans-30" x="127.246094"/>
      </g>
     </g>
    </g>
    <g id="ytick_5">
     <g id="line2d_12">
      <g>
       <use xlink:href="#m16110d53e5" x="57.6" y="121.223593" style="stroke: #000000; stroke-width: 0.8"/>
      </g>
     </g>
     <g id="text_13">
      <!-- 500 -->
      <g transform="translate(31.5125 125.022812)scale(0.1 -0.1)">
       <defs>
        <path id="DejaVuSans-35" d="M 691 4666 
L 3169 4666 
L 3169 4134 
L 1269 4134 
L 1269 2991 
Q 1406 3038 1543 3061 
Q 1681 3084 1819 3084 
Q 2600 3084 3056 2656 
Q 3513 2228 3513 1497 
Q 3513 744 3044 326 
Q 2575 -91 1722 -91 
Q 1428 -91 1123 -41 
Q 819 9 494 109 
L 494 744 
Q 775 591 1075 516 
Q 1375 441 1709 441 
Q 2250 441 2565 725 
Q 2881 1009 2881 1497 
Q 2881 1984 2565 2268 
Q 2250 2553 1709 2553 
Q 1456 2553 1204 2497 
Q 953 2441 691 2322 
L 691 4666 
z
" transform="scale(0.015625)"/>
       </defs>
       <use xlink:href="#DejaVuSans-35"/>
       <use xlink:href="#DejaVuSans-30" x="63.623047"/>
       <use xlink:href="#DejaVuSans-30" x="127.246094"/>
      </g>
     </g>
    </g>
    <g id="ytick_6">
     <g id="line2d_13">
      <g>
       <use xlink:href="#m16110d53e5" x="57.6" y="80.220203" style="stroke: #000000; stroke-width: 0.8"/>
      </g>
     </g>
     <g id="text_14">
      <!-- 520 -->
      <g transform="translate(31.5125 84.019422)scale(0.1 -0.1)">
       <use xlink:href="#DejaVuSans-35"/>
       <use xlink:href="#DejaVuSans-32" x="63.623047"/>
       <use xlink:href="#DejaVuSans-30" x="127.246094"/>
      </g>
     </g>
    </g>
    <g id="text_15">
     <!-- total cost -->
     <g transform="translate(25.432812 197.923313)rotate(-90)scale(0.1 -0.1)">
      <defs>
       <path id="DejaVuSans-74" d="M 1172 4494 
L 1172 3500 
L 2356 3500 
L 2356 3053 
L 1172 3053 
L 1172 1153 
Q 1172 725 1289 603 
Q 1406 481 1766 481 
L 2356 481 
L 2356 0 
L 1766 0 
Q 1100 0 847 248 
Q 594 497 594 1153 
L 594 3053 
L 172 3053 
L 172 3500 
L 594 3500 
L 594 4494 
L 1172 4494 
z
" transform="scale(0.015625)"/>
       <path id="DejaVuSans-6f" d="M 1959 3097 
Q 1497 3097 1228 2736 
Q 959 2375 959 1747 
Q 959 1119 1226 758 
Q 1494 397 1959 397 
Q 2419 397 2687 759 
Q 2956 1122 2956 1747 
Q 2956 2369 2687 2733 
Q 2419 3097 1959 3097 
z
M 1959 3584 
Q 2709 3584 3137 3096 
Q 3566 2609 3566 1747 
Q 3566 888 3137 398 
Q 2709 -91 1959 -91 
Q 1206 -91 779 398 
Q 353 888 353 1747 
Q 353 2609 779 3096 
Q 1206 3584 1959 3584 
z
" transform="scale(0.015625)"/>
       <path id="DejaVuSans-6c" d="M 603 4863 
L 1178 4863 
L 1178 0 
L 603 0 
L 603 4863 
z
" transform="scale(0.015625)"/>
       <path id="DejaVuSans-63" d="M 3122 3366 
L 3122 2828 
Q 2878 2963 2633 3030 
Q 2388 3097 2138 3097 
Q 1578 3097 1268 2742 
Q 959 2388 959 1747 
Q 959 1106 1268 751 
Q 1578 397 2138 397 
Q 2388 397 2633 464 
Q 2878 531 3122 666 
L 3122 134 
Q 2881 22 2623 -34 
Q 2366 -91 2075 -91 
Q 1284 -91 818 406 
Q 353 903 353 1747 
Q 353 2603 823 3093 
Q 1294 3584 2113 3584 
Q 2378 3584 2631 3529 
Q 2884 3475 3122 3366 
z
" transform="scale(0.015625)"/>
      </defs>
      <use xlink:href="#DejaVuSans-74"/>
      <use xlink:href="#DejaVuSans-6f" x="39.208984"/>
      <use xlink:href="#DejaVuSans-74" x="100.390625"/>
      <use xlink:href="#DejaVuSans-61" x="139.599609"/>
      <use xlink:href="#DejaVuSans-6c" x="200.878906"/>
      <use xlink:href="#DejaVuSans-20" x="228.662109"/>
      <use xlink:href="#DejaVuSans-63" x="260.449219"/>
      <use xlink:href="#DejaVuSans-6f" x="315.429688"/>
      <use xlink:href="#DejaVuSans-73" x="376.611328"/>
      <use xlink:href="#DejaVuSans-74" x="428.710938"/>
     </g>
    </g>
   </g>
   <g id="line2d_14">
    <path d="M 73.832727 199.130034 
L 74.363209 199.130034 
L 74.89369 209.380881 
L 75.424171 215.53139 
L 75.954652 205.280542 
L 76.485134 182.728678 
L 77.015615 135.57478 
L 77.546096 141.725288 
L 78.076578 125.323932 
L 78.607059 113.022915 
L 79.13754 110.972746 
L 79.668021 115.073085 
L 80.198503 106.872407 
L 80.728984 100.721898 
L 81.259465 100.721898 
L 81.789947 94.57139 
L 82.320428 110.972746 
L 82.850909 123.273763 
L 83.38139 110.972746 
L 83.911872 209.380881 
L 84.442353 217.581559 
L 84.972834 211.431051 
L 85.503316 186.829017 
L 86.033797 192.979525 
L 86.564278 178.628339 
L 87.094759 172.477831 
L 87.625241 164.277153 
L 88.155722 149.925966 
L 89.216684 145.825627 
L 89.747166 151.976136 
L 90.277647 162.226983 
L 90.808128 190.929356 
L 91.33861 207.330712 
L 91.869091 209.380881 
L 92.399572 246.283932 
L 93.460535 229.882576 
L 93.991016 229.882576 
L 94.521497 233.982915 
L 95.051979 236.033085 
L 95.58246 256.53478 
L 96.112941 268.835797 
L 96.643422 287.287322 
L 97.173904 289.337492 
L 97.704385 295.488 
L 98.234866 277.036475 
L 98.765348 277.036475 
L 99.295829 289.337492 
L 99.82631 281.136814 
L 100.356791 270.885966 
L 100.887273 270.885966 
L 101.948235 248.334102 
L 102.478717 248.334102 
L 103.009198 252.434441 
L 103.539679 221.681898 
L 104.07016 211.431051 
L 104.600642 188.879186 
L 105.131123 186.829017 
L 105.661604 174.528 
L 106.192086 188.879186 
L 106.722567 188.879186 
L 107.253048 199.130034 
L 107.783529 195.029695 
L 108.314011 195.029695 
L 108.844492 231.932746 
L 109.374973 240.133424 
L 109.905455 203.230373 
L 110.435936 184.778847 
L 110.966417 184.778847 
L 111.496898 199.130034 
L 112.02738 186.829017 
L 112.557861 188.879186 
L 113.088342 195.029695 
L 113.618824 205.280542 
L 114.149305 205.280542 
L 114.679786 213.48122 
L 115.210267 207.330712 
L 115.740749 209.380881 
L 116.27123 207.330712 
L 116.801711 201.180203 
L 117.332193 207.330712 
L 117.862674 223.732068 
L 118.393155 223.732068 
L 119.454118 231.932746 
L 119.984599 223.732068 
L 120.51508 227.832407 
L 121.045561 227.832407 
L 121.576043 213.48122 
L 122.106524 205.280542 
L 122.637005 209.380881 
L 123.167487 203.230373 
L 123.697968 184.778847 
L 124.228449 192.979525 
L 124.75893 199.130034 
L 125.819893 203.230373 
L 126.350374 211.431051 
L 126.880856 195.029695 
L 127.411337 207.330712 
L 127.941818 215.53139 
L 129.002781 199.130034 
L 129.533262 184.778847 
L 130.063743 180.678508 
L 130.594225 197.079864 
L 131.124706 209.380881 
L 131.655187 199.130034 
L 132.185668 192.979525 
L 132.71615 211.431051 
L 133.246631 258.584949 
L 133.777112 252.434441 
L 134.307594 250.384271 
L 134.838075 250.384271 
L 135.368556 252.434441 
L 135.899037 248.334102 
L 136.429519 252.434441 
L 136.96 244.233763 
L 137.490481 258.584949 
L 138.020963 248.334102 
L 139.081925 270.885966 
L 139.612406 217.581559 
L 140.142888 201.180203 
L 140.673369 260.635119 
L 141.20385 264.735458 
L 141.734332 270.885966 
L 142.264813 248.334102 
L 142.795294 246.283932 
L 143.325775 231.932746 
L 143.856257 240.133424 
L 144.386738 211.431051 
L 144.917219 209.380881 
L 145.447701 186.829017 
L 145.978182 207.330712 
L 146.508663 211.431051 
L 147.039144 213.48122 
L 147.569626 201.180203 
L 148.100107 156.076475 
L 148.630588 192.979525 
L 149.16107 180.678508 
L 149.691551 180.678508 
L 150.222032 186.829017 
L 150.752513 190.929356 
L 151.282995 113.022915 
L 151.813476 94.57139 
L 152.343957 84.320542 
L 152.874439 80.220203 
L 153.40492 72.019525 
L 153.935401 80.220203 
L 154.465882 74.069695 
L 154.996364 57.668339 
L 155.526845 72.019525 
L 156.057326 76.119864 
L 157.118289 53.568 
L 157.64877 61.768678 
L 158.179251 72.019525 
L 158.709733 76.119864 
L 159.240214 170.427661 
L 159.770695 176.578169 
L 160.301176 176.578169 
L 160.831658 172.477831 
L 161.362139 166.327322 
L 162.423102 162.226983 
L 162.953583 168.377492 
L 163.484064 168.377492 
L 164.014545 162.226983 
L 164.545027 233.982915 
L 165.075508 217.581559 
L 165.605989 225.782237 
L 166.136471 238.083254 
L 166.666952 236.033085 
L 167.727914 213.48122 
L 168.788877 236.033085 
L 169.319358 227.832407 
L 169.84984 227.832407 
L 170.380321 225.782237 
L 170.910802 213.48122 
L 171.441283 215.53139 
L 171.971765 211.431051 
L 172.502246 238.083254 
L 173.032727 223.732068 
L 173.563209 219.631729 
L 174.09369 213.48122 
L 174.624171 201.180203 
L 175.154652 180.678508 
L 176.215615 203.230373 
L 176.746096 203.230373 
L 177.276578 211.431051 
L 177.807059 205.280542 
L 178.33754 209.380881 
L 178.868021 209.380881 
L 179.398503 201.180203 
L 180.989947 188.879186 
L 181.520428 186.829017 
L 182.050909 211.431051 
L 182.58139 213.48122 
L 183.111872 209.380881 
L 183.642353 203.230373 
L 184.172834 213.48122 
L 184.703316 242.183593 
L 185.233797 240.133424 
L 185.764278 260.635119 
L 186.294759 254.48461 
L 186.825241 252.434441 
L 187.355722 246.283932 
L 187.886203 231.932746 
L 188.416684 209.380881 
L 188.947166 211.431051 
L 189.477647 205.280542 
L 190.008128 213.48122 
L 190.53861 217.581559 
L 191.069091 215.53139 
L 191.599572 207.330712 
L 192.130053 211.431051 
L 192.660535 217.581559 
L 193.191016 201.180203 
L 193.721497 197.079864 
L 194.251979 174.528 
L 195.312941 201.180203 
L 195.843422 197.079864 
L 196.373904 203.230373 
L 196.904385 205.280542 
L 197.434866 215.53139 
L 197.965348 219.631729 
L 198.495829 225.782237 
L 199.556791 195.029695 
L 200.087273 192.979525 
L 200.617754 151.976136 
L 201.148235 158.126644 
L 201.678717 147.875797 
L 202.209198 184.778847 
L 202.739679 182.728678 
L 203.27016 174.528 
L 203.800642 192.979525 
L 204.861604 209.380881 
L 205.392086 203.230373 
L 205.922567 188.879186 
L 206.453048 182.728678 
L 206.983529 186.829017 
L 207.514011 188.879186 
L 208.044492 201.180203 
L 208.574973 195.029695 
L 209.105455 192.979525 
L 209.635936 178.628339 
L 210.166417 174.528 
L 210.696898 166.327322 
L 211.22738 172.477831 
L 211.757861 174.528 
L 212.288342 123.273763 
L 212.818824 131.474441 
L 213.349305 135.57478 
L 213.879786 125.323932 
L 214.410267 139.675119 
L 214.940749 133.52461 
L 215.47123 143.775458 
L 216.001711 176.578169 
L 216.532193 182.728678 
L 217.062674 166.327322 
L 217.593155 180.678508 
L 218.123636 168.377492 
L 218.654118 170.427661 
L 219.184599 170.427661 
L 219.71508 176.578169 
L 220.245561 180.678508 
L 220.776043 174.528 
L 221.306524 176.578169 
L 221.837005 162.226983 
L 222.897968 213.48122 
L 223.428449 205.280542 
L 223.95893 199.130034 
L 224.489412 184.778847 
L 225.019893 180.678508 
L 225.550374 192.979525 
L 226.080856 192.979525 
L 226.611337 201.180203 
L 227.141818 213.48122 
L 227.672299 207.330712 
L 228.202781 213.48122 
L 229.263743 213.48122 
L 229.794225 217.581559 
L 230.324706 219.631729 
L 230.855187 225.782237 
L 231.385668 248.334102 
L 231.91615 236.033085 
L 232.446631 244.233763 
L 232.977112 238.083254 
L 233.507594 240.133424 
L 234.038075 170.427661 
L 234.568556 172.477831 
L 235.099037 180.678508 
L 235.629519 174.528 
L 236.16 174.528 
L 236.690481 188.879186 
L 237.220963 190.929356 
L 237.751444 195.029695 
L 238.281925 197.079864 
L 238.812406 192.979525 
L 239.342888 182.728678 
L 239.873369 190.929356 
L 240.40385 174.528 
L 240.934332 207.330712 
L 241.995294 180.678508 
L 242.525775 151.976136 
L 243.056257 147.875797 
L 244.117219 156.076475 
L 245.178182 156.076475 
L 245.708663 166.327322 
L 246.239144 154.026305 
L 246.769626 145.825627 
L 247.300107 139.675119 
L 247.830588 190.929356 
L 248.36107 190.929356 
L 248.891551 205.280542 
L 249.422032 211.431051 
L 249.952513 195.029695 
L 250.482995 195.029695 
L 251.013476 180.678508 
L 251.543957 182.728678 
L 252.074439 182.728678 
L 252.60492 184.778847 
L 253.135401 182.728678 
L 254.196364 199.130034 
L 254.726845 199.130034 
L 255.257326 211.431051 
L 255.787807 211.431051 
L 256.318289 219.631729 
L 256.84877 207.330712 
L 257.379251 217.581559 
L 257.909733 219.631729 
L 258.440214 227.832407 
L 258.970695 246.283932 
L 259.501176 268.835797 
L 260.031658 250.384271 
L 261.09262 229.882576 
L 261.623102 236.033085 
L 262.153583 229.882576 
L 262.684064 227.832407 
L 263.214545 229.882576 
L 263.745027 207.330712 
L 264.275508 199.130034 
L 264.805989 199.130034 
L 265.336471 195.029695 
L 265.866952 211.431051 
L 266.397433 127.374102 
L 266.927914 127.374102 
L 267.458396 121.223593 
L 267.988877 119.173424 
L 268.519358 127.374102 
L 269.04984 127.374102 
L 269.580321 121.223593 
L 270.110802 201.180203 
L 271.171765 213.48122 
L 271.702246 211.431051 
L 272.232727 215.53139 
L 272.763209 209.380881 
L 273.29369 207.330712 
L 273.824171 231.932746 
L 274.354652 219.631729 
L 274.885134 238.083254 
L 275.415615 221.681898 
L 275.946096 164.277153 
L 276.476578 162.226983 
L 277.007059 151.976136 
L 278.068021 143.775458 
L 278.598503 156.076475 
L 279.128984 199.130034 
L 280.189947 219.631729 
L 280.720428 219.631729 
L 281.250909 223.732068 
L 281.78139 233.982915 
L 282.311872 225.782237 
L 282.842353 229.882576 
L 283.372834 256.53478 
L 283.903316 238.083254 
L 284.433797 236.033085 
L 284.964278 238.083254 
L 285.494759 246.283932 
L 286.025241 248.334102 
L 286.555722 203.230373 
L 287.086203 195.029695 
L 287.616684 180.678508 
L 288.147166 170.427661 
L 289.208128 170.427661 
L 289.73861 180.678508 
L 290.269091 213.48122 
L 290.799572 215.53139 
L 291.330053 264.735458 
L 291.860535 256.53478 
L 292.391016 262.685288 
L 292.921497 252.434441 
L 293.451979 231.932746 
L 293.98246 229.882576 
L 294.512941 221.681898 
L 295.043422 221.681898 
L 295.573904 219.631729 
L 296.634866 227.832407 
L 297.165348 250.384271 
L 297.695829 246.283932 
L 298.22631 266.785627 
L 298.756791 272.936136 
L 299.287273 274.986305 
L 300.348235 252.434441 
L 300.878717 244.233763 
L 301.409198 256.53478 
L 301.939679 256.53478 
L 302.47016 252.434441 
L 303.000642 233.982915 
L 303.531123 240.133424 
L 304.061604 238.083254 
L 304.592086 238.083254 
L 305.122567 227.832407 
L 305.653048 223.732068 
L 306.183529 225.782237 
L 306.714011 205.280542 
L 307.244492 215.53139 
L 307.774973 219.631729 
L 308.305455 211.431051 
L 308.835936 201.180203 
L 309.366417 178.628339 
L 309.896898 172.477831 
L 310.42738 170.427661 
L 310.957861 176.578169 
L 311.488342 178.628339 
L 312.018824 182.728678 
L 312.549305 174.528 
L 313.079786 160.176814 
L 313.610267 168.377492 
L 314.140749 168.377492 
L 314.67123 174.528 
L 315.201711 176.578169 
L 315.732193 205.280542 
L 316.262674 201.180203 
L 316.793155 209.380881 
L 317.323636 201.180203 
L 317.854118 201.180203 
L 318.384599 217.581559 
L 318.91508 207.330712 
L 319.445561 170.427661 
L 319.976043 180.678508 
L 321.037005 176.578169 
L 321.567487 176.578169 
L 322.097968 209.380881 
L 322.628449 190.929356 
L 323.15893 205.280542 
L 323.689412 211.431051 
L 324.219893 213.48122 
L 324.750374 211.431051 
L 325.280856 174.528 
L 325.811337 178.628339 
L 326.341818 184.778847 
L 326.872299 182.728678 
L 327.402781 205.280542 
L 328.463743 197.079864 
L 328.994225 180.678508 
L 329.524706 170.427661 
L 330.055187 174.528 
L 330.585668 168.377492 
L 331.11615 186.829017 
L 331.646631 178.628339 
L 332.177112 221.681898 
L 332.707594 203.230373 
L 333.238075 201.180203 
L 333.768556 213.48122 
L 334.299037 207.330712 
L 335.36 199.130034 
L 335.890481 201.180203 
L 336.420963 199.130034 
L 336.951444 195.029695 
L 337.481925 197.079864 
L 338.012406 203.230373 
L 338.542888 195.029695 
L 339.073369 195.029695 
L 339.60385 211.431051 
L 340.134332 219.631729 
L 341.195294 197.079864 
L 341.725775 199.130034 
L 342.256257 225.782237 
L 342.786738 240.133424 
L 343.317219 231.932746 
L 343.847701 229.882576 
L 344.378182 221.681898 
L 344.908663 236.033085 
L 345.439144 236.033085 
L 345.969626 238.083254 
L 346.500107 231.932746 
L 347.030588 231.932746 
L 347.56107 233.982915 
L 348.091551 223.732068 
L 348.622032 248.334102 
L 349.682995 274.986305 
L 350.213476 283.186983 
L 350.743957 207.330712 
L 351.274439 201.180203 
L 351.80492 199.130034 
L 352.335401 186.829017 
L 352.865882 182.728678 
L 353.396364 182.728678 
L 353.926845 199.130034 
L 354.457326 190.929356 
L 354.987807 184.778847 
L 355.518289 174.528 
L 356.04877 180.678508 
L 356.579251 223.732068 
L 357.109733 219.631729 
L 357.640214 205.280542 
L 358.170695 178.628339 
L 358.701176 176.578169 
L 359.762139 168.377492 
L 360.29262 168.377492 
L 360.823102 164.277153 
L 361.353583 156.076475 
L 361.884064 158.126644 
L 362.414545 154.026305 
L 362.945027 156.076475 
L 363.475508 149.925966 
L 364.005989 149.925966 
L 364.536471 172.477831 
L 365.066952 168.377492 
L 365.597433 166.327322 
L 366.127914 158.126644 
L 366.658396 147.875797 
L 367.188877 151.976136 
L 367.719358 149.925966 
L 368.24984 143.775458 
L 368.780321 139.675119 
L 369.310802 127.374102 
L 369.841283 127.374102 
L 370.371765 158.126644 
L 371.432727 190.929356 
L 371.963209 188.879186 
L 372.49369 221.681898 
L 373.024171 231.932746 
L 373.554652 236.033085 
L 374.085134 242.183593 
L 374.615615 244.233763 
L 375.146096 240.133424 
L 375.676578 250.384271 
L 376.207059 256.53478 
L 376.73754 252.434441 
L 377.798503 279.086644 
L 378.328984 266.785627 
L 378.859465 277.036475 
L 379.389947 279.086644 
L 379.920428 264.735458 
L 380.450909 264.735458 
L 380.98139 256.53478 
L 382.042353 244.233763 
L 382.572834 240.133424 
L 383.103316 252.434441 
L 383.633797 244.233763 
L 384.164278 244.233763 
L 384.694759 242.183593 
L 385.225241 242.183593 
L 385.755722 236.033085 
L 386.286203 217.581559 
L 386.816684 225.782237 
L 387.347166 221.681898 
L 387.877647 225.782237 
L 388.408128 209.380881 
L 388.93861 211.431051 
L 389.469091 203.230373 
L 389.999572 188.879186 
L 390.530053 178.628339 
L 391.060535 174.528 
L 391.591016 184.778847 
L 392.121497 186.829017 
L 392.651979 190.929356 
L 393.712941 182.728678 
L 394.243422 186.829017 
L 394.773904 205.280542 
L 395.304385 205.280542 
L 395.834866 211.431051 
L 396.365348 203.230373 
L 397.42631 203.230373 
L 397.956791 207.330712 
L 398.487273 207.330712 
L 398.487273 207.330712 
" clip-path="url(#p4fc65d5998)" style="fill: none; stroke: #1f77b4; stroke-width: 1.5; stroke-linecap: square"/>
   </g>
   <g id="patch_3">
    <path d="M 57.6 307.584 
L 57.6 41.472 
" style="fill: none; stroke: #000000; stroke-width: 0.8; stroke-linejoin: miter; stroke-linecap: square"/>
   </g>
   <g id="patch_4">
    <path d="M 414.72 307.584 
L 414.72 41.472 
" style="fill: none; stroke: #000000; stroke-width: 0.8; stroke-linejoin: miter; stroke-linecap: square"/>
   </g>
   <g id="patch_5">
    <path d="M 57.6 307.584 
L 414.72 307.584 
" style="fill: none; stroke: #000000; stroke-width: 0.8; stroke-linejoin: miter; stroke-linecap: square"/>
   </g>
   <g id="patch_6">
    <path d="M 57.6 41.472 
L 414.72 41.472 
" style="fill: none; stroke: #000000; stroke-width: 0.8; stroke-linejoin: miter; stroke-linecap: square"/>
   </g>
   <g id="text_16">
    <!-- Simulated Anealling Cost -->
    <g transform="translate(160.8 35.472)scale(0.12 -0.12)">
     <defs>
      <path id="DejaVuSans-53" d="M 3425 4513 
L 3425 3897 
Q 3066 4069 2747 4153 
Q 2428 4238 2131 4238 
Q 1616 4238 1336 4038 
Q 1056 3838 1056 3469 
Q 1056 3159 1242 3001 
Q 1428 2844 1947 2747 
L 2328 2669 
Q 3034 2534 3370 2195 
Q 3706 1856 3706 1288 
Q 3706 609 3251 259 
Q 2797 -91 1919 -91 
Q 1588 -91 1214 -16 
Q 841 59 441 206 
L 441 856 
Q 825 641 1194 531 
Q 1563 422 1919 422 
Q 2459 422 2753 634 
Q 3047 847 3047 1241 
Q 3047 1584 2836 1778 
Q 2625 1972 2144 2069 
L 1759 2144 
Q 1053 2284 737 2584 
Q 422 2884 422 3419 
Q 422 4038 858 4394 
Q 1294 4750 2059 4750 
Q 2388 4750 2728 4690 
Q 3069 4631 3425 4513 
z
" transform="scale(0.015625)"/>
      <path id="DejaVuSans-69" d="M 603 3500 
L 1178 3500 
L 1178 0 
L 603 0 
L 603 3500 
z
M 603 4863 
L 1178 4863 
L 1178 4134 
L 603 4134 
L 603 4863 
z
" transform="scale(0.015625)"/>
      <path id="DejaVuSans-65" d="M 3597 1894 
L 3597 1613 
L 953 1613 
Q 991 1019 1311 708 
Q 1631 397 2203 397 
Q 2534 397 2845 478 
Q 3156 559 3463 722 
L 3463 178 
Q 3153 47 2828 -22 
Q 2503 -91 2169 -91 
Q 1331 -91 842 396 
Q 353 884 353 1716 
Q 353 2575 817 3079 
Q 1281 3584 2069 3584 
Q 2775 3584 3186 3129 
Q 3597 2675 3597 1894 
z
M 3022 2063 
Q 3016 2534 2758 2815 
Q 2500 3097 2075 3097 
Q 1594 3097 1305 2825 
Q 1016 2553 972 2059 
L 3022 2063 
z
" transform="scale(0.015625)"/>
      <path id="DejaVuSans-64" d="M 2906 2969 
L 2906 4863 
L 3481 4863 
L 3481 0 
L 2906 0 
L 2906 525 
Q 2725 213 2448 61 
Q 2172 -91 1784 -91 
Q 1150 -91 751 415 
Q 353 922 353 1747 
Q 353 2572 751 3078 
Q 1150 3584 1784 3584 
Q 2172 3584 2448 3432 
Q 2725 3281 2906 2969 
z
M 947 1747 
Q 947 1113 1208 752 
Q 1469 391 1925 391 
Q 2381 391 2643 752 
Q 2906 1113 2906 1747 
Q 2906 2381 2643 2742 
Q 2381 3103 1925 3103 
Q 1469 3103 1208 2742 
Q 947 2381 947 1747 
z
" transform="scale(0.015625)"/>
      <path id="DejaVuSans-41" d="M 2188 4044 
L 1331 1722 
L 3047 1722 
L 2188 4044 
z
M 1831 4666 
L 2547 4666 
L 4325 0 
L 3669 0 
L 3244 1197 
L 1141 1197 
L 716 0 
L 50 0 
L 1831 4666 
z
" transform="scale(0.015625)"/>
      <path id="DejaVuSans-67" d="M 2906 1791 
Q 2906 2416 2648 2759 
Q 2391 3103 1925 3103 
Q 1463 3103 1205 2759 
Q 947 2416 947 1791 
Q 947 1169 1205 825 
Q 1463 481 1925 481 
Q 2391 481 2648 825 
Q 2906 1169 2906 1791 
z
M 3481 434 
Q 3481 -459 3084 -895 
Q 2688 -1331 1869 -1331 
Q 1566 -1331 1297 -1286 
Q 1028 -1241 775 -1147 
L 775 -588 
Q 1028 -725 1275 -790 
Q 1522 -856 1778 -856 
Q 2344 -856 2625 -561 
Q 2906 -266 2906 331 
L 2906 616 
Q 2728 306 2450 153 
Q 2172 0 1784 0 
Q 1141 0 747 490 
Q 353 981 353 1791 
Q 353 2603 747 3093 
Q 1141 3584 1784 3584 
Q 2172 3584 2450 3431 
Q 2728 3278 2906 2969 
L 2906 3500 
L 3481 3500 
L 3481 434 
z
" transform="scale(0.015625)"/>
      <path id="DejaVuSans-43" d="M 4122 4306 
L 4122 3641 
Q 3803 3938 3442 4084 
Q 3081 4231 2675 4231 
Q 1875 4231 1450 3742 
Q 1025 3253 1025 2328 
Q 1025 1406 1450 917 
Q 1875 428 2675 428 
Q 3081 428 3442 575 
Q 3803 722 4122 1019 
L 4122 359 
Q 3791 134 3420 21 
Q 3050 -91 2638 -91 
Q 1578 -91 968 557 
Q 359 1206 359 2328 
Q 359 3453 968 4101 
Q 1578 4750 2638 4750 
Q 3056 4750 3426 4639 
Q 3797 4528 4122 4306 
z
" transform="scale(0.015625)"/>
     </defs>
     <use xlink:href="#DejaVuSans-53"/>
     <use xlink:href="#DejaVuSans-69" x="63.476562"/>
     <use xlink:href="#DejaVuSans-6d" x="91.259766"/>
     <use xlink:href="#DejaVuSans-75" x="188.671875"/>
     <use xlink:href="#DejaVuSans-6c" x="252.050781"/>
     <use xlink:href="#DejaVuSans-61" x="279.833984"/>
     <use xlink:href="#DejaVuSans-74" x="341.113281"/>
     <use xlink:href="#DejaVuSans-65" x="380.322266"/>
     <use xlink:href="#DejaVuSans-64" x="441.845703"/>
     <use xlink:href="#DejaVuSans-20" x="505.322266"/>
     <use xlink:href="#DejaVuSans-41" x="537.109375"/>
     <use xlink:href="#DejaVuSans-6e" x="605.517578"/>
     <use xlink:href="#DejaVuSans-65" x="668.896484"/>
     <use xlink:href="#DejaVuSans-61" x="730.419922"/>
     <use xlink:href="#DejaVuSans-6c" x="791.699219"/>
     <use xlink:href="#DejaVuSans-6c" x="819.482422"/>
     <use xlink:href="#DejaVuSans-69" x="847.265625"/>
     <use xlink:href="#DejaVuSans-6e" x="875.048828"/>
     <use xlink:href="#DejaVuSans-67" x="938.427734"/>
     <use xlink:href="#DejaVuSans-20" x="1001.904297"/>
     <use xlink:href="#DejaVuSans-43" x="1033.691406"/>
     <use xlink:href="#DejaVuSans-6f" x="1103.515625"/>
     <use xlink:href="#DejaVuSans-73" x="1164.697266"/>
     <use xlink:href="#DejaVuSans-74" x="1216.796875"/>
    </g>
   </g>
  </g>
 </g>
 <defs>
  <clipPath id="p4fc65d5998">
   <rect x="57.6" y="41.472" width="357.12" height="266.112"/>
  </clipPath>
 </defs>
</svg>
