<?xml version="1.0" encoding="utf-8" standalone="no"?>
<!DOCTYPE svg PUBLIC "-//W3C//DTD SVG 1.1//EN"
  "http://www.w3.org/Graphics/SVG/1.1/DTD/svg11.dtd">
<svg xmlns:xlink="http://www.w3.org/1999/xlink" width="460.8pt" height="345.6pt" viewBox="0 0 460.8 345.6" xmlns="http://www.w3.org/2000/svg" version="1.1">
 <metadata>
  <rdf:RDF xmlns:dc="http://purl.org/dc/elements/1.1/" xmlns:cc="http://creativecommons.org/ns#" xmlns:rdf="http://www.w3.org/1999/02/22-rdf-syntax-ns#">
   <cc:Work>
    <dc:type rdf:resource="http://purl.org/dc/dcmitype/StillImage"/>
    <dc:date>2022-06-01T08:07:25.959622</dc:date>
    <dc:format>image/svg+xml</dc:format>
    <dc:creator>
     <cc:Agent>
      <dc:title>Matplotlib v3.5.1, https://matplotlib.org/</dc:title>
     </cc:Agent>
    </dc:creator>
   </cc:Work>
  </rdf:RDF>
 </metadata>
 <defs>
  <style type="text/css">*{stroke-linejoin: round; stroke-linecap: butt}</style>
 </defs>
 <g id="figure_1">
  <g id="patch_1">
   <path d="M 0 345.6 
L 460.8 345.6 
L 460.8 0 
L 0 0 
z
" style="fill: #ffffff"/>
  </g>
  <g id="axes_1">
   <g id="patch_2">
    <path d="M 57.6 307.584 
L 414.72 307.584 
L 414.72 41.472 
L 57.6 41.472 
z
" style="fill: #ffffff"/>
   </g>
   <g id="matplotlib.axis_1">
    <g id="xtick_1">
     <g id="line2d_1">
      <defs>
       <path id="mbe5021d8fc" d="M 0 0 
L 0 3.5 
" style="stroke: #000000; stroke-width: 0.8"/>
      </defs>
      <g>
       <use xlink:href="#mbe5021d8fc" x="73.832727" y="307.584" style="stroke: #000000; stroke-width: 0.8"/>
      </g>
     </g>
     <g id="text_1">
      <!-- 0 -->
      <g transform="translate(70.651477 322.182437)scale(0.1 -0.1)">
       <defs>
        <path id="DejaVuSans-30" d="M 2034 4250 
Q 1547 4250 1301 3770 
Q 1056 3291 1056 2328 
Q 1056 1369 1301 889 
Q 1547 409 2034 409 
Q 2525 409 2770 889 
Q 3016 1369 3016 2328 
Q 3016 3291 2770 3770 
Q 2525 4250 2034 4250 
z
M 2034 4750 
Q 2819 4750 3233 4129 
Q 3647 3509 3647 2328 
Q 3647 1150 3233 529 
Q 2819 -91 2034 -91 
Q 1250 -91 836 529 
Q 422 1150 422 2328 
Q 422 3509 836 4129 
Q 1250 4750 2034 4750 
z
" transform="scale(0.015625)"/>
       </defs>
       <use xlink:href="#DejaVuSans-30"/>
      </g>
     </g>
    </g>
    <g id="xtick_2">
     <g id="line2d_2">
      <g>
       <use xlink:href="#mbe5021d8fc" x="128.673022" y="307.584" style="stroke: #000000; stroke-width: 0.8"/>
      </g>
     </g>
     <g id="text_2">
      <!-- 200 -->
      <g transform="translate(119.129272 322.182437)scale(0.1 -0.1)">
       <defs>
        <path id="DejaVuSans-32" d="M 1228 531 
L 3431 531 
L 3431 0 
L 469 0 
L 469 531 
Q 828 903 1448 1529 
Q 2069 2156 2228 2338 
Q 2531 2678 2651 2914 
Q 2772 3150 2772 3378 
Q 2772 3750 2511 3984 
Q 2250 4219 1831 4219 
Q 1534 4219 1204 4116 
Q 875 4013 500 3803 
L 500 4441 
Q 881 4594 1212 4672 
Q 1544 4750 1819 4750 
Q 2544 4750 2975 4387 
Q 3406 4025 3406 3419 
Q 3406 3131 3298 2873 
Q 3191 2616 2906 2266 
Q 2828 2175 2409 1742 
Q 1991 1309 1228 531 
z
" transform="scale(0.015625)"/>
       </defs>
       <use xlink:href="#DejaVuSans-32"/>
       <use xlink:href="#DejaVuSans-30" x="63.623047"/>
       <use xlink:href="#DejaVuSans-30" x="127.246094"/>
      </g>
     </g>
    </g>
    <g id="xtick_3">
     <g id="line2d_3">
      <g>
       <use xlink:href="#mbe5021d8fc" x="183.513317" y="307.584" style="stroke: #000000; stroke-width: 0.8"/>
      </g>
     </g>
     <g id="text_3">
      <!-- 400 -->
      <g transform="translate(173.969567 322.182437)scale(0.1 -0.1)">
       <defs>
        <path id="DejaVuSans-34" d="M 2419 4116 
L 825 1625 
L 2419 1625 
L 2419 4116 
z
M 2253 4666 
L 3047 4666 
L 3047 1625 
L 3713 1625 
L 3713 1100 
L 3047 1100 
L 3047 0 
L 2419 0 
L 2419 1100 
L 313 1100 
L 313 1709 
L 2253 4666 
z
" transform="scale(0.015625)"/>
       </defs>
       <use xlink:href="#DejaVuSans-34"/>
       <use xlink:href="#DejaVuSans-30" x="63.623047"/>
       <use xlink:href="#DejaVuSans-30" x="127.246094"/>
      </g>
     </g>
    </g>
    <g id="xtick_4">
     <g id="line2d_4">
      <g>
       <use xlink:href="#mbe5021d8fc" x="238.353612" y="307.584" style="stroke: #000000; stroke-width: 0.8"/>
      </g>
     </g>
     <g id="text_4">
      <!-- 600 -->
      <g transform="translate(228.809862 322.182437)scale(0.1 -0.1)">
       <defs>
        <path id="DejaVuSans-36" d="M 2113 2584 
Q 1688 2584 1439 2293 
Q 1191 2003 1191 1497 
Q 1191 994 1439 701 
Q 1688 409 2113 409 
Q 2538 409 2786 701 
Q 3034 994 3034 1497 
Q 3034 2003 2786 2293 
Q 2538 2584 2113 2584 
z
M 3366 4563 
L 3366 3988 
Q 3128 4100 2886 4159 
Q 2644 4219 2406 4219 
Q 1781 4219 1451 3797 
Q 1122 3375 1075 2522 
Q 1259 2794 1537 2939 
Q 1816 3084 2150 3084 
Q 2853 3084 3261 2657 
Q 3669 2231 3669 1497 
Q 3669 778 3244 343 
Q 2819 -91 2113 -91 
Q 1303 -91 875 529 
Q 447 1150 447 2328 
Q 447 3434 972 4092 
Q 1497 4750 2381 4750 
Q 2619 4750 2861 4703 
Q 3103 4656 3366 4563 
z
" transform="scale(0.015625)"/>
       </defs>
       <use xlink:href="#DejaVuSans-36"/>
       <use xlink:href="#DejaVuSans-30" x="63.623047"/>
       <use xlink:href="#DejaVuSans-30" x="127.246094"/>
      </g>
     </g>
    </g>
    <g id="xtick_5">
     <g id="line2d_5">
      <g>
       <use xlink:href="#mbe5021d8fc" x="293.193907" y="307.584" style="stroke: #000000; stroke-width: 0.8"/>
      </g>
     </g>
     <g id="text_5">
      <!-- 800 -->
      <g transform="translate(283.650157 322.182437)scale(0.1 -0.1)">
       <defs>
        <path id="DejaVuSans-38" d="M 2034 2216 
Q 1584 2216 1326 1975 
Q 1069 1734 1069 1313 
Q 1069 891 1326 650 
Q 1584 409 2034 409 
Q 2484 409 2743 651 
Q 3003 894 3003 1313 
Q 3003 1734 2745 1975 
Q 2488 2216 2034 2216 
z
M 1403 2484 
Q 997 2584 770 2862 
Q 544 3141 544 3541 
Q 544 4100 942 4425 
Q 1341 4750 2034 4750 
Q 2731 4750 3128 4425 
Q 3525 4100 3525 3541 
Q 3525 3141 3298 2862 
Q 3072 2584 2669 2484 
Q 3125 2378 3379 2068 
Q 3634 1759 3634 1313 
Q 3634 634 3220 271 
Q 2806 -91 2034 -91 
Q 1263 -91 848 271 
Q 434 634 434 1313 
Q 434 1759 690 2068 
Q 947 2378 1403 2484 
z
M 1172 3481 
Q 1172 3119 1398 2916 
Q 1625 2713 2034 2713 
Q 2441 2713 2670 2916 
Q 2900 3119 2900 3481 
Q 2900 3844 2670 4047 
Q 2441 4250 2034 4250 
Q 1625 4250 1398 4047 
Q 1172 3844 1172 3481 
z
" transform="scale(0.015625)"/>
       </defs>
       <use xlink:href="#DejaVuSans-38"/>
       <use xlink:href="#DejaVuSans-30" x="63.623047"/>
       <use xlink:href="#DejaVuSans-30" x="127.246094"/>
      </g>
     </g>
    </g>
    <g id="xtick_6">
     <g id="line2d_6">
      <g>
       <use xlink:href="#mbe5021d8fc" x="348.034201" y="307.584" style="stroke: #000000; stroke-width: 0.8"/>
      </g>
     </g>
     <g id="text_6">
      <!-- 1000 -->
      <g transform="translate(335.309201 322.182437)scale(0.1 -0.1)">
       <defs>
        <path id="DejaVuSans-31" d="M 794 531 
L 1825 531 
L 1825 4091 
L 703 3866 
L 703 4441 
L 1819 4666 
L 2450 4666 
L 2450 531 
L 3481 531 
L 3481 0 
L 794 0 
L 794 531 
z
" transform="scale(0.015625)"/>
       </defs>
       <use xlink:href="#DejaVuSans-31"/>
       <use xlink:href="#DejaVuSans-30" x="63.623047"/>
       <use xlink:href="#DejaVuSans-30" x="127.246094"/>
       <use xlink:href="#DejaVuSans-30" x="190.869141"/>
      </g>
     </g>
    </g>
    <g id="xtick_7">
     <g id="line2d_7">
      <g>
       <use xlink:href="#mbe5021d8fc" x="402.874496" y="307.584" style="stroke: #000000; stroke-width: 0.8"/>
      </g>
     </g>
     <g id="text_7">
      <!-- 1200 -->
      <g transform="translate(390.149496 322.182437)scale(0.1 -0.1)">
       <use xlink:href="#DejaVuSans-31"/>
       <use xlink:href="#DejaVuSans-32" x="63.623047"/>
       <use xlink:href="#DejaVuSans-30" x="127.246094"/>
       <use xlink:href="#DejaVuSans-30" x="190.869141"/>
      </g>
     </g>
    </g>
    <g id="text_8">
     <!-- num swaps -->
     <g transform="translate(207.826406 335.860562)scale(0.1 -0.1)">
      <defs>
       <path id="DejaVuSans-6e" d="M 3513 2113 
L 3513 0 
L 2938 0 
L 2938 2094 
Q 2938 2591 2744 2837 
Q 2550 3084 2163 3084 
Q 1697 3084 1428 2787 
Q 1159 2491 1159 1978 
L 1159 0 
L 581 0 
L 581 3500 
L 1159 3500 
L 1159 2956 
Q 1366 3272 1645 3428 
Q 1925 3584 2291 3584 
Q 2894 3584 3203 3211 
Q 3513 2838 3513 2113 
z
" transform="scale(0.015625)"/>
       <path id="DejaVuSans-75" d="M 544 1381 
L 544 3500 
L 1119 3500 
L 1119 1403 
Q 1119 906 1312 657 
Q 1506 409 1894 409 
Q 2359 409 2629 706 
Q 2900 1003 2900 1516 
L 2900 3500 
L 3475 3500 
L 3475 0 
L 2900 0 
L 2900 538 
Q 2691 219 2414 64 
Q 2138 -91 1772 -91 
Q 1169 -91 856 284 
Q 544 659 544 1381 
z
M 1991 3584 
L 1991 3584 
z
" transform="scale(0.015625)"/>
       <path id="DejaVuSans-6d" d="M 3328 2828 
Q 3544 3216 3844 3400 
Q 4144 3584 4550 3584 
Q 5097 3584 5394 3201 
Q 5691 2819 5691 2113 
L 5691 0 
L 5113 0 
L 5113 2094 
Q 5113 2597 4934 2840 
Q 4756 3084 4391 3084 
Q 3944 3084 3684 2787 
Q 3425 2491 3425 1978 
L 3425 0 
L 2847 0 
L 2847 2094 
Q 2847 2600 2669 2842 
Q 2491 3084 2119 3084 
Q 1678 3084 1418 2786 
Q 1159 2488 1159 1978 
L 1159 0 
L 581 0 
L 581 3500 
L 1159 3500 
L 1159 2956 
Q 1356 3278 1631 3431 
Q 1906 3584 2284 3584 
Q 2666 3584 2933 3390 
Q 3200 3197 3328 2828 
z
" transform="scale(0.015625)"/>
       <path id="DejaVuSans-20" transform="scale(0.015625)"/>
       <path id="DejaVuSans-73" d="M 2834 3397 
L 2834 2853 
Q 2591 2978 2328 3040 
Q 2066 3103 1784 3103 
Q 1356 3103 1142 2972 
Q 928 2841 928 2578 
Q 928 2378 1081 2264 
Q 1234 2150 1697 2047 
L 1894 2003 
Q 2506 1872 2764 1633 
Q 3022 1394 3022 966 
Q 3022 478 2636 193 
Q 2250 -91 1575 -91 
Q 1294 -91 989 -36 
Q 684 19 347 128 
L 347 722 
Q 666 556 975 473 
Q 1284 391 1588 391 
Q 1994 391 2212 530 
Q 2431 669 2431 922 
Q 2431 1156 2273 1281 
Q 2116 1406 1581 1522 
L 1381 1569 
Q 847 1681 609 1914 
Q 372 2147 372 2553 
Q 372 3047 722 3315 
Q 1072 3584 1716 3584 
Q 2034 3584 2315 3537 
Q 2597 3491 2834 3397 
z
" transform="scale(0.015625)"/>
       <path id="DejaVuSans-77" d="M 269 3500 
L 844 3500 
L 1563 769 
L 2278 3500 
L 2956 3500 
L 3675 769 
L 4391 3500 
L 4966 3500 
L 4050 0 
L 3372 0 
L 2619 2869 
L 1863 0 
L 1184 0 
L 269 3500 
z
" transform="scale(0.015625)"/>
       <path id="DejaVuSans-61" d="M 2194 1759 
Q 1497 1759 1228 1600 
Q 959 1441 959 1056 
Q 959 750 1161 570 
Q 1363 391 1709 391 
Q 2188 391 2477 730 
Q 2766 1069 2766 1631 
L 2766 1759 
L 2194 1759 
z
M 3341 1997 
L 3341 0 
L 2766 0 
L 2766 531 
Q 2569 213 2275 61 
Q 1981 -91 1556 -91 
Q 1019 -91 701 211 
Q 384 513 384 1019 
Q 384 1609 779 1909 
Q 1175 2209 1959 2209 
L 2766 2209 
L 2766 2266 
Q 2766 2663 2505 2880 
Q 2244 3097 1772 3097 
Q 1472 3097 1187 3025 
Q 903 2953 641 2809 
L 641 3341 
Q 956 3463 1253 3523 
Q 1550 3584 1831 3584 
Q 2591 3584 2966 3190 
Q 3341 2797 3341 1997 
z
" transform="scale(0.015625)"/>
       <path id="DejaVuSans-70" d="M 1159 525 
L 1159 -1331 
L 581 -1331 
L 581 3500 
L 1159 3500 
L 1159 2969 
Q 1341 3281 1617 3432 
Q 1894 3584 2278 3584 
Q 2916 3584 3314 3078 
Q 3713 2572 3713 1747 
Q 3713 922 3314 415 
Q 2916 -91 2278 -91 
Q 1894 -91 1617 61 
Q 1341 213 1159 525 
z
M 3116 1747 
Q 3116 2381 2855 2742 
Q 2594 3103 2138 3103 
Q 1681 3103 1420 2742 
Q 1159 2381 1159 1747 
Q 1159 1113 1420 752 
Q 1681 391 2138 391 
Q 2594 391 2855 752 
Q 3116 1113 3116 1747 
z
" transform="scale(0.015625)"/>
      </defs>
      <use xlink:href="#DejaVuSans-6e"/>
      <use xlink:href="#DejaVuSans-75" x="63.378906"/>
      <use xlink:href="#DejaVuSans-6d" x="126.757812"/>
      <use xlink:href="#DejaVuSans-20" x="224.169922"/>
      <use xlink:href="#DejaVuSans-73" x="255.957031"/>
      <use xlink:href="#DejaVuSans-77" x="308.056641"/>
      <use xlink:href="#DejaVuSans-61" x="389.84375"/>
      <use xlink:href="#DejaVuSans-70" x="451.123047"/>
      <use xlink:href="#DejaVuSans-73" x="514.599609"/>
     </g>
    </g>
   </g>
   <g id="matplotlib.axis_2">
    <g id="ytick_1">
     <g id="line2d_8">
      <defs>
       <path id="m0e5d4d5d89" d="M 0 0 
L -3.5 0 
" style="stroke: #000000; stroke-width: 0.8"/>
      </defs>
      <g>
       <use xlink:href="#m0e5d4d5d89" x="57.6" y="284.390752" style="stroke: #000000; stroke-width: 0.8"/>
      </g>
     </g>
     <g id="text_9">
      <!-- 400 -->
      <g transform="translate(31.5125 288.189971)scale(0.1 -0.1)">
       <use xlink:href="#DejaVuSans-34"/>
       <use xlink:href="#DejaVuSans-30" x="63.623047"/>
       <use xlink:href="#DejaVuSans-30" x="127.246094"/>
      </g>
     </g>
    </g>
    <g id="ytick_2">
     <g id="line2d_9">
      <g>
       <use xlink:href="#m0e5d4d5d89" x="57.6" y="240.001761" style="stroke: #000000; stroke-width: 0.8"/>
      </g>
     </g>
     <g id="text_10">
      <!-- 420 -->
      <g transform="translate(31.5125 243.80098)scale(0.1 -0.1)">
       <use xlink:href="#DejaVuSans-34"/>
       <use xlink:href="#DejaVuSans-32" x="63.623047"/>
       <use xlink:href="#DejaVuSans-30" x="127.246094"/>
      </g>
     </g>
    </g>
    <g id="ytick_3">
     <g id="line2d_10">
      <g>
       <use xlink:href="#m0e5d4d5d89" x="57.6" y="195.612771" style="stroke: #000000; stroke-width: 0.8"/>
      </g>
     </g>
     <g id="text_11">
      <!-- 440 -->
      <g transform="translate(31.5125 199.411989)scale(0.1 -0.1)">
       <use xlink:href="#DejaVuSans-34"/>
       <use xlink:href="#DejaVuSans-34" x="63.623047"/>
       <use xlink:href="#DejaVuSans-30" x="127.246094"/>
      </g>
     </g>
    </g>
    <g id="ytick_4">
     <g id="line2d_11">
      <g>
       <use xlink:href="#m0e5d4d5d89" x="57.6" y="151.22378" style="stroke: #000000; stroke-width: 0.8"/>
      </g>
     </g>
     <g id="text_12">
      <!-- 460 -->
      <g transform="translate(31.5125 155.022999)scale(0.1 -0.1)">
       <use xlink:href="#DejaVuSans-34"/>
       <use xlink:href="#DejaVuSans-36" x="63.623047"/>
       <use xlink:href="#DejaVuSans-30" x="127.246094"/>
      </g>
     </g>
    </g>
    <g id="ytick_5">
     <g id="line2d_12">
      <g>
       <use xlink:href="#m0e5d4d5d89" x="57.6" y="106.834789" style="stroke: #000000; stroke-width: 0.8"/>
      </g>
     </g>
     <g id="text_13">
      <!-- 480 -->
      <g transform="translate(31.5125 110.634008)scale(0.1 -0.1)">
       <use xlink:href="#DejaVuSans-34"/>
       <use xlink:href="#DejaVuSans-38" x="63.623047"/>
       <use xlink:href="#DejaVuSans-30" x="127.246094"/>
      </g>
     </g>
    </g>
    <g id="ytick_6">
     <g id="line2d_13">
      <g>
       <use xlink:href="#m0e5d4d5d89" x="57.6" y="62.445798" style="stroke: #000000; stroke-width: 0.8"/>
      </g>
     </g>
     <g id="text_14">
      <!-- 500 -->
      <g transform="translate(31.5125 66.245017)scale(0.1 -0.1)">
       <defs>
        <path id="DejaVuSans-35" d="M 691 4666 
L 3169 4666 
L 3169 4134 
L 1269 4134 
L 1269 2991 
Q 1406 3038 1543 3061 
Q 1681 3084 1819 3084 
Q 2600 3084 3056 2656 
Q 3513 2228 3513 1497 
Q 3513 744 3044 326 
Q 2575 -91 1722 -91 
Q 1428 -91 1123 -41 
Q 819 9 494 109 
L 494 744 
Q 775 591 1075 516 
Q 1375 441 1709 441 
Q 2250 441 2565 725 
Q 2881 1009 2881 1497 
Q 2881 1984 2565 2268 
Q 2250 2553 1709 2553 
Q 1456 2553 1204 2497 
Q 953 2441 691 2322 
L 691 4666 
z
" transform="scale(0.015625)"/>
       </defs>
       <use xlink:href="#DejaVuSans-35"/>
       <use xlink:href="#DejaVuSans-30" x="63.623047"/>
       <use xlink:href="#DejaVuSans-30" x="127.246094"/>
      </g>
     </g>
    </g>
    <g id="text_15">
     <!-- total cost -->
     <g transform="translate(25.432812 197.923313)rotate(-90)scale(0.1 -0.1)">
      <defs>
       <path id="DejaVuSans-74" d="M 1172 4494 
L 1172 3500 
L 2356 3500 
L 2356 3053 
L 1172 3053 
L 1172 1153 
Q 1172 725 1289 603 
Q 1406 481 1766 481 
L 2356 481 
L 2356 0 
L 1766 0 
Q 1100 0 847 248 
Q 594 497 594 1153 
L 594 3053 
L 172 3053 
L 172 3500 
L 594 3500 
L 594 4494 
L 1172 4494 
z
" transform="scale(0.015625)"/>
       <path id="DejaVuSans-6f" d="M 1959 3097 
Q 1497 3097 1228 2736 
Q 959 2375 959 1747 
Q 959 1119 1226 758 
Q 1494 397 1959 397 
Q 2419 397 2687 759 
Q 2956 1122 2956 1747 
Q 2956 2369 2687 2733 
Q 2419 3097 1959 3097 
z
M 1959 3584 
Q 2709 3584 3137 3096 
Q 3566 2609 3566 1747 
Q 3566 888 3137 398 
Q 2709 -91 1959 -91 
Q 1206 -91 779 398 
Q 353 888 353 1747 
Q 353 2609 779 3096 
Q 1206 3584 1959 3584 
z
" transform="scale(0.015625)"/>
       <path id="DejaVuSans-6c" d="M 603 4863 
L 1178 4863 
L 1178 0 
L 603 0 
L 603 4863 
z
" transform="scale(0.015625)"/>
       <path id="DejaVuSans-63" d="M 3122 3366 
L 3122 2828 
Q 2878 2963 2633 3030 
Q 2388 3097 2138 3097 
Q 1578 3097 1268 2742 
Q 959 2388 959 1747 
Q 959 1106 1268 751 
Q 1578 397 2138 397 
Q 2388 397 2633 464 
Q 2878 531 3122 666 
L 3122 134 
Q 2881 22 2623 -34 
Q 2366 -91 2075 -91 
Q 1284 -91 818 406 
Q 353 903 353 1747 
Q 353 2603 823 3093 
Q 1294 3584 2113 3584 
Q 2378 3584 2631 3529 
Q 2884 3475 3122 3366 
z
" transform="scale(0.015625)"/>
      </defs>
      <use xlink:href="#DejaVuSans-74"/>
      <use xlink:href="#DejaVuSans-6f" x="39.208984"/>
      <use xlink:href="#DejaVuSans-74" x="100.390625"/>
      <use xlink:href="#DejaVuSans-61" x="139.599609"/>
      <use xlink:href="#DejaVuSans-6c" x="200.878906"/>
      <use xlink:href="#DejaVuSans-20" x="228.662109"/>
      <use xlink:href="#DejaVuSans-63" x="260.449219"/>
      <use xlink:href="#DejaVuSans-6f" x="315.429688"/>
      <use xlink:href="#DejaVuSans-73" x="376.611328"/>
      <use xlink:href="#DejaVuSans-74" x="428.710938"/>
     </g>
    </g>
   </g>
   <g id="line2d_14">
    <path d="M 73.832727 257.757358 
L 74.38113 264.415706 
L 74.929533 279.951853 
L 75.477936 286.610202 
L 76.026339 286.610202 
L 76.574742 275.512954 
L 77.123145 284.390752 
L 77.671548 282.171303 
L 78.219951 277.732404 
L 78.768354 275.512954 
L 79.316757 271.074055 
L 79.86516 277.732404 
L 80.961966 282.171303 
L 81.510369 286.610202 
L 82.058771 295.488 
L 82.607174 259.976807 
L 83.155577 262.196257 
L 83.70398 257.757358 
L 84.252383 246.66011 
L 84.800786 257.757358 
L 85.349189 226.685064 
L 85.897592 204.490569 
L 86.445995 206.710018 
L 86.994398 204.490569 
L 87.542801 197.83222 
L 88.091204 197.83222 
L 88.639607 188.954422 
L 89.18801 191.173872 
L 89.736413 182.296073 
L 90.284816 197.83222 
L 91.381622 73.543046 
L 91.930025 73.543046 
L 92.478428 97.956991 
L 93.02683 97.956991 
L 93.575233 86.859743 
L 94.123636 89.079193 
L 94.672039 151.22378 
L 95.220442 149.00433 
L 95.768845 153.443229 
L 96.317248 160.101578 
L 96.865651 162.321028 
L 97.414054 157.882128 
L 97.962457 149.00433 
L 98.51086 168.979376 
L 99.059263 162.321028 
L 99.607666 180.076624 
L 100.156069 191.173872 
L 100.704472 182.296073 
L 101.252875 235.562862 
L 101.801278 240.001761 
L 102.349681 224.465615 
L 102.898084 202.271119 
L 103.446486 137.907083 
L 103.994889 120.151486 
L 104.543292 126.809835 
L 105.091695 131.248734 
L 105.640098 137.907083 
L 106.188501 129.029284 
L 106.736904 133.468183 
L 107.285307 129.029284 
L 107.83371 122.370936 
L 108.382113 113.493138 
L 108.930516 97.956991 
L 109.478919 109.054239 
L 110.027322 91.298642 
L 110.575725 86.859743 
L 111.124128 53.568 
L 111.672531 153.443229 
L 112.220934 155.662679 
L 112.769337 77.981945 
L 113.31774 153.443229 
L 113.866143 151.22378 
L 114.414545 157.882128 
L 114.962948 155.662679 
L 115.511351 151.22378 
L 116.059754 162.321028 
L 116.608157 104.615339 
L 117.15656 109.054239 
L 117.704963 129.029284 
L 118.253366 117.932037 
L 118.801769 124.590385 
L 119.350172 115.712587 
L 119.898575 62.445798 
L 120.446978 60.226349 
L 120.995381 66.884697 
L 121.543784 77.981945 
L 122.092187 84.640294 
L 122.64059 80.201394 
L 123.188993 80.201394 
L 123.737396 69.104147 
L 124.285799 142.345982 
L 125.382604 155.662679 
L 125.931007 168.979376 
L 126.47941 162.321028 
L 127.027813 153.443229 
L 127.576216 149.00433 
L 128.124619 157.882128 
L 128.673022 153.443229 
L 129.221425 155.662679 
L 129.769828 153.443229 
L 130.318231 162.321028 
L 130.866634 180.076624 
L 131.415037 173.418275 
L 131.96344 164.540477 
L 132.511843 171.198826 
L 133.060246 171.198826 
L 133.608649 168.979376 
L 134.157052 171.198826 
L 135.253857 146.784881 
L 136.350663 175.637725 
L 137.447469 195.612771 
L 137.995872 204.490569 
L 138.544275 208.929468 
L 139.092678 202.271119 
L 139.641081 208.929468 
L 140.189484 197.83222 
L 140.737887 193.393321 
L 141.28629 202.271119 
L 141.834693 197.83222 
L 142.383096 195.612771 
L 142.931499 217.807266 
L 143.479902 226.685064 
L 144.028305 246.66011 
L 144.576708 288.829651 
L 145.125111 275.512954 
L 145.673514 279.951853 
L 146.221916 275.512954 
L 146.770319 275.512954 
L 147.318722 231.123963 
L 148.415528 244.440661 
L 148.963931 237.782312 
L 149.512334 242.221211 
L 150.060737 248.87956 
L 150.60914 231.123963 
L 151.157543 231.123963 
L 151.705946 235.562862 
L 152.254349 224.465615 
L 152.802752 231.123963 
L 153.351155 228.904514 
L 153.899558 235.562862 
L 154.447961 246.66011 
L 154.996364 240.001761 
L 155.544767 242.221211 
L 156.09317 215.587817 
L 156.641572 217.807266 
L 157.189975 206.710018 
L 157.738378 164.540477 
L 158.286781 151.22378 
L 158.835184 89.079193 
L 159.383587 91.298642 
L 160.480393 122.370936 
L 161.028796 109.054239 
L 161.577199 111.273688 
L 162.125602 120.151486 
L 163.222408 206.710018 
L 164.319214 197.83222 
L 164.867617 202.271119 
L 165.964423 202.271119 
L 166.512826 224.465615 
L 167.061229 213.368367 
L 167.609631 120.151486 
L 168.158034 106.834789 
L 168.706437 100.17644 
L 169.25484 102.39589 
L 169.803243 109.054239 
L 170.351646 122.370936 
L 170.900049 126.809835 
L 171.448452 122.370936 
L 171.996855 129.029284 
L 172.545258 222.246165 
L 173.093661 220.026716 
L 173.642064 211.148917 
L 174.190467 206.710018 
L 174.73887 211.148917 
L 175.287273 226.685064 
L 175.835676 226.685064 
L 176.384079 231.123963 
L 176.932482 226.685064 
L 178.029287 253.318459 
L 178.57769 244.440661 
L 179.126093 246.66011 
L 179.674496 251.099009 
L 180.222899 253.318459 
L 180.771302 226.685064 
L 181.868108 235.562862 
L 182.416511 228.904514 
L 182.964914 215.587817 
L 183.513317 186.734972 
L 184.06172 188.954422 
L 184.610123 175.637725 
L 185.158526 182.296073 
L 185.706929 142.345982 
L 186.255332 142.345982 
L 186.803735 153.443229 
L 187.352138 146.784881 
L 187.900541 153.443229 
L 188.448943 155.662679 
L 188.997346 146.784881 
L 190.642555 140.126532 
L 191.190958 149.00433 
L 191.739361 137.907083 
L 192.287764 151.22378 
L 192.836167 146.784881 
L 193.38457 146.784881 
L 193.932973 151.22378 
L 194.481376 151.22378 
L 195.029779 144.565431 
L 195.578182 146.784881 
L 196.126585 144.565431 
L 196.674988 173.418275 
L 197.223391 173.418275 
L 197.771794 226.685064 
L 198.320197 220.026716 
L 199.417002 246.66011 
L 199.965405 246.66011 
L 200.513808 240.001761 
L 201.062211 226.685064 
L 201.610614 226.685064 
L 202.159017 255.537908 
L 202.70742 253.318459 
L 203.255823 255.537908 
L 203.804226 237.782312 
L 204.352629 160.101578 
L 204.901032 166.759927 
L 205.449435 193.393321 
L 205.997838 173.418275 
L 206.546241 182.296073 
L 207.094644 186.734972 
L 207.643047 184.515523 
L 208.19145 184.515523 
L 208.739853 195.612771 
L 209.288256 188.954422 
L 209.836658 195.612771 
L 210.385061 153.443229 
L 210.933464 151.22378 
L 211.481867 133.468183 
L 212.03027 146.784881 
L 212.578673 135.687633 
L 213.127076 140.126532 
L 213.675479 140.126532 
L 214.772285 122.370936 
L 215.320688 140.126532 
L 215.869091 144.565431 
L 216.417494 126.809835 
L 216.965897 124.590385 
L 217.5143 126.809835 
L 218.062703 135.687633 
L 218.611106 140.126532 
L 219.159509 153.443229 
L 220.256314 149.00433 
L 220.804717 142.345982 
L 221.35312 149.00433 
L 221.901523 140.126532 
L 222.449926 135.687633 
L 222.998329 97.956991 
L 223.546732 95.737541 
L 224.095135 111.273688 
L 224.643538 113.493138 
L 225.191941 126.809835 
L 225.740344 133.468183 
L 226.288747 133.468183 
L 226.83715 244.440661 
L 227.385553 233.343413 
L 227.933956 231.123963 
L 228.482359 162.321028 
L 229.030762 157.882128 
L 229.579165 140.126532 
L 230.127568 133.468183 
L 230.675971 129.029284 
L 231.224373 137.907083 
L 231.772776 140.126532 
L 232.869582 120.151486 
L 233.417985 117.932037 
L 233.966388 122.370936 
L 234.514791 133.468183 
L 235.063194 140.126532 
L 235.611597 137.907083 
L 236.16 117.932037 
L 236.708403 122.370936 
L 237.256806 133.468183 
L 238.353612 115.712587 
L 238.902015 115.712587 
L 239.998821 111.273688 
L 240.547224 113.493138 
L 241.095627 113.493138 
L 241.644029 193.393321 
L 242.192432 226.685064 
L 242.740835 235.562862 
L 243.289238 211.148917 
L 243.837641 226.685064 
L 244.386044 233.343413 
L 244.934447 233.343413 
L 245.48285 215.587817 
L 246.031253 224.465615 
L 246.579656 231.123963 
L 247.128059 240.001761 
L 248.224865 244.440661 
L 248.773268 235.562862 
L 249.321671 259.976807 
L 249.870074 259.976807 
L 250.418477 233.343413 
L 250.96688 226.685064 
L 251.515283 228.904514 
L 252.063686 244.440661 
L 252.612088 231.123963 
L 253.160491 242.221211 
L 253.708894 242.221211 
L 254.257297 224.465615 
L 254.8057 220.026716 
L 255.354103 231.123963 
L 255.902506 206.710018 
L 256.450909 211.148917 
L 256.999312 231.123963 
L 258.096118 240.001761 
L 258.644521 228.904514 
L 259.192924 224.465615 
L 259.741327 257.757358 
L 260.28973 240.001761 
L 260.838133 251.099009 
L 261.386536 242.221211 
L 261.934939 244.440661 
L 262.483342 202.271119 
L 263.031744 208.929468 
L 264.12855 213.368367 
L 264.676953 231.123963 
L 265.225356 231.123963 
L 265.773759 237.782312 
L 266.322162 233.343413 
L 266.870565 211.148917 
L 267.418968 200.05167 
L 267.967371 237.782312 
L 268.515774 244.440661 
L 269.064177 244.440661 
L 269.61258 233.343413 
L 270.160983 233.343413 
L 270.709386 217.807266 
L 271.257789 217.807266 
L 271.806192 213.368367 
L 272.354595 202.271119 
L 272.902998 208.929468 
L 273.999803 235.562862 
L 274.548206 242.221211 
L 275.096609 259.976807 
L 276.193415 259.976807 
L 276.741818 255.537908 
L 277.290221 268.854606 
L 277.838624 266.635156 
L 278.387027 266.635156 
L 278.93543 262.196257 
L 279.483833 271.074055 
L 280.032236 264.415706 
L 280.580639 262.196257 
L 281.129042 253.318459 
L 282.225848 253.318459 
L 282.774251 264.415706 
L 283.322654 202.271119 
L 283.871057 202.271119 
L 284.419459 184.515523 
L 284.967862 186.734972 
L 285.516265 251.099009 
L 286.613071 217.807266 
L 287.161474 215.587817 
L 287.709877 228.904514 
L 288.25828 226.685064 
L 288.806683 211.148917 
L 289.355086 226.685064 
L 289.903489 202.271119 
L 291.000295 248.87956 
L 291.548698 237.782312 
L 292.097101 233.343413 
L 292.645504 226.685064 
L 293.193907 233.343413 
L 293.74231 228.904514 
L 294.290713 255.537908 
L 294.839115 253.318459 
L 295.387518 244.440661 
L 295.935921 246.66011 
L 296.484324 253.318459 
L 297.032727 246.66011 
L 297.58113 208.929468 
L 298.129533 211.148917 
L 298.677936 215.587817 
L 299.226339 215.587817 
L 299.774742 220.026716 
L 300.323145 202.271119 
L 300.871548 191.173872 
L 301.419951 186.734972 
L 301.968354 168.979376 
L 302.516757 217.807266 
L 303.06516 204.490569 
L 303.613563 206.710018 
L 304.710369 206.710018 
L 305.258771 208.929468 
L 305.807174 222.246165 
L 306.355577 222.246165 
L 306.90398 186.734972 
L 307.452383 188.954422 
L 308.000786 188.954422 
L 309.097592 184.515523 
L 309.645995 191.173872 
L 310.194398 195.612771 
L 310.742801 193.393321 
L 311.291204 173.418275 
L 311.839607 186.734972 
L 312.38801 180.076624 
L 312.936413 180.076624 
L 313.484816 191.173872 
L 314.033219 188.954422 
L 314.581622 175.637725 
L 315.130025 175.637725 
L 315.678428 182.296073 
L 316.775233 186.734972 
L 317.323636 182.296073 
L 317.872039 182.296073 
L 318.420442 177.857174 
L 318.968845 58.006899 
L 319.517248 75.762495 
L 320.065651 220.026716 
L 320.614054 204.490569 
L 321.162457 202.271119 
L 321.71086 197.83222 
L 322.259263 195.612771 
L 322.807666 184.515523 
L 323.356069 197.83222 
L 323.904472 195.612771 
L 324.452875 208.929468 
L 325.001278 182.296073 
L 325.549681 180.076624 
L 326.098084 173.418275 
L 326.646486 182.296073 
L 327.194889 168.979376 
L 327.743292 180.076624 
L 328.291695 186.734972 
L 328.840098 180.076624 
L 329.388501 184.515523 
L 329.936904 173.418275 
L 330.485307 144.565431 
L 331.582113 197.83222 
L 332.130516 197.83222 
L 332.678919 204.490569 
L 333.227322 200.05167 
L 333.775725 200.05167 
L 334.324128 237.782312 
L 334.872531 222.246165 
L 335.420934 220.026716 
L 335.969337 231.123963 
L 336.51774 237.782312 
L 337.066143 231.123963 
L 337.614545 228.904514 
L 338.162948 217.807266 
L 338.711351 222.246165 
L 339.259754 233.343413 
L 339.808157 171.198826 
L 340.35656 166.759927 
L 340.904963 166.759927 
L 341.453366 146.784881 
L 342.001769 151.22378 
L 342.550172 157.882128 
L 343.098575 162.321028 
L 343.646978 173.418275 
L 344.195381 173.418275 
L 344.743784 166.759927 
L 346.388993 166.759927 
L 346.937396 175.637725 
L 347.485799 168.979376 
L 348.034201 160.101578 
L 348.582604 213.368367 
L 349.131007 211.148917 
L 349.67941 253.318459 
L 350.227813 242.221211 
L 350.776216 248.87956 
L 351.324619 275.512954 
L 351.873022 275.512954 
L 352.421425 264.415706 
L 352.969828 273.293505 
L 354.066634 259.976807 
L 354.615037 262.196257 
L 355.16344 262.196257 
L 355.711843 264.415706 
L 356.260246 268.854606 
L 356.808649 262.196257 
L 357.357052 264.415706 
L 357.905455 271.074055 
L 358.453857 248.87956 
L 359.00226 244.440661 
L 359.550663 253.318459 
L 360.099066 248.87956 
L 360.647469 246.66011 
L 361.195872 228.904514 
L 362.292678 220.026716 
L 362.841081 206.710018 
L 363.389484 211.148917 
L 363.937887 217.807266 
L 364.48629 211.148917 
L 365.034693 191.173872 
L 365.583096 182.296073 
L 366.131499 188.954422 
L 366.679902 186.734972 
L 367.228305 182.296073 
L 367.776708 180.076624 
L 368.325111 166.759927 
L 368.873514 193.393321 
L 369.421916 188.954422 
L 369.970319 188.954422 
L 370.518722 182.296073 
L 371.615528 200.05167 
L 372.163931 202.271119 
L 372.712334 220.026716 
L 373.260737 206.710018 
L 373.80914 206.710018 
L 374.357543 204.490569 
L 374.905946 195.612771 
L 375.454349 204.490569 
L 376.551155 213.368367 
L 377.099558 215.587817 
L 377.647961 215.587817 
L 378.196364 204.490569 
L 378.744767 206.710018 
L 379.29317 211.148917 
L 379.841572 224.465615 
L 380.389975 228.904514 
L 381.486781 204.490569 
L 382.035184 206.710018 
L 382.583587 213.368367 
L 383.13199 222.246165 
L 383.680393 237.782312 
L 384.228796 240.001761 
L 384.777199 237.782312 
L 385.325602 226.685064 
L 386.422408 235.562862 
L 387.519214 231.123963 
L 388.067617 220.026716 
L 388.61602 215.587817 
L 389.164423 235.562862 
L 389.712826 246.66011 
L 390.261229 226.685064 
L 390.809631 217.807266 
L 391.358034 226.685064 
L 391.906437 231.123963 
L 392.45484 233.343413 
L 393.003243 226.685064 
L 393.551646 235.562862 
L 394.100049 240.001761 
L 394.648452 242.221211 
L 395.196855 220.026716 
L 395.745258 211.148917 
L 396.293661 215.587817 
L 396.842064 211.148917 
L 397.93887 224.465615 
L 398.487273 204.490569 
L 398.487273 204.490569 
" clip-path="url(#p469c75e68c)" style="fill: none; stroke: #1f77b4; stroke-width: 1.5; stroke-linecap: square"/>
   </g>
   <g id="patch_3">
    <path d="M 57.6 307.584 
L 57.6 41.472 
" style="fill: none; stroke: #000000; stroke-width: 0.8; stroke-linejoin: miter; stroke-linecap: square"/>
   </g>
   <g id="patch_4">
    <path d="M 414.72 307.584 
L 414.72 41.472 
" style="fill: none; stroke: #000000; stroke-width: 0.8; stroke-linejoin: miter; stroke-linecap: square"/>
   </g>
   <g id="patch_5">
    <path d="M 57.6 307.584 
L 414.72 307.584 
" style="fill: none; stroke: #000000; stroke-width: 0.8; stroke-linejoin: miter; stroke-linecap: square"/>
   </g>
   <g id="patch_6">
    <path d="M 57.6 41.472 
L 414.72 41.472 
" style="fill: none; stroke: #000000; stroke-width: 0.8; stroke-linejoin: miter; stroke-linecap: square"/>
   </g>
   <g id="text_16">
    <!-- Simulated Anealling Cost -->
    <g transform="translate(160.8 35.472)scale(0.12 -0.12)">
     <defs>
      <path id="DejaVuSans-53" d="M 3425 4513 
L 3425 3897 
Q 3066 4069 2747 4153 
Q 2428 4238 2131 4238 
Q 1616 4238 1336 4038 
Q 1056 3838 1056 3469 
Q 1056 3159 1242 3001 
Q 1428 2844 1947 2747 
L 2328 2669 
Q 3034 2534 3370 2195 
Q 3706 1856 3706 1288 
Q 3706 609 3251 259 
Q 2797 -91 1919 -91 
Q 1588 -91 1214 -16 
Q 841 59 441 206 
L 441 856 
Q 825 641 1194 531 
Q 1563 422 1919 422 
Q 2459 422 2753 634 
Q 3047 847 3047 1241 
Q 3047 1584 2836 1778 
Q 2625 1972 2144 2069 
L 1759 2144 
Q 1053 2284 737 2584 
Q 422 2884 422 3419 
Q 422 4038 858 4394 
Q 1294 4750 2059 4750 
Q 2388 4750 2728 4690 
Q 3069 4631 3425 4513 
z
" transform="scale(0.015625)"/>
      <path id="DejaVuSans-69" d="M 603 3500 
L 1178 3500 
L 1178 0 
L 603 0 
L 603 3500 
z
M 603 4863 
L 1178 4863 
L 1178 4134 
L 603 4134 
L 603 4863 
z
" transform="scale(0.015625)"/>
      <path id="DejaVuSans-65" d="M 3597 1894 
L 3597 1613 
L 953 1613 
Q 991 1019 1311 708 
Q 1631 397 2203 397 
Q 2534 397 2845 478 
Q 3156 559 3463 722 
L 3463 178 
Q 3153 47 2828 -22 
Q 2503 -91 2169 -91 
Q 1331 -91 842 396 
Q 353 884 353 1716 
Q 353 2575 817 3079 
Q 1281 3584 2069 3584 
Q 2775 3584 3186 3129 
Q 3597 2675 3597 1894 
z
M 3022 2063 
Q 3016 2534 2758 2815 
Q 2500 3097 2075 3097 
Q 1594 3097 1305 2825 
Q 1016 2553 972 2059 
L 3022 2063 
z
" transform="scale(0.015625)"/>
      <path id="DejaVuSans-64" d="M 2906 2969 
L 2906 4863 
L 3481 4863 
L 3481 0 
L 2906 0 
L 2906 525 
Q 2725 213 2448 61 
Q 2172 -91 1784 -91 
Q 1150 -91 751 415 
Q 353 922 353 1747 
Q 353 2572 751 3078 
Q 1150 3584 1784 3584 
Q 2172 3584 2448 3432 
Q 2725 3281 2906 2969 
z
M 947 1747 
Q 947 1113 1208 752 
Q 1469 391 1925 391 
Q 2381 391 2643 752 
Q 2906 1113 2906 1747 
Q 2906 2381 2643 2742 
Q 2381 3103 1925 3103 
Q 1469 3103 1208 2742 
Q 947 2381 947 1747 
z
" transform="scale(0.015625)"/>
      <path id="DejaVuSans-41" d="M 2188 4044 
L 1331 1722 
L 3047 1722 
L 2188 4044 
z
M 1831 4666 
L 2547 4666 
L 4325 0 
L 3669 0 
L 3244 1197 
L 1141 1197 
L 716 0 
L 50 0 
L 1831 4666 
z
" transform="scale(0.015625)"/>
      <path id="DejaVuSans-67" d="M 2906 1791 
Q 2906 2416 2648 2759 
Q 2391 3103 1925 3103 
Q 1463 3103 1205 2759 
Q 947 2416 947 1791 
Q 947 1169 1205 825 
Q 1463 481 1925 481 
Q 2391 481 2648 825 
Q 2906 1169 2906 1791 
z
M 3481 434 
Q 3481 -459 3084 -895 
Q 2688 -1331 1869 -1331 
Q 1566 -1331 1297 -1286 
Q 1028 -1241 775 -1147 
L 775 -588 
Q 1028 -725 1275 -790 
Q 1522 -856 1778 -856 
Q 2344 -856 2625 -561 
Q 2906 -266 2906 331 
L 2906 616 
Q 2728 306 2450 153 
Q 2172 0 1784 0 
Q 1141 0 747 490 
Q 353 981 353 1791 
Q 353 2603 747 3093 
Q 1141 3584 1784 3584 
Q 2172 3584 2450 3431 
Q 2728 3278 2906 2969 
L 2906 3500 
L 3481 3500 
L 3481 434 
z
" transform="scale(0.015625)"/>
      <path id="DejaVuSans-43" d="M 4122 4306 
L 4122 3641 
Q 3803 3938 3442 4084 
Q 3081 4231 2675 4231 
Q 1875 4231 1450 3742 
Q 1025 3253 1025 2328 
Q 1025 1406 1450 917 
Q 1875 428 2675 428 
Q 3081 428 3442 575 
Q 3803 722 4122 1019 
L 4122 359 
Q 3791 134 3420 21 
Q 3050 -91 2638 -91 
Q 1578 -91 968 557 
Q 359 1206 359 2328 
Q 359 3453 968 4101 
Q 1578 4750 2638 4750 
Q 3056 4750 3426 4639 
Q 3797 4528 4122 4306 
z
" transform="scale(0.015625)"/>
     </defs>
     <use xlink:href="#DejaVuSans-53"/>
     <use xlink:href="#DejaVuSans-69" x="63.476562"/>
     <use xlink:href="#DejaVuSans-6d" x="91.259766"/>
     <use xlink:href="#DejaVuSans-75" x="188.671875"/>
     <use xlink:href="#DejaVuSans-6c" x="252.050781"/>
     <use xlink:href="#DejaVuSans-61" x="279.833984"/>
     <use xlink:href="#DejaVuSans-74" x="341.113281"/>
     <use xlink:href="#DejaVuSans-65" x="380.322266"/>
     <use xlink:href="#DejaVuSans-64" x="441.845703"/>
     <use xlink:href="#DejaVuSans-20" x="505.322266"/>
     <use xlink:href="#DejaVuSans-41" x="537.109375"/>
     <use xlink:href="#DejaVuSans-6e" x="605.517578"/>
     <use xlink:href="#DejaVuSans-65" x="668.896484"/>
     <use xlink:href="#DejaVuSans-61" x="730.419922"/>
     <use xlink:href="#DejaVuSans-6c" x="791.699219"/>
     <use xlink:href="#DejaVuSans-6c" x="819.482422"/>
     <use xlink:href="#DejaVuSans-69" x="847.265625"/>
     <use xlink:href="#DejaVuSans-6e" x="875.048828"/>
     <use xlink:href="#DejaVuSans-67" x="938.427734"/>
     <use xlink:href="#DejaVuSans-20" x="1001.904297"/>
     <use xlink:href="#DejaVuSans-43" x="1033.691406"/>
     <use xlink:href="#DejaVuSans-6f" x="1103.515625"/>
     <use xlink:href="#DejaVuSans-73" x="1164.697266"/>
     <use xlink:href="#DejaVuSans-74" x="1216.796875"/>
    </g>
   </g>
  </g>
 </g>
 <defs>
  <clipPath id="p469c75e68c">
   <rect x="57.6" y="41.472" width="357.12" height="266.112"/>
  </clipPath>
 </defs>
</svg>
