<?xml version="1.0" encoding="utf-8" standalone="no"?>
<!DOCTYPE svg PUBLIC "-//W3C//DTD SVG 1.1//EN"
  "http://www.w3.org/Graphics/SVG/1.1/DTD/svg11.dtd">
<svg xmlns:xlink="http://www.w3.org/1999/xlink" width="460.8pt" height="345.6pt" viewBox="0 0 460.8 345.6" xmlns="http://www.w3.org/2000/svg" version="1.1">
 <metadata>
  <rdf:RDF xmlns:dc="http://purl.org/dc/elements/1.1/" xmlns:cc="http://creativecommons.org/ns#" xmlns:rdf="http://www.w3.org/1999/02/22-rdf-syntax-ns#">
   <cc:Work>
    <dc:type rdf:resource="http://purl.org/dc/dcmitype/StillImage"/>
    <dc:date>2022-06-01T08:07:28.875892</dc:date>
    <dc:format>image/svg+xml</dc:format>
    <dc:creator>
     <cc:Agent>
      <dc:title>Matplotlib v3.5.1, https://matplotlib.org/</dc:title>
     </cc:Agent>
    </dc:creator>
   </cc:Work>
  </rdf:RDF>
 </metadata>
 <defs>
  <style type="text/css">*{stroke-linejoin: round; stroke-linecap: butt}</style>
 </defs>
 <g id="figure_1">
  <g id="patch_1">
   <path d="M 0 345.6 
L 460.8 345.6 
L 460.8 0 
L 0 0 
z
" style="fill: #ffffff"/>
  </g>
  <g id="axes_1">
   <g id="patch_2">
    <path d="M 57.6 307.584 
L 414.72 307.584 
L 414.72 41.472 
L 57.6 41.472 
z
" style="fill: #ffffff"/>
   </g>
   <g id="matplotlib.axis_1">
    <g id="xtick_1">
     <g id="line2d_1">
      <defs>
       <path id="m01d1b4fe47" d="M 0 0 
L 0 3.5 
" style="stroke: #000000; stroke-width: 0.8"/>
      </defs>
      <g>
       <use xlink:href="#m01d1b4fe47" x="73.832727" y="307.584" style="stroke: #000000; stroke-width: 0.8"/>
      </g>
     </g>
     <g id="text_1">
      <!-- 0 -->
      <g transform="translate(70.651477 322.182437)scale(0.1 -0.1)">
       <defs>
        <path id="DejaVuSans-30" d="M 2034 4250 
Q 1547 4250 1301 3770 
Q 1056 3291 1056 2328 
Q 1056 1369 1301 889 
Q 1547 409 2034 409 
Q 2525 409 2770 889 
Q 3016 1369 3016 2328 
Q 3016 3291 2770 3770 
Q 2525 4250 2034 4250 
z
M 2034 4750 
Q 2819 4750 3233 4129 
Q 3647 3509 3647 2328 
Q 3647 1150 3233 529 
Q 2819 -91 2034 -91 
Q 1250 -91 836 529 
Q 422 1150 422 2328 
Q 422 3509 836 4129 
Q 1250 4750 2034 4750 
z
" transform="scale(0.015625)"/>
       </defs>
       <use xlink:href="#DejaVuSans-30"/>
      </g>
     </g>
    </g>
    <g id="xtick_2">
     <g id="line2d_2">
      <g>
       <use xlink:href="#m01d1b4fe47" x="132.646957" y="307.584" style="stroke: #000000; stroke-width: 0.8"/>
      </g>
     </g>
     <g id="text_2">
      <!-- 200 -->
      <g transform="translate(123.103207 322.182437)scale(0.1 -0.1)">
       <defs>
        <path id="DejaVuSans-32" d="M 1228 531 
L 3431 531 
L 3431 0 
L 469 0 
L 469 531 
Q 828 903 1448 1529 
Q 2069 2156 2228 2338 
Q 2531 2678 2651 2914 
Q 2772 3150 2772 3378 
Q 2772 3750 2511 3984 
Q 2250 4219 1831 4219 
Q 1534 4219 1204 4116 
Q 875 4013 500 3803 
L 500 4441 
Q 881 4594 1212 4672 
Q 1544 4750 1819 4750 
Q 2544 4750 2975 4387 
Q 3406 4025 3406 3419 
Q 3406 3131 3298 2873 
Q 3191 2616 2906 2266 
Q 2828 2175 2409 1742 
Q 1991 1309 1228 531 
z
" transform="scale(0.015625)"/>
       </defs>
       <use xlink:href="#DejaVuSans-32"/>
       <use xlink:href="#DejaVuSans-30" x="63.623047"/>
       <use xlink:href="#DejaVuSans-30" x="127.246094"/>
      </g>
     </g>
    </g>
    <g id="xtick_3">
     <g id="line2d_3">
      <g>
       <use xlink:href="#m01d1b4fe47" x="191.461186" y="307.584" style="stroke: #000000; stroke-width: 0.8"/>
      </g>
     </g>
     <g id="text_3">
      <!-- 400 -->
      <g transform="translate(181.917436 322.182437)scale(0.1 -0.1)">
       <defs>
        <path id="DejaVuSans-34" d="M 2419 4116 
L 825 1625 
L 2419 1625 
L 2419 4116 
z
M 2253 4666 
L 3047 4666 
L 3047 1625 
L 3713 1625 
L 3713 1100 
L 3047 1100 
L 3047 0 
L 2419 0 
L 2419 1100 
L 313 1100 
L 313 1709 
L 2253 4666 
z
" transform="scale(0.015625)"/>
       </defs>
       <use xlink:href="#DejaVuSans-34"/>
       <use xlink:href="#DejaVuSans-30" x="63.623047"/>
       <use xlink:href="#DejaVuSans-30" x="127.246094"/>
      </g>
     </g>
    </g>
    <g id="xtick_4">
     <g id="line2d_4">
      <g>
       <use xlink:href="#m01d1b4fe47" x="250.275415" y="307.584" style="stroke: #000000; stroke-width: 0.8"/>
      </g>
     </g>
     <g id="text_4">
      <!-- 600 -->
      <g transform="translate(240.731665 322.182437)scale(0.1 -0.1)">
       <defs>
        <path id="DejaVuSans-36" d="M 2113 2584 
Q 1688 2584 1439 2293 
Q 1191 2003 1191 1497 
Q 1191 994 1439 701 
Q 1688 409 2113 409 
Q 2538 409 2786 701 
Q 3034 994 3034 1497 
Q 3034 2003 2786 2293 
Q 2538 2584 2113 2584 
z
M 3366 4563 
L 3366 3988 
Q 3128 4100 2886 4159 
Q 2644 4219 2406 4219 
Q 1781 4219 1451 3797 
Q 1122 3375 1075 2522 
Q 1259 2794 1537 2939 
Q 1816 3084 2150 3084 
Q 2853 3084 3261 2657 
Q 3669 2231 3669 1497 
Q 3669 778 3244 343 
Q 2819 -91 2113 -91 
Q 1303 -91 875 529 
Q 447 1150 447 2328 
Q 447 3434 972 4092 
Q 1497 4750 2381 4750 
Q 2619 4750 2861 4703 
Q 3103 4656 3366 4563 
z
" transform="scale(0.015625)"/>
       </defs>
       <use xlink:href="#DejaVuSans-36"/>
       <use xlink:href="#DejaVuSans-30" x="63.623047"/>
       <use xlink:href="#DejaVuSans-30" x="127.246094"/>
      </g>
     </g>
    </g>
    <g id="xtick_5">
     <g id="line2d_5">
      <g>
       <use xlink:href="#m01d1b4fe47" x="309.089644" y="307.584" style="stroke: #000000; stroke-width: 0.8"/>
      </g>
     </g>
     <g id="text_5">
      <!-- 800 -->
      <g transform="translate(299.545894 322.182437)scale(0.1 -0.1)">
       <defs>
        <path id="DejaVuSans-38" d="M 2034 2216 
Q 1584 2216 1326 1975 
Q 1069 1734 1069 1313 
Q 1069 891 1326 650 
Q 1584 409 2034 409 
Q 2484 409 2743 651 
Q 3003 894 3003 1313 
Q 3003 1734 2745 1975 
Q 2488 2216 2034 2216 
z
M 1403 2484 
Q 997 2584 770 2862 
Q 544 3141 544 3541 
Q 544 4100 942 4425 
Q 1341 4750 2034 4750 
Q 2731 4750 3128 4425 
Q 3525 4100 3525 3541 
Q 3525 3141 3298 2862 
Q 3072 2584 2669 2484 
Q 3125 2378 3379 2068 
Q 3634 1759 3634 1313 
Q 3634 634 3220 271 
Q 2806 -91 2034 -91 
Q 1263 -91 848 271 
Q 434 634 434 1313 
Q 434 1759 690 2068 
Q 947 2378 1403 2484 
z
M 1172 3481 
Q 1172 3119 1398 2916 
Q 1625 2713 2034 2713 
Q 2441 2713 2670 2916 
Q 2900 3119 2900 3481 
Q 2900 3844 2670 4047 
Q 2441 4250 2034 4250 
Q 1625 4250 1398 4047 
Q 1172 3844 1172 3481 
z
" transform="scale(0.015625)"/>
       </defs>
       <use xlink:href="#DejaVuSans-38"/>
       <use xlink:href="#DejaVuSans-30" x="63.623047"/>
       <use xlink:href="#DejaVuSans-30" x="127.246094"/>
      </g>
     </g>
    </g>
    <g id="xtick_6">
     <g id="line2d_6">
      <g>
       <use xlink:href="#m01d1b4fe47" x="367.903874" y="307.584" style="stroke: #000000; stroke-width: 0.8"/>
      </g>
     </g>
     <g id="text_6">
      <!-- 1000 -->
      <g transform="translate(355.178874 322.182437)scale(0.1 -0.1)">
       <defs>
        <path id="DejaVuSans-31" d="M 794 531 
L 1825 531 
L 1825 4091 
L 703 3866 
L 703 4441 
L 1819 4666 
L 2450 4666 
L 2450 531 
L 3481 531 
L 3481 0 
L 794 0 
L 794 531 
z
" transform="scale(0.015625)"/>
       </defs>
       <use xlink:href="#DejaVuSans-31"/>
       <use xlink:href="#DejaVuSans-30" x="63.623047"/>
       <use xlink:href="#DejaVuSans-30" x="127.246094"/>
       <use xlink:href="#DejaVuSans-30" x="190.869141"/>
      </g>
     </g>
    </g>
    <g id="text_7">
     <!-- num swaps -->
     <g transform="translate(207.826406 335.860562)scale(0.1 -0.1)">
      <defs>
       <path id="DejaVuSans-6e" d="M 3513 2113 
L 3513 0 
L 2938 0 
L 2938 2094 
Q 2938 2591 2744 2837 
Q 2550 3084 2163 3084 
Q 1697 3084 1428 2787 
Q 1159 2491 1159 1978 
L 1159 0 
L 581 0 
L 581 3500 
L 1159 3500 
L 1159 2956 
Q 1366 3272 1645 3428 
Q 1925 3584 2291 3584 
Q 2894 3584 3203 3211 
Q 3513 2838 3513 2113 
z
" transform="scale(0.015625)"/>
       <path id="DejaVuSans-75" d="M 544 1381 
L 544 3500 
L 1119 3500 
L 1119 1403 
Q 1119 906 1312 657 
Q 1506 409 1894 409 
Q 2359 409 2629 706 
Q 2900 1003 2900 1516 
L 2900 3500 
L 3475 3500 
L 3475 0 
L 2900 0 
L 2900 538 
Q 2691 219 2414 64 
Q 2138 -91 1772 -91 
Q 1169 -91 856 284 
Q 544 659 544 1381 
z
M 1991 3584 
L 1991 3584 
z
" transform="scale(0.015625)"/>
       <path id="DejaVuSans-6d" d="M 3328 2828 
Q 3544 3216 3844 3400 
Q 4144 3584 4550 3584 
Q 5097 3584 5394 3201 
Q 5691 2819 5691 2113 
L 5691 0 
L 5113 0 
L 5113 2094 
Q 5113 2597 4934 2840 
Q 4756 3084 4391 3084 
Q 3944 3084 3684 2787 
Q 3425 2491 3425 1978 
L 3425 0 
L 2847 0 
L 2847 2094 
Q 2847 2600 2669 2842 
Q 2491 3084 2119 3084 
Q 1678 3084 1418 2786 
Q 1159 2488 1159 1978 
L 1159 0 
L 581 0 
L 581 3500 
L 1159 3500 
L 1159 2956 
Q 1356 3278 1631 3431 
Q 1906 3584 2284 3584 
Q 2666 3584 2933 3390 
Q 3200 3197 3328 2828 
z
" transform="scale(0.015625)"/>
       <path id="DejaVuSans-20" transform="scale(0.015625)"/>
       <path id="DejaVuSans-73" d="M 2834 3397 
L 2834 2853 
Q 2591 2978 2328 3040 
Q 2066 3103 1784 3103 
Q 1356 3103 1142 2972 
Q 928 2841 928 2578 
Q 928 2378 1081 2264 
Q 1234 2150 1697 2047 
L 1894 2003 
Q 2506 1872 2764 1633 
Q 3022 1394 3022 966 
Q 3022 478 2636 193 
Q 2250 -91 1575 -91 
Q 1294 -91 989 -36 
Q 684 19 347 128 
L 347 722 
Q 666 556 975 473 
Q 1284 391 1588 391 
Q 1994 391 2212 530 
Q 2431 669 2431 922 
Q 2431 1156 2273 1281 
Q 2116 1406 1581 1522 
L 1381 1569 
Q 847 1681 609 1914 
Q 372 2147 372 2553 
Q 372 3047 722 3315 
Q 1072 3584 1716 3584 
Q 2034 3584 2315 3537 
Q 2597 3491 2834 3397 
z
" transform="scale(0.015625)"/>
       <path id="DejaVuSans-77" d="M 269 3500 
L 844 3500 
L 1563 769 
L 2278 3500 
L 2956 3500 
L 3675 769 
L 4391 3500 
L 4966 3500 
L 4050 0 
L 3372 0 
L 2619 2869 
L 1863 0 
L 1184 0 
L 269 3500 
z
" transform="scale(0.015625)"/>
       <path id="DejaVuSans-61" d="M 2194 1759 
Q 1497 1759 1228 1600 
Q 959 1441 959 1056 
Q 959 750 1161 570 
Q 1363 391 1709 391 
Q 2188 391 2477 730 
Q 2766 1069 2766 1631 
L 2766 1759 
L 2194 1759 
z
M 3341 1997 
L 3341 0 
L 2766 0 
L 2766 531 
Q 2569 213 2275 61 
Q 1981 -91 1556 -91 
Q 1019 -91 701 211 
Q 384 513 384 1019 
Q 384 1609 779 1909 
Q 1175 2209 1959 2209 
L 2766 2209 
L 2766 2266 
Q 2766 2663 2505 2880 
Q 2244 3097 1772 3097 
Q 1472 3097 1187 3025 
Q 903 2953 641 2809 
L 641 3341 
Q 956 3463 1253 3523 
Q 1550 3584 1831 3584 
Q 2591 3584 2966 3190 
Q 3341 2797 3341 1997 
z
" transform="scale(0.015625)"/>
       <path id="DejaVuSans-70" d="M 1159 525 
L 1159 -1331 
L 581 -1331 
L 581 3500 
L 1159 3500 
L 1159 2969 
Q 1341 3281 1617 3432 
Q 1894 3584 2278 3584 
Q 2916 3584 3314 3078 
Q 3713 2572 3713 1747 
Q 3713 922 3314 415 
Q 2916 -91 2278 -91 
Q 1894 -91 1617 61 
Q 1341 213 1159 525 
z
M 3116 1747 
Q 3116 2381 2855 2742 
Q 2594 3103 2138 3103 
Q 1681 3103 1420 2742 
Q 1159 2381 1159 1747 
Q 1159 1113 1420 752 
Q 1681 391 2138 391 
Q 2594 391 2855 752 
Q 3116 1113 3116 1747 
z
" transform="scale(0.015625)"/>
      </defs>
      <use xlink:href="#DejaVuSans-6e"/>
      <use xlink:href="#DejaVuSans-75" x="63.378906"/>
      <use xlink:href="#DejaVuSans-6d" x="126.757812"/>
      <use xlink:href="#DejaVuSans-20" x="224.169922"/>
      <use xlink:href="#DejaVuSans-73" x="255.957031"/>
      <use xlink:href="#DejaVuSans-77" x="308.056641"/>
      <use xlink:href="#DejaVuSans-61" x="389.84375"/>
      <use xlink:href="#DejaVuSans-70" x="451.123047"/>
      <use xlink:href="#DejaVuSans-73" x="514.599609"/>
     </g>
    </g>
   </g>
   <g id="matplotlib.axis_2">
    <g id="ytick_1">
     <g id="line2d_7">
      <defs>
       <path id="m764a6cb1b2" d="M 0 0 
L -3.5 0 
" style="stroke: #000000; stroke-width: 0.8"/>
      </defs>
      <g>
       <use xlink:href="#m764a6cb1b2" x="57.6" y="278.885647" style="stroke: #000000; stroke-width: 0.8"/>
      </g>
     </g>
     <g id="text_8">
      <!-- 420 -->
      <g transform="translate(31.5125 282.684866)scale(0.1 -0.1)">
       <use xlink:href="#DejaVuSans-34"/>
       <use xlink:href="#DejaVuSans-32" x="63.623047"/>
       <use xlink:href="#DejaVuSans-30" x="127.246094"/>
      </g>
     </g>
    </g>
    <g id="ytick_2">
     <g id="line2d_8">
      <g>
       <use xlink:href="#m764a6cb1b2" x="57.6" y="231.450353" style="stroke: #000000; stroke-width: 0.8"/>
      </g>
     </g>
     <g id="text_9">
      <!-- 440 -->
      <g transform="translate(31.5125 235.249572)scale(0.1 -0.1)">
       <use xlink:href="#DejaVuSans-34"/>
       <use xlink:href="#DejaVuSans-34" x="63.623047"/>
       <use xlink:href="#DejaVuSans-30" x="127.246094"/>
      </g>
     </g>
    </g>
    <g id="ytick_3">
     <g id="line2d_9">
      <g>
       <use xlink:href="#m764a6cb1b2" x="57.6" y="184.015059" style="stroke: #000000; stroke-width: 0.8"/>
      </g>
     </g>
     <g id="text_10">
      <!-- 460 -->
      <g transform="translate(31.5125 187.814278)scale(0.1 -0.1)">
       <use xlink:href="#DejaVuSans-34"/>
       <use xlink:href="#DejaVuSans-36" x="63.623047"/>
       <use xlink:href="#DejaVuSans-30" x="127.246094"/>
      </g>
     </g>
    </g>
    <g id="ytick_4">
     <g id="line2d_10">
      <g>
       <use xlink:href="#m764a6cb1b2" x="57.6" y="136.579765" style="stroke: #000000; stroke-width: 0.8"/>
      </g>
     </g>
     <g id="text_11">
      <!-- 480 -->
      <g transform="translate(31.5125 140.378983)scale(0.1 -0.1)">
       <use xlink:href="#DejaVuSans-34"/>
       <use xlink:href="#DejaVuSans-38" x="63.623047"/>
       <use xlink:href="#DejaVuSans-30" x="127.246094"/>
      </g>
     </g>
    </g>
    <g id="ytick_5">
     <g id="line2d_11">
      <g>
       <use xlink:href="#m764a6cb1b2" x="57.6" y="89.144471" style="stroke: #000000; stroke-width: 0.8"/>
      </g>
     </g>
     <g id="text_12">
      <!-- 500 -->
      <g transform="translate(31.5125 92.943689)scale(0.1 -0.1)">
       <defs>
        <path id="DejaVuSans-35" d="M 691 4666 
L 3169 4666 
L 3169 4134 
L 1269 4134 
L 1269 2991 
Q 1406 3038 1543 3061 
Q 1681 3084 1819 3084 
Q 2600 3084 3056 2656 
Q 3513 2228 3513 1497 
Q 3513 744 3044 326 
Q 2575 -91 1722 -91 
Q 1428 -91 1123 -41 
Q 819 9 494 109 
L 494 744 
Q 775 591 1075 516 
Q 1375 441 1709 441 
Q 2250 441 2565 725 
Q 2881 1009 2881 1497 
Q 2881 1984 2565 2268 
Q 2250 2553 1709 2553 
Q 1456 2553 1204 2497 
Q 953 2441 691 2322 
L 691 4666 
z
" transform="scale(0.015625)"/>
       </defs>
       <use xlink:href="#DejaVuSans-35"/>
       <use xlink:href="#DejaVuSans-30" x="63.623047"/>
       <use xlink:href="#DejaVuSans-30" x="127.246094"/>
      </g>
     </g>
    </g>
    <g id="ytick_6">
     <g id="line2d_12">
      <g>
       <use xlink:href="#m764a6cb1b2" x="57.6" y="41.709176" style="stroke: #000000; stroke-width: 0.8"/>
      </g>
     </g>
     <g id="text_13">
      <!-- 520 -->
      <g transform="translate(31.5125 45.508395)scale(0.1 -0.1)">
       <use xlink:href="#DejaVuSans-35"/>
       <use xlink:href="#DejaVuSans-32" x="63.623047"/>
       <use xlink:href="#DejaVuSans-30" x="127.246094"/>
      </g>
     </g>
    </g>
    <g id="text_14">
     <!-- total cost -->
     <g transform="translate(25.432812 197.923313)rotate(-90)scale(0.1 -0.1)">
      <defs>
       <path id="DejaVuSans-74" d="M 1172 4494 
L 1172 3500 
L 2356 3500 
L 2356 3053 
L 1172 3053 
L 1172 1153 
Q 1172 725 1289 603 
Q 1406 481 1766 481 
L 2356 481 
L 2356 0 
L 1766 0 
Q 1100 0 847 248 
Q 594 497 594 1153 
L 594 3053 
L 172 3053 
L 172 3500 
L 594 3500 
L 594 4494 
L 1172 4494 
z
" transform="scale(0.015625)"/>
       <path id="DejaVuSans-6f" d="M 1959 3097 
Q 1497 3097 1228 2736 
Q 959 2375 959 1747 
Q 959 1119 1226 758 
Q 1494 397 1959 397 
Q 2419 397 2687 759 
Q 2956 1122 2956 1747 
Q 2956 2369 2687 2733 
Q 2419 3097 1959 3097 
z
M 1959 3584 
Q 2709 3584 3137 3096 
Q 3566 2609 3566 1747 
Q 3566 888 3137 398 
Q 2709 -91 1959 -91 
Q 1206 -91 779 398 
Q 353 888 353 1747 
Q 353 2609 779 3096 
Q 1206 3584 1959 3584 
z
" transform="scale(0.015625)"/>
       <path id="DejaVuSans-6c" d="M 603 4863 
L 1178 4863 
L 1178 0 
L 603 0 
L 603 4863 
z
" transform="scale(0.015625)"/>
       <path id="DejaVuSans-63" d="M 3122 3366 
L 3122 2828 
Q 2878 2963 2633 3030 
Q 2388 3097 2138 3097 
Q 1578 3097 1268 2742 
Q 959 2388 959 1747 
Q 959 1106 1268 751 
Q 1578 397 2138 397 
Q 2388 397 2633 464 
Q 2878 531 3122 666 
L 3122 134 
Q 2881 22 2623 -34 
Q 2366 -91 2075 -91 
Q 1284 -91 818 406 
Q 353 903 353 1747 
Q 353 2603 823 3093 
Q 1294 3584 2113 3584 
Q 2378 3584 2631 3529 
Q 2884 3475 3122 3366 
z
" transform="scale(0.015625)"/>
      </defs>
      <use xlink:href="#DejaVuSans-74"/>
      <use xlink:href="#DejaVuSans-6f" x="39.208984"/>
      <use xlink:href="#DejaVuSans-74" x="100.390625"/>
      <use xlink:href="#DejaVuSans-61" x="139.599609"/>
      <use xlink:href="#DejaVuSans-6c" x="200.878906"/>
      <use xlink:href="#DejaVuSans-20" x="228.662109"/>
      <use xlink:href="#DejaVuSans-63" x="260.449219"/>
      <use xlink:href="#DejaVuSans-6f" x="315.429688"/>
      <use xlink:href="#DejaVuSans-73" x="376.611328"/>
      <use xlink:href="#DejaVuSans-74" x="428.710938"/>
     </g>
    </g>
   </g>
   <g id="line2d_13">
    <path d="M 73.832727 150.810353 
L 74.42087 174.528 
L 75.009012 150.810353 
L 75.597154 146.066824 
L 76.185296 131.836235 
L 76.773439 141.323294 
L 77.361581 167.412706 
L 77.949723 172.156235 
L 78.537866 150.810353 
L 79.126008 141.323294 
L 79.71415 146.066824 
L 80.302292 138.951529 
L 80.890435 157.925647 
L 81.478577 146.066824 
L 82.066719 155.553882 
L 82.654862 153.182118 
L 83.243004 193.502118 
L 83.831146 195.873882 
L 84.419289 186.386824 
L 85.007431 179.271529 
L 86.183715 198.245647 
L 86.771858 198.245647 
L 87.36 191.130353 
L 87.948142 179.271529 
L 88.536285 181.643294 
L 89.124427 186.386824 
L 89.712569 181.643294 
L 90.300711 186.386824 
L 90.888854 210.104471 
L 91.476996 226.706824 
L 92.065138 219.591529 
L 92.653281 214.848 
L 93.241423 217.219765 
L 93.829565 226.706824 
L 94.417708 238.565647 
L 95.00585 231.450353 
L 95.593992 231.450353 
L 96.182134 233.822118 
L 96.770277 250.424471 
L 97.358419 238.565647 
L 97.946561 221.963294 
L 98.534704 231.450353 
L 99.122846 214.848 
L 99.710988 217.219765 
L 100.29913 217.219765 
L 100.887273 207.732706 
L 101.475415 212.476235 
L 102.063557 224.335059 
L 103.239842 219.591529 
L 103.827984 219.591529 
L 104.416126 184.015059 
L 105.004269 179.271529 
L 105.592411 186.386824 
L 106.180553 184.015059 
L 106.768696 200.617412 
L 107.356838 202.989176 
L 107.94498 214.848 
L 108.533123 224.335059 
L 109.121265 202.989176 
L 109.709407 212.476235 
L 110.297549 207.732706 
L 110.885692 205.360941 
L 112.061976 214.848 
L 112.650119 221.963294 
L 113.238261 214.848 
L 113.826403 214.848 
L 114.414545 212.476235 
L 115.002688 221.963294 
L 115.59083 233.822118 
L 116.178972 236.193882 
L 116.767115 231.450353 
L 117.355257 212.476235 
L 117.943399 207.732706 
L 118.531542 193.502118 
L 119.119684 191.130353 
L 119.707826 179.271529 
L 120.295968 157.925647 
L 120.884111 143.695059 
L 121.472253 150.810353 
L 122.060395 148.438588 
L 122.648538 138.951529 
L 123.23668 155.553882 
L 123.824822 186.386824 
L 125.001107 221.963294 
L 125.589249 214.848 
L 126.177391 217.219765 
L 126.765534 226.706824 
L 127.353676 229.078588 
L 127.941818 214.848 
L 128.52996 148.438588 
L 129.118103 174.528 
L 130.294387 174.528 
L 130.88253 191.130353 
L 131.470672 193.502118 
L 132.058814 198.245647 
L 132.646957 188.758588 
L 133.235099 200.617412 
L 133.823241 186.386824 
L 134.411383 181.643294 
L 134.999526 191.130353 
L 135.587668 193.502118 
L 136.17581 259.911529 
L 136.763953 255.168 
L 137.352095 262.283294 
L 137.940237 264.655059 
L 138.528379 252.796235 
L 139.116522 172.156235 
L 139.704664 157.925647 
L 140.292806 134.208 
L 140.880949 131.836235 
L 141.469091 138.951529 
L 142.057233 148.438588 
L 142.645375 153.182118 
L 143.233518 146.066824 
L 143.82166 157.925647 
L 144.409802 153.182118 
L 144.997945 150.810353 
L 145.586087 169.784471 
L 146.174229 193.502118 
L 146.762372 184.015059 
L 147.350514 176.899765 
L 147.938656 176.899765 
L 148.526798 195.873882 
L 149.114941 117.605647 
L 149.703083 101.003294 
L 150.291225 96.259765 
L 150.879368 84.400941 
L 151.46751 84.400941 
L 152.055652 77.285647 
L 152.643794 98.631529 
L 153.231937 98.631529 
L 153.820079 101.003294 
L 154.408221 98.631529 
L 154.996364 101.003294 
L 155.584506 96.259765 
L 156.172648 115.233882 
L 156.760791 103.375059 
L 157.348933 119.977412 
L 157.937075 112.862118 
L 158.525217 165.040941 
L 159.701502 150.810353 
L 160.289644 141.323294 
L 160.877787 146.066824 
L 161.465929 148.438588 
L 162.054071 141.323294 
L 162.642213 131.836235 
L 163.230356 105.746824 
L 163.818498 112.862118 
L 164.40664 124.720941 
L 164.994783 127.092706 
L 165.582925 134.208 
L 166.759209 138.951529 
L 167.347352 238.565647 
L 167.935494 240.937412 
L 168.523636 224.335059 
L 169.111779 214.848 
L 169.699921 224.335059 
L 170.288063 202.989176 
L 170.876206 212.476235 
L 171.464348 243.309176 
L 172.05249 236.193882 
L 172.640632 214.848 
L 173.228775 240.937412 
L 173.816917 252.796235 
L 174.405059 248.052706 
L 174.993202 262.283294 
L 175.581344 262.283294 
L 176.169486 274.142118 
L 176.757628 264.655059 
L 177.345771 262.283294 
L 177.933913 269.398588 
L 178.522055 271.770353 
L 179.110198 278.885647 
L 179.69834 269.398588 
L 180.286482 271.770353 
L 180.874625 233.822118 
L 182.050909 248.052706 
L 182.639051 212.476235 
L 183.227194 202.989176 
L 183.815336 184.015059 
L 184.403478 214.848 
L 184.991621 217.219765 
L 185.579763 181.643294 
L 186.167905 181.643294 
L 186.756047 162.669176 
L 187.34419 193.502118 
L 187.932332 179.271529 
L 188.520474 200.617412 
L 189.108617 188.758588 
L 189.696759 193.502118 
L 190.284901 188.758588 
L 190.873043 188.758588 
L 191.461186 179.271529 
L 192.63747 193.502118 
L 193.225613 165.040941 
L 193.813755 157.925647 
L 194.401897 153.182118 
L 194.99004 146.066824 
L 195.578182 143.695059 
L 196.166324 146.066824 
L 196.754466 176.899765 
L 197.342609 172.156235 
L 197.930751 174.528 
L 198.518893 127.092706 
L 199.107036 155.553882 
L 199.695178 162.669176 
L 200.28332 165.040941 
L 200.871462 165.040941 
L 201.459605 167.412706 
L 202.047747 155.553882 
L 202.635889 214.848 
L 203.224032 214.848 
L 203.812174 205.360941 
L 204.400316 207.732706 
L 204.988458 200.617412 
L 205.576601 176.899765 
L 206.164743 191.130353 
L 206.752885 184.015059 
L 207.341028 243.309176 
L 207.92917 248.052706 
L 208.517312 231.450353 
L 209.105455 233.822118 
L 209.693597 231.450353 
L 210.281739 217.219765 
L 210.869881 226.706824 
L 211.458024 191.130353 
L 212.046166 176.899765 
L 212.634308 174.528 
L 213.222451 141.323294 
L 214.398735 160.297412 
L 214.986877 101.003294 
L 215.57502 84.400941 
L 216.163162 89.144471 
L 216.751304 89.144471 
L 217.339447 77.285647 
L 217.927589 74.913882 
L 218.515731 70.170353 
L 219.103874 89.144471 
L 219.692016 119.977412 
L 220.280158 115.233882 
L 220.8683 165.040941 
L 221.456443 157.925647 
L 222.044585 160.297412 
L 222.632727 176.899765 
L 223.22087 96.259765 
L 223.809012 84.400941 
L 224.397154 103.375059 
L 224.985296 103.375059 
L 225.573439 82.029176 
L 226.161581 84.400941 
L 226.749723 93.888 
L 227.337866 98.631529 
L 227.926008 108.118588 
L 228.51415 108.118588 
L 229.102292 79.657412 
L 229.690435 84.400941 
L 230.278577 91.516235 
L 230.866719 96.259765 
L 231.454862 84.400941 
L 232.043004 86.772706 
L 232.631146 84.400941 
L 233.219289 91.516235 
L 233.807431 84.400941 
L 234.395573 103.375059 
L 234.983715 108.118588 
L 235.571858 108.118588 
L 236.16 110.490353 
L 236.748142 119.977412 
L 237.336285 103.375059 
L 237.924427 112.862118 
L 238.512569 188.758588 
L 239.100711 181.643294 
L 239.688854 169.784471 
L 240.276996 179.271529 
L 240.865138 179.271529 
L 241.453281 155.553882 
L 242.041423 143.695059 
L 242.629565 141.323294 
L 243.80585 146.066824 
L 244.393992 131.836235 
L 244.982134 129.464471 
L 245.570277 136.579765 
L 246.746561 105.746824 
L 247.334704 53.568 
L 247.922846 60.683294 
L 248.510988 105.746824 
L 249.09913 93.888 
L 249.687273 93.888 
L 250.275415 117.605647 
L 250.863557 124.720941 
L 251.4517 127.092706 
L 252.627984 127.092706 
L 253.804269 122.349176 
L 254.392411 115.233882 
L 254.980553 131.836235 
L 255.568696 141.323294 
L 256.156838 134.208 
L 256.74498 160.297412 
L 257.333123 150.810353 
L 257.921265 160.297412 
L 258.509407 160.297412 
L 259.097549 148.438588 
L 259.685692 160.297412 
L 260.273834 141.323294 
L 260.861976 141.323294 
L 261.450119 143.695059 
L 262.038261 129.464471 
L 262.626403 127.092706 
L 263.214545 127.092706 
L 263.802688 138.951529 
L 264.39083 143.695059 
L 264.978972 146.066824 
L 265.567115 138.951529 
L 266.155257 119.977412 
L 266.743399 134.208 
L 267.331542 141.323294 
L 267.919684 131.836235 
L 268.507826 117.605647 
L 269.095968 124.720941 
L 269.684111 136.579765 
L 270.272253 141.323294 
L 271.448538 172.156235 
L 272.03668 143.695059 
L 272.624822 131.836235 
L 273.212964 136.579765 
L 273.801107 136.579765 
L 274.389249 150.810353 
L 274.977391 186.386824 
L 275.565534 214.848 
L 276.153676 217.219765 
L 276.741818 229.078588 
L 277.32996 219.591529 
L 277.918103 221.963294 
L 278.506245 226.706824 
L 279.094387 205.360941 
L 279.68253 217.219765 
L 280.270672 238.565647 
L 280.858814 226.706824 
L 281.446957 224.335059 
L 282.035099 255.168 
L 282.623241 271.770353 
L 283.211383 281.257412 
L 283.799526 295.488 
L 284.387668 290.744471 
L 284.97581 293.116235 
L 285.563953 274.142118 
L 286.152095 243.309176 
L 286.740237 195.873882 
L 287.328379 200.617412 
L 287.916522 167.412706 
L 288.504664 169.784471 
L 289.092806 179.271529 
L 289.680949 176.899765 
L 290.269091 176.899765 
L 290.857233 181.643294 
L 291.445375 191.130353 
L 292.033518 221.963294 
L 292.62166 219.591529 
L 293.209802 219.591529 
L 293.797945 214.848 
L 294.974229 233.822118 
L 295.562372 167.412706 
L 296.150514 162.669176 
L 296.738656 174.528 
L 297.326798 155.553882 
L 297.914941 181.643294 
L 298.503083 172.156235 
L 299.091225 172.156235 
L 300.26751 167.412706 
L 300.855652 162.669176 
L 301.443794 160.297412 
L 302.031937 169.784471 
L 302.620079 176.899765 
L 303.208221 186.386824 
L 303.796364 181.643294 
L 304.384506 167.412706 
L 304.972648 165.040941 
L 306.148933 155.553882 
L 306.737075 153.182118 
L 307.325217 146.066824 
L 307.91336 91.516235 
L 308.501502 91.516235 
L 309.677787 86.772706 
L 310.265929 86.772706 
L 310.854071 117.605647 
L 311.442213 131.836235 
L 312.030356 134.208 
L 312.618498 143.695059 
L 313.20664 165.040941 
L 313.794783 181.643294 
L 314.382925 179.271529 
L 314.971067 172.156235 
L 315.559209 179.271529 
L 316.147352 174.528 
L 316.735494 184.015059 
L 317.323636 184.015059 
L 318.499921 165.040941 
L 319.088063 165.040941 
L 319.676206 153.182118 
L 320.264348 162.669176 
L 320.85249 160.297412 
L 321.440632 195.873882 
L 322.028775 174.528 
L 322.616917 165.040941 
L 323.205059 146.066824 
L 323.793202 165.040941 
L 324.381344 169.784471 
L 324.969486 160.297412 
L 325.557628 148.438588 
L 326.145771 146.066824 
L 326.733913 146.066824 
L 327.910198 155.553882 
L 328.49834 148.438588 
L 329.086482 150.810353 
L 329.674625 146.066824 
L 330.262767 150.810353 
L 330.850909 148.438588 
L 331.439051 112.862118 
L 332.027194 112.862118 
L 332.615336 117.605647 
L 333.203478 127.092706 
L 333.791621 122.349176 
L 334.379763 122.349176 
L 334.967905 138.951529 
L 335.556047 136.579765 
L 336.14419 141.323294 
L 336.732332 157.925647 
L 337.320474 157.925647 
L 337.908617 150.810353 
L 338.496759 148.438588 
L 339.084901 136.579765 
L 339.673043 162.669176 
L 340.849328 143.695059 
L 341.43747 143.695059 
L 342.025613 141.323294 
L 343.201897 141.323294 
L 343.79004 148.438588 
L 344.378182 143.695059 
L 344.966324 162.669176 
L 345.554466 155.553882 
L 346.142609 169.784471 
L 346.730751 207.732706 
L 347.318893 200.617412 
L 347.907036 205.360941 
L 348.495178 221.963294 
L 349.08332 198.245647 
L 349.671462 179.271529 
L 350.259605 195.873882 
L 350.847747 193.502118 
L 351.435889 205.360941 
L 352.024032 198.245647 
L 352.612174 188.758588 
L 353.200316 188.758588 
L 353.788458 195.873882 
L 354.376601 157.925647 
L 354.964743 146.066824 
L 355.552885 124.720941 
L 356.141028 136.579765 
L 356.72917 134.208 
L 357.317312 115.233882 
L 357.905455 127.092706 
L 358.493597 131.836235 
L 359.081739 138.951529 
L 359.669881 127.092706 
L 360.258024 131.836235 
L 360.846166 134.208 
L 361.434308 122.349176 
L 362.022451 124.720941 
L 362.610593 138.951529 
L 363.198735 141.323294 
L 363.786877 136.579765 
L 364.37502 198.245647 
L 364.963162 184.015059 
L 365.551304 240.937412 
L 366.139447 231.450353 
L 366.727589 248.052706 
L 367.315731 257.539765 
L 367.903874 259.911529 
L 369.080158 245.680941 
L 369.6683 271.770353 
L 370.256443 262.283294 
L 370.844585 255.168 
L 371.432727 250.424471 
L 372.02087 240.937412 
L 372.609012 252.796235 
L 373.197154 259.911529 
L 373.785296 255.168 
L 374.373439 259.911529 
L 374.961581 233.822118 
L 375.549723 250.424471 
L 376.137866 245.680941 
L 376.726008 236.193882 
L 377.902292 212.476235 
L 378.490435 198.245647 
L 379.078577 191.130353 
L 380.254862 172.156235 
L 380.843004 184.015059 
L 381.431146 184.015059 
L 382.019289 191.130353 
L 382.607431 179.271529 
L 383.195573 174.528 
L 383.783715 172.156235 
L 384.371858 179.271529 
L 384.96 193.502118 
L 385.548142 150.810353 
L 386.136285 143.695059 
L 386.724427 155.553882 
L 387.312569 127.092706 
L 388.488854 131.836235 
L 389.076996 119.977412 
L 389.665138 131.836235 
L 390.253281 141.323294 
L 390.841423 157.925647 
L 391.429565 143.695059 
L 392.017708 146.066824 
L 392.60585 150.810353 
L 393.193992 157.925647 
L 393.782134 155.553882 
L 394.370277 148.438588 
L 394.958419 162.669176 
L 395.546561 155.553882 
L 396.134704 150.810353 
L 396.722846 134.208 
L 397.89913 165.040941 
L 398.487273 167.412706 
L 398.487273 167.412706 
" clip-path="url(#p8e317db20d)" style="fill: none; stroke: #1f77b4; stroke-width: 1.5; stroke-linecap: square"/>
   </g>
   <g id="patch_3">
    <path d="M 57.6 307.584 
L 57.6 41.472 
" style="fill: none; stroke: #000000; stroke-width: 0.8; stroke-linejoin: miter; stroke-linecap: square"/>
   </g>
   <g id="patch_4">
    <path d="M 414.72 307.584 
L 414.72 41.472 
" style="fill: none; stroke: #000000; stroke-width: 0.8; stroke-linejoin: miter; stroke-linecap: square"/>
   </g>
   <g id="patch_5">
    <path d="M 57.6 307.584 
L 414.72 307.584 
" style="fill: none; stroke: #000000; stroke-width: 0.8; stroke-linejoin: miter; stroke-linecap: square"/>
   </g>
   <g id="patch_6">
    <path d="M 57.6 41.472 
L 414.72 41.472 
" style="fill: none; stroke: #000000; stroke-width: 0.8; stroke-linejoin: miter; stroke-linecap: square"/>
   </g>
   <g id="text_15">
    <!-- Simulated Anealling Cost -->
    <g transform="translate(160.8 35.472)scale(0.12 -0.12)">
     <defs>
      <path id="DejaVuSans-53" d="M 3425 4513 
L 3425 3897 
Q 3066 4069 2747 4153 
Q 2428 4238 2131 4238 
Q 1616 4238 1336 4038 
Q 1056 3838 1056 3469 
Q 1056 3159 1242 3001 
Q 1428 2844 1947 2747 
L 2328 2669 
Q 3034 2534 3370 2195 
Q 3706 1856 3706 1288 
Q 3706 609 3251 259 
Q 2797 -91 1919 -91 
Q 1588 -91 1214 -16 
Q 841 59 441 206 
L 441 856 
Q 825 641 1194 531 
Q 1563 422 1919 422 
Q 2459 422 2753 634 
Q 3047 847 3047 1241 
Q 3047 1584 2836 1778 
Q 2625 1972 2144 2069 
L 1759 2144 
Q 1053 2284 737 2584 
Q 422 2884 422 3419 
Q 422 4038 858 4394 
Q 1294 4750 2059 4750 
Q 2388 4750 2728 4690 
Q 3069 4631 3425 4513 
z
" transform="scale(0.015625)"/>
      <path id="DejaVuSans-69" d="M 603 3500 
L 1178 3500 
L 1178 0 
L 603 0 
L 603 3500 
z
M 603 4863 
L 1178 4863 
L 1178 4134 
L 603 4134 
L 603 4863 
z
" transform="scale(0.015625)"/>
      <path id="DejaVuSans-65" d="M 3597 1894 
L 3597 1613 
L 953 1613 
Q 991 1019 1311 708 
Q 1631 397 2203 397 
Q 2534 397 2845 478 
Q 3156 559 3463 722 
L 3463 178 
Q 3153 47 2828 -22 
Q 2503 -91 2169 -91 
Q 1331 -91 842 396 
Q 353 884 353 1716 
Q 353 2575 817 3079 
Q 1281 3584 2069 3584 
Q 2775 3584 3186 3129 
Q 3597 2675 3597 1894 
z
M 3022 2063 
Q 3016 2534 2758 2815 
Q 2500 3097 2075 3097 
Q 1594 3097 1305 2825 
Q 1016 2553 972 2059 
L 3022 2063 
z
" transform="scale(0.015625)"/>
      <path id="DejaVuSans-64" d="M 2906 2969 
L 2906 4863 
L 3481 4863 
L 3481 0 
L 2906 0 
L 2906 525 
Q 2725 213 2448 61 
Q 2172 -91 1784 -91 
Q 1150 -91 751 415 
Q 353 922 353 1747 
Q 353 2572 751 3078 
Q 1150 3584 1784 3584 
Q 2172 3584 2448 3432 
Q 2725 3281 2906 2969 
z
M 947 1747 
Q 947 1113 1208 752 
Q 1469 391 1925 391 
Q 2381 391 2643 752 
Q 2906 1113 2906 1747 
Q 2906 2381 2643 2742 
Q 2381 3103 1925 3103 
Q 1469 3103 1208 2742 
Q 947 2381 947 1747 
z
" transform="scale(0.015625)"/>
      <path id="DejaVuSans-41" d="M 2188 4044 
L 1331 1722 
L 3047 1722 
L 2188 4044 
z
M 1831 4666 
L 2547 4666 
L 4325 0 
L 3669 0 
L 3244 1197 
L 1141 1197 
L 716 0 
L 50 0 
L 1831 4666 
z
" transform="scale(0.015625)"/>
      <path id="DejaVuSans-67" d="M 2906 1791 
Q 2906 2416 2648 2759 
Q 2391 3103 1925 3103 
Q 1463 3103 1205 2759 
Q 947 2416 947 1791 
Q 947 1169 1205 825 
Q 1463 481 1925 481 
Q 2391 481 2648 825 
Q 2906 1169 2906 1791 
z
M 3481 434 
Q 3481 -459 3084 -895 
Q 2688 -1331 1869 -1331 
Q 1566 -1331 1297 -1286 
Q 1028 -1241 775 -1147 
L 775 -588 
Q 1028 -725 1275 -790 
Q 1522 -856 1778 -856 
Q 2344 -856 2625 -561 
Q 2906 -266 2906 331 
L 2906 616 
Q 2728 306 2450 153 
Q 2172 0 1784 0 
Q 1141 0 747 490 
Q 353 981 353 1791 
Q 353 2603 747 3093 
Q 1141 3584 1784 3584 
Q 2172 3584 2450 3431 
Q 2728 3278 2906 2969 
L 2906 3500 
L 3481 3500 
L 3481 434 
z
" transform="scale(0.015625)"/>
      <path id="DejaVuSans-43" d="M 4122 4306 
L 4122 3641 
Q 3803 3938 3442 4084 
Q 3081 4231 2675 4231 
Q 1875 4231 1450 3742 
Q 1025 3253 1025 2328 
Q 1025 1406 1450 917 
Q 1875 428 2675 428 
Q 3081 428 3442 575 
Q 3803 722 4122 1019 
L 4122 359 
Q 3791 134 3420 21 
Q 3050 -91 2638 -91 
Q 1578 -91 968 557 
Q 359 1206 359 2328 
Q 359 3453 968 4101 
Q 1578 4750 2638 4750 
Q 3056 4750 3426 4639 
Q 3797 4528 4122 4306 
z
" transform="scale(0.015625)"/>
     </defs>
     <use xlink:href="#DejaVuSans-53"/>
     <use xlink:href="#DejaVuSans-69" x="63.476562"/>
     <use xlink:href="#DejaVuSans-6d" x="91.259766"/>
     <use xlink:href="#DejaVuSans-75" x="188.671875"/>
     <use xlink:href="#DejaVuSans-6c" x="252.050781"/>
     <use xlink:href="#DejaVuSans-61" x="279.833984"/>
     <use xlink:href="#DejaVuSans-74" x="341.113281"/>
     <use xlink:href="#DejaVuSans-65" x="380.322266"/>
     <use xlink:href="#DejaVuSans-64" x="441.845703"/>
     <use xlink:href="#DejaVuSans-20" x="505.322266"/>
     <use xlink:href="#DejaVuSans-41" x="537.109375"/>
     <use xlink:href="#DejaVuSans-6e" x="605.517578"/>
     <use xlink:href="#DejaVuSans-65" x="668.896484"/>
     <use xlink:href="#DejaVuSans-61" x="730.419922"/>
     <use xlink:href="#DejaVuSans-6c" x="791.699219"/>
     <use xlink:href="#DejaVuSans-6c" x="819.482422"/>
     <use xlink:href="#DejaVuSans-69" x="847.265625"/>
     <use xlink:href="#DejaVuSans-6e" x="875.048828"/>
     <use xlink:href="#DejaVuSans-67" x="938.427734"/>
     <use xlink:href="#DejaVuSans-20" x="1001.904297"/>
     <use xlink:href="#DejaVuSans-43" x="1033.691406"/>
     <use xlink:href="#DejaVuSans-6f" x="1103.515625"/>
     <use xlink:href="#DejaVuSans-73" x="1164.697266"/>
     <use xlink:href="#DejaVuSans-74" x="1216.796875"/>
    </g>
   </g>
  </g>
 </g>
 <defs>
  <clipPath id="p8e317db20d">
   <rect x="57.6" y="41.472" width="357.12" height="266.112"/>
  </clipPath>
 </defs>
</svg>
