<?xml version="1.0" encoding="utf-8" standalone="no"?>
<!DOCTYPE svg PUBLIC "-//W3C//DTD SVG 1.1//EN"
  "http://www.w3.org/Graphics/SVG/1.1/DTD/svg11.dtd">
<svg xmlns:xlink="http://www.w3.org/1999/xlink" width="460.8pt" height="345.6pt" viewBox="0 0 460.8 345.6" xmlns="http://www.w3.org/2000/svg" version="1.1">
 <metadata>
  <rdf:RDF xmlns:dc="http://purl.org/dc/elements/1.1/" xmlns:cc="http://creativecommons.org/ns#" xmlns:rdf="http://www.w3.org/1999/02/22-rdf-syntax-ns#">
   <cc:Work>
    <dc:type rdf:resource="http://purl.org/dc/dcmitype/StillImage"/>
    <dc:date>2022-06-01T08:07:31.867344</dc:date>
    <dc:format>image/svg+xml</dc:format>
    <dc:creator>
     <cc:Agent>
      <dc:title>Matplotlib v3.5.1, https://matplotlib.org/</dc:title>
     </cc:Agent>
    </dc:creator>
   </cc:Work>
  </rdf:RDF>
 </metadata>
 <defs>
  <style type="text/css">*{stroke-linejoin: round; stroke-linecap: butt}</style>
 </defs>
 <g id="figure_1">
  <g id="patch_1">
   <path d="M 0 345.6 
L 460.8 345.6 
L 460.8 0 
L 0 0 
z
" style="fill: #ffffff"/>
  </g>
  <g id="axes_1">
   <g id="patch_2">
    <path d="M 57.6 307.584 
L 414.72 307.584 
L 414.72 41.472 
L 57.6 41.472 
z
" style="fill: #ffffff"/>
   </g>
   <g id="matplotlib.axis_1">
    <g id="xtick_1">
     <g id="line2d_1">
      <defs>
       <path id="m23c8c338e6" d="M 0 0 
L 0 3.5 
" style="stroke: #000000; stroke-width: 0.8"/>
      </defs>
      <g>
       <use xlink:href="#m23c8c338e6" x="73.832727" y="307.584" style="stroke: #000000; stroke-width: 0.8"/>
      </g>
     </g>
     <g id="text_1">
      <!-- 0 -->
      <g transform="translate(70.651477 322.182437)scale(0.1 -0.1)">
       <defs>
        <path id="DejaVuSans-30" d="M 2034 4250 
Q 1547 4250 1301 3770 
Q 1056 3291 1056 2328 
Q 1056 1369 1301 889 
Q 1547 409 2034 409 
Q 2525 409 2770 889 
Q 3016 1369 3016 2328 
Q 3016 3291 2770 3770 
Q 2525 4250 2034 4250 
z
M 2034 4750 
Q 2819 4750 3233 4129 
Q 3647 3509 3647 2328 
Q 3647 1150 3233 529 
Q 2819 -91 2034 -91 
Q 1250 -91 836 529 
Q 422 1150 422 2328 
Q 422 3509 836 4129 
Q 1250 4750 2034 4750 
z
" transform="scale(0.015625)"/>
       </defs>
       <use xlink:href="#DejaVuSans-30"/>
      </g>
     </g>
    </g>
    <g id="xtick_2">
     <g id="line2d_2">
      <g>
       <use xlink:href="#m23c8c338e6" x="129.329231" y="307.584" style="stroke: #000000; stroke-width: 0.8"/>
      </g>
     </g>
     <g id="text_2">
      <!-- 200 -->
      <g transform="translate(119.785481 322.182437)scale(0.1 -0.1)">
       <defs>
        <path id="DejaVuSans-32" d="M 1228 531 
L 3431 531 
L 3431 0 
L 469 0 
L 469 531 
Q 828 903 1448 1529 
Q 2069 2156 2228 2338 
Q 2531 2678 2651 2914 
Q 2772 3150 2772 3378 
Q 2772 3750 2511 3984 
Q 2250 4219 1831 4219 
Q 1534 4219 1204 4116 
Q 875 4013 500 3803 
L 500 4441 
Q 881 4594 1212 4672 
Q 1544 4750 1819 4750 
Q 2544 4750 2975 4387 
Q 3406 4025 3406 3419 
Q 3406 3131 3298 2873 
Q 3191 2616 2906 2266 
Q 2828 2175 2409 1742 
Q 1991 1309 1228 531 
z
" transform="scale(0.015625)"/>
       </defs>
       <use xlink:href="#DejaVuSans-32"/>
       <use xlink:href="#DejaVuSans-30" x="63.623047"/>
       <use xlink:href="#DejaVuSans-30" x="127.246094"/>
      </g>
     </g>
    </g>
    <g id="xtick_3">
     <g id="line2d_3">
      <g>
       <use xlink:href="#m23c8c338e6" x="184.825734" y="307.584" style="stroke: #000000; stroke-width: 0.8"/>
      </g>
     </g>
     <g id="text_3">
      <!-- 400 -->
      <g transform="translate(175.281984 322.182437)scale(0.1 -0.1)">
       <defs>
        <path id="DejaVuSans-34" d="M 2419 4116 
L 825 1625 
L 2419 1625 
L 2419 4116 
z
M 2253 4666 
L 3047 4666 
L 3047 1625 
L 3713 1625 
L 3713 1100 
L 3047 1100 
L 3047 0 
L 2419 0 
L 2419 1100 
L 313 1100 
L 313 1709 
L 2253 4666 
z
" transform="scale(0.015625)"/>
       </defs>
       <use xlink:href="#DejaVuSans-34"/>
       <use xlink:href="#DejaVuSans-30" x="63.623047"/>
       <use xlink:href="#DejaVuSans-30" x="127.246094"/>
      </g>
     </g>
    </g>
    <g id="xtick_4">
     <g id="line2d_4">
      <g>
       <use xlink:href="#m23c8c338e6" x="240.322238" y="307.584" style="stroke: #000000; stroke-width: 0.8"/>
      </g>
     </g>
     <g id="text_4">
      <!-- 600 -->
      <g transform="translate(230.778488 322.182437)scale(0.1 -0.1)">
       <defs>
        <path id="DejaVuSans-36" d="M 2113 2584 
Q 1688 2584 1439 2293 
Q 1191 2003 1191 1497 
Q 1191 994 1439 701 
Q 1688 409 2113 409 
Q 2538 409 2786 701 
Q 3034 994 3034 1497 
Q 3034 2003 2786 2293 
Q 2538 2584 2113 2584 
z
M 3366 4563 
L 3366 3988 
Q 3128 4100 2886 4159 
Q 2644 4219 2406 4219 
Q 1781 4219 1451 3797 
Q 1122 3375 1075 2522 
Q 1259 2794 1537 2939 
Q 1816 3084 2150 3084 
Q 2853 3084 3261 2657 
Q 3669 2231 3669 1497 
Q 3669 778 3244 343 
Q 2819 -91 2113 -91 
Q 1303 -91 875 529 
Q 447 1150 447 2328 
Q 447 3434 972 4092 
Q 1497 4750 2381 4750 
Q 2619 4750 2861 4703 
Q 3103 4656 3366 4563 
z
" transform="scale(0.015625)"/>
       </defs>
       <use xlink:href="#DejaVuSans-36"/>
       <use xlink:href="#DejaVuSans-30" x="63.623047"/>
       <use xlink:href="#DejaVuSans-30" x="127.246094"/>
      </g>
     </g>
    </g>
    <g id="xtick_5">
     <g id="line2d_5">
      <g>
       <use xlink:href="#m23c8c338e6" x="295.818741" y="307.584" style="stroke: #000000; stroke-width: 0.8"/>
      </g>
     </g>
     <g id="text_5">
      <!-- 800 -->
      <g transform="translate(286.274991 322.182437)scale(0.1 -0.1)">
       <defs>
        <path id="DejaVuSans-38" d="M 2034 2216 
Q 1584 2216 1326 1975 
Q 1069 1734 1069 1313 
Q 1069 891 1326 650 
Q 1584 409 2034 409 
Q 2484 409 2743 651 
Q 3003 894 3003 1313 
Q 3003 1734 2745 1975 
Q 2488 2216 2034 2216 
z
M 1403 2484 
Q 997 2584 770 2862 
Q 544 3141 544 3541 
Q 544 4100 942 4425 
Q 1341 4750 2034 4750 
Q 2731 4750 3128 4425 
Q 3525 4100 3525 3541 
Q 3525 3141 3298 2862 
Q 3072 2584 2669 2484 
Q 3125 2378 3379 2068 
Q 3634 1759 3634 1313 
Q 3634 634 3220 271 
Q 2806 -91 2034 -91 
Q 1263 -91 848 271 
Q 434 634 434 1313 
Q 434 1759 690 2068 
Q 947 2378 1403 2484 
z
M 1172 3481 
Q 1172 3119 1398 2916 
Q 1625 2713 2034 2713 
Q 2441 2713 2670 2916 
Q 2900 3119 2900 3481 
Q 2900 3844 2670 4047 
Q 2441 4250 2034 4250 
Q 1625 4250 1398 4047 
Q 1172 3844 1172 3481 
z
" transform="scale(0.015625)"/>
       </defs>
       <use xlink:href="#DejaVuSans-38"/>
       <use xlink:href="#DejaVuSans-30" x="63.623047"/>
       <use xlink:href="#DejaVuSans-30" x="127.246094"/>
      </g>
     </g>
    </g>
    <g id="xtick_6">
     <g id="line2d_6">
      <g>
       <use xlink:href="#m23c8c338e6" x="351.315245" y="307.584" style="stroke: #000000; stroke-width: 0.8"/>
      </g>
     </g>
     <g id="text_6">
      <!-- 1000 -->
      <g transform="translate(338.590245 322.182437)scale(0.1 -0.1)">
       <defs>
        <path id="DejaVuSans-31" d="M 794 531 
L 1825 531 
L 1825 4091 
L 703 3866 
L 703 4441 
L 1819 4666 
L 2450 4666 
L 2450 531 
L 3481 531 
L 3481 0 
L 794 0 
L 794 531 
z
" transform="scale(0.015625)"/>
       </defs>
       <use xlink:href="#DejaVuSans-31"/>
       <use xlink:href="#DejaVuSans-30" x="63.623047"/>
       <use xlink:href="#DejaVuSans-30" x="127.246094"/>
       <use xlink:href="#DejaVuSans-30" x="190.869141"/>
      </g>
     </g>
    </g>
    <g id="xtick_7">
     <g id="line2d_7">
      <g>
       <use xlink:href="#m23c8c338e6" x="406.811748" y="307.584" style="stroke: #000000; stroke-width: 0.8"/>
      </g>
     </g>
     <g id="text_7">
      <!-- 1200 -->
      <g transform="translate(394.086748 322.182437)scale(0.1 -0.1)">
       <use xlink:href="#DejaVuSans-31"/>
       <use xlink:href="#DejaVuSans-32" x="63.623047"/>
       <use xlink:href="#DejaVuSans-30" x="127.246094"/>
       <use xlink:href="#DejaVuSans-30" x="190.869141"/>
      </g>
     </g>
    </g>
    <g id="text_8">
     <!-- num swaps -->
     <g transform="translate(207.826406 335.860562)scale(0.1 -0.1)">
      <defs>
       <path id="DejaVuSans-6e" d="M 3513 2113 
L 3513 0 
L 2938 0 
L 2938 2094 
Q 2938 2591 2744 2837 
Q 2550 3084 2163 3084 
Q 1697 3084 1428 2787 
Q 1159 2491 1159 1978 
L 1159 0 
L 581 0 
L 581 3500 
L 1159 3500 
L 1159 2956 
Q 1366 3272 1645 3428 
Q 1925 3584 2291 3584 
Q 2894 3584 3203 3211 
Q 3513 2838 3513 2113 
z
" transform="scale(0.015625)"/>
       <path id="DejaVuSans-75" d="M 544 1381 
L 544 3500 
L 1119 3500 
L 1119 1403 
Q 1119 906 1312 657 
Q 1506 409 1894 409 
Q 2359 409 2629 706 
Q 2900 1003 2900 1516 
L 2900 3500 
L 3475 3500 
L 3475 0 
L 2900 0 
L 2900 538 
Q 2691 219 2414 64 
Q 2138 -91 1772 -91 
Q 1169 -91 856 284 
Q 544 659 544 1381 
z
M 1991 3584 
L 1991 3584 
z
" transform="scale(0.015625)"/>
       <path id="DejaVuSans-6d" d="M 3328 2828 
Q 3544 3216 3844 3400 
Q 4144 3584 4550 3584 
Q 5097 3584 5394 3201 
Q 5691 2819 5691 2113 
L 5691 0 
L 5113 0 
L 5113 2094 
Q 5113 2597 4934 2840 
Q 4756 3084 4391 3084 
Q 3944 3084 3684 2787 
Q 3425 2491 3425 1978 
L 3425 0 
L 2847 0 
L 2847 2094 
Q 2847 2600 2669 2842 
Q 2491 3084 2119 3084 
Q 1678 3084 1418 2786 
Q 1159 2488 1159 1978 
L 1159 0 
L 581 0 
L 581 3500 
L 1159 3500 
L 1159 2956 
Q 1356 3278 1631 3431 
Q 1906 3584 2284 3584 
Q 2666 3584 2933 3390 
Q 3200 3197 3328 2828 
z
" transform="scale(0.015625)"/>
       <path id="DejaVuSans-20" transform="scale(0.015625)"/>
       <path id="DejaVuSans-73" d="M 2834 3397 
L 2834 2853 
Q 2591 2978 2328 3040 
Q 2066 3103 1784 3103 
Q 1356 3103 1142 2972 
Q 928 2841 928 2578 
Q 928 2378 1081 2264 
Q 1234 2150 1697 2047 
L 1894 2003 
Q 2506 1872 2764 1633 
Q 3022 1394 3022 966 
Q 3022 478 2636 193 
Q 2250 -91 1575 -91 
Q 1294 -91 989 -36 
Q 684 19 347 128 
L 347 722 
Q 666 556 975 473 
Q 1284 391 1588 391 
Q 1994 391 2212 530 
Q 2431 669 2431 922 
Q 2431 1156 2273 1281 
Q 2116 1406 1581 1522 
L 1381 1569 
Q 847 1681 609 1914 
Q 372 2147 372 2553 
Q 372 3047 722 3315 
Q 1072 3584 1716 3584 
Q 2034 3584 2315 3537 
Q 2597 3491 2834 3397 
z
" transform="scale(0.015625)"/>
       <path id="DejaVuSans-77" d="M 269 3500 
L 844 3500 
L 1563 769 
L 2278 3500 
L 2956 3500 
L 3675 769 
L 4391 3500 
L 4966 3500 
L 4050 0 
L 3372 0 
L 2619 2869 
L 1863 0 
L 1184 0 
L 269 3500 
z
" transform="scale(0.015625)"/>
       <path id="DejaVuSans-61" d="M 2194 1759 
Q 1497 1759 1228 1600 
Q 959 1441 959 1056 
Q 959 750 1161 570 
Q 1363 391 1709 391 
Q 2188 391 2477 730 
Q 2766 1069 2766 1631 
L 2766 1759 
L 2194 1759 
z
M 3341 1997 
L 3341 0 
L 2766 0 
L 2766 531 
Q 2569 213 2275 61 
Q 1981 -91 1556 -91 
Q 1019 -91 701 211 
Q 384 513 384 1019 
Q 384 1609 779 1909 
Q 1175 2209 1959 2209 
L 2766 2209 
L 2766 2266 
Q 2766 2663 2505 2880 
Q 2244 3097 1772 3097 
Q 1472 3097 1187 3025 
Q 903 2953 641 2809 
L 641 3341 
Q 956 3463 1253 3523 
Q 1550 3584 1831 3584 
Q 2591 3584 2966 3190 
Q 3341 2797 3341 1997 
z
" transform="scale(0.015625)"/>
       <path id="DejaVuSans-70" d="M 1159 525 
L 1159 -1331 
L 581 -1331 
L 581 3500 
L 1159 3500 
L 1159 2969 
Q 1341 3281 1617 3432 
Q 1894 3584 2278 3584 
Q 2916 3584 3314 3078 
Q 3713 2572 3713 1747 
Q 3713 922 3314 415 
Q 2916 -91 2278 -91 
Q 1894 -91 1617 61 
Q 1341 213 1159 525 
z
M 3116 1747 
Q 3116 2381 2855 2742 
Q 2594 3103 2138 3103 
Q 1681 3103 1420 2742 
Q 1159 2381 1159 1747 
Q 1159 1113 1420 752 
Q 1681 391 2138 391 
Q 2594 391 2855 752 
Q 3116 1113 3116 1747 
z
" transform="scale(0.015625)"/>
      </defs>
      <use xlink:href="#DejaVuSans-6e"/>
      <use xlink:href="#DejaVuSans-75" x="63.378906"/>
      <use xlink:href="#DejaVuSans-6d" x="126.757812"/>
      <use xlink:href="#DejaVuSans-20" x="224.169922"/>
      <use xlink:href="#DejaVuSans-73" x="255.957031"/>
      <use xlink:href="#DejaVuSans-77" x="308.056641"/>
      <use xlink:href="#DejaVuSans-61" x="389.84375"/>
      <use xlink:href="#DejaVuSans-70" x="451.123047"/>
      <use xlink:href="#DejaVuSans-73" x="514.599609"/>
     </g>
    </g>
   </g>
   <g id="matplotlib.axis_2">
    <g id="ytick_1">
     <g id="line2d_8">
      <defs>
       <path id="m99c0787de9" d="M 0 0 
L -3.5 0 
" style="stroke: #000000; stroke-width: 0.8"/>
      </defs>
      <g>
       <use xlink:href="#m99c0787de9" x="57.6" y="304.388067" style="stroke: #000000; stroke-width: 0.8"/>
      </g>
     </g>
     <g id="text_9">
      <!-- 850 -->
      <g transform="translate(31.5125 308.187286)scale(0.1 -0.1)">
       <defs>
        <path id="DejaVuSans-35" d="M 691 4666 
L 3169 4666 
L 3169 4134 
L 1269 4134 
L 1269 2991 
Q 1406 3038 1543 3061 
Q 1681 3084 1819 3084 
Q 2600 3084 3056 2656 
Q 3513 2228 3513 1497 
Q 3513 744 3044 326 
Q 2575 -91 1722 -91 
Q 1428 -91 1123 -41 
Q 819 9 494 109 
L 494 744 
Q 775 591 1075 516 
Q 1375 441 1709 441 
Q 2250 441 2565 725 
Q 2881 1009 2881 1497 
Q 2881 1984 2565 2268 
Q 2250 2553 1709 2553 
Q 1456 2553 1204 2497 
Q 953 2441 691 2322 
L 691 4666 
z
" transform="scale(0.015625)"/>
       </defs>
       <use xlink:href="#DejaVuSans-38"/>
       <use xlink:href="#DejaVuSans-35" x="63.623047"/>
       <use xlink:href="#DejaVuSans-30" x="127.246094"/>
      </g>
     </g>
    </g>
    <g id="ytick_2">
     <g id="line2d_9">
      <g>
       <use xlink:href="#m99c0787de9" x="57.6" y="263.933217" style="stroke: #000000; stroke-width: 0.8"/>
      </g>
     </g>
     <g id="text_10">
      <!-- 900 -->
      <g transform="translate(31.5125 267.732436)scale(0.1 -0.1)">
       <defs>
        <path id="DejaVuSans-39" d="M 703 97 
L 703 672 
Q 941 559 1184 500 
Q 1428 441 1663 441 
Q 2288 441 2617 861 
Q 2947 1281 2994 2138 
Q 2813 1869 2534 1725 
Q 2256 1581 1919 1581 
Q 1219 1581 811 2004 
Q 403 2428 403 3163 
Q 403 3881 828 4315 
Q 1253 4750 1959 4750 
Q 2769 4750 3195 4129 
Q 3622 3509 3622 2328 
Q 3622 1225 3098 567 
Q 2575 -91 1691 -91 
Q 1453 -91 1209 -44 
Q 966 3 703 97 
z
M 1959 2075 
Q 2384 2075 2632 2365 
Q 2881 2656 2881 3163 
Q 2881 3666 2632 3958 
Q 2384 4250 1959 4250 
Q 1534 4250 1286 3958 
Q 1038 3666 1038 3163 
Q 1038 2656 1286 2365 
Q 1534 2075 1959 2075 
z
" transform="scale(0.015625)"/>
       </defs>
       <use xlink:href="#DejaVuSans-39"/>
       <use xlink:href="#DejaVuSans-30" x="63.623047"/>
       <use xlink:href="#DejaVuSans-30" x="127.246094"/>
      </g>
     </g>
    </g>
    <g id="ytick_3">
     <g id="line2d_10">
      <g>
       <use xlink:href="#m99c0787de9" x="57.6" y="223.478368" style="stroke: #000000; stroke-width: 0.8"/>
      </g>
     </g>
     <g id="text_11">
      <!-- 950 -->
      <g transform="translate(31.5125 227.277587)scale(0.1 -0.1)">
       <use xlink:href="#DejaVuSans-39"/>
       <use xlink:href="#DejaVuSans-35" x="63.623047"/>
       <use xlink:href="#DejaVuSans-30" x="127.246094"/>
      </g>
     </g>
    </g>
    <g id="ytick_4">
     <g id="line2d_11">
      <g>
       <use xlink:href="#m99c0787de9" x="57.6" y="183.023518" style="stroke: #000000; stroke-width: 0.8"/>
      </g>
     </g>
     <g id="text_12">
      <!-- 1000 -->
      <g transform="translate(25.15 186.822737)scale(0.1 -0.1)">
       <use xlink:href="#DejaVuSans-31"/>
       <use xlink:href="#DejaVuSans-30" x="63.623047"/>
       <use xlink:href="#DejaVuSans-30" x="127.246094"/>
       <use xlink:href="#DejaVuSans-30" x="190.869141"/>
      </g>
     </g>
    </g>
    <g id="ytick_5">
     <g id="line2d_12">
      <g>
       <use xlink:href="#m99c0787de9" x="57.6" y="142.568669" style="stroke: #000000; stroke-width: 0.8"/>
      </g>
     </g>
     <g id="text_13">
      <!-- 1050 -->
      <g transform="translate(25.15 146.367888)scale(0.1 -0.1)">
       <use xlink:href="#DejaVuSans-31"/>
       <use xlink:href="#DejaVuSans-30" x="63.623047"/>
       <use xlink:href="#DejaVuSans-35" x="127.246094"/>
       <use xlink:href="#DejaVuSans-30" x="190.869141"/>
      </g>
     </g>
    </g>
    <g id="ytick_6">
     <g id="line2d_13">
      <g>
       <use xlink:href="#m99c0787de9" x="57.6" y="102.113819" style="stroke: #000000; stroke-width: 0.8"/>
      </g>
     </g>
     <g id="text_14">
      <!-- 1100 -->
      <g transform="translate(25.15 105.913038)scale(0.1 -0.1)">
       <use xlink:href="#DejaVuSans-31"/>
       <use xlink:href="#DejaVuSans-31" x="63.623047"/>
       <use xlink:href="#DejaVuSans-30" x="127.246094"/>
       <use xlink:href="#DejaVuSans-30" x="190.869141"/>
      </g>
     </g>
    </g>
    <g id="ytick_7">
     <g id="line2d_14">
      <g>
       <use xlink:href="#m99c0787de9" x="57.6" y="61.65897" style="stroke: #000000; stroke-width: 0.8"/>
      </g>
     </g>
     <g id="text_15">
      <!-- 1150 -->
      <g transform="translate(25.15 65.458189)scale(0.1 -0.1)">
       <use xlink:href="#DejaVuSans-31"/>
       <use xlink:href="#DejaVuSans-31" x="63.623047"/>
       <use xlink:href="#DejaVuSans-35" x="127.246094"/>
       <use xlink:href="#DejaVuSans-30" x="190.869141"/>
      </g>
     </g>
    </g>
    <g id="text_16">
     <!-- total cost -->
     <g transform="translate(19.070312 197.923313)rotate(-90)scale(0.1 -0.1)">
      <defs>
       <path id="DejaVuSans-74" d="M 1172 4494 
L 1172 3500 
L 2356 3500 
L 2356 3053 
L 1172 3053 
L 1172 1153 
Q 1172 725 1289 603 
Q 1406 481 1766 481 
L 2356 481 
L 2356 0 
L 1766 0 
Q 1100 0 847 248 
Q 594 497 594 1153 
L 594 3053 
L 172 3053 
L 172 3500 
L 594 3500 
L 594 4494 
L 1172 4494 
z
" transform="scale(0.015625)"/>
       <path id="DejaVuSans-6f" d="M 1959 3097 
Q 1497 3097 1228 2736 
Q 959 2375 959 1747 
Q 959 1119 1226 758 
Q 1494 397 1959 397 
Q 2419 397 2687 759 
Q 2956 1122 2956 1747 
Q 2956 2369 2687 2733 
Q 2419 3097 1959 3097 
z
M 1959 3584 
Q 2709 3584 3137 3096 
Q 3566 2609 3566 1747 
Q 3566 888 3137 398 
Q 2709 -91 1959 -91 
Q 1206 -91 779 398 
Q 353 888 353 1747 
Q 353 2609 779 3096 
Q 1206 3584 1959 3584 
z
" transform="scale(0.015625)"/>
       <path id="DejaVuSans-6c" d="M 603 4863 
L 1178 4863 
L 1178 0 
L 603 0 
L 603 4863 
z
" transform="scale(0.015625)"/>
       <path id="DejaVuSans-63" d="M 3122 3366 
L 3122 2828 
Q 2878 2963 2633 3030 
Q 2388 3097 2138 3097 
Q 1578 3097 1268 2742 
Q 959 2388 959 1747 
Q 959 1106 1268 751 
Q 1578 397 2138 397 
Q 2388 397 2633 464 
Q 2878 531 3122 666 
L 3122 134 
Q 2881 22 2623 -34 
Q 2366 -91 2075 -91 
Q 1284 -91 818 406 
Q 353 903 353 1747 
Q 353 2603 823 3093 
Q 1294 3584 2113 3584 
Q 2378 3584 2631 3529 
Q 2884 3475 3122 3366 
z
" transform="scale(0.015625)"/>
      </defs>
      <use xlink:href="#DejaVuSans-74"/>
      <use xlink:href="#DejaVuSans-6f" x="39.208984"/>
      <use xlink:href="#DejaVuSans-74" x="100.390625"/>
      <use xlink:href="#DejaVuSans-61" x="139.599609"/>
      <use xlink:href="#DejaVuSans-6c" x="200.878906"/>
      <use xlink:href="#DejaVuSans-20" x="228.662109"/>
      <use xlink:href="#DejaVuSans-63" x="260.449219"/>
      <use xlink:href="#DejaVuSans-6f" x="315.429688"/>
      <use xlink:href="#DejaVuSans-73" x="376.611328"/>
      <use xlink:href="#DejaVuSans-74" x="428.710938"/>
     </g>
    </g>
   </g>
   <g id="line2d_15">
    <path d="M 73.832727 104.54111 
L 74.387692 122.341244 
L 74.942657 130.432214 
L 75.497622 101.304722 
L 76.052587 113.441177 
L 76.607552 120.72305 
L 77.162517 131.241311 
L 77.717483 107.777498 
L 78.272448 119.913953 
L 78.827413 123.150341 
L 79.382378 115.868468 
L 79.937343 123.959438 
L 81.047273 170.077967 
L 81.602238 137.714087 
L 82.157203 154.705124 
L 82.712168 162.796094 
L 83.822098 146.614154 
L 84.377063 128.81402 
L 84.932028 131.241311 
L 85.486993 157.132415 
L 86.041958 161.986997 
L 86.596923 121.532147 
L 87.151888 137.714087 
L 87.706853 110.204789 
L 88.261818 105.350207 
L 88.816783 53.568 
L 89.371748 79.459104 
L 89.926713 71.368134 
L 90.481678 72.986328 
L 91.036643 81.077298 
L 91.591608 84.313686 
L 92.146573 102.113819 
L 92.701538 100.495625 
L 93.256503 118.295759 
L 93.811469 152.277833 
L 94.366434 131.241311 
L 94.921399 123.150341 
L 95.476364 98.877431 
L 96.031329 126.386729 
L 96.586294 127.195826 
L 97.141259 122.341244 
L 97.696224 114.250274 
L 98.251189 173.314355 
L 98.806154 174.123452 
L 99.361119 202.441846 
L 99.916084 170.887064 
L 100.471049 174.123452 
L 101.026014 131.241311 
L 101.580979 136.095893 
L 102.135944 153.896027 
L 102.690909 161.986997 
L 103.245874 174.123452 
L 103.800839 140.141378 
L 104.355804 152.277833 
L 104.910769 153.896027 
L 105.465734 160.368803 
L 106.020699 153.896027 
L 106.575664 178.168936 
L 107.130629 150.659639 
L 107.685594 147.423251 
L 108.240559 164.414288 
L 108.795524 162.796094 
L 109.35049 141.759572 
L 109.905455 127.195826 
L 110.46042 141.759572 
L 111.015385 113.441177 
L 111.57035 114.250274 
L 112.68028 165.223385 
L 113.235245 157.941512 
L 113.79021 156.323318 
L 114.345175 133.668602 
L 114.90014 149.850542 
L 115.455105 132.859505 
L 116.01007 139.332281 
L 116.565035 110.204789 
L 117.12 127.195826 
L 117.674965 117.486662 
L 118.22993 110.204789 
L 118.784895 105.350207 
L 119.33986 86.740977 
L 119.894825 83.504589 
L 120.44979 115.868468 
L 121.004755 98.877431 
L 121.55972 105.350207 
L 122.114685 102.113819 
L 122.66965 101.304722 
L 123.224615 111.013886 
L 123.77958 108.586595 
L 124.334545 123.959438 
L 124.88951 127.195826 
L 125.444476 121.532147 
L 125.999441 126.386729 
L 127.109371 112.63208 
L 127.664336 117.486662 
L 128.219301 106.968401 
L 128.774266 123.150341 
L 129.329231 121.532147 
L 129.884196 107.777498 
L 130.439161 125.577632 
L 130.994126 121.532147 
L 131.549091 119.104856 
L 132.104056 105.350207 
L 132.659021 131.241311 
L 133.213986 129.623117 
L 133.768951 112.63208 
L 134.323916 118.295759 
L 134.878881 111.822983 
L 135.433846 126.386729 
L 135.988811 119.913953 
L 136.543776 115.059371 
L 137.098741 119.913953 
L 137.653706 111.013886 
L 138.208671 115.059371 
L 138.763636 83.504589 
L 139.318601 98.068334 
L 139.873566 106.968401 
L 140.428531 107.777498 
L 140.983497 119.104856 
L 141.538462 125.577632 
L 142.093427 166.841579 
L 142.648392 198.396361 
L 143.203357 271.21509 
L 143.758322 275.260575 
L 144.313287 260.696829 
L 144.868252 231.569338 
L 145.423217 213.769204 
L 146.533147 194.350876 
L 147.088112 166.032482 
L 147.643077 169.26887 
L 148.198042 178.978033 
L 148.753007 177.359839 
L 149.307972 193.541779 
L 149.862937 188.687197 
L 150.417902 189.496294 
L 151.527832 189.496294 
L 152.082797 170.887064 
L 152.637762 177.359839 
L 153.192727 170.887064 
L 153.747692 175.741645 
L 154.302657 166.841579 
L 154.857622 200.823652 
L 155.412587 200.014555 
L 155.967552 233.996629 
L 156.522517 229.951144 
L 157.077483 262.315023 
L 157.632448 262.315023 
L 158.187413 263.12412 
L 158.742378 285.778836 
L 159.297343 274.451478 
L 159.852308 242.087599 
L 160.407273 247.751278 
L 160.962238 246.942181 
L 161.517203 221.860174 
L 162.072168 215.387398 
L 162.627133 219.432883 
L 163.182098 238.851211 
L 163.737063 240.469405 
L 164.292028 209.723719 
L 164.846993 233.996629 
L 165.401958 246.133084 
L 166.511888 284.969739 
L 167.066853 282.542448 
L 167.621818 243.705793 
L 168.176783 243.705793 
L 168.731748 209.723719 
L 169.286713 221.051077 
L 169.841678 202.441846 
L 170.396643 204.06004 
L 170.951608 208.914622 
L 172.061538 208.914622 
L 172.616503 193.541779 
L 173.171469 172.505258 
L 173.726434 175.741645 
L 174.281399 181.405324 
L 174.836364 189.496294 
L 175.391329 233.996629 
L 175.946294 230.760241 
L 176.501259 226.714756 
L 177.056224 217.814689 
L 177.611189 206.487331 
L 178.721119 163.605191 
L 179.276084 157.132415 
L 179.831049 171.696161 
L 180.386014 164.414288 
L 180.940979 177.359839 
L 181.495944 166.032482 
L 182.050909 161.986997 
L 182.605874 172.505258 
L 183.160839 170.887064 
L 183.715804 185.450809 
L 184.270769 174.932548 
L 184.825734 148.232348 
L 185.380699 138.523184 
L 185.935664 102.922916 
L 186.490629 149.041445 
L 187.045594 167.650676 
L 187.600559 166.032482 
L 188.155524 182.214421 
L 188.71049 190.305391 
L 189.265455 232.378435 
L 189.82042 209.723719 
L 190.375385 240.469405 
L 190.93035 226.714756 
L 191.485315 221.860174 
L 192.04028 223.478368 
L 192.595245 231.569338 
L 193.15021 191.114488 
L 193.705175 212.960107 
L 194.26014 206.487331 
L 194.815105 249.369472 
L 195.37007 262.315023 
L 195.925035 232.378435 
L 196.48 234.805726 
L 197.034965 224.287465 
L 197.58993 219.432883 
L 198.144895 188.687197 
L 198.69986 191.114488 
L 199.254825 151.468736 
L 199.80979 146.614154 
L 200.364755 140.141378 
L 200.91972 135.286796 
L 201.474685 124.768535 
L 202.02965 130.432214 
L 202.584615 149.850542 
L 203.13958 149.041445 
L 203.694545 106.159304 
L 204.24951 174.932548 
L 204.804476 166.032482 
L 205.359441 140.950475 
L 205.914406 168.459773 
L 206.469371 181.405324 
L 207.024336 181.405324 
L 207.579301 225.905659 
L 208.134266 211.341913 
L 208.689231 209.723719 
L 209.244196 213.769204 
L 209.799161 223.478368 
L 210.354126 221.051077 
L 210.909091 194.350876 
L 211.464056 207.296428 
L 212.019021 186.259906 
L 212.573986 183.023518 
L 213.128951 183.023518 
L 213.683916 160.368803 
L 214.238881 177.359839 
L 215.348811 168.459773 
L 215.903776 176.550742 
L 216.458741 173.314355 
L 217.013706 167.650676 
L 217.568671 187.069003 
L 218.123636 187.8781 
L 218.678601 182.214421 
L 219.233566 169.26887 
L 219.788531 160.368803 
L 220.343497 187.8781 
L 220.898462 172.505258 
L 221.453427 161.1779 
L 222.008392 140.141378 
L 222.563357 128.81402 
L 223.118322 128.81402 
L 223.673287 132.859505 
L 224.228252 140.950475 
L 224.783217 170.077967 
L 225.338182 168.459773 
L 225.893147 190.305391 
L 226.448112 178.168936 
L 227.003077 185.450809 
L 227.558042 198.396361 
L 228.113007 189.496294 
L 229.222937 196.778167 
L 229.777902 197.587264 
L 230.332867 196.778167 
L 231.442797 178.978033 
L 231.997762 186.259906 
L 232.552727 189.496294 
L 233.107692 191.923585 
L 233.662657 184.641712 
L 234.217622 195.159973 
L 234.772587 163.605191 
L 235.327552 169.26887 
L 235.882517 160.368803 
L 236.437483 204.06004 
L 236.992448 190.305391 
L 237.547413 188.687197 
L 238.102378 225.096562 
L 238.657343 200.823652 
L 239.212308 215.387398 
L 239.767273 191.114488 
L 240.322238 212.960107 
L 240.877203 212.960107 
L 241.432168 210.532816 
L 241.987133 229.951144 
L 242.542098 222.669271 
L 243.097063 209.723719 
L 243.652028 221.051077 
L 244.761958 257.460441 
L 245.316923 251.796763 
L 245.871888 250.178569 
L 246.426853 246.133084 
L 246.981818 248.560375 
L 247.536783 211.341913 
L 248.091748 214.578301 
L 248.646713 195.159973 
L 249.201678 188.687197 
L 249.756643 196.778167 
L 250.311608 217.814689 
L 250.866573 209.723719 
L 251.421538 205.678234 
L 251.976503 195.96907 
L 252.531469 201.632749 
L 253.086434 181.405324 
L 253.641399 190.305391 
L 254.196364 194.350876 
L 254.751329 205.678234 
L 255.306294 207.296428 
L 255.861259 206.487331 
L 256.416224 206.487331 
L 256.971189 183.832615 
L 257.526154 185.450809 
L 258.081119 181.405324 
L 258.636084 210.532816 
L 259.746014 189.496294 
L 260.300979 194.350876 
L 260.855944 214.578301 
L 261.410909 200.823652 
L 261.965874 205.678234 
L 262.520839 220.24198 
L 263.075804 205.678234 
L 263.630769 217.005592 
L 264.185734 200.823652 
L 264.740699 204.869137 
L 265.295664 217.814689 
L 265.850629 221.860174 
L 266.405594 223.478368 
L 266.960559 224.287465 
L 267.515524 255.842247 
L 268.07049 254.224054 
L 268.625455 240.469405 
L 269.18042 212.15101 
L 269.735385 195.159973 
L 270.29035 183.832615 
L 270.845315 183.023518 
L 271.40028 211.341913 
L 271.955245 178.978033 
L 272.51021 164.414288 
L 273.065175 182.214421 
L 273.62014 204.06004 
L 274.175105 213.769204 
L 274.73007 193.541779 
L 275.285035 197.587264 
L 275.84 170.887064 
L 276.394965 195.159973 
L 276.94993 183.023518 
L 277.504895 177.359839 
L 278.05986 195.159973 
L 278.614825 187.069003 
L 279.16979 169.26887 
L 279.724755 183.832615 
L 280.27972 179.78713 
L 280.834685 174.123452 
L 281.38965 161.986997 
L 281.944615 195.159973 
L 282.49958 195.96907 
L 283.054545 200.823652 
L 283.60951 187.069003 
L 284.164476 166.032482 
L 284.719441 178.168936 
L 285.274406 195.159973 
L 285.829371 198.396361 
L 286.384336 195.96907 
L 287.494266 185.450809 
L 288.049231 186.259906 
L 288.604196 205.678234 
L 289.159161 209.723719 
L 289.714126 211.341913 
L 290.269091 208.105525 
L 290.824056 193.541779 
L 291.379021 201.632749 
L 291.933986 195.96907 
L 292.488951 197.587264 
L 293.043916 206.487331 
L 293.598881 208.914622 
L 294.153846 229.951144 
L 294.708811 245.323987 
L 295.263776 232.378435 
L 295.818741 235.614823 
L 296.373706 195.159973 
L 296.928671 195.159973 
L 297.483636 175.741645 
L 298.038601 180.596227 
L 298.593566 166.032482 
L 299.148531 194.350876 
L 299.703497 179.78713 
L 300.258462 177.359839 
L 301.368392 216.196495 
L 301.923357 225.905659 
L 302.478322 209.723719 
L 303.033287 197.587264 
L 303.588252 200.823652 
L 304.143217 171.696161 
L 304.698182 191.114488 
L 305.253147 176.550742 
L 305.808112 178.978033 
L 306.363077 189.496294 
L 306.918042 181.405324 
L 307.473007 166.032482 
L 308.027972 187.069003 
L 308.582937 183.832615 
L 309.137902 178.978033 
L 309.692867 180.596227 
L 310.247832 189.496294 
L 310.802797 189.496294 
L 311.357762 198.396361 
L 311.912727 191.114488 
L 312.467692 189.496294 
L 313.022657 173.314355 
L 314.132587 166.841579 
L 314.687552 174.932548 
L 315.242517 178.168936 
L 315.797483 170.077967 
L 316.352448 173.314355 
L 316.907413 173.314355 
L 318.017343 170.077967 
L 318.572308 194.350876 
L 319.127273 185.450809 
L 319.682238 181.405324 
L 320.237203 183.832615 
L 320.792168 182.214421 
L 321.347133 190.305391 
L 321.902098 225.905659 
L 322.457063 223.478368 
L 323.012028 233.187532 
L 323.566993 218.623786 
L 324.121958 195.159973 
L 324.676923 178.978033 
L 325.231888 175.741645 
L 325.786853 173.314355 
L 326.341818 157.941512 
L 326.896783 152.277833 
L 328.006713 170.887064 
L 328.561678 159.559706 
L 329.116643 174.123452 
L 329.671608 178.978033 
L 330.226573 197.587264 
L 330.781538 191.114488 
L 331.891469 206.487331 
L 332.446434 218.623786 
L 333.001399 208.914622 
L 333.556364 222.669271 
L 334.111329 221.051077 
L 334.666294 211.341913 
L 335.221259 226.714756 
L 336.331189 240.469405 
L 336.886154 241.278502 
L 337.441119 228.33295 
L 337.996084 225.905659 
L 338.551049 167.650676 
L 339.106014 174.932548 
L 339.660979 184.641712 
L 340.215944 215.387398 
L 340.770909 228.33295 
L 341.880839 228.33295 
L 342.435804 237.233017 
L 342.990769 203.250943 
L 343.545734 212.960107 
L 344.100699 220.24198 
L 344.655664 199.205458 
L 345.210629 210.532816 
L 345.765594 202.441846 
L 346.320559 244.51489 
L 347.43049 255.842247 
L 347.985455 258.269538 
L 348.54042 248.560375 
L 349.095385 224.287465 
L 349.65035 207.296428 
L 350.205315 199.205458 
L 350.76028 207.296428 
L 351.315245 200.823652 
L 351.87021 181.405324 
L 352.425175 179.78713 
L 352.98014 197.587264 
L 353.535105 182.214421 
L 354.09007 174.123452 
L 354.645035 194.350876 
L 355.2 194.350876 
L 355.754965 186.259906 
L 356.30993 202.441846 
L 356.864895 207.296428 
L 357.41986 209.723719 
L 357.974825 223.478368 
L 358.52979 224.287465 
L 359.084755 219.432883 
L 359.63972 230.760241 
L 360.194685 228.33295 
L 360.74965 245.323987 
L 361.304615 246.942181 
L 361.85958 262.315023 
L 362.414545 255.842247 
L 362.96951 261.505926 
L 363.524476 268.787799 
L 364.079441 272.833284 
L 364.634406 261.505926 
L 365.189371 253.414957 
L 365.744336 227.523853 
L 366.299301 229.142047 
L 366.854266 238.042114 
L 367.409231 229.951144 
L 367.964196 239.660308 
L 368.519161 238.042114 
L 369.074126 238.851211 
L 369.629091 259.078635 
L 370.184056 258.269538 
L 370.739021 250.987666 
L 371.293986 250.987666 
L 371.848951 255.033151 
L 372.403916 272.833284 
L 372.958881 263.12412 
L 373.513846 278.496963 
L 374.068811 262.315023 
L 374.623776 263.12412 
L 375.178741 252.60586 
L 375.733706 250.178569 
L 376.288671 255.842247 
L 376.843636 255.033151 
L 377.398601 246.942181 
L 377.953566 258.269538 
L 378.508531 259.887732 
L 379.063497 277.687866 
L 379.618462 284.160642 
L 380.173427 272.833284 
L 380.728392 290.633418 
L 381.283357 295.488 
L 381.838322 292.251612 
L 382.393287 264.742314 
L 383.503217 243.705793 
L 384.613147 218.623786 
L 385.168112 215.387398 
L 385.723077 195.96907 
L 386.278042 191.923585 
L 386.833007 183.832615 
L 387.387972 179.78713 
L 387.942937 169.26887 
L 388.497902 202.441846 
L 389.607832 230.760241 
L 390.162797 238.042114 
L 390.717762 240.469405 
L 391.272727 254.224054 
L 391.827692 250.987666 
L 392.382657 261.505926 
L 392.937622 266.360508 
L 393.492587 253.414957 
L 394.047552 271.21509 
L 394.602517 267.169605 
L 395.157483 268.787799 
L 395.712448 265.551411 
L 396.267413 229.951144 
L 397.377343 209.723719 
L 397.932308 210.532816 
L 398.487273 216.196495 
L 398.487273 216.196495 
" clip-path="url(#p23289f5007)" style="fill: none; stroke: #1f77b4; stroke-width: 1.5; stroke-linecap: square"/>
   </g>
   <g id="patch_3">
    <path d="M 57.6 307.584 
L 57.6 41.472 
" style="fill: none; stroke: #000000; stroke-width: 0.8; stroke-linejoin: miter; stroke-linecap: square"/>
   </g>
   <g id="patch_4">
    <path d="M 414.72 307.584 
L 414.72 41.472 
" style="fill: none; stroke: #000000; stroke-width: 0.8; stroke-linejoin: miter; stroke-linecap: square"/>
   </g>
   <g id="patch_5">
    <path d="M 57.6 307.584 
L 414.72 307.584 
" style="fill: none; stroke: #000000; stroke-width: 0.8; stroke-linejoin: miter; stroke-linecap: square"/>
   </g>
   <g id="patch_6">
    <path d="M 57.6 41.472 
L 414.72 41.472 
" style="fill: none; stroke: #000000; stroke-width: 0.8; stroke-linejoin: miter; stroke-linecap: square"/>
   </g>
   <g id="text_17">
    <!-- Simulated Anealling Cost -->
    <g transform="translate(160.8 35.472)scale(0.12 -0.12)">
     <defs>
      <path id="DejaVuSans-53" d="M 3425 4513 
L 3425 3897 
Q 3066 4069 2747 4153 
Q 2428 4238 2131 4238 
Q 1616 4238 1336 4038 
Q 1056 3838 1056 3469 
Q 1056 3159 1242 3001 
Q 1428 2844 1947 2747 
L 2328 2669 
Q 3034 2534 3370 2195 
Q 3706 1856 3706 1288 
Q 3706 609 3251 259 
Q 2797 -91 1919 -91 
Q 1588 -91 1214 -16 
Q 841 59 441 206 
L 441 856 
Q 825 641 1194 531 
Q 1563 422 1919 422 
Q 2459 422 2753 634 
Q 3047 847 3047 1241 
Q 3047 1584 2836 1778 
Q 2625 1972 2144 2069 
L 1759 2144 
Q 1053 2284 737 2584 
Q 422 2884 422 3419 
Q 422 4038 858 4394 
Q 1294 4750 2059 4750 
Q 2388 4750 2728 4690 
Q 3069 4631 3425 4513 
z
" transform="scale(0.015625)"/>
      <path id="DejaVuSans-69" d="M 603 3500 
L 1178 3500 
L 1178 0 
L 603 0 
L 603 3500 
z
M 603 4863 
L 1178 4863 
L 1178 4134 
L 603 4134 
L 603 4863 
z
" transform="scale(0.015625)"/>
      <path id="DejaVuSans-65" d="M 3597 1894 
L 3597 1613 
L 953 1613 
Q 991 1019 1311 708 
Q 1631 397 2203 397 
Q 2534 397 2845 478 
Q 3156 559 3463 722 
L 3463 178 
Q 3153 47 2828 -22 
Q 2503 -91 2169 -91 
Q 1331 -91 842 396 
Q 353 884 353 1716 
Q 353 2575 817 3079 
Q 1281 3584 2069 3584 
Q 2775 3584 3186 3129 
Q 3597 2675 3597 1894 
z
M 3022 2063 
Q 3016 2534 2758 2815 
Q 2500 3097 2075 3097 
Q 1594 3097 1305 2825 
Q 1016 2553 972 2059 
L 3022 2063 
z
" transform="scale(0.015625)"/>
      <path id="DejaVuSans-64" d="M 2906 2969 
L 2906 4863 
L 3481 4863 
L 3481 0 
L 2906 0 
L 2906 525 
Q 2725 213 2448 61 
Q 2172 -91 1784 -91 
Q 1150 -91 751 415 
Q 353 922 353 1747 
Q 353 2572 751 3078 
Q 1150 3584 1784 3584 
Q 2172 3584 2448 3432 
Q 2725 3281 2906 2969 
z
M 947 1747 
Q 947 1113 1208 752 
Q 1469 391 1925 391 
Q 2381 391 2643 752 
Q 2906 1113 2906 1747 
Q 2906 2381 2643 2742 
Q 2381 3103 1925 3103 
Q 1469 3103 1208 2742 
Q 947 2381 947 1747 
z
" transform="scale(0.015625)"/>
      <path id="DejaVuSans-41" d="M 2188 4044 
L 1331 1722 
L 3047 1722 
L 2188 4044 
z
M 1831 4666 
L 2547 4666 
L 4325 0 
L 3669 0 
L 3244 1197 
L 1141 1197 
L 716 0 
L 50 0 
L 1831 4666 
z
" transform="scale(0.015625)"/>
      <path id="DejaVuSans-67" d="M 2906 1791 
Q 2906 2416 2648 2759 
Q 2391 3103 1925 3103 
Q 1463 3103 1205 2759 
Q 947 2416 947 1791 
Q 947 1169 1205 825 
Q 1463 481 1925 481 
Q 2391 481 2648 825 
Q 2906 1169 2906 1791 
z
M 3481 434 
Q 3481 -459 3084 -895 
Q 2688 -1331 1869 -1331 
Q 1566 -1331 1297 -1286 
Q 1028 -1241 775 -1147 
L 775 -588 
Q 1028 -725 1275 -790 
Q 1522 -856 1778 -856 
Q 2344 -856 2625 -561 
Q 2906 -266 2906 331 
L 2906 616 
Q 2728 306 2450 153 
Q 2172 0 1784 0 
Q 1141 0 747 490 
Q 353 981 353 1791 
Q 353 2603 747 3093 
Q 1141 3584 1784 3584 
Q 2172 3584 2450 3431 
Q 2728 3278 2906 2969 
L 2906 3500 
L 3481 3500 
L 3481 434 
z
" transform="scale(0.015625)"/>
      <path id="DejaVuSans-43" d="M 4122 4306 
L 4122 3641 
Q 3803 3938 3442 4084 
Q 3081 4231 2675 4231 
Q 1875 4231 1450 3742 
Q 1025 3253 1025 2328 
Q 1025 1406 1450 917 
Q 1875 428 2675 428 
Q 3081 428 3442 575 
Q 3803 722 4122 1019 
L 4122 359 
Q 3791 134 3420 21 
Q 3050 -91 2638 -91 
Q 1578 -91 968 557 
Q 359 1206 359 2328 
Q 359 3453 968 4101 
Q 1578 4750 2638 4750 
Q 3056 4750 3426 4639 
Q 3797 4528 4122 4306 
z
" transform="scale(0.015625)"/>
     </defs>
     <use xlink:href="#DejaVuSans-53"/>
     <use xlink:href="#DejaVuSans-69" x="63.476562"/>
     <use xlink:href="#DejaVuSans-6d" x="91.259766"/>
     <use xlink:href="#DejaVuSans-75" x="188.671875"/>
     <use xlink:href="#DejaVuSans-6c" x="252.050781"/>
     <use xlink:href="#DejaVuSans-61" x="279.833984"/>
     <use xlink:href="#DejaVuSans-74" x="341.113281"/>
     <use xlink:href="#DejaVuSans-65" x="380.322266"/>
     <use xlink:href="#DejaVuSans-64" x="441.845703"/>
     <use xlink:href="#DejaVuSans-20" x="505.322266"/>
     <use xlink:href="#DejaVuSans-41" x="537.109375"/>
     <use xlink:href="#DejaVuSans-6e" x="605.517578"/>
     <use xlink:href="#DejaVuSans-65" x="668.896484"/>
     <use xlink:href="#DejaVuSans-61" x="730.419922"/>
     <use xlink:href="#DejaVuSans-6c" x="791.699219"/>
     <use xlink:href="#DejaVuSans-6c" x="819.482422"/>
     <use xlink:href="#DejaVuSans-69" x="847.265625"/>
     <use xlink:href="#DejaVuSans-6e" x="875.048828"/>
     <use xlink:href="#DejaVuSans-67" x="938.427734"/>
     <use xlink:href="#DejaVuSans-20" x="1001.904297"/>
     <use xlink:href="#DejaVuSans-43" x="1033.691406"/>
     <use xlink:href="#DejaVuSans-6f" x="1103.515625"/>
     <use xlink:href="#DejaVuSans-73" x="1164.697266"/>
     <use xlink:href="#DejaVuSans-74" x="1216.796875"/>
    </g>
   </g>
  </g>
 </g>
 <defs>
  <clipPath id="p23289f5007">
   <rect x="57.6" y="41.472" width="357.12" height="266.112"/>
  </clipPath>
 </defs>
</svg>
