<?xml version="1.0" encoding="utf-8" standalone="no"?>
<!DOCTYPE svg PUBLIC "-//W3C//DTD SVG 1.1//EN"
  "http://www.w3.org/Graphics/SVG/1.1/DTD/svg11.dtd">
<svg xmlns:xlink="http://www.w3.org/1999/xlink" width="460.8pt" height="345.6pt" viewBox="0 0 460.8 345.6" xmlns="http://www.w3.org/2000/svg" version="1.1">
 <metadata>
  <rdf:RDF xmlns:dc="http://purl.org/dc/elements/1.1/" xmlns:cc="http://creativecommons.org/ns#" xmlns:rdf="http://www.w3.org/1999/02/22-rdf-syntax-ns#">
   <cc:Work>
    <dc:type rdf:resource="http://purl.org/dc/dcmitype/StillImage"/>
    <dc:date>2022-06-01T08:06:37.434183</dc:date>
    <dc:format>image/svg+xml</dc:format>
    <dc:creator>
     <cc:Agent>
      <dc:title>Matplotlib v3.5.1, https://matplotlib.org/</dc:title>
     </cc:Agent>
    </dc:creator>
   </cc:Work>
  </rdf:RDF>
 </metadata>
 <defs>
  <style type="text/css">*{stroke-linejoin: round; stroke-linecap: butt}</style>
 </defs>
 <g id="figure_1">
  <g id="patch_1">
   <path d="M 0 345.6 
L 460.8 345.6 
L 460.8 0 
L 0 0 
z
" style="fill: #ffffff"/>
  </g>
  <g id="axes_1">
   <g id="patch_2">
    <path d="M 57.6 307.584 
L 414.72 307.584 
L 414.72 41.472 
L 57.6 41.472 
z
" style="fill: #ffffff"/>
   </g>
   <g id="matplotlib.axis_1">
    <g id="xtick_1">
     <g id="line2d_1">
      <defs>
       <path id="m97de2aeb38" d="M 0 0 
L 0 3.5 
" style="stroke: #000000; stroke-width: 0.8"/>
      </defs>
      <g>
       <use xlink:href="#m97de2aeb38" x="73.832727" y="307.584" style="stroke: #000000; stroke-width: 0.8"/>
      </g>
     </g>
     <g id="text_1">
      <!-- 0 -->
      <g transform="translate(70.651477 322.182437)scale(0.1 -0.1)">
       <defs>
        <path id="DejaVuSans-30" d="M 2034 4250 
Q 1547 4250 1301 3770 
Q 1056 3291 1056 2328 
Q 1056 1369 1301 889 
Q 1547 409 2034 409 
Q 2525 409 2770 889 
Q 3016 1369 3016 2328 
Q 3016 3291 2770 3770 
Q 2525 4250 2034 4250 
z
M 2034 4750 
Q 2819 4750 3233 4129 
Q 3647 3509 3647 2328 
Q 3647 1150 3233 529 
Q 2819 -91 2034 -91 
Q 1250 -91 836 529 
Q 422 1150 422 2328 
Q 422 3509 836 4129 
Q 1250 4750 2034 4750 
z
" transform="scale(0.015625)"/>
       </defs>
       <use xlink:href="#DejaVuSans-30"/>
      </g>
     </g>
    </g>
    <g id="xtick_2">
     <g id="line2d_2">
      <g>
       <use xlink:href="#m97de2aeb38" x="148.984242" y="307.584" style="stroke: #000000; stroke-width: 0.8"/>
      </g>
     </g>
     <g id="text_2">
      <!-- 500 -->
      <g transform="translate(139.440492 322.182437)scale(0.1 -0.1)">
       <defs>
        <path id="DejaVuSans-35" d="M 691 4666 
L 3169 4666 
L 3169 4134 
L 1269 4134 
L 1269 2991 
Q 1406 3038 1543 3061 
Q 1681 3084 1819 3084 
Q 2600 3084 3056 2656 
Q 3513 2228 3513 1497 
Q 3513 744 3044 326 
Q 2575 -91 1722 -91 
Q 1428 -91 1123 -41 
Q 819 9 494 109 
L 494 744 
Q 775 591 1075 516 
Q 1375 441 1709 441 
Q 2250 441 2565 725 
Q 2881 1009 2881 1497 
Q 2881 1984 2565 2268 
Q 2250 2553 1709 2553 
Q 1456 2553 1204 2497 
Q 953 2441 691 2322 
L 691 4666 
z
" transform="scale(0.015625)"/>
       </defs>
       <use xlink:href="#DejaVuSans-35"/>
       <use xlink:href="#DejaVuSans-30" x="63.623047"/>
       <use xlink:href="#DejaVuSans-30" x="127.246094"/>
      </g>
     </g>
    </g>
    <g id="xtick_3">
     <g id="line2d_3">
      <g>
       <use xlink:href="#m97de2aeb38" x="224.135758" y="307.584" style="stroke: #000000; stroke-width: 0.8"/>
      </g>
     </g>
     <g id="text_3">
      <!-- 1000 -->
      <g transform="translate(211.410758 322.182437)scale(0.1 -0.1)">
       <defs>
        <path id="DejaVuSans-31" d="M 794 531 
L 1825 531 
L 1825 4091 
L 703 3866 
L 703 4441 
L 1819 4666 
L 2450 4666 
L 2450 531 
L 3481 531 
L 3481 0 
L 794 0 
L 794 531 
z
" transform="scale(0.015625)"/>
       </defs>
       <use xlink:href="#DejaVuSans-31"/>
       <use xlink:href="#DejaVuSans-30" x="63.623047"/>
       <use xlink:href="#DejaVuSans-30" x="127.246094"/>
       <use xlink:href="#DejaVuSans-30" x="190.869141"/>
      </g>
     </g>
    </g>
    <g id="xtick_4">
     <g id="line2d_4">
      <g>
       <use xlink:href="#m97de2aeb38" x="299.287273" y="307.584" style="stroke: #000000; stroke-width: 0.8"/>
      </g>
     </g>
     <g id="text_4">
      <!-- 1500 -->
      <g transform="translate(286.562273 322.182437)scale(0.1 -0.1)">
       <use xlink:href="#DejaVuSans-31"/>
       <use xlink:href="#DejaVuSans-35" x="63.623047"/>
       <use xlink:href="#DejaVuSans-30" x="127.246094"/>
       <use xlink:href="#DejaVuSans-30" x="190.869141"/>
      </g>
     </g>
    </g>
    <g id="xtick_5">
     <g id="line2d_5">
      <g>
       <use xlink:href="#m97de2aeb38" x="374.438788" y="307.584" style="stroke: #000000; stroke-width: 0.8"/>
      </g>
     </g>
     <g id="text_5">
      <!-- 2000 -->
      <g transform="translate(361.713788 322.182437)scale(0.1 -0.1)">
       <defs>
        <path id="DejaVuSans-32" d="M 1228 531 
L 3431 531 
L 3431 0 
L 469 0 
L 469 531 
Q 828 903 1448 1529 
Q 2069 2156 2228 2338 
Q 2531 2678 2651 2914 
Q 2772 3150 2772 3378 
Q 2772 3750 2511 3984 
Q 2250 4219 1831 4219 
Q 1534 4219 1204 4116 
Q 875 4013 500 3803 
L 500 4441 
Q 881 4594 1212 4672 
Q 1544 4750 1819 4750 
Q 2544 4750 2975 4387 
Q 3406 4025 3406 3419 
Q 3406 3131 3298 2873 
Q 3191 2616 2906 2266 
Q 2828 2175 2409 1742 
Q 1991 1309 1228 531 
z
" transform="scale(0.015625)"/>
       </defs>
       <use xlink:href="#DejaVuSans-32"/>
       <use xlink:href="#DejaVuSans-30" x="63.623047"/>
       <use xlink:href="#DejaVuSans-30" x="127.246094"/>
       <use xlink:href="#DejaVuSans-30" x="190.869141"/>
      </g>
     </g>
    </g>
    <g id="text_6">
     <!-- num swaps -->
     <g transform="translate(207.826406 335.860562)scale(0.1 -0.1)">
      <defs>
       <path id="DejaVuSans-6e" d="M 3513 2113 
L 3513 0 
L 2938 0 
L 2938 2094 
Q 2938 2591 2744 2837 
Q 2550 3084 2163 3084 
Q 1697 3084 1428 2787 
Q 1159 2491 1159 1978 
L 1159 0 
L 581 0 
L 581 3500 
L 1159 3500 
L 1159 2956 
Q 1366 3272 1645 3428 
Q 1925 3584 2291 3584 
Q 2894 3584 3203 3211 
Q 3513 2838 3513 2113 
z
" transform="scale(0.015625)"/>
       <path id="DejaVuSans-75" d="M 544 1381 
L 544 3500 
L 1119 3500 
L 1119 1403 
Q 1119 906 1312 657 
Q 1506 409 1894 409 
Q 2359 409 2629 706 
Q 2900 1003 2900 1516 
L 2900 3500 
L 3475 3500 
L 3475 0 
L 2900 0 
L 2900 538 
Q 2691 219 2414 64 
Q 2138 -91 1772 -91 
Q 1169 -91 856 284 
Q 544 659 544 1381 
z
M 1991 3584 
L 1991 3584 
z
" transform="scale(0.015625)"/>
       <path id="DejaVuSans-6d" d="M 3328 2828 
Q 3544 3216 3844 3400 
Q 4144 3584 4550 3584 
Q 5097 3584 5394 3201 
Q 5691 2819 5691 2113 
L 5691 0 
L 5113 0 
L 5113 2094 
Q 5113 2597 4934 2840 
Q 4756 3084 4391 3084 
Q 3944 3084 3684 2787 
Q 3425 2491 3425 1978 
L 3425 0 
L 2847 0 
L 2847 2094 
Q 2847 2600 2669 2842 
Q 2491 3084 2119 3084 
Q 1678 3084 1418 2786 
Q 1159 2488 1159 1978 
L 1159 0 
L 581 0 
L 581 3500 
L 1159 3500 
L 1159 2956 
Q 1356 3278 1631 3431 
Q 1906 3584 2284 3584 
Q 2666 3584 2933 3390 
Q 3200 3197 3328 2828 
z
" transform="scale(0.015625)"/>
       <path id="DejaVuSans-20" transform="scale(0.015625)"/>
       <path id="DejaVuSans-73" d="M 2834 3397 
L 2834 2853 
Q 2591 2978 2328 3040 
Q 2066 3103 1784 3103 
Q 1356 3103 1142 2972 
Q 928 2841 928 2578 
Q 928 2378 1081 2264 
Q 1234 2150 1697 2047 
L 1894 2003 
Q 2506 1872 2764 1633 
Q 3022 1394 3022 966 
Q 3022 478 2636 193 
Q 2250 -91 1575 -91 
Q 1294 -91 989 -36 
Q 684 19 347 128 
L 347 722 
Q 666 556 975 473 
Q 1284 391 1588 391 
Q 1994 391 2212 530 
Q 2431 669 2431 922 
Q 2431 1156 2273 1281 
Q 2116 1406 1581 1522 
L 1381 1569 
Q 847 1681 609 1914 
Q 372 2147 372 2553 
Q 372 3047 722 3315 
Q 1072 3584 1716 3584 
Q 2034 3584 2315 3537 
Q 2597 3491 2834 3397 
z
" transform="scale(0.015625)"/>
       <path id="DejaVuSans-77" d="M 269 3500 
L 844 3500 
L 1563 769 
L 2278 3500 
L 2956 3500 
L 3675 769 
L 4391 3500 
L 4966 3500 
L 4050 0 
L 3372 0 
L 2619 2869 
L 1863 0 
L 1184 0 
L 269 3500 
z
" transform="scale(0.015625)"/>
       <path id="DejaVuSans-61" d="M 2194 1759 
Q 1497 1759 1228 1600 
Q 959 1441 959 1056 
Q 959 750 1161 570 
Q 1363 391 1709 391 
Q 2188 391 2477 730 
Q 2766 1069 2766 1631 
L 2766 1759 
L 2194 1759 
z
M 3341 1997 
L 3341 0 
L 2766 0 
L 2766 531 
Q 2569 213 2275 61 
Q 1981 -91 1556 -91 
Q 1019 -91 701 211 
Q 384 513 384 1019 
Q 384 1609 779 1909 
Q 1175 2209 1959 2209 
L 2766 2209 
L 2766 2266 
Q 2766 2663 2505 2880 
Q 2244 3097 1772 3097 
Q 1472 3097 1187 3025 
Q 903 2953 641 2809 
L 641 3341 
Q 956 3463 1253 3523 
Q 1550 3584 1831 3584 
Q 2591 3584 2966 3190 
Q 3341 2797 3341 1997 
z
" transform="scale(0.015625)"/>
       <path id="DejaVuSans-70" d="M 1159 525 
L 1159 -1331 
L 581 -1331 
L 581 3500 
L 1159 3500 
L 1159 2969 
Q 1341 3281 1617 3432 
Q 1894 3584 2278 3584 
Q 2916 3584 3314 3078 
Q 3713 2572 3713 1747 
Q 3713 922 3314 415 
Q 2916 -91 2278 -91 
Q 1894 -91 1617 61 
Q 1341 213 1159 525 
z
M 3116 1747 
Q 3116 2381 2855 2742 
Q 2594 3103 2138 3103 
Q 1681 3103 1420 2742 
Q 1159 2381 1159 1747 
Q 1159 1113 1420 752 
Q 1681 391 2138 391 
Q 2594 391 2855 752 
Q 3116 1113 3116 1747 
z
" transform="scale(0.015625)"/>
      </defs>
      <use xlink:href="#DejaVuSans-6e"/>
      <use xlink:href="#DejaVuSans-75" x="63.378906"/>
      <use xlink:href="#DejaVuSans-6d" x="126.757812"/>
      <use xlink:href="#DejaVuSans-20" x="224.169922"/>
      <use xlink:href="#DejaVuSans-73" x="255.957031"/>
      <use xlink:href="#DejaVuSans-77" x="308.056641"/>
      <use xlink:href="#DejaVuSans-61" x="389.84375"/>
      <use xlink:href="#DejaVuSans-70" x="451.123047"/>
      <use xlink:href="#DejaVuSans-73" x="514.599609"/>
     </g>
    </g>
   </g>
   <g id="matplotlib.axis_2">
    <g id="ytick_1">
     <g id="line2d_6">
      <defs>
       <path id="m778e4fe544" d="M 0 0 
L -3.5 0 
" style="stroke: #000000; stroke-width: 0.8"/>
      </defs>
      <g>
       <use xlink:href="#m778e4fe544" x="57.6" y="292.941474" style="stroke: #000000; stroke-width: 0.8"/>
      </g>
     </g>
     <g id="text_7">
      <!-- 600 -->
      <g transform="translate(31.5125 296.740692)scale(0.1 -0.1)">
       <defs>
        <path id="DejaVuSans-36" d="M 2113 2584 
Q 1688 2584 1439 2293 
Q 1191 2003 1191 1497 
Q 1191 994 1439 701 
Q 1688 409 2113 409 
Q 2538 409 2786 701 
Q 3034 994 3034 1497 
Q 3034 2003 2786 2293 
Q 2538 2584 2113 2584 
z
M 3366 4563 
L 3366 3988 
Q 3128 4100 2886 4159 
Q 2644 4219 2406 4219 
Q 1781 4219 1451 3797 
Q 1122 3375 1075 2522 
Q 1259 2794 1537 2939 
Q 1816 3084 2150 3084 
Q 2853 3084 3261 2657 
Q 3669 2231 3669 1497 
Q 3669 778 3244 343 
Q 2819 -91 2113 -91 
Q 1303 -91 875 529 
Q 447 1150 447 2328 
Q 447 3434 972 4092 
Q 1497 4750 2381 4750 
Q 2619 4750 2861 4703 
Q 3103 4656 3366 4563 
z
" transform="scale(0.015625)"/>
       </defs>
       <use xlink:href="#DejaVuSans-36"/>
       <use xlink:href="#DejaVuSans-30" x="63.623047"/>
       <use xlink:href="#DejaVuSans-30" x="127.246094"/>
      </g>
     </g>
    </g>
    <g id="ytick_2">
     <g id="line2d_7">
      <g>
       <use xlink:href="#m778e4fe544" x="57.6" y="242.010947" style="stroke: #000000; stroke-width: 0.8"/>
      </g>
     </g>
     <g id="text_8">
      <!-- 620 -->
      <g transform="translate(31.5125 245.810166)scale(0.1 -0.1)">
       <use xlink:href="#DejaVuSans-36"/>
       <use xlink:href="#DejaVuSans-32" x="63.623047"/>
       <use xlink:href="#DejaVuSans-30" x="127.246094"/>
      </g>
     </g>
    </g>
    <g id="ytick_3">
     <g id="line2d_8">
      <g>
       <use xlink:href="#m778e4fe544" x="57.6" y="191.080421" style="stroke: #000000; stroke-width: 0.8"/>
      </g>
     </g>
     <g id="text_9">
      <!-- 640 -->
      <g transform="translate(31.5125 194.87964)scale(0.1 -0.1)">
       <defs>
        <path id="DejaVuSans-34" d="M 2419 4116 
L 825 1625 
L 2419 1625 
L 2419 4116 
z
M 2253 4666 
L 3047 4666 
L 3047 1625 
L 3713 1625 
L 3713 1100 
L 3047 1100 
L 3047 0 
L 2419 0 
L 2419 1100 
L 313 1100 
L 313 1709 
L 2253 4666 
z
" transform="scale(0.015625)"/>
       </defs>
       <use xlink:href="#DejaVuSans-36"/>
       <use xlink:href="#DejaVuSans-34" x="63.623047"/>
       <use xlink:href="#DejaVuSans-30" x="127.246094"/>
      </g>
     </g>
    </g>
    <g id="ytick_4">
     <g id="line2d_9">
      <g>
       <use xlink:href="#m778e4fe544" x="57.6" y="140.149895" style="stroke: #000000; stroke-width: 0.8"/>
      </g>
     </g>
     <g id="text_10">
      <!-- 660 -->
      <g transform="translate(31.5125 143.949113)scale(0.1 -0.1)">
       <use xlink:href="#DejaVuSans-36"/>
       <use xlink:href="#DejaVuSans-36" x="63.623047"/>
       <use xlink:href="#DejaVuSans-30" x="127.246094"/>
      </g>
     </g>
    </g>
    <g id="ytick_5">
     <g id="line2d_10">
      <g>
       <use xlink:href="#m778e4fe544" x="57.6" y="89.219368" style="stroke: #000000; stroke-width: 0.8"/>
      </g>
     </g>
     <g id="text_11">
      <!-- 680 -->
      <g transform="translate(31.5125 93.018587)scale(0.1 -0.1)">
       <defs>
        <path id="DejaVuSans-38" d="M 2034 2216 
Q 1584 2216 1326 1975 
Q 1069 1734 1069 1313 
Q 1069 891 1326 650 
Q 1584 409 2034 409 
Q 2484 409 2743 651 
Q 3003 894 3003 1313 
Q 3003 1734 2745 1975 
Q 2488 2216 2034 2216 
z
M 1403 2484 
Q 997 2584 770 2862 
Q 544 3141 544 3541 
Q 544 4100 942 4425 
Q 1341 4750 2034 4750 
Q 2731 4750 3128 4425 
Q 3525 4100 3525 3541 
Q 3525 3141 3298 2862 
Q 3072 2584 2669 2484 
Q 3125 2378 3379 2068 
Q 3634 1759 3634 1313 
Q 3634 634 3220 271 
Q 2806 -91 2034 -91 
Q 1263 -91 848 271 
Q 434 634 434 1313 
Q 434 1759 690 2068 
Q 947 2378 1403 2484 
z
M 1172 3481 
Q 1172 3119 1398 2916 
Q 1625 2713 2034 2713 
Q 2441 2713 2670 2916 
Q 2900 3119 2900 3481 
Q 2900 3844 2670 4047 
Q 2441 4250 2034 4250 
Q 1625 4250 1398 4047 
Q 1172 3844 1172 3481 
z
" transform="scale(0.015625)"/>
       </defs>
       <use xlink:href="#DejaVuSans-36"/>
       <use xlink:href="#DejaVuSans-38" x="63.623047"/>
       <use xlink:href="#DejaVuSans-30" x="127.246094"/>
      </g>
     </g>
    </g>
    <g id="text_12">
     <!-- total cost -->
     <g transform="translate(25.432812 197.923313)rotate(-90)scale(0.1 -0.1)">
      <defs>
       <path id="DejaVuSans-74" d="M 1172 4494 
L 1172 3500 
L 2356 3500 
L 2356 3053 
L 1172 3053 
L 1172 1153 
Q 1172 725 1289 603 
Q 1406 481 1766 481 
L 2356 481 
L 2356 0 
L 1766 0 
Q 1100 0 847 248 
Q 594 497 594 1153 
L 594 3053 
L 172 3053 
L 172 3500 
L 594 3500 
L 594 4494 
L 1172 4494 
z
" transform="scale(0.015625)"/>
       <path id="DejaVuSans-6f" d="M 1959 3097 
Q 1497 3097 1228 2736 
Q 959 2375 959 1747 
Q 959 1119 1226 758 
Q 1494 397 1959 397 
Q 2419 397 2687 759 
Q 2956 1122 2956 1747 
Q 2956 2369 2687 2733 
Q 2419 3097 1959 3097 
z
M 1959 3584 
Q 2709 3584 3137 3096 
Q 3566 2609 3566 1747 
Q 3566 888 3137 398 
Q 2709 -91 1959 -91 
Q 1206 -91 779 398 
Q 353 888 353 1747 
Q 353 2609 779 3096 
Q 1206 3584 1959 3584 
z
" transform="scale(0.015625)"/>
       <path id="DejaVuSans-6c" d="M 603 4863 
L 1178 4863 
L 1178 0 
L 603 0 
L 603 4863 
z
" transform="scale(0.015625)"/>
       <path id="DejaVuSans-63" d="M 3122 3366 
L 3122 2828 
Q 2878 2963 2633 3030 
Q 2388 3097 2138 3097 
Q 1578 3097 1268 2742 
Q 959 2388 959 1747 
Q 959 1106 1268 751 
Q 1578 397 2138 397 
Q 2388 397 2633 464 
Q 2878 531 3122 666 
L 3122 134 
Q 2881 22 2623 -34 
Q 2366 -91 2075 -91 
Q 1284 -91 818 406 
Q 353 903 353 1747 
Q 353 2603 823 3093 
Q 1294 3584 2113 3584 
Q 2378 3584 2631 3529 
Q 2884 3475 3122 3366 
z
" transform="scale(0.015625)"/>
      </defs>
      <use xlink:href="#DejaVuSans-74"/>
      <use xlink:href="#DejaVuSans-6f" x="39.208984"/>
      <use xlink:href="#DejaVuSans-74" x="100.390625"/>
      <use xlink:href="#DejaVuSans-61" x="139.599609"/>
      <use xlink:href="#DejaVuSans-6c" x="200.878906"/>
      <use xlink:href="#DejaVuSans-20" x="228.662109"/>
      <use xlink:href="#DejaVuSans-63" x="260.449219"/>
      <use xlink:href="#DejaVuSans-6f" x="315.429688"/>
      <use xlink:href="#DejaVuSans-73" x="376.611328"/>
      <use xlink:href="#DejaVuSans-74" x="428.710938"/>
     </g>
    </g>
   </g>
   <g id="line2d_11">
    <path d="M 73.832727 112.138105 
L 74.133333 117.231158 
L 74.433939 117.231158 
L 74.734545 94.312421 
L 75.035152 91.765895 
L 75.335758 91.765895 
L 75.636364 86.672842 
L 75.93697 84.126316 
L 76.237576 96.858947 
L 76.538182 94.312421 
L 76.838788 96.858947 
L 77.139394 86.672842 
L 77.44 91.765895 
L 77.740606 91.765895 
L 78.041212 86.672842 
L 78.341818 89.219368 
L 78.642424 84.126316 
L 78.94303 76.486737 
L 79.243636 86.672842 
L 79.844848 86.672842 
L 80.145455 79.033263 
L 80.446061 86.672842 
L 80.746667 84.126316 
L 81.047273 124.870737 
L 81.347879 124.870737 
L 81.648485 155.429053 
L 81.949091 157.975579 
L 82.550303 107.045053 
L 83.151515 107.045053 
L 83.452121 86.672842 
L 83.752727 89.219368 
L 84.053333 71.393684 
L 84.353939 99.405474 
L 84.654545 104.498526 
L 85.255758 58.661053 
L 85.556364 71.393684 
L 85.85697 101.952 
L 86.157576 96.858947 
L 86.758788 109.591579 
L 87.059394 99.405474 
L 87.36 96.858947 
L 87.660606 114.684632 
L 87.961212 96.858947 
L 88.261818 96.858947 
L 88.562424 112.138105 
L 89.163636 122.324211 
L 89.464242 140.149895 
L 89.764848 129.963789 
L 90.065455 150.336 
L 90.366061 157.975579 
L 90.666667 157.975579 
L 90.967273 152.882526 
L 91.267879 160.522105 
L 91.568485 157.975579 
L 92.169697 170.708211 
L 92.470303 157.975579 
L 92.770909 165.615158 
L 93.071515 157.975579 
L 93.372121 163.068632 
L 93.672727 129.963789 
L 93.973333 129.963789 
L 94.574545 124.870737 
L 94.875152 132.510316 
L 95.175758 124.870737 
L 95.476364 112.138105 
L 95.77697 109.591579 
L 96.378182 129.963789 
L 96.678788 119.777684 
L 96.979394 119.777684 
L 97.28 114.684632 
L 97.580606 101.952 
L 97.881212 122.324211 
L 98.181818 114.684632 
L 98.482424 122.324211 
L 99.083636 76.486737 
L 99.384242 73.940211 
L 99.684848 84.126316 
L 99.985455 68.847158 
L 100.286061 73.940211 
L 100.586667 73.940211 
L 100.887273 79.033263 
L 101.187879 117.231158 
L 101.488485 127.417263 
L 101.789091 101.952 
L 102.089697 145.242947 
L 102.390303 129.963789 
L 102.690909 127.417263 
L 102.991515 112.138105 
L 103.592727 99.405474 
L 103.893333 124.870737 
L 104.193939 129.963789 
L 104.795152 124.870737 
L 105.095758 119.777684 
L 105.396364 137.603368 
L 106.298182 112.138105 
L 106.598788 101.952 
L 106.899394 84.126316 
L 107.2 86.672842 
L 107.500606 86.672842 
L 107.801212 91.765895 
L 108.402424 114.684632 
L 108.70303 117.231158 
L 109.003636 142.696421 
L 109.304242 140.149895 
L 109.604848 163.068632 
L 109.905455 163.068632 
L 110.506667 173.254737 
L 110.807273 185.987368 
L 111.107879 168.161684 
L 111.408485 175.801263 
L 111.709091 191.080421 
L 112.009697 221.638737 
L 112.310303 219.092211 
L 113.212121 249.650526 
L 113.512727 224.185263 
L 113.813333 226.731789 
L 114.113939 213.999158 
L 114.414545 213.999158 
L 114.715152 229.278316 
L 115.015758 254.743579 
L 115.316364 221.638737 
L 115.61697 216.545684 
L 115.917576 231.824842 
L 116.218182 234.371368 
L 116.518788 247.104 
L 116.819394 234.371368 
L 117.12 211.452632 
L 117.721212 216.545684 
L 118.021818 226.731789 
L 118.322424 201.266526 
L 119.224242 185.987368 
L 119.524848 175.801263 
L 119.825455 175.801263 
L 120.126061 140.149895 
L 120.426667 168.161684 
L 120.727273 183.440842 
L 121.027879 142.696421 
L 121.328485 119.777684 
L 121.629091 165.615158 
L 121.929697 168.161684 
L 122.230303 168.161684 
L 122.530909 170.708211 
L 123.132121 170.708211 
L 123.432727 168.161684 
L 124.033939 132.510316 
L 124.334545 132.510316 
L 124.635152 99.405474 
L 124.935758 89.219368 
L 125.236364 94.312421 
L 125.53697 86.672842 
L 125.837576 89.219368 
L 126.138182 96.858947 
L 126.438788 112.138105 
L 126.739394 112.138105 
L 127.04 127.417263 
L 127.340606 127.417263 
L 127.641212 124.870737 
L 127.941818 135.056842 
L 128.242424 132.510316 
L 129.144242 155.429053 
L 129.444848 152.882526 
L 129.745455 157.975579 
L 130.647273 135.056842 
L 130.947879 150.336 
L 131.248485 178.347789 
L 131.549091 173.254737 
L 131.849697 178.347789 
L 132.150303 165.615158 
L 132.450909 168.161684 
L 132.751515 160.522105 
L 133.052121 178.347789 
L 133.352727 170.708211 
L 133.653333 157.975579 
L 133.953939 140.149895 
L 134.254545 160.522105 
L 134.555152 173.254737 
L 134.855758 163.068632 
L 135.156364 160.522105 
L 135.45697 160.522105 
L 135.757576 163.068632 
L 136.058182 155.429053 
L 136.358788 119.777684 
L 136.659394 122.324211 
L 136.96 114.684632 
L 137.260606 114.684632 
L 137.561212 124.870737 
L 137.861818 117.231158 
L 138.162424 122.324211 
L 138.46303 122.324211 
L 138.763636 104.498526 
L 139.064242 112.138105 
L 139.364848 127.417263 
L 139.665455 122.324211 
L 139.966061 127.417263 
L 140.266667 140.149895 
L 140.567273 129.963789 
L 140.867879 132.510316 
L 141.168485 145.242947 
L 141.769697 185.987368 
L 142.070303 165.615158 
L 142.370909 178.347789 
L 142.972121 221.638737 
L 143.272727 259.836632 
L 143.873939 249.650526 
L 144.174545 231.824842 
L 144.475152 234.371368 
L 144.775758 242.010947 
L 145.677576 193.626947 
L 145.978182 203.813053 
L 146.278788 206.359579 
L 146.579394 188.533895 
L 146.88 203.813053 
L 147.180606 201.266526 
L 147.481212 219.092211 
L 147.781818 216.545684 
L 148.082424 226.731789 
L 148.683636 183.440842 
L 148.984242 180.894316 
L 149.284848 175.801263 
L 149.585455 173.254737 
L 149.886061 173.254737 
L 150.186667 183.440842 
L 150.487273 185.987368 
L 151.389091 165.615158 
L 151.689697 178.347789 
L 151.990303 173.254737 
L 152.290909 175.801263 
L 152.591515 168.161684 
L 152.892121 198.72 
L 153.192727 211.452632 
L 153.493333 211.452632 
L 153.793939 219.092211 
L 154.094545 219.092211 
L 154.996364 267.476211 
L 155.597576 252.197053 
L 155.898182 295.488 
L 156.499394 264.929684 
L 156.8 262.383158 
L 157.401212 236.917895 
L 157.701818 231.824842 
L 158.002424 247.104 
L 158.30303 252.197053 
L 158.603636 185.987368 
L 158.904242 178.347789 
L 159.204848 201.266526 
L 159.505455 201.266526 
L 159.806061 203.813053 
L 160.106667 201.266526 
L 160.407273 219.092211 
L 160.707879 216.545684 
L 161.008485 198.72 
L 161.309091 196.173474 
L 161.910303 170.708211 
L 162.210909 122.324211 
L 162.812121 132.510316 
L 163.413333 150.336 
L 163.713939 127.417263 
L 164.014545 124.870737 
L 164.315152 129.963789 
L 164.615758 150.336 
L 164.916364 147.789474 
L 165.21697 160.522105 
L 165.517576 157.975579 
L 165.818182 180.894316 
L 166.118788 193.626947 
L 166.419394 183.440842 
L 166.72 185.987368 
L 167.020606 183.440842 
L 167.321212 175.801263 
L 167.621818 157.975579 
L 167.922424 152.882526 
L 168.22303 165.615158 
L 168.523636 157.975579 
L 169.124848 152.882526 
L 169.425455 145.242947 
L 169.726061 142.696421 
L 170.026667 165.615158 
L 170.327273 163.068632 
L 170.627879 165.615158 
L 170.928485 173.254737 
L 171.229091 155.429053 
L 171.529697 165.615158 
L 171.830303 155.429053 
L 172.130909 132.510316 
L 172.431515 140.149895 
L 172.732121 132.510316 
L 173.032727 129.963789 
L 173.333333 140.149895 
L 173.633939 140.149895 
L 173.934545 135.056842 
L 174.235152 135.056842 
L 174.535758 129.963789 
L 174.836364 142.696421 
L 175.13697 147.789474 
L 175.437576 170.708211 
L 176.038788 170.708211 
L 176.339394 163.068632 
L 176.64 170.708211 
L 176.940606 193.626947 
L 177.241212 196.173474 
L 177.541818 196.173474 
L 177.842424 198.72 
L 178.14303 180.894316 
L 178.443636 170.708211 
L 178.744242 140.149895 
L 179.044848 129.963789 
L 179.345455 132.510316 
L 179.646061 132.510316 
L 179.946667 142.696421 
L 180.247273 147.789474 
L 180.547879 137.603368 
L 180.848485 155.429053 
L 181.449697 175.801263 
L 181.750303 168.161684 
L 182.050909 173.254737 
L 182.351515 155.429053 
L 182.652121 152.882526 
L 182.952727 129.963789 
L 183.253333 81.579789 
L 183.553939 68.847158 
L 184.155152 63.754105 
L 184.455758 53.568 
L 184.756364 56.114526 
L 185.05697 68.847158 
L 185.658182 122.324211 
L 185.958788 124.870737 
L 186.259394 135.056842 
L 186.56 152.882526 
L 187.161212 175.801263 
L 187.461818 160.522105 
L 188.06303 175.801263 
L 188.363636 163.068632 
L 188.664242 178.347789 
L 188.964848 178.347789 
L 189.265455 180.894316 
L 189.566061 168.161684 
L 189.866667 163.068632 
L 190.167273 155.429053 
L 190.467879 140.149895 
L 190.768485 157.975579 
L 191.069091 157.975579 
L 191.970909 173.254737 
L 192.271515 163.068632 
L 192.572121 173.254737 
L 193.173333 160.522105 
L 193.473939 168.161684 
L 194.075152 203.813053 
L 194.375758 198.72 
L 194.676364 185.987368 
L 194.97697 183.440842 
L 195.277576 165.615158 
L 195.578182 183.440842 
L 195.878788 173.254737 
L 196.780606 206.359579 
L 197.081212 160.522105 
L 197.381818 152.882526 
L 197.682424 188.533895 
L 197.98303 175.801263 
L 198.283636 180.894316 
L 198.584242 163.068632 
L 198.884848 173.254737 
L 199.185455 178.347789 
L 199.786667 213.999158 
L 200.087273 208.906105 
L 200.387879 196.173474 
L 200.688485 191.080421 
L 200.989091 201.266526 
L 201.289697 201.266526 
L 201.590303 221.638737 
L 201.890909 211.452632 
L 202.191515 224.185263 
L 202.492121 231.824842 
L 202.792727 219.092211 
L 203.093333 213.999158 
L 203.393939 221.638737 
L 203.694545 208.906105 
L 203.995152 211.452632 
L 204.295758 234.371368 
L 204.596364 236.917895 
L 204.89697 231.824842 
L 205.197576 221.638737 
L 205.498182 226.731789 
L 206.099394 221.638737 
L 206.4 226.731789 
L 207.001212 208.906105 
L 207.301818 211.452632 
L 207.602424 216.545684 
L 207.90303 213.999158 
L 208.203636 191.080421 
L 208.504242 188.533895 
L 208.804848 208.906105 
L 209.105455 213.999158 
L 209.406061 196.173474 
L 209.706667 206.359579 
L 210.007273 206.359579 
L 210.307879 198.72 
L 210.608485 213.999158 
L 210.909091 213.999158 
L 211.209697 206.359579 
L 211.810909 175.801263 
L 212.111515 175.801263 
L 212.412121 170.708211 
L 212.712727 163.068632 
L 213.313939 163.068632 
L 213.614545 165.615158 
L 213.915152 188.533895 
L 214.215758 201.266526 
L 214.516364 185.987368 
L 214.81697 185.987368 
L 215.117576 188.533895 
L 215.418182 185.987368 
L 215.718788 165.615158 
L 216.019394 168.161684 
L 216.32 165.615158 
L 216.620606 145.242947 
L 216.921212 140.149895 
L 217.221818 122.324211 
L 217.522424 137.603368 
L 218.123636 119.777684 
L 218.424242 107.045053 
L 218.724848 114.684632 
L 219.025455 114.684632 
L 219.326061 112.138105 
L 219.626667 122.324211 
L 220.227879 117.231158 
L 220.528485 127.417263 
L 220.829091 132.510316 
L 221.129697 152.882526 
L 221.730909 112.138105 
L 222.332121 124.870737 
L 222.632727 145.242947 
L 223.233939 168.161684 
L 223.534545 170.708211 
L 223.835152 163.068632 
L 224.135758 175.801263 
L 224.436364 183.440842 
L 224.73697 219.092211 
L 225.037576 216.545684 
L 225.338182 221.638737 
L 225.638788 224.185263 
L 225.939394 211.452632 
L 226.24 208.906105 
L 226.540606 201.266526 
L 226.841212 203.813053 
L 227.141818 163.068632 
L 227.442424 152.882526 
L 227.74303 168.161684 
L 228.043636 163.068632 
L 228.344242 160.522105 
L 228.644848 142.696421 
L 228.945455 145.242947 
L 229.246061 157.975579 
L 229.546667 150.336 
L 229.847273 147.789474 
L 230.147879 152.882526 
L 230.448485 163.068632 
L 230.749091 165.615158 
L 231.049697 152.882526 
L 231.350303 173.254737 
L 231.650909 165.615158 
L 231.951515 201.266526 
L 232.252121 198.72 
L 232.552727 180.894316 
L 232.853333 178.347789 
L 233.153939 191.080421 
L 233.454545 191.080421 
L 233.755152 198.72 
L 234.055758 231.824842 
L 234.957576 203.813053 
L 235.258182 213.999158 
L 235.558788 231.824842 
L 235.859394 236.917895 
L 236.761212 229.278316 
L 237.061818 221.638737 
L 237.362424 221.638737 
L 237.963636 178.347789 
L 238.264242 188.533895 
L 238.564848 183.440842 
L 238.865455 155.429053 
L 239.166061 168.161684 
L 239.466667 155.429053 
L 239.767273 180.894316 
L 240.067879 180.894316 
L 240.368485 183.440842 
L 240.669091 163.068632 
L 240.969697 165.615158 
L 241.270303 170.708211 
L 241.570909 129.963789 
L 241.871515 117.231158 
L 242.172121 96.858947 
L 242.472727 91.765895 
L 242.773333 94.312421 
L 243.073939 84.126316 
L 243.675152 73.940211 
L 243.975758 84.126316 
L 244.276364 109.591579 
L 244.57697 117.231158 
L 245.178182 107.045053 
L 245.478788 114.684632 
L 245.779394 109.591579 
L 246.08 137.603368 
L 246.380606 147.789474 
L 246.681212 145.242947 
L 246.981818 129.963789 
L 247.282424 129.963789 
L 247.58303 132.510316 
L 247.883636 124.870737 
L 248.184242 132.510316 
L 248.484848 160.522105 
L 248.785455 140.149895 
L 249.086061 132.510316 
L 249.386667 119.777684 
L 249.987879 150.336 
L 250.288485 124.870737 
L 250.589091 137.603368 
L 250.889697 140.149895 
L 251.190303 140.149895 
L 251.490909 117.231158 
L 251.791515 137.603368 
L 252.092121 140.149895 
L 252.392727 140.149895 
L 252.693333 150.336 
L 253.294545 145.242947 
L 253.595152 140.149895 
L 253.895758 132.510316 
L 254.196364 157.975579 
L 254.49697 157.975579 
L 255.098182 170.708211 
L 255.398788 150.336 
L 255.699394 142.696421 
L 256 160.522105 
L 256.300606 145.242947 
L 256.601212 145.242947 
L 256.901818 160.522105 
L 257.202424 152.882526 
L 257.50303 163.068632 
L 257.803636 157.975579 
L 258.104242 180.894316 
L 258.404848 178.347789 
L 258.705455 183.440842 
L 259.006061 175.801263 
L 259.306667 178.347789 
L 259.607273 185.987368 
L 259.907879 188.533895 
L 260.509091 178.347789 
L 260.809697 178.347789 
L 261.110303 188.533895 
L 261.711515 219.092211 
L 262.312727 213.999158 
L 262.613333 216.545684 
L 262.913939 196.173474 
L 263.214545 191.080421 
L 263.515152 175.801263 
L 264.116364 185.987368 
L 264.41697 178.347789 
L 265.018182 173.254737 
L 265.318788 163.068632 
L 265.619394 165.615158 
L 265.92 178.347789 
L 266.220606 173.254737 
L 266.521212 170.708211 
L 267.122424 180.894316 
L 267.42303 244.557474 
L 267.723636 216.545684 
L 268.024242 231.824842 
L 268.324848 229.278316 
L 268.625455 231.824842 
L 268.926061 229.278316 
L 269.226667 221.638737 
L 269.527273 249.650526 
L 269.827879 242.010947 
L 270.128485 213.999158 
L 270.429091 231.824842 
L 270.729697 198.72 
L 271.330909 173.254737 
L 271.631515 198.72 
L 271.932121 173.254737 
L 272.232727 191.080421 
L 272.533333 157.975579 
L 272.833939 152.882526 
L 273.134545 150.336 
L 273.435152 150.336 
L 273.735758 137.603368 
L 274.036364 155.429053 
L 274.33697 152.882526 
L 275.238788 201.266526 
L 275.539394 178.347789 
L 276.741818 216.545684 
L 277.042424 211.452632 
L 277.34303 213.999158 
L 277.643636 211.452632 
L 277.944242 216.545684 
L 278.244848 219.092211 
L 278.545455 208.906105 
L 279.146667 173.254737 
L 279.447273 160.522105 
L 279.747879 178.347789 
L 280.048485 188.533895 
L 280.349091 203.813053 
L 280.649697 191.080421 
L 280.950303 191.080421 
L 281.250909 180.894316 
L 281.551515 183.440842 
L 281.852121 188.533895 
L 282.152727 183.440842 
L 282.753939 206.359579 
L 283.054545 203.813053 
L 283.355152 196.173474 
L 283.655758 180.894316 
L 283.956364 175.801263 
L 284.25697 180.894316 
L 284.557576 150.336 
L 284.858182 178.347789 
L 285.158788 180.894316 
L 285.459394 191.080421 
L 285.76 191.080421 
L 286.060606 175.801263 
L 286.361212 168.161684 
L 286.661818 165.615158 
L 286.962424 160.522105 
L 287.26303 168.161684 
L 287.563636 165.615158 
L 287.864242 145.242947 
L 288.164848 142.696421 
L 288.465455 147.789474 
L 288.766061 145.242947 
L 289.066667 135.056842 
L 289.367273 137.603368 
L 289.667879 150.336 
L 289.968485 145.242947 
L 290.269091 152.882526 
L 290.569697 145.242947 
L 290.870303 145.242947 
L 291.471515 155.429053 
L 291.772121 140.149895 
L 292.072727 132.510316 
L 292.373333 145.242947 
L 292.673939 170.708211 
L 292.974545 152.882526 
L 293.275152 152.882526 
L 293.575758 155.429053 
L 293.876364 155.429053 
L 294.17697 152.882526 
L 294.477576 157.975579 
L 294.778182 155.429053 
L 295.078788 142.696421 
L 295.379394 137.603368 
L 295.68 129.963789 
L 295.980606 140.149895 
L 296.281212 145.242947 
L 296.581818 145.242947 
L 296.882424 150.336 
L 297.18303 132.510316 
L 297.483636 147.789474 
L 297.784242 140.149895 
L 298.084848 152.882526 
L 298.385455 185.987368 
L 298.686061 193.626947 
L 298.986667 191.080421 
L 299.287273 213.999158 
L 299.888485 213.999158 
L 300.189091 211.452632 
L 300.489697 211.452632 
L 300.790303 208.906105 
L 301.090909 216.545684 
L 301.391515 188.533895 
L 301.692121 201.266526 
L 301.992727 208.906105 
L 302.293333 211.452632 
L 302.593939 196.173474 
L 302.894545 201.266526 
L 303.195152 211.452632 
L 303.495758 201.266526 
L 303.796364 203.813053 
L 304.09697 219.092211 
L 304.397576 219.092211 
L 304.698182 216.545684 
L 304.998788 236.917895 
L 305.299394 224.185263 
L 305.6 221.638737 
L 305.900606 191.080421 
L 306.201212 206.359579 
L 306.501818 196.173474 
L 306.802424 221.638737 
L 307.10303 234.371368 
L 307.403636 213.999158 
L 307.704242 206.359579 
L 308.004848 188.533895 
L 308.305455 193.626947 
L 308.606061 185.987368 
L 308.906667 185.987368 
L 309.207273 196.173474 
L 309.507879 193.626947 
L 309.808485 193.626947 
L 310.109091 175.801263 
L 310.409697 196.173474 
L 311.010909 173.254737 
L 311.311515 168.161684 
L 311.912727 203.813053 
L 312.213333 203.813053 
L 312.513939 211.452632 
L 312.814545 203.813053 
L 313.415758 198.72 
L 313.716364 206.359579 
L 314.01697 221.638737 
L 314.317576 224.185263 
L 314.618182 234.371368 
L 315.219394 234.371368 
L 315.52 216.545684 
L 316.121212 221.638737 
L 316.421818 221.638737 
L 316.722424 224.185263 
L 317.02303 213.999158 
L 317.323636 247.104 
L 317.624242 231.824842 
L 317.924848 229.278316 
L 318.225455 224.185263 
L 318.526061 216.545684 
L 318.826667 224.185263 
L 319.427879 213.999158 
L 319.728485 216.545684 
L 320.029091 198.72 
L 320.329697 193.626947 
L 320.630303 201.266526 
L 320.930909 193.626947 
L 321.231515 201.266526 
L 321.532121 191.080421 
L 321.832727 193.626947 
L 322.133333 173.254737 
L 322.734545 163.068632 
L 323.035152 155.429053 
L 323.335758 155.429053 
L 323.636364 160.522105 
L 323.93697 157.975579 
L 324.538182 145.242947 
L 324.838788 145.242947 
L 325.139394 147.789474 
L 325.44 160.522105 
L 325.740606 180.894316 
L 326.041212 183.440842 
L 326.341818 196.173474 
L 326.642424 183.440842 
L 327.243636 229.278316 
L 327.544242 234.371368 
L 327.844848 244.557474 
L 328.746667 211.452632 
L 329.047273 208.906105 
L 329.648485 208.906105 
L 329.949091 216.545684 
L 330.249697 213.999158 
L 330.550303 221.638737 
L 330.850909 224.185263 
L 331.151515 224.185263 
L 331.452121 213.999158 
L 331.752727 216.545684 
L 332.053333 216.545684 
L 332.353939 211.452632 
L 332.654545 234.371368 
L 332.955152 226.731789 
L 333.255758 224.185263 
L 333.556364 231.824842 
L 333.85697 226.731789 
L 334.157576 234.371368 
L 334.458182 262.383158 
L 334.758788 262.383158 
L 335.059394 267.476211 
L 335.36 285.301895 
L 335.660606 280.208842 
L 335.961212 290.394947 
L 336.261818 252.197053 
L 336.562424 247.104 
L 337.163636 229.278316 
L 337.464242 244.557474 
L 337.764848 242.010947 
L 338.065455 244.557474 
L 338.366061 275.115789 
L 338.967273 285.301895 
L 339.267879 272.569263 
L 339.568485 254.743579 
L 339.869091 257.290105 
L 340.169697 267.476211 
L 340.470303 254.743579 
L 340.770909 249.650526 
L 341.071515 242.010947 
L 341.372121 244.557474 
L 341.672727 242.010947 
L 341.973333 242.010947 
L 342.273939 247.104 
L 342.574545 229.278316 
L 342.875152 219.092211 
L 343.175758 221.638737 
L 343.77697 198.72 
L 344.077576 216.545684 
L 344.378182 213.999158 
L 344.979394 203.813053 
L 345.28 203.813053 
L 345.580606 224.185263 
L 345.881212 226.731789 
L 346.181818 234.371368 
L 346.482424 219.092211 
L 346.78303 216.545684 
L 347.083636 219.092211 
L 347.684848 191.080421 
L 348.286061 203.813053 
L 348.586667 185.987368 
L 348.887273 198.72 
L 349.187879 201.266526 
L 349.488485 206.359579 
L 349.789091 201.266526 
L 350.390303 185.987368 
L 350.690909 193.626947 
L 351.292121 198.72 
L 351.592727 211.452632 
L 351.893333 203.813053 
L 352.193939 213.999158 
L 352.494545 185.987368 
L 352.795152 185.987368 
L 353.095758 206.359579 
L 353.396364 191.080421 
L 353.997576 206.359579 
L 354.298182 188.533895 
L 354.598788 180.894316 
L 354.899394 178.347789 
L 355.2 193.626947 
L 355.500606 188.533895 
L 355.801212 175.801263 
L 356.101818 173.254737 
L 356.402424 180.894316 
L 356.70303 173.254737 
L 357.003636 175.801263 
L 357.304242 183.440842 
L 357.604848 173.254737 
L 357.905455 185.987368 
L 358.206061 178.347789 
L 358.506667 191.080421 
L 358.807273 196.173474 
L 359.107879 185.987368 
L 359.408485 185.987368 
L 359.709091 191.080421 
L 360.310303 191.080421 
L 360.610909 211.452632 
L 360.911515 191.080421 
L 361.212121 196.173474 
L 361.512727 183.440842 
L 361.813333 201.266526 
L 362.113939 188.533895 
L 362.414545 188.533895 
L 362.715152 180.894316 
L 363.316364 198.72 
L 363.61697 191.080421 
L 363.917576 201.266526 
L 364.218182 201.266526 
L 364.518788 213.999158 
L 364.819394 239.464421 
L 365.12 236.917895 
L 365.420606 239.464421 
L 365.721212 252.197053 
L 366.322424 290.394947 
L 366.62303 264.929684 
L 366.923636 270.022737 
L 367.224242 277.662316 
L 367.524848 262.383158 
L 367.825455 262.383158 
L 368.126061 219.092211 
L 368.727273 247.104 
L 369.027879 249.650526 
L 369.328485 234.371368 
L 369.629091 229.278316 
L 369.929697 219.092211 
L 370.230303 216.545684 
L 370.530909 206.359579 
L 370.831515 191.080421 
L 371.132121 191.080421 
L 371.432727 183.440842 
L 372.033939 219.092211 
L 372.334545 203.813053 
L 372.635152 198.72 
L 372.935758 213.999158 
L 373.236364 219.092211 
L 373.53697 191.080421 
L 373.837576 196.173474 
L 374.138182 188.533895 
L 374.438788 198.72 
L 374.739394 183.440842 
L 375.04 183.440842 
L 375.340606 175.801263 
L 375.641212 188.533895 
L 375.941818 191.080421 
L 376.242424 198.72 
L 376.54303 180.894316 
L 377.144242 170.708211 
L 377.444848 191.080421 
L 377.745455 229.278316 
L 378.046061 213.999158 
L 378.346667 236.917895 
L 378.947879 224.185263 
L 379.248485 221.638737 
L 379.549091 208.906105 
L 379.849697 219.092211 
L 380.150303 206.359579 
L 380.450909 198.72 
L 380.751515 234.371368 
L 381.052121 226.731789 
L 381.352727 226.731789 
L 381.653333 206.359579 
L 382.254545 188.533895 
L 382.555152 178.347789 
L 382.855758 185.987368 
L 383.156364 183.440842 
L 383.45697 175.801263 
L 383.757576 196.173474 
L 384.058182 191.080421 
L 384.358788 188.533895 
L 384.659394 193.626947 
L 384.96 170.708211 
L 385.260606 168.161684 
L 385.561212 163.068632 
L 385.861818 155.429053 
L 386.162424 135.056842 
L 386.46303 135.056842 
L 386.763636 132.510316 
L 387.064242 135.056842 
L 387.665455 89.219368 
L 387.966061 91.765895 
L 388.266667 114.684632 
L 388.567273 127.417263 
L 388.867879 127.417263 
L 389.168485 129.963789 
L 389.469091 137.603368 
L 389.769697 129.963789 
L 390.070303 127.417263 
L 390.370909 140.149895 
L 390.671515 142.696421 
L 390.972121 150.336 
L 391.272727 137.603368 
L 391.573333 132.510316 
L 391.873939 137.603368 
L 392.174545 155.429053 
L 392.475152 129.963789 
L 392.775758 129.963789 
L 393.076364 132.510316 
L 393.37697 142.696421 
L 393.978182 137.603368 
L 394.278788 127.417263 
L 394.579394 109.591579 
L 394.88 114.684632 
L 395.180606 124.870737 
L 395.481212 129.963789 
L 395.781818 129.963789 
L 396.082424 152.882526 
L 396.38303 152.882526 
L 396.683636 168.161684 
L 396.984242 147.789474 
L 397.284848 150.336 
L 397.585455 135.056842 
L 397.886061 135.056842 
L 398.186667 145.242947 
L 398.487273 168.161684 
L 398.487273 168.161684 
" clip-path="url(#p3b71ff3810)" style="fill: none; stroke: #1f77b4; stroke-width: 1.5; stroke-linecap: square"/>
   </g>
   <g id="patch_3">
    <path d="M 57.6 307.584 
L 57.6 41.472 
" style="fill: none; stroke: #000000; stroke-width: 0.8; stroke-linejoin: miter; stroke-linecap: square"/>
   </g>
   <g id="patch_4">
    <path d="M 414.72 307.584 
L 414.72 41.472 
" style="fill: none; stroke: #000000; stroke-width: 0.8; stroke-linejoin: miter; stroke-linecap: square"/>
   </g>
   <g id="patch_5">
    <path d="M 57.6 307.584 
L 414.72 307.584 
" style="fill: none; stroke: #000000; stroke-width: 0.8; stroke-linejoin: miter; stroke-linecap: square"/>
   </g>
   <g id="patch_6">
    <path d="M 57.6 41.472 
L 414.72 41.472 
" style="fill: none; stroke: #000000; stroke-width: 0.8; stroke-linejoin: miter; stroke-linecap: square"/>
   </g>
   <g id="text_13">
    <!-- Simulated Anealling Cost -->
    <g transform="translate(160.8 35.472)scale(0.12 -0.12)">
     <defs>
      <path id="DejaVuSans-53" d="M 3425 4513 
L 3425 3897 
Q 3066 4069 2747 4153 
Q 2428 4238 2131 4238 
Q 1616 4238 1336 4038 
Q 1056 3838 1056 3469 
Q 1056 3159 1242 3001 
Q 1428 2844 1947 2747 
L 2328 2669 
Q 3034 2534 3370 2195 
Q 3706 1856 3706 1288 
Q 3706 609 3251 259 
Q 2797 -91 1919 -91 
Q 1588 -91 1214 -16 
Q 841 59 441 206 
L 441 856 
Q 825 641 1194 531 
Q 1563 422 1919 422 
Q 2459 422 2753 634 
Q 3047 847 3047 1241 
Q 3047 1584 2836 1778 
Q 2625 1972 2144 2069 
L 1759 2144 
Q 1053 2284 737 2584 
Q 422 2884 422 3419 
Q 422 4038 858 4394 
Q 1294 4750 2059 4750 
Q 2388 4750 2728 4690 
Q 3069 4631 3425 4513 
z
" transform="scale(0.015625)"/>
      <path id="DejaVuSans-69" d="M 603 3500 
L 1178 3500 
L 1178 0 
L 603 0 
L 603 3500 
z
M 603 4863 
L 1178 4863 
L 1178 4134 
L 603 4134 
L 603 4863 
z
" transform="scale(0.015625)"/>
      <path id="DejaVuSans-65" d="M 3597 1894 
L 3597 1613 
L 953 1613 
Q 991 1019 1311 708 
Q 1631 397 2203 397 
Q 2534 397 2845 478 
Q 3156 559 3463 722 
L 3463 178 
Q 3153 47 2828 -22 
Q 2503 -91 2169 -91 
Q 1331 -91 842 396 
Q 353 884 353 1716 
Q 353 2575 817 3079 
Q 1281 3584 2069 3584 
Q 2775 3584 3186 3129 
Q 3597 2675 3597 1894 
z
M 3022 2063 
Q 3016 2534 2758 2815 
Q 2500 3097 2075 3097 
Q 1594 3097 1305 2825 
Q 1016 2553 972 2059 
L 3022 2063 
z
" transform="scale(0.015625)"/>
      <path id="DejaVuSans-64" d="M 2906 2969 
L 2906 4863 
L 3481 4863 
L 3481 0 
L 2906 0 
L 2906 525 
Q 2725 213 2448 61 
Q 2172 -91 1784 -91 
Q 1150 -91 751 415 
Q 353 922 353 1747 
Q 353 2572 751 3078 
Q 1150 3584 1784 3584 
Q 2172 3584 2448 3432 
Q 2725 3281 2906 2969 
z
M 947 1747 
Q 947 1113 1208 752 
Q 1469 391 1925 391 
Q 2381 391 2643 752 
Q 2906 1113 2906 1747 
Q 2906 2381 2643 2742 
Q 2381 3103 1925 3103 
Q 1469 3103 1208 2742 
Q 947 2381 947 1747 
z
" transform="scale(0.015625)"/>
      <path id="DejaVuSans-41" d="M 2188 4044 
L 1331 1722 
L 3047 1722 
L 2188 4044 
z
M 1831 4666 
L 2547 4666 
L 4325 0 
L 3669 0 
L 3244 1197 
L 1141 1197 
L 716 0 
L 50 0 
L 1831 4666 
z
" transform="scale(0.015625)"/>
      <path id="DejaVuSans-67" d="M 2906 1791 
Q 2906 2416 2648 2759 
Q 2391 3103 1925 3103 
Q 1463 3103 1205 2759 
Q 947 2416 947 1791 
Q 947 1169 1205 825 
Q 1463 481 1925 481 
Q 2391 481 2648 825 
Q 2906 1169 2906 1791 
z
M 3481 434 
Q 3481 -459 3084 -895 
Q 2688 -1331 1869 -1331 
Q 1566 -1331 1297 -1286 
Q 1028 -1241 775 -1147 
L 775 -588 
Q 1028 -725 1275 -790 
Q 1522 -856 1778 -856 
Q 2344 -856 2625 -561 
Q 2906 -266 2906 331 
L 2906 616 
Q 2728 306 2450 153 
Q 2172 0 1784 0 
Q 1141 0 747 490 
Q 353 981 353 1791 
Q 353 2603 747 3093 
Q 1141 3584 1784 3584 
Q 2172 3584 2450 3431 
Q 2728 3278 2906 2969 
L 2906 3500 
L 3481 3500 
L 3481 434 
z
" transform="scale(0.015625)"/>
      <path id="DejaVuSans-43" d="M 4122 4306 
L 4122 3641 
Q 3803 3938 3442 4084 
Q 3081 4231 2675 4231 
Q 1875 4231 1450 3742 
Q 1025 3253 1025 2328 
Q 1025 1406 1450 917 
Q 1875 428 2675 428 
Q 3081 428 3442 575 
Q 3803 722 4122 1019 
L 4122 359 
Q 3791 134 3420 21 
Q 3050 -91 2638 -91 
Q 1578 -91 968 557 
Q 359 1206 359 2328 
Q 359 3453 968 4101 
Q 1578 4750 2638 4750 
Q 3056 4750 3426 4639 
Q 3797 4528 4122 4306 
z
" transform="scale(0.015625)"/>
     </defs>
     <use xlink:href="#DejaVuSans-53"/>
     <use xlink:href="#DejaVuSans-69" x="63.476562"/>
     <use xlink:href="#DejaVuSans-6d" x="91.259766"/>
     <use xlink:href="#DejaVuSans-75" x="188.671875"/>
     <use xlink:href="#DejaVuSans-6c" x="252.050781"/>
     <use xlink:href="#DejaVuSans-61" x="279.833984"/>
     <use xlink:href="#DejaVuSans-74" x="341.113281"/>
     <use xlink:href="#DejaVuSans-65" x="380.322266"/>
     <use xlink:href="#DejaVuSans-64" x="441.845703"/>
     <use xlink:href="#DejaVuSans-20" x="505.322266"/>
     <use xlink:href="#DejaVuSans-41" x="537.109375"/>
     <use xlink:href="#DejaVuSans-6e" x="605.517578"/>
     <use xlink:href="#DejaVuSans-65" x="668.896484"/>
     <use xlink:href="#DejaVuSans-61" x="730.419922"/>
     <use xlink:href="#DejaVuSans-6c" x="791.699219"/>
     <use xlink:href="#DejaVuSans-6c" x="819.482422"/>
     <use xlink:href="#DejaVuSans-69" x="847.265625"/>
     <use xlink:href="#DejaVuSans-6e" x="875.048828"/>
     <use xlink:href="#DejaVuSans-67" x="938.427734"/>
     <use xlink:href="#DejaVuSans-20" x="1001.904297"/>
     <use xlink:href="#DejaVuSans-43" x="1033.691406"/>
     <use xlink:href="#DejaVuSans-6f" x="1103.515625"/>
     <use xlink:href="#DejaVuSans-73" x="1164.697266"/>
     <use xlink:href="#DejaVuSans-74" x="1216.796875"/>
    </g>
   </g>
  </g>
 </g>
 <defs>
  <clipPath id="p3b71ff3810">
   <rect x="57.6" y="41.472" width="357.12" height="266.112"/>
  </clipPath>
 </defs>
</svg>
