<?xml version="1.0" encoding="utf-8" standalone="no"?>
<!DOCTYPE svg PUBLIC "-//W3C//DTD SVG 1.1//EN"
  "http://www.w3.org/Graphics/SVG/1.1/DTD/svg11.dtd">
<svg xmlns:xlink="http://www.w3.org/1999/xlink" width="460.8pt" height="345.6pt" viewBox="0 0 460.8 345.6" xmlns="http://www.w3.org/2000/svg" version="1.1">
 <metadata>
  <rdf:RDF xmlns:dc="http://purl.org/dc/elements/1.1/" xmlns:cc="http://creativecommons.org/ns#" xmlns:rdf="http://www.w3.org/1999/02/22-rdf-syntax-ns#">
   <cc:Work>
    <dc:type rdf:resource="http://purl.org/dc/dcmitype/StillImage"/>
    <dc:date>2022-06-01T08:06:43.045464</dc:date>
    <dc:format>image/svg+xml</dc:format>
    <dc:creator>
     <cc:Agent>
      <dc:title>Matplotlib v3.5.1, https://matplotlib.org/</dc:title>
     </cc:Agent>
    </dc:creator>
   </cc:Work>
  </rdf:RDF>
 </metadata>
 <defs>
  <style type="text/css">*{stroke-linejoin: round; stroke-linecap: butt}</style>
 </defs>
 <g id="figure_1">
  <g id="patch_1">
   <path d="M 0 345.6 
L 460.8 345.6 
L 460.8 0 
L 0 0 
z
" style="fill: #ffffff"/>
  </g>
  <g id="axes_1">
   <g id="patch_2">
    <path d="M 57.6 307.584 
L 414.72 307.584 
L 414.72 41.472 
L 57.6 41.472 
z
" style="fill: #ffffff"/>
   </g>
   <g id="matplotlib.axis_1">
    <g id="xtick_1">
     <g id="line2d_1">
      <defs>
       <path id="m8b93071a10" d="M 0 0 
L 0 3.5 
" style="stroke: #000000; stroke-width: 0.8"/>
      </defs>
      <g>
       <use xlink:href="#m8b93071a10" x="73.832727" y="307.584" style="stroke: #000000; stroke-width: 0.8"/>
      </g>
     </g>
     <g id="text_1">
      <!-- 0 -->
      <g transform="translate(70.651477 322.182437)scale(0.1 -0.1)">
       <defs>
        <path id="DejaVuSans-30" d="M 2034 4250 
Q 1547 4250 1301 3770 
Q 1056 3291 1056 2328 
Q 1056 1369 1301 889 
Q 1547 409 2034 409 
Q 2525 409 2770 889 
Q 3016 1369 3016 2328 
Q 3016 3291 2770 3770 
Q 2525 4250 2034 4250 
z
M 2034 4750 
Q 2819 4750 3233 4129 
Q 3647 3509 3647 2328 
Q 3647 1150 3233 529 
Q 2819 -91 2034 -91 
Q 1250 -91 836 529 
Q 422 1150 422 2328 
Q 422 3509 836 4129 
Q 1250 4750 2034 4750 
z
" transform="scale(0.015625)"/>
       </defs>
       <use xlink:href="#DejaVuSans-30"/>
      </g>
     </g>
    </g>
    <g id="xtick_2">
     <g id="line2d_2">
      <g>
       <use xlink:href="#m8b93071a10" x="146.106669" y="307.584" style="stroke: #000000; stroke-width: 0.8"/>
      </g>
     </g>
     <g id="text_2">
      <!-- 500 -->
      <g transform="translate(136.562919 322.182437)scale(0.1 -0.1)">
       <defs>
        <path id="DejaVuSans-35" d="M 691 4666 
L 3169 4666 
L 3169 4134 
L 1269 4134 
L 1269 2991 
Q 1406 3038 1543 3061 
Q 1681 3084 1819 3084 
Q 2600 3084 3056 2656 
Q 3513 2228 3513 1497 
Q 3513 744 3044 326 
Q 2575 -91 1722 -91 
Q 1428 -91 1123 -41 
Q 819 9 494 109 
L 494 744 
Q 775 591 1075 516 
Q 1375 441 1709 441 
Q 2250 441 2565 725 
Q 2881 1009 2881 1497 
Q 2881 1984 2565 2268 
Q 2250 2553 1709 2553 
Q 1456 2553 1204 2497 
Q 953 2441 691 2322 
L 691 4666 
z
" transform="scale(0.015625)"/>
       </defs>
       <use xlink:href="#DejaVuSans-35"/>
       <use xlink:href="#DejaVuSans-30" x="63.623047"/>
       <use xlink:href="#DejaVuSans-30" x="127.246094"/>
      </g>
     </g>
    </g>
    <g id="xtick_3">
     <g id="line2d_3">
      <g>
       <use xlink:href="#m8b93071a10" x="218.38061" y="307.584" style="stroke: #000000; stroke-width: 0.8"/>
      </g>
     </g>
     <g id="text_3">
      <!-- 1000 -->
      <g transform="translate(205.65561 322.182437)scale(0.1 -0.1)">
       <defs>
        <path id="DejaVuSans-31" d="M 794 531 
L 1825 531 
L 1825 4091 
L 703 3866 
L 703 4441 
L 1819 4666 
L 2450 4666 
L 2450 531 
L 3481 531 
L 3481 0 
L 794 0 
L 794 531 
z
" transform="scale(0.015625)"/>
       </defs>
       <use xlink:href="#DejaVuSans-31"/>
       <use xlink:href="#DejaVuSans-30" x="63.623047"/>
       <use xlink:href="#DejaVuSans-30" x="127.246094"/>
       <use xlink:href="#DejaVuSans-30" x="190.869141"/>
      </g>
     </g>
    </g>
    <g id="xtick_4">
     <g id="line2d_4">
      <g>
       <use xlink:href="#m8b93071a10" x="290.654552" y="307.584" style="stroke: #000000; stroke-width: 0.8"/>
      </g>
     </g>
     <g id="text_4">
      <!-- 1500 -->
      <g transform="translate(277.929552 322.182437)scale(0.1 -0.1)">
       <use xlink:href="#DejaVuSans-31"/>
       <use xlink:href="#DejaVuSans-35" x="63.623047"/>
       <use xlink:href="#DejaVuSans-30" x="127.246094"/>
       <use xlink:href="#DejaVuSans-30" x="190.869141"/>
      </g>
     </g>
    </g>
    <g id="xtick_5">
     <g id="line2d_5">
      <g>
       <use xlink:href="#m8b93071a10" x="362.928493" y="307.584" style="stroke: #000000; stroke-width: 0.8"/>
      </g>
     </g>
     <g id="text_5">
      <!-- 2000 -->
      <g transform="translate(350.203493 322.182437)scale(0.1 -0.1)">
       <defs>
        <path id="DejaVuSans-32" d="M 1228 531 
L 3431 531 
L 3431 0 
L 469 0 
L 469 531 
Q 828 903 1448 1529 
Q 2069 2156 2228 2338 
Q 2531 2678 2651 2914 
Q 2772 3150 2772 3378 
Q 2772 3750 2511 3984 
Q 2250 4219 1831 4219 
Q 1534 4219 1204 4116 
Q 875 4013 500 3803 
L 500 4441 
Q 881 4594 1212 4672 
Q 1544 4750 1819 4750 
Q 2544 4750 2975 4387 
Q 3406 4025 3406 3419 
Q 3406 3131 3298 2873 
Q 3191 2616 2906 2266 
Q 2828 2175 2409 1742 
Q 1991 1309 1228 531 
z
" transform="scale(0.015625)"/>
       </defs>
       <use xlink:href="#DejaVuSans-32"/>
       <use xlink:href="#DejaVuSans-30" x="63.623047"/>
       <use xlink:href="#DejaVuSans-30" x="127.246094"/>
       <use xlink:href="#DejaVuSans-30" x="190.869141"/>
      </g>
     </g>
    </g>
    <g id="text_6">
     <!-- num swaps -->
     <g transform="translate(207.826406 335.860562)scale(0.1 -0.1)">
      <defs>
       <path id="DejaVuSans-6e" d="M 3513 2113 
L 3513 0 
L 2938 0 
L 2938 2094 
Q 2938 2591 2744 2837 
Q 2550 3084 2163 3084 
Q 1697 3084 1428 2787 
Q 1159 2491 1159 1978 
L 1159 0 
L 581 0 
L 581 3500 
L 1159 3500 
L 1159 2956 
Q 1366 3272 1645 3428 
Q 1925 3584 2291 3584 
Q 2894 3584 3203 3211 
Q 3513 2838 3513 2113 
z
" transform="scale(0.015625)"/>
       <path id="DejaVuSans-75" d="M 544 1381 
L 544 3500 
L 1119 3500 
L 1119 1403 
Q 1119 906 1312 657 
Q 1506 409 1894 409 
Q 2359 409 2629 706 
Q 2900 1003 2900 1516 
L 2900 3500 
L 3475 3500 
L 3475 0 
L 2900 0 
L 2900 538 
Q 2691 219 2414 64 
Q 2138 -91 1772 -91 
Q 1169 -91 856 284 
Q 544 659 544 1381 
z
M 1991 3584 
L 1991 3584 
z
" transform="scale(0.015625)"/>
       <path id="DejaVuSans-6d" d="M 3328 2828 
Q 3544 3216 3844 3400 
Q 4144 3584 4550 3584 
Q 5097 3584 5394 3201 
Q 5691 2819 5691 2113 
L 5691 0 
L 5113 0 
L 5113 2094 
Q 5113 2597 4934 2840 
Q 4756 3084 4391 3084 
Q 3944 3084 3684 2787 
Q 3425 2491 3425 1978 
L 3425 0 
L 2847 0 
L 2847 2094 
Q 2847 2600 2669 2842 
Q 2491 3084 2119 3084 
Q 1678 3084 1418 2786 
Q 1159 2488 1159 1978 
L 1159 0 
L 581 0 
L 581 3500 
L 1159 3500 
L 1159 2956 
Q 1356 3278 1631 3431 
Q 1906 3584 2284 3584 
Q 2666 3584 2933 3390 
Q 3200 3197 3328 2828 
z
" transform="scale(0.015625)"/>
       <path id="DejaVuSans-20" transform="scale(0.015625)"/>
       <path id="DejaVuSans-73" d="M 2834 3397 
L 2834 2853 
Q 2591 2978 2328 3040 
Q 2066 3103 1784 3103 
Q 1356 3103 1142 2972 
Q 928 2841 928 2578 
Q 928 2378 1081 2264 
Q 1234 2150 1697 2047 
L 1894 2003 
Q 2506 1872 2764 1633 
Q 3022 1394 3022 966 
Q 3022 478 2636 193 
Q 2250 -91 1575 -91 
Q 1294 -91 989 -36 
Q 684 19 347 128 
L 347 722 
Q 666 556 975 473 
Q 1284 391 1588 391 
Q 1994 391 2212 530 
Q 2431 669 2431 922 
Q 2431 1156 2273 1281 
Q 2116 1406 1581 1522 
L 1381 1569 
Q 847 1681 609 1914 
Q 372 2147 372 2553 
Q 372 3047 722 3315 
Q 1072 3584 1716 3584 
Q 2034 3584 2315 3537 
Q 2597 3491 2834 3397 
z
" transform="scale(0.015625)"/>
       <path id="DejaVuSans-77" d="M 269 3500 
L 844 3500 
L 1563 769 
L 2278 3500 
L 2956 3500 
L 3675 769 
L 4391 3500 
L 4966 3500 
L 4050 0 
L 3372 0 
L 2619 2869 
L 1863 0 
L 1184 0 
L 269 3500 
z
" transform="scale(0.015625)"/>
       <path id="DejaVuSans-61" d="M 2194 1759 
Q 1497 1759 1228 1600 
Q 959 1441 959 1056 
Q 959 750 1161 570 
Q 1363 391 1709 391 
Q 2188 391 2477 730 
Q 2766 1069 2766 1631 
L 2766 1759 
L 2194 1759 
z
M 3341 1997 
L 3341 0 
L 2766 0 
L 2766 531 
Q 2569 213 2275 61 
Q 1981 -91 1556 -91 
Q 1019 -91 701 211 
Q 384 513 384 1019 
Q 384 1609 779 1909 
Q 1175 2209 1959 2209 
L 2766 2209 
L 2766 2266 
Q 2766 2663 2505 2880 
Q 2244 3097 1772 3097 
Q 1472 3097 1187 3025 
Q 903 2953 641 2809 
L 641 3341 
Q 956 3463 1253 3523 
Q 1550 3584 1831 3584 
Q 2591 3584 2966 3190 
Q 3341 2797 3341 1997 
z
" transform="scale(0.015625)"/>
       <path id="DejaVuSans-70" d="M 1159 525 
L 1159 -1331 
L 581 -1331 
L 581 3500 
L 1159 3500 
L 1159 2969 
Q 1341 3281 1617 3432 
Q 1894 3584 2278 3584 
Q 2916 3584 3314 3078 
Q 3713 2572 3713 1747 
Q 3713 922 3314 415 
Q 2916 -91 2278 -91 
Q 1894 -91 1617 61 
Q 1341 213 1159 525 
z
M 3116 1747 
Q 3116 2381 2855 2742 
Q 2594 3103 2138 3103 
Q 1681 3103 1420 2742 
Q 1159 2381 1159 1747 
Q 1159 1113 1420 752 
Q 1681 391 2138 391 
Q 2594 391 2855 752 
Q 3116 1113 3116 1747 
z
" transform="scale(0.015625)"/>
      </defs>
      <use xlink:href="#DejaVuSans-6e"/>
      <use xlink:href="#DejaVuSans-75" x="63.378906"/>
      <use xlink:href="#DejaVuSans-6d" x="126.757812"/>
      <use xlink:href="#DejaVuSans-20" x="224.169922"/>
      <use xlink:href="#DejaVuSans-73" x="255.957031"/>
      <use xlink:href="#DejaVuSans-77" x="308.056641"/>
      <use xlink:href="#DejaVuSans-61" x="389.84375"/>
      <use xlink:href="#DejaVuSans-70" x="451.123047"/>
      <use xlink:href="#DejaVuSans-73" x="514.599609"/>
     </g>
    </g>
   </g>
   <g id="matplotlib.axis_2">
    <g id="ytick_1">
     <g id="line2d_6">
      <defs>
       <path id="m228a08f3c2" d="M 0 0 
L -3.5 0 
" style="stroke: #000000; stroke-width: 0.8"/>
      </defs>
      <g>
       <use xlink:href="#m228a08f3c2" x="57.6" y="290.923472" style="stroke: #000000; stroke-width: 0.8"/>
      </g>
     </g>
     <g id="text_7">
      <!-- 560 -->
      <g transform="translate(31.5125 294.72269)scale(0.1 -0.1)">
       <defs>
        <path id="DejaVuSans-36" d="M 2113 2584 
Q 1688 2584 1439 2293 
Q 1191 2003 1191 1497 
Q 1191 994 1439 701 
Q 1688 409 2113 409 
Q 2538 409 2786 701 
Q 3034 994 3034 1497 
Q 3034 2003 2786 2293 
Q 2538 2584 2113 2584 
z
M 3366 4563 
L 3366 3988 
Q 3128 4100 2886 4159 
Q 2644 4219 2406 4219 
Q 1781 4219 1451 3797 
Q 1122 3375 1075 2522 
Q 1259 2794 1537 2939 
Q 1816 3084 2150 3084 
Q 2853 3084 3261 2657 
Q 3669 2231 3669 1497 
Q 3669 778 3244 343 
Q 2819 -91 2113 -91 
Q 1303 -91 875 529 
Q 447 1150 447 2328 
Q 447 3434 972 4092 
Q 1497 4750 2381 4750 
Q 2619 4750 2861 4703 
Q 3103 4656 3366 4563 
z
" transform="scale(0.015625)"/>
       </defs>
       <use xlink:href="#DejaVuSans-35"/>
       <use xlink:href="#DejaVuSans-36" x="63.623047"/>
       <use xlink:href="#DejaVuSans-30" x="127.246094"/>
      </g>
     </g>
    </g>
    <g id="ytick_2">
     <g id="line2d_7">
      <g>
       <use xlink:href="#m228a08f3c2" x="57.6" y="245.278189" style="stroke: #000000; stroke-width: 0.8"/>
      </g>
     </g>
     <g id="text_8">
      <!-- 580 -->
      <g transform="translate(31.5125 249.077407)scale(0.1 -0.1)">
       <defs>
        <path id="DejaVuSans-38" d="M 2034 2216 
Q 1584 2216 1326 1975 
Q 1069 1734 1069 1313 
Q 1069 891 1326 650 
Q 1584 409 2034 409 
Q 2484 409 2743 651 
Q 3003 894 3003 1313 
Q 3003 1734 2745 1975 
Q 2488 2216 2034 2216 
z
M 1403 2484 
Q 997 2584 770 2862 
Q 544 3141 544 3541 
Q 544 4100 942 4425 
Q 1341 4750 2034 4750 
Q 2731 4750 3128 4425 
Q 3525 4100 3525 3541 
Q 3525 3141 3298 2862 
Q 3072 2584 2669 2484 
Q 3125 2378 3379 2068 
Q 3634 1759 3634 1313 
Q 3634 634 3220 271 
Q 2806 -91 2034 -91 
Q 1263 -91 848 271 
Q 434 634 434 1313 
Q 434 1759 690 2068 
Q 947 2378 1403 2484 
z
M 1172 3481 
Q 1172 3119 1398 2916 
Q 1625 2713 2034 2713 
Q 2441 2713 2670 2916 
Q 2900 3119 2900 3481 
Q 2900 3844 2670 4047 
Q 2441 4250 2034 4250 
Q 1625 4250 1398 4047 
Q 1172 3844 1172 3481 
z
" transform="scale(0.015625)"/>
       </defs>
       <use xlink:href="#DejaVuSans-35"/>
       <use xlink:href="#DejaVuSans-38" x="63.623047"/>
       <use xlink:href="#DejaVuSans-30" x="127.246094"/>
      </g>
     </g>
    </g>
    <g id="ytick_3">
     <g id="line2d_8">
      <g>
       <use xlink:href="#m228a08f3c2" x="57.6" y="199.632906" style="stroke: #000000; stroke-width: 0.8"/>
      </g>
     </g>
     <g id="text_9">
      <!-- 600 -->
      <g transform="translate(31.5125 203.432124)scale(0.1 -0.1)">
       <use xlink:href="#DejaVuSans-36"/>
       <use xlink:href="#DejaVuSans-30" x="63.623047"/>
       <use xlink:href="#DejaVuSans-30" x="127.246094"/>
      </g>
     </g>
    </g>
    <g id="ytick_4">
     <g id="line2d_9">
      <g>
       <use xlink:href="#m228a08f3c2" x="57.6" y="153.987623" style="stroke: #000000; stroke-width: 0.8"/>
      </g>
     </g>
     <g id="text_10">
      <!-- 620 -->
      <g transform="translate(31.5125 157.786841)scale(0.1 -0.1)">
       <use xlink:href="#DejaVuSans-36"/>
       <use xlink:href="#DejaVuSans-32" x="63.623047"/>
       <use xlink:href="#DejaVuSans-30" x="127.246094"/>
      </g>
     </g>
    </g>
    <g id="ytick_5">
     <g id="line2d_10">
      <g>
       <use xlink:href="#m228a08f3c2" x="57.6" y="108.34234" style="stroke: #000000; stroke-width: 0.8"/>
      </g>
     </g>
     <g id="text_11">
      <!-- 640 -->
      <g transform="translate(31.5125 112.141558)scale(0.1 -0.1)">
       <defs>
        <path id="DejaVuSans-34" d="M 2419 4116 
L 825 1625 
L 2419 1625 
L 2419 4116 
z
M 2253 4666 
L 3047 4666 
L 3047 1625 
L 3713 1625 
L 3713 1100 
L 3047 1100 
L 3047 0 
L 2419 0 
L 2419 1100 
L 313 1100 
L 313 1709 
L 2253 4666 
z
" transform="scale(0.015625)"/>
       </defs>
       <use xlink:href="#DejaVuSans-36"/>
       <use xlink:href="#DejaVuSans-34" x="63.623047"/>
       <use xlink:href="#DejaVuSans-30" x="127.246094"/>
      </g>
     </g>
    </g>
    <g id="ytick_6">
     <g id="line2d_11">
      <g>
       <use xlink:href="#m228a08f3c2" x="57.6" y="62.697057" style="stroke: #000000; stroke-width: 0.8"/>
      </g>
     </g>
     <g id="text_12">
      <!-- 660 -->
      <g transform="translate(31.5125 66.496275)scale(0.1 -0.1)">
       <use xlink:href="#DejaVuSans-36"/>
       <use xlink:href="#DejaVuSans-36" x="63.623047"/>
       <use xlink:href="#DejaVuSans-30" x="127.246094"/>
      </g>
     </g>
    </g>
    <g id="text_13">
     <!-- total cost -->
     <g transform="translate(25.432812 197.923313)rotate(-90)scale(0.1 -0.1)">
      <defs>
       <path id="DejaVuSans-74" d="M 1172 4494 
L 1172 3500 
L 2356 3500 
L 2356 3053 
L 1172 3053 
L 1172 1153 
Q 1172 725 1289 603 
Q 1406 481 1766 481 
L 2356 481 
L 2356 0 
L 1766 0 
Q 1100 0 847 248 
Q 594 497 594 1153 
L 594 3053 
L 172 3053 
L 172 3500 
L 594 3500 
L 594 4494 
L 1172 4494 
z
" transform="scale(0.015625)"/>
       <path id="DejaVuSans-6f" d="M 1959 3097 
Q 1497 3097 1228 2736 
Q 959 2375 959 1747 
Q 959 1119 1226 758 
Q 1494 397 1959 397 
Q 2419 397 2687 759 
Q 2956 1122 2956 1747 
Q 2956 2369 2687 2733 
Q 2419 3097 1959 3097 
z
M 1959 3584 
Q 2709 3584 3137 3096 
Q 3566 2609 3566 1747 
Q 3566 888 3137 398 
Q 2709 -91 1959 -91 
Q 1206 -91 779 398 
Q 353 888 353 1747 
Q 353 2609 779 3096 
Q 1206 3584 1959 3584 
z
" transform="scale(0.015625)"/>
       <path id="DejaVuSans-6c" d="M 603 4863 
L 1178 4863 
L 1178 0 
L 603 0 
L 603 4863 
z
" transform="scale(0.015625)"/>
       <path id="DejaVuSans-63" d="M 3122 3366 
L 3122 2828 
Q 2878 2963 2633 3030 
Q 2388 3097 2138 3097 
Q 1578 3097 1268 2742 
Q 959 2388 959 1747 
Q 959 1106 1268 751 
Q 1578 397 2138 397 
Q 2388 397 2633 464 
Q 2878 531 3122 666 
L 3122 134 
Q 2881 22 2623 -34 
Q 2366 -91 2075 -91 
Q 1284 -91 818 406 
Q 353 903 353 1747 
Q 353 2603 823 3093 
Q 1294 3584 2113 3584 
Q 2378 3584 2631 3529 
Q 2884 3475 3122 3366 
z
" transform="scale(0.015625)"/>
      </defs>
      <use xlink:href="#DejaVuSans-74"/>
      <use xlink:href="#DejaVuSans-6f" x="39.208984"/>
      <use xlink:href="#DejaVuSans-74" x="100.390625"/>
      <use xlink:href="#DejaVuSans-61" x="139.599609"/>
      <use xlink:href="#DejaVuSans-6c" x="200.878906"/>
      <use xlink:href="#DejaVuSans-20" x="228.662109"/>
      <use xlink:href="#DejaVuSans-63" x="260.449219"/>
      <use xlink:href="#DejaVuSans-6f" x="315.429688"/>
      <use xlink:href="#DejaVuSans-73" x="376.611328"/>
      <use xlink:href="#DejaVuSans-74" x="428.710938"/>
     </g>
    </g>
   </g>
   <g id="line2d_12">
    <path d="M 73.832727 156.269887 
L 74.121823 163.116679 
L 74.410919 165.398943 
L 74.700015 151.705358 
L 74.98911 158.552151 
L 75.278206 144.858566 
L 75.567302 158.552151 
L 75.856398 156.269887 
L 76.145493 167.681208 
L 76.434589 165.398943 
L 76.723685 138.011774 
L 77.012781 138.011774 
L 77.301876 142.576302 
L 77.590972 133.447245 
L 77.880068 135.729509 
L 78.169164 149.423094 
L 78.45826 156.269887 
L 79.036451 151.705358 
L 79.325547 147.14083 
L 80.192834 169.963472 
L 80.48193 165.398943 
L 80.771026 149.423094 
L 81.060121 151.705358 
L 81.349217 135.729509 
L 81.638313 138.011774 
L 81.927409 131.164981 
L 82.216504 149.423094 
L 82.5056 149.423094 
L 82.794696 165.398943 
L 83.083792 169.963472 
L 83.372888 172.245736 
L 83.661983 169.963472 
L 84.240175 153.987623 
L 84.529271 156.269887 
L 84.818366 163.116679 
L 85.107462 190.503849 
L 85.396558 201.91517 
L 85.685654 199.632906 
L 85.974749 188.221585 
L 86.552941 176.810264 
L 86.842037 188.221585 
L 87.131133 188.221585 
L 87.420228 185.939321 
L 87.709324 188.221585 
L 87.99842 201.91517 
L 88.287516 188.221585 
L 88.576611 188.221585 
L 88.865707 179.092528 
L 89.154803 163.116679 
L 89.443899 163.116679 
L 89.732994 167.681208 
L 90.311186 135.729509 
L 90.600282 124.318189 
L 90.889377 135.729509 
L 91.178473 131.164981 
L 91.467569 153.987623 
L 92.045761 163.116679 
L 92.334856 165.398943 
L 92.623952 169.963472 
L 92.913048 172.245736 
L 93.202144 204.197434 
L 93.491239 206.479698 
L 93.780335 222.455547 
L 94.358527 192.786113 
L 94.647622 192.786113 
L 94.936718 188.221585 
L 95.225814 176.810264 
L 95.51491 176.810264 
L 95.804006 183.657057 
L 96.093101 179.092528 
L 96.382197 172.245736 
L 96.671293 174.528 
L 96.960389 169.963472 
L 97.827676 135.729509 
L 98.116772 115.189132 
L 98.405867 144.858566 
L 98.984059 165.398943 
L 99.56225 169.963472 
L 99.851346 174.528 
L 100.140442 192.786113 
L 100.429538 183.657057 
L 100.718634 181.374792 
L 101.296825 167.681208 
L 101.585921 165.398943 
L 102.164112 165.398943 
L 102.453208 167.681208 
L 102.742304 163.116679 
L 103.609591 156.269887 
L 103.898687 135.729509 
L 104.187783 126.600453 
L 104.476878 135.729509 
L 104.765974 133.447245 
L 105.05507 138.011774 
L 105.344166 133.447245 
L 105.633262 140.294038 
L 105.922357 151.705358 
L 106.211453 158.552151 
L 106.500549 156.269887 
L 106.789645 165.398943 
L 107.07874 165.398943 
L 107.367836 163.116679 
L 107.656932 158.552151 
L 107.946028 169.963472 
L 108.235123 172.245736 
L 108.813315 163.116679 
L 109.102411 156.269887 
L 109.391507 163.116679 
L 109.680602 165.398943 
L 109.969698 163.116679 
L 110.54789 140.294038 
L 110.836985 135.729509 
L 111.126081 122.035925 
L 111.415177 96.931019 
L 111.704273 101.495547 
L 111.993368 112.906868 
L 112.282464 115.189132 
L 112.57156 110.624604 
L 112.860656 117.471396 
L 113.149751 119.75366 
L 113.438847 94.648755 
L 113.727943 115.189132 
L 114.017039 117.471396 
L 114.306135 128.882717 
L 114.59523 131.164981 
L 114.884326 147.14083 
L 115.173422 142.576302 
L 115.462518 124.318189 
L 115.751613 119.75366 
L 116.040709 128.882717 
L 116.618901 94.648755 
L 117.197092 103.777811 
L 117.486188 117.471396 
L 117.775284 115.189132 
L 118.06438 124.318189 
L 118.353475 138.011774 
L 118.642571 138.011774 
L 118.931667 117.471396 
L 119.220763 117.471396 
L 119.798954 133.447245 
L 120.08805 131.164981 
L 120.377146 142.576302 
L 120.666241 131.164981 
L 120.955337 112.906868 
L 121.244433 131.164981 
L 121.533529 140.294038 
L 121.822624 128.882717 
L 122.11172 135.729509 
L 122.400816 128.882717 
L 122.689912 108.34234 
L 122.979008 69.543849 
L 123.557199 99.213283 
L 124.135391 78.672906 
L 124.424486 80.95517 
L 124.713582 67.261585 
L 125.002678 62.697057 
L 125.291774 67.261585 
L 125.869965 78.672906 
L 126.159061 83.237434 
L 126.448157 69.543849 
L 126.737252 78.672906 
L 127.026348 62.697057 
L 127.315444 62.697057 
L 127.60454 53.568 
L 127.893636 78.672906 
L 128.182731 76.390642 
L 128.471827 67.261585 
L 128.760923 78.672906 
L 129.050019 80.95517 
L 129.339114 90.084226 
L 129.62821 106.060075 
L 129.917306 106.060075 
L 130.206402 112.906868 
L 130.495497 115.189132 
L 130.784593 115.189132 
L 131.073689 126.600453 
L 131.362785 124.318189 
L 131.651881 108.34234 
L 131.940976 133.447245 
L 132.230072 128.882717 
L 132.519168 128.882717 
L 132.808264 117.471396 
L 133.097359 122.035925 
L 133.386455 128.882717 
L 133.964647 103.777811 
L 134.253742 108.34234 
L 134.542838 108.34234 
L 135.12103 153.987623 
L 135.410125 138.011774 
L 135.699221 144.858566 
L 135.988317 140.294038 
L 136.277413 153.987623 
L 136.855604 133.447245 
L 137.1447 131.164981 
L 137.433796 119.75366 
L 137.722892 140.294038 
L 138.011987 124.318189 
L 138.301083 144.858566 
L 138.590179 153.987623 
L 138.879275 147.14083 
L 139.457466 156.269887 
L 139.746562 158.552151 
L 140.035658 167.681208 
L 140.324754 160.834415 
L 140.613849 112.906868 
L 140.902945 110.624604 
L 141.192041 117.471396 
L 141.481137 112.906868 
L 141.770232 115.189132 
L 142.348424 110.624604 
L 142.63752 122.035925 
L 142.926615 138.011774 
L 143.215711 131.164981 
L 143.504807 156.269887 
L 144.082998 165.398943 
L 144.372094 179.092528 
L 144.66119 172.245736 
L 144.950286 188.221585 
L 145.239382 188.221585 
L 145.528477 169.963472 
L 145.817573 172.245736 
L 146.395765 213.326491 
L 146.68486 185.939321 
L 146.973956 188.221585 
L 147.263052 172.245736 
L 147.552148 165.398943 
L 147.841243 185.939321 
L 148.130339 188.221585 
L 148.419435 165.398943 
L 148.997626 135.729509 
L 149.286722 153.987623 
L 149.575818 133.447245 
L 150.15401 122.035925 
L 150.443105 128.882717 
L 150.732201 142.576302 
L 151.310393 156.269887 
L 151.599488 167.681208 
L 151.888584 185.939321 
L 152.17768 188.221585 
L 152.466776 179.092528 
L 152.755871 183.657057 
L 153.044967 192.786113 
L 153.334063 192.786113 
L 153.623159 174.528 
L 153.912255 174.528 
L 154.20135 176.810264 
L 154.490446 174.528 
L 154.779542 181.374792 
L 155.357733 185.939321 
L 155.646829 179.092528 
L 155.935925 179.092528 
L 156.225021 172.245736 
L 156.514116 183.657057 
L 156.803212 169.963472 
L 157.092308 167.681208 
L 157.381404 160.834415 
L 157.670499 163.116679 
L 157.959595 167.681208 
L 158.248691 208.761962 
L 158.537787 201.91517 
L 158.826883 204.197434 
L 159.405074 169.963472 
L 159.69417 179.092528 
L 159.983266 179.092528 
L 160.272361 176.810264 
L 160.561457 197.350642 
L 160.850553 190.503849 
L 161.139649 167.681208 
L 161.428744 158.552151 
L 161.71784 163.116679 
L 162.296032 167.681208 
L 162.585127 165.398943 
L 162.874223 165.398943 
L 163.163319 169.963472 
L 163.452415 169.963472 
L 163.741511 165.398943 
L 164.030606 167.681208 
L 164.608798 201.91517 
L 165.186989 185.939321 
L 165.476085 204.197434 
L 165.765181 195.068377 
L 166.054277 197.350642 
L 166.343372 201.91517 
L 166.632468 190.503849 
L 166.921564 190.503849 
L 167.21066 197.350642 
L 167.499756 195.068377 
L 167.788851 220.173283 
L 168.077947 222.455547 
L 168.367043 201.91517 
L 168.656139 213.326491 
L 168.945234 197.350642 
L 169.23433 201.91517 
L 169.523426 192.786113 
L 169.812522 190.503849 
L 170.101617 181.374792 
L 170.390713 185.939321 
L 170.679809 204.197434 
L 170.968905 179.092528 
L 171.258 181.374792 
L 171.547096 192.786113 
L 171.836192 197.350642 
L 172.125288 211.044226 
L 172.414384 217.891019 
L 172.703479 217.891019 
L 172.992575 199.632906 
L 173.281671 211.044226 
L 173.570767 201.91517 
L 173.859862 204.197434 
L 174.148958 224.737811 
L 174.72715 224.737811 
L 175.016245 206.479698 
L 175.305341 217.891019 
L 175.594437 220.173283 
L 175.883533 213.326491 
L 176.172629 213.326491 
L 176.75082 197.350642 
L 177.039916 197.350642 
L 177.329012 179.092528 
L 177.618107 195.068377 
L 177.907203 229.30234 
L 178.196299 229.30234 
L 178.485395 224.737811 
L 178.77449 233.866868 
L 179.063586 236.149132 
L 179.352682 233.866868 
L 179.641778 229.30234 
L 179.930873 254.407245 
L 180.509065 270.383094 
L 180.798161 265.818566 
L 181.087257 272.665358 
L 181.376352 286.358943 
L 181.665448 279.512151 
L 181.954544 279.512151 
L 182.24364 295.488 
L 182.532735 295.488 
L 182.821831 279.512151 
L 183.110927 270.383094 
L 183.400023 270.383094 
L 183.689118 254.407245 
L 183.978214 252.124981 
L 184.556406 277.229887 
L 184.845501 270.383094 
L 185.134597 286.358943 
L 185.423693 286.358943 
L 185.712789 265.818566 
L 186.001885 272.665358 
L 186.29098 261.254038 
L 186.580076 263.536302 
L 186.869172 254.407245 
L 187.158268 263.536302 
L 187.447363 268.10083 
L 188.025555 252.124981 
L 188.314651 258.971774 
L 188.603746 270.383094 
L 188.892842 254.407245 
L 189.181938 245.278189 
L 190.049225 245.278189 
L 190.338321 233.866868 
L 190.627417 233.866868 
L 191.205608 242.995925 
L 191.494704 238.431396 
L 191.7838 236.149132 
L 192.072896 238.431396 
L 192.361991 231.584604 
L 192.940183 236.149132 
L 193.229279 256.689509 
L 193.518374 263.536302 
L 193.80747 258.971774 
L 194.096566 263.536302 
L 194.385662 265.818566 
L 194.674758 247.560453 
L 194.963853 254.407245 
L 195.252949 268.10083 
L 195.542045 265.818566 
L 195.831141 258.971774 
L 196.120236 256.689509 
L 196.409332 270.383094 
L 196.698428 263.536302 
L 196.987524 261.254038 
L 197.276619 263.536302 
L 197.565715 281.794415 
L 198.143907 277.229887 
L 198.433003 247.560453 
L 198.722098 254.407245 
L 199.011194 252.124981 
L 199.30029 238.431396 
L 199.589386 233.866868 
L 199.878481 242.995925 
L 200.167577 238.431396 
L 200.745769 247.560453 
L 201.034864 256.689509 
L 201.32396 272.665358 
L 201.613056 258.971774 
L 201.902152 254.407245 
L 202.480343 238.431396 
L 203.058535 252.124981 
L 203.347631 252.124981 
L 203.636726 238.431396 
L 203.925822 240.71366 
L 204.214918 240.71366 
L 204.504014 206.479698 
L 204.793109 211.044226 
L 205.082205 238.431396 
L 205.371301 238.431396 
L 205.660397 231.584604 
L 205.949492 231.584604 
L 206.238588 229.30234 
L 206.527684 220.173283 
L 206.81678 238.431396 
L 207.105875 229.30234 
L 207.394971 224.737811 
L 207.684067 238.431396 
L 207.973163 240.71366 
L 208.262259 240.71366 
L 208.551354 252.124981 
L 208.84045 236.149132 
L 209.129546 213.326491 
L 209.418642 201.91517 
L 209.707737 208.761962 
L 210.285929 199.632906 
L 210.86412 199.632906 
L 211.153216 206.479698 
L 211.442312 220.173283 
L 211.731408 215.608755 
L 212.020504 217.891019 
L 212.309599 213.326491 
L 212.598695 201.91517 
L 212.887791 206.479698 
L 213.176887 206.479698 
L 213.465982 204.197434 
L 213.755078 208.761962 
L 214.044174 206.479698 
L 214.33327 208.761962 
L 214.622365 215.608755 
L 215.200557 199.632906 
L 215.489653 156.269887 
L 215.778748 140.294038 
L 216.067844 153.987623 
L 216.35694 160.834415 
L 216.935132 190.503849 
L 217.224227 195.068377 
L 217.513323 188.221585 
L 218.091515 188.221585 
L 218.669706 215.608755 
L 218.958802 211.044226 
L 219.247898 185.939321 
L 219.536993 197.350642 
L 219.826089 192.786113 
L 220.115185 197.350642 
L 220.404281 183.657057 
L 220.693377 185.939321 
L 220.982472 195.068377 
L 221.271568 195.068377 
L 221.560664 190.503849 
L 221.84976 197.350642 
L 222.138855 192.786113 
L 222.427951 185.939321 
L 222.717047 185.939321 
L 223.006143 199.632906 
L 223.295238 192.786113 
L 223.584334 197.350642 
L 223.87343 190.503849 
L 224.162526 188.221585 
L 224.451621 181.374792 
L 224.740717 206.479698 
L 225.318909 190.503849 
L 225.608005 183.657057 
L 225.8971 185.939321 
L 226.186196 190.503849 
L 226.475292 174.528 
L 226.764388 222.455547 
L 227.053483 227.020075 
L 227.342579 227.020075 
L 227.631675 233.866868 
L 227.920771 211.044226 
L 228.209866 217.891019 
L 228.498962 208.761962 
L 228.788058 208.761962 
L 229.077154 220.173283 
L 229.366249 224.737811 
L 229.655345 224.737811 
L 229.944441 206.479698 
L 230.233537 217.891019 
L 230.522633 211.044226 
L 230.811728 215.608755 
L 231.100824 213.326491 
L 231.38992 217.891019 
L 231.679016 217.891019 
L 231.968111 204.197434 
L 232.257207 197.350642 
L 232.546303 185.939321 
L 232.835399 201.91517 
L 233.124494 206.479698 
L 233.41359 208.761962 
L 233.991782 229.30234 
L 234.280878 215.608755 
L 234.569973 233.866868 
L 234.859069 242.995925 
L 235.148165 227.020075 
L 235.437261 222.455547 
L 235.726356 206.479698 
L 236.304548 238.431396 
L 236.593644 231.584604 
L 236.882739 238.431396 
L 237.171835 233.866868 
L 237.460931 256.689509 
L 237.750027 256.689509 
L 238.328218 265.818566 
L 238.617314 261.254038 
L 238.90641 272.665358 
L 239.195506 265.818566 
L 239.484601 277.229887 
L 239.773697 274.947623 
L 240.062793 261.254038 
L 240.351889 236.149132 
L 240.640984 240.71366 
L 240.93008 240.71366 
L 241.219176 227.020075 
L 241.508272 227.020075 
L 241.797367 229.30234 
L 242.086463 220.173283 
L 242.375559 231.584604 
L 242.664655 206.479698 
L 242.953751 242.995925 
L 243.242846 249.842717 
L 243.531942 238.431396 
L 243.821038 222.455547 
L 244.110134 217.891019 
L 244.399229 227.020075 
L 244.688325 245.278189 
L 244.977421 240.71366 
L 245.266517 238.431396 
L 246.133804 258.971774 
L 247.001091 238.431396 
L 247.290187 238.431396 
L 247.579283 249.842717 
L 248.157474 261.254038 
L 248.44657 249.842717 
L 248.735666 249.842717 
L 249.313857 227.020075 
L 249.602953 227.020075 
L 249.892049 222.455547 
L 250.181145 227.020075 
L 250.47024 224.737811 
L 250.759336 224.737811 
L 251.337528 199.632906 
L 251.626623 206.479698 
L 251.915719 208.761962 
L 252.204815 174.528 
L 252.493911 167.681208 
L 252.783007 156.269887 
L 253.072102 138.011774 
L 253.361198 163.116679 
L 253.650294 160.834415 
L 254.517581 206.479698 
L 254.806677 204.197434 
L 255.095773 215.608755 
L 255.673964 188.221585 
L 255.96306 192.786113 
L 256.252156 208.761962 
L 256.541252 190.503849 
L 256.830347 197.350642 
L 257.119443 199.632906 
L 257.408539 195.068377 
L 257.697635 197.350642 
L 257.98673 206.479698 
L 258.275826 201.91517 
L 258.564922 213.326491 
L 258.854018 192.786113 
L 259.143113 206.479698 
L 259.432209 213.326491 
L 259.721305 211.044226 
L 260.010401 204.197434 
L 260.299496 206.479698 
L 260.588592 204.197434 
L 260.877688 211.044226 
L 261.166784 206.479698 
L 261.744975 215.608755 
L 262.034071 222.455547 
L 262.323167 224.737811 
L 262.901358 204.197434 
L 263.190454 206.479698 
L 263.47955 204.197434 
L 263.768646 206.479698 
L 264.057741 215.608755 
L 264.346837 195.068377 
L 264.635933 195.068377 
L 264.925029 181.374792 
L 265.214125 179.092528 
L 265.50322 181.374792 
L 265.792316 197.350642 
L 266.081412 172.245736 
L 266.370508 179.092528 
L 266.659603 179.092528 
L 266.948699 174.528 
L 267.237795 138.011774 
L 267.526891 142.576302 
L 267.815986 140.294038 
L 268.105082 135.729509 
L 268.394178 112.906868 
L 268.683274 138.011774 
L 268.972369 133.447245 
L 269.261465 106.060075 
L 269.839657 140.294038 
L 270.128753 142.576302 
L 270.417848 158.552151 
L 270.706944 149.423094 
L 271.574231 188.221585 
L 271.863327 176.810264 
L 272.152423 172.245736 
L 272.441519 188.221585 
L 272.730614 188.221585 
L 273.01971 208.761962 
L 273.308806 206.479698 
L 273.597902 192.786113 
L 273.886997 195.068377 
L 274.176093 192.786113 
L 274.465189 185.939321 
L 274.754285 188.221585 
L 275.043381 176.810264 
L 275.332476 174.528 
L 275.621572 160.834415 
L 275.910668 185.939321 
L 276.199764 169.963472 
L 276.777955 169.963472 
L 277.067051 160.834415 
L 277.356147 156.269887 
L 277.645242 138.011774 
L 277.934338 140.294038 
L 278.223434 135.729509 
L 278.51253 133.447245 
L 278.801626 128.882717 
L 279.090721 138.011774 
L 279.379817 126.600453 
L 279.668913 128.882717 
L 279.958009 142.576302 
L 280.247104 149.423094 
L 280.5362 149.423094 
L 280.825296 144.858566 
L 281.114392 147.14083 
L 281.403487 192.786113 
L 281.692583 179.092528 
L 281.981679 188.221585 
L 282.270775 183.657057 
L 282.848966 153.987623 
L 283.138062 153.987623 
L 283.427158 156.269887 
L 283.716254 149.423094 
L 284.005349 149.423094 
L 284.294445 135.729509 
L 284.583541 103.777811 
L 284.872637 108.34234 
L 285.161732 108.34234 
L 285.450828 119.75366 
L 285.739924 96.931019 
L 286.318115 101.495547 
L 286.607211 99.213283 
L 286.896307 119.75366 
L 287.185403 115.189132 
L 287.474499 108.34234 
L 288.05269 128.882717 
L 288.341786 131.164981 
L 288.630882 103.777811 
L 288.919977 92.366491 
L 289.209073 96.931019 
L 289.498169 108.34234 
L 289.787265 115.189132 
L 290.07636 131.164981 
L 290.365456 124.318189 
L 290.654552 124.318189 
L 290.943648 126.600453 
L 291.232743 117.471396 
L 291.810935 156.269887 
L 292.100031 163.116679 
L 292.389127 188.221585 
L 292.967318 192.786113 
L 293.256414 183.657057 
L 293.54551 179.092528 
L 293.834605 181.374792 
L 294.123701 188.221585 
L 294.412797 215.608755 
L 294.701893 217.891019 
L 294.990988 197.350642 
L 295.280084 192.786113 
L 295.56918 172.245736 
L 295.858276 165.398943 
L 296.147371 165.398943 
L 296.436467 160.834415 
L 296.725563 149.423094 
L 297.303755 140.294038 
L 297.59285 160.834415 
L 297.881946 156.269887 
L 298.171042 144.858566 
L 298.460138 144.858566 
L 298.749233 128.882717 
L 299.038329 128.882717 
L 299.327425 126.600453 
L 299.616521 133.447245 
L 299.905616 126.600453 
L 300.194712 128.882717 
L 300.772904 156.269887 
L 301.062 167.681208 
L 301.351095 167.681208 
L 301.640191 165.398943 
L 301.929287 147.14083 
L 302.507478 138.011774 
L 302.796574 138.011774 
L 303.08567 133.447245 
L 303.374766 142.576302 
L 303.663861 158.552151 
L 303.952957 160.834415 
L 304.242053 160.834415 
L 304.531149 156.269887 
L 304.820244 147.14083 
L 305.10934 144.858566 
L 305.398436 156.269887 
L 305.687532 156.269887 
L 306.843915 128.882717 
L 307.133011 131.164981 
L 307.422106 144.858566 
L 307.711202 131.164981 
L 308.000298 135.729509 
L 308.289394 131.164981 
L 308.578489 128.882717 
L 308.867585 147.14083 
L 309.156681 149.423094 
L 309.445777 153.987623 
L 310.313064 190.503849 
L 310.60216 195.068377 
L 310.891256 190.503849 
L 311.180351 197.350642 
L 311.469447 197.350642 
L 311.758543 217.891019 
L 312.047639 199.632906 
L 312.336734 197.350642 
L 312.62583 211.044226 
L 312.914926 208.761962 
L 313.204022 204.197434 
L 313.493117 217.891019 
L 313.782213 222.455547 
L 314.071309 220.173283 
L 314.360405 224.737811 
L 314.649501 211.044226 
L 314.938596 213.326491 
L 315.227692 222.455547 
L 315.805884 227.020075 
L 316.094979 217.891019 
L 316.384075 236.149132 
L 316.673171 233.866868 
L 316.962267 217.891019 
L 317.251362 220.173283 
L 317.540458 204.197434 
L 318.11865 183.657057 
L 318.407745 185.939321 
L 318.696841 192.786113 
L 318.985937 163.116679 
L 319.275033 174.528 
L 319.564129 169.963472 
L 319.853224 181.374792 
L 320.14232 174.528 
L 320.431416 174.528 
L 320.720512 176.810264 
L 321.298703 151.705358 
L 321.587799 160.834415 
L 321.876895 195.068377 
L 322.16599 190.503849 
L 322.455086 167.681208 
L 323.033278 158.552151 
L 323.322374 174.528 
L 324.189661 151.705358 
L 324.478757 140.294038 
L 324.767852 165.398943 
L 325.056948 167.681208 
L 325.346044 201.91517 
L 325.63514 174.528 
L 325.924235 174.528 
L 326.213331 179.092528 
L 326.502427 176.810264 
L 326.791523 176.810264 
L 327.65881 231.584604 
L 327.947906 227.020075 
L 328.237002 233.866868 
L 328.526097 252.124981 
L 328.815193 258.971774 
L 329.104289 249.842717 
L 329.393385 249.842717 
L 329.68248 242.995925 
L 329.971576 245.278189 
L 330.260672 245.278189 
L 330.549768 224.737811 
L 330.838863 227.020075 
L 331.127959 233.866868 
L 331.417055 233.866868 
L 331.706151 236.149132 
L 331.995246 231.584604 
L 332.284342 249.842717 
L 332.573438 245.278189 
L 333.15163 254.407245 
L 333.440725 252.124981 
L 333.729821 256.689509 
L 334.018917 249.842717 
L 334.597108 263.536302 
L 334.886204 252.124981 
L 335.1753 229.30234 
L 335.464396 231.584604 
L 335.753491 231.584604 
L 336.042587 204.197434 
L 336.331683 199.632906 
L 336.620779 201.91517 
L 336.909875 206.479698 
L 337.488066 197.350642 
L 337.777162 199.632906 
L 338.066258 211.044226 
L 338.355353 215.608755 
L 338.644449 222.455547 
L 338.933545 217.891019 
L 339.222641 229.30234 
L 339.511736 227.020075 
L 339.800832 211.044226 
L 340.089928 215.608755 
L 340.379024 213.326491 
L 340.668119 213.326491 
L 340.957215 211.044226 
L 341.246311 206.479698 
L 341.535407 208.761962 
L 341.824503 195.068377 
L 342.113598 188.221585 
L 342.402694 185.939321 
L 342.69179 192.786113 
L 342.980886 195.068377 
L 343.269981 174.528 
L 343.559077 179.092528 
L 343.848173 199.632906 
L 344.137269 185.939321 
L 344.71546 231.584604 
L 345.004556 233.866868 
L 345.293652 199.632906 
L 345.582748 197.350642 
L 345.871843 197.350642 
L 346.160939 201.91517 
L 346.739131 206.479698 
L 347.028226 197.350642 
L 347.317322 192.786113 
L 347.606418 172.245736 
L 347.895514 174.528 
L 348.184609 179.092528 
L 348.473705 172.245736 
L 348.762801 174.528 
L 349.051897 169.963472 
L 349.340992 190.503849 
L 349.630088 199.632906 
L 349.919184 169.963472 
L 350.20828 176.810264 
L 350.497376 158.552151 
L 350.786471 156.269887 
L 351.364663 181.374792 
L 351.653759 185.939321 
L 352.521046 163.116679 
L 352.810142 165.398943 
L 353.099237 179.092528 
L 353.388333 179.092528 
L 353.677429 185.939321 
L 353.966525 156.269887 
L 354.25562 169.963472 
L 354.544716 158.552151 
L 354.833812 176.810264 
L 355.122908 169.963472 
L 355.412004 167.681208 
L 355.701099 183.657057 
L 356.279291 195.068377 
L 356.568387 192.786113 
L 356.857482 147.14083 
L 357.146578 133.447245 
L 357.72477 128.882717 
L 358.013865 115.189132 
L 358.302961 119.75366 
L 358.592057 117.471396 
L 358.881153 124.318189 
L 359.170249 122.035925 
L 359.459344 110.624604 
L 359.74844 144.858566 
L 360.037536 153.987623 
L 360.326632 156.269887 
L 360.615727 179.092528 
L 360.904823 172.245736 
L 361.193919 172.245736 
L 361.77211 201.91517 
L 362.350302 169.963472 
L 362.639398 169.963472 
L 362.928493 128.882717 
L 363.506685 160.834415 
L 364.084877 131.164981 
L 364.373972 106.060075 
L 364.663068 96.931019 
L 364.952164 108.34234 
L 365.24126 124.318189 
L 365.530355 126.600453 
L 365.819451 126.600453 
L 366.108547 124.318189 
L 366.397643 119.75366 
L 366.686738 112.906868 
L 366.975834 117.471396 
L 367.26493 117.471396 
L 367.554026 133.447245 
L 367.843122 122.035925 
L 368.132217 119.75366 
L 368.421313 144.858566 
L 368.710409 142.576302 
L 368.999505 135.729509 
L 369.2886 135.729509 
L 369.577696 144.858566 
L 369.866792 144.858566 
L 370.734079 169.963472 
L 371.023175 174.528 
L 371.312271 169.963472 
L 371.601366 169.963472 
L 371.890462 181.374792 
L 373.046845 144.858566 
L 373.625037 149.423094 
L 373.914133 153.987623 
L 374.203228 149.423094 
L 374.492324 153.987623 
L 374.78142 138.011774 
L 375.070516 128.882717 
L 375.359611 138.011774 
L 375.648707 142.576302 
L 375.937803 115.189132 
L 376.226899 112.906868 
L 376.515994 106.060075 
L 376.80509 108.34234 
L 377.094186 106.060075 
L 377.672378 117.471396 
L 378.250569 112.906868 
L 378.539665 119.75366 
L 378.828761 112.906868 
L 379.117856 117.471396 
L 379.406952 115.189132 
L 379.696048 124.318189 
L 379.985144 108.34234 
L 380.274239 106.060075 
L 380.563335 101.495547 
L 380.852431 92.366491 
L 381.141527 103.777811 
L 381.430623 96.931019 
L 381.719718 94.648755 
L 382.008814 103.777811 
L 382.29791 122.035925 
L 382.587006 110.624604 
L 382.876101 106.060075 
L 383.165197 103.777811 
L 383.454293 106.060075 
L 383.743389 106.060075 
L 384.032484 110.624604 
L 384.32158 110.624604 
L 384.610676 103.777811 
L 384.899772 110.624604 
L 385.188867 101.495547 
L 385.477963 110.624604 
L 385.767059 115.189132 
L 386.056155 112.906868 
L 386.345251 99.213283 
L 386.634346 103.777811 
L 386.923442 103.777811 
L 387.212538 90.084226 
L 387.501634 96.931019 
L 387.790729 96.931019 
L 388.079825 85.519698 
L 388.368921 101.495547 
L 388.947112 112.906868 
L 389.525304 117.471396 
L 389.8144 124.318189 
L 390.103496 117.471396 
L 390.392591 142.576302 
L 390.970783 142.576302 
L 391.259879 140.294038 
L 391.548974 144.858566 
L 392.127166 158.552151 
L 392.416262 158.552151 
L 392.705357 172.245736 
L 392.994453 192.786113 
L 393.283549 190.503849 
L 393.572645 199.632906 
L 393.86174 199.632906 
L 394.150836 236.149132 
L 394.439932 231.584604 
L 394.729028 215.608755 
L 395.018124 220.173283 
L 395.307219 217.891019 
L 396.174507 165.398943 
L 396.463602 183.657057 
L 396.752698 172.245736 
L 397.041794 183.657057 
L 397.33089 183.657057 
L 397.619985 199.632906 
L 397.909081 195.068377 
L 398.198177 217.891019 
L 398.487273 215.608755 
L 398.487273 215.608755 
" clip-path="url(#p31326d772e)" style="fill: none; stroke: #1f77b4; stroke-width: 1.5; stroke-linecap: square"/>
   </g>
   <g id="patch_3">
    <path d="M 57.6 307.584 
L 57.6 41.472 
" style="fill: none; stroke: #000000; stroke-width: 0.8; stroke-linejoin: miter; stroke-linecap: square"/>
   </g>
   <g id="patch_4">
    <path d="M 414.72 307.584 
L 414.72 41.472 
" style="fill: none; stroke: #000000; stroke-width: 0.8; stroke-linejoin: miter; stroke-linecap: square"/>
   </g>
   <g id="patch_5">
    <path d="M 57.6 307.584 
L 414.72 307.584 
" style="fill: none; stroke: #000000; stroke-width: 0.8; stroke-linejoin: miter; stroke-linecap: square"/>
   </g>
   <g id="patch_6">
    <path d="M 57.6 41.472 
L 414.72 41.472 
" style="fill: none; stroke: #000000; stroke-width: 0.8; stroke-linejoin: miter; stroke-linecap: square"/>
   </g>
   <g id="text_14">
    <!-- Simulated Anealling Cost -->
    <g transform="translate(160.8 35.472)scale(0.12 -0.12)">
     <defs>
      <path id="DejaVuSans-53" d="M 3425 4513 
L 3425 3897 
Q 3066 4069 2747 4153 
Q 2428 4238 2131 4238 
Q 1616 4238 1336 4038 
Q 1056 3838 1056 3469 
Q 1056 3159 1242 3001 
Q 1428 2844 1947 2747 
L 2328 2669 
Q 3034 2534 3370 2195 
Q 3706 1856 3706 1288 
Q 3706 609 3251 259 
Q 2797 -91 1919 -91 
Q 1588 -91 1214 -16 
Q 841 59 441 206 
L 441 856 
Q 825 641 1194 531 
Q 1563 422 1919 422 
Q 2459 422 2753 634 
Q 3047 847 3047 1241 
Q 3047 1584 2836 1778 
Q 2625 1972 2144 2069 
L 1759 2144 
Q 1053 2284 737 2584 
Q 422 2884 422 3419 
Q 422 4038 858 4394 
Q 1294 4750 2059 4750 
Q 2388 4750 2728 4690 
Q 3069 4631 3425 4513 
z
" transform="scale(0.015625)"/>
      <path id="DejaVuSans-69" d="M 603 3500 
L 1178 3500 
L 1178 0 
L 603 0 
L 603 3500 
z
M 603 4863 
L 1178 4863 
L 1178 4134 
L 603 4134 
L 603 4863 
z
" transform="scale(0.015625)"/>
      <path id="DejaVuSans-65" d="M 3597 1894 
L 3597 1613 
L 953 1613 
Q 991 1019 1311 708 
Q 1631 397 2203 397 
Q 2534 397 2845 478 
Q 3156 559 3463 722 
L 3463 178 
Q 3153 47 2828 -22 
Q 2503 -91 2169 -91 
Q 1331 -91 842 396 
Q 353 884 353 1716 
Q 353 2575 817 3079 
Q 1281 3584 2069 3584 
Q 2775 3584 3186 3129 
Q 3597 2675 3597 1894 
z
M 3022 2063 
Q 3016 2534 2758 2815 
Q 2500 3097 2075 3097 
Q 1594 3097 1305 2825 
Q 1016 2553 972 2059 
L 3022 2063 
z
" transform="scale(0.015625)"/>
      <path id="DejaVuSans-64" d="M 2906 2969 
L 2906 4863 
L 3481 4863 
L 3481 0 
L 2906 0 
L 2906 525 
Q 2725 213 2448 61 
Q 2172 -91 1784 -91 
Q 1150 -91 751 415 
Q 353 922 353 1747 
Q 353 2572 751 3078 
Q 1150 3584 1784 3584 
Q 2172 3584 2448 3432 
Q 2725 3281 2906 2969 
z
M 947 1747 
Q 947 1113 1208 752 
Q 1469 391 1925 391 
Q 2381 391 2643 752 
Q 2906 1113 2906 1747 
Q 2906 2381 2643 2742 
Q 2381 3103 1925 3103 
Q 1469 3103 1208 2742 
Q 947 2381 947 1747 
z
" transform="scale(0.015625)"/>
      <path id="DejaVuSans-41" d="M 2188 4044 
L 1331 1722 
L 3047 1722 
L 2188 4044 
z
M 1831 4666 
L 2547 4666 
L 4325 0 
L 3669 0 
L 3244 1197 
L 1141 1197 
L 716 0 
L 50 0 
L 1831 4666 
z
" transform="scale(0.015625)"/>
      <path id="DejaVuSans-67" d="M 2906 1791 
Q 2906 2416 2648 2759 
Q 2391 3103 1925 3103 
Q 1463 3103 1205 2759 
Q 947 2416 947 1791 
Q 947 1169 1205 825 
Q 1463 481 1925 481 
Q 2391 481 2648 825 
Q 2906 1169 2906 1791 
z
M 3481 434 
Q 3481 -459 3084 -895 
Q 2688 -1331 1869 -1331 
Q 1566 -1331 1297 -1286 
Q 1028 -1241 775 -1147 
L 775 -588 
Q 1028 -725 1275 -790 
Q 1522 -856 1778 -856 
Q 2344 -856 2625 -561 
Q 2906 -266 2906 331 
L 2906 616 
Q 2728 306 2450 153 
Q 2172 0 1784 0 
Q 1141 0 747 490 
Q 353 981 353 1791 
Q 353 2603 747 3093 
Q 1141 3584 1784 3584 
Q 2172 3584 2450 3431 
Q 2728 3278 2906 2969 
L 2906 3500 
L 3481 3500 
L 3481 434 
z
" transform="scale(0.015625)"/>
      <path id="DejaVuSans-43" d="M 4122 4306 
L 4122 3641 
Q 3803 3938 3442 4084 
Q 3081 4231 2675 4231 
Q 1875 4231 1450 3742 
Q 1025 3253 1025 2328 
Q 1025 1406 1450 917 
Q 1875 428 2675 428 
Q 3081 428 3442 575 
Q 3803 722 4122 1019 
L 4122 359 
Q 3791 134 3420 21 
Q 3050 -91 2638 -91 
Q 1578 -91 968 557 
Q 359 1206 359 2328 
Q 359 3453 968 4101 
Q 1578 4750 2638 4750 
Q 3056 4750 3426 4639 
Q 3797 4528 4122 4306 
z
" transform="scale(0.015625)"/>
     </defs>
     <use xlink:href="#DejaVuSans-53"/>
     <use xlink:href="#DejaVuSans-69" x="63.476562"/>
     <use xlink:href="#DejaVuSans-6d" x="91.259766"/>
     <use xlink:href="#DejaVuSans-75" x="188.671875"/>
     <use xlink:href="#DejaVuSans-6c" x="252.050781"/>
     <use xlink:href="#DejaVuSans-61" x="279.833984"/>
     <use xlink:href="#DejaVuSans-74" x="341.113281"/>
     <use xlink:href="#DejaVuSans-65" x="380.322266"/>
     <use xlink:href="#DejaVuSans-64" x="441.845703"/>
     <use xlink:href="#DejaVuSans-20" x="505.322266"/>
     <use xlink:href="#DejaVuSans-41" x="537.109375"/>
     <use xlink:href="#DejaVuSans-6e" x="605.517578"/>
     <use xlink:href="#DejaVuSans-65" x="668.896484"/>
     <use xlink:href="#DejaVuSans-61" x="730.419922"/>
     <use xlink:href="#DejaVuSans-6c" x="791.699219"/>
     <use xlink:href="#DejaVuSans-6c" x="819.482422"/>
     <use xlink:href="#DejaVuSans-69" x="847.265625"/>
     <use xlink:href="#DejaVuSans-6e" x="875.048828"/>
     <use xlink:href="#DejaVuSans-67" x="938.427734"/>
     <use xlink:href="#DejaVuSans-20" x="1001.904297"/>
     <use xlink:href="#DejaVuSans-43" x="1033.691406"/>
     <use xlink:href="#DejaVuSans-6f" x="1103.515625"/>
     <use xlink:href="#DejaVuSans-73" x="1164.697266"/>
     <use xlink:href="#DejaVuSans-74" x="1216.796875"/>
    </g>
   </g>
  </g>
 </g>
 <defs>
  <clipPath id="p31326d772e">
   <rect x="57.6" y="41.472" width="357.12" height="266.112"/>
  </clipPath>
 </defs>
</svg>
