<?xml version="1.0" encoding="utf-8" standalone="no"?>
<!DOCTYPE svg PUBLIC "-//W3C//DTD SVG 1.1//EN"
  "http://www.w3.org/Graphics/SVG/1.1/DTD/svg11.dtd">
<svg xmlns:xlink="http://www.w3.org/1999/xlink" width="460.8pt" height="345.6pt" viewBox="0 0 460.8 345.6" xmlns="http://www.w3.org/2000/svg" version="1.1">
 <metadata>
  <rdf:RDF xmlns:dc="http://purl.org/dc/elements/1.1/" xmlns:cc="http://creativecommons.org/ns#" xmlns:rdf="http://www.w3.org/1999/02/22-rdf-syntax-ns#">
   <cc:Work>
    <dc:type rdf:resource="http://purl.org/dc/dcmitype/StillImage"/>
    <dc:date>2022-06-01T08:06:48.471124</dc:date>
    <dc:format>image/svg+xml</dc:format>
    <dc:creator>
     <cc:Agent>
      <dc:title>Matplotlib v3.5.1, https://matplotlib.org/</dc:title>
     </cc:Agent>
    </dc:creator>
   </cc:Work>
  </rdf:RDF>
 </metadata>
 <defs>
  <style type="text/css">*{stroke-linejoin: round; stroke-linecap: butt}</style>
 </defs>
 <g id="figure_1">
  <g id="patch_1">
   <path d="M 0 345.6 
L 460.8 345.6 
L 460.8 0 
L 0 0 
z
" style="fill: #ffffff"/>
  </g>
  <g id="axes_1">
   <g id="patch_2">
    <path d="M 57.6 307.584 
L 414.72 307.584 
L 414.72 41.472 
L 57.6 41.472 
z
" style="fill: #ffffff"/>
   </g>
   <g id="matplotlib.axis_1">
    <g id="xtick_1">
     <g id="line2d_1">
      <defs>
       <path id="m7ed745280c" d="M 0 0 
L 0 3.5 
" style="stroke: #000000; stroke-width: 0.8"/>
      </defs>
      <g>
       <use xlink:href="#m7ed745280c" x="73.832727" y="307.584" style="stroke: #000000; stroke-width: 0.8"/>
      </g>
     </g>
     <g id="text_1">
      <!-- 0 -->
      <g transform="translate(70.651477 322.182437)scale(0.1 -0.1)">
       <defs>
        <path id="DejaVuSans-30" d="M 2034 4250 
Q 1547 4250 1301 3770 
Q 1056 3291 1056 2328 
Q 1056 1369 1301 889 
Q 1547 409 2034 409 
Q 2525 409 2770 889 
Q 3016 1369 3016 2328 
Q 3016 3291 2770 3770 
Q 2525 4250 2034 4250 
z
M 2034 4750 
Q 2819 4750 3233 4129 
Q 3647 3509 3647 2328 
Q 3647 1150 3233 529 
Q 2819 -91 2034 -91 
Q 1250 -91 836 529 
Q 422 1150 422 2328 
Q 422 3509 836 4129 
Q 1250 4750 2034 4750 
z
" transform="scale(0.015625)"/>
       </defs>
       <use xlink:href="#DejaVuSans-30"/>
      </g>
     </g>
    </g>
    <g id="xtick_2">
     <g id="line2d_2">
      <g>
       <use xlink:href="#m7ed745280c" x="114.333544" y="307.584" style="stroke: #000000; stroke-width: 0.8"/>
      </g>
     </g>
     <g id="text_2">
      <!-- 250 -->
      <g transform="translate(104.789794 322.182437)scale(0.1 -0.1)">
       <defs>
        <path id="DejaVuSans-32" d="M 1228 531 
L 3431 531 
L 3431 0 
L 469 0 
L 469 531 
Q 828 903 1448 1529 
Q 2069 2156 2228 2338 
Q 2531 2678 2651 2914 
Q 2772 3150 2772 3378 
Q 2772 3750 2511 3984 
Q 2250 4219 1831 4219 
Q 1534 4219 1204 4116 
Q 875 4013 500 3803 
L 500 4441 
Q 881 4594 1212 4672 
Q 1544 4750 1819 4750 
Q 2544 4750 2975 4387 
Q 3406 4025 3406 3419 
Q 3406 3131 3298 2873 
Q 3191 2616 2906 2266 
Q 2828 2175 2409 1742 
Q 1991 1309 1228 531 
z
" transform="scale(0.015625)"/>
        <path id="DejaVuSans-35" d="M 691 4666 
L 3169 4666 
L 3169 4134 
L 1269 4134 
L 1269 2991 
Q 1406 3038 1543 3061 
Q 1681 3084 1819 3084 
Q 2600 3084 3056 2656 
Q 3513 2228 3513 1497 
Q 3513 744 3044 326 
Q 2575 -91 1722 -91 
Q 1428 -91 1123 -41 
Q 819 9 494 109 
L 494 744 
Q 775 591 1075 516 
Q 1375 441 1709 441 
Q 2250 441 2565 725 
Q 2881 1009 2881 1497 
Q 2881 1984 2565 2268 
Q 2250 2553 1709 2553 
Q 1456 2553 1204 2497 
Q 953 2441 691 2322 
L 691 4666 
z
" transform="scale(0.015625)"/>
       </defs>
       <use xlink:href="#DejaVuSans-32"/>
       <use xlink:href="#DejaVuSans-35" x="63.623047"/>
       <use xlink:href="#DejaVuSans-30" x="127.246094"/>
      </g>
     </g>
    </g>
    <g id="xtick_3">
     <g id="line2d_3">
      <g>
       <use xlink:href="#m7ed745280c" x="154.83436" y="307.584" style="stroke: #000000; stroke-width: 0.8"/>
      </g>
     </g>
     <g id="text_3">
      <!-- 500 -->
      <g transform="translate(145.29061 322.182437)scale(0.1 -0.1)">
       <use xlink:href="#DejaVuSans-35"/>
       <use xlink:href="#DejaVuSans-30" x="63.623047"/>
       <use xlink:href="#DejaVuSans-30" x="127.246094"/>
      </g>
     </g>
    </g>
    <g id="xtick_4">
     <g id="line2d_4">
      <g>
       <use xlink:href="#m7ed745280c" x="195.335177" y="307.584" style="stroke: #000000; stroke-width: 0.8"/>
      </g>
     </g>
     <g id="text_4">
      <!-- 750 -->
      <g transform="translate(185.791427 322.182437)scale(0.1 -0.1)">
       <defs>
        <path id="DejaVuSans-37" d="M 525 4666 
L 3525 4666 
L 3525 4397 
L 1831 0 
L 1172 0 
L 2766 4134 
L 525 4134 
L 525 4666 
z
" transform="scale(0.015625)"/>
       </defs>
       <use xlink:href="#DejaVuSans-37"/>
       <use xlink:href="#DejaVuSans-35" x="63.623047"/>
       <use xlink:href="#DejaVuSans-30" x="127.246094"/>
      </g>
     </g>
    </g>
    <g id="xtick_5">
     <g id="line2d_5">
      <g>
       <use xlink:href="#m7ed745280c" x="235.835993" y="307.584" style="stroke: #000000; stroke-width: 0.8"/>
      </g>
     </g>
     <g id="text_5">
      <!-- 1000 -->
      <g transform="translate(223.110993 322.182437)scale(0.1 -0.1)">
       <defs>
        <path id="DejaVuSans-31" d="M 794 531 
L 1825 531 
L 1825 4091 
L 703 3866 
L 703 4441 
L 1819 4666 
L 2450 4666 
L 2450 531 
L 3481 531 
L 3481 0 
L 794 0 
L 794 531 
z
" transform="scale(0.015625)"/>
       </defs>
       <use xlink:href="#DejaVuSans-31"/>
       <use xlink:href="#DejaVuSans-30" x="63.623047"/>
       <use xlink:href="#DejaVuSans-30" x="127.246094"/>
       <use xlink:href="#DejaVuSans-30" x="190.869141"/>
      </g>
     </g>
    </g>
    <g id="xtick_6">
     <g id="line2d_6">
      <g>
       <use xlink:href="#m7ed745280c" x="276.33681" y="307.584" style="stroke: #000000; stroke-width: 0.8"/>
      </g>
     </g>
     <g id="text_6">
      <!-- 1250 -->
      <g transform="translate(263.61181 322.182437)scale(0.1 -0.1)">
       <use xlink:href="#DejaVuSans-31"/>
       <use xlink:href="#DejaVuSans-32" x="63.623047"/>
       <use xlink:href="#DejaVuSans-35" x="127.246094"/>
       <use xlink:href="#DejaVuSans-30" x="190.869141"/>
      </g>
     </g>
    </g>
    <g id="xtick_7">
     <g id="line2d_7">
      <g>
       <use xlink:href="#m7ed745280c" x="316.837627" y="307.584" style="stroke: #000000; stroke-width: 0.8"/>
      </g>
     </g>
     <g id="text_7">
      <!-- 1500 -->
      <g transform="translate(304.112627 322.182437)scale(0.1 -0.1)">
       <use xlink:href="#DejaVuSans-31"/>
       <use xlink:href="#DejaVuSans-35" x="63.623047"/>
       <use xlink:href="#DejaVuSans-30" x="127.246094"/>
       <use xlink:href="#DejaVuSans-30" x="190.869141"/>
      </g>
     </g>
    </g>
    <g id="xtick_8">
     <g id="line2d_8">
      <g>
       <use xlink:href="#m7ed745280c" x="357.338443" y="307.584" style="stroke: #000000; stroke-width: 0.8"/>
      </g>
     </g>
     <g id="text_8">
      <!-- 1750 -->
      <g transform="translate(344.613443 322.182437)scale(0.1 -0.1)">
       <use xlink:href="#DejaVuSans-31"/>
       <use xlink:href="#DejaVuSans-37" x="63.623047"/>
       <use xlink:href="#DejaVuSans-35" x="127.246094"/>
       <use xlink:href="#DejaVuSans-30" x="190.869141"/>
      </g>
     </g>
    </g>
    <g id="xtick_9">
     <g id="line2d_9">
      <g>
       <use xlink:href="#m7ed745280c" x="397.83926" y="307.584" style="stroke: #000000; stroke-width: 0.8"/>
      </g>
     </g>
     <g id="text_9">
      <!-- 2000 -->
      <g transform="translate(385.11426 322.182437)scale(0.1 -0.1)">
       <use xlink:href="#DejaVuSans-32"/>
       <use xlink:href="#DejaVuSans-30" x="63.623047"/>
       <use xlink:href="#DejaVuSans-30" x="127.246094"/>
       <use xlink:href="#DejaVuSans-30" x="190.869141"/>
      </g>
     </g>
    </g>
    <g id="text_10">
     <!-- num swaps -->
     <g transform="translate(207.826406 335.860562)scale(0.1 -0.1)">
      <defs>
       <path id="DejaVuSans-6e" d="M 3513 2113 
L 3513 0 
L 2938 0 
L 2938 2094 
Q 2938 2591 2744 2837 
Q 2550 3084 2163 3084 
Q 1697 3084 1428 2787 
Q 1159 2491 1159 1978 
L 1159 0 
L 581 0 
L 581 3500 
L 1159 3500 
L 1159 2956 
Q 1366 3272 1645 3428 
Q 1925 3584 2291 3584 
Q 2894 3584 3203 3211 
Q 3513 2838 3513 2113 
z
" transform="scale(0.015625)"/>
       <path id="DejaVuSans-75" d="M 544 1381 
L 544 3500 
L 1119 3500 
L 1119 1403 
Q 1119 906 1312 657 
Q 1506 409 1894 409 
Q 2359 409 2629 706 
Q 2900 1003 2900 1516 
L 2900 3500 
L 3475 3500 
L 3475 0 
L 2900 0 
L 2900 538 
Q 2691 219 2414 64 
Q 2138 -91 1772 -91 
Q 1169 -91 856 284 
Q 544 659 544 1381 
z
M 1991 3584 
L 1991 3584 
z
" transform="scale(0.015625)"/>
       <path id="DejaVuSans-6d" d="M 3328 2828 
Q 3544 3216 3844 3400 
Q 4144 3584 4550 3584 
Q 5097 3584 5394 3201 
Q 5691 2819 5691 2113 
L 5691 0 
L 5113 0 
L 5113 2094 
Q 5113 2597 4934 2840 
Q 4756 3084 4391 3084 
Q 3944 3084 3684 2787 
Q 3425 2491 3425 1978 
L 3425 0 
L 2847 0 
L 2847 2094 
Q 2847 2600 2669 2842 
Q 2491 3084 2119 3084 
Q 1678 3084 1418 2786 
Q 1159 2488 1159 1978 
L 1159 0 
L 581 0 
L 581 3500 
L 1159 3500 
L 1159 2956 
Q 1356 3278 1631 3431 
Q 1906 3584 2284 3584 
Q 2666 3584 2933 3390 
Q 3200 3197 3328 2828 
z
" transform="scale(0.015625)"/>
       <path id="DejaVuSans-20" transform="scale(0.015625)"/>
       <path id="DejaVuSans-73" d="M 2834 3397 
L 2834 2853 
Q 2591 2978 2328 3040 
Q 2066 3103 1784 3103 
Q 1356 3103 1142 2972 
Q 928 2841 928 2578 
Q 928 2378 1081 2264 
Q 1234 2150 1697 2047 
L 1894 2003 
Q 2506 1872 2764 1633 
Q 3022 1394 3022 966 
Q 3022 478 2636 193 
Q 2250 -91 1575 -91 
Q 1294 -91 989 -36 
Q 684 19 347 128 
L 347 722 
Q 666 556 975 473 
Q 1284 391 1588 391 
Q 1994 391 2212 530 
Q 2431 669 2431 922 
Q 2431 1156 2273 1281 
Q 2116 1406 1581 1522 
L 1381 1569 
Q 847 1681 609 1914 
Q 372 2147 372 2553 
Q 372 3047 722 3315 
Q 1072 3584 1716 3584 
Q 2034 3584 2315 3537 
Q 2597 3491 2834 3397 
z
" transform="scale(0.015625)"/>
       <path id="DejaVuSans-77" d="M 269 3500 
L 844 3500 
L 1563 769 
L 2278 3500 
L 2956 3500 
L 3675 769 
L 4391 3500 
L 4966 3500 
L 4050 0 
L 3372 0 
L 2619 2869 
L 1863 0 
L 1184 0 
L 269 3500 
z
" transform="scale(0.015625)"/>
       <path id="DejaVuSans-61" d="M 2194 1759 
Q 1497 1759 1228 1600 
Q 959 1441 959 1056 
Q 959 750 1161 570 
Q 1363 391 1709 391 
Q 2188 391 2477 730 
Q 2766 1069 2766 1631 
L 2766 1759 
L 2194 1759 
z
M 3341 1997 
L 3341 0 
L 2766 0 
L 2766 531 
Q 2569 213 2275 61 
Q 1981 -91 1556 -91 
Q 1019 -91 701 211 
Q 384 513 384 1019 
Q 384 1609 779 1909 
Q 1175 2209 1959 2209 
L 2766 2209 
L 2766 2266 
Q 2766 2663 2505 2880 
Q 2244 3097 1772 3097 
Q 1472 3097 1187 3025 
Q 903 2953 641 2809 
L 641 3341 
Q 956 3463 1253 3523 
Q 1550 3584 1831 3584 
Q 2591 3584 2966 3190 
Q 3341 2797 3341 1997 
z
" transform="scale(0.015625)"/>
       <path id="DejaVuSans-70" d="M 1159 525 
L 1159 -1331 
L 581 -1331 
L 581 3500 
L 1159 3500 
L 1159 2969 
Q 1341 3281 1617 3432 
Q 1894 3584 2278 3584 
Q 2916 3584 3314 3078 
Q 3713 2572 3713 1747 
Q 3713 922 3314 415 
Q 2916 -91 2278 -91 
Q 1894 -91 1617 61 
Q 1341 213 1159 525 
z
M 3116 1747 
Q 3116 2381 2855 2742 
Q 2594 3103 2138 3103 
Q 1681 3103 1420 2742 
Q 1159 2381 1159 1747 
Q 1159 1113 1420 752 
Q 1681 391 2138 391 
Q 2594 391 2855 752 
Q 3116 1113 3116 1747 
z
" transform="scale(0.015625)"/>
      </defs>
      <use xlink:href="#DejaVuSans-6e"/>
      <use xlink:href="#DejaVuSans-75" x="63.378906"/>
      <use xlink:href="#DejaVuSans-6d" x="126.757812"/>
      <use xlink:href="#DejaVuSans-20" x="224.169922"/>
      <use xlink:href="#DejaVuSans-73" x="255.957031"/>
      <use xlink:href="#DejaVuSans-77" x="308.056641"/>
      <use xlink:href="#DejaVuSans-61" x="389.84375"/>
      <use xlink:href="#DejaVuSans-70" x="451.123047"/>
      <use xlink:href="#DejaVuSans-73" x="514.599609"/>
     </g>
    </g>
   </g>
   <g id="matplotlib.axis_2">
    <g id="ytick_1">
     <g id="line2d_10">
      <defs>
       <path id="m7827a263b7" d="M 0 0 
L -3.5 0 
" style="stroke: #000000; stroke-width: 0.8"/>
      </defs>
      <g>
       <use xlink:href="#m7827a263b7" x="57.6" y="277.135448" style="stroke: #000000; stroke-width: 0.8"/>
      </g>
     </g>
     <g id="text_11">
      <!-- 580 -->
      <g transform="translate(31.5125 280.934667)scale(0.1 -0.1)">
       <defs>
        <path id="DejaVuSans-38" d="M 2034 2216 
Q 1584 2216 1326 1975 
Q 1069 1734 1069 1313 
Q 1069 891 1326 650 
Q 1584 409 2034 409 
Q 2484 409 2743 651 
Q 3003 894 3003 1313 
Q 3003 1734 2745 1975 
Q 2488 2216 2034 2216 
z
M 1403 2484 
Q 997 2584 770 2862 
Q 544 3141 544 3541 
Q 544 4100 942 4425 
Q 1341 4750 2034 4750 
Q 2731 4750 3128 4425 
Q 3525 4100 3525 3541 
Q 3525 3141 3298 2862 
Q 3072 2584 2669 2484 
Q 3125 2378 3379 2068 
Q 3634 1759 3634 1313 
Q 3634 634 3220 271 
Q 2806 -91 2034 -91 
Q 1263 -91 848 271 
Q 434 634 434 1313 
Q 434 1759 690 2068 
Q 947 2378 1403 2484 
z
M 1172 3481 
Q 1172 3119 1398 2916 
Q 1625 2713 2034 2713 
Q 2441 2713 2670 2916 
Q 2900 3119 2900 3481 
Q 2900 3844 2670 4047 
Q 2441 4250 2034 4250 
Q 1625 4250 1398 4047 
Q 1172 3844 1172 3481 
z
" transform="scale(0.015625)"/>
       </defs>
       <use xlink:href="#DejaVuSans-35"/>
       <use xlink:href="#DejaVuSans-38" x="63.623047"/>
       <use xlink:href="#DejaVuSans-30" x="127.246094"/>
      </g>
     </g>
    </g>
    <g id="ytick_2">
     <g id="line2d_11">
      <g>
       <use xlink:href="#m7827a263b7" x="57.6" y="243.767172" style="stroke: #000000; stroke-width: 0.8"/>
      </g>
     </g>
     <g id="text_12">
      <!-- 600 -->
      <g transform="translate(31.5125 247.566391)scale(0.1 -0.1)">
       <defs>
        <path id="DejaVuSans-36" d="M 2113 2584 
Q 1688 2584 1439 2293 
Q 1191 2003 1191 1497 
Q 1191 994 1439 701 
Q 1688 409 2113 409 
Q 2538 409 2786 701 
Q 3034 994 3034 1497 
Q 3034 2003 2786 2293 
Q 2538 2584 2113 2584 
z
M 3366 4563 
L 3366 3988 
Q 3128 4100 2886 4159 
Q 2644 4219 2406 4219 
Q 1781 4219 1451 3797 
Q 1122 3375 1075 2522 
Q 1259 2794 1537 2939 
Q 1816 3084 2150 3084 
Q 2853 3084 3261 2657 
Q 3669 2231 3669 1497 
Q 3669 778 3244 343 
Q 2819 -91 2113 -91 
Q 1303 -91 875 529 
Q 447 1150 447 2328 
Q 447 3434 972 4092 
Q 1497 4750 2381 4750 
Q 2619 4750 2861 4703 
Q 3103 4656 3366 4563 
z
" transform="scale(0.015625)"/>
       </defs>
       <use xlink:href="#DejaVuSans-36"/>
       <use xlink:href="#DejaVuSans-30" x="63.623047"/>
       <use xlink:href="#DejaVuSans-30" x="127.246094"/>
      </g>
     </g>
    </g>
    <g id="ytick_3">
     <g id="line2d_12">
      <g>
       <use xlink:href="#m7827a263b7" x="57.6" y="210.398897" style="stroke: #000000; stroke-width: 0.8"/>
      </g>
     </g>
     <g id="text_13">
      <!-- 620 -->
      <g transform="translate(31.5125 214.198115)scale(0.1 -0.1)">
       <use xlink:href="#DejaVuSans-36"/>
       <use xlink:href="#DejaVuSans-32" x="63.623047"/>
       <use xlink:href="#DejaVuSans-30" x="127.246094"/>
      </g>
     </g>
    </g>
    <g id="ytick_4">
     <g id="line2d_13">
      <g>
       <use xlink:href="#m7827a263b7" x="57.6" y="177.030621" style="stroke: #000000; stroke-width: 0.8"/>
      </g>
     </g>
     <g id="text_14">
      <!-- 640 -->
      <g transform="translate(31.5125 180.829839)scale(0.1 -0.1)">
       <defs>
        <path id="DejaVuSans-34" d="M 2419 4116 
L 825 1625 
L 2419 1625 
L 2419 4116 
z
M 2253 4666 
L 3047 4666 
L 3047 1625 
L 3713 1625 
L 3713 1100 
L 3047 1100 
L 3047 0 
L 2419 0 
L 2419 1100 
L 313 1100 
L 313 1709 
L 2253 4666 
z
" transform="scale(0.015625)"/>
       </defs>
       <use xlink:href="#DejaVuSans-36"/>
       <use xlink:href="#DejaVuSans-34" x="63.623047"/>
       <use xlink:href="#DejaVuSans-30" x="127.246094"/>
      </g>
     </g>
    </g>
    <g id="ytick_5">
     <g id="line2d_14">
      <g>
       <use xlink:href="#m7827a263b7" x="57.6" y="143.662345" style="stroke: #000000; stroke-width: 0.8"/>
      </g>
     </g>
     <g id="text_15">
      <!-- 660 -->
      <g transform="translate(31.5125 147.461564)scale(0.1 -0.1)">
       <use xlink:href="#DejaVuSans-36"/>
       <use xlink:href="#DejaVuSans-36" x="63.623047"/>
       <use xlink:href="#DejaVuSans-30" x="127.246094"/>
      </g>
     </g>
    </g>
    <g id="ytick_6">
     <g id="line2d_15">
      <g>
       <use xlink:href="#m7827a263b7" x="57.6" y="110.294069" style="stroke: #000000; stroke-width: 0.8"/>
      </g>
     </g>
     <g id="text_16">
      <!-- 680 -->
      <g transform="translate(31.5125 114.093288)scale(0.1 -0.1)">
       <use xlink:href="#DejaVuSans-36"/>
       <use xlink:href="#DejaVuSans-38" x="63.623047"/>
       <use xlink:href="#DejaVuSans-30" x="127.246094"/>
      </g>
     </g>
    </g>
    <g id="ytick_7">
     <g id="line2d_16">
      <g>
       <use xlink:href="#m7827a263b7" x="57.6" y="76.925793" style="stroke: #000000; stroke-width: 0.8"/>
      </g>
     </g>
     <g id="text_17">
      <!-- 700 -->
      <g transform="translate(31.5125 80.725012)scale(0.1 -0.1)">
       <use xlink:href="#DejaVuSans-37"/>
       <use xlink:href="#DejaVuSans-30" x="63.623047"/>
       <use xlink:href="#DejaVuSans-30" x="127.246094"/>
      </g>
     </g>
    </g>
    <g id="ytick_8">
     <g id="line2d_17">
      <g>
       <use xlink:href="#m7827a263b7" x="57.6" y="43.557517" style="stroke: #000000; stroke-width: 0.8"/>
      </g>
     </g>
     <g id="text_18">
      <!-- 720 -->
      <g transform="translate(31.5125 47.356736)scale(0.1 -0.1)">
       <use xlink:href="#DejaVuSans-37"/>
       <use xlink:href="#DejaVuSans-32" x="63.623047"/>
       <use xlink:href="#DejaVuSans-30" x="127.246094"/>
      </g>
     </g>
    </g>
    <g id="text_19">
     <!-- total cost -->
     <g transform="translate(25.432812 197.923313)rotate(-90)scale(0.1 -0.1)">
      <defs>
       <path id="DejaVuSans-74" d="M 1172 4494 
L 1172 3500 
L 2356 3500 
L 2356 3053 
L 1172 3053 
L 1172 1153 
Q 1172 725 1289 603 
Q 1406 481 1766 481 
L 2356 481 
L 2356 0 
L 1766 0 
Q 1100 0 847 248 
Q 594 497 594 1153 
L 594 3053 
L 172 3053 
L 172 3500 
L 594 3500 
L 594 4494 
L 1172 4494 
z
" transform="scale(0.015625)"/>
       <path id="DejaVuSans-6f" d="M 1959 3097 
Q 1497 3097 1228 2736 
Q 959 2375 959 1747 
Q 959 1119 1226 758 
Q 1494 397 1959 397 
Q 2419 397 2687 759 
Q 2956 1122 2956 1747 
Q 2956 2369 2687 2733 
Q 2419 3097 1959 3097 
z
M 1959 3584 
Q 2709 3584 3137 3096 
Q 3566 2609 3566 1747 
Q 3566 888 3137 398 
Q 2709 -91 1959 -91 
Q 1206 -91 779 398 
Q 353 888 353 1747 
Q 353 2609 779 3096 
Q 1206 3584 1959 3584 
z
" transform="scale(0.015625)"/>
       <path id="DejaVuSans-6c" d="M 603 4863 
L 1178 4863 
L 1178 0 
L 603 0 
L 603 4863 
z
" transform="scale(0.015625)"/>
       <path id="DejaVuSans-63" d="M 3122 3366 
L 3122 2828 
Q 2878 2963 2633 3030 
Q 2388 3097 2138 3097 
Q 1578 3097 1268 2742 
Q 959 2388 959 1747 
Q 959 1106 1268 751 
Q 1578 397 2138 397 
Q 2388 397 2633 464 
Q 2878 531 3122 666 
L 3122 134 
Q 2881 22 2623 -34 
Q 2366 -91 2075 -91 
Q 1284 -91 818 406 
Q 353 903 353 1747 
Q 353 2603 823 3093 
Q 1294 3584 2113 3584 
Q 2378 3584 2631 3529 
Q 2884 3475 3122 3366 
z
" transform="scale(0.015625)"/>
      </defs>
      <use xlink:href="#DejaVuSans-74"/>
      <use xlink:href="#DejaVuSans-6f" x="39.208984"/>
      <use xlink:href="#DejaVuSans-74" x="100.390625"/>
      <use xlink:href="#DejaVuSans-61" x="139.599609"/>
      <use xlink:href="#DejaVuSans-6c" x="200.878906"/>
      <use xlink:href="#DejaVuSans-20" x="228.662109"/>
      <use xlink:href="#DejaVuSans-63" x="260.449219"/>
      <use xlink:href="#DejaVuSans-6f" x="315.429688"/>
      <use xlink:href="#DejaVuSans-73" x="376.611328"/>
      <use xlink:href="#DejaVuSans-74" x="428.710938"/>
     </g>
    </g>
   </g>
   <g id="line2d_18">
    <path d="M 73.832727 106.957241 
L 74.156734 108.625655 
L 74.48074 103.620414 
L 74.804747 130.315034 
L 75.128753 128.646621 
L 75.776766 140.325517 
L 76.100773 138.657103 
L 76.42478 141.993931 
L 77.396799 128.646621 
L 77.720806 130.315034 
L 78.044812 133.651862 
L 78.368819 123.641379 
L 78.692825 106.957241 
L 79.016832 101.952 
L 79.340838 90.273103 
L 79.664845 86.936276 
L 80.312858 98.615172 
L 80.636864 86.936276 
L 80.960871 86.936276 
L 81.284878 73.588966 
L 81.932891 58.573241 
L 82.256897 58.573241 
L 82.580904 55.236414 
L 82.90491 63.578483 
L 83.228917 65.246897 
L 83.552923 53.568 
L 83.87693 55.236414 
L 84.200936 61.910069 
L 84.524943 58.573241 
L 84.848949 65.246897 
L 85.172956 63.578483 
L 85.496962 60.241655 
L 85.820969 60.241655 
L 86.144976 56.904828 
L 86.468982 56.904828 
L 86.792989 63.578483 
L 87.116995 61.910069 
L 87.441002 71.920552 
L 87.765008 70.252138 
L 88.413021 76.925793 
L 88.737028 71.920552 
L 89.061034 81.931034 
L 89.385041 78.594207 
L 89.709047 80.262621 
L 90.35706 105.288828 
L 90.681067 103.620414 
L 91.005073 106.957241 
L 91.32908 111.962483 
L 91.653087 105.288828 
L 92.3011 120.304552 
L 92.625106 138.657103 
L 92.949113 138.657103 
L 93.597126 135.320276 
L 93.921132 125.309793 
L 94.245139 121.972966 
L 94.569145 113.630897 
L 94.893152 108.625655 
L 95.217158 110.294069 
L 95.541165 110.294069 
L 95.865171 108.625655 
L 96.513185 96.946759 
L 96.837191 111.962483 
L 97.161198 103.620414 
L 97.485204 111.962483 
L 97.809211 105.288828 
L 98.133217 101.952 
L 98.457224 95.278345 
L 98.78123 83.599448 
L 99.429243 93.609931 
L 100.077256 96.946759 
L 100.401263 93.609931 
L 100.725269 118.636138 
L 101.049276 115.29931 
L 101.373283 101.952 
L 101.697289 108.625655 
L 102.345302 98.615172 
L 102.669309 110.294069 
L 102.993315 105.288828 
L 103.641328 126.978207 
L 103.965335 126.978207 
L 104.289341 131.983448 
L 104.613348 145.330759 
L 104.937354 143.662345 
L 105.261361 145.330759 
L 105.585367 140.325517 
L 105.909374 141.993931 
L 106.233381 140.325517 
L 106.557387 148.667586 
L 106.881394 140.325517 
L 107.2054 135.320276 
L 107.529407 140.325517 
L 108.17742 136.98869 
L 108.501426 136.98869 
L 108.825433 150.336 
L 109.149439 150.336 
L 109.473446 148.667586 
L 109.797452 145.330759 
L 110.121459 145.330759 
L 110.445465 175.362207 
L 110.769472 190.377931 
L 111.417485 202.056828 
L 111.741492 203.725241 
L 112.065498 202.056828 
L 112.713511 175.362207 
L 113.037518 177.030621 
L 113.361524 185.37269 
L 113.685531 220.409379 
L 114.009537 230.419862 
L 114.333544 220.409379 
L 114.65755 223.746207 
L 114.981557 222.077793 
L 115.62957 215.404138 
L 115.953576 208.730483 
L 116.277583 195.383172 
L 116.60159 202.056828 
L 116.925596 192.046345 
L 117.249603 190.377931 
L 117.573609 168.688552 
L 117.897616 170.356966 
L 118.545629 158.678069 
L 118.869635 160.346483 
L 119.193642 163.68331 
L 119.517648 185.37269 
L 120.165661 182.035862 
L 120.489668 173.693793 
L 120.813674 187.041103 
L 121.137681 170.356966 
L 121.461688 160.346483 
L 121.785694 165.351724 
L 122.109701 167.020138 
L 122.433707 158.678069 
L 122.757714 160.346483 
L 123.08172 160.346483 
L 123.405727 175.362207 
L 123.729733 170.356966 
L 124.05374 175.362207 
L 124.377746 170.356966 
L 124.701753 162.014897 
L 125.025759 157.009655 
L 125.349766 167.020138 
L 125.673772 163.68331 
L 125.997779 162.014897 
L 126.321786 153.672828 
L 126.645792 155.341241 
L 127.293805 162.014897 
L 127.617812 168.688552 
L 127.941818 185.37269 
L 128.265825 177.030621 
L 128.589831 160.346483 
L 128.913838 160.346483 
L 129.237844 162.014897 
L 129.885857 178.699034 
L 130.53387 190.377931 
L 130.857877 180.367448 
L 131.181884 185.37269 
L 131.50589 203.725241 
L 131.829897 202.056828 
L 132.153903 202.056828 
L 132.47791 195.383172 
L 132.801916 197.051586 
L 133.125923 197.051586 
L 133.449929 198.72 
L 133.773936 202.056828 
L 134.097942 212.06731 
L 134.421949 212.06731 
L 134.745955 213.735724 
L 135.069962 208.730483 
L 135.393968 208.730483 
L 135.717975 202.056828 
L 136.041981 185.37269 
L 136.365988 185.37269 
L 136.689995 155.341241 
L 137.014001 143.662345 
L 137.338008 141.993931 
L 137.662014 143.662345 
L 137.986021 141.993931 
L 138.634034 168.688552 
L 138.95804 172.025379 
L 139.282047 182.035862 
L 139.93006 170.356966 
L 140.254066 170.356966 
L 140.578073 173.693793 
L 140.902079 173.693793 
L 141.226086 177.030621 
L 141.550093 178.699034 
L 141.874099 170.356966 
L 142.198106 183.704276 
L 142.522112 185.37269 
L 142.846119 193.714759 
L 143.170125 192.046345 
L 143.494132 200.388414 
L 143.818138 203.725241 
L 144.142145 213.735724 
L 144.466151 217.072552 
L 144.790158 215.404138 
L 145.114164 215.404138 
L 145.438171 217.072552 
L 145.762177 217.072552 
L 146.086184 213.735724 
L 146.410191 220.409379 
L 146.734197 233.75669 
L 147.38221 180.367448 
L 147.706217 192.046345 
L 148.35423 177.030621 
L 148.678236 177.030621 
L 149.002243 180.367448 
L 149.326249 197.051586 
L 149.650256 182.035862 
L 149.974262 180.367448 
L 150.298269 185.37269 
L 150.622275 183.704276 
L 150.946282 188.709517 
L 151.270289 182.035862 
L 151.594295 168.688552 
L 151.918302 167.020138 
L 152.566315 160.346483 
L 152.890321 165.351724 
L 153.538334 153.672828 
L 153.862341 153.672828 
L 154.186347 162.014897 
L 154.510354 153.672828 
L 154.83436 163.68331 
L 155.158367 162.014897 
L 155.482373 163.68331 
L 155.80638 158.678069 
L 156.130386 143.662345 
L 156.454393 155.341241 
L 156.7784 155.341241 
L 157.102406 146.999172 
L 157.426413 146.999172 
L 157.750419 141.993931 
L 158.074426 145.330759 
L 158.398432 157.009655 
L 158.722439 152.004414 
L 159.046445 162.014897 
L 159.370452 167.020138 
L 159.694458 182.035862 
L 160.018465 173.693793 
L 160.342471 168.688552 
L 160.666478 157.009655 
L 160.990484 173.693793 
L 161.314491 163.68331 
L 161.638498 167.020138 
L 161.962504 177.030621 
L 162.286511 173.693793 
L 162.610517 172.025379 
L 162.934524 172.025379 
L 163.25853 180.367448 
L 163.582537 177.030621 
L 163.906543 175.362207 
L 164.23055 178.699034 
L 164.554556 178.699034 
L 164.878563 185.37269 
L 165.202569 183.704276 
L 165.526576 172.025379 
L 165.850582 150.336 
L 166.174589 150.336 
L 166.822602 163.68331 
L 167.146609 167.020138 
L 167.470615 160.346483 
L 167.794622 165.351724 
L 168.118628 143.662345 
L 168.442635 131.983448 
L 168.766641 135.320276 
L 169.090648 133.651862 
L 169.414654 135.320276 
L 169.738661 130.315034 
L 170.062667 141.993931 
L 170.386674 143.662345 
L 170.71068 103.620414 
L 171.034687 113.630897 
L 171.358694 113.630897 
L 171.6827 105.288828 
L 172.006707 106.957241 
L 172.330713 101.952 
L 172.65472 85.267862 
L 172.978726 85.267862 
L 173.302733 86.936276 
L 173.626739 96.946759 
L 173.950746 98.615172 
L 174.274752 103.620414 
L 174.598759 95.278345 
L 174.922765 90.273103 
L 175.246772 91.941517 
L 175.570778 90.273103 
L 175.894785 90.273103 
L 176.218792 91.941517 
L 176.542798 88.60469 
L 176.866805 101.952 
L 177.190811 93.609931 
L 177.514818 96.946759 
L 177.838824 91.941517 
L 178.162831 98.615172 
L 178.486837 101.952 
L 178.810844 100.283586 
L 179.13485 108.625655 
L 179.458857 103.620414 
L 180.10687 111.962483 
L 180.754883 100.283586 
L 181.078889 111.962483 
L 181.402896 105.288828 
L 181.726903 110.294069 
L 182.050909 110.294069 
L 182.374916 116.967724 
L 182.698922 111.962483 
L 183.346935 126.978207 
L 183.670942 126.978207 
L 183.994948 130.315034 
L 184.318955 150.336 
L 184.966968 170.356966 
L 185.290974 168.688552 
L 185.614981 158.678069 
L 185.938987 153.672828 
L 186.262994 145.330759 
L 186.587001 143.662345 
L 186.911007 167.020138 
L 187.235014 165.351724 
L 187.55902 155.341241 
L 187.883027 157.009655 
L 188.207033 153.672828 
L 188.53104 141.993931 
L 188.855046 146.999172 
L 189.179053 145.330759 
L 189.503059 141.993931 
L 189.827066 140.325517 
L 190.151072 141.993931 
L 190.799085 131.983448 
L 191.123092 133.651862 
L 191.447099 140.325517 
L 191.771105 143.662345 
L 192.095112 140.325517 
L 192.419118 146.999172 
L 192.743125 145.330759 
L 193.067131 141.993931 
L 193.391138 143.662345 
L 193.715144 148.667586 
L 194.039151 145.330759 
L 194.363157 133.651862 
L 194.687164 145.330759 
L 195.01117 141.993931 
L 195.335177 146.999172 
L 195.659183 145.330759 
L 195.98319 150.336 
L 196.307197 145.330759 
L 196.631203 145.330759 
L 196.95521 126.978207 
L 197.279216 135.320276 
L 197.603223 136.98869 
L 198.251236 126.978207 
L 198.899249 133.651862 
L 199.223255 141.993931 
L 199.871268 123.641379 
L 200.195275 133.651862 
L 200.519281 125.309793 
L 200.843288 105.288828 
L 201.167295 108.625655 
L 201.491301 108.625655 
L 201.815308 111.962483 
L 202.139314 105.288828 
L 202.463321 95.278345 
L 202.787327 110.294069 
L 203.111334 103.620414 
L 203.43534 115.29931 
L 203.759347 135.320276 
L 204.083353 131.983448 
L 204.40736 133.651862 
L 204.731366 141.993931 
L 205.055373 123.641379 
L 205.379379 126.978207 
L 205.703386 101.952 
L 206.027392 108.625655 
L 206.351399 120.304552 
L 206.675406 125.309793 
L 207.323419 106.957241 
L 207.647425 128.646621 
L 207.971432 125.309793 
L 208.295438 126.978207 
L 208.619445 133.651862 
L 208.943451 135.320276 
L 209.267458 123.641379 
L 209.591464 135.320276 
L 209.915471 116.967724 
L 210.88749 111.962483 
L 211.211497 125.309793 
L 211.535504 116.967724 
L 211.85951 113.630897 
L 212.183517 105.288828 
L 212.507523 106.957241 
L 212.83153 115.29931 
L 213.155536 98.615172 
L 213.479543 106.957241 
L 213.803549 111.962483 
L 214.127556 101.952 
L 214.451562 135.320276 
L 214.775569 135.320276 
L 215.099575 150.336 
L 215.423582 158.678069 
L 216.071595 146.999172 
L 216.395602 140.325517 
L 216.719608 146.999172 
L 217.367621 140.325517 
L 217.691628 143.662345 
L 218.015634 158.678069 
L 218.339641 130.315034 
L 218.663647 131.983448 
L 218.987654 140.325517 
L 219.31166 143.662345 
L 219.959673 146.999172 
L 220.28368 141.993931 
L 220.607686 157.009655 
L 220.931693 155.341241 
L 221.2557 167.020138 
L 221.579706 200.388414 
L 221.903713 207.062069 
L 222.227719 207.062069 
L 222.551726 200.388414 
L 222.875732 203.725241 
L 223.523745 188.709517 
L 224.171758 185.37269 
L 224.819771 165.351724 
L 225.143778 182.035862 
L 225.467784 183.704276 
L 225.791791 178.699034 
L 226.115797 183.704276 
L 226.439804 183.704276 
L 226.763811 185.37269 
L 227.087817 190.377931 
L 227.411824 200.388414 
L 227.73583 188.709517 
L 228.059837 187.041103 
L 228.383843 193.714759 
L 228.70785 190.377931 
L 229.031856 190.377931 
L 229.679869 178.699034 
L 230.003876 175.362207 
L 230.327882 182.035862 
L 230.651889 182.035862 
L 230.975895 185.37269 
L 231.299902 190.377931 
L 231.623909 177.030621 
L 231.947915 158.678069 
L 232.271922 150.336 
L 232.595928 162.014897 
L 232.919935 136.98869 
L 233.243941 140.325517 
L 233.567948 141.993931 
L 233.891954 133.651862 
L 234.215961 136.98869 
L 234.539967 133.651862 
L 234.863974 155.341241 
L 235.18798 150.336 
L 235.511987 153.672828 
L 235.835993 152.004414 
L 236.484007 125.309793 
L 236.808013 138.657103 
L 237.13202 136.98869 
L 237.456026 138.657103 
L 238.104039 168.688552 
L 238.428046 163.68331 
L 238.752052 165.351724 
L 239.076059 152.004414 
L 239.400065 153.672828 
L 239.724072 146.999172 
L 240.048078 148.667586 
L 240.372085 130.315034 
L 240.696091 125.309793 
L 241.020098 123.641379 
L 241.344105 116.967724 
L 241.668111 120.304552 
L 241.992118 148.667586 
L 242.316124 145.330759 
L 242.640131 135.320276 
L 242.964137 146.999172 
L 243.288144 148.667586 
L 243.61215 153.672828 
L 243.936157 148.667586 
L 244.260163 172.025379 
L 244.58417 163.68331 
L 244.908176 158.678069 
L 245.232183 160.346483 
L 245.556189 153.672828 
L 245.880196 155.341241 
L 246.204203 158.678069 
L 246.528209 158.678069 
L 246.852216 162.014897 
L 247.176222 170.356966 
L 247.500229 172.025379 
L 247.824235 155.341241 
L 248.148242 168.688552 
L 249.120261 188.709517 
L 249.444268 177.030621 
L 249.768274 170.356966 
L 250.092281 170.356966 
L 250.416287 172.025379 
L 250.740294 177.030621 
L 251.0643 188.709517 
L 251.388307 182.035862 
L 251.712314 198.72 
L 252.03632 202.056828 
L 252.360327 203.725241 
L 252.684333 195.383172 
L 253.332346 192.046345 
L 253.656353 192.046345 
L 253.980359 193.714759 
L 254.304366 208.730483 
L 254.628372 212.06731 
L 254.952379 213.735724 
L 255.276385 245.435586 
L 255.600392 245.435586 
L 255.924398 242.098759 
L 256.248405 230.419862 
L 256.572412 225.414621 
L 256.896418 228.751448 
L 257.220425 227.083034 
L 257.544431 233.75669 
L 257.868438 228.751448 
L 258.192444 230.419862 
L 258.516451 230.419862 
L 258.840457 235.425103 
L 259.48847 232.088276 
L 259.812477 227.083034 
L 260.136483 217.072552 
L 260.46049 217.072552 
L 260.784496 235.425103 
L 261.108503 233.75669 
L 261.43251 252.109241 
L 261.756516 250.440828 
L 262.080523 242.098759 
L 262.404529 238.761931 
L 262.728536 242.098759 
L 263.052542 228.751448 
L 263.376549 233.75669 
L 263.700555 243.767172 
L 264.024562 248.772414 
L 264.348568 260.45131 
L 264.672575 255.446069 
L 264.996581 245.435586 
L 265.320588 247.104 
L 265.968601 228.751448 
L 266.292608 232.088276 
L 266.616614 225.414621 
L 266.940621 238.761931 
L 267.264627 235.425103 
L 267.588634 240.430345 
L 267.91264 238.761931 
L 268.236647 238.761931 
L 268.560653 247.104 
L 268.88466 243.767172 
L 269.208666 250.440828 
L 269.532673 250.440828 
L 269.856679 260.45131 
L 270.828699 245.435586 
L 271.152705 243.767172 
L 271.476712 243.767172 
L 271.800719 253.777655 
L 272.124725 245.435586 
L 272.448732 227.083034 
L 272.772738 222.077793 
L 273.096745 227.083034 
L 273.420751 225.414621 
L 273.744758 225.414621 
L 274.068764 230.419862 
L 274.392771 232.088276 
L 274.716777 218.740966 
L 275.040784 223.746207 
L 275.36479 213.735724 
L 275.688797 187.041103 
L 276.012803 185.37269 
L 276.33681 182.035862 
L 276.660817 183.704276 
L 276.984823 193.714759 
L 277.30883 182.035862 
L 277.632836 158.678069 
L 277.956843 155.341241 
L 278.280849 155.341241 
L 278.604856 158.678069 
L 279.252869 175.362207 
L 279.576875 175.362207 
L 279.900882 193.714759 
L 280.224888 188.709517 
L 280.548895 203.725241 
L 280.872901 168.688552 
L 281.196908 157.009655 
L 281.844921 175.362207 
L 282.168928 175.362207 
L 282.492934 212.06731 
L 282.816941 193.714759 
L 283.140947 192.046345 
L 283.464954 193.714759 
L 284.436973 170.356966 
L 284.76098 170.356966 
L 285.084986 167.020138 
L 285.408993 173.693793 
L 285.732999 170.356966 
L 286.057006 185.37269 
L 286.381013 175.362207 
L 287.029026 198.72 
L 287.353032 200.388414 
L 287.677039 193.714759 
L 288.001045 203.725241 
L 288.325052 197.051586 
L 288.973065 217.072552 
L 289.297071 212.06731 
L 289.621078 217.072552 
L 290.269091 235.425103 
L 290.593097 233.75669 
L 290.917104 235.425103 
L 291.241111 230.419862 
L 291.565117 215.404138 
L 291.889124 213.735724 
L 292.861143 230.419862 
L 293.509156 220.409379 
L 293.833163 225.414621 
L 294.157169 223.746207 
L 294.481176 227.083034 
L 294.805182 225.414621 
L 295.129189 217.072552 
L 295.453195 205.393655 
L 296.101208 220.409379 
L 296.425215 220.409379 
L 296.749222 208.730483 
L 297.073228 202.056828 
L 297.397235 203.725241 
L 297.721241 207.062069 
L 298.045248 205.393655 
L 298.369254 202.056828 
L 298.693261 205.393655 
L 299.017267 218.740966 
L 299.341274 217.072552 
L 299.66528 220.409379 
L 299.989287 215.404138 
L 300.6373 212.06731 
L 300.961306 213.735724 
L 301.285313 217.072552 
L 301.933326 220.409379 
L 302.257333 232.088276 
L 302.581339 220.409379 
L 302.905346 228.751448 
L 303.229352 222.077793 
L 303.553359 220.409379 
L 303.877365 223.746207 
L 304.201372 210.398897 
L 304.525378 210.398897 
L 304.849385 205.393655 
L 305.173391 207.062069 
L 305.821404 233.75669 
L 306.145411 212.06731 
L 306.469418 210.398897 
L 306.793424 203.725241 
L 307.117431 183.704276 
L 307.441437 190.377931 
L 307.765444 187.041103 
L 308.08945 188.709517 
L 309.06147 215.404138 
L 309.385476 210.398897 
L 309.709483 210.398897 
L 310.033489 213.735724 
L 310.357496 208.730483 
L 310.681502 217.072552 
L 311.005509 222.077793 
L 311.329516 242.098759 
L 311.653522 228.751448 
L 311.977529 242.098759 
L 312.301535 220.409379 
L 312.949548 227.083034 
L 313.273555 225.414621 
L 313.921568 212.06731 
L 314.245574 215.404138 
L 314.893587 223.746207 
L 315.217594 233.75669 
L 315.5416 238.761931 
L 315.865607 237.093517 
L 316.51362 218.740966 
L 316.837627 220.409379 
L 317.161633 208.730483 
L 317.48564 210.398897 
L 317.809646 223.746207 
L 318.133653 228.751448 
L 319.105672 258.782897 
L 319.429679 263.788138 
L 319.753685 260.45131 
L 320.077692 268.793379 
L 320.401698 253.777655 
L 320.725705 250.440828 
L 321.049711 243.767172 
L 321.373718 245.435586 
L 321.697725 255.446069 
L 322.021731 245.435586 
L 322.345738 255.446069 
L 322.669744 252.109241 
L 322.993751 247.104 
L 323.317757 245.435586 
L 323.641764 248.772414 
L 323.96577 243.767172 
L 324.289777 250.440828 
L 324.93779 237.093517 
L 325.261796 235.425103 
L 325.585803 240.430345 
L 325.909809 242.098759 
L 326.233816 238.761931 
L 326.557823 225.414621 
L 326.881829 228.751448 
L 327.205836 242.098759 
L 327.529842 250.440828 
L 327.853849 250.440828 
L 328.177855 257.114483 
L 329.149875 267.124966 
L 329.473881 265.456552 
L 329.797888 265.456552 
L 330.121894 268.793379 
L 330.769907 285.477517 
L 331.093914 293.819586 
L 331.417921 295.488 
L 331.741927 285.477517 
L 332.065934 287.145931 
L 332.713947 262.119724 
L 333.037953 255.446069 
L 333.36196 252.109241 
L 333.685966 252.109241 
L 334.009973 253.777655 
L 334.333979 252.109241 
L 334.657986 258.782897 
L 334.981992 250.440828 
L 335.305999 248.772414 
L 335.630005 232.088276 
L 335.954012 232.088276 
L 336.278019 260.45131 
L 336.602025 252.109241 
L 337.250038 265.456552 
L 337.574045 258.782897 
L 337.898051 258.782897 
L 338.222058 260.45131 
L 338.546064 270.461793 
L 338.870071 268.793379 
L 339.194077 277.135448 
L 339.518084 277.135448 
L 339.84209 280.472276 
L 340.166097 287.145931 
L 340.490103 283.809103 
L 340.81411 283.809103 
L 341.138116 263.788138 
L 341.462123 263.788138 
L 341.78613 255.446069 
L 342.110136 260.45131 
L 342.758149 260.45131 
L 343.406162 243.767172 
L 343.730169 240.430345 
L 344.054175 252.109241 
L 344.378182 253.777655 
L 344.702188 250.440828 
L 345.350201 257.114483 
L 345.674208 253.777655 
L 345.998214 232.088276 
L 346.322221 230.419862 
L 346.646228 227.083034 
L 347.294241 238.761931 
L 347.618247 232.088276 
L 348.26626 238.761931 
L 348.590267 240.430345 
L 348.914273 238.761931 
L 349.23828 232.088276 
L 349.562286 230.419862 
L 350.210299 242.098759 
L 350.534306 242.098759 
L 351.506326 255.446069 
L 351.830332 253.777655 
L 352.478345 247.104 
L 352.802352 245.435586 
L 353.126358 248.772414 
L 353.450365 245.435586 
L 353.774371 237.093517 
L 354.098378 245.435586 
L 354.746391 215.404138 
L 355.070397 218.740966 
L 355.394404 230.419862 
L 355.71841 227.083034 
L 356.042417 222.077793 
L 356.366424 213.735724 
L 357.014437 202.056828 
L 357.338443 203.725241 
L 357.66245 197.051586 
L 357.986456 197.051586 
L 358.310463 212.06731 
L 358.958476 218.740966 
L 359.282482 217.072552 
L 359.606489 207.062069 
L 359.930495 202.056828 
L 360.254502 215.404138 
L 360.578508 208.730483 
L 360.902515 195.383172 
L 361.226522 188.709517 
L 361.550528 192.046345 
L 361.874535 182.035862 
L 362.198541 195.383172 
L 362.846554 210.398897 
L 363.170561 217.072552 
L 363.494567 212.06731 
L 363.818574 210.398897 
L 364.14258 213.735724 
L 364.466587 212.06731 
L 364.790593 215.404138 
L 365.1146 207.062069 
L 365.438606 212.06731 
L 365.762613 212.06731 
L 366.086619 213.735724 
L 366.410626 207.062069 
L 366.734633 203.725241 
L 367.058639 205.393655 
L 367.382646 203.725241 
L 367.706652 213.735724 
L 368.354665 198.72 
L 368.678672 205.393655 
L 369.002678 190.377931 
L 369.326685 192.046345 
L 369.650691 187.041103 
L 370.298704 202.056828 
L 370.946717 198.72 
L 371.270724 198.72 
L 371.594731 202.056828 
L 371.918737 202.056828 
L 372.242744 203.725241 
L 372.56675 208.730483 
L 372.890757 195.383172 
L 373.214763 195.383172 
L 373.53877 192.046345 
L 373.862776 175.362207 
L 374.186783 173.693793 
L 374.510789 170.356966 
L 374.834796 192.046345 
L 375.158802 195.383172 
L 375.482809 210.398897 
L 375.806815 212.06731 
L 376.130822 212.06731 
L 376.454829 213.735724 
L 377.426848 197.051586 
L 377.750855 190.377931 
L 378.074861 193.714759 
L 378.398868 195.383172 
L 378.722874 215.404138 
L 379.046881 217.072552 
L 379.370887 215.404138 
L 379.694894 217.072552 
L 380.0189 213.735724 
L 380.342907 215.404138 
L 380.666913 223.746207 
L 380.99092 227.083034 
L 381.314927 228.751448 
L 381.638933 233.75669 
L 381.96294 233.75669 
L 382.286946 237.093517 
L 382.610953 235.425103 
L 383.582972 250.440828 
L 384.878998 213.735724 
L 385.203005 222.077793 
L 385.527011 215.404138 
L 385.851018 197.051586 
L 386.175024 192.046345 
L 386.499031 192.046345 
L 386.823038 190.377931 
L 387.147044 190.377931 
L 387.471051 187.041103 
L 387.795057 232.088276 
L 388.119064 245.435586 
L 388.44307 248.772414 
L 388.767077 250.440828 
L 389.091083 247.104 
L 389.41509 245.435586 
L 389.739096 227.083034 
L 390.063103 223.746207 
L 390.387109 223.746207 
L 390.711116 225.414621 
L 391.359129 218.740966 
L 391.683136 220.409379 
L 392.007142 207.062069 
L 392.331149 208.730483 
L 392.655155 205.393655 
L 393.303168 182.035862 
L 393.627175 190.377931 
L 394.275188 187.041103 
L 394.599194 205.393655 
L 394.923201 213.735724 
L 395.247207 215.404138 
L 395.571214 218.740966 
L 395.89522 225.414621 
L 396.219227 252.109241 
L 396.543234 247.104 
L 396.86724 245.435586 
L 397.191247 225.414621 
L 397.515253 230.419862 
L 398.163266 218.740966 
L 398.487273 220.409379 
L 398.487273 220.409379 
" clip-path="url(#pc75d6c67cb)" style="fill: none; stroke: #1f77b4; stroke-width: 1.5; stroke-linecap: square"/>
   </g>
   <g id="patch_3">
    <path d="M 57.6 307.584 
L 57.6 41.472 
" style="fill: none; stroke: #000000; stroke-width: 0.8; stroke-linejoin: miter; stroke-linecap: square"/>
   </g>
   <g id="patch_4">
    <path d="M 414.72 307.584 
L 414.72 41.472 
" style="fill: none; stroke: #000000; stroke-width: 0.8; stroke-linejoin: miter; stroke-linecap: square"/>
   </g>
   <g id="patch_5">
    <path d="M 57.6 307.584 
L 414.72 307.584 
" style="fill: none; stroke: #000000; stroke-width: 0.8; stroke-linejoin: miter; stroke-linecap: square"/>
   </g>
   <g id="patch_6">
    <path d="M 57.6 41.472 
L 414.72 41.472 
" style="fill: none; stroke: #000000; stroke-width: 0.8; stroke-linejoin: miter; stroke-linecap: square"/>
   </g>
   <g id="text_20">
    <!-- Simulated Anealling Cost -->
    <g transform="translate(160.8 35.472)scale(0.12 -0.12)">
     <defs>
      <path id="DejaVuSans-53" d="M 3425 4513 
L 3425 3897 
Q 3066 4069 2747 4153 
Q 2428 4238 2131 4238 
Q 1616 4238 1336 4038 
Q 1056 3838 1056 3469 
Q 1056 3159 1242 3001 
Q 1428 2844 1947 2747 
L 2328 2669 
Q 3034 2534 3370 2195 
Q 3706 1856 3706 1288 
Q 3706 609 3251 259 
Q 2797 -91 1919 -91 
Q 1588 -91 1214 -16 
Q 841 59 441 206 
L 441 856 
Q 825 641 1194 531 
Q 1563 422 1919 422 
Q 2459 422 2753 634 
Q 3047 847 3047 1241 
Q 3047 1584 2836 1778 
Q 2625 1972 2144 2069 
L 1759 2144 
Q 1053 2284 737 2584 
Q 422 2884 422 3419 
Q 422 4038 858 4394 
Q 1294 4750 2059 4750 
Q 2388 4750 2728 4690 
Q 3069 4631 3425 4513 
z
" transform="scale(0.015625)"/>
      <path id="DejaVuSans-69" d="M 603 3500 
L 1178 3500 
L 1178 0 
L 603 0 
L 603 3500 
z
M 603 4863 
L 1178 4863 
L 1178 4134 
L 603 4134 
L 603 4863 
z
" transform="scale(0.015625)"/>
      <path id="DejaVuSans-65" d="M 3597 1894 
L 3597 1613 
L 953 1613 
Q 991 1019 1311 708 
Q 1631 397 2203 397 
Q 2534 397 2845 478 
Q 3156 559 3463 722 
L 3463 178 
Q 3153 47 2828 -22 
Q 2503 -91 2169 -91 
Q 1331 -91 842 396 
Q 353 884 353 1716 
Q 353 2575 817 3079 
Q 1281 3584 2069 3584 
Q 2775 3584 3186 3129 
Q 3597 2675 3597 1894 
z
M 3022 2063 
Q 3016 2534 2758 2815 
Q 2500 3097 2075 3097 
Q 1594 3097 1305 2825 
Q 1016 2553 972 2059 
L 3022 2063 
z
" transform="scale(0.015625)"/>
      <path id="DejaVuSans-64" d="M 2906 2969 
L 2906 4863 
L 3481 4863 
L 3481 0 
L 2906 0 
L 2906 525 
Q 2725 213 2448 61 
Q 2172 -91 1784 -91 
Q 1150 -91 751 415 
Q 353 922 353 1747 
Q 353 2572 751 3078 
Q 1150 3584 1784 3584 
Q 2172 3584 2448 3432 
Q 2725 3281 2906 2969 
z
M 947 1747 
Q 947 1113 1208 752 
Q 1469 391 1925 391 
Q 2381 391 2643 752 
Q 2906 1113 2906 1747 
Q 2906 2381 2643 2742 
Q 2381 3103 1925 3103 
Q 1469 3103 1208 2742 
Q 947 2381 947 1747 
z
" transform="scale(0.015625)"/>
      <path id="DejaVuSans-41" d="M 2188 4044 
L 1331 1722 
L 3047 1722 
L 2188 4044 
z
M 1831 4666 
L 2547 4666 
L 4325 0 
L 3669 0 
L 3244 1197 
L 1141 1197 
L 716 0 
L 50 0 
L 1831 4666 
z
" transform="scale(0.015625)"/>
      <path id="DejaVuSans-67" d="M 2906 1791 
Q 2906 2416 2648 2759 
Q 2391 3103 1925 3103 
Q 1463 3103 1205 2759 
Q 947 2416 947 1791 
Q 947 1169 1205 825 
Q 1463 481 1925 481 
Q 2391 481 2648 825 
Q 2906 1169 2906 1791 
z
M 3481 434 
Q 3481 -459 3084 -895 
Q 2688 -1331 1869 -1331 
Q 1566 -1331 1297 -1286 
Q 1028 -1241 775 -1147 
L 775 -588 
Q 1028 -725 1275 -790 
Q 1522 -856 1778 -856 
Q 2344 -856 2625 -561 
Q 2906 -266 2906 331 
L 2906 616 
Q 2728 306 2450 153 
Q 2172 0 1784 0 
Q 1141 0 747 490 
Q 353 981 353 1791 
Q 353 2603 747 3093 
Q 1141 3584 1784 3584 
Q 2172 3584 2450 3431 
Q 2728 3278 2906 2969 
L 2906 3500 
L 3481 3500 
L 3481 434 
z
" transform="scale(0.015625)"/>
      <path id="DejaVuSans-43" d="M 4122 4306 
L 4122 3641 
Q 3803 3938 3442 4084 
Q 3081 4231 2675 4231 
Q 1875 4231 1450 3742 
Q 1025 3253 1025 2328 
Q 1025 1406 1450 917 
Q 1875 428 2675 428 
Q 3081 428 3442 575 
Q 3803 722 4122 1019 
L 4122 359 
Q 3791 134 3420 21 
Q 3050 -91 2638 -91 
Q 1578 -91 968 557 
Q 359 1206 359 2328 
Q 359 3453 968 4101 
Q 1578 4750 2638 4750 
Q 3056 4750 3426 4639 
Q 3797 4528 4122 4306 
z
" transform="scale(0.015625)"/>
     </defs>
     <use xlink:href="#DejaVuSans-53"/>
     <use xlink:href="#DejaVuSans-69" x="63.476562"/>
     <use xlink:href="#DejaVuSans-6d" x="91.259766"/>
     <use xlink:href="#DejaVuSans-75" x="188.671875"/>
     <use xlink:href="#DejaVuSans-6c" x="252.050781"/>
     <use xlink:href="#DejaVuSans-61" x="279.833984"/>
     <use xlink:href="#DejaVuSans-74" x="341.113281"/>
     <use xlink:href="#DejaVuSans-65" x="380.322266"/>
     <use xlink:href="#DejaVuSans-64" x="441.845703"/>
     <use xlink:href="#DejaVuSans-20" x="505.322266"/>
     <use xlink:href="#DejaVuSans-41" x="537.109375"/>
     <use xlink:href="#DejaVuSans-6e" x="605.517578"/>
     <use xlink:href="#DejaVuSans-65" x="668.896484"/>
     <use xlink:href="#DejaVuSans-61" x="730.419922"/>
     <use xlink:href="#DejaVuSans-6c" x="791.699219"/>
     <use xlink:href="#DejaVuSans-6c" x="819.482422"/>
     <use xlink:href="#DejaVuSans-69" x="847.265625"/>
     <use xlink:href="#DejaVuSans-6e" x="875.048828"/>
     <use xlink:href="#DejaVuSans-67" x="938.427734"/>
     <use xlink:href="#DejaVuSans-20" x="1001.904297"/>
     <use xlink:href="#DejaVuSans-43" x="1033.691406"/>
     <use xlink:href="#DejaVuSans-6f" x="1103.515625"/>
     <use xlink:href="#DejaVuSans-73" x="1164.697266"/>
     <use xlink:href="#DejaVuSans-74" x="1216.796875"/>
    </g>
   </g>
  </g>
 </g>
 <defs>
  <clipPath id="pc75d6c67cb">
   <rect x="57.6" y="41.472" width="357.12" height="266.112"/>
  </clipPath>
 </defs>
</svg>
