<?xml version="1.0" encoding="utf-8" standalone="no"?>
<!DOCTYPE svg PUBLIC "-//W3C//DTD SVG 1.1//EN"
  "http://www.w3.org/Graphics/SVG/1.1/DTD/svg11.dtd">
<svg xmlns:xlink="http://www.w3.org/1999/xlink" width="460.8pt" height="345.6pt" viewBox="0 0 460.8 345.6" xmlns="http://www.w3.org/2000/svg" version="1.1">
 <metadata>
  <rdf:RDF xmlns:dc="http://purl.org/dc/elements/1.1/" xmlns:cc="http://creativecommons.org/ns#" xmlns:rdf="http://www.w3.org/1999/02/22-rdf-syntax-ns#">
   <cc:Work>
    <dc:type rdf:resource="http://purl.org/dc/dcmitype/StillImage"/>
    <dc:date>2022-06-01T08:06:53.940019</dc:date>
    <dc:format>image/svg+xml</dc:format>
    <dc:creator>
     <cc:Agent>
      <dc:title>Matplotlib v3.5.1, https://matplotlib.org/</dc:title>
     </cc:Agent>
    </dc:creator>
   </cc:Work>
  </rdf:RDF>
 </metadata>
 <defs>
  <style type="text/css">*{stroke-linejoin: round; stroke-linecap: butt}</style>
 </defs>
 <g id="figure_1">
  <g id="patch_1">
   <path d="M 0 345.6 
L 460.8 345.6 
L 460.8 0 
L 0 0 
z
" style="fill: #ffffff"/>
  </g>
  <g id="axes_1">
   <g id="patch_2">
    <path d="M 57.6 307.584 
L 414.72 307.584 
L 414.72 41.472 
L 57.6 41.472 
z
" style="fill: #ffffff"/>
   </g>
   <g id="matplotlib.axis_1">
    <g id="xtick_1">
     <g id="line2d_1">
      <defs>
       <path id="m4f2d82aac3" d="M 0 0 
L 0 3.5 
" style="stroke: #000000; stroke-width: 0.8"/>
      </defs>
      <g>
       <use xlink:href="#m4f2d82aac3" x="73.832727" y="307.584" style="stroke: #000000; stroke-width: 0.8"/>
      </g>
     </g>
     <g id="text_1">
      <!-- 0 -->
      <g transform="translate(70.651477 322.182437)scale(0.1 -0.1)">
       <defs>
        <path id="DejaVuSans-30" d="M 2034 4250 
Q 1547 4250 1301 3770 
Q 1056 3291 1056 2328 
Q 1056 1369 1301 889 
Q 1547 409 2034 409 
Q 2525 409 2770 889 
Q 3016 1369 3016 2328 
Q 3016 3291 2770 3770 
Q 2525 4250 2034 4250 
z
M 2034 4750 
Q 2819 4750 3233 4129 
Q 3647 3509 3647 2328 
Q 3647 1150 3233 529 
Q 2819 -91 2034 -91 
Q 1250 -91 836 529 
Q 422 1150 422 2328 
Q 422 3509 836 4129 
Q 1250 4750 2034 4750 
z
" transform="scale(0.015625)"/>
       </defs>
       <use xlink:href="#DejaVuSans-30"/>
      </g>
     </g>
    </g>
    <g id="xtick_2">
     <g id="line2d_2">
      <g>
       <use xlink:href="#m4f2d82aac3" x="152.2517" y="307.584" style="stroke: #000000; stroke-width: 0.8"/>
      </g>
     </g>
     <g id="text_2">
      <!-- 500 -->
      <g transform="translate(142.70795 322.182437)scale(0.1 -0.1)">
       <defs>
        <path id="DejaVuSans-35" d="M 691 4666 
L 3169 4666 
L 3169 4134 
L 1269 4134 
L 1269 2991 
Q 1406 3038 1543 3061 
Q 1681 3084 1819 3084 
Q 2600 3084 3056 2656 
Q 3513 2228 3513 1497 
Q 3513 744 3044 326 
Q 2575 -91 1722 -91 
Q 1428 -91 1123 -41 
Q 819 9 494 109 
L 494 744 
Q 775 591 1075 516 
Q 1375 441 1709 441 
Q 2250 441 2565 725 
Q 2881 1009 2881 1497 
Q 2881 1984 2565 2268 
Q 2250 2553 1709 2553 
Q 1456 2553 1204 2497 
Q 953 2441 691 2322 
L 691 4666 
z
" transform="scale(0.015625)"/>
       </defs>
       <use xlink:href="#DejaVuSans-35"/>
       <use xlink:href="#DejaVuSans-30" x="63.623047"/>
       <use xlink:href="#DejaVuSans-30" x="127.246094"/>
      </g>
     </g>
    </g>
    <g id="xtick_3">
     <g id="line2d_3">
      <g>
       <use xlink:href="#m4f2d82aac3" x="230.670672" y="307.584" style="stroke: #000000; stroke-width: 0.8"/>
      </g>
     </g>
     <g id="text_3">
      <!-- 1000 -->
      <g transform="translate(217.945672 322.182437)scale(0.1 -0.1)">
       <defs>
        <path id="DejaVuSans-31" d="M 794 531 
L 1825 531 
L 1825 4091 
L 703 3866 
L 703 4441 
L 1819 4666 
L 2450 4666 
L 2450 531 
L 3481 531 
L 3481 0 
L 794 0 
L 794 531 
z
" transform="scale(0.015625)"/>
       </defs>
       <use xlink:href="#DejaVuSans-31"/>
       <use xlink:href="#DejaVuSans-30" x="63.623047"/>
       <use xlink:href="#DejaVuSans-30" x="127.246094"/>
       <use xlink:href="#DejaVuSans-30" x="190.869141"/>
      </g>
     </g>
    </g>
    <g id="xtick_4">
     <g id="line2d_4">
      <g>
       <use xlink:href="#m4f2d82aac3" x="309.089644" y="307.584" style="stroke: #000000; stroke-width: 0.8"/>
      </g>
     </g>
     <g id="text_4">
      <!-- 1500 -->
      <g transform="translate(296.364644 322.182437)scale(0.1 -0.1)">
       <use xlink:href="#DejaVuSans-31"/>
       <use xlink:href="#DejaVuSans-35" x="63.623047"/>
       <use xlink:href="#DejaVuSans-30" x="127.246094"/>
       <use xlink:href="#DejaVuSans-30" x="190.869141"/>
      </g>
     </g>
    </g>
    <g id="xtick_5">
     <g id="line2d_5">
      <g>
       <use xlink:href="#m4f2d82aac3" x="387.508617" y="307.584" style="stroke: #000000; stroke-width: 0.8"/>
      </g>
     </g>
     <g id="text_5">
      <!-- 2000 -->
      <g transform="translate(374.783617 322.182437)scale(0.1 -0.1)">
       <defs>
        <path id="DejaVuSans-32" d="M 1228 531 
L 3431 531 
L 3431 0 
L 469 0 
L 469 531 
Q 828 903 1448 1529 
Q 2069 2156 2228 2338 
Q 2531 2678 2651 2914 
Q 2772 3150 2772 3378 
Q 2772 3750 2511 3984 
Q 2250 4219 1831 4219 
Q 1534 4219 1204 4116 
Q 875 4013 500 3803 
L 500 4441 
Q 881 4594 1212 4672 
Q 1544 4750 1819 4750 
Q 2544 4750 2975 4387 
Q 3406 4025 3406 3419 
Q 3406 3131 3298 2873 
Q 3191 2616 2906 2266 
Q 2828 2175 2409 1742 
Q 1991 1309 1228 531 
z
" transform="scale(0.015625)"/>
       </defs>
       <use xlink:href="#DejaVuSans-32"/>
       <use xlink:href="#DejaVuSans-30" x="63.623047"/>
       <use xlink:href="#DejaVuSans-30" x="127.246094"/>
       <use xlink:href="#DejaVuSans-30" x="190.869141"/>
      </g>
     </g>
    </g>
    <g id="text_6">
     <!-- num swaps -->
     <g transform="translate(207.826406 335.860562)scale(0.1 -0.1)">
      <defs>
       <path id="DejaVuSans-6e" d="M 3513 2113 
L 3513 0 
L 2938 0 
L 2938 2094 
Q 2938 2591 2744 2837 
Q 2550 3084 2163 3084 
Q 1697 3084 1428 2787 
Q 1159 2491 1159 1978 
L 1159 0 
L 581 0 
L 581 3500 
L 1159 3500 
L 1159 2956 
Q 1366 3272 1645 3428 
Q 1925 3584 2291 3584 
Q 2894 3584 3203 3211 
Q 3513 2838 3513 2113 
z
" transform="scale(0.015625)"/>
       <path id="DejaVuSans-75" d="M 544 1381 
L 544 3500 
L 1119 3500 
L 1119 1403 
Q 1119 906 1312 657 
Q 1506 409 1894 409 
Q 2359 409 2629 706 
Q 2900 1003 2900 1516 
L 2900 3500 
L 3475 3500 
L 3475 0 
L 2900 0 
L 2900 538 
Q 2691 219 2414 64 
Q 2138 -91 1772 -91 
Q 1169 -91 856 284 
Q 544 659 544 1381 
z
M 1991 3584 
L 1991 3584 
z
" transform="scale(0.015625)"/>
       <path id="DejaVuSans-6d" d="M 3328 2828 
Q 3544 3216 3844 3400 
Q 4144 3584 4550 3584 
Q 5097 3584 5394 3201 
Q 5691 2819 5691 2113 
L 5691 0 
L 5113 0 
L 5113 2094 
Q 5113 2597 4934 2840 
Q 4756 3084 4391 3084 
Q 3944 3084 3684 2787 
Q 3425 2491 3425 1978 
L 3425 0 
L 2847 0 
L 2847 2094 
Q 2847 2600 2669 2842 
Q 2491 3084 2119 3084 
Q 1678 3084 1418 2786 
Q 1159 2488 1159 1978 
L 1159 0 
L 581 0 
L 581 3500 
L 1159 3500 
L 1159 2956 
Q 1356 3278 1631 3431 
Q 1906 3584 2284 3584 
Q 2666 3584 2933 3390 
Q 3200 3197 3328 2828 
z
" transform="scale(0.015625)"/>
       <path id="DejaVuSans-20" transform="scale(0.015625)"/>
       <path id="DejaVuSans-73" d="M 2834 3397 
L 2834 2853 
Q 2591 2978 2328 3040 
Q 2066 3103 1784 3103 
Q 1356 3103 1142 2972 
Q 928 2841 928 2578 
Q 928 2378 1081 2264 
Q 1234 2150 1697 2047 
L 1894 2003 
Q 2506 1872 2764 1633 
Q 3022 1394 3022 966 
Q 3022 478 2636 193 
Q 2250 -91 1575 -91 
Q 1294 -91 989 -36 
Q 684 19 347 128 
L 347 722 
Q 666 556 975 473 
Q 1284 391 1588 391 
Q 1994 391 2212 530 
Q 2431 669 2431 922 
Q 2431 1156 2273 1281 
Q 2116 1406 1581 1522 
L 1381 1569 
Q 847 1681 609 1914 
Q 372 2147 372 2553 
Q 372 3047 722 3315 
Q 1072 3584 1716 3584 
Q 2034 3584 2315 3537 
Q 2597 3491 2834 3397 
z
" transform="scale(0.015625)"/>
       <path id="DejaVuSans-77" d="M 269 3500 
L 844 3500 
L 1563 769 
L 2278 3500 
L 2956 3500 
L 3675 769 
L 4391 3500 
L 4966 3500 
L 4050 0 
L 3372 0 
L 2619 2869 
L 1863 0 
L 1184 0 
L 269 3500 
z
" transform="scale(0.015625)"/>
       <path id="DejaVuSans-61" d="M 2194 1759 
Q 1497 1759 1228 1600 
Q 959 1441 959 1056 
Q 959 750 1161 570 
Q 1363 391 1709 391 
Q 2188 391 2477 730 
Q 2766 1069 2766 1631 
L 2766 1759 
L 2194 1759 
z
M 3341 1997 
L 3341 0 
L 2766 0 
L 2766 531 
Q 2569 213 2275 61 
Q 1981 -91 1556 -91 
Q 1019 -91 701 211 
Q 384 513 384 1019 
Q 384 1609 779 1909 
Q 1175 2209 1959 2209 
L 2766 2209 
L 2766 2266 
Q 2766 2663 2505 2880 
Q 2244 3097 1772 3097 
Q 1472 3097 1187 3025 
Q 903 2953 641 2809 
L 641 3341 
Q 956 3463 1253 3523 
Q 1550 3584 1831 3584 
Q 2591 3584 2966 3190 
Q 3341 2797 3341 1997 
z
" transform="scale(0.015625)"/>
       <path id="DejaVuSans-70" d="M 1159 525 
L 1159 -1331 
L 581 -1331 
L 581 3500 
L 1159 3500 
L 1159 2969 
Q 1341 3281 1617 3432 
Q 1894 3584 2278 3584 
Q 2916 3584 3314 3078 
Q 3713 2572 3713 1747 
Q 3713 922 3314 415 
Q 2916 -91 2278 -91 
Q 1894 -91 1617 61 
Q 1341 213 1159 525 
z
M 3116 1747 
Q 3116 2381 2855 2742 
Q 2594 3103 2138 3103 
Q 1681 3103 1420 2742 
Q 1159 2381 1159 1747 
Q 1159 1113 1420 752 
Q 1681 391 2138 391 
Q 2594 391 2855 752 
Q 3116 1113 3116 1747 
z
" transform="scale(0.015625)"/>
      </defs>
      <use xlink:href="#DejaVuSans-6e"/>
      <use xlink:href="#DejaVuSans-75" x="63.378906"/>
      <use xlink:href="#DejaVuSans-6d" x="126.757812"/>
      <use xlink:href="#DejaVuSans-20" x="224.169922"/>
      <use xlink:href="#DejaVuSans-73" x="255.957031"/>
      <use xlink:href="#DejaVuSans-77" x="308.056641"/>
      <use xlink:href="#DejaVuSans-61" x="389.84375"/>
      <use xlink:href="#DejaVuSans-70" x="451.123047"/>
      <use xlink:href="#DejaVuSans-73" x="514.599609"/>
     </g>
    </g>
   </g>
   <g id="matplotlib.axis_2">
    <g id="ytick_1">
     <g id="line2d_6">
      <defs>
       <path id="mcbe22725fa" d="M 0 0 
L -3.5 0 
" style="stroke: #000000; stroke-width: 0.8"/>
      </defs>
      <g>
       <use xlink:href="#mcbe22725fa" x="57.6" y="273.495273" style="stroke: #000000; stroke-width: 0.8"/>
      </g>
     </g>
     <g id="text_7">
      <!-- 600 -->
      <g transform="translate(31.5125 277.294491)scale(0.1 -0.1)">
       <defs>
        <path id="DejaVuSans-36" d="M 2113 2584 
Q 1688 2584 1439 2293 
Q 1191 2003 1191 1497 
Q 1191 994 1439 701 
Q 1688 409 2113 409 
Q 2538 409 2786 701 
Q 3034 994 3034 1497 
Q 3034 2003 2786 2293 
Q 2538 2584 2113 2584 
z
M 3366 4563 
L 3366 3988 
Q 3128 4100 2886 4159 
Q 2644 4219 2406 4219 
Q 1781 4219 1451 3797 
Q 1122 3375 1075 2522 
Q 1259 2794 1537 2939 
Q 1816 3084 2150 3084 
Q 2853 3084 3261 2657 
Q 3669 2231 3669 1497 
Q 3669 778 3244 343 
Q 2819 -91 2113 -91 
Q 1303 -91 875 529 
Q 447 1150 447 2328 
Q 447 3434 972 4092 
Q 1497 4750 2381 4750 
Q 2619 4750 2861 4703 
Q 3103 4656 3366 4563 
z
" transform="scale(0.015625)"/>
       </defs>
       <use xlink:href="#DejaVuSans-36"/>
       <use xlink:href="#DejaVuSans-30" x="63.623047"/>
       <use xlink:href="#DejaVuSans-30" x="127.246094"/>
      </g>
     </g>
    </g>
    <g id="ytick_2">
     <g id="line2d_7">
      <g>
       <use xlink:href="#mcbe22725fa" x="57.6" y="229.509818" style="stroke: #000000; stroke-width: 0.8"/>
      </g>
     </g>
     <g id="text_8">
      <!-- 620 -->
      <g transform="translate(31.5125 233.309037)scale(0.1 -0.1)">
       <use xlink:href="#DejaVuSans-36"/>
       <use xlink:href="#DejaVuSans-32" x="63.623047"/>
       <use xlink:href="#DejaVuSans-30" x="127.246094"/>
      </g>
     </g>
    </g>
    <g id="ytick_3">
     <g id="line2d_8">
      <g>
       <use xlink:href="#mcbe22725fa" x="57.6" y="185.524364" style="stroke: #000000; stroke-width: 0.8"/>
      </g>
     </g>
     <g id="text_9">
      <!-- 640 -->
      <g transform="translate(31.5125 189.323582)scale(0.1 -0.1)">
       <defs>
        <path id="DejaVuSans-34" d="M 2419 4116 
L 825 1625 
L 2419 1625 
L 2419 4116 
z
M 2253 4666 
L 3047 4666 
L 3047 1625 
L 3713 1625 
L 3713 1100 
L 3047 1100 
L 3047 0 
L 2419 0 
L 2419 1100 
L 313 1100 
L 313 1709 
L 2253 4666 
z
" transform="scale(0.015625)"/>
       </defs>
       <use xlink:href="#DejaVuSans-36"/>
       <use xlink:href="#DejaVuSans-34" x="63.623047"/>
       <use xlink:href="#DejaVuSans-30" x="127.246094"/>
      </g>
     </g>
    </g>
    <g id="ytick_4">
     <g id="line2d_9">
      <g>
       <use xlink:href="#mcbe22725fa" x="57.6" y="141.538909" style="stroke: #000000; stroke-width: 0.8"/>
      </g>
     </g>
     <g id="text_10">
      <!-- 660 -->
      <g transform="translate(31.5125 145.338128)scale(0.1 -0.1)">
       <use xlink:href="#DejaVuSans-36"/>
       <use xlink:href="#DejaVuSans-36" x="63.623047"/>
       <use xlink:href="#DejaVuSans-30" x="127.246094"/>
      </g>
     </g>
    </g>
    <g id="ytick_5">
     <g id="line2d_10">
      <g>
       <use xlink:href="#mcbe22725fa" x="57.6" y="97.553455" style="stroke: #000000; stroke-width: 0.8"/>
      </g>
     </g>
     <g id="text_11">
      <!-- 680 -->
      <g transform="translate(31.5125 101.352673)scale(0.1 -0.1)">
       <defs>
        <path id="DejaVuSans-38" d="M 2034 2216 
Q 1584 2216 1326 1975 
Q 1069 1734 1069 1313 
Q 1069 891 1326 650 
Q 1584 409 2034 409 
Q 2484 409 2743 651 
Q 3003 894 3003 1313 
Q 3003 1734 2745 1975 
Q 2488 2216 2034 2216 
z
M 1403 2484 
Q 997 2584 770 2862 
Q 544 3141 544 3541 
Q 544 4100 942 4425 
Q 1341 4750 2034 4750 
Q 2731 4750 3128 4425 
Q 3525 4100 3525 3541 
Q 3525 3141 3298 2862 
Q 3072 2584 2669 2484 
Q 3125 2378 3379 2068 
Q 3634 1759 3634 1313 
Q 3634 634 3220 271 
Q 2806 -91 2034 -91 
Q 1263 -91 848 271 
Q 434 634 434 1313 
Q 434 1759 690 2068 
Q 947 2378 1403 2484 
z
M 1172 3481 
Q 1172 3119 1398 2916 
Q 1625 2713 2034 2713 
Q 2441 2713 2670 2916 
Q 2900 3119 2900 3481 
Q 2900 3844 2670 4047 
Q 2441 4250 2034 4250 
Q 1625 4250 1398 4047 
Q 1172 3844 1172 3481 
z
" transform="scale(0.015625)"/>
       </defs>
       <use xlink:href="#DejaVuSans-36"/>
       <use xlink:href="#DejaVuSans-38" x="63.623047"/>
       <use xlink:href="#DejaVuSans-30" x="127.246094"/>
      </g>
     </g>
    </g>
    <g id="ytick_6">
     <g id="line2d_11">
      <g>
       <use xlink:href="#mcbe22725fa" x="57.6" y="53.568" style="stroke: #000000; stroke-width: 0.8"/>
      </g>
     </g>
     <g id="text_12">
      <!-- 700 -->
      <g transform="translate(31.5125 57.367219)scale(0.1 -0.1)">
       <defs>
        <path id="DejaVuSans-37" d="M 525 4666 
L 3525 4666 
L 3525 4397 
L 1831 0 
L 1172 0 
L 2766 4134 
L 525 4134 
L 525 4666 
z
" transform="scale(0.015625)"/>
       </defs>
       <use xlink:href="#DejaVuSans-37"/>
       <use xlink:href="#DejaVuSans-30" x="63.623047"/>
       <use xlink:href="#DejaVuSans-30" x="127.246094"/>
      </g>
     </g>
    </g>
    <g id="text_13">
     <!-- total cost -->
     <g transform="translate(25.432812 197.923313)rotate(-90)scale(0.1 -0.1)">
      <defs>
       <path id="DejaVuSans-74" d="M 1172 4494 
L 1172 3500 
L 2356 3500 
L 2356 3053 
L 1172 3053 
L 1172 1153 
Q 1172 725 1289 603 
Q 1406 481 1766 481 
L 2356 481 
L 2356 0 
L 1766 0 
Q 1100 0 847 248 
Q 594 497 594 1153 
L 594 3053 
L 172 3053 
L 172 3500 
L 594 3500 
L 594 4494 
L 1172 4494 
z
" transform="scale(0.015625)"/>
       <path id="DejaVuSans-6f" d="M 1959 3097 
Q 1497 3097 1228 2736 
Q 959 2375 959 1747 
Q 959 1119 1226 758 
Q 1494 397 1959 397 
Q 2419 397 2687 759 
Q 2956 1122 2956 1747 
Q 2956 2369 2687 2733 
Q 2419 3097 1959 3097 
z
M 1959 3584 
Q 2709 3584 3137 3096 
Q 3566 2609 3566 1747 
Q 3566 888 3137 398 
Q 2709 -91 1959 -91 
Q 1206 -91 779 398 
Q 353 888 353 1747 
Q 353 2609 779 3096 
Q 1206 3584 1959 3584 
z
" transform="scale(0.015625)"/>
       <path id="DejaVuSans-6c" d="M 603 4863 
L 1178 4863 
L 1178 0 
L 603 0 
L 603 4863 
z
" transform="scale(0.015625)"/>
       <path id="DejaVuSans-63" d="M 3122 3366 
L 3122 2828 
Q 2878 2963 2633 3030 
Q 2388 3097 2138 3097 
Q 1578 3097 1268 2742 
Q 959 2388 959 1747 
Q 959 1106 1268 751 
Q 1578 397 2138 397 
Q 2388 397 2633 464 
Q 2878 531 3122 666 
L 3122 134 
Q 2881 22 2623 -34 
Q 2366 -91 2075 -91 
Q 1284 -91 818 406 
Q 353 903 353 1747 
Q 353 2603 823 3093 
Q 1294 3584 2113 3584 
Q 2378 3584 2631 3529 
Q 2884 3475 3122 3366 
z
" transform="scale(0.015625)"/>
      </defs>
      <use xlink:href="#DejaVuSans-74"/>
      <use xlink:href="#DejaVuSans-6f" x="39.208984"/>
      <use xlink:href="#DejaVuSans-74" x="100.390625"/>
      <use xlink:href="#DejaVuSans-61" x="139.599609"/>
      <use xlink:href="#DejaVuSans-6c" x="200.878906"/>
      <use xlink:href="#DejaVuSans-20" x="228.662109"/>
      <use xlink:href="#DejaVuSans-63" x="260.449219"/>
      <use xlink:href="#DejaVuSans-6f" x="315.429688"/>
      <use xlink:href="#DejaVuSans-73" x="376.611328"/>
      <use xlink:href="#DejaVuSans-74" x="428.710938"/>
     </g>
    </g>
   </g>
   <g id="line2d_12">
    <path d="M 73.832727 53.568 
L 74.146403 55.767273 
L 74.460079 62.365091 
L 74.773755 64.564364 
L 75.401107 79.959273 
L 75.714783 79.959273 
L 76.028458 119.546182 
L 76.342134 119.546182 
L 76.65581 126.144 
L 76.969486 145.937455 
L 77.283162 139.339636 
L 77.596838 119.546182 
L 77.910514 119.546182 
L 78.22419 106.350545 
L 78.537866 104.151273 
L 78.851542 93.154909 
L 79.165217 106.350545 
L 79.478893 90.955636 
L 79.792569 99.752727 
L 80.106245 112.948364 
L 80.419921 119.546182 
L 80.733597 115.147636 
L 81.047273 137.140364 
L 81.360949 139.339636 
L 81.674625 139.339636 
L 81.9883 126.144 
L 82.615652 137.140364 
L 82.929328 150.336 
L 83.243004 150.336 
L 83.55668 143.738182 
L 83.870356 132.741818 
L 84.184032 128.343273 
L 84.811383 137.140364 
L 85.125059 145.937455 
L 85.438735 150.336 
L 85.752411 139.339636 
L 86.066087 132.741818 
L 86.693439 137.140364 
L 87.007115 143.738182 
L 87.320791 123.944727 
L 87.634466 115.147636 
L 88.261818 128.343273 
L 88.88917 161.332364 
L 89.202846 161.332364 
L 89.516522 174.528 
L 89.830198 178.926545 
L 90.143874 174.528 
L 90.457549 178.926545 
L 90.771225 176.727273 
L 91.084901 170.129455 
L 91.398577 156.933818 
L 91.712253 163.531636 
L 92.025929 137.140364 
L 92.339605 139.339636 
L 92.653281 137.140364 
L 92.966957 141.538909 
L 93.280632 143.738182 
L 93.907984 163.531636 
L 94.849012 189.922909 
L 95.162688 183.325091 
L 95.476364 159.133091 
L 95.79004 172.328727 
L 96.103715 178.926545 
L 96.417391 167.930182 
L 96.731067 183.325091 
L 97.044743 170.129455 
L 97.358419 167.930182 
L 97.985771 150.336 
L 98.299447 150.336 
L 98.613123 156.933818 
L 98.926798 192.122182 
L 99.240474 181.125818 
L 99.55415 183.325091 
L 100.181502 130.542545 
L 100.495178 141.538909 
L 100.808854 123.944727 
L 101.12253 132.741818 
L 101.436206 128.343273 
L 101.749881 137.140364 
L 102.063557 139.339636 
L 102.377233 134.941091 
L 102.690909 115.147636 
L 103.004585 119.546182 
L 103.318261 97.553455 
L 103.631937 110.749091 
L 103.945613 110.749091 
L 104.259289 101.952 
L 104.572964 104.151273 
L 104.88664 130.542545 
L 105.200316 132.741818 
L 105.513992 143.738182 
L 105.827668 130.542545 
L 106.141344 141.538909 
L 106.45502 128.343273 
L 107.082372 123.944727 
L 107.396047 101.952 
L 107.709723 104.151273 
L 108.023399 82.158545 
L 108.337075 88.756364 
L 108.650751 104.151273 
L 108.964427 130.542545 
L 109.278103 134.941091 
L 109.591779 99.752727 
L 109.905455 108.549818 
L 110.21913 130.542545 
L 110.532806 101.952 
L 110.846482 99.752727 
L 111.160158 137.140364 
L 111.473834 128.343273 
L 112.101186 148.136727 
L 112.414862 143.738182 
L 112.728538 141.538909 
L 113.042213 134.941091 
L 113.355889 143.738182 
L 113.983241 128.343273 
L 114.296917 130.542545 
L 114.610593 134.941091 
L 114.924269 132.741818 
L 115.237945 132.741818 
L 115.551621 137.140364 
L 115.865296 152.535273 
L 116.178972 156.933818 
L 116.492648 156.933818 
L 116.806324 152.535273 
L 117.12 154.734545 
L 117.433676 154.734545 
L 117.747352 159.133091 
L 118.061028 143.738182 
L 118.374704 145.937455 
L 118.688379 150.336 
L 119.315731 172.328727 
L 119.629407 165.730909 
L 119.943083 150.336 
L 120.256759 152.535273 
L 120.570435 161.332364 
L 120.884111 161.332364 
L 121.197787 154.734545 
L 121.511462 178.926545 
L 122.138814 205.317818 
L 122.45249 214.114909 
L 122.766166 211.915636 
L 123.079842 229.509818 
L 124.02087 209.716364 
L 124.334545 222.912 
L 124.648221 216.314182 
L 124.961897 240.506182 
L 125.275573 247.104 
L 125.589249 249.303273 
L 125.902925 227.310545 
L 126.216601 222.912 
L 126.530277 211.915636 
L 126.843953 205.317818 
L 127.157628 205.317818 
L 127.471304 200.919273 
L 127.78498 211.915636 
L 128.098656 209.716364 
L 128.412332 198.72 
L 128.726008 198.72 
L 129.039684 203.118545 
L 129.35336 200.919273 
L 129.667036 167.930182 
L 130.294387 163.531636 
L 130.608063 196.520727 
L 130.921739 194.321455 
L 131.235415 172.328727 
L 131.549091 192.122182 
L 131.862767 189.922909 
L 132.490119 178.926545 
L 132.803794 183.325091 
L 133.11747 205.317818 
L 133.431146 211.915636 
L 133.744822 200.919273 
L 134.058498 209.716364 
L 134.372174 203.118545 
L 134.68585 200.919273 
L 134.999526 192.122182 
L 135.313202 194.321455 
L 135.626877 194.321455 
L 135.940553 167.930182 
L 136.567905 189.922909 
L 136.881581 189.922909 
L 137.195257 187.723636 
L 137.508933 187.723636 
L 137.822609 178.926545 
L 138.136285 161.332364 
L 138.44996 167.930182 
L 138.763636 159.133091 
L 139.077312 159.133091 
L 139.390988 143.738182 
L 139.704664 139.339636 
L 140.332016 159.133091 
L 140.645692 159.133091 
L 141.273043 172.328727 
L 141.900395 154.734545 
L 142.214071 156.933818 
L 142.527747 137.140364 
L 142.841423 141.538909 
L 143.155099 143.738182 
L 143.468775 141.538909 
L 143.782451 137.140364 
L 144.096126 139.339636 
L 144.409802 134.941091 
L 144.723478 134.941091 
L 145.037154 137.140364 
L 145.35083 130.542545 
L 145.664506 134.941091 
L 145.978182 137.140364 
L 146.291858 134.941091 
L 146.605534 145.937455 
L 146.919209 150.336 
L 147.232885 181.125818 
L 147.546561 176.727273 
L 147.860237 174.528 
L 148.173913 174.528 
L 148.487589 172.328727 
L 148.801265 167.930182 
L 149.428617 181.125818 
L 149.742292 174.528 
L 150.055968 189.922909 
L 150.369644 185.524364 
L 150.68332 178.926545 
L 151.310672 194.321455 
L 151.624348 187.723636 
L 151.938024 176.727273 
L 152.2517 178.926545 
L 152.565375 192.122182 
L 152.879051 192.122182 
L 153.192727 203.118545 
L 153.506403 200.919273 
L 153.820079 220.712727 
L 154.133755 194.321455 
L 154.447431 181.125818 
L 154.761107 194.321455 
L 155.388458 194.321455 
L 155.702134 198.72 
L 156.01581 194.321455 
L 156.329486 192.122182 
L 157.270514 178.926545 
L 157.58419 200.919273 
L 157.897866 194.321455 
L 158.211542 192.122182 
L 158.525217 174.528 
L 158.838893 163.531636 
L 159.152569 163.531636 
L 159.466245 161.332364 
L 159.779921 167.930182 
L 160.093597 165.730909 
L 160.407273 154.734545 
L 160.720949 154.734545 
L 161.034625 181.125818 
L 161.661976 154.734545 
L 161.975652 156.933818 
L 162.289328 172.328727 
L 162.603004 148.136727 
L 162.91668 150.336 
L 163.230356 159.133091 
L 163.544032 159.133091 
L 163.857708 145.937455 
L 164.171383 154.734545 
L 164.485059 156.933818 
L 164.798735 134.941091 
L 165.112411 143.738182 
L 165.426087 148.136727 
L 166.367115 176.727273 
L 166.680791 163.531636 
L 167.308142 159.133091 
L 167.621818 159.133091 
L 167.935494 163.531636 
L 168.24917 163.531636 
L 168.562846 161.332364 
L 168.876522 154.734545 
L 169.190198 134.941091 
L 169.503874 159.133091 
L 169.817549 161.332364 
L 170.131225 159.133091 
L 170.758577 128.343273 
L 171.072253 130.542545 
L 171.699605 150.336 
L 172.326957 170.129455 
L 172.640632 161.332364 
L 172.954308 185.524364 
L 173.267984 192.122182 
L 173.58166 194.321455 
L 174.209012 216.314182 
L 174.522688 214.114909 
L 174.836364 229.509818 
L 175.15004 229.509818 
L 175.463715 154.734545 
L 175.777391 152.535273 
L 176.091067 130.542545 
L 176.404743 137.140364 
L 176.718419 154.734545 
L 177.032095 154.734545 
L 177.345771 152.535273 
L 177.659447 154.734545 
L 177.973123 145.937455 
L 178.286798 141.538909 
L 178.600474 152.535273 
L 178.91415 148.136727 
L 179.227826 161.332364 
L 179.541502 154.734545 
L 179.855178 141.538909 
L 180.168854 121.745455 
L 180.48253 123.944727 
L 180.796206 121.745455 
L 181.109881 132.741818 
L 181.423557 115.147636 
L 181.737233 108.549818 
L 182.050909 126.144 
L 182.364585 130.542545 
L 182.678261 130.542545 
L 182.991937 141.538909 
L 183.305613 143.738182 
L 183.619289 139.339636 
L 183.932964 196.520727 
L 184.24664 196.520727 
L 185.187668 231.709091 
L 185.501344 222.912 
L 185.81502 222.912 
L 186.128696 218.513455 
L 186.442372 249.303273 
L 186.756047 220.712727 
L 187.069723 225.111273 
L 187.383399 222.912 
L 188.324427 198.72 
L 188.638103 211.915636 
L 188.951779 218.513455 
L 189.265455 220.712727 
L 189.57913 227.310545 
L 189.892806 244.904727 
L 190.206482 251.502545 
L 190.520158 251.502545 
L 190.833834 247.104 
L 191.14751 227.310545 
L 191.461186 229.509818 
L 191.774862 198.72 
L 192.088538 187.723636 
L 192.402213 189.922909 
L 192.715889 181.125818 
L 193.029565 192.122182 
L 193.343241 211.915636 
L 193.656917 205.317818 
L 193.970593 189.922909 
L 194.284269 181.125818 
L 194.597945 176.727273 
L 194.911621 178.926545 
L 195.225296 189.922909 
L 195.538972 174.528 
L 195.852648 172.328727 
L 196.166324 167.930182 
L 196.48 145.937455 
L 196.793676 181.125818 
L 197.107352 185.524364 
L 197.421028 185.524364 
L 197.734704 196.520727 
L 198.048379 192.122182 
L 198.362055 192.122182 
L 198.675731 203.118545 
L 198.989407 183.325091 
L 199.616759 209.716364 
L 200.244111 205.317818 
L 200.557787 211.915636 
L 200.871462 192.122182 
L 201.185138 181.125818 
L 201.498814 198.72 
L 201.81249 185.524364 
L 202.126166 194.321455 
L 202.439842 181.125818 
L 202.753518 189.922909 
L 203.067194 181.125818 
L 203.38087 183.325091 
L 203.694545 183.325091 
L 204.008221 189.922909 
L 204.321897 183.325091 
L 204.635573 170.129455 
L 204.949249 163.531636 
L 205.576601 172.328727 
L 205.890277 183.325091 
L 206.203953 183.325091 
L 206.831304 163.531636 
L 207.458656 172.328727 
L 208.086008 200.919273 
L 208.399684 196.520727 
L 208.71336 194.321455 
L 209.027036 189.922909 
L 209.340711 192.122182 
L 209.654387 187.723636 
L 209.968063 189.922909 
L 210.281739 185.524364 
L 210.595415 187.723636 
L 210.909091 185.524364 
L 211.222767 185.524364 
L 211.536443 183.325091 
L 211.850119 172.328727 
L 212.163794 174.528 
L 212.47747 172.328727 
L 212.791146 174.528 
L 213.104822 185.524364 
L 213.418498 200.919273 
L 213.732174 196.520727 
L 214.04585 218.513455 
L 214.359526 194.321455 
L 214.673202 192.122182 
L 214.986877 192.122182 
L 215.300553 196.520727 
L 215.614229 185.524364 
L 215.927905 183.325091 
L 216.241581 174.528 
L 216.555257 172.328727 
L 217.182609 187.723636 
L 217.80996 170.129455 
L 218.123636 183.325091 
L 218.437312 181.125818 
L 218.750988 192.122182 
L 219.064664 192.122182 
L 219.37834 185.524364 
L 219.692016 189.922909 
L 220.319368 203.118545 
L 220.633043 198.72 
L 220.946719 211.915636 
L 221.260395 214.114909 
L 221.574071 207.517091 
L 221.887747 214.114909 
L 222.201423 192.122182 
L 222.515099 187.723636 
L 222.828775 187.723636 
L 223.142451 150.336 
L 223.456126 145.937455 
L 223.769802 143.738182 
L 224.083478 145.937455 
L 224.397154 137.140364 
L 224.71083 148.136727 
L 225.024506 152.535273 
L 226.279209 126.144 
L 226.592885 130.542545 
L 227.220237 130.542545 
L 227.533913 126.144 
L 227.847589 132.741818 
L 228.161265 134.941091 
L 228.788617 134.941091 
L 229.102292 141.538909 
L 229.415968 139.339636 
L 229.729644 130.542545 
L 230.04332 134.941091 
L 230.356996 134.941091 
L 230.670672 137.140364 
L 230.984348 145.937455 
L 231.298024 143.738182 
L 231.6117 150.336 
L 231.925375 170.129455 
L 232.239051 167.930182 
L 232.552727 170.129455 
L 232.866403 165.730909 
L 233.180079 189.922909 
L 233.493755 185.524364 
L 233.807431 200.919273 
L 234.434783 216.314182 
L 234.748458 227.310545 
L 235.062134 233.908364 
L 235.37581 236.107636 
L 235.689486 251.502545 
L 236.003162 222.912 
L 236.316838 222.912 
L 236.630514 209.716364 
L 236.94419 209.716364 
L 237.257866 198.72 
L 237.571542 207.517091 
L 237.885217 211.915636 
L 238.198893 214.114909 
L 238.512569 220.712727 
L 238.826245 216.314182 
L 239.139921 218.513455 
L 239.453597 222.912 
L 239.767273 225.111273 
L 240.080949 211.915636 
L 240.394625 209.716364 
L 240.7083 203.118545 
L 241.021976 185.524364 
L 241.335652 185.524364 
L 241.963004 207.517091 
L 242.27668 218.513455 
L 242.590356 236.107636 
L 242.904032 233.908364 
L 243.217708 233.908364 
L 243.531383 225.111273 
L 243.845059 229.509818 
L 244.158735 211.915636 
L 244.472411 222.912 
L 244.786087 209.716364 
L 245.099763 181.125818 
L 245.413439 174.528 
L 245.727115 183.325091 
L 246.040791 198.72 
L 246.668142 163.531636 
L 246.981818 170.129455 
L 247.295494 170.129455 
L 247.60917 174.528 
L 247.922846 183.325091 
L 248.550198 178.926545 
L 248.863874 174.528 
L 249.177549 163.531636 
L 249.804901 154.734545 
L 250.118577 152.535273 
L 250.432253 154.734545 
L 250.745929 152.535273 
L 251.059605 139.339636 
L 251.373281 150.336 
L 251.686957 192.122182 
L 252.000632 205.317818 
L 252.627984 194.321455 
L 253.255336 205.317818 
L 253.569012 231.709091 
L 253.882688 225.111273 
L 254.196364 211.915636 
L 254.51004 216.314182 
L 254.823715 205.317818 
L 255.137391 203.118545 
L 255.451067 198.72 
L 255.764743 200.919273 
L 256.078419 198.72 
L 256.392095 192.122182 
L 256.705771 198.72 
L 257.019447 220.712727 
L 257.333123 216.314182 
L 257.646798 233.908364 
L 257.960474 231.709091 
L 258.27415 242.705455 
L 258.587826 244.904727 
L 258.901502 242.705455 
L 259.215178 242.705455 
L 259.528854 240.506182 
L 259.84253 251.502545 
L 260.469881 233.908364 
L 261.724585 154.734545 
L 262.038261 163.531636 
L 262.351937 161.332364 
L 262.665613 148.136727 
L 262.979289 152.535273 
L 263.60664 165.730909 
L 263.920316 167.930182 
L 264.233992 152.535273 
L 264.547668 145.937455 
L 264.861344 148.136727 
L 265.17502 145.937455 
L 265.488696 145.937455 
L 265.802372 137.140364 
L 266.116047 150.336 
L 266.429723 154.734545 
L 266.743399 165.730909 
L 267.057075 167.930182 
L 267.370751 196.520727 
L 267.684427 214.114909 
L 267.998103 218.513455 
L 268.311779 207.517091 
L 268.625455 222.912 
L 268.93913 225.111273 
L 269.566482 236.107636 
L 269.880158 233.908364 
L 270.50751 220.712727 
L 270.821186 207.517091 
L 271.448538 229.509818 
L 271.762213 220.712727 
L 272.075889 238.306909 
L 272.389565 236.107636 
L 272.703241 238.306909 
L 273.016917 266.897455 
L 273.330593 275.694545 
L 273.644269 260.299636 
L 273.957945 277.893818 
L 274.271621 275.694545 
L 274.898972 291.089455 
L 275.212648 280.093091 
L 275.526324 280.093091 
L 275.84 255.901091 
L 276.153676 258.100364 
L 276.467352 255.901091 
L 276.781028 251.502545 
L 277.408379 255.901091 
L 278.035731 251.502545 
L 278.349407 262.498909 
L 278.663083 242.705455 
L 278.976759 255.901091 
L 279.290435 242.705455 
L 279.917787 231.709091 
L 280.231462 240.506182 
L 280.545138 238.306909 
L 280.858814 233.908364 
L 281.17249 233.908364 
L 281.486166 236.107636 
L 281.799842 236.107636 
L 282.113518 238.306909 
L 282.427194 238.306909 
L 282.74087 242.705455 
L 283.054545 225.111273 
L 283.368221 225.111273 
L 283.681897 200.919273 
L 283.995573 198.72 
L 284.309249 200.919273 
L 284.622925 209.716364 
L 284.936601 196.520727 
L 285.250277 236.107636 
L 285.563953 227.310545 
L 285.877628 227.310545 
L 286.50498 218.513455 
L 286.818656 225.111273 
L 287.132332 222.912 
L 287.759684 211.915636 
L 288.07336 216.314182 
L 288.387036 222.912 
L 288.700711 236.107636 
L 289.014387 242.705455 
L 289.328063 236.107636 
L 289.641739 240.506182 
L 289.955415 216.314182 
L 290.269091 225.111273 
L 290.582767 200.919273 
L 290.896443 196.520727 
L 291.210119 203.118545 
L 292.151146 209.716364 
L 292.464822 216.314182 
L 292.778498 214.114909 
L 293.092174 225.111273 
L 293.40585 255.901091 
L 293.719526 251.502545 
L 294.033202 249.303273 
L 294.346877 240.506182 
L 295.287905 258.100364 
L 295.601581 262.498909 
L 295.915257 249.303273 
L 296.542609 260.299636 
L 296.856285 258.100364 
L 297.483636 244.904727 
L 297.797312 258.100364 
L 298.110988 264.698182 
L 298.424664 247.104 
L 299.052016 286.690909 
L 299.365692 288.890182 
L 299.679368 288.890182 
L 299.993043 295.488 
L 300.620395 291.089455 
L 300.934071 284.491636 
L 301.561423 262.498909 
L 301.875099 273.495273 
L 302.188775 253.701818 
L 302.502451 249.303273 
L 302.816126 240.506182 
L 303.129802 225.111273 
L 303.443478 216.314182 
L 303.757154 194.321455 
L 304.07083 203.118545 
L 304.384506 222.912 
L 304.698182 218.513455 
L 305.011858 205.317818 
L 305.325534 200.919273 
L 305.639209 220.712727 
L 305.952885 198.72 
L 306.266561 187.723636 
L 306.580237 185.524364 
L 306.893913 178.926545 
L 307.207589 187.723636 
L 307.521265 187.723636 
L 307.834941 176.727273 
L 308.148617 174.528 
L 308.462292 185.524364 
L 308.775968 187.723636 
L 309.089644 174.528 
L 309.40332 181.125818 
L 310.030672 170.129455 
L 310.344348 183.325091 
L 310.658024 181.125818 
L 310.9717 192.122182 
L 311.285375 194.321455 
L 311.599051 194.321455 
L 311.912727 189.922909 
L 312.226403 209.716364 
L 312.540079 198.72 
L 312.853755 183.325091 
L 313.481107 214.114909 
L 313.794783 227.310545 
L 314.108458 227.310545 
L 314.422134 236.107636 
L 315.049486 159.133091 
L 315.363162 128.343273 
L 315.676838 145.937455 
L 315.990514 143.738182 
L 316.30419 148.136727 
L 316.617866 183.325091 
L 316.931542 178.926545 
L 317.558893 178.926545 
L 317.872569 174.528 
L 318.186245 156.933818 
L 318.499921 154.734545 
L 318.813597 187.723636 
L 319.127273 189.922909 
L 319.440949 189.922909 
L 319.754625 172.328727 
L 320.381976 183.325091 
L 320.695652 176.727273 
L 321.009328 181.125818 
L 321.323004 174.528 
L 321.63668 178.926545 
L 321.950356 209.716364 
L 322.264032 227.310545 
L 322.577708 218.513455 
L 323.205059 222.912 
L 323.518735 214.114909 
L 323.832411 238.306909 
L 324.146087 244.904727 
L 324.459763 236.107636 
L 324.773439 247.104 
L 325.087115 236.107636 
L 325.400791 229.509818 
L 325.714466 238.306909 
L 326.028142 236.107636 
L 326.341818 242.705455 
L 326.655494 240.506182 
L 327.282846 231.709091 
L 327.596522 238.306909 
L 327.910198 233.908364 
L 328.223874 227.310545 
L 328.537549 233.908364 
L 329.164901 225.111273 
L 329.478577 211.915636 
L 329.792253 207.517091 
L 330.105929 216.314182 
L 330.419605 214.114909 
L 330.733281 207.517091 
L 331.360632 227.310545 
L 331.674308 211.915636 
L 331.987984 205.317818 
L 332.30166 214.114909 
L 332.615336 214.114909 
L 332.929012 227.310545 
L 333.242688 251.502545 
L 333.556364 255.901091 
L 333.87004 264.698182 
L 334.183715 266.897455 
L 334.497391 275.694545 
L 335.124743 258.100364 
L 335.438419 271.296 
L 335.752095 255.901091 
L 336.065771 258.100364 
L 336.693123 273.495273 
L 337.006798 273.495273 
L 337.320474 264.698182 
L 337.947826 275.694545 
L 338.261502 273.495273 
L 338.575178 273.495273 
L 338.888854 275.694545 
L 339.20253 264.698182 
L 339.516206 258.100364 
L 339.829881 264.698182 
L 340.457233 260.299636 
L 340.770909 238.306909 
L 341.084585 249.303273 
L 341.398261 264.698182 
L 341.711937 260.299636 
L 342.025613 247.104 
L 342.339289 247.104 
L 342.652964 236.107636 
L 342.96664 231.709091 
L 343.280316 229.509818 
L 343.593992 198.72 
L 344.221344 207.517091 
L 344.53502 174.528 
L 344.848696 192.122182 
L 345.162372 183.325091 
L 345.476047 181.125818 
L 345.789723 170.129455 
L 346.103399 194.321455 
L 346.417075 200.919273 
L 346.730751 225.111273 
L 347.044427 233.908364 
L 347.358103 249.303273 
L 347.671779 249.303273 
L 347.985455 258.100364 
L 348.29913 262.498909 
L 348.612806 236.107636 
L 348.926482 260.299636 
L 349.553834 244.904727 
L 349.86751 247.104 
L 350.181186 229.509818 
L 350.494862 231.709091 
L 350.808538 225.111273 
L 351.122213 227.310545 
L 351.749565 227.310545 
L 352.063241 238.306909 
L 352.376917 238.306909 
L 352.690593 242.705455 
L 353.317945 242.705455 
L 353.631621 247.104 
L 353.945296 214.114909 
L 354.258972 209.716364 
L 354.572648 214.114909 
L 354.886324 214.114909 
L 355.2 216.314182 
L 355.513676 233.908364 
L 355.827352 227.310545 
L 356.141028 242.705455 
L 356.454704 227.310545 
L 356.768379 231.709091 
L 357.082055 231.709091 
L 357.395731 242.705455 
L 357.709407 222.912 
L 358.023083 249.303273 
L 358.336759 242.705455 
L 358.650435 249.303273 
L 358.964111 227.310545 
L 359.277787 227.310545 
L 359.591462 203.118545 
L 359.905138 196.520727 
L 360.218814 203.118545 
L 360.53249 196.520727 
L 360.846166 198.72 
L 361.473518 183.325091 
L 361.787194 145.937455 
L 362.10087 145.937455 
L 362.728221 132.741818 
L 363.041897 121.745455 
L 363.355573 126.144 
L 363.669249 128.343273 
L 363.982925 119.546182 
L 364.296601 183.325091 
L 364.610277 181.125818 
L 364.923953 176.727273 
L 365.237628 181.125818 
L 365.551304 205.317818 
L 366.178656 205.317818 
L 366.492332 200.919273 
L 366.806008 200.919273 
L 367.119684 178.926545 
L 367.43336 192.122182 
L 367.747036 176.727273 
L 368.060711 178.926545 
L 368.374387 176.727273 
L 368.688063 167.930182 
L 369.001739 174.528 
L 369.629091 163.531636 
L 369.942767 170.129455 
L 370.256443 172.328727 
L 370.570119 189.922909 
L 370.883794 185.524364 
L 371.19747 170.129455 
L 371.511146 165.730909 
L 371.824822 154.734545 
L 372.138498 156.933818 
L 372.452174 145.937455 
L 372.76585 139.339636 
L 373.079526 152.535273 
L 373.393202 156.933818 
L 373.706877 139.339636 
L 374.020553 130.542545 
L 374.334229 115.147636 
L 374.647905 128.343273 
L 375.275257 170.129455 
L 375.588933 183.325091 
L 375.902609 176.727273 
L 376.216285 183.325091 
L 376.843636 187.723636 
L 377.157312 187.723636 
L 377.784664 198.72 
L 378.09834 194.321455 
L 378.412016 192.122182 
L 378.725692 209.716364 
L 379.353043 189.922909 
L 379.666719 192.122182 
L 379.980395 211.915636 
L 380.294071 216.314182 
L 381.235099 233.908364 
L 381.548775 229.509818 
L 381.862451 218.513455 
L 382.176126 229.509818 
L 382.803478 218.513455 
L 383.117154 231.709091 
L 383.744506 247.104 
L 384.058182 242.705455 
L 384.371858 233.908364 
L 384.685534 214.114909 
L 384.999209 216.314182 
L 385.626561 216.314182 
L 385.940237 218.513455 
L 386.253913 222.912 
L 386.567589 222.912 
L 386.881265 233.908364 
L 387.194941 218.513455 
L 387.508617 218.513455 
L 387.822292 222.912 
L 388.135968 216.314182 
L 388.449644 216.314182 
L 388.76332 229.509818 
L 389.076996 225.111273 
L 389.390672 218.513455 
L 389.704348 220.712727 
L 390.018024 209.716364 
L 390.3317 207.517091 
L 390.645375 203.118545 
L 390.959051 205.317818 
L 391.272727 218.513455 
L 391.586403 225.111273 
L 392.213755 229.509818 
L 392.527431 222.912 
L 392.841107 227.310545 
L 393.154783 236.107636 
L 393.468458 238.306909 
L 393.782134 244.904727 
L 394.09581 255.901091 
L 394.409486 233.908364 
L 395.036838 156.933818 
L 395.350514 148.136727 
L 395.66419 170.129455 
L 395.977866 170.129455 
L 396.291542 161.332364 
L 396.605217 167.930182 
L 396.918893 170.129455 
L 397.232569 183.325091 
L 397.546245 174.528 
L 397.859921 156.933818 
L 398.173597 152.535273 
L 398.487273 165.730909 
L 398.487273 165.730909 
" clip-path="url(#p001b2d77b7)" style="fill: none; stroke: #1f77b4; stroke-width: 1.5; stroke-linecap: square"/>
   </g>
   <g id="patch_3">
    <path d="M 57.6 307.584 
L 57.6 41.472 
" style="fill: none; stroke: #000000; stroke-width: 0.8; stroke-linejoin: miter; stroke-linecap: square"/>
   </g>
   <g id="patch_4">
    <path d="M 414.72 307.584 
L 414.72 41.472 
" style="fill: none; stroke: #000000; stroke-width: 0.8; stroke-linejoin: miter; stroke-linecap: square"/>
   </g>
   <g id="patch_5">
    <path d="M 57.6 307.584 
L 414.72 307.584 
" style="fill: none; stroke: #000000; stroke-width: 0.8; stroke-linejoin: miter; stroke-linecap: square"/>
   </g>
   <g id="patch_6">
    <path d="M 57.6 41.472 
L 414.72 41.472 
" style="fill: none; stroke: #000000; stroke-width: 0.8; stroke-linejoin: miter; stroke-linecap: square"/>
   </g>
   <g id="text_14">
    <!-- Simulated Anealling Cost -->
    <g transform="translate(160.8 35.472)scale(0.12 -0.12)">
     <defs>
      <path id="DejaVuSans-53" d="M 3425 4513 
L 3425 3897 
Q 3066 4069 2747 4153 
Q 2428 4238 2131 4238 
Q 1616 4238 1336 4038 
Q 1056 3838 1056 3469 
Q 1056 3159 1242 3001 
Q 1428 2844 1947 2747 
L 2328 2669 
Q 3034 2534 3370 2195 
Q 3706 1856 3706 1288 
Q 3706 609 3251 259 
Q 2797 -91 1919 -91 
Q 1588 -91 1214 -16 
Q 841 59 441 206 
L 441 856 
Q 825 641 1194 531 
Q 1563 422 1919 422 
Q 2459 422 2753 634 
Q 3047 847 3047 1241 
Q 3047 1584 2836 1778 
Q 2625 1972 2144 2069 
L 1759 2144 
Q 1053 2284 737 2584 
Q 422 2884 422 3419 
Q 422 4038 858 4394 
Q 1294 4750 2059 4750 
Q 2388 4750 2728 4690 
Q 3069 4631 3425 4513 
z
" transform="scale(0.015625)"/>
      <path id="DejaVuSans-69" d="M 603 3500 
L 1178 3500 
L 1178 0 
L 603 0 
L 603 3500 
z
M 603 4863 
L 1178 4863 
L 1178 4134 
L 603 4134 
L 603 4863 
z
" transform="scale(0.015625)"/>
      <path id="DejaVuSans-65" d="M 3597 1894 
L 3597 1613 
L 953 1613 
Q 991 1019 1311 708 
Q 1631 397 2203 397 
Q 2534 397 2845 478 
Q 3156 559 3463 722 
L 3463 178 
Q 3153 47 2828 -22 
Q 2503 -91 2169 -91 
Q 1331 -91 842 396 
Q 353 884 353 1716 
Q 353 2575 817 3079 
Q 1281 3584 2069 3584 
Q 2775 3584 3186 3129 
Q 3597 2675 3597 1894 
z
M 3022 2063 
Q 3016 2534 2758 2815 
Q 2500 3097 2075 3097 
Q 1594 3097 1305 2825 
Q 1016 2553 972 2059 
L 3022 2063 
z
" transform="scale(0.015625)"/>
      <path id="DejaVuSans-64" d="M 2906 2969 
L 2906 4863 
L 3481 4863 
L 3481 0 
L 2906 0 
L 2906 525 
Q 2725 213 2448 61 
Q 2172 -91 1784 -91 
Q 1150 -91 751 415 
Q 353 922 353 1747 
Q 353 2572 751 3078 
Q 1150 3584 1784 3584 
Q 2172 3584 2448 3432 
Q 2725 3281 2906 2969 
z
M 947 1747 
Q 947 1113 1208 752 
Q 1469 391 1925 391 
Q 2381 391 2643 752 
Q 2906 1113 2906 1747 
Q 2906 2381 2643 2742 
Q 2381 3103 1925 3103 
Q 1469 3103 1208 2742 
Q 947 2381 947 1747 
z
" transform="scale(0.015625)"/>
      <path id="DejaVuSans-41" d="M 2188 4044 
L 1331 1722 
L 3047 1722 
L 2188 4044 
z
M 1831 4666 
L 2547 4666 
L 4325 0 
L 3669 0 
L 3244 1197 
L 1141 1197 
L 716 0 
L 50 0 
L 1831 4666 
z
" transform="scale(0.015625)"/>
      <path id="DejaVuSans-67" d="M 2906 1791 
Q 2906 2416 2648 2759 
Q 2391 3103 1925 3103 
Q 1463 3103 1205 2759 
Q 947 2416 947 1791 
Q 947 1169 1205 825 
Q 1463 481 1925 481 
Q 2391 481 2648 825 
Q 2906 1169 2906 1791 
z
M 3481 434 
Q 3481 -459 3084 -895 
Q 2688 -1331 1869 -1331 
Q 1566 -1331 1297 -1286 
Q 1028 -1241 775 -1147 
L 775 -588 
Q 1028 -725 1275 -790 
Q 1522 -856 1778 -856 
Q 2344 -856 2625 -561 
Q 2906 -266 2906 331 
L 2906 616 
Q 2728 306 2450 153 
Q 2172 0 1784 0 
Q 1141 0 747 490 
Q 353 981 353 1791 
Q 353 2603 747 3093 
Q 1141 3584 1784 3584 
Q 2172 3584 2450 3431 
Q 2728 3278 2906 2969 
L 2906 3500 
L 3481 3500 
L 3481 434 
z
" transform="scale(0.015625)"/>
      <path id="DejaVuSans-43" d="M 4122 4306 
L 4122 3641 
Q 3803 3938 3442 4084 
Q 3081 4231 2675 4231 
Q 1875 4231 1450 3742 
Q 1025 3253 1025 2328 
Q 1025 1406 1450 917 
Q 1875 428 2675 428 
Q 3081 428 3442 575 
Q 3803 722 4122 1019 
L 4122 359 
Q 3791 134 3420 21 
Q 3050 -91 2638 -91 
Q 1578 -91 968 557 
Q 359 1206 359 2328 
Q 359 3453 968 4101 
Q 1578 4750 2638 4750 
Q 3056 4750 3426 4639 
Q 3797 4528 4122 4306 
z
" transform="scale(0.015625)"/>
     </defs>
     <use xlink:href="#DejaVuSans-53"/>
     <use xlink:href="#DejaVuSans-69" x="63.476562"/>
     <use xlink:href="#DejaVuSans-6d" x="91.259766"/>
     <use xlink:href="#DejaVuSans-75" x="188.671875"/>
     <use xlink:href="#DejaVuSans-6c" x="252.050781"/>
     <use xlink:href="#DejaVuSans-61" x="279.833984"/>
     <use xlink:href="#DejaVuSans-74" x="341.113281"/>
     <use xlink:href="#DejaVuSans-65" x="380.322266"/>
     <use xlink:href="#DejaVuSans-64" x="441.845703"/>
     <use xlink:href="#DejaVuSans-20" x="505.322266"/>
     <use xlink:href="#DejaVuSans-41" x="537.109375"/>
     <use xlink:href="#DejaVuSans-6e" x="605.517578"/>
     <use xlink:href="#DejaVuSans-65" x="668.896484"/>
     <use xlink:href="#DejaVuSans-61" x="730.419922"/>
     <use xlink:href="#DejaVuSans-6c" x="791.699219"/>
     <use xlink:href="#DejaVuSans-6c" x="819.482422"/>
     <use xlink:href="#DejaVuSans-69" x="847.265625"/>
     <use xlink:href="#DejaVuSans-6e" x="875.048828"/>
     <use xlink:href="#DejaVuSans-67" x="938.427734"/>
     <use xlink:href="#DejaVuSans-20" x="1001.904297"/>
     <use xlink:href="#DejaVuSans-43" x="1033.691406"/>
     <use xlink:href="#DejaVuSans-6f" x="1103.515625"/>
     <use xlink:href="#DejaVuSans-73" x="1164.697266"/>
     <use xlink:href="#DejaVuSans-74" x="1216.796875"/>
    </g>
   </g>
  </g>
 </g>
 <defs>
  <clipPath id="p001b2d77b7">
   <rect x="57.6" y="41.472" width="357.12" height="266.112"/>
  </clipPath>
 </defs>
</svg>
