<?xml version="1.0" encoding="utf-8" standalone="no"?>
<!DOCTYPE svg PUBLIC "-//W3C//DTD SVG 1.1//EN"
  "http://www.w3.org/Graphics/SVG/1.1/DTD/svg11.dtd">
<svg xmlns:xlink="http://www.w3.org/1999/xlink" width="460.8pt" height="345.6pt" viewBox="0 0 460.8 345.6" xmlns="http://www.w3.org/2000/svg" version="1.1">
 <metadata>
  <rdf:RDF xmlns:dc="http://purl.org/dc/elements/1.1/" xmlns:cc="http://creativecommons.org/ns#" xmlns:rdf="http://www.w3.org/1999/02/22-rdf-syntax-ns#">
   <cc:Work>
    <dc:type rdf:resource="http://purl.org/dc/dcmitype/StillImage"/>
    <dc:date>2022-06-01T08:06:59.007775</dc:date>
    <dc:format>image/svg+xml</dc:format>
    <dc:creator>
     <cc:Agent>
      <dc:title>Matplotlib v3.5.1, https://matplotlib.org/</dc:title>
     </cc:Agent>
    </dc:creator>
   </cc:Work>
  </rdf:RDF>
 </metadata>
 <defs>
  <style type="text/css">*{stroke-linejoin: round; stroke-linecap: butt}</style>
 </defs>
 <g id="figure_1">
  <g id="patch_1">
   <path d="M 0 345.6 
L 460.8 345.6 
L 460.8 0 
L 0 0 
z
" style="fill: #ffffff"/>
  </g>
  <g id="axes_1">
   <g id="patch_2">
    <path d="M 57.6 307.584 
L 414.72 307.584 
L 414.72 41.472 
L 57.6 41.472 
z
" style="fill: #ffffff"/>
   </g>
   <g id="matplotlib.axis_1">
    <g id="xtick_1">
     <g id="line2d_1">
      <defs>
       <path id="m396879ec6c" d="M 0 0 
L 0 3.5 
" style="stroke: #000000; stroke-width: 0.8"/>
      </defs>
      <g>
       <use xlink:href="#m396879ec6c" x="73.832727" y="307.584" style="stroke: #000000; stroke-width: 0.8"/>
      </g>
     </g>
     <g id="text_1">
      <!-- 0 -->
      <g transform="translate(70.651477 322.182437)scale(0.1 -0.1)">
       <defs>
        <path id="DejaVuSans-30" d="M 2034 4250 
Q 1547 4250 1301 3770 
Q 1056 3291 1056 2328 
Q 1056 1369 1301 889 
Q 1547 409 2034 409 
Q 2525 409 2770 889 
Q 3016 1369 3016 2328 
Q 3016 3291 2770 3770 
Q 2525 4250 2034 4250 
z
M 2034 4750 
Q 2819 4750 3233 4129 
Q 3647 3509 3647 2328 
Q 3647 1150 3233 529 
Q 2819 -91 2034 -91 
Q 1250 -91 836 529 
Q 422 1150 422 2328 
Q 422 3509 836 4129 
Q 1250 4750 2034 4750 
z
" transform="scale(0.015625)"/>
       </defs>
       <use xlink:href="#DejaVuSans-30"/>
      </g>
     </g>
    </g>
    <g id="xtick_2">
     <g id="line2d_2">
      <g>
       <use xlink:href="#m396879ec6c" x="153.17157" y="307.584" style="stroke: #000000; stroke-width: 0.8"/>
      </g>
     </g>
     <g id="text_2">
      <!-- 500 -->
      <g transform="translate(143.62782 322.182437)scale(0.1 -0.1)">
       <defs>
        <path id="DejaVuSans-35" d="M 691 4666 
L 3169 4666 
L 3169 4134 
L 1269 4134 
L 1269 2991 
Q 1406 3038 1543 3061 
Q 1681 3084 1819 3084 
Q 2600 3084 3056 2656 
Q 3513 2228 3513 1497 
Q 3513 744 3044 326 
Q 2575 -91 1722 -91 
Q 1428 -91 1123 -41 
Q 819 9 494 109 
L 494 744 
Q 775 591 1075 516 
Q 1375 441 1709 441 
Q 2250 441 2565 725 
Q 2881 1009 2881 1497 
Q 2881 1984 2565 2268 
Q 2250 2553 1709 2553 
Q 1456 2553 1204 2497 
Q 953 2441 691 2322 
L 691 4666 
z
" transform="scale(0.015625)"/>
       </defs>
       <use xlink:href="#DejaVuSans-35"/>
       <use xlink:href="#DejaVuSans-30" x="63.623047"/>
       <use xlink:href="#DejaVuSans-30" x="127.246094"/>
      </g>
     </g>
    </g>
    <g id="xtick_3">
     <g id="line2d_3">
      <g>
       <use xlink:href="#m396879ec6c" x="232.510413" y="307.584" style="stroke: #000000; stroke-width: 0.8"/>
      </g>
     </g>
     <g id="text_3">
      <!-- 1000 -->
      <g transform="translate(219.785413 322.182437)scale(0.1 -0.1)">
       <defs>
        <path id="DejaVuSans-31" d="M 794 531 
L 1825 531 
L 1825 4091 
L 703 3866 
L 703 4441 
L 1819 4666 
L 2450 4666 
L 2450 531 
L 3481 531 
L 3481 0 
L 794 0 
L 794 531 
z
" transform="scale(0.015625)"/>
       </defs>
       <use xlink:href="#DejaVuSans-31"/>
       <use xlink:href="#DejaVuSans-30" x="63.623047"/>
       <use xlink:href="#DejaVuSans-30" x="127.246094"/>
       <use xlink:href="#DejaVuSans-30" x="190.869141"/>
      </g>
     </g>
    </g>
    <g id="xtick_4">
     <g id="line2d_4">
      <g>
       <use xlink:href="#m396879ec6c" x="311.849256" y="307.584" style="stroke: #000000; stroke-width: 0.8"/>
      </g>
     </g>
     <g id="text_4">
      <!-- 1500 -->
      <g transform="translate(299.124256 322.182437)scale(0.1 -0.1)">
       <use xlink:href="#DejaVuSans-31"/>
       <use xlink:href="#DejaVuSans-35" x="63.623047"/>
       <use xlink:href="#DejaVuSans-30" x="127.246094"/>
       <use xlink:href="#DejaVuSans-30" x="190.869141"/>
      </g>
     </g>
    </g>
    <g id="xtick_5">
     <g id="line2d_5">
      <g>
       <use xlink:href="#m396879ec6c" x="391.188099" y="307.584" style="stroke: #000000; stroke-width: 0.8"/>
      </g>
     </g>
     <g id="text_5">
      <!-- 2000 -->
      <g transform="translate(378.463099 322.182437)scale(0.1 -0.1)">
       <defs>
        <path id="DejaVuSans-32" d="M 1228 531 
L 3431 531 
L 3431 0 
L 469 0 
L 469 531 
Q 828 903 1448 1529 
Q 2069 2156 2228 2338 
Q 2531 2678 2651 2914 
Q 2772 3150 2772 3378 
Q 2772 3750 2511 3984 
Q 2250 4219 1831 4219 
Q 1534 4219 1204 4116 
Q 875 4013 500 3803 
L 500 4441 
Q 881 4594 1212 4672 
Q 1544 4750 1819 4750 
Q 2544 4750 2975 4387 
Q 3406 4025 3406 3419 
Q 3406 3131 3298 2873 
Q 3191 2616 2906 2266 
Q 2828 2175 2409 1742 
Q 1991 1309 1228 531 
z
" transform="scale(0.015625)"/>
       </defs>
       <use xlink:href="#DejaVuSans-32"/>
       <use xlink:href="#DejaVuSans-30" x="63.623047"/>
       <use xlink:href="#DejaVuSans-30" x="127.246094"/>
       <use xlink:href="#DejaVuSans-30" x="190.869141"/>
      </g>
     </g>
    </g>
    <g id="text_6">
     <!-- num swaps -->
     <g transform="translate(207.826406 335.860562)scale(0.1 -0.1)">
      <defs>
       <path id="DejaVuSans-6e" d="M 3513 2113 
L 3513 0 
L 2938 0 
L 2938 2094 
Q 2938 2591 2744 2837 
Q 2550 3084 2163 3084 
Q 1697 3084 1428 2787 
Q 1159 2491 1159 1978 
L 1159 0 
L 581 0 
L 581 3500 
L 1159 3500 
L 1159 2956 
Q 1366 3272 1645 3428 
Q 1925 3584 2291 3584 
Q 2894 3584 3203 3211 
Q 3513 2838 3513 2113 
z
" transform="scale(0.015625)"/>
       <path id="DejaVuSans-75" d="M 544 1381 
L 544 3500 
L 1119 3500 
L 1119 1403 
Q 1119 906 1312 657 
Q 1506 409 1894 409 
Q 2359 409 2629 706 
Q 2900 1003 2900 1516 
L 2900 3500 
L 3475 3500 
L 3475 0 
L 2900 0 
L 2900 538 
Q 2691 219 2414 64 
Q 2138 -91 1772 -91 
Q 1169 -91 856 284 
Q 544 659 544 1381 
z
M 1991 3584 
L 1991 3584 
z
" transform="scale(0.015625)"/>
       <path id="DejaVuSans-6d" d="M 3328 2828 
Q 3544 3216 3844 3400 
Q 4144 3584 4550 3584 
Q 5097 3584 5394 3201 
Q 5691 2819 5691 2113 
L 5691 0 
L 5113 0 
L 5113 2094 
Q 5113 2597 4934 2840 
Q 4756 3084 4391 3084 
Q 3944 3084 3684 2787 
Q 3425 2491 3425 1978 
L 3425 0 
L 2847 0 
L 2847 2094 
Q 2847 2600 2669 2842 
Q 2491 3084 2119 3084 
Q 1678 3084 1418 2786 
Q 1159 2488 1159 1978 
L 1159 0 
L 581 0 
L 581 3500 
L 1159 3500 
L 1159 2956 
Q 1356 3278 1631 3431 
Q 1906 3584 2284 3584 
Q 2666 3584 2933 3390 
Q 3200 3197 3328 2828 
z
" transform="scale(0.015625)"/>
       <path id="DejaVuSans-20" transform="scale(0.015625)"/>
       <path id="DejaVuSans-73" d="M 2834 3397 
L 2834 2853 
Q 2591 2978 2328 3040 
Q 2066 3103 1784 3103 
Q 1356 3103 1142 2972 
Q 928 2841 928 2578 
Q 928 2378 1081 2264 
Q 1234 2150 1697 2047 
L 1894 2003 
Q 2506 1872 2764 1633 
Q 3022 1394 3022 966 
Q 3022 478 2636 193 
Q 2250 -91 1575 -91 
Q 1294 -91 989 -36 
Q 684 19 347 128 
L 347 722 
Q 666 556 975 473 
Q 1284 391 1588 391 
Q 1994 391 2212 530 
Q 2431 669 2431 922 
Q 2431 1156 2273 1281 
Q 2116 1406 1581 1522 
L 1381 1569 
Q 847 1681 609 1914 
Q 372 2147 372 2553 
Q 372 3047 722 3315 
Q 1072 3584 1716 3584 
Q 2034 3584 2315 3537 
Q 2597 3491 2834 3397 
z
" transform="scale(0.015625)"/>
       <path id="DejaVuSans-77" d="M 269 3500 
L 844 3500 
L 1563 769 
L 2278 3500 
L 2956 3500 
L 3675 769 
L 4391 3500 
L 4966 3500 
L 4050 0 
L 3372 0 
L 2619 2869 
L 1863 0 
L 1184 0 
L 269 3500 
z
" transform="scale(0.015625)"/>
       <path id="DejaVuSans-61" d="M 2194 1759 
Q 1497 1759 1228 1600 
Q 959 1441 959 1056 
Q 959 750 1161 570 
Q 1363 391 1709 391 
Q 2188 391 2477 730 
Q 2766 1069 2766 1631 
L 2766 1759 
L 2194 1759 
z
M 3341 1997 
L 3341 0 
L 2766 0 
L 2766 531 
Q 2569 213 2275 61 
Q 1981 -91 1556 -91 
Q 1019 -91 701 211 
Q 384 513 384 1019 
Q 384 1609 779 1909 
Q 1175 2209 1959 2209 
L 2766 2209 
L 2766 2266 
Q 2766 2663 2505 2880 
Q 2244 3097 1772 3097 
Q 1472 3097 1187 3025 
Q 903 2953 641 2809 
L 641 3341 
Q 956 3463 1253 3523 
Q 1550 3584 1831 3584 
Q 2591 3584 2966 3190 
Q 3341 2797 3341 1997 
z
" transform="scale(0.015625)"/>
       <path id="DejaVuSans-70" d="M 1159 525 
L 1159 -1331 
L 581 -1331 
L 581 3500 
L 1159 3500 
L 1159 2969 
Q 1341 3281 1617 3432 
Q 1894 3584 2278 3584 
Q 2916 3584 3314 3078 
Q 3713 2572 3713 1747 
Q 3713 922 3314 415 
Q 2916 -91 2278 -91 
Q 1894 -91 1617 61 
Q 1341 213 1159 525 
z
M 3116 1747 
Q 3116 2381 2855 2742 
Q 2594 3103 2138 3103 
Q 1681 3103 1420 2742 
Q 1159 2381 1159 1747 
Q 1159 1113 1420 752 
Q 1681 391 2138 391 
Q 2594 391 2855 752 
Q 3116 1113 3116 1747 
z
" transform="scale(0.015625)"/>
      </defs>
      <use xlink:href="#DejaVuSans-6e"/>
      <use xlink:href="#DejaVuSans-75" x="63.378906"/>
      <use xlink:href="#DejaVuSans-6d" x="126.757812"/>
      <use xlink:href="#DejaVuSans-20" x="224.169922"/>
      <use xlink:href="#DejaVuSans-73" x="255.957031"/>
      <use xlink:href="#DejaVuSans-77" x="308.056641"/>
      <use xlink:href="#DejaVuSans-61" x="389.84375"/>
      <use xlink:href="#DejaVuSans-70" x="451.123047"/>
      <use xlink:href="#DejaVuSans-73" x="514.599609"/>
     </g>
    </g>
   </g>
   <g id="matplotlib.axis_2">
    <g id="ytick_1">
     <g id="line2d_6">
      <defs>
       <path id="m1412f0a6d1" d="M 0 0 
L -3.5 0 
" style="stroke: #000000; stroke-width: 0.8"/>
      </defs>
      <g>
       <use xlink:href="#m1412f0a6d1" x="57.6" y="293.689338" style="stroke: #000000; stroke-width: 0.8"/>
      </g>
     </g>
     <g id="text_7">
      <!-- 1000 -->
      <g transform="translate(25.15 297.488557)scale(0.1 -0.1)">
       <use xlink:href="#DejaVuSans-31"/>
       <use xlink:href="#DejaVuSans-30" x="63.623047"/>
       <use xlink:href="#DejaVuSans-30" x="127.246094"/>
       <use xlink:href="#DejaVuSans-30" x="190.869141"/>
      </g>
     </g>
    </g>
    <g id="ytick_2">
     <g id="line2d_7">
      <g>
       <use xlink:href="#m1412f0a6d1" x="57.6" y="248.722796" style="stroke: #000000; stroke-width: 0.8"/>
      </g>
     </g>
     <g id="text_8">
      <!-- 1100 -->
      <g transform="translate(25.15 252.522014)scale(0.1 -0.1)">
       <use xlink:href="#DejaVuSans-31"/>
       <use xlink:href="#DejaVuSans-31" x="63.623047"/>
       <use xlink:href="#DejaVuSans-30" x="127.246094"/>
       <use xlink:href="#DejaVuSans-30" x="190.869141"/>
      </g>
     </g>
    </g>
    <g id="ytick_3">
     <g id="line2d_8">
      <g>
       <use xlink:href="#m1412f0a6d1" x="57.6" y="203.756253" style="stroke: #000000; stroke-width: 0.8"/>
      </g>
     </g>
     <g id="text_9">
      <!-- 1200 -->
      <g transform="translate(25.15 207.555472)scale(0.1 -0.1)">
       <use xlink:href="#DejaVuSans-31"/>
       <use xlink:href="#DejaVuSans-32" x="63.623047"/>
       <use xlink:href="#DejaVuSans-30" x="127.246094"/>
       <use xlink:href="#DejaVuSans-30" x="190.869141"/>
      </g>
     </g>
    </g>
    <g id="ytick_4">
     <g id="line2d_9">
      <g>
       <use xlink:href="#m1412f0a6d1" x="57.6" y="158.78971" style="stroke: #000000; stroke-width: 0.8"/>
      </g>
     </g>
     <g id="text_10">
      <!-- 1300 -->
      <g transform="translate(25.15 162.588929)scale(0.1 -0.1)">
       <defs>
        <path id="DejaVuSans-33" d="M 2597 2516 
Q 3050 2419 3304 2112 
Q 3559 1806 3559 1356 
Q 3559 666 3084 287 
Q 2609 -91 1734 -91 
Q 1441 -91 1130 -33 
Q 819 25 488 141 
L 488 750 
Q 750 597 1062 519 
Q 1375 441 1716 441 
Q 2309 441 2620 675 
Q 2931 909 2931 1356 
Q 2931 1769 2642 2001 
Q 2353 2234 1838 2234 
L 1294 2234 
L 1294 2753 
L 1863 2753 
Q 2328 2753 2575 2939 
Q 2822 3125 2822 3475 
Q 2822 3834 2567 4026 
Q 2313 4219 1838 4219 
Q 1578 4219 1281 4162 
Q 984 4106 628 3988 
L 628 4550 
Q 988 4650 1302 4700 
Q 1616 4750 1894 4750 
Q 2613 4750 3031 4423 
Q 3450 4097 3450 3541 
Q 3450 3153 3228 2886 
Q 3006 2619 2597 2516 
z
" transform="scale(0.015625)"/>
       </defs>
       <use xlink:href="#DejaVuSans-31"/>
       <use xlink:href="#DejaVuSans-33" x="63.623047"/>
       <use xlink:href="#DejaVuSans-30" x="127.246094"/>
       <use xlink:href="#DejaVuSans-30" x="190.869141"/>
      </g>
     </g>
    </g>
    <g id="ytick_5">
     <g id="line2d_10">
      <g>
       <use xlink:href="#m1412f0a6d1" x="57.6" y="113.823167" style="stroke: #000000; stroke-width: 0.8"/>
      </g>
     </g>
     <g id="text_11">
      <!-- 1400 -->
      <g transform="translate(25.15 117.622386)scale(0.1 -0.1)">
       <defs>
        <path id="DejaVuSans-34" d="M 2419 4116 
L 825 1625 
L 2419 1625 
L 2419 4116 
z
M 2253 4666 
L 3047 4666 
L 3047 1625 
L 3713 1625 
L 3713 1100 
L 3047 1100 
L 3047 0 
L 2419 0 
L 2419 1100 
L 313 1100 
L 313 1709 
L 2253 4666 
z
" transform="scale(0.015625)"/>
       </defs>
       <use xlink:href="#DejaVuSans-31"/>
       <use xlink:href="#DejaVuSans-34" x="63.623047"/>
       <use xlink:href="#DejaVuSans-30" x="127.246094"/>
       <use xlink:href="#DejaVuSans-30" x="190.869141"/>
      </g>
     </g>
    </g>
    <g id="ytick_6">
     <g id="line2d_11">
      <g>
       <use xlink:href="#m1412f0a6d1" x="57.6" y="68.856625" style="stroke: #000000; stroke-width: 0.8"/>
      </g>
     </g>
     <g id="text_12">
      <!-- 1500 -->
      <g transform="translate(25.15 72.655843)scale(0.1 -0.1)">
       <use xlink:href="#DejaVuSans-31"/>
       <use xlink:href="#DejaVuSans-35" x="63.623047"/>
       <use xlink:href="#DejaVuSans-30" x="127.246094"/>
       <use xlink:href="#DejaVuSans-30" x="190.869141"/>
      </g>
     </g>
    </g>
    <g id="text_13">
     <!-- total cost -->
     <g transform="translate(19.070312 197.923313)rotate(-90)scale(0.1 -0.1)">
      <defs>
       <path id="DejaVuSans-74" d="M 1172 4494 
L 1172 3500 
L 2356 3500 
L 2356 3053 
L 1172 3053 
L 1172 1153 
Q 1172 725 1289 603 
Q 1406 481 1766 481 
L 2356 481 
L 2356 0 
L 1766 0 
Q 1100 0 847 248 
Q 594 497 594 1153 
L 594 3053 
L 172 3053 
L 172 3500 
L 594 3500 
L 594 4494 
L 1172 4494 
z
" transform="scale(0.015625)"/>
       <path id="DejaVuSans-6f" d="M 1959 3097 
Q 1497 3097 1228 2736 
Q 959 2375 959 1747 
Q 959 1119 1226 758 
Q 1494 397 1959 397 
Q 2419 397 2687 759 
Q 2956 1122 2956 1747 
Q 2956 2369 2687 2733 
Q 2419 3097 1959 3097 
z
M 1959 3584 
Q 2709 3584 3137 3096 
Q 3566 2609 3566 1747 
Q 3566 888 3137 398 
Q 2709 -91 1959 -91 
Q 1206 -91 779 398 
Q 353 888 353 1747 
Q 353 2609 779 3096 
Q 1206 3584 1959 3584 
z
" transform="scale(0.015625)"/>
       <path id="DejaVuSans-6c" d="M 603 4863 
L 1178 4863 
L 1178 0 
L 603 0 
L 603 4863 
z
" transform="scale(0.015625)"/>
       <path id="DejaVuSans-63" d="M 3122 3366 
L 3122 2828 
Q 2878 2963 2633 3030 
Q 2388 3097 2138 3097 
Q 1578 3097 1268 2742 
Q 959 2388 959 1747 
Q 959 1106 1268 751 
Q 1578 397 2138 397 
Q 2388 397 2633 464 
Q 2878 531 3122 666 
L 3122 134 
Q 2881 22 2623 -34 
Q 2366 -91 2075 -91 
Q 1284 -91 818 406 
Q 353 903 353 1747 
Q 353 2603 823 3093 
Q 1294 3584 2113 3584 
Q 2378 3584 2631 3529 
Q 2884 3475 3122 3366 
z
" transform="scale(0.015625)"/>
      </defs>
      <use xlink:href="#DejaVuSans-74"/>
      <use xlink:href="#DejaVuSans-6f" x="39.208984"/>
      <use xlink:href="#DejaVuSans-74" x="100.390625"/>
      <use xlink:href="#DejaVuSans-61" x="139.599609"/>
      <use xlink:href="#DejaVuSans-6c" x="200.878906"/>
      <use xlink:href="#DejaVuSans-20" x="228.662109"/>
      <use xlink:href="#DejaVuSans-63" x="260.449219"/>
      <use xlink:href="#DejaVuSans-6f" x="315.429688"/>
      <use xlink:href="#DejaVuSans-73" x="376.611328"/>
      <use xlink:href="#DejaVuSans-74" x="428.710938"/>
     </g>
    </g>
   </g>
   <g id="line2d_12">
    <path d="M 73.832727 102.581532 
L 74.150083 68.406959 
L 74.467438 76.500937 
L 74.784793 73.802944 
L 75.102149 82.346587 
L 75.419504 79.648595 
L 75.73686 120.568149 
L 76.054215 114.272833 
L 76.688926 170.930677 
L 77.006281 150.695732 
L 77.323636 153.393725 
L 77.640992 114.722498 
L 77.958347 125.514468 
L 78.275702 128.662126 
L 78.593058 145.749413 
L 78.910413 142.601755 
L 79.227769 135.407108 
L 79.545124 130.910454 
L 79.862479 124.165472 
L 80.179835 129.561457 
L 80.49719 122.36681 
L 80.814545 134.957442 
L 81.131901 122.816476 
L 81.449256 121.017814 
L 81.766612 141.702424 
L 82.083967 136.756104 
L 82.401322 107.078186 
L 82.718678 117.420491 
L 83.036033 95.386885 
L 83.353388 126.863465 
L 83.670744 124.615138 
L 83.988099 125.514468 
L 84.305455 122.36681 
L 84.62281 134.058112 
L 84.940165 128.662126 
L 85.257521 150.246067 
L 85.574876 146.648743 
L 85.892231 139.903762 
L 86.209587 130.460788 
L 86.526942 130.011123 
L 86.844298 132.709115 
L 87.161653 143.501086 
L 87.479008 139.454097 
L 87.796364 108.427182 
L 88.113719 111.125175 
L 88.431074 106.178855 
L 88.74843 116.52116 
L 89.065785 117.420491 
L 89.38314 100.333204 
L 89.700496 104.380193 
L 90.017851 117.870156 
L 90.335207 108.427182 
L 90.652562 109.326513 
L 90.969917 111.125175 
L 91.287273 110.225844 
L 91.604628 96.286216 
L 91.921983 105.279524 
L 92.556694 137.655435 
L 92.87405 98.084877 
L 93.50876 113.373502 
L 93.826116 110.675509 
L 94.143471 110.225844 
L 94.460826 108.427182 
L 94.778182 102.581532 
L 95.095537 92.688892 
L 95.412893 95.83655 
L 95.730248 97.635212 
L 96.047603 98.084877 
L 96.364959 107.527851 
L 96.682314 103.480862 
L 96.999669 91.339896 
L 97.317025 91.789561 
L 97.63438 101.682201 
L 97.951736 98.984208 
L 98.269091 105.279524 
L 98.586446 101.232535 
L 98.903802 116.071494 
L 99.221157 119.219152 
L 99.538512 126.413799 
L 99.855868 138.1051 
L 100.173223 131.809784 
L 100.490579 140.803093 
L 100.807934 139.004431 
L 101.442645 126.413799 
L 101.76 107.977517 
L 102.077355 111.57484 
L 102.394711 102.581532 
L 102.712066 98.084877 
L 103.346777 110.675509 
L 103.664132 108.427182 
L 103.981488 108.876848 
L 104.298843 85.494245 
L 104.616198 88.641903 
L 104.933554 107.078186 
L 105.568264 100.333204 
L 105.88562 92.239227 
L 106.202975 88.192238 
L 106.520331 91.789561 
L 106.837686 94.037888 
L 107.155041 92.239227 
L 107.472397 86.393576 
L 108.107107 94.937219 
L 108.424463 99.433874 
L 108.741818 99.433874 
L 109.059174 97.635212 
L 109.376529 83.695584 
L 109.693884 83.245918 
L 110.01124 91.789561 
L 110.328595 87.292907 
L 110.64595 76.500937 
L 110.963306 73.353279 
L 111.280661 63.460639 
L 111.598017 66.608297 
L 111.915372 64.809636 
L 112.232727 60.312981 
L 112.550083 67.057963 
L 112.867438 70.655286 
L 113.184793 70.205621 
L 113.502149 83.245918 
L 113.819504 76.051271 
L 114.13686 94.037888 
L 114.454215 96.735881 
L 114.77157 100.78287 
L 115.088926 97.185546 
L 115.406281 97.185546 
L 115.723636 75.601606 
L 116.040992 76.950602 
L 116.358347 81.896922 
L 116.675702 78.299599 
L 116.993058 76.950602 
L 117.310413 76.500937 
L 117.627769 78.749264 
L 117.945124 72.903613 
L 118.262479 53.568 
L 118.579835 53.568 
L 118.89719 58.963985 
L 119.214545 74.25261 
L 119.531901 84.145249 
L 119.849256 77.849933 
L 120.166612 97.635212 
L 120.483967 106.178855 
L 120.801322 102.581532 
L 121.118678 93.588223 
L 121.436033 95.83655 
L 121.753388 89.091569 
L 122.070744 98.984208 
L 122.388099 95.386885 
L 122.705455 93.588223 
L 123.02281 93.588223 
L 123.340165 89.091569 
L 123.657521 80.997591 
L 123.974876 82.796253 
L 124.292231 63.010974 
L 124.609587 62.111643 
L 124.926942 67.507628 
L 125.244298 82.796253 
L 125.561653 78.299599 
L 126.196364 109.776178 
L 126.513719 114.722498 
L 126.831074 111.57484 
L 127.14843 112.474171 
L 127.465785 129.561457 
L 127.78314 133.158781 
L 128.100496 140.803093 
L 128.735207 128.212461 
L 129.052562 108.427182 
L 129.369917 114.272833 
L 129.687273 116.071494 
L 130.004628 115.621829 
L 130.321983 112.923836 
L 130.639339 103.031197 
L 130.956694 101.232535 
L 131.27405 95.386885 
L 131.591405 80.547926 
L 131.90876 88.641903 
L 132.226116 85.04458 
L 132.543471 91.339896 
L 132.860826 106.178855 
L 133.178182 88.192238 
L 133.495537 80.547926 
L 133.812893 103.930528 
L 134.447603 127.762796 
L 134.764959 126.863465 
L 135.082314 120.118483 
L 135.399669 124.165472 
L 135.717025 124.165472 
L 136.03438 126.863465 
L 136.351736 115.172164 
L 136.669091 90.89023 
L 136.986446 83.695584 
L 137.303802 112.474171 
L 137.621157 123.266141 
L 137.938512 128.212461 
L 138.255868 118.769487 
L 138.573223 117.420491 
L 138.890579 123.266141 
L 139.207934 144.850082 
L 139.525289 146.648743 
L 139.842645 145.299747 
L 140.16 125.964134 
L 140.477355 132.709115 
L 140.794711 152.944059 
L 141.112066 156.541383 
L 141.429421 151.145398 
L 141.746777 155.642052 
L 142.064132 156.541383 
L 142.381488 150.695732 
L 143.016198 164.185695 
L 143.333554 132.25945 
L 143.650909 141.252758 
L 143.968264 143.950751 
L 144.28562 141.702424 
L 144.602975 152.944059 
L 144.920331 154.742721 
L 145.237686 155.642052 
L 145.555041 155.642052 
L 145.872397 139.903762 
L 146.189752 135.856773 
L 146.507107 125.064803 
L 146.824463 128.662126 
L 147.141818 117.870156 
L 147.459174 128.212461 
L 147.776529 108.427182 
L 148.093884 112.923836 
L 148.41124 114.272833 
L 148.728595 112.474171 
L 149.04595 123.266141 
L 149.363306 121.917145 
L 149.680661 126.413799 
L 149.998017 121.917145 
L 150.315372 108.876848 
L 150.632727 121.917145 
L 150.950083 110.675509 
L 151.267438 121.46748 
L 151.584793 112.474171 
L 151.902149 96.735881 
L 152.219504 102.131866 
L 152.53686 103.480862 
L 152.854215 95.386885 
L 153.17157 116.970825 
L 153.488926 120.118483 
L 153.806281 138.1051 
L 154.123636 147.098409 
L 154.440992 131.809784 
L 155.075702 163.286364 
L 155.393058 168.682349 
L 155.710413 168.682349 
L 156.027769 186.668967 
L 156.345124 183.071643 
L 156.662479 181.272981 
L 156.979835 166.883688 
L 157.29719 172.279673 
L 157.614545 173.179004 
L 157.931901 182.172312 
L 158.566612 159.689041 
L 158.883967 153.84339 
L 159.201322 152.944059 
L 159.518678 149.346736 
L 159.836033 156.091717 
L 160.153388 156.541383 
L 160.470744 164.185695 
L 160.788099 168.682349 
L 161.42281 179.923985 
L 161.740165 177.675658 
L 162.057521 171.830007 
L 162.374876 163.286364 
L 163.009587 164.185695 
L 163.644298 162.387033 
L 163.961653 164.185695 
L 164.279008 164.185695 
L 164.596364 165.085026 
L 164.913719 160.588372 
L 165.54843 136.756104 
L 165.865785 113.823167 
L 166.18314 111.125175 
L 167.135207 94.937219 
L 167.769917 82.346587 
L 168.087273 66.608297 
L 168.404628 71.104952 
L 169.356694 92.688892 
L 169.67405 95.386885 
L 169.991405 108.876848 
L 170.30876 108.876848 
L 170.626116 111.57484 
L 170.943471 119.668818 
L 171.260826 133.158781 
L 171.578182 126.863465 
L 171.895537 134.957442 
L 172.212893 127.31313 
L 172.530248 130.910454 
L 172.847603 130.910454 
L 173.482314 117.870156 
L 173.799669 122.816476 
L 174.117025 130.011123 
L 174.43438 144.850082 
L 175.069091 151.595063 
L 175.386446 141.702424 
L 175.703802 127.31313 
L 176.021157 125.514468 
L 176.338512 131.809784 
L 176.655868 135.407108 
L 176.973223 133.158781 
L 177.290579 123.715807 
L 177.607934 122.816476 
L 177.925289 125.064803 
L 178.242645 116.970825 
L 178.56 118.319822 
L 178.877355 115.621829 
L 179.194711 102.131866 
L 179.512066 124.615138 
L 179.829421 123.715807 
L 180.146777 113.373502 
L 180.464132 117.420491 
L 180.781488 115.621829 
L 181.098843 116.52116 
L 181.416198 120.568149 
L 181.733554 114.272833 
L 182.050909 125.514468 
L 182.368264 119.219152 
L 182.68562 140.353428 
L 183.002975 144.850082 
L 183.320331 142.152089 
L 184.589752 172.729338 
L 184.907107 175.427331 
L 185.224463 171.830007 
L 185.541818 178.574989 
L 185.859174 156.091717 
L 186.176529 155.642052 
L 186.493884 151.145398 
L 186.81124 156.541383 
L 187.128595 156.541383 
L 187.44595 156.091717 
L 187.763306 169.58168 
L 188.080661 174.977665 
L 188.398017 170.930677 
L 188.715372 172.279673 
L 189.032727 176.776327 
L 189.350083 173.179004 
L 189.667438 161.038037 
L 189.984793 161.038037 
L 190.302149 165.085026 
L 190.619504 166.883688 
L 190.93686 170.031346 
L 191.254215 170.031346 
L 191.57157 173.179004 
L 191.888926 162.387033 
L 192.206281 158.340045 
L 192.840992 181.722647 
L 193.158347 181.272981 
L 193.475702 167.333353 
L 193.793058 163.73603 
L 194.110413 169.132015 
L 194.745124 140.353428 
L 195.379835 150.246067 
L 195.69719 125.064803 
L 196.014545 112.474171 
L 196.331901 107.527851 
L 196.649256 110.225844 
L 196.966612 109.776178 
L 197.283967 107.977517 
L 197.601322 112.024506 
L 197.918678 124.165472 
L 198.236033 122.816476 
L 198.553388 125.964134 
L 198.870744 140.803093 
L 199.188099 139.004431 
L 199.505455 133.608446 
L 199.82281 143.501086 
L 200.140165 144.850082 
L 200.457521 150.695732 
L 200.774876 132.709115 
L 201.409587 128.662126 
L 201.726942 168.232684 
L 202.044298 162.387033 
L 202.361653 169.58168 
L 202.679008 187.118632 
L 202.996364 184.870305 
L 203.631074 216.346885 
L 203.94843 219.944208 
L 204.265785 221.293204 
L 204.58314 223.991197 
L 204.900496 212.749561 
L 205.217851 214.997888 
L 205.535207 228.937517 
L 205.852562 222.642201 
L 206.169917 222.192535 
L 206.487273 222.192535 
L 206.804628 223.991197 
L 207.121983 222.192535 
L 207.439339 221.293204 
L 207.756694 220.843539 
L 208.07405 219.944208 
L 208.391405 223.991197 
L 208.70876 194.762944 
L 209.026116 190.26629 
L 209.343471 189.366959 
L 209.660826 198.809933 
L 209.978182 197.910602 
L 210.295537 203.756253 
L 210.930248 226.239524 
L 211.247603 248.27313 
L 211.882314 244.675807 
L 212.199669 250.971123 
L 212.517025 250.071792 
L 212.83438 259.0651 
L 213.151736 254.568446 
L 213.469091 236.581829 
L 213.786446 235.682498 
L 214.103802 210.501234 
L 214.421157 207.803242 
L 214.738512 193.413948 
L 215.055868 192.514617 
L 215.373223 194.313279 
L 215.690579 183.521309 
L 216.007934 191.165621 
L 216.325289 195.662275 
L 216.642645 194.313279 
L 216.96 195.662275 
L 217.277355 190.26629 
L 217.594711 187.118632 
L 217.912066 188.467628 
L 218.229421 187.568297 
L 218.546777 176.776327 
L 218.864132 177.225993 
L 219.181488 186.219301 
L 219.498843 182.621978 
L 219.816198 177.675658 
L 220.133554 176.776327 
L 220.450909 166.434022 
L 220.768264 161.038037 
L 221.08562 165.534691 
L 221.720331 157.890379 
L 222.037686 158.340045 
L 222.355041 139.903762 
L 222.672397 132.25945 
L 222.989752 143.950751 
L 223.307107 143.05142 
L 223.624463 141.252758 
L 224.576529 152.494394 
L 224.893884 139.004431 
L 225.21124 137.655435 
L 225.528595 143.950751 
L 225.84595 138.554766 
L 226.480661 140.803093 
L 226.798017 146.199078 
L 227.115372 146.648743 
L 227.432727 147.548074 
L 227.750083 148.897071 
L 228.067438 148.897071 
L 228.384793 139.903762 
L 229.019504 145.299747 
L 229.33686 143.501086 
L 229.654215 140.803093 
L 229.97157 141.702424 
L 230.288926 143.950751 
L 230.923636 192.514617 
L 231.240992 191.165621 
L 231.558347 197.460937 
L 231.875702 201.05826 
L 232.193058 180.373651 
L 232.510413 198.360268 
L 232.827769 200.158929 
L 233.145124 194.762944 
L 233.779835 192.514617 
L 234.09719 184.870305 
L 234.414545 191.615286 
L 235.049256 185.769636 
L 235.366612 189.366959 
L 235.683967 184.420639 
L 236.001322 181.272981 
L 236.318678 172.279673 
L 236.636033 174.528 
L 236.953388 175.876996 
L 237.270744 179.024654 
L 237.588099 173.628669 
L 237.905455 175.427331 
L 238.22281 179.024654 
L 238.540165 189.366959 
L 238.857521 191.615286 
L 239.174876 188.467628 
L 239.492231 186.668967 
L 239.809587 191.615286 
L 240.126942 191.615286 
L 240.444298 185.769636 
L 240.761653 183.970974 
L 241.079008 185.31997 
L 241.396364 185.31997 
L 241.713719 185.769636 
L 242.34843 192.964283 
L 242.665785 187.568297 
L 242.98314 186.668967 
L 243.300496 202.407257 
L 243.617851 197.011271 
L 243.935207 198.360268 
L 244.252562 204.655584 
L 244.569917 201.957591 
L 244.887273 196.111941 
L 245.204628 182.172312 
L 245.839339 189.816625 
L 246.156694 185.31997 
L 246.47405 163.73603 
L 246.791405 174.977665 
L 247.426116 158.340045 
L 248.060826 174.528 
L 248.378182 172.279673 
L 248.695537 186.219301 
L 249.012893 192.064952 
L 249.330248 188.467628 
L 249.647603 190.715955 
L 249.964959 182.621978 
L 250.599669 201.05826 
L 250.917025 202.856922 
L 251.23438 191.165621 
L 251.551736 185.31997 
L 251.869091 165.085026 
L 252.186446 164.185695 
L 252.503802 162.836699 
L 252.821157 162.387033 
L 253.138512 170.031346 
L 253.455868 152.944059 
L 253.773223 128.212461 
L 254.090579 132.709115 
L 254.407934 123.715807 
L 254.725289 126.413799 
L 255.042645 127.762796 
L 255.36 139.454097 
L 255.677355 138.1051 
L 256.312066 164.185695 
L 256.629421 167.333353 
L 256.946777 165.534691 
L 257.264132 160.588372 
L 257.581488 166.883688 
L 257.898843 169.132015 
L 258.216198 166.883688 
L 258.533554 165.984357 
L 258.850909 163.286364 
L 259.168264 159.239375 
L 259.48562 159.239375 
L 259.802975 168.682349 
L 260.120331 163.73603 
L 260.755041 174.078335 
L 261.072397 167.783019 
L 261.707107 181.722647 
L 262.024463 171.830007 
L 262.341818 179.923985 
L 262.659174 179.923985 
L 262.976529 178.574989 
L 263.293884 183.521309 
L 263.61124 184.420639 
L 263.928595 179.024654 
L 264.24595 178.574989 
L 264.563306 182.172312 
L 264.880661 180.373651 
L 265.198017 159.689041 
L 265.515372 167.333353 
L 265.832727 133.158781 
L 266.150083 150.246067 
L 266.467438 148.897071 
L 266.784793 139.903762 
L 267.102149 141.252758 
L 267.419504 141.252758 
L 267.73686 164.185695 
L 268.054215 168.682349 
L 268.37157 174.977665 
L 268.688926 165.085026 
L 269.006281 169.132015 
L 269.323636 156.541383 
L 269.640992 151.595063 
L 269.958347 153.84339 
L 270.275702 148.447405 
L 270.593058 152.944059 
L 270.910413 139.004431 
L 271.227769 141.702424 
L 271.545124 135.407108 
L 271.862479 136.306439 
L 272.179835 139.004431 
L 272.49719 134.507777 
L 272.814545 126.413799 
L 273.131901 128.662126 
L 273.449256 131.809784 
L 273.766612 136.756104 
L 274.401322 157.440714 
L 274.718678 154.293056 
L 275.036033 161.038037 
L 275.353388 156.541383 
L 275.670744 163.286364 
L 275.988099 161.487703 
L 276.305455 161.937368 
L 276.62281 158.340045 
L 276.940165 147.548074 
L 277.257521 125.964134 
L 277.574876 121.46748 
L 277.892231 120.568149 
L 278.209587 121.017814 
L 278.526942 139.903762 
L 278.844298 135.856773 
L 279.161653 139.454097 
L 279.479008 130.460788 
L 279.796364 126.413799 
L 280.113719 126.413799 
L 280.431074 131.809784 
L 280.74843 128.662126 
L 281.065785 131.360119 
L 281.38314 131.809784 
L 281.700496 146.648743 
L 282.017851 143.05142 
L 282.335207 152.044729 
L 282.652562 152.494394 
L 282.969917 151.145398 
L 283.287273 141.702424 
L 283.604628 139.454097 
L 283.921983 146.199078 
L 284.239339 142.601755 
L 284.556694 142.601755 
L 284.87405 147.548074 
L 285.191405 156.541383 
L 285.50876 143.501086 
L 285.826116 158.78971 
L 286.143471 156.991048 
L 286.460826 156.991048 
L 286.778182 161.937368 
L 287.095537 148.897071 
L 287.412893 161.937368 
L 287.730248 168.232684 
L 288.364959 172.729338 
L 288.682314 171.380342 
L 288.999669 171.380342 
L 289.317025 166.883688 
L 289.63438 166.883688 
L 289.951736 161.038037 
L 290.269091 175.876996 
L 290.586446 170.481011 
L 290.903802 162.836699 
L 291.221157 179.923985 
L 291.538512 183.071643 
L 291.855868 184.420639 
L 292.173223 189.816625 
L 292.490579 187.568297 
L 292.807934 187.568297 
L 293.442645 176.776327 
L 293.76 177.675658 
L 294.077355 183.071643 
L 294.712066 169.58168 
L 295.029421 169.58168 
L 295.346777 169.132015 
L 295.664132 170.930677 
L 295.981488 187.118632 
L 296.298843 192.064952 
L 296.616198 188.917294 
L 296.933554 189.366959 
L 297.250909 193.413948 
L 297.568264 207.353576 
L 297.88562 208.252907 
L 298.202975 203.756253 
L 298.520331 185.769636 
L 299.155041 174.977665 
L 299.472397 184.870305 
L 299.789752 181.272981 
L 300.107107 181.272981 
L 300.424463 183.071643 
L 300.741818 185.769636 
L 301.376529 192.514617 
L 301.693884 196.111941 
L 302.01124 189.816625 
L 302.328595 192.514617 
L 302.64595 171.380342 
L 303.280661 188.017963 
L 303.598017 181.722647 
L 303.915372 188.017963 
L 304.232727 189.366959 
L 304.867438 185.769636 
L 305.184793 184.870305 
L 305.819504 192.064952 
L 306.13686 193.863613 
L 306.454215 190.715955 
L 306.77157 185.31997 
L 307.088926 182.172312 
L 307.406281 188.017963 
L 307.723636 183.521309 
L 308.040992 180.823316 
L 308.358347 208.252907 
L 308.675702 210.9509 
L 308.993058 209.601903 
L 309.310413 203.756253 
L 309.627769 193.863613 
L 309.945124 195.662275 
L 310.262479 199.259599 
L 311.214545 182.172312 
L 311.531901 188.917294 
L 311.849256 211.400565 
L 312.166612 220.393874 
L 312.483967 216.79655 
L 312.801322 222.192535 
L 313.118678 223.541532 
L 313.753388 214.548223 
L 314.070744 218.145546 
L 314.388099 211.85023 
L 314.705455 212.749561 
L 315.02281 218.595212 
L 315.340165 219.494543 
L 315.657521 214.997888 
L 315.974876 214.997888 
L 316.292231 213.199227 
L 316.609587 205.554914 
L 316.926942 207.803242 
L 317.244298 206.454245 
L 317.561653 200.158929 
L 317.879008 197.011271 
L 318.196364 198.809933 
L 318.513719 191.165621 
L 318.831074 196.561606 
L 319.14843 192.064952 
L 319.78314 172.279673 
L 320.100496 173.179004 
L 320.417851 160.138706 
L 322.004628 190.26629 
L 322.321983 183.970974 
L 322.639339 182.172312 
L 322.956694 179.47432 
L 323.27405 180.823316 
L 323.591405 170.930677 
L 323.90876 172.729338 
L 324.226116 172.729338 
L 324.543471 173.628669 
L 324.860826 162.387033 
L 325.178182 159.239375 
L 325.495537 161.937368 
L 325.812893 154.742721 
L 326.130248 160.138706 
L 326.447603 162.836699 
L 326.764959 176.326662 
L 327.082314 171.830007 
L 327.399669 175.427331 
L 327.717025 184.420639 
L 328.669091 191.615286 
L 328.986446 184.870305 
L 329.303802 186.668967 
L 329.621157 187.118632 
L 329.938512 191.615286 
L 330.255868 190.715955 
L 330.573223 195.21261 
L 330.890579 190.26629 
L 331.207934 178.574989 
L 331.525289 181.722647 
L 331.842645 182.621978 
L 332.16 186.668967 
L 332.477355 173.628669 
L 332.794711 179.47432 
L 333.112066 180.373651 
L 333.429421 169.58168 
L 333.746777 164.635361 
L 334.064132 165.534691 
L 334.381488 161.937368 
L 334.698843 161.487703 
L 335.016198 156.991048 
L 335.333554 157.440714 
L 335.650909 159.239375 
L 335.968264 170.481011 
L 336.28562 157.440714 
L 336.602975 161.487703 
L 336.920331 159.689041 
L 337.237686 161.487703 
L 337.555041 153.393725 
L 337.872397 150.695732 
L 338.189752 157.890379 
L 338.507107 153.84339 
L 338.824463 153.393725 
L 339.459174 168.682349 
L 339.776529 170.481011 
L 340.093884 157.890379 
L 340.41124 156.991048 
L 340.728595 152.944059 
L 341.04595 154.742721 
L 341.363306 155.192387 
L 341.680661 144.400416 
L 341.998017 144.400416 
L 342.315372 143.501086 
L 342.632727 131.809784 
L 342.950083 139.004431 
L 343.267438 140.803093 
L 343.584793 152.044729 
L 343.902149 152.044729 
L 344.219504 164.635361 
L 344.53686 164.635361 
L 344.854215 162.836699 
L 345.17157 166.434022 
L 345.806281 168.232684 
L 346.123636 171.380342 
L 346.440992 167.783019 
L 346.758347 171.830007 
L 347.075702 172.279673 
L 347.393058 170.930677 
L 347.710413 167.333353 
L 348.027769 170.930677 
L 348.345124 159.239375 
L 348.662479 152.494394 
L 348.979835 161.038037 
L 349.29719 161.487703 
L 349.614545 160.588372 
L 349.931901 164.185695 
L 350.249256 162.836699 
L 350.566612 159.689041 
L 350.883967 160.138706 
L 351.201322 169.132015 
L 351.518678 170.930677 
L 351.836033 174.977665 
L 352.153388 186.668967 
L 352.470744 193.413948 
L 352.788099 190.715955 
L 353.740165 204.655584 
L 354.057521 194.762944 
L 355.009587 224.440862 
L 355.326942 211.85023 
L 355.961653 219.044877 
L 356.279008 206.454245 
L 356.596364 206.454245 
L 357.231074 208.702572 
L 357.54843 211.85023 
L 357.865785 192.064952 
L 358.18314 191.165621 
L 358.500496 194.313279 
L 358.817851 187.568297 
L 359.135207 195.662275 
L 359.452562 195.21261 
L 359.769917 197.011271 
L 360.087273 184.870305 
L 360.404628 198.360268 
L 360.721983 192.514617 
L 361.039339 202.407257 
L 361.356694 207.353576 
L 361.67405 200.608595 
L 361.991405 200.608595 
L 362.626116 206.454245 
L 362.943471 212.299896 
L 363.260826 210.051569 
L 363.578182 210.501234 
L 364.212893 223.091866 
L 364.530248 214.997888 
L 364.847603 214.098558 
L 365.164959 212.299896 
L 365.482314 214.098558 
L 365.799669 213.199227 
L 366.43438 185.769636 
L 366.751736 192.064952 
L 367.069091 183.071643 
L 367.386446 181.722647 
L 367.703802 186.668967 
L 368.021157 187.568297 
L 368.338512 167.783019 
L 368.655868 165.984357 
L 368.973223 165.984357 
L 369.290579 177.225993 
L 369.607934 176.326662 
L 369.925289 183.071643 
L 370.242645 180.823316 
L 370.56 185.769636 
L 370.877355 187.568297 
L 371.194711 191.165621 
L 371.512066 189.816625 
L 371.829421 200.158929 
L 372.146777 205.105249 
L 372.464132 203.756253 
L 372.781488 204.655584 
L 373.098843 203.306587 
L 373.416198 206.903911 
L 373.733554 211.85023 
L 374.050909 221.74287 
L 374.368264 221.293204 
L 374.68562 218.145546 
L 375.002975 216.79655 
L 375.320331 223.541532 
L 375.637686 212.749561 
L 375.955041 228.038186 
L 376.272397 222.192535 
L 376.589752 225.789859 
L 377.224463 221.293204 
L 377.541818 223.541532 
L 377.859174 221.74287 
L 378.176529 216.79655 
L 378.81124 227.58852 
L 379.128595 220.393874 
L 379.44595 223.991197 
L 379.763306 223.991197 
L 380.080661 221.293204 
L 380.398017 233.434171 
L 380.715372 232.984506 
L 381.032727 239.279822 
L 381.350083 232.085175 
L 381.667438 237.930825 
L 381.984793 239.279822 
L 382.302149 235.682498 
L 382.93686 240.179152 
L 383.254215 232.53484 
L 383.57157 233.434171 
L 383.888926 226.239524 
L 384.206281 231.185844 
L 384.523636 223.991197 
L 384.840992 223.091866 
L 385.158347 225.789859 
L 385.475702 233.434171 
L 385.793058 233.883836 
L 386.110413 236.132164 
L 386.427769 232.085175 
L 386.745124 232.085175 
L 387.062479 244.675807 
L 387.379835 235.232833 
L 387.69719 234.783167 
L 388.014545 235.682498 
L 388.331901 232.984506 
L 388.649256 235.232833 
L 388.966612 233.883836 
L 389.283967 233.883836 
L 389.601322 236.132164 
L 389.918678 253.21945 
L 390.236033 255.018112 
L 390.553388 255.018112 
L 391.505455 269.857071 
L 391.82281 264.461086 
L 392.140165 263.561755 
L 392.457521 259.0651 
L 393.092231 273.004729 
L 393.409587 272.555063 
L 393.726942 272.555063 
L 394.361653 275.702721 
L 394.679008 262.212758 
L 394.996364 264.910751 
L 395.313719 277.501383 
L 395.631074 274.353725 
L 395.94843 281.998037 
L 396.265785 279.300045 
L 396.58314 283.796699 
L 397.217851 279.300045 
L 397.535207 283.796699 
L 397.852562 281.098706 
L 398.487273 295.488 
L 398.487273 295.488 
" clip-path="url(#pfaa4a60d86)" style="fill: none; stroke: #1f77b4; stroke-width: 1.5; stroke-linecap: square"/>
   </g>
   <g id="patch_3">
    <path d="M 57.6 307.584 
L 57.6 41.472 
" style="fill: none; stroke: #000000; stroke-width: 0.8; stroke-linejoin: miter; stroke-linecap: square"/>
   </g>
   <g id="patch_4">
    <path d="M 414.72 307.584 
L 414.72 41.472 
" style="fill: none; stroke: #000000; stroke-width: 0.8; stroke-linejoin: miter; stroke-linecap: square"/>
   </g>
   <g id="patch_5">
    <path d="M 57.6 307.584 
L 414.72 307.584 
" style="fill: none; stroke: #000000; stroke-width: 0.8; stroke-linejoin: miter; stroke-linecap: square"/>
   </g>
   <g id="patch_6">
    <path d="M 57.6 41.472 
L 414.72 41.472 
" style="fill: none; stroke: #000000; stroke-width: 0.8; stroke-linejoin: miter; stroke-linecap: square"/>
   </g>
   <g id="text_14">
    <!-- Simulated Anealling Cost -->
    <g transform="translate(160.8 35.472)scale(0.12 -0.12)">
     <defs>
      <path id="DejaVuSans-53" d="M 3425 4513 
L 3425 3897 
Q 3066 4069 2747 4153 
Q 2428 4238 2131 4238 
Q 1616 4238 1336 4038 
Q 1056 3838 1056 3469 
Q 1056 3159 1242 3001 
Q 1428 2844 1947 2747 
L 2328 2669 
Q 3034 2534 3370 2195 
Q 3706 1856 3706 1288 
Q 3706 609 3251 259 
Q 2797 -91 1919 -91 
Q 1588 -91 1214 -16 
Q 841 59 441 206 
L 441 856 
Q 825 641 1194 531 
Q 1563 422 1919 422 
Q 2459 422 2753 634 
Q 3047 847 3047 1241 
Q 3047 1584 2836 1778 
Q 2625 1972 2144 2069 
L 1759 2144 
Q 1053 2284 737 2584 
Q 422 2884 422 3419 
Q 422 4038 858 4394 
Q 1294 4750 2059 4750 
Q 2388 4750 2728 4690 
Q 3069 4631 3425 4513 
z
" transform="scale(0.015625)"/>
      <path id="DejaVuSans-69" d="M 603 3500 
L 1178 3500 
L 1178 0 
L 603 0 
L 603 3500 
z
M 603 4863 
L 1178 4863 
L 1178 4134 
L 603 4134 
L 603 4863 
z
" transform="scale(0.015625)"/>
      <path id="DejaVuSans-65" d="M 3597 1894 
L 3597 1613 
L 953 1613 
Q 991 1019 1311 708 
Q 1631 397 2203 397 
Q 2534 397 2845 478 
Q 3156 559 3463 722 
L 3463 178 
Q 3153 47 2828 -22 
Q 2503 -91 2169 -91 
Q 1331 -91 842 396 
Q 353 884 353 1716 
Q 353 2575 817 3079 
Q 1281 3584 2069 3584 
Q 2775 3584 3186 3129 
Q 3597 2675 3597 1894 
z
M 3022 2063 
Q 3016 2534 2758 2815 
Q 2500 3097 2075 3097 
Q 1594 3097 1305 2825 
Q 1016 2553 972 2059 
L 3022 2063 
z
" transform="scale(0.015625)"/>
      <path id="DejaVuSans-64" d="M 2906 2969 
L 2906 4863 
L 3481 4863 
L 3481 0 
L 2906 0 
L 2906 525 
Q 2725 213 2448 61 
Q 2172 -91 1784 -91 
Q 1150 -91 751 415 
Q 353 922 353 1747 
Q 353 2572 751 3078 
Q 1150 3584 1784 3584 
Q 2172 3584 2448 3432 
Q 2725 3281 2906 2969 
z
M 947 1747 
Q 947 1113 1208 752 
Q 1469 391 1925 391 
Q 2381 391 2643 752 
Q 2906 1113 2906 1747 
Q 2906 2381 2643 2742 
Q 2381 3103 1925 3103 
Q 1469 3103 1208 2742 
Q 947 2381 947 1747 
z
" transform="scale(0.015625)"/>
      <path id="DejaVuSans-41" d="M 2188 4044 
L 1331 1722 
L 3047 1722 
L 2188 4044 
z
M 1831 4666 
L 2547 4666 
L 4325 0 
L 3669 0 
L 3244 1197 
L 1141 1197 
L 716 0 
L 50 0 
L 1831 4666 
z
" transform="scale(0.015625)"/>
      <path id="DejaVuSans-67" d="M 2906 1791 
Q 2906 2416 2648 2759 
Q 2391 3103 1925 3103 
Q 1463 3103 1205 2759 
Q 947 2416 947 1791 
Q 947 1169 1205 825 
Q 1463 481 1925 481 
Q 2391 481 2648 825 
Q 2906 1169 2906 1791 
z
M 3481 434 
Q 3481 -459 3084 -895 
Q 2688 -1331 1869 -1331 
Q 1566 -1331 1297 -1286 
Q 1028 -1241 775 -1147 
L 775 -588 
Q 1028 -725 1275 -790 
Q 1522 -856 1778 -856 
Q 2344 -856 2625 -561 
Q 2906 -266 2906 331 
L 2906 616 
Q 2728 306 2450 153 
Q 2172 0 1784 0 
Q 1141 0 747 490 
Q 353 981 353 1791 
Q 353 2603 747 3093 
Q 1141 3584 1784 3584 
Q 2172 3584 2450 3431 
Q 2728 3278 2906 2969 
L 2906 3500 
L 3481 3500 
L 3481 434 
z
" transform="scale(0.015625)"/>
      <path id="DejaVuSans-43" d="M 4122 4306 
L 4122 3641 
Q 3803 3938 3442 4084 
Q 3081 4231 2675 4231 
Q 1875 4231 1450 3742 
Q 1025 3253 1025 2328 
Q 1025 1406 1450 917 
Q 1875 428 2675 428 
Q 3081 428 3442 575 
Q 3803 722 4122 1019 
L 4122 359 
Q 3791 134 3420 21 
Q 3050 -91 2638 -91 
Q 1578 -91 968 557 
Q 359 1206 359 2328 
Q 359 3453 968 4101 
Q 1578 4750 2638 4750 
Q 3056 4750 3426 4639 
Q 3797 4528 4122 4306 
z
" transform="scale(0.015625)"/>
     </defs>
     <use xlink:href="#DejaVuSans-53"/>
     <use xlink:href="#DejaVuSans-69" x="63.476562"/>
     <use xlink:href="#DejaVuSans-6d" x="91.259766"/>
     <use xlink:href="#DejaVuSans-75" x="188.671875"/>
     <use xlink:href="#DejaVuSans-6c" x="252.050781"/>
     <use xlink:href="#DejaVuSans-61" x="279.833984"/>
     <use xlink:href="#DejaVuSans-74" x="341.113281"/>
     <use xlink:href="#DejaVuSans-65" x="380.322266"/>
     <use xlink:href="#DejaVuSans-64" x="441.845703"/>
     <use xlink:href="#DejaVuSans-20" x="505.322266"/>
     <use xlink:href="#DejaVuSans-41" x="537.109375"/>
     <use xlink:href="#DejaVuSans-6e" x="605.517578"/>
     <use xlink:href="#DejaVuSans-65" x="668.896484"/>
     <use xlink:href="#DejaVuSans-61" x="730.419922"/>
     <use xlink:href="#DejaVuSans-6c" x="791.699219"/>
     <use xlink:href="#DejaVuSans-6c" x="819.482422"/>
     <use xlink:href="#DejaVuSans-69" x="847.265625"/>
     <use xlink:href="#DejaVuSans-6e" x="875.048828"/>
     <use xlink:href="#DejaVuSans-67" x="938.427734"/>
     <use xlink:href="#DejaVuSans-20" x="1001.904297"/>
     <use xlink:href="#DejaVuSans-43" x="1033.691406"/>
     <use xlink:href="#DejaVuSans-6f" x="1103.515625"/>
     <use xlink:href="#DejaVuSans-73" x="1164.697266"/>
     <use xlink:href="#DejaVuSans-74" x="1216.796875"/>
    </g>
   </g>
  </g>
 </g>
 <defs>
  <clipPath id="pfaa4a60d86">
   <rect x="57.6" y="41.472" width="357.12" height="266.112"/>
  </clipPath>
 </defs>
</svg>
