<?xml version="1.0" encoding="utf-8" standalone="no"?>
<!DOCTYPE svg PUBLIC "-//W3C//DTD SVG 1.1//EN"
  "http://www.w3.org/Graphics/SVG/1.1/DTD/svg11.dtd">
<svg xmlns:xlink="http://www.w3.org/1999/xlink" width="460.8pt" height="345.6pt" viewBox="0 0 460.8 345.6" xmlns="http://www.w3.org/2000/svg" version="1.1">
 <metadata>
  <rdf:RDF xmlns:dc="http://purl.org/dc/elements/1.1/" xmlns:cc="http://creativecommons.org/ns#" xmlns:rdf="http://www.w3.org/1999/02/22-rdf-syntax-ns#">
   <cc:Work>
    <dc:type rdf:resource="http://purl.org/dc/dcmitype/StillImage"/>
    <dc:date>2022-06-01T08:04:00.168508</dc:date>
    <dc:format>image/svg+xml</dc:format>
    <dc:creator>
     <cc:Agent>
      <dc:title>Matplotlib v3.5.1, https://matplotlib.org/</dc:title>
     </cc:Agent>
    </dc:creator>
   </cc:Work>
  </rdf:RDF>
 </metadata>
 <defs>
  <style type="text/css">*{stroke-linejoin: round; stroke-linecap: butt}</style>
 </defs>
 <g id="figure_1">
  <g id="patch_1">
   <path d="M 0 345.6 
L 460.8 345.6 
L 460.8 0 
L 0 0 
z
" style="fill: #ffffff"/>
  </g>
  <g id="axes_1">
   <g id="patch_2">
    <path d="M 57.6 307.584 
L 414.72 307.584 
L 414.72 41.472 
L 57.6 41.472 
z
" style="fill: #ffffff"/>
   </g>
   <g id="matplotlib.axis_1">
    <g id="xtick_1">
     <g id="line2d_1">
      <defs>
       <path id="ma1473721c9" d="M 0 0 
L 0 3.5 
" style="stroke: #000000; stroke-width: 0.8"/>
      </defs>
      <g>
       <use xlink:href="#ma1473721c9" x="73.832727" y="307.584" style="stroke: #000000; stroke-width: 0.8"/>
      </g>
     </g>
     <g id="text_1">
      <!-- 0 -->
      <g transform="translate(70.651477 322.182437)scale(0.1 -0.1)">
       <defs>
        <path id="DejaVuSans-30" d="M 2034 4250 
Q 1547 4250 1301 3770 
Q 1056 3291 1056 2328 
Q 1056 1369 1301 889 
Q 1547 409 2034 409 
Q 2525 409 2770 889 
Q 3016 1369 3016 2328 
Q 3016 3291 2770 3770 
Q 2525 4250 2034 4250 
z
M 2034 4750 
Q 2819 4750 3233 4129 
Q 3647 3509 3647 2328 
Q 3647 1150 3233 529 
Q 2819 -91 2034 -91 
Q 1250 -91 836 529 
Q 422 1150 422 2328 
Q 422 3509 836 4129 
Q 1250 4750 2034 4750 
z
" transform="scale(0.015625)"/>
       </defs>
       <use xlink:href="#DejaVuSans-30"/>
      </g>
     </g>
    </g>
    <g id="xtick_2">
     <g id="line2d_2">
      <g>
       <use xlink:href="#ma1473721c9" x="140.744216" y="307.584" style="stroke: #000000; stroke-width: 0.8"/>
      </g>
     </g>
     <g id="text_2">
      <!-- 500 -->
      <g transform="translate(131.200466 322.182437)scale(0.1 -0.1)">
       <defs>
        <path id="DejaVuSans-35" d="M 691 4666 
L 3169 4666 
L 3169 4134 
L 1269 4134 
L 1269 2991 
Q 1406 3038 1543 3061 
Q 1681 3084 1819 3084 
Q 2600 3084 3056 2656 
Q 3513 2228 3513 1497 
Q 3513 744 3044 326 
Q 2575 -91 1722 -91 
Q 1428 -91 1123 -41 
Q 819 9 494 109 
L 494 744 
Q 775 591 1075 516 
Q 1375 441 1709 441 
Q 2250 441 2565 725 
Q 2881 1009 2881 1497 
Q 2881 1984 2565 2268 
Q 2250 2553 1709 2553 
Q 1456 2553 1204 2497 
Q 953 2441 691 2322 
L 691 4666 
z
" transform="scale(0.015625)"/>
       </defs>
       <use xlink:href="#DejaVuSans-35"/>
       <use xlink:href="#DejaVuSans-30" x="63.623047"/>
       <use xlink:href="#DejaVuSans-30" x="127.246094"/>
      </g>
     </g>
    </g>
    <g id="xtick_3">
     <g id="line2d_3">
      <g>
       <use xlink:href="#ma1473721c9" x="207.655706" y="307.584" style="stroke: #000000; stroke-width: 0.8"/>
      </g>
     </g>
     <g id="text_3">
      <!-- 1000 -->
      <g transform="translate(194.930706 322.182437)scale(0.1 -0.1)">
       <defs>
        <path id="DejaVuSans-31" d="M 794 531 
L 1825 531 
L 1825 4091 
L 703 3866 
L 703 4441 
L 1819 4666 
L 2450 4666 
L 2450 531 
L 3481 531 
L 3481 0 
L 794 0 
L 794 531 
z
" transform="scale(0.015625)"/>
       </defs>
       <use xlink:href="#DejaVuSans-31"/>
       <use xlink:href="#DejaVuSans-30" x="63.623047"/>
       <use xlink:href="#DejaVuSans-30" x="127.246094"/>
       <use xlink:href="#DejaVuSans-30" x="190.869141"/>
      </g>
     </g>
    </g>
    <g id="xtick_4">
     <g id="line2d_4">
      <g>
       <use xlink:href="#ma1473721c9" x="274.567195" y="307.584" style="stroke: #000000; stroke-width: 0.8"/>
      </g>
     </g>
     <g id="text_4">
      <!-- 1500 -->
      <g transform="translate(261.842195 322.182437)scale(0.1 -0.1)">
       <use xlink:href="#DejaVuSans-31"/>
       <use xlink:href="#DejaVuSans-35" x="63.623047"/>
       <use xlink:href="#DejaVuSans-30" x="127.246094"/>
       <use xlink:href="#DejaVuSans-30" x="190.869141"/>
      </g>
     </g>
    </g>
    <g id="xtick_5">
     <g id="line2d_5">
      <g>
       <use xlink:href="#ma1473721c9" x="341.478684" y="307.584" style="stroke: #000000; stroke-width: 0.8"/>
      </g>
     </g>
     <g id="text_5">
      <!-- 2000 -->
      <g transform="translate(328.753684 322.182437)scale(0.1 -0.1)">
       <defs>
        <path id="DejaVuSans-32" d="M 1228 531 
L 3431 531 
L 3431 0 
L 469 0 
L 469 531 
Q 828 903 1448 1529 
Q 2069 2156 2228 2338 
Q 2531 2678 2651 2914 
Q 2772 3150 2772 3378 
Q 2772 3750 2511 3984 
Q 2250 4219 1831 4219 
Q 1534 4219 1204 4116 
Q 875 4013 500 3803 
L 500 4441 
Q 881 4594 1212 4672 
Q 1544 4750 1819 4750 
Q 2544 4750 2975 4387 
Q 3406 4025 3406 3419 
Q 3406 3131 3298 2873 
Q 3191 2616 2906 2266 
Q 2828 2175 2409 1742 
Q 1991 1309 1228 531 
z
" transform="scale(0.015625)"/>
       </defs>
       <use xlink:href="#DejaVuSans-32"/>
       <use xlink:href="#DejaVuSans-30" x="63.623047"/>
       <use xlink:href="#DejaVuSans-30" x="127.246094"/>
       <use xlink:href="#DejaVuSans-30" x="190.869141"/>
      </g>
     </g>
    </g>
    <g id="xtick_6">
     <g id="line2d_6">
      <g>
       <use xlink:href="#ma1473721c9" x="408.390173" y="307.584" style="stroke: #000000; stroke-width: 0.8"/>
      </g>
     </g>
     <g id="text_6">
      <!-- 2500 -->
      <g transform="translate(395.665173 322.182437)scale(0.1 -0.1)">
       <use xlink:href="#DejaVuSans-32"/>
       <use xlink:href="#DejaVuSans-35" x="63.623047"/>
       <use xlink:href="#DejaVuSans-30" x="127.246094"/>
       <use xlink:href="#DejaVuSans-30" x="190.869141"/>
      </g>
     </g>
    </g>
    <g id="text_7">
     <!-- num swaps -->
     <g transform="translate(207.826406 335.860562)scale(0.1 -0.1)">
      <defs>
       <path id="DejaVuSans-6e" d="M 3513 2113 
L 3513 0 
L 2938 0 
L 2938 2094 
Q 2938 2591 2744 2837 
Q 2550 3084 2163 3084 
Q 1697 3084 1428 2787 
Q 1159 2491 1159 1978 
L 1159 0 
L 581 0 
L 581 3500 
L 1159 3500 
L 1159 2956 
Q 1366 3272 1645 3428 
Q 1925 3584 2291 3584 
Q 2894 3584 3203 3211 
Q 3513 2838 3513 2113 
z
" transform="scale(0.015625)"/>
       <path id="DejaVuSans-75" d="M 544 1381 
L 544 3500 
L 1119 3500 
L 1119 1403 
Q 1119 906 1312 657 
Q 1506 409 1894 409 
Q 2359 409 2629 706 
Q 2900 1003 2900 1516 
L 2900 3500 
L 3475 3500 
L 3475 0 
L 2900 0 
L 2900 538 
Q 2691 219 2414 64 
Q 2138 -91 1772 -91 
Q 1169 -91 856 284 
Q 544 659 544 1381 
z
M 1991 3584 
L 1991 3584 
z
" transform="scale(0.015625)"/>
       <path id="DejaVuSans-6d" d="M 3328 2828 
Q 3544 3216 3844 3400 
Q 4144 3584 4550 3584 
Q 5097 3584 5394 3201 
Q 5691 2819 5691 2113 
L 5691 0 
L 5113 0 
L 5113 2094 
Q 5113 2597 4934 2840 
Q 4756 3084 4391 3084 
Q 3944 3084 3684 2787 
Q 3425 2491 3425 1978 
L 3425 0 
L 2847 0 
L 2847 2094 
Q 2847 2600 2669 2842 
Q 2491 3084 2119 3084 
Q 1678 3084 1418 2786 
Q 1159 2488 1159 1978 
L 1159 0 
L 581 0 
L 581 3500 
L 1159 3500 
L 1159 2956 
Q 1356 3278 1631 3431 
Q 1906 3584 2284 3584 
Q 2666 3584 2933 3390 
Q 3200 3197 3328 2828 
z
" transform="scale(0.015625)"/>
       <path id="DejaVuSans-20" transform="scale(0.015625)"/>
       <path id="DejaVuSans-73" d="M 2834 3397 
L 2834 2853 
Q 2591 2978 2328 3040 
Q 2066 3103 1784 3103 
Q 1356 3103 1142 2972 
Q 928 2841 928 2578 
Q 928 2378 1081 2264 
Q 1234 2150 1697 2047 
L 1894 2003 
Q 2506 1872 2764 1633 
Q 3022 1394 3022 966 
Q 3022 478 2636 193 
Q 2250 -91 1575 -91 
Q 1294 -91 989 -36 
Q 684 19 347 128 
L 347 722 
Q 666 556 975 473 
Q 1284 391 1588 391 
Q 1994 391 2212 530 
Q 2431 669 2431 922 
Q 2431 1156 2273 1281 
Q 2116 1406 1581 1522 
L 1381 1569 
Q 847 1681 609 1914 
Q 372 2147 372 2553 
Q 372 3047 722 3315 
Q 1072 3584 1716 3584 
Q 2034 3584 2315 3537 
Q 2597 3491 2834 3397 
z
" transform="scale(0.015625)"/>
       <path id="DejaVuSans-77" d="M 269 3500 
L 844 3500 
L 1563 769 
L 2278 3500 
L 2956 3500 
L 3675 769 
L 4391 3500 
L 4966 3500 
L 4050 0 
L 3372 0 
L 2619 2869 
L 1863 0 
L 1184 0 
L 269 3500 
z
" transform="scale(0.015625)"/>
       <path id="DejaVuSans-61" d="M 2194 1759 
Q 1497 1759 1228 1600 
Q 959 1441 959 1056 
Q 959 750 1161 570 
Q 1363 391 1709 391 
Q 2188 391 2477 730 
Q 2766 1069 2766 1631 
L 2766 1759 
L 2194 1759 
z
M 3341 1997 
L 3341 0 
L 2766 0 
L 2766 531 
Q 2569 213 2275 61 
Q 1981 -91 1556 -91 
Q 1019 -91 701 211 
Q 384 513 384 1019 
Q 384 1609 779 1909 
Q 1175 2209 1959 2209 
L 2766 2209 
L 2766 2266 
Q 2766 2663 2505 2880 
Q 2244 3097 1772 3097 
Q 1472 3097 1187 3025 
Q 903 2953 641 2809 
L 641 3341 
Q 956 3463 1253 3523 
Q 1550 3584 1831 3584 
Q 2591 3584 2966 3190 
Q 3341 2797 3341 1997 
z
" transform="scale(0.015625)"/>
       <path id="DejaVuSans-70" d="M 1159 525 
L 1159 -1331 
L 581 -1331 
L 581 3500 
L 1159 3500 
L 1159 2969 
Q 1341 3281 1617 3432 
Q 1894 3584 2278 3584 
Q 2916 3584 3314 3078 
Q 3713 2572 3713 1747 
Q 3713 922 3314 415 
Q 2916 -91 2278 -91 
Q 1894 -91 1617 61 
Q 1341 213 1159 525 
z
M 3116 1747 
Q 3116 2381 2855 2742 
Q 2594 3103 2138 3103 
Q 1681 3103 1420 2742 
Q 1159 2381 1159 1747 
Q 1159 1113 1420 752 
Q 1681 391 2138 391 
Q 2594 391 2855 752 
Q 3116 1113 3116 1747 
z
" transform="scale(0.015625)"/>
      </defs>
      <use xlink:href="#DejaVuSans-6e"/>
      <use xlink:href="#DejaVuSans-75" x="63.378906"/>
      <use xlink:href="#DejaVuSans-6d" x="126.757812"/>
      <use xlink:href="#DejaVuSans-20" x="224.169922"/>
      <use xlink:href="#DejaVuSans-73" x="255.957031"/>
      <use xlink:href="#DejaVuSans-77" x="308.056641"/>
      <use xlink:href="#DejaVuSans-61" x="389.84375"/>
      <use xlink:href="#DejaVuSans-70" x="451.123047"/>
      <use xlink:href="#DejaVuSans-73" x="514.599609"/>
     </g>
    </g>
   </g>
   <g id="matplotlib.axis_2">
    <g id="ytick_1">
     <g id="line2d_7">
      <defs>
       <path id="m80010c6c42" d="M 0 0 
L -3.5 0 
" style="stroke: #000000; stroke-width: 0.8"/>
      </defs>
      <g>
       <use xlink:href="#m80010c6c42" x="57.6" y="305.242839" style="stroke: #000000; stroke-width: 0.8"/>
      </g>
     </g>
     <g id="text_8">
      <!-- 460 -->
      <g transform="translate(31.5125 309.042057)scale(0.1 -0.1)">
       <defs>
        <path id="DejaVuSans-34" d="M 2419 4116 
L 825 1625 
L 2419 1625 
L 2419 4116 
z
M 2253 4666 
L 3047 4666 
L 3047 1625 
L 3713 1625 
L 3713 1100 
L 3047 1100 
L 3047 0 
L 2419 0 
L 2419 1100 
L 313 1100 
L 313 1709 
L 2253 4666 
z
" transform="scale(0.015625)"/>
        <path id="DejaVuSans-36" d="M 2113 2584 
Q 1688 2584 1439 2293 
Q 1191 2003 1191 1497 
Q 1191 994 1439 701 
Q 1688 409 2113 409 
Q 2538 409 2786 701 
Q 3034 994 3034 1497 
Q 3034 2003 2786 2293 
Q 2538 2584 2113 2584 
z
M 3366 4563 
L 3366 3988 
Q 3128 4100 2886 4159 
Q 2644 4219 2406 4219 
Q 1781 4219 1451 3797 
Q 1122 3375 1075 2522 
Q 1259 2794 1537 2939 
Q 1816 3084 2150 3084 
Q 2853 3084 3261 2657 
Q 3669 2231 3669 1497 
Q 3669 778 3244 343 
Q 2819 -91 2113 -91 
Q 1303 -91 875 529 
Q 447 1150 447 2328 
Q 447 3434 972 4092 
Q 1497 4750 2381 4750 
Q 2619 4750 2861 4703 
Q 3103 4656 3366 4563 
z
" transform="scale(0.015625)"/>
       </defs>
       <use xlink:href="#DejaVuSans-34"/>
       <use xlink:href="#DejaVuSans-36" x="63.623047"/>
       <use xlink:href="#DejaVuSans-30" x="127.246094"/>
      </g>
     </g>
    </g>
    <g id="ytick_2">
     <g id="line2d_8">
      <g>
       <use xlink:href="#m80010c6c42" x="57.6" y="266.223484" style="stroke: #000000; stroke-width: 0.8"/>
      </g>
     </g>
     <g id="text_9">
      <!-- 480 -->
      <g transform="translate(31.5125 270.022703)scale(0.1 -0.1)">
       <defs>
        <path id="DejaVuSans-38" d="M 2034 2216 
Q 1584 2216 1326 1975 
Q 1069 1734 1069 1313 
Q 1069 891 1326 650 
Q 1584 409 2034 409 
Q 2484 409 2743 651 
Q 3003 894 3003 1313 
Q 3003 1734 2745 1975 
Q 2488 2216 2034 2216 
z
M 1403 2484 
Q 997 2584 770 2862 
Q 544 3141 544 3541 
Q 544 4100 942 4425 
Q 1341 4750 2034 4750 
Q 2731 4750 3128 4425 
Q 3525 4100 3525 3541 
Q 3525 3141 3298 2862 
Q 3072 2584 2669 2484 
Q 3125 2378 3379 2068 
Q 3634 1759 3634 1313 
Q 3634 634 3220 271 
Q 2806 -91 2034 -91 
Q 1263 -91 848 271 
Q 434 634 434 1313 
Q 434 1759 690 2068 
Q 947 2378 1403 2484 
z
M 1172 3481 
Q 1172 3119 1398 2916 
Q 1625 2713 2034 2713 
Q 2441 2713 2670 2916 
Q 2900 3119 2900 3481 
Q 2900 3844 2670 4047 
Q 2441 4250 2034 4250 
Q 1625 4250 1398 4047 
Q 1172 3844 1172 3481 
z
" transform="scale(0.015625)"/>
       </defs>
       <use xlink:href="#DejaVuSans-34"/>
       <use xlink:href="#DejaVuSans-38" x="63.623047"/>
       <use xlink:href="#DejaVuSans-30" x="127.246094"/>
      </g>
     </g>
    </g>
    <g id="ytick_3">
     <g id="line2d_9">
      <g>
       <use xlink:href="#m80010c6c42" x="57.6" y="227.204129" style="stroke: #000000; stroke-width: 0.8"/>
      </g>
     </g>
     <g id="text_10">
      <!-- 500 -->
      <g transform="translate(31.5125 231.003348)scale(0.1 -0.1)">
       <use xlink:href="#DejaVuSans-35"/>
       <use xlink:href="#DejaVuSans-30" x="63.623047"/>
       <use xlink:href="#DejaVuSans-30" x="127.246094"/>
      </g>
     </g>
    </g>
    <g id="ytick_4">
     <g id="line2d_10">
      <g>
       <use xlink:href="#m80010c6c42" x="57.6" y="188.184774" style="stroke: #000000; stroke-width: 0.8"/>
      </g>
     </g>
     <g id="text_11">
      <!-- 520 -->
      <g transform="translate(31.5125 191.983993)scale(0.1 -0.1)">
       <use xlink:href="#DejaVuSans-35"/>
       <use xlink:href="#DejaVuSans-32" x="63.623047"/>
       <use xlink:href="#DejaVuSans-30" x="127.246094"/>
      </g>
     </g>
    </g>
    <g id="ytick_5">
     <g id="line2d_11">
      <g>
       <use xlink:href="#m80010c6c42" x="57.6" y="149.165419" style="stroke: #000000; stroke-width: 0.8"/>
      </g>
     </g>
     <g id="text_12">
      <!-- 540 -->
      <g transform="translate(31.5125 152.964638)scale(0.1 -0.1)">
       <use xlink:href="#DejaVuSans-35"/>
       <use xlink:href="#DejaVuSans-34" x="63.623047"/>
       <use xlink:href="#DejaVuSans-30" x="127.246094"/>
      </g>
     </g>
    </g>
    <g id="ytick_6">
     <g id="line2d_12">
      <g>
       <use xlink:href="#m80010c6c42" x="57.6" y="110.146065" style="stroke: #000000; stroke-width: 0.8"/>
      </g>
     </g>
     <g id="text_13">
      <!-- 560 -->
      <g transform="translate(31.5125 113.945283)scale(0.1 -0.1)">
       <use xlink:href="#DejaVuSans-35"/>
       <use xlink:href="#DejaVuSans-36" x="63.623047"/>
       <use xlink:href="#DejaVuSans-30" x="127.246094"/>
      </g>
     </g>
    </g>
    <g id="ytick_7">
     <g id="line2d_13">
      <g>
       <use xlink:href="#m80010c6c42" x="57.6" y="71.12671" style="stroke: #000000; stroke-width: 0.8"/>
      </g>
     </g>
     <g id="text_14">
      <!-- 580 -->
      <g transform="translate(31.5125 74.925928)scale(0.1 -0.1)">
       <use xlink:href="#DejaVuSans-35"/>
       <use xlink:href="#DejaVuSans-38" x="63.623047"/>
       <use xlink:href="#DejaVuSans-30" x="127.246094"/>
      </g>
     </g>
    </g>
    <g id="text_15">
     <!-- total cost -->
     <g transform="translate(25.432812 197.923313)rotate(-90)scale(0.1 -0.1)">
      <defs>
       <path id="DejaVuSans-74" d="M 1172 4494 
L 1172 3500 
L 2356 3500 
L 2356 3053 
L 1172 3053 
L 1172 1153 
Q 1172 725 1289 603 
Q 1406 481 1766 481 
L 2356 481 
L 2356 0 
L 1766 0 
Q 1100 0 847 248 
Q 594 497 594 1153 
L 594 3053 
L 172 3053 
L 172 3500 
L 594 3500 
L 594 4494 
L 1172 4494 
z
" transform="scale(0.015625)"/>
       <path id="DejaVuSans-6f" d="M 1959 3097 
Q 1497 3097 1228 2736 
Q 959 2375 959 1747 
Q 959 1119 1226 758 
Q 1494 397 1959 397 
Q 2419 397 2687 759 
Q 2956 1122 2956 1747 
Q 2956 2369 2687 2733 
Q 2419 3097 1959 3097 
z
M 1959 3584 
Q 2709 3584 3137 3096 
Q 3566 2609 3566 1747 
Q 3566 888 3137 398 
Q 2709 -91 1959 -91 
Q 1206 -91 779 398 
Q 353 888 353 1747 
Q 353 2609 779 3096 
Q 1206 3584 1959 3584 
z
" transform="scale(0.015625)"/>
       <path id="DejaVuSans-6c" d="M 603 4863 
L 1178 4863 
L 1178 0 
L 603 0 
L 603 4863 
z
" transform="scale(0.015625)"/>
       <path id="DejaVuSans-63" d="M 3122 3366 
L 3122 2828 
Q 2878 2963 2633 3030 
Q 2388 3097 2138 3097 
Q 1578 3097 1268 2742 
Q 959 2388 959 1747 
Q 959 1106 1268 751 
Q 1578 397 2138 397 
Q 2388 397 2633 464 
Q 2878 531 3122 666 
L 3122 134 
Q 2881 22 2623 -34 
Q 2366 -91 2075 -91 
Q 1284 -91 818 406 
Q 353 903 353 1747 
Q 353 2603 823 3093 
Q 1294 3584 2113 3584 
Q 2378 3584 2631 3529 
Q 2884 3475 3122 3366 
z
" transform="scale(0.015625)"/>
      </defs>
      <use xlink:href="#DejaVuSans-74"/>
      <use xlink:href="#DejaVuSans-6f" x="39.208984"/>
      <use xlink:href="#DejaVuSans-74" x="100.390625"/>
      <use xlink:href="#DejaVuSans-61" x="139.599609"/>
      <use xlink:href="#DejaVuSans-6c" x="200.878906"/>
      <use xlink:href="#DejaVuSans-20" x="228.662109"/>
      <use xlink:href="#DejaVuSans-63" x="260.449219"/>
      <use xlink:href="#DejaVuSans-6f" x="315.429688"/>
      <use xlink:href="#DejaVuSans-73" x="376.611328"/>
      <use xlink:href="#DejaVuSans-74" x="428.710938"/>
     </g>
    </g>
   </g>
   <g id="line2d_14">
    <path d="M 73.832727 192.08671 
L 74.100373 190.135742 
L 74.368019 180.380903 
L 74.635665 176.478968 
L 75.170957 153.067355 
L 75.438603 168.675097 
L 75.706249 164.773161 
L 75.973895 195.988645 
L 76.241541 172.577032 
L 76.509187 184.282839 
L 76.776833 153.067355 
L 77.044479 139.410581 
L 77.847417 155.018323 
L 78.115063 190.135742 
L 78.382709 170.626065 
L 78.918 158.920258 
L 79.185646 166.724129 
L 79.453292 141.361548 
L 79.720938 166.724129 
L 79.988584 172.577032 
L 80.25623 168.675097 
L 80.523876 160.871226 
L 81.059168 190.135742 
L 81.326814 176.478968 
L 81.59446 190.135742 
L 81.862106 192.08671 
L 82.129752 209.645419 
L 82.397398 211.596387 
L 82.665044 201.841548 
L 82.93269 203.792516 
L 83.200336 215.498323 
L 83.467982 211.596387 
L 83.735628 186.233806 
L 84.003274 184.282839 
L 84.27092 188.184774 
L 84.538566 184.282839 
L 85.073857 158.920258 
L 85.341503 162.822194 
L 85.609149 164.773161 
L 85.876795 170.626065 
L 86.144441 172.577032 
L 86.412087 178.429935 
L 86.679733 166.724129 
L 86.947379 164.773161 
L 87.215025 172.577032 
L 87.482671 174.528 
L 87.750317 178.429935 
L 88.017963 194.037677 
L 88.285609 158.920258 
L 88.553255 151.116387 
L 88.820901 164.773161 
L 89.356193 172.577032 
L 89.623839 166.724129 
L 89.891485 166.724129 
L 90.426777 149.165419 
L 90.694423 160.871226 
L 90.962069 153.067355 
L 91.229714 174.528 
L 91.49736 178.429935 
L 91.765006 164.773161 
L 92.032652 164.773161 
L 92.300298 149.165419 
L 92.83559 172.577032 
L 93.103236 170.626065 
L 93.638528 156.96929 
L 93.906174 143.312516 
L 94.17382 162.822194 
L 94.441466 147.214452 
L 94.709112 151.116387 
L 94.976758 153.067355 
L 95.244404 156.96929 
L 95.51205 156.96929 
L 95.779696 158.920258 
L 96.047342 158.920258 
L 96.314988 164.773161 
L 96.582634 145.263484 
L 96.85028 147.214452 
L 97.117926 135.508645 
L 97.385571 135.508645 
L 97.653217 151.116387 
L 97.920863 141.361548 
L 98.188509 143.312516 
L 98.456155 149.165419 
L 98.723801 143.312516 
L 98.991447 160.871226 
L 99.259093 158.920258 
L 99.526739 149.165419 
L 99.794385 121.851871 
L 100.062031 114.048 
L 100.329677 121.851871 
L 100.597323 110.146065 
L 100.864969 110.146065 
L 101.132615 143.312516 
L 101.400261 133.557677 
L 101.667907 129.655742 
L 101.935553 137.459613 
L 102.738491 90.636387 
L 103.006137 102.342194 
L 103.541428 94.538323 
L 103.809074 82.832516 
L 104.07672 86.734452 
L 104.344366 119.900903 
L 104.879658 147.214452 
L 105.147304 143.312516 
L 105.682596 170.626065 
L 105.950242 174.528 
L 106.217888 188.184774 
L 107.288472 127.704774 
L 107.556118 119.900903 
L 108.359056 153.067355 
L 108.626702 139.410581 
L 109.161994 162.822194 
L 109.697285 158.920258 
L 110.232577 145.263484 
L 110.500223 166.724129 
L 110.767869 170.626065 
L 111.035515 166.724129 
L 111.570807 186.233806 
L 111.838453 192.08671 
L 112.106099 156.96929 
L 112.373745 172.577032 
L 112.641391 172.577032 
L 112.909037 174.528 
L 113.176683 174.528 
L 113.444329 168.675097 
L 113.711975 158.920258 
L 113.979621 160.871226 
L 114.514913 133.557677 
L 114.782559 135.508645 
L 115.050205 153.067355 
L 115.317851 139.410581 
L 115.853142 168.675097 
L 116.120788 141.361548 
L 116.388434 145.263484 
L 116.65608 129.655742 
L 116.923726 131.60671 
L 117.191372 114.048 
L 117.459018 123.802839 
L 117.726664 104.293161 
L 118.261956 115.998968 
L 118.529602 129.655742 
L 118.797248 125.753806 
L 119.064894 135.508645 
L 119.33254 153.067355 
L 119.600186 156.96929 
L 119.867832 164.773161 
L 120.135478 119.900903 
L 120.403124 104.293161 
L 120.67077 127.704774 
L 120.938416 125.753806 
L 121.206062 137.459613 
L 121.473708 158.920258 
L 121.741354 166.724129 
L 122.008999 166.724129 
L 122.276645 155.018323 
L 122.811937 158.920258 
L 123.079583 158.920258 
L 123.882521 182.331871 
L 124.150167 178.429935 
L 124.417813 190.135742 
L 124.685459 180.380903 
L 124.953105 180.380903 
L 125.220751 205.743484 
L 125.488397 195.988645 
L 125.756043 168.675097 
L 126.291335 207.694452 
L 126.558981 201.841548 
L 126.826627 205.743484 
L 127.094273 158.920258 
L 127.361919 156.96929 
L 127.629565 156.96929 
L 127.897211 166.724129 
L 128.164856 149.165419 
L 128.432502 155.018323 
L 128.700148 133.557677 
L 128.967794 151.116387 
L 129.23544 149.165419 
L 129.503086 133.557677 
L 129.770732 129.655742 
L 130.038378 98.440258 
L 130.306024 90.636387 
L 130.57367 86.734452 
L 131.108962 139.410581 
L 131.376608 115.998968 
L 131.644254 125.753806 
L 131.9119 129.655742 
L 132.179546 143.312516 
L 132.447192 172.577032 
L 132.714838 166.724129 
L 132.982484 145.263484 
L 133.517776 141.361548 
L 133.785422 145.263484 
L 134.320713 129.655742 
L 134.588359 147.214452 
L 134.856005 143.312516 
L 135.123651 143.312516 
L 135.391297 156.96929 
L 135.658943 162.822194 
L 136.194235 194.037677 
L 136.461881 188.184774 
L 136.729527 172.577032 
L 136.997173 174.528 
L 137.264819 158.920258 
L 137.532465 164.773161 
L 137.800111 151.116387 
L 138.067757 149.165419 
L 138.335403 151.116387 
L 138.603049 166.724129 
L 139.138341 139.410581 
L 139.405987 158.920258 
L 139.673633 160.871226 
L 139.941279 151.116387 
L 140.208925 149.165419 
L 140.47657 190.135742 
L 141.011862 176.478968 
L 141.279508 188.184774 
L 141.547154 180.380903 
L 141.8148 195.988645 
L 142.350092 211.596387 
L 142.617738 207.694452 
L 143.15303 184.282839 
L 143.420676 176.478968 
L 143.688322 178.429935 
L 143.955968 174.528 
L 144.223614 182.331871 
L 144.49126 180.380903 
L 144.758906 168.675097 
L 145.026552 176.478968 
L 145.294198 162.822194 
L 145.82949 178.429935 
L 146.097136 149.165419 
L 146.364782 141.361548 
L 146.632427 155.018323 
L 147.167719 186.233806 
L 147.435365 170.626065 
L 147.970657 186.233806 
L 148.505949 215.498323 
L 148.773595 221.351226 
L 149.041241 235.008 
L 149.308887 231.106065 
L 149.844179 211.596387 
L 150.111825 207.694452 
L 150.379471 201.841548 
L 150.647117 184.282839 
L 150.914763 180.380903 
L 151.182409 190.135742 
L 151.450055 180.380903 
L 151.717701 178.429935 
L 151.985347 178.429935 
L 152.252993 160.871226 
L 152.520639 151.116387 
L 152.788284 147.214452 
L 153.05593 137.459613 
L 153.591222 156.96929 
L 153.858868 145.263484 
L 154.126514 141.361548 
L 154.39416 141.361548 
L 154.661806 127.704774 
L 154.929452 131.60671 
L 155.197098 145.263484 
L 155.464744 145.263484 
L 155.73239 127.704774 
L 156.000036 149.165419 
L 156.267682 156.96929 
L 156.535328 153.067355 
L 156.802974 153.067355 
L 157.07062 149.165419 
L 157.338266 143.312516 
L 157.605912 160.871226 
L 157.873558 153.067355 
L 158.40885 153.067355 
L 158.676496 180.380903 
L 158.944141 184.282839 
L 159.211787 174.528 
L 159.747079 207.694452 
L 160.014725 174.528 
L 160.282371 186.233806 
L 160.550017 162.822194 
L 160.817663 172.577032 
L 161.085309 203.792516 
L 161.620601 207.694452 
L 161.888247 215.498323 
L 162.155893 197.939613 
L 162.423539 217.44929 
L 162.691185 227.204129 
L 162.958831 225.253161 
L 163.226477 201.841548 
L 163.494123 205.743484 
L 163.761769 178.429935 
L 164.029415 164.773161 
L 164.297061 160.871226 
L 164.832353 168.675097 
L 165.099999 192.08671 
L 165.63529 166.724129 
L 165.902936 129.655742 
L 166.170582 129.655742 
L 166.438228 131.60671 
L 166.97352 147.214452 
L 167.241166 174.528 
L 167.508812 158.920258 
L 167.776458 160.871226 
L 168.044104 168.675097 
L 168.31175 170.626065 
L 168.847042 75.028645 
L 169.114688 53.568 
L 170.452918 155.018323 
L 170.720564 164.773161 
L 170.98821 164.773161 
L 171.255856 156.96929 
L 171.523501 156.96929 
L 171.791147 155.018323 
L 172.594085 127.704774 
L 172.861731 129.655742 
L 173.129377 125.753806 
L 173.397023 149.165419 
L 173.664669 153.067355 
L 173.932315 170.626065 
L 174.199961 207.694452 
L 174.735253 211.596387 
L 175.002899 197.939613 
L 175.270545 207.694452 
L 175.538191 203.792516 
L 175.805837 213.547355 
L 176.073483 203.792516 
L 176.341129 166.724129 
L 176.608775 158.920258 
L 176.876421 164.773161 
L 177.144067 160.871226 
L 177.679358 180.380903 
L 178.21465 162.822194 
L 178.482296 158.920258 
L 178.749942 156.96929 
L 179.017588 166.724129 
L 179.285234 162.822194 
L 179.55288 192.08671 
L 179.820526 201.841548 
L 180.088172 166.724129 
L 180.355818 172.577032 
L 180.89111 205.743484 
L 181.158756 213.547355 
L 181.694048 197.939613 
L 181.961694 178.429935 
L 182.22934 170.626065 
L 182.496986 176.478968 
L 182.764632 160.871226 
L 183.032278 158.920258 
L 183.299924 149.165419 
L 183.56757 119.900903 
L 183.835215 125.753806 
L 184.102861 127.704774 
L 184.370507 123.802839 
L 184.638153 143.312516 
L 184.905799 145.263484 
L 185.173445 155.018323 
L 185.441091 153.067355 
L 185.708737 155.018323 
L 185.976383 115.998968 
L 186.244029 104.293161 
L 186.511675 82.832516 
L 186.779321 90.636387 
L 187.046967 84.783484 
L 187.314613 104.293161 
L 187.582259 135.508645 
L 187.849905 147.214452 
L 188.117551 119.900903 
L 188.385197 123.802839 
L 188.652843 98.440258 
L 189.188135 117.949935 
L 189.455781 114.048 
L 189.723427 112.097032 
L 189.991072 135.508645 
L 190.258718 110.146065 
L 190.526364 106.244129 
L 190.79401 84.783484 
L 191.329302 80.881548 
L 191.596948 75.028645 
L 191.864594 84.783484 
L 192.13224 104.293161 
L 192.399886 100.391226 
L 192.667532 112.097032 
L 192.935178 131.60671 
L 193.202824 139.410581 
L 193.47047 153.067355 
L 193.738116 135.508645 
L 194.005762 158.920258 
L 194.273408 166.724129 
L 194.8087 151.116387 
L 195.343992 172.577032 
L 195.611638 143.312516 
L 195.879284 135.508645 
L 196.146929 145.263484 
L 196.414575 147.214452 
L 196.682221 147.214452 
L 196.949867 145.263484 
L 197.217513 160.871226 
L 197.485159 164.773161 
L 197.752805 133.557677 
L 198.020451 145.263484 
L 198.288097 149.165419 
L 198.555743 135.508645 
L 198.823389 127.704774 
L 199.091035 147.214452 
L 199.358681 137.459613 
L 199.626327 139.410581 
L 199.893973 145.263484 
L 200.161619 141.361548 
L 200.429265 135.508645 
L 200.696911 133.557677 
L 200.964557 141.361548 
L 201.232203 153.067355 
L 201.499849 180.380903 
L 201.767495 160.871226 
L 202.035141 166.724129 
L 202.302786 192.08671 
L 202.570432 166.724129 
L 202.838078 174.528 
L 203.105724 190.135742 
L 203.37337 186.233806 
L 203.641016 178.429935 
L 203.908662 184.282839 
L 204.176308 182.331871 
L 204.443954 195.988645 
L 204.7116 197.939613 
L 204.979246 194.037677 
L 205.246892 186.233806 
L 205.514538 170.626065 
L 205.782184 188.184774 
L 206.04983 180.380903 
L 206.317476 182.331871 
L 206.585122 172.577032 
L 206.852768 209.645419 
L 207.120414 227.204129 
L 207.38806 217.44929 
L 207.655706 233.057032 
L 207.923352 211.596387 
L 208.190998 213.547355 
L 208.458643 192.08671 
L 209.796873 139.410581 
L 210.064519 155.018323 
L 210.332165 158.920258 
L 210.599811 155.018323 
L 210.867457 127.704774 
L 211.135103 141.361548 
L 211.402749 143.312516 
L 211.670395 131.60671 
L 211.938041 129.655742 
L 212.205687 155.018323 
L 212.473333 158.920258 
L 212.740979 166.724129 
L 213.008625 162.822194 
L 213.276271 149.165419 
L 213.543917 162.822194 
L 213.811563 192.08671 
L 214.079209 197.939613 
L 214.346855 197.939613 
L 214.6145 201.841548 
L 214.882146 182.331871 
L 215.149792 194.037677 
L 215.417438 221.351226 
L 215.685084 225.253161 
L 215.95273 211.596387 
L 216.220376 207.694452 
L 216.488022 229.155097 
L 216.755668 217.44929 
L 217.023314 227.204129 
L 217.29096 242.811871 
L 217.826252 233.057032 
L 218.093898 236.958968 
L 218.361544 219.400258 
L 218.62919 217.44929 
L 218.896836 211.596387 
L 219.164482 217.44929 
L 219.432128 233.057032 
L 219.699774 201.841548 
L 220.235066 236.958968 
L 220.502712 246.713806 
L 220.770357 246.713806 
L 221.305649 231.106065 
L 221.573295 229.155097 
L 221.840941 215.498323 
L 222.108587 215.498323 
L 222.376233 211.596387 
L 222.911525 194.037677 
L 223.179171 201.841548 
L 223.446817 205.743484 
L 223.714463 170.626065 
L 223.982109 151.116387 
L 224.249755 155.018323 
L 224.517401 147.214452 
L 224.785047 145.263484 
L 225.052693 145.263484 
L 225.320339 129.655742 
L 225.587985 145.263484 
L 225.855631 141.361548 
L 226.123277 147.214452 
L 226.390923 168.675097 
L 226.658569 172.577032 
L 226.926214 205.743484 
L 227.19386 199.890581 
L 227.729152 225.253161 
L 227.996798 221.351226 
L 228.264444 197.939613 
L 228.53209 192.08671 
L 228.799736 174.528 
L 229.067382 190.135742 
L 229.335028 190.135742 
L 229.87032 221.351226 
L 230.137966 238.909935 
L 230.405612 205.743484 
L 230.673258 213.547355 
L 230.940904 192.08671 
L 231.20855 192.08671 
L 231.476196 215.498323 
L 231.743842 209.645419 
L 232.011488 184.282839 
L 232.279134 197.939613 
L 232.54678 192.08671 
L 232.814426 227.204129 
L 233.082071 213.547355 
L 233.349717 186.233806 
L 233.617363 192.08671 
L 233.885009 192.08671 
L 234.152655 201.841548 
L 234.420301 199.890581 
L 234.955593 215.498323 
L 235.223239 197.939613 
L 235.490885 213.547355 
L 235.758531 197.939613 
L 236.026177 207.694452 
L 236.293823 194.037677 
L 236.561469 209.645419 
L 236.829115 215.498323 
L 237.096761 213.547355 
L 237.364407 174.528 
L 237.899699 184.282839 
L 238.434991 184.282839 
L 238.702637 209.645419 
L 238.970283 209.645419 
L 239.237929 201.841548 
L 239.505574 213.547355 
L 239.77322 219.400258 
L 240.040866 199.890581 
L 240.308512 205.743484 
L 240.576158 219.400258 
L 240.843804 213.547355 
L 241.11145 215.498323 
L 241.379096 194.037677 
L 241.646742 201.841548 
L 241.914388 197.939613 
L 242.44968 160.871226 
L 242.984972 184.282839 
L 243.520264 170.626065 
L 243.78791 166.724129 
L 244.055556 166.724129 
L 244.590848 201.841548 
L 244.858494 199.890581 
L 245.12614 178.429935 
L 245.393786 186.233806 
L 245.661431 174.528 
L 245.929077 180.380903 
L 246.196723 201.841548 
L 246.464369 207.694452 
L 246.732015 197.939613 
L 246.999661 194.037677 
L 247.267307 201.841548 
L 247.534953 195.988645 
L 247.802599 207.694452 
L 248.337891 238.909935 
L 249.140829 223.302194 
L 249.408475 195.988645 
L 249.676121 201.841548 
L 249.943767 201.841548 
L 250.211413 192.08671 
L 250.746705 223.302194 
L 251.014351 225.253161 
L 251.281997 211.596387 
L 251.549643 231.106065 
L 251.817288 219.400258 
L 252.084934 227.204129 
L 252.35258 209.645419 
L 252.620226 205.743484 
L 252.887872 227.204129 
L 253.155518 231.106065 
L 253.423164 262.321548 
L 253.958456 240.860903 
L 254.761394 190.135742 
L 255.02904 174.528 
L 255.296686 168.675097 
L 255.831978 172.577032 
L 256.099624 211.596387 
L 256.36727 174.528 
L 256.902562 205.743484 
L 257.170208 207.694452 
L 257.437854 197.939613 
L 257.7055 194.037677 
L 257.973145 195.988645 
L 258.240791 180.380903 
L 258.508437 190.135742 
L 259.043729 225.253161 
L 259.579021 240.860903 
L 259.846667 238.909935 
L 260.381959 238.909935 
L 260.649605 227.204129 
L 260.917251 233.057032 
L 261.184897 184.282839 
L 261.452543 164.773161 
L 261.720189 155.018323 
L 261.987835 123.802839 
L 262.523127 153.067355 
L 262.790773 119.900903 
L 263.058419 117.949935 
L 263.326065 125.753806 
L 263.593711 123.802839 
L 263.861357 123.802839 
L 264.129002 121.851871 
L 264.396648 131.60671 
L 264.664294 123.802839 
L 264.93194 102.342194 
L 265.199586 121.851871 
L 265.467232 131.60671 
L 265.734878 125.753806 
L 266.002524 133.557677 
L 266.27017 137.459613 
L 266.537816 135.508645 
L 267.073108 186.233806 
L 267.340754 178.429935 
L 267.6084 160.871226 
L 267.876046 197.939613 
L 268.143692 209.645419 
L 268.411338 203.792516 
L 268.678984 194.037677 
L 269.214276 225.253161 
L 269.481922 223.302194 
L 269.749568 225.253161 
L 270.017214 215.498323 
L 270.284859 225.253161 
L 270.552505 213.547355 
L 270.820151 213.547355 
L 271.087797 207.694452 
L 271.355443 195.988645 
L 271.623089 197.939613 
L 271.890735 194.037677 
L 272.158381 197.939613 
L 272.426027 205.743484 
L 272.693673 192.08671 
L 272.961319 207.694452 
L 273.496611 207.694452 
L 273.764257 209.645419 
L 274.031903 223.302194 
L 274.299549 221.351226 
L 274.567195 207.694452 
L 275.102487 233.057032 
L 275.370133 233.057032 
L 276.173071 199.890581 
L 276.440716 192.08671 
L 276.708362 192.08671 
L 276.976008 178.429935 
L 277.243654 151.116387 
L 277.5113 158.920258 
L 277.778946 180.380903 
L 278.046592 172.577032 
L 278.314238 151.116387 
L 278.581884 178.429935 
L 278.84953 180.380903 
L 279.117176 207.694452 
L 279.384822 221.351226 
L 279.652468 213.547355 
L 280.18776 188.184774 
L 280.723052 195.988645 
L 280.990698 225.253161 
L 281.258344 209.645419 
L 281.52599 229.155097 
L 281.793636 225.253161 
L 282.061282 231.106065 
L 282.328928 199.890581 
L 282.864219 219.400258 
L 283.131865 215.498323 
L 283.399511 225.253161 
L 283.667157 213.547355 
L 283.934803 211.596387 
L 284.202449 211.596387 
L 284.470095 207.694452 
L 284.737741 199.890581 
L 285.005387 219.400258 
L 285.808325 170.626065 
L 286.075971 176.478968 
L 286.343617 192.08671 
L 286.611263 192.08671 
L 286.878909 180.380903 
L 287.146555 182.331871 
L 287.414201 213.547355 
L 287.681847 199.890581 
L 287.949493 194.037677 
L 288.217139 205.743484 
L 288.484785 211.596387 
L 288.75243 201.841548 
L 289.020076 213.547355 
L 289.287722 190.135742 
L 289.555368 182.331871 
L 290.09066 213.547355 
L 290.358306 223.302194 
L 291.161244 266.223484 
L 291.42889 264.272516 
L 291.696536 260.370581 
L 291.964182 258.419613 
L 292.231828 250.615742 
L 292.499474 217.44929 
L 292.76712 235.008 
L 293.034766 233.057032 
L 293.302412 246.713806 
L 293.570058 246.713806 
L 293.837704 233.057032 
L 294.10535 195.988645 
L 294.372996 186.233806 
L 294.640642 199.890581 
L 294.908287 199.890581 
L 295.175933 209.645419 
L 295.443579 211.596387 
L 295.711225 209.645419 
L 296.246517 236.958968 
L 296.514163 235.008 
L 297.049455 215.498323 
L 297.317101 197.939613 
L 297.584747 192.08671 
L 298.120039 199.890581 
L 298.655331 174.528 
L 298.922977 174.528 
L 299.190623 166.724129 
L 299.458269 172.577032 
L 299.725915 172.577032 
L 300.261207 195.988645 
L 300.528853 188.184774 
L 300.796499 207.694452 
L 301.33179 178.429935 
L 301.599436 184.282839 
L 301.867082 176.478968 
L 302.402374 149.165419 
L 302.67002 162.822194 
L 302.937666 129.655742 
L 303.205312 133.557677 
L 303.472958 123.802839 
L 303.740604 123.802839 
L 304.00825 129.655742 
L 304.543542 129.655742 
L 304.811188 133.557677 
L 305.34648 174.528 
L 305.614126 170.626065 
L 305.881772 190.135742 
L 306.149418 176.478968 
L 306.417064 182.331871 
L 306.68471 170.626065 
L 306.952356 168.675097 
L 307.487647 168.675097 
L 307.755293 147.214452 
L 308.022939 170.626065 
L 308.290585 211.596387 
L 308.558231 203.792516 
L 308.825877 192.08671 
L 309.361169 203.792516 
L 309.628815 182.331871 
L 309.896461 211.596387 
L 310.164107 219.400258 
L 310.431753 223.302194 
L 310.699399 219.400258 
L 310.967045 221.351226 
L 311.234691 229.155097 
L 311.769983 233.057032 
L 312.037629 250.615742 
L 312.305275 240.860903 
L 312.572921 246.713806 
L 312.840567 258.419613 
L 313.108213 254.517677 
L 313.643504 238.909935 
L 313.91115 235.008 
L 314.178796 229.155097 
L 314.446442 207.694452 
L 314.714088 215.498323 
L 314.981734 197.939613 
L 315.24938 203.792516 
L 315.517026 205.743484 
L 315.784672 221.351226 
L 316.052318 201.841548 
L 316.319964 195.988645 
L 317.122902 233.057032 
L 317.390548 225.253161 
L 317.658194 225.253161 
L 317.92584 217.44929 
L 318.193486 205.743484 
L 318.728778 229.155097 
L 318.996424 233.057032 
L 319.26407 219.400258 
L 320.067007 235.008 
L 320.334653 217.44929 
L 320.602299 215.498323 
L 320.869945 242.811871 
L 321.137591 246.713806 
L 322.475821 192.08671 
L 322.743467 168.675097 
L 323.011113 158.920258 
L 323.278759 158.920258 
L 323.814051 129.655742 
L 324.616989 145.263484 
L 325.152281 141.361548 
L 325.419927 151.116387 
L 325.687573 155.018323 
L 325.955218 180.380903 
L 326.49051 197.939613 
L 326.758156 194.037677 
L 327.025802 178.429935 
L 327.293448 194.037677 
L 327.561094 197.939613 
L 327.82874 186.233806 
L 328.096386 190.135742 
L 328.631678 178.429935 
L 328.899324 201.841548 
L 329.16697 205.743484 
L 329.434616 192.08671 
L 329.702262 197.939613 
L 329.969908 190.135742 
L 330.237554 207.694452 
L 330.5052 192.08671 
L 330.772846 205.743484 
L 331.040492 201.841548 
L 331.308138 215.498323 
L 331.575784 217.44929 
L 332.111075 217.44929 
L 332.378721 225.253161 
L 332.646367 244.762839 
L 332.914013 223.302194 
L 333.181659 221.351226 
L 333.449305 205.743484 
L 333.716951 197.939613 
L 333.984597 227.204129 
L 334.252243 223.302194 
L 335.055181 248.664774 
L 335.322827 238.909935 
L 335.590473 221.351226 
L 335.858119 252.56671 
L 336.125765 262.321548 
L 336.393411 262.321548 
L 336.661057 258.419613 
L 336.928703 256.468645 
L 337.196349 244.762839 
L 337.463995 264.272516 
L 337.731641 262.321548 
L 338.266932 236.958968 
L 338.534578 254.517677 
L 338.802224 233.057032 
L 339.06987 231.106065 
L 339.337516 195.988645 
L 339.605162 205.743484 
L 340.140454 209.645419 
L 340.4081 246.713806 
L 340.675746 248.664774 
L 340.943392 231.106065 
L 341.211038 205.743484 
L 341.478684 225.253161 
L 341.74633 195.988645 
L 342.013976 194.037677 
L 343.08456 215.498323 
L 343.352206 211.596387 
L 343.619852 203.792516 
L 344.422789 219.400258 
L 344.958081 219.400258 
L 345.225727 215.498323 
L 345.493373 219.400258 
L 345.761019 225.253161 
L 346.028665 207.694452 
L 346.296311 215.498323 
L 346.831603 252.56671 
L 347.099249 254.517677 
L 347.366895 254.517677 
L 347.634541 272.076387 
L 347.902187 266.223484 
L 348.169833 248.664774 
L 348.705125 225.253161 
L 349.240417 235.008 
L 349.508063 238.909935 
L 349.775709 240.860903 
L 350.043355 233.057032 
L 350.311001 248.664774 
L 350.578646 225.253161 
L 350.846292 219.400258 
L 351.113938 209.645419 
L 351.381584 211.596387 
L 351.64923 233.057032 
L 351.916876 231.106065 
L 352.184522 236.958968 
L 352.452168 211.596387 
L 352.719814 233.057032 
L 352.98746 236.958968 
L 353.255106 223.302194 
L 353.522752 235.008 
L 353.790398 233.057032 
L 354.058044 229.155097 
L 354.860982 246.713806 
L 355.128628 238.909935 
L 355.396274 227.204129 
L 355.66392 227.204129 
L 356.199212 213.547355 
L 356.466858 199.890581 
L 356.734503 197.939613 
L 357.002149 207.694452 
L 357.269795 209.645419 
L 357.537441 213.547355 
L 357.805087 219.400258 
L 358.072733 246.713806 
L 358.340379 235.008 
L 358.875671 242.811871 
L 359.143317 244.762839 
L 359.678609 221.351226 
L 359.946255 213.547355 
L 360.213901 209.645419 
L 360.481547 217.44929 
L 360.749193 215.498323 
L 361.016839 217.44929 
L 361.284485 236.958968 
L 361.552131 246.713806 
L 361.819777 250.615742 
L 362.087423 240.860903 
L 362.355069 248.664774 
L 362.622715 236.958968 
L 362.89036 262.321548 
L 363.425652 289.635097 
L 363.693298 281.831226 
L 363.960944 295.488 
L 364.496236 295.488 
L 364.763882 291.586065 
L 365.031528 283.782194 
L 365.299174 244.762839 
L 365.56682 225.253161 
L 365.834466 219.400258 
L 366.369758 227.204129 
L 366.637404 235.008 
L 366.90505 221.351226 
L 367.172696 197.939613 
L 367.440342 225.253161 
L 367.707988 236.958968 
L 367.975634 238.909935 
L 368.510926 235.008 
L 368.778572 242.811871 
L 369.046217 236.958968 
L 369.313863 250.615742 
L 369.849155 258.419613 
L 370.116801 254.517677 
L 370.384447 246.713806 
L 370.652093 248.664774 
L 371.187385 248.664774 
L 371.455031 264.272516 
L 371.722677 266.223484 
L 371.990323 258.419613 
L 372.525615 235.008 
L 372.793261 240.860903 
L 373.060907 260.370581 
L 373.596199 275.978323 
L 373.863845 291.586065 
L 374.131491 285.733161 
L 374.399137 272.076387 
L 374.666783 272.076387 
L 374.934429 258.419613 
L 375.46972 258.419613 
L 375.737366 242.811871 
L 376.005012 244.762839 
L 376.272658 199.890581 
L 376.540304 190.135742 
L 376.80795 172.577032 
L 377.075596 174.528 
L 377.610888 194.037677 
L 377.878534 194.037677 
L 378.413826 213.547355 
L 378.681472 205.743484 
L 378.949118 227.204129 
L 379.216764 219.400258 
L 379.48441 223.302194 
L 379.752056 203.792516 
L 380.019702 227.204129 
L 380.287348 235.008 
L 380.554994 238.909935 
L 380.82264 221.351226 
L 381.090286 195.988645 
L 381.357931 211.596387 
L 381.625577 215.498323 
L 381.893223 211.596387 
L 382.160869 227.204129 
L 382.428515 213.547355 
L 382.696161 221.351226 
L 382.963807 217.44929 
L 383.231453 227.204129 
L 383.499099 219.400258 
L 383.766745 205.743484 
L 384.034391 225.253161 
L 384.302037 221.351226 
L 384.569683 209.645419 
L 384.837329 213.547355 
L 385.104975 197.939613 
L 385.372621 209.645419 
L 385.640267 207.694452 
L 385.907913 227.204129 
L 386.175559 219.400258 
L 386.443205 194.037677 
L 386.710851 213.547355 
L 386.978497 205.743484 
L 387.246143 203.792516 
L 387.513789 207.694452 
L 387.781434 209.645419 
L 388.04908 213.547355 
L 388.316726 192.08671 
L 388.584372 203.792516 
L 388.852018 182.331871 
L 389.119664 180.380903 
L 389.38731 182.331871 
L 389.654956 180.380903 
L 389.922602 190.135742 
L 390.190248 188.184774 
L 390.457894 192.08671 
L 390.993186 178.429935 
L 391.260832 176.478968 
L 391.528478 213.547355 
L 391.796124 194.037677 
L 392.866708 250.615742 
L 393.134354 236.958968 
L 393.669646 236.958968 
L 393.937291 227.204129 
L 394.204937 235.008 
L 394.472583 231.106065 
L 394.740229 229.155097 
L 395.007875 221.351226 
L 395.275521 207.694452 
L 395.543167 209.645419 
L 395.810813 209.645419 
L 396.078459 213.547355 
L 396.613751 246.713806 
L 396.881397 225.253161 
L 397.149043 235.008 
L 397.684335 231.106065 
L 398.219627 197.939613 
L 398.487273 192.08671 
L 398.487273 192.08671 
" clip-path="url(#p1487daf123)" style="fill: none; stroke: #1f77b4; stroke-width: 1.5; stroke-linecap: square"/>
   </g>
   <g id="patch_3">
    <path d="M 57.6 307.584 
L 57.6 41.472 
" style="fill: none; stroke: #000000; stroke-width: 0.8; stroke-linejoin: miter; stroke-linecap: square"/>
   </g>
   <g id="patch_4">
    <path d="M 414.72 307.584 
L 414.72 41.472 
" style="fill: none; stroke: #000000; stroke-width: 0.8; stroke-linejoin: miter; stroke-linecap: square"/>
   </g>
   <g id="patch_5">
    <path d="M 57.6 307.584 
L 414.72 307.584 
" style="fill: none; stroke: #000000; stroke-width: 0.8; stroke-linejoin: miter; stroke-linecap: square"/>
   </g>
   <g id="patch_6">
    <path d="M 57.6 41.472 
L 414.72 41.472 
" style="fill: none; stroke: #000000; stroke-width: 0.8; stroke-linejoin: miter; stroke-linecap: square"/>
   </g>
   <g id="text_16">
    <!-- Simulated Anealling Cost -->
    <g transform="translate(160.8 35.472)scale(0.12 -0.12)">
     <defs>
      <path id="DejaVuSans-53" d="M 3425 4513 
L 3425 3897 
Q 3066 4069 2747 4153 
Q 2428 4238 2131 4238 
Q 1616 4238 1336 4038 
Q 1056 3838 1056 3469 
Q 1056 3159 1242 3001 
Q 1428 2844 1947 2747 
L 2328 2669 
Q 3034 2534 3370 2195 
Q 3706 1856 3706 1288 
Q 3706 609 3251 259 
Q 2797 -91 1919 -91 
Q 1588 -91 1214 -16 
Q 841 59 441 206 
L 441 856 
Q 825 641 1194 531 
Q 1563 422 1919 422 
Q 2459 422 2753 634 
Q 3047 847 3047 1241 
Q 3047 1584 2836 1778 
Q 2625 1972 2144 2069 
L 1759 2144 
Q 1053 2284 737 2584 
Q 422 2884 422 3419 
Q 422 4038 858 4394 
Q 1294 4750 2059 4750 
Q 2388 4750 2728 4690 
Q 3069 4631 3425 4513 
z
" transform="scale(0.015625)"/>
      <path id="DejaVuSans-69" d="M 603 3500 
L 1178 3500 
L 1178 0 
L 603 0 
L 603 3500 
z
M 603 4863 
L 1178 4863 
L 1178 4134 
L 603 4134 
L 603 4863 
z
" transform="scale(0.015625)"/>
      <path id="DejaVuSans-65" d="M 3597 1894 
L 3597 1613 
L 953 1613 
Q 991 1019 1311 708 
Q 1631 397 2203 397 
Q 2534 397 2845 478 
Q 3156 559 3463 722 
L 3463 178 
Q 3153 47 2828 -22 
Q 2503 -91 2169 -91 
Q 1331 -91 842 396 
Q 353 884 353 1716 
Q 353 2575 817 3079 
Q 1281 3584 2069 3584 
Q 2775 3584 3186 3129 
Q 3597 2675 3597 1894 
z
M 3022 2063 
Q 3016 2534 2758 2815 
Q 2500 3097 2075 3097 
Q 1594 3097 1305 2825 
Q 1016 2553 972 2059 
L 3022 2063 
z
" transform="scale(0.015625)"/>
      <path id="DejaVuSans-64" d="M 2906 2969 
L 2906 4863 
L 3481 4863 
L 3481 0 
L 2906 0 
L 2906 525 
Q 2725 213 2448 61 
Q 2172 -91 1784 -91 
Q 1150 -91 751 415 
Q 353 922 353 1747 
Q 353 2572 751 3078 
Q 1150 3584 1784 3584 
Q 2172 3584 2448 3432 
Q 2725 3281 2906 2969 
z
M 947 1747 
Q 947 1113 1208 752 
Q 1469 391 1925 391 
Q 2381 391 2643 752 
Q 2906 1113 2906 1747 
Q 2906 2381 2643 2742 
Q 2381 3103 1925 3103 
Q 1469 3103 1208 2742 
Q 947 2381 947 1747 
z
" transform="scale(0.015625)"/>
      <path id="DejaVuSans-41" d="M 2188 4044 
L 1331 1722 
L 3047 1722 
L 2188 4044 
z
M 1831 4666 
L 2547 4666 
L 4325 0 
L 3669 0 
L 3244 1197 
L 1141 1197 
L 716 0 
L 50 0 
L 1831 4666 
z
" transform="scale(0.015625)"/>
      <path id="DejaVuSans-67" d="M 2906 1791 
Q 2906 2416 2648 2759 
Q 2391 3103 1925 3103 
Q 1463 3103 1205 2759 
Q 947 2416 947 1791 
Q 947 1169 1205 825 
Q 1463 481 1925 481 
Q 2391 481 2648 825 
Q 2906 1169 2906 1791 
z
M 3481 434 
Q 3481 -459 3084 -895 
Q 2688 -1331 1869 -1331 
Q 1566 -1331 1297 -1286 
Q 1028 -1241 775 -1147 
L 775 -588 
Q 1028 -725 1275 -790 
Q 1522 -856 1778 -856 
Q 2344 -856 2625 -561 
Q 2906 -266 2906 331 
L 2906 616 
Q 2728 306 2450 153 
Q 2172 0 1784 0 
Q 1141 0 747 490 
Q 353 981 353 1791 
Q 353 2603 747 3093 
Q 1141 3584 1784 3584 
Q 2172 3584 2450 3431 
Q 2728 3278 2906 2969 
L 2906 3500 
L 3481 3500 
L 3481 434 
z
" transform="scale(0.015625)"/>
      <path id="DejaVuSans-43" d="M 4122 4306 
L 4122 3641 
Q 3803 3938 3442 4084 
Q 3081 4231 2675 4231 
Q 1875 4231 1450 3742 
Q 1025 3253 1025 2328 
Q 1025 1406 1450 917 
Q 1875 428 2675 428 
Q 3081 428 3442 575 
Q 3803 722 4122 1019 
L 4122 359 
Q 3791 134 3420 21 
Q 3050 -91 2638 -91 
Q 1578 -91 968 557 
Q 359 1206 359 2328 
Q 359 3453 968 4101 
Q 1578 4750 2638 4750 
Q 3056 4750 3426 4639 
Q 3797 4528 4122 4306 
z
" transform="scale(0.015625)"/>
     </defs>
     <use xlink:href="#DejaVuSans-53"/>
     <use xlink:href="#DejaVuSans-69" x="63.476562"/>
     <use xlink:href="#DejaVuSans-6d" x="91.259766"/>
     <use xlink:href="#DejaVuSans-75" x="188.671875"/>
     <use xlink:href="#DejaVuSans-6c" x="252.050781"/>
     <use xlink:href="#DejaVuSans-61" x="279.833984"/>
     <use xlink:href="#DejaVuSans-74" x="341.113281"/>
     <use xlink:href="#DejaVuSans-65" x="380.322266"/>
     <use xlink:href="#DejaVuSans-64" x="441.845703"/>
     <use xlink:href="#DejaVuSans-20" x="505.322266"/>
     <use xlink:href="#DejaVuSans-41" x="537.109375"/>
     <use xlink:href="#DejaVuSans-6e" x="605.517578"/>
     <use xlink:href="#DejaVuSans-65" x="668.896484"/>
     <use xlink:href="#DejaVuSans-61" x="730.419922"/>
     <use xlink:href="#DejaVuSans-6c" x="791.699219"/>
     <use xlink:href="#DejaVuSans-6c" x="819.482422"/>
     <use xlink:href="#DejaVuSans-69" x="847.265625"/>
     <use xlink:href="#DejaVuSans-6e" x="875.048828"/>
     <use xlink:href="#DejaVuSans-67" x="938.427734"/>
     <use xlink:href="#DejaVuSans-20" x="1001.904297"/>
     <use xlink:href="#DejaVuSans-43" x="1033.691406"/>
     <use xlink:href="#DejaVuSans-6f" x="1103.515625"/>
     <use xlink:href="#DejaVuSans-73" x="1164.697266"/>
     <use xlink:href="#DejaVuSans-74" x="1216.796875"/>
    </g>
   </g>
  </g>
 </g>
 <defs>
  <clipPath id="p1487daf123">
   <rect x="57.6" y="41.472" width="357.12" height="266.112"/>
  </clipPath>
 </defs>
</svg>
