<?xml version="1.0" encoding="utf-8" standalone="no"?>
<!DOCTYPE svg PUBLIC "-//W3C//DTD SVG 1.1//EN"
  "http://www.w3.org/Graphics/SVG/1.1/DTD/svg11.dtd">
<svg xmlns:xlink="http://www.w3.org/1999/xlink" width="460.8pt" height="345.6pt" viewBox="0 0 460.8 345.6" xmlns="http://www.w3.org/2000/svg" version="1.1">
 <metadata>
  <rdf:RDF xmlns:dc="http://purl.org/dc/elements/1.1/" xmlns:cc="http://creativecommons.org/ns#" xmlns:rdf="http://www.w3.org/1999/02/22-rdf-syntax-ns#">
   <cc:Work>
    <dc:type rdf:resource="http://purl.org/dc/dcmitype/StillImage"/>
    <dc:date>2022-06-01T08:04:04.337139</dc:date>
    <dc:format>image/svg+xml</dc:format>
    <dc:creator>
     <cc:Agent>
      <dc:title>Matplotlib v3.5.1, https://matplotlib.org/</dc:title>
     </cc:Agent>
    </dc:creator>
   </cc:Work>
  </rdf:RDF>
 </metadata>
 <defs>
  <style type="text/css">*{stroke-linejoin: round; stroke-linecap: butt}</style>
 </defs>
 <g id="figure_1">
  <g id="patch_1">
   <path d="M 0 345.6 
L 460.8 345.6 
L 460.8 0 
L 0 0 
z
" style="fill: #ffffff"/>
  </g>
  <g id="axes_1">
   <g id="patch_2">
    <path d="M 57.6 307.584 
L 414.72 307.584 
L 414.72 41.472 
L 57.6 41.472 
z
" style="fill: #ffffff"/>
   </g>
   <g id="matplotlib.axis_1">
    <g id="xtick_1">
     <g id="line2d_1">
      <defs>
       <path id="md2110ea184" d="M 0 0 
L 0 3.5 
" style="stroke: #000000; stroke-width: 0.8"/>
      </defs>
      <g>
       <use xlink:href="#md2110ea184" x="73.832727" y="307.584" style="stroke: #000000; stroke-width: 0.8"/>
      </g>
     </g>
     <g id="text_1">
      <!-- 0 -->
      <g transform="translate(70.651477 322.182437)scale(0.1 -0.1)">
       <defs>
        <path id="DejaVuSans-30" d="M 2034 4250 
Q 1547 4250 1301 3770 
Q 1056 3291 1056 2328 
Q 1056 1369 1301 889 
Q 1547 409 2034 409 
Q 2525 409 2770 889 
Q 3016 1369 3016 2328 
Q 3016 3291 2770 3770 
Q 2525 4250 2034 4250 
z
M 2034 4750 
Q 2819 4750 3233 4129 
Q 3647 3509 3647 2328 
Q 3647 1150 3233 529 
Q 2819 -91 2034 -91 
Q 1250 -91 836 529 
Q 422 1150 422 2328 
Q 422 3509 836 4129 
Q 1250 4750 2034 4750 
z
" transform="scale(0.015625)"/>
       </defs>
       <use xlink:href="#DejaVuSans-30"/>
      </g>
     </g>
    </g>
    <g id="xtick_2">
     <g id="line2d_2">
      <g>
       <use xlink:href="#md2110ea184" x="148.637922" y="307.584" style="stroke: #000000; stroke-width: 0.8"/>
      </g>
     </g>
     <g id="text_2">
      <!-- 500 -->
      <g transform="translate(139.094172 322.182437)scale(0.1 -0.1)">
       <defs>
        <path id="DejaVuSans-35" d="M 691 4666 
L 3169 4666 
L 3169 4134 
L 1269 4134 
L 1269 2991 
Q 1406 3038 1543 3061 
Q 1681 3084 1819 3084 
Q 2600 3084 3056 2656 
Q 3513 2228 3513 1497 
Q 3513 744 3044 326 
Q 2575 -91 1722 -91 
Q 1428 -91 1123 -41 
Q 819 9 494 109 
L 494 744 
Q 775 591 1075 516 
Q 1375 441 1709 441 
Q 2250 441 2565 725 
Q 2881 1009 2881 1497 
Q 2881 1984 2565 2268 
Q 2250 2553 1709 2553 
Q 1456 2553 1204 2497 
Q 953 2441 691 2322 
L 691 4666 
z
" transform="scale(0.015625)"/>
       </defs>
       <use xlink:href="#DejaVuSans-35"/>
       <use xlink:href="#DejaVuSans-30" x="63.623047"/>
       <use xlink:href="#DejaVuSans-30" x="127.246094"/>
      </g>
     </g>
    </g>
    <g id="xtick_3">
     <g id="line2d_3">
      <g>
       <use xlink:href="#md2110ea184" x="223.443117" y="307.584" style="stroke: #000000; stroke-width: 0.8"/>
      </g>
     </g>
     <g id="text_3">
      <!-- 1000 -->
      <g transform="translate(210.718117 322.182437)scale(0.1 -0.1)">
       <defs>
        <path id="DejaVuSans-31" d="M 794 531 
L 1825 531 
L 1825 4091 
L 703 3866 
L 703 4441 
L 1819 4666 
L 2450 4666 
L 2450 531 
L 3481 531 
L 3481 0 
L 794 0 
L 794 531 
z
" transform="scale(0.015625)"/>
       </defs>
       <use xlink:href="#DejaVuSans-31"/>
       <use xlink:href="#DejaVuSans-30" x="63.623047"/>
       <use xlink:href="#DejaVuSans-30" x="127.246094"/>
       <use xlink:href="#DejaVuSans-30" x="190.869141"/>
      </g>
     </g>
    </g>
    <g id="xtick_4">
     <g id="line2d_4">
      <g>
       <use xlink:href="#md2110ea184" x="298.248312" y="307.584" style="stroke: #000000; stroke-width: 0.8"/>
      </g>
     </g>
     <g id="text_4">
      <!-- 1500 -->
      <g transform="translate(285.523312 322.182437)scale(0.1 -0.1)">
       <use xlink:href="#DejaVuSans-31"/>
       <use xlink:href="#DejaVuSans-35" x="63.623047"/>
       <use xlink:href="#DejaVuSans-30" x="127.246094"/>
       <use xlink:href="#DejaVuSans-30" x="190.869141"/>
      </g>
     </g>
    </g>
    <g id="xtick_5">
     <g id="line2d_5">
      <g>
       <use xlink:href="#md2110ea184" x="373.053506" y="307.584" style="stroke: #000000; stroke-width: 0.8"/>
      </g>
     </g>
     <g id="text_5">
      <!-- 2000 -->
      <g transform="translate(360.328506 322.182437)scale(0.1 -0.1)">
       <defs>
        <path id="DejaVuSans-32" d="M 1228 531 
L 3431 531 
L 3431 0 
L 469 0 
L 469 531 
Q 828 903 1448 1529 
Q 2069 2156 2228 2338 
Q 2531 2678 2651 2914 
Q 2772 3150 2772 3378 
Q 2772 3750 2511 3984 
Q 2250 4219 1831 4219 
Q 1534 4219 1204 4116 
Q 875 4013 500 3803 
L 500 4441 
Q 881 4594 1212 4672 
Q 1544 4750 1819 4750 
Q 2544 4750 2975 4387 
Q 3406 4025 3406 3419 
Q 3406 3131 3298 2873 
Q 3191 2616 2906 2266 
Q 2828 2175 2409 1742 
Q 1991 1309 1228 531 
z
" transform="scale(0.015625)"/>
       </defs>
       <use xlink:href="#DejaVuSans-32"/>
       <use xlink:href="#DejaVuSans-30" x="63.623047"/>
       <use xlink:href="#DejaVuSans-30" x="127.246094"/>
       <use xlink:href="#DejaVuSans-30" x="190.869141"/>
      </g>
     </g>
    </g>
    <g id="text_6">
     <!-- num swaps -->
     <g transform="translate(207.826406 335.860562)scale(0.1 -0.1)">
      <defs>
       <path id="DejaVuSans-6e" d="M 3513 2113 
L 3513 0 
L 2938 0 
L 2938 2094 
Q 2938 2591 2744 2837 
Q 2550 3084 2163 3084 
Q 1697 3084 1428 2787 
Q 1159 2491 1159 1978 
L 1159 0 
L 581 0 
L 581 3500 
L 1159 3500 
L 1159 2956 
Q 1366 3272 1645 3428 
Q 1925 3584 2291 3584 
Q 2894 3584 3203 3211 
Q 3513 2838 3513 2113 
z
" transform="scale(0.015625)"/>
       <path id="DejaVuSans-75" d="M 544 1381 
L 544 3500 
L 1119 3500 
L 1119 1403 
Q 1119 906 1312 657 
Q 1506 409 1894 409 
Q 2359 409 2629 706 
Q 2900 1003 2900 1516 
L 2900 3500 
L 3475 3500 
L 3475 0 
L 2900 0 
L 2900 538 
Q 2691 219 2414 64 
Q 2138 -91 1772 -91 
Q 1169 -91 856 284 
Q 544 659 544 1381 
z
M 1991 3584 
L 1991 3584 
z
" transform="scale(0.015625)"/>
       <path id="DejaVuSans-6d" d="M 3328 2828 
Q 3544 3216 3844 3400 
Q 4144 3584 4550 3584 
Q 5097 3584 5394 3201 
Q 5691 2819 5691 2113 
L 5691 0 
L 5113 0 
L 5113 2094 
Q 5113 2597 4934 2840 
Q 4756 3084 4391 3084 
Q 3944 3084 3684 2787 
Q 3425 2491 3425 1978 
L 3425 0 
L 2847 0 
L 2847 2094 
Q 2847 2600 2669 2842 
Q 2491 3084 2119 3084 
Q 1678 3084 1418 2786 
Q 1159 2488 1159 1978 
L 1159 0 
L 581 0 
L 581 3500 
L 1159 3500 
L 1159 2956 
Q 1356 3278 1631 3431 
Q 1906 3584 2284 3584 
Q 2666 3584 2933 3390 
Q 3200 3197 3328 2828 
z
" transform="scale(0.015625)"/>
       <path id="DejaVuSans-20" transform="scale(0.015625)"/>
       <path id="DejaVuSans-73" d="M 2834 3397 
L 2834 2853 
Q 2591 2978 2328 3040 
Q 2066 3103 1784 3103 
Q 1356 3103 1142 2972 
Q 928 2841 928 2578 
Q 928 2378 1081 2264 
Q 1234 2150 1697 2047 
L 1894 2003 
Q 2506 1872 2764 1633 
Q 3022 1394 3022 966 
Q 3022 478 2636 193 
Q 2250 -91 1575 -91 
Q 1294 -91 989 -36 
Q 684 19 347 128 
L 347 722 
Q 666 556 975 473 
Q 1284 391 1588 391 
Q 1994 391 2212 530 
Q 2431 669 2431 922 
Q 2431 1156 2273 1281 
Q 2116 1406 1581 1522 
L 1381 1569 
Q 847 1681 609 1914 
Q 372 2147 372 2553 
Q 372 3047 722 3315 
Q 1072 3584 1716 3584 
Q 2034 3584 2315 3537 
Q 2597 3491 2834 3397 
z
" transform="scale(0.015625)"/>
       <path id="DejaVuSans-77" d="M 269 3500 
L 844 3500 
L 1563 769 
L 2278 3500 
L 2956 3500 
L 3675 769 
L 4391 3500 
L 4966 3500 
L 4050 0 
L 3372 0 
L 2619 2869 
L 1863 0 
L 1184 0 
L 269 3500 
z
" transform="scale(0.015625)"/>
       <path id="DejaVuSans-61" d="M 2194 1759 
Q 1497 1759 1228 1600 
Q 959 1441 959 1056 
Q 959 750 1161 570 
Q 1363 391 1709 391 
Q 2188 391 2477 730 
Q 2766 1069 2766 1631 
L 2766 1759 
L 2194 1759 
z
M 3341 1997 
L 3341 0 
L 2766 0 
L 2766 531 
Q 2569 213 2275 61 
Q 1981 -91 1556 -91 
Q 1019 -91 701 211 
Q 384 513 384 1019 
Q 384 1609 779 1909 
Q 1175 2209 1959 2209 
L 2766 2209 
L 2766 2266 
Q 2766 2663 2505 2880 
Q 2244 3097 1772 3097 
Q 1472 3097 1187 3025 
Q 903 2953 641 2809 
L 641 3341 
Q 956 3463 1253 3523 
Q 1550 3584 1831 3584 
Q 2591 3584 2966 3190 
Q 3341 2797 3341 1997 
z
" transform="scale(0.015625)"/>
       <path id="DejaVuSans-70" d="M 1159 525 
L 1159 -1331 
L 581 -1331 
L 581 3500 
L 1159 3500 
L 1159 2969 
Q 1341 3281 1617 3432 
Q 1894 3584 2278 3584 
Q 2916 3584 3314 3078 
Q 3713 2572 3713 1747 
Q 3713 922 3314 415 
Q 2916 -91 2278 -91 
Q 1894 -91 1617 61 
Q 1341 213 1159 525 
z
M 3116 1747 
Q 3116 2381 2855 2742 
Q 2594 3103 2138 3103 
Q 1681 3103 1420 2742 
Q 1159 2381 1159 1747 
Q 1159 1113 1420 752 
Q 1681 391 2138 391 
Q 2594 391 2855 752 
Q 3116 1113 3116 1747 
z
" transform="scale(0.015625)"/>
      </defs>
      <use xlink:href="#DejaVuSans-6e"/>
      <use xlink:href="#DejaVuSans-75" x="63.378906"/>
      <use xlink:href="#DejaVuSans-6d" x="126.757812"/>
      <use xlink:href="#DejaVuSans-20" x="224.169922"/>
      <use xlink:href="#DejaVuSans-73" x="255.957031"/>
      <use xlink:href="#DejaVuSans-77" x="308.056641"/>
      <use xlink:href="#DejaVuSans-61" x="389.84375"/>
      <use xlink:href="#DejaVuSans-70" x="451.123047"/>
      <use xlink:href="#DejaVuSans-73" x="514.599609"/>
     </g>
    </g>
   </g>
   <g id="matplotlib.axis_2">
    <g id="ytick_1">
     <g id="line2d_6">
      <defs>
       <path id="mfdb6bd1192" d="M 0 0 
L -3.5 0 
" style="stroke: #000000; stroke-width: 0.8"/>
      </defs>
      <g>
       <use xlink:href="#mfdb6bd1192" x="57.6" y="286.528" style="stroke: #000000; stroke-width: 0.8"/>
      </g>
     </g>
     <g id="text_7">
      <!-- 500 -->
      <g transform="translate(31.5125 290.327219)scale(0.1 -0.1)">
       <use xlink:href="#DejaVuSans-35"/>
       <use xlink:href="#DejaVuSans-30" x="63.623047"/>
       <use xlink:href="#DejaVuSans-30" x="127.246094"/>
      </g>
     </g>
    </g>
    <g id="ytick_2">
     <g id="line2d_7">
      <g>
       <use xlink:href="#mfdb6bd1192" x="57.6" y="241.728" style="stroke: #000000; stroke-width: 0.8"/>
      </g>
     </g>
     <g id="text_8">
      <!-- 520 -->
      <g transform="translate(31.5125 245.527219)scale(0.1 -0.1)">
       <use xlink:href="#DejaVuSans-35"/>
       <use xlink:href="#DejaVuSans-32" x="63.623047"/>
       <use xlink:href="#DejaVuSans-30" x="127.246094"/>
      </g>
     </g>
    </g>
    <g id="ytick_3">
     <g id="line2d_8">
      <g>
       <use xlink:href="#mfdb6bd1192" x="57.6" y="196.928" style="stroke: #000000; stroke-width: 0.8"/>
      </g>
     </g>
     <g id="text_9">
      <!-- 540 -->
      <g transform="translate(31.5125 200.727219)scale(0.1 -0.1)">
       <defs>
        <path id="DejaVuSans-34" d="M 2419 4116 
L 825 1625 
L 2419 1625 
L 2419 4116 
z
M 2253 4666 
L 3047 4666 
L 3047 1625 
L 3713 1625 
L 3713 1100 
L 3047 1100 
L 3047 0 
L 2419 0 
L 2419 1100 
L 313 1100 
L 313 1709 
L 2253 4666 
z
" transform="scale(0.015625)"/>
       </defs>
       <use xlink:href="#DejaVuSans-35"/>
       <use xlink:href="#DejaVuSans-34" x="63.623047"/>
       <use xlink:href="#DejaVuSans-30" x="127.246094"/>
      </g>
     </g>
    </g>
    <g id="ytick_4">
     <g id="line2d_9">
      <g>
       <use xlink:href="#mfdb6bd1192" x="57.6" y="152.128" style="stroke: #000000; stroke-width: 0.8"/>
      </g>
     </g>
     <g id="text_10">
      <!-- 560 -->
      <g transform="translate(31.5125 155.927219)scale(0.1 -0.1)">
       <defs>
        <path id="DejaVuSans-36" d="M 2113 2584 
Q 1688 2584 1439 2293 
Q 1191 2003 1191 1497 
Q 1191 994 1439 701 
Q 1688 409 2113 409 
Q 2538 409 2786 701 
Q 3034 994 3034 1497 
Q 3034 2003 2786 2293 
Q 2538 2584 2113 2584 
z
M 3366 4563 
L 3366 3988 
Q 3128 4100 2886 4159 
Q 2644 4219 2406 4219 
Q 1781 4219 1451 3797 
Q 1122 3375 1075 2522 
Q 1259 2794 1537 2939 
Q 1816 3084 2150 3084 
Q 2853 3084 3261 2657 
Q 3669 2231 3669 1497 
Q 3669 778 3244 343 
Q 2819 -91 2113 -91 
Q 1303 -91 875 529 
Q 447 1150 447 2328 
Q 447 3434 972 4092 
Q 1497 4750 2381 4750 
Q 2619 4750 2861 4703 
Q 3103 4656 3366 4563 
z
" transform="scale(0.015625)"/>
       </defs>
       <use xlink:href="#DejaVuSans-35"/>
       <use xlink:href="#DejaVuSans-36" x="63.623047"/>
       <use xlink:href="#DejaVuSans-30" x="127.246094"/>
      </g>
     </g>
    </g>
    <g id="ytick_5">
     <g id="line2d_10">
      <g>
       <use xlink:href="#mfdb6bd1192" x="57.6" y="107.328" style="stroke: #000000; stroke-width: 0.8"/>
      </g>
     </g>
     <g id="text_11">
      <!-- 580 -->
      <g transform="translate(31.5125 111.127219)scale(0.1 -0.1)">
       <defs>
        <path id="DejaVuSans-38" d="M 2034 2216 
Q 1584 2216 1326 1975 
Q 1069 1734 1069 1313 
Q 1069 891 1326 650 
Q 1584 409 2034 409 
Q 2484 409 2743 651 
Q 3003 894 3003 1313 
Q 3003 1734 2745 1975 
Q 2488 2216 2034 2216 
z
M 1403 2484 
Q 997 2584 770 2862 
Q 544 3141 544 3541 
Q 544 4100 942 4425 
Q 1341 4750 2034 4750 
Q 2731 4750 3128 4425 
Q 3525 4100 3525 3541 
Q 3525 3141 3298 2862 
Q 3072 2584 2669 2484 
Q 3125 2378 3379 2068 
Q 3634 1759 3634 1313 
Q 3634 634 3220 271 
Q 2806 -91 2034 -91 
Q 1263 -91 848 271 
Q 434 634 434 1313 
Q 434 1759 690 2068 
Q 947 2378 1403 2484 
z
M 1172 3481 
Q 1172 3119 1398 2916 
Q 1625 2713 2034 2713 
Q 2441 2713 2670 2916 
Q 2900 3119 2900 3481 
Q 2900 3844 2670 4047 
Q 2441 4250 2034 4250 
Q 1625 4250 1398 4047 
Q 1172 3844 1172 3481 
z
" transform="scale(0.015625)"/>
       </defs>
       <use xlink:href="#DejaVuSans-35"/>
       <use xlink:href="#DejaVuSans-38" x="63.623047"/>
       <use xlink:href="#DejaVuSans-30" x="127.246094"/>
      </g>
     </g>
    </g>
    <g id="ytick_6">
     <g id="line2d_11">
      <g>
       <use xlink:href="#mfdb6bd1192" x="57.6" y="62.528" style="stroke: #000000; stroke-width: 0.8"/>
      </g>
     </g>
     <g id="text_12">
      <!-- 600 -->
      <g transform="translate(31.5125 66.327219)scale(0.1 -0.1)">
       <use xlink:href="#DejaVuSans-36"/>
       <use xlink:href="#DejaVuSans-30" x="63.623047"/>
       <use xlink:href="#DejaVuSans-30" x="127.246094"/>
      </g>
     </g>
    </g>
    <g id="text_13">
     <!-- total cost -->
     <g transform="translate(25.432812 197.923313)rotate(-90)scale(0.1 -0.1)">
      <defs>
       <path id="DejaVuSans-74" d="M 1172 4494 
L 1172 3500 
L 2356 3500 
L 2356 3053 
L 1172 3053 
L 1172 1153 
Q 1172 725 1289 603 
Q 1406 481 1766 481 
L 2356 481 
L 2356 0 
L 1766 0 
Q 1100 0 847 248 
Q 594 497 594 1153 
L 594 3053 
L 172 3053 
L 172 3500 
L 594 3500 
L 594 4494 
L 1172 4494 
z
" transform="scale(0.015625)"/>
       <path id="DejaVuSans-6f" d="M 1959 3097 
Q 1497 3097 1228 2736 
Q 959 2375 959 1747 
Q 959 1119 1226 758 
Q 1494 397 1959 397 
Q 2419 397 2687 759 
Q 2956 1122 2956 1747 
Q 2956 2369 2687 2733 
Q 2419 3097 1959 3097 
z
M 1959 3584 
Q 2709 3584 3137 3096 
Q 3566 2609 3566 1747 
Q 3566 888 3137 398 
Q 2709 -91 1959 -91 
Q 1206 -91 779 398 
Q 353 888 353 1747 
Q 353 2609 779 3096 
Q 1206 3584 1959 3584 
z
" transform="scale(0.015625)"/>
       <path id="DejaVuSans-6c" d="M 603 4863 
L 1178 4863 
L 1178 0 
L 603 0 
L 603 4863 
z
" transform="scale(0.015625)"/>
       <path id="DejaVuSans-63" d="M 3122 3366 
L 3122 2828 
Q 2878 2963 2633 3030 
Q 2388 3097 2138 3097 
Q 1578 3097 1268 2742 
Q 959 2388 959 1747 
Q 959 1106 1268 751 
Q 1578 397 2138 397 
Q 2388 397 2633 464 
Q 2878 531 3122 666 
L 3122 134 
Q 2881 22 2623 -34 
Q 2366 -91 2075 -91 
Q 1284 -91 818 406 
Q 353 903 353 1747 
Q 353 2603 823 3093 
Q 1294 3584 2113 3584 
Q 2378 3584 2631 3529 
Q 2884 3475 3122 3366 
z
" transform="scale(0.015625)"/>
      </defs>
      <use xlink:href="#DejaVuSans-74"/>
      <use xlink:href="#DejaVuSans-6f" x="39.208984"/>
      <use xlink:href="#DejaVuSans-74" x="100.390625"/>
      <use xlink:href="#DejaVuSans-61" x="139.599609"/>
      <use xlink:href="#DejaVuSans-6c" x="200.878906"/>
      <use xlink:href="#DejaVuSans-20" x="228.662109"/>
      <use xlink:href="#DejaVuSans-63" x="260.449219"/>
      <use xlink:href="#DejaVuSans-6f" x="315.429688"/>
      <use xlink:href="#DejaVuSans-73" x="376.611328"/>
      <use xlink:href="#DejaVuSans-74" x="428.710938"/>
     </g>
    </g>
   </g>
   <g id="line2d_12">
    <path d="M 73.832727 156.608 
L 74.131948 158.848 
L 74.73039 185.728 
L 75.02961 183.488 
L 75.328831 208.128 
L 76.226494 183.488 
L 76.525714 205.888 
L 76.824935 194.688 
L 77.423377 217.088 
L 77.722597 214.848 
L 78.021818 201.408 
L 78.62026 192.448 
L 79.218701 203.648 
L 79.517922 176.768 
L 80.116364 176.768 
L 80.714805 210.368 
L 81.014026 199.168 
L 81.313247 212.608 
L 81.612468 205.888 
L 81.911688 214.848 
L 82.210909 196.928 
L 82.51013 208.128 
L 82.809351 201.408 
L 83.108571 203.648 
L 83.407792 217.088 
L 83.707013 187.968 
L 84.006234 181.248 
L 84.305455 165.568 
L 84.604675 170.048 
L 84.903896 165.568 
L 85.203117 183.488 
L 85.502338 170.048 
L 85.801558 165.568 
L 86.100779 183.488 
L 86.4 174.528 
L 86.699221 179.008 
L 87.297662 196.928 
L 87.596883 183.488 
L 87.896104 217.088 
L 88.195325 203.648 
L 88.494545 219.328 
L 88.793766 210.368 
L 89.092987 210.368 
L 89.392208 208.128 
L 89.990649 248.448 
L 90.28987 235.008 
L 90.589091 194.688 
L 90.888312 183.488 
L 91.187532 179.008 
L 91.486753 172.288 
L 91.785974 187.968 
L 92.085195 156.608 
L 92.384416 165.568 
L 92.683636 183.488 
L 92.982857 167.808 
L 93.581299 176.768 
L 93.880519 172.288 
L 94.17974 172.288 
L 94.478961 149.888 
L 94.778182 158.848 
L 95.675844 152.128 
L 95.975065 156.608 
L 96.573506 183.488 
L 96.872727 183.488 
L 97.171948 201.408 
L 97.77039 192.448 
L 98.06961 179.008 
L 98.368831 190.208 
L 98.668052 185.728 
L 98.967273 172.288 
L 99.266494 174.528 
L 99.565714 194.688 
L 99.864935 194.688 
L 100.164156 192.448 
L 100.463377 199.168 
L 100.762597 217.088 
L 101.061818 221.568 
L 101.361039 208.128 
L 101.66026 203.648 
L 101.959481 179.008 
L 102.258701 176.768 
L 102.557922 167.808 
L 102.857143 165.568 
L 103.156364 190.208 
L 103.455584 194.688 
L 103.754805 185.728 
L 104.353247 176.768 
L 104.652468 179.008 
L 105.250909 210.368 
L 105.55013 172.288 
L 106.148571 149.888 
L 106.447792 165.568 
L 106.747013 156.608 
L 107.046234 165.568 
L 107.345455 154.368 
L 107.644675 165.568 
L 107.943896 196.928 
L 108.542338 192.448 
L 109.140779 143.168 
L 109.44 145.408 
L 110.038442 176.768 
L 110.337662 161.088 
L 110.636883 156.608 
L 110.936104 149.888 
L 111.235325 147.648 
L 111.534545 152.128 
L 111.833766 176.768 
L 112.132987 167.808 
L 112.432208 194.688 
L 112.731429 196.928 
L 114.526753 143.168 
L 114.825974 143.168 
L 115.125195 136.448 
L 115.424416 138.688 
L 115.723636 167.808 
L 116.022857 167.808 
L 116.322078 185.728 
L 117.21974 172.288 
L 117.518961 190.208 
L 117.818182 199.168 
L 118.117403 201.408 
L 118.416623 201.408 
L 118.715844 208.128 
L 119.015065 210.368 
L 119.314286 205.888 
L 119.613506 208.128 
L 120.211948 185.728 
L 120.511169 187.968 
L 120.81039 181.248 
L 121.10961 179.008 
L 121.408831 214.848 
L 121.708052 199.168 
L 122.007273 176.768 
L 122.306494 179.008 
L 122.904935 167.808 
L 123.204156 165.568 
L 123.503377 174.528 
L 123.802597 187.968 
L 124.101818 187.968 
L 124.401039 194.688 
L 124.70026 192.448 
L 124.999481 183.488 
L 125.298701 196.928 
L 125.597922 194.688 
L 126.495584 174.528 
L 127.094026 190.208 
L 127.393247 187.968 
L 127.692468 179.008 
L 127.991688 149.888 
L 128.290909 179.008 
L 128.59013 170.048 
L 128.889351 172.288 
L 129.188571 163.328 
L 130.086234 163.328 
L 130.684675 129.728 
L 130.983896 120.768 
L 131.283117 136.448 
L 131.582338 125.248 
L 131.881558 123.008 
L 132.48 123.008 
L 132.779221 125.248 
L 133.078442 123.008 
L 133.377662 114.048 
L 133.676883 111.808 
L 133.976104 123.008 
L 134.275325 152.128 
L 134.574545 165.568 
L 134.873766 185.728 
L 135.472208 152.128 
L 135.771429 154.368 
L 136.070649 149.888 
L 136.36987 149.888 
L 136.669091 196.928 
L 136.968312 219.328 
L 137.267532 223.808 
L 137.566753 183.488 
L 137.865974 185.728 
L 138.165195 176.768 
L 138.464416 172.288 
L 138.763636 152.128 
L 139.062857 143.168 
L 139.362078 156.608 
L 139.661299 140.928 
L 139.960519 181.248 
L 140.25974 143.168 
L 140.558961 154.368 
L 140.858182 161.088 
L 141.157403 174.528 
L 141.456623 174.528 
L 142.055065 152.128 
L 142.354286 140.928 
L 142.653506 136.448 
L 143.251948 174.528 
L 143.551169 187.968 
L 143.85039 181.248 
L 144.14961 165.568 
L 144.448831 163.328 
L 144.748052 138.688 
L 145.047273 134.208 
L 145.346494 140.928 
L 145.645714 143.168 
L 145.944935 140.928 
L 146.244156 152.128 
L 146.543377 145.408 
L 146.842597 118.528 
L 147.141818 75.968 
L 147.441039 60.288 
L 147.74026 53.568 
L 148.039481 71.488 
L 148.338701 67.008 
L 148.637922 73.728 
L 148.937143 64.768 
L 149.236364 125.248 
L 149.535584 123.008 
L 149.834805 134.208 
L 150.134026 134.208 
L 150.433247 82.688 
L 150.732468 80.448 
L 151.031688 161.088 
L 151.63013 165.568 
L 151.929351 163.328 
L 152.228571 125.248 
L 152.527792 123.008 
L 152.827013 111.808 
L 153.126234 116.288 
L 153.425455 127.488 
L 153.724675 125.248 
L 154.023896 149.888 
L 154.323117 152.128 
L 154.622338 149.888 
L 154.921558 156.608 
L 155.220779 145.408 
L 155.52 154.368 
L 156.118442 136.448 
L 156.417662 136.448 
L 156.716883 145.408 
L 157.016104 143.168 
L 157.315325 145.408 
L 157.614545 158.848 
L 157.913766 152.128 
L 158.212987 163.328 
L 158.811429 201.408 
L 159.110649 158.848 
L 159.40987 170.048 
L 159.709091 172.288 
L 160.307532 199.168 
L 160.606753 203.648 
L 160.905974 221.568 
L 161.205195 194.688 
L 161.504416 156.608 
L 161.803636 158.848 
L 162.102857 158.848 
L 162.402078 179.008 
L 162.701299 187.968 
L 163.000519 156.608 
L 163.29974 145.408 
L 163.598961 140.928 
L 163.898182 152.128 
L 164.197403 154.368 
L 164.795844 118.528 
L 165.095065 116.288 
L 165.394286 107.328 
L 165.693506 111.808 
L 165.992727 100.608 
L 166.291948 105.088 
L 166.591169 136.448 
L 166.89039 149.888 
L 167.18961 147.648 
L 167.488831 149.888 
L 167.788052 158.848 
L 168.087273 199.168 
L 168.386494 194.688 
L 168.685714 205.888 
L 168.984935 196.928 
L 169.284156 219.328 
L 169.583377 219.328 
L 169.882597 223.808 
L 170.181818 226.048 
L 170.481039 239.488 
L 171.079481 205.888 
L 171.677922 190.208 
L 171.977143 199.168 
L 172.276364 221.568 
L 172.575584 217.088 
L 172.874805 194.688 
L 173.174026 192.448 
L 173.473247 192.448 
L 173.772468 174.528 
L 174.071688 170.048 
L 174.370909 201.408 
L 174.67013 217.088 
L 174.969351 221.568 
L 175.268571 214.848 
L 175.567792 212.608 
L 175.867013 185.728 
L 176.166234 196.928 
L 176.465455 192.448 
L 176.764675 199.168 
L 177.063896 192.448 
L 177.363117 176.768 
L 177.662338 170.048 
L 177.961558 154.368 
L 178.260779 174.528 
L 178.56 158.848 
L 178.859221 167.808 
L 179.158442 158.848 
L 179.457662 167.808 
L 179.756883 167.808 
L 180.056104 181.248 
L 180.355325 187.968 
L 180.654545 165.568 
L 180.953766 181.248 
L 181.252987 154.368 
L 181.552208 158.848 
L 181.851429 143.168 
L 182.150649 163.328 
L 182.44987 165.568 
L 182.749091 172.288 
L 183.048312 170.048 
L 183.646753 217.088 
L 183.945974 181.248 
L 184.245195 181.248 
L 184.544416 183.488 
L 184.843636 161.088 
L 185.142857 161.088 
L 185.741299 179.008 
L 186.040519 194.688 
L 186.33974 192.448 
L 186.638961 185.728 
L 186.938182 185.728 
L 187.237403 167.808 
L 187.536623 156.608 
L 188.135065 179.008 
L 188.434286 172.288 
L 188.733506 181.248 
L 189.331948 167.808 
L 189.631169 172.288 
L 190.22961 147.648 
L 190.528831 158.848 
L 190.828052 129.728 
L 191.127273 114.048 
L 191.426494 109.568 
L 191.725714 100.608 
L 192.024935 102.848 
L 192.623377 134.208 
L 192.922597 138.688 
L 193.221818 136.448 
L 193.521039 131.968 
L 194.119481 158.848 
L 194.418701 161.088 
L 194.717922 143.168 
L 195.017143 136.448 
L 195.316364 183.488 
L 195.615584 170.048 
L 195.914805 140.928 
L 196.214026 131.968 
L 196.513247 149.888 
L 196.812468 147.648 
L 197.410909 131.968 
L 197.71013 147.648 
L 198.009351 147.648 
L 198.308571 140.928 
L 198.607792 143.168 
L 199.206234 120.768 
L 199.505455 129.728 
L 199.804675 152.128 
L 200.103896 140.928 
L 200.403117 181.248 
L 201.300779 201.408 
L 201.6 187.968 
L 201.899221 190.208 
L 202.198442 187.968 
L 202.497662 190.208 
L 202.796883 161.088 
L 203.096104 158.848 
L 203.694545 174.528 
L 203.993766 152.128 
L 204.292987 174.528 
L 204.592208 208.128 
L 204.891429 201.408 
L 205.190649 217.088 
L 205.789091 201.408 
L 206.088312 228.288 
L 206.387532 226.048 
L 206.686753 205.888 
L 206.985974 196.928 
L 207.285195 199.168 
L 207.584416 194.688 
L 207.883636 208.128 
L 208.182857 201.408 
L 208.482078 205.888 
L 208.781299 208.128 
L 209.080519 205.888 
L 209.37974 205.888 
L 209.678961 201.408 
L 209.978182 226.048 
L 210.277403 214.848 
L 210.576623 183.488 
L 210.875844 185.728 
L 211.175065 185.728 
L 211.474286 152.128 
L 211.773506 152.128 
L 212.072727 145.408 
L 212.371948 165.568 
L 212.671169 158.848 
L 212.97039 161.088 
L 213.26961 176.768 
L 213.568831 172.288 
L 213.868052 179.008 
L 214.466494 174.528 
L 215.064935 161.088 
L 215.364156 176.768 
L 215.663377 176.768 
L 215.962597 154.368 
L 216.561039 134.208 
L 216.86026 134.208 
L 217.458701 163.328 
L 218.057143 172.288 
L 218.356364 161.088 
L 218.655584 179.008 
L 218.954805 187.968 
L 219.254026 190.208 
L 219.553247 187.968 
L 219.852468 196.928 
L 220.450909 158.848 
L 220.75013 165.568 
L 221.049351 185.728 
L 221.647792 210.368 
L 221.947013 210.368 
L 222.246234 201.408 
L 222.545455 210.368 
L 222.844675 205.888 
L 223.143896 194.688 
L 223.742338 145.408 
L 224.041558 161.088 
L 224.340779 158.848 
L 224.64 165.568 
L 224.939221 165.568 
L 225.238442 183.488 
L 225.537662 176.768 
L 225.836883 179.008 
L 226.136104 176.768 
L 226.435325 187.968 
L 226.734545 179.008 
L 227.033766 187.968 
L 227.632208 174.528 
L 227.931429 174.528 
L 228.230649 158.848 
L 228.52987 156.608 
L 228.829091 158.848 
L 229.128312 172.288 
L 229.427532 154.368 
L 229.726753 156.608 
L 230.025974 154.368 
L 230.325195 163.328 
L 230.624416 165.568 
L 231.222857 149.888 
L 231.522078 136.448 
L 231.821299 149.888 
L 232.41974 145.408 
L 232.718961 156.608 
L 233.018182 145.408 
L 233.317403 149.888 
L 233.915844 181.248 
L 234.215065 179.008 
L 234.514286 179.008 
L 234.813506 167.808 
L 235.112727 179.008 
L 235.411948 167.808 
L 235.711169 163.328 
L 236.01039 152.128 
L 236.30961 161.088 
L 236.608831 161.088 
L 236.908052 149.888 
L 237.207273 149.888 
L 237.506494 156.608 
L 237.805714 158.848 
L 238.104935 154.368 
L 238.404156 161.088 
L 239.002597 125.248 
L 239.601039 149.888 
L 239.90026 149.888 
L 240.199481 152.128 
L 240.797922 165.568 
L 241.097143 161.088 
L 241.396364 170.048 
L 241.695584 145.408 
L 241.994805 145.408 
L 242.294026 147.648 
L 242.593247 131.968 
L 242.892468 131.968 
L 243.79013 100.608 
L 244.089351 96.128 
L 244.987013 181.248 
L 245.585455 152.128 
L 245.884675 172.288 
L 246.183896 156.608 
L 246.483117 179.008 
L 246.782338 187.968 
L 247.081558 170.048 
L 247.380779 170.048 
L 247.68 179.008 
L 247.979221 203.648 
L 248.278442 194.688 
L 248.577662 201.408 
L 248.876883 194.688 
L 249.176104 183.488 
L 249.475325 165.568 
L 250.073766 181.248 
L 250.372987 170.048 
L 251.270649 205.888 
L 251.56987 203.648 
L 251.869091 185.728 
L 252.168312 210.368 
L 252.467532 199.168 
L 252.766753 210.368 
L 253.065974 174.528 
L 253.365195 217.088 
L 253.664416 226.048 
L 253.963636 187.968 
L 254.262857 185.728 
L 254.562078 190.208 
L 254.861299 205.888 
L 255.160519 205.888 
L 255.45974 194.688 
L 255.758961 199.168 
L 256.058182 196.928 
L 256.357403 185.728 
L 256.656623 210.368 
L 256.955844 181.248 
L 257.255065 179.008 
L 257.554286 183.488 
L 258.751169 235.008 
L 259.05039 232.768 
L 259.648831 257.408 
L 259.948052 248.448 
L 260.247273 221.568 
L 260.546494 226.048 
L 260.845714 228.288 
L 261.144935 241.728 
L 261.444156 246.208 
L 261.743377 239.488 
L 262.042597 259.648 
L 262.341818 261.888 
L 262.641039 261.888 
L 263.239481 235.008 
L 263.538701 250.688 
L 263.837922 248.448 
L 264.137143 232.768 
L 264.436364 252.928 
L 264.735584 246.208 
L 265.334026 199.168 
L 266.231688 205.888 
L 266.530909 205.888 
L 266.83013 212.608 
L 267.129351 196.928 
L 267.428571 205.888 
L 267.727792 221.568 
L 268.027013 212.608 
L 268.326234 192.448 
L 268.924675 172.288 
L 269.223896 174.528 
L 269.523117 185.728 
L 269.822338 163.328 
L 270.121558 181.248 
L 270.420779 192.448 
L 270.72 183.488 
L 271.019221 201.408 
L 271.318442 190.208 
L 271.916883 194.688 
L 272.216104 183.488 
L 272.515325 194.688 
L 272.814545 194.688 
L 273.113766 190.208 
L 273.412987 199.168 
L 273.712208 217.088 
L 274.310649 201.408 
L 274.60987 185.728 
L 274.909091 201.408 
L 275.208312 208.128 
L 275.507532 223.808 
L 276.105974 205.888 
L 276.405195 212.608 
L 276.704416 230.528 
L 277.302857 248.448 
L 277.602078 239.488 
L 277.901299 246.208 
L 278.49974 214.848 
L 278.798961 219.328 
L 279.098182 210.368 
L 279.397403 214.848 
L 279.995844 239.488 
L 280.295065 205.888 
L 280.594286 212.608 
L 280.893506 210.368 
L 281.192727 217.088 
L 281.491948 228.288 
L 281.791169 230.528 
L 282.09039 235.008 
L 282.38961 248.448 
L 282.688831 255.168 
L 282.988052 250.688 
L 283.287273 259.648 
L 283.885714 239.488 
L 284.184935 239.488 
L 284.484156 246.208 
L 284.783377 235.008 
L 285.082597 201.408 
L 285.381818 212.608 
L 285.98026 194.688 
L 286.279481 201.408 
L 286.578701 199.168 
L 286.877922 194.688 
L 287.177143 199.168 
L 287.476364 223.808 
L 287.775584 194.688 
L 288.374026 219.328 
L 288.673247 221.568 
L 288.972468 205.888 
L 289.271688 205.888 
L 289.570909 246.208 
L 289.87013 252.928 
L 290.169351 239.488 
L 290.468571 246.208 
L 290.767792 228.288 
L 291.067013 246.208 
L 291.366234 219.328 
L 291.665455 223.808 
L 291.964675 232.768 
L 292.862338 181.248 
L 293.161558 179.008 
L 293.76 210.368 
L 294.059221 199.168 
L 294.358442 214.848 
L 294.657662 214.848 
L 294.956883 196.928 
L 295.256104 167.808 
L 295.555325 156.608 
L 295.854545 176.768 
L 296.153766 174.528 
L 296.452987 167.808 
L 296.752208 165.568 
L 297.051429 161.088 
L 297.350649 163.328 
L 297.64987 167.808 
L 298.547532 174.528 
L 299.145974 174.528 
L 299.445195 161.088 
L 299.744416 134.208 
L 300.043636 138.688 
L 300.342857 140.928 
L 300.642078 134.208 
L 301.240519 172.288 
L 301.53974 170.048 
L 301.838961 174.528 
L 302.138182 196.928 
L 302.437403 187.968 
L 302.736623 185.728 
L 303.035844 192.448 
L 303.335065 165.568 
L 303.634286 167.808 
L 303.933506 183.488 
L 304.232727 161.088 
L 304.531948 165.568 
L 304.831169 165.568 
L 305.13039 158.848 
L 305.42961 165.568 
L 305.728831 196.928 
L 306.028052 196.928 
L 306.327273 187.968 
L 306.626494 183.488 
L 306.925714 187.968 
L 307.224935 183.488 
L 307.524156 172.288 
L 307.823377 165.568 
L 308.122597 165.568 
L 309.02026 201.408 
L 309.319481 196.928 
L 309.618701 194.688 
L 309.917922 205.888 
L 310.217143 201.408 
L 310.516364 192.448 
L 310.815584 203.648 
L 311.114805 196.928 
L 311.713247 192.448 
L 312.012468 199.168 
L 312.311688 181.248 
L 312.610909 181.248 
L 312.91013 208.128 
L 313.209351 196.928 
L 313.807792 219.328 
L 314.107013 199.168 
L 314.406234 208.128 
L 314.705455 194.688 
L 315.004675 199.168 
L 315.303896 205.888 
L 315.603117 226.048 
L 315.902338 192.448 
L 316.201558 219.328 
L 316.500779 217.088 
L 317.099221 183.488 
L 317.398442 203.648 
L 317.697662 199.168 
L 317.996883 176.768 
L 318.296104 190.208 
L 318.595325 185.728 
L 318.894545 210.368 
L 319.193766 219.328 
L 319.492987 223.808 
L 319.792208 232.768 
L 320.091429 250.688 
L 320.68987 223.808 
L 320.989091 203.648 
L 321.288312 208.128 
L 321.886753 199.168 
L 322.185974 201.408 
L 322.485195 210.368 
L 322.784416 223.808 
L 323.083636 252.928 
L 323.382857 248.448 
L 323.682078 273.088 
L 323.981299 279.808 
L 324.280519 279.808 
L 324.57974 266.368 
L 324.878961 273.088 
L 325.178182 268.608 
L 325.477403 261.888 
L 325.776623 212.608 
L 326.075844 232.768 
L 326.973506 264.128 
L 327.272727 237.248 
L 327.871169 246.208 
L 328.17039 230.528 
L 328.46961 235.008 
L 328.768831 203.648 
L 329.068052 208.128 
L 329.666494 221.568 
L 329.965714 217.088 
L 330.264935 217.088 
L 330.564156 212.608 
L 330.863377 192.448 
L 331.162597 194.688 
L 331.761039 176.768 
L 332.06026 183.488 
L 332.359481 205.888 
L 332.658701 196.928 
L 333.257143 226.048 
L 333.556364 201.408 
L 333.855584 194.688 
L 334.454026 174.528 
L 334.753247 187.968 
L 335.351688 154.368 
L 335.650909 143.168 
L 335.95013 136.448 
L 336.249351 138.688 
L 336.548571 136.448 
L 336.847792 114.048 
L 337.147013 120.768 
L 337.745455 140.928 
L 338.044675 192.448 
L 338.343896 196.928 
L 338.643117 203.648 
L 338.942338 239.488 
L 339.241558 235.008 
L 339.540779 232.768 
L 339.84 210.368 
L 340.438442 223.808 
L 340.737662 223.808 
L 341.036883 237.248 
L 341.336104 226.048 
L 341.934545 221.568 
L 342.233766 223.808 
L 342.532987 221.568 
L 342.832208 223.808 
L 343.131429 237.248 
L 343.72987 187.968 
L 344.029091 205.888 
L 344.328312 217.088 
L 344.627532 219.328 
L 344.926753 190.208 
L 345.225974 187.968 
L 345.525195 205.888 
L 345.824416 212.608 
L 346.123636 203.648 
L 346.422857 190.208 
L 346.722078 199.168 
L 347.320519 208.128 
L 347.61974 217.088 
L 347.918961 205.888 
L 348.218182 199.168 
L 348.517403 208.128 
L 348.816623 210.368 
L 349.115844 196.928 
L 349.415065 214.848 
L 349.714286 212.608 
L 350.013506 208.128 
L 350.312727 208.128 
L 350.611948 212.608 
L 350.911169 199.168 
L 351.21039 214.848 
L 351.50961 210.368 
L 351.808831 208.128 
L 352.407273 221.568 
L 352.706494 219.328 
L 353.005714 232.768 
L 353.304935 219.328 
L 353.604156 217.088 
L 353.903377 196.928 
L 354.202597 208.128 
L 354.501818 170.048 
L 354.801039 156.608 
L 355.399481 194.688 
L 355.698701 179.008 
L 355.997922 174.528 
L 356.596364 163.328 
L 356.895584 147.648 
L 357.194805 147.648 
L 357.494026 145.408 
L 357.793247 156.608 
L 358.092468 174.528 
L 358.391688 201.408 
L 358.690909 210.368 
L 358.99013 205.888 
L 359.289351 214.848 
L 359.887792 199.168 
L 360.187013 192.448 
L 360.486234 192.448 
L 360.785455 219.328 
L 361.084675 217.088 
L 361.383896 257.408 
L 361.683117 259.648 
L 361.982338 255.168 
L 362.281558 243.968 
L 362.580779 239.488 
L 362.88 239.488 
L 363.179221 243.968 
L 363.777662 243.968 
L 364.076883 268.608 
L 364.376104 252.928 
L 364.675325 268.608 
L 364.974545 277.568 
L 365.872208 235.008 
L 366.171429 232.768 
L 366.76987 212.608 
L 367.069091 223.808 
L 367.368312 243.968 
L 367.667532 235.008 
L 367.966753 239.488 
L 368.265974 232.768 
L 368.565195 248.448 
L 368.864416 243.968 
L 369.163636 259.648 
L 369.462857 228.288 
L 369.762078 214.848 
L 370.061299 217.088 
L 370.360519 210.368 
L 370.65974 190.208 
L 370.958961 208.128 
L 371.557403 190.208 
L 371.856623 190.208 
L 372.155844 196.928 
L 372.455065 183.488 
L 373.053506 217.088 
L 373.352727 217.088 
L 373.651948 214.848 
L 373.951169 210.368 
L 374.25039 214.848 
L 374.54961 217.088 
L 374.848831 235.008 
L 375.148052 235.008 
L 376.045714 179.008 
L 376.344935 190.208 
L 376.644156 187.968 
L 377.242597 172.288 
L 377.541818 183.488 
L 377.841039 165.568 
L 378.14026 174.528 
L 378.439481 187.968 
L 378.738701 176.768 
L 379.037922 156.608 
L 379.337143 165.568 
L 379.636364 181.248 
L 379.935584 172.288 
L 380.234805 174.528 
L 380.534026 170.048 
L 380.833247 131.968 
L 381.132468 154.368 
L 381.431688 152.128 
L 381.730909 152.128 
L 382.03013 176.768 
L 382.628571 203.648 
L 382.927792 208.128 
L 383.227013 203.648 
L 383.825455 156.608 
L 384.124675 183.488 
L 384.423896 174.528 
L 384.723117 194.688 
L 385.022338 196.928 
L 385.321558 190.208 
L 385.620779 192.448 
L 385.92 201.408 
L 386.219221 187.968 
L 386.518442 190.208 
L 386.817662 179.008 
L 387.116883 163.328 
L 387.416104 172.288 
L 387.715325 170.048 
L 388.014545 174.528 
L 388.313766 165.568 
L 388.612987 172.288 
L 388.912208 194.688 
L 389.211429 199.168 
L 389.510649 201.408 
L 389.80987 205.888 
L 390.408312 221.568 
L 390.707532 217.088 
L 391.006753 228.288 
L 391.305974 226.048 
L 391.605195 230.528 
L 392.203636 235.008 
L 392.802078 223.808 
L 393.101299 235.008 
L 393.400519 241.728 
L 393.69974 239.488 
L 393.998961 264.128 
L 394.298182 275.328 
L 394.896623 261.888 
L 395.195844 264.128 
L 395.495065 255.168 
L 395.794286 219.328 
L 396.093506 239.488 
L 396.392727 243.968 
L 396.691948 237.248 
L 396.991169 248.448 
L 397.29039 295.488 
L 397.58961 282.048 
L 397.888831 279.808 
L 398.188052 257.408 
L 398.487273 246.208 
L 398.487273 246.208 
" clip-path="url(#p0a5ed89299)" style="fill: none; stroke: #1f77b4; stroke-width: 1.5; stroke-linecap: square"/>
   </g>
   <g id="patch_3">
    <path d="M 57.6 307.584 
L 57.6 41.472 
" style="fill: none; stroke: #000000; stroke-width: 0.8; stroke-linejoin: miter; stroke-linecap: square"/>
   </g>
   <g id="patch_4">
    <path d="M 414.72 307.584 
L 414.72 41.472 
" style="fill: none; stroke: #000000; stroke-width: 0.8; stroke-linejoin: miter; stroke-linecap: square"/>
   </g>
   <g id="patch_5">
    <path d="M 57.6 307.584 
L 414.72 307.584 
" style="fill: none; stroke: #000000; stroke-width: 0.8; stroke-linejoin: miter; stroke-linecap: square"/>
   </g>
   <g id="patch_6">
    <path d="M 57.6 41.472 
L 414.72 41.472 
" style="fill: none; stroke: #000000; stroke-width: 0.8; stroke-linejoin: miter; stroke-linecap: square"/>
   </g>
   <g id="text_14">
    <!-- Simulated Anealling Cost -->
    <g transform="translate(160.8 35.472)scale(0.12 -0.12)">
     <defs>
      <path id="DejaVuSans-53" d="M 3425 4513 
L 3425 3897 
Q 3066 4069 2747 4153 
Q 2428 4238 2131 4238 
Q 1616 4238 1336 4038 
Q 1056 3838 1056 3469 
Q 1056 3159 1242 3001 
Q 1428 2844 1947 2747 
L 2328 2669 
Q 3034 2534 3370 2195 
Q 3706 1856 3706 1288 
Q 3706 609 3251 259 
Q 2797 -91 1919 -91 
Q 1588 -91 1214 -16 
Q 841 59 441 206 
L 441 856 
Q 825 641 1194 531 
Q 1563 422 1919 422 
Q 2459 422 2753 634 
Q 3047 847 3047 1241 
Q 3047 1584 2836 1778 
Q 2625 1972 2144 2069 
L 1759 2144 
Q 1053 2284 737 2584 
Q 422 2884 422 3419 
Q 422 4038 858 4394 
Q 1294 4750 2059 4750 
Q 2388 4750 2728 4690 
Q 3069 4631 3425 4513 
z
" transform="scale(0.015625)"/>
      <path id="DejaVuSans-69" d="M 603 3500 
L 1178 3500 
L 1178 0 
L 603 0 
L 603 3500 
z
M 603 4863 
L 1178 4863 
L 1178 4134 
L 603 4134 
L 603 4863 
z
" transform="scale(0.015625)"/>
      <path id="DejaVuSans-65" d="M 3597 1894 
L 3597 1613 
L 953 1613 
Q 991 1019 1311 708 
Q 1631 397 2203 397 
Q 2534 397 2845 478 
Q 3156 559 3463 722 
L 3463 178 
Q 3153 47 2828 -22 
Q 2503 -91 2169 -91 
Q 1331 -91 842 396 
Q 353 884 353 1716 
Q 353 2575 817 3079 
Q 1281 3584 2069 3584 
Q 2775 3584 3186 3129 
Q 3597 2675 3597 1894 
z
M 3022 2063 
Q 3016 2534 2758 2815 
Q 2500 3097 2075 3097 
Q 1594 3097 1305 2825 
Q 1016 2553 972 2059 
L 3022 2063 
z
" transform="scale(0.015625)"/>
      <path id="DejaVuSans-64" d="M 2906 2969 
L 2906 4863 
L 3481 4863 
L 3481 0 
L 2906 0 
L 2906 525 
Q 2725 213 2448 61 
Q 2172 -91 1784 -91 
Q 1150 -91 751 415 
Q 353 922 353 1747 
Q 353 2572 751 3078 
Q 1150 3584 1784 3584 
Q 2172 3584 2448 3432 
Q 2725 3281 2906 2969 
z
M 947 1747 
Q 947 1113 1208 752 
Q 1469 391 1925 391 
Q 2381 391 2643 752 
Q 2906 1113 2906 1747 
Q 2906 2381 2643 2742 
Q 2381 3103 1925 3103 
Q 1469 3103 1208 2742 
Q 947 2381 947 1747 
z
" transform="scale(0.015625)"/>
      <path id="DejaVuSans-41" d="M 2188 4044 
L 1331 1722 
L 3047 1722 
L 2188 4044 
z
M 1831 4666 
L 2547 4666 
L 4325 0 
L 3669 0 
L 3244 1197 
L 1141 1197 
L 716 0 
L 50 0 
L 1831 4666 
z
" transform="scale(0.015625)"/>
      <path id="DejaVuSans-67" d="M 2906 1791 
Q 2906 2416 2648 2759 
Q 2391 3103 1925 3103 
Q 1463 3103 1205 2759 
Q 947 2416 947 1791 
Q 947 1169 1205 825 
Q 1463 481 1925 481 
Q 2391 481 2648 825 
Q 2906 1169 2906 1791 
z
M 3481 434 
Q 3481 -459 3084 -895 
Q 2688 -1331 1869 -1331 
Q 1566 -1331 1297 -1286 
Q 1028 -1241 775 -1147 
L 775 -588 
Q 1028 -725 1275 -790 
Q 1522 -856 1778 -856 
Q 2344 -856 2625 -561 
Q 2906 -266 2906 331 
L 2906 616 
Q 2728 306 2450 153 
Q 2172 0 1784 0 
Q 1141 0 747 490 
Q 353 981 353 1791 
Q 353 2603 747 3093 
Q 1141 3584 1784 3584 
Q 2172 3584 2450 3431 
Q 2728 3278 2906 2969 
L 2906 3500 
L 3481 3500 
L 3481 434 
z
" transform="scale(0.015625)"/>
      <path id="DejaVuSans-43" d="M 4122 4306 
L 4122 3641 
Q 3803 3938 3442 4084 
Q 3081 4231 2675 4231 
Q 1875 4231 1450 3742 
Q 1025 3253 1025 2328 
Q 1025 1406 1450 917 
Q 1875 428 2675 428 
Q 3081 428 3442 575 
Q 3803 722 4122 1019 
L 4122 359 
Q 3791 134 3420 21 
Q 3050 -91 2638 -91 
Q 1578 -91 968 557 
Q 359 1206 359 2328 
Q 359 3453 968 4101 
Q 1578 4750 2638 4750 
Q 3056 4750 3426 4639 
Q 3797 4528 4122 4306 
z
" transform="scale(0.015625)"/>
     </defs>
     <use xlink:href="#DejaVuSans-53"/>
     <use xlink:href="#DejaVuSans-69" x="63.476562"/>
     <use xlink:href="#DejaVuSans-6d" x="91.259766"/>
     <use xlink:href="#DejaVuSans-75" x="188.671875"/>
     <use xlink:href="#DejaVuSans-6c" x="252.050781"/>
     <use xlink:href="#DejaVuSans-61" x="279.833984"/>
     <use xlink:href="#DejaVuSans-74" x="341.113281"/>
     <use xlink:href="#DejaVuSans-65" x="380.322266"/>
     <use xlink:href="#DejaVuSans-64" x="441.845703"/>
     <use xlink:href="#DejaVuSans-20" x="505.322266"/>
     <use xlink:href="#DejaVuSans-41" x="537.109375"/>
     <use xlink:href="#DejaVuSans-6e" x="605.517578"/>
     <use xlink:href="#DejaVuSans-65" x="668.896484"/>
     <use xlink:href="#DejaVuSans-61" x="730.419922"/>
     <use xlink:href="#DejaVuSans-6c" x="791.699219"/>
     <use xlink:href="#DejaVuSans-6c" x="819.482422"/>
     <use xlink:href="#DejaVuSans-69" x="847.265625"/>
     <use xlink:href="#DejaVuSans-6e" x="875.048828"/>
     <use xlink:href="#DejaVuSans-67" x="938.427734"/>
     <use xlink:href="#DejaVuSans-20" x="1001.904297"/>
     <use xlink:href="#DejaVuSans-43" x="1033.691406"/>
     <use xlink:href="#DejaVuSans-6f" x="1103.515625"/>
     <use xlink:href="#DejaVuSans-73" x="1164.697266"/>
     <use xlink:href="#DejaVuSans-74" x="1216.796875"/>
    </g>
   </g>
  </g>
 </g>
 <defs>
  <clipPath id="p0a5ed89299">
   <rect x="57.6" y="41.472" width="357.12" height="266.112"/>
  </clipPath>
 </defs>
</svg>
