<?xml version="1.0" encoding="utf-8" standalone="no"?>
<!DOCTYPE svg PUBLIC "-//W3C//DTD SVG 1.1//EN"
  "http://www.w3.org/Graphics/SVG/1.1/DTD/svg11.dtd">
<svg xmlns:xlink="http://www.w3.org/1999/xlink" width="460.8pt" height="345.6pt" viewBox="0 0 460.8 345.6" xmlns="http://www.w3.org/2000/svg" version="1.1">
 <metadata>
  <rdf:RDF xmlns:dc="http://purl.org/dc/elements/1.1/" xmlns:cc="http://creativecommons.org/ns#" xmlns:rdf="http://www.w3.org/1999/02/22-rdf-syntax-ns#">
   <cc:Work>
    <dc:type rdf:resource="http://purl.org/dc/dcmitype/StillImage"/>
    <dc:date>2022-06-01T08:04:07.948981</dc:date>
    <dc:format>image/svg+xml</dc:format>
    <dc:creator>
     <cc:Agent>
      <dc:title>Matplotlib v3.5.1, https://matplotlib.org/</dc:title>
     </cc:Agent>
    </dc:creator>
   </cc:Work>
  </rdf:RDF>
 </metadata>
 <defs>
  <style type="text/css">*{stroke-linejoin: round; stroke-linecap: butt}</style>
 </defs>
 <g id="figure_1">
  <g id="patch_1">
   <path d="M 0 345.6 
L 460.8 345.6 
L 460.8 0 
L 0 0 
z
" style="fill: #ffffff"/>
  </g>
  <g id="axes_1">
   <g id="patch_2">
    <path d="M 57.6 307.584 
L 414.72 307.584 
L 414.72 41.472 
L 57.6 41.472 
z
" style="fill: #ffffff"/>
   </g>
   <g id="matplotlib.axis_1">
    <g id="xtick_1">
     <g id="line2d_1">
      <defs>
       <path id="m4cba29d5b4" d="M 0 0 
L 0 3.5 
" style="stroke: #000000; stroke-width: 0.8"/>
      </defs>
      <g>
       <use xlink:href="#m4cba29d5b4" x="73.832727" y="307.584" style="stroke: #000000; stroke-width: 0.8"/>
      </g>
     </g>
     <g id="text_1">
      <!-- 0 -->
      <g transform="translate(70.651477 322.182437)scale(0.1 -0.1)">
       <defs>
        <path id="DejaVuSans-30" d="M 2034 4250 
Q 1547 4250 1301 3770 
Q 1056 3291 1056 2328 
Q 1056 1369 1301 889 
Q 1547 409 2034 409 
Q 2525 409 2770 889 
Q 3016 1369 3016 2328 
Q 3016 3291 2770 3770 
Q 2525 4250 2034 4250 
z
M 2034 4750 
Q 2819 4750 3233 4129 
Q 3647 3509 3647 2328 
Q 3647 1150 3233 529 
Q 2819 -91 2034 -91 
Q 1250 -91 836 529 
Q 422 1150 422 2328 
Q 422 3509 836 4129 
Q 1250 4750 2034 4750 
z
" transform="scale(0.015625)"/>
       </defs>
       <use xlink:href="#DejaVuSans-30"/>
      </g>
     </g>
    </g>
    <g id="xtick_2">
     <g id="line2d_2">
      <g>
       <use xlink:href="#m4cba29d5b4" x="150.546939" y="307.584" style="stroke: #000000; stroke-width: 0.8"/>
      </g>
     </g>
     <g id="text_2">
      <!-- 500 -->
      <g transform="translate(141.003189 322.182437)scale(0.1 -0.1)">
       <defs>
        <path id="DejaVuSans-35" d="M 691 4666 
L 3169 4666 
L 3169 4134 
L 1269 4134 
L 1269 2991 
Q 1406 3038 1543 3061 
Q 1681 3084 1819 3084 
Q 2600 3084 3056 2656 
Q 3513 2228 3513 1497 
Q 3513 744 3044 326 
Q 2575 -91 1722 -91 
Q 1428 -91 1123 -41 
Q 819 9 494 109 
L 494 744 
Q 775 591 1075 516 
Q 1375 441 1709 441 
Q 2250 441 2565 725 
Q 2881 1009 2881 1497 
Q 2881 1984 2565 2268 
Q 2250 2553 1709 2553 
Q 1456 2553 1204 2497 
Q 953 2441 691 2322 
L 691 4666 
z
" transform="scale(0.015625)"/>
       </defs>
       <use xlink:href="#DejaVuSans-35"/>
       <use xlink:href="#DejaVuSans-30" x="63.623047"/>
       <use xlink:href="#DejaVuSans-30" x="127.246094"/>
      </g>
     </g>
    </g>
    <g id="xtick_3">
     <g id="line2d_3">
      <g>
       <use xlink:href="#m4cba29d5b4" x="227.261151" y="307.584" style="stroke: #000000; stroke-width: 0.8"/>
      </g>
     </g>
     <g id="text_3">
      <!-- 1000 -->
      <g transform="translate(214.536151 322.182437)scale(0.1 -0.1)">
       <defs>
        <path id="DejaVuSans-31" d="M 794 531 
L 1825 531 
L 1825 4091 
L 703 3866 
L 703 4441 
L 1819 4666 
L 2450 4666 
L 2450 531 
L 3481 531 
L 3481 0 
L 794 0 
L 794 531 
z
" transform="scale(0.015625)"/>
       </defs>
       <use xlink:href="#DejaVuSans-31"/>
       <use xlink:href="#DejaVuSans-30" x="63.623047"/>
       <use xlink:href="#DejaVuSans-30" x="127.246094"/>
       <use xlink:href="#DejaVuSans-30" x="190.869141"/>
      </g>
     </g>
    </g>
    <g id="xtick_4">
     <g id="line2d_4">
      <g>
       <use xlink:href="#m4cba29d5b4" x="303.975363" y="307.584" style="stroke: #000000; stroke-width: 0.8"/>
      </g>
     </g>
     <g id="text_4">
      <!-- 1500 -->
      <g transform="translate(291.250363 322.182437)scale(0.1 -0.1)">
       <use xlink:href="#DejaVuSans-31"/>
       <use xlink:href="#DejaVuSans-35" x="63.623047"/>
       <use xlink:href="#DejaVuSans-30" x="127.246094"/>
       <use xlink:href="#DejaVuSans-30" x="190.869141"/>
      </g>
     </g>
    </g>
    <g id="xtick_5">
     <g id="line2d_5">
      <g>
       <use xlink:href="#m4cba29d5b4" x="380.689576" y="307.584" style="stroke: #000000; stroke-width: 0.8"/>
      </g>
     </g>
     <g id="text_5">
      <!-- 2000 -->
      <g transform="translate(367.964576 322.182437)scale(0.1 -0.1)">
       <defs>
        <path id="DejaVuSans-32" d="M 1228 531 
L 3431 531 
L 3431 0 
L 469 0 
L 469 531 
Q 828 903 1448 1529 
Q 2069 2156 2228 2338 
Q 2531 2678 2651 2914 
Q 2772 3150 2772 3378 
Q 2772 3750 2511 3984 
Q 2250 4219 1831 4219 
Q 1534 4219 1204 4116 
Q 875 4013 500 3803 
L 500 4441 
Q 881 4594 1212 4672 
Q 1544 4750 1819 4750 
Q 2544 4750 2975 4387 
Q 3406 4025 3406 3419 
Q 3406 3131 3298 2873 
Q 3191 2616 2906 2266 
Q 2828 2175 2409 1742 
Q 1991 1309 1228 531 
z
" transform="scale(0.015625)"/>
       </defs>
       <use xlink:href="#DejaVuSans-32"/>
       <use xlink:href="#DejaVuSans-30" x="63.623047"/>
       <use xlink:href="#DejaVuSans-30" x="127.246094"/>
       <use xlink:href="#DejaVuSans-30" x="190.869141"/>
      </g>
     </g>
    </g>
    <g id="text_6">
     <!-- num swaps -->
     <g transform="translate(207.826406 335.860562)scale(0.1 -0.1)">
      <defs>
       <path id="DejaVuSans-6e" d="M 3513 2113 
L 3513 0 
L 2938 0 
L 2938 2094 
Q 2938 2591 2744 2837 
Q 2550 3084 2163 3084 
Q 1697 3084 1428 2787 
Q 1159 2491 1159 1978 
L 1159 0 
L 581 0 
L 581 3500 
L 1159 3500 
L 1159 2956 
Q 1366 3272 1645 3428 
Q 1925 3584 2291 3584 
Q 2894 3584 3203 3211 
Q 3513 2838 3513 2113 
z
" transform="scale(0.015625)"/>
       <path id="DejaVuSans-75" d="M 544 1381 
L 544 3500 
L 1119 3500 
L 1119 1403 
Q 1119 906 1312 657 
Q 1506 409 1894 409 
Q 2359 409 2629 706 
Q 2900 1003 2900 1516 
L 2900 3500 
L 3475 3500 
L 3475 0 
L 2900 0 
L 2900 538 
Q 2691 219 2414 64 
Q 2138 -91 1772 -91 
Q 1169 -91 856 284 
Q 544 659 544 1381 
z
M 1991 3584 
L 1991 3584 
z
" transform="scale(0.015625)"/>
       <path id="DejaVuSans-6d" d="M 3328 2828 
Q 3544 3216 3844 3400 
Q 4144 3584 4550 3584 
Q 5097 3584 5394 3201 
Q 5691 2819 5691 2113 
L 5691 0 
L 5113 0 
L 5113 2094 
Q 5113 2597 4934 2840 
Q 4756 3084 4391 3084 
Q 3944 3084 3684 2787 
Q 3425 2491 3425 1978 
L 3425 0 
L 2847 0 
L 2847 2094 
Q 2847 2600 2669 2842 
Q 2491 3084 2119 3084 
Q 1678 3084 1418 2786 
Q 1159 2488 1159 1978 
L 1159 0 
L 581 0 
L 581 3500 
L 1159 3500 
L 1159 2956 
Q 1356 3278 1631 3431 
Q 1906 3584 2284 3584 
Q 2666 3584 2933 3390 
Q 3200 3197 3328 2828 
z
" transform="scale(0.015625)"/>
       <path id="DejaVuSans-20" transform="scale(0.015625)"/>
       <path id="DejaVuSans-73" d="M 2834 3397 
L 2834 2853 
Q 2591 2978 2328 3040 
Q 2066 3103 1784 3103 
Q 1356 3103 1142 2972 
Q 928 2841 928 2578 
Q 928 2378 1081 2264 
Q 1234 2150 1697 2047 
L 1894 2003 
Q 2506 1872 2764 1633 
Q 3022 1394 3022 966 
Q 3022 478 2636 193 
Q 2250 -91 1575 -91 
Q 1294 -91 989 -36 
Q 684 19 347 128 
L 347 722 
Q 666 556 975 473 
Q 1284 391 1588 391 
Q 1994 391 2212 530 
Q 2431 669 2431 922 
Q 2431 1156 2273 1281 
Q 2116 1406 1581 1522 
L 1381 1569 
Q 847 1681 609 1914 
Q 372 2147 372 2553 
Q 372 3047 722 3315 
Q 1072 3584 1716 3584 
Q 2034 3584 2315 3537 
Q 2597 3491 2834 3397 
z
" transform="scale(0.015625)"/>
       <path id="DejaVuSans-77" d="M 269 3500 
L 844 3500 
L 1563 769 
L 2278 3500 
L 2956 3500 
L 3675 769 
L 4391 3500 
L 4966 3500 
L 4050 0 
L 3372 0 
L 2619 2869 
L 1863 0 
L 1184 0 
L 269 3500 
z
" transform="scale(0.015625)"/>
       <path id="DejaVuSans-61" d="M 2194 1759 
Q 1497 1759 1228 1600 
Q 959 1441 959 1056 
Q 959 750 1161 570 
Q 1363 391 1709 391 
Q 2188 391 2477 730 
Q 2766 1069 2766 1631 
L 2766 1759 
L 2194 1759 
z
M 3341 1997 
L 3341 0 
L 2766 0 
L 2766 531 
Q 2569 213 2275 61 
Q 1981 -91 1556 -91 
Q 1019 -91 701 211 
Q 384 513 384 1019 
Q 384 1609 779 1909 
Q 1175 2209 1959 2209 
L 2766 2209 
L 2766 2266 
Q 2766 2663 2505 2880 
Q 2244 3097 1772 3097 
Q 1472 3097 1187 3025 
Q 903 2953 641 2809 
L 641 3341 
Q 956 3463 1253 3523 
Q 1550 3584 1831 3584 
Q 2591 3584 2966 3190 
Q 3341 2797 3341 1997 
z
" transform="scale(0.015625)"/>
       <path id="DejaVuSans-70" d="M 1159 525 
L 1159 -1331 
L 581 -1331 
L 581 3500 
L 1159 3500 
L 1159 2969 
Q 1341 3281 1617 3432 
Q 1894 3584 2278 3584 
Q 2916 3584 3314 3078 
Q 3713 2572 3713 1747 
Q 3713 922 3314 415 
Q 2916 -91 2278 -91 
Q 1894 -91 1617 61 
Q 1341 213 1159 525 
z
M 3116 1747 
Q 3116 2381 2855 2742 
Q 2594 3103 2138 3103 
Q 1681 3103 1420 2742 
Q 1159 2381 1159 1747 
Q 1159 1113 1420 752 
Q 1681 391 2138 391 
Q 2594 391 2855 752 
Q 3116 1113 3116 1747 
z
" transform="scale(0.015625)"/>
      </defs>
      <use xlink:href="#DejaVuSans-6e"/>
      <use xlink:href="#DejaVuSans-75" x="63.378906"/>
      <use xlink:href="#DejaVuSans-6d" x="126.757812"/>
      <use xlink:href="#DejaVuSans-20" x="224.169922"/>
      <use xlink:href="#DejaVuSans-73" x="255.957031"/>
      <use xlink:href="#DejaVuSans-77" x="308.056641"/>
      <use xlink:href="#DejaVuSans-61" x="389.84375"/>
      <use xlink:href="#DejaVuSans-70" x="451.123047"/>
      <use xlink:href="#DejaVuSans-73" x="514.599609"/>
     </g>
    </g>
   </g>
   <g id="matplotlib.axis_2">
    <g id="ytick_1">
     <g id="line2d_6">
      <defs>
       <path id="mce7f5ee980" d="M 0 0 
L -3.5 0 
" style="stroke: #000000; stroke-width: 0.8"/>
      </defs>
      <g>
       <use xlink:href="#mce7f5ee980" x="57.6" y="257.688" style="stroke: #000000; stroke-width: 0.8"/>
      </g>
     </g>
     <g id="text_7">
      <!-- 500 -->
      <g transform="translate(31.5125 261.487219)scale(0.1 -0.1)">
       <use xlink:href="#DejaVuSans-35"/>
       <use xlink:href="#DejaVuSans-30" x="63.623047"/>
       <use xlink:href="#DejaVuSans-30" x="127.246094"/>
      </g>
     </g>
    </g>
    <g id="ytick_2">
     <g id="line2d_7">
      <g>
       <use xlink:href="#mce7f5ee980" x="57.6" y="207.288" style="stroke: #000000; stroke-width: 0.8"/>
      </g>
     </g>
     <g id="text_8">
      <!-- 520 -->
      <g transform="translate(31.5125 211.087219)scale(0.1 -0.1)">
       <use xlink:href="#DejaVuSans-35"/>
       <use xlink:href="#DejaVuSans-32" x="63.623047"/>
       <use xlink:href="#DejaVuSans-30" x="127.246094"/>
      </g>
     </g>
    </g>
    <g id="ytick_3">
     <g id="line2d_8">
      <g>
       <use xlink:href="#mce7f5ee980" x="57.6" y="156.888" style="stroke: #000000; stroke-width: 0.8"/>
      </g>
     </g>
     <g id="text_9">
      <!-- 540 -->
      <g transform="translate(31.5125 160.687219)scale(0.1 -0.1)">
       <defs>
        <path id="DejaVuSans-34" d="M 2419 4116 
L 825 1625 
L 2419 1625 
L 2419 4116 
z
M 2253 4666 
L 3047 4666 
L 3047 1625 
L 3713 1625 
L 3713 1100 
L 3047 1100 
L 3047 0 
L 2419 0 
L 2419 1100 
L 313 1100 
L 313 1709 
L 2253 4666 
z
" transform="scale(0.015625)"/>
       </defs>
       <use xlink:href="#DejaVuSans-35"/>
       <use xlink:href="#DejaVuSans-34" x="63.623047"/>
       <use xlink:href="#DejaVuSans-30" x="127.246094"/>
      </g>
     </g>
    </g>
    <g id="ytick_4">
     <g id="line2d_9">
      <g>
       <use xlink:href="#mce7f5ee980" x="57.6" y="106.488" style="stroke: #000000; stroke-width: 0.8"/>
      </g>
     </g>
     <g id="text_10">
      <!-- 560 -->
      <g transform="translate(31.5125 110.287219)scale(0.1 -0.1)">
       <defs>
        <path id="DejaVuSans-36" d="M 2113 2584 
Q 1688 2584 1439 2293 
Q 1191 2003 1191 1497 
Q 1191 994 1439 701 
Q 1688 409 2113 409 
Q 2538 409 2786 701 
Q 3034 994 3034 1497 
Q 3034 2003 2786 2293 
Q 2538 2584 2113 2584 
z
M 3366 4563 
L 3366 3988 
Q 3128 4100 2886 4159 
Q 2644 4219 2406 4219 
Q 1781 4219 1451 3797 
Q 1122 3375 1075 2522 
Q 1259 2794 1537 2939 
Q 1816 3084 2150 3084 
Q 2853 3084 3261 2657 
Q 3669 2231 3669 1497 
Q 3669 778 3244 343 
Q 2819 -91 2113 -91 
Q 1303 -91 875 529 
Q 447 1150 447 2328 
Q 447 3434 972 4092 
Q 1497 4750 2381 4750 
Q 2619 4750 2861 4703 
Q 3103 4656 3366 4563 
z
" transform="scale(0.015625)"/>
       </defs>
       <use xlink:href="#DejaVuSans-35"/>
       <use xlink:href="#DejaVuSans-36" x="63.623047"/>
       <use xlink:href="#DejaVuSans-30" x="127.246094"/>
      </g>
     </g>
    </g>
    <g id="ytick_5">
     <g id="line2d_10">
      <g>
       <use xlink:href="#mce7f5ee980" x="57.6" y="56.088" style="stroke: #000000; stroke-width: 0.8"/>
      </g>
     </g>
     <g id="text_11">
      <!-- 580 -->
      <g transform="translate(31.5125 59.887219)scale(0.1 -0.1)">
       <defs>
        <path id="DejaVuSans-38" d="M 2034 2216 
Q 1584 2216 1326 1975 
Q 1069 1734 1069 1313 
Q 1069 891 1326 650 
Q 1584 409 2034 409 
Q 2484 409 2743 651 
Q 3003 894 3003 1313 
Q 3003 1734 2745 1975 
Q 2488 2216 2034 2216 
z
M 1403 2484 
Q 997 2584 770 2862 
Q 544 3141 544 3541 
Q 544 4100 942 4425 
Q 1341 4750 2034 4750 
Q 2731 4750 3128 4425 
Q 3525 4100 3525 3541 
Q 3525 3141 3298 2862 
Q 3072 2584 2669 2484 
Q 3125 2378 3379 2068 
Q 3634 1759 3634 1313 
Q 3634 634 3220 271 
Q 2806 -91 2034 -91 
Q 1263 -91 848 271 
Q 434 634 434 1313 
Q 434 1759 690 2068 
Q 947 2378 1403 2484 
z
M 1172 3481 
Q 1172 3119 1398 2916 
Q 1625 2713 2034 2713 
Q 2441 2713 2670 2916 
Q 2900 3119 2900 3481 
Q 2900 3844 2670 4047 
Q 2441 4250 2034 4250 
Q 1625 4250 1398 4047 
Q 1172 3844 1172 3481 
z
" transform="scale(0.015625)"/>
       </defs>
       <use xlink:href="#DejaVuSans-35"/>
       <use xlink:href="#DejaVuSans-38" x="63.623047"/>
       <use xlink:href="#DejaVuSans-30" x="127.246094"/>
      </g>
     </g>
    </g>
    <g id="text_12">
     <!-- total cost -->
     <g transform="translate(25.432812 197.923313)rotate(-90)scale(0.1 -0.1)">
      <defs>
       <path id="DejaVuSans-74" d="M 1172 4494 
L 1172 3500 
L 2356 3500 
L 2356 3053 
L 1172 3053 
L 1172 1153 
Q 1172 725 1289 603 
Q 1406 481 1766 481 
L 2356 481 
L 2356 0 
L 1766 0 
Q 1100 0 847 248 
Q 594 497 594 1153 
L 594 3053 
L 172 3053 
L 172 3500 
L 594 3500 
L 594 4494 
L 1172 4494 
z
" transform="scale(0.015625)"/>
       <path id="DejaVuSans-6f" d="M 1959 3097 
Q 1497 3097 1228 2736 
Q 959 2375 959 1747 
Q 959 1119 1226 758 
Q 1494 397 1959 397 
Q 2419 397 2687 759 
Q 2956 1122 2956 1747 
Q 2956 2369 2687 2733 
Q 2419 3097 1959 3097 
z
M 1959 3584 
Q 2709 3584 3137 3096 
Q 3566 2609 3566 1747 
Q 3566 888 3137 398 
Q 2709 -91 1959 -91 
Q 1206 -91 779 398 
Q 353 888 353 1747 
Q 353 2609 779 3096 
Q 1206 3584 1959 3584 
z
" transform="scale(0.015625)"/>
       <path id="DejaVuSans-6c" d="M 603 4863 
L 1178 4863 
L 1178 0 
L 603 0 
L 603 4863 
z
" transform="scale(0.015625)"/>
       <path id="DejaVuSans-63" d="M 3122 3366 
L 3122 2828 
Q 2878 2963 2633 3030 
Q 2388 3097 2138 3097 
Q 1578 3097 1268 2742 
Q 959 2388 959 1747 
Q 959 1106 1268 751 
Q 1578 397 2138 397 
Q 2388 397 2633 464 
Q 2878 531 3122 666 
L 3122 134 
Q 2881 22 2623 -34 
Q 2366 -91 2075 -91 
Q 1284 -91 818 406 
Q 353 903 353 1747 
Q 353 2603 823 3093 
Q 1294 3584 2113 3584 
Q 2378 3584 2631 3529 
Q 2884 3475 3122 3366 
z
" transform="scale(0.015625)"/>
      </defs>
      <use xlink:href="#DejaVuSans-74"/>
      <use xlink:href="#DejaVuSans-6f" x="39.208984"/>
      <use xlink:href="#DejaVuSans-74" x="100.390625"/>
      <use xlink:href="#DejaVuSans-61" x="139.599609"/>
      <use xlink:href="#DejaVuSans-6c" x="200.878906"/>
      <use xlink:href="#DejaVuSans-20" x="228.662109"/>
      <use xlink:href="#DejaVuSans-63" x="260.449219"/>
      <use xlink:href="#DejaVuSans-6f" x="315.429688"/>
      <use xlink:href="#DejaVuSans-73" x="376.611328"/>
      <use xlink:href="#DejaVuSans-74" x="428.710938"/>
     </g>
    </g>
   </g>
   <g id="line2d_11">
    <path d="M 73.832727 88.848 
L 74.139584 114.048 
L 74.446441 109.008 
L 74.753298 83.808 
L 75.060155 116.568 
L 75.673868 121.608 
L 75.980725 146.808 
L 76.287582 151.848 
L 76.594439 149.328 
L 76.901296 177.048 
L 77.208153 159.408 
L 77.515009 161.928 
L 77.821866 129.168 
L 78.128723 116.568 
L 78.43558 73.728 
L 79.049294 86.328 
L 79.356151 106.488 
L 79.663007 111.528 
L 79.969864 88.848 
L 80.276721 83.808 
L 80.583578 109.008 
L 80.890435 114.048 
L 81.197292 116.568 
L 81.504148 103.968 
L 81.811005 136.728 
L 82.424719 121.608 
L 82.731576 146.808 
L 83.34529 166.968 
L 83.652146 149.328 
L 83.959003 177.048 
L 84.26586 174.528 
L 84.572717 174.528 
L 84.879574 169.488 
L 85.186431 151.848 
L 85.493288 154.368 
L 86.107001 164.448 
L 86.720715 126.648 
L 87.334429 151.848 
L 87.641285 154.368 
L 88.254999 166.968 
L 88.561856 161.928 
L 88.868713 114.048 
L 89.17557 134.208 
L 89.482427 141.768 
L 89.789283 139.248 
L 90.402997 121.608 
L 90.709854 119.088 
L 91.323568 154.368 
L 91.630424 156.888 
L 91.937281 149.328 
L 92.244138 126.648 
L 92.550995 151.848 
L 92.857852 164.448 
L 93.164709 136.728 
L 93.471566 144.288 
L 93.778422 136.728 
L 94.392136 146.808 
L 94.698993 139.248 
L 95.00585 106.488 
L 95.312707 101.448 
L 95.619563 119.088 
L 95.92642 126.648 
L 96.233277 124.128 
L 96.540134 134.208 
L 96.846991 126.648 
L 97.153848 101.448 
L 97.767561 136.728 
L 98.074418 156.888 
L 98.381275 164.448 
L 98.688132 134.208 
L 98.994989 159.408 
L 99.301846 146.808 
L 99.608703 141.768 
L 100.222416 106.488 
L 100.529273 111.528 
L 100.83613 111.528 
L 101.142987 114.048 
L 101.7567 131.688 
L 102.063557 109.008 
L 102.370414 154.368 
L 102.677271 159.408 
L 102.984128 124.128 
L 103.290985 139.248 
L 103.597842 146.808 
L 104.211555 146.808 
L 104.518412 159.408 
L 104.825269 161.928 
L 105.132126 156.888 
L 105.438983 209.808 
L 105.745839 209.808 
L 106.052696 199.728 
L 106.66641 164.448 
L 106.973267 146.808 
L 107.280124 151.848 
L 107.586981 159.408 
L 107.893837 146.808 
L 108.507551 179.568 
L 108.814408 154.368 
L 109.121265 159.408 
L 109.428122 149.328 
L 109.734979 151.848 
L 110.041835 139.248 
L 110.348692 146.808 
L 110.962406 71.208 
L 111.269263 88.848 
L 111.57612 144.288 
L 111.882976 119.088 
L 112.189833 116.568 
L 112.49669 109.008 
L 112.803547 126.648 
L 113.110404 136.728 
L 113.417261 129.168 
L 113.724118 93.888 
L 114.030974 98.928 
L 114.337831 134.208 
L 114.644688 124.128 
L 114.951545 134.208 
L 115.258402 129.168 
L 115.565259 149.328 
L 115.872115 144.288 
L 116.178972 149.328 
L 116.485829 124.128 
L 116.792686 111.528 
L 117.099543 114.048 
L 117.4064 121.608 
L 117.713257 106.488 
L 118.020113 106.488 
L 118.32697 103.968 
L 118.633827 103.968 
L 119.247541 126.648 
L 119.554398 109.008 
L 119.861255 106.488 
L 120.168111 121.608 
L 120.474968 154.368 
L 120.781825 139.248 
L 121.088682 141.768 
L 121.395539 129.168 
L 121.702396 146.808 
L 122.009252 131.688 
L 122.316109 134.208 
L 122.622966 121.608 
L 122.929823 119.088 
L 123.23668 106.488 
L 123.850394 124.128 
L 124.464107 91.368 
L 124.770964 101.448 
L 125.077821 88.848 
L 125.384678 93.888 
L 125.691535 66.168 
L 125.998391 63.648 
L 126.305248 71.208 
L 126.612105 66.168 
L 126.918962 91.368 
L 127.225819 103.968 
L 127.532676 103.968 
L 127.839533 136.728 
L 128.146389 154.368 
L 128.453246 156.888 
L 128.760103 131.688 
L 129.06696 159.408 
L 129.373817 169.488 
L 129.680674 172.008 
L 129.987531 182.088 
L 130.294387 169.488 
L 130.601244 146.808 
L 130.908101 141.768 
L 131.214958 156.888 
L 131.828672 146.808 
L 132.135528 144.288 
L 133.056099 93.888 
L 133.362956 83.808 
L 133.669813 83.808 
L 133.97667 106.488 
L 134.283526 109.008 
L 134.590383 116.568 
L 134.89724 119.088 
L 135.204097 114.048 
L 135.510954 116.568 
L 135.817811 114.048 
L 136.738381 154.368 
L 137.352095 114.048 
L 137.658952 103.968 
L 137.965809 101.448 
L 138.272665 88.848 
L 138.579522 86.328 
L 138.886379 88.848 
L 139.500093 151.848 
L 139.80695 164.448 
L 140.113806 161.928 
L 140.420663 164.448 
L 140.72752 149.328 
L 141.034377 149.328 
L 141.341234 136.728 
L 141.648091 134.208 
L 141.954948 146.808 
L 142.261804 129.168 
L 142.568661 151.848 
L 142.875518 149.328 
L 143.489232 159.408 
L 143.796089 166.968 
L 144.102946 121.608 
L 144.409802 124.128 
L 144.716659 131.688 
L 145.023516 131.688 
L 145.330373 129.168 
L 145.63723 144.288 
L 145.944087 136.728 
L 146.5578 154.368 
L 146.864657 141.768 
L 147.171514 136.728 
L 147.478371 146.808 
L 147.785228 144.288 
L 148.092085 172.008 
L 148.398941 164.448 
L 148.705798 161.928 
L 149.012655 164.448 
L 149.319512 141.768 
L 149.626369 144.288 
L 149.933226 164.448 
L 150.240082 159.408 
L 150.546939 134.208 
L 150.853796 141.768 
L 151.160653 141.768 
L 151.46751 146.808 
L 151.774367 172.008 
L 152.081224 166.968 
L 152.38808 146.808 
L 152.694937 159.408 
L 153.001794 159.408 
L 153.308651 141.768 
L 153.615508 149.328 
L 153.922365 149.328 
L 154.536078 189.648 
L 154.842935 194.688 
L 155.149792 224.928 
L 155.456649 214.848 
L 155.763506 199.728 
L 156.070363 204.768 
L 156.377219 212.328 
L 156.684076 214.848 
L 156.990933 182.088 
L 157.29779 169.488 
L 157.604647 194.688 
L 158.218361 177.048 
L 158.525217 156.888 
L 159.138931 151.848 
L 159.445788 146.808 
L 160.059502 151.848 
L 160.366358 169.488 
L 160.673215 154.368 
L 160.980072 172.008 
L 161.286929 174.528 
L 161.900643 151.848 
L 162.2075 141.768 
L 162.514356 156.888 
L 162.821213 151.848 
L 163.12807 134.208 
L 163.741784 151.848 
L 164.048641 161.928 
L 164.355498 139.248 
L 164.662354 149.328 
L 164.969211 146.808 
L 165.276068 139.248 
L 165.582925 144.288 
L 165.889782 131.688 
L 166.196639 136.728 
L 166.503495 144.288 
L 166.810352 124.128 
L 167.117209 78.768 
L 167.424066 96.408 
L 167.730923 91.368 
L 168.03778 96.408 
L 168.344637 96.408 
L 168.651493 98.928 
L 168.95835 156.888 
L 169.265207 149.328 
L 169.572064 136.728 
L 169.878921 139.248 
L 170.185778 136.728 
L 170.492634 164.448 
L 170.799491 166.968 
L 171.106348 172.008 
L 171.413205 189.648 
L 171.720062 179.568 
L 172.026919 179.568 
L 172.333776 172.008 
L 172.640632 174.528 
L 172.947489 192.168 
L 173.561203 159.408 
L 173.86806 154.368 
L 174.174917 164.448 
L 174.481774 161.928 
L 174.78863 174.528 
L 175.095487 166.968 
L 175.402344 154.368 
L 175.709201 146.808 
L 176.016058 172.008 
L 176.322915 174.528 
L 176.629771 161.928 
L 176.936628 172.008 
L 177.243485 149.328 
L 177.550342 179.568 
L 177.857199 187.128 
L 178.164056 187.128 
L 178.470913 194.688 
L 178.777769 164.448 
L 179.084626 166.968 
L 179.69834 149.328 
L 180.005197 136.728 
L 180.312054 146.808 
L 180.61891 131.688 
L 180.925767 131.688 
L 181.232624 161.928 
L 181.846338 141.768 
L 182.153195 154.368 
L 182.766908 136.728 
L 183.073765 103.968 
L 183.380622 116.568 
L 183.687479 124.128 
L 183.994336 111.528 
L 184.301193 103.968 
L 184.914906 121.608 
L 185.221763 116.568 
L 185.52862 101.448 
L 185.835477 129.168 
L 186.142334 126.648 
L 186.449191 119.088 
L 186.756047 121.608 
L 187.062904 126.648 
L 187.983475 166.968 
L 188.597189 161.928 
L 188.904045 149.328 
L 189.210902 146.808 
L 189.517759 172.008 
L 189.824616 172.008 
L 190.131473 131.688 
L 190.43833 129.168 
L 190.745186 149.328 
L 191.052043 156.888 
L 191.3589 156.888 
L 191.665757 141.768 
L 191.972614 114.048 
L 192.279471 134.208 
L 192.586328 114.048 
L 192.893184 129.168 
L 193.200041 114.048 
L 193.506898 124.128 
L 193.813755 124.128 
L 194.120612 149.328 
L 194.427469 161.928 
L 195.041182 139.248 
L 195.348039 109.008 
L 195.654896 114.048 
L 195.961753 111.528 
L 196.26861 124.128 
L 196.575467 114.048 
L 196.882323 121.608 
L 197.18918 119.088 
L 197.802894 136.728 
L 198.109751 124.128 
L 198.416608 134.208 
L 198.723465 149.328 
L 199.030321 151.848 
L 199.337178 166.968 
L 199.644035 164.448 
L 199.950892 166.968 
L 200.257749 151.848 
L 200.564606 151.848 
L 200.871462 149.328 
L 201.485176 179.568 
L 201.792033 161.928 
L 202.09889 182.088 
L 202.405747 179.568 
L 202.712604 194.688 
L 203.633174 172.008 
L 203.940031 144.288 
L 204.246888 139.248 
L 204.553745 129.168 
L 204.860601 114.048 
L 205.167458 131.688 
L 205.474315 124.128 
L 205.781172 144.288 
L 206.088029 151.848 
L 206.394886 141.768 
L 206.701743 141.768 
L 207.008599 136.728 
L 207.315456 136.728 
L 207.92917 111.528 
L 208.236027 124.128 
L 208.542884 66.168 
L 208.849741 98.928 
L 209.156597 106.488 
L 209.463454 121.608 
L 209.770311 124.128 
L 210.077168 139.248 
L 210.384025 126.648 
L 210.690882 131.688 
L 210.997738 121.608 
L 211.304595 131.688 
L 211.611452 119.088 
L 212.225166 134.208 
L 212.532023 126.648 
L 212.83888 139.248 
L 213.145736 179.568 
L 213.452593 172.008 
L 213.75945 159.408 
L 214.066307 151.848 
L 214.680021 194.688 
L 214.986877 184.608 
L 215.293734 209.808 
L 215.600591 209.808 
L 216.214305 222.408 
L 216.521162 219.888 
L 216.828019 227.448 
L 217.134875 214.848 
L 217.441732 237.528 
L 217.748589 232.488 
L 218.055446 229.968 
L 218.362303 209.808 
L 218.66916 209.808 
L 218.976016 224.928 
L 219.282873 222.408 
L 219.58973 229.968 
L 219.896587 207.288 
L 220.203444 214.848 
L 220.817158 209.808 
L 221.430871 166.968 
L 221.737728 172.008 
L 222.044585 159.408 
L 222.351442 154.368 
L 222.965156 136.728 
L 223.272012 146.808 
L 223.885726 124.128 
L 224.192583 144.288 
L 224.49944 141.768 
L 224.806297 146.808 
L 225.113153 179.568 
L 225.42001 187.128 
L 225.726867 166.968 
L 226.033724 207.288 
L 226.647438 232.488 
L 226.954295 257.688 
L 227.261151 235.008 
L 227.568008 257.688 
L 227.874865 265.248 
L 228.181722 242.568 
L 228.488579 237.528 
L 228.795436 177.048 
L 229.102292 144.288 
L 229.409149 177.048 
L 229.716006 174.528 
L 230.022863 146.808 
L 230.32972 144.288 
L 230.943434 126.648 
L 231.25029 109.008 
L 231.864004 114.048 
L 232.170861 121.608 
L 232.477718 121.608 
L 232.784575 116.568 
L 233.091432 114.048 
L 233.398288 134.208 
L 233.705145 136.728 
L 234.012002 141.768 
L 234.318859 139.248 
L 234.932573 177.048 
L 235.239429 184.608 
L 235.546286 187.128 
L 235.853143 192.168 
L 236.16 204.768 
L 236.466857 189.648 
L 236.773714 146.808 
L 237.080571 144.288 
L 237.387427 121.608 
L 237.694284 141.768 
L 238.001141 144.288 
L 238.614855 144.288 
L 238.921712 159.408 
L 239.228568 146.808 
L 239.535425 177.048 
L 239.842282 179.568 
L 240.149139 192.168 
L 240.455996 192.168 
L 240.762853 174.528 
L 241.06971 172.008 
L 241.376566 177.048 
L 241.99028 172.008 
L 242.297137 136.728 
L 242.603994 136.728 
L 242.910851 151.848 
L 243.524564 156.888 
L 243.831421 156.888 
L 244.138278 139.248 
L 244.445135 139.248 
L 245.058849 134.208 
L 245.365705 149.328 
L 245.672562 136.728 
L 245.979419 146.808 
L 246.286276 109.008 
L 246.593133 151.848 
L 246.89999 151.848 
L 247.513703 86.328 
L 247.82056 88.848 
L 248.127417 86.328 
L 248.434274 114.048 
L 248.741131 121.608 
L 249.047988 141.768 
L 249.354844 144.288 
L 249.661701 144.288 
L 249.968558 169.488 
L 250.275415 159.408 
L 250.582272 169.488 
L 250.889129 169.488 
L 251.195986 151.848 
L 251.809699 184.608 
L 252.116556 184.608 
L 252.423413 182.088 
L 252.73027 187.128 
L 253.037127 199.728 
L 253.343984 217.368 
L 253.65084 227.448 
L 253.957697 212.328 
L 254.264554 222.408 
L 254.571411 224.928 
L 254.878268 229.968 
L 255.185125 240.048 
L 255.491981 242.568 
L 255.798838 209.808 
L 256.105695 197.208 
L 256.412552 197.208 
L 256.719409 192.168 
L 257.639979 292.968 
L 257.946836 295.488 
L 258.253693 292.968 
L 258.56055 287.928 
L 258.867407 287.928 
L 259.174264 262.728 
L 259.787977 287.928 
L 260.094834 237.528 
L 260.401691 229.968 
L 260.708548 197.208 
L 261.015405 179.568 
L 261.322262 197.208 
L 261.935975 166.968 
L 262.242832 172.008 
L 262.856546 136.728 
L 263.163403 136.728 
L 263.470259 139.248 
L 263.777116 144.288 
L 264.083973 166.968 
L 264.39083 166.968 
L 264.697687 172.008 
L 265.004544 172.008 
L 265.311401 164.448 
L 265.618257 144.288 
L 265.925114 134.208 
L 266.231971 88.848 
L 266.538828 88.848 
L 266.845685 83.808 
L 267.459399 71.208 
L 267.766255 66.168 
L 268.073112 73.728 
L 268.379969 68.688 
L 268.993683 114.048 
L 269.30054 98.928 
L 269.607396 109.008 
L 269.914253 114.048 
L 270.22111 124.128 
L 270.527967 141.768 
L 270.834824 124.128 
L 271.448538 141.768 
L 271.755394 139.248 
L 272.062251 131.688 
L 272.369108 139.248 
L 272.675965 136.728 
L 272.982822 149.328 
L 273.289679 172.008 
L 273.596535 144.288 
L 273.903392 139.248 
L 274.210249 151.848 
L 274.517106 111.528 
L 274.823963 93.888 
L 275.437677 73.728 
L 275.744533 73.728 
L 276.05139 116.568 
L 276.358247 116.568 
L 276.971961 98.928 
L 277.278818 121.608 
L 277.585675 111.528 
L 278.199388 106.488 
L 278.813102 78.768 
L 279.119959 78.768 
L 279.426816 81.288 
L 279.733672 78.768 
L 280.040529 83.808 
L 280.654243 134.208 
L 280.9611 131.688 
L 281.267957 154.368 
L 281.574814 159.408 
L 281.88167 159.408 
L 282.188527 154.368 
L 282.802241 169.488 
L 283.109098 131.688 
L 283.415955 156.888 
L 283.722811 144.288 
L 284.029668 159.408 
L 284.336525 151.848 
L 284.643382 161.928 
L 284.950239 164.448 
L 285.257096 114.048 
L 285.563953 101.448 
L 285.870809 101.448 
L 286.177666 114.048 
L 286.484523 83.808 
L 286.79138 103.968 
L 287.098237 88.848 
L 287.405094 88.848 
L 287.711951 91.368 
L 288.018807 81.288 
L 288.325664 83.808 
L 288.632521 76.248 
L 288.939378 61.128 
L 289.246235 81.288 
L 289.553092 76.248 
L 289.859948 68.688 
L 290.166805 81.288 
L 290.780519 91.368 
L 291.087376 116.568 
L 291.394233 131.688 
L 291.70109 136.728 
L 292.007946 159.408 
L 292.314803 149.328 
L 292.62166 172.008 
L 292.928517 184.608 
L 293.235374 166.968 
L 293.542231 169.488 
L 293.849087 174.528 
L 294.155944 174.528 
L 294.462801 161.928 
L 294.769658 166.968 
L 295.076515 141.768 
L 295.383372 144.288 
L 295.690229 129.168 
L 295.997085 134.208 
L 296.917656 189.648 
L 297.224513 161.928 
L 297.53137 166.968 
L 297.838226 159.408 
L 298.45194 174.528 
L 298.758797 161.928 
L 299.065654 141.768 
L 299.372511 151.848 
L 299.679368 121.608 
L 299.986224 119.088 
L 300.293081 119.088 
L 300.599938 124.128 
L 300.906795 174.528 
L 301.213652 177.048 
L 301.520509 177.048 
L 301.827366 187.128 
L 302.134222 172.008 
L 302.441079 179.568 
L 302.747936 146.808 
L 303.054793 159.408 
L 303.36165 182.088 
L 303.975363 209.808 
L 304.28222 194.688 
L 304.589077 189.648 
L 304.895934 202.248 
L 305.202791 156.888 
L 305.509648 144.288 
L 305.816505 141.768 
L 306.123361 174.528 
L 306.430218 182.088 
L 306.737075 172.008 
L 307.043932 174.528 
L 307.350789 184.608 
L 307.657646 179.568 
L 307.964502 187.128 
L 308.271359 179.568 
L 308.885073 199.728 
L 309.19193 187.128 
L 309.498787 189.648 
L 309.805644 184.608 
L 310.1125 227.448 
L 310.419357 217.368 
L 310.726214 240.048 
L 311.339928 250.128 
L 311.646785 242.568 
L 311.953642 260.208 
L 312.567355 277.848 
L 313.487926 227.448 
L 313.794783 240.048 
L 314.101639 240.048 
L 314.408496 229.968 
L 315.02221 260.208 
L 315.329067 262.728 
L 315.635924 240.048 
L 315.942781 232.488 
L 316.249637 219.888 
L 316.556494 184.608 
L 316.863351 199.728 
L 317.170208 194.688 
L 317.477065 199.728 
L 317.783922 174.528 
L 318.397635 169.488 
L 319.318206 184.608 
L 319.625063 172.008 
L 319.93192 172.008 
L 320.238776 197.208 
L 320.545633 202.248 
L 320.85249 161.928 
L 321.159347 164.448 
L 321.466204 177.048 
L 321.773061 179.568 
L 322.079918 207.288 
L 322.386774 174.528 
L 322.693631 169.488 
L 323.000488 202.248 
L 323.307345 179.568 
L 323.614202 166.968 
L 324.227915 129.168 
L 324.534772 121.608 
L 324.841629 136.728 
L 325.7622 156.888 
L 326.069057 161.928 
L 326.375913 207.288 
L 326.68277 189.648 
L 326.989627 161.928 
L 327.296484 146.808 
L 327.603341 119.088 
L 327.910198 111.528 
L 328.217054 93.888 
L 328.523911 103.968 
L 328.830768 68.688 
L 329.137625 96.408 
L 329.444482 93.888 
L 329.751339 103.968 
L 330.058196 96.408 
L 330.365052 119.088 
L 330.671909 109.008 
L 331.285623 144.288 
L 331.899337 179.568 
L 332.206194 177.048 
L 332.51305 156.888 
L 332.819907 129.168 
L 333.126764 131.688 
L 333.433621 139.248 
L 333.740478 139.248 
L 334.661048 83.808 
L 334.967905 111.528 
L 335.274762 126.648 
L 335.581619 151.848 
L 335.888476 131.688 
L 336.195333 124.128 
L 336.502189 121.608 
L 336.809046 106.488 
L 337.115903 103.968 
L 337.42276 109.008 
L 337.729617 91.368 
L 338.036474 103.968 
L 338.34333 91.368 
L 338.650187 111.528 
L 338.957044 93.888 
L 339.263901 83.808 
L 339.570758 88.848 
L 339.877615 111.528 
L 340.491328 111.528 
L 341.105042 86.328 
L 341.411899 111.528 
L 341.718756 109.008 
L 342.025613 116.568 
L 342.332469 119.088 
L 342.639326 129.168 
L 342.946183 131.688 
L 343.25304 58.608 
L 343.559897 53.568 
L 343.866754 106.488 
L 344.480467 129.168 
L 344.787324 151.848 
L 345.401038 103.968 
L 345.707895 109.008 
L 346.014752 103.968 
L 346.321609 103.968 
L 346.628465 124.128 
L 346.935322 121.608 
L 347.242179 116.568 
L 347.549036 129.168 
L 347.855893 111.528 
L 348.16275 109.008 
L 348.469606 98.928 
L 348.776463 98.928 
L 349.08332 71.208 
L 349.390177 86.328 
L 349.697034 131.688 
L 350.003891 149.328 
L 350.310748 136.728 
L 350.617604 154.368 
L 350.924461 141.768 
L 351.231318 139.248 
L 351.845032 121.608 
L 352.151889 131.688 
L 352.458745 131.688 
L 352.765602 129.168 
L 353.072459 116.568 
L 353.379316 114.048 
L 353.686173 114.048 
L 353.99303 126.648 
L 354.606743 114.048 
L 354.9136 114.048 
L 355.220457 119.088 
L 355.527314 129.168 
L 355.834171 134.208 
L 356.141028 146.808 
L 356.754741 159.408 
L 357.061598 139.248 
L 357.368455 131.688 
L 357.675312 174.528 
L 357.982169 187.128 
L 358.289026 172.008 
L 358.595882 182.088 
L 358.902739 187.128 
L 359.209596 141.768 
L 359.516453 144.288 
L 359.82331 154.368 
L 360.130167 144.288 
L 360.437024 164.448 
L 360.74388 156.888 
L 361.050737 156.888 
L 361.357594 161.928 
L 361.664451 174.528 
L 361.971308 159.408 
L 362.278165 172.008 
L 362.585021 207.288 
L 362.891878 212.328 
L 363.198735 199.728 
L 363.505592 207.288 
L 363.812449 219.888 
L 364.119306 189.648 
L 364.426163 187.128 
L 364.733019 192.168 
L 365.039876 182.088 
L 365.346733 179.568 
L 365.65359 169.488 
L 365.960447 169.488 
L 366.267304 174.528 
L 366.574161 174.528 
L 366.881017 154.368 
L 367.187874 161.928 
L 367.494731 161.928 
L 367.801588 146.808 
L 368.108445 164.448 
L 368.415302 134.208 
L 368.722158 129.168 
L 369.029015 131.688 
L 369.335872 136.728 
L 369.642729 144.288 
L 369.949586 131.688 
L 370.256443 129.168 
L 370.5633 161.928 
L 370.870156 149.328 
L 371.177013 161.928 
L 371.48387 156.888 
L 371.790727 169.488 
L 372.097584 169.488 
L 372.404441 177.048 
L 372.711297 174.528 
L 373.018154 179.568 
L 373.325011 156.888 
L 373.631868 151.848 
L 374.245582 199.728 
L 374.552439 202.248 
L 374.859295 184.608 
L 375.166152 184.608 
L 375.473009 182.088 
L 375.779866 184.608 
L 376.086723 189.648 
L 376.700437 222.408 
L 377.007293 204.768 
L 377.31415 229.968 
L 377.621007 232.488 
L 377.927864 245.088 
L 378.234721 262.728 
L 378.541578 207.288 
L 378.848434 189.648 
L 379.155291 182.088 
L 379.462148 187.128 
L 380.075862 169.488 
L 380.382719 182.088 
L 380.689576 172.008 
L 380.996432 184.608 
L 381.303289 179.568 
L 381.610146 179.568 
L 381.917003 177.048 
L 382.22386 164.448 
L 382.530717 179.568 
L 382.837573 184.608 
L 383.14443 169.488 
L 383.451287 179.568 
L 384.065001 189.648 
L 384.371858 174.528 
L 384.678715 139.248 
L 384.985571 159.408 
L 385.292428 139.248 
L 385.906142 116.568 
L 386.212999 139.248 
L 386.519856 174.528 
L 386.826712 161.928 
L 387.133569 154.368 
L 387.440426 161.928 
L 387.747283 164.448 
L 388.05414 169.488 
L 388.360997 177.048 
L 388.667854 156.888 
L 388.97471 174.528 
L 389.588424 169.488 
L 390.202138 187.128 
L 390.508995 192.168 
L 390.815852 202.248 
L 391.122708 197.208 
L 391.429565 235.008 
L 391.736422 209.808 
L 392.350136 182.088 
L 392.656993 174.528 
L 392.963849 154.368 
L 393.270706 151.848 
L 393.577563 129.168 
L 393.88442 124.128 
L 394.191277 111.528 
L 394.498134 126.648 
L 394.804991 172.008 
L 395.111847 179.568 
L 395.418704 202.248 
L 395.725561 174.528 
L 396.339275 199.728 
L 396.646132 202.248 
L 396.952988 199.728 
L 397.259845 199.728 
L 397.566702 209.808 
L 397.873559 192.168 
L 398.180416 192.168 
L 398.487273 222.408 
L 398.487273 222.408 
" clip-path="url(#p8afe2ef42f)" style="fill: none; stroke: #1f77b4; stroke-width: 1.5; stroke-linecap: square"/>
   </g>
   <g id="patch_3">
    <path d="M 57.6 307.584 
L 57.6 41.472 
" style="fill: none; stroke: #000000; stroke-width: 0.8; stroke-linejoin: miter; stroke-linecap: square"/>
   </g>
   <g id="patch_4">
    <path d="M 414.72 307.584 
L 414.72 41.472 
" style="fill: none; stroke: #000000; stroke-width: 0.8; stroke-linejoin: miter; stroke-linecap: square"/>
   </g>
   <g id="patch_5">
    <path d="M 57.6 307.584 
L 414.72 307.584 
" style="fill: none; stroke: #000000; stroke-width: 0.8; stroke-linejoin: miter; stroke-linecap: square"/>
   </g>
   <g id="patch_6">
    <path d="M 57.6 41.472 
L 414.72 41.472 
" style="fill: none; stroke: #000000; stroke-width: 0.8; stroke-linejoin: miter; stroke-linecap: square"/>
   </g>
   <g id="text_13">
    <!-- Simulated Anealling Cost -->
    <g transform="translate(160.8 35.472)scale(0.12 -0.12)">
     <defs>
      <path id="DejaVuSans-53" d="M 3425 4513 
L 3425 3897 
Q 3066 4069 2747 4153 
Q 2428 4238 2131 4238 
Q 1616 4238 1336 4038 
Q 1056 3838 1056 3469 
Q 1056 3159 1242 3001 
Q 1428 2844 1947 2747 
L 2328 2669 
Q 3034 2534 3370 2195 
Q 3706 1856 3706 1288 
Q 3706 609 3251 259 
Q 2797 -91 1919 -91 
Q 1588 -91 1214 -16 
Q 841 59 441 206 
L 441 856 
Q 825 641 1194 531 
Q 1563 422 1919 422 
Q 2459 422 2753 634 
Q 3047 847 3047 1241 
Q 3047 1584 2836 1778 
Q 2625 1972 2144 2069 
L 1759 2144 
Q 1053 2284 737 2584 
Q 422 2884 422 3419 
Q 422 4038 858 4394 
Q 1294 4750 2059 4750 
Q 2388 4750 2728 4690 
Q 3069 4631 3425 4513 
z
" transform="scale(0.015625)"/>
      <path id="DejaVuSans-69" d="M 603 3500 
L 1178 3500 
L 1178 0 
L 603 0 
L 603 3500 
z
M 603 4863 
L 1178 4863 
L 1178 4134 
L 603 4134 
L 603 4863 
z
" transform="scale(0.015625)"/>
      <path id="DejaVuSans-65" d="M 3597 1894 
L 3597 1613 
L 953 1613 
Q 991 1019 1311 708 
Q 1631 397 2203 397 
Q 2534 397 2845 478 
Q 3156 559 3463 722 
L 3463 178 
Q 3153 47 2828 -22 
Q 2503 -91 2169 -91 
Q 1331 -91 842 396 
Q 353 884 353 1716 
Q 353 2575 817 3079 
Q 1281 3584 2069 3584 
Q 2775 3584 3186 3129 
Q 3597 2675 3597 1894 
z
M 3022 2063 
Q 3016 2534 2758 2815 
Q 2500 3097 2075 3097 
Q 1594 3097 1305 2825 
Q 1016 2553 972 2059 
L 3022 2063 
z
" transform="scale(0.015625)"/>
      <path id="DejaVuSans-64" d="M 2906 2969 
L 2906 4863 
L 3481 4863 
L 3481 0 
L 2906 0 
L 2906 525 
Q 2725 213 2448 61 
Q 2172 -91 1784 -91 
Q 1150 -91 751 415 
Q 353 922 353 1747 
Q 353 2572 751 3078 
Q 1150 3584 1784 3584 
Q 2172 3584 2448 3432 
Q 2725 3281 2906 2969 
z
M 947 1747 
Q 947 1113 1208 752 
Q 1469 391 1925 391 
Q 2381 391 2643 752 
Q 2906 1113 2906 1747 
Q 2906 2381 2643 2742 
Q 2381 3103 1925 3103 
Q 1469 3103 1208 2742 
Q 947 2381 947 1747 
z
" transform="scale(0.015625)"/>
      <path id="DejaVuSans-41" d="M 2188 4044 
L 1331 1722 
L 3047 1722 
L 2188 4044 
z
M 1831 4666 
L 2547 4666 
L 4325 0 
L 3669 0 
L 3244 1197 
L 1141 1197 
L 716 0 
L 50 0 
L 1831 4666 
z
" transform="scale(0.015625)"/>
      <path id="DejaVuSans-67" d="M 2906 1791 
Q 2906 2416 2648 2759 
Q 2391 3103 1925 3103 
Q 1463 3103 1205 2759 
Q 947 2416 947 1791 
Q 947 1169 1205 825 
Q 1463 481 1925 481 
Q 2391 481 2648 825 
Q 2906 1169 2906 1791 
z
M 3481 434 
Q 3481 -459 3084 -895 
Q 2688 -1331 1869 -1331 
Q 1566 -1331 1297 -1286 
Q 1028 -1241 775 -1147 
L 775 -588 
Q 1028 -725 1275 -790 
Q 1522 -856 1778 -856 
Q 2344 -856 2625 -561 
Q 2906 -266 2906 331 
L 2906 616 
Q 2728 306 2450 153 
Q 2172 0 1784 0 
Q 1141 0 747 490 
Q 353 981 353 1791 
Q 353 2603 747 3093 
Q 1141 3584 1784 3584 
Q 2172 3584 2450 3431 
Q 2728 3278 2906 2969 
L 2906 3500 
L 3481 3500 
L 3481 434 
z
" transform="scale(0.015625)"/>
      <path id="DejaVuSans-43" d="M 4122 4306 
L 4122 3641 
Q 3803 3938 3442 4084 
Q 3081 4231 2675 4231 
Q 1875 4231 1450 3742 
Q 1025 3253 1025 2328 
Q 1025 1406 1450 917 
Q 1875 428 2675 428 
Q 3081 428 3442 575 
Q 3803 722 4122 1019 
L 4122 359 
Q 3791 134 3420 21 
Q 3050 -91 2638 -91 
Q 1578 -91 968 557 
Q 359 1206 359 2328 
Q 359 3453 968 4101 
Q 1578 4750 2638 4750 
Q 3056 4750 3426 4639 
Q 3797 4528 4122 4306 
z
" transform="scale(0.015625)"/>
     </defs>
     <use xlink:href="#DejaVuSans-53"/>
     <use xlink:href="#DejaVuSans-69" x="63.476562"/>
     <use xlink:href="#DejaVuSans-6d" x="91.259766"/>
     <use xlink:href="#DejaVuSans-75" x="188.671875"/>
     <use xlink:href="#DejaVuSans-6c" x="252.050781"/>
     <use xlink:href="#DejaVuSans-61" x="279.833984"/>
     <use xlink:href="#DejaVuSans-74" x="341.113281"/>
     <use xlink:href="#DejaVuSans-65" x="380.322266"/>
     <use xlink:href="#DejaVuSans-64" x="441.845703"/>
     <use xlink:href="#DejaVuSans-20" x="505.322266"/>
     <use xlink:href="#DejaVuSans-41" x="537.109375"/>
     <use xlink:href="#DejaVuSans-6e" x="605.517578"/>
     <use xlink:href="#DejaVuSans-65" x="668.896484"/>
     <use xlink:href="#DejaVuSans-61" x="730.419922"/>
     <use xlink:href="#DejaVuSans-6c" x="791.699219"/>
     <use xlink:href="#DejaVuSans-6c" x="819.482422"/>
     <use xlink:href="#DejaVuSans-69" x="847.265625"/>
     <use xlink:href="#DejaVuSans-6e" x="875.048828"/>
     <use xlink:href="#DejaVuSans-67" x="938.427734"/>
     <use xlink:href="#DejaVuSans-20" x="1001.904297"/>
     <use xlink:href="#DejaVuSans-43" x="1033.691406"/>
     <use xlink:href="#DejaVuSans-6f" x="1103.515625"/>
     <use xlink:href="#DejaVuSans-73" x="1164.697266"/>
     <use xlink:href="#DejaVuSans-74" x="1216.796875"/>
    </g>
   </g>
  </g>
 </g>
 <defs>
  <clipPath id="p8afe2ef42f">
   <rect x="57.6" y="41.472" width="357.12" height="266.112"/>
  </clipPath>
 </defs>
</svg>
