<?xml version="1.0" encoding="utf-8" standalone="no"?>
<!DOCTYPE svg PUBLIC "-//W3C//DTD SVG 1.1//EN"
  "http://www.w3.org/Graphics/SVG/1.1/DTD/svg11.dtd">
<svg xmlns:xlink="http://www.w3.org/1999/xlink" width="460.8pt" height="345.6pt" viewBox="0 0 460.8 345.6" xmlns="http://www.w3.org/2000/svg" version="1.1">
 <metadata>
  <rdf:RDF xmlns:dc="http://purl.org/dc/elements/1.1/" xmlns:cc="http://creativecommons.org/ns#" xmlns:rdf="http://www.w3.org/1999/02/22-rdf-syntax-ns#">
   <cc:Work>
    <dc:type rdf:resource="http://purl.org/dc/dcmitype/StillImage"/>
    <dc:date>2022-06-01T08:04:12.400050</dc:date>
    <dc:format>image/svg+xml</dc:format>
    <dc:creator>
     <cc:Agent>
      <dc:title>Matplotlib v3.5.1, https://matplotlib.org/</dc:title>
     </cc:Agent>
    </dc:creator>
   </cc:Work>
  </rdf:RDF>
 </metadata>
 <defs>
  <style type="text/css">*{stroke-linejoin: round; stroke-linecap: butt}</style>
 </defs>
 <g id="figure_1">
  <g id="patch_1">
   <path d="M 0 345.6 
L 460.8 345.6 
L 460.8 0 
L 0 0 
z
" style="fill: #ffffff"/>
  </g>
  <g id="axes_1">
   <g id="patch_2">
    <path d="M 57.6 307.584 
L 414.72 307.584 
L 414.72 41.472 
L 57.6 41.472 
z
" style="fill: #ffffff"/>
   </g>
   <g id="matplotlib.axis_1">
    <g id="xtick_1">
     <g id="line2d_1">
      <defs>
       <path id="m4ab5bda518" d="M 0 0 
L 0 3.5 
" style="stroke: #000000; stroke-width: 0.8"/>
      </defs>
      <g>
       <use xlink:href="#m4ab5bda518" x="73.832727" y="307.584" style="stroke: #000000; stroke-width: 0.8"/>
      </g>
     </g>
     <g id="text_1">
      <!-- 0 -->
      <g transform="translate(70.651477 322.182437)scale(0.1 -0.1)">
       <defs>
        <path id="DejaVuSans-30" d="M 2034 4250 
Q 1547 4250 1301 3770 
Q 1056 3291 1056 2328 
Q 1056 1369 1301 889 
Q 1547 409 2034 409 
Q 2525 409 2770 889 
Q 3016 1369 3016 2328 
Q 3016 3291 2770 3770 
Q 2525 4250 2034 4250 
z
M 2034 4750 
Q 2819 4750 3233 4129 
Q 3647 3509 3647 2328 
Q 3647 1150 3233 529 
Q 2819 -91 2034 -91 
Q 1250 -91 836 529 
Q 422 1150 422 2328 
Q 422 3509 836 4129 
Q 1250 4750 2034 4750 
z
" transform="scale(0.015625)"/>
       </defs>
       <use xlink:href="#DejaVuSans-30"/>
      </g>
     </g>
    </g>
    <g id="xtick_2">
     <g id="line2d_2">
      <g>
       <use xlink:href="#m4ab5bda518" x="135.695255" y="307.584" style="stroke: #000000; stroke-width: 0.8"/>
      </g>
     </g>
     <g id="text_2">
      <!-- 500 -->
      <g transform="translate(126.151505 322.182437)scale(0.1 -0.1)">
       <defs>
        <path id="DejaVuSans-35" d="M 691 4666 
L 3169 4666 
L 3169 4134 
L 1269 4134 
L 1269 2991 
Q 1406 3038 1543 3061 
Q 1681 3084 1819 3084 
Q 2600 3084 3056 2656 
Q 3513 2228 3513 1497 
Q 3513 744 3044 326 
Q 2575 -91 1722 -91 
Q 1428 -91 1123 -41 
Q 819 9 494 109 
L 494 744 
Q 775 591 1075 516 
Q 1375 441 1709 441 
Q 2250 441 2565 725 
Q 2881 1009 2881 1497 
Q 2881 1984 2565 2268 
Q 2250 2553 1709 2553 
Q 1456 2553 1204 2497 
Q 953 2441 691 2322 
L 691 4666 
z
" transform="scale(0.015625)"/>
       </defs>
       <use xlink:href="#DejaVuSans-35"/>
       <use xlink:href="#DejaVuSans-30" x="63.623047"/>
       <use xlink:href="#DejaVuSans-30" x="127.246094"/>
      </g>
     </g>
    </g>
    <g id="xtick_3">
     <g id="line2d_3">
      <g>
       <use xlink:href="#m4ab5bda518" x="197.557783" y="307.584" style="stroke: #000000; stroke-width: 0.8"/>
      </g>
     </g>
     <g id="text_3">
      <!-- 1000 -->
      <g transform="translate(184.832783 322.182437)scale(0.1 -0.1)">
       <defs>
        <path id="DejaVuSans-31" d="M 794 531 
L 1825 531 
L 1825 4091 
L 703 3866 
L 703 4441 
L 1819 4666 
L 2450 4666 
L 2450 531 
L 3481 531 
L 3481 0 
L 794 0 
L 794 531 
z
" transform="scale(0.015625)"/>
       </defs>
       <use xlink:href="#DejaVuSans-31"/>
       <use xlink:href="#DejaVuSans-30" x="63.623047"/>
       <use xlink:href="#DejaVuSans-30" x="127.246094"/>
       <use xlink:href="#DejaVuSans-30" x="190.869141"/>
      </g>
     </g>
    </g>
    <g id="xtick_4">
     <g id="line2d_4">
      <g>
       <use xlink:href="#m4ab5bda518" x="259.42031" y="307.584" style="stroke: #000000; stroke-width: 0.8"/>
      </g>
     </g>
     <g id="text_4">
      <!-- 1500 -->
      <g transform="translate(246.69531 322.182437)scale(0.1 -0.1)">
       <use xlink:href="#DejaVuSans-31"/>
       <use xlink:href="#DejaVuSans-35" x="63.623047"/>
       <use xlink:href="#DejaVuSans-30" x="127.246094"/>
       <use xlink:href="#DejaVuSans-30" x="190.869141"/>
      </g>
     </g>
    </g>
    <g id="xtick_5">
     <g id="line2d_5">
      <g>
       <use xlink:href="#m4ab5bda518" x="321.282838" y="307.584" style="stroke: #000000; stroke-width: 0.8"/>
      </g>
     </g>
     <g id="text_5">
      <!-- 2000 -->
      <g transform="translate(308.557838 322.182437)scale(0.1 -0.1)">
       <defs>
        <path id="DejaVuSans-32" d="M 1228 531 
L 3431 531 
L 3431 0 
L 469 0 
L 469 531 
Q 828 903 1448 1529 
Q 2069 2156 2228 2338 
Q 2531 2678 2651 2914 
Q 2772 3150 2772 3378 
Q 2772 3750 2511 3984 
Q 2250 4219 1831 4219 
Q 1534 4219 1204 4116 
Q 875 4013 500 3803 
L 500 4441 
Q 881 4594 1212 4672 
Q 1544 4750 1819 4750 
Q 2544 4750 2975 4387 
Q 3406 4025 3406 3419 
Q 3406 3131 3298 2873 
Q 3191 2616 2906 2266 
Q 2828 2175 2409 1742 
Q 1991 1309 1228 531 
z
" transform="scale(0.015625)"/>
       </defs>
       <use xlink:href="#DejaVuSans-32"/>
       <use xlink:href="#DejaVuSans-30" x="63.623047"/>
       <use xlink:href="#DejaVuSans-30" x="127.246094"/>
       <use xlink:href="#DejaVuSans-30" x="190.869141"/>
      </g>
     </g>
    </g>
    <g id="xtick_6">
     <g id="line2d_6">
      <g>
       <use xlink:href="#m4ab5bda518" x="383.145366" y="307.584" style="stroke: #000000; stroke-width: 0.8"/>
      </g>
     </g>
     <g id="text_6">
      <!-- 2500 -->
      <g transform="translate(370.420366 322.182437)scale(0.1 -0.1)">
       <use xlink:href="#DejaVuSans-32"/>
       <use xlink:href="#DejaVuSans-35" x="63.623047"/>
       <use xlink:href="#DejaVuSans-30" x="127.246094"/>
       <use xlink:href="#DejaVuSans-30" x="190.869141"/>
      </g>
     </g>
    </g>
    <g id="text_7">
     <!-- num swaps -->
     <g transform="translate(207.826406 335.860562)scale(0.1 -0.1)">
      <defs>
       <path id="DejaVuSans-6e" d="M 3513 2113 
L 3513 0 
L 2938 0 
L 2938 2094 
Q 2938 2591 2744 2837 
Q 2550 3084 2163 3084 
Q 1697 3084 1428 2787 
Q 1159 2491 1159 1978 
L 1159 0 
L 581 0 
L 581 3500 
L 1159 3500 
L 1159 2956 
Q 1366 3272 1645 3428 
Q 1925 3584 2291 3584 
Q 2894 3584 3203 3211 
Q 3513 2838 3513 2113 
z
" transform="scale(0.015625)"/>
       <path id="DejaVuSans-75" d="M 544 1381 
L 544 3500 
L 1119 3500 
L 1119 1403 
Q 1119 906 1312 657 
Q 1506 409 1894 409 
Q 2359 409 2629 706 
Q 2900 1003 2900 1516 
L 2900 3500 
L 3475 3500 
L 3475 0 
L 2900 0 
L 2900 538 
Q 2691 219 2414 64 
Q 2138 -91 1772 -91 
Q 1169 -91 856 284 
Q 544 659 544 1381 
z
M 1991 3584 
L 1991 3584 
z
" transform="scale(0.015625)"/>
       <path id="DejaVuSans-6d" d="M 3328 2828 
Q 3544 3216 3844 3400 
Q 4144 3584 4550 3584 
Q 5097 3584 5394 3201 
Q 5691 2819 5691 2113 
L 5691 0 
L 5113 0 
L 5113 2094 
Q 5113 2597 4934 2840 
Q 4756 3084 4391 3084 
Q 3944 3084 3684 2787 
Q 3425 2491 3425 1978 
L 3425 0 
L 2847 0 
L 2847 2094 
Q 2847 2600 2669 2842 
Q 2491 3084 2119 3084 
Q 1678 3084 1418 2786 
Q 1159 2488 1159 1978 
L 1159 0 
L 581 0 
L 581 3500 
L 1159 3500 
L 1159 2956 
Q 1356 3278 1631 3431 
Q 1906 3584 2284 3584 
Q 2666 3584 2933 3390 
Q 3200 3197 3328 2828 
z
" transform="scale(0.015625)"/>
       <path id="DejaVuSans-20" transform="scale(0.015625)"/>
       <path id="DejaVuSans-73" d="M 2834 3397 
L 2834 2853 
Q 2591 2978 2328 3040 
Q 2066 3103 1784 3103 
Q 1356 3103 1142 2972 
Q 928 2841 928 2578 
Q 928 2378 1081 2264 
Q 1234 2150 1697 2047 
L 1894 2003 
Q 2506 1872 2764 1633 
Q 3022 1394 3022 966 
Q 3022 478 2636 193 
Q 2250 -91 1575 -91 
Q 1294 -91 989 -36 
Q 684 19 347 128 
L 347 722 
Q 666 556 975 473 
Q 1284 391 1588 391 
Q 1994 391 2212 530 
Q 2431 669 2431 922 
Q 2431 1156 2273 1281 
Q 2116 1406 1581 1522 
L 1381 1569 
Q 847 1681 609 1914 
Q 372 2147 372 2553 
Q 372 3047 722 3315 
Q 1072 3584 1716 3584 
Q 2034 3584 2315 3537 
Q 2597 3491 2834 3397 
z
" transform="scale(0.015625)"/>
       <path id="DejaVuSans-77" d="M 269 3500 
L 844 3500 
L 1563 769 
L 2278 3500 
L 2956 3500 
L 3675 769 
L 4391 3500 
L 4966 3500 
L 4050 0 
L 3372 0 
L 2619 2869 
L 1863 0 
L 1184 0 
L 269 3500 
z
" transform="scale(0.015625)"/>
       <path id="DejaVuSans-61" d="M 2194 1759 
Q 1497 1759 1228 1600 
Q 959 1441 959 1056 
Q 959 750 1161 570 
Q 1363 391 1709 391 
Q 2188 391 2477 730 
Q 2766 1069 2766 1631 
L 2766 1759 
L 2194 1759 
z
M 3341 1997 
L 3341 0 
L 2766 0 
L 2766 531 
Q 2569 213 2275 61 
Q 1981 -91 1556 -91 
Q 1019 -91 701 211 
Q 384 513 384 1019 
Q 384 1609 779 1909 
Q 1175 2209 1959 2209 
L 2766 2209 
L 2766 2266 
Q 2766 2663 2505 2880 
Q 2244 3097 1772 3097 
Q 1472 3097 1187 3025 
Q 903 2953 641 2809 
L 641 3341 
Q 956 3463 1253 3523 
Q 1550 3584 1831 3584 
Q 2591 3584 2966 3190 
Q 3341 2797 3341 1997 
z
" transform="scale(0.015625)"/>
       <path id="DejaVuSans-70" d="M 1159 525 
L 1159 -1331 
L 581 -1331 
L 581 3500 
L 1159 3500 
L 1159 2969 
Q 1341 3281 1617 3432 
Q 1894 3584 2278 3584 
Q 2916 3584 3314 3078 
Q 3713 2572 3713 1747 
Q 3713 922 3314 415 
Q 2916 -91 2278 -91 
Q 1894 -91 1617 61 
Q 1341 213 1159 525 
z
M 3116 1747 
Q 3116 2381 2855 2742 
Q 2594 3103 2138 3103 
Q 1681 3103 1420 2742 
Q 1159 2381 1159 1747 
Q 1159 1113 1420 752 
Q 1681 391 2138 391 
Q 2594 391 2855 752 
Q 3116 1113 3116 1747 
z
" transform="scale(0.015625)"/>
      </defs>
      <use xlink:href="#DejaVuSans-6e"/>
      <use xlink:href="#DejaVuSans-75" x="63.378906"/>
      <use xlink:href="#DejaVuSans-6d" x="126.757812"/>
      <use xlink:href="#DejaVuSans-20" x="224.169922"/>
      <use xlink:href="#DejaVuSans-73" x="255.957031"/>
      <use xlink:href="#DejaVuSans-77" x="308.056641"/>
      <use xlink:href="#DejaVuSans-61" x="389.84375"/>
      <use xlink:href="#DejaVuSans-70" x="451.123047"/>
      <use xlink:href="#DejaVuSans-73" x="514.599609"/>
     </g>
    </g>
   </g>
   <g id="matplotlib.axis_2">
    <g id="ytick_1">
     <g id="line2d_7">
      <defs>
       <path id="m3fda4ab071" d="M 0 0 
L -3.5 0 
" style="stroke: #000000; stroke-width: 0.8"/>
      </defs>
      <g>
       <use xlink:href="#m3fda4ab071" x="57.6" y="305.732169" style="stroke: #000000; stroke-width: 0.8"/>
      </g>
     </g>
     <g id="text_8">
      <!-- 450 -->
      <g transform="translate(31.5125 309.531388)scale(0.1 -0.1)">
       <defs>
        <path id="DejaVuSans-34" d="M 2419 4116 
L 825 1625 
L 2419 1625 
L 2419 4116 
z
M 2253 4666 
L 3047 4666 
L 3047 1625 
L 3713 1625 
L 3713 1100 
L 3047 1100 
L 3047 0 
L 2419 0 
L 2419 1100 
L 313 1100 
L 313 1709 
L 2253 4666 
z
" transform="scale(0.015625)"/>
       </defs>
       <use xlink:href="#DejaVuSans-34"/>
       <use xlink:href="#DejaVuSans-35" x="63.623047"/>
       <use xlink:href="#DejaVuSans-30" x="127.246094"/>
      </g>
     </g>
    </g>
    <g id="ytick_2">
     <g id="line2d_8">
      <g>
       <use xlink:href="#m3fda4ab071" x="57.6" y="266.331518" style="stroke: #000000; stroke-width: 0.8"/>
      </g>
     </g>
     <g id="text_9">
      <!-- 500 -->
      <g transform="translate(31.5125 270.130737)scale(0.1 -0.1)">
       <use xlink:href="#DejaVuSans-35"/>
       <use xlink:href="#DejaVuSans-30" x="63.623047"/>
       <use xlink:href="#DejaVuSans-30" x="127.246094"/>
      </g>
     </g>
    </g>
    <g id="ytick_3">
     <g id="line2d_9">
      <g>
       <use xlink:href="#m3fda4ab071" x="57.6" y="226.930866" style="stroke: #000000; stroke-width: 0.8"/>
      </g>
     </g>
     <g id="text_10">
      <!-- 550 -->
      <g transform="translate(31.5125 230.730085)scale(0.1 -0.1)">
       <use xlink:href="#DejaVuSans-35"/>
       <use xlink:href="#DejaVuSans-35" x="63.623047"/>
       <use xlink:href="#DejaVuSans-30" x="127.246094"/>
      </g>
     </g>
    </g>
    <g id="ytick_4">
     <g id="line2d_10">
      <g>
       <use xlink:href="#m3fda4ab071" x="57.6" y="187.530215" style="stroke: #000000; stroke-width: 0.8"/>
      </g>
     </g>
     <g id="text_11">
      <!-- 600 -->
      <g transform="translate(31.5125 191.329434)scale(0.1 -0.1)">
       <defs>
        <path id="DejaVuSans-36" d="M 2113 2584 
Q 1688 2584 1439 2293 
Q 1191 2003 1191 1497 
Q 1191 994 1439 701 
Q 1688 409 2113 409 
Q 2538 409 2786 701 
Q 3034 994 3034 1497 
Q 3034 2003 2786 2293 
Q 2538 2584 2113 2584 
z
M 3366 4563 
L 3366 3988 
Q 3128 4100 2886 4159 
Q 2644 4219 2406 4219 
Q 1781 4219 1451 3797 
Q 1122 3375 1075 2522 
Q 1259 2794 1537 2939 
Q 1816 3084 2150 3084 
Q 2853 3084 3261 2657 
Q 3669 2231 3669 1497 
Q 3669 778 3244 343 
Q 2819 -91 2113 -91 
Q 1303 -91 875 529 
Q 447 1150 447 2328 
Q 447 3434 972 4092 
Q 1497 4750 2381 4750 
Q 2619 4750 2861 4703 
Q 3103 4656 3366 4563 
z
" transform="scale(0.015625)"/>
       </defs>
       <use xlink:href="#DejaVuSans-36"/>
       <use xlink:href="#DejaVuSans-30" x="63.623047"/>
       <use xlink:href="#DejaVuSans-30" x="127.246094"/>
      </g>
     </g>
    </g>
    <g id="ytick_5">
     <g id="line2d_11">
      <g>
       <use xlink:href="#m3fda4ab071" x="57.6" y="148.129564" style="stroke: #000000; stroke-width: 0.8"/>
      </g>
     </g>
     <g id="text_12">
      <!-- 650 -->
      <g transform="translate(31.5125 151.928782)scale(0.1 -0.1)">
       <use xlink:href="#DejaVuSans-36"/>
       <use xlink:href="#DejaVuSans-35" x="63.623047"/>
       <use xlink:href="#DejaVuSans-30" x="127.246094"/>
      </g>
     </g>
    </g>
    <g id="ytick_6">
     <g id="line2d_12">
      <g>
       <use xlink:href="#m3fda4ab071" x="57.6" y="108.728912" style="stroke: #000000; stroke-width: 0.8"/>
      </g>
     </g>
     <g id="text_13">
      <!-- 700 -->
      <g transform="translate(31.5125 112.528131)scale(0.1 -0.1)">
       <defs>
        <path id="DejaVuSans-37" d="M 525 4666 
L 3525 4666 
L 3525 4397 
L 1831 0 
L 1172 0 
L 2766 4134 
L 525 4134 
L 525 4666 
z
" transform="scale(0.015625)"/>
       </defs>
       <use xlink:href="#DejaVuSans-37"/>
       <use xlink:href="#DejaVuSans-30" x="63.623047"/>
       <use xlink:href="#DejaVuSans-30" x="127.246094"/>
      </g>
     </g>
    </g>
    <g id="ytick_7">
     <g id="line2d_13">
      <g>
       <use xlink:href="#m3fda4ab071" x="57.6" y="69.328261" style="stroke: #000000; stroke-width: 0.8"/>
      </g>
     </g>
     <g id="text_14">
      <!-- 750 -->
      <g transform="translate(31.5125 73.127479)scale(0.1 -0.1)">
       <use xlink:href="#DejaVuSans-37"/>
       <use xlink:href="#DejaVuSans-35" x="63.623047"/>
       <use xlink:href="#DejaVuSans-30" x="127.246094"/>
      </g>
     </g>
    </g>
    <g id="text_15">
     <!-- total cost -->
     <g transform="translate(25.432812 197.923313)rotate(-90)scale(0.1 -0.1)">
      <defs>
       <path id="DejaVuSans-74" d="M 1172 4494 
L 1172 3500 
L 2356 3500 
L 2356 3053 
L 1172 3053 
L 1172 1153 
Q 1172 725 1289 603 
Q 1406 481 1766 481 
L 2356 481 
L 2356 0 
L 1766 0 
Q 1100 0 847 248 
Q 594 497 594 1153 
L 594 3053 
L 172 3053 
L 172 3500 
L 594 3500 
L 594 4494 
L 1172 4494 
z
" transform="scale(0.015625)"/>
       <path id="DejaVuSans-6f" d="M 1959 3097 
Q 1497 3097 1228 2736 
Q 959 2375 959 1747 
Q 959 1119 1226 758 
Q 1494 397 1959 397 
Q 2419 397 2687 759 
Q 2956 1122 2956 1747 
Q 2956 2369 2687 2733 
Q 2419 3097 1959 3097 
z
M 1959 3584 
Q 2709 3584 3137 3096 
Q 3566 2609 3566 1747 
Q 3566 888 3137 398 
Q 2709 -91 1959 -91 
Q 1206 -91 779 398 
Q 353 888 353 1747 
Q 353 2609 779 3096 
Q 1206 3584 1959 3584 
z
" transform="scale(0.015625)"/>
       <path id="DejaVuSans-6c" d="M 603 4863 
L 1178 4863 
L 1178 0 
L 603 0 
L 603 4863 
z
" transform="scale(0.015625)"/>
       <path id="DejaVuSans-63" d="M 3122 3366 
L 3122 2828 
Q 2878 2963 2633 3030 
Q 2388 3097 2138 3097 
Q 1578 3097 1268 2742 
Q 959 2388 959 1747 
Q 959 1106 1268 751 
Q 1578 397 2138 397 
Q 2388 397 2633 464 
Q 2878 531 3122 666 
L 3122 134 
Q 2881 22 2623 -34 
Q 2366 -91 2075 -91 
Q 1284 -91 818 406 
Q 353 903 353 1747 
Q 353 2603 823 3093 
Q 1294 3584 2113 3584 
Q 2378 3584 2631 3529 
Q 2884 3475 3122 3366 
z
" transform="scale(0.015625)"/>
      </defs>
      <use xlink:href="#DejaVuSans-74"/>
      <use xlink:href="#DejaVuSans-6f" x="39.208984"/>
      <use xlink:href="#DejaVuSans-74" x="100.390625"/>
      <use xlink:href="#DejaVuSans-61" x="139.599609"/>
      <use xlink:href="#DejaVuSans-6c" x="200.878906"/>
      <use xlink:href="#DejaVuSans-20" x="228.662109"/>
      <use xlink:href="#DejaVuSans-63" x="260.449219"/>
      <use xlink:href="#DejaVuSans-6f" x="315.429688"/>
      <use xlink:href="#DejaVuSans-73" x="376.611328"/>
      <use xlink:href="#DejaVuSans-74" x="428.710938"/>
     </g>
    </g>
   </g>
   <g id="line2d_14">
    <path d="M 73.832727 115.033016 
L 74.080177 106.364873 
L 74.327627 102.424808 
L 74.575078 105.57686 
L 74.822528 111.092951 
L 75.069978 106.364873 
L 75.317428 88.240573 
L 76.059778 132.369303 
L 76.307228 125.277186 
L 76.554678 124.489173 
L 76.802129 162.313798 
L 77.049579 165.46585 
L 77.297029 152.857642 
L 77.544479 146.553537 
L 77.791929 132.369303 
L 78.039379 130.005264 
L 78.286829 139.46142 
L 78.534279 140.249433 
L 78.781729 161.525785 
L 79.02918 161.525785 
L 79.27663 159.949759 
L 79.52408 181.226111 
L 79.77153 181.226111 
L 80.01898 171.769954 
L 80.26643 167.041876 
L 80.51388 165.46585 
L 80.76133 115.033016 
L 81.00878 118.973081 
L 81.256231 72.480313 
L 81.503681 92.180638 
L 81.751131 83.512495 
L 81.998581 80.360443 
L 82.246031 78.784417 
L 82.493481 71.6923 
L 82.740931 59.084091 
L 82.988381 53.568 
L 83.235831 63.024156 
L 83.978182 151.281616 
L 84.473082 167.829889 
L 84.720532 166.253863 
L 84.967982 169.405915 
L 85.215432 174.922007 
L 85.462882 171.769954 
L 85.710333 183.59015 
L 85.957783 170.981941 
L 86.205233 171.769954 
L 86.452683 182.014124 
L 86.700133 182.802137 
L 86.947583 152.857642 
L 87.195033 167.041876 
L 87.442483 170.193928 
L 87.689933 170.981941 
L 88.184834 114.245003 
L 88.679734 147.34155 
L 88.927184 144.189498 
L 89.174634 147.34155 
L 89.422084 141.037446 
L 89.669534 148.917577 
L 89.916984 138.673407 
L 90.164435 118.185068 
L 90.411885 123.70116 
L 90.659335 121.337121 
L 90.906785 142.613472 
L 91.154235 140.249433 
L 91.401685 153.645655 
L 91.649135 155.221681 
L 92.144035 179.650085 
L 92.391486 181.226111 
L 92.638936 151.281616 
L 93.133836 143.401485 
L 93.381286 144.189498 
L 93.628736 156.797707 
L 93.876186 158.373733 
L 94.123636 157.58572 
L 94.371086 157.58572 
L 94.618537 167.829889 
L 94.865987 159.161746 
L 95.113437 161.525785 
L 95.360887 175.71002 
L 95.608337 171.769954 
L 95.855787 181.226111 
L 96.103237 183.59015 
L 96.350687 182.014124 
L 96.845588 159.161746 
L 97.093038 163.889824 
L 97.587938 118.973081 
L 97.835388 121.337121 
L 98.082838 126.065199 
L 98.330288 128.429238 
L 98.577738 123.70116 
L 98.825188 126.853212 
L 99.320089 141.825459 
L 99.567539 152.069629 
L 99.814989 169.405915 
L 100.309889 155.221681 
L 100.557339 162.313798 
L 101.052239 138.673407 
L 101.29969 158.373733 
L 101.54714 167.829889 
L 102.28949 151.281616 
L 102.53694 129.217251 
L 102.78439 141.825459 
L 103.03184 142.613472 
L 103.27929 130.005264 
L 103.774191 151.281616 
L 104.021641 157.58572 
L 104.269091 168.617902 
L 104.516541 169.405915 
L 104.763991 155.221681 
L 105.258891 98.484743 
L 105.753792 125.277186 
L 106.001242 115.821029 
L 106.248692 128.429238 
L 106.496142 117.397055 
L 106.743592 129.217251 
L 106.991042 124.489173 
L 107.238492 122.125134 
L 107.485942 77.996404 
L 107.733392 73.268326 
L 107.980843 73.268326 
L 108.228293 76.420378 
L 108.475743 85.876534 
L 108.723193 77.996404 
L 108.970643 89.028586 
L 109.218093 68.540248 
L 109.960443 89.028586 
L 110.207894 83.512495 
L 110.455344 102.424808 
L 110.702794 97.69673 
L 110.950244 98.484743 
L 111.197694 102.424808 
L 111.445144 96.120704 
L 111.692594 107.940899 
L 111.940044 101.636795 
L 112.187494 129.217251 
L 112.434945 116.609042 
L 112.682395 133.945329 
L 112.929845 129.217251 
L 113.177295 122.125134 
L 113.424745 118.973081 
L 113.672195 134.733342 
L 113.919645 138.673407 
L 114.167095 159.949759 
L 114.414545 158.373733 
L 114.661996 133.157316 
L 114.909446 133.945329 
L 115.156896 132.369303 
L 115.404346 135.521355 
L 115.651796 148.129564 
L 115.899246 137.885394 
L 116.146696 134.733342 
L 116.394146 133.157316 
L 116.641596 148.917577 
L 116.889047 138.673407 
L 117.136497 143.401485 
L 117.383947 158.373733 
L 117.631397 152.857642 
L 117.878847 143.401485 
L 118.126297 151.281616 
L 118.373747 153.645655 
L 118.621197 143.401485 
L 118.868647 144.189498 
L 119.116098 144.189498 
L 119.363548 142.613472 
L 119.610998 144.189498 
L 120.105898 149.70559 
L 120.353348 152.857642 
L 120.600798 144.189498 
L 121.095698 135.521355 
L 121.343149 150.493603 
L 121.590599 144.977511 
L 121.838049 148.129564 
L 122.085499 140.249433 
L 122.332949 150.493603 
L 122.580399 151.281616 
L 122.827849 137.885394 
L 123.075299 134.733342 
L 123.5702 153.645655 
L 123.81765 145.765524 
L 124.0651 176.498033 
L 124.31255 170.981941 
L 124.56 178.074059 
L 124.80745 169.405915 
L 125.0549 164.677837 
L 125.30235 162.313798 
L 125.5498 135.521355 
L 125.797251 134.733342 
L 126.044701 134.733342 
L 126.292151 133.157316 
L 126.539601 144.189498 
L 126.787051 130.005264 
L 127.034501 126.853212 
L 127.529401 100.848782 
L 128.024302 92.968651 
L 128.271752 79.57243 
L 128.519202 111.880964 
L 128.766652 105.57686 
L 129.014102 104.000834 
L 129.261552 94.544678 
L 129.509002 110.304938 
L 129.756452 97.69673 
L 130.498803 126.853212 
L 130.746253 109.516925 
L 130.993703 120.549107 
L 131.241153 122.913147 
L 131.488603 112.668977 
L 131.736053 107.152886 
L 131.983503 84.300508 
L 132.230953 83.512495 
L 132.478404 87.45256 
L 132.725854 96.908717 
L 132.973304 97.69673 
L 133.220754 104.788847 
L 133.715654 94.544678 
L 133.963104 100.848782 
L 134.210554 110.304938 
L 134.458004 109.516925 
L 134.705455 119.761094 
L 134.952905 125.277186 
L 135.200355 124.489173 
L 135.447805 121.337121 
L 135.695255 139.46142 
L 135.942705 115.033016 
L 136.190155 116.609042 
L 136.437605 121.337121 
L 136.685055 137.097381 
L 136.932506 141.037446 
L 137.179956 141.037446 
L 137.427406 128.429238 
L 137.674856 122.913147 
L 137.922306 132.369303 
L 138.169756 151.281616 
L 138.417206 145.765524 
L 138.664656 155.221681 
L 138.912106 142.613472 
L 139.159557 137.885394 
L 139.407007 135.521355 
L 139.654457 126.065199 
L 139.901907 122.913147 
L 140.149357 135.521355 
L 140.396807 123.70116 
L 140.644257 126.065199 
L 141.139157 106.364873 
L 141.634058 115.033016 
L 141.881508 120.549107 
L 142.128958 122.125134 
L 142.376408 126.853212 
L 142.871308 115.033016 
L 143.366208 133.945329 
L 143.861109 154.433668 
L 144.108559 148.129564 
L 144.356009 156.797707 
L 144.603459 161.525785 
L 144.850909 161.525785 
L 145.345809 153.645655 
L 145.593259 137.885394 
L 146.08816 141.825459 
L 146.33561 143.401485 
L 146.58306 140.249433 
L 146.83051 132.369303 
L 147.07796 107.152886 
L 147.32541 109.516925 
L 147.82031 98.484743 
L 148.067761 107.940899 
L 148.315211 85.088521 
L 148.562661 84.300508 
L 148.810111 87.45256 
L 149.057561 96.120704 
L 149.305011 89.816599 
L 149.552461 107.940899 
L 150.047361 122.913147 
L 150.294812 123.70116 
L 150.542262 93.756664 
L 151.037162 115.033016 
L 151.284612 113.45699 
L 151.532062 107.152886 
L 151.779512 105.57686 
L 152.026962 119.761094 
L 152.274412 113.45699 
L 152.521863 115.033016 
L 152.769313 110.304938 
L 153.511663 143.401485 
L 153.759113 141.825459 
L 154.006563 146.553537 
L 154.254013 130.005264 
L 154.501463 130.005264 
L 154.996364 146.553537 
L 155.243814 172.557967 
L 155.491264 157.58572 
L 155.738714 156.009694 
L 155.986164 156.797707 
L 156.233614 153.645655 
L 156.481064 146.553537 
L 156.728514 146.553537 
L 156.975965 103.212821 
L 157.223415 112.668977 
L 157.470865 99.272756 
L 157.718315 94.544678 
L 158.213215 115.033016 
L 158.460665 115.821029 
L 158.955565 95.332691 
L 159.450466 111.092951 
L 159.697916 121.337121 
L 159.945366 114.245003 
L 160.192816 101.636795 
L 160.440266 111.880964 
L 160.687716 109.516925 
L 160.935166 115.821029 
L 161.182616 115.821029 
L 161.430067 114.245003 
L 161.677517 116.609042 
L 161.924967 121.337121 
L 162.172417 119.761094 
L 162.419867 122.913147 
L 162.667317 127.641225 
L 162.914767 126.065199 
L 163.162217 111.880964 
L 163.409667 111.880964 
L 163.657118 94.544678 
L 163.904568 98.484743 
L 164.152018 126.065199 
L 164.646918 141.037446 
L 164.894368 129.217251 
L 165.141818 144.977511 
L 165.389268 148.129564 
L 165.636718 135.521355 
L 165.884169 133.157316 
L 166.379069 141.825459 
L 166.873969 159.161746 
L 167.121419 159.161746 
L 167.368869 167.829889 
L 167.616319 158.373733 
L 167.863769 157.58572 
L 168.11122 159.161746 
L 168.35867 152.857642 
L 168.85357 157.58572 
L 169.10102 164.677837 
L 169.34847 159.161746 
L 169.59592 163.101811 
L 169.84337 136.309368 
L 170.338271 118.973081 
L 170.585721 106.364873 
L 170.833171 104.788847 
L 171.080621 99.272756 
L 171.328071 102.424808 
L 171.575521 130.005264 
L 171.822971 126.853212 
L 172.317871 102.424808 
L 172.812772 114.245003 
L 173.307672 117.397055 
L 173.555122 120.549107 
L 173.802572 151.281616 
L 174.050022 132.369303 
L 174.297472 149.70559 
L 174.544922 175.71002 
L 174.792373 170.193928 
L 175.039823 174.922007 
L 175.287273 148.129564 
L 175.782173 139.46142 
L 176.029623 117.397055 
L 176.524523 153.645655 
L 176.771973 140.249433 
L 177.019424 148.917577 
L 177.266874 123.70116 
L 177.514324 128.429238 
L 177.761774 135.521355 
L 178.009224 152.857642 
L 178.256674 158.373733 
L 178.504124 151.281616 
L 178.751574 151.281616 
L 178.999024 145.765524 
L 179.246475 147.34155 
L 179.493925 159.949759 
L 179.988825 163.101811 
L 180.236275 179.650085 
L 180.483725 151.281616 
L 180.731175 150.493603 
L 180.978625 141.825459 
L 181.226075 127.641225 
L 181.473525 124.489173 
L 181.720976 128.429238 
L 181.968426 137.885394 
L 182.215876 133.157316 
L 182.463326 135.521355 
L 182.710776 130.793277 
L 182.958226 121.337121 
L 183.205676 144.977511 
L 183.453126 143.401485 
L 183.700576 143.401485 
L 183.948027 152.857642 
L 184.195477 152.857642 
L 184.442927 153.645655 
L 184.690377 141.825459 
L 184.937827 111.880964 
L 185.185277 129.217251 
L 185.432727 135.521355 
L 185.680177 149.70559 
L 185.927627 156.009694 
L 186.175078 157.58572 
L 186.422528 162.313798 
L 186.669978 192.258293 
L 186.917428 186.742202 
L 187.164878 171.769954 
L 187.412328 187.530215 
L 187.659778 189.894254 
L 187.907228 200.138423 
L 188.154678 203.290476 
L 188.649579 184.378163 
L 188.897029 177.286046 
L 189.144479 148.129564 
L 189.391929 138.673407 
L 189.639379 141.037446 
L 189.886829 148.129564 
L 190.134279 146.553537 
L 190.381729 140.249433 
L 190.62918 140.249433 
L 190.87663 117.397055 
L 191.12408 106.364873 
L 191.37153 123.70116 
L 191.61898 118.973081 
L 191.86643 116.609042 
L 192.11388 108.728912 
L 192.36133 106.364873 
L 192.856231 123.70116 
L 193.103681 115.821029 
L 193.351131 118.973081 
L 193.598581 120.549107 
L 193.846031 120.549107 
L 194.093481 125.277186 
L 194.340931 125.277186 
L 194.588381 122.913147 
L 194.835831 117.397055 
L 195.083282 122.913147 
L 195.330732 116.609042 
L 195.578182 118.973081 
L 195.825632 115.821029 
L 196.073082 96.908717 
L 196.320532 90.604612 
L 196.567982 96.908717 
L 196.815432 106.364873 
L 197.062882 104.788847 
L 197.310333 111.092951 
L 197.557783 101.636795 
L 197.805233 106.364873 
L 198.052683 96.120704 
L 198.300133 107.152886 
L 198.547583 104.788847 
L 199.042483 148.917577 
L 199.289933 144.189498 
L 199.537384 132.369303 
L 199.784834 129.217251 
L 200.032284 135.521355 
L 200.279734 144.977511 
L 200.527184 137.097381 
L 200.774634 151.281616 
L 201.022084 150.493603 
L 201.269534 135.521355 
L 201.516984 130.793277 
L 201.764435 138.673407 
L 202.011885 119.761094 
L 202.259335 116.609042 
L 202.506785 127.641225 
L 202.754235 124.489173 
L 203.001685 105.57686 
L 203.496585 99.272756 
L 203.991486 115.821029 
L 204.238936 115.821029 
L 204.486386 98.484743 
L 204.733836 100.060769 
L 204.981286 108.728912 
L 205.228736 105.57686 
L 205.476186 110.304938 
L 205.971086 96.120704 
L 206.218537 92.180638 
L 206.465987 103.212821 
L 206.960887 89.028586 
L 207.455787 129.217251 
L 207.703237 122.913147 
L 207.950687 108.728912 
L 208.693038 141.825459 
L 208.940488 160.737772 
L 209.187938 148.129564 
L 209.435388 150.493603 
L 209.930288 163.101811 
L 210.177738 151.281616 
L 210.425188 162.313798 
L 210.672639 167.829889 
L 211.167539 130.005264 
L 211.414989 133.945329 
L 211.662439 133.945329 
L 211.909889 107.940899 
L 212.404789 130.005264 
L 212.652239 167.041876 
L 212.89969 179.650085 
L 213.14714 173.34598 
L 213.39459 175.71002 
L 213.64204 172.557967 
L 213.88949 164.677837 
L 214.13694 168.617902 
L 214.38439 189.894254 
L 214.63184 193.834319 
L 214.87929 184.378163 
L 215.126741 187.530215 
L 215.374191 185.954189 
L 215.621641 173.34598 
L 215.869091 184.378163 
L 216.116541 185.954189 
L 216.363991 185.954189 
L 216.858891 139.46142 
L 217.106341 141.037446 
L 217.353792 137.885394 
L 217.601242 139.46142 
L 217.848692 141.825459 
L 218.096142 137.097381 
L 218.343592 137.097381 
L 218.591042 144.977511 
L 218.838492 133.945329 
L 219.333392 126.853212 
L 219.828293 145.765524 
L 220.075743 141.037446 
L 220.323193 146.553537 
L 220.570643 144.977511 
L 220.818093 142.613472 
L 221.312993 155.221681 
L 221.560443 158.373733 
L 221.807894 152.069629 
L 222.055344 154.433668 
L 222.302794 174.922007 
L 222.550244 178.862072 
L 222.797694 189.894254 
L 223.045144 175.71002 
L 223.292594 172.557967 
L 224.034945 134.733342 
L 224.529845 134.733342 
L 224.777295 128.429238 
L 225.024745 150.493603 
L 225.272195 156.797707 
L 225.519645 152.857642 
L 225.767095 155.221681 
L 226.014545 144.977511 
L 226.261996 148.129564 
L 226.509446 140.249433 
L 226.756896 138.673407 
L 227.004346 132.369303 
L 227.251796 130.793277 
L 227.499246 133.157316 
L 227.746696 138.673407 
L 227.994146 138.673407 
L 228.241596 156.009694 
L 228.489047 150.493603 
L 228.736497 135.521355 
L 228.983947 111.092951 
L 229.231397 112.668977 
L 229.478847 131.58129 
L 230.221197 108.728912 
L 230.468647 124.489173 
L 230.716098 124.489173 
L 230.963548 125.277186 
L 231.210998 129.217251 
L 231.458448 124.489173 
L 231.705898 133.945329 
L 231.953348 130.005264 
L 232.200798 132.369303 
L 232.448248 127.641225 
L 232.695698 131.58129 
L 232.943149 146.553537 
L 233.190599 146.553537 
L 233.438049 147.34155 
L 233.685499 122.125134 
L 233.932949 120.549107 
L 234.180399 126.853212 
L 234.427849 137.885394 
L 234.675299 159.949759 
L 234.922749 164.677837 
L 235.1702 166.253863 
L 235.6651 182.802137 
L 235.91255 171.769954 
L 236.16 178.074059 
L 236.40745 179.650085 
L 236.6549 174.922007 
L 236.90235 172.557967 
L 237.1498 152.857642 
L 237.397251 165.46585 
L 237.644701 165.46585 
L 237.892151 153.645655 
L 238.139601 156.797707 
L 238.387051 156.797707 
L 238.634501 135.521355 
L 238.881951 141.825459 
L 239.129401 142.613472 
L 239.376851 130.793277 
L 239.624302 141.037446 
L 240.119202 144.189498 
L 240.366652 137.097381 
L 240.614102 120.549107 
L 240.861552 117.397055 
L 241.109002 131.58129 
L 241.356452 130.005264 
L 241.603902 134.733342 
L 241.851353 133.157316 
L 242.098803 153.645655 
L 242.593703 135.521355 
L 242.841153 139.46142 
L 243.088603 149.70559 
L 243.336053 152.069629 
L 243.583503 152.857642 
L 243.830953 150.493603 
L 244.078404 163.101811 
L 244.325854 168.617902 
L 244.573304 165.46585 
L 244.820754 158.373733 
L 245.068204 170.193928 
L 245.315654 162.313798 
L 245.563104 169.405915 
L 245.810554 166.253863 
L 246.058004 180.438098 
L 246.305455 177.286046 
L 246.552905 171.769954 
L 246.800355 170.981941 
L 247.047805 174.133993 
L 247.295255 181.226111 
L 247.542705 182.014124 
L 247.790155 167.041876 
L 248.285055 153.645655 
L 248.532506 166.253863 
L 248.779956 160.737772 
L 249.027406 159.161746 
L 249.274856 163.101811 
L 249.522306 151.281616 
L 249.769756 152.069629 
L 250.017206 155.221681 
L 250.264656 163.101811 
L 250.512106 166.253863 
L 250.759557 161.525785 
L 251.007007 167.041876 
L 251.254457 149.70559 
L 251.501907 144.977511 
L 251.749357 152.857642 
L 251.996807 147.34155 
L 252.244257 138.673407 
L 252.491707 144.977511 
L 252.986608 171.769954 
L 253.234058 170.193928 
L 253.481508 134.733342 
L 253.728958 141.037446 
L 253.976408 141.825459 
L 254.223858 143.401485 
L 254.471308 147.34155 
L 254.718758 133.157316 
L 255.213659 141.037446 
L 255.708559 128.429238 
L 255.956009 105.57686 
L 256.450909 123.70116 
L 256.698359 121.337121 
L 256.945809 125.277186 
L 257.68816 125.277186 
L 257.93561 127.641225 
L 258.18306 122.913147 
L 258.43051 107.152886 
L 258.67796 105.57686 
L 258.92541 113.45699 
L 259.42031 145.765524 
L 259.667761 133.157316 
L 259.915211 163.101811 
L 260.162661 145.765524 
L 260.410111 150.493603 
L 260.657561 150.493603 
L 260.905011 152.069629 
L 261.152461 156.797707 
L 261.399911 156.009694 
L 261.894812 140.249433 
L 262.142262 148.129564 
L 262.637162 148.129564 
L 262.884612 117.397055 
L 263.132062 124.489173 
L 263.379512 136.309368 
L 263.626962 138.673407 
L 263.874412 145.765524 
L 264.121863 126.853212 
L 264.369313 122.125134 
L 264.616763 129.217251 
L 264.864213 152.857642 
L 265.111663 152.857642 
L 265.359113 143.401485 
L 265.606563 145.765524 
L 265.854013 150.493603 
L 266.101463 158.373733 
L 266.348914 145.765524 
L 266.596364 144.189498 
L 266.843814 137.885394 
L 267.091264 148.917577 
L 267.338714 141.037446 
L 267.586164 144.977511 
L 267.833614 152.857642 
L 268.081064 134.733342 
L 268.328514 142.613472 
L 268.575965 123.70116 
L 268.823415 142.613472 
L 269.070865 147.34155 
L 269.318315 132.369303 
L 269.813215 178.862072 
L 270.060665 196.198358 
L 270.308115 194.622332 
L 270.555565 182.014124 
L 270.803016 189.106241 
L 271.050466 200.138423 
L 271.297916 194.622332 
L 271.545366 183.59015 
L 271.792816 180.438098 
L 272.040266 185.166176 
L 272.287716 185.166176 
L 272.535166 193.046306 
L 272.782616 208.806567 
L 273.277517 189.894254 
L 273.524967 186.742202 
L 273.772417 196.986371 
L 274.019867 201.71445 
L 274.267317 193.834319 
L 274.514767 178.074059 
L 274.762217 171.769954 
L 275.009667 173.34598 
L 275.257118 141.825459 
L 275.504568 148.917577 
L 275.999468 141.825459 
L 276.246918 151.281616 
L 276.494368 140.249433 
L 276.989268 158.373733 
L 277.236718 169.405915 
L 277.484169 161.525785 
L 277.731619 170.981941 
L 277.979069 162.313798 
L 278.226519 177.286046 
L 278.473969 172.557967 
L 278.721419 173.34598 
L 278.968869 160.737772 
L 279.216319 162.313798 
L 279.463769 160.737772 
L 279.71122 163.101811 
L 279.95867 153.645655 
L 280.20612 170.981941 
L 280.45357 170.981941 
L 280.94847 151.281616 
L 281.19592 148.129564 
L 281.44337 165.46585 
L 281.69082 151.281616 
L 281.938271 145.765524 
L 282.185721 156.009694 
L 282.433171 178.862072 
L 282.680621 176.498033 
L 282.928071 178.862072 
L 283.175521 152.069629 
L 283.422971 155.221681 
L 283.670421 155.221681 
L 283.917871 154.433668 
L 284.165322 160.737772 
L 284.412772 156.009694 
L 284.660222 141.825459 
L 284.907672 143.401485 
L 285.155122 156.797707 
L 285.402572 159.949759 
L 285.650022 159.949759 
L 285.897472 155.221681 
L 286.144922 172.557967 
L 286.392373 179.650085 
L 286.887273 185.954189 
L 287.134723 166.253863 
L 287.877073 141.825459 
L 288.124523 135.521355 
L 288.371973 122.913147 
L 288.619424 143.401485 
L 288.866874 143.401485 
L 289.114324 154.433668 
L 289.361774 151.281616 
L 289.609224 144.977511 
L 289.856674 122.125134 
L 290.104124 126.065199 
L 290.351574 142.613472 
L 290.599024 142.613472 
L 290.846475 147.34155 
L 291.341375 163.889824 
L 291.588825 159.161746 
L 291.836275 169.405915 
L 292.083725 174.922007 
L 292.331175 168.617902 
L 292.578625 167.041876 
L 292.826075 174.133993 
L 293.073525 169.405915 
L 293.568426 194.622332 
L 294.063326 179.650085 
L 294.805676 144.977511 
L 295.053126 148.917577 
L 295.300576 138.673407 
L 295.548027 141.037446 
L 296.042927 153.645655 
L 296.290377 153.645655 
L 296.537827 155.221681 
L 296.785277 145.765524 
L 297.032727 142.613472 
L 297.280177 158.373733 
L 297.527627 141.037446 
L 297.775078 141.037446 
L 298.022528 143.401485 
L 298.269978 148.129564 
L 298.517428 158.373733 
L 298.764878 173.34598 
L 299.012328 176.498033 
L 299.259778 186.742202 
L 299.507228 186.742202 
L 299.754678 183.59015 
L 300.002129 185.166176 
L 300.249579 172.557967 
L 300.744479 161.525785 
L 300.991929 170.981941 
L 301.239379 171.769954 
L 301.486829 176.498033 
L 301.734279 177.286046 
L 301.981729 179.650085 
L 302.22918 183.59015 
L 302.72408 196.986371 
L 303.21898 192.258293 
L 303.46643 185.954189 
L 303.96133 208.806567 
L 304.20878 206.442528 
L 304.703681 184.378163 
L 304.951131 190.682267 
L 305.198581 191.47028 
L 305.446031 190.682267 
L 305.693481 200.138423 
L 305.940931 200.138423 
L 306.188381 203.290476 
L 306.435831 195.410345 
L 306.683282 204.078489 
L 306.930732 207.230541 
L 307.178182 204.078489 
L 307.425632 170.193928 
L 307.920532 163.889824 
L 308.415432 163.889824 
L 308.662882 176.498033 
L 308.910333 172.557967 
L 309.157783 173.34598 
L 309.405233 178.074059 
L 309.652683 178.074059 
L 309.900133 173.34598 
L 310.147583 196.198358 
L 310.395033 189.894254 
L 311.137384 204.078489 
L 311.384834 202.502463 
L 311.632284 200.138423 
L 311.879734 211.958619 
L 312.127184 209.59458 
L 312.374634 204.866502 
L 312.622084 221.414775 
L 312.869534 220.626762 
L 313.116984 223.778814 
L 313.364435 208.018554 
L 313.611885 203.290476 
L 313.859335 215.898684 
L 314.106785 215.110671 
L 314.354235 215.110671 
L 314.601685 213.534645 
L 314.849135 216.686697 
L 315.096585 200.138423 
L 315.344035 212.746632 
L 315.591486 200.138423 
L 315.838936 196.986371 
L 316.086386 208.806567 
L 316.333836 208.018554 
L 316.581286 221.414775 
L 316.828736 219.050736 
L 317.076186 224.566827 
L 317.323636 219.838749 
L 317.818537 242.691127 
L 318.065987 247.419205 
L 318.313437 237.175036 
L 318.808337 228.506893 
L 319.055787 228.506893 
L 319.303237 235.59901 
L 319.550687 232.446958 
L 320.045588 200.138423 
L 320.293038 196.198358 
L 320.540488 196.986371 
L 320.787938 209.59458 
L 321.035388 197.774384 
L 321.282838 202.502463 
L 321.530288 204.866502 
L 321.777738 189.894254 
L 322.025188 191.47028 
L 322.272639 195.410345 
L 322.520089 192.258293 
L 322.767539 192.258293 
L 323.014989 196.986371 
L 323.262439 196.986371 
L 323.509889 195.410345 
L 323.757339 196.198358 
L 324.004789 193.834319 
L 324.252239 193.046306 
L 324.49969 196.198358 
L 324.74714 201.71445 
L 324.99459 188.318228 
L 325.24204 195.410345 
L 325.48949 189.894254 
L 325.73694 189.106241 
L 325.98439 178.862072 
L 326.23184 174.922007 
L 326.47929 179.650085 
L 326.726741 188.318228 
L 326.974191 185.954189 
L 327.221641 195.410345 
L 327.469091 212.746632 
L 327.716541 204.866502 
L 327.963991 176.498033 
L 328.211441 176.498033 
L 328.458891 172.557967 
L 328.706341 185.954189 
L 328.953792 190.682267 
L 329.201242 200.138423 
L 329.448692 197.774384 
L 329.696142 208.806567 
L 329.943592 206.442528 
L 330.191042 214.322658 
L 330.438492 215.898684 
L 330.685942 212.746632 
L 330.933392 200.138423 
L 331.428293 193.046306 
L 331.675743 195.410345 
L 332.170643 202.502463 
L 332.665543 230.870932 
L 332.912993 236.387023 
L 333.160443 231.658945 
L 333.407894 233.234971 
L 333.655344 226.930866 
L 333.902794 230.082919 
L 334.397694 201.71445 
L 334.645144 208.018554 
L 335.140044 215.110671 
L 335.634945 194.622332 
L 335.882395 196.986371 
L 336.377295 220.626762 
L 336.624745 215.110671 
L 336.872195 222.202788 
L 337.119645 211.170606 
L 337.367095 211.170606 
L 337.614545 217.47471 
L 337.861996 214.322658 
L 338.109446 215.898684 
L 338.356896 219.050736 
L 338.604346 196.198358 
L 339.346696 218.262723 
L 339.594146 215.898684 
L 339.841596 223.778814 
L 340.089047 221.414775 
L 340.336497 217.47471 
L 340.583947 220.626762 
L 340.831397 220.626762 
L 341.078847 230.870932 
L 341.573747 239.539075 
L 341.821197 241.115101 
L 342.068647 216.686697 
L 342.316098 219.050736 
L 342.563548 193.834319 
L 342.810998 202.502463 
L 343.058448 205.654515 
L 343.553348 189.106241 
L 343.800798 188.318228 
L 344.048248 202.502463 
L 344.295698 199.35041 
L 344.543149 199.35041 
L 344.790599 195.410345 
L 345.038049 196.198358 
L 345.285499 191.47028 
L 345.532949 192.258293 
L 345.780399 191.47028 
L 346.027849 198.562397 
L 346.275299 196.986371 
L 346.522749 190.682267 
L 347.01765 199.35041 
L 347.2651 191.47028 
L 347.76 208.806567 
L 348.00745 202.502463 
L 348.2549 215.110671 
L 348.50235 234.022984 
L 348.7498 231.658945 
L 348.997251 232.446958 
L 349.244701 227.718879 
L 349.492151 219.050736 
L 349.739601 217.47471 
L 349.987051 225.35484 
L 350.234501 237.175036 
L 350.481951 235.59901 
L 350.729401 230.082919 
L 350.976851 242.691127 
L 351.224302 242.691127 
L 351.471752 248.995231 
L 351.719202 245.843179 
L 351.966652 244.267153 
L 352.214102 245.055166 
L 352.461552 245.055166 
L 352.709002 237.175036 
L 352.956452 236.387023 
L 353.203902 237.963049 
L 353.451353 243.47914 
L 353.946253 237.175036 
L 354.193703 237.175036 
L 354.441153 236.387023 
L 354.936053 243.47914 
L 355.183503 241.903114 
L 355.430953 241.903114 
L 355.678404 249.783244 
L 355.925854 263.967479 
L 356.173304 263.179466 
L 356.420754 260.815427 
L 356.668204 265.543505 
L 356.915654 260.027414 
L 357.163104 274.211648 
L 357.410554 280.515752 
L 357.658004 279.727739 
L 357.905455 293.911974 
L 358.152905 286.819857 
L 358.400355 292.335948 
L 358.647805 289.971909 
L 358.895255 295.488 
L 359.142705 293.911974 
L 359.390155 290.759922 
L 359.637605 286.031844 
L 359.885055 284.455818 
L 360.132506 285.243831 
L 360.379956 287.60787 
L 360.627406 291.547935 
L 360.874856 289.183896 
L 361.122306 282.879792 
L 361.369756 286.031844 
L 361.617206 281.303765 
L 361.864656 286.819857 
L 362.112106 283.667805 
L 362.607007 290.759922 
L 362.854457 289.971909 
L 363.101907 287.60787 
L 363.349357 274.211648 
L 363.844257 277.3637 
L 364.091707 285.243831 
L 364.339157 268.695557 
L 364.586608 270.271583 
L 364.834058 272.635622 
L 365.081508 264.755492 
L 365.328958 267.119531 
L 365.576408 255.299336 
L 365.823858 252.147283 
L 366.071308 258.451388 
L 366.318758 260.815427 
L 366.566208 259.239401 
L 366.813659 260.815427 
L 367.061109 257.663375 
L 367.308559 248.207218 
L 367.803459 275.787674 
L 368.050909 276.575687 
L 368.298359 283.667805 
L 368.545809 271.847609 
L 368.793259 271.847609 
L 369.04071 268.695557 
L 369.28816 278.939726 
L 369.53561 276.575687 
L 369.78306 267.907544 
L 370.03051 271.059596 
L 370.27796 265.543505 
L 370.77286 268.695557 
L 371.02031 276.575687 
L 371.267761 275.787674 
L 371.515211 275.787674 
L 371.762661 277.3637 
L 372.010111 274.999661 
L 372.505011 258.451388 
L 372.999911 280.515752 
L 373.247361 282.879792 
L 373.494812 279.727739 
L 373.742262 281.303765 
L 373.989712 289.183896 
L 374.237162 288.395883 
L 374.484612 293.123961 
L 374.979512 277.3637 
L 375.226962 264.755492 
L 375.474412 272.635622 
L 375.721863 266.331518 
L 375.969313 263.967479 
L 376.216763 268.695557 
L 376.464213 267.907544 
L 376.959113 278.939726 
L 377.206563 278.151713 
L 377.454013 280.515752 
L 377.701463 278.939726 
L 378.196364 267.907544 
L 378.443814 266.331518 
L 378.691264 248.995231 
L 378.938714 247.419205 
L 379.186164 239.539075 
L 379.433614 239.539075 
L 379.681064 246.631192 
L 379.928514 235.59901 
L 380.175965 232.446958 
L 380.423415 238.751062 
L 380.670865 237.175036 
L 381.165765 259.239401 
L 381.413215 261.60344 
L 381.908115 263.179466 
L 382.155565 263.179466 
L 382.403016 267.907544 
L 382.650466 269.48357 
L 382.897916 266.331518 
L 383.145366 269.48357 
L 383.392816 278.939726 
L 383.640266 276.575687 
L 383.887716 280.515752 
L 384.135166 274.211648 
L 384.382616 274.999661 
L 384.630067 281.303765 
L 384.877517 274.999661 
L 385.372417 271.847609 
L 385.619867 271.847609 
L 385.867317 278.939726 
L 386.114767 279.727739 
L 386.362217 273.423635 
L 386.857118 273.423635 
L 387.104568 269.48357 
L 387.352018 280.515752 
L 387.599468 266.331518 
L 387.846918 264.755492 
L 388.094368 269.48357 
L 388.341818 279.727739 
L 388.589268 274.999661 
L 389.084169 282.879792 
L 389.331619 278.151713 
L 389.579069 278.939726 
L 389.826519 273.423635 
L 390.073969 273.423635 
L 390.321419 263.179466 
L 390.816319 260.027414 
L 391.063769 267.119531 
L 391.31122 263.179466 
L 391.55867 266.331518 
L 391.80612 267.907544 
L 392.30102 263.179466 
L 392.79592 242.691127 
L 393.04337 241.115101 
L 393.538271 250.571257 
L 393.785721 251.35927 
L 394.033171 254.511322 
L 394.280621 271.059596 
L 394.775521 277.3637 
L 395.022971 276.575687 
L 395.270421 270.271583 
L 395.517871 274.999661 
L 396.012772 268.695557 
L 396.260222 262.391453 
L 396.507672 265.543505 
L 397.497472 290.759922 
L 397.744922 282.879792 
L 397.992373 281.303765 
L 398.239823 285.243831 
L 398.487273 282.879792 
L 398.487273 282.879792 
" clip-path="url(#p9e683c1821)" style="fill: none; stroke: #1f77b4; stroke-width: 1.5; stroke-linecap: square"/>
   </g>
   <g id="patch_3">
    <path d="M 57.6 307.584 
L 57.6 41.472 
" style="fill: none; stroke: #000000; stroke-width: 0.8; stroke-linejoin: miter; stroke-linecap: square"/>
   </g>
   <g id="patch_4">
    <path d="M 414.72 307.584 
L 414.72 41.472 
" style="fill: none; stroke: #000000; stroke-width: 0.8; stroke-linejoin: miter; stroke-linecap: square"/>
   </g>
   <g id="patch_5">
    <path d="M 57.6 307.584 
L 414.72 307.584 
" style="fill: none; stroke: #000000; stroke-width: 0.8; stroke-linejoin: miter; stroke-linecap: square"/>
   </g>
   <g id="patch_6">
    <path d="M 57.6 41.472 
L 414.72 41.472 
" style="fill: none; stroke: #000000; stroke-width: 0.8; stroke-linejoin: miter; stroke-linecap: square"/>
   </g>
   <g id="text_16">
    <!-- Simulated Anealling Cost -->
    <g transform="translate(160.8 35.472)scale(0.12 -0.12)">
     <defs>
      <path id="DejaVuSans-53" d="M 3425 4513 
L 3425 3897 
Q 3066 4069 2747 4153 
Q 2428 4238 2131 4238 
Q 1616 4238 1336 4038 
Q 1056 3838 1056 3469 
Q 1056 3159 1242 3001 
Q 1428 2844 1947 2747 
L 2328 2669 
Q 3034 2534 3370 2195 
Q 3706 1856 3706 1288 
Q 3706 609 3251 259 
Q 2797 -91 1919 -91 
Q 1588 -91 1214 -16 
Q 841 59 441 206 
L 441 856 
Q 825 641 1194 531 
Q 1563 422 1919 422 
Q 2459 422 2753 634 
Q 3047 847 3047 1241 
Q 3047 1584 2836 1778 
Q 2625 1972 2144 2069 
L 1759 2144 
Q 1053 2284 737 2584 
Q 422 2884 422 3419 
Q 422 4038 858 4394 
Q 1294 4750 2059 4750 
Q 2388 4750 2728 4690 
Q 3069 4631 3425 4513 
z
" transform="scale(0.015625)"/>
      <path id="DejaVuSans-69" d="M 603 3500 
L 1178 3500 
L 1178 0 
L 603 0 
L 603 3500 
z
M 603 4863 
L 1178 4863 
L 1178 4134 
L 603 4134 
L 603 4863 
z
" transform="scale(0.015625)"/>
      <path id="DejaVuSans-65" d="M 3597 1894 
L 3597 1613 
L 953 1613 
Q 991 1019 1311 708 
Q 1631 397 2203 397 
Q 2534 397 2845 478 
Q 3156 559 3463 722 
L 3463 178 
Q 3153 47 2828 -22 
Q 2503 -91 2169 -91 
Q 1331 -91 842 396 
Q 353 884 353 1716 
Q 353 2575 817 3079 
Q 1281 3584 2069 3584 
Q 2775 3584 3186 3129 
Q 3597 2675 3597 1894 
z
M 3022 2063 
Q 3016 2534 2758 2815 
Q 2500 3097 2075 3097 
Q 1594 3097 1305 2825 
Q 1016 2553 972 2059 
L 3022 2063 
z
" transform="scale(0.015625)"/>
      <path id="DejaVuSans-64" d="M 2906 2969 
L 2906 4863 
L 3481 4863 
L 3481 0 
L 2906 0 
L 2906 525 
Q 2725 213 2448 61 
Q 2172 -91 1784 -91 
Q 1150 -91 751 415 
Q 353 922 353 1747 
Q 353 2572 751 3078 
Q 1150 3584 1784 3584 
Q 2172 3584 2448 3432 
Q 2725 3281 2906 2969 
z
M 947 1747 
Q 947 1113 1208 752 
Q 1469 391 1925 391 
Q 2381 391 2643 752 
Q 2906 1113 2906 1747 
Q 2906 2381 2643 2742 
Q 2381 3103 1925 3103 
Q 1469 3103 1208 2742 
Q 947 2381 947 1747 
z
" transform="scale(0.015625)"/>
      <path id="DejaVuSans-41" d="M 2188 4044 
L 1331 1722 
L 3047 1722 
L 2188 4044 
z
M 1831 4666 
L 2547 4666 
L 4325 0 
L 3669 0 
L 3244 1197 
L 1141 1197 
L 716 0 
L 50 0 
L 1831 4666 
z
" transform="scale(0.015625)"/>
      <path id="DejaVuSans-67" d="M 2906 1791 
Q 2906 2416 2648 2759 
Q 2391 3103 1925 3103 
Q 1463 3103 1205 2759 
Q 947 2416 947 1791 
Q 947 1169 1205 825 
Q 1463 481 1925 481 
Q 2391 481 2648 825 
Q 2906 1169 2906 1791 
z
M 3481 434 
Q 3481 -459 3084 -895 
Q 2688 -1331 1869 -1331 
Q 1566 -1331 1297 -1286 
Q 1028 -1241 775 -1147 
L 775 -588 
Q 1028 -725 1275 -790 
Q 1522 -856 1778 -856 
Q 2344 -856 2625 -561 
Q 2906 -266 2906 331 
L 2906 616 
Q 2728 306 2450 153 
Q 2172 0 1784 0 
Q 1141 0 747 490 
Q 353 981 353 1791 
Q 353 2603 747 3093 
Q 1141 3584 1784 3584 
Q 2172 3584 2450 3431 
Q 2728 3278 2906 2969 
L 2906 3500 
L 3481 3500 
L 3481 434 
z
" transform="scale(0.015625)"/>
      <path id="DejaVuSans-43" d="M 4122 4306 
L 4122 3641 
Q 3803 3938 3442 4084 
Q 3081 4231 2675 4231 
Q 1875 4231 1450 3742 
Q 1025 3253 1025 2328 
Q 1025 1406 1450 917 
Q 1875 428 2675 428 
Q 3081 428 3442 575 
Q 3803 722 4122 1019 
L 4122 359 
Q 3791 134 3420 21 
Q 3050 -91 2638 -91 
Q 1578 -91 968 557 
Q 359 1206 359 2328 
Q 359 3453 968 4101 
Q 1578 4750 2638 4750 
Q 3056 4750 3426 4639 
Q 3797 4528 4122 4306 
z
" transform="scale(0.015625)"/>
     </defs>
     <use xlink:href="#DejaVuSans-53"/>
     <use xlink:href="#DejaVuSans-69" x="63.476562"/>
     <use xlink:href="#DejaVuSans-6d" x="91.259766"/>
     <use xlink:href="#DejaVuSans-75" x="188.671875"/>
     <use xlink:href="#DejaVuSans-6c" x="252.050781"/>
     <use xlink:href="#DejaVuSans-61" x="279.833984"/>
     <use xlink:href="#DejaVuSans-74" x="341.113281"/>
     <use xlink:href="#DejaVuSans-65" x="380.322266"/>
     <use xlink:href="#DejaVuSans-64" x="441.845703"/>
     <use xlink:href="#DejaVuSans-20" x="505.322266"/>
     <use xlink:href="#DejaVuSans-41" x="537.109375"/>
     <use xlink:href="#DejaVuSans-6e" x="605.517578"/>
     <use xlink:href="#DejaVuSans-65" x="668.896484"/>
     <use xlink:href="#DejaVuSans-61" x="730.419922"/>
     <use xlink:href="#DejaVuSans-6c" x="791.699219"/>
     <use xlink:href="#DejaVuSans-6c" x="819.482422"/>
     <use xlink:href="#DejaVuSans-69" x="847.265625"/>
     <use xlink:href="#DejaVuSans-6e" x="875.048828"/>
     <use xlink:href="#DejaVuSans-67" x="938.427734"/>
     <use xlink:href="#DejaVuSans-20" x="1001.904297"/>
     <use xlink:href="#DejaVuSans-43" x="1033.691406"/>
     <use xlink:href="#DejaVuSans-6f" x="1103.515625"/>
     <use xlink:href="#DejaVuSans-73" x="1164.697266"/>
     <use xlink:href="#DejaVuSans-74" x="1216.796875"/>
    </g>
   </g>
  </g>
 </g>
 <defs>
  <clipPath id="p9e683c1821">
   <rect x="57.6" y="41.472" width="357.12" height="266.112"/>
  </clipPath>
 </defs>
</svg>
