<?xml version="1.0" encoding="utf-8" standalone="no"?>
<!DOCTYPE svg PUBLIC "-//W3C//DTD SVG 1.1//EN"
  "http://www.w3.org/Graphics/SVG/1.1/DTD/svg11.dtd">
<svg xmlns:xlink="http://www.w3.org/1999/xlink" width="460.8pt" height="345.6pt" viewBox="0 0 460.8 345.6" xmlns="http://www.w3.org/2000/svg" version="1.1">
 <metadata>
  <rdf:RDF xmlns:dc="http://purl.org/dc/elements/1.1/" xmlns:cc="http://creativecommons.org/ns#" xmlns:rdf="http://www.w3.org/1999/02/22-rdf-syntax-ns#">
   <cc:Work>
    <dc:type rdf:resource="http://purl.org/dc/dcmitype/StillImage"/>
    <dc:date>2022-06-01T08:06:13.302010</dc:date>
    <dc:format>image/svg+xml</dc:format>
    <dc:creator>
     <cc:Agent>
      <dc:title>Matplotlib v3.5.1, https://matplotlib.org/</dc:title>
     </cc:Agent>
    </dc:creator>
   </cc:Work>
  </rdf:RDF>
 </metadata>
 <defs>
  <style type="text/css">*{stroke-linejoin: round; stroke-linecap: butt}</style>
 </defs>
 <g id="figure_1">
  <g id="patch_1">
   <path d="M 0 345.6 
L 460.8 345.6 
L 460.8 0 
L 0 0 
z
" style="fill: #ffffff"/>
  </g>
  <g id="axes_1">
   <g id="patch_2">
    <path d="M 57.6 307.584 
L 414.72 307.584 
L 414.72 41.472 
L 57.6 41.472 
z
" style="fill: #ffffff"/>
   </g>
   <g id="matplotlib.axis_1">
    <g id="xtick_1">
     <g id="line2d_1">
      <defs>
       <path id="mef0bfbbe33" d="M 0 0 
L 0 3.5 
" style="stroke: #000000; stroke-width: 0.8"/>
      </defs>
      <g>
       <use xlink:href="#mef0bfbbe33" x="73.832727" y="307.584" style="stroke: #000000; stroke-width: 0.8"/>
      </g>
     </g>
     <g id="text_1">
      <!-- 0 -->
      <g transform="translate(70.651477 322.182437)scale(0.1 -0.1)">
       <defs>
        <path id="DejaVuSans-30" d="M 2034 4250 
Q 1547 4250 1301 3770 
Q 1056 3291 1056 2328 
Q 1056 1369 1301 889 
Q 1547 409 2034 409 
Q 2525 409 2770 889 
Q 3016 1369 3016 2328 
Q 3016 3291 2770 3770 
Q 2525 4250 2034 4250 
z
M 2034 4750 
Q 2819 4750 3233 4129 
Q 3647 3509 3647 2328 
Q 3647 1150 3233 529 
Q 2819 -91 2034 -91 
Q 1250 -91 836 529 
Q 422 1150 422 2328 
Q 422 3509 836 4129 
Q 1250 4750 2034 4750 
z
" transform="scale(0.015625)"/>
       </defs>
       <use xlink:href="#DejaVuSans-30"/>
      </g>
     </g>
    </g>
    <g id="xtick_2">
     <g id="line2d_2">
      <g>
       <use xlink:href="#mef0bfbbe33" x="132.903787" y="307.584" style="stroke: #000000; stroke-width: 0.8"/>
      </g>
     </g>
     <g id="text_2">
      <!-- 500 -->
      <g transform="translate(123.360037 322.182437)scale(0.1 -0.1)">
       <defs>
        <path id="DejaVuSans-35" d="M 691 4666 
L 3169 4666 
L 3169 4134 
L 1269 4134 
L 1269 2991 
Q 1406 3038 1543 3061 
Q 1681 3084 1819 3084 
Q 2600 3084 3056 2656 
Q 3513 2228 3513 1497 
Q 3513 744 3044 326 
Q 2575 -91 1722 -91 
Q 1428 -91 1123 -41 
Q 819 9 494 109 
L 494 744 
Q 775 591 1075 516 
Q 1375 441 1709 441 
Q 2250 441 2565 725 
Q 2881 1009 2881 1497 
Q 2881 1984 2565 2268 
Q 2250 2553 1709 2553 
Q 1456 2553 1204 2497 
Q 953 2441 691 2322 
L 691 4666 
z
" transform="scale(0.015625)"/>
       </defs>
       <use xlink:href="#DejaVuSans-35"/>
       <use xlink:href="#DejaVuSans-30" x="63.623047"/>
       <use xlink:href="#DejaVuSans-30" x="127.246094"/>
      </g>
     </g>
    </g>
    <g id="xtick_3">
     <g id="line2d_3">
      <g>
       <use xlink:href="#mef0bfbbe33" x="191.974847" y="307.584" style="stroke: #000000; stroke-width: 0.8"/>
      </g>
     </g>
     <g id="text_3">
      <!-- 1000 -->
      <g transform="translate(179.249847 322.182437)scale(0.1 -0.1)">
       <defs>
        <path id="DejaVuSans-31" d="M 794 531 
L 1825 531 
L 1825 4091 
L 703 3866 
L 703 4441 
L 1819 4666 
L 2450 4666 
L 2450 531 
L 3481 531 
L 3481 0 
L 794 0 
L 794 531 
z
" transform="scale(0.015625)"/>
       </defs>
       <use xlink:href="#DejaVuSans-31"/>
       <use xlink:href="#DejaVuSans-30" x="63.623047"/>
       <use xlink:href="#DejaVuSans-30" x="127.246094"/>
       <use xlink:href="#DejaVuSans-30" x="190.869141"/>
      </g>
     </g>
    </g>
    <g id="xtick_4">
     <g id="line2d_4">
      <g>
       <use xlink:href="#mef0bfbbe33" x="251.045907" y="307.584" style="stroke: #000000; stroke-width: 0.8"/>
      </g>
     </g>
     <g id="text_4">
      <!-- 1500 -->
      <g transform="translate(238.320907 322.182437)scale(0.1 -0.1)">
       <use xlink:href="#DejaVuSans-31"/>
       <use xlink:href="#DejaVuSans-35" x="63.623047"/>
       <use xlink:href="#DejaVuSans-30" x="127.246094"/>
       <use xlink:href="#DejaVuSans-30" x="190.869141"/>
      </g>
     </g>
    </g>
    <g id="xtick_5">
     <g id="line2d_5">
      <g>
       <use xlink:href="#mef0bfbbe33" x="310.116967" y="307.584" style="stroke: #000000; stroke-width: 0.8"/>
      </g>
     </g>
     <g id="text_5">
      <!-- 2000 -->
      <g transform="translate(297.391967 322.182437)scale(0.1 -0.1)">
       <defs>
        <path id="DejaVuSans-32" d="M 1228 531 
L 3431 531 
L 3431 0 
L 469 0 
L 469 531 
Q 828 903 1448 1529 
Q 2069 2156 2228 2338 
Q 2531 2678 2651 2914 
Q 2772 3150 2772 3378 
Q 2772 3750 2511 3984 
Q 2250 4219 1831 4219 
Q 1534 4219 1204 4116 
Q 875 4013 500 3803 
L 500 4441 
Q 881 4594 1212 4672 
Q 1544 4750 1819 4750 
Q 2544 4750 2975 4387 
Q 3406 4025 3406 3419 
Q 3406 3131 3298 2873 
Q 3191 2616 2906 2266 
Q 2828 2175 2409 1742 
Q 1991 1309 1228 531 
z
" transform="scale(0.015625)"/>
       </defs>
       <use xlink:href="#DejaVuSans-32"/>
       <use xlink:href="#DejaVuSans-30" x="63.623047"/>
       <use xlink:href="#DejaVuSans-30" x="127.246094"/>
       <use xlink:href="#DejaVuSans-30" x="190.869141"/>
      </g>
     </g>
    </g>
    <g id="xtick_6">
     <g id="line2d_6">
      <g>
       <use xlink:href="#mef0bfbbe33" x="369.188027" y="307.584" style="stroke: #000000; stroke-width: 0.8"/>
      </g>
     </g>
     <g id="text_6">
      <!-- 2500 -->
      <g transform="translate(356.463027 322.182437)scale(0.1 -0.1)">
       <use xlink:href="#DejaVuSans-32"/>
       <use xlink:href="#DejaVuSans-35" x="63.623047"/>
       <use xlink:href="#DejaVuSans-30" x="127.246094"/>
       <use xlink:href="#DejaVuSans-30" x="190.869141"/>
      </g>
     </g>
    </g>
    <g id="text_7">
     <!-- num swaps -->
     <g transform="translate(207.826406 335.860562)scale(0.1 -0.1)">
      <defs>
       <path id="DejaVuSans-6e" d="M 3513 2113 
L 3513 0 
L 2938 0 
L 2938 2094 
Q 2938 2591 2744 2837 
Q 2550 3084 2163 3084 
Q 1697 3084 1428 2787 
Q 1159 2491 1159 1978 
L 1159 0 
L 581 0 
L 581 3500 
L 1159 3500 
L 1159 2956 
Q 1366 3272 1645 3428 
Q 1925 3584 2291 3584 
Q 2894 3584 3203 3211 
Q 3513 2838 3513 2113 
z
" transform="scale(0.015625)"/>
       <path id="DejaVuSans-75" d="M 544 1381 
L 544 3500 
L 1119 3500 
L 1119 1403 
Q 1119 906 1312 657 
Q 1506 409 1894 409 
Q 2359 409 2629 706 
Q 2900 1003 2900 1516 
L 2900 3500 
L 3475 3500 
L 3475 0 
L 2900 0 
L 2900 538 
Q 2691 219 2414 64 
Q 2138 -91 1772 -91 
Q 1169 -91 856 284 
Q 544 659 544 1381 
z
M 1991 3584 
L 1991 3584 
z
" transform="scale(0.015625)"/>
       <path id="DejaVuSans-6d" d="M 3328 2828 
Q 3544 3216 3844 3400 
Q 4144 3584 4550 3584 
Q 5097 3584 5394 3201 
Q 5691 2819 5691 2113 
L 5691 0 
L 5113 0 
L 5113 2094 
Q 5113 2597 4934 2840 
Q 4756 3084 4391 3084 
Q 3944 3084 3684 2787 
Q 3425 2491 3425 1978 
L 3425 0 
L 2847 0 
L 2847 2094 
Q 2847 2600 2669 2842 
Q 2491 3084 2119 3084 
Q 1678 3084 1418 2786 
Q 1159 2488 1159 1978 
L 1159 0 
L 581 0 
L 581 3500 
L 1159 3500 
L 1159 2956 
Q 1356 3278 1631 3431 
Q 1906 3584 2284 3584 
Q 2666 3584 2933 3390 
Q 3200 3197 3328 2828 
z
" transform="scale(0.015625)"/>
       <path id="DejaVuSans-20" transform="scale(0.015625)"/>
       <path id="DejaVuSans-73" d="M 2834 3397 
L 2834 2853 
Q 2591 2978 2328 3040 
Q 2066 3103 1784 3103 
Q 1356 3103 1142 2972 
Q 928 2841 928 2578 
Q 928 2378 1081 2264 
Q 1234 2150 1697 2047 
L 1894 2003 
Q 2506 1872 2764 1633 
Q 3022 1394 3022 966 
Q 3022 478 2636 193 
Q 2250 -91 1575 -91 
Q 1294 -91 989 -36 
Q 684 19 347 128 
L 347 722 
Q 666 556 975 473 
Q 1284 391 1588 391 
Q 1994 391 2212 530 
Q 2431 669 2431 922 
Q 2431 1156 2273 1281 
Q 2116 1406 1581 1522 
L 1381 1569 
Q 847 1681 609 1914 
Q 372 2147 372 2553 
Q 372 3047 722 3315 
Q 1072 3584 1716 3584 
Q 2034 3584 2315 3537 
Q 2597 3491 2834 3397 
z
" transform="scale(0.015625)"/>
       <path id="DejaVuSans-77" d="M 269 3500 
L 844 3500 
L 1563 769 
L 2278 3500 
L 2956 3500 
L 3675 769 
L 4391 3500 
L 4966 3500 
L 4050 0 
L 3372 0 
L 2619 2869 
L 1863 0 
L 1184 0 
L 269 3500 
z
" transform="scale(0.015625)"/>
       <path id="DejaVuSans-61" d="M 2194 1759 
Q 1497 1759 1228 1600 
Q 959 1441 959 1056 
Q 959 750 1161 570 
Q 1363 391 1709 391 
Q 2188 391 2477 730 
Q 2766 1069 2766 1631 
L 2766 1759 
L 2194 1759 
z
M 3341 1997 
L 3341 0 
L 2766 0 
L 2766 531 
Q 2569 213 2275 61 
Q 1981 -91 1556 -91 
Q 1019 -91 701 211 
Q 384 513 384 1019 
Q 384 1609 779 1909 
Q 1175 2209 1959 2209 
L 2766 2209 
L 2766 2266 
Q 2766 2663 2505 2880 
Q 2244 3097 1772 3097 
Q 1472 3097 1187 3025 
Q 903 2953 641 2809 
L 641 3341 
Q 956 3463 1253 3523 
Q 1550 3584 1831 3584 
Q 2591 3584 2966 3190 
Q 3341 2797 3341 1997 
z
" transform="scale(0.015625)"/>
       <path id="DejaVuSans-70" d="M 1159 525 
L 1159 -1331 
L 581 -1331 
L 581 3500 
L 1159 3500 
L 1159 2969 
Q 1341 3281 1617 3432 
Q 1894 3584 2278 3584 
Q 2916 3584 3314 3078 
Q 3713 2572 3713 1747 
Q 3713 922 3314 415 
Q 2916 -91 2278 -91 
Q 1894 -91 1617 61 
Q 1341 213 1159 525 
z
M 3116 1747 
Q 3116 2381 2855 2742 
Q 2594 3103 2138 3103 
Q 1681 3103 1420 2742 
Q 1159 2381 1159 1747 
Q 1159 1113 1420 752 
Q 1681 391 2138 391 
Q 2594 391 2855 752 
Q 3116 1113 3116 1747 
z
" transform="scale(0.015625)"/>
      </defs>
      <use xlink:href="#DejaVuSans-6e"/>
      <use xlink:href="#DejaVuSans-75" x="63.378906"/>
      <use xlink:href="#DejaVuSans-6d" x="126.757812"/>
      <use xlink:href="#DejaVuSans-20" x="224.169922"/>
      <use xlink:href="#DejaVuSans-73" x="255.957031"/>
      <use xlink:href="#DejaVuSans-77" x="308.056641"/>
      <use xlink:href="#DejaVuSans-61" x="389.84375"/>
      <use xlink:href="#DejaVuSans-70" x="451.123047"/>
      <use xlink:href="#DejaVuSans-73" x="514.599609"/>
     </g>
    </g>
   </g>
   <g id="matplotlib.axis_2">
    <g id="ytick_1">
     <g id="line2d_7">
      <defs>
       <path id="m31ff3f4f29" d="M 0 0 
L -3.5 0 
" style="stroke: #000000; stroke-width: 0.8"/>
      </defs>
      <g>
       <use xlink:href="#m31ff3f4f29" x="57.6" y="290.499959" style="stroke: #000000; stroke-width: 0.8"/>
      </g>
     </g>
     <g id="text_8">
      <!-- 600 -->
      <g transform="translate(31.5125 294.299178)scale(0.1 -0.1)">
       <defs>
        <path id="DejaVuSans-36" d="M 2113 2584 
Q 1688 2584 1439 2293 
Q 1191 2003 1191 1497 
Q 1191 994 1439 701 
Q 1688 409 2113 409 
Q 2538 409 2786 701 
Q 3034 994 3034 1497 
Q 3034 2003 2786 2293 
Q 2538 2584 2113 2584 
z
M 3366 4563 
L 3366 3988 
Q 3128 4100 2886 4159 
Q 2644 4219 2406 4219 
Q 1781 4219 1451 3797 
Q 1122 3375 1075 2522 
Q 1259 2794 1537 2939 
Q 1816 3084 2150 3084 
Q 2853 3084 3261 2657 
Q 3669 2231 3669 1497 
Q 3669 778 3244 343 
Q 2819 -91 2113 -91 
Q 1303 -91 875 529 
Q 447 1150 447 2328 
Q 447 3434 972 4092 
Q 1497 4750 2381 4750 
Q 2619 4750 2861 4703 
Q 3103 4656 3366 4563 
z
" transform="scale(0.015625)"/>
       </defs>
       <use xlink:href="#DejaVuSans-36"/>
       <use xlink:href="#DejaVuSans-30" x="63.623047"/>
       <use xlink:href="#DejaVuSans-30" x="127.246094"/>
      </g>
     </g>
    </g>
    <g id="ytick_2">
     <g id="line2d_8">
      <g>
       <use xlink:href="#m31ff3f4f29" x="57.6" y="240.619546" style="stroke: #000000; stroke-width: 0.8"/>
      </g>
     </g>
     <g id="text_9">
      <!-- 620 -->
      <g transform="translate(31.5125 244.418765)scale(0.1 -0.1)">
       <use xlink:href="#DejaVuSans-36"/>
       <use xlink:href="#DejaVuSans-32" x="63.623047"/>
       <use xlink:href="#DejaVuSans-30" x="127.246094"/>
      </g>
     </g>
    </g>
    <g id="ytick_3">
     <g id="line2d_9">
      <g>
       <use xlink:href="#m31ff3f4f29" x="57.6" y="190.739134" style="stroke: #000000; stroke-width: 0.8"/>
      </g>
     </g>
     <g id="text_10">
      <!-- 640 -->
      <g transform="translate(31.5125 194.538353)scale(0.1 -0.1)">
       <defs>
        <path id="DejaVuSans-34" d="M 2419 4116 
L 825 1625 
L 2419 1625 
L 2419 4116 
z
M 2253 4666 
L 3047 4666 
L 3047 1625 
L 3713 1625 
L 3713 1100 
L 3047 1100 
L 3047 0 
L 2419 0 
L 2419 1100 
L 313 1100 
L 313 1709 
L 2253 4666 
z
" transform="scale(0.015625)"/>
       </defs>
       <use xlink:href="#DejaVuSans-36"/>
       <use xlink:href="#DejaVuSans-34" x="63.623047"/>
       <use xlink:href="#DejaVuSans-30" x="127.246094"/>
      </g>
     </g>
    </g>
    <g id="ytick_4">
     <g id="line2d_10">
      <g>
       <use xlink:href="#m31ff3f4f29" x="57.6" y="140.858722" style="stroke: #000000; stroke-width: 0.8"/>
      </g>
     </g>
     <g id="text_11">
      <!-- 660 -->
      <g transform="translate(31.5125 144.65794)scale(0.1 -0.1)">
       <use xlink:href="#DejaVuSans-36"/>
       <use xlink:href="#DejaVuSans-36" x="63.623047"/>
       <use xlink:href="#DejaVuSans-30" x="127.246094"/>
      </g>
     </g>
    </g>
    <g id="ytick_5">
     <g id="line2d_11">
      <g>
       <use xlink:href="#m31ff3f4f29" x="57.6" y="90.978309" style="stroke: #000000; stroke-width: 0.8"/>
      </g>
     </g>
     <g id="text_12">
      <!-- 680 -->
      <g transform="translate(31.5125 94.777528)scale(0.1 -0.1)">
       <defs>
        <path id="DejaVuSans-38" d="M 2034 2216 
Q 1584 2216 1326 1975 
Q 1069 1734 1069 1313 
Q 1069 891 1326 650 
Q 1584 409 2034 409 
Q 2484 409 2743 651 
Q 3003 894 3003 1313 
Q 3003 1734 2745 1975 
Q 2488 2216 2034 2216 
z
M 1403 2484 
Q 997 2584 770 2862 
Q 544 3141 544 3541 
Q 544 4100 942 4425 
Q 1341 4750 2034 4750 
Q 2731 4750 3128 4425 
Q 3525 4100 3525 3541 
Q 3525 3141 3298 2862 
Q 3072 2584 2669 2484 
Q 3125 2378 3379 2068 
Q 3634 1759 3634 1313 
Q 3634 634 3220 271 
Q 2806 -91 2034 -91 
Q 1263 -91 848 271 
Q 434 634 434 1313 
Q 434 1759 690 2068 
Q 947 2378 1403 2484 
z
M 1172 3481 
Q 1172 3119 1398 2916 
Q 1625 2713 2034 2713 
Q 2441 2713 2670 2916 
Q 2900 3119 2900 3481 
Q 2900 3844 2670 4047 
Q 2441 4250 2034 4250 
Q 1625 4250 1398 4047 
Q 1172 3844 1172 3481 
z
" transform="scale(0.015625)"/>
       </defs>
       <use xlink:href="#DejaVuSans-36"/>
       <use xlink:href="#DejaVuSans-38" x="63.623047"/>
       <use xlink:href="#DejaVuSans-30" x="127.246094"/>
      </g>
     </g>
    </g>
    <g id="text_13">
     <!-- total cost -->
     <g transform="translate(25.432812 197.923313)rotate(-90)scale(0.1 -0.1)">
      <defs>
       <path id="DejaVuSans-74" d="M 1172 4494 
L 1172 3500 
L 2356 3500 
L 2356 3053 
L 1172 3053 
L 1172 1153 
Q 1172 725 1289 603 
Q 1406 481 1766 481 
L 2356 481 
L 2356 0 
L 1766 0 
Q 1100 0 847 248 
Q 594 497 594 1153 
L 594 3053 
L 172 3053 
L 172 3500 
L 594 3500 
L 594 4494 
L 1172 4494 
z
" transform="scale(0.015625)"/>
       <path id="DejaVuSans-6f" d="M 1959 3097 
Q 1497 3097 1228 2736 
Q 959 2375 959 1747 
Q 959 1119 1226 758 
Q 1494 397 1959 397 
Q 2419 397 2687 759 
Q 2956 1122 2956 1747 
Q 2956 2369 2687 2733 
Q 2419 3097 1959 3097 
z
M 1959 3584 
Q 2709 3584 3137 3096 
Q 3566 2609 3566 1747 
Q 3566 888 3137 398 
Q 2709 -91 1959 -91 
Q 1206 -91 779 398 
Q 353 888 353 1747 
Q 353 2609 779 3096 
Q 1206 3584 1959 3584 
z
" transform="scale(0.015625)"/>
       <path id="DejaVuSans-6c" d="M 603 4863 
L 1178 4863 
L 1178 0 
L 603 0 
L 603 4863 
z
" transform="scale(0.015625)"/>
       <path id="DejaVuSans-63" d="M 3122 3366 
L 3122 2828 
Q 2878 2963 2633 3030 
Q 2388 3097 2138 3097 
Q 1578 3097 1268 2742 
Q 959 2388 959 1747 
Q 959 1106 1268 751 
Q 1578 397 2138 397 
Q 2388 397 2633 464 
Q 2878 531 3122 666 
L 3122 134 
Q 2881 22 2623 -34 
Q 2366 -91 2075 -91 
Q 1284 -91 818 406 
Q 353 903 353 1747 
Q 353 2603 823 3093 
Q 1294 3584 2113 3584 
Q 2378 3584 2631 3529 
Q 2884 3475 3122 3366 
z
" transform="scale(0.015625)"/>
      </defs>
      <use xlink:href="#DejaVuSans-74"/>
      <use xlink:href="#DejaVuSans-6f" x="39.208984"/>
      <use xlink:href="#DejaVuSans-74" x="100.390625"/>
      <use xlink:href="#DejaVuSans-61" x="139.599609"/>
      <use xlink:href="#DejaVuSans-6c" x="200.878906"/>
      <use xlink:href="#DejaVuSans-20" x="228.662109"/>
      <use xlink:href="#DejaVuSans-63" x="260.449219"/>
      <use xlink:href="#DejaVuSans-6f" x="315.429688"/>
      <use xlink:href="#DejaVuSans-73" x="376.611328"/>
      <use xlink:href="#DejaVuSans-74" x="428.710938"/>
     </g>
    </g>
   </g>
   <g id="line2d_12">
    <path d="M 73.832727 103.448412 
L 74.069012 103.448412 
L 74.305296 110.930474 
L 74.777864 83.496247 
L 75.250433 63.544082 
L 75.486717 73.520165 
L 75.723001 103.448412 
L 75.959285 103.448412 
L 76.19557 120.906557 
L 76.431854 115.918515 
L 76.668138 123.400577 
L 76.904422 88.484289 
L 77.376991 120.906557 
L 77.613275 113.424495 
L 77.849559 120.906557 
L 78.085844 118.412536 
L 78.794696 138.364701 
L 79.503549 115.918515 
L 79.739833 113.424495 
L 79.976118 120.906557 
L 80.212402 105.942433 
L 80.448686 98.460371 
L 80.68497 100.954392 
L 80.921254 128.388619 
L 81.157539 100.954392 
L 81.393823 108.436454 
L 81.630107 95.966351 
L 81.866391 103.448412 
L 82.102676 95.966351 
L 82.33896 108.436454 
L 82.575244 93.47233 
L 82.811528 95.966351 
L 83.047813 90.978309 
L 83.284097 100.954392 
L 83.520381 81.002227 
L 83.756665 113.424495 
L 83.99295 113.424495 
L 84.229234 93.47233 
L 84.465518 90.978309 
L 84.938087 115.918515 
L 85.174371 115.918515 
L 85.410655 88.484289 
L 85.883224 130.882639 
L 86.119508 128.388619 
L 86.355792 98.460371 
L 86.592076 98.460371 
L 86.82836 135.87068 
L 87.064645 150.834804 
L 87.300929 150.834804 
L 87.537213 128.388619 
L 87.773497 130.882639 
L 88.009782 123.400577 
L 88.246066 95.966351 
L 88.48235 93.47233 
L 88.718634 85.990268 
L 88.954919 93.47233 
L 89.427487 128.388619 
L 89.663771 95.966351 
L 89.900056 85.990268 
L 90.13634 93.47233 
L 90.372624 66.038103 
L 90.608908 71.026144 
L 90.845193 78.508206 
L 91.081477 61.050062 
L 91.317761 53.568 
L 91.554045 61.050062 
L 91.790329 63.544082 
L 92.262898 103.448412 
L 92.499182 98.460371 
L 92.735466 110.930474 
L 92.971751 105.942433 
L 93.444319 105.942433 
L 93.680603 113.424495 
L 93.916888 108.436454 
L 94.153172 110.930474 
L 94.389456 98.460371 
L 94.62574 105.942433 
L 94.862025 98.460371 
L 95.098309 120.906557 
L 95.334593 95.966351 
L 95.570877 120.906557 
L 95.807162 125.894598 
L 96.043446 123.400577 
L 96.516014 88.484289 
L 96.752299 81.002227 
L 96.988583 83.496247 
L 97.224867 98.460371 
L 97.461151 105.942433 
L 97.697435 98.460371 
L 97.93372 108.436454 
L 98.170004 138.364701 
L 98.642572 155.822845 
L 98.878857 135.87068 
L 99.115141 165.798928 
L 99.351425 173.28099 
L 99.823994 168.292948 
L 100.060278 168.292948 
L 100.296562 160.810887 
L 100.532846 173.28099 
L 100.769131 168.292948 
L 101.241699 148.340784 
L 101.477983 165.798928 
L 101.714268 143.352742 
L 102.186836 125.894598 
L 102.42312 100.954392 
L 102.659405 105.942433 
L 102.895689 120.906557 
L 103.131973 168.292948 
L 103.368257 165.798928 
L 103.604541 158.316866 
L 103.840826 160.810887 
L 104.07711 158.316866 
L 104.313394 158.316866 
L 104.549678 148.340784 
L 104.785963 150.834804 
L 105.022247 163.304907 
L 105.258531 158.316866 
L 105.494815 168.292948 
L 105.7311 150.834804 
L 106.203668 180.763052 
L 106.439952 175.77501 
L 106.676237 158.316866 
L 106.912521 153.328825 
L 107.385089 130.882639 
L 107.621374 133.37666 
L 107.857658 115.918515 
L 108.330226 145.846763 
L 108.566511 160.810887 
L 108.802795 138.364701 
L 109.039079 138.364701 
L 109.275363 133.37666 
L 109.747932 98.460371 
L 109.984216 100.954392 
L 110.2205 73.520165 
L 110.929353 93.47233 
L 111.165637 95.966351 
L 111.401921 108.436454 
L 111.638206 93.47233 
L 111.87449 110.930474 
L 112.347058 110.930474 
L 112.583343 115.918515 
L 112.819627 135.87068 
L 113.055911 135.87068 
L 113.292195 158.316866 
L 113.52848 163.304907 
L 113.764764 158.316866 
L 114.001048 175.77501 
L 114.237332 175.77501 
L 114.473617 183.257072 
L 114.709901 180.763052 
L 114.946185 180.763052 
L 115.182469 178.269031 
L 115.418753 173.28099 
L 115.655038 170.786969 
L 115.891322 180.763052 
L 116.127606 170.786969 
L 116.36389 180.763052 
L 116.600175 180.763052 
L 116.836459 170.786969 
L 117.072743 175.77501 
L 117.545312 148.340784 
L 117.781596 153.328825 
L 118.01788 165.798928 
L 118.254164 168.292948 
L 118.490449 173.28099 
L 118.726733 193.233155 
L 118.963017 178.269031 
L 119.199301 188.245113 
L 119.435586 210.691299 
L 119.67187 208.197278 
L 119.908154 220.667381 
L 120.144438 205.703258 
L 120.380723 203.209237 
L 120.617007 183.257072 
L 120.853291 195.727175 
L 121.089575 218.173361 
L 121.325859 220.667381 
L 121.562144 225.655423 
L 122.034712 260.571711 
L 122.270996 275.535835 
L 122.507281 260.571711 
L 122.743565 255.58367 
L 123.216133 235.631505 
L 123.688702 278.029856 
L 124.16127 238.125526 
L 124.397555 248.101608 
L 124.633839 288.005938 
L 125.106407 288.005938 
L 125.342692 295.488 
L 125.578976 290.499959 
L 125.81526 258.077691 
L 126.051544 253.089649 
L 126.287829 283.017897 
L 126.524113 255.58367 
L 126.760397 260.571711 
L 126.996681 263.065732 
L 127.232965 260.571711 
L 127.46925 260.571711 
L 127.705534 265.559753 
L 127.941818 255.58367 
L 128.414387 228.149443 
L 128.650671 233.137485 
L 128.886955 208.197278 
L 129.123239 198.221196 
L 129.359524 175.77501 
L 129.595808 170.786969 
L 129.832092 163.304907 
L 130.068376 180.763052 
L 130.304661 185.751093 
L 130.540945 183.257072 
L 130.777229 188.245113 
L 131.013513 190.739134 
L 131.249798 210.691299 
L 131.486082 205.703258 
L 131.722366 205.703258 
L 131.95865 228.149443 
L 132.194934 218.173361 
L 132.431219 198.221196 
L 132.667503 205.703258 
L 132.903787 203.209237 
L 133.140071 210.691299 
L 133.376356 185.751093 
L 133.61264 173.28099 
L 133.848924 183.257072 
L 134.085208 178.269031 
L 134.321493 210.691299 
L 134.557777 213.18532 
L 134.794061 213.18532 
L 135.030345 223.161402 
L 135.26663 250.595629 
L 135.502914 228.149443 
L 135.739198 240.619546 
L 135.975482 230.643464 
L 136.211767 215.67934 
L 136.684335 238.125526 
L 137.156904 250.595629 
L 137.393188 270.547794 
L 137.629472 268.053773 
L 137.865756 283.017897 
L 138.10204 283.017897 
L 138.338325 288.005938 
L 138.574609 283.017897 
L 138.810893 290.499959 
L 139.047177 270.547794 
L 139.283462 235.631505 
L 139.519746 240.619546 
L 139.75603 210.691299 
L 139.992314 198.221196 
L 140.701167 230.643464 
L 140.937451 218.173361 
L 141.173736 225.655423 
L 141.41002 223.161402 
L 141.646304 205.703258 
L 141.882588 200.715216 
L 142.118873 188.245113 
L 142.355157 190.739134 
L 142.591441 188.245113 
L 142.827725 193.233155 
L 143.06401 165.798928 
L 143.772862 208.197278 
L 144.245431 195.727175 
L 144.481715 190.739134 
L 144.954283 190.739134 
L 145.190568 195.727175 
L 145.663136 223.161402 
L 145.89942 205.703258 
L 146.135705 203.209237 
L 146.371989 208.197278 
L 146.608273 193.233155 
L 146.844557 238.125526 
L 147.080842 223.161402 
L 147.317126 235.631505 
L 147.789694 213.18532 
L 148.025979 173.28099 
L 148.262263 168.292948 
L 148.498547 168.292948 
L 148.734831 158.316866 
L 148.971116 133.37666 
L 149.443684 188.245113 
L 149.679968 188.245113 
L 149.916252 173.28099 
L 150.152537 178.269031 
L 150.388821 160.810887 
L 150.625105 153.328825 
L 150.861389 150.834804 
L 151.333958 160.810887 
L 151.570242 173.28099 
L 151.806526 170.786969 
L 152.042811 148.340784 
L 152.279095 190.739134 
L 152.515379 180.763052 
L 152.751663 198.221196 
L 152.987948 200.715216 
L 153.224232 205.703258 
L 153.460516 185.751093 
L 153.6968 200.715216 
L 153.933085 200.715216 
L 154.169369 198.221196 
L 154.405653 215.67934 
L 154.641937 203.209237 
L 154.878222 200.715216 
L 155.114506 188.245113 
L 155.587074 200.715216 
L 155.823358 188.245113 
L 156.059643 190.739134 
L 156.295927 175.77501 
L 156.532211 185.751093 
L 156.768495 190.739134 
L 157.00478 193.233155 
L 157.241064 185.751093 
L 157.477348 193.233155 
L 157.949917 228.149443 
L 158.186201 233.137485 
L 158.422485 213.18532 
L 158.658769 225.655423 
L 158.895054 188.245113 
L 159.131338 205.703258 
L 159.367622 190.739134 
L 159.603906 203.209237 
L 159.840191 208.197278 
L 160.076475 208.197278 
L 160.312759 188.245113 
L 160.549043 183.257072 
L 160.785328 168.292948 
L 161.021612 170.786969 
L 161.257896 150.834804 
L 161.49418 148.340784 
L 161.730464 163.304907 
L 161.966749 170.786969 
L 162.203033 185.751093 
L 162.439317 168.292948 
L 162.675601 168.292948 
L 162.911886 158.316866 
L 163.14817 170.786969 
L 163.384454 165.798928 
L 163.620738 168.292948 
L 164.093307 155.822845 
L 164.565875 185.751093 
L 164.80216 180.763052 
L 165.038444 190.739134 
L 165.274728 185.751093 
L 165.747297 208.197278 
L 165.983581 213.18532 
L 166.456149 213.18532 
L 166.928718 160.810887 
L 167.165002 153.328825 
L 167.63757 153.328825 
L 168.110139 175.77501 
L 168.346423 160.810887 
L 168.818992 170.786969 
L 169.055276 160.810887 
L 169.527844 135.87068 
L 169.764129 145.846763 
L 170.000413 140.858722 
L 170.236697 153.328825 
L 170.472981 145.846763 
L 170.709266 148.340784 
L 170.94555 160.810887 
L 171.181834 180.763052 
L 171.418118 178.269031 
L 171.654403 168.292948 
L 171.890687 163.304907 
L 172.126971 155.822845 
L 172.363255 155.822845 
L 172.599539 158.316866 
L 172.835824 158.316866 
L 173.308392 180.763052 
L 173.544676 165.798928 
L 173.780961 178.269031 
L 174.017245 170.786969 
L 174.253529 170.786969 
L 174.489813 190.739134 
L 174.726098 180.763052 
L 174.962382 178.269031 
L 175.198666 183.257072 
L 175.43495 175.77501 
L 175.671235 190.739134 
L 175.907519 183.257072 
L 176.143803 200.715216 
L 176.380087 205.703258 
L 176.616372 205.703258 
L 176.852656 155.822845 
L 177.08894 145.846763 
L 177.325224 140.858722 
L 177.561509 140.858722 
L 177.797793 115.918515 
L 178.034077 113.424495 
L 178.270361 125.894598 
L 178.506645 115.918515 
L 178.74293 123.400577 
L 178.979214 125.894598 
L 179.215498 130.882639 
L 179.451782 125.894598 
L 179.688067 133.37666 
L 179.924351 145.846763 
L 180.160635 148.340784 
L 180.396919 168.292948 
L 180.633204 158.316866 
L 181.105772 190.739134 
L 181.342056 185.751093 
L 181.578341 195.727175 
L 182.050909 185.751093 
L 182.523478 213.18532 
L 182.996046 180.763052 
L 183.23233 170.786969 
L 183.468615 175.77501 
L 183.941183 198.221196 
L 184.413751 198.221196 
L 184.650036 208.197278 
L 184.88632 203.209237 
L 185.122604 195.727175 
L 185.358888 208.197278 
L 185.595173 195.727175 
L 185.831457 208.197278 
L 186.304025 195.727175 
L 186.54031 195.727175 
L 186.776594 198.221196 
L 187.249162 198.221196 
L 187.485447 193.233155 
L 187.721731 180.763052 
L 187.958015 180.763052 
L 188.194299 198.221196 
L 188.430584 198.221196 
L 188.666868 175.77501 
L 188.903152 188.245113 
L 189.139436 183.257072 
L 189.612005 210.691299 
L 190.084573 188.245113 
L 190.320857 193.233155 
L 190.557142 160.810887 
L 190.793426 165.798928 
L 191.02971 175.77501 
L 191.502279 160.810887 
L 191.738563 175.77501 
L 191.974847 173.28099 
L 192.211131 138.364701 
L 192.447416 145.846763 
L 193.156268 108.436454 
L 193.392553 120.906557 
L 193.628837 125.894598 
L 193.865121 120.906557 
L 194.101405 108.436454 
L 194.33769 133.37666 
L 194.573974 138.364701 
L 194.810258 138.364701 
L 195.046542 133.37666 
L 195.282827 135.87068 
L 195.755395 150.834804 
L 195.991679 175.77501 
L 196.227963 180.763052 
L 196.464248 173.28099 
L 196.700532 173.28099 
L 196.936816 170.786969 
L 197.409385 208.197278 
L 197.645669 223.161402 
L 197.881953 220.667381 
L 198.118237 205.703258 
L 198.354522 203.209237 
L 198.590806 208.197278 
L 199.063374 230.643464 
L 199.299659 223.161402 
L 199.535943 225.655423 
L 200.008511 240.619546 
L 200.244796 240.619546 
L 200.48108 218.173361 
L 200.717364 220.667381 
L 200.953648 210.691299 
L 201.189933 190.739134 
L 201.426217 188.245113 
L 201.898785 200.715216 
L 202.135069 185.751093 
L 202.371354 200.715216 
L 202.607638 200.715216 
L 203.080206 168.292948 
L 203.316491 185.751093 
L 203.552775 183.257072 
L 203.789059 200.715216 
L 204.025343 195.727175 
L 204.261628 193.233155 
L 204.497912 198.221196 
L 204.97048 170.786969 
L 205.206765 165.798928 
L 205.443049 198.221196 
L 205.679333 210.691299 
L 205.915617 233.137485 
L 206.151902 235.631505 
L 206.62447 213.18532 
L 206.860754 175.77501 
L 207.333323 185.751093 
L 207.805891 190.739134 
L 208.042175 210.691299 
L 208.27846 220.667381 
L 208.514744 210.691299 
L 208.751028 215.67934 
L 208.987312 210.691299 
L 209.223597 218.173361 
L 209.696165 250.595629 
L 209.932449 240.619546 
L 210.168734 235.631505 
L 210.405018 240.619546 
L 210.641302 240.619546 
L 210.877586 243.113567 
L 211.586439 193.233155 
L 211.822723 200.715216 
L 212.059008 198.221196 
L 212.295292 198.221196 
L 212.531576 203.209237 
L 212.76786 198.221196 
L 213.004145 200.715216 
L 213.240429 185.751093 
L 213.476713 198.221196 
L 213.712997 183.257072 
L 213.949281 198.221196 
L 214.185566 190.739134 
L 214.658134 210.691299 
L 214.894418 200.715216 
L 215.130703 200.715216 
L 215.366987 208.197278 
L 215.603271 188.245113 
L 215.839555 158.316866 
L 216.312124 173.28099 
L 216.784692 160.810887 
L 217.020977 158.316866 
L 217.257261 158.316866 
L 217.493545 163.304907 
L 217.729829 163.304907 
L 217.966114 170.786969 
L 218.202398 168.292948 
L 218.438682 160.810887 
L 219.147535 183.257072 
L 219.383819 195.727175 
L 219.856387 190.739134 
L 220.092672 185.751093 
L 220.328956 165.798928 
L 220.56524 160.810887 
L 220.801524 173.28099 
L 221.037809 158.316866 
L 221.274093 165.798928 
L 221.746661 155.822845 
L 221.982946 160.810887 
L 222.21923 170.786969 
L 222.455514 175.77501 
L 222.928083 175.77501 
L 223.164367 168.292948 
L 223.400651 170.786969 
L 223.87322 160.810887 
L 224.109504 158.316866 
L 224.345788 165.798928 
L 224.582072 138.364701 
L 224.818356 160.810887 
L 225.054641 160.810887 
L 225.290925 178.269031 
L 225.527209 185.751093 
L 225.763493 188.245113 
L 225.999778 198.221196 
L 226.236062 195.727175 
L 226.70863 205.703258 
L 226.944915 223.161402 
L 227.181199 230.643464 
L 227.417483 230.643464 
L 227.653767 233.137485 
L 228.126336 215.67934 
L 228.36262 215.67934 
L 229.071473 190.739134 
L 229.544041 170.786969 
L 229.780326 180.763052 
L 230.01661 173.28099 
L 230.252894 160.810887 
L 230.489178 165.798928 
L 230.725462 130.882639 
L 231.198031 155.822845 
L 231.434315 150.834804 
L 231.670599 148.340784 
L 231.906884 163.304907 
L 232.143168 145.846763 
L 232.379452 170.786969 
L 232.615736 165.798928 
L 233.088305 185.751093 
L 233.324589 178.269031 
L 233.560873 165.798928 
L 233.797158 178.269031 
L 234.033442 173.28099 
L 234.50601 153.328825 
L 234.742295 158.316866 
L 234.978579 150.834804 
L 235.214863 148.340784 
L 235.451147 150.834804 
L 235.687432 158.316866 
L 236.16 128.388619 
L 236.396284 128.388619 
L 236.632568 135.87068 
L 236.868853 100.954392 
L 237.341421 128.388619 
L 237.577705 175.77501 
L 237.81399 198.221196 
L 238.050274 195.727175 
L 238.286558 205.703258 
L 238.522842 220.667381 
L 238.759127 243.113567 
L 238.995411 203.209237 
L 239.231695 218.173361 
L 239.467979 205.703258 
L 239.704264 210.691299 
L 239.940548 200.715216 
L 240.176832 203.209237 
L 240.413116 200.715216 
L 240.649401 205.703258 
L 240.885685 198.221196 
L 241.121969 213.18532 
L 241.358253 193.233155 
L 241.594538 198.221196 
L 241.830822 183.257072 
L 242.067106 198.221196 
L 242.30339 200.715216 
L 242.539674 195.727175 
L 243.012243 165.798928 
L 243.248527 185.751093 
L 243.484811 175.77501 
L 243.721096 160.810887 
L 244.193664 145.846763 
L 244.429948 145.846763 
L 244.666233 135.87068 
L 245.138801 95.966351 
L 245.375085 110.930474 
L 245.61137 78.508206 
L 245.847654 88.484289 
L 246.083938 66.038103 
L 246.320222 81.002227 
L 246.556507 78.508206 
L 246.792791 83.496247 
L 247.265359 115.918515 
L 247.501644 118.412536 
L 247.737928 133.37666 
L 247.974212 128.388619 
L 248.683065 100.954392 
L 248.919349 120.906557 
L 249.155633 130.882639 
L 249.391917 120.906557 
L 249.628202 125.894598 
L 250.10077 140.858722 
L 250.573339 115.918515 
L 250.809623 118.412536 
L 251.045907 128.388619 
L 251.282191 148.340784 
L 251.518476 150.834804 
L 251.75476 150.834804 
L 251.991044 148.340784 
L 252.227328 140.858722 
L 252.463613 143.352742 
L 252.699897 143.352742 
L 253.172465 158.316866 
L 253.40875 148.340784 
L 253.881318 168.292948 
L 254.353886 158.316866 
L 254.826455 138.364701 
L 255.062739 158.316866 
L 255.299023 158.316866 
L 255.535308 160.810887 
L 255.771592 173.28099 
L 256.007876 170.786969 
L 256.24416 170.786969 
L 256.480445 173.28099 
L 256.716729 178.269031 
L 256.953013 180.763052 
L 257.189297 180.763052 
L 257.425582 175.77501 
L 257.89815 140.858722 
L 258.134434 138.364701 
L 258.370719 153.328825 
L 258.843287 168.292948 
L 259.079571 155.822845 
L 259.315855 163.304907 
L 259.788424 150.834804 
L 260.024708 175.77501 
L 260.260992 170.786969 
L 260.497277 180.763052 
L 260.733561 153.328825 
L 260.969845 160.810887 
L 261.206129 158.316866 
L 261.442414 150.834804 
L 261.678698 153.328825 
L 261.914982 168.292948 
L 262.151266 195.727175 
L 262.387551 178.269031 
L 262.623835 178.269031 
L 262.860119 195.727175 
L 263.096403 193.233155 
L 263.332688 170.786969 
L 263.568972 183.257072 
L 263.805256 158.316866 
L 264.04154 163.304907 
L 264.277825 160.810887 
L 264.750393 185.751093 
L 264.986677 173.28099 
L 265.222961 173.28099 
L 265.459246 183.257072 
L 265.69553 213.18532 
L 265.931814 200.715216 
L 266.168098 198.221196 
L 266.404383 185.751093 
L 266.640667 198.221196 
L 266.876951 198.221196 
L 267.113235 180.763052 
L 267.585804 163.304907 
L 267.822088 148.340784 
L 268.058372 153.328825 
L 268.294657 145.846763 
L 268.767225 145.846763 
L 269.003509 143.352742 
L 269.239794 148.340784 
L 269.476078 133.37666 
L 269.712362 155.822845 
L 270.184931 160.810887 
L 270.421215 160.810887 
L 270.657499 148.340784 
L 270.893783 160.810887 
L 271.130067 153.328825 
L 271.366352 165.798928 
L 271.602636 140.858722 
L 271.83892 128.388619 
L 272.075204 150.834804 
L 272.547773 135.87068 
L 272.784057 148.340784 
L 273.020341 150.834804 
L 273.256626 150.834804 
L 273.49291 155.822845 
L 273.729194 148.340784 
L 273.965478 153.328825 
L 274.201763 138.364701 
L 274.438047 135.87068 
L 274.674331 135.87068 
L 275.1469 145.846763 
L 275.383184 120.906557 
L 275.619468 123.400577 
L 275.855752 128.388619 
L 276.092037 138.364701 
L 276.328321 165.798928 
L 276.800889 178.269031 
L 277.037173 168.292948 
L 277.273458 138.364701 
L 277.509742 143.352742 
L 277.746026 118.412536 
L 277.98231 115.918515 
L 278.218595 143.352742 
L 278.454879 140.858722 
L 278.927447 168.292948 
L 279.163732 140.858722 
L 279.6363 153.328825 
L 279.872584 158.316866 
L 280.345153 183.257072 
L 281.054006 225.655423 
L 281.29029 223.161402 
L 281.762858 180.763052 
L 281.999143 180.763052 
L 282.944279 148.340784 
L 283.180564 148.340784 
L 283.416848 173.28099 
L 283.653132 173.28099 
L 284.125701 198.221196 
L 284.361985 198.221196 
L 284.598269 188.245113 
L 284.834553 173.28099 
L 285.307122 173.28099 
L 285.543406 165.798928 
L 285.77969 163.304907 
L 286.015975 148.340784 
L 286.252259 123.400577 
L 286.488543 135.87068 
L 286.724827 128.388619 
L 286.961112 140.858722 
L 287.197396 120.906557 
L 287.43368 123.400577 
L 287.669964 160.810887 
L 287.906249 150.834804 
L 288.142533 165.798928 
L 288.378817 173.28099 
L 288.615101 168.292948 
L 288.851385 180.763052 
L 289.08767 148.340784 
L 289.323954 155.822845 
L 289.560238 173.28099 
L 289.796522 168.292948 
L 290.032807 165.798928 
L 290.269091 160.810887 
L 290.505375 165.798928 
L 290.741659 153.328825 
L 290.977944 173.28099 
L 291.214228 135.87068 
L 291.686796 145.846763 
L 292.159365 165.798928 
L 292.631933 160.810887 
L 292.868218 153.328825 
L 293.104502 158.316866 
L 293.340786 160.810887 
L 293.57707 190.739134 
L 294.049639 190.739134 
L 294.285923 193.233155 
L 294.522207 193.233155 
L 294.758491 188.245113 
L 294.994776 198.221196 
L 295.23106 188.245113 
L 295.703628 188.245113 
L 295.939913 200.715216 
L 296.412481 185.751093 
L 296.648765 173.28099 
L 296.88505 175.77501 
L 297.121334 163.304907 
L 297.357618 168.292948 
L 297.593902 155.822845 
L 298.066471 175.77501 
L 298.302755 170.786969 
L 298.539039 178.269031 
L 299.011608 153.328825 
L 299.484176 148.340784 
L 299.720461 140.858722 
L 299.956745 158.316866 
L 300.193029 145.846763 
L 300.429313 168.292948 
L 300.665597 145.846763 
L 300.901882 148.340784 
L 301.138166 158.316866 
L 301.37445 158.316866 
L 301.610734 115.918515 
L 301.847019 108.436454 
L 302.083303 150.834804 
L 302.319587 133.37666 
L 302.555871 125.894598 
L 302.792156 128.388619 
L 303.02844 125.894598 
L 303.264724 105.942433 
L 303.501008 133.37666 
L 303.973577 105.942433 
L 304.209861 103.448412 
L 304.446145 110.930474 
L 304.68243 110.930474 
L 304.918714 90.978309 
L 305.154998 95.966351 
L 305.391282 108.436454 
L 305.627566 110.930474 
L 306.100135 93.47233 
L 306.336419 93.47233 
L 306.808988 133.37666 
L 307.281556 143.352742 
L 307.51784 150.834804 
L 307.754125 180.763052 
L 307.990409 180.763052 
L 308.226693 188.245113 
L 308.462977 175.77501 
L 308.699262 183.257072 
L 308.935546 170.786969 
L 309.17183 195.727175 
L 309.408114 203.209237 
L 309.644399 200.715216 
L 309.880683 218.173361 
L 310.116967 215.67934 
L 310.353251 223.161402 
L 310.82582 213.18532 
L 311.062104 210.691299 
L 311.298388 203.209237 
L 311.534672 188.245113 
L 311.770957 195.727175 
L 312.007241 165.798928 
L 312.243525 168.292948 
L 312.479809 178.269031 
L 312.952378 178.269031 
L 313.188662 163.304907 
L 313.424946 168.292948 
L 314.133799 160.810887 
L 314.370083 170.786969 
L 314.842652 160.810887 
L 315.078936 160.810887 
L 315.31522 153.328825 
L 315.787789 128.388619 
L 316.024073 143.352742 
L 316.260357 145.846763 
L 316.496642 125.894598 
L 317.441778 180.763052 
L 317.914347 210.691299 
L 318.6232 188.245113 
L 319.095768 133.37666 
L 319.332052 123.400577 
L 319.568337 138.364701 
L 319.804621 143.352742 
L 320.040905 150.834804 
L 320.277189 165.798928 
L 320.513474 173.28099 
L 320.749758 173.28099 
L 320.986042 168.292948 
L 321.222326 183.257072 
L 321.458611 185.751093 
L 321.694895 195.727175 
L 321.931179 195.727175 
L 322.167463 163.304907 
L 322.403748 155.822845 
L 322.640032 175.77501 
L 322.876316 215.67934 
L 323.1126 198.221196 
L 323.348884 200.715216 
L 323.585169 193.233155 
L 323.821453 193.233155 
L 324.294021 198.221196 
L 324.530306 195.727175 
L 324.76659 163.304907 
L 325.239158 168.292948 
L 325.475443 173.28099 
L 325.711727 180.763052 
L 325.948011 200.715216 
L 326.184295 210.691299 
L 326.656864 215.67934 
L 326.893148 210.691299 
L 327.365717 193.233155 
L 327.602001 175.77501 
L 327.838285 178.269031 
L 328.074569 178.269031 
L 328.310854 163.304907 
L 328.547138 165.798928 
L 328.783422 158.316866 
L 329.019706 140.858722 
L 329.25599 168.292948 
L 329.492275 173.28099 
L 329.728559 170.786969 
L 329.964843 175.77501 
L 330.201127 163.304907 
L 330.437412 170.786969 
L 330.673696 185.751093 
L 330.90998 185.751093 
L 331.146264 193.233155 
L 331.618833 193.233155 
L 332.091401 198.221196 
L 332.327686 220.667381 
L 332.56397 225.655423 
L 332.800254 228.149443 
L 333.036538 210.691299 
L 333.272823 238.125526 
L 333.509107 235.631505 
L 333.745391 238.125526 
L 333.981675 230.643464 
L 334.690528 250.595629 
L 334.926812 228.149443 
L 335.163096 225.655423 
L 335.635665 203.209237 
L 335.871949 200.715216 
L 336.108233 233.137485 
L 336.344518 235.631505 
L 336.817086 260.571711 
L 337.05337 245.607588 
L 337.525939 203.209237 
L 337.762223 200.715216 
L 337.998507 195.727175 
L 338.234792 195.727175 
L 338.471076 198.221196 
L 338.70736 195.727175 
L 338.943644 190.739134 
L 339.416213 150.834804 
L 339.652497 205.703258 
L 339.888781 213.18532 
L 340.125066 215.67934 
L 340.36135 205.703258 
L 340.597634 210.691299 
L 340.833918 210.691299 
L 341.070202 203.209237 
L 341.306487 205.703258 
L 342.015339 238.125526 
L 342.251624 240.619546 
L 342.487908 233.137485 
L 342.724192 233.137485 
L 342.960476 225.655423 
L 343.196761 225.655423 
L 343.433045 235.631505 
L 343.669329 253.089649 
L 343.905613 238.125526 
L 344.141898 248.101608 
L 344.378182 235.631505 
L 344.614466 230.643464 
L 344.85075 223.161402 
L 345.087035 223.161402 
L 345.323319 233.137485 
L 345.559603 235.631505 
L 345.795887 223.161402 
L 346.268456 228.149443 
L 346.50474 225.655423 
L 346.741024 228.149443 
L 346.977308 233.137485 
L 347.213593 243.113567 
L 347.686161 195.727175 
L 347.922445 165.798928 
L 348.15873 168.292948 
L 348.395014 128.388619 
L 348.631298 115.918515 
L 348.867582 125.894598 
L 349.103867 168.292948 
L 349.340151 163.304907 
L 349.576435 173.28099 
L 349.812719 175.77501 
L 350.049004 175.77501 
L 350.285288 173.28099 
L 350.521572 163.304907 
L 350.757856 160.810887 
L 350.994141 173.28099 
L 351.230425 165.798928 
L 351.466709 170.786969 
L 351.702993 160.810887 
L 351.939277 155.822845 
L 352.175562 153.328825 
L 352.411846 153.328825 
L 352.64813 148.340784 
L 352.884414 190.739134 
L 353.120699 188.245113 
L 353.356983 165.798928 
L 353.593267 183.257072 
L 353.829551 180.763052 
L 354.30212 205.703258 
L 354.538404 205.703258 
L 354.774688 198.221196 
L 355.010973 220.667381 
L 355.247257 208.197278 
L 355.483541 210.691299 
L 355.719825 198.221196 
L 356.192394 220.667381 
L 356.428678 215.67934 
L 356.664962 195.727175 
L 356.901247 200.715216 
L 357.137531 228.149443 
L 357.373815 223.161402 
L 357.610099 220.667381 
L 357.846383 205.703258 
L 358.082668 198.221196 
L 358.318952 173.28099 
L 358.555236 180.763052 
L 359.027805 215.67934 
L 359.264089 228.149443 
L 359.500373 205.703258 
L 359.736657 225.655423 
L 359.972942 230.643464 
L 360.209226 245.607588 
L 360.44551 228.149443 
L 360.681794 228.149443 
L 360.918079 235.631505 
L 361.154363 238.125526 
L 361.390647 238.125526 
L 361.863216 253.089649 
L 362.0995 248.101608 
L 362.335784 240.619546 
L 362.572068 225.655423 
L 362.808353 218.173361 
L 363.044637 215.67934 
L 363.280921 205.703258 
L 363.517205 190.739134 
L 363.989774 215.67934 
L 364.226058 225.655423 
L 364.462342 218.173361 
L 364.698626 218.173361 
L 364.934911 215.67934 
L 365.407479 225.655423 
L 365.643763 243.113567 
L 366.116332 230.643464 
L 366.352616 215.67934 
L 366.825185 205.703258 
L 367.061469 205.703258 
L 367.297753 230.643464 
L 367.534037 233.137485 
L 367.770322 245.607588 
L 368.006606 225.655423 
L 368.24289 245.607588 
L 368.479174 253.089649 
L 368.715459 250.595629 
L 368.951743 250.595629 
L 369.188027 260.571711 
L 369.660595 230.643464 
L 369.89688 248.101608 
L 370.133164 240.619546 
L 370.369448 245.607588 
L 370.842017 245.607588 
L 371.078301 213.18532 
L 371.314585 223.161402 
L 371.550869 218.173361 
L 371.787154 218.173361 
L 372.023438 225.655423 
L 372.259722 238.125526 
L 372.496006 238.125526 
L 372.732291 245.607588 
L 372.968575 240.619546 
L 373.204859 220.667381 
L 373.441143 225.655423 
L 373.677428 223.161402 
L 373.913712 238.125526 
L 374.149996 228.149443 
L 374.38628 225.655423 
L 374.858849 210.691299 
L 375.095133 213.18532 
L 375.803986 183.257072 
L 376.04027 193.233155 
L 376.276554 178.269031 
L 376.512838 190.739134 
L 376.749123 175.77501 
L 376.985407 195.727175 
L 377.221691 198.221196 
L 377.457975 185.751093 
L 377.69426 190.739134 
L 377.930544 193.233155 
L 378.166828 188.245113 
L 378.403112 193.233155 
L 378.639397 188.245113 
L 378.875681 188.245113 
L 379.111965 195.727175 
L 379.348249 210.691299 
L 379.584534 210.691299 
L 379.820818 218.173361 
L 380.057102 213.18532 
L 380.293386 190.739134 
L 380.529671 198.221196 
L 380.765955 158.316866 
L 381.002239 163.304907 
L 381.238523 170.786969 
L 381.711092 170.786969 
L 381.947376 153.328825 
L 382.18366 158.316866 
L 382.419944 170.786969 
L 382.656229 160.810887 
L 382.892513 175.77501 
L 383.128797 178.269031 
L 383.365081 193.233155 
L 383.601366 193.233155 
L 383.83765 190.739134 
L 384.073934 190.739134 
L 384.310218 208.197278 
L 384.546503 205.703258 
L 384.782787 213.18532 
L 385.019071 195.727175 
L 385.255355 198.221196 
L 385.49164 193.233155 
L 385.727924 205.703258 
L 385.964208 210.691299 
L 386.200492 220.667381 
L 386.436776 225.655423 
L 386.673061 218.173361 
L 386.909345 218.173361 
L 387.145629 215.67934 
L 387.381913 230.643464 
L 387.618198 215.67934 
L 387.854482 208.197278 
L 388.090766 220.667381 
L 388.32705 208.197278 
L 388.799619 208.197278 
L 389.035903 205.703258 
L 389.744756 225.655423 
L 389.98104 230.643464 
L 390.217324 223.161402 
L 390.453609 263.065732 
L 390.689893 243.113567 
L 391.63503 213.18532 
L 391.871314 195.727175 
L 392.107598 230.643464 
L 392.343882 230.643464 
L 392.580167 228.149443 
L 392.816451 230.643464 
L 393.052735 228.149443 
L 393.289019 243.113567 
L 393.525304 245.607588 
L 393.761588 203.209237 
L 393.997872 200.715216 
L 394.234156 180.763052 
L 394.470441 190.739134 
L 394.943009 173.28099 
L 395.179293 180.763052 
L 395.415578 178.269031 
L 395.651862 193.233155 
L 395.888146 195.727175 
L 396.12443 193.233155 
L 396.360715 195.727175 
L 397.069567 215.67934 
L 397.305852 205.703258 
L 397.542136 203.209237 
L 397.77842 205.703258 
L 398.014704 240.619546 
L 398.250988 248.101608 
L 398.487273 243.113567 
L 398.487273 243.113567 
" clip-path="url(#p07618f3044)" style="fill: none; stroke: #1f77b4; stroke-width: 1.5; stroke-linecap: square"/>
   </g>
   <g id="patch_3">
    <path d="M 57.6 307.584 
L 57.6 41.472 
" style="fill: none; stroke: #000000; stroke-width: 0.8; stroke-linejoin: miter; stroke-linecap: square"/>
   </g>
   <g id="patch_4">
    <path d="M 414.72 307.584 
L 414.72 41.472 
" style="fill: none; stroke: #000000; stroke-width: 0.8; stroke-linejoin: miter; stroke-linecap: square"/>
   </g>
   <g id="patch_5">
    <path d="M 57.6 307.584 
L 414.72 307.584 
" style="fill: none; stroke: #000000; stroke-width: 0.8; stroke-linejoin: miter; stroke-linecap: square"/>
   </g>
   <g id="patch_6">
    <path d="M 57.6 41.472 
L 414.72 41.472 
" style="fill: none; stroke: #000000; stroke-width: 0.8; stroke-linejoin: miter; stroke-linecap: square"/>
   </g>
   <g id="text_14">
    <!-- Simulated Anealling Cost -->
    <g transform="translate(160.8 35.472)scale(0.12 -0.12)">
     <defs>
      <path id="DejaVuSans-53" d="M 3425 4513 
L 3425 3897 
Q 3066 4069 2747 4153 
Q 2428 4238 2131 4238 
Q 1616 4238 1336 4038 
Q 1056 3838 1056 3469 
Q 1056 3159 1242 3001 
Q 1428 2844 1947 2747 
L 2328 2669 
Q 3034 2534 3370 2195 
Q 3706 1856 3706 1288 
Q 3706 609 3251 259 
Q 2797 -91 1919 -91 
Q 1588 -91 1214 -16 
Q 841 59 441 206 
L 441 856 
Q 825 641 1194 531 
Q 1563 422 1919 422 
Q 2459 422 2753 634 
Q 3047 847 3047 1241 
Q 3047 1584 2836 1778 
Q 2625 1972 2144 2069 
L 1759 2144 
Q 1053 2284 737 2584 
Q 422 2884 422 3419 
Q 422 4038 858 4394 
Q 1294 4750 2059 4750 
Q 2388 4750 2728 4690 
Q 3069 4631 3425 4513 
z
" transform="scale(0.015625)"/>
      <path id="DejaVuSans-69" d="M 603 3500 
L 1178 3500 
L 1178 0 
L 603 0 
L 603 3500 
z
M 603 4863 
L 1178 4863 
L 1178 4134 
L 603 4134 
L 603 4863 
z
" transform="scale(0.015625)"/>
      <path id="DejaVuSans-65" d="M 3597 1894 
L 3597 1613 
L 953 1613 
Q 991 1019 1311 708 
Q 1631 397 2203 397 
Q 2534 397 2845 478 
Q 3156 559 3463 722 
L 3463 178 
Q 3153 47 2828 -22 
Q 2503 -91 2169 -91 
Q 1331 -91 842 396 
Q 353 884 353 1716 
Q 353 2575 817 3079 
Q 1281 3584 2069 3584 
Q 2775 3584 3186 3129 
Q 3597 2675 3597 1894 
z
M 3022 2063 
Q 3016 2534 2758 2815 
Q 2500 3097 2075 3097 
Q 1594 3097 1305 2825 
Q 1016 2553 972 2059 
L 3022 2063 
z
" transform="scale(0.015625)"/>
      <path id="DejaVuSans-64" d="M 2906 2969 
L 2906 4863 
L 3481 4863 
L 3481 0 
L 2906 0 
L 2906 525 
Q 2725 213 2448 61 
Q 2172 -91 1784 -91 
Q 1150 -91 751 415 
Q 353 922 353 1747 
Q 353 2572 751 3078 
Q 1150 3584 1784 3584 
Q 2172 3584 2448 3432 
Q 2725 3281 2906 2969 
z
M 947 1747 
Q 947 1113 1208 752 
Q 1469 391 1925 391 
Q 2381 391 2643 752 
Q 2906 1113 2906 1747 
Q 2906 2381 2643 2742 
Q 2381 3103 1925 3103 
Q 1469 3103 1208 2742 
Q 947 2381 947 1747 
z
" transform="scale(0.015625)"/>
      <path id="DejaVuSans-41" d="M 2188 4044 
L 1331 1722 
L 3047 1722 
L 2188 4044 
z
M 1831 4666 
L 2547 4666 
L 4325 0 
L 3669 0 
L 3244 1197 
L 1141 1197 
L 716 0 
L 50 0 
L 1831 4666 
z
" transform="scale(0.015625)"/>
      <path id="DejaVuSans-67" d="M 2906 1791 
Q 2906 2416 2648 2759 
Q 2391 3103 1925 3103 
Q 1463 3103 1205 2759 
Q 947 2416 947 1791 
Q 947 1169 1205 825 
Q 1463 481 1925 481 
Q 2391 481 2648 825 
Q 2906 1169 2906 1791 
z
M 3481 434 
Q 3481 -459 3084 -895 
Q 2688 -1331 1869 -1331 
Q 1566 -1331 1297 -1286 
Q 1028 -1241 775 -1147 
L 775 -588 
Q 1028 -725 1275 -790 
Q 1522 -856 1778 -856 
Q 2344 -856 2625 -561 
Q 2906 -266 2906 331 
L 2906 616 
Q 2728 306 2450 153 
Q 2172 0 1784 0 
Q 1141 0 747 490 
Q 353 981 353 1791 
Q 353 2603 747 3093 
Q 1141 3584 1784 3584 
Q 2172 3584 2450 3431 
Q 2728 3278 2906 2969 
L 2906 3500 
L 3481 3500 
L 3481 434 
z
" transform="scale(0.015625)"/>
      <path id="DejaVuSans-43" d="M 4122 4306 
L 4122 3641 
Q 3803 3938 3442 4084 
Q 3081 4231 2675 4231 
Q 1875 4231 1450 3742 
Q 1025 3253 1025 2328 
Q 1025 1406 1450 917 
Q 1875 428 2675 428 
Q 3081 428 3442 575 
Q 3803 722 4122 1019 
L 4122 359 
Q 3791 134 3420 21 
Q 3050 -91 2638 -91 
Q 1578 -91 968 557 
Q 359 1206 359 2328 
Q 359 3453 968 4101 
Q 1578 4750 2638 4750 
Q 3056 4750 3426 4639 
Q 3797 4528 4122 4306 
z
" transform="scale(0.015625)"/>
     </defs>
     <use xlink:href="#DejaVuSans-53"/>
     <use xlink:href="#DejaVuSans-69" x="63.476562"/>
     <use xlink:href="#DejaVuSans-6d" x="91.259766"/>
     <use xlink:href="#DejaVuSans-75" x="188.671875"/>
     <use xlink:href="#DejaVuSans-6c" x="252.050781"/>
     <use xlink:href="#DejaVuSans-61" x="279.833984"/>
     <use xlink:href="#DejaVuSans-74" x="341.113281"/>
     <use xlink:href="#DejaVuSans-65" x="380.322266"/>
     <use xlink:href="#DejaVuSans-64" x="441.845703"/>
     <use xlink:href="#DejaVuSans-20" x="505.322266"/>
     <use xlink:href="#DejaVuSans-41" x="537.109375"/>
     <use xlink:href="#DejaVuSans-6e" x="605.517578"/>
     <use xlink:href="#DejaVuSans-65" x="668.896484"/>
     <use xlink:href="#DejaVuSans-61" x="730.419922"/>
     <use xlink:href="#DejaVuSans-6c" x="791.699219"/>
     <use xlink:href="#DejaVuSans-6c" x="819.482422"/>
     <use xlink:href="#DejaVuSans-69" x="847.265625"/>
     <use xlink:href="#DejaVuSans-6e" x="875.048828"/>
     <use xlink:href="#DejaVuSans-67" x="938.427734"/>
     <use xlink:href="#DejaVuSans-20" x="1001.904297"/>
     <use xlink:href="#DejaVuSans-43" x="1033.691406"/>
     <use xlink:href="#DejaVuSans-6f" x="1103.515625"/>
     <use xlink:href="#DejaVuSans-73" x="1164.697266"/>
     <use xlink:href="#DejaVuSans-74" x="1216.796875"/>
    </g>
   </g>
  </g>
 </g>
 <defs>
  <clipPath id="p07618f3044">
   <rect x="57.6" y="41.472" width="357.12" height="266.112"/>
  </clipPath>
 </defs>
</svg>
