<?xml version="1.0" encoding="utf-8" standalone="no"?>
<!DOCTYPE svg PUBLIC "-//W3C//DTD SVG 1.1//EN"
  "http://www.w3.org/Graphics/SVG/1.1/DTD/svg11.dtd">
<svg xmlns:xlink="http://www.w3.org/1999/xlink" width="460.8pt" height="345.6pt" viewBox="0 0 460.8 345.6" xmlns="http://www.w3.org/2000/svg" version="1.1">
 <metadata>
  <rdf:RDF xmlns:dc="http://purl.org/dc/elements/1.1/" xmlns:cc="http://creativecommons.org/ns#" xmlns:rdf="http://www.w3.org/1999/02/22-rdf-syntax-ns#">
   <cc:Work>
    <dc:type rdf:resource="http://purl.org/dc/dcmitype/StillImage"/>
    <dc:date>2022-06-01T08:06:19.389688</dc:date>
    <dc:format>image/svg+xml</dc:format>
    <dc:creator>
     <cc:Agent>
      <dc:title>Matplotlib v3.5.1, https://matplotlib.org/</dc:title>
     </cc:Agent>
    </dc:creator>
   </cc:Work>
  </rdf:RDF>
 </metadata>
 <defs>
  <style type="text/css">*{stroke-linejoin: round; stroke-linecap: butt}</style>
 </defs>
 <g id="figure_1">
  <g id="patch_1">
   <path d="M 0 345.6 
L 460.8 345.6 
L 460.8 0 
L 0 0 
z
" style="fill: #ffffff"/>
  </g>
  <g id="axes_1">
   <g id="patch_2">
    <path d="M 57.6 307.584 
L 414.72 307.584 
L 414.72 41.472 
L 57.6 41.472 
z
" style="fill: #ffffff"/>
   </g>
   <g id="matplotlib.axis_1">
    <g id="xtick_1">
     <g id="line2d_1">
      <defs>
       <path id="m92d4d3d0bc" d="M 0 0 
L 0 3.5 
" style="stroke: #000000; stroke-width: 0.8"/>
      </defs>
      <g>
       <use xlink:href="#m92d4d3d0bc" x="73.832727" y="307.584" style="stroke: #000000; stroke-width: 0.8"/>
      </g>
     </g>
     <g id="text_1">
      <!-- 0 -->
      <g transform="translate(70.651477 322.182437)scale(0.1 -0.1)">
       <defs>
        <path id="DejaVuSans-30" d="M 2034 4250 
Q 1547 4250 1301 3770 
Q 1056 3291 1056 2328 
Q 1056 1369 1301 889 
Q 1547 409 2034 409 
Q 2525 409 2770 889 
Q 3016 1369 3016 2328 
Q 3016 3291 2770 3770 
Q 2525 4250 2034 4250 
z
M 2034 4750 
Q 2819 4750 3233 4129 
Q 3647 3509 3647 2328 
Q 3647 1150 3233 529 
Q 2819 -91 2034 -91 
Q 1250 -91 836 529 
Q 422 1150 422 2328 
Q 422 3509 836 4129 
Q 1250 4750 2034 4750 
z
" transform="scale(0.015625)"/>
       </defs>
       <use xlink:href="#DejaVuSans-30"/>
      </g>
     </g>
    </g>
    <g id="xtick_2">
     <g id="line2d_2">
      <g>
       <use xlink:href="#m92d4d3d0bc" x="135.507223" y="307.584" style="stroke: #000000; stroke-width: 0.8"/>
      </g>
     </g>
     <g id="text_2">
      <!-- 500 -->
      <g transform="translate(125.963473 322.182437)scale(0.1 -0.1)">
       <defs>
        <path id="DejaVuSans-35" d="M 691 4666 
L 3169 4666 
L 3169 4134 
L 1269 4134 
L 1269 2991 
Q 1406 3038 1543 3061 
Q 1681 3084 1819 3084 
Q 2600 3084 3056 2656 
Q 3513 2228 3513 1497 
Q 3513 744 3044 326 
Q 2575 -91 1722 -91 
Q 1428 -91 1123 -41 
Q 819 9 494 109 
L 494 744 
Q 775 591 1075 516 
Q 1375 441 1709 441 
Q 2250 441 2565 725 
Q 2881 1009 2881 1497 
Q 2881 1984 2565 2268 
Q 2250 2553 1709 2553 
Q 1456 2553 1204 2497 
Q 953 2441 691 2322 
L 691 4666 
z
" transform="scale(0.015625)"/>
       </defs>
       <use xlink:href="#DejaVuSans-35"/>
       <use xlink:href="#DejaVuSans-30" x="63.623047"/>
       <use xlink:href="#DejaVuSans-30" x="127.246094"/>
      </g>
     </g>
    </g>
    <g id="xtick_3">
     <g id="line2d_3">
      <g>
       <use xlink:href="#m92d4d3d0bc" x="197.181719" y="307.584" style="stroke: #000000; stroke-width: 0.8"/>
      </g>
     </g>
     <g id="text_3">
      <!-- 1000 -->
      <g transform="translate(184.456719 322.182437)scale(0.1 -0.1)">
       <defs>
        <path id="DejaVuSans-31" d="M 794 531 
L 1825 531 
L 1825 4091 
L 703 3866 
L 703 4441 
L 1819 4666 
L 2450 4666 
L 2450 531 
L 3481 531 
L 3481 0 
L 794 0 
L 794 531 
z
" transform="scale(0.015625)"/>
       </defs>
       <use xlink:href="#DejaVuSans-31"/>
       <use xlink:href="#DejaVuSans-30" x="63.623047"/>
       <use xlink:href="#DejaVuSans-30" x="127.246094"/>
       <use xlink:href="#DejaVuSans-30" x="190.869141"/>
      </g>
     </g>
    </g>
    <g id="xtick_4">
     <g id="line2d_4">
      <g>
       <use xlink:href="#m92d4d3d0bc" x="258.856214" y="307.584" style="stroke: #000000; stroke-width: 0.8"/>
      </g>
     </g>
     <g id="text_4">
      <!-- 1500 -->
      <g transform="translate(246.131214 322.182437)scale(0.1 -0.1)">
       <use xlink:href="#DejaVuSans-31"/>
       <use xlink:href="#DejaVuSans-35" x="63.623047"/>
       <use xlink:href="#DejaVuSans-30" x="127.246094"/>
       <use xlink:href="#DejaVuSans-30" x="190.869141"/>
      </g>
     </g>
    </g>
    <g id="xtick_5">
     <g id="line2d_5">
      <g>
       <use xlink:href="#m92d4d3d0bc" x="320.53071" y="307.584" style="stroke: #000000; stroke-width: 0.8"/>
      </g>
     </g>
     <g id="text_5">
      <!-- 2000 -->
      <g transform="translate(307.80571 322.182437)scale(0.1 -0.1)">
       <defs>
        <path id="DejaVuSans-32" d="M 1228 531 
L 3431 531 
L 3431 0 
L 469 0 
L 469 531 
Q 828 903 1448 1529 
Q 2069 2156 2228 2338 
Q 2531 2678 2651 2914 
Q 2772 3150 2772 3378 
Q 2772 3750 2511 3984 
Q 2250 4219 1831 4219 
Q 1534 4219 1204 4116 
Q 875 4013 500 3803 
L 500 4441 
Q 881 4594 1212 4672 
Q 1544 4750 1819 4750 
Q 2544 4750 2975 4387 
Q 3406 4025 3406 3419 
Q 3406 3131 3298 2873 
Q 3191 2616 2906 2266 
Q 2828 2175 2409 1742 
Q 1991 1309 1228 531 
z
" transform="scale(0.015625)"/>
       </defs>
       <use xlink:href="#DejaVuSans-32"/>
       <use xlink:href="#DejaVuSans-30" x="63.623047"/>
       <use xlink:href="#DejaVuSans-30" x="127.246094"/>
       <use xlink:href="#DejaVuSans-30" x="190.869141"/>
      </g>
     </g>
    </g>
    <g id="xtick_6">
     <g id="line2d_6">
      <g>
       <use xlink:href="#m92d4d3d0bc" x="382.205206" y="307.584" style="stroke: #000000; stroke-width: 0.8"/>
      </g>
     </g>
     <g id="text_6">
      <!-- 2500 -->
      <g transform="translate(369.480206 322.182437)scale(0.1 -0.1)">
       <use xlink:href="#DejaVuSans-32"/>
       <use xlink:href="#DejaVuSans-35" x="63.623047"/>
       <use xlink:href="#DejaVuSans-30" x="127.246094"/>
       <use xlink:href="#DejaVuSans-30" x="190.869141"/>
      </g>
     </g>
    </g>
    <g id="text_7">
     <!-- num swaps -->
     <g transform="translate(207.826406 335.860562)scale(0.1 -0.1)">
      <defs>
       <path id="DejaVuSans-6e" d="M 3513 2113 
L 3513 0 
L 2938 0 
L 2938 2094 
Q 2938 2591 2744 2837 
Q 2550 3084 2163 3084 
Q 1697 3084 1428 2787 
Q 1159 2491 1159 1978 
L 1159 0 
L 581 0 
L 581 3500 
L 1159 3500 
L 1159 2956 
Q 1366 3272 1645 3428 
Q 1925 3584 2291 3584 
Q 2894 3584 3203 3211 
Q 3513 2838 3513 2113 
z
" transform="scale(0.015625)"/>
       <path id="DejaVuSans-75" d="M 544 1381 
L 544 3500 
L 1119 3500 
L 1119 1403 
Q 1119 906 1312 657 
Q 1506 409 1894 409 
Q 2359 409 2629 706 
Q 2900 1003 2900 1516 
L 2900 3500 
L 3475 3500 
L 3475 0 
L 2900 0 
L 2900 538 
Q 2691 219 2414 64 
Q 2138 -91 1772 -91 
Q 1169 -91 856 284 
Q 544 659 544 1381 
z
M 1991 3584 
L 1991 3584 
z
" transform="scale(0.015625)"/>
       <path id="DejaVuSans-6d" d="M 3328 2828 
Q 3544 3216 3844 3400 
Q 4144 3584 4550 3584 
Q 5097 3584 5394 3201 
Q 5691 2819 5691 2113 
L 5691 0 
L 5113 0 
L 5113 2094 
Q 5113 2597 4934 2840 
Q 4756 3084 4391 3084 
Q 3944 3084 3684 2787 
Q 3425 2491 3425 1978 
L 3425 0 
L 2847 0 
L 2847 2094 
Q 2847 2600 2669 2842 
Q 2491 3084 2119 3084 
Q 1678 3084 1418 2786 
Q 1159 2488 1159 1978 
L 1159 0 
L 581 0 
L 581 3500 
L 1159 3500 
L 1159 2956 
Q 1356 3278 1631 3431 
Q 1906 3584 2284 3584 
Q 2666 3584 2933 3390 
Q 3200 3197 3328 2828 
z
" transform="scale(0.015625)"/>
       <path id="DejaVuSans-20" transform="scale(0.015625)"/>
       <path id="DejaVuSans-73" d="M 2834 3397 
L 2834 2853 
Q 2591 2978 2328 3040 
Q 2066 3103 1784 3103 
Q 1356 3103 1142 2972 
Q 928 2841 928 2578 
Q 928 2378 1081 2264 
Q 1234 2150 1697 2047 
L 1894 2003 
Q 2506 1872 2764 1633 
Q 3022 1394 3022 966 
Q 3022 478 2636 193 
Q 2250 -91 1575 -91 
Q 1294 -91 989 -36 
Q 684 19 347 128 
L 347 722 
Q 666 556 975 473 
Q 1284 391 1588 391 
Q 1994 391 2212 530 
Q 2431 669 2431 922 
Q 2431 1156 2273 1281 
Q 2116 1406 1581 1522 
L 1381 1569 
Q 847 1681 609 1914 
Q 372 2147 372 2553 
Q 372 3047 722 3315 
Q 1072 3584 1716 3584 
Q 2034 3584 2315 3537 
Q 2597 3491 2834 3397 
z
" transform="scale(0.015625)"/>
       <path id="DejaVuSans-77" d="M 269 3500 
L 844 3500 
L 1563 769 
L 2278 3500 
L 2956 3500 
L 3675 769 
L 4391 3500 
L 4966 3500 
L 4050 0 
L 3372 0 
L 2619 2869 
L 1863 0 
L 1184 0 
L 269 3500 
z
" transform="scale(0.015625)"/>
       <path id="DejaVuSans-61" d="M 2194 1759 
Q 1497 1759 1228 1600 
Q 959 1441 959 1056 
Q 959 750 1161 570 
Q 1363 391 1709 391 
Q 2188 391 2477 730 
Q 2766 1069 2766 1631 
L 2766 1759 
L 2194 1759 
z
M 3341 1997 
L 3341 0 
L 2766 0 
L 2766 531 
Q 2569 213 2275 61 
Q 1981 -91 1556 -91 
Q 1019 -91 701 211 
Q 384 513 384 1019 
Q 384 1609 779 1909 
Q 1175 2209 1959 2209 
L 2766 2209 
L 2766 2266 
Q 2766 2663 2505 2880 
Q 2244 3097 1772 3097 
Q 1472 3097 1187 3025 
Q 903 2953 641 2809 
L 641 3341 
Q 956 3463 1253 3523 
Q 1550 3584 1831 3584 
Q 2591 3584 2966 3190 
Q 3341 2797 3341 1997 
z
" transform="scale(0.015625)"/>
       <path id="DejaVuSans-70" d="M 1159 525 
L 1159 -1331 
L 581 -1331 
L 581 3500 
L 1159 3500 
L 1159 2969 
Q 1341 3281 1617 3432 
Q 1894 3584 2278 3584 
Q 2916 3584 3314 3078 
Q 3713 2572 3713 1747 
Q 3713 922 3314 415 
Q 2916 -91 2278 -91 
Q 1894 -91 1617 61 
Q 1341 213 1159 525 
z
M 3116 1747 
Q 3116 2381 2855 2742 
Q 2594 3103 2138 3103 
Q 1681 3103 1420 2742 
Q 1159 2381 1159 1747 
Q 1159 1113 1420 752 
Q 1681 391 2138 391 
Q 2594 391 2855 752 
Q 3116 1113 3116 1747 
z
" transform="scale(0.015625)"/>
      </defs>
      <use xlink:href="#DejaVuSans-6e"/>
      <use xlink:href="#DejaVuSans-75" x="63.378906"/>
      <use xlink:href="#DejaVuSans-6d" x="126.757812"/>
      <use xlink:href="#DejaVuSans-20" x="224.169922"/>
      <use xlink:href="#DejaVuSans-73" x="255.957031"/>
      <use xlink:href="#DejaVuSans-77" x="308.056641"/>
      <use xlink:href="#DejaVuSans-61" x="389.84375"/>
      <use xlink:href="#DejaVuSans-70" x="451.123047"/>
      <use xlink:href="#DejaVuSans-73" x="514.599609"/>
     </g>
    </g>
   </g>
   <g id="matplotlib.axis_2">
    <g id="ytick_1">
     <g id="line2d_7">
      <defs>
       <path id="me977e8c824" d="M 0 0 
L -3.5 0 
" style="stroke: #000000; stroke-width: 0.8"/>
      </defs>
      <g>
       <use xlink:href="#me977e8c824" x="57.6" y="303.127579" style="stroke: #000000; stroke-width: 0.8"/>
      </g>
     </g>
     <g id="text_8">
      <!-- 560 -->
      <g transform="translate(31.5125 306.926798)scale(0.1 -0.1)">
       <defs>
        <path id="DejaVuSans-36" d="M 2113 2584 
Q 1688 2584 1439 2293 
Q 1191 2003 1191 1497 
Q 1191 994 1439 701 
Q 1688 409 2113 409 
Q 2538 409 2786 701 
Q 3034 994 3034 1497 
Q 3034 2003 2786 2293 
Q 2538 2584 2113 2584 
z
M 3366 4563 
L 3366 3988 
Q 3128 4100 2886 4159 
Q 2644 4219 2406 4219 
Q 1781 4219 1451 3797 
Q 1122 3375 1075 2522 
Q 1259 2794 1537 2939 
Q 1816 3084 2150 3084 
Q 2853 3084 3261 2657 
Q 3669 2231 3669 1497 
Q 3669 778 3244 343 
Q 2819 -91 2113 -91 
Q 1303 -91 875 529 
Q 447 1150 447 2328 
Q 447 3434 972 4092 
Q 1497 4750 2381 4750 
Q 2619 4750 2861 4703 
Q 3103 4656 3366 4563 
z
" transform="scale(0.015625)"/>
       </defs>
       <use xlink:href="#DejaVuSans-35"/>
       <use xlink:href="#DejaVuSans-36" x="63.623047"/>
       <use xlink:href="#DejaVuSans-30" x="127.246094"/>
      </g>
     </g>
    </g>
    <g id="ytick_2">
     <g id="line2d_8">
      <g>
       <use xlink:href="#me977e8c824" x="57.6" y="252.197053" style="stroke: #000000; stroke-width: 0.8"/>
      </g>
     </g>
     <g id="text_9">
      <!-- 580 -->
      <g transform="translate(31.5125 255.996271)scale(0.1 -0.1)">
       <defs>
        <path id="DejaVuSans-38" d="M 2034 2216 
Q 1584 2216 1326 1975 
Q 1069 1734 1069 1313 
Q 1069 891 1326 650 
Q 1584 409 2034 409 
Q 2484 409 2743 651 
Q 3003 894 3003 1313 
Q 3003 1734 2745 1975 
Q 2488 2216 2034 2216 
z
M 1403 2484 
Q 997 2584 770 2862 
Q 544 3141 544 3541 
Q 544 4100 942 4425 
Q 1341 4750 2034 4750 
Q 2731 4750 3128 4425 
Q 3525 4100 3525 3541 
Q 3525 3141 3298 2862 
Q 3072 2584 2669 2484 
Q 3125 2378 3379 2068 
Q 3634 1759 3634 1313 
Q 3634 634 3220 271 
Q 2806 -91 2034 -91 
Q 1263 -91 848 271 
Q 434 634 434 1313 
Q 434 1759 690 2068 
Q 947 2378 1403 2484 
z
M 1172 3481 
Q 1172 3119 1398 2916 
Q 1625 2713 2034 2713 
Q 2441 2713 2670 2916 
Q 2900 3119 2900 3481 
Q 2900 3844 2670 4047 
Q 2441 4250 2034 4250 
Q 1625 4250 1398 4047 
Q 1172 3844 1172 3481 
z
" transform="scale(0.015625)"/>
       </defs>
       <use xlink:href="#DejaVuSans-35"/>
       <use xlink:href="#DejaVuSans-38" x="63.623047"/>
       <use xlink:href="#DejaVuSans-30" x="127.246094"/>
      </g>
     </g>
    </g>
    <g id="ytick_3">
     <g id="line2d_9">
      <g>
       <use xlink:href="#me977e8c824" x="57.6" y="201.266526" style="stroke: #000000; stroke-width: 0.8"/>
      </g>
     </g>
     <g id="text_10">
      <!-- 600 -->
      <g transform="translate(31.5125 205.065745)scale(0.1 -0.1)">
       <use xlink:href="#DejaVuSans-36"/>
       <use xlink:href="#DejaVuSans-30" x="63.623047"/>
       <use xlink:href="#DejaVuSans-30" x="127.246094"/>
      </g>
     </g>
    </g>
    <g id="ytick_4">
     <g id="line2d_10">
      <g>
       <use xlink:href="#me977e8c824" x="57.6" y="150.336" style="stroke: #000000; stroke-width: 0.8"/>
      </g>
     </g>
     <g id="text_11">
      <!-- 620 -->
      <g transform="translate(31.5125 154.135219)scale(0.1 -0.1)">
       <use xlink:href="#DejaVuSans-36"/>
       <use xlink:href="#DejaVuSans-32" x="63.623047"/>
       <use xlink:href="#DejaVuSans-30" x="127.246094"/>
      </g>
     </g>
    </g>
    <g id="ytick_5">
     <g id="line2d_11">
      <g>
       <use xlink:href="#me977e8c824" x="57.6" y="99.405474" style="stroke: #000000; stroke-width: 0.8"/>
      </g>
     </g>
     <g id="text_12">
      <!-- 640 -->
      <g transform="translate(31.5125 103.204692)scale(0.1 -0.1)">
       <defs>
        <path id="DejaVuSans-34" d="M 2419 4116 
L 825 1625 
L 2419 1625 
L 2419 4116 
z
M 2253 4666 
L 3047 4666 
L 3047 1625 
L 3713 1625 
L 3713 1100 
L 3047 1100 
L 3047 0 
L 2419 0 
L 2419 1100 
L 313 1100 
L 313 1709 
L 2253 4666 
z
" transform="scale(0.015625)"/>
       </defs>
       <use xlink:href="#DejaVuSans-36"/>
       <use xlink:href="#DejaVuSans-34" x="63.623047"/>
       <use xlink:href="#DejaVuSans-30" x="127.246094"/>
      </g>
     </g>
    </g>
    <g id="ytick_6">
     <g id="line2d_12">
      <g>
       <use xlink:href="#me977e8c824" x="57.6" y="48.474947" style="stroke: #000000; stroke-width: 0.8"/>
      </g>
     </g>
     <g id="text_13">
      <!-- 660 -->
      <g transform="translate(31.5125 52.274166)scale(0.1 -0.1)">
       <use xlink:href="#DejaVuSans-36"/>
       <use xlink:href="#DejaVuSans-36" x="63.623047"/>
       <use xlink:href="#DejaVuSans-30" x="127.246094"/>
      </g>
     </g>
    </g>
    <g id="text_14">
     <!-- total cost -->
     <g transform="translate(25.432812 197.923313)rotate(-90)scale(0.1 -0.1)">
      <defs>
       <path id="DejaVuSans-74" d="M 1172 4494 
L 1172 3500 
L 2356 3500 
L 2356 3053 
L 1172 3053 
L 1172 1153 
Q 1172 725 1289 603 
Q 1406 481 1766 481 
L 2356 481 
L 2356 0 
L 1766 0 
Q 1100 0 847 248 
Q 594 497 594 1153 
L 594 3053 
L 172 3053 
L 172 3500 
L 594 3500 
L 594 4494 
L 1172 4494 
z
" transform="scale(0.015625)"/>
       <path id="DejaVuSans-6f" d="M 1959 3097 
Q 1497 3097 1228 2736 
Q 959 2375 959 1747 
Q 959 1119 1226 758 
Q 1494 397 1959 397 
Q 2419 397 2687 759 
Q 2956 1122 2956 1747 
Q 2956 2369 2687 2733 
Q 2419 3097 1959 3097 
z
M 1959 3584 
Q 2709 3584 3137 3096 
Q 3566 2609 3566 1747 
Q 3566 888 3137 398 
Q 2709 -91 1959 -91 
Q 1206 -91 779 398 
Q 353 888 353 1747 
Q 353 2609 779 3096 
Q 1206 3584 1959 3584 
z
" transform="scale(0.015625)"/>
       <path id="DejaVuSans-6c" d="M 603 4863 
L 1178 4863 
L 1178 0 
L 603 0 
L 603 4863 
z
" transform="scale(0.015625)"/>
       <path id="DejaVuSans-63" d="M 3122 3366 
L 3122 2828 
Q 2878 2963 2633 3030 
Q 2388 3097 2138 3097 
Q 1578 3097 1268 2742 
Q 959 2388 959 1747 
Q 959 1106 1268 751 
Q 1578 397 2138 397 
Q 2388 397 2633 464 
Q 2878 531 3122 666 
L 3122 134 
Q 2881 22 2623 -34 
Q 2366 -91 2075 -91 
Q 1284 -91 818 406 
Q 353 903 353 1747 
Q 353 2603 823 3093 
Q 1294 3584 2113 3584 
Q 2378 3584 2631 3529 
Q 2884 3475 3122 3366 
z
" transform="scale(0.015625)"/>
      </defs>
      <use xlink:href="#DejaVuSans-74"/>
      <use xlink:href="#DejaVuSans-6f" x="39.208984"/>
      <use xlink:href="#DejaVuSans-74" x="100.390625"/>
      <use xlink:href="#DejaVuSans-61" x="139.599609"/>
      <use xlink:href="#DejaVuSans-6c" x="200.878906"/>
      <use xlink:href="#DejaVuSans-20" x="228.662109"/>
      <use xlink:href="#DejaVuSans-63" x="260.449219"/>
      <use xlink:href="#DejaVuSans-6f" x="315.429688"/>
      <use xlink:href="#DejaVuSans-73" x="376.611328"/>
      <use xlink:href="#DejaVuSans-74" x="428.710938"/>
     </g>
    </g>
   </g>
   <g id="line2d_13">
    <path d="M 73.832727 191.080421 
L 74.079425 178.347789 
L 74.326123 183.440842 
L 74.572821 193.626947 
L 74.819519 188.533895 
L 75.066217 191.080421 
L 75.312915 196.173474 
L 75.559613 219.092211 
L 75.806311 188.533895 
L 76.053009 196.173474 
L 76.299707 191.080421 
L 76.546405 168.161684 
L 76.793103 163.068632 
L 77.039801 137.603368 
L 77.286499 129.963789 
L 77.533197 112.138105 
L 78.026593 117.231158 
L 78.273291 114.684632 
L 78.519989 124.870737 
L 79.013385 180.894316 
L 79.260083 163.068632 
L 79.506781 163.068632 
L 79.753479 157.975579 
L 80.246875 191.080421 
L 80.740271 185.987368 
L 80.986969 193.626947 
L 81.233667 191.080421 
L 81.480365 203.813053 
L 81.727063 206.359579 
L 81.973761 201.266526 
L 82.220459 208.906105 
L 82.467157 185.987368 
L 82.960553 163.068632 
L 83.207251 165.615158 
L 83.453949 173.254737 
L 83.700647 170.708211 
L 84.194043 196.173474 
L 84.440741 191.080421 
L 85.180834 216.545684 
L 85.427532 226.731789 
L 85.67423 226.731789 
L 86.167626 201.266526 
L 86.414324 208.906105 
L 86.661022 211.452632 
L 86.90772 219.092211 
L 87.154418 203.813053 
L 87.401116 208.906105 
L 87.647814 208.906105 
L 87.894512 213.999158 
L 88.14121 211.452632 
L 88.634606 198.72 
L 89.128002 244.557474 
L 89.621398 206.359579 
L 89.868096 208.906105 
L 90.114794 203.813053 
L 90.361492 211.452632 
L 90.854888 216.545684 
L 91.101586 221.638737 
L 91.348284 208.906105 
L 91.594982 213.999158 
L 91.84168 229.278316 
L 92.088378 229.278316 
L 92.335076 216.545684 
L 92.581774 221.638737 
L 92.828472 229.278316 
L 93.07517 229.278316 
L 93.321868 231.824842 
L 93.568566 229.278316 
L 94.061962 259.836632 
L 94.30866 264.929684 
L 94.555358 267.476211 
L 94.802056 287.848421 
L 95.295452 287.848421 
L 95.788848 264.929684 
L 96.282244 290.394947 
L 96.77564 262.383158 
L 97.022338 264.929684 
L 97.515734 280.208842 
L 98.255828 254.743579 
L 98.502526 257.290105 
L 98.749224 252.197053 
L 98.995922 254.743579 
L 99.24262 234.371368 
L 99.489317 201.266526 
L 99.736015 208.906105 
L 99.982713 208.906105 
L 100.476109 191.080421 
L 100.722807 193.626947 
L 100.969505 208.906105 
L 101.216203 201.266526 
L 101.462901 185.987368 
L 102.202995 94.312421 
L 102.449693 99.405474 
L 102.696391 76.486737 
L 102.943089 71.393684 
L 103.189787 84.126316 
L 103.436485 73.940211 
L 103.683183 76.486737 
L 103.929881 68.847158 
L 104.176579 53.568 
L 104.423277 58.661053 
L 104.669975 73.940211 
L 104.916673 71.393684 
L 105.163371 96.858947 
L 105.656767 119.777684 
L 105.903465 132.510316 
L 106.150163 129.963789 
L 106.396861 112.138105 
L 106.643559 129.963789 
L 106.890257 132.510316 
L 107.383653 89.219368 
L 107.630351 109.591579 
L 107.877049 96.858947 
L 108.123747 96.858947 
L 108.370445 112.138105 
L 108.617143 117.231158 
L 108.863841 104.498526 
L 109.110539 119.777684 
L 109.357237 127.417263 
L 109.603935 129.963789 
L 109.850633 124.870737 
L 110.097331 129.963789 
L 110.344029 127.417263 
L 110.590727 122.324211 
L 110.837425 127.417263 
L 111.084123 101.952 
L 111.330821 96.858947 
L 111.577519 101.952 
L 112.070915 91.765895 
L 112.564311 119.777684 
L 112.811009 117.231158 
L 113.057707 122.324211 
L 113.304405 147.789474 
L 113.551103 152.882526 
L 113.7978 137.603368 
L 114.044498 157.975579 
L 114.291196 155.429053 
L 114.537894 157.975579 
L 114.784592 157.975579 
L 115.03129 145.242947 
L 115.277988 147.789474 
L 115.524686 157.975579 
L 115.771384 86.672842 
L 116.018082 101.952 
L 116.26478 107.045053 
L 116.511478 104.498526 
L 116.758176 107.045053 
L 117.004874 99.405474 
L 117.251572 96.858947 
L 117.49827 91.765895 
L 117.744968 127.417263 
L 117.991666 132.510316 
L 118.238364 155.429053 
L 118.485062 152.882526 
L 118.73176 147.789474 
L 119.225156 147.789474 
L 119.471854 140.149895 
L 119.718552 150.336 
L 119.96525 150.336 
L 120.211948 157.975579 
L 120.705344 157.975579 
L 120.952042 150.336 
L 121.19874 127.417263 
L 121.445438 122.324211 
L 121.692136 91.765895 
L 121.938834 84.126316 
L 122.185532 101.952 
L 122.43223 101.952 
L 122.678928 104.498526 
L 122.925626 96.858947 
L 123.172324 101.952 
L 123.419022 124.870737 
L 123.66572 129.963789 
L 123.912418 127.417263 
L 124.159116 127.417263 
L 124.405814 101.952 
L 124.652512 109.591579 
L 125.145908 86.672842 
L 125.392606 96.858947 
L 125.639304 96.858947 
L 125.886002 101.952 
L 126.1327 99.405474 
L 126.626096 132.510316 
L 126.872794 135.056842 
L 127.119492 142.696421 
L 127.36619 127.417263 
L 127.612888 124.870737 
L 127.859586 104.498526 
L 128.106284 112.138105 
L 128.599679 107.045053 
L 128.846377 101.952 
L 129.339773 137.603368 
L 129.586471 132.510316 
L 129.833169 142.696421 
L 130.079867 140.149895 
L 130.326565 157.975579 
L 130.573263 152.882526 
L 130.819961 160.522105 
L 131.066659 140.149895 
L 131.313357 140.149895 
L 131.806753 145.242947 
L 132.053451 160.522105 
L 132.300149 157.975579 
L 132.546847 129.963789 
L 132.793545 117.231158 
L 133.040243 124.870737 
L 133.286941 122.324211 
L 133.533639 127.417263 
L 133.780337 140.149895 
L 134.027035 178.347789 
L 134.273733 155.429053 
L 134.520431 147.789474 
L 134.767129 160.522105 
L 135.013827 155.429053 
L 135.260525 152.882526 
L 135.507223 157.975579 
L 135.753921 145.242947 
L 136.000619 142.696421 
L 136.247317 137.603368 
L 136.494015 140.149895 
L 136.987411 140.149895 
L 137.234109 132.510316 
L 137.480807 140.149895 
L 137.727505 127.417263 
L 138.220901 137.603368 
L 138.467599 168.161684 
L 138.960995 191.080421 
L 139.207693 193.626947 
L 139.454391 150.336 
L 139.701089 137.603368 
L 139.947787 112.138105 
L 140.441183 117.231158 
L 140.687881 117.231158 
L 140.934579 119.777684 
L 141.181277 137.603368 
L 141.427975 119.777684 
L 141.674673 129.963789 
L 141.921371 119.777684 
L 142.168069 104.498526 
L 142.414767 99.405474 
L 142.661464 127.417263 
L 142.908162 137.603368 
L 143.401558 170.708211 
L 143.648256 173.254737 
L 143.894954 168.161684 
L 144.141652 152.882526 
L 144.38835 168.161684 
L 144.635048 157.975579 
L 144.881746 142.696421 
L 145.128444 147.789474 
L 145.375142 163.068632 
L 145.62184 163.068632 
L 145.868538 165.615158 
L 146.361934 145.242947 
L 146.608632 160.522105 
L 146.85533 157.975579 
L 147.102028 165.615158 
L 147.348726 160.522105 
L 147.595424 183.440842 
L 147.842122 185.987368 
L 148.08882 170.708211 
L 148.335518 175.801263 
L 148.582216 175.801263 
L 148.828914 180.894316 
L 149.075612 178.347789 
L 149.32231 188.533895 
L 149.569008 185.987368 
L 149.815706 191.080421 
L 150.062404 185.987368 
L 150.309102 188.533895 
L 150.5558 173.254737 
L 150.802498 168.161684 
L 151.295894 163.068632 
L 151.542592 170.708211 
L 151.78929 185.987368 
L 152.035988 191.080421 
L 152.282686 188.533895 
L 152.529384 196.173474 
L 152.776082 191.080421 
L 153.02278 201.266526 
L 153.269478 193.626947 
L 153.762874 165.615158 
L 154.009572 173.254737 
L 154.25627 173.254737 
L 154.502968 155.429053 
L 154.749666 168.161684 
L 154.996364 99.405474 
L 155.243062 96.858947 
L 155.48976 58.661053 
L 155.736458 63.754105 
L 155.983156 56.114526 
L 156.229854 61.207579 
L 156.72325 86.672842 
L 156.969947 89.219368 
L 157.463343 107.045053 
L 157.956739 157.975579 
L 158.203437 147.789474 
L 158.450135 147.789474 
L 158.696833 168.161684 
L 158.943531 168.161684 
L 159.190229 155.429053 
L 159.436927 155.429053 
L 159.683625 129.963789 
L 159.930323 117.231158 
L 160.177021 117.231158 
L 160.423719 137.603368 
L 160.670417 122.324211 
L 160.917115 124.870737 
L 161.163813 140.149895 
L 161.410511 145.242947 
L 161.903907 145.242947 
L 162.150605 150.336 
L 162.397303 145.242947 
L 162.644001 142.696421 
L 162.890699 142.696421 
L 163.137397 127.417263 
L 163.877491 168.161684 
L 165.110981 231.824842 
L 165.357679 231.824842 
L 165.851075 216.545684 
L 166.097773 221.638737 
L 166.344471 229.278316 
L 166.591169 216.545684 
L 166.837867 216.545684 
L 167.084565 206.359579 
L 167.331263 224.185263 
L 167.577961 198.72 
L 167.824659 213.999158 
L 168.318055 270.022737 
L 168.564753 262.383158 
L 168.811451 229.278316 
L 169.058149 229.278316 
L 169.304847 206.359579 
L 169.551545 203.813053 
L 169.798243 185.987368 
L 170.538337 185.987368 
L 170.785035 188.533895 
L 171.031733 165.615158 
L 171.278431 170.708211 
L 171.771826 160.522105 
L 172.018524 160.522105 
L 172.265222 155.429053 
L 172.51192 147.789474 
L 172.758618 157.975579 
L 173.005316 150.336 
L 173.252014 147.789474 
L 173.498712 150.336 
L 173.74541 163.068632 
L 173.992108 150.336 
L 174.238806 152.882526 
L 174.485504 145.242947 
L 174.732202 142.696421 
L 174.9789 147.789474 
L 175.225598 147.789474 
L 175.472296 145.242947 
L 175.718994 191.080421 
L 176.21239 213.999158 
L 176.459088 213.999158 
L 176.705786 221.638737 
L 176.952484 206.359579 
L 177.199182 203.813053 
L 177.44588 198.72 
L 177.692578 191.080421 
L 177.939276 196.173474 
L 178.185974 185.987368 
L 178.67937 150.336 
L 178.926068 155.429053 
L 179.172766 168.161684 
L 179.666162 203.813053 
L 179.91286 213.999158 
L 180.159558 193.626947 
L 180.652954 229.278316 
L 180.899652 229.278316 
L 181.14635 226.731789 
L 181.639746 203.813053 
L 181.886444 203.813053 
L 182.133142 193.626947 
L 182.37984 165.615158 
L 182.873236 142.696421 
L 183.119934 155.429053 
L 183.366632 147.789474 
L 183.61333 147.789474 
L 183.860028 150.336 
L 184.106726 142.696421 
L 184.353424 150.336 
L 184.84682 178.347789 
L 185.093518 175.801263 
L 185.586914 160.522105 
L 185.833611 129.963789 
L 186.080309 163.068632 
L 186.327007 160.522105 
L 186.573705 163.068632 
L 186.820403 152.882526 
L 187.067101 150.336 
L 187.313799 150.336 
L 187.560497 155.429053 
L 187.807195 135.056842 
L 188.053893 152.882526 
L 188.300591 147.789474 
L 188.547289 147.789474 
L 188.793987 135.056842 
L 189.040685 132.510316 
L 189.287383 142.696421 
L 189.780779 147.789474 
L 190.027477 170.708211 
L 190.274175 157.975579 
L 190.520873 155.429053 
L 190.767571 168.161684 
L 191.014269 170.708211 
L 191.260967 150.336 
L 191.507665 163.068632 
L 191.754363 165.615158 
L 192.001061 165.615158 
L 192.247759 160.522105 
L 192.494457 150.336 
L 192.741155 150.336 
L 192.987853 175.801263 
L 193.234551 175.801263 
L 193.481249 170.708211 
L 193.727947 173.254737 
L 193.974645 157.975579 
L 194.221343 165.615158 
L 194.468041 155.429053 
L 194.714739 168.161684 
L 194.961437 191.080421 
L 195.701531 168.161684 
L 196.194927 180.894316 
L 196.441625 173.254737 
L 196.688323 185.987368 
L 196.935021 188.533895 
L 197.181719 193.626947 
L 197.428417 201.266526 
L 197.675115 180.894316 
L 197.921813 185.987368 
L 198.168511 185.987368 
L 198.415209 196.173474 
L 198.661907 219.092211 
L 199.155303 208.906105 
L 199.402001 216.545684 
L 199.648699 201.266526 
L 199.895397 193.626947 
L 200.142095 193.626947 
L 200.388792 206.359579 
L 200.63549 196.173474 
L 200.882188 226.731789 
L 201.128886 224.185263 
L 201.375584 239.464421 
L 201.622282 231.824842 
L 201.86898 229.278316 
L 202.115678 239.464421 
L 202.609074 229.278316 
L 202.855772 229.278316 
L 203.10247 231.824842 
L 204.33596 168.161684 
L 204.829356 173.254737 
L 205.076054 178.347789 
L 205.322752 165.615158 
L 205.56945 163.068632 
L 205.816148 201.266526 
L 206.556242 178.347789 
L 206.80294 185.987368 
L 207.049638 208.906105 
L 207.296336 185.987368 
L 207.543034 175.801263 
L 208.03643 175.801263 
L 208.529826 165.615158 
L 208.776524 147.789474 
L 209.023222 165.615158 
L 209.26992 157.975579 
L 209.516618 168.161684 
L 210.010014 201.266526 
L 210.256712 198.72 
L 210.50341 193.626947 
L 210.750108 155.429053 
L 210.996806 147.789474 
L 211.243504 150.336 
L 211.490202 140.149895 
L 211.7369 124.870737 
L 211.983598 147.789474 
L 212.230296 145.242947 
L 212.476994 145.242947 
L 212.723692 127.417263 
L 212.97039 127.417263 
L 213.217088 114.684632 
L 213.463786 112.138105 
L 213.710484 119.777684 
L 213.957182 142.696421 
L 214.20388 147.789474 
L 214.450578 157.975579 
L 215.190671 135.056842 
L 215.684067 155.429053 
L 215.930765 163.068632 
L 216.424161 132.510316 
L 216.917557 132.510316 
L 217.164255 127.417263 
L 217.410953 145.242947 
L 217.657651 142.696421 
L 217.904349 109.591579 
L 218.151047 99.405474 
L 218.397745 94.312421 
L 218.644443 112.138105 
L 218.891141 107.045053 
L 219.137839 96.858947 
L 219.384537 94.312421 
L 219.631235 117.231158 
L 220.124631 107.045053 
L 220.371329 104.498526 
L 220.864725 104.498526 
L 221.111423 119.777684 
L 221.358121 114.684632 
L 221.851517 101.952 
L 222.098215 132.510316 
L 222.591611 137.603368 
L 222.838309 124.870737 
L 223.085007 132.510316 
L 223.331705 132.510316 
L 223.578403 150.336 
L 223.825101 142.696421 
L 224.071799 155.429053 
L 224.318497 147.789474 
L 225.058591 216.545684 
L 225.305289 216.545684 
L 225.551987 203.813053 
L 225.798685 203.813053 
L 226.045383 201.266526 
L 226.292081 193.626947 
L 226.538779 180.894316 
L 226.785477 183.440842 
L 227.032175 180.894316 
L 227.278873 160.522105 
L 227.525571 165.615158 
L 227.772269 163.068632 
L 228.018967 175.801263 
L 228.512363 185.987368 
L 228.759061 188.533895 
L 229.005758 183.440842 
L 229.252456 173.254737 
L 229.499154 170.708211 
L 229.745852 173.254737 
L 229.99255 185.987368 
L 230.239248 208.906105 
L 230.485946 213.999158 
L 230.732644 211.452632 
L 230.979342 180.894316 
L 231.472738 201.266526 
L 231.719436 203.813053 
L 231.966134 198.72 
L 232.212832 188.533895 
L 232.45953 211.452632 
L 232.706228 219.092211 
L 232.952926 244.557474 
L 233.199624 247.104 
L 233.446322 244.557474 
L 233.69302 196.173474 
L 233.939718 198.72 
L 234.186416 198.72 
L 234.433114 193.626947 
L 234.92651 193.626947 
L 235.173208 160.522105 
L 235.419906 170.708211 
L 235.666604 173.254737 
L 235.913302 168.161684 
L 236.406698 185.987368 
L 236.900094 147.789474 
L 237.146792 175.801263 
L 237.640188 193.626947 
L 237.886886 170.708211 
L 238.133584 170.708211 
L 238.380282 168.161684 
L 238.62698 168.161684 
L 238.873678 180.894316 
L 239.120376 178.347789 
L 239.367074 170.708211 
L 239.86047 201.266526 
L 240.107168 208.906105 
L 240.353866 206.359579 
L 240.600564 193.626947 
L 241.09396 211.452632 
L 241.340658 242.010947 
L 241.587356 257.290105 
L 242.080752 231.824842 
L 242.32745 229.278316 
L 242.574148 224.185263 
L 242.820846 239.464421 
L 243.067544 219.092211 
L 243.314242 213.999158 
L 243.560939 219.092211 
L 243.807637 219.092211 
L 244.054335 221.638737 
L 244.301033 226.731789 
L 244.547731 252.197053 
L 244.794429 226.731789 
L 245.041127 242.010947 
L 245.534523 206.359579 
L 245.781221 201.266526 
L 246.027919 208.906105 
L 246.274617 185.987368 
L 246.521315 203.813053 
L 246.768013 191.080421 
L 247.014711 193.626947 
L 247.261409 203.813053 
L 247.508107 188.533895 
L 247.754805 188.533895 
L 248.001503 196.173474 
L 248.248201 185.987368 
L 248.494899 180.894316 
L 248.741597 180.894316 
L 248.988295 175.801263 
L 249.234993 175.801263 
L 249.481691 188.533895 
L 249.728389 193.626947 
L 249.975087 191.080421 
L 250.468483 196.173474 
L 250.715181 201.266526 
L 251.208577 201.266526 
L 251.455275 175.801263 
L 251.701973 203.813053 
L 251.948671 219.092211 
L 252.195369 226.731789 
L 252.442067 226.731789 
L 252.688765 229.278316 
L 253.182161 219.092211 
L 253.675557 242.010947 
L 253.922255 193.626947 
L 254.168953 168.161684 
L 254.415651 163.068632 
L 254.662349 152.882526 
L 254.909047 165.615158 
L 255.155745 160.522105 
L 255.402443 165.615158 
L 255.649141 147.789474 
L 255.895839 147.789474 
L 256.142537 135.056842 
L 256.389235 129.963789 
L 256.882631 129.963789 
L 257.129329 124.870737 
L 257.376027 112.138105 
L 257.869422 129.963789 
L 258.11612 137.603368 
L 258.362818 117.231158 
L 258.609516 119.777684 
L 258.856214 112.138105 
L 259.34961 132.510316 
L 259.843006 137.603368 
L 260.089704 132.510316 
L 260.5831 127.417263 
L 260.829798 117.231158 
L 261.076496 135.056842 
L 261.323194 137.603368 
L 261.569892 150.336 
L 262.309986 124.870737 
L 262.556684 140.149895 
L 262.803382 145.242947 
L 263.05008 155.429053 
L 263.296778 147.789474 
L 263.543476 145.242947 
L 263.790174 145.242947 
L 264.036872 165.615158 
L 264.28357 173.254737 
L 264.530268 173.254737 
L 264.776966 180.894316 
L 265.023664 165.615158 
L 265.270362 173.254737 
L 265.51706 173.254737 
L 265.763758 185.987368 
L 266.010456 191.080421 
L 266.257154 185.987368 
L 266.503852 185.987368 
L 266.75055 188.533895 
L 266.997248 175.801263 
L 267.243946 175.801263 
L 267.490644 191.080421 
L 267.737342 193.626947 
L 267.98404 170.708211 
L 268.230738 168.161684 
L 268.477436 163.068632 
L 268.724134 155.429053 
L 268.970832 137.603368 
L 269.21753 165.615158 
L 269.464228 160.522105 
L 269.710926 160.522105 
L 269.957624 157.975579 
L 270.45102 163.068632 
L 270.697718 155.429053 
L 270.944416 160.522105 
L 271.191114 157.975579 
L 271.437812 150.336 
L 271.68451 155.429053 
L 271.931208 178.347789 
L 272.424603 157.975579 
L 272.671301 155.429053 
L 272.917999 147.789474 
L 273.164697 155.429053 
L 273.411395 142.696421 
L 273.658093 137.603368 
L 273.904791 140.149895 
L 274.151489 132.510316 
L 274.398187 145.242947 
L 274.644885 150.336 
L 274.891583 168.161684 
L 275.384979 163.068632 
L 275.878375 142.696421 
L 276.125073 137.603368 
L 276.371771 129.963789 
L 276.618469 142.696421 
L 276.865167 137.603368 
L 277.111865 150.336 
L 277.358563 152.882526 
L 277.605261 163.068632 
L 277.851959 147.789474 
L 278.098657 163.068632 
L 278.345355 160.522105 
L 278.592053 163.068632 
L 278.838751 163.068632 
L 279.085449 168.161684 
L 279.332147 170.708211 
L 279.825543 188.533895 
L 280.072241 203.813053 
L 280.318939 208.906105 
L 280.812335 193.626947 
L 281.059033 196.173474 
L 281.305731 191.080421 
L 281.799127 173.254737 
L 282.045825 183.440842 
L 282.539221 219.092211 
L 282.785919 213.999158 
L 283.279315 219.092211 
L 283.526013 216.545684 
L 283.772711 229.278316 
L 284.019409 226.731789 
L 284.512805 239.464421 
L 284.759503 254.743579 
L 285.006201 247.104 
L 285.499597 242.010947 
L 285.746295 247.104 
L 285.992993 224.185263 
L 286.239691 219.092211 
L 286.486389 201.266526 
L 286.979784 196.173474 
L 287.226482 188.533895 
L 287.47318 198.72 
L 287.719878 191.080421 
L 288.213274 170.708211 
L 288.70667 196.173474 
L 288.953368 201.266526 
L 289.200066 185.987368 
L 289.446764 180.894316 
L 289.693462 180.894316 
L 289.94016 165.615158 
L 290.433556 175.801263 
L 290.680254 175.801263 
L 290.926952 137.603368 
L 291.17365 137.603368 
L 291.420348 124.870737 
L 291.667046 124.870737 
L 291.913744 117.231158 
L 292.160442 122.324211 
L 292.40714 112.138105 
L 292.653838 114.684632 
L 292.900536 114.684632 
L 293.147234 122.324211 
L 293.393932 119.777684 
L 293.64063 114.684632 
L 293.887328 117.231158 
L 294.134026 112.138105 
L 294.380724 101.952 
L 294.627422 107.045053 
L 294.87412 99.405474 
L 295.120818 104.498526 
L 295.367516 104.498526 
L 295.614214 96.858947 
L 295.860912 94.312421 
L 296.10761 89.219368 
L 296.354308 94.312421 
L 296.601006 86.672842 
L 296.847704 112.138105 
L 297.094402 104.498526 
L 297.3411 101.952 
L 297.834496 129.963789 
L 298.081194 112.138105 
L 298.327892 112.138105 
L 298.57459 109.591579 
L 298.821288 109.591579 
L 299.067986 112.138105 
L 299.314684 112.138105 
L 299.561382 109.591579 
L 300.054778 127.417263 
L 300.301476 117.231158 
L 300.548174 119.777684 
L 300.794872 137.603368 
L 301.041569 127.417263 
L 301.288267 124.870737 
L 301.534965 140.149895 
L 302.275059 147.789474 
L 302.768455 163.068632 
L 303.015153 188.533895 
L 303.261851 196.173474 
L 303.508549 183.440842 
L 303.755247 178.347789 
L 304.001945 178.347789 
L 304.248643 180.894316 
L 304.495341 173.254737 
L 304.742039 173.254737 
L 305.482133 142.696421 
L 305.975529 137.603368 
L 306.222227 140.149895 
L 306.715623 117.231158 
L 307.209019 127.417263 
L 307.455717 137.603368 
L 307.702415 124.870737 
L 307.949113 101.952 
L 308.195811 107.045053 
L 308.442509 101.952 
L 308.689207 101.952 
L 309.182603 135.056842 
L 309.429301 140.149895 
L 309.675999 163.068632 
L 309.922697 150.336 
L 310.169395 147.789474 
L 310.416093 157.975579 
L 310.662791 183.440842 
L 310.909489 196.173474 
L 311.156187 185.987368 
L 311.649583 206.359579 
L 311.896281 188.533895 
L 312.142979 196.173474 
L 312.389677 213.999158 
L 312.883073 193.626947 
L 313.129771 198.72 
L 313.376469 213.999158 
L 313.623167 213.999158 
L 313.869865 221.638737 
L 314.116563 239.464421 
L 314.363261 242.010947 
L 314.609959 262.383158 
L 314.856657 270.022737 
L 315.103355 272.569263 
L 315.350053 262.383158 
L 315.843448 231.824842 
L 316.090146 231.824842 
L 316.336844 213.999158 
L 316.583542 234.371368 
L 316.83024 242.010947 
L 317.076938 236.917895 
L 317.570334 211.452632 
L 317.817032 213.999158 
L 318.06373 221.638737 
L 318.310428 216.545684 
L 318.557126 219.092211 
L 319.050522 198.72 
L 319.29722 198.72 
L 319.543918 193.626947 
L 319.790616 178.347789 
L 320.037314 180.894316 
L 320.284012 178.347789 
L 320.53071 168.161684 
L 320.777408 178.347789 
L 321.024106 201.266526 
L 321.270804 203.813053 
L 321.517502 193.626947 
L 321.7642 201.266526 
L 322.504294 178.347789 
L 322.750992 183.440842 
L 322.99769 198.72 
L 323.244388 201.266526 
L 323.491086 196.173474 
L 323.984482 208.906105 
L 324.23118 213.999158 
L 324.724576 226.731789 
L 324.971274 226.731789 
L 325.217972 229.278316 
L 325.46467 234.371368 
L 325.711368 229.278316 
L 326.204764 242.010947 
L 326.451462 234.371368 
L 326.69816 242.010947 
L 326.944858 234.371368 
L 327.191556 213.999158 
L 327.438254 208.906105 
L 327.684952 211.452632 
L 328.178348 206.359579 
L 328.425046 193.626947 
L 328.918442 155.429053 
L 329.16514 170.708211 
L 329.411838 168.161684 
L 329.905233 140.149895 
L 330.151931 150.336 
L 330.398629 145.242947 
L 330.645327 150.336 
L 330.892025 152.882526 
L 331.385421 163.068632 
L 331.632119 165.615158 
L 331.878817 183.440842 
L 332.125515 178.347789 
L 332.372213 196.173474 
L 332.618911 198.72 
L 332.865609 211.452632 
L 333.112307 203.813053 
L 333.359005 221.638737 
L 333.605703 221.638737 
L 333.852401 239.464421 
L 334.099099 234.371368 
L 334.345797 224.185263 
L 334.592495 219.092211 
L 334.839193 203.813053 
L 335.085891 206.359579 
L 335.332589 173.254737 
L 335.579287 178.347789 
L 335.825985 163.068632 
L 336.319381 183.440842 
L 336.566079 188.533895 
L 336.812777 188.533895 
L 337.552871 147.789474 
L 337.799569 147.789474 
L 338.046267 163.068632 
L 338.539663 163.068632 
L 338.786361 168.161684 
L 339.033059 183.440842 
L 339.279757 185.987368 
L 339.526455 183.440842 
L 339.773153 191.080421 
L 340.266549 180.894316 
L 340.759945 155.429053 
L 341.006643 157.975579 
L 341.253341 155.429053 
L 341.500039 137.603368 
L 341.746737 160.522105 
L 341.993435 150.336 
L 342.240133 168.161684 
L 342.486831 170.708211 
L 342.733529 175.801263 
L 342.980227 165.615158 
L 343.226925 163.068632 
L 343.473623 165.615158 
L 343.720321 140.149895 
L 343.967019 140.149895 
L 344.213716 132.510316 
L 344.460414 132.510316 
L 344.707112 147.789474 
L 344.95381 145.242947 
L 345.447206 145.242947 
L 345.693904 124.870737 
L 346.1873 129.963789 
L 346.433998 127.417263 
L 346.927394 147.789474 
L 347.174092 165.615158 
L 347.42079 163.068632 
L 347.667488 175.801263 
L 347.914186 175.801263 
L 348.160884 155.429053 
L 348.407582 155.429053 
L 348.65428 150.336 
L 348.900978 155.429053 
L 349.147676 157.975579 
L 349.394374 150.336 
L 349.641072 150.336 
L 349.88777 155.429053 
L 350.134468 150.336 
L 350.627864 198.72 
L 350.874562 196.173474 
L 351.12126 203.813053 
L 351.861354 163.068632 
L 352.35475 163.068632 
L 352.601448 168.161684 
L 352.848146 178.347789 
L 353.094844 180.894316 
L 353.341542 178.347789 
L 353.58824 170.708211 
L 353.834938 173.254737 
L 354.081636 168.161684 
L 354.328334 165.615158 
L 354.575032 165.615158 
L 354.82173 170.708211 
L 355.068428 173.254737 
L 355.315126 173.254737 
L 355.561824 165.615158 
L 355.808522 175.801263 
L 356.05522 165.615158 
L 356.301918 160.522105 
L 356.795314 147.789474 
L 357.042012 173.254737 
L 357.28871 165.615158 
L 357.535408 147.789474 
L 357.782106 157.975579 
L 358.028804 163.068632 
L 358.275502 152.882526 
L 358.5222 152.882526 
L 358.768897 173.254737 
L 359.015595 160.522105 
L 359.262293 163.068632 
L 359.508991 178.347789 
L 359.755689 183.440842 
L 360.002387 183.440842 
L 360.495783 208.906105 
L 360.742481 203.813053 
L 360.989179 203.813053 
L 361.235877 208.906105 
L 361.482575 203.813053 
L 361.729273 203.813053 
L 362.222669 216.545684 
L 362.469367 208.906105 
L 362.716065 193.626947 
L 363.209461 236.917895 
L 363.702857 216.545684 
L 363.949555 216.545684 
L 364.196253 213.999158 
L 364.442951 216.545684 
L 364.689649 206.359579 
L 365.429743 155.429053 
L 365.676441 160.522105 
L 365.923139 150.336 
L 366.169837 173.254737 
L 366.416535 173.254737 
L 366.663233 183.440842 
L 366.909931 198.72 
L 367.156629 201.266526 
L 367.650025 163.068632 
L 367.896723 155.429053 
L 368.143421 137.603368 
L 368.390119 150.336 
L 368.636817 150.336 
L 369.130213 168.161684 
L 369.376911 170.708211 
L 369.870307 201.266526 
L 370.117005 208.906105 
L 370.363703 193.626947 
L 370.610401 191.080421 
L 370.857099 178.347789 
L 371.103797 173.254737 
L 371.350495 193.626947 
L 371.597193 188.533895 
L 371.843891 193.626947 
L 372.090589 211.452632 
L 372.337287 219.092211 
L 372.583985 213.999158 
L 372.830683 216.545684 
L 373.07738 208.906105 
L 373.324078 211.452632 
L 373.570776 226.731789 
L 373.817474 226.731789 
L 374.064172 231.824842 
L 374.31087 229.278316 
L 374.557568 208.906105 
L 374.804266 206.359579 
L 375.050964 213.999158 
L 375.297662 213.999158 
L 375.54436 211.452632 
L 376.037756 239.464421 
L 376.284454 242.010947 
L 376.531152 247.104 
L 376.77785 254.743579 
L 377.024548 247.104 
L 377.271246 249.650526 
L 377.764642 211.452632 
L 378.01134 203.813053 
L 378.258038 208.906105 
L 378.504736 203.813053 
L 378.751434 191.080421 
L 379.24483 191.080421 
L 379.491528 188.533895 
L 379.738226 198.72 
L 379.984924 203.813053 
L 380.231622 175.801263 
L 380.47832 178.347789 
L 380.725018 201.266526 
L 380.971716 201.266526 
L 382.205206 259.836632 
L 382.451904 270.022737 
L 382.698602 285.301895 
L 382.9453 277.662316 
L 383.191998 295.488 
L 383.438696 285.301895 
L 383.685394 282.755368 
L 383.932092 270.022737 
L 384.17879 285.301895 
L 384.425488 262.383158 
L 384.672186 267.476211 
L 384.918884 252.197053 
L 385.165582 262.383158 
L 385.41228 257.290105 
L 385.658978 270.022737 
L 385.905676 267.476211 
L 386.152374 282.755368 
L 386.892468 249.650526 
L 387.139166 257.290105 
L 387.385863 242.010947 
L 387.632561 257.290105 
L 387.879259 244.557474 
L 388.125957 257.290105 
L 388.372655 259.836632 
L 388.619353 252.197053 
L 388.866051 254.743579 
L 389.359447 270.022737 
L 389.606145 285.301895 
L 389.852843 262.383158 
L 390.099541 262.383158 
L 390.346239 247.104 
L 390.592937 252.197053 
L 390.839635 252.197053 
L 391.086333 249.650526 
L 391.333031 234.371368 
L 391.579729 234.371368 
L 391.826427 244.557474 
L 392.073125 247.104 
L 392.319823 229.278316 
L 392.566521 242.010947 
L 392.813219 272.569263 
L 393.059917 285.301895 
L 393.306615 285.301895 
L 393.553313 280.208842 
L 393.800011 257.290105 
L 394.046709 252.197053 
L 394.293407 249.650526 
L 394.540105 239.464421 
L 394.786803 242.010947 
L 395.033501 242.010947 
L 395.280199 231.824842 
L 395.526897 229.278316 
L 395.773595 211.452632 
L 396.020293 211.452632 
L 396.266991 203.813053 
L 396.513689 208.906105 
L 396.760387 211.452632 
L 397.253783 234.371368 
L 397.500481 231.824842 
L 397.747179 221.638737 
L 397.993877 216.545684 
L 398.487273 198.72 
L 398.487273 198.72 
" clip-path="url(#p3309693134)" style="fill: none; stroke: #1f77b4; stroke-width: 1.5; stroke-linecap: square"/>
   </g>
   <g id="patch_3">
    <path d="M 57.6 307.584 
L 57.6 41.472 
" style="fill: none; stroke: #000000; stroke-width: 0.8; stroke-linejoin: miter; stroke-linecap: square"/>
   </g>
   <g id="patch_4">
    <path d="M 414.72 307.584 
L 414.72 41.472 
" style="fill: none; stroke: #000000; stroke-width: 0.8; stroke-linejoin: miter; stroke-linecap: square"/>
   </g>
   <g id="patch_5">
    <path d="M 57.6 307.584 
L 414.72 307.584 
" style="fill: none; stroke: #000000; stroke-width: 0.8; stroke-linejoin: miter; stroke-linecap: square"/>
   </g>
   <g id="patch_6">
    <path d="M 57.6 41.472 
L 414.72 41.472 
" style="fill: none; stroke: #000000; stroke-width: 0.8; stroke-linejoin: miter; stroke-linecap: square"/>
   </g>
   <g id="text_15">
    <!-- Simulated Anealling Cost -->
    <g transform="translate(160.8 35.472)scale(0.12 -0.12)">
     <defs>
      <path id="DejaVuSans-53" d="M 3425 4513 
L 3425 3897 
Q 3066 4069 2747 4153 
Q 2428 4238 2131 4238 
Q 1616 4238 1336 4038 
Q 1056 3838 1056 3469 
Q 1056 3159 1242 3001 
Q 1428 2844 1947 2747 
L 2328 2669 
Q 3034 2534 3370 2195 
Q 3706 1856 3706 1288 
Q 3706 609 3251 259 
Q 2797 -91 1919 -91 
Q 1588 -91 1214 -16 
Q 841 59 441 206 
L 441 856 
Q 825 641 1194 531 
Q 1563 422 1919 422 
Q 2459 422 2753 634 
Q 3047 847 3047 1241 
Q 3047 1584 2836 1778 
Q 2625 1972 2144 2069 
L 1759 2144 
Q 1053 2284 737 2584 
Q 422 2884 422 3419 
Q 422 4038 858 4394 
Q 1294 4750 2059 4750 
Q 2388 4750 2728 4690 
Q 3069 4631 3425 4513 
z
" transform="scale(0.015625)"/>
      <path id="DejaVuSans-69" d="M 603 3500 
L 1178 3500 
L 1178 0 
L 603 0 
L 603 3500 
z
M 603 4863 
L 1178 4863 
L 1178 4134 
L 603 4134 
L 603 4863 
z
" transform="scale(0.015625)"/>
      <path id="DejaVuSans-65" d="M 3597 1894 
L 3597 1613 
L 953 1613 
Q 991 1019 1311 708 
Q 1631 397 2203 397 
Q 2534 397 2845 478 
Q 3156 559 3463 722 
L 3463 178 
Q 3153 47 2828 -22 
Q 2503 -91 2169 -91 
Q 1331 -91 842 396 
Q 353 884 353 1716 
Q 353 2575 817 3079 
Q 1281 3584 2069 3584 
Q 2775 3584 3186 3129 
Q 3597 2675 3597 1894 
z
M 3022 2063 
Q 3016 2534 2758 2815 
Q 2500 3097 2075 3097 
Q 1594 3097 1305 2825 
Q 1016 2553 972 2059 
L 3022 2063 
z
" transform="scale(0.015625)"/>
      <path id="DejaVuSans-64" d="M 2906 2969 
L 2906 4863 
L 3481 4863 
L 3481 0 
L 2906 0 
L 2906 525 
Q 2725 213 2448 61 
Q 2172 -91 1784 -91 
Q 1150 -91 751 415 
Q 353 922 353 1747 
Q 353 2572 751 3078 
Q 1150 3584 1784 3584 
Q 2172 3584 2448 3432 
Q 2725 3281 2906 2969 
z
M 947 1747 
Q 947 1113 1208 752 
Q 1469 391 1925 391 
Q 2381 391 2643 752 
Q 2906 1113 2906 1747 
Q 2906 2381 2643 2742 
Q 2381 3103 1925 3103 
Q 1469 3103 1208 2742 
Q 947 2381 947 1747 
z
" transform="scale(0.015625)"/>
      <path id="DejaVuSans-41" d="M 2188 4044 
L 1331 1722 
L 3047 1722 
L 2188 4044 
z
M 1831 4666 
L 2547 4666 
L 4325 0 
L 3669 0 
L 3244 1197 
L 1141 1197 
L 716 0 
L 50 0 
L 1831 4666 
z
" transform="scale(0.015625)"/>
      <path id="DejaVuSans-67" d="M 2906 1791 
Q 2906 2416 2648 2759 
Q 2391 3103 1925 3103 
Q 1463 3103 1205 2759 
Q 947 2416 947 1791 
Q 947 1169 1205 825 
Q 1463 481 1925 481 
Q 2391 481 2648 825 
Q 2906 1169 2906 1791 
z
M 3481 434 
Q 3481 -459 3084 -895 
Q 2688 -1331 1869 -1331 
Q 1566 -1331 1297 -1286 
Q 1028 -1241 775 -1147 
L 775 -588 
Q 1028 -725 1275 -790 
Q 1522 -856 1778 -856 
Q 2344 -856 2625 -561 
Q 2906 -266 2906 331 
L 2906 616 
Q 2728 306 2450 153 
Q 2172 0 1784 0 
Q 1141 0 747 490 
Q 353 981 353 1791 
Q 353 2603 747 3093 
Q 1141 3584 1784 3584 
Q 2172 3584 2450 3431 
Q 2728 3278 2906 2969 
L 2906 3500 
L 3481 3500 
L 3481 434 
z
" transform="scale(0.015625)"/>
      <path id="DejaVuSans-43" d="M 4122 4306 
L 4122 3641 
Q 3803 3938 3442 4084 
Q 3081 4231 2675 4231 
Q 1875 4231 1450 3742 
Q 1025 3253 1025 2328 
Q 1025 1406 1450 917 
Q 1875 428 2675 428 
Q 3081 428 3442 575 
Q 3803 722 4122 1019 
L 4122 359 
Q 3791 134 3420 21 
Q 3050 -91 2638 -91 
Q 1578 -91 968 557 
Q 359 1206 359 2328 
Q 359 3453 968 4101 
Q 1578 4750 2638 4750 
Q 3056 4750 3426 4639 
Q 3797 4528 4122 4306 
z
" transform="scale(0.015625)"/>
     </defs>
     <use xlink:href="#DejaVuSans-53"/>
     <use xlink:href="#DejaVuSans-69" x="63.476562"/>
     <use xlink:href="#DejaVuSans-6d" x="91.259766"/>
     <use xlink:href="#DejaVuSans-75" x="188.671875"/>
     <use xlink:href="#DejaVuSans-6c" x="252.050781"/>
     <use xlink:href="#DejaVuSans-61" x="279.833984"/>
     <use xlink:href="#DejaVuSans-74" x="341.113281"/>
     <use xlink:href="#DejaVuSans-65" x="380.322266"/>
     <use xlink:href="#DejaVuSans-64" x="441.845703"/>
     <use xlink:href="#DejaVuSans-20" x="505.322266"/>
     <use xlink:href="#DejaVuSans-41" x="537.109375"/>
     <use xlink:href="#DejaVuSans-6e" x="605.517578"/>
     <use xlink:href="#DejaVuSans-65" x="668.896484"/>
     <use xlink:href="#DejaVuSans-61" x="730.419922"/>
     <use xlink:href="#DejaVuSans-6c" x="791.699219"/>
     <use xlink:href="#DejaVuSans-6c" x="819.482422"/>
     <use xlink:href="#DejaVuSans-69" x="847.265625"/>
     <use xlink:href="#DejaVuSans-6e" x="875.048828"/>
     <use xlink:href="#DejaVuSans-67" x="938.427734"/>
     <use xlink:href="#DejaVuSans-20" x="1001.904297"/>
     <use xlink:href="#DejaVuSans-43" x="1033.691406"/>
     <use xlink:href="#DejaVuSans-6f" x="1103.515625"/>
     <use xlink:href="#DejaVuSans-73" x="1164.697266"/>
     <use xlink:href="#DejaVuSans-74" x="1216.796875"/>
    </g>
   </g>
  </g>
 </g>
 <defs>
  <clipPath id="p3309693134">
   <rect x="57.6" y="41.472" width="357.12" height="266.112"/>
  </clipPath>
 </defs>
</svg>
