<?xml version="1.0" encoding="utf-8" standalone="no"?>
<!DOCTYPE svg PUBLIC "-//W3C//DTD SVG 1.1//EN"
  "http://www.w3.org/Graphics/SVG/1.1/DTD/svg11.dtd">
<svg xmlns:xlink="http://www.w3.org/1999/xlink" width="460.8pt" height="345.6pt" viewBox="0 0 460.8 345.6" xmlns="http://www.w3.org/2000/svg" version="1.1">
 <metadata>
  <rdf:RDF xmlns:dc="http://purl.org/dc/elements/1.1/" xmlns:cc="http://creativecommons.org/ns#" xmlns:rdf="http://www.w3.org/1999/02/22-rdf-syntax-ns#">
   <cc:Work>
    <dc:type rdf:resource="http://purl.org/dc/dcmitype/StillImage"/>
    <dc:date>2022-06-01T08:06:25.545979</dc:date>
    <dc:format>image/svg+xml</dc:format>
    <dc:creator>
     <cc:Agent>
      <dc:title>Matplotlib v3.5.1, https://matplotlib.org/</dc:title>
     </cc:Agent>
    </dc:creator>
   </cc:Work>
  </rdf:RDF>
 </metadata>
 <defs>
  <style type="text/css">*{stroke-linejoin: round; stroke-linecap: butt}</style>
 </defs>
 <g id="figure_1">
  <g id="patch_1">
   <path d="M 0 345.6 
L 460.8 345.6 
L 460.8 0 
L 0 0 
z
" style="fill: #ffffff"/>
  </g>
  <g id="axes_1">
   <g id="patch_2">
    <path d="M 57.6 307.584 
L 414.72 307.584 
L 414.72 41.472 
L 57.6 41.472 
z
" style="fill: #ffffff"/>
   </g>
   <g id="matplotlib.axis_1">
    <g id="xtick_1">
     <g id="line2d_1">
      <defs>
       <path id="me8d10cb41d" d="M 0 0 
L 0 3.5 
" style="stroke: #000000; stroke-width: 0.8"/>
      </defs>
      <g>
       <use xlink:href="#me8d10cb41d" x="73.832727" y="307.584" style="stroke: #000000; stroke-width: 0.8"/>
      </g>
     </g>
     <g id="text_1">
      <!-- 0 -->
      <g transform="translate(70.651477 322.182437)scale(0.1 -0.1)">
       <defs>
        <path id="DejaVuSans-30" d="M 2034 4250 
Q 1547 4250 1301 3770 
Q 1056 3291 1056 2328 
Q 1056 1369 1301 889 
Q 1547 409 2034 409 
Q 2525 409 2770 889 
Q 3016 1369 3016 2328 
Q 3016 3291 2770 3770 
Q 2525 4250 2034 4250 
z
M 2034 4750 
Q 2819 4750 3233 4129 
Q 3647 3509 3647 2328 
Q 3647 1150 3233 529 
Q 2819 -91 2034 -91 
Q 1250 -91 836 529 
Q 422 1150 422 2328 
Q 422 3509 836 4129 
Q 1250 4750 2034 4750 
z
" transform="scale(0.015625)"/>
       </defs>
       <use xlink:href="#DejaVuSans-30"/>
      </g>
     </g>
    </g>
    <g id="xtick_2">
     <g id="line2d_2">
      <g>
       <use xlink:href="#me8d10cb41d" x="137.142896" y="307.584" style="stroke: #000000; stroke-width: 0.8"/>
      </g>
     </g>
     <g id="text_2">
      <!-- 500 -->
      <g transform="translate(127.599146 322.182437)scale(0.1 -0.1)">
       <defs>
        <path id="DejaVuSans-35" d="M 691 4666 
L 3169 4666 
L 3169 4134 
L 1269 4134 
L 1269 2991 
Q 1406 3038 1543 3061 
Q 1681 3084 1819 3084 
Q 2600 3084 3056 2656 
Q 3513 2228 3513 1497 
Q 3513 744 3044 326 
Q 2575 -91 1722 -91 
Q 1428 -91 1123 -41 
Q 819 9 494 109 
L 494 744 
Q 775 591 1075 516 
Q 1375 441 1709 441 
Q 2250 441 2565 725 
Q 2881 1009 2881 1497 
Q 2881 1984 2565 2268 
Q 2250 2553 1709 2553 
Q 1456 2553 1204 2497 
Q 953 2441 691 2322 
L 691 4666 
z
" transform="scale(0.015625)"/>
       </defs>
       <use xlink:href="#DejaVuSans-35"/>
       <use xlink:href="#DejaVuSans-30" x="63.623047"/>
       <use xlink:href="#DejaVuSans-30" x="127.246094"/>
      </g>
     </g>
    </g>
    <g id="xtick_3">
     <g id="line2d_3">
      <g>
       <use xlink:href="#me8d10cb41d" x="200.453065" y="307.584" style="stroke: #000000; stroke-width: 0.8"/>
      </g>
     </g>
     <g id="text_3">
      <!-- 1000 -->
      <g transform="translate(187.728065 322.182437)scale(0.1 -0.1)">
       <defs>
        <path id="DejaVuSans-31" d="M 794 531 
L 1825 531 
L 1825 4091 
L 703 3866 
L 703 4441 
L 1819 4666 
L 2450 4666 
L 2450 531 
L 3481 531 
L 3481 0 
L 794 0 
L 794 531 
z
" transform="scale(0.015625)"/>
       </defs>
       <use xlink:href="#DejaVuSans-31"/>
       <use xlink:href="#DejaVuSans-30" x="63.623047"/>
       <use xlink:href="#DejaVuSans-30" x="127.246094"/>
       <use xlink:href="#DejaVuSans-30" x="190.869141"/>
      </g>
     </g>
    </g>
    <g id="xtick_4">
     <g id="line2d_4">
      <g>
       <use xlink:href="#me8d10cb41d" x="263.763234" y="307.584" style="stroke: #000000; stroke-width: 0.8"/>
      </g>
     </g>
     <g id="text_4">
      <!-- 1500 -->
      <g transform="translate(251.038234 322.182437)scale(0.1 -0.1)">
       <use xlink:href="#DejaVuSans-31"/>
       <use xlink:href="#DejaVuSans-35" x="63.623047"/>
       <use xlink:href="#DejaVuSans-30" x="127.246094"/>
       <use xlink:href="#DejaVuSans-30" x="190.869141"/>
      </g>
     </g>
    </g>
    <g id="xtick_5">
     <g id="line2d_5">
      <g>
       <use xlink:href="#me8d10cb41d" x="327.073402" y="307.584" style="stroke: #000000; stroke-width: 0.8"/>
      </g>
     </g>
     <g id="text_5">
      <!-- 2000 -->
      <g transform="translate(314.348402 322.182437)scale(0.1 -0.1)">
       <defs>
        <path id="DejaVuSans-32" d="M 1228 531 
L 3431 531 
L 3431 0 
L 469 0 
L 469 531 
Q 828 903 1448 1529 
Q 2069 2156 2228 2338 
Q 2531 2678 2651 2914 
Q 2772 3150 2772 3378 
Q 2772 3750 2511 3984 
Q 2250 4219 1831 4219 
Q 1534 4219 1204 4116 
Q 875 4013 500 3803 
L 500 4441 
Q 881 4594 1212 4672 
Q 1544 4750 1819 4750 
Q 2544 4750 2975 4387 
Q 3406 4025 3406 3419 
Q 3406 3131 3298 2873 
Q 3191 2616 2906 2266 
Q 2828 2175 2409 1742 
Q 1991 1309 1228 531 
z
" transform="scale(0.015625)"/>
       </defs>
       <use xlink:href="#DejaVuSans-32"/>
       <use xlink:href="#DejaVuSans-30" x="63.623047"/>
       <use xlink:href="#DejaVuSans-30" x="127.246094"/>
       <use xlink:href="#DejaVuSans-30" x="190.869141"/>
      </g>
     </g>
    </g>
    <g id="xtick_6">
     <g id="line2d_6">
      <g>
       <use xlink:href="#me8d10cb41d" x="390.383571" y="307.584" style="stroke: #000000; stroke-width: 0.8"/>
      </g>
     </g>
     <g id="text_6">
      <!-- 2500 -->
      <g transform="translate(377.658571 322.182437)scale(0.1 -0.1)">
       <use xlink:href="#DejaVuSans-32"/>
       <use xlink:href="#DejaVuSans-35" x="63.623047"/>
       <use xlink:href="#DejaVuSans-30" x="127.246094"/>
       <use xlink:href="#DejaVuSans-30" x="190.869141"/>
      </g>
     </g>
    </g>
    <g id="text_7">
     <!-- num swaps -->
     <g transform="translate(207.826406 335.860562)scale(0.1 -0.1)">
      <defs>
       <path id="DejaVuSans-6e" d="M 3513 2113 
L 3513 0 
L 2938 0 
L 2938 2094 
Q 2938 2591 2744 2837 
Q 2550 3084 2163 3084 
Q 1697 3084 1428 2787 
Q 1159 2491 1159 1978 
L 1159 0 
L 581 0 
L 581 3500 
L 1159 3500 
L 1159 2956 
Q 1366 3272 1645 3428 
Q 1925 3584 2291 3584 
Q 2894 3584 3203 3211 
Q 3513 2838 3513 2113 
z
" transform="scale(0.015625)"/>
       <path id="DejaVuSans-75" d="M 544 1381 
L 544 3500 
L 1119 3500 
L 1119 1403 
Q 1119 906 1312 657 
Q 1506 409 1894 409 
Q 2359 409 2629 706 
Q 2900 1003 2900 1516 
L 2900 3500 
L 3475 3500 
L 3475 0 
L 2900 0 
L 2900 538 
Q 2691 219 2414 64 
Q 2138 -91 1772 -91 
Q 1169 -91 856 284 
Q 544 659 544 1381 
z
M 1991 3584 
L 1991 3584 
z
" transform="scale(0.015625)"/>
       <path id="DejaVuSans-6d" d="M 3328 2828 
Q 3544 3216 3844 3400 
Q 4144 3584 4550 3584 
Q 5097 3584 5394 3201 
Q 5691 2819 5691 2113 
L 5691 0 
L 5113 0 
L 5113 2094 
Q 5113 2597 4934 2840 
Q 4756 3084 4391 3084 
Q 3944 3084 3684 2787 
Q 3425 2491 3425 1978 
L 3425 0 
L 2847 0 
L 2847 2094 
Q 2847 2600 2669 2842 
Q 2491 3084 2119 3084 
Q 1678 3084 1418 2786 
Q 1159 2488 1159 1978 
L 1159 0 
L 581 0 
L 581 3500 
L 1159 3500 
L 1159 2956 
Q 1356 3278 1631 3431 
Q 1906 3584 2284 3584 
Q 2666 3584 2933 3390 
Q 3200 3197 3328 2828 
z
" transform="scale(0.015625)"/>
       <path id="DejaVuSans-20" transform="scale(0.015625)"/>
       <path id="DejaVuSans-73" d="M 2834 3397 
L 2834 2853 
Q 2591 2978 2328 3040 
Q 2066 3103 1784 3103 
Q 1356 3103 1142 2972 
Q 928 2841 928 2578 
Q 928 2378 1081 2264 
Q 1234 2150 1697 2047 
L 1894 2003 
Q 2506 1872 2764 1633 
Q 3022 1394 3022 966 
Q 3022 478 2636 193 
Q 2250 -91 1575 -91 
Q 1294 -91 989 -36 
Q 684 19 347 128 
L 347 722 
Q 666 556 975 473 
Q 1284 391 1588 391 
Q 1994 391 2212 530 
Q 2431 669 2431 922 
Q 2431 1156 2273 1281 
Q 2116 1406 1581 1522 
L 1381 1569 
Q 847 1681 609 1914 
Q 372 2147 372 2553 
Q 372 3047 722 3315 
Q 1072 3584 1716 3584 
Q 2034 3584 2315 3537 
Q 2597 3491 2834 3397 
z
" transform="scale(0.015625)"/>
       <path id="DejaVuSans-77" d="M 269 3500 
L 844 3500 
L 1563 769 
L 2278 3500 
L 2956 3500 
L 3675 769 
L 4391 3500 
L 4966 3500 
L 4050 0 
L 3372 0 
L 2619 2869 
L 1863 0 
L 1184 0 
L 269 3500 
z
" transform="scale(0.015625)"/>
       <path id="DejaVuSans-61" d="M 2194 1759 
Q 1497 1759 1228 1600 
Q 959 1441 959 1056 
Q 959 750 1161 570 
Q 1363 391 1709 391 
Q 2188 391 2477 730 
Q 2766 1069 2766 1631 
L 2766 1759 
L 2194 1759 
z
M 3341 1997 
L 3341 0 
L 2766 0 
L 2766 531 
Q 2569 213 2275 61 
Q 1981 -91 1556 -91 
Q 1019 -91 701 211 
Q 384 513 384 1019 
Q 384 1609 779 1909 
Q 1175 2209 1959 2209 
L 2766 2209 
L 2766 2266 
Q 2766 2663 2505 2880 
Q 2244 3097 1772 3097 
Q 1472 3097 1187 3025 
Q 903 2953 641 2809 
L 641 3341 
Q 956 3463 1253 3523 
Q 1550 3584 1831 3584 
Q 2591 3584 2966 3190 
Q 3341 2797 3341 1997 
z
" transform="scale(0.015625)"/>
       <path id="DejaVuSans-70" d="M 1159 525 
L 1159 -1331 
L 581 -1331 
L 581 3500 
L 1159 3500 
L 1159 2969 
Q 1341 3281 1617 3432 
Q 1894 3584 2278 3584 
Q 2916 3584 3314 3078 
Q 3713 2572 3713 1747 
Q 3713 922 3314 415 
Q 2916 -91 2278 -91 
Q 1894 -91 1617 61 
Q 1341 213 1159 525 
z
M 3116 1747 
Q 3116 2381 2855 2742 
Q 2594 3103 2138 3103 
Q 1681 3103 1420 2742 
Q 1159 2381 1159 1747 
Q 1159 1113 1420 752 
Q 1681 391 2138 391 
Q 2594 391 2855 752 
Q 3116 1113 3116 1747 
z
" transform="scale(0.015625)"/>
      </defs>
      <use xlink:href="#DejaVuSans-6e"/>
      <use xlink:href="#DejaVuSans-75" x="63.378906"/>
      <use xlink:href="#DejaVuSans-6d" x="126.757812"/>
      <use xlink:href="#DejaVuSans-20" x="224.169922"/>
      <use xlink:href="#DejaVuSans-73" x="255.957031"/>
      <use xlink:href="#DejaVuSans-77" x="308.056641"/>
      <use xlink:href="#DejaVuSans-61" x="389.84375"/>
      <use xlink:href="#DejaVuSans-70" x="451.123047"/>
      <use xlink:href="#DejaVuSans-73" x="514.599609"/>
     </g>
    </g>
   </g>
   <g id="matplotlib.axis_2">
    <g id="ytick_1">
     <g id="line2d_7">
      <defs>
       <path id="mc3d6d8f66f" d="M 0 0 
L -3.5 0 
" style="stroke: #000000; stroke-width: 0.8"/>
      </defs>
      <g>
       <use xlink:href="#mc3d6d8f66f" x="57.6" y="277.641443" style="stroke: #000000; stroke-width: 0.8"/>
      </g>
     </g>
     <g id="text_8">
      <!-- 560 -->
      <g transform="translate(31.5125 281.440661)scale(0.1 -0.1)">
       <defs>
        <path id="DejaVuSans-36" d="M 2113 2584 
Q 1688 2584 1439 2293 
Q 1191 2003 1191 1497 
Q 1191 994 1439 701 
Q 1688 409 2113 409 
Q 2538 409 2786 701 
Q 3034 994 3034 1497 
Q 3034 2003 2786 2293 
Q 2538 2584 2113 2584 
z
M 3366 4563 
L 3366 3988 
Q 3128 4100 2886 4159 
Q 2644 4219 2406 4219 
Q 1781 4219 1451 3797 
Q 1122 3375 1075 2522 
Q 1259 2794 1537 2939 
Q 1816 3084 2150 3084 
Q 2853 3084 3261 2657 
Q 3669 2231 3669 1497 
Q 3669 778 3244 343 
Q 2819 -91 2113 -91 
Q 1303 -91 875 529 
Q 447 1150 447 2328 
Q 447 3434 972 4092 
Q 1497 4750 2381 4750 
Q 2619 4750 2861 4703 
Q 3103 4656 3366 4563 
z
" transform="scale(0.015625)"/>
       </defs>
       <use xlink:href="#DejaVuSans-35"/>
       <use xlink:href="#DejaVuSans-36" x="63.623047"/>
       <use xlink:href="#DejaVuSans-30" x="127.246094"/>
      </g>
     </g>
    </g>
    <g id="ytick_2">
     <g id="line2d_8">
      <g>
       <use xlink:href="#mc3d6d8f66f" x="57.6" y="237.982426" style="stroke: #000000; stroke-width: 0.8"/>
      </g>
     </g>
     <g id="text_9">
      <!-- 580 -->
      <g transform="translate(31.5125 241.781645)scale(0.1 -0.1)">
       <defs>
        <path id="DejaVuSans-38" d="M 2034 2216 
Q 1584 2216 1326 1975 
Q 1069 1734 1069 1313 
Q 1069 891 1326 650 
Q 1584 409 2034 409 
Q 2484 409 2743 651 
Q 3003 894 3003 1313 
Q 3003 1734 2745 1975 
Q 2488 2216 2034 2216 
z
M 1403 2484 
Q 997 2584 770 2862 
Q 544 3141 544 3541 
Q 544 4100 942 4425 
Q 1341 4750 2034 4750 
Q 2731 4750 3128 4425 
Q 3525 4100 3525 3541 
Q 3525 3141 3298 2862 
Q 3072 2584 2669 2484 
Q 3125 2378 3379 2068 
Q 3634 1759 3634 1313 
Q 3634 634 3220 271 
Q 2806 -91 2034 -91 
Q 1263 -91 848 271 
Q 434 634 434 1313 
Q 434 1759 690 2068 
Q 947 2378 1403 2484 
z
M 1172 3481 
Q 1172 3119 1398 2916 
Q 1625 2713 2034 2713 
Q 2441 2713 2670 2916 
Q 2900 3119 2900 3481 
Q 2900 3844 2670 4047 
Q 2441 4250 2034 4250 
Q 1625 4250 1398 4047 
Q 1172 3844 1172 3481 
z
" transform="scale(0.015625)"/>
       </defs>
       <use xlink:href="#DejaVuSans-35"/>
       <use xlink:href="#DejaVuSans-38" x="63.623047"/>
       <use xlink:href="#DejaVuSans-30" x="127.246094"/>
      </g>
     </g>
    </g>
    <g id="ytick_3">
     <g id="line2d_9">
      <g>
       <use xlink:href="#mc3d6d8f66f" x="57.6" y="198.32341" style="stroke: #000000; stroke-width: 0.8"/>
      </g>
     </g>
     <g id="text_10">
      <!-- 600 -->
      <g transform="translate(31.5125 202.122629)scale(0.1 -0.1)">
       <use xlink:href="#DejaVuSans-36"/>
       <use xlink:href="#DejaVuSans-30" x="63.623047"/>
       <use xlink:href="#DejaVuSans-30" x="127.246094"/>
      </g>
     </g>
    </g>
    <g id="ytick_4">
     <g id="line2d_10">
      <g>
       <use xlink:href="#mc3d6d8f66f" x="57.6" y="158.664393" style="stroke: #000000; stroke-width: 0.8"/>
      </g>
     </g>
     <g id="text_11">
      <!-- 620 -->
      <g transform="translate(31.5125 162.463612)scale(0.1 -0.1)">
       <use xlink:href="#DejaVuSans-36"/>
       <use xlink:href="#DejaVuSans-32" x="63.623047"/>
       <use xlink:href="#DejaVuSans-30" x="127.246094"/>
      </g>
     </g>
    </g>
    <g id="ytick_5">
     <g id="line2d_11">
      <g>
       <use xlink:href="#mc3d6d8f66f" x="57.6" y="119.005377" style="stroke: #000000; stroke-width: 0.8"/>
      </g>
     </g>
     <g id="text_12">
      <!-- 640 -->
      <g transform="translate(31.5125 122.804596)scale(0.1 -0.1)">
       <defs>
        <path id="DejaVuSans-34" d="M 2419 4116 
L 825 1625 
L 2419 1625 
L 2419 4116 
z
M 2253 4666 
L 3047 4666 
L 3047 1625 
L 3713 1625 
L 3713 1100 
L 3047 1100 
L 3047 0 
L 2419 0 
L 2419 1100 
L 313 1100 
L 313 1709 
L 2253 4666 
z
" transform="scale(0.015625)"/>
       </defs>
       <use xlink:href="#DejaVuSans-36"/>
       <use xlink:href="#DejaVuSans-34" x="63.623047"/>
       <use xlink:href="#DejaVuSans-30" x="127.246094"/>
      </g>
     </g>
    </g>
    <g id="ytick_6">
     <g id="line2d_12">
      <g>
       <use xlink:href="#mc3d6d8f66f" x="57.6" y="79.346361" style="stroke: #000000; stroke-width: 0.8"/>
      </g>
     </g>
     <g id="text_13">
      <!-- 660 -->
      <g transform="translate(31.5125 83.145579)scale(0.1 -0.1)">
       <use xlink:href="#DejaVuSans-36"/>
       <use xlink:href="#DejaVuSans-36" x="63.623047"/>
       <use xlink:href="#DejaVuSans-30" x="127.246094"/>
      </g>
     </g>
    </g>
    <g id="text_14">
     <!-- total cost -->
     <g transform="translate(25.432812 197.923313)rotate(-90)scale(0.1 -0.1)">
      <defs>
       <path id="DejaVuSans-74" d="M 1172 4494 
L 1172 3500 
L 2356 3500 
L 2356 3053 
L 1172 3053 
L 1172 1153 
Q 1172 725 1289 603 
Q 1406 481 1766 481 
L 2356 481 
L 2356 0 
L 1766 0 
Q 1100 0 847 248 
Q 594 497 594 1153 
L 594 3053 
L 172 3053 
L 172 3500 
L 594 3500 
L 594 4494 
L 1172 4494 
z
" transform="scale(0.015625)"/>
       <path id="DejaVuSans-6f" d="M 1959 3097 
Q 1497 3097 1228 2736 
Q 959 2375 959 1747 
Q 959 1119 1226 758 
Q 1494 397 1959 397 
Q 2419 397 2687 759 
Q 2956 1122 2956 1747 
Q 2956 2369 2687 2733 
Q 2419 3097 1959 3097 
z
M 1959 3584 
Q 2709 3584 3137 3096 
Q 3566 2609 3566 1747 
Q 3566 888 3137 398 
Q 2709 -91 1959 -91 
Q 1206 -91 779 398 
Q 353 888 353 1747 
Q 353 2609 779 3096 
Q 1206 3584 1959 3584 
z
" transform="scale(0.015625)"/>
       <path id="DejaVuSans-6c" d="M 603 4863 
L 1178 4863 
L 1178 0 
L 603 0 
L 603 4863 
z
" transform="scale(0.015625)"/>
       <path id="DejaVuSans-63" d="M 3122 3366 
L 3122 2828 
Q 2878 2963 2633 3030 
Q 2388 3097 2138 3097 
Q 1578 3097 1268 2742 
Q 959 2388 959 1747 
Q 959 1106 1268 751 
Q 1578 397 2138 397 
Q 2388 397 2633 464 
Q 2878 531 3122 666 
L 3122 134 
Q 2881 22 2623 -34 
Q 2366 -91 2075 -91 
Q 1284 -91 818 406 
Q 353 903 353 1747 
Q 353 2603 823 3093 
Q 1294 3584 2113 3584 
Q 2378 3584 2631 3529 
Q 2884 3475 3122 3366 
z
" transform="scale(0.015625)"/>
      </defs>
      <use xlink:href="#DejaVuSans-74"/>
      <use xlink:href="#DejaVuSans-6f" x="39.208984"/>
      <use xlink:href="#DejaVuSans-74" x="100.390625"/>
      <use xlink:href="#DejaVuSans-61" x="139.599609"/>
      <use xlink:href="#DejaVuSans-6c" x="200.878906"/>
      <use xlink:href="#DejaVuSans-20" x="228.662109"/>
      <use xlink:href="#DejaVuSans-63" x="260.449219"/>
      <use xlink:href="#DejaVuSans-6f" x="315.429688"/>
      <use xlink:href="#DejaVuSans-73" x="376.611328"/>
      <use xlink:href="#DejaVuSans-74" x="428.710938"/>
     </g>
    </g>
   </g>
   <g id="line2d_13">
    <path d="M 73.832727 172.545049 
L 74.085968 168.579148 
L 74.339209 172.545049 
L 74.592449 166.596197 
L 74.84569 164.613246 
L 75.605412 152.715541 
L 75.858653 156.681443 
L 76.365134 152.715541 
L 76.618375 144.783738 
L 76.871615 148.749639 
L 77.124856 144.783738 
L 77.378097 132.886033 
L 77.631337 150.73259 
L 77.884578 150.73259 
L 78.137819 168.579148 
L 78.391059 174.528 
L 78.6443 174.528 
L 78.897541 164.613246 
L 79.150781 172.545049 
L 79.404022 174.528 
L 79.910503 154.698492 
L 80.163744 152.715541 
L 80.923466 136.851934 
L 81.176707 144.783738 
L 81.429948 144.783738 
L 81.683188 122.971279 
L 81.936429 130.903082 
L 82.18967 128.920131 
L 82.44291 158.664393 
L 83.202632 184.442754 
L 83.455873 180.476852 
L 83.709114 178.493902 
L 83.962354 184.442754 
L 84.215595 180.476852 
L 84.468836 164.613246 
L 84.975317 156.681443 
L 85.228558 158.664393 
L 85.481798 150.73259 
L 85.98828 164.613246 
L 86.494761 192.374557 
L 86.748002 196.340459 
L 87.001242 196.340459 
L 87.254483 186.425705 
L 87.507724 196.340459 
L 87.760964 200.306361 
L 88.014205 198.32341 
L 88.267446 202.289311 
L 88.520686 200.306361 
L 88.773927 196.340459 
L 89.78689 226.084721 
L 90.04013 232.033574 
L 90.293371 222.11882 
L 90.546612 224.10177 
L 90.799853 230.050623 
L 91.306334 196.340459 
L 91.559575 210.221115 
L 91.812815 216.169967 
L 92.066056 218.152918 
L 92.319297 218.152918 
L 92.572537 216.169967 
L 92.825778 206.255213 
L 93.079019 208.238164 
L 93.332259 220.135869 
L 93.5855 212.204066 
L 93.838741 200.306361 
L 94.091981 214.187016 
L 94.345222 206.255213 
L 94.598463 218.152918 
L 94.851703 216.169967 
L 95.104944 210.221115 
L 95.358185 196.340459 
L 95.611425 194.357508 
L 95.864666 182.459803 
L 96.117907 184.442754 
L 96.371147 196.340459 
L 96.624388 198.32341 
L 97.130869 210.221115 
L 97.38411 210.221115 
L 97.637351 214.187016 
L 97.890591 222.11882 
L 98.143832 224.10177 
L 98.650313 234.016525 
L 99.156795 230.050623 
L 99.410035 234.016525 
L 99.663276 234.016525 
L 99.916517 235.999475 
L 100.169757 230.050623 
L 100.422998 214.187016 
L 100.676239 214.187016 
L 100.92948 208.238164 
L 101.18272 192.374557 
L 101.435961 184.442754 
L 101.689202 182.459803 
L 101.942442 186.425705 
L 102.195683 194.357508 
L 102.448924 192.374557 
L 102.702164 186.425705 
L 102.955405 184.442754 
L 103.208646 144.783738 
L 103.461886 156.681443 
L 103.715127 160.647344 
L 103.968368 162.630295 
L 104.221608 130.903082 
L 104.474849 136.851934 
L 104.72809 150.73259 
L 104.98133 136.851934 
L 105.234571 146.766689 
L 105.487812 148.749639 
L 105.741052 144.783738 
L 106.247534 115.039475 
L 106.500774 111.073574 
L 106.754015 124.95423 
L 107.007256 128.920131 
L 107.260496 120.988328 
L 107.513737 109.090623 
L 108.273459 126.93718 
L 108.5267 136.851934 
L 108.77994 126.93718 
L 109.033181 126.93718 
L 109.539662 117.022426 
L 110.046144 117.022426 
L 110.299384 111.073574 
L 110.552625 115.039475 
L 111.059107 128.920131 
L 111.312347 122.971279 
L 111.565588 130.903082 
L 111.818829 150.73259 
L 112.32531 128.920131 
L 112.831791 180.476852 
L 113.085032 178.493902 
L 113.338273 190.391607 
L 113.591513 190.391607 
L 113.844754 188.408656 
L 114.351235 170.562098 
L 114.604476 152.715541 
L 114.857717 158.664393 
L 115.110957 168.579148 
L 115.364198 162.630295 
L 115.617439 160.647344 
L 115.870679 166.596197 
L 116.12392 166.596197 
L 116.377161 164.613246 
L 116.630401 158.664393 
L 116.883642 162.630295 
L 117.136883 172.545049 
L 117.390123 170.562098 
L 117.896605 119.005377 
L 118.149845 119.005377 
L 118.403086 109.090623 
L 118.909567 119.005377 
L 119.162808 115.039475 
L 119.416049 103.14177 
L 119.92253 91.244066 
L 120.175771 103.14177 
L 120.429011 99.175869 
L 120.682252 107.107672 
L 121.188734 130.903082 
L 121.441974 128.920131 
L 121.695215 113.056525 
L 122.201696 128.920131 
L 122.454937 130.903082 
L 122.961418 148.749639 
L 123.214659 134.868984 
L 123.4679 146.766689 
L 123.72114 130.903082 
L 124.227622 142.800787 
L 124.480862 138.834885 
L 124.734103 162.630295 
L 124.987344 154.698492 
L 125.240584 166.596197 
L 125.493825 168.579148 
L 125.747066 180.476852 
L 126.000306 180.476852 
L 127.013269 130.903082 
L 127.26651 132.886033 
L 127.51975 128.920131 
L 127.772991 152.715541 
L 128.026232 144.783738 
L 128.279472 144.783738 
L 128.532713 138.834885 
L 128.785954 126.93718 
L 129.039194 142.800787 
L 129.292435 138.834885 
L 129.545676 136.851934 
L 129.798916 144.783738 
L 130.052157 124.95423 
L 130.558638 134.868984 
L 130.811879 134.868984 
L 131.318361 122.971279 
L 131.571601 120.988328 
L 131.824842 128.920131 
L 132.331323 109.090623 
L 132.584564 111.073574 
L 132.837805 109.090623 
L 133.091045 111.073574 
L 133.597527 103.14177 
L 133.850767 136.851934 
L 134.104008 134.868984 
L 134.357249 136.851934 
L 134.610489 134.868984 
L 134.86373 128.920131 
L 135.116971 146.766689 
L 135.370211 136.851934 
L 135.623452 162.630295 
L 135.876693 150.73259 
L 136.129933 162.630295 
L 136.383174 168.579148 
L 136.636415 156.681443 
L 136.889655 154.698492 
L 137.142896 142.800787 
L 137.649377 150.73259 
L 137.902618 152.715541 
L 138.155859 150.73259 
L 138.409099 158.664393 
L 138.915581 166.596197 
L 139.168821 164.613246 
L 139.422062 170.562098 
L 139.675303 160.647344 
L 139.928543 174.528 
L 140.181784 178.493902 
L 140.435025 176.510951 
L 140.688265 172.545049 
L 140.941506 172.545049 
L 141.194747 166.596197 
L 141.701228 144.783738 
L 141.954469 144.783738 
L 142.20771 146.766689 
L 142.714191 168.579148 
L 142.967432 172.545049 
L 143.220672 172.545049 
L 143.473913 168.579148 
L 143.727154 172.545049 
L 143.980394 160.647344 
L 144.233635 134.868984 
L 144.486876 138.834885 
L 144.740116 134.868984 
L 144.993357 140.817836 
L 145.246598 142.800787 
L 145.499838 138.834885 
L 145.753079 124.95423 
L 146.00632 142.800787 
L 146.25956 146.766689 
L 146.512801 146.766689 
L 146.766042 140.817836 
L 147.019282 138.834885 
L 147.272523 154.698492 
L 147.525764 148.749639 
L 147.779004 152.715541 
L 148.032245 158.664393 
L 148.285486 158.664393 
L 148.538726 170.562098 
L 148.791967 166.596197 
L 149.045208 166.596197 
L 149.298448 162.630295 
L 149.551689 166.596197 
L 149.80493 162.630295 
L 150.05817 200.306361 
L 150.311411 216.169967 
L 150.564652 216.169967 
L 150.817892 224.10177 
L 151.071133 222.11882 
L 151.324374 210.221115 
L 151.577615 212.204066 
L 151.830855 212.204066 
L 152.084096 224.10177 
L 152.337337 202.289311 
L 152.590577 202.289311 
L 152.843818 204.272262 
L 153.097059 218.152918 
L 153.350299 210.221115 
L 153.60354 222.11882 
L 153.856781 222.11882 
L 154.110021 198.32341 
L 154.363262 192.374557 
L 154.616503 226.084721 
L 155.122984 249.880131 
L 155.376225 237.982426 
L 155.629465 234.016525 
L 155.882706 228.067672 
L 156.135947 218.152918 
L 156.389187 234.016525 
L 156.642428 235.999475 
L 156.895669 234.016525 
L 157.148909 220.135869 
L 157.40215 220.135869 
L 157.655391 232.033574 
L 157.908631 235.999475 
L 158.161872 234.016525 
L 158.415113 228.067672 
L 158.668353 232.033574 
L 158.921594 224.10177 
L 159.174835 222.11882 
L 159.428075 218.152918 
L 159.681316 216.169967 
L 159.934557 208.238164 
L 160.187797 220.135869 
L 160.441038 218.152918 
L 160.694279 220.135869 
L 160.94752 230.050623 
L 161.20076 226.084721 
L 161.454001 224.10177 
L 161.960482 202.289311 
L 162.466964 192.374557 
L 162.720204 172.545049 
L 162.973445 174.528 
L 163.226686 166.596197 
L 163.479926 168.579148 
L 163.733167 158.664393 
L 163.986408 160.647344 
L 164.239648 156.681443 
L 164.492889 164.613246 
L 164.99937 164.613246 
L 165.252611 148.749639 
L 165.505852 144.783738 
L 165.759092 136.851934 
L 166.012333 142.800787 
L 166.265574 136.851934 
L 166.518814 140.817836 
L 166.772055 152.715541 
L 167.025296 146.766689 
L 167.278536 150.73259 
L 168.038258 150.73259 
L 168.291499 160.647344 
L 168.54474 156.681443 
L 168.79798 170.562098 
L 169.051221 170.562098 
L 169.304462 186.425705 
L 169.557702 180.476852 
L 169.810943 186.425705 
L 170.064184 178.493902 
L 170.317424 174.528 
L 170.570665 176.510951 
L 170.823906 186.425705 
L 171.077147 202.289311 
L 171.330387 190.391607 
L 171.836869 186.425705 
L 172.090109 160.647344 
L 172.34335 178.493902 
L 172.596591 176.510951 
L 172.849831 190.391607 
L 173.103072 194.357508 
L 173.356313 192.374557 
L 173.609553 162.630295 
L 174.369275 180.476852 
L 174.622516 174.528 
L 174.875757 184.442754 
L 175.128997 206.255213 
L 175.382238 204.272262 
L 175.635479 194.357508 
L 175.888719 200.306361 
L 176.14196 190.391607 
L 176.901682 218.152918 
L 177.661404 196.340459 
L 177.914645 182.459803 
L 178.167885 188.408656 
L 178.421126 186.425705 
L 178.674367 182.459803 
L 178.927607 182.459803 
L 179.434089 186.425705 
L 179.687329 190.391607 
L 179.94057 176.510951 
L 180.193811 170.562098 
L 180.447051 160.647344 
L 180.700292 158.664393 
L 180.953533 160.647344 
L 181.206774 150.73259 
L 181.713255 184.442754 
L 182.472977 158.664393 
L 182.726218 160.647344 
L 182.979458 156.681443 
L 183.232699 146.766689 
L 183.48594 144.783738 
L 183.73918 154.698492 
L 183.992421 144.783738 
L 184.245662 142.800787 
L 184.498902 160.647344 
L 184.752143 154.698492 
L 185.005384 158.664393 
L 185.258624 134.868984 
L 185.765106 172.545049 
L 186.018346 164.613246 
L 186.271587 162.630295 
L 186.524828 166.596197 
L 187.031309 162.630295 
L 187.28455 164.613246 
L 187.53779 164.613246 
L 187.791031 160.647344 
L 188.550753 196.340459 
L 188.803994 196.340459 
L 189.563716 222.11882 
L 189.816956 214.187016 
L 190.070197 214.187016 
L 190.323438 198.32341 
L 190.829919 198.32341 
L 191.08316 200.306361 
L 191.336401 186.425705 
L 191.589641 188.408656 
L 191.842882 164.613246 
L 192.096123 160.647344 
L 192.349363 162.630295 
L 192.602604 132.886033 
L 192.855845 119.005377 
L 193.109085 122.971279 
L 193.362326 132.886033 
L 193.615567 134.868984 
L 194.122048 120.988328 
L 194.375289 130.903082 
L 194.628529 130.903082 
L 194.88177 132.886033 
L 195.135011 140.817836 
L 195.388251 138.834885 
L 195.894733 128.920131 
L 196.147973 146.766689 
L 196.401214 150.73259 
L 196.654455 152.715541 
L 196.907695 140.817836 
L 197.160936 146.766689 
L 197.414177 144.783738 
L 197.920658 144.783738 
L 198.173899 140.817836 
L 198.427139 142.800787 
L 198.68038 138.834885 
L 198.933621 126.93718 
L 199.186861 134.868984 
L 199.440102 120.988328 
L 199.693343 130.903082 
L 200.199824 120.988328 
L 200.453065 109.090623 
L 200.706305 105.124721 
L 200.959546 111.073574 
L 201.212787 95.209967 
L 201.466028 87.278164 
L 201.719268 89.261115 
L 201.972509 89.261115 
L 202.22575 75.380459 
L 202.47899 53.568 
L 202.732231 71.414557 
L 202.985472 119.005377 
L 203.491953 99.175869 
L 203.745194 103.14177 
L 203.998434 109.090623 
L 204.251675 120.988328 
L 204.504916 117.022426 
L 205.011397 130.903082 
L 205.517878 162.630295 
L 205.771119 188.408656 
L 206.02436 176.510951 
L 206.2776 174.528 
L 206.530841 158.664393 
L 207.037322 168.579148 
L 207.290563 170.562098 
L 207.543804 170.562098 
L 207.797044 174.528 
L 208.050285 182.459803 
L 208.303526 182.459803 
L 208.556766 196.340459 
L 208.810007 192.374557 
L 209.063248 190.391607 
L 210.07621 158.664393 
L 210.329451 164.613246 
L 210.582692 162.630295 
L 210.835932 180.476852 
L 211.089173 186.425705 
L 211.342414 178.493902 
L 211.595655 178.493902 
L 211.848895 182.459803 
L 212.102136 174.528 
L 212.355377 158.664393 
L 212.608617 180.476852 
L 212.861858 182.459803 
L 213.115099 200.306361 
L 213.368339 200.306361 
L 213.62158 188.408656 
L 213.874821 206.255213 
L 214.128061 210.221115 
L 214.381302 212.204066 
L 214.634543 210.221115 
L 214.887783 200.306361 
L 215.141024 202.289311 
L 215.394265 192.374557 
L 215.647505 206.255213 
L 216.407227 222.11882 
L 216.660468 216.169967 
L 216.913709 204.272262 
L 217.166949 208.238164 
L 217.42019 204.272262 
L 217.673431 206.255213 
L 217.926671 218.152918 
L 218.179912 216.169967 
L 218.433153 208.238164 
L 218.686393 208.238164 
L 219.192875 212.204066 
L 219.446115 204.272262 
L 219.699356 220.135869 
L 219.952597 210.221115 
L 220.459078 210.221115 
L 220.712319 206.255213 
L 220.965559 208.238164 
L 221.2188 208.238164 
L 221.472041 239.965377 
L 221.725282 243.931279 
L 222.231763 243.931279 
L 222.485004 241.948328 
L 222.738244 247.89718 
L 222.991485 249.880131 
L 223.244726 243.931279 
L 223.497966 249.880131 
L 223.751207 226.084721 
L 224.004448 235.999475 
L 224.257688 261.777836 
L 224.510929 259.794885 
L 224.76417 259.794885 
L 225.01741 224.10177 
L 225.270651 222.11882 
L 225.523892 228.067672 
L 225.777132 226.084721 
L 226.283614 226.084721 
L 226.536854 198.32341 
L 226.790095 200.306361 
L 227.043336 200.306361 
L 227.296576 210.221115 
L 227.549817 210.221115 
L 227.803058 212.204066 
L 228.056298 204.272262 
L 228.309539 216.169967 
L 228.56278 214.187016 
L 228.81602 214.187016 
L 229.069261 218.152918 
L 229.322502 216.169967 
L 229.575742 224.10177 
L 229.828983 224.10177 
L 230.082224 204.272262 
L 230.335464 216.169967 
L 230.588705 222.11882 
L 230.841946 200.306361 
L 231.095186 202.289311 
L 231.348427 208.238164 
L 231.601668 206.255213 
L 231.854909 182.459803 
L 232.108149 190.391607 
L 232.36139 202.289311 
L 232.614631 208.238164 
L 232.867871 196.340459 
L 233.121112 198.32341 
L 233.374353 196.340459 
L 233.627593 198.32341 
L 233.880834 192.374557 
L 234.134075 198.32341 
L 234.387315 188.408656 
L 234.640556 188.408656 
L 234.893797 190.391607 
L 235.147037 188.408656 
L 235.400278 194.357508 
L 235.653519 190.391607 
L 235.906759 194.357508 
L 236.16 186.425705 
L 236.413241 208.238164 
L 236.666481 204.272262 
L 236.919722 208.238164 
L 237.172963 208.238164 
L 237.426203 222.11882 
L 237.679444 214.187016 
L 237.932685 214.187016 
L 238.185925 204.272262 
L 238.439166 202.289311 
L 238.692407 218.152918 
L 238.945647 212.204066 
L 239.198888 220.135869 
L 239.452129 214.187016 
L 239.705369 212.204066 
L 239.95861 218.152918 
L 240.211851 235.999475 
L 240.718332 222.11882 
L 240.971573 230.050623 
L 241.224814 218.152918 
L 241.731295 228.067672 
L 241.984536 226.084721 
L 242.237776 237.982426 
L 242.491017 237.982426 
L 242.744258 234.016525 
L 242.997498 234.016525 
L 243.250739 251.863082 
L 243.50398 247.89718 
L 243.75722 239.965377 
L 244.010461 239.965377 
L 244.263702 235.999475 
L 244.516942 237.982426 
L 244.770183 230.050623 
L 245.023424 216.169967 
L 245.276664 216.169967 
L 245.783146 196.340459 
L 246.036386 194.357508 
L 246.542868 206.255213 
L 246.796108 202.289311 
L 247.049349 206.255213 
L 247.30259 222.11882 
L 247.809071 237.982426 
L 248.315552 228.067672 
L 248.568793 224.10177 
L 248.822034 257.811934 
L 249.075274 253.846033 
L 249.328515 239.965377 
L 249.834996 232.033574 
L 250.088237 230.050623 
L 250.341478 234.016525 
L 250.594718 241.948328 
L 250.847959 243.931279 
L 251.354441 239.965377 
L 251.860922 247.89718 
L 252.114163 249.880131 
L 252.367403 249.880131 
L 252.620644 261.777836 
L 252.873885 253.846033 
L 253.127125 265.743738 
L 253.886847 239.965377 
L 254.140088 249.880131 
L 254.393329 237.982426 
L 254.646569 241.948328 
L 254.89981 243.931279 
L 255.153051 249.880131 
L 255.406291 243.931279 
L 255.659532 251.863082 
L 255.912773 247.89718 
L 256.166013 255.828984 
L 256.419254 267.726689 
L 256.672495 269.709639 
L 256.925735 234.016525 
L 257.178976 237.982426 
L 257.432217 235.999475 
L 258.69842 172.545049 
L 258.951661 186.425705 
L 259.204901 188.408656 
L 259.458142 184.442754 
L 259.711383 190.391607 
L 259.964623 210.221115 
L 260.217864 277.641443 
L 260.471105 275.658492 
L 260.724345 245.91423 
L 260.977586 251.863082 
L 261.230827 235.999475 
L 261.484068 234.016525 
L 261.737308 241.948328 
L 261.990549 243.931279 
L 262.24379 234.016525 
L 262.49703 261.777836 
L 262.750271 257.811934 
L 263.003512 267.726689 
L 263.256752 263.760787 
L 263.763234 253.846033 
L 264.016474 228.067672 
L 264.522956 251.863082 
L 264.776196 239.965377 
L 265.029437 237.982426 
L 265.282678 230.050623 
L 265.535918 228.067672 
L 265.789159 228.067672 
L 266.0424 222.11882 
L 266.29564 222.11882 
L 266.548881 210.221115 
L 266.802122 206.255213 
L 267.055362 208.238164 
L 267.308603 182.459803 
L 267.561844 192.374557 
L 267.815084 194.357508 
L 268.068325 188.408656 
L 268.321566 196.340459 
L 268.574806 208.238164 
L 268.828047 186.425705 
L 269.081288 176.510951 
L 269.334528 178.493902 
L 269.587769 176.510951 
L 269.84101 202.289311 
L 270.09425 192.374557 
L 270.347491 158.664393 
L 270.600732 180.476852 
L 270.853972 182.459803 
L 271.107213 176.510951 
L 271.360454 180.476852 
L 271.613695 176.510951 
L 271.866935 178.493902 
L 272.120176 190.391607 
L 272.373417 210.221115 
L 272.626657 208.238164 
L 273.133139 196.340459 
L 273.386379 204.272262 
L 273.892861 212.204066 
L 274.146101 210.221115 
L 274.399342 204.272262 
L 274.652583 202.289311 
L 274.905823 208.238164 
L 275.159064 208.238164 
L 275.412305 220.135869 
L 275.918786 230.050623 
L 276.172027 224.10177 
L 276.425267 222.11882 
L 276.678508 228.067672 
L 276.931749 224.10177 
L 277.184989 232.033574 
L 277.43823 230.050623 
L 277.691471 220.135869 
L 277.944711 237.982426 
L 278.197952 234.016525 
L 278.451193 234.016525 
L 278.704433 235.999475 
L 278.957674 226.084721 
L 279.210915 228.067672 
L 279.464155 216.169967 
L 279.717396 220.135869 
L 279.970637 216.169967 
L 280.223877 208.238164 
L 280.477118 214.187016 
L 280.730359 216.169967 
L 280.983599 216.169967 
L 281.23684 224.10177 
L 281.490081 214.187016 
L 281.743322 224.10177 
L 281.996562 245.91423 
L 282.503044 267.726689 
L 282.756284 273.675541 
L 283.009525 269.709639 
L 283.262766 271.69259 
L 283.516006 263.760787 
L 283.769247 281.607344 
L 284.022488 277.641443 
L 284.275728 257.811934 
L 284.78221 261.777836 
L 285.03545 269.709639 
L 285.541932 273.675541 
L 285.795172 277.641443 
L 286.048413 253.846033 
L 286.301654 259.794885 
L 286.808135 241.948328 
L 287.314616 204.272262 
L 287.567857 208.238164 
L 287.821098 202.289311 
L 288.074338 204.272262 
L 288.327579 202.289311 
L 288.58082 202.289311 
L 288.83406 198.32341 
L 289.087301 198.32341 
L 289.340542 208.238164 
L 289.593782 204.272262 
L 289.847023 214.187016 
L 290.100264 214.187016 
L 290.353504 202.289311 
L 290.606745 200.306361 
L 290.859986 190.391607 
L 291.113226 196.340459 
L 291.366467 208.238164 
L 291.619708 202.289311 
L 291.872949 212.204066 
L 292.126189 206.255213 
L 292.37943 154.698492 
L 292.632671 152.715541 
L 292.885911 164.613246 
L 293.139152 162.630295 
L 293.392393 162.630295 
L 293.645633 164.613246 
L 294.152115 148.749639 
L 294.405355 156.681443 
L 294.658596 156.681443 
L 294.911837 162.630295 
L 295.165077 156.681443 
L 295.418318 202.289311 
L 295.924799 198.32341 
L 296.17804 194.357508 
L 296.431281 196.340459 
L 297.191003 184.442754 
L 297.444243 190.391607 
L 297.697484 160.647344 
L 297.950725 168.579148 
L 298.203965 162.630295 
L 298.457206 186.425705 
L 298.710447 192.374557 
L 299.216928 174.528 
L 299.470169 172.545049 
L 299.723409 176.510951 
L 299.97665 178.493902 
L 300.229891 206.255213 
L 300.483131 212.204066 
L 300.736372 202.289311 
L 300.989613 202.289311 
L 301.242853 176.510951 
L 301.749335 168.579148 
L 302.002576 168.579148 
L 302.509057 208.238164 
L 303.015538 218.152918 
L 303.268779 196.340459 
L 303.52202 196.340459 
L 303.77526 192.374557 
L 304.028501 200.306361 
L 304.281742 196.340459 
L 304.534982 212.204066 
L 304.788223 204.272262 
L 305.041464 210.221115 
L 305.547945 192.374557 
L 305.801186 192.374557 
L 306.054426 196.340459 
L 306.307667 194.357508 
L 306.560908 202.289311 
L 306.814148 198.32341 
L 307.067389 196.340459 
L 307.32063 198.32341 
L 307.57387 186.425705 
L 307.827111 180.476852 
L 308.080352 210.221115 
L 308.333592 214.187016 
L 308.586833 216.169967 
L 308.840074 214.187016 
L 309.093314 220.135869 
L 309.346555 220.135869 
L 309.599796 232.033574 
L 309.853036 224.10177 
L 310.106277 210.221115 
L 310.359518 204.272262 
L 310.612758 224.10177 
L 310.865999 226.084721 
L 311.11924 224.10177 
L 311.37248 212.204066 
L 311.625721 224.10177 
L 311.878962 251.863082 
L 312.385443 267.726689 
L 312.891925 235.999475 
L 313.145165 257.811934 
L 313.651647 269.709639 
L 314.158128 255.828984 
L 314.411369 261.777836 
L 314.664609 273.675541 
L 314.91785 269.709639 
L 315.424331 257.811934 
L 315.677572 255.828984 
L 315.930813 251.863082 
L 316.437294 230.050623 
L 316.690535 230.050623 
L 316.943775 192.374557 
L 317.197016 186.425705 
L 317.956738 202.289311 
L 318.209979 196.340459 
L 318.463219 200.306361 
L 318.71646 208.238164 
L 318.969701 230.050623 
L 319.222941 228.067672 
L 319.729423 228.067672 
L 319.982663 216.169967 
L 320.235904 198.32341 
L 320.489145 204.272262 
L 320.742385 204.272262 
L 320.995626 194.357508 
L 321.248867 192.374557 
L 321.502108 204.272262 
L 321.755348 194.357508 
L 322.008589 202.289311 
L 322.26183 222.11882 
L 323.021552 222.11882 
L 323.274792 235.999475 
L 323.528033 239.965377 
L 323.781274 237.982426 
L 324.034514 230.050623 
L 324.287755 226.084721 
L 324.540996 212.204066 
L 324.794236 218.152918 
L 325.047477 206.255213 
L 325.300718 204.272262 
L 325.553958 212.204066 
L 325.807199 208.238164 
L 326.06044 243.931279 
L 326.31368 255.828984 
L 326.820162 245.91423 
L 327.073402 259.794885 
L 327.326643 255.828984 
L 327.579884 271.69259 
L 327.833124 259.794885 
L 328.086365 255.828984 
L 328.592846 237.982426 
L 328.846087 245.91423 
L 329.099328 249.880131 
L 329.352568 243.931279 
L 329.605809 234.016525 
L 329.85905 237.982426 
L 330.11229 239.965377 
L 330.365531 232.033574 
L 330.618772 235.999475 
L 331.125253 235.999475 
L 331.631735 267.726689 
L 331.884975 265.743738 
L 332.138216 269.709639 
L 332.391457 277.641443 
L 332.644697 273.675541 
L 333.151179 295.488 
L 333.404419 289.539148 
L 333.65766 277.641443 
L 333.910901 243.931279 
L 334.164141 241.948328 
L 334.417382 232.033574 
L 334.670623 237.982426 
L 334.923863 216.169967 
L 335.683585 241.948328 
L 335.936826 218.152918 
L 336.190067 224.10177 
L 336.443307 226.084721 
L 336.696548 216.169967 
L 336.949789 214.187016 
L 337.203029 218.152918 
L 337.709511 239.965377 
L 337.962751 224.10177 
L 338.215992 224.10177 
L 338.469233 208.238164 
L 338.722473 206.255213 
L 338.975714 212.204066 
L 339.228955 178.493902 
L 339.482195 170.562098 
L 339.988677 178.493902 
L 340.241917 196.340459 
L 340.748399 208.238164 
L 341.001639 222.11882 
L 341.25488 220.135869 
L 341.508121 232.033574 
L 341.761362 228.067672 
L 342.014602 235.999475 
L 342.267843 214.187016 
L 342.521084 216.169967 
L 342.774324 210.221115 
L 343.027565 210.221115 
L 343.280806 214.187016 
L 343.534046 212.204066 
L 343.787287 204.272262 
L 344.293768 204.272262 
L 344.547009 216.169967 
L 345.306731 216.169967 
L 345.559972 210.221115 
L 345.813212 208.238164 
L 346.066453 194.357508 
L 346.319694 192.374557 
L 346.572934 192.374557 
L 346.826175 202.289311 
L 347.079416 198.32341 
L 347.332656 206.255213 
L 347.585897 208.238164 
L 348.092378 198.32341 
L 348.345619 198.32341 
L 348.59886 196.340459 
L 348.8521 192.374557 
L 349.865063 158.664393 
L 350.371544 168.579148 
L 350.624785 168.579148 
L 350.878026 170.562098 
L 351.131266 176.510951 
L 351.384507 168.579148 
L 351.637748 172.545049 
L 351.890989 162.630295 
L 352.144229 144.783738 
L 352.39747 140.817836 
L 352.650711 140.817836 
L 352.903951 138.834885 
L 353.157192 144.783738 
L 353.410433 154.698492 
L 353.916914 138.834885 
L 354.170155 142.800787 
L 354.423395 140.817836 
L 354.929877 160.647344 
L 355.183117 154.698492 
L 355.436358 144.783738 
L 355.689599 152.715541 
L 355.942839 146.766689 
L 356.19608 150.73259 
L 356.449321 148.749639 
L 356.702561 150.73259 
L 357.209043 176.510951 
L 357.715524 184.442754 
L 357.968765 176.510951 
L 358.222005 172.545049 
L 358.475246 172.545049 
L 358.728487 178.493902 
L 358.981727 164.613246 
L 359.234968 168.579148 
L 359.741449 180.476852 
L 359.99469 178.493902 
L 360.247931 168.579148 
L 360.501171 172.545049 
L 360.754412 168.579148 
L 361.007653 150.73259 
L 361.260893 156.681443 
L 361.514134 170.562098 
L 361.767375 160.647344 
L 362.020616 158.664393 
L 362.527097 162.630295 
L 362.780338 162.630295 
L 363.033578 166.596197 
L 363.286819 164.613246 
L 363.54006 164.613246 
L 363.7933 166.596197 
L 364.046541 166.596197 
L 364.299782 164.613246 
L 364.553022 166.596197 
L 364.806263 172.545049 
L 365.059504 184.442754 
L 365.312744 178.493902 
L 365.565985 176.510951 
L 365.819226 180.476852 
L 366.072466 170.562098 
L 366.325707 180.476852 
L 366.578948 176.510951 
L 366.832188 176.510951 
L 367.085429 152.715541 
L 367.33867 148.749639 
L 367.59191 154.698492 
L 367.845151 156.681443 
L 368.098392 170.562098 
L 368.351632 164.613246 
L 368.604873 174.528 
L 368.858114 174.528 
L 369.111354 176.510951 
L 369.364595 198.32341 
L 369.617836 210.221115 
L 369.871076 228.067672 
L 370.630798 206.255213 
L 370.884039 208.238164 
L 371.13728 216.169967 
L 371.39052 206.255213 
L 371.897002 220.135869 
L 372.150243 226.084721 
L 372.656724 216.169967 
L 372.909965 218.152918 
L 373.416446 202.289311 
L 373.669687 208.238164 
L 373.922927 226.084721 
L 374.176168 226.084721 
L 374.429409 224.10177 
L 374.682649 228.067672 
L 374.93589 253.846033 
L 375.189131 255.828984 
L 375.442371 237.982426 
L 375.695612 241.948328 
L 375.948853 251.863082 
L 376.455334 226.084721 
L 376.708575 224.10177 
L 376.961815 216.169967 
L 377.215056 212.204066 
L 377.974778 251.863082 
L 378.481259 239.965377 
L 378.7345 237.982426 
L 378.987741 243.931279 
L 379.240981 237.982426 
L 379.494222 237.982426 
L 379.747463 232.033574 
L 380.253944 241.948328 
L 380.507185 243.931279 
L 381.013666 251.863082 
L 381.266907 245.91423 
L 381.520147 269.709639 
L 381.773388 255.828984 
L 382.026629 249.880131 
L 382.27987 251.863082 
L 382.53311 249.880131 
L 383.039592 253.846033 
L 383.292832 257.811934 
L 383.546073 257.811934 
L 383.799314 271.69259 
L 384.052554 275.658492 
L 384.305795 285.573246 
L 384.559036 275.658492 
L 384.812276 287.556197 
L 385.065517 285.573246 
L 385.318758 281.607344 
L 385.571998 257.811934 
L 386.33172 224.10177 
L 386.584961 241.948328 
L 386.838202 243.931279 
L 387.091442 235.999475 
L 387.597924 243.931279 
L 387.851164 251.863082 
L 388.104405 253.846033 
L 388.357646 261.777836 
L 388.610886 259.794885 
L 389.117368 251.863082 
L 389.370608 255.828984 
L 389.623849 255.828984 
L 389.87709 251.863082 
L 390.13033 255.828984 
L 390.890052 255.828984 
L 391.143293 257.811934 
L 391.649775 247.89718 
L 391.903015 235.999475 
L 392.156256 232.033574 
L 392.409497 232.033574 
L 392.662737 230.050623 
L 393.169219 239.965377 
L 393.422459 237.982426 
L 393.6757 243.931279 
L 393.928941 253.846033 
L 394.182181 247.89718 
L 394.435422 245.91423 
L 394.688663 235.999475 
L 394.941903 234.016525 
L 395.448385 249.880131 
L 395.954866 245.91423 
L 396.461347 249.880131 
L 396.967829 234.016525 
L 397.221069 237.982426 
L 397.47431 237.982426 
L 397.727551 235.999475 
L 397.980791 253.846033 
L 398.234032 253.846033 
L 398.487273 239.965377 
L 398.487273 239.965377 
" clip-path="url(#p5affcf6505)" style="fill: none; stroke: #1f77b4; stroke-width: 1.5; stroke-linecap: square"/>
   </g>
   <g id="patch_3">
    <path d="M 57.6 307.584 
L 57.6 41.472 
" style="fill: none; stroke: #000000; stroke-width: 0.8; stroke-linejoin: miter; stroke-linecap: square"/>
   </g>
   <g id="patch_4">
    <path d="M 414.72 307.584 
L 414.72 41.472 
" style="fill: none; stroke: #000000; stroke-width: 0.8; stroke-linejoin: miter; stroke-linecap: square"/>
   </g>
   <g id="patch_5">
    <path d="M 57.6 307.584 
L 414.72 307.584 
" style="fill: none; stroke: #000000; stroke-width: 0.8; stroke-linejoin: miter; stroke-linecap: square"/>
   </g>
   <g id="patch_6">
    <path d="M 57.6 41.472 
L 414.72 41.472 
" style="fill: none; stroke: #000000; stroke-width: 0.8; stroke-linejoin: miter; stroke-linecap: square"/>
   </g>
   <g id="text_15">
    <!-- Simulated Anealling Cost -->
    <g transform="translate(160.8 35.472)scale(0.12 -0.12)">
     <defs>
      <path id="DejaVuSans-53" d="M 3425 4513 
L 3425 3897 
Q 3066 4069 2747 4153 
Q 2428 4238 2131 4238 
Q 1616 4238 1336 4038 
Q 1056 3838 1056 3469 
Q 1056 3159 1242 3001 
Q 1428 2844 1947 2747 
L 2328 2669 
Q 3034 2534 3370 2195 
Q 3706 1856 3706 1288 
Q 3706 609 3251 259 
Q 2797 -91 1919 -91 
Q 1588 -91 1214 -16 
Q 841 59 441 206 
L 441 856 
Q 825 641 1194 531 
Q 1563 422 1919 422 
Q 2459 422 2753 634 
Q 3047 847 3047 1241 
Q 3047 1584 2836 1778 
Q 2625 1972 2144 2069 
L 1759 2144 
Q 1053 2284 737 2584 
Q 422 2884 422 3419 
Q 422 4038 858 4394 
Q 1294 4750 2059 4750 
Q 2388 4750 2728 4690 
Q 3069 4631 3425 4513 
z
" transform="scale(0.015625)"/>
      <path id="DejaVuSans-69" d="M 603 3500 
L 1178 3500 
L 1178 0 
L 603 0 
L 603 3500 
z
M 603 4863 
L 1178 4863 
L 1178 4134 
L 603 4134 
L 603 4863 
z
" transform="scale(0.015625)"/>
      <path id="DejaVuSans-65" d="M 3597 1894 
L 3597 1613 
L 953 1613 
Q 991 1019 1311 708 
Q 1631 397 2203 397 
Q 2534 397 2845 478 
Q 3156 559 3463 722 
L 3463 178 
Q 3153 47 2828 -22 
Q 2503 -91 2169 -91 
Q 1331 -91 842 396 
Q 353 884 353 1716 
Q 353 2575 817 3079 
Q 1281 3584 2069 3584 
Q 2775 3584 3186 3129 
Q 3597 2675 3597 1894 
z
M 3022 2063 
Q 3016 2534 2758 2815 
Q 2500 3097 2075 3097 
Q 1594 3097 1305 2825 
Q 1016 2553 972 2059 
L 3022 2063 
z
" transform="scale(0.015625)"/>
      <path id="DejaVuSans-64" d="M 2906 2969 
L 2906 4863 
L 3481 4863 
L 3481 0 
L 2906 0 
L 2906 525 
Q 2725 213 2448 61 
Q 2172 -91 1784 -91 
Q 1150 -91 751 415 
Q 353 922 353 1747 
Q 353 2572 751 3078 
Q 1150 3584 1784 3584 
Q 2172 3584 2448 3432 
Q 2725 3281 2906 2969 
z
M 947 1747 
Q 947 1113 1208 752 
Q 1469 391 1925 391 
Q 2381 391 2643 752 
Q 2906 1113 2906 1747 
Q 2906 2381 2643 2742 
Q 2381 3103 1925 3103 
Q 1469 3103 1208 2742 
Q 947 2381 947 1747 
z
" transform="scale(0.015625)"/>
      <path id="DejaVuSans-41" d="M 2188 4044 
L 1331 1722 
L 3047 1722 
L 2188 4044 
z
M 1831 4666 
L 2547 4666 
L 4325 0 
L 3669 0 
L 3244 1197 
L 1141 1197 
L 716 0 
L 50 0 
L 1831 4666 
z
" transform="scale(0.015625)"/>
      <path id="DejaVuSans-67" d="M 2906 1791 
Q 2906 2416 2648 2759 
Q 2391 3103 1925 3103 
Q 1463 3103 1205 2759 
Q 947 2416 947 1791 
Q 947 1169 1205 825 
Q 1463 481 1925 481 
Q 2391 481 2648 825 
Q 2906 1169 2906 1791 
z
M 3481 434 
Q 3481 -459 3084 -895 
Q 2688 -1331 1869 -1331 
Q 1566 -1331 1297 -1286 
Q 1028 -1241 775 -1147 
L 775 -588 
Q 1028 -725 1275 -790 
Q 1522 -856 1778 -856 
Q 2344 -856 2625 -561 
Q 2906 -266 2906 331 
L 2906 616 
Q 2728 306 2450 153 
Q 2172 0 1784 0 
Q 1141 0 747 490 
Q 353 981 353 1791 
Q 353 2603 747 3093 
Q 1141 3584 1784 3584 
Q 2172 3584 2450 3431 
Q 2728 3278 2906 2969 
L 2906 3500 
L 3481 3500 
L 3481 434 
z
" transform="scale(0.015625)"/>
      <path id="DejaVuSans-43" d="M 4122 4306 
L 4122 3641 
Q 3803 3938 3442 4084 
Q 3081 4231 2675 4231 
Q 1875 4231 1450 3742 
Q 1025 3253 1025 2328 
Q 1025 1406 1450 917 
Q 1875 428 2675 428 
Q 3081 428 3442 575 
Q 3803 722 4122 1019 
L 4122 359 
Q 3791 134 3420 21 
Q 3050 -91 2638 -91 
Q 1578 -91 968 557 
Q 359 1206 359 2328 
Q 359 3453 968 4101 
Q 1578 4750 2638 4750 
Q 3056 4750 3426 4639 
Q 3797 4528 4122 4306 
z
" transform="scale(0.015625)"/>
     </defs>
     <use xlink:href="#DejaVuSans-53"/>
     <use xlink:href="#DejaVuSans-69" x="63.476562"/>
     <use xlink:href="#DejaVuSans-6d" x="91.259766"/>
     <use xlink:href="#DejaVuSans-75" x="188.671875"/>
     <use xlink:href="#DejaVuSans-6c" x="252.050781"/>
     <use xlink:href="#DejaVuSans-61" x="279.833984"/>
     <use xlink:href="#DejaVuSans-74" x="341.113281"/>
     <use xlink:href="#DejaVuSans-65" x="380.322266"/>
     <use xlink:href="#DejaVuSans-64" x="441.845703"/>
     <use xlink:href="#DejaVuSans-20" x="505.322266"/>
     <use xlink:href="#DejaVuSans-41" x="537.109375"/>
     <use xlink:href="#DejaVuSans-6e" x="605.517578"/>
     <use xlink:href="#DejaVuSans-65" x="668.896484"/>
     <use xlink:href="#DejaVuSans-61" x="730.419922"/>
     <use xlink:href="#DejaVuSans-6c" x="791.699219"/>
     <use xlink:href="#DejaVuSans-6c" x="819.482422"/>
     <use xlink:href="#DejaVuSans-69" x="847.265625"/>
     <use xlink:href="#DejaVuSans-6e" x="875.048828"/>
     <use xlink:href="#DejaVuSans-67" x="938.427734"/>
     <use xlink:href="#DejaVuSans-20" x="1001.904297"/>
     <use xlink:href="#DejaVuSans-43" x="1033.691406"/>
     <use xlink:href="#DejaVuSans-6f" x="1103.515625"/>
     <use xlink:href="#DejaVuSans-73" x="1164.697266"/>
     <use xlink:href="#DejaVuSans-74" x="1216.796875"/>
    </g>
   </g>
  </g>
 </g>
 <defs>
  <clipPath id="p5affcf6505">
   <rect x="57.6" y="41.472" width="357.12" height="266.112"/>
  </clipPath>
 </defs>
</svg>
