<?xml version="1.0" encoding="utf-8" standalone="no"?>
<!DOCTYPE svg PUBLIC "-//W3C//DTD SVG 1.1//EN"
  "http://www.w3.org/Graphics/SVG/1.1/DTD/svg11.dtd">
<svg xmlns:xlink="http://www.w3.org/1999/xlink" width="460.8pt" height="345.6pt" viewBox="0 0 460.8 345.6" xmlns="http://www.w3.org/2000/svg" version="1.1">
 <metadata>
  <rdf:RDF xmlns:dc="http://purl.org/dc/elements/1.1/" xmlns:cc="http://creativecommons.org/ns#" xmlns:rdf="http://www.w3.org/1999/02/22-rdf-syntax-ns#">
   <cc:Work>
    <dc:type rdf:resource="http://purl.org/dc/dcmitype/StillImage"/>
    <dc:date>2022-06-01T08:06:31.664799</dc:date>
    <dc:format>image/svg+xml</dc:format>
    <dc:creator>
     <cc:Agent>
      <dc:title>Matplotlib v3.5.1, https://matplotlib.org/</dc:title>
     </cc:Agent>
    </dc:creator>
   </cc:Work>
  </rdf:RDF>
 </metadata>
 <defs>
  <style type="text/css">*{stroke-linejoin: round; stroke-linecap: butt}</style>
 </defs>
 <g id="figure_1">
  <g id="patch_1">
   <path d="M 0 345.6 
L 460.8 345.6 
L 460.8 0 
L 0 0 
z
" style="fill: #ffffff"/>
  </g>
  <g id="axes_1">
   <g id="patch_2">
    <path d="M 57.6 307.584 
L 414.72 307.584 
L 414.72 41.472 
L 57.6 41.472 
z
" style="fill: #ffffff"/>
   </g>
   <g id="matplotlib.axis_1">
    <g id="xtick_1">
     <g id="line2d_1">
      <defs>
       <path id="m0f0bb5e684" d="M 0 0 
L 0 3.5 
" style="stroke: #000000; stroke-width: 0.8"/>
      </defs>
      <g>
       <use xlink:href="#m0f0bb5e684" x="73.832727" y="307.584" style="stroke: #000000; stroke-width: 0.8"/>
      </g>
     </g>
     <g id="text_1">
      <!-- 0 -->
      <g transform="translate(70.651477 322.182437)scale(0.1 -0.1)">
       <defs>
        <path id="DejaVuSans-30" d="M 2034 4250 
Q 1547 4250 1301 3770 
Q 1056 3291 1056 2328 
Q 1056 1369 1301 889 
Q 1547 409 2034 409 
Q 2525 409 2770 889 
Q 3016 1369 3016 2328 
Q 3016 3291 2770 3770 
Q 2525 4250 2034 4250 
z
M 2034 4750 
Q 2819 4750 3233 4129 
Q 3647 3509 3647 2328 
Q 3647 1150 3233 529 
Q 2819 -91 2034 -91 
Q 1250 -91 836 529 
Q 422 1150 422 2328 
Q 422 3509 836 4129 
Q 1250 4750 2034 4750 
z
" transform="scale(0.015625)"/>
       </defs>
       <use xlink:href="#DejaVuSans-30"/>
      </g>
     </g>
    </g>
    <g id="xtick_2">
     <g id="line2d_2">
      <g>
       <use xlink:href="#m0f0bb5e684" x="147.085107" y="307.584" style="stroke: #000000; stroke-width: 0.8"/>
      </g>
     </g>
     <g id="text_2">
      <!-- 500 -->
      <g transform="translate(137.541357 322.182437)scale(0.1 -0.1)">
       <defs>
        <path id="DejaVuSans-35" d="M 691 4666 
L 3169 4666 
L 3169 4134 
L 1269 4134 
L 1269 2991 
Q 1406 3038 1543 3061 
Q 1681 3084 1819 3084 
Q 2600 3084 3056 2656 
Q 3513 2228 3513 1497 
Q 3513 744 3044 326 
Q 2575 -91 1722 -91 
Q 1428 -91 1123 -41 
Q 819 9 494 109 
L 494 744 
Q 775 591 1075 516 
Q 1375 441 1709 441 
Q 2250 441 2565 725 
Q 2881 1009 2881 1497 
Q 2881 1984 2565 2268 
Q 2250 2553 1709 2553 
Q 1456 2553 1204 2497 
Q 953 2441 691 2322 
L 691 4666 
z
" transform="scale(0.015625)"/>
       </defs>
       <use xlink:href="#DejaVuSans-35"/>
       <use xlink:href="#DejaVuSans-30" x="63.623047"/>
       <use xlink:href="#DejaVuSans-30" x="127.246094"/>
      </g>
     </g>
    </g>
    <g id="xtick_3">
     <g id="line2d_3">
      <g>
       <use xlink:href="#m0f0bb5e684" x="220.337486" y="307.584" style="stroke: #000000; stroke-width: 0.8"/>
      </g>
     </g>
     <g id="text_3">
      <!-- 1000 -->
      <g transform="translate(207.612486 322.182437)scale(0.1 -0.1)">
       <defs>
        <path id="DejaVuSans-31" d="M 794 531 
L 1825 531 
L 1825 4091 
L 703 3866 
L 703 4441 
L 1819 4666 
L 2450 4666 
L 2450 531 
L 3481 531 
L 3481 0 
L 794 0 
L 794 531 
z
" transform="scale(0.015625)"/>
       </defs>
       <use xlink:href="#DejaVuSans-31"/>
       <use xlink:href="#DejaVuSans-30" x="63.623047"/>
       <use xlink:href="#DejaVuSans-30" x="127.246094"/>
       <use xlink:href="#DejaVuSans-30" x="190.869141"/>
      </g>
     </g>
    </g>
    <g id="xtick_4">
     <g id="line2d_4">
      <g>
       <use xlink:href="#m0f0bb5e684" x="293.589865" y="307.584" style="stroke: #000000; stroke-width: 0.8"/>
      </g>
     </g>
     <g id="text_4">
      <!-- 1500 -->
      <g transform="translate(280.864865 322.182437)scale(0.1 -0.1)">
       <use xlink:href="#DejaVuSans-31"/>
       <use xlink:href="#DejaVuSans-35" x="63.623047"/>
       <use xlink:href="#DejaVuSans-30" x="127.246094"/>
       <use xlink:href="#DejaVuSans-30" x="190.869141"/>
      </g>
     </g>
    </g>
    <g id="xtick_5">
     <g id="line2d_5">
      <g>
       <use xlink:href="#m0f0bb5e684" x="366.842245" y="307.584" style="stroke: #000000; stroke-width: 0.8"/>
      </g>
     </g>
     <g id="text_5">
      <!-- 2000 -->
      <g transform="translate(354.117245 322.182437)scale(0.1 -0.1)">
       <defs>
        <path id="DejaVuSans-32" d="M 1228 531 
L 3431 531 
L 3431 0 
L 469 0 
L 469 531 
Q 828 903 1448 1529 
Q 2069 2156 2228 2338 
Q 2531 2678 2651 2914 
Q 2772 3150 2772 3378 
Q 2772 3750 2511 3984 
Q 2250 4219 1831 4219 
Q 1534 4219 1204 4116 
Q 875 4013 500 3803 
L 500 4441 
Q 881 4594 1212 4672 
Q 1544 4750 1819 4750 
Q 2544 4750 2975 4387 
Q 3406 4025 3406 3419 
Q 3406 3131 3298 2873 
Q 3191 2616 2906 2266 
Q 2828 2175 2409 1742 
Q 1991 1309 1228 531 
z
" transform="scale(0.015625)"/>
       </defs>
       <use xlink:href="#DejaVuSans-32"/>
       <use xlink:href="#DejaVuSans-30" x="63.623047"/>
       <use xlink:href="#DejaVuSans-30" x="127.246094"/>
       <use xlink:href="#DejaVuSans-30" x="190.869141"/>
      </g>
     </g>
    </g>
    <g id="text_6">
     <!-- num swaps -->
     <g transform="translate(207.826406 335.860562)scale(0.1 -0.1)">
      <defs>
       <path id="DejaVuSans-6e" d="M 3513 2113 
L 3513 0 
L 2938 0 
L 2938 2094 
Q 2938 2591 2744 2837 
Q 2550 3084 2163 3084 
Q 1697 3084 1428 2787 
Q 1159 2491 1159 1978 
L 1159 0 
L 581 0 
L 581 3500 
L 1159 3500 
L 1159 2956 
Q 1366 3272 1645 3428 
Q 1925 3584 2291 3584 
Q 2894 3584 3203 3211 
Q 3513 2838 3513 2113 
z
" transform="scale(0.015625)"/>
       <path id="DejaVuSans-75" d="M 544 1381 
L 544 3500 
L 1119 3500 
L 1119 1403 
Q 1119 906 1312 657 
Q 1506 409 1894 409 
Q 2359 409 2629 706 
Q 2900 1003 2900 1516 
L 2900 3500 
L 3475 3500 
L 3475 0 
L 2900 0 
L 2900 538 
Q 2691 219 2414 64 
Q 2138 -91 1772 -91 
Q 1169 -91 856 284 
Q 544 659 544 1381 
z
M 1991 3584 
L 1991 3584 
z
" transform="scale(0.015625)"/>
       <path id="DejaVuSans-6d" d="M 3328 2828 
Q 3544 3216 3844 3400 
Q 4144 3584 4550 3584 
Q 5097 3584 5394 3201 
Q 5691 2819 5691 2113 
L 5691 0 
L 5113 0 
L 5113 2094 
Q 5113 2597 4934 2840 
Q 4756 3084 4391 3084 
Q 3944 3084 3684 2787 
Q 3425 2491 3425 1978 
L 3425 0 
L 2847 0 
L 2847 2094 
Q 2847 2600 2669 2842 
Q 2491 3084 2119 3084 
Q 1678 3084 1418 2786 
Q 1159 2488 1159 1978 
L 1159 0 
L 581 0 
L 581 3500 
L 1159 3500 
L 1159 2956 
Q 1356 3278 1631 3431 
Q 1906 3584 2284 3584 
Q 2666 3584 2933 3390 
Q 3200 3197 3328 2828 
z
" transform="scale(0.015625)"/>
       <path id="DejaVuSans-20" transform="scale(0.015625)"/>
       <path id="DejaVuSans-73" d="M 2834 3397 
L 2834 2853 
Q 2591 2978 2328 3040 
Q 2066 3103 1784 3103 
Q 1356 3103 1142 2972 
Q 928 2841 928 2578 
Q 928 2378 1081 2264 
Q 1234 2150 1697 2047 
L 1894 2003 
Q 2506 1872 2764 1633 
Q 3022 1394 3022 966 
Q 3022 478 2636 193 
Q 2250 -91 1575 -91 
Q 1294 -91 989 -36 
Q 684 19 347 128 
L 347 722 
Q 666 556 975 473 
Q 1284 391 1588 391 
Q 1994 391 2212 530 
Q 2431 669 2431 922 
Q 2431 1156 2273 1281 
Q 2116 1406 1581 1522 
L 1381 1569 
Q 847 1681 609 1914 
Q 372 2147 372 2553 
Q 372 3047 722 3315 
Q 1072 3584 1716 3584 
Q 2034 3584 2315 3537 
Q 2597 3491 2834 3397 
z
" transform="scale(0.015625)"/>
       <path id="DejaVuSans-77" d="M 269 3500 
L 844 3500 
L 1563 769 
L 2278 3500 
L 2956 3500 
L 3675 769 
L 4391 3500 
L 4966 3500 
L 4050 0 
L 3372 0 
L 2619 2869 
L 1863 0 
L 1184 0 
L 269 3500 
z
" transform="scale(0.015625)"/>
       <path id="DejaVuSans-61" d="M 2194 1759 
Q 1497 1759 1228 1600 
Q 959 1441 959 1056 
Q 959 750 1161 570 
Q 1363 391 1709 391 
Q 2188 391 2477 730 
Q 2766 1069 2766 1631 
L 2766 1759 
L 2194 1759 
z
M 3341 1997 
L 3341 0 
L 2766 0 
L 2766 531 
Q 2569 213 2275 61 
Q 1981 -91 1556 -91 
Q 1019 -91 701 211 
Q 384 513 384 1019 
Q 384 1609 779 1909 
Q 1175 2209 1959 2209 
L 2766 2209 
L 2766 2266 
Q 2766 2663 2505 2880 
Q 2244 3097 1772 3097 
Q 1472 3097 1187 3025 
Q 903 2953 641 2809 
L 641 3341 
Q 956 3463 1253 3523 
Q 1550 3584 1831 3584 
Q 2591 3584 2966 3190 
Q 3341 2797 3341 1997 
z
" transform="scale(0.015625)"/>
       <path id="DejaVuSans-70" d="M 1159 525 
L 1159 -1331 
L 581 -1331 
L 581 3500 
L 1159 3500 
L 1159 2969 
Q 1341 3281 1617 3432 
Q 1894 3584 2278 3584 
Q 2916 3584 3314 3078 
Q 3713 2572 3713 1747 
Q 3713 922 3314 415 
Q 2916 -91 2278 -91 
Q 1894 -91 1617 61 
Q 1341 213 1159 525 
z
M 3116 1747 
Q 3116 2381 2855 2742 
Q 2594 3103 2138 3103 
Q 1681 3103 1420 2742 
Q 1159 2381 1159 1747 
Q 1159 1113 1420 752 
Q 1681 391 2138 391 
Q 2594 391 2855 752 
Q 3116 1113 3116 1747 
z
" transform="scale(0.015625)"/>
      </defs>
      <use xlink:href="#DejaVuSans-6e"/>
      <use xlink:href="#DejaVuSans-75" x="63.378906"/>
      <use xlink:href="#DejaVuSans-6d" x="126.757812"/>
      <use xlink:href="#DejaVuSans-20" x="224.169922"/>
      <use xlink:href="#DejaVuSans-73" x="255.957031"/>
      <use xlink:href="#DejaVuSans-77" x="308.056641"/>
      <use xlink:href="#DejaVuSans-61" x="389.84375"/>
      <use xlink:href="#DejaVuSans-70" x="451.123047"/>
      <use xlink:href="#DejaVuSans-73" x="514.599609"/>
     </g>
    </g>
   </g>
   <g id="matplotlib.axis_2">
    <g id="ytick_1">
     <g id="line2d_6">
      <defs>
       <path id="mfe4e537bee" d="M 0 0 
L -3.5 0 
" style="stroke: #000000; stroke-width: 0.8"/>
      </defs>
      <g>
       <use xlink:href="#mfe4e537bee" x="57.6" y="307.008" style="stroke: #000000; stroke-width: 0.8"/>
      </g>
     </g>
     <g id="text_7">
      <!-- 1000 -->
      <g transform="translate(25.15 310.807219)scale(0.1 -0.1)">
       <use xlink:href="#DejaVuSans-31"/>
       <use xlink:href="#DejaVuSans-30" x="63.623047"/>
       <use xlink:href="#DejaVuSans-30" x="127.246094"/>
       <use xlink:href="#DejaVuSans-30" x="190.869141"/>
      </g>
     </g>
    </g>
    <g id="ytick_2">
     <g id="line2d_7">
      <g>
       <use xlink:href="#mfe4e537bee" x="57.6" y="260.928" style="stroke: #000000; stroke-width: 0.8"/>
      </g>
     </g>
     <g id="text_8">
      <!-- 1100 -->
      <g transform="translate(25.15 264.727219)scale(0.1 -0.1)">
       <use xlink:href="#DejaVuSans-31"/>
       <use xlink:href="#DejaVuSans-31" x="63.623047"/>
       <use xlink:href="#DejaVuSans-30" x="127.246094"/>
       <use xlink:href="#DejaVuSans-30" x="190.869141"/>
      </g>
     </g>
    </g>
    <g id="ytick_3">
     <g id="line2d_8">
      <g>
       <use xlink:href="#mfe4e537bee" x="57.6" y="214.848" style="stroke: #000000; stroke-width: 0.8"/>
      </g>
     </g>
     <g id="text_9">
      <!-- 1200 -->
      <g transform="translate(25.15 218.647219)scale(0.1 -0.1)">
       <use xlink:href="#DejaVuSans-31"/>
       <use xlink:href="#DejaVuSans-32" x="63.623047"/>
       <use xlink:href="#DejaVuSans-30" x="127.246094"/>
       <use xlink:href="#DejaVuSans-30" x="190.869141"/>
      </g>
     </g>
    </g>
    <g id="ytick_4">
     <g id="line2d_9">
      <g>
       <use xlink:href="#mfe4e537bee" x="57.6" y="168.768" style="stroke: #000000; stroke-width: 0.8"/>
      </g>
     </g>
     <g id="text_10">
      <!-- 1300 -->
      <g transform="translate(25.15 172.567219)scale(0.1 -0.1)">
       <defs>
        <path id="DejaVuSans-33" d="M 2597 2516 
Q 3050 2419 3304 2112 
Q 3559 1806 3559 1356 
Q 3559 666 3084 287 
Q 2609 -91 1734 -91 
Q 1441 -91 1130 -33 
Q 819 25 488 141 
L 488 750 
Q 750 597 1062 519 
Q 1375 441 1716 441 
Q 2309 441 2620 675 
Q 2931 909 2931 1356 
Q 2931 1769 2642 2001 
Q 2353 2234 1838 2234 
L 1294 2234 
L 1294 2753 
L 1863 2753 
Q 2328 2753 2575 2939 
Q 2822 3125 2822 3475 
Q 2822 3834 2567 4026 
Q 2313 4219 1838 4219 
Q 1578 4219 1281 4162 
Q 984 4106 628 3988 
L 628 4550 
Q 988 4650 1302 4700 
Q 1616 4750 1894 4750 
Q 2613 4750 3031 4423 
Q 3450 4097 3450 3541 
Q 3450 3153 3228 2886 
Q 3006 2619 2597 2516 
z
" transform="scale(0.015625)"/>
       </defs>
       <use xlink:href="#DejaVuSans-31"/>
       <use xlink:href="#DejaVuSans-33" x="63.623047"/>
       <use xlink:href="#DejaVuSans-30" x="127.246094"/>
       <use xlink:href="#DejaVuSans-30" x="190.869141"/>
      </g>
     </g>
    </g>
    <g id="ytick_5">
     <g id="line2d_10">
      <g>
       <use xlink:href="#mfe4e537bee" x="57.6" y="122.688" style="stroke: #000000; stroke-width: 0.8"/>
      </g>
     </g>
     <g id="text_11">
      <!-- 1400 -->
      <g transform="translate(25.15 126.487219)scale(0.1 -0.1)">
       <defs>
        <path id="DejaVuSans-34" d="M 2419 4116 
L 825 1625 
L 2419 1625 
L 2419 4116 
z
M 2253 4666 
L 3047 4666 
L 3047 1625 
L 3713 1625 
L 3713 1100 
L 3047 1100 
L 3047 0 
L 2419 0 
L 2419 1100 
L 313 1100 
L 313 1709 
L 2253 4666 
z
" transform="scale(0.015625)"/>
       </defs>
       <use xlink:href="#DejaVuSans-31"/>
       <use xlink:href="#DejaVuSans-34" x="63.623047"/>
       <use xlink:href="#DejaVuSans-30" x="127.246094"/>
       <use xlink:href="#DejaVuSans-30" x="190.869141"/>
      </g>
     </g>
    </g>
    <g id="ytick_6">
     <g id="line2d_11">
      <g>
       <use xlink:href="#mfe4e537bee" x="57.6" y="76.608" style="stroke: #000000; stroke-width: 0.8"/>
      </g>
     </g>
     <g id="text_12">
      <!-- 1500 -->
      <g transform="translate(25.15 80.407219)scale(0.1 -0.1)">
       <use xlink:href="#DejaVuSans-31"/>
       <use xlink:href="#DejaVuSans-35" x="63.623047"/>
       <use xlink:href="#DejaVuSans-30" x="127.246094"/>
       <use xlink:href="#DejaVuSans-30" x="190.869141"/>
      </g>
     </g>
    </g>
    <g id="text_13">
     <!-- total cost -->
     <g transform="translate(19.070312 197.923313)rotate(-90)scale(0.1 -0.1)">
      <defs>
       <path id="DejaVuSans-74" d="M 1172 4494 
L 1172 3500 
L 2356 3500 
L 2356 3053 
L 1172 3053 
L 1172 1153 
Q 1172 725 1289 603 
Q 1406 481 1766 481 
L 2356 481 
L 2356 0 
L 1766 0 
Q 1100 0 847 248 
Q 594 497 594 1153 
L 594 3053 
L 172 3053 
L 172 3500 
L 594 3500 
L 594 4494 
L 1172 4494 
z
" transform="scale(0.015625)"/>
       <path id="DejaVuSans-6f" d="M 1959 3097 
Q 1497 3097 1228 2736 
Q 959 2375 959 1747 
Q 959 1119 1226 758 
Q 1494 397 1959 397 
Q 2419 397 2687 759 
Q 2956 1122 2956 1747 
Q 2956 2369 2687 2733 
Q 2419 3097 1959 3097 
z
M 1959 3584 
Q 2709 3584 3137 3096 
Q 3566 2609 3566 1747 
Q 3566 888 3137 398 
Q 2709 -91 1959 -91 
Q 1206 -91 779 398 
Q 353 888 353 1747 
Q 353 2609 779 3096 
Q 1206 3584 1959 3584 
z
" transform="scale(0.015625)"/>
       <path id="DejaVuSans-6c" d="M 603 4863 
L 1178 4863 
L 1178 0 
L 603 0 
L 603 4863 
z
" transform="scale(0.015625)"/>
       <path id="DejaVuSans-63" d="M 3122 3366 
L 3122 2828 
Q 2878 2963 2633 3030 
Q 2388 3097 2138 3097 
Q 1578 3097 1268 2742 
Q 959 2388 959 1747 
Q 959 1106 1268 751 
Q 1578 397 2138 397 
Q 2388 397 2633 464 
Q 2878 531 3122 666 
L 3122 134 
Q 2881 22 2623 -34 
Q 2366 -91 2075 -91 
Q 1284 -91 818 406 
Q 353 903 353 1747 
Q 353 2603 823 3093 
Q 1294 3584 2113 3584 
Q 2378 3584 2631 3529 
Q 2884 3475 3122 3366 
z
" transform="scale(0.015625)"/>
      </defs>
      <use xlink:href="#DejaVuSans-74"/>
      <use xlink:href="#DejaVuSans-6f" x="39.208984"/>
      <use xlink:href="#DejaVuSans-74" x="100.390625"/>
      <use xlink:href="#DejaVuSans-61" x="139.599609"/>
      <use xlink:href="#DejaVuSans-6c" x="200.878906"/>
      <use xlink:href="#DejaVuSans-20" x="228.662109"/>
      <use xlink:href="#DejaVuSans-63" x="260.449219"/>
      <use xlink:href="#DejaVuSans-6f" x="315.429688"/>
      <use xlink:href="#DejaVuSans-73" x="376.611328"/>
      <use xlink:href="#DejaVuSans-74" x="428.710938"/>
     </g>
    </g>
   </g>
   <g id="line2d_12">
    <path d="M 73.832727 134.208 
L 74.125737 134.208 
L 74.418746 131.4432 
L 74.711756 114.3936 
L 75.004765 114.3936 
L 75.297775 103.3344 
L 75.590784 108.4032 
L 75.883794 108.4032 
L 76.176803 104.7168 
L 76.762822 90.8928 
L 77.055832 93.6576 
L 77.348841 108.4032 
L 77.641851 94.5792 
L 77.934861 92.2752 
L 78.22787 95.5008 
L 78.52088 101.0304 
L 78.813889 104.256 
L 79.106899 102.4128 
L 79.399908 95.9616 
L 79.692918 97.344 
L 79.985927 95.5008 
L 80.278937 95.5008 
L 80.864956 118.5408 
L 81.157965 114.8544 
L 81.450975 103.7952 
L 81.743984 106.0992 
L 82.036994 97.8048 
L 82.330003 114.8544 
L 82.623013 110.2464 
L 82.916022 89.9712 
L 83.209032 85.3632 
L 83.502041 98.2656 
L 83.795051 80.2944 
L 84.08806 85.3632 
L 84.38107 112.0896 
L 84.674079 125.4528 
L 84.967089 107.0208 
L 85.260098 141.12 
L 85.553108 131.904 
L 85.846117 133.7472 
L 86.139127 130.9824 
L 86.432137 143.424 
L 86.725146 136.0512 
L 87.018156 133.2864 
L 87.311165 136.9728 
L 87.604175 130.9824 
L 88.190194 110.2464 
L 88.483203 121.3056 
L 88.776213 117.6192 
L 89.069222 110.7072 
L 89.362232 109.7856 
L 89.655241 114.3936 
L 89.948251 124.5312 
L 90.24126 124.992 
L 90.53427 128.2176 
L 91.120289 130.9824 
L 91.413298 116.2368 
L 91.706308 113.9328 
L 91.999317 109.7856 
L 92.292327 130.9824 
L 92.878346 113.472 
L 93.171355 120.384 
L 93.757374 148.4928 
L 94.050384 144.8064 
L 94.343394 151.2576 
L 94.636403 153.1008 
L 94.929413 157.7088 
L 95.222422 151.7184 
L 95.515432 151.7184 
L 95.808441 137.4336 
L 96.39446 167.3856 
L 96.68747 151.7184 
L 97.273489 155.8656 
L 97.566498 142.0416 
L 97.859508 154.0224 
L 98.152517 160.4736 
L 98.445527 154.944 
L 98.738536 151.7184 
L 99.910574 119.9232 
L 100.203584 110.7072 
L 100.496593 105.1776 
L 100.789603 95.5008 
L 101.082612 94.5792 
L 101.375622 90.8928 
L 101.668631 89.5104 
L 101.961641 97.8048 
L 102.25465 88.5888 
L 102.54766 91.3536 
L 102.84067 113.0112 
L 103.426689 125.4528 
L 103.719698 133.2864 
L 104.012708 144.3456 
L 104.305717 140.6592 
L 104.598727 143.8848 
L 104.891736 153.5616 
L 105.184746 136.9728 
L 105.477755 140.1984 
L 105.770765 154.944 
L 106.063774 154.4832 
L 106.356784 158.6304 
L 106.649793 143.8848 
L 106.942803 150.336 
L 107.235812 148.4928 
L 107.528822 148.4928 
L 108.114841 166.464 
L 108.40785 145.2672 
L 108.70086 142.5024 
L 109.286879 151.2576 
L 109.579888 140.1984 
L 110.165907 157.7088 
L 110.458917 164.16 
L 110.751926 160.4736 
L 111.044936 153.1008 
L 111.337946 162.7776 
L 111.923965 149.4144 
L 112.216974 134.6688 
L 112.509984 130.9824 
L 112.802993 137.8944 
L 113.096003 142.0416 
L 113.389012 142.0416 
L 113.682022 137.4336 
L 113.975031 137.4336 
L 114.268041 127.7568 
L 114.85406 120.8448 
L 115.147069 118.08 
L 115.440079 119.4624 
L 115.733088 134.208 
L 116.319107 121.7664 
L 116.612117 110.7072 
L 117.198136 110.7072 
L 117.491145 77.0688 
L 118.077164 96.4224 
L 118.370174 97.8048 
L 118.663183 82.1376 
L 118.956193 96.8832 
L 119.249202 99.1872 
L 120.128231 119.0016 
L 120.421241 119.0016 
L 120.71425 109.7856 
L 121.00726 113.0112 
L 121.300269 117.6192 
L 121.593279 110.2464 
L 121.886288 116.6976 
L 122.179298 118.5408 
L 122.472307 155.8656 
L 122.765317 154.944 
L 123.058326 157.248 
L 123.351336 162.3168 
L 123.644345 150.7968 
L 123.937355 154.0224 
L 124.230364 160.0128 
L 124.816383 190.8864 
L 125.109393 193.1904 
L 125.402402 196.8768 
L 125.695412 204.2496 
L 125.988421 201.4848 
L 126.57444 174.7584 
L 126.86745 168.3072 
L 127.160459 166.9248 
L 127.453469 160.0128 
L 127.746479 160.9344 
L 128.332498 144.8064 
L 128.625507 128.6784 
L 128.918517 121.3056 
L 129.211526 121.3056 
L 129.504536 132.3648 
L 130.090555 119.4624 
L 130.383564 102.4128 
L 130.969583 104.256 
L 131.555602 117.1584 
L 131.848612 116.2368 
L 132.141621 124.5312 
L 132.434631 123.1488 
L 132.72764 118.08 
L 133.02065 115.3152 
L 133.313659 124.5312 
L 133.606669 128.2176 
L 133.899678 125.9136 
L 134.485697 137.8944 
L 134.778707 135.1296 
L 135.071716 137.8944 
L 135.364726 135.1296 
L 135.657735 141.5808 
L 135.950745 139.7376 
L 136.243755 145.728 
L 136.536764 147.5712 
L 136.829774 130.9824 
L 137.122783 135.5904 
L 137.415793 148.032 
L 137.708802 152.64 
L 138.001812 159.0912 
L 138.294821 157.7088 
L 138.587831 155.4048 
L 138.88084 157.7088 
L 139.17385 155.4048 
L 139.466859 156.3264 
L 140.052878 172.9152 
L 140.345888 171.072 
L 140.638897 153.1008 
L 140.931907 158.1696 
L 141.224916 154.4832 
L 141.517926 154.4832 
L 141.810935 156.3264 
L 142.103945 154.4832 
L 142.396954 151.2576 
L 142.689964 157.7088 
L 143.275983 128.6784 
L 143.568992 129.6 
L 143.862002 117.6192 
L 144.155011 116.2368 
L 144.448021 102.4128 
L 144.741031 101.4912 
L 145.03404 110.7072 
L 145.620059 123.1488 
L 145.913069 101.0304 
L 147.085107 86.7456 
L 147.378116 96.8832 
L 147.671126 102.4128 
L 147.964135 98.7264 
L 148.257145 84.4416 
L 148.550154 104.256 
L 148.843164 99.1872 
L 149.136173 102.4128 
L 149.722192 98.7264 
L 150.015202 95.04 
L 150.601221 95.04 
L 151.18724 118.5408 
L 151.480249 117.1584 
L 151.773259 112.0896 
L 152.066268 112.0896 
L 152.359278 106.56 
L 152.652287 74.7648 
L 152.945297 89.0496 
L 153.238307 94.1184 
L 153.531316 89.0496 
L 153.824326 81.216 
L 154.117335 85.824 
L 154.410345 107.9424 
L 154.703354 96.4224 
L 155.289373 106.56 
L 156.168402 70.1568 
L 156.461411 72.4608 
L 156.754421 76.1472 
L 157.04743 86.2848 
L 157.34044 102.8736 
L 157.633449 95.9616 
L 157.926459 98.7264 
L 158.219468 80.7552 
L 158.512478 87.2064 
L 158.805487 86.7456 
L 159.098497 67.8528 
L 159.684516 61.8624 
L 159.977525 53.568 
L 160.270535 64.6272 
L 160.563544 67.392 
L 160.856554 67.8528 
L 161.149564 77.5296 
L 161.442573 77.0688 
L 161.735583 81.6768 
L 162.028592 95.04 
L 162.321602 91.3536 
L 162.614611 81.6768 
L 162.907621 94.5792 
L 163.20063 95.9616 
L 163.49364 95.9616 
L 163.786649 88.128 
L 164.079659 90.8928 
L 164.372668 91.8144 
L 164.665678 101.4912 
L 164.958687 95.5008 
L 165.251697 102.8736 
L 165.544706 105.1776 
L 165.837716 118.08 
L 166.130725 117.1584 
L 166.423735 115.776 
L 166.716744 126.3744 
L 167.009754 118.5408 
L 167.302763 120.384 
L 167.595773 107.9424 
L 167.888782 110.7072 
L 168.181792 112.0896 
L 168.474801 103.7952 
L 169.06082 111.168 
L 169.35383 111.6288 
L 169.64684 110.7072 
L 169.939849 113.472 
L 170.232859 111.6288 
L 170.525868 107.4816 
L 170.818878 109.3248 
L 171.111887 121.3056 
L 171.404897 113.472 
L 171.697906 119.9232 
L 171.990916 113.9328 
L 172.283925 130.9824 
L 172.576935 129.1392 
L 172.869944 128.6784 
L 173.162954 124.992 
L 173.455963 127.7568 
L 173.748973 126.8352 
L 174.041982 128.2176 
L 174.334992 124.0704 
L 174.628001 137.4336 
L 174.921011 132.8256 
L 175.21402 139.2768 
L 175.50703 139.2768 
L 175.800039 133.2864 
L 176.093049 135.5904 
L 176.386058 135.5904 
L 176.679068 125.9136 
L 176.972077 123.1488 
L 177.265087 125.4528 
L 178.144116 97.8048 
L 178.437125 94.1184 
L 178.730135 104.256 
L 179.023144 93.1968 
L 179.609163 53.568 
L 180.195182 87.6672 
L 180.488192 101.0304 
L 180.781201 122.688 
L 181.074211 120.8448 
L 181.36722 122.688 
L 181.953239 93.1968 
L 182.246249 108.864 
L 182.539258 96.8832 
L 183.125277 107.9424 
L 183.418287 105.6384 
L 183.711296 101.0304 
L 184.004306 118.5408 
L 184.297315 112.0896 
L 184.590325 117.6192 
L 185.469353 110.2464 
L 185.762363 109.3248 
L 186.055372 102.8736 
L 186.348382 107.4816 
L 186.641392 106.56 
L 186.934401 98.2656 
L 187.227411 95.5008 
L 187.52042 107.9424 
L 187.81343 105.1776 
L 188.106439 114.3936 
L 188.399449 113.472 
L 188.692458 121.3056 
L 188.985468 122.2272 
L 189.571487 119.0016 
L 189.864496 132.3648 
L 190.157506 133.7472 
L 190.450515 136.9728 
L 190.743525 125.9136 
L 191.036534 133.2864 
L 191.329544 136.0512 
L 191.622553 154.944 
L 191.915563 155.4048 
L 192.208572 155.4048 
L 192.501582 154.944 
L 192.794591 147.1104 
L 193.087601 153.1008 
L 193.67362 122.688 
L 193.966629 127.296 
L 194.259639 120.8448 
L 194.552649 129.1392 
L 194.845658 125.9136 
L 195.138668 131.4432 
L 195.724687 135.1296 
L 196.017696 133.2864 
L 196.310706 133.2864 
L 196.603715 134.208 
L 196.896725 136.0512 
L 197.189734 143.424 
L 197.482744 162.3168 
L 197.775753 171.072 
L 198.068763 171.9936 
L 198.361772 182.1312 
L 198.654782 159.0912 
L 198.947791 151.7184 
L 199.53381 151.7184 
L 199.82682 149.4144 
L 200.119829 152.64 
L 200.412839 154.4832 
L 200.705848 148.032 
L 200.998858 127.7568 
L 201.291867 115.776 
L 201.877886 126.3744 
L 202.170896 122.688 
L 202.463905 111.168 
L 202.756915 113.9328 
L 203.049925 114.3936 
L 203.342934 116.2368 
L 203.635944 116.2368 
L 203.928953 118.08 
L 204.221963 98.2656 
L 204.514972 98.7264 
L 204.807982 102.8736 
L 205.100991 97.344 
L 205.394001 100.1088 
L 205.68701 77.9904 
L 205.98002 76.1472 
L 206.273029 83.52 
L 206.566039 73.8432 
L 206.859048 72 
L 207.152058 83.0592 
L 207.445067 82.5984 
L 207.738077 71.5392 
L 208.324096 92.736 
L 208.617105 95.04 
L 208.910115 103.7952 
L 209.203124 90.8928 
L 209.496134 107.0208 
L 209.789143 109.3248 
L 210.082153 117.1584 
L 210.668172 146.6496 
L 210.961181 135.1296 
L 211.254191 138.3552 
L 211.547201 148.4928 
L 211.84021 146.1888 
L 212.13322 130.5216 
L 212.719239 161.3952 
L 213.305258 165.0816 
L 213.598267 154.0224 
L 214.184286 154.0224 
L 214.477296 150.336 
L 214.770305 144.8064 
L 215.063315 148.4928 
L 215.356324 149.4144 
L 215.942343 183.0528 
L 216.235353 184.896 
L 216.528362 171.5328 
L 217.407391 160.9344 
L 217.7004 149.4144 
L 217.99341 151.2576 
L 218.286419 160.4736 
L 218.872438 156.3264 
L 219.751467 162.3168 
L 220.044477 159.552 
L 220.337486 158.6304 
L 220.630496 159.552 
L 220.923505 145.728 
L 221.216515 143.8848 
L 221.509524 139.2768 
L 221.802534 127.7568 
L 222.095543 124.992 
L 222.388553 115.776 
L 222.681562 116.6976 
L 222.974572 120.8448 
L 223.267581 120.8448 
L 223.8536 130.5216 
L 224.14661 121.3056 
L 224.439619 120.8448 
L 225.025638 116.2368 
L 225.318648 118.08 
L 225.611657 111.168 
L 225.904667 109.7856 
L 226.197676 111.6288 
L 226.490686 121.3056 
L 226.783695 120.384 
L 227.076705 105.6384 
L 227.662724 120.8448 
L 227.955734 108.4032 
L 228.248743 121.3056 
L 228.541753 124.0704 
L 228.834762 128.6784 
L 229.127772 121.3056 
L 229.420781 123.1488 
L 229.713791 121.3056 
L 230.0068 126.3744 
L 230.29981 124.5312 
L 230.885829 101.0304 
L 231.178838 103.7952 
L 231.471848 98.2656 
L 231.764857 87.2064 
L 232.057867 85.3632 
L 232.350876 85.824 
L 232.643886 84.9024 
L 233.229905 88.5888 
L 233.815924 72.4608 
L 234.108933 74.7648 
L 234.401943 82.1376 
L 234.694952 67.8528 
L 234.987962 68.7744 
L 235.280971 58.176 
L 235.573981 64.1664 
L 235.86699 73.8432 
L 236.16 69.696 
L 236.746019 102.8736 
L 237.039029 106.0992 
L 237.625048 118.08 
L 237.918057 113.0112 
L 238.211067 113.9328 
L 238.504076 102.4128 
L 238.797086 124.992 
L 239.090095 128.2176 
L 239.383105 139.7376 
L 239.676114 135.1296 
L 239.969124 143.424 
L 240.262133 144.8064 
L 240.555143 145.2672 
L 240.848152 150.336 
L 241.141162 145.728 
L 241.434171 146.6496 
L 241.727181 131.904 
L 242.02019 138.3552 
L 242.3132 139.7376 
L 242.606209 124.0704 
L 242.899219 144.3456 
L 243.192228 134.208 
L 243.778247 121.3056 
L 244.071257 120.384 
L 244.657276 134.6688 
L 244.950286 129.1392 
L 245.536305 139.2768 
L 245.829314 141.12 
L 246.122324 134.6688 
L 246.415333 134.208 
L 246.708343 136.9728 
L 247.001352 153.1008 
L 247.294362 151.2576 
L 247.587371 165.5424 
L 247.880381 168.3072 
L 248.17339 168.768 
L 249.345428 158.6304 
L 249.638438 186.2784 
L 249.931447 199.6416 
L 250.224457 194.112 
L 250.517466 213.0048 
L 250.810476 218.9952 
L 251.103485 215.3088 
L 251.396495 215.3088 
L 251.689504 207.4752 
L 251.982514 217.152 
L 252.861543 193.1904 
L 253.154552 200.1024 
L 253.447562 201.024 
L 254.033581 197.7984 
L 254.32659 185.8176 
L 254.6196 195.9552 
L 254.912609 194.112 
L 255.498628 178.4448 
L 255.791638 170.1504 
L 256.084647 169.2288 
L 256.377657 169.2288 
L 256.670666 159.552 
L 256.963676 159.552 
L 257.256685 167.3856 
L 257.549695 184.896 
L 258.135714 201.4848 
L 258.721733 180.288 
L 259.600761 196.416 
L 259.893771 181.2096 
L 260.18678 186.2784 
L 260.47979 169.2288 
L 260.772799 171.5328 
L 261.065809 172.4544 
L 261.358819 183.5136 
L 261.944838 161.3952 
L 262.237847 166.464 
L 262.530857 179.3664 
L 263.116876 187.6608 
L 263.409885 188.1216 
L 263.702895 190.8864 
L 263.995904 191.808 
L 264.581923 207.4752 
L 265.167942 201.4848 
L 265.460952 210.7008 
L 265.753961 208.8576 
L 266.046971 203.7888 
L 266.33998 202.4064 
L 266.63299 198.72 
L 266.925999 196.8768 
L 267.512018 213.4656 
L 267.805028 211.6224 
L 268.098037 203.328 
L 268.684056 196.8768 
L 268.977066 206.5536 
L 269.270075 221.2992 
L 269.563085 221.2992 
L 269.856095 218.5344 
L 270.149104 221.76 
L 270.442114 213.4656 
L 270.735123 213.4656 
L 271.028133 208.3968 
L 271.614152 216.6912 
L 271.907161 216.6912 
L 272.49318 233.28 
L 272.78619 230.0544 
L 273.372209 234.6624 
L 273.665218 227.2896 
L 273.958228 224.5248 
L 274.251237 207.0144 
L 274.544247 202.4064 
L 274.837256 188.5824 
L 275.130266 194.5728 
L 275.423275 188.1216 
L 275.716285 193.1904 
L 276.009294 202.8672 
L 276.595313 195.9552 
L 276.888323 197.7984 
L 277.181332 195.4944 
L 277.474342 194.5728 
L 277.767351 195.0336 
L 278.060361 183.5136 
L 278.353371 178.9056 
L 278.93939 185.8176 
L 279.232399 185.3568 
L 279.525409 186.2784 
L 279.818418 185.3568 
L 280.111428 187.2 
L 280.404437 195.0336 
L 280.697447 183.9744 
L 280.990456 190.8864 
L 281.576475 184.4352 
L 281.869485 185.3568 
L 282.162494 199.1808 
L 282.455504 197.3376 
L 282.748513 196.8768 
L 283.041523 199.6416 
L 283.334532 188.5824 
L 283.627542 190.4256 
L 283.920551 196.8768 
L 284.213561 189.0432 
L 284.50657 190.8864 
L 284.79958 191.808 
L 285.092589 182.592 
L 285.385599 177.5232 
L 285.678608 177.984 
L 285.971618 174.7584 
L 286.264628 175.2192 
L 286.557637 183.0528 
L 286.850647 173.8368 
L 287.143656 183.9744 
L 287.436666 182.1312 
L 287.729675 183.0528 
L 288.022685 177.0624 
L 288.315694 181.6704 
L 288.608704 178.4448 
L 289.194723 184.896 
L 289.487732 183.9744 
L 289.780742 190.4256 
L 290.65977 201.024 
L 291.245789 197.7984 
L 291.538799 197.7984 
L 291.831808 195.0336 
L 292.124818 184.4352 
L 292.417827 192.7296 
L 293.003846 197.3376 
L 293.296856 188.1216 
L 293.589865 188.1216 
L 293.882875 190.8864 
L 294.175884 190.8864 
L 294.468894 188.5824 
L 294.761904 187.6608 
L 295.054913 185.3568 
L 295.347923 191.808 
L 296.519961 155.8656 
L 296.81297 165.0816 
L 297.10598 159.0912 
L 297.398989 161.3952 
L 297.691999 166.9248 
L 297.985008 166.0032 
L 298.571027 156.3264 
L 298.864037 151.7184 
L 299.157046 157.248 
L 299.450056 159.552 
L 299.743065 158.6304 
L 300.036075 163.6992 
L 300.329084 171.072 
L 300.622094 187.2 
L 300.915103 192.2688 
L 301.208113 190.4256 
L 301.794132 178.9056 
L 302.087141 171.5328 
L 302.380151 177.5232 
L 302.67316 175.68 
L 302.96617 180.288 
L 303.25918 180.7488 
L 304.138208 162.7776 
L 304.431218 160.0128 
L 304.724227 165.0816 
L 305.017237 155.8656 
L 305.310246 160.0128 
L 305.603256 148.032 
L 305.896265 160.0128 
L 306.189275 166.464 
L 306.482284 167.3856 
L 306.775294 170.6112 
L 307.068303 165.5424 
L 307.361313 179.3664 
L 307.654322 184.4352 
L 307.947332 182.592 
L 308.240341 175.2192 
L 308.533351 180.7488 
L 308.82636 183.5136 
L 309.11937 179.8272 
L 309.412379 181.6704 
L 309.705389 175.2192 
L 309.998398 171.5328 
L 310.291408 174.2976 
L 310.584417 195.4944 
L 311.463446 213.0048 
L 311.756456 212.544 
L 312.049465 210.24 
L 312.928494 228.2112 
L 313.221503 228.672 
L 313.514513 231.4368 
L 313.807522 231.4368 
L 314.100532 232.8192 
L 314.393541 226.368 
L 314.686551 211.6224 
L 314.97956 227.2896 
L 315.27257 218.0736 
L 315.565579 187.2 
L 315.858589 190.8864 
L 316.151598 172.9152 
L 316.444608 161.856 
L 316.737617 163.6992 
L 317.030627 148.9536 
L 317.323636 152.64 
L 317.616646 149.8752 
L 317.909655 167.8464 
L 318.202665 170.6112 
L 318.495674 170.1504 
L 318.788684 176.1408 
L 319.081693 175.2192 
L 319.374703 184.4352 
L 319.667713 198.72 
L 320.253732 192.7296 
L 320.839751 194.5728 
L 321.13276 188.5824 
L 321.42577 198.2592 
L 321.718779 199.1808 
L 322.011789 201.024 
L 322.304798 205.1712 
L 322.597808 218.5344 
L 322.890817 217.6128 
L 323.183827 217.152 
L 323.769846 222.2208 
L 324.062855 222.2208 
L 324.355865 229.5936 
L 324.648874 231.8976 
L 324.941884 232.3584 
L 325.234893 223.6032 
L 325.527903 220.8384 
L 325.820912 216.6912 
L 326.113922 209.7792 
L 326.406931 208.8576 
L 326.699941 216.2304 
L 326.99295 218.0736 
L 327.28596 213.4656 
L 327.578969 216.2304 
L 327.871979 222.2208 
L 328.164989 216.6912 
L 328.457998 223.1424 
L 328.751008 213.4656 
L 329.044017 209.7792 
L 329.337027 202.4064 
L 329.630036 203.7888 
L 329.923046 222.2208 
L 330.216055 222.2208 
L 330.509065 215.7696 
L 330.802074 215.3088 
L 331.095084 222.6816 
L 331.388093 215.3088 
L 331.681103 211.6224 
L 331.974112 219.9168 
L 332.267122 219.9168 
L 332.560131 231.8976 
L 332.853141 230.0544 
L 333.43916 222.6816 
L 333.732169 221.2992 
L 334.025179 226.8288 
L 334.318188 221.76 
L 334.611198 204.7104 
L 334.904207 200.1024 
L 335.197217 206.0928 
L 335.490226 200.1024 
L 335.783236 206.0928 
L 336.076245 207.0144 
L 336.369255 195.9552 
L 336.662265 194.112 
L 336.955274 189.9648 
L 337.248284 205.632 
L 337.541293 193.6512 
L 337.834303 193.6512 
L 338.127312 190.4256 
L 338.713331 186.7392 
L 339.006341 188.1216 
L 339.59236 182.1312 
L 339.885369 184.896 
L 340.178379 198.2592 
L 340.471388 190.4256 
L 340.764398 194.5728 
L 341.057407 181.6704 
L 341.350417 180.7488 
L 341.643426 180.7488 
L 341.936436 173.8368 
L 342.229445 189.504 
L 342.522455 181.6704 
L 342.815464 183.0528 
L 343.401483 187.6608 
L 343.694493 184.896 
L 343.987502 186.2784 
L 344.573521 180.7488 
L 344.866531 186.2784 
L 345.159541 206.5536 
L 345.74556 218.9952 
L 346.038569 221.76 
L 346.331579 205.632 
L 346.624588 223.1424 
L 346.917598 228.672 
L 347.210607 213.9264 
L 347.503617 220.3776 
L 347.796626 213.0048 
L 348.089636 216.2304 
L 348.382645 217.152 
L 348.675655 217.152 
L 348.968664 218.0736 
L 349.554683 209.7792 
L 349.847693 218.9952 
L 350.140702 222.6816 
L 350.433712 224.064 
L 350.726721 217.6128 
L 351.019731 218.5344 
L 351.31274 224.9856 
L 351.60575 235.1232 
L 351.898759 228.672 
L 352.191769 217.152 
L 352.484778 219.456 
L 352.777788 223.1424 
L 353.070798 222.2208 
L 353.363807 216.2304 
L 353.656817 218.0736 
L 354.242836 214.848 
L 354.535845 214.848 
L 354.828855 217.152 
L 355.121864 216.2304 
L 355.414874 200.5632 
L 355.707883 202.4064 
L 356.293902 212.544 
L 356.586912 211.6224 
L 357.172931 208.3968 
L 358.051959 199.6416 
L 358.344969 198.72 
L 358.637978 202.4064 
L 358.930988 201.4848 
L 359.223997 195.9552 
L 359.517007 205.1712 
L 360.103026 209.3184 
L 360.396035 193.1904 
L 360.689045 195.0336 
L 360.982054 195.9552 
L 361.275064 194.5728 
L 361.568074 189.0432 
L 361.861083 195.0336 
L 362.447102 213.0048 
L 363.326131 224.9856 
L 363.61914 234.2016 
L 363.91215 231.4368 
L 364.205159 235.584 
L 364.498169 232.8192 
L 365.084188 242.0352 
L 365.670207 245.2608 
L 365.963216 250.3296 
L 366.256226 252.6336 
L 366.549235 252.6336 
L 366.842245 253.5552 
L 367.135254 263.6928 
L 367.428264 253.5552 
L 367.721273 254.4768 
L 368.014283 265.0752 
L 368.307292 264.1536 
L 368.893311 259.5456 
L 369.186321 252.6336 
L 369.47933 254.016 
L 369.77234 248.0256 
L 370.06535 246.1824 
L 370.358359 254.4768 
L 370.651369 254.4768 
L 370.944378 252.6336 
L 371.237388 256.7808 
L 371.530397 256.32 
L 371.823407 256.32 
L 372.116416 254.9376 
L 372.409426 248.4864 
L 373.288454 262.3104 
L 373.874473 255.3984 
L 374.167483 260.4672 
L 374.753502 254.9376 
L 375.046511 254.016 
L 375.339521 248.0256 
L 375.63253 248.0256 
L 375.92554 249.8688 
L 376.218549 247.104 
L 376.511559 242.496 
L 376.804568 247.104 
L 377.097578 249.408 
L 377.390587 252.6336 
L 377.683597 273.8304 
L 377.976606 275.2128 
L 378.269616 273.3696 
L 378.562626 276.5952 
L 378.855635 275.2128 
L 379.148645 269.2224 
L 379.441654 270.144 
L 379.734664 268.3008 
L 380.027673 271.0656 
L 380.320683 266.9184 
L 380.613692 271.5264 
L 380.906702 272.448 
L 381.199711 261.8496 
L 381.492721 262.7712 
L 381.78573 261.8496 
L 382.07874 264.6144 
L 382.371749 271.5264 
L 382.664759 269.6832 
L 382.957768 266.9184 
L 383.543787 270.6048 
L 383.836797 273.3696 
L 384.129806 267.3792 
L 384.422816 266.4576 
L 384.715825 265.9968 
L 385.008835 265.0752 
L 385.301844 255.3984 
L 385.594854 256.32 
L 385.887863 260.0064 
L 386.180873 257.2416 
L 386.766892 264.1536 
L 387.059902 265.0752 
L 387.645921 264.1536 
L 387.93893 269.2224 
L 388.23194 271.5264 
L 389.110968 280.7424 
L 389.403978 267.84 
L 389.696987 260.928 
L 389.989997 265.9968 
L 390.576016 260.928 
L 391.162035 260.928 
L 391.455044 254.4768 
L 391.748054 266.9184 
L 392.041063 266.9184 
L 392.334073 271.5264 
L 392.627082 287.6544 
L 392.920092 286.7328 
L 393.213101 289.4976 
L 393.506111 289.9584 
L 393.79912 295.488 
L 394.09213 289.9584 
L 394.678149 292.7232 
L 395.264168 280.2816 
L 395.557178 286.272 
L 395.850187 286.272 
L 396.143197 288.576 
L 396.436206 285.8112 
L 396.729216 288.1152 
L 397.022225 288.1152 
L 397.315235 289.9584 
L 397.608244 287.1936 
L 397.901254 288.576 
L 398.194263 295.0272 
L 398.487273 292.7232 
L 398.487273 292.7232 
" clip-path="url(#p187c64a0c0)" style="fill: none; stroke: #1f77b4; stroke-width: 1.5; stroke-linecap: square"/>
   </g>
   <g id="patch_3">
    <path d="M 57.6 307.584 
L 57.6 41.472 
" style="fill: none; stroke: #000000; stroke-width: 0.8; stroke-linejoin: miter; stroke-linecap: square"/>
   </g>
   <g id="patch_4">
    <path d="M 414.72 307.584 
L 414.72 41.472 
" style="fill: none; stroke: #000000; stroke-width: 0.8; stroke-linejoin: miter; stroke-linecap: square"/>
   </g>
   <g id="patch_5">
    <path d="M 57.6 307.584 
L 414.72 307.584 
" style="fill: none; stroke: #000000; stroke-width: 0.8; stroke-linejoin: miter; stroke-linecap: square"/>
   </g>
   <g id="patch_6">
    <path d="M 57.6 41.472 
L 414.72 41.472 
" style="fill: none; stroke: #000000; stroke-width: 0.8; stroke-linejoin: miter; stroke-linecap: square"/>
   </g>
   <g id="text_14">
    <!-- Simulated Anealling Cost -->
    <g transform="translate(160.8 35.472)scale(0.12 -0.12)">
     <defs>
      <path id="DejaVuSans-53" d="M 3425 4513 
L 3425 3897 
Q 3066 4069 2747 4153 
Q 2428 4238 2131 4238 
Q 1616 4238 1336 4038 
Q 1056 3838 1056 3469 
Q 1056 3159 1242 3001 
Q 1428 2844 1947 2747 
L 2328 2669 
Q 3034 2534 3370 2195 
Q 3706 1856 3706 1288 
Q 3706 609 3251 259 
Q 2797 -91 1919 -91 
Q 1588 -91 1214 -16 
Q 841 59 441 206 
L 441 856 
Q 825 641 1194 531 
Q 1563 422 1919 422 
Q 2459 422 2753 634 
Q 3047 847 3047 1241 
Q 3047 1584 2836 1778 
Q 2625 1972 2144 2069 
L 1759 2144 
Q 1053 2284 737 2584 
Q 422 2884 422 3419 
Q 422 4038 858 4394 
Q 1294 4750 2059 4750 
Q 2388 4750 2728 4690 
Q 3069 4631 3425 4513 
z
" transform="scale(0.015625)"/>
      <path id="DejaVuSans-69" d="M 603 3500 
L 1178 3500 
L 1178 0 
L 603 0 
L 603 3500 
z
M 603 4863 
L 1178 4863 
L 1178 4134 
L 603 4134 
L 603 4863 
z
" transform="scale(0.015625)"/>
      <path id="DejaVuSans-65" d="M 3597 1894 
L 3597 1613 
L 953 1613 
Q 991 1019 1311 708 
Q 1631 397 2203 397 
Q 2534 397 2845 478 
Q 3156 559 3463 722 
L 3463 178 
Q 3153 47 2828 -22 
Q 2503 -91 2169 -91 
Q 1331 -91 842 396 
Q 353 884 353 1716 
Q 353 2575 817 3079 
Q 1281 3584 2069 3584 
Q 2775 3584 3186 3129 
Q 3597 2675 3597 1894 
z
M 3022 2063 
Q 3016 2534 2758 2815 
Q 2500 3097 2075 3097 
Q 1594 3097 1305 2825 
Q 1016 2553 972 2059 
L 3022 2063 
z
" transform="scale(0.015625)"/>
      <path id="DejaVuSans-64" d="M 2906 2969 
L 2906 4863 
L 3481 4863 
L 3481 0 
L 2906 0 
L 2906 525 
Q 2725 213 2448 61 
Q 2172 -91 1784 -91 
Q 1150 -91 751 415 
Q 353 922 353 1747 
Q 353 2572 751 3078 
Q 1150 3584 1784 3584 
Q 2172 3584 2448 3432 
Q 2725 3281 2906 2969 
z
M 947 1747 
Q 947 1113 1208 752 
Q 1469 391 1925 391 
Q 2381 391 2643 752 
Q 2906 1113 2906 1747 
Q 2906 2381 2643 2742 
Q 2381 3103 1925 3103 
Q 1469 3103 1208 2742 
Q 947 2381 947 1747 
z
" transform="scale(0.015625)"/>
      <path id="DejaVuSans-41" d="M 2188 4044 
L 1331 1722 
L 3047 1722 
L 2188 4044 
z
M 1831 4666 
L 2547 4666 
L 4325 0 
L 3669 0 
L 3244 1197 
L 1141 1197 
L 716 0 
L 50 0 
L 1831 4666 
z
" transform="scale(0.015625)"/>
      <path id="DejaVuSans-67" d="M 2906 1791 
Q 2906 2416 2648 2759 
Q 2391 3103 1925 3103 
Q 1463 3103 1205 2759 
Q 947 2416 947 1791 
Q 947 1169 1205 825 
Q 1463 481 1925 481 
Q 2391 481 2648 825 
Q 2906 1169 2906 1791 
z
M 3481 434 
Q 3481 -459 3084 -895 
Q 2688 -1331 1869 -1331 
Q 1566 -1331 1297 -1286 
Q 1028 -1241 775 -1147 
L 775 -588 
Q 1028 -725 1275 -790 
Q 1522 -856 1778 -856 
Q 2344 -856 2625 -561 
Q 2906 -266 2906 331 
L 2906 616 
Q 2728 306 2450 153 
Q 2172 0 1784 0 
Q 1141 0 747 490 
Q 353 981 353 1791 
Q 353 2603 747 3093 
Q 1141 3584 1784 3584 
Q 2172 3584 2450 3431 
Q 2728 3278 2906 2969 
L 2906 3500 
L 3481 3500 
L 3481 434 
z
" transform="scale(0.015625)"/>
      <path id="DejaVuSans-43" d="M 4122 4306 
L 4122 3641 
Q 3803 3938 3442 4084 
Q 3081 4231 2675 4231 
Q 1875 4231 1450 3742 
Q 1025 3253 1025 2328 
Q 1025 1406 1450 917 
Q 1875 428 2675 428 
Q 3081 428 3442 575 
Q 3803 722 4122 1019 
L 4122 359 
Q 3791 134 3420 21 
Q 3050 -91 2638 -91 
Q 1578 -91 968 557 
Q 359 1206 359 2328 
Q 359 3453 968 4101 
Q 1578 4750 2638 4750 
Q 3056 4750 3426 4639 
Q 3797 4528 4122 4306 
z
" transform="scale(0.015625)"/>
     </defs>
     <use xlink:href="#DejaVuSans-53"/>
     <use xlink:href="#DejaVuSans-69" x="63.476562"/>
     <use xlink:href="#DejaVuSans-6d" x="91.259766"/>
     <use xlink:href="#DejaVuSans-75" x="188.671875"/>
     <use xlink:href="#DejaVuSans-6c" x="252.050781"/>
     <use xlink:href="#DejaVuSans-61" x="279.833984"/>
     <use xlink:href="#DejaVuSans-74" x="341.113281"/>
     <use xlink:href="#DejaVuSans-65" x="380.322266"/>
     <use xlink:href="#DejaVuSans-64" x="441.845703"/>
     <use xlink:href="#DejaVuSans-20" x="505.322266"/>
     <use xlink:href="#DejaVuSans-41" x="537.109375"/>
     <use xlink:href="#DejaVuSans-6e" x="605.517578"/>
     <use xlink:href="#DejaVuSans-65" x="668.896484"/>
     <use xlink:href="#DejaVuSans-61" x="730.419922"/>
     <use xlink:href="#DejaVuSans-6c" x="791.699219"/>
     <use xlink:href="#DejaVuSans-6c" x="819.482422"/>
     <use xlink:href="#DejaVuSans-69" x="847.265625"/>
     <use xlink:href="#DejaVuSans-6e" x="875.048828"/>
     <use xlink:href="#DejaVuSans-67" x="938.427734"/>
     <use xlink:href="#DejaVuSans-20" x="1001.904297"/>
     <use xlink:href="#DejaVuSans-43" x="1033.691406"/>
     <use xlink:href="#DejaVuSans-6f" x="1103.515625"/>
     <use xlink:href="#DejaVuSans-73" x="1164.697266"/>
     <use xlink:href="#DejaVuSans-74" x="1216.796875"/>
    </g>
   </g>
  </g>
 </g>
 <defs>
  <clipPath id="p187c64a0c0">
   <rect x="57.6" y="41.472" width="357.12" height="266.112"/>
  </clipPath>
 </defs>
</svg>
