<?xml version="1.0" encoding="utf-8" standalone="no"?>
<!DOCTYPE svg PUBLIC "-//W3C//DTD SVG 1.1//EN"
  "http://www.w3.org/Graphics/SVG/1.1/DTD/svg11.dtd">
<svg xmlns:xlink="http://www.w3.org/1999/xlink" width="460.8pt" height="345.6pt" viewBox="0 0 460.8 345.6" xmlns="http://www.w3.org/2000/svg" version="1.1">
 <metadata>
  <rdf:RDF xmlns:dc="http://purl.org/dc/elements/1.1/" xmlns:cc="http://creativecommons.org/ns#" xmlns:rdf="http://www.w3.org/1999/02/22-rdf-syntax-ns#">
   <cc:Work>
    <dc:type rdf:resource="http://purl.org/dc/dcmitype/StillImage"/>
    <dc:date>2022-06-01T08:07:03.898849</dc:date>
    <dc:format>image/svg+xml</dc:format>
    <dc:creator>
     <cc:Agent>
      <dc:title>Matplotlib v3.5.1, https://matplotlib.org/</dc:title>
     </cc:Agent>
    </dc:creator>
   </cc:Work>
  </rdf:RDF>
 </metadata>
 <defs>
  <style type="text/css">*{stroke-linejoin: round; stroke-linecap: butt}</style>
 </defs>
 <g id="figure_1">
  <g id="patch_1">
   <path d="M 0 345.6 
L 460.8 345.6 
L 460.8 0 
L 0 0 
z
" style="fill: #ffffff"/>
  </g>
  <g id="axes_1">
   <g id="patch_2">
    <path d="M 57.6 307.584 
L 414.72 307.584 
L 414.72 41.472 
L 57.6 41.472 
z
" style="fill: #ffffff"/>
   </g>
   <g id="matplotlib.axis_1">
    <g id="xtick_1">
     <g id="line2d_1">
      <defs>
       <path id="m8710b78618" d="M 0 0 
L 0 3.5 
" style="stroke: #000000; stroke-width: 0.8"/>
      </defs>
      <g>
       <use xlink:href="#m8710b78618" x="73.832727" y="307.584" style="stroke: #000000; stroke-width: 0.8"/>
      </g>
     </g>
     <g id="text_1">
      <!-- 0 -->
      <g transform="translate(70.651477 322.182437)scale(0.1 -0.1)">
       <defs>
        <path id="DejaVuSans-30" d="M 2034 4250 
Q 1547 4250 1301 3770 
Q 1056 3291 1056 2328 
Q 1056 1369 1301 889 
Q 1547 409 2034 409 
Q 2525 409 2770 889 
Q 3016 1369 3016 2328 
Q 3016 3291 2770 3770 
Q 2525 4250 2034 4250 
z
M 2034 4750 
Q 2819 4750 3233 4129 
Q 3647 3509 3647 2328 
Q 3647 1150 3233 529 
Q 2819 -91 2034 -91 
Q 1250 -91 836 529 
Q 422 1150 422 2328 
Q 422 3509 836 4129 
Q 1250 4750 2034 4750 
z
" transform="scale(0.015625)"/>
       </defs>
       <use xlink:href="#DejaVuSans-30"/>
      </g>
     </g>
    </g>
    <g id="xtick_2">
     <g id="line2d_2">
      <g>
       <use xlink:href="#m8710b78618" x="123.05264" y="307.584" style="stroke: #000000; stroke-width: 0.8"/>
      </g>
     </g>
     <g id="text_2">
      <!-- 500 -->
      <g transform="translate(113.50889 322.182437)scale(0.1 -0.1)">
       <defs>
        <path id="DejaVuSans-35" d="M 691 4666 
L 3169 4666 
L 3169 4134 
L 1269 4134 
L 1269 2991 
Q 1406 3038 1543 3061 
Q 1681 3084 1819 3084 
Q 2600 3084 3056 2656 
Q 3513 2228 3513 1497 
Q 3513 744 3044 326 
Q 2575 -91 1722 -91 
Q 1428 -91 1123 -41 
Q 819 9 494 109 
L 494 744 
Q 775 591 1075 516 
Q 1375 441 1709 441 
Q 2250 441 2565 725 
Q 2881 1009 2881 1497 
Q 2881 1984 2565 2268 
Q 2250 2553 1709 2553 
Q 1456 2553 1204 2497 
Q 953 2441 691 2322 
L 691 4666 
z
" transform="scale(0.015625)"/>
       </defs>
       <use xlink:href="#DejaVuSans-35"/>
       <use xlink:href="#DejaVuSans-30" x="63.623047"/>
       <use xlink:href="#DejaVuSans-30" x="127.246094"/>
      </g>
     </g>
    </g>
    <g id="xtick_3">
     <g id="line2d_3">
      <g>
       <use xlink:href="#m8710b78618" x="172.272553" y="307.584" style="stroke: #000000; stroke-width: 0.8"/>
      </g>
     </g>
     <g id="text_3">
      <!-- 1000 -->
      <g transform="translate(159.547553 322.182437)scale(0.1 -0.1)">
       <defs>
        <path id="DejaVuSans-31" d="M 794 531 
L 1825 531 
L 1825 4091 
L 703 3866 
L 703 4441 
L 1819 4666 
L 2450 4666 
L 2450 531 
L 3481 531 
L 3481 0 
L 794 0 
L 794 531 
z
" transform="scale(0.015625)"/>
       </defs>
       <use xlink:href="#DejaVuSans-31"/>
       <use xlink:href="#DejaVuSans-30" x="63.623047"/>
       <use xlink:href="#DejaVuSans-30" x="127.246094"/>
       <use xlink:href="#DejaVuSans-30" x="190.869141"/>
      </g>
     </g>
    </g>
    <g id="xtick_4">
     <g id="line2d_4">
      <g>
       <use xlink:href="#m8710b78618" x="221.492466" y="307.584" style="stroke: #000000; stroke-width: 0.8"/>
      </g>
     </g>
     <g id="text_4">
      <!-- 1500 -->
      <g transform="translate(208.767466 322.182437)scale(0.1 -0.1)">
       <use xlink:href="#DejaVuSans-31"/>
       <use xlink:href="#DejaVuSans-35" x="63.623047"/>
       <use xlink:href="#DejaVuSans-30" x="127.246094"/>
       <use xlink:href="#DejaVuSans-30" x="190.869141"/>
      </g>
     </g>
    </g>
    <g id="xtick_5">
     <g id="line2d_5">
      <g>
       <use xlink:href="#m8710b78618" x="270.712379" y="307.584" style="stroke: #000000; stroke-width: 0.8"/>
      </g>
     </g>
     <g id="text_5">
      <!-- 2000 -->
      <g transform="translate(257.987379 322.182437)scale(0.1 -0.1)">
       <defs>
        <path id="DejaVuSans-32" d="M 1228 531 
L 3431 531 
L 3431 0 
L 469 0 
L 469 531 
Q 828 903 1448 1529 
Q 2069 2156 2228 2338 
Q 2531 2678 2651 2914 
Q 2772 3150 2772 3378 
Q 2772 3750 2511 3984 
Q 2250 4219 1831 4219 
Q 1534 4219 1204 4116 
Q 875 4013 500 3803 
L 500 4441 
Q 881 4594 1212 4672 
Q 1544 4750 1819 4750 
Q 2544 4750 2975 4387 
Q 3406 4025 3406 3419 
Q 3406 3131 3298 2873 
Q 3191 2616 2906 2266 
Q 2828 2175 2409 1742 
Q 1991 1309 1228 531 
z
" transform="scale(0.015625)"/>
       </defs>
       <use xlink:href="#DejaVuSans-32"/>
       <use xlink:href="#DejaVuSans-30" x="63.623047"/>
       <use xlink:href="#DejaVuSans-30" x="127.246094"/>
       <use xlink:href="#DejaVuSans-30" x="190.869141"/>
      </g>
     </g>
    </g>
    <g id="xtick_6">
     <g id="line2d_6">
      <g>
       <use xlink:href="#m8710b78618" x="319.932292" y="307.584" style="stroke: #000000; stroke-width: 0.8"/>
      </g>
     </g>
     <g id="text_6">
      <!-- 2500 -->
      <g transform="translate(307.207292 322.182437)scale(0.1 -0.1)">
       <use xlink:href="#DejaVuSans-32"/>
       <use xlink:href="#DejaVuSans-35" x="63.623047"/>
       <use xlink:href="#DejaVuSans-30" x="127.246094"/>
       <use xlink:href="#DejaVuSans-30" x="190.869141"/>
      </g>
     </g>
    </g>
    <g id="xtick_7">
     <g id="line2d_7">
      <g>
       <use xlink:href="#m8710b78618" x="369.152205" y="307.584" style="stroke: #000000; stroke-width: 0.8"/>
      </g>
     </g>
     <g id="text_7">
      <!-- 3000 -->
      <g transform="translate(356.427205 322.182437)scale(0.1 -0.1)">
       <defs>
        <path id="DejaVuSans-33" d="M 2597 2516 
Q 3050 2419 3304 2112 
Q 3559 1806 3559 1356 
Q 3559 666 3084 287 
Q 2609 -91 1734 -91 
Q 1441 -91 1130 -33 
Q 819 25 488 141 
L 488 750 
Q 750 597 1062 519 
Q 1375 441 1716 441 
Q 2309 441 2620 675 
Q 2931 909 2931 1356 
Q 2931 1769 2642 2001 
Q 2353 2234 1838 2234 
L 1294 2234 
L 1294 2753 
L 1863 2753 
Q 2328 2753 2575 2939 
Q 2822 3125 2822 3475 
Q 2822 3834 2567 4026 
Q 2313 4219 1838 4219 
Q 1578 4219 1281 4162 
Q 984 4106 628 3988 
L 628 4550 
Q 988 4650 1302 4700 
Q 1616 4750 1894 4750 
Q 2613 4750 3031 4423 
Q 3450 4097 3450 3541 
Q 3450 3153 3228 2886 
Q 3006 2619 2597 2516 
z
" transform="scale(0.015625)"/>
       </defs>
       <use xlink:href="#DejaVuSans-33"/>
       <use xlink:href="#DejaVuSans-30" x="63.623047"/>
       <use xlink:href="#DejaVuSans-30" x="127.246094"/>
       <use xlink:href="#DejaVuSans-30" x="190.869141"/>
      </g>
     </g>
    </g>
    <g id="text_8">
     <!-- num swaps -->
     <g transform="translate(207.826406 335.860562)scale(0.1 -0.1)">
      <defs>
       <path id="DejaVuSans-6e" d="M 3513 2113 
L 3513 0 
L 2938 0 
L 2938 2094 
Q 2938 2591 2744 2837 
Q 2550 3084 2163 3084 
Q 1697 3084 1428 2787 
Q 1159 2491 1159 1978 
L 1159 0 
L 581 0 
L 581 3500 
L 1159 3500 
L 1159 2956 
Q 1366 3272 1645 3428 
Q 1925 3584 2291 3584 
Q 2894 3584 3203 3211 
Q 3513 2838 3513 2113 
z
" transform="scale(0.015625)"/>
       <path id="DejaVuSans-75" d="M 544 1381 
L 544 3500 
L 1119 3500 
L 1119 1403 
Q 1119 906 1312 657 
Q 1506 409 1894 409 
Q 2359 409 2629 706 
Q 2900 1003 2900 1516 
L 2900 3500 
L 3475 3500 
L 3475 0 
L 2900 0 
L 2900 538 
Q 2691 219 2414 64 
Q 2138 -91 1772 -91 
Q 1169 -91 856 284 
Q 544 659 544 1381 
z
M 1991 3584 
L 1991 3584 
z
" transform="scale(0.015625)"/>
       <path id="DejaVuSans-6d" d="M 3328 2828 
Q 3544 3216 3844 3400 
Q 4144 3584 4550 3584 
Q 5097 3584 5394 3201 
Q 5691 2819 5691 2113 
L 5691 0 
L 5113 0 
L 5113 2094 
Q 5113 2597 4934 2840 
Q 4756 3084 4391 3084 
Q 3944 3084 3684 2787 
Q 3425 2491 3425 1978 
L 3425 0 
L 2847 0 
L 2847 2094 
Q 2847 2600 2669 2842 
Q 2491 3084 2119 3084 
Q 1678 3084 1418 2786 
Q 1159 2488 1159 1978 
L 1159 0 
L 581 0 
L 581 3500 
L 1159 3500 
L 1159 2956 
Q 1356 3278 1631 3431 
Q 1906 3584 2284 3584 
Q 2666 3584 2933 3390 
Q 3200 3197 3328 2828 
z
" transform="scale(0.015625)"/>
       <path id="DejaVuSans-20" transform="scale(0.015625)"/>
       <path id="DejaVuSans-73" d="M 2834 3397 
L 2834 2853 
Q 2591 2978 2328 3040 
Q 2066 3103 1784 3103 
Q 1356 3103 1142 2972 
Q 928 2841 928 2578 
Q 928 2378 1081 2264 
Q 1234 2150 1697 2047 
L 1894 2003 
Q 2506 1872 2764 1633 
Q 3022 1394 3022 966 
Q 3022 478 2636 193 
Q 2250 -91 1575 -91 
Q 1294 -91 989 -36 
Q 684 19 347 128 
L 347 722 
Q 666 556 975 473 
Q 1284 391 1588 391 
Q 1994 391 2212 530 
Q 2431 669 2431 922 
Q 2431 1156 2273 1281 
Q 2116 1406 1581 1522 
L 1381 1569 
Q 847 1681 609 1914 
Q 372 2147 372 2553 
Q 372 3047 722 3315 
Q 1072 3584 1716 3584 
Q 2034 3584 2315 3537 
Q 2597 3491 2834 3397 
z
" transform="scale(0.015625)"/>
       <path id="DejaVuSans-77" d="M 269 3500 
L 844 3500 
L 1563 769 
L 2278 3500 
L 2956 3500 
L 3675 769 
L 4391 3500 
L 4966 3500 
L 4050 0 
L 3372 0 
L 2619 2869 
L 1863 0 
L 1184 0 
L 269 3500 
z
" transform="scale(0.015625)"/>
       <path id="DejaVuSans-61" d="M 2194 1759 
Q 1497 1759 1228 1600 
Q 959 1441 959 1056 
Q 959 750 1161 570 
Q 1363 391 1709 391 
Q 2188 391 2477 730 
Q 2766 1069 2766 1631 
L 2766 1759 
L 2194 1759 
z
M 3341 1997 
L 3341 0 
L 2766 0 
L 2766 531 
Q 2569 213 2275 61 
Q 1981 -91 1556 -91 
Q 1019 -91 701 211 
Q 384 513 384 1019 
Q 384 1609 779 1909 
Q 1175 2209 1959 2209 
L 2766 2209 
L 2766 2266 
Q 2766 2663 2505 2880 
Q 2244 3097 1772 3097 
Q 1472 3097 1187 3025 
Q 903 2953 641 2809 
L 641 3341 
Q 956 3463 1253 3523 
Q 1550 3584 1831 3584 
Q 2591 3584 2966 3190 
Q 3341 2797 3341 1997 
z
" transform="scale(0.015625)"/>
       <path id="DejaVuSans-70" d="M 1159 525 
L 1159 -1331 
L 581 -1331 
L 581 3500 
L 1159 3500 
L 1159 2969 
Q 1341 3281 1617 3432 
Q 1894 3584 2278 3584 
Q 2916 3584 3314 3078 
Q 3713 2572 3713 1747 
Q 3713 922 3314 415 
Q 2916 -91 2278 -91 
Q 1894 -91 1617 61 
Q 1341 213 1159 525 
z
M 3116 1747 
Q 3116 2381 2855 2742 
Q 2594 3103 2138 3103 
Q 1681 3103 1420 2742 
Q 1159 2381 1159 1747 
Q 1159 1113 1420 752 
Q 1681 391 2138 391 
Q 2594 391 2855 752 
Q 3116 1113 3116 1747 
z
" transform="scale(0.015625)"/>
      </defs>
      <use xlink:href="#DejaVuSans-6e"/>
      <use xlink:href="#DejaVuSans-75" x="63.378906"/>
      <use xlink:href="#DejaVuSans-6d" x="126.757812"/>
      <use xlink:href="#DejaVuSans-20" x="224.169922"/>
      <use xlink:href="#DejaVuSans-73" x="255.957031"/>
      <use xlink:href="#DejaVuSans-77" x="308.056641"/>
      <use xlink:href="#DejaVuSans-61" x="389.84375"/>
      <use xlink:href="#DejaVuSans-70" x="451.123047"/>
      <use xlink:href="#DejaVuSans-73" x="514.599609"/>
     </g>
    </g>
   </g>
   <g id="matplotlib.axis_2">
    <g id="ytick_1">
     <g id="line2d_8">
      <defs>
       <path id="me1e3341497" d="M 0 0 
L -3.5 0 
" style="stroke: #000000; stroke-width: 0.8"/>
      </defs>
      <g>
       <use xlink:href="#me1e3341497" x="57.6" y="282.755368" style="stroke: #000000; stroke-width: 0.8"/>
      </g>
     </g>
     <g id="text_9">
      <!-- 340 -->
      <g transform="translate(31.5125 286.554587)scale(0.1 -0.1)">
       <defs>
        <path id="DejaVuSans-34" d="M 2419 4116 
L 825 1625 
L 2419 1625 
L 2419 4116 
z
M 2253 4666 
L 3047 4666 
L 3047 1625 
L 3713 1625 
L 3713 1100 
L 3047 1100 
L 3047 0 
L 2419 0 
L 2419 1100 
L 313 1100 
L 313 1709 
L 2253 4666 
z
" transform="scale(0.015625)"/>
       </defs>
       <use xlink:href="#DejaVuSans-33"/>
       <use xlink:href="#DejaVuSans-34" x="63.623047"/>
       <use xlink:href="#DejaVuSans-30" x="127.246094"/>
      </g>
     </g>
    </g>
    <g id="ytick_2">
     <g id="line2d_9">
      <g>
       <use xlink:href="#me1e3341497" x="57.6" y="246.376421" style="stroke: #000000; stroke-width: 0.8"/>
      </g>
     </g>
     <g id="text_10">
      <!-- 360 -->
      <g transform="translate(31.5125 250.17564)scale(0.1 -0.1)">
       <defs>
        <path id="DejaVuSans-36" d="M 2113 2584 
Q 1688 2584 1439 2293 
Q 1191 2003 1191 1497 
Q 1191 994 1439 701 
Q 1688 409 2113 409 
Q 2538 409 2786 701 
Q 3034 994 3034 1497 
Q 3034 2003 2786 2293 
Q 2538 2584 2113 2584 
z
M 3366 4563 
L 3366 3988 
Q 3128 4100 2886 4159 
Q 2644 4219 2406 4219 
Q 1781 4219 1451 3797 
Q 1122 3375 1075 2522 
Q 1259 2794 1537 2939 
Q 1816 3084 2150 3084 
Q 2853 3084 3261 2657 
Q 3669 2231 3669 1497 
Q 3669 778 3244 343 
Q 2819 -91 2113 -91 
Q 1303 -91 875 529 
Q 447 1150 447 2328 
Q 447 3434 972 4092 
Q 1497 4750 2381 4750 
Q 2619 4750 2861 4703 
Q 3103 4656 3366 4563 
z
" transform="scale(0.015625)"/>
       </defs>
       <use xlink:href="#DejaVuSans-33"/>
       <use xlink:href="#DejaVuSans-36" x="63.623047"/>
       <use xlink:href="#DejaVuSans-30" x="127.246094"/>
      </g>
     </g>
    </g>
    <g id="ytick_3">
     <g id="line2d_10">
      <g>
       <use xlink:href="#me1e3341497" x="57.6" y="209.997474" style="stroke: #000000; stroke-width: 0.8"/>
      </g>
     </g>
     <g id="text_11">
      <!-- 380 -->
      <g transform="translate(31.5125 213.796692)scale(0.1 -0.1)">
       <defs>
        <path id="DejaVuSans-38" d="M 2034 2216 
Q 1584 2216 1326 1975 
Q 1069 1734 1069 1313 
Q 1069 891 1326 650 
Q 1584 409 2034 409 
Q 2484 409 2743 651 
Q 3003 894 3003 1313 
Q 3003 1734 2745 1975 
Q 2488 2216 2034 2216 
z
M 1403 2484 
Q 997 2584 770 2862 
Q 544 3141 544 3541 
Q 544 4100 942 4425 
Q 1341 4750 2034 4750 
Q 2731 4750 3128 4425 
Q 3525 4100 3525 3541 
Q 3525 3141 3298 2862 
Q 3072 2584 2669 2484 
Q 3125 2378 3379 2068 
Q 3634 1759 3634 1313 
Q 3634 634 3220 271 
Q 2806 -91 2034 -91 
Q 1263 -91 848 271 
Q 434 634 434 1313 
Q 434 1759 690 2068 
Q 947 2378 1403 2484 
z
M 1172 3481 
Q 1172 3119 1398 2916 
Q 1625 2713 2034 2713 
Q 2441 2713 2670 2916 
Q 2900 3119 2900 3481 
Q 2900 3844 2670 4047 
Q 2441 4250 2034 4250 
Q 1625 4250 1398 4047 
Q 1172 3844 1172 3481 
z
" transform="scale(0.015625)"/>
       </defs>
       <use xlink:href="#DejaVuSans-33"/>
       <use xlink:href="#DejaVuSans-38" x="63.623047"/>
       <use xlink:href="#DejaVuSans-30" x="127.246094"/>
      </g>
     </g>
    </g>
    <g id="ytick_4">
     <g id="line2d_11">
      <g>
       <use xlink:href="#me1e3341497" x="57.6" y="173.618526" style="stroke: #000000; stroke-width: 0.8"/>
      </g>
     </g>
     <g id="text_12">
      <!-- 400 -->
      <g transform="translate(31.5125 177.417745)scale(0.1 -0.1)">
       <use xlink:href="#DejaVuSans-34"/>
       <use xlink:href="#DejaVuSans-30" x="63.623047"/>
       <use xlink:href="#DejaVuSans-30" x="127.246094"/>
      </g>
     </g>
    </g>
    <g id="ytick_5">
     <g id="line2d_12">
      <g>
       <use xlink:href="#me1e3341497" x="57.6" y="137.239579" style="stroke: #000000; stroke-width: 0.8"/>
      </g>
     </g>
     <g id="text_13">
      <!-- 420 -->
      <g transform="translate(31.5125 141.038798)scale(0.1 -0.1)">
       <use xlink:href="#DejaVuSans-34"/>
       <use xlink:href="#DejaVuSans-32" x="63.623047"/>
       <use xlink:href="#DejaVuSans-30" x="127.246094"/>
      </g>
     </g>
    </g>
    <g id="ytick_6">
     <g id="line2d_13">
      <g>
       <use xlink:href="#me1e3341497" x="57.6" y="100.860632" style="stroke: #000000; stroke-width: 0.8"/>
      </g>
     </g>
     <g id="text_14">
      <!-- 440 -->
      <g transform="translate(31.5125 104.65985)scale(0.1 -0.1)">
       <use xlink:href="#DejaVuSans-34"/>
       <use xlink:href="#DejaVuSans-34" x="63.623047"/>
       <use xlink:href="#DejaVuSans-30" x="127.246094"/>
      </g>
     </g>
    </g>
    <g id="ytick_7">
     <g id="line2d_14">
      <g>
       <use xlink:href="#me1e3341497" x="57.6" y="64.481684" style="stroke: #000000; stroke-width: 0.8"/>
      </g>
     </g>
     <g id="text_15">
      <!-- 460 -->
      <g transform="translate(31.5125 68.280903)scale(0.1 -0.1)">
       <use xlink:href="#DejaVuSans-34"/>
       <use xlink:href="#DejaVuSans-36" x="63.623047"/>
       <use xlink:href="#DejaVuSans-30" x="127.246094"/>
      </g>
     </g>
    </g>
    <g id="text_16">
     <!-- total cost -->
     <g transform="translate(25.432812 197.923313)rotate(-90)scale(0.1 -0.1)">
      <defs>
       <path id="DejaVuSans-74" d="M 1172 4494 
L 1172 3500 
L 2356 3500 
L 2356 3053 
L 1172 3053 
L 1172 1153 
Q 1172 725 1289 603 
Q 1406 481 1766 481 
L 2356 481 
L 2356 0 
L 1766 0 
Q 1100 0 847 248 
Q 594 497 594 1153 
L 594 3053 
L 172 3053 
L 172 3500 
L 594 3500 
L 594 4494 
L 1172 4494 
z
" transform="scale(0.015625)"/>
       <path id="DejaVuSans-6f" d="M 1959 3097 
Q 1497 3097 1228 2736 
Q 959 2375 959 1747 
Q 959 1119 1226 758 
Q 1494 397 1959 397 
Q 2419 397 2687 759 
Q 2956 1122 2956 1747 
Q 2956 2369 2687 2733 
Q 2419 3097 1959 3097 
z
M 1959 3584 
Q 2709 3584 3137 3096 
Q 3566 2609 3566 1747 
Q 3566 888 3137 398 
Q 2709 -91 1959 -91 
Q 1206 -91 779 398 
Q 353 888 353 1747 
Q 353 2609 779 3096 
Q 1206 3584 1959 3584 
z
" transform="scale(0.015625)"/>
       <path id="DejaVuSans-6c" d="M 603 4863 
L 1178 4863 
L 1178 0 
L 603 0 
L 603 4863 
z
" transform="scale(0.015625)"/>
       <path id="DejaVuSans-63" d="M 3122 3366 
L 3122 2828 
Q 2878 2963 2633 3030 
Q 2388 3097 2138 3097 
Q 1578 3097 1268 2742 
Q 959 2388 959 1747 
Q 959 1106 1268 751 
Q 1578 397 2138 397 
Q 2388 397 2633 464 
Q 2878 531 3122 666 
L 3122 134 
Q 2881 22 2623 -34 
Q 2366 -91 2075 -91 
Q 1284 -91 818 406 
Q 353 903 353 1747 
Q 353 2603 823 3093 
Q 1294 3584 2113 3584 
Q 2378 3584 2631 3529 
Q 2884 3475 3122 3366 
z
" transform="scale(0.015625)"/>
      </defs>
      <use xlink:href="#DejaVuSans-74"/>
      <use xlink:href="#DejaVuSans-6f" x="39.208984"/>
      <use xlink:href="#DejaVuSans-74" x="100.390625"/>
      <use xlink:href="#DejaVuSans-61" x="139.599609"/>
      <use xlink:href="#DejaVuSans-6c" x="200.878906"/>
      <use xlink:href="#DejaVuSans-20" x="228.662109"/>
      <use xlink:href="#DejaVuSans-63" x="260.449219"/>
      <use xlink:href="#DejaVuSans-6f" x="315.429688"/>
      <use xlink:href="#DejaVuSans-73" x="376.611328"/>
      <use xlink:href="#DejaVuSans-74" x="428.710938"/>
     </g>
    </g>
   </g>
   <g id="line2d_15">
    <path d="M 73.832727 177.256421 
L 74.029607 177.256421 
L 74.226487 173.618526 
L 74.620246 153.610105 
L 74.817126 151.791158 
L 75.014005 144.515368 
L 75.210885 142.696421 
L 75.407764 142.696421 
L 75.604644 149.972211 
L 75.801524 142.696421 
L 75.998403 155.429053 
L 76.195283 144.515368 
L 76.392163 157.248 
L 76.589042 142.696421 
L 76.785922 149.972211 
L 76.982802 162.704842 
L 77.179681 155.429053 
L 77.376561 153.610105 
L 77.573441 168.161684 
L 77.77032 149.972211 
L 77.9672 162.704842 
L 78.16408 166.342737 
L 78.360959 148.153263 
L 78.557839 149.972211 
L 78.754719 135.420632 
L 79.148478 148.153263 
L 79.345358 162.704842 
L 79.542237 149.972211 
L 79.739117 149.972211 
L 79.935996 137.239579 
L 80.132876 131.782737 
L 80.526635 128.144842 
L 80.723515 119.050105 
L 80.920395 115.412211 
L 81.511034 88.128 
L 81.707913 91.765895 
L 81.904793 91.765895 
L 82.101673 93.584842 
L 82.692312 119.050105 
L 82.889191 133.601684 
L 83.086071 126.325895 
L 83.282951 131.782737 
L 83.47983 109.955368 
L 83.67671 106.317474 
L 84.070469 131.782737 
L 84.464228 124.506947 
L 84.661108 144.515368 
L 84.857988 151.791158 
L 85.251747 133.601684 
L 85.448627 135.420632 
L 85.645506 135.420632 
L 85.842386 119.050105 
L 86.039266 124.506947 
L 86.236145 122.688 
L 86.433025 128.144842 
L 86.629905 122.688 
L 86.826784 126.325895 
L 87.023664 146.334316 
L 87.220544 122.688 
L 87.417423 135.420632 
L 87.614303 131.782737 
L 87.811183 122.688 
L 88.008062 126.325895 
L 88.204942 133.601684 
L 88.401821 135.420632 
L 88.598701 139.058526 
L 88.795581 128.144842 
L 88.99246 128.144842 
L 89.18934 148.153263 
L 89.38622 135.420632 
L 89.583099 133.601684 
L 89.779979 135.420632 
L 89.976859 164.523789 
L 90.173738 148.153263 
L 90.370618 162.704842 
L 90.764377 159.066947 
L 90.961257 153.610105 
L 91.158137 159.066947 
L 91.355016 169.980632 
L 91.551896 168.161684 
L 91.945655 144.515368 
L 92.142535 142.696421 
L 92.339415 129.963789 
L 92.536294 135.420632 
L 92.733174 148.153263 
L 93.126933 191.808 
L 93.323813 184.532211 
L 93.520692 184.532211 
L 93.717572 182.713263 
L 93.914452 179.075368 
L 94.111331 168.161684 
L 94.308211 140.877474 
L 94.505091 144.515368 
L 94.70197 131.782737 
L 94.89885 137.239579 
L 95.09573 111.774316 
L 95.292609 111.774316 
L 95.489489 99.041684 
L 95.686369 106.317474 
L 95.883248 88.128 
L 96.080128 115.412211 
L 96.277008 106.317474 
L 96.473887 102.679579 
L 97.064526 120.869053 
L 97.261406 104.498526 
L 97.458285 115.412211 
L 97.655165 119.050105 
L 97.852045 113.593263 
L 98.048924 113.593263 
L 98.245804 133.601684 
L 98.442684 135.420632 
L 98.639563 129.963789 
L 98.836443 159.066947 
L 99.033323 168.161684 
L 99.230202 146.334316 
L 99.427082 151.791158 
L 99.623962 137.239579 
L 99.820841 135.420632 
L 100.214601 113.593263 
L 100.41148 129.963789 
L 100.60836 119.050105 
L 100.80524 144.515368 
L 101.198999 108.136421 
L 101.395878 102.679579 
L 101.592758 113.593263 
L 101.789638 108.136421 
L 101.986517 91.765895 
L 102.183397 93.584842 
L 102.380277 80.852211 
L 102.577156 75.395368 
L 102.774036 82.671158 
L 103.167795 119.050105 
L 103.364675 122.688 
L 103.561555 109.955368 
L 103.955314 129.963789 
L 104.152194 120.869053 
L 104.349073 122.688 
L 104.545953 119.050105 
L 105.530351 151.791158 
L 106.12099 115.412211 
L 106.514749 137.239579 
L 106.711629 137.239579 
L 106.908509 139.058526 
L 107.105388 126.325895 
L 107.499148 126.325895 
L 107.696027 117.231158 
L 107.892907 99.041684 
L 108.089787 102.679579 
L 108.286666 95.403789 
L 108.483546 97.222737 
L 108.680426 104.498526 
L 108.877305 88.128 
L 109.074185 102.679579 
L 109.271065 106.317474 
L 109.467944 120.869053 
L 109.664824 117.231158 
L 109.861704 129.963789 
L 110.058583 119.050105 
L 110.452342 73.576421 
L 110.649222 69.938526 
L 111.436741 131.782737 
L 111.63362 122.688 
L 112.02738 88.128 
L 112.224259 102.679579 
L 112.421139 104.498526 
L 112.618019 100.860632 
L 112.814898 119.050105 
L 113.208658 97.222737 
L 113.405537 84.490105 
L 113.602417 106.317474 
L 113.799297 86.309053 
L 113.996176 82.671158 
L 114.193056 91.765895 
L 114.389935 80.852211 
L 114.586815 80.852211 
L 114.980574 119.050105 
L 115.177454 139.058526 
L 115.374334 146.334316 
L 115.571213 144.515368 
L 115.768093 153.610105 
L 116.161852 144.515368 
L 116.358732 159.066947 
L 116.949371 148.153263 
L 117.146251 171.799579 
L 117.34313 175.437474 
L 117.54001 157.248 
L 117.73689 160.885895 
L 118.130649 155.429053 
L 118.327529 157.248 
L 118.721288 122.688 
L 118.918167 133.601684 
L 119.311927 99.041684 
L 119.508806 99.041684 
L 119.705686 100.860632 
L 119.902566 91.765895 
L 120.099445 115.412211 
L 120.493205 109.955368 
L 121.083844 159.066947 
L 121.280723 153.610105 
L 121.477603 153.610105 
L 121.674483 148.153263 
L 121.871362 157.248 
L 122.265122 129.963789 
L 122.462001 135.420632 
L 122.658881 144.515368 
L 122.855761 146.334316 
L 123.05264 171.799579 
L 123.446399 180.894316 
L 123.643279 191.808 
L 123.840159 182.713263 
L 124.037038 168.161684 
L 124.233918 182.713263 
L 124.430798 166.342737 
L 124.627677 186.351158 
L 124.824557 169.980632 
L 125.021437 179.075368 
L 125.218316 164.523789 
L 125.415196 175.437474 
L 125.612076 171.799579 
L 125.808955 159.066947 
L 126.005835 173.618526 
L 126.399594 162.704842 
L 126.596474 162.704842 
L 126.793354 157.248 
L 126.990233 159.066947 
L 127.187113 162.704842 
L 127.383993 160.885895 
L 127.580872 148.153263 
L 127.777752 146.334316 
L 127.974631 129.963789 
L 128.171511 124.506947 
L 128.368391 109.955368 
L 128.56527 113.593263 
L 128.76215 86.309053 
L 128.95903 93.584842 
L 129.155909 86.309053 
L 129.352789 84.490105 
L 129.549669 88.128 
L 129.746548 82.671158 
L 130.140308 104.498526 
L 130.337187 126.325895 
L 130.534067 97.222737 
L 130.730947 100.860632 
L 131.124706 126.325895 
L 131.321586 131.782737 
L 131.518465 128.144842 
L 132.109104 95.403789 
L 132.305984 104.498526 
L 132.502863 91.765895 
L 132.699743 89.946947 
L 132.896623 84.490105 
L 133.093502 84.490105 
L 133.290382 75.395368 
L 133.487262 60.843789 
L 133.881021 57.205895 
L 134.077901 60.843789 
L 134.27478 53.568 
L 134.47166 84.490105 
L 134.66854 82.671158 
L 134.865419 93.584842 
L 135.062299 122.688 
L 135.259179 131.782737 
L 135.456058 131.782737 
L 135.652938 124.506947 
L 135.849818 144.515368 
L 136.046697 144.515368 
L 136.243577 153.610105 
L 136.440456 135.420632 
L 136.834216 126.325895 
L 137.031095 144.515368 
L 137.227975 139.058526 
L 137.424855 113.593263 
L 137.621734 115.412211 
L 137.818614 115.412211 
L 138.015494 113.593263 
L 138.409253 128.144842 
L 138.999892 151.791158 
L 139.196772 151.791158 
L 139.590531 166.342737 
L 139.787411 166.342737 
L 139.98429 177.256421 
L 140.574929 140.877474 
L 140.771809 140.877474 
L 140.968688 137.239579 
L 141.165568 148.153263 
L 141.362448 131.782737 
L 141.559327 142.696421 
L 141.756207 140.877474 
L 141.953087 137.239579 
L 142.149966 137.239579 
L 142.346846 153.610105 
L 142.543726 146.334316 
L 142.937485 151.791158 
L 143.134365 151.791158 
L 143.331244 148.153263 
L 143.528124 151.791158 
L 143.725004 146.334316 
L 143.921883 160.885895 
L 144.315643 148.153263 
L 144.512522 149.972211 
L 144.709402 129.963789 
L 144.906281 139.058526 
L 145.103161 139.058526 
L 145.300041 137.239579 
L 145.49692 139.058526 
L 145.6938 153.610105 
L 145.89068 155.429053 
L 146.087559 159.066947 
L 146.284439 142.696421 
L 146.481319 166.342737 
L 146.678198 175.437474 
L 146.875078 177.256421 
L 147.071958 182.713263 
L 147.268837 148.153263 
L 147.465717 140.877474 
L 147.662597 149.972211 
L 147.859476 153.610105 
L 148.056356 148.153263 
L 148.646995 122.688 
L 148.843875 120.869053 
L 149.040754 115.412211 
L 149.237634 115.412211 
L 149.434513 135.420632 
L 149.631393 139.058526 
L 150.222032 108.136421 
L 150.418912 88.128 
L 150.615791 82.671158 
L 150.812671 80.852211 
L 151.20643 99.041684 
L 151.40331 95.403789 
L 151.60019 95.403789 
L 151.797069 108.136421 
L 152.190829 119.050105 
L 152.387708 91.765895 
L 152.584588 91.765895 
L 152.781468 93.584842 
L 152.978347 97.222737 
L 153.175227 95.403789 
L 153.372107 117.231158 
L 153.568986 111.774316 
L 153.765866 122.688 
L 153.962745 122.688 
L 154.553384 146.334316 
L 154.750264 133.601684 
L 154.947144 135.420632 
L 155.537783 148.153263 
L 155.734662 168.161684 
L 155.931542 164.523789 
L 156.128422 164.523789 
L 156.325301 131.782737 
L 156.522181 129.963789 
L 156.719061 133.601684 
L 156.91594 120.869053 
L 157.3097 111.774316 
L 157.506579 113.593263 
L 157.703459 104.498526 
L 158.097218 97.222737 
L 158.490977 108.136421 
L 158.884737 113.593263 
L 159.081616 109.955368 
L 159.278496 111.774316 
L 159.475376 115.412211 
L 159.672255 129.963789 
L 159.869135 115.412211 
L 160.066015 117.231158 
L 160.262894 129.963789 
L 160.459774 135.420632 
L 160.656654 155.429053 
L 160.853533 149.972211 
L 161.050413 151.791158 
L 161.247293 148.153263 
L 161.444172 151.791158 
L 161.641052 164.523789 
L 161.837932 164.523789 
L 162.034811 159.066947 
L 162.231691 131.782737 
L 162.42857 126.325895 
L 162.62545 146.334316 
L 162.82233 146.334316 
L 163.216089 157.248 
L 163.412969 155.429053 
L 163.609848 162.704842 
L 163.806728 146.334316 
L 164.003608 144.515368 
L 164.200487 164.523789 
L 164.397367 169.980632 
L 164.594247 168.161684 
L 164.791126 157.248 
L 165.184886 157.248 
L 165.381765 159.066947 
L 165.775525 142.696421 
L 165.972404 140.877474 
L 166.169284 148.153263 
L 166.366164 148.153263 
L 166.563043 175.437474 
L 166.759923 186.351158 
L 166.956802 186.351158 
L 167.153682 171.799579 
L 167.547441 186.351158 
L 167.744321 184.532211 
L 167.941201 197.264842 
L 168.13808 188.170105 
L 168.33496 195.445895 
L 168.53184 184.532211 
L 168.728719 188.170105 
L 169.122479 177.256421 
L 169.319358 188.170105 
L 169.516238 186.351158 
L 169.909997 166.342737 
L 170.106877 164.523789 
L 170.303757 164.523789 
L 170.500636 166.342737 
L 170.697516 162.704842 
L 170.894396 164.523789 
L 171.091275 162.704842 
L 171.288155 173.618526 
L 171.485034 173.618526 
L 171.681914 175.437474 
L 171.878794 186.351158 
L 172.075673 173.618526 
L 172.272553 169.980632 
L 172.469433 151.791158 
L 172.666312 148.153263 
L 172.863192 157.248 
L 173.060072 146.334316 
L 173.256951 159.066947 
L 173.453831 139.058526 
L 173.650711 139.058526 
L 173.84759 124.506947 
L 174.04447 128.144842 
L 174.24135 126.325895 
L 174.438229 129.963789 
L 174.831989 177.256421 
L 175.028868 180.894316 
L 175.225748 155.429053 
L 175.422627 166.342737 
L 175.619507 169.980632 
L 175.816387 169.980632 
L 176.210146 149.972211 
L 176.407026 160.885895 
L 176.603905 151.791158 
L 176.800785 148.153263 
L 177.194544 159.066947 
L 177.391424 157.248 
L 177.588304 168.161684 
L 177.785183 153.610105 
L 177.982063 148.153263 
L 178.178943 146.334316 
L 178.572702 129.963789 
L 178.966461 142.696421 
L 179.360221 148.153263 
L 179.5571 164.523789 
L 179.75398 159.066947 
L 179.950859 180.894316 
L 180.147739 180.894316 
L 180.541498 153.610105 
L 180.738378 160.885895 
L 180.935258 186.351158 
L 181.132137 177.256421 
L 181.329017 189.989053 
L 181.919656 166.342737 
L 182.116536 133.601684 
L 182.510295 124.506947 
L 182.904054 155.429053 
L 183.100934 149.972211 
L 183.691573 186.351158 
L 184.282212 160.885895 
L 184.479091 168.161684 
L 184.675971 180.894316 
L 185.06973 169.980632 
L 185.26661 155.429053 
L 185.46349 149.972211 
L 185.660369 126.325895 
L 185.857249 129.963789 
L 186.054129 113.593263 
L 186.251008 128.144842 
L 186.447888 100.860632 
L 186.644768 91.765895 
L 186.841647 73.576421 
L 187.038527 68.119579 
L 187.235407 69.938526 
L 187.432286 139.058526 
L 187.629166 139.058526 
L 187.826046 140.877474 
L 188.022925 157.248 
L 188.219805 153.610105 
L 188.416684 146.334316 
L 188.613564 151.791158 
L 188.810444 160.885895 
L 189.007323 146.334316 
L 189.204203 188.170105 
L 189.401083 188.170105 
L 189.597962 175.437474 
L 189.794842 197.264842 
L 189.991722 204.540632 
L 190.188601 217.273263 
L 190.385481 222.730105 
L 190.582361 219.092211 
L 190.77924 220.911158 
L 190.97612 213.635368 
L 191.173 251.833263 
L 191.369879 250.014316 
L 191.566759 251.833263 
L 192.157398 215.454316 
L 192.354278 191.808 
L 192.551157 182.713263 
L 192.748037 186.351158 
L 192.944916 180.894316 
L 193.535555 144.515368 
L 193.732435 146.334316 
L 193.929315 160.885895 
L 194.126194 155.429053 
L 194.323074 166.342737 
L 194.519954 159.066947 
L 194.716833 164.523789 
L 194.913713 159.066947 
L 195.110593 173.618526 
L 195.504352 168.161684 
L 195.701232 155.429053 
L 196.094991 164.523789 
L 196.48875 144.515368 
L 196.68563 137.239579 
L 196.88251 148.153263 
L 197.079389 133.601684 
L 197.276269 157.248 
L 197.473148 160.885895 
L 197.670028 149.972211 
L 197.866908 155.429053 
L 198.063787 173.618526 
L 198.260667 162.704842 
L 198.457547 160.885895 
L 198.654426 164.523789 
L 198.851306 164.523789 
L 199.048186 177.256421 
L 199.245065 173.618526 
L 199.638825 177.256421 
L 199.835704 175.437474 
L 200.032584 182.713263 
L 200.229464 184.532211 
L 200.623223 177.256421 
L 200.820103 180.894316 
L 201.016982 169.980632 
L 201.213862 171.799579 
L 201.410741 166.342737 
L 201.607621 177.256421 
L 201.804501 160.885895 
L 202.00138 180.894316 
L 202.19826 182.713263 
L 202.39514 175.437474 
L 202.788899 184.532211 
L 203.379538 155.429053 
L 203.576418 157.248 
L 203.970177 153.610105 
L 204.167057 139.058526 
L 204.363936 153.610105 
L 204.560816 149.972211 
L 204.757696 157.248 
L 204.954575 157.248 
L 205.151455 140.877474 
L 205.348335 148.153263 
L 205.545214 117.231158 
L 205.742094 108.136421 
L 205.938973 113.593263 
L 206.135853 126.325895 
L 206.332733 129.963789 
L 206.529612 148.153263 
L 206.726492 155.429053 
L 206.923372 169.980632 
L 207.120251 151.791158 
L 207.514011 169.980632 
L 207.71089 149.972211 
L 207.90777 151.791158 
L 208.10465 159.066947 
L 208.301529 157.248 
L 208.498409 142.696421 
L 208.695289 142.696421 
L 208.892168 148.153263 
L 209.089048 129.963789 
L 209.285928 122.688 
L 209.482807 128.144842 
L 209.876567 119.050105 
L 210.073446 120.869053 
L 210.467205 115.412211 
L 210.860965 97.222737 
L 211.057844 104.498526 
L 211.254724 104.498526 
L 211.451604 115.412211 
L 211.648483 133.601684 
L 211.845363 135.420632 
L 212.042243 139.058526 
L 212.239122 137.239579 
L 212.436002 126.325895 
L 212.632882 126.325895 
L 213.026641 142.696421 
L 213.223521 133.601684 
L 213.4204 104.498526 
L 213.61728 99.041684 
L 213.81416 111.774316 
L 214.207919 122.688 
L 214.404799 120.869053 
L 214.601678 135.420632 
L 214.798558 133.601684 
L 214.995437 148.153263 
L 215.389197 151.791158 
L 215.586076 142.696421 
L 215.782956 164.523789 
L 215.979836 169.980632 
L 216.176715 149.972211 
L 216.373595 146.334316 
L 216.570475 155.429053 
L 216.767354 153.610105 
L 216.964234 159.066947 
L 217.161114 159.066947 
L 217.357993 139.058526 
L 217.554873 142.696421 
L 217.751753 131.782737 
L 217.948632 128.144842 
L 218.145512 148.153263 
L 218.342392 144.515368 
L 218.539271 137.239579 
L 218.736151 151.791158 
L 219.12991 157.248 
L 219.32679 182.713263 
L 219.523669 175.437474 
L 219.720549 162.704842 
L 220.114308 193.626947 
L 220.311188 179.075368 
L 220.508068 186.351158 
L 220.704947 182.713263 
L 220.901827 199.083789 
L 221.295586 186.351158 
L 221.492466 175.437474 
L 221.689346 179.075368 
L 221.886225 188.170105 
L 222.279985 180.894316 
L 222.476864 189.989053 
L 222.673744 191.808 
L 222.870624 189.989053 
L 223.067503 157.248 
L 223.264383 162.704842 
L 223.461262 200.902737 
L 223.658142 206.359579 
L 223.855022 200.902737 
L 224.051901 184.532211 
L 224.248781 188.170105 
L 224.445661 202.721684 
L 224.64254 200.902737 
L 224.83942 206.359579 
L 225.0363 206.359579 
L 225.233179 220.911158 
L 225.430059 209.997474 
L 225.626939 209.997474 
L 225.823818 204.540632 
L 226.020698 202.721684 
L 226.217578 206.359579 
L 226.414457 193.626947 
L 226.611337 195.445895 
L 226.808217 206.359579 
L 227.005096 186.351158 
L 227.201976 186.351158 
L 227.398856 189.989053 
L 227.595735 197.264842 
L 227.792615 184.532211 
L 227.989494 182.713263 
L 228.186374 168.161684 
L 228.383254 144.515368 
L 228.580133 162.704842 
L 228.777013 164.523789 
L 228.973893 169.980632 
L 229.170772 189.989053 
L 229.367652 186.351158 
L 229.564532 197.264842 
L 229.761411 195.445895 
L 230.54893 195.445895 
L 230.74581 193.626947 
L 230.942689 197.264842 
L 231.139569 175.437474 
L 231.336449 173.618526 
L 231.533328 164.523789 
L 231.730208 139.058526 
L 231.927087 133.601684 
L 232.123967 133.601684 
L 232.320847 140.877474 
L 232.517726 131.782737 
L 232.714606 139.058526 
L 232.911486 151.791158 
L 233.305245 151.791158 
L 233.502125 131.782737 
L 233.699004 146.334316 
L 233.895884 171.799579 
L 234.092764 179.075368 
L 234.486523 146.334316 
L 234.683403 148.153263 
L 234.880282 148.153263 
L 235.077162 160.885895 
L 235.274042 160.885895 
L 235.470921 149.972211 
L 235.667801 149.972211 
L 236.06156 137.239579 
L 236.25844 140.877474 
L 236.652199 124.506947 
L 236.849079 133.601684 
L 237.242838 126.325895 
L 237.833477 137.239579 
L 238.030357 135.420632 
L 238.227236 166.342737 
L 238.424116 166.342737 
L 238.620996 182.713263 
L 239.014755 148.153263 
L 239.408514 131.782737 
L 239.605394 131.782737 
L 239.802274 122.688 
L 239.999153 128.144842 
L 240.196033 128.144842 
L 240.392913 137.239579 
L 240.589792 126.325895 
L 240.786672 106.317474 
L 240.983551 113.593263 
L 241.180431 108.136421 
L 241.57419 117.231158 
L 241.77107 137.239579 
L 241.96795 144.515368 
L 242.164829 128.144842 
L 242.558589 164.523789 
L 242.755468 146.334316 
L 242.952348 155.429053 
L 243.149228 153.610105 
L 243.346107 129.963789 
L 243.542987 140.877474 
L 243.739867 169.980632 
L 243.936746 164.523789 
L 244.133626 171.799579 
L 244.330506 164.523789 
L 244.527385 164.523789 
L 244.724265 171.799579 
L 244.921144 162.704842 
L 245.118024 168.161684 
L 245.314904 186.351158 
L 245.511783 188.170105 
L 245.708663 171.799579 
L 245.905543 188.170105 
L 246.299302 159.066947 
L 246.496182 157.248 
L 246.693061 153.610105 
L 246.889941 146.334316 
L 247.086821 133.601684 
L 247.48058 173.618526 
L 247.67746 171.799579 
L 247.874339 162.704842 
L 248.268099 139.058526 
L 248.464978 144.515368 
L 248.661858 142.696421 
L 248.858738 120.869053 
L 249.055617 119.050105 
L 249.252497 115.412211 
L 249.449376 119.050105 
L 249.646256 117.231158 
L 249.843136 102.679579 
L 250.040015 102.679579 
L 250.236895 133.601684 
L 250.433775 142.696421 
L 250.630654 140.877474 
L 250.827534 140.877474 
L 251.024414 120.869053 
L 251.221293 119.050105 
L 251.418173 119.050105 
L 251.615053 137.239579 
L 251.811932 128.144842 
L 252.008812 142.696421 
L 252.205692 137.239579 
L 252.402571 140.877474 
L 252.796331 106.317474 
L 252.99321 108.136421 
L 253.19009 117.231158 
L 253.38697 148.153263 
L 253.780729 126.325895 
L 253.977608 133.601684 
L 254.174488 128.144842 
L 254.568247 151.791158 
L 254.962007 159.066947 
L 255.355766 153.610105 
L 255.552646 135.420632 
L 255.946405 124.506947 
L 256.143285 120.869053 
L 256.537044 137.239579 
L 256.733924 169.980632 
L 256.930803 164.523789 
L 257.127683 168.161684 
L 257.324563 139.058526 
L 257.521442 131.782737 
L 257.718322 119.050105 
L 257.915201 119.050105 
L 258.112081 120.869053 
L 258.308961 124.506947 
L 258.50584 139.058526 
L 258.70272 133.601684 
L 258.8996 144.515368 
L 259.096479 148.153263 
L 259.293359 148.153263 
L 259.490239 144.515368 
L 259.687118 155.429053 
L 259.883998 139.058526 
L 260.080878 137.239579 
L 260.277757 164.523789 
L 260.474637 162.704842 
L 260.671517 171.799579 
L 260.868396 160.885895 
L 261.065276 180.894316 
L 261.655915 171.799579 
L 261.852795 162.704842 
L 262.049674 162.704842 
L 262.246554 153.610105 
L 262.443433 133.601684 
L 262.640313 140.877474 
L 262.837193 128.144842 
L 263.034072 126.325895 
L 263.230952 140.877474 
L 263.427832 137.239579 
L 264.018471 160.885895 
L 264.21535 159.066947 
L 264.41223 164.523789 
L 264.60911 173.618526 
L 264.805989 175.437474 
L 265.002869 171.799579 
L 265.199749 175.437474 
L 265.593508 191.808 
L 265.790388 177.256421 
L 265.987267 173.618526 
L 266.184147 159.066947 
L 266.577906 159.066947 
L 266.774786 168.161684 
L 266.971665 171.799579 
L 267.168545 169.980632 
L 267.365425 162.704842 
L 267.562304 146.334316 
L 267.759184 159.066947 
L 267.956064 153.610105 
L 268.546703 164.523789 
L 268.743582 149.972211 
L 269.137342 111.774316 
L 269.334221 120.869053 
L 269.727981 111.774316 
L 269.92486 120.869053 
L 270.12174 119.050105 
L 270.31862 104.498526 
L 270.515499 102.679579 
L 270.712379 111.774316 
L 271.106138 80.852211 
L 271.303018 88.128 
L 271.499897 100.860632 
L 271.696777 129.963789 
L 271.893657 124.506947 
L 272.090536 122.688 
L 272.287416 135.420632 
L 272.484296 137.239579 
L 272.681175 137.239579 
L 273.074935 133.601684 
L 273.271814 133.601684 
L 273.468694 151.791158 
L 273.665574 153.610105 
L 274.059333 129.963789 
L 274.256213 129.963789 
L 274.649972 146.334316 
L 274.846852 133.601684 
L 275.043731 109.955368 
L 275.240611 124.506947 
L 275.43749 119.050105 
L 275.63437 119.050105 
L 275.83125 124.506947 
L 276.028129 122.688 
L 276.225009 129.963789 
L 276.421889 149.972211 
L 276.618768 144.515368 
L 276.815648 135.420632 
L 277.012528 144.515368 
L 277.406287 149.972211 
L 277.603167 164.523789 
L 277.800046 169.980632 
L 277.996926 169.980632 
L 278.193806 171.799579 
L 278.390685 144.515368 
L 278.587565 146.334316 
L 278.784445 144.515368 
L 278.981324 157.248 
L 279.375084 157.248 
L 279.571963 144.515368 
L 279.768843 139.058526 
L 279.965722 142.696421 
L 280.162602 151.791158 
L 280.556361 142.696421 
L 280.753241 149.972211 
L 280.950121 144.515368 
L 281.147 148.153263 
L 281.34388 146.334316 
L 281.54076 148.153263 
L 281.737639 151.791158 
L 281.934519 133.601684 
L 282.131399 131.782737 
L 282.328278 139.058526 
L 282.525158 135.420632 
L 282.722038 142.696421 
L 282.918917 140.877474 
L 283.312677 131.782737 
L 283.509556 129.963789 
L 284.100195 153.610105 
L 284.493954 140.877474 
L 284.690834 157.248 
L 284.887714 184.532211 
L 285.084593 186.351158 
L 285.281473 184.532211 
L 285.675232 173.618526 
L 285.872112 175.437474 
L 286.265871 139.058526 
L 286.462751 157.248 
L 286.659631 155.429053 
L 286.85651 144.515368 
L 287.05339 157.248 
L 287.25027 162.704842 
L 287.644029 184.532211 
L 287.840909 199.083789 
L 288.037788 204.540632 
L 288.234668 206.359579 
L 288.431547 184.532211 
L 288.628427 186.351158 
L 288.825307 177.256421 
L 289.219066 204.540632 
L 289.415946 191.808 
L 289.612825 202.721684 
L 289.809705 204.540632 
L 290.006585 200.902737 
L 290.203464 171.799579 
L 290.597224 153.610105 
L 290.794103 157.248 
L 290.990983 151.791158 
L 291.187863 159.066947 
L 291.581622 199.083789 
L 291.778502 191.808 
L 291.975381 191.808 
L 292.369141 206.359579 
L 292.56602 206.359579 
L 292.7629 193.626947 
L 292.959779 215.454316 
L 293.156659 206.359579 
L 293.353539 208.178526 
L 293.550418 202.721684 
L 293.747298 193.626947 
L 294.141057 202.721684 
L 294.337937 195.445895 
L 294.534817 195.445895 
L 294.731696 182.713263 
L 294.928576 160.885895 
L 295.125456 162.704842 
L 295.322335 139.058526 
L 295.912974 164.523789 
L 296.306734 148.153263 
L 296.503613 155.429053 
L 296.700493 142.696421 
L 296.897373 153.610105 
L 297.094252 157.248 
L 297.291132 151.791158 
L 297.488011 162.704842 
L 297.684891 164.523789 
L 298.07865 193.626947 
L 298.27553 199.083789 
L 298.47241 186.351158 
L 298.669289 186.351158 
L 298.866169 180.894316 
L 299.063049 182.713263 
L 299.259928 179.075368 
L 299.456808 168.161684 
L 299.653688 168.161684 
L 299.850567 162.704842 
L 300.047447 166.342737 
L 300.244327 148.153263 
L 300.441206 157.248 
L 300.638086 171.799579 
L 301.031845 148.153263 
L 301.228725 149.972211 
L 301.622484 129.963789 
L 301.819364 139.058526 
L 302.213123 142.696421 
L 302.410003 142.696421 
L 302.606882 140.877474 
L 302.803762 135.420632 
L 303.000642 113.593263 
L 303.197521 133.601684 
L 303.591281 113.593263 
L 303.78816 119.050105 
L 303.98504 131.782737 
L 304.18192 124.506947 
L 304.378799 109.955368 
L 304.575679 120.869053 
L 304.772559 120.869053 
L 304.969438 146.334316 
L 305.166318 146.334316 
L 305.363198 137.239579 
L 305.560077 142.696421 
L 305.953836 160.885895 
L 306.150716 148.153263 
L 306.347596 126.325895 
L 306.544475 155.429053 
L 306.741355 159.066947 
L 306.938235 151.791158 
L 307.135114 151.791158 
L 307.331994 160.885895 
L 307.528874 142.696421 
L 307.725753 144.515368 
L 307.922633 149.972211 
L 308.119513 173.618526 
L 308.316392 169.980632 
L 308.907031 151.791158 
L 309.103911 155.429053 
L 309.300791 155.429053 
L 309.69455 129.963789 
L 309.89143 133.601684 
L 310.285189 117.231158 
L 310.482068 137.239579 
L 310.875828 120.869053 
L 311.072707 104.498526 
L 311.269587 129.963789 
L 311.860226 111.774316 
L 312.057106 106.317474 
L 312.253985 122.688 
L 312.450865 122.688 
L 312.647745 164.523789 
L 313.041504 160.885895 
L 313.238384 166.342737 
L 313.632143 157.248 
L 314.025902 166.342737 
L 314.222782 204.540632 
L 314.419662 209.997474 
L 314.616541 220.911158 
L 314.813421 219.092211 
L 315.0103 219.092211 
L 315.20718 215.454316 
L 315.600939 239.100632 
L 315.994699 235.462737 
L 316.585338 219.092211 
L 316.782217 235.462737 
L 316.979097 222.730105 
L 317.175977 242.738526 
L 317.372856 246.376421 
L 317.569736 226.368 
L 317.766616 226.368 
L 317.963495 228.186947 
L 318.160375 226.368 
L 318.554134 208.178526 
L 319.144773 251.833263 
L 319.341653 239.100632 
L 319.538532 248.195368 
L 319.932292 226.368 
L 320.129171 220.911158 
L 320.326051 224.549053 
L 320.522931 217.273263 
L 320.71981 204.540632 
L 320.91669 200.902737 
L 321.310449 206.359579 
L 321.507329 204.540632 
L 321.704209 211.816421 
L 321.901088 189.989053 
L 322.097968 186.351158 
L 322.294848 200.902737 
L 322.491727 188.170105 
L 322.688607 189.989053 
L 322.885487 180.894316 
L 323.082366 191.808 
L 323.279246 182.713263 
L 323.476125 191.808 
L 323.869885 177.256421 
L 324.066764 195.445895 
L 324.263644 197.264842 
L 324.460524 204.540632 
L 324.657403 202.721684 
L 325.051163 195.445895 
L 325.444922 213.635368 
L 325.838681 197.264842 
L 326.035561 206.359579 
L 326.42932 213.635368 
L 326.6262 206.359579 
L 326.82308 211.816421 
L 327.019959 226.368 
L 327.216839 230.005895 
L 327.413719 230.005895 
L 327.610598 235.462737 
L 327.807478 224.549053 
L 328.004357 222.730105 
L 328.201237 222.730105 
L 328.398117 217.273263 
L 328.594996 219.092211 
L 328.988756 215.454316 
L 329.185635 211.816421 
L 329.382515 211.816421 
L 329.579395 206.359579 
L 329.776274 206.359579 
L 329.973154 211.816421 
L 330.760673 179.075368 
L 330.957552 186.351158 
L 331.154432 186.351158 
L 331.351312 191.808 
L 331.548191 186.351158 
L 331.745071 193.626947 
L 332.532589 168.161684 
L 332.729469 175.437474 
L 332.926349 173.618526 
L 333.123228 169.980632 
L 333.320108 191.808 
L 333.516988 188.170105 
L 333.910747 197.264842 
L 334.304506 213.635368 
L 334.501386 208.178526 
L 334.698266 215.454316 
L 334.895145 204.540632 
L 335.092025 204.540632 
L 335.288905 197.264842 
L 335.485784 199.083789 
L 335.682664 206.359579 
L 335.879544 206.359579 
L 336.470182 239.100632 
L 336.667062 224.549053 
L 336.863942 220.911158 
L 337.060821 222.730105 
L 337.454581 235.462737 
L 337.65146 237.281684 
L 337.84834 228.186947 
L 338.04522 224.549053 
L 338.242099 213.635368 
L 338.438979 213.635368 
L 338.832738 222.730105 
L 339.029618 230.005895 
L 339.423377 199.083789 
L 339.620257 209.997474 
L 339.817137 213.635368 
L 340.014016 204.540632 
L 340.407776 197.264842 
L 340.801535 226.368 
L 340.998414 226.368 
L 341.195294 228.186947 
L 341.392174 224.549053 
L 341.589053 230.005895 
L 341.785933 220.911158 
L 341.982813 222.730105 
L 342.179692 211.816421 
L 342.573452 208.178526 
L 342.770331 215.454316 
L 342.967211 215.454316 
L 343.164091 239.100632 
L 343.36097 242.738526 
L 343.55785 239.100632 
L 343.75473 228.186947 
L 344.148489 228.186947 
L 344.542248 250.014316 
L 344.739128 242.738526 
L 344.936007 228.186947 
L 345.132887 244.557474 
L 345.329767 239.100632 
L 345.526646 226.368 
L 345.723526 231.824842 
L 345.920406 222.730105 
L 346.117285 220.911158 
L 346.314165 239.100632 
L 346.511045 244.557474 
L 346.707924 244.557474 
L 346.904804 248.195368 
L 347.101684 217.273263 
L 347.495443 222.730105 
L 347.692323 217.273263 
L 347.889202 217.273263 
L 348.086082 220.911158 
L 348.282962 231.824842 
L 348.479841 226.368 
L 348.676721 226.368 
L 348.873601 228.186947 
L 349.07048 233.643789 
L 349.26736 259.109053 
L 349.661119 262.746947 
L 349.857999 259.109053 
L 350.251758 239.100632 
L 350.448638 239.100632 
L 350.645517 230.005895 
L 350.842397 233.643789 
L 351.039277 230.005895 
L 351.236156 199.083789 
L 351.433036 197.264842 
L 351.629916 206.359579 
L 351.826795 193.626947 
L 352.023675 197.264842 
L 352.220555 206.359579 
L 352.417434 200.902737 
L 352.614314 199.083789 
L 352.811194 202.721684 
L 353.008073 195.445895 
L 353.204953 193.626947 
L 353.598712 215.454316 
L 353.795592 209.997474 
L 353.992471 211.816421 
L 354.189351 211.816421 
L 354.386231 222.730105 
L 354.58311 219.092211 
L 354.77999 209.997474 
L 354.97687 209.997474 
L 355.173749 226.368 
L 355.370629 228.186947 
L 355.764388 251.833263 
L 355.961268 244.557474 
L 356.158148 262.746947 
L 356.355027 266.384842 
L 356.551907 266.384842 
L 356.748787 259.109053 
L 356.945666 266.384842 
L 357.142546 250.014316 
L 357.536305 259.109053 
L 357.733185 248.195368 
L 357.930065 255.471158 
L 358.126944 231.824842 
L 358.323824 235.462737 
L 358.520703 242.738526 
L 358.717583 240.919579 
L 358.914463 231.824842 
L 359.111342 230.005895 
L 359.308222 230.005895 
L 359.505102 228.186947 
L 359.701981 219.092211 
L 359.898861 222.730105 
L 360.095741 202.721684 
L 360.29262 197.264842 
L 360.4895 204.540632 
L 360.68638 219.092211 
L 360.883259 224.549053 
L 361.080139 215.454316 
L 361.277019 222.730105 
L 361.473898 211.816421 
L 361.867658 206.359579 
L 362.064537 211.816421 
L 362.261417 208.178526 
L 362.458296 213.635368 
L 362.655176 233.643789 
L 362.852056 215.454316 
L 363.048935 228.186947 
L 363.245815 233.643789 
L 363.442695 231.824842 
L 363.639574 235.462737 
L 363.836454 226.368 
L 364.033334 231.824842 
L 364.230213 224.549053 
L 364.427093 222.730105 
L 364.820852 228.186947 
L 365.017732 219.092211 
L 365.214612 217.273263 
L 365.411491 206.359579 
L 365.608371 208.178526 
L 365.805251 208.178526 
L 366.00213 215.454316 
L 366.19901 233.643789 
L 366.39589 231.824842 
L 366.592769 219.092211 
L 366.789649 230.005895 
L 366.986528 219.092211 
L 367.183408 235.462737 
L 367.380288 230.005895 
L 367.577167 228.186947 
L 367.970927 240.919579 
L 368.167806 240.919579 
L 368.364686 242.738526 
L 368.561566 239.100632 
L 368.758445 239.100632 
L 368.955325 237.281684 
L 369.152205 233.643789 
L 369.545964 215.454316 
L 369.742844 220.911158 
L 369.939723 215.454316 
L 370.136603 204.540632 
L 370.333483 206.359579 
L 370.530362 209.997474 
L 370.727242 230.005895 
L 370.924122 219.092211 
L 371.121001 217.273263 
L 371.317881 209.997474 
L 371.51476 213.635368 
L 371.71164 211.816421 
L 371.90852 211.816421 
L 372.499159 226.368 
L 372.892918 195.445895 
L 373.089798 191.808 
L 373.286677 195.445895 
L 373.483557 191.808 
L 373.680437 197.264842 
L 373.877316 189.989053 
L 374.074196 191.808 
L 374.467955 197.264842 
L 374.664835 206.359579 
L 374.861715 202.721684 
L 375.058594 211.816421 
L 375.452353 199.083789 
L 375.649233 200.902737 
L 375.846113 206.359579 
L 376.042992 208.178526 
L 376.239872 199.083789 
L 376.633631 199.083789 
L 376.830511 200.902737 
L 377.027391 208.178526 
L 377.22427 200.902737 
L 377.42115 180.894316 
L 377.814909 184.532211 
L 378.011789 175.437474 
L 378.208669 173.618526 
L 378.405548 159.066947 
L 378.602428 169.980632 
L 378.799308 193.626947 
L 378.996187 199.083789 
L 379.193067 188.170105 
L 379.389947 200.902737 
L 379.586826 206.359579 
L 379.980585 199.083789 
L 380.177465 215.454316 
L 380.374345 211.816421 
L 380.571224 211.816421 
L 380.768104 213.635368 
L 381.161863 222.730105 
L 381.358743 237.281684 
L 381.555623 224.549053 
L 381.752502 228.186947 
L 381.949382 226.368 
L 382.146262 228.186947 
L 382.343141 224.549053 
L 382.736901 237.281684 
L 382.93378 231.824842 
L 383.13066 235.462737 
L 383.524419 230.005895 
L 383.721299 230.005895 
L 383.918179 228.186947 
L 384.115058 235.462737 
L 384.311938 235.462737 
L 384.508817 239.100632 
L 384.705697 239.100632 
L 384.902577 226.368 
L 385.099456 233.643789 
L 385.296336 235.462737 
L 385.493216 231.824842 
L 385.690095 222.730105 
L 385.886975 237.281684 
L 386.083855 242.738526 
L 386.477614 246.376421 
L 386.674494 239.100632 
L 386.871373 260.928 
L 387.068253 257.290105 
L 387.265133 257.290105 
L 387.462012 255.471158 
L 387.658892 270.022737 
L 387.855772 264.565895 
L 388.052651 264.565895 
L 388.249531 268.203789 
L 388.44641 262.746947 
L 388.84017 262.746947 
L 389.037049 255.471158 
L 389.233929 253.652211 
L 389.430809 262.746947 
L 389.824568 259.109053 
L 390.218327 262.746947 
L 390.612087 259.109053 
L 390.808966 259.109053 
L 391.005846 257.290105 
L 391.202726 257.290105 
L 391.399605 264.565895 
L 391.596485 257.290105 
L 391.793365 259.109053 
L 392.187124 248.195368 
L 392.384004 266.384842 
L 392.580883 266.384842 
L 392.777763 257.290105 
L 393.171522 257.290105 
L 393.565281 240.919579 
L 393.762161 246.376421 
L 393.959041 255.471158 
L 394.15592 253.652211 
L 394.54968 262.746947 
L 394.746559 255.471158 
L 394.943439 262.746947 
L 395.534078 268.203789 
L 395.730958 257.290105 
L 395.927837 273.660632 
L 396.124717 279.117474 
L 396.321597 275.479579 
L 396.518476 295.488 
L 396.715356 291.850105 
L 396.912236 291.850105 
L 397.305995 271.841684 
L 397.502874 271.841684 
L 397.699754 290.031158 
L 397.896634 275.479579 
L 398.093513 279.117474 
L 398.487273 257.290105 
L 398.487273 257.290105 
" clip-path="url(#p7c123c681a)" style="fill: none; stroke: #1f77b4; stroke-width: 1.5; stroke-linecap: square"/>
   </g>
   <g id="patch_3">
    <path d="M 57.6 307.584 
L 57.6 41.472 
" style="fill: none; stroke: #000000; stroke-width: 0.8; stroke-linejoin: miter; stroke-linecap: square"/>
   </g>
   <g id="patch_4">
    <path d="M 414.72 307.584 
L 414.72 41.472 
" style="fill: none; stroke: #000000; stroke-width: 0.8; stroke-linejoin: miter; stroke-linecap: square"/>
   </g>
   <g id="patch_5">
    <path d="M 57.6 307.584 
L 414.72 307.584 
" style="fill: none; stroke: #000000; stroke-width: 0.8; stroke-linejoin: miter; stroke-linecap: square"/>
   </g>
   <g id="patch_6">
    <path d="M 57.6 41.472 
L 414.72 41.472 
" style="fill: none; stroke: #000000; stroke-width: 0.8; stroke-linejoin: miter; stroke-linecap: square"/>
   </g>
   <g id="text_17">
    <!-- Simulated Anealling Cost -->
    <g transform="translate(160.8 35.472)scale(0.12 -0.12)">
     <defs>
      <path id="DejaVuSans-53" d="M 3425 4513 
L 3425 3897 
Q 3066 4069 2747 4153 
Q 2428 4238 2131 4238 
Q 1616 4238 1336 4038 
Q 1056 3838 1056 3469 
Q 1056 3159 1242 3001 
Q 1428 2844 1947 2747 
L 2328 2669 
Q 3034 2534 3370 2195 
Q 3706 1856 3706 1288 
Q 3706 609 3251 259 
Q 2797 -91 1919 -91 
Q 1588 -91 1214 -16 
Q 841 59 441 206 
L 441 856 
Q 825 641 1194 531 
Q 1563 422 1919 422 
Q 2459 422 2753 634 
Q 3047 847 3047 1241 
Q 3047 1584 2836 1778 
Q 2625 1972 2144 2069 
L 1759 2144 
Q 1053 2284 737 2584 
Q 422 2884 422 3419 
Q 422 4038 858 4394 
Q 1294 4750 2059 4750 
Q 2388 4750 2728 4690 
Q 3069 4631 3425 4513 
z
" transform="scale(0.015625)"/>
      <path id="DejaVuSans-69" d="M 603 3500 
L 1178 3500 
L 1178 0 
L 603 0 
L 603 3500 
z
M 603 4863 
L 1178 4863 
L 1178 4134 
L 603 4134 
L 603 4863 
z
" transform="scale(0.015625)"/>
      <path id="DejaVuSans-65" d="M 3597 1894 
L 3597 1613 
L 953 1613 
Q 991 1019 1311 708 
Q 1631 397 2203 397 
Q 2534 397 2845 478 
Q 3156 559 3463 722 
L 3463 178 
Q 3153 47 2828 -22 
Q 2503 -91 2169 -91 
Q 1331 -91 842 396 
Q 353 884 353 1716 
Q 353 2575 817 3079 
Q 1281 3584 2069 3584 
Q 2775 3584 3186 3129 
Q 3597 2675 3597 1894 
z
M 3022 2063 
Q 3016 2534 2758 2815 
Q 2500 3097 2075 3097 
Q 1594 3097 1305 2825 
Q 1016 2553 972 2059 
L 3022 2063 
z
" transform="scale(0.015625)"/>
      <path id="DejaVuSans-64" d="M 2906 2969 
L 2906 4863 
L 3481 4863 
L 3481 0 
L 2906 0 
L 2906 525 
Q 2725 213 2448 61 
Q 2172 -91 1784 -91 
Q 1150 -91 751 415 
Q 353 922 353 1747 
Q 353 2572 751 3078 
Q 1150 3584 1784 3584 
Q 2172 3584 2448 3432 
Q 2725 3281 2906 2969 
z
M 947 1747 
Q 947 1113 1208 752 
Q 1469 391 1925 391 
Q 2381 391 2643 752 
Q 2906 1113 2906 1747 
Q 2906 2381 2643 2742 
Q 2381 3103 1925 3103 
Q 1469 3103 1208 2742 
Q 947 2381 947 1747 
z
" transform="scale(0.015625)"/>
      <path id="DejaVuSans-41" d="M 2188 4044 
L 1331 1722 
L 3047 1722 
L 2188 4044 
z
M 1831 4666 
L 2547 4666 
L 4325 0 
L 3669 0 
L 3244 1197 
L 1141 1197 
L 716 0 
L 50 0 
L 1831 4666 
z
" transform="scale(0.015625)"/>
      <path id="DejaVuSans-67" d="M 2906 1791 
Q 2906 2416 2648 2759 
Q 2391 3103 1925 3103 
Q 1463 3103 1205 2759 
Q 947 2416 947 1791 
Q 947 1169 1205 825 
Q 1463 481 1925 481 
Q 2391 481 2648 825 
Q 2906 1169 2906 1791 
z
M 3481 434 
Q 3481 -459 3084 -895 
Q 2688 -1331 1869 -1331 
Q 1566 -1331 1297 -1286 
Q 1028 -1241 775 -1147 
L 775 -588 
Q 1028 -725 1275 -790 
Q 1522 -856 1778 -856 
Q 2344 -856 2625 -561 
Q 2906 -266 2906 331 
L 2906 616 
Q 2728 306 2450 153 
Q 2172 0 1784 0 
Q 1141 0 747 490 
Q 353 981 353 1791 
Q 353 2603 747 3093 
Q 1141 3584 1784 3584 
Q 2172 3584 2450 3431 
Q 2728 3278 2906 2969 
L 2906 3500 
L 3481 3500 
L 3481 434 
z
" transform="scale(0.015625)"/>
      <path id="DejaVuSans-43" d="M 4122 4306 
L 4122 3641 
Q 3803 3938 3442 4084 
Q 3081 4231 2675 4231 
Q 1875 4231 1450 3742 
Q 1025 3253 1025 2328 
Q 1025 1406 1450 917 
Q 1875 428 2675 428 
Q 3081 428 3442 575 
Q 3803 722 4122 1019 
L 4122 359 
Q 3791 134 3420 21 
Q 3050 -91 2638 -91 
Q 1578 -91 968 557 
Q 359 1206 359 2328 
Q 359 3453 968 4101 
Q 1578 4750 2638 4750 
Q 3056 4750 3426 4639 
Q 3797 4528 4122 4306 
z
" transform="scale(0.015625)"/>
     </defs>
     <use xlink:href="#DejaVuSans-53"/>
     <use xlink:href="#DejaVuSans-69" x="63.476562"/>
     <use xlink:href="#DejaVuSans-6d" x="91.259766"/>
     <use xlink:href="#DejaVuSans-75" x="188.671875"/>
     <use xlink:href="#DejaVuSans-6c" x="252.050781"/>
     <use xlink:href="#DejaVuSans-61" x="279.833984"/>
     <use xlink:href="#DejaVuSans-74" x="341.113281"/>
     <use xlink:href="#DejaVuSans-65" x="380.322266"/>
     <use xlink:href="#DejaVuSans-64" x="441.845703"/>
     <use xlink:href="#DejaVuSans-20" x="505.322266"/>
     <use xlink:href="#DejaVuSans-41" x="537.109375"/>
     <use xlink:href="#DejaVuSans-6e" x="605.517578"/>
     <use xlink:href="#DejaVuSans-65" x="668.896484"/>
     <use xlink:href="#DejaVuSans-61" x="730.419922"/>
     <use xlink:href="#DejaVuSans-6c" x="791.699219"/>
     <use xlink:href="#DejaVuSans-6c" x="819.482422"/>
     <use xlink:href="#DejaVuSans-69" x="847.265625"/>
     <use xlink:href="#DejaVuSans-6e" x="875.048828"/>
     <use xlink:href="#DejaVuSans-67" x="938.427734"/>
     <use xlink:href="#DejaVuSans-20" x="1001.904297"/>
     <use xlink:href="#DejaVuSans-43" x="1033.691406"/>
     <use xlink:href="#DejaVuSans-6f" x="1103.515625"/>
     <use xlink:href="#DejaVuSans-73" x="1164.697266"/>
     <use xlink:href="#DejaVuSans-74" x="1216.796875"/>
    </g>
   </g>
  </g>
 </g>
 <defs>
  <clipPath id="p7c123c681a">
   <rect x="57.6" y="41.472" width="357.12" height="266.112"/>
  </clipPath>
 </defs>
</svg>
