<?xml version="1.0" encoding="utf-8" standalone="no"?>
<!DOCTYPE svg PUBLIC "-//W3C//DTD SVG 1.1//EN"
  "http://www.w3.org/Graphics/SVG/1.1/DTD/svg11.dtd">
<svg xmlns:xlink="http://www.w3.org/1999/xlink" width="460.8pt" height="345.6pt" viewBox="0 0 460.8 345.6" xmlns="http://www.w3.org/2000/svg" version="1.1">
 <metadata>
  <rdf:RDF xmlns:dc="http://purl.org/dc/elements/1.1/" xmlns:cc="http://creativecommons.org/ns#" xmlns:rdf="http://www.w3.org/1999/02/22-rdf-syntax-ns#">
   <cc:Work>
    <dc:type rdf:resource="http://purl.org/dc/dcmitype/StillImage"/>
    <dc:date>2022-06-01T08:07:12.495622</dc:date>
    <dc:format>image/svg+xml</dc:format>
    <dc:creator>
     <cc:Agent>
      <dc:title>Matplotlib v3.5.1, https://matplotlib.org/</dc:title>
     </cc:Agent>
    </dc:creator>
   </cc:Work>
  </rdf:RDF>
 </metadata>
 <defs>
  <style type="text/css">*{stroke-linejoin: round; stroke-linecap: butt}</style>
 </defs>
 <g id="figure_1">
  <g id="patch_1">
   <path d="M 0 345.6 
L 460.8 345.6 
L 460.8 0 
L 0 0 
z
" style="fill: #ffffff"/>
  </g>
  <g id="axes_1">
   <g id="patch_2">
    <path d="M 57.6 307.584 
L 414.72 307.584 
L 414.72 41.472 
L 57.6 41.472 
z
" style="fill: #ffffff"/>
   </g>
   <g id="matplotlib.axis_1">
    <g id="xtick_1">
     <g id="line2d_1">
      <defs>
       <path id="ma1e4bd66ad" d="M 0 0 
L 0 3.5 
" style="stroke: #000000; stroke-width: 0.8"/>
      </defs>
      <g>
       <use xlink:href="#ma1e4bd66ad" x="73.832727" y="307.584" style="stroke: #000000; stroke-width: 0.8"/>
      </g>
     </g>
     <g id="text_1">
      <!-- 0 -->
      <g transform="translate(70.651477 322.182437)scale(0.1 -0.1)">
       <defs>
        <path id="DejaVuSans-30" d="M 2034 4250 
Q 1547 4250 1301 3770 
Q 1056 3291 1056 2328 
Q 1056 1369 1301 889 
Q 1547 409 2034 409 
Q 2525 409 2770 889 
Q 3016 1369 3016 2328 
Q 3016 3291 2770 3770 
Q 2525 4250 2034 4250 
z
M 2034 4750 
Q 2819 4750 3233 4129 
Q 3647 3509 3647 2328 
Q 3647 1150 3233 529 
Q 2819 -91 2034 -91 
Q 1250 -91 836 529 
Q 422 1150 422 2328 
Q 422 3509 836 4129 
Q 1250 4750 2034 4750 
z
" transform="scale(0.015625)"/>
       </defs>
       <use xlink:href="#DejaVuSans-30"/>
      </g>
     </g>
    </g>
    <g id="xtick_2">
     <g id="line2d_2">
      <g>
       <use xlink:href="#ma1e4bd66ad" x="126.742529" y="307.584" style="stroke: #000000; stroke-width: 0.8"/>
      </g>
     </g>
     <g id="text_2">
      <!-- 500 -->
      <g transform="translate(117.198779 322.182437)scale(0.1 -0.1)">
       <defs>
        <path id="DejaVuSans-35" d="M 691 4666 
L 3169 4666 
L 3169 4134 
L 1269 4134 
L 1269 2991 
Q 1406 3038 1543 3061 
Q 1681 3084 1819 3084 
Q 2600 3084 3056 2656 
Q 3513 2228 3513 1497 
Q 3513 744 3044 326 
Q 2575 -91 1722 -91 
Q 1428 -91 1123 -41 
Q 819 9 494 109 
L 494 744 
Q 775 591 1075 516 
Q 1375 441 1709 441 
Q 2250 441 2565 725 
Q 2881 1009 2881 1497 
Q 2881 1984 2565 2268 
Q 2250 2553 1709 2553 
Q 1456 2553 1204 2497 
Q 953 2441 691 2322 
L 691 4666 
z
" transform="scale(0.015625)"/>
       </defs>
       <use xlink:href="#DejaVuSans-35"/>
       <use xlink:href="#DejaVuSans-30" x="63.623047"/>
       <use xlink:href="#DejaVuSans-30" x="127.246094"/>
      </g>
     </g>
    </g>
    <g id="xtick_3">
     <g id="line2d_3">
      <g>
       <use xlink:href="#ma1e4bd66ad" x="179.652331" y="307.584" style="stroke: #000000; stroke-width: 0.8"/>
      </g>
     </g>
     <g id="text_3">
      <!-- 1000 -->
      <g transform="translate(166.927331 322.182437)scale(0.1 -0.1)">
       <defs>
        <path id="DejaVuSans-31" d="M 794 531 
L 1825 531 
L 1825 4091 
L 703 3866 
L 703 4441 
L 1819 4666 
L 2450 4666 
L 2450 531 
L 3481 531 
L 3481 0 
L 794 0 
L 794 531 
z
" transform="scale(0.015625)"/>
       </defs>
       <use xlink:href="#DejaVuSans-31"/>
       <use xlink:href="#DejaVuSans-30" x="63.623047"/>
       <use xlink:href="#DejaVuSans-30" x="127.246094"/>
       <use xlink:href="#DejaVuSans-30" x="190.869141"/>
      </g>
     </g>
    </g>
    <g id="xtick_4">
     <g id="line2d_4">
      <g>
       <use xlink:href="#ma1e4bd66ad" x="232.562133" y="307.584" style="stroke: #000000; stroke-width: 0.8"/>
      </g>
     </g>
     <g id="text_4">
      <!-- 1500 -->
      <g transform="translate(219.837133 322.182437)scale(0.1 -0.1)">
       <use xlink:href="#DejaVuSans-31"/>
       <use xlink:href="#DejaVuSans-35" x="63.623047"/>
       <use xlink:href="#DejaVuSans-30" x="127.246094"/>
       <use xlink:href="#DejaVuSans-30" x="190.869141"/>
      </g>
     </g>
    </g>
    <g id="xtick_5">
     <g id="line2d_5">
      <g>
       <use xlink:href="#ma1e4bd66ad" x="285.471936" y="307.584" style="stroke: #000000; stroke-width: 0.8"/>
      </g>
     </g>
     <g id="text_5">
      <!-- 2000 -->
      <g transform="translate(272.746936 322.182437)scale(0.1 -0.1)">
       <defs>
        <path id="DejaVuSans-32" d="M 1228 531 
L 3431 531 
L 3431 0 
L 469 0 
L 469 531 
Q 828 903 1448 1529 
Q 2069 2156 2228 2338 
Q 2531 2678 2651 2914 
Q 2772 3150 2772 3378 
Q 2772 3750 2511 3984 
Q 2250 4219 1831 4219 
Q 1534 4219 1204 4116 
Q 875 4013 500 3803 
L 500 4441 
Q 881 4594 1212 4672 
Q 1544 4750 1819 4750 
Q 2544 4750 2975 4387 
Q 3406 4025 3406 3419 
Q 3406 3131 3298 2873 
Q 3191 2616 2906 2266 
Q 2828 2175 2409 1742 
Q 1991 1309 1228 531 
z
" transform="scale(0.015625)"/>
       </defs>
       <use xlink:href="#DejaVuSans-32"/>
       <use xlink:href="#DejaVuSans-30" x="63.623047"/>
       <use xlink:href="#DejaVuSans-30" x="127.246094"/>
       <use xlink:href="#DejaVuSans-30" x="190.869141"/>
      </g>
     </g>
    </g>
    <g id="xtick_6">
     <g id="line2d_6">
      <g>
       <use xlink:href="#ma1e4bd66ad" x="338.381738" y="307.584" style="stroke: #000000; stroke-width: 0.8"/>
      </g>
     </g>
     <g id="text_6">
      <!-- 2500 -->
      <g transform="translate(325.656738 322.182437)scale(0.1 -0.1)">
       <use xlink:href="#DejaVuSans-32"/>
       <use xlink:href="#DejaVuSans-35" x="63.623047"/>
       <use xlink:href="#DejaVuSans-30" x="127.246094"/>
       <use xlink:href="#DejaVuSans-30" x="190.869141"/>
      </g>
     </g>
    </g>
    <g id="xtick_7">
     <g id="line2d_7">
      <g>
       <use xlink:href="#ma1e4bd66ad" x="391.29154" y="307.584" style="stroke: #000000; stroke-width: 0.8"/>
      </g>
     </g>
     <g id="text_7">
      <!-- 3000 -->
      <g transform="translate(378.56654 322.182437)scale(0.1 -0.1)">
       <defs>
        <path id="DejaVuSans-33" d="M 2597 2516 
Q 3050 2419 3304 2112 
Q 3559 1806 3559 1356 
Q 3559 666 3084 287 
Q 2609 -91 1734 -91 
Q 1441 -91 1130 -33 
Q 819 25 488 141 
L 488 750 
Q 750 597 1062 519 
Q 1375 441 1716 441 
Q 2309 441 2620 675 
Q 2931 909 2931 1356 
Q 2931 1769 2642 2001 
Q 2353 2234 1838 2234 
L 1294 2234 
L 1294 2753 
L 1863 2753 
Q 2328 2753 2575 2939 
Q 2822 3125 2822 3475 
Q 2822 3834 2567 4026 
Q 2313 4219 1838 4219 
Q 1578 4219 1281 4162 
Q 984 4106 628 3988 
L 628 4550 
Q 988 4650 1302 4700 
Q 1616 4750 1894 4750 
Q 2613 4750 3031 4423 
Q 3450 4097 3450 3541 
Q 3450 3153 3228 2886 
Q 3006 2619 2597 2516 
z
" transform="scale(0.015625)"/>
       </defs>
       <use xlink:href="#DejaVuSans-33"/>
       <use xlink:href="#DejaVuSans-30" x="63.623047"/>
       <use xlink:href="#DejaVuSans-30" x="127.246094"/>
       <use xlink:href="#DejaVuSans-30" x="190.869141"/>
      </g>
     </g>
    </g>
    <g id="text_8">
     <!-- num swaps -->
     <g transform="translate(207.826406 335.860562)scale(0.1 -0.1)">
      <defs>
       <path id="DejaVuSans-6e" d="M 3513 2113 
L 3513 0 
L 2938 0 
L 2938 2094 
Q 2938 2591 2744 2837 
Q 2550 3084 2163 3084 
Q 1697 3084 1428 2787 
Q 1159 2491 1159 1978 
L 1159 0 
L 581 0 
L 581 3500 
L 1159 3500 
L 1159 2956 
Q 1366 3272 1645 3428 
Q 1925 3584 2291 3584 
Q 2894 3584 3203 3211 
Q 3513 2838 3513 2113 
z
" transform="scale(0.015625)"/>
       <path id="DejaVuSans-75" d="M 544 1381 
L 544 3500 
L 1119 3500 
L 1119 1403 
Q 1119 906 1312 657 
Q 1506 409 1894 409 
Q 2359 409 2629 706 
Q 2900 1003 2900 1516 
L 2900 3500 
L 3475 3500 
L 3475 0 
L 2900 0 
L 2900 538 
Q 2691 219 2414 64 
Q 2138 -91 1772 -91 
Q 1169 -91 856 284 
Q 544 659 544 1381 
z
M 1991 3584 
L 1991 3584 
z
" transform="scale(0.015625)"/>
       <path id="DejaVuSans-6d" d="M 3328 2828 
Q 3544 3216 3844 3400 
Q 4144 3584 4550 3584 
Q 5097 3584 5394 3201 
Q 5691 2819 5691 2113 
L 5691 0 
L 5113 0 
L 5113 2094 
Q 5113 2597 4934 2840 
Q 4756 3084 4391 3084 
Q 3944 3084 3684 2787 
Q 3425 2491 3425 1978 
L 3425 0 
L 2847 0 
L 2847 2094 
Q 2847 2600 2669 2842 
Q 2491 3084 2119 3084 
Q 1678 3084 1418 2786 
Q 1159 2488 1159 1978 
L 1159 0 
L 581 0 
L 581 3500 
L 1159 3500 
L 1159 2956 
Q 1356 3278 1631 3431 
Q 1906 3584 2284 3584 
Q 2666 3584 2933 3390 
Q 3200 3197 3328 2828 
z
" transform="scale(0.015625)"/>
       <path id="DejaVuSans-20" transform="scale(0.015625)"/>
       <path id="DejaVuSans-73" d="M 2834 3397 
L 2834 2853 
Q 2591 2978 2328 3040 
Q 2066 3103 1784 3103 
Q 1356 3103 1142 2972 
Q 928 2841 928 2578 
Q 928 2378 1081 2264 
Q 1234 2150 1697 2047 
L 1894 2003 
Q 2506 1872 2764 1633 
Q 3022 1394 3022 966 
Q 3022 478 2636 193 
Q 2250 -91 1575 -91 
Q 1294 -91 989 -36 
Q 684 19 347 128 
L 347 722 
Q 666 556 975 473 
Q 1284 391 1588 391 
Q 1994 391 2212 530 
Q 2431 669 2431 922 
Q 2431 1156 2273 1281 
Q 2116 1406 1581 1522 
L 1381 1569 
Q 847 1681 609 1914 
Q 372 2147 372 2553 
Q 372 3047 722 3315 
Q 1072 3584 1716 3584 
Q 2034 3584 2315 3537 
Q 2597 3491 2834 3397 
z
" transform="scale(0.015625)"/>
       <path id="DejaVuSans-77" d="M 269 3500 
L 844 3500 
L 1563 769 
L 2278 3500 
L 2956 3500 
L 3675 769 
L 4391 3500 
L 4966 3500 
L 4050 0 
L 3372 0 
L 2619 2869 
L 1863 0 
L 1184 0 
L 269 3500 
z
" transform="scale(0.015625)"/>
       <path id="DejaVuSans-61" d="M 2194 1759 
Q 1497 1759 1228 1600 
Q 959 1441 959 1056 
Q 959 750 1161 570 
Q 1363 391 1709 391 
Q 2188 391 2477 730 
Q 2766 1069 2766 1631 
L 2766 1759 
L 2194 1759 
z
M 3341 1997 
L 3341 0 
L 2766 0 
L 2766 531 
Q 2569 213 2275 61 
Q 1981 -91 1556 -91 
Q 1019 -91 701 211 
Q 384 513 384 1019 
Q 384 1609 779 1909 
Q 1175 2209 1959 2209 
L 2766 2209 
L 2766 2266 
Q 2766 2663 2505 2880 
Q 2244 3097 1772 3097 
Q 1472 3097 1187 3025 
Q 903 2953 641 2809 
L 641 3341 
Q 956 3463 1253 3523 
Q 1550 3584 1831 3584 
Q 2591 3584 2966 3190 
Q 3341 2797 3341 1997 
z
" transform="scale(0.015625)"/>
       <path id="DejaVuSans-70" d="M 1159 525 
L 1159 -1331 
L 581 -1331 
L 581 3500 
L 1159 3500 
L 1159 2969 
Q 1341 3281 1617 3432 
Q 1894 3584 2278 3584 
Q 2916 3584 3314 3078 
Q 3713 2572 3713 1747 
Q 3713 922 3314 415 
Q 2916 -91 2278 -91 
Q 1894 -91 1617 61 
Q 1341 213 1159 525 
z
M 3116 1747 
Q 3116 2381 2855 2742 
Q 2594 3103 2138 3103 
Q 1681 3103 1420 2742 
Q 1159 2381 1159 1747 
Q 1159 1113 1420 752 
Q 1681 391 2138 391 
Q 2594 391 2855 752 
Q 3116 1113 3116 1747 
z
" transform="scale(0.015625)"/>
      </defs>
      <use xlink:href="#DejaVuSans-6e"/>
      <use xlink:href="#DejaVuSans-75" x="63.378906"/>
      <use xlink:href="#DejaVuSans-6d" x="126.757812"/>
      <use xlink:href="#DejaVuSans-20" x="224.169922"/>
      <use xlink:href="#DejaVuSans-73" x="255.957031"/>
      <use xlink:href="#DejaVuSans-77" x="308.056641"/>
      <use xlink:href="#DejaVuSans-61" x="389.84375"/>
      <use xlink:href="#DejaVuSans-70" x="451.123047"/>
      <use xlink:href="#DejaVuSans-73" x="514.599609"/>
     </g>
    </g>
   </g>
   <g id="matplotlib.axis_2">
    <g id="ytick_1">
     <g id="line2d_8">
      <defs>
       <path id="ma4068d9296" d="M 0 0 
L -3.5 0 
" style="stroke: #000000; stroke-width: 0.8"/>
      </defs>
      <g>
       <use xlink:href="#ma4068d9296" x="57.6" y="278.739692" style="stroke: #000000; stroke-width: 0.8"/>
      </g>
     </g>
     <g id="text_9">
      <!-- 360 -->
      <g transform="translate(31.5125 282.538911)scale(0.1 -0.1)">
       <defs>
        <path id="DejaVuSans-36" d="M 2113 2584 
Q 1688 2584 1439 2293 
Q 1191 2003 1191 1497 
Q 1191 994 1439 701 
Q 1688 409 2113 409 
Q 2538 409 2786 701 
Q 3034 994 3034 1497 
Q 3034 2003 2786 2293 
Q 2538 2584 2113 2584 
z
M 3366 4563 
L 3366 3988 
Q 3128 4100 2886 4159 
Q 2644 4219 2406 4219 
Q 1781 4219 1451 3797 
Q 1122 3375 1075 2522 
Q 1259 2794 1537 2939 
Q 1816 3084 2150 3084 
Q 2853 3084 3261 2657 
Q 3669 2231 3669 1497 
Q 3669 778 3244 343 
Q 2819 -91 2113 -91 
Q 1303 -91 875 529 
Q 447 1150 447 2328 
Q 447 3434 972 4092 
Q 1497 4750 2381 4750 
Q 2619 4750 2861 4703 
Q 3103 4656 3366 4563 
z
" transform="scale(0.015625)"/>
       </defs>
       <use xlink:href="#DejaVuSans-33"/>
       <use xlink:href="#DejaVuSans-36" x="63.623047"/>
       <use xlink:href="#DejaVuSans-30" x="127.246094"/>
      </g>
     </g>
    </g>
    <g id="ytick_2">
     <g id="line2d_9">
      <g>
       <use xlink:href="#ma4068d9296" x="57.6" y="241.521231" style="stroke: #000000; stroke-width: 0.8"/>
      </g>
     </g>
     <g id="text_10">
      <!-- 380 -->
      <g transform="translate(31.5125 245.32045)scale(0.1 -0.1)">
       <defs>
        <path id="DejaVuSans-38" d="M 2034 2216 
Q 1584 2216 1326 1975 
Q 1069 1734 1069 1313 
Q 1069 891 1326 650 
Q 1584 409 2034 409 
Q 2484 409 2743 651 
Q 3003 894 3003 1313 
Q 3003 1734 2745 1975 
Q 2488 2216 2034 2216 
z
M 1403 2484 
Q 997 2584 770 2862 
Q 544 3141 544 3541 
Q 544 4100 942 4425 
Q 1341 4750 2034 4750 
Q 2731 4750 3128 4425 
Q 3525 4100 3525 3541 
Q 3525 3141 3298 2862 
Q 3072 2584 2669 2484 
Q 3125 2378 3379 2068 
Q 3634 1759 3634 1313 
Q 3634 634 3220 271 
Q 2806 -91 2034 -91 
Q 1263 -91 848 271 
Q 434 634 434 1313 
Q 434 1759 690 2068 
Q 947 2378 1403 2484 
z
M 1172 3481 
Q 1172 3119 1398 2916 
Q 1625 2713 2034 2713 
Q 2441 2713 2670 2916 
Q 2900 3119 2900 3481 
Q 2900 3844 2670 4047 
Q 2441 4250 2034 4250 
Q 1625 4250 1398 4047 
Q 1172 3844 1172 3481 
z
" transform="scale(0.015625)"/>
       </defs>
       <use xlink:href="#DejaVuSans-33"/>
       <use xlink:href="#DejaVuSans-38" x="63.623047"/>
       <use xlink:href="#DejaVuSans-30" x="127.246094"/>
      </g>
     </g>
    </g>
    <g id="ytick_3">
     <g id="line2d_10">
      <g>
       <use xlink:href="#ma4068d9296" x="57.6" y="204.302769" style="stroke: #000000; stroke-width: 0.8"/>
      </g>
     </g>
     <g id="text_11">
      <!-- 400 -->
      <g transform="translate(31.5125 208.101988)scale(0.1 -0.1)">
       <defs>
        <path id="DejaVuSans-34" d="M 2419 4116 
L 825 1625 
L 2419 1625 
L 2419 4116 
z
M 2253 4666 
L 3047 4666 
L 3047 1625 
L 3713 1625 
L 3713 1100 
L 3047 1100 
L 3047 0 
L 2419 0 
L 2419 1100 
L 313 1100 
L 313 1709 
L 2253 4666 
z
" transform="scale(0.015625)"/>
       </defs>
       <use xlink:href="#DejaVuSans-34"/>
       <use xlink:href="#DejaVuSans-30" x="63.623047"/>
       <use xlink:href="#DejaVuSans-30" x="127.246094"/>
      </g>
     </g>
    </g>
    <g id="ytick_4">
     <g id="line2d_11">
      <g>
       <use xlink:href="#ma4068d9296" x="57.6" y="167.084308" style="stroke: #000000; stroke-width: 0.8"/>
      </g>
     </g>
     <g id="text_12">
      <!-- 420 -->
      <g transform="translate(31.5125 170.883526)scale(0.1 -0.1)">
       <use xlink:href="#DejaVuSans-34"/>
       <use xlink:href="#DejaVuSans-32" x="63.623047"/>
       <use xlink:href="#DejaVuSans-30" x="127.246094"/>
      </g>
     </g>
    </g>
    <g id="ytick_5">
     <g id="line2d_12">
      <g>
       <use xlink:href="#ma4068d9296" x="57.6" y="129.865846" style="stroke: #000000; stroke-width: 0.8"/>
      </g>
     </g>
     <g id="text_13">
      <!-- 440 -->
      <g transform="translate(31.5125 133.665065)scale(0.1 -0.1)">
       <use xlink:href="#DejaVuSans-34"/>
       <use xlink:href="#DejaVuSans-34" x="63.623047"/>
       <use xlink:href="#DejaVuSans-30" x="127.246094"/>
      </g>
     </g>
    </g>
    <g id="ytick_6">
     <g id="line2d_13">
      <g>
       <use xlink:href="#ma4068d9296" x="57.6" y="92.647385" style="stroke: #000000; stroke-width: 0.8"/>
      </g>
     </g>
     <g id="text_14">
      <!-- 460 -->
      <g transform="translate(31.5125 96.446603)scale(0.1 -0.1)">
       <use xlink:href="#DejaVuSans-34"/>
       <use xlink:href="#DejaVuSans-36" x="63.623047"/>
       <use xlink:href="#DejaVuSans-30" x="127.246094"/>
      </g>
     </g>
    </g>
    <g id="ytick_7">
     <g id="line2d_14">
      <g>
       <use xlink:href="#ma4068d9296" x="57.6" y="55.428923" style="stroke: #000000; stroke-width: 0.8"/>
      </g>
     </g>
     <g id="text_15">
      <!-- 480 -->
      <g transform="translate(31.5125 59.228142)scale(0.1 -0.1)">
       <use xlink:href="#DejaVuSans-34"/>
       <use xlink:href="#DejaVuSans-38" x="63.623047"/>
       <use xlink:href="#DejaVuSans-30" x="127.246094"/>
      </g>
     </g>
    </g>
    <g id="text_16">
     <!-- total cost -->
     <g transform="translate(25.432812 197.923313)rotate(-90)scale(0.1 -0.1)">
      <defs>
       <path id="DejaVuSans-74" d="M 1172 4494 
L 1172 3500 
L 2356 3500 
L 2356 3053 
L 1172 3053 
L 1172 1153 
Q 1172 725 1289 603 
Q 1406 481 1766 481 
L 2356 481 
L 2356 0 
L 1766 0 
Q 1100 0 847 248 
Q 594 497 594 1153 
L 594 3053 
L 172 3053 
L 172 3500 
L 594 3500 
L 594 4494 
L 1172 4494 
z
" transform="scale(0.015625)"/>
       <path id="DejaVuSans-6f" d="M 1959 3097 
Q 1497 3097 1228 2736 
Q 959 2375 959 1747 
Q 959 1119 1226 758 
Q 1494 397 1959 397 
Q 2419 397 2687 759 
Q 2956 1122 2956 1747 
Q 2956 2369 2687 2733 
Q 2419 3097 1959 3097 
z
M 1959 3584 
Q 2709 3584 3137 3096 
Q 3566 2609 3566 1747 
Q 3566 888 3137 398 
Q 2709 -91 1959 -91 
Q 1206 -91 779 398 
Q 353 888 353 1747 
Q 353 2609 779 3096 
Q 1206 3584 1959 3584 
z
" transform="scale(0.015625)"/>
       <path id="DejaVuSans-6c" d="M 603 4863 
L 1178 4863 
L 1178 0 
L 603 0 
L 603 4863 
z
" transform="scale(0.015625)"/>
       <path id="DejaVuSans-63" d="M 3122 3366 
L 3122 2828 
Q 2878 2963 2633 3030 
Q 2388 3097 2138 3097 
Q 1578 3097 1268 2742 
Q 959 2388 959 1747 
Q 959 1106 1268 751 
Q 1578 397 2138 397 
Q 2388 397 2633 464 
Q 2878 531 3122 666 
L 3122 134 
Q 2881 22 2623 -34 
Q 2366 -91 2075 -91 
Q 1284 -91 818 406 
Q 353 903 353 1747 
Q 353 2603 823 3093 
Q 1294 3584 2113 3584 
Q 2378 3584 2631 3529 
Q 2884 3475 3122 3366 
z
" transform="scale(0.015625)"/>
      </defs>
      <use xlink:href="#DejaVuSans-74"/>
      <use xlink:href="#DejaVuSans-6f" x="39.208984"/>
      <use xlink:href="#DejaVuSans-74" x="100.390625"/>
      <use xlink:href="#DejaVuSans-61" x="139.599609"/>
      <use xlink:href="#DejaVuSans-6c" x="200.878906"/>
      <use xlink:href="#DejaVuSans-20" x="228.662109"/>
      <use xlink:href="#DejaVuSans-63" x="260.449219"/>
      <use xlink:href="#DejaVuSans-6f" x="315.429688"/>
      <use xlink:href="#DejaVuSans-73" x="376.611328"/>
      <use xlink:href="#DejaVuSans-74" x="428.710938"/>
     </g>
    </g>
   </g>
   <g id="line2d_15">
    <path d="M 73.832727 96.369231 
L 74.256006 126.144 
L 74.467645 114.978462 
L 74.679284 113.117538 
L 74.890923 116.839385 
L 75.102563 146.614154 
L 75.314202 139.170462 
L 75.525841 137.309538 
L 75.73748 148.475077 
L 75.949119 141.031385 
L 76.160759 161.501538 
L 76.372398 163.362462 
L 76.584037 152.196923 
L 76.795676 163.362462 
L 77.007315 183.832615 
L 77.218955 180.110769 
L 77.430594 180.110769 
L 77.853872 183.832615 
L 78.065511 189.415385 
L 78.700429 159.640615 
L 78.912068 161.501538 
L 79.123707 161.501538 
L 79.546986 155.918769 
L 79.970264 155.918769 
L 80.393543 148.475077 
L 81.02846 128.004923 
L 81.2401 124.283077 
L 81.451739 129.865846 
L 81.663378 122.422154 
L 81.875017 120.561231 
L 82.086656 126.144 
L 82.509935 111.256615 
L 82.933213 88.925538 
L 83.144852 90.786462 
L 83.568131 83.342769 
L 83.991409 94.508308 
L 84.203048 85.203692 
L 84.626327 81.481846 
L 84.837966 96.369231 
L 85.049605 98.230154 
L 85.261245 98.230154 
L 85.472884 105.673846 
L 85.896162 85.203692 
L 86.107801 96.369231 
L 86.319441 88.925538 
L 86.53108 98.230154 
L 86.742719 92.647385 
L 86.954358 68.455385 
L 87.165997 66.594462 
L 87.800915 90.786462 
L 88.012554 90.786462 
L 88.435833 118.700308 
L 88.647472 131.726769 
L 88.859111 135.448615 
L 89.282389 118.700308 
L 89.494029 116.839385 
L 89.705668 113.117538 
L 89.917307 113.117538 
L 90.340586 129.865846 
L 90.552225 116.839385 
L 90.975503 122.422154 
L 91.187142 124.283077 
L 91.398782 139.170462 
L 91.610421 131.726769 
L 91.82206 131.726769 
L 92.456978 168.945231 
L 92.668617 167.084308 
L 92.880256 208.024615 
L 93.091895 204.302769 
L 93.303534 215.468308 
L 93.515174 209.885538 
L 93.726813 213.607385 
L 93.938452 211.746462 
L 94.150091 213.607385 
L 94.57337 178.249846 
L 94.996648 170.806154 
L 95.208287 170.806154 
L 95.419927 157.779692 
L 95.631566 155.918769 
L 95.843205 139.170462 
L 96.054844 150.336 
L 96.266483 144.753231 
L 96.478123 144.753231 
L 97.11304 163.362462 
L 97.324679 172.667077 
L 97.747958 152.196923 
L 97.959597 150.336 
L 98.171236 167.084308 
L 98.382875 157.779692 
L 98.594515 167.084308 
L 98.806154 194.998154 
L 99.017793 196.859077 
L 99.229432 204.302769 
L 99.441071 198.72 
L 99.652711 202.441846 
L 99.86435 211.746462 
L 100.075989 185.693538 
L 100.287628 187.554462 
L 100.499268 187.554462 
L 100.710907 189.415385 
L 100.922546 193.137231 
L 101.134185 176.388923 
L 101.345824 150.336 
L 101.557464 157.779692 
L 101.769103 155.918769 
L 102.192381 163.362462 
L 102.40402 157.779692 
L 102.827299 133.587692 
L 103.038938 124.283077 
L 103.250577 124.283077 
L 103.462216 118.700308 
L 103.673856 124.283077 
L 103.885495 120.561231 
L 104.097134 122.422154 
L 104.308773 139.170462 
L 104.520412 135.448615 
L 104.732052 135.448615 
L 104.943691 118.700308 
L 105.366969 124.283077 
L 105.578609 122.422154 
L 105.790248 109.395692 
L 106.001887 118.700308 
L 106.213526 114.978462 
L 106.425165 120.561231 
L 106.636805 118.700308 
L 107.060083 107.534769 
L 107.483361 133.587692 
L 107.695001 126.144 
L 107.90664 133.587692 
L 108.118279 133.587692 
L 108.541557 124.283077 
L 108.753197 129.865846 
L 108.964836 124.283077 
L 109.176475 124.283077 
L 109.388114 133.587692 
L 109.599753 133.587692 
L 109.811393 120.561231 
L 110.023032 126.144 
L 110.234671 116.839385 
L 110.65795 113.117538 
L 111.081228 118.700308 
L 111.292867 131.726769 
L 111.504506 122.422154 
L 111.716146 137.309538 
L 112.351063 107.534769 
L 112.562702 120.561231 
L 112.774342 124.283077 
L 113.19762 111.256615 
L 113.409259 122.422154 
L 113.832538 128.004923 
L 114.044177 124.283077 
L 114.255816 128.004923 
L 114.467455 118.700308 
L 114.890734 131.726769 
L 115.102373 131.726769 
L 115.314012 128.004923 
L 115.525651 128.004923 
L 115.94893 124.283077 
L 116.160569 111.256615 
L 116.372208 116.839385 
L 116.583847 128.004923 
L 116.795487 111.256615 
L 117.007126 103.812923 
L 117.430404 126.144 
L 117.642043 135.448615 
L 117.853683 131.726769 
L 118.065322 146.614154 
L 118.276961 170.806154 
L 118.911879 157.779692 
L 119.123518 152.196923 
L 119.335157 154.057846 
L 119.546796 152.196923 
L 119.758435 129.865846 
L 119.970075 131.726769 
L 120.181714 116.839385 
L 120.393353 122.422154 
L 120.604992 122.422154 
L 120.816632 120.561231 
L 121.028271 96.369231 
L 121.23991 101.952 
L 121.451549 111.256615 
L 121.663188 135.448615 
L 121.874828 144.753231 
L 122.086467 142.892308 
L 122.298106 135.448615 
L 122.509745 152.196923 
L 122.721384 154.057846 
L 122.933024 157.779692 
L 123.144663 155.918769 
L 123.356302 161.501538 
L 123.567941 161.501538 
L 123.77958 159.640615 
L 123.99122 172.667077 
L 124.202859 174.528 
L 124.414498 170.806154 
L 124.837776 148.475077 
L 125.049416 150.336 
L 125.261055 126.144 
L 125.472694 120.561231 
L 125.684333 124.283077 
L 125.895973 124.283077 
L 126.107612 118.700308 
L 126.319251 118.700308 
L 126.53089 105.673846 
L 126.742529 105.673846 
L 126.954169 120.561231 
L 127.165808 120.561231 
L 127.377447 129.865846 
L 127.589086 131.726769 
L 127.800725 146.614154 
L 128.224004 126.144 
L 128.435643 118.700308 
L 128.858921 150.336 
L 129.070561 154.057846 
L 129.2822 139.170462 
L 129.493839 133.587692 
L 129.705478 135.448615 
L 129.917117 139.170462 
L 130.128757 131.726769 
L 130.340396 131.726769 
L 130.552035 133.587692 
L 130.763674 139.170462 
L 130.975314 135.448615 
L 131.186953 124.283077 
L 131.398592 135.448615 
L 131.610231 133.587692 
L 131.82187 111.256615 
L 132.03351 109.395692 
L 132.245149 113.117538 
L 132.456788 98.230154 
L 132.880066 133.587692 
L 133.091706 135.448615 
L 133.726623 154.057846 
L 133.938262 159.640615 
L 134.149902 133.587692 
L 134.57318 129.865846 
L 134.784819 124.283077 
L 134.996458 139.170462 
L 135.208098 139.170462 
L 135.419737 137.309538 
L 135.843015 116.839385 
L 136.054654 114.978462 
L 136.266294 118.700308 
L 136.477933 107.534769 
L 136.689572 107.534769 
L 136.901211 100.091077 
L 137.32449 114.978462 
L 137.536129 113.117538 
L 137.747768 101.952 
L 138.171047 126.144 
L 138.382686 126.144 
L 138.594325 131.726769 
L 139.229243 101.952 
L 139.440882 105.673846 
L 139.652521 114.978462 
L 139.86416 107.534769 
L 140.075799 133.587692 
L 140.287439 129.865846 
L 140.499078 118.700308 
L 140.710717 135.448615 
L 140.922356 128.004923 
L 141.133995 137.309538 
L 141.345635 109.395692 
L 141.557274 101.952 
L 141.768913 107.534769 
L 142.192192 75.899077 
L 142.403831 81.481846 
L 142.61547 101.952 
L 143.250388 107.534769 
L 143.462027 113.117538 
L 143.673666 101.952 
L 143.885305 109.395692 
L 144.096944 87.064615 
L 144.308584 90.786462 
L 144.520223 83.342769 
L 144.943501 87.064615 
L 145.15514 111.256615 
L 145.36678 109.395692 
L 145.578419 92.647385 
L 146.213336 111.256615 
L 146.424976 101.952 
L 146.636615 103.812923 
L 147.059893 68.455385 
L 147.271533 75.899077 
L 147.483172 75.899077 
L 147.694811 72.177231 
L 147.90645 83.342769 
L 148.118089 77.76 
L 148.329729 79.620923 
L 148.964646 105.673846 
L 149.176285 100.091077 
L 149.599564 96.369231 
L 149.811203 87.064615 
L 150.022842 87.064615 
L 150.234481 100.091077 
L 150.869399 79.620923 
L 151.081038 64.733538 
L 151.292677 72.177231 
L 151.504317 74.038154 
L 151.715956 55.428923 
L 151.927595 68.455385 
L 152.139234 66.594462 
L 152.562513 81.481846 
L 152.985791 72.177231 
L 153.19743 59.150769 
L 153.40907 53.568 
L 153.620709 77.76 
L 153.832348 70.316308 
L 154.043987 74.038154 
L 154.255626 103.812923 
L 154.467266 107.534769 
L 154.678905 105.673846 
L 154.890544 92.647385 
L 155.102183 107.534769 
L 155.313822 107.534769 
L 155.525462 105.673846 
L 155.737101 113.117538 
L 155.94874 101.952 
L 156.160379 77.76 
L 156.583658 90.786462 
L 156.795297 94.508308 
L 157.006936 103.812923 
L 157.218575 124.283077 
L 157.430215 120.561231 
L 157.641854 120.561231 
L 157.853493 126.144 
L 158.065132 126.144 
L 158.276771 131.726769 
L 158.488411 118.700308 
L 158.70005 122.422154 
L 158.911689 122.422154 
L 159.123328 118.700308 
L 159.334967 124.283077 
L 159.546607 113.117538 
L 159.758246 124.283077 
L 159.969885 118.700308 
L 160.393163 133.587692 
L 160.604803 131.726769 
L 161.028081 122.422154 
L 161.23972 109.395692 
L 161.451359 128.004923 
L 161.662999 122.422154 
L 161.874638 126.144 
L 162.086277 116.839385 
L 162.297916 90.786462 
L 162.509556 101.952 
L 162.721195 100.091077 
L 162.932834 111.256615 
L 163.356112 98.230154 
L 163.567752 107.534769 
L 163.779391 103.812923 
L 163.99103 107.534769 
L 164.202669 105.673846 
L 164.625948 114.978462 
L 164.837587 111.256615 
L 165.049226 120.561231 
L 165.472504 116.839385 
L 165.684144 116.839385 
L 166.107422 131.726769 
L 166.5307 124.283077 
L 166.74234 131.726769 
L 166.953979 133.587692 
L 167.165618 144.753231 
L 167.377257 131.726769 
L 167.588897 135.448615 
L 167.800536 131.726769 
L 168.223814 131.726769 
L 168.435453 167.084308 
L 168.647093 168.945231 
L 168.858732 165.223385 
L 169.493649 137.309538 
L 169.705289 133.587692 
L 170.128567 141.031385 
L 170.340206 139.170462 
L 170.551845 126.144 
L 170.763485 131.726769 
L 170.975124 146.614154 
L 171.186763 146.614154 
L 171.398402 141.031385 
L 171.610041 157.779692 
L 172.03332 170.806154 
L 172.244959 183.832615 
L 172.456598 174.528 
L 172.879877 150.336 
L 173.726434 113.117538 
L 173.938073 85.203692 
L 174.57299 103.812923 
L 174.78463 107.534769 
L 174.996269 101.952 
L 175.207908 111.256615 
L 175.419547 77.76 
L 175.631186 79.620923 
L 175.842826 77.76 
L 176.054465 83.342769 
L 176.266104 98.230154 
L 176.477743 131.726769 
L 176.901022 137.309538 
L 177.112661 133.587692 
L 177.3243 159.640615 
L 177.535939 137.309538 
L 177.747579 133.587692 
L 177.959218 154.057846 
L 178.382496 118.700308 
L 178.594135 129.865846 
L 179.017414 133.587692 
L 179.229053 128.004923 
L 179.440692 107.534769 
L 179.652331 109.395692 
L 179.863971 135.448615 
L 180.287249 154.057846 
L 180.710527 129.865846 
L 180.922167 137.309538 
L 181.133806 118.700308 
L 181.557084 109.395692 
L 181.768723 94.508308 
L 181.980363 105.673846 
L 182.192002 105.673846 
L 182.403641 94.508308 
L 183.038559 116.839385 
L 183.250198 116.839385 
L 183.461837 113.117538 
L 183.673476 122.422154 
L 183.885116 116.839385 
L 184.096755 118.700308 
L 184.308394 114.978462 
L 184.520033 114.978462 
L 184.731672 116.839385 
L 185.154951 135.448615 
L 185.36659 126.144 
L 185.578229 124.283077 
L 185.789868 124.283077 
L 186.001508 135.448615 
L 186.213147 163.362462 
L 186.636425 128.004923 
L 186.848064 133.587692 
L 187.271343 128.004923 
L 187.482982 135.448615 
L 187.694621 137.309538 
L 187.906261 135.448615 
L 188.1179 129.865846 
L 188.329539 137.309538 
L 188.541178 152.196923 
L 188.752817 150.336 
L 188.964457 139.170462 
L 189.176096 152.196923 
L 189.387735 150.336 
L 189.811013 141.031385 
L 190.234292 141.031385 
L 190.445931 146.614154 
L 190.65757 146.614154 
L 190.869209 148.475077 
L 191.292488 148.475077 
L 191.504127 161.501538 
L 191.715766 161.501538 
L 192.139045 129.865846 
L 192.350684 131.726769 
L 192.985602 109.395692 
L 193.197241 111.256615 
L 193.40888 103.812923 
L 193.620519 105.673846 
L 193.832158 101.952 
L 194.467076 74.038154 
L 194.678715 85.203692 
L 194.890354 75.899077 
L 195.94855 113.117538 
L 196.16019 114.978462 
L 196.583468 101.952 
L 196.795107 113.117538 
L 197.006746 113.117538 
L 197.218386 111.256615 
L 197.430025 114.978462 
L 198.276582 85.203692 
L 198.488221 87.064615 
L 198.69986 81.481846 
L 198.911499 88.925538 
L 199.123139 88.925538 
L 199.334778 94.508308 
L 199.546417 92.647385 
L 199.758056 111.256615 
L 199.969695 109.395692 
L 200.181335 96.369231 
L 200.392974 92.647385 
L 200.604613 105.673846 
L 200.816252 103.812923 
L 201.027891 103.812923 
L 201.239531 98.230154 
L 201.874448 109.395692 
L 202.086087 98.230154 
L 202.297727 96.369231 
L 202.509366 98.230154 
L 202.721005 101.952 
L 202.932644 122.422154 
L 203.144284 109.395692 
L 203.355923 114.978462 
L 203.567562 129.865846 
L 203.779201 128.004923 
L 203.99084 128.004923 
L 204.20248 131.726769 
L 204.414119 131.726769 
L 204.625758 129.865846 
L 205.049036 152.196923 
L 205.472315 167.084308 
L 205.683954 155.918769 
L 205.895593 165.223385 
L 206.107232 165.223385 
L 206.318872 170.806154 
L 206.530511 165.223385 
L 206.74215 168.945231 
L 206.953789 168.945231 
L 207.165428 161.501538 
L 207.588707 178.249846 
L 207.800346 178.249846 
L 208.011985 165.223385 
L 208.223625 161.501538 
L 208.435264 154.057846 
L 208.646903 155.918769 
L 208.858542 148.475077 
L 209.070181 122.422154 
L 209.281821 111.256615 
L 209.49346 126.144 
L 209.705099 128.004923 
L 209.916738 118.700308 
L 210.128377 124.283077 
L 210.340017 133.587692 
L 210.551656 150.336 
L 210.763295 150.336 
L 211.186573 116.839385 
L 211.398213 135.448615 
L 211.609852 131.726769 
L 211.821491 141.031385 
L 212.03313 126.144 
L 212.244769 133.587692 
L 212.456409 148.475077 
L 212.879687 148.475077 
L 213.091326 157.779692 
L 213.302966 150.336 
L 213.514605 159.640615 
L 213.726244 159.640615 
L 213.937883 154.057846 
L 214.149522 163.362462 
L 214.361162 161.501538 
L 214.572801 165.223385 
L 214.78444 165.223385 
L 215.419358 174.528 
L 215.630997 165.223385 
L 215.842636 161.501538 
L 216.054275 163.362462 
L 216.265914 167.084308 
L 216.477554 176.388923 
L 216.689193 148.475077 
L 216.900832 148.475077 
L 217.112471 146.614154 
L 217.32411 137.309538 
L 217.53575 139.170462 
L 217.747389 154.057846 
L 217.959028 142.892308 
L 218.170667 141.031385 
L 218.382307 142.892308 
L 218.593946 137.309538 
L 219.017224 148.475077 
L 219.228863 148.475077 
L 219.652142 161.501538 
L 220.07542 181.971692 
L 220.287059 142.892308 
L 220.498699 159.640615 
L 220.710338 161.501538 
L 220.921977 146.614154 
L 221.133616 141.031385 
L 221.345255 128.004923 
L 221.556895 152.196923 
L 221.980173 141.031385 
L 222.191812 142.892308 
L 222.403451 148.475077 
L 222.615091 150.336 
L 222.82673 131.726769 
L 223.250008 163.362462 
L 223.461648 157.779692 
L 223.673287 135.448615 
L 223.884926 155.918769 
L 224.096565 161.501538 
L 224.308204 157.779692 
L 224.519844 148.475077 
L 224.731483 155.918769 
L 224.943122 157.779692 
L 225.154761 163.362462 
L 225.3664 178.249846 
L 225.57804 181.971692 
L 225.789679 174.528 
L 226.001318 180.110769 
L 226.424596 157.779692 
L 226.636236 167.084308 
L 226.847875 154.057846 
L 227.059514 161.501538 
L 227.271153 157.779692 
L 227.482792 141.031385 
L 227.694432 133.587692 
L 227.906071 135.448615 
L 228.11771 142.892308 
L 228.329349 157.779692 
L 228.752628 141.031385 
L 228.964267 120.561231 
L 229.175906 126.144 
L 229.387545 124.283077 
L 229.599185 163.362462 
L 230.445741 176.388923 
L 230.657381 176.388923 
L 230.86902 167.084308 
L 231.080659 165.223385 
L 231.292298 180.110769 
L 231.503937 176.388923 
L 231.715577 167.084308 
L 231.927216 165.223385 
L 232.138855 131.726769 
L 232.562133 152.196923 
L 232.773773 152.196923 
L 232.985412 154.057846 
L 233.197051 152.196923 
L 233.40869 161.501538 
L 233.62033 157.779692 
L 234.043608 163.362462 
L 234.466886 150.336 
L 234.678526 161.501538 
L 234.890165 165.223385 
L 235.101804 159.640615 
L 235.313443 159.640615 
L 235.525082 157.779692 
L 235.736722 157.779692 
L 235.948361 141.031385 
L 236.16 141.031385 
L 236.371639 146.614154 
L 236.794918 165.223385 
L 237.006557 183.832615 
L 237.218196 191.276308 
L 237.429835 187.554462 
L 237.853114 200.580923 
L 238.276392 181.971692 
L 238.488031 180.110769 
L 238.69967 181.971692 
L 238.91131 165.223385 
L 239.122949 168.945231 
L 239.334588 161.501538 
L 239.546227 159.640615 
L 239.757867 170.806154 
L 240.181145 161.501538 
L 240.392784 170.806154 
L 241.027702 159.640615 
L 241.239341 146.614154 
L 241.45098 146.614154 
L 241.662619 139.170462 
L 241.874259 137.309538 
L 242.085898 131.726769 
L 242.297537 131.726769 
L 242.509176 144.753231 
L 242.932455 128.004923 
L 243.144094 137.309538 
L 243.355733 133.587692 
L 243.567372 142.892308 
L 243.779011 141.031385 
L 243.990651 154.057846 
L 244.20229 157.779692 
L 244.413929 155.918769 
L 244.625568 163.362462 
L 244.837208 157.779692 
L 245.048847 161.501538 
L 245.472125 176.388923 
L 245.895404 167.084308 
L 246.318682 183.832615 
L 246.530321 194.998154 
L 246.74196 196.859077 
L 246.9536 191.276308 
L 247.165239 176.388923 
L 247.376878 181.971692 
L 247.588517 167.084308 
L 247.800156 167.084308 
L 248.011796 157.779692 
L 248.223435 176.388923 
L 248.435074 174.528 
L 248.646713 185.693538 
L 248.858352 178.249846 
L 249.069992 178.249846 
L 249.281631 155.918769 
L 249.49327 150.336 
L 249.704909 148.475077 
L 249.916549 152.196923 
L 250.128188 144.753231 
L 250.339827 150.336 
L 250.551466 163.362462 
L 250.763105 163.362462 
L 250.974745 172.667077 
L 251.186384 168.945231 
L 251.398023 178.249846 
L 251.609662 141.031385 
L 252.24458 154.057846 
L 252.667858 144.753231 
L 252.879497 152.196923 
L 253.091137 141.031385 
L 253.302776 172.667077 
L 253.514415 170.806154 
L 253.726054 155.918769 
L 253.937693 152.196923 
L 254.149333 165.223385 
L 254.360972 159.640615 
L 254.572611 159.640615 
L 254.99589 172.667077 
L 255.207529 181.971692 
L 255.419168 178.249846 
L 255.630807 180.110769 
L 256.054086 180.110769 
L 256.265725 167.084308 
L 256.477364 176.388923 
L 256.689003 170.806154 
L 256.900642 159.640615 
L 257.112282 161.501538 
L 257.323921 159.640615 
L 257.53556 155.918769 
L 257.747199 135.448615 
L 257.958838 141.031385 
L 258.170478 135.448615 
L 258.382117 146.614154 
L 258.593756 135.448615 
L 258.805395 137.309538 
L 259.017034 129.865846 
L 259.651952 157.779692 
L 259.863591 154.057846 
L 260.075231 157.779692 
L 260.28687 167.084308 
L 260.710148 170.806154 
L 260.921787 180.110769 
L 261.133427 176.388923 
L 261.345066 180.110769 
L 261.768344 180.110769 
L 261.979983 170.806154 
L 262.191623 172.667077 
L 262.403262 176.388923 
L 262.614901 183.832615 
L 262.82654 204.302769 
L 263.038179 187.554462 
L 263.461458 208.024615 
L 263.673097 193.137231 
L 263.884736 198.72 
L 264.096375 183.832615 
L 264.308015 185.693538 
L 264.519654 181.971692 
L 264.731293 168.945231 
L 265.154572 157.779692 
L 265.789489 170.806154 
L 266.001128 178.249846 
L 266.424407 172.667077 
L 266.847685 168.945231 
L 267.270964 176.388923 
L 267.482603 167.084308 
L 267.694242 178.249846 
L 267.905881 196.859077 
L 268.11752 189.415385 
L 268.32916 187.554462 
L 268.540799 191.276308 
L 268.752438 191.276308 
L 268.964077 146.614154 
L 269.387356 168.945231 
L 269.598995 165.223385 
L 269.810634 144.753231 
L 270.233913 133.587692 
L 270.445552 141.031385 
L 270.657191 128.004923 
L 270.86883 133.587692 
L 271.080469 126.144 
L 271.292109 137.309538 
L 271.503748 141.031385 
L 271.715387 129.865846 
L 272.138665 163.362462 
L 272.350305 157.779692 
L 272.561944 148.475077 
L 272.985222 180.110769 
L 273.196861 183.832615 
L 273.408501 170.806154 
L 273.62014 135.448615 
L 273.831779 133.587692 
L 274.043418 135.448615 
L 274.255057 122.422154 
L 274.678336 146.614154 
L 274.889975 154.057846 
L 275.101614 172.667077 
L 275.313254 165.223385 
L 275.524893 170.806154 
L 276.15981 202.441846 
L 276.583089 189.415385 
L 276.794728 172.667077 
L 277.006367 167.084308 
L 277.429646 137.309538 
L 277.641285 141.031385 
L 278.064563 135.448615 
L 278.276202 148.475077 
L 278.487842 139.170462 
L 278.91112 157.779692 
L 279.122759 157.779692 
L 279.546038 193.137231 
L 279.757677 187.554462 
L 279.969316 187.554462 
L 280.180955 189.415385 
L 280.392595 194.998154 
L 280.604234 196.859077 
L 280.815873 202.441846 
L 281.027512 187.554462 
L 281.239151 183.832615 
L 281.874069 157.779692 
L 282.085708 161.501538 
L 282.297347 180.110769 
L 282.508987 178.249846 
L 282.720626 163.362462 
L 282.932265 168.945231 
L 283.143904 157.779692 
L 283.355543 159.640615 
L 283.567183 139.170462 
L 283.778822 142.892308 
L 283.990461 150.336 
L 284.2021 124.283077 
L 284.413739 124.283077 
L 284.625379 107.534769 
L 284.837018 105.673846 
L 285.048657 105.673846 
L 285.471936 116.839385 
L 285.683575 116.839385 
L 286.318492 94.508308 
L 286.530132 111.256615 
L 287.165049 129.865846 
L 287.376688 128.004923 
L 287.588328 122.422154 
L 287.799967 128.004923 
L 288.011606 126.144 
L 288.223245 120.561231 
L 288.646524 103.812923 
L 289.49308 133.587692 
L 289.70472 131.726769 
L 289.916359 144.753231 
L 290.127998 128.004923 
L 290.339637 131.726769 
L 290.551277 146.614154 
L 290.762916 139.170462 
L 290.974555 137.309538 
L 291.397833 148.475077 
L 291.609473 131.726769 
L 292.032751 126.144 
L 292.24439 126.144 
L 292.456029 124.283077 
L 292.667669 131.726769 
L 292.879308 129.865846 
L 293.302586 122.422154 
L 293.514225 128.004923 
L 293.725865 126.144 
L 293.937504 141.031385 
L 294.149143 139.170462 
L 294.572421 131.726769 
L 295.207339 161.501538 
L 295.418978 133.587692 
L 295.630618 129.865846 
L 295.842257 118.700308 
L 296.053896 120.561231 
L 296.688814 146.614154 
L 296.900453 144.753231 
L 297.112092 146.614154 
L 297.323731 150.336 
L 297.53537 148.475077 
L 297.958649 154.057846 
L 298.170288 144.753231 
L 298.381927 141.031385 
L 298.593566 144.753231 
L 299.016845 159.640615 
L 299.228484 157.779692 
L 299.440123 172.667077 
L 299.651762 168.945231 
L 299.863402 180.110769 
L 300.075041 168.945231 
L 300.28668 142.892308 
L 300.498319 142.892308 
L 300.709959 135.448615 
L 300.921598 135.448615 
L 301.556515 116.839385 
L 301.979794 116.839385 
L 302.614711 155.918769 
L 302.826351 141.031385 
L 303.03799 157.779692 
L 303.249629 157.779692 
L 303.461268 168.945231 
L 303.672907 191.276308 
L 304.307825 185.693538 
L 304.731103 165.223385 
L 304.942743 183.832615 
L 305.154382 183.832615 
L 305.366021 176.388923 
L 305.57766 180.110769 
L 306.000939 200.580923 
L 306.212578 206.163692 
L 306.424217 208.024615 
L 306.635856 198.72 
L 306.847496 194.998154 
L 307.059135 198.72 
L 307.270774 211.746462 
L 307.482413 209.885538 
L 307.694052 191.276308 
L 307.905692 187.554462 
L 308.117331 189.415385 
L 308.540609 185.693538 
L 308.963888 200.580923 
L 309.175527 191.276308 
L 309.387166 187.554462 
L 309.598805 196.859077 
L 309.810444 198.72 
L 310.022084 202.441846 
L 310.233723 200.580923 
L 310.445362 209.885538 
L 310.657001 200.580923 
L 310.868641 196.859077 
L 311.08028 204.302769 
L 311.291919 198.72 
L 311.503558 152.196923 
L 311.715197 144.753231 
L 312.138476 168.945231 
L 312.350115 219.190154 
L 312.561754 211.746462 
L 312.773393 232.216615 
L 313.196672 221.051077 
L 313.408311 219.190154 
L 313.61995 221.051077 
L 314.043229 237.799385 
L 314.254868 224.772923 
L 314.466507 219.190154 
L 314.678146 204.302769 
L 315.101425 217.329231 
L 315.313064 196.859077 
L 315.524703 189.415385 
L 315.736342 204.302769 
L 315.947982 196.859077 
L 316.159621 202.441846 
L 316.582899 198.72 
L 316.794538 172.667077 
L 317.006178 167.084308 
L 317.217817 170.806154 
L 317.429456 191.276308 
L 317.641095 196.859077 
L 317.852734 193.137231 
L 318.064374 174.528 
L 318.276013 172.667077 
L 318.487652 172.667077 
L 318.699291 170.806154 
L 318.91093 170.806154 
L 319.12257 168.945231 
L 319.334209 172.667077 
L 319.545848 170.806154 
L 319.757487 170.806154 
L 319.969126 176.388923 
L 320.180766 176.388923 
L 320.392405 187.554462 
L 320.604044 187.554462 
L 320.815683 189.415385 
L 321.027323 183.832615 
L 321.238962 189.415385 
L 321.873879 170.806154 
L 322.297158 180.110769 
L 322.508797 178.249846 
L 322.720436 181.971692 
L 322.932075 196.859077 
L 323.143715 202.441846 
L 323.355354 204.302769 
L 323.566993 181.971692 
L 323.778632 180.110769 
L 323.990271 191.276308 
L 324.201911 193.137231 
L 324.41355 191.276308 
L 324.625189 204.302769 
L 325.260107 185.693538 
L 325.471746 191.276308 
L 325.683385 193.137231 
L 326.106664 174.528 
L 326.318303 172.667077 
L 326.95322 198.72 
L 327.16486 191.276308 
L 327.376499 163.362462 
L 327.588138 163.362462 
L 327.799777 168.945231 
L 328.011416 191.276308 
L 328.434695 191.276308 
L 328.646334 187.554462 
L 328.857973 168.945231 
L 329.069612 163.362462 
L 329.281252 165.223385 
L 329.492891 148.475077 
L 329.70453 148.475077 
L 329.916169 155.918769 
L 330.127808 157.779692 
L 330.339448 155.918769 
L 330.762726 170.806154 
L 330.974365 167.084308 
L 331.186005 168.945231 
L 331.397644 174.528 
L 331.609283 172.667077 
L 332.032561 185.693538 
L 332.244201 196.859077 
L 332.45584 185.693538 
L 332.879118 189.415385 
L 333.090757 170.806154 
L 333.514036 174.528 
L 333.725675 157.779692 
L 333.937314 161.501538 
L 334.360593 183.832615 
L 334.572232 176.388923 
L 334.99551 194.998154 
L 335.207149 174.528 
L 335.842067 211.746462 
L 336.053706 204.302769 
L 336.265346 215.468308 
L 336.476985 215.468308 
L 336.688624 209.885538 
L 336.900263 209.885538 
L 337.111902 224.772923 
L 337.535181 213.607385 
L 337.74682 211.746462 
L 338.170098 189.415385 
L 338.593377 211.746462 
L 338.805016 213.607385 
L 339.016655 221.051077 
L 339.228294 211.746462 
L 339.439934 217.329231 
L 339.863212 217.329231 
L 340.074851 228.494769 
L 340.28649 226.633846 
L 340.49813 221.051077 
L 340.709769 224.772923 
L 341.133047 213.607385 
L 341.344686 211.746462 
L 341.767965 204.302769 
L 341.979604 206.163692 
L 342.191243 202.441846 
L 342.402883 213.607385 
L 342.614522 200.580923 
L 342.826161 204.302769 
L 343.0378 202.441846 
L 343.249439 198.72 
L 343.461079 189.415385 
L 343.672718 198.72 
L 343.884357 196.859077 
L 344.095996 196.859077 
L 344.307635 206.163692 
L 344.730914 183.832615 
L 344.942553 185.693538 
L 345.154192 185.693538 
L 346.000749 206.163692 
L 346.212388 193.137231 
L 346.424027 187.554462 
L 346.635667 191.276308 
L 346.847306 191.276308 
L 347.270584 196.859077 
L 347.693863 185.693538 
L 347.905502 191.276308 
L 348.117141 183.832615 
L 348.32878 185.693538 
L 348.54042 183.832615 
L 348.752059 174.528 
L 348.963698 174.528 
L 349.175337 172.667077 
L 349.386976 128.004923 
L 349.598616 129.865846 
L 349.810255 141.031385 
L 350.021894 131.726769 
L 350.445172 126.144 
L 350.656812 126.144 
L 350.868451 144.753231 
L 351.08009 144.753231 
L 351.291729 163.362462 
L 351.503368 165.223385 
L 351.926647 155.918769 
L 352.138286 155.918769 
L 352.349925 154.057846 
L 352.773204 139.170462 
L 352.984843 131.726769 
L 353.408121 144.753231 
L 353.619761 135.448615 
L 353.8314 137.309538 
L 354.043039 144.753231 
L 354.254678 146.614154 
L 354.466317 150.336 
L 354.677957 181.971692 
L 354.889596 189.415385 
L 355.101235 206.163692 
L 355.312874 209.885538 
L 355.524513 217.329231 
L 355.736153 215.468308 
L 355.947792 219.190154 
L 356.37107 206.163692 
L 356.582709 209.885538 
L 356.794349 206.163692 
L 357.005988 213.607385 
L 357.217627 215.468308 
L 357.429266 213.607385 
L 357.640906 215.468308 
L 357.852545 215.468308 
L 358.275823 198.72 
L 358.487462 191.276308 
L 358.699102 193.137231 
L 358.910741 176.388923 
L 359.12238 196.859077 
L 359.545658 191.276308 
L 359.757298 194.998154 
L 359.968937 187.554462 
L 360.392215 194.998154 
L 360.603854 191.276308 
L 360.815494 191.276308 
L 361.027133 189.415385 
L 361.238772 183.832615 
L 361.450411 196.859077 
L 361.87369 183.832615 
L 362.085329 174.528 
L 362.296968 172.667077 
L 362.508607 172.667077 
L 362.720247 176.388923 
L 362.931886 185.693538 
L 363.143525 187.554462 
L 363.355164 187.554462 
L 363.566803 180.110769 
L 363.778443 178.249846 
L 363.990082 161.501538 
L 364.624999 185.693538 
L 364.836639 181.971692 
L 365.048278 183.832615 
L 365.259917 181.971692 
L 365.471556 178.249846 
L 365.894835 200.580923 
L 366.318113 208.024615 
L 366.529752 206.163692 
L 366.953031 209.885538 
L 367.16467 230.355692 
L 367.376309 222.912 
L 367.587948 224.772923 
L 368.011227 213.607385 
L 368.222866 211.746462 
L 368.434505 228.494769 
L 368.646144 263.852308 
L 369.281062 254.547692 
L 369.70434 273.156923 
L 369.91598 271.296 
L 370.127619 267.574154 
L 370.550897 276.878769 
L 370.762536 271.296 
L 370.974176 256.408615 
L 371.185815 250.825846 
L 371.609093 228.494769 
L 371.820732 200.580923 
L 372.45565 241.521231 
L 372.667289 211.746462 
L 373.090568 200.580923 
L 373.302207 202.441846 
L 373.725485 193.137231 
L 373.937125 200.580923 
L 374.148764 200.580923 
L 374.360403 198.72 
L 374.783681 208.024615 
L 374.995321 196.859077 
L 375.20696 215.468308 
L 375.630238 204.302769 
L 375.841877 222.912 
L 376.053517 226.633846 
L 376.265156 224.772923 
L 376.476795 224.772923 
L 376.688434 221.051077 
L 376.900073 222.912 
L 377.111713 215.468308 
L 377.534991 228.494769 
L 377.74663 213.607385 
L 377.95827 226.633846 
L 378.381548 209.885538 
L 378.593187 208.024615 
L 378.804826 208.024615 
L 379.016466 211.746462 
L 379.228105 232.216615 
L 379.439744 232.216615 
L 379.651383 228.494769 
L 379.863022 209.885538 
L 380.286301 196.859077 
L 380.709579 202.441846 
L 380.921218 202.441846 
L 381.132858 206.163692 
L 381.344497 206.163692 
L 381.767775 209.885538 
L 381.979414 202.441846 
L 382.191054 215.468308 
L 382.402693 213.607385 
L 382.825971 232.216615 
L 383.037611 232.216615 
L 383.672528 226.633846 
L 383.884167 234.077538 
L 384.095807 250.825846 
L 384.307446 243.382154 
L 384.519085 248.964923 
L 384.730724 258.269538 
L 384.942363 248.964923 
L 385.154003 248.964923 
L 385.365642 265.713231 
L 385.577281 260.130462 
L 385.78892 243.382154 
L 386.000559 237.799385 
L 386.212199 243.382154 
L 386.423838 245.243077 
L 386.635477 235.938462 
L 386.847116 247.104 
L 387.270395 250.825846 
L 387.482034 250.825846 
L 387.905312 261.991385 
L 388.116952 265.713231 
L 388.328591 265.713231 
L 388.54023 271.296 
L 388.751869 267.574154 
L 388.963508 271.296 
L 389.175148 267.574154 
L 389.386787 271.296 
L 389.598426 265.713231 
L 389.810065 271.296 
L 390.021704 273.156923 
L 390.233344 271.296 
L 390.444983 276.878769 
L 390.656622 275.017846 
L 390.868261 271.296 
L 391.0799 275.017846 
L 391.29154 260.130462 
L 391.503179 261.991385 
L 391.714818 261.991385 
L 391.926457 248.964923 
L 392.138096 252.686769 
L 392.349736 247.104 
L 392.561375 248.964923 
L 392.984653 271.296 
L 393.196293 278.739692 
L 393.407932 295.488 
L 393.83121 278.739692 
L 394.042849 273.156923 
L 394.466128 239.660308 
L 394.889406 248.964923 
L 395.312685 243.382154 
L 395.524324 241.521231 
L 395.735963 241.521231 
L 395.947602 239.660308 
L 396.159241 247.104 
L 396.370881 245.243077 
L 396.58252 252.686769 
L 396.794159 252.686769 
L 397.005798 250.825846 
L 397.429077 254.547692 
L 397.640716 260.130462 
L 397.852355 261.991385 
L 398.063994 254.547692 
L 398.275634 267.574154 
L 398.487273 269.435077 
L 398.487273 269.435077 
" clip-path="url(#p9433f889b4)" style="fill: none; stroke: #1f77b4; stroke-width: 1.5; stroke-linecap: square"/>
   </g>
   <g id="patch_3">
    <path d="M 57.6 307.584 
L 57.6 41.472 
" style="fill: none; stroke: #000000; stroke-width: 0.8; stroke-linejoin: miter; stroke-linecap: square"/>
   </g>
   <g id="patch_4">
    <path d="M 414.72 307.584 
L 414.72 41.472 
" style="fill: none; stroke: #000000; stroke-width: 0.8; stroke-linejoin: miter; stroke-linecap: square"/>
   </g>
   <g id="patch_5">
    <path d="M 57.6 307.584 
L 414.72 307.584 
" style="fill: none; stroke: #000000; stroke-width: 0.8; stroke-linejoin: miter; stroke-linecap: square"/>
   </g>
   <g id="patch_6">
    <path d="M 57.6 41.472 
L 414.72 41.472 
" style="fill: none; stroke: #000000; stroke-width: 0.8; stroke-linejoin: miter; stroke-linecap: square"/>
   </g>
   <g id="text_17">
    <!-- Simulated Anealling Cost -->
    <g transform="translate(160.8 35.472)scale(0.12 -0.12)">
     <defs>
      <path id="DejaVuSans-53" d="M 3425 4513 
L 3425 3897 
Q 3066 4069 2747 4153 
Q 2428 4238 2131 4238 
Q 1616 4238 1336 4038 
Q 1056 3838 1056 3469 
Q 1056 3159 1242 3001 
Q 1428 2844 1947 2747 
L 2328 2669 
Q 3034 2534 3370 2195 
Q 3706 1856 3706 1288 
Q 3706 609 3251 259 
Q 2797 -91 1919 -91 
Q 1588 -91 1214 -16 
Q 841 59 441 206 
L 441 856 
Q 825 641 1194 531 
Q 1563 422 1919 422 
Q 2459 422 2753 634 
Q 3047 847 3047 1241 
Q 3047 1584 2836 1778 
Q 2625 1972 2144 2069 
L 1759 2144 
Q 1053 2284 737 2584 
Q 422 2884 422 3419 
Q 422 4038 858 4394 
Q 1294 4750 2059 4750 
Q 2388 4750 2728 4690 
Q 3069 4631 3425 4513 
z
" transform="scale(0.015625)"/>
      <path id="DejaVuSans-69" d="M 603 3500 
L 1178 3500 
L 1178 0 
L 603 0 
L 603 3500 
z
M 603 4863 
L 1178 4863 
L 1178 4134 
L 603 4134 
L 603 4863 
z
" transform="scale(0.015625)"/>
      <path id="DejaVuSans-65" d="M 3597 1894 
L 3597 1613 
L 953 1613 
Q 991 1019 1311 708 
Q 1631 397 2203 397 
Q 2534 397 2845 478 
Q 3156 559 3463 722 
L 3463 178 
Q 3153 47 2828 -22 
Q 2503 -91 2169 -91 
Q 1331 -91 842 396 
Q 353 884 353 1716 
Q 353 2575 817 3079 
Q 1281 3584 2069 3584 
Q 2775 3584 3186 3129 
Q 3597 2675 3597 1894 
z
M 3022 2063 
Q 3016 2534 2758 2815 
Q 2500 3097 2075 3097 
Q 1594 3097 1305 2825 
Q 1016 2553 972 2059 
L 3022 2063 
z
" transform="scale(0.015625)"/>
      <path id="DejaVuSans-64" d="M 2906 2969 
L 2906 4863 
L 3481 4863 
L 3481 0 
L 2906 0 
L 2906 525 
Q 2725 213 2448 61 
Q 2172 -91 1784 -91 
Q 1150 -91 751 415 
Q 353 922 353 1747 
Q 353 2572 751 3078 
Q 1150 3584 1784 3584 
Q 2172 3584 2448 3432 
Q 2725 3281 2906 2969 
z
M 947 1747 
Q 947 1113 1208 752 
Q 1469 391 1925 391 
Q 2381 391 2643 752 
Q 2906 1113 2906 1747 
Q 2906 2381 2643 2742 
Q 2381 3103 1925 3103 
Q 1469 3103 1208 2742 
Q 947 2381 947 1747 
z
" transform="scale(0.015625)"/>
      <path id="DejaVuSans-41" d="M 2188 4044 
L 1331 1722 
L 3047 1722 
L 2188 4044 
z
M 1831 4666 
L 2547 4666 
L 4325 0 
L 3669 0 
L 3244 1197 
L 1141 1197 
L 716 0 
L 50 0 
L 1831 4666 
z
" transform="scale(0.015625)"/>
      <path id="DejaVuSans-67" d="M 2906 1791 
Q 2906 2416 2648 2759 
Q 2391 3103 1925 3103 
Q 1463 3103 1205 2759 
Q 947 2416 947 1791 
Q 947 1169 1205 825 
Q 1463 481 1925 481 
Q 2391 481 2648 825 
Q 2906 1169 2906 1791 
z
M 3481 434 
Q 3481 -459 3084 -895 
Q 2688 -1331 1869 -1331 
Q 1566 -1331 1297 -1286 
Q 1028 -1241 775 -1147 
L 775 -588 
Q 1028 -725 1275 -790 
Q 1522 -856 1778 -856 
Q 2344 -856 2625 -561 
Q 2906 -266 2906 331 
L 2906 616 
Q 2728 306 2450 153 
Q 2172 0 1784 0 
Q 1141 0 747 490 
Q 353 981 353 1791 
Q 353 2603 747 3093 
Q 1141 3584 1784 3584 
Q 2172 3584 2450 3431 
Q 2728 3278 2906 2969 
L 2906 3500 
L 3481 3500 
L 3481 434 
z
" transform="scale(0.015625)"/>
      <path id="DejaVuSans-43" d="M 4122 4306 
L 4122 3641 
Q 3803 3938 3442 4084 
Q 3081 4231 2675 4231 
Q 1875 4231 1450 3742 
Q 1025 3253 1025 2328 
Q 1025 1406 1450 917 
Q 1875 428 2675 428 
Q 3081 428 3442 575 
Q 3803 722 4122 1019 
L 4122 359 
Q 3791 134 3420 21 
Q 3050 -91 2638 -91 
Q 1578 -91 968 557 
Q 359 1206 359 2328 
Q 359 3453 968 4101 
Q 1578 4750 2638 4750 
Q 3056 4750 3426 4639 
Q 3797 4528 4122 4306 
z
" transform="scale(0.015625)"/>
     </defs>
     <use xlink:href="#DejaVuSans-53"/>
     <use xlink:href="#DejaVuSans-69" x="63.476562"/>
     <use xlink:href="#DejaVuSans-6d" x="91.259766"/>
     <use xlink:href="#DejaVuSans-75" x="188.671875"/>
     <use xlink:href="#DejaVuSans-6c" x="252.050781"/>
     <use xlink:href="#DejaVuSans-61" x="279.833984"/>
     <use xlink:href="#DejaVuSans-74" x="341.113281"/>
     <use xlink:href="#DejaVuSans-65" x="380.322266"/>
     <use xlink:href="#DejaVuSans-64" x="441.845703"/>
     <use xlink:href="#DejaVuSans-20" x="505.322266"/>
     <use xlink:href="#DejaVuSans-41" x="537.109375"/>
     <use xlink:href="#DejaVuSans-6e" x="605.517578"/>
     <use xlink:href="#DejaVuSans-65" x="668.896484"/>
     <use xlink:href="#DejaVuSans-61" x="730.419922"/>
     <use xlink:href="#DejaVuSans-6c" x="791.699219"/>
     <use xlink:href="#DejaVuSans-6c" x="819.482422"/>
     <use xlink:href="#DejaVuSans-69" x="847.265625"/>
     <use xlink:href="#DejaVuSans-6e" x="875.048828"/>
     <use xlink:href="#DejaVuSans-67" x="938.427734"/>
     <use xlink:href="#DejaVuSans-20" x="1001.904297"/>
     <use xlink:href="#DejaVuSans-43" x="1033.691406"/>
     <use xlink:href="#DejaVuSans-6f" x="1103.515625"/>
     <use xlink:href="#DejaVuSans-73" x="1164.697266"/>
     <use xlink:href="#DejaVuSans-74" x="1216.796875"/>
    </g>
   </g>
  </g>
 </g>
 <defs>
  <clipPath id="p9433f889b4">
   <rect x="57.6" y="41.472" width="357.12" height="266.112"/>
  </clipPath>
 </defs>
</svg>
