<?xml version="1.0" encoding="utf-8" standalone="no"?>
<!DOCTYPE svg PUBLIC "-//W3C//DTD SVG 1.1//EN"
  "http://www.w3.org/Graphics/SVG/1.1/DTD/svg11.dtd">
<svg xmlns:xlink="http://www.w3.org/1999/xlink" width="460.8pt" height="345.6pt" viewBox="0 0 460.8 345.6" xmlns="http://www.w3.org/2000/svg" version="1.1">
 <metadata>
  <rdf:RDF xmlns:dc="http://purl.org/dc/elements/1.1/" xmlns:cc="http://creativecommons.org/ns#" xmlns:rdf="http://www.w3.org/1999/02/22-rdf-syntax-ns#">
   <cc:Work>
    <dc:type rdf:resource="http://purl.org/dc/dcmitype/StillImage"/>
    <dc:date>2022-06-01T08:07:17.099294</dc:date>
    <dc:format>image/svg+xml</dc:format>
    <dc:creator>
     <cc:Agent>
      <dc:title>Matplotlib v3.5.1, https://matplotlib.org/</dc:title>
     </cc:Agent>
    </dc:creator>
   </cc:Work>
  </rdf:RDF>
 </metadata>
 <defs>
  <style type="text/css">*{stroke-linejoin: round; stroke-linecap: butt}</style>
 </defs>
 <g id="figure_1">
  <g id="patch_1">
   <path d="M 0 345.6 
L 460.8 345.6 
L 460.8 0 
L 0 0 
z
" style="fill: #ffffff"/>
  </g>
  <g id="axes_1">
   <g id="patch_2">
    <path d="M 57.6 307.584 
L 414.72 307.584 
L 414.72 41.472 
L 57.6 41.472 
z
" style="fill: #ffffff"/>
   </g>
   <g id="matplotlib.axis_1">
    <g id="xtick_1">
     <g id="line2d_1">
      <defs>
       <path id="mb2e2e77516" d="M 0 0 
L 0 3.5 
" style="stroke: #000000; stroke-width: 0.8"/>
      </defs>
      <g>
       <use xlink:href="#mb2e2e77516" x="73.832727" y="307.584" style="stroke: #000000; stroke-width: 0.8"/>
      </g>
     </g>
     <g id="text_1">
      <!-- 0 -->
      <g transform="translate(70.651477 322.182437)scale(0.1 -0.1)">
       <defs>
        <path id="DejaVuSans-30" d="M 2034 4250 
Q 1547 4250 1301 3770 
Q 1056 3291 1056 2328 
Q 1056 1369 1301 889 
Q 1547 409 2034 409 
Q 2525 409 2770 889 
Q 3016 1369 3016 2328 
Q 3016 3291 2770 3770 
Q 2525 4250 2034 4250 
z
M 2034 4750 
Q 2819 4750 3233 4129 
Q 3647 3509 3647 2328 
Q 3647 1150 3233 529 
Q 2819 -91 2034 -91 
Q 1250 -91 836 529 
Q 422 1150 422 2328 
Q 422 3509 836 4129 
Q 1250 4750 2034 4750 
z
" transform="scale(0.015625)"/>
       </defs>
       <use xlink:href="#DejaVuSans-30"/>
      </g>
     </g>
    </g>
    <g id="xtick_2">
     <g id="line2d_2">
      <g>
       <use xlink:href="#mb2e2e77516" x="130.471692" y="307.584" style="stroke: #000000; stroke-width: 0.8"/>
      </g>
     </g>
     <g id="text_2">
      <!-- 500 -->
      <g transform="translate(120.927942 322.182437)scale(0.1 -0.1)">
       <defs>
        <path id="DejaVuSans-35" d="M 691 4666 
L 3169 4666 
L 3169 4134 
L 1269 4134 
L 1269 2991 
Q 1406 3038 1543 3061 
Q 1681 3084 1819 3084 
Q 2600 3084 3056 2656 
Q 3513 2228 3513 1497 
Q 3513 744 3044 326 
Q 2575 -91 1722 -91 
Q 1428 -91 1123 -41 
Q 819 9 494 109 
L 494 744 
Q 775 591 1075 516 
Q 1375 441 1709 441 
Q 2250 441 2565 725 
Q 2881 1009 2881 1497 
Q 2881 1984 2565 2268 
Q 2250 2553 1709 2553 
Q 1456 2553 1204 2497 
Q 953 2441 691 2322 
L 691 4666 
z
" transform="scale(0.015625)"/>
       </defs>
       <use xlink:href="#DejaVuSans-35"/>
       <use xlink:href="#DejaVuSans-30" x="63.623047"/>
       <use xlink:href="#DejaVuSans-30" x="127.246094"/>
      </g>
     </g>
    </g>
    <g id="xtick_3">
     <g id="line2d_3">
      <g>
       <use xlink:href="#mb2e2e77516" x="187.110657" y="307.584" style="stroke: #000000; stroke-width: 0.8"/>
      </g>
     </g>
     <g id="text_3">
      <!-- 1000 -->
      <g transform="translate(174.385657 322.182437)scale(0.1 -0.1)">
       <defs>
        <path id="DejaVuSans-31" d="M 794 531 
L 1825 531 
L 1825 4091 
L 703 3866 
L 703 4441 
L 1819 4666 
L 2450 4666 
L 2450 531 
L 3481 531 
L 3481 0 
L 794 0 
L 794 531 
z
" transform="scale(0.015625)"/>
       </defs>
       <use xlink:href="#DejaVuSans-31"/>
       <use xlink:href="#DejaVuSans-30" x="63.623047"/>
       <use xlink:href="#DejaVuSans-30" x="127.246094"/>
       <use xlink:href="#DejaVuSans-30" x="190.869141"/>
      </g>
     </g>
    </g>
    <g id="xtick_4">
     <g id="line2d_4">
      <g>
       <use xlink:href="#mb2e2e77516" x="243.749621" y="307.584" style="stroke: #000000; stroke-width: 0.8"/>
      </g>
     </g>
     <g id="text_4">
      <!-- 1500 -->
      <g transform="translate(231.024621 322.182437)scale(0.1 -0.1)">
       <use xlink:href="#DejaVuSans-31"/>
       <use xlink:href="#DejaVuSans-35" x="63.623047"/>
       <use xlink:href="#DejaVuSans-30" x="127.246094"/>
       <use xlink:href="#DejaVuSans-30" x="190.869141"/>
      </g>
     </g>
    </g>
    <g id="xtick_5">
     <g id="line2d_5">
      <g>
       <use xlink:href="#mb2e2e77516" x="300.388586" y="307.584" style="stroke: #000000; stroke-width: 0.8"/>
      </g>
     </g>
     <g id="text_5">
      <!-- 2000 -->
      <g transform="translate(287.663586 322.182437)scale(0.1 -0.1)">
       <defs>
        <path id="DejaVuSans-32" d="M 1228 531 
L 3431 531 
L 3431 0 
L 469 0 
L 469 531 
Q 828 903 1448 1529 
Q 2069 2156 2228 2338 
Q 2531 2678 2651 2914 
Q 2772 3150 2772 3378 
Q 2772 3750 2511 3984 
Q 2250 4219 1831 4219 
Q 1534 4219 1204 4116 
Q 875 4013 500 3803 
L 500 4441 
Q 881 4594 1212 4672 
Q 1544 4750 1819 4750 
Q 2544 4750 2975 4387 
Q 3406 4025 3406 3419 
Q 3406 3131 3298 2873 
Q 3191 2616 2906 2266 
Q 2828 2175 2409 1742 
Q 1991 1309 1228 531 
z
" transform="scale(0.015625)"/>
       </defs>
       <use xlink:href="#DejaVuSans-32"/>
       <use xlink:href="#DejaVuSans-30" x="63.623047"/>
       <use xlink:href="#DejaVuSans-30" x="127.246094"/>
       <use xlink:href="#DejaVuSans-30" x="190.869141"/>
      </g>
     </g>
    </g>
    <g id="xtick_6">
     <g id="line2d_6">
      <g>
       <use xlink:href="#mb2e2e77516" x="357.027551" y="307.584" style="stroke: #000000; stroke-width: 0.8"/>
      </g>
     </g>
     <g id="text_6">
      <!-- 2500 -->
      <g transform="translate(344.302551 322.182437)scale(0.1 -0.1)">
       <use xlink:href="#DejaVuSans-32"/>
       <use xlink:href="#DejaVuSans-35" x="63.623047"/>
       <use xlink:href="#DejaVuSans-30" x="127.246094"/>
       <use xlink:href="#DejaVuSans-30" x="190.869141"/>
      </g>
     </g>
    </g>
    <g id="xtick_7">
     <g id="line2d_7">
      <g>
       <use xlink:href="#mb2e2e77516" x="413.666515" y="307.584" style="stroke: #000000; stroke-width: 0.8"/>
      </g>
     </g>
     <g id="text_7">
      <!-- 3000 -->
      <g transform="translate(400.941515 322.182437)scale(0.1 -0.1)">
       <defs>
        <path id="DejaVuSans-33" d="M 2597 2516 
Q 3050 2419 3304 2112 
Q 3559 1806 3559 1356 
Q 3559 666 3084 287 
Q 2609 -91 1734 -91 
Q 1441 -91 1130 -33 
Q 819 25 488 141 
L 488 750 
Q 750 597 1062 519 
Q 1375 441 1716 441 
Q 2309 441 2620 675 
Q 2931 909 2931 1356 
Q 2931 1769 2642 2001 
Q 2353 2234 1838 2234 
L 1294 2234 
L 1294 2753 
L 1863 2753 
Q 2328 2753 2575 2939 
Q 2822 3125 2822 3475 
Q 2822 3834 2567 4026 
Q 2313 4219 1838 4219 
Q 1578 4219 1281 4162 
Q 984 4106 628 3988 
L 628 4550 
Q 988 4650 1302 4700 
Q 1616 4750 1894 4750 
Q 2613 4750 3031 4423 
Q 3450 4097 3450 3541 
Q 3450 3153 3228 2886 
Q 3006 2619 2597 2516 
z
" transform="scale(0.015625)"/>
       </defs>
       <use xlink:href="#DejaVuSans-33"/>
       <use xlink:href="#DejaVuSans-30" x="63.623047"/>
       <use xlink:href="#DejaVuSans-30" x="127.246094"/>
       <use xlink:href="#DejaVuSans-30" x="190.869141"/>
      </g>
     </g>
    </g>
    <g id="text_8">
     <!-- num swaps -->
     <g transform="translate(207.826406 335.860562)scale(0.1 -0.1)">
      <defs>
       <path id="DejaVuSans-6e" d="M 3513 2113 
L 3513 0 
L 2938 0 
L 2938 2094 
Q 2938 2591 2744 2837 
Q 2550 3084 2163 3084 
Q 1697 3084 1428 2787 
Q 1159 2491 1159 1978 
L 1159 0 
L 581 0 
L 581 3500 
L 1159 3500 
L 1159 2956 
Q 1366 3272 1645 3428 
Q 1925 3584 2291 3584 
Q 2894 3584 3203 3211 
Q 3513 2838 3513 2113 
z
" transform="scale(0.015625)"/>
       <path id="DejaVuSans-75" d="M 544 1381 
L 544 3500 
L 1119 3500 
L 1119 1403 
Q 1119 906 1312 657 
Q 1506 409 1894 409 
Q 2359 409 2629 706 
Q 2900 1003 2900 1516 
L 2900 3500 
L 3475 3500 
L 3475 0 
L 2900 0 
L 2900 538 
Q 2691 219 2414 64 
Q 2138 -91 1772 -91 
Q 1169 -91 856 284 
Q 544 659 544 1381 
z
M 1991 3584 
L 1991 3584 
z
" transform="scale(0.015625)"/>
       <path id="DejaVuSans-6d" d="M 3328 2828 
Q 3544 3216 3844 3400 
Q 4144 3584 4550 3584 
Q 5097 3584 5394 3201 
Q 5691 2819 5691 2113 
L 5691 0 
L 5113 0 
L 5113 2094 
Q 5113 2597 4934 2840 
Q 4756 3084 4391 3084 
Q 3944 3084 3684 2787 
Q 3425 2491 3425 1978 
L 3425 0 
L 2847 0 
L 2847 2094 
Q 2847 2600 2669 2842 
Q 2491 3084 2119 3084 
Q 1678 3084 1418 2786 
Q 1159 2488 1159 1978 
L 1159 0 
L 581 0 
L 581 3500 
L 1159 3500 
L 1159 2956 
Q 1356 3278 1631 3431 
Q 1906 3584 2284 3584 
Q 2666 3584 2933 3390 
Q 3200 3197 3328 2828 
z
" transform="scale(0.015625)"/>
       <path id="DejaVuSans-20" transform="scale(0.015625)"/>
       <path id="DejaVuSans-73" d="M 2834 3397 
L 2834 2853 
Q 2591 2978 2328 3040 
Q 2066 3103 1784 3103 
Q 1356 3103 1142 2972 
Q 928 2841 928 2578 
Q 928 2378 1081 2264 
Q 1234 2150 1697 2047 
L 1894 2003 
Q 2506 1872 2764 1633 
Q 3022 1394 3022 966 
Q 3022 478 2636 193 
Q 2250 -91 1575 -91 
Q 1294 -91 989 -36 
Q 684 19 347 128 
L 347 722 
Q 666 556 975 473 
Q 1284 391 1588 391 
Q 1994 391 2212 530 
Q 2431 669 2431 922 
Q 2431 1156 2273 1281 
Q 2116 1406 1581 1522 
L 1381 1569 
Q 847 1681 609 1914 
Q 372 2147 372 2553 
Q 372 3047 722 3315 
Q 1072 3584 1716 3584 
Q 2034 3584 2315 3537 
Q 2597 3491 2834 3397 
z
" transform="scale(0.015625)"/>
       <path id="DejaVuSans-77" d="M 269 3500 
L 844 3500 
L 1563 769 
L 2278 3500 
L 2956 3500 
L 3675 769 
L 4391 3500 
L 4966 3500 
L 4050 0 
L 3372 0 
L 2619 2869 
L 1863 0 
L 1184 0 
L 269 3500 
z
" transform="scale(0.015625)"/>
       <path id="DejaVuSans-61" d="M 2194 1759 
Q 1497 1759 1228 1600 
Q 959 1441 959 1056 
Q 959 750 1161 570 
Q 1363 391 1709 391 
Q 2188 391 2477 730 
Q 2766 1069 2766 1631 
L 2766 1759 
L 2194 1759 
z
M 3341 1997 
L 3341 0 
L 2766 0 
L 2766 531 
Q 2569 213 2275 61 
Q 1981 -91 1556 -91 
Q 1019 -91 701 211 
Q 384 513 384 1019 
Q 384 1609 779 1909 
Q 1175 2209 1959 2209 
L 2766 2209 
L 2766 2266 
Q 2766 2663 2505 2880 
Q 2244 3097 1772 3097 
Q 1472 3097 1187 3025 
Q 903 2953 641 2809 
L 641 3341 
Q 956 3463 1253 3523 
Q 1550 3584 1831 3584 
Q 2591 3584 2966 3190 
Q 3341 2797 3341 1997 
z
" transform="scale(0.015625)"/>
       <path id="DejaVuSans-70" d="M 1159 525 
L 1159 -1331 
L 581 -1331 
L 581 3500 
L 1159 3500 
L 1159 2969 
Q 1341 3281 1617 3432 
Q 1894 3584 2278 3584 
Q 2916 3584 3314 3078 
Q 3713 2572 3713 1747 
Q 3713 922 3314 415 
Q 2916 -91 2278 -91 
Q 1894 -91 1617 61 
Q 1341 213 1159 525 
z
M 3116 1747 
Q 3116 2381 2855 2742 
Q 2594 3103 2138 3103 
Q 1681 3103 1420 2742 
Q 1159 2381 1159 1747 
Q 1159 1113 1420 752 
Q 1681 391 2138 391 
Q 2594 391 2855 752 
Q 3116 1113 3116 1747 
z
" transform="scale(0.015625)"/>
      </defs>
      <use xlink:href="#DejaVuSans-6e"/>
      <use xlink:href="#DejaVuSans-75" x="63.378906"/>
      <use xlink:href="#DejaVuSans-6d" x="126.757812"/>
      <use xlink:href="#DejaVuSans-20" x="224.169922"/>
      <use xlink:href="#DejaVuSans-73" x="255.957031"/>
      <use xlink:href="#DejaVuSans-77" x="308.056641"/>
      <use xlink:href="#DejaVuSans-61" x="389.84375"/>
      <use xlink:href="#DejaVuSans-70" x="451.123047"/>
      <use xlink:href="#DejaVuSans-73" x="514.599609"/>
     </g>
    </g>
   </g>
   <g id="matplotlib.axis_2">
    <g id="ytick_1">
     <g id="line2d_8">
      <defs>
       <path id="m3d7d0cd0e9" d="M 0 0 
L -3.5 0 
" style="stroke: #000000; stroke-width: 0.8"/>
      </defs>
      <g>
       <use xlink:href="#m3d7d0cd0e9" x="57.6" y="303.472158" style="stroke: #000000; stroke-width: 0.8"/>
      </g>
     </g>
     <g id="text_9">
      <!-- 300 -->
      <g transform="translate(31.5125 307.271377)scale(0.1 -0.1)">
       <use xlink:href="#DejaVuSans-33"/>
       <use xlink:href="#DejaVuSans-30" x="63.623047"/>
       <use xlink:href="#DejaVuSans-30" x="127.246094"/>
      </g>
     </g>
    </g>
    <g id="ytick_2">
     <g id="line2d_9">
      <g>
       <use xlink:href="#m3d7d0cd0e9" x="57.6" y="263.551366" style="stroke: #000000; stroke-width: 0.8"/>
      </g>
     </g>
     <g id="text_10">
      <!-- 350 -->
      <g transform="translate(31.5125 267.350585)scale(0.1 -0.1)">
       <use xlink:href="#DejaVuSans-33"/>
       <use xlink:href="#DejaVuSans-35" x="63.623047"/>
       <use xlink:href="#DejaVuSans-30" x="127.246094"/>
      </g>
     </g>
    </g>
    <g id="ytick_3">
     <g id="line2d_10">
      <g>
       <use xlink:href="#m3d7d0cd0e9" x="57.6" y="223.630574" style="stroke: #000000; stroke-width: 0.8"/>
      </g>
     </g>
     <g id="text_11">
      <!-- 400 -->
      <g transform="translate(31.5125 227.429793)scale(0.1 -0.1)">
       <defs>
        <path id="DejaVuSans-34" d="M 2419 4116 
L 825 1625 
L 2419 1625 
L 2419 4116 
z
M 2253 4666 
L 3047 4666 
L 3047 1625 
L 3713 1625 
L 3713 1100 
L 3047 1100 
L 3047 0 
L 2419 0 
L 2419 1100 
L 313 1100 
L 313 1709 
L 2253 4666 
z
" transform="scale(0.015625)"/>
       </defs>
       <use xlink:href="#DejaVuSans-34"/>
       <use xlink:href="#DejaVuSans-30" x="63.623047"/>
       <use xlink:href="#DejaVuSans-30" x="127.246094"/>
      </g>
     </g>
    </g>
    <g id="ytick_4">
     <g id="line2d_11">
      <g>
       <use xlink:href="#m3d7d0cd0e9" x="57.6" y="183.709782" style="stroke: #000000; stroke-width: 0.8"/>
      </g>
     </g>
     <g id="text_12">
      <!-- 450 -->
      <g transform="translate(31.5125 187.509001)scale(0.1 -0.1)">
       <use xlink:href="#DejaVuSans-34"/>
       <use xlink:href="#DejaVuSans-35" x="63.623047"/>
       <use xlink:href="#DejaVuSans-30" x="127.246094"/>
      </g>
     </g>
    </g>
    <g id="ytick_5">
     <g id="line2d_12">
      <g>
       <use xlink:href="#m3d7d0cd0e9" x="57.6" y="143.78899" style="stroke: #000000; stroke-width: 0.8"/>
      </g>
     </g>
     <g id="text_13">
      <!-- 500 -->
      <g transform="translate(31.5125 147.588209)scale(0.1 -0.1)">
       <use xlink:href="#DejaVuSans-35"/>
       <use xlink:href="#DejaVuSans-30" x="63.623047"/>
       <use xlink:href="#DejaVuSans-30" x="127.246094"/>
      </g>
     </g>
    </g>
    <g id="ytick_6">
     <g id="line2d_13">
      <g>
       <use xlink:href="#m3d7d0cd0e9" x="57.6" y="103.868198" style="stroke: #000000; stroke-width: 0.8"/>
      </g>
     </g>
     <g id="text_14">
      <!-- 550 -->
      <g transform="translate(31.5125 107.667417)scale(0.1 -0.1)">
       <use xlink:href="#DejaVuSans-35"/>
       <use xlink:href="#DejaVuSans-35" x="63.623047"/>
       <use xlink:href="#DejaVuSans-30" x="127.246094"/>
      </g>
     </g>
    </g>
    <g id="ytick_7">
     <g id="line2d_14">
      <g>
       <use xlink:href="#m3d7d0cd0e9" x="57.6" y="63.947406" style="stroke: #000000; stroke-width: 0.8"/>
      </g>
     </g>
     <g id="text_15">
      <!-- 600 -->
      <g transform="translate(31.5125 67.746625)scale(0.1 -0.1)">
       <defs>
        <path id="DejaVuSans-36" d="M 2113 2584 
Q 1688 2584 1439 2293 
Q 1191 2003 1191 1497 
Q 1191 994 1439 701 
Q 1688 409 2113 409 
Q 2538 409 2786 701 
Q 3034 994 3034 1497 
Q 3034 2003 2786 2293 
Q 2538 2584 2113 2584 
z
M 3366 4563 
L 3366 3988 
Q 3128 4100 2886 4159 
Q 2644 4219 2406 4219 
Q 1781 4219 1451 3797 
Q 1122 3375 1075 2522 
Q 1259 2794 1537 2939 
Q 1816 3084 2150 3084 
Q 2853 3084 3261 2657 
Q 3669 2231 3669 1497 
Q 3669 778 3244 343 
Q 2819 -91 2113 -91 
Q 1303 -91 875 529 
Q 447 1150 447 2328 
Q 447 3434 972 4092 
Q 1497 4750 2381 4750 
Q 2619 4750 2861 4703 
Q 3103 4656 3366 4563 
z
" transform="scale(0.015625)"/>
       </defs>
       <use xlink:href="#DejaVuSans-36"/>
       <use xlink:href="#DejaVuSans-30" x="63.623047"/>
       <use xlink:href="#DejaVuSans-30" x="127.246094"/>
      </g>
     </g>
    </g>
    <g id="text_16">
     <!-- total cost -->
     <g transform="translate(25.432812 197.923313)rotate(-90)scale(0.1 -0.1)">
      <defs>
       <path id="DejaVuSans-74" d="M 1172 4494 
L 1172 3500 
L 2356 3500 
L 2356 3053 
L 1172 3053 
L 1172 1153 
Q 1172 725 1289 603 
Q 1406 481 1766 481 
L 2356 481 
L 2356 0 
L 1766 0 
Q 1100 0 847 248 
Q 594 497 594 1153 
L 594 3053 
L 172 3053 
L 172 3500 
L 594 3500 
L 594 4494 
L 1172 4494 
z
" transform="scale(0.015625)"/>
       <path id="DejaVuSans-6f" d="M 1959 3097 
Q 1497 3097 1228 2736 
Q 959 2375 959 1747 
Q 959 1119 1226 758 
Q 1494 397 1959 397 
Q 2419 397 2687 759 
Q 2956 1122 2956 1747 
Q 2956 2369 2687 2733 
Q 2419 3097 1959 3097 
z
M 1959 3584 
Q 2709 3584 3137 3096 
Q 3566 2609 3566 1747 
Q 3566 888 3137 398 
Q 2709 -91 1959 -91 
Q 1206 -91 779 398 
Q 353 888 353 1747 
Q 353 2609 779 3096 
Q 1206 3584 1959 3584 
z
" transform="scale(0.015625)"/>
       <path id="DejaVuSans-6c" d="M 603 4863 
L 1178 4863 
L 1178 0 
L 603 0 
L 603 4863 
z
" transform="scale(0.015625)"/>
       <path id="DejaVuSans-63" d="M 3122 3366 
L 3122 2828 
Q 2878 2963 2633 3030 
Q 2388 3097 2138 3097 
Q 1578 3097 1268 2742 
Q 959 2388 959 1747 
Q 959 1106 1268 751 
Q 1578 397 2138 397 
Q 2388 397 2633 464 
Q 2878 531 3122 666 
L 3122 134 
Q 2881 22 2623 -34 
Q 2366 -91 2075 -91 
Q 1284 -91 818 406 
Q 353 903 353 1747 
Q 353 2603 823 3093 
Q 1294 3584 2113 3584 
Q 2378 3584 2631 3529 
Q 2884 3475 3122 3366 
z
" transform="scale(0.015625)"/>
      </defs>
      <use xlink:href="#DejaVuSans-74"/>
      <use xlink:href="#DejaVuSans-6f" x="39.208984"/>
      <use xlink:href="#DejaVuSans-74" x="100.390625"/>
      <use xlink:href="#DejaVuSans-61" x="139.599609"/>
      <use xlink:href="#DejaVuSans-6c" x="200.878906"/>
      <use xlink:href="#DejaVuSans-20" x="228.662109"/>
      <use xlink:href="#DejaVuSans-63" x="260.449219"/>
      <use xlink:href="#DejaVuSans-6f" x="315.429688"/>
      <use xlink:href="#DejaVuSans-73" x="376.611328"/>
      <use xlink:href="#DejaVuSans-74" x="428.710938"/>
     </g>
    </g>
   </g>
   <g id="line2d_15">
    <path d="M 73.832727 56.761663 
L 74.059283 58.358495 
L 74.285839 55.963248 
L 74.512395 79.915723 
L 74.738951 78.318891 
L 74.965507 71.931564 
L 75.192062 70.334733 
L 75.418618 67.939485 
L 75.645174 87.101465 
L 75.87173 60.753743 
L 76.098286 83.109386 
L 76.551398 73.528396 
L 76.777953 71.931564 
L 77.004509 87.899881 
L 77.231065 87.101465 
L 77.457621 80.714139 
L 77.684177 85.504634 
L 77.910733 95.88404 
L 78.137289 95.88404 
L 78.363844 94.287208 
L 78.5904 91.093545 
L 78.816956 97.480871 
L 79.043512 87.101465 
L 79.270068 83.907802 
L 79.72318 96.682455 
L 80.176291 90.295129 
L 80.402847 106.263446 
L 80.629403 104.666614 
L 80.855959 91.89196 
L 81.082515 114.247604 
L 81.309071 101.47295 
L 81.535626 103.868198 
L 81.762182 99.077703 
L 81.988738 79.915723 
L 82.215294 90.295129 
L 82.44185 90.295129 
L 82.668406 93.488792 
L 82.894962 88.698297 
L 83.121517 107.061861 
L 83.348073 108.658693 
L 83.574629 131.014337 
L 83.801185 127.820673 
L 84.254297 102.271366 
L 84.480853 94.287208 
L 84.707408 102.271366 
L 84.933964 95.085624 
L 85.16052 107.860277 
L 85.387076 97.480871 
L 85.613632 127.820673 
L 86.066744 138.998495 
L 86.293299 143.78899 
L 86.746411 105.46503 
L 86.972967 108.658693 
L 87.199523 104.666614 
L 87.879191 79.117307 
L 88.105746 94.287208 
L 88.332302 96.682455 
L 88.558858 93.488792 
L 88.785414 88.698297 
L 89.465082 53.568 
L 89.918193 64.745822 
L 90.144749 75.125228 
L 90.371305 72.72998 
L 90.824417 79.117307 
L 91.050973 79.117307 
L 91.277528 84.706218 
L 91.504084 94.287208 
L 91.957196 124.62701 
L 92.183752 130.215921 
L 92.410308 115.04602 
L 92.636864 119.038099 
L 93.089975 100.674535 
L 93.316531 103.868198 
L 93.543087 86.30305 
L 93.996199 119.836515 
L 94.222755 123.030178 
L 94.675866 119.836515 
L 94.902422 110.255525 
L 95.355534 123.828594 
L 95.58209 115.844436 
L 95.808646 111.852356 
L 96.035201 142.192158 
L 96.261757 153.36998 
L 96.488313 158.160475 
L 96.941425 113.449188 
L 97.167981 111.053941 
L 97.394537 110.255525 
L 97.621092 125.425426 
L 97.847648 115.844436 
L 98.30076 129.417505 
L 98.753872 136.603248 
L 98.980428 125.425426 
L 99.206983 130.215921 
L 99.660095 144.587406 
L 99.886651 123.828594 
L 100.113207 127.022257 
L 100.339763 115.844436 
L 100.566319 124.62701 
L 100.792874 116.642851 
L 101.01943 114.247604 
L 101.245986 117.441267 
L 101.472542 123.828594 
L 101.699098 116.642851 
L 101.925654 117.441267 
L 102.15221 117.441267 
L 102.378765 103.868198 
L 102.605321 99.077703 
L 102.831877 109.457109 
L 103.058433 112.650772 
L 103.284989 112.650772 
L 103.511545 111.852356 
L 103.738101 122.231762 
L 104.191212 118.239683 
L 104.417768 116.642851 
L 104.644324 91.093545 
L 104.87088 94.287208 
L 105.097436 92.690376 
L 105.323992 106.263446 
L 105.550547 110.255525 
L 105.777103 106.263446 
L 106.003659 105.46503 
L 106.230215 112.650772 
L 106.456771 104.666614 
L 106.683327 111.053941 
L 106.909883 111.053941 
L 107.136438 127.022257 
L 107.362994 109.457109 
L 107.58955 66.342653 
L 107.816106 84.706218 
L 108.042662 79.117307 
L 108.269218 83.109386 
L 108.495774 68.737901 
L 108.72233 76.722059 
L 108.948885 78.318891 
L 109.401997 71.931564 
L 109.628553 82.31097 
L 109.855109 75.923644 
L 110.081665 79.117307 
L 110.308221 92.690376 
L 110.534776 82.31097 
L 110.761332 80.714139 
L 110.987888 85.504634 
L 111.214444 82.31097 
L 111.441 91.89196 
L 111.667556 91.093545 
L 111.894112 92.690376 
L 112.120667 98.279287 
L 112.347223 77.520475 
L 112.573779 91.093545 
L 112.800335 90.295129 
L 113.026891 105.46503 
L 113.253447 110.255525 
L 113.480003 111.053941 
L 113.706558 112.650772 
L 113.933114 104.666614 
L 114.15967 105.46503 
L 114.386226 119.836515 
L 114.612782 117.441267 
L 114.839338 120.634931 
L 115.065894 107.061861 
L 115.292449 118.239683 
L 115.519005 122.231762 
L 115.745561 116.642851 
L 115.972117 115.844436 
L 116.198673 114.247604 
L 116.425229 111.852356 
L 116.651785 104.666614 
L 116.87834 101.47295 
L 117.104896 103.069782 
L 117.331452 99.876119 
L 117.558008 101.47295 
L 117.784564 95.085624 
L 118.01112 107.061861 
L 118.237676 103.868198 
L 118.464231 116.642851 
L 118.690787 92.690376 
L 118.917343 97.480871 
L 119.143899 104.666614 
L 119.370455 99.876119 
L 119.597011 100.674535 
L 119.823567 103.868198 
L 120.050122 90.295129 
L 120.72979 112.650772 
L 120.956346 111.053941 
L 121.182902 118.239683 
L 121.409458 117.441267 
L 121.636013 128.619089 
L 121.862569 130.215921 
L 122.315681 113.449188 
L 122.542237 107.860277 
L 122.995349 123.030178 
L 123.221904 121.433347 
L 123.44846 118.239683 
L 123.675016 123.828594 
L 123.901572 138.200079 
L 124.58124 116.642851 
L 124.807795 117.441267 
L 125.034351 115.844436 
L 125.260907 99.876119 
L 125.714019 105.46503 
L 125.940575 105.46503 
L 126.167131 102.271366 
L 126.393686 97.480871 
L 126.620242 114.247604 
L 126.846798 113.449188 
L 127.073354 105.46503 
L 127.29991 91.093545 
L 127.526466 102.271366 
L 127.753022 98.279287 
L 127.979577 101.47295 
L 128.206133 114.247604 
L 128.432689 109.457109 
L 128.659245 99.876119 
L 128.885801 125.425426 
L 129.112357 130.215921 
L 129.338913 115.04602 
L 129.565469 132.611168 
L 129.792024 131.014337 
L 130.245136 120.634931 
L 130.471692 127.820673 
L 130.698248 131.014337 
L 130.924804 128.619089 
L 131.604471 110.255525 
L 131.831027 95.88404 
L 132.057583 99.876119 
L 132.284139 95.085624 
L 132.737251 73.528396 
L 132.963806 73.528396 
L 133.190362 83.109386 
L 133.416918 71.931564 
L 133.643474 73.528396 
L 133.87003 92.690376 
L 134.096586 91.093545 
L 134.323142 83.109386 
L 134.549697 83.907802 
L 134.776253 80.714139 
L 135.002809 85.504634 
L 135.455921 82.31097 
L 135.682477 83.109386 
L 135.909033 88.698297 
L 136.135588 77.520475 
L 136.362144 80.714139 
L 136.5887 92.690376 
L 136.815256 82.31097 
L 137.041812 88.698297 
L 137.268368 90.295129 
L 137.721479 98.279287 
L 137.948035 84.706218 
L 138.174591 87.101465 
L 138.627703 109.457109 
L 138.854259 101.47295 
L 139.080815 83.907802 
L 139.30737 102.271366 
L 139.533926 102.271366 
L 139.760482 92.690376 
L 139.987038 92.690376 
L 140.213594 90.295129 
L 140.44015 95.085624 
L 140.666706 93.488792 
L 140.893261 120.634931 
L 141.119817 123.030178 
L 141.572929 144.587406 
L 141.799485 146.982653 
L 142.026041 145.385822 
L 142.252597 142.990574 
L 142.479152 123.828594 
L 142.932264 131.812752 
L 143.15882 123.828594 
L 143.611932 127.820673 
L 143.838488 127.820673 
L 144.065043 123.828594 
L 144.291599 135.006416 
L 144.518155 123.030178 
L 144.744711 119.836515 
L 144.971267 98.279287 
L 145.197823 128.619089 
L 145.424379 128.619089 
L 145.650934 132.611168 
L 145.87749 127.820673 
L 146.104046 102.271366 
L 146.330602 97.480871 
L 146.557158 86.30305 
L 147.01027 102.271366 
L 147.236825 103.069782 
L 147.463381 110.255525 
L 147.689937 109.457109 
L 147.916493 103.069782 
L 148.143049 80.714139 
L 148.369605 98.279287 
L 148.596161 87.101465 
L 148.822716 90.295129 
L 149.049272 99.876119 
L 149.275828 125.425426 
L 149.502384 128.619089 
L 149.72894 117.441267 
L 149.955496 117.441267 
L 150.182052 108.658693 
L 150.408607 119.038099 
L 150.635163 142.192158 
L 150.861719 146.184238 
L 151.088275 114.247604 
L 151.314831 115.844436 
L 151.541387 111.053941 
L 151.767943 138.998495 
L 151.994499 137.401663 
L 152.221054 124.62701 
L 152.674166 121.433347 
L 152.900722 124.62701 
L 153.353834 158.160475 
L 153.58039 169.338297 
L 153.806945 146.184238 
L 154.260057 157.362059 
L 154.486613 150.974733 
L 154.713169 155.765228 
L 154.939725 157.362059 
L 155.166281 158.160475 
L 155.392836 157.362059 
L 155.619392 150.974733 
L 155.845948 137.401663 
L 156.072504 142.192158 
L 156.29906 135.006416 
L 156.525616 137.401663 
L 156.752172 127.022257 
L 156.978727 123.030178 
L 157.205283 115.844436 
L 157.431839 112.650772 
L 157.658395 119.038099 
L 157.884951 105.46503 
L 158.111507 102.271366 
L 158.338063 119.836515 
L 158.564618 115.04602 
L 158.791174 125.425426 
L 159.01773 142.990574 
L 159.244286 149.377901 
L 159.470842 119.038099 
L 159.697398 120.634931 
L 159.923954 116.642851 
L 160.377065 135.804832 
L 160.603621 138.200079 
L 161.056733 112.650772 
L 161.283289 127.022257 
L 161.509845 127.022257 
L 161.7364 123.030178 
L 161.962956 131.014337 
L 162.189512 126.223842 
L 162.416068 133.409584 
L 162.86918 119.836515 
L 163.095736 119.836515 
L 163.322291 129.417505 
L 163.548847 126.223842 
L 163.775403 136.603248 
L 164.001959 135.006416 
L 164.228515 127.022257 
L 164.455071 146.184238 
L 164.681627 150.974733 
L 164.908182 150.974733 
L 165.134738 153.36998 
L 165.361294 157.362059 
L 165.58785 154.168396 
L 165.814406 146.184238 
L 166.040962 154.966812 
L 166.267518 154.966812 
L 166.494073 150.974733 
L 166.720629 150.974733 
L 166.947185 145.385822 
L 167.173741 155.765228 
L 167.626853 146.184238 
L 167.853409 107.860277 
L 168.079964 130.215921 
L 168.30652 127.022257 
L 168.533076 143.78899 
L 168.759632 142.990574 
L 168.986188 142.990574 
L 169.212744 151.773149 
L 169.4393 145.385822 
L 169.665855 146.982653 
L 170.118967 139.796911 
L 170.345523 156.563644 
L 170.572079 151.773149 
L 170.798635 150.176317 
L 171.025191 145.385822 
L 171.251746 128.619089 
L 171.478302 121.433347 
L 171.704858 108.658693 
L 171.931414 108.658693 
L 172.15797 111.852356 
L 172.611082 86.30305 
L 172.837638 87.101465 
L 173.290749 116.642851 
L 173.517305 106.263446 
L 173.743861 106.263446 
L 173.970417 114.247604 
L 174.196973 113.449188 
L 174.423529 107.061861 
L 174.650084 108.658693 
L 174.87664 99.077703 
L 175.103196 95.88404 
L 175.329752 105.46503 
L 175.556308 104.666614 
L 175.782864 103.069782 
L 176.00942 95.085624 
L 176.235975 101.47295 
L 176.462531 104.666614 
L 176.689087 104.666614 
L 176.915643 84.706218 
L 177.142199 113.449188 
L 177.368755 118.239683 
L 177.595311 127.820673 
L 177.821866 142.990574 
L 178.274978 134.208 
L 178.501534 130.215921 
L 178.72809 128.619089 
L 178.954646 157.362059 
L 179.181202 143.78899 
L 179.634313 160.555723 
L 179.860869 163.749386 
L 180.087425 162.95097 
L 180.540537 181.314535 
L 180.767093 184.508198 
L 180.993648 186.10503 
L 181.220204 178.919287 
L 181.44676 165.346218 
L 181.673316 164.547802 
L 181.899872 166.144634 
L 182.126428 145.385822 
L 182.352984 136.603248 
L 182.579539 122.231762 
L 182.806095 125.425426 
L 183.032651 127.022257 
L 183.259207 127.820673 
L 183.485763 126.223842 
L 183.712319 138.200079 
L 183.938875 122.231762 
L 184.16543 121.433347 
L 184.391986 121.433347 
L 184.618542 138.200079 
L 184.845098 131.014337 
L 185.071654 137.401663 
L 185.29821 131.014337 
L 185.524766 130.215921 
L 185.751321 127.820673 
L 185.977877 134.208 
L 186.204433 128.619089 
L 186.430989 131.014337 
L 186.657545 126.223842 
L 186.884101 133.409584 
L 187.110657 135.006416 
L 187.337212 141.393743 
L 187.563768 121.433347 
L 187.790324 114.247604 
L 188.01688 103.069782 
L 188.243436 111.852356 
L 188.469992 112.650772 
L 188.696548 114.247604 
L 188.923103 113.449188 
L 189.149659 102.271366 
L 189.376215 98.279287 
L 189.602771 108.658693 
L 189.829327 107.061861 
L 190.055883 103.069782 
L 190.282439 105.46503 
L 190.508994 111.053941 
L 190.73555 122.231762 
L 191.188662 92.690376 
L 191.415218 103.868198 
L 191.641774 99.876119 
L 191.86833 98.279287 
L 192.094885 102.271366 
L 192.321441 92.690376 
L 192.547997 87.899881 
L 193.001109 91.093545 
L 193.227665 91.093545 
L 193.680777 82.31097 
L 193.907332 103.868198 
L 194.133888 100.674535 
L 194.360444 104.666614 
L 194.587 104.666614 
L 194.813556 112.650772 
L 195.040112 104.666614 
L 195.266668 113.449188 
L 195.493223 115.04602 
L 195.719779 103.868198 
L 195.946335 98.279287 
L 196.172891 113.449188 
L 196.399447 102.271366 
L 196.626003 109.457109 
L 196.852559 91.093545 
L 197.079114 96.682455 
L 197.30567 80.714139 
L 197.532226 90.295129 
L 197.758782 106.263446 
L 197.985338 84.706218 
L 198.211894 84.706218 
L 198.43845 86.30305 
L 198.665005 92.690376 
L 198.891561 75.923644 
L 199.118117 77.520475 
L 199.344673 71.931564 
L 199.571229 85.504634 
L 199.797785 67.141069 
L 200.024341 64.745822 
L 201.15712 107.061861 
L 201.383676 104.666614 
L 201.836787 104.666614 
L 202.063343 120.634931 
L 202.289899 113.449188 
L 202.516455 99.876119 
L 202.743011 96.682455 
L 202.969567 111.852356 
L 203.196123 107.860277 
L 203.422678 111.053941 
L 204.102346 87.899881 
L 204.328902 87.899881 
L 204.555458 86.30305 
L 204.782014 99.077703 
L 205.008569 85.504634 
L 205.235125 99.077703 
L 205.461681 95.085624 
L 205.688237 112.650772 
L 205.914793 105.46503 
L 206.141349 94.287208 
L 206.367905 96.682455 
L 206.59446 104.666614 
L 206.821016 99.077703 
L 207.047572 107.860277 
L 207.274128 125.425426 
L 207.500684 131.812752 
L 207.72724 131.812752 
L 207.953796 133.409584 
L 208.180351 134.208 
L 208.406907 123.030178 
L 208.633463 133.409584 
L 208.860019 123.828594 
L 209.086575 130.215921 
L 209.313131 129.417505 
L 209.539687 133.409584 
L 209.766242 135.006416 
L 209.992798 138.200079 
L 210.219354 139.796911 
L 210.44591 131.812752 
L 210.672466 117.441267 
L 210.899022 120.634931 
L 211.125578 120.634931 
L 211.352133 117.441267 
L 211.578689 119.836515 
L 211.805245 134.208 
L 212.484913 119.038099 
L 212.711469 120.634931 
L 212.938024 142.990574 
L 213.16458 144.587406 
L 213.391136 135.804832 
L 213.617692 135.804832 
L 213.844248 146.982653 
L 214.29736 129.417505 
L 214.523915 117.441267 
L 214.750471 117.441267 
L 214.977027 138.998495 
L 215.203583 140.595327 
L 215.430139 158.160475 
L 216.109807 117.441267 
L 216.336362 119.038099 
L 216.562918 109.457109 
L 216.789474 107.860277 
L 217.01603 111.852356 
L 217.242586 97.480871 
L 217.469142 71.931564 
L 217.695698 62.350574 
L 218.148809 91.89196 
L 218.375365 79.117307 
L 218.828477 107.860277 
L 219.055033 107.860277 
L 219.281589 88.698297 
L 219.508144 101.47295 
L 219.7347 96.682455 
L 219.961256 102.271366 
L 220.187812 99.077703 
L 220.414368 113.449188 
L 220.640924 110.255525 
L 220.86748 118.239683 
L 221.094035 119.836515 
L 221.320591 119.836515 
L 221.547147 99.876119 
L 221.773703 107.061861 
L 222.000259 105.46503 
L 222.226815 107.061861 
L 222.453371 100.674535 
L 222.679926 103.868198 
L 222.906482 100.674535 
L 223.58615 135.006416 
L 223.812706 133.409584 
L 224.039262 146.982653 
L 224.492373 130.215921 
L 224.718929 131.812752 
L 224.945485 120.634931 
L 225.625153 142.990574 
L 225.851708 142.192158 
L 226.078264 129.417505 
L 226.30482 107.061861 
L 226.531376 134.208 
L 226.757932 141.393743 
L 226.984488 124.62701 
L 227.437599 141.393743 
L 227.664155 140.595327 
L 227.890711 143.78899 
L 228.343823 162.95097 
L 228.570379 166.94305 
L 228.796935 154.168396 
L 229.02349 151.773149 
L 229.250046 153.36998 
L 229.929714 143.78899 
L 230.15627 136.603248 
L 230.382826 133.409584 
L 230.609381 122.231762 
L 230.835937 123.030178 
L 231.062493 122.231762 
L 231.289049 130.215921 
L 231.515605 149.377901 
L 231.742161 146.184238 
L 231.968717 147.781069 
L 232.195272 138.998495 
L 232.421828 135.804832 
L 232.648384 140.595327 
L 233.101496 86.30305 
L 233.328052 96.682455 
L 233.781163 73.528396 
L 234.460831 89.496713 
L 234.687387 91.093545 
L 235.140499 105.46503 
L 235.367054 99.077703 
L 235.59361 115.04602 
L 235.820166 111.852356 
L 236.046722 112.650772 
L 236.499834 134.208 
L 236.72639 131.014337 
L 236.952946 129.417505 
L 237.179501 135.804832 
L 237.406057 115.844436 
L 237.632613 115.844436 
L 237.859169 107.860277 
L 238.312281 119.038099 
L 238.538837 120.634931 
L 238.765392 128.619089 
L 238.991948 127.820673 
L 239.218504 120.634931 
L 239.44506 133.409584 
L 239.671616 137.401663 
L 239.898172 135.804832 
L 240.124728 129.417505 
L 240.351283 131.014337 
L 241.030951 93.488792 
L 241.484063 109.457109 
L 241.710619 109.457109 
L 241.937174 127.022257 
L 242.16373 132.611168 
L 242.390286 124.62701 
L 242.616842 121.433347 
L 242.843398 123.030178 
L 243.069954 127.022257 
L 243.29651 125.425426 
L 243.523065 102.271366 
L 243.749621 115.844436 
L 243.976177 115.844436 
L 244.202733 111.852356 
L 244.429289 116.642851 
L 244.882401 111.053941 
L 245.108956 123.030178 
L 245.335512 123.030178 
L 245.562068 129.417505 
L 245.788624 111.053941 
L 246.241736 105.46503 
L 246.468292 106.263446 
L 246.694847 123.828594 
L 246.921403 117.441267 
L 247.147959 118.239683 
L 247.374515 119.836515 
L 247.601071 119.836515 
L 247.827627 117.441267 
L 248.054183 129.417505 
L 248.280738 130.215921 
L 248.507294 128.619089 
L 248.73385 134.208 
L 249.186962 109.457109 
L 249.640074 132.611168 
L 249.866629 125.425426 
L 250.093185 129.417505 
L 250.319741 111.053941 
L 250.546297 116.642851 
L 250.772853 113.449188 
L 250.999409 118.239683 
L 251.225965 127.820673 
L 251.45252 143.78899 
L 251.679076 149.377901 
L 251.905632 139.796911 
L 252.132188 139.796911 
L 252.358744 127.022257 
L 252.811856 135.804832 
L 253.038411 137.401663 
L 253.264967 128.619089 
L 253.491523 134.208 
L 253.718079 134.208 
L 254.397747 154.966812 
L 254.624302 145.385822 
L 254.850858 146.982653 
L 255.077414 150.974733 
L 255.30397 157.362059 
L 255.530526 159.757307 
L 255.757082 139.796911 
L 256.210193 148.579485 
L 256.436749 145.385822 
L 256.663305 145.385822 
L 256.889861 143.78899 
L 257.116417 132.611168 
L 257.342973 113.449188 
L 257.569529 120.634931 
L 257.796085 115.04602 
L 258.02264 116.642851 
L 258.249196 119.836515 
L 258.475752 131.014337 
L 258.702308 132.611168 
L 258.928864 117.441267 
L 259.15542 121.433347 
L 259.381976 131.812752 
L 259.608531 147.781069 
L 259.835087 150.974733 
L 260.061643 142.990574 
L 260.288199 160.555723 
L 260.514755 156.563644 
L 260.741311 146.184238 
L 260.967867 146.982653 
L 261.194422 141.393743 
L 261.420978 139.796911 
L 261.647534 131.812752 
L 261.87409 138.998495 
L 262.100646 134.208 
L 262.327202 140.595327 
L 262.553758 138.998495 
L 262.780313 146.184238 
L 263.006869 147.781069 
L 263.459981 138.200079 
L 263.686537 130.215921 
L 263.913093 136.603248 
L 264.366204 123.828594 
L 264.59276 133.409584 
L 264.819316 127.820673 
L 265.045872 144.587406 
L 265.272428 144.587406 
L 265.498984 158.160475 
L 265.72554 161.354139 
L 265.952095 166.144634 
L 266.178651 161.354139 
L 266.405207 170.935129 
L 266.631763 169.338297 
L 266.858319 148.579485 
L 267.084875 150.974733 
L 267.311431 151.773149 
L 267.537986 132.611168 
L 267.764542 132.611168 
L 267.991098 134.208 
L 268.217654 137.401663 
L 268.44421 135.006416 
L 268.670766 135.006416 
L 268.897322 120.634931 
L 269.123877 116.642851 
L 269.350433 116.642851 
L 269.576989 119.038099 
L 269.803545 128.619089 
L 270.030101 131.014337 
L 270.256657 144.587406 
L 270.483213 145.385822 
L 270.709768 135.804832 
L 270.936324 138.998495 
L 271.16288 140.595327 
L 271.389436 140.595327 
L 271.615992 146.982653 
L 271.842548 148.579485 
L 272.069104 156.563644 
L 272.522215 159.757307 
L 272.748771 162.95097 
L 272.975327 151.773149 
L 273.201883 150.176317 
L 273.428439 143.78899 
L 273.654995 150.176317 
L 273.88155 140.595327 
L 274.108106 140.595327 
L 274.334662 142.990574 
L 274.561218 136.603248 
L 274.787774 121.433347 
L 275.01433 125.425426 
L 275.240886 139.796911 
L 275.467441 137.401663 
L 275.693997 121.433347 
L 276.147109 141.393743 
L 276.373665 144.587406 
L 276.600221 128.619089 
L 276.826777 123.828594 
L 277.053332 139.796911 
L 277.506444 143.78899 
L 277.733 149.377901 
L 277.959556 146.184238 
L 278.412668 131.812752 
L 278.639223 142.990574 
L 278.865779 146.184238 
L 279.092335 150.974733 
L 279.318891 152.571564 
L 279.545447 151.773149 
L 279.772003 151.773149 
L 279.998559 152.571564 
L 280.225115 137.401663 
L 280.45167 147.781069 
L 280.678226 138.200079 
L 280.904782 137.401663 
L 281.131338 135.804832 
L 281.357894 132.611168 
L 281.58445 146.184238 
L 282.037561 155.765228 
L 282.264117 152.571564 
L 282.717229 161.354139 
L 282.943785 172.53196 
L 283.170341 177.322455 
L 283.396897 168.539881 
L 283.623452 171.733545 
L 283.850008 167.741465 
L 284.076564 166.94305 
L 284.30312 173.330376 
L 284.529676 171.733545 
L 284.756232 174.128792 
L 284.982788 170.136713 
L 285.209343 169.338297 
L 285.435899 158.958891 
L 285.889011 165.346218 
L 286.115567 166.144634 
L 286.342123 161.354139 
L 286.568679 153.36998 
L 286.795234 153.36998 
L 287.02179 155.765228 
L 287.248346 164.547802 
L 287.474902 164.547802 
L 287.701458 167.741465 
L 287.928014 174.927208 
L 288.15457 170.136713 
L 288.381125 178.120871 
L 288.607681 181.314535 
L 288.834237 186.903446 
L 289.060793 177.322455 
L 289.287349 175.725624 
L 289.513905 158.958891 
L 289.740461 155.765228 
L 289.967016 169.338297 
L 290.193572 172.53196 
L 290.420128 177.322455 
L 290.646684 177.322455 
L 290.87324 175.725624 
L 291.099796 172.53196 
L 291.326352 158.160475 
L 291.552907 158.160475 
L 291.779463 165.346218 
L 292.232575 145.385822 
L 292.459131 146.184238 
L 292.685687 151.773149 
L 292.912243 151.773149 
L 293.138798 154.168396 
L 293.59191 135.804832 
L 294.045022 148.579485 
L 294.271578 134.208 
L 294.498134 143.78899 
L 294.724689 143.78899 
L 294.951245 158.958891 
L 295.177801 154.966812 
L 295.404357 155.765228 
L 295.630913 155.765228 
L 295.857469 159.757307 
L 296.084025 154.168396 
L 296.31058 140.595327 
L 296.537136 142.990574 
L 296.990248 123.030178 
L 297.216804 127.820673 
L 297.44336 113.449188 
L 297.669916 106.263446 
L 297.896471 115.04602 
L 298.123027 113.449188 
L 298.349583 118.239683 
L 298.576139 125.425426 
L 298.802695 138.200079 
L 299.029251 142.990574 
L 299.482362 127.820673 
L 299.708918 131.014337 
L 299.935474 128.619089 
L 300.16203 128.619089 
L 300.388586 127.022257 
L 300.841698 141.393743 
L 301.068254 135.006416 
L 301.294809 144.587406 
L 301.521365 139.796911 
L 301.747921 142.990574 
L 301.974477 142.990574 
L 302.201033 137.401663 
L 302.427589 137.401663 
L 302.654145 145.385822 
L 302.8807 141.393743 
L 303.107256 141.393743 
L 303.333812 138.998495 
L 303.560368 142.990574 
L 303.786924 158.958891 
L 304.01348 160.555723 
L 304.240036 155.765228 
L 304.466591 148.579485 
L 304.693147 147.781069 
L 304.919703 150.176317 
L 305.146259 147.781069 
L 305.372815 141.393743 
L 305.599371 142.192158 
L 305.825927 139.796911 
L 306.052482 141.393743 
L 306.279038 143.78899 
L 306.505594 141.393743 
L 306.73215 144.587406 
L 307.185262 135.006416 
L 307.411818 138.998495 
L 307.638373 146.982653 
L 307.864929 147.781069 
L 308.091485 142.192158 
L 308.318041 145.385822 
L 308.544597 138.998495 
L 308.771153 145.385822 
L 308.997709 160.555723 
L 309.224264 162.152554 
L 309.45082 155.765228 
L 309.677376 158.958891 
L 310.130488 167.741465 
L 310.357044 170.935129 
L 310.5836 168.539881 
L 310.810155 168.539881 
L 311.036711 158.160475 
L 311.263267 153.36998 
L 311.489823 166.94305 
L 311.716379 161.354139 
L 311.942935 163.749386 
L 312.396046 144.587406 
L 312.622602 127.820673 
L 312.849158 129.417505 
L 313.075714 122.231762 
L 313.755382 142.990574 
L 313.981937 150.176317 
L 314.208493 150.974733 
L 314.435049 150.176317 
L 314.661605 151.773149 
L 315.341273 138.200079 
L 315.567828 136.603248 
L 315.794384 119.038099 
L 316.02094 147.781069 
L 316.247496 162.152554 
L 316.474052 160.555723 
L 316.700608 158.160475 
L 316.927164 151.773149 
L 317.153719 154.168396 
L 317.380275 136.603248 
L 317.833387 161.354139 
L 318.059943 164.547802 
L 318.286499 159.757307 
L 318.513055 146.982653 
L 318.966166 141.393743 
L 319.192722 148.579485 
L 319.419278 148.579485 
L 319.645834 151.773149 
L 319.87239 151.773149 
L 320.098946 139.796911 
L 320.325501 143.78899 
L 320.552057 142.192158 
L 320.778613 138.998495 
L 321.005169 145.385822 
L 321.231725 148.579485 
L 321.684837 150.176317 
L 321.911393 143.78899 
L 322.137948 145.385822 
L 322.364504 150.176317 
L 322.59106 150.176317 
L 322.817616 161.354139 
L 323.497284 175.725624 
L 323.723839 174.128792 
L 323.950395 178.919287 
L 324.176951 162.95097 
L 324.403507 170.935129 
L 324.630063 185.306614 
L 324.856619 177.322455 
L 325.083175 178.919287 
L 325.30973 174.128792 
L 325.762842 184.508198 
L 326.215954 174.927208 
L 326.44251 177.322455 
L 326.669066 170.136713 
L 326.895621 157.362059 
L 327.122177 168.539881 
L 327.348733 167.741465 
L 327.575289 167.741465 
L 327.801845 165.346218 
L 328.481512 135.804832 
L 328.708068 135.804832 
L 328.934624 133.409584 
L 329.387736 140.595327 
L 329.614292 148.579485 
L 329.840848 137.401663 
L 330.067403 140.595327 
L 330.293959 150.176317 
L 330.747071 158.958891 
L 330.973627 157.362059 
L 331.426739 147.781069 
L 331.87985 147.781069 
L 332.106406 152.571564 
L 332.332962 160.555723 
L 332.559518 144.587406 
L 333.01263 173.330376 
L 333.239185 173.330376 
L 333.465741 171.733545 
L 333.692297 171.733545 
L 333.918853 165.346218 
L 334.145409 163.749386 
L 334.598521 162.152554 
L 334.825076 167.741465 
L 335.051632 161.354139 
L 335.278188 159.757307 
L 335.504744 163.749386 
L 335.7313 162.95097 
L 335.957856 167.741465 
L 336.184412 156.563644 
L 336.410967 152.571564 
L 336.637523 142.192158 
L 336.864079 142.990574 
L 337.090635 148.579485 
L 337.317191 158.160475 
L 337.543747 162.95097 
L 337.770303 160.555723 
L 338.223414 166.144634 
L 338.44997 170.935129 
L 338.676526 162.152554 
L 338.903082 165.346218 
L 339.129638 170.136713 
L 339.582749 170.136713 
L 339.809305 181.314535 
L 340.035861 186.10503 
L 340.262417 181.314535 
L 340.488973 184.508198 
L 340.715529 177.322455 
L 340.942085 177.322455 
L 341.16864 175.725624 
L 341.621752 179.717703 
L 341.848308 178.919287 
L 342.074864 175.725624 
L 342.30142 170.136713 
L 342.527976 157.362059 
L 342.754531 158.160475 
L 343.207643 162.152554 
L 343.660755 148.579485 
L 343.887311 167.741465 
L 344.113867 172.53196 
L 344.340423 174.927208 
L 344.793534 167.741465 
L 345.246646 160.555723 
L 345.473202 160.555723 
L 345.699758 159.757307 
L 345.926314 166.144634 
L 346.152869 165.346218 
L 346.832537 176.52404 
L 347.059093 170.935129 
L 347.285649 170.136713 
L 347.512205 175.725624 
L 347.73876 184.508198 
L 347.965316 186.10503 
L 348.191872 180.516119 
L 348.418428 182.11295 
L 348.644984 184.508198 
L 348.87154 184.508198 
L 349.098096 171.733545 
L 349.324651 176.52404 
L 349.551207 189.298693 
L 349.777763 192.492356 
L 350.004319 192.492356 
L 350.230875 191.693941 
L 350.683987 197.282851 
L 350.910542 194.089188 
L 351.137098 195.68602 
L 351.363654 190.895525 
L 351.59021 194.887604 
L 351.816766 202.871762 
L 352.043322 195.68602 
L 352.269878 196.484436 
L 352.496433 199.678099 
L 352.722989 212.452752 
L 352.949545 211.654337 
L 353.402657 206.863842 
L 353.629213 195.68602 
L 353.855769 197.282851 
L 354.082324 211.654337 
L 354.30888 216.444832 
L 354.535436 208.460673 
L 354.761992 216.444832 
L 354.988548 214.049584 
L 355.215104 202.073347 
L 355.44166 202.073347 
L 355.668215 207.662257 
L 355.894771 209.259089 
L 356.121327 213.251168 
L 356.347883 203.670178 
L 356.574439 203.670178 
L 356.800995 209.259089 
L 357.027551 202.871762 
L 357.254106 202.073347 
L 357.707218 206.863842 
L 357.933774 206.863842 
L 358.16033 210.057505 
L 358.386886 207.662257 
L 358.613442 208.460673 
L 358.839997 211.654337 
L 359.066553 210.057505 
L 359.519665 194.089188 
L 359.972777 186.903446 
L 360.199333 192.492356 
L 360.425888 187.701861 
L 360.879 194.089188 
L 361.105556 192.492356 
L 361.332112 206.863842 
L 361.558668 202.073347 
L 361.785224 203.670178 
L 362.011779 209.259089 
L 362.238335 222.033743 
L 362.464891 220.436911 
L 362.691447 217.243248 
L 362.918003 219.638495 
L 363.144559 226.025822 
L 363.371115 227.622653 
L 363.824226 218.840079 
L 364.050782 215.646416 
L 364.277338 209.259089 
L 364.503894 210.057505 
L 364.957006 206.065426 
L 365.636673 213.251168 
L 365.863229 227.622653 
L 366.089785 229.219485 
L 366.316341 231.614733 
L 366.542897 236.405228 
L 366.769453 233.211564 
L 366.996008 242.792554 
L 367.222564 242.792554 
L 367.44912 241.195723 
L 367.675676 242.792554 
L 367.902232 243.59097 
L 368.128788 249.978297 
L 368.355344 250.776713 
L 368.581899 249.978297 
L 368.808455 253.17196 
L 369.035011 245.187802 
L 369.261567 248.381465 
L 369.488123 246.784634 
L 369.714679 245.986218 
L 369.941235 246.784634 
L 370.16779 244.389386 
L 370.394346 244.389386 
L 370.620902 241.994139 
L 370.847458 241.994139 
L 371.074014 245.187802 
L 371.30057 245.187802 
L 371.527126 241.195723 
L 371.753681 233.211564 
L 372.206793 231.614733 
L 372.433349 232.413149 
L 372.659905 229.219485 
L 372.886461 227.622653 
L 373.113017 236.405228 
L 373.339572 235.606812 
L 373.566128 233.211564 
L 373.792684 239.598891 
L 374.01924 237.203644 
L 374.245796 241.195723 
L 374.472352 241.195723 
L 374.698908 241.994139 
L 374.925463 243.59097 
L 375.378575 262.75295 
L 376.058243 249.179881 
L 376.284799 247.58305 
L 376.511354 239.598891 
L 376.73791 240.397307 
L 376.964466 241.994139 
L 377.191022 241.195723 
L 377.417578 246.784634 
L 377.87069 243.59097 
L 378.097245 250.776713 
L 378.323801 249.179881 
L 378.550357 255.567208 
L 378.776913 256.365624 
L 379.003469 259.559287 
L 379.230025 259.559287 
L 379.683136 230.816317 
L 379.909692 234.00998 
L 380.136248 233.211564 
L 380.362804 225.227406 
L 380.58936 234.00998 
L 381.042472 237.203644 
L 381.269027 236.405228 
L 381.495583 238.002059 
L 381.722139 248.381465 
L 382.175251 257.16404 
L 382.401807 257.962455 
L 382.628363 257.962455 
L 382.854918 259.559287 
L 383.081474 254.768792 
L 383.30803 253.17196 
L 383.534586 253.17196 
L 383.761142 256.365624 
L 383.987698 257.962455 
L 384.214254 257.962455 
L 384.440809 259.559287 
L 384.667365 269.938693 
L 384.893921 265.148198 
L 385.120477 265.148198 
L 385.347033 261.954535 
L 385.573589 261.954535 
L 385.800145 263.551366 
L 386.026701 264.349782 
L 386.479812 277.124436 
L 386.706368 273.930772 
L 386.932924 274.729188 
L 387.386036 278.721267 
L 387.612592 283.511762 
L 387.839147 283.511762 
L 388.065703 281.914931 
L 388.292259 281.914931 
L 388.518815 283.511762 
L 388.745371 286.705426 
L 388.971927 287.503842 
L 389.198483 289.899089 
L 389.425038 288.302257 
L 389.651594 289.100673 
L 389.87815 287.503842 
L 390.104706 290.697505 
L 390.331262 282.713347 
L 390.557818 281.116515 
L 390.784374 282.713347 
L 391.010929 289.100673 
L 391.237485 289.100673 
L 391.464041 285.90701 
L 391.690597 276.32602 
L 391.917153 272.333941 
L 392.143709 275.527604 
L 392.370265 277.124436 
L 392.59682 277.922851 
L 392.823376 279.519683 
L 393.049932 275.527604 
L 393.276488 273.930772 
L 393.503044 280.318099 
L 393.7296 275.527604 
L 393.956156 277.124436 
L 394.182711 277.124436 
L 394.409267 281.914931 
L 394.635823 282.713347 
L 394.862379 275.527604 
L 395.315491 285.108594 
L 395.542047 286.705426 
L 395.768602 286.705426 
L 395.995158 288.302257 
L 396.221714 287.503842 
L 396.674826 287.503842 
L 396.901382 289.100673 
L 397.127938 289.899089 
L 397.354493 291.495921 
L 397.581049 292.294337 
L 397.807605 289.899089 
L 398.034161 290.697505 
L 398.260717 295.488 
L 398.487273 295.488 
L 398.487273 295.488 
" clip-path="url(#p4e0aed86ce)" style="fill: none; stroke: #1f77b4; stroke-width: 1.5; stroke-linecap: square"/>
   </g>
   <g id="patch_3">
    <path d="M 57.6 307.584 
L 57.6 41.472 
" style="fill: none; stroke: #000000; stroke-width: 0.8; stroke-linejoin: miter; stroke-linecap: square"/>
   </g>
   <g id="patch_4">
    <path d="M 414.72 307.584 
L 414.72 41.472 
" style="fill: none; stroke: #000000; stroke-width: 0.8; stroke-linejoin: miter; stroke-linecap: square"/>
   </g>
   <g id="patch_5">
    <path d="M 57.6 307.584 
L 414.72 307.584 
" style="fill: none; stroke: #000000; stroke-width: 0.8; stroke-linejoin: miter; stroke-linecap: square"/>
   </g>
   <g id="patch_6">
    <path d="M 57.6 41.472 
L 414.72 41.472 
" style="fill: none; stroke: #000000; stroke-width: 0.8; stroke-linejoin: miter; stroke-linecap: square"/>
   </g>
   <g id="text_17">
    <!-- Simulated Anealling Cost -->
    <g transform="translate(160.8 35.472)scale(0.12 -0.12)">
     <defs>
      <path id="DejaVuSans-53" d="M 3425 4513 
L 3425 3897 
Q 3066 4069 2747 4153 
Q 2428 4238 2131 4238 
Q 1616 4238 1336 4038 
Q 1056 3838 1056 3469 
Q 1056 3159 1242 3001 
Q 1428 2844 1947 2747 
L 2328 2669 
Q 3034 2534 3370 2195 
Q 3706 1856 3706 1288 
Q 3706 609 3251 259 
Q 2797 -91 1919 -91 
Q 1588 -91 1214 -16 
Q 841 59 441 206 
L 441 856 
Q 825 641 1194 531 
Q 1563 422 1919 422 
Q 2459 422 2753 634 
Q 3047 847 3047 1241 
Q 3047 1584 2836 1778 
Q 2625 1972 2144 2069 
L 1759 2144 
Q 1053 2284 737 2584 
Q 422 2884 422 3419 
Q 422 4038 858 4394 
Q 1294 4750 2059 4750 
Q 2388 4750 2728 4690 
Q 3069 4631 3425 4513 
z
" transform="scale(0.015625)"/>
      <path id="DejaVuSans-69" d="M 603 3500 
L 1178 3500 
L 1178 0 
L 603 0 
L 603 3500 
z
M 603 4863 
L 1178 4863 
L 1178 4134 
L 603 4134 
L 603 4863 
z
" transform="scale(0.015625)"/>
      <path id="DejaVuSans-65" d="M 3597 1894 
L 3597 1613 
L 953 1613 
Q 991 1019 1311 708 
Q 1631 397 2203 397 
Q 2534 397 2845 478 
Q 3156 559 3463 722 
L 3463 178 
Q 3153 47 2828 -22 
Q 2503 -91 2169 -91 
Q 1331 -91 842 396 
Q 353 884 353 1716 
Q 353 2575 817 3079 
Q 1281 3584 2069 3584 
Q 2775 3584 3186 3129 
Q 3597 2675 3597 1894 
z
M 3022 2063 
Q 3016 2534 2758 2815 
Q 2500 3097 2075 3097 
Q 1594 3097 1305 2825 
Q 1016 2553 972 2059 
L 3022 2063 
z
" transform="scale(0.015625)"/>
      <path id="DejaVuSans-64" d="M 2906 2969 
L 2906 4863 
L 3481 4863 
L 3481 0 
L 2906 0 
L 2906 525 
Q 2725 213 2448 61 
Q 2172 -91 1784 -91 
Q 1150 -91 751 415 
Q 353 922 353 1747 
Q 353 2572 751 3078 
Q 1150 3584 1784 3584 
Q 2172 3584 2448 3432 
Q 2725 3281 2906 2969 
z
M 947 1747 
Q 947 1113 1208 752 
Q 1469 391 1925 391 
Q 2381 391 2643 752 
Q 2906 1113 2906 1747 
Q 2906 2381 2643 2742 
Q 2381 3103 1925 3103 
Q 1469 3103 1208 2742 
Q 947 2381 947 1747 
z
" transform="scale(0.015625)"/>
      <path id="DejaVuSans-41" d="M 2188 4044 
L 1331 1722 
L 3047 1722 
L 2188 4044 
z
M 1831 4666 
L 2547 4666 
L 4325 0 
L 3669 0 
L 3244 1197 
L 1141 1197 
L 716 0 
L 50 0 
L 1831 4666 
z
" transform="scale(0.015625)"/>
      <path id="DejaVuSans-67" d="M 2906 1791 
Q 2906 2416 2648 2759 
Q 2391 3103 1925 3103 
Q 1463 3103 1205 2759 
Q 947 2416 947 1791 
Q 947 1169 1205 825 
Q 1463 481 1925 481 
Q 2391 481 2648 825 
Q 2906 1169 2906 1791 
z
M 3481 434 
Q 3481 -459 3084 -895 
Q 2688 -1331 1869 -1331 
Q 1566 -1331 1297 -1286 
Q 1028 -1241 775 -1147 
L 775 -588 
Q 1028 -725 1275 -790 
Q 1522 -856 1778 -856 
Q 2344 -856 2625 -561 
Q 2906 -266 2906 331 
L 2906 616 
Q 2728 306 2450 153 
Q 2172 0 1784 0 
Q 1141 0 747 490 
Q 353 981 353 1791 
Q 353 2603 747 3093 
Q 1141 3584 1784 3584 
Q 2172 3584 2450 3431 
Q 2728 3278 2906 2969 
L 2906 3500 
L 3481 3500 
L 3481 434 
z
" transform="scale(0.015625)"/>
      <path id="DejaVuSans-43" d="M 4122 4306 
L 4122 3641 
Q 3803 3938 3442 4084 
Q 3081 4231 2675 4231 
Q 1875 4231 1450 3742 
Q 1025 3253 1025 2328 
Q 1025 1406 1450 917 
Q 1875 428 2675 428 
Q 3081 428 3442 575 
Q 3803 722 4122 1019 
L 4122 359 
Q 3791 134 3420 21 
Q 3050 -91 2638 -91 
Q 1578 -91 968 557 
Q 359 1206 359 2328 
Q 359 3453 968 4101 
Q 1578 4750 2638 4750 
Q 3056 4750 3426 4639 
Q 3797 4528 4122 4306 
z
" transform="scale(0.015625)"/>
     </defs>
     <use xlink:href="#DejaVuSans-53"/>
     <use xlink:href="#DejaVuSans-69" x="63.476562"/>
     <use xlink:href="#DejaVuSans-6d" x="91.259766"/>
     <use xlink:href="#DejaVuSans-75" x="188.671875"/>
     <use xlink:href="#DejaVuSans-6c" x="252.050781"/>
     <use xlink:href="#DejaVuSans-61" x="279.833984"/>
     <use xlink:href="#DejaVuSans-74" x="341.113281"/>
     <use xlink:href="#DejaVuSans-65" x="380.322266"/>
     <use xlink:href="#DejaVuSans-64" x="441.845703"/>
     <use xlink:href="#DejaVuSans-20" x="505.322266"/>
     <use xlink:href="#DejaVuSans-41" x="537.109375"/>
     <use xlink:href="#DejaVuSans-6e" x="605.517578"/>
     <use xlink:href="#DejaVuSans-65" x="668.896484"/>
     <use xlink:href="#DejaVuSans-61" x="730.419922"/>
     <use xlink:href="#DejaVuSans-6c" x="791.699219"/>
     <use xlink:href="#DejaVuSans-6c" x="819.482422"/>
     <use xlink:href="#DejaVuSans-69" x="847.265625"/>
     <use xlink:href="#DejaVuSans-6e" x="875.048828"/>
     <use xlink:href="#DejaVuSans-67" x="938.427734"/>
     <use xlink:href="#DejaVuSans-20" x="1001.904297"/>
     <use xlink:href="#DejaVuSans-43" x="1033.691406"/>
     <use xlink:href="#DejaVuSans-6f" x="1103.515625"/>
     <use xlink:href="#DejaVuSans-73" x="1164.697266"/>
     <use xlink:href="#DejaVuSans-74" x="1216.796875"/>
    </g>
   </g>
  </g>
 </g>
 <defs>
  <clipPath id="p4e0aed86ce">
   <rect x="57.6" y="41.472" width="357.12" height="266.112"/>
  </clipPath>
 </defs>
</svg>
