<?xml version="1.0" encoding="utf-8" standalone="no"?>
<!DOCTYPE svg PUBLIC "-//W3C//DTD SVG 1.1//EN"
  "http://www.w3.org/Graphics/SVG/1.1/DTD/svg11.dtd">
<svg xmlns:xlink="http://www.w3.org/1999/xlink" width="460.8pt" height="345.6pt" viewBox="0 0 460.8 345.6" xmlns="http://www.w3.org/2000/svg" version="1.1">
 <metadata>
  <rdf:RDF xmlns:dc="http://purl.org/dc/elements/1.1/" xmlns:cc="http://creativecommons.org/ns#" xmlns:rdf="http://www.w3.org/1999/02/22-rdf-syntax-ns#">
   <cc:Work>
    <dc:type rdf:resource="http://purl.org/dc/dcmitype/StillImage"/>
    <dc:date>2022-06-01T08:04:42.558249</dc:date>
    <dc:format>image/svg+xml</dc:format>
    <dc:creator>
     <cc:Agent>
      <dc:title>Matplotlib v3.5.1, https://matplotlib.org/</dc:title>
     </cc:Agent>
    </dc:creator>
   </cc:Work>
  </rdf:RDF>
 </metadata>
 <defs>
  <style type="text/css">*{stroke-linejoin: round; stroke-linecap: butt}</style>
 </defs>
 <g id="figure_1">
  <g id="patch_1">
   <path d="M 0 345.6 
L 460.8 345.6 
L 460.8 0 
L 0 0 
z
" style="fill: #ffffff"/>
  </g>
  <g id="axes_1">
   <g id="patch_2">
    <path d="M 57.6 307.584 
L 414.72 307.584 
L 414.72 41.472 
L 57.6 41.472 
z
" style="fill: #ffffff"/>
   </g>
   <g id="matplotlib.axis_1">
    <g id="xtick_1">
     <g id="line2d_1">
      <defs>
       <path id="maa32fe3940" d="M 0 0 
L 0 3.5 
" style="stroke: #000000; stroke-width: 0.8"/>
      </defs>
      <g>
       <use xlink:href="#maa32fe3940" x="73.832727" y="307.584" style="stroke: #000000; stroke-width: 0.8"/>
      </g>
     </g>
     <g id="text_1">
      <!-- 0 -->
      <g transform="translate(70.651477 322.182437)scale(0.1 -0.1)">
       <defs>
        <path id="DejaVuSans-30" d="M 2034 4250 
Q 1547 4250 1301 3770 
Q 1056 3291 1056 2328 
Q 1056 1369 1301 889 
Q 1547 409 2034 409 
Q 2525 409 2770 889 
Q 3016 1369 3016 2328 
Q 3016 3291 2770 3770 
Q 2525 4250 2034 4250 
z
M 2034 4750 
Q 2819 4750 3233 4129 
Q 3647 3509 3647 2328 
Q 3647 1150 3233 529 
Q 2819 -91 2034 -91 
Q 1250 -91 836 529 
Q 422 1150 422 2328 
Q 422 3509 836 4129 
Q 1250 4750 2034 4750 
z
" transform="scale(0.015625)"/>
       </defs>
       <use xlink:href="#DejaVuSans-30"/>
      </g>
     </g>
    </g>
    <g id="xtick_2">
     <g id="line2d_2">
      <g>
       <use xlink:href="#maa32fe3940" x="127.159689" y="307.584" style="stroke: #000000; stroke-width: 0.8"/>
      </g>
     </g>
     <g id="text_2">
      <!-- 500 -->
      <g transform="translate(117.615939 322.182437)scale(0.1 -0.1)">
       <defs>
        <path id="DejaVuSans-35" d="M 691 4666 
L 3169 4666 
L 3169 4134 
L 1269 4134 
L 1269 2991 
Q 1406 3038 1543 3061 
Q 1681 3084 1819 3084 
Q 2600 3084 3056 2656 
Q 3513 2228 3513 1497 
Q 3513 744 3044 326 
Q 2575 -91 1722 -91 
Q 1428 -91 1123 -41 
Q 819 9 494 109 
L 494 744 
Q 775 591 1075 516 
Q 1375 441 1709 441 
Q 2250 441 2565 725 
Q 2881 1009 2881 1497 
Q 2881 1984 2565 2268 
Q 2250 2553 1709 2553 
Q 1456 2553 1204 2497 
Q 953 2441 691 2322 
L 691 4666 
z
" transform="scale(0.015625)"/>
       </defs>
       <use xlink:href="#DejaVuSans-35"/>
       <use xlink:href="#DejaVuSans-30" x="63.623047"/>
       <use xlink:href="#DejaVuSans-30" x="127.246094"/>
      </g>
     </g>
    </g>
    <g id="xtick_3">
     <g id="line2d_3">
      <g>
       <use xlink:href="#maa32fe3940" x="180.486652" y="307.584" style="stroke: #000000; stroke-width: 0.8"/>
      </g>
     </g>
     <g id="text_3">
      <!-- 1000 -->
      <g transform="translate(167.761652 322.182437)scale(0.1 -0.1)">
       <defs>
        <path id="DejaVuSans-31" d="M 794 531 
L 1825 531 
L 1825 4091 
L 703 3866 
L 703 4441 
L 1819 4666 
L 2450 4666 
L 2450 531 
L 3481 531 
L 3481 0 
L 794 0 
L 794 531 
z
" transform="scale(0.015625)"/>
       </defs>
       <use xlink:href="#DejaVuSans-31"/>
       <use xlink:href="#DejaVuSans-30" x="63.623047"/>
       <use xlink:href="#DejaVuSans-30" x="127.246094"/>
       <use xlink:href="#DejaVuSans-30" x="190.869141"/>
      </g>
     </g>
    </g>
    <g id="xtick_4">
     <g id="line2d_4">
      <g>
       <use xlink:href="#maa32fe3940" x="233.813614" y="307.584" style="stroke: #000000; stroke-width: 0.8"/>
      </g>
     </g>
     <g id="text_4">
      <!-- 1500 -->
      <g transform="translate(221.088614 322.182437)scale(0.1 -0.1)">
       <use xlink:href="#DejaVuSans-31"/>
       <use xlink:href="#DejaVuSans-35" x="63.623047"/>
       <use xlink:href="#DejaVuSans-30" x="127.246094"/>
       <use xlink:href="#DejaVuSans-30" x="190.869141"/>
      </g>
     </g>
    </g>
    <g id="xtick_5">
     <g id="line2d_5">
      <g>
       <use xlink:href="#maa32fe3940" x="287.140576" y="307.584" style="stroke: #000000; stroke-width: 0.8"/>
      </g>
     </g>
     <g id="text_5">
      <!-- 2000 -->
      <g transform="translate(274.415576 322.182437)scale(0.1 -0.1)">
       <defs>
        <path id="DejaVuSans-32" d="M 1228 531 
L 3431 531 
L 3431 0 
L 469 0 
L 469 531 
Q 828 903 1448 1529 
Q 2069 2156 2228 2338 
Q 2531 2678 2651 2914 
Q 2772 3150 2772 3378 
Q 2772 3750 2511 3984 
Q 2250 4219 1831 4219 
Q 1534 4219 1204 4116 
Q 875 4013 500 3803 
L 500 4441 
Q 881 4594 1212 4672 
Q 1544 4750 1819 4750 
Q 2544 4750 2975 4387 
Q 3406 4025 3406 3419 
Q 3406 3131 3298 2873 
Q 3191 2616 2906 2266 
Q 2828 2175 2409 1742 
Q 1991 1309 1228 531 
z
" transform="scale(0.015625)"/>
       </defs>
       <use xlink:href="#DejaVuSans-32"/>
       <use xlink:href="#DejaVuSans-30" x="63.623047"/>
       <use xlink:href="#DejaVuSans-30" x="127.246094"/>
       <use xlink:href="#DejaVuSans-30" x="190.869141"/>
      </g>
     </g>
    </g>
    <g id="xtick_6">
     <g id="line2d_6">
      <g>
       <use xlink:href="#maa32fe3940" x="340.467538" y="307.584" style="stroke: #000000; stroke-width: 0.8"/>
      </g>
     </g>
     <g id="text_6">
      <!-- 2500 -->
      <g transform="translate(327.742538 322.182437)scale(0.1 -0.1)">
       <use xlink:href="#DejaVuSans-32"/>
       <use xlink:href="#DejaVuSans-35" x="63.623047"/>
       <use xlink:href="#DejaVuSans-30" x="127.246094"/>
       <use xlink:href="#DejaVuSans-30" x="190.869141"/>
      </g>
     </g>
    </g>
    <g id="xtick_7">
     <g id="line2d_7">
      <g>
       <use xlink:href="#maa32fe3940" x="393.7945" y="307.584" style="stroke: #000000; stroke-width: 0.8"/>
      </g>
     </g>
     <g id="text_7">
      <!-- 3000 -->
      <g transform="translate(381.0695 322.182437)scale(0.1 -0.1)">
       <defs>
        <path id="DejaVuSans-33" d="M 2597 2516 
Q 3050 2419 3304 2112 
Q 3559 1806 3559 1356 
Q 3559 666 3084 287 
Q 2609 -91 1734 -91 
Q 1441 -91 1130 -33 
Q 819 25 488 141 
L 488 750 
Q 750 597 1062 519 
Q 1375 441 1716 441 
Q 2309 441 2620 675 
Q 2931 909 2931 1356 
Q 2931 1769 2642 2001 
Q 2353 2234 1838 2234 
L 1294 2234 
L 1294 2753 
L 1863 2753 
Q 2328 2753 2575 2939 
Q 2822 3125 2822 3475 
Q 2822 3834 2567 4026 
Q 2313 4219 1838 4219 
Q 1578 4219 1281 4162 
Q 984 4106 628 3988 
L 628 4550 
Q 988 4650 1302 4700 
Q 1616 4750 1894 4750 
Q 2613 4750 3031 4423 
Q 3450 4097 3450 3541 
Q 3450 3153 3228 2886 
Q 3006 2619 2597 2516 
z
" transform="scale(0.015625)"/>
       </defs>
       <use xlink:href="#DejaVuSans-33"/>
       <use xlink:href="#DejaVuSans-30" x="63.623047"/>
       <use xlink:href="#DejaVuSans-30" x="127.246094"/>
       <use xlink:href="#DejaVuSans-30" x="190.869141"/>
      </g>
     </g>
    </g>
    <g id="text_8">
     <!-- num swaps -->
     <g transform="translate(207.826406 335.860562)scale(0.1 -0.1)">
      <defs>
       <path id="DejaVuSans-6e" d="M 3513 2113 
L 3513 0 
L 2938 0 
L 2938 2094 
Q 2938 2591 2744 2837 
Q 2550 3084 2163 3084 
Q 1697 3084 1428 2787 
Q 1159 2491 1159 1978 
L 1159 0 
L 581 0 
L 581 3500 
L 1159 3500 
L 1159 2956 
Q 1366 3272 1645 3428 
Q 1925 3584 2291 3584 
Q 2894 3584 3203 3211 
Q 3513 2838 3513 2113 
z
" transform="scale(0.015625)"/>
       <path id="DejaVuSans-75" d="M 544 1381 
L 544 3500 
L 1119 3500 
L 1119 1403 
Q 1119 906 1312 657 
Q 1506 409 1894 409 
Q 2359 409 2629 706 
Q 2900 1003 2900 1516 
L 2900 3500 
L 3475 3500 
L 3475 0 
L 2900 0 
L 2900 538 
Q 2691 219 2414 64 
Q 2138 -91 1772 -91 
Q 1169 -91 856 284 
Q 544 659 544 1381 
z
M 1991 3584 
L 1991 3584 
z
" transform="scale(0.015625)"/>
       <path id="DejaVuSans-6d" d="M 3328 2828 
Q 3544 3216 3844 3400 
Q 4144 3584 4550 3584 
Q 5097 3584 5394 3201 
Q 5691 2819 5691 2113 
L 5691 0 
L 5113 0 
L 5113 2094 
Q 5113 2597 4934 2840 
Q 4756 3084 4391 3084 
Q 3944 3084 3684 2787 
Q 3425 2491 3425 1978 
L 3425 0 
L 2847 0 
L 2847 2094 
Q 2847 2600 2669 2842 
Q 2491 3084 2119 3084 
Q 1678 3084 1418 2786 
Q 1159 2488 1159 1978 
L 1159 0 
L 581 0 
L 581 3500 
L 1159 3500 
L 1159 2956 
Q 1356 3278 1631 3431 
Q 1906 3584 2284 3584 
Q 2666 3584 2933 3390 
Q 3200 3197 3328 2828 
z
" transform="scale(0.015625)"/>
       <path id="DejaVuSans-20" transform="scale(0.015625)"/>
       <path id="DejaVuSans-73" d="M 2834 3397 
L 2834 2853 
Q 2591 2978 2328 3040 
Q 2066 3103 1784 3103 
Q 1356 3103 1142 2972 
Q 928 2841 928 2578 
Q 928 2378 1081 2264 
Q 1234 2150 1697 2047 
L 1894 2003 
Q 2506 1872 2764 1633 
Q 3022 1394 3022 966 
Q 3022 478 2636 193 
Q 2250 -91 1575 -91 
Q 1294 -91 989 -36 
Q 684 19 347 128 
L 347 722 
Q 666 556 975 473 
Q 1284 391 1588 391 
Q 1994 391 2212 530 
Q 2431 669 2431 922 
Q 2431 1156 2273 1281 
Q 2116 1406 1581 1522 
L 1381 1569 
Q 847 1681 609 1914 
Q 372 2147 372 2553 
Q 372 3047 722 3315 
Q 1072 3584 1716 3584 
Q 2034 3584 2315 3537 
Q 2597 3491 2834 3397 
z
" transform="scale(0.015625)"/>
       <path id="DejaVuSans-77" d="M 269 3500 
L 844 3500 
L 1563 769 
L 2278 3500 
L 2956 3500 
L 3675 769 
L 4391 3500 
L 4966 3500 
L 4050 0 
L 3372 0 
L 2619 2869 
L 1863 0 
L 1184 0 
L 269 3500 
z
" transform="scale(0.015625)"/>
       <path id="DejaVuSans-61" d="M 2194 1759 
Q 1497 1759 1228 1600 
Q 959 1441 959 1056 
Q 959 750 1161 570 
Q 1363 391 1709 391 
Q 2188 391 2477 730 
Q 2766 1069 2766 1631 
L 2766 1759 
L 2194 1759 
z
M 3341 1997 
L 3341 0 
L 2766 0 
L 2766 531 
Q 2569 213 2275 61 
Q 1981 -91 1556 -91 
Q 1019 -91 701 211 
Q 384 513 384 1019 
Q 384 1609 779 1909 
Q 1175 2209 1959 2209 
L 2766 2209 
L 2766 2266 
Q 2766 2663 2505 2880 
Q 2244 3097 1772 3097 
Q 1472 3097 1187 3025 
Q 903 2953 641 2809 
L 641 3341 
Q 956 3463 1253 3523 
Q 1550 3584 1831 3584 
Q 2591 3584 2966 3190 
Q 3341 2797 3341 1997 
z
" transform="scale(0.015625)"/>
       <path id="DejaVuSans-70" d="M 1159 525 
L 1159 -1331 
L 581 -1331 
L 581 3500 
L 1159 3500 
L 1159 2969 
Q 1341 3281 1617 3432 
Q 1894 3584 2278 3584 
Q 2916 3584 3314 3078 
Q 3713 2572 3713 1747 
Q 3713 922 3314 415 
Q 2916 -91 2278 -91 
Q 1894 -91 1617 61 
Q 1341 213 1159 525 
z
M 3116 1747 
Q 3116 2381 2855 2742 
Q 2594 3103 2138 3103 
Q 1681 3103 1420 2742 
Q 1159 2381 1159 1747 
Q 1159 1113 1420 752 
Q 1681 391 2138 391 
Q 2594 391 2855 752 
Q 3116 1113 3116 1747 
z
" transform="scale(0.015625)"/>
      </defs>
      <use xlink:href="#DejaVuSans-6e"/>
      <use xlink:href="#DejaVuSans-75" x="63.378906"/>
      <use xlink:href="#DejaVuSans-6d" x="126.757812"/>
      <use xlink:href="#DejaVuSans-20" x="224.169922"/>
      <use xlink:href="#DejaVuSans-73" x="255.957031"/>
      <use xlink:href="#DejaVuSans-77" x="308.056641"/>
      <use xlink:href="#DejaVuSans-61" x="389.84375"/>
      <use xlink:href="#DejaVuSans-70" x="451.123047"/>
      <use xlink:href="#DejaVuSans-73" x="514.599609"/>
     </g>
    </g>
   </g>
   <g id="matplotlib.axis_2">
    <g id="ytick_1">
     <g id="line2d_8">
      <defs>
       <path id="m768a6ec8a2" d="M 0 0 
L -3.5 0 
" style="stroke: #000000; stroke-width: 0.8"/>
      </defs>
      <g>
       <use xlink:href="#m768a6ec8a2" x="57.6" y="272.076387" style="stroke: #000000; stroke-width: 0.8"/>
      </g>
     </g>
     <g id="text_9">
      <!-- 300 -->
      <g transform="translate(31.5125 275.875606)scale(0.1 -0.1)">
       <use xlink:href="#DejaVuSans-33"/>
       <use xlink:href="#DejaVuSans-30" x="63.623047"/>
       <use xlink:href="#DejaVuSans-30" x="127.246094"/>
      </g>
     </g>
    </g>
    <g id="ytick_2">
     <g id="line2d_9">
      <g>
       <use xlink:href="#m768a6ec8a2" x="57.6" y="233.057032" style="stroke: #000000; stroke-width: 0.8"/>
      </g>
     </g>
     <g id="text_10">
      <!-- 320 -->
      <g transform="translate(31.5125 236.856251)scale(0.1 -0.1)">
       <use xlink:href="#DejaVuSans-33"/>
       <use xlink:href="#DejaVuSans-32" x="63.623047"/>
       <use xlink:href="#DejaVuSans-30" x="127.246094"/>
      </g>
     </g>
    </g>
    <g id="ytick_3">
     <g id="line2d_10">
      <g>
       <use xlink:href="#m768a6ec8a2" x="57.6" y="194.037677" style="stroke: #000000; stroke-width: 0.8"/>
      </g>
     </g>
     <g id="text_11">
      <!-- 340 -->
      <g transform="translate(31.5125 197.836896)scale(0.1 -0.1)">
       <defs>
        <path id="DejaVuSans-34" d="M 2419 4116 
L 825 1625 
L 2419 1625 
L 2419 4116 
z
M 2253 4666 
L 3047 4666 
L 3047 1625 
L 3713 1625 
L 3713 1100 
L 3047 1100 
L 3047 0 
L 2419 0 
L 2419 1100 
L 313 1100 
L 313 1709 
L 2253 4666 
z
" transform="scale(0.015625)"/>
       </defs>
       <use xlink:href="#DejaVuSans-33"/>
       <use xlink:href="#DejaVuSans-34" x="63.623047"/>
       <use xlink:href="#DejaVuSans-30" x="127.246094"/>
      </g>
     </g>
    </g>
    <g id="ytick_4">
     <g id="line2d_11">
      <g>
       <use xlink:href="#m768a6ec8a2" x="57.6" y="155.018323" style="stroke: #000000; stroke-width: 0.8"/>
      </g>
     </g>
     <g id="text_12">
      <!-- 360 -->
      <g transform="translate(31.5125 158.817541)scale(0.1 -0.1)">
       <defs>
        <path id="DejaVuSans-36" d="M 2113 2584 
Q 1688 2584 1439 2293 
Q 1191 2003 1191 1497 
Q 1191 994 1439 701 
Q 1688 409 2113 409 
Q 2538 409 2786 701 
Q 3034 994 3034 1497 
Q 3034 2003 2786 2293 
Q 2538 2584 2113 2584 
z
M 3366 4563 
L 3366 3988 
Q 3128 4100 2886 4159 
Q 2644 4219 2406 4219 
Q 1781 4219 1451 3797 
Q 1122 3375 1075 2522 
Q 1259 2794 1537 2939 
Q 1816 3084 2150 3084 
Q 2853 3084 3261 2657 
Q 3669 2231 3669 1497 
Q 3669 778 3244 343 
Q 2819 -91 2113 -91 
Q 1303 -91 875 529 
Q 447 1150 447 2328 
Q 447 3434 972 4092 
Q 1497 4750 2381 4750 
Q 2619 4750 2861 4703 
Q 3103 4656 3366 4563 
z
" transform="scale(0.015625)"/>
       </defs>
       <use xlink:href="#DejaVuSans-33"/>
       <use xlink:href="#DejaVuSans-36" x="63.623047"/>
       <use xlink:href="#DejaVuSans-30" x="127.246094"/>
      </g>
     </g>
    </g>
    <g id="ytick_5">
     <g id="line2d_12">
      <g>
       <use xlink:href="#m768a6ec8a2" x="57.6" y="115.998968" style="stroke: #000000; stroke-width: 0.8"/>
      </g>
     </g>
     <g id="text_13">
      <!-- 380 -->
      <g transform="translate(31.5125 119.798186)scale(0.1 -0.1)">
       <defs>
        <path id="DejaVuSans-38" d="M 2034 2216 
Q 1584 2216 1326 1975 
Q 1069 1734 1069 1313 
Q 1069 891 1326 650 
Q 1584 409 2034 409 
Q 2484 409 2743 651 
Q 3003 894 3003 1313 
Q 3003 1734 2745 1975 
Q 2488 2216 2034 2216 
z
M 1403 2484 
Q 997 2584 770 2862 
Q 544 3141 544 3541 
Q 544 4100 942 4425 
Q 1341 4750 2034 4750 
Q 2731 4750 3128 4425 
Q 3525 4100 3525 3541 
Q 3525 3141 3298 2862 
Q 3072 2584 2669 2484 
Q 3125 2378 3379 2068 
Q 3634 1759 3634 1313 
Q 3634 634 3220 271 
Q 2806 -91 2034 -91 
Q 1263 -91 848 271 
Q 434 634 434 1313 
Q 434 1759 690 2068 
Q 947 2378 1403 2484 
z
M 1172 3481 
Q 1172 3119 1398 2916 
Q 1625 2713 2034 2713 
Q 2441 2713 2670 2916 
Q 2900 3119 2900 3481 
Q 2900 3844 2670 4047 
Q 2441 4250 2034 4250 
Q 1625 4250 1398 4047 
Q 1172 3844 1172 3481 
z
" transform="scale(0.015625)"/>
       </defs>
       <use xlink:href="#DejaVuSans-33"/>
       <use xlink:href="#DejaVuSans-38" x="63.623047"/>
       <use xlink:href="#DejaVuSans-30" x="127.246094"/>
      </g>
     </g>
    </g>
    <g id="ytick_6">
     <g id="line2d_13">
      <g>
       <use xlink:href="#m768a6ec8a2" x="57.6" y="76.979613" style="stroke: #000000; stroke-width: 0.8"/>
      </g>
     </g>
     <g id="text_14">
      <!-- 400 -->
      <g transform="translate(31.5125 80.778832)scale(0.1 -0.1)">
       <use xlink:href="#DejaVuSans-34"/>
       <use xlink:href="#DejaVuSans-30" x="63.623047"/>
       <use xlink:href="#DejaVuSans-30" x="127.246094"/>
      </g>
     </g>
    </g>
    <g id="text_15">
     <!-- total cost -->
     <g transform="translate(25.432812 197.923313)rotate(-90)scale(0.1 -0.1)">
      <defs>
       <path id="DejaVuSans-74" d="M 1172 4494 
L 1172 3500 
L 2356 3500 
L 2356 3053 
L 1172 3053 
L 1172 1153 
Q 1172 725 1289 603 
Q 1406 481 1766 481 
L 2356 481 
L 2356 0 
L 1766 0 
Q 1100 0 847 248 
Q 594 497 594 1153 
L 594 3053 
L 172 3053 
L 172 3500 
L 594 3500 
L 594 4494 
L 1172 4494 
z
" transform="scale(0.015625)"/>
       <path id="DejaVuSans-6f" d="M 1959 3097 
Q 1497 3097 1228 2736 
Q 959 2375 959 1747 
Q 959 1119 1226 758 
Q 1494 397 1959 397 
Q 2419 397 2687 759 
Q 2956 1122 2956 1747 
Q 2956 2369 2687 2733 
Q 2419 3097 1959 3097 
z
M 1959 3584 
Q 2709 3584 3137 3096 
Q 3566 2609 3566 1747 
Q 3566 888 3137 398 
Q 2709 -91 1959 -91 
Q 1206 -91 779 398 
Q 353 888 353 1747 
Q 353 2609 779 3096 
Q 1206 3584 1959 3584 
z
" transform="scale(0.015625)"/>
       <path id="DejaVuSans-6c" d="M 603 4863 
L 1178 4863 
L 1178 0 
L 603 0 
L 603 4863 
z
" transform="scale(0.015625)"/>
       <path id="DejaVuSans-63" d="M 3122 3366 
L 3122 2828 
Q 2878 2963 2633 3030 
Q 2388 3097 2138 3097 
Q 1578 3097 1268 2742 
Q 959 2388 959 1747 
Q 959 1106 1268 751 
Q 1578 397 2138 397 
Q 2388 397 2633 464 
Q 2878 531 3122 666 
L 3122 134 
Q 2881 22 2623 -34 
Q 2366 -91 2075 -91 
Q 1284 -91 818 406 
Q 353 903 353 1747 
Q 353 2603 823 3093 
Q 1294 3584 2113 3584 
Q 2378 3584 2631 3529 
Q 2884 3475 3122 3366 
z
" transform="scale(0.015625)"/>
      </defs>
      <use xlink:href="#DejaVuSans-74"/>
      <use xlink:href="#DejaVuSans-6f" x="39.208984"/>
      <use xlink:href="#DejaVuSans-74" x="100.390625"/>
      <use xlink:href="#DejaVuSans-61" x="139.599609"/>
      <use xlink:href="#DejaVuSans-6c" x="200.878906"/>
      <use xlink:href="#DejaVuSans-20" x="228.662109"/>
      <use xlink:href="#DejaVuSans-63" x="260.449219"/>
      <use xlink:href="#DejaVuSans-6f" x="315.429688"/>
      <use xlink:href="#DejaVuSans-73" x="376.611328"/>
      <use xlink:href="#DejaVuSans-74" x="428.710938"/>
     </g>
    </g>
   </g>
   <g id="line2d_14">
    <path d="M 73.832727 143.312516 
L 74.046035 147.214452 
L 74.259343 143.312516 
L 74.472651 125.753806 
L 75.112574 149.165419 
L 75.325882 139.410581 
L 75.965806 145.263484 
L 76.179114 141.361548 
L 76.392421 160.871226 
L 76.819037 147.214452 
L 77.032345 147.214452 
L 77.245653 153.067355 
L 77.458961 139.410581 
L 77.672269 149.165419 
L 78.098884 125.753806 
L 78.312192 129.655742 
L 78.5255 127.704774 
L 78.738808 127.704774 
L 78.952116 155.018323 
L 79.378731 131.60671 
L 79.592039 135.508645 
L 79.805347 115.998968 
L 80.018655 112.097032 
L 80.231963 114.048 
L 80.445271 123.802839 
L 80.658578 112.097032 
L 80.871886 114.048 
L 81.085194 147.214452 
L 81.298502 147.214452 
L 81.51181 170.626065 
L 81.938426 158.920258 
L 82.365041 164.773161 
L 82.578349 182.331871 
L 82.791657 184.282839 
L 83.004965 184.282839 
L 83.218273 188.184774 
L 83.43158 199.890581 
L 83.644888 194.037677 
L 84.071504 155.018323 
L 84.49812 186.233806 
L 84.711428 162.822194 
L 84.924735 162.822194 
L 85.138043 166.724129 
L 85.351351 164.773161 
L 85.564659 168.675097 
L 85.991275 158.920258 
L 86.204582 153.067355 
L 86.41789 156.96929 
L 86.631198 149.165419 
L 86.844506 160.871226 
L 87.057814 158.920258 
L 87.271122 158.920258 
L 87.48443 156.96929 
L 87.697737 160.871226 
L 87.911045 156.96929 
L 88.337661 166.724129 
L 88.550969 158.920258 
L 88.764277 162.822194 
L 89.190892 137.459613 
L 89.4042 155.018323 
L 89.830816 166.724129 
L 90.044124 166.724129 
L 90.257432 153.067355 
L 90.470739 149.165419 
L 90.684047 155.018323 
L 90.897355 155.018323 
L 91.110663 153.067355 
L 91.323971 168.675097 
L 91.963894 155.018323 
L 92.177202 170.626065 
L 92.39051 170.626065 
L 92.603818 180.380903 
L 92.817126 162.822194 
L 93.030434 168.675097 
L 93.243741 162.822194 
L 93.457049 166.724129 
L 93.670357 156.96929 
L 93.883665 166.724129 
L 94.096973 162.822194 
L 94.310281 151.116387 
L 94.523589 149.165419 
L 94.736896 141.361548 
L 94.950204 162.822194 
L 95.37682 149.165419 
L 95.803436 166.724129 
L 96.016744 164.773161 
L 96.230051 164.773161 
L 96.443359 166.724129 
L 96.656667 176.478968 
L 96.869975 172.577032 
L 97.083283 178.429935 
L 97.723206 153.067355 
L 97.936514 155.018323 
L 98.36313 143.312516 
L 98.789746 135.508645 
L 99.003053 147.214452 
L 99.216361 139.410581 
L 99.429669 139.410581 
L 99.642977 131.60671 
L 99.856285 117.949935 
L 100.069593 123.802839 
L 100.2829 119.900903 
L 100.496208 129.655742 
L 100.709516 125.753806 
L 100.922824 129.655742 
L 101.136132 119.900903 
L 101.34944 133.557677 
L 101.562748 133.557677 
L 101.776055 131.60671 
L 101.989363 131.60671 
L 102.202671 149.165419 
L 102.415979 151.116387 
L 102.629287 158.920258 
L 102.842595 153.067355 
L 103.055903 155.018323 
L 103.26921 147.214452 
L 103.482518 147.214452 
L 103.695826 155.018323 
L 103.909134 127.704774 
L 104.33575 108.195097 
L 104.549057 112.097032 
L 104.762365 141.361548 
L 105.188981 160.871226 
L 105.615597 131.60671 
L 105.828905 141.361548 
L 106.25552 115.998968 
L 106.468828 123.802839 
L 106.682136 117.949935 
L 106.895444 108.195097 
L 107.108752 110.146065 
L 107.322059 125.753806 
L 107.535367 129.655742 
L 107.961983 114.048 
L 108.175291 98.440258 
L 108.388599 115.998968 
L 108.601907 121.851871 
L 108.815214 98.440258 
L 109.028522 119.900903 
L 109.455138 137.459613 
L 109.668446 125.753806 
L 109.881754 121.851871 
L 110.095062 127.704774 
L 110.308369 117.949935 
L 110.521677 86.734452 
L 110.948293 76.979613 
L 111.161601 57.469935 
L 111.374909 53.568 
L 112.014832 104.293161 
L 112.22814 96.48929 
L 112.441448 106.244129 
L 112.654756 108.195097 
L 112.868064 121.851871 
L 113.081371 114.048 
L 113.294679 112.097032 
L 113.507987 112.097032 
L 113.934603 88.685419 
L 114.147911 94.538323 
L 114.361218 90.636387 
L 114.574526 94.538323 
L 114.787834 106.244129 
L 115.001142 110.146065 
L 115.21445 110.146065 
L 115.641066 114.048 
L 115.854373 110.146065 
L 116.067681 149.165419 
L 116.280989 151.116387 
L 116.494297 143.312516 
L 116.920913 102.342194 
L 117.134221 108.195097 
L 117.347528 69.175742 
L 117.560836 88.685419 
L 117.774144 73.077677 
L 117.987452 71.12671 
L 118.627375 59.420903 
L 118.840683 76.979613 
L 119.053991 76.979613 
L 119.267299 75.028645 
L 119.480607 67.224774 
L 119.693915 121.851871 
L 119.907223 115.998968 
L 120.333838 115.998968 
L 120.547146 119.900903 
L 120.973762 143.312516 
L 121.400377 197.939613 
L 121.613685 197.939613 
L 122.040301 184.282839 
L 122.253609 184.282839 
L 122.680225 172.577032 
L 122.893532 195.988645 
L 123.320148 178.429935 
L 123.533456 180.380903 
L 123.746764 172.577032 
L 123.960072 194.037677 
L 124.17338 197.939613 
L 124.599995 190.135742 
L 124.813303 190.135742 
L 125.026611 184.282839 
L 125.453227 180.380903 
L 125.666534 182.331871 
L 125.879842 199.890581 
L 126.09315 203.792516 
L 126.519766 176.478968 
L 126.733074 186.233806 
L 127.372997 166.724129 
L 127.586305 182.331871 
L 127.799613 217.44929 
L 128.012921 233.057032 
L 128.226229 231.106065 
L 128.439536 215.498323 
L 128.866152 244.762839 
L 129.292768 235.008 
L 129.506076 235.008 
L 129.719384 236.958968 
L 129.932691 227.204129 
L 130.359307 188.184774 
L 130.572615 180.380903 
L 130.785923 188.184774 
L 130.999231 182.331871 
L 131.212539 186.233806 
L 131.852462 219.400258 
L 132.06577 217.44929 
L 132.279078 201.841548 
L 132.492386 174.528 
L 132.705693 184.282839 
L 133.132309 160.871226 
L 133.345617 162.822194 
L 133.558925 162.822194 
L 133.772233 160.871226 
L 133.985541 160.871226 
L 134.412156 166.724129 
L 134.625464 192.08671 
L 134.838772 195.988645 
L 135.05208 180.380903 
L 135.692003 199.890581 
L 135.905311 197.939613 
L 136.118619 213.547355 
L 136.331927 194.037677 
L 136.545235 203.792516 
L 136.758543 201.841548 
L 136.97185 186.233806 
L 137.185158 186.233806 
L 137.398466 166.724129 
L 137.611774 162.822194 
L 138.03839 162.822194 
L 138.251698 164.773161 
L 138.465005 151.116387 
L 138.678313 151.116387 
L 138.891621 155.018323 
L 139.318237 127.704774 
L 139.531545 127.704774 
L 139.744852 131.60671 
L 139.95816 127.704774 
L 140.171468 114.048 
L 140.384776 112.097032 
L 140.598084 125.753806 
L 140.811392 117.949935 
L 141.0247 143.312516 
L 141.238007 149.165419 
L 141.451315 170.626065 
L 141.877931 147.214452 
L 142.304547 129.655742 
L 142.517854 131.60671 
L 142.731162 121.851871 
L 142.94447 121.851871 
L 143.371086 125.753806 
L 143.584394 147.214452 
L 143.797702 147.214452 
L 144.011009 143.312516 
L 144.224317 131.60671 
L 144.437625 129.655742 
L 144.650933 119.900903 
L 144.864241 131.60671 
L 145.077549 151.116387 
L 145.504164 155.018323 
L 145.717472 192.08671 
L 145.93078 199.890581 
L 146.144088 215.498323 
L 146.357396 219.400258 
L 146.570704 215.498323 
L 146.784011 201.841548 
L 146.997319 203.792516 
L 147.210627 199.890581 
L 147.423935 192.08671 
L 147.637243 207.694452 
L 147.850551 238.909935 
L 148.063859 229.155097 
L 148.277166 236.958968 
L 148.490474 233.057032 
L 148.703782 250.615742 
L 148.91709 235.008 
L 149.343706 227.204129 
L 149.557013 217.44929 
L 149.770321 233.057032 
L 149.983629 225.253161 
L 150.196937 207.694452 
L 150.410245 213.547355 
L 150.623553 190.135742 
L 150.836861 192.08671 
L 151.050168 199.890581 
L 151.263476 195.988645 
L 151.476784 199.890581 
L 151.690092 194.037677 
L 152.116708 199.890581 
L 152.330016 201.841548 
L 152.543323 215.498323 
L 152.756631 203.792516 
L 152.969939 199.890581 
L 153.183247 209.645419 
L 153.396555 207.694452 
L 153.609863 184.282839 
L 153.82317 190.135742 
L 154.036478 186.233806 
L 154.249786 197.939613 
L 154.463094 190.135742 
L 155.103018 213.547355 
L 155.316325 203.792516 
L 155.529633 178.429935 
L 155.742941 195.988645 
L 155.956249 170.626065 
L 156.169557 160.871226 
L 156.382865 172.577032 
L 156.596173 172.577032 
L 156.80948 174.528 
L 157.022788 188.184774 
L 157.236096 190.135742 
L 157.449404 139.410581 
L 157.662712 125.753806 
L 157.87602 121.851871 
L 158.089327 123.802839 
L 158.302635 131.60671 
L 158.515943 125.753806 
L 158.729251 115.998968 
L 159.155867 123.802839 
L 159.369175 112.097032 
L 159.582482 115.998968 
L 159.79579 100.391226 
L 160.009098 98.440258 
L 160.222406 104.293161 
L 160.435714 117.949935 
L 160.649022 123.802839 
L 160.862329 137.459613 
L 161.075637 131.60671 
L 161.288945 143.312516 
L 161.502253 139.410581 
L 161.928869 139.410581 
L 162.142177 143.312516 
L 162.355484 135.508645 
L 162.568792 137.459613 
L 162.7821 112.097032 
L 162.995408 112.097032 
L 163.208716 115.998968 
L 163.422024 112.097032 
L 163.635332 117.949935 
L 164.061947 108.195097 
L 164.275255 112.097032 
L 164.488563 108.195097 
L 164.701871 117.949935 
L 164.915179 119.900903 
L 165.128486 119.900903 
L 165.341794 115.998968 
L 165.555102 147.214452 
L 165.76841 141.361548 
L 165.981718 151.116387 
L 166.195026 135.508645 
L 166.408334 133.557677 
L 166.621641 129.655742 
L 166.834949 129.655742 
L 167.474873 141.361548 
L 167.688181 137.459613 
L 167.901488 153.067355 
L 168.114796 135.508645 
L 168.328104 147.214452 
L 168.75472 125.753806 
L 168.968028 125.753806 
L 169.181336 131.60671 
L 169.394643 108.195097 
L 169.607951 108.195097 
L 169.821259 102.342194 
L 170.034567 90.636387 
L 170.247875 98.440258 
L 170.461183 100.391226 
L 170.674491 86.734452 
L 171.101106 90.636387 
L 171.314414 114.048 
L 171.527722 108.195097 
L 171.74103 119.900903 
L 171.954338 149.165419 
L 172.167645 145.263484 
L 172.380953 145.263484 
L 172.594261 135.508645 
L 173.020877 153.067355 
L 173.447493 153.067355 
L 173.6608 164.773161 
L 173.874108 162.822194 
L 174.087416 164.773161 
L 174.300724 182.331871 
L 174.514032 162.822194 
L 174.72734 170.626065 
L 174.940647 166.724129 
L 175.153955 182.331871 
L 175.367263 180.380903 
L 175.580571 215.498323 
L 175.793879 201.841548 
L 176.007187 197.939613 
L 176.220495 207.694452 
L 176.433802 197.939613 
L 176.64711 195.988645 
L 176.860418 201.841548 
L 177.073726 201.841548 
L 177.500342 176.478968 
L 177.71365 186.233806 
L 178.140265 178.429935 
L 178.566881 194.037677 
L 178.993497 174.528 
L 179.206804 195.988645 
L 179.420112 194.037677 
L 179.63342 201.841548 
L 179.846728 215.498323 
L 180.273344 215.498323 
L 180.486652 209.645419 
L 180.699959 192.08671 
L 180.913267 188.184774 
L 181.126575 176.478968 
L 181.339883 174.528 
L 181.553191 174.528 
L 181.766499 176.478968 
L 181.979806 164.773161 
L 182.406422 176.478968 
L 182.61973 170.626065 
L 182.833038 174.528 
L 183.046346 168.675097 
L 183.472961 182.331871 
L 183.686269 184.282839 
L 183.899577 188.184774 
L 184.112885 188.184774 
L 184.752809 155.018323 
L 184.966116 160.871226 
L 185.179424 160.871226 
L 185.392732 145.263484 
L 185.60604 156.96929 
L 186.032656 141.361548 
L 186.245963 155.018323 
L 186.459271 160.871226 
L 186.885887 123.802839 
L 187.312503 127.704774 
L 187.525811 135.508645 
L 187.739118 127.704774 
L 187.952426 129.655742 
L 188.165734 119.900903 
L 188.59235 147.214452 
L 189.018965 115.998968 
L 189.232273 115.998968 
L 189.445581 112.097032 
L 189.658889 112.097032 
L 190.298813 139.410581 
L 190.51212 141.361548 
L 190.938736 153.067355 
L 191.152044 168.675097 
L 191.365352 160.871226 
L 191.57866 164.773161 
L 191.791968 153.067355 
L 192.005275 160.871226 
L 192.218583 155.018323 
L 192.431891 155.018323 
L 192.645199 156.96929 
L 192.858507 147.214452 
L 193.071815 153.067355 
L 193.285122 151.116387 
L 193.49843 133.557677 
L 193.711738 141.361548 
L 193.925046 119.900903 
L 194.138354 125.753806 
L 194.351662 143.312516 
L 194.56497 129.655742 
L 194.778277 131.60671 
L 194.991585 127.704774 
L 195.204893 131.60671 
L 195.418201 131.60671 
L 195.631509 151.116387 
L 195.844817 151.116387 
L 196.058124 149.165419 
L 196.48474 162.822194 
L 196.698048 172.577032 
L 196.911356 168.675097 
L 197.124664 168.675097 
L 197.337972 176.478968 
L 197.551279 178.429935 
L 197.764587 184.282839 
L 197.977895 174.528 
L 198.191203 178.429935 
L 198.617819 215.498323 
L 198.831127 205.743484 
L 199.044434 201.841548 
L 199.257742 188.184774 
L 199.47105 190.135742 
L 199.684358 182.331871 
L 199.897666 133.557677 
L 200.110974 143.312516 
L 200.324281 117.949935 
L 200.537589 110.146065 
L 200.750897 115.998968 
L 201.177513 108.195097 
L 201.390821 114.048 
L 201.604129 131.60671 
L 201.817436 129.655742 
L 202.030744 125.753806 
L 202.244052 125.753806 
L 202.45736 112.097032 
L 202.670668 125.753806 
L 202.883976 151.116387 
L 203.097283 135.508645 
L 203.310591 141.361548 
L 203.737207 137.459613 
L 204.163823 166.724129 
L 204.377131 168.675097 
L 204.590438 160.871226 
L 204.803746 162.822194 
L 205.017054 155.018323 
L 205.230362 153.067355 
L 205.44367 147.214452 
L 205.656978 178.429935 
L 205.870286 158.920258 
L 206.083593 158.920258 
L 206.296901 137.459613 
L 206.510209 145.263484 
L 206.723517 166.724129 
L 206.936825 170.626065 
L 207.150133 162.822194 
L 207.576748 158.920258 
L 207.790056 143.312516 
L 208.003364 147.214452 
L 208.216672 117.949935 
L 208.42998 125.753806 
L 208.643288 125.753806 
L 208.856595 123.802839 
L 209.283211 117.949935 
L 209.709827 114.048 
L 209.923135 114.048 
L 210.136442 121.851871 
L 210.34975 121.851871 
L 210.563058 119.900903 
L 210.989674 100.391226 
L 211.202982 106.244129 
L 211.41629 115.998968 
L 211.629597 117.949935 
L 211.842905 112.097032 
L 212.056213 123.802839 
L 212.269521 125.753806 
L 212.482829 145.263484 
L 212.696137 151.116387 
L 212.909445 143.312516 
L 213.122752 147.214452 
L 213.33606 168.675097 
L 213.549368 143.312516 
L 213.762676 141.361548 
L 213.975984 137.459613 
L 214.189292 137.459613 
L 214.402599 133.557677 
L 214.615907 135.508645 
L 214.829215 145.263484 
L 215.042523 141.361548 
L 215.895754 168.675097 
L 216.109062 162.822194 
L 216.32237 162.822194 
L 216.535678 160.871226 
L 216.748986 160.871226 
L 216.962294 170.626065 
L 217.388909 160.871226 
L 217.815525 155.018323 
L 218.028833 135.508645 
L 218.242141 141.361548 
L 218.668756 141.361548 
L 218.882064 133.557677 
L 219.095372 131.60671 
L 219.521988 115.998968 
L 219.735296 151.116387 
L 219.948604 158.920258 
L 220.161911 172.577032 
L 220.588527 151.116387 
L 220.801835 158.920258 
L 221.015143 199.890581 
L 221.228451 188.184774 
L 221.441758 197.939613 
L 221.655066 190.135742 
L 221.868374 195.988645 
L 222.081682 194.037677 
L 222.29499 188.184774 
L 222.721606 170.626065 
L 222.934913 170.626065 
L 223.148221 166.724129 
L 223.574837 180.380903 
L 223.788145 174.528 
L 224.21476 184.282839 
L 224.428068 188.184774 
L 224.641376 176.478968 
L 224.854684 192.08671 
L 225.2813 192.08671 
L 225.707915 225.253161 
L 225.921223 221.351226 
L 226.347839 188.184774 
L 226.561147 166.724129 
L 226.774455 160.871226 
L 226.987763 151.116387 
L 227.414378 180.380903 
L 227.627686 176.478968 
L 227.840994 180.380903 
L 228.054302 174.528 
L 228.26761 190.135742 
L 228.480917 194.037677 
L 228.694225 205.743484 
L 228.907533 207.694452 
L 229.120841 184.282839 
L 229.547457 197.939613 
L 229.760765 213.547355 
L 229.974072 219.400258 
L 230.18738 217.44929 
L 230.400688 209.645419 
L 230.613996 194.037677 
L 230.827304 192.08671 
L 231.040612 192.08671 
L 231.253919 182.331871 
L 231.467227 192.08671 
L 231.680535 190.135742 
L 231.893843 201.841548 
L 232.107151 203.792516 
L 232.320459 203.792516 
L 232.533767 213.547355 
L 232.747074 180.380903 
L 232.960382 184.282839 
L 233.17369 180.380903 
L 233.386998 182.331871 
L 233.813614 188.184774 
L 234.240229 170.626065 
L 234.666845 162.822194 
L 235.093461 182.331871 
L 235.520076 176.478968 
L 235.733384 190.135742 
L 235.946692 195.988645 
L 236.16 190.135742 
L 236.373308 199.890581 
L 236.586616 192.08671 
L 236.799924 203.792516 
L 237.226539 188.184774 
L 237.439847 199.890581 
L 237.653155 170.626065 
L 238.079771 209.645419 
L 238.506386 188.184774 
L 238.719694 188.184774 
L 238.933002 194.037677 
L 239.14631 242.811871 
L 239.359618 242.811871 
L 239.572926 238.909935 
L 239.786233 227.204129 
L 239.999541 235.008 
L 240.212849 213.547355 
L 240.426157 217.44929 
L 240.639465 217.44929 
L 240.852773 190.135742 
L 241.066081 203.792516 
L 241.279388 209.645419 
L 241.492696 209.645419 
L 241.706004 199.890581 
L 241.919312 197.939613 
L 242.13262 219.400258 
L 242.345928 188.184774 
L 242.559235 182.331871 
L 242.772543 180.380903 
L 243.412467 151.116387 
L 243.839083 143.312516 
L 244.05239 133.557677 
L 244.265698 137.459613 
L 244.479006 137.459613 
L 244.692314 133.557677 
L 244.905622 153.067355 
L 245.11893 151.116387 
L 245.332237 176.478968 
L 245.545545 178.429935 
L 245.758853 178.429935 
L 245.972161 168.675097 
L 246.398777 192.08671 
L 246.612085 197.939613 
L 246.825392 194.037677 
L 247.0387 174.528 
L 247.252008 166.724129 
L 247.465316 180.380903 
L 247.678624 182.331871 
L 248.318547 205.743484 
L 248.531855 203.792516 
L 248.745163 205.743484 
L 248.958471 194.037677 
L 249.171779 197.939613 
L 249.598394 182.331871 
L 249.811702 186.233806 
L 250.238318 166.724129 
L 250.664934 176.478968 
L 250.878242 160.871226 
L 251.091549 162.822194 
L 251.304857 155.018323 
L 251.518165 153.067355 
L 251.731473 160.871226 
L 251.944781 155.018323 
L 252.158089 153.067355 
L 253.224628 135.508645 
L 253.437936 155.018323 
L 253.651244 160.871226 
L 253.864551 153.067355 
L 254.077859 155.018323 
L 254.291167 151.116387 
L 254.504475 162.822194 
L 254.717783 155.018323 
L 254.931091 162.822194 
L 255.144399 164.773161 
L 255.357706 158.920258 
L 255.571014 147.214452 
L 255.784322 184.282839 
L 255.99763 180.380903 
L 256.210938 180.380903 
L 256.637553 170.626065 
L 256.850861 197.939613 
L 257.064169 199.890581 
L 257.277477 174.528 
L 257.490785 176.478968 
L 257.704093 166.724129 
L 257.917401 170.626065 
L 258.130708 153.067355 
L 258.344016 156.96929 
L 258.770632 182.331871 
L 258.98394 174.528 
L 259.197248 174.528 
L 259.410555 182.331871 
L 259.623863 182.331871 
L 260.050479 205.743484 
L 260.263787 203.792516 
L 260.477095 231.106065 
L 260.690403 238.909935 
L 260.90371 236.958968 
L 261.330326 213.547355 
L 261.543634 217.44929 
L 261.756942 213.547355 
L 262.183558 213.547355 
L 262.396865 219.400258 
L 262.610173 213.547355 
L 262.823481 225.253161 
L 263.036789 211.596387 
L 263.250097 229.155097 
L 263.463405 233.057032 
L 263.676712 223.302194 
L 263.89002 225.253161 
L 264.316636 207.694452 
L 264.743252 223.302194 
L 264.95656 201.841548 
L 265.169867 203.792516 
L 265.383175 199.890581 
L 265.596483 219.400258 
L 265.809791 201.841548 
L 266.023099 209.645419 
L 266.236407 188.184774 
L 266.449714 188.184774 
L 266.663022 162.822194 
L 266.87633 158.920258 
L 267.089638 133.557677 
L 267.729562 149.165419 
L 268.156177 178.429935 
L 268.369485 194.037677 
L 268.582793 180.380903 
L 268.796101 182.331871 
L 269.009409 188.184774 
L 269.222717 176.478968 
L 269.436024 174.528 
L 269.649332 178.429935 
L 269.86264 172.577032 
L 270.075948 174.528 
L 270.289256 188.184774 
L 270.929179 158.920258 
L 271.569103 178.429935 
L 271.782411 166.724129 
L 271.995719 164.773161 
L 272.209026 164.773161 
L 272.422334 160.871226 
L 272.635642 162.822194 
L 272.84895 166.724129 
L 273.062258 135.508645 
L 273.275566 135.508645 
L 273.488873 137.459613 
L 273.702181 143.312516 
L 273.915489 141.361548 
L 274.128797 137.459613 
L 274.342105 145.263484 
L 274.768721 127.704774 
L 274.982028 125.753806 
L 275.195336 125.753806 
L 275.408644 119.900903 
L 275.621952 104.293161 
L 275.83526 110.146065 
L 276.048568 106.244129 
L 276.261876 114.048 
L 276.475183 147.214452 
L 276.688491 143.312516 
L 277.115107 129.655742 
L 277.541723 147.214452 
L 277.75503 143.312516 
L 277.968338 121.851871 
L 278.181646 112.097032 
L 278.394954 129.655742 
L 278.608262 131.60671 
L 278.82157 141.361548 
L 279.248185 141.361548 
L 279.461493 155.018323 
L 279.888109 137.459613 
L 280.101417 151.116387 
L 280.314725 151.116387 
L 280.528032 149.165419 
L 280.74134 153.067355 
L 280.954648 143.312516 
L 281.381264 170.626065 
L 281.594572 166.724129 
L 281.80788 168.675097 
L 282.021187 178.429935 
L 282.234495 172.577032 
L 282.447803 188.184774 
L 282.661111 184.282839 
L 282.874419 190.135742 
L 283.087727 180.380903 
L 283.301035 160.871226 
L 283.72765 174.528 
L 283.940958 176.478968 
L 284.154266 197.939613 
L 284.580882 194.037677 
L 284.794189 188.184774 
L 285.220805 194.037677 
L 285.434113 190.135742 
L 285.647421 192.08671 
L 285.860729 184.282839 
L 286.074037 182.331871 
L 286.500652 194.037677 
L 286.71396 182.331871 
L 287.140576 174.528 
L 287.353884 160.871226 
L 287.567191 166.724129 
L 287.780499 151.116387 
L 287.993807 155.018323 
L 288.207115 188.184774 
L 288.420423 192.08671 
L 288.633731 188.184774 
L 289.060346 194.037677 
L 289.273654 195.988645 
L 289.486962 213.547355 
L 289.70027 213.547355 
L 289.913578 184.282839 
L 290.126886 180.380903 
L 290.340194 164.773161 
L 290.553501 164.773161 
L 290.766809 155.018323 
L 290.980117 162.822194 
L 291.193425 143.312516 
L 291.620041 162.822194 
L 291.833348 153.067355 
L 292.046656 156.96929 
L 292.473272 186.233806 
L 292.68658 176.478968 
L 292.899888 186.233806 
L 293.113196 184.282839 
L 293.539811 184.282839 
L 293.753119 186.233806 
L 294.179735 176.478968 
L 294.393043 176.478968 
L 294.60635 194.037677 
L 294.819658 178.429935 
L 295.032966 195.988645 
L 295.246274 192.08671 
L 295.459582 174.528 
L 295.67289 186.233806 
L 295.886198 178.429935 
L 296.099505 201.841548 
L 296.312813 205.743484 
L 296.739429 219.400258 
L 297.166045 219.400258 
L 297.379353 217.44929 
L 297.805968 207.694452 
L 298.019276 213.547355 
L 298.445892 217.44929 
L 298.6592 223.302194 
L 299.085815 211.596387 
L 299.512431 223.302194 
L 299.725739 223.302194 
L 299.939047 201.841548 
L 300.152355 192.08671 
L 300.57897 192.08671 
L 300.792278 194.037677 
L 301.005586 201.841548 
L 301.218894 197.939613 
L 301.432202 227.204129 
L 301.645509 231.106065 
L 302.072125 217.44929 
L 302.285433 213.547355 
L 302.498741 225.253161 
L 302.712049 227.204129 
L 302.925357 227.204129 
L 303.138664 231.106065 
L 303.351972 213.547355 
L 303.56528 213.547355 
L 303.991896 209.645419 
L 304.205204 223.302194 
L 304.418512 229.155097 
L 304.631819 211.596387 
L 304.845127 221.351226 
L 305.058435 215.498323 
L 305.271743 225.253161 
L 305.485051 215.498323 
L 305.911666 233.057032 
L 306.55159 219.400258 
L 306.764898 223.302194 
L 306.978206 221.351226 
L 307.191514 213.547355 
L 307.404821 211.596387 
L 307.831437 217.44929 
L 308.258053 217.44929 
L 308.471361 223.302194 
L 308.684668 238.909935 
L 309.324592 219.400258 
L 309.5379 233.057032 
L 309.751208 231.106065 
L 309.964516 235.008 
L 310.177823 252.56671 
L 310.391131 233.057032 
L 310.604439 229.155097 
L 310.817747 229.155097 
L 311.244363 213.547355 
L 311.670978 217.44929 
L 311.884286 221.351226 
L 312.097594 221.351226 
L 312.310902 235.008 
L 312.52421 238.909935 
L 312.737518 233.057032 
L 312.950825 223.302194 
L 313.164133 223.302194 
L 313.590749 217.44929 
L 313.804057 215.498323 
L 314.44398 186.233806 
L 314.657288 197.939613 
L 314.870596 184.282839 
L 315.083904 180.380903 
L 315.297212 184.282839 
L 315.51052 182.331871 
L 315.937135 162.822194 
L 316.150443 160.871226 
L 316.363751 174.528 
L 316.577059 176.478968 
L 316.790367 180.380903 
L 317.003675 180.380903 
L 317.216982 188.184774 
L 317.43029 184.282839 
L 317.856906 205.743484 
L 318.283522 188.184774 
L 318.49683 194.037677 
L 318.710137 192.08671 
L 318.923445 192.08671 
L 319.350061 195.988645 
L 319.563369 201.841548 
L 319.989984 192.08671 
L 320.203292 166.724129 
L 320.4166 164.773161 
L 320.629908 164.773161 
L 320.843216 141.361548 
L 321.269832 147.214452 
L 321.483139 147.214452 
L 321.696447 145.263484 
L 321.909755 164.773161 
L 322.123063 162.822194 
L 322.336371 153.067355 
L 322.762987 176.478968 
L 322.976294 178.429935 
L 323.189602 176.478968 
L 323.40291 190.135742 
L 323.616218 190.135742 
L 323.829526 194.037677 
L 324.042834 209.645419 
L 324.256141 199.890581 
L 324.469449 197.939613 
L 324.682757 201.841548 
L 325.109373 170.626065 
L 325.535989 182.331871 
L 325.749296 182.331871 
L 325.962604 174.528 
L 326.175912 158.920258 
L 326.602528 180.380903 
L 326.815836 186.233806 
L 327.455759 219.400258 
L 327.669067 205.743484 
L 327.882375 215.498323 
L 328.095683 201.841548 
L 328.308991 209.645419 
L 328.948914 195.988645 
L 329.162222 168.675097 
L 329.37553 170.626065 
L 329.588838 170.626065 
L 329.802146 164.773161 
L 330.015453 178.429935 
L 330.228761 143.312516 
L 330.655377 153.067355 
L 330.868685 135.508645 
L 331.081993 145.263484 
L 331.2953 137.459613 
L 331.508608 139.410581 
L 331.721916 151.116387 
L 331.935224 149.165419 
L 332.148532 145.263484 
L 332.36184 153.067355 
L 332.575148 145.263484 
L 332.788455 162.822194 
L 333.001763 195.988645 
L 333.215071 194.037677 
L 333.428379 199.890581 
L 333.641687 219.400258 
L 333.854995 223.302194 
L 334.068302 184.282839 
L 334.708226 155.018323 
L 334.921534 158.920258 
L 335.134842 156.96929 
L 335.34815 164.773161 
L 335.561457 164.773161 
L 335.774765 153.067355 
L 335.988073 164.773161 
L 336.201381 164.773161 
L 336.414689 168.675097 
L 336.627997 151.116387 
L 336.841305 166.724129 
L 337.054612 166.724129 
L 337.26792 147.214452 
L 337.481228 145.263484 
L 337.694536 155.018323 
L 337.907844 153.067355 
L 338.547767 168.675097 
L 338.761075 186.233806 
L 339.187691 205.743484 
L 339.827614 186.233806 
L 340.040922 194.037677 
L 340.25423 190.135742 
L 340.467538 178.429935 
L 341.320769 223.302194 
L 341.534077 225.253161 
L 341.747385 219.400258 
L 341.960693 223.302194 
L 342.174001 219.400258 
L 342.387309 221.351226 
L 342.600616 219.400258 
L 342.813924 221.351226 
L 343.027232 240.860903 
L 343.24054 235.008 
L 343.453848 246.713806 
L 343.667156 250.615742 
L 343.880464 231.106065 
L 344.093771 233.057032 
L 344.307079 223.302194 
L 344.520387 227.204129 
L 344.947003 209.645419 
L 345.160311 225.253161 
L 345.373618 229.155097 
L 345.586926 219.400258 
L 345.800234 215.498323 
L 346.013542 217.44929 
L 346.440158 197.939613 
L 346.653466 188.184774 
L 346.866773 201.841548 
L 347.080081 205.743484 
L 347.506697 229.155097 
L 347.720005 225.253161 
L 348.14662 182.331871 
L 348.359928 184.282839 
L 348.573236 176.478968 
L 348.786544 178.429935 
L 348.999852 184.282839 
L 349.21316 203.792516 
L 349.426468 199.890581 
L 349.639775 203.792516 
L 349.853083 192.08671 
L 350.066391 194.037677 
L 350.279699 178.429935 
L 350.493007 176.478968 
L 350.706315 178.429935 
L 350.919623 178.429935 
L 351.13293 184.282839 
L 351.346238 170.626065 
L 351.559546 178.429935 
L 351.772854 180.380903 
L 351.986162 192.08671 
L 352.19947 180.380903 
L 352.412777 188.184774 
L 352.626085 186.233806 
L 352.839393 186.233806 
L 353.052701 209.645419 
L 353.266009 203.792516 
L 353.479317 194.037677 
L 353.905932 205.743484 
L 354.11924 207.694452 
L 354.332548 215.498323 
L 354.545856 192.08671 
L 354.759164 192.08671 
L 354.972472 190.135742 
L 355.612395 170.626065 
L 355.825703 168.675097 
L 356.039011 162.822194 
L 356.252319 162.822194 
L 356.465627 164.773161 
L 356.678934 178.429935 
L 356.892242 184.282839 
L 357.10555 197.939613 
L 357.532166 197.939613 
L 357.958782 192.08671 
L 358.172089 180.380903 
L 358.598705 174.528 
L 358.812013 174.528 
L 359.025321 158.920258 
L 359.238629 155.018323 
L 359.451936 160.871226 
L 359.665244 156.96929 
L 359.878552 176.478968 
L 360.09186 168.675097 
L 360.305168 176.478968 
L 360.518476 176.478968 
L 360.731784 160.871226 
L 360.945091 158.920258 
L 361.158399 168.675097 
L 361.371707 156.96929 
L 361.585015 158.920258 
L 361.798323 156.96929 
L 362.011631 158.920258 
L 362.224938 186.233806 
L 362.438246 188.184774 
L 362.864862 201.841548 
L 363.291478 207.694452 
L 363.504786 195.988645 
L 363.718093 201.841548 
L 363.931401 197.939613 
L 364.571325 231.106065 
L 364.784633 229.155097 
L 364.997941 250.615742 
L 365.211248 254.517677 
L 365.424556 248.664774 
L 365.637864 254.517677 
L 365.851172 254.517677 
L 366.06448 240.860903 
L 366.277788 242.811871 
L 366.491095 266.223484 
L 366.704403 246.713806 
L 367.131019 246.713806 
L 367.344327 244.762839 
L 367.770943 238.909935 
L 367.98425 236.958968 
L 368.197558 233.057032 
L 368.410866 221.351226 
L 368.624174 223.302194 
L 368.837482 221.351226 
L 369.05079 231.106065 
L 369.264097 229.155097 
L 369.690713 229.155097 
L 369.904021 225.253161 
L 370.330637 266.223484 
L 370.543945 275.978323 
L 370.757252 277.92929 
L 371.183868 274.027355 
L 371.397176 277.92929 
L 371.610484 289.635097 
L 371.823792 289.635097 
L 372.0371 281.831226 
L 372.250407 285.733161 
L 372.463715 281.831226 
L 372.677023 285.733161 
L 372.890331 274.027355 
L 373.103639 272.076387 
L 373.316947 254.517677 
L 373.530254 254.517677 
L 373.743562 252.56671 
L 374.170178 240.860903 
L 374.383486 240.860903 
L 374.596794 236.958968 
L 374.810102 246.713806 
L 375.236717 235.008 
L 375.876641 254.517677 
L 376.089949 252.56671 
L 376.303256 252.56671 
L 376.516564 236.958968 
L 376.94318 256.468645 
L 377.156488 266.223484 
L 377.369796 266.223484 
L 378.009719 256.468645 
L 378.223027 277.92929 
L 378.436335 274.027355 
L 378.649643 242.811871 
L 378.862951 252.56671 
L 379.076259 254.517677 
L 379.289566 258.419613 
L 379.502874 272.076387 
L 379.716182 262.321548 
L 379.92949 266.223484 
L 380.142798 260.370581 
L 380.356106 266.223484 
L 380.782721 258.419613 
L 380.996029 262.321548 
L 381.209337 258.419613 
L 381.422645 260.370581 
L 381.635953 274.027355 
L 381.849261 270.125419 
L 382.275876 274.027355 
L 382.489184 283.782194 
L 382.702492 283.782194 
L 383.129108 295.488 
L 383.555723 277.92929 
L 383.769031 274.027355 
L 383.982339 275.978323 
L 384.195647 275.978323 
L 384.408955 279.880258 
L 384.622263 262.321548 
L 384.83557 277.92929 
L 385.048878 270.125419 
L 385.262186 256.468645 
L 385.475494 229.155097 
L 385.90211 236.958968 
L 386.115418 246.713806 
L 386.542033 235.008 
L 386.755341 250.615742 
L 386.968649 246.713806 
L 387.181957 262.321548 
L 387.395265 260.370581 
L 387.608572 260.370581 
L 387.82188 256.468645 
L 388.035188 248.664774 
L 388.461804 260.370581 
L 388.675112 256.468645 
L 388.88842 246.713806 
L 389.101727 256.468645 
L 389.315035 250.615742 
L 389.528343 252.56671 
L 389.954959 264.272516 
L 390.168267 264.272516 
L 390.381574 252.56671 
L 390.594882 260.370581 
L 390.80819 258.419613 
L 391.234806 262.321548 
L 391.448114 256.468645 
L 391.661422 256.468645 
L 391.874729 262.321548 
L 392.088037 246.713806 
L 392.514653 236.958968 
L 392.727961 250.615742 
L 393.154577 240.860903 
L 393.367884 242.811871 
L 393.581192 227.204129 
L 393.7945 240.860903 
L 394.007808 262.321548 
L 394.221116 266.223484 
L 394.647731 260.370581 
L 394.861039 274.027355 
L 395.074347 264.272516 
L 395.287655 260.370581 
L 395.500963 246.713806 
L 395.927579 266.223484 
L 396.140886 252.56671 
L 396.354194 252.56671 
L 396.567502 264.272516 
L 396.78081 264.272516 
L 397.207426 250.615742 
L 397.420733 248.664774 
L 397.634041 233.057032 
L 397.847349 227.204129 
L 398.060657 225.253161 
L 398.273965 229.155097 
L 398.487273 229.155097 
L 398.487273 229.155097 
" clip-path="url(#p9ddc1be74a)" style="fill: none; stroke: #1f77b4; stroke-width: 1.5; stroke-linecap: square"/>
   </g>
   <g id="patch_3">
    <path d="M 57.6 307.584 
L 57.6 41.472 
" style="fill: none; stroke: #000000; stroke-width: 0.8; stroke-linejoin: miter; stroke-linecap: square"/>
   </g>
   <g id="patch_4">
    <path d="M 414.72 307.584 
L 414.72 41.472 
" style="fill: none; stroke: #000000; stroke-width: 0.8; stroke-linejoin: miter; stroke-linecap: square"/>
   </g>
   <g id="patch_5">
    <path d="M 57.6 307.584 
L 414.72 307.584 
" style="fill: none; stroke: #000000; stroke-width: 0.8; stroke-linejoin: miter; stroke-linecap: square"/>
   </g>
   <g id="patch_6">
    <path d="M 57.6 41.472 
L 414.72 41.472 
" style="fill: none; stroke: #000000; stroke-width: 0.8; stroke-linejoin: miter; stroke-linecap: square"/>
   </g>
   <g id="text_16">
    <!-- Simulated Anealling Cost -->
    <g transform="translate(160.8 35.472)scale(0.12 -0.12)">
     <defs>
      <path id="DejaVuSans-53" d="M 3425 4513 
L 3425 3897 
Q 3066 4069 2747 4153 
Q 2428 4238 2131 4238 
Q 1616 4238 1336 4038 
Q 1056 3838 1056 3469 
Q 1056 3159 1242 3001 
Q 1428 2844 1947 2747 
L 2328 2669 
Q 3034 2534 3370 2195 
Q 3706 1856 3706 1288 
Q 3706 609 3251 259 
Q 2797 -91 1919 -91 
Q 1588 -91 1214 -16 
Q 841 59 441 206 
L 441 856 
Q 825 641 1194 531 
Q 1563 422 1919 422 
Q 2459 422 2753 634 
Q 3047 847 3047 1241 
Q 3047 1584 2836 1778 
Q 2625 1972 2144 2069 
L 1759 2144 
Q 1053 2284 737 2584 
Q 422 2884 422 3419 
Q 422 4038 858 4394 
Q 1294 4750 2059 4750 
Q 2388 4750 2728 4690 
Q 3069 4631 3425 4513 
z
" transform="scale(0.015625)"/>
      <path id="DejaVuSans-69" d="M 603 3500 
L 1178 3500 
L 1178 0 
L 603 0 
L 603 3500 
z
M 603 4863 
L 1178 4863 
L 1178 4134 
L 603 4134 
L 603 4863 
z
" transform="scale(0.015625)"/>
      <path id="DejaVuSans-65" d="M 3597 1894 
L 3597 1613 
L 953 1613 
Q 991 1019 1311 708 
Q 1631 397 2203 397 
Q 2534 397 2845 478 
Q 3156 559 3463 722 
L 3463 178 
Q 3153 47 2828 -22 
Q 2503 -91 2169 -91 
Q 1331 -91 842 396 
Q 353 884 353 1716 
Q 353 2575 817 3079 
Q 1281 3584 2069 3584 
Q 2775 3584 3186 3129 
Q 3597 2675 3597 1894 
z
M 3022 2063 
Q 3016 2534 2758 2815 
Q 2500 3097 2075 3097 
Q 1594 3097 1305 2825 
Q 1016 2553 972 2059 
L 3022 2063 
z
" transform="scale(0.015625)"/>
      <path id="DejaVuSans-64" d="M 2906 2969 
L 2906 4863 
L 3481 4863 
L 3481 0 
L 2906 0 
L 2906 525 
Q 2725 213 2448 61 
Q 2172 -91 1784 -91 
Q 1150 -91 751 415 
Q 353 922 353 1747 
Q 353 2572 751 3078 
Q 1150 3584 1784 3584 
Q 2172 3584 2448 3432 
Q 2725 3281 2906 2969 
z
M 947 1747 
Q 947 1113 1208 752 
Q 1469 391 1925 391 
Q 2381 391 2643 752 
Q 2906 1113 2906 1747 
Q 2906 2381 2643 2742 
Q 2381 3103 1925 3103 
Q 1469 3103 1208 2742 
Q 947 2381 947 1747 
z
" transform="scale(0.015625)"/>
      <path id="DejaVuSans-41" d="M 2188 4044 
L 1331 1722 
L 3047 1722 
L 2188 4044 
z
M 1831 4666 
L 2547 4666 
L 4325 0 
L 3669 0 
L 3244 1197 
L 1141 1197 
L 716 0 
L 50 0 
L 1831 4666 
z
" transform="scale(0.015625)"/>
      <path id="DejaVuSans-67" d="M 2906 1791 
Q 2906 2416 2648 2759 
Q 2391 3103 1925 3103 
Q 1463 3103 1205 2759 
Q 947 2416 947 1791 
Q 947 1169 1205 825 
Q 1463 481 1925 481 
Q 2391 481 2648 825 
Q 2906 1169 2906 1791 
z
M 3481 434 
Q 3481 -459 3084 -895 
Q 2688 -1331 1869 -1331 
Q 1566 -1331 1297 -1286 
Q 1028 -1241 775 -1147 
L 775 -588 
Q 1028 -725 1275 -790 
Q 1522 -856 1778 -856 
Q 2344 -856 2625 -561 
Q 2906 -266 2906 331 
L 2906 616 
Q 2728 306 2450 153 
Q 2172 0 1784 0 
Q 1141 0 747 490 
Q 353 981 353 1791 
Q 353 2603 747 3093 
Q 1141 3584 1784 3584 
Q 2172 3584 2450 3431 
Q 2728 3278 2906 2969 
L 2906 3500 
L 3481 3500 
L 3481 434 
z
" transform="scale(0.015625)"/>
      <path id="DejaVuSans-43" d="M 4122 4306 
L 4122 3641 
Q 3803 3938 3442 4084 
Q 3081 4231 2675 4231 
Q 1875 4231 1450 3742 
Q 1025 3253 1025 2328 
Q 1025 1406 1450 917 
Q 1875 428 2675 428 
Q 3081 428 3442 575 
Q 3803 722 4122 1019 
L 4122 359 
Q 3791 134 3420 21 
Q 3050 -91 2638 -91 
Q 1578 -91 968 557 
Q 359 1206 359 2328 
Q 359 3453 968 4101 
Q 1578 4750 2638 4750 
Q 3056 4750 3426 4639 
Q 3797 4528 4122 4306 
z
" transform="scale(0.015625)"/>
     </defs>
     <use xlink:href="#DejaVuSans-53"/>
     <use xlink:href="#DejaVuSans-69" x="63.476562"/>
     <use xlink:href="#DejaVuSans-6d" x="91.259766"/>
     <use xlink:href="#DejaVuSans-75" x="188.671875"/>
     <use xlink:href="#DejaVuSans-6c" x="252.050781"/>
     <use xlink:href="#DejaVuSans-61" x="279.833984"/>
     <use xlink:href="#DejaVuSans-74" x="341.113281"/>
     <use xlink:href="#DejaVuSans-65" x="380.322266"/>
     <use xlink:href="#DejaVuSans-64" x="441.845703"/>
     <use xlink:href="#DejaVuSans-20" x="505.322266"/>
     <use xlink:href="#DejaVuSans-41" x="537.109375"/>
     <use xlink:href="#DejaVuSans-6e" x="605.517578"/>
     <use xlink:href="#DejaVuSans-65" x="668.896484"/>
     <use xlink:href="#DejaVuSans-61" x="730.419922"/>
     <use xlink:href="#DejaVuSans-6c" x="791.699219"/>
     <use xlink:href="#DejaVuSans-6c" x="819.482422"/>
     <use xlink:href="#DejaVuSans-69" x="847.265625"/>
     <use xlink:href="#DejaVuSans-6e" x="875.048828"/>
     <use xlink:href="#DejaVuSans-67" x="938.427734"/>
     <use xlink:href="#DejaVuSans-20" x="1001.904297"/>
     <use xlink:href="#DejaVuSans-43" x="1033.691406"/>
     <use xlink:href="#DejaVuSans-6f" x="1103.515625"/>
     <use xlink:href="#DejaVuSans-73" x="1164.697266"/>
     <use xlink:href="#DejaVuSans-74" x="1216.796875"/>
    </g>
   </g>
  </g>
 </g>
 <defs>
  <clipPath id="p9ddc1be74a">
   <rect x="57.6" y="41.472" width="357.12" height="266.112"/>
  </clipPath>
 </defs>
</svg>
