<?xml version="1.0" encoding="utf-8" standalone="no"?>
<!DOCTYPE svg PUBLIC "-//W3C//DTD SVG 1.1//EN"
  "http://www.w3.org/Graphics/SVG/1.1/DTD/svg11.dtd">
<svg xmlns:xlink="http://www.w3.org/1999/xlink" width="460.8pt" height="345.6pt" viewBox="0 0 460.8 345.6" xmlns="http://www.w3.org/2000/svg" version="1.1">
 <metadata>
  <rdf:RDF xmlns:dc="http://purl.org/dc/elements/1.1/" xmlns:cc="http://creativecommons.org/ns#" xmlns:rdf="http://www.w3.org/1999/02/22-rdf-syntax-ns#">
   <cc:Work>
    <dc:type rdf:resource="http://purl.org/dc/dcmitype/StillImage"/>
    <dc:date>2022-06-01T08:04:46.810353</dc:date>
    <dc:format>image/svg+xml</dc:format>
    <dc:creator>
     <cc:Agent>
      <dc:title>Matplotlib v3.5.1, https://matplotlib.org/</dc:title>
     </cc:Agent>
    </dc:creator>
   </cc:Work>
  </rdf:RDF>
 </metadata>
 <defs>
  <style type="text/css">*{stroke-linejoin: round; stroke-linecap: butt}</style>
 </defs>
 <g id="figure_1">
  <g id="patch_1">
   <path d="M 0 345.6 
L 460.8 345.6 
L 460.8 0 
L 0 0 
z
" style="fill: #ffffff"/>
  </g>
  <g id="axes_1">
   <g id="patch_2">
    <path d="M 57.6 307.584 
L 414.72 307.584 
L 414.72 41.472 
L 57.6 41.472 
z
" style="fill: #ffffff"/>
   </g>
   <g id="matplotlib.axis_1">
    <g id="xtick_1">
     <g id="line2d_1">
      <defs>
       <path id="m5d1a85c5d9" d="M 0 0 
L 0 3.5 
" style="stroke: #000000; stroke-width: 0.8"/>
      </defs>
      <g>
       <use xlink:href="#m5d1a85c5d9" x="73.832727" y="307.584" style="stroke: #000000; stroke-width: 0.8"/>
      </g>
     </g>
     <g id="text_1">
      <!-- 0 -->
      <g transform="translate(70.651477 322.182437)scale(0.1 -0.1)">
       <defs>
        <path id="DejaVuSans-30" d="M 2034 4250 
Q 1547 4250 1301 3770 
Q 1056 3291 1056 2328 
Q 1056 1369 1301 889 
Q 1547 409 2034 409 
Q 2525 409 2770 889 
Q 3016 1369 3016 2328 
Q 3016 3291 2770 3770 
Q 2525 4250 2034 4250 
z
M 2034 4750 
Q 2819 4750 3233 4129 
Q 3647 3509 3647 2328 
Q 3647 1150 3233 529 
Q 2819 -91 2034 -91 
Q 1250 -91 836 529 
Q 422 1150 422 2328 
Q 422 3509 836 4129 
Q 1250 4750 2034 4750 
z
" transform="scale(0.015625)"/>
       </defs>
       <use xlink:href="#DejaVuSans-30"/>
      </g>
     </g>
    </g>
    <g id="xtick_2">
     <g id="line2d_2">
      <g>
       <use xlink:href="#m5d1a85c5d9" x="126.433917" y="307.584" style="stroke: #000000; stroke-width: 0.8"/>
      </g>
     </g>
     <g id="text_2">
      <!-- 500 -->
      <g transform="translate(116.890167 322.182437)scale(0.1 -0.1)">
       <defs>
        <path id="DejaVuSans-35" d="M 691 4666 
L 3169 4666 
L 3169 4134 
L 1269 4134 
L 1269 2991 
Q 1406 3038 1543 3061 
Q 1681 3084 1819 3084 
Q 2600 3084 3056 2656 
Q 3513 2228 3513 1497 
Q 3513 744 3044 326 
Q 2575 -91 1722 -91 
Q 1428 -91 1123 -41 
Q 819 9 494 109 
L 494 744 
Q 775 591 1075 516 
Q 1375 441 1709 441 
Q 2250 441 2565 725 
Q 2881 1009 2881 1497 
Q 2881 1984 2565 2268 
Q 2250 2553 1709 2553 
Q 1456 2553 1204 2497 
Q 953 2441 691 2322 
L 691 4666 
z
" transform="scale(0.015625)"/>
       </defs>
       <use xlink:href="#DejaVuSans-35"/>
       <use xlink:href="#DejaVuSans-30" x="63.623047"/>
       <use xlink:href="#DejaVuSans-30" x="127.246094"/>
      </g>
     </g>
    </g>
    <g id="xtick_3">
     <g id="line2d_3">
      <g>
       <use xlink:href="#m5d1a85c5d9" x="179.035108" y="307.584" style="stroke: #000000; stroke-width: 0.8"/>
      </g>
     </g>
     <g id="text_3">
      <!-- 1000 -->
      <g transform="translate(166.310108 322.182437)scale(0.1 -0.1)">
       <defs>
        <path id="DejaVuSans-31" d="M 794 531 
L 1825 531 
L 1825 4091 
L 703 3866 
L 703 4441 
L 1819 4666 
L 2450 4666 
L 2450 531 
L 3481 531 
L 3481 0 
L 794 0 
L 794 531 
z
" transform="scale(0.015625)"/>
       </defs>
       <use xlink:href="#DejaVuSans-31"/>
       <use xlink:href="#DejaVuSans-30" x="63.623047"/>
       <use xlink:href="#DejaVuSans-30" x="127.246094"/>
       <use xlink:href="#DejaVuSans-30" x="190.869141"/>
      </g>
     </g>
    </g>
    <g id="xtick_4">
     <g id="line2d_4">
      <g>
       <use xlink:href="#m5d1a85c5d9" x="231.636298" y="307.584" style="stroke: #000000; stroke-width: 0.8"/>
      </g>
     </g>
     <g id="text_4">
      <!-- 1500 -->
      <g transform="translate(218.911298 322.182437)scale(0.1 -0.1)">
       <use xlink:href="#DejaVuSans-31"/>
       <use xlink:href="#DejaVuSans-35" x="63.623047"/>
       <use xlink:href="#DejaVuSans-30" x="127.246094"/>
       <use xlink:href="#DejaVuSans-30" x="190.869141"/>
      </g>
     </g>
    </g>
    <g id="xtick_5">
     <g id="line2d_5">
      <g>
       <use xlink:href="#m5d1a85c5d9" x="284.237488" y="307.584" style="stroke: #000000; stroke-width: 0.8"/>
      </g>
     </g>
     <g id="text_5">
      <!-- 2000 -->
      <g transform="translate(271.512488 322.182437)scale(0.1 -0.1)">
       <defs>
        <path id="DejaVuSans-32" d="M 1228 531 
L 3431 531 
L 3431 0 
L 469 0 
L 469 531 
Q 828 903 1448 1529 
Q 2069 2156 2228 2338 
Q 2531 2678 2651 2914 
Q 2772 3150 2772 3378 
Q 2772 3750 2511 3984 
Q 2250 4219 1831 4219 
Q 1534 4219 1204 4116 
Q 875 4013 500 3803 
L 500 4441 
Q 881 4594 1212 4672 
Q 1544 4750 1819 4750 
Q 2544 4750 2975 4387 
Q 3406 4025 3406 3419 
Q 3406 3131 3298 2873 
Q 3191 2616 2906 2266 
Q 2828 2175 2409 1742 
Q 1991 1309 1228 531 
z
" transform="scale(0.015625)"/>
       </defs>
       <use xlink:href="#DejaVuSans-32"/>
       <use xlink:href="#DejaVuSans-30" x="63.623047"/>
       <use xlink:href="#DejaVuSans-30" x="127.246094"/>
       <use xlink:href="#DejaVuSans-30" x="190.869141"/>
      </g>
     </g>
    </g>
    <g id="xtick_6">
     <g id="line2d_6">
      <g>
       <use xlink:href="#m5d1a85c5d9" x="336.838678" y="307.584" style="stroke: #000000; stroke-width: 0.8"/>
      </g>
     </g>
     <g id="text_6">
      <!-- 2500 -->
      <g transform="translate(324.113678 322.182437)scale(0.1 -0.1)">
       <use xlink:href="#DejaVuSans-32"/>
       <use xlink:href="#DejaVuSans-35" x="63.623047"/>
       <use xlink:href="#DejaVuSans-30" x="127.246094"/>
       <use xlink:href="#DejaVuSans-30" x="190.869141"/>
      </g>
     </g>
    </g>
    <g id="xtick_7">
     <g id="line2d_7">
      <g>
       <use xlink:href="#m5d1a85c5d9" x="389.439868" y="307.584" style="stroke: #000000; stroke-width: 0.8"/>
      </g>
     </g>
     <g id="text_7">
      <!-- 3000 -->
      <g transform="translate(376.714868 322.182437)scale(0.1 -0.1)">
       <defs>
        <path id="DejaVuSans-33" d="M 2597 2516 
Q 3050 2419 3304 2112 
Q 3559 1806 3559 1356 
Q 3559 666 3084 287 
Q 2609 -91 1734 -91 
Q 1441 -91 1130 -33 
Q 819 25 488 141 
L 488 750 
Q 750 597 1062 519 
Q 1375 441 1716 441 
Q 2309 441 2620 675 
Q 2931 909 2931 1356 
Q 2931 1769 2642 2001 
Q 2353 2234 1838 2234 
L 1294 2234 
L 1294 2753 
L 1863 2753 
Q 2328 2753 2575 2939 
Q 2822 3125 2822 3475 
Q 2822 3834 2567 4026 
Q 2313 4219 1838 4219 
Q 1578 4219 1281 4162 
Q 984 4106 628 3988 
L 628 4550 
Q 988 4650 1302 4700 
Q 1616 4750 1894 4750 
Q 2613 4750 3031 4423 
Q 3450 4097 3450 3541 
Q 3450 3153 3228 2886 
Q 3006 2619 2597 2516 
z
" transform="scale(0.015625)"/>
       </defs>
       <use xlink:href="#DejaVuSans-33"/>
       <use xlink:href="#DejaVuSans-30" x="63.623047"/>
       <use xlink:href="#DejaVuSans-30" x="127.246094"/>
       <use xlink:href="#DejaVuSans-30" x="190.869141"/>
      </g>
     </g>
    </g>
    <g id="text_8">
     <!-- num swaps -->
     <g transform="translate(207.826406 335.860562)scale(0.1 -0.1)">
      <defs>
       <path id="DejaVuSans-6e" d="M 3513 2113 
L 3513 0 
L 2938 0 
L 2938 2094 
Q 2938 2591 2744 2837 
Q 2550 3084 2163 3084 
Q 1697 3084 1428 2787 
Q 1159 2491 1159 1978 
L 1159 0 
L 581 0 
L 581 3500 
L 1159 3500 
L 1159 2956 
Q 1366 3272 1645 3428 
Q 1925 3584 2291 3584 
Q 2894 3584 3203 3211 
Q 3513 2838 3513 2113 
z
" transform="scale(0.015625)"/>
       <path id="DejaVuSans-75" d="M 544 1381 
L 544 3500 
L 1119 3500 
L 1119 1403 
Q 1119 906 1312 657 
Q 1506 409 1894 409 
Q 2359 409 2629 706 
Q 2900 1003 2900 1516 
L 2900 3500 
L 3475 3500 
L 3475 0 
L 2900 0 
L 2900 538 
Q 2691 219 2414 64 
Q 2138 -91 1772 -91 
Q 1169 -91 856 284 
Q 544 659 544 1381 
z
M 1991 3584 
L 1991 3584 
z
" transform="scale(0.015625)"/>
       <path id="DejaVuSans-6d" d="M 3328 2828 
Q 3544 3216 3844 3400 
Q 4144 3584 4550 3584 
Q 5097 3584 5394 3201 
Q 5691 2819 5691 2113 
L 5691 0 
L 5113 0 
L 5113 2094 
Q 5113 2597 4934 2840 
Q 4756 3084 4391 3084 
Q 3944 3084 3684 2787 
Q 3425 2491 3425 1978 
L 3425 0 
L 2847 0 
L 2847 2094 
Q 2847 2600 2669 2842 
Q 2491 3084 2119 3084 
Q 1678 3084 1418 2786 
Q 1159 2488 1159 1978 
L 1159 0 
L 581 0 
L 581 3500 
L 1159 3500 
L 1159 2956 
Q 1356 3278 1631 3431 
Q 1906 3584 2284 3584 
Q 2666 3584 2933 3390 
Q 3200 3197 3328 2828 
z
" transform="scale(0.015625)"/>
       <path id="DejaVuSans-20" transform="scale(0.015625)"/>
       <path id="DejaVuSans-73" d="M 2834 3397 
L 2834 2853 
Q 2591 2978 2328 3040 
Q 2066 3103 1784 3103 
Q 1356 3103 1142 2972 
Q 928 2841 928 2578 
Q 928 2378 1081 2264 
Q 1234 2150 1697 2047 
L 1894 2003 
Q 2506 1872 2764 1633 
Q 3022 1394 3022 966 
Q 3022 478 2636 193 
Q 2250 -91 1575 -91 
Q 1294 -91 989 -36 
Q 684 19 347 128 
L 347 722 
Q 666 556 975 473 
Q 1284 391 1588 391 
Q 1994 391 2212 530 
Q 2431 669 2431 922 
Q 2431 1156 2273 1281 
Q 2116 1406 1581 1522 
L 1381 1569 
Q 847 1681 609 1914 
Q 372 2147 372 2553 
Q 372 3047 722 3315 
Q 1072 3584 1716 3584 
Q 2034 3584 2315 3537 
Q 2597 3491 2834 3397 
z
" transform="scale(0.015625)"/>
       <path id="DejaVuSans-77" d="M 269 3500 
L 844 3500 
L 1563 769 
L 2278 3500 
L 2956 3500 
L 3675 769 
L 4391 3500 
L 4966 3500 
L 4050 0 
L 3372 0 
L 2619 2869 
L 1863 0 
L 1184 0 
L 269 3500 
z
" transform="scale(0.015625)"/>
       <path id="DejaVuSans-61" d="M 2194 1759 
Q 1497 1759 1228 1600 
Q 959 1441 959 1056 
Q 959 750 1161 570 
Q 1363 391 1709 391 
Q 2188 391 2477 730 
Q 2766 1069 2766 1631 
L 2766 1759 
L 2194 1759 
z
M 3341 1997 
L 3341 0 
L 2766 0 
L 2766 531 
Q 2569 213 2275 61 
Q 1981 -91 1556 -91 
Q 1019 -91 701 211 
Q 384 513 384 1019 
Q 384 1609 779 1909 
Q 1175 2209 1959 2209 
L 2766 2209 
L 2766 2266 
Q 2766 2663 2505 2880 
Q 2244 3097 1772 3097 
Q 1472 3097 1187 3025 
Q 903 2953 641 2809 
L 641 3341 
Q 956 3463 1253 3523 
Q 1550 3584 1831 3584 
Q 2591 3584 2966 3190 
Q 3341 2797 3341 1997 
z
" transform="scale(0.015625)"/>
       <path id="DejaVuSans-70" d="M 1159 525 
L 1159 -1331 
L 581 -1331 
L 581 3500 
L 1159 3500 
L 1159 2969 
Q 1341 3281 1617 3432 
Q 1894 3584 2278 3584 
Q 2916 3584 3314 3078 
Q 3713 2572 3713 1747 
Q 3713 922 3314 415 
Q 2916 -91 2278 -91 
Q 1894 -91 1617 61 
Q 1341 213 1159 525 
z
M 3116 1747 
Q 3116 2381 2855 2742 
Q 2594 3103 2138 3103 
Q 1681 3103 1420 2742 
Q 1159 2381 1159 1747 
Q 1159 1113 1420 752 
Q 1681 391 2138 391 
Q 2594 391 2855 752 
Q 3116 1113 3116 1747 
z
" transform="scale(0.015625)"/>
      </defs>
      <use xlink:href="#DejaVuSans-6e"/>
      <use xlink:href="#DejaVuSans-75" x="63.378906"/>
      <use xlink:href="#DejaVuSans-6d" x="126.757812"/>
      <use xlink:href="#DejaVuSans-20" x="224.169922"/>
      <use xlink:href="#DejaVuSans-73" x="255.957031"/>
      <use xlink:href="#DejaVuSans-77" x="308.056641"/>
      <use xlink:href="#DejaVuSans-61" x="389.84375"/>
      <use xlink:href="#DejaVuSans-70" x="451.123047"/>
      <use xlink:href="#DejaVuSans-73" x="514.599609"/>
     </g>
    </g>
   </g>
   <g id="matplotlib.axis_2">
    <g id="ytick_1">
     <g id="line2d_8">
      <defs>
       <path id="mfb193b3fd3" d="M 0 0 
L -3.5 0 
" style="stroke: #000000; stroke-width: 0.8"/>
      </defs>
      <g>
       <use xlink:href="#mfb193b3fd3" x="57.6" y="301.536" style="stroke: #000000; stroke-width: 0.8"/>
      </g>
     </g>
     <g id="text_9">
      <!-- 330 -->
      <g transform="translate(31.5125 305.335219)scale(0.1 -0.1)">
       <use xlink:href="#DejaVuSans-33"/>
       <use xlink:href="#DejaVuSans-33" x="63.623047"/>
       <use xlink:href="#DejaVuSans-30" x="127.246094"/>
      </g>
     </g>
    </g>
    <g id="ytick_2">
     <g id="line2d_9">
      <g>
       <use xlink:href="#mfb193b3fd3" x="57.6" y="271.296" style="stroke: #000000; stroke-width: 0.8"/>
      </g>
     </g>
     <g id="text_10">
      <!-- 340 -->
      <g transform="translate(31.5125 275.095219)scale(0.1 -0.1)">
       <defs>
        <path id="DejaVuSans-34" d="M 2419 4116 
L 825 1625 
L 2419 1625 
L 2419 4116 
z
M 2253 4666 
L 3047 4666 
L 3047 1625 
L 3713 1625 
L 3713 1100 
L 3047 1100 
L 3047 0 
L 2419 0 
L 2419 1100 
L 313 1100 
L 313 1709 
L 2253 4666 
z
" transform="scale(0.015625)"/>
       </defs>
       <use xlink:href="#DejaVuSans-33"/>
       <use xlink:href="#DejaVuSans-34" x="63.623047"/>
       <use xlink:href="#DejaVuSans-30" x="127.246094"/>
      </g>
     </g>
    </g>
    <g id="ytick_3">
     <g id="line2d_10">
      <g>
       <use xlink:href="#mfb193b3fd3" x="57.6" y="241.056" style="stroke: #000000; stroke-width: 0.8"/>
      </g>
     </g>
     <g id="text_11">
      <!-- 350 -->
      <g transform="translate(31.5125 244.855219)scale(0.1 -0.1)">
       <use xlink:href="#DejaVuSans-33"/>
       <use xlink:href="#DejaVuSans-35" x="63.623047"/>
       <use xlink:href="#DejaVuSans-30" x="127.246094"/>
      </g>
     </g>
    </g>
    <g id="ytick_4">
     <g id="line2d_11">
      <g>
       <use xlink:href="#mfb193b3fd3" x="57.6" y="210.816" style="stroke: #000000; stroke-width: 0.8"/>
      </g>
     </g>
     <g id="text_12">
      <!-- 360 -->
      <g transform="translate(31.5125 214.615219)scale(0.1 -0.1)">
       <defs>
        <path id="DejaVuSans-36" d="M 2113 2584 
Q 1688 2584 1439 2293 
Q 1191 2003 1191 1497 
Q 1191 994 1439 701 
Q 1688 409 2113 409 
Q 2538 409 2786 701 
Q 3034 994 3034 1497 
Q 3034 2003 2786 2293 
Q 2538 2584 2113 2584 
z
M 3366 4563 
L 3366 3988 
Q 3128 4100 2886 4159 
Q 2644 4219 2406 4219 
Q 1781 4219 1451 3797 
Q 1122 3375 1075 2522 
Q 1259 2794 1537 2939 
Q 1816 3084 2150 3084 
Q 2853 3084 3261 2657 
Q 3669 2231 3669 1497 
Q 3669 778 3244 343 
Q 2819 -91 2113 -91 
Q 1303 -91 875 529 
Q 447 1150 447 2328 
Q 447 3434 972 4092 
Q 1497 4750 2381 4750 
Q 2619 4750 2861 4703 
Q 3103 4656 3366 4563 
z
" transform="scale(0.015625)"/>
       </defs>
       <use xlink:href="#DejaVuSans-33"/>
       <use xlink:href="#DejaVuSans-36" x="63.623047"/>
       <use xlink:href="#DejaVuSans-30" x="127.246094"/>
      </g>
     </g>
    </g>
    <g id="ytick_5">
     <g id="line2d_12">
      <g>
       <use xlink:href="#mfb193b3fd3" x="57.6" y="180.576" style="stroke: #000000; stroke-width: 0.8"/>
      </g>
     </g>
     <g id="text_13">
      <!-- 370 -->
      <g transform="translate(31.5125 184.375219)scale(0.1 -0.1)">
       <defs>
        <path id="DejaVuSans-37" d="M 525 4666 
L 3525 4666 
L 3525 4397 
L 1831 0 
L 1172 0 
L 2766 4134 
L 525 4134 
L 525 4666 
z
" transform="scale(0.015625)"/>
       </defs>
       <use xlink:href="#DejaVuSans-33"/>
       <use xlink:href="#DejaVuSans-37" x="63.623047"/>
       <use xlink:href="#DejaVuSans-30" x="127.246094"/>
      </g>
     </g>
    </g>
    <g id="ytick_6">
     <g id="line2d_13">
      <g>
       <use xlink:href="#mfb193b3fd3" x="57.6" y="150.336" style="stroke: #000000; stroke-width: 0.8"/>
      </g>
     </g>
     <g id="text_14">
      <!-- 380 -->
      <g transform="translate(31.5125 154.135219)scale(0.1 -0.1)">
       <defs>
        <path id="DejaVuSans-38" d="M 2034 2216 
Q 1584 2216 1326 1975 
Q 1069 1734 1069 1313 
Q 1069 891 1326 650 
Q 1584 409 2034 409 
Q 2484 409 2743 651 
Q 3003 894 3003 1313 
Q 3003 1734 2745 1975 
Q 2488 2216 2034 2216 
z
M 1403 2484 
Q 997 2584 770 2862 
Q 544 3141 544 3541 
Q 544 4100 942 4425 
Q 1341 4750 2034 4750 
Q 2731 4750 3128 4425 
Q 3525 4100 3525 3541 
Q 3525 3141 3298 2862 
Q 3072 2584 2669 2484 
Q 3125 2378 3379 2068 
Q 3634 1759 3634 1313 
Q 3634 634 3220 271 
Q 2806 -91 2034 -91 
Q 1263 -91 848 271 
Q 434 634 434 1313 
Q 434 1759 690 2068 
Q 947 2378 1403 2484 
z
M 1172 3481 
Q 1172 3119 1398 2916 
Q 1625 2713 2034 2713 
Q 2441 2713 2670 2916 
Q 2900 3119 2900 3481 
Q 2900 3844 2670 4047 
Q 2441 4250 2034 4250 
Q 1625 4250 1398 4047 
Q 1172 3844 1172 3481 
z
" transform="scale(0.015625)"/>
       </defs>
       <use xlink:href="#DejaVuSans-33"/>
       <use xlink:href="#DejaVuSans-38" x="63.623047"/>
       <use xlink:href="#DejaVuSans-30" x="127.246094"/>
      </g>
     </g>
    </g>
    <g id="ytick_7">
     <g id="line2d_14">
      <g>
       <use xlink:href="#mfb193b3fd3" x="57.6" y="120.096" style="stroke: #000000; stroke-width: 0.8"/>
      </g>
     </g>
     <g id="text_15">
      <!-- 390 -->
      <g transform="translate(31.5125 123.895219)scale(0.1 -0.1)">
       <defs>
        <path id="DejaVuSans-39" d="M 703 97 
L 703 672 
Q 941 559 1184 500 
Q 1428 441 1663 441 
Q 2288 441 2617 861 
Q 2947 1281 2994 2138 
Q 2813 1869 2534 1725 
Q 2256 1581 1919 1581 
Q 1219 1581 811 2004 
Q 403 2428 403 3163 
Q 403 3881 828 4315 
Q 1253 4750 1959 4750 
Q 2769 4750 3195 4129 
Q 3622 3509 3622 2328 
Q 3622 1225 3098 567 
Q 2575 -91 1691 -91 
Q 1453 -91 1209 -44 
Q 966 3 703 97 
z
M 1959 2075 
Q 2384 2075 2632 2365 
Q 2881 2656 2881 3163 
Q 2881 3666 2632 3958 
Q 2384 4250 1959 4250 
Q 1534 4250 1286 3958 
Q 1038 3666 1038 3163 
Q 1038 2656 1286 2365 
Q 1534 2075 1959 2075 
z
" transform="scale(0.015625)"/>
       </defs>
       <use xlink:href="#DejaVuSans-33"/>
       <use xlink:href="#DejaVuSans-39" x="63.623047"/>
       <use xlink:href="#DejaVuSans-30" x="127.246094"/>
      </g>
     </g>
    </g>
    <g id="ytick_8">
     <g id="line2d_15">
      <g>
       <use xlink:href="#mfb193b3fd3" x="57.6" y="89.856" style="stroke: #000000; stroke-width: 0.8"/>
      </g>
     </g>
     <g id="text_16">
      <!-- 400 -->
      <g transform="translate(31.5125 93.655219)scale(0.1 -0.1)">
       <use xlink:href="#DejaVuSans-34"/>
       <use xlink:href="#DejaVuSans-30" x="63.623047"/>
       <use xlink:href="#DejaVuSans-30" x="127.246094"/>
      </g>
     </g>
    </g>
    <g id="ytick_9">
     <g id="line2d_16">
      <g>
       <use xlink:href="#mfb193b3fd3" x="57.6" y="59.616" style="stroke: #000000; stroke-width: 0.8"/>
      </g>
     </g>
     <g id="text_17">
      <!-- 410 -->
      <g transform="translate(31.5125 63.415219)scale(0.1 -0.1)">
       <use xlink:href="#DejaVuSans-34"/>
       <use xlink:href="#DejaVuSans-31" x="63.623047"/>
       <use xlink:href="#DejaVuSans-30" x="127.246094"/>
      </g>
     </g>
    </g>
    <g id="text_18">
     <!-- total cost -->
     <g transform="translate(25.432812 197.923313)rotate(-90)scale(0.1 -0.1)">
      <defs>
       <path id="DejaVuSans-74" d="M 1172 4494 
L 1172 3500 
L 2356 3500 
L 2356 3053 
L 1172 3053 
L 1172 1153 
Q 1172 725 1289 603 
Q 1406 481 1766 481 
L 2356 481 
L 2356 0 
L 1766 0 
Q 1100 0 847 248 
Q 594 497 594 1153 
L 594 3053 
L 172 3053 
L 172 3500 
L 594 3500 
L 594 4494 
L 1172 4494 
z
" transform="scale(0.015625)"/>
       <path id="DejaVuSans-6f" d="M 1959 3097 
Q 1497 3097 1228 2736 
Q 959 2375 959 1747 
Q 959 1119 1226 758 
Q 1494 397 1959 397 
Q 2419 397 2687 759 
Q 2956 1122 2956 1747 
Q 2956 2369 2687 2733 
Q 2419 3097 1959 3097 
z
M 1959 3584 
Q 2709 3584 3137 3096 
Q 3566 2609 3566 1747 
Q 3566 888 3137 398 
Q 2709 -91 1959 -91 
Q 1206 -91 779 398 
Q 353 888 353 1747 
Q 353 2609 779 3096 
Q 1206 3584 1959 3584 
z
" transform="scale(0.015625)"/>
       <path id="DejaVuSans-6c" d="M 603 4863 
L 1178 4863 
L 1178 0 
L 603 0 
L 603 4863 
z
" transform="scale(0.015625)"/>
       <path id="DejaVuSans-63" d="M 3122 3366 
L 3122 2828 
Q 2878 2963 2633 3030 
Q 2388 3097 2138 3097 
Q 1578 3097 1268 2742 
Q 959 2388 959 1747 
Q 959 1106 1268 751 
Q 1578 397 2138 397 
Q 2388 397 2633 464 
Q 2878 531 3122 666 
L 3122 134 
Q 2881 22 2623 -34 
Q 2366 -91 2075 -91 
Q 1284 -91 818 406 
Q 353 903 353 1747 
Q 353 2603 823 3093 
Q 1294 3584 2113 3584 
Q 2378 3584 2631 3529 
Q 2884 3475 3122 3366 
z
" transform="scale(0.015625)"/>
      </defs>
      <use xlink:href="#DejaVuSans-74"/>
      <use xlink:href="#DejaVuSans-6f" x="39.208984"/>
      <use xlink:href="#DejaVuSans-74" x="100.390625"/>
      <use xlink:href="#DejaVuSans-61" x="139.599609"/>
      <use xlink:href="#DejaVuSans-6c" x="200.878906"/>
      <use xlink:href="#DejaVuSans-20" x="228.662109"/>
      <use xlink:href="#DejaVuSans-63" x="260.449219"/>
      <use xlink:href="#DejaVuSans-6f" x="315.429688"/>
      <use xlink:href="#DejaVuSans-73" x="376.611328"/>
      <use xlink:href="#DejaVuSans-74" x="428.710938"/>
     </g>
    </g>
   </g>
   <g id="line2d_17">
    <path d="M 73.832727 89.856 
L 74.043132 59.616 
L 74.253537 68.688 
L 74.463942 92.88 
L 74.674346 95.904 
L 74.884751 95.904 
L 75.095156 135.216 
L 75.305561 111.024 
L 75.515965 108 
L 75.936775 117.072 
L 76.14718 132.192 
L 76.357584 123.12 
L 76.567989 138.24 
L 76.778394 144.288 
L 76.988799 144.288 
L 77.199203 168.48 
L 77.409608 150.336 
L 77.620013 165.456 
L 77.830418 162.432 
L 78.040822 177.552 
L 78.251227 177.552 
L 78.461632 174.528 
L 78.882442 186.624 
L 79.092846 180.576 
L 79.303251 165.456 
L 79.513656 174.528 
L 79.724061 177.552 
L 80.14487 138.24 
L 80.355275 147.312 
L 80.56568 135.216 
L 80.776084 150.336 
L 80.986489 126.144 
L 81.196894 120.096 
L 81.407299 141.264 
L 81.617703 144.288 
L 81.828108 126.144 
L 82.038513 129.168 
L 82.248918 117.072 
L 82.459322 129.168 
L 82.669727 108 
L 82.880132 108 
L 83.090537 92.88 
L 83.511346 138.24 
L 83.721751 123.12 
L 83.932156 117.072 
L 84.56337 65.664 
L 84.98418 104.976 
L 85.194584 101.952 
L 85.404989 120.096 
L 85.615394 117.072 
L 85.825799 141.264 
L 86.036203 141.264 
L 86.877822 98.928 
L 87.088227 98.928 
L 87.509037 108 
L 87.719441 101.952 
L 87.929846 117.072 
L 88.140251 117.072 
L 88.350656 129.168 
L 88.561061 129.168 
L 88.98187 114.048 
L 89.192275 123.12 
L 89.40268 138.24 
L 90.033894 104.976 
L 90.244299 104.976 
L 90.875513 138.24 
L 91.085918 162.432 
L 91.296322 138.24 
L 91.506727 144.288 
L 91.717132 159.408 
L 91.927537 162.432 
L 92.137941 159.408 
L 92.348346 147.312 
L 92.558751 165.456 
L 93.40037 141.264 
L 93.82118 141.264 
L 94.452394 126.144 
L 94.662799 98.928 
L 95.083608 108 
L 95.294013 135.216 
L 95.504418 144.288 
L 95.925227 132.192 
L 96.135632 159.408 
L 96.346037 159.408 
L 96.556441 150.336 
L 96.766846 147.312 
L 96.977251 135.216 
L 97.187656 138.24 
L 97.39806 138.24 
L 97.608465 141.264 
L 97.81887 135.216 
L 98.029275 144.288 
L 98.239679 168.48 
L 98.450084 168.48 
L 98.660489 159.408 
L 98.870894 156.384 
L 99.081299 159.408 
L 99.291703 168.48 
L 99.502108 168.48 
L 99.712513 183.6 
L 99.922918 189.648 
L 100.133322 177.552 
L 100.343727 177.552 
L 100.764537 123.12 
L 100.974941 120.096 
L 101.395751 156.384 
L 101.606156 129.168 
L 101.81656 117.072 
L 102.026965 123.12 
L 102.23737 120.096 
L 102.447775 120.096 
L 102.658179 111.024 
L 103.078989 117.072 
L 103.289394 126.144 
L 103.499799 108 
L 103.710203 101.952 
L 103.920608 123.12 
L 104.131013 120.096 
L 104.341418 120.096 
L 104.551822 144.288 
L 104.762227 144.288 
L 104.972632 147.312 
L 105.183037 141.264 
L 105.603846 192.672 
L 105.814251 201.744 
L 106.024656 231.984 
L 106.23506 222.912 
L 106.866275 259.2 
L 107.076679 262.224 
L 107.497489 231.984 
L 107.707894 228.96 
L 107.918298 219.888 
L 108.128703 219.888 
L 108.339108 231.984 
L 108.549513 207.792 
L 108.759918 219.888 
L 108.970322 210.816 
L 109.180727 210.816 
L 109.811941 132.192 
L 110.022346 117.072 
L 110.232751 135.216 
L 110.443156 138.24 
L 110.65356 132.192 
L 111.07437 114.048 
L 111.284775 117.072 
L 111.495179 114.048 
L 112.126394 92.88 
L 112.336798 95.904 
L 112.757608 111.024 
L 113.178417 98.928 
L 113.388822 104.976 
L 113.599227 95.904 
L 113.809632 92.88 
L 114.020037 80.784 
L 114.440846 101.952 
L 114.651251 123.12 
L 114.861656 108 
L 115.07206 111.024 
L 115.282465 123.12 
L 115.49287 126.144 
L 115.703275 138.24 
L 115.913679 141.264 
L 116.124084 132.192 
L 116.334489 117.072 
L 116.544894 123.12 
L 116.755298 104.976 
L 116.965703 98.928 
L 117.176108 65.664 
L 117.386513 74.736 
L 117.596917 74.736 
L 117.807322 68.688 
L 118.017727 83.808 
L 118.228132 89.856 
L 118.438536 123.12 
L 118.648941 129.168 
L 118.859346 123.12 
L 119.069751 111.024 
L 119.280156 111.024 
L 119.49056 108 
L 119.700965 111.024 
L 119.91137 168.48 
L 120.121775 165.456 
L 120.332179 156.384 
L 120.542584 156.384 
L 120.752989 159.408 
L 120.963394 147.312 
L 121.384203 165.456 
L 121.594608 135.216 
L 121.805013 147.312 
L 122.015417 147.312 
L 122.225822 150.336 
L 122.436227 98.928 
L 122.646632 77.76 
L 122.857036 86.832 
L 123.067441 83.808 
L 123.277846 108 
L 123.488251 86.832 
L 123.698656 89.856 
L 123.90906 68.688 
L 124.119465 71.712 
L 124.32987 71.712 
L 124.750679 77.76 
L 124.961084 86.832 
L 125.171489 120.096 
L 125.802703 129.168 
L 126.013108 147.312 
L 126.223513 153.36 
L 126.433917 144.288 
L 126.854727 162.432 
L 127.065132 165.456 
L 127.485941 147.312 
L 127.696346 150.336 
L 127.906751 138.24 
L 128.117155 135.216 
L 128.537965 123.12 
L 128.74837 132.192 
L 128.958775 150.336 
L 129.169179 153.36 
L 129.379584 162.432 
L 129.589989 135.216 
L 129.800394 141.264 
L 130.221203 168.48 
L 130.431608 150.336 
L 130.852417 174.528 
L 131.062822 183.6 
L 131.273227 180.576 
L 131.483632 186.624 
L 131.694036 210.816 
L 132.114846 159.408 
L 132.535655 225.936 
L 132.74606 207.792 
L 132.956465 210.816 
L 133.16687 198.72 
L 133.377274 195.696 
L 133.587679 210.816 
L 133.798084 204.768 
L 134.008489 216.864 
L 134.218894 210.816 
L 134.639703 186.624 
L 134.850108 180.576 
L 135.060513 189.648 
L 135.270917 186.624 
L 135.481322 186.624 
L 135.691727 189.648 
L 135.902132 198.72 
L 136.112536 186.624 
L 136.322941 183.6 
L 136.533346 195.696 
L 136.743751 177.552 
L 136.954155 180.576 
L 137.16456 195.696 
L 137.58537 153.36 
L 137.795774 156.384 
L 138.006179 165.456 
L 138.426989 147.312 
L 138.847798 141.264 
L 139.058203 126.144 
L 139.268608 126.144 
L 139.479013 135.216 
L 139.689417 132.192 
L 140.110227 159.408 
L 140.320632 162.432 
L 140.951846 180.576 
L 141.162251 168.48 
L 141.372655 111.024 
L 141.793465 95.904 
L 142.00387 101.952 
L 142.214274 92.88 
L 142.424679 114.048 
L 142.635084 86.832 
L 142.845489 98.928 
L 143.266298 98.928 
L 143.476703 108 
L 143.687108 92.88 
L 143.897513 95.904 
L 144.107917 111.024 
L 144.318322 101.952 
L 144.739132 138.24 
L 144.949536 135.216 
L 145.159941 156.384 
L 145.370346 159.408 
L 145.580751 180.576 
L 145.791155 183.6 
L 146.00156 177.552 
L 146.211965 162.432 
L 146.42237 162.432 
L 146.632774 153.36 
L 147.053584 174.528 
L 147.263989 177.552 
L 147.474393 186.624 
L 147.684798 153.36 
L 147.895203 138.24 
L 148.105608 135.216 
L 148.316012 141.264 
L 148.526417 174.528 
L 148.736822 153.36 
L 148.947227 165.456 
L 149.157632 162.432 
L 149.368036 150.336 
L 149.578441 177.552 
L 149.788846 174.528 
L 149.999251 183.6 
L 150.209655 174.528 
L 150.42006 156.384 
L 150.630465 120.096 
L 150.84087 111.024 
L 151.051274 120.096 
L 151.261679 114.048 
L 151.472084 114.048 
L 151.682489 117.072 
L 151.892893 114.048 
L 152.103298 126.144 
L 152.313703 129.168 
L 152.524108 126.144 
L 152.734512 114.048 
L 152.944917 129.168 
L 153.365727 104.976 
L 153.576132 104.976 
L 153.786536 111.024 
L 153.996941 144.288 
L 154.207346 144.288 
L 154.417751 147.312 
L 154.628155 117.072 
L 154.83856 117.072 
L 155.048965 108 
L 155.25937 129.168 
L 155.469774 132.192 
L 155.680179 104.976 
L 155.890584 114.048 
L 156.100989 74.736 
L 156.311393 83.808 
L 156.521798 117.072 
L 156.732203 114.048 
L 156.942608 104.976 
L 157.153012 114.048 
L 157.363417 104.976 
L 157.784227 138.24 
L 157.994631 92.88 
L 158.205036 77.76 
L 158.415441 71.712 
L 158.625846 80.784 
L 158.836251 101.952 
L 159.046655 80.784 
L 159.467465 74.736 
L 159.67787 83.808 
L 159.888274 80.784 
L 160.098679 147.312 
L 160.309084 144.288 
L 160.519489 138.24 
L 160.729893 117.072 
L 160.940298 162.432 
L 161.150703 162.432 
L 161.361108 156.384 
L 161.571512 168.48 
L 161.781917 168.48 
L 162.202727 153.36 
L 162.413131 156.384 
L 162.623536 165.456 
L 162.833941 168.48 
L 163.044346 174.528 
L 163.25475 129.168 
L 163.67556 104.976 
L 163.885965 101.952 
L 164.09637 117.072 
L 164.306774 101.952 
L 164.517179 114.048 
L 164.727584 111.024 
L 164.937989 117.072 
L 165.148393 132.192 
L 165.358798 126.144 
L 165.569203 129.168 
L 165.779608 126.144 
L 165.990012 104.976 
L 166.410822 135.216 
L 166.831631 120.096 
L 167.042036 129.168 
L 167.462846 101.952 
L 167.67325 111.024 
L 167.883655 114.048 
L 168.09406 89.856 
L 168.514869 95.904 
L 168.725274 108 
L 168.935679 89.856 
L 169.146084 98.928 
L 169.356489 98.928 
L 169.566893 126.144 
L 169.777298 117.072 
L 170.198108 123.12 
L 170.408512 114.048 
L 170.618917 111.024 
L 170.829322 114.048 
L 171.039727 138.24 
L 171.250131 147.312 
L 171.460536 147.312 
L 171.670941 129.168 
L 172.09175 156.384 
L 172.302155 150.336 
L 172.51256 150.336 
L 172.722965 162.432 
L 172.933369 153.36 
L 173.143774 153.36 
L 173.354179 168.48 
L 173.564584 165.456 
L 173.985393 150.336 
L 174.195798 129.168 
L 174.406203 129.168 
L 174.616608 101.952 
L 174.827012 101.952 
L 175.037417 83.808 
L 175.247822 92.88 
L 175.458227 92.88 
L 175.668631 98.928 
L 175.879036 95.904 
L 176.089441 98.928 
L 176.51025 98.928 
L 176.93106 74.736 
L 177.141465 71.712 
L 177.351869 86.832 
L 177.562274 74.736 
L 177.772679 83.808 
L 177.983084 108 
L 178.193488 104.976 
L 178.403893 111.024 
L 178.614298 101.952 
L 178.824703 141.264 
L 179.035108 135.216 
L 179.245512 138.24 
L 179.455917 126.144 
L 179.666322 138.24 
L 179.876727 129.168 
L 180.087131 147.312 
L 180.297536 141.264 
L 180.507941 150.336 
L 180.718346 138.24 
L 180.92875 153.36 
L 181.770369 129.168 
L 181.980774 162.432 
L 182.401584 129.168 
L 182.611988 138.24 
L 182.822393 129.168 
L 183.032798 132.192 
L 183.243203 129.168 
L 183.453607 135.216 
L 183.664012 129.168 
L 184.084822 135.216 
L 184.295227 144.288 
L 184.716036 168.48 
L 184.926441 177.552 
L 185.136846 171.504 
L 185.34725 159.408 
L 185.557655 156.384 
L 185.76806 171.504 
L 185.978465 159.408 
L 186.188869 162.432 
L 186.399274 150.336 
L 186.609679 147.312 
L 186.820084 147.312 
L 187.030488 186.624 
L 187.240893 189.648 
L 187.451298 219.888 
L 187.661703 210.816 
L 187.872107 216.864 
L 188.082512 207.792 
L 188.292917 168.48 
L 188.713727 156.384 
L 188.924131 141.264 
L 189.134536 144.288 
L 189.344941 144.288 
L 189.555346 186.624 
L 189.76575 183.6 
L 189.976155 174.528 
L 190.18656 186.624 
L 190.396965 177.552 
L 190.607369 162.432 
L 190.817774 183.6 
L 191.028179 216.864 
L 191.238584 207.792 
L 191.448988 222.912 
L 191.659393 225.936 
L 191.869798 213.84 
L 192.080203 213.84 
L 192.290607 201.744 
L 192.501012 204.768 
L 192.711417 213.84 
L 192.921822 204.768 
L 193.132226 207.792 
L 193.553036 250.128 
L 193.763441 247.104 
L 193.973846 235.008 
L 194.18425 235.008 
L 194.394655 219.888 
L 194.60506 247.104 
L 195.025869 241.056 
L 195.446679 207.792 
L 195.657084 216.864 
L 195.867488 189.648 
L 196.077893 192.672 
L 196.498703 186.624 
L 196.709107 192.672 
L 196.919512 177.552 
L 197.340322 195.696 
L 197.550726 198.72 
L 197.761131 204.768 
L 198.181941 192.672 
L 198.60275 192.672 
L 199.444369 83.808 
L 199.654774 68.688 
L 199.865179 71.712 
L 200.075584 68.688 
L 200.285988 92.88 
L 200.706798 71.712 
L 200.917203 68.688 
L 201.127607 83.808 
L 201.548417 65.664 
L 201.758822 62.64 
L 201.969226 53.568 
L 202.179631 62.64 
L 202.390036 62.64 
L 202.600441 53.568 
L 202.810845 77.76 
L 203.02125 80.784 
L 203.231655 77.76 
L 203.44206 77.76 
L 203.652465 59.616 
L 203.862869 59.616 
L 204.073274 62.64 
L 204.283679 68.688 
L 204.704488 120.096 
L 204.914893 117.072 
L 205.125298 89.856 
L 205.335703 117.072 
L 205.966917 150.336 
L 206.177322 153.36 
L 206.387726 159.408 
L 206.598131 156.384 
L 206.808536 177.552 
L 207.018941 186.624 
L 207.229345 189.648 
L 207.43975 186.624 
L 207.650155 180.576 
L 207.86056 168.48 
L 208.070964 147.312 
L 208.281369 144.288 
L 208.491774 132.192 
L 208.912584 141.264 
L 209.122988 159.408 
L 209.333393 153.36 
L 209.543798 156.384 
L 209.754203 162.432 
L 209.964607 156.384 
L 210.175012 180.576 
L 210.385417 171.504 
L 210.595822 174.528 
L 210.806226 213.84 
L 211.016631 207.792 
L 211.227036 207.792 
L 211.437441 222.912 
L 211.647845 219.888 
L 211.85825 225.936 
L 212.068655 219.888 
L 212.27906 225.936 
L 212.489464 210.816 
L 212.699869 225.936 
L 212.910274 198.72 
L 213.120679 207.792 
L 213.541488 189.648 
L 213.962298 231.984 
L 214.172703 225.936 
L 214.383107 201.744 
L 214.593512 201.744 
L 215.224726 241.056 
L 215.435131 253.152 
L 215.645536 244.08 
L 216.066345 207.792 
L 216.27675 204.768 
L 216.487155 213.84 
L 216.69756 213.84 
L 216.907964 204.768 
L 217.118369 204.768 
L 217.539179 180.576 
L 217.749583 183.6 
L 218.170393 192.672 
L 218.380798 192.672 
L 218.591202 198.72 
L 218.801607 222.912 
L 219.012012 219.888 
L 219.432822 198.72 
L 219.853631 171.504 
L 220.69525 195.696 
L 221.326464 165.456 
L 221.747274 201.744 
L 222.168083 183.6 
L 222.378488 177.552 
L 222.588893 189.648 
L 222.799298 174.528 
L 223.009702 174.528 
L 223.220107 171.504 
L 223.430512 174.528 
L 223.851322 183.6 
L 224.272131 159.408 
L 224.482536 162.432 
L 224.692941 156.384 
L 225.53456 177.552 
L 225.744964 192.672 
L 225.955369 189.648 
L 226.165774 177.552 
L 226.586583 177.552 
L 227.007393 165.456 
L 227.428202 186.624 
L 227.638607 210.816 
L 227.849012 219.888 
L 228.059417 207.792 
L 228.690631 150.336 
L 228.901036 186.624 
L 229.111441 177.552 
L 229.321845 159.408 
L 229.53225 162.432 
L 229.95306 144.288 
L 230.163464 141.264 
L 230.373869 129.168 
L 230.584274 135.216 
L 230.794679 114.048 
L 231.005083 120.096 
L 231.425893 120.096 
L 231.636298 135.216 
L 232.057107 150.336 
L 232.267512 147.312 
L 232.477917 147.312 
L 232.688321 150.336 
L 232.898726 180.576 
L 233.109131 186.624 
L 233.52994 168.48 
L 233.740345 165.456 
L 234.161155 144.288 
L 234.37156 150.336 
L 234.581964 141.264 
L 235.002774 141.264 
L 235.213179 156.384 
L 235.423583 135.216 
L 235.633988 144.288 
L 235.844393 120.096 
L 236.265202 135.216 
L 236.686012 108 
L 237.106821 117.072 
L 237.317226 117.072 
L 237.527631 120.096 
L 237.738036 111.024 
L 237.94844 123.12 
L 238.158845 126.144 
L 238.36925 117.072 
L 238.579655 123.12 
L 238.79006 162.432 
L 239.000464 153.36 
L 239.210869 162.432 
L 239.421274 123.12 
L 239.631679 120.096 
L 240.052488 153.36 
L 240.473298 153.36 
L 240.683702 171.504 
L 240.894107 147.312 
L 241.104512 147.312 
L 241.314917 138.24 
L 241.525321 138.24 
L 241.735726 150.336 
L 241.946131 180.576 
L 242.156536 147.312 
L 242.36694 150.336 
L 242.577345 138.24 
L 242.78775 135.216 
L 242.998155 135.216 
L 243.418964 126.144 
L 243.629369 135.216 
L 243.839774 129.168 
L 244.050179 129.168 
L 244.260583 162.432 
L 244.470988 177.552 
L 244.681393 153.36 
L 244.891798 165.456 
L 245.102202 138.24 
L 245.312607 141.264 
L 245.523012 141.264 
L 245.943821 120.096 
L 246.154226 123.12 
L 246.364631 132.192 
L 246.575036 132.192 
L 246.78544 141.264 
L 246.995845 156.384 
L 247.20625 162.432 
L 247.416655 159.408 
L 247.627059 144.288 
L 247.837464 138.24 
L 248.047869 144.288 
L 248.258274 138.24 
L 248.468678 141.264 
L 248.679083 171.504 
L 248.889488 168.48 
L 249.099893 153.36 
L 249.310298 150.336 
L 249.520702 117.072 
L 249.731107 132.192 
L 249.941512 135.216 
L 250.151917 144.288 
L 250.362321 141.264 
L 250.572726 126.144 
L 250.783131 126.144 
L 251.414345 95.904 
L 251.62475 95.904 
L 251.835155 86.832 
L 252.045559 86.832 
L 252.255964 126.144 
L 252.466369 120.096 
L 252.676774 120.096 
L 252.887178 126.144 
L 253.097583 123.12 
L 253.307988 153.36 
L 253.518393 153.36 
L 253.728798 165.456 
L 253.939202 186.624 
L 254.149607 180.576 
L 254.360012 150.336 
L 254.780821 171.504 
L 254.991226 165.456 
L 255.201631 165.456 
L 255.412036 159.408 
L 255.832845 165.456 
L 256.04325 159.408 
L 256.253655 195.696 
L 256.464059 183.6 
L 256.674464 150.336 
L 256.884869 153.36 
L 257.305678 174.528 
L 257.726488 189.648 
L 258.147297 225.936 
L 258.357702 210.816 
L 258.568107 207.792 
L 258.778512 228.96 
L 258.988917 207.792 
L 259.199321 225.936 
L 259.409726 216.864 
L 259.620131 213.84 
L 259.830536 183.6 
L 260.04094 183.6 
L 260.46175 168.48 
L 260.672155 177.552 
L 260.882559 174.528 
L 261.092964 165.456 
L 261.303369 162.432 
L 261.513774 156.384 
L 261.724178 156.384 
L 261.934583 153.36 
L 262.144988 156.384 
L 262.355393 177.552 
L 262.565797 174.528 
L 263.197012 144.288 
L 263.407416 141.264 
L 263.617821 135.216 
L 263.828226 114.048 
L 264.038631 138.24 
L 264.249036 147.312 
L 264.45944 174.528 
L 264.88025 189.648 
L 265.090655 192.672 
L 265.301059 168.48 
L 265.511464 171.504 
L 265.721869 165.456 
L 265.932274 168.48 
L 266.142678 183.6 
L 266.353083 168.48 
L 266.563488 204.768 
L 266.773893 204.768 
L 266.984297 210.816 
L 267.194702 195.696 
L 267.405107 207.792 
L 267.615512 189.648 
L 267.825916 195.696 
L 268.246726 189.648 
L 268.457131 189.648 
L 268.667535 195.696 
L 268.87794 195.696 
L 269.29875 189.648 
L 269.509155 177.552 
L 269.719559 180.576 
L 270.140369 253.152 
L 270.350774 238.032 
L 270.561178 238.032 
L 270.771583 235.008 
L 270.981988 216.864 
L 271.192393 216.864 
L 271.402797 201.744 
L 271.613202 198.72 
L 271.823607 165.456 
L 272.244416 174.528 
L 272.454821 153.36 
L 272.665226 171.504 
L 272.875631 168.48 
L 273.086035 171.504 
L 273.29644 171.504 
L 273.506845 162.432 
L 273.71725 174.528 
L 274.138059 180.576 
L 274.348464 189.648 
L 274.769274 225.936 
L 274.979678 216.864 
L 275.190083 195.696 
L 275.400488 192.672 
L 275.821297 171.504 
L 276.031702 171.504 
L 276.452512 192.672 
L 276.662916 186.624 
L 277.083726 198.72 
L 277.294131 198.72 
L 277.504535 210.816 
L 277.71494 201.744 
L 277.925345 204.768 
L 278.13575 201.744 
L 278.556559 207.792 
L 278.766964 219.888 
L 278.977369 204.768 
L 279.187774 207.792 
L 279.398178 222.912 
L 279.608583 201.744 
L 279.818988 213.84 
L 280.029393 183.6 
L 280.239797 192.672 
L 280.450202 168.48 
L 280.660607 177.552 
L 280.871012 180.576 
L 281.081416 171.504 
L 281.291821 183.6 
L 281.502226 174.528 
L 281.923035 195.696 
L 282.13344 195.696 
L 282.55425 222.912 
L 282.764654 225.936 
L 282.975059 207.792 
L 283.185464 216.864 
L 283.395869 201.744 
L 283.816678 225.936 
L 284.237488 183.6 
L 284.658297 177.552 
L 284.868702 186.624 
L 285.079107 228.96 
L 285.289512 244.08 
L 285.710321 256.176 
L 285.920726 244.08 
L 286.131131 250.128 
L 286.341535 268.272 
L 286.55194 259.2 
L 286.762345 295.488 
L 286.97275 289.44 
L 287.393559 253.152 
L 287.603964 259.2 
L 287.814369 271.296 
L 288.445583 238.032 
L 288.655988 253.152 
L 288.866393 253.152 
L 289.287202 238.032 
L 289.497607 244.08 
L 289.708012 222.912 
L 290.128821 213.84 
L 290.339226 210.816 
L 290.549631 213.84 
L 290.760035 222.912 
L 290.97044 204.768 
L 291.180845 213.84 
L 291.39125 204.768 
L 291.601654 213.84 
L 292.022464 219.888 
L 292.232869 253.152 
L 292.443273 247.104 
L 292.864083 274.32 
L 293.074488 259.2 
L 293.284892 259.2 
L 293.495297 274.32 
L 293.705702 277.344 
L 293.916107 265.248 
L 294.126512 235.008 
L 294.547321 235.008 
L 294.757726 231.984 
L 294.968131 244.08 
L 295.178535 241.056 
L 295.38894 219.888 
L 295.599345 219.888 
L 295.80975 216.864 
L 296.020154 219.888 
L 296.230559 207.792 
L 296.651369 213.84 
L 296.861773 219.888 
L 297.282583 213.84 
L 297.703392 192.672 
L 297.913797 186.624 
L 298.334607 207.792 
L 298.545011 219.888 
L 298.755416 183.6 
L 298.965821 192.672 
L 299.176226 225.936 
L 299.597035 210.816 
L 299.80744 195.696 
L 300.017845 195.696 
L 300.22825 186.624 
L 300.649059 228.96 
L 300.859464 219.888 
L 301.280273 238.032 
L 301.490678 238.032 
L 301.701083 222.912 
L 301.911488 231.984 
L 302.121892 231.984 
L 302.332297 238.032 
L 302.753107 262.224 
L 302.963511 256.176 
L 303.173916 241.056 
L 303.594726 198.72 
L 303.805131 195.696 
L 304.015535 213.84 
L 304.22594 210.816 
L 304.436345 189.648 
L 304.857154 183.6 
L 305.067559 177.552 
L 305.277964 180.576 
L 305.698773 195.696 
L 305.909178 183.6 
L 306.119583 198.72 
L 306.329988 198.72 
L 306.540392 186.624 
L 306.750797 192.672 
L 306.961202 165.456 
L 307.171607 168.48 
L 307.382011 177.552 
L 307.592416 180.576 
L 308.013226 198.72 
L 308.22363 192.672 
L 308.434035 204.768 
L 308.64444 195.696 
L 308.854845 174.528 
L 309.06525 177.552 
L 309.275654 147.312 
L 309.486059 150.336 
L 309.696464 144.288 
L 309.906869 129.168 
L 310.117273 153.36 
L 310.538083 141.264 
L 310.958892 159.408 
L 311.169297 162.432 
L 311.379702 150.336 
L 311.590107 165.456 
L 311.800511 162.432 
L 312.010916 174.528 
L 312.221321 165.456 
L 312.431726 168.48 
L 312.64213 174.528 
L 312.852535 165.456 
L 313.06294 186.624 
L 313.273345 186.624 
L 313.483749 180.576 
L 313.694154 183.6 
L 313.904559 177.552 
L 314.114964 225.936 
L 314.325369 231.984 
L 314.535773 228.96 
L 315.166988 192.672 
L 315.377392 189.648 
L 315.587797 195.696 
L 315.798202 195.696 
L 316.008607 204.768 
L 316.219011 204.768 
L 316.429416 201.744 
L 316.639821 219.888 
L 316.850226 204.768 
L 317.271035 210.816 
L 317.48144 225.936 
L 318.323059 198.72 
L 318.533464 204.768 
L 318.743868 204.768 
L 318.954273 210.816 
L 319.164678 195.696 
L 319.375083 201.744 
L 319.585488 201.744 
L 319.795892 171.504 
L 320.006297 171.504 
L 320.427107 192.672 
L 320.637511 219.888 
L 321.058321 201.744 
L 321.268726 198.72 
L 321.47913 210.816 
L 321.689535 210.816 
L 322.110345 231.984 
L 322.320749 219.888 
L 322.531154 216.864 
L 322.741559 207.792 
L 323.162368 228.96 
L 323.372773 225.936 
L 323.793583 231.984 
L 324.214392 231.984 
L 324.424797 253.152 
L 324.635202 256.176 
L 324.845607 250.128 
L 325.056011 268.272 
L 325.476821 277.344 
L 325.687226 271.296 
L 325.89763 274.32 
L 326.108035 271.296 
L 326.31844 271.296 
L 326.528845 274.32 
L 326.949654 259.2 
L 327.160059 241.056 
L 327.580868 256.176 
L 327.791273 213.84 
L 328.001678 198.72 
L 328.212083 219.888 
L 328.422487 195.696 
L 328.632892 201.744 
L 328.843297 186.624 
L 329.264107 213.84 
L 329.474511 219.888 
L 329.684916 204.768 
L 329.895321 213.84 
L 330.105726 241.056 
L 330.31613 231.984 
L 330.526535 235.008 
L 330.73694 235.008 
L 330.947345 231.984 
L 331.157749 235.008 
L 331.788964 225.936 
L 331.999368 244.08 
L 332.209773 241.056 
L 332.420178 253.152 
L 333.051392 253.152 
L 333.472202 213.84 
L 333.682606 210.816 
L 333.893011 222.912 
L 334.103416 225.936 
L 334.313821 238.032 
L 335.15544 213.84 
L 335.365845 228.96 
L 335.576249 216.864 
L 335.786654 213.84 
L 335.997059 198.72 
L 336.207464 198.72 
L 336.417868 213.84 
L 336.628273 210.816 
L 336.838678 225.936 
L 337.049083 219.888 
L 337.259487 231.984 
L 337.680297 210.816 
L 337.890702 213.84 
L 338.101106 219.888 
L 338.311511 219.888 
L 338.521916 216.864 
L 338.732321 201.744 
L 338.942726 201.744 
L 339.15313 213.84 
L 339.363535 204.768 
L 339.57394 201.744 
L 339.784345 201.744 
L 339.994749 198.72 
L 340.205154 186.624 
L 340.415559 213.84 
L 340.625964 213.84 
L 340.836368 228.96 
L 341.046773 225.936 
L 341.257178 219.888 
L 341.467583 222.912 
L 342.730011 256.176 
L 342.940416 256.176 
L 343.150821 250.128 
L 343.361225 250.128 
L 343.57163 265.248 
L 343.782035 253.152 
L 343.99244 256.176 
L 344.413249 250.128 
L 344.623654 253.152 
L 345.044464 244.08 
L 345.254868 265.248 
L 345.465273 253.152 
L 345.675678 250.128 
L 345.886083 225.936 
L 346.096487 253.152 
L 346.306892 238.032 
L 346.938106 253.152 
L 347.148511 277.344 
L 347.358916 250.128 
L 347.569321 250.128 
L 347.779725 259.2 
L 347.99013 253.152 
L 348.41094 271.296 
L 348.621344 259.2 
L 348.831749 256.176 
L 349.042154 268.272 
L 349.462964 259.2 
L 349.673368 241.056 
L 349.883773 241.056 
L 350.304583 225.936 
L 350.514987 228.96 
L 350.725392 228.96 
L 350.935797 247.104 
L 351.146202 244.08 
L 351.567011 228.96 
L 351.777416 231.984 
L 351.987821 231.984 
L 352.198225 235.008 
L 352.40863 231.984 
L 352.619035 225.936 
L 352.82944 225.936 
L 353.039844 222.912 
L 353.250249 222.912 
L 353.460654 213.84 
L 353.671059 213.84 
L 353.881464 207.792 
L 354.091868 213.84 
L 354.302273 204.768 
L 354.512678 210.816 
L 354.933487 238.032 
L 355.143892 235.008 
L 355.354297 241.056 
L 355.564702 253.152 
L 355.775106 253.152 
L 355.985511 241.056 
L 356.195916 241.056 
L 356.616725 247.104 
L 356.82713 259.2 
L 357.24794 259.2 
L 357.668749 289.44 
L 357.879154 286.416 
L 358.089559 271.296 
L 358.510368 262.224 
L 358.720773 259.2 
L 359.141583 247.104 
L 359.351987 250.128 
L 359.562392 247.104 
L 359.772797 241.056 
L 359.983202 265.248 
L 360.404011 256.176 
L 360.614416 265.248 
L 361.456035 244.08 
L 361.66644 262.224 
L 361.876844 247.104 
L 362.087249 262.224 
L 362.508059 268.272 
L 362.928868 247.104 
L 363.139273 250.128 
L 363.770487 219.888 
L 363.980892 213.84 
L 364.191297 201.744 
L 364.401702 168.48 
L 364.822511 156.384 
L 365.032916 162.432 
L 365.243321 174.528 
L 365.453725 174.528 
L 365.66413 171.504 
L 365.874535 171.504 
L 366.295344 195.696 
L 366.505749 183.6 
L 366.716154 189.648 
L 366.926559 216.864 
L 367.136963 210.816 
L 367.347368 213.84 
L 367.768178 198.72 
L 367.978582 198.72 
L 368.188987 213.84 
L 368.399392 213.84 
L 369.030606 177.552 
L 369.241011 174.528 
L 369.661821 183.6 
L 369.872225 168.48 
L 370.08263 192.672 
L 370.293035 183.6 
L 370.713844 235.008 
L 370.924249 231.984 
L 371.134654 235.008 
L 371.345059 241.056 
L 371.555463 238.032 
L 371.765868 238.032 
L 371.976273 262.224 
L 372.186678 265.248 
L 372.397082 265.248 
L 372.607487 256.176 
L 372.817892 265.248 
L 373.028297 265.248 
L 373.238701 253.152 
L 373.449106 253.152 
L 373.869916 231.984 
L 374.080321 241.056 
L 375.132344 210.816 
L 375.342749 216.864 
L 375.553154 213.84 
L 375.973963 204.768 
L 376.184368 183.6 
L 376.394773 189.648 
L 376.605178 177.552 
L 376.815582 195.696 
L 377.025987 192.672 
L 377.236392 192.672 
L 377.446797 201.744 
L 377.657201 186.624 
L 377.867606 216.864 
L 378.078011 216.864 
L 378.49882 228.96 
L 378.709225 228.96 
L 378.91963 231.984 
L 379.130035 213.84 
L 379.34044 222.912 
L 379.761249 198.72 
L 379.971654 198.72 
L 380.182059 192.672 
L 380.392463 195.696 
L 380.813273 195.696 
L 381.444487 204.768 
L 381.654892 192.672 
L 381.865297 198.72 
L 382.286106 228.96 
L 382.496511 225.936 
L 382.706916 225.936 
L 382.91732 210.816 
L 383.127725 183.6 
L 383.548535 192.672 
L 383.758939 189.648 
L 384.390154 171.504 
L 384.600559 171.504 
L 384.810963 189.648 
L 385.021368 177.552 
L 385.231773 174.528 
L 385.442178 168.48 
L 385.862987 168.48 
L 386.283797 153.36 
L 386.494201 174.528 
L 386.704606 174.528 
L 387.125416 213.84 
L 387.33582 192.672 
L 387.546225 195.696 
L 387.75663 201.744 
L 388.177439 228.96 
L 388.387844 210.816 
L 388.808654 228.96 
L 389.019059 228.96 
L 389.229463 241.056 
L 389.860678 231.984 
L 390.071082 231.984 
L 390.491892 210.816 
L 390.702297 216.864 
L 390.912701 213.84 
L 391.123106 201.744 
L 391.543916 213.84 
L 391.75432 241.056 
L 391.964725 244.08 
L 392.17513 250.128 
L 392.385535 238.032 
L 392.595939 244.08 
L 392.806344 238.032 
L 393.016749 256.176 
L 393.227154 247.104 
L 393.437558 247.104 
L 393.858368 253.152 
L 394.068773 247.104 
L 394.279178 247.104 
L 394.489582 228.96 
L 394.699987 225.936 
L 394.910392 228.96 
L 395.120797 235.008 
L 395.331201 235.008 
L 395.541606 250.128 
L 395.752011 244.08 
L 395.962416 262.224 
L 396.17282 225.936 
L 396.383225 247.104 
L 396.59363 231.984 
L 397.014439 225.936 
L 397.645654 195.696 
L 397.856058 198.72 
L 398.276868 216.864 
L 398.487273 222.912 
L 398.487273 222.912 
" clip-path="url(#p3303785b58)" style="fill: none; stroke: #1f77b4; stroke-width: 1.5; stroke-linecap: square"/>
   </g>
   <g id="patch_3">
    <path d="M 57.6 307.584 
L 57.6 41.472 
" style="fill: none; stroke: #000000; stroke-width: 0.8; stroke-linejoin: miter; stroke-linecap: square"/>
   </g>
   <g id="patch_4">
    <path d="M 414.72 307.584 
L 414.72 41.472 
" style="fill: none; stroke: #000000; stroke-width: 0.8; stroke-linejoin: miter; stroke-linecap: square"/>
   </g>
   <g id="patch_5">
    <path d="M 57.6 307.584 
L 414.72 307.584 
" style="fill: none; stroke: #000000; stroke-width: 0.8; stroke-linejoin: miter; stroke-linecap: square"/>
   </g>
   <g id="patch_6">
    <path d="M 57.6 41.472 
L 414.72 41.472 
" style="fill: none; stroke: #000000; stroke-width: 0.8; stroke-linejoin: miter; stroke-linecap: square"/>
   </g>
   <g id="text_19">
    <!-- Simulated Anealling Cost -->
    <g transform="translate(160.8 35.472)scale(0.12 -0.12)">
     <defs>
      <path id="DejaVuSans-53" d="M 3425 4513 
L 3425 3897 
Q 3066 4069 2747 4153 
Q 2428 4238 2131 4238 
Q 1616 4238 1336 4038 
Q 1056 3838 1056 3469 
Q 1056 3159 1242 3001 
Q 1428 2844 1947 2747 
L 2328 2669 
Q 3034 2534 3370 2195 
Q 3706 1856 3706 1288 
Q 3706 609 3251 259 
Q 2797 -91 1919 -91 
Q 1588 -91 1214 -16 
Q 841 59 441 206 
L 441 856 
Q 825 641 1194 531 
Q 1563 422 1919 422 
Q 2459 422 2753 634 
Q 3047 847 3047 1241 
Q 3047 1584 2836 1778 
Q 2625 1972 2144 2069 
L 1759 2144 
Q 1053 2284 737 2584 
Q 422 2884 422 3419 
Q 422 4038 858 4394 
Q 1294 4750 2059 4750 
Q 2388 4750 2728 4690 
Q 3069 4631 3425 4513 
z
" transform="scale(0.015625)"/>
      <path id="DejaVuSans-69" d="M 603 3500 
L 1178 3500 
L 1178 0 
L 603 0 
L 603 3500 
z
M 603 4863 
L 1178 4863 
L 1178 4134 
L 603 4134 
L 603 4863 
z
" transform="scale(0.015625)"/>
      <path id="DejaVuSans-65" d="M 3597 1894 
L 3597 1613 
L 953 1613 
Q 991 1019 1311 708 
Q 1631 397 2203 397 
Q 2534 397 2845 478 
Q 3156 559 3463 722 
L 3463 178 
Q 3153 47 2828 -22 
Q 2503 -91 2169 -91 
Q 1331 -91 842 396 
Q 353 884 353 1716 
Q 353 2575 817 3079 
Q 1281 3584 2069 3584 
Q 2775 3584 3186 3129 
Q 3597 2675 3597 1894 
z
M 3022 2063 
Q 3016 2534 2758 2815 
Q 2500 3097 2075 3097 
Q 1594 3097 1305 2825 
Q 1016 2553 972 2059 
L 3022 2063 
z
" transform="scale(0.015625)"/>
      <path id="DejaVuSans-64" d="M 2906 2969 
L 2906 4863 
L 3481 4863 
L 3481 0 
L 2906 0 
L 2906 525 
Q 2725 213 2448 61 
Q 2172 -91 1784 -91 
Q 1150 -91 751 415 
Q 353 922 353 1747 
Q 353 2572 751 3078 
Q 1150 3584 1784 3584 
Q 2172 3584 2448 3432 
Q 2725 3281 2906 2969 
z
M 947 1747 
Q 947 1113 1208 752 
Q 1469 391 1925 391 
Q 2381 391 2643 752 
Q 2906 1113 2906 1747 
Q 2906 2381 2643 2742 
Q 2381 3103 1925 3103 
Q 1469 3103 1208 2742 
Q 947 2381 947 1747 
z
" transform="scale(0.015625)"/>
      <path id="DejaVuSans-41" d="M 2188 4044 
L 1331 1722 
L 3047 1722 
L 2188 4044 
z
M 1831 4666 
L 2547 4666 
L 4325 0 
L 3669 0 
L 3244 1197 
L 1141 1197 
L 716 0 
L 50 0 
L 1831 4666 
z
" transform="scale(0.015625)"/>
      <path id="DejaVuSans-67" d="M 2906 1791 
Q 2906 2416 2648 2759 
Q 2391 3103 1925 3103 
Q 1463 3103 1205 2759 
Q 947 2416 947 1791 
Q 947 1169 1205 825 
Q 1463 481 1925 481 
Q 2391 481 2648 825 
Q 2906 1169 2906 1791 
z
M 3481 434 
Q 3481 -459 3084 -895 
Q 2688 -1331 1869 -1331 
Q 1566 -1331 1297 -1286 
Q 1028 -1241 775 -1147 
L 775 -588 
Q 1028 -725 1275 -790 
Q 1522 -856 1778 -856 
Q 2344 -856 2625 -561 
Q 2906 -266 2906 331 
L 2906 616 
Q 2728 306 2450 153 
Q 2172 0 1784 0 
Q 1141 0 747 490 
Q 353 981 353 1791 
Q 353 2603 747 3093 
Q 1141 3584 1784 3584 
Q 2172 3584 2450 3431 
Q 2728 3278 2906 2969 
L 2906 3500 
L 3481 3500 
L 3481 434 
z
" transform="scale(0.015625)"/>
      <path id="DejaVuSans-43" d="M 4122 4306 
L 4122 3641 
Q 3803 3938 3442 4084 
Q 3081 4231 2675 4231 
Q 1875 4231 1450 3742 
Q 1025 3253 1025 2328 
Q 1025 1406 1450 917 
Q 1875 428 2675 428 
Q 3081 428 3442 575 
Q 3803 722 4122 1019 
L 4122 359 
Q 3791 134 3420 21 
Q 3050 -91 2638 -91 
Q 1578 -91 968 557 
Q 359 1206 359 2328 
Q 359 3453 968 4101 
Q 1578 4750 2638 4750 
Q 3056 4750 3426 4639 
Q 3797 4528 4122 4306 
z
" transform="scale(0.015625)"/>
     </defs>
     <use xlink:href="#DejaVuSans-53"/>
     <use xlink:href="#DejaVuSans-69" x="63.476562"/>
     <use xlink:href="#DejaVuSans-6d" x="91.259766"/>
     <use xlink:href="#DejaVuSans-75" x="188.671875"/>
     <use xlink:href="#DejaVuSans-6c" x="252.050781"/>
     <use xlink:href="#DejaVuSans-61" x="279.833984"/>
     <use xlink:href="#DejaVuSans-74" x="341.113281"/>
     <use xlink:href="#DejaVuSans-65" x="380.322266"/>
     <use xlink:href="#DejaVuSans-64" x="441.845703"/>
     <use xlink:href="#DejaVuSans-20" x="505.322266"/>
     <use xlink:href="#DejaVuSans-41" x="537.109375"/>
     <use xlink:href="#DejaVuSans-6e" x="605.517578"/>
     <use xlink:href="#DejaVuSans-65" x="668.896484"/>
     <use xlink:href="#DejaVuSans-61" x="730.419922"/>
     <use xlink:href="#DejaVuSans-6c" x="791.699219"/>
     <use xlink:href="#DejaVuSans-6c" x="819.482422"/>
     <use xlink:href="#DejaVuSans-69" x="847.265625"/>
     <use xlink:href="#DejaVuSans-6e" x="875.048828"/>
     <use xlink:href="#DejaVuSans-67" x="938.427734"/>
     <use xlink:href="#DejaVuSans-20" x="1001.904297"/>
     <use xlink:href="#DejaVuSans-43" x="1033.691406"/>
     <use xlink:href="#DejaVuSans-6f" x="1103.515625"/>
     <use xlink:href="#DejaVuSans-73" x="1164.697266"/>
     <use xlink:href="#DejaVuSans-74" x="1216.796875"/>
    </g>
   </g>
  </g>
 </g>
 <defs>
  <clipPath id="p3303785b58">
   <rect x="57.6" y="41.472" width="357.12" height="266.112"/>
  </clipPath>
 </defs>
</svg>
