<?xml version="1.0" encoding="utf-8" standalone="no"?>
<!DOCTYPE svg PUBLIC "-//W3C//DTD SVG 1.1//EN"
  "http://www.w3.org/Graphics/SVG/1.1/DTD/svg11.dtd">
<svg xmlns:xlink="http://www.w3.org/1999/xlink" width="460.8pt" height="345.6pt" viewBox="0 0 460.8 345.6" xmlns="http://www.w3.org/2000/svg" version="1.1">
 <metadata>
  <rdf:RDF xmlns:dc="http://purl.org/dc/elements/1.1/" xmlns:cc="http://creativecommons.org/ns#" xmlns:rdf="http://www.w3.org/1999/02/22-rdf-syntax-ns#">
   <cc:Work>
    <dc:type rdf:resource="http://purl.org/dc/dcmitype/StillImage"/>
    <dc:date>2022-06-01T08:04:50.764701</dc:date>
    <dc:format>image/svg+xml</dc:format>
    <dc:creator>
     <cc:Agent>
      <dc:title>Matplotlib v3.5.1, https://matplotlib.org/</dc:title>
     </cc:Agent>
    </dc:creator>
   </cc:Work>
  </rdf:RDF>
 </metadata>
 <defs>
  <style type="text/css">*{stroke-linejoin: round; stroke-linecap: butt}</style>
 </defs>
 <g id="figure_1">
  <g id="patch_1">
   <path d="M 0 345.6 
L 460.8 345.6 
L 460.8 0 
L 0 0 
z
" style="fill: #ffffff"/>
  </g>
  <g id="axes_1">
   <g id="patch_2">
    <path d="M 57.6 307.584 
L 414.72 307.584 
L 414.72 41.472 
L 57.6 41.472 
z
" style="fill: #ffffff"/>
   </g>
   <g id="matplotlib.axis_1">
    <g id="xtick_1">
     <g id="line2d_1">
      <defs>
       <path id="m993653b2ef" d="M 0 0 
L 0 3.5 
" style="stroke: #000000; stroke-width: 0.8"/>
      </defs>
      <g>
       <use xlink:href="#m993653b2ef" x="73.832727" y="307.584" style="stroke: #000000; stroke-width: 0.8"/>
      </g>
     </g>
     <g id="text_1">
      <!-- 0 -->
      <g transform="translate(70.651477 322.182437)scale(0.1 -0.1)">
       <defs>
        <path id="DejaVuSans-30" d="M 2034 4250 
Q 1547 4250 1301 3770 
Q 1056 3291 1056 2328 
Q 1056 1369 1301 889 
Q 1547 409 2034 409 
Q 2525 409 2770 889 
Q 3016 1369 3016 2328 
Q 3016 3291 2770 3770 
Q 2525 4250 2034 4250 
z
M 2034 4750 
Q 2819 4750 3233 4129 
Q 3647 3509 3647 2328 
Q 3647 1150 3233 529 
Q 2819 -91 2034 -91 
Q 1250 -91 836 529 
Q 422 1150 422 2328 
Q 422 3509 836 4129 
Q 1250 4750 2034 4750 
z
" transform="scale(0.015625)"/>
       </defs>
       <use xlink:href="#DejaVuSans-30"/>
      </g>
     </g>
    </g>
    <g id="xtick_2">
     <g id="line2d_2">
      <g>
       <use xlink:href="#m993653b2ef" x="128.562084" y="307.584" style="stroke: #000000; stroke-width: 0.8"/>
      </g>
     </g>
     <g id="text_2">
      <!-- 500 -->
      <g transform="translate(119.018334 322.182437)scale(0.1 -0.1)">
       <defs>
        <path id="DejaVuSans-35" d="M 691 4666 
L 3169 4666 
L 3169 4134 
L 1269 4134 
L 1269 2991 
Q 1406 3038 1543 3061 
Q 1681 3084 1819 3084 
Q 2600 3084 3056 2656 
Q 3513 2228 3513 1497 
Q 3513 744 3044 326 
Q 2575 -91 1722 -91 
Q 1428 -91 1123 -41 
Q 819 9 494 109 
L 494 744 
Q 775 591 1075 516 
Q 1375 441 1709 441 
Q 2250 441 2565 725 
Q 2881 1009 2881 1497 
Q 2881 1984 2565 2268 
Q 2250 2553 1709 2553 
Q 1456 2553 1204 2497 
Q 953 2441 691 2322 
L 691 4666 
z
" transform="scale(0.015625)"/>
       </defs>
       <use xlink:href="#DejaVuSans-35"/>
       <use xlink:href="#DejaVuSans-30" x="63.623047"/>
       <use xlink:href="#DejaVuSans-30" x="127.246094"/>
      </g>
     </g>
    </g>
    <g id="xtick_3">
     <g id="line2d_3">
      <g>
       <use xlink:href="#m993653b2ef" x="183.291441" y="307.584" style="stroke: #000000; stroke-width: 0.8"/>
      </g>
     </g>
     <g id="text_3">
      <!-- 1000 -->
      <g transform="translate(170.566441 322.182437)scale(0.1 -0.1)">
       <defs>
        <path id="DejaVuSans-31" d="M 794 531 
L 1825 531 
L 1825 4091 
L 703 3866 
L 703 4441 
L 1819 4666 
L 2450 4666 
L 2450 531 
L 3481 531 
L 3481 0 
L 794 0 
L 794 531 
z
" transform="scale(0.015625)"/>
       </defs>
       <use xlink:href="#DejaVuSans-31"/>
       <use xlink:href="#DejaVuSans-30" x="63.623047"/>
       <use xlink:href="#DejaVuSans-30" x="127.246094"/>
       <use xlink:href="#DejaVuSans-30" x="190.869141"/>
      </g>
     </g>
    </g>
    <g id="xtick_4">
     <g id="line2d_4">
      <g>
       <use xlink:href="#m993653b2ef" x="238.020798" y="307.584" style="stroke: #000000; stroke-width: 0.8"/>
      </g>
     </g>
     <g id="text_4">
      <!-- 1500 -->
      <g transform="translate(225.295798 322.182437)scale(0.1 -0.1)">
       <use xlink:href="#DejaVuSans-31"/>
       <use xlink:href="#DejaVuSans-35" x="63.623047"/>
       <use xlink:href="#DejaVuSans-30" x="127.246094"/>
       <use xlink:href="#DejaVuSans-30" x="190.869141"/>
      </g>
     </g>
    </g>
    <g id="xtick_5">
     <g id="line2d_5">
      <g>
       <use xlink:href="#m993653b2ef" x="292.750155" y="307.584" style="stroke: #000000; stroke-width: 0.8"/>
      </g>
     </g>
     <g id="text_5">
      <!-- 2000 -->
      <g transform="translate(280.025155 322.182437)scale(0.1 -0.1)">
       <defs>
        <path id="DejaVuSans-32" d="M 1228 531 
L 3431 531 
L 3431 0 
L 469 0 
L 469 531 
Q 828 903 1448 1529 
Q 2069 2156 2228 2338 
Q 2531 2678 2651 2914 
Q 2772 3150 2772 3378 
Q 2772 3750 2511 3984 
Q 2250 4219 1831 4219 
Q 1534 4219 1204 4116 
Q 875 4013 500 3803 
L 500 4441 
Q 881 4594 1212 4672 
Q 1544 4750 1819 4750 
Q 2544 4750 2975 4387 
Q 3406 4025 3406 3419 
Q 3406 3131 3298 2873 
Q 3191 2616 2906 2266 
Q 2828 2175 2409 1742 
Q 1991 1309 1228 531 
z
" transform="scale(0.015625)"/>
       </defs>
       <use xlink:href="#DejaVuSans-32"/>
       <use xlink:href="#DejaVuSans-30" x="63.623047"/>
       <use xlink:href="#DejaVuSans-30" x="127.246094"/>
       <use xlink:href="#DejaVuSans-30" x="190.869141"/>
      </g>
     </g>
    </g>
    <g id="xtick_6">
     <g id="line2d_6">
      <g>
       <use xlink:href="#m993653b2ef" x="347.479512" y="307.584" style="stroke: #000000; stroke-width: 0.8"/>
      </g>
     </g>
     <g id="text_6">
      <!-- 2500 -->
      <g transform="translate(334.754512 322.182437)scale(0.1 -0.1)">
       <use xlink:href="#DejaVuSans-32"/>
       <use xlink:href="#DejaVuSans-35" x="63.623047"/>
       <use xlink:href="#DejaVuSans-30" x="127.246094"/>
       <use xlink:href="#DejaVuSans-30" x="190.869141"/>
      </g>
     </g>
    </g>
    <g id="xtick_7">
     <g id="line2d_7">
      <g>
       <use xlink:href="#m993653b2ef" x="402.208869" y="307.584" style="stroke: #000000; stroke-width: 0.8"/>
      </g>
     </g>
     <g id="text_7">
      <!-- 3000 -->
      <g transform="translate(389.483869 322.182437)scale(0.1 -0.1)">
       <defs>
        <path id="DejaVuSans-33" d="M 2597 2516 
Q 3050 2419 3304 2112 
Q 3559 1806 3559 1356 
Q 3559 666 3084 287 
Q 2609 -91 1734 -91 
Q 1441 -91 1130 -33 
Q 819 25 488 141 
L 488 750 
Q 750 597 1062 519 
Q 1375 441 1716 441 
Q 2309 441 2620 675 
Q 2931 909 2931 1356 
Q 2931 1769 2642 2001 
Q 2353 2234 1838 2234 
L 1294 2234 
L 1294 2753 
L 1863 2753 
Q 2328 2753 2575 2939 
Q 2822 3125 2822 3475 
Q 2822 3834 2567 4026 
Q 2313 4219 1838 4219 
Q 1578 4219 1281 4162 
Q 984 4106 628 3988 
L 628 4550 
Q 988 4650 1302 4700 
Q 1616 4750 1894 4750 
Q 2613 4750 3031 4423 
Q 3450 4097 3450 3541 
Q 3450 3153 3228 2886 
Q 3006 2619 2597 2516 
z
" transform="scale(0.015625)"/>
       </defs>
       <use xlink:href="#DejaVuSans-33"/>
       <use xlink:href="#DejaVuSans-30" x="63.623047"/>
       <use xlink:href="#DejaVuSans-30" x="127.246094"/>
       <use xlink:href="#DejaVuSans-30" x="190.869141"/>
      </g>
     </g>
    </g>
    <g id="text_8">
     <!-- num swaps -->
     <g transform="translate(207.826406 335.860562)scale(0.1 -0.1)">
      <defs>
       <path id="DejaVuSans-6e" d="M 3513 2113 
L 3513 0 
L 2938 0 
L 2938 2094 
Q 2938 2591 2744 2837 
Q 2550 3084 2163 3084 
Q 1697 3084 1428 2787 
Q 1159 2491 1159 1978 
L 1159 0 
L 581 0 
L 581 3500 
L 1159 3500 
L 1159 2956 
Q 1366 3272 1645 3428 
Q 1925 3584 2291 3584 
Q 2894 3584 3203 3211 
Q 3513 2838 3513 2113 
z
" transform="scale(0.015625)"/>
       <path id="DejaVuSans-75" d="M 544 1381 
L 544 3500 
L 1119 3500 
L 1119 1403 
Q 1119 906 1312 657 
Q 1506 409 1894 409 
Q 2359 409 2629 706 
Q 2900 1003 2900 1516 
L 2900 3500 
L 3475 3500 
L 3475 0 
L 2900 0 
L 2900 538 
Q 2691 219 2414 64 
Q 2138 -91 1772 -91 
Q 1169 -91 856 284 
Q 544 659 544 1381 
z
M 1991 3584 
L 1991 3584 
z
" transform="scale(0.015625)"/>
       <path id="DejaVuSans-6d" d="M 3328 2828 
Q 3544 3216 3844 3400 
Q 4144 3584 4550 3584 
Q 5097 3584 5394 3201 
Q 5691 2819 5691 2113 
L 5691 0 
L 5113 0 
L 5113 2094 
Q 5113 2597 4934 2840 
Q 4756 3084 4391 3084 
Q 3944 3084 3684 2787 
Q 3425 2491 3425 1978 
L 3425 0 
L 2847 0 
L 2847 2094 
Q 2847 2600 2669 2842 
Q 2491 3084 2119 3084 
Q 1678 3084 1418 2786 
Q 1159 2488 1159 1978 
L 1159 0 
L 581 0 
L 581 3500 
L 1159 3500 
L 1159 2956 
Q 1356 3278 1631 3431 
Q 1906 3584 2284 3584 
Q 2666 3584 2933 3390 
Q 3200 3197 3328 2828 
z
" transform="scale(0.015625)"/>
       <path id="DejaVuSans-20" transform="scale(0.015625)"/>
       <path id="DejaVuSans-73" d="M 2834 3397 
L 2834 2853 
Q 2591 2978 2328 3040 
Q 2066 3103 1784 3103 
Q 1356 3103 1142 2972 
Q 928 2841 928 2578 
Q 928 2378 1081 2264 
Q 1234 2150 1697 2047 
L 1894 2003 
Q 2506 1872 2764 1633 
Q 3022 1394 3022 966 
Q 3022 478 2636 193 
Q 2250 -91 1575 -91 
Q 1294 -91 989 -36 
Q 684 19 347 128 
L 347 722 
Q 666 556 975 473 
Q 1284 391 1588 391 
Q 1994 391 2212 530 
Q 2431 669 2431 922 
Q 2431 1156 2273 1281 
Q 2116 1406 1581 1522 
L 1381 1569 
Q 847 1681 609 1914 
Q 372 2147 372 2553 
Q 372 3047 722 3315 
Q 1072 3584 1716 3584 
Q 2034 3584 2315 3537 
Q 2597 3491 2834 3397 
z
" transform="scale(0.015625)"/>
       <path id="DejaVuSans-77" d="M 269 3500 
L 844 3500 
L 1563 769 
L 2278 3500 
L 2956 3500 
L 3675 769 
L 4391 3500 
L 4966 3500 
L 4050 0 
L 3372 0 
L 2619 2869 
L 1863 0 
L 1184 0 
L 269 3500 
z
" transform="scale(0.015625)"/>
       <path id="DejaVuSans-61" d="M 2194 1759 
Q 1497 1759 1228 1600 
Q 959 1441 959 1056 
Q 959 750 1161 570 
Q 1363 391 1709 391 
Q 2188 391 2477 730 
Q 2766 1069 2766 1631 
L 2766 1759 
L 2194 1759 
z
M 3341 1997 
L 3341 0 
L 2766 0 
L 2766 531 
Q 2569 213 2275 61 
Q 1981 -91 1556 -91 
Q 1019 -91 701 211 
Q 384 513 384 1019 
Q 384 1609 779 1909 
Q 1175 2209 1959 2209 
L 2766 2209 
L 2766 2266 
Q 2766 2663 2505 2880 
Q 2244 3097 1772 3097 
Q 1472 3097 1187 3025 
Q 903 2953 641 2809 
L 641 3341 
Q 956 3463 1253 3523 
Q 1550 3584 1831 3584 
Q 2591 3584 2966 3190 
Q 3341 2797 3341 1997 
z
" transform="scale(0.015625)"/>
       <path id="DejaVuSans-70" d="M 1159 525 
L 1159 -1331 
L 581 -1331 
L 581 3500 
L 1159 3500 
L 1159 2969 
Q 1341 3281 1617 3432 
Q 1894 3584 2278 3584 
Q 2916 3584 3314 3078 
Q 3713 2572 3713 1747 
Q 3713 922 3314 415 
Q 2916 -91 2278 -91 
Q 1894 -91 1617 61 
Q 1341 213 1159 525 
z
M 3116 1747 
Q 3116 2381 2855 2742 
Q 2594 3103 2138 3103 
Q 1681 3103 1420 2742 
Q 1159 2381 1159 1747 
Q 1159 1113 1420 752 
Q 1681 391 2138 391 
Q 2594 391 2855 752 
Q 3116 1113 3116 1747 
z
" transform="scale(0.015625)"/>
      </defs>
      <use xlink:href="#DejaVuSans-6e"/>
      <use xlink:href="#DejaVuSans-75" x="63.378906"/>
      <use xlink:href="#DejaVuSans-6d" x="126.757812"/>
      <use xlink:href="#DejaVuSans-20" x="224.169922"/>
      <use xlink:href="#DejaVuSans-73" x="255.957031"/>
      <use xlink:href="#DejaVuSans-77" x="308.056641"/>
      <use xlink:href="#DejaVuSans-61" x="389.84375"/>
      <use xlink:href="#DejaVuSans-70" x="451.123047"/>
      <use xlink:href="#DejaVuSans-73" x="514.599609"/>
     </g>
    </g>
   </g>
   <g id="matplotlib.axis_2">
    <g id="ytick_1">
     <g id="line2d_8">
      <defs>
       <path id="m267d20eb72" d="M 0 0 
L -3.5 0 
" style="stroke: #000000; stroke-width: 0.8"/>
      </defs>
      <g>
       <use xlink:href="#m267d20eb72" x="57.6" y="295.488" style="stroke: #000000; stroke-width: 0.8"/>
      </g>
     </g>
     <g id="text_9">
      <!-- 320 -->
      <g transform="translate(31.5125 299.287219)scale(0.1 -0.1)">
       <use xlink:href="#DejaVuSans-33"/>
       <use xlink:href="#DejaVuSans-32" x="63.623047"/>
       <use xlink:href="#DejaVuSans-30" x="127.246094"/>
      </g>
     </g>
    </g>
    <g id="ytick_2">
     <g id="line2d_9">
      <g>
       <use xlink:href="#m267d20eb72" x="57.6" y="265.248" style="stroke: #000000; stroke-width: 0.8"/>
      </g>
     </g>
     <g id="text_10">
      <!-- 330 -->
      <g transform="translate(31.5125 269.047219)scale(0.1 -0.1)">
       <use xlink:href="#DejaVuSans-33"/>
       <use xlink:href="#DejaVuSans-33" x="63.623047"/>
       <use xlink:href="#DejaVuSans-30" x="127.246094"/>
      </g>
     </g>
    </g>
    <g id="ytick_3">
     <g id="line2d_10">
      <g>
       <use xlink:href="#m267d20eb72" x="57.6" y="235.008" style="stroke: #000000; stroke-width: 0.8"/>
      </g>
     </g>
     <g id="text_11">
      <!-- 340 -->
      <g transform="translate(31.5125 238.807219)scale(0.1 -0.1)">
       <defs>
        <path id="DejaVuSans-34" d="M 2419 4116 
L 825 1625 
L 2419 1625 
L 2419 4116 
z
M 2253 4666 
L 3047 4666 
L 3047 1625 
L 3713 1625 
L 3713 1100 
L 3047 1100 
L 3047 0 
L 2419 0 
L 2419 1100 
L 313 1100 
L 313 1709 
L 2253 4666 
z
" transform="scale(0.015625)"/>
       </defs>
       <use xlink:href="#DejaVuSans-33"/>
       <use xlink:href="#DejaVuSans-34" x="63.623047"/>
       <use xlink:href="#DejaVuSans-30" x="127.246094"/>
      </g>
     </g>
    </g>
    <g id="ytick_4">
     <g id="line2d_11">
      <g>
       <use xlink:href="#m267d20eb72" x="57.6" y="204.768" style="stroke: #000000; stroke-width: 0.8"/>
      </g>
     </g>
     <g id="text_12">
      <!-- 350 -->
      <g transform="translate(31.5125 208.567219)scale(0.1 -0.1)">
       <use xlink:href="#DejaVuSans-33"/>
       <use xlink:href="#DejaVuSans-35" x="63.623047"/>
       <use xlink:href="#DejaVuSans-30" x="127.246094"/>
      </g>
     </g>
    </g>
    <g id="ytick_5">
     <g id="line2d_12">
      <g>
       <use xlink:href="#m267d20eb72" x="57.6" y="174.528" style="stroke: #000000; stroke-width: 0.8"/>
      </g>
     </g>
     <g id="text_13">
      <!-- 360 -->
      <g transform="translate(31.5125 178.327219)scale(0.1 -0.1)">
       <defs>
        <path id="DejaVuSans-36" d="M 2113 2584 
Q 1688 2584 1439 2293 
Q 1191 2003 1191 1497 
Q 1191 994 1439 701 
Q 1688 409 2113 409 
Q 2538 409 2786 701 
Q 3034 994 3034 1497 
Q 3034 2003 2786 2293 
Q 2538 2584 2113 2584 
z
M 3366 4563 
L 3366 3988 
Q 3128 4100 2886 4159 
Q 2644 4219 2406 4219 
Q 1781 4219 1451 3797 
Q 1122 3375 1075 2522 
Q 1259 2794 1537 2939 
Q 1816 3084 2150 3084 
Q 2853 3084 3261 2657 
Q 3669 2231 3669 1497 
Q 3669 778 3244 343 
Q 2819 -91 2113 -91 
Q 1303 -91 875 529 
Q 447 1150 447 2328 
Q 447 3434 972 4092 
Q 1497 4750 2381 4750 
Q 2619 4750 2861 4703 
Q 3103 4656 3366 4563 
z
" transform="scale(0.015625)"/>
       </defs>
       <use xlink:href="#DejaVuSans-33"/>
       <use xlink:href="#DejaVuSans-36" x="63.623047"/>
       <use xlink:href="#DejaVuSans-30" x="127.246094"/>
      </g>
     </g>
    </g>
    <g id="ytick_6">
     <g id="line2d_13">
      <g>
       <use xlink:href="#m267d20eb72" x="57.6" y="144.288" style="stroke: #000000; stroke-width: 0.8"/>
      </g>
     </g>
     <g id="text_14">
      <!-- 370 -->
      <g transform="translate(31.5125 148.087219)scale(0.1 -0.1)">
       <defs>
        <path id="DejaVuSans-37" d="M 525 4666 
L 3525 4666 
L 3525 4397 
L 1831 0 
L 1172 0 
L 2766 4134 
L 525 4134 
L 525 4666 
z
" transform="scale(0.015625)"/>
       </defs>
       <use xlink:href="#DejaVuSans-33"/>
       <use xlink:href="#DejaVuSans-37" x="63.623047"/>
       <use xlink:href="#DejaVuSans-30" x="127.246094"/>
      </g>
     </g>
    </g>
    <g id="ytick_7">
     <g id="line2d_14">
      <g>
       <use xlink:href="#m267d20eb72" x="57.6" y="114.048" style="stroke: #000000; stroke-width: 0.8"/>
      </g>
     </g>
     <g id="text_15">
      <!-- 380 -->
      <g transform="translate(31.5125 117.847219)scale(0.1 -0.1)">
       <defs>
        <path id="DejaVuSans-38" d="M 2034 2216 
Q 1584 2216 1326 1975 
Q 1069 1734 1069 1313 
Q 1069 891 1326 650 
Q 1584 409 2034 409 
Q 2484 409 2743 651 
Q 3003 894 3003 1313 
Q 3003 1734 2745 1975 
Q 2488 2216 2034 2216 
z
M 1403 2484 
Q 997 2584 770 2862 
Q 544 3141 544 3541 
Q 544 4100 942 4425 
Q 1341 4750 2034 4750 
Q 2731 4750 3128 4425 
Q 3525 4100 3525 3541 
Q 3525 3141 3298 2862 
Q 3072 2584 2669 2484 
Q 3125 2378 3379 2068 
Q 3634 1759 3634 1313 
Q 3634 634 3220 271 
Q 2806 -91 2034 -91 
Q 1263 -91 848 271 
Q 434 634 434 1313 
Q 434 1759 690 2068 
Q 947 2378 1403 2484 
z
M 1172 3481 
Q 1172 3119 1398 2916 
Q 1625 2713 2034 2713 
Q 2441 2713 2670 2916 
Q 2900 3119 2900 3481 
Q 2900 3844 2670 4047 
Q 2441 4250 2034 4250 
Q 1625 4250 1398 4047 
Q 1172 3844 1172 3481 
z
" transform="scale(0.015625)"/>
       </defs>
       <use xlink:href="#DejaVuSans-33"/>
       <use xlink:href="#DejaVuSans-38" x="63.623047"/>
       <use xlink:href="#DejaVuSans-30" x="127.246094"/>
      </g>
     </g>
    </g>
    <g id="ytick_8">
     <g id="line2d_15">
      <g>
       <use xlink:href="#m267d20eb72" x="57.6" y="83.808" style="stroke: #000000; stroke-width: 0.8"/>
      </g>
     </g>
     <g id="text_16">
      <!-- 390 -->
      <g transform="translate(31.5125 87.607219)scale(0.1 -0.1)">
       <defs>
        <path id="DejaVuSans-39" d="M 703 97 
L 703 672 
Q 941 559 1184 500 
Q 1428 441 1663 441 
Q 2288 441 2617 861 
Q 2947 1281 2994 2138 
Q 2813 1869 2534 1725 
Q 2256 1581 1919 1581 
Q 1219 1581 811 2004 
Q 403 2428 403 3163 
Q 403 3881 828 4315 
Q 1253 4750 1959 4750 
Q 2769 4750 3195 4129 
Q 3622 3509 3622 2328 
Q 3622 1225 3098 567 
Q 2575 -91 1691 -91 
Q 1453 -91 1209 -44 
Q 966 3 703 97 
z
M 1959 2075 
Q 2384 2075 2632 2365 
Q 2881 2656 2881 3163 
Q 2881 3666 2632 3958 
Q 2384 4250 1959 4250 
Q 1534 4250 1286 3958 
Q 1038 3666 1038 3163 
Q 1038 2656 1286 2365 
Q 1534 2075 1959 2075 
z
" transform="scale(0.015625)"/>
       </defs>
       <use xlink:href="#DejaVuSans-33"/>
       <use xlink:href="#DejaVuSans-39" x="63.623047"/>
       <use xlink:href="#DejaVuSans-30" x="127.246094"/>
      </g>
     </g>
    </g>
    <g id="ytick_9">
     <g id="line2d_16">
      <g>
       <use xlink:href="#m267d20eb72" x="57.6" y="53.568" style="stroke: #000000; stroke-width: 0.8"/>
      </g>
     </g>
     <g id="text_17">
      <!-- 400 -->
      <g transform="translate(31.5125 57.367219)scale(0.1 -0.1)">
       <use xlink:href="#DejaVuSans-34"/>
       <use xlink:href="#DejaVuSans-30" x="63.623047"/>
       <use xlink:href="#DejaVuSans-30" x="127.246094"/>
      </g>
     </g>
    </g>
    <g id="text_18">
     <!-- total cost -->
     <g transform="translate(25.432812 197.923313)rotate(-90)scale(0.1 -0.1)">
      <defs>
       <path id="DejaVuSans-74" d="M 1172 4494 
L 1172 3500 
L 2356 3500 
L 2356 3053 
L 1172 3053 
L 1172 1153 
Q 1172 725 1289 603 
Q 1406 481 1766 481 
L 2356 481 
L 2356 0 
L 1766 0 
Q 1100 0 847 248 
Q 594 497 594 1153 
L 594 3053 
L 172 3053 
L 172 3500 
L 594 3500 
L 594 4494 
L 1172 4494 
z
" transform="scale(0.015625)"/>
       <path id="DejaVuSans-6f" d="M 1959 3097 
Q 1497 3097 1228 2736 
Q 959 2375 959 1747 
Q 959 1119 1226 758 
Q 1494 397 1959 397 
Q 2419 397 2687 759 
Q 2956 1122 2956 1747 
Q 2956 2369 2687 2733 
Q 2419 3097 1959 3097 
z
M 1959 3584 
Q 2709 3584 3137 3096 
Q 3566 2609 3566 1747 
Q 3566 888 3137 398 
Q 2709 -91 1959 -91 
Q 1206 -91 779 398 
Q 353 888 353 1747 
Q 353 2609 779 3096 
Q 1206 3584 1959 3584 
z
" transform="scale(0.015625)"/>
       <path id="DejaVuSans-6c" d="M 603 4863 
L 1178 4863 
L 1178 0 
L 603 0 
L 603 4863 
z
" transform="scale(0.015625)"/>
       <path id="DejaVuSans-63" d="M 3122 3366 
L 3122 2828 
Q 2878 2963 2633 3030 
Q 2388 3097 2138 3097 
Q 1578 3097 1268 2742 
Q 959 2388 959 1747 
Q 959 1106 1268 751 
Q 1578 397 2138 397 
Q 2388 397 2633 464 
Q 2878 531 3122 666 
L 3122 134 
Q 2881 22 2623 -34 
Q 2366 -91 2075 -91 
Q 1284 -91 818 406 
Q 353 903 353 1747 
Q 353 2603 823 3093 
Q 1294 3584 2113 3584 
Q 2378 3584 2631 3529 
Q 2884 3475 3122 3366 
z
" transform="scale(0.015625)"/>
      </defs>
      <use xlink:href="#DejaVuSans-74"/>
      <use xlink:href="#DejaVuSans-6f" x="39.208984"/>
      <use xlink:href="#DejaVuSans-74" x="100.390625"/>
      <use xlink:href="#DejaVuSans-61" x="139.599609"/>
      <use xlink:href="#DejaVuSans-6c" x="200.878906"/>
      <use xlink:href="#DejaVuSans-20" x="228.662109"/>
      <use xlink:href="#DejaVuSans-63" x="260.449219"/>
      <use xlink:href="#DejaVuSans-6f" x="315.429688"/>
      <use xlink:href="#DejaVuSans-73" x="376.611328"/>
      <use xlink:href="#DejaVuSans-74" x="428.710938"/>
     </g>
    </g>
   </g>
   <g id="line2d_17">
    <path d="M 73.832727 65.664 
L 74.051645 59.616 
L 74.270562 89.856 
L 74.48948 95.904 
L 74.927314 83.808 
L 75.365149 95.904 
L 75.584067 74.736 
L 75.802984 65.664 
L 76.021902 68.688 
L 76.678654 98.928 
L 76.897571 132.192 
L 77.335406 153.36 
L 77.554324 153.36 
L 77.992158 168.48 
L 78.211076 165.456 
L 78.429993 174.528 
L 78.648911 174.528 
L 79.086746 147.312 
L 79.305663 138.24 
L 79.52458 162.432 
L 79.743498 162.432 
L 79.962415 192.672 
L 80.181333 192.672 
L 80.40025 198.72 
L 80.619168 186.624 
L 80.838085 183.6 
L 81.057002 207.792 
L 81.27592 207.792 
L 81.494837 219.888 
L 81.713755 192.672 
L 81.932672 198.72 
L 82.370507 174.528 
L 82.808342 159.408 
L 83.027259 138.24 
L 83.246177 162.432 
L 83.465094 159.408 
L 83.684012 144.288 
L 83.902929 144.288 
L 84.121846 147.312 
L 84.340764 156.384 
L 84.559681 156.384 
L 84.778599 153.36 
L 85.216434 153.36 
L 85.654268 180.576 
L 85.873186 180.576 
L 86.092103 183.6 
L 86.748856 162.432 
L 86.967773 198.72 
L 87.18669 198.72 
L 87.405608 195.696 
L 87.843443 186.624 
L 88.06236 144.288 
L 88.281278 156.384 
L 88.500195 144.288 
L 88.719112 153.36 
L 88.93803 150.336 
L 89.156947 144.288 
L 89.8137 174.528 
L 90.032617 165.456 
L 90.251534 177.552 
L 90.470452 201.744 
L 90.689369 171.504 
L 90.908287 159.408 
L 91.127204 156.384 
L 91.346121 147.312 
L 91.565039 156.384 
L 91.783956 156.384 
L 92.002874 129.168 
L 92.221791 123.12 
L 92.440709 141.264 
L 92.659626 147.312 
L 92.878543 138.24 
L 93.097461 138.24 
L 93.535296 120.096 
L 93.973131 129.168 
L 94.192048 129.168 
L 94.410965 150.336 
L 94.8488 126.144 
L 95.286635 144.288 
L 95.505553 126.144 
L 95.72447 120.096 
L 95.943387 126.144 
L 96.162305 114.048 
L 96.381222 120.096 
L 96.60014 108 
L 96.819057 114.048 
L 97.256892 95.904 
L 97.475809 95.904 
L 97.694727 108 
L 97.913644 104.976 
L 98.132562 111.024 
L 98.351479 104.976 
L 98.570397 114.048 
L 98.789314 114.048 
L 99.008231 135.216 
L 99.227149 138.24 
L 99.446066 162.432 
L 99.664984 171.504 
L 100.102819 159.408 
L 100.321736 162.432 
L 100.540653 159.408 
L 100.759571 144.288 
L 100.978488 144.288 
L 101.197406 129.168 
L 101.416323 153.36 
L 101.635241 159.408 
L 101.854158 150.336 
L 102.291993 111.024 
L 102.51091 108 
L 102.948745 138.24 
L 103.167663 144.288 
L 103.605497 117.072 
L 103.824415 126.144 
L 104.043332 114.048 
L 104.26225 141.264 
L 104.481167 138.24 
L 104.700085 150.336 
L 105.137919 141.264 
L 105.356837 126.144 
L 105.794672 120.096 
L 106.013589 104.976 
L 106.232507 104.976 
L 106.670341 144.288 
L 106.889259 153.36 
L 107.108176 150.336 
L 107.327094 174.528 
L 107.764929 132.192 
L 108.202763 132.192 
L 108.421681 135.216 
L 108.859516 114.048 
L 109.297351 68.688 
L 109.516268 83.808 
L 109.735185 114.048 
L 109.954103 114.048 
L 110.17302 92.88 
L 110.391938 101.952 
L 110.610855 92.88 
L 111.04869 120.096 
L 111.267607 129.168 
L 112.362195 144.288 
L 112.581112 156.384 
L 112.800029 159.408 
L 113.018947 150.336 
L 113.237864 162.432 
L 113.456782 162.432 
L 113.675699 153.36 
L 113.894617 132.192 
L 114.332451 159.408 
L 114.551369 153.36 
L 114.770286 168.48 
L 114.989204 171.504 
L 115.208121 156.384 
L 115.427039 168.48 
L 115.645956 171.504 
L 116.083791 195.696 
L 116.302708 192.672 
L 116.521626 192.672 
L 116.959461 183.6 
L 117.178378 186.624 
L 117.397295 186.624 
L 117.616213 189.648 
L 118.054048 183.6 
L 118.272965 162.432 
L 118.491883 162.432 
L 118.7108 150.336 
L 118.929717 165.456 
L 119.148635 159.408 
L 119.367552 168.48 
L 119.58647 138.24 
L 119.805387 165.456 
L 120.024305 150.336 
L 120.243222 150.336 
L 120.462139 165.456 
L 120.681057 162.432 
L 120.899974 162.432 
L 121.337809 177.552 
L 121.556727 189.648 
L 121.775644 177.552 
L 122.432396 207.792 
L 122.651314 204.768 
L 123.089149 186.624 
L 123.308066 210.816 
L 123.526983 204.768 
L 123.745901 210.816 
L 123.964818 201.744 
L 124.183736 201.744 
L 124.840488 129.168 
L 125.059405 120.096 
L 125.49724 147.312 
L 125.716158 168.48 
L 125.935075 177.552 
L 126.153993 180.576 
L 126.591827 198.72 
L 127.029662 174.528 
L 127.24858 198.72 
L 127.467497 174.528 
L 128.124249 189.648 
L 128.562084 189.648 
L 128.781002 165.456 
L 129.437754 195.696 
L 129.656671 192.672 
L 130.094506 156.384 
L 130.313424 135.216 
L 130.532341 135.216 
L 130.751259 123.12 
L 131.189093 123.12 
L 131.626928 180.576 
L 131.845846 177.552 
L 132.064763 180.576 
L 132.283681 180.576 
L 132.502598 177.552 
L 132.721515 165.456 
L 133.378268 207.792 
L 133.597185 216.864 
L 133.816102 213.84 
L 134.03502 204.768 
L 134.253937 201.744 
L 134.472855 195.696 
L 134.691772 195.696 
L 135.129607 183.6 
L 135.348524 159.408 
L 135.567442 156.384 
L 135.786359 150.336 
L 136.005277 150.336 
L 136.224194 156.384 
L 136.443112 171.504 
L 136.662029 171.504 
L 136.880946 183.6 
L 137.099864 207.792 
L 137.318781 207.792 
L 137.537699 213.84 
L 137.756616 213.84 
L 138.194451 225.936 
L 138.413368 219.888 
L 138.632286 228.96 
L 138.851203 210.816 
L 139.507956 195.696 
L 139.726873 195.696 
L 140.164708 168.48 
L 140.383625 168.48 
L 140.602543 195.696 
L 141.040378 186.624 
L 141.259295 222.912 
L 141.478212 219.888 
L 141.69713 207.792 
L 141.916047 210.816 
L 142.134965 198.72 
L 142.353882 219.888 
L 142.5728 213.84 
L 142.791717 238.032 
L 143.229552 189.648 
L 143.448469 189.648 
L 143.667387 183.6 
L 143.886304 201.744 
L 144.324139 183.6 
L 144.543056 189.648 
L 144.761974 189.648 
L 145.418726 207.792 
L 145.637644 204.768 
L 145.856561 195.696 
L 146.075478 165.456 
L 146.294396 174.528 
L 146.732231 153.36 
L 146.951148 156.384 
L 147.170066 165.456 
L 147.388983 210.816 
L 148.045735 253.152 
L 148.264653 238.032 
L 148.48357 238.032 
L 148.702488 247.104 
L 148.921405 250.128 
L 149.35924 250.128 
L 149.578157 244.08 
L 150.015992 268.272 
L 150.23491 244.08 
L 150.453827 250.128 
L 150.672744 247.104 
L 150.891662 250.128 
L 151.110579 247.104 
L 151.329497 247.104 
L 151.548414 222.912 
L 151.767332 222.912 
L 151.986249 225.936 
L 152.205166 235.008 
L 152.424084 219.888 
L 152.643001 195.696 
L 152.861919 225.936 
L 153.080836 222.912 
L 153.299754 216.864 
L 153.518671 192.672 
L 153.737588 183.6 
L 154.175423 192.672 
L 154.613258 171.504 
L 154.832176 186.624 
L 155.051093 183.6 
L 155.488928 174.528 
L 155.707845 177.552 
L 155.926763 171.504 
L 156.14568 150.336 
L 156.364598 150.336 
L 156.583515 147.312 
L 156.802432 141.264 
L 157.02135 144.288 
L 157.240267 141.264 
L 157.678102 126.144 
L 158.115937 171.504 
L 158.334854 162.432 
L 158.553772 171.504 
L 158.772689 189.648 
L 158.991607 180.576 
L 159.210524 177.552 
L 159.429442 180.576 
L 159.648359 189.648 
L 159.867276 189.648 
L 160.086194 201.744 
L 160.305111 204.768 
L 160.742946 183.6 
L 160.961864 153.36 
L 161.399698 168.48 
L 161.618616 147.312 
L 161.837533 138.24 
L 162.056451 120.096 
L 162.494286 138.24 
L 162.713203 129.168 
L 162.93212 114.048 
L 163.151038 129.168 
L 163.588873 138.24 
L 163.80779 159.408 
L 164.464542 126.144 
L 164.902377 162.432 
L 165.340212 168.48 
L 165.778047 189.648 
L 165.996964 180.576 
L 166.215882 183.6 
L 166.434799 174.528 
L 166.653717 195.696 
L 166.872634 192.672 
L 167.091552 204.768 
L 167.529386 162.432 
L 167.748304 159.408 
L 167.967221 174.528 
L 168.186139 204.768 
L 168.405056 195.696 
L 168.623974 201.744 
L 168.842891 183.6 
L 169.499643 162.432 
L 169.718561 144.288 
L 169.937478 156.384 
L 170.156396 156.384 
L 170.375313 159.408 
L 170.59423 150.336 
L 170.813148 150.336 
L 171.032065 144.288 
L 171.4699 159.408 
L 171.907735 159.408 
L 172.34557 141.264 
L 172.564487 132.192 
L 172.783405 117.072 
L 173.002322 138.24 
L 173.22124 135.216 
L 173.877992 171.504 
L 174.096909 162.432 
L 174.315827 165.456 
L 174.753661 189.648 
L 174.972579 186.624 
L 175.629331 156.384 
L 175.848249 165.456 
L 176.067166 180.576 
L 176.286083 171.504 
L 176.723918 186.624 
L 176.942836 177.552 
L 177.161753 180.576 
L 177.380671 180.576 
L 177.599588 189.648 
L 178.037423 174.528 
L 178.25634 177.552 
L 178.475258 192.672 
L 178.694175 195.696 
L 178.913093 204.768 
L 179.13201 201.744 
L 179.350927 186.624 
L 179.569845 195.696 
L 179.788762 189.648 
L 180.00768 144.288 
L 180.664432 129.168 
L 180.883349 114.048 
L 181.102267 108 
L 181.321184 89.856 
L 181.540102 89.856 
L 181.759019 65.664 
L 181.977937 56.592 
L 182.196854 71.712 
L 182.634689 83.808 
L 182.853606 117.072 
L 183.072524 129.168 
L 183.729276 68.688 
L 183.948193 74.736 
L 184.167111 74.736 
L 184.386028 89.856 
L 184.604946 120.096 
L 184.823863 123.12 
L 185.042781 129.168 
L 185.480615 117.072 
L 185.699533 98.928 
L 185.91845 98.928 
L 186.137368 108 
L 186.356285 86.832 
L 186.575203 104.976 
L 186.79412 138.24 
L 187.013037 117.072 
L 187.231955 120.096 
L 187.450872 111.024 
L 187.66979 123.12 
L 187.888707 120.096 
L 188.545459 141.264 
L 188.764377 123.12 
L 188.983294 135.216 
L 189.202212 138.24 
L 189.421129 138.24 
L 189.858964 98.928 
L 190.077881 98.928 
L 190.296799 108 
L 190.515716 111.024 
L 190.734634 132.192 
L 191.172469 132.192 
L 191.391386 126.144 
L 191.610303 144.288 
L 192.048138 117.072 
L 192.267056 132.192 
L 192.485973 132.192 
L 192.704891 129.168 
L 192.923808 135.216 
L 193.142725 174.528 
L 193.361643 165.456 
L 193.799478 171.504 
L 194.45623 204.768 
L 194.675147 198.72 
L 194.894065 198.72 
L 195.112982 204.768 
L 195.3319 204.768 
L 195.550817 195.696 
L 196.207569 244.08 
L 196.426487 244.08 
L 196.645404 238.032 
L 196.864322 244.08 
L 197.958909 213.84 
L 198.177826 216.864 
L 198.396744 180.576 
L 198.615661 171.504 
L 198.834579 168.48 
L 199.053496 153.36 
L 199.272413 120.096 
L 199.491331 117.072 
L 199.710248 120.096 
L 199.929166 104.976 
L 200.585918 120.096 
L 200.804835 135.216 
L 201.023753 141.264 
L 201.24267 141.264 
L 201.461588 156.384 
L 201.680505 153.36 
L 201.899423 162.432 
L 202.11834 213.84 
L 202.556175 231.984 
L 202.775092 225.936 
L 203.212927 198.72 
L 203.431845 189.648 
L 203.650762 195.696 
L 203.869679 192.672 
L 204.088597 204.768 
L 204.526432 198.72 
L 204.964267 180.576 
L 205.183184 189.648 
L 205.402101 192.672 
L 205.839936 183.6 
L 206.058854 183.6 
L 206.277771 186.624 
L 206.496689 201.744 
L 206.715606 207.792 
L 206.934523 192.672 
L 207.153441 192.672 
L 207.372358 168.48 
L 207.591276 168.48 
L 207.810193 153.36 
L 208.029111 150.336 
L 208.248028 162.432 
L 208.90478 153.36 
L 209.123698 195.696 
L 209.342615 186.624 
L 209.561533 186.624 
L 209.78045 168.48 
L 209.999367 174.528 
L 210.437202 174.528 
L 210.65612 171.504 
L 210.875037 171.504 
L 211.093955 207.792 
L 211.531789 207.792 
L 211.750707 210.816 
L 211.969624 222.912 
L 212.188542 222.912 
L 212.407459 213.84 
L 212.626377 213.84 
L 212.845294 216.864 
L 213.064211 225.936 
L 213.283129 225.936 
L 213.502046 216.864 
L 213.720964 216.864 
L 213.939881 201.744 
L 214.158799 201.744 
L 214.377716 189.648 
L 214.596633 192.672 
L 214.815551 177.552 
L 215.034468 189.648 
L 215.253386 183.6 
L 215.472303 198.72 
L 215.69122 186.624 
L 215.910138 186.624 
L 216.129055 180.576 
L 216.347973 198.72 
L 216.56689 162.432 
L 216.785808 159.408 
L 217.004725 177.552 
L 217.223642 177.552 
L 217.44256 156.384 
L 217.661477 156.384 
L 217.880395 147.312 
L 218.099312 144.288 
L 218.537147 150.336 
L 218.756064 159.408 
L 218.974982 183.6 
L 219.193899 186.624 
L 219.850652 156.384 
L 220.069569 153.36 
L 220.288486 156.384 
L 220.507404 162.432 
L 220.726321 144.288 
L 220.945239 159.408 
L 221.164156 156.384 
L 221.383074 156.384 
L 221.601991 183.6 
L 221.820908 153.36 
L 222.039826 162.432 
L 222.258743 153.36 
L 222.477661 150.336 
L 222.696578 162.432 
L 223.134413 138.24 
L 223.35333 141.264 
L 224.010083 180.576 
L 224.229 174.528 
L 224.666835 210.816 
L 224.885752 192.672 
L 225.10467 186.624 
L 225.323587 210.816 
L 225.761422 165.456 
L 226.199257 180.576 
L 226.418174 192.672 
L 226.637092 192.672 
L 227.074927 231.984 
L 227.512762 241.056 
L 227.731679 241.056 
L 228.169514 195.696 
L 228.388431 171.504 
L 228.607349 174.528 
L 229.045184 216.864 
L 229.264101 219.888 
L 229.483018 225.936 
L 230.577606 198.72 
L 230.796523 195.696 
L 231.234358 204.768 
L 231.453275 186.624 
L 231.672193 186.624 
L 232.110028 198.72 
L 232.328945 177.552 
L 232.547862 183.6 
L 232.76678 177.552 
L 233.423532 192.672 
L 233.64245 189.648 
L 233.861367 171.504 
L 234.080284 171.504 
L 234.299202 159.408 
L 234.518119 138.24 
L 234.737037 135.216 
L 235.393789 165.456 
L 235.831624 177.552 
L 236.050541 171.504 
L 236.269459 186.624 
L 236.488376 168.48 
L 236.707294 177.552 
L 237.145128 168.48 
L 237.364046 171.504 
L 237.582963 183.6 
L 238.020798 165.456 
L 238.239716 168.48 
L 238.67755 186.624 
L 238.896468 177.552 
L 239.115385 177.552 
L 239.334303 183.6 
L 239.55322 174.528 
L 239.772138 177.552 
L 239.991055 183.6 
L 240.209972 153.36 
L 240.866725 192.672 
L 241.085642 174.528 
L 241.30456 168.48 
L 241.523477 147.312 
L 241.742394 165.456 
L 241.961312 165.456 
L 242.399147 222.912 
L 242.618064 210.816 
L 242.836982 207.792 
L 243.055899 213.84 
L 243.493734 195.696 
L 243.712651 180.576 
L 243.931569 180.576 
L 244.150486 171.504 
L 244.369404 180.576 
L 244.588321 168.48 
L 244.807238 180.576 
L 245.026156 162.432 
L 245.245073 165.456 
L 245.463991 162.432 
L 245.682908 138.24 
L 245.901826 141.264 
L 246.120743 123.12 
L 246.33966 123.12 
L 246.558578 126.144 
L 246.777495 135.216 
L 246.996413 132.192 
L 247.434248 156.384 
L 247.653165 165.456 
L 247.872082 156.384 
L 248.309917 195.696 
L 248.528835 195.696 
L 248.747752 183.6 
L 248.96667 204.768 
L 249.185587 198.72 
L 249.404504 171.504 
L 249.623422 168.48 
L 249.842339 174.528 
L 250.061257 174.528 
L 250.280174 192.672 
L 250.499092 186.624 
L 251.374761 207.792 
L 251.593679 198.72 
L 252.250431 228.96 
L 252.688266 198.72 
L 252.907183 201.744 
L 253.345018 177.552 
L 253.563936 168.48 
L 253.782853 168.48 
L 254.00177 177.552 
L 254.220688 195.696 
L 254.439605 192.672 
L 254.658523 195.696 
L 254.87744 189.648 
L 255.096358 174.528 
L 255.534192 186.624 
L 255.75311 186.624 
L 256.190945 195.696 
L 256.409862 210.816 
L 257.066614 177.552 
L 257.285532 177.552 
L 257.504449 171.504 
L 257.942284 144.288 
L 258.161201 138.24 
L 258.380119 138.24 
L 258.599036 156.384 
L 258.817954 147.312 
L 259.036871 162.432 
L 259.255789 162.432 
L 259.474706 156.384 
L 259.693623 168.48 
L 259.912541 162.432 
L 260.350376 168.48 
L 260.569293 162.432 
L 260.788211 168.48 
L 261.007128 183.6 
L 261.226045 180.576 
L 261.444963 186.624 
L 261.66388 180.576 
L 261.882798 183.6 
L 262.101715 171.504 
L 262.320633 174.528 
L 262.53955 171.504 
L 262.758467 174.528 
L 262.977385 171.504 
L 263.196302 174.528 
L 263.634137 201.744 
L 263.853055 198.72 
L 264.071972 189.648 
L 264.290889 195.696 
L 264.509807 192.672 
L 264.728724 210.816 
L 264.947642 207.792 
L 265.385477 168.48 
L 265.604394 174.528 
L 265.823311 174.528 
L 266.042229 177.552 
L 266.261146 174.528 
L 266.480064 168.48 
L 266.698981 189.648 
L 266.917899 162.432 
L 267.136816 168.48 
L 267.355733 159.408 
L 267.793568 165.456 
L 268.012486 174.528 
L 268.231403 165.456 
L 268.450321 177.552 
L 268.888155 222.912 
L 269.107073 213.84 
L 269.544908 219.888 
L 269.763825 213.84 
L 269.982743 192.672 
L 270.20166 201.744 
L 270.420577 201.744 
L 271.07733 162.432 
L 271.296247 153.36 
L 271.515165 153.36 
L 271.734082 162.432 
L 271.952999 183.6 
L 272.171917 165.456 
L 272.390834 180.576 
L 273.047587 201.744 
L 273.266504 186.624 
L 273.704339 135.216 
L 273.923256 123.12 
L 274.142174 120.096 
L 274.361091 147.312 
L 274.580009 135.216 
L 274.798926 156.384 
L 275.236761 156.384 
L 275.455678 177.552 
L 275.674596 180.576 
L 275.893513 165.456 
L 276.112431 159.408 
L 276.769183 174.528 
L 276.9881 150.336 
L 277.207018 150.336 
L 277.425935 159.408 
L 277.644853 156.384 
L 277.86377 159.408 
L 278.301605 174.528 
L 278.520522 117.072 
L 278.73944 132.192 
L 278.958357 114.048 
L 279.177275 120.096 
L 279.396192 132.192 
L 279.834027 120.096 
L 280.052944 123.12 
L 280.271862 123.12 
L 280.490779 117.072 
L 280.709697 120.096 
L 280.928614 129.168 
L 281.147531 126.144 
L 281.366449 114.048 
L 281.585366 117.072 
L 281.804284 123.12 
L 282.023201 123.12 
L 282.461036 144.288 
L 282.679953 156.384 
L 282.898871 156.384 
L 283.117788 162.432 
L 283.336706 159.408 
L 283.774541 147.312 
L 283.993458 153.36 
L 284.212375 144.288 
L 284.65021 159.408 
L 284.869128 150.336 
L 285.088045 147.312 
L 285.306963 153.36 
L 285.52588 138.24 
L 285.744797 135.216 
L 285.963715 135.216 
L 286.620467 168.48 
L 286.839385 174.528 
L 287.058302 174.528 
L 287.277219 156.384 
L 287.496137 159.408 
L 287.715054 174.528 
L 287.933972 171.504 
L 288.371807 207.792 
L 288.590724 189.648 
L 288.809641 201.744 
L 289.028559 201.744 
L 289.247476 180.576 
L 289.466394 210.816 
L 289.685311 195.696 
L 289.904229 198.72 
L 290.123146 198.72 
L 290.342063 195.696 
L 290.560981 186.624 
L 290.779898 171.504 
L 290.998816 180.576 
L 291.217733 183.6 
L 291.436651 177.552 
L 291.655568 165.456 
L 291.874485 165.456 
L 292.093403 177.552 
L 292.31232 156.384 
L 292.531238 150.336 
L 292.750155 114.048 
L 292.969073 117.072 
L 293.18799 98.928 
L 293.406907 59.616 
L 293.625825 59.616 
L 293.844742 108 
L 294.06366 111.024 
L 294.282577 111.024 
L 294.501495 108 
L 294.720412 108 
L 294.939329 123.12 
L 295.158247 126.144 
L 295.377164 120.096 
L 295.596082 120.096 
L 295.814999 123.12 
L 296.033917 135.216 
L 296.252834 138.24 
L 296.471751 165.456 
L 296.690669 168.48 
L 296.909586 168.48 
L 297.347421 126.144 
L 297.566339 126.144 
L 297.785256 120.096 
L 298.004173 92.88 
L 298.223091 92.88 
L 298.442008 89.856 
L 298.660926 77.76 
L 298.879843 95.904 
L 299.09876 80.784 
L 299.317678 56.592 
L 299.536595 59.616 
L 300.193348 74.736 
L 300.412265 89.856 
L 300.8501 53.568 
L 301.944687 98.928 
L 302.163604 101.952 
L 302.382522 108 
L 302.601439 98.928 
L 302.820357 108 
L 303.039274 123.12 
L 303.258192 126.144 
L 303.696026 126.144 
L 303.914944 138.24 
L 304.133861 138.24 
L 304.352779 159.408 
L 304.571696 162.432 
L 304.790614 159.408 
L 305.447366 186.624 
L 305.666283 177.552 
L 305.885201 186.624 
L 306.104118 177.552 
L 306.323036 162.432 
L 306.76087 150.336 
L 306.979788 150.336 
L 307.417623 117.072 
L 307.63654 120.096 
L 307.855458 135.216 
L 308.074375 135.216 
L 308.293292 144.288 
L 308.731127 138.24 
L 308.950045 132.192 
L 309.168962 108 
L 309.38788 117.072 
L 309.606797 101.952 
L 309.825714 174.528 
L 310.044632 168.48 
L 310.263549 186.624 
L 310.482467 183.6 
L 310.701384 192.672 
L 310.920302 186.624 
L 311.139219 189.648 
L 312.014889 225.936 
L 312.233806 241.056 
L 312.671641 253.152 
L 313.109476 244.08 
L 313.328393 244.08 
L 313.766228 213.84 
L 314.42298 247.104 
L 314.641898 241.056 
L 315.29865 277.344 
L 315.517568 250.128 
L 315.736485 207.792 
L 316.17432 189.648 
L 316.393237 183.6 
L 316.612155 186.624 
L 317.04999 235.008 
L 317.268907 198.72 
L 317.487824 195.696 
L 317.706742 198.72 
L 317.925659 204.768 
L 318.144577 186.624 
L 318.363494 192.672 
L 318.582412 207.792 
L 318.801329 207.792 
L 319.020246 216.864 
L 319.239164 213.84 
L 319.676999 204.768 
L 319.895916 207.792 
L 320.114834 222.912 
L 320.333751 216.864 
L 320.552668 216.864 
L 320.771586 213.84 
L 320.990503 207.792 
L 321.428338 189.648 
L 321.647256 195.696 
L 321.866173 213.84 
L 322.08509 201.744 
L 322.304008 204.768 
L 322.522925 195.696 
L 322.741843 168.48 
L 322.96076 168.48 
L 323.179678 183.6 
L 323.398595 186.624 
L 323.83643 195.696 
L 324.055347 186.624 
L 324.274265 198.72 
L 324.493182 180.576 
L 324.7121 150.336 
L 324.931017 156.384 
L 325.149934 132.192 
L 325.368852 129.168 
L 325.587769 114.048 
L 325.806687 114.048 
L 326.025604 117.072 
L 326.682356 132.192 
L 326.901274 111.024 
L 327.120191 114.048 
L 327.339109 114.048 
L 327.558026 135.216 
L 327.776944 114.048 
L 327.995861 111.024 
L 328.214778 117.072 
L 328.433696 114.048 
L 328.652613 135.216 
L 328.871531 144.288 
L 329.090448 135.216 
L 329.309366 138.24 
L 329.7472 165.456 
L 329.966118 156.384 
L 330.403953 156.384 
L 330.62287 174.528 
L 330.841788 180.576 
L 331.49854 159.408 
L 331.717457 144.288 
L 331.936375 144.288 
L 332.155292 159.408 
L 332.593127 141.264 
L 332.812044 144.288 
L 333.249879 129.168 
L 333.468797 111.024 
L 334.125549 126.144 
L 334.563384 120.096 
L 335.001219 129.168 
L 335.220136 123.12 
L 335.439054 126.144 
L 335.657971 114.048 
L 336.095806 123.12 
L 336.314723 123.12 
L 336.533641 104.976 
L 336.752558 114.048 
L 336.971476 114.048 
L 337.40931 120.096 
L 337.628228 129.168 
L 338.066063 108 
L 338.28498 123.12 
L 338.503898 129.168 
L 338.722815 153.36 
L 338.941732 144.288 
L 339.16065 171.504 
L 339.598485 189.648 
L 340.036319 189.648 
L 340.255237 207.792 
L 340.474154 192.672 
L 340.693072 204.768 
L 340.911989 201.744 
L 341.130907 207.792 
L 341.349824 201.744 
L 341.568741 207.792 
L 341.787659 207.792 
L 342.006576 213.84 
L 342.225494 204.768 
L 342.444411 177.552 
L 342.663329 174.528 
L 342.882246 162.432 
L 343.101163 168.48 
L 343.320081 162.432 
L 343.538998 183.6 
L 343.757916 219.888 
L 343.976833 216.864 
L 344.195751 222.912 
L 344.414668 219.888 
L 344.633585 213.84 
L 344.852503 192.672 
L 345.07142 195.696 
L 345.290338 174.528 
L 345.509255 171.504 
L 345.728173 177.552 
L 346.166007 201.744 
L 346.384925 201.744 
L 346.603842 210.816 
L 346.82276 231.984 
L 347.041677 241.056 
L 347.260595 244.08 
L 347.479512 238.032 
L 347.698429 189.648 
L 348.136264 183.6 
L 348.355182 186.624 
L 348.574099 186.624 
L 348.793017 174.528 
L 349.011934 195.696 
L 349.230851 180.576 
L 349.449769 189.648 
L 349.887604 177.552 
L 350.325439 192.672 
L 350.544356 213.84 
L 350.763273 198.72 
L 350.982191 198.72 
L 351.201108 213.84 
L 351.420026 195.696 
L 351.638943 189.648 
L 351.857861 171.504 
L 352.076778 171.504 
L 352.295695 177.552 
L 352.952448 168.48 
L 353.171365 168.48 
L 353.390283 162.432 
L 353.6092 165.456 
L 353.828117 162.432 
L 354.047035 162.432 
L 354.265952 150.336 
L 354.48487 162.432 
L 354.703787 162.432 
L 354.922705 177.552 
L 355.141622 162.432 
L 355.579457 180.576 
L 355.798374 183.6 
L 356.017292 171.504 
L 356.236209 171.504 
L 356.674044 165.456 
L 356.892961 156.384 
L 357.111879 162.432 
L 357.330796 159.408 
L 357.768631 144.288 
L 357.987549 150.336 
L 358.206466 150.336 
L 358.425383 135.216 
L 358.644301 132.192 
L 358.863218 126.144 
L 359.082136 132.192 
L 359.301053 123.12 
L 359.519971 129.168 
L 359.738888 141.264 
L 359.957805 180.576 
L 360.176723 177.552 
L 360.39564 204.768 
L 360.833475 171.504 
L 361.052393 171.504 
L 361.27131 177.552 
L 361.490227 195.696 
L 361.709145 189.648 
L 362.14698 207.792 
L 362.365897 186.624 
L 362.584815 201.744 
L 362.803732 235.008 
L 363.022649 210.816 
L 363.460484 198.72 
L 363.679402 201.744 
L 364.117237 219.888 
L 364.336154 213.84 
L 364.555071 216.864 
L 364.773989 228.96 
L 364.992906 231.984 
L 365.211824 222.912 
L 365.430741 225.936 
L 365.649659 219.888 
L 366.087493 201.744 
L 366.306411 198.72 
L 366.525328 225.936 
L 366.963163 244.08 
L 367.619915 228.96 
L 368.276668 250.128 
L 369.371255 180.576 
L 369.590172 174.528 
L 369.80909 177.552 
L 370.028007 198.72 
L 370.246925 192.672 
L 370.465842 192.672 
L 370.684759 207.792 
L 370.903677 201.744 
L 371.122594 213.84 
L 371.341512 198.72 
L 371.560429 201.744 
L 371.779347 219.888 
L 372.436099 241.056 
L 372.655016 228.96 
L 372.873934 244.08 
L 373.092851 247.104 
L 373.311769 247.104 
L 373.530686 244.08 
L 373.749603 247.104 
L 373.968521 247.104 
L 374.187438 244.08 
L 374.406356 265.248 
L 374.844191 259.2 
L 375.063108 253.152 
L 375.282025 277.344 
L 375.500943 277.344 
L 375.71986 268.272 
L 375.938778 274.32 
L 376.59553 274.32 
L 376.814447 289.44 
L 377.033365 286.416 
L 377.252282 265.248 
L 377.4712 289.44 
L 377.690117 295.488 
L 378.127952 295.488 
L 378.346869 286.416 
L 378.565787 271.296 
L 378.784704 280.368 
L 379.003622 283.392 
L 379.441457 265.248 
L 379.660374 256.176 
L 379.879291 262.224 
L 380.098209 274.32 
L 380.536044 280.368 
L 380.754961 286.416 
L 381.192796 274.32 
L 381.411713 286.416 
L 382.068466 268.272 
L 382.5063 268.272 
L 382.725218 250.128 
L 382.944135 259.2 
L 383.163053 256.176 
L 383.38197 235.008 
L 383.600888 238.032 
L 383.819805 247.104 
L 384.038722 268.272 
L 384.25764 247.104 
L 384.476557 250.128 
L 384.695475 225.936 
L 384.914392 231.984 
L 385.352227 183.6 
L 385.571144 195.696 
L 386.227897 186.624 
L 386.446814 174.528 
L 386.665732 177.552 
L 386.884649 168.48 
L 387.103566 168.48 
L 387.322484 174.528 
L 387.760319 168.48 
L 387.979236 168.48 
L 388.635988 186.624 
L 388.854906 186.624 
L 389.073823 171.504 
L 389.292741 183.6 
L 389.730576 189.648 
L 389.949493 207.792 
L 390.16841 210.816 
L 390.387328 207.792 
L 390.606245 207.792 
L 390.825163 210.816 
L 391.04408 210.816 
L 391.262998 213.84 
L 391.481915 195.696 
L 391.91975 201.744 
L 392.138667 192.672 
L 392.357585 198.72 
L 392.576502 225.936 
L 392.79542 228.96 
L 393.014337 228.96 
L 393.233254 253.152 
L 393.452172 253.152 
L 393.671089 238.032 
L 394.108924 253.152 
L 394.327842 262.224 
L 394.546759 265.248 
L 394.984594 244.08 
L 395.641346 274.32 
L 395.860264 277.344 
L 396.079181 274.32 
L 396.735933 247.104 
L 396.954851 250.128 
L 397.173768 241.056 
L 397.392686 241.056 
L 397.611603 250.128 
L 397.83052 268.272 
L 398.049438 253.152 
L 398.268355 250.128 
L 398.487273 253.152 
L 398.487273 253.152 
" clip-path="url(#p9755b76854)" style="fill: none; stroke: #1f77b4; stroke-width: 1.5; stroke-linecap: square"/>
   </g>
   <g id="patch_3">
    <path d="M 57.6 307.584 
L 57.6 41.472 
" style="fill: none; stroke: #000000; stroke-width: 0.8; stroke-linejoin: miter; stroke-linecap: square"/>
   </g>
   <g id="patch_4">
    <path d="M 414.72 307.584 
L 414.72 41.472 
" style="fill: none; stroke: #000000; stroke-width: 0.8; stroke-linejoin: miter; stroke-linecap: square"/>
   </g>
   <g id="patch_5">
    <path d="M 57.6 307.584 
L 414.72 307.584 
" style="fill: none; stroke: #000000; stroke-width: 0.8; stroke-linejoin: miter; stroke-linecap: square"/>
   </g>
   <g id="patch_6">
    <path d="M 57.6 41.472 
L 414.72 41.472 
" style="fill: none; stroke: #000000; stroke-width: 0.8; stroke-linejoin: miter; stroke-linecap: square"/>
   </g>
   <g id="text_19">
    <!-- Simulated Anealling Cost -->
    <g transform="translate(160.8 35.472)scale(0.12 -0.12)">
     <defs>
      <path id="DejaVuSans-53" d="M 3425 4513 
L 3425 3897 
Q 3066 4069 2747 4153 
Q 2428 4238 2131 4238 
Q 1616 4238 1336 4038 
Q 1056 3838 1056 3469 
Q 1056 3159 1242 3001 
Q 1428 2844 1947 2747 
L 2328 2669 
Q 3034 2534 3370 2195 
Q 3706 1856 3706 1288 
Q 3706 609 3251 259 
Q 2797 -91 1919 -91 
Q 1588 -91 1214 -16 
Q 841 59 441 206 
L 441 856 
Q 825 641 1194 531 
Q 1563 422 1919 422 
Q 2459 422 2753 634 
Q 3047 847 3047 1241 
Q 3047 1584 2836 1778 
Q 2625 1972 2144 2069 
L 1759 2144 
Q 1053 2284 737 2584 
Q 422 2884 422 3419 
Q 422 4038 858 4394 
Q 1294 4750 2059 4750 
Q 2388 4750 2728 4690 
Q 3069 4631 3425 4513 
z
" transform="scale(0.015625)"/>
      <path id="DejaVuSans-69" d="M 603 3500 
L 1178 3500 
L 1178 0 
L 603 0 
L 603 3500 
z
M 603 4863 
L 1178 4863 
L 1178 4134 
L 603 4134 
L 603 4863 
z
" transform="scale(0.015625)"/>
      <path id="DejaVuSans-65" d="M 3597 1894 
L 3597 1613 
L 953 1613 
Q 991 1019 1311 708 
Q 1631 397 2203 397 
Q 2534 397 2845 478 
Q 3156 559 3463 722 
L 3463 178 
Q 3153 47 2828 -22 
Q 2503 -91 2169 -91 
Q 1331 -91 842 396 
Q 353 884 353 1716 
Q 353 2575 817 3079 
Q 1281 3584 2069 3584 
Q 2775 3584 3186 3129 
Q 3597 2675 3597 1894 
z
M 3022 2063 
Q 3016 2534 2758 2815 
Q 2500 3097 2075 3097 
Q 1594 3097 1305 2825 
Q 1016 2553 972 2059 
L 3022 2063 
z
" transform="scale(0.015625)"/>
      <path id="DejaVuSans-64" d="M 2906 2969 
L 2906 4863 
L 3481 4863 
L 3481 0 
L 2906 0 
L 2906 525 
Q 2725 213 2448 61 
Q 2172 -91 1784 -91 
Q 1150 -91 751 415 
Q 353 922 353 1747 
Q 353 2572 751 3078 
Q 1150 3584 1784 3584 
Q 2172 3584 2448 3432 
Q 2725 3281 2906 2969 
z
M 947 1747 
Q 947 1113 1208 752 
Q 1469 391 1925 391 
Q 2381 391 2643 752 
Q 2906 1113 2906 1747 
Q 2906 2381 2643 2742 
Q 2381 3103 1925 3103 
Q 1469 3103 1208 2742 
Q 947 2381 947 1747 
z
" transform="scale(0.015625)"/>
      <path id="DejaVuSans-41" d="M 2188 4044 
L 1331 1722 
L 3047 1722 
L 2188 4044 
z
M 1831 4666 
L 2547 4666 
L 4325 0 
L 3669 0 
L 3244 1197 
L 1141 1197 
L 716 0 
L 50 0 
L 1831 4666 
z
" transform="scale(0.015625)"/>
      <path id="DejaVuSans-67" d="M 2906 1791 
Q 2906 2416 2648 2759 
Q 2391 3103 1925 3103 
Q 1463 3103 1205 2759 
Q 947 2416 947 1791 
Q 947 1169 1205 825 
Q 1463 481 1925 481 
Q 2391 481 2648 825 
Q 2906 1169 2906 1791 
z
M 3481 434 
Q 3481 -459 3084 -895 
Q 2688 -1331 1869 -1331 
Q 1566 -1331 1297 -1286 
Q 1028 -1241 775 -1147 
L 775 -588 
Q 1028 -725 1275 -790 
Q 1522 -856 1778 -856 
Q 2344 -856 2625 -561 
Q 2906 -266 2906 331 
L 2906 616 
Q 2728 306 2450 153 
Q 2172 0 1784 0 
Q 1141 0 747 490 
Q 353 981 353 1791 
Q 353 2603 747 3093 
Q 1141 3584 1784 3584 
Q 2172 3584 2450 3431 
Q 2728 3278 2906 2969 
L 2906 3500 
L 3481 3500 
L 3481 434 
z
" transform="scale(0.015625)"/>
      <path id="DejaVuSans-43" d="M 4122 4306 
L 4122 3641 
Q 3803 3938 3442 4084 
Q 3081 4231 2675 4231 
Q 1875 4231 1450 3742 
Q 1025 3253 1025 2328 
Q 1025 1406 1450 917 
Q 1875 428 2675 428 
Q 3081 428 3442 575 
Q 3803 722 4122 1019 
L 4122 359 
Q 3791 134 3420 21 
Q 3050 -91 2638 -91 
Q 1578 -91 968 557 
Q 359 1206 359 2328 
Q 359 3453 968 4101 
Q 1578 4750 2638 4750 
Q 3056 4750 3426 4639 
Q 3797 4528 4122 4306 
z
" transform="scale(0.015625)"/>
     </defs>
     <use xlink:href="#DejaVuSans-53"/>
     <use xlink:href="#DejaVuSans-69" x="63.476562"/>
     <use xlink:href="#DejaVuSans-6d" x="91.259766"/>
     <use xlink:href="#DejaVuSans-75" x="188.671875"/>
     <use xlink:href="#DejaVuSans-6c" x="252.050781"/>
     <use xlink:href="#DejaVuSans-61" x="279.833984"/>
     <use xlink:href="#DejaVuSans-74" x="341.113281"/>
     <use xlink:href="#DejaVuSans-65" x="380.322266"/>
     <use xlink:href="#DejaVuSans-64" x="441.845703"/>
     <use xlink:href="#DejaVuSans-20" x="505.322266"/>
     <use xlink:href="#DejaVuSans-41" x="537.109375"/>
     <use xlink:href="#DejaVuSans-6e" x="605.517578"/>
     <use xlink:href="#DejaVuSans-65" x="668.896484"/>
     <use xlink:href="#DejaVuSans-61" x="730.419922"/>
     <use xlink:href="#DejaVuSans-6c" x="791.699219"/>
     <use xlink:href="#DejaVuSans-6c" x="819.482422"/>
     <use xlink:href="#DejaVuSans-69" x="847.265625"/>
     <use xlink:href="#DejaVuSans-6e" x="875.048828"/>
     <use xlink:href="#DejaVuSans-67" x="938.427734"/>
     <use xlink:href="#DejaVuSans-20" x="1001.904297"/>
     <use xlink:href="#DejaVuSans-43" x="1033.691406"/>
     <use xlink:href="#DejaVuSans-6f" x="1103.515625"/>
     <use xlink:href="#DejaVuSans-73" x="1164.697266"/>
     <use xlink:href="#DejaVuSans-74" x="1216.796875"/>
    </g>
   </g>
  </g>
 </g>
 <defs>
  <clipPath id="p9755b76854">
   <rect x="57.6" y="41.472" width="357.12" height="266.112"/>
  </clipPath>
 </defs>
</svg>
