<?xml version="1.0" encoding="utf-8" standalone="no"?>
<!DOCTYPE svg PUBLIC "-//W3C//DTD SVG 1.1//EN"
  "http://www.w3.org/Graphics/SVG/1.1/DTD/svg11.dtd">
<svg xmlns:xlink="http://www.w3.org/1999/xlink" width="460.8pt" height="345.6pt" viewBox="0 0 460.8 345.6" xmlns="http://www.w3.org/2000/svg" version="1.1">
 <metadata>
  <rdf:RDF xmlns:dc="http://purl.org/dc/elements/1.1/" xmlns:cc="http://creativecommons.org/ns#" xmlns:rdf="http://www.w3.org/1999/02/22-rdf-syntax-ns#">
   <cc:Work>
    <dc:type rdf:resource="http://purl.org/dc/dcmitype/StillImage"/>
    <dc:date>2022-06-01T08:04:55.302584</dc:date>
    <dc:format>image/svg+xml</dc:format>
    <dc:creator>
     <cc:Agent>
      <dc:title>Matplotlib v3.5.1, https://matplotlib.org/</dc:title>
     </cc:Agent>
    </dc:creator>
   </cc:Work>
  </rdf:RDF>
 </metadata>
 <defs>
  <style type="text/css">*{stroke-linejoin: round; stroke-linecap: butt}</style>
 </defs>
 <g id="figure_1">
  <g id="patch_1">
   <path d="M 0 345.6 
L 460.8 345.6 
L 460.8 0 
L 0 0 
z
" style="fill: #ffffff"/>
  </g>
  <g id="axes_1">
   <g id="patch_2">
    <path d="M 57.6 307.584 
L 414.72 307.584 
L 414.72 41.472 
L 57.6 41.472 
z
" style="fill: #ffffff"/>
   </g>
   <g id="matplotlib.axis_1">
    <g id="xtick_1">
     <g id="line2d_1">
      <defs>
       <path id="md9158b3f45" d="M 0 0 
L 0 3.5 
" style="stroke: #000000; stroke-width: 0.8"/>
      </defs>
      <g>
       <use xlink:href="#md9158b3f45" x="73.832727" y="307.584" style="stroke: #000000; stroke-width: 0.8"/>
      </g>
     </g>
     <g id="text_1">
      <!-- 0 -->
      <g transform="translate(70.651477 322.182437)scale(0.1 -0.1)">
       <defs>
        <path id="DejaVuSans-30" d="M 2034 4250 
Q 1547 4250 1301 3770 
Q 1056 3291 1056 2328 
Q 1056 1369 1301 889 
Q 1547 409 2034 409 
Q 2525 409 2770 889 
Q 3016 1369 3016 2328 
Q 3016 3291 2770 3770 
Q 2525 4250 2034 4250 
z
M 2034 4750 
Q 2819 4750 3233 4129 
Q 3647 3509 3647 2328 
Q 3647 1150 3233 529 
Q 2819 -91 2034 -91 
Q 1250 -91 836 529 
Q 422 1150 422 2328 
Q 422 3509 836 4129 
Q 1250 4750 2034 4750 
z
" transform="scale(0.015625)"/>
       </defs>
       <use xlink:href="#DejaVuSans-30"/>
      </g>
     </g>
    </g>
    <g id="xtick_2">
     <g id="line2d_2">
      <g>
       <use xlink:href="#md9158b3f45" x="127.726244" y="307.584" style="stroke: #000000; stroke-width: 0.8"/>
      </g>
     </g>
     <g id="text_2">
      <!-- 500 -->
      <g transform="translate(118.182494 322.182437)scale(0.1 -0.1)">
       <defs>
        <path id="DejaVuSans-35" d="M 691 4666 
L 3169 4666 
L 3169 4134 
L 1269 4134 
L 1269 2991 
Q 1406 3038 1543 3061 
Q 1681 3084 1819 3084 
Q 2600 3084 3056 2656 
Q 3513 2228 3513 1497 
Q 3513 744 3044 326 
Q 2575 -91 1722 -91 
Q 1428 -91 1123 -41 
Q 819 9 494 109 
L 494 744 
Q 775 591 1075 516 
Q 1375 441 1709 441 
Q 2250 441 2565 725 
Q 2881 1009 2881 1497 
Q 2881 1984 2565 2268 
Q 2250 2553 1709 2553 
Q 1456 2553 1204 2497 
Q 953 2441 691 2322 
L 691 4666 
z
" transform="scale(0.015625)"/>
       </defs>
       <use xlink:href="#DejaVuSans-35"/>
       <use xlink:href="#DejaVuSans-30" x="63.623047"/>
       <use xlink:href="#DejaVuSans-30" x="127.246094"/>
      </g>
     </g>
    </g>
    <g id="xtick_3">
     <g id="line2d_3">
      <g>
       <use xlink:href="#md9158b3f45" x="181.619761" y="307.584" style="stroke: #000000; stroke-width: 0.8"/>
      </g>
     </g>
     <g id="text_3">
      <!-- 1000 -->
      <g transform="translate(168.894761 322.182437)scale(0.1 -0.1)">
       <defs>
        <path id="DejaVuSans-31" d="M 794 531 
L 1825 531 
L 1825 4091 
L 703 3866 
L 703 4441 
L 1819 4666 
L 2450 4666 
L 2450 531 
L 3481 531 
L 3481 0 
L 794 0 
L 794 531 
z
" transform="scale(0.015625)"/>
       </defs>
       <use xlink:href="#DejaVuSans-31"/>
       <use xlink:href="#DejaVuSans-30" x="63.623047"/>
       <use xlink:href="#DejaVuSans-30" x="127.246094"/>
       <use xlink:href="#DejaVuSans-30" x="190.869141"/>
      </g>
     </g>
    </g>
    <g id="xtick_4">
     <g id="line2d_4">
      <g>
       <use xlink:href="#md9158b3f45" x="235.513278" y="307.584" style="stroke: #000000; stroke-width: 0.8"/>
      </g>
     </g>
     <g id="text_4">
      <!-- 1500 -->
      <g transform="translate(222.788278 322.182437)scale(0.1 -0.1)">
       <use xlink:href="#DejaVuSans-31"/>
       <use xlink:href="#DejaVuSans-35" x="63.623047"/>
       <use xlink:href="#DejaVuSans-30" x="127.246094"/>
       <use xlink:href="#DejaVuSans-30" x="190.869141"/>
      </g>
     </g>
    </g>
    <g id="xtick_5">
     <g id="line2d_5">
      <g>
       <use xlink:href="#md9158b3f45" x="289.406795" y="307.584" style="stroke: #000000; stroke-width: 0.8"/>
      </g>
     </g>
     <g id="text_5">
      <!-- 2000 -->
      <g transform="translate(276.681795 322.182437)scale(0.1 -0.1)">
       <defs>
        <path id="DejaVuSans-32" d="M 1228 531 
L 3431 531 
L 3431 0 
L 469 0 
L 469 531 
Q 828 903 1448 1529 
Q 2069 2156 2228 2338 
Q 2531 2678 2651 2914 
Q 2772 3150 2772 3378 
Q 2772 3750 2511 3984 
Q 2250 4219 1831 4219 
Q 1534 4219 1204 4116 
Q 875 4013 500 3803 
L 500 4441 
Q 881 4594 1212 4672 
Q 1544 4750 1819 4750 
Q 2544 4750 2975 4387 
Q 3406 4025 3406 3419 
Q 3406 3131 3298 2873 
Q 3191 2616 2906 2266 
Q 2828 2175 2409 1742 
Q 1991 1309 1228 531 
z
" transform="scale(0.015625)"/>
       </defs>
       <use xlink:href="#DejaVuSans-32"/>
       <use xlink:href="#DejaVuSans-30" x="63.623047"/>
       <use xlink:href="#DejaVuSans-30" x="127.246094"/>
       <use xlink:href="#DejaVuSans-30" x="190.869141"/>
      </g>
     </g>
    </g>
    <g id="xtick_6">
     <g id="line2d_6">
      <g>
       <use xlink:href="#md9158b3f45" x="343.300311" y="307.584" style="stroke: #000000; stroke-width: 0.8"/>
      </g>
     </g>
     <g id="text_6">
      <!-- 2500 -->
      <g transform="translate(330.575311 322.182437)scale(0.1 -0.1)">
       <use xlink:href="#DejaVuSans-32"/>
       <use xlink:href="#DejaVuSans-35" x="63.623047"/>
       <use xlink:href="#DejaVuSans-30" x="127.246094"/>
       <use xlink:href="#DejaVuSans-30" x="190.869141"/>
      </g>
     </g>
    </g>
    <g id="xtick_7">
     <g id="line2d_7">
      <g>
       <use xlink:href="#md9158b3f45" x="397.193828" y="307.584" style="stroke: #000000; stroke-width: 0.8"/>
      </g>
     </g>
     <g id="text_7">
      <!-- 3000 -->
      <g transform="translate(384.468828 322.182437)scale(0.1 -0.1)">
       <defs>
        <path id="DejaVuSans-33" d="M 2597 2516 
Q 3050 2419 3304 2112 
Q 3559 1806 3559 1356 
Q 3559 666 3084 287 
Q 2609 -91 1734 -91 
Q 1441 -91 1130 -33 
Q 819 25 488 141 
L 488 750 
Q 750 597 1062 519 
Q 1375 441 1716 441 
Q 2309 441 2620 675 
Q 2931 909 2931 1356 
Q 2931 1769 2642 2001 
Q 2353 2234 1838 2234 
L 1294 2234 
L 1294 2753 
L 1863 2753 
Q 2328 2753 2575 2939 
Q 2822 3125 2822 3475 
Q 2822 3834 2567 4026 
Q 2313 4219 1838 4219 
Q 1578 4219 1281 4162 
Q 984 4106 628 3988 
L 628 4550 
Q 988 4650 1302 4700 
Q 1616 4750 1894 4750 
Q 2613 4750 3031 4423 
Q 3450 4097 3450 3541 
Q 3450 3153 3228 2886 
Q 3006 2619 2597 2516 
z
" transform="scale(0.015625)"/>
       </defs>
       <use xlink:href="#DejaVuSans-33"/>
       <use xlink:href="#DejaVuSans-30" x="63.623047"/>
       <use xlink:href="#DejaVuSans-30" x="127.246094"/>
       <use xlink:href="#DejaVuSans-30" x="190.869141"/>
      </g>
     </g>
    </g>
    <g id="text_8">
     <!-- num swaps -->
     <g transform="translate(207.826406 335.860562)scale(0.1 -0.1)">
      <defs>
       <path id="DejaVuSans-6e" d="M 3513 2113 
L 3513 0 
L 2938 0 
L 2938 2094 
Q 2938 2591 2744 2837 
Q 2550 3084 2163 3084 
Q 1697 3084 1428 2787 
Q 1159 2491 1159 1978 
L 1159 0 
L 581 0 
L 581 3500 
L 1159 3500 
L 1159 2956 
Q 1366 3272 1645 3428 
Q 1925 3584 2291 3584 
Q 2894 3584 3203 3211 
Q 3513 2838 3513 2113 
z
" transform="scale(0.015625)"/>
       <path id="DejaVuSans-75" d="M 544 1381 
L 544 3500 
L 1119 3500 
L 1119 1403 
Q 1119 906 1312 657 
Q 1506 409 1894 409 
Q 2359 409 2629 706 
Q 2900 1003 2900 1516 
L 2900 3500 
L 3475 3500 
L 3475 0 
L 2900 0 
L 2900 538 
Q 2691 219 2414 64 
Q 2138 -91 1772 -91 
Q 1169 -91 856 284 
Q 544 659 544 1381 
z
M 1991 3584 
L 1991 3584 
z
" transform="scale(0.015625)"/>
       <path id="DejaVuSans-6d" d="M 3328 2828 
Q 3544 3216 3844 3400 
Q 4144 3584 4550 3584 
Q 5097 3584 5394 3201 
Q 5691 2819 5691 2113 
L 5691 0 
L 5113 0 
L 5113 2094 
Q 5113 2597 4934 2840 
Q 4756 3084 4391 3084 
Q 3944 3084 3684 2787 
Q 3425 2491 3425 1978 
L 3425 0 
L 2847 0 
L 2847 2094 
Q 2847 2600 2669 2842 
Q 2491 3084 2119 3084 
Q 1678 3084 1418 2786 
Q 1159 2488 1159 1978 
L 1159 0 
L 581 0 
L 581 3500 
L 1159 3500 
L 1159 2956 
Q 1356 3278 1631 3431 
Q 1906 3584 2284 3584 
Q 2666 3584 2933 3390 
Q 3200 3197 3328 2828 
z
" transform="scale(0.015625)"/>
       <path id="DejaVuSans-20" transform="scale(0.015625)"/>
       <path id="DejaVuSans-73" d="M 2834 3397 
L 2834 2853 
Q 2591 2978 2328 3040 
Q 2066 3103 1784 3103 
Q 1356 3103 1142 2972 
Q 928 2841 928 2578 
Q 928 2378 1081 2264 
Q 1234 2150 1697 2047 
L 1894 2003 
Q 2506 1872 2764 1633 
Q 3022 1394 3022 966 
Q 3022 478 2636 193 
Q 2250 -91 1575 -91 
Q 1294 -91 989 -36 
Q 684 19 347 128 
L 347 722 
Q 666 556 975 473 
Q 1284 391 1588 391 
Q 1994 391 2212 530 
Q 2431 669 2431 922 
Q 2431 1156 2273 1281 
Q 2116 1406 1581 1522 
L 1381 1569 
Q 847 1681 609 1914 
Q 372 2147 372 2553 
Q 372 3047 722 3315 
Q 1072 3584 1716 3584 
Q 2034 3584 2315 3537 
Q 2597 3491 2834 3397 
z
" transform="scale(0.015625)"/>
       <path id="DejaVuSans-77" d="M 269 3500 
L 844 3500 
L 1563 769 
L 2278 3500 
L 2956 3500 
L 3675 769 
L 4391 3500 
L 4966 3500 
L 4050 0 
L 3372 0 
L 2619 2869 
L 1863 0 
L 1184 0 
L 269 3500 
z
" transform="scale(0.015625)"/>
       <path id="DejaVuSans-61" d="M 2194 1759 
Q 1497 1759 1228 1600 
Q 959 1441 959 1056 
Q 959 750 1161 570 
Q 1363 391 1709 391 
Q 2188 391 2477 730 
Q 2766 1069 2766 1631 
L 2766 1759 
L 2194 1759 
z
M 3341 1997 
L 3341 0 
L 2766 0 
L 2766 531 
Q 2569 213 2275 61 
Q 1981 -91 1556 -91 
Q 1019 -91 701 211 
Q 384 513 384 1019 
Q 384 1609 779 1909 
Q 1175 2209 1959 2209 
L 2766 2209 
L 2766 2266 
Q 2766 2663 2505 2880 
Q 2244 3097 1772 3097 
Q 1472 3097 1187 3025 
Q 903 2953 641 2809 
L 641 3341 
Q 956 3463 1253 3523 
Q 1550 3584 1831 3584 
Q 2591 3584 2966 3190 
Q 3341 2797 3341 1997 
z
" transform="scale(0.015625)"/>
       <path id="DejaVuSans-70" d="M 1159 525 
L 1159 -1331 
L 581 -1331 
L 581 3500 
L 1159 3500 
L 1159 2969 
Q 1341 3281 1617 3432 
Q 1894 3584 2278 3584 
Q 2916 3584 3314 3078 
Q 3713 2572 3713 1747 
Q 3713 922 3314 415 
Q 2916 -91 2278 -91 
Q 1894 -91 1617 61 
Q 1341 213 1159 525 
z
M 3116 1747 
Q 3116 2381 2855 2742 
Q 2594 3103 2138 3103 
Q 1681 3103 1420 2742 
Q 1159 2381 1159 1747 
Q 1159 1113 1420 752 
Q 1681 391 2138 391 
Q 2594 391 2855 752 
Q 3116 1113 3116 1747 
z
" transform="scale(0.015625)"/>
      </defs>
      <use xlink:href="#DejaVuSans-6e"/>
      <use xlink:href="#DejaVuSans-75" x="63.378906"/>
      <use xlink:href="#DejaVuSans-6d" x="126.757812"/>
      <use xlink:href="#DejaVuSans-20" x="224.169922"/>
      <use xlink:href="#DejaVuSans-73" x="255.957031"/>
      <use xlink:href="#DejaVuSans-77" x="308.056641"/>
      <use xlink:href="#DejaVuSans-61" x="389.84375"/>
      <use xlink:href="#DejaVuSans-70" x="451.123047"/>
      <use xlink:href="#DejaVuSans-73" x="514.599609"/>
     </g>
    </g>
   </g>
   <g id="matplotlib.axis_2">
    <g id="ytick_1">
     <g id="line2d_8">
      <defs>
       <path id="m139fdb2719" d="M 0 0 
L -3.5 0 
" style="stroke: #000000; stroke-width: 0.8"/>
      </defs>
      <g>
       <use xlink:href="#m139fdb2719" x="57.6" y="284.256" style="stroke: #000000; stroke-width: 0.8"/>
      </g>
     </g>
     <g id="text_9">
      <!-- 250 -->
      <g transform="translate(31.5125 288.055219)scale(0.1 -0.1)">
       <use xlink:href="#DejaVuSans-32"/>
       <use xlink:href="#DejaVuSans-35" x="63.623047"/>
       <use xlink:href="#DejaVuSans-30" x="127.246094"/>
      </g>
     </g>
    </g>
    <g id="ytick_2">
     <g id="line2d_9">
      <g>
       <use xlink:href="#m139fdb2719" x="57.6" y="241.056" style="stroke: #000000; stroke-width: 0.8"/>
      </g>
     </g>
     <g id="text_10">
      <!-- 300 -->
      <g transform="translate(31.5125 244.855219)scale(0.1 -0.1)">
       <use xlink:href="#DejaVuSans-33"/>
       <use xlink:href="#DejaVuSans-30" x="63.623047"/>
       <use xlink:href="#DejaVuSans-30" x="127.246094"/>
      </g>
     </g>
    </g>
    <g id="ytick_3">
     <g id="line2d_10">
      <g>
       <use xlink:href="#m139fdb2719" x="57.6" y="197.856" style="stroke: #000000; stroke-width: 0.8"/>
      </g>
     </g>
     <g id="text_11">
      <!-- 350 -->
      <g transform="translate(31.5125 201.655219)scale(0.1 -0.1)">
       <use xlink:href="#DejaVuSans-33"/>
       <use xlink:href="#DejaVuSans-35" x="63.623047"/>
       <use xlink:href="#DejaVuSans-30" x="127.246094"/>
      </g>
     </g>
    </g>
    <g id="ytick_4">
     <g id="line2d_11">
      <g>
       <use xlink:href="#m139fdb2719" x="57.6" y="154.656" style="stroke: #000000; stroke-width: 0.8"/>
      </g>
     </g>
     <g id="text_12">
      <!-- 400 -->
      <g transform="translate(31.5125 158.455219)scale(0.1 -0.1)">
       <defs>
        <path id="DejaVuSans-34" d="M 2419 4116 
L 825 1625 
L 2419 1625 
L 2419 4116 
z
M 2253 4666 
L 3047 4666 
L 3047 1625 
L 3713 1625 
L 3713 1100 
L 3047 1100 
L 3047 0 
L 2419 0 
L 2419 1100 
L 313 1100 
L 313 1709 
L 2253 4666 
z
" transform="scale(0.015625)"/>
       </defs>
       <use xlink:href="#DejaVuSans-34"/>
       <use xlink:href="#DejaVuSans-30" x="63.623047"/>
       <use xlink:href="#DejaVuSans-30" x="127.246094"/>
      </g>
     </g>
    </g>
    <g id="ytick_5">
     <g id="line2d_12">
      <g>
       <use xlink:href="#m139fdb2719" x="57.6" y="111.456" style="stroke: #000000; stroke-width: 0.8"/>
      </g>
     </g>
     <g id="text_13">
      <!-- 450 -->
      <g transform="translate(31.5125 115.255219)scale(0.1 -0.1)">
       <use xlink:href="#DejaVuSans-34"/>
       <use xlink:href="#DejaVuSans-35" x="63.623047"/>
       <use xlink:href="#DejaVuSans-30" x="127.246094"/>
      </g>
     </g>
    </g>
    <g id="ytick_6">
     <g id="line2d_13">
      <g>
       <use xlink:href="#m139fdb2719" x="57.6" y="68.256" style="stroke: #000000; stroke-width: 0.8"/>
      </g>
     </g>
     <g id="text_14">
      <!-- 500 -->
      <g transform="translate(31.5125 72.055219)scale(0.1 -0.1)">
       <use xlink:href="#DejaVuSans-35"/>
       <use xlink:href="#DejaVuSans-30" x="63.623047"/>
       <use xlink:href="#DejaVuSans-30" x="127.246094"/>
      </g>
     </g>
    </g>
    <g id="text_15">
     <!-- total cost -->
     <g transform="translate(25.432812 197.923313)rotate(-90)scale(0.1 -0.1)">
      <defs>
       <path id="DejaVuSans-74" d="M 1172 4494 
L 1172 3500 
L 2356 3500 
L 2356 3053 
L 1172 3053 
L 1172 1153 
Q 1172 725 1289 603 
Q 1406 481 1766 481 
L 2356 481 
L 2356 0 
L 1766 0 
Q 1100 0 847 248 
Q 594 497 594 1153 
L 594 3053 
L 172 3053 
L 172 3500 
L 594 3500 
L 594 4494 
L 1172 4494 
z
" transform="scale(0.015625)"/>
       <path id="DejaVuSans-6f" d="M 1959 3097 
Q 1497 3097 1228 2736 
Q 959 2375 959 1747 
Q 959 1119 1226 758 
Q 1494 397 1959 397 
Q 2419 397 2687 759 
Q 2956 1122 2956 1747 
Q 2956 2369 2687 2733 
Q 2419 3097 1959 3097 
z
M 1959 3584 
Q 2709 3584 3137 3096 
Q 3566 2609 3566 1747 
Q 3566 888 3137 398 
Q 2709 -91 1959 -91 
Q 1206 -91 779 398 
Q 353 888 353 1747 
Q 353 2609 779 3096 
Q 1206 3584 1959 3584 
z
" transform="scale(0.015625)"/>
       <path id="DejaVuSans-6c" d="M 603 4863 
L 1178 4863 
L 1178 0 
L 603 0 
L 603 4863 
z
" transform="scale(0.015625)"/>
       <path id="DejaVuSans-63" d="M 3122 3366 
L 3122 2828 
Q 2878 2963 2633 3030 
Q 2388 3097 2138 3097 
Q 1578 3097 1268 2742 
Q 959 2388 959 1747 
Q 959 1106 1268 751 
Q 1578 397 2138 397 
Q 2388 397 2633 464 
Q 2878 531 3122 666 
L 3122 134 
Q 2881 22 2623 -34 
Q 2366 -91 2075 -91 
Q 1284 -91 818 406 
Q 353 903 353 1747 
Q 353 2603 823 3093 
Q 1294 3584 2113 3584 
Q 2378 3584 2631 3529 
Q 2884 3475 3122 3366 
z
" transform="scale(0.015625)"/>
      </defs>
      <use xlink:href="#DejaVuSans-74"/>
      <use xlink:href="#DejaVuSans-6f" x="39.208984"/>
      <use xlink:href="#DejaVuSans-74" x="100.390625"/>
      <use xlink:href="#DejaVuSans-61" x="139.599609"/>
      <use xlink:href="#DejaVuSans-6c" x="200.878906"/>
      <use xlink:href="#DejaVuSans-20" x="228.662109"/>
      <use xlink:href="#DejaVuSans-63" x="260.449219"/>
      <use xlink:href="#DejaVuSans-6f" x="315.429688"/>
      <use xlink:href="#DejaVuSans-73" x="376.611328"/>
      <use xlink:href="#DejaVuSans-74" x="428.710938"/>
     </g>
    </g>
   </g>
   <g id="line2d_14">
    <path d="M 73.832727 120.96 
L 74.263875 129.6 
L 74.479449 122.688 
L 74.695024 123.552 
L 74.910598 111.456 
L 75.341746 131.328 
L 75.55732 114.048 
L 75.772894 107.136 
L 75.988468 108.864 
L 76.204042 88.128 
L 76.419616 83.808 
L 76.63519 82.08 
L 76.850764 73.44 
L 77.066338 88.128 
L 77.281912 78.624 
L 77.497486 90.72 
L 77.71306 91.584 
L 77.928635 87.264 
L 78.144209 90.72 
L 78.359783 88.992 
L 78.575357 76.032 
L 78.790931 74.304 
L 79.006505 74.304 
L 79.222079 61.344 
L 79.437653 59.616 
L 79.653227 69.12 
L 79.868801 85.536 
L 80.084375 82.08 
L 80.515523 87.264 
L 80.731097 77.76 
L 80.946671 83.808 
L 81.162246 63.936 
L 81.37782 55.296 
L 81.593394 68.256 
L 81.808968 108.864 
L 82.024542 106.272 
L 82.240116 132.192 
L 82.45569 140.832 
L 82.671264 88.992 
L 82.886838 88.128 
L 83.102412 93.312 
L 83.317986 86.4 
L 83.53356 87.264 
L 83.749134 96.768 
L 83.964708 114.912 
L 84.180283 111.456 
L 84.395857 125.28 
L 84.611431 110.592 
L 85.042579 128.736 
L 85.258153 119.232 
L 85.689301 86.4 
L 85.904875 95.904 
L 86.120449 120.096 
L 86.336023 98.496 
L 86.551597 92.448 
L 86.767171 102.816 
L 86.982745 127.008 
L 87.198319 132.192 
L 87.629468 115.776 
L 87.845042 101.952 
L 88.060616 103.68 
L 88.27619 94.176 
L 88.491764 95.904 
L 88.707338 113.184 
L 88.922912 108 
L 89.138486 132.192 
L 89.35406 127.008 
L 89.569634 129.6 
L 90.000782 139.104 
L 90.216356 139.104 
L 90.43193 145.152 
L 90.647505 135.648 
L 90.863079 120.96 
L 91.078653 115.776 
L 91.294227 121.824 
L 91.509801 107.136 
L 91.725375 115.776 
L 92.156523 86.4 
L 92.372097 106.272 
L 92.587671 108 
L 92.803245 108 
L 93.018819 101.952 
L 93.234393 108 
L 93.449967 123.552 
L 93.665541 115.776 
L 93.881116 82.08 
L 94.09669 74.304 
L 94.312264 76.032 
L 94.527838 86.4 
L 94.743412 88.128 
L 94.958986 77.76 
L 95.17456 111.456 
L 95.390134 109.728 
L 95.605708 106.272 
L 95.821282 86.4 
L 96.036856 84.672 
L 96.25243 93.312 
L 96.468004 71.712 
L 96.683578 75.168 
L 96.899152 81.216 
L 97.114727 73.44 
L 97.761449 97.632 
L 97.977023 98.496 
L 98.192597 88.992 
L 98.408171 94.176 
L 98.623745 116.64 
L 99.054893 99.36 
L 99.270467 97.632 
L 99.701615 97.632 
L 99.917189 93.312 
L 100.132763 86.4 
L 100.348338 101.088 
L 100.563912 99.36 
L 100.779486 90.72 
L 100.99506 93.312 
L 101.210634 98.496 
L 101.641782 137.376 
L 101.857356 127.008 
L 102.07293 130.464 
L 102.288504 120.096 
L 102.719652 150.336 
L 102.935226 154.656 
L 103.366375 133.056 
L 103.581949 138.24 
L 103.797523 150.336 
L 104.013097 134.784 
L 104.228671 128.736 
L 104.444245 141.696 
L 104.659819 120.96 
L 104.875393 127.008 
L 105.090967 126.144 
L 105.306541 115.776 
L 105.522115 114.912 
L 105.953263 97.632 
L 106.168837 99.36 
L 106.384411 98.496 
L 106.599986 102.816 
L 106.81556 101.088 
L 107.031134 101.088 
L 107.462282 88.128 
L 107.677856 78.624 
L 107.89343 78.624 
L 108.109004 83.808 
L 108.324578 111.456 
L 108.540152 115.776 
L 108.755726 138.24 
L 108.9713 136.512 
L 109.618022 114.048 
L 109.833597 117.504 
L 110.049171 111.456 
L 110.264745 120.096 
L 110.480319 114.048 
L 110.695893 124.416 
L 110.911467 111.456 
L 111.342615 96.768 
L 112.204911 137.376 
L 112.420485 137.376 
L 112.636059 127.008 
L 112.851633 125.28 
L 113.067208 133.056 
L 113.282782 134.784 
L 113.498356 139.968 
L 113.71393 131.328 
L 114.145078 156.384 
L 114.360652 138.24 
L 114.576226 141.696 
L 114.7918 137.376 
L 115.007374 147.744 
L 115.222948 135.648 
L 115.438522 131.328 
L 115.654096 134.784 
L 115.86967 110.592 
L 116.085244 114.912 
L 116.300819 111.456 
L 116.516393 116.64 
L 116.947541 110.592 
L 117.163115 112.32 
L 117.378689 122.688 
L 117.809837 115.776 
L 118.025411 120.96 
L 118.240985 131.328 
L 118.456559 110.592 
L 118.672133 114.912 
L 118.887707 109.728 
L 119.103281 128.736 
L 119.318855 130.464 
L 119.53443 129.6 
L 119.750004 127.008 
L 119.965578 126.144 
L 120.181152 108 
L 120.396726 114.912 
L 120.6123 116.64 
L 120.827874 123.552 
L 121.259022 116.64 
L 121.474596 121.824 
L 121.69017 116.64 
L 121.905744 118.368 
L 122.121318 109.728 
L 122.336892 108 
L 122.552466 112.32 
L 122.768041 121.824 
L 122.983615 114.048 
L 123.199189 123.552 
L 123.414763 125.28 
L 123.630337 124.416 
L 124.061485 99.36 
L 124.277059 106.272 
L 124.492633 106.272 
L 124.708207 127.008 
L 125.139355 135.648 
L 125.354929 135.648 
L 125.570503 114.048 
L 125.786078 116.64 
L 126.001652 116.64 
L 126.217226 114.048 
L 126.4328 119.232 
L 126.648374 119.232 
L 126.863948 114.048 
L 127.079522 123.552 
L 127.295096 121.824 
L 127.51067 104.544 
L 127.726244 101.088 
L 128.157392 120.96 
L 128.372966 127.008 
L 128.58854 124.416 
L 128.804114 125.28 
L 129.235263 113.184 
L 129.450837 120.096 
L 129.666411 120.096 
L 129.881985 108 
L 130.097559 121.824 
L 130.313133 144.288 
L 130.528707 144.288 
L 130.744281 135.648 
L 130.959855 115.776 
L 131.175429 112.32 
L 131.391003 143.424 
L 131.606577 135.648 
L 131.822151 135.648 
L 132.2533 140.832 
L 132.468874 133.056 
L 132.684448 134.784 
L 132.900022 129.6 
L 133.115596 131.328 
L 133.762318 110.592 
L 133.977892 108 
L 134.193466 89.856 
L 134.40904 87.264 
L 134.624614 101.088 
L 135.055762 93.312 
L 135.271336 91.584 
L 135.486911 75.168 
L 135.702485 88.992 
L 135.918059 91.584 
L 136.133633 85.536 
L 136.349207 75.168 
L 136.564781 79.488 
L 136.780355 79.488 
L 136.995929 80.352 
L 137.211503 85.536 
L 137.427077 121.824 
L 137.642651 121.824 
L 138.073799 127.872 
L 138.289373 133.056 
L 138.504947 125.28 
L 138.720522 121.824 
L 138.936096 113.184 
L 139.15167 113.184 
L 139.367244 109.728 
L 139.582818 125.28 
L 139.798392 127.872 
L 140.013966 126.144 
L 140.22954 117.504 
L 140.445114 133.056 
L 140.660688 132.192 
L 140.876262 133.92 
L 141.30741 146.016 
L 141.738558 119.232 
L 141.954133 122.688 
L 142.169707 117.504 
L 142.385281 101.952 
L 142.600855 107.136 
L 142.816429 107.136 
L 143.032003 101.952 
L 143.247577 127.872 
L 143.678725 140.832 
L 143.894299 139.104 
L 144.541021 121.824 
L 144.756595 120.96 
L 144.97217 123.552 
L 145.187744 121.824 
L 145.403318 112.32 
L 145.618892 114.048 
L 145.834466 102.816 
L 146.05004 100.224 
L 146.265614 78.624 
L 146.481188 85.536 
L 146.696762 78.624 
L 146.912336 101.088 
L 147.12791 82.08 
L 147.343484 106.272 
L 147.774632 78.624 
L 147.990206 83.808 
L 148.205781 85.536 
L 148.636929 91.584 
L 148.852503 77.76 
L 149.068077 97.632 
L 149.283651 88.992 
L 149.499225 94.176 
L 149.714799 90.72 
L 150.145947 116.64 
L 150.361521 127.872 
L 150.792669 134.784 
L 151.008243 125.28 
L 151.223817 149.472 
L 151.439392 148.608 
L 151.654966 131.328 
L 151.87054 136.512 
L 152.301688 157.248 
L 152.517262 158.976 
L 152.94841 151.2 
L 153.163984 146.88 
L 153.379558 119.232 
L 153.595132 124.416 
L 154.02628 127.872 
L 154.241854 120.096 
L 154.457428 125.28 
L 154.673003 142.56 
L 154.888577 142.56 
L 155.104151 121.824 
L 155.319725 117.504 
L 155.750873 87.264 
L 156.182021 92.448 
L 156.397595 82.944 
L 156.613169 82.944 
L 156.828743 86.4 
L 157.044317 87.264 
L 157.259891 71.712 
L 157.475465 76.896 
L 157.691039 76.896 
L 157.906614 71.712 
L 158.122188 87.264 
L 158.337762 68.256 
L 158.553336 68.256 
L 159.200058 98.496 
L 159.415632 90.72 
L 159.631206 69.12 
L 159.84678 69.984 
L 160.062354 91.584 
L 160.277928 88.992 
L 160.493502 70.848 
L 160.709076 70.848 
L 161.140225 79.488 
L 161.355799 79.488 
L 161.571373 96.768 
L 161.786947 101.952 
L 162.002521 97.632 
L 162.218095 99.36 
L 162.649243 64.8 
L 162.864817 63.072 
L 163.080391 66.528 
L 163.295965 57.024 
L 163.511539 53.568 
L 163.942687 72.576 
L 164.804984 91.584 
L 165.020558 103.68 
L 165.236132 106.272 
L 165.451706 88.992 
L 165.66728 94.176 
L 165.882854 88.128 
L 166.314002 124.416 
L 166.529576 125.28 
L 166.960724 114.048 
L 167.176298 129.6 
L 167.391873 136.512 
L 167.607447 138.24 
L 168.254169 124.416 
L 168.469743 140.832 
L 168.685317 146.016 
L 169.116465 127.008 
L 169.332039 101.088 
L 169.547613 105.408 
L 169.763187 105.408 
L 169.978761 107.136 
L 170.194335 139.968 
L 170.409909 127.872 
L 170.625484 122.688 
L 171.056632 101.088 
L 171.272206 101.088 
L 171.48778 112.32 
L 171.703354 114.048 
L 171.918928 107.136 
L 172.134502 122.688 
L 172.350076 116.64 
L 172.56565 120.096 
L 172.781224 128.736 
L 173.427946 120.096 
L 173.64352 108 
L 173.859095 126.144 
L 174.074669 134.784 
L 174.290243 131.328 
L 174.505817 135.648 
L 174.721391 128.736 
L 175.368113 150.336 
L 175.799261 108.864 
L 176.014835 146.016 
L 176.230409 131.328 
L 176.445983 137.376 
L 176.661557 136.512 
L 176.877131 129.6 
L 177.092706 140.832 
L 177.30828 134.784 
L 177.523854 152.928 
L 177.739428 139.104 
L 177.955002 139.968 
L 178.170576 145.152 
L 178.601724 133.92 
L 178.817298 139.968 
L 179.032872 117.504 
L 179.248446 124.416 
L 179.46402 149.472 
L 179.679594 144.288 
L 179.895168 147.744 
L 180.110742 144.288 
L 180.326317 134.784 
L 180.541891 134.784 
L 180.757465 128.736 
L 180.973039 113.184 
L 181.188613 123.552 
L 181.404187 126.144 
L 181.619761 126.144 
L 181.835335 123.552 
L 182.050909 127.008 
L 182.266483 127.872 
L 182.482057 134.784 
L 182.913205 134.784 
L 183.128779 138.24 
L 183.559928 133.92 
L 183.775502 139.968 
L 183.991076 134.784 
L 184.20665 134.784 
L 184.637798 109.728 
L 184.853372 113.184 
L 185.28452 89.856 
L 185.500094 88.992 
L 185.931242 102.816 
L 186.146816 95.904 
L 186.577965 101.952 
L 186.793539 100.224 
L 187.009113 100.224 
L 187.224687 101.952 
L 187.440261 116.64 
L 187.655835 116.64 
L 187.871409 121.824 
L 188.086983 121.824 
L 188.302557 120.96 
L 188.733705 123.552 
L 189.164853 118.368 
L 189.596001 175.392 
L 190.02715 135.648 
L 190.242724 128.736 
L 190.458298 127.008 
L 190.673872 136.512 
L 191.10502 128.736 
L 191.320594 108 
L 191.536168 109.728 
L 191.967316 124.416 
L 192.18289 103.68 
L 192.398464 144.288 
L 192.614038 127.008 
L 192.829612 120.96 
L 193.045187 146.88 
L 193.260761 139.104 
L 193.476335 135.648 
L 193.691909 128.736 
L 193.907483 131.328 
L 194.123057 142.56 
L 194.338631 142.56 
L 194.554205 134.784 
L 194.769779 120.96 
L 195.200927 136.512 
L 195.416501 133.056 
L 195.632075 100.224 
L 195.847649 95.04 
L 196.494372 101.088 
L 196.709946 92.448 
L 196.92552 126.144 
L 197.141094 117.504 
L 197.356668 134.784 
L 197.572242 134.784 
L 197.787816 115.776 
L 198.218964 111.456 
L 198.434538 114.912 
L 198.650112 83.808 
L 198.865686 88.992 
L 199.08126 90.72 
L 199.296834 134.784 
L 199.512409 139.968 
L 199.727983 141.696 
L 199.943557 153.792 
L 200.159131 147.744 
L 200.374705 133.92 
L 200.805853 170.208 
L 201.021427 165.888 
L 201.237001 182.304 
L 201.452575 177.12 
L 201.668149 183.168 
L 201.883723 184.896 
L 202.530445 158.976 
L 202.961594 121.824 
L 203.177168 120.096 
L 203.392742 128.736 
L 203.608316 151.2 
L 204.039464 161.568 
L 204.255038 151.2 
L 204.470612 154.656 
L 204.686186 155.52 
L 204.90176 170.208 
L 205.117334 170.208 
L 205.332908 169.344 
L 205.764057 152.928 
L 205.979631 152.928 
L 206.195205 151.2 
L 206.410779 158.112 
L 206.626353 146.016 
L 206.841927 142.56 
L 207.057501 117.504 
L 207.273075 108.864 
L 207.488649 108 
L 207.704223 117.504 
L 207.919797 104.544 
L 208.135371 120.96 
L 208.566519 95.904 
L 208.782093 101.088 
L 208.997668 121.824 
L 209.213242 117.504 
L 209.428816 110.592 
L 209.64439 114.048 
L 209.859964 114.048 
L 210.075538 122.688 
L 210.291112 121.824 
L 210.506686 114.912 
L 210.72226 121.824 
L 210.937834 111.456 
L 211.153408 127.008 
L 211.368982 130.464 
L 211.584556 125.28 
L 211.80013 130.464 
L 212.015704 124.416 
L 212.231279 113.184 
L 212.446853 114.048 
L 212.662427 117.504 
L 212.878001 129.6 
L 213.093575 130.464 
L 213.309149 127.872 
L 213.524723 133.056 
L 213.740297 120.96 
L 214.387019 134.784 
L 214.602593 131.328 
L 214.818167 131.328 
L 215.033741 115.776 
L 215.249315 112.32 
L 215.46489 125.28 
L 215.680464 113.184 
L 215.896038 114.912 
L 216.111612 98.496 
L 216.327186 93.312 
L 216.758334 103.68 
L 216.973908 103.68 
L 217.189482 97.632 
L 217.405056 106.272 
L 217.836204 95.904 
L 218.051778 101.088 
L 218.267352 114.048 
L 218.482926 118.368 
L 218.698501 108.864 
L 218.914075 109.728 
L 219.129649 113.184 
L 219.345223 113.184 
L 219.560797 109.728 
L 219.776371 115.776 
L 219.991945 110.592 
L 220.207519 114.048 
L 220.423093 103.68 
L 220.638667 117.504 
L 221.285389 96.768 
L 221.716537 112.32 
L 221.932112 112.32 
L 222.147686 114.912 
L 222.578834 131.328 
L 222.794408 131.328 
L 223.009982 138.24 
L 223.225556 133.056 
L 223.44113 133.056 
L 223.656704 128.736 
L 223.872278 132.192 
L 224.087852 146.016 
L 224.303426 145.152 
L 224.519 141.696 
L 224.734574 145.152 
L 224.950148 143.424 
L 225.165723 149.472 
L 225.381297 150.336 
L 225.596871 158.976 
L 226.028019 153.792 
L 226.459167 133.056 
L 226.890315 114.048 
L 227.105889 107.136 
L 227.321463 106.272 
L 227.537037 104.544 
L 227.752611 114.048 
L 228.18376 115.776 
L 228.399334 123.552 
L 228.830482 123.552 
L 229.046056 121.824 
L 229.26163 114.048 
L 229.477204 127.872 
L 229.908352 92.448 
L 230.123926 75.168 
L 230.3395 76.896 
L 230.555074 81.216 
L 230.770648 82.944 
L 230.986222 95.04 
L 231.201796 97.632 
L 231.417371 104.544 
L 231.848519 99.36 
L 232.064093 112.32 
L 232.279667 118.368 
L 232.495241 103.68 
L 232.710815 101.952 
L 232.926389 107.136 
L 233.141963 137.376 
L 233.357537 133.92 
L 233.573111 139.104 
L 233.788685 108.864 
L 234.004259 135.648 
L 234.219833 131.328 
L 234.650982 105.408 
L 234.866556 123.552 
L 235.08213 121.824 
L 235.297704 115.776 
L 235.513278 122.688 
L 235.728852 122.688 
L 236.16 127.008 
L 236.375574 132.192 
L 236.806722 146.88 
L 237.022296 147.744 
L 237.23787 142.56 
L 237.453444 152.928 
L 237.669018 156.384 
L 237.884593 99.36 
L 238.100167 99.36 
L 238.315741 106.272 
L 238.531315 125.28 
L 238.746889 123.552 
L 238.962463 120.096 
L 239.178037 121.824 
L 239.393611 120.96 
L 239.609185 120.96 
L 239.824759 115.776 
L 240.255907 133.056 
L 240.687055 95.04 
L 240.902629 103.68 
L 241.118204 107.136 
L 241.333778 93.312 
L 241.549352 96.768 
L 241.9805 122.688 
L 242.196074 127.872 
L 242.411648 121.824 
L 242.627222 133.056 
L 242.842796 130.464 
L 243.05837 130.464 
L 243.489518 146.016 
L 243.705092 146.88 
L 243.920666 152.064 
L 244.567389 124.416 
L 244.782963 131.328 
L 244.998537 152.064 
L 245.214111 152.064 
L 245.429685 146.88 
L 245.645259 146.88 
L 245.860833 143.424 
L 246.076407 136.512 
L 246.291981 137.376 
L 246.723129 154.656 
L 246.938703 152.064 
L 247.154277 145.152 
L 247.369852 161.568 
L 247.585426 163.296 
L 247.801 167.616 
L 248.232148 137.376 
L 248.447722 140.832 
L 248.663296 140.832 
L 248.87887 143.424 
L 249.094444 158.112 
L 249.95674 108.864 
L 250.172314 101.088 
L 250.387888 109.728 
L 250.819037 91.584 
L 251.034611 95.904 
L 251.250185 122.688 
L 251.465759 116.64 
L 251.681333 128.736 
L 251.896907 130.464 
L 252.112481 137.376 
L 252.328055 125.28 
L 252.543629 139.104 
L 252.759203 135.648 
L 252.974777 135.648 
L 253.190351 146.016 
L 253.405925 135.648 
L 253.837074 158.112 
L 254.052648 156.384 
L 254.268222 157.248 
L 254.483796 153.792 
L 254.914944 162.432 
L 255.130518 157.248 
L 255.346092 171.072 
L 255.561666 172.8 
L 255.992814 156.384 
L 256.208388 155.52 
L 256.423962 150.336 
L 256.85511 150.336 
L 257.070685 155.52 
L 257.286259 181.44 
L 257.501833 180.576 
L 257.717407 180.576 
L 258.364129 191.808 
L 258.795277 186.624 
L 259.010851 184.896 
L 259.226425 185.76 
L 259.441999 177.12 
L 260.304296 162.432 
L 260.51987 164.16 
L 260.951018 183.168 
L 261.166592 174.528 
L 261.382166 171.936 
L 261.59774 175.392 
L 261.813314 175.392 
L 262.028888 182.304 
L 262.460036 140.832 
L 262.67561 145.152 
L 262.891184 153.792 
L 263.106758 169.344 
L 263.322332 155.52 
L 263.537907 159.84 
L 263.753481 149.472 
L 263.969055 150.336 
L 264.400203 157.248 
L 264.615777 152.064 
L 264.831351 158.976 
L 265.046925 159.84 
L 265.262499 149.472 
L 265.693647 159.84 
L 265.909221 158.976 
L 266.124795 155.52 
L 266.340369 162.432 
L 266.555943 165.024 
L 266.771518 165.888 
L 266.987092 161.568 
L 267.202666 171.936 
L 267.41824 170.208 
L 267.633814 182.304 
L 267.849388 186.624 
L 268.064962 186.624 
L 268.280536 174.528 
L 268.49611 171.936 
L 268.711684 165.888 
L 268.927258 170.208 
L 269.142832 154.656 
L 269.358406 153.792 
L 269.57398 151.2 
L 269.789555 170.208 
L 270.005129 171.072 
L 270.220703 167.616 
L 270.436277 166.752 
L 270.651851 166.752 
L 271.082999 151.2 
L 271.514147 140.832 
L 271.729721 146.016 
L 271.945295 142.56 
L 272.160869 144.288 
L 272.376443 139.104 
L 272.592017 141.696 
L 273.023166 130.464 
L 273.23874 133.92 
L 273.454314 152.064 
L 273.669888 158.112 
L 273.885462 170.208 
L 274.101036 167.616 
L 274.31661 169.344 
L 274.532184 169.344 
L 274.747758 165.888 
L 274.963332 158.112 
L 275.178906 166.752 
L 275.39448 161.568 
L 276.041202 191.808 
L 276.256777 195.264 
L 276.472351 196.128 
L 276.687925 194.4 
L 276.903499 198.72 
L 277.119073 193.536 
L 277.334647 183.168 
L 277.550221 184.896 
L 277.765795 184.896 
L 278.412517 170.208 
L 278.628091 172.8 
L 278.843665 163.296 
L 279.059239 166.752 
L 279.274813 163.296 
L 279.490388 164.16 
L 279.705962 174.528 
L 279.921536 174.528 
L 280.13711 176.256 
L 280.352684 174.528 
L 280.568258 199.584 
L 280.783832 196.128 
L 280.999406 190.08 
L 281.21498 190.08 
L 281.430554 187.488 
L 281.646128 178.848 
L 281.861702 178.848 
L 282.077276 177.984 
L 282.29285 181.44 
L 282.508424 191.808 
L 282.723999 186.624 
L 282.939573 196.128 
L 283.155147 177.12 
L 283.370721 177.12 
L 283.586295 178.848 
L 283.801869 174.528 
L 284.017443 182.304 
L 284.233017 197.856 
L 284.448591 193.536 
L 284.664165 196.128 
L 284.879739 193.536 
L 285.095313 189.216 
L 285.526461 173.664 
L 285.742035 156.384 
L 285.95761 152.928 
L 286.173184 140.832 
L 286.388758 139.968 
L 286.604332 147.744 
L 286.819906 135.648 
L 287.03548 150.336 
L 287.251054 127.872 
L 287.466628 125.28 
L 287.682202 112.32 
L 287.897776 108.864 
L 288.11335 115.776 
L 288.328924 116.64 
L 288.544498 104.544 
L 288.760072 102.816 
L 288.975647 109.728 
L 289.191221 99.36 
L 289.406795 116.64 
L 289.622369 116.64 
L 290.053517 100.224 
L 290.269091 118.368 
L 290.700239 108 
L 291.131387 119.232 
L 291.346961 138.24 
L 291.778109 129.6 
L 291.993683 134.784 
L 292.424832 159.84 
L 292.85598 151.2 
L 293.071554 154.656 
L 293.287128 161.568 
L 293.502702 158.976 
L 293.718276 149.472 
L 293.93385 154.656 
L 294.149424 146.88 
L 294.364998 157.248 
L 294.580572 158.976 
L 294.796146 136.512 
L 295.01172 136.512 
L 295.227294 140.832 
L 295.442869 139.104 
L 295.658443 144.288 
L 295.874017 142.56 
L 296.089591 151.2 
L 296.305165 150.336 
L 296.520739 141.696 
L 296.951887 139.104 
L 297.383035 132.192 
L 297.598609 133.056 
L 297.814183 125.28 
L 298.029757 123.552 
L 298.460905 133.056 
L 298.67648 131.328 
L 298.892054 134.784 
L 299.107628 134.784 
L 299.323202 120.96 
L 299.538776 150.336 
L 299.969924 140.832 
L 300.185498 140.832 
L 300.401072 131.328 
L 300.616646 139.968 
L 301.047794 144.288 
L 301.263368 149.472 
L 301.478942 143.424 
L 301.694516 141.696 
L 301.910091 142.56 
L 302.125665 133.056 
L 302.341239 140.832 
L 302.556813 137.376 
L 302.772387 128.736 
L 303.203535 154.656 
L 303.419109 163.296 
L 303.634683 157.248 
L 303.850257 158.976 
L 304.281405 150.336 
L 304.496979 167.616 
L 304.712553 165.888 
L 304.928127 178.848 
L 305.143702 177.984 
L 305.359276 174.528 
L 305.57485 174.528 
L 306.005998 181.44 
L 306.221572 174.528 
L 306.437146 172.8 
L 306.65272 175.392 
L 306.868294 172.8 
L 307.083868 165.888 
L 307.515016 180.576 
L 307.73059 180.576 
L 307.946164 178.848 
L 308.161739 178.848 
L 308.377313 177.984 
L 308.592887 177.984 
L 308.808461 181.44 
L 309.455183 163.296 
L 309.670757 142.56 
L 309.886331 152.064 
L 310.101905 146.016 
L 310.317479 145.152 
L 310.533053 136.512 
L 310.748627 134.784 
L 310.964201 141.696 
L 311.179775 143.424 
L 311.39535 148.608 
L 311.610924 139.968 
L 311.826498 143.424 
L 312.042072 150.336 
L 312.257646 146.016 
L 312.47322 147.744 
L 312.688794 144.288 
L 312.904368 146.88 
L 313.119942 151.2 
L 313.335516 165.024 
L 313.55109 166.752 
L 313.766664 165.024 
L 313.982238 170.208 
L 314.197812 162.432 
L 314.413386 160.704 
L 314.628961 165.888 
L 314.844535 147.744 
L 315.060109 151.2 
L 315.275683 147.744 
L 315.491257 158.112 
L 315.706831 162.432 
L 316.137979 154.656 
L 316.353553 163.296 
L 316.569127 165.888 
L 316.784701 165.888 
L 317.215849 189.216 
L 317.431423 182.304 
L 317.646997 171.072 
L 317.862572 166.752 
L 318.078146 165.888 
L 318.509294 154.656 
L 319.587164 129.6 
L 319.802738 134.784 
L 320.233886 126.144 
L 320.44946 127.872 
L 320.880608 139.104 
L 321.096183 142.56 
L 321.311757 169.344 
L 321.527331 172.8 
L 321.742905 178.848 
L 321.958479 178.848 
L 322.389627 182.304 
L 322.605201 182.304 
L 322.820775 180.576 
L 323.036349 187.488 
L 323.251923 186.624 
L 323.467497 180.576 
L 323.683071 179.712 
L 323.898645 190.08 
L 324.114219 184.032 
L 324.329794 172.8 
L 324.545368 170.208 
L 324.760942 171.936 
L 325.19209 179.712 
L 325.407664 201.312 
L 325.623238 201.312 
L 325.838812 192.672 
L 326.054386 192.672 
L 326.26996 190.944 
L 326.485534 187.488 
L 326.701108 176.256 
L 326.916682 188.352 
L 327.132256 188.352 
L 327.34783 199.584 
L 327.778979 190.944 
L 327.994553 198.72 
L 328.210127 198.72 
L 328.425701 187.488 
L 328.641275 185.76 
L 328.856849 192.672 
L 329.072423 192.672 
L 329.287997 194.4 
L 329.503571 186.624 
L 329.719145 190.944 
L 329.934719 188.352 
L 330.150293 177.984 
L 330.365867 176.256 
L 330.581442 176.256 
L 331.01259 153.792 
L 331.228164 151.2 
L 331.659312 158.112 
L 331.874886 157.248 
L 332.09046 159.84 
L 332.306034 152.064 
L 332.521608 152.064 
L 332.952756 166.752 
L 333.16833 161.568 
L 333.383904 152.928 
L 333.599478 155.52 
L 333.815053 163.296 
L 334.030627 176.256 
L 334.246201 177.984 
L 334.461775 174.528 
L 334.892923 183.168 
L 335.108497 181.44 
L 335.324071 164.16 
L 335.539645 165.888 
L 335.755219 164.16 
L 335.970793 165.888 
L 336.186367 162.432 
L 336.401941 162.432 
L 336.617515 160.704 
L 336.833089 161.568 
L 337.264238 179.712 
L 337.695386 184.032 
L 337.91096 170.208 
L 338.126534 171.936 
L 338.342108 175.392 
L 338.557682 182.304 
L 338.773256 178.848 
L 338.98883 181.44 
L 339.204404 176.256 
L 339.419978 181.44 
L 339.635552 191.808 
L 339.851126 184.032 
L 340.497849 208.224 
L 340.713423 204.768 
L 340.928997 186.624 
L 341.144571 196.128 
L 341.360145 199.584 
L 341.791293 174.528 
L 342.222441 171.936 
L 342.653589 163.296 
L 342.869163 163.296 
L 343.084737 175.392 
L 343.300311 178.848 
L 343.515886 188.352 
L 343.73146 189.216 
L 343.947034 196.128 
L 344.162608 190.944 
L 344.378182 202.176 
L 344.80933 199.584 
L 345.024904 185.76 
L 345.240478 199.584 
L 345.456052 197.856 
L 345.671626 182.304 
L 345.8872 179.712 
L 346.102774 190.08 
L 346.318348 189.216 
L 346.965071 195.264 
L 347.180645 194.4 
L 347.396219 194.4 
L 347.611793 203.904 
L 347.827367 203.904 
L 348.258515 186.624 
L 348.689663 195.264 
L 348.905237 186.624 
L 349.120811 192.672 
L 349.336385 195.264 
L 349.551959 202.176 
L 349.767534 203.04 
L 349.983108 196.992 
L 350.198682 195.264 
L 350.414256 201.312 
L 350.845404 197.856 
L 351.060978 197.856 
L 351.276552 190.944 
L 351.7077 203.04 
L 351.923274 203.04 
L 352.138848 202.176 
L 352.354422 200.448 
L 353.001145 187.488 
L 353.647867 202.176 
L 353.863441 204.768 
L 354.079015 189.216 
L 354.294589 194.4 
L 354.510163 190.944 
L 354.725737 196.992 
L 354.941311 191.808 
L 355.156885 200.448 
L 355.372459 193.536 
L 355.803607 189.216 
L 356.019181 199.584 
L 356.234756 203.04 
L 356.45033 200.448 
L 356.881478 177.12 
L 357.743774 193.536 
L 358.174922 188.352 
L 358.390496 193.536 
L 358.60607 195.264 
L 359.037218 204.768 
L 359.252792 211.68 
L 359.468367 212.544 
L 359.683941 209.088 
L 359.899515 220.32 
L 360.115089 222.048 
L 360.330663 217.728 
L 360.546237 216 
L 360.761811 217.728 
L 360.977385 217.728 
L 361.192959 214.272 
L 361.408533 215.136 
L 361.624107 210.816 
L 361.839681 200.448 
L 362.055255 197.856 
L 362.486403 214.272 
L 362.701978 215.136 
L 362.917552 221.184 
L 363.133126 219.456 
L 363.3487 221.184 
L 363.564274 216.864 
L 363.779848 201.312 
L 363.995422 203.04 
L 364.210996 194.4 
L 364.642144 196.128 
L 364.857718 196.128 
L 365.073292 201.312 
L 365.50444 204.768 
L 365.720014 200.448 
L 365.935589 202.176 
L 366.151163 199.584 
L 366.366737 203.04 
L 366.582311 215.136 
L 366.797885 208.224 
L 367.229033 204.768 
L 367.444607 205.632 
L 367.660181 196.992 
L 368.091329 206.496 
L 368.306903 204.768 
L 368.522477 204.768 
L 368.738051 201.312 
L 368.953625 202.176 
L 369.1692 214.272 
L 369.384774 214.272 
L 369.600348 211.68 
L 370.031496 199.584 
L 370.462644 213.408 
L 370.678218 211.68 
L 370.893792 222.912 
L 371.109366 223.776 
L 371.32494 222.912 
L 371.540514 228.096 
L 371.756088 228.96 
L 371.971662 233.28 
L 372.187237 234.144 
L 372.402811 226.368 
L 372.618385 222.912 
L 373.049533 230.688 
L 373.265107 227.232 
L 373.480681 239.328 
L 373.696255 234.144 
L 373.911829 234.144 
L 374.127403 240.192 
L 374.342977 240.192 
L 374.558551 236.736 
L 374.774125 236.736 
L 374.989699 235.008 
L 375.205273 235.872 
L 375.420848 230.688 
L 375.636422 230.688 
L 376.06757 237.6 
L 376.283144 251.424 
L 376.498718 247.104 
L 376.714292 248.832 
L 376.929866 245.376 
L 377.14544 244.512 
L 377.361014 253.152 
L 377.576588 254.016 
L 377.792162 254.016 
L 378.007736 254.88 
L 378.22331 250.56 
L 378.438884 252.288 
L 378.870033 239.328 
L 379.085607 241.92 
L 379.301181 238.464 
L 379.516755 248.832 
L 379.732329 247.104 
L 379.947903 248.832 
L 380.163477 258.336 
L 380.379051 247.104 
L 380.594625 253.152 
L 380.810199 255.744 
L 381.241347 249.696 
L 381.456921 250.56 
L 381.672495 258.336 
L 381.88807 261.792 
L 382.103644 260.064 
L 382.319218 264.384 
L 382.534792 265.248 
L 382.750366 264.384 
L 382.96594 266.112 
L 383.181514 264.384 
L 383.612662 264.384 
L 384.04381 257.472 
L 384.259384 257.472 
L 384.474958 258.336 
L 385.337255 258.336 
L 385.552829 257.472 
L 385.768403 254.016 
L 385.983977 254.88 
L 386.199551 261.792 
L 386.415125 256.608 
L 386.630699 254.88 
L 386.846273 256.608 
L 387.061847 256.608 
L 387.277421 258.336 
L 387.708569 253.152 
L 388.139717 259.2 
L 388.570866 259.2 
L 388.78644 260.928 
L 389.002014 259.2 
L 389.217588 262.656 
L 389.433162 259.2 
L 389.648736 265.248 
L 389.86431 265.248 
L 390.079884 264.384 
L 390.511032 259.2 
L 390.726606 260.928 
L 390.94218 260.064 
L 391.157754 255.744 
L 391.588903 260.928 
L 391.804477 258.336 
L 392.020051 257.472 
L 392.235625 255.744 
L 392.666773 260.928 
L 392.882347 260.928 
L 393.097921 264.384 
L 393.313495 265.248 
L 393.529069 266.976 
L 394.175791 275.616 
L 394.391365 275.616 
L 394.60694 279.936 
L 394.822514 281.664 
L 395.038088 279.936 
L 395.469236 279.936 
L 396.115958 286.848 
L 396.331532 278.208 
L 396.978254 278.208 
L 397.193828 279.936 
L 397.409402 283.392 
L 397.624976 279.072 
L 397.840551 280.8 
L 398.056125 285.12 
L 398.271699 285.12 
L 398.487273 295.488 
L 398.487273 295.488 
" clip-path="url(#p974bf8965b)" style="fill: none; stroke: #1f77b4; stroke-width: 1.5; stroke-linecap: square"/>
   </g>
   <g id="patch_3">
    <path d="M 57.6 307.584 
L 57.6 41.472 
" style="fill: none; stroke: #000000; stroke-width: 0.8; stroke-linejoin: miter; stroke-linecap: square"/>
   </g>
   <g id="patch_4">
    <path d="M 414.72 307.584 
L 414.72 41.472 
" style="fill: none; stroke: #000000; stroke-width: 0.8; stroke-linejoin: miter; stroke-linecap: square"/>
   </g>
   <g id="patch_5">
    <path d="M 57.6 307.584 
L 414.72 307.584 
" style="fill: none; stroke: #000000; stroke-width: 0.8; stroke-linejoin: miter; stroke-linecap: square"/>
   </g>
   <g id="patch_6">
    <path d="M 57.6 41.472 
L 414.72 41.472 
" style="fill: none; stroke: #000000; stroke-width: 0.8; stroke-linejoin: miter; stroke-linecap: square"/>
   </g>
   <g id="text_16">
    <!-- Simulated Anealling Cost -->
    <g transform="translate(160.8 35.472)scale(0.12 -0.12)">
     <defs>
      <path id="DejaVuSans-53" d="M 3425 4513 
L 3425 3897 
Q 3066 4069 2747 4153 
Q 2428 4238 2131 4238 
Q 1616 4238 1336 4038 
Q 1056 3838 1056 3469 
Q 1056 3159 1242 3001 
Q 1428 2844 1947 2747 
L 2328 2669 
Q 3034 2534 3370 2195 
Q 3706 1856 3706 1288 
Q 3706 609 3251 259 
Q 2797 -91 1919 -91 
Q 1588 -91 1214 -16 
Q 841 59 441 206 
L 441 856 
Q 825 641 1194 531 
Q 1563 422 1919 422 
Q 2459 422 2753 634 
Q 3047 847 3047 1241 
Q 3047 1584 2836 1778 
Q 2625 1972 2144 2069 
L 1759 2144 
Q 1053 2284 737 2584 
Q 422 2884 422 3419 
Q 422 4038 858 4394 
Q 1294 4750 2059 4750 
Q 2388 4750 2728 4690 
Q 3069 4631 3425 4513 
z
" transform="scale(0.015625)"/>
      <path id="DejaVuSans-69" d="M 603 3500 
L 1178 3500 
L 1178 0 
L 603 0 
L 603 3500 
z
M 603 4863 
L 1178 4863 
L 1178 4134 
L 603 4134 
L 603 4863 
z
" transform="scale(0.015625)"/>
      <path id="DejaVuSans-65" d="M 3597 1894 
L 3597 1613 
L 953 1613 
Q 991 1019 1311 708 
Q 1631 397 2203 397 
Q 2534 397 2845 478 
Q 3156 559 3463 722 
L 3463 178 
Q 3153 47 2828 -22 
Q 2503 -91 2169 -91 
Q 1331 -91 842 396 
Q 353 884 353 1716 
Q 353 2575 817 3079 
Q 1281 3584 2069 3584 
Q 2775 3584 3186 3129 
Q 3597 2675 3597 1894 
z
M 3022 2063 
Q 3016 2534 2758 2815 
Q 2500 3097 2075 3097 
Q 1594 3097 1305 2825 
Q 1016 2553 972 2059 
L 3022 2063 
z
" transform="scale(0.015625)"/>
      <path id="DejaVuSans-64" d="M 2906 2969 
L 2906 4863 
L 3481 4863 
L 3481 0 
L 2906 0 
L 2906 525 
Q 2725 213 2448 61 
Q 2172 -91 1784 -91 
Q 1150 -91 751 415 
Q 353 922 353 1747 
Q 353 2572 751 3078 
Q 1150 3584 1784 3584 
Q 2172 3584 2448 3432 
Q 2725 3281 2906 2969 
z
M 947 1747 
Q 947 1113 1208 752 
Q 1469 391 1925 391 
Q 2381 391 2643 752 
Q 2906 1113 2906 1747 
Q 2906 2381 2643 2742 
Q 2381 3103 1925 3103 
Q 1469 3103 1208 2742 
Q 947 2381 947 1747 
z
" transform="scale(0.015625)"/>
      <path id="DejaVuSans-41" d="M 2188 4044 
L 1331 1722 
L 3047 1722 
L 2188 4044 
z
M 1831 4666 
L 2547 4666 
L 4325 0 
L 3669 0 
L 3244 1197 
L 1141 1197 
L 716 0 
L 50 0 
L 1831 4666 
z
" transform="scale(0.015625)"/>
      <path id="DejaVuSans-67" d="M 2906 1791 
Q 2906 2416 2648 2759 
Q 2391 3103 1925 3103 
Q 1463 3103 1205 2759 
Q 947 2416 947 1791 
Q 947 1169 1205 825 
Q 1463 481 1925 481 
Q 2391 481 2648 825 
Q 2906 1169 2906 1791 
z
M 3481 434 
Q 3481 -459 3084 -895 
Q 2688 -1331 1869 -1331 
Q 1566 -1331 1297 -1286 
Q 1028 -1241 775 -1147 
L 775 -588 
Q 1028 -725 1275 -790 
Q 1522 -856 1778 -856 
Q 2344 -856 2625 -561 
Q 2906 -266 2906 331 
L 2906 616 
Q 2728 306 2450 153 
Q 2172 0 1784 0 
Q 1141 0 747 490 
Q 353 981 353 1791 
Q 353 2603 747 3093 
Q 1141 3584 1784 3584 
Q 2172 3584 2450 3431 
Q 2728 3278 2906 2969 
L 2906 3500 
L 3481 3500 
L 3481 434 
z
" transform="scale(0.015625)"/>
      <path id="DejaVuSans-43" d="M 4122 4306 
L 4122 3641 
Q 3803 3938 3442 4084 
Q 3081 4231 2675 4231 
Q 1875 4231 1450 3742 
Q 1025 3253 1025 2328 
Q 1025 1406 1450 917 
Q 1875 428 2675 428 
Q 3081 428 3442 575 
Q 3803 722 4122 1019 
L 4122 359 
Q 3791 134 3420 21 
Q 3050 -91 2638 -91 
Q 1578 -91 968 557 
Q 359 1206 359 2328 
Q 359 3453 968 4101 
Q 1578 4750 2638 4750 
Q 3056 4750 3426 4639 
Q 3797 4528 4122 4306 
z
" transform="scale(0.015625)"/>
     </defs>
     <use xlink:href="#DejaVuSans-53"/>
     <use xlink:href="#DejaVuSans-69" x="63.476562"/>
     <use xlink:href="#DejaVuSans-6d" x="91.259766"/>
     <use xlink:href="#DejaVuSans-75" x="188.671875"/>
     <use xlink:href="#DejaVuSans-6c" x="252.050781"/>
     <use xlink:href="#DejaVuSans-61" x="279.833984"/>
     <use xlink:href="#DejaVuSans-74" x="341.113281"/>
     <use xlink:href="#DejaVuSans-65" x="380.322266"/>
     <use xlink:href="#DejaVuSans-64" x="441.845703"/>
     <use xlink:href="#DejaVuSans-20" x="505.322266"/>
     <use xlink:href="#DejaVuSans-41" x="537.109375"/>
     <use xlink:href="#DejaVuSans-6e" x="605.517578"/>
     <use xlink:href="#DejaVuSans-65" x="668.896484"/>
     <use xlink:href="#DejaVuSans-61" x="730.419922"/>
     <use xlink:href="#DejaVuSans-6c" x="791.699219"/>
     <use xlink:href="#DejaVuSans-6c" x="819.482422"/>
     <use xlink:href="#DejaVuSans-69" x="847.265625"/>
     <use xlink:href="#DejaVuSans-6e" x="875.048828"/>
     <use xlink:href="#DejaVuSans-67" x="938.427734"/>
     <use xlink:href="#DejaVuSans-20" x="1001.904297"/>
     <use xlink:href="#DejaVuSans-43" x="1033.691406"/>
     <use xlink:href="#DejaVuSans-6f" x="1103.515625"/>
     <use xlink:href="#DejaVuSans-73" x="1164.697266"/>
     <use xlink:href="#DejaVuSans-74" x="1216.796875"/>
    </g>
   </g>
  </g>
 </g>
 <defs>
  <clipPath id="p974bf8965b">
   <rect x="57.6" y="41.472" width="357.12" height="266.112"/>
  </clipPath>
 </defs>
</svg>
