<?xml version="1.0" encoding="utf-8" standalone="no"?>
<!DOCTYPE svg PUBLIC "-//W3C//DTD SVG 1.1//EN"
  "http://www.w3.org/Graphics/SVG/1.1/DTD/svg11.dtd">
<svg xmlns:xlink="http://www.w3.org/1999/xlink" width="460.8pt" height="345.6pt" viewBox="0 0 460.8 345.6" xmlns="http://www.w3.org/2000/svg" version="1.1">
 <metadata>
  <rdf:RDF xmlns:dc="http://purl.org/dc/elements/1.1/" xmlns:cc="http://creativecommons.org/ns#" xmlns:rdf="http://www.w3.org/1999/02/22-rdf-syntax-ns#">
   <cc:Work>
    <dc:type rdf:resource="http://purl.org/dc/dcmitype/StillImage"/>
    <dc:date>2022-06-01T08:03:47.459086</dc:date>
    <dc:format>image/svg+xml</dc:format>
    <dc:creator>
     <cc:Agent>
      <dc:title>Matplotlib v3.5.1, https://matplotlib.org/</dc:title>
     </cc:Agent>
    </dc:creator>
   </cc:Work>
  </rdf:RDF>
 </metadata>
 <defs>
  <style type="text/css">*{stroke-linejoin: round; stroke-linecap: butt}</style>
 </defs>
 <g id="figure_1">
  <g id="patch_1">
   <path d="M 0 345.6 
L 460.8 345.6 
L 460.8 0 
L 0 0 
z
" style="fill: #ffffff"/>
  </g>
  <g id="axes_1">
   <g id="patch_2">
    <path d="M 57.6 307.584 
L 414.72 307.584 
L 414.72 41.472 
L 57.6 41.472 
z
" style="fill: #ffffff"/>
   </g>
   <g id="matplotlib.axis_1">
    <g id="xtick_1">
     <g id="line2d_1">
      <defs>
       <path id="m4351b1c851" d="M 0 0 
L 0 3.5 
" style="stroke: #000000; stroke-width: 0.8"/>
      </defs>
      <g>
       <use xlink:href="#m4351b1c851" x="73.832727" y="307.584" style="stroke: #000000; stroke-width: 0.8"/>
      </g>
     </g>
     <g id="text_1">
      <!-- 0 -->
      <g transform="translate(70.651477 322.182437)scale(0.1 -0.1)">
       <defs>
        <path id="DejaVuSans-30" d="M 2034 4250 
Q 1547 4250 1301 3770 
Q 1056 3291 1056 2328 
Q 1056 1369 1301 889 
Q 1547 409 2034 409 
Q 2525 409 2770 889 
Q 3016 1369 3016 2328 
Q 3016 3291 2770 3770 
Q 2525 4250 2034 4250 
z
M 2034 4750 
Q 2819 4750 3233 4129 
Q 3647 3509 3647 2328 
Q 3647 1150 3233 529 
Q 2819 -91 2034 -91 
Q 1250 -91 836 529 
Q 422 1150 422 2328 
Q 422 3509 836 4129 
Q 1250 4750 2034 4750 
z
" transform="scale(0.015625)"/>
       </defs>
       <use xlink:href="#DejaVuSans-30"/>
      </g>
     </g>
    </g>
    <g id="xtick_2">
     <g id="line2d_2">
      <g>
       <use xlink:href="#m4351b1c851" x="119.074442" y="307.584" style="stroke: #000000; stroke-width: 0.8"/>
      </g>
     </g>
     <g id="text_2">
      <!-- 250 -->
      <g transform="translate(109.530692 322.182437)scale(0.1 -0.1)">
       <defs>
        <path id="DejaVuSans-32" d="M 1228 531 
L 3431 531 
L 3431 0 
L 469 0 
L 469 531 
Q 828 903 1448 1529 
Q 2069 2156 2228 2338 
Q 2531 2678 2651 2914 
Q 2772 3150 2772 3378 
Q 2772 3750 2511 3984 
Q 2250 4219 1831 4219 
Q 1534 4219 1204 4116 
Q 875 4013 500 3803 
L 500 4441 
Q 881 4594 1212 4672 
Q 1544 4750 1819 4750 
Q 2544 4750 2975 4387 
Q 3406 4025 3406 3419 
Q 3406 3131 3298 2873 
Q 3191 2616 2906 2266 
Q 2828 2175 2409 1742 
Q 1991 1309 1228 531 
z
" transform="scale(0.015625)"/>
        <path id="DejaVuSans-35" d="M 691 4666 
L 3169 4666 
L 3169 4134 
L 1269 4134 
L 1269 2991 
Q 1406 3038 1543 3061 
Q 1681 3084 1819 3084 
Q 2600 3084 3056 2656 
Q 3513 2228 3513 1497 
Q 3513 744 3044 326 
Q 2575 -91 1722 -91 
Q 1428 -91 1123 -41 
Q 819 9 494 109 
L 494 744 
Q 775 591 1075 516 
Q 1375 441 1709 441 
Q 2250 441 2565 725 
Q 2881 1009 2881 1497 
Q 2881 1984 2565 2268 
Q 2250 2553 1709 2553 
Q 1456 2553 1204 2497 
Q 953 2441 691 2322 
L 691 4666 
z
" transform="scale(0.015625)"/>
       </defs>
       <use xlink:href="#DejaVuSans-32"/>
       <use xlink:href="#DejaVuSans-35" x="63.623047"/>
       <use xlink:href="#DejaVuSans-30" x="127.246094"/>
      </g>
     </g>
    </g>
    <g id="xtick_3">
     <g id="line2d_3">
      <g>
       <use xlink:href="#m4351b1c851" x="164.316157" y="307.584" style="stroke: #000000; stroke-width: 0.8"/>
      </g>
     </g>
     <g id="text_3">
      <!-- 500 -->
      <g transform="translate(154.772407 322.182437)scale(0.1 -0.1)">
       <use xlink:href="#DejaVuSans-35"/>
       <use xlink:href="#DejaVuSans-30" x="63.623047"/>
       <use xlink:href="#DejaVuSans-30" x="127.246094"/>
      </g>
     </g>
    </g>
    <g id="xtick_4">
     <g id="line2d_4">
      <g>
       <use xlink:href="#m4351b1c851" x="209.557872" y="307.584" style="stroke: #000000; stroke-width: 0.8"/>
      </g>
     </g>
     <g id="text_4">
      <!-- 750 -->
      <g transform="translate(200.014122 322.182437)scale(0.1 -0.1)">
       <defs>
        <path id="DejaVuSans-37" d="M 525 4666 
L 3525 4666 
L 3525 4397 
L 1831 0 
L 1172 0 
L 2766 4134 
L 525 4134 
L 525 4666 
z
" transform="scale(0.015625)"/>
       </defs>
       <use xlink:href="#DejaVuSans-37"/>
       <use xlink:href="#DejaVuSans-35" x="63.623047"/>
       <use xlink:href="#DejaVuSans-30" x="127.246094"/>
      </g>
     </g>
    </g>
    <g id="xtick_5">
     <g id="line2d_5">
      <g>
       <use xlink:href="#m4351b1c851" x="254.799587" y="307.584" style="stroke: #000000; stroke-width: 0.8"/>
      </g>
     </g>
     <g id="text_5">
      <!-- 1000 -->
      <g transform="translate(242.074587 322.182437)scale(0.1 -0.1)">
       <defs>
        <path id="DejaVuSans-31" d="M 794 531 
L 1825 531 
L 1825 4091 
L 703 3866 
L 703 4441 
L 1819 4666 
L 2450 4666 
L 2450 531 
L 3481 531 
L 3481 0 
L 794 0 
L 794 531 
z
" transform="scale(0.015625)"/>
       </defs>
       <use xlink:href="#DejaVuSans-31"/>
       <use xlink:href="#DejaVuSans-30" x="63.623047"/>
       <use xlink:href="#DejaVuSans-30" x="127.246094"/>
       <use xlink:href="#DejaVuSans-30" x="190.869141"/>
      </g>
     </g>
    </g>
    <g id="xtick_6">
     <g id="line2d_6">
      <g>
       <use xlink:href="#m4351b1c851" x="300.041301" y="307.584" style="stroke: #000000; stroke-width: 0.8"/>
      </g>
     </g>
     <g id="text_6">
      <!-- 1250 -->
      <g transform="translate(287.316301 322.182437)scale(0.1 -0.1)">
       <use xlink:href="#DejaVuSans-31"/>
       <use xlink:href="#DejaVuSans-32" x="63.623047"/>
       <use xlink:href="#DejaVuSans-35" x="127.246094"/>
       <use xlink:href="#DejaVuSans-30" x="190.869141"/>
      </g>
     </g>
    </g>
    <g id="xtick_7">
     <g id="line2d_7">
      <g>
       <use xlink:href="#m4351b1c851" x="345.283016" y="307.584" style="stroke: #000000; stroke-width: 0.8"/>
      </g>
     </g>
     <g id="text_7">
      <!-- 1500 -->
      <g transform="translate(332.558016 322.182437)scale(0.1 -0.1)">
       <use xlink:href="#DejaVuSans-31"/>
       <use xlink:href="#DejaVuSans-35" x="63.623047"/>
       <use xlink:href="#DejaVuSans-30" x="127.246094"/>
       <use xlink:href="#DejaVuSans-30" x="190.869141"/>
      </g>
     </g>
    </g>
    <g id="xtick_8">
     <g id="line2d_8">
      <g>
       <use xlink:href="#m4351b1c851" x="390.524731" y="307.584" style="stroke: #000000; stroke-width: 0.8"/>
      </g>
     </g>
     <g id="text_8">
      <!-- 1750 -->
      <g transform="translate(377.799731 322.182437)scale(0.1 -0.1)">
       <use xlink:href="#DejaVuSans-31"/>
       <use xlink:href="#DejaVuSans-37" x="63.623047"/>
       <use xlink:href="#DejaVuSans-35" x="127.246094"/>
       <use xlink:href="#DejaVuSans-30" x="190.869141"/>
      </g>
     </g>
    </g>
    <g id="text_9">
     <!-- num swaps -->
     <g transform="translate(207.826406 335.860562)scale(0.1 -0.1)">
      <defs>
       <path id="DejaVuSans-6e" d="M 3513 2113 
L 3513 0 
L 2938 0 
L 2938 2094 
Q 2938 2591 2744 2837 
Q 2550 3084 2163 3084 
Q 1697 3084 1428 2787 
Q 1159 2491 1159 1978 
L 1159 0 
L 581 0 
L 581 3500 
L 1159 3500 
L 1159 2956 
Q 1366 3272 1645 3428 
Q 1925 3584 2291 3584 
Q 2894 3584 3203 3211 
Q 3513 2838 3513 2113 
z
" transform="scale(0.015625)"/>
       <path id="DejaVuSans-75" d="M 544 1381 
L 544 3500 
L 1119 3500 
L 1119 1403 
Q 1119 906 1312 657 
Q 1506 409 1894 409 
Q 2359 409 2629 706 
Q 2900 1003 2900 1516 
L 2900 3500 
L 3475 3500 
L 3475 0 
L 2900 0 
L 2900 538 
Q 2691 219 2414 64 
Q 2138 -91 1772 -91 
Q 1169 -91 856 284 
Q 544 659 544 1381 
z
M 1991 3584 
L 1991 3584 
z
" transform="scale(0.015625)"/>
       <path id="DejaVuSans-6d" d="M 3328 2828 
Q 3544 3216 3844 3400 
Q 4144 3584 4550 3584 
Q 5097 3584 5394 3201 
Q 5691 2819 5691 2113 
L 5691 0 
L 5113 0 
L 5113 2094 
Q 5113 2597 4934 2840 
Q 4756 3084 4391 3084 
Q 3944 3084 3684 2787 
Q 3425 2491 3425 1978 
L 3425 0 
L 2847 0 
L 2847 2094 
Q 2847 2600 2669 2842 
Q 2491 3084 2119 3084 
Q 1678 3084 1418 2786 
Q 1159 2488 1159 1978 
L 1159 0 
L 581 0 
L 581 3500 
L 1159 3500 
L 1159 2956 
Q 1356 3278 1631 3431 
Q 1906 3584 2284 3584 
Q 2666 3584 2933 3390 
Q 3200 3197 3328 2828 
z
" transform="scale(0.015625)"/>
       <path id="DejaVuSans-20" transform="scale(0.015625)"/>
       <path id="DejaVuSans-73" d="M 2834 3397 
L 2834 2853 
Q 2591 2978 2328 3040 
Q 2066 3103 1784 3103 
Q 1356 3103 1142 2972 
Q 928 2841 928 2578 
Q 928 2378 1081 2264 
Q 1234 2150 1697 2047 
L 1894 2003 
Q 2506 1872 2764 1633 
Q 3022 1394 3022 966 
Q 3022 478 2636 193 
Q 2250 -91 1575 -91 
Q 1294 -91 989 -36 
Q 684 19 347 128 
L 347 722 
Q 666 556 975 473 
Q 1284 391 1588 391 
Q 1994 391 2212 530 
Q 2431 669 2431 922 
Q 2431 1156 2273 1281 
Q 2116 1406 1581 1522 
L 1381 1569 
Q 847 1681 609 1914 
Q 372 2147 372 2553 
Q 372 3047 722 3315 
Q 1072 3584 1716 3584 
Q 2034 3584 2315 3537 
Q 2597 3491 2834 3397 
z
" transform="scale(0.015625)"/>
       <path id="DejaVuSans-77" d="M 269 3500 
L 844 3500 
L 1563 769 
L 2278 3500 
L 2956 3500 
L 3675 769 
L 4391 3500 
L 4966 3500 
L 4050 0 
L 3372 0 
L 2619 2869 
L 1863 0 
L 1184 0 
L 269 3500 
z
" transform="scale(0.015625)"/>
       <path id="DejaVuSans-61" d="M 2194 1759 
Q 1497 1759 1228 1600 
Q 959 1441 959 1056 
Q 959 750 1161 570 
Q 1363 391 1709 391 
Q 2188 391 2477 730 
Q 2766 1069 2766 1631 
L 2766 1759 
L 2194 1759 
z
M 3341 1997 
L 3341 0 
L 2766 0 
L 2766 531 
Q 2569 213 2275 61 
Q 1981 -91 1556 -91 
Q 1019 -91 701 211 
Q 384 513 384 1019 
Q 384 1609 779 1909 
Q 1175 2209 1959 2209 
L 2766 2209 
L 2766 2266 
Q 2766 2663 2505 2880 
Q 2244 3097 1772 3097 
Q 1472 3097 1187 3025 
Q 903 2953 641 2809 
L 641 3341 
Q 956 3463 1253 3523 
Q 1550 3584 1831 3584 
Q 2591 3584 2966 3190 
Q 3341 2797 3341 1997 
z
" transform="scale(0.015625)"/>
       <path id="DejaVuSans-70" d="M 1159 525 
L 1159 -1331 
L 581 -1331 
L 581 3500 
L 1159 3500 
L 1159 2969 
Q 1341 3281 1617 3432 
Q 1894 3584 2278 3584 
Q 2916 3584 3314 3078 
Q 3713 2572 3713 1747 
Q 3713 922 3314 415 
Q 2916 -91 2278 -91 
Q 1894 -91 1617 61 
Q 1341 213 1159 525 
z
M 3116 1747 
Q 3116 2381 2855 2742 
Q 2594 3103 2138 3103 
Q 1681 3103 1420 2742 
Q 1159 2381 1159 1747 
Q 1159 1113 1420 752 
Q 1681 391 2138 391 
Q 2594 391 2855 752 
Q 3116 1113 3116 1747 
z
" transform="scale(0.015625)"/>
      </defs>
      <use xlink:href="#DejaVuSans-6e"/>
      <use xlink:href="#DejaVuSans-75" x="63.378906"/>
      <use xlink:href="#DejaVuSans-6d" x="126.757812"/>
      <use xlink:href="#DejaVuSans-20" x="224.169922"/>
      <use xlink:href="#DejaVuSans-73" x="255.957031"/>
      <use xlink:href="#DejaVuSans-77" x="308.056641"/>
      <use xlink:href="#DejaVuSans-61" x="389.84375"/>
      <use xlink:href="#DejaVuSans-70" x="451.123047"/>
      <use xlink:href="#DejaVuSans-73" x="514.599609"/>
     </g>
    </g>
   </g>
   <g id="matplotlib.axis_2">
    <g id="ytick_1">
     <g id="line2d_9">
      <defs>
       <path id="meaa64b4b25" d="M 0 0 
L -3.5 0 
" style="stroke: #000000; stroke-width: 0.8"/>
      </defs>
      <g>
       <use xlink:href="#meaa64b4b25" x="57.6" y="291.708" style="stroke: #000000; stroke-width: 0.8"/>
      </g>
     </g>
     <g id="text_10">
      <!-- 280 -->
      <g transform="translate(31.5125 295.507219)scale(0.1 -0.1)">
       <defs>
        <path id="DejaVuSans-38" d="M 2034 2216 
Q 1584 2216 1326 1975 
Q 1069 1734 1069 1313 
Q 1069 891 1326 650 
Q 1584 409 2034 409 
Q 2484 409 2743 651 
Q 3003 894 3003 1313 
Q 3003 1734 2745 1975 
Q 2488 2216 2034 2216 
z
M 1403 2484 
Q 997 2584 770 2862 
Q 544 3141 544 3541 
Q 544 4100 942 4425 
Q 1341 4750 2034 4750 
Q 2731 4750 3128 4425 
Q 3525 4100 3525 3541 
Q 3525 3141 3298 2862 
Q 3072 2584 2669 2484 
Q 3125 2378 3379 2068 
Q 3634 1759 3634 1313 
Q 3634 634 3220 271 
Q 2806 -91 2034 -91 
Q 1263 -91 848 271 
Q 434 634 434 1313 
Q 434 1759 690 2068 
Q 947 2378 1403 2484 
z
M 1172 3481 
Q 1172 3119 1398 2916 
Q 1625 2713 2034 2713 
Q 2441 2713 2670 2916 
Q 2900 3119 2900 3481 
Q 2900 3844 2670 4047 
Q 2441 4250 2034 4250 
Q 1625 4250 1398 4047 
Q 1172 3844 1172 3481 
z
" transform="scale(0.015625)"/>
       </defs>
       <use xlink:href="#DejaVuSans-32"/>
       <use xlink:href="#DejaVuSans-38" x="63.623047"/>
       <use xlink:href="#DejaVuSans-30" x="127.246094"/>
      </g>
     </g>
    </g>
    <g id="ytick_2">
     <g id="line2d_10">
      <g>
       <use xlink:href="#meaa64b4b25" x="57.6" y="253.908" style="stroke: #000000; stroke-width: 0.8"/>
      </g>
     </g>
     <g id="text_11">
      <!-- 290 -->
      <g transform="translate(31.5125 257.707219)scale(0.1 -0.1)">
       <defs>
        <path id="DejaVuSans-39" d="M 703 97 
L 703 672 
Q 941 559 1184 500 
Q 1428 441 1663 441 
Q 2288 441 2617 861 
Q 2947 1281 2994 2138 
Q 2813 1869 2534 1725 
Q 2256 1581 1919 1581 
Q 1219 1581 811 2004 
Q 403 2428 403 3163 
Q 403 3881 828 4315 
Q 1253 4750 1959 4750 
Q 2769 4750 3195 4129 
Q 3622 3509 3622 2328 
Q 3622 1225 3098 567 
Q 2575 -91 1691 -91 
Q 1453 -91 1209 -44 
Q 966 3 703 97 
z
M 1959 2075 
Q 2384 2075 2632 2365 
Q 2881 2656 2881 3163 
Q 2881 3666 2632 3958 
Q 2384 4250 1959 4250 
Q 1534 4250 1286 3958 
Q 1038 3666 1038 3163 
Q 1038 2656 1286 2365 
Q 1534 2075 1959 2075 
z
" transform="scale(0.015625)"/>
       </defs>
       <use xlink:href="#DejaVuSans-32"/>
       <use xlink:href="#DejaVuSans-39" x="63.623047"/>
       <use xlink:href="#DejaVuSans-30" x="127.246094"/>
      </g>
     </g>
    </g>
    <g id="ytick_3">
     <g id="line2d_11">
      <g>
       <use xlink:href="#meaa64b4b25" x="57.6" y="216.108" style="stroke: #000000; stroke-width: 0.8"/>
      </g>
     </g>
     <g id="text_12">
      <!-- 300 -->
      <g transform="translate(31.5125 219.907219)scale(0.1 -0.1)">
       <defs>
        <path id="DejaVuSans-33" d="M 2597 2516 
Q 3050 2419 3304 2112 
Q 3559 1806 3559 1356 
Q 3559 666 3084 287 
Q 2609 -91 1734 -91 
Q 1441 -91 1130 -33 
Q 819 25 488 141 
L 488 750 
Q 750 597 1062 519 
Q 1375 441 1716 441 
Q 2309 441 2620 675 
Q 2931 909 2931 1356 
Q 2931 1769 2642 2001 
Q 2353 2234 1838 2234 
L 1294 2234 
L 1294 2753 
L 1863 2753 
Q 2328 2753 2575 2939 
Q 2822 3125 2822 3475 
Q 2822 3834 2567 4026 
Q 2313 4219 1838 4219 
Q 1578 4219 1281 4162 
Q 984 4106 628 3988 
L 628 4550 
Q 988 4650 1302 4700 
Q 1616 4750 1894 4750 
Q 2613 4750 3031 4423 
Q 3450 4097 3450 3541 
Q 3450 3153 3228 2886 
Q 3006 2619 2597 2516 
z
" transform="scale(0.015625)"/>
       </defs>
       <use xlink:href="#DejaVuSans-33"/>
       <use xlink:href="#DejaVuSans-30" x="63.623047"/>
       <use xlink:href="#DejaVuSans-30" x="127.246094"/>
      </g>
     </g>
    </g>
    <g id="ytick_4">
     <g id="line2d_12">
      <g>
       <use xlink:href="#meaa64b4b25" x="57.6" y="178.308" style="stroke: #000000; stroke-width: 0.8"/>
      </g>
     </g>
     <g id="text_13">
      <!-- 310 -->
      <g transform="translate(31.5125 182.107219)scale(0.1 -0.1)">
       <use xlink:href="#DejaVuSans-33"/>
       <use xlink:href="#DejaVuSans-31" x="63.623047"/>
       <use xlink:href="#DejaVuSans-30" x="127.246094"/>
      </g>
     </g>
    </g>
    <g id="ytick_5">
     <g id="line2d_13">
      <g>
       <use xlink:href="#meaa64b4b25" x="57.6" y="140.508" style="stroke: #000000; stroke-width: 0.8"/>
      </g>
     </g>
     <g id="text_14">
      <!-- 320 -->
      <g transform="translate(31.5125 144.307219)scale(0.1 -0.1)">
       <use xlink:href="#DejaVuSans-33"/>
       <use xlink:href="#DejaVuSans-32" x="63.623047"/>
       <use xlink:href="#DejaVuSans-30" x="127.246094"/>
      </g>
     </g>
    </g>
    <g id="ytick_6">
     <g id="line2d_14">
      <g>
       <use xlink:href="#meaa64b4b25" x="57.6" y="102.708" style="stroke: #000000; stroke-width: 0.8"/>
      </g>
     </g>
     <g id="text_15">
      <!-- 330 -->
      <g transform="translate(31.5125 106.507219)scale(0.1 -0.1)">
       <use xlink:href="#DejaVuSans-33"/>
       <use xlink:href="#DejaVuSans-33" x="63.623047"/>
       <use xlink:href="#DejaVuSans-30" x="127.246094"/>
      </g>
     </g>
    </g>
    <g id="ytick_7">
     <g id="line2d_15">
      <g>
       <use xlink:href="#meaa64b4b25" x="57.6" y="64.908" style="stroke: #000000; stroke-width: 0.8"/>
      </g>
     </g>
     <g id="text_16">
      <!-- 340 -->
      <g transform="translate(31.5125 68.707219)scale(0.1 -0.1)">
       <defs>
        <path id="DejaVuSans-34" d="M 2419 4116 
L 825 1625 
L 2419 1625 
L 2419 4116 
z
M 2253 4666 
L 3047 4666 
L 3047 1625 
L 3713 1625 
L 3713 1100 
L 3047 1100 
L 3047 0 
L 2419 0 
L 2419 1100 
L 313 1100 
L 313 1709 
L 2253 4666 
z
" transform="scale(0.015625)"/>
       </defs>
       <use xlink:href="#DejaVuSans-33"/>
       <use xlink:href="#DejaVuSans-34" x="63.623047"/>
       <use xlink:href="#DejaVuSans-30" x="127.246094"/>
      </g>
     </g>
    </g>
    <g id="text_17">
     <!-- total cost -->
     <g transform="translate(25.432812 197.923313)rotate(-90)scale(0.1 -0.1)">
      <defs>
       <path id="DejaVuSans-74" d="M 1172 4494 
L 1172 3500 
L 2356 3500 
L 2356 3053 
L 1172 3053 
L 1172 1153 
Q 1172 725 1289 603 
Q 1406 481 1766 481 
L 2356 481 
L 2356 0 
L 1766 0 
Q 1100 0 847 248 
Q 594 497 594 1153 
L 594 3053 
L 172 3053 
L 172 3500 
L 594 3500 
L 594 4494 
L 1172 4494 
z
" transform="scale(0.015625)"/>
       <path id="DejaVuSans-6f" d="M 1959 3097 
Q 1497 3097 1228 2736 
Q 959 2375 959 1747 
Q 959 1119 1226 758 
Q 1494 397 1959 397 
Q 2419 397 2687 759 
Q 2956 1122 2956 1747 
Q 2956 2369 2687 2733 
Q 2419 3097 1959 3097 
z
M 1959 3584 
Q 2709 3584 3137 3096 
Q 3566 2609 3566 1747 
Q 3566 888 3137 398 
Q 2709 -91 1959 -91 
Q 1206 -91 779 398 
Q 353 888 353 1747 
Q 353 2609 779 3096 
Q 1206 3584 1959 3584 
z
" transform="scale(0.015625)"/>
       <path id="DejaVuSans-6c" d="M 603 4863 
L 1178 4863 
L 1178 0 
L 603 0 
L 603 4863 
z
" transform="scale(0.015625)"/>
       <path id="DejaVuSans-63" d="M 3122 3366 
L 3122 2828 
Q 2878 2963 2633 3030 
Q 2388 3097 2138 3097 
Q 1578 3097 1268 2742 
Q 959 2388 959 1747 
Q 959 1106 1268 751 
Q 1578 397 2138 397 
Q 2388 397 2633 464 
Q 2878 531 3122 666 
L 3122 134 
Q 2881 22 2623 -34 
Q 2366 -91 2075 -91 
Q 1284 -91 818 406 
Q 353 903 353 1747 
Q 353 2603 823 3093 
Q 1294 3584 2113 3584 
Q 2378 3584 2631 3529 
Q 2884 3475 3122 3366 
z
" transform="scale(0.015625)"/>
      </defs>
      <use xlink:href="#DejaVuSans-74"/>
      <use xlink:href="#DejaVuSans-6f" x="39.208984"/>
      <use xlink:href="#DejaVuSans-74" x="100.390625"/>
      <use xlink:href="#DejaVuSans-61" x="139.599609"/>
      <use xlink:href="#DejaVuSans-6c" x="200.878906"/>
      <use xlink:href="#DejaVuSans-20" x="228.662109"/>
      <use xlink:href="#DejaVuSans-63" x="260.449219"/>
      <use xlink:href="#DejaVuSans-6f" x="315.429688"/>
      <use xlink:href="#DejaVuSans-73" x="376.611328"/>
      <use xlink:href="#DejaVuSans-74" x="428.710938"/>
     </g>
    </g>
   </g>
   <g id="line2d_16">
    <path d="M 73.832727 174.528 
L 74.556595 204.768 
L 74.918528 200.988 
L 75.280462 155.628 
L 75.642396 148.068 
L 76.00433 132.948 
L 76.366263 106.488 
L 76.728197 106.488 
L 77.090131 95.148 
L 77.452064 114.048 
L 77.813998 106.488 
L 78.175932 136.728 
L 78.537866 102.708 
L 78.899799 132.948 
L 79.261733 151.848 
L 79.9856 151.848 
L 80.347534 121.608 
L 80.709468 166.968 
L 81.433335 125.388 
L 81.795269 117.828 
L 82.157203 125.388 
L 82.519137 140.508 
L 82.88107 148.068 
L 83.243004 121.608 
L 83.604938 68.688 
L 84.328805 76.248 
L 84.690739 121.608 
L 85.414606 144.288 
L 85.77654 110.268 
L 86.138474 121.608 
L 86.500407 110.268 
L 86.862341 110.268 
L 87.224275 140.508 
L 87.948142 140.508 
L 88.310076 163.188 
L 88.67201 140.508 
L 89.033943 125.388 
L 89.395877 121.608 
L 89.757811 148.068 
L 90.119745 148.068 
L 90.481678 140.508 
L 90.843612 140.508 
L 91.205546 148.068 
L 91.929413 178.308 
L 92.291347 155.628 
L 93.015214 197.208 
L 93.377148 189.648 
L 94.101016 155.628 
L 94.462949 155.628 
L 94.824883 144.288 
L 95.186817 148.068 
L 95.910684 178.308 
L 96.272618 170.748 
L 96.634552 155.628 
L 96.996485 182.088 
L 97.358419 231.228 
L 97.720353 208.548 
L 98.082286 197.208 
L 98.44422 193.428 
L 98.806154 166.968 
L 99.168088 174.528 
L 99.530021 193.428 
L 100.253889 208.548 
L 100.615822 200.988 
L 100.977756 231.228 
L 101.33969 242.568 
L 101.701624 257.688 
L 102.063557 257.688 
L 102.425491 284.148 
L 102.787425 238.788 
L 103.149358 250.128 
L 103.511292 227.448 
L 103.873226 197.208 
L 104.597093 212.328 
L 104.959027 197.208 
L 105.320961 193.428 
L 105.682894 185.868 
L 106.044828 182.088 
L 106.406762 197.208 
L 106.768696 185.868 
L 107.130629 170.748 
L 107.492563 144.288 
L 107.854497 129.168 
L 108.216431 140.508 
L 108.940298 193.428 
L 109.302232 204.768 
L 109.664165 219.888 
L 110.026099 208.548 
L 110.388033 223.668 
L 110.749967 253.908 
L 111.1119 257.688 
L 111.473834 231.228 
L 111.835768 193.428 
L 112.197701 197.208 
L 112.559635 204.768 
L 112.921569 235.008 
L 114.00737 193.428 
L 114.369304 163.188 
L 114.731237 204.768 
L 115.093171 197.208 
L 115.455105 178.308 
L 115.817039 182.088 
L 116.178972 178.308 
L 116.540906 189.648 
L 116.90284 197.208 
L 117.264773 200.988 
L 117.626707 182.088 
L 117.988641 178.308 
L 118.712508 163.188 
L 119.074442 159.408 
L 119.436376 132.948 
L 119.79831 121.608 
L 120.160243 129.168 
L 120.522177 121.608 
L 120.884111 106.488 
L 121.246044 129.168 
L 121.607978 106.488 
L 121.969912 95.148 
L 122.331846 125.388 
L 122.693779 136.728 
L 123.055713 121.608 
L 123.417647 98.928 
L 123.77958 68.688 
L 124.503448 102.708 
L 125.227315 129.168 
L 125.589249 102.708 
L 125.951183 117.828 
L 126.313116 117.828 
L 126.67505 110.268 
L 127.036984 125.388 
L 127.398918 151.848 
L 128.122785 178.308 
L 128.484719 178.308 
L 128.846652 185.868 
L 129.208586 148.068 
L 129.932454 148.068 
L 130.656321 72.468 
L 131.018255 95.148 
L 131.380189 95.148 
L 131.742122 64.908 
L 132.46599 163.188 
L 132.827923 163.188 
L 133.189857 125.388 
L 133.551791 151.848 
L 133.913725 148.068 
L 134.275658 151.848 
L 134.637592 132.948 
L 134.999526 155.628 
L 135.361459 159.408 
L 135.723393 174.528 
L 136.085327 170.748 
L 136.447261 174.528 
L 137.171128 223.668 
L 137.533062 219.888 
L 137.894995 219.888 
L 138.256929 204.768 
L 138.618863 178.308 
L 138.980797 185.868 
L 139.34273 185.868 
L 140.066598 151.848 
L 140.428531 136.728 
L 140.790465 132.948 
L 141.152399 170.748 
L 141.514333 178.308 
L 141.876266 174.528 
L 142.2382 166.968 
L 142.600134 151.848 
L 142.962067 129.168 
L 143.324001 132.948 
L 143.685935 170.748 
L 144.047869 182.088 
L 144.409802 174.528 
L 144.771736 159.408 
L 145.13367 106.488 
L 145.495604 144.288 
L 145.857537 132.948 
L 146.219471 132.948 
L 146.581405 117.828 
L 146.943338 117.828 
L 147.305272 159.408 
L 147.667206 155.628 
L 148.391073 110.268 
L 149.114941 189.648 
L 149.476874 204.768 
L 149.838808 189.648 
L 150.200742 155.628 
L 150.562676 163.188 
L 150.924609 204.768 
L 151.286543 200.988 
L 151.648477 144.288 
L 152.01041 132.948 
L 153.096212 242.568 
L 153.458145 223.668 
L 153.820079 227.448 
L 154.90588 182.088 
L 155.267814 174.528 
L 155.629748 182.088 
L 155.991681 151.848 
L 156.353615 174.528 
L 156.715549 144.288 
L 157.077483 174.528 
L 157.439416 178.308 
L 157.80135 174.528 
L 158.163284 189.648 
L 158.525217 151.848 
L 158.887151 178.308 
L 159.249085 170.748 
L 159.972952 163.188 
L 160.334886 140.508 
L 160.69682 136.728 
L 161.058753 170.748 
L 161.420687 163.188 
L 161.782621 129.168 
L 162.144555 114.048 
L 162.506488 68.688 
L 162.868422 83.808 
L 163.230356 121.608 
L 163.592289 136.728 
L 164.316157 102.708 
L 164.678091 53.568 
L 165.401958 95.148 
L 165.763892 102.708 
L 166.125825 114.048 
L 166.487759 110.268 
L 166.849693 114.048 
L 167.211627 129.168 
L 167.57356 117.828 
L 168.297428 159.408 
L 168.659362 170.748 
L 169.021295 159.408 
L 169.383229 163.188 
L 169.745163 174.528 
L 170.107096 159.408 
L 170.46903 174.528 
L 170.830964 132.948 
L 171.192898 136.728 
L 171.554831 155.628 
L 171.916765 136.728 
L 172.278699 159.408 
L 173.002566 136.728 
L 173.3645 136.728 
L 174.088367 91.368 
L 174.450301 95.148 
L 174.812235 72.468 
L 175.174168 91.368 
L 175.536102 98.928 
L 175.898036 87.588 
L 176.25997 72.468 
L 176.621903 91.368 
L 176.983837 95.148 
L 177.345771 72.468 
L 177.707704 87.588 
L 178.431572 151.848 
L 178.793506 178.308 
L 179.155439 170.748 
L 179.517373 170.748 
L 179.879307 166.968 
L 180.24124 155.628 
L 180.965108 114.048 
L 181.327042 80.028 
L 181.688975 64.908 
L 182.050909 80.028 
L 182.412843 72.468 
L 182.774777 83.808 
L 183.13671 98.928 
L 183.860578 114.048 
L 184.222511 114.048 
L 184.584445 98.928 
L 184.946379 91.368 
L 185.308313 80.028 
L 185.670246 80.028 
L 186.394114 87.588 
L 186.756047 83.808 
L 187.117981 91.368 
L 187.479915 121.608 
L 187.841849 121.608 
L 188.203782 136.728 
L 188.565716 125.388 
L 188.92765 106.488 
L 189.289583 95.148 
L 190.013451 129.168 
L 190.375385 102.708 
L 190.737318 129.168 
L 191.099252 144.288 
L 191.461186 129.168 
L 191.823119 129.168 
L 192.185053 144.288 
L 192.546987 144.288 
L 192.908921 136.728 
L 193.270854 159.408 
L 193.632788 174.528 
L 193.994722 132.948 
L 194.356656 136.728 
L 194.718589 159.408 
L 195.080523 163.188 
L 195.442457 204.768 
L 195.80439 204.768 
L 196.166324 212.328 
L 196.528258 212.328 
L 196.890192 204.768 
L 197.252125 174.528 
L 197.614059 174.528 
L 197.975993 170.748 
L 198.337926 136.728 
L 198.69986 140.508 
L 199.061794 155.628 
L 199.423728 197.208 
L 199.785661 212.328 
L 200.147595 189.648 
L 200.509529 212.328 
L 200.871462 212.328 
L 201.233396 189.648 
L 201.59533 219.888 
L 201.957264 223.668 
L 202.319197 246.348 
L 202.681131 216.108 
L 203.404998 250.128 
L 203.766932 250.128 
L 204.128866 216.108 
L 204.4908 200.988 
L 204.852733 178.308 
L 205.576601 125.388 
L 205.938535 148.068 
L 206.300468 151.848 
L 206.662402 197.208 
L 207.024336 178.308 
L 207.748203 155.628 
L 208.110137 140.508 
L 208.472071 170.748 
L 208.834004 170.748 
L 209.195938 174.528 
L 209.557872 189.648 
L 209.919805 174.528 
L 210.281739 182.088 
L 211.005607 144.288 
L 211.36754 159.408 
L 211.729474 166.968 
L 212.453341 189.648 
L 212.815275 189.648 
L 213.539143 144.288 
L 213.901076 132.948 
L 214.26301 148.068 
L 214.624944 178.308 
L 214.986877 155.628 
L 215.348811 140.508 
L 215.710745 200.988 
L 216.072679 212.328 
L 216.434612 212.328 
L 216.796546 193.428 
L 217.15848 200.988 
L 217.520413 193.428 
L 217.882347 208.548 
L 218.244281 166.968 
L 218.606215 178.308 
L 218.968148 125.388 
L 219.330082 166.968 
L 219.692016 189.648 
L 220.415883 132.948 
L 220.777817 132.948 
L 221.139751 136.728 
L 221.501684 129.168 
L 221.863618 129.168 
L 222.587486 106.488 
L 222.949419 132.948 
L 223.311353 178.308 
L 223.673287 174.528 
L 224.03522 174.528 
L 224.397154 132.948 
L 224.759088 144.288 
L 225.121022 144.288 
L 225.482955 155.628 
L 225.844889 155.628 
L 226.206823 121.608 
L 226.568756 125.388 
L 226.93069 132.948 
L 227.292624 151.848 
L 227.654558 140.508 
L 228.016491 132.948 
L 228.378425 102.708 
L 229.102292 144.288 
L 229.464226 136.728 
L 229.82616 121.608 
L 230.188094 144.288 
L 230.550027 132.948 
L 230.911961 159.408 
L 231.273895 170.748 
L 231.635829 174.528 
L 231.997762 170.748 
L 232.359696 185.868 
L 233.083563 193.428 
L 233.445497 174.528 
L 233.807431 212.328 
L 234.169365 163.188 
L 234.531298 178.308 
L 234.893232 148.068 
L 235.255166 151.848 
L 235.617099 182.088 
L 235.979033 193.428 
L 236.340967 219.888 
L 236.702901 204.768 
L 237.426768 148.068 
L 237.788702 166.968 
L 238.150635 204.768 
L 238.512569 193.428 
L 238.874503 193.428 
L 239.236437 197.208 
L 239.59837 204.768 
L 239.960304 197.208 
L 240.322238 200.988 
L 240.684171 193.428 
L 241.408039 193.428 
L 241.769973 144.288 
L 242.131906 132.948 
L 242.49384 163.188 
L 242.855774 159.408 
L 243.217708 151.848 
L 243.579641 174.528 
L 243.941575 151.848 
L 244.665442 197.208 
L 245.027376 182.088 
L 245.38931 189.648 
L 245.751244 189.648 
L 246.113177 163.188 
L 246.475111 155.628 
L 246.837045 132.948 
L 247.198978 136.728 
L 247.560912 148.068 
L 247.922846 132.948 
L 248.28478 178.308 
L 248.646713 178.308 
L 249.008647 148.068 
L 249.370581 98.928 
L 249.732514 87.588 
L 250.456382 114.048 
L 250.818316 117.828 
L 251.180249 117.828 
L 251.542183 129.168 
L 251.904117 121.608 
L 252.26605 117.828 
L 252.627984 144.288 
L 253.351852 91.368 
L 253.713785 106.488 
L 254.075719 98.928 
L 254.437653 106.488 
L 255.523454 189.648 
L 255.885388 182.088 
L 256.247321 182.088 
L 256.609255 136.728 
L 256.971189 132.948 
L 257.333123 159.408 
L 257.695056 170.748 
L 258.05699 212.328 
L 258.418924 231.228 
L 258.780857 216.108 
L 259.142791 216.108 
L 259.504725 185.868 
L 259.866659 174.528 
L 260.228592 185.868 
L 260.590526 189.648 
L 260.95246 204.768 
L 261.314393 185.868 
L 261.676327 185.868 
L 262.038261 174.528 
L 262.400195 166.968 
L 262.762128 170.748 
L 263.124062 242.568 
L 263.485996 227.448 
L 263.847929 261.468 
L 264.209863 265.248 
L 264.571797 295.488 
L 264.933731 276.588 
L 265.295664 272.808 
L 265.657598 265.248 
L 266.019532 227.448 
L 266.743399 227.448 
L 267.105333 204.768 
L 267.467267 242.568 
L 267.8292 235.008 
L 268.191134 208.548 
L 268.553068 227.448 
L 269.276935 159.408 
L 269.638869 155.628 
L 271.086604 219.888 
L 271.448538 197.208 
L 272.172405 170.748 
L 272.534339 182.088 
L 272.896272 189.648 
L 273.258206 238.788 
L 273.62014 238.788 
L 273.982074 242.568 
L 274.344007 235.008 
L 274.705941 238.788 
L 275.067875 238.788 
L 275.429808 246.348 
L 275.791742 242.568 
L 276.153676 212.328 
L 276.51561 216.108 
L 276.877543 200.988 
L 277.239477 208.548 
L 277.601411 170.748 
L 277.963344 182.088 
L 278.325278 197.208 
L 278.687212 185.868 
L 279.049146 155.628 
L 279.411079 178.308 
L 279.773013 174.528 
L 280.134947 163.188 
L 280.496881 166.968 
L 280.858814 174.528 
L 281.220748 174.528 
L 281.582682 193.428 
L 281.944615 197.208 
L 282.306549 231.228 
L 282.668483 223.668 
L 283.030417 212.328 
L 284.116218 132.948 
L 284.478151 140.508 
L 284.840085 163.188 
L 285.563953 178.308 
L 285.925886 159.408 
L 286.28782 148.068 
L 286.649754 144.288 
L 287.011687 151.848 
L 287.373621 129.168 
L 287.735555 125.388 
L 288.097489 114.048 
L 288.459422 129.168 
L 288.821356 114.048 
L 289.18329 132.948 
L 289.545223 140.508 
L 289.907157 163.188 
L 290.269091 166.968 
L 290.631025 106.488 
L 290.992958 110.268 
L 291.354892 98.928 
L 291.716826 151.848 
L 292.07876 140.508 
L 292.440693 140.508 
L 292.802627 151.848 
L 293.164561 189.648 
L 293.526494 200.988 
L 293.888428 242.568 
L 294.250362 250.128 
L 294.612296 227.448 
L 294.974229 219.888 
L 295.336163 223.668 
L 295.698097 219.888 
L 296.06003 246.348 
L 296.783898 238.788 
L 297.145832 231.228 
L 297.507765 193.428 
L 297.869699 200.988 
L 298.231633 200.988 
L 298.9555 148.068 
L 299.679368 197.208 
L 300.041301 246.348 
L 300.403235 250.128 
L 300.765169 235.008 
L 301.85097 170.748 
L 302.212904 159.408 
L 302.574837 151.848 
L 302.936771 159.408 
L 303.298705 140.508 
L 303.660638 132.948 
L 304.022572 140.508 
L 304.384506 182.088 
L 304.74644 170.748 
L 305.108373 189.648 
L 305.470307 193.428 
L 305.832241 189.648 
L 306.194175 200.988 
L 306.556108 185.868 
L 307.279976 185.868 
L 307.641909 155.628 
L 308.003843 174.528 
L 308.365777 178.308 
L 308.727711 163.188 
L 309.089644 140.508 
L 309.451578 166.968 
L 309.813512 182.088 
L 310.175445 178.308 
L 310.899313 163.188 
L 311.261247 148.068 
L 311.62318 148.068 
L 311.985114 144.288 
L 312.347048 132.948 
L 312.708981 132.948 
L 313.794783 204.768 
L 314.156716 265.248 
L 314.51865 253.908 
L 314.880584 272.808 
L 315.242517 242.568 
L 315.604451 287.928 
L 315.966385 276.588 
L 316.328319 280.368 
L 316.690252 246.348 
L 317.41412 261.468 
L 317.776054 265.248 
L 318.137987 287.928 
L 318.499921 265.248 
L 318.861855 250.128 
L 319.223788 223.668 
L 319.585722 212.328 
L 319.947656 219.888 
L 320.30959 223.668 
L 320.671523 231.228 
L 321.033457 197.208 
L 321.395391 197.208 
L 321.757324 193.428 
L 322.119258 197.208 
L 322.481192 227.448 
L 322.843126 216.108 
L 323.205059 231.228 
L 323.566993 208.548 
L 323.928927 223.668 
L 324.29086 227.448 
L 324.652794 246.348 
L 325.014728 253.908 
L 325.376662 246.348 
L 326.100529 238.788 
L 326.462463 231.228 
L 326.824396 182.088 
L 327.18633 163.188 
L 327.548264 159.408 
L 327.910198 174.528 
L 328.272131 155.628 
L 328.634065 148.068 
L 328.995999 129.168 
L 329.719866 68.688 
L 330.0818 76.248 
L 330.443734 80.028 
L 330.805667 87.588 
L 331.529535 87.588 
L 331.891469 95.148 
L 332.253402 117.828 
L 332.615336 102.708 
L 332.97727 64.908 
L 333.339203 106.488 
L 333.701137 114.048 
L 334.063071 132.948 
L 334.425005 140.508 
L 334.786938 166.968 
L 335.148872 155.628 
L 335.510806 166.968 
L 335.872739 166.968 
L 336.234673 136.728 
L 336.596607 159.408 
L 336.958541 197.208 
L 337.320474 208.548 
L 337.682408 208.548 
L 338.044342 200.988 
L 338.406275 189.648 
L 338.768209 166.968 
L 339.130143 170.748 
L 339.85401 132.948 
L 340.215944 132.948 
L 340.577878 136.728 
L 340.939811 148.068 
L 341.301745 132.948 
L 341.663679 136.728 
L 342.025613 125.388 
L 342.387546 166.968 
L 342.74948 151.848 
L 343.111414 148.068 
L 343.473348 151.848 
L 343.835281 136.728 
L 344.197215 144.288 
L 344.559149 114.048 
L 344.921082 114.048 
L 345.283016 125.388 
L 345.64495 110.268 
L 346.006884 106.488 
L 346.368817 91.368 
L 346.730751 106.488 
L 347.454618 121.608 
L 347.816552 102.708 
L 348.178486 140.508 
L 348.54042 193.428 
L 348.902353 170.748 
L 349.264287 193.428 
L 349.626221 204.768 
L 349.988154 163.188 
L 350.350088 148.068 
L 350.712022 166.968 
L 351.073956 163.188 
L 351.435889 125.388 
L 351.797823 151.848 
L 352.159757 136.728 
L 352.52169 140.508 
L 352.883624 110.268 
L 353.245558 114.048 
L 353.607492 136.728 
L 353.969425 132.948 
L 354.331359 121.608 
L 354.693293 155.628 
L 355.055227 148.068 
L 355.41716 155.628 
L 355.779094 170.748 
L 356.141028 148.068 
L 356.864895 155.628 
L 357.226829 129.168 
L 357.588763 155.628 
L 357.950696 140.508 
L 358.31263 144.288 
L 358.674564 140.508 
L 359.036497 129.168 
L 359.398431 129.168 
L 359.760365 163.188 
L 360.122299 148.068 
L 360.484232 159.408 
L 360.846166 151.848 
L 361.2081 155.628 
L 361.570033 140.508 
L 361.931967 136.728 
L 362.293901 144.288 
L 362.655835 144.288 
L 363.379702 204.768 
L 363.741636 182.088 
L 364.103569 178.308 
L 364.465503 182.088 
L 364.827437 163.188 
L 365.189371 163.188 
L 365.551304 159.408 
L 365.913238 148.068 
L 366.275172 151.848 
L 366.637106 166.968 
L 366.999039 170.748 
L 367.360973 163.188 
L 367.722907 140.508 
L 368.446774 106.488 
L 368.808708 117.828 
L 369.170642 121.608 
L 369.532575 117.828 
L 369.894509 110.268 
L 370.256443 117.828 
L 370.618376 129.168 
L 370.98031 125.388 
L 371.704178 140.508 
L 372.066111 140.508 
L 372.428045 132.948 
L 372.789979 114.048 
L 373.151912 163.188 
L 373.513846 148.068 
L 373.87578 170.748 
L 374.599647 163.188 
L 374.961581 151.848 
L 375.323515 136.728 
L 375.685448 132.948 
L 376.047382 125.388 
L 376.409316 114.048 
L 376.77125 117.828 
L 377.133183 102.708 
L 377.495117 72.468 
L 377.857051 57.348 
L 378.218984 64.908 
L 378.580918 57.348 
L 378.942852 64.908 
L 379.304786 76.248 
L 379.666719 80.028 
L 380.028653 80.028 
L 380.390587 140.508 
L 380.752521 132.948 
L 381.114454 140.508 
L 381.838322 178.308 
L 382.200255 174.528 
L 382.562189 166.968 
L 382.924123 166.968 
L 383.286057 200.988 
L 383.64799 182.088 
L 384.009924 182.088 
L 384.371858 185.868 
L 384.733791 155.628 
L 385.095725 178.308 
L 385.457659 182.088 
L 385.819593 182.088 
L 386.181526 200.988 
L 386.54346 204.768 
L 386.905394 178.308 
L 387.267327 185.868 
L 387.629261 163.188 
L 387.991195 166.968 
L 388.353129 159.408 
L 388.715062 159.408 
L 389.076996 178.308 
L 389.43893 129.168 
L 389.800863 117.828 
L 390.162797 129.168 
L 390.524731 148.068 
L 390.886665 136.728 
L 391.610532 200.988 
L 392.3344 200.988 
L 392.696333 193.428 
L 393.058267 197.208 
L 393.420201 189.648 
L 393.782134 204.768 
L 394.144068 189.648 
L 394.506002 159.408 
L 394.867936 204.768 
L 395.591803 182.088 
L 395.953737 193.428 
L 396.31567 170.748 
L 396.677604 155.628 
L 397.039538 148.068 
L 397.401472 136.728 
L 397.763405 163.188 
L 398.487273 132.948 
L 398.487273 132.948 
" clip-path="url(#p66ed3cdd39)" style="fill: none; stroke: #1f77b4; stroke-width: 1.5; stroke-linecap: square"/>
   </g>
   <g id="patch_3">
    <path d="M 57.6 307.584 
L 57.6 41.472 
" style="fill: none; stroke: #000000; stroke-width: 0.8; stroke-linejoin: miter; stroke-linecap: square"/>
   </g>
   <g id="patch_4">
    <path d="M 414.72 307.584 
L 414.72 41.472 
" style="fill: none; stroke: #000000; stroke-width: 0.8; stroke-linejoin: miter; stroke-linecap: square"/>
   </g>
   <g id="patch_5">
    <path d="M 57.6 307.584 
L 414.72 307.584 
" style="fill: none; stroke: #000000; stroke-width: 0.8; stroke-linejoin: miter; stroke-linecap: square"/>
   </g>
   <g id="patch_6">
    <path d="M 57.6 41.472 
L 414.72 41.472 
" style="fill: none; stroke: #000000; stroke-width: 0.8; stroke-linejoin: miter; stroke-linecap: square"/>
   </g>
   <g id="text_18">
    <!-- Simulated Anealling Cost -->
    <g transform="translate(160.8 35.472)scale(0.12 -0.12)">
     <defs>
      <path id="DejaVuSans-53" d="M 3425 4513 
L 3425 3897 
Q 3066 4069 2747 4153 
Q 2428 4238 2131 4238 
Q 1616 4238 1336 4038 
Q 1056 3838 1056 3469 
Q 1056 3159 1242 3001 
Q 1428 2844 1947 2747 
L 2328 2669 
Q 3034 2534 3370 2195 
Q 3706 1856 3706 1288 
Q 3706 609 3251 259 
Q 2797 -91 1919 -91 
Q 1588 -91 1214 -16 
Q 841 59 441 206 
L 441 856 
Q 825 641 1194 531 
Q 1563 422 1919 422 
Q 2459 422 2753 634 
Q 3047 847 3047 1241 
Q 3047 1584 2836 1778 
Q 2625 1972 2144 2069 
L 1759 2144 
Q 1053 2284 737 2584 
Q 422 2884 422 3419 
Q 422 4038 858 4394 
Q 1294 4750 2059 4750 
Q 2388 4750 2728 4690 
Q 3069 4631 3425 4513 
z
" transform="scale(0.015625)"/>
      <path id="DejaVuSans-69" d="M 603 3500 
L 1178 3500 
L 1178 0 
L 603 0 
L 603 3500 
z
M 603 4863 
L 1178 4863 
L 1178 4134 
L 603 4134 
L 603 4863 
z
" transform="scale(0.015625)"/>
      <path id="DejaVuSans-65" d="M 3597 1894 
L 3597 1613 
L 953 1613 
Q 991 1019 1311 708 
Q 1631 397 2203 397 
Q 2534 397 2845 478 
Q 3156 559 3463 722 
L 3463 178 
Q 3153 47 2828 -22 
Q 2503 -91 2169 -91 
Q 1331 -91 842 396 
Q 353 884 353 1716 
Q 353 2575 817 3079 
Q 1281 3584 2069 3584 
Q 2775 3584 3186 3129 
Q 3597 2675 3597 1894 
z
M 3022 2063 
Q 3016 2534 2758 2815 
Q 2500 3097 2075 3097 
Q 1594 3097 1305 2825 
Q 1016 2553 972 2059 
L 3022 2063 
z
" transform="scale(0.015625)"/>
      <path id="DejaVuSans-64" d="M 2906 2969 
L 2906 4863 
L 3481 4863 
L 3481 0 
L 2906 0 
L 2906 525 
Q 2725 213 2448 61 
Q 2172 -91 1784 -91 
Q 1150 -91 751 415 
Q 353 922 353 1747 
Q 353 2572 751 3078 
Q 1150 3584 1784 3584 
Q 2172 3584 2448 3432 
Q 2725 3281 2906 2969 
z
M 947 1747 
Q 947 1113 1208 752 
Q 1469 391 1925 391 
Q 2381 391 2643 752 
Q 2906 1113 2906 1747 
Q 2906 2381 2643 2742 
Q 2381 3103 1925 3103 
Q 1469 3103 1208 2742 
Q 947 2381 947 1747 
z
" transform="scale(0.015625)"/>
      <path id="DejaVuSans-41" d="M 2188 4044 
L 1331 1722 
L 3047 1722 
L 2188 4044 
z
M 1831 4666 
L 2547 4666 
L 4325 0 
L 3669 0 
L 3244 1197 
L 1141 1197 
L 716 0 
L 50 0 
L 1831 4666 
z
" transform="scale(0.015625)"/>
      <path id="DejaVuSans-67" d="M 2906 1791 
Q 2906 2416 2648 2759 
Q 2391 3103 1925 3103 
Q 1463 3103 1205 2759 
Q 947 2416 947 1791 
Q 947 1169 1205 825 
Q 1463 481 1925 481 
Q 2391 481 2648 825 
Q 2906 1169 2906 1791 
z
M 3481 434 
Q 3481 -459 3084 -895 
Q 2688 -1331 1869 -1331 
Q 1566 -1331 1297 -1286 
Q 1028 -1241 775 -1147 
L 775 -588 
Q 1028 -725 1275 -790 
Q 1522 -856 1778 -856 
Q 2344 -856 2625 -561 
Q 2906 -266 2906 331 
L 2906 616 
Q 2728 306 2450 153 
Q 2172 0 1784 0 
Q 1141 0 747 490 
Q 353 981 353 1791 
Q 353 2603 747 3093 
Q 1141 3584 1784 3584 
Q 2172 3584 2450 3431 
Q 2728 3278 2906 2969 
L 2906 3500 
L 3481 3500 
L 3481 434 
z
" transform="scale(0.015625)"/>
      <path id="DejaVuSans-43" d="M 4122 4306 
L 4122 3641 
Q 3803 3938 3442 4084 
Q 3081 4231 2675 4231 
Q 1875 4231 1450 3742 
Q 1025 3253 1025 2328 
Q 1025 1406 1450 917 
Q 1875 428 2675 428 
Q 3081 428 3442 575 
Q 3803 722 4122 1019 
L 4122 359 
Q 3791 134 3420 21 
Q 3050 -91 2638 -91 
Q 1578 -91 968 557 
Q 359 1206 359 2328 
Q 359 3453 968 4101 
Q 1578 4750 2638 4750 
Q 3056 4750 3426 4639 
Q 3797 4528 4122 4306 
z
" transform="scale(0.015625)"/>
     </defs>
     <use xlink:href="#DejaVuSans-53"/>
     <use xlink:href="#DejaVuSans-69" x="63.476562"/>
     <use xlink:href="#DejaVuSans-6d" x="91.259766"/>
     <use xlink:href="#DejaVuSans-75" x="188.671875"/>
     <use xlink:href="#DejaVuSans-6c" x="252.050781"/>
     <use xlink:href="#DejaVuSans-61" x="279.833984"/>
     <use xlink:href="#DejaVuSans-74" x="341.113281"/>
     <use xlink:href="#DejaVuSans-65" x="380.322266"/>
     <use xlink:href="#DejaVuSans-64" x="441.845703"/>
     <use xlink:href="#DejaVuSans-20" x="505.322266"/>
     <use xlink:href="#DejaVuSans-41" x="537.109375"/>
     <use xlink:href="#DejaVuSans-6e" x="605.517578"/>
     <use xlink:href="#DejaVuSans-65" x="668.896484"/>
     <use xlink:href="#DejaVuSans-61" x="730.419922"/>
     <use xlink:href="#DejaVuSans-6c" x="791.699219"/>
     <use xlink:href="#DejaVuSans-6c" x="819.482422"/>
     <use xlink:href="#DejaVuSans-69" x="847.265625"/>
     <use xlink:href="#DejaVuSans-6e" x="875.048828"/>
     <use xlink:href="#DejaVuSans-67" x="938.427734"/>
     <use xlink:href="#DejaVuSans-20" x="1001.904297"/>
     <use xlink:href="#DejaVuSans-43" x="1033.691406"/>
     <use xlink:href="#DejaVuSans-6f" x="1103.515625"/>
     <use xlink:href="#DejaVuSans-73" x="1164.697266"/>
     <use xlink:href="#DejaVuSans-74" x="1216.796875"/>
    </g>
   </g>
  </g>
 </g>
 <defs>
  <clipPath id="p66ed3cdd39">
   <rect x="57.6" y="41.472" width="357.12" height="266.112"/>
  </clipPath>
 </defs>
</svg>
