<?xml version="1.0" encoding="utf-8" standalone="no"?>
<!DOCTYPE svg PUBLIC "-//W3C//DTD SVG 1.1//EN"
  "http://www.w3.org/Graphics/SVG/1.1/DTD/svg11.dtd">
<svg xmlns:xlink="http://www.w3.org/1999/xlink" width="460.8pt" height="345.6pt" viewBox="0 0 460.8 345.6" xmlns="http://www.w3.org/2000/svg" version="1.1">
 <metadata>
  <rdf:RDF xmlns:dc="http://purl.org/dc/elements/1.1/" xmlns:cc="http://creativecommons.org/ns#" xmlns:rdf="http://www.w3.org/1999/02/22-rdf-syntax-ns#">
   <cc:Work>
    <dc:type rdf:resource="http://purl.org/dc/dcmitype/StillImage"/>
    <dc:date>2022-06-01T08:03:50.038670</dc:date>
    <dc:format>image/svg+xml</dc:format>
    <dc:creator>
     <cc:Agent>
      <dc:title>Matplotlib v3.5.1, https://matplotlib.org/</dc:title>
     </cc:Agent>
    </dc:creator>
   </cc:Work>
  </rdf:RDF>
 </metadata>
 <defs>
  <style type="text/css">*{stroke-linejoin: round; stroke-linecap: butt}</style>
 </defs>
 <g id="figure_1">
  <g id="patch_1">
   <path d="M 0 345.6 
L 460.8 345.6 
L 460.8 0 
L 0 0 
z
" style="fill: #ffffff"/>
  </g>
  <g id="axes_1">
   <g id="patch_2">
    <path d="M 57.6 307.584 
L 414.72 307.584 
L 414.72 41.472 
L 57.6 41.472 
z
" style="fill: #ffffff"/>
   </g>
   <g id="matplotlib.axis_1">
    <g id="xtick_1">
     <g id="line2d_1">
      <defs>
       <path id="m6ab91cd411" d="M 0 0 
L 0 3.5 
" style="stroke: #000000; stroke-width: 0.8"/>
      </defs>
      <g>
       <use xlink:href="#m6ab91cd411" x="73.832727" y="307.584" style="stroke: #000000; stroke-width: 0.8"/>
      </g>
     </g>
     <g id="text_1">
      <!-- 0 -->
      <g transform="translate(70.651477 322.182437)scale(0.1 -0.1)">
       <defs>
        <path id="DejaVuSans-30" d="M 2034 4250 
Q 1547 4250 1301 3770 
Q 1056 3291 1056 2328 
Q 1056 1369 1301 889 
Q 1547 409 2034 409 
Q 2525 409 2770 889 
Q 3016 1369 3016 2328 
Q 3016 3291 2770 3770 
Q 2525 4250 2034 4250 
z
M 2034 4750 
Q 2819 4750 3233 4129 
Q 3647 3509 3647 2328 
Q 3647 1150 3233 529 
Q 2819 -91 2034 -91 
Q 1250 -91 836 529 
Q 422 1150 422 2328 
Q 422 3509 836 4129 
Q 1250 4750 2034 4750 
z
" transform="scale(0.015625)"/>
       </defs>
       <use xlink:href="#DejaVuSans-30"/>
      </g>
     </g>
    </g>
    <g id="xtick_2">
     <g id="line2d_2">
      <g>
       <use xlink:href="#m6ab91cd411" x="119.584495" y="307.584" style="stroke: #000000; stroke-width: 0.8"/>
      </g>
     </g>
     <g id="text_2">
      <!-- 250 -->
      <g transform="translate(110.040745 322.182437)scale(0.1 -0.1)">
       <defs>
        <path id="DejaVuSans-32" d="M 1228 531 
L 3431 531 
L 3431 0 
L 469 0 
L 469 531 
Q 828 903 1448 1529 
Q 2069 2156 2228 2338 
Q 2531 2678 2651 2914 
Q 2772 3150 2772 3378 
Q 2772 3750 2511 3984 
Q 2250 4219 1831 4219 
Q 1534 4219 1204 4116 
Q 875 4013 500 3803 
L 500 4441 
Q 881 4594 1212 4672 
Q 1544 4750 1819 4750 
Q 2544 4750 2975 4387 
Q 3406 4025 3406 3419 
Q 3406 3131 3298 2873 
Q 3191 2616 2906 2266 
Q 2828 2175 2409 1742 
Q 1991 1309 1228 531 
z
" transform="scale(0.015625)"/>
        <path id="DejaVuSans-35" d="M 691 4666 
L 3169 4666 
L 3169 4134 
L 1269 4134 
L 1269 2991 
Q 1406 3038 1543 3061 
Q 1681 3084 1819 3084 
Q 2600 3084 3056 2656 
Q 3513 2228 3513 1497 
Q 3513 744 3044 326 
Q 2575 -91 1722 -91 
Q 1428 -91 1123 -41 
Q 819 9 494 109 
L 494 744 
Q 775 591 1075 516 
Q 1375 441 1709 441 
Q 2250 441 2565 725 
Q 2881 1009 2881 1497 
Q 2881 1984 2565 2268 
Q 2250 2553 1709 2553 
Q 1456 2553 1204 2497 
Q 953 2441 691 2322 
L 691 4666 
z
" transform="scale(0.015625)"/>
       </defs>
       <use xlink:href="#DejaVuSans-32"/>
       <use xlink:href="#DejaVuSans-35" x="63.623047"/>
       <use xlink:href="#DejaVuSans-30" x="127.246094"/>
      </g>
     </g>
    </g>
    <g id="xtick_3">
     <g id="line2d_3">
      <g>
       <use xlink:href="#m6ab91cd411" x="165.336263" y="307.584" style="stroke: #000000; stroke-width: 0.8"/>
      </g>
     </g>
     <g id="text_3">
      <!-- 500 -->
      <g transform="translate(155.792513 322.182437)scale(0.1 -0.1)">
       <use xlink:href="#DejaVuSans-35"/>
       <use xlink:href="#DejaVuSans-30" x="63.623047"/>
       <use xlink:href="#DejaVuSans-30" x="127.246094"/>
      </g>
     </g>
    </g>
    <g id="xtick_4">
     <g id="line2d_4">
      <g>
       <use xlink:href="#m6ab91cd411" x="211.088031" y="307.584" style="stroke: #000000; stroke-width: 0.8"/>
      </g>
     </g>
     <g id="text_4">
      <!-- 750 -->
      <g transform="translate(201.544281 322.182437)scale(0.1 -0.1)">
       <defs>
        <path id="DejaVuSans-37" d="M 525 4666 
L 3525 4666 
L 3525 4397 
L 1831 0 
L 1172 0 
L 2766 4134 
L 525 4134 
L 525 4666 
z
" transform="scale(0.015625)"/>
       </defs>
       <use xlink:href="#DejaVuSans-37"/>
       <use xlink:href="#DejaVuSans-35" x="63.623047"/>
       <use xlink:href="#DejaVuSans-30" x="127.246094"/>
      </g>
     </g>
    </g>
    <g id="xtick_5">
     <g id="line2d_5">
      <g>
       <use xlink:href="#m6ab91cd411" x="256.839799" y="307.584" style="stroke: #000000; stroke-width: 0.8"/>
      </g>
     </g>
     <g id="text_5">
      <!-- 1000 -->
      <g transform="translate(244.114799 322.182437)scale(0.1 -0.1)">
       <defs>
        <path id="DejaVuSans-31" d="M 794 531 
L 1825 531 
L 1825 4091 
L 703 3866 
L 703 4441 
L 1819 4666 
L 2450 4666 
L 2450 531 
L 3481 531 
L 3481 0 
L 794 0 
L 794 531 
z
" transform="scale(0.015625)"/>
       </defs>
       <use xlink:href="#DejaVuSans-31"/>
       <use xlink:href="#DejaVuSans-30" x="63.623047"/>
       <use xlink:href="#DejaVuSans-30" x="127.246094"/>
       <use xlink:href="#DejaVuSans-30" x="190.869141"/>
      </g>
     </g>
    </g>
    <g id="xtick_6">
     <g id="line2d_6">
      <g>
       <use xlink:href="#m6ab91cd411" x="302.591567" y="307.584" style="stroke: #000000; stroke-width: 0.8"/>
      </g>
     </g>
     <g id="text_6">
      <!-- 1250 -->
      <g transform="translate(289.866567 322.182437)scale(0.1 -0.1)">
       <use xlink:href="#DejaVuSans-31"/>
       <use xlink:href="#DejaVuSans-32" x="63.623047"/>
       <use xlink:href="#DejaVuSans-35" x="127.246094"/>
       <use xlink:href="#DejaVuSans-30" x="190.869141"/>
      </g>
     </g>
    </g>
    <g id="xtick_7">
     <g id="line2d_7">
      <g>
       <use xlink:href="#m6ab91cd411" x="348.343335" y="307.584" style="stroke: #000000; stroke-width: 0.8"/>
      </g>
     </g>
     <g id="text_7">
      <!-- 1500 -->
      <g transform="translate(335.618335 322.182437)scale(0.1 -0.1)">
       <use xlink:href="#DejaVuSans-31"/>
       <use xlink:href="#DejaVuSans-35" x="63.623047"/>
       <use xlink:href="#DejaVuSans-30" x="127.246094"/>
       <use xlink:href="#DejaVuSans-30" x="190.869141"/>
      </g>
     </g>
    </g>
    <g id="xtick_8">
     <g id="line2d_8">
      <g>
       <use xlink:href="#m6ab91cd411" x="394.095103" y="307.584" style="stroke: #000000; stroke-width: 0.8"/>
      </g>
     </g>
     <g id="text_8">
      <!-- 1750 -->
      <g transform="translate(381.370103 322.182437)scale(0.1 -0.1)">
       <use xlink:href="#DejaVuSans-31"/>
       <use xlink:href="#DejaVuSans-37" x="63.623047"/>
       <use xlink:href="#DejaVuSans-35" x="127.246094"/>
       <use xlink:href="#DejaVuSans-30" x="190.869141"/>
      </g>
     </g>
    </g>
    <g id="text_9">
     <!-- num swaps -->
     <g transform="translate(207.826406 335.860562)scale(0.1 -0.1)">
      <defs>
       <path id="DejaVuSans-6e" d="M 3513 2113 
L 3513 0 
L 2938 0 
L 2938 2094 
Q 2938 2591 2744 2837 
Q 2550 3084 2163 3084 
Q 1697 3084 1428 2787 
Q 1159 2491 1159 1978 
L 1159 0 
L 581 0 
L 581 3500 
L 1159 3500 
L 1159 2956 
Q 1366 3272 1645 3428 
Q 1925 3584 2291 3584 
Q 2894 3584 3203 3211 
Q 3513 2838 3513 2113 
z
" transform="scale(0.015625)"/>
       <path id="DejaVuSans-75" d="M 544 1381 
L 544 3500 
L 1119 3500 
L 1119 1403 
Q 1119 906 1312 657 
Q 1506 409 1894 409 
Q 2359 409 2629 706 
Q 2900 1003 2900 1516 
L 2900 3500 
L 3475 3500 
L 3475 0 
L 2900 0 
L 2900 538 
Q 2691 219 2414 64 
Q 2138 -91 1772 -91 
Q 1169 -91 856 284 
Q 544 659 544 1381 
z
M 1991 3584 
L 1991 3584 
z
" transform="scale(0.015625)"/>
       <path id="DejaVuSans-6d" d="M 3328 2828 
Q 3544 3216 3844 3400 
Q 4144 3584 4550 3584 
Q 5097 3584 5394 3201 
Q 5691 2819 5691 2113 
L 5691 0 
L 5113 0 
L 5113 2094 
Q 5113 2597 4934 2840 
Q 4756 3084 4391 3084 
Q 3944 3084 3684 2787 
Q 3425 2491 3425 1978 
L 3425 0 
L 2847 0 
L 2847 2094 
Q 2847 2600 2669 2842 
Q 2491 3084 2119 3084 
Q 1678 3084 1418 2786 
Q 1159 2488 1159 1978 
L 1159 0 
L 581 0 
L 581 3500 
L 1159 3500 
L 1159 2956 
Q 1356 3278 1631 3431 
Q 1906 3584 2284 3584 
Q 2666 3584 2933 3390 
Q 3200 3197 3328 2828 
z
" transform="scale(0.015625)"/>
       <path id="DejaVuSans-20" transform="scale(0.015625)"/>
       <path id="DejaVuSans-73" d="M 2834 3397 
L 2834 2853 
Q 2591 2978 2328 3040 
Q 2066 3103 1784 3103 
Q 1356 3103 1142 2972 
Q 928 2841 928 2578 
Q 928 2378 1081 2264 
Q 1234 2150 1697 2047 
L 1894 2003 
Q 2506 1872 2764 1633 
Q 3022 1394 3022 966 
Q 3022 478 2636 193 
Q 2250 -91 1575 -91 
Q 1294 -91 989 -36 
Q 684 19 347 128 
L 347 722 
Q 666 556 975 473 
Q 1284 391 1588 391 
Q 1994 391 2212 530 
Q 2431 669 2431 922 
Q 2431 1156 2273 1281 
Q 2116 1406 1581 1522 
L 1381 1569 
Q 847 1681 609 1914 
Q 372 2147 372 2553 
Q 372 3047 722 3315 
Q 1072 3584 1716 3584 
Q 2034 3584 2315 3537 
Q 2597 3491 2834 3397 
z
" transform="scale(0.015625)"/>
       <path id="DejaVuSans-77" d="M 269 3500 
L 844 3500 
L 1563 769 
L 2278 3500 
L 2956 3500 
L 3675 769 
L 4391 3500 
L 4966 3500 
L 4050 0 
L 3372 0 
L 2619 2869 
L 1863 0 
L 1184 0 
L 269 3500 
z
" transform="scale(0.015625)"/>
       <path id="DejaVuSans-61" d="M 2194 1759 
Q 1497 1759 1228 1600 
Q 959 1441 959 1056 
Q 959 750 1161 570 
Q 1363 391 1709 391 
Q 2188 391 2477 730 
Q 2766 1069 2766 1631 
L 2766 1759 
L 2194 1759 
z
M 3341 1997 
L 3341 0 
L 2766 0 
L 2766 531 
Q 2569 213 2275 61 
Q 1981 -91 1556 -91 
Q 1019 -91 701 211 
Q 384 513 384 1019 
Q 384 1609 779 1909 
Q 1175 2209 1959 2209 
L 2766 2209 
L 2766 2266 
Q 2766 2663 2505 2880 
Q 2244 3097 1772 3097 
Q 1472 3097 1187 3025 
Q 903 2953 641 2809 
L 641 3341 
Q 956 3463 1253 3523 
Q 1550 3584 1831 3584 
Q 2591 3584 2966 3190 
Q 3341 2797 3341 1997 
z
" transform="scale(0.015625)"/>
       <path id="DejaVuSans-70" d="M 1159 525 
L 1159 -1331 
L 581 -1331 
L 581 3500 
L 1159 3500 
L 1159 2969 
Q 1341 3281 1617 3432 
Q 1894 3584 2278 3584 
Q 2916 3584 3314 3078 
Q 3713 2572 3713 1747 
Q 3713 922 3314 415 
Q 2916 -91 2278 -91 
Q 1894 -91 1617 61 
Q 1341 213 1159 525 
z
M 3116 1747 
Q 3116 2381 2855 2742 
Q 2594 3103 2138 3103 
Q 1681 3103 1420 2742 
Q 1159 2381 1159 1747 
Q 1159 1113 1420 752 
Q 1681 391 2138 391 
Q 2594 391 2855 752 
Q 3116 1113 3116 1747 
z
" transform="scale(0.015625)"/>
      </defs>
      <use xlink:href="#DejaVuSans-6e"/>
      <use xlink:href="#DejaVuSans-75" x="63.378906"/>
      <use xlink:href="#DejaVuSans-6d" x="126.757812"/>
      <use xlink:href="#DejaVuSans-20" x="224.169922"/>
      <use xlink:href="#DejaVuSans-73" x="255.957031"/>
      <use xlink:href="#DejaVuSans-77" x="308.056641"/>
      <use xlink:href="#DejaVuSans-61" x="389.84375"/>
      <use xlink:href="#DejaVuSans-70" x="451.123047"/>
      <use xlink:href="#DejaVuSans-73" x="514.599609"/>
     </g>
    </g>
   </g>
   <g id="matplotlib.axis_2">
    <g id="ytick_1">
     <g id="line2d_9">
      <defs>
       <path id="m717ee75f5c" d="M 0 0 
L -3.5 0 
" style="stroke: #000000; stroke-width: 0.8"/>
      </defs>
      <g>
       <use xlink:href="#m717ee75f5c" x="57.6" y="291.766154" style="stroke: #000000; stroke-width: 0.8"/>
      </g>
     </g>
     <g id="text_10">
      <!-- 280 -->
      <g transform="translate(31.5125 295.565373)scale(0.1 -0.1)">
       <defs>
        <path id="DejaVuSans-38" d="M 2034 2216 
Q 1584 2216 1326 1975 
Q 1069 1734 1069 1313 
Q 1069 891 1326 650 
Q 1584 409 2034 409 
Q 2484 409 2743 651 
Q 3003 894 3003 1313 
Q 3003 1734 2745 1975 
Q 2488 2216 2034 2216 
z
M 1403 2484 
Q 997 2584 770 2862 
Q 544 3141 544 3541 
Q 544 4100 942 4425 
Q 1341 4750 2034 4750 
Q 2731 4750 3128 4425 
Q 3525 4100 3525 3541 
Q 3525 3141 3298 2862 
Q 3072 2584 2669 2484 
Q 3125 2378 3379 2068 
Q 3634 1759 3634 1313 
Q 3634 634 3220 271 
Q 2806 -91 2034 -91 
Q 1263 -91 848 271 
Q 434 634 434 1313 
Q 434 1759 690 2068 
Q 947 2378 1403 2484 
z
M 1172 3481 
Q 1172 3119 1398 2916 
Q 1625 2713 2034 2713 
Q 2441 2713 2670 2916 
Q 2900 3119 2900 3481 
Q 2900 3844 2670 4047 
Q 2441 4250 2034 4250 
Q 1625 4250 1398 4047 
Q 1172 3844 1172 3481 
z
" transform="scale(0.015625)"/>
       </defs>
       <use xlink:href="#DejaVuSans-32"/>
       <use xlink:href="#DejaVuSans-38" x="63.623047"/>
       <use xlink:href="#DejaVuSans-30" x="127.246094"/>
      </g>
     </g>
    </g>
    <g id="ytick_2">
     <g id="line2d_10">
      <g>
       <use xlink:href="#m717ee75f5c" x="57.6" y="254.547692" style="stroke: #000000; stroke-width: 0.8"/>
      </g>
     </g>
     <g id="text_11">
      <!-- 290 -->
      <g transform="translate(31.5125 258.346911)scale(0.1 -0.1)">
       <defs>
        <path id="DejaVuSans-39" d="M 703 97 
L 703 672 
Q 941 559 1184 500 
Q 1428 441 1663 441 
Q 2288 441 2617 861 
Q 2947 1281 2994 2138 
Q 2813 1869 2534 1725 
Q 2256 1581 1919 1581 
Q 1219 1581 811 2004 
Q 403 2428 403 3163 
Q 403 3881 828 4315 
Q 1253 4750 1959 4750 
Q 2769 4750 3195 4129 
Q 3622 3509 3622 2328 
Q 3622 1225 3098 567 
Q 2575 -91 1691 -91 
Q 1453 -91 1209 -44 
Q 966 3 703 97 
z
M 1959 2075 
Q 2384 2075 2632 2365 
Q 2881 2656 2881 3163 
Q 2881 3666 2632 3958 
Q 2384 4250 1959 4250 
Q 1534 4250 1286 3958 
Q 1038 3666 1038 3163 
Q 1038 2656 1286 2365 
Q 1534 2075 1959 2075 
z
" transform="scale(0.015625)"/>
       </defs>
       <use xlink:href="#DejaVuSans-32"/>
       <use xlink:href="#DejaVuSans-39" x="63.623047"/>
       <use xlink:href="#DejaVuSans-30" x="127.246094"/>
      </g>
     </g>
    </g>
    <g id="ytick_3">
     <g id="line2d_11">
      <g>
       <use xlink:href="#m717ee75f5c" x="57.6" y="217.329231" style="stroke: #000000; stroke-width: 0.8"/>
      </g>
     </g>
     <g id="text_12">
      <!-- 300 -->
      <g transform="translate(31.5125 221.12845)scale(0.1 -0.1)">
       <defs>
        <path id="DejaVuSans-33" d="M 2597 2516 
Q 3050 2419 3304 2112 
Q 3559 1806 3559 1356 
Q 3559 666 3084 287 
Q 2609 -91 1734 -91 
Q 1441 -91 1130 -33 
Q 819 25 488 141 
L 488 750 
Q 750 597 1062 519 
Q 1375 441 1716 441 
Q 2309 441 2620 675 
Q 2931 909 2931 1356 
Q 2931 1769 2642 2001 
Q 2353 2234 1838 2234 
L 1294 2234 
L 1294 2753 
L 1863 2753 
Q 2328 2753 2575 2939 
Q 2822 3125 2822 3475 
Q 2822 3834 2567 4026 
Q 2313 4219 1838 4219 
Q 1578 4219 1281 4162 
Q 984 4106 628 3988 
L 628 4550 
Q 988 4650 1302 4700 
Q 1616 4750 1894 4750 
Q 2613 4750 3031 4423 
Q 3450 4097 3450 3541 
Q 3450 3153 3228 2886 
Q 3006 2619 2597 2516 
z
" transform="scale(0.015625)"/>
       </defs>
       <use xlink:href="#DejaVuSans-33"/>
       <use xlink:href="#DejaVuSans-30" x="63.623047"/>
       <use xlink:href="#DejaVuSans-30" x="127.246094"/>
      </g>
     </g>
    </g>
    <g id="ytick_4">
     <g id="line2d_12">
      <g>
       <use xlink:href="#m717ee75f5c" x="57.6" y="180.110769" style="stroke: #000000; stroke-width: 0.8"/>
      </g>
     </g>
     <g id="text_13">
      <!-- 310 -->
      <g transform="translate(31.5125 183.909988)scale(0.1 -0.1)">
       <use xlink:href="#DejaVuSans-33"/>
       <use xlink:href="#DejaVuSans-31" x="63.623047"/>
       <use xlink:href="#DejaVuSans-30" x="127.246094"/>
      </g>
     </g>
    </g>
    <g id="ytick_5">
     <g id="line2d_13">
      <g>
       <use xlink:href="#m717ee75f5c" x="57.6" y="142.892308" style="stroke: #000000; stroke-width: 0.8"/>
      </g>
     </g>
     <g id="text_14">
      <!-- 320 -->
      <g transform="translate(31.5125 146.691526)scale(0.1 -0.1)">
       <use xlink:href="#DejaVuSans-33"/>
       <use xlink:href="#DejaVuSans-32" x="63.623047"/>
       <use xlink:href="#DejaVuSans-30" x="127.246094"/>
      </g>
     </g>
    </g>
    <g id="ytick_6">
     <g id="line2d_14">
      <g>
       <use xlink:href="#m717ee75f5c" x="57.6" y="105.673846" style="stroke: #000000; stroke-width: 0.8"/>
      </g>
     </g>
     <g id="text_15">
      <!-- 330 -->
      <g transform="translate(31.5125 109.473065)scale(0.1 -0.1)">
       <use xlink:href="#DejaVuSans-33"/>
       <use xlink:href="#DejaVuSans-33" x="63.623047"/>
       <use xlink:href="#DejaVuSans-30" x="127.246094"/>
      </g>
     </g>
    </g>
    <g id="ytick_7">
     <g id="line2d_15">
      <g>
       <use xlink:href="#m717ee75f5c" x="57.6" y="68.455385" style="stroke: #000000; stroke-width: 0.8"/>
      </g>
     </g>
     <g id="text_16">
      <!-- 340 -->
      <g transform="translate(31.5125 72.254603)scale(0.1 -0.1)">
       <defs>
        <path id="DejaVuSans-34" d="M 2419 4116 
L 825 1625 
L 2419 1625 
L 2419 4116 
z
M 2253 4666 
L 3047 4666 
L 3047 1625 
L 3713 1625 
L 3713 1100 
L 3047 1100 
L 3047 0 
L 2419 0 
L 2419 1100 
L 313 1100 
L 313 1709 
L 2253 4666 
z
" transform="scale(0.015625)"/>
       </defs>
       <use xlink:href="#DejaVuSans-33"/>
       <use xlink:href="#DejaVuSans-34" x="63.623047"/>
       <use xlink:href="#DejaVuSans-30" x="127.246094"/>
      </g>
     </g>
    </g>
    <g id="text_17">
     <!-- total cost -->
     <g transform="translate(25.432812 197.923313)rotate(-90)scale(0.1 -0.1)">
      <defs>
       <path id="DejaVuSans-74" d="M 1172 4494 
L 1172 3500 
L 2356 3500 
L 2356 3053 
L 1172 3053 
L 1172 1153 
Q 1172 725 1289 603 
Q 1406 481 1766 481 
L 2356 481 
L 2356 0 
L 1766 0 
Q 1100 0 847 248 
Q 594 497 594 1153 
L 594 3053 
L 172 3053 
L 172 3500 
L 594 3500 
L 594 4494 
L 1172 4494 
z
" transform="scale(0.015625)"/>
       <path id="DejaVuSans-6f" d="M 1959 3097 
Q 1497 3097 1228 2736 
Q 959 2375 959 1747 
Q 959 1119 1226 758 
Q 1494 397 1959 397 
Q 2419 397 2687 759 
Q 2956 1122 2956 1747 
Q 2956 2369 2687 2733 
Q 2419 3097 1959 3097 
z
M 1959 3584 
Q 2709 3584 3137 3096 
Q 3566 2609 3566 1747 
Q 3566 888 3137 398 
Q 2709 -91 1959 -91 
Q 1206 -91 779 398 
Q 353 888 353 1747 
Q 353 2609 779 3096 
Q 1206 3584 1959 3584 
z
" transform="scale(0.015625)"/>
       <path id="DejaVuSans-6c" d="M 603 4863 
L 1178 4863 
L 1178 0 
L 603 0 
L 603 4863 
z
" transform="scale(0.015625)"/>
       <path id="DejaVuSans-63" d="M 3122 3366 
L 3122 2828 
Q 2878 2963 2633 3030 
Q 2388 3097 2138 3097 
Q 1578 3097 1268 2742 
Q 959 2388 959 1747 
Q 959 1106 1268 751 
Q 1578 397 2138 397 
Q 2388 397 2633 464 
Q 2878 531 3122 666 
L 3122 134 
Q 2881 22 2623 -34 
Q 2366 -91 2075 -91 
Q 1284 -91 818 406 
Q 353 903 353 1747 
Q 353 2603 823 3093 
Q 1294 3584 2113 3584 
Q 2378 3584 2631 3529 
Q 2884 3475 3122 3366 
z
" transform="scale(0.015625)"/>
      </defs>
      <use xlink:href="#DejaVuSans-74"/>
      <use xlink:href="#DejaVuSans-6f" x="39.208984"/>
      <use xlink:href="#DejaVuSans-74" x="100.390625"/>
      <use xlink:href="#DejaVuSans-61" x="139.599609"/>
      <use xlink:href="#DejaVuSans-6c" x="200.878906"/>
      <use xlink:href="#DejaVuSans-20" x="228.662109"/>
      <use xlink:href="#DejaVuSans-63" x="260.449219"/>
      <use xlink:href="#DejaVuSans-6f" x="315.429688"/>
      <use xlink:href="#DejaVuSans-73" x="376.611328"/>
      <use xlink:href="#DejaVuSans-74" x="428.710938"/>
     </g>
    </g>
   </g>
   <g id="line2d_16">
    <path d="M 73.832727 87.064615 
L 74.198741 113.117538 
L 74.564756 124.283077 
L 74.93077 94.508308 
L 75.296784 98.230154 
L 75.662798 98.230154 
L 76.028812 87.064615 
L 76.394826 94.508308 
L 76.76084 124.283077 
L 77.126855 94.508308 
L 77.492869 94.508308 
L 77.858883 113.117538 
L 78.224897 83.342769 
L 78.956925 105.673846 
L 79.688954 75.899077 
L 80.054968 87.064615 
L 80.420982 83.342769 
L 80.786996 109.395692 
L 81.15301 124.283077 
L 81.519024 116.839385 
L 81.885038 120.561231 
L 82.251053 128.004923 
L 82.617067 131.726769 
L 82.983081 150.336 
L 83.349095 116.839385 
L 83.715109 172.667077 
L 84.081123 157.779692 
L 84.447137 165.223385 
L 85.179166 165.223385 
L 85.54518 187.554462 
L 85.911194 180.110769 
L 86.277208 154.057846 
L 86.643222 150.336 
L 87.009236 161.501538 
L 87.375251 157.779692 
L 87.741265 172.667077 
L 88.107279 176.388923 
L 88.473293 176.388923 
L 88.839307 146.614154 
L 89.205321 157.779692 
L 89.571335 198.72 
L 89.93735 194.998154 
L 90.303364 198.72 
L 90.669378 191.276308 
L 91.035392 235.938462 
L 91.401406 235.938462 
L 91.76742 232.216615 
L 92.499449 191.276308 
L 92.865463 224.772923 
L 93.231477 217.329231 
L 93.963505 146.614154 
L 94.329519 146.614154 
L 95.061548 109.395692 
L 95.427562 161.501538 
L 95.793576 180.110769 
L 96.15959 176.388923 
L 96.525604 209.885538 
L 96.891618 213.607385 
L 97.257632 209.885538 
L 97.623647 213.607385 
L 97.989661 194.998154 
L 98.355675 213.607385 
L 98.721689 217.329231 
L 99.087703 217.329231 
L 99.453717 235.938462 
L 99.819731 228.494769 
L 100.185746 239.660308 
L 100.55176 243.382154 
L 100.917774 235.938462 
L 101.283788 213.607385 
L 101.649802 202.441846 
L 102.38183 168.945231 
L 102.747845 206.163692 
L 103.113859 194.998154 
L 103.479873 191.276308 
L 104.211901 235.938462 
L 104.577915 213.607385 
L 104.943929 161.501538 
L 105.309944 187.554462 
L 105.675958 176.388923 
L 106.407986 209.885538 
L 106.774 213.607385 
L 107.140014 165.223385 
L 107.506028 165.223385 
L 107.872043 172.667077 
L 108.238057 165.223385 
L 108.604071 161.501538 
L 108.970085 168.945231 
L 109.336099 239.660308 
L 109.702113 235.938462 
L 110.068127 250.825846 
L 110.800156 265.713231 
L 111.16617 206.163692 
L 111.532184 239.660308 
L 111.898198 172.667077 
L 112.264212 191.276308 
L 112.630227 94.508308 
L 112.996241 75.899077 
L 113.362255 90.786462 
L 113.728269 61.011692 
L 114.094283 57.289846 
L 114.460297 64.733538 
L 114.826311 79.620923 
L 115.192326 113.117538 
L 115.55834 113.117538 
L 115.924354 139.170462 
L 116.290368 116.839385 
L 116.656382 109.395692 
L 117.022396 98.230154 
L 117.38841 131.726769 
L 117.754425 154.057846 
L 118.120439 202.441846 
L 118.486453 150.336 
L 118.852467 165.223385 
L 119.218481 131.726769 
L 119.584495 124.283077 
L 119.950509 101.952 
L 120.316524 146.614154 
L 120.682538 172.667077 
L 121.048552 142.892308 
L 121.414566 146.614154 
L 121.78058 146.614154 
L 122.146594 128.004923 
L 122.512608 146.614154 
L 122.878623 172.667077 
L 123.610651 165.223385 
L 124.342679 180.110769 
L 124.708693 176.388923 
L 125.074707 183.832615 
L 125.440722 180.110769 
L 125.806736 183.832615 
L 126.17275 131.726769 
L 126.538764 194.998154 
L 126.904778 224.772923 
L 127.270792 202.441846 
L 128.002821 217.329231 
L 128.368835 217.329231 
L 128.734849 135.448615 
L 129.100863 142.892308 
L 129.466877 154.057846 
L 129.832891 157.779692 
L 130.198905 168.945231 
L 130.56492 161.501538 
L 130.930934 198.72 
L 131.296948 172.667077 
L 131.662962 176.388923 
L 132.028976 191.276308 
L 132.39499 194.998154 
L 132.761004 221.051077 
L 133.127019 265.713231 
L 133.493033 258.269538 
L 133.859047 239.660308 
L 134.225061 232.216615 
L 134.591075 172.667077 
L 134.957089 198.72 
L 135.323103 194.998154 
L 135.689118 183.832615 
L 136.055132 154.057846 
L 136.421146 150.336 
L 136.78716 198.72 
L 137.153174 165.223385 
L 137.519188 161.501538 
L 137.885202 165.223385 
L 138.251217 139.170462 
L 138.617231 161.501538 
L 138.983245 209.885538 
L 139.349259 209.885538 
L 139.715273 206.163692 
L 140.081287 161.501538 
L 140.447301 191.276308 
L 140.813316 146.614154 
L 141.17933 139.170462 
L 141.545344 113.117538 
L 141.911358 98.230154 
L 142.277372 116.839385 
L 142.643386 116.839385 
L 143.375415 68.455385 
L 143.741429 75.899077 
L 144.473457 139.170462 
L 144.839471 165.223385 
L 145.205485 154.057846 
L 145.571499 157.779692 
L 145.937514 157.779692 
L 146.303528 168.945231 
L 146.669542 168.945231 
L 147.035556 183.832615 
L 147.40157 176.388923 
L 147.767584 161.501538 
L 148.133598 194.998154 
L 148.499613 176.388923 
L 149.231641 161.501538 
L 149.597655 165.223385 
L 149.963669 187.554462 
L 150.329683 172.667077 
L 150.695697 165.223385 
L 151.061712 183.832615 
L 151.427726 187.554462 
L 151.79374 168.945231 
L 152.159754 139.170462 
L 152.525768 142.892308 
L 152.891782 131.726769 
L 153.257796 101.952 
L 153.989825 128.004923 
L 154.355839 109.395692 
L 154.721853 101.952 
L 155.087867 124.283077 
L 155.453881 157.779692 
L 155.819895 139.170462 
L 156.18591 79.620923 
L 156.551924 90.786462 
L 156.917938 87.064615 
L 157.283952 90.786462 
L 157.649966 131.726769 
L 158.01598 150.336 
L 158.381994 146.614154 
L 158.748009 172.667077 
L 159.114023 172.667077 
L 159.480037 168.945231 
L 159.846051 198.72 
L 160.212065 191.276308 
L 160.578079 194.998154 
L 160.944093 202.441846 
L 161.310108 194.998154 
L 161.676122 191.276308 
L 162.042136 198.72 
L 162.40815 180.110769 
L 162.774164 180.110769 
L 163.506192 224.772923 
L 163.872207 213.607385 
L 164.238221 217.329231 
L 164.604235 206.163692 
L 164.970249 206.163692 
L 165.336263 213.607385 
L 165.702277 217.329231 
L 166.068291 183.832615 
L 166.434306 228.494769 
L 166.80032 191.276308 
L 167.166334 183.832615 
L 167.532348 180.110769 
L 167.898362 172.667077 
L 168.264376 180.110769 
L 168.63039 172.667077 
L 168.996405 161.501538 
L 169.362419 146.614154 
L 169.728433 154.057846 
L 170.094447 157.779692 
L 170.460461 146.614154 
L 170.826475 113.117538 
L 171.192489 120.561231 
L 171.558504 157.779692 
L 171.924518 142.892308 
L 172.290532 161.501538 
L 172.656546 198.72 
L 173.388574 154.057846 
L 173.754589 209.885538 
L 174.120603 172.667077 
L 174.852631 213.607385 
L 175.218645 269.435077 
L 175.584659 250.825846 
L 175.950673 247.104 
L 176.316688 235.938462 
L 176.682702 194.998154 
L 177.048716 239.660308 
L 177.41473 239.660308 
L 177.780744 198.72 
L 178.146758 221.051077 
L 178.512772 206.163692 
L 179.244801 239.660308 
L 179.610815 247.104 
L 179.976829 269.435077 
L 180.342843 254.547692 
L 181.074871 269.435077 
L 181.440886 261.991385 
L 181.8069 258.269538 
L 182.172914 280.600615 
L 182.538928 284.322462 
L 182.904942 276.878769 
L 183.270956 250.825846 
L 183.63697 247.104 
L 184.002985 254.547692 
L 184.368999 228.494769 
L 184.735013 232.216615 
L 185.101027 198.72 
L 185.467041 176.388923 
L 185.833055 180.110769 
L 186.199069 217.329231 
L 186.565084 235.938462 
L 188.02914 280.600615 
L 188.395154 269.435077 
L 188.761168 269.435077 
L 189.127183 217.329231 
L 189.493197 209.885538 
L 189.859211 194.998154 
L 190.225225 228.494769 
L 190.591239 228.494769 
L 190.957253 187.554462 
L 191.323267 180.110769 
L 191.689282 183.832615 
L 192.055296 146.614154 
L 192.42131 131.726769 
L 192.787324 157.779692 
L 193.153338 213.607385 
L 193.519352 239.660308 
L 193.885366 235.938462 
L 194.251381 217.329231 
L 194.617395 206.163692 
L 194.983409 191.276308 
L 195.349423 206.163692 
L 195.715437 209.885538 
L 196.081451 232.216615 
L 196.447465 191.276308 
L 196.81348 194.998154 
L 197.179494 187.554462 
L 197.545508 183.832615 
L 197.911522 191.276308 
L 198.277536 161.501538 
L 198.64355 113.117538 
L 199.009564 101.952 
L 199.741593 142.892308 
L 200.107607 146.614154 
L 200.473621 180.110769 
L 200.839635 183.832615 
L 201.205649 198.72 
L 201.571663 187.554462 
L 201.937678 165.223385 
L 202.303692 154.057846 
L 202.669706 150.336 
L 203.03572 154.057846 
L 203.401734 150.336 
L 203.767748 101.952 
L 204.133762 142.892308 
L 204.499777 161.501538 
L 204.865791 157.779692 
L 205.231805 165.223385 
L 205.597819 157.779692 
L 205.963833 157.779692 
L 206.329847 154.057846 
L 206.695861 172.667077 
L 207.061876 146.614154 
L 207.42789 142.892308 
L 207.793904 157.779692 
L 208.159918 154.057846 
L 208.525932 128.004923 
L 208.891946 154.057846 
L 209.25796 131.726769 
L 209.623975 139.170462 
L 209.989989 168.945231 
L 210.356003 161.501538 
L 210.722017 146.614154 
L 211.088031 150.336 
L 211.454045 142.892308 
L 211.820059 150.336 
L 212.186074 94.508308 
L 212.552088 83.342769 
L 212.918102 75.899077 
L 213.284116 94.508308 
L 213.65013 105.673846 
L 214.016144 94.508308 
L 214.382158 90.786462 
L 214.748173 109.395692 
L 215.114187 120.561231 
L 215.480201 120.561231 
L 215.846215 135.448615 
L 216.212229 120.561231 
L 216.578243 75.899077 
L 216.944257 68.455385 
L 217.310272 68.455385 
L 217.676286 64.733538 
L 218.0423 98.230154 
L 218.408314 113.117538 
L 218.774328 116.839385 
L 219.140342 146.614154 
L 219.506356 161.501538 
L 219.872371 128.004923 
L 220.238385 113.117538 
L 220.604399 105.673846 
L 220.970413 94.508308 
L 221.336427 113.117538 
L 221.702441 94.508308 
L 222.068455 101.952 
L 222.43447 124.283077 
L 223.166498 64.733538 
L 223.532512 72.177231 
L 223.898526 75.899077 
L 224.26454 64.733538 
L 224.630554 64.733538 
L 224.996569 75.899077 
L 225.362583 98.230154 
L 225.728597 98.230154 
L 226.094611 105.673846 
L 226.460625 79.620923 
L 226.826639 101.952 
L 227.192653 139.170462 
L 227.558668 135.448615 
L 227.924682 139.170462 
L 228.290696 150.336 
L 228.65671 172.667077 
L 229.022724 165.223385 
L 229.388738 146.614154 
L 229.754752 176.388923 
L 230.120767 165.223385 
L 230.486781 161.501538 
L 230.852795 154.057846 
L 231.950837 109.395692 
L 232.316851 128.004923 
L 232.682866 109.395692 
L 233.04888 154.057846 
L 233.414894 157.779692 
L 233.780908 146.614154 
L 234.146922 165.223385 
L 234.512936 116.839385 
L 234.87895 135.448615 
L 235.244965 146.614154 
L 235.610979 150.336 
L 235.976993 183.832615 
L 236.343007 183.832615 
L 237.075035 168.945231 
L 237.44105 154.057846 
L 237.807064 154.057846 
L 238.539092 180.110769 
L 238.905106 176.388923 
L 239.27112 191.276308 
L 239.637134 213.607385 
L 240.003149 224.772923 
L 240.369163 198.72 
L 240.735177 235.938462 
L 241.101191 165.223385 
L 241.467205 146.614154 
L 242.565248 72.177231 
L 242.931262 68.455385 
L 243.297276 87.064615 
L 243.66329 79.620923 
L 244.395318 109.395692 
L 244.761332 94.508308 
L 245.127347 98.230154 
L 245.493361 113.117538 
L 245.859375 154.057846 
L 246.225389 168.945231 
L 246.591403 161.501538 
L 246.957417 161.501538 
L 247.323431 172.667077 
L 247.689446 194.998154 
L 248.05546 172.667077 
L 248.787488 150.336 
L 249.153502 113.117538 
L 249.519516 131.726769 
L 249.88553 128.004923 
L 250.251545 142.892308 
L 250.617559 75.899077 
L 250.983573 53.568 
L 251.349587 61.011692 
L 251.715601 87.064615 
L 252.081615 90.786462 
L 252.447629 124.283077 
L 252.813644 113.117538 
L 253.179658 139.170462 
L 253.545672 109.395692 
L 253.911686 142.892308 
L 254.2777 139.170462 
L 254.643714 139.170462 
L 255.009728 101.952 
L 255.375743 94.508308 
L 256.107771 131.726769 
L 256.473785 128.004923 
L 256.839799 176.388923 
L 257.205813 180.110769 
L 257.571827 198.72 
L 257.937842 202.441846 
L 258.303856 191.276308 
L 258.66987 191.276308 
L 259.035884 187.554462 
L 259.401898 176.388923 
L 259.767912 183.832615 
L 260.133926 176.388923 
L 260.865955 150.336 
L 261.231969 176.388923 
L 261.597983 146.614154 
L 261.963997 139.170462 
L 262.330011 146.614154 
L 262.696025 161.501538 
L 263.06204 139.170462 
L 263.428054 142.892308 
L 263.794068 142.892308 
L 264.160082 131.726769 
L 264.526096 157.779692 
L 264.89211 116.839385 
L 265.258124 90.786462 
L 265.624139 120.561231 
L 265.990153 101.952 
L 266.356167 101.952 
L 267.088195 161.501538 
L 267.454209 165.223385 
L 268.186238 131.726769 
L 268.552252 94.508308 
L 268.918266 105.673846 
L 269.28428 120.561231 
L 269.650294 150.336 
L 270.016308 128.004923 
L 270.382322 131.726769 
L 270.748337 128.004923 
L 271.114351 113.117538 
L 271.480365 124.283077 
L 271.846379 124.283077 
L 272.212393 128.004923 
L 272.578407 120.561231 
L 272.944421 124.283077 
L 273.310436 139.170462 
L 273.67645 131.726769 
L 274.042464 101.952 
L 274.408478 113.117538 
L 274.774492 116.839385 
L 275.140506 113.117538 
L 275.50652 135.448615 
L 275.872535 146.614154 
L 276.238549 142.892308 
L 276.604563 146.614154 
L 276.970577 168.945231 
L 277.336591 150.336 
L 277.702605 139.170462 
L 278.068619 116.839385 
L 278.434634 113.117538 
L 278.800648 124.283077 
L 279.166662 187.554462 
L 279.532676 202.441846 
L 279.89869 183.832615 
L 280.264704 183.832615 
L 280.630718 131.726769 
L 280.996733 139.170462 
L 281.362747 168.945231 
L 281.728761 180.110769 
L 282.094775 176.388923 
L 282.460789 198.72 
L 282.826803 187.554462 
L 283.558832 135.448615 
L 283.924846 120.561231 
L 284.29086 139.170462 
L 284.656874 135.448615 
L 285.022888 142.892308 
L 285.388902 120.561231 
L 286.120931 135.448615 
L 286.486945 161.501538 
L 287.218973 105.673846 
L 287.584987 101.952 
L 287.951001 113.117538 
L 288.317015 113.117538 
L 289.049044 150.336 
L 289.415058 142.892308 
L 289.781072 124.283077 
L 290.147086 154.057846 
L 290.5131 120.561231 
L 290.879114 150.336 
L 291.245129 168.945231 
L 291.611143 194.998154 
L 291.977157 194.998154 
L 292.343171 187.554462 
L 292.709185 176.388923 
L 293.075199 198.72 
L 293.441213 150.336 
L 293.807228 168.945231 
L 294.173242 180.110769 
L 294.539256 194.998154 
L 294.90527 198.72 
L 295.271284 209.885538 
L 295.637298 224.772923 
L 296.003312 198.72 
L 296.369327 194.998154 
L 296.735341 202.441846 
L 297.101355 217.329231 
L 297.467369 217.329231 
L 297.833383 235.938462 
L 298.199397 239.660308 
L 298.565411 235.938462 
L 298.931426 247.104 
L 299.29744 247.104 
L 299.663454 258.269538 
L 300.029468 247.104 
L 300.395482 209.885538 
L 300.761496 213.607385 
L 301.127511 161.501538 
L 301.493525 165.223385 
L 301.859539 135.448615 
L 302.225553 135.448615 
L 302.591567 187.554462 
L 302.957581 172.667077 
L 303.323595 172.667077 
L 303.68961 198.72 
L 304.055624 180.110769 
L 304.421638 265.713231 
L 304.787652 235.938462 
L 305.153666 254.547692 
L 305.885694 247.104 
L 306.251709 232.216615 
L 306.617723 228.494769 
L 306.983737 228.494769 
L 307.349751 224.772923 
L 307.715765 202.441846 
L 308.081779 213.607385 
L 308.813808 228.494769 
L 309.179822 243.382154 
L 309.545836 228.494769 
L 309.91185 202.441846 
L 310.277864 232.216615 
L 310.643878 235.938462 
L 311.009892 232.216615 
L 311.375907 239.660308 
L 312.107935 202.441846 
L 312.473949 165.223385 
L 312.839963 157.779692 
L 313.205977 168.945231 
L 313.571991 172.667077 
L 313.938006 191.276308 
L 314.670034 176.388923 
L 315.036048 198.72 
L 315.402062 209.885538 
L 315.768076 206.163692 
L 316.13409 213.607385 
L 316.500105 269.435077 
L 316.866119 243.382154 
L 317.232133 243.382154 
L 317.964161 228.494769 
L 318.330175 239.660308 
L 318.696189 224.772923 
L 319.062204 217.329231 
L 319.428218 224.772923 
L 319.794232 235.938462 
L 320.52626 213.607385 
L 320.892274 213.607385 
L 321.624303 198.72 
L 321.990317 187.554462 
L 322.356331 183.832615 
L 322.722345 191.276308 
L 323.088359 176.388923 
L 323.454373 187.554462 
L 323.820387 172.667077 
L 324.186402 165.223385 
L 324.552416 187.554462 
L 324.91843 180.110769 
L 325.284444 113.117538 
L 325.650458 120.561231 
L 326.016472 139.170462 
L 326.382486 142.892308 
L 326.748501 139.170462 
L 327.114515 116.839385 
L 327.480529 101.952 
L 328.212557 176.388923 
L 328.578571 157.779692 
L 328.944585 165.223385 
L 329.3106 183.832615 
L 330.042628 206.163692 
L 330.408642 209.885538 
L 330.774656 224.772923 
L 331.14067 217.329231 
L 331.506684 254.547692 
L 331.872699 273.156923 
L 332.238713 261.991385 
L 332.604727 247.104 
L 332.970741 221.051077 
L 333.336755 221.051077 
L 333.702769 172.667077 
L 334.068783 154.057846 
L 334.434798 165.223385 
L 334.800812 183.832615 
L 335.166826 176.388923 
L 335.53284 154.057846 
L 335.898854 157.779692 
L 336.264868 157.779692 
L 336.630882 180.110769 
L 336.996897 161.501538 
L 337.362911 235.938462 
L 337.728925 217.329231 
L 338.094939 209.885538 
L 338.460953 213.607385 
L 338.826967 194.998154 
L 339.192981 198.72 
L 339.558996 213.607385 
L 339.92501 235.938462 
L 340.291024 228.494769 
L 340.657038 217.329231 
L 341.023052 232.216615 
L 341.389066 224.772923 
L 341.75508 258.269538 
L 342.121095 247.104 
L 342.487109 232.216615 
L 342.853123 209.885538 
L 343.219137 206.163692 
L 343.585151 176.388923 
L 344.317179 183.832615 
L 344.683194 191.276308 
L 345.049208 191.276308 
L 345.415222 187.554462 
L 345.781236 180.110769 
L 346.14725 191.276308 
L 346.513264 183.832615 
L 346.879278 180.110769 
L 347.245293 191.276308 
L 347.611307 168.945231 
L 347.977321 172.667077 
L 348.343335 165.223385 
L 348.709349 131.726769 
L 350.173406 202.441846 
L 350.53942 202.441846 
L 350.905434 198.72 
L 351.271448 191.276308 
L 351.637462 187.554462 
L 352.003476 176.388923 
L 352.369491 206.163692 
L 352.735505 206.163692 
L 353.101519 194.998154 
L 353.467533 206.163692 
L 353.833547 228.494769 
L 354.199561 235.938462 
L 354.565575 206.163692 
L 354.93159 213.607385 
L 355.297604 202.441846 
L 355.663618 194.998154 
L 356.029632 194.998154 
L 356.395646 191.276308 
L 357.127674 105.673846 
L 358.225717 176.388923 
L 358.591731 168.945231 
L 358.957745 139.170462 
L 359.323759 142.892308 
L 359.689773 168.945231 
L 360.055788 165.223385 
L 360.787816 150.336 
L 361.15383 135.448615 
L 361.519844 187.554462 
L 361.885858 202.441846 
L 362.251873 183.832615 
L 362.617887 191.276308 
L 363.349915 176.388923 
L 363.715929 165.223385 
L 364.081943 176.388923 
L 364.447957 154.057846 
L 364.813972 142.892308 
L 365.179986 101.952 
L 365.546 165.223385 
L 365.912014 176.388923 
L 366.278028 213.607385 
L 366.644042 213.607385 
L 367.010056 228.494769 
L 367.742085 198.72 
L 368.108099 221.051077 
L 368.474113 209.885538 
L 368.840127 191.276308 
L 369.206141 183.832615 
L 369.93817 176.388923 
L 370.304184 176.388923 
L 370.670198 183.832615 
L 371.036212 202.441846 
L 371.402226 191.276308 
L 371.76824 187.554462 
L 372.134254 180.110769 
L 372.500269 161.501538 
L 372.866283 161.501538 
L 373.232297 157.779692 
L 373.964325 202.441846 
L 374.330339 183.832615 
L 374.696353 202.441846 
L 375.062368 213.607385 
L 375.428382 239.660308 
L 375.794396 250.825846 
L 376.16041 269.435077 
L 376.526424 280.600615 
L 376.892438 273.156923 
L 377.258452 276.878769 
L 377.624467 288.044308 
L 377.990481 288.044308 
L 378.722509 295.488 
L 379.088523 254.547692 
L 379.454537 265.713231 
L 379.820551 269.435077 
L 380.186566 265.713231 
L 380.55258 258.269538 
L 380.918594 254.547692 
L 381.284608 265.713231 
L 381.650622 280.600615 
L 382.016636 273.156923 
L 382.38265 276.878769 
L 382.748665 254.547692 
L 383.114679 258.269538 
L 383.480693 235.938462 
L 383.846707 280.600615 
L 384.212721 273.156923 
L 384.578735 247.104 
L 384.944749 247.104 
L 385.310764 243.382154 
L 385.676778 224.772923 
L 386.042792 217.329231 
L 386.408806 213.607385 
L 386.77482 206.163692 
L 387.140834 150.336 
L 387.506848 142.892308 
L 387.872863 165.223385 
L 388.238877 180.110769 
L 388.604891 172.667077 
L 388.970905 187.554462 
L 389.336919 194.998154 
L 389.702933 183.832615 
L 390.068947 168.945231 
L 390.434962 128.004923 
L 390.800976 161.501538 
L 391.16699 183.832615 
L 391.533004 183.832615 
L 391.899018 243.382154 
L 392.265032 202.441846 
L 392.631046 198.72 
L 392.997061 206.163692 
L 393.729089 213.607385 
L 394.095103 194.998154 
L 394.461117 194.998154 
L 394.827131 191.276308 
L 395.193145 183.832615 
L 395.55916 187.554462 
L 395.925174 187.554462 
L 396.291188 161.501538 
L 396.657202 161.501538 
L 397.023216 131.726769 
L 397.38923 131.726769 
L 397.755244 139.170462 
L 398.121259 101.952 
L 398.487273 116.839385 
L 398.487273 116.839385 
" clip-path="url(#p9bea5e8e0d)" style="fill: none; stroke: #1f77b4; stroke-width: 1.5; stroke-linecap: square"/>
   </g>
   <g id="patch_3">
    <path d="M 57.6 307.584 
L 57.6 41.472 
" style="fill: none; stroke: #000000; stroke-width: 0.8; stroke-linejoin: miter; stroke-linecap: square"/>
   </g>
   <g id="patch_4">
    <path d="M 414.72 307.584 
L 414.72 41.472 
" style="fill: none; stroke: #000000; stroke-width: 0.8; stroke-linejoin: miter; stroke-linecap: square"/>
   </g>
   <g id="patch_5">
    <path d="M 57.6 307.584 
L 414.72 307.584 
" style="fill: none; stroke: #000000; stroke-width: 0.8; stroke-linejoin: miter; stroke-linecap: square"/>
   </g>
   <g id="patch_6">
    <path d="M 57.6 41.472 
L 414.72 41.472 
" style="fill: none; stroke: #000000; stroke-width: 0.8; stroke-linejoin: miter; stroke-linecap: square"/>
   </g>
   <g id="text_18">
    <!-- Simulated Anealling Cost -->
    <g transform="translate(160.8 35.472)scale(0.12 -0.12)">
     <defs>
      <path id="DejaVuSans-53" d="M 3425 4513 
L 3425 3897 
Q 3066 4069 2747 4153 
Q 2428 4238 2131 4238 
Q 1616 4238 1336 4038 
Q 1056 3838 1056 3469 
Q 1056 3159 1242 3001 
Q 1428 2844 1947 2747 
L 2328 2669 
Q 3034 2534 3370 2195 
Q 3706 1856 3706 1288 
Q 3706 609 3251 259 
Q 2797 -91 1919 -91 
Q 1588 -91 1214 -16 
Q 841 59 441 206 
L 441 856 
Q 825 641 1194 531 
Q 1563 422 1919 422 
Q 2459 422 2753 634 
Q 3047 847 3047 1241 
Q 3047 1584 2836 1778 
Q 2625 1972 2144 2069 
L 1759 2144 
Q 1053 2284 737 2584 
Q 422 2884 422 3419 
Q 422 4038 858 4394 
Q 1294 4750 2059 4750 
Q 2388 4750 2728 4690 
Q 3069 4631 3425 4513 
z
" transform="scale(0.015625)"/>
      <path id="DejaVuSans-69" d="M 603 3500 
L 1178 3500 
L 1178 0 
L 603 0 
L 603 3500 
z
M 603 4863 
L 1178 4863 
L 1178 4134 
L 603 4134 
L 603 4863 
z
" transform="scale(0.015625)"/>
      <path id="DejaVuSans-65" d="M 3597 1894 
L 3597 1613 
L 953 1613 
Q 991 1019 1311 708 
Q 1631 397 2203 397 
Q 2534 397 2845 478 
Q 3156 559 3463 722 
L 3463 178 
Q 3153 47 2828 -22 
Q 2503 -91 2169 -91 
Q 1331 -91 842 396 
Q 353 884 353 1716 
Q 353 2575 817 3079 
Q 1281 3584 2069 3584 
Q 2775 3584 3186 3129 
Q 3597 2675 3597 1894 
z
M 3022 2063 
Q 3016 2534 2758 2815 
Q 2500 3097 2075 3097 
Q 1594 3097 1305 2825 
Q 1016 2553 972 2059 
L 3022 2063 
z
" transform="scale(0.015625)"/>
      <path id="DejaVuSans-64" d="M 2906 2969 
L 2906 4863 
L 3481 4863 
L 3481 0 
L 2906 0 
L 2906 525 
Q 2725 213 2448 61 
Q 2172 -91 1784 -91 
Q 1150 -91 751 415 
Q 353 922 353 1747 
Q 353 2572 751 3078 
Q 1150 3584 1784 3584 
Q 2172 3584 2448 3432 
Q 2725 3281 2906 2969 
z
M 947 1747 
Q 947 1113 1208 752 
Q 1469 391 1925 391 
Q 2381 391 2643 752 
Q 2906 1113 2906 1747 
Q 2906 2381 2643 2742 
Q 2381 3103 1925 3103 
Q 1469 3103 1208 2742 
Q 947 2381 947 1747 
z
" transform="scale(0.015625)"/>
      <path id="DejaVuSans-41" d="M 2188 4044 
L 1331 1722 
L 3047 1722 
L 2188 4044 
z
M 1831 4666 
L 2547 4666 
L 4325 0 
L 3669 0 
L 3244 1197 
L 1141 1197 
L 716 0 
L 50 0 
L 1831 4666 
z
" transform="scale(0.015625)"/>
      <path id="DejaVuSans-67" d="M 2906 1791 
Q 2906 2416 2648 2759 
Q 2391 3103 1925 3103 
Q 1463 3103 1205 2759 
Q 947 2416 947 1791 
Q 947 1169 1205 825 
Q 1463 481 1925 481 
Q 2391 481 2648 825 
Q 2906 1169 2906 1791 
z
M 3481 434 
Q 3481 -459 3084 -895 
Q 2688 -1331 1869 -1331 
Q 1566 -1331 1297 -1286 
Q 1028 -1241 775 -1147 
L 775 -588 
Q 1028 -725 1275 -790 
Q 1522 -856 1778 -856 
Q 2344 -856 2625 -561 
Q 2906 -266 2906 331 
L 2906 616 
Q 2728 306 2450 153 
Q 2172 0 1784 0 
Q 1141 0 747 490 
Q 353 981 353 1791 
Q 353 2603 747 3093 
Q 1141 3584 1784 3584 
Q 2172 3584 2450 3431 
Q 2728 3278 2906 2969 
L 2906 3500 
L 3481 3500 
L 3481 434 
z
" transform="scale(0.015625)"/>
      <path id="DejaVuSans-43" d="M 4122 4306 
L 4122 3641 
Q 3803 3938 3442 4084 
Q 3081 4231 2675 4231 
Q 1875 4231 1450 3742 
Q 1025 3253 1025 2328 
Q 1025 1406 1450 917 
Q 1875 428 2675 428 
Q 3081 428 3442 575 
Q 3803 722 4122 1019 
L 4122 359 
Q 3791 134 3420 21 
Q 3050 -91 2638 -91 
Q 1578 -91 968 557 
Q 359 1206 359 2328 
Q 359 3453 968 4101 
Q 1578 4750 2638 4750 
Q 3056 4750 3426 4639 
Q 3797 4528 4122 4306 
z
" transform="scale(0.015625)"/>
     </defs>
     <use xlink:href="#DejaVuSans-53"/>
     <use xlink:href="#DejaVuSans-69" x="63.476562"/>
     <use xlink:href="#DejaVuSans-6d" x="91.259766"/>
     <use xlink:href="#DejaVuSans-75" x="188.671875"/>
     <use xlink:href="#DejaVuSans-6c" x="252.050781"/>
     <use xlink:href="#DejaVuSans-61" x="279.833984"/>
     <use xlink:href="#DejaVuSans-74" x="341.113281"/>
     <use xlink:href="#DejaVuSans-65" x="380.322266"/>
     <use xlink:href="#DejaVuSans-64" x="441.845703"/>
     <use xlink:href="#DejaVuSans-20" x="505.322266"/>
     <use xlink:href="#DejaVuSans-41" x="537.109375"/>
     <use xlink:href="#DejaVuSans-6e" x="605.517578"/>
     <use xlink:href="#DejaVuSans-65" x="668.896484"/>
     <use xlink:href="#DejaVuSans-61" x="730.419922"/>
     <use xlink:href="#DejaVuSans-6c" x="791.699219"/>
     <use xlink:href="#DejaVuSans-6c" x="819.482422"/>
     <use xlink:href="#DejaVuSans-69" x="847.265625"/>
     <use xlink:href="#DejaVuSans-6e" x="875.048828"/>
     <use xlink:href="#DejaVuSans-67" x="938.427734"/>
     <use xlink:href="#DejaVuSans-20" x="1001.904297"/>
     <use xlink:href="#DejaVuSans-43" x="1033.691406"/>
     <use xlink:href="#DejaVuSans-6f" x="1103.515625"/>
     <use xlink:href="#DejaVuSans-73" x="1164.697266"/>
     <use xlink:href="#DejaVuSans-74" x="1216.796875"/>
    </g>
   </g>
  </g>
 </g>
 <defs>
  <clipPath id="p9bea5e8e0d">
   <rect x="57.6" y="41.472" width="357.12" height="266.112"/>
  </clipPath>
 </defs>
</svg>
