<?xml version="1.0" encoding="utf-8" standalone="no"?>
<!DOCTYPE svg PUBLIC "-//W3C//DTD SVG 1.1//EN"
  "http://www.w3.org/Graphics/SVG/1.1/DTD/svg11.dtd">
<svg xmlns:xlink="http://www.w3.org/1999/xlink" width="460.8pt" height="345.6pt" viewBox="0 0 460.8 345.6" xmlns="http://www.w3.org/2000/svg" version="1.1">
 <metadata>
  <rdf:RDF xmlns:dc="http://purl.org/dc/elements/1.1/" xmlns:cc="http://creativecommons.org/ns#" xmlns:rdf="http://www.w3.org/1999/02/22-rdf-syntax-ns#">
   <cc:Work>
    <dc:type rdf:resource="http://purl.org/dc/dcmitype/StillImage"/>
    <dc:date>2022-06-01T08:03:52.933288</dc:date>
    <dc:format>image/svg+xml</dc:format>
    <dc:creator>
     <cc:Agent>
      <dc:title>Matplotlib v3.5.1, https://matplotlib.org/</dc:title>
     </cc:Agent>
    </dc:creator>
   </cc:Work>
  </rdf:RDF>
 </metadata>
 <defs>
  <style type="text/css">*{stroke-linejoin: round; stroke-linecap: butt}</style>
 </defs>
 <g id="figure_1">
  <g id="patch_1">
   <path d="M 0 345.6 
L 460.8 345.6 
L 460.8 0 
L 0 0 
z
" style="fill: #ffffff"/>
  </g>
  <g id="axes_1">
   <g id="patch_2">
    <path d="M 57.6 307.584 
L 414.72 307.584 
L 414.72 41.472 
L 57.6 41.472 
z
" style="fill: #ffffff"/>
   </g>
   <g id="matplotlib.axis_1">
    <g id="xtick_1">
     <g id="line2d_1">
      <defs>
       <path id="m9dbe715d9d" d="M 0 0 
L 0 3.5 
" style="stroke: #000000; stroke-width: 0.8"/>
      </defs>
      <g>
       <use xlink:href="#m9dbe715d9d" x="73.832727" y="307.584" style="stroke: #000000; stroke-width: 0.8"/>
      </g>
     </g>
     <g id="text_1">
      <!-- 0 -->
      <g transform="translate(70.651477 322.182437)scale(0.1 -0.1)">
       <defs>
        <path id="DejaVuSans-30" d="M 2034 4250 
Q 1547 4250 1301 3770 
Q 1056 3291 1056 2328 
Q 1056 1369 1301 889 
Q 1547 409 2034 409 
Q 2525 409 2770 889 
Q 3016 1369 3016 2328 
Q 3016 3291 2770 3770 
Q 2525 4250 2034 4250 
z
M 2034 4750 
Q 2819 4750 3233 4129 
Q 3647 3509 3647 2328 
Q 3647 1150 3233 529 
Q 2819 -91 2034 -91 
Q 1250 -91 836 529 
Q 422 1150 422 2328 
Q 422 3509 836 4129 
Q 1250 4750 2034 4750 
z
" transform="scale(0.015625)"/>
       </defs>
       <use xlink:href="#DejaVuSans-30"/>
      </g>
     </g>
    </g>
    <g id="xtick_2">
     <g id="line2d_2">
      <g>
       <use xlink:href="#m9dbe715d9d" x="115.327429" y="307.584" style="stroke: #000000; stroke-width: 0.8"/>
      </g>
     </g>
     <g id="text_2">
      <!-- 250 -->
      <g transform="translate(105.783679 322.182437)scale(0.1 -0.1)">
       <defs>
        <path id="DejaVuSans-32" d="M 1228 531 
L 3431 531 
L 3431 0 
L 469 0 
L 469 531 
Q 828 903 1448 1529 
Q 2069 2156 2228 2338 
Q 2531 2678 2651 2914 
Q 2772 3150 2772 3378 
Q 2772 3750 2511 3984 
Q 2250 4219 1831 4219 
Q 1534 4219 1204 4116 
Q 875 4013 500 3803 
L 500 4441 
Q 881 4594 1212 4672 
Q 1544 4750 1819 4750 
Q 2544 4750 2975 4387 
Q 3406 4025 3406 3419 
Q 3406 3131 3298 2873 
Q 3191 2616 2906 2266 
Q 2828 2175 2409 1742 
Q 1991 1309 1228 531 
z
" transform="scale(0.015625)"/>
        <path id="DejaVuSans-35" d="M 691 4666 
L 3169 4666 
L 3169 4134 
L 1269 4134 
L 1269 2991 
Q 1406 3038 1543 3061 
Q 1681 3084 1819 3084 
Q 2600 3084 3056 2656 
Q 3513 2228 3513 1497 
Q 3513 744 3044 326 
Q 2575 -91 1722 -91 
Q 1428 -91 1123 -41 
Q 819 9 494 109 
L 494 744 
Q 775 591 1075 516 
Q 1375 441 1709 441 
Q 2250 441 2565 725 
Q 2881 1009 2881 1497 
Q 2881 1984 2565 2268 
Q 2250 2553 1709 2553 
Q 1456 2553 1204 2497 
Q 953 2441 691 2322 
L 691 4666 
z
" transform="scale(0.015625)"/>
       </defs>
       <use xlink:href="#DejaVuSans-32"/>
       <use xlink:href="#DejaVuSans-35" x="63.623047"/>
       <use xlink:href="#DejaVuSans-30" x="127.246094"/>
      </g>
     </g>
    </g>
    <g id="xtick_3">
     <g id="line2d_3">
      <g>
       <use xlink:href="#m9dbe715d9d" x="156.822131" y="307.584" style="stroke: #000000; stroke-width: 0.8"/>
      </g>
     </g>
     <g id="text_3">
      <!-- 500 -->
      <g transform="translate(147.278381 322.182437)scale(0.1 -0.1)">
       <use xlink:href="#DejaVuSans-35"/>
       <use xlink:href="#DejaVuSans-30" x="63.623047"/>
       <use xlink:href="#DejaVuSans-30" x="127.246094"/>
      </g>
     </g>
    </g>
    <g id="xtick_4">
     <g id="line2d_4">
      <g>
       <use xlink:href="#m9dbe715d9d" x="198.316832" y="307.584" style="stroke: #000000; stroke-width: 0.8"/>
      </g>
     </g>
     <g id="text_4">
      <!-- 750 -->
      <g transform="translate(188.773082 322.182437)scale(0.1 -0.1)">
       <defs>
        <path id="DejaVuSans-37" d="M 525 4666 
L 3525 4666 
L 3525 4397 
L 1831 0 
L 1172 0 
L 2766 4134 
L 525 4134 
L 525 4666 
z
" transform="scale(0.015625)"/>
       </defs>
       <use xlink:href="#DejaVuSans-37"/>
       <use xlink:href="#DejaVuSans-35" x="63.623047"/>
       <use xlink:href="#DejaVuSans-30" x="127.246094"/>
      </g>
     </g>
    </g>
    <g id="xtick_5">
     <g id="line2d_5">
      <g>
       <use xlink:href="#m9dbe715d9d" x="239.811534" y="307.584" style="stroke: #000000; stroke-width: 0.8"/>
      </g>
     </g>
     <g id="text_5">
      <!-- 1000 -->
      <g transform="translate(227.086534 322.182437)scale(0.1 -0.1)">
       <defs>
        <path id="DejaVuSans-31" d="M 794 531 
L 1825 531 
L 1825 4091 
L 703 3866 
L 703 4441 
L 1819 4666 
L 2450 4666 
L 2450 531 
L 3481 531 
L 3481 0 
L 794 0 
L 794 531 
z
" transform="scale(0.015625)"/>
       </defs>
       <use xlink:href="#DejaVuSans-31"/>
       <use xlink:href="#DejaVuSans-30" x="63.623047"/>
       <use xlink:href="#DejaVuSans-30" x="127.246094"/>
       <use xlink:href="#DejaVuSans-30" x="190.869141"/>
      </g>
     </g>
    </g>
    <g id="xtick_6">
     <g id="line2d_6">
      <g>
       <use xlink:href="#m9dbe715d9d" x="281.306235" y="307.584" style="stroke: #000000; stroke-width: 0.8"/>
      </g>
     </g>
     <g id="text_6">
      <!-- 1250 -->
      <g transform="translate(268.581235 322.182437)scale(0.1 -0.1)">
       <use xlink:href="#DejaVuSans-31"/>
       <use xlink:href="#DejaVuSans-32" x="63.623047"/>
       <use xlink:href="#DejaVuSans-35" x="127.246094"/>
       <use xlink:href="#DejaVuSans-30" x="190.869141"/>
      </g>
     </g>
    </g>
    <g id="xtick_7">
     <g id="line2d_7">
      <g>
       <use xlink:href="#m9dbe715d9d" x="322.800937" y="307.584" style="stroke: #000000; stroke-width: 0.8"/>
      </g>
     </g>
     <g id="text_7">
      <!-- 1500 -->
      <g transform="translate(310.075937 322.182437)scale(0.1 -0.1)">
       <use xlink:href="#DejaVuSans-31"/>
       <use xlink:href="#DejaVuSans-35" x="63.623047"/>
       <use xlink:href="#DejaVuSans-30" x="127.246094"/>
       <use xlink:href="#DejaVuSans-30" x="190.869141"/>
      </g>
     </g>
    </g>
    <g id="xtick_8">
     <g id="line2d_8">
      <g>
       <use xlink:href="#m9dbe715d9d" x="364.295639" y="307.584" style="stroke: #000000; stroke-width: 0.8"/>
      </g>
     </g>
     <g id="text_8">
      <!-- 1750 -->
      <g transform="translate(351.570639 322.182437)scale(0.1 -0.1)">
       <use xlink:href="#DejaVuSans-31"/>
       <use xlink:href="#DejaVuSans-37" x="63.623047"/>
       <use xlink:href="#DejaVuSans-35" x="127.246094"/>
       <use xlink:href="#DejaVuSans-30" x="190.869141"/>
      </g>
     </g>
    </g>
    <g id="xtick_9">
     <g id="line2d_9">
      <g>
       <use xlink:href="#m9dbe715d9d" x="405.79034" y="307.584" style="stroke: #000000; stroke-width: 0.8"/>
      </g>
     </g>
     <g id="text_9">
      <!-- 2000 -->
      <g transform="translate(393.06534 322.182437)scale(0.1 -0.1)">
       <use xlink:href="#DejaVuSans-32"/>
       <use xlink:href="#DejaVuSans-30" x="63.623047"/>
       <use xlink:href="#DejaVuSans-30" x="127.246094"/>
       <use xlink:href="#DejaVuSans-30" x="190.869141"/>
      </g>
     </g>
    </g>
    <g id="text_10">
     <!-- num swaps -->
     <g transform="translate(207.826406 335.860562)scale(0.1 -0.1)">
      <defs>
       <path id="DejaVuSans-6e" d="M 3513 2113 
L 3513 0 
L 2938 0 
L 2938 2094 
Q 2938 2591 2744 2837 
Q 2550 3084 2163 3084 
Q 1697 3084 1428 2787 
Q 1159 2491 1159 1978 
L 1159 0 
L 581 0 
L 581 3500 
L 1159 3500 
L 1159 2956 
Q 1366 3272 1645 3428 
Q 1925 3584 2291 3584 
Q 2894 3584 3203 3211 
Q 3513 2838 3513 2113 
z
" transform="scale(0.015625)"/>
       <path id="DejaVuSans-75" d="M 544 1381 
L 544 3500 
L 1119 3500 
L 1119 1403 
Q 1119 906 1312 657 
Q 1506 409 1894 409 
Q 2359 409 2629 706 
Q 2900 1003 2900 1516 
L 2900 3500 
L 3475 3500 
L 3475 0 
L 2900 0 
L 2900 538 
Q 2691 219 2414 64 
Q 2138 -91 1772 -91 
Q 1169 -91 856 284 
Q 544 659 544 1381 
z
M 1991 3584 
L 1991 3584 
z
" transform="scale(0.015625)"/>
       <path id="DejaVuSans-6d" d="M 3328 2828 
Q 3544 3216 3844 3400 
Q 4144 3584 4550 3584 
Q 5097 3584 5394 3201 
Q 5691 2819 5691 2113 
L 5691 0 
L 5113 0 
L 5113 2094 
Q 5113 2597 4934 2840 
Q 4756 3084 4391 3084 
Q 3944 3084 3684 2787 
Q 3425 2491 3425 1978 
L 3425 0 
L 2847 0 
L 2847 2094 
Q 2847 2600 2669 2842 
Q 2491 3084 2119 3084 
Q 1678 3084 1418 2786 
Q 1159 2488 1159 1978 
L 1159 0 
L 581 0 
L 581 3500 
L 1159 3500 
L 1159 2956 
Q 1356 3278 1631 3431 
Q 1906 3584 2284 3584 
Q 2666 3584 2933 3390 
Q 3200 3197 3328 2828 
z
" transform="scale(0.015625)"/>
       <path id="DejaVuSans-20" transform="scale(0.015625)"/>
       <path id="DejaVuSans-73" d="M 2834 3397 
L 2834 2853 
Q 2591 2978 2328 3040 
Q 2066 3103 1784 3103 
Q 1356 3103 1142 2972 
Q 928 2841 928 2578 
Q 928 2378 1081 2264 
Q 1234 2150 1697 2047 
L 1894 2003 
Q 2506 1872 2764 1633 
Q 3022 1394 3022 966 
Q 3022 478 2636 193 
Q 2250 -91 1575 -91 
Q 1294 -91 989 -36 
Q 684 19 347 128 
L 347 722 
Q 666 556 975 473 
Q 1284 391 1588 391 
Q 1994 391 2212 530 
Q 2431 669 2431 922 
Q 2431 1156 2273 1281 
Q 2116 1406 1581 1522 
L 1381 1569 
Q 847 1681 609 1914 
Q 372 2147 372 2553 
Q 372 3047 722 3315 
Q 1072 3584 1716 3584 
Q 2034 3584 2315 3537 
Q 2597 3491 2834 3397 
z
" transform="scale(0.015625)"/>
       <path id="DejaVuSans-77" d="M 269 3500 
L 844 3500 
L 1563 769 
L 2278 3500 
L 2956 3500 
L 3675 769 
L 4391 3500 
L 4966 3500 
L 4050 0 
L 3372 0 
L 2619 2869 
L 1863 0 
L 1184 0 
L 269 3500 
z
" transform="scale(0.015625)"/>
       <path id="DejaVuSans-61" d="M 2194 1759 
Q 1497 1759 1228 1600 
Q 959 1441 959 1056 
Q 959 750 1161 570 
Q 1363 391 1709 391 
Q 2188 391 2477 730 
Q 2766 1069 2766 1631 
L 2766 1759 
L 2194 1759 
z
M 3341 1997 
L 3341 0 
L 2766 0 
L 2766 531 
Q 2569 213 2275 61 
Q 1981 -91 1556 -91 
Q 1019 -91 701 211 
Q 384 513 384 1019 
Q 384 1609 779 1909 
Q 1175 2209 1959 2209 
L 2766 2209 
L 2766 2266 
Q 2766 2663 2505 2880 
Q 2244 3097 1772 3097 
Q 1472 3097 1187 3025 
Q 903 2953 641 2809 
L 641 3341 
Q 956 3463 1253 3523 
Q 1550 3584 1831 3584 
Q 2591 3584 2966 3190 
Q 3341 2797 3341 1997 
z
" transform="scale(0.015625)"/>
       <path id="DejaVuSans-70" d="M 1159 525 
L 1159 -1331 
L 581 -1331 
L 581 3500 
L 1159 3500 
L 1159 2969 
Q 1341 3281 1617 3432 
Q 1894 3584 2278 3584 
Q 2916 3584 3314 3078 
Q 3713 2572 3713 1747 
Q 3713 922 3314 415 
Q 2916 -91 2278 -91 
Q 1894 -91 1617 61 
Q 1341 213 1159 525 
z
M 3116 1747 
Q 3116 2381 2855 2742 
Q 2594 3103 2138 3103 
Q 1681 3103 1420 2742 
Q 1159 2381 1159 1747 
Q 1159 1113 1420 752 
Q 1681 391 2138 391 
Q 2594 391 2855 752 
Q 3116 1113 3116 1747 
z
" transform="scale(0.015625)"/>
      </defs>
      <use xlink:href="#DejaVuSans-6e"/>
      <use xlink:href="#DejaVuSans-75" x="63.378906"/>
      <use xlink:href="#DejaVuSans-6d" x="126.757812"/>
      <use xlink:href="#DejaVuSans-20" x="224.169922"/>
      <use xlink:href="#DejaVuSans-73" x="255.957031"/>
      <use xlink:href="#DejaVuSans-77" x="308.056641"/>
      <use xlink:href="#DejaVuSans-61" x="389.84375"/>
      <use xlink:href="#DejaVuSans-70" x="451.123047"/>
      <use xlink:href="#DejaVuSans-73" x="514.599609"/>
     </g>
    </g>
   </g>
   <g id="matplotlib.axis_2">
    <g id="ytick_1">
     <g id="line2d_10">
      <defs>
       <path id="m91bffd971b" d="M 0 0 
L -3.5 0 
" style="stroke: #000000; stroke-width: 0.8"/>
      </defs>
      <g>
       <use xlink:href="#m91bffd971b" x="57.6" y="281.045015" style="stroke: #000000; stroke-width: 0.8"/>
      </g>
     </g>
     <g id="text_11">
      <!-- 270 -->
      <g transform="translate(31.5125 284.844234)scale(0.1 -0.1)">
       <use xlink:href="#DejaVuSans-32"/>
       <use xlink:href="#DejaVuSans-37" x="63.623047"/>
       <use xlink:href="#DejaVuSans-30" x="127.246094"/>
      </g>
     </g>
    </g>
    <g id="ytick_2">
     <g id="line2d_11">
      <g>
       <use xlink:href="#m91bffd971b" x="57.6" y="244.937552" style="stroke: #000000; stroke-width: 0.8"/>
      </g>
     </g>
     <g id="text_12">
      <!-- 280 -->
      <g transform="translate(31.5125 248.736771)scale(0.1 -0.1)">
       <defs>
        <path id="DejaVuSans-38" d="M 2034 2216 
Q 1584 2216 1326 1975 
Q 1069 1734 1069 1313 
Q 1069 891 1326 650 
Q 1584 409 2034 409 
Q 2484 409 2743 651 
Q 3003 894 3003 1313 
Q 3003 1734 2745 1975 
Q 2488 2216 2034 2216 
z
M 1403 2484 
Q 997 2584 770 2862 
Q 544 3141 544 3541 
Q 544 4100 942 4425 
Q 1341 4750 2034 4750 
Q 2731 4750 3128 4425 
Q 3525 4100 3525 3541 
Q 3525 3141 3298 2862 
Q 3072 2584 2669 2484 
Q 3125 2378 3379 2068 
Q 3634 1759 3634 1313 
Q 3634 634 3220 271 
Q 2806 -91 2034 -91 
Q 1263 -91 848 271 
Q 434 634 434 1313 
Q 434 1759 690 2068 
Q 947 2378 1403 2484 
z
M 1172 3481 
Q 1172 3119 1398 2916 
Q 1625 2713 2034 2713 
Q 2441 2713 2670 2916 
Q 2900 3119 2900 3481 
Q 2900 3844 2670 4047 
Q 2441 4250 2034 4250 
Q 1625 4250 1398 4047 
Q 1172 3844 1172 3481 
z
" transform="scale(0.015625)"/>
       </defs>
       <use xlink:href="#DejaVuSans-32"/>
       <use xlink:href="#DejaVuSans-38" x="63.623047"/>
       <use xlink:href="#DejaVuSans-30" x="127.246094"/>
      </g>
     </g>
    </g>
    <g id="ytick_3">
     <g id="line2d_12">
      <g>
       <use xlink:href="#m91bffd971b" x="57.6" y="208.83009" style="stroke: #000000; stroke-width: 0.8"/>
      </g>
     </g>
     <g id="text_13">
      <!-- 290 -->
      <g transform="translate(31.5125 212.629308)scale(0.1 -0.1)">
       <defs>
        <path id="DejaVuSans-39" d="M 703 97 
L 703 672 
Q 941 559 1184 500 
Q 1428 441 1663 441 
Q 2288 441 2617 861 
Q 2947 1281 2994 2138 
Q 2813 1869 2534 1725 
Q 2256 1581 1919 1581 
Q 1219 1581 811 2004 
Q 403 2428 403 3163 
Q 403 3881 828 4315 
Q 1253 4750 1959 4750 
Q 2769 4750 3195 4129 
Q 3622 3509 3622 2328 
Q 3622 1225 3098 567 
Q 2575 -91 1691 -91 
Q 1453 -91 1209 -44 
Q 966 3 703 97 
z
M 1959 2075 
Q 2384 2075 2632 2365 
Q 2881 2656 2881 3163 
Q 2881 3666 2632 3958 
Q 2384 4250 1959 4250 
Q 1534 4250 1286 3958 
Q 1038 3666 1038 3163 
Q 1038 2656 1286 2365 
Q 1534 2075 1959 2075 
z
" transform="scale(0.015625)"/>
       </defs>
       <use xlink:href="#DejaVuSans-32"/>
       <use xlink:href="#DejaVuSans-39" x="63.623047"/>
       <use xlink:href="#DejaVuSans-30" x="127.246094"/>
      </g>
     </g>
    </g>
    <g id="ytick_4">
     <g id="line2d_13">
      <g>
       <use xlink:href="#m91bffd971b" x="57.6" y="172.722627" style="stroke: #000000; stroke-width: 0.8"/>
      </g>
     </g>
     <g id="text_14">
      <!-- 300 -->
      <g transform="translate(31.5125 176.521846)scale(0.1 -0.1)">
       <defs>
        <path id="DejaVuSans-33" d="M 2597 2516 
Q 3050 2419 3304 2112 
Q 3559 1806 3559 1356 
Q 3559 666 3084 287 
Q 2609 -91 1734 -91 
Q 1441 -91 1130 -33 
Q 819 25 488 141 
L 488 750 
Q 750 597 1062 519 
Q 1375 441 1716 441 
Q 2309 441 2620 675 
Q 2931 909 2931 1356 
Q 2931 1769 2642 2001 
Q 2353 2234 1838 2234 
L 1294 2234 
L 1294 2753 
L 1863 2753 
Q 2328 2753 2575 2939 
Q 2822 3125 2822 3475 
Q 2822 3834 2567 4026 
Q 2313 4219 1838 4219 
Q 1578 4219 1281 4162 
Q 984 4106 628 3988 
L 628 4550 
Q 988 4650 1302 4700 
Q 1616 4750 1894 4750 
Q 2613 4750 3031 4423 
Q 3450 4097 3450 3541 
Q 3450 3153 3228 2886 
Q 3006 2619 2597 2516 
z
" transform="scale(0.015625)"/>
       </defs>
       <use xlink:href="#DejaVuSans-33"/>
       <use xlink:href="#DejaVuSans-30" x="63.623047"/>
       <use xlink:href="#DejaVuSans-30" x="127.246094"/>
      </g>
     </g>
    </g>
    <g id="ytick_5">
     <g id="line2d_14">
      <g>
       <use xlink:href="#m91bffd971b" x="57.6" y="136.615164" style="stroke: #000000; stroke-width: 0.8"/>
      </g>
     </g>
     <g id="text_15">
      <!-- 310 -->
      <g transform="translate(31.5125 140.414383)scale(0.1 -0.1)">
       <use xlink:href="#DejaVuSans-33"/>
       <use xlink:href="#DejaVuSans-31" x="63.623047"/>
       <use xlink:href="#DejaVuSans-30" x="127.246094"/>
      </g>
     </g>
    </g>
    <g id="ytick_6">
     <g id="line2d_15">
      <g>
       <use xlink:href="#m91bffd971b" x="57.6" y="100.507701" style="stroke: #000000; stroke-width: 0.8"/>
      </g>
     </g>
     <g id="text_16">
      <!-- 320 -->
      <g transform="translate(31.5125 104.30692)scale(0.1 -0.1)">
       <use xlink:href="#DejaVuSans-33"/>
       <use xlink:href="#DejaVuSans-32" x="63.623047"/>
       <use xlink:href="#DejaVuSans-30" x="127.246094"/>
      </g>
     </g>
    </g>
    <g id="ytick_7">
     <g id="line2d_16">
      <g>
       <use xlink:href="#m91bffd971b" x="57.6" y="64.400239" style="stroke: #000000; stroke-width: 0.8"/>
      </g>
     </g>
     <g id="text_17">
      <!-- 330 -->
      <g transform="translate(31.5125 68.199458)scale(0.1 -0.1)">
       <use xlink:href="#DejaVuSans-33"/>
       <use xlink:href="#DejaVuSans-33" x="63.623047"/>
       <use xlink:href="#DejaVuSans-30" x="127.246094"/>
      </g>
     </g>
    </g>
    <g id="text_18">
     <!-- total cost -->
     <g transform="translate(25.432812 197.923313)rotate(-90)scale(0.1 -0.1)">
      <defs>
       <path id="DejaVuSans-74" d="M 1172 4494 
L 1172 3500 
L 2356 3500 
L 2356 3053 
L 1172 3053 
L 1172 1153 
Q 1172 725 1289 603 
Q 1406 481 1766 481 
L 2356 481 
L 2356 0 
L 1766 0 
Q 1100 0 847 248 
Q 594 497 594 1153 
L 594 3053 
L 172 3053 
L 172 3500 
L 594 3500 
L 594 4494 
L 1172 4494 
z
" transform="scale(0.015625)"/>
       <path id="DejaVuSans-6f" d="M 1959 3097 
Q 1497 3097 1228 2736 
Q 959 2375 959 1747 
Q 959 1119 1226 758 
Q 1494 397 1959 397 
Q 2419 397 2687 759 
Q 2956 1122 2956 1747 
Q 2956 2369 2687 2733 
Q 2419 3097 1959 3097 
z
M 1959 3584 
Q 2709 3584 3137 3096 
Q 3566 2609 3566 1747 
Q 3566 888 3137 398 
Q 2709 -91 1959 -91 
Q 1206 -91 779 398 
Q 353 888 353 1747 
Q 353 2609 779 3096 
Q 1206 3584 1959 3584 
z
" transform="scale(0.015625)"/>
       <path id="DejaVuSans-6c" d="M 603 4863 
L 1178 4863 
L 1178 0 
L 603 0 
L 603 4863 
z
" transform="scale(0.015625)"/>
       <path id="DejaVuSans-63" d="M 3122 3366 
L 3122 2828 
Q 2878 2963 2633 3030 
Q 2388 3097 2138 3097 
Q 1578 3097 1268 2742 
Q 959 2388 959 1747 
Q 959 1106 1268 751 
Q 1578 397 2138 397 
Q 2388 397 2633 464 
Q 2878 531 3122 666 
L 3122 134 
Q 2881 22 2623 -34 
Q 2366 -91 2075 -91 
Q 1284 -91 818 406 
Q 353 903 353 1747 
Q 353 2603 823 3093 
Q 1294 3584 2113 3584 
Q 2378 3584 2631 3529 
Q 2884 3475 3122 3366 
z
" transform="scale(0.015625)"/>
      </defs>
      <use xlink:href="#DejaVuSans-74"/>
      <use xlink:href="#DejaVuSans-6f" x="39.208984"/>
      <use xlink:href="#DejaVuSans-74" x="100.390625"/>
      <use xlink:href="#DejaVuSans-61" x="139.599609"/>
      <use xlink:href="#DejaVuSans-6c" x="200.878906"/>
      <use xlink:href="#DejaVuSans-20" x="228.662109"/>
      <use xlink:href="#DejaVuSans-63" x="260.449219"/>
      <use xlink:href="#DejaVuSans-6f" x="315.429688"/>
      <use xlink:href="#DejaVuSans-73" x="376.611328"/>
      <use xlink:href="#DejaVuSans-74" x="428.710938"/>
     </g>
    </g>
   </g>
   <g id="line2d_17">
    <path d="M 73.832727 136.615164 
L 74.164685 133.004418 
L 74.496642 158.279642 
L 74.8286 169.111881 
L 75.160558 96.896955 
L 75.492515 82.45397 
L 75.824473 165.501134 
L 76.156431 179.944119 
L 76.488388 201.608597 
L 76.820346 201.608597 
L 77.152303 190.776358 
L 77.484261 194.387104 
L 78.148176 176.333373 
L 78.480134 194.387104 
L 78.812091 183.554866 
L 79.144049 216.051582 
L 79.476007 212.440836 
L 80.139922 176.333373 
L 80.47188 208.83009 
L 80.803837 201.608597 
L 81.135795 205.219343 
L 81.467752 183.554866 
L 81.79971 172.722627 
L 82.131668 169.111881 
L 82.463625 172.722627 
L 82.795583 169.111881 
L 83.12754 194.387104 
L 83.459498 176.333373 
L 83.791456 187.165612 
L 84.123413 176.333373 
L 84.455371 176.333373 
L 84.787328 161.890388 
L 85.119286 190.776358 
L 85.451244 161.890388 
L 86.115159 194.387104 
L 86.447117 212.440836 
L 86.779074 223.273075 
L 87.111032 216.051582 
L 87.442989 205.219343 
L 88.106905 237.71606 
L 88.438862 259.380537 
L 88.77082 219.662328 
L 89.102777 212.440836 
L 89.434735 187.165612 
L 89.766693 183.554866 
L 90.09865 161.890388 
L 90.762566 136.615164 
L 91.094523 143.836657 
L 91.426481 183.554866 
L 91.758438 205.219343 
L 92.090396 208.83009 
L 92.422354 219.662328 
L 92.754311 223.273075 
L 93.418226 187.165612 
L 93.750184 197.997851 
L 94.082142 190.776358 
L 94.414099 143.836657 
L 94.746057 183.554866 
L 95.078015 179.944119 
L 95.409972 197.997851 
L 95.74193 179.944119 
L 96.073887 176.333373 
L 96.405845 194.387104 
L 96.737803 158.279642 
L 97.06976 165.501134 
L 98.065633 201.608597 
L 98.397591 223.273075 
L 98.729548 219.662328 
L 99.061506 201.608597 
L 99.393463 248.548299 
L 99.725421 262.991284 
L 100.057379 255.769791 
L 100.389336 201.608597 
L 100.721294 183.554866 
L 101.053252 190.776358 
L 101.385209 201.608597 
L 102.049124 201.608597 
L 102.381082 187.165612 
L 102.71304 179.944119 
L 103.044997 104.118448 
L 103.376955 122.172179 
L 103.708912 114.950687 
L 104.04087 165.501134 
L 104.372828 151.058149 
L 104.704785 161.890388 
L 105.036743 179.944119 
L 105.368701 187.165612 
L 105.700658 161.890388 
L 106.032616 183.554866 
L 106.696531 205.219343 
L 107.028489 205.219343 
L 107.360446 197.997851 
L 107.692404 201.608597 
L 108.024361 201.608597 
L 108.356319 226.883821 
L 108.688277 197.997851 
L 109.020234 190.776358 
L 109.352192 190.776358 
L 109.684149 205.219343 
L 110.016107 194.387104 
L 110.348065 190.776358 
L 110.680022 194.387104 
L 111.01198 179.944119 
L 111.343938 194.387104 
L 111.675895 194.387104 
L 112.007853 179.944119 
L 112.33981 179.944119 
L 113.003726 172.722627 
L 113.335683 165.501134 
L 113.999598 201.608597 
L 114.331556 216.051582 
L 114.663514 194.387104 
L 114.995471 208.83009 
L 115.327429 197.997851 
L 115.991344 165.501134 
L 116.323302 169.111881 
L 116.655259 161.890388 
L 117.319175 133.004418 
L 117.651132 129.393672 
L 117.98309 133.004418 
L 118.315047 133.004418 
L 118.647005 118.561433 
L 118.978963 133.004418 
L 119.31092 104.118448 
L 119.642878 93.286209 
L 120.306793 53.568 
L 120.638751 68.010985 
L 120.970708 68.010985 
L 121.302666 86.064716 
L 121.634624 118.561433 
L 121.966581 111.33994 
L 122.298539 183.554866 
L 122.630496 190.776358 
L 122.962454 179.944119 
L 123.294412 151.058149 
L 123.626369 161.890388 
L 123.958327 165.501134 
L 124.290284 161.890388 
L 124.622242 161.890388 
L 124.9542 143.836657 
L 125.286157 143.836657 
L 125.618115 140.22591 
L 125.950073 118.561433 
L 126.28203 122.172179 
L 126.945945 93.286209 
L 127.277903 125.782925 
L 127.941818 151.058149 
L 128.273776 136.615164 
L 128.937691 197.997851 
L 129.269649 190.776358 
L 129.601606 205.219343 
L 129.933564 187.165612 
L 130.597479 187.165612 
L 130.929437 183.554866 
L 131.261394 158.279642 
L 131.593352 194.387104 
L 131.92531 183.554866 
L 132.257267 165.501134 
L 132.589225 129.393672 
L 132.921182 169.111881 
L 133.25314 165.501134 
L 133.585098 165.501134 
L 133.917055 183.554866 
L 134.249013 179.944119 
L 134.912928 122.172179 
L 135.244886 140.22591 
L 135.576843 111.33994 
L 135.908801 104.118448 
L 136.240759 86.064716 
L 136.572716 86.064716 
L 136.904674 118.561433 
L 137.568589 133.004418 
L 137.900547 136.615164 
L 138.232504 147.447403 
L 138.564462 147.447403 
L 138.896419 133.004418 
L 139.228377 154.668896 
L 139.560335 161.890388 
L 139.892292 154.668896 
L 140.22425 140.22591 
L 140.556207 133.004418 
L 140.888165 129.393672 
L 141.55208 212.440836 
L 141.884038 176.333373 
L 142.215996 187.165612 
L 142.547953 183.554866 
L 142.879911 158.279642 
L 143.211868 154.668896 
L 143.543826 147.447403 
L 143.875784 161.890388 
L 144.207741 133.004418 
L 144.539699 143.836657 
L 144.871656 143.836657 
L 145.203614 151.058149 
L 145.535572 143.836657 
L 145.867529 147.447403 
L 146.199487 187.165612 
L 146.531445 190.776358 
L 146.863402 187.165612 
L 147.19536 165.501134 
L 147.859275 197.997851 
L 148.191233 161.890388 
L 148.52319 172.722627 
L 148.855148 176.333373 
L 149.187105 165.501134 
L 149.519063 161.890388 
L 149.851021 179.944119 
L 150.182978 169.111881 
L 150.514936 147.447403 
L 150.846893 140.22591 
L 151.178851 165.501134 
L 151.510809 205.219343 
L 151.842766 208.83009 
L 152.174724 176.333373 
L 152.506682 187.165612 
L 152.838639 205.219343 
L 153.170597 237.71606 
L 153.502554 244.937552 
L 153.834512 205.219343 
L 154.498427 212.440836 
L 154.830385 179.944119 
L 155.162342 161.890388 
L 155.4943 165.501134 
L 155.826258 158.279642 
L 156.490173 158.279642 
L 156.822131 122.172179 
L 157.154088 107.729194 
L 157.486046 122.172179 
L 157.818003 169.111881 
L 158.481919 187.165612 
L 158.813876 161.890388 
L 159.145834 187.165612 
L 160.805622 151.058149 
L 161.469537 169.111881 
L 161.801495 125.782925 
L 162.46541 133.004418 
L 162.797368 187.165612 
L 163.129325 197.997851 
L 163.461283 136.615164 
L 163.79324 104.118448 
L 164.125198 86.064716 
L 164.457156 82.45397 
L 164.789113 89.675463 
L 165.121071 136.615164 
L 165.453028 151.058149 
L 165.784986 176.333373 
L 166.116944 161.890388 
L 166.448901 179.944119 
L 166.780859 158.279642 
L 167.112817 194.387104 
L 167.444774 154.668896 
L 167.776732 154.668896 
L 168.108689 187.165612 
L 168.440647 187.165612 
L 168.772605 201.608597 
L 169.43652 176.333373 
L 169.768477 143.836657 
L 170.100435 154.668896 
L 170.432393 147.447403 
L 170.76435 179.944119 
L 171.096308 183.554866 
L 171.428265 201.608597 
L 171.760223 197.997851 
L 172.092181 183.554866 
L 172.756096 140.22591 
L 173.088054 140.22591 
L 173.420011 158.279642 
L 174.083926 158.279642 
L 175.079799 147.447403 
L 175.411757 154.668896 
L 175.743714 205.219343 
L 176.075672 197.997851 
L 176.40763 208.83009 
L 176.739587 201.608597 
L 177.071545 169.111881 
L 177.73546 212.440836 
L 178.399375 230.494567 
L 178.731333 237.71606 
L 179.063291 219.662328 
L 179.395248 208.83009 
L 179.727206 252.159045 
L 180.059163 216.051582 
L 180.391121 223.273075 
L 181.055036 252.159045 
L 181.386994 234.105313 
L 181.718951 223.273075 
L 182.050909 241.326806 
L 182.382867 205.219343 
L 182.714824 208.83009 
L 183.046782 201.608597 
L 183.37874 237.71606 
L 183.710697 255.769791 
L 184.042655 244.937552 
L 184.374612 212.440836 
L 185.038528 234.105313 
L 185.370485 262.991284 
L 185.702443 262.991284 
L 186.0344 284.655761 
L 186.698316 234.105313 
L 187.030273 208.83009 
L 187.362231 172.722627 
L 187.694189 176.333373 
L 188.026146 176.333373 
L 188.358104 169.111881 
L 188.690061 151.058149 
L 189.022019 147.447403 
L 189.353977 179.944119 
L 189.685934 187.165612 
L 190.017892 187.165612 
L 190.681807 179.944119 
L 191.013765 179.944119 
L 191.345722 183.554866 
L 191.67768 216.051582 
L 192.009637 197.997851 
L 192.341595 205.219343 
L 192.673553 234.105313 
L 193.00551 230.494567 
L 193.337468 244.937552 
L 193.669426 237.71606 
L 194.001383 201.608597 
L 194.665298 252.159045 
L 194.997256 205.219343 
L 195.329214 197.997851 
L 195.993129 165.501134 
L 196.657044 208.83009 
L 196.989002 208.83009 
L 197.320959 216.051582 
L 197.652917 219.662328 
L 197.984875 219.662328 
L 198.316832 212.440836 
L 198.64879 226.883821 
L 198.980747 234.105313 
L 199.312705 223.273075 
L 199.644663 226.883821 
L 199.97662 226.883821 
L 200.308578 201.608597 
L 200.640535 194.387104 
L 200.972493 194.387104 
L 201.304451 179.944119 
L 201.636408 179.944119 
L 201.968366 205.219343 
L 202.300323 201.608597 
L 202.632281 179.944119 
L 202.964239 194.387104 
L 203.296196 176.333373 
L 203.628154 183.554866 
L 203.960112 216.051582 
L 204.292069 219.662328 
L 204.624027 248.548299 
L 204.955984 244.937552 
L 205.6199 161.890388 
L 205.951857 165.501134 
L 206.283815 230.494567 
L 206.615772 230.494567 
L 206.94773 205.219343 
L 207.279688 197.997851 
L 207.611645 179.944119 
L 207.943603 190.776358 
L 208.275561 165.501134 
L 208.607518 158.279642 
L 208.939476 176.333373 
L 209.271433 165.501134 
L 209.603391 176.333373 
L 209.935349 154.668896 
L 210.267306 107.729194 
L 210.599264 151.058149 
L 210.931221 161.890388 
L 211.263179 154.668896 
L 211.595137 114.950687 
L 211.927094 129.393672 
L 212.259052 125.782925 
L 212.922967 100.507701 
L 213.254925 100.507701 
L 213.586882 96.896955 
L 213.91884 104.118448 
L 214.250798 114.950687 
L 214.582755 107.729194 
L 214.914713 133.004418 
L 215.24667 172.722627 
L 215.578628 176.333373 
L 215.910586 154.668896 
L 216.242543 187.165612 
L 216.574501 172.722627 
L 216.906458 147.447403 
L 217.238416 169.111881 
L 217.570374 208.83009 
L 217.902331 208.83009 
L 218.234289 172.722627 
L 218.566247 169.111881 
L 219.230162 216.051582 
L 219.562119 216.051582 
L 219.894077 208.83009 
L 220.226035 194.387104 
L 220.557992 212.440836 
L 221.221907 230.494567 
L 221.553865 201.608597 
L 221.885823 194.387104 
L 222.21778 216.051582 
L 222.549738 161.890388 
L 222.881695 154.668896 
L 223.213653 169.111881 
L 223.545611 154.668896 
L 223.877568 165.501134 
L 224.209526 154.668896 
L 224.873441 197.997851 
L 225.205399 187.165612 
L 225.537356 140.22591 
L 225.869314 169.111881 
L 226.201272 140.22591 
L 226.533229 133.004418 
L 226.865187 140.22591 
L 227.197144 158.279642 
L 227.529102 158.279642 
L 227.86106 183.554866 
L 228.193017 179.944119 
L 228.524975 187.165612 
L 228.856933 176.333373 
L 229.18889 172.722627 
L 229.520848 179.944119 
L 229.852805 190.776358 
L 230.516721 190.776358 
L 230.848678 179.944119 
L 231.512593 194.387104 
L 231.844551 197.997851 
L 232.176509 216.051582 
L 232.840424 197.997851 
L 233.172381 208.83009 
L 233.504339 208.83009 
L 233.836297 197.997851 
L 234.500212 255.769791 
L 234.83217 255.769791 
L 235.164127 223.273075 
L 235.496085 223.273075 
L 235.828042 241.326806 
L 236.16 237.71606 
L 236.491958 223.273075 
L 236.823915 230.494567 
L 237.155873 208.83009 
L 237.48783 234.105313 
L 237.819788 226.883821 
L 238.151746 197.997851 
L 238.483703 197.997851 
L 239.147619 176.333373 
L 239.479576 187.165612 
L 239.811534 190.776358 
L 240.143491 183.554866 
L 240.475449 172.722627 
L 241.139364 165.501134 
L 241.471322 158.279642 
L 241.803279 165.501134 
L 242.135237 140.22591 
L 242.467195 169.111881 
L 242.799152 179.944119 
L 243.463067 212.440836 
L 244.126983 143.836657 
L 244.45894 136.615164 
L 244.790898 136.615164 
L 245.122856 143.836657 
L 245.454813 147.447403 
L 245.786771 165.501134 
L 246.118728 176.333373 
L 246.450686 169.111881 
L 246.782644 169.111881 
L 247.114601 133.004418 
L 247.446559 122.172179 
L 247.778516 154.668896 
L 248.110474 151.058149 
L 248.442432 172.722627 
L 248.774389 154.668896 
L 249.106347 161.890388 
L 249.438305 143.836657 
L 249.770262 133.004418 
L 250.10222 161.890388 
L 250.434177 140.22591 
L 250.766135 197.997851 
L 251.098093 169.111881 
L 251.43005 169.111881 
L 251.762008 165.501134 
L 252.093965 151.058149 
L 252.425923 172.722627 
L 252.757881 172.722627 
L 253.089838 169.111881 
L 254.085711 179.944119 
L 254.417669 194.387104 
L 254.749626 241.326806 
L 255.081584 183.554866 
L 255.413542 234.105313 
L 255.745499 237.71606 
L 256.077457 248.548299 
L 256.409414 237.71606 
L 256.741372 241.326806 
L 257.07333 255.769791 
L 257.405287 284.655761 
L 257.737245 262.991284 
L 258.069202 252.159045 
L 258.40116 212.440836 
L 258.733118 212.440836 
L 259.065075 216.051582 
L 259.397033 226.883821 
L 259.728991 219.662328 
L 260.060948 237.71606 
L 260.392906 241.326806 
L 260.724863 212.440836 
L 261.056821 216.051582 
L 261.388779 216.051582 
L 261.720736 223.273075 
L 262.052694 197.997851 
L 262.384651 201.608597 
L 262.716609 190.776358 
L 263.048567 187.165612 
L 263.380524 179.944119 
L 263.712482 212.440836 
L 264.044439 165.501134 
L 264.376397 158.279642 
L 264.708355 129.393672 
L 265.040312 140.22591 
L 265.37227 176.333373 
L 265.704228 158.279642 
L 266.036185 176.333373 
L 266.368143 172.722627 
L 266.7001 183.554866 
L 267.032058 169.111881 
L 267.364016 201.608597 
L 267.695973 197.997851 
L 268.359888 237.71606 
L 268.691846 216.051582 
L 269.023804 212.440836 
L 269.355761 205.219343 
L 269.687719 219.662328 
L 270.019677 223.273075 
L 270.351634 230.494567 
L 270.683592 241.326806 
L 271.015549 241.326806 
L 271.347507 223.273075 
L 271.679465 241.326806 
L 272.011422 244.937552 
L 272.34338 237.71606 
L 272.675337 234.105313 
L 273.339253 234.105313 
L 273.67121 223.273075 
L 274.003168 219.662328 
L 274.335125 223.273075 
L 274.667083 208.83009 
L 274.999041 208.83009 
L 275.330998 230.494567 
L 275.662956 216.051582 
L 275.994914 226.883821 
L 276.326871 197.997851 
L 276.658829 223.273075 
L 276.990786 197.997851 
L 277.322744 205.219343 
L 277.654702 201.608597 
L 277.986659 201.608597 
L 278.318617 197.997851 
L 278.650574 216.051582 
L 278.982532 208.83009 
L 279.646447 187.165612 
L 279.978405 151.058149 
L 280.310363 172.722627 
L 280.974278 154.668896 
L 281.306235 172.722627 
L 281.638193 179.944119 
L 281.970151 161.890388 
L 282.302108 151.058149 
L 282.634066 172.722627 
L 282.966023 169.111881 
L 283.297981 172.722627 
L 283.629939 201.608597 
L 283.961896 201.608597 
L 284.293854 216.051582 
L 284.625811 205.219343 
L 284.957769 216.051582 
L 285.289727 241.326806 
L 285.621684 252.159045 
L 285.953642 237.71606 
L 286.2856 197.997851 
L 286.949515 205.219343 
L 287.281472 197.997851 
L 287.61343 201.608597 
L 288.277345 176.333373 
L 288.609303 147.447403 
L 288.94126 89.675463 
L 289.273218 147.447403 
L 289.605176 147.447403 
L 289.937133 114.950687 
L 290.601049 133.004418 
L 290.933006 136.615164 
L 291.264964 136.615164 
L 291.596921 154.668896 
L 291.928879 122.172179 
L 292.260837 136.615164 
L 292.592794 143.836657 
L 292.924752 176.333373 
L 293.256709 169.111881 
L 294.252582 158.279642 
L 294.58454 194.387104 
L 294.916497 165.501134 
L 295.248455 165.501134 
L 295.580413 147.447403 
L 295.91237 172.722627 
L 296.244328 187.165612 
L 297.904116 133.004418 
L 298.236074 143.836657 
L 298.568031 179.944119 
L 298.899989 179.944119 
L 299.895862 223.273075 
L 300.227819 212.440836 
L 300.559777 230.494567 
L 300.891735 262.991284 
L 301.223692 259.380537 
L 301.55565 208.83009 
L 301.887607 183.554866 
L 302.219565 197.997851 
L 302.551523 226.883821 
L 302.88348 179.944119 
L 303.547395 194.387104 
L 303.879353 179.944119 
L 304.211311 208.83009 
L 304.543268 262.991284 
L 304.875226 241.326806 
L 305.207183 259.380537 
L 305.539141 248.548299 
L 305.871099 259.380537 
L 306.535014 172.722627 
L 306.866972 169.111881 
L 307.198929 169.111881 
L 307.530887 172.722627 
L 307.862844 158.279642 
L 308.194802 165.501134 
L 308.52676 147.447403 
L 309.522632 125.782925 
L 309.85459 169.111881 
L 310.186548 165.501134 
L 310.518505 176.333373 
L 310.850463 172.722627 
L 311.182421 161.890388 
L 311.514378 161.890388 
L 311.846336 154.668896 
L 312.178293 140.22591 
L 312.510251 147.447403 
L 312.842209 161.890388 
L 313.174166 169.111881 
L 313.506124 187.165612 
L 313.838081 194.387104 
L 314.170039 169.111881 
L 314.501997 179.944119 
L 314.833954 158.279642 
L 315.497869 208.83009 
L 315.829827 208.83009 
L 316.161785 216.051582 
L 316.493742 219.662328 
L 316.8257 205.219343 
L 317.157658 176.333373 
L 317.489615 176.333373 
L 317.821573 172.722627 
L 318.15353 172.722627 
L 318.817446 133.004418 
L 319.149403 136.615164 
L 319.481361 183.554866 
L 319.813318 161.890388 
L 320.145276 172.722627 
L 320.477234 194.387104 
L 320.809191 187.165612 
L 321.141149 129.393672 
L 321.473107 154.668896 
L 321.805064 165.501134 
L 322.137022 158.279642 
L 322.468979 169.111881 
L 322.800937 158.279642 
L 323.132895 158.279642 
L 323.79681 172.722627 
L 324.128767 143.836657 
L 324.460725 147.447403 
L 324.792683 93.286209 
L 325.12464 89.675463 
L 326.120513 125.782925 
L 326.452471 118.561433 
L 326.784428 176.333373 
L 327.116386 172.722627 
L 327.448344 179.944119 
L 327.780301 219.662328 
L 328.444216 205.219343 
L 328.776174 205.219343 
L 329.108132 212.440836 
L 329.772047 212.440836 
L 330.104004 187.165612 
L 330.435962 176.333373 
L 330.76792 244.937552 
L 331.099877 248.548299 
L 331.431835 205.219343 
L 331.763793 241.326806 
L 332.09575 241.326806 
L 332.427708 212.440836 
L 332.759665 172.722627 
L 333.091623 183.554866 
L 333.423581 161.890388 
L 333.755538 172.722627 
L 334.087496 158.279642 
L 334.419453 161.890388 
L 334.751411 154.668896 
L 335.083369 176.333373 
L 335.415326 219.662328 
L 335.747284 241.326806 
L 336.079241 230.494567 
L 336.411199 237.71606 
L 336.743157 234.105313 
L 337.407072 216.051582 
L 337.73903 179.944119 
L 338.402945 237.71606 
L 338.734902 201.608597 
L 339.06686 190.776358 
L 339.398818 226.883821 
L 339.730775 234.105313 
L 340.062733 234.105313 
L 340.39469 237.71606 
L 340.726648 208.83009 
L 341.058606 216.051582 
L 341.390563 201.608597 
L 341.722521 197.997851 
L 342.386436 234.105313 
L 342.718394 234.105313 
L 343.050351 216.051582 
L 343.382309 223.273075 
L 343.714267 223.273075 
L 344.046224 165.501134 
L 344.378182 172.722627 
L 344.710139 172.722627 
L 345.042097 154.668896 
L 345.374055 176.333373 
L 345.706012 187.165612 
L 346.03797 165.501134 
L 346.369927 179.944119 
L 346.701885 179.944119 
L 347.033843 205.219343 
L 347.3658 219.662328 
L 347.697758 273.823522 
L 348.029716 270.212776 
L 348.361673 288.266507 
L 348.693631 295.488 
L 349.025588 270.212776 
L 349.689504 277.434269 
L 350.021461 291.877254 
L 350.353419 277.434269 
L 350.685376 277.434269 
L 351.017334 270.212776 
L 351.349292 270.212776 
L 352.013207 255.769791 
L 352.345165 223.273075 
L 352.677122 216.051582 
L 353.00908 197.997851 
L 353.341037 201.608597 
L 353.672995 208.83009 
L 354.004953 183.554866 
L 354.33691 179.944119 
L 354.668868 197.997851 
L 355.000825 154.668896 
L 355.332783 151.058149 
L 355.664741 194.387104 
L 356.660613 234.105313 
L 356.992571 212.440836 
L 357.324529 208.83009 
L 357.656486 190.776358 
L 357.988444 179.944119 
L 358.320402 183.554866 
L 358.652359 216.051582 
L 358.984317 216.051582 
L 359.316274 208.83009 
L 359.648232 179.944119 
L 359.98019 176.333373 
L 360.312147 176.333373 
L 360.644105 147.447403 
L 360.976062 179.944119 
L 361.30802 179.944119 
L 361.639978 165.501134 
L 361.971935 169.111881 
L 362.303893 176.333373 
L 362.635851 201.608597 
L 362.967808 208.83009 
L 363.299766 244.937552 
L 363.963681 237.71606 
L 364.295639 205.219343 
L 364.627596 219.662328 
L 365.291511 194.387104 
L 365.955427 179.944119 
L 366.287384 179.944119 
L 366.619342 187.165612 
L 366.951299 187.165612 
L 367.283257 183.554866 
L 367.615215 201.608597 
L 367.947172 194.387104 
L 368.27913 219.662328 
L 368.943045 172.722627 
L 369.275003 176.333373 
L 369.938918 161.890388 
L 370.270876 190.776358 
L 370.602833 183.554866 
L 370.934791 194.387104 
L 371.266748 179.944119 
L 372.262621 201.608597 
L 372.594579 201.608597 
L 373.590452 122.172179 
L 373.922409 151.058149 
L 374.254367 143.836657 
L 374.586325 158.279642 
L 374.918282 158.279642 
L 375.582197 143.836657 
L 375.914155 129.393672 
L 376.246113 143.836657 
L 376.57807 151.058149 
L 376.910028 140.22591 
L 377.241985 169.111881 
L 377.573943 161.890388 
L 377.905901 187.165612 
L 378.237858 169.111881 
L 378.569816 183.554866 
L 378.901774 212.440836 
L 379.233731 165.501134 
L 379.565689 187.165612 
L 379.897646 161.890388 
L 380.229604 161.890388 
L 380.561562 154.668896 
L 380.893519 154.668896 
L 381.225477 147.447403 
L 381.557434 176.333373 
L 381.889392 169.111881 
L 382.22135 165.501134 
L 382.553307 169.111881 
L 382.885265 212.440836 
L 383.217223 205.219343 
L 383.54918 219.662328 
L 383.881138 205.219343 
L 384.213095 226.883821 
L 384.545053 205.219343 
L 385.208968 230.494567 
L 385.872883 190.776358 
L 386.204841 205.219343 
L 386.536799 187.165612 
L 386.868756 190.776358 
L 387.200714 187.165612 
L 387.532672 190.776358 
L 387.864629 183.554866 
L 388.196587 219.662328 
L 388.528544 237.71606 
L 388.860502 226.883821 
L 389.524417 234.105313 
L 389.856375 230.494567 
L 390.52029 262.991284 
L 390.852248 259.380537 
L 391.184205 252.159045 
L 391.516163 277.434269 
L 391.84812 248.548299 
L 392.180078 248.548299 
L 392.512036 244.937552 
L 392.843993 273.823522 
L 393.175951 270.212776 
L 393.507909 252.159045 
L 393.839866 270.212776 
L 394.171824 266.60203 
L 394.503781 277.434269 
L 395.167697 259.380537 
L 395.831612 288.266507 
L 396.163569 291.877254 
L 396.495527 252.159045 
L 396.827485 230.494567 
L 397.159442 226.883821 
L 397.823358 179.944119 
L 398.155315 176.333373 
L 398.487273 151.058149 
L 398.487273 151.058149 
" clip-path="url(#p5f80876661)" style="fill: none; stroke: #1f77b4; stroke-width: 1.5; stroke-linecap: square"/>
   </g>
   <g id="patch_3">
    <path d="M 57.6 307.584 
L 57.6 41.472 
" style="fill: none; stroke: #000000; stroke-width: 0.8; stroke-linejoin: miter; stroke-linecap: square"/>
   </g>
   <g id="patch_4">
    <path d="M 414.72 307.584 
L 414.72 41.472 
" style="fill: none; stroke: #000000; stroke-width: 0.8; stroke-linejoin: miter; stroke-linecap: square"/>
   </g>
   <g id="patch_5">
    <path d="M 57.6 307.584 
L 414.72 307.584 
" style="fill: none; stroke: #000000; stroke-width: 0.8; stroke-linejoin: miter; stroke-linecap: square"/>
   </g>
   <g id="patch_6">
    <path d="M 57.6 41.472 
L 414.72 41.472 
" style="fill: none; stroke: #000000; stroke-width: 0.8; stroke-linejoin: miter; stroke-linecap: square"/>
   </g>
   <g id="text_19">
    <!-- Simulated Anealling Cost -->
    <g transform="translate(160.8 35.472)scale(0.12 -0.12)">
     <defs>
      <path id="DejaVuSans-53" d="M 3425 4513 
L 3425 3897 
Q 3066 4069 2747 4153 
Q 2428 4238 2131 4238 
Q 1616 4238 1336 4038 
Q 1056 3838 1056 3469 
Q 1056 3159 1242 3001 
Q 1428 2844 1947 2747 
L 2328 2669 
Q 3034 2534 3370 2195 
Q 3706 1856 3706 1288 
Q 3706 609 3251 259 
Q 2797 -91 1919 -91 
Q 1588 -91 1214 -16 
Q 841 59 441 206 
L 441 856 
Q 825 641 1194 531 
Q 1563 422 1919 422 
Q 2459 422 2753 634 
Q 3047 847 3047 1241 
Q 3047 1584 2836 1778 
Q 2625 1972 2144 2069 
L 1759 2144 
Q 1053 2284 737 2584 
Q 422 2884 422 3419 
Q 422 4038 858 4394 
Q 1294 4750 2059 4750 
Q 2388 4750 2728 4690 
Q 3069 4631 3425 4513 
z
" transform="scale(0.015625)"/>
      <path id="DejaVuSans-69" d="M 603 3500 
L 1178 3500 
L 1178 0 
L 603 0 
L 603 3500 
z
M 603 4863 
L 1178 4863 
L 1178 4134 
L 603 4134 
L 603 4863 
z
" transform="scale(0.015625)"/>
      <path id="DejaVuSans-65" d="M 3597 1894 
L 3597 1613 
L 953 1613 
Q 991 1019 1311 708 
Q 1631 397 2203 397 
Q 2534 397 2845 478 
Q 3156 559 3463 722 
L 3463 178 
Q 3153 47 2828 -22 
Q 2503 -91 2169 -91 
Q 1331 -91 842 396 
Q 353 884 353 1716 
Q 353 2575 817 3079 
Q 1281 3584 2069 3584 
Q 2775 3584 3186 3129 
Q 3597 2675 3597 1894 
z
M 3022 2063 
Q 3016 2534 2758 2815 
Q 2500 3097 2075 3097 
Q 1594 3097 1305 2825 
Q 1016 2553 972 2059 
L 3022 2063 
z
" transform="scale(0.015625)"/>
      <path id="DejaVuSans-64" d="M 2906 2969 
L 2906 4863 
L 3481 4863 
L 3481 0 
L 2906 0 
L 2906 525 
Q 2725 213 2448 61 
Q 2172 -91 1784 -91 
Q 1150 -91 751 415 
Q 353 922 353 1747 
Q 353 2572 751 3078 
Q 1150 3584 1784 3584 
Q 2172 3584 2448 3432 
Q 2725 3281 2906 2969 
z
M 947 1747 
Q 947 1113 1208 752 
Q 1469 391 1925 391 
Q 2381 391 2643 752 
Q 2906 1113 2906 1747 
Q 2906 2381 2643 2742 
Q 2381 3103 1925 3103 
Q 1469 3103 1208 2742 
Q 947 2381 947 1747 
z
" transform="scale(0.015625)"/>
      <path id="DejaVuSans-41" d="M 2188 4044 
L 1331 1722 
L 3047 1722 
L 2188 4044 
z
M 1831 4666 
L 2547 4666 
L 4325 0 
L 3669 0 
L 3244 1197 
L 1141 1197 
L 716 0 
L 50 0 
L 1831 4666 
z
" transform="scale(0.015625)"/>
      <path id="DejaVuSans-67" d="M 2906 1791 
Q 2906 2416 2648 2759 
Q 2391 3103 1925 3103 
Q 1463 3103 1205 2759 
Q 947 2416 947 1791 
Q 947 1169 1205 825 
Q 1463 481 1925 481 
Q 2391 481 2648 825 
Q 2906 1169 2906 1791 
z
M 3481 434 
Q 3481 -459 3084 -895 
Q 2688 -1331 1869 -1331 
Q 1566 -1331 1297 -1286 
Q 1028 -1241 775 -1147 
L 775 -588 
Q 1028 -725 1275 -790 
Q 1522 -856 1778 -856 
Q 2344 -856 2625 -561 
Q 2906 -266 2906 331 
L 2906 616 
Q 2728 306 2450 153 
Q 2172 0 1784 0 
Q 1141 0 747 490 
Q 353 981 353 1791 
Q 353 2603 747 3093 
Q 1141 3584 1784 3584 
Q 2172 3584 2450 3431 
Q 2728 3278 2906 2969 
L 2906 3500 
L 3481 3500 
L 3481 434 
z
" transform="scale(0.015625)"/>
      <path id="DejaVuSans-43" d="M 4122 4306 
L 4122 3641 
Q 3803 3938 3442 4084 
Q 3081 4231 2675 4231 
Q 1875 4231 1450 3742 
Q 1025 3253 1025 2328 
Q 1025 1406 1450 917 
Q 1875 428 2675 428 
Q 3081 428 3442 575 
Q 3803 722 4122 1019 
L 4122 359 
Q 3791 134 3420 21 
Q 3050 -91 2638 -91 
Q 1578 -91 968 557 
Q 359 1206 359 2328 
Q 359 3453 968 4101 
Q 1578 4750 2638 4750 
Q 3056 4750 3426 4639 
Q 3797 4528 4122 4306 
z
" transform="scale(0.015625)"/>
     </defs>
     <use xlink:href="#DejaVuSans-53"/>
     <use xlink:href="#DejaVuSans-69" x="63.476562"/>
     <use xlink:href="#DejaVuSans-6d" x="91.259766"/>
     <use xlink:href="#DejaVuSans-75" x="188.671875"/>
     <use xlink:href="#DejaVuSans-6c" x="252.050781"/>
     <use xlink:href="#DejaVuSans-61" x="279.833984"/>
     <use xlink:href="#DejaVuSans-74" x="341.113281"/>
     <use xlink:href="#DejaVuSans-65" x="380.322266"/>
     <use xlink:href="#DejaVuSans-64" x="441.845703"/>
     <use xlink:href="#DejaVuSans-20" x="505.322266"/>
     <use xlink:href="#DejaVuSans-41" x="537.109375"/>
     <use xlink:href="#DejaVuSans-6e" x="605.517578"/>
     <use xlink:href="#DejaVuSans-65" x="668.896484"/>
     <use xlink:href="#DejaVuSans-61" x="730.419922"/>
     <use xlink:href="#DejaVuSans-6c" x="791.699219"/>
     <use xlink:href="#DejaVuSans-6c" x="819.482422"/>
     <use xlink:href="#DejaVuSans-69" x="847.265625"/>
     <use xlink:href="#DejaVuSans-6e" x="875.048828"/>
     <use xlink:href="#DejaVuSans-67" x="938.427734"/>
     <use xlink:href="#DejaVuSans-20" x="1001.904297"/>
     <use xlink:href="#DejaVuSans-43" x="1033.691406"/>
     <use xlink:href="#DejaVuSans-6f" x="1103.515625"/>
     <use xlink:href="#DejaVuSans-73" x="1164.697266"/>
     <use xlink:href="#DejaVuSans-74" x="1216.796875"/>
    </g>
   </g>
  </g>
 </g>
 <defs>
  <clipPath id="p5f80876661">
   <rect x="57.6" y="41.472" width="357.12" height="266.112"/>
  </clipPath>
 </defs>
</svg>
