<?xml version="1.0" encoding="utf-8" standalone="no"?>
<!DOCTYPE svg PUBLIC "-//W3C//DTD SVG 1.1//EN"
  "http://www.w3.org/Graphics/SVG/1.1/DTD/svg11.dtd">
<svg xmlns:xlink="http://www.w3.org/1999/xlink" width="460.8pt" height="345.6pt" viewBox="0 0 460.8 345.6" xmlns="http://www.w3.org/2000/svg" version="1.1">
 <metadata>
  <rdf:RDF xmlns:dc="http://purl.org/dc/elements/1.1/" xmlns:cc="http://creativecommons.org/ns#" xmlns:rdf="http://www.w3.org/1999/02/22-rdf-syntax-ns#">
   <cc:Work>
    <dc:type rdf:resource="http://purl.org/dc/dcmitype/StillImage"/>
    <dc:date>2022-06-01T08:03:55.700853</dc:date>
    <dc:format>image/svg+xml</dc:format>
    <dc:creator>
     <cc:Agent>
      <dc:title>Matplotlib v3.5.1, https://matplotlib.org/</dc:title>
     </cc:Agent>
    </dc:creator>
   </cc:Work>
  </rdf:RDF>
 </metadata>
 <defs>
  <style type="text/css">*{stroke-linejoin: round; stroke-linecap: butt}</style>
 </defs>
 <g id="figure_1">
  <g id="patch_1">
   <path d="M 0 345.6 
L 460.8 345.6 
L 460.8 0 
L 0 0 
z
" style="fill: #ffffff"/>
  </g>
  <g id="axes_1">
   <g id="patch_2">
    <path d="M 57.6 307.584 
L 414.72 307.584 
L 414.72 41.472 
L 57.6 41.472 
z
" style="fill: #ffffff"/>
   </g>
   <g id="matplotlib.axis_1">
    <g id="xtick_1">
     <g id="line2d_1">
      <defs>
       <path id="mb5e3169ecd" d="M 0 0 
L 0 3.5 
" style="stroke: #000000; stroke-width: 0.8"/>
      </defs>
      <g>
       <use xlink:href="#mb5e3169ecd" x="73.832727" y="307.584" style="stroke: #000000; stroke-width: 0.8"/>
      </g>
     </g>
     <g id="text_1">
      <!-- 0 -->
      <g transform="translate(70.651477 322.182437)scale(0.1 -0.1)">
       <defs>
        <path id="DejaVuSans-30" d="M 2034 4250 
Q 1547 4250 1301 3770 
Q 1056 3291 1056 2328 
Q 1056 1369 1301 889 
Q 1547 409 2034 409 
Q 2525 409 2770 889 
Q 3016 1369 3016 2328 
Q 3016 3291 2770 3770 
Q 2525 4250 2034 4250 
z
M 2034 4750 
Q 2819 4750 3233 4129 
Q 3647 3509 3647 2328 
Q 3647 1150 3233 529 
Q 2819 -91 2034 -91 
Q 1250 -91 836 529 
Q 422 1150 422 2328 
Q 422 3509 836 4129 
Q 1250 4750 2034 4750 
z
" transform="scale(0.015625)"/>
       </defs>
       <use xlink:href="#DejaVuSans-30"/>
      </g>
     </g>
    </g>
    <g id="xtick_2">
     <g id="line2d_2">
      <g>
       <use xlink:href="#mb5e3169ecd" x="150.838075" y="307.584" style="stroke: #000000; stroke-width: 0.8"/>
      </g>
     </g>
     <g id="text_2">
      <!-- 500 -->
      <g transform="translate(141.294325 322.182437)scale(0.1 -0.1)">
       <defs>
        <path id="DejaVuSans-35" d="M 691 4666 
L 3169 4666 
L 3169 4134 
L 1269 4134 
L 1269 2991 
Q 1406 3038 1543 3061 
Q 1681 3084 1819 3084 
Q 2600 3084 3056 2656 
Q 3513 2228 3513 1497 
Q 3513 744 3044 326 
Q 2575 -91 1722 -91 
Q 1428 -91 1123 -41 
Q 819 9 494 109 
L 494 744 
Q 775 591 1075 516 
Q 1375 441 1709 441 
Q 2250 441 2565 725 
Q 2881 1009 2881 1497 
Q 2881 1984 2565 2268 
Q 2250 2553 1709 2553 
Q 1456 2553 1204 2497 
Q 953 2441 691 2322 
L 691 4666 
z
" transform="scale(0.015625)"/>
       </defs>
       <use xlink:href="#DejaVuSans-35"/>
       <use xlink:href="#DejaVuSans-30" x="63.623047"/>
       <use xlink:href="#DejaVuSans-30" x="127.246094"/>
      </g>
     </g>
    </g>
    <g id="xtick_3">
     <g id="line2d_3">
      <g>
       <use xlink:href="#mb5e3169ecd" x="227.843422" y="307.584" style="stroke: #000000; stroke-width: 0.8"/>
      </g>
     </g>
     <g id="text_3">
      <!-- 1000 -->
      <g transform="translate(215.118422 322.182437)scale(0.1 -0.1)">
       <defs>
        <path id="DejaVuSans-31" d="M 794 531 
L 1825 531 
L 1825 4091 
L 703 3866 
L 703 4441 
L 1819 4666 
L 2450 4666 
L 2450 531 
L 3481 531 
L 3481 0 
L 794 0 
L 794 531 
z
" transform="scale(0.015625)"/>
       </defs>
       <use xlink:href="#DejaVuSans-31"/>
       <use xlink:href="#DejaVuSans-30" x="63.623047"/>
       <use xlink:href="#DejaVuSans-30" x="127.246094"/>
       <use xlink:href="#DejaVuSans-30" x="190.869141"/>
      </g>
     </g>
    </g>
    <g id="xtick_4">
     <g id="line2d_4">
      <g>
       <use xlink:href="#mb5e3169ecd" x="304.84877" y="307.584" style="stroke: #000000; stroke-width: 0.8"/>
      </g>
     </g>
     <g id="text_4">
      <!-- 1500 -->
      <g transform="translate(292.12377 322.182437)scale(0.1 -0.1)">
       <use xlink:href="#DejaVuSans-31"/>
       <use xlink:href="#DejaVuSans-35" x="63.623047"/>
       <use xlink:href="#DejaVuSans-30" x="127.246094"/>
       <use xlink:href="#DejaVuSans-30" x="190.869141"/>
      </g>
     </g>
    </g>
    <g id="xtick_5">
     <g id="line2d_5">
      <g>
       <use xlink:href="#mb5e3169ecd" x="381.854118" y="307.584" style="stroke: #000000; stroke-width: 0.8"/>
      </g>
     </g>
     <g id="text_5">
      <!-- 2000 -->
      <g transform="translate(369.129118 322.182437)scale(0.1 -0.1)">
       <defs>
        <path id="DejaVuSans-32" d="M 1228 531 
L 3431 531 
L 3431 0 
L 469 0 
L 469 531 
Q 828 903 1448 1529 
Q 2069 2156 2228 2338 
Q 2531 2678 2651 2914 
Q 2772 3150 2772 3378 
Q 2772 3750 2511 3984 
Q 2250 4219 1831 4219 
Q 1534 4219 1204 4116 
Q 875 4013 500 3803 
L 500 4441 
Q 881 4594 1212 4672 
Q 1544 4750 1819 4750 
Q 2544 4750 2975 4387 
Q 3406 4025 3406 3419 
Q 3406 3131 3298 2873 
Q 3191 2616 2906 2266 
Q 2828 2175 2409 1742 
Q 1991 1309 1228 531 
z
" transform="scale(0.015625)"/>
       </defs>
       <use xlink:href="#DejaVuSans-32"/>
       <use xlink:href="#DejaVuSans-30" x="63.623047"/>
       <use xlink:href="#DejaVuSans-30" x="127.246094"/>
       <use xlink:href="#DejaVuSans-30" x="190.869141"/>
      </g>
     </g>
    </g>
    <g id="text_6">
     <!-- num swaps -->
     <g transform="translate(207.826406 335.860562)scale(0.1 -0.1)">
      <defs>
       <path id="DejaVuSans-6e" d="M 3513 2113 
L 3513 0 
L 2938 0 
L 2938 2094 
Q 2938 2591 2744 2837 
Q 2550 3084 2163 3084 
Q 1697 3084 1428 2787 
Q 1159 2491 1159 1978 
L 1159 0 
L 581 0 
L 581 3500 
L 1159 3500 
L 1159 2956 
Q 1366 3272 1645 3428 
Q 1925 3584 2291 3584 
Q 2894 3584 3203 3211 
Q 3513 2838 3513 2113 
z
" transform="scale(0.015625)"/>
       <path id="DejaVuSans-75" d="M 544 1381 
L 544 3500 
L 1119 3500 
L 1119 1403 
Q 1119 906 1312 657 
Q 1506 409 1894 409 
Q 2359 409 2629 706 
Q 2900 1003 2900 1516 
L 2900 3500 
L 3475 3500 
L 3475 0 
L 2900 0 
L 2900 538 
Q 2691 219 2414 64 
Q 2138 -91 1772 -91 
Q 1169 -91 856 284 
Q 544 659 544 1381 
z
M 1991 3584 
L 1991 3584 
z
" transform="scale(0.015625)"/>
       <path id="DejaVuSans-6d" d="M 3328 2828 
Q 3544 3216 3844 3400 
Q 4144 3584 4550 3584 
Q 5097 3584 5394 3201 
Q 5691 2819 5691 2113 
L 5691 0 
L 5113 0 
L 5113 2094 
Q 5113 2597 4934 2840 
Q 4756 3084 4391 3084 
Q 3944 3084 3684 2787 
Q 3425 2491 3425 1978 
L 3425 0 
L 2847 0 
L 2847 2094 
Q 2847 2600 2669 2842 
Q 2491 3084 2119 3084 
Q 1678 3084 1418 2786 
Q 1159 2488 1159 1978 
L 1159 0 
L 581 0 
L 581 3500 
L 1159 3500 
L 1159 2956 
Q 1356 3278 1631 3431 
Q 1906 3584 2284 3584 
Q 2666 3584 2933 3390 
Q 3200 3197 3328 2828 
z
" transform="scale(0.015625)"/>
       <path id="DejaVuSans-20" transform="scale(0.015625)"/>
       <path id="DejaVuSans-73" d="M 2834 3397 
L 2834 2853 
Q 2591 2978 2328 3040 
Q 2066 3103 1784 3103 
Q 1356 3103 1142 2972 
Q 928 2841 928 2578 
Q 928 2378 1081 2264 
Q 1234 2150 1697 2047 
L 1894 2003 
Q 2506 1872 2764 1633 
Q 3022 1394 3022 966 
Q 3022 478 2636 193 
Q 2250 -91 1575 -91 
Q 1294 -91 989 -36 
Q 684 19 347 128 
L 347 722 
Q 666 556 975 473 
Q 1284 391 1588 391 
Q 1994 391 2212 530 
Q 2431 669 2431 922 
Q 2431 1156 2273 1281 
Q 2116 1406 1581 1522 
L 1381 1569 
Q 847 1681 609 1914 
Q 372 2147 372 2553 
Q 372 3047 722 3315 
Q 1072 3584 1716 3584 
Q 2034 3584 2315 3537 
Q 2597 3491 2834 3397 
z
" transform="scale(0.015625)"/>
       <path id="DejaVuSans-77" d="M 269 3500 
L 844 3500 
L 1563 769 
L 2278 3500 
L 2956 3500 
L 3675 769 
L 4391 3500 
L 4966 3500 
L 4050 0 
L 3372 0 
L 2619 2869 
L 1863 0 
L 1184 0 
L 269 3500 
z
" transform="scale(0.015625)"/>
       <path id="DejaVuSans-61" d="M 2194 1759 
Q 1497 1759 1228 1600 
Q 959 1441 959 1056 
Q 959 750 1161 570 
Q 1363 391 1709 391 
Q 2188 391 2477 730 
Q 2766 1069 2766 1631 
L 2766 1759 
L 2194 1759 
z
M 3341 1997 
L 3341 0 
L 2766 0 
L 2766 531 
Q 2569 213 2275 61 
Q 1981 -91 1556 -91 
Q 1019 -91 701 211 
Q 384 513 384 1019 
Q 384 1609 779 1909 
Q 1175 2209 1959 2209 
L 2766 2209 
L 2766 2266 
Q 2766 2663 2505 2880 
Q 2244 3097 1772 3097 
Q 1472 3097 1187 3025 
Q 903 2953 641 2809 
L 641 3341 
Q 956 3463 1253 3523 
Q 1550 3584 1831 3584 
Q 2591 3584 2966 3190 
Q 3341 2797 3341 1997 
z
" transform="scale(0.015625)"/>
       <path id="DejaVuSans-70" d="M 1159 525 
L 1159 -1331 
L 581 -1331 
L 581 3500 
L 1159 3500 
L 1159 2969 
Q 1341 3281 1617 3432 
Q 1894 3584 2278 3584 
Q 2916 3584 3314 3078 
Q 3713 2572 3713 1747 
Q 3713 922 3314 415 
Q 2916 -91 2278 -91 
Q 1894 -91 1617 61 
Q 1341 213 1159 525 
z
M 3116 1747 
Q 3116 2381 2855 2742 
Q 2594 3103 2138 3103 
Q 1681 3103 1420 2742 
Q 1159 2381 1159 1747 
Q 1159 1113 1420 752 
Q 1681 391 2138 391 
Q 2594 391 2855 752 
Q 3116 1113 3116 1747 
z
" transform="scale(0.015625)"/>
      </defs>
      <use xlink:href="#DejaVuSans-6e"/>
      <use xlink:href="#DejaVuSans-75" x="63.378906"/>
      <use xlink:href="#DejaVuSans-6d" x="126.757812"/>
      <use xlink:href="#DejaVuSans-20" x="224.169922"/>
      <use xlink:href="#DejaVuSans-73" x="255.957031"/>
      <use xlink:href="#DejaVuSans-77" x="308.056641"/>
      <use xlink:href="#DejaVuSans-61" x="389.84375"/>
      <use xlink:href="#DejaVuSans-70" x="451.123047"/>
      <use xlink:href="#DejaVuSans-73" x="514.599609"/>
     </g>
    </g>
   </g>
   <g id="matplotlib.axis_2">
    <g id="ytick_1">
     <g id="line2d_6">
      <defs>
       <path id="m90f0a67488" d="M 0 0 
L -3.5 0 
" style="stroke: #000000; stroke-width: 0.8"/>
      </defs>
      <g>
       <use xlink:href="#m90f0a67488" x="57.6" y="291.766154" style="stroke: #000000; stroke-width: 0.8"/>
      </g>
     </g>
     <g id="text_7">
      <!-- 280 -->
      <g transform="translate(31.5125 295.565373)scale(0.1 -0.1)">
       <defs>
        <path id="DejaVuSans-38" d="M 2034 2216 
Q 1584 2216 1326 1975 
Q 1069 1734 1069 1313 
Q 1069 891 1326 650 
Q 1584 409 2034 409 
Q 2484 409 2743 651 
Q 3003 894 3003 1313 
Q 3003 1734 2745 1975 
Q 2488 2216 2034 2216 
z
M 1403 2484 
Q 997 2584 770 2862 
Q 544 3141 544 3541 
Q 544 4100 942 4425 
Q 1341 4750 2034 4750 
Q 2731 4750 3128 4425 
Q 3525 4100 3525 3541 
Q 3525 3141 3298 2862 
Q 3072 2584 2669 2484 
Q 3125 2378 3379 2068 
Q 3634 1759 3634 1313 
Q 3634 634 3220 271 
Q 2806 -91 2034 -91 
Q 1263 -91 848 271 
Q 434 634 434 1313 
Q 434 1759 690 2068 
Q 947 2378 1403 2484 
z
M 1172 3481 
Q 1172 3119 1398 2916 
Q 1625 2713 2034 2713 
Q 2441 2713 2670 2916 
Q 2900 3119 2900 3481 
Q 2900 3844 2670 4047 
Q 2441 4250 2034 4250 
Q 1625 4250 1398 4047 
Q 1172 3844 1172 3481 
z
" transform="scale(0.015625)"/>
       </defs>
       <use xlink:href="#DejaVuSans-32"/>
       <use xlink:href="#DejaVuSans-38" x="63.623047"/>
       <use xlink:href="#DejaVuSans-30" x="127.246094"/>
      </g>
     </g>
    </g>
    <g id="ytick_2">
     <g id="line2d_7">
      <g>
       <use xlink:href="#m90f0a67488" x="57.6" y="254.547692" style="stroke: #000000; stroke-width: 0.8"/>
      </g>
     </g>
     <g id="text_8">
      <!-- 300 -->
      <g transform="translate(31.5125 258.346911)scale(0.1 -0.1)">
       <defs>
        <path id="DejaVuSans-33" d="M 2597 2516 
Q 3050 2419 3304 2112 
Q 3559 1806 3559 1356 
Q 3559 666 3084 287 
Q 2609 -91 1734 -91 
Q 1441 -91 1130 -33 
Q 819 25 488 141 
L 488 750 
Q 750 597 1062 519 
Q 1375 441 1716 441 
Q 2309 441 2620 675 
Q 2931 909 2931 1356 
Q 2931 1769 2642 2001 
Q 2353 2234 1838 2234 
L 1294 2234 
L 1294 2753 
L 1863 2753 
Q 2328 2753 2575 2939 
Q 2822 3125 2822 3475 
Q 2822 3834 2567 4026 
Q 2313 4219 1838 4219 
Q 1578 4219 1281 4162 
Q 984 4106 628 3988 
L 628 4550 
Q 988 4650 1302 4700 
Q 1616 4750 1894 4750 
Q 2613 4750 3031 4423 
Q 3450 4097 3450 3541 
Q 3450 3153 3228 2886 
Q 3006 2619 2597 2516 
z
" transform="scale(0.015625)"/>
       </defs>
       <use xlink:href="#DejaVuSans-33"/>
       <use xlink:href="#DejaVuSans-30" x="63.623047"/>
       <use xlink:href="#DejaVuSans-30" x="127.246094"/>
      </g>
     </g>
    </g>
    <g id="ytick_3">
     <g id="line2d_8">
      <g>
       <use xlink:href="#m90f0a67488" x="57.6" y="217.329231" style="stroke: #000000; stroke-width: 0.8"/>
      </g>
     </g>
     <g id="text_9">
      <!-- 320 -->
      <g transform="translate(31.5125 221.12845)scale(0.1 -0.1)">
       <use xlink:href="#DejaVuSans-33"/>
       <use xlink:href="#DejaVuSans-32" x="63.623047"/>
       <use xlink:href="#DejaVuSans-30" x="127.246094"/>
      </g>
     </g>
    </g>
    <g id="ytick_4">
     <g id="line2d_9">
      <g>
       <use xlink:href="#m90f0a67488" x="57.6" y="180.110769" style="stroke: #000000; stroke-width: 0.8"/>
      </g>
     </g>
     <g id="text_10">
      <!-- 340 -->
      <g transform="translate(31.5125 183.909988)scale(0.1 -0.1)">
       <defs>
        <path id="DejaVuSans-34" d="M 2419 4116 
L 825 1625 
L 2419 1625 
L 2419 4116 
z
M 2253 4666 
L 3047 4666 
L 3047 1625 
L 3713 1625 
L 3713 1100 
L 3047 1100 
L 3047 0 
L 2419 0 
L 2419 1100 
L 313 1100 
L 313 1709 
L 2253 4666 
z
" transform="scale(0.015625)"/>
       </defs>
       <use xlink:href="#DejaVuSans-33"/>
       <use xlink:href="#DejaVuSans-34" x="63.623047"/>
       <use xlink:href="#DejaVuSans-30" x="127.246094"/>
      </g>
     </g>
    </g>
    <g id="ytick_5">
     <g id="line2d_10">
      <g>
       <use xlink:href="#m90f0a67488" x="57.6" y="142.892308" style="stroke: #000000; stroke-width: 0.8"/>
      </g>
     </g>
     <g id="text_11">
      <!-- 360 -->
      <g transform="translate(31.5125 146.691526)scale(0.1 -0.1)">
       <defs>
        <path id="DejaVuSans-36" d="M 2113 2584 
Q 1688 2584 1439 2293 
Q 1191 2003 1191 1497 
Q 1191 994 1439 701 
Q 1688 409 2113 409 
Q 2538 409 2786 701 
Q 3034 994 3034 1497 
Q 3034 2003 2786 2293 
Q 2538 2584 2113 2584 
z
M 3366 4563 
L 3366 3988 
Q 3128 4100 2886 4159 
Q 2644 4219 2406 4219 
Q 1781 4219 1451 3797 
Q 1122 3375 1075 2522 
Q 1259 2794 1537 2939 
Q 1816 3084 2150 3084 
Q 2853 3084 3261 2657 
Q 3669 2231 3669 1497 
Q 3669 778 3244 343 
Q 2819 -91 2113 -91 
Q 1303 -91 875 529 
Q 447 1150 447 2328 
Q 447 3434 972 4092 
Q 1497 4750 2381 4750 
Q 2619 4750 2861 4703 
Q 3103 4656 3366 4563 
z
" transform="scale(0.015625)"/>
       </defs>
       <use xlink:href="#DejaVuSans-33"/>
       <use xlink:href="#DejaVuSans-36" x="63.623047"/>
       <use xlink:href="#DejaVuSans-30" x="127.246094"/>
      </g>
     </g>
    </g>
    <g id="ytick_6">
     <g id="line2d_11">
      <g>
       <use xlink:href="#m90f0a67488" x="57.6" y="105.673846" style="stroke: #000000; stroke-width: 0.8"/>
      </g>
     </g>
     <g id="text_12">
      <!-- 380 -->
      <g transform="translate(31.5125 109.473065)scale(0.1 -0.1)">
       <use xlink:href="#DejaVuSans-33"/>
       <use xlink:href="#DejaVuSans-38" x="63.623047"/>
       <use xlink:href="#DejaVuSans-30" x="127.246094"/>
      </g>
     </g>
    </g>
    <g id="ytick_7">
     <g id="line2d_12">
      <g>
       <use xlink:href="#m90f0a67488" x="57.6" y="68.455385" style="stroke: #000000; stroke-width: 0.8"/>
      </g>
     </g>
     <g id="text_13">
      <!-- 400 -->
      <g transform="translate(31.5125 72.254603)scale(0.1 -0.1)">
       <use xlink:href="#DejaVuSans-34"/>
       <use xlink:href="#DejaVuSans-30" x="63.623047"/>
       <use xlink:href="#DejaVuSans-30" x="127.246094"/>
      </g>
     </g>
    </g>
    <g id="text_14">
     <!-- total cost -->
     <g transform="translate(25.432812 197.923313)rotate(-90)scale(0.1 -0.1)">
      <defs>
       <path id="DejaVuSans-74" d="M 1172 4494 
L 1172 3500 
L 2356 3500 
L 2356 3053 
L 1172 3053 
L 1172 1153 
Q 1172 725 1289 603 
Q 1406 481 1766 481 
L 2356 481 
L 2356 0 
L 1766 0 
Q 1100 0 847 248 
Q 594 497 594 1153 
L 594 3053 
L 172 3053 
L 172 3500 
L 594 3500 
L 594 4494 
L 1172 4494 
z
" transform="scale(0.015625)"/>
       <path id="DejaVuSans-6f" d="M 1959 3097 
Q 1497 3097 1228 2736 
Q 959 2375 959 1747 
Q 959 1119 1226 758 
Q 1494 397 1959 397 
Q 2419 397 2687 759 
Q 2956 1122 2956 1747 
Q 2956 2369 2687 2733 
Q 2419 3097 1959 3097 
z
M 1959 3584 
Q 2709 3584 3137 3096 
Q 3566 2609 3566 1747 
Q 3566 888 3137 398 
Q 2709 -91 1959 -91 
Q 1206 -91 779 398 
Q 353 888 353 1747 
Q 353 2609 779 3096 
Q 1206 3584 1959 3584 
z
" transform="scale(0.015625)"/>
       <path id="DejaVuSans-6c" d="M 603 4863 
L 1178 4863 
L 1178 0 
L 603 0 
L 603 4863 
z
" transform="scale(0.015625)"/>
       <path id="DejaVuSans-63" d="M 3122 3366 
L 3122 2828 
Q 2878 2963 2633 3030 
Q 2388 3097 2138 3097 
Q 1578 3097 1268 2742 
Q 959 2388 959 1747 
Q 959 1106 1268 751 
Q 1578 397 2138 397 
Q 2388 397 2633 464 
Q 2878 531 3122 666 
L 3122 134 
Q 2881 22 2623 -34 
Q 2366 -91 2075 -91 
Q 1284 -91 818 406 
Q 353 903 353 1747 
Q 353 2603 823 3093 
Q 1294 3584 2113 3584 
Q 2378 3584 2631 3529 
Q 2884 3475 3122 3366 
z
" transform="scale(0.015625)"/>
      </defs>
      <use xlink:href="#DejaVuSans-74"/>
      <use xlink:href="#DejaVuSans-6f" x="39.208984"/>
      <use xlink:href="#DejaVuSans-74" x="100.390625"/>
      <use xlink:href="#DejaVuSans-61" x="139.599609"/>
      <use xlink:href="#DejaVuSans-6c" x="200.878906"/>
      <use xlink:href="#DejaVuSans-20" x="228.662109"/>
      <use xlink:href="#DejaVuSans-63" x="260.449219"/>
      <use xlink:href="#DejaVuSans-6f" x="315.429688"/>
      <use xlink:href="#DejaVuSans-73" x="376.611328"/>
      <use xlink:href="#DejaVuSans-74" x="428.710938"/>
     </g>
    </g>
   </g>
   <g id="line2d_13">
    <path d="M 73.832727 120.561231 
L 74.140749 118.700308 
L 74.756791 53.568 
L 75.064813 59.150769 
L 75.372834 90.786462 
L 75.680856 101.952 
L 75.988877 124.283077 
L 76.296898 124.283077 
L 76.60492 180.110769 
L 76.912941 191.276308 
L 77.220963 185.693538 
L 77.528984 165.223385 
L 77.837005 174.528 
L 78.145027 142.892308 
L 78.453048 131.726769 
L 78.76107 139.170462 
L 79.069091 155.918769 
L 79.377112 159.640615 
L 79.685134 116.839385 
L 80.301176 165.223385 
L 80.609198 168.945231 
L 80.917219 142.892308 
L 81.225241 142.892308 
L 81.533262 157.779692 
L 81.841283 129.865846 
L 82.149305 133.587692 
L 82.457326 124.283077 
L 82.765348 133.587692 
L 83.073369 189.415385 
L 83.38139 180.110769 
L 83.997433 215.468308 
L 84.305455 206.163692 
L 84.613476 200.580923 
L 84.921497 222.912 
L 85.229519 206.163692 
L 85.53754 204.302769 
L 85.845561 211.746462 
L 86.153583 206.163692 
L 86.461604 237.799385 
L 86.769626 180.110769 
L 87.077647 191.276308 
L 88.001711 114.978462 
L 88.309733 122.422154 
L 88.617754 144.753231 
L 88.925775 109.395692 
L 89.541818 109.395692 
L 89.84984 146.614154 
L 90.157861 167.084308 
L 90.465882 150.336 
L 90.773904 148.475077 
L 91.081925 163.362462 
L 91.389947 148.475077 
L 91.697968 144.753231 
L 92.005989 124.283077 
L 92.314011 120.561231 
L 92.622032 148.475077 
L 92.930053 141.031385 
L 93.238075 155.918769 
L 93.854118 124.283077 
L 94.162139 129.865846 
L 94.47016 142.892308 
L 94.778182 144.753231 
L 95.086203 144.753231 
L 95.394225 139.170462 
L 95.702246 139.170462 
L 96.010267 131.726769 
L 96.318289 133.587692 
L 96.62631 129.865846 
L 97.242353 133.587692 
L 98.166417 103.812923 
L 98.474439 100.091077 
L 98.78246 101.952 
L 99.090481 109.395692 
L 99.398503 120.561231 
L 99.706524 90.786462 
L 100.014545 81.481846 
L 100.322567 98.230154 
L 100.630588 98.230154 
L 100.93861 146.614154 
L 101.554652 128.004923 
L 101.862674 150.336 
L 102.170695 163.362462 
L 102.478717 141.031385 
L 102.786738 155.918769 
L 103.094759 135.448615 
L 103.402781 105.673846 
L 103.710802 120.561231 
L 104.018824 154.057846 
L 104.326845 154.057846 
L 104.634866 144.753231 
L 104.942888 129.865846 
L 105.250909 137.309538 
L 105.55893 137.309538 
L 105.866952 133.587692 
L 106.174973 137.309538 
L 106.482995 189.415385 
L 106.791016 215.468308 
L 107.099037 193.137231 
L 107.407059 226.633846 
L 107.71508 185.693538 
L 108.023102 194.998154 
L 108.331123 200.580923 
L 108.639144 222.912 
L 108.947166 226.633846 
L 109.255187 228.494769 
L 109.563209 228.494769 
L 109.87123 206.163692 
L 110.179251 222.912 
L 110.487273 222.912 
L 110.795294 217.329231 
L 111.103316 215.468308 
L 111.411337 187.554462 
L 111.719358 191.276308 
L 112.335401 232.216615 
L 112.643422 230.355692 
L 112.951444 226.633846 
L 113.259465 256.408615 
L 114.183529 213.607385 
L 114.491551 172.667077 
L 114.799572 165.223385 
L 115.107594 150.336 
L 115.415615 155.918769 
L 115.723636 148.475077 
L 116.031658 163.362462 
L 116.339679 161.501538 
L 116.647701 154.057846 
L 116.955722 180.110769 
L 117.263743 142.892308 
L 117.571765 122.422154 
L 117.879786 137.309538 
L 118.187807 111.256615 
L 118.495829 126.144 
L 118.80385 120.561231 
L 119.111872 126.144 
L 119.419893 159.640615 
L 119.727914 142.892308 
L 120.035936 148.475077 
L 120.343957 111.256615 
L 120.651979 180.110769 
L 121.268021 198.72 
L 121.576043 163.362462 
L 122.192086 167.084308 
L 122.500107 163.362462 
L 122.808128 187.554462 
L 123.11615 180.110769 
L 123.424171 154.057846 
L 123.732193 155.918769 
L 124.040214 159.640615 
L 124.656257 204.302769 
L 125.272299 215.468308 
L 125.580321 193.137231 
L 125.888342 187.554462 
L 126.196364 208.024615 
L 126.504385 213.607385 
L 126.812406 185.693538 
L 127.120428 168.945231 
L 127.428449 133.587692 
L 127.736471 196.859077 
L 128.044492 193.137231 
L 128.660535 226.633846 
L 129.276578 180.110769 
L 129.584599 200.580923 
L 130.200642 228.494769 
L 130.508663 219.190154 
L 130.816684 228.494769 
L 131.124706 196.859077 
L 131.432727 185.693538 
L 131.740749 183.832615 
L 132.356791 235.938462 
L 132.664813 228.494769 
L 132.972834 228.494769 
L 133.280856 211.746462 
L 133.588877 224.772923 
L 133.896898 226.633846 
L 134.20492 219.190154 
L 134.512941 163.362462 
L 134.820963 172.667077 
L 135.437005 163.362462 
L 135.745027 180.110769 
L 136.36107 128.004923 
L 136.977112 94.508308 
L 137.285134 92.647385 
L 137.593155 103.812923 
L 137.901176 107.534769 
L 138.209198 122.422154 
L 138.517219 155.918769 
L 138.825241 133.587692 
L 139.133262 135.448615 
L 139.441283 146.614154 
L 139.749305 150.336 
L 140.057326 189.415385 
L 140.365348 181.971692 
L 140.673369 133.587692 
L 141.289412 155.918769 
L 141.905455 131.726769 
L 142.521497 224.772923 
L 142.829519 221.051077 
L 143.13754 206.163692 
L 143.445561 163.362462 
L 144.061604 243.382154 
L 144.369626 235.938462 
L 144.677647 217.329231 
L 144.985668 247.104 
L 145.29369 254.547692 
L 145.601711 237.799385 
L 145.909733 185.693538 
L 146.217754 200.580923 
L 146.525775 183.832615 
L 146.833797 194.998154 
L 147.141818 180.110769 
L 147.44984 204.302769 
L 147.757861 196.859077 
L 148.065882 159.640615 
L 148.373904 155.918769 
L 148.681925 165.223385 
L 148.989947 193.137231 
L 149.297968 200.580923 
L 149.605989 178.249846 
L 149.914011 204.302769 
L 150.222032 152.196923 
L 150.530053 148.475077 
L 150.838075 181.971692 
L 151.454118 200.580923 
L 152.07016 174.528 
L 152.378182 139.170462 
L 152.686203 142.892308 
L 152.994225 122.422154 
L 153.302246 148.475077 
L 153.610267 148.475077 
L 154.22631 109.395692 
L 154.534332 92.647385 
L 154.842353 87.064615 
L 155.150374 109.395692 
L 155.458396 87.064615 
L 155.766417 85.203692 
L 156.074439 114.978462 
L 156.38246 157.779692 
L 156.690481 150.336 
L 156.998503 157.779692 
L 157.614545 131.726769 
L 157.922567 157.779692 
L 158.53861 185.693538 
L 158.846631 185.693538 
L 159.154652 196.859077 
L 160.386738 126.144 
L 160.694759 131.726769 
L 161.002781 129.865846 
L 161.310802 116.839385 
L 161.618824 92.647385 
L 161.926845 103.812923 
L 162.234866 124.283077 
L 162.542888 155.918769 
L 162.850909 165.223385 
L 163.15893 187.554462 
L 163.774973 159.640615 
L 164.082995 129.865846 
L 164.391016 137.309538 
L 164.699037 129.865846 
L 165.007059 129.865846 
L 165.31508 116.839385 
L 165.931123 178.249846 
L 166.239144 202.441846 
L 166.547166 198.72 
L 167.163209 226.633846 
L 167.47123 211.746462 
L 167.779251 215.468308 
L 168.087273 224.772923 
L 168.395294 222.912 
L 168.703316 193.137231 
L 169.011337 124.283077 
L 169.319358 116.839385 
L 169.62738 172.667077 
L 169.935401 174.528 
L 170.243422 144.753231 
L 170.551444 126.144 
L 170.859465 128.004923 
L 171.167487 124.283077 
L 171.475508 116.839385 
L 171.783529 105.673846 
L 172.091551 135.448615 
L 172.399572 144.753231 
L 172.707594 114.978462 
L 173.015615 133.587692 
L 173.323636 113.117538 
L 173.631658 113.117538 
L 173.939679 141.031385 
L 174.247701 100.091077 
L 174.555722 124.283077 
L 174.863743 139.170462 
L 175.171765 141.031385 
L 175.479786 135.448615 
L 175.787807 135.448615 
L 176.095829 118.700308 
L 176.40385 126.144 
L 176.711872 150.336 
L 177.019893 154.057846 
L 177.327914 144.753231 
L 177.635936 141.031385 
L 177.943957 126.144 
L 178.251979 137.309538 
L 178.56 103.812923 
L 178.868021 96.369231 
L 179.176043 83.342769 
L 179.484064 111.256615 
L 180.100107 128.004923 
L 180.408128 178.249846 
L 180.71615 139.170462 
L 181.024171 155.918769 
L 181.332193 154.057846 
L 181.640214 150.336 
L 181.948235 124.283077 
L 182.256257 144.753231 
L 182.564278 129.865846 
L 182.872299 131.726769 
L 183.180321 103.812923 
L 183.488342 100.091077 
L 183.796364 118.700308 
L 184.104385 148.475077 
L 184.412406 154.057846 
L 184.720428 150.336 
L 185.028449 181.971692 
L 185.336471 165.223385 
L 185.644492 159.640615 
L 185.952513 157.779692 
L 186.260535 142.892308 
L 186.568556 135.448615 
L 186.876578 150.336 
L 187.184599 141.031385 
L 187.49262 87.064615 
L 187.800642 105.673846 
L 188.108663 105.673846 
L 188.416684 81.481846 
L 188.724706 90.786462 
L 189.340749 230.355692 
L 189.956791 208.024615 
L 190.264813 208.024615 
L 190.572834 189.415385 
L 190.880856 194.998154 
L 191.188877 152.196923 
L 191.496898 144.753231 
L 191.80492 142.892308 
L 192.112941 152.196923 
L 192.420963 137.309538 
L 192.728984 168.945231 
L 193.345027 176.388923 
L 193.653048 150.336 
L 193.96107 235.938462 
L 194.577112 200.580923 
L 194.885134 228.494769 
L 195.193155 213.607385 
L 195.501176 222.912 
L 195.809198 204.302769 
L 196.117219 213.607385 
L 196.733262 206.163692 
L 197.041283 159.640615 
L 197.349305 165.223385 
L 197.657326 176.388923 
L 197.965348 181.971692 
L 198.273369 183.832615 
L 198.58139 128.004923 
L 198.889412 114.978462 
L 199.197433 141.031385 
L 199.505455 126.144 
L 199.813476 148.475077 
L 200.121497 141.031385 
L 200.429519 137.309538 
L 200.73754 165.223385 
L 201.045561 159.640615 
L 201.353583 146.614154 
L 201.661604 144.753231 
L 201.969626 133.587692 
L 202.277647 163.362462 
L 202.585668 163.362462 
L 202.89369 183.832615 
L 203.201711 185.693538 
L 203.509733 163.362462 
L 203.817754 155.918769 
L 204.125775 111.256615 
L 204.433797 88.925538 
L 204.741818 101.952 
L 205.04984 105.673846 
L 205.357861 114.978462 
L 205.973904 148.475077 
L 206.281925 148.475077 
L 206.589947 144.753231 
L 206.897968 133.587692 
L 207.205989 154.057846 
L 207.514011 146.614154 
L 207.822032 180.110769 
L 208.130053 167.084308 
L 208.438075 183.832615 
L 208.746096 181.971692 
L 209.054118 196.859077 
L 209.362139 204.302769 
L 209.978182 204.302769 
L 210.286203 174.528 
L 210.594225 165.223385 
L 210.902246 94.508308 
L 211.210267 100.091077 
L 211.518289 122.422154 
L 211.82631 128.004923 
L 212.134332 126.144 
L 212.442353 154.057846 
L 212.750374 152.196923 
L 213.366417 178.249846 
L 213.674439 189.415385 
L 213.98246 211.746462 
L 214.290481 181.971692 
L 214.598503 208.024615 
L 214.906524 261.991385 
L 215.214545 265.713231 
L 215.522567 241.521231 
L 215.830588 258.269538 
L 216.13861 245.243077 
L 216.446631 263.852308 
L 216.754652 267.574154 
L 217.062674 256.408615 
L 217.370695 250.825846 
L 217.678717 206.163692 
L 217.986738 221.051077 
L 218.294759 228.494769 
L 218.602781 213.607385 
L 218.910802 176.388923 
L 219.218824 176.388923 
L 219.526845 174.528 
L 219.834866 217.329231 
L 220.142888 235.938462 
L 220.450909 217.329231 
L 220.75893 215.468308 
L 221.374973 193.137231 
L 221.682995 204.302769 
L 221.991016 226.633846 
L 222.607059 181.971692 
L 222.91508 196.859077 
L 223.223102 200.580923 
L 223.531123 213.607385 
L 223.839144 180.110769 
L 224.147166 161.501538 
L 224.455187 163.362462 
L 224.763209 189.415385 
L 225.07123 237.799385 
L 225.379251 232.216615 
L 225.687273 215.468308 
L 225.995294 208.024615 
L 226.303316 222.912 
L 226.611337 224.772923 
L 227.22738 172.667077 
L 227.535401 174.528 
L 227.843422 189.415385 
L 228.151444 167.084308 
L 228.459465 154.057846 
L 228.767487 152.196923 
L 229.075508 148.475077 
L 229.383529 124.283077 
L 229.691551 142.892308 
L 229.999572 154.057846 
L 230.307594 185.693538 
L 230.615615 185.693538 
L 230.923636 221.051077 
L 231.231658 232.216615 
L 231.539679 187.554462 
L 231.847701 161.501538 
L 232.463743 208.024615 
L 232.771765 189.415385 
L 233.079786 187.554462 
L 233.387807 154.057846 
L 233.695829 142.892308 
L 234.00385 167.084308 
L 234.311872 181.971692 
L 234.619893 176.388923 
L 234.927914 222.912 
L 235.235936 228.494769 
L 235.543957 174.528 
L 235.851979 181.971692 
L 236.16 174.528 
L 236.468021 196.859077 
L 236.776043 185.693538 
L 237.084064 167.084308 
L 237.392086 163.362462 
L 238.008128 139.170462 
L 238.31615 170.806154 
L 238.624171 178.249846 
L 239.240214 137.309538 
L 239.548235 144.753231 
L 239.856257 165.223385 
L 240.164278 165.223385 
L 240.472299 163.362462 
L 240.780321 154.057846 
L 241.088342 152.196923 
L 241.396364 189.415385 
L 241.704385 183.832615 
L 242.012406 159.640615 
L 242.320428 193.137231 
L 242.936471 185.693538 
L 243.244492 163.362462 
L 243.552513 126.144 
L 243.860535 114.978462 
L 244.168556 129.865846 
L 244.476578 163.362462 
L 244.784599 161.501538 
L 245.09262 157.779692 
L 245.400642 159.640615 
L 245.708663 163.362462 
L 246.016684 159.640615 
L 246.324706 181.971692 
L 246.632727 185.693538 
L 246.940749 165.223385 
L 247.24877 165.223385 
L 247.556791 157.779692 
L 247.864813 176.388923 
L 248.172834 176.388923 
L 248.480856 209.885538 
L 248.788877 157.779692 
L 249.40492 183.832615 
L 249.712941 183.832615 
L 250.020963 200.580923 
L 250.328984 234.077538 
L 250.637005 211.746462 
L 250.945027 221.051077 
L 251.253048 256.408615 
L 251.56107 258.269538 
L 251.869091 237.799385 
L 252.177112 256.408615 
L 252.485134 260.130462 
L 253.101176 221.051077 
L 253.717219 234.077538 
L 254.025241 247.104 
L 254.333262 232.216615 
L 254.641283 254.547692 
L 254.949305 267.574154 
L 255.565348 215.468308 
L 256.18139 196.859077 
L 256.489412 165.223385 
L 256.797433 172.667077 
L 257.105455 168.945231 
L 257.413476 213.607385 
L 257.721497 180.110769 
L 258.029519 180.110769 
L 258.33754 181.971692 
L 258.645561 141.031385 
L 258.953583 135.448615 
L 259.261604 155.918769 
L 259.569626 152.196923 
L 259.877647 180.110769 
L 260.185668 193.137231 
L 260.49369 196.859077 
L 260.801711 178.249846 
L 261.109733 144.753231 
L 261.417754 154.057846 
L 261.725775 146.614154 
L 262.033797 176.388923 
L 262.341818 187.554462 
L 262.64984 168.945231 
L 262.957861 176.388923 
L 263.265882 154.057846 
L 263.881925 154.057846 
L 264.189947 107.534769 
L 264.805989 167.084308 
L 265.114011 155.918769 
L 265.422032 154.057846 
L 265.730053 185.693538 
L 266.038075 165.223385 
L 266.346096 183.832615 
L 266.654118 163.362462 
L 266.962139 204.302769 
L 267.27016 198.72 
L 267.578182 221.051077 
L 267.886203 213.607385 
L 268.194225 217.329231 
L 268.502246 202.441846 
L 268.810267 204.302769 
L 269.118289 209.885538 
L 269.42631 221.051077 
L 269.734332 221.051077 
L 270.042353 217.329231 
L 270.350374 237.799385 
L 270.658396 234.077538 
L 270.966417 237.799385 
L 271.274439 248.964923 
L 271.890481 221.051077 
L 272.198503 213.607385 
L 272.506524 194.998154 
L 272.814545 193.137231 
L 273.122567 154.057846 
L 273.430588 152.196923 
L 273.73861 208.024615 
L 274.046631 204.302769 
L 274.354652 211.746462 
L 274.662674 170.806154 
L 274.970695 168.945231 
L 275.278717 168.945231 
L 275.586738 144.753231 
L 275.894759 159.640615 
L 276.202781 222.912 
L 276.510802 208.024615 
L 276.818824 209.885538 
L 277.126845 191.276308 
L 277.434866 189.415385 
L 277.742888 189.415385 
L 278.050909 170.806154 
L 278.35893 144.753231 
L 278.666952 103.812923 
L 278.974973 148.475077 
L 279.282995 155.918769 
L 279.591016 131.726769 
L 280.207059 180.110769 
L 280.51508 150.336 
L 280.823102 144.753231 
L 281.131123 183.832615 
L 281.439144 178.249846 
L 281.747166 159.640615 
L 282.055187 208.024615 
L 282.363209 204.302769 
L 282.67123 198.72 
L 282.979251 224.772923 
L 283.287273 228.494769 
L 283.595294 215.468308 
L 283.903316 208.024615 
L 284.211337 206.163692 
L 284.519358 194.998154 
L 284.82738 170.806154 
L 285.135401 202.441846 
L 285.443422 204.302769 
L 285.751444 170.806154 
L 286.059465 191.276308 
L 286.367487 165.223385 
L 286.675508 185.693538 
L 286.983529 159.640615 
L 287.291551 157.779692 
L 287.599572 183.832615 
L 287.907594 161.501538 
L 288.523636 189.415385 
L 289.139679 208.024615 
L 289.447701 189.415385 
L 289.755722 183.832615 
L 290.063743 198.72 
L 290.371765 180.110769 
L 290.679786 176.388923 
L 290.987807 194.998154 
L 291.295829 168.945231 
L 291.60385 163.362462 
L 291.911872 183.832615 
L 292.219893 141.031385 
L 292.527914 168.945231 
L 292.835936 181.971692 
L 293.143957 209.885538 
L 293.76 198.72 
L 294.068021 181.971692 
L 294.376043 187.554462 
L 294.684064 176.388923 
L 294.992086 176.388923 
L 295.300107 148.475077 
L 295.608128 163.362462 
L 295.91615 167.084308 
L 296.532193 129.865846 
L 296.840214 144.753231 
L 297.148235 128.004923 
L 297.456257 122.422154 
L 297.764278 141.031385 
L 298.072299 148.475077 
L 298.688342 181.971692 
L 298.996364 157.779692 
L 299.304385 157.779692 
L 299.612406 167.084308 
L 299.920428 172.667077 
L 300.536471 172.667077 
L 300.844492 139.170462 
L 301.152513 142.892308 
L 301.460535 124.283077 
L 301.768556 83.342769 
L 302.384599 114.978462 
L 302.69262 120.561231 
L 303.308663 167.084308 
L 303.616684 167.084308 
L 303.924706 165.223385 
L 304.232727 129.865846 
L 304.540749 131.726769 
L 304.84877 128.004923 
L 305.156791 131.726769 
L 305.464813 146.614154 
L 305.772834 141.031385 
L 306.080856 154.057846 
L 306.388877 155.918769 
L 306.696898 148.475077 
L 307.00492 146.614154 
L 307.928984 215.468308 
L 308.237005 189.415385 
L 308.545027 189.415385 
L 308.853048 168.945231 
L 309.16107 170.806154 
L 309.777112 133.587692 
L 310.085134 122.422154 
L 310.393155 126.144 
L 310.701176 124.283077 
L 311.009198 168.945231 
L 311.317219 168.945231 
L 311.625241 165.223385 
L 311.933262 142.892308 
L 312.241283 146.614154 
L 312.549305 176.388923 
L 312.857326 168.945231 
L 313.165348 170.806154 
L 313.473369 200.580923 
L 314.089412 185.693538 
L 314.397433 181.971692 
L 314.705455 174.528 
L 315.013476 161.501538 
L 315.321497 126.144 
L 315.629519 148.475077 
L 315.93754 144.753231 
L 316.245561 129.865846 
L 316.553583 126.144 
L 316.861604 161.501538 
L 317.169626 213.607385 
L 317.477647 211.746462 
L 317.785668 235.938462 
L 318.09369 232.216615 
L 319.017754 202.441846 
L 319.325775 202.441846 
L 319.633797 194.998154 
L 319.941818 180.110769 
L 320.24984 183.832615 
L 320.865882 157.779692 
L 321.173904 144.753231 
L 321.789947 165.223385 
L 322.097968 167.084308 
L 322.405989 155.918769 
L 322.714011 185.693538 
L 323.022032 198.72 
L 323.330053 181.971692 
L 323.638075 213.607385 
L 323.946096 221.051077 
L 324.87016 165.223385 
L 325.794225 232.216615 
L 326.102246 232.216615 
L 326.410267 224.772923 
L 326.718289 235.938462 
L 327.334332 202.441846 
L 327.642353 208.024615 
L 327.950374 208.024615 
L 328.566417 193.137231 
L 328.874439 204.302769 
L 329.18246 208.024615 
L 329.490481 193.137231 
L 329.798503 193.137231 
L 330.106524 196.859077 
L 331.030588 241.521231 
L 331.33861 194.998154 
L 331.646631 209.885538 
L 331.954652 213.607385 
L 332.570695 198.72 
L 332.878717 234.077538 
L 333.186738 224.772923 
L 333.494759 202.441846 
L 333.802781 215.468308 
L 334.110802 198.72 
L 334.418824 194.998154 
L 334.726845 196.859077 
L 335.034866 202.441846 
L 335.342888 183.832615 
L 335.650909 198.72 
L 335.95893 180.110769 
L 336.266952 187.554462 
L 336.574973 206.163692 
L 336.882995 213.607385 
L 337.191016 200.580923 
L 337.499037 206.163692 
L 338.11508 161.501538 
L 339.039144 183.832615 
L 339.347166 172.667077 
L 339.655187 176.388923 
L 339.963209 168.945231 
L 340.27123 191.276308 
L 340.579251 204.302769 
L 340.887273 178.249846 
L 341.195294 208.024615 
L 341.503316 209.885538 
L 341.811337 194.998154 
L 342.119358 217.329231 
L 342.42738 206.163692 
L 342.735401 209.885538 
L 343.043422 224.772923 
L 343.351444 219.190154 
L 343.659465 206.163692 
L 343.967487 209.885538 
L 344.275508 224.772923 
L 344.891551 206.163692 
L 345.199572 183.832615 
L 345.507594 202.441846 
L 345.815615 139.170462 
L 346.123636 155.918769 
L 346.739679 163.362462 
L 347.047701 157.779692 
L 347.355722 168.945231 
L 347.663743 167.084308 
L 347.971765 178.249846 
L 348.279786 221.051077 
L 348.587807 217.329231 
L 348.895829 191.276308 
L 349.20385 221.051077 
L 349.511872 219.190154 
L 349.819893 219.190154 
L 350.127914 193.137231 
L 350.435936 189.415385 
L 350.743957 187.554462 
L 351.051979 157.779692 
L 351.36 185.693538 
L 351.668021 193.137231 
L 351.976043 183.832615 
L 352.284064 209.885538 
L 352.592086 208.024615 
L 352.900107 200.580923 
L 353.208128 196.859077 
L 353.51615 204.302769 
L 354.132193 187.554462 
L 354.440214 191.276308 
L 355.056257 161.501538 
L 355.672299 139.170462 
L 355.980321 152.196923 
L 356.288342 159.640615 
L 357.212406 148.475077 
L 357.520428 146.614154 
L 357.828449 118.700308 
L 358.136471 118.700308 
L 358.444492 122.422154 
L 358.752513 111.256615 
L 359.060535 120.561231 
L 359.368556 124.283077 
L 359.676578 124.283077 
L 359.984599 113.117538 
L 360.29262 114.978462 
L 360.600642 122.422154 
L 360.908663 122.422154 
L 361.216684 163.362462 
L 361.524706 167.084308 
L 361.832727 152.196923 
L 362.140749 167.084308 
L 362.44877 159.640615 
L 362.756791 146.614154 
L 363.064813 144.753231 
L 363.372834 157.779692 
L 363.680856 165.223385 
L 363.988877 165.223385 
L 364.296898 155.918769 
L 364.60492 163.362462 
L 365.220963 196.859077 
L 365.528984 193.137231 
L 365.837005 213.607385 
L 366.145027 222.912 
L 366.453048 208.024615 
L 366.76107 163.362462 
L 367.069091 172.667077 
L 367.377112 172.667077 
L 367.685134 148.475077 
L 367.993155 142.892308 
L 368.301176 180.110769 
L 368.609198 196.859077 
L 369.533262 181.971692 
L 369.841283 178.249846 
L 370.149305 191.276308 
L 370.457326 196.859077 
L 370.765348 208.024615 
L 371.073369 202.441846 
L 371.38139 193.137231 
L 371.689412 209.885538 
L 371.997433 261.991385 
L 372.305455 271.296 
L 372.613476 269.435077 
L 372.921497 295.488 
L 373.53754 245.243077 
L 373.845561 226.633846 
L 374.153583 222.912 
L 374.461604 239.660308 
L 375.077647 235.938462 
L 375.69369 181.971692 
L 376.309733 217.329231 
L 376.617754 198.72 
L 376.925775 141.031385 
L 377.233797 159.640615 
L 377.541818 144.753231 
L 377.84984 141.031385 
L 378.157861 141.031385 
L 378.465882 128.004923 
L 378.773904 109.395692 
L 379.081925 170.806154 
L 379.389947 185.693538 
L 379.697968 167.084308 
L 380.622032 155.918769 
L 381.238075 204.302769 
L 381.546096 208.024615 
L 381.854118 219.190154 
L 382.162139 237.799385 
L 383.086203 265.713231 
L 383.702246 248.964923 
L 384.010267 241.521231 
L 384.318289 191.276308 
L 384.62631 202.441846 
L 384.934332 200.580923 
L 385.242353 204.302769 
L 385.550374 226.633846 
L 385.858396 230.355692 
L 386.166417 230.355692 
L 386.474439 189.415385 
L 386.78246 213.607385 
L 387.090481 206.163692 
L 387.398503 209.885538 
L 388.014545 172.667077 
L 388.322567 159.640615 
L 388.630588 200.580923 
L 388.93861 224.772923 
L 389.246631 198.72 
L 389.554652 154.057846 
L 389.862674 141.031385 
L 390.170695 152.196923 
L 390.478717 148.475077 
L 390.786738 148.475077 
L 391.094759 133.587692 
L 391.402781 198.72 
L 391.710802 194.998154 
L 392.018824 202.441846 
L 392.326845 200.580923 
L 392.634866 200.580923 
L 392.942888 221.051077 
L 393.250909 204.302769 
L 393.55893 228.494769 
L 393.866952 213.607385 
L 394.174973 206.163692 
L 394.482995 217.329231 
L 394.791016 221.051077 
L 395.099037 235.938462 
L 395.407059 208.024615 
L 395.71508 202.441846 
L 396.023102 168.945231 
L 396.331123 178.249846 
L 396.639144 178.249846 
L 396.947166 154.057846 
L 397.255187 148.475077 
L 397.563209 189.415385 
L 397.87123 178.249846 
L 398.179251 187.554462 
L 398.487273 202.441846 
L 398.487273 202.441846 
" clip-path="url(#pea3a2745d3)" style="fill: none; stroke: #1f77b4; stroke-width: 1.5; stroke-linecap: square"/>
   </g>
   <g id="patch_3">
    <path d="M 57.6 307.584 
L 57.6 41.472 
" style="fill: none; stroke: #000000; stroke-width: 0.8; stroke-linejoin: miter; stroke-linecap: square"/>
   </g>
   <g id="patch_4">
    <path d="M 414.72 307.584 
L 414.72 41.472 
" style="fill: none; stroke: #000000; stroke-width: 0.8; stroke-linejoin: miter; stroke-linecap: square"/>
   </g>
   <g id="patch_5">
    <path d="M 57.6 307.584 
L 414.72 307.584 
" style="fill: none; stroke: #000000; stroke-width: 0.8; stroke-linejoin: miter; stroke-linecap: square"/>
   </g>
   <g id="patch_6">
    <path d="M 57.6 41.472 
L 414.72 41.472 
" style="fill: none; stroke: #000000; stroke-width: 0.8; stroke-linejoin: miter; stroke-linecap: square"/>
   </g>
   <g id="text_15">
    <!-- Simulated Anealling Cost -->
    <g transform="translate(160.8 35.472)scale(0.12 -0.12)">
     <defs>
      <path id="DejaVuSans-53" d="M 3425 4513 
L 3425 3897 
Q 3066 4069 2747 4153 
Q 2428 4238 2131 4238 
Q 1616 4238 1336 4038 
Q 1056 3838 1056 3469 
Q 1056 3159 1242 3001 
Q 1428 2844 1947 2747 
L 2328 2669 
Q 3034 2534 3370 2195 
Q 3706 1856 3706 1288 
Q 3706 609 3251 259 
Q 2797 -91 1919 -91 
Q 1588 -91 1214 -16 
Q 841 59 441 206 
L 441 856 
Q 825 641 1194 531 
Q 1563 422 1919 422 
Q 2459 422 2753 634 
Q 3047 847 3047 1241 
Q 3047 1584 2836 1778 
Q 2625 1972 2144 2069 
L 1759 2144 
Q 1053 2284 737 2584 
Q 422 2884 422 3419 
Q 422 4038 858 4394 
Q 1294 4750 2059 4750 
Q 2388 4750 2728 4690 
Q 3069 4631 3425 4513 
z
" transform="scale(0.015625)"/>
      <path id="DejaVuSans-69" d="M 603 3500 
L 1178 3500 
L 1178 0 
L 603 0 
L 603 3500 
z
M 603 4863 
L 1178 4863 
L 1178 4134 
L 603 4134 
L 603 4863 
z
" transform="scale(0.015625)"/>
      <path id="DejaVuSans-65" d="M 3597 1894 
L 3597 1613 
L 953 1613 
Q 991 1019 1311 708 
Q 1631 397 2203 397 
Q 2534 397 2845 478 
Q 3156 559 3463 722 
L 3463 178 
Q 3153 47 2828 -22 
Q 2503 -91 2169 -91 
Q 1331 -91 842 396 
Q 353 884 353 1716 
Q 353 2575 817 3079 
Q 1281 3584 2069 3584 
Q 2775 3584 3186 3129 
Q 3597 2675 3597 1894 
z
M 3022 2063 
Q 3016 2534 2758 2815 
Q 2500 3097 2075 3097 
Q 1594 3097 1305 2825 
Q 1016 2553 972 2059 
L 3022 2063 
z
" transform="scale(0.015625)"/>
      <path id="DejaVuSans-64" d="M 2906 2969 
L 2906 4863 
L 3481 4863 
L 3481 0 
L 2906 0 
L 2906 525 
Q 2725 213 2448 61 
Q 2172 -91 1784 -91 
Q 1150 -91 751 415 
Q 353 922 353 1747 
Q 353 2572 751 3078 
Q 1150 3584 1784 3584 
Q 2172 3584 2448 3432 
Q 2725 3281 2906 2969 
z
M 947 1747 
Q 947 1113 1208 752 
Q 1469 391 1925 391 
Q 2381 391 2643 752 
Q 2906 1113 2906 1747 
Q 2906 2381 2643 2742 
Q 2381 3103 1925 3103 
Q 1469 3103 1208 2742 
Q 947 2381 947 1747 
z
" transform="scale(0.015625)"/>
      <path id="DejaVuSans-41" d="M 2188 4044 
L 1331 1722 
L 3047 1722 
L 2188 4044 
z
M 1831 4666 
L 2547 4666 
L 4325 0 
L 3669 0 
L 3244 1197 
L 1141 1197 
L 716 0 
L 50 0 
L 1831 4666 
z
" transform="scale(0.015625)"/>
      <path id="DejaVuSans-67" d="M 2906 1791 
Q 2906 2416 2648 2759 
Q 2391 3103 1925 3103 
Q 1463 3103 1205 2759 
Q 947 2416 947 1791 
Q 947 1169 1205 825 
Q 1463 481 1925 481 
Q 2391 481 2648 825 
Q 2906 1169 2906 1791 
z
M 3481 434 
Q 3481 -459 3084 -895 
Q 2688 -1331 1869 -1331 
Q 1566 -1331 1297 -1286 
Q 1028 -1241 775 -1147 
L 775 -588 
Q 1028 -725 1275 -790 
Q 1522 -856 1778 -856 
Q 2344 -856 2625 -561 
Q 2906 -266 2906 331 
L 2906 616 
Q 2728 306 2450 153 
Q 2172 0 1784 0 
Q 1141 0 747 490 
Q 353 981 353 1791 
Q 353 2603 747 3093 
Q 1141 3584 1784 3584 
Q 2172 3584 2450 3431 
Q 2728 3278 2906 2969 
L 2906 3500 
L 3481 3500 
L 3481 434 
z
" transform="scale(0.015625)"/>
      <path id="DejaVuSans-43" d="M 4122 4306 
L 4122 3641 
Q 3803 3938 3442 4084 
Q 3081 4231 2675 4231 
Q 1875 4231 1450 3742 
Q 1025 3253 1025 2328 
Q 1025 1406 1450 917 
Q 1875 428 2675 428 
Q 3081 428 3442 575 
Q 3803 722 4122 1019 
L 4122 359 
Q 3791 134 3420 21 
Q 3050 -91 2638 -91 
Q 1578 -91 968 557 
Q 359 1206 359 2328 
Q 359 3453 968 4101 
Q 1578 4750 2638 4750 
Q 3056 4750 3426 4639 
Q 3797 4528 4122 4306 
z
" transform="scale(0.015625)"/>
     </defs>
     <use xlink:href="#DejaVuSans-53"/>
     <use xlink:href="#DejaVuSans-69" x="63.476562"/>
     <use xlink:href="#DejaVuSans-6d" x="91.259766"/>
     <use xlink:href="#DejaVuSans-75" x="188.671875"/>
     <use xlink:href="#DejaVuSans-6c" x="252.050781"/>
     <use xlink:href="#DejaVuSans-61" x="279.833984"/>
     <use xlink:href="#DejaVuSans-74" x="341.113281"/>
     <use xlink:href="#DejaVuSans-65" x="380.322266"/>
     <use xlink:href="#DejaVuSans-64" x="441.845703"/>
     <use xlink:href="#DejaVuSans-20" x="505.322266"/>
     <use xlink:href="#DejaVuSans-41" x="537.109375"/>
     <use xlink:href="#DejaVuSans-6e" x="605.517578"/>
     <use xlink:href="#DejaVuSans-65" x="668.896484"/>
     <use xlink:href="#DejaVuSans-61" x="730.419922"/>
     <use xlink:href="#DejaVuSans-6c" x="791.699219"/>
     <use xlink:href="#DejaVuSans-6c" x="819.482422"/>
     <use xlink:href="#DejaVuSans-69" x="847.265625"/>
     <use xlink:href="#DejaVuSans-6e" x="875.048828"/>
     <use xlink:href="#DejaVuSans-67" x="938.427734"/>
     <use xlink:href="#DejaVuSans-20" x="1001.904297"/>
     <use xlink:href="#DejaVuSans-43" x="1033.691406"/>
     <use xlink:href="#DejaVuSans-6f" x="1103.515625"/>
     <use xlink:href="#DejaVuSans-73" x="1164.697266"/>
     <use xlink:href="#DejaVuSans-74" x="1216.796875"/>
    </g>
   </g>
  </g>
 </g>
 <defs>
  <clipPath id="pea3a2745d3">
   <rect x="57.6" y="41.472" width="357.12" height="266.112"/>
  </clipPath>
 </defs>
</svg>
