<?xml version="1.0" encoding="utf-8" standalone="no"?>
<!DOCTYPE svg PUBLIC "-//W3C//DTD SVG 1.1//EN"
  "http://www.w3.org/Graphics/SVG/1.1/DTD/svg11.dtd">
<svg xmlns:xlink="http://www.w3.org/1999/xlink" width="460.8pt" height="345.6pt" viewBox="0 0 460.8 345.6" xmlns="http://www.w3.org/2000/svg" version="1.1">
 <metadata>
  <rdf:RDF xmlns:dc="http://purl.org/dc/elements/1.1/" xmlns:cc="http://creativecommons.org/ns#" xmlns:rdf="http://www.w3.org/1999/02/22-rdf-syntax-ns#">
   <cc:Work>
    <dc:type rdf:resource="http://purl.org/dc/dcmitype/StillImage"/>
    <dc:date>2022-06-01T08:01:46.921185</dc:date>
    <dc:format>image/svg+xml</dc:format>
    <dc:creator>
     <cc:Agent>
      <dc:title>Matplotlib v3.5.1, https://matplotlib.org/</dc:title>
     </cc:Agent>
    </dc:creator>
   </cc:Work>
  </rdf:RDF>
 </metadata>
 <defs>
  <style type="text/css">*{stroke-linejoin: round; stroke-linecap: butt}</style>
 </defs>
 <g id="figure_1">
  <g id="patch_1">
   <path d="M 0 345.6 
L 460.8 345.6 
L 460.8 0 
L 0 0 
z
" style="fill: #ffffff"/>
  </g>
  <g id="axes_1">
   <g id="patch_2">
    <path d="M 57.6 307.584 
L 414.72 307.584 
L 414.72 41.472 
L 57.6 41.472 
z
" style="fill: #ffffff"/>
   </g>
   <g id="matplotlib.axis_1">
    <g id="xtick_1">
     <g id="line2d_1">
      <defs>
       <path id="m6f947dd7d3" d="M 0 0 
L 0 3.5 
" style="stroke: #000000; stroke-width: 0.8"/>
      </defs>
      <g>
       <use xlink:href="#m6f947dd7d3" x="73.832727" y="307.584" style="stroke: #000000; stroke-width: 0.8"/>
      </g>
     </g>
     <g id="text_1">
      <!-- 0 -->
      <g transform="translate(70.651477 322.182437)scale(0.1 -0.1)">
       <defs>
        <path id="DejaVuSans-30" d="M 2034 4250 
Q 1547 4250 1301 3770 
Q 1056 3291 1056 2328 
Q 1056 1369 1301 889 
Q 1547 409 2034 409 
Q 2525 409 2770 889 
Q 3016 1369 3016 2328 
Q 3016 3291 2770 3770 
Q 2525 4250 2034 4250 
z
M 2034 4750 
Q 2819 4750 3233 4129 
Q 3647 3509 3647 2328 
Q 3647 1150 3233 529 
Q 2819 -91 2034 -91 
Q 1250 -91 836 529 
Q 422 1150 422 2328 
Q 422 3509 836 4129 
Q 1250 4750 2034 4750 
z
" transform="scale(0.015625)"/>
       </defs>
       <use xlink:href="#DejaVuSans-30"/>
      </g>
     </g>
    </g>
    <g id="xtick_2">
     <g id="line2d_2">
      <g>
       <use xlink:href="#m6f947dd7d3" x="120.911403" y="307.584" style="stroke: #000000; stroke-width: 0.8"/>
      </g>
     </g>
     <g id="text_2">
      <!-- 500 -->
      <g transform="translate(111.367653 322.182437)scale(0.1 -0.1)">
       <defs>
        <path id="DejaVuSans-35" d="M 691 4666 
L 3169 4666 
L 3169 4134 
L 1269 4134 
L 1269 2991 
Q 1406 3038 1543 3061 
Q 1681 3084 1819 3084 
Q 2600 3084 3056 2656 
Q 3513 2228 3513 1497 
Q 3513 744 3044 326 
Q 2575 -91 1722 -91 
Q 1428 -91 1123 -41 
Q 819 9 494 109 
L 494 744 
Q 775 591 1075 516 
Q 1375 441 1709 441 
Q 2250 441 2565 725 
Q 2881 1009 2881 1497 
Q 2881 1984 2565 2268 
Q 2250 2553 1709 2553 
Q 1456 2553 1204 2497 
Q 953 2441 691 2322 
L 691 4666 
z
" transform="scale(0.015625)"/>
       </defs>
       <use xlink:href="#DejaVuSans-35"/>
       <use xlink:href="#DejaVuSans-30" x="63.623047"/>
       <use xlink:href="#DejaVuSans-30" x="127.246094"/>
      </g>
     </g>
    </g>
    <g id="xtick_3">
     <g id="line2d_3">
      <g>
       <use xlink:href="#m6f947dd7d3" x="167.990078" y="307.584" style="stroke: #000000; stroke-width: 0.8"/>
      </g>
     </g>
     <g id="text_3">
      <!-- 1000 -->
      <g transform="translate(155.265078 322.182437)scale(0.1 -0.1)">
       <defs>
        <path id="DejaVuSans-31" d="M 794 531 
L 1825 531 
L 1825 4091 
L 703 3866 
L 703 4441 
L 1819 4666 
L 2450 4666 
L 2450 531 
L 3481 531 
L 3481 0 
L 794 0 
L 794 531 
z
" transform="scale(0.015625)"/>
       </defs>
       <use xlink:href="#DejaVuSans-31"/>
       <use xlink:href="#DejaVuSans-30" x="63.623047"/>
       <use xlink:href="#DejaVuSans-30" x="127.246094"/>
       <use xlink:href="#DejaVuSans-30" x="190.869141"/>
      </g>
     </g>
    </g>
    <g id="xtick_4">
     <g id="line2d_4">
      <g>
       <use xlink:href="#m6f947dd7d3" x="215.068753" y="307.584" style="stroke: #000000; stroke-width: 0.8"/>
      </g>
     </g>
     <g id="text_4">
      <!-- 1500 -->
      <g transform="translate(202.343753 322.182437)scale(0.1 -0.1)">
       <use xlink:href="#DejaVuSans-31"/>
       <use xlink:href="#DejaVuSans-35" x="63.623047"/>
       <use xlink:href="#DejaVuSans-30" x="127.246094"/>
       <use xlink:href="#DejaVuSans-30" x="190.869141"/>
      </g>
     </g>
    </g>
    <g id="xtick_5">
     <g id="line2d_5">
      <g>
       <use xlink:href="#m6f947dd7d3" x="262.147429" y="307.584" style="stroke: #000000; stroke-width: 0.8"/>
      </g>
     </g>
     <g id="text_5">
      <!-- 2000 -->
      <g transform="translate(249.422429 322.182437)scale(0.1 -0.1)">
       <defs>
        <path id="DejaVuSans-32" d="M 1228 531 
L 3431 531 
L 3431 0 
L 469 0 
L 469 531 
Q 828 903 1448 1529 
Q 2069 2156 2228 2338 
Q 2531 2678 2651 2914 
Q 2772 3150 2772 3378 
Q 2772 3750 2511 3984 
Q 2250 4219 1831 4219 
Q 1534 4219 1204 4116 
Q 875 4013 500 3803 
L 500 4441 
Q 881 4594 1212 4672 
Q 1544 4750 1819 4750 
Q 2544 4750 2975 4387 
Q 3406 4025 3406 3419 
Q 3406 3131 3298 2873 
Q 3191 2616 2906 2266 
Q 2828 2175 2409 1742 
Q 1991 1309 1228 531 
z
" transform="scale(0.015625)"/>
       </defs>
       <use xlink:href="#DejaVuSans-32"/>
       <use xlink:href="#DejaVuSans-30" x="63.623047"/>
       <use xlink:href="#DejaVuSans-30" x="127.246094"/>
       <use xlink:href="#DejaVuSans-30" x="190.869141"/>
      </g>
     </g>
    </g>
    <g id="xtick_6">
     <g id="line2d_6">
      <g>
       <use xlink:href="#m6f947dd7d3" x="309.226104" y="307.584" style="stroke: #000000; stroke-width: 0.8"/>
      </g>
     </g>
     <g id="text_6">
      <!-- 2500 -->
      <g transform="translate(296.501104 322.182437)scale(0.1 -0.1)">
       <use xlink:href="#DejaVuSans-32"/>
       <use xlink:href="#DejaVuSans-35" x="63.623047"/>
       <use xlink:href="#DejaVuSans-30" x="127.246094"/>
       <use xlink:href="#DejaVuSans-30" x="190.869141"/>
      </g>
     </g>
    </g>
    <g id="xtick_7">
     <g id="line2d_7">
      <g>
       <use xlink:href="#m6f947dd7d3" x="356.30478" y="307.584" style="stroke: #000000; stroke-width: 0.8"/>
      </g>
     </g>
     <g id="text_7">
      <!-- 3000 -->
      <g transform="translate(343.57978 322.182437)scale(0.1 -0.1)">
       <defs>
        <path id="DejaVuSans-33" d="M 2597 2516 
Q 3050 2419 3304 2112 
Q 3559 1806 3559 1356 
Q 3559 666 3084 287 
Q 2609 -91 1734 -91 
Q 1441 -91 1130 -33 
Q 819 25 488 141 
L 488 750 
Q 750 597 1062 519 
Q 1375 441 1716 441 
Q 2309 441 2620 675 
Q 2931 909 2931 1356 
Q 2931 1769 2642 2001 
Q 2353 2234 1838 2234 
L 1294 2234 
L 1294 2753 
L 1863 2753 
Q 2328 2753 2575 2939 
Q 2822 3125 2822 3475 
Q 2822 3834 2567 4026 
Q 2313 4219 1838 4219 
Q 1578 4219 1281 4162 
Q 984 4106 628 3988 
L 628 4550 
Q 988 4650 1302 4700 
Q 1616 4750 1894 4750 
Q 2613 4750 3031 4423 
Q 3450 4097 3450 3541 
Q 3450 3153 3228 2886 
Q 3006 2619 2597 2516 
z
" transform="scale(0.015625)"/>
       </defs>
       <use xlink:href="#DejaVuSans-33"/>
       <use xlink:href="#DejaVuSans-30" x="63.623047"/>
       <use xlink:href="#DejaVuSans-30" x="127.246094"/>
       <use xlink:href="#DejaVuSans-30" x="190.869141"/>
      </g>
     </g>
    </g>
    <g id="xtick_8">
     <g id="line2d_8">
      <g>
       <use xlink:href="#m6f947dd7d3" x="403.383455" y="307.584" style="stroke: #000000; stroke-width: 0.8"/>
      </g>
     </g>
     <g id="text_8">
      <!-- 3500 -->
      <g transform="translate(390.658455 322.182437)scale(0.1 -0.1)">
       <use xlink:href="#DejaVuSans-33"/>
       <use xlink:href="#DejaVuSans-35" x="63.623047"/>
       <use xlink:href="#DejaVuSans-30" x="127.246094"/>
       <use xlink:href="#DejaVuSans-30" x="190.869141"/>
      </g>
     </g>
    </g>
    <g id="text_9">
     <!-- num swaps -->
     <g transform="translate(207.826406 335.860562)scale(0.1 -0.1)">
      <defs>
       <path id="DejaVuSans-6e" d="M 3513 2113 
L 3513 0 
L 2938 0 
L 2938 2094 
Q 2938 2591 2744 2837 
Q 2550 3084 2163 3084 
Q 1697 3084 1428 2787 
Q 1159 2491 1159 1978 
L 1159 0 
L 581 0 
L 581 3500 
L 1159 3500 
L 1159 2956 
Q 1366 3272 1645 3428 
Q 1925 3584 2291 3584 
Q 2894 3584 3203 3211 
Q 3513 2838 3513 2113 
z
" transform="scale(0.015625)"/>
       <path id="DejaVuSans-75" d="M 544 1381 
L 544 3500 
L 1119 3500 
L 1119 1403 
Q 1119 906 1312 657 
Q 1506 409 1894 409 
Q 2359 409 2629 706 
Q 2900 1003 2900 1516 
L 2900 3500 
L 3475 3500 
L 3475 0 
L 2900 0 
L 2900 538 
Q 2691 219 2414 64 
Q 2138 -91 1772 -91 
Q 1169 -91 856 284 
Q 544 659 544 1381 
z
M 1991 3584 
L 1991 3584 
z
" transform="scale(0.015625)"/>
       <path id="DejaVuSans-6d" d="M 3328 2828 
Q 3544 3216 3844 3400 
Q 4144 3584 4550 3584 
Q 5097 3584 5394 3201 
Q 5691 2819 5691 2113 
L 5691 0 
L 5113 0 
L 5113 2094 
Q 5113 2597 4934 2840 
Q 4756 3084 4391 3084 
Q 3944 3084 3684 2787 
Q 3425 2491 3425 1978 
L 3425 0 
L 2847 0 
L 2847 2094 
Q 2847 2600 2669 2842 
Q 2491 3084 2119 3084 
Q 1678 3084 1418 2786 
Q 1159 2488 1159 1978 
L 1159 0 
L 581 0 
L 581 3500 
L 1159 3500 
L 1159 2956 
Q 1356 3278 1631 3431 
Q 1906 3584 2284 3584 
Q 2666 3584 2933 3390 
Q 3200 3197 3328 2828 
z
" transform="scale(0.015625)"/>
       <path id="DejaVuSans-20" transform="scale(0.015625)"/>
       <path id="DejaVuSans-73" d="M 2834 3397 
L 2834 2853 
Q 2591 2978 2328 3040 
Q 2066 3103 1784 3103 
Q 1356 3103 1142 2972 
Q 928 2841 928 2578 
Q 928 2378 1081 2264 
Q 1234 2150 1697 2047 
L 1894 2003 
Q 2506 1872 2764 1633 
Q 3022 1394 3022 966 
Q 3022 478 2636 193 
Q 2250 -91 1575 -91 
Q 1294 -91 989 -36 
Q 684 19 347 128 
L 347 722 
Q 666 556 975 473 
Q 1284 391 1588 391 
Q 1994 391 2212 530 
Q 2431 669 2431 922 
Q 2431 1156 2273 1281 
Q 2116 1406 1581 1522 
L 1381 1569 
Q 847 1681 609 1914 
Q 372 2147 372 2553 
Q 372 3047 722 3315 
Q 1072 3584 1716 3584 
Q 2034 3584 2315 3537 
Q 2597 3491 2834 3397 
z
" transform="scale(0.015625)"/>
       <path id="DejaVuSans-77" d="M 269 3500 
L 844 3500 
L 1563 769 
L 2278 3500 
L 2956 3500 
L 3675 769 
L 4391 3500 
L 4966 3500 
L 4050 0 
L 3372 0 
L 2619 2869 
L 1863 0 
L 1184 0 
L 269 3500 
z
" transform="scale(0.015625)"/>
       <path id="DejaVuSans-61" d="M 2194 1759 
Q 1497 1759 1228 1600 
Q 959 1441 959 1056 
Q 959 750 1161 570 
Q 1363 391 1709 391 
Q 2188 391 2477 730 
Q 2766 1069 2766 1631 
L 2766 1759 
L 2194 1759 
z
M 3341 1997 
L 3341 0 
L 2766 0 
L 2766 531 
Q 2569 213 2275 61 
Q 1981 -91 1556 -91 
Q 1019 -91 701 211 
Q 384 513 384 1019 
Q 384 1609 779 1909 
Q 1175 2209 1959 2209 
L 2766 2209 
L 2766 2266 
Q 2766 2663 2505 2880 
Q 2244 3097 1772 3097 
Q 1472 3097 1187 3025 
Q 903 2953 641 2809 
L 641 3341 
Q 956 3463 1253 3523 
Q 1550 3584 1831 3584 
Q 2591 3584 2966 3190 
Q 3341 2797 3341 1997 
z
" transform="scale(0.015625)"/>
       <path id="DejaVuSans-70" d="M 1159 525 
L 1159 -1331 
L 581 -1331 
L 581 3500 
L 1159 3500 
L 1159 2969 
Q 1341 3281 1617 3432 
Q 1894 3584 2278 3584 
Q 2916 3584 3314 3078 
Q 3713 2572 3713 1747 
Q 3713 922 3314 415 
Q 2916 -91 2278 -91 
Q 1894 -91 1617 61 
Q 1341 213 1159 525 
z
M 3116 1747 
Q 3116 2381 2855 2742 
Q 2594 3103 2138 3103 
Q 1681 3103 1420 2742 
Q 1159 2381 1159 1747 
Q 1159 1113 1420 752 
Q 1681 391 2138 391 
Q 2594 391 2855 752 
Q 3116 1113 3116 1747 
z
" transform="scale(0.015625)"/>
      </defs>
      <use xlink:href="#DejaVuSans-6e"/>
      <use xlink:href="#DejaVuSans-75" x="63.378906"/>
      <use xlink:href="#DejaVuSans-6d" x="126.757812"/>
      <use xlink:href="#DejaVuSans-20" x="224.169922"/>
      <use xlink:href="#DejaVuSans-73" x="255.957031"/>
      <use xlink:href="#DejaVuSans-77" x="308.056641"/>
      <use xlink:href="#DejaVuSans-61" x="389.84375"/>
      <use xlink:href="#DejaVuSans-70" x="451.123047"/>
      <use xlink:href="#DejaVuSans-73" x="514.599609"/>
     </g>
    </g>
   </g>
   <g id="matplotlib.axis_2">
    <g id="ytick_1">
     <g id="line2d_9">
      <defs>
       <path id="mffa30a8bcf" d="M 0 0 
L -3.5 0 
" style="stroke: #000000; stroke-width: 0.8"/>
      </defs>
      <g>
       <use xlink:href="#mffa30a8bcf" x="57.6" y="271.649168" style="stroke: #000000; stroke-width: 0.8"/>
      </g>
     </g>
     <g id="text_10">
      <!-- 850 -->
      <g transform="translate(31.5125 275.448387)scale(0.1 -0.1)">
       <defs>
        <path id="DejaVuSans-38" d="M 2034 2216 
Q 1584 2216 1326 1975 
Q 1069 1734 1069 1313 
Q 1069 891 1326 650 
Q 1584 409 2034 409 
Q 2484 409 2743 651 
Q 3003 894 3003 1313 
Q 3003 1734 2745 1975 
Q 2488 2216 2034 2216 
z
M 1403 2484 
Q 997 2584 770 2862 
Q 544 3141 544 3541 
Q 544 4100 942 4425 
Q 1341 4750 2034 4750 
Q 2731 4750 3128 4425 
Q 3525 4100 3525 3541 
Q 3525 3141 3298 2862 
Q 3072 2584 2669 2484 
Q 3125 2378 3379 2068 
Q 3634 1759 3634 1313 
Q 3634 634 3220 271 
Q 2806 -91 2034 -91 
Q 1263 -91 848 271 
Q 434 634 434 1313 
Q 434 1759 690 2068 
Q 947 2378 1403 2484 
z
M 1172 3481 
Q 1172 3119 1398 2916 
Q 1625 2713 2034 2713 
Q 2441 2713 2670 2916 
Q 2900 3119 2900 3481 
Q 2900 3844 2670 4047 
Q 2441 4250 2034 4250 
Q 1625 4250 1398 4047 
Q 1172 3844 1172 3481 
z
" transform="scale(0.015625)"/>
       </defs>
       <use xlink:href="#DejaVuSans-38"/>
       <use xlink:href="#DejaVuSans-35" x="63.623047"/>
       <use xlink:href="#DejaVuSans-30" x="127.246094"/>
      </g>
     </g>
    </g>
    <g id="ytick_2">
     <g id="line2d_10">
      <g>
       <use xlink:href="#mffa30a8bcf" x="57.6" y="227.503182" style="stroke: #000000; stroke-width: 0.8"/>
      </g>
     </g>
     <g id="text_11">
      <!-- 900 -->
      <g transform="translate(31.5125 231.302401)scale(0.1 -0.1)">
       <defs>
        <path id="DejaVuSans-39" d="M 703 97 
L 703 672 
Q 941 559 1184 500 
Q 1428 441 1663 441 
Q 2288 441 2617 861 
Q 2947 1281 2994 2138 
Q 2813 1869 2534 1725 
Q 2256 1581 1919 1581 
Q 1219 1581 811 2004 
Q 403 2428 403 3163 
Q 403 3881 828 4315 
Q 1253 4750 1959 4750 
Q 2769 4750 3195 4129 
Q 3622 3509 3622 2328 
Q 3622 1225 3098 567 
Q 2575 -91 1691 -91 
Q 1453 -91 1209 -44 
Q 966 3 703 97 
z
M 1959 2075 
Q 2384 2075 2632 2365 
Q 2881 2656 2881 3163 
Q 2881 3666 2632 3958 
Q 2384 4250 1959 4250 
Q 1534 4250 1286 3958 
Q 1038 3666 1038 3163 
Q 1038 2656 1286 2365 
Q 1534 2075 1959 2075 
z
" transform="scale(0.015625)"/>
       </defs>
       <use xlink:href="#DejaVuSans-39"/>
       <use xlink:href="#DejaVuSans-30" x="63.623047"/>
       <use xlink:href="#DejaVuSans-30" x="127.246094"/>
      </g>
     </g>
    </g>
    <g id="ytick_3">
     <g id="line2d_11">
      <g>
       <use xlink:href="#mffa30a8bcf" x="57.6" y="183.357197" style="stroke: #000000; stroke-width: 0.8"/>
      </g>
     </g>
     <g id="text_12">
      <!-- 950 -->
      <g transform="translate(31.5125 187.156416)scale(0.1 -0.1)">
       <use xlink:href="#DejaVuSans-39"/>
       <use xlink:href="#DejaVuSans-35" x="63.623047"/>
       <use xlink:href="#DejaVuSans-30" x="127.246094"/>
      </g>
     </g>
    </g>
    <g id="ytick_4">
     <g id="line2d_12">
      <g>
       <use xlink:href="#mffa30a8bcf" x="57.6" y="139.211212" style="stroke: #000000; stroke-width: 0.8"/>
      </g>
     </g>
     <g id="text_13">
      <!-- 1000 -->
      <g transform="translate(25.15 143.01043)scale(0.1 -0.1)">
       <use xlink:href="#DejaVuSans-31"/>
       <use xlink:href="#DejaVuSans-30" x="63.623047"/>
       <use xlink:href="#DejaVuSans-30" x="127.246094"/>
       <use xlink:href="#DejaVuSans-30" x="190.869141"/>
      </g>
     </g>
    </g>
    <g id="ytick_5">
     <g id="line2d_13">
      <g>
       <use xlink:href="#mffa30a8bcf" x="57.6" y="95.065226" style="stroke: #000000; stroke-width: 0.8"/>
      </g>
     </g>
     <g id="text_14">
      <!-- 1050 -->
      <g transform="translate(25.15 98.864445)scale(0.1 -0.1)">
       <use xlink:href="#DejaVuSans-31"/>
       <use xlink:href="#DejaVuSans-30" x="63.623047"/>
       <use xlink:href="#DejaVuSans-35" x="127.246094"/>
       <use xlink:href="#DejaVuSans-30" x="190.869141"/>
      </g>
     </g>
    </g>
    <g id="ytick_6">
     <g id="line2d_14">
      <g>
       <use xlink:href="#mffa30a8bcf" x="57.6" y="50.919241" style="stroke: #000000; stroke-width: 0.8"/>
      </g>
     </g>
     <g id="text_15">
      <!-- 1100 -->
      <g transform="translate(25.15 54.71846)scale(0.1 -0.1)">
       <use xlink:href="#DejaVuSans-31"/>
       <use xlink:href="#DejaVuSans-31" x="63.623047"/>
       <use xlink:href="#DejaVuSans-30" x="127.246094"/>
       <use xlink:href="#DejaVuSans-30" x="190.869141"/>
      </g>
     </g>
    </g>
    <g id="text_16">
     <!-- total cost -->
     <g transform="translate(19.070312 197.923313)rotate(-90)scale(0.1 -0.1)">
      <defs>
       <path id="DejaVuSans-74" d="M 1172 4494 
L 1172 3500 
L 2356 3500 
L 2356 3053 
L 1172 3053 
L 1172 1153 
Q 1172 725 1289 603 
Q 1406 481 1766 481 
L 2356 481 
L 2356 0 
L 1766 0 
Q 1100 0 847 248 
Q 594 497 594 1153 
L 594 3053 
L 172 3053 
L 172 3500 
L 594 3500 
L 594 4494 
L 1172 4494 
z
" transform="scale(0.015625)"/>
       <path id="DejaVuSans-6f" d="M 1959 3097 
Q 1497 3097 1228 2736 
Q 959 2375 959 1747 
Q 959 1119 1226 758 
Q 1494 397 1959 397 
Q 2419 397 2687 759 
Q 2956 1122 2956 1747 
Q 2956 2369 2687 2733 
Q 2419 3097 1959 3097 
z
M 1959 3584 
Q 2709 3584 3137 3096 
Q 3566 2609 3566 1747 
Q 3566 888 3137 398 
Q 2709 -91 1959 -91 
Q 1206 -91 779 398 
Q 353 888 353 1747 
Q 353 2609 779 3096 
Q 1206 3584 1959 3584 
z
" transform="scale(0.015625)"/>
       <path id="DejaVuSans-6c" d="M 603 4863 
L 1178 4863 
L 1178 0 
L 603 0 
L 603 4863 
z
" transform="scale(0.015625)"/>
       <path id="DejaVuSans-63" d="M 3122 3366 
L 3122 2828 
Q 2878 2963 2633 3030 
Q 2388 3097 2138 3097 
Q 1578 3097 1268 2742 
Q 959 2388 959 1747 
Q 959 1106 1268 751 
Q 1578 397 2138 397 
Q 2388 397 2633 464 
Q 2878 531 3122 666 
L 3122 134 
Q 2881 22 2623 -34 
Q 2366 -91 2075 -91 
Q 1284 -91 818 406 
Q 353 903 353 1747 
Q 353 2603 823 3093 
Q 1294 3584 2113 3584 
Q 2378 3584 2631 3529 
Q 2884 3475 3122 3366 
z
" transform="scale(0.015625)"/>
      </defs>
      <use xlink:href="#DejaVuSans-74"/>
      <use xlink:href="#DejaVuSans-6f" x="39.208984"/>
      <use xlink:href="#DejaVuSans-74" x="100.390625"/>
      <use xlink:href="#DejaVuSans-61" x="139.599609"/>
      <use xlink:href="#DejaVuSans-6c" x="200.878906"/>
      <use xlink:href="#DejaVuSans-20" x="228.662109"/>
      <use xlink:href="#DejaVuSans-63" x="260.449219"/>
      <use xlink:href="#DejaVuSans-6f" x="315.429688"/>
      <use xlink:href="#DejaVuSans-73" x="376.611328"/>
      <use xlink:href="#DejaVuSans-74" x="428.710938"/>
     </g>
    </g>
   </g>
   <g id="line2d_15">
    <path d="M 73.832727 87.118949 
L 74.021042 85.353109 
L 74.209357 85.353109 
L 74.397671 87.118949 
L 74.774301 94.182307 
L 74.962615 95.065226 
L 75.15093 93.299387 
L 75.339245 93.299387 
L 75.715874 101.245664 
L 75.904189 100.362745 
L 76.280818 123.318657 
L 76.469133 121.552818 
L 76.657448 115.37238 
L 76.845762 118.904058 
L 77.034077 103.894423 
L 77.222392 107.426102 
L 77.410707 106.543182 
L 77.599021 103.011504 
L 77.787336 108.309022 
L 78.163965 103.894423 
L 78.35228 99.479825 
L 78.540595 102.128584 
L 78.72891 90.650628 
L 78.917224 99.479825 
L 79.105539 95.065226 
L 79.293854 83.58727 
L 79.482168 84.47019 
L 79.670483 86.236029 
L 79.858798 86.236029 
L 80.235427 99.479825 
L 80.423742 100.362745 
L 80.612057 100.362745 
L 80.800371 95.065226 
L 80.988686 98.596905 
L 81.177001 90.650628 
L 81.365315 93.299387 
L 81.55363 89.767708 
L 81.741945 89.767708 
L 82.118574 94.182307 
L 82.306889 92.416467 
L 82.495204 93.299387 
L 82.683518 89.767708 
L 82.871833 90.650628 
L 83.060148 88.001869 
L 83.248462 93.299387 
L 83.436777 95.065226 
L 83.625092 101.245664 
L 83.813406 118.904058 
L 84.001721 119.786978 
L 84.190036 119.786978 
L 84.378351 108.309022 
L 84.75498 125.084496 
L 84.943295 117.138219 
L 85.131609 118.904058 
L 85.319924 123.318657 
L 85.508239 113.60654 
L 85.696553 113.60654 
L 86.261498 97.713985 
L 86.449812 102.128584 
L 86.638127 101.245664 
L 86.826442 104.777343 
L 87.014756 105.660263 
L 87.203071 105.660263 
L 87.391386 104.777343 
L 87.5797 109.191942 
L 87.768015 108.309022 
L 87.95633 120.669898 
L 88.144645 114.48946 
L 88.332959 117.138219 
L 88.521274 112.72362 
L 88.709589 115.37238 
L 88.897903 112.72362 
L 89.274533 118.021139 
L 89.651162 131.264934 
L 89.839477 130.382015 
L 90.027792 135.679533 
L 90.216106 133.030774 
L 90.592736 134.796613 
L 90.78105 132.147854 
L 90.969365 125.084496 
L 91.15768 124.201577 
L 91.345995 121.552818 
L 91.534309 125.967416 
L 91.722624 122.435737 
L 91.910939 113.60654 
L 92.475883 118.021139 
L 92.664197 108.309022 
L 92.852512 110.074861 
L 93.229142 103.011504 
L 93.417456 102.128584 
L 93.605771 102.128584 
L 93.794086 100.362745 
L 93.9824 102.128584 
L 94.170715 107.426102 
L 94.35903 97.713985 
L 94.547344 101.245664 
L 94.735659 109.191942 
L 94.923974 110.957781 
L 95.112289 110.074861 
L 95.300603 119.786978 
L 95.488918 105.660263 
L 95.677233 106.543182 
L 95.865547 112.72362 
L 96.053862 110.074861 
L 96.242177 116.255299 
L 96.430491 109.191942 
L 96.618806 109.191942 
L 96.807121 105.660263 
L 96.995436 108.309022 
L 97.372065 120.669898 
L 97.56038 118.021139 
L 97.748694 112.72362 
L 97.937009 116.255299 
L 98.125324 123.318657 
L 98.313638 121.552818 
L 98.501953 124.201577 
L 98.690268 129.499095 
L 98.878583 127.733255 
L 99.255212 119.786978 
L 99.443527 119.786978 
L 99.631841 122.435737 
L 99.820156 122.435737 
L 100.008471 123.318657 
L 100.196785 123.318657 
L 100.3851 111.840701 
L 100.573415 110.074861 
L 100.76173 98.596905 
L 101.138359 98.596905 
L 101.703303 77.406832 
L 102.079933 88.001869 
L 102.268247 88.001869 
L 102.456562 85.353109 
L 102.644877 79.172672 
L 102.833191 79.172672 
L 103.021506 77.406832 
L 103.209821 83.58727 
L 103.398135 79.172672 
L 103.58645 88.884788 
L 103.774765 81.821431 
L 103.96308 83.58727 
L 104.151394 78.289752 
L 104.339709 84.47019 
L 104.528024 81.821431 
L 104.716338 86.236029 
L 104.904653 94.182307 
L 105.092968 96.831066 
L 105.281282 95.948146 
L 105.469597 97.713985 
L 105.657912 96.831066 
L 105.846227 95.065226 
L 106.034541 102.128584 
L 106.222856 97.713985 
L 106.411171 99.479825 
L 106.599485 99.479825 
L 106.976115 102.128584 
L 107.164429 102.128584 
L 107.352744 98.596905 
L 107.541059 82.70435 
L 107.729374 81.821431 
L 108.106003 87.118949 
L 108.482632 80.055591 
L 108.670947 76.523912 
L 108.859262 76.523912 
L 109.047576 67.694715 
L 109.424206 77.406832 
L 109.612521 69.460555 
L 109.800835 69.460555 
L 109.98915 65.928876 
L 110.177465 59.748438 
L 110.365779 60.631358 
L 110.554094 63.280117 
L 110.742409 71.226394 
L 110.930723 60.631358 
L 111.119038 57.982599 
L 111.307353 61.514277 
L 111.495668 53.568 
L 112.437241 70.343474 
L 112.625556 72.109314 
L 112.81387 71.226394 
L 113.1905 73.875153 
L 113.378815 70.343474 
L 113.567129 69.460555 
L 113.755444 66.811796 
L 114.132073 57.099679 
L 114.320388 67.694715 
L 114.508703 70.343474 
L 114.697018 80.055591 
L 114.885332 74.758073 
L 115.073647 86.236029 
L 115.261962 90.650628 
L 115.450276 98.596905 
L 115.638591 95.065226 
L 115.826906 88.884788 
L 116.01522 91.533547 
L 116.203535 90.650628 
L 116.39185 90.650628 
L 116.580165 88.884788 
L 116.956794 76.523912 
L 117.145109 92.416467 
L 117.521738 77.406832 
L 117.710053 74.758073 
L 118.086682 84.47019 
L 118.274997 85.353109 
L 118.463312 80.938511 
L 118.651626 80.938511 
L 118.839941 76.523912 
L 119.028256 79.172672 
L 119.21657 79.172672 
L 119.404885 80.055591 
L 119.5932 82.70435 
L 119.781514 80.055591 
L 120.158144 87.118949 
L 120.346459 88.884788 
L 120.534773 88.884788 
L 120.723088 91.533547 
L 120.911403 111.840701 
L 121.099717 114.48946 
L 121.288032 110.074861 
L 121.476347 99.479825 
L 121.664661 98.596905 
L 121.852976 102.128584 
L 122.041291 115.37238 
L 122.229606 116.255299 
L 122.41792 118.904058 
L 122.606235 123.318657 
L 122.982864 121.552818 
L 123.171179 121.552818 
L 123.359494 125.084496 
L 123.924438 125.084496 
L 124.112753 124.201577 
L 124.301067 124.201577 
L 124.489382 125.084496 
L 124.677697 110.957781 
L 124.866011 115.37238 
L 125.054326 110.957781 
L 125.242641 113.60654 
L 125.430955 112.72362 
L 125.61927 118.021139 
L 125.807585 130.382015 
L 125.9959 130.382015 
L 126.184214 146.274569 
L 126.372529 141.859971 
L 126.560844 142.742891 
L 126.749158 142.742891 
L 126.937473 141.859971 
L 127.125788 139.211212 
L 127.314103 134.796613 
L 127.502417 135.679533 
L 127.690732 130.382015 
L 127.879047 130.382015 
L 128.255676 124.201577 
L 128.443991 129.499095 
L 128.632305 131.264934 
L 128.82062 125.967416 
L 129.008935 128.616175 
L 129.19725 127.733255 
L 129.573879 140.977051 
L 129.762194 140.094131 
L 129.950508 137.445372 
L 130.138823 140.977051 
L 130.327138 141.859971 
L 130.515452 139.211212 
L 130.703767 133.030774 
L 130.892082 132.147854 
L 131.268711 124.201577 
L 131.457026 125.084496 
L 131.645341 133.030774 
L 131.833655 134.796613 
L 132.02197 125.967416 
L 132.210285 124.201577 
L 132.398599 130.382015 
L 132.586914 126.850336 
L 132.775229 114.48946 
L 132.963544 110.957781 
L 133.151858 115.37238 
L 133.340173 115.37238 
L 133.528488 112.72362 
L 133.716802 118.021139 
L 133.905117 119.786978 
L 134.093432 115.37238 
L 134.281746 118.021139 
L 135.035005 121.552818 
L 135.411635 115.37238 
L 135.599949 119.786978 
L 135.788264 120.669898 
L 135.976579 124.201577 
L 136.164893 125.084496 
L 136.353208 124.201577 
L 136.729838 125.967416 
L 137.106467 110.957781 
L 137.294782 116.255299 
L 137.483096 109.191942 
L 137.671411 108.309022 
L 137.859726 111.840701 
L 138.04804 121.552818 
L 138.236355 120.669898 
L 138.42467 118.904058 
L 138.612985 125.084496 
L 138.801299 126.850336 
L 139.177929 118.021139 
L 139.366243 119.786978 
L 139.554558 124.201577 
L 139.742873 125.967416 
L 139.931188 123.318657 
L 140.119502 125.084496 
L 140.307817 125.084496 
L 140.496132 125.967416 
L 140.872761 125.967416 
L 141.061076 127.733255 
L 141.24939 125.967416 
L 141.437705 119.786978 
L 141.62602 118.904058 
L 142.002649 110.074861 
L 142.190964 111.840701 
L 142.379279 110.074861 
L 142.567593 112.72362 
L 142.755908 111.840701 
L 142.944223 119.786978 
L 143.320852 124.201577 
L 143.697482 119.786978 
L 143.885796 125.084496 
L 144.074111 125.967416 
L 144.262426 125.967416 
L 144.45074 127.733255 
L 144.639055 131.264934 
L 144.82737 128.616175 
L 145.015684 128.616175 
L 145.203999 118.904058 
L 145.392314 119.786978 
L 145.580629 125.084496 
L 145.768943 116.255299 
L 146.145573 113.60654 
L 146.522202 103.011504 
L 146.710517 99.479825 
L 146.898831 103.011504 
L 147.087146 101.245664 
L 147.275461 101.245664 
L 147.463776 95.065226 
L 147.65209 96.831066 
L 147.840405 95.065226 
L 148.02872 102.128584 
L 148.217034 102.128584 
L 148.405349 88.884788 
L 148.593664 90.650628 
L 148.781978 94.182307 
L 148.970293 86.236029 
L 149.158608 88.001869 
L 149.346923 81.821431 
L 149.535237 87.118949 
L 149.723552 86.236029 
L 149.911867 89.767708 
L 150.100181 89.767708 
L 150.476811 87.118949 
L 150.665126 86.236029 
L 151.041755 93.299387 
L 151.23007 106.543182 
L 151.606699 104.777343 
L 151.795014 105.660263 
L 151.983328 108.309022 
L 152.171643 108.309022 
L 152.359958 114.48946 
L 152.924902 104.777343 
L 153.301531 110.957781 
L 153.489846 103.894423 
L 153.678161 101.245664 
L 153.866475 106.543182 
L 154.05479 103.894423 
L 154.243105 107.426102 
L 154.619734 124.201577 
L 154.808049 128.616175 
L 154.996364 136.562453 
L 155.184678 135.679533 
L 155.749622 140.094131 
L 155.937937 131.264934 
L 156.126252 132.147854 
L 156.314567 137.445372 
L 156.502881 135.679533 
L 156.691196 135.679533 
L 156.879511 140.977051 
L 157.067825 131.264934 
L 157.25614 142.742891 
L 157.444455 145.39165 
L 157.632769 142.742891 
L 157.821084 145.39165 
L 158.197714 138.328292 
L 158.386028 139.211212 
L 158.574343 139.211212 
L 158.762658 140.977051 
L 158.950972 144.50873 
L 159.139287 144.50873 
L 159.327602 143.62581 
L 159.892546 117.138219 
L 160.45749 103.011504 
L 160.645805 100.362745 
L 160.834119 95.948146 
L 161.022434 95.948146 
L 161.210749 97.713985 
L 161.399063 95.948146 
L 161.587378 96.831066 
L 161.775693 88.884788 
L 161.964008 88.001869 
L 162.152322 95.065226 
L 162.528952 96.831066 
L 162.717266 113.60654 
L 162.905581 114.48946 
L 163.093896 119.786978 
L 163.282211 115.37238 
L 163.470525 103.894423 
L 163.65884 104.777343 
L 163.847155 97.713985 
L 164.223784 99.479825 
L 164.412099 107.426102 
L 164.600413 104.777343 
L 164.977043 119.786978 
L 165.165358 116.255299 
L 165.353672 115.37238 
L 165.730302 110.957781 
L 165.918616 117.138219 
L 166.106931 114.48946 
L 166.295246 114.48946 
L 166.48356 122.435737 
L 166.86019 118.904058 
L 167.048505 119.786978 
L 167.236819 127.733255 
L 167.425134 127.733255 
L 167.613449 122.435737 
L 167.801763 124.201577 
L 167.990078 111.840701 
L 168.178393 129.499095 
L 168.366707 125.967416 
L 168.555022 127.733255 
L 168.931652 125.967416 
L 169.119966 127.733255 
L 169.496596 118.904058 
L 169.68491 122.435737 
L 170.06154 114.48946 
L 170.249854 115.37238 
L 170.438169 106.543182 
L 170.626484 107.426102 
L 170.814799 107.426102 
L 171.003113 103.894423 
L 171.191428 103.011504 
L 171.568057 107.426102 
L 171.756372 108.309022 
L 171.944687 108.309022 
L 172.321316 116.255299 
L 172.509631 113.60654 
L 172.697946 115.37238 
L 172.88626 120.669898 
L 173.074575 116.255299 
L 173.26289 126.850336 
L 173.451204 127.733255 
L 173.639519 132.147854 
L 173.827834 120.669898 
L 174.016148 116.255299 
L 174.204463 117.138219 
L 174.392778 121.552818 
L 174.581093 123.318657 
L 174.769407 116.255299 
L 174.957722 114.48946 
L 175.146037 114.48946 
L 175.334351 117.138219 
L 175.522666 113.60654 
L 175.710981 106.543182 
L 175.899296 110.957781 
L 176.46424 133.913693 
L 176.652554 133.913693 
L 176.840869 135.679533 
L 177.029184 133.913693 
L 177.217498 133.913693 
L 177.405813 134.796613 
L 177.782443 129.499095 
L 177.970757 131.264934 
L 178.159072 129.499095 
L 178.724016 134.796613 
L 179.100645 144.50873 
L 179.28896 138.328292 
L 179.477275 140.094131 
L 179.66559 139.211212 
L 180.042219 141.859971 
L 180.230534 140.977051 
L 180.418848 141.859971 
L 180.607163 143.62581 
L 180.795478 147.157489 
L 181.172107 141.859971 
L 181.360422 140.977051 
L 181.737051 142.742891 
L 181.925366 144.50873 
L 182.49031 155.103766 
L 182.866939 144.50873 
L 183.055254 147.157489 
L 183.243569 144.50873 
L 183.431884 149.806248 
L 183.620198 148.923328 
L 183.808513 148.923328 
L 183.996828 153.337927 
L 184.185142 152.455007 
L 184.373457 154.220847 
L 184.561772 153.337927 
L 184.750086 153.337927 
L 184.938401 150.689168 
L 185.126716 151.572088 
L 185.315031 146.274569 
L 185.503345 155.103766 
L 185.879975 146.274569 
L 186.068289 154.220847 
L 186.444919 155.986686 
L 186.633233 153.337927 
L 187.009863 157.752526 
L 187.198178 152.455007 
L 187.386492 152.455007 
L 187.574807 160.401285 
L 187.763122 158.635445 
L 187.951436 152.455007 
L 188.139751 152.455007 
L 188.516381 142.742891 
L 188.704695 142.742891 
L 188.89301 147.157489 
L 189.081325 142.742891 
L 189.269639 143.62581 
L 189.457954 148.040409 
L 189.646269 155.986686 
L 189.834583 155.103766 
L 190.022898 151.572088 
L 190.211213 145.39165 
L 190.399528 145.39165 
L 190.587842 137.445372 
L 190.964472 131.264934 
L 191.152786 142.742891 
L 191.341101 136.562453 
L 191.529416 141.859971 
L 191.71773 139.211212 
L 191.906045 140.977051 
L 192.09436 139.211212 
L 192.282675 141.859971 
L 192.470989 142.742891 
L 192.659304 139.211212 
L 193.224248 145.39165 
L 193.412563 141.859971 
L 193.600877 140.977051 
L 193.789192 143.62581 
L 193.977507 140.977051 
L 194.165822 149.806248 
L 194.354136 142.742891 
L 194.542451 143.62581 
L 194.730766 137.445372 
L 194.91908 142.742891 
L 195.29571 132.147854 
L 195.672339 118.021139 
L 195.860654 113.60654 
L 196.425598 108.309022 
L 196.613913 110.074861 
L 196.802227 118.021139 
L 196.990542 118.021139 
L 197.178857 131.264934 
L 197.367171 133.913693 
L 197.555486 134.796613 
L 197.743801 131.264934 
L 197.932116 134.796613 
L 198.12043 134.796613 
L 198.308745 131.264934 
L 198.49706 132.147854 
L 198.685374 135.679533 
L 198.873689 135.679533 
L 199.250318 120.669898 
L 199.438633 118.021139 
L 199.626948 123.318657 
L 199.815263 115.37238 
L 200.191892 110.957781 
L 200.568521 98.596905 
L 200.756836 103.894423 
L 200.945151 100.362745 
L 201.133466 103.894423 
L 201.510095 105.660263 
L 201.69841 107.426102 
L 201.886724 103.011504 
L 202.075039 104.777343 
L 202.451668 90.650628 
L 202.639983 91.533547 
L 202.828298 94.182307 
L 203.016613 94.182307 
L 203.581557 102.128584 
L 203.769871 107.426102 
L 203.958186 104.777343 
L 204.146501 105.660263 
L 204.334815 107.426102 
L 204.52313 104.777343 
L 204.711445 106.543182 
L 204.89976 103.894423 
L 205.088074 111.840701 
L 205.276389 112.72362 
L 205.464704 112.72362 
L 205.653018 102.128584 
L 205.841333 104.777343 
L 206.029648 105.660263 
L 206.217962 105.660263 
L 206.406277 109.191942 
L 206.594592 98.596905 
L 206.782907 103.011504 
L 206.971221 93.299387 
L 207.159536 93.299387 
L 207.536165 84.47019 
L 207.912795 94.182307 
L 208.101109 95.948146 
L 208.289424 95.948146 
L 208.477739 93.299387 
L 208.666054 87.118949 
L 208.854368 90.650628 
L 209.042683 87.118949 
L 209.419312 97.713985 
L 209.607627 92.416467 
L 209.795942 95.948146 
L 209.984256 95.948146 
L 210.172571 96.831066 
L 210.360886 100.362745 
L 210.549201 96.831066 
L 210.737515 108.309022 
L 210.92583 109.191942 
L 211.302459 101.245664 
L 211.490774 103.894423 
L 211.867404 94.182307 
L 212.055718 105.660263 
L 212.244033 103.894423 
L 212.432348 105.660263 
L 212.620662 103.894423 
L 212.808977 107.426102 
L 212.997292 103.011504 
L 213.373921 105.660263 
L 213.562236 104.777343 
L 213.938865 116.255299 
L 214.12718 115.37238 
L 214.692124 107.426102 
L 214.880439 115.37238 
L 215.068753 113.60654 
L 215.445383 107.426102 
L 215.633698 111.840701 
L 215.822012 91.533547 
L 216.010327 91.533547 
L 216.198642 90.650628 
L 216.386956 94.182307 
L 216.575271 102.128584 
L 216.763586 103.894423 
L 216.9519 110.074861 
L 217.32853 112.72362 
L 217.516845 107.426102 
L 217.705159 114.48946 
L 217.893474 112.72362 
L 218.081789 118.021139 
L 218.270103 115.37238 
L 218.458418 117.138219 
L 218.646733 117.138219 
L 218.835047 120.669898 
L 219.023362 120.669898 
L 219.211677 117.138219 
L 219.399992 109.191942 
L 219.588306 110.074861 
L 219.776621 104.777343 
L 219.964936 108.309022 
L 220.15325 118.021139 
L 220.341565 117.138219 
L 220.52988 104.777343 
L 220.718194 104.777343 
L 221.094824 113.60654 
L 221.283139 123.318657 
L 221.471453 122.435737 
L 221.659768 127.733255 
L 222.036397 124.201577 
L 222.224712 124.201577 
L 222.601341 131.264934 
L 222.977971 104.777343 
L 223.166286 106.543182 
L 223.3546 110.957781 
L 223.542915 109.191942 
L 223.73123 113.60654 
L 223.919544 103.894423 
L 224.107859 103.011504 
L 224.296174 105.660263 
L 224.484489 103.894423 
L 224.672803 106.543182 
L 224.861118 107.426102 
L 225.049433 106.543182 
L 225.614377 88.001869 
L 225.802691 82.70435 
L 225.991006 83.58727 
L 226.367636 88.001869 
L 226.55595 85.353109 
L 226.744265 80.938511 
L 226.93258 81.821431 
L 227.120894 79.172672 
L 227.309209 87.118949 
L 227.497524 84.47019 
L 227.874153 88.884788 
L 228.062468 89.767708 
L 228.627412 110.957781 
L 228.815727 105.660263 
L 229.004041 110.074861 
L 229.192356 111.840701 
L 229.380671 118.021139 
L 229.568985 114.48946 
L 229.945615 103.894423 
L 230.322244 102.128584 
L 230.510559 100.362745 
L 230.887188 103.894423 
L 231.075503 100.362745 
L 231.263818 104.777343 
L 231.452132 105.660263 
L 231.640447 110.957781 
L 231.828762 110.074861 
L 232.017077 115.37238 
L 232.205391 114.48946 
L 232.393706 111.840701 
L 232.582021 112.72362 
L 232.770335 114.48946 
L 232.95865 113.60654 
L 233.146965 125.967416 
L 233.335279 123.318657 
L 233.523594 118.904058 
L 233.711909 118.904058 
L 233.900224 114.48946 
L 234.088538 114.48946 
L 234.465168 118.904058 
L 234.653482 110.957781 
L 234.841797 114.48946 
L 235.030112 114.48946 
L 235.218426 116.255299 
L 235.406741 123.318657 
L 235.783371 118.021139 
L 235.971685 117.138219 
L 236.16 115.37238 
L 236.348315 118.021139 
L 236.724944 106.543182 
L 237.101574 118.021139 
L 237.289888 118.021139 
L 237.478203 117.138219 
L 237.666518 122.435737 
L 237.854832 120.669898 
L 238.043147 117.138219 
L 238.231462 125.967416 
L 238.419776 128.616175 
L 238.608091 126.850336 
L 238.796406 128.616175 
L 238.984721 128.616175 
L 239.549665 121.552818 
L 239.737979 123.318657 
L 239.926294 136.562453 
L 240.114609 140.977051 
L 240.302923 138.328292 
L 240.491238 132.147854 
L 240.679553 136.562453 
L 240.867868 131.264934 
L 241.244497 129.499095 
L 241.432812 124.201577 
L 241.621126 137.445372 
L 241.809441 136.562453 
L 241.997756 133.030774 
L 242.18607 133.913693 
L 242.5627 133.913693 
L 242.751015 136.562453 
L 242.939329 130.382015 
L 243.127644 130.382015 
L 243.315959 129.499095 
L 243.504273 121.552818 
L 243.692588 130.382015 
L 243.880903 131.264934 
L 244.257532 122.435737 
L 244.634162 129.499095 
L 244.822476 133.030774 
L 245.010791 124.201577 
L 245.199106 127.733255 
L 245.38742 134.796613 
L 245.575735 134.796613 
L 245.952364 128.616175 
L 246.140679 129.499095 
L 246.328994 127.733255 
L 246.705623 129.499095 
L 246.893938 131.264934 
L 247.082253 127.733255 
L 247.270567 126.850336 
L 247.458882 123.318657 
L 247.647197 125.967416 
L 247.835511 118.904058 
L 248.023826 118.904058 
L 248.212141 120.669898 
L 248.400456 120.669898 
L 248.58877 129.499095 
L 248.777085 133.030774 
L 249.153714 126.850336 
L 249.530344 124.201577 
L 249.718659 124.201577 
L 249.906973 133.913693 
L 250.095288 136.562453 
L 250.283603 125.084496 
L 250.660232 118.021139 
L 251.036861 119.786978 
L 251.225176 125.084496 
L 251.413491 125.967416 
L 251.601806 130.382015 
L 251.79012 132.147854 
L 251.978435 122.435737 
L 252.16675 129.499095 
L 252.920008 140.977051 
L 253.108323 138.328292 
L 253.296638 138.328292 
L 253.484953 136.562453 
L 253.673267 140.977051 
L 254.049897 143.62581 
L 254.238211 143.62581 
L 254.803155 128.616175 
L 254.99147 127.733255 
L 255.179785 125.084496 
L 255.556414 139.211212 
L 255.744729 138.328292 
L 255.933044 142.742891 
L 256.121358 137.445372 
L 256.497988 139.211212 
L 256.686302 134.796613 
L 256.874617 136.562453 
L 257.062932 135.679533 
L 257.251247 131.264934 
L 257.439561 131.264934 
L 257.816191 128.616175 
L 258.19282 143.62581 
L 258.381135 144.50873 
L 258.569449 149.806248 
L 258.946079 152.455007 
L 259.134394 147.157489 
L 259.322708 145.39165 
L 259.511023 147.157489 
L 259.699338 158.635445 
L 259.887652 156.869606 
L 260.264282 163.932964 
L 260.452596 159.518365 
L 260.640911 163.050044 
L 260.829226 160.401285 
L 261.017541 163.932964 
L 261.205855 164.815883 
L 261.39417 167.464642 
L 261.582485 163.050044 
L 261.770799 163.932964 
L 262.147429 163.932964 
L 262.335744 162.167124 
L 262.900688 153.337927 
L 263.842261 162.167124 
L 264.030576 158.635445 
L 264.218891 163.050044 
L 264.407205 170.113401 
L 264.59552 164.815883 
L 264.783835 167.464642 
L 264.972149 167.464642 
L 265.160464 163.050044 
L 265.537093 171.879241 
L 265.913723 162.167124 
L 266.102038 169.230482 
L 266.290352 170.113401 
L 266.478667 171.879241 
L 266.666982 166.581723 
L 267.043611 177.176759 
L 267.231926 174.528 
L 267.42024 178.059679 
L 267.608555 178.059679 
L 267.79687 173.64508 
L 267.985185 178.059679 
L 268.173499 170.113401 
L 268.361814 152.455007 
L 268.550129 155.103766 
L 268.738443 148.040409 
L 268.926758 147.157489 
L 269.115073 144.50873 
L 269.303387 143.62581 
L 269.491702 144.50873 
L 269.680017 144.50873 
L 269.868332 145.39165 
L 270.056646 147.157489 
L 270.244961 147.157489 
L 270.433276 142.742891 
L 270.62159 148.923328 
L 270.809905 148.923328 
L 270.99822 154.220847 
L 271.186534 150.689168 
L 271.374849 149.806248 
L 271.563164 155.986686 
L 271.751479 153.337927 
L 271.939793 155.986686 
L 272.128108 154.220847 
L 272.504737 127.733255 
L 272.693052 128.616175 
L 272.881367 130.382015 
L 273.069682 128.616175 
L 273.257996 136.562453 
L 273.446311 133.030774 
L 273.634626 141.859971 
L 274.011255 149.806248 
L 274.19957 146.274569 
L 274.576199 155.103766 
L 274.764514 155.103766 
L 274.952829 158.635445 
L 275.141143 158.635445 
L 275.329458 152.455007 
L 275.517773 158.635445 
L 275.706087 155.986686 
L 275.894402 163.932964 
L 276.082717 162.167124 
L 276.271031 156.869606 
L 276.459346 156.869606 
L 276.647661 157.752526 
L 276.835976 161.284204 
L 277.02429 161.284204 
L 277.212605 160.401285 
L 277.40092 156.869606 
L 277.777549 172.762161 
L 277.965864 171.879241 
L 278.154178 168.347562 
L 278.342493 168.347562 
L 278.530808 165.698803 
L 278.719123 168.347562 
L 278.907437 166.581723 
L 279.095752 171.879241 
L 279.284067 170.996321 
L 279.472381 173.64508 
L 279.660696 173.64508 
L 279.849011 171.879241 
L 280.037325 176.293839 
L 280.22564 173.64508 
L 280.413955 172.762161 
L 280.60227 164.815883 
L 280.790584 167.464642 
L 280.978899 165.698803 
L 281.355528 173.64508 
L 281.543843 174.528 
L 281.920472 170.113401 
L 282.297102 172.762161 
L 282.485417 173.64508 
L 282.673731 173.64508 
L 282.862046 147.157489 
L 283.050361 148.923328 
L 283.238675 146.274569 
L 283.42699 161.284204 
L 283.615305 162.167124 
L 283.803619 167.464642 
L 284.180249 156.869606 
L 284.368564 163.050044 
L 284.556878 163.050044 
L 284.933508 158.635445 
L 285.121822 160.401285 
L 285.498452 155.103766 
L 285.686767 163.050044 
L 285.875081 163.050044 
L 286.063396 156.869606 
L 286.440025 162.167124 
L 286.816655 151.572088 
L 287.004969 149.806248 
L 287.193284 149.806248 
L 287.381599 162.167124 
L 287.569914 165.698803 
L 287.758228 164.815883 
L 287.946543 175.41092 
L 288.134858 175.41092 
L 288.323172 170.996321 
L 288.511487 171.879241 
L 288.699802 171.879241 
L 288.888116 170.996321 
L 289.076431 162.167124 
L 289.264746 162.167124 
L 289.453061 166.581723 
L 290.018005 148.923328 
L 290.206319 146.274569 
L 290.582949 158.635445 
L 290.771263 157.752526 
L 290.959578 155.986686 
L 291.147893 157.752526 
L 291.524522 171.879241 
L 291.712837 164.815883 
L 292.466096 180.708438 
L 292.65441 182.474277 
L 292.842725 177.176759 
L 293.03104 175.41092 
L 293.407669 178.059679 
L 293.595984 177.176759 
L 293.784299 169.230482 
L 293.972613 172.762161 
L 294.160928 171.879241 
L 294.349243 178.059679 
L 294.725872 175.41092 
L 294.914187 175.41092 
L 295.102502 179.825518 
L 295.290816 178.942599 
L 295.479131 179.825518 
L 295.667446 170.113401 
L 295.85576 170.113401 
L 296.044075 170.996321 
L 296.23239 170.113401 
L 296.609019 166.581723 
L 296.797334 148.923328 
L 296.985649 156.869606 
L 297.362278 155.103766 
L 297.550593 155.986686 
L 297.738907 152.455007 
L 297.927222 140.977051 
L 298.115537 145.39165 
L 298.303852 152.455007 
L 298.492166 150.689168 
L 298.680481 154.220847 
L 298.868796 167.464642 
L 299.05711 167.464642 
L 299.245425 163.050044 
L 299.43374 164.815883 
L 299.622054 156.869606 
L 299.810369 154.220847 
L 300.563628 170.113401 
L 300.940257 183.357197 
L 301.128572 178.059679 
L 301.316887 177.176759 
L 301.505201 172.762161 
L 301.693516 171.879241 
L 301.881831 171.879241 
L 302.070146 178.942599 
L 302.25846 175.41092 
L 302.446775 174.528 
L 302.63509 179.825518 
L 303.011719 170.996321 
L 303.200034 172.762161 
L 303.388348 166.581723 
L 303.576663 168.347562 
L 303.953293 174.528 
L 304.141607 176.293839 
L 304.329922 173.64508 
L 304.518237 182.474277 
L 304.706551 181.591358 
L 304.894866 175.41092 
L 305.271495 172.762161 
L 305.648125 172.762161 
L 305.83644 175.41092 
L 306.024754 182.474277 
L 306.213069 185.123036 
L 306.401384 181.591358 
L 306.589698 184.240117 
L 306.966328 177.176759 
L 307.154642 175.41092 
L 307.342957 178.059679 
L 307.907901 158.635445 
L 308.472845 170.113401 
L 308.849475 168.347562 
L 309.037789 166.581723 
L 309.226104 172.762161 
L 309.602734 176.293839 
L 309.791048 186.005956 
L 309.979363 184.240117 
L 310.167678 171.879241 
L 310.544307 189.537635 
L 311.109251 164.815883 
L 311.297566 164.815883 
L 311.485881 167.464642 
L 311.674195 153.337927 
L 311.86251 155.103766 
L 312.050825 161.284204 
L 312.239139 158.635445 
L 312.615769 156.869606 
L 312.992398 145.39165 
L 313.180713 140.977051 
L 313.369028 144.50873 
L 313.557342 143.62581 
L 313.745657 140.977051 
L 313.933972 133.913693 
L 314.122286 131.264934 
L 314.310601 140.977051 
L 314.498916 137.445372 
L 314.875545 141.859971 
L 315.06386 148.923328 
L 315.252175 141.859971 
L 315.440489 143.62581 
L 315.628804 139.211212 
L 315.817119 140.977051 
L 316.382063 160.401285 
L 316.570378 160.401285 
L 316.758692 166.581723 
L 316.947007 163.932964 
L 317.135322 164.815883 
L 317.511951 173.64508 
L 317.88858 178.942599 
L 318.076895 178.942599 
L 318.26521 178.059679 
L 318.453525 180.708438 
L 318.641839 186.005956 
L 318.830154 185.123036 
L 319.018469 187.771796 
L 319.395098 177.176759 
L 319.583413 178.059679 
L 319.771727 178.059679 
L 320.148357 179.825518 
L 320.336672 177.176759 
L 320.524986 176.293839 
L 320.713301 172.762161 
L 320.901616 172.762161 
L 321.08993 178.942599 
L 321.278245 179.825518 
L 321.46656 177.176759 
L 321.843189 165.698803 
L 322.031504 170.996321 
L 322.596448 159.518365 
L 322.784763 159.518365 
L 322.973077 169.230482 
L 323.161392 167.464642 
L 323.349707 174.528 
L 323.538022 171.879241 
L 323.726336 176.293839 
L 323.914651 170.996321 
L 324.102966 169.230482 
L 324.29128 169.230482 
L 324.479595 172.762161 
L 324.66791 173.64508 
L 324.856224 173.64508 
L 325.044539 177.176759 
L 325.232854 176.293839 
L 325.421169 178.059679 
L 325.797798 172.762161 
L 325.986113 175.41092 
L 326.174427 180.708438 
L 326.551057 169.230482 
L 326.927686 175.41092 
L 327.116001 169.230482 
L 327.304316 171.879241 
L 327.49263 164.815883 
L 327.680945 167.464642 
L 327.86926 167.464642 
L 328.622518 159.518365 
L 328.999148 167.464642 
L 329.187463 166.581723 
L 329.375777 175.41092 
L 329.564092 175.41092 
L 329.752407 177.176759 
L 329.940721 171.879241 
L 330.129036 173.64508 
L 330.317351 163.932964 
L 330.505665 161.284204 
L 330.69398 170.996321 
L 330.882295 166.581723 
L 331.07061 165.698803 
L 331.258924 163.050044 
L 331.447239 162.167124 
L 331.635554 171.879241 
L 331.823868 168.347562 
L 332.012183 169.230482 
L 332.388812 155.986686 
L 332.577127 144.50873 
L 332.765442 141.859971 
L 332.953757 145.39165 
L 333.142071 145.39165 
L 333.707015 153.337927 
L 333.89533 152.455007 
L 334.083645 157.752526 
L 334.460274 153.337927 
L 334.648589 157.752526 
L 335.025218 157.752526 
L 335.213533 158.635445 
L 335.401848 161.284204 
L 335.590162 162.167124 
L 335.966792 153.337927 
L 336.343421 151.572088 
L 336.720051 161.284204 
L 336.908365 159.518365 
L 337.09668 159.518365 
L 337.284995 153.337927 
L 337.473309 155.986686 
L 337.661624 163.932964 
L 337.849939 165.698803 
L 338.038254 163.932964 
L 338.226568 158.635445 
L 338.603198 167.464642 
L 338.791512 169.230482 
L 339.168142 169.230482 
L 339.356456 159.518365 
L 339.544771 170.996321 
L 339.733086 169.230482 
L 339.921401 170.113401 
L 340.109715 176.293839 
L 340.29803 174.528 
L 340.486345 181.591358 
L 340.862974 181.591358 
L 341.051289 179.825518 
L 341.239603 184.240117 
L 341.616233 182.474277 
L 341.804548 186.888876 
L 341.992862 186.888876 
L 342.181177 186.005956 
L 342.557806 199.249752 
L 342.746121 200.132672 
L 342.934436 199.249752 
L 343.311065 201.015591 
L 343.876009 209.844788 
L 344.064324 209.844788 
L 344.629268 214.259387 
L 345.005897 212.493547 
L 345.194212 212.493547 
L 345.382527 211.610628 
L 345.570842 205.43019 
L 345.759156 204.54727 
L 345.947471 206.313109 
L 346.135786 201.898511 
L 346.3241 201.898511 
L 346.512415 204.54727 
L 346.70073 201.898511 
L 346.889045 195.718073 
L 347.265674 199.249752 
L 347.453989 197.483912 
L 347.642303 197.483912 
L 347.830618 194.835153 
L 348.207247 194.835153 
L 348.395562 195.718073 
L 348.583877 201.015591 
L 348.772192 202.781431 
L 349.148821 194.835153 
L 349.337136 201.898511 
L 349.52545 199.249752 
L 349.713765 200.132672 
L 349.90208 195.718073 
L 350.090394 196.600993 
L 350.278709 191.303474 
L 350.467024 189.537635 
L 350.655339 191.303474 
L 350.843653 187.771796 
L 351.031968 186.888876 
L 351.408597 186.888876 
L 351.596912 189.537635 
L 351.785227 186.005956 
L 351.973541 186.005956 
L 352.161856 188.654715 
L 352.350171 182.474277 
L 352.538486 180.708438 
L 352.7268 177.176759 
L 352.915115 177.176759 
L 353.291744 181.591358 
L 353.480059 187.771796 
L 353.668374 188.654715 
L 354.045003 192.186394 
L 354.233318 191.303474 
L 354.421633 193.069314 
L 354.609947 191.303474 
L 354.798262 187.771796 
L 354.986577 190.420555 
L 355.174891 186.888876 
L 355.363206 188.654715 
L 355.551521 193.069314 
L 355.739835 193.952234 
L 355.92815 193.069314 
L 356.116465 196.600993 
L 356.493094 181.591358 
L 356.869724 183.357197 
L 357.058038 186.005956 
L 357.246353 195.718073 
L 357.434668 198.366832 
L 357.622982 197.483912 
L 357.999612 187.771796 
L 358.187927 201.015591 
L 358.376241 202.781431 
L 358.564556 202.781431 
L 358.752871 206.313109 
L 358.941185 199.249752 
L 359.1295 213.376467 
L 359.50613 211.610628 
L 359.694444 214.259387 
L 359.882759 214.259387 
L 360.071074 217.791066 
L 360.447703 217.791066 
L 360.636018 216.908146 
L 360.824332 223.088584 
L 361.012647 223.088584 
L 361.200962 223.971504 
L 361.765906 210.727708 
L 362.142535 210.727708 
L 362.33085 208.078949 
L 362.519165 207.196029 
L 362.707479 208.078949 
L 362.895794 208.078949 
L 363.084109 207.196029 
L 363.272424 216.908146 
L 363.460738 210.727708 
L 363.649053 209.844788 
L 364.213997 194.835153 
L 364.402312 195.718073 
L 364.590626 191.303474 
L 364.778941 190.420555 
L 364.967256 188.654715 
L 365.5322 200.132672 
L 365.720515 201.015591 
L 366.097144 205.43019 
L 366.285459 208.961869 
L 366.473773 203.66435 
L 366.662088 204.54727 
L 366.850403 208.078949 
L 367.038718 199.249752 
L 367.227032 195.718073 
L 367.603662 206.313109 
L 367.791976 204.54727 
L 367.980291 208.078949 
L 368.35692 208.078949 
L 368.545235 211.610628 
L 368.921865 213.376467 
L 369.110179 213.376467 
L 369.298494 209.844788 
L 369.486809 211.610628 
L 369.675123 209.844788 
L 369.863438 211.610628 
L 370.051753 211.610628 
L 370.240067 210.727708 
L 370.428382 212.493547 
L 370.616697 217.791066 
L 370.805012 218.673985 
L 370.993326 223.971504 
L 371.181641 225.737343 
L 371.369956 225.737343 
L 371.55827 223.088584 
L 371.746585 223.971504 
L 371.9349 225.737343 
L 372.123215 225.737343 
L 372.311529 228.386102 
L 372.499844 228.386102 
L 372.688159 233.68362 
L 372.876473 234.56654 
L 373.064788 238.981139 
L 373.253103 239.864058 
L 373.441417 239.864058 
L 373.629732 238.098219 
L 374.006362 246.927416 
L 374.194676 246.044496 
L 374.382991 246.044496 
L 374.75962 244.278657 
L 374.947935 239.864058 
L 375.324564 239.864058 
L 375.889509 242.512818 
L 376.077823 253.107854 
L 376.266138 255.756613 
L 376.454453 245.161577 
L 376.642767 245.161577 
L 376.831082 243.395737 
L 377.019397 246.044496 
L 377.207711 252.224934 
L 377.396026 248.693255 
L 377.772656 254.873693 
L 377.96097 246.044496 
L 378.149285 242.512818 
L 378.3376 248.693255 
L 378.525914 248.693255 
L 378.714229 251.342015 
L 378.902544 248.693255 
L 379.090858 248.693255 
L 379.279173 246.044496 
L 379.655803 246.044496 
L 379.844117 250.459095 
L 380.032432 250.459095 
L 380.220747 252.224934 
L 380.409061 245.161577 
L 380.597376 246.044496 
L 380.974005 243.395737 
L 381.350635 233.68362 
L 381.53895 233.68362 
L 381.915579 241.629898 
L 382.292208 247.810336 
L 382.480523 247.810336 
L 382.668838 251.342015 
L 382.857152 249.576175 
L 383.045467 249.576175 
L 383.233782 251.342015 
L 383.422097 250.459095 
L 383.610411 250.459095 
L 383.987041 260.171212 
L 384.36367 258.405372 
L 384.551985 254.873693 
L 384.7403 258.405372 
L 384.928614 253.990774 
L 385.116929 253.990774 
L 385.305244 253.107854 
L 385.681873 261.054131 
L 385.870188 250.459095 
L 386.058502 251.342015 
L 386.246817 251.342015 
L 386.623447 249.576175 
L 386.811761 250.459095 
L 387.376705 263.702891 
L 387.753335 259.288292 
L 387.941649 259.288292 
L 388.129964 261.054131 
L 388.318279 264.58581 
L 388.506594 263.702891 
L 388.694908 266.35165 
L 388.883223 266.35165 
L 389.071538 269.000409 
L 389.259852 266.35165 
L 389.448167 268.117489 
L 389.636482 276.946686 
L 389.824796 274.297927 
L 390.013111 278.712526 
L 390.201426 279.595445 
L 390.578055 284.010044 
L 390.954685 276.063766 
L 391.142999 276.063766 
L 391.331314 276.946686 
L 391.519629 276.946686 
L 391.896258 275.180847 
L 392.084573 275.180847 
L 392.272888 276.063766 
L 392.461202 277.829606 
L 393.026146 286.658803 
L 393.402776 286.658803 
L 393.59109 291.073401 
L 393.779405 289.307562 
L 393.96772 289.307562 
L 394.156035 288.424642 
L 394.344349 290.190482 
L 394.532664 287.541723 
L 394.720979 287.541723 
L 394.909293 286.658803 
L 395.097608 286.658803 
L 395.474238 284.892964 
L 395.662552 285.775883 
L 395.850867 285.775883 
L 396.039182 284.892964 
L 396.227496 286.658803 
L 396.415811 284.892964 
L 396.604126 285.775883 
L 396.980755 283.127124 
L 397.16907 283.127124 
L 397.357385 286.658803 
L 397.545699 287.541723 
L 397.734014 287.541723 
L 397.922329 290.190482 
L 398.110643 287.541723 
L 398.298958 294.60508 
L 398.487273 295.488 
L 398.487273 295.488 
" clip-path="url(#p8b7f40a35b)" style="fill: none; stroke: #1f77b4; stroke-width: 1.5; stroke-linecap: square"/>
   </g>
   <g id="patch_3">
    <path d="M 57.6 307.584 
L 57.6 41.472 
" style="fill: none; stroke: #000000; stroke-width: 0.8; stroke-linejoin: miter; stroke-linecap: square"/>
   </g>
   <g id="patch_4">
    <path d="M 414.72 307.584 
L 414.72 41.472 
" style="fill: none; stroke: #000000; stroke-width: 0.8; stroke-linejoin: miter; stroke-linecap: square"/>
   </g>
   <g id="patch_5">
    <path d="M 57.6 307.584 
L 414.72 307.584 
" style="fill: none; stroke: #000000; stroke-width: 0.8; stroke-linejoin: miter; stroke-linecap: square"/>
   </g>
   <g id="patch_6">
    <path d="M 57.6 41.472 
L 414.72 41.472 
" style="fill: none; stroke: #000000; stroke-width: 0.8; stroke-linejoin: miter; stroke-linecap: square"/>
   </g>
   <g id="text_17">
    <!-- Simulated Anealling Cost -->
    <g transform="translate(160.8 35.472)scale(0.12 -0.12)">
     <defs>
      <path id="DejaVuSans-53" d="M 3425 4513 
L 3425 3897 
Q 3066 4069 2747 4153 
Q 2428 4238 2131 4238 
Q 1616 4238 1336 4038 
Q 1056 3838 1056 3469 
Q 1056 3159 1242 3001 
Q 1428 2844 1947 2747 
L 2328 2669 
Q 3034 2534 3370 2195 
Q 3706 1856 3706 1288 
Q 3706 609 3251 259 
Q 2797 -91 1919 -91 
Q 1588 -91 1214 -16 
Q 841 59 441 206 
L 441 856 
Q 825 641 1194 531 
Q 1563 422 1919 422 
Q 2459 422 2753 634 
Q 3047 847 3047 1241 
Q 3047 1584 2836 1778 
Q 2625 1972 2144 2069 
L 1759 2144 
Q 1053 2284 737 2584 
Q 422 2884 422 3419 
Q 422 4038 858 4394 
Q 1294 4750 2059 4750 
Q 2388 4750 2728 4690 
Q 3069 4631 3425 4513 
z
" transform="scale(0.015625)"/>
      <path id="DejaVuSans-69" d="M 603 3500 
L 1178 3500 
L 1178 0 
L 603 0 
L 603 3500 
z
M 603 4863 
L 1178 4863 
L 1178 4134 
L 603 4134 
L 603 4863 
z
" transform="scale(0.015625)"/>
      <path id="DejaVuSans-65" d="M 3597 1894 
L 3597 1613 
L 953 1613 
Q 991 1019 1311 708 
Q 1631 397 2203 397 
Q 2534 397 2845 478 
Q 3156 559 3463 722 
L 3463 178 
Q 3153 47 2828 -22 
Q 2503 -91 2169 -91 
Q 1331 -91 842 396 
Q 353 884 353 1716 
Q 353 2575 817 3079 
Q 1281 3584 2069 3584 
Q 2775 3584 3186 3129 
Q 3597 2675 3597 1894 
z
M 3022 2063 
Q 3016 2534 2758 2815 
Q 2500 3097 2075 3097 
Q 1594 3097 1305 2825 
Q 1016 2553 972 2059 
L 3022 2063 
z
" transform="scale(0.015625)"/>
      <path id="DejaVuSans-64" d="M 2906 2969 
L 2906 4863 
L 3481 4863 
L 3481 0 
L 2906 0 
L 2906 525 
Q 2725 213 2448 61 
Q 2172 -91 1784 -91 
Q 1150 -91 751 415 
Q 353 922 353 1747 
Q 353 2572 751 3078 
Q 1150 3584 1784 3584 
Q 2172 3584 2448 3432 
Q 2725 3281 2906 2969 
z
M 947 1747 
Q 947 1113 1208 752 
Q 1469 391 1925 391 
Q 2381 391 2643 752 
Q 2906 1113 2906 1747 
Q 2906 2381 2643 2742 
Q 2381 3103 1925 3103 
Q 1469 3103 1208 2742 
Q 947 2381 947 1747 
z
" transform="scale(0.015625)"/>
      <path id="DejaVuSans-41" d="M 2188 4044 
L 1331 1722 
L 3047 1722 
L 2188 4044 
z
M 1831 4666 
L 2547 4666 
L 4325 0 
L 3669 0 
L 3244 1197 
L 1141 1197 
L 716 0 
L 50 0 
L 1831 4666 
z
" transform="scale(0.015625)"/>
      <path id="DejaVuSans-67" d="M 2906 1791 
Q 2906 2416 2648 2759 
Q 2391 3103 1925 3103 
Q 1463 3103 1205 2759 
Q 947 2416 947 1791 
Q 947 1169 1205 825 
Q 1463 481 1925 481 
Q 2391 481 2648 825 
Q 2906 1169 2906 1791 
z
M 3481 434 
Q 3481 -459 3084 -895 
Q 2688 -1331 1869 -1331 
Q 1566 -1331 1297 -1286 
Q 1028 -1241 775 -1147 
L 775 -588 
Q 1028 -725 1275 -790 
Q 1522 -856 1778 -856 
Q 2344 -856 2625 -561 
Q 2906 -266 2906 331 
L 2906 616 
Q 2728 306 2450 153 
Q 2172 0 1784 0 
Q 1141 0 747 490 
Q 353 981 353 1791 
Q 353 2603 747 3093 
Q 1141 3584 1784 3584 
Q 2172 3584 2450 3431 
Q 2728 3278 2906 2969 
L 2906 3500 
L 3481 3500 
L 3481 434 
z
" transform="scale(0.015625)"/>
      <path id="DejaVuSans-43" d="M 4122 4306 
L 4122 3641 
Q 3803 3938 3442 4084 
Q 3081 4231 2675 4231 
Q 1875 4231 1450 3742 
Q 1025 3253 1025 2328 
Q 1025 1406 1450 917 
Q 1875 428 2675 428 
Q 3081 428 3442 575 
Q 3803 722 4122 1019 
L 4122 359 
Q 3791 134 3420 21 
Q 3050 -91 2638 -91 
Q 1578 -91 968 557 
Q 359 1206 359 2328 
Q 359 3453 968 4101 
Q 1578 4750 2638 4750 
Q 3056 4750 3426 4639 
Q 3797 4528 4122 4306 
z
" transform="scale(0.015625)"/>
     </defs>
     <use xlink:href="#DejaVuSans-53"/>
     <use xlink:href="#DejaVuSans-69" x="63.476562"/>
     <use xlink:href="#DejaVuSans-6d" x="91.259766"/>
     <use xlink:href="#DejaVuSans-75" x="188.671875"/>
     <use xlink:href="#DejaVuSans-6c" x="252.050781"/>
     <use xlink:href="#DejaVuSans-61" x="279.833984"/>
     <use xlink:href="#DejaVuSans-74" x="341.113281"/>
     <use xlink:href="#DejaVuSans-65" x="380.322266"/>
     <use xlink:href="#DejaVuSans-64" x="441.845703"/>
     <use xlink:href="#DejaVuSans-20" x="505.322266"/>
     <use xlink:href="#DejaVuSans-41" x="537.109375"/>
     <use xlink:href="#DejaVuSans-6e" x="605.517578"/>
     <use xlink:href="#DejaVuSans-65" x="668.896484"/>
     <use xlink:href="#DejaVuSans-61" x="730.419922"/>
     <use xlink:href="#DejaVuSans-6c" x="791.699219"/>
     <use xlink:href="#DejaVuSans-6c" x="819.482422"/>
     <use xlink:href="#DejaVuSans-69" x="847.265625"/>
     <use xlink:href="#DejaVuSans-6e" x="875.048828"/>
     <use xlink:href="#DejaVuSans-67" x="938.427734"/>
     <use xlink:href="#DejaVuSans-20" x="1001.904297"/>
     <use xlink:href="#DejaVuSans-43" x="1033.691406"/>
     <use xlink:href="#DejaVuSans-6f" x="1103.515625"/>
     <use xlink:href="#DejaVuSans-73" x="1164.697266"/>
     <use xlink:href="#DejaVuSans-74" x="1216.796875"/>
    </g>
   </g>
  </g>
 </g>
 <defs>
  <clipPath id="p8b7f40a35b">
   <rect x="57.6" y="41.472" width="357.12" height="266.112"/>
  </clipPath>
 </defs>
</svg>
