<?xml version="1.0" encoding="utf-8" standalone="no"?>
<!DOCTYPE svg PUBLIC "-//W3C//DTD SVG 1.1//EN"
  "http://www.w3.org/Graphics/SVG/1.1/DTD/svg11.dtd">
<svg xmlns:xlink="http://www.w3.org/1999/xlink" width="460.8pt" height="345.6pt" viewBox="0 0 460.8 345.6" xmlns="http://www.w3.org/2000/svg" version="1.1">
 <metadata>
  <rdf:RDF xmlns:dc="http://purl.org/dc/elements/1.1/" xmlns:cc="http://creativecommons.org/ns#" xmlns:rdf="http://www.w3.org/1999/02/22-rdf-syntax-ns#">
   <cc:Work>
    <dc:type rdf:resource="http://purl.org/dc/dcmitype/StillImage"/>
    <dc:date>2022-06-01T08:02:12.346491</dc:date>
    <dc:format>image/svg+xml</dc:format>
    <dc:creator>
     <cc:Agent>
      <dc:title>Matplotlib v3.5.1, https://matplotlib.org/</dc:title>
     </cc:Agent>
    </dc:creator>
   </cc:Work>
  </rdf:RDF>
 </metadata>
 <defs>
  <style type="text/css">*{stroke-linejoin: round; stroke-linecap: butt}</style>
 </defs>
 <g id="figure_1">
  <g id="patch_1">
   <path d="M 0 345.6 
L 460.8 345.6 
L 460.8 0 
L 0 0 
z
" style="fill: #ffffff"/>
  </g>
  <g id="axes_1">
   <g id="patch_2">
    <path d="M 57.6 307.584 
L 414.72 307.584 
L 414.72 41.472 
L 57.6 41.472 
z
" style="fill: #ffffff"/>
   </g>
   <g id="matplotlib.axis_1">
    <g id="xtick_1">
     <g id="line2d_1">
      <defs>
       <path id="m29b8702752" d="M 0 0 
L 0 3.5 
" style="stroke: #000000; stroke-width: 0.8"/>
      </defs>
      <g>
       <use xlink:href="#m29b8702752" x="73.832727" y="307.584" style="stroke: #000000; stroke-width: 0.8"/>
      </g>
     </g>
     <g id="text_1">
      <!-- 0 -->
      <g transform="translate(70.651477 322.182437)scale(0.1 -0.1)">
       <defs>
        <path id="DejaVuSans-30" d="M 2034 4250 
Q 1547 4250 1301 3770 
Q 1056 3291 1056 2328 
Q 1056 1369 1301 889 
Q 1547 409 2034 409 
Q 2525 409 2770 889 
Q 3016 1369 3016 2328 
Q 3016 3291 2770 3770 
Q 2525 4250 2034 4250 
z
M 2034 4750 
Q 2819 4750 3233 4129 
Q 3647 3509 3647 2328 
Q 3647 1150 3233 529 
Q 2819 -91 2034 -91 
Q 1250 -91 836 529 
Q 422 1150 422 2328 
Q 422 3509 836 4129 
Q 1250 4750 2034 4750 
z
" transform="scale(0.015625)"/>
       </defs>
       <use xlink:href="#DejaVuSans-30"/>
      </g>
     </g>
    </g>
    <g id="xtick_2">
     <g id="line2d_2">
      <g>
       <use xlink:href="#m29b8702752" x="121.103337" y="307.584" style="stroke: #000000; stroke-width: 0.8"/>
      </g>
     </g>
     <g id="text_2">
      <!-- 500 -->
      <g transform="translate(111.559587 322.182437)scale(0.1 -0.1)">
       <defs>
        <path id="DejaVuSans-35" d="M 691 4666 
L 3169 4666 
L 3169 4134 
L 1269 4134 
L 1269 2991 
Q 1406 3038 1543 3061 
Q 1681 3084 1819 3084 
Q 2600 3084 3056 2656 
Q 3513 2228 3513 1497 
Q 3513 744 3044 326 
Q 2575 -91 1722 -91 
Q 1428 -91 1123 -41 
Q 819 9 494 109 
L 494 744 
Q 775 591 1075 516 
Q 1375 441 1709 441 
Q 2250 441 2565 725 
Q 2881 1009 2881 1497 
Q 2881 1984 2565 2268 
Q 2250 2553 1709 2553 
Q 1456 2553 1204 2497 
Q 953 2441 691 2322 
L 691 4666 
z
" transform="scale(0.015625)"/>
       </defs>
       <use xlink:href="#DejaVuSans-35"/>
       <use xlink:href="#DejaVuSans-30" x="63.623047"/>
       <use xlink:href="#DejaVuSans-30" x="127.246094"/>
      </g>
     </g>
    </g>
    <g id="xtick_3">
     <g id="line2d_3">
      <g>
       <use xlink:href="#m29b8702752" x="168.373946" y="307.584" style="stroke: #000000; stroke-width: 0.8"/>
      </g>
     </g>
     <g id="text_3">
      <!-- 1000 -->
      <g transform="translate(155.648946 322.182437)scale(0.1 -0.1)">
       <defs>
        <path id="DejaVuSans-31" d="M 794 531 
L 1825 531 
L 1825 4091 
L 703 3866 
L 703 4441 
L 1819 4666 
L 2450 4666 
L 2450 531 
L 3481 531 
L 3481 0 
L 794 0 
L 794 531 
z
" transform="scale(0.015625)"/>
       </defs>
       <use xlink:href="#DejaVuSans-31"/>
       <use xlink:href="#DejaVuSans-30" x="63.623047"/>
       <use xlink:href="#DejaVuSans-30" x="127.246094"/>
       <use xlink:href="#DejaVuSans-30" x="190.869141"/>
      </g>
     </g>
    </g>
    <g id="xtick_4">
     <g id="line2d_4">
      <g>
       <use xlink:href="#m29b8702752" x="215.644556" y="307.584" style="stroke: #000000; stroke-width: 0.8"/>
      </g>
     </g>
     <g id="text_4">
      <!-- 1500 -->
      <g transform="translate(202.919556 322.182437)scale(0.1 -0.1)">
       <use xlink:href="#DejaVuSans-31"/>
       <use xlink:href="#DejaVuSans-35" x="63.623047"/>
       <use xlink:href="#DejaVuSans-30" x="127.246094"/>
       <use xlink:href="#DejaVuSans-30" x="190.869141"/>
      </g>
     </g>
    </g>
    <g id="xtick_5">
     <g id="line2d_5">
      <g>
       <use xlink:href="#m29b8702752" x="262.915165" y="307.584" style="stroke: #000000; stroke-width: 0.8"/>
      </g>
     </g>
     <g id="text_5">
      <!-- 2000 -->
      <g transform="translate(250.190165 322.182437)scale(0.1 -0.1)">
       <defs>
        <path id="DejaVuSans-32" d="M 1228 531 
L 3431 531 
L 3431 0 
L 469 0 
L 469 531 
Q 828 903 1448 1529 
Q 2069 2156 2228 2338 
Q 2531 2678 2651 2914 
Q 2772 3150 2772 3378 
Q 2772 3750 2511 3984 
Q 2250 4219 1831 4219 
Q 1534 4219 1204 4116 
Q 875 4013 500 3803 
L 500 4441 
Q 881 4594 1212 4672 
Q 1544 4750 1819 4750 
Q 2544 4750 2975 4387 
Q 3406 4025 3406 3419 
Q 3406 3131 3298 2873 
Q 3191 2616 2906 2266 
Q 2828 2175 2409 1742 
Q 1991 1309 1228 531 
z
" transform="scale(0.015625)"/>
       </defs>
       <use xlink:href="#DejaVuSans-32"/>
       <use xlink:href="#DejaVuSans-30" x="63.623047"/>
       <use xlink:href="#DejaVuSans-30" x="127.246094"/>
       <use xlink:href="#DejaVuSans-30" x="190.869141"/>
      </g>
     </g>
    </g>
    <g id="xtick_6">
     <g id="line2d_6">
      <g>
       <use xlink:href="#m29b8702752" x="310.185774" y="307.584" style="stroke: #000000; stroke-width: 0.8"/>
      </g>
     </g>
     <g id="text_6">
      <!-- 2500 -->
      <g transform="translate(297.460774 322.182437)scale(0.1 -0.1)">
       <use xlink:href="#DejaVuSans-32"/>
       <use xlink:href="#DejaVuSans-35" x="63.623047"/>
       <use xlink:href="#DejaVuSans-30" x="127.246094"/>
       <use xlink:href="#DejaVuSans-30" x="190.869141"/>
      </g>
     </g>
    </g>
    <g id="xtick_7">
     <g id="line2d_7">
      <g>
       <use xlink:href="#m29b8702752" x="357.456384" y="307.584" style="stroke: #000000; stroke-width: 0.8"/>
      </g>
     </g>
     <g id="text_7">
      <!-- 3000 -->
      <g transform="translate(344.731384 322.182437)scale(0.1 -0.1)">
       <defs>
        <path id="DejaVuSans-33" d="M 2597 2516 
Q 3050 2419 3304 2112 
Q 3559 1806 3559 1356 
Q 3559 666 3084 287 
Q 2609 -91 1734 -91 
Q 1441 -91 1130 -33 
Q 819 25 488 141 
L 488 750 
Q 750 597 1062 519 
Q 1375 441 1716 441 
Q 2309 441 2620 675 
Q 2931 909 2931 1356 
Q 2931 1769 2642 2001 
Q 2353 2234 1838 2234 
L 1294 2234 
L 1294 2753 
L 1863 2753 
Q 2328 2753 2575 2939 
Q 2822 3125 2822 3475 
Q 2822 3834 2567 4026 
Q 2313 4219 1838 4219 
Q 1578 4219 1281 4162 
Q 984 4106 628 3988 
L 628 4550 
Q 988 4650 1302 4700 
Q 1616 4750 1894 4750 
Q 2613 4750 3031 4423 
Q 3450 4097 3450 3541 
Q 3450 3153 3228 2886 
Q 3006 2619 2597 2516 
z
" transform="scale(0.015625)"/>
       </defs>
       <use xlink:href="#DejaVuSans-33"/>
       <use xlink:href="#DejaVuSans-30" x="63.623047"/>
       <use xlink:href="#DejaVuSans-30" x="127.246094"/>
       <use xlink:href="#DejaVuSans-30" x="190.869141"/>
      </g>
     </g>
    </g>
    <g id="xtick_8">
     <g id="line2d_8">
      <g>
       <use xlink:href="#m29b8702752" x="404.726993" y="307.584" style="stroke: #000000; stroke-width: 0.8"/>
      </g>
     </g>
     <g id="text_8">
      <!-- 3500 -->
      <g transform="translate(392.001993 322.182437)scale(0.1 -0.1)">
       <use xlink:href="#DejaVuSans-33"/>
       <use xlink:href="#DejaVuSans-35" x="63.623047"/>
       <use xlink:href="#DejaVuSans-30" x="127.246094"/>
       <use xlink:href="#DejaVuSans-30" x="190.869141"/>
      </g>
     </g>
    </g>
    <g id="text_9">
     <!-- num swaps -->
     <g transform="translate(207.826406 335.860562)scale(0.1 -0.1)">
      <defs>
       <path id="DejaVuSans-6e" d="M 3513 2113 
L 3513 0 
L 2938 0 
L 2938 2094 
Q 2938 2591 2744 2837 
Q 2550 3084 2163 3084 
Q 1697 3084 1428 2787 
Q 1159 2491 1159 1978 
L 1159 0 
L 581 0 
L 581 3500 
L 1159 3500 
L 1159 2956 
Q 1366 3272 1645 3428 
Q 1925 3584 2291 3584 
Q 2894 3584 3203 3211 
Q 3513 2838 3513 2113 
z
" transform="scale(0.015625)"/>
       <path id="DejaVuSans-75" d="M 544 1381 
L 544 3500 
L 1119 3500 
L 1119 1403 
Q 1119 906 1312 657 
Q 1506 409 1894 409 
Q 2359 409 2629 706 
Q 2900 1003 2900 1516 
L 2900 3500 
L 3475 3500 
L 3475 0 
L 2900 0 
L 2900 538 
Q 2691 219 2414 64 
Q 2138 -91 1772 -91 
Q 1169 -91 856 284 
Q 544 659 544 1381 
z
M 1991 3584 
L 1991 3584 
z
" transform="scale(0.015625)"/>
       <path id="DejaVuSans-6d" d="M 3328 2828 
Q 3544 3216 3844 3400 
Q 4144 3584 4550 3584 
Q 5097 3584 5394 3201 
Q 5691 2819 5691 2113 
L 5691 0 
L 5113 0 
L 5113 2094 
Q 5113 2597 4934 2840 
Q 4756 3084 4391 3084 
Q 3944 3084 3684 2787 
Q 3425 2491 3425 1978 
L 3425 0 
L 2847 0 
L 2847 2094 
Q 2847 2600 2669 2842 
Q 2491 3084 2119 3084 
Q 1678 3084 1418 2786 
Q 1159 2488 1159 1978 
L 1159 0 
L 581 0 
L 581 3500 
L 1159 3500 
L 1159 2956 
Q 1356 3278 1631 3431 
Q 1906 3584 2284 3584 
Q 2666 3584 2933 3390 
Q 3200 3197 3328 2828 
z
" transform="scale(0.015625)"/>
       <path id="DejaVuSans-20" transform="scale(0.015625)"/>
       <path id="DejaVuSans-73" d="M 2834 3397 
L 2834 2853 
Q 2591 2978 2328 3040 
Q 2066 3103 1784 3103 
Q 1356 3103 1142 2972 
Q 928 2841 928 2578 
Q 928 2378 1081 2264 
Q 1234 2150 1697 2047 
L 1894 2003 
Q 2506 1872 2764 1633 
Q 3022 1394 3022 966 
Q 3022 478 2636 193 
Q 2250 -91 1575 -91 
Q 1294 -91 989 -36 
Q 684 19 347 128 
L 347 722 
Q 666 556 975 473 
Q 1284 391 1588 391 
Q 1994 391 2212 530 
Q 2431 669 2431 922 
Q 2431 1156 2273 1281 
Q 2116 1406 1581 1522 
L 1381 1569 
Q 847 1681 609 1914 
Q 372 2147 372 2553 
Q 372 3047 722 3315 
Q 1072 3584 1716 3584 
Q 2034 3584 2315 3537 
Q 2597 3491 2834 3397 
z
" transform="scale(0.015625)"/>
       <path id="DejaVuSans-77" d="M 269 3500 
L 844 3500 
L 1563 769 
L 2278 3500 
L 2956 3500 
L 3675 769 
L 4391 3500 
L 4966 3500 
L 4050 0 
L 3372 0 
L 2619 2869 
L 1863 0 
L 1184 0 
L 269 3500 
z
" transform="scale(0.015625)"/>
       <path id="DejaVuSans-61" d="M 2194 1759 
Q 1497 1759 1228 1600 
Q 959 1441 959 1056 
Q 959 750 1161 570 
Q 1363 391 1709 391 
Q 2188 391 2477 730 
Q 2766 1069 2766 1631 
L 2766 1759 
L 2194 1759 
z
M 3341 1997 
L 3341 0 
L 2766 0 
L 2766 531 
Q 2569 213 2275 61 
Q 1981 -91 1556 -91 
Q 1019 -91 701 211 
Q 384 513 384 1019 
Q 384 1609 779 1909 
Q 1175 2209 1959 2209 
L 2766 2209 
L 2766 2266 
Q 2766 2663 2505 2880 
Q 2244 3097 1772 3097 
Q 1472 3097 1187 3025 
Q 903 2953 641 2809 
L 641 3341 
Q 956 3463 1253 3523 
Q 1550 3584 1831 3584 
Q 2591 3584 2966 3190 
Q 3341 2797 3341 1997 
z
" transform="scale(0.015625)"/>
       <path id="DejaVuSans-70" d="M 1159 525 
L 1159 -1331 
L 581 -1331 
L 581 3500 
L 1159 3500 
L 1159 2969 
Q 1341 3281 1617 3432 
Q 1894 3584 2278 3584 
Q 2916 3584 3314 3078 
Q 3713 2572 3713 1747 
Q 3713 922 3314 415 
Q 2916 -91 2278 -91 
Q 1894 -91 1617 61 
Q 1341 213 1159 525 
z
M 3116 1747 
Q 3116 2381 2855 2742 
Q 2594 3103 2138 3103 
Q 1681 3103 1420 2742 
Q 1159 2381 1159 1747 
Q 1159 1113 1420 752 
Q 1681 391 2138 391 
Q 2594 391 2855 752 
Q 3116 1113 3116 1747 
z
" transform="scale(0.015625)"/>
      </defs>
      <use xlink:href="#DejaVuSans-6e"/>
      <use xlink:href="#DejaVuSans-75" x="63.378906"/>
      <use xlink:href="#DejaVuSans-6d" x="126.757812"/>
      <use xlink:href="#DejaVuSans-20" x="224.169922"/>
      <use xlink:href="#DejaVuSans-73" x="255.957031"/>
      <use xlink:href="#DejaVuSans-77" x="308.056641"/>
      <use xlink:href="#DejaVuSans-61" x="389.84375"/>
      <use xlink:href="#DejaVuSans-70" x="451.123047"/>
      <use xlink:href="#DejaVuSans-73" x="514.599609"/>
     </g>
    </g>
   </g>
   <g id="matplotlib.axis_2">
    <g id="ytick_1">
     <g id="line2d_9">
      <defs>
       <path id="m2d6a16abda" d="M 0 0 
L -3.5 0 
" style="stroke: #000000; stroke-width: 0.8"/>
      </defs>
      <g>
       <use xlink:href="#m2d6a16abda" x="57.6" y="274.494942" style="stroke: #000000; stroke-width: 0.8"/>
      </g>
     </g>
     <g id="text_10">
      <!-- 800 -->
      <g transform="translate(31.5125 278.294161)scale(0.1 -0.1)">
       <defs>
        <path id="DejaVuSans-38" d="M 2034 2216 
Q 1584 2216 1326 1975 
Q 1069 1734 1069 1313 
Q 1069 891 1326 650 
Q 1584 409 2034 409 
Q 2484 409 2743 651 
Q 3003 894 3003 1313 
Q 3003 1734 2745 1975 
Q 2488 2216 2034 2216 
z
M 1403 2484 
Q 997 2584 770 2862 
Q 544 3141 544 3541 
Q 544 4100 942 4425 
Q 1341 4750 2034 4750 
Q 2731 4750 3128 4425 
Q 3525 4100 3525 3541 
Q 3525 3141 3298 2862 
Q 3072 2584 2669 2484 
Q 3125 2378 3379 2068 
Q 3634 1759 3634 1313 
Q 3634 634 3220 271 
Q 2806 -91 2034 -91 
Q 1263 -91 848 271 
Q 434 634 434 1313 
Q 434 1759 690 2068 
Q 947 2378 1403 2484 
z
M 1172 3481 
Q 1172 3119 1398 2916 
Q 1625 2713 2034 2713 
Q 2441 2713 2670 2916 
Q 2900 3119 2900 3481 
Q 2900 3844 2670 4047 
Q 2441 4250 2034 4250 
Q 1625 4250 1398 4047 
Q 1172 3844 1172 3481 
z
" transform="scale(0.015625)"/>
       </defs>
       <use xlink:href="#DejaVuSans-38"/>
       <use xlink:href="#DejaVuSans-30" x="63.623047"/>
       <use xlink:href="#DejaVuSans-30" x="127.246094"/>
      </g>
     </g>
    </g>
    <g id="ytick_2">
     <g id="line2d_10">
      <g>
       <use xlink:href="#m2d6a16abda" x="57.6" y="224.511471" style="stroke: #000000; stroke-width: 0.8"/>
      </g>
     </g>
     <g id="text_11">
      <!-- 850 -->
      <g transform="translate(31.5125 228.31069)scale(0.1 -0.1)">
       <use xlink:href="#DejaVuSans-38"/>
       <use xlink:href="#DejaVuSans-35" x="63.623047"/>
       <use xlink:href="#DejaVuSans-30" x="127.246094"/>
      </g>
     </g>
    </g>
    <g id="ytick_3">
     <g id="line2d_11">
      <g>
       <use xlink:href="#m2d6a16abda" x="57.6" y="174.528" style="stroke: #000000; stroke-width: 0.8"/>
      </g>
     </g>
     <g id="text_12">
      <!-- 900 -->
      <g transform="translate(31.5125 178.327219)scale(0.1 -0.1)">
       <defs>
        <path id="DejaVuSans-39" d="M 703 97 
L 703 672 
Q 941 559 1184 500 
Q 1428 441 1663 441 
Q 2288 441 2617 861 
Q 2947 1281 2994 2138 
Q 2813 1869 2534 1725 
Q 2256 1581 1919 1581 
Q 1219 1581 811 2004 
Q 403 2428 403 3163 
Q 403 3881 828 4315 
Q 1253 4750 1959 4750 
Q 2769 4750 3195 4129 
Q 3622 3509 3622 2328 
Q 3622 1225 3098 567 
Q 2575 -91 1691 -91 
Q 1453 -91 1209 -44 
Q 966 3 703 97 
z
M 1959 2075 
Q 2384 2075 2632 2365 
Q 2881 2656 2881 3163 
Q 2881 3666 2632 3958 
Q 2384 4250 1959 4250 
Q 1534 4250 1286 3958 
Q 1038 3666 1038 3163 
Q 1038 2656 1286 2365 
Q 1534 2075 1959 2075 
z
" transform="scale(0.015625)"/>
       </defs>
       <use xlink:href="#DejaVuSans-39"/>
       <use xlink:href="#DejaVuSans-30" x="63.623047"/>
       <use xlink:href="#DejaVuSans-30" x="127.246094"/>
      </g>
     </g>
    </g>
    <g id="ytick_4">
     <g id="line2d_12">
      <g>
       <use xlink:href="#m2d6a16abda" x="57.6" y="124.544529" style="stroke: #000000; stroke-width: 0.8"/>
      </g>
     </g>
     <g id="text_13">
      <!-- 950 -->
      <g transform="translate(31.5125 128.343748)scale(0.1 -0.1)">
       <use xlink:href="#DejaVuSans-39"/>
       <use xlink:href="#DejaVuSans-35" x="63.623047"/>
       <use xlink:href="#DejaVuSans-30" x="127.246094"/>
      </g>
     </g>
    </g>
    <g id="ytick_5">
     <g id="line2d_13">
      <g>
       <use xlink:href="#m2d6a16abda" x="57.6" y="74.561058" style="stroke: #000000; stroke-width: 0.8"/>
      </g>
     </g>
     <g id="text_14">
      <!-- 1000 -->
      <g transform="translate(25.15 78.360277)scale(0.1 -0.1)">
       <use xlink:href="#DejaVuSans-31"/>
       <use xlink:href="#DejaVuSans-30" x="63.623047"/>
       <use xlink:href="#DejaVuSans-30" x="127.246094"/>
       <use xlink:href="#DejaVuSans-30" x="190.869141"/>
      </g>
     </g>
    </g>
    <g id="text_15">
     <!-- total cost -->
     <g transform="translate(19.070312 197.923313)rotate(-90)scale(0.1 -0.1)">
      <defs>
       <path id="DejaVuSans-74" d="M 1172 4494 
L 1172 3500 
L 2356 3500 
L 2356 3053 
L 1172 3053 
L 1172 1153 
Q 1172 725 1289 603 
Q 1406 481 1766 481 
L 2356 481 
L 2356 0 
L 1766 0 
Q 1100 0 847 248 
Q 594 497 594 1153 
L 594 3053 
L 172 3053 
L 172 3500 
L 594 3500 
L 594 4494 
L 1172 4494 
z
" transform="scale(0.015625)"/>
       <path id="DejaVuSans-6f" d="M 1959 3097 
Q 1497 3097 1228 2736 
Q 959 2375 959 1747 
Q 959 1119 1226 758 
Q 1494 397 1959 397 
Q 2419 397 2687 759 
Q 2956 1122 2956 1747 
Q 2956 2369 2687 2733 
Q 2419 3097 1959 3097 
z
M 1959 3584 
Q 2709 3584 3137 3096 
Q 3566 2609 3566 1747 
Q 3566 888 3137 398 
Q 2709 -91 1959 -91 
Q 1206 -91 779 398 
Q 353 888 353 1747 
Q 353 2609 779 3096 
Q 1206 3584 1959 3584 
z
" transform="scale(0.015625)"/>
       <path id="DejaVuSans-6c" d="M 603 4863 
L 1178 4863 
L 1178 0 
L 603 0 
L 603 4863 
z
" transform="scale(0.015625)"/>
       <path id="DejaVuSans-63" d="M 3122 3366 
L 3122 2828 
Q 2878 2963 2633 3030 
Q 2388 3097 2138 3097 
Q 1578 3097 1268 2742 
Q 959 2388 959 1747 
Q 959 1106 1268 751 
Q 1578 397 2138 397 
Q 2388 397 2633 464 
Q 2878 531 3122 666 
L 3122 134 
Q 2881 22 2623 -34 
Q 2366 -91 2075 -91 
Q 1284 -91 818 406 
Q 353 903 353 1747 
Q 353 2603 823 3093 
Q 1294 3584 2113 3584 
Q 2378 3584 2631 3529 
Q 2884 3475 3122 3366 
z
" transform="scale(0.015625)"/>
      </defs>
      <use xlink:href="#DejaVuSans-74"/>
      <use xlink:href="#DejaVuSans-6f" x="39.208984"/>
      <use xlink:href="#DejaVuSans-74" x="100.390625"/>
      <use xlink:href="#DejaVuSans-61" x="139.599609"/>
      <use xlink:href="#DejaVuSans-6c" x="200.878906"/>
      <use xlink:href="#DejaVuSans-20" x="228.662109"/>
      <use xlink:href="#DejaVuSans-63" x="260.449219"/>
      <use xlink:href="#DejaVuSans-6f" x="315.429688"/>
      <use xlink:href="#DejaVuSans-73" x="376.611328"/>
      <use xlink:href="#DejaVuSans-74" x="428.710938"/>
     </g>
    </g>
   </g>
   <g id="line2d_14">
    <path d="M 73.832727 101.552132 
L 74.02181 86.557091 
L 74.210892 83.558083 
L 74.399975 82.558413 
L 74.589057 83.558083 
L 74.778139 88.55643 
L 74.967222 77.560066 
L 75.156304 77.560066 
L 75.345387 74.561058 
L 75.912634 81.558744 
L 76.101717 74.561058 
L 76.290799 78.559736 
L 76.668964 94.554446 
L 76.858046 93.554777 
L 77.047129 83.558083 
L 77.236211 85.557421 
L 77.425294 76.560397 
L 77.803458 72.561719 
L 78.181623 72.561719 
L 78.370706 69.562711 
L 78.559788 70.56238 
L 78.748871 65.564033 
L 79.127036 94.554446 
L 79.316118 95.554116 
L 79.5052 101.552132 
L 79.694283 97.553455 
L 79.883365 99.552793 
L 80.072448 96.553785 
L 80.639695 104.55114 
L 80.828777 105.55081 
L 81.01786 101.552132 
L 81.206942 105.55081 
L 81.396025 99.552793 
L 81.585107 101.552132 
L 81.77419 97.553455 
L 81.963272 99.552793 
L 82.341437 109.549488 
L 82.530519 110.549157 
L 82.908684 119.546182 
L 83.097767 127.543537 
L 83.286849 127.543537 
L 83.475932 126.543868 
L 83.665014 123.54486 
L 83.854096 126.543868 
L 84.043179 126.543868 
L 84.232261 124.544529 
L 84.421344 126.543868 
L 84.610426 124.544529 
L 84.799509 125.544198 
L 84.988591 142.538579 
L 85.177674 141.538909 
L 85.366756 145.537587 
L 85.555838 145.537587 
L 85.744921 144.537917 
L 85.934003 145.537587 
L 86.123086 147.536926 
L 86.312168 144.537917 
L 86.501251 150.535934 
L 86.690333 148.536595 
L 86.879415 158.533289 
L 87.068498 160.532628 
L 87.25758 147.536926 
L 87.635745 142.538579 
L 88.01391 146.537256 
L 88.202993 154.534612 
L 88.392075 146.537256 
L 88.581157 151.535603 
L 88.959322 143.538248 
L 89.148405 140.53924 
L 89.715652 120.545851 
L 90.093817 131.542215 
L 90.471982 121.545521 
L 90.661064 124.544529 
L 91.039229 117.546843 
L 91.228312 117.546843 
L 91.417394 123.54486 
L 91.795559 106.550479 
L 91.984641 115.547504 
L 92.173724 113.548165 
L 92.740971 128.543207 
L 93.119136 121.545521 
L 93.308218 141.538909 
L 93.497301 141.538909 
L 93.875466 144.537917 
L 94.253631 141.538909 
L 94.442713 141.538909 
L 94.631795 148.536595 
L 94.820878 150.535934 
L 95.00996 140.53924 
L 95.199043 141.538909 
L 95.577208 149.536264 
L 95.76629 149.536264 
L 95.955372 146.537256 
L 96.144455 147.536926 
L 96.333537 149.536264 
L 96.52262 149.536264 
L 96.711702 138.539901 
L 96.900785 139.53957 
L 97.468032 122.54519 
L 97.657114 124.544529 
L 98.035279 130.542545 
L 98.224362 123.54486 
L 98.413444 124.544529 
L 98.602527 122.54519 
L 98.791609 126.543868 
L 98.980691 111.548826 
L 99.358856 104.55114 
L 99.737021 109.549488 
L 99.926104 116.547174 
L 100.115186 114.547835 
L 100.304269 99.552793 
L 100.493351 112.548496 
L 100.682433 101.552132 
L 100.871516 114.547835 
L 101.060598 116.547174 
L 101.627846 109.549488 
L 101.816928 106.550479 
L 102.00601 106.550479 
L 102.195093 111.548826 
L 102.384175 107.550149 
L 102.573258 115.547504 
L 102.951423 100.552463 
L 103.140505 100.552463 
L 103.329588 98.553124 
L 103.51867 87.55676 
L 103.896835 102.551802 
L 104.085917 92.555107 
L 104.275 90.555769 
L 104.653165 104.55114 
L 104.842247 99.552793 
L 105.031329 97.553455 
L 105.220412 92.555107 
L 105.409494 92.555107 
L 105.787659 77.560066 
L 105.976742 76.560397 
L 106.165824 77.560066 
L 106.354907 77.560066 
L 106.543989 78.559736 
L 106.733071 80.559074 
L 106.922154 76.560397 
L 107.111236 82.558413 
L 107.300319 69.562711 
L 107.489401 70.56238 
L 107.867566 83.558083 
L 108.056648 81.558744 
L 108.245731 82.558413 
L 108.434813 80.559074 
L 108.623896 82.558413 
L 108.812978 87.55676 
L 109.002061 77.560066 
L 109.191143 77.560066 
L 109.380226 80.559074 
L 109.569308 77.560066 
L 109.947473 86.557091 
L 110.136555 88.55643 
L 110.51472 100.552463 
L 110.703803 119.546182 
L 110.892885 118.546512 
L 111.460132 93.554777 
L 111.649215 94.554446 
L 112.02738 90.555769 
L 112.216462 94.554446 
L 112.783709 84.557752 
L 113.161874 90.555769 
L 113.350957 88.55643 
L 113.729122 90.555769 
L 114.107286 109.549488 
L 114.296369 111.548826 
L 114.485451 111.548826 
L 114.674534 113.548165 
L 114.863616 113.548165 
L 115.052699 107.550149 
L 115.241781 111.548826 
L 115.619946 113.548165 
L 115.809028 116.547174 
L 115.998111 123.54486 
L 116.187193 121.545521 
L 116.376276 116.547174 
L 116.565358 103.551471 
L 116.754441 110.549157 
L 116.943523 109.549488 
L 117.132605 97.553455 
L 117.321688 99.552793 
L 117.699853 117.546843 
L 117.888935 113.548165 
L 118.078018 102.551802 
L 118.2671 100.552463 
L 118.456183 92.555107 
L 118.645265 78.559736 
L 118.834347 80.559074 
L 119.02343 91.555438 
L 119.212512 92.555107 
L 119.401595 91.555438 
L 119.590677 81.558744 
L 119.77976 81.558744 
L 119.968842 80.559074 
L 120.347007 93.554777 
L 120.536089 95.554116 
L 120.725172 101.552132 
L 120.914254 94.554446 
L 121.103337 80.559074 
L 121.292419 81.558744 
L 121.481502 76.560397 
L 121.670584 75.560727 
L 121.859666 78.559736 
L 122.048749 72.561719 
L 122.237831 74.561058 
L 122.426914 71.56205 
L 122.615996 72.561719 
L 122.805079 77.560066 
L 123.372326 98.553124 
L 123.561408 97.553455 
L 123.750491 98.553124 
L 124.128656 111.548826 
L 124.317738 111.548826 
L 124.695903 125.544198 
L 125.641315 114.547835 
L 125.830398 102.551802 
L 126.208563 99.552793 
L 126.397645 99.552793 
L 126.586727 110.549157 
L 126.77581 111.548826 
L 126.964892 114.547835 
L 127.153975 110.549157 
L 127.343057 109.549488 
L 127.53214 120.545851 
L 127.721222 118.546512 
L 127.910304 121.545521 
L 128.099387 118.546512 
L 128.288469 119.546182 
L 128.477552 116.547174 
L 128.666634 109.549488 
L 128.855717 109.549488 
L 129.044799 112.548496 
L 129.422964 130.542545 
L 129.612046 126.543868 
L 129.801129 126.543868 
L 129.990211 123.54486 
L 130.179294 123.54486 
L 130.368376 118.546512 
L 130.557459 121.545521 
L 130.746541 115.547504 
L 130.935623 120.545851 
L 131.313788 104.55114 
L 131.502871 96.553785 
L 131.691953 75.560727 
L 131.881036 77.560066 
L 132.070118 63.564694 
L 132.259201 71.56205 
L 132.637365 77.560066 
L 132.826448 84.557752 
L 133.01553 84.557752 
L 133.204613 93.554777 
L 133.393695 96.553785 
L 133.582778 104.55114 
L 133.77186 99.552793 
L 133.960942 102.551802 
L 134.339107 95.554116 
L 134.717272 110.549157 
L 135.851767 80.559074 
L 136.040849 79.559405 
L 136.229932 90.555769 
L 136.419014 93.554777 
L 136.608097 93.554777 
L 136.797179 90.555769 
L 136.986261 83.558083 
L 137.175344 83.558083 
L 137.364426 87.55676 
L 137.553509 87.55676 
L 137.742591 82.558413 
L 137.931674 82.558413 
L 138.309839 92.555107 
L 138.498921 93.554777 
L 138.688003 92.555107 
L 138.877086 93.554777 
L 139.066168 87.55676 
L 139.255251 86.557091 
L 139.444333 86.557091 
L 139.633416 87.55676 
L 139.822498 87.55676 
L 140.01158 86.557091 
L 140.200663 84.557752 
L 140.389745 86.557091 
L 140.578828 86.557091 
L 140.956993 57.566678 
L 141.146075 66.563702 
L 141.335158 62.565025 
L 141.52424 63.564694 
L 141.713322 61.565355 
L 142.28057 71.56205 
L 142.469652 71.56205 
L 142.658735 64.564364 
L 142.847817 65.564033 
L 143.036899 68.563041 
L 143.225982 57.566678 
L 143.415064 57.566678 
L 143.604147 59.566017 
L 143.793229 58.566347 
L 143.982312 53.568 
L 144.171394 58.566347 
L 144.360477 54.567669 
L 144.549559 55.567339 
L 144.738641 54.567669 
L 145.116806 64.564364 
L 145.305889 85.557421 
L 145.684054 83.558083 
L 145.873136 86.557091 
L 146.251301 81.558744 
L 146.440383 77.560066 
L 146.818548 87.55676 
L 147.007631 96.553785 
L 147.196713 94.554446 
L 147.385796 75.560727 
L 147.574878 74.561058 
L 147.953043 100.552463 
L 148.142125 84.557752 
L 148.331208 85.557421 
L 148.52029 94.554446 
L 148.709373 96.553785 
L 148.898455 116.547174 
L 149.087537 119.546182 
L 149.27662 115.547504 
L 149.654785 103.551471 
L 149.843867 103.551471 
L 150.03295 105.55081 
L 150.222032 112.548496 
L 150.411115 111.548826 
L 150.600197 114.547835 
L 150.789279 113.548165 
L 150.978362 111.548826 
L 151.356527 114.547835 
L 151.545609 108.549818 
L 151.734692 106.550479 
L 151.923774 115.547504 
L 152.301939 113.548165 
L 152.680104 123.54486 
L 152.869186 121.545521 
L 153.058269 112.548496 
L 153.247351 116.547174 
L 153.436434 116.547174 
L 153.625516 133.541554 
L 153.814598 123.54486 
L 154.003681 124.544529 
L 154.192763 122.54519 
L 154.381846 123.54486 
L 155.138175 101.552132 
L 155.51634 106.550479 
L 155.894505 84.557752 
L 156.083588 84.557752 
L 156.27267 83.558083 
L 156.650835 101.552132 
L 156.839917 93.554777 
L 157.218082 97.553455 
L 157.407165 105.55081 
L 157.596247 84.557752 
L 157.78533 85.557421 
L 157.974412 99.552793 
L 158.163494 101.552132 
L 158.352577 107.550149 
L 158.541659 102.551802 
L 158.730742 108.549818 
L 159.108907 96.553785 
L 159.297989 99.552793 
L 159.487072 100.552463 
L 159.676154 100.552463 
L 159.865236 90.555769 
L 160.054319 98.553124 
L 160.243401 90.555769 
L 160.810649 121.545521 
L 160.999731 121.545521 
L 161.188813 120.545851 
L 161.377896 127.543537 
L 161.566978 126.543868 
L 161.945143 128.543207 
L 162.323308 119.546182 
L 162.890555 122.54519 
L 163.079638 108.549818 
L 163.26872 113.548165 
L 163.457803 114.547835 
L 163.646885 111.548826 
L 164.02505 115.547504 
L 164.214132 121.545521 
L 164.403215 109.549488 
L 164.592297 107.550149 
L 164.78138 114.547835 
L 164.970462 108.549818 
L 165.348627 112.548496 
L 165.53771 109.549488 
L 165.726792 108.549818 
L 165.915874 112.548496 
L 166.104957 110.549157 
L 166.294039 105.55081 
L 166.483122 106.550479 
L 166.672204 99.552793 
L 166.861287 85.557421 
L 167.239451 116.547174 
L 167.428534 117.546843 
L 167.617616 115.547504 
L 167.806699 117.546843 
L 167.995781 110.549157 
L 168.184864 110.549157 
L 168.373946 117.546843 
L 168.563029 114.547835 
L 168.752111 109.549488 
L 168.941193 111.548826 
L 169.130276 116.547174 
L 169.319358 117.546843 
L 169.508441 120.545851 
L 169.697523 121.545521 
L 170.075688 113.548165 
L 170.26477 118.546512 
L 170.453853 104.55114 
L 170.642935 100.552463 
L 170.832018 102.551802 
L 171.0211 93.554777 
L 171.210183 90.555769 
L 171.399265 103.551471 
L 171.588348 95.554116 
L 171.77743 96.553785 
L 171.966512 92.555107 
L 172.155595 92.555107 
L 172.344677 96.553785 
L 172.911925 78.559736 
L 173.101007 73.561388 
L 173.290089 77.560066 
L 173.479172 65.564033 
L 173.668254 69.562711 
L 173.857337 62.565025 
L 174.046419 73.561388 
L 174.235502 76.560397 
L 174.424584 73.561388 
L 174.613667 73.561388 
L 174.991831 87.55676 
L 175.180914 83.558083 
L 175.369996 83.558083 
L 175.748161 99.552793 
L 175.937244 100.552463 
L 176.504491 109.549488 
L 176.882656 121.545521 
L 177.071738 125.544198 
L 177.260821 125.544198 
L 177.638986 135.540893 
L 177.828068 133.541554 
L 178.01715 133.541554 
L 178.206233 142.538579 
L 178.395315 139.53957 
L 178.584398 147.536926 
L 178.77348 146.537256 
L 178.962563 139.53957 
L 179.151645 137.540231 
L 179.340727 139.53957 
L 179.718892 137.540231 
L 180.097057 147.536926 
L 180.28614 152.535273 
L 180.475222 151.535603 
L 180.664305 139.53957 
L 181.042469 139.53957 
L 181.231552 153.534942 
L 181.420634 150.535934 
L 181.609717 149.536264 
L 181.798799 150.535934 
L 181.987882 158.533289 
L 182.176964 153.534942 
L 182.366046 144.537917 
L 182.555129 145.537587 
L 182.744211 141.538909 
L 182.933294 140.53924 
L 183.122376 146.537256 
L 183.311459 147.536926 
L 183.500541 146.537256 
L 183.689624 141.538909 
L 183.878706 144.537917 
L 184.067788 138.539901 
L 184.256871 139.53957 
L 184.445953 139.53957 
L 184.635036 138.539901 
L 185.202283 147.536926 
L 185.391365 143.538248 
L 185.580448 135.540893 
L 185.76953 132.541884 
L 185.958613 132.541884 
L 186.147695 133.541554 
L 186.336778 128.543207 
L 186.714943 130.542545 
L 186.904025 139.53957 
L 187.093107 138.539901 
L 187.471272 122.54519 
L 187.849437 138.539901 
L 188.03852 131.542215 
L 188.227602 130.542545 
L 188.416684 127.543537 
L 188.605767 129.542876 
L 188.794849 139.53957 
L 188.983932 134.541223 
L 189.740262 161.532298 
L 189.929344 147.536926 
L 190.118426 150.535934 
L 190.307509 148.536595 
L 190.685674 148.536595 
L 190.874756 142.538579 
L 191.063839 140.53924 
L 191.252921 142.538579 
L 191.442003 136.540562 
L 191.631086 134.541223 
L 191.820168 137.540231 
L 192.198333 128.543207 
L 192.387416 136.540562 
L 192.576498 135.540893 
L 193.143745 121.545521 
L 193.52191 123.54486 
L 193.710993 116.547174 
L 193.900075 118.546512 
L 194.089158 118.546512 
L 194.27824 121.545521 
L 194.656405 114.547835 
L 194.845487 115.547504 
L 195.03457 104.55114 
L 195.223652 118.546512 
L 195.412735 117.546843 
L 195.7909 124.544529 
L 195.979982 118.546512 
L 196.169064 116.547174 
L 196.358147 125.544198 
L 196.547229 122.54519 
L 196.736312 122.54519 
L 197.303559 128.543207 
L 197.492641 124.544529 
L 197.681724 148.536595 
L 197.870806 141.538909 
L 198.059889 140.53924 
L 198.248971 143.538248 
L 198.438054 143.538248 
L 198.627136 144.537917 
L 198.816219 141.538909 
L 199.005301 147.536926 
L 199.194383 144.537917 
L 199.383466 148.536595 
L 199.572548 146.537256 
L 199.950713 146.537256 
L 200.139796 147.536926 
L 200.328878 149.536264 
L 200.517961 147.536926 
L 200.707043 156.53395 
L 201.085208 150.535934 
L 201.27429 148.536595 
L 201.652455 157.53362 
L 201.841538 154.534612 
L 202.03062 158.533289 
L 202.219702 152.535273 
L 202.408785 154.534612 
L 202.597867 151.535603 
L 202.78695 146.537256 
L 202.976032 152.535273 
L 203.165115 146.537256 
L 203.354197 154.534612 
L 203.54328 171.528992 
L 203.732362 163.531636 
L 203.921444 162.531967 
L 204.110527 155.534281 
L 204.488692 162.531967 
L 204.866857 162.531967 
L 205.055939 164.531306 
L 205.245021 163.531636 
L 205.434104 157.53362 
L 205.623186 155.534281 
L 206.001351 166.530645 
L 206.190434 162.531967 
L 206.379516 166.530645 
L 206.568599 166.530645 
L 206.757681 164.531306 
L 206.946763 159.532959 
L 207.135846 148.536595 
L 207.324928 147.536926 
L 207.514011 150.535934 
L 207.703093 145.537587 
L 207.892176 152.535273 
L 208.27034 146.537256 
L 208.459423 141.538909 
L 208.837588 148.536595 
L 209.215753 140.53924 
L 209.404835 141.538909 
L 209.593918 141.538909 
L 209.783 146.537256 
L 209.972082 147.536926 
L 210.350247 150.535934 
L 210.728412 129.542876 
L 210.917495 129.542876 
L 211.295659 138.539901 
L 211.484742 138.539901 
L 211.862907 133.541554 
L 212.051989 128.543207 
L 212.430154 141.538909 
L 212.619237 159.532959 
L 212.808319 157.53362 
L 212.997401 164.531306 
L 213.186484 163.531636 
L 213.375566 167.530314 
L 213.564649 165.530975 
L 213.942814 155.534281 
L 214.131896 150.535934 
L 214.320978 141.538909 
L 214.510061 142.538579 
L 214.699143 138.539901 
L 214.888226 138.539901 
L 215.077308 145.537587 
L 215.266391 142.538579 
L 215.455473 157.53362 
L 215.644556 157.53362 
L 215.833638 160.532628 
L 216.02272 166.530645 
L 216.211803 164.531306 
L 216.400885 156.53395 
L 216.589968 156.53395 
L 216.77905 153.534942 
L 216.968133 153.534942 
L 217.157215 150.535934 
L 217.346297 154.534612 
L 217.53538 167.530314 
L 217.724462 169.529653 
L 217.913545 164.531306 
L 218.480792 138.539901 
L 218.669875 135.540893 
L 218.858957 125.544198 
L 219.048039 121.545521 
L 219.237122 126.543868 
L 219.426204 127.543537 
L 219.615287 121.545521 
L 219.804369 123.54486 
L 220.182534 113.548165 
L 220.371616 115.547504 
L 220.560699 113.548165 
L 220.749781 121.545521 
L 220.938864 122.54519 
L 221.127946 122.54519 
L 221.695194 113.548165 
L 221.884276 114.547835 
L 222.451523 114.547835 
L 222.640606 112.548496 
L 222.829688 117.546843 
L 223.018771 116.547174 
L 223.207853 118.546512 
L 223.586018 129.542876 
L 223.7751 127.543537 
L 223.964183 127.543537 
L 224.153265 130.542545 
L 224.342348 122.54519 
L 224.53143 135.540893 
L 224.720513 134.541223 
L 224.909595 140.53924 
L 225.098677 138.539901 
L 225.28776 132.541884 
L 225.476842 140.53924 
L 225.665925 141.538909 
L 226.04409 133.541554 
L 226.233172 137.540231 
L 226.422254 138.539901 
L 226.611337 136.540562 
L 226.800419 138.539901 
L 226.989502 142.538579 
L 227.178584 139.53957 
L 227.367667 142.538579 
L 227.556749 139.53957 
L 227.934914 122.54519 
L 228.123996 118.546512 
L 228.313079 131.542215 
L 228.502161 132.541884 
L 228.691244 132.541884 
L 228.880326 122.54519 
L 229.258491 129.542876 
L 229.447573 128.543207 
L 229.636656 131.542215 
L 230.014821 145.537587 
L 230.203903 143.538248 
L 230.392986 146.537256 
L 230.582068 145.537587 
L 230.771151 146.537256 
L 231.149315 155.534281 
L 231.338398 149.536264 
L 231.52748 147.536926 
L 231.716563 150.535934 
L 231.905645 150.535934 
L 232.094728 141.538909 
L 232.28381 152.535273 
L 232.472892 155.534281 
L 232.661975 163.531636 
L 232.851057 162.531967 
L 233.04014 165.530975 
L 233.229222 159.532959 
L 233.418305 158.533289 
L 233.607387 162.531967 
L 233.79647 158.533289 
L 233.985552 157.53362 
L 234.174634 169.529653 
L 234.363717 168.529983 
L 234.741882 152.535273 
L 234.930964 155.534281 
L 235.120047 151.535603 
L 235.309129 142.538579 
L 235.498211 142.538579 
L 235.687294 133.541554 
L 235.876376 133.541554 
L 236.065459 132.541884 
L 236.254541 132.541884 
L 236.443624 127.543537 
L 236.632706 131.542215 
L 236.821789 123.54486 
L 237.199953 131.542215 
L 237.389036 127.543537 
L 237.578118 146.537256 
L 237.767201 147.536926 
L 238.145366 154.534612 
L 238.334448 152.535273 
L 238.52353 152.535273 
L 238.712613 156.53395 
L 238.901695 155.534281 
L 239.090778 144.537917 
L 239.27986 146.537256 
L 239.468943 142.538579 
L 239.658025 145.537587 
L 239.847108 140.53924 
L 240.03619 144.537917 
L 240.414355 132.541884 
L 240.603437 139.53957 
L 240.79252 140.53924 
L 240.981602 140.53924 
L 241.170685 151.535603 
L 241.359767 153.534942 
L 241.737932 142.538579 
L 241.927014 142.538579 
L 242.116097 130.542545 
L 242.305179 141.538909 
L 242.494262 137.540231 
L 242.683344 136.540562 
L 242.872427 137.540231 
L 243.061509 140.53924 
L 243.250591 129.542876 
L 243.628756 125.544198 
L 243.817839 129.542876 
L 244.006921 127.543537 
L 244.196004 132.541884 
L 244.385086 142.538579 
L 244.763251 133.541554 
L 244.952333 133.541554 
L 245.141416 134.541223 
L 245.330498 139.53957 
L 245.519581 140.53924 
L 245.708663 138.539901 
L 245.897746 133.541554 
L 246.086828 131.542215 
L 246.27591 133.541554 
L 246.464993 126.543868 
L 246.843158 123.54486 
L 247.03224 125.544198 
L 247.221323 116.547174 
L 247.410405 119.546182 
L 247.78857 109.549488 
L 247.977652 116.547174 
L 248.166735 116.547174 
L 248.5449 109.549488 
L 248.733982 109.549488 
L 248.923065 106.550479 
L 249.112147 105.55081 
L 249.301229 108.549818 
L 249.679394 124.544529 
L 250.057559 109.549488 
L 250.246642 103.551471 
L 250.624806 115.547504 
L 250.813889 119.546182 
L 251.002971 133.541554 
L 251.192054 138.539901 
L 251.381136 134.541223 
L 251.759301 111.548826 
L 251.948384 115.547504 
L 252.137466 126.543868 
L 252.326548 115.547504 
L 252.893796 121.545521 
L 253.461043 111.548826 
L 253.650125 113.548165 
L 253.839208 120.545851 
L 254.02829 117.546843 
L 254.217373 125.544198 
L 254.406455 126.543868 
L 254.595538 121.545521 
L 254.78462 120.545851 
L 254.973703 126.543868 
L 255.162785 125.544198 
L 255.351867 126.543868 
L 255.54095 130.542545 
L 255.730032 126.543868 
L 256.486362 91.555438 
L 256.675444 89.556099 
L 257.242692 114.547835 
L 257.431774 113.548165 
L 257.999022 120.545851 
L 258.188104 112.548496 
L 258.377186 112.548496 
L 258.755351 121.545521 
L 258.944434 121.545521 
L 259.133516 119.546182 
L 259.322599 120.545851 
L 259.511681 108.549818 
L 259.700763 109.549488 
L 259.889846 101.552132 
L 260.078928 100.552463 
L 260.268011 101.552132 
L 261.024341 110.549157 
L 261.213423 114.547835 
L 261.402505 125.544198 
L 261.591588 119.546182 
L 261.78067 118.546512 
L 261.969753 123.54486 
L 262.158835 116.547174 
L 262.347918 121.545521 
L 262.726082 112.548496 
L 262.915165 111.548826 
L 263.104247 108.549818 
L 263.29333 108.549818 
L 263.482412 111.548826 
L 263.671495 106.550479 
L 263.860577 107.550149 
L 264.04966 120.545851 
L 264.427824 120.545851 
L 264.616907 123.54486 
L 265.184154 118.546512 
L 265.373237 119.546182 
L 265.940484 124.544529 
L 266.129566 124.544529 
L 266.318649 128.543207 
L 266.507731 125.544198 
L 266.696814 125.544198 
L 266.885896 130.542545 
L 267.074979 127.543537 
L 267.453143 132.541884 
L 267.642226 141.538909 
L 267.831308 142.538579 
L 268.020391 140.53924 
L 268.209473 144.537917 
L 268.398556 145.537587 
L 268.587638 145.537587 
L 268.77672 150.535934 
L 268.965803 141.538909 
L 269.154885 141.538909 
L 269.343968 142.538579 
L 269.53305 145.537587 
L 269.722133 144.537917 
L 270.100298 151.535603 
L 270.28938 144.537917 
L 270.478462 143.538248 
L 270.667545 138.539901 
L 270.856627 128.543207 
L 271.04571 126.543868 
L 271.234792 127.543537 
L 271.612957 125.544198 
L 271.802039 127.543537 
L 271.991122 131.542215 
L 272.369287 129.542876 
L 272.558369 123.54486 
L 272.747452 127.543537 
L 273.125617 121.545521 
L 273.314699 120.545851 
L 273.503781 121.545521 
L 273.692864 126.543868 
L 273.881946 136.540562 
L 274.449194 133.541554 
L 274.827359 146.537256 
L 275.016441 144.537917 
L 275.205523 145.537587 
L 275.394606 145.537587 
L 275.583688 149.536264 
L 276.150936 143.538248 
L 276.340018 139.53957 
L 276.5291 139.53957 
L 276.907265 131.542215 
L 277.096348 137.540231 
L 277.28543 129.542876 
L 277.474513 131.542215 
L 277.663595 136.540562 
L 277.852678 132.541884 
L 278.04176 131.542215 
L 278.419925 131.542215 
L 278.609007 135.540893 
L 278.79809 143.538248 
L 278.987172 140.53924 
L 279.365337 142.538579 
L 279.743502 121.545521 
L 279.932584 118.546512 
L 280.121667 122.54519 
L 280.310749 132.541884 
L 280.499832 133.541554 
L 280.688914 131.542215 
L 281.067079 135.540893 
L 281.256161 130.542545 
L 281.445244 130.542545 
L 281.634326 131.542215 
L 281.823409 130.542545 
L 282.012491 137.540231 
L 282.201574 138.539901 
L 282.390656 140.53924 
L 282.579738 140.53924 
L 282.957903 149.536264 
L 283.146986 155.534281 
L 283.336068 152.535273 
L 283.525151 152.535273 
L 283.714233 153.534942 
L 283.903316 157.53362 
L 284.092398 156.53395 
L 284.28148 151.535603 
L 284.659645 158.533289 
L 284.848728 160.532628 
L 285.03781 175.527669 
L 285.226893 172.528661 
L 285.605057 184.524694 
L 285.983222 181.525686 
L 286.172305 180.526017 
L 286.361387 172.528661 
L 286.55047 170.529322 
L 286.739552 174.528 
L 286.928635 174.528 
L 287.306799 179.526347 
L 287.684964 181.525686 
L 287.874047 176.527339 
L 288.063129 177.527008 
L 288.441294 159.532959 
L 288.819459 152.535273 
L 289.008541 153.534942 
L 289.197624 153.534942 
L 289.386706 142.538579 
L 289.764871 145.537587 
L 289.953954 142.538579 
L 290.332118 142.538579 
L 290.521201 137.540231 
L 290.710283 135.540893 
L 291.088448 149.536264 
L 291.277531 149.536264 
L 291.655695 158.533289 
L 291.844778 160.532628 
L 292.412025 178.526678 
L 292.601108 178.526678 
L 292.79019 176.527339 
L 292.979273 178.526678 
L 293.54652 168.529983 
L 293.735602 167.530314 
L 293.924685 168.529983 
L 294.113767 171.528992 
L 294.30285 168.529983 
L 294.491932 168.529983 
L 294.870097 166.530645 
L 295.059179 166.530645 
L 295.248262 170.529322 
L 295.437344 171.528992 
L 295.626427 167.530314 
L 295.815509 159.532959 
L 296.004592 164.531306 
L 296.193674 163.531636 
L 296.382756 161.532298 
L 296.571839 157.53362 
L 296.760921 159.532959 
L 296.950004 158.533289 
L 297.328169 169.529653 
L 297.517251 172.528661 
L 297.706333 166.530645 
L 297.895416 165.530975 
L 298.084498 165.530975 
L 298.462663 184.524694 
L 298.651746 184.524694 
L 298.840828 189.523041 
L 299.029911 187.523702 
L 299.218993 183.525025 
L 299.408075 186.524033 
L 299.78624 181.525686 
L 299.975323 192.52205 
L 300.164405 186.524033 
L 300.353488 184.524694 
L 300.54257 179.526347 
L 300.731652 178.526678 
L 300.920735 181.525686 
L 301.109817 176.527339 
L 301.2989 187.523702 
L 301.487982 182.525355 
L 301.866147 182.525355 
L 302.05523 181.525686 
L 302.244312 179.526347 
L 302.433394 171.528992 
L 302.622477 173.528331 
L 303.000642 173.528331 
L 303.189724 180.526017 
L 303.378807 173.528331 
L 303.567889 174.528 
L 303.756971 176.527339 
L 304.135136 186.524033 
L 304.324219 181.525686 
L 304.513301 181.525686 
L 304.702384 182.525355 
L 304.891466 185.524364 
L 305.080549 182.525355 
L 305.269631 176.527339 
L 305.647796 176.527339 
L 305.836878 169.529653 
L 306.215043 175.527669 
L 306.404126 172.528661 
L 306.593208 174.528 
L 306.971373 184.524694 
L 307.160455 183.525025 
L 307.349538 176.527339 
L 307.53862 177.527008 
L 308.29495 189.523041 
L 308.484032 197.520397 
L 308.862197 193.521719 
L 309.05128 197.520397 
L 309.240362 191.52238 
L 309.618527 188.523372 
L 309.807609 187.523702 
L 309.996692 181.525686 
L 310.185774 181.525686 
L 310.374857 182.525355 
L 310.563939 181.525686 
L 310.753022 179.526347 
L 310.942104 180.526017 
L 311.131187 182.525355 
L 311.320269 181.525686 
L 311.698434 185.524364 
L 311.887516 182.525355 
L 312.076599 183.525025 
L 312.265681 179.526347 
L 312.454764 180.526017 
L 312.643846 180.526017 
L 312.832928 181.525686 
L 313.022011 181.525686 
L 313.211093 185.524364 
L 313.400176 185.524364 
L 313.589258 195.521058 
L 313.778341 190.522711 
L 313.967423 192.52205 
L 314.156506 184.524694 
L 314.345588 186.524033 
L 314.53467 185.524364 
L 314.723753 186.524033 
L 314.912835 185.524364 
L 315.291 190.522711 
L 315.480083 194.521388 
L 315.669165 195.521058 
L 316.04733 186.524033 
L 316.236412 183.525025 
L 316.425495 184.524694 
L 316.614577 177.527008 
L 316.80366 180.526017 
L 316.992742 175.527669 
L 317.181825 177.527008 
L 317.370907 182.525355 
L 317.749072 186.524033 
L 317.938154 185.524364 
L 318.316319 181.525686 
L 318.694484 184.524694 
L 318.883566 182.525355 
L 319.072649 187.523702 
L 319.450814 187.523702 
L 320.018061 168.529983 
L 320.207144 166.530645 
L 320.396226 169.529653 
L 320.585308 167.530314 
L 320.774391 173.528331 
L 320.963473 171.528992 
L 321.152556 171.528992 
L 321.341638 169.529653 
L 321.530721 180.526017 
L 321.908885 186.524033 
L 322.097968 182.525355 
L 322.476133 199.519736 
L 322.854298 189.523041 
L 323.04338 189.523041 
L 323.421545 185.524364 
L 323.610627 178.526678 
L 323.988792 188.523372 
L 324.177875 186.524033 
L 324.366957 189.523041 
L 324.55604 189.523041 
L 324.745122 190.522711 
L 324.934204 189.523041 
L 325.123287 196.520727 
L 325.501452 176.527339 
L 325.690534 184.524694 
L 325.879617 185.524364 
L 326.068699 184.524694 
L 326.257782 194.521388 
L 326.446864 195.521058 
L 326.635946 195.521058 
L 327.014111 189.523041 
L 327.203194 190.522711 
L 327.392276 196.520727 
L 327.770441 192.52205 
L 327.959523 198.520066 
L 328.148606 198.520066 
L 328.337688 195.521058 
L 328.526771 200.519405 
L 328.904936 198.520066 
L 329.094018 201.519074 
L 329.472183 201.519074 
L 329.661265 206.517421 
L 329.850348 208.51676 
L 330.03943 207.517091 
L 330.228513 208.51676 
L 330.417595 201.519074 
L 330.606678 200.519405 
L 331.173925 193.521719 
L 331.55209 195.521058 
L 331.930255 189.523041 
L 332.119337 200.519405 
L 332.30842 201.519074 
L 332.497502 213.515107 
L 332.875667 215.514446 
L 333.253832 220.512793 
L 333.442914 206.517421 
L 333.631997 209.51643 
L 333.821079 214.514777 
L 334.010161 210.516099 
L 334.388326 213.515107 
L 334.577409 221.512463 
L 334.766491 221.512463 
L 334.955574 216.514116 
L 335.144656 217.513785 
L 335.522821 212.515438 
L 335.711903 215.514446 
L 335.900986 210.516099 
L 336.090068 213.515107 
L 336.279151 213.515107 
L 336.657316 218.513455 
L 336.846398 214.514777 
L 337.03548 221.512463 
L 337.224563 218.513455 
L 337.413645 217.513785 
L 337.602728 214.514777 
L 337.980893 217.513785 
L 338.169975 215.514446 
L 338.359058 209.51643 
L 338.54814 208.51676 
L 338.737222 202.518744 
L 338.926305 202.518744 
L 339.115387 203.518413 
L 339.30447 202.518744 
L 339.493552 207.517091 
L 339.682635 197.520397 
L 339.871717 194.521388 
L 340.249882 206.517421 
L 340.438964 205.517752 
L 340.628047 206.517421 
L 340.817129 203.518413 
L 341.384377 185.524364 
L 341.762541 185.524364 
L 341.951624 189.523041 
L 342.140706 197.520397 
L 342.329789 194.521388 
L 342.518871 200.519405 
L 342.707954 200.519405 
L 342.897036 199.519736 
L 343.086118 202.518744 
L 343.275201 208.51676 
L 344.031531 196.520727 
L 344.220613 198.520066 
L 344.409696 196.520727 
L 344.598778 188.523372 
L 344.78786 189.523041 
L 344.976943 185.524364 
L 345.166025 186.524033 
L 345.54419 184.524694 
L 345.733273 187.523702 
L 346.111437 197.520397 
L 346.30052 199.519736 
L 346.489602 203.518413 
L 346.678685 211.515769 
L 346.867767 208.51676 
L 347.245932 213.515107 
L 347.435015 213.515107 
L 347.624097 216.514116 
L 347.813179 217.513785 
L 348.002262 216.514116 
L 348.191344 212.515438 
L 348.569509 215.514446 
L 348.758592 213.515107 
L 348.947674 213.515107 
L 349.136756 210.516099 
L 349.325839 209.51643 
L 349.704004 199.519736 
L 349.893086 199.519736 
L 350.082169 206.517421 
L 350.271251 207.517091 
L 350.460334 202.518744 
L 350.649416 204.518083 
L 350.838498 209.51643 
L 351.027581 207.517091 
L 351.216663 210.516099 
L 351.405746 203.518413 
L 351.594828 203.518413 
L 352.162076 208.51676 
L 352.351158 209.51643 
L 352.729323 219.513124 
L 352.918405 221.512463 
L 353.107488 225.51114 
L 353.485653 227.510479 
L 353.863817 225.51114 
L 354.241982 217.513785 
L 354.431065 210.516099 
L 354.620147 213.515107 
L 354.80923 210.516099 
L 354.998312 209.51643 
L 355.187395 213.515107 
L 355.376477 213.515107 
L 355.565559 210.516099 
L 355.754642 210.516099 
L 355.943724 208.51676 
L 356.132807 221.512463 
L 356.510972 229.509818 
L 356.700054 229.509818 
L 356.889136 231.509157 
L 357.078219 230.509488 
L 357.267301 221.512463 
L 357.456384 222.512132 
L 357.645466 227.510479 
L 358.023631 232.508826 
L 358.212714 228.510149 
L 358.779961 244.50486 
L 358.969043 247.503868 
L 359.158126 247.503868 
L 359.347208 244.50486 
L 359.536291 245.504529 
L 359.725373 241.505851 
L 359.914455 243.50519 
L 360.103538 247.503868 
L 360.29262 244.50486 
L 360.481703 247.503868 
L 360.670785 246.504198 
L 360.859868 249.503207 
L 361.04895 250.502876 
L 361.238033 245.504529 
L 361.427115 244.50486 
L 361.80528 241.505851 
L 361.994362 241.505851 
L 362.183445 249.503207 
L 362.56161 249.503207 
L 362.750692 251.502545 
L 362.939774 248.503537 
L 363.128857 252.502215 
L 363.507022 264.498248 
L 363.696104 267.497256 
L 363.885187 272.495603 
L 364.074269 273.495273 
L 364.263352 269.496595 
L 364.452434 269.496595 
L 364.641516 273.495273 
L 365.019681 265.497917 
L 365.208764 265.497917 
L 365.586929 269.496595 
L 365.776011 267.497256 
L 365.965093 277.49395 
L 366.343258 273.495273 
L 366.532341 273.495273 
L 366.910506 263.498579 
L 367.099588 264.498248 
L 367.288671 267.497256 
L 367.477753 262.498909 
L 367.666835 264.498248 
L 367.855918 261.49924 
L 368.234083 266.497587 
L 368.423165 267.497256 
L 368.80133 262.498909 
L 369.179495 252.502215 
L 369.368577 261.49924 
L 369.55766 261.49924 
L 369.746742 251.502545 
L 369.935825 251.502545 
L 370.124907 256.500893 
L 370.31399 256.500893 
L 370.692154 251.502545 
L 370.881237 251.502545 
L 371.070319 254.501554 
L 371.259402 251.502545 
L 371.637567 257.500562 
L 371.826649 259.499901 
L 372.015731 264.498248 
L 372.204814 260.49957 
L 372.393896 263.498579 
L 373.150226 250.502876 
L 373.339309 252.502215 
L 373.528391 252.502215 
L 373.717473 262.498909 
L 373.906556 263.498579 
L 374.095638 265.497917 
L 374.284721 263.498579 
L 374.473803 263.498579 
L 374.662886 267.497256 
L 374.851968 265.497917 
L 375.04105 266.497587 
L 375.230133 263.498579 
L 375.419215 268.496926 
L 375.79738 271.495934 
L 375.986463 276.494281 
L 376.175545 267.497256 
L 376.364628 266.497587 
L 376.55371 269.496595 
L 376.742792 270.496264 
L 376.931875 269.496595 
L 377.120957 274.494942 
L 377.31004 276.494281 
L 377.688205 282.492298 
L 377.877287 283.491967 
L 378.066369 290.489653 
L 378.255452 290.489653 
L 378.822699 285.491306 
L 379.011782 288.490314 
L 379.200864 287.490645 
L 379.389947 283.491967 
L 379.579029 283.491967 
L 380.146276 267.497256 
L 380.335359 266.497587 
L 380.524441 273.495273 
L 380.713524 273.495273 
L 380.902606 271.495934 
L 381.091688 277.49395 
L 381.280771 275.494612 
L 381.469853 276.494281 
L 381.658936 274.494942 
L 381.848018 276.494281 
L 382.037101 276.494281 
L 382.226183 271.495934 
L 382.604348 271.495934 
L 382.79343 269.496595 
L 382.982513 270.496264 
L 383.171595 272.495603 
L 383.360678 269.496595 
L 383.54976 272.495603 
L 383.738843 271.495934 
L 383.927925 269.496595 
L 384.117007 271.495934 
L 384.30609 267.497256 
L 384.495172 268.496926 
L 384.684255 267.497256 
L 384.873337 265.497917 
L 385.251502 256.500893 
L 385.440585 259.499901 
L 385.629667 265.497917 
L 385.818749 264.498248 
L 386.007832 265.497917 
L 386.196914 269.496595 
L 386.575079 264.498248 
L 386.764162 267.497256 
L 386.953244 268.496926 
L 387.142326 270.496264 
L 387.331409 267.497256 
L 387.520491 273.495273 
L 387.709574 275.494612 
L 388.087739 271.495934 
L 388.276821 272.495603 
L 388.465904 272.495603 
L 388.654986 271.495934 
L 389.033151 276.494281 
L 389.222233 278.49362 
L 389.411316 274.494942 
L 389.600398 277.49395 
L 390.167645 280.492959 
L 390.356728 280.492959 
L 390.923975 287.490645 
L 391.491223 281.492628 
L 391.680305 282.492298 
L 391.869387 282.492298 
L 392.247552 286.490975 
L 392.436635 284.491636 
L 392.625717 284.491636 
L 393.003882 282.492298 
L 393.192964 282.492298 
L 393.382047 279.493289 
L 393.571129 279.493289 
L 393.760212 282.492298 
L 394.327459 277.49395 
L 394.705624 287.490645 
L 394.894706 289.489983 
L 395.083789 289.489983 
L 395.272871 284.491636 
L 395.461954 287.490645 
L 395.651036 285.491306 
L 396.029201 291.489322 
L 396.407366 287.490645 
L 396.596448 290.489653 
L 396.974613 287.490645 
L 397.163696 287.490645 
L 397.352778 294.488331 
L 397.541861 295.488 
L 397.730943 295.488 
L 398.109108 289.489983 
L 398.29819 291.489322 
L 398.487273 290.489653 
L 398.487273 290.489653 
" clip-path="url(#pf1232c16ff)" style="fill: none; stroke: #1f77b4; stroke-width: 1.5; stroke-linecap: square"/>
   </g>
   <g id="patch_3">
    <path d="M 57.6 307.584 
L 57.6 41.472 
" style="fill: none; stroke: #000000; stroke-width: 0.8; stroke-linejoin: miter; stroke-linecap: square"/>
   </g>
   <g id="patch_4">
    <path d="M 414.72 307.584 
L 414.72 41.472 
" style="fill: none; stroke: #000000; stroke-width: 0.8; stroke-linejoin: miter; stroke-linecap: square"/>
   </g>
   <g id="patch_5">
    <path d="M 57.6 307.584 
L 414.72 307.584 
" style="fill: none; stroke: #000000; stroke-width: 0.8; stroke-linejoin: miter; stroke-linecap: square"/>
   </g>
   <g id="patch_6">
    <path d="M 57.6 41.472 
L 414.72 41.472 
" style="fill: none; stroke: #000000; stroke-width: 0.8; stroke-linejoin: miter; stroke-linecap: square"/>
   </g>
   <g id="text_16">
    <!-- Simulated Anealling Cost -->
    <g transform="translate(160.8 35.472)scale(0.12 -0.12)">
     <defs>
      <path id="DejaVuSans-53" d="M 3425 4513 
L 3425 3897 
Q 3066 4069 2747 4153 
Q 2428 4238 2131 4238 
Q 1616 4238 1336 4038 
Q 1056 3838 1056 3469 
Q 1056 3159 1242 3001 
Q 1428 2844 1947 2747 
L 2328 2669 
Q 3034 2534 3370 2195 
Q 3706 1856 3706 1288 
Q 3706 609 3251 259 
Q 2797 -91 1919 -91 
Q 1588 -91 1214 -16 
Q 841 59 441 206 
L 441 856 
Q 825 641 1194 531 
Q 1563 422 1919 422 
Q 2459 422 2753 634 
Q 3047 847 3047 1241 
Q 3047 1584 2836 1778 
Q 2625 1972 2144 2069 
L 1759 2144 
Q 1053 2284 737 2584 
Q 422 2884 422 3419 
Q 422 4038 858 4394 
Q 1294 4750 2059 4750 
Q 2388 4750 2728 4690 
Q 3069 4631 3425 4513 
z
" transform="scale(0.015625)"/>
      <path id="DejaVuSans-69" d="M 603 3500 
L 1178 3500 
L 1178 0 
L 603 0 
L 603 3500 
z
M 603 4863 
L 1178 4863 
L 1178 4134 
L 603 4134 
L 603 4863 
z
" transform="scale(0.015625)"/>
      <path id="DejaVuSans-65" d="M 3597 1894 
L 3597 1613 
L 953 1613 
Q 991 1019 1311 708 
Q 1631 397 2203 397 
Q 2534 397 2845 478 
Q 3156 559 3463 722 
L 3463 178 
Q 3153 47 2828 -22 
Q 2503 -91 2169 -91 
Q 1331 -91 842 396 
Q 353 884 353 1716 
Q 353 2575 817 3079 
Q 1281 3584 2069 3584 
Q 2775 3584 3186 3129 
Q 3597 2675 3597 1894 
z
M 3022 2063 
Q 3016 2534 2758 2815 
Q 2500 3097 2075 3097 
Q 1594 3097 1305 2825 
Q 1016 2553 972 2059 
L 3022 2063 
z
" transform="scale(0.015625)"/>
      <path id="DejaVuSans-64" d="M 2906 2969 
L 2906 4863 
L 3481 4863 
L 3481 0 
L 2906 0 
L 2906 525 
Q 2725 213 2448 61 
Q 2172 -91 1784 -91 
Q 1150 -91 751 415 
Q 353 922 353 1747 
Q 353 2572 751 3078 
Q 1150 3584 1784 3584 
Q 2172 3584 2448 3432 
Q 2725 3281 2906 2969 
z
M 947 1747 
Q 947 1113 1208 752 
Q 1469 391 1925 391 
Q 2381 391 2643 752 
Q 2906 1113 2906 1747 
Q 2906 2381 2643 2742 
Q 2381 3103 1925 3103 
Q 1469 3103 1208 2742 
Q 947 2381 947 1747 
z
" transform="scale(0.015625)"/>
      <path id="DejaVuSans-41" d="M 2188 4044 
L 1331 1722 
L 3047 1722 
L 2188 4044 
z
M 1831 4666 
L 2547 4666 
L 4325 0 
L 3669 0 
L 3244 1197 
L 1141 1197 
L 716 0 
L 50 0 
L 1831 4666 
z
" transform="scale(0.015625)"/>
      <path id="DejaVuSans-67" d="M 2906 1791 
Q 2906 2416 2648 2759 
Q 2391 3103 1925 3103 
Q 1463 3103 1205 2759 
Q 947 2416 947 1791 
Q 947 1169 1205 825 
Q 1463 481 1925 481 
Q 2391 481 2648 825 
Q 2906 1169 2906 1791 
z
M 3481 434 
Q 3481 -459 3084 -895 
Q 2688 -1331 1869 -1331 
Q 1566 -1331 1297 -1286 
Q 1028 -1241 775 -1147 
L 775 -588 
Q 1028 -725 1275 -790 
Q 1522 -856 1778 -856 
Q 2344 -856 2625 -561 
Q 2906 -266 2906 331 
L 2906 616 
Q 2728 306 2450 153 
Q 2172 0 1784 0 
Q 1141 0 747 490 
Q 353 981 353 1791 
Q 353 2603 747 3093 
Q 1141 3584 1784 3584 
Q 2172 3584 2450 3431 
Q 2728 3278 2906 2969 
L 2906 3500 
L 3481 3500 
L 3481 434 
z
" transform="scale(0.015625)"/>
      <path id="DejaVuSans-43" d="M 4122 4306 
L 4122 3641 
Q 3803 3938 3442 4084 
Q 3081 4231 2675 4231 
Q 1875 4231 1450 3742 
Q 1025 3253 1025 2328 
Q 1025 1406 1450 917 
Q 1875 428 2675 428 
Q 3081 428 3442 575 
Q 3803 722 4122 1019 
L 4122 359 
Q 3791 134 3420 21 
Q 3050 -91 2638 -91 
Q 1578 -91 968 557 
Q 359 1206 359 2328 
Q 359 3453 968 4101 
Q 1578 4750 2638 4750 
Q 3056 4750 3426 4639 
Q 3797 4528 4122 4306 
z
" transform="scale(0.015625)"/>
     </defs>
     <use xlink:href="#DejaVuSans-53"/>
     <use xlink:href="#DejaVuSans-69" x="63.476562"/>
     <use xlink:href="#DejaVuSans-6d" x="91.259766"/>
     <use xlink:href="#DejaVuSans-75" x="188.671875"/>
     <use xlink:href="#DejaVuSans-6c" x="252.050781"/>
     <use xlink:href="#DejaVuSans-61" x="279.833984"/>
     <use xlink:href="#DejaVuSans-74" x="341.113281"/>
     <use xlink:href="#DejaVuSans-65" x="380.322266"/>
     <use xlink:href="#DejaVuSans-64" x="441.845703"/>
     <use xlink:href="#DejaVuSans-20" x="505.322266"/>
     <use xlink:href="#DejaVuSans-41" x="537.109375"/>
     <use xlink:href="#DejaVuSans-6e" x="605.517578"/>
     <use xlink:href="#DejaVuSans-65" x="668.896484"/>
     <use xlink:href="#DejaVuSans-61" x="730.419922"/>
     <use xlink:href="#DejaVuSans-6c" x="791.699219"/>
     <use xlink:href="#DejaVuSans-6c" x="819.482422"/>
     <use xlink:href="#DejaVuSans-69" x="847.265625"/>
     <use xlink:href="#DejaVuSans-6e" x="875.048828"/>
     <use xlink:href="#DejaVuSans-67" x="938.427734"/>
     <use xlink:href="#DejaVuSans-20" x="1001.904297"/>
     <use xlink:href="#DejaVuSans-43" x="1033.691406"/>
     <use xlink:href="#DejaVuSans-6f" x="1103.515625"/>
     <use xlink:href="#DejaVuSans-73" x="1164.697266"/>
     <use xlink:href="#DejaVuSans-74" x="1216.796875"/>
    </g>
   </g>
  </g>
 </g>
 <defs>
  <clipPath id="pf1232c16ff">
   <rect x="57.6" y="41.472" width="357.12" height="266.112"/>
  </clipPath>
 </defs>
</svg>
