<?xml version="1.0" encoding="utf-8" standalone="no"?>
<!DOCTYPE svg PUBLIC "-//W3C//DTD SVG 1.1//EN"
  "http://www.w3.org/Graphics/SVG/1.1/DTD/svg11.dtd">
<svg xmlns:xlink="http://www.w3.org/1999/xlink" width="460.8pt" height="345.6pt" viewBox="0 0 460.8 345.6" xmlns="http://www.w3.org/2000/svg" version="1.1">
 <metadata>
  <rdf:RDF xmlns:dc="http://purl.org/dc/elements/1.1/" xmlns:cc="http://creativecommons.org/ns#" xmlns:rdf="http://www.w3.org/1999/02/22-rdf-syntax-ns#">
   <cc:Work>
    <dc:type rdf:resource="http://purl.org/dc/dcmitype/StillImage"/>
    <dc:date>2022-06-01T08:02:22.555978</dc:date>
    <dc:format>image/svg+xml</dc:format>
    <dc:creator>
     <cc:Agent>
      <dc:title>Matplotlib v3.5.1, https://matplotlib.org/</dc:title>
     </cc:Agent>
    </dc:creator>
   </cc:Work>
  </rdf:RDF>
 </metadata>
 <defs>
  <style type="text/css">*{stroke-linejoin: round; stroke-linecap: butt}</style>
 </defs>
 <g id="figure_1">
  <g id="patch_1">
   <path d="M 0 345.6 
L 460.8 345.6 
L 460.8 0 
L 0 0 
z
" style="fill: #ffffff"/>
  </g>
  <g id="axes_1">
   <g id="patch_2">
    <path d="M 57.6 307.584 
L 414.72 307.584 
L 414.72 41.472 
L 57.6 41.472 
z
" style="fill: #ffffff"/>
   </g>
   <g id="matplotlib.axis_1">
    <g id="xtick_1">
     <g id="line2d_1">
      <defs>
       <path id="mf06a3d13bf" d="M 0 0 
L 0 3.5 
" style="stroke: #000000; stroke-width: 0.8"/>
      </defs>
      <g>
       <use xlink:href="#mf06a3d13bf" x="73.832727" y="307.584" style="stroke: #000000; stroke-width: 0.8"/>
      </g>
     </g>
     <g id="text_1">
      <!-- 0 -->
      <g transform="translate(70.651477 322.182437)scale(0.1 -0.1)">
       <defs>
        <path id="DejaVuSans-30" d="M 2034 4250 
Q 1547 4250 1301 3770 
Q 1056 3291 1056 2328 
Q 1056 1369 1301 889 
Q 1547 409 2034 409 
Q 2525 409 2770 889 
Q 3016 1369 3016 2328 
Q 3016 3291 2770 3770 
Q 2525 4250 2034 4250 
z
M 2034 4750 
Q 2819 4750 3233 4129 
Q 3647 3509 3647 2328 
Q 3647 1150 3233 529 
Q 2819 -91 2034 -91 
Q 1250 -91 836 529 
Q 422 1150 422 2328 
Q 422 3509 836 4129 
Q 1250 4750 2034 4750 
z
" transform="scale(0.015625)"/>
       </defs>
       <use xlink:href="#DejaVuSans-30"/>
      </g>
     </g>
    </g>
    <g id="xtick_2">
     <g id="line2d_2">
      <g>
       <use xlink:href="#mf06a3d13bf" x="137.943025" y="307.584" style="stroke: #000000; stroke-width: 0.8"/>
      </g>
     </g>
     <g id="text_2">
      <!-- 500 -->
      <g transform="translate(128.399275 322.182437)scale(0.1 -0.1)">
       <defs>
        <path id="DejaVuSans-35" d="M 691 4666 
L 3169 4666 
L 3169 4134 
L 1269 4134 
L 1269 2991 
Q 1406 3038 1543 3061 
Q 1681 3084 1819 3084 
Q 2600 3084 3056 2656 
Q 3513 2228 3513 1497 
Q 3513 744 3044 326 
Q 2575 -91 1722 -91 
Q 1428 -91 1123 -41 
Q 819 9 494 109 
L 494 744 
Q 775 591 1075 516 
Q 1375 441 1709 441 
Q 2250 441 2565 725 
Q 2881 1009 2881 1497 
Q 2881 1984 2565 2268 
Q 2250 2553 1709 2553 
Q 1456 2553 1204 2497 
Q 953 2441 691 2322 
L 691 4666 
z
" transform="scale(0.015625)"/>
       </defs>
       <use xlink:href="#DejaVuSans-35"/>
       <use xlink:href="#DejaVuSans-30" x="63.623047"/>
       <use xlink:href="#DejaVuSans-30" x="127.246094"/>
      </g>
     </g>
    </g>
    <g id="xtick_3">
     <g id="line2d_3">
      <g>
       <use xlink:href="#mf06a3d13bf" x="202.053322" y="307.584" style="stroke: #000000; stroke-width: 0.8"/>
      </g>
     </g>
     <g id="text_3">
      <!-- 1000 -->
      <g transform="translate(189.328322 322.182437)scale(0.1 -0.1)">
       <defs>
        <path id="DejaVuSans-31" d="M 794 531 
L 1825 531 
L 1825 4091 
L 703 3866 
L 703 4441 
L 1819 4666 
L 2450 4666 
L 2450 531 
L 3481 531 
L 3481 0 
L 794 0 
L 794 531 
z
" transform="scale(0.015625)"/>
       </defs>
       <use xlink:href="#DejaVuSans-31"/>
       <use xlink:href="#DejaVuSans-30" x="63.623047"/>
       <use xlink:href="#DejaVuSans-30" x="127.246094"/>
       <use xlink:href="#DejaVuSans-30" x="190.869141"/>
      </g>
     </g>
    </g>
    <g id="xtick_4">
     <g id="line2d_4">
      <g>
       <use xlink:href="#mf06a3d13bf" x="266.163619" y="307.584" style="stroke: #000000; stroke-width: 0.8"/>
      </g>
     </g>
     <g id="text_4">
      <!-- 1500 -->
      <g transform="translate(253.438619 322.182437)scale(0.1 -0.1)">
       <use xlink:href="#DejaVuSans-31"/>
       <use xlink:href="#DejaVuSans-35" x="63.623047"/>
       <use xlink:href="#DejaVuSans-30" x="127.246094"/>
       <use xlink:href="#DejaVuSans-30" x="190.869141"/>
      </g>
     </g>
    </g>
    <g id="xtick_5">
     <g id="line2d_5">
      <g>
       <use xlink:href="#mf06a3d13bf" x="330.273916" y="307.584" style="stroke: #000000; stroke-width: 0.8"/>
      </g>
     </g>
     <g id="text_5">
      <!-- 2000 -->
      <g transform="translate(317.548916 322.182437)scale(0.1 -0.1)">
       <defs>
        <path id="DejaVuSans-32" d="M 1228 531 
L 3431 531 
L 3431 0 
L 469 0 
L 469 531 
Q 828 903 1448 1529 
Q 2069 2156 2228 2338 
Q 2531 2678 2651 2914 
Q 2772 3150 2772 3378 
Q 2772 3750 2511 3984 
Q 2250 4219 1831 4219 
Q 1534 4219 1204 4116 
Q 875 4013 500 3803 
L 500 4441 
Q 881 4594 1212 4672 
Q 1544 4750 1819 4750 
Q 2544 4750 2975 4387 
Q 3406 4025 3406 3419 
Q 3406 3131 3298 2873 
Q 3191 2616 2906 2266 
Q 2828 2175 2409 1742 
Q 1991 1309 1228 531 
z
" transform="scale(0.015625)"/>
       </defs>
       <use xlink:href="#DejaVuSans-32"/>
       <use xlink:href="#DejaVuSans-30" x="63.623047"/>
       <use xlink:href="#DejaVuSans-30" x="127.246094"/>
       <use xlink:href="#DejaVuSans-30" x="190.869141"/>
      </g>
     </g>
    </g>
    <g id="xtick_6">
     <g id="line2d_6">
      <g>
       <use xlink:href="#mf06a3d13bf" x="394.384214" y="307.584" style="stroke: #000000; stroke-width: 0.8"/>
      </g>
     </g>
     <g id="text_6">
      <!-- 2500 -->
      <g transform="translate(381.659214 322.182437)scale(0.1 -0.1)">
       <use xlink:href="#DejaVuSans-32"/>
       <use xlink:href="#DejaVuSans-35" x="63.623047"/>
       <use xlink:href="#DejaVuSans-30" x="127.246094"/>
       <use xlink:href="#DejaVuSans-30" x="190.869141"/>
      </g>
     </g>
    </g>
    <g id="text_7">
     <!-- num swaps -->
     <g transform="translate(207.826406 335.860562)scale(0.1 -0.1)">
      <defs>
       <path id="DejaVuSans-6e" d="M 3513 2113 
L 3513 0 
L 2938 0 
L 2938 2094 
Q 2938 2591 2744 2837 
Q 2550 3084 2163 3084 
Q 1697 3084 1428 2787 
Q 1159 2491 1159 1978 
L 1159 0 
L 581 0 
L 581 3500 
L 1159 3500 
L 1159 2956 
Q 1366 3272 1645 3428 
Q 1925 3584 2291 3584 
Q 2894 3584 3203 3211 
Q 3513 2838 3513 2113 
z
" transform="scale(0.015625)"/>
       <path id="DejaVuSans-75" d="M 544 1381 
L 544 3500 
L 1119 3500 
L 1119 1403 
Q 1119 906 1312 657 
Q 1506 409 1894 409 
Q 2359 409 2629 706 
Q 2900 1003 2900 1516 
L 2900 3500 
L 3475 3500 
L 3475 0 
L 2900 0 
L 2900 538 
Q 2691 219 2414 64 
Q 2138 -91 1772 -91 
Q 1169 -91 856 284 
Q 544 659 544 1381 
z
M 1991 3584 
L 1991 3584 
z
" transform="scale(0.015625)"/>
       <path id="DejaVuSans-6d" d="M 3328 2828 
Q 3544 3216 3844 3400 
Q 4144 3584 4550 3584 
Q 5097 3584 5394 3201 
Q 5691 2819 5691 2113 
L 5691 0 
L 5113 0 
L 5113 2094 
Q 5113 2597 4934 2840 
Q 4756 3084 4391 3084 
Q 3944 3084 3684 2787 
Q 3425 2491 3425 1978 
L 3425 0 
L 2847 0 
L 2847 2094 
Q 2847 2600 2669 2842 
Q 2491 3084 2119 3084 
Q 1678 3084 1418 2786 
Q 1159 2488 1159 1978 
L 1159 0 
L 581 0 
L 581 3500 
L 1159 3500 
L 1159 2956 
Q 1356 3278 1631 3431 
Q 1906 3584 2284 3584 
Q 2666 3584 2933 3390 
Q 3200 3197 3328 2828 
z
" transform="scale(0.015625)"/>
       <path id="DejaVuSans-20" transform="scale(0.015625)"/>
       <path id="DejaVuSans-73" d="M 2834 3397 
L 2834 2853 
Q 2591 2978 2328 3040 
Q 2066 3103 1784 3103 
Q 1356 3103 1142 2972 
Q 928 2841 928 2578 
Q 928 2378 1081 2264 
Q 1234 2150 1697 2047 
L 1894 2003 
Q 2506 1872 2764 1633 
Q 3022 1394 3022 966 
Q 3022 478 2636 193 
Q 2250 -91 1575 -91 
Q 1294 -91 989 -36 
Q 684 19 347 128 
L 347 722 
Q 666 556 975 473 
Q 1284 391 1588 391 
Q 1994 391 2212 530 
Q 2431 669 2431 922 
Q 2431 1156 2273 1281 
Q 2116 1406 1581 1522 
L 1381 1569 
Q 847 1681 609 1914 
Q 372 2147 372 2553 
Q 372 3047 722 3315 
Q 1072 3584 1716 3584 
Q 2034 3584 2315 3537 
Q 2597 3491 2834 3397 
z
" transform="scale(0.015625)"/>
       <path id="DejaVuSans-77" d="M 269 3500 
L 844 3500 
L 1563 769 
L 2278 3500 
L 2956 3500 
L 3675 769 
L 4391 3500 
L 4966 3500 
L 4050 0 
L 3372 0 
L 2619 2869 
L 1863 0 
L 1184 0 
L 269 3500 
z
" transform="scale(0.015625)"/>
       <path id="DejaVuSans-61" d="M 2194 1759 
Q 1497 1759 1228 1600 
Q 959 1441 959 1056 
Q 959 750 1161 570 
Q 1363 391 1709 391 
Q 2188 391 2477 730 
Q 2766 1069 2766 1631 
L 2766 1759 
L 2194 1759 
z
M 3341 1997 
L 3341 0 
L 2766 0 
L 2766 531 
Q 2569 213 2275 61 
Q 1981 -91 1556 -91 
Q 1019 -91 701 211 
Q 384 513 384 1019 
Q 384 1609 779 1909 
Q 1175 2209 1959 2209 
L 2766 2209 
L 2766 2266 
Q 2766 2663 2505 2880 
Q 2244 3097 1772 3097 
Q 1472 3097 1187 3025 
Q 903 2953 641 2809 
L 641 3341 
Q 956 3463 1253 3523 
Q 1550 3584 1831 3584 
Q 2591 3584 2966 3190 
Q 3341 2797 3341 1997 
z
" transform="scale(0.015625)"/>
       <path id="DejaVuSans-70" d="M 1159 525 
L 1159 -1331 
L 581 -1331 
L 581 3500 
L 1159 3500 
L 1159 2969 
Q 1341 3281 1617 3432 
Q 1894 3584 2278 3584 
Q 2916 3584 3314 3078 
Q 3713 2572 3713 1747 
Q 3713 922 3314 415 
Q 2916 -91 2278 -91 
Q 1894 -91 1617 61 
Q 1341 213 1159 525 
z
M 3116 1747 
Q 3116 2381 2855 2742 
Q 2594 3103 2138 3103 
Q 1681 3103 1420 2742 
Q 1159 2381 1159 1747 
Q 1159 1113 1420 752 
Q 1681 391 2138 391 
Q 2594 391 2855 752 
Q 3116 1113 3116 1747 
z
" transform="scale(0.015625)"/>
      </defs>
      <use xlink:href="#DejaVuSans-6e"/>
      <use xlink:href="#DejaVuSans-75" x="63.378906"/>
      <use xlink:href="#DejaVuSans-6d" x="126.757812"/>
      <use xlink:href="#DejaVuSans-20" x="224.169922"/>
      <use xlink:href="#DejaVuSans-73" x="255.957031"/>
      <use xlink:href="#DejaVuSans-77" x="308.056641"/>
      <use xlink:href="#DejaVuSans-61" x="389.84375"/>
      <use xlink:href="#DejaVuSans-70" x="451.123047"/>
      <use xlink:href="#DejaVuSans-73" x="514.599609"/>
     </g>
    </g>
   </g>
   <g id="matplotlib.axis_2">
    <g id="ytick_1">
     <g id="line2d_7">
      <defs>
       <path id="m85d25cfed5" d="M 0 0 
L -3.5 0 
" style="stroke: #000000; stroke-width: 0.8"/>
      </defs>
      <g>
       <use xlink:href="#m85d25cfed5" x="57.6" y="285.958325" style="stroke: #000000; stroke-width: 0.8"/>
      </g>
     </g>
     <g id="text_8">
      <!-- 1000 -->
      <g transform="translate(25.15 289.757544)scale(0.1 -0.1)">
       <use xlink:href="#DejaVuSans-31"/>
       <use xlink:href="#DejaVuSans-30" x="63.623047"/>
       <use xlink:href="#DejaVuSans-30" x="127.246094"/>
       <use xlink:href="#DejaVuSans-30" x="190.869141"/>
      </g>
     </g>
    </g>
    <g id="ytick_2">
     <g id="line2d_8">
      <g>
       <use xlink:href="#m85d25cfed5" x="57.6" y="252.520868" style="stroke: #000000; stroke-width: 0.8"/>
      </g>
     </g>
     <g id="text_9">
      <!-- 1200 -->
      <g transform="translate(25.15 256.320087)scale(0.1 -0.1)">
       <use xlink:href="#DejaVuSans-31"/>
       <use xlink:href="#DejaVuSans-32" x="63.623047"/>
       <use xlink:href="#DejaVuSans-30" x="127.246094"/>
       <use xlink:href="#DejaVuSans-30" x="190.869141"/>
      </g>
     </g>
    </g>
    <g id="ytick_3">
     <g id="line2d_9">
      <g>
       <use xlink:href="#m85d25cfed5" x="57.6" y="219.083411" style="stroke: #000000; stroke-width: 0.8"/>
      </g>
     </g>
     <g id="text_10">
      <!-- 1400 -->
      <g transform="translate(25.15 222.88263)scale(0.1 -0.1)">
       <defs>
        <path id="DejaVuSans-34" d="M 2419 4116 
L 825 1625 
L 2419 1625 
L 2419 4116 
z
M 2253 4666 
L 3047 4666 
L 3047 1625 
L 3713 1625 
L 3713 1100 
L 3047 1100 
L 3047 0 
L 2419 0 
L 2419 1100 
L 313 1100 
L 313 1709 
L 2253 4666 
z
" transform="scale(0.015625)"/>
       </defs>
       <use xlink:href="#DejaVuSans-31"/>
       <use xlink:href="#DejaVuSans-34" x="63.623047"/>
       <use xlink:href="#DejaVuSans-30" x="127.246094"/>
       <use xlink:href="#DejaVuSans-30" x="190.869141"/>
      </g>
     </g>
    </g>
    <g id="ytick_4">
     <g id="line2d_10">
      <g>
       <use xlink:href="#m85d25cfed5" x="57.6" y="185.645954" style="stroke: #000000; stroke-width: 0.8"/>
      </g>
     </g>
     <g id="text_11">
      <!-- 1600 -->
      <g transform="translate(25.15 189.445173)scale(0.1 -0.1)">
       <defs>
        <path id="DejaVuSans-36" d="M 2113 2584 
Q 1688 2584 1439 2293 
Q 1191 2003 1191 1497 
Q 1191 994 1439 701 
Q 1688 409 2113 409 
Q 2538 409 2786 701 
Q 3034 994 3034 1497 
Q 3034 2003 2786 2293 
Q 2538 2584 2113 2584 
z
M 3366 4563 
L 3366 3988 
Q 3128 4100 2886 4159 
Q 2644 4219 2406 4219 
Q 1781 4219 1451 3797 
Q 1122 3375 1075 2522 
Q 1259 2794 1537 2939 
Q 1816 3084 2150 3084 
Q 2853 3084 3261 2657 
Q 3669 2231 3669 1497 
Q 3669 778 3244 343 
Q 2819 -91 2113 -91 
Q 1303 -91 875 529 
Q 447 1150 447 2328 
Q 447 3434 972 4092 
Q 1497 4750 2381 4750 
Q 2619 4750 2861 4703 
Q 3103 4656 3366 4563 
z
" transform="scale(0.015625)"/>
       </defs>
       <use xlink:href="#DejaVuSans-31"/>
       <use xlink:href="#DejaVuSans-36" x="63.623047"/>
       <use xlink:href="#DejaVuSans-30" x="127.246094"/>
       <use xlink:href="#DejaVuSans-30" x="190.869141"/>
      </g>
     </g>
    </g>
    <g id="ytick_5">
     <g id="line2d_11">
      <g>
       <use xlink:href="#m85d25cfed5" x="57.6" y="152.208498" style="stroke: #000000; stroke-width: 0.8"/>
      </g>
     </g>
     <g id="text_12">
      <!-- 1800 -->
      <g transform="translate(25.15 156.007716)scale(0.1 -0.1)">
       <defs>
        <path id="DejaVuSans-38" d="M 2034 2216 
Q 1584 2216 1326 1975 
Q 1069 1734 1069 1313 
Q 1069 891 1326 650 
Q 1584 409 2034 409 
Q 2484 409 2743 651 
Q 3003 894 3003 1313 
Q 3003 1734 2745 1975 
Q 2488 2216 2034 2216 
z
M 1403 2484 
Q 997 2584 770 2862 
Q 544 3141 544 3541 
Q 544 4100 942 4425 
Q 1341 4750 2034 4750 
Q 2731 4750 3128 4425 
Q 3525 4100 3525 3541 
Q 3525 3141 3298 2862 
Q 3072 2584 2669 2484 
Q 3125 2378 3379 2068 
Q 3634 1759 3634 1313 
Q 3634 634 3220 271 
Q 2806 -91 2034 -91 
Q 1263 -91 848 271 
Q 434 634 434 1313 
Q 434 1759 690 2068 
Q 947 2378 1403 2484 
z
M 1172 3481 
Q 1172 3119 1398 2916 
Q 1625 2713 2034 2713 
Q 2441 2713 2670 2916 
Q 2900 3119 2900 3481 
Q 2900 3844 2670 4047 
Q 2441 4250 2034 4250 
Q 1625 4250 1398 4047 
Q 1172 3844 1172 3481 
z
" transform="scale(0.015625)"/>
       </defs>
       <use xlink:href="#DejaVuSans-31"/>
       <use xlink:href="#DejaVuSans-38" x="63.623047"/>
       <use xlink:href="#DejaVuSans-30" x="127.246094"/>
       <use xlink:href="#DejaVuSans-30" x="190.869141"/>
      </g>
     </g>
    </g>
    <g id="ytick_6">
     <g id="line2d_12">
      <g>
       <use xlink:href="#m85d25cfed5" x="57.6" y="118.771041" style="stroke: #000000; stroke-width: 0.8"/>
      </g>
     </g>
     <g id="text_13">
      <!-- 2000 -->
      <g transform="translate(25.15 122.57026)scale(0.1 -0.1)">
       <use xlink:href="#DejaVuSans-32"/>
       <use xlink:href="#DejaVuSans-30" x="63.623047"/>
       <use xlink:href="#DejaVuSans-30" x="127.246094"/>
       <use xlink:href="#DejaVuSans-30" x="190.869141"/>
      </g>
     </g>
    </g>
    <g id="ytick_7">
     <g id="line2d_13">
      <g>
       <use xlink:href="#m85d25cfed5" x="57.6" y="85.333584" style="stroke: #000000; stroke-width: 0.8"/>
      </g>
     </g>
     <g id="text_14">
      <!-- 2200 -->
      <g transform="translate(25.15 89.132803)scale(0.1 -0.1)">
       <use xlink:href="#DejaVuSans-32"/>
       <use xlink:href="#DejaVuSans-32" x="63.623047"/>
       <use xlink:href="#DejaVuSans-30" x="127.246094"/>
       <use xlink:href="#DejaVuSans-30" x="190.869141"/>
      </g>
     </g>
    </g>
    <g id="ytick_8">
     <g id="line2d_14">
      <g>
       <use xlink:href="#m85d25cfed5" x="57.6" y="51.896127" style="stroke: #000000; stroke-width: 0.8"/>
      </g>
     </g>
     <g id="text_15">
      <!-- 2400 -->
      <g transform="translate(25.15 55.695346)scale(0.1 -0.1)">
       <use xlink:href="#DejaVuSans-32"/>
       <use xlink:href="#DejaVuSans-34" x="63.623047"/>
       <use xlink:href="#DejaVuSans-30" x="127.246094"/>
       <use xlink:href="#DejaVuSans-30" x="190.869141"/>
      </g>
     </g>
    </g>
    <g id="text_16">
     <!-- total cost -->
     <g transform="translate(19.070312 197.923313)rotate(-90)scale(0.1 -0.1)">
      <defs>
       <path id="DejaVuSans-74" d="M 1172 4494 
L 1172 3500 
L 2356 3500 
L 2356 3053 
L 1172 3053 
L 1172 1153 
Q 1172 725 1289 603 
Q 1406 481 1766 481 
L 2356 481 
L 2356 0 
L 1766 0 
Q 1100 0 847 248 
Q 594 497 594 1153 
L 594 3053 
L 172 3053 
L 172 3500 
L 594 3500 
L 594 4494 
L 1172 4494 
z
" transform="scale(0.015625)"/>
       <path id="DejaVuSans-6f" d="M 1959 3097 
Q 1497 3097 1228 2736 
Q 959 2375 959 1747 
Q 959 1119 1226 758 
Q 1494 397 1959 397 
Q 2419 397 2687 759 
Q 2956 1122 2956 1747 
Q 2956 2369 2687 2733 
Q 2419 3097 1959 3097 
z
M 1959 3584 
Q 2709 3584 3137 3096 
Q 3566 2609 3566 1747 
Q 3566 888 3137 398 
Q 2709 -91 1959 -91 
Q 1206 -91 779 398 
Q 353 888 353 1747 
Q 353 2609 779 3096 
Q 1206 3584 1959 3584 
z
" transform="scale(0.015625)"/>
       <path id="DejaVuSans-6c" d="M 603 4863 
L 1178 4863 
L 1178 0 
L 603 0 
L 603 4863 
z
" transform="scale(0.015625)"/>
       <path id="DejaVuSans-63" d="M 3122 3366 
L 3122 2828 
Q 2878 2963 2633 3030 
Q 2388 3097 2138 3097 
Q 1578 3097 1268 2742 
Q 959 2388 959 1747 
Q 959 1106 1268 751 
Q 1578 397 2138 397 
Q 2388 397 2633 464 
Q 2878 531 3122 666 
L 3122 134 
Q 2881 22 2623 -34 
Q 2366 -91 2075 -91 
Q 1284 -91 818 406 
Q 353 903 353 1747 
Q 353 2603 823 3093 
Q 1294 3584 2113 3584 
Q 2378 3584 2631 3529 
Q 2884 3475 3122 3366 
z
" transform="scale(0.015625)"/>
      </defs>
      <use xlink:href="#DejaVuSans-74"/>
      <use xlink:href="#DejaVuSans-6f" x="39.208984"/>
      <use xlink:href="#DejaVuSans-74" x="100.390625"/>
      <use xlink:href="#DejaVuSans-61" x="139.599609"/>
      <use xlink:href="#DejaVuSans-6c" x="200.878906"/>
      <use xlink:href="#DejaVuSans-20" x="228.662109"/>
      <use xlink:href="#DejaVuSans-63" x="260.449219"/>
      <use xlink:href="#DejaVuSans-6f" x="315.429688"/>
      <use xlink:href="#DejaVuSans-73" x="376.611328"/>
      <use xlink:href="#DejaVuSans-74" x="428.710938"/>
     </g>
    </g>
   </g>
   <g id="line2d_15">
    <path d="M 73.832727 71.122665 
L 74.089168 72.460163 
L 74.34561 71.122665 
L 74.602051 68.280481 
L 74.858492 61.59299 
L 75.114933 62.261739 
L 75.627816 55.40706 
L 76.140698 53.568 
L 76.65358 60.92424 
L 76.910022 64.267986 
L 77.422904 62.428926 
L 77.679345 61.927364 
L 77.935786 66.107046 
L 78.192227 68.447668 
L 78.448669 83.327337 
L 78.70511 88.510142 
L 78.961551 88.844517 
L 79.217992 87.674206 
L 79.474433 87.507019 
L 79.730875 91.519513 
L 79.987316 90.51639 
L 80.243757 90.182015 
L 80.500198 90.683577 
L 80.756639 89.011704 
L 81.013081 89.680453 
L 81.269522 91.853888 
L 81.525963 91.686701 
L 81.782404 94.528885 
L 82.295287 89.847641 
L 82.551728 98.374192 
L 82.808169 97.705443 
L 83.321051 101.885125 
L 83.577492 102.721062 
L 83.833934 100.547627 
L 84.090375 101.049189 
L 84.346816 100.38044 
L 84.603257 91.352326 
L 84.859698 94.19451 
L 85.11614 94.528885 
L 85.372581 91.017952 
L 85.885463 100.046065 
L 86.141904 102.553874 
L 86.398346 96.869507 
L 86.654787 97.203881 
L 87.167669 91.686701 
L 87.680551 97.538256 
L 87.936993 107.569493 
L 88.193434 107.569493 
L 88.449875 107.73668 
L 88.962757 117.099168 
L 89.47564 104.727309 
L 89.732081 99.042941 
L 89.988522 99.71169 
L 90.501405 102.386687 
L 91.014287 98.039818 
L 91.270728 96.869507 
L 91.527169 92.188263 
L 91.783611 93.860135 
L 92.040052 93.860135 
L 92.296493 97.203881 
L 92.809375 87.507019 
L 93.065816 85.166397 
L 93.322258 88.844517 
L 93.578699 86.16952 
L 93.83514 96.535132 
L 94.091581 94.027323 
L 94.348022 97.036694 
L 94.604464 105.061683 
L 94.860905 106.064807 
L 95.117346 107.73668 
L 95.373787 106.064807 
L 95.630228 106.399182 
L 95.88667 104.727309 
L 96.143111 109.408553 
L 96.655993 111.581988 
L 96.912434 111.581988 
L 97.168875 110.913238 
L 97.938199 114.424171 
L 98.19464 114.089797 
L 98.451081 115.427295 
L 98.707523 115.260108 
L 99.220405 113.25386 
L 99.476846 109.408553 
L 99.733287 111.080426 
L 100.24617 120.108539 
L 100.502611 118.603853 
L 100.759052 117.767917 
L 101.015493 117.935104 
L 101.784817 113.421048 
L 102.041258 113.421048 
L 102.297699 113.755422 
L 102.55414 115.260108 
L 102.810582 114.925733 
L 103.067023 117.60073 
L 103.323464 116.263232 
L 103.579905 110.244489 
L 103.836346 108.906991 
L 104.092788 112.585111 
L 104.349229 113.588235 
L 104.60567 110.244489 
L 104.862111 109.074178 
L 105.118552 106.064807 
L 105.374994 109.074178 
L 106.400758 101.717938 
L 106.657199 102.721062 
L 106.913641 101.885125 
L 107.170082 100.046065 
L 107.426523 99.210129 
L 107.682964 105.396058 
L 107.939405 105.061683 
L 108.708729 97.87263 
L 108.96517 99.210129 
L 109.221611 98.875754 
L 109.478053 94.863259 
L 109.734494 94.863259 
L 109.990935 96.03357 
L 110.247376 93.525761 
L 110.503817 92.857012 
L 110.760259 86.16952 
L 111.0167 88.342955 
L 111.273141 88.510142 
L 111.529582 89.011704 
L 111.786023 92.188263 
L 112.042464 92.857012 
L 112.298906 90.850764 
L 112.555347 91.185139 
L 113.068229 93.358574 
L 113.32467 88.008581 
L 113.581112 102.553874 
L 114.350435 95.866383 
L 114.606876 98.207005 
L 114.863318 107.903867 
L 115.119759 103.389811 
L 115.3762 103.222623 
L 115.632641 103.556998 
L 115.889082 103.556998 
L 116.145523 104.05856 
L 116.401965 102.721062 
L 116.658406 100.714814 
L 116.914847 102.553874 
L 117.171288 102.888249 
L 117.427729 101.216376 
L 117.684171 109.241366 
L 117.940612 102.888249 
L 118.197053 102.553874 
L 118.453494 99.042941 
L 118.709935 97.371068 
L 118.966377 99.71169 
L 119.7357 96.535132 
L 119.992141 97.371068 
L 120.505024 102.386687 
L 120.761465 103.891372 
L 121.017906 104.225747 
L 121.530788 100.046065 
L 121.78723 100.547627 
L 122.043671 97.203881 
L 122.300112 97.538256 
L 122.556553 101.885125 
L 122.812994 98.541379 
L 123.069436 92.857012 
L 123.325877 93.525761 
L 123.582318 97.705443 
L 123.838759 106.733556 
L 124.0952 106.733556 
L 124.351642 108.405429 
L 124.608083 103.222623 
L 124.864524 102.721062 
L 125.120965 110.077302 
L 125.377406 113.086673 
L 125.633847 112.752299 
L 125.890289 113.086673 
L 126.403171 118.102292 
L 126.659612 118.102292 
L 126.916053 118.436666 
L 127.172495 117.767917 
L 127.428936 112.752299 
L 127.685377 114.089797 
L 127.941818 111.080426 
L 128.198259 112.417924 
L 128.454701 111.749175 
L 128.967583 108.572616 
L 129.480465 106.064807 
L 129.736907 106.399182 
L 129.993348 105.730433 
L 130.249789 103.389811 
L 130.50623 103.222623 
L 130.762671 95.030446 
L 131.019112 95.699196 
L 131.275554 93.692948 
L 131.531995 94.027323 
L 131.788436 98.207005 
L 132.044877 97.203881 
L 132.301318 95.197634 
L 132.814201 101.216376 
L 133.070642 107.569493 
L 133.327083 109.57574 
L 133.583524 109.074178 
L 133.839966 109.910115 
L 134.096407 109.910115 
L 134.352848 110.244489 
L 134.609289 109.241366 
L 134.86573 107.402305 
L 135.122171 109.241366 
L 135.378613 105.89762 
L 135.635054 105.563245 
L 136.147936 111.4148 
L 136.404377 111.581988 
L 136.660819 111.581988 
L 136.91726 113.755422 
L 137.943025 95.364821 
L 138.199466 95.699196 
L 138.455907 93.692948 
L 138.712348 92.689824 
L 139.225231 97.87263 
L 139.481672 97.036694 
L 139.738113 98.541379 
L 140.250995 99.878878 
L 140.507436 97.87263 
L 140.763878 97.371068 
L 141.020319 96.200757 
L 141.27676 97.538256 
L 141.533201 98.207005 
L 141.789642 97.538256 
L 142.046084 98.875754 
L 142.558966 99.377316 
L 142.815407 95.532008 
L 143.071848 99.210129 
L 143.32829 100.213252 
L 143.841172 99.210129 
L 144.097613 103.389811 
L 144.354054 104.05856 
L 144.610495 105.89762 
L 144.866937 103.891372 
L 145.123378 97.203881 
L 145.379819 97.538256 
L 145.63626 92.021075 
L 145.892701 94.361697 
L 146.149143 103.891372 
L 146.405584 106.733556 
L 146.662025 107.402305 
L 146.918466 107.235118 
L 147.174907 108.238242 
L 147.431349 113.588235 
L 147.68779 121.780412 
L 148.200672 118.102292 
L 148.457113 118.102292 
L 148.713555 116.764793 
L 149.226437 112.752299 
L 149.99576 127.46478 
L 150.252202 123.452285 
L 150.508643 123.285097 
L 151.021525 126.963218 
L 151.277966 123.619472 
L 151.534408 117.767917 
L 151.790849 117.099168 
L 152.04729 116.931981 
L 152.303731 115.427295 
L 152.560172 115.092921 
L 152.816614 116.096044 
L 153.329496 115.76167 
L 153.585937 116.096044 
L 153.842378 117.60073 
L 154.098819 116.263232 
L 154.355261 114.256984 
L 154.611702 116.764793 
L 154.868143 116.263232 
L 155.124584 116.263232 
L 155.381025 114.925733 
L 155.637467 115.260108 
L 155.893908 112.585111 
L 156.150349 116.430419 
L 156.40679 118.102292 
L 156.663231 117.099168 
L 156.919673 113.086673 
L 157.176114 111.247613 
L 157.432555 114.925733 
L 157.688996 113.92261 
L 157.945437 118.269479 
L 158.45832 119.105415 
L 158.714761 115.76167 
L 159.227643 120.108539 
L 159.484084 118.938228 
L 159.740526 119.941352 
L 159.996967 108.405429 
L 160.253408 109.074178 
L 160.509849 102.052312 
L 160.76629 101.550751 
L 161.792055 112.585111 
L 162.048496 110.578864 
L 162.304938 110.244489 
L 162.561379 112.083549 
L 162.81782 121.27885 
L 163.074261 124.95697 
L 163.330702 121.111663 
L 163.587143 122.449161 
L 163.843585 117.767917 
L 164.100026 118.771041 
L 164.356467 116.430419 
L 164.612908 112.417924 
L 165.125791 110.244489 
L 165.382232 115.092921 
L 165.638673 111.4148 
L 165.895114 113.421048 
L 166.151555 112.585111 
L 166.407997 116.931981 
L 166.920879 114.424171 
L 167.17732 115.928857 
L 167.433761 115.594482 
L 167.690202 116.597606 
L 167.946644 115.594482 
L 168.203085 109.910115 
L 168.459526 110.244489 
L 168.715967 108.739804 
L 168.972408 102.721062 
L 169.22885 103.222623 
L 169.485291 100.547627 
L 169.741732 104.560122 
L 169.998173 99.544503 
L 170.254614 106.064807 
L 170.511056 106.064807 
L 170.767497 101.717938 
L 171.023938 103.389811 
L 171.53682 111.749175 
L 172.049703 115.092921 
L 172.306144 115.76167 
L 172.819026 110.077302 
L 173.075467 103.222623 
L 173.331909 104.05856 
L 173.58835 99.878878 
L 173.844791 99.544503 
L 174.101232 91.185139 
L 174.357673 92.689824 
L 174.614115 90.349202 
L 174.870556 92.35545 
L 175.126997 95.866383 
L 175.383438 93.525761 
L 175.639879 92.857012 
L 176.152762 97.538256 
L 176.409203 90.014828 
L 176.922085 91.853888 
L 177.178526 100.38044 
L 177.434968 101.049189 
L 177.691409 102.888249 
L 177.94785 101.717938 
L 178.204291 101.383563 
L 178.460732 98.374192 
L 178.717174 99.71169 
L 178.973615 89.011704 
L 179.230056 91.185139 
L 179.486497 91.185139 
L 179.742938 88.844517 
L 179.99938 89.346079 
L 180.255821 89.011704 
L 180.512262 87.005457 
L 180.768703 89.680453 
L 181.025144 89.178891 
L 181.538027 94.027323 
L 182.050909 100.046065 
L 182.30735 100.714814 
L 182.820233 109.57574 
L 183.076674 106.566369 
L 183.333115 106.900744 
L 183.589556 107.903867 
L 183.845997 105.730433 
L 184.102439 107.067931 
L 184.35888 102.386687 
L 184.615321 106.566369 
L 184.871762 105.563245 
L 185.128203 107.569493 
L 185.384645 105.563245 
L 185.641086 101.885125 
L 185.897527 100.882001 
L 186.153968 98.708567 
L 186.410409 98.039818 
L 186.923292 102.386687 
L 187.179733 103.222623 
L 187.436174 103.222623 
L 187.692615 102.553874 
L 187.949056 105.89762 
L 188.205498 107.73668 
L 188.461939 105.396058 
L 188.71838 105.563245 
L 188.974821 101.216376 
L 189.231262 101.717938 
L 189.487704 107.402305 
L 189.744145 107.402305 
L 190.257027 101.550751 
L 190.513468 103.055436 
L 190.76991 102.386687 
L 191.026351 106.566369 
L 191.282792 104.894496 
L 191.539233 107.067931 
L 191.795674 102.553874 
L 192.052115 100.882001 
L 192.308557 94.528885 
L 192.564998 100.882001 
L 192.821439 102.2195 
L 193.07788 100.38044 
L 193.334321 105.563245 
L 193.590763 102.052312 
L 193.847204 101.550751 
L 194.103645 98.875754 
L 194.360086 103.055436 
L 194.616527 103.055436 
L 195.12941 106.566369 
L 195.385851 106.733556 
L 195.898733 102.386687 
L 196.411616 102.721062 
L 196.668057 100.213252 
L 196.924498 106.900744 
L 197.180939 107.067931 
L 197.950263 107.903867 
L 198.206704 108.906991 
L 198.463145 108.071055 
L 198.719586 99.042941 
L 198.976028 97.371068 
L 199.232469 96.869507 
L 199.48891 99.377316 
L 199.745351 99.042941 
L 200.001792 104.05856 
L 200.258234 102.386687 
L 200.771116 111.247613 
L 201.027557 109.910115 
L 201.283998 105.89762 
L 201.540439 105.563245 
L 201.796881 101.885125 
L 202.053322 105.563245 
L 202.309763 107.235118 
L 202.566204 105.228871 
L 202.822645 105.228871 
L 203.079087 108.739804 
L 203.335528 106.399182 
L 204.104851 121.446037 
L 204.361293 122.281974 
L 204.874175 111.4148 
L 205.130616 115.260108 
L 205.387057 109.57574 
L 205.643498 111.247613 
L 205.89994 109.241366 
L 206.156381 116.764793 
L 206.412822 120.108539 
L 206.925704 112.417924 
L 207.182146 111.749175 
L 207.438587 109.074178 
L 207.951469 106.900744 
L 208.977234 118.269479 
L 209.233675 125.625719 
L 209.490116 122.114786 
L 210.002999 125.458532 
L 210.515881 131.978836 
L 211.028763 124.789783 
L 211.285205 125.124158 
L 211.798087 129.972589 
L 212.054528 127.297592 
L 212.310969 127.631967 
L 212.567411 135.656956 
L 212.823852 134.988207 
L 213.080293 129.136652 
L 213.336734 127.46478 
L 213.593175 124.789783 
L 213.849617 124.95697 
L 214.106058 131.310087 
L 214.362499 132.647585 
L 214.61894 132.98196 
L 214.875381 130.808525 
L 215.131822 134.486645 
L 215.388264 133.483522 
L 215.644705 133.149147 
L 216.157587 117.099168 
L 216.414028 118.102292 
L 217.183352 105.89762 
L 217.439793 116.263232 
L 217.696234 114.758546 
L 217.952676 114.424171 
L 218.209117 120.442914 
L 218.465558 120.610101 
L 218.721999 118.771041 
L 218.97844 121.947599 
L 219.234882 122.616348 
L 219.747764 129.471027 
L 220.004205 132.480398 
L 220.260646 133.483522 
L 220.517087 135.489769 
L 220.773529 132.480398 
L 221.02997 136.827267 
L 221.286411 136.158518 
L 221.542852 137.830391 
L 221.799293 138.331953 
L 222.055735 144.68507 
L 222.312176 147.025692 
L 222.568617 147.694441 
L 222.825058 158.728802 
L 223.337941 153.211621 
L 223.594382 155.217869 
L 223.850823 159.731925 
L 224.107264 155.552243 
L 224.363705 155.217869 
L 224.876588 157.056929 
L 225.133029 154.883494 
L 225.38947 154.54912 
L 225.645911 152.710059 
L 225.902352 146.356943 
L 226.158794 148.697565 
L 226.415235 148.028815 
L 226.671676 153.378809 
L 226.928117 151.038187 
L 227.184558 151.038187 
L 227.441 147.360066 
L 227.697441 141.675699 
L 227.953882 142.344448 
L 228.210323 142.010073 
L 228.466764 145.019444 
L 228.723206 149.533501 
L 228.979647 150.870999 
L 229.236088 154.883494 
L 229.492529 154.883494 
L 229.74897 156.220992 
L 230.005411 156.722554 
L 230.261853 152.04131 
L 230.518294 151.706936 
L 230.774735 151.706936 
L 231.031176 147.025692 
L 231.287617 145.019444 
L 231.544059 139.669451 
L 232.056941 133.985084 
L 232.313382 135.322582 
L 232.569823 144.183508 
L 232.826265 145.186632 
L 233.082706 148.530377 
L 233.339147 150.035063 
L 234.10847 147.861628 
L 234.364912 148.196003 
L 234.621353 149.533501 
L 234.877794 145.521006 
L 235.134235 143.514759 
L 235.390676 142.511635 
L 235.647118 140.672575 
L 235.903559 141.341324 
L 236.16 146.356943 
L 236.416441 146.691317 
L 236.672882 148.36319 
L 236.929324 147.025692 
L 237.185765 149.366314 
L 237.442206 144.350695 
L 237.698647 144.016321 
L 237.955088 144.016321 
L 238.21153 142.010073 
L 238.467971 142.010073 
L 239.237294 145.353819 
L 239.493735 138.833515 
L 239.750177 141.174137 
L 240.263059 141.675699 
L 240.5195 137.663204 
L 240.775941 139.167889 
L 241.032383 138.666328 
L 241.545265 141.341324 
L 241.801706 134.152271 
L 242.058147 132.814773 
L 242.827471 135.656956 
L 243.083912 133.985084 
L 243.596794 137.663204 
L 243.853236 136.158518 
L 244.366118 130.139776 
L 244.622559 136.492893 
L 245.135442 131.1429 
L 245.391883 127.297592 
L 245.648324 125.625719 
L 245.904765 121.947599 
L 246.161206 122.281974 
L 246.417648 120.944475 
L 246.674089 120.944475 
L 246.93053 119.606977 
L 247.186971 126.127281 
L 247.443412 124.789783 
L 247.699854 125.792907 
L 248.469177 135.991331 
L 248.725618 135.322582 
L 248.982059 137.328829 
L 249.238501 142.84601 
L 249.494942 140.839762 
L 249.751383 141.508511 
L 250.007824 142.511635 
L 250.520707 145.855381 
L 250.777148 151.874123 
L 251.033589 150.035063 
L 251.29003 149.867876 
L 251.546471 147.192879 
L 251.802913 147.192879 
L 252.059354 145.688194 
L 252.315795 146.189755 
L 252.572236 141.842886 
L 252.828677 140.003826 
L 253.085118 142.177261 
L 253.34156 141.508511 
L 253.598001 141.174137 
L 253.854442 141.341324 
L 254.367324 143.849133 
L 254.623766 148.028815 
L 254.880207 147.861628 
L 255.136648 148.196003 
L 255.393089 149.533501 
L 255.64953 144.517883 
L 255.905972 147.192879 
L 256.162413 153.211621 
L 256.418854 153.378809 
L 256.675295 156.889742 
L 256.931736 158.561614 
L 257.188178 157.391303 
L 257.444619 159.063176 
L 257.70106 158.728802 
L 257.957501 155.719431 
L 258.213942 154.883494 
L 258.470383 156.220992 
L 258.726825 155.552243 
L 258.983266 153.211621 
L 259.239707 154.214745 
L 259.496148 154.716307 
L 259.752589 154.381932 
L 260.009031 155.552243 
L 260.265472 158.394427 
L 260.521913 157.725678 
L 261.034795 161.403798 
L 261.291237 155.217869 
L 261.547678 155.385056 
L 261.804119 153.044434 
L 262.06056 156.053805 
L 262.317001 153.044434 
L 262.573442 155.719431 
L 263.086325 149.366314 
L 263.342766 148.864752 
L 263.599207 150.035063 
L 263.855648 152.375685 
L 264.11209 151.372561 
L 264.368531 146.858504 
L 264.624972 151.205374 
L 264.881413 150.20225 
L 265.137854 155.217869 
L 265.394296 155.552243 
L 265.650737 153.545996 
L 265.907178 156.889742 
L 266.163619 157.224116 
L 266.42006 156.220992 
L 266.932943 158.561614 
L 267.189384 154.381932 
L 267.445825 154.54912 
L 267.702266 154.381932 
L 267.958707 155.050681 
L 268.215149 158.22724 
L 268.728031 153.378809 
L 268.984472 155.217869 
L 269.240913 152.208498 
L 269.497355 154.54912 
L 269.753796 153.88037 
L 270.010237 151.038187 
L 270.266678 153.713183 
L 270.523119 152.375685 
L 270.779561 152.208498 
L 271.036002 155.050681 
L 271.292443 156.220992 
L 271.548884 155.886618 
L 271.805325 158.394427 
L 272.061766 158.728802 
L 272.318208 157.224116 
L 272.574649 162.908484 
L 272.83109 159.899113 
L 273.087531 164.245982 
L 273.343972 165.081918 
L 273.600414 163.075671 
L 273.856855 165.249106 
L 274.113296 162.908484 
L 274.369737 163.242858 
L 274.626178 163.911607 
L 274.88262 165.249106 
L 275.139061 165.58348 
L 275.395502 164.580357 
L 275.651943 164.580357 
L 276.164826 162.908484 
L 276.421267 163.242858 
L 276.677708 160.233487 
L 276.934149 159.899113 
L 277.19059 162.239735 
L 277.447031 158.561614 
L 277.703473 156.889742 
L 277.959914 152.208498 
L 278.216355 150.703812 
L 278.472796 149.867876 
L 278.729237 157.725678 
L 278.985679 161.236611 
L 279.24212 161.738173 
L 279.498561 163.74442 
L 280.011443 161.570985 
L 280.267885 162.406922 
L 280.524326 169.428788 
L 280.780767 168.09129 
L 281.293649 164.078795 
L 281.55009 158.895989 
L 281.806532 159.899113 
L 282.062973 159.899113 
L 282.319414 158.22724 
L 282.575855 153.88037 
L 282.832296 155.886618 
L 283.088738 152.877247 
L 283.345179 157.056929 
L 283.60162 156.38818 
L 283.858061 157.056929 
L 284.114502 156.38818 
L 284.370944 153.713183 
L 284.627385 152.208498 
L 284.883826 153.88037 
L 285.140267 161.90536 
L 285.65315 164.078795 
L 285.909591 160.400674 
L 286.166032 162.239735 
L 286.422473 161.403798 
L 286.935355 165.081918 
L 287.191797 166.920979 
L 287.448238 165.58348 
L 287.704679 167.924102 
L 287.96112 171.435035 
L 288.217561 173.274095 
L 288.474003 173.441283 
L 288.730444 173.106908 
L 288.986885 171.76941 
L 289.243326 172.103784 
L 289.499767 170.933473 
L 289.756209 171.100661 
L 290.01265 175.949092 
L 290.525532 170.264724 
L 290.781973 173.942845 
L 291.038414 173.60847 
L 291.294856 175.44753 
L 291.551297 175.113155 
L 291.807738 175.949092 
L 292.064179 175.280343 
L 292.32062 177.955339 
L 292.577062 177.788152 
L 292.833503 174.778781 
L 293.089944 179.12565 
L 293.346385 176.450654 
L 293.602826 179.12565 
L 293.859268 175.949092 
L 294.115709 177.620965 
L 294.37215 175.614717 
L 294.628591 170.599099 
L 294.885032 173.441283 
L 295.141474 168.927226 
L 295.397915 169.93035 
L 295.910797 165.081918 
L 296.167238 165.750668 
L 296.423679 163.74442 
L 296.680121 164.747544 
L 296.936562 163.911607 
L 297.193003 161.570985 
L 297.705885 161.069424 
L 297.962327 161.236611 
L 298.218768 160.0663 
L 298.475209 167.42254 
L 298.73165 167.42254 
L 299.244533 165.416293 
L 299.500974 168.927226 
L 299.757415 166.085042 
L 300.013856 165.750668 
L 300.270297 163.74442 
L 300.526738 164.413169 
L 300.78318 166.085042 
L 301.039621 164.747544 
L 301.296062 164.914731 
L 301.552503 165.249106 
L 301.808944 166.085042 
L 302.065386 166.085042 
L 302.321827 167.756915 
L 302.578268 170.264724 
L 303.09115 169.428788 
L 303.347592 163.242858 
L 303.604033 164.580357 
L 303.860474 159.564738 
L 304.116915 160.902236 
L 304.373356 161.236611 
L 304.629798 160.567862 
L 304.886239 159.564738 
L 305.14268 164.914731 
L 305.399121 165.081918 
L 305.655562 165.750668 
L 306.168445 163.075671 
L 306.424886 162.406922 
L 306.681327 163.242858 
L 306.937768 158.22724 
L 307.450651 155.050681 
L 307.707092 155.050681 
L 307.963533 155.385056 
L 308.219974 154.716307 
L 308.476415 155.050681 
L 308.732857 156.220992 
L 308.989298 159.230364 
L 309.245739 158.561614 
L 309.50218 159.230364 
L 309.758621 159.230364 
L 310.271504 162.406922 
L 310.527945 163.242858 
L 310.784386 160.735049 
L 311.297268 162.574109 
L 311.55371 163.242858 
L 311.810151 166.920979 
L 312.066592 166.252229 
L 312.323033 166.920979 
L 312.835916 173.942845 
L 313.092357 175.614717 
L 313.348798 174.444406 
L 313.605239 171.602223 
L 314.118121 173.441283 
L 314.374563 171.76941 
L 314.887445 174.945968 
L 315.143886 174.945968 
L 315.400327 173.775657 
L 315.656769 171.602223 
L 316.169651 171.936597 
L 316.426092 170.766286 
L 316.682533 171.602223 
L 317.195416 176.116279 
L 317.451857 173.274095 
L 317.708298 174.277219 
L 317.964739 173.106908 
L 318.221181 173.942845 
L 318.734063 182.135021 
L 318.990504 182.469396 
L 319.246945 181.466272 
L 319.503386 182.135021 
L 319.759828 185.144393 
L 320.016269 185.813142 
L 320.27271 189.156887 
L 320.529151 185.478767 
L 320.785592 185.144393 
L 321.042034 183.47252 
L 321.298475 184.141269 
L 321.554916 185.31158 
L 321.811357 184.308456 
L 322.067798 185.144393 
L 322.32424 184.141269 
L 322.580681 184.977205 
L 322.837122 183.974082 
L 323.093563 185.980329 
L 323.350004 184.977205 
L 323.606445 188.320951 
L 323.862887 188.655326 
L 324.119328 191.999071 
L 324.375769 191.664697 
L 324.63221 193.670944 
L 324.888651 194.339693 
L 325.145093 191.999071 
L 325.401534 191.664697 
L 325.657975 193.670944 
L 326.170857 191.330322 
L 326.427299 191.163135 
L 326.68374 191.163135 
L 326.940181 190.160011 
L 327.196622 191.330322 
L 327.453063 191.330322 
L 327.709505 191.664697 
L 328.222387 194.172506 
L 328.478828 192.835008 
L 328.735269 193.336569 
L 328.99171 191.330322 
L 329.248152 190.995947 
L 329.504593 193.670944 
L 329.761034 193.002195 
L 330.017475 190.661573 
L 330.273916 185.813142 
L 330.786799 189.156887 
L 331.04324 189.658449 
L 331.299681 191.999071 
L 331.556122 190.327198 
L 331.812564 190.661573 
L 332.069005 188.320951 
L 332.325446 188.320951 
L 332.581887 187.986576 
L 332.838328 192.333446 
L 333.094769 191.999071 
L 333.351211 191.999071 
L 333.607652 189.825636 
L 333.864093 193.002195 
L 334.120534 194.005319 
L 334.376975 193.838131 
L 334.633417 194.50688 
L 334.889858 191.163135 
L 335.146299 191.163135 
L 335.40274 193.169382 
L 335.659181 193.336569 
L 335.915623 192.66782 
L 336.172064 196.513128 
L 336.684946 193.503757 
L 336.941387 193.503757 
L 337.197829 194.339693 
L 337.45427 192.333446 
L 337.710711 194.674068 
L 338.223593 192.835008 
L 338.480034 191.330322 
L 338.736476 192.166258 
L 338.992917 191.330322 
L 339.249358 191.497509 
L 339.505799 191.497509 
L 339.76224 190.82876 
L 340.018682 190.82876 
L 340.275123 189.324075 
L 340.531564 186.816265 
L 340.788005 185.813142 
L 341.044446 186.983453 
L 341.557329 182.803771 
L 341.81377 183.974082 
L 342.070211 184.141269 
L 342.326652 184.977205 
L 342.583093 188.9897 
L 342.839535 190.160011 
L 343.095976 194.50688 
L 343.608858 190.661573 
L 343.865299 191.999071 
L 344.121741 191.497509 
L 344.378182 191.497509 
L 345.403947 200.525623 
L 345.660388 200.859997 
L 345.916829 197.181877 
L 346.17327 198.352188 
L 346.429711 198.017813 
L 346.942594 202.197496 
L 347.455476 202.197496 
L 347.711917 203.200619 
L 347.968358 202.866245 
L 348.2248 204.872492 
L 348.481241 204.705305 
L 348.994123 201.194372 
L 349.250564 200.191248 
L 349.507006 200.859997 
L 350.019888 203.200619 
L 350.276329 202.364683 
L 350.53277 202.030308 
L 350.789212 202.197496 
L 351.045653 200.358435 
L 351.302094 199.856874 
L 351.814976 202.866245 
L 352.071417 204.036556 
L 352.327859 202.53187 
L 352.5843 202.53187 
L 352.840741 200.525623 
L 353.097182 201.194372 
L 353.353623 201.528746 
L 353.866506 201.528746 
L 354.122947 202.53187 
L 354.379388 201.361559 
L 354.635829 202.030308 
L 354.892271 200.525623 
L 355.148712 202.53187 
L 355.405153 198.519375 
L 355.918035 201.194372 
L 356.174477 201.695934 
L 356.430918 207.045927 
L 356.687359 207.380301 
L 356.9438 208.216238 
L 357.200241 209.888111 
L 357.456682 209.386549 
L 357.713124 210.389672 
L 357.969565 210.891234 
L 358.226006 210.891234 
L 358.482447 210.55686 
L 358.738888 211.392796 
L 358.99533 211.392796 
L 359.251771 211.559983 
L 359.508212 213.231856 
L 359.764653 212.563107 
L 360.021094 212.563107 
L 360.277536 214.067793 
L 360.533977 213.064669 
L 360.790418 213.064669 
L 361.046859 212.39592 
L 361.3033 215.405291 
L 361.559741 215.906853 
L 362.329065 222.761531 
L 362.585506 222.594344 
L 362.841947 222.928719 
L 363.35483 222.092782 
L 363.611271 223.430281 
L 363.867712 223.263093 
L 364.124153 222.25997 
L 364.380595 227.275588 
L 364.637036 227.275588 
L 364.893477 228.278712 
L 365.149918 230.786521 
L 365.406359 231.45527 
L 365.662801 231.45527 
L 365.919242 231.288083 
L 366.175683 232.291207 
L 366.432124 234.631829 
L 366.688565 233.795892 
L 366.945006 234.799016 
L 367.201448 238.309949 
L 367.457889 239.981822 
L 367.71433 240.483384 
L 367.970771 240.483384 
L 368.227212 237.474012 
L 368.483654 240.984945 
L 368.740095 242.656818 
L 368.996536 242.489631 
L 369.509418 242.991193 
L 369.76586 242.991193 
L 370.022301 244.495878 
L 370.278742 244.161504 
L 370.791624 244.161504 
L 371.048065 246.8365 
L 371.304507 247.170875 
L 371.560948 247.839624 
L 371.817389 248.006811 
L 372.07383 248.006811 
L 372.330271 247.839624 
L 372.586713 248.842748 
L 372.843154 250.347433 
L 373.099595 249.511497 
L 373.356036 249.678684 
L 373.612477 251.350557 
L 374.12536 250.681808 
L 374.381801 252.019306 
L 374.638242 251.016182 
L 374.894683 250.848995 
L 375.151125 251.016182 
L 375.407566 250.848995 
L 375.664007 251.18337 
L 375.920448 250.681808 
L 376.176889 251.517744 
L 376.43333 251.517744 
L 376.689772 251.350557 
L 377.202654 257.536487 
L 377.459095 257.870861 
L 377.715536 256.867737 
L 377.971978 258.205236 
L 378.228419 258.372423 
L 378.48486 258.873985 
L 378.741301 258.873985 
L 378.997742 259.542734 
L 379.254184 261.214607 
L 379.510625 261.214607 
L 379.767066 262.21773 
L 380.279948 262.719292 
L 380.536389 264.558352 
L 380.792831 264.558352 
L 381.305713 267.233349 
L 381.562154 267.734911 
L 382.075037 267.734911 
L 382.331478 269.406784 
L 382.587919 269.741158 
L 383.100801 269.741158 
L 383.613684 272.248968 
L 383.870125 272.248968 
L 384.126566 272.583342 
L 384.383007 272.248968 
L 384.639449 270.075533 
L 384.89589 271.747406 
L 385.665213 271.747406 
L 385.921654 271.413031 
L 386.178096 272.416155 
L 386.434537 272.416155 
L 386.690978 272.750529 
L 386.947419 272.416155 
L 387.20386 271.245844 
L 387.460302 271.914593 
L 387.716743 273.084904 
L 387.973184 275.091151 
L 388.229625 275.7599 
L 388.486066 276.094275 
L 388.998949 277.264586 
L 389.511831 277.264586 
L 389.768272 278.602084 
L 390.024713 279.103646 
L 390.281155 278.434897 
L 390.794037 278.936459 
L 391.050478 278.936459 
L 391.306919 279.270833 
L 391.563361 279.939583 
L 391.819802 280.942706 
L 392.076243 280.942706 
L 392.332684 281.277081 
L 392.589125 281.94583 
L 393.102008 282.781766 
L 393.358449 284.286452 
L 393.61489 284.955201 
L 393.871331 285.289576 
L 394.127773 284.453639 
L 394.384214 287.128636 
L 394.640655 287.128636 
L 394.897096 288.298947 
L 395.153537 288.298947 
L 395.66642 290.305194 
L 395.922861 290.472381 
L 396.435743 291.141131 
L 397.205067 291.141131 
L 397.461508 290.806756 
L 397.97439 291.475505 
L 398.230832 292.478629 
L 398.487273 295.488 
L 398.487273 295.488 
" clip-path="url(#p66f7985ceb)" style="fill: none; stroke: #1f77b4; stroke-width: 1.5; stroke-linecap: square"/>
   </g>
   <g id="patch_3">
    <path d="M 57.6 307.584 
L 57.6 41.472 
" style="fill: none; stroke: #000000; stroke-width: 0.8; stroke-linejoin: miter; stroke-linecap: square"/>
   </g>
   <g id="patch_4">
    <path d="M 414.72 307.584 
L 414.72 41.472 
" style="fill: none; stroke: #000000; stroke-width: 0.8; stroke-linejoin: miter; stroke-linecap: square"/>
   </g>
   <g id="patch_5">
    <path d="M 57.6 307.584 
L 414.72 307.584 
" style="fill: none; stroke: #000000; stroke-width: 0.8; stroke-linejoin: miter; stroke-linecap: square"/>
   </g>
   <g id="patch_6">
    <path d="M 57.6 41.472 
L 414.72 41.472 
" style="fill: none; stroke: #000000; stroke-width: 0.8; stroke-linejoin: miter; stroke-linecap: square"/>
   </g>
   <g id="text_17">
    <!-- Simulated Anealling Cost -->
    <g transform="translate(160.8 35.472)scale(0.12 -0.12)">
     <defs>
      <path id="DejaVuSans-53" d="M 3425 4513 
L 3425 3897 
Q 3066 4069 2747 4153 
Q 2428 4238 2131 4238 
Q 1616 4238 1336 4038 
Q 1056 3838 1056 3469 
Q 1056 3159 1242 3001 
Q 1428 2844 1947 2747 
L 2328 2669 
Q 3034 2534 3370 2195 
Q 3706 1856 3706 1288 
Q 3706 609 3251 259 
Q 2797 -91 1919 -91 
Q 1588 -91 1214 -16 
Q 841 59 441 206 
L 441 856 
Q 825 641 1194 531 
Q 1563 422 1919 422 
Q 2459 422 2753 634 
Q 3047 847 3047 1241 
Q 3047 1584 2836 1778 
Q 2625 1972 2144 2069 
L 1759 2144 
Q 1053 2284 737 2584 
Q 422 2884 422 3419 
Q 422 4038 858 4394 
Q 1294 4750 2059 4750 
Q 2388 4750 2728 4690 
Q 3069 4631 3425 4513 
z
" transform="scale(0.015625)"/>
      <path id="DejaVuSans-69" d="M 603 3500 
L 1178 3500 
L 1178 0 
L 603 0 
L 603 3500 
z
M 603 4863 
L 1178 4863 
L 1178 4134 
L 603 4134 
L 603 4863 
z
" transform="scale(0.015625)"/>
      <path id="DejaVuSans-65" d="M 3597 1894 
L 3597 1613 
L 953 1613 
Q 991 1019 1311 708 
Q 1631 397 2203 397 
Q 2534 397 2845 478 
Q 3156 559 3463 722 
L 3463 178 
Q 3153 47 2828 -22 
Q 2503 -91 2169 -91 
Q 1331 -91 842 396 
Q 353 884 353 1716 
Q 353 2575 817 3079 
Q 1281 3584 2069 3584 
Q 2775 3584 3186 3129 
Q 3597 2675 3597 1894 
z
M 3022 2063 
Q 3016 2534 2758 2815 
Q 2500 3097 2075 3097 
Q 1594 3097 1305 2825 
Q 1016 2553 972 2059 
L 3022 2063 
z
" transform="scale(0.015625)"/>
      <path id="DejaVuSans-64" d="M 2906 2969 
L 2906 4863 
L 3481 4863 
L 3481 0 
L 2906 0 
L 2906 525 
Q 2725 213 2448 61 
Q 2172 -91 1784 -91 
Q 1150 -91 751 415 
Q 353 922 353 1747 
Q 353 2572 751 3078 
Q 1150 3584 1784 3584 
Q 2172 3584 2448 3432 
Q 2725 3281 2906 2969 
z
M 947 1747 
Q 947 1113 1208 752 
Q 1469 391 1925 391 
Q 2381 391 2643 752 
Q 2906 1113 2906 1747 
Q 2906 2381 2643 2742 
Q 2381 3103 1925 3103 
Q 1469 3103 1208 2742 
Q 947 2381 947 1747 
z
" transform="scale(0.015625)"/>
      <path id="DejaVuSans-41" d="M 2188 4044 
L 1331 1722 
L 3047 1722 
L 2188 4044 
z
M 1831 4666 
L 2547 4666 
L 4325 0 
L 3669 0 
L 3244 1197 
L 1141 1197 
L 716 0 
L 50 0 
L 1831 4666 
z
" transform="scale(0.015625)"/>
      <path id="DejaVuSans-67" d="M 2906 1791 
Q 2906 2416 2648 2759 
Q 2391 3103 1925 3103 
Q 1463 3103 1205 2759 
Q 947 2416 947 1791 
Q 947 1169 1205 825 
Q 1463 481 1925 481 
Q 2391 481 2648 825 
Q 2906 1169 2906 1791 
z
M 3481 434 
Q 3481 -459 3084 -895 
Q 2688 -1331 1869 -1331 
Q 1566 -1331 1297 -1286 
Q 1028 -1241 775 -1147 
L 775 -588 
Q 1028 -725 1275 -790 
Q 1522 -856 1778 -856 
Q 2344 -856 2625 -561 
Q 2906 -266 2906 331 
L 2906 616 
Q 2728 306 2450 153 
Q 2172 0 1784 0 
Q 1141 0 747 490 
Q 353 981 353 1791 
Q 353 2603 747 3093 
Q 1141 3584 1784 3584 
Q 2172 3584 2450 3431 
Q 2728 3278 2906 2969 
L 2906 3500 
L 3481 3500 
L 3481 434 
z
" transform="scale(0.015625)"/>
      <path id="DejaVuSans-43" d="M 4122 4306 
L 4122 3641 
Q 3803 3938 3442 4084 
Q 3081 4231 2675 4231 
Q 1875 4231 1450 3742 
Q 1025 3253 1025 2328 
Q 1025 1406 1450 917 
Q 1875 428 2675 428 
Q 3081 428 3442 575 
Q 3803 722 4122 1019 
L 4122 359 
Q 3791 134 3420 21 
Q 3050 -91 2638 -91 
Q 1578 -91 968 557 
Q 359 1206 359 2328 
Q 359 3453 968 4101 
Q 1578 4750 2638 4750 
Q 3056 4750 3426 4639 
Q 3797 4528 4122 4306 
z
" transform="scale(0.015625)"/>
     </defs>
     <use xlink:href="#DejaVuSans-53"/>
     <use xlink:href="#DejaVuSans-69" x="63.476562"/>
     <use xlink:href="#DejaVuSans-6d" x="91.259766"/>
     <use xlink:href="#DejaVuSans-75" x="188.671875"/>
     <use xlink:href="#DejaVuSans-6c" x="252.050781"/>
     <use xlink:href="#DejaVuSans-61" x="279.833984"/>
     <use xlink:href="#DejaVuSans-74" x="341.113281"/>
     <use xlink:href="#DejaVuSans-65" x="380.322266"/>
     <use xlink:href="#DejaVuSans-64" x="441.845703"/>
     <use xlink:href="#DejaVuSans-20" x="505.322266"/>
     <use xlink:href="#DejaVuSans-41" x="537.109375"/>
     <use xlink:href="#DejaVuSans-6e" x="605.517578"/>
     <use xlink:href="#DejaVuSans-65" x="668.896484"/>
     <use xlink:href="#DejaVuSans-61" x="730.419922"/>
     <use xlink:href="#DejaVuSans-6c" x="791.699219"/>
     <use xlink:href="#DejaVuSans-6c" x="819.482422"/>
     <use xlink:href="#DejaVuSans-69" x="847.265625"/>
     <use xlink:href="#DejaVuSans-6e" x="875.048828"/>
     <use xlink:href="#DejaVuSans-67" x="938.427734"/>
     <use xlink:href="#DejaVuSans-20" x="1001.904297"/>
     <use xlink:href="#DejaVuSans-43" x="1033.691406"/>
     <use xlink:href="#DejaVuSans-6f" x="1103.515625"/>
     <use xlink:href="#DejaVuSans-73" x="1164.697266"/>
     <use xlink:href="#DejaVuSans-74" x="1216.796875"/>
    </g>
   </g>
  </g>
 </g>
 <defs>
  <clipPath id="p66f7985ceb">
   <rect x="57.6" y="41.472" width="357.12" height="266.112"/>
  </clipPath>
 </defs>
</svg>
