<?xml version="1.0" encoding="utf-8" standalone="no"?>
<!DOCTYPE svg PUBLIC "-//W3C//DTD SVG 1.1//EN"
  "http://www.w3.org/Graphics/SVG/1.1/DTD/svg11.dtd">
<svg xmlns:xlink="http://www.w3.org/1999/xlink" width="460.8pt" height="345.6pt" viewBox="0 0 460.8 345.6" xmlns="http://www.w3.org/2000/svg" version="1.1">
 <metadata>
  <rdf:RDF xmlns:dc="http://purl.org/dc/elements/1.1/" xmlns:cc="http://creativecommons.org/ns#" xmlns:rdf="http://www.w3.org/1999/02/22-rdf-syntax-ns#">
   <cc:Work>
    <dc:type rdf:resource="http://purl.org/dc/dcmitype/StillImage"/>
    <dc:date>2022-06-01T07:59:55.160112</dc:date>
    <dc:format>image/svg+xml</dc:format>
    <dc:creator>
     <cc:Agent>
      <dc:title>Matplotlib v3.5.1, https://matplotlib.org/</dc:title>
     </cc:Agent>
    </dc:creator>
   </cc:Work>
  </rdf:RDF>
 </metadata>
 <defs>
  <style type="text/css">*{stroke-linejoin: round; stroke-linecap: butt}</style>
 </defs>
 <g id="figure_1">
  <g id="patch_1">
   <path d="M 0 345.6 
L 460.8 345.6 
L 460.8 0 
L 0 0 
z
" style="fill: #ffffff"/>
  </g>
  <g id="axes_1">
   <g id="patch_2">
    <path d="M 57.6 307.584 
L 414.72 307.584 
L 414.72 41.472 
L 57.6 41.472 
z
" style="fill: #ffffff"/>
   </g>
   <g id="matplotlib.axis_1">
    <g id="xtick_1">
     <g id="line2d_1">
      <defs>
       <path id="ma902e7f240" d="M 0 0 
L 0 3.5 
" style="stroke: #000000; stroke-width: 0.8"/>
      </defs>
      <g>
       <use xlink:href="#ma902e7f240" x="73.832727" y="307.584" style="stroke: #000000; stroke-width: 0.8"/>
      </g>
     </g>
     <g id="text_1">
      <!-- 0 -->
      <g transform="translate(70.651477 322.182437)scale(0.1 -0.1)">
       <defs>
        <path id="DejaVuSans-30" d="M 2034 4250 
Q 1547 4250 1301 3770 
Q 1056 3291 1056 2328 
Q 1056 1369 1301 889 
Q 1547 409 2034 409 
Q 2525 409 2770 889 
Q 3016 1369 3016 2328 
Q 3016 3291 2770 3770 
Q 2525 4250 2034 4250 
z
M 2034 4750 
Q 2819 4750 3233 4129 
Q 3647 3509 3647 2328 
Q 3647 1150 3233 529 
Q 2819 -91 2034 -91 
Q 1250 -91 836 529 
Q 422 1150 422 2328 
Q 422 3509 836 4129 
Q 1250 4750 2034 4750 
z
" transform="scale(0.015625)"/>
       </defs>
       <use xlink:href="#DejaVuSans-30"/>
      </g>
     </g>
    </g>
    <g id="xtick_2">
     <g id="line2d_2">
      <g>
       <use xlink:href="#ma902e7f240" x="148.328952" y="307.584" style="stroke: #000000; stroke-width: 0.8"/>
      </g>
     </g>
     <g id="text_2">
      <!-- 1000 -->
      <g transform="translate(135.603952 322.182437)scale(0.1 -0.1)">
       <defs>
        <path id="DejaVuSans-31" d="M 794 531 
L 1825 531 
L 1825 4091 
L 703 3866 
L 703 4441 
L 1819 4666 
L 2450 4666 
L 2450 531 
L 3481 531 
L 3481 0 
L 794 0 
L 794 531 
z
" transform="scale(0.015625)"/>
       </defs>
       <use xlink:href="#DejaVuSans-31"/>
       <use xlink:href="#DejaVuSans-30" x="63.623047"/>
       <use xlink:href="#DejaVuSans-30" x="127.246094"/>
       <use xlink:href="#DejaVuSans-30" x="190.869141"/>
      </g>
     </g>
    </g>
    <g id="xtick_3">
     <g id="line2d_3">
      <g>
       <use xlink:href="#ma902e7f240" x="222.825176" y="307.584" style="stroke: #000000; stroke-width: 0.8"/>
      </g>
     </g>
     <g id="text_3">
      <!-- 2000 -->
      <g transform="translate(210.100176 322.182437)scale(0.1 -0.1)">
       <defs>
        <path id="DejaVuSans-32" d="M 1228 531 
L 3431 531 
L 3431 0 
L 469 0 
L 469 531 
Q 828 903 1448 1529 
Q 2069 2156 2228 2338 
Q 2531 2678 2651 2914 
Q 2772 3150 2772 3378 
Q 2772 3750 2511 3984 
Q 2250 4219 1831 4219 
Q 1534 4219 1204 4116 
Q 875 4013 500 3803 
L 500 4441 
Q 881 4594 1212 4672 
Q 1544 4750 1819 4750 
Q 2544 4750 2975 4387 
Q 3406 4025 3406 3419 
Q 3406 3131 3298 2873 
Q 3191 2616 2906 2266 
Q 2828 2175 2409 1742 
Q 1991 1309 1228 531 
z
" transform="scale(0.015625)"/>
       </defs>
       <use xlink:href="#DejaVuSans-32"/>
       <use xlink:href="#DejaVuSans-30" x="63.623047"/>
       <use xlink:href="#DejaVuSans-30" x="127.246094"/>
       <use xlink:href="#DejaVuSans-30" x="190.869141"/>
      </g>
     </g>
    </g>
    <g id="xtick_4">
     <g id="line2d_4">
      <g>
       <use xlink:href="#ma902e7f240" x="297.3214" y="307.584" style="stroke: #000000; stroke-width: 0.8"/>
      </g>
     </g>
     <g id="text_4">
      <!-- 3000 -->
      <g transform="translate(284.5964 322.182437)scale(0.1 -0.1)">
       <defs>
        <path id="DejaVuSans-33" d="M 2597 2516 
Q 3050 2419 3304 2112 
Q 3559 1806 3559 1356 
Q 3559 666 3084 287 
Q 2609 -91 1734 -91 
Q 1441 -91 1130 -33 
Q 819 25 488 141 
L 488 750 
Q 750 597 1062 519 
Q 1375 441 1716 441 
Q 2309 441 2620 675 
Q 2931 909 2931 1356 
Q 2931 1769 2642 2001 
Q 2353 2234 1838 2234 
L 1294 2234 
L 1294 2753 
L 1863 2753 
Q 2328 2753 2575 2939 
Q 2822 3125 2822 3475 
Q 2822 3834 2567 4026 
Q 2313 4219 1838 4219 
Q 1578 4219 1281 4162 
Q 984 4106 628 3988 
L 628 4550 
Q 988 4650 1302 4700 
Q 1616 4750 1894 4750 
Q 2613 4750 3031 4423 
Q 3450 4097 3450 3541 
Q 3450 3153 3228 2886 
Q 3006 2619 2597 2516 
z
" transform="scale(0.015625)"/>
       </defs>
       <use xlink:href="#DejaVuSans-33"/>
       <use xlink:href="#DejaVuSans-30" x="63.623047"/>
       <use xlink:href="#DejaVuSans-30" x="127.246094"/>
       <use xlink:href="#DejaVuSans-30" x="190.869141"/>
      </g>
     </g>
    </g>
    <g id="xtick_5">
     <g id="line2d_5">
      <g>
       <use xlink:href="#ma902e7f240" x="371.817624" y="307.584" style="stroke: #000000; stroke-width: 0.8"/>
      </g>
     </g>
     <g id="text_5">
      <!-- 4000 -->
      <g transform="translate(359.092624 322.182437)scale(0.1 -0.1)">
       <defs>
        <path id="DejaVuSans-34" d="M 2419 4116 
L 825 1625 
L 2419 1625 
L 2419 4116 
z
M 2253 4666 
L 3047 4666 
L 3047 1625 
L 3713 1625 
L 3713 1100 
L 3047 1100 
L 3047 0 
L 2419 0 
L 2419 1100 
L 313 1100 
L 313 1709 
L 2253 4666 
z
" transform="scale(0.015625)"/>
       </defs>
       <use xlink:href="#DejaVuSans-34"/>
       <use xlink:href="#DejaVuSans-30" x="63.623047"/>
       <use xlink:href="#DejaVuSans-30" x="127.246094"/>
       <use xlink:href="#DejaVuSans-30" x="190.869141"/>
      </g>
     </g>
    </g>
    <g id="text_6">
     <!-- num swaps -->
     <g transform="translate(207.826406 335.860562)scale(0.1 -0.1)">
      <defs>
       <path id="DejaVuSans-6e" d="M 3513 2113 
L 3513 0 
L 2938 0 
L 2938 2094 
Q 2938 2591 2744 2837 
Q 2550 3084 2163 3084 
Q 1697 3084 1428 2787 
Q 1159 2491 1159 1978 
L 1159 0 
L 581 0 
L 581 3500 
L 1159 3500 
L 1159 2956 
Q 1366 3272 1645 3428 
Q 1925 3584 2291 3584 
Q 2894 3584 3203 3211 
Q 3513 2838 3513 2113 
z
" transform="scale(0.015625)"/>
       <path id="DejaVuSans-75" d="M 544 1381 
L 544 3500 
L 1119 3500 
L 1119 1403 
Q 1119 906 1312 657 
Q 1506 409 1894 409 
Q 2359 409 2629 706 
Q 2900 1003 2900 1516 
L 2900 3500 
L 3475 3500 
L 3475 0 
L 2900 0 
L 2900 538 
Q 2691 219 2414 64 
Q 2138 -91 1772 -91 
Q 1169 -91 856 284 
Q 544 659 544 1381 
z
M 1991 3584 
L 1991 3584 
z
" transform="scale(0.015625)"/>
       <path id="DejaVuSans-6d" d="M 3328 2828 
Q 3544 3216 3844 3400 
Q 4144 3584 4550 3584 
Q 5097 3584 5394 3201 
Q 5691 2819 5691 2113 
L 5691 0 
L 5113 0 
L 5113 2094 
Q 5113 2597 4934 2840 
Q 4756 3084 4391 3084 
Q 3944 3084 3684 2787 
Q 3425 2491 3425 1978 
L 3425 0 
L 2847 0 
L 2847 2094 
Q 2847 2600 2669 2842 
Q 2491 3084 2119 3084 
Q 1678 3084 1418 2786 
Q 1159 2488 1159 1978 
L 1159 0 
L 581 0 
L 581 3500 
L 1159 3500 
L 1159 2956 
Q 1356 3278 1631 3431 
Q 1906 3584 2284 3584 
Q 2666 3584 2933 3390 
Q 3200 3197 3328 2828 
z
" transform="scale(0.015625)"/>
       <path id="DejaVuSans-20" transform="scale(0.015625)"/>
       <path id="DejaVuSans-73" d="M 2834 3397 
L 2834 2853 
Q 2591 2978 2328 3040 
Q 2066 3103 1784 3103 
Q 1356 3103 1142 2972 
Q 928 2841 928 2578 
Q 928 2378 1081 2264 
Q 1234 2150 1697 2047 
L 1894 2003 
Q 2506 1872 2764 1633 
Q 3022 1394 3022 966 
Q 3022 478 2636 193 
Q 2250 -91 1575 -91 
Q 1294 -91 989 -36 
Q 684 19 347 128 
L 347 722 
Q 666 556 975 473 
Q 1284 391 1588 391 
Q 1994 391 2212 530 
Q 2431 669 2431 922 
Q 2431 1156 2273 1281 
Q 2116 1406 1581 1522 
L 1381 1569 
Q 847 1681 609 1914 
Q 372 2147 372 2553 
Q 372 3047 722 3315 
Q 1072 3584 1716 3584 
Q 2034 3584 2315 3537 
Q 2597 3491 2834 3397 
z
" transform="scale(0.015625)"/>
       <path id="DejaVuSans-77" d="M 269 3500 
L 844 3500 
L 1563 769 
L 2278 3500 
L 2956 3500 
L 3675 769 
L 4391 3500 
L 4966 3500 
L 4050 0 
L 3372 0 
L 2619 2869 
L 1863 0 
L 1184 0 
L 269 3500 
z
" transform="scale(0.015625)"/>
       <path id="DejaVuSans-61" d="M 2194 1759 
Q 1497 1759 1228 1600 
Q 959 1441 959 1056 
Q 959 750 1161 570 
Q 1363 391 1709 391 
Q 2188 391 2477 730 
Q 2766 1069 2766 1631 
L 2766 1759 
L 2194 1759 
z
M 3341 1997 
L 3341 0 
L 2766 0 
L 2766 531 
Q 2569 213 2275 61 
Q 1981 -91 1556 -91 
Q 1019 -91 701 211 
Q 384 513 384 1019 
Q 384 1609 779 1909 
Q 1175 2209 1959 2209 
L 2766 2209 
L 2766 2266 
Q 2766 2663 2505 2880 
Q 2244 3097 1772 3097 
Q 1472 3097 1187 3025 
Q 903 2953 641 2809 
L 641 3341 
Q 956 3463 1253 3523 
Q 1550 3584 1831 3584 
Q 2591 3584 2966 3190 
Q 3341 2797 3341 1997 
z
" transform="scale(0.015625)"/>
       <path id="DejaVuSans-70" d="M 1159 525 
L 1159 -1331 
L 581 -1331 
L 581 3500 
L 1159 3500 
L 1159 2969 
Q 1341 3281 1617 3432 
Q 1894 3584 2278 3584 
Q 2916 3584 3314 3078 
Q 3713 2572 3713 1747 
Q 3713 922 3314 415 
Q 2916 -91 2278 -91 
Q 1894 -91 1617 61 
Q 1341 213 1159 525 
z
M 3116 1747 
Q 3116 2381 2855 2742 
Q 2594 3103 2138 3103 
Q 1681 3103 1420 2742 
Q 1159 2381 1159 1747 
Q 1159 1113 1420 752 
Q 1681 391 2138 391 
Q 2594 391 2855 752 
Q 3116 1113 3116 1747 
z
" transform="scale(0.015625)"/>
      </defs>
      <use xlink:href="#DejaVuSans-6e"/>
      <use xlink:href="#DejaVuSans-75" x="63.378906"/>
      <use xlink:href="#DejaVuSans-6d" x="126.757812"/>
      <use xlink:href="#DejaVuSans-20" x="224.169922"/>
      <use xlink:href="#DejaVuSans-73" x="255.957031"/>
      <use xlink:href="#DejaVuSans-77" x="308.056641"/>
      <use xlink:href="#DejaVuSans-61" x="389.84375"/>
      <use xlink:href="#DejaVuSans-70" x="451.123047"/>
      <use xlink:href="#DejaVuSans-73" x="514.599609"/>
     </g>
    </g>
   </g>
   <g id="matplotlib.axis_2">
    <g id="ytick_1">
     <g id="line2d_6">
      <defs>
       <path id="m19ad7c1699" d="M 0 0 
L -3.5 0 
" style="stroke: #000000; stroke-width: 0.8"/>
      </defs>
      <g>
       <use xlink:href="#m19ad7c1699" x="57.6" y="279.230976" style="stroke: #000000; stroke-width: 0.8"/>
      </g>
     </g>
     <g id="text_7">
      <!-- 1000 -->
      <g transform="translate(25.15 283.030195)scale(0.1 -0.1)">
       <use xlink:href="#DejaVuSans-31"/>
       <use xlink:href="#DejaVuSans-30" x="63.623047"/>
       <use xlink:href="#DejaVuSans-30" x="127.246094"/>
       <use xlink:href="#DejaVuSans-30" x="190.869141"/>
      </g>
     </g>
    </g>
    <g id="ytick_2">
     <g id="line2d_7">
      <g>
       <use xlink:href="#m19ad7c1699" x="57.6" y="240.523776" style="stroke: #000000; stroke-width: 0.8"/>
      </g>
     </g>
     <g id="text_8">
      <!-- 1100 -->
      <g transform="translate(25.15 244.322995)scale(0.1 -0.1)">
       <use xlink:href="#DejaVuSans-31"/>
       <use xlink:href="#DejaVuSans-31" x="63.623047"/>
       <use xlink:href="#DejaVuSans-30" x="127.246094"/>
       <use xlink:href="#DejaVuSans-30" x="190.869141"/>
      </g>
     </g>
    </g>
    <g id="ytick_3">
     <g id="line2d_8">
      <g>
       <use xlink:href="#m19ad7c1699" x="57.6" y="201.816576" style="stroke: #000000; stroke-width: 0.8"/>
      </g>
     </g>
     <g id="text_9">
      <!-- 1200 -->
      <g transform="translate(25.15 205.615795)scale(0.1 -0.1)">
       <use xlink:href="#DejaVuSans-31"/>
       <use xlink:href="#DejaVuSans-32" x="63.623047"/>
       <use xlink:href="#DejaVuSans-30" x="127.246094"/>
       <use xlink:href="#DejaVuSans-30" x="190.869141"/>
      </g>
     </g>
    </g>
    <g id="ytick_4">
     <g id="line2d_9">
      <g>
       <use xlink:href="#m19ad7c1699" x="57.6" y="163.109376" style="stroke: #000000; stroke-width: 0.8"/>
      </g>
     </g>
     <g id="text_10">
      <!-- 1300 -->
      <g transform="translate(25.15 166.908595)scale(0.1 -0.1)">
       <use xlink:href="#DejaVuSans-31"/>
       <use xlink:href="#DejaVuSans-33" x="63.623047"/>
       <use xlink:href="#DejaVuSans-30" x="127.246094"/>
       <use xlink:href="#DejaVuSans-30" x="190.869141"/>
      </g>
     </g>
    </g>
    <g id="ytick_5">
     <g id="line2d_10">
      <g>
       <use xlink:href="#m19ad7c1699" x="57.6" y="124.402176" style="stroke: #000000; stroke-width: 0.8"/>
      </g>
     </g>
     <g id="text_11">
      <!-- 1400 -->
      <g transform="translate(25.15 128.201395)scale(0.1 -0.1)">
       <use xlink:href="#DejaVuSans-31"/>
       <use xlink:href="#DejaVuSans-34" x="63.623047"/>
       <use xlink:href="#DejaVuSans-30" x="127.246094"/>
       <use xlink:href="#DejaVuSans-30" x="190.869141"/>
      </g>
     </g>
    </g>
    <g id="ytick_6">
     <g id="line2d_11">
      <g>
       <use xlink:href="#m19ad7c1699" x="57.6" y="85.694976" style="stroke: #000000; stroke-width: 0.8"/>
      </g>
     </g>
     <g id="text_12">
      <!-- 1500 -->
      <g transform="translate(25.15 89.494195)scale(0.1 -0.1)">
       <defs>
        <path id="DejaVuSans-35" d="M 691 4666 
L 3169 4666 
L 3169 4134 
L 1269 4134 
L 1269 2991 
Q 1406 3038 1543 3061 
Q 1681 3084 1819 3084 
Q 2600 3084 3056 2656 
Q 3513 2228 3513 1497 
Q 3513 744 3044 326 
Q 2575 -91 1722 -91 
Q 1428 -91 1123 -41 
Q 819 9 494 109 
L 494 744 
Q 775 591 1075 516 
Q 1375 441 1709 441 
Q 2250 441 2565 725 
Q 2881 1009 2881 1497 
Q 2881 1984 2565 2268 
Q 2250 2553 1709 2553 
Q 1456 2553 1204 2497 
Q 953 2441 691 2322 
L 691 4666 
z
" transform="scale(0.015625)"/>
       </defs>
       <use xlink:href="#DejaVuSans-31"/>
       <use xlink:href="#DejaVuSans-35" x="63.623047"/>
       <use xlink:href="#DejaVuSans-30" x="127.246094"/>
       <use xlink:href="#DejaVuSans-30" x="190.869141"/>
      </g>
     </g>
    </g>
    <g id="ytick_7">
     <g id="line2d_12">
      <g>
       <use xlink:href="#m19ad7c1699" x="57.6" y="46.987776" style="stroke: #000000; stroke-width: 0.8"/>
      </g>
     </g>
     <g id="text_13">
      <!-- 1600 -->
      <g transform="translate(25.15 50.786995)scale(0.1 -0.1)">
       <defs>
        <path id="DejaVuSans-36" d="M 2113 2584 
Q 1688 2584 1439 2293 
Q 1191 2003 1191 1497 
Q 1191 994 1439 701 
Q 1688 409 2113 409 
Q 2538 409 2786 701 
Q 3034 994 3034 1497 
Q 3034 2003 2786 2293 
Q 2538 2584 2113 2584 
z
M 3366 4563 
L 3366 3988 
Q 3128 4100 2886 4159 
Q 2644 4219 2406 4219 
Q 1781 4219 1451 3797 
Q 1122 3375 1075 2522 
Q 1259 2794 1537 2939 
Q 1816 3084 2150 3084 
Q 2853 3084 3261 2657 
Q 3669 2231 3669 1497 
Q 3669 778 3244 343 
Q 2819 -91 2113 -91 
Q 1303 -91 875 529 
Q 447 1150 447 2328 
Q 447 3434 972 4092 
Q 1497 4750 2381 4750 
Q 2619 4750 2861 4703 
Q 3103 4656 3366 4563 
z
" transform="scale(0.015625)"/>
       </defs>
       <use xlink:href="#DejaVuSans-31"/>
       <use xlink:href="#DejaVuSans-36" x="63.623047"/>
       <use xlink:href="#DejaVuSans-30" x="127.246094"/>
       <use xlink:href="#DejaVuSans-30" x="190.869141"/>
      </g>
     </g>
    </g>
    <g id="text_14">
     <!-- total cost -->
     <g transform="translate(19.070312 197.923313)rotate(-90)scale(0.1 -0.1)">
      <defs>
       <path id="DejaVuSans-74" d="M 1172 4494 
L 1172 3500 
L 2356 3500 
L 2356 3053 
L 1172 3053 
L 1172 1153 
Q 1172 725 1289 603 
Q 1406 481 1766 481 
L 2356 481 
L 2356 0 
L 1766 0 
Q 1100 0 847 248 
Q 594 497 594 1153 
L 594 3053 
L 172 3053 
L 172 3500 
L 594 3500 
L 594 4494 
L 1172 4494 
z
" transform="scale(0.015625)"/>
       <path id="DejaVuSans-6f" d="M 1959 3097 
Q 1497 3097 1228 2736 
Q 959 2375 959 1747 
Q 959 1119 1226 758 
Q 1494 397 1959 397 
Q 2419 397 2687 759 
Q 2956 1122 2956 1747 
Q 2956 2369 2687 2733 
Q 2419 3097 1959 3097 
z
M 1959 3584 
Q 2709 3584 3137 3096 
Q 3566 2609 3566 1747 
Q 3566 888 3137 398 
Q 2709 -91 1959 -91 
Q 1206 -91 779 398 
Q 353 888 353 1747 
Q 353 2609 779 3096 
Q 1206 3584 1959 3584 
z
" transform="scale(0.015625)"/>
       <path id="DejaVuSans-6c" d="M 603 4863 
L 1178 4863 
L 1178 0 
L 603 0 
L 603 4863 
z
" transform="scale(0.015625)"/>
       <path id="DejaVuSans-63" d="M 3122 3366 
L 3122 2828 
Q 2878 2963 2633 3030 
Q 2388 3097 2138 3097 
Q 1578 3097 1268 2742 
Q 959 2388 959 1747 
Q 959 1106 1268 751 
Q 1578 397 2138 397 
Q 2388 397 2633 464 
Q 2878 531 3122 666 
L 3122 134 
Q 2881 22 2623 -34 
Q 2366 -91 2075 -91 
Q 1284 -91 818 406 
Q 353 903 353 1747 
Q 353 2603 823 3093 
Q 1294 3584 2113 3584 
Q 2378 3584 2631 3529 
Q 2884 3475 3122 3366 
z
" transform="scale(0.015625)"/>
      </defs>
      <use xlink:href="#DejaVuSans-74"/>
      <use xlink:href="#DejaVuSans-6f" x="39.208984"/>
      <use xlink:href="#DejaVuSans-74" x="100.390625"/>
      <use xlink:href="#DejaVuSans-61" x="139.599609"/>
      <use xlink:href="#DejaVuSans-6c" x="200.878906"/>
      <use xlink:href="#DejaVuSans-20" x="228.662109"/>
      <use xlink:href="#DejaVuSans-63" x="260.449219"/>
      <use xlink:href="#DejaVuSans-6f" x="315.429688"/>
      <use xlink:href="#DejaVuSans-73" x="376.611328"/>
      <use xlink:href="#DejaVuSans-74" x="428.710938"/>
     </g>
    </g>
   </g>
   <g id="line2d_13">
    <path d="M 73.832727 63.2448 
L 73.98172 68.276736 
L 74.130712 66.341376 
L 74.428697 70.599168 
L 74.57769 69.437952 
L 74.726682 67.11552 
L 74.875674 72.534528 
L 75.024667 72.534528 
L 75.173659 74.082816 
L 75.322652 74.082816 
L 75.471644 73.308672 
L 75.620637 69.437952 
L 75.769629 69.05088 
L 75.918622 71.760384 
L 76.067614 71.373312 
L 76.365599 74.469888 
L 76.514591 75.244032 
L 76.663584 74.85696 
L 76.961569 69.05088 
L 77.110561 70.599168 
L 77.259554 70.599168 
L 77.408546 71.373312 
L 77.855523 55.50336 
L 78.004516 54.342144 
L 78.153508 60.922368 
L 78.302501 60.535296 
L 78.451493 62.857728 
L 78.600486 62.470656 
L 78.749478 60.535296 
L 78.898471 62.470656 
L 79.047463 58.599936 
L 79.196455 60.148224 
L 79.345448 59.761152 
L 79.941418 54.342144 
L 80.239403 56.277504 
L 80.388395 54.729216 
L 81.133357 66.341376 
L 81.28235 64.793088 
L 81.580335 70.98624 
L 81.729327 67.889664 
L 81.878319 69.437952 
L 82.027312 73.695744 
L 82.176304 73.695744 
L 82.623282 68.276736 
L 82.772274 69.437952 
L 82.921267 69.437952 
L 83.070259 72.9216 
L 83.517236 67.889664 
L 83.666229 67.502592 
L 83.815221 69.437952 
L 83.964214 68.276736 
L 84.113206 70.212096 
L 84.411191 69.437952 
L 84.560184 72.534528 
L 84.858168 67.889664 
L 85.156153 69.05088 
L 85.305146 67.889664 
L 85.454138 67.889664 
L 85.603131 68.276736 
L 85.752123 67.889664 
L 85.901116 68.276736 
L 86.050108 70.98624 
L 86.199101 68.663808 
L 86.348093 72.534528 
L 86.497085 73.308672 
L 86.646078 75.631104 
L 86.79507 75.631104 
L 86.944063 72.147456 
L 87.093055 75.631104 
L 87.242048 76.018176 
L 87.689025 82.211328 
L 87.838017 80.275968 
L 87.98701 80.66304 
L 88.284995 76.018176 
L 88.433987 77.566464 
L 88.731972 78.340608 
L 88.880965 76.79232 
L 89.029957 71.373312 
L 89.178949 73.308672 
L 89.625927 74.469888 
L 89.774919 73.695744 
L 89.923912 74.082816 
L 90.221897 72.534528 
L 90.370889 70.599168 
L 90.668874 75.631104 
L 90.817866 75.244032 
L 90.966859 75.244032 
L 91.115851 71.760384 
L 91.264844 71.373312 
L 91.562829 69.825024 
L 91.860814 72.9216 
L 92.158798 70.98624 
L 92.456783 74.85696 
L 92.754768 72.9216 
L 92.903761 68.276736 
L 93.052753 67.889664 
L 93.201746 68.276736 
L 93.350738 67.502592 
L 93.49973 65.954304 
L 93.648723 65.954304 
L 93.797715 67.502592 
L 93.946708 62.857728 
L 94.0957 64.406016 
L 94.244693 62.470656 
L 94.393685 67.889664 
L 94.542678 68.276736 
L 94.69167 64.018944 
L 94.989655 67.502592 
L 95.138647 66.728448 
L 95.28764 68.663808 
L 95.436632 69.05088 
L 95.585625 67.502592 
L 95.734617 67.502592 
L 95.88361 69.437952 
L 96.032602 69.825024 
L 96.181595 71.760384 
L 96.330587 70.599168 
L 96.479579 70.599168 
L 96.777564 75.631104 
L 96.926557 76.018176 
L 97.075549 73.695744 
L 97.224542 68.663808 
L 97.671519 71.760384 
L 97.969504 71.760384 
L 98.118496 68.276736 
L 98.416481 70.599168 
L 98.565474 67.502592 
L 98.714466 67.889664 
L 98.863459 69.05088 
L 99.310436 64.018944 
L 99.459428 61.30944 
L 99.608421 61.696512 
L 99.757413 60.922368 
L 99.906406 57.43872 
L 100.055398 59.761152 
L 100.204391 57.825792 
L 100.502376 64.018944 
L 100.651368 60.922368 
L 100.949353 63.631872 
L 101.098345 63.2448 
L 101.39633 63.2448 
L 101.694315 61.696512 
L 101.843308 62.083584 
L 101.9923 64.793088 
L 102.141293 62.857728 
L 102.290285 63.2448 
L 102.439277 61.30944 
L 102.58827 64.018944 
L 102.737262 62.857728 
L 103.035247 64.406016 
L 103.333232 64.406016 
L 103.482225 64.793088 
L 103.631217 63.2448 
L 103.929202 67.11552 
L 104.227187 72.534528 
L 104.525172 69.05088 
L 104.674164 68.276736 
L 104.823157 69.437952 
L 104.972149 68.276736 
L 105.270134 70.98624 
L 105.419126 70.599168 
L 105.568119 68.663808 
L 105.717111 68.663808 
L 105.866104 68.276736 
L 106.015096 68.663808 
L 106.164089 70.212096 
L 106.313081 68.276736 
L 106.462074 69.05088 
L 106.760058 62.857728 
L 106.909051 63.631872 
L 107.058043 63.631872 
L 107.207036 65.18016 
L 107.505021 64.406016 
L 107.654013 64.406016 
L 107.803006 63.2448 
L 107.951998 65.18016 
L 108.10099 69.05088 
L 108.249983 68.663808 
L 108.398975 68.663808 
L 108.547968 70.599168 
L 108.69696 74.85696 
L 109.441922 57.051648 
L 109.590915 60.535296 
L 109.739907 61.30944 
L 109.8889 58.599936 
L 110.037892 60.922368 
L 110.186885 58.987008 
L 110.335877 59.761152 
L 110.633862 57.051648 
L 110.782855 58.599936 
L 110.931847 57.43872 
L 111.229832 57.43872 
L 111.378824 56.664576 
L 111.527817 56.664576 
L 111.676809 57.825792 
L 111.974794 62.857728 
L 112.123787 62.857728 
L 112.272779 61.30944 
L 112.421771 62.470656 
L 112.570764 62.470656 
L 112.719756 54.729216 
L 112.868749 55.890432 
L 113.017741 55.50336 
L 113.166734 53.955072 
L 113.315726 59.37408 
L 113.464719 54.342144 
L 113.613711 54.729216 
L 113.762703 55.890432 
L 114.060688 61.696512 
L 114.209681 63.2448 
L 114.358673 62.857728 
L 114.507666 62.083584 
L 114.656658 60.148224 
L 114.805651 61.30944 
L 114.954643 61.30944 
L 115.252628 58.987008 
L 115.550613 68.276736 
L 115.699605 66.728448 
L 115.99759 61.30944 
L 116.146583 66.728448 
L 116.295575 64.018944 
L 116.444568 64.406016 
L 116.59356 64.406016 
L 116.742552 65.954304 
L 116.891545 66.341376 
L 117.040537 69.437952 
L 117.18953 69.437952 
L 117.338522 67.502592 
L 117.487515 67.502592 
L 117.636507 67.11552 
L 117.7855 69.05088 
L 117.934492 68.276736 
L 118.083485 68.663808 
L 118.232477 68.276736 
L 118.530462 71.373312 
L 118.679454 69.437952 
L 118.828447 70.599168 
L 118.977439 73.308672 
L 119.275424 73.308672 
L 119.424417 77.566464 
L 119.722401 70.599168 
L 119.871394 70.212096 
L 120.020386 69.437952 
L 120.169379 73.695744 
L 120.318371 72.534528 
L 120.616356 67.11552 
L 120.765349 69.437952 
L 120.914341 66.341376 
L 121.063333 65.567232 
L 121.212326 67.889664 
L 121.361318 67.502592 
L 121.510311 70.212096 
L 121.659303 69.437952 
L 121.808296 70.98624 
L 121.957288 70.98624 
L 122.106281 71.760384 
L 122.255273 73.308672 
L 122.553258 68.276736 
L 122.70225 69.825024 
L 122.851243 70.212096 
L 123.149228 78.340608 
L 123.29822 78.340608 
L 123.447213 77.953536 
L 123.89419 66.728448 
L 124.043182 67.11552 
L 124.192175 64.793088 
L 124.341167 65.567232 
L 124.49016 64.018944 
L 124.639152 64.793088 
L 124.788145 62.470656 
L 124.937137 62.470656 
L 125.08613 64.018944 
L 125.235122 63.2448 
L 125.682099 67.502592 
L 125.831092 69.437952 
L 125.980084 69.05088 
L 126.278069 67.11552 
L 126.427062 67.502592 
L 126.874039 74.082816 
L 127.023031 70.98624 
L 127.172024 72.534528 
L 127.321016 75.631104 
L 127.470009 76.405248 
L 127.619001 78.72768 
L 127.767994 82.985472 
L 127.916986 79.888896 
L 128.363963 86.082048 
L 128.512956 81.824256 
L 128.661948 82.211328 
L 128.810941 82.211328 
L 129.257918 79.501824 
L 129.406911 82.211328 
L 129.555903 82.211328 
L 130.00288 76.79232 
L 130.300865 81.437184 
L 130.59885 79.114752 
L 130.747843 79.114752 
L 130.896835 77.566464 
L 131.045828 78.340608 
L 131.19482 79.888896 
L 131.641797 75.631104 
L 131.79079 74.85696 
L 131.939782 71.373312 
L 132.088775 72.147456 
L 132.237767 72.147456 
L 132.38676 69.825024 
L 132.535752 71.373312 
L 132.833737 78.340608 
L 133.280714 83.372544 
L 133.429707 89.178624 
L 133.578699 90.33984 
L 133.876684 83.759616 
L 134.025676 83.372544 
L 134.174669 83.759616 
L 134.472654 82.5984 
L 134.770639 84.146688 
L 134.919631 83.372544 
L 135.068624 83.759616 
L 135.217616 85.694976 
L 135.664593 80.66304 
L 135.813586 80.66304 
L 136.111571 76.405248 
L 136.558548 78.340608 
L 136.707541 78.340608 
L 136.856533 77.566464 
L 137.30351 81.437184 
L 137.452503 80.66304 
L 137.750488 91.888128 
L 137.89948 89.178624 
L 138.048473 89.565696 
L 138.197465 89.565696 
L 138.644442 93.049344 
L 138.793435 92.662272 
L 138.942427 96.14592 
L 139.09142 96.14592 
L 139.240412 94.984704 
L 139.389405 96.532992 
L 139.538397 90.726912 
L 139.836382 89.178624 
L 140.134367 85.694976 
L 140.283359 85.694976 
L 140.432352 86.856192 
L 140.581344 84.920832 
L 140.730337 84.920832 
L 140.879329 84.53376 
L 141.177314 85.307904 
L 141.624291 77.566464 
L 141.773284 77.953536 
L 141.922276 75.244032 
L 142.220261 75.244032 
L 142.369254 73.695744 
L 142.518246 69.825024 
L 142.816231 70.98624 
L 143.114216 71.760384 
L 143.263208 71.760384 
L 143.412201 72.534528 
L 143.561193 72.147456 
L 143.710186 76.79232 
L 143.859178 75.631104 
L 144.008171 75.631104 
L 144.157163 77.953536 
L 144.306155 78.340608 
L 144.455148 76.79232 
L 144.60414 76.79232 
L 144.902125 67.889664 
L 145.20011 69.437952 
L 145.498095 76.018176 
L 145.79608 72.9216 
L 145.945072 76.79232 
L 146.094065 76.405248 
L 146.39205 77.953536 
L 146.541042 77.179392 
L 146.690035 77.953536 
L 146.839027 75.244032 
L 146.98802 77.179392 
L 147.137012 76.405248 
L 147.286004 77.953536 
L 147.434997 77.953536 
L 147.583989 76.405248 
L 147.732982 76.018176 
L 147.881974 77.566464 
L 148.030967 81.437184 
L 148.179959 80.66304 
L 148.328952 82.985472 
L 148.477944 81.824256 
L 148.626936 83.372544 
L 148.775929 82.211328 
L 148.924921 82.5984 
L 149.073914 81.824256 
L 149.222906 82.211328 
L 149.371899 79.114752 
L 149.520891 79.888896 
L 149.669884 81.824256 
L 149.818876 80.275968 
L 149.967868 80.275968 
L 150.265853 74.85696 
L 150.414846 74.85696 
L 150.563838 74.469888 
L 150.712831 72.147456 
L 150.861823 74.082816 
L 151.010816 74.082816 
L 151.159808 77.179392 
L 151.308801 77.566464 
L 151.457793 82.985472 
L 151.755778 80.66304 
L 151.90477 82.985472 
L 152.053763 81.050112 
L 152.202755 82.985472 
L 152.351748 82.985472 
L 152.50074 81.437184 
L 152.649733 82.211328 
L 152.947717 86.46912 
L 153.394695 92.2752 
L 153.543687 93.436416 
L 153.69268 93.049344 
L 153.990665 89.565696 
L 154.139657 86.856192 
L 154.28865 88.791552 
L 154.586634 84.920832 
L 154.884619 81.437184 
L 155.033612 81.824256 
L 155.331597 78.72768 
L 155.480589 77.566464 
L 155.629582 77.566464 
L 155.778574 77.179392 
L 155.927566 79.888896 
L 156.076559 78.72768 
L 156.225551 78.72768 
L 156.374544 82.5984 
L 156.523536 81.050112 
L 156.672529 81.050112 
L 156.821521 76.405248 
L 156.970514 75.631104 
L 157.119506 74.082816 
L 157.268498 73.695744 
L 157.566483 78.72768 
L 158.609431 86.46912 
L 158.758423 86.856192 
L 159.056408 71.760384 
L 159.2054 71.373312 
L 159.354393 71.760384 
L 159.503385 73.695744 
L 159.80137 72.147456 
L 159.950363 72.534528 
L 160.099355 72.147456 
L 160.39734 70.599168 
L 160.546332 71.373312 
L 160.695325 76.018176 
L 160.844317 75.631104 
L 160.99331 73.695744 
L 161.142302 75.244032 
L 161.291295 75.631104 
L 161.440287 74.082816 
L 161.589279 78.340608 
L 161.738272 78.340608 
L 161.887264 76.405248 
L 162.036257 78.340608 
L 162.185249 78.340608 
L 162.334242 77.566464 
L 162.632227 71.373312 
L 162.930212 66.341376 
L 163.079204 65.567232 
L 163.675174 55.116288 
L 163.973159 58.212864 
L 164.271144 53.568 
L 165.016106 64.018944 
L 165.165098 61.30944 
L 165.463083 69.05088 
L 165.761068 67.11552 
L 165.91006 65.18016 
L 166.059053 65.567232 
L 166.357038 62.857728 
L 167.102 69.825024 
L 167.250993 69.825024 
L 167.399985 71.760384 
L 167.548977 71.373312 
L 167.846962 67.11552 
L 167.995955 66.728448 
L 168.144947 65.954304 
L 168.591925 70.599168 
L 168.740917 67.11552 
L 168.889909 67.502592 
L 169.038902 70.212096 
L 169.187894 68.276736 
L 169.634872 70.98624 
L 169.783864 70.599168 
L 169.932857 67.889664 
L 170.230842 70.599168 
L 170.528826 67.502592 
L 170.677819 67.11552 
L 170.826811 68.663808 
L 171.124796 64.793088 
L 171.273789 58.212864 
L 171.422781 58.212864 
L 171.571774 59.37408 
L 171.869758 58.599936 
L 172.018751 60.535296 
L 172.167743 58.987008 
L 172.316736 60.535296 
L 172.465728 58.987008 
L 172.763713 64.018944 
L 172.912706 66.341376 
L 173.061698 65.954304 
L 173.359683 66.728448 
L 173.508675 65.567232 
L 173.657668 68.276736 
L 173.80666 68.663808 
L 174.253638 62.470656 
L 174.40263 63.2448 
L 174.551623 69.05088 
L 174.700615 69.437952 
L 174.9986 67.889664 
L 175.147592 67.889664 
L 175.445577 65.567232 
L 175.743562 64.793088 
L 175.892555 70.212096 
L 176.041547 70.98624 
L 176.190539 69.437952 
L 176.339532 72.534528 
L 176.637517 72.534528 
L 176.786509 72.147456 
L 176.935502 72.147456 
L 177.084494 70.98624 
L 177.233487 73.308672 
L 177.382479 72.147456 
L 177.531471 72.534528 
L 177.680464 72.534528 
L 177.829456 69.825024 
L 177.978449 70.599168 
L 178.127441 69.825024 
L 178.425426 65.954304 
L 178.872404 69.437952 
L 179.021396 68.276736 
L 179.170388 69.825024 
L 179.319381 69.437952 
L 179.468373 71.373312 
L 179.766358 69.825024 
L 180.064343 71.373312 
L 180.213336 67.11552 
L 180.362328 66.728448 
L 180.958298 70.599168 
L 181.10729 71.373312 
L 181.256283 71.373312 
L 181.405275 73.695744 
L 181.554268 72.9216 
L 181.70326 73.308672 
L 181.852252 72.9216 
L 182.150237 72.9216 
L 182.29923 74.082816 
L 182.448222 74.082816 
L 182.597215 70.98624 
L 182.746207 70.599168 
L 182.8952 71.760384 
L 183.044192 74.469888 
L 183.193185 74.85696 
L 183.342177 74.082816 
L 183.491169 74.082816 
L 183.640162 73.308672 
L 183.789154 71.373312 
L 183.938147 70.98624 
L 184.385124 78.72768 
L 184.534117 79.888896 
L 184.683109 79.501824 
L 184.981094 82.211328 
L 185.130086 81.050112 
L 185.428071 83.372544 
L 185.577064 74.85696 
L 185.726056 74.082816 
L 185.875049 75.244032 
L 186.024041 74.85696 
L 186.173034 75.244032 
L 186.322026 76.018176 
L 186.769003 71.373312 
L 186.917996 70.98624 
L 187.066988 69.05088 
L 187.215981 69.05088 
L 187.364973 67.11552 
L 187.513966 67.502592 
L 187.662958 71.760384 
L 187.81195 71.760384 
L 187.960943 68.663808 
L 188.40792 73.695744 
L 188.556913 73.308672 
L 188.854898 77.953536 
L 189.00389 77.179392 
L 189.152882 77.953536 
L 189.301875 77.566464 
L 189.450867 74.469888 
L 189.59986 74.469888 
L 190.046837 65.567232 
L 190.642807 73.308672 
L 191.089784 64.018944 
L 191.536762 58.599936 
L 191.834747 55.890432 
L 191.983739 56.277504 
L 192.132731 55.890432 
L 192.281724 60.922368 
L 192.430716 59.761152 
L 192.579709 61.30944 
L 192.728701 64.018944 
L 192.877694 62.083584 
L 193.026686 63.631872 
L 193.175679 62.470656 
L 193.473663 67.11552 
L 193.622656 67.502592 
L 193.920641 75.631104 
L 194.218626 77.953536 
L 194.516611 71.373312 
L 194.963588 76.79232 
L 195.261573 73.695744 
L 195.410565 72.147456 
L 195.559558 73.308672 
L 195.70855 72.534528 
L 195.857543 74.469888 
L 196.006535 70.599168 
L 196.155528 70.212096 
L 196.453512 68.663808 
L 196.602505 69.05088 
L 196.751497 69.05088 
L 197.049482 73.695744 
L 197.198475 72.534528 
L 197.347467 73.308672 
L 197.49646 72.9216 
L 197.645452 72.9216 
L 197.943437 74.85696 
L 198.092429 75.244032 
L 198.241422 76.405248 
L 198.688399 74.469888 
L 198.837392 74.85696 
L 198.986384 80.275968 
L 199.135377 76.018176 
L 199.433361 74.85696 
L 199.582354 74.85696 
L 199.880339 71.760384 
L 200.029331 71.373312 
L 200.178324 72.147456 
L 200.327316 70.98624 
L 200.476309 67.502592 
L 200.774293 70.212096 
L 200.923286 69.437952 
L 201.072278 70.98624 
L 201.221271 70.98624 
L 201.519256 66.728448 
L 201.668248 67.11552 
L 201.817241 65.18016 
L 201.966233 66.728448 
L 202.41321 62.857728 
L 202.562203 65.567232 
L 202.860188 62.470656 
L 203.00918 64.406016 
L 203.158173 62.857728 
L 203.307165 62.857728 
L 203.456158 62.083584 
L 203.60515 59.761152 
L 203.754142 59.37408 
L 204.052127 58.212864 
L 204.20112 58.212864 
L 204.350112 60.148224 
L 204.648097 60.148224 
L 204.946082 61.30944 
L 205.095074 60.148224 
L 205.244067 60.922368 
L 205.542052 60.922368 
L 205.691044 61.30944 
L 205.989029 54.729216 
L 206.138022 53.955072 
L 206.287014 58.599936 
L 206.436007 58.212864 
L 206.584999 58.599936 
L 206.882984 60.535296 
L 207.031976 63.631872 
L 207.329961 62.083584 
L 207.478954 61.696512 
L 207.925931 58.599936 
L 208.074923 58.212864 
L 208.223916 59.761152 
L 208.372908 63.2448 
L 208.521901 62.857728 
L 208.670893 63.631872 
L 208.819886 63.631872 
L 208.968878 64.406016 
L 209.266863 68.276736 
L 209.415855 67.889664 
L 209.564848 67.889664 
L 210.160818 77.566464 
L 210.30981 77.179392 
L 210.458803 75.244032 
L 210.607795 79.501824 
L 210.90578 80.275968 
L 211.054772 77.953536 
L 211.352757 81.437184 
L 211.650742 79.888896 
L 211.948727 81.050112 
L 212.246712 80.275968 
L 212.544697 81.824256 
L 212.693689 81.437184 
L 212.842682 82.211328 
L 212.991674 82.211328 
L 213.289659 84.920832 
L 213.736636 82.211328 
L 213.885629 82.985472 
L 214.034621 86.46912 
L 214.183614 85.694976 
L 214.332606 87.243264 
L 214.481599 86.856192 
L 214.779584 83.372544 
L 214.928576 83.372544 
L 215.077569 87.630336 
L 215.226561 87.243264 
L 215.375553 89.565696 
L 215.524546 88.017408 
L 215.673538 89.565696 
L 215.822531 84.920832 
L 215.971523 85.694976 
L 216.120516 85.694976 
L 216.269508 87.630336 
L 216.418501 88.017408 
L 216.567493 87.630336 
L 216.716485 85.307904 
L 216.865478 85.307904 
L 217.01447 82.211328 
L 217.163463 82.985472 
L 217.312455 86.46912 
L 217.461448 85.694976 
L 217.61044 84.146688 
L 217.759433 84.53376 
L 218.057417 83.759616 
L 218.20641 84.920832 
L 218.504395 82.211328 
L 218.653387 83.759616 
L 218.80238 83.759616 
L 219.100365 85.694976 
L 219.39835 93.049344 
L 219.547342 93.823488 
L 219.696334 93.823488 
L 219.994319 92.2752 
L 220.143312 86.856192 
L 220.292304 88.40448 
L 220.441297 88.017408 
L 220.590289 90.33984 
L 220.739282 89.952768 
L 220.888274 91.501056 
L 221.186259 90.33984 
L 221.335251 89.952768 
L 221.484244 92.2752 
L 221.931221 87.243264 
L 222.080214 87.243264 
L 222.229206 86.856192 
L 222.378199 87.630336 
L 222.676183 92.2752 
L 222.825176 91.113984 
L 222.974168 91.113984 
L 223.123161 89.178624 
L 223.272153 90.33984 
L 223.570138 86.46912 
L 223.868123 93.823488 
L 224.166108 96.532992 
L 224.3151 96.14592 
L 224.464093 96.920064 
L 224.613085 94.597632 
L 225.060063 99.629568 
L 225.209055 100.790784 
L 225.358047 98.468352 
L 225.50704 91.888128 
L 225.656032 91.501056 
L 225.805025 92.2752 
L 225.954017 94.984704 
L 226.10301 94.597632 
L 226.252002 93.823488 
L 226.549987 96.920064 
L 226.69898 96.920064 
L 226.847972 97.307136 
L 226.996964 97.307136 
L 227.145957 97.694208 
L 227.294949 99.242496 
L 227.443942 98.855424 
L 227.592934 100.01664 
L 227.741927 100.01664 
L 227.890919 101.564928 
L 228.039912 98.855424 
L 228.188904 98.468352 
L 228.337896 96.14592 
L 228.486889 95.758848 
L 228.635881 94.597632 
L 228.784874 96.532992 
L 228.933866 94.984704 
L 229.082859 92.2752 
L 229.231851 92.662272 
L 229.380844 97.694208 
L 229.529836 96.14592 
L 229.678828 96.920064 
L 230.274798 91.888128 
L 230.870768 96.14592 
L 231.019761 92.662272 
L 231.168753 91.888128 
L 231.317745 95.371776 
L 231.61573 91.888128 
L 231.764723 92.2752 
L 232.062708 89.178624 
L 232.2117 89.178624 
L 232.360693 86.082048 
L 232.509685 86.46912 
L 232.658677 84.146688 
L 232.80767 84.146688 
L 232.956662 84.920832 
L 233.105655 87.243264 
L 233.254647 85.694976 
L 233.40364 86.082048 
L 233.552632 82.211328 
L 233.701625 86.082048 
L 233.850617 85.694976 
L 233.999609 84.53376 
L 234.148602 88.791552 
L 234.595579 80.66304 
L 234.744572 81.050112 
L 234.893564 81.050112 
L 235.042557 84.920832 
L 235.191549 84.53376 
L 235.340542 82.985472 
L 235.489534 82.985472 
L 235.787519 77.566464 
L 235.936511 77.566464 
L 236.085504 77.953536 
L 236.234496 77.953536 
L 236.383489 79.888896 
L 236.532481 79.888896 
L 236.681474 78.72768 
L 236.979458 75.631104 
L 237.426436 77.953536 
L 237.724421 76.018176 
L 237.873413 75.631104 
L 238.022406 74.082816 
L 238.171398 69.437952 
L 238.320391 71.373312 
L 238.469383 70.98624 
L 238.618375 71.373312 
L 238.767368 72.147456 
L 239.065353 76.018176 
L 239.214345 76.018176 
L 239.363338 78.72768 
L 239.51233 83.759616 
L 239.661323 82.5984 
L 239.810315 85.694976 
L 239.959307 83.372544 
L 240.1083 86.856192 
L 240.257292 86.856192 
L 240.406285 85.307904 
L 240.555277 84.920832 
L 240.70427 87.243264 
L 240.853262 85.307904 
L 241.151247 86.856192 
L 241.300239 84.920832 
L 241.449232 84.53376 
L 241.747217 78.72768 
L 241.896209 82.5984 
L 242.194194 83.759616 
L 242.343187 79.114752 
L 242.492179 80.275968 
L 242.790164 85.694976 
L 243.088149 88.017408 
L 243.237141 89.178624 
L 243.386134 86.082048 
L 243.535126 86.082048 
L 243.684119 84.146688 
L 243.982104 78.340608 
L 244.131096 81.437184 
L 244.280088 79.888896 
L 244.429081 81.437184 
L 244.578073 79.501824 
L 244.727066 81.050112 
L 244.876058 81.050112 
L 245.025051 80.275968 
L 245.174043 78.72768 
L 245.472028 82.5984 
L 245.62102 82.5984 
L 245.770013 77.566464 
L 246.21699 83.759616 
L 246.514975 86.46912 
L 246.663968 88.017408 
L 246.81296 85.694976 
L 246.961953 89.565696 
L 247.110945 87.630336 
L 247.259937 87.243264 
L 247.40893 86.46912 
L 247.557922 88.40448 
L 247.706915 88.40448 
L 247.855907 87.243264 
L 248.0049 89.178624 
L 248.153892 94.984704 
L 248.302885 93.436416 
L 248.451877 98.468352 
L 248.600869 94.21056 
L 248.749862 93.823488 
L 248.898854 94.597632 
L 249.047847 93.049344 
L 249.345832 98.08128 
L 249.494824 98.468352 
L 249.643817 99.242496 
L 249.792809 98.468352 
L 249.941801 95.371776 
L 250.090794 95.371776 
L 250.388779 92.2752 
L 250.835756 103.113216 
L 251.133741 101.177856 
L 251.580718 102.339072 
L 251.729711 104.274432 
L 251.878703 104.661504 
L 252.027696 105.435648 
L 252.176688 101.177856 
L 252.325681 104.661504 
L 252.623666 106.209792 
L 252.772658 105.048576 
L 253.219635 107.75808 
L 253.368628 106.983936 
L 253.51762 105.435648 
L 253.666613 105.048576 
L 253.815605 106.983936 
L 254.11359 106.209792 
L 254.858552 102.726144 
L 255.007545 102.726144 
L 255.156537 103.113216 
L 255.30553 105.82272 
L 255.603515 102.726144 
L 255.752507 103.88736 
L 255.901499 102.339072 
L 256.050492 101.952 
L 256.199484 101.177856 
L 256.497469 98.855424 
L 256.646462 99.629568 
L 256.944447 97.307136 
L 257.093439 93.823488 
L 257.242431 95.758848 
L 257.540416 95.758848 
L 257.689409 95.371776 
L 257.987394 98.08128 
L 258.434371 94.21056 
L 258.583364 94.597632 
L 258.732356 95.371776 
L 259.030341 92.2752 
L 259.179333 94.21056 
L 259.328326 93.823488 
L 259.477318 98.855424 
L 259.626311 99.242496 
L 259.775303 98.468352 
L 260.073288 99.629568 
L 260.22228 98.855424 
L 260.520265 94.21056 
L 260.81825 98.08128 
L 260.967243 96.14592 
L 261.116235 97.694208 
L 261.265228 97.694208 
L 261.41422 98.08128 
L 261.563212 97.694208 
L 262.308175 104.661504 
L 262.457167 104.661504 
L 262.60616 103.113216 
L 262.755152 105.435648 
L 262.904145 105.435648 
L 263.053137 101.952 
L 263.202129 101.564928 
L 263.351122 103.500288 
L 263.500114 103.88736 
L 263.649107 102.726144 
L 263.798099 104.661504 
L 263.947092 100.01664 
L 264.096084 99.242496 
L 264.245077 99.629568 
L 264.543061 106.209792 
L 264.692054 105.435648 
L 264.841046 105.82272 
L 264.990039 105.048576 
L 265.288024 101.952 
L 265.437016 101.952 
L 265.586009 102.726144 
L 265.735001 102.726144 
L 265.883993 103.113216 
L 266.181978 101.177856 
L 266.330971 103.113216 
L 266.479963 98.468352 
L 266.777948 101.564928 
L 266.926941 102.339072 
L 267.075933 100.790784 
L 267.224926 101.177856 
L 267.52291 98.08128 
L 267.671903 98.08128 
L 267.969888 99.629568 
L 268.11888 100.403712 
L 268.416865 94.984704 
L 268.565858 97.307136 
L 268.71485 96.920064 
L 269.012835 97.694208 
L 269.161827 95.758848 
L 269.31082 96.14592 
L 269.459812 98.468352 
L 269.608805 98.08128 
L 269.757797 95.371776 
L 269.90679 95.758848 
L 270.055782 95.371776 
L 270.204775 94.597632 
L 270.353767 98.468352 
L 270.651752 95.371776 
L 270.800744 99.242496 
L 270.949737 95.758848 
L 271.098729 96.14592 
L 271.247722 94.597632 
L 271.396714 95.371776 
L 271.545707 95.371776 
L 271.843691 90.726912 
L 272.141676 95.758848 
L 272.290669 93.436416 
L 272.439661 94.984704 
L 272.588654 95.371776 
L 272.737646 97.694208 
L 272.886639 96.920064 
L 273.035631 95.371776 
L 273.333616 100.01664 
L 273.482608 100.403712 
L 273.631601 101.952 
L 273.780593 106.596864 
L 273.929586 106.596864 
L 274.078578 108.532224 
L 274.227571 106.209792 
L 274.376563 105.82272 
L 274.525556 105.82272 
L 275.121525 112.402944 
L 275.270518 112.402944 
L 275.41951 113.56416 
L 275.717495 112.015872 
L 275.866488 114.338304 
L 276.01548 114.725376 
L 276.164472 115.886592 
L 276.313465 115.49952 
L 276.462457 115.886592 
L 276.760442 122.853888 
L 277.058427 118.983168 
L 277.20742 118.596096 
L 277.356412 119.37024 
L 277.505404 121.692672 
L 277.654397 122.079744 
L 277.803389 122.853888 
L 277.952382 121.3056 
L 278.101374 121.3056 
L 278.250367 120.144384 
L 278.548352 125.17632 
L 278.697344 124.402176 
L 278.846337 121.3056 
L 278.995329 122.466816 
L 279.144321 120.918528 
L 279.591299 126.724608 
L 279.740291 124.402176 
L 280.038276 125.950464 
L 280.336261 122.853888 
L 280.485253 122.466816 
L 280.634246 123.628032 
L 280.783238 122.853888 
L 280.932231 120.144384 
L 281.081223 119.757312 
L 281.230216 120.144384 
L 281.379208 122.853888 
L 281.528201 122.466816 
L 281.677193 125.17632 
L 281.826185 125.17632 
L 281.975178 125.563392 
L 282.273163 129.821184 
L 282.422155 130.595328 
L 282.72014 128.659968 
L 282.869133 125.563392 
L 283.167118 128.272896 
L 283.31611 126.337536 
L 283.465102 126.724608 
L 283.614095 124.015104 
L 283.763087 123.628032 
L 283.91208 124.015104 
L 284.061072 124.015104 
L 284.210065 123.24096 
L 284.359057 124.402176 
L 284.50805 121.3056 
L 284.657042 122.853888 
L 284.806034 118.983168 
L 284.955027 120.144384 
L 285.104019 117.821952 
L 285.253012 120.144384 
L 285.550997 115.112448 
L 285.699989 114.725376 
L 285.848982 110.854656 
L 285.997974 111.241728 
L 286.146966 108.532224 
L 286.444951 113.177088 
L 286.593944 112.790016 
L 286.742936 113.56416 
L 286.891929 115.112448 
L 287.040921 113.951232 
L 287.189914 109.69344 
L 287.487899 111.6288 
L 287.785883 107.371008 
L 287.934876 106.596864 
L 288.083868 106.596864 
L 288.232861 106.209792 
L 288.679838 108.919296 
L 288.828831 108.532224 
L 288.977823 110.854656 
L 289.126815 108.919296 
L 289.275808 108.919296 
L 289.722785 115.49952 
L 289.871778 113.951232 
L 290.02077 114.725376 
L 290.169763 114.725376 
L 290.318755 115.886592 
L 290.467748 114.338304 
L 290.914725 117.43488 
L 291.063717 117.047808 
L 291.21271 117.43488 
L 291.361702 119.757312 
L 291.510695 115.49952 
L 291.659687 115.112448 
L 291.80868 115.49952 
L 292.255657 119.757312 
L 292.404649 125.563392 
L 292.553642 125.17632 
L 292.851627 126.724608 
L 293.000619 125.950464 
L 293.149612 121.692672 
L 293.298604 122.079744 
L 293.447596 125.17632 
L 293.596589 124.402176 
L 294.043566 117.821952 
L 294.490544 125.17632 
L 294.639536 125.17632 
L 294.788529 125.950464 
L 294.937521 128.272896 
L 295.086513 127.885824 
L 295.235506 125.950464 
L 295.384498 126.337536 
L 295.533491 125.563392 
L 295.682483 126.337536 
L 295.831476 124.789248 
L 295.980468 126.337536 
L 296.129461 126.724608 
L 296.278453 126.724608 
L 296.427445 122.079744 
L 296.576438 121.692672 
L 296.874423 122.466816 
L 297.023415 124.015104 
L 297.172408 123.24096 
L 297.3214 124.015104 
L 297.470393 122.853888 
L 297.619385 127.885824 
L 297.768377 128.272896 
L 297.91737 129.821184 
L 298.066362 133.691904 
L 298.364347 129.821184 
L 298.662332 129.821184 
L 298.960317 131.369472 
L 299.10931 131.369472 
L 299.258302 129.821184 
L 299.407294 130.208256 
L 299.705279 129.434112 
L 299.854272 130.9824 
L 300.003264 134.85312 
L 300.152257 134.078976 
L 300.301249 135.240192 
L 300.599234 138.336768 
L 300.748226 138.72384 
L 300.897219 135.627264 
L 301.046211 135.627264 
L 301.493189 133.691904 
L 301.791174 130.9824 
L 301.940166 129.821184 
L 302.089158 130.595328 
L 302.238151 129.821184 
L 302.387143 130.208256 
L 302.536136 129.434112 
L 302.685128 126.337536 
L 302.834121 128.659968 
L 302.983113 129.04704 
L 303.281098 135.240192 
L 303.430091 137.175552 
L 303.579083 134.85312 
L 303.728075 134.85312 
L 304.02606 138.72384 
L 304.175053 135.627264 
L 304.473038 137.175552 
L 304.62203 142.207488 
L 304.771023 142.59456 
L 304.920015 142.59456 
L 305.069007 143.368704 
L 305.366992 147.239424 
L 305.515985 144.52992 
L 305.664977 145.304064 
L 305.81397 146.852352 
L 305.962962 150.723072 
L 306.111955 150.723072 
L 306.260947 151.884288 
L 306.40994 151.110144 
L 306.558932 151.497216 
L 306.707924 151.110144 
L 306.856917 151.884288 
L 307.154902 151.884288 
L 308.197849 146.852352 
L 308.346841 146.852352 
L 308.495834 148.40064 
L 308.644826 146.852352 
L 309.091804 145.691136 
L 309.240796 146.078208 
L 309.389788 146.078208 
L 309.687773 147.626496 
L 309.836766 145.691136 
L 309.985758 146.46528 
L 310.432736 144.142848 
L 310.581728 142.207488 
L 310.879713 143.755776 
L 311.028705 143.368704 
L 311.32669 139.885056 
L 311.475683 139.110912 
L 311.624675 140.272128 
L 311.773668 139.497984 
L 311.92266 137.949696 
L 312.071653 138.336768 
L 312.220645 137.175552 
L 312.369637 137.175552 
L 312.51863 136.401408 
L 312.667622 137.949696 
L 312.816615 136.78848 
L 312.965607 137.175552 
L 313.1146 136.78848 
L 313.412585 138.336768 
L 313.561577 136.78848 
L 313.710569 136.78848 
L 313.859562 136.014336 
L 314.008554 136.401408 
L 314.157547 137.175552 
L 314.306539 134.85312 
L 314.455532 136.78848 
L 314.604524 137.175552 
L 314.753517 139.497984 
L 314.902509 139.497984 
L 315.200494 137.562624 
L 315.349486 138.72384 
L 315.498479 137.562624 
L 315.796464 137.562624 
L 316.094449 136.78848 
L 316.243441 137.949696 
L 316.690418 136.78848 
L 316.988403 133.691904 
L 317.137396 134.078976 
L 317.286388 130.595328 
L 317.584373 133.691904 
L 317.733366 135.240192 
L 317.882358 135.627264 
L 318.329335 137.562624 
L 318.478328 137.562624 
L 319.074298 141.433344 
L 319.372283 142.207488 
L 319.670267 151.110144 
L 319.81926 150.336 
L 319.968252 148.40064 
L 320.117245 148.787712 
L 320.266237 151.884288 
L 320.41523 148.40064 
L 320.564222 148.40064 
L 320.713215 149.174784 
L 321.011199 146.852352 
L 321.160192 147.239424 
L 321.458177 148.40064 
L 321.607169 148.40064 
L 321.756162 145.691136 
L 321.905154 146.078208 
L 322.203139 151.110144 
L 322.501124 149.561856 
L 322.650116 148.787712 
L 322.799109 151.110144 
L 322.948101 151.110144 
L 323.097094 150.723072 
L 323.246086 151.884288 
L 323.544071 150.336 
L 323.842056 155.755008 
L 323.991048 154.980864 
L 324.289033 158.464512 
L 324.438026 158.07744 
L 324.587018 159.625728 
L 324.736011 159.238656 
L 324.885003 162.722304 
L 325.033996 162.335232 
L 325.182988 162.335232 
L 325.33198 165.431808 
L 325.480973 163.496448 
L 325.629965 163.496448 
L 325.778958 161.561088 
L 325.92795 161.174016 
L 326.076943 156.916224 
L 326.225935 156.916224 
L 326.52392 158.851584 
L 326.672913 157.303296 
L 326.970897 158.851584 
L 327.11989 157.303296 
L 327.417875 159.625728 
L 327.71586 161.174016 
L 327.864852 163.88352 
L 328.013845 161.561088 
L 328.162837 161.94816 
L 328.311829 165.431808 
L 328.460822 165.81888 
L 328.609814 165.044736 
L 328.907799 167.367168 
L 329.056792 166.593024 
L 329.354777 167.367168 
L 329.652761 168.915456 
L 329.801754 168.528384 
L 329.950746 169.302528 
L 330.248731 167.75424 
L 330.546716 166.593024 
L 330.695709 166.980096 
L 330.844701 166.205952 
L 331.142686 168.141312 
L 331.291678 168.141312 
L 331.440671 167.75424 
L 331.589663 166.593024 
L 331.887648 166.593024 
L 332.036641 166.205952 
L 332.185633 168.528384 
L 332.483618 167.367168 
L 332.930595 166.205952 
L 333.22858 170.076672 
L 333.377573 170.463744 
L 333.675558 170.463744 
L 333.82455 171.62496 
L 333.973542 169.6896 
L 334.271527 170.463744 
L 334.718505 174.721536 
L 334.867497 175.108608 
L 335.01649 177.43104 
L 335.165482 176.656896 
L 335.314475 177.818112 
L 335.463467 177.043968 
L 335.612459 178.592256 
L 335.761452 183.23712 
L 335.910444 183.624192 
L 336.059437 183.624192 
L 336.357422 185.946624 
L 336.655407 187.10784 
L 336.953391 187.10784 
L 337.102384 184.785408 
L 337.251376 185.17248 
L 337.400369 186.333696 
L 337.549361 184.785408 
L 337.698354 185.17248 
L 337.847346 185.17248 
L 338.592308 194.84928 
L 338.741301 194.84928 
L 339.337271 196.397568 
L 339.486263 199.881216 
L 339.93324 198.72 
L 340.082233 199.107072 
L 340.231225 199.107072 
L 340.380218 198.72 
L 340.52921 197.945856 
L 340.678203 197.945856 
L 340.976188 201.429504 
L 341.12518 201.816576 
L 341.274172 198.72 
L 341.423165 199.107072 
L 341.72115 204.139008 
L 341.870142 204.52608 
L 342.019135 203.751936 
L 342.168127 201.816576 
L 342.31712 202.203648 
L 342.466112 202.203648 
L 342.615105 202.59072 
L 342.764097 202.59072 
L 343.062082 203.751936 
L 343.211074 202.59072 
L 343.509059 202.59072 
L 343.658052 202.203648 
L 343.807044 202.59072 
L 343.956037 204.52608 
L 344.105029 203.751936 
L 344.254021 203.751936 
L 344.403014 207.622656 
L 344.552006 206.074368 
L 344.700999 206.074368 
L 344.849991 205.687296 
L 345.147976 206.46144 
L 345.296969 206.46144 
L 345.594953 208.009728 
L 345.743946 209.558016 
L 345.892938 208.3968 
L 346.041931 208.3968 
L 346.190923 209.170944 
L 346.339916 209.170944 
L 346.488908 207.622656 
L 346.637901 207.622656 
L 347.084878 212.654592 
L 347.23387 212.654592 
L 347.382863 216.13824 
L 347.531855 216.912384 
L 347.680848 216.912384 
L 347.978833 218.0736 
L 348.127825 215.751168 
L 348.276818 216.13824 
L 348.42581 216.912384 
L 348.574802 214.977024 
L 348.723795 216.525312 
L 348.872787 216.912384 
L 349.02178 216.912384 
L 349.170772 217.299456 
L 349.319765 218.847744 
L 349.468757 219.234816 
L 349.61775 220.00896 
L 349.915734 223.492608 
L 351.256667 230.072832 
L 351.554651 226.976256 
L 351.703644 229.298688 
L 352.001629 229.298688 
L 352.150621 230.072832 
L 352.299614 230.072832 
L 352.448606 231.62112 
L 352.597599 231.62112 
L 352.895583 233.169408 
L 353.193568 233.169408 
L 353.342561 233.943552 
L 353.640546 236.653056 
L 353.938531 236.653056 
L 354.087523 237.040128 
L 354.236515 236.265984 
L 354.5345 237.040128 
L 354.683493 237.040128 
L 354.832485 237.814272 
L 354.981478 237.814272 
L 355.428455 240.910848 
L 355.577448 240.910848 
L 355.72644 240.523776 
L 355.875432 242.459136 
L 356.173417 242.459136 
L 356.32241 244.007424 
L 356.620395 244.007424 
L 356.769387 243.620352 
L 356.91838 243.620352 
L 357.067372 244.007424 
L 357.216364 244.007424 
L 357.365357 244.781568 
L 357.514349 242.072064 
L 357.812334 242.072064 
L 357.961327 241.684992 
L 358.110319 241.684992 
L 358.259312 243.23328 
L 359.153266 245.555712 
L 359.451251 245.555712 
L 359.749236 247.491072 
L 360.047221 247.491072 
L 360.196213 247.878144 
L 360.345206 248.652288 
L 360.494198 248.652288 
L 360.643191 246.716928 
L 361.090168 246.716928 
L 361.239161 247.878144 
L 361.388153 247.878144 
L 361.537145 248.265216 
L 361.83513 248.265216 
L 361.984123 250.587648 
L 362.133115 249.426432 
L 362.282108 247.104 
L 362.4311 248.652288 
L 362.729085 248.652288 
L 363.02707 252.135936 
L 363.176062 253.297152 
L 363.325055 251.361792 
L 363.474047 251.361792 
L 363.62304 252.523008 
L 364.070017 252.523008 
L 364.21901 252.135936 
L 364.516994 253.684224 
L 364.665987 252.91008 
L 364.814979 254.458368 
L 364.963972 254.84544 
L 365.112964 254.84544 
L 365.261957 252.523008 
L 365.559942 252.523008 
L 365.857926 253.684224 
L 366.006919 251.748864 
L 366.304904 254.071296 
L 366.453896 254.458368 
L 366.900874 254.458368 
L 367.049866 255.232512 
L 367.198859 255.232512 
L 367.347851 256.393728 
L 367.496843 256.393728 
L 367.645836 255.232512 
L 367.794828 255.232512 
L 368.092813 254.458368 
L 368.241806 254.458368 
L 368.390798 257.167872 
L 368.539791 257.554944 
L 368.837775 259.103232 
L 368.986768 258.329088 
L 369.13576 260.264448 
L 369.73173 260.264448 
L 369.880723 261.038592 
L 370.029715 258.71616 
L 370.178707 258.71616 
L 370.476692 260.264448 
L 370.625685 260.264448 
L 370.774677 257.167872 
L 370.92367 257.167872 
L 371.072662 257.554944 
L 371.221655 257.167872 
L 371.370647 252.91008 
L 371.51964 252.91008 
L 371.668632 249.813504 
L 372.115609 255.619584 
L 372.264602 254.071296 
L 372.711579 257.167872 
L 372.860572 257.167872 
L 373.009564 258.71616 
L 373.158556 258.71616 
L 373.307549 258.329088 
L 373.456541 256.7808 
L 373.605534 257.554944 
L 374.052511 257.554944 
L 374.201504 259.103232 
L 374.350496 259.490304 
L 374.797473 259.490304 
L 374.946466 258.71616 
L 375.095458 258.71616 
L 375.244451 260.65152 
L 375.393443 261.038592 
L 375.542436 258.71616 
L 375.691428 259.490304 
L 375.840421 259.490304 
L 375.989413 261.038592 
L 376.138405 261.038592 
L 376.287398 261.425664 
L 376.43639 262.199808 
L 376.585383 261.038592 
L 376.883368 261.038592 
L 377.181353 255.232512 
L 377.330345 255.619584 
L 377.479337 256.393728 
L 377.62833 252.523008 
L 377.777322 252.91008 
L 377.926315 252.91008 
L 378.075307 254.84544 
L 378.2243 254.84544 
L 378.373292 252.91008 
L 378.522285 252.91008 
L 378.671277 254.071296 
L 378.969262 257.942016 
L 379.118254 257.942016 
L 379.267247 259.490304 
L 379.565232 260.264448 
L 379.863217 261.812736 
L 380.012209 261.812736 
L 380.161202 262.58688 
L 380.310194 262.58688 
L 380.459186 260.264448 
L 380.608179 261.425664 
L 380.757171 263.748096 
L 381.204149 263.748096 
L 381.353141 264.135168 
L 381.949111 266.844672 
L 382.098103 266.844672 
L 382.545081 268.005888 
L 382.694073 269.554176 
L 382.843066 269.941248 
L 382.992058 269.941248 
L 383.439035 271.102464 
L 383.588028 271.102464 
L 383.886013 273.037824 
L 384.035005 272.650752 
L 384.183998 272.650752 
L 384.33299 271.876608 
L 384.630975 271.876608 
L 384.92896 273.424896 
L 385.077952 275.360256 
L 385.375937 276.1344 
L 385.52493 276.1344 
L 385.673922 276.908544 
L 385.822915 278.456832 
L 385.971907 278.843904 
L 386.120899 278.843904 
L 386.269892 277.682688 
L 386.418884 279.230976 
L 386.567877 279.230976 
L 386.716869 280.392192 
L 386.865862 280.392192 
L 387.014854 279.230976 
L 387.312839 280.00512 
L 387.759816 280.00512 
L 388.057801 281.553408 
L 388.206794 281.166336 
L 388.355786 281.553408 
L 389.100748 281.553408 
L 389.249741 284.262912 
L 389.398733 284.649984 
L 389.547726 284.649984 
L 389.696718 286.585344 
L 390.292688 286.585344 
L 390.441681 287.359488 
L 390.590673 287.359488 
L 390.739665 287.74656 
L 390.888658 287.74656 
L 391.03765 288.907776 
L 392.080597 288.907776 
L 392.22959 289.294848 
L 392.378582 289.294848 
L 392.527575 290.843136 
L 392.676567 287.74656 
L 392.82556 288.907776 
L 393.123545 288.907776 
L 393.272537 289.68192 
L 393.719514 289.68192 
L 393.868507 290.068992 
L 394.017499 290.068992 
L 394.166492 290.456064 
L 394.464477 291.61728 
L 394.762462 291.61728 
L 394.911454 290.456064 
L 395.060446 290.843136 
L 395.358431 292.391424 
L 395.507424 292.391424 
L 395.656416 292.778496 
L 395.805409 293.55264 
L 395.954401 293.55264 
L 396.103394 293.939712 
L 396.401378 295.488 
L 396.848356 295.488 
L 396.997348 293.939712 
L 397.891303 293.939712 
L 398.040295 291.61728 
L 398.487273 291.61728 
L 398.487273 291.61728 
" clip-path="url(#p1ac4076200)" style="fill: none; stroke: #1f77b4; stroke-width: 1.5; stroke-linecap: square"/>
   </g>
   <g id="patch_3">
    <path d="M 57.6 307.584 
L 57.6 41.472 
" style="fill: none; stroke: #000000; stroke-width: 0.8; stroke-linejoin: miter; stroke-linecap: square"/>
   </g>
   <g id="patch_4">
    <path d="M 414.72 307.584 
L 414.72 41.472 
" style="fill: none; stroke: #000000; stroke-width: 0.8; stroke-linejoin: miter; stroke-linecap: square"/>
   </g>
   <g id="patch_5">
    <path d="M 57.6 307.584 
L 414.72 307.584 
" style="fill: none; stroke: #000000; stroke-width: 0.8; stroke-linejoin: miter; stroke-linecap: square"/>
   </g>
   <g id="patch_6">
    <path d="M 57.6 41.472 
L 414.72 41.472 
" style="fill: none; stroke: #000000; stroke-width: 0.8; stroke-linejoin: miter; stroke-linecap: square"/>
   </g>
   <g id="text_15">
    <!-- Simulated Anealling Cost -->
    <g transform="translate(160.8 35.472)scale(0.12 -0.12)">
     <defs>
      <path id="DejaVuSans-53" d="M 3425 4513 
L 3425 3897 
Q 3066 4069 2747 4153 
Q 2428 4238 2131 4238 
Q 1616 4238 1336 4038 
Q 1056 3838 1056 3469 
Q 1056 3159 1242 3001 
Q 1428 2844 1947 2747 
L 2328 2669 
Q 3034 2534 3370 2195 
Q 3706 1856 3706 1288 
Q 3706 609 3251 259 
Q 2797 -91 1919 -91 
Q 1588 -91 1214 -16 
Q 841 59 441 206 
L 441 856 
Q 825 641 1194 531 
Q 1563 422 1919 422 
Q 2459 422 2753 634 
Q 3047 847 3047 1241 
Q 3047 1584 2836 1778 
Q 2625 1972 2144 2069 
L 1759 2144 
Q 1053 2284 737 2584 
Q 422 2884 422 3419 
Q 422 4038 858 4394 
Q 1294 4750 2059 4750 
Q 2388 4750 2728 4690 
Q 3069 4631 3425 4513 
z
" transform="scale(0.015625)"/>
      <path id="DejaVuSans-69" d="M 603 3500 
L 1178 3500 
L 1178 0 
L 603 0 
L 603 3500 
z
M 603 4863 
L 1178 4863 
L 1178 4134 
L 603 4134 
L 603 4863 
z
" transform="scale(0.015625)"/>
      <path id="DejaVuSans-65" d="M 3597 1894 
L 3597 1613 
L 953 1613 
Q 991 1019 1311 708 
Q 1631 397 2203 397 
Q 2534 397 2845 478 
Q 3156 559 3463 722 
L 3463 178 
Q 3153 47 2828 -22 
Q 2503 -91 2169 -91 
Q 1331 -91 842 396 
Q 353 884 353 1716 
Q 353 2575 817 3079 
Q 1281 3584 2069 3584 
Q 2775 3584 3186 3129 
Q 3597 2675 3597 1894 
z
M 3022 2063 
Q 3016 2534 2758 2815 
Q 2500 3097 2075 3097 
Q 1594 3097 1305 2825 
Q 1016 2553 972 2059 
L 3022 2063 
z
" transform="scale(0.015625)"/>
      <path id="DejaVuSans-64" d="M 2906 2969 
L 2906 4863 
L 3481 4863 
L 3481 0 
L 2906 0 
L 2906 525 
Q 2725 213 2448 61 
Q 2172 -91 1784 -91 
Q 1150 -91 751 415 
Q 353 922 353 1747 
Q 353 2572 751 3078 
Q 1150 3584 1784 3584 
Q 2172 3584 2448 3432 
Q 2725 3281 2906 2969 
z
M 947 1747 
Q 947 1113 1208 752 
Q 1469 391 1925 391 
Q 2381 391 2643 752 
Q 2906 1113 2906 1747 
Q 2906 2381 2643 2742 
Q 2381 3103 1925 3103 
Q 1469 3103 1208 2742 
Q 947 2381 947 1747 
z
" transform="scale(0.015625)"/>
      <path id="DejaVuSans-41" d="M 2188 4044 
L 1331 1722 
L 3047 1722 
L 2188 4044 
z
M 1831 4666 
L 2547 4666 
L 4325 0 
L 3669 0 
L 3244 1197 
L 1141 1197 
L 716 0 
L 50 0 
L 1831 4666 
z
" transform="scale(0.015625)"/>
      <path id="DejaVuSans-67" d="M 2906 1791 
Q 2906 2416 2648 2759 
Q 2391 3103 1925 3103 
Q 1463 3103 1205 2759 
Q 947 2416 947 1791 
Q 947 1169 1205 825 
Q 1463 481 1925 481 
Q 2391 481 2648 825 
Q 2906 1169 2906 1791 
z
M 3481 434 
Q 3481 -459 3084 -895 
Q 2688 -1331 1869 -1331 
Q 1566 -1331 1297 -1286 
Q 1028 -1241 775 -1147 
L 775 -588 
Q 1028 -725 1275 -790 
Q 1522 -856 1778 -856 
Q 2344 -856 2625 -561 
Q 2906 -266 2906 331 
L 2906 616 
Q 2728 306 2450 153 
Q 2172 0 1784 0 
Q 1141 0 747 490 
Q 353 981 353 1791 
Q 353 2603 747 3093 
Q 1141 3584 1784 3584 
Q 2172 3584 2450 3431 
Q 2728 3278 2906 2969 
L 2906 3500 
L 3481 3500 
L 3481 434 
z
" transform="scale(0.015625)"/>
      <path id="DejaVuSans-43" d="M 4122 4306 
L 4122 3641 
Q 3803 3938 3442 4084 
Q 3081 4231 2675 4231 
Q 1875 4231 1450 3742 
Q 1025 3253 1025 2328 
Q 1025 1406 1450 917 
Q 1875 428 2675 428 
Q 3081 428 3442 575 
Q 3803 722 4122 1019 
L 4122 359 
Q 3791 134 3420 21 
Q 3050 -91 2638 -91 
Q 1578 -91 968 557 
Q 359 1206 359 2328 
Q 359 3453 968 4101 
Q 1578 4750 2638 4750 
Q 3056 4750 3426 4639 
Q 3797 4528 4122 4306 
z
" transform="scale(0.015625)"/>
     </defs>
     <use xlink:href="#DejaVuSans-53"/>
     <use xlink:href="#DejaVuSans-69" x="63.476562"/>
     <use xlink:href="#DejaVuSans-6d" x="91.259766"/>
     <use xlink:href="#DejaVuSans-75" x="188.671875"/>
     <use xlink:href="#DejaVuSans-6c" x="252.050781"/>
     <use xlink:href="#DejaVuSans-61" x="279.833984"/>
     <use xlink:href="#DejaVuSans-74" x="341.113281"/>
     <use xlink:href="#DejaVuSans-65" x="380.322266"/>
     <use xlink:href="#DejaVuSans-64" x="441.845703"/>
     <use xlink:href="#DejaVuSans-20" x="505.322266"/>
     <use xlink:href="#DejaVuSans-41" x="537.109375"/>
     <use xlink:href="#DejaVuSans-6e" x="605.517578"/>
     <use xlink:href="#DejaVuSans-65" x="668.896484"/>
     <use xlink:href="#DejaVuSans-61" x="730.419922"/>
     <use xlink:href="#DejaVuSans-6c" x="791.699219"/>
     <use xlink:href="#DejaVuSans-6c" x="819.482422"/>
     <use xlink:href="#DejaVuSans-69" x="847.265625"/>
     <use xlink:href="#DejaVuSans-6e" x="875.048828"/>
     <use xlink:href="#DejaVuSans-67" x="938.427734"/>
     <use xlink:href="#DejaVuSans-20" x="1001.904297"/>
     <use xlink:href="#DejaVuSans-43" x="1033.691406"/>
     <use xlink:href="#DejaVuSans-6f" x="1103.515625"/>
     <use xlink:href="#DejaVuSans-73" x="1164.697266"/>
     <use xlink:href="#DejaVuSans-74" x="1216.796875"/>
    </g>
   </g>
  </g>
 </g>
 <defs>
  <clipPath id="p1ac4076200">
   <rect x="57.6" y="41.472" width="357.12" height="266.112"/>
  </clipPath>
 </defs>
</svg>
