<?xml version="1.0" encoding="utf-8" standalone="no"?>
<!DOCTYPE svg PUBLIC "-//W3C//DTD SVG 1.1//EN"
  "http://www.w3.org/Graphics/SVG/1.1/DTD/svg11.dtd">
<svg xmlns:xlink="http://www.w3.org/1999/xlink" width="460.8pt" height="345.6pt" viewBox="0 0 460.8 345.6" xmlns="http://www.w3.org/2000/svg" version="1.1">
 <metadata>
  <rdf:RDF xmlns:dc="http://purl.org/dc/elements/1.1/" xmlns:cc="http://creativecommons.org/ns#" xmlns:rdf="http://www.w3.org/1999/02/22-rdf-syntax-ns#">
   <cc:Work>
    <dc:type rdf:resource="http://purl.org/dc/dcmitype/StillImage"/>
    <dc:date>2022-06-01T08:00:26.878864</dc:date>
    <dc:format>image/svg+xml</dc:format>
    <dc:creator>
     <cc:Agent>
      <dc:title>Matplotlib v3.5.1, https://matplotlib.org/</dc:title>
     </cc:Agent>
    </dc:creator>
   </cc:Work>
  </rdf:RDF>
 </metadata>
 <defs>
  <style type="text/css">*{stroke-linejoin: round; stroke-linecap: butt}</style>
 </defs>
 <g id="figure_1">
  <g id="patch_1">
   <path d="M 0 345.6 
L 460.8 345.6 
L 460.8 0 
L 0 0 
z
" style="fill: #ffffff"/>
  </g>
  <g id="axes_1">
   <g id="patch_2">
    <path d="M 57.6 307.584 
L 414.72 307.584 
L 414.72 41.472 
L 57.6 41.472 
z
" style="fill: #ffffff"/>
   </g>
   <g id="matplotlib.axis_1">
    <g id="xtick_1">
     <g id="line2d_1">
      <defs>
       <path id="m3a8470cf06" d="M 0 0 
L 0 3.5 
" style="stroke: #000000; stroke-width: 0.8"/>
      </defs>
      <g>
       <use xlink:href="#m3a8470cf06" x="73.832727" y="307.584" style="stroke: #000000; stroke-width: 0.8"/>
      </g>
     </g>
     <g id="text_1">
      <!-- 0 -->
      <g transform="translate(70.651477 322.182437)scale(0.1 -0.1)">
       <defs>
        <path id="DejaVuSans-30" d="M 2034 4250 
Q 1547 4250 1301 3770 
Q 1056 3291 1056 2328 
Q 1056 1369 1301 889 
Q 1547 409 2034 409 
Q 2525 409 2770 889 
Q 3016 1369 3016 2328 
Q 3016 3291 2770 3770 
Q 2525 4250 2034 4250 
z
M 2034 4750 
Q 2819 4750 3233 4129 
Q 3647 3509 3647 2328 
Q 3647 1150 3233 529 
Q 2819 -91 2034 -91 
Q 1250 -91 836 529 
Q 422 1150 422 2328 
Q 422 3509 836 4129 
Q 1250 4750 2034 4750 
z
" transform="scale(0.015625)"/>
       </defs>
       <use xlink:href="#DejaVuSans-30"/>
      </g>
     </g>
    </g>
    <g id="xtick_2">
     <g id="line2d_2">
      <g>
       <use xlink:href="#m3a8470cf06" x="147.118178" y="307.584" style="stroke: #000000; stroke-width: 0.8"/>
      </g>
     </g>
     <g id="text_2">
      <!-- 1000 -->
      <g transform="translate(134.393178 322.182437)scale(0.1 -0.1)">
       <defs>
        <path id="DejaVuSans-31" d="M 794 531 
L 1825 531 
L 1825 4091 
L 703 3866 
L 703 4441 
L 1819 4666 
L 2450 4666 
L 2450 531 
L 3481 531 
L 3481 0 
L 794 0 
L 794 531 
z
" transform="scale(0.015625)"/>
       </defs>
       <use xlink:href="#DejaVuSans-31"/>
       <use xlink:href="#DejaVuSans-30" x="63.623047"/>
       <use xlink:href="#DejaVuSans-30" x="127.246094"/>
       <use xlink:href="#DejaVuSans-30" x="190.869141"/>
      </g>
     </g>
    </g>
    <g id="xtick_3">
     <g id="line2d_3">
      <g>
       <use xlink:href="#m3a8470cf06" x="220.403628" y="307.584" style="stroke: #000000; stroke-width: 0.8"/>
      </g>
     </g>
     <g id="text_3">
      <!-- 2000 -->
      <g transform="translate(207.678628 322.182437)scale(0.1 -0.1)">
       <defs>
        <path id="DejaVuSans-32" d="M 1228 531 
L 3431 531 
L 3431 0 
L 469 0 
L 469 531 
Q 828 903 1448 1529 
Q 2069 2156 2228 2338 
Q 2531 2678 2651 2914 
Q 2772 3150 2772 3378 
Q 2772 3750 2511 3984 
Q 2250 4219 1831 4219 
Q 1534 4219 1204 4116 
Q 875 4013 500 3803 
L 500 4441 
Q 881 4594 1212 4672 
Q 1544 4750 1819 4750 
Q 2544 4750 2975 4387 
Q 3406 4025 3406 3419 
Q 3406 3131 3298 2873 
Q 3191 2616 2906 2266 
Q 2828 2175 2409 1742 
Q 1991 1309 1228 531 
z
" transform="scale(0.015625)"/>
       </defs>
       <use xlink:href="#DejaVuSans-32"/>
       <use xlink:href="#DejaVuSans-30" x="63.623047"/>
       <use xlink:href="#DejaVuSans-30" x="127.246094"/>
       <use xlink:href="#DejaVuSans-30" x="190.869141"/>
      </g>
     </g>
    </g>
    <g id="xtick_4">
     <g id="line2d_4">
      <g>
       <use xlink:href="#m3a8470cf06" x="293.689079" y="307.584" style="stroke: #000000; stroke-width: 0.8"/>
      </g>
     </g>
     <g id="text_4">
      <!-- 3000 -->
      <g transform="translate(280.964079 322.182437)scale(0.1 -0.1)">
       <defs>
        <path id="DejaVuSans-33" d="M 2597 2516 
Q 3050 2419 3304 2112 
Q 3559 1806 3559 1356 
Q 3559 666 3084 287 
Q 2609 -91 1734 -91 
Q 1441 -91 1130 -33 
Q 819 25 488 141 
L 488 750 
Q 750 597 1062 519 
Q 1375 441 1716 441 
Q 2309 441 2620 675 
Q 2931 909 2931 1356 
Q 2931 1769 2642 2001 
Q 2353 2234 1838 2234 
L 1294 2234 
L 1294 2753 
L 1863 2753 
Q 2328 2753 2575 2939 
Q 2822 3125 2822 3475 
Q 2822 3834 2567 4026 
Q 2313 4219 1838 4219 
Q 1578 4219 1281 4162 
Q 984 4106 628 3988 
L 628 4550 
Q 988 4650 1302 4700 
Q 1616 4750 1894 4750 
Q 2613 4750 3031 4423 
Q 3450 4097 3450 3541 
Q 3450 3153 3228 2886 
Q 3006 2619 2597 2516 
z
" transform="scale(0.015625)"/>
       </defs>
       <use xlink:href="#DejaVuSans-33"/>
       <use xlink:href="#DejaVuSans-30" x="63.623047"/>
       <use xlink:href="#DejaVuSans-30" x="127.246094"/>
       <use xlink:href="#DejaVuSans-30" x="190.869141"/>
      </g>
     </g>
    </g>
    <g id="xtick_5">
     <g id="line2d_5">
      <g>
       <use xlink:href="#m3a8470cf06" x="366.974529" y="307.584" style="stroke: #000000; stroke-width: 0.8"/>
      </g>
     </g>
     <g id="text_5">
      <!-- 4000 -->
      <g transform="translate(354.249529 322.182437)scale(0.1 -0.1)">
       <defs>
        <path id="DejaVuSans-34" d="M 2419 4116 
L 825 1625 
L 2419 1625 
L 2419 4116 
z
M 2253 4666 
L 3047 4666 
L 3047 1625 
L 3713 1625 
L 3713 1100 
L 3047 1100 
L 3047 0 
L 2419 0 
L 2419 1100 
L 313 1100 
L 313 1709 
L 2253 4666 
z
" transform="scale(0.015625)"/>
       </defs>
       <use xlink:href="#DejaVuSans-34"/>
       <use xlink:href="#DejaVuSans-30" x="63.623047"/>
       <use xlink:href="#DejaVuSans-30" x="127.246094"/>
       <use xlink:href="#DejaVuSans-30" x="190.869141"/>
      </g>
     </g>
    </g>
    <g id="text_6">
     <!-- num swaps -->
     <g transform="translate(207.826406 335.860562)scale(0.1 -0.1)">
      <defs>
       <path id="DejaVuSans-6e" d="M 3513 2113 
L 3513 0 
L 2938 0 
L 2938 2094 
Q 2938 2591 2744 2837 
Q 2550 3084 2163 3084 
Q 1697 3084 1428 2787 
Q 1159 2491 1159 1978 
L 1159 0 
L 581 0 
L 581 3500 
L 1159 3500 
L 1159 2956 
Q 1366 3272 1645 3428 
Q 1925 3584 2291 3584 
Q 2894 3584 3203 3211 
Q 3513 2838 3513 2113 
z
" transform="scale(0.015625)"/>
       <path id="DejaVuSans-75" d="M 544 1381 
L 544 3500 
L 1119 3500 
L 1119 1403 
Q 1119 906 1312 657 
Q 1506 409 1894 409 
Q 2359 409 2629 706 
Q 2900 1003 2900 1516 
L 2900 3500 
L 3475 3500 
L 3475 0 
L 2900 0 
L 2900 538 
Q 2691 219 2414 64 
Q 2138 -91 1772 -91 
Q 1169 -91 856 284 
Q 544 659 544 1381 
z
M 1991 3584 
L 1991 3584 
z
" transform="scale(0.015625)"/>
       <path id="DejaVuSans-6d" d="M 3328 2828 
Q 3544 3216 3844 3400 
Q 4144 3584 4550 3584 
Q 5097 3584 5394 3201 
Q 5691 2819 5691 2113 
L 5691 0 
L 5113 0 
L 5113 2094 
Q 5113 2597 4934 2840 
Q 4756 3084 4391 3084 
Q 3944 3084 3684 2787 
Q 3425 2491 3425 1978 
L 3425 0 
L 2847 0 
L 2847 2094 
Q 2847 2600 2669 2842 
Q 2491 3084 2119 3084 
Q 1678 3084 1418 2786 
Q 1159 2488 1159 1978 
L 1159 0 
L 581 0 
L 581 3500 
L 1159 3500 
L 1159 2956 
Q 1356 3278 1631 3431 
Q 1906 3584 2284 3584 
Q 2666 3584 2933 3390 
Q 3200 3197 3328 2828 
z
" transform="scale(0.015625)"/>
       <path id="DejaVuSans-20" transform="scale(0.015625)"/>
       <path id="DejaVuSans-73" d="M 2834 3397 
L 2834 2853 
Q 2591 2978 2328 3040 
Q 2066 3103 1784 3103 
Q 1356 3103 1142 2972 
Q 928 2841 928 2578 
Q 928 2378 1081 2264 
Q 1234 2150 1697 2047 
L 1894 2003 
Q 2506 1872 2764 1633 
Q 3022 1394 3022 966 
Q 3022 478 2636 193 
Q 2250 -91 1575 -91 
Q 1294 -91 989 -36 
Q 684 19 347 128 
L 347 722 
Q 666 556 975 473 
Q 1284 391 1588 391 
Q 1994 391 2212 530 
Q 2431 669 2431 922 
Q 2431 1156 2273 1281 
Q 2116 1406 1581 1522 
L 1381 1569 
Q 847 1681 609 1914 
Q 372 2147 372 2553 
Q 372 3047 722 3315 
Q 1072 3584 1716 3584 
Q 2034 3584 2315 3537 
Q 2597 3491 2834 3397 
z
" transform="scale(0.015625)"/>
       <path id="DejaVuSans-77" d="M 269 3500 
L 844 3500 
L 1563 769 
L 2278 3500 
L 2956 3500 
L 3675 769 
L 4391 3500 
L 4966 3500 
L 4050 0 
L 3372 0 
L 2619 2869 
L 1863 0 
L 1184 0 
L 269 3500 
z
" transform="scale(0.015625)"/>
       <path id="DejaVuSans-61" d="M 2194 1759 
Q 1497 1759 1228 1600 
Q 959 1441 959 1056 
Q 959 750 1161 570 
Q 1363 391 1709 391 
Q 2188 391 2477 730 
Q 2766 1069 2766 1631 
L 2766 1759 
L 2194 1759 
z
M 3341 1997 
L 3341 0 
L 2766 0 
L 2766 531 
Q 2569 213 2275 61 
Q 1981 -91 1556 -91 
Q 1019 -91 701 211 
Q 384 513 384 1019 
Q 384 1609 779 1909 
Q 1175 2209 1959 2209 
L 2766 2209 
L 2766 2266 
Q 2766 2663 2505 2880 
Q 2244 3097 1772 3097 
Q 1472 3097 1187 3025 
Q 903 2953 641 2809 
L 641 3341 
Q 956 3463 1253 3523 
Q 1550 3584 1831 3584 
Q 2591 3584 2966 3190 
Q 3341 2797 3341 1997 
z
" transform="scale(0.015625)"/>
       <path id="DejaVuSans-70" d="M 1159 525 
L 1159 -1331 
L 581 -1331 
L 581 3500 
L 1159 3500 
L 1159 2969 
Q 1341 3281 1617 3432 
Q 1894 3584 2278 3584 
Q 2916 3584 3314 3078 
Q 3713 2572 3713 1747 
Q 3713 922 3314 415 
Q 2916 -91 2278 -91 
Q 1894 -91 1617 61 
Q 1341 213 1159 525 
z
M 3116 1747 
Q 3116 2381 2855 2742 
Q 2594 3103 2138 3103 
Q 1681 3103 1420 2742 
Q 1159 2381 1159 1747 
Q 1159 1113 1420 752 
Q 1681 391 2138 391 
Q 2594 391 2855 752 
Q 3116 1113 3116 1747 
z
" transform="scale(0.015625)"/>
      </defs>
      <use xlink:href="#DejaVuSans-6e"/>
      <use xlink:href="#DejaVuSans-75" x="63.378906"/>
      <use xlink:href="#DejaVuSans-6d" x="126.757812"/>
      <use xlink:href="#DejaVuSans-20" x="224.169922"/>
      <use xlink:href="#DejaVuSans-73" x="255.957031"/>
      <use xlink:href="#DejaVuSans-77" x="308.056641"/>
      <use xlink:href="#DejaVuSans-61" x="389.84375"/>
      <use xlink:href="#DejaVuSans-70" x="451.123047"/>
      <use xlink:href="#DejaVuSans-73" x="514.599609"/>
     </g>
    </g>
   </g>
   <g id="matplotlib.axis_2">
    <g id="ytick_1">
     <g id="line2d_6">
      <defs>
       <path id="mb1777e5a04" d="M 0 0 
L -3.5 0 
" style="stroke: #000000; stroke-width: 0.8"/>
      </defs>
      <g>
       <use xlink:href="#mb1777e5a04" x="57.6" y="305.032014" style="stroke: #000000; stroke-width: 0.8"/>
      </g>
     </g>
     <g id="text_7">
      <!-- 900 -->
      <g transform="translate(31.5125 308.831232)scale(0.1 -0.1)">
       <defs>
        <path id="DejaVuSans-39" d="M 703 97 
L 703 672 
Q 941 559 1184 500 
Q 1428 441 1663 441 
Q 2288 441 2617 861 
Q 2947 1281 2994 2138 
Q 2813 1869 2534 1725 
Q 2256 1581 1919 1581 
Q 1219 1581 811 2004 
Q 403 2428 403 3163 
Q 403 3881 828 4315 
Q 1253 4750 1959 4750 
Q 2769 4750 3195 4129 
Q 3622 3509 3622 2328 
Q 3622 1225 3098 567 
Q 2575 -91 1691 -91 
Q 1453 -91 1209 -44 
Q 966 3 703 97 
z
M 1959 2075 
Q 2384 2075 2632 2365 
Q 2881 2656 2881 3163 
Q 2881 3666 2632 3958 
Q 2384 4250 1959 4250 
Q 1534 4250 1286 3958 
Q 1038 3666 1038 3163 
Q 1038 2656 1286 2365 
Q 1534 2075 1959 2075 
z
" transform="scale(0.015625)"/>
       </defs>
       <use xlink:href="#DejaVuSans-39"/>
       <use xlink:href="#DejaVuSans-30" x="63.623047"/>
       <use xlink:href="#DejaVuSans-30" x="127.246094"/>
      </g>
     </g>
    </g>
    <g id="ytick_2">
     <g id="line2d_7">
      <g>
       <use xlink:href="#mb1777e5a04" x="57.6" y="263.536302" style="stroke: #000000; stroke-width: 0.8"/>
      </g>
     </g>
     <g id="text_8">
      <!-- 1000 -->
      <g transform="translate(25.15 267.335521)scale(0.1 -0.1)">
       <use xlink:href="#DejaVuSans-31"/>
       <use xlink:href="#DejaVuSans-30" x="63.623047"/>
       <use xlink:href="#DejaVuSans-30" x="127.246094"/>
       <use xlink:href="#DejaVuSans-30" x="190.869141"/>
      </g>
     </g>
    </g>
    <g id="ytick_3">
     <g id="line2d_8">
      <g>
       <use xlink:href="#mb1777e5a04" x="57.6" y="222.04059" style="stroke: #000000; stroke-width: 0.8"/>
      </g>
     </g>
     <g id="text_9">
      <!-- 1100 -->
      <g transform="translate(25.15 225.839809)scale(0.1 -0.1)">
       <use xlink:href="#DejaVuSans-31"/>
       <use xlink:href="#DejaVuSans-31" x="63.623047"/>
       <use xlink:href="#DejaVuSans-30" x="127.246094"/>
       <use xlink:href="#DejaVuSans-30" x="190.869141"/>
      </g>
     </g>
    </g>
    <g id="ytick_4">
     <g id="line2d_9">
      <g>
       <use xlink:href="#mb1777e5a04" x="57.6" y="180.544878" style="stroke: #000000; stroke-width: 0.8"/>
      </g>
     </g>
     <g id="text_10">
      <!-- 1200 -->
      <g transform="translate(25.15 184.344097)scale(0.1 -0.1)">
       <use xlink:href="#DejaVuSans-31"/>
       <use xlink:href="#DejaVuSans-32" x="63.623047"/>
       <use xlink:href="#DejaVuSans-30" x="127.246094"/>
       <use xlink:href="#DejaVuSans-30" x="190.869141"/>
      </g>
     </g>
    </g>
    <g id="ytick_5">
     <g id="line2d_10">
      <g>
       <use xlink:href="#mb1777e5a04" x="57.6" y="139.049166" style="stroke: #000000; stroke-width: 0.8"/>
      </g>
     </g>
     <g id="text_11">
      <!-- 1300 -->
      <g transform="translate(25.15 142.848385)scale(0.1 -0.1)">
       <use xlink:href="#DejaVuSans-31"/>
       <use xlink:href="#DejaVuSans-33" x="63.623047"/>
       <use xlink:href="#DejaVuSans-30" x="127.246094"/>
       <use xlink:href="#DejaVuSans-30" x="190.869141"/>
      </g>
     </g>
    </g>
    <g id="ytick_6">
     <g id="line2d_11">
      <g>
       <use xlink:href="#mb1777e5a04" x="57.6" y="97.553455" style="stroke: #000000; stroke-width: 0.8"/>
      </g>
     </g>
     <g id="text_12">
      <!-- 1400 -->
      <g transform="translate(25.15 101.352673)scale(0.1 -0.1)">
       <use xlink:href="#DejaVuSans-31"/>
       <use xlink:href="#DejaVuSans-34" x="63.623047"/>
       <use xlink:href="#DejaVuSans-30" x="127.246094"/>
       <use xlink:href="#DejaVuSans-30" x="190.869141"/>
      </g>
     </g>
    </g>
    <g id="ytick_7">
     <g id="line2d_12">
      <g>
       <use xlink:href="#mb1777e5a04" x="57.6" y="56.057743" style="stroke: #000000; stroke-width: 0.8"/>
      </g>
     </g>
     <g id="text_13">
      <!-- 1500 -->
      <g transform="translate(25.15 59.856961)scale(0.1 -0.1)">
       <defs>
        <path id="DejaVuSans-35" d="M 691 4666 
L 3169 4666 
L 3169 4134 
L 1269 4134 
L 1269 2991 
Q 1406 3038 1543 3061 
Q 1681 3084 1819 3084 
Q 2600 3084 3056 2656 
Q 3513 2228 3513 1497 
Q 3513 744 3044 326 
Q 2575 -91 1722 -91 
Q 1428 -91 1123 -41 
Q 819 9 494 109 
L 494 744 
Q 775 591 1075 516 
Q 1375 441 1709 441 
Q 2250 441 2565 725 
Q 2881 1009 2881 1497 
Q 2881 1984 2565 2268 
Q 2250 2553 1709 2553 
Q 1456 2553 1204 2497 
Q 953 2441 691 2322 
L 691 4666 
z
" transform="scale(0.015625)"/>
       </defs>
       <use xlink:href="#DejaVuSans-31"/>
       <use xlink:href="#DejaVuSans-35" x="63.623047"/>
       <use xlink:href="#DejaVuSans-30" x="127.246094"/>
       <use xlink:href="#DejaVuSans-30" x="190.869141"/>
      </g>
     </g>
    </g>
    <g id="text_14">
     <!-- total cost -->
     <g transform="translate(19.070312 197.923313)rotate(-90)scale(0.1 -0.1)">
      <defs>
       <path id="DejaVuSans-74" d="M 1172 4494 
L 1172 3500 
L 2356 3500 
L 2356 3053 
L 1172 3053 
L 1172 1153 
Q 1172 725 1289 603 
Q 1406 481 1766 481 
L 2356 481 
L 2356 0 
L 1766 0 
Q 1100 0 847 248 
Q 594 497 594 1153 
L 594 3053 
L 172 3053 
L 172 3500 
L 594 3500 
L 594 4494 
L 1172 4494 
z
" transform="scale(0.015625)"/>
       <path id="DejaVuSans-6f" d="M 1959 3097 
Q 1497 3097 1228 2736 
Q 959 2375 959 1747 
Q 959 1119 1226 758 
Q 1494 397 1959 397 
Q 2419 397 2687 759 
Q 2956 1122 2956 1747 
Q 2956 2369 2687 2733 
Q 2419 3097 1959 3097 
z
M 1959 3584 
Q 2709 3584 3137 3096 
Q 3566 2609 3566 1747 
Q 3566 888 3137 398 
Q 2709 -91 1959 -91 
Q 1206 -91 779 398 
Q 353 888 353 1747 
Q 353 2609 779 3096 
Q 1206 3584 1959 3584 
z
" transform="scale(0.015625)"/>
       <path id="DejaVuSans-6c" d="M 603 4863 
L 1178 4863 
L 1178 0 
L 603 0 
L 603 4863 
z
" transform="scale(0.015625)"/>
       <path id="DejaVuSans-63" d="M 3122 3366 
L 3122 2828 
Q 2878 2963 2633 3030 
Q 2388 3097 2138 3097 
Q 1578 3097 1268 2742 
Q 959 2388 959 1747 
Q 959 1106 1268 751 
Q 1578 397 2138 397 
Q 2388 397 2633 464 
Q 2878 531 3122 666 
L 3122 134 
Q 2881 22 2623 -34 
Q 2366 -91 2075 -91 
Q 1284 -91 818 406 
Q 353 903 353 1747 
Q 353 2603 823 3093 
Q 1294 3584 2113 3584 
Q 2378 3584 2631 3529 
Q 2884 3475 3122 3366 
z
" transform="scale(0.015625)"/>
      </defs>
      <use xlink:href="#DejaVuSans-74"/>
      <use xlink:href="#DejaVuSans-6f" x="39.208984"/>
      <use xlink:href="#DejaVuSans-74" x="100.390625"/>
      <use xlink:href="#DejaVuSans-61" x="139.599609"/>
      <use xlink:href="#DejaVuSans-6c" x="200.878906"/>
      <use xlink:href="#DejaVuSans-20" x="228.662109"/>
      <use xlink:href="#DejaVuSans-63" x="260.449219"/>
      <use xlink:href="#DejaVuSans-6f" x="315.429688"/>
      <use xlink:href="#DejaVuSans-73" x="376.611328"/>
      <use xlink:href="#DejaVuSans-74" x="428.710938"/>
     </g>
    </g>
   </g>
   <g id="line2d_13">
    <path d="M 73.832727 73.900899 
L 73.979298 76.390642 
L 74.125869 70.581242 
L 74.712153 75.975684 
L 74.858724 76.390642 
L 75.005294 76.390642 
L 75.151865 74.730813 
L 75.298436 74.730813 
L 75.445007 74.315856 
L 75.88472 77.220556 
L 76.031291 80.125256 
L 76.177862 77.220556 
L 76.324433 77.220556 
L 76.471003 76.390642 
L 76.617574 70.581242 
L 76.764145 73.900899 
L 76.910716 68.091499 
L 77.057287 68.091499 
L 77.203858 68.506456 
L 77.350429 71.411156 
L 77.497 67.676542 
L 77.643571 70.581242 
L 77.790142 70.166285 
L 77.936712 68.921413 
L 78.083283 68.921413 
L 78.376425 63.526971 
L 78.522996 60.207314 
L 78.669567 63.526971 
L 78.816138 62.282099 
L 79.10928 65.601756 
L 79.255851 67.261585 
L 79.402422 70.581242 
L 79.695563 67.261585 
L 79.842134 70.166285 
L 79.988705 70.166285 
L 80.135276 66.016714 
L 80.281847 65.601756 
L 80.428418 66.016714 
L 80.72156 61.867142 
L 80.868131 63.112014 
L 81.014701 66.016714 
L 81.161272 66.431671 
L 81.454414 64.771842 
L 81.600985 66.846628 
L 81.747556 67.261585 
L 82.187269 74.730813 
L 82.33384 74.315856 
L 82.48041 72.656027 
L 82.626981 73.485942 
L 83.213265 68.921413 
L 83.359836 69.751328 
L 83.506407 73.485942 
L 83.799549 70.166285 
L 84.09269 68.921413 
L 84.239261 66.846628 
L 84.385832 68.091499 
L 84.532403 62.697057 
L 84.678974 63.526971 
L 84.972116 58.962443 
L 85.118687 56.887657 
L 85.558399 62.282099 
L 85.70497 61.867142 
L 85.851541 54.812871 
L 85.998112 55.227828 
L 86.144683 56.057743 
L 86.291254 53.568 
L 86.730967 69.33637 
L 86.877537 65.601756 
L 87.170679 67.676542 
L 87.31725 65.186799 
L 87.610392 73.070985 
L 87.756963 70.996199 
L 87.903534 70.996199 
L 88.050105 71.411156 
L 88.196676 71.411156 
L 88.489817 72.24107 
L 89.076101 79.295341 
L 89.222672 78.880384 
L 89.369243 78.05047 
L 89.515814 75.975684 
L 89.662385 75.975684 
L 89.808955 77.220556 
L 89.955526 75.560727 
L 90.102097 77.220556 
L 90.248668 77.220556 
L 90.395239 76.805599 
L 90.54181 77.635513 
L 90.688381 77.635513 
L 90.834952 78.465427 
L 91.128094 82.614998 
L 91.274664 80.95517 
L 91.421235 82.200041 
L 92.007519 73.485942 
L 92.300661 74.315856 
L 92.447232 72.656027 
L 92.593803 69.33637 
L 92.740373 69.33637 
L 93.033515 68.506456 
L 93.180086 65.186799 
L 93.326657 66.016714 
L 93.473228 63.526971 
L 93.619799 63.526971 
L 93.76637 67.261585 
L 93.912941 66.431671 
L 94.352653 70.166285 
L 94.499224 70.166285 
L 94.645795 74.315856 
L 94.792366 73.070985 
L 94.938937 73.070985 
L 95.37865 84.274827 
L 95.525221 83.85987 
L 95.818362 91.744055 
L 95.964933 93.81884 
L 96.258075 88.009441 
L 96.404646 91.329098 
L 96.551217 89.254312 
L 96.697788 89.254312 
L 96.99093 86.349612 
L 97.137501 90.499184 
L 97.284071 88.839355 
L 97.430642 92.573969 
L 97.577213 90.914141 
L 97.723784 94.648755 
L 97.870355 92.988926 
L 98.016926 87.179527 
L 98.163497 88.009441 
L 98.310068 87.594484 
L 98.456639 87.594484 
L 98.60321 91.744055 
L 98.74978 91.329098 
L 99.189493 96.308583 
L 99.336064 96.72354 
L 99.482635 97.553455 
L 99.629206 97.553455 
L 99.775777 100.873111 
L 99.922348 101.288069 
L 100.068919 101.288069 
L 100.215489 102.947897 
L 100.36206 102.947897 
L 100.948344 97.138497 
L 101.094915 99.213283 
L 101.241486 97.968412 
L 101.388057 103.362854 
L 101.534628 101.703026 
L 101.827769 104.192768 
L 101.97434 100.043197 
L 102.120911 101.703026 
L 102.267482 99.62824 
L 102.414053 100.043197 
L 102.707195 106.682511 
L 102.853766 103.362854 
L 103.000337 102.947897 
L 103.146907 104.607726 
L 103.293478 104.607726 
L 103.733191 98.798326 
L 103.879762 97.138497 
L 104.026333 97.138497 
L 104.172904 98.383369 
L 104.319475 98.383369 
L 104.612616 96.72354 
L 104.905758 99.213283 
L 105.052329 98.383369 
L 105.1989 100.458154 
L 105.492042 101.288069 
L 105.638613 99.213283 
L 105.931755 99.213283 
L 106.224896 96.72354 
L 106.371467 101.288069 
L 106.518038 101.703026 
L 106.664609 94.233798 
L 106.81118 93.81884 
L 107.250893 84.274827 
L 107.397464 86.349612 
L 107.544034 84.689784 
L 107.690605 85.104741 
L 107.837176 85.934655 
L 108.130318 84.274827 
L 108.276889 88.424398 
L 108.716602 82.614998 
L 108.863173 83.029955 
L 109.009743 82.200041 
L 109.156314 80.125256 
L 109.302885 80.125256 
L 109.449456 73.900899 
L 109.596027 73.900899 
L 109.742598 72.656027 
L 109.889169 69.751328 
L 110.03574 73.485942 
L 110.475452 65.601756 
L 110.622023 66.431671 
L 110.768594 66.016714 
L 111.208307 73.900899 
L 111.501449 72.24107 
L 111.64802 71.826113 
L 111.794591 71.826113 
L 111.941162 70.996199 
L 112.234303 70.996199 
L 112.380874 78.880384 
L 112.820587 77.635513 
L 112.967158 78.465427 
L 113.113729 77.220556 
L 113.2603 80.95517 
L 113.406871 80.540213 
L 113.993154 85.104741 
L 114.139725 82.614998 
L 114.286296 85.104741 
L 114.432867 80.540213 
L 114.579438 84.689784 
L 114.726009 83.444913 
L 114.87258 91.329098 
L 115.01915 90.499184 
L 115.165721 91.329098 
L 115.312292 89.254312 
L 115.752005 93.81884 
L 116.191718 84.274827 
L 116.338289 87.179527 
L 116.63143 88.009441 
L 116.924572 88.009441 
L 117.071143 86.764569 
L 117.217714 87.594484 
L 117.364285 85.934655 
L 117.510856 90.499184 
L 117.803998 83.444913 
L 117.950568 85.934655 
L 118.097139 86.349612 
L 118.24371 85.519698 
L 118.390281 90.084226 
L 118.536852 87.179527 
L 118.683423 86.764569 
L 118.829994 88.009441 
L 118.976565 87.594484 
L 119.269707 83.444913 
L 119.416277 83.85987 
L 119.562848 81.785084 
L 119.709419 82.614998 
L 120.295703 78.465427 
L 120.588845 84.689784 
L 120.735416 82.614998 
L 120.881986 83.029955 
L 121.028557 83.029955 
L 121.175128 82.200041 
L 121.321699 78.465427 
L 121.46827 78.880384 
L 121.907983 75.975684 
L 122.054554 76.805599 
L 122.347695 80.540213 
L 122.640837 79.710298 
L 122.933979 75.560727 
L 123.08055 75.560727 
L 123.227121 76.805599 
L 123.520263 68.506456 
L 123.666834 69.751328 
L 123.813404 78.05047 
L 123.959975 76.805599 
L 124.106546 78.465427 
L 124.253117 77.220556 
L 124.69283 80.95517 
L 124.839401 79.295341 
L 124.985972 82.200041 
L 125.132543 82.614998 
L 125.279113 81.785084 
L 125.425684 81.785084 
L 125.572255 82.200041 
L 125.718826 84.274827 
L 126.011968 78.880384 
L 126.158539 80.540213 
L 126.30511 80.540213 
L 126.451681 86.764569 
L 126.598252 84.274827 
L 126.744822 85.519698 
L 126.891393 85.104741 
L 127.037964 85.104741 
L 127.477677 88.839355 
L 127.624248 88.009441 
L 127.770819 92.573969 
L 127.91739 92.573969 
L 128.210532 97.553455 
L 128.503673 95.478669 
L 128.650244 91.329098 
L 128.943386 94.233798 
L 129.089957 93.81884 
L 129.236528 92.159012 
L 129.383099 93.81884 
L 129.52967 92.988926 
L 129.676241 93.403883 
L 130.262524 100.458154 
L 130.409095 96.308583 
L 130.555666 96.308583 
L 130.702237 98.383369 
L 130.848808 98.798326 
L 130.995379 101.288069 
L 131.14195 100.043197 
L 131.435091 102.117983 
L 131.581662 106.267554 
L 132.021375 104.192768 
L 132.167946 108.34234 
L 132.314517 108.757297 
L 132.607659 102.947897 
L 132.9008 107.927383 
L 133.193942 104.607726 
L 133.487084 91.744055 
L 133.633655 93.403883 
L 134.073368 105.022683 
L 134.219938 102.53294 
L 134.366509 102.117983 
L 134.51308 102.117983 
L 134.659651 103.777811 
L 134.806222 103.777811 
L 134.952793 103.362854 
L 135.099364 100.873111 
L 135.245935 101.288069 
L 135.539077 97.553455 
L 135.685647 97.138497 
L 135.832218 94.233798 
L 135.978789 96.308583 
L 136.271931 97.138497 
L 136.418502 95.478669 
L 136.565073 97.553455 
L 136.858215 94.648755 
L 137.151356 91.744055 
L 137.297927 92.573969 
L 137.591069 96.72354 
L 137.73764 96.308583 
L 137.884211 96.72354 
L 138.030782 99.213283 
L 138.763636 95.478669 
L 138.910207 95.063712 
L 139.056778 95.063712 
L 139.203349 97.138497 
L 139.34992 97.553455 
L 139.496491 95.893626 
L 139.643062 97.968412 
L 139.789633 96.72354 
L 139.936204 96.72354 
L 140.082774 100.873111 
L 140.229345 100.043197 
L 140.375916 100.458154 
L 140.522487 100.043197 
L 140.669058 98.383369 
L 140.815629 92.573969 
L 140.9622 92.573969 
L 141.108771 90.914141 
L 141.255342 91.744055 
L 141.401913 89.669269 
L 141.548483 89.669269 
L 142.134767 83.85987 
L 142.281338 83.85987 
L 142.427909 85.934655 
L 142.57448 86.349612 
L 142.721051 86.349612 
L 142.867622 85.934655 
L 143.014192 84.274827 
L 143.453905 89.669269 
L 143.747047 95.063712 
L 144.040189 96.72354 
L 144.479901 94.648755 
L 144.626472 90.914141 
L 144.773043 93.81884 
L 144.919614 91.744055 
L 145.066185 95.478669 
L 145.212756 93.403883 
L 145.359327 96.72354 
L 145.505898 91.329098 
L 145.652469 91.744055 
L 145.79904 91.329098 
L 145.945611 94.233798 
L 146.092181 85.519698 
L 146.385323 90.084226 
L 146.531894 90.084226 
L 146.678465 92.988926 
L 146.825036 92.988926 
L 147.118178 96.72354 
L 147.264749 97.968412 
L 147.41132 103.777811 
L 147.55789 100.458154 
L 147.704461 100.873111 
L 147.997603 98.383369 
L 148.144174 97.968412 
L 148.290745 97.968412 
L 148.437316 97.138497 
L 148.583887 99.62824 
L 148.730458 97.553455 
L 149.023599 100.873111 
L 149.17017 97.138497 
L 149.316741 98.383369 
L 149.463312 94.648755 
L 149.756454 101.703026 
L 149.903025 102.53294 
L 150.342738 110.832082 
L 150.635879 109.172254 
L 150.78245 107.097468 
L 151.075592 110.002168 
L 151.368734 103.362854 
L 151.515305 104.607726 
L 151.808447 101.703026 
L 152.101588 103.777811 
L 152.39473 96.308583 
L 152.541301 99.62824 
L 152.687872 98.798326 
L 152.834443 95.893626 
L 152.981014 95.478669 
L 153.127585 95.893626 
L 153.274156 95.478669 
L 153.420726 88.839355 
L 153.713868 86.764569 
L 154.00701 88.009441 
L 154.153581 86.764569 
L 154.300152 91.744055 
L 154.593294 86.349612 
L 154.739865 86.349612 
L 154.886435 91.744055 
L 155.179577 94.648755 
L 155.326148 94.233798 
L 155.472719 97.553455 
L 155.61929 97.968412 
L 155.912432 91.744055 
L 156.205574 85.934655 
L 156.352144 85.519698 
L 156.498715 84.274827 
L 156.645286 88.009441 
L 156.791857 85.519698 
L 156.938428 85.104741 
L 157.23157 82.614998 
L 157.524712 82.614998 
L 157.671283 84.689784 
L 158.110995 80.95517 
L 158.404137 83.85987 
L 158.550708 82.614998 
L 158.697279 83.029955 
L 158.84385 84.274827 
L 158.990421 84.274827 
L 159.136992 83.444913 
L 159.283562 88.009441 
L 159.430133 88.839355 
L 159.576704 87.594484 
L 159.869846 90.499184 
L 160.162988 89.254312 
L 160.309559 91.744055 
L 160.602701 92.573969 
L 160.749271 91.329098 
L 161.042413 88.009441 
L 161.188984 87.179527 
L 161.335555 90.499184 
L 161.628697 86.764569 
L 161.921839 88.009441 
L 162.214981 88.009441 
L 162.361551 89.254312 
L 162.508122 89.254312 
L 162.654693 87.179527 
L 162.801264 87.594484 
L 162.947835 87.594484 
L 163.534119 75.14577 
L 163.82726 79.710298 
L 163.973831 79.710298 
L 164.120402 80.125256 
L 164.266973 80.125256 
L 164.413544 77.635513 
L 164.706686 83.029955 
L 164.853257 83.85987 
L 164.999828 83.029955 
L 165.146399 83.444913 
L 165.292969 83.029955 
L 165.43954 85.519698 
L 165.586111 82.614998 
L 165.732682 85.104741 
L 165.879253 85.104741 
L 166.025824 85.934655 
L 166.318966 84.274827 
L 166.465537 88.424398 
L 166.612108 86.764569 
L 166.758678 87.179527 
L 166.905249 89.254312 
L 167.05182 87.594484 
L 167.344962 90.084226 
L 167.491533 89.669269 
L 167.638104 86.764569 
L 167.931246 88.009441 
L 168.077817 87.594484 
L 168.517529 90.914141 
L 168.957242 86.349612 
L 169.103813 84.274827 
L 169.396955 90.499184 
L 169.543526 89.669269 
L 169.690096 91.329098 
L 169.836667 90.499184 
L 169.983238 90.499184 
L 170.129809 91.329098 
L 170.716093 97.968412 
L 170.862664 103.362854 
L 171.155805 97.138497 
L 171.302376 97.968412 
L 171.595518 101.703026 
L 171.742089 98.383369 
L 171.88866 99.213283 
L 172.035231 96.72354 
L 172.181802 98.798326 
L 172.474944 98.798326 
L 172.768085 102.53294 
L 173.207798 99.62824 
L 173.354369 102.117983 
L 173.50094 96.72354 
L 173.647511 96.308583 
L 173.794082 95.063712 
L 173.940653 95.063712 
L 174.087223 94.648755 
L 174.233794 96.308583 
L 174.380365 96.308583 
L 174.526936 95.893626 
L 174.820078 93.81884 
L 174.966649 91.744055 
L 175.11322 92.159012 
L 175.259791 91.329098 
L 175.406362 93.81884 
L 175.552932 94.233798 
L 175.699503 94.233798 
L 175.846074 94.648755 
L 175.992645 95.478669 
L 176.139216 89.669269 
L 176.285787 89.669269 
L 176.432358 87.594484 
L 176.578929 87.179527 
L 176.7255 89.254312 
L 176.872071 88.839355 
L 177.165212 90.914141 
L 177.311783 90.914141 
L 177.458354 92.988926 
L 177.751496 92.988926 
L 177.898067 91.329098 
L 178.191209 95.893626 
L 178.33778 95.893626 
L 178.484351 96.308583 
L 178.630921 97.553455 
L 178.777492 97.553455 
L 179.070634 98.383369 
L 179.656918 88.424398 
L 179.803489 88.424398 
L 180.09663 83.029955 
L 180.243201 84.689784 
L 180.536343 82.614998 
L 180.829485 85.519698 
L 180.976056 85.519698 
L 181.269198 88.839355 
L 181.415769 90.499184 
L 181.562339 87.179527 
L 181.70891 87.179527 
L 181.855481 85.519698 
L 182.002052 81.785084 
L 182.148623 81.785084 
L 182.295194 79.710298 
L 182.441765 79.295341 
L 182.881478 85.519698 
L 183.028048 82.614998 
L 183.174619 83.029955 
L 183.32119 82.614998 
L 183.467761 83.444913 
L 183.614332 83.444913 
L 183.760903 83.85987 
L 183.907474 80.95517 
L 184.054045 83.029955 
L 184.200616 87.179527 
L 184.493757 85.519698 
L 184.640328 88.009441 
L 184.786899 87.594484 
L 184.93347 93.81884 
L 185.080041 92.159012 
L 185.226612 92.573969 
L 185.373183 92.573969 
L 185.666325 89.669269 
L 185.812896 92.159012 
L 185.959466 86.349612 
L 186.106037 87.594484 
L 186.54575 85.519698 
L 186.692321 86.764569 
L 186.838892 83.029955 
L 186.985463 83.029955 
L 187.132034 83.85987 
L 187.278605 85.519698 
L 187.718317 80.125256 
L 187.864888 81.370127 
L 188.011459 78.05047 
L 188.15803 78.465427 
L 188.451172 75.560727 
L 188.597743 75.560727 
L 188.890884 81.785084 
L 189.037455 82.614998 
L 189.184026 84.689784 
L 189.330597 78.465427 
L 189.477168 78.465427 
L 189.916881 84.689784 
L 190.063452 83.85987 
L 190.210023 83.444913 
L 190.356593 85.519698 
L 190.503164 84.689784 
L 190.649735 85.519698 
L 190.942877 91.744055 
L 191.089448 91.329098 
L 191.236019 88.839355 
L 191.38259 88.424398 
L 191.529161 86.349612 
L 191.675732 87.179527 
L 191.968873 85.934655 
L 192.408586 73.485942 
L 192.555157 73.485942 
L 192.701728 74.315856 
L 192.848299 72.24107 
L 192.99487 67.676542 
L 193.141441 68.091499 
L 193.434582 68.091499 
L 193.581153 67.261585 
L 193.727724 68.506456 
L 193.874295 66.431671 
L 194.020866 71.826113 
L 194.167437 72.24107 
L 194.314008 73.900899 
L 194.460579 73.900899 
L 194.60715 74.315856 
L 194.753721 71.411156 
L 194.900291 70.996199 
L 195.046862 68.921413 
L 195.193433 69.751328 
L 195.486575 68.091499 
L 195.633146 69.33637 
L 195.779717 67.261585 
L 195.926288 69.33637 
L 196.21943 69.33637 
L 196.366 69.751328 
L 196.512571 69.751328 
L 196.659142 70.166285 
L 196.805713 68.091499 
L 196.952284 70.166285 
L 197.098855 68.921413 
L 197.245426 69.751328 
L 197.391997 78.880384 
L 197.538568 79.710298 
L 197.685139 79.295341 
L 197.97828 82.200041 
L 198.124851 90.084226 
L 198.417993 92.159012 
L 198.711135 88.839355 
L 198.857706 91.329098 
L 199.150848 92.159012 
L 199.297418 90.914141 
L 199.443989 93.81884 
L 199.59056 93.81884 
L 199.737131 92.988926 
L 200.030273 88.839355 
L 200.176844 88.009441 
L 200.323415 91.744055 
L 200.469986 92.159012 
L 200.616557 96.72354 
L 200.909698 97.553455 
L 201.056269 97.138497 
L 201.20284 98.383369 
L 201.495982 98.383369 
L 201.642553 96.308583 
L 201.789124 97.968412 
L 201.935695 92.988926 
L 202.082266 95.893626 
L 202.228836 95.478669 
L 202.375407 94.233798 
L 202.521978 97.968412 
L 202.961691 93.81884 
L 203.108262 94.233798 
L 203.254833 94.233798 
L 203.401404 94.648755 
L 203.547975 94.648755 
L 203.694545 97.138497 
L 203.841116 95.478669 
L 204.134258 98.798326 
L 204.280829 97.553455 
L 204.4274 97.553455 
L 204.573971 95.063712 
L 204.720542 94.648755 
L 204.867113 94.648755 
L 205.013684 94.233798 
L 205.160254 95.893626 
L 205.306825 95.893626 
L 205.453396 96.308583 
L 205.599967 97.138497 
L 205.746538 95.478669 
L 205.893109 95.893626 
L 206.186251 97.968412 
L 206.625963 102.947897 
L 206.919105 103.777811 
L 207.212247 97.968412 
L 207.505389 101.288069 
L 207.798531 99.213283 
L 207.945102 98.798326 
L 208.091672 96.72354 
L 208.238243 97.138497 
L 208.384814 98.798326 
L 208.531385 97.138497 
L 208.677956 97.138497 
L 208.824527 97.968412 
L 208.971098 100.458154 
L 209.117669 99.213283 
L 209.26424 100.043197 
L 209.410811 95.478669 
L 209.557381 96.308583 
L 209.703952 95.893626 
L 209.997094 98.798326 
L 210.143665 98.383369 
L 210.290236 100.043197 
L 210.436807 104.192768 
L 210.583378 102.53294 
L 210.729949 103.777811 
L 210.87652 108.34234 
L 211.02309 107.097468 
L 211.462803 113.736782 
L 211.609374 113.321825 
L 211.755945 115.396611 
L 211.902516 114.981654 
L 212.049087 114.151739 
L 212.342229 117.056439 
L 212.4888 117.471396 
L 212.63537 117.056439 
L 213.368225 122.865839 
L 213.514796 123.280796 
L 213.661367 122.450882 
L 214.101079 117.471396 
L 214.24765 119.546182 
L 214.394221 119.546182 
L 214.540792 118.716268 
L 214.687363 117.056439 
L 214.833934 117.886353 
L 214.980505 117.471396 
L 215.127076 115.811568 
L 215.273647 116.641482 
L 215.420218 116.641482 
L 215.566788 115.396611 
L 215.713359 118.30131 
L 215.85993 117.471396 
L 216.153072 120.791053 
L 216.299643 118.716268 
L 216.739356 121.20601 
L 216.885927 119.131225 
L 217.032497 119.131225 
L 217.179068 118.716268 
L 217.325639 118.716268 
L 217.765352 111.661997 
L 217.911923 112.076954 
L 218.058494 110.832082 
L 218.205065 107.512425 
L 218.498206 111.247039 
L 218.644777 114.151739 
L 218.937919 110.832082 
L 219.08449 111.661997 
L 219.377632 107.097468 
L 219.524203 105.022683 
L 219.817345 109.172254 
L 219.963915 108.34234 
L 220.110486 109.587211 
L 220.257057 109.587211 
L 220.550199 105.43764 
L 220.69677 105.43764 
L 220.843341 107.927383 
L 221.136483 106.267554 
L 221.283054 98.383369 
L 221.429624 101.703026 
L 221.869337 100.458154 
L 222.015908 105.43764 
L 222.162479 104.607726 
L 222.455621 101.703026 
L 222.602192 102.53294 
L 222.748763 102.117983 
L 223.041904 99.213283 
L 223.188475 98.798326 
L 223.335046 103.777811 
L 223.481617 104.192768 
L 223.628188 105.022683 
L 223.774759 104.192768 
L 224.067901 106.682511 
L 224.214472 104.192768 
L 224.361042 104.607726 
L 224.654184 102.53294 
L 224.800755 103.362854 
L 224.947326 103.362854 
L 225.680181 97.968412 
L 226.119893 95.893626 
L 226.266464 96.72354 
L 226.413035 96.72354 
L 226.559606 94.648755 
L 226.852748 100.458154 
L 227.29246 105.022683 
L 227.439031 102.53294 
L 227.585602 102.947897 
L 227.732173 105.022683 
L 227.878744 104.607726 
L 228.025315 107.512425 
L 228.465028 100.043197 
L 228.611599 100.043197 
L 228.75817 103.362854 
L 228.90474 101.703026 
L 229.051311 103.362854 
L 229.197882 102.53294 
L 229.344453 102.947897 
L 229.491024 100.458154 
L 229.637595 100.458154 
L 229.930737 91.744055 
L 230.223879 96.72354 
L 230.370449 94.233798 
L 230.51702 95.063712 
L 230.663591 97.138497 
L 230.810162 97.553455 
L 230.956733 98.798326 
L 231.103304 101.703026 
L 231.249875 99.62824 
L 231.396446 99.213283 
L 231.543017 101.288069 
L 231.982729 95.063712 
L 232.1293 96.308583 
L 232.275871 92.988926 
L 232.569013 94.648755 
L 232.715584 89.254312 
L 232.862155 89.254312 
L 233.008726 90.914141 
L 233.301867 88.839355 
L 233.448438 90.499184 
L 233.595009 88.424398 
L 234.327864 94.233798 
L 234.474435 93.81884 
L 234.621006 97.553455 
L 234.767576 97.553455 
L 234.914147 98.798326 
L 235.060718 96.72354 
L 235.207289 98.798326 
L 235.35386 99.213283 
L 235.500431 105.022683 
L 235.793573 100.043197 
L 235.940144 103.362854 
L 236.233285 104.192768 
L 236.526427 111.247039 
L 236.672998 108.757297 
L 236.819569 108.34234 
L 237.259282 111.247039 
L 237.405853 111.661997 
L 237.698994 107.927383 
L 237.845565 105.43764 
L 237.992136 105.43764 
L 238.285278 103.777811 
L 238.431849 101.288069 
L 238.57842 101.288069 
L 238.724991 102.117983 
L 238.871562 101.703026 
L 239.018133 100.458154 
L 239.164703 101.288069 
L 239.311274 101.288069 
L 239.457845 103.362854 
L 239.604416 103.777811 
L 239.750987 102.117983 
L 239.897558 102.947897 
L 240.044129 102.53294 
L 240.337271 106.267554 
L 240.630412 104.192768 
L 240.776983 108.34234 
L 240.923554 102.947897 
L 241.070125 102.53294 
L 241.363267 102.53294 
L 241.509838 103.362854 
L 241.949551 112.076954 
L 242.242692 113.736782 
L 242.389263 113.321825 
L 242.535834 113.736782 
L 242.682405 111.661997 
L 242.828976 112.491911 
L 243.122118 110.417125 
L 243.268689 111.661997 
L 243.41526 111.247039 
L 243.56183 112.076954 
L 243.708401 110.002168 
L 243.854972 110.417125 
L 244.148114 107.097468 
L 244.294685 107.512425 
L 244.441256 106.267554 
L 244.587827 108.34234 
L 244.734398 105.43764 
L 244.880969 105.022683 
L 245.02754 104.192768 
L 245.17411 104.192768 
L 245.320681 104.607726 
L 245.467252 105.43764 
L 245.613823 105.022683 
L 245.760394 106.267554 
L 245.906965 105.43764 
L 246.053536 102.53294 
L 246.200107 102.947897 
L 246.346678 106.682511 
L 246.493249 105.852597 
L 246.639819 103.777811 
L 246.78639 106.267554 
L 246.932961 102.117983 
L 247.079532 101.288069 
L 247.372674 95.893626 
L 247.812387 102.53294 
L 247.958958 100.043197 
L 248.252099 99.213283 
L 248.691812 96.72354 
L 248.838383 98.383369 
L 248.984954 98.383369 
L 249.278096 101.703026 
L 249.424667 100.873111 
L 249.717808 97.968412 
L 250.157521 93.81884 
L 250.304092 90.914141 
L 250.597234 97.138497 
L 250.743805 97.138497 
L 250.890376 97.968412 
L 251.036946 100.458154 
L 251.183517 97.138497 
L 251.476659 102.53294 
L 251.769801 100.043197 
L 251.916372 103.362854 
L 252.062943 102.947897 
L 252.209514 100.873111 
L 252.356085 100.873111 
L 252.502655 97.553455 
L 252.649226 99.62824 
L 252.795797 96.72354 
L 252.942368 96.72354 
L 253.088939 96.308583 
L 253.675223 92.573969 
L 253.821794 92.988926 
L 253.968364 89.254312 
L 254.114935 88.839355 
L 254.408077 94.648755 
L 254.554648 96.72354 
L 254.701219 97.138497 
L 254.84779 95.478669 
L 254.994361 96.72354 
L 255.140932 99.62824 
L 255.287503 99.62824 
L 255.434073 100.043197 
L 255.727215 97.138497 
L 255.873786 96.72354 
L 256.020357 97.968412 
L 256.166928 97.138497 
L 256.313499 95.063712 
L 256.46007 95.478669 
L 256.753212 95.478669 
L 256.899782 95.063712 
L 257.046353 96.308583 
L 257.192924 95.478669 
L 257.339495 96.72354 
L 257.486066 95.478669 
L 257.632637 99.62824 
L 257.779208 99.213283 
L 257.925779 102.117983 
L 258.07235 102.53294 
L 258.218921 101.288069 
L 258.365491 98.798326 
L 258.512062 99.213283 
L 258.805204 102.117983 
L 258.951775 101.703026 
L 259.244917 103.777811 
L 259.391488 105.022683 
L 259.538059 104.607726 
L 259.68463 101.703026 
L 259.977771 105.852597 
L 260.124342 103.362854 
L 260.270913 102.947897 
L 260.417484 101.288069 
L 260.857197 111.247039 
L 261.003768 109.172254 
L 261.150339 111.247039 
L 261.44348 117.886353 
L 261.590051 118.716268 
L 261.883193 122.035925 
L 262.029764 122.450882 
L 262.322906 119.131225 
L 262.469477 119.546182 
L 262.616048 121.620967 
L 262.762619 120.376096 
L 263.05576 123.280796 
L 263.348902 121.20601 
L 263.495473 115.811568 
L 263.642044 120.376096 
L 263.788615 121.20601 
L 263.935186 116.641482 
L 264.081757 119.131225 
L 264.228328 119.131225 
L 264.374898 116.226525 
L 264.521469 117.056439 
L 264.66804 117.056439 
L 264.814611 118.716268 
L 265.107753 118.716268 
L 265.254324 118.30131 
L 265.400895 119.131225 
L 265.547466 115.811568 
L 265.694037 115.396611 
L 265.840607 117.471396 
L 265.987178 117.056439 
L 266.133749 117.471396 
L 266.28032 112.491911 
L 266.720033 117.471396 
L 267.013175 115.811568 
L 267.159746 117.471396 
L 267.306316 114.566696 
L 267.452887 116.641482 
L 267.746029 113.321825 
L 268.039171 110.832082 
L 268.332313 112.491911 
L 268.478884 112.076954 
L 268.918596 114.566696 
L 269.065167 112.491911 
L 269.358309 113.736782 
L 269.50488 112.076954 
L 269.798022 114.981654 
L 270.091164 118.30131 
L 270.237734 117.056439 
L 270.384305 117.056439 
L 270.530876 119.546182 
L 270.677447 115.811568 
L 270.824018 117.471396 
L 270.970589 117.471396 
L 271.11716 116.641482 
L 271.410302 113.321825 
L 271.556873 112.906868 
L 271.703443 112.906868 
L 271.850014 114.566696 
L 271.996585 112.906868 
L 272.143156 115.396611 
L 272.289727 115.396611 
L 272.72944 122.035925 
L 272.876011 125.355581 
L 273.315723 118.716268 
L 273.462294 114.981654 
L 273.608865 115.396611 
L 273.755436 115.396611 
L 274.048578 121.620967 
L 274.195149 121.20601 
L 274.34172 122.035925 
L 274.488291 121.20601 
L 274.634861 121.620967 
L 274.781432 120.791053 
L 274.928003 119.131225 
L 275.221145 122.450882 
L 275.514287 124.525667 
L 275.660858 123.280796 
L 275.954 116.641482 
L 276.10057 119.131225 
L 276.247141 118.716268 
L 276.540283 121.620967 
L 276.686854 121.20601 
L 276.833425 121.620967 
L 276.979996 120.791053 
L 277.126567 119.131225 
L 277.273138 119.131225 
L 277.419709 119.546182 
L 277.566279 119.131225 
L 277.71285 120.376096 
L 278.005992 117.886353 
L 278.445705 116.641482 
L 278.592276 119.131225 
L 278.738847 119.546182 
L 278.885418 123.280796 
L 279.031989 121.620967 
L 279.178559 124.940624 
L 279.32513 123.695753 
L 279.471701 124.11071 
L 279.618272 122.865839 
L 279.764843 123.280796 
L 279.911414 122.035925 
L 280.057985 122.450882 
L 280.204556 124.11071 
L 280.497698 118.716268 
L 280.644268 119.131225 
L 280.790839 115.396611 
L 281.083981 118.30131 
L 281.230552 116.226525 
L 281.377123 118.716268 
L 281.523694 119.131225 
L 281.816836 117.471396 
L 281.963407 117.886353 
L 282.109977 116.641482 
L 282.403119 116.641482 
L 282.54969 117.471396 
L 282.696261 116.641482 
L 282.989403 120.376096 
L 283.282545 127.01541 
L 283.429116 124.525667 
L 283.575686 124.11071 
L 283.722257 124.11071 
L 283.868828 122.865839 
L 284.015399 123.695753 
L 284.748254 119.961139 
L 284.894825 119.961139 
L 285.041395 120.376096 
L 285.187966 122.865839 
L 285.334537 121.620967 
L 285.481108 121.620967 
L 285.627679 122.450882 
L 285.77425 121.620967 
L 285.920821 121.620967 
L 286.067392 122.035925 
L 286.360534 123.280796 
L 286.507104 122.865839 
L 286.946817 119.546182 
L 287.093388 121.20601 
L 287.239959 125.355581 
L 287.38653 124.11071 
L 287.533101 124.525667 
L 287.679672 124.11071 
L 287.972813 126.185496 
L 288.412526 123.280796 
L 288.559097 123.280796 
L 288.705668 122.450882 
L 288.852239 119.961139 
L 288.99881 120.376096 
L 289.145381 119.961139 
L 289.291952 122.035925 
L 289.438522 122.450882 
L 289.731664 120.376096 
L 289.878235 117.886353 
L 290.171377 121.20601 
L 290.317948 119.546182 
L 290.61109 123.695753 
L 290.757661 123.695753 
L 290.904231 122.865839 
L 291.050802 124.525667 
L 291.197373 123.280796 
L 291.637086 126.185496 
L 291.930228 124.11071 
L 292.076799 123.695753 
L 292.22337 122.450882 
L 292.36994 122.865839 
L 292.516511 122.865839 
L 292.663082 124.11071 
L 292.956224 130.335067 
L 293.102795 130.335067 
L 293.249366 129.92011 
L 293.395937 131.579938 
L 293.542508 136.559424 
L 293.689079 136.974381 
L 293.835649 136.974381 
L 293.98222 139.049166 
L 294.128791 139.049166 
L 294.275362 137.804295 
L 294.421933 134.899595 
L 294.568504 134.484638 
L 294.715075 132.82481 
L 294.861646 133.239767 
L 295.008217 134.484638 
L 295.154788 130.750024 
L 295.301359 130.750024 
L 295.5945 136.144467 
L 295.741071 135.314552 
L 296.034213 139.049166 
L 296.180784 139.879081 
L 296.327355 141.953866 
L 296.473926 141.538909 
L 296.620497 141.953866 
L 296.767068 143.613695 
L 296.913638 142.368823 
L 297.060209 142.78378 
L 297.353351 145.273523 
L 297.499922 147.763266 
L 297.646493 146.933352 
L 297.793064 148.59318 
L 297.939635 147.763266 
L 298.086206 148.178223 
L 298.232777 149.838051 
L 298.525918 146.518395 
L 298.81906 146.518395 
L 298.965631 146.103437 
L 299.405344 139.879081 
L 299.698486 141.953866 
L 299.845056 142.368823 
L 299.991627 143.613695 
L 300.138198 141.538909 
L 300.284769 141.538909 
L 300.43134 143.198738 
L 300.724482 149.838051 
L 300.871053 148.59318 
L 301.164195 149.423094 
L 301.310765 149.423094 
L 301.457336 149.008137 
L 301.750478 149.008137 
L 301.897049 149.423094 
L 302.04362 152.327794 
L 302.190191 151.912837 
L 302.336762 154.40258 
L 302.483333 154.817537 
L 302.776474 156.477365 
L 302.923045 156.477365 
L 303.069616 156.892322 
L 303.216187 158.137194 
L 303.362758 157.722237 
L 303.509329 158.552151 
L 303.6559 156.062408 
L 303.802471 156.477365 
L 303.949042 158.552151 
L 304.095613 156.477365 
L 304.242183 157.30728 
L 304.388754 156.477365 
L 304.535325 157.722237 
L 304.681896 156.892322 
L 304.828467 158.137194 
L 304.975038 156.477365 
L 305.121609 156.477365 
L 305.26818 156.892322 
L 305.707892 153.157708 
L 306.001034 155.232494 
L 306.147605 153.572666 
L 306.294176 148.178223 
L 306.440747 147.348309 
L 306.587318 148.59318 
L 306.733889 151.082923 
L 306.88046 151.082923 
L 307.027031 152.327794 
L 307.173601 151.49788 
L 307.320172 152.327794 
L 307.466743 149.008137 
L 307.759885 151.082923 
L 307.906456 151.082923 
L 308.053027 150.253009 
L 308.49274 154.40258 
L 308.63931 154.40258 
L 309.372165 161.456851 
L 309.518736 162.286765 
L 309.665307 161.871808 
L 309.811878 164.361551 
L 309.958449 163.531636 
L 310.105019 163.946593 
L 310.25159 166.021379 
L 310.544732 164.361551 
L 310.691303 166.021379 
L 310.984445 163.531636 
L 311.570729 167.681208 
L 311.717299 162.701722 
L 311.86387 163.116679 
L 312.450154 159.382065 
L 312.596725 160.211979 
L 312.743296 158.137194 
L 312.889867 161.871808 
L 313.036438 162.701722 
L 313.183008 162.701722 
L 313.329579 163.531636 
L 313.47615 163.116679 
L 313.622721 165.606422 
L 313.769292 166.021379 
L 313.915863 166.021379 
L 314.062434 167.26625 
L 314.209005 167.26625 
L 314.355576 165.191465 
L 314.795288 169.755993 
L 314.941859 168.096165 
L 315.08843 170.17095 
L 315.381572 169.341036 
L 315.528143 170.17095 
L 315.674714 174.320521 
L 315.821285 174.735479 
L 315.967856 177.225221 
L 316.114426 175.98035 
L 316.260997 172.660693 
L 316.407568 173.07565 
L 316.554139 173.07565 
L 316.70071 172.660693 
L 316.993852 174.320521 
L 317.140423 176.810264 
L 317.286994 177.225221 
L 317.433565 175.150436 
L 317.873277 176.395307 
L 318.019848 177.225221 
L 318.166419 176.395307 
L 318.31299 177.225221 
L 318.459561 179.714964 
L 318.606132 179.714964 
L 318.752703 180.129921 
L 319.045844 176.810264 
L 319.192415 177.640178 
L 319.338986 176.810264 
L 319.485557 175.150436 
L 319.632128 180.129921 
L 319.778699 180.129921 
L 319.92527 180.544878 
L 320.218412 180.544878 
L 320.364983 179.714964 
L 320.658124 175.98035 
L 320.951266 175.98035 
L 321.097837 177.640178 
L 321.244408 177.640178 
L 321.684121 178.88505 
L 321.830692 176.395307 
L 322.123833 179.714964 
L 322.416975 178.88505 
L 322.563546 180.129921 
L 322.710117 180.129921 
L 323.003259 182.204707 
L 323.14983 181.78975 
L 323.442971 181.78975 
L 323.882684 178.470093 
L 324.029255 178.470093 
L 324.175826 178.055136 
L 324.615539 180.129921 
L 324.76211 179.714964 
L 324.90868 179.714964 
L 325.055251 180.544878 
L 325.201822 180.129921 
L 325.348393 180.129921 
L 325.641535 181.374792 
L 325.788106 181.78975 
L 326.227819 188.429063 
L 326.374389 187.184192 
L 326.52096 188.014106 
L 326.960673 183.034621 
L 327.400386 180.959835 
L 327.693528 181.78975 
L 327.986669 183.034621 
L 328.279811 183.034621 
L 328.572953 185.524364 
L 328.719524 185.524364 
L 329.012666 190.088892 
L 329.159237 189.673935 
L 329.452378 190.503849 
L 329.892091 190.503849 
L 330.185233 191.74872 
L 330.624946 189.258978 
L 330.771517 189.258978 
L 331.064658 191.333763 
L 331.211229 190.918806 
L 331.3578 191.333763 
L 331.504371 190.918806 
L 331.797513 188.844021 
L 331.944084 191.74872 
L 332.383796 188.014106 
L 332.530367 188.014106 
L 332.676938 188.844021 
L 332.823509 190.918806 
L 332.97008 191.333763 
L 333.116651 192.993592 
L 333.263222 192.993592 
L 333.409793 195.068377 
L 333.556364 195.483334 
L 333.702935 194.65342 
L 333.849505 196.313249 
L 333.996076 195.483334 
L 334.289218 197.55812 
L 334.435789 197.55812 
L 334.728931 199.217949 
L 334.875502 199.632906 
L 335.022073 203.36752 
L 335.168644 202.952563 
L 335.461785 202.952563 
L 335.608356 203.782477 
L 335.754927 207.517091 
L 335.901498 208.347005 
L 336.048069 207.932048 
L 336.19464 208.347005 
L 336.487782 210.421791 
L 336.634353 210.006834 
L 336.780923 210.006834 
L 336.927494 210.421791 
L 337.074065 209.591877 
L 337.220636 210.421791 
L 337.513778 208.761962 
L 337.660349 210.006834 
L 337.953491 209.176919 
L 338.100062 209.176919 
L 338.246632 209.591877 
L 338.393203 209.591877 
L 338.539774 210.006834 
L 338.686345 207.102134 
L 338.832916 207.102134 
L 338.979487 208.347005 
L 339.126058 207.517091 
L 339.272629 208.347005 
L 339.565771 207.517091 
L 339.712341 207.932048 
L 340.005483 207.932048 
L 340.591767 211.251705 
L 340.738338 211.251705 
L 340.884909 210.006834 
L 341.03148 210.421791 
L 341.471192 213.741448 
L 341.764334 214.571362 
L 342.204047 214.571362 
L 342.350618 215.816233 
L 342.79033 215.816233 
L 342.936901 217.061105 
L 343.083472 217.061105 
L 343.230043 219.550847 
L 343.376614 219.550847 
L 343.816327 222.455547 
L 343.962898 223.700419 
L 344.109468 220.380762 
L 344.256039 220.380762 
L 344.40261 222.04059 
L 344.549181 221.625633 
L 344.695752 222.04059 
L 345.135465 225.775204 
L 345.282036 223.700419 
L 345.428607 223.285461 
L 345.868319 224.530333 
L 346.01489 222.870504 
L 346.161461 222.870504 
L 346.308032 223.285461 
L 346.454603 222.04059 
L 346.601174 222.870504 
L 346.747745 222.870504 
L 346.894316 224.94529 
L 347.040887 225.360247 
L 347.187457 226.605118 
L 347.480599 226.605118 
L 347.62717 226.190161 
L 347.773741 226.190161 
L 347.920312 223.700419 
L 348.066883 224.94529 
L 348.213454 224.94529 
L 348.506596 226.190161 
L 348.653166 226.190161 
L 348.799737 227.84999 
L 348.946308 227.84999 
L 349.23945 229.094861 
L 349.386021 228.679904 
L 349.532592 229.094861 
L 349.825734 229.094861 
L 349.972305 229.509818 
L 350.118875 228.264947 
L 350.265446 228.679904 
L 350.412017 229.509818 
L 350.558588 229.509818 
L 350.85173 232.829475 
L 350.998301 233.659389 
L 351.144872 229.509818 
L 351.731155 231.169647 
L 352.170868 234.074346 
L 352.317439 234.489304 
L 352.46401 234.489304 
L 352.610581 236.564089 
L 352.757152 236.564089 
L 353.050293 237.394003 
L 353.196864 237.394003 
L 353.783148 241.543575 
L 353.929719 241.958532 
L 354.07629 236.979046 
L 354.222861 238.638875 
L 354.369432 238.638875 
L 354.662573 242.373489 
L 354.955715 242.373489 
L 355.248857 243.203403 
L 355.395428 243.203403 
L 355.541999 243.61836 
L 355.68857 244.448274 
L 356.128282 244.448274 
L 356.714566 246.108103 
L 357.007708 246.108103 
L 357.154279 246.52306 
L 358.033704 246.52306 
L 358.326846 248.182889 
L 358.473417 248.182889 
L 358.766559 249.842717 
L 358.913129 249.842717 
L 359.0597 250.257674 
L 359.206271 250.257674 
L 359.352842 251.087588 
L 359.499413 249.42776 
L 359.792555 252.33246 
L 360.085697 252.33246 
L 360.232268 250.257674 
L 360.525409 250.257674 
L 360.67198 250.672631 
L 360.965122 248.182889 
L 361.111693 248.597846 
L 361.258264 249.42776 
L 362.137689 249.42776 
L 362.28426 249.842717 
L 362.577402 252.33246 
L 362.870544 253.162374 
L 363.017115 253.162374 
L 363.163686 254.822202 
L 363.310257 253.162374 
L 363.456827 253.162374 
L 363.603398 253.577331 
L 364.336253 253.577331 
L 364.482824 254.822202 
L 364.629395 254.822202 
L 364.775966 253.577331 
L 364.922536 254.822202 
L 365.069107 254.822202 
L 365.362249 256.067074 
L 365.50882 256.482031 
L 365.655391 257.311945 
L 365.948533 260.216645 
L 366.241675 262.706388 
L 366.388245 262.706388 
L 366.681387 264.366216 
L 366.827958 264.366216 
L 367.1211 266.441002 
L 367.267671 267.685873 
L 367.707384 267.685873 
L 367.853954 265.19613 
L 368.000525 265.611087 
L 368.147096 266.855959 
L 368.440238 266.855959 
L 368.73338 268.10083 
L 368.879951 268.515787 
L 369.026522 269.345702 
L 369.173093 269.345702 
L 369.319663 269.760659 
L 369.466234 269.760659 
L 369.612805 271.00553 
L 369.759376 266.855959 
L 369.905947 266.855959 
L 370.052518 267.270916 
L 370.785372 267.270916 
L 370.931943 267.685873 
L 371.225085 269.345702 
L 371.518227 269.345702 
L 371.664798 268.10083 
L 371.95794 268.10083 
L 372.104511 268.930744 
L 372.251081 268.930744 
L 372.397652 268.515787 
L 372.544223 268.515787 
L 372.690794 268.930744 
L 373.277078 268.930744 
L 373.57022 270.590573 
L 373.71679 272.250401 
L 373.863361 270.590573 
L 374.156503 271.420487 
L 374.303074 271.420487 
L 374.596216 272.250401 
L 375.035929 272.250401 
L 375.32907 274.325187 
L 375.475641 274.740144 
L 375.622212 274.740144 
L 375.768783 275.570058 
L 376.208496 275.570058 
L 376.355067 275.985015 
L 376.501638 275.985015 
L 376.648208 275.155101 
L 376.794779 275.570058 
L 377.087921 275.570058 
L 377.234492 276.399973 
L 378.407059 276.399973 
L 378.55363 276.81493 
L 378.993343 276.81493 
L 379.286485 277.644844 
L 379.433056 277.644844 
L 379.579627 274.740144 
L 379.872768 276.399973 
L 380.019339 276.399973 
L 380.16591 277.229887 
L 380.752194 277.229887 
L 380.898765 275.570058 
L 381.045336 276.81493 
L 381.191906 276.81493 
L 381.338477 277.229887 
L 381.631619 277.229887 
L 381.924761 278.059801 
L 382.217903 278.059801 
L 382.364474 278.474758 
L 382.657615 279.71963 
L 382.804186 280.134587 
L 383.097328 280.134587 
L 383.243899 281.379458 
L 383.39047 279.304672 
L 383.830183 279.304672 
L 383.976754 279.71963 
L 384.123324 279.71963 
L 384.269895 275.985015 
L 384.416466 276.81493 
L 384.563037 276.81493 
L 384.709608 277.644844 
L 384.856179 280.134587 
L 385.00275 280.134587 
L 385.149321 280.964501 
L 385.295892 280.964501 
L 385.735604 288.848686 
L 385.882175 289.6786 
L 386.028746 289.6786 
L 386.175317 288.433729 
L 386.321888 288.433729 
L 386.468459 289.263643 
L 386.61503 288.848686 
L 386.761601 288.018772 
L 386.908172 288.018772 
L 387.054742 290.093557 
L 387.201313 288.018772 
L 387.494455 288.018772 
L 387.641026 289.263643 
L 388.080739 289.263643 
L 388.22731 290.093557 
L 388.373881 290.093557 
L 388.667022 291.338429 
L 388.960164 291.338429 
L 389.106735 291.753386 
L 389.253306 291.753386 
L 389.399877 289.263643 
L 389.546448 289.263643 
L 389.693019 289.6786 
L 390.279302 289.6786 
L 390.425873 290.093557 
L 390.572444 290.093557 
L 390.719015 290.508515 
L 391.305299 290.508515 
L 391.451869 290.923472 
L 392.331295 290.923472 
L 392.477866 291.338429 
L 392.771008 291.338429 
L 392.917578 291.753386 
L 393.064149 291.753386 
L 393.21072 292.168343 
L 393.650433 292.168343 
L 393.943575 292.998257 
L 394.090146 292.998257 
L 394.236717 290.508515 
L 394.383288 291.338429 
L 394.969571 291.338429 
L 395.116142 291.753386 
L 395.848997 291.753386 
L 395.995567 292.168343 
L 396.43528 292.168343 
L 396.581851 290.508515 
L 396.728422 291.753386 
L 396.874993 291.753386 
L 397.021564 292.5833 
L 397.168135 294.243129 
L 397.461276 294.243129 
L 397.607847 294.658086 
L 397.754418 294.658086 
L 397.900989 295.073043 
L 398.340702 295.073043 
L 398.487273 295.488 
L 398.487273 295.488 
" clip-path="url(#pbd83e6023c)" style="fill: none; stroke: #1f77b4; stroke-width: 1.5; stroke-linecap: square"/>
   </g>
   <g id="patch_3">
    <path d="M 57.6 307.584 
L 57.6 41.472 
" style="fill: none; stroke: #000000; stroke-width: 0.8; stroke-linejoin: miter; stroke-linecap: square"/>
   </g>
   <g id="patch_4">
    <path d="M 414.72 307.584 
L 414.72 41.472 
" style="fill: none; stroke: #000000; stroke-width: 0.8; stroke-linejoin: miter; stroke-linecap: square"/>
   </g>
   <g id="patch_5">
    <path d="M 57.6 307.584 
L 414.72 307.584 
" style="fill: none; stroke: #000000; stroke-width: 0.8; stroke-linejoin: miter; stroke-linecap: square"/>
   </g>
   <g id="patch_6">
    <path d="M 57.6 41.472 
L 414.72 41.472 
" style="fill: none; stroke: #000000; stroke-width: 0.8; stroke-linejoin: miter; stroke-linecap: square"/>
   </g>
   <g id="text_15">
    <!-- Simulated Anealling Cost -->
    <g transform="translate(160.8 35.472)scale(0.12 -0.12)">
     <defs>
      <path id="DejaVuSans-53" d="M 3425 4513 
L 3425 3897 
Q 3066 4069 2747 4153 
Q 2428 4238 2131 4238 
Q 1616 4238 1336 4038 
Q 1056 3838 1056 3469 
Q 1056 3159 1242 3001 
Q 1428 2844 1947 2747 
L 2328 2669 
Q 3034 2534 3370 2195 
Q 3706 1856 3706 1288 
Q 3706 609 3251 259 
Q 2797 -91 1919 -91 
Q 1588 -91 1214 -16 
Q 841 59 441 206 
L 441 856 
Q 825 641 1194 531 
Q 1563 422 1919 422 
Q 2459 422 2753 634 
Q 3047 847 3047 1241 
Q 3047 1584 2836 1778 
Q 2625 1972 2144 2069 
L 1759 2144 
Q 1053 2284 737 2584 
Q 422 2884 422 3419 
Q 422 4038 858 4394 
Q 1294 4750 2059 4750 
Q 2388 4750 2728 4690 
Q 3069 4631 3425 4513 
z
" transform="scale(0.015625)"/>
      <path id="DejaVuSans-69" d="M 603 3500 
L 1178 3500 
L 1178 0 
L 603 0 
L 603 3500 
z
M 603 4863 
L 1178 4863 
L 1178 4134 
L 603 4134 
L 603 4863 
z
" transform="scale(0.015625)"/>
      <path id="DejaVuSans-65" d="M 3597 1894 
L 3597 1613 
L 953 1613 
Q 991 1019 1311 708 
Q 1631 397 2203 397 
Q 2534 397 2845 478 
Q 3156 559 3463 722 
L 3463 178 
Q 3153 47 2828 -22 
Q 2503 -91 2169 -91 
Q 1331 -91 842 396 
Q 353 884 353 1716 
Q 353 2575 817 3079 
Q 1281 3584 2069 3584 
Q 2775 3584 3186 3129 
Q 3597 2675 3597 1894 
z
M 3022 2063 
Q 3016 2534 2758 2815 
Q 2500 3097 2075 3097 
Q 1594 3097 1305 2825 
Q 1016 2553 972 2059 
L 3022 2063 
z
" transform="scale(0.015625)"/>
      <path id="DejaVuSans-64" d="M 2906 2969 
L 2906 4863 
L 3481 4863 
L 3481 0 
L 2906 0 
L 2906 525 
Q 2725 213 2448 61 
Q 2172 -91 1784 -91 
Q 1150 -91 751 415 
Q 353 922 353 1747 
Q 353 2572 751 3078 
Q 1150 3584 1784 3584 
Q 2172 3584 2448 3432 
Q 2725 3281 2906 2969 
z
M 947 1747 
Q 947 1113 1208 752 
Q 1469 391 1925 391 
Q 2381 391 2643 752 
Q 2906 1113 2906 1747 
Q 2906 2381 2643 2742 
Q 2381 3103 1925 3103 
Q 1469 3103 1208 2742 
Q 947 2381 947 1747 
z
" transform="scale(0.015625)"/>
      <path id="DejaVuSans-41" d="M 2188 4044 
L 1331 1722 
L 3047 1722 
L 2188 4044 
z
M 1831 4666 
L 2547 4666 
L 4325 0 
L 3669 0 
L 3244 1197 
L 1141 1197 
L 716 0 
L 50 0 
L 1831 4666 
z
" transform="scale(0.015625)"/>
      <path id="DejaVuSans-67" d="M 2906 1791 
Q 2906 2416 2648 2759 
Q 2391 3103 1925 3103 
Q 1463 3103 1205 2759 
Q 947 2416 947 1791 
Q 947 1169 1205 825 
Q 1463 481 1925 481 
Q 2391 481 2648 825 
Q 2906 1169 2906 1791 
z
M 3481 434 
Q 3481 -459 3084 -895 
Q 2688 -1331 1869 -1331 
Q 1566 -1331 1297 -1286 
Q 1028 -1241 775 -1147 
L 775 -588 
Q 1028 -725 1275 -790 
Q 1522 -856 1778 -856 
Q 2344 -856 2625 -561 
Q 2906 -266 2906 331 
L 2906 616 
Q 2728 306 2450 153 
Q 2172 0 1784 0 
Q 1141 0 747 490 
Q 353 981 353 1791 
Q 353 2603 747 3093 
Q 1141 3584 1784 3584 
Q 2172 3584 2450 3431 
Q 2728 3278 2906 2969 
L 2906 3500 
L 3481 3500 
L 3481 434 
z
" transform="scale(0.015625)"/>
      <path id="DejaVuSans-43" d="M 4122 4306 
L 4122 3641 
Q 3803 3938 3442 4084 
Q 3081 4231 2675 4231 
Q 1875 4231 1450 3742 
Q 1025 3253 1025 2328 
Q 1025 1406 1450 917 
Q 1875 428 2675 428 
Q 3081 428 3442 575 
Q 3803 722 4122 1019 
L 4122 359 
Q 3791 134 3420 21 
Q 3050 -91 2638 -91 
Q 1578 -91 968 557 
Q 359 1206 359 2328 
Q 359 3453 968 4101 
Q 1578 4750 2638 4750 
Q 3056 4750 3426 4639 
Q 3797 4528 4122 4306 
z
" transform="scale(0.015625)"/>
     </defs>
     <use xlink:href="#DejaVuSans-53"/>
     <use xlink:href="#DejaVuSans-69" x="63.476562"/>
     <use xlink:href="#DejaVuSans-6d" x="91.259766"/>
     <use xlink:href="#DejaVuSans-75" x="188.671875"/>
     <use xlink:href="#DejaVuSans-6c" x="252.050781"/>
     <use xlink:href="#DejaVuSans-61" x="279.833984"/>
     <use xlink:href="#DejaVuSans-74" x="341.113281"/>
     <use xlink:href="#DejaVuSans-65" x="380.322266"/>
     <use xlink:href="#DejaVuSans-64" x="441.845703"/>
     <use xlink:href="#DejaVuSans-20" x="505.322266"/>
     <use xlink:href="#DejaVuSans-41" x="537.109375"/>
     <use xlink:href="#DejaVuSans-6e" x="605.517578"/>
     <use xlink:href="#DejaVuSans-65" x="668.896484"/>
     <use xlink:href="#DejaVuSans-61" x="730.419922"/>
     <use xlink:href="#DejaVuSans-6c" x="791.699219"/>
     <use xlink:href="#DejaVuSans-6c" x="819.482422"/>
     <use xlink:href="#DejaVuSans-69" x="847.265625"/>
     <use xlink:href="#DejaVuSans-6e" x="875.048828"/>
     <use xlink:href="#DejaVuSans-67" x="938.427734"/>
     <use xlink:href="#DejaVuSans-20" x="1001.904297"/>
     <use xlink:href="#DejaVuSans-43" x="1033.691406"/>
     <use xlink:href="#DejaVuSans-6f" x="1103.515625"/>
     <use xlink:href="#DejaVuSans-73" x="1164.697266"/>
     <use xlink:href="#DejaVuSans-74" x="1216.796875"/>
    </g>
   </g>
  </g>
 </g>
 <defs>
  <clipPath id="pbd83e6023c">
   <rect x="57.6" y="41.472" width="357.12" height="266.112"/>
  </clipPath>
 </defs>
</svg>
