<?xml version="1.0" encoding="utf-8" standalone="no"?>
<!DOCTYPE svg PUBLIC "-//W3C//DTD SVG 1.1//EN"
  "http://www.w3.org/Graphics/SVG/1.1/DTD/svg11.dtd">
<svg xmlns:xlink="http://www.w3.org/1999/xlink" width="460.8pt" height="345.6pt" viewBox="0 0 460.8 345.6" xmlns="http://www.w3.org/2000/svg" version="1.1">
 <metadata>
  <rdf:RDF xmlns:dc="http://purl.org/dc/elements/1.1/" xmlns:cc="http://creativecommons.org/ns#" xmlns:rdf="http://www.w3.org/1999/02/22-rdf-syntax-ns#">
   <cc:Work>
    <dc:type rdf:resource="http://purl.org/dc/dcmitype/StillImage"/>
    <dc:date>2022-06-01T08:01:07.701460</dc:date>
    <dc:format>image/svg+xml</dc:format>
    <dc:creator>
     <cc:Agent>
      <dc:title>Matplotlib v3.5.1, https://matplotlib.org/</dc:title>
     </cc:Agent>
    </dc:creator>
   </cc:Work>
  </rdf:RDF>
 </metadata>
 <defs>
  <style type="text/css">*{stroke-linejoin: round; stroke-linecap: butt}</style>
 </defs>
 <g id="figure_1">
  <g id="patch_1">
   <path d="M 0 345.6 
L 460.8 345.6 
L 460.8 0 
L 0 0 
z
" style="fill: #ffffff"/>
  </g>
  <g id="axes_1">
   <g id="patch_2">
    <path d="M 57.6 307.584 
L 414.72 307.584 
L 414.72 41.472 
L 57.6 41.472 
z
" style="fill: #ffffff"/>
   </g>
   <g id="matplotlib.axis_1">
    <g id="xtick_1">
     <g id="line2d_1">
      <defs>
       <path id="m21314b8a39" d="M 0 0 
L 0 3.5 
" style="stroke: #000000; stroke-width: 0.8"/>
      </defs>
      <g>
       <use xlink:href="#m21314b8a39" x="73.832727" y="307.584" style="stroke: #000000; stroke-width: 0.8"/>
      </g>
     </g>
     <g id="text_1">
      <!-- 0 -->
      <g transform="translate(70.651477 322.182437)scale(0.1 -0.1)">
       <defs>
        <path id="DejaVuSans-30" d="M 2034 4250 
Q 1547 4250 1301 3770 
Q 1056 3291 1056 2328 
Q 1056 1369 1301 889 
Q 1547 409 2034 409 
Q 2525 409 2770 889 
Q 3016 1369 3016 2328 
Q 3016 3291 2770 3770 
Q 2525 4250 2034 4250 
z
M 2034 4750 
Q 2819 4750 3233 4129 
Q 3647 3509 3647 2328 
Q 3647 1150 3233 529 
Q 2819 -91 2034 -91 
Q 1250 -91 836 529 
Q 422 1150 422 2328 
Q 422 3509 836 4129 
Q 1250 4750 2034 4750 
z
" transform="scale(0.015625)"/>
       </defs>
       <use xlink:href="#DejaVuSans-30"/>
      </g>
     </g>
    </g>
    <g id="xtick_2">
     <g id="line2d_2">
      <g>
       <use xlink:href="#m21314b8a39" x="148.431658" y="307.584" style="stroke: #000000; stroke-width: 0.8"/>
      </g>
     </g>
     <g id="text_2">
      <!-- 1000 -->
      <g transform="translate(135.706658 322.182437)scale(0.1 -0.1)">
       <defs>
        <path id="DejaVuSans-31" d="M 794 531 
L 1825 531 
L 1825 4091 
L 703 3866 
L 703 4441 
L 1819 4666 
L 2450 4666 
L 2450 531 
L 3481 531 
L 3481 0 
L 794 0 
L 794 531 
z
" transform="scale(0.015625)"/>
       </defs>
       <use xlink:href="#DejaVuSans-31"/>
       <use xlink:href="#DejaVuSans-30" x="63.623047"/>
       <use xlink:href="#DejaVuSans-30" x="127.246094"/>
       <use xlink:href="#DejaVuSans-30" x="190.869141"/>
      </g>
     </g>
    </g>
    <g id="xtick_3">
     <g id="line2d_3">
      <g>
       <use xlink:href="#m21314b8a39" x="223.030588" y="307.584" style="stroke: #000000; stroke-width: 0.8"/>
      </g>
     </g>
     <g id="text_3">
      <!-- 2000 -->
      <g transform="translate(210.305588 322.182437)scale(0.1 -0.1)">
       <defs>
        <path id="DejaVuSans-32" d="M 1228 531 
L 3431 531 
L 3431 0 
L 469 0 
L 469 531 
Q 828 903 1448 1529 
Q 2069 2156 2228 2338 
Q 2531 2678 2651 2914 
Q 2772 3150 2772 3378 
Q 2772 3750 2511 3984 
Q 2250 4219 1831 4219 
Q 1534 4219 1204 4116 
Q 875 4013 500 3803 
L 500 4441 
Q 881 4594 1212 4672 
Q 1544 4750 1819 4750 
Q 2544 4750 2975 4387 
Q 3406 4025 3406 3419 
Q 3406 3131 3298 2873 
Q 3191 2616 2906 2266 
Q 2828 2175 2409 1742 
Q 1991 1309 1228 531 
z
" transform="scale(0.015625)"/>
       </defs>
       <use xlink:href="#DejaVuSans-32"/>
       <use xlink:href="#DejaVuSans-30" x="63.623047"/>
       <use xlink:href="#DejaVuSans-30" x="127.246094"/>
       <use xlink:href="#DejaVuSans-30" x="190.869141"/>
      </g>
     </g>
    </g>
    <g id="xtick_4">
     <g id="line2d_4">
      <g>
       <use xlink:href="#m21314b8a39" x="297.629519" y="307.584" style="stroke: #000000; stroke-width: 0.8"/>
      </g>
     </g>
     <g id="text_4">
      <!-- 3000 -->
      <g transform="translate(284.904519 322.182437)scale(0.1 -0.1)">
       <defs>
        <path id="DejaVuSans-33" d="M 2597 2516 
Q 3050 2419 3304 2112 
Q 3559 1806 3559 1356 
Q 3559 666 3084 287 
Q 2609 -91 1734 -91 
Q 1441 -91 1130 -33 
Q 819 25 488 141 
L 488 750 
Q 750 597 1062 519 
Q 1375 441 1716 441 
Q 2309 441 2620 675 
Q 2931 909 2931 1356 
Q 2931 1769 2642 2001 
Q 2353 2234 1838 2234 
L 1294 2234 
L 1294 2753 
L 1863 2753 
Q 2328 2753 2575 2939 
Q 2822 3125 2822 3475 
Q 2822 3834 2567 4026 
Q 2313 4219 1838 4219 
Q 1578 4219 1281 4162 
Q 984 4106 628 3988 
L 628 4550 
Q 988 4650 1302 4700 
Q 1616 4750 1894 4750 
Q 2613 4750 3031 4423 
Q 3450 4097 3450 3541 
Q 3450 3153 3228 2886 
Q 3006 2619 2597 2516 
z
" transform="scale(0.015625)"/>
       </defs>
       <use xlink:href="#DejaVuSans-33"/>
       <use xlink:href="#DejaVuSans-30" x="63.623047"/>
       <use xlink:href="#DejaVuSans-30" x="127.246094"/>
       <use xlink:href="#DejaVuSans-30" x="190.869141"/>
      </g>
     </g>
    </g>
    <g id="xtick_5">
     <g id="line2d_5">
      <g>
       <use xlink:href="#m21314b8a39" x="372.228449" y="307.584" style="stroke: #000000; stroke-width: 0.8"/>
      </g>
     </g>
     <g id="text_5">
      <!-- 4000 -->
      <g transform="translate(359.503449 322.182437)scale(0.1 -0.1)">
       <defs>
        <path id="DejaVuSans-34" d="M 2419 4116 
L 825 1625 
L 2419 1625 
L 2419 4116 
z
M 2253 4666 
L 3047 4666 
L 3047 1625 
L 3713 1625 
L 3713 1100 
L 3047 1100 
L 3047 0 
L 2419 0 
L 2419 1100 
L 313 1100 
L 313 1709 
L 2253 4666 
z
" transform="scale(0.015625)"/>
       </defs>
       <use xlink:href="#DejaVuSans-34"/>
       <use xlink:href="#DejaVuSans-30" x="63.623047"/>
       <use xlink:href="#DejaVuSans-30" x="127.246094"/>
       <use xlink:href="#DejaVuSans-30" x="190.869141"/>
      </g>
     </g>
    </g>
    <g id="text_6">
     <!-- num swaps -->
     <g transform="translate(207.826406 335.860562)scale(0.1 -0.1)">
      <defs>
       <path id="DejaVuSans-6e" d="M 3513 2113 
L 3513 0 
L 2938 0 
L 2938 2094 
Q 2938 2591 2744 2837 
Q 2550 3084 2163 3084 
Q 1697 3084 1428 2787 
Q 1159 2491 1159 1978 
L 1159 0 
L 581 0 
L 581 3500 
L 1159 3500 
L 1159 2956 
Q 1366 3272 1645 3428 
Q 1925 3584 2291 3584 
Q 2894 3584 3203 3211 
Q 3513 2838 3513 2113 
z
" transform="scale(0.015625)"/>
       <path id="DejaVuSans-75" d="M 544 1381 
L 544 3500 
L 1119 3500 
L 1119 1403 
Q 1119 906 1312 657 
Q 1506 409 1894 409 
Q 2359 409 2629 706 
Q 2900 1003 2900 1516 
L 2900 3500 
L 3475 3500 
L 3475 0 
L 2900 0 
L 2900 538 
Q 2691 219 2414 64 
Q 2138 -91 1772 -91 
Q 1169 -91 856 284 
Q 544 659 544 1381 
z
M 1991 3584 
L 1991 3584 
z
" transform="scale(0.015625)"/>
       <path id="DejaVuSans-6d" d="M 3328 2828 
Q 3544 3216 3844 3400 
Q 4144 3584 4550 3584 
Q 5097 3584 5394 3201 
Q 5691 2819 5691 2113 
L 5691 0 
L 5113 0 
L 5113 2094 
Q 5113 2597 4934 2840 
Q 4756 3084 4391 3084 
Q 3944 3084 3684 2787 
Q 3425 2491 3425 1978 
L 3425 0 
L 2847 0 
L 2847 2094 
Q 2847 2600 2669 2842 
Q 2491 3084 2119 3084 
Q 1678 3084 1418 2786 
Q 1159 2488 1159 1978 
L 1159 0 
L 581 0 
L 581 3500 
L 1159 3500 
L 1159 2956 
Q 1356 3278 1631 3431 
Q 1906 3584 2284 3584 
Q 2666 3584 2933 3390 
Q 3200 3197 3328 2828 
z
" transform="scale(0.015625)"/>
       <path id="DejaVuSans-20" transform="scale(0.015625)"/>
       <path id="DejaVuSans-73" d="M 2834 3397 
L 2834 2853 
Q 2591 2978 2328 3040 
Q 2066 3103 1784 3103 
Q 1356 3103 1142 2972 
Q 928 2841 928 2578 
Q 928 2378 1081 2264 
Q 1234 2150 1697 2047 
L 1894 2003 
Q 2506 1872 2764 1633 
Q 3022 1394 3022 966 
Q 3022 478 2636 193 
Q 2250 -91 1575 -91 
Q 1294 -91 989 -36 
Q 684 19 347 128 
L 347 722 
Q 666 556 975 473 
Q 1284 391 1588 391 
Q 1994 391 2212 530 
Q 2431 669 2431 922 
Q 2431 1156 2273 1281 
Q 2116 1406 1581 1522 
L 1381 1569 
Q 847 1681 609 1914 
Q 372 2147 372 2553 
Q 372 3047 722 3315 
Q 1072 3584 1716 3584 
Q 2034 3584 2315 3537 
Q 2597 3491 2834 3397 
z
" transform="scale(0.015625)"/>
       <path id="DejaVuSans-77" d="M 269 3500 
L 844 3500 
L 1563 769 
L 2278 3500 
L 2956 3500 
L 3675 769 
L 4391 3500 
L 4966 3500 
L 4050 0 
L 3372 0 
L 2619 2869 
L 1863 0 
L 1184 0 
L 269 3500 
z
" transform="scale(0.015625)"/>
       <path id="DejaVuSans-61" d="M 2194 1759 
Q 1497 1759 1228 1600 
Q 959 1441 959 1056 
Q 959 750 1161 570 
Q 1363 391 1709 391 
Q 2188 391 2477 730 
Q 2766 1069 2766 1631 
L 2766 1759 
L 2194 1759 
z
M 3341 1997 
L 3341 0 
L 2766 0 
L 2766 531 
Q 2569 213 2275 61 
Q 1981 -91 1556 -91 
Q 1019 -91 701 211 
Q 384 513 384 1019 
Q 384 1609 779 1909 
Q 1175 2209 1959 2209 
L 2766 2209 
L 2766 2266 
Q 2766 2663 2505 2880 
Q 2244 3097 1772 3097 
Q 1472 3097 1187 3025 
Q 903 2953 641 2809 
L 641 3341 
Q 956 3463 1253 3523 
Q 1550 3584 1831 3584 
Q 2591 3584 2966 3190 
Q 3341 2797 3341 1997 
z
" transform="scale(0.015625)"/>
       <path id="DejaVuSans-70" d="M 1159 525 
L 1159 -1331 
L 581 -1331 
L 581 3500 
L 1159 3500 
L 1159 2969 
Q 1341 3281 1617 3432 
Q 1894 3584 2278 3584 
Q 2916 3584 3314 3078 
Q 3713 2572 3713 1747 
Q 3713 922 3314 415 
Q 2916 -91 2278 -91 
Q 1894 -91 1617 61 
Q 1341 213 1159 525 
z
M 3116 1747 
Q 3116 2381 2855 2742 
Q 2594 3103 2138 3103 
Q 1681 3103 1420 2742 
Q 1159 2381 1159 1747 
Q 1159 1113 1420 752 
Q 1681 391 2138 391 
Q 2594 391 2855 752 
Q 3116 1113 3116 1747 
z
" transform="scale(0.015625)"/>
      </defs>
      <use xlink:href="#DejaVuSans-6e"/>
      <use xlink:href="#DejaVuSans-75" x="63.378906"/>
      <use xlink:href="#DejaVuSans-6d" x="126.757812"/>
      <use xlink:href="#DejaVuSans-20" x="224.169922"/>
      <use xlink:href="#DejaVuSans-73" x="255.957031"/>
      <use xlink:href="#DejaVuSans-77" x="308.056641"/>
      <use xlink:href="#DejaVuSans-61" x="389.84375"/>
      <use xlink:href="#DejaVuSans-70" x="451.123047"/>
      <use xlink:href="#DejaVuSans-73" x="514.599609"/>
     </g>
    </g>
   </g>
   <g id="matplotlib.axis_2">
    <g id="ytick_1">
     <g id="line2d_6">
      <defs>
       <path id="m61f5c7215f" d="M 0 0 
L -3.5 0 
" style="stroke: #000000; stroke-width: 0.8"/>
      </defs>
      <g>
       <use xlink:href="#m61f5c7215f" x="57.6" y="287.576675" style="stroke: #000000; stroke-width: 0.8"/>
      </g>
     </g>
     <g id="text_7">
      <!-- 900 -->
      <g transform="translate(31.5125 291.375893)scale(0.1 -0.1)">
       <defs>
        <path id="DejaVuSans-39" d="M 703 97 
L 703 672 
Q 941 559 1184 500 
Q 1428 441 1663 441 
Q 2288 441 2617 861 
Q 2947 1281 2994 2138 
Q 2813 1869 2534 1725 
Q 2256 1581 1919 1581 
Q 1219 1581 811 2004 
Q 403 2428 403 3163 
Q 403 3881 828 4315 
Q 1253 4750 1959 4750 
Q 2769 4750 3195 4129 
Q 3622 3509 3622 2328 
Q 3622 1225 3098 567 
Q 2575 -91 1691 -91 
Q 1453 -91 1209 -44 
Q 966 3 703 97 
z
M 1959 2075 
Q 2384 2075 2632 2365 
Q 2881 2656 2881 3163 
Q 2881 3666 2632 3958 
Q 2384 4250 1959 4250 
Q 1534 4250 1286 3958 
Q 1038 3666 1038 3163 
Q 1038 2656 1286 2365 
Q 1534 2075 1959 2075 
z
" transform="scale(0.015625)"/>
       </defs>
       <use xlink:href="#DejaVuSans-39"/>
       <use xlink:href="#DejaVuSans-30" x="63.623047"/>
       <use xlink:href="#DejaVuSans-30" x="127.246094"/>
      </g>
     </g>
    </g>
    <g id="ytick_2">
     <g id="line2d_7">
      <g>
       <use xlink:href="#m61f5c7215f" x="57.6" y="245.93812" style="stroke: #000000; stroke-width: 0.8"/>
      </g>
     </g>
     <g id="text_8">
      <!-- 1000 -->
      <g transform="translate(25.15 249.737339)scale(0.1 -0.1)">
       <use xlink:href="#DejaVuSans-31"/>
       <use xlink:href="#DejaVuSans-30" x="63.623047"/>
       <use xlink:href="#DejaVuSans-30" x="127.246094"/>
       <use xlink:href="#DejaVuSans-30" x="190.869141"/>
      </g>
     </g>
    </g>
    <g id="ytick_3">
     <g id="line2d_8">
      <g>
       <use xlink:href="#m61f5c7215f" x="57.6" y="204.299566" style="stroke: #000000; stroke-width: 0.8"/>
      </g>
     </g>
     <g id="text_9">
      <!-- 1100 -->
      <g transform="translate(25.15 208.098785)scale(0.1 -0.1)">
       <use xlink:href="#DejaVuSans-31"/>
       <use xlink:href="#DejaVuSans-31" x="63.623047"/>
       <use xlink:href="#DejaVuSans-30" x="127.246094"/>
       <use xlink:href="#DejaVuSans-30" x="190.869141"/>
      </g>
     </g>
    </g>
    <g id="ytick_4">
     <g id="line2d_9">
      <g>
       <use xlink:href="#m61f5c7215f" x="57.6" y="162.661012" style="stroke: #000000; stroke-width: 0.8"/>
      </g>
     </g>
     <g id="text_10">
      <!-- 1200 -->
      <g transform="translate(25.15 166.460231)scale(0.1 -0.1)">
       <use xlink:href="#DejaVuSans-31"/>
       <use xlink:href="#DejaVuSans-32" x="63.623047"/>
       <use xlink:href="#DejaVuSans-30" x="127.246094"/>
       <use xlink:href="#DejaVuSans-30" x="190.869141"/>
      </g>
     </g>
    </g>
    <g id="ytick_5">
     <g id="line2d_10">
      <g>
       <use xlink:href="#m61f5c7215f" x="57.6" y="121.022458" style="stroke: #000000; stroke-width: 0.8"/>
      </g>
     </g>
     <g id="text_11">
      <!-- 1300 -->
      <g transform="translate(25.15 124.821677)scale(0.1 -0.1)">
       <use xlink:href="#DejaVuSans-31"/>
       <use xlink:href="#DejaVuSans-33" x="63.623047"/>
       <use xlink:href="#DejaVuSans-30" x="127.246094"/>
       <use xlink:href="#DejaVuSans-30" x="190.869141"/>
      </g>
     </g>
    </g>
    <g id="ytick_6">
     <g id="line2d_11">
      <g>
       <use xlink:href="#m61f5c7215f" x="57.6" y="79.383904" style="stroke: #000000; stroke-width: 0.8"/>
      </g>
     </g>
     <g id="text_12">
      <!-- 1400 -->
      <g transform="translate(25.15 83.183122)scale(0.1 -0.1)">
       <use xlink:href="#DejaVuSans-31"/>
       <use xlink:href="#DejaVuSans-34" x="63.623047"/>
       <use xlink:href="#DejaVuSans-30" x="127.246094"/>
       <use xlink:href="#DejaVuSans-30" x="190.869141"/>
      </g>
     </g>
    </g>
    <g id="text_13">
     <!-- total cost -->
     <g transform="translate(19.070312 197.923313)rotate(-90)scale(0.1 -0.1)">
      <defs>
       <path id="DejaVuSans-74" d="M 1172 4494 
L 1172 3500 
L 2356 3500 
L 2356 3053 
L 1172 3053 
L 1172 1153 
Q 1172 725 1289 603 
Q 1406 481 1766 481 
L 2356 481 
L 2356 0 
L 1766 0 
Q 1100 0 847 248 
Q 594 497 594 1153 
L 594 3053 
L 172 3053 
L 172 3500 
L 594 3500 
L 594 4494 
L 1172 4494 
z
" transform="scale(0.015625)"/>
       <path id="DejaVuSans-6f" d="M 1959 3097 
Q 1497 3097 1228 2736 
Q 959 2375 959 1747 
Q 959 1119 1226 758 
Q 1494 397 1959 397 
Q 2419 397 2687 759 
Q 2956 1122 2956 1747 
Q 2956 2369 2687 2733 
Q 2419 3097 1959 3097 
z
M 1959 3584 
Q 2709 3584 3137 3096 
Q 3566 2609 3566 1747 
Q 3566 888 3137 398 
Q 2709 -91 1959 -91 
Q 1206 -91 779 398 
Q 353 888 353 1747 
Q 353 2609 779 3096 
Q 1206 3584 1959 3584 
z
" transform="scale(0.015625)"/>
       <path id="DejaVuSans-6c" d="M 603 4863 
L 1178 4863 
L 1178 0 
L 603 0 
L 603 4863 
z
" transform="scale(0.015625)"/>
       <path id="DejaVuSans-63" d="M 3122 3366 
L 3122 2828 
Q 2878 2963 2633 3030 
Q 2388 3097 2138 3097 
Q 1578 3097 1268 2742 
Q 959 2388 959 1747 
Q 959 1106 1268 751 
Q 1578 397 2138 397 
Q 2388 397 2633 464 
Q 2878 531 3122 666 
L 3122 134 
Q 2881 22 2623 -34 
Q 2366 -91 2075 -91 
Q 1284 -91 818 406 
Q 353 903 353 1747 
Q 353 2603 823 3093 
Q 1294 3584 2113 3584 
Q 2378 3584 2631 3529 
Q 2884 3475 3122 3366 
z
" transform="scale(0.015625)"/>
      </defs>
      <use xlink:href="#DejaVuSans-74"/>
      <use xlink:href="#DejaVuSans-6f" x="39.208984"/>
      <use xlink:href="#DejaVuSans-74" x="100.390625"/>
      <use xlink:href="#DejaVuSans-61" x="139.599609"/>
      <use xlink:href="#DejaVuSans-6c" x="200.878906"/>
      <use xlink:href="#DejaVuSans-20" x="228.662109"/>
      <use xlink:href="#DejaVuSans-63" x="260.449219"/>
      <use xlink:href="#DejaVuSans-6f" x="315.429688"/>
      <use xlink:href="#DejaVuSans-73" x="376.611328"/>
      <use xlink:href="#DejaVuSans-74" x="428.710938"/>
     </g>
    </g>
   </g>
   <g id="line2d_12">
    <path d="M 73.832727 77.718361 
L 73.981925 74.387277 
L 74.131123 73.970892 
L 74.429519 79.383904 
L 74.578717 78.134747 
L 74.727914 83.547759 
L 74.877112 81.882217 
L 75.175508 76.052819 
L 75.324706 76.052819 
L 75.623102 73.554506 
L 75.921497 67.308723 
L 76.070695 68.974265 
L 76.369091 67.308723 
L 76.518289 66.475952 
L 76.667487 64.81041 
L 76.816684 64.394024 
L 76.965882 65.643181 
L 77.264278 63.144867 
L 77.413476 64.394024 
L 77.711872 72.721735 
L 77.86107 72.305349 
L 78.010267 73.13812 
L 78.159465 74.803663 
L 78.457861 69.390651 
L 78.607059 70.223422 
L 78.905455 73.554506 
L 79.054652 72.721735 
L 79.20385 70.223422 
L 79.502246 78.551133 
L 79.651444 78.967518 
L 79.800642 76.469205 
L 79.94984 77.301976 
L 80.099037 76.469205 
L 80.248235 73.13812 
L 80.397433 72.305349 
L 80.546631 72.305349 
L 80.695829 74.387277 
L 80.845027 72.721735 
L 80.994225 72.305349 
L 81.143422 72.305349 
L 81.441818 68.55788 
L 81.591016 68.55788 
L 81.740214 72.721735 
L 81.889412 72.305349 
L 82.187807 66.059566 
L 82.337005 67.308723 
L 82.486203 67.308723 
L 82.635401 68.55788 
L 82.784599 68.55788 
L 82.933797 63.561253 
L 83.232193 63.561253 
L 83.38139 63.144867 
L 83.530588 63.144867 
L 83.828984 56.066313 
L 83.978182 57.31547 
L 84.12738 56.899084 
L 84.276578 58.981012 
L 84.574973 55.649928 
L 84.724171 54.817157 
L 85.022567 59.813783 
L 85.171765 59.813783 
L 85.320963 59.397398 
L 85.47016 60.230169 
L 85.768556 56.899084 
L 85.917754 53.984386 
L 86.066952 54.817157 
L 86.21615 54.817157 
L 86.365348 55.649928 
L 86.514545 57.731855 
L 86.663743 55.233542 
L 86.962139 65.643181 
L 87.111337 64.81041 
L 87.260535 65.643181 
L 87.409733 62.312096 
L 87.708128 65.643181 
L 88.006524 73.13812 
L 88.155722 73.13812 
L 88.30492 67.308723 
L 88.454118 68.141494 
L 88.752513 61.895711 
L 88.901711 61.06294 
L 89.050909 63.561253 
L 89.200107 62.728482 
L 89.349305 63.561253 
L 89.647701 66.059566 
L 89.796898 64.81041 
L 89.946096 58.981012 
L 90.095294 58.981012 
L 90.542888 54.817157 
L 90.692086 56.066313 
L 90.841283 56.066313 
L 90.990481 59.397398 
L 91.139679 58.564627 
L 91.288877 61.895711 
L 91.438075 60.230169 
L 91.587273 56.899084 
L 91.736471 58.564627 
L 92.184064 56.482699 
L 92.333262 58.564627 
L 92.631658 56.899084 
L 92.780856 59.397398 
L 92.930053 58.148241 
L 93.079251 58.148241 
L 93.228449 57.731855 
L 93.377647 56.899084 
L 93.526845 61.479325 
L 93.676043 61.895711 
L 93.825241 65.643181 
L 93.974439 60.230169 
L 94.123636 59.813783 
L 94.272834 58.981012 
L 94.422032 59.397398 
L 94.57123 60.230169 
L 94.720428 61.895711 
L 94.869626 62.312096 
L 95.018824 58.564627 
L 95.168021 60.646554 
L 95.317219 60.230169 
L 95.466417 59.397398 
L 95.615615 57.731855 
L 95.764813 57.31547 
L 96.063209 55.649928 
L 96.212406 53.568 
L 96.66 56.482699 
L 96.809198 55.649928 
L 97.107594 61.895711 
L 97.256791 62.312096 
L 97.405989 60.646554 
L 97.555187 60.646554 
L 97.704385 62.312096 
L 97.853583 61.479325 
L 98.151979 66.059566 
L 98.301176 65.643181 
L 98.599572 60.646554 
L 98.74877 58.981012 
L 98.897968 55.649928 
L 99.196364 54.400771 
L 99.345561 55.233542 
L 99.643957 61.895711 
L 99.942353 60.230169 
L 100.091551 60.230169 
L 100.240749 59.813783 
L 100.539144 57.731855 
L 100.688342 60.646554 
L 100.83754 59.397398 
L 100.986738 61.06294 
L 101.135936 64.394024 
L 101.285134 63.144867 
L 101.434332 60.646554 
L 101.583529 60.646554 
L 101.732727 62.312096 
L 101.881925 62.728482 
L 102.180321 59.397398 
L 102.329519 57.31547 
L 102.627914 60.230169 
L 102.777112 59.813783 
L 102.92631 61.06294 
L 103.075508 60.646554 
L 103.224706 63.561253 
L 103.373904 63.144867 
L 103.672299 64.81041 
L 103.821497 64.81041 
L 103.970695 64.394024 
L 104.119893 66.475952 
L 104.418289 66.475952 
L 105.01508 74.803663 
L 105.164278 72.721735 
L 105.313476 72.305349 
L 105.611872 70.223422 
L 105.76107 70.639807 
L 105.910267 68.141494 
L 106.059465 69.807036 
L 106.357861 68.55788 
L 106.656257 69.807036 
L 106.805455 68.141494 
L 107.10385 73.554506 
L 107.402246 77.718361 
L 107.551444 78.967518 
L 107.700642 77.301976 
L 107.999037 80.216675 
L 108.148235 81.465831 
L 108.297433 80.216675 
L 108.446631 81.049446 
L 108.745027 88.128 
L 108.894225 81.465831 
L 109.043422 82.298602 
L 109.19262 79.800289 
L 109.341818 81.465831 
L 109.491016 81.882217 
L 109.640214 83.964145 
L 109.789412 81.465831 
L 109.93861 76.88559 
L 110.087807 76.052819 
L 110.237005 76.052819 
L 110.535401 71.888964 
L 110.684599 71.888964 
L 110.833797 73.13812 
L 110.982995 71.472578 
L 111.132193 73.970892 
L 111.28139 73.13812 
L 111.430588 76.469205 
L 111.579786 75.220048 
L 111.878182 81.882217 
L 112.02738 81.465831 
L 112.176578 81.465831 
L 112.325775 82.714988 
L 112.624171 78.551133 
L 112.773369 78.134747 
L 112.922567 76.469205 
L 113.071765 76.88559 
L 113.220963 77.718361 
L 113.37016 77.718361 
L 113.519358 79.383904 
L 113.668556 78.134747 
L 113.966952 73.13812 
L 114.265348 76.469205 
L 114.414545 76.052819 
L 114.563743 76.88559 
L 114.712941 71.888964 
L 114.862139 72.305349 
L 115.011337 76.469205 
L 115.160535 75.220048 
L 115.309733 77.718361 
L 115.45893 76.469205 
L 115.608128 76.88559 
L 115.757326 74.803663 
L 116.055722 76.469205 
L 116.20492 78.551133 
L 116.354118 78.551133 
L 116.503316 79.383904 
L 116.652513 81.049446 
L 117.100107 71.888964 
L 117.249305 72.305349 
L 117.398503 67.725108 
L 117.547701 69.807036 
L 117.995294 64.81041 
L 118.144492 64.394024 
L 118.442888 71.056193 
L 118.592086 70.223422 
L 118.741283 71.056193 
L 118.890481 69.390651 
L 119.039679 70.223422 
L 119.188877 69.807036 
L 119.338075 71.888964 
L 119.487273 69.390651 
L 119.636471 69.390651 
L 119.934866 71.472578 
L 120.084064 69.807036 
L 120.233262 69.390651 
L 120.38246 68.55788 
L 120.680856 73.13812 
L 120.830053 68.55788 
L 120.979251 67.725108 
L 121.128449 68.141494 
L 121.277647 68.141494 
L 121.426845 68.974265 
L 121.576043 67.725108 
L 121.874439 63.144867 
L 122.023636 63.144867 
L 122.172834 61.895711 
L 122.47123 63.561253 
L 122.620428 61.895711 
L 122.769626 62.312096 
L 123.068021 66.475952 
L 123.217219 66.059566 
L 123.366417 66.475952 
L 123.515615 73.554506 
L 123.664813 72.305349 
L 123.814011 76.052819 
L 123.963209 75.220048 
L 124.410802 81.049446 
L 124.709198 82.714988 
L 125.007594 78.134747 
L 125.156791 80.216675 
L 125.305989 73.970892 
L 125.455187 72.721735 
L 125.604385 75.220048 
L 125.753583 67.725108 
L 126.051979 71.472578 
L 126.350374 73.554506 
L 126.499572 69.807036 
L 126.64877 69.807036 
L 126.797968 69.390651 
L 126.947166 65.643181 
L 127.394759 73.970892 
L 127.543957 73.554506 
L 128.140749 77.718361 
L 128.289947 78.134747 
L 128.439144 79.383904 
L 128.588342 74.387277 
L 128.73754 79.800289 
L 129.035936 78.134747 
L 129.185134 78.551133 
L 129.334332 76.88559 
L 129.483529 70.223422 
L 129.632727 71.888964 
L 129.931123 68.141494 
L 130.080321 68.55788 
L 130.378717 64.81041 
L 130.677112 66.892337 
L 130.82631 68.974265 
L 130.975508 68.141494 
L 131.273904 74.803663 
L 131.423102 76.052819 
L 131.572299 75.220048 
L 131.721497 72.721735 
L 131.870695 72.721735 
L 132.019893 75.220048 
L 132.169091 74.803663 
L 132.467487 69.390651 
L 132.616684 71.888964 
L 132.765882 67.725108 
L 132.91508 67.308723 
L 133.213476 71.472578 
L 133.362674 67.308723 
L 133.511872 73.13812 
L 133.66107 74.387277 
L 133.810267 71.472578 
L 133.959465 71.056193 
L 134.257861 73.13812 
L 135.00385 66.892337 
L 135.153048 66.892337 
L 135.302246 65.643181 
L 135.451444 65.643181 
L 135.600642 66.892337 
L 135.74984 66.475952 
L 135.899037 66.475952 
L 136.197433 70.639807 
L 136.346631 70.223422 
L 136.495829 72.305349 
L 136.645027 72.721735 
L 136.794225 72.305349 
L 136.943422 70.223422 
L 137.09262 71.888964 
L 137.391016 67.725108 
L 137.540214 66.892337 
L 137.689412 69.807036 
L 137.83861 69.390651 
L 137.987807 71.056193 
L 138.882995 63.561253 
L 139.032193 63.561253 
L 139.18139 62.312096 
L 139.479786 66.892337 
L 139.628984 66.475952 
L 139.778182 70.223422 
L 139.92738 70.223422 
L 140.225775 71.472578 
L 140.374973 70.223422 
L 140.524171 70.223422 
L 140.822567 71.056193 
L 140.971765 70.639807 
L 141.120963 69.390651 
L 141.419358 72.305349 
L 141.568556 71.472578 
L 141.717754 68.55788 
L 142.01615 71.472578 
L 142.165348 71.056193 
L 142.314545 72.721735 
L 142.463743 73.13812 
L 142.612941 71.056193 
L 142.762139 70.639807 
L 142.911337 66.059566 
L 143.060535 66.475952 
L 143.209733 65.643181 
L 143.35893 66.059566 
L 143.657326 70.639807 
L 143.806524 69.807036 
L 143.955722 73.554506 
L 144.403316 67.725108 
L 144.552513 66.475952 
L 144.701711 66.475952 
L 144.850909 63.977639 
L 145.298503 62.728482 
L 145.895294 64.394024 
L 146.044492 66.892337 
L 146.19369 74.387277 
L 146.492086 75.220048 
L 146.641283 72.721735 
L 146.790481 72.305349 
L 146.939679 73.13812 
L 147.088877 76.469205 
L 147.238075 75.220048 
L 147.387273 75.220048 
L 147.536471 74.387277 
L 147.685668 79.383904 
L 147.834866 80.216675 
L 147.984064 80.216675 
L 148.133262 78.967518 
L 148.28246 79.383904 
L 148.431658 80.216675 
L 148.730053 77.301976 
L 148.879251 77.718361 
L 149.028449 78.967518 
L 149.177647 78.134747 
L 149.476043 81.882217 
L 149.625241 81.882217 
L 150.222032 89.377157 
L 150.520428 83.547759 
L 150.669626 83.547759 
L 150.818824 85.213301 
L 150.968021 85.213301 
L 151.117219 86.878843 
L 151.266417 85.213301 
L 151.415615 88.544386 
L 151.714011 86.462458 
L 152.012406 85.629687 
L 152.161604 86.878843 
L 152.310802 85.629687 
L 152.46 82.714988 
L 152.609198 82.714988 
L 153.056791 77.718361 
L 153.355187 80.63306 
L 153.504385 80.216675 
L 153.802781 83.964145 
L 154.101176 81.465831 
L 154.250374 82.298602 
L 154.54877 80.216675 
L 154.697968 77.301976 
L 154.847166 80.216675 
L 154.996364 80.63306 
L 155.145561 81.882217 
L 155.294759 81.049446 
L 155.443957 81.049446 
L 155.593155 80.63306 
L 155.742353 81.465831 
L 155.891551 78.551133 
L 156.040749 81.049446 
L 156.189947 80.63306 
L 156.339144 81.049446 
L 156.488342 80.216675 
L 156.63754 83.964145 
L 156.786738 83.964145 
L 157.085134 81.049446 
L 157.234332 83.964145 
L 157.383529 83.547759 
L 157.532727 80.63306 
L 157.681925 73.554506 
L 157.831123 76.88559 
L 158.129519 75.220048 
L 158.278717 77.301976 
L 158.427914 76.469205 
L 158.577112 77.718361 
L 158.875508 74.387277 
L 159.024706 73.554506 
L 159.173904 73.554506 
L 159.621497 76.88559 
L 159.770695 74.803663 
L 159.919893 76.052819 
L 160.218289 73.970892 
L 160.367487 74.803663 
L 160.516684 74.803663 
L 160.81508 71.888964 
L 160.964278 75.636434 
L 161.113476 71.888964 
L 161.262674 71.888964 
L 161.411872 71.056193 
L 161.56107 74.803663 
L 161.710267 73.970892 
L 161.859465 74.803663 
L 162.008663 73.970892 
L 162.157861 76.052819 
L 162.307059 73.13812 
L 162.456257 72.721735 
L 162.605455 72.721735 
L 162.754652 75.220048 
L 162.90385 75.220048 
L 163.202246 69.390651 
L 163.351444 71.056193 
L 163.64984 68.55788 
L 163.799037 61.479325 
L 163.948235 62.312096 
L 164.246631 66.059566 
L 164.395829 66.059566 
L 164.545027 66.475952 
L 164.694225 65.226795 
L 164.843422 65.643181 
L 164.99262 63.144867 
L 165.141818 63.977639 
L 165.73861 70.223422 
L 165.887807 73.554506 
L 166.037005 73.13812 
L 166.633797 77.301976 
L 166.782995 76.052819 
L 166.932193 76.052819 
L 167.08139 75.636434 
L 167.528984 78.967518 
L 167.678182 78.551133 
L 167.82738 79.383904 
L 167.976578 78.134747 
L 168.125775 81.882217 
L 168.424171 80.216675 
L 168.573369 78.134747 
L 169.020963 79.383904 
L 169.17016 81.465831 
L 169.468556 82.298602 
L 169.617754 84.38053 
L 170.065348 85.629687 
L 170.214545 85.213301 
L 170.662139 83.131373 
L 170.811337 87.295229 
L 170.960535 86.462458 
L 171.109733 84.38053 
L 171.25893 86.046072 
L 171.408128 85.629687 
L 171.557326 82.298602 
L 172.00492 91.042699 
L 172.303316 91.87547 
L 172.452513 95.62294 
L 172.750909 97.704867 
L 172.900107 96.872096 
L 173.198503 97.704867 
L 173.347701 99.786795 
L 173.496898 98.121253 
L 173.646096 97.704867 
L 173.944492 96.039325 
L 174.09369 95.206554 
L 174.541283 95.206554 
L 174.690481 93.124627 
L 174.839679 95.206554 
L 174.988877 93.541012 
L 175.138075 93.541012 
L 175.287273 87.711614 
L 175.436471 87.711614 
L 175.585668 90.209928 
L 175.734866 90.626313 
L 175.884064 91.459084 
L 176.033262 88.544386 
L 176.18246 88.544386 
L 176.331658 86.046072 
L 176.480856 88.960771 
L 176.779251 86.046072 
L 176.928449 88.128 
L 177.077647 88.128 
L 177.226845 91.042699 
L 177.376043 87.711614 
L 177.525241 88.960771 
L 177.823636 83.131373 
L 178.122032 86.046072 
L 178.27123 86.462458 
L 178.420428 86.046072 
L 178.569626 87.711614 
L 178.718824 84.38053 
L 178.868021 83.964145 
L 179.017219 83.131373 
L 179.166417 78.967518 
L 179.315615 80.216675 
L 179.464813 78.551133 
L 179.763209 77.718361 
L 180.061604 71.888964 
L 180.210802 71.056193 
L 180.36 71.472578 
L 180.509198 73.970892 
L 180.658396 73.970892 
L 180.956791 78.551133 
L 181.105989 72.305349 
L 181.255187 73.970892 
L 181.404385 74.387277 
L 181.553583 73.970892 
L 181.851979 78.967518 
L 182.001176 75.636434 
L 182.299572 77.718361 
L 182.44877 78.967518 
L 182.597968 74.387277 
L 182.896364 76.052819 
L 183.045561 75.220048 
L 183.194759 76.052819 
L 183.343957 78.134747 
L 183.493155 83.547759 
L 183.791551 86.878843 
L 183.940749 84.38053 
L 184.089947 86.046072 
L 184.239144 85.213301 
L 184.388342 86.462458 
L 184.53754 85.629687 
L 184.686738 88.544386 
L 184.835936 88.960771 
L 184.985134 89.793542 
L 185.134332 88.960771 
L 185.283529 87.295229 
L 185.432727 88.128 
L 185.581925 90.209928 
L 185.731123 90.626313 
L 185.880321 89.793542 
L 186.178717 83.964145 
L 186.477112 79.800289 
L 186.62631 81.882217 
L 186.775508 80.63306 
L 186.924706 80.63306 
L 187.223102 82.714988 
L 187.521497 84.38053 
L 187.670695 85.213301 
L 187.819893 82.298602 
L 188.118289 85.213301 
L 188.416684 79.800289 
L 188.565882 79.800289 
L 188.864278 78.551133 
L 189.013476 79.800289 
L 189.46107 74.803663 
L 189.610267 74.387277 
L 189.759465 71.888964 
L 189.908663 71.888964 
L 190.057861 78.551133 
L 190.356257 79.383904 
L 190.505455 81.882217 
L 190.654652 82.298602 
L 190.80385 84.38053 
L 190.953048 84.38053 
L 191.102246 83.964145 
L 191.251444 84.796916 
L 191.54984 80.63306 
L 191.699037 80.63306 
L 191.997433 78.551133 
L 192.146631 78.551133 
L 192.295829 79.383904 
L 192.445027 81.049446 
L 192.594225 81.465831 
L 193.041818 75.220048 
L 193.191016 75.636434 
L 193.340214 75.636434 
L 193.937005 80.216675 
L 194.086203 84.38053 
L 194.235401 82.298602 
L 194.384599 82.714988 
L 194.533797 78.134747 
L 194.682995 78.134747 
L 194.832193 81.049446 
L 194.98139 78.967518 
L 195.130588 80.63306 
L 195.279786 79.800289 
L 195.428984 81.049446 
L 195.578182 79.800289 
L 195.72738 81.465831 
L 195.876578 80.216675 
L 196.025775 80.216675 
L 196.174973 82.714988 
L 196.324171 81.049446 
L 196.473369 86.462458 
L 196.622567 87.711614 
L 196.771765 87.295229 
L 196.920963 90.209928 
L 197.219358 97.704867 
L 197.368556 95.62294 
L 197.666952 89.793542 
L 197.81615 88.128 
L 197.965348 89.377157 
L 198.114545 93.124627 
L 198.412941 89.377157 
L 198.562139 92.291855 
L 198.860535 88.128 
L 199.009733 95.206554 
L 199.15893 96.039325 
L 199.308128 98.121253 
L 199.606524 96.455711 
L 199.755722 97.288482 
L 200.054118 94.373783 
L 200.203316 96.872096 
L 200.352513 95.206554 
L 200.501711 95.206554 
L 200.800107 91.042699 
L 200.949305 90.626313 
L 201.098503 90.626313 
L 201.396898 88.544386 
L 201.546096 89.793542 
L 201.844492 88.128 
L 201.99369 93.957398 
L 202.142888 89.377157 
L 202.441283 88.544386 
L 202.590481 85.629687 
L 202.739679 85.213301 
L 202.888877 84.38053 
L 203.038075 82.714988 
L 203.336471 81.882217 
L 203.485668 82.298602 
L 203.634866 83.547759 
L 203.784064 83.547759 
L 203.933262 80.216675 
L 204.08246 83.964145 
L 204.231658 83.964145 
L 204.380856 85.213301 
L 204.530053 83.547759 
L 204.679251 85.629687 
L 204.828449 84.38053 
L 204.977647 81.882217 
L 205.126845 82.298602 
L 205.425241 85.629687 
L 205.723636 86.462458 
L 205.872834 85.629687 
L 206.17123 88.960771 
L 206.320428 88.544386 
L 206.469626 88.544386 
L 207.514011 96.872096 
L 207.663209 97.288482 
L 207.812406 101.452337 
L 208.110802 93.957398 
L 208.409198 95.62294 
L 209.005989 89.793542 
L 209.155187 92.291855 
L 209.304385 92.291855 
L 209.453583 95.206554 
L 209.602781 93.124627 
L 209.751979 95.62294 
L 209.901176 100.203181 
L 210.050374 98.537639 
L 210.199572 100.619566 
L 210.34877 105.199807 
L 210.497968 105.199807 
L 210.647166 107.69812 
L 210.796364 104.367036 
L 210.945561 104.783422 
L 211.094759 101.452337 
L 211.243957 103.534265 
L 211.691551 95.62294 
L 211.840749 95.62294 
L 211.989947 96.039325 
L 212.288342 91.87547 
L 212.586738 93.541012 
L 212.735936 91.87547 
L 213.034332 92.708241 
L 213.183529 89.793542 
L 213.332727 92.291855 
L 213.631123 89.793542 
L 213.929519 93.541012 
L 214.078717 92.291855 
L 214.227914 93.124627 
L 214.377112 91.87547 
L 214.52631 93.957398 
L 214.675508 93.957398 
L 214.973904 94.790169 
L 215.123102 96.455711 
L 215.421497 101.868723 
L 215.719893 100.203181 
L 215.869091 102.701494 
L 216.018289 101.452337 
L 216.167487 102.285108 
L 216.465882 100.203181 
L 216.764278 103.534265 
L 216.913476 101.035952 
L 217.062674 101.868723 
L 217.36107 105.199807 
L 217.510267 102.701494 
L 217.659465 105.199807 
L 218.70385 91.87547 
L 218.853048 97.288482 
L 219.151444 93.541012 
L 219.300642 98.121253 
L 219.44984 98.537639 
L 219.599037 98.537639 
L 219.748235 97.288482 
L 219.897433 97.288482 
L 220.195829 94.373783 
L 220.345027 93.541012 
L 220.494225 93.541012 
L 220.643422 91.459084 
L 220.79262 93.541012 
L 220.941818 93.957398 
L 221.091016 96.872096 
L 221.240214 96.039325 
L 221.53861 96.872096 
L 221.837005 100.203181 
L 221.986203 98.954024 
L 222.135401 98.954024 
L 222.284599 100.203181 
L 222.433797 100.203181 
L 222.582995 99.37041 
L 222.732193 97.288482 
L 222.88139 98.954024 
L 223.030588 95.62294 
L 223.179786 96.455711 
L 223.478182 101.868723 
L 223.62738 101.035952 
L 223.776578 102.285108 
L 223.925775 100.619566 
L 224.074973 101.452337 
L 224.224171 98.121253 
L 224.373369 98.537639 
L 224.671765 88.544386 
L 224.820963 88.960771 
L 224.97016 86.462458 
L 225.119358 89.377157 
L 225.417754 86.878843 
L 225.71615 87.711614 
L 225.865348 87.295229 
L 226.014545 87.711614 
L 226.312941 84.38053 
L 226.462139 84.796916 
L 226.611337 85.629687 
L 226.760535 85.213301 
L 227.05893 82.298602 
L 227.357326 86.878843 
L 227.506524 86.462458 
L 227.80492 89.377157 
L 227.954118 89.377157 
L 228.103316 86.878843 
L 228.252513 87.295229 
L 228.401711 85.213301 
L 228.550909 86.046072 
L 228.700107 86.046072 
L 228.849305 83.547759 
L 229.147701 87.295229 
L 229.296898 87.711614 
L 229.446096 87.295229 
L 229.744492 88.544386 
L 230.042888 86.462458 
L 230.192086 87.295229 
L 230.788877 93.957398 
L 230.938075 91.459084 
L 231.087273 91.87547 
L 231.236471 94.373783 
L 231.385668 93.124627 
L 231.684064 94.373783 
L 231.833262 93.957398 
L 231.98246 96.039325 
L 232.131658 101.452337 
L 232.430053 102.285108 
L 232.579251 99.786795 
L 232.728449 100.203181 
L 233.026845 99.37041 
L 233.176043 99.786795 
L 233.325241 96.455711 
L 233.623636 95.206554 
L 233.922032 88.128 
L 234.07123 88.128 
L 234.220428 84.796916 
L 234.369626 83.964145 
L 234.518824 82.298602 
L 234.966417 73.554506 
L 235.115615 79.383904 
L 235.414011 78.551133 
L 235.563209 76.469205 
L 235.712406 76.88559 
L 235.861604 76.469205 
L 236.16 77.301976 
L 236.309198 77.301976 
L 236.458396 79.383904 
L 236.607594 78.134747 
L 236.905989 81.465831 
L 237.055187 81.465831 
L 237.204385 83.131373 
L 237.502781 87.295229 
L 237.651979 88.128 
L 237.801176 86.878843 
L 237.950374 87.711614 
L 238.099572 92.291855 
L 238.24877 93.124627 
L 238.397968 91.87547 
L 238.547166 91.87547 
L 238.845561 86.462458 
L 238.994759 90.209928 
L 239.143957 89.793542 
L 239.442353 89.793542 
L 239.591551 88.960771 
L 239.740749 89.793542 
L 240.039144 88.128 
L 240.486738 100.619566 
L 240.635936 98.954024 
L 240.934332 100.619566 
L 241.083529 97.704867 
L 241.232727 101.035952 
L 241.381925 99.37041 
L 241.680321 101.035952 
L 241.829519 100.619566 
L 241.978717 100.619566 
L 242.127914 101.035952 
L 242.42631 103.534265 
L 242.575508 102.701494 
L 242.724706 99.37041 
L 242.873904 102.701494 
L 243.172299 103.950651 
L 243.321497 103.534265 
L 243.619893 107.69812 
L 243.918289 104.783422 
L 244.067487 105.616193 
L 244.216684 104.783422 
L 244.365882 106.448964 
L 244.51508 104.783422 
L 244.813476 105.616193 
L 244.962674 104.783422 
L 245.111872 105.199807 
L 245.26107 107.69812 
L 245.410267 106.032578 
L 245.559465 107.69812 
L 245.708663 112.694747 
L 245.857861 113.111133 
L 246.007059 115.609446 
L 246.305455 111.44559 
L 246.454652 112.694747 
L 246.60385 112.278361 
L 246.902246 114.776675 
L 247.051444 113.943904 
L 247.200642 111.861976 
L 247.34984 111.861976 
L 247.648235 110.196434 
L 247.797433 110.196434 
L 247.946631 111.44559 
L 248.095829 116.025831 
L 248.245027 116.442217 
L 248.394225 113.111133 
L 248.543422 113.111133 
L 248.69262 112.694747 
L 248.841818 111.44559 
L 248.991016 111.44559 
L 249.140214 111.029205 
L 249.289412 108.114506 
L 249.43861 110.196434 
L 249.737005 107.281735 
L 250.035401 108.947277 
L 250.184599 103.950651 
L 250.333797 103.950651 
L 250.632193 101.868723 
L 250.78139 101.868723 
L 250.930588 101.452337 
L 251.228984 103.534265 
L 251.52738 102.701494 
L 251.974973 107.69812 
L 252.124171 104.367036 
L 252.273369 104.367036 
L 252.422567 108.530892 
L 252.571765 109.363663 
L 252.720963 109.363663 
L 252.87016 111.029205 
L 253.317754 107.69812 
L 253.466952 103.950651 
L 253.61615 106.032578 
L 253.765348 104.367036 
L 253.914545 104.367036 
L 254.063743 101.452337 
L 254.212941 102.285108 
L 254.362139 99.786795 
L 254.660535 98.954024 
L 254.809733 100.203181 
L 254.95893 94.373783 
L 255.108128 97.704867 
L 255.257326 96.039325 
L 255.555722 102.701494 
L 255.70492 101.452337 
L 255.854118 101.868723 
L 256.003316 101.452337 
L 256.152513 100.203181 
L 256.301711 100.619566 
L 256.450909 102.701494 
L 256.600107 100.619566 
L 256.749305 101.868723 
L 257.047701 100.203181 
L 257.196898 100.619566 
L 257.495294 104.367036 
L 257.79369 105.616193 
L 258.539679 96.455711 
L 258.688877 98.121253 
L 258.838075 96.039325 
L 258.987273 96.872096 
L 259.136471 94.373783 
L 259.285668 94.790169 
L 259.434866 99.786795 
L 259.733262 99.786795 
L 259.88246 91.459084 
L 260.031658 90.626313 
L 260.180856 88.960771 
L 260.330053 88.544386 
L 260.479251 88.544386 
L 260.628449 90.626313 
L 260.777647 90.209928 
L 260.926845 92.291855 
L 261.076043 91.87547 
L 261.225241 91.042699 
L 261.374439 89.377157 
L 261.523636 89.377157 
L 261.822032 86.878843 
L 261.97123 86.462458 
L 262.269626 91.87547 
L 262.568021 88.128 
L 263.015615 95.62294 
L 263.164813 94.373783 
L 263.463209 98.954024 
L 263.612406 98.954024 
L 263.761604 100.203181 
L 264.06 96.872096 
L 264.209198 98.537639 
L 264.507594 103.950651 
L 264.656791 102.285108 
L 264.805989 102.285108 
L 265.104385 104.783422 
L 265.253583 101.452337 
L 265.402781 100.619566 
L 265.551979 102.285108 
L 265.701176 97.704867 
L 265.999572 101.035952 
L 266.14877 100.203181 
L 266.297968 101.035952 
L 266.447166 100.619566 
L 266.745561 103.950651 
L 266.894759 103.11788 
L 267.043957 103.534265 
L 267.193155 102.701494 
L 267.342353 104.367036 
L 267.491551 104.783422 
L 267.789947 99.37041 
L 267.939144 100.619566 
L 268.088342 99.786795 
L 268.386738 99.786795 
L 268.535936 98.121253 
L 268.685134 98.954024 
L 268.834332 98.537639 
L 269.431123 90.209928 
L 269.580321 88.544386 
L 269.729519 88.128 
L 269.878717 88.960771 
L 270.027914 91.459084 
L 270.32631 89.377157 
L 270.624706 92.291855 
L 270.773904 91.459084 
L 270.923102 91.459084 
L 271.072299 94.373783 
L 271.221497 94.790169 
L 271.370695 93.124627 
L 271.967487 97.704867 
L 272.116684 97.704867 
L 272.265882 98.121253 
L 272.41508 95.62294 
L 272.862674 99.786795 
L 273.011872 99.37041 
L 273.16107 98.537639 
L 273.310267 98.537639 
L 273.608663 97.288482 
L 273.757861 97.704867 
L 273.907059 100.203181 
L 274.056257 100.203181 
L 274.205455 103.950651 
L 274.354652 103.950651 
L 274.653048 108.530892 
L 274.802246 107.281735 
L 274.951444 109.780048 
L 275.100642 108.947277 
L 275.24984 108.947277 
L 275.399037 109.780048 
L 275.697433 104.783422 
L 275.846631 106.032578 
L 276.145027 102.701494 
L 276.294225 106.032578 
L 276.59262 104.367036 
L 276.741818 105.616193 
L 276.891016 104.367036 
L 277.040214 104.367036 
L 277.189412 104.783422 
L 277.33861 106.865349 
L 277.487807 106.448964 
L 277.637005 105.199807 
L 278.084599 111.861976 
L 278.233797 111.029205 
L 278.382995 111.029205 
L 278.532193 108.947277 
L 278.830588 110.612819 
L 278.979786 108.947277 
L 279.128984 108.530892 
L 279.278182 110.196434 
L 279.576578 108.947277 
L 279.725775 110.196434 
L 279.874973 109.363663 
L 280.024171 106.865349 
L 280.173369 108.114506 
L 280.322567 108.114506 
L 280.471765 107.69812 
L 280.620963 105.616193 
L 280.919358 108.530892 
L 281.068556 106.865349 
L 281.217754 107.69812 
L 281.366952 110.612819 
L 281.51615 110.196434 
L 281.814545 111.861976 
L 281.963743 110.612819 
L 282.112941 112.278361 
L 282.262139 111.029205 
L 282.411337 105.616193 
L 282.560535 109.780048 
L 282.85893 111.029205 
L 283.008128 111.44559 
L 283.306524 113.111133 
L 283.455722 111.861976 
L 283.60492 111.861976 
L 283.903316 113.943904 
L 284.052513 112.278361 
L 284.350909 114.776675 
L 284.500107 115.609446 
L 284.798503 118.107759 
L 285.096898 119.773301 
L 285.246096 119.356916 
L 285.395294 116.025831 
L 285.544492 115.19306 
L 285.842888 116.442217 
L 285.992086 113.527518 
L 286.141283 115.609446 
L 286.439679 113.943904 
L 286.588877 113.111133 
L 286.738075 113.943904 
L 286.887273 116.858602 
L 287.036471 116.025831 
L 287.185668 117.691373 
L 287.334866 115.609446 
L 287.484064 118.94053 
L 287.633262 119.773301 
L 287.78246 119.356916 
L 287.931658 119.356916 
L 288.080856 120.189687 
L 288.230053 116.858602 
L 288.528449 120.189687 
L 288.826845 117.274988 
L 288.976043 117.274988 
L 289.274439 118.94053 
L 289.423636 117.274988 
L 289.87123 120.189687 
L 290.020428 119.773301 
L 290.169626 123.937157 
L 290.318824 122.271614 
L 290.617219 121.438843 
L 290.766417 121.855229 
L 291.363209 118.94053 
L 291.512406 119.356916 
L 291.661604 117.691373 
L 291.810802 119.356916 
L 292.109198 116.858602 
L 292.258396 118.524145 
L 292.407594 117.691373 
L 292.556791 116.025831 
L 292.705989 116.442217 
L 292.855187 115.19306 
L 293.004385 115.609446 
L 293.153583 116.858602 
L 293.451979 113.111133 
L 293.601176 113.527518 
L 293.750374 114.776675 
L 293.899572 113.527518 
L 294.197968 116.858602 
L 294.347166 121.022458 
L 294.496364 121.438843 
L 294.645561 119.773301 
L 294.794759 119.356916 
L 294.943957 118.107759 
L 295.242353 120.606072 
L 295.391551 120.606072 
L 295.540749 121.855229 
L 295.839144 121.022458 
L 295.988342 121.855229 
L 296.286738 121.022458 
L 296.435936 123.520771 
L 296.734332 120.606072 
L 296.883529 120.189687 
L 297.032727 118.524145 
L 297.181925 118.107759 
L 297.331123 120.606072 
L 297.480321 120.189687 
L 297.629519 121.855229 
L 297.778717 120.189687 
L 297.927914 120.189687 
L 298.077112 117.691373 
L 298.375508 118.524145 
L 298.524706 118.524145 
L 298.673904 116.442217 
L 298.823102 116.858602 
L 298.972299 118.107759 
L 299.569091 113.111133 
L 299.718289 113.943904 
L 300.016684 117.691373 
L 300.165882 126.43547 
L 300.31508 126.851855 
L 300.762674 133.514024 
L 300.911872 133.93041 
L 301.06107 142.25812 
L 301.210267 144.340048 
L 301.359465 148.087518 
L 301.508663 147.671133 
L 301.956257 152.251373 
L 302.254652 150.585831 
L 302.553048 154.749687 
L 302.702246 153.084145 
L 302.851444 150.169446 
L 303.000642 150.585831 
L 303.14984 148.920289 
L 303.299037 148.503904 
L 303.448235 145.589205 
L 303.597433 148.503904 
L 304.045027 149.75306 
L 304.343422 147.254747 
L 304.49262 147.671133 
L 304.641818 147.671133 
L 304.940214 144.756434 
L 305.089412 143.923663 
L 305.23861 144.340048 
L 305.387807 141.008964 
L 305.537005 141.008964 
L 305.835401 137.261494 
L 305.984599 138.510651 
L 306.282995 142.674506 
L 306.432193 143.090892 
L 306.58139 142.674506 
L 306.879786 139.759807 
L 307.028984 141.008964 
L 307.178182 141.008964 
L 307.32738 140.176193 
L 307.476578 138.510651 
L 307.625775 138.510651 
L 307.774973 137.261494 
L 308.073369 138.094265 
L 308.222567 139.759807 
L 308.371765 139.759807 
L 308.520963 138.510651 
L 308.67016 138.510651 
L 308.819358 138.094265 
L 309.565348 132.681253 
L 309.714545 132.264867 
L 309.863743 131.432096 
L 310.162139 135.179566 
L 310.311337 135.179566 
L 310.460535 136.845108 
L 310.908128 134.763181 
L 311.057326 134.763181 
L 311.206524 139.343422 
L 311.355722 139.759807 
L 311.50492 138.094265 
L 311.803316 140.176193 
L 311.952513 140.592578 
L 312.101711 142.25812 
L 312.250909 142.674506 
L 312.549305 147.254747 
L 312.698503 146.838361 
L 312.847701 147.254747 
L 312.996898 146.838361 
L 313.146096 151.002217 
L 313.295294 151.002217 
L 313.444492 153.084145 
L 313.59369 152.251373 
L 313.892086 154.333301 
L 314.041283 153.916916 
L 314.190481 153.916916 
L 314.339679 153.50053 
L 314.488877 153.916916 
L 314.638075 153.50053 
L 314.787273 154.333301 
L 314.936471 154.333301 
L 315.085668 154.749687 
L 315.234866 153.50053 
L 315.384064 153.916916 
L 315.533262 153.084145 
L 315.68246 155.166072 
L 315.831658 155.166072 
L 315.980856 154.333301 
L 316.279251 154.333301 
L 316.428449 155.582458 
L 316.577647 153.50053 
L 316.726845 156.831614 
L 316.876043 156.415229 
L 317.025241 157.248 
L 317.323636 157.248 
L 317.472834 158.080771 
L 317.920428 158.080771 
L 318.218824 155.582458 
L 318.368021 155.582458 
L 318.517219 156.415229 
L 318.666417 156.415229 
L 318.815615 155.166072 
L 318.964813 155.166072 
L 319.114011 155.582458 
L 319.263209 155.582458 
L 319.412406 153.50053 
L 319.561604 154.333301 
L 319.710802 153.084145 
L 319.86 153.084145 
L 320.307594 149.75306 
L 320.456791 149.336675 
L 320.755187 146.421976 
L 320.904385 146.421976 
L 321.053583 146.00559 
L 321.202781 147.254747 
L 321.501176 145.589205 
L 321.799572 145.589205 
L 321.94877 145.172819 
L 322.545561 140.592578 
L 322.694759 137.261494 
L 322.993155 145.589205 
L 323.142353 146.838361 
L 323.291551 146.838361 
L 323.440749 146.00559 
L 323.589947 144.340048 
L 323.739144 145.172819 
L 323.888342 144.340048 
L 324.634332 152.251373 
L 324.783529 152.667759 
L 324.932727 152.251373 
L 325.081925 154.333301 
L 325.231123 154.333301 
L 326.12631 159.329928 
L 326.424706 155.998843 
L 326.573904 155.166072 
L 326.723102 155.998843 
L 327.021497 158.497157 
L 327.170695 158.497157 
L 327.319893 160.99547 
L 327.469091 160.99547 
L 327.767487 162.661012 
L 327.916684 162.661012 
L 328.065882 162.244627 
L 328.21508 163.077398 
L 328.364278 162.661012 
L 328.513476 160.579084 
L 328.811872 161.411855 
L 328.96107 163.077398 
L 329.110267 166.408482 
L 329.408663 166.408482 
L 329.557861 165.575711 
L 329.707059 167.241253 
L 329.856257 165.992096 
L 330.005455 166.408482 
L 330.154652 167.657639 
L 330.30385 167.657639 
L 330.453048 169.323181 
L 330.602246 168.906795 
L 330.900642 170.155952 
L 331.199037 170.155952 
L 331.348235 168.49041 
L 331.497433 168.906795 
L 331.646631 168.906795 
L 331.795829 166.408482 
L 331.945027 167.241253 
L 332.094225 167.241253 
L 332.541818 170.155952 
L 332.691016 170.988723 
L 332.840214 170.572337 
L 332.989412 170.988723 
L 333.884599 178.900048 
L 334.033797 178.483663 
L 334.182995 178.483663 
L 334.332193 179.732819 
L 334.630588 179.732819 
L 334.779786 179.316434 
L 335.22738 176.401735 
L 335.376578 176.401735 
L 335.525775 176.81812 
L 335.674973 178.483663 
L 335.824171 178.067277 
L 335.973369 178.900048 
L 336.122567 178.483663 
L 336.271765 180.149205 
L 336.420963 180.149205 
L 336.57016 180.981976 
L 336.719358 180.981976 
L 336.868556 180.56559 
L 337.017754 181.398361 
L 337.166952 178.483663 
L 337.31615 178.483663 
L 337.465348 181.814747 
L 337.763743 181.814747 
L 337.912941 180.56559 
L 338.062139 180.981976 
L 338.211337 180.56559 
L 338.360535 180.981976 
L 338.509733 180.56559 
L 338.808128 182.231133 
L 338.957326 182.647518 
L 339.106524 182.647518 
L 339.554118 185.562217 
L 339.703316 185.145831 
L 339.852513 183.896675 
L 340.001711 184.729446 
L 340.150909 184.729446 
L 340.300107 188.06053 
L 340.449305 188.06053 
L 340.598503 186.811373 
L 340.747701 186.811373 
L 340.896898 186.394988 
L 341.046096 186.394988 
L 341.195294 188.06053 
L 341.344492 188.06053 
L 341.49369 189.726072 
L 341.642888 190.142458 
L 341.792086 192.640771 
L 341.941283 192.640771 
L 342.239679 193.889928 
L 342.388877 192.640771 
L 342.538075 194.306313 
L 342.687273 192.224386 
L 342.836471 193.889928 
L 343.134866 193.889928 
L 343.433262 196.804627 
L 343.58246 197.221012 
L 343.880856 197.221012 
L 344.030053 193.473542 
L 344.328449 193.473542 
L 344.477647 194.306313 
L 344.626845 194.306313 
L 344.776043 196.804627 
L 344.925241 196.804627 
L 345.074439 198.470169 
L 345.223636 198.470169 
L 345.522032 199.719325 
L 345.820428 198.470169 
L 346.118824 200.968482 
L 346.268021 200.968482 
L 346.417219 201.801253 
L 346.566417 201.801253 
L 346.715615 201.384867 
L 347.014011 203.883181 
L 347.163209 203.466795 
L 347.312406 204.299566 
L 347.610802 207.630651 
L 347.76 208.047036 
L 347.909198 207.630651 
L 348.058396 207.630651 
L 348.207594 208.463422 
L 348.356791 208.463422 
L 348.505989 211.37812 
L 348.655187 210.961735 
L 348.953583 213.043663 
L 349.102781 213.043663 
L 349.251979 212.210892 
L 349.401176 213.876434 
L 349.84877 215.12559 
L 350.296364 217.623904 
L 350.445561 216.374747 
L 350.594759 216.374747 
L 350.743957 218.456675 
L 350.893155 218.456675 
L 351.042353 219.289446 
L 351.191551 218.87306 
L 351.639144 218.87306 
L 352.385134 222.62053 
L 352.534332 222.204145 
L 352.683529 223.869687 
L 352.981925 222.204145 
L 353.131123 222.62053 
L 353.280321 223.453301 
L 353.429519 225.535229 
L 353.578717 225.535229 
L 353.727914 225.951614 
L 353.877112 229.282699 
L 354.175508 230.11547 
L 354.324706 229.699084 
L 354.473904 229.699084 
L 354.623102 230.11547 
L 354.772299 230.11547 
L 354.921497 230.531855 
L 355.219893 230.531855 
L 355.518289 231.364627 
L 355.667487 235.112096 
L 356.264278 238.443181 
L 356.711872 238.443181 
L 356.86107 238.859566 
L 357.159465 240.525108 
L 357.308663 240.525108 
L 357.607059 241.35788 
L 357.756257 241.35788 
L 358.054652 242.607036 
L 358.20385 242.607036 
L 358.353048 244.272578 
L 358.502246 244.272578 
L 358.651444 243.023422 
L 359.099037 243.023422 
L 359.397433 243.856193 
L 359.546631 243.856193 
L 359.695829 244.272578 
L 359.845027 243.023422 
L 359.994225 243.856193 
L 360.143422 243.856193 
L 360.441818 246.354506 
L 360.740214 246.354506 
L 361.03861 247.187277 
L 361.187807 247.187277 
L 361.486203 240.108723 
L 361.635401 240.108723 
L 361.784599 240.525108 
L 362.232193 240.525108 
L 362.38139 242.190651 
L 362.530588 242.607036 
L 363.276578 242.607036 
L 363.425775 243.023422 
L 363.724171 244.272578 
L 364.022567 244.272578 
L 364.171765 244.688964 
L 364.619358 244.688964 
L 365.066952 246.770892 
L 365.21615 247.187277 
L 365.365348 247.187277 
L 365.514545 249.68559 
L 365.663743 249.68559 
L 365.812941 250.934747 
L 365.962139 250.934747 
L 366.111337 251.351133 
L 366.260535 252.183904 
L 366.857326 252.183904 
L 367.006524 253.43306 
L 367.155722 253.43306 
L 367.30492 255.514988 
L 367.603316 256.347759 
L 368.200107 259.262458 
L 369.095294 259.262458 
L 369.39369 260.095229 
L 369.841283 260.095229 
L 369.990481 260.511614 
L 370.438075 260.511614 
L 370.587273 261.344386 
L 370.885668 261.344386 
L 371.034866 261.760771 
L 371.184064 261.760771 
L 371.631658 263.009928 
L 372.228449 263.009928 
L 372.377647 263.426313 
L 372.526845 262.593542 
L 372.676043 262.593542 
L 372.825241 260.511614 
L 373.272834 260.511614 
L 373.422032 262.593542 
L 373.720428 262.593542 
L 373.869626 263.009928 
L 374.018824 263.842699 
L 374.466417 263.842699 
L 374.615615 264.259084 
L 374.764813 264.259084 
L 374.914011 264.67547 
L 375.212406 268.42294 
L 375.510802 268.42294 
L 375.66 268.839325 
L 375.809198 267.173783 
L 375.958396 267.590169 
L 376.107594 267.590169 
L 376.405989 268.42294 
L 376.704385 269.672096 
L 376.853583 269.672096 
L 377.002781 270.088482 
L 377.301176 270.088482 
L 377.599572 272.17041 
L 377.74877 272.586795 
L 378.047166 272.586795 
L 378.942353 277.167036 
L 379.389947 277.167036 
L 379.688342 277.999807 
L 379.83754 277.999807 
L 379.986738 275.085108 
L 380.135936 275.085108 
L 380.285134 275.501494 
L 381.031123 275.501494 
L 381.180321 275.91788 
L 381.329519 275.91788 
L 381.627914 272.17041 
L 381.777112 272.17041 
L 381.92631 270.504867 
L 382.075508 270.921253 
L 382.224706 270.921253 
L 382.373904 271.754024 
L 382.523102 273.419566 
L 382.672299 273.003181 
L 382.970695 273.003181 
L 383.269091 278.416193 
L 383.418289 276.334265 
L 383.567487 277.583422 
L 383.716684 277.583422 
L 384.01508 278.416193 
L 384.313476 278.416193 
L 384.462674 277.167036 
L 384.611872 277.583422 
L 385.805455 277.583422 
L 385.954652 277.999807 
L 386.10385 278.832578 
L 386.253048 278.832578 
L 386.402246 277.999807 
L 386.551444 277.999807 
L 386.700642 275.91788 
L 386.84984 275.91788 
L 387.148235 276.750651 
L 387.297433 276.750651 
L 387.745027 278.832578 
L 388.043422 278.832578 
L 388.341818 280.49812 
L 388.789412 280.49812 
L 389.237005 282.580048 
L 389.386203 282.580048 
L 389.535401 284.24559 
L 389.982995 284.24559 
L 390.132193 284.661976 
L 390.28139 284.661976 
L 390.579786 285.494747 
L 390.878182 285.494747 
L 391.02738 287.160289 
L 391.176578 287.576675 
L 391.773369 287.576675 
L 391.922567 287.99306 
L 392.071765 285.078361 
L 392.220963 285.494747 
L 392.668556 287.576675 
L 393.414545 287.576675 
L 393.563743 288.825831 
L 394.011337 288.825831 
L 394.160535 289.658602 
L 394.309733 289.658602 
L 394.45893 290.074988 
L 394.757326 290.074988 
L 394.906524 290.491373 
L 395.055722 291.324145 
L 395.20492 290.074988 
L 395.503316 290.074988 
L 395.652513 290.491373 
L 395.801711 291.324145 
L 395.950909 291.324145 
L 396.100107 291.74053 
L 396.398503 291.74053 
L 396.547701 292.156916 
L 396.995294 292.156916 
L 397.144492 292.989687 
L 397.442888 292.989687 
L 397.592086 293.822458 
L 397.890481 293.822458 
L 398.039679 294.238843 
L 398.188877 295.488 
L 398.338075 295.488 
L 398.487273 294.238843 
L 398.487273 294.238843 
" clip-path="url(#p6b7661cdf9)" style="fill: none; stroke: #1f77b4; stroke-width: 1.5; stroke-linecap: square"/>
   </g>
   <g id="patch_3">
    <path d="M 57.6 307.584 
L 57.6 41.472 
" style="fill: none; stroke: #000000; stroke-width: 0.8; stroke-linejoin: miter; stroke-linecap: square"/>
   </g>
   <g id="patch_4">
    <path d="M 414.72 307.584 
L 414.72 41.472 
" style="fill: none; stroke: #000000; stroke-width: 0.8; stroke-linejoin: miter; stroke-linecap: square"/>
   </g>
   <g id="patch_5">
    <path d="M 57.6 307.584 
L 414.72 307.584 
" style="fill: none; stroke: #000000; stroke-width: 0.8; stroke-linejoin: miter; stroke-linecap: square"/>
   </g>
   <g id="patch_6">
    <path d="M 57.6 41.472 
L 414.72 41.472 
" style="fill: none; stroke: #000000; stroke-width: 0.8; stroke-linejoin: miter; stroke-linecap: square"/>
   </g>
   <g id="text_14">
    <!-- Simulated Anealling Cost -->
    <g transform="translate(160.8 35.472)scale(0.12 -0.12)">
     <defs>
      <path id="DejaVuSans-53" d="M 3425 4513 
L 3425 3897 
Q 3066 4069 2747 4153 
Q 2428 4238 2131 4238 
Q 1616 4238 1336 4038 
Q 1056 3838 1056 3469 
Q 1056 3159 1242 3001 
Q 1428 2844 1947 2747 
L 2328 2669 
Q 3034 2534 3370 2195 
Q 3706 1856 3706 1288 
Q 3706 609 3251 259 
Q 2797 -91 1919 -91 
Q 1588 -91 1214 -16 
Q 841 59 441 206 
L 441 856 
Q 825 641 1194 531 
Q 1563 422 1919 422 
Q 2459 422 2753 634 
Q 3047 847 3047 1241 
Q 3047 1584 2836 1778 
Q 2625 1972 2144 2069 
L 1759 2144 
Q 1053 2284 737 2584 
Q 422 2884 422 3419 
Q 422 4038 858 4394 
Q 1294 4750 2059 4750 
Q 2388 4750 2728 4690 
Q 3069 4631 3425 4513 
z
" transform="scale(0.015625)"/>
      <path id="DejaVuSans-69" d="M 603 3500 
L 1178 3500 
L 1178 0 
L 603 0 
L 603 3500 
z
M 603 4863 
L 1178 4863 
L 1178 4134 
L 603 4134 
L 603 4863 
z
" transform="scale(0.015625)"/>
      <path id="DejaVuSans-65" d="M 3597 1894 
L 3597 1613 
L 953 1613 
Q 991 1019 1311 708 
Q 1631 397 2203 397 
Q 2534 397 2845 478 
Q 3156 559 3463 722 
L 3463 178 
Q 3153 47 2828 -22 
Q 2503 -91 2169 -91 
Q 1331 -91 842 396 
Q 353 884 353 1716 
Q 353 2575 817 3079 
Q 1281 3584 2069 3584 
Q 2775 3584 3186 3129 
Q 3597 2675 3597 1894 
z
M 3022 2063 
Q 3016 2534 2758 2815 
Q 2500 3097 2075 3097 
Q 1594 3097 1305 2825 
Q 1016 2553 972 2059 
L 3022 2063 
z
" transform="scale(0.015625)"/>
      <path id="DejaVuSans-64" d="M 2906 2969 
L 2906 4863 
L 3481 4863 
L 3481 0 
L 2906 0 
L 2906 525 
Q 2725 213 2448 61 
Q 2172 -91 1784 -91 
Q 1150 -91 751 415 
Q 353 922 353 1747 
Q 353 2572 751 3078 
Q 1150 3584 1784 3584 
Q 2172 3584 2448 3432 
Q 2725 3281 2906 2969 
z
M 947 1747 
Q 947 1113 1208 752 
Q 1469 391 1925 391 
Q 2381 391 2643 752 
Q 2906 1113 2906 1747 
Q 2906 2381 2643 2742 
Q 2381 3103 1925 3103 
Q 1469 3103 1208 2742 
Q 947 2381 947 1747 
z
" transform="scale(0.015625)"/>
      <path id="DejaVuSans-41" d="M 2188 4044 
L 1331 1722 
L 3047 1722 
L 2188 4044 
z
M 1831 4666 
L 2547 4666 
L 4325 0 
L 3669 0 
L 3244 1197 
L 1141 1197 
L 716 0 
L 50 0 
L 1831 4666 
z
" transform="scale(0.015625)"/>
      <path id="DejaVuSans-67" d="M 2906 1791 
Q 2906 2416 2648 2759 
Q 2391 3103 1925 3103 
Q 1463 3103 1205 2759 
Q 947 2416 947 1791 
Q 947 1169 1205 825 
Q 1463 481 1925 481 
Q 2391 481 2648 825 
Q 2906 1169 2906 1791 
z
M 3481 434 
Q 3481 -459 3084 -895 
Q 2688 -1331 1869 -1331 
Q 1566 -1331 1297 -1286 
Q 1028 -1241 775 -1147 
L 775 -588 
Q 1028 -725 1275 -790 
Q 1522 -856 1778 -856 
Q 2344 -856 2625 -561 
Q 2906 -266 2906 331 
L 2906 616 
Q 2728 306 2450 153 
Q 2172 0 1784 0 
Q 1141 0 747 490 
Q 353 981 353 1791 
Q 353 2603 747 3093 
Q 1141 3584 1784 3584 
Q 2172 3584 2450 3431 
Q 2728 3278 2906 2969 
L 2906 3500 
L 3481 3500 
L 3481 434 
z
" transform="scale(0.015625)"/>
      <path id="DejaVuSans-43" d="M 4122 4306 
L 4122 3641 
Q 3803 3938 3442 4084 
Q 3081 4231 2675 4231 
Q 1875 4231 1450 3742 
Q 1025 3253 1025 2328 
Q 1025 1406 1450 917 
Q 1875 428 2675 428 
Q 3081 428 3442 575 
Q 3803 722 4122 1019 
L 4122 359 
Q 3791 134 3420 21 
Q 3050 -91 2638 -91 
Q 1578 -91 968 557 
Q 359 1206 359 2328 
Q 359 3453 968 4101 
Q 1578 4750 2638 4750 
Q 3056 4750 3426 4639 
Q 3797 4528 4122 4306 
z
" transform="scale(0.015625)"/>
     </defs>
     <use xlink:href="#DejaVuSans-53"/>
     <use xlink:href="#DejaVuSans-69" x="63.476562"/>
     <use xlink:href="#DejaVuSans-6d" x="91.259766"/>
     <use xlink:href="#DejaVuSans-75" x="188.671875"/>
     <use xlink:href="#DejaVuSans-6c" x="252.050781"/>
     <use xlink:href="#DejaVuSans-61" x="279.833984"/>
     <use xlink:href="#DejaVuSans-74" x="341.113281"/>
     <use xlink:href="#DejaVuSans-65" x="380.322266"/>
     <use xlink:href="#DejaVuSans-64" x="441.845703"/>
     <use xlink:href="#DejaVuSans-20" x="505.322266"/>
     <use xlink:href="#DejaVuSans-41" x="537.109375"/>
     <use xlink:href="#DejaVuSans-6e" x="605.517578"/>
     <use xlink:href="#DejaVuSans-65" x="668.896484"/>
     <use xlink:href="#DejaVuSans-61" x="730.419922"/>
     <use xlink:href="#DejaVuSans-6c" x="791.699219"/>
     <use xlink:href="#DejaVuSans-6c" x="819.482422"/>
     <use xlink:href="#DejaVuSans-69" x="847.265625"/>
     <use xlink:href="#DejaVuSans-6e" x="875.048828"/>
     <use xlink:href="#DejaVuSans-67" x="938.427734"/>
     <use xlink:href="#DejaVuSans-20" x="1001.904297"/>
     <use xlink:href="#DejaVuSans-43" x="1033.691406"/>
     <use xlink:href="#DejaVuSans-6f" x="1103.515625"/>
     <use xlink:href="#DejaVuSans-73" x="1164.697266"/>
     <use xlink:href="#DejaVuSans-74" x="1216.796875"/>
    </g>
   </g>
  </g>
 </g>
 <defs>
  <clipPath id="p6b7661cdf9">
   <rect x="57.6" y="41.472" width="357.12" height="266.112"/>
  </clipPath>
 </defs>
</svg>
