<?xml version="1.0" encoding="utf-8" standalone="no"?>
<!DOCTYPE svg PUBLIC "-//W3C//DTD SVG 1.1//EN"
  "http://www.w3.org/Graphics/SVG/1.1/DTD/svg11.dtd">
<svg xmlns:xlink="http://www.w3.org/1999/xlink" width="460.8pt" height="345.6pt" viewBox="0 0 460.8 345.6" xmlns="http://www.w3.org/2000/svg" version="1.1">
 <metadata>
  <rdf:RDF xmlns:dc="http://purl.org/dc/elements/1.1/" xmlns:cc="http://creativecommons.org/ns#" xmlns:rdf="http://www.w3.org/1999/02/22-rdf-syntax-ns#">
   <cc:Work>
    <dc:type rdf:resource="http://purl.org/dc/dcmitype/StillImage"/>
    <dc:date>2022-06-01T08:01:34.183677</dc:date>
    <dc:format>image/svg+xml</dc:format>
    <dc:creator>
     <cc:Agent>
      <dc:title>Matplotlib v3.5.1, https://matplotlib.org/</dc:title>
     </cc:Agent>
    </dc:creator>
   </cc:Work>
  </rdf:RDF>
 </metadata>
 <defs>
  <style type="text/css">*{stroke-linejoin: round; stroke-linecap: butt}</style>
 </defs>
 <g id="figure_1">
  <g id="patch_1">
   <path d="M 0 345.6 
L 460.8 345.6 
L 460.8 0 
L 0 0 
z
" style="fill: #ffffff"/>
  </g>
  <g id="axes_1">
   <g id="patch_2">
    <path d="M 57.6 307.584 
L 414.72 307.584 
L 414.72 41.472 
L 57.6 41.472 
z
" style="fill: #ffffff"/>
   </g>
   <g id="matplotlib.axis_1">
    <g id="xtick_1">
     <g id="line2d_1">
      <defs>
       <path id="m844bcce622" d="M 0 0 
L 0 3.5 
" style="stroke: #000000; stroke-width: 0.8"/>
      </defs>
      <g>
       <use xlink:href="#m844bcce622" x="73.832727" y="307.584" style="stroke: #000000; stroke-width: 0.8"/>
      </g>
     </g>
     <g id="text_1">
      <!-- 0 -->
      <g transform="translate(70.651477 322.182437)scale(0.1 -0.1)">
       <defs>
        <path id="DejaVuSans-30" d="M 2034 4250 
Q 1547 4250 1301 3770 
Q 1056 3291 1056 2328 
Q 1056 1369 1301 889 
Q 1547 409 2034 409 
Q 2525 409 2770 889 
Q 3016 1369 3016 2328 
Q 3016 3291 2770 3770 
Q 2525 4250 2034 4250 
z
M 2034 4750 
Q 2819 4750 3233 4129 
Q 3647 3509 3647 2328 
Q 3647 1150 3233 529 
Q 2819 -91 2034 -91 
Q 1250 -91 836 529 
Q 422 1150 422 2328 
Q 422 3509 836 4129 
Q 1250 4750 2034 4750 
z
" transform="scale(0.015625)"/>
       </defs>
       <use xlink:href="#DejaVuSans-30"/>
      </g>
     </g>
    </g>
    <g id="xtick_2">
     <g id="line2d_2">
      <g>
       <use xlink:href="#m844bcce622" x="124.119986" y="307.584" style="stroke: #000000; stroke-width: 0.8"/>
      </g>
     </g>
     <g id="text_2">
      <!-- 500 -->
      <g transform="translate(114.576236 322.182437)scale(0.1 -0.1)">
       <defs>
        <path id="DejaVuSans-35" d="M 691 4666 
L 3169 4666 
L 3169 4134 
L 1269 4134 
L 1269 2991 
Q 1406 3038 1543 3061 
Q 1681 3084 1819 3084 
Q 2600 3084 3056 2656 
Q 3513 2228 3513 1497 
Q 3513 744 3044 326 
Q 2575 -91 1722 -91 
Q 1428 -91 1123 -41 
Q 819 9 494 109 
L 494 744 
Q 775 591 1075 516 
Q 1375 441 1709 441 
Q 2250 441 2565 725 
Q 2881 1009 2881 1497 
Q 2881 1984 2565 2268 
Q 2250 2553 1709 2553 
Q 1456 2553 1204 2497 
Q 953 2441 691 2322 
L 691 4666 
z
" transform="scale(0.015625)"/>
       </defs>
       <use xlink:href="#DejaVuSans-35"/>
       <use xlink:href="#DejaVuSans-30" x="63.623047"/>
       <use xlink:href="#DejaVuSans-30" x="127.246094"/>
      </g>
     </g>
    </g>
    <g id="xtick_3">
     <g id="line2d_3">
      <g>
       <use xlink:href="#m844bcce622" x="174.407246" y="307.584" style="stroke: #000000; stroke-width: 0.8"/>
      </g>
     </g>
     <g id="text_3">
      <!-- 1000 -->
      <g transform="translate(161.682246 322.182437)scale(0.1 -0.1)">
       <defs>
        <path id="DejaVuSans-31" d="M 794 531 
L 1825 531 
L 1825 4091 
L 703 3866 
L 703 4441 
L 1819 4666 
L 2450 4666 
L 2450 531 
L 3481 531 
L 3481 0 
L 794 0 
L 794 531 
z
" transform="scale(0.015625)"/>
       </defs>
       <use xlink:href="#DejaVuSans-31"/>
       <use xlink:href="#DejaVuSans-30" x="63.623047"/>
       <use xlink:href="#DejaVuSans-30" x="127.246094"/>
       <use xlink:href="#DejaVuSans-30" x="190.869141"/>
      </g>
     </g>
    </g>
    <g id="xtick_4">
     <g id="line2d_4">
      <g>
       <use xlink:href="#m844bcce622" x="224.694505" y="307.584" style="stroke: #000000; stroke-width: 0.8"/>
      </g>
     </g>
     <g id="text_4">
      <!-- 1500 -->
      <g transform="translate(211.969505 322.182437)scale(0.1 -0.1)">
       <use xlink:href="#DejaVuSans-31"/>
       <use xlink:href="#DejaVuSans-35" x="63.623047"/>
       <use xlink:href="#DejaVuSans-30" x="127.246094"/>
       <use xlink:href="#DejaVuSans-30" x="190.869141"/>
      </g>
     </g>
    </g>
    <g id="xtick_5">
     <g id="line2d_5">
      <g>
       <use xlink:href="#m844bcce622" x="274.981764" y="307.584" style="stroke: #000000; stroke-width: 0.8"/>
      </g>
     </g>
     <g id="text_5">
      <!-- 2000 -->
      <g transform="translate(262.256764 322.182437)scale(0.1 -0.1)">
       <defs>
        <path id="DejaVuSans-32" d="M 1228 531 
L 3431 531 
L 3431 0 
L 469 0 
L 469 531 
Q 828 903 1448 1529 
Q 2069 2156 2228 2338 
Q 2531 2678 2651 2914 
Q 2772 3150 2772 3378 
Q 2772 3750 2511 3984 
Q 2250 4219 1831 4219 
Q 1534 4219 1204 4116 
Q 875 4013 500 3803 
L 500 4441 
Q 881 4594 1212 4672 
Q 1544 4750 1819 4750 
Q 2544 4750 2975 4387 
Q 3406 4025 3406 3419 
Q 3406 3131 3298 2873 
Q 3191 2616 2906 2266 
Q 2828 2175 2409 1742 
Q 1991 1309 1228 531 
z
" transform="scale(0.015625)"/>
       </defs>
       <use xlink:href="#DejaVuSans-32"/>
       <use xlink:href="#DejaVuSans-30" x="63.623047"/>
       <use xlink:href="#DejaVuSans-30" x="127.246094"/>
       <use xlink:href="#DejaVuSans-30" x="190.869141"/>
      </g>
     </g>
    </g>
    <g id="xtick_6">
     <g id="line2d_6">
      <g>
       <use xlink:href="#m844bcce622" x="325.269023" y="307.584" style="stroke: #000000; stroke-width: 0.8"/>
      </g>
     </g>
     <g id="text_6">
      <!-- 2500 -->
      <g transform="translate(312.544023 322.182437)scale(0.1 -0.1)">
       <use xlink:href="#DejaVuSans-32"/>
       <use xlink:href="#DejaVuSans-35" x="63.623047"/>
       <use xlink:href="#DejaVuSans-30" x="127.246094"/>
       <use xlink:href="#DejaVuSans-30" x="190.869141"/>
      </g>
     </g>
    </g>
    <g id="xtick_7">
     <g id="line2d_7">
      <g>
       <use xlink:href="#m844bcce622" x="375.556283" y="307.584" style="stroke: #000000; stroke-width: 0.8"/>
      </g>
     </g>
     <g id="text_7">
      <!-- 3000 -->
      <g transform="translate(362.831283 322.182437)scale(0.1 -0.1)">
       <defs>
        <path id="DejaVuSans-33" d="M 2597 2516 
Q 3050 2419 3304 2112 
Q 3559 1806 3559 1356 
Q 3559 666 3084 287 
Q 2609 -91 1734 -91 
Q 1441 -91 1130 -33 
Q 819 25 488 141 
L 488 750 
Q 750 597 1062 519 
Q 1375 441 1716 441 
Q 2309 441 2620 675 
Q 2931 909 2931 1356 
Q 2931 1769 2642 2001 
Q 2353 2234 1838 2234 
L 1294 2234 
L 1294 2753 
L 1863 2753 
Q 2328 2753 2575 2939 
Q 2822 3125 2822 3475 
Q 2822 3834 2567 4026 
Q 2313 4219 1838 4219 
Q 1578 4219 1281 4162 
Q 984 4106 628 3988 
L 628 4550 
Q 988 4650 1302 4700 
Q 1616 4750 1894 4750 
Q 2613 4750 3031 4423 
Q 3450 4097 3450 3541 
Q 3450 3153 3228 2886 
Q 3006 2619 2597 2516 
z
" transform="scale(0.015625)"/>
       </defs>
       <use xlink:href="#DejaVuSans-33"/>
       <use xlink:href="#DejaVuSans-30" x="63.623047"/>
       <use xlink:href="#DejaVuSans-30" x="127.246094"/>
       <use xlink:href="#DejaVuSans-30" x="190.869141"/>
      </g>
     </g>
    </g>
    <g id="text_8">
     <!-- num swaps -->
     <g transform="translate(207.826406 335.860562)scale(0.1 -0.1)">
      <defs>
       <path id="DejaVuSans-6e" d="M 3513 2113 
L 3513 0 
L 2938 0 
L 2938 2094 
Q 2938 2591 2744 2837 
Q 2550 3084 2163 3084 
Q 1697 3084 1428 2787 
Q 1159 2491 1159 1978 
L 1159 0 
L 581 0 
L 581 3500 
L 1159 3500 
L 1159 2956 
Q 1366 3272 1645 3428 
Q 1925 3584 2291 3584 
Q 2894 3584 3203 3211 
Q 3513 2838 3513 2113 
z
" transform="scale(0.015625)"/>
       <path id="DejaVuSans-75" d="M 544 1381 
L 544 3500 
L 1119 3500 
L 1119 1403 
Q 1119 906 1312 657 
Q 1506 409 1894 409 
Q 2359 409 2629 706 
Q 2900 1003 2900 1516 
L 2900 3500 
L 3475 3500 
L 3475 0 
L 2900 0 
L 2900 538 
Q 2691 219 2414 64 
Q 2138 -91 1772 -91 
Q 1169 -91 856 284 
Q 544 659 544 1381 
z
M 1991 3584 
L 1991 3584 
z
" transform="scale(0.015625)"/>
       <path id="DejaVuSans-6d" d="M 3328 2828 
Q 3544 3216 3844 3400 
Q 4144 3584 4550 3584 
Q 5097 3584 5394 3201 
Q 5691 2819 5691 2113 
L 5691 0 
L 5113 0 
L 5113 2094 
Q 5113 2597 4934 2840 
Q 4756 3084 4391 3084 
Q 3944 3084 3684 2787 
Q 3425 2491 3425 1978 
L 3425 0 
L 2847 0 
L 2847 2094 
Q 2847 2600 2669 2842 
Q 2491 3084 2119 3084 
Q 1678 3084 1418 2786 
Q 1159 2488 1159 1978 
L 1159 0 
L 581 0 
L 581 3500 
L 1159 3500 
L 1159 2956 
Q 1356 3278 1631 3431 
Q 1906 3584 2284 3584 
Q 2666 3584 2933 3390 
Q 3200 3197 3328 2828 
z
" transform="scale(0.015625)"/>
       <path id="DejaVuSans-20" transform="scale(0.015625)"/>
       <path id="DejaVuSans-73" d="M 2834 3397 
L 2834 2853 
Q 2591 2978 2328 3040 
Q 2066 3103 1784 3103 
Q 1356 3103 1142 2972 
Q 928 2841 928 2578 
Q 928 2378 1081 2264 
Q 1234 2150 1697 2047 
L 1894 2003 
Q 2506 1872 2764 1633 
Q 3022 1394 3022 966 
Q 3022 478 2636 193 
Q 2250 -91 1575 -91 
Q 1294 -91 989 -36 
Q 684 19 347 128 
L 347 722 
Q 666 556 975 473 
Q 1284 391 1588 391 
Q 1994 391 2212 530 
Q 2431 669 2431 922 
Q 2431 1156 2273 1281 
Q 2116 1406 1581 1522 
L 1381 1569 
Q 847 1681 609 1914 
Q 372 2147 372 2553 
Q 372 3047 722 3315 
Q 1072 3584 1716 3584 
Q 2034 3584 2315 3537 
Q 2597 3491 2834 3397 
z
" transform="scale(0.015625)"/>
       <path id="DejaVuSans-77" d="M 269 3500 
L 844 3500 
L 1563 769 
L 2278 3500 
L 2956 3500 
L 3675 769 
L 4391 3500 
L 4966 3500 
L 4050 0 
L 3372 0 
L 2619 2869 
L 1863 0 
L 1184 0 
L 269 3500 
z
" transform="scale(0.015625)"/>
       <path id="DejaVuSans-61" d="M 2194 1759 
Q 1497 1759 1228 1600 
Q 959 1441 959 1056 
Q 959 750 1161 570 
Q 1363 391 1709 391 
Q 2188 391 2477 730 
Q 2766 1069 2766 1631 
L 2766 1759 
L 2194 1759 
z
M 3341 1997 
L 3341 0 
L 2766 0 
L 2766 531 
Q 2569 213 2275 61 
Q 1981 -91 1556 -91 
Q 1019 -91 701 211 
Q 384 513 384 1019 
Q 384 1609 779 1909 
Q 1175 2209 1959 2209 
L 2766 2209 
L 2766 2266 
Q 2766 2663 2505 2880 
Q 2244 3097 1772 3097 
Q 1472 3097 1187 3025 
Q 903 2953 641 2809 
L 641 3341 
Q 956 3463 1253 3523 
Q 1550 3584 1831 3584 
Q 2591 3584 2966 3190 
Q 3341 2797 3341 1997 
z
" transform="scale(0.015625)"/>
       <path id="DejaVuSans-70" d="M 1159 525 
L 1159 -1331 
L 581 -1331 
L 581 3500 
L 1159 3500 
L 1159 2969 
Q 1341 3281 1617 3432 
Q 1894 3584 2278 3584 
Q 2916 3584 3314 3078 
Q 3713 2572 3713 1747 
Q 3713 922 3314 415 
Q 2916 -91 2278 -91 
Q 1894 -91 1617 61 
Q 1341 213 1159 525 
z
M 3116 1747 
Q 3116 2381 2855 2742 
Q 2594 3103 2138 3103 
Q 1681 3103 1420 2742 
Q 1159 2381 1159 1747 
Q 1159 1113 1420 752 
Q 1681 391 2138 391 
Q 2594 391 2855 752 
Q 3116 1113 3116 1747 
z
" transform="scale(0.015625)"/>
      </defs>
      <use xlink:href="#DejaVuSans-6e"/>
      <use xlink:href="#DejaVuSans-75" x="63.378906"/>
      <use xlink:href="#DejaVuSans-6d" x="126.757812"/>
      <use xlink:href="#DejaVuSans-20" x="224.169922"/>
      <use xlink:href="#DejaVuSans-73" x="255.957031"/>
      <use xlink:href="#DejaVuSans-77" x="308.056641"/>
      <use xlink:href="#DejaVuSans-61" x="389.84375"/>
      <use xlink:href="#DejaVuSans-70" x="451.123047"/>
      <use xlink:href="#DejaVuSans-73" x="514.599609"/>
     </g>
    </g>
   </g>
   <g id="matplotlib.axis_2">
    <g id="ytick_1">
     <g id="line2d_8">
      <defs>
       <path id="m9905cbf180" d="M 0 0 
L -3.5 0 
" style="stroke: #000000; stroke-width: 0.8"/>
      </defs>
      <g>
       <use xlink:href="#m9905cbf180" x="57.6" y="266.723122" style="stroke: #000000; stroke-width: 0.8"/>
      </g>
     </g>
     <g id="text_9">
      <!-- 1500 -->
      <g transform="translate(25.15 270.522341)scale(0.1 -0.1)">
       <use xlink:href="#DejaVuSans-31"/>
       <use xlink:href="#DejaVuSans-35" x="63.623047"/>
       <use xlink:href="#DejaVuSans-30" x="127.246094"/>
       <use xlink:href="#DejaVuSans-30" x="190.869141"/>
      </g>
     </g>
    </g>
    <g id="ytick_2">
     <g id="line2d_9">
      <g>
       <use xlink:href="#m9905cbf180" x="57.6" y="214.040195" style="stroke: #000000; stroke-width: 0.8"/>
      </g>
     </g>
     <g id="text_10">
      <!-- 2000 -->
      <g transform="translate(25.15 217.839414)scale(0.1 -0.1)">
       <use xlink:href="#DejaVuSans-32"/>
       <use xlink:href="#DejaVuSans-30" x="63.623047"/>
       <use xlink:href="#DejaVuSans-30" x="127.246094"/>
       <use xlink:href="#DejaVuSans-30" x="190.869141"/>
      </g>
     </g>
    </g>
    <g id="ytick_3">
     <g id="line2d_10">
      <g>
       <use xlink:href="#m9905cbf180" x="57.6" y="161.357268" style="stroke: #000000; stroke-width: 0.8"/>
      </g>
     </g>
     <g id="text_11">
      <!-- 2500 -->
      <g transform="translate(25.15 165.156487)scale(0.1 -0.1)">
       <use xlink:href="#DejaVuSans-32"/>
       <use xlink:href="#DejaVuSans-35" x="63.623047"/>
       <use xlink:href="#DejaVuSans-30" x="127.246094"/>
       <use xlink:href="#DejaVuSans-30" x="190.869141"/>
      </g>
     </g>
    </g>
    <g id="ytick_4">
     <g id="line2d_11">
      <g>
       <use xlink:href="#m9905cbf180" x="57.6" y="108.674341" style="stroke: #000000; stroke-width: 0.8"/>
      </g>
     </g>
     <g id="text_12">
      <!-- 3000 -->
      <g transform="translate(25.15 112.47356)scale(0.1 -0.1)">
       <use xlink:href="#DejaVuSans-33"/>
       <use xlink:href="#DejaVuSans-30" x="63.623047"/>
       <use xlink:href="#DejaVuSans-30" x="127.246094"/>
       <use xlink:href="#DejaVuSans-30" x="190.869141"/>
      </g>
     </g>
    </g>
    <g id="ytick_5">
     <g id="line2d_12">
      <g>
       <use xlink:href="#m9905cbf180" x="57.6" y="55.991415" style="stroke: #000000; stroke-width: 0.8"/>
      </g>
     </g>
     <g id="text_13">
      <!-- 3500 -->
      <g transform="translate(25.15 59.790633)scale(0.1 -0.1)">
       <use xlink:href="#DejaVuSans-33"/>
       <use xlink:href="#DejaVuSans-35" x="63.623047"/>
       <use xlink:href="#DejaVuSans-30" x="127.246094"/>
       <use xlink:href="#DejaVuSans-30" x="190.869141"/>
      </g>
     </g>
    </g>
    <g id="text_14">
     <!-- total cost -->
     <g transform="translate(19.070312 197.923313)rotate(-90)scale(0.1 -0.1)">
      <defs>
       <path id="DejaVuSans-74" d="M 1172 4494 
L 1172 3500 
L 2356 3500 
L 2356 3053 
L 1172 3053 
L 1172 1153 
Q 1172 725 1289 603 
Q 1406 481 1766 481 
L 2356 481 
L 2356 0 
L 1766 0 
Q 1100 0 847 248 
Q 594 497 594 1153 
L 594 3053 
L 172 3053 
L 172 3500 
L 594 3500 
L 594 4494 
L 1172 4494 
z
" transform="scale(0.015625)"/>
       <path id="DejaVuSans-6f" d="M 1959 3097 
Q 1497 3097 1228 2736 
Q 959 2375 959 1747 
Q 959 1119 1226 758 
Q 1494 397 1959 397 
Q 2419 397 2687 759 
Q 2956 1122 2956 1747 
Q 2956 2369 2687 2733 
Q 2419 3097 1959 3097 
z
M 1959 3584 
Q 2709 3584 3137 3096 
Q 3566 2609 3566 1747 
Q 3566 888 3137 398 
Q 2709 -91 1959 -91 
Q 1206 -91 779 398 
Q 353 888 353 1747 
Q 353 2609 779 3096 
Q 1206 3584 1959 3584 
z
" transform="scale(0.015625)"/>
       <path id="DejaVuSans-6c" d="M 603 4863 
L 1178 4863 
L 1178 0 
L 603 0 
L 603 4863 
z
" transform="scale(0.015625)"/>
       <path id="DejaVuSans-63" d="M 3122 3366 
L 3122 2828 
Q 2878 2963 2633 3030 
Q 2388 3097 2138 3097 
Q 1578 3097 1268 2742 
Q 959 2388 959 1747 
Q 959 1106 1268 751 
Q 1578 397 2138 397 
Q 2388 397 2633 464 
Q 2878 531 3122 666 
L 3122 134 
Q 2881 22 2623 -34 
Q 2366 -91 2075 -91 
Q 1284 -91 818 406 
Q 353 903 353 1747 
Q 353 2603 823 3093 
Q 1294 3584 2113 3584 
Q 2378 3584 2631 3529 
Q 2884 3475 3122 3366 
z
" transform="scale(0.015625)"/>
      </defs>
      <use xlink:href="#DejaVuSans-74"/>
      <use xlink:href="#DejaVuSans-6f" x="39.208984"/>
      <use xlink:href="#DejaVuSans-74" x="100.390625"/>
      <use xlink:href="#DejaVuSans-61" x="139.599609"/>
      <use xlink:href="#DejaVuSans-6c" x="200.878906"/>
      <use xlink:href="#DejaVuSans-20" x="228.662109"/>
      <use xlink:href="#DejaVuSans-63" x="260.449219"/>
      <use xlink:href="#DejaVuSans-6f" x="315.429688"/>
      <use xlink:href="#DejaVuSans-73" x="376.611328"/>
      <use xlink:href="#DejaVuSans-74" x="428.710938"/>
     </g>
    </g>
   </g>
   <g id="line2d_13">
    <path d="M 73.832727 61.997268 
L 74.033876 62.102634 
L 74.235025 58.836293 
L 74.436174 57.466537 
L 74.637323 54.83239 
L 74.838472 54.094829 
L 75.039621 55.991415 
L 75.240771 55.780683 
L 75.44192 55.780683 
L 75.643069 56.202146 
L 75.844218 55.569951 
L 76.045367 53.568 
L 76.246516 58.309463 
L 76.447665 58.414829 
L 76.648814 61.365073 
L 76.849963 62.208 
L 77.051112 64.104585 
L 77.252261 63.893854 
L 77.45341 66.528 
L 77.654559 65.685073 
L 77.855708 62.418732 
L 78.056857 63.050927 
L 78.258006 61.154341 
L 78.459155 62.524098 
L 78.861453 70.531902 
L 79.062602 68.108488 
L 79.263751 72.428488 
L 79.4649 72.63922 
L 79.666049 73.90361 
L 79.867198 72.955317 
L 80.671795 75.273366 
L 80.872944 77.486049 
L 81.074093 77.69678 
L 81.275242 77.486049 
L 81.476391 78.539707 
L 81.67754 75.484098 
L 81.878689 75.484098 
L 82.079838 75.168 
L 82.280987 72.744585 
L 82.482136 73.271415 
L 82.683285 66.106537 
L 83.286732 69.05678 
L 83.487881 76.010927 
L 83.68903 77.907512 
L 83.890179 77.69678 
L 84.091328 75.168 
L 84.292477 74.535805 
L 84.493626 68.424585 
L 84.694775 69.478244 
L 85.298222 65.579707 
L 85.499371 65.368976 
L 85.70052 67.581659 
L 85.901669 65.895805 
L 86.102819 67.370927 
L 86.505117 64.315317 
L 86.907415 68.951415 
L 87.108564 67.054829 
L 87.309713 66.317268 
L 87.510862 63.47239 
L 87.712011 63.683122 
L 87.91316 66.001171 
L 88.315458 64.315317 
L 88.516607 64.315317 
L 88.717756 63.47239 
L 88.918905 59.257756 
L 89.120054 61.891902 
L 89.321203 60.838244 
L 89.522352 58.098732 
L 89.723501 59.047024 
L 90.125799 63.367024 
L 90.326948 65.895805 
L 90.528097 64.631415 
L 90.729246 65.895805 
L 90.930395 72.217756 
L 91.131544 71.585561 
L 91.332693 72.217756 
L 91.533843 75.378732 
L 91.734992 73.90361 
L 91.936141 74.430439 
L 92.13729 74.430439 
L 92.338439 73.587512 
L 92.539588 73.587512 
L 92.740737 76.43239 
L 92.941886 72.849951 
L 93.143035 73.060683 
L 93.344184 69.794341 
L 93.545333 70.637268 
L 93.746482 69.58361 
L 93.947631 70.215805 
L 94.14878 70.215805 
L 94.551078 69.478244 
L 94.953376 71.901659 
L 95.154525 72.323122 
L 95.355674 71.796293 
L 95.556823 67.897756 
L 95.757972 69.267512 
L 95.959121 68.213854 
L 96.16027 70.110439 
L 96.361419 73.37678 
L 96.562568 71.690927 
L 96.763717 74.851902 
L 96.964867 73.692878 
L 97.166016 75.589463 
L 97.568314 73.587512 
L 97.769463 73.166049 
L 97.970612 75.062634 
L 98.171761 74.325073 
L 98.775208 82.227512 
L 98.976357 84.124098 
L 99.177506 82.01678 
L 99.378655 81.173854 
L 99.780953 86.86361 
L 99.982102 87.495805 
L 100.183251 87.074341 
L 100.3844 85.283122 
L 100.585549 84.545561 
L 100.786698 82.648976 
L 100.987847 82.859707 
L 101.188996 85.809951 
L 101.390145 85.493854 
L 101.591294 83.597268 
L 101.792443 83.175805 
L 102.194741 85.07239 
L 102.395891 87.179707 
L 102.59704 87.495805 
L 102.798189 89.39239 
L 102.999338 88.970927 
L 103.200487 92.342634 
L 103.401636 92.869463 
L 104.005083 85.704585 
L 104.206232 85.493854 
L 104.407381 84.650927 
L 104.60853 82.438244 
L 104.809679 83.702634 
L 105.010828 84.124098 
L 105.211977 83.702634 
L 105.413126 84.334829 
L 105.815424 83.491902 
L 106.016573 83.491902 
L 106.217722 88.128 
L 106.821169 80.75239 
L 107.424616 78.328976 
L 107.625765 78.645073 
L 107.826914 78.750439 
L 108.028064 79.066537 
L 108.229213 79.066537 
L 108.430362 78.855805 
L 108.631511 82.227512 
L 109.033809 80.541659 
L 109.234958 76.537756 
L 109.436107 75.484098 
L 109.637256 76.43239 
L 109.838405 72.849951 
L 110.039554 73.587512 
L 110.240703 73.692878 
L 110.643001 75.694829 
L 110.84415 75.589463 
L 111.447597 83.491902 
L 111.648746 84.756293 
L 112.252193 90.446049 
L 112.453342 90.446049 
L 112.654491 96.135805 
L 112.85564 95.925073 
L 113.861386 87.811902 
L 114.062535 87.390439 
L 114.263684 84.861659 
L 114.464833 84.650927 
L 114.665982 83.386537 
L 114.867131 84.334829 
L 115.06828 87.495805 
L 115.269429 86.968976 
L 115.872876 84.018732 
L 116.074025 85.493854 
L 116.275174 89.287024 
L 116.476323 88.970927 
L 116.677472 88.865561 
L 117.07977 90.65678 
L 117.280919 90.867512 
L 117.683217 92.237268 
L 117.884366 92.448 
L 118.085515 90.340683 
L 118.286664 90.446049 
L 118.487813 90.235317 
L 118.688962 92.342634 
L 118.890112 89.813854 
L 119.29241 88.760195 
L 119.493559 92.342634 
L 119.694708 93.817756 
L 119.895857 97.084098 
L 120.097006 93.923122 
L 120.298155 96.451902 
L 120.499304 96.135805 
L 120.901602 93.185561 
L 121.102751 92.131902 
L 121.706198 98.243122 
L 121.907347 94.555317 
L 122.510794 98.348488 
L 122.711943 97.084098 
L 122.913092 93.290927 
L 123.114241 91.815805 
L 123.31539 92.342634 
L 123.918837 96.346537 
L 124.119986 96.241171 
L 124.321136 97.505561 
L 124.522285 101.930927 
L 124.723434 96.451902 
L 125.125732 99.086049 
L 125.52803 95.50361 
L 125.729179 98.664585 
L 125.930328 98.55922 
L 126.131477 94.555317 
L 126.332626 94.555317 
L 126.533775 94.23922 
L 126.734924 95.714341 
L 126.936073 95.50361 
L 127.137222 94.449951 
L 127.338371 94.449951 
L 127.53952 95.714341 
L 128.142967 90.235317 
L 128.344116 91.710439 
L 128.545265 90.972878 
L 128.746414 91.815805 
L 128.947563 91.288976 
L 129.349861 92.974829 
L 129.55101 89.181659 
L 129.75216 89.497756 
L 129.953309 90.340683 
L 130.154458 89.287024 
L 130.355607 90.972878 
L 130.556756 93.923122 
L 130.757905 93.501659 
L 130.959054 94.449951 
L 131.160203 93.71239 
L 131.361352 93.923122 
L 131.562501 95.50361 
L 131.76365 96.135805 
L 131.964799 97.505561 
L 132.165948 96.873366 
L 132.568246 96.451902 
L 132.970544 93.923122 
L 133.372842 89.181659 
L 133.976289 89.181659 
L 134.177438 91.710439 
L 134.378587 92.131902 
L 134.579736 90.024585 
L 134.780885 89.91922 
L 134.982034 92.553366 
L 135.384333 90.340683 
L 135.585482 90.446049 
L 135.786631 91.710439 
L 135.98778 88.865561 
L 136.188929 89.39239 
L 136.390078 87.495805 
L 136.591227 89.181659 
L 136.792376 87.917268 
L 136.993525 88.128 
L 137.194674 89.39239 
L 137.596972 83.597268 
L 137.798121 82.859707 
L 137.99927 80.75239 
L 138.803866 87.811902 
L 139.005015 87.390439 
L 139.206164 86.547512 
L 139.407313 84.756293 
L 139.608462 85.388488 
L 140.01076 85.59922 
L 140.211909 86.442146 
L 140.413058 89.497756 
L 140.614208 86.758244 
L 140.815357 85.809951 
L 141.016506 90.446049 
L 141.217655 89.603122 
L 141.418804 90.65678 
L 141.619953 92.342634 
L 141.821102 91.921171 
L 142.022251 94.555317 
L 142.2234 94.555317 
L 142.424549 92.658732 
L 142.625698 89.287024 
L 142.826847 88.549463 
L 143.229145 90.340683 
L 143.631443 85.59922 
L 143.832592 86.547512 
L 144.23489 91.288976 
L 144.436039 90.65678 
L 144.637188 86.020683 
L 144.838337 88.338732 
L 145.039486 88.022634 
L 145.240635 90.129951 
L 145.441784 90.551415 
L 145.642933 89.497756 
L 145.844082 90.446049 
L 146.045231 88.865561 
L 146.246381 89.497756 
L 146.648679 92.342634 
L 146.849828 92.342634 
L 147.050977 90.65678 
L 147.252126 91.078244 
L 147.654424 96.030439 
L 147.855573 93.817756 
L 148.056722 93.923122 
L 148.257871 92.131902 
L 148.45902 92.869463 
L 148.660169 92.237268 
L 148.861318 92.974829 
L 149.062467 92.342634 
L 149.464765 92.448 
L 150.068212 88.970927 
L 150.269361 90.235317 
L 150.47051 93.080195 
L 150.872808 91.18361 
L 151.073957 94.555317 
L 151.275106 93.923122 
L 151.476255 93.817756 
L 151.878554 91.815805 
L 152.079703 90.867512 
L 152.280852 90.551415 
L 152.482001 90.972878 
L 152.68315 90.972878 
L 152.884299 90.762146 
L 153.085448 90.762146 
L 153.286597 92.026537 
L 153.487746 90.551415 
L 153.688895 87.179707 
L 153.890044 87.706537 
L 154.493491 97.400195 
L 154.69464 96.241171 
L 154.895789 93.501659 
L 155.096938 96.451902 
L 155.298087 96.451902 
L 155.499236 96.662634 
L 155.700385 95.819707 
L 155.901534 90.551415 
L 156.303832 95.50361 
L 156.504981 94.660683 
L 156.70613 95.608976 
L 156.907279 95.187512 
L 157.309578 97.610927 
L 157.510727 95.608976 
L 158.315323 99.718244 
L 158.516472 97.189463 
L 158.717621 96.978732 
L 158.91877 95.608976 
L 159.119919 91.815805 
L 159.321068 93.080195 
L 159.522217 91.078244 
L 159.924515 94.23922 
L 160.125664 94.133854 
L 160.527962 83.491902 
L 160.729111 83.070439 
L 160.93026 85.809951 
L 161.131409 85.388488 
L 161.332558 88.865561 
L 161.533707 86.652878 
L 161.734856 87.917268 
L 161.936005 86.547512 
L 162.137154 86.231415 
L 162.338303 87.074341 
L 162.539453 89.39239 
L 162.740602 89.603122 
L 162.941751 90.972878 
L 163.1429 90.972878 
L 163.344049 91.394341 
L 163.545198 90.972878 
L 163.746347 93.080195 
L 164.148645 92.448 
L 164.349794 91.815805 
L 164.953241 95.50361 
L 165.15439 95.292878 
L 165.355539 97.610927 
L 165.556688 97.400195 
L 165.757837 98.55922 
L 166.160135 102.141659 
L 166.562433 104.14361 
L 166.763582 103.406049 
L 166.964731 104.038244 
L 167.16588 102.141659 
L 167.367029 103.195317 
L 167.568178 103.300683 
L 168.171626 105.934829 
L 168.573924 104.248976 
L 168.775073 104.459707 
L 168.976222 106.145561 
L 169.177371 103.511415 
L 169.37852 103.089951 
L 169.579669 98.453854 
L 169.780818 102.668488 
L 169.981967 102.773854 
L 170.183116 104.986537 
L 170.384265 103.722146 
L 170.786563 94.766049 
L 170.987712 94.660683 
L 171.39001 100.666537 
L 171.591159 101.193366 
L 171.792308 100.139707 
L 171.993457 97.505561 
L 172.395755 105.302634 
L 172.596904 106.988488 
L 172.798053 107.409951 
L 173.200351 102.984585 
L 173.401501 102.984585 
L 173.60265 102.773854 
L 173.803799 103.195317 
L 174.004948 101.720195 
L 174.206097 103.932878 
L 174.407246 102.984585 
L 174.608395 102.984585 
L 174.809544 102.563122 
L 175.010693 101.404098 
L 175.211842 100.982634 
L 175.412991 99.29678 
L 175.61414 100.139707 
L 175.815289 100.139707 
L 176.016438 99.507512 
L 176.217587 102.036293 
L 176.418736 100.877268 
L 176.821034 106.567024 
L 177.022183 107.093854 
L 177.223332 109.095805 
L 177.424481 108.358244 
L 177.62563 104.354341 
L 177.826779 107.093854 
L 178.027928 101.509463 
L 178.229077 101.298732 
L 178.631375 100.666537 
L 178.832525 100.455805 
L 179.033674 100.666537 
L 179.234823 97.610927 
L 179.435972 100.561171 
L 179.637121 97.400195 
L 179.83827 97.400195 
L 180.039419 95.925073 
L 180.240568 96.030439 
L 180.441717 95.608976 
L 180.642866 94.871415 
L 180.844015 94.660683 
L 181.045164 92.131902 
L 181.246313 91.499707 
L 181.447462 91.710439 
L 181.648611 91.499707 
L 181.84976 92.131902 
L 182.050909 90.129951 
L 182.252058 91.499707 
L 182.453207 91.288976 
L 182.654356 93.607024 
L 182.855505 94.344585 
L 183.257803 93.290927 
L 183.458952 97.610927 
L 183.86125 100.245073 
L 184.062399 98.453854 
L 184.263548 97.716293 
L 184.464698 97.927024 
L 184.665847 98.875317 
L 184.866996 96.030439 
L 185.269294 98.664585 
L 185.671592 97.189463 
L 185.872741 99.507512 
L 186.07389 97.927024 
L 186.275039 98.875317 
L 186.476188 97.927024 
L 186.677337 95.608976 
L 186.878486 98.03239 
L 187.079635 98.243122 
L 187.481933 100.877268 
L 187.683082 100.455805 
L 187.884231 101.193366 
L 188.08538 100.771902 
L 188.487678 98.243122 
L 188.889976 101.404098 
L 189.091125 101.825561 
L 189.292274 103.195317 
L 189.493423 103.089951 
L 189.694572 105.408 
L 189.895722 106.250927 
L 190.096871 106.567024 
L 190.29802 108.674341 
L 190.499169 109.201171 
L 190.901467 111.51922 
L 191.102616 108.779707 
L 191.303765 108.358244 
L 191.504914 106.461659 
L 191.706063 111.940683 
L 191.907212 105.513366 
L 192.108361 106.461659 
L 192.30951 106.145561 
L 192.510659 106.356293 
L 192.711808 106.145561 
L 192.912957 107.19922 
L 193.114106 107.093854 
L 193.315255 105.197268 
L 193.516404 106.988488 
L 193.717553 107.19922 
L 193.918702 106.040195 
L 194.119851 107.93678 
L 194.321 105.197268 
L 194.522149 109.201171 
L 194.924447 106.250927 
L 195.326746 108.46361 
L 195.527895 111.413854 
L 195.729044 110.254829 
L 195.930193 112.678244 
L 196.131342 112.888976 
L 196.332491 111.940683 
L 196.53364 109.622634 
L 196.734789 110.570927 
L 196.935938 106.777756 
L 197.137087 106.567024 
L 197.338236 109.411902 
L 197.539385 107.831415 
L 197.740534 107.304585 
L 197.941683 109.728 
L 198.142832 107.19922 
L 198.343981 107.304585 
L 198.746279 104.354341 
L 198.947428 104.565073 
L 199.148577 104.459707 
L 199.349726 104.881171 
L 199.550875 103.089951 
L 199.752024 103.61678 
L 199.953173 98.55922 
L 200.55662 96.873366 
L 200.75777 97.610927 
L 200.958919 97.084098 
L 201.160068 95.187512 
L 201.763515 101.720195 
L 201.964664 101.825561 
L 202.165813 101.614829 
L 202.366962 100.982634 
L 202.76926 102.141659 
L 202.970409 100.877268 
L 203.171558 101.298732 
L 203.372707 103.195317 
L 203.573856 103.511415 
L 203.775005 106.145561 
L 203.976154 103.61678 
L 204.177303 104.14361 
L 204.579601 97.505561 
L 204.78075 95.082146 
L 204.981899 94.23922 
L 205.384197 101.720195 
L 205.585346 100.877268 
L 205.786495 102.984585 
L 205.987644 107.19922 
L 206.188794 107.831415 
L 206.389943 106.777756 
L 206.591092 110.570927 
L 206.792241 109.833366 
L 206.99339 107.620683 
L 207.596837 112.467512 
L 207.797986 114.469463 
L 207.999135 112.78361 
L 208.200284 114.996293 
L 208.401433 114.258732 
L 208.602582 111.940683 
L 208.803731 110.99239 
L 209.00488 108.885073 
L 209.206029 108.358244 
L 209.407178 106.250927 
L 209.608327 106.250927 
L 209.809476 108.252878 
L 210.010625 105.934829 
L 210.211774 105.934829 
L 210.614072 109.411902 
L 210.815221 110.465561 
L 211.217519 107.304585 
L 212.022116 113.310439 
L 212.223265 113.626537 
L 212.424414 115.31239 
L 212.826712 113.521171 
L 213.027861 113.310439 
L 213.22901 114.785561 
L 213.430159 115.101659 
L 213.631308 122.055805 
L 213.832457 122.161171 
L 214.033606 119.527024 
L 214.234755 120.89678 
L 214.435904 120.686049 
L 214.637053 122.793366 
L 214.838202 123.320195 
L 215.039351 120.369951 
L 215.2405 121.42361 
L 215.441649 119.948488 
L 215.642798 119.527024 
L 215.843947 116.471415 
L 216.045096 115.417756 
L 216.447394 116.049951 
L 216.648543 115.628488 
L 217.050842 113.942634 
L 217.251991 115.101659 
L 217.45314 114.258732 
L 217.855438 115.628488 
L 218.056587 111.835317 
L 218.257736 111.308488 
L 218.458885 114.680195 
L 218.660034 111.308488 
L 218.861183 113.837268 
L 219.062332 107.93678 
L 219.263481 107.093854 
L 219.46463 109.306537 
L 219.665779 109.517268 
L 219.866928 109.306537 
L 220.068077 109.728 
L 220.269226 110.676293 
L 220.470375 109.201171 
L 220.671524 110.360195 
L 220.872673 110.149463 
L 221.073822 115.733854 
L 221.274971 115.523122 
L 221.47612 117.735805 
L 221.677269 114.680195 
L 221.878418 113.942634 
L 222.079567 115.207024 
L 222.280716 117.630439 
L 222.683015 119.000195 
L 223.085313 114.785561 
L 223.286462 115.944585 
L 223.487611 115.733854 
L 223.68876 115.31239 
L 223.889909 117.208976 
L 224.091058 116.366049 
L 224.292207 117.419707 
L 224.694505 123.004098 
L 224.895654 123.425561 
L 225.096803 123.425561 
L 225.297952 121.634341 
L 225.499101 122.898732 
L 225.70025 125.111415 
L 225.901399 124.268488 
L 226.102548 125.21678 
L 226.303697 125.322146 
L 226.504846 122.371902 
L 226.705995 125.532878 
L 226.907144 124.795317 
L 227.108293 123.425561 
L 227.309442 124.689951 
L 227.510591 123.636293 
L 227.71174 124.163122 
L 227.912889 122.688 
L 228.315188 122.688 
L 228.516337 124.689951 
L 228.717486 124.584585 
L 228.918635 123.109463 
L 229.119784 123.530927 
L 229.320933 123.109463 
L 229.522082 125.638244 
L 229.92438 124.584585 
L 230.125529 124.163122 
L 230.326678 124.689951 
L 230.527827 123.741659 
L 230.728976 123.530927 
L 230.930125 124.584585 
L 231.734721 126.270439 
L 232.137019 124.689951 
L 232.338168 125.74361 
L 232.539317 125.74361 
L 232.740466 128.377756 
L 232.941615 129.220683 
L 233.142764 129.115317 
L 233.343913 129.326049 
L 233.545063 129.326049 
L 233.746212 129.958244 
L 233.947361 131.222634 
L 234.14851 130.168976 
L 234.349659 132.381659 
L 234.550808 133.013854 
L 234.953106 127.534829 
L 235.154255 131.222634 
L 235.355404 130.695805 
L 235.556553 129.747512 
L 235.757702 130.274341 
L 235.958851 131.538732 
L 236.16 131.538732 
L 236.361149 130.906537 
L 236.562298 131.538732 
L 236.763447 130.485073 
L 236.964596 130.695805 
L 237.165745 131.960195 
L 237.366894 131.538732 
L 237.568043 131.644098 
L 237.769192 130.906537 
L 238.17149 135.226537 
L 238.774937 132.803122 
L 238.976087 133.435317 
L 239.177236 135.121171 
L 239.378385 135.542634 
L 239.579534 135.437268 
L 239.780683 134.488976 
L 239.981832 132.065561 
L 240.182981 131.011902 
L 240.38413 134.699707 
L 240.585279 135.542634 
L 240.786428 133.013854 
L 240.987577 132.170927 
L 241.188726 133.435317 
L 241.389875 132.908488 
L 241.591024 131.749463 
L 241.792173 129.115317 
L 242.194471 130.168976 
L 242.39562 129.642146 
L 242.797918 134.172878 
L 242.999067 135.226537 
L 243.200216 135.331902 
L 243.401365 134.488976 
L 243.602514 134.278244 
L 243.803663 133.540683 
L 244.004812 134.067512 
L 244.205961 131.854829 
L 244.809409 132.59239 
L 245.010558 133.435317 
L 245.412856 128.693854 
L 245.614005 128.693854 
L 245.815154 130.06361 
L 246.217452 129.326049 
L 246.418601 127.008 
L 246.61975 130.274341 
L 246.820899 129.431415 
L 247.022048 129.220683 
L 247.223197 127.850927 
L 247.424346 127.429463 
L 247.625495 128.79922 
L 248.027793 123.847024 
L 248.228942 123.741659 
L 248.430091 124.584585 
L 248.63124 126.797268 
L 248.832389 126.797268 
L 249.033538 128.27239 
L 249.234687 126.902634 
L 249.435836 127.534829 
L 249.636985 127.429463 
L 249.838135 128.588488 
L 250.039284 126.059707 
L 250.240433 125.74361 
L 250.84388 120.89678 
L 251.045029 120.053854 
L 251.246178 120.15922 
L 251.447327 119.843122 
L 251.648476 119.948488 
L 252.050774 115.207024 
L 252.251923 114.785561 
L 252.654221 117.735805 
L 252.85537 116.049951 
L 253.257668 118.473366 
L 253.659966 115.944585 
L 253.861115 114.785561 
L 254.062264 115.733854 
L 254.263413 115.628488 
L 254.464562 116.049951 
L 254.665711 119.210927 
L 255.068009 118.368 
L 255.470308 115.83922 
L 255.671457 118.368 
L 255.872606 117.735805 
L 256.073755 114.785561 
L 256.274904 117.10361 
L 256.476053 116.57678 
L 256.677202 117.208976 
L 256.878351 117.208976 
L 257.0795 118.051902 
L 257.280649 118.262634 
L 257.481798 119.105561 
L 257.884096 119.527024 
L 258.085245 123.109463 
L 258.286394 123.530927 
L 258.688692 126.375805 
L 258.889841 126.270439 
L 259.09099 127.850927 
L 259.292139 126.797268 
L 259.493288 126.586537 
L 259.895586 125.532878 
L 260.096735 128.483122 
L 260.297884 128.167024 
L 260.700182 130.695805 
L 260.901332 130.274341 
L 261.102481 130.274341 
L 261.30363 129.958244 
L 261.504779 130.485073 
L 261.705928 129.642146 
L 261.907077 129.642146 
L 262.108226 129.431415 
L 262.309375 128.904585 
L 262.510524 129.326049 
L 262.912822 130.695805 
L 263.113971 130.06361 
L 263.31512 131.011902 
L 263.717418 129.53678 
L 263.918567 130.590439 
L 264.119716 129.852878 
L 264.320865 130.274341 
L 264.522014 130.274341 
L 264.723163 129.326049 
L 264.924312 130.379707 
L 265.125461 127.956293 
L 265.32661 128.27239 
L 265.930057 127.850927 
L 266.131206 127.218732 
L 266.332356 128.483122 
L 266.533505 128.27239 
L 266.734654 127.850927 
L 266.935803 124.057756 
L 267.136952 124.47922 
L 267.338101 126.481171 
L 267.53925 126.165073 
L 267.740399 126.270439 
L 267.941548 125.111415 
L 268.343846 126.375805 
L 268.746144 122.898732 
L 268.947293 124.795317 
L 269.148442 124.689951 
L 269.349591 124.900683 
L 269.55074 124.689951 
L 269.751889 123.847024 
L 269.953038 123.847024 
L 270.154187 124.057756 
L 270.355336 128.483122 
L 270.556485 127.956293 
L 270.958783 129.53678 
L 271.159932 130.379707 
L 271.361081 130.590439 
L 271.76338 133.751415 
L 271.964529 134.699707 
L 272.366827 135.226537 
L 272.567976 135.648 
L 272.970274 137.228488 
L 273.372572 141.337756 
L 273.976019 140.178732 
L 274.177168 140.284098 
L 274.378317 141.337756 
L 274.579466 140.705561 
L 274.780615 139.125073 
L 274.981764 138.914341 
L 275.182913 141.75922 
L 275.384062 142.391415 
L 275.585211 144.077268 
L 275.78636 143.128976 
L 276.389807 147.027512 
L 276.792105 146.289951 
L 276.993254 146.289951 
L 277.596702 149.450927 
L 277.797851 153.454829 
L 278.200149 154.71922 
L 278.401298 154.087024 
L 278.602447 154.297756 
L 278.803596 154.71922 
L 279.004745 154.71922 
L 279.205894 153.560195 
L 279.407043 153.665561 
L 279.608192 152.822634 
L 279.809341 155.667512 
L 280.01049 155.667512 
L 280.211639 155.140683 
L 280.412788 155.878244 
L 280.613937 155.878244 
L 280.815086 155.45678 
L 281.016235 157.142634 
L 281.418533 156.510439 
L 281.619682 157.774829 
L 281.820831 157.774829 
L 282.223129 160.619707 
L 282.424278 160.619707 
L 282.826577 161.989463 
L 283.027726 160.725073 
L 283.228875 157.985561 
L 283.430024 159.03922 
L 283.631173 159.03922 
L 283.832322 157.880195 
L 284.23462 157.669463 
L 284.636918 155.45678 
L 284.838067 158.617756 
L 285.240365 159.355317 
L 285.441514 159.460683 
L 285.642663 159.355317 
L 285.843812 160.830439 
L 286.044961 161.146537 
L 286.24611 161.673366 
L 286.447259 163.780683 
L 286.648408 163.35922 
L 286.849557 163.35922 
L 287.050706 163.780683 
L 287.251855 165.782634 
L 287.453004 164.62361 
L 287.654153 167.67922 
L 287.855302 166.941659 
L 288.257601 166.836293 
L 288.45875 166.204098 
L 288.659899 167.468488 
L 288.861048 167.784585 
L 289.062197 168.41678 
L 289.263346 169.575805 
L 289.464495 169.997268 
L 289.665644 169.681171 
L 289.866793 170.945561 
L 290.269091 168.41678 
L 290.47024 168.838244 
L 290.671389 169.681171 
L 290.872538 169.997268 
L 291.073687 170.629463 
L 291.274836 170.208 
L 291.475985 170.524098 
L 291.677134 171.050927 
L 291.878283 171.893854 
L 292.079432 171.367024 
L 292.280581 174.422634 
L 292.884028 174.106537 
L 293.085177 173.474341 
L 293.286326 173.26361 
L 293.487475 174.106537 
L 293.688625 173.052878 
L 293.889774 172.947512 
L 294.292072 175.265561 
L 294.493221 174.738732 
L 294.69437 174.949463 
L 294.895519 174.633366 
L 295.096668 174.633366 
L 295.297817 172.73678 
L 295.498966 173.685073 
L 295.700115 174.001171 
L 295.901264 176.635317 
L 296.303562 175.160195 
L 296.504711 174.949463 
L 296.907009 173.052878 
L 297.108158 173.895805 
L 297.309307 174.106537 
L 297.510456 175.370927 
L 297.711605 175.160195 
L 298.113903 177.05678 
L 298.315052 177.05678 
L 298.516201 177.899707 
L 298.71735 181.587512 
L 299.119649 181.587512 
L 299.320798 181.166049 
L 299.521947 181.37678 
L 299.723096 180.11239 
L 299.924245 180.533854 
L 300.125394 177.58361 
L 300.326543 178.321171 
L 300.728841 180.323122 
L 300.92999 181.166049 
L 301.131139 181.060683 
L 301.332288 181.37678 
L 301.533437 180.217756 
L 301.734586 180.63922 
L 301.935735 180.217756 
L 302.136884 182.535805 
L 302.338033 179.374829 
L 302.539182 180.323122 
L 302.740331 183.484098 
L 302.94148 183.484098 
L 303.142629 183.694829 
L 303.343778 184.537756 
L 303.544927 184.116293 
L 303.746076 184.010927 
L 303.947225 186.961171 
L 304.349523 188.647024 
L 304.550673 188.647024 
L 304.751822 188.436293 
L 304.952971 189.595317 
L 305.15412 189.384585 
L 305.355269 189.806049 
L 305.556418 191.491902 
L 305.757567 190.859707 
L 305.958716 193.493854 
L 306.159865 193.493854 
L 306.562163 194.968976 
L 306.964461 195.074341 
L 307.366759 196.549463 
L 307.567908 198.65678 
L 307.769057 198.65678 
L 307.970206 198.867512 
L 308.171355 199.605073 
L 308.372504 199.605073 
L 308.573653 202.028488 
L 308.774802 201.923122 
L 308.975951 201.501659 
L 309.1771 201.396293 
L 309.378249 201.71239 
L 309.780547 201.290927 
L 309.981697 201.501659 
L 310.182846 202.766049 
L 310.585144 203.50361 
L 310.786293 203.608976 
L 310.987442 204.557268 
L 311.38974 209.298732 
L 311.590889 209.509463 
L 311.993187 211.722146 
L 312.395485 211.827512 
L 312.596634 212.038244 
L 312.797783 213.197268 
L 312.998932 213.408 
L 313.200081 213.302634 
L 313.602379 212.775805 
L 313.803528 212.881171 
L 314.004677 213.724098 
L 314.406975 217.833366 
L 315.010422 221.415805 
L 315.211571 222.048 
L 315.412721 222.048 
L 315.61387 222.258732 
L 316.016168 221.626537 
L 316.217317 222.048 
L 316.418466 221.942634 
L 316.619615 222.364098 
L 316.820764 222.153366 
L 317.021913 223.101659 
L 317.223062 223.101659 
L 317.424211 223.31239 
L 317.62536 223.944585 
L 317.826509 223.944585 
L 318.027658 223.207024 
L 318.631105 225.735805 
L 318.832254 225.735805 
L 319.033403 226.157268 
L 319.234552 226.157268 
L 319.435701 225.841171 
L 319.63685 225.841171 
L 319.837999 226.262634 
L 320.039148 226.368 
L 320.240297 227.421659 
L 320.441446 227.210927 
L 320.642595 227.210927 
L 320.843745 227.843122 
L 321.044894 227.843122 
L 321.246043 228.053854 
L 321.84949 228.15922 
L 322.050639 229.212878 
L 322.251788 229.42361 
L 322.452937 228.89678 
L 322.654086 231.004098 
L 322.855235 231.004098 
L 323.056384 230.161171 
L 323.257533 230.688 
L 323.458682 230.898732 
L 323.659831 232.163122 
L 323.86098 232.163122 
L 324.464427 232.689951 
L 324.665576 233.74361 
L 324.866725 234.165073 
L 325.067874 234.165073 
L 325.269023 234.586537 
L 326.475918 234.691902 
L 326.677067 235.113366 
L 326.878216 235.113366 
L 327.079365 235.534829 
L 327.481663 235.640195 
L 327.682812 235.218732 
L 328.286259 237.326049 
L 328.487408 237.53678 
L 328.889706 237.53678 
L 329.090855 237.852878 
L 329.694302 237.958244 
L 329.895451 238.274341 
L 330.297749 240.276293 
L 330.700047 240.276293 
L 331.102345 240.697756 
L 331.504643 243.542634 
L 331.705792 243.753366 
L 331.906942 243.753366 
L 332.30924 245.017756 
L 332.711538 244.91239 
L 332.912687 244.490927 
L 333.113836 243.437268 
L 333.314985 243.858732 
L 333.516134 243.648 
L 333.717283 244.91239 
L 333.918432 245.43922 
L 334.521879 245.860683 
L 334.723028 246.598244 
L 334.924177 246.598244 
L 335.326475 247.862634 
L 335.527624 247.862634 
L 335.929922 248.494829 
L 336.131071 248.284098 
L 336.533369 249.864585 
L 336.734518 249.443122 
L 336.935667 249.443122 
L 337.136816 249.75922 
L 337.337966 251.234341 
L 337.539115 251.655805 
L 337.740264 251.655805 
L 337.941413 251.866537 
L 338.142562 253.130927 
L 338.54486 253.973854 
L 338.947158 254.500683 
L 339.349456 255.027512 
L 339.550605 255.870439 
L 339.751754 255.975805 
L 340.154052 256.924098 
L 340.355201 256.924098 
L 340.55635 258.39922 
L 340.757499 257.345561 
L 340.958648 257.977756 
L 341.159797 258.083122 
L 341.360946 257.87239 
L 341.562095 258.083122 
L 341.763244 257.87239 
L 341.964393 258.083122 
L 342.970139 258.188488 
L 343.372437 258.504585 
L 343.573586 258.609951 
L 343.774735 259.13678 
L 344.177033 259.13678 
L 344.378182 259.347512 
L 345.585076 261.770927 
L 346.188523 261.770927 
L 346.389672 262.19239 
L 346.590821 262.19239 
L 346.993119 263.562146 
L 347.194268 263.562146 
L 347.395417 263.772878 
L 347.596566 263.772878 
L 347.797715 264.194341 
L 348.200014 264.194341 
L 348.401163 264.405073 
L 349.00461 266.617756 
L 349.406908 266.933854 
L 350.010355 266.933854 
L 350.412653 267.249951 
L 350.613802 267.249951 
L 350.814951 267.671415 
L 351.0161 267.566049 
L 351.217249 268.092878 
L 351.619547 268.408976 
L 351.820696 268.408976 
L 352.021845 269.041171 
L 352.222994 269.041171 
L 352.424143 269.251902 
L 352.826441 270.410927 
L 353.631038 270.937756 
L 353.832187 271.569951 
L 354.234485 271.991415 
L 354.435634 271.780683 
L 354.636783 272.202146 
L 354.837932 272.202146 
L 355.24023 272.834341 
L 356.044826 272.834341 
L 356.245975 272.412878 
L 356.447124 272.62361 
L 357.452869 272.62361 
L 357.654018 272.202146 
L 358.257465 272.202146 
L 358.458614 272.62361 
L 358.659763 273.677268 
L 359.062062 273.677268 
L 359.665509 275.15239 
L 360.067807 275.468488 
L 360.470105 276.206049 
L 360.872403 276.627512 
L 361.274701 277.259707 
L 361.47585 277.259707 
L 361.676999 276.94361 
L 361.878148 277.365073 
L 362.481595 277.365073 
L 362.682744 278.418732 
L 363.085042 279.050927 
L 363.286191 279.261659 
L 363.688489 279.893854 
L 364.493086 279.893854 
L 364.694235 279.261659 
L 364.895384 279.261659 
L 365.096533 279.683122 
L 365.297682 280.947512 
L 366.303427 281.895805 
L 366.705725 282.001171 
L 367.108023 282.422634 
L 367.309172 282.844098 
L 367.912619 282.844098 
L 368.113768 283.370927 
L 368.516066 283.370927 
L 368.717215 282.844098 
L 368.918364 283.054829 
L 369.119513 283.054829 
L 369.320662 283.265561 
L 369.521811 283.687024 
L 369.72296 283.687024 
L 369.924109 284.31922 
L 370.326408 284.31922 
L 370.527557 284.108488 
L 370.929855 284.846049 
L 371.131004 284.846049 
L 371.332153 285.05678 
L 371.734451 285.05678 
L 371.9356 286.215805 
L 372.337898 286.215805 
L 372.539047 286.848 
L 372.941345 287.164098 
L 373.142494 285.899707 
L 373.343643 285.899707 
L 373.544792 285.267512 
L 373.745941 285.267512 
L 373.94709 285.688976 
L 374.148239 285.794341 
L 374.349388 286.215805 
L 375.556283 286.215805 
L 375.757432 286.426537 
L 375.958581 285.899707 
L 377.165475 285.899707 
L 377.567773 286.215805 
L 377.768922 286.215805 
L 378.372369 286.742634 
L 378.573518 286.742634 
L 378.774667 287.058732 
L 378.975816 287.058732 
L 379.176965 288.217756 
L 379.378114 288.217756 
L 379.780412 288.533854 
L 379.981561 288.533854 
L 380.383859 288.955317 
L 380.585008 288.955317 
L 380.786157 289.166049 
L 380.987307 288.744585 
L 381.188456 288.744585 
L 381.389605 289.166049 
L 381.993052 289.166049 
L 382.194201 289.37678 
L 382.39535 289.37678 
L 382.596499 289.90361 
L 382.797648 290.114341 
L 382.998797 289.90361 
L 383.602244 290.114341 
L 384.004542 290.114341 
L 384.205691 290.957268 
L 385.010287 290.957268 
L 385.211436 291.589463 
L 385.412585 291.589463 
L 386.016032 292.95922 
L 386.61948 293.064585 
L 386.820629 293.275317 
L 387.021778 292.43239 
L 387.424076 292.43239 
L 387.625225 292.748488 
L 388.027523 292.748488 
L 388.228672 292.537756 
L 388.429821 291.905561 
L 388.63097 291.800195 
L 389.234417 292.221659 
L 389.435566 290.535805 
L 390.240162 290.535805 
L 390.64246 291.905561 
L 390.843609 291.905561 
L 391.245907 292.43239 
L 391.849355 293.486049 
L 392.251653 293.591415 
L 392.452802 293.802146 
L 392.653951 293.802146 
L 392.8551 294.328976 
L 394.464292 294.328976 
L 394.86659 293.802146 
L 395.268888 293.802146 
L 395.470037 293.169951 
L 395.872335 293.169951 
L 396.274633 293.69678 
L 396.475782 293.69678 
L 396.676931 293.907512 
L 396.87808 293.907512 
L 397.280379 294.539707 
L 397.682677 294.539707 
L 398.487273 295.488 
L 398.487273 295.488 
" clip-path="url(#pb85d94af78)" style="fill: none; stroke: #1f77b4; stroke-width: 1.5; stroke-linecap: square"/>
   </g>
   <g id="patch_3">
    <path d="M 57.6 307.584 
L 57.6 41.472 
" style="fill: none; stroke: #000000; stroke-width: 0.8; stroke-linejoin: miter; stroke-linecap: square"/>
   </g>
   <g id="patch_4">
    <path d="M 414.72 307.584 
L 414.72 41.472 
" style="fill: none; stroke: #000000; stroke-width: 0.8; stroke-linejoin: miter; stroke-linecap: square"/>
   </g>
   <g id="patch_5">
    <path d="M 57.6 307.584 
L 414.72 307.584 
" style="fill: none; stroke: #000000; stroke-width: 0.8; stroke-linejoin: miter; stroke-linecap: square"/>
   </g>
   <g id="patch_6">
    <path d="M 57.6 41.472 
L 414.72 41.472 
" style="fill: none; stroke: #000000; stroke-width: 0.8; stroke-linejoin: miter; stroke-linecap: square"/>
   </g>
   <g id="text_15">
    <!-- Simulated Anealling Cost -->
    <g transform="translate(160.8 35.472)scale(0.12 -0.12)">
     <defs>
      <path id="DejaVuSans-53" d="M 3425 4513 
L 3425 3897 
Q 3066 4069 2747 4153 
Q 2428 4238 2131 4238 
Q 1616 4238 1336 4038 
Q 1056 3838 1056 3469 
Q 1056 3159 1242 3001 
Q 1428 2844 1947 2747 
L 2328 2669 
Q 3034 2534 3370 2195 
Q 3706 1856 3706 1288 
Q 3706 609 3251 259 
Q 2797 -91 1919 -91 
Q 1588 -91 1214 -16 
Q 841 59 441 206 
L 441 856 
Q 825 641 1194 531 
Q 1563 422 1919 422 
Q 2459 422 2753 634 
Q 3047 847 3047 1241 
Q 3047 1584 2836 1778 
Q 2625 1972 2144 2069 
L 1759 2144 
Q 1053 2284 737 2584 
Q 422 2884 422 3419 
Q 422 4038 858 4394 
Q 1294 4750 2059 4750 
Q 2388 4750 2728 4690 
Q 3069 4631 3425 4513 
z
" transform="scale(0.015625)"/>
      <path id="DejaVuSans-69" d="M 603 3500 
L 1178 3500 
L 1178 0 
L 603 0 
L 603 3500 
z
M 603 4863 
L 1178 4863 
L 1178 4134 
L 603 4134 
L 603 4863 
z
" transform="scale(0.015625)"/>
      <path id="DejaVuSans-65" d="M 3597 1894 
L 3597 1613 
L 953 1613 
Q 991 1019 1311 708 
Q 1631 397 2203 397 
Q 2534 397 2845 478 
Q 3156 559 3463 722 
L 3463 178 
Q 3153 47 2828 -22 
Q 2503 -91 2169 -91 
Q 1331 -91 842 396 
Q 353 884 353 1716 
Q 353 2575 817 3079 
Q 1281 3584 2069 3584 
Q 2775 3584 3186 3129 
Q 3597 2675 3597 1894 
z
M 3022 2063 
Q 3016 2534 2758 2815 
Q 2500 3097 2075 3097 
Q 1594 3097 1305 2825 
Q 1016 2553 972 2059 
L 3022 2063 
z
" transform="scale(0.015625)"/>
      <path id="DejaVuSans-64" d="M 2906 2969 
L 2906 4863 
L 3481 4863 
L 3481 0 
L 2906 0 
L 2906 525 
Q 2725 213 2448 61 
Q 2172 -91 1784 -91 
Q 1150 -91 751 415 
Q 353 922 353 1747 
Q 353 2572 751 3078 
Q 1150 3584 1784 3584 
Q 2172 3584 2448 3432 
Q 2725 3281 2906 2969 
z
M 947 1747 
Q 947 1113 1208 752 
Q 1469 391 1925 391 
Q 2381 391 2643 752 
Q 2906 1113 2906 1747 
Q 2906 2381 2643 2742 
Q 2381 3103 1925 3103 
Q 1469 3103 1208 2742 
Q 947 2381 947 1747 
z
" transform="scale(0.015625)"/>
      <path id="DejaVuSans-41" d="M 2188 4044 
L 1331 1722 
L 3047 1722 
L 2188 4044 
z
M 1831 4666 
L 2547 4666 
L 4325 0 
L 3669 0 
L 3244 1197 
L 1141 1197 
L 716 0 
L 50 0 
L 1831 4666 
z
" transform="scale(0.015625)"/>
      <path id="DejaVuSans-67" d="M 2906 1791 
Q 2906 2416 2648 2759 
Q 2391 3103 1925 3103 
Q 1463 3103 1205 2759 
Q 947 2416 947 1791 
Q 947 1169 1205 825 
Q 1463 481 1925 481 
Q 2391 481 2648 825 
Q 2906 1169 2906 1791 
z
M 3481 434 
Q 3481 -459 3084 -895 
Q 2688 -1331 1869 -1331 
Q 1566 -1331 1297 -1286 
Q 1028 -1241 775 -1147 
L 775 -588 
Q 1028 -725 1275 -790 
Q 1522 -856 1778 -856 
Q 2344 -856 2625 -561 
Q 2906 -266 2906 331 
L 2906 616 
Q 2728 306 2450 153 
Q 2172 0 1784 0 
Q 1141 0 747 490 
Q 353 981 353 1791 
Q 353 2603 747 3093 
Q 1141 3584 1784 3584 
Q 2172 3584 2450 3431 
Q 2728 3278 2906 2969 
L 2906 3500 
L 3481 3500 
L 3481 434 
z
" transform="scale(0.015625)"/>
      <path id="DejaVuSans-43" d="M 4122 4306 
L 4122 3641 
Q 3803 3938 3442 4084 
Q 3081 4231 2675 4231 
Q 1875 4231 1450 3742 
Q 1025 3253 1025 2328 
Q 1025 1406 1450 917 
Q 1875 428 2675 428 
Q 3081 428 3442 575 
Q 3803 722 4122 1019 
L 4122 359 
Q 3791 134 3420 21 
Q 3050 -91 2638 -91 
Q 1578 -91 968 557 
Q 359 1206 359 2328 
Q 359 3453 968 4101 
Q 1578 4750 2638 4750 
Q 3056 4750 3426 4639 
Q 3797 4528 4122 4306 
z
" transform="scale(0.015625)"/>
     </defs>
     <use xlink:href="#DejaVuSans-53"/>
     <use xlink:href="#DejaVuSans-69" x="63.476562"/>
     <use xlink:href="#DejaVuSans-6d" x="91.259766"/>
     <use xlink:href="#DejaVuSans-75" x="188.671875"/>
     <use xlink:href="#DejaVuSans-6c" x="252.050781"/>
     <use xlink:href="#DejaVuSans-61" x="279.833984"/>
     <use xlink:href="#DejaVuSans-74" x="341.113281"/>
     <use xlink:href="#DejaVuSans-65" x="380.322266"/>
     <use xlink:href="#DejaVuSans-64" x="441.845703"/>
     <use xlink:href="#DejaVuSans-20" x="505.322266"/>
     <use xlink:href="#DejaVuSans-41" x="537.109375"/>
     <use xlink:href="#DejaVuSans-6e" x="605.517578"/>
     <use xlink:href="#DejaVuSans-65" x="668.896484"/>
     <use xlink:href="#DejaVuSans-61" x="730.419922"/>
     <use xlink:href="#DejaVuSans-6c" x="791.699219"/>
     <use xlink:href="#DejaVuSans-6c" x="819.482422"/>
     <use xlink:href="#DejaVuSans-69" x="847.265625"/>
     <use xlink:href="#DejaVuSans-6e" x="875.048828"/>
     <use xlink:href="#DejaVuSans-67" x="938.427734"/>
     <use xlink:href="#DejaVuSans-20" x="1001.904297"/>
     <use xlink:href="#DejaVuSans-43" x="1033.691406"/>
     <use xlink:href="#DejaVuSans-6f" x="1103.515625"/>
     <use xlink:href="#DejaVuSans-73" x="1164.697266"/>
     <use xlink:href="#DejaVuSans-74" x="1216.796875"/>
    </g>
   </g>
  </g>
 </g>
 <defs>
  <clipPath id="pb85d94af78">
   <rect x="57.6" y="41.472" width="357.12" height="266.112"/>
  </clipPath>
 </defs>
</svg>
