<?xml version="1.0" encoding="utf-8" standalone="no"?>
<!DOCTYPE svg PUBLIC "-//W3C//DTD SVG 1.1//EN"
  "http://www.w3.org/Graphics/SVG/1.1/DTD/svg11.dtd">
<svg xmlns:xlink="http://www.w3.org/1999/xlink" width="460.8pt" height="345.6pt" viewBox="0 0 460.8 345.6" xmlns="http://www.w3.org/2000/svg" version="1.1">
 <metadata>
  <rdf:RDF xmlns:dc="http://purl.org/dc/elements/1.1/" xmlns:cc="http://creativecommons.org/ns#" xmlns:rdf="http://www.w3.org/1999/02/22-rdf-syntax-ns#">
   <cc:Work>
    <dc:type rdf:resource="http://purl.org/dc/dcmitype/StillImage"/>
    <dc:date>2022-06-01T08:04:31.300099</dc:date>
    <dc:format>image/svg+xml</dc:format>
    <dc:creator>
     <cc:Agent>
      <dc:title>Matplotlib v3.5.1, https://matplotlib.org/</dc:title>
     </cc:Agent>
    </dc:creator>
   </cc:Work>
  </rdf:RDF>
 </metadata>
 <defs>
  <style type="text/css">*{stroke-linejoin: round; stroke-linecap: butt}</style>
 </defs>
 <g id="figure_1">
  <g id="patch_1">
   <path d="M 0 345.6 
L 460.8 345.6 
L 460.8 0 
L 0 0 
z
" style="fill: #ffffff"/>
  </g>
  <g id="axes_1">
   <g id="patch_2">
    <path d="M 57.6 307.584 
L 414.72 307.584 
L 414.72 41.472 
L 57.6 41.472 
z
" style="fill: #ffffff"/>
   </g>
   <g id="matplotlib.axis_1">
    <g id="xtick_1">
     <g id="line2d_1">
      <defs>
       <path id="mea8962e4d0" d="M 0 0 
L 0 3.5 
" style="stroke: #000000; stroke-width: 0.8"/>
      </defs>
      <g>
       <use xlink:href="#mea8962e4d0" x="73.832727" y="307.584" style="stroke: #000000; stroke-width: 0.8"/>
      </g>
     </g>
     <g id="text_1">
      <!-- 0 -->
      <g transform="translate(70.651477 322.182437)scale(0.1 -0.1)">
       <defs>
        <path id="DejaVuSans-30" d="M 2034 4250 
Q 1547 4250 1301 3770 
Q 1056 3291 1056 2328 
Q 1056 1369 1301 889 
Q 1547 409 2034 409 
Q 2525 409 2770 889 
Q 3016 1369 3016 2328 
Q 3016 3291 2770 3770 
Q 2525 4250 2034 4250 
z
M 2034 4750 
Q 2819 4750 3233 4129 
Q 3647 3509 3647 2328 
Q 3647 1150 3233 529 
Q 2819 -91 2034 -91 
Q 1250 -91 836 529 
Q 422 1150 422 2328 
Q 422 3509 836 4129 
Q 1250 4750 2034 4750 
z
" transform="scale(0.015625)"/>
       </defs>
       <use xlink:href="#DejaVuSans-30"/>
      </g>
     </g>
    </g>
    <g id="xtick_2">
     <g id="line2d_2">
      <g>
       <use xlink:href="#mea8962e4d0" x="120.211948" y="307.584" style="stroke: #000000; stroke-width: 0.8"/>
      </g>
     </g>
     <g id="text_2">
      <!-- 200 -->
      <g transform="translate(110.668198 322.182437)scale(0.1 -0.1)">
       <defs>
        <path id="DejaVuSans-32" d="M 1228 531 
L 3431 531 
L 3431 0 
L 469 0 
L 469 531 
Q 828 903 1448 1529 
Q 2069 2156 2228 2338 
Q 2531 2678 2651 2914 
Q 2772 3150 2772 3378 
Q 2772 3750 2511 3984 
Q 2250 4219 1831 4219 
Q 1534 4219 1204 4116 
Q 875 4013 500 3803 
L 500 4441 
Q 881 4594 1212 4672 
Q 1544 4750 1819 4750 
Q 2544 4750 2975 4387 
Q 3406 4025 3406 3419 
Q 3406 3131 3298 2873 
Q 3191 2616 2906 2266 
Q 2828 2175 2409 1742 
Q 1991 1309 1228 531 
z
" transform="scale(0.015625)"/>
       </defs>
       <use xlink:href="#DejaVuSans-32"/>
       <use xlink:href="#DejaVuSans-30" x="63.623047"/>
       <use xlink:href="#DejaVuSans-30" x="127.246094"/>
      </g>
     </g>
    </g>
    <g id="xtick_3">
     <g id="line2d_3">
      <g>
       <use xlink:href="#mea8962e4d0" x="166.591169" y="307.584" style="stroke: #000000; stroke-width: 0.8"/>
      </g>
     </g>
     <g id="text_3">
      <!-- 400 -->
      <g transform="translate(157.047419 322.182437)scale(0.1 -0.1)">
       <defs>
        <path id="DejaVuSans-34" d="M 2419 4116 
L 825 1625 
L 2419 1625 
L 2419 4116 
z
M 2253 4666 
L 3047 4666 
L 3047 1625 
L 3713 1625 
L 3713 1100 
L 3047 1100 
L 3047 0 
L 2419 0 
L 2419 1100 
L 313 1100 
L 313 1709 
L 2253 4666 
z
" transform="scale(0.015625)"/>
       </defs>
       <use xlink:href="#DejaVuSans-34"/>
       <use xlink:href="#DejaVuSans-30" x="63.623047"/>
       <use xlink:href="#DejaVuSans-30" x="127.246094"/>
      </g>
     </g>
    </g>
    <g id="xtick_4">
     <g id="line2d_4">
      <g>
       <use xlink:href="#mea8962e4d0" x="212.97039" y="307.584" style="stroke: #000000; stroke-width: 0.8"/>
      </g>
     </g>
     <g id="text_4">
      <!-- 600 -->
      <g transform="translate(203.42664 322.182437)scale(0.1 -0.1)">
       <defs>
        <path id="DejaVuSans-36" d="M 2113 2584 
Q 1688 2584 1439 2293 
Q 1191 2003 1191 1497 
Q 1191 994 1439 701 
Q 1688 409 2113 409 
Q 2538 409 2786 701 
Q 3034 994 3034 1497 
Q 3034 2003 2786 2293 
Q 2538 2584 2113 2584 
z
M 3366 4563 
L 3366 3988 
Q 3128 4100 2886 4159 
Q 2644 4219 2406 4219 
Q 1781 4219 1451 3797 
Q 1122 3375 1075 2522 
Q 1259 2794 1537 2939 
Q 1816 3084 2150 3084 
Q 2853 3084 3261 2657 
Q 3669 2231 3669 1497 
Q 3669 778 3244 343 
Q 2819 -91 2113 -91 
Q 1303 -91 875 529 
Q 447 1150 447 2328 
Q 447 3434 972 4092 
Q 1497 4750 2381 4750 
Q 2619 4750 2861 4703 
Q 3103 4656 3366 4563 
z
" transform="scale(0.015625)"/>
       </defs>
       <use xlink:href="#DejaVuSans-36"/>
       <use xlink:href="#DejaVuSans-30" x="63.623047"/>
       <use xlink:href="#DejaVuSans-30" x="127.246094"/>
      </g>
     </g>
    </g>
    <g id="xtick_5">
     <g id="line2d_5">
      <g>
       <use xlink:href="#mea8962e4d0" x="259.34961" y="307.584" style="stroke: #000000; stroke-width: 0.8"/>
      </g>
     </g>
     <g id="text_5">
      <!-- 800 -->
      <g transform="translate(249.80586 322.182437)scale(0.1 -0.1)">
       <defs>
        <path id="DejaVuSans-38" d="M 2034 2216 
Q 1584 2216 1326 1975 
Q 1069 1734 1069 1313 
Q 1069 891 1326 650 
Q 1584 409 2034 409 
Q 2484 409 2743 651 
Q 3003 894 3003 1313 
Q 3003 1734 2745 1975 
Q 2488 2216 2034 2216 
z
M 1403 2484 
Q 997 2584 770 2862 
Q 544 3141 544 3541 
Q 544 4100 942 4425 
Q 1341 4750 2034 4750 
Q 2731 4750 3128 4425 
Q 3525 4100 3525 3541 
Q 3525 3141 3298 2862 
Q 3072 2584 2669 2484 
Q 3125 2378 3379 2068 
Q 3634 1759 3634 1313 
Q 3634 634 3220 271 
Q 2806 -91 2034 -91 
Q 1263 -91 848 271 
Q 434 634 434 1313 
Q 434 1759 690 2068 
Q 947 2378 1403 2484 
z
M 1172 3481 
Q 1172 3119 1398 2916 
Q 1625 2713 2034 2713 
Q 2441 2713 2670 2916 
Q 2900 3119 2900 3481 
Q 2900 3844 2670 4047 
Q 2441 4250 2034 4250 
Q 1625 4250 1398 4047 
Q 1172 3844 1172 3481 
z
" transform="scale(0.015625)"/>
       </defs>
       <use xlink:href="#DejaVuSans-38"/>
       <use xlink:href="#DejaVuSans-30" x="63.623047"/>
       <use xlink:href="#DejaVuSans-30" x="127.246094"/>
      </g>
     </g>
    </g>
    <g id="xtick_6">
     <g id="line2d_6">
      <g>
       <use xlink:href="#mea8962e4d0" x="305.728831" y="307.584" style="stroke: #000000; stroke-width: 0.8"/>
      </g>
     </g>
     <g id="text_6">
      <!-- 1000 -->
      <g transform="translate(293.003831 322.182437)scale(0.1 -0.1)">
       <defs>
        <path id="DejaVuSans-31" d="M 794 531 
L 1825 531 
L 1825 4091 
L 703 3866 
L 703 4441 
L 1819 4666 
L 2450 4666 
L 2450 531 
L 3481 531 
L 3481 0 
L 794 0 
L 794 531 
z
" transform="scale(0.015625)"/>
       </defs>
       <use xlink:href="#DejaVuSans-31"/>
       <use xlink:href="#DejaVuSans-30" x="63.623047"/>
       <use xlink:href="#DejaVuSans-30" x="127.246094"/>
       <use xlink:href="#DejaVuSans-30" x="190.869141"/>
      </g>
     </g>
    </g>
    <g id="xtick_7">
     <g id="line2d_7">
      <g>
       <use xlink:href="#mea8962e4d0" x="352.108052" y="307.584" style="stroke: #000000; stroke-width: 0.8"/>
      </g>
     </g>
     <g id="text_7">
      <!-- 1200 -->
      <g transform="translate(339.383052 322.182437)scale(0.1 -0.1)">
       <use xlink:href="#DejaVuSans-31"/>
       <use xlink:href="#DejaVuSans-32" x="63.623047"/>
       <use xlink:href="#DejaVuSans-30" x="127.246094"/>
       <use xlink:href="#DejaVuSans-30" x="190.869141"/>
      </g>
     </g>
    </g>
    <g id="xtick_8">
     <g id="line2d_8">
      <g>
       <use xlink:href="#mea8962e4d0" x="398.487273" y="307.584" style="stroke: #000000; stroke-width: 0.8"/>
      </g>
     </g>
     <g id="text_8">
      <!-- 1400 -->
      <g transform="translate(385.762273 322.182437)scale(0.1 -0.1)">
       <use xlink:href="#DejaVuSans-31"/>
       <use xlink:href="#DejaVuSans-34" x="63.623047"/>
       <use xlink:href="#DejaVuSans-30" x="127.246094"/>
       <use xlink:href="#DejaVuSans-30" x="190.869141"/>
      </g>
     </g>
    </g>
    <g id="text_9">
     <!-- num swaps -->
     <g transform="translate(207.826406 335.860562)scale(0.1 -0.1)">
      <defs>
       <path id="DejaVuSans-6e" d="M 3513 2113 
L 3513 0 
L 2938 0 
L 2938 2094 
Q 2938 2591 2744 2837 
Q 2550 3084 2163 3084 
Q 1697 3084 1428 2787 
Q 1159 2491 1159 1978 
L 1159 0 
L 581 0 
L 581 3500 
L 1159 3500 
L 1159 2956 
Q 1366 3272 1645 3428 
Q 1925 3584 2291 3584 
Q 2894 3584 3203 3211 
Q 3513 2838 3513 2113 
z
" transform="scale(0.015625)"/>
       <path id="DejaVuSans-75" d="M 544 1381 
L 544 3500 
L 1119 3500 
L 1119 1403 
Q 1119 906 1312 657 
Q 1506 409 1894 409 
Q 2359 409 2629 706 
Q 2900 1003 2900 1516 
L 2900 3500 
L 3475 3500 
L 3475 0 
L 2900 0 
L 2900 538 
Q 2691 219 2414 64 
Q 2138 -91 1772 -91 
Q 1169 -91 856 284 
Q 544 659 544 1381 
z
M 1991 3584 
L 1991 3584 
z
" transform="scale(0.015625)"/>
       <path id="DejaVuSans-6d" d="M 3328 2828 
Q 3544 3216 3844 3400 
Q 4144 3584 4550 3584 
Q 5097 3584 5394 3201 
Q 5691 2819 5691 2113 
L 5691 0 
L 5113 0 
L 5113 2094 
Q 5113 2597 4934 2840 
Q 4756 3084 4391 3084 
Q 3944 3084 3684 2787 
Q 3425 2491 3425 1978 
L 3425 0 
L 2847 0 
L 2847 2094 
Q 2847 2600 2669 2842 
Q 2491 3084 2119 3084 
Q 1678 3084 1418 2786 
Q 1159 2488 1159 1978 
L 1159 0 
L 581 0 
L 581 3500 
L 1159 3500 
L 1159 2956 
Q 1356 3278 1631 3431 
Q 1906 3584 2284 3584 
Q 2666 3584 2933 3390 
Q 3200 3197 3328 2828 
z
" transform="scale(0.015625)"/>
       <path id="DejaVuSans-20" transform="scale(0.015625)"/>
       <path id="DejaVuSans-73" d="M 2834 3397 
L 2834 2853 
Q 2591 2978 2328 3040 
Q 2066 3103 1784 3103 
Q 1356 3103 1142 2972 
Q 928 2841 928 2578 
Q 928 2378 1081 2264 
Q 1234 2150 1697 2047 
L 1894 2003 
Q 2506 1872 2764 1633 
Q 3022 1394 3022 966 
Q 3022 478 2636 193 
Q 2250 -91 1575 -91 
Q 1294 -91 989 -36 
Q 684 19 347 128 
L 347 722 
Q 666 556 975 473 
Q 1284 391 1588 391 
Q 1994 391 2212 530 
Q 2431 669 2431 922 
Q 2431 1156 2273 1281 
Q 2116 1406 1581 1522 
L 1381 1569 
Q 847 1681 609 1914 
Q 372 2147 372 2553 
Q 372 3047 722 3315 
Q 1072 3584 1716 3584 
Q 2034 3584 2315 3537 
Q 2597 3491 2834 3397 
z
" transform="scale(0.015625)"/>
       <path id="DejaVuSans-77" d="M 269 3500 
L 844 3500 
L 1563 769 
L 2278 3500 
L 2956 3500 
L 3675 769 
L 4391 3500 
L 4966 3500 
L 4050 0 
L 3372 0 
L 2619 2869 
L 1863 0 
L 1184 0 
L 269 3500 
z
" transform="scale(0.015625)"/>
       <path id="DejaVuSans-61" d="M 2194 1759 
Q 1497 1759 1228 1600 
Q 959 1441 959 1056 
Q 959 750 1161 570 
Q 1363 391 1709 391 
Q 2188 391 2477 730 
Q 2766 1069 2766 1631 
L 2766 1759 
L 2194 1759 
z
M 3341 1997 
L 3341 0 
L 2766 0 
L 2766 531 
Q 2569 213 2275 61 
Q 1981 -91 1556 -91 
Q 1019 -91 701 211 
Q 384 513 384 1019 
Q 384 1609 779 1909 
Q 1175 2209 1959 2209 
L 2766 2209 
L 2766 2266 
Q 2766 2663 2505 2880 
Q 2244 3097 1772 3097 
Q 1472 3097 1187 3025 
Q 903 2953 641 2809 
L 641 3341 
Q 956 3463 1253 3523 
Q 1550 3584 1831 3584 
Q 2591 3584 2966 3190 
Q 3341 2797 3341 1997 
z
" transform="scale(0.015625)"/>
       <path id="DejaVuSans-70" d="M 1159 525 
L 1159 -1331 
L 581 -1331 
L 581 3500 
L 1159 3500 
L 1159 2969 
Q 1341 3281 1617 3432 
Q 1894 3584 2278 3584 
Q 2916 3584 3314 3078 
Q 3713 2572 3713 1747 
Q 3713 922 3314 415 
Q 2916 -91 2278 -91 
Q 1894 -91 1617 61 
Q 1341 213 1159 525 
z
M 3116 1747 
Q 3116 2381 2855 2742 
Q 2594 3103 2138 3103 
Q 1681 3103 1420 2742 
Q 1159 2381 1159 1747 
Q 1159 1113 1420 752 
Q 1681 391 2138 391 
Q 2594 391 2855 752 
Q 3116 1113 3116 1747 
z
" transform="scale(0.015625)"/>
      </defs>
      <use xlink:href="#DejaVuSans-6e"/>
      <use xlink:href="#DejaVuSans-75" x="63.378906"/>
      <use xlink:href="#DejaVuSans-6d" x="126.757812"/>
      <use xlink:href="#DejaVuSans-20" x="224.169922"/>
      <use xlink:href="#DejaVuSans-73" x="255.957031"/>
      <use xlink:href="#DejaVuSans-77" x="308.056641"/>
      <use xlink:href="#DejaVuSans-61" x="389.84375"/>
      <use xlink:href="#DejaVuSans-70" x="451.123047"/>
      <use xlink:href="#DejaVuSans-73" x="514.599609"/>
     </g>
    </g>
   </g>
   <g id="matplotlib.axis_2">
    <g id="ytick_1">
     <g id="line2d_9">
      <defs>
       <path id="m797ce047a3" d="M 0 0 
L -3.5 0 
" style="stroke: #000000; stroke-width: 0.8"/>
      </defs>
      <g>
       <use xlink:href="#m797ce047a3" x="57.6" y="264.128" style="stroke: #000000; stroke-width: 0.8"/>
      </g>
     </g>
     <g id="text_10">
      <!-- 150 -->
      <g transform="translate(31.5125 267.927219)scale(0.1 -0.1)">
       <defs>
        <path id="DejaVuSans-35" d="M 691 4666 
L 3169 4666 
L 3169 4134 
L 1269 4134 
L 1269 2991 
Q 1406 3038 1543 3061 
Q 1681 3084 1819 3084 
Q 2600 3084 3056 2656 
Q 3513 2228 3513 1497 
Q 3513 744 3044 326 
Q 2575 -91 1722 -91 
Q 1428 -91 1123 -41 
Q 819 9 494 109 
L 494 744 
Q 775 591 1075 516 
Q 1375 441 1709 441 
Q 2250 441 2565 725 
Q 2881 1009 2881 1497 
Q 2881 1984 2565 2268 
Q 2250 2553 1709 2553 
Q 1456 2553 1204 2497 
Q 953 2441 691 2322 
L 691 4666 
z
" transform="scale(0.015625)"/>
       </defs>
       <use xlink:href="#DejaVuSans-31"/>
       <use xlink:href="#DejaVuSans-35" x="63.623047"/>
       <use xlink:href="#DejaVuSans-30" x="127.246094"/>
      </g>
     </g>
    </g>
    <g id="ytick_2">
     <g id="line2d_10">
      <g>
       <use xlink:href="#m797ce047a3" x="57.6" y="219.328" style="stroke: #000000; stroke-width: 0.8"/>
      </g>
     </g>
     <g id="text_11">
      <!-- 160 -->
      <g transform="translate(31.5125 223.127219)scale(0.1 -0.1)">
       <use xlink:href="#DejaVuSans-31"/>
       <use xlink:href="#DejaVuSans-36" x="63.623047"/>
       <use xlink:href="#DejaVuSans-30" x="127.246094"/>
      </g>
     </g>
    </g>
    <g id="ytick_3">
     <g id="line2d_11">
      <g>
       <use xlink:href="#m797ce047a3" x="57.6" y="174.528" style="stroke: #000000; stroke-width: 0.8"/>
      </g>
     </g>
     <g id="text_12">
      <!-- 170 -->
      <g transform="translate(31.5125 178.327219)scale(0.1 -0.1)">
       <defs>
        <path id="DejaVuSans-37" d="M 525 4666 
L 3525 4666 
L 3525 4397 
L 1831 0 
L 1172 0 
L 2766 4134 
L 525 4134 
L 525 4666 
z
" transform="scale(0.015625)"/>
       </defs>
       <use xlink:href="#DejaVuSans-31"/>
       <use xlink:href="#DejaVuSans-37" x="63.623047"/>
       <use xlink:href="#DejaVuSans-30" x="127.246094"/>
      </g>
     </g>
    </g>
    <g id="ytick_4">
     <g id="line2d_12">
      <g>
       <use xlink:href="#m797ce047a3" x="57.6" y="129.728" style="stroke: #000000; stroke-width: 0.8"/>
      </g>
     </g>
     <g id="text_13">
      <!-- 180 -->
      <g transform="translate(31.5125 133.527219)scale(0.1 -0.1)">
       <use xlink:href="#DejaVuSans-31"/>
       <use xlink:href="#DejaVuSans-38" x="63.623047"/>
       <use xlink:href="#DejaVuSans-30" x="127.246094"/>
      </g>
     </g>
    </g>
    <g id="ytick_5">
     <g id="line2d_13">
      <g>
       <use xlink:href="#m797ce047a3" x="57.6" y="84.928" style="stroke: #000000; stroke-width: 0.8"/>
      </g>
     </g>
     <g id="text_14">
      <!-- 190 -->
      <g transform="translate(31.5125 88.727219)scale(0.1 -0.1)">
       <defs>
        <path id="DejaVuSans-39" d="M 703 97 
L 703 672 
Q 941 559 1184 500 
Q 1428 441 1663 441 
Q 2288 441 2617 861 
Q 2947 1281 2994 2138 
Q 2813 1869 2534 1725 
Q 2256 1581 1919 1581 
Q 1219 1581 811 2004 
Q 403 2428 403 3163 
Q 403 3881 828 4315 
Q 1253 4750 1959 4750 
Q 2769 4750 3195 4129 
Q 3622 3509 3622 2328 
Q 3622 1225 3098 567 
Q 2575 -91 1691 -91 
Q 1453 -91 1209 -44 
Q 966 3 703 97 
z
M 1959 2075 
Q 2384 2075 2632 2365 
Q 2881 2656 2881 3163 
Q 2881 3666 2632 3958 
Q 2384 4250 1959 4250 
Q 1534 4250 1286 3958 
Q 1038 3666 1038 3163 
Q 1038 2656 1286 2365 
Q 1534 2075 1959 2075 
z
" transform="scale(0.015625)"/>
       </defs>
       <use xlink:href="#DejaVuSans-31"/>
       <use xlink:href="#DejaVuSans-39" x="63.623047"/>
       <use xlink:href="#DejaVuSans-30" x="127.246094"/>
      </g>
     </g>
    </g>
    <g id="text_15">
     <!-- total cost -->
     <g transform="translate(25.432812 197.923313)rotate(-90)scale(0.1 -0.1)">
      <defs>
       <path id="DejaVuSans-74" d="M 1172 4494 
L 1172 3500 
L 2356 3500 
L 2356 3053 
L 1172 3053 
L 1172 1153 
Q 1172 725 1289 603 
Q 1406 481 1766 481 
L 2356 481 
L 2356 0 
L 1766 0 
Q 1100 0 847 248 
Q 594 497 594 1153 
L 594 3053 
L 172 3053 
L 172 3500 
L 594 3500 
L 594 4494 
L 1172 4494 
z
" transform="scale(0.015625)"/>
       <path id="DejaVuSans-6f" d="M 1959 3097 
Q 1497 3097 1228 2736 
Q 959 2375 959 1747 
Q 959 1119 1226 758 
Q 1494 397 1959 397 
Q 2419 397 2687 759 
Q 2956 1122 2956 1747 
Q 2956 2369 2687 2733 
Q 2419 3097 1959 3097 
z
M 1959 3584 
Q 2709 3584 3137 3096 
Q 3566 2609 3566 1747 
Q 3566 888 3137 398 
Q 2709 -91 1959 -91 
Q 1206 -91 779 398 
Q 353 888 353 1747 
Q 353 2609 779 3096 
Q 1206 3584 1959 3584 
z
" transform="scale(0.015625)"/>
       <path id="DejaVuSans-6c" d="M 603 4863 
L 1178 4863 
L 1178 0 
L 603 0 
L 603 4863 
z
" transform="scale(0.015625)"/>
       <path id="DejaVuSans-63" d="M 3122 3366 
L 3122 2828 
Q 2878 2963 2633 3030 
Q 2388 3097 2138 3097 
Q 1578 3097 1268 2742 
Q 959 2388 959 1747 
Q 959 1106 1268 751 
Q 1578 397 2138 397 
Q 2388 397 2633 464 
Q 2878 531 3122 666 
L 3122 134 
Q 2881 22 2623 -34 
Q 2366 -91 2075 -91 
Q 1284 -91 818 406 
Q 353 903 353 1747 
Q 353 2603 823 3093 
Q 1294 3584 2113 3584 
Q 2378 3584 2631 3529 
Q 2884 3475 3122 3366 
z
" transform="scale(0.015625)"/>
      </defs>
      <use xlink:href="#DejaVuSans-74"/>
      <use xlink:href="#DejaVuSans-6f" x="39.208984"/>
      <use xlink:href="#DejaVuSans-74" x="100.390625"/>
      <use xlink:href="#DejaVuSans-61" x="139.599609"/>
      <use xlink:href="#DejaVuSans-6c" x="200.878906"/>
      <use xlink:href="#DejaVuSans-20" x="228.662109"/>
      <use xlink:href="#DejaVuSans-63" x="260.449219"/>
      <use xlink:href="#DejaVuSans-6f" x="315.429688"/>
      <use xlink:href="#DejaVuSans-73" x="376.611328"/>
      <use xlink:href="#DejaVuSans-74" x="428.710938"/>
     </g>
    </g>
   </g>
   <g id="line2d_14">
    <path d="M 73.832727 147.648 
L 74.760312 187.968 
L 75.224104 174.528 
L 75.687896 165.568 
L 76.151688 219.328 
L 76.615481 187.968 
L 77.079273 170.048 
L 77.543065 187.968 
L 78.006857 196.928 
L 78.470649 170.048 
L 78.934442 156.608 
L 79.398234 152.128 
L 79.862026 192.448 
L 80.325818 214.848 
L 80.78961 201.408 
L 81.253403 219.328 
L 81.717195 223.808 
L 82.180987 255.168 
L 82.644779 277.568 
L 83.108571 223.808 
L 83.572364 223.808 
L 84.036156 241.728 
L 84.499948 228.288 
L 84.96374 250.688 
L 85.427532 223.808 
L 85.891325 232.768 
L 86.355117 277.568 
L 87.746494 205.888 
L 88.210286 214.848 
L 88.674078 214.848 
L 89.13787 192.448 
L 89.601662 183.488 
L 90.065455 205.888 
L 90.529247 214.848 
L 90.993039 192.448 
L 91.456831 205.888 
L 91.920623 183.488 
L 92.384416 152.128 
L 92.848208 187.968 
L 93.312 174.528 
L 93.775792 156.608 
L 94.239584 187.968 
L 94.703377 196.928 
L 95.167169 170.048 
L 95.630961 161.088 
L 96.094753 156.608 
L 96.558545 174.528 
L 97.022338 165.568 
L 97.48613 152.128 
L 97.949922 161.088 
L 98.413714 152.128 
L 98.877506 147.648 
L 99.341299 183.488 
L 99.805091 179.008 
L 100.268883 170.048 
L 100.732675 187.968 
L 101.66026 214.848 
L 102.124052 183.488 
L 103.515429 129.728 
L 103.979221 143.168 
L 104.443013 152.128 
L 104.906805 192.448 
L 105.370597 201.408 
L 105.83439 196.928 
L 106.298182 223.808 
L 106.761974 210.368 
L 107.225766 174.528 
L 107.689558 152.128 
L 108.153351 147.648 
L 108.617143 161.088 
L 109.080935 165.568 
L 109.544727 147.648 
L 110.008519 147.648 
L 110.472312 161.088 
L 110.936104 143.168 
L 111.399896 152.128 
L 111.863688 129.728 
L 112.327481 143.168 
L 112.791273 165.568 
L 113.255065 174.528 
L 113.718857 152.128 
L 114.182649 161.088 
L 114.646442 156.608 
L 115.110234 161.088 
L 116.037818 210.368 
L 116.50161 219.328 
L 116.965403 192.448 
L 117.429195 183.488 
L 117.892987 187.968 
L 118.356779 205.888 
L 118.820571 241.728 
L 119.284364 223.808 
L 119.748156 210.368 
L 120.211948 214.848 
L 120.67574 250.688 
L 121.139532 264.128 
L 121.603325 219.328 
L 122.067117 201.408 
L 122.530909 187.968 
L 122.994701 152.128 
L 123.458494 134.208 
L 123.922286 152.128 
L 124.386078 143.168 
L 124.84987 179.008 
L 125.313662 179.008 
L 126.241247 196.928 
L 126.705039 187.968 
L 127.168831 165.568 
L 127.632623 179.008 
L 128.096416 196.928 
L 128.560208 179.008 
L 129.024 183.488 
L 129.487792 170.048 
L 129.951584 192.448 
L 130.415377 196.928 
L 130.879169 183.488 
L 131.342961 179.008 
L 131.806753 165.568 
L 132.270545 170.048 
L 132.734338 152.128 
L 133.19813 147.648 
L 133.661922 107.328 
L 134.125714 116.288 
L 134.589506 134.208 
L 135.053299 120.768 
L 135.517091 134.208 
L 135.980883 129.728 
L 136.444675 152.128 
L 136.908468 165.568 
L 137.37226 134.208 
L 137.836052 147.648 
L 138.299844 156.608 
L 138.763636 170.048 
L 139.227429 196.928 
L 139.691221 179.008 
L 140.618805 214.848 
L 141.082597 170.048 
L 141.54639 201.408 
L 142.010182 192.448 
L 142.473974 223.808 
L 142.937766 192.448 
L 143.401558 223.808 
L 143.865351 219.328 
L 144.329143 219.328 
L 145.720519 156.608 
L 146.648104 201.408 
L 147.111896 179.008 
L 147.575688 192.448 
L 148.039481 219.328 
L 148.503273 223.808 
L 148.967065 179.008 
L 149.430857 161.088 
L 149.894649 201.408 
L 150.358442 174.528 
L 150.822234 183.488 
L 151.286026 196.928 
L 152.21361 187.968 
L 152.677403 232.768 
L 153.141195 192.448 
L 153.604987 205.888 
L 154.068779 201.408 
L 154.532571 192.448 
L 154.996364 138.688 
L 155.460156 125.248 
L 155.923948 147.648 
L 156.38774 129.728 
L 156.851532 125.248 
L 157.315325 161.088 
L 157.779117 147.648 
L 158.242909 165.568 
L 159.170494 192.448 
L 159.634286 210.368 
L 160.098078 174.528 
L 160.56187 161.088 
L 161.025662 161.088 
L 161.489455 170.048 
L 161.953247 183.488 
L 162.417039 170.048 
L 162.880831 187.968 
L 163.344623 241.728 
L 163.808416 219.328 
L 164.272208 210.368 
L 164.736 255.168 
L 165.199792 255.168 
L 165.663584 237.248 
L 166.127377 237.248 
L 166.591169 246.208 
L 167.518753 165.568 
L 167.982545 174.528 
L 168.446338 174.528 
L 168.91013 152.128 
L 169.373922 170.048 
L 169.837714 156.608 
L 170.301506 152.128 
L 171.229091 192.448 
L 171.692883 205.888 
L 172.156675 241.728 
L 172.620468 250.688 
L 173.08426 232.768 
L 173.548052 170.048 
L 174.011844 214.848 
L 174.475636 237.248 
L 174.939429 232.768 
L 175.403221 232.768 
L 175.867013 237.248 
L 176.330805 237.248 
L 176.794597 223.808 
L 177.25839 223.808 
L 177.722182 210.368 
L 178.185974 219.328 
L 178.649766 192.448 
L 179.113558 214.848 
L 180.041143 223.808 
L 180.504935 223.808 
L 180.968727 255.168 
L 181.432519 255.168 
L 181.896312 241.728 
L 182.360104 219.328 
L 182.823896 223.808 
L 183.287688 201.408 
L 183.751481 192.448 
L 184.215273 187.968 
L 185.142857 147.648 
L 185.606649 165.568 
L 186.070442 174.528 
L 186.534234 174.528 
L 186.998026 201.408 
L 187.461818 170.048 
L 187.92561 170.048 
L 188.389403 205.888 
L 188.853195 174.528 
L 189.316987 196.928 
L 189.780779 165.568 
L 190.244571 179.008 
L 190.708364 187.968 
L 191.172156 179.008 
L 191.635948 205.888 
L 192.09974 273.088 
L 192.563532 246.208 
L 193.027325 228.288 
L 193.491117 232.768 
L 193.954909 255.168 
L 194.418701 214.848 
L 194.882494 228.288 
L 195.346286 210.368 
L 195.810078 201.408 
L 196.27387 214.848 
L 196.737662 210.368 
L 197.201455 210.368 
L 197.665247 205.888 
L 198.129039 170.048 
L 198.592831 187.968 
L 199.056623 273.088 
L 199.520416 286.528 
L 199.984208 295.488 
L 200.448 273.088 
L 201.375584 214.848 
L 201.839377 268.608 
L 202.766961 286.528 
L 203.694545 241.728 
L 204.158338 255.168 
L 204.62213 246.208 
L 205.085922 219.328 
L 205.549714 156.608 
L 206.013506 214.848 
L 206.477299 214.848 
L 206.941091 192.448 
L 207.868675 282.048 
L 208.332468 264.128 
L 208.79626 264.128 
L 209.260052 210.368 
L 209.723844 205.888 
L 210.651429 246.208 
L 211.115221 255.168 
L 211.579013 246.208 
L 212.042805 219.328 
L 212.506597 241.728 
L 213.434182 241.728 
L 213.897974 246.208 
L 214.361766 232.768 
L 214.825558 205.888 
L 215.289351 201.408 
L 215.753143 228.288 
L 216.216935 246.208 
L 216.680727 246.208 
L 217.144519 223.808 
L 217.608312 232.768 
L 218.072104 196.928 
L 218.535896 179.008 
L 218.999688 170.048 
L 219.927273 187.968 
L 220.391065 232.768 
L 220.854857 192.448 
L 221.318649 183.488 
L 221.782442 138.688 
L 222.246234 179.008 
L 222.710026 147.648 
L 223.173818 138.688 
L 223.63761 156.608 
L 224.101403 134.208 
L 224.565195 134.208 
L 225.028987 120.768 
L 225.492779 156.608 
L 225.956571 170.048 
L 226.420364 170.048 
L 226.884156 192.448 
L 227.347948 205.888 
L 227.81174 187.968 
L 228.275532 152.128 
L 228.739325 138.688 
L 229.203117 179.008 
L 229.666909 187.968 
L 230.130701 165.568 
L 230.594494 183.488 
L 231.058286 205.888 
L 231.522078 196.928 
L 231.98587 192.448 
L 232.449662 219.328 
L 232.913455 219.328 
L 233.377247 196.928 
L 233.841039 161.088 
L 234.304831 165.568 
L 234.768623 147.648 
L 235.232416 183.488 
L 235.696208 179.008 
L 236.623792 152.128 
L 237.551377 152.128 
L 238.015169 107.328 
L 238.478961 98.368 
L 238.942753 98.368 
L 239.870338 71.488 
L 240.33413 53.568 
L 240.797922 58.048 
L 241.261714 89.408 
L 241.725506 107.328 
L 242.189299 93.888 
L 242.653091 107.328 
L 243.116883 143.168 
L 243.580675 107.328 
L 244.044468 102.848 
L 244.50826 67.008 
L 245.435844 138.688 
L 245.899636 138.688 
L 246.363429 107.328 
L 246.827221 156.608 
L 247.291013 170.048 
L 247.754805 196.928 
L 248.218597 174.528 
L 248.68239 192.448 
L 249.146182 201.408 
L 249.609974 219.328 
L 250.073766 219.328 
L 250.537558 187.968 
L 251.001351 196.928 
L 251.465143 214.848 
L 251.928935 196.928 
L 252.392727 192.448 
L 253.320312 134.208 
L 254.247896 134.208 
L 254.711688 107.328 
L 255.175481 129.728 
L 255.639273 116.288 
L 256.103065 143.168 
L 256.566857 143.168 
L 257.494442 161.088 
L 258.422026 107.328 
L 258.885818 102.848 
L 259.34961 170.048 
L 259.813403 143.168 
L 260.277195 125.248 
L 260.740987 161.088 
L 261.204779 152.128 
L 262.132364 170.048 
L 262.596156 192.448 
L 263.059948 125.248 
L 263.987532 152.128 
L 264.915117 170.048 
L 265.378909 170.048 
L 265.842701 152.128 
L 266.306494 156.608 
L 266.770286 174.528 
L 267.234078 156.608 
L 267.69787 152.128 
L 268.161662 107.328 
L 269.089247 125.248 
L 269.553039 147.648 
L 270.016831 143.168 
L 270.480623 143.168 
L 270.944416 152.128 
L 271.408208 196.928 
L 271.872 201.408 
L 272.335792 183.488 
L 272.799584 196.928 
L 273.263377 201.408 
L 273.727169 219.328 
L 274.190961 214.848 
L 274.654753 192.448 
L 275.118545 192.448 
L 275.582338 156.608 
L 276.04613 165.568 
L 276.509922 165.568 
L 276.973714 170.048 
L 277.437506 196.928 
L 277.901299 165.568 
L 278.828883 201.408 
L 279.292675 196.928 
L 279.756468 187.968 
L 280.22026 210.368 
L 280.684052 214.848 
L 281.147844 214.848 
L 281.611636 196.928 
L 282.075429 187.968 
L 282.539221 174.528 
L 283.003013 170.048 
L 283.466805 192.448 
L 283.930597 205.888 
L 284.39439 210.368 
L 284.858182 250.688 
L 285.321974 255.168 
L 285.785766 232.768 
L 286.713351 277.568 
L 287.177143 264.128 
L 287.640935 255.168 
L 288.104727 232.768 
L 288.568519 174.528 
L 289.032312 170.048 
L 289.496104 196.928 
L 289.959896 205.888 
L 290.423688 192.448 
L 290.887481 165.568 
L 291.351273 174.528 
L 291.815065 152.128 
L 292.278857 138.688 
L 293.206442 156.608 
L 293.670234 201.408 
L 294.134026 201.408 
L 294.597818 187.968 
L 295.06161 179.008 
L 295.525403 219.328 
L 295.989195 228.288 
L 296.452987 219.328 
L 296.916779 219.328 
L 297.380571 228.288 
L 297.844364 187.968 
L 298.308156 205.888 
L 298.771948 196.928 
L 299.23574 201.408 
L 299.699532 179.008 
L 300.163325 165.568 
L 300.627117 138.688 
L 301.554701 129.728 
L 302.018494 143.168 
L 302.482286 120.768 
L 302.946078 125.248 
L 303.40987 161.088 
L 303.873662 156.608 
L 304.337455 174.528 
L 304.801247 156.608 
L 305.265039 156.608 
L 305.728831 210.368 
L 306.192623 187.968 
L 306.656416 196.928 
L 307.120208 174.528 
L 307.584 161.088 
L 308.047792 143.168 
L 308.511584 161.088 
L 308.975377 147.648 
L 309.439169 125.248 
L 309.902961 120.768 
L 310.366753 129.728 
L 310.830545 129.728 
L 311.294338 125.248 
L 311.75813 152.128 
L 312.221922 187.968 
L 312.685714 165.568 
L 313.149506 165.568 
L 313.613299 192.448 
L 314.077091 183.488 
L 314.540883 170.048 
L 315.004675 161.088 
L 315.468468 161.088 
L 315.93226 183.488 
L 316.396052 192.448 
L 316.859844 205.888 
L 317.323636 192.448 
L 317.787429 174.528 
L 318.251221 196.928 
L 318.715013 174.528 
L 319.178805 210.368 
L 319.642597 183.488 
L 320.10639 210.368 
L 320.570182 210.368 
L 321.497766 250.688 
L 321.961558 237.248 
L 322.425351 219.328 
L 323.352935 201.408 
L 323.816727 210.368 
L 325.208104 138.688 
L 325.671896 156.608 
L 326.135688 183.488 
L 327.063273 120.768 
L 327.527065 129.728 
L 327.990857 147.648 
L 328.454649 120.768 
L 328.918442 134.208 
L 329.382234 165.568 
L 329.846026 152.128 
L 330.309818 170.048 
L 330.77361 179.008 
L 331.237403 192.448 
L 331.701195 210.368 
L 332.164987 219.328 
L 332.628779 192.448 
L 333.092571 214.848 
L 333.556364 196.928 
L 334.020156 161.088 
L 334.483948 152.128 
L 334.94774 156.608 
L 335.875325 241.728 
L 336.339117 241.728 
L 336.802909 255.168 
L 337.266701 228.288 
L 337.730494 228.288 
L 338.194286 187.968 
L 338.658078 192.448 
L 339.12187 201.408 
L 340.049455 165.568 
L 340.513247 205.888 
L 340.977039 228.288 
L 341.440831 241.728 
L 341.904623 214.848 
L 342.368416 223.808 
L 342.832208 214.848 
L 343.296 237.248 
L 343.759792 228.288 
L 344.223584 205.888 
L 344.687377 219.328 
L 345.151169 219.328 
L 345.614961 205.888 
L 346.078753 183.488 
L 346.542545 196.928 
L 347.006338 196.928 
L 347.933922 205.888 
L 348.397714 183.488 
L 348.861506 192.448 
L 349.325299 143.168 
L 349.789091 156.608 
L 350.252883 156.608 
L 350.716675 183.488 
L 351.64426 192.448 
L 352.108052 187.968 
L 352.571844 192.448 
L 353.035636 201.408 
L 353.499429 179.008 
L 353.963221 219.328 
L 354.427013 214.848 
L 354.890805 183.488 
L 355.354597 174.528 
L 356.282182 192.448 
L 356.745974 165.568 
L 357.209766 156.608 
L 357.673558 174.528 
L 358.137351 174.528 
L 358.601143 170.048 
L 359.064935 183.488 
L 359.528727 183.488 
L 359.992519 201.408 
L 360.456312 196.928 
L 360.920104 179.008 
L 361.383896 192.448 
L 361.847688 179.008 
L 362.311481 174.528 
L 362.775273 161.088 
L 363.239065 161.088 
L 363.702857 138.688 
L 364.166649 165.568 
L 364.630442 214.848 
L 365.094234 219.328 
L 365.558026 232.768 
L 366.021818 237.248 
L 366.949403 161.088 
L 367.413195 152.128 
L 367.876987 156.608 
L 368.340779 165.568 
L 368.804571 161.088 
L 369.268364 143.168 
L 370.195948 205.888 
L 370.65974 138.688 
L 371.587325 196.928 
L 372.051117 192.448 
L 372.514909 161.088 
L 372.978701 143.168 
L 373.442494 143.168 
L 373.906286 147.648 
L 374.370078 165.568 
L 374.83387 156.608 
L 375.297662 179.008 
L 375.761455 170.048 
L 376.225247 201.408 
L 376.689039 192.448 
L 377.152831 174.528 
L 377.616623 205.888 
L 378.080416 170.048 
L 378.544208 187.968 
L 379.008 201.408 
L 379.471792 210.368 
L 379.935584 237.248 
L 380.399377 246.208 
L 380.863169 268.608 
L 381.326961 246.208 
L 381.790753 196.928 
L 382.254545 192.448 
L 382.718338 210.368 
L 383.18213 232.768 
L 383.645922 246.208 
L 384.109714 237.248 
L 384.573506 259.648 
L 385.037299 232.768 
L 385.501091 237.248 
L 385.964883 246.208 
L 386.428675 205.888 
L 386.892468 205.888 
L 387.35626 219.328 
L 387.820052 237.248 
L 388.283844 205.888 
L 389.211429 205.888 
L 389.675221 192.448 
L 390.139013 183.488 
L 390.602805 165.568 
L 391.066597 143.168 
L 391.53039 134.208 
L 392.457974 107.328 
L 392.921766 134.208 
L 393.385558 129.728 
L 393.849351 161.088 
L 394.313143 156.608 
L 394.776935 170.048 
L 395.240727 192.448 
L 395.704519 205.888 
L 396.168312 237.248 
L 396.632104 237.248 
L 397.095896 264.128 
L 397.559688 264.128 
L 398.023481 210.368 
L 398.487273 179.008 
L 398.487273 179.008 
" clip-path="url(#pb7e2da123e)" style="fill: none; stroke: #1f77b4; stroke-width: 1.5; stroke-linecap: square"/>
   </g>
   <g id="patch_3">
    <path d="M 57.6 307.584 
L 57.6 41.472 
" style="fill: none; stroke: #000000; stroke-width: 0.8; stroke-linejoin: miter; stroke-linecap: square"/>
   </g>
   <g id="patch_4">
    <path d="M 414.72 307.584 
L 414.72 41.472 
" style="fill: none; stroke: #000000; stroke-width: 0.8; stroke-linejoin: miter; stroke-linecap: square"/>
   </g>
   <g id="patch_5">
    <path d="M 57.6 307.584 
L 414.72 307.584 
" style="fill: none; stroke: #000000; stroke-width: 0.8; stroke-linejoin: miter; stroke-linecap: square"/>
   </g>
   <g id="patch_6">
    <path d="M 57.6 41.472 
L 414.72 41.472 
" style="fill: none; stroke: #000000; stroke-width: 0.8; stroke-linejoin: miter; stroke-linecap: square"/>
   </g>
   <g id="text_16">
    <!-- Simulated Anealling Cost -->
    <g transform="translate(160.8 35.472)scale(0.12 -0.12)">
     <defs>
      <path id="DejaVuSans-53" d="M 3425 4513 
L 3425 3897 
Q 3066 4069 2747 4153 
Q 2428 4238 2131 4238 
Q 1616 4238 1336 4038 
Q 1056 3838 1056 3469 
Q 1056 3159 1242 3001 
Q 1428 2844 1947 2747 
L 2328 2669 
Q 3034 2534 3370 2195 
Q 3706 1856 3706 1288 
Q 3706 609 3251 259 
Q 2797 -91 1919 -91 
Q 1588 -91 1214 -16 
Q 841 59 441 206 
L 441 856 
Q 825 641 1194 531 
Q 1563 422 1919 422 
Q 2459 422 2753 634 
Q 3047 847 3047 1241 
Q 3047 1584 2836 1778 
Q 2625 1972 2144 2069 
L 1759 2144 
Q 1053 2284 737 2584 
Q 422 2884 422 3419 
Q 422 4038 858 4394 
Q 1294 4750 2059 4750 
Q 2388 4750 2728 4690 
Q 3069 4631 3425 4513 
z
" transform="scale(0.015625)"/>
      <path id="DejaVuSans-69" d="M 603 3500 
L 1178 3500 
L 1178 0 
L 603 0 
L 603 3500 
z
M 603 4863 
L 1178 4863 
L 1178 4134 
L 603 4134 
L 603 4863 
z
" transform="scale(0.015625)"/>
      <path id="DejaVuSans-65" d="M 3597 1894 
L 3597 1613 
L 953 1613 
Q 991 1019 1311 708 
Q 1631 397 2203 397 
Q 2534 397 2845 478 
Q 3156 559 3463 722 
L 3463 178 
Q 3153 47 2828 -22 
Q 2503 -91 2169 -91 
Q 1331 -91 842 396 
Q 353 884 353 1716 
Q 353 2575 817 3079 
Q 1281 3584 2069 3584 
Q 2775 3584 3186 3129 
Q 3597 2675 3597 1894 
z
M 3022 2063 
Q 3016 2534 2758 2815 
Q 2500 3097 2075 3097 
Q 1594 3097 1305 2825 
Q 1016 2553 972 2059 
L 3022 2063 
z
" transform="scale(0.015625)"/>
      <path id="DejaVuSans-64" d="M 2906 2969 
L 2906 4863 
L 3481 4863 
L 3481 0 
L 2906 0 
L 2906 525 
Q 2725 213 2448 61 
Q 2172 -91 1784 -91 
Q 1150 -91 751 415 
Q 353 922 353 1747 
Q 353 2572 751 3078 
Q 1150 3584 1784 3584 
Q 2172 3584 2448 3432 
Q 2725 3281 2906 2969 
z
M 947 1747 
Q 947 1113 1208 752 
Q 1469 391 1925 391 
Q 2381 391 2643 752 
Q 2906 1113 2906 1747 
Q 2906 2381 2643 2742 
Q 2381 3103 1925 3103 
Q 1469 3103 1208 2742 
Q 947 2381 947 1747 
z
" transform="scale(0.015625)"/>
      <path id="DejaVuSans-41" d="M 2188 4044 
L 1331 1722 
L 3047 1722 
L 2188 4044 
z
M 1831 4666 
L 2547 4666 
L 4325 0 
L 3669 0 
L 3244 1197 
L 1141 1197 
L 716 0 
L 50 0 
L 1831 4666 
z
" transform="scale(0.015625)"/>
      <path id="DejaVuSans-67" d="M 2906 1791 
Q 2906 2416 2648 2759 
Q 2391 3103 1925 3103 
Q 1463 3103 1205 2759 
Q 947 2416 947 1791 
Q 947 1169 1205 825 
Q 1463 481 1925 481 
Q 2391 481 2648 825 
Q 2906 1169 2906 1791 
z
M 3481 434 
Q 3481 -459 3084 -895 
Q 2688 -1331 1869 -1331 
Q 1566 -1331 1297 -1286 
Q 1028 -1241 775 -1147 
L 775 -588 
Q 1028 -725 1275 -790 
Q 1522 -856 1778 -856 
Q 2344 -856 2625 -561 
Q 2906 -266 2906 331 
L 2906 616 
Q 2728 306 2450 153 
Q 2172 0 1784 0 
Q 1141 0 747 490 
Q 353 981 353 1791 
Q 353 2603 747 3093 
Q 1141 3584 1784 3584 
Q 2172 3584 2450 3431 
Q 2728 3278 2906 2969 
L 2906 3500 
L 3481 3500 
L 3481 434 
z
" transform="scale(0.015625)"/>
      <path id="DejaVuSans-43" d="M 4122 4306 
L 4122 3641 
Q 3803 3938 3442 4084 
Q 3081 4231 2675 4231 
Q 1875 4231 1450 3742 
Q 1025 3253 1025 2328 
Q 1025 1406 1450 917 
Q 1875 428 2675 428 
Q 3081 428 3442 575 
Q 3803 722 4122 1019 
L 4122 359 
Q 3791 134 3420 21 
Q 3050 -91 2638 -91 
Q 1578 -91 968 557 
Q 359 1206 359 2328 
Q 359 3453 968 4101 
Q 1578 4750 2638 4750 
Q 3056 4750 3426 4639 
Q 3797 4528 4122 4306 
z
" transform="scale(0.015625)"/>
     </defs>
     <use xlink:href="#DejaVuSans-53"/>
     <use xlink:href="#DejaVuSans-69" x="63.476562"/>
     <use xlink:href="#DejaVuSans-6d" x="91.259766"/>
     <use xlink:href="#DejaVuSans-75" x="188.671875"/>
     <use xlink:href="#DejaVuSans-6c" x="252.050781"/>
     <use xlink:href="#DejaVuSans-61" x="279.833984"/>
     <use xlink:href="#DejaVuSans-74" x="341.113281"/>
     <use xlink:href="#DejaVuSans-65" x="380.322266"/>
     <use xlink:href="#DejaVuSans-64" x="441.845703"/>
     <use xlink:href="#DejaVuSans-20" x="505.322266"/>
     <use xlink:href="#DejaVuSans-41" x="537.109375"/>
     <use xlink:href="#DejaVuSans-6e" x="605.517578"/>
     <use xlink:href="#DejaVuSans-65" x="668.896484"/>
     <use xlink:href="#DejaVuSans-61" x="730.419922"/>
     <use xlink:href="#DejaVuSans-6c" x="791.699219"/>
     <use xlink:href="#DejaVuSans-6c" x="819.482422"/>
     <use xlink:href="#DejaVuSans-69" x="847.265625"/>
     <use xlink:href="#DejaVuSans-6e" x="875.048828"/>
     <use xlink:href="#DejaVuSans-67" x="938.427734"/>
     <use xlink:href="#DejaVuSans-20" x="1001.904297"/>
     <use xlink:href="#DejaVuSans-43" x="1033.691406"/>
     <use xlink:href="#DejaVuSans-6f" x="1103.515625"/>
     <use xlink:href="#DejaVuSans-73" x="1164.697266"/>
     <use xlink:href="#DejaVuSans-74" x="1216.796875"/>
    </g>
   </g>
  </g>
 </g>
 <defs>
  <clipPath id="pb7e2da123e">
   <rect x="57.6" y="41.472" width="357.12" height="266.112"/>
  </clipPath>
 </defs>
</svg>
