<?xml version="1.0" encoding="utf-8" standalone="no"?>
<!DOCTYPE svg PUBLIC "-//W3C//DTD SVG 1.1//EN"
  "http://www.w3.org/Graphics/SVG/1.1/DTD/svg11.dtd">
<svg xmlns:xlink="http://www.w3.org/1999/xlink" width="460.8pt" height="345.6pt" viewBox="0 0 460.8 345.6" xmlns="http://www.w3.org/2000/svg" version="1.1">
 <metadata>
  <rdf:RDF xmlns:dc="http://purl.org/dc/elements/1.1/" xmlns:cc="http://creativecommons.org/ns#" xmlns:rdf="http://www.w3.org/1999/02/22-rdf-syntax-ns#">
   <cc:Work>
    <dc:type rdf:resource="http://purl.org/dc/dcmitype/StillImage"/>
    <dc:date>2022-06-01T08:04:33.638857</dc:date>
    <dc:format>image/svg+xml</dc:format>
    <dc:creator>
     <cc:Agent>
      <dc:title>Matplotlib v3.5.1, https://matplotlib.org/</dc:title>
     </cc:Agent>
    </dc:creator>
   </cc:Work>
  </rdf:RDF>
 </metadata>
 <defs>
  <style type="text/css">*{stroke-linejoin: round; stroke-linecap: butt}</style>
 </defs>
 <g id="figure_1">
  <g id="patch_1">
   <path d="M 0 345.6 
L 460.8 345.6 
L 460.8 0 
L 0 0 
z
" style="fill: #ffffff"/>
  </g>
  <g id="axes_1">
   <g id="patch_2">
    <path d="M 57.6 307.584 
L 414.72 307.584 
L 414.72 41.472 
L 57.6 41.472 
z
" style="fill: #ffffff"/>
   </g>
   <g id="matplotlib.axis_1">
    <g id="xtick_1">
     <g id="line2d_1">
      <defs>
       <path id="m25661d3f96" d="M 0 0 
L 0 3.5 
" style="stroke: #000000; stroke-width: 0.8"/>
      </defs>
      <g>
       <use xlink:href="#m25661d3f96" x="73.832727" y="307.584" style="stroke: #000000; stroke-width: 0.8"/>
      </g>
     </g>
     <g id="text_1">
      <!-- 0 -->
      <g transform="translate(70.651477 322.182437)scale(0.1 -0.1)">
       <defs>
        <path id="DejaVuSans-30" d="M 2034 4250 
Q 1547 4250 1301 3770 
Q 1056 3291 1056 2328 
Q 1056 1369 1301 889 
Q 1547 409 2034 409 
Q 2525 409 2770 889 
Q 3016 1369 3016 2328 
Q 3016 3291 2770 3770 
Q 2525 4250 2034 4250 
z
M 2034 4750 
Q 2819 4750 3233 4129 
Q 3647 3509 3647 2328 
Q 3647 1150 3233 529 
Q 2819 -91 2034 -91 
Q 1250 -91 836 529 
Q 422 1150 422 2328 
Q 422 3509 836 4129 
Q 1250 4750 2034 4750 
z
" transform="scale(0.015625)"/>
       </defs>
       <use xlink:href="#DejaVuSans-30"/>
      </g>
     </g>
    </g>
    <g id="xtick_2">
     <g id="line2d_2">
      <g>
       <use xlink:href="#m25661d3f96" x="118.245114" y="307.584" style="stroke: #000000; stroke-width: 0.8"/>
      </g>
     </g>
     <g id="text_2">
      <!-- 200 -->
      <g transform="translate(108.701364 322.182437)scale(0.1 -0.1)">
       <defs>
        <path id="DejaVuSans-32" d="M 1228 531 
L 3431 531 
L 3431 0 
L 469 0 
L 469 531 
Q 828 903 1448 1529 
Q 2069 2156 2228 2338 
Q 2531 2678 2651 2914 
Q 2772 3150 2772 3378 
Q 2772 3750 2511 3984 
Q 2250 4219 1831 4219 
Q 1534 4219 1204 4116 
Q 875 4013 500 3803 
L 500 4441 
Q 881 4594 1212 4672 
Q 1544 4750 1819 4750 
Q 2544 4750 2975 4387 
Q 3406 4025 3406 3419 
Q 3406 3131 3298 2873 
Q 3191 2616 2906 2266 
Q 2828 2175 2409 1742 
Q 1991 1309 1228 531 
z
" transform="scale(0.015625)"/>
       </defs>
       <use xlink:href="#DejaVuSans-32"/>
       <use xlink:href="#DejaVuSans-30" x="63.623047"/>
       <use xlink:href="#DejaVuSans-30" x="127.246094"/>
      </g>
     </g>
    </g>
    <g id="xtick_3">
     <g id="line2d_3">
      <g>
       <use xlink:href="#m25661d3f96" x="162.6575" y="307.584" style="stroke: #000000; stroke-width: 0.8"/>
      </g>
     </g>
     <g id="text_3">
      <!-- 400 -->
      <g transform="translate(153.11375 322.182437)scale(0.1 -0.1)">
       <defs>
        <path id="DejaVuSans-34" d="M 2419 4116 
L 825 1625 
L 2419 1625 
L 2419 4116 
z
M 2253 4666 
L 3047 4666 
L 3047 1625 
L 3713 1625 
L 3713 1100 
L 3047 1100 
L 3047 0 
L 2419 0 
L 2419 1100 
L 313 1100 
L 313 1709 
L 2253 4666 
z
" transform="scale(0.015625)"/>
       </defs>
       <use xlink:href="#DejaVuSans-34"/>
       <use xlink:href="#DejaVuSans-30" x="63.623047"/>
       <use xlink:href="#DejaVuSans-30" x="127.246094"/>
      </g>
     </g>
    </g>
    <g id="xtick_4">
     <g id="line2d_4">
      <g>
       <use xlink:href="#m25661d3f96" x="207.069887" y="307.584" style="stroke: #000000; stroke-width: 0.8"/>
      </g>
     </g>
     <g id="text_4">
      <!-- 600 -->
      <g transform="translate(197.526137 322.182437)scale(0.1 -0.1)">
       <defs>
        <path id="DejaVuSans-36" d="M 2113 2584 
Q 1688 2584 1439 2293 
Q 1191 2003 1191 1497 
Q 1191 994 1439 701 
Q 1688 409 2113 409 
Q 2538 409 2786 701 
Q 3034 994 3034 1497 
Q 3034 2003 2786 2293 
Q 2538 2584 2113 2584 
z
M 3366 4563 
L 3366 3988 
Q 3128 4100 2886 4159 
Q 2644 4219 2406 4219 
Q 1781 4219 1451 3797 
Q 1122 3375 1075 2522 
Q 1259 2794 1537 2939 
Q 1816 3084 2150 3084 
Q 2853 3084 3261 2657 
Q 3669 2231 3669 1497 
Q 3669 778 3244 343 
Q 2819 -91 2113 -91 
Q 1303 -91 875 529 
Q 447 1150 447 2328 
Q 447 3434 972 4092 
Q 1497 4750 2381 4750 
Q 2619 4750 2861 4703 
Q 3103 4656 3366 4563 
z
" transform="scale(0.015625)"/>
       </defs>
       <use xlink:href="#DejaVuSans-36"/>
       <use xlink:href="#DejaVuSans-30" x="63.623047"/>
       <use xlink:href="#DejaVuSans-30" x="127.246094"/>
      </g>
     </g>
    </g>
    <g id="xtick_5">
     <g id="line2d_5">
      <g>
       <use xlink:href="#m25661d3f96" x="251.482273" y="307.584" style="stroke: #000000; stroke-width: 0.8"/>
      </g>
     </g>
     <g id="text_5">
      <!-- 800 -->
      <g transform="translate(241.938523 322.182437)scale(0.1 -0.1)">
       <defs>
        <path id="DejaVuSans-38" d="M 2034 2216 
Q 1584 2216 1326 1975 
Q 1069 1734 1069 1313 
Q 1069 891 1326 650 
Q 1584 409 2034 409 
Q 2484 409 2743 651 
Q 3003 894 3003 1313 
Q 3003 1734 2745 1975 
Q 2488 2216 2034 2216 
z
M 1403 2484 
Q 997 2584 770 2862 
Q 544 3141 544 3541 
Q 544 4100 942 4425 
Q 1341 4750 2034 4750 
Q 2731 4750 3128 4425 
Q 3525 4100 3525 3541 
Q 3525 3141 3298 2862 
Q 3072 2584 2669 2484 
Q 3125 2378 3379 2068 
Q 3634 1759 3634 1313 
Q 3634 634 3220 271 
Q 2806 -91 2034 -91 
Q 1263 -91 848 271 
Q 434 634 434 1313 
Q 434 1759 690 2068 
Q 947 2378 1403 2484 
z
M 1172 3481 
Q 1172 3119 1398 2916 
Q 1625 2713 2034 2713 
Q 2441 2713 2670 2916 
Q 2900 3119 2900 3481 
Q 2900 3844 2670 4047 
Q 2441 4250 2034 4250 
Q 1625 4250 1398 4047 
Q 1172 3844 1172 3481 
z
" transform="scale(0.015625)"/>
       </defs>
       <use xlink:href="#DejaVuSans-38"/>
       <use xlink:href="#DejaVuSans-30" x="63.623047"/>
       <use xlink:href="#DejaVuSans-30" x="127.246094"/>
      </g>
     </g>
    </g>
    <g id="xtick_6">
     <g id="line2d_6">
      <g>
       <use xlink:href="#m25661d3f96" x="295.89466" y="307.584" style="stroke: #000000; stroke-width: 0.8"/>
      </g>
     </g>
     <g id="text_6">
      <!-- 1000 -->
      <g transform="translate(283.16966 322.182437)scale(0.1 -0.1)">
       <defs>
        <path id="DejaVuSans-31" d="M 794 531 
L 1825 531 
L 1825 4091 
L 703 3866 
L 703 4441 
L 1819 4666 
L 2450 4666 
L 2450 531 
L 3481 531 
L 3481 0 
L 794 0 
L 794 531 
z
" transform="scale(0.015625)"/>
       </defs>
       <use xlink:href="#DejaVuSans-31"/>
       <use xlink:href="#DejaVuSans-30" x="63.623047"/>
       <use xlink:href="#DejaVuSans-30" x="127.246094"/>
       <use xlink:href="#DejaVuSans-30" x="190.869141"/>
      </g>
     </g>
    </g>
    <g id="xtick_7">
     <g id="line2d_7">
      <g>
       <use xlink:href="#m25661d3f96" x="340.307046" y="307.584" style="stroke: #000000; stroke-width: 0.8"/>
      </g>
     </g>
     <g id="text_7">
      <!-- 1200 -->
      <g transform="translate(327.582046 322.182437)scale(0.1 -0.1)">
       <use xlink:href="#DejaVuSans-31"/>
       <use xlink:href="#DejaVuSans-32" x="63.623047"/>
       <use xlink:href="#DejaVuSans-30" x="127.246094"/>
       <use xlink:href="#DejaVuSans-30" x="190.869141"/>
      </g>
     </g>
    </g>
    <g id="xtick_8">
     <g id="line2d_8">
      <g>
       <use xlink:href="#m25661d3f96" x="384.719433" y="307.584" style="stroke: #000000; stroke-width: 0.8"/>
      </g>
     </g>
     <g id="text_8">
      <!-- 1400 -->
      <g transform="translate(371.994433 322.182437)scale(0.1 -0.1)">
       <use xlink:href="#DejaVuSans-31"/>
       <use xlink:href="#DejaVuSans-34" x="63.623047"/>
       <use xlink:href="#DejaVuSans-30" x="127.246094"/>
       <use xlink:href="#DejaVuSans-30" x="190.869141"/>
      </g>
     </g>
    </g>
    <g id="text_9">
     <!-- num swaps -->
     <g transform="translate(207.826406 335.860562)scale(0.1 -0.1)">
      <defs>
       <path id="DejaVuSans-6e" d="M 3513 2113 
L 3513 0 
L 2938 0 
L 2938 2094 
Q 2938 2591 2744 2837 
Q 2550 3084 2163 3084 
Q 1697 3084 1428 2787 
Q 1159 2491 1159 1978 
L 1159 0 
L 581 0 
L 581 3500 
L 1159 3500 
L 1159 2956 
Q 1366 3272 1645 3428 
Q 1925 3584 2291 3584 
Q 2894 3584 3203 3211 
Q 3513 2838 3513 2113 
z
" transform="scale(0.015625)"/>
       <path id="DejaVuSans-75" d="M 544 1381 
L 544 3500 
L 1119 3500 
L 1119 1403 
Q 1119 906 1312 657 
Q 1506 409 1894 409 
Q 2359 409 2629 706 
Q 2900 1003 2900 1516 
L 2900 3500 
L 3475 3500 
L 3475 0 
L 2900 0 
L 2900 538 
Q 2691 219 2414 64 
Q 2138 -91 1772 -91 
Q 1169 -91 856 284 
Q 544 659 544 1381 
z
M 1991 3584 
L 1991 3584 
z
" transform="scale(0.015625)"/>
       <path id="DejaVuSans-6d" d="M 3328 2828 
Q 3544 3216 3844 3400 
Q 4144 3584 4550 3584 
Q 5097 3584 5394 3201 
Q 5691 2819 5691 2113 
L 5691 0 
L 5113 0 
L 5113 2094 
Q 5113 2597 4934 2840 
Q 4756 3084 4391 3084 
Q 3944 3084 3684 2787 
Q 3425 2491 3425 1978 
L 3425 0 
L 2847 0 
L 2847 2094 
Q 2847 2600 2669 2842 
Q 2491 3084 2119 3084 
Q 1678 3084 1418 2786 
Q 1159 2488 1159 1978 
L 1159 0 
L 581 0 
L 581 3500 
L 1159 3500 
L 1159 2956 
Q 1356 3278 1631 3431 
Q 1906 3584 2284 3584 
Q 2666 3584 2933 3390 
Q 3200 3197 3328 2828 
z
" transform="scale(0.015625)"/>
       <path id="DejaVuSans-20" transform="scale(0.015625)"/>
       <path id="DejaVuSans-73" d="M 2834 3397 
L 2834 2853 
Q 2591 2978 2328 3040 
Q 2066 3103 1784 3103 
Q 1356 3103 1142 2972 
Q 928 2841 928 2578 
Q 928 2378 1081 2264 
Q 1234 2150 1697 2047 
L 1894 2003 
Q 2506 1872 2764 1633 
Q 3022 1394 3022 966 
Q 3022 478 2636 193 
Q 2250 -91 1575 -91 
Q 1294 -91 989 -36 
Q 684 19 347 128 
L 347 722 
Q 666 556 975 473 
Q 1284 391 1588 391 
Q 1994 391 2212 530 
Q 2431 669 2431 922 
Q 2431 1156 2273 1281 
Q 2116 1406 1581 1522 
L 1381 1569 
Q 847 1681 609 1914 
Q 372 2147 372 2553 
Q 372 3047 722 3315 
Q 1072 3584 1716 3584 
Q 2034 3584 2315 3537 
Q 2597 3491 2834 3397 
z
" transform="scale(0.015625)"/>
       <path id="DejaVuSans-77" d="M 269 3500 
L 844 3500 
L 1563 769 
L 2278 3500 
L 2956 3500 
L 3675 769 
L 4391 3500 
L 4966 3500 
L 4050 0 
L 3372 0 
L 2619 2869 
L 1863 0 
L 1184 0 
L 269 3500 
z
" transform="scale(0.015625)"/>
       <path id="DejaVuSans-61" d="M 2194 1759 
Q 1497 1759 1228 1600 
Q 959 1441 959 1056 
Q 959 750 1161 570 
Q 1363 391 1709 391 
Q 2188 391 2477 730 
Q 2766 1069 2766 1631 
L 2766 1759 
L 2194 1759 
z
M 3341 1997 
L 3341 0 
L 2766 0 
L 2766 531 
Q 2569 213 2275 61 
Q 1981 -91 1556 -91 
Q 1019 -91 701 211 
Q 384 513 384 1019 
Q 384 1609 779 1909 
Q 1175 2209 1959 2209 
L 2766 2209 
L 2766 2266 
Q 2766 2663 2505 2880 
Q 2244 3097 1772 3097 
Q 1472 3097 1187 3025 
Q 903 2953 641 2809 
L 641 3341 
Q 956 3463 1253 3523 
Q 1550 3584 1831 3584 
Q 2591 3584 2966 3190 
Q 3341 2797 3341 1997 
z
" transform="scale(0.015625)"/>
       <path id="DejaVuSans-70" d="M 1159 525 
L 1159 -1331 
L 581 -1331 
L 581 3500 
L 1159 3500 
L 1159 2969 
Q 1341 3281 1617 3432 
Q 1894 3584 2278 3584 
Q 2916 3584 3314 3078 
Q 3713 2572 3713 1747 
Q 3713 922 3314 415 
Q 2916 -91 2278 -91 
Q 1894 -91 1617 61 
Q 1341 213 1159 525 
z
M 3116 1747 
Q 3116 2381 2855 2742 
Q 2594 3103 2138 3103 
Q 1681 3103 1420 2742 
Q 1159 2381 1159 1747 
Q 1159 1113 1420 752 
Q 1681 391 2138 391 
Q 2594 391 2855 752 
Q 3116 1113 3116 1747 
z
" transform="scale(0.015625)"/>
      </defs>
      <use xlink:href="#DejaVuSans-6e"/>
      <use xlink:href="#DejaVuSans-75" x="63.378906"/>
      <use xlink:href="#DejaVuSans-6d" x="126.757812"/>
      <use xlink:href="#DejaVuSans-20" x="224.169922"/>
      <use xlink:href="#DejaVuSans-73" x="255.957031"/>
      <use xlink:href="#DejaVuSans-77" x="308.056641"/>
      <use xlink:href="#DejaVuSans-61" x="389.84375"/>
      <use xlink:href="#DejaVuSans-70" x="451.123047"/>
      <use xlink:href="#DejaVuSans-73" x="514.599609"/>
     </g>
    </g>
   </g>
   <g id="matplotlib.axis_2">
    <g id="ytick_1">
     <g id="line2d_9">
      <defs>
       <path id="m8d4e8b562f" d="M 0 0 
L -3.5 0 
" style="stroke: #000000; stroke-width: 0.8"/>
      </defs>
      <g>
       <use xlink:href="#m8d4e8b562f" x="57.6" y="295.488" style="stroke: #000000; stroke-width: 0.8"/>
      </g>
     </g>
     <g id="text_10">
      <!-- 155 -->
      <g transform="translate(31.5125 299.287219)scale(0.1 -0.1)">
       <defs>
        <path id="DejaVuSans-35" d="M 691 4666 
L 3169 4666 
L 3169 4134 
L 1269 4134 
L 1269 2991 
Q 1406 3038 1543 3061 
Q 1681 3084 1819 3084 
Q 2600 3084 3056 2656 
Q 3513 2228 3513 1497 
Q 3513 744 3044 326 
Q 2575 -91 1722 -91 
Q 1428 -91 1123 -41 
Q 819 9 494 109 
L 494 744 
Q 775 591 1075 516 
Q 1375 441 1709 441 
Q 2250 441 2565 725 
Q 2881 1009 2881 1497 
Q 2881 1984 2565 2268 
Q 2250 2553 1709 2553 
Q 1456 2553 1204 2497 
Q 953 2441 691 2322 
L 691 4666 
z
" transform="scale(0.015625)"/>
       </defs>
       <use xlink:href="#DejaVuSans-31"/>
       <use xlink:href="#DejaVuSans-35" x="63.623047"/>
       <use xlink:href="#DejaVuSans-35" x="127.246094"/>
      </g>
     </g>
    </g>
    <g id="ytick_2">
     <g id="line2d_10">
      <g>
       <use xlink:href="#m8d4e8b562f" x="57.6" y="265.248" style="stroke: #000000; stroke-width: 0.8"/>
      </g>
     </g>
     <g id="text_11">
      <!-- 160 -->
      <g transform="translate(31.5125 269.047219)scale(0.1 -0.1)">
       <use xlink:href="#DejaVuSans-31"/>
       <use xlink:href="#DejaVuSans-36" x="63.623047"/>
       <use xlink:href="#DejaVuSans-30" x="127.246094"/>
      </g>
     </g>
    </g>
    <g id="ytick_3">
     <g id="line2d_11">
      <g>
       <use xlink:href="#m8d4e8b562f" x="57.6" y="235.008" style="stroke: #000000; stroke-width: 0.8"/>
      </g>
     </g>
     <g id="text_12">
      <!-- 165 -->
      <g transform="translate(31.5125 238.807219)scale(0.1 -0.1)">
       <use xlink:href="#DejaVuSans-31"/>
       <use xlink:href="#DejaVuSans-36" x="63.623047"/>
       <use xlink:href="#DejaVuSans-35" x="127.246094"/>
      </g>
     </g>
    </g>
    <g id="ytick_4">
     <g id="line2d_12">
      <g>
       <use xlink:href="#m8d4e8b562f" x="57.6" y="204.768" style="stroke: #000000; stroke-width: 0.8"/>
      </g>
     </g>
     <g id="text_13">
      <!-- 170 -->
      <g transform="translate(31.5125 208.567219)scale(0.1 -0.1)">
       <defs>
        <path id="DejaVuSans-37" d="M 525 4666 
L 3525 4666 
L 3525 4397 
L 1831 0 
L 1172 0 
L 2766 4134 
L 525 4134 
L 525 4666 
z
" transform="scale(0.015625)"/>
       </defs>
       <use xlink:href="#DejaVuSans-31"/>
       <use xlink:href="#DejaVuSans-37" x="63.623047"/>
       <use xlink:href="#DejaVuSans-30" x="127.246094"/>
      </g>
     </g>
    </g>
    <g id="ytick_5">
     <g id="line2d_13">
      <g>
       <use xlink:href="#m8d4e8b562f" x="57.6" y="174.528" style="stroke: #000000; stroke-width: 0.8"/>
      </g>
     </g>
     <g id="text_14">
      <!-- 175 -->
      <g transform="translate(31.5125 178.327219)scale(0.1 -0.1)">
       <use xlink:href="#DejaVuSans-31"/>
       <use xlink:href="#DejaVuSans-37" x="63.623047"/>
       <use xlink:href="#DejaVuSans-35" x="127.246094"/>
      </g>
     </g>
    </g>
    <g id="ytick_6">
     <g id="line2d_14">
      <g>
       <use xlink:href="#m8d4e8b562f" x="57.6" y="144.288" style="stroke: #000000; stroke-width: 0.8"/>
      </g>
     </g>
     <g id="text_15">
      <!-- 180 -->
      <g transform="translate(31.5125 148.087219)scale(0.1 -0.1)">
       <use xlink:href="#DejaVuSans-31"/>
       <use xlink:href="#DejaVuSans-38" x="63.623047"/>
       <use xlink:href="#DejaVuSans-30" x="127.246094"/>
      </g>
     </g>
    </g>
    <g id="ytick_7">
     <g id="line2d_15">
      <g>
       <use xlink:href="#m8d4e8b562f" x="57.6" y="114.048" style="stroke: #000000; stroke-width: 0.8"/>
      </g>
     </g>
     <g id="text_16">
      <!-- 185 -->
      <g transform="translate(31.5125 117.847219)scale(0.1 -0.1)">
       <use xlink:href="#DejaVuSans-31"/>
       <use xlink:href="#DejaVuSans-38" x="63.623047"/>
       <use xlink:href="#DejaVuSans-35" x="127.246094"/>
      </g>
     </g>
    </g>
    <g id="ytick_8">
     <g id="line2d_16">
      <g>
       <use xlink:href="#m8d4e8b562f" x="57.6" y="83.808" style="stroke: #000000; stroke-width: 0.8"/>
      </g>
     </g>
     <g id="text_17">
      <!-- 190 -->
      <g transform="translate(31.5125 87.607219)scale(0.1 -0.1)">
       <defs>
        <path id="DejaVuSans-39" d="M 703 97 
L 703 672 
Q 941 559 1184 500 
Q 1428 441 1663 441 
Q 2288 441 2617 861 
Q 2947 1281 2994 2138 
Q 2813 1869 2534 1725 
Q 2256 1581 1919 1581 
Q 1219 1581 811 2004 
Q 403 2428 403 3163 
Q 403 3881 828 4315 
Q 1253 4750 1959 4750 
Q 2769 4750 3195 4129 
Q 3622 3509 3622 2328 
Q 3622 1225 3098 567 
Q 2575 -91 1691 -91 
Q 1453 -91 1209 -44 
Q 966 3 703 97 
z
M 1959 2075 
Q 2384 2075 2632 2365 
Q 2881 2656 2881 3163 
Q 2881 3666 2632 3958 
Q 2384 4250 1959 4250 
Q 1534 4250 1286 3958 
Q 1038 3666 1038 3163 
Q 1038 2656 1286 2365 
Q 1534 2075 1959 2075 
z
" transform="scale(0.015625)"/>
       </defs>
       <use xlink:href="#DejaVuSans-31"/>
       <use xlink:href="#DejaVuSans-39" x="63.623047"/>
       <use xlink:href="#DejaVuSans-30" x="127.246094"/>
      </g>
     </g>
    </g>
    <g id="ytick_9">
     <g id="line2d_17">
      <g>
       <use xlink:href="#m8d4e8b562f" x="57.6" y="53.568" style="stroke: #000000; stroke-width: 0.8"/>
      </g>
     </g>
     <g id="text_18">
      <!-- 195 -->
      <g transform="translate(31.5125 57.367219)scale(0.1 -0.1)">
       <use xlink:href="#DejaVuSans-31"/>
       <use xlink:href="#DejaVuSans-39" x="63.623047"/>
       <use xlink:href="#DejaVuSans-35" x="127.246094"/>
      </g>
     </g>
    </g>
    <g id="text_19">
     <!-- total cost -->
     <g transform="translate(25.432812 197.923313)rotate(-90)scale(0.1 -0.1)">
      <defs>
       <path id="DejaVuSans-74" d="M 1172 4494 
L 1172 3500 
L 2356 3500 
L 2356 3053 
L 1172 3053 
L 1172 1153 
Q 1172 725 1289 603 
Q 1406 481 1766 481 
L 2356 481 
L 2356 0 
L 1766 0 
Q 1100 0 847 248 
Q 594 497 594 1153 
L 594 3053 
L 172 3053 
L 172 3500 
L 594 3500 
L 594 4494 
L 1172 4494 
z
" transform="scale(0.015625)"/>
       <path id="DejaVuSans-6f" d="M 1959 3097 
Q 1497 3097 1228 2736 
Q 959 2375 959 1747 
Q 959 1119 1226 758 
Q 1494 397 1959 397 
Q 2419 397 2687 759 
Q 2956 1122 2956 1747 
Q 2956 2369 2687 2733 
Q 2419 3097 1959 3097 
z
M 1959 3584 
Q 2709 3584 3137 3096 
Q 3566 2609 3566 1747 
Q 3566 888 3137 398 
Q 2709 -91 1959 -91 
Q 1206 -91 779 398 
Q 353 888 353 1747 
Q 353 2609 779 3096 
Q 1206 3584 1959 3584 
z
" transform="scale(0.015625)"/>
       <path id="DejaVuSans-6c" d="M 603 4863 
L 1178 4863 
L 1178 0 
L 603 0 
L 603 4863 
z
" transform="scale(0.015625)"/>
       <path id="DejaVuSans-63" d="M 3122 3366 
L 3122 2828 
Q 2878 2963 2633 3030 
Q 2388 3097 2138 3097 
Q 1578 3097 1268 2742 
Q 959 2388 959 1747 
Q 959 1106 1268 751 
Q 1578 397 2138 397 
Q 2388 397 2633 464 
Q 2878 531 3122 666 
L 3122 134 
Q 2881 22 2623 -34 
Q 2366 -91 2075 -91 
Q 1284 -91 818 406 
Q 353 903 353 1747 
Q 353 2603 823 3093 
Q 1294 3584 2113 3584 
Q 2378 3584 2631 3529 
Q 2884 3475 3122 3366 
z
" transform="scale(0.015625)"/>
      </defs>
      <use xlink:href="#DejaVuSans-74"/>
      <use xlink:href="#DejaVuSans-6f" x="39.208984"/>
      <use xlink:href="#DejaVuSans-74" x="100.390625"/>
      <use xlink:href="#DejaVuSans-61" x="139.599609"/>
      <use xlink:href="#DejaVuSans-6c" x="200.878906"/>
      <use xlink:href="#DejaVuSans-20" x="228.662109"/>
      <use xlink:href="#DejaVuSans-63" x="260.449219"/>
      <use xlink:href="#DejaVuSans-6f" x="315.429688"/>
      <use xlink:href="#DejaVuSans-73" x="376.611328"/>
      <use xlink:href="#DejaVuSans-74" x="428.710938"/>
     </g>
    </g>
   </g>
   <g id="line2d_18">
    <path d="M 73.832727 174.528 
L 74.276851 114.048 
L 74.720975 144.288 
L 75.165099 162.432 
L 76.053347 186.624 
L 76.49747 162.432 
L 77.385718 138.24 
L 77.829842 150.336 
L 78.273966 132.192 
L 78.71809 138.24 
L 79.162214 132.192 
L 79.606338 144.288 
L 80.050461 150.336 
L 80.494585 180.576 
L 80.938709 192.672 
L 81.382833 156.384 
L 81.826957 174.528 
L 82.271081 156.384 
L 82.715205 156.384 
L 83.159328 174.528 
L 83.603452 150.336 
L 84.047576 162.432 
L 84.4917 180.576 
L 84.935824 180.576 
L 85.379948 228.96 
L 85.824072 198.72 
L 86.268195 186.624 
L 86.712319 192.672 
L 87.156443 186.624 
L 87.600567 120.096 
L 88.044691 144.288 
L 88.488815 144.288 
L 88.932939 120.096 
L 89.377063 168.48 
L 89.821186 180.576 
L 90.26531 228.96 
L 90.709434 222.912 
L 91.153558 186.624 
L 91.597682 186.624 
L 92.041806 180.576 
L 92.48593 198.72 
L 92.930053 186.624 
L 93.374177 180.576 
L 93.818301 180.576 
L 94.262425 192.672 
L 94.706549 168.48 
L 95.150673 204.768 
L 95.594797 216.864 
L 96.038921 186.624 
L 96.483044 198.72 
L 96.927168 174.528 
L 97.371292 180.576 
L 97.815416 180.576 
L 98.25954 174.528 
L 98.703664 198.72 
L 99.147788 271.296 
L 99.591911 247.104 
L 100.036035 186.624 
L 100.480159 192.672 
L 100.924283 204.768 
L 101.368407 180.576 
L 101.812531 198.72 
L 102.256655 228.96 
L 102.700779 247.104 
L 103.144902 235.008 
L 103.589026 204.768 
L 104.03315 222.912 
L 104.477274 216.864 
L 104.921398 168.48 
L 105.365522 150.336 
L 106.253769 174.528 
L 106.697893 150.336 
L 107.142017 150.336 
L 107.586141 204.768 
L 108.030265 222.912 
L 108.474389 222.912 
L 108.918513 192.672 
L 109.362636 204.768 
L 109.80676 180.576 
L 110.250884 222.912 
L 110.695008 210.816 
L 111.139132 168.48 
L 111.583256 228.96 
L 112.02738 210.816 
L 112.471504 235.008 
L 112.915627 222.912 
L 113.359751 174.528 
L 113.803875 156.384 
L 114.247999 144.288 
L 115.136247 156.384 
L 115.580371 156.384 
L 116.024494 150.336 
L 116.468618 150.336 
L 116.912742 216.864 
L 117.356866 180.576 
L 117.80099 216.864 
L 118.245114 186.624 
L 118.689238 210.816 
L 119.133362 168.48 
L 119.577485 174.528 
L 120.021609 132.192 
L 120.465733 150.336 
L 120.909857 156.384 
L 121.353981 186.624 
L 121.798105 198.72 
L 122.242229 156.384 
L 122.686352 144.288 
L 123.130476 180.576 
L 123.5746 192.672 
L 124.018724 144.288 
L 124.462848 126.144 
L 125.351096 101.952 
L 125.79522 150.336 
L 126.239343 138.24 
L 126.683467 144.288 
L 127.127591 162.432 
L 127.571715 150.336 
L 128.015839 180.576 
L 128.459963 186.624 
L 128.904087 126.144 
L 130.236458 241.056 
L 130.680582 235.008 
L 131.56883 144.288 
L 132.012954 144.288 
L 132.457077 95.904 
L 132.901201 83.808 
L 133.345325 53.568 
L 134.233573 150.336 
L 134.677697 150.336 
L 135.121821 168.48 
L 135.565945 174.528 
L 136.010068 138.24 
L 136.454192 120.096 
L 136.898316 108 
L 137.34244 156.384 
L 137.786564 114.048 
L 138.230688 168.48 
L 138.674812 156.384 
L 139.118935 192.672 
L 140.007183 228.96 
L 140.451307 174.528 
L 140.895431 150.336 
L 141.339555 156.384 
L 141.783679 168.48 
L 142.227803 156.384 
L 142.671926 168.48 
L 143.11605 138.24 
L 143.560174 138.24 
L 144.004298 114.048 
L 144.448422 174.528 
L 144.892546 192.672 
L 145.33667 174.528 
L 145.780793 174.528 
L 146.224917 180.576 
L 146.669041 174.528 
L 147.113165 180.576 
L 147.557289 198.72 
L 148.001413 156.384 
L 148.445537 156.384 
L 148.88966 138.24 
L 149.333784 144.288 
L 149.777908 222.912 
L 150.222032 235.008 
L 150.666156 204.768 
L 151.11028 216.864 
L 151.554404 235.008 
L 151.998528 247.104 
L 152.442651 204.768 
L 152.886775 204.768 
L 153.330899 192.672 
L 153.775023 210.816 
L 154.219147 198.72 
L 155.107395 247.104 
L 155.551518 216.864 
L 155.995642 204.768 
L 156.88389 168.48 
L 157.328014 168.48 
L 158.216262 235.008 
L 159.104509 259.2 
L 159.548633 235.008 
L 159.992757 222.912 
L 160.436881 235.008 
L 160.881005 228.96 
L 161.769253 180.576 
L 162.213376 210.816 
L 162.6575 180.576 
L 163.101624 126.144 
L 163.545748 174.528 
L 163.989872 186.624 
L 164.433996 180.576 
L 164.87812 186.624 
L 165.322244 162.432 
L 166.210491 162.432 
L 167.542863 198.72 
L 167.986987 180.576 
L 168.431111 180.576 
L 168.875234 162.432 
L 169.319358 132.192 
L 169.763482 138.24 
L 170.207606 150.336 
L 170.65173 132.192 
L 171.095854 150.336 
L 171.539978 132.192 
L 171.984101 126.144 
L 172.428225 156.384 
L 172.872349 138.24 
L 173.316473 144.288 
L 173.760597 162.432 
L 174.204721 168.48 
L 174.648845 150.336 
L 175.092969 156.384 
L 175.537092 186.624 
L 175.981216 162.432 
L 176.42534 222.912 
L 176.869464 228.96 
L 177.313588 180.576 
L 177.757712 174.528 
L 178.201836 150.336 
L 179.090083 174.528 
L 179.534207 174.528 
L 179.978331 156.384 
L 180.422455 174.528 
L 180.866579 126.144 
L 181.310703 114.048 
L 182.643074 132.192 
L 183.087198 162.432 
L 183.531322 144.288 
L 183.975446 132.192 
L 184.41957 126.144 
L 185.307817 138.24 
L 185.751941 180.576 
L 186.196065 174.528 
L 186.640189 162.432 
L 187.084313 192.672 
L 187.528437 144.288 
L 187.972561 138.24 
L 188.416684 186.624 
L 188.860808 204.768 
L 189.304932 162.432 
L 189.749056 168.48 
L 190.19318 198.72 
L 190.637304 174.528 
L 191.081428 186.624 
L 191.969675 174.528 
L 192.413799 156.384 
L 192.857923 174.528 
L 193.302047 204.768 
L 193.746171 216.864 
L 194.190295 186.624 
L 194.634419 192.672 
L 195.078542 174.528 
L 195.522666 186.624 
L 195.96679 168.48 
L 196.410914 192.672 
L 196.855038 186.624 
L 197.299162 126.144 
L 197.743286 120.096 
L 198.18741 108 
L 198.631533 71.712 
L 199.519781 162.432 
L 199.963905 174.528 
L 200.852153 120.096 
L 201.296277 132.192 
L 201.7404 120.096 
L 202.184524 150.336 
L 202.628648 138.24 
L 203.072772 138.24 
L 203.516896 108 
L 204.405144 120.096 
L 204.849268 138.24 
L 205.737515 222.912 
L 206.181639 235.008 
L 206.625763 204.768 
L 207.069887 162.432 
L 207.514011 162.432 
L 207.958135 150.336 
L 208.402258 174.528 
L 208.846382 180.576 
L 209.290506 192.672 
L 209.73463 186.624 
L 210.178754 168.48 
L 210.622878 156.384 
L 211.067002 174.528 
L 211.511125 156.384 
L 211.955249 168.48 
L 212.399373 162.432 
L 212.843497 168.48 
L 213.287621 156.384 
L 213.731745 156.384 
L 214.175869 174.528 
L 214.619993 156.384 
L 215.064116 144.288 
L 215.50824 174.528 
L 215.952364 192.672 
L 216.396488 216.864 
L 216.840612 210.816 
L 217.72886 126.144 
L 218.172983 132.192 
L 218.617107 108 
L 219.061231 126.144 
L 219.505355 132.192 
L 219.949479 162.432 
L 220.393603 162.432 
L 220.837727 150.336 
L 221.281851 144.288 
L 221.725974 156.384 
L 222.614222 156.384 
L 223.058346 144.288 
L 223.50247 168.48 
L 223.946594 210.816 
L 224.390718 241.056 
L 224.834841 222.912 
L 225.278965 247.104 
L 225.723089 253.152 
L 226.167213 235.008 
L 226.611337 198.72 
L 227.055461 198.72 
L 227.499585 174.528 
L 228.387832 186.624 
L 228.831956 168.48 
L 229.27608 132.192 
L 229.720204 150.336 
L 231.052576 168.48 
L 231.496699 138.24 
L 231.940823 120.096 
L 232.384947 132.192 
L 232.829071 150.336 
L 233.273195 174.528 
L 234.161443 89.856 
L 234.605566 101.952 
L 235.04969 120.096 
L 235.493814 132.192 
L 235.937938 186.624 
L 236.382062 174.528 
L 236.826186 186.624 
L 237.714434 198.72 
L 238.158557 186.624 
L 238.602681 168.48 
L 239.046805 162.432 
L 239.490929 144.288 
L 239.935053 144.288 
L 240.379177 101.952 
L 240.823301 114.048 
L 241.267424 83.808 
L 241.711548 126.144 
L 242.155672 95.904 
L 243.04392 138.24 
L 243.488044 126.144 
L 243.932168 138.24 
L 244.376292 156.384 
L 244.820415 186.624 
L 245.264539 168.48 
L 245.708663 198.72 
L 246.152787 150.336 
L 246.596911 162.432 
L 247.041035 162.432 
L 247.485159 192.672 
L 247.929282 162.432 
L 248.373406 186.624 
L 248.81753 168.48 
L 249.261654 174.528 
L 249.705778 174.528 
L 250.149902 156.384 
L 250.594026 150.336 
L 251.038149 162.432 
L 251.482273 204.768 
L 251.926397 198.72 
L 252.370521 198.72 
L 252.814645 210.816 
L 253.258769 228.96 
L 253.702893 198.72 
L 254.147017 198.72 
L 254.59114 247.104 
L 255.035264 235.008 
L 255.479388 235.008 
L 255.923512 174.528 
L 256.367636 144.288 
L 256.81176 180.576 
L 257.255884 168.48 
L 257.700007 174.528 
L 258.144131 228.96 
L 258.588255 241.056 
L 259.032379 210.816 
L 259.476503 198.72 
L 259.920627 210.816 
L 260.364751 198.72 
L 261.252998 144.288 
L 261.697122 162.432 
L 262.141246 168.48 
L 263.029494 168.48 
L 263.473618 192.672 
L 263.917742 204.768 
L 264.361865 156.384 
L 264.805989 150.336 
L 265.250113 186.624 
L 265.694237 150.336 
L 266.138361 156.384 
L 266.582485 138.24 
L 267.026609 156.384 
L 267.470732 210.816 
L 268.35898 156.384 
L 268.803104 228.96 
L 269.691352 150.336 
L 270.135476 138.24 
L 270.5796 95.904 
L 271.023723 132.192 
L 271.467847 150.336 
L 271.911971 162.432 
L 272.356095 186.624 
L 272.800219 150.336 
L 273.244343 162.432 
L 273.688467 180.576 
L 274.13259 174.528 
L 274.576714 174.528 
L 275.020838 186.624 
L 275.464962 204.768 
L 275.909086 174.528 
L 276.35321 168.48 
L 276.797334 210.816 
L 277.241458 204.768 
L 277.685581 204.768 
L 278.129705 210.816 
L 278.573829 241.056 
L 279.017953 241.056 
L 279.462077 192.672 
L 279.906201 198.72 
L 280.350325 192.672 
L 280.794448 204.768 
L 281.238572 222.912 
L 281.682696 235.008 
L 282.12682 235.008 
L 282.570944 186.624 
L 283.015068 216.864 
L 283.459192 210.816 
L 283.903316 210.816 
L 284.347439 198.72 
L 284.791563 204.768 
L 285.679811 162.432 
L 286.123935 210.816 
L 287.012183 144.288 
L 287.456306 180.576 
L 287.90043 235.008 
L 288.344554 228.96 
L 288.788678 204.768 
L 289.232802 192.672 
L 289.676926 186.624 
L 290.12105 235.008 
L 290.565173 222.912 
L 291.009297 228.96 
L 291.897545 204.768 
L 292.341669 241.056 
L 292.785793 228.96 
L 293.229917 235.008 
L 293.674041 247.104 
L 294.118164 241.056 
L 294.562288 222.912 
L 295.006412 210.816 
L 295.450536 180.576 
L 295.89466 186.624 
L 296.338784 198.72 
L 296.782908 198.72 
L 297.227031 186.624 
L 297.671155 186.624 
L 298.115279 228.96 
L 298.559403 247.104 
L 299.003527 283.392 
L 299.447651 216.864 
L 299.891775 204.768 
L 300.335899 277.344 
L 300.780022 271.296 
L 301.224146 216.864 
L 301.66827 204.768 
L 302.112394 180.576 
L 302.556518 192.672 
L 303.000642 216.864 
L 303.444766 222.912 
L 303.888889 210.816 
L 304.333013 216.864 
L 304.777137 210.816 
L 305.221261 174.528 
L 305.665385 168.48 
L 306.109509 174.528 
L 306.553633 144.288 
L 306.997756 144.288 
L 307.44188 174.528 
L 307.886004 174.528 
L 308.330128 204.768 
L 308.774252 180.576 
L 309.218376 168.48 
L 309.6625 210.816 
L 310.106624 216.864 
L 310.550747 204.768 
L 310.994871 228.96 
L 311.438995 235.008 
L 311.883119 180.576 
L 312.771367 156.384 
L 313.215491 156.384 
L 313.659614 138.24 
L 314.103738 138.24 
L 315.43611 156.384 
L 315.880234 186.624 
L 316.768482 144.288 
L 317.212605 101.952 
L 317.656729 126.144 
L 318.100853 126.144 
L 318.989101 114.048 
L 319.433225 144.288 
L 319.877349 144.288 
L 320.321472 120.096 
L 320.765596 126.144 
L 321.20972 89.856 
L 321.653844 114.048 
L 322.097968 108 
L 322.542092 132.192 
L 322.986216 114.048 
L 323.43034 89.856 
L 323.874463 144.288 
L 324.318587 156.384 
L 324.762711 162.432 
L 325.206835 186.624 
L 325.650959 192.672 
L 326.095083 210.816 
L 326.539207 198.72 
L 326.98333 210.816 
L 327.427454 210.816 
L 327.871578 192.672 
L 328.759826 271.296 
L 329.20395 277.344 
L 329.648074 247.104 
L 330.092197 265.248 
L 330.536321 265.248 
L 330.980445 253.152 
L 331.424569 235.008 
L 331.868693 265.248 
L 332.312817 253.152 
L 332.756941 235.008 
L 333.201065 235.008 
L 333.645188 192.672 
L 334.089312 138.24 
L 334.533436 114.048 
L 334.97756 126.144 
L 335.421684 174.528 
L 335.865808 198.72 
L 336.309932 241.056 
L 336.754055 235.008 
L 337.198179 216.864 
L 337.642303 216.864 
L 338.086427 168.48 
L 338.530551 168.48 
L 338.974675 156.384 
L 339.418799 198.72 
L 339.862923 174.528 
L 340.307046 228.96 
L 341.195294 216.864 
L 341.639418 222.912 
L 342.083542 204.768 
L 342.527666 216.864 
L 344.304161 241.056 
L 344.748285 228.96 
L 345.192409 228.96 
L 345.636533 162.432 
L 346.080657 168.48 
L 346.968904 222.912 
L 347.413028 216.864 
L 347.857152 228.96 
L 348.301276 222.912 
L 349.189524 265.248 
L 349.633648 265.248 
L 350.077771 241.056 
L 350.521895 253.152 
L 350.966019 162.432 
L 351.410143 222.912 
L 351.854267 192.672 
L 352.298391 204.768 
L 352.742515 198.72 
L 353.186638 198.72 
L 353.630762 216.864 
L 354.074886 241.056 
L 354.51901 228.96 
L 354.963134 235.008 
L 355.407258 265.248 
L 355.851382 283.392 
L 356.295506 241.056 
L 356.739629 241.056 
L 357.183753 235.008 
L 357.627877 192.672 
L 358.072001 192.672 
L 358.516125 198.72 
L 358.960249 168.48 
L 359.404373 168.48 
L 359.848496 174.528 
L 360.29262 144.288 
L 360.736744 144.288 
L 361.180868 186.624 
L 361.624992 174.528 
L 362.069116 186.624 
L 362.51324 204.768 
L 362.957364 198.72 
L 363.401487 210.816 
L 363.845611 204.768 
L 364.289735 210.816 
L 364.733859 198.72 
L 365.177983 216.864 
L 365.622107 216.864 
L 366.510354 144.288 
L 366.954478 144.288 
L 367.398602 138.24 
L 367.842726 114.048 
L 368.28685 138.24 
L 368.730974 126.144 
L 369.175098 174.528 
L 369.619221 192.672 
L 370.063345 156.384 
L 370.507469 174.528 
L 370.951593 168.48 
L 371.395717 192.672 
L 371.839841 192.672 
L 372.283965 162.432 
L 372.728089 180.576 
L 373.172212 162.432 
L 373.616336 204.768 
L 374.06046 168.48 
L 374.948708 228.96 
L 375.392832 216.864 
L 375.836956 210.816 
L 376.281079 192.672 
L 376.725203 228.96 
L 377.169327 235.008 
L 377.613451 247.104 
L 378.057575 241.056 
L 378.501699 259.2 
L 378.945823 192.672 
L 379.389947 156.384 
L 379.83407 144.288 
L 380.278194 168.48 
L 380.722318 132.192 
L 381.166442 120.096 
L 381.610566 162.432 
L 382.05469 186.624 
L 382.498814 144.288 
L 382.942937 150.336 
L 383.387061 162.432 
L 383.831185 168.48 
L 384.719433 144.288 
L 385.163557 126.144 
L 385.607681 132.192 
L 386.051805 162.432 
L 386.495928 174.528 
L 386.940052 204.768 
L 387.8283 180.576 
L 388.272424 162.432 
L 388.716548 132.192 
L 389.160672 120.096 
L 390.048919 144.288 
L 390.493043 186.624 
L 390.937167 180.576 
L 391.381291 210.816 
L 391.825415 253.152 
L 392.269539 277.344 
L 392.713662 289.44 
L 393.157786 295.488 
L 393.60191 265.248 
L 394.046034 277.344 
L 394.490158 259.2 
L 394.934282 235.008 
L 395.378406 241.056 
L 395.82253 210.816 
L 396.266653 241.056 
L 396.710777 204.768 
L 397.154901 216.864 
L 397.599025 210.816 
L 398.487273 89.856 
L 398.487273 89.856 
" clip-path="url(#pcb00565744)" style="fill: none; stroke: #1f77b4; stroke-width: 1.5; stroke-linecap: square"/>
   </g>
   <g id="patch_3">
    <path d="M 57.6 307.584 
L 57.6 41.472 
" style="fill: none; stroke: #000000; stroke-width: 0.8; stroke-linejoin: miter; stroke-linecap: square"/>
   </g>
   <g id="patch_4">
    <path d="M 414.72 307.584 
L 414.72 41.472 
" style="fill: none; stroke: #000000; stroke-width: 0.8; stroke-linejoin: miter; stroke-linecap: square"/>
   </g>
   <g id="patch_5">
    <path d="M 57.6 307.584 
L 414.72 307.584 
" style="fill: none; stroke: #000000; stroke-width: 0.8; stroke-linejoin: miter; stroke-linecap: square"/>
   </g>
   <g id="patch_6">
    <path d="M 57.6 41.472 
L 414.72 41.472 
" style="fill: none; stroke: #000000; stroke-width: 0.8; stroke-linejoin: miter; stroke-linecap: square"/>
   </g>
   <g id="text_20">
    <!-- Simulated Anealling Cost -->
    <g transform="translate(160.8 35.472)scale(0.12 -0.12)">
     <defs>
      <path id="DejaVuSans-53" d="M 3425 4513 
L 3425 3897 
Q 3066 4069 2747 4153 
Q 2428 4238 2131 4238 
Q 1616 4238 1336 4038 
Q 1056 3838 1056 3469 
Q 1056 3159 1242 3001 
Q 1428 2844 1947 2747 
L 2328 2669 
Q 3034 2534 3370 2195 
Q 3706 1856 3706 1288 
Q 3706 609 3251 259 
Q 2797 -91 1919 -91 
Q 1588 -91 1214 -16 
Q 841 59 441 206 
L 441 856 
Q 825 641 1194 531 
Q 1563 422 1919 422 
Q 2459 422 2753 634 
Q 3047 847 3047 1241 
Q 3047 1584 2836 1778 
Q 2625 1972 2144 2069 
L 1759 2144 
Q 1053 2284 737 2584 
Q 422 2884 422 3419 
Q 422 4038 858 4394 
Q 1294 4750 2059 4750 
Q 2388 4750 2728 4690 
Q 3069 4631 3425 4513 
z
" transform="scale(0.015625)"/>
      <path id="DejaVuSans-69" d="M 603 3500 
L 1178 3500 
L 1178 0 
L 603 0 
L 603 3500 
z
M 603 4863 
L 1178 4863 
L 1178 4134 
L 603 4134 
L 603 4863 
z
" transform="scale(0.015625)"/>
      <path id="DejaVuSans-65" d="M 3597 1894 
L 3597 1613 
L 953 1613 
Q 991 1019 1311 708 
Q 1631 397 2203 397 
Q 2534 397 2845 478 
Q 3156 559 3463 722 
L 3463 178 
Q 3153 47 2828 -22 
Q 2503 -91 2169 -91 
Q 1331 -91 842 396 
Q 353 884 353 1716 
Q 353 2575 817 3079 
Q 1281 3584 2069 3584 
Q 2775 3584 3186 3129 
Q 3597 2675 3597 1894 
z
M 3022 2063 
Q 3016 2534 2758 2815 
Q 2500 3097 2075 3097 
Q 1594 3097 1305 2825 
Q 1016 2553 972 2059 
L 3022 2063 
z
" transform="scale(0.015625)"/>
      <path id="DejaVuSans-64" d="M 2906 2969 
L 2906 4863 
L 3481 4863 
L 3481 0 
L 2906 0 
L 2906 525 
Q 2725 213 2448 61 
Q 2172 -91 1784 -91 
Q 1150 -91 751 415 
Q 353 922 353 1747 
Q 353 2572 751 3078 
Q 1150 3584 1784 3584 
Q 2172 3584 2448 3432 
Q 2725 3281 2906 2969 
z
M 947 1747 
Q 947 1113 1208 752 
Q 1469 391 1925 391 
Q 2381 391 2643 752 
Q 2906 1113 2906 1747 
Q 2906 2381 2643 2742 
Q 2381 3103 1925 3103 
Q 1469 3103 1208 2742 
Q 947 2381 947 1747 
z
" transform="scale(0.015625)"/>
      <path id="DejaVuSans-41" d="M 2188 4044 
L 1331 1722 
L 3047 1722 
L 2188 4044 
z
M 1831 4666 
L 2547 4666 
L 4325 0 
L 3669 0 
L 3244 1197 
L 1141 1197 
L 716 0 
L 50 0 
L 1831 4666 
z
" transform="scale(0.015625)"/>
      <path id="DejaVuSans-67" d="M 2906 1791 
Q 2906 2416 2648 2759 
Q 2391 3103 1925 3103 
Q 1463 3103 1205 2759 
Q 947 2416 947 1791 
Q 947 1169 1205 825 
Q 1463 481 1925 481 
Q 2391 481 2648 825 
Q 2906 1169 2906 1791 
z
M 3481 434 
Q 3481 -459 3084 -895 
Q 2688 -1331 1869 -1331 
Q 1566 -1331 1297 -1286 
Q 1028 -1241 775 -1147 
L 775 -588 
Q 1028 -725 1275 -790 
Q 1522 -856 1778 -856 
Q 2344 -856 2625 -561 
Q 2906 -266 2906 331 
L 2906 616 
Q 2728 306 2450 153 
Q 2172 0 1784 0 
Q 1141 0 747 490 
Q 353 981 353 1791 
Q 353 2603 747 3093 
Q 1141 3584 1784 3584 
Q 2172 3584 2450 3431 
Q 2728 3278 2906 2969 
L 2906 3500 
L 3481 3500 
L 3481 434 
z
" transform="scale(0.015625)"/>
      <path id="DejaVuSans-43" d="M 4122 4306 
L 4122 3641 
Q 3803 3938 3442 4084 
Q 3081 4231 2675 4231 
Q 1875 4231 1450 3742 
Q 1025 3253 1025 2328 
Q 1025 1406 1450 917 
Q 1875 428 2675 428 
Q 3081 428 3442 575 
Q 3803 722 4122 1019 
L 4122 359 
Q 3791 134 3420 21 
Q 3050 -91 2638 -91 
Q 1578 -91 968 557 
Q 359 1206 359 2328 
Q 359 3453 968 4101 
Q 1578 4750 2638 4750 
Q 3056 4750 3426 4639 
Q 3797 4528 4122 4306 
z
" transform="scale(0.015625)"/>
     </defs>
     <use xlink:href="#DejaVuSans-53"/>
     <use xlink:href="#DejaVuSans-69" x="63.476562"/>
     <use xlink:href="#DejaVuSans-6d" x="91.259766"/>
     <use xlink:href="#DejaVuSans-75" x="188.671875"/>
     <use xlink:href="#DejaVuSans-6c" x="252.050781"/>
     <use xlink:href="#DejaVuSans-61" x="279.833984"/>
     <use xlink:href="#DejaVuSans-74" x="341.113281"/>
     <use xlink:href="#DejaVuSans-65" x="380.322266"/>
     <use xlink:href="#DejaVuSans-64" x="441.845703"/>
     <use xlink:href="#DejaVuSans-20" x="505.322266"/>
     <use xlink:href="#DejaVuSans-41" x="537.109375"/>
     <use xlink:href="#DejaVuSans-6e" x="605.517578"/>
     <use xlink:href="#DejaVuSans-65" x="668.896484"/>
     <use xlink:href="#DejaVuSans-61" x="730.419922"/>
     <use xlink:href="#DejaVuSans-6c" x="791.699219"/>
     <use xlink:href="#DejaVuSans-6c" x="819.482422"/>
     <use xlink:href="#DejaVuSans-69" x="847.265625"/>
     <use xlink:href="#DejaVuSans-6e" x="875.048828"/>
     <use xlink:href="#DejaVuSans-67" x="938.427734"/>
     <use xlink:href="#DejaVuSans-20" x="1001.904297"/>
     <use xlink:href="#DejaVuSans-43" x="1033.691406"/>
     <use xlink:href="#DejaVuSans-6f" x="1103.515625"/>
     <use xlink:href="#DejaVuSans-73" x="1164.697266"/>
     <use xlink:href="#DejaVuSans-74" x="1216.796875"/>
    </g>
   </g>
  </g>
 </g>
 <defs>
  <clipPath id="pcb00565744">
   <rect x="57.6" y="41.472" width="357.12" height="266.112"/>
  </clipPath>
 </defs>
</svg>
