<?xml version="1.0" encoding="utf-8" standalone="no"?>
<!DOCTYPE svg PUBLIC "-//W3C//DTD SVG 1.1//EN"
  "http://www.w3.org/Graphics/SVG/1.1/DTD/svg11.dtd">
<svg xmlns:xlink="http://www.w3.org/1999/xlink" width="460.8pt" height="345.6pt" viewBox="0 0 460.8 345.6" xmlns="http://www.w3.org/2000/svg" version="1.1">
 <metadata>
  <rdf:RDF xmlns:dc="http://purl.org/dc/elements/1.1/" xmlns:cc="http://creativecommons.org/ns#" xmlns:rdf="http://www.w3.org/1999/02/22-rdf-syntax-ns#">
   <cc:Work>
    <dc:type rdf:resource="http://purl.org/dc/dcmitype/StillImage"/>
    <dc:date>2022-06-01T08:04:35.684636</dc:date>
    <dc:format>image/svg+xml</dc:format>
    <dc:creator>
     <cc:Agent>
      <dc:title>Matplotlib v3.5.1, https://matplotlib.org/</dc:title>
     </cc:Agent>
    </dc:creator>
   </cc:Work>
  </rdf:RDF>
 </metadata>
 <defs>
  <style type="text/css">*{stroke-linejoin: round; stroke-linecap: butt}</style>
 </defs>
 <g id="figure_1">
  <g id="patch_1">
   <path d="M 0 345.6 
L 460.8 345.6 
L 460.8 0 
L 0 0 
z
" style="fill: #ffffff"/>
  </g>
  <g id="axes_1">
   <g id="patch_2">
    <path d="M 57.6 307.584 
L 414.72 307.584 
L 414.72 41.472 
L 57.6 41.472 
z
" style="fill: #ffffff"/>
   </g>
   <g id="matplotlib.axis_1">
    <g id="xtick_1">
     <g id="line2d_1">
      <defs>
       <path id="mc0f19caf60" d="M 0 0 
L 0 3.5 
" style="stroke: #000000; stroke-width: 0.8"/>
      </defs>
      <g>
       <use xlink:href="#mc0f19caf60" x="73.832727" y="307.584" style="stroke: #000000; stroke-width: 0.8"/>
      </g>
     </g>
     <g id="text_1">
      <!-- 0 -->
      <g transform="translate(70.651477 322.182437)scale(0.1 -0.1)">
       <defs>
        <path id="DejaVuSans-30" d="M 2034 4250 
Q 1547 4250 1301 3770 
Q 1056 3291 1056 2328 
Q 1056 1369 1301 889 
Q 1547 409 2034 409 
Q 2525 409 2770 889 
Q 3016 1369 3016 2328 
Q 3016 3291 2770 3770 
Q 2525 4250 2034 4250 
z
M 2034 4750 
Q 2819 4750 3233 4129 
Q 3647 3509 3647 2328 
Q 3647 1150 3233 529 
Q 2819 -91 2034 -91 
Q 1250 -91 836 529 
Q 422 1150 422 2328 
Q 422 3509 836 4129 
Q 1250 4750 2034 4750 
z
" transform="scale(0.015625)"/>
       </defs>
       <use xlink:href="#DejaVuSans-30"/>
      </g>
     </g>
    </g>
    <g id="xtick_2">
     <g id="line2d_2">
      <g>
       <use xlink:href="#mc0f19caf60" x="121.787608" y="307.584" style="stroke: #000000; stroke-width: 0.8"/>
      </g>
     </g>
     <g id="text_2">
      <!-- 200 -->
      <g transform="translate(112.243858 322.182437)scale(0.1 -0.1)">
       <defs>
        <path id="DejaVuSans-32" d="M 1228 531 
L 3431 531 
L 3431 0 
L 469 0 
L 469 531 
Q 828 903 1448 1529 
Q 2069 2156 2228 2338 
Q 2531 2678 2651 2914 
Q 2772 3150 2772 3378 
Q 2772 3750 2511 3984 
Q 2250 4219 1831 4219 
Q 1534 4219 1204 4116 
Q 875 4013 500 3803 
L 500 4441 
Q 881 4594 1212 4672 
Q 1544 4750 1819 4750 
Q 2544 4750 2975 4387 
Q 3406 4025 3406 3419 
Q 3406 3131 3298 2873 
Q 3191 2616 2906 2266 
Q 2828 2175 2409 1742 
Q 1991 1309 1228 531 
z
" transform="scale(0.015625)"/>
       </defs>
       <use xlink:href="#DejaVuSans-32"/>
       <use xlink:href="#DejaVuSans-30" x="63.623047"/>
       <use xlink:href="#DejaVuSans-30" x="127.246094"/>
      </g>
     </g>
    </g>
    <g id="xtick_3">
     <g id="line2d_3">
      <g>
       <use xlink:href="#mc0f19caf60" x="169.74249" y="307.584" style="stroke: #000000; stroke-width: 0.8"/>
      </g>
     </g>
     <g id="text_3">
      <!-- 400 -->
      <g transform="translate(160.19874 322.182437)scale(0.1 -0.1)">
       <defs>
        <path id="DejaVuSans-34" d="M 2419 4116 
L 825 1625 
L 2419 1625 
L 2419 4116 
z
M 2253 4666 
L 3047 4666 
L 3047 1625 
L 3713 1625 
L 3713 1100 
L 3047 1100 
L 3047 0 
L 2419 0 
L 2419 1100 
L 313 1100 
L 313 1709 
L 2253 4666 
z
" transform="scale(0.015625)"/>
       </defs>
       <use xlink:href="#DejaVuSans-34"/>
       <use xlink:href="#DejaVuSans-30" x="63.623047"/>
       <use xlink:href="#DejaVuSans-30" x="127.246094"/>
      </g>
     </g>
    </g>
    <g id="xtick_4">
     <g id="line2d_4">
      <g>
       <use xlink:href="#mc0f19caf60" x="217.697371" y="307.584" style="stroke: #000000; stroke-width: 0.8"/>
      </g>
     </g>
     <g id="text_4">
      <!-- 600 -->
      <g transform="translate(208.153621 322.182437)scale(0.1 -0.1)">
       <defs>
        <path id="DejaVuSans-36" d="M 2113 2584 
Q 1688 2584 1439 2293 
Q 1191 2003 1191 1497 
Q 1191 994 1439 701 
Q 1688 409 2113 409 
Q 2538 409 2786 701 
Q 3034 994 3034 1497 
Q 3034 2003 2786 2293 
Q 2538 2584 2113 2584 
z
M 3366 4563 
L 3366 3988 
Q 3128 4100 2886 4159 
Q 2644 4219 2406 4219 
Q 1781 4219 1451 3797 
Q 1122 3375 1075 2522 
Q 1259 2794 1537 2939 
Q 1816 3084 2150 3084 
Q 2853 3084 3261 2657 
Q 3669 2231 3669 1497 
Q 3669 778 3244 343 
Q 2819 -91 2113 -91 
Q 1303 -91 875 529 
Q 447 1150 447 2328 
Q 447 3434 972 4092 
Q 1497 4750 2381 4750 
Q 2619 4750 2861 4703 
Q 3103 4656 3366 4563 
z
" transform="scale(0.015625)"/>
       </defs>
       <use xlink:href="#DejaVuSans-36"/>
       <use xlink:href="#DejaVuSans-30" x="63.623047"/>
       <use xlink:href="#DejaVuSans-30" x="127.246094"/>
      </g>
     </g>
    </g>
    <g id="xtick_5">
     <g id="line2d_5">
      <g>
       <use xlink:href="#mc0f19caf60" x="265.652252" y="307.584" style="stroke: #000000; stroke-width: 0.8"/>
      </g>
     </g>
     <g id="text_5">
      <!-- 800 -->
      <g transform="translate(256.108502 322.182437)scale(0.1 -0.1)">
       <defs>
        <path id="DejaVuSans-38" d="M 2034 2216 
Q 1584 2216 1326 1975 
Q 1069 1734 1069 1313 
Q 1069 891 1326 650 
Q 1584 409 2034 409 
Q 2484 409 2743 651 
Q 3003 894 3003 1313 
Q 3003 1734 2745 1975 
Q 2488 2216 2034 2216 
z
M 1403 2484 
Q 997 2584 770 2862 
Q 544 3141 544 3541 
Q 544 4100 942 4425 
Q 1341 4750 2034 4750 
Q 2731 4750 3128 4425 
Q 3525 4100 3525 3541 
Q 3525 3141 3298 2862 
Q 3072 2584 2669 2484 
Q 3125 2378 3379 2068 
Q 3634 1759 3634 1313 
Q 3634 634 3220 271 
Q 2806 -91 2034 -91 
Q 1263 -91 848 271 
Q 434 634 434 1313 
Q 434 1759 690 2068 
Q 947 2378 1403 2484 
z
M 1172 3481 
Q 1172 3119 1398 2916 
Q 1625 2713 2034 2713 
Q 2441 2713 2670 2916 
Q 2900 3119 2900 3481 
Q 2900 3844 2670 4047 
Q 2441 4250 2034 4250 
Q 1625 4250 1398 4047 
Q 1172 3844 1172 3481 
z
" transform="scale(0.015625)"/>
       </defs>
       <use xlink:href="#DejaVuSans-38"/>
       <use xlink:href="#DejaVuSans-30" x="63.623047"/>
       <use xlink:href="#DejaVuSans-30" x="127.246094"/>
      </g>
     </g>
    </g>
    <g id="xtick_6">
     <g id="line2d_6">
      <g>
       <use xlink:href="#mc0f19caf60" x="313.607133" y="307.584" style="stroke: #000000; stroke-width: 0.8"/>
      </g>
     </g>
     <g id="text_6">
      <!-- 1000 -->
      <g transform="translate(300.882133 322.182437)scale(0.1 -0.1)">
       <defs>
        <path id="DejaVuSans-31" d="M 794 531 
L 1825 531 
L 1825 4091 
L 703 3866 
L 703 4441 
L 1819 4666 
L 2450 4666 
L 2450 531 
L 3481 531 
L 3481 0 
L 794 0 
L 794 531 
z
" transform="scale(0.015625)"/>
       </defs>
       <use xlink:href="#DejaVuSans-31"/>
       <use xlink:href="#DejaVuSans-30" x="63.623047"/>
       <use xlink:href="#DejaVuSans-30" x="127.246094"/>
       <use xlink:href="#DejaVuSans-30" x="190.869141"/>
      </g>
     </g>
    </g>
    <g id="xtick_7">
     <g id="line2d_7">
      <g>
       <use xlink:href="#mc0f19caf60" x="361.562014" y="307.584" style="stroke: #000000; stroke-width: 0.8"/>
      </g>
     </g>
     <g id="text_7">
      <!-- 1200 -->
      <g transform="translate(348.837014 322.182437)scale(0.1 -0.1)">
       <use xlink:href="#DejaVuSans-31"/>
       <use xlink:href="#DejaVuSans-32" x="63.623047"/>
       <use xlink:href="#DejaVuSans-30" x="127.246094"/>
       <use xlink:href="#DejaVuSans-30" x="190.869141"/>
      </g>
     </g>
    </g>
    <g id="xtick_8">
     <g id="line2d_8">
      <g>
       <use xlink:href="#mc0f19caf60" x="409.516895" y="307.584" style="stroke: #000000; stroke-width: 0.8"/>
      </g>
     </g>
     <g id="text_8">
      <!-- 1400 -->
      <g transform="translate(396.791895 322.182437)scale(0.1 -0.1)">
       <use xlink:href="#DejaVuSans-31"/>
       <use xlink:href="#DejaVuSans-34" x="63.623047"/>
       <use xlink:href="#DejaVuSans-30" x="127.246094"/>
       <use xlink:href="#DejaVuSans-30" x="190.869141"/>
      </g>
     </g>
    </g>
    <g id="text_9">
     <!-- num swaps -->
     <g transform="translate(207.826406 335.860562)scale(0.1 -0.1)">
      <defs>
       <path id="DejaVuSans-6e" d="M 3513 2113 
L 3513 0 
L 2938 0 
L 2938 2094 
Q 2938 2591 2744 2837 
Q 2550 3084 2163 3084 
Q 1697 3084 1428 2787 
Q 1159 2491 1159 1978 
L 1159 0 
L 581 0 
L 581 3500 
L 1159 3500 
L 1159 2956 
Q 1366 3272 1645 3428 
Q 1925 3584 2291 3584 
Q 2894 3584 3203 3211 
Q 3513 2838 3513 2113 
z
" transform="scale(0.015625)"/>
       <path id="DejaVuSans-75" d="M 544 1381 
L 544 3500 
L 1119 3500 
L 1119 1403 
Q 1119 906 1312 657 
Q 1506 409 1894 409 
Q 2359 409 2629 706 
Q 2900 1003 2900 1516 
L 2900 3500 
L 3475 3500 
L 3475 0 
L 2900 0 
L 2900 538 
Q 2691 219 2414 64 
Q 2138 -91 1772 -91 
Q 1169 -91 856 284 
Q 544 659 544 1381 
z
M 1991 3584 
L 1991 3584 
z
" transform="scale(0.015625)"/>
       <path id="DejaVuSans-6d" d="M 3328 2828 
Q 3544 3216 3844 3400 
Q 4144 3584 4550 3584 
Q 5097 3584 5394 3201 
Q 5691 2819 5691 2113 
L 5691 0 
L 5113 0 
L 5113 2094 
Q 5113 2597 4934 2840 
Q 4756 3084 4391 3084 
Q 3944 3084 3684 2787 
Q 3425 2491 3425 1978 
L 3425 0 
L 2847 0 
L 2847 2094 
Q 2847 2600 2669 2842 
Q 2491 3084 2119 3084 
Q 1678 3084 1418 2786 
Q 1159 2488 1159 1978 
L 1159 0 
L 581 0 
L 581 3500 
L 1159 3500 
L 1159 2956 
Q 1356 3278 1631 3431 
Q 1906 3584 2284 3584 
Q 2666 3584 2933 3390 
Q 3200 3197 3328 2828 
z
" transform="scale(0.015625)"/>
       <path id="DejaVuSans-20" transform="scale(0.015625)"/>
       <path id="DejaVuSans-73" d="M 2834 3397 
L 2834 2853 
Q 2591 2978 2328 3040 
Q 2066 3103 1784 3103 
Q 1356 3103 1142 2972 
Q 928 2841 928 2578 
Q 928 2378 1081 2264 
Q 1234 2150 1697 2047 
L 1894 2003 
Q 2506 1872 2764 1633 
Q 3022 1394 3022 966 
Q 3022 478 2636 193 
Q 2250 -91 1575 -91 
Q 1294 -91 989 -36 
Q 684 19 347 128 
L 347 722 
Q 666 556 975 473 
Q 1284 391 1588 391 
Q 1994 391 2212 530 
Q 2431 669 2431 922 
Q 2431 1156 2273 1281 
Q 2116 1406 1581 1522 
L 1381 1569 
Q 847 1681 609 1914 
Q 372 2147 372 2553 
Q 372 3047 722 3315 
Q 1072 3584 1716 3584 
Q 2034 3584 2315 3537 
Q 2597 3491 2834 3397 
z
" transform="scale(0.015625)"/>
       <path id="DejaVuSans-77" d="M 269 3500 
L 844 3500 
L 1563 769 
L 2278 3500 
L 2956 3500 
L 3675 769 
L 4391 3500 
L 4966 3500 
L 4050 0 
L 3372 0 
L 2619 2869 
L 1863 0 
L 1184 0 
L 269 3500 
z
" transform="scale(0.015625)"/>
       <path id="DejaVuSans-61" d="M 2194 1759 
Q 1497 1759 1228 1600 
Q 959 1441 959 1056 
Q 959 750 1161 570 
Q 1363 391 1709 391 
Q 2188 391 2477 730 
Q 2766 1069 2766 1631 
L 2766 1759 
L 2194 1759 
z
M 3341 1997 
L 3341 0 
L 2766 0 
L 2766 531 
Q 2569 213 2275 61 
Q 1981 -91 1556 -91 
Q 1019 -91 701 211 
Q 384 513 384 1019 
Q 384 1609 779 1909 
Q 1175 2209 1959 2209 
L 2766 2209 
L 2766 2266 
Q 2766 2663 2505 2880 
Q 2244 3097 1772 3097 
Q 1472 3097 1187 3025 
Q 903 2953 641 2809 
L 641 3341 
Q 956 3463 1253 3523 
Q 1550 3584 1831 3584 
Q 2591 3584 2966 3190 
Q 3341 2797 3341 1997 
z
" transform="scale(0.015625)"/>
       <path id="DejaVuSans-70" d="M 1159 525 
L 1159 -1331 
L 581 -1331 
L 581 3500 
L 1159 3500 
L 1159 2969 
Q 1341 3281 1617 3432 
Q 1894 3584 2278 3584 
Q 2916 3584 3314 3078 
Q 3713 2572 3713 1747 
Q 3713 922 3314 415 
Q 2916 -91 2278 -91 
Q 1894 -91 1617 61 
Q 1341 213 1159 525 
z
M 3116 1747 
Q 3116 2381 2855 2742 
Q 2594 3103 2138 3103 
Q 1681 3103 1420 2742 
Q 1159 2381 1159 1747 
Q 1159 1113 1420 752 
Q 1681 391 2138 391 
Q 2594 391 2855 752 
Q 3116 1113 3116 1747 
z
" transform="scale(0.015625)"/>
      </defs>
      <use xlink:href="#DejaVuSans-6e"/>
      <use xlink:href="#DejaVuSans-75" x="63.378906"/>
      <use xlink:href="#DejaVuSans-6d" x="126.757812"/>
      <use xlink:href="#DejaVuSans-20" x="224.169922"/>
      <use xlink:href="#DejaVuSans-73" x="255.957031"/>
      <use xlink:href="#DejaVuSans-77" x="308.056641"/>
      <use xlink:href="#DejaVuSans-61" x="389.84375"/>
      <use xlink:href="#DejaVuSans-70" x="451.123047"/>
      <use xlink:href="#DejaVuSans-73" x="514.599609"/>
     </g>
    </g>
   </g>
   <g id="matplotlib.axis_2">
    <g id="ytick_1">
     <g id="line2d_9">
      <defs>
       <path id="m5a27fb619f" d="M 0 0 
L -3.5 0 
" style="stroke: #000000; stroke-width: 0.8"/>
      </defs>
      <g>
       <use xlink:href="#m5a27fb619f" x="57.6" y="302.026378" style="stroke: #000000; stroke-width: 0.8"/>
      </g>
     </g>
     <g id="text_10">
      <!-- 150 -->
      <g transform="translate(31.5125 305.825597)scale(0.1 -0.1)">
       <defs>
        <path id="DejaVuSans-35" d="M 691 4666 
L 3169 4666 
L 3169 4134 
L 1269 4134 
L 1269 2991 
Q 1406 3038 1543 3061 
Q 1681 3084 1819 3084 
Q 2600 3084 3056 2656 
Q 3513 2228 3513 1497 
Q 3513 744 3044 326 
Q 2575 -91 1722 -91 
Q 1428 -91 1123 -41 
Q 819 9 494 109 
L 494 744 
Q 775 591 1075 516 
Q 1375 441 1709 441 
Q 2250 441 2565 725 
Q 2881 1009 2881 1497 
Q 2881 1984 2565 2268 
Q 2250 2553 1709 2553 
Q 1456 2553 1204 2497 
Q 953 2441 691 2322 
L 691 4666 
z
" transform="scale(0.015625)"/>
       </defs>
       <use xlink:href="#DejaVuSans-31"/>
       <use xlink:href="#DejaVuSans-35" x="63.623047"/>
       <use xlink:href="#DejaVuSans-30" x="127.246094"/>
      </g>
     </g>
    </g>
    <g id="ytick_2">
     <g id="line2d_10">
      <g>
       <use xlink:href="#m5a27fb619f" x="57.6" y="269.334486" style="stroke: #000000; stroke-width: 0.8"/>
      </g>
     </g>
     <g id="text_11">
      <!-- 155 -->
      <g transform="translate(31.5125 273.133705)scale(0.1 -0.1)">
       <use xlink:href="#DejaVuSans-31"/>
       <use xlink:href="#DejaVuSans-35" x="63.623047"/>
       <use xlink:href="#DejaVuSans-35" x="127.246094"/>
      </g>
     </g>
    </g>
    <g id="ytick_3">
     <g id="line2d_11">
      <g>
       <use xlink:href="#m5a27fb619f" x="57.6" y="236.642595" style="stroke: #000000; stroke-width: 0.8"/>
      </g>
     </g>
     <g id="text_12">
      <!-- 160 -->
      <g transform="translate(31.5125 240.441813)scale(0.1 -0.1)">
       <use xlink:href="#DejaVuSans-31"/>
       <use xlink:href="#DejaVuSans-36" x="63.623047"/>
       <use xlink:href="#DejaVuSans-30" x="127.246094"/>
      </g>
     </g>
    </g>
    <g id="ytick_4">
     <g id="line2d_12">
      <g>
       <use xlink:href="#m5a27fb619f" x="57.6" y="203.950703" style="stroke: #000000; stroke-width: 0.8"/>
      </g>
     </g>
     <g id="text_13">
      <!-- 165 -->
      <g transform="translate(31.5125 207.749921)scale(0.1 -0.1)">
       <use xlink:href="#DejaVuSans-31"/>
       <use xlink:href="#DejaVuSans-36" x="63.623047"/>
       <use xlink:href="#DejaVuSans-35" x="127.246094"/>
      </g>
     </g>
    </g>
    <g id="ytick_5">
     <g id="line2d_13">
      <g>
       <use xlink:href="#m5a27fb619f" x="57.6" y="171.258811" style="stroke: #000000; stroke-width: 0.8"/>
      </g>
     </g>
     <g id="text_14">
      <!-- 170 -->
      <g transform="translate(31.5125 175.05803)scale(0.1 -0.1)">
       <defs>
        <path id="DejaVuSans-37" d="M 525 4666 
L 3525 4666 
L 3525 4397 
L 1831 0 
L 1172 0 
L 2766 4134 
L 525 4134 
L 525 4666 
z
" transform="scale(0.015625)"/>
       </defs>
       <use xlink:href="#DejaVuSans-31"/>
       <use xlink:href="#DejaVuSans-37" x="63.623047"/>
       <use xlink:href="#DejaVuSans-30" x="127.246094"/>
      </g>
     </g>
    </g>
    <g id="ytick_6">
     <g id="line2d_14">
      <g>
       <use xlink:href="#m5a27fb619f" x="57.6" y="138.566919" style="stroke: #000000; stroke-width: 0.8"/>
      </g>
     </g>
     <g id="text_15">
      <!-- 175 -->
      <g transform="translate(31.5125 142.366138)scale(0.1 -0.1)">
       <use xlink:href="#DejaVuSans-31"/>
       <use xlink:href="#DejaVuSans-37" x="63.623047"/>
       <use xlink:href="#DejaVuSans-35" x="127.246094"/>
      </g>
     </g>
    </g>
    <g id="ytick_7">
     <g id="line2d_15">
      <g>
       <use xlink:href="#m5a27fb619f" x="57.6" y="105.875027" style="stroke: #000000; stroke-width: 0.8"/>
      </g>
     </g>
     <g id="text_16">
      <!-- 180 -->
      <g transform="translate(31.5125 109.674246)scale(0.1 -0.1)">
       <use xlink:href="#DejaVuSans-31"/>
       <use xlink:href="#DejaVuSans-38" x="63.623047"/>
       <use xlink:href="#DejaVuSans-30" x="127.246094"/>
      </g>
     </g>
    </g>
    <g id="ytick_8">
     <g id="line2d_16">
      <g>
       <use xlink:href="#m5a27fb619f" x="57.6" y="73.183135" style="stroke: #000000; stroke-width: 0.8"/>
      </g>
     </g>
     <g id="text_17">
      <!-- 185 -->
      <g transform="translate(31.5125 76.982354)scale(0.1 -0.1)">
       <use xlink:href="#DejaVuSans-31"/>
       <use xlink:href="#DejaVuSans-38" x="63.623047"/>
       <use xlink:href="#DejaVuSans-35" x="127.246094"/>
      </g>
     </g>
    </g>
    <g id="text_18">
     <!-- total cost -->
     <g transform="translate(25.432812 197.923313)rotate(-90)scale(0.1 -0.1)">
      <defs>
       <path id="DejaVuSans-74" d="M 1172 4494 
L 1172 3500 
L 2356 3500 
L 2356 3053 
L 1172 3053 
L 1172 1153 
Q 1172 725 1289 603 
Q 1406 481 1766 481 
L 2356 481 
L 2356 0 
L 1766 0 
Q 1100 0 847 248 
Q 594 497 594 1153 
L 594 3053 
L 172 3053 
L 172 3500 
L 594 3500 
L 594 4494 
L 1172 4494 
z
" transform="scale(0.015625)"/>
       <path id="DejaVuSans-6f" d="M 1959 3097 
Q 1497 3097 1228 2736 
Q 959 2375 959 1747 
Q 959 1119 1226 758 
Q 1494 397 1959 397 
Q 2419 397 2687 759 
Q 2956 1122 2956 1747 
Q 2956 2369 2687 2733 
Q 2419 3097 1959 3097 
z
M 1959 3584 
Q 2709 3584 3137 3096 
Q 3566 2609 3566 1747 
Q 3566 888 3137 398 
Q 2709 -91 1959 -91 
Q 1206 -91 779 398 
Q 353 888 353 1747 
Q 353 2609 779 3096 
Q 1206 3584 1959 3584 
z
" transform="scale(0.015625)"/>
       <path id="DejaVuSans-6c" d="M 603 4863 
L 1178 4863 
L 1178 0 
L 603 0 
L 603 4863 
z
" transform="scale(0.015625)"/>
       <path id="DejaVuSans-63" d="M 3122 3366 
L 3122 2828 
Q 2878 2963 2633 3030 
Q 2388 3097 2138 3097 
Q 1578 3097 1268 2742 
Q 959 2388 959 1747 
Q 959 1106 1268 751 
Q 1578 397 2138 397 
Q 2388 397 2633 464 
Q 2878 531 3122 666 
L 3122 134 
Q 2881 22 2623 -34 
Q 2366 -91 2075 -91 
Q 1284 -91 818 406 
Q 353 903 353 1747 
Q 353 2603 823 3093 
Q 1294 3584 2113 3584 
Q 2378 3584 2631 3529 
Q 2884 3475 3122 3366 
z
" transform="scale(0.015625)"/>
      </defs>
      <use xlink:href="#DejaVuSans-74"/>
      <use xlink:href="#DejaVuSans-6f" x="39.208984"/>
      <use xlink:href="#DejaVuSans-74" x="100.390625"/>
      <use xlink:href="#DejaVuSans-61" x="139.599609"/>
      <use xlink:href="#DejaVuSans-6c" x="200.878906"/>
      <use xlink:href="#DejaVuSans-20" x="228.662109"/>
      <use xlink:href="#DejaVuSans-63" x="260.449219"/>
      <use xlink:href="#DejaVuSans-6f" x="315.429688"/>
      <use xlink:href="#DejaVuSans-73" x="376.611328"/>
      <use xlink:href="#DejaVuSans-74" x="428.710938"/>
     </g>
    </g>
   </g>
   <g id="line2d_17">
    <path d="M 73.832727 151.643676 
L 74.312276 177.797189 
L 74.791825 158.182054 
L 75.271374 53.568 
L 75.750923 138.566919 
L 76.230471 190.873946 
L 76.71002 184.335568 
L 77.189569 203.950703 
L 77.669118 203.950703 
L 78.148667 197.412324 
L 78.628215 125.490162 
L 79.107764 125.490162 
L 79.587313 158.182054 
L 80.546411 145.105297 
L 81.505508 118.951784 
L 81.985057 132.028541 
L 82.464606 125.490162 
L 82.944155 158.182054 
L 83.423704 158.182054 
L 83.903252 151.643676 
L 84.382801 177.797189 
L 84.86235 125.490162 
L 85.341899 158.182054 
L 85.821448 177.797189 
L 86.300996 132.028541 
L 86.780545 145.105297 
L 87.260094 125.490162 
L 87.739643 151.643676 
L 88.219192 138.566919 
L 88.69874 184.335568 
L 89.178289 217.027459 
L 89.657838 203.950703 
L 90.137387 164.720432 
L 90.616936 184.335568 
L 91.096484 138.566919 
L 91.576033 158.182054 
L 92.055582 132.028541 
L 92.535131 132.028541 
L 93.01468 112.413405 
L 93.494229 125.490162 
L 93.973777 158.182054 
L 94.453326 158.182054 
L 94.932875 164.720432 
L 95.891973 151.643676 
L 96.371521 132.028541 
L 96.85107 138.566919 
L 97.330619 118.951784 
L 97.810168 125.490162 
L 98.289717 118.951784 
L 98.769265 171.258811 
L 99.248814 138.566919 
L 99.728363 92.79827 
L 100.207912 112.413405 
L 100.687461 118.951784 
L 101.16701 112.413405 
L 101.646558 99.336649 
L 102.126107 164.720432 
L 102.605656 164.720432 
L 103.085205 177.797189 
L 103.564754 217.027459 
L 104.044302 230.104216 
L 104.523851 230.104216 
L 105.0034 197.412324 
L 105.482949 230.104216 
L 105.962498 217.027459 
L 106.442046 236.642595 
L 106.921595 243.180973 
L 107.401144 256.25773 
L 107.880693 217.027459 
L 108.360242 210.489081 
L 108.839791 184.335568 
L 109.319339 190.873946 
L 109.798888 210.489081 
L 110.278437 184.335568 
L 110.757986 203.950703 
L 111.717083 151.643676 
L 112.196632 132.028541 
L 113.15573 105.875027 
L 113.635279 151.643676 
L 114.114827 132.028541 
L 114.594376 118.951784 
L 115.073925 92.79827 
L 115.553474 118.951784 
L 116.033023 118.951784 
L 116.512572 112.413405 
L 116.99212 79.721514 
L 117.471669 92.79827 
L 117.951218 138.566919 
L 118.430767 158.182054 
L 118.910316 138.566919 
L 119.389864 125.490162 
L 119.869413 145.105297 
L 120.348962 125.490162 
L 120.828511 112.413405 
L 121.30806 92.79827 
L 121.787608 79.721514 
L 122.746706 105.875027 
L 123.226255 138.566919 
L 123.705804 151.643676 
L 124.185352 125.490162 
L 124.664901 158.182054 
L 125.14445 177.797189 
L 125.623999 171.258811 
L 126.103548 158.182054 
L 126.583097 132.028541 
L 127.062645 99.336649 
L 127.542194 92.79827 
L 128.021743 125.490162 
L 128.501292 125.490162 
L 128.980841 138.566919 
L 129.460389 86.259892 
L 129.939938 125.490162 
L 130.419487 105.875027 
L 130.899036 145.105297 
L 131.378585 132.028541 
L 131.858133 197.412324 
L 132.337682 190.873946 
L 132.817231 210.489081 
L 133.29678 158.182054 
L 133.776329 118.951784 
L 134.255878 171.258811 
L 134.735426 184.335568 
L 135.214975 151.643676 
L 135.694524 184.335568 
L 136.653622 197.412324 
L 137.612719 288.949622 
L 138.092268 249.719351 
L 138.571817 269.334486 
L 139.051366 256.25773 
L 139.530914 269.334486 
L 140.010463 295.488 
L 140.490012 269.334486 
L 140.969561 256.25773 
L 141.44911 230.104216 
L 142.408207 230.104216 
L 142.887756 203.950703 
L 143.367305 203.950703 
L 143.846854 171.258811 
L 144.326403 184.335568 
L 144.805951 203.950703 
L 145.2855 151.643676 
L 145.765049 138.566919 
L 146.724147 86.259892 
L 147.203695 105.875027 
L 147.683244 73.183135 
L 148.162793 79.721514 
L 148.642342 105.875027 
L 149.121891 158.182054 
L 149.60144 105.875027 
L 150.080988 145.105297 
L 150.560537 145.105297 
L 151.040086 125.490162 
L 151.519635 132.028541 
L 151.999184 125.490162 
L 152.478732 138.566919 
L 153.43783 151.643676 
L 153.917379 138.566919 
L 154.396928 112.413405 
L 154.876476 125.490162 
L 155.356025 145.105297 
L 155.835574 105.875027 
L 156.315123 99.336649 
L 156.794672 118.951784 
L 157.27422 125.490162 
L 158.712867 125.490162 
L 159.192416 112.413405 
L 159.671965 105.875027 
L 160.151513 86.259892 
L 160.631062 99.336649 
L 161.110611 158.182054 
L 161.59016 164.720432 
L 162.069709 223.565838 
L 162.549257 256.25773 
L 163.028806 243.180973 
L 163.987904 184.335568 
L 164.467453 197.412324 
L 164.947001 171.258811 
L 165.42655 138.566919 
L 165.906099 151.643676 
L 166.385648 184.335568 
L 166.865197 164.720432 
L 167.344746 171.258811 
L 167.824294 171.258811 
L 168.303843 197.412324 
L 168.783392 171.258811 
L 169.262941 164.720432 
L 169.74249 177.797189 
L 170.222038 197.412324 
L 170.701587 164.720432 
L 171.181136 158.182054 
L 172.140234 132.028541 
L 172.619782 112.413405 
L 173.57888 125.490162 
L 174.058429 145.105297 
L 174.537978 145.105297 
L 175.017527 177.797189 
L 175.497075 184.335568 
L 175.976624 184.335568 
L 176.456173 151.643676 
L 176.935722 151.643676 
L 177.415271 145.105297 
L 177.894819 164.720432 
L 178.853917 125.490162 
L 179.333466 145.105297 
L 179.813015 145.105297 
L 180.292563 177.797189 
L 180.772112 118.951784 
L 181.251661 138.566919 
L 181.73121 112.413405 
L 182.210759 151.643676 
L 182.690308 118.951784 
L 183.169856 112.413405 
L 183.649405 138.566919 
L 184.128954 138.566919 
L 184.608503 145.105297 
L 185.088052 171.258811 
L 185.5676 145.105297 
L 186.047149 171.258811 
L 186.526698 171.258811 
L 187.006247 203.950703 
L 187.485796 217.027459 
L 187.965344 145.105297 
L 188.444893 151.643676 
L 188.924442 138.566919 
L 189.403991 151.643676 
L 189.88354 171.258811 
L 190.363088 151.643676 
L 190.842637 197.412324 
L 191.322186 164.720432 
L 191.801735 118.951784 
L 192.281284 86.259892 
L 192.760833 73.183135 
L 193.240381 118.951784 
L 193.71993 105.875027 
L 194.199479 86.259892 
L 194.679028 112.413405 
L 195.158577 125.490162 
L 195.638125 145.105297 
L 196.117674 151.643676 
L 196.597223 125.490162 
L 198.035869 105.875027 
L 198.515418 145.105297 
L 198.994967 151.643676 
L 199.474516 203.950703 
L 199.954065 230.104216 
L 200.913162 217.027459 
L 201.392711 177.797189 
L 201.87226 190.873946 
L 202.351809 184.335568 
L 202.831358 223.565838 
L 203.310906 243.180973 
L 203.790455 269.334486 
L 204.270004 262.796108 
L 204.749553 223.565838 
L 205.229102 243.180973 
L 205.70865 210.489081 
L 206.188199 203.950703 
L 206.667748 190.873946 
L 207.147297 184.335568 
L 207.626846 158.182054 
L 208.106395 164.720432 
L 208.585943 158.182054 
L 209.065492 190.873946 
L 209.545041 171.258811 
L 210.02459 190.873946 
L 210.504139 177.797189 
L 210.983687 145.105297 
L 211.463236 171.258811 
L 211.942785 112.413405 
L 212.422334 158.182054 
L 212.901883 145.105297 
L 213.86098 145.105297 
L 214.340529 118.951784 
L 214.820078 164.720432 
L 215.299627 151.643676 
L 215.779176 171.258811 
L 216.738273 145.105297 
L 217.217822 197.412324 
L 217.697371 210.489081 
L 218.656468 184.335568 
L 219.136017 177.797189 
L 219.615566 197.412324 
L 220.095115 171.258811 
L 220.574664 210.489081 
L 221.054212 275.872865 
L 221.533761 164.720432 
L 222.01331 138.566919 
L 222.972408 164.720432 
L 223.931505 138.566919 
L 224.411054 112.413405 
L 224.890603 151.643676 
L 225.370152 164.720432 
L 225.849701 164.720432 
L 226.329249 151.643676 
L 226.808798 190.873946 
L 227.767896 138.566919 
L 228.247445 132.028541 
L 228.726993 138.566919 
L 229.206542 164.720432 
L 229.686091 171.258811 
L 230.645189 105.875027 
L 231.124737 112.413405 
L 231.604286 132.028541 
L 232.083835 132.028541 
L 232.563384 158.182054 
L 233.042933 164.720432 
L 233.522482 158.182054 
L 234.00203 158.182054 
L 234.481579 138.566919 
L 234.961128 79.721514 
L 235.440677 66.644757 
L 235.920226 79.721514 
L 236.399774 112.413405 
L 236.879323 171.258811 
L 237.358872 171.258811 
L 237.838421 164.720432 
L 238.31797 145.105297 
L 238.797518 164.720432 
L 239.277067 171.258811 
L 239.756616 164.720432 
L 240.236165 203.950703 
L 240.715714 230.104216 
L 241.195263 190.873946 
L 241.674811 197.412324 
L 242.15436 190.873946 
L 242.633909 164.720432 
L 243.113458 177.797189 
L 243.593007 236.642595 
L 244.072555 203.950703 
L 244.552104 158.182054 
L 245.031653 184.335568 
L 245.511202 158.182054 
L 246.470299 171.258811 
L 246.949848 190.873946 
L 247.908946 190.873946 
L 248.388495 223.565838 
L 248.868044 210.489081 
L 249.347592 203.950703 
L 249.827141 230.104216 
L 250.30669 236.642595 
L 250.786239 249.719351 
L 251.265788 275.872865 
L 251.745336 288.949622 
L 252.224885 295.488 
L 253.183983 223.565838 
L 253.663532 243.180973 
L 254.14308 269.334486 
L 254.622629 236.642595 
L 255.102178 256.25773 
L 255.581727 282.411243 
L 256.540824 256.25773 
L 257.020373 230.104216 
L 257.499922 223.565838 
L 257.979471 197.412324 
L 258.45902 197.412324 
L 258.938569 190.873946 
L 259.418117 236.642595 
L 259.897666 210.489081 
L 260.377215 223.565838 
L 260.856764 184.335568 
L 261.336313 73.183135 
L 261.815861 86.259892 
L 262.29541 86.259892 
L 262.774959 79.721514 
L 263.254508 164.720432 
L 263.734057 158.182054 
L 264.213605 184.335568 
L 264.693154 164.720432 
L 265.172703 151.643676 
L 265.652252 145.105297 
L 266.61135 118.951784 
L 267.090898 125.490162 
L 267.570447 138.566919 
L 268.049996 79.721514 
L 268.529545 112.413405 
L 269.009094 86.259892 
L 269.488642 92.79827 
L 269.968191 73.183135 
L 270.44774 92.79827 
L 270.927289 118.951784 
L 271.406838 177.797189 
L 271.886386 158.182054 
L 272.365935 158.182054 
L 272.845484 132.028541 
L 273.325033 112.413405 
L 273.804582 105.875027 
L 274.284131 118.951784 
L 274.763679 158.182054 
L 275.243228 151.643676 
L 275.722777 151.643676 
L 276.202326 164.720432 
L 276.681875 151.643676 
L 277.161423 132.028541 
L 277.640972 92.79827 
L 278.120521 112.413405 
L 278.60007 158.182054 
L 279.079619 164.720432 
L 279.559167 217.027459 
L 280.038716 197.412324 
L 280.518265 171.258811 
L 280.997814 210.489081 
L 281.477363 203.950703 
L 281.956912 190.873946 
L 282.43646 125.490162 
L 282.916009 99.336649 
L 283.395558 86.259892 
L 283.875107 99.336649 
L 284.354656 118.951784 
L 285.313753 92.79827 
L 285.793302 105.875027 
L 286.272851 125.490162 
L 286.7524 197.412324 
L 287.231948 151.643676 
L 287.711497 145.105297 
L 288.191046 145.105297 
L 288.670595 158.182054 
L 289.150144 151.643676 
L 289.629692 138.566919 
L 290.109241 118.951784 
L 290.58879 125.490162 
L 291.068339 112.413405 
L 291.547888 92.79827 
L 292.027437 125.490162 
L 292.506985 118.951784 
L 293.466083 92.79827 
L 293.945632 99.336649 
L 294.425181 112.413405 
L 295.384278 190.873946 
L 295.863827 210.489081 
L 296.343376 256.25773 
L 296.822925 203.950703 
L 297.302473 177.797189 
L 297.782022 223.565838 
L 298.261571 223.565838 
L 298.74112 184.335568 
L 299.220669 190.873946 
L 299.700218 236.642595 
L 300.659315 151.643676 
L 301.138864 132.028541 
L 301.618413 145.105297 
L 302.097962 105.875027 
L 302.57751 112.413405 
L 303.057059 132.028541 
L 303.536608 118.951784 
L 304.016157 145.105297 
L 304.495706 125.490162 
L 304.975254 145.105297 
L 305.454803 158.182054 
L 305.934352 184.335568 
L 306.413901 184.335568 
L 306.89345 171.258811 
L 307.372999 92.79827 
L 307.852547 125.490162 
L 308.332096 105.875027 
L 308.811645 60.106378 
L 309.291194 177.797189 
L 309.770743 92.79827 
L 310.250291 73.183135 
L 310.72984 60.106378 
L 311.209389 60.106378 
L 311.688938 73.183135 
L 312.168487 60.106378 
L 312.648035 60.106378 
L 313.127584 112.413405 
L 313.607133 118.951784 
L 314.086682 118.951784 
L 314.566231 190.873946 
L 316.004877 210.489081 
L 316.484426 210.489081 
L 316.963975 197.412324 
L 317.443524 138.566919 
L 317.923072 105.875027 
L 318.402621 105.875027 
L 318.88217 138.566919 
L 319.361719 112.413405 
L 319.841268 125.490162 
L 320.320816 132.028541 
L 320.800365 145.105297 
L 321.279914 184.335568 
L 321.759463 145.105297 
L 322.239012 118.951784 
L 322.71856 151.643676 
L 323.198109 171.258811 
L 323.677658 138.566919 
L 324.157207 118.951784 
L 324.636756 125.490162 
L 325.595853 112.413405 
L 326.075402 99.336649 
L 326.554951 132.028541 
L 327.0345 151.643676 
L 327.514049 158.182054 
L 327.993597 158.182054 
L 328.952695 184.335568 
L 329.432244 171.258811 
L 329.911793 145.105297 
L 330.391341 132.028541 
L 330.87089 164.720432 
L 331.350439 105.875027 
L 331.829988 158.182054 
L 332.309537 184.335568 
L 332.789086 132.028541 
L 333.268634 112.413405 
L 333.748183 132.028541 
L 334.227732 138.566919 
L 334.707281 158.182054 
L 335.18683 171.258811 
L 335.666378 138.566919 
L 336.145927 164.720432 
L 336.625476 125.490162 
L 337.105025 125.490162 
L 337.584574 171.258811 
L 338.064122 158.182054 
L 338.543671 210.489081 
L 339.02322 171.258811 
L 339.502769 164.720432 
L 340.461867 138.566919 
L 340.941415 151.643676 
L 341.420964 177.797189 
L 341.900513 177.797189 
L 342.380062 118.951784 
L 342.859611 210.489081 
L 343.339159 151.643676 
L 343.818708 125.490162 
L 344.298257 145.105297 
L 344.777806 151.643676 
L 345.257355 151.643676 
L 345.736903 164.720432 
L 346.216452 184.335568 
L 346.696001 184.335568 
L 347.17555 138.566919 
L 347.655099 138.566919 
L 348.134648 158.182054 
L 348.614196 125.490162 
L 349.093745 118.951784 
L 349.573294 132.028541 
L 350.052843 138.566919 
L 350.532392 132.028541 
L 351.01194 86.259892 
L 351.491489 79.721514 
L 352.450587 79.721514 
L 352.930136 112.413405 
L 353.889233 249.719351 
L 354.368782 243.180973 
L 354.848331 230.104216 
L 355.32788 243.180973 
L 355.807428 230.104216 
L 356.286977 223.565838 
L 357.246075 223.565838 
L 357.725624 249.719351 
L 358.205173 230.104216 
L 358.684721 203.950703 
L 359.16427 203.950703 
L 359.643819 177.797189 
L 360.123368 164.720432 
L 360.602917 112.413405 
L 361.082465 118.951784 
L 361.562014 132.028541 
L 362.041563 112.413405 
L 362.521112 171.258811 
L 363.000661 138.566919 
L 363.480209 158.182054 
L 363.959758 230.104216 
L 364.439307 197.412324 
L 364.918856 197.412324 
L 365.398405 190.873946 
L 365.877954 177.797189 
L 366.837051 164.720432 
L 367.3166 190.873946 
L 367.796149 230.104216 
L 368.275698 190.873946 
L 368.755246 184.335568 
L 369.234795 190.873946 
L 369.714344 158.182054 
L 370.193893 171.258811 
L 370.673442 177.797189 
L 371.15299 249.719351 
L 371.632539 171.258811 
L 372.112088 151.643676 
L 372.591637 164.720432 
L 373.071186 145.105297 
L 373.550735 132.028541 
L 374.030283 132.028541 
L 374.509832 158.182054 
L 374.989381 203.950703 
L 375.46893 217.027459 
L 375.948479 223.565838 
L 376.428027 210.489081 
L 376.907576 145.105297 
L 377.387125 118.951784 
L 377.866674 138.566919 
L 378.346223 190.873946 
L 378.825771 203.950703 
L 379.30532 243.180973 
L 379.784869 171.258811 
L 380.264418 158.182054 
L 380.743967 164.720432 
L 381.223516 138.566919 
L 382.182613 112.413405 
L 382.662162 105.875027 
L 383.141711 145.105297 
L 383.62126 138.566919 
L 384.100808 145.105297 
L 384.580357 184.335568 
L 385.059906 171.258811 
L 385.539455 177.797189 
L 386.019004 158.182054 
L 386.498552 158.182054 
L 386.978101 132.028541 
L 387.45765 151.643676 
L 387.937199 145.105297 
L 388.416748 171.258811 
L 388.896296 138.566919 
L 389.375845 158.182054 
L 390.334943 158.182054 
L 390.814492 145.105297 
L 391.294041 125.490162 
L 391.773589 86.259892 
L 392.253138 92.79827 
L 392.732687 79.721514 
L 393.212236 79.721514 
L 393.691785 125.490162 
L 394.171333 125.490162 
L 394.650882 164.720432 
L 395.130431 158.182054 
L 395.60998 184.335568 
L 396.089529 190.873946 
L 396.569077 217.027459 
L 397.528175 203.950703 
L 398.007724 190.873946 
L 398.487273 203.950703 
L 398.487273 203.950703 
" clip-path="url(#p3a835a87ff)" style="fill: none; stroke: #1f77b4; stroke-width: 1.5; stroke-linecap: square"/>
   </g>
   <g id="patch_3">
    <path d="M 57.6 307.584 
L 57.6 41.472 
" style="fill: none; stroke: #000000; stroke-width: 0.8; stroke-linejoin: miter; stroke-linecap: square"/>
   </g>
   <g id="patch_4">
    <path d="M 414.72 307.584 
L 414.72 41.472 
" style="fill: none; stroke: #000000; stroke-width: 0.8; stroke-linejoin: miter; stroke-linecap: square"/>
   </g>
   <g id="patch_5">
    <path d="M 57.6 307.584 
L 414.72 307.584 
" style="fill: none; stroke: #000000; stroke-width: 0.8; stroke-linejoin: miter; stroke-linecap: square"/>
   </g>
   <g id="patch_6">
    <path d="M 57.6 41.472 
L 414.72 41.472 
" style="fill: none; stroke: #000000; stroke-width: 0.8; stroke-linejoin: miter; stroke-linecap: square"/>
   </g>
   <g id="text_19">
    <!-- Simulated Anealling Cost -->
    <g transform="translate(160.8 35.472)scale(0.12 -0.12)">
     <defs>
      <path id="DejaVuSans-53" d="M 3425 4513 
L 3425 3897 
Q 3066 4069 2747 4153 
Q 2428 4238 2131 4238 
Q 1616 4238 1336 4038 
Q 1056 3838 1056 3469 
Q 1056 3159 1242 3001 
Q 1428 2844 1947 2747 
L 2328 2669 
Q 3034 2534 3370 2195 
Q 3706 1856 3706 1288 
Q 3706 609 3251 259 
Q 2797 -91 1919 -91 
Q 1588 -91 1214 -16 
Q 841 59 441 206 
L 441 856 
Q 825 641 1194 531 
Q 1563 422 1919 422 
Q 2459 422 2753 634 
Q 3047 847 3047 1241 
Q 3047 1584 2836 1778 
Q 2625 1972 2144 2069 
L 1759 2144 
Q 1053 2284 737 2584 
Q 422 2884 422 3419 
Q 422 4038 858 4394 
Q 1294 4750 2059 4750 
Q 2388 4750 2728 4690 
Q 3069 4631 3425 4513 
z
" transform="scale(0.015625)"/>
      <path id="DejaVuSans-69" d="M 603 3500 
L 1178 3500 
L 1178 0 
L 603 0 
L 603 3500 
z
M 603 4863 
L 1178 4863 
L 1178 4134 
L 603 4134 
L 603 4863 
z
" transform="scale(0.015625)"/>
      <path id="DejaVuSans-65" d="M 3597 1894 
L 3597 1613 
L 953 1613 
Q 991 1019 1311 708 
Q 1631 397 2203 397 
Q 2534 397 2845 478 
Q 3156 559 3463 722 
L 3463 178 
Q 3153 47 2828 -22 
Q 2503 -91 2169 -91 
Q 1331 -91 842 396 
Q 353 884 353 1716 
Q 353 2575 817 3079 
Q 1281 3584 2069 3584 
Q 2775 3584 3186 3129 
Q 3597 2675 3597 1894 
z
M 3022 2063 
Q 3016 2534 2758 2815 
Q 2500 3097 2075 3097 
Q 1594 3097 1305 2825 
Q 1016 2553 972 2059 
L 3022 2063 
z
" transform="scale(0.015625)"/>
      <path id="DejaVuSans-64" d="M 2906 2969 
L 2906 4863 
L 3481 4863 
L 3481 0 
L 2906 0 
L 2906 525 
Q 2725 213 2448 61 
Q 2172 -91 1784 -91 
Q 1150 -91 751 415 
Q 353 922 353 1747 
Q 353 2572 751 3078 
Q 1150 3584 1784 3584 
Q 2172 3584 2448 3432 
Q 2725 3281 2906 2969 
z
M 947 1747 
Q 947 1113 1208 752 
Q 1469 391 1925 391 
Q 2381 391 2643 752 
Q 2906 1113 2906 1747 
Q 2906 2381 2643 2742 
Q 2381 3103 1925 3103 
Q 1469 3103 1208 2742 
Q 947 2381 947 1747 
z
" transform="scale(0.015625)"/>
      <path id="DejaVuSans-41" d="M 2188 4044 
L 1331 1722 
L 3047 1722 
L 2188 4044 
z
M 1831 4666 
L 2547 4666 
L 4325 0 
L 3669 0 
L 3244 1197 
L 1141 1197 
L 716 0 
L 50 0 
L 1831 4666 
z
" transform="scale(0.015625)"/>
      <path id="DejaVuSans-67" d="M 2906 1791 
Q 2906 2416 2648 2759 
Q 2391 3103 1925 3103 
Q 1463 3103 1205 2759 
Q 947 2416 947 1791 
Q 947 1169 1205 825 
Q 1463 481 1925 481 
Q 2391 481 2648 825 
Q 2906 1169 2906 1791 
z
M 3481 434 
Q 3481 -459 3084 -895 
Q 2688 -1331 1869 -1331 
Q 1566 -1331 1297 -1286 
Q 1028 -1241 775 -1147 
L 775 -588 
Q 1028 -725 1275 -790 
Q 1522 -856 1778 -856 
Q 2344 -856 2625 -561 
Q 2906 -266 2906 331 
L 2906 616 
Q 2728 306 2450 153 
Q 2172 0 1784 0 
Q 1141 0 747 490 
Q 353 981 353 1791 
Q 353 2603 747 3093 
Q 1141 3584 1784 3584 
Q 2172 3584 2450 3431 
Q 2728 3278 2906 2969 
L 2906 3500 
L 3481 3500 
L 3481 434 
z
" transform="scale(0.015625)"/>
      <path id="DejaVuSans-43" d="M 4122 4306 
L 4122 3641 
Q 3803 3938 3442 4084 
Q 3081 4231 2675 4231 
Q 1875 4231 1450 3742 
Q 1025 3253 1025 2328 
Q 1025 1406 1450 917 
Q 1875 428 2675 428 
Q 3081 428 3442 575 
Q 3803 722 4122 1019 
L 4122 359 
Q 3791 134 3420 21 
Q 3050 -91 2638 -91 
Q 1578 -91 968 557 
Q 359 1206 359 2328 
Q 359 3453 968 4101 
Q 1578 4750 2638 4750 
Q 3056 4750 3426 4639 
Q 3797 4528 4122 4306 
z
" transform="scale(0.015625)"/>
     </defs>
     <use xlink:href="#DejaVuSans-53"/>
     <use xlink:href="#DejaVuSans-69" x="63.476562"/>
     <use xlink:href="#DejaVuSans-6d" x="91.259766"/>
     <use xlink:href="#DejaVuSans-75" x="188.671875"/>
     <use xlink:href="#DejaVuSans-6c" x="252.050781"/>
     <use xlink:href="#DejaVuSans-61" x="279.833984"/>
     <use xlink:href="#DejaVuSans-74" x="341.113281"/>
     <use xlink:href="#DejaVuSans-65" x="380.322266"/>
     <use xlink:href="#DejaVuSans-64" x="441.845703"/>
     <use xlink:href="#DejaVuSans-20" x="505.322266"/>
     <use xlink:href="#DejaVuSans-41" x="537.109375"/>
     <use xlink:href="#DejaVuSans-6e" x="605.517578"/>
     <use xlink:href="#DejaVuSans-65" x="668.896484"/>
     <use xlink:href="#DejaVuSans-61" x="730.419922"/>
     <use xlink:href="#DejaVuSans-6c" x="791.699219"/>
     <use xlink:href="#DejaVuSans-6c" x="819.482422"/>
     <use xlink:href="#DejaVuSans-69" x="847.265625"/>
     <use xlink:href="#DejaVuSans-6e" x="875.048828"/>
     <use xlink:href="#DejaVuSans-67" x="938.427734"/>
     <use xlink:href="#DejaVuSans-20" x="1001.904297"/>
     <use xlink:href="#DejaVuSans-43" x="1033.691406"/>
     <use xlink:href="#DejaVuSans-6f" x="1103.515625"/>
     <use xlink:href="#DejaVuSans-73" x="1164.697266"/>
     <use xlink:href="#DejaVuSans-74" x="1216.796875"/>
    </g>
   </g>
  </g>
 </g>
 <defs>
  <clipPath id="p3a835a87ff">
   <rect x="57.6" y="41.472" width="357.12" height="266.112"/>
  </clipPath>
 </defs>
</svg>
