<?xml version="1.0" encoding="utf-8" standalone="no"?>
<!DOCTYPE svg PUBLIC "-//W3C//DTD SVG 1.1//EN"
  "http://www.w3.org/Graphics/SVG/1.1/DTD/svg11.dtd">
<svg xmlns:xlink="http://www.w3.org/1999/xlink" width="460.8pt" height="345.6pt" viewBox="0 0 460.8 345.6" xmlns="http://www.w3.org/2000/svg" version="1.1">
 <metadata>
  <rdf:RDF xmlns:dc="http://purl.org/dc/elements/1.1/" xmlns:cc="http://creativecommons.org/ns#" xmlns:rdf="http://www.w3.org/1999/02/22-rdf-syntax-ns#">
   <cc:Work>
    <dc:type rdf:resource="http://purl.org/dc/dcmitype/StillImage"/>
    <dc:date>2022-06-01T07:48:56.696282</dc:date>
    <dc:format>image/svg+xml</dc:format>
    <dc:creator>
     <cc:Agent>
      <dc:title>Matplotlib v3.5.1, https://matplotlib.org/</dc:title>
     </cc:Agent>
    </dc:creator>
   </cc:Work>
  </rdf:RDF>
 </metadata>
 <defs>
  <style type="text/css">*{stroke-linejoin: round; stroke-linecap: butt}</style>
 </defs>
 <g id="figure_1">
  <g id="patch_1">
   <path d="M 0 345.6 
L 460.8 345.6 
L 460.8 0 
L 0 0 
z
" style="fill: #ffffff"/>
  </g>
  <g id="axes_1">
   <g id="patch_2">
    <path d="M 57.6 307.584 
L 414.72 307.584 
L 414.72 41.472 
L 57.6 41.472 
z
" style="fill: #ffffff"/>
   </g>
   <g id="matplotlib.axis_1">
    <g id="xtick_1">
     <g id="line2d_1">
      <defs>
       <path id="m5a264c4709" d="M 0 0 
L 0 3.5 
" style="stroke: #000000; stroke-width: 0.8"/>
      </defs>
      <g>
       <use xlink:href="#m5a264c4709" x="73.832727" y="307.584" style="stroke: #000000; stroke-width: 0.8"/>
      </g>
     </g>
     <g id="text_1">
      <!-- 0 -->
      <g transform="translate(70.651477 322.182437)scale(0.1 -0.1)">
       <defs>
        <path id="DejaVuSans-30" d="M 2034 4250 
Q 1547 4250 1301 3770 
Q 1056 3291 1056 2328 
Q 1056 1369 1301 889 
Q 1547 409 2034 409 
Q 2525 409 2770 889 
Q 3016 1369 3016 2328 
Q 3016 3291 2770 3770 
Q 2525 4250 2034 4250 
z
M 2034 4750 
Q 2819 4750 3233 4129 
Q 3647 3509 3647 2328 
Q 3647 1150 3233 529 
Q 2819 -91 2034 -91 
Q 1250 -91 836 529 
Q 422 1150 422 2328 
Q 422 3509 836 4129 
Q 1250 4750 2034 4750 
z
" transform="scale(0.015625)"/>
       </defs>
       <use xlink:href="#DejaVuSans-30"/>
      </g>
     </g>
    </g>
    <g id="xtick_2">
     <g id="line2d_2">
      <g>
       <use xlink:href="#m5a264c4709" x="120.680425" y="307.584" style="stroke: #000000; stroke-width: 0.8"/>
      </g>
     </g>
     <g id="text_2">
      <!-- 200 -->
      <g transform="translate(111.136675 322.182437)scale(0.1 -0.1)">
       <defs>
        <path id="DejaVuSans-32" d="M 1228 531 
L 3431 531 
L 3431 0 
L 469 0 
L 469 531 
Q 828 903 1448 1529 
Q 2069 2156 2228 2338 
Q 2531 2678 2651 2914 
Q 2772 3150 2772 3378 
Q 2772 3750 2511 3984 
Q 2250 4219 1831 4219 
Q 1534 4219 1204 4116 
Q 875 4013 500 3803 
L 500 4441 
Q 881 4594 1212 4672 
Q 1544 4750 1819 4750 
Q 2544 4750 2975 4387 
Q 3406 4025 3406 3419 
Q 3406 3131 3298 2873 
Q 3191 2616 2906 2266 
Q 2828 2175 2409 1742 
Q 1991 1309 1228 531 
z
" transform="scale(0.015625)"/>
       </defs>
       <use xlink:href="#DejaVuSans-32"/>
       <use xlink:href="#DejaVuSans-30" x="63.623047"/>
       <use xlink:href="#DejaVuSans-30" x="127.246094"/>
      </g>
     </g>
    </g>
    <g id="xtick_3">
     <g id="line2d_3">
      <g>
       <use xlink:href="#m5a264c4709" x="167.528123" y="307.584" style="stroke: #000000; stroke-width: 0.8"/>
      </g>
     </g>
     <g id="text_3">
      <!-- 400 -->
      <g transform="translate(157.984373 322.182437)scale(0.1 -0.1)">
       <defs>
        <path id="DejaVuSans-34" d="M 2419 4116 
L 825 1625 
L 2419 1625 
L 2419 4116 
z
M 2253 4666 
L 3047 4666 
L 3047 1625 
L 3713 1625 
L 3713 1100 
L 3047 1100 
L 3047 0 
L 2419 0 
L 2419 1100 
L 313 1100 
L 313 1709 
L 2253 4666 
z
" transform="scale(0.015625)"/>
       </defs>
       <use xlink:href="#DejaVuSans-34"/>
       <use xlink:href="#DejaVuSans-30" x="63.623047"/>
       <use xlink:href="#DejaVuSans-30" x="127.246094"/>
      </g>
     </g>
    </g>
    <g id="xtick_4">
     <g id="line2d_4">
      <g>
       <use xlink:href="#m5a264c4709" x="214.375821" y="307.584" style="stroke: #000000; stroke-width: 0.8"/>
      </g>
     </g>
     <g id="text_4">
      <!-- 600 -->
      <g transform="translate(204.832071 322.182437)scale(0.1 -0.1)">
       <defs>
        <path id="DejaVuSans-36" d="M 2113 2584 
Q 1688 2584 1439 2293 
Q 1191 2003 1191 1497 
Q 1191 994 1439 701 
Q 1688 409 2113 409 
Q 2538 409 2786 701 
Q 3034 994 3034 1497 
Q 3034 2003 2786 2293 
Q 2538 2584 2113 2584 
z
M 3366 4563 
L 3366 3988 
Q 3128 4100 2886 4159 
Q 2644 4219 2406 4219 
Q 1781 4219 1451 3797 
Q 1122 3375 1075 2522 
Q 1259 2794 1537 2939 
Q 1816 3084 2150 3084 
Q 2853 3084 3261 2657 
Q 3669 2231 3669 1497 
Q 3669 778 3244 343 
Q 2819 -91 2113 -91 
Q 1303 -91 875 529 
Q 447 1150 447 2328 
Q 447 3434 972 4092 
Q 1497 4750 2381 4750 
Q 2619 4750 2861 4703 
Q 3103 4656 3366 4563 
z
" transform="scale(0.015625)"/>
       </defs>
       <use xlink:href="#DejaVuSans-36"/>
       <use xlink:href="#DejaVuSans-30" x="63.623047"/>
       <use xlink:href="#DejaVuSans-30" x="127.246094"/>
      </g>
     </g>
    </g>
    <g id="xtick_5">
     <g id="line2d_5">
      <g>
       <use xlink:href="#m5a264c4709" x="261.223518" y="307.584" style="stroke: #000000; stroke-width: 0.8"/>
      </g>
     </g>
     <g id="text_5">
      <!-- 800 -->
      <g transform="translate(251.679768 322.182437)scale(0.1 -0.1)">
       <defs>
        <path id="DejaVuSans-38" d="M 2034 2216 
Q 1584 2216 1326 1975 
Q 1069 1734 1069 1313 
Q 1069 891 1326 650 
Q 1584 409 2034 409 
Q 2484 409 2743 651 
Q 3003 894 3003 1313 
Q 3003 1734 2745 1975 
Q 2488 2216 2034 2216 
z
M 1403 2484 
Q 997 2584 770 2862 
Q 544 3141 544 3541 
Q 544 4100 942 4425 
Q 1341 4750 2034 4750 
Q 2731 4750 3128 4425 
Q 3525 4100 3525 3541 
Q 3525 3141 3298 2862 
Q 3072 2584 2669 2484 
Q 3125 2378 3379 2068 
Q 3634 1759 3634 1313 
Q 3634 634 3220 271 
Q 2806 -91 2034 -91 
Q 1263 -91 848 271 
Q 434 634 434 1313 
Q 434 1759 690 2068 
Q 947 2378 1403 2484 
z
M 1172 3481 
Q 1172 3119 1398 2916 
Q 1625 2713 2034 2713 
Q 2441 2713 2670 2916 
Q 2900 3119 2900 3481 
Q 2900 3844 2670 4047 
Q 2441 4250 2034 4250 
Q 1625 4250 1398 4047 
Q 1172 3844 1172 3481 
z
" transform="scale(0.015625)"/>
       </defs>
       <use xlink:href="#DejaVuSans-38"/>
       <use xlink:href="#DejaVuSans-30" x="63.623047"/>
       <use xlink:href="#DejaVuSans-30" x="127.246094"/>
      </g>
     </g>
    </g>
    <g id="xtick_6">
     <g id="line2d_6">
      <g>
       <use xlink:href="#m5a264c4709" x="308.071216" y="307.584" style="stroke: #000000; stroke-width: 0.8"/>
      </g>
     </g>
     <g id="text_6">
      <!-- 1000 -->
      <g transform="translate(295.346216 322.182437)scale(0.1 -0.1)">
       <defs>
        <path id="DejaVuSans-31" d="M 794 531 
L 1825 531 
L 1825 4091 
L 703 3866 
L 703 4441 
L 1819 4666 
L 2450 4666 
L 2450 531 
L 3481 531 
L 3481 0 
L 794 0 
L 794 531 
z
" transform="scale(0.015625)"/>
       </defs>
       <use xlink:href="#DejaVuSans-31"/>
       <use xlink:href="#DejaVuSans-30" x="63.623047"/>
       <use xlink:href="#DejaVuSans-30" x="127.246094"/>
       <use xlink:href="#DejaVuSans-30" x="190.869141"/>
      </g>
     </g>
    </g>
    <g id="xtick_7">
     <g id="line2d_7">
      <g>
       <use xlink:href="#m5a264c4709" x="354.918914" y="307.584" style="stroke: #000000; stroke-width: 0.8"/>
      </g>
     </g>
     <g id="text_7">
      <!-- 1200 -->
      <g transform="translate(342.193914 322.182437)scale(0.1 -0.1)">
       <use xlink:href="#DejaVuSans-31"/>
       <use xlink:href="#DejaVuSans-32" x="63.623047"/>
       <use xlink:href="#DejaVuSans-30" x="127.246094"/>
       <use xlink:href="#DejaVuSans-30" x="190.869141"/>
      </g>
     </g>
    </g>
    <g id="xtick_8">
     <g id="line2d_8">
      <g>
       <use xlink:href="#m5a264c4709" x="401.766612" y="307.584" style="stroke: #000000; stroke-width: 0.8"/>
      </g>
     </g>
     <g id="text_8">
      <!-- 1400 -->
      <g transform="translate(389.041612 322.182437)scale(0.1 -0.1)">
       <use xlink:href="#DejaVuSans-31"/>
       <use xlink:href="#DejaVuSans-34" x="63.623047"/>
       <use xlink:href="#DejaVuSans-30" x="127.246094"/>
       <use xlink:href="#DejaVuSans-30" x="190.869141"/>
      </g>
     </g>
    </g>
    <g id="text_9">
     <!-- num swaps -->
     <g transform="translate(207.826406 335.860562)scale(0.1 -0.1)">
      <defs>
       <path id="DejaVuSans-6e" d="M 3513 2113 
L 3513 0 
L 2938 0 
L 2938 2094 
Q 2938 2591 2744 2837 
Q 2550 3084 2163 3084 
Q 1697 3084 1428 2787 
Q 1159 2491 1159 1978 
L 1159 0 
L 581 0 
L 581 3500 
L 1159 3500 
L 1159 2956 
Q 1366 3272 1645 3428 
Q 1925 3584 2291 3584 
Q 2894 3584 3203 3211 
Q 3513 2838 3513 2113 
z
" transform="scale(0.015625)"/>
       <path id="DejaVuSans-75" d="M 544 1381 
L 544 3500 
L 1119 3500 
L 1119 1403 
Q 1119 906 1312 657 
Q 1506 409 1894 409 
Q 2359 409 2629 706 
Q 2900 1003 2900 1516 
L 2900 3500 
L 3475 3500 
L 3475 0 
L 2900 0 
L 2900 538 
Q 2691 219 2414 64 
Q 2138 -91 1772 -91 
Q 1169 -91 856 284 
Q 544 659 544 1381 
z
M 1991 3584 
L 1991 3584 
z
" transform="scale(0.015625)"/>
       <path id="DejaVuSans-6d" d="M 3328 2828 
Q 3544 3216 3844 3400 
Q 4144 3584 4550 3584 
Q 5097 3584 5394 3201 
Q 5691 2819 5691 2113 
L 5691 0 
L 5113 0 
L 5113 2094 
Q 5113 2597 4934 2840 
Q 4756 3084 4391 3084 
Q 3944 3084 3684 2787 
Q 3425 2491 3425 1978 
L 3425 0 
L 2847 0 
L 2847 2094 
Q 2847 2600 2669 2842 
Q 2491 3084 2119 3084 
Q 1678 3084 1418 2786 
Q 1159 2488 1159 1978 
L 1159 0 
L 581 0 
L 581 3500 
L 1159 3500 
L 1159 2956 
Q 1356 3278 1631 3431 
Q 1906 3584 2284 3584 
Q 2666 3584 2933 3390 
Q 3200 3197 3328 2828 
z
" transform="scale(0.015625)"/>
       <path id="DejaVuSans-20" transform="scale(0.015625)"/>
       <path id="DejaVuSans-73" d="M 2834 3397 
L 2834 2853 
Q 2591 2978 2328 3040 
Q 2066 3103 1784 3103 
Q 1356 3103 1142 2972 
Q 928 2841 928 2578 
Q 928 2378 1081 2264 
Q 1234 2150 1697 2047 
L 1894 2003 
Q 2506 1872 2764 1633 
Q 3022 1394 3022 966 
Q 3022 478 2636 193 
Q 2250 -91 1575 -91 
Q 1294 -91 989 -36 
Q 684 19 347 128 
L 347 722 
Q 666 556 975 473 
Q 1284 391 1588 391 
Q 1994 391 2212 530 
Q 2431 669 2431 922 
Q 2431 1156 2273 1281 
Q 2116 1406 1581 1522 
L 1381 1569 
Q 847 1681 609 1914 
Q 372 2147 372 2553 
Q 372 3047 722 3315 
Q 1072 3584 1716 3584 
Q 2034 3584 2315 3537 
Q 2597 3491 2834 3397 
z
" transform="scale(0.015625)"/>
       <path id="DejaVuSans-77" d="M 269 3500 
L 844 3500 
L 1563 769 
L 2278 3500 
L 2956 3500 
L 3675 769 
L 4391 3500 
L 4966 3500 
L 4050 0 
L 3372 0 
L 2619 2869 
L 1863 0 
L 1184 0 
L 269 3500 
z
" transform="scale(0.015625)"/>
       <path id="DejaVuSans-61" d="M 2194 1759 
Q 1497 1759 1228 1600 
Q 959 1441 959 1056 
Q 959 750 1161 570 
Q 1363 391 1709 391 
Q 2188 391 2477 730 
Q 2766 1069 2766 1631 
L 2766 1759 
L 2194 1759 
z
M 3341 1997 
L 3341 0 
L 2766 0 
L 2766 531 
Q 2569 213 2275 61 
Q 1981 -91 1556 -91 
Q 1019 -91 701 211 
Q 384 513 384 1019 
Q 384 1609 779 1909 
Q 1175 2209 1959 2209 
L 2766 2209 
L 2766 2266 
Q 2766 2663 2505 2880 
Q 2244 3097 1772 3097 
Q 1472 3097 1187 3025 
Q 903 2953 641 2809 
L 641 3341 
Q 956 3463 1253 3523 
Q 1550 3584 1831 3584 
Q 2591 3584 2966 3190 
Q 3341 2797 3341 1997 
z
" transform="scale(0.015625)"/>
       <path id="DejaVuSans-70" d="M 1159 525 
L 1159 -1331 
L 581 -1331 
L 581 3500 
L 1159 3500 
L 1159 2969 
Q 1341 3281 1617 3432 
Q 1894 3584 2278 3584 
Q 2916 3584 3314 3078 
Q 3713 2572 3713 1747 
Q 3713 922 3314 415 
Q 2916 -91 2278 -91 
Q 1894 -91 1617 61 
Q 1341 213 1159 525 
z
M 3116 1747 
Q 3116 2381 2855 2742 
Q 2594 3103 2138 3103 
Q 1681 3103 1420 2742 
Q 1159 2381 1159 1747 
Q 1159 1113 1420 752 
Q 1681 391 2138 391 
Q 2594 391 2855 752 
Q 3116 1113 3116 1747 
z
" transform="scale(0.015625)"/>
      </defs>
      <use xlink:href="#DejaVuSans-6e"/>
      <use xlink:href="#DejaVuSans-75" x="63.378906"/>
      <use xlink:href="#DejaVuSans-6d" x="126.757812"/>
      <use xlink:href="#DejaVuSans-20" x="224.169922"/>
      <use xlink:href="#DejaVuSans-73" x="255.957031"/>
      <use xlink:href="#DejaVuSans-77" x="308.056641"/>
      <use xlink:href="#DejaVuSans-61" x="389.84375"/>
      <use xlink:href="#DejaVuSans-70" x="451.123047"/>
      <use xlink:href="#DejaVuSans-73" x="514.599609"/>
     </g>
    </g>
   </g>
   <g id="matplotlib.axis_2">
    <g id="ytick_1">
     <g id="line2d_9">
      <defs>
       <path id="mc20973ed03" d="M 0 0 
L -3.5 0 
" style="stroke: #000000; stroke-width: 0.8"/>
      </defs>
      <g>
       <use xlink:href="#mc20973ed03" x="57.6" y="273.984" style="stroke: #000000; stroke-width: 0.8"/>
      </g>
     </g>
     <g id="text_10">
      <!-- 160 -->
      <g transform="translate(31.5125 277.783219)scale(0.1 -0.1)">
       <use xlink:href="#DejaVuSans-31"/>
       <use xlink:href="#DejaVuSans-36" x="63.623047"/>
       <use xlink:href="#DejaVuSans-30" x="127.246094"/>
      </g>
     </g>
    </g>
    <g id="ytick_2">
     <g id="line2d_10">
      <g>
       <use xlink:href="#mc20973ed03" x="57.6" y="220.224" style="stroke: #000000; stroke-width: 0.8"/>
      </g>
     </g>
     <g id="text_11">
      <!-- 170 -->
      <g transform="translate(31.5125 224.023219)scale(0.1 -0.1)">
       <defs>
        <path id="DejaVuSans-37" d="M 525 4666 
L 3525 4666 
L 3525 4397 
L 1831 0 
L 1172 0 
L 2766 4134 
L 525 4134 
L 525 4666 
z
" transform="scale(0.015625)"/>
       </defs>
       <use xlink:href="#DejaVuSans-31"/>
       <use xlink:href="#DejaVuSans-37" x="63.623047"/>
       <use xlink:href="#DejaVuSans-30" x="127.246094"/>
      </g>
     </g>
    </g>
    <g id="ytick_3">
     <g id="line2d_11">
      <g>
       <use xlink:href="#mc20973ed03" x="57.6" y="166.464" style="stroke: #000000; stroke-width: 0.8"/>
      </g>
     </g>
     <g id="text_12">
      <!-- 180 -->
      <g transform="translate(31.5125 170.263219)scale(0.1 -0.1)">
       <use xlink:href="#DejaVuSans-31"/>
       <use xlink:href="#DejaVuSans-38" x="63.623047"/>
       <use xlink:href="#DejaVuSans-30" x="127.246094"/>
      </g>
     </g>
    </g>
    <g id="ytick_4">
     <g id="line2d_12">
      <g>
       <use xlink:href="#mc20973ed03" x="57.6" y="112.704" style="stroke: #000000; stroke-width: 0.8"/>
      </g>
     </g>
     <g id="text_13">
      <!-- 190 -->
      <g transform="translate(31.5125 116.503219)scale(0.1 -0.1)">
       <defs>
        <path id="DejaVuSans-39" d="M 703 97 
L 703 672 
Q 941 559 1184 500 
Q 1428 441 1663 441 
Q 2288 441 2617 861 
Q 2947 1281 2994 2138 
Q 2813 1869 2534 1725 
Q 2256 1581 1919 1581 
Q 1219 1581 811 2004 
Q 403 2428 403 3163 
Q 403 3881 828 4315 
Q 1253 4750 1959 4750 
Q 2769 4750 3195 4129 
Q 3622 3509 3622 2328 
Q 3622 1225 3098 567 
Q 2575 -91 1691 -91 
Q 1453 -91 1209 -44 
Q 966 3 703 97 
z
M 1959 2075 
Q 2384 2075 2632 2365 
Q 2881 2656 2881 3163 
Q 2881 3666 2632 3958 
Q 2384 4250 1959 4250 
Q 1534 4250 1286 3958 
Q 1038 3666 1038 3163 
Q 1038 2656 1286 2365 
Q 1534 2075 1959 2075 
z
" transform="scale(0.015625)"/>
       </defs>
       <use xlink:href="#DejaVuSans-31"/>
       <use xlink:href="#DejaVuSans-39" x="63.623047"/>
       <use xlink:href="#DejaVuSans-30" x="127.246094"/>
      </g>
     </g>
    </g>
    <g id="ytick_5">
     <g id="line2d_13">
      <g>
       <use xlink:href="#mc20973ed03" x="57.6" y="58.944" style="stroke: #000000; stroke-width: 0.8"/>
      </g>
     </g>
     <g id="text_14">
      <!-- 200 -->
      <g transform="translate(31.5125 62.743219)scale(0.1 -0.1)">
       <use xlink:href="#DejaVuSans-32"/>
       <use xlink:href="#DejaVuSans-30" x="63.623047"/>
       <use xlink:href="#DejaVuSans-30" x="127.246094"/>
      </g>
     </g>
    </g>
    <g id="text_15">
     <!-- total cost -->
     <g transform="translate(25.432812 197.923313)rotate(-90)scale(0.1 -0.1)">
      <defs>
       <path id="DejaVuSans-74" d="M 1172 4494 
L 1172 3500 
L 2356 3500 
L 2356 3053 
L 1172 3053 
L 1172 1153 
Q 1172 725 1289 603 
Q 1406 481 1766 481 
L 2356 481 
L 2356 0 
L 1766 0 
Q 1100 0 847 248 
Q 594 497 594 1153 
L 594 3053 
L 172 3053 
L 172 3500 
L 594 3500 
L 594 4494 
L 1172 4494 
z
" transform="scale(0.015625)"/>
       <path id="DejaVuSans-6f" d="M 1959 3097 
Q 1497 3097 1228 2736 
Q 959 2375 959 1747 
Q 959 1119 1226 758 
Q 1494 397 1959 397 
Q 2419 397 2687 759 
Q 2956 1122 2956 1747 
Q 2956 2369 2687 2733 
Q 2419 3097 1959 3097 
z
M 1959 3584 
Q 2709 3584 3137 3096 
Q 3566 2609 3566 1747 
Q 3566 888 3137 398 
Q 2709 -91 1959 -91 
Q 1206 -91 779 398 
Q 353 888 353 1747 
Q 353 2609 779 3096 
Q 1206 3584 1959 3584 
z
" transform="scale(0.015625)"/>
       <path id="DejaVuSans-6c" d="M 603 4863 
L 1178 4863 
L 1178 0 
L 603 0 
L 603 4863 
z
" transform="scale(0.015625)"/>
       <path id="DejaVuSans-63" d="M 3122 3366 
L 3122 2828 
Q 2878 2963 2633 3030 
Q 2388 3097 2138 3097 
Q 1578 3097 1268 2742 
Q 959 2388 959 1747 
Q 959 1106 1268 751 
Q 1578 397 2138 397 
Q 2388 397 2633 464 
Q 2878 531 3122 666 
L 3122 134 
Q 2881 22 2623 -34 
Q 2366 -91 2075 -91 
Q 1284 -91 818 406 
Q 353 903 353 1747 
Q 353 2603 823 3093 
Q 1294 3584 2113 3584 
Q 2378 3584 2631 3529 
Q 2884 3475 3122 3366 
z
" transform="scale(0.015625)"/>
      </defs>
      <use xlink:href="#DejaVuSans-74"/>
      <use xlink:href="#DejaVuSans-6f" x="39.208984"/>
      <use xlink:href="#DejaVuSans-74" x="100.390625"/>
      <use xlink:href="#DejaVuSans-61" x="139.599609"/>
      <use xlink:href="#DejaVuSans-6c" x="200.878906"/>
      <use xlink:href="#DejaVuSans-20" x="228.662109"/>
      <use xlink:href="#DejaVuSans-63" x="260.449219"/>
      <use xlink:href="#DejaVuSans-6f" x="315.429688"/>
      <use xlink:href="#DejaVuSans-73" x="376.611328"/>
      <use xlink:href="#DejaVuSans-74" x="428.710938"/>
     </g>
    </g>
   </g>
   <g id="line2d_14">
    <path d="M 73.832727 236.352 
L 74.301204 236.352 
L 74.769681 252.48 
L 75.238158 247.104 
L 75.706635 166.464 
L 76.175112 155.712 
L 76.643589 182.592 
L 77.112066 187.968 
L 77.580543 209.472 
L 78.04902 220.224 
L 78.517497 214.848 
L 78.985974 187.968 
L 79.454451 193.344 
L 79.922928 230.976 
L 80.391405 236.352 
L 81.328359 193.344 
L 81.796836 182.592 
L 82.265313 144.96 
L 82.73379 128.832 
L 83.670744 161.088 
L 84.139221 134.208 
L 84.607698 139.584 
L 85.076175 166.464 
L 85.544652 171.84 
L 86.013129 150.336 
L 86.481606 150.336 
L 86.950083 144.96 
L 87.41856 182.592 
L 87.887037 166.464 
L 88.355514 144.96 
L 88.823991 161.088 
L 89.292468 161.088 
L 89.760945 134.208 
L 90.697898 166.464 
L 91.166375 166.464 
L 91.634852 171.84 
L 92.103329 171.84 
L 92.571806 144.96 
L 93.040283 161.088 
L 93.50876 171.84 
L 93.977237 193.344 
L 94.445714 150.336 
L 94.914191 209.472 
L 95.382668 225.6 
L 95.851145 214.848 
L 96.319622 230.976 
L 96.788099 214.848 
L 97.256576 225.6 
L 97.725053 241.728 
L 98.19353 241.728 
L 98.662007 225.6 
L 99.130484 187.968 
L 99.598961 193.344 
L 100.067438 193.344 
L 100.535915 177.216 
L 101.472869 177.216 
L 101.941346 187.968 
L 102.409823 193.344 
L 102.8783 177.216 
L 103.346777 177.216 
L 103.815254 155.712 
L 104.283731 166.464 
L 104.752208 182.592 
L 105.220685 177.216 
L 105.689162 144.96 
L 106.157639 155.712 
L 106.626116 150.336 
L 107.094593 171.84 
L 107.56307 214.848 
L 108.031547 214.848 
L 108.968501 273.984 
L 109.436978 257.856 
L 109.905455 214.848 
L 110.373932 209.472 
L 110.842409 214.848 
L 111.310885 247.104 
L 111.779362 247.104 
L 112.247839 214.848 
L 112.716316 214.848 
L 113.184793 198.72 
L 113.65327 177.216 
L 114.121747 112.704 
L 114.590224 85.824 
L 115.058701 144.96 
L 115.527178 166.464 
L 115.995655 198.72 
L 116.464132 171.84 
L 116.932609 204.096 
L 117.869563 144.96 
L 118.33804 161.088 
L 118.806517 166.464 
L 119.274994 166.464 
L 119.743471 198.72 
L 120.211948 134.208 
L 120.680425 134.208 
L 121.617379 155.712 
L 122.085856 182.592 
L 122.554333 198.72 
L 123.02281 230.976 
L 123.491287 214.848 
L 123.959764 236.352 
L 124.428241 225.6 
L 124.896718 230.976 
L 125.365195 220.224 
L 125.833672 214.848 
L 126.302149 198.72 
L 126.770626 193.344 
L 127.239103 225.6 
L 127.70758 230.976 
L 128.176057 214.848 
L 128.644534 182.592 
L 129.113011 209.472 
L 129.581488 193.344 
L 130.049965 161.088 
L 130.518442 166.464 
L 130.986919 123.456 
L 131.455396 123.456 
L 131.923872 139.584 
L 132.392349 161.088 
L 133.329303 128.832 
L 134.734734 204.096 
L 136.140165 220.224 
L 136.608642 209.472 
L 137.077119 177.216 
L 137.545596 257.856 
L 138.014073 220.224 
L 138.48255 257.856 
L 138.951027 252.48 
L 139.419504 204.096 
L 139.887981 236.352 
L 140.356458 193.344 
L 140.824935 182.592 
L 141.293412 155.712 
L 141.761889 166.464 
L 142.230366 161.088 
L 142.698843 193.344 
L 143.16732 193.344 
L 143.635797 187.968 
L 144.572751 144.96 
L 145.041228 128.832 
L 145.509705 155.712 
L 145.978182 166.464 
L 146.446659 182.592 
L 147.383613 161.088 
L 147.85209 198.72 
L 148.320567 182.592 
L 148.789044 198.72 
L 149.257521 182.592 
L 149.725998 187.968 
L 150.194475 171.84 
L 150.662952 182.592 
L 151.131429 182.592 
L 151.599906 177.216 
L 152.068383 220.224 
L 152.53686 230.976 
L 153.005336 263.232 
L 153.473813 236.352 
L 153.94229 198.72 
L 154.410767 187.968 
L 154.879244 214.848 
L 155.347721 166.464 
L 155.816198 177.216 
L 156.284675 171.84 
L 156.753152 193.344 
L 157.221629 166.464 
L 157.690106 150.336 
L 158.158583 166.464 
L 158.62706 161.088 
L 159.095537 214.848 
L 159.564014 198.72 
L 160.032491 204.096 
L 160.500968 177.216 
L 160.969445 134.208 
L 161.437922 101.952 
L 161.906399 85.824 
L 162.374876 101.952 
L 162.843353 150.336 
L 163.31183 150.336 
L 163.780307 171.84 
L 164.248784 144.96 
L 164.717261 144.96 
L 165.185738 155.712 
L 165.654215 53.568 
L 166.122692 80.448 
L 166.591169 91.2 
L 167.059646 85.824 
L 167.528123 101.952 
L 168.465077 101.952 
L 168.933554 128.832 
L 169.402031 107.328 
L 169.870508 128.832 
L 170.338985 128.832 
L 170.807462 139.584 
L 171.275939 144.96 
L 171.744416 177.216 
L 172.212893 177.216 
L 172.68137 198.72 
L 173.149847 177.216 
L 173.618323 187.968 
L 174.0868 187.968 
L 174.555277 171.84 
L 175.023754 177.216 
L 175.492231 161.088 
L 175.960708 171.84 
L 176.429185 187.968 
L 176.897662 193.344 
L 177.366139 155.712 
L 177.834616 166.464 
L 178.77157 198.72 
L 179.240047 204.096 
L 179.708524 171.84 
L 180.177001 161.088 
L 180.645478 171.84 
L 181.113955 204.096 
L 181.582432 204.096 
L 182.050909 187.968 
L 182.519386 161.088 
L 182.987863 144.96 
L 183.45634 161.088 
L 183.924817 252.48 
L 184.393294 236.352 
L 184.861771 209.472 
L 185.330248 198.72 
L 185.798725 166.464 
L 186.267202 161.088 
L 186.735679 139.584 
L 187.204156 166.464 
L 187.672633 155.712 
L 188.14111 161.088 
L 188.609587 177.216 
L 189.078064 155.712 
L 189.546541 144.96 
L 190.015018 166.464 
L 190.483495 161.088 
L 190.951972 161.088 
L 191.420449 166.464 
L 191.888926 166.464 
L 192.82588 177.216 
L 193.294357 139.584 
L 193.762834 182.592 
L 194.231311 187.968 
L 194.699787 209.472 
L 195.168264 214.848 
L 195.636741 230.976 
L 196.105218 193.344 
L 196.573695 209.472 
L 197.510649 252.48 
L 197.979126 236.352 
L 198.447603 230.976 
L 198.91608 257.856 
L 199.384557 236.352 
L 199.853034 225.6 
L 200.321511 225.6 
L 200.789988 247.104 
L 201.258465 295.488 
L 201.726942 273.984 
L 202.195419 247.104 
L 202.663896 236.352 
L 203.132373 241.728 
L 203.60085 225.6 
L 204.069327 263.232 
L 204.537804 263.232 
L 205.006281 230.976 
L 205.474758 236.352 
L 205.943235 225.6 
L 206.411712 230.976 
L 206.880189 214.848 
L 207.348666 193.344 
L 207.817143 204.096 
L 208.28562 204.096 
L 208.754097 171.84 
L 209.222574 166.464 
L 209.691051 198.72 
L 210.159528 193.344 
L 210.628005 177.216 
L 211.564959 187.968 
L 212.033436 187.968 
L 212.501913 198.72 
L 212.97039 171.84 
L 213.907344 204.096 
L 214.375821 161.088 
L 214.844298 182.592 
L 215.312774 171.84 
L 215.781251 139.584 
L 216.249728 155.712 
L 216.718205 134.208 
L 217.186682 134.208 
L 217.655159 123.456 
L 218.123636 155.712 
L 218.592113 144.96 
L 219.06059 150.336 
L 219.529067 198.72 
L 219.997544 220.224 
L 220.466021 187.968 
L 220.934498 187.968 
L 221.402975 182.592 
L 221.871452 182.592 
L 222.339929 166.464 
L 223.276883 144.96 
L 223.74536 187.968 
L 224.213837 193.344 
L 224.682314 193.344 
L 225.619268 182.592 
L 226.087745 193.344 
L 226.556222 171.84 
L 227.024699 182.592 
L 227.493176 209.472 
L 227.961653 182.592 
L 228.43013 209.472 
L 228.898607 204.096 
L 229.835561 182.592 
L 230.304038 177.216 
L 230.772515 204.096 
L 231.240992 198.72 
L 231.709469 230.976 
L 232.177946 209.472 
L 232.646423 252.48 
L 233.1149 220.224 
L 233.583377 198.72 
L 234.051854 193.344 
L 234.988808 150.336 
L 235.457285 112.704 
L 235.925762 123.456 
L 236.394238 161.088 
L 236.862715 139.584 
L 237.331192 144.96 
L 237.799669 144.96 
L 238.268146 139.584 
L 238.736623 150.336 
L 239.2051 123.456 
L 239.673577 171.84 
L 240.142054 171.84 
L 240.610531 182.592 
L 241.079008 171.84 
L 241.547485 177.216 
L 242.015962 155.712 
L 242.484439 161.088 
L 243.88987 161.088 
L 244.358347 166.464 
L 244.826824 166.464 
L 245.295301 182.592 
L 245.763778 171.84 
L 246.232255 150.336 
L 246.700732 182.592 
L 247.637686 134.208 
L 248.106163 182.592 
L 248.57464 166.464 
L 249.043117 144.96 
L 249.511594 161.088 
L 249.980071 139.584 
L 250.917025 150.336 
L 251.385502 118.08 
L 251.853979 123.456 
L 252.322456 187.968 
L 252.790933 171.84 
L 253.25941 198.72 
L 253.727887 182.592 
L 254.196364 193.344 
L 254.664841 220.224 
L 255.133318 187.968 
L 255.601795 198.72 
L 256.070272 204.096 
L 256.538749 214.848 
L 257.007226 220.224 
L 257.475702 193.344 
L 257.944179 198.72 
L 258.412656 166.464 
L 258.881133 161.088 
L 259.34961 198.72 
L 259.818087 161.088 
L 260.755041 161.088 
L 261.223518 166.464 
L 261.691995 193.344 
L 262.160472 166.464 
L 262.628949 150.336 
L 263.097426 161.088 
L 263.565903 161.088 
L 264.03438 182.592 
L 264.502857 171.84 
L 264.971334 166.464 
L 265.439811 144.96 
L 265.908288 155.712 
L 266.376765 204.096 
L 266.845242 198.72 
L 267.313719 220.224 
L 267.782196 236.352 
L 268.250673 247.104 
L 268.71915 247.104 
L 269.187627 257.856 
L 269.656104 257.856 
L 270.124581 230.976 
L 270.593058 241.728 
L 271.061535 209.472 
L 271.530012 204.096 
L 271.998489 236.352 
L 272.466966 247.104 
L 272.935443 204.096 
L 273.40392 214.848 
L 273.872397 230.976 
L 274.340874 220.224 
L 274.809351 198.72 
L 275.277828 193.344 
L 275.746305 209.472 
L 276.214782 209.472 
L 276.683259 214.848 
L 277.151736 230.976 
L 278.088689 252.48 
L 278.557166 273.984 
L 279.025643 241.728 
L 279.49412 247.104 
L 279.962597 220.224 
L 280.431074 220.224 
L 280.899551 155.712 
L 281.368028 177.216 
L 282.773459 268.608 
L 283.241936 268.608 
L 283.710413 257.856 
L 284.17889 273.984 
L 285.115844 161.088 
L 285.584321 161.088 
L 286.052798 182.592 
L 286.521275 134.208 
L 286.989752 134.208 
L 287.458229 155.712 
L 287.926706 193.344 
L 288.395183 193.344 
L 288.86366 166.464 
L 289.332137 128.832 
L 289.800614 101.952 
L 290.269091 107.328 
L 290.737568 155.712 
L 291.206045 139.584 
L 292.142999 198.72 
L 293.079953 198.72 
L 293.54843 273.984 
L 294.016907 279.36 
L 294.485384 279.36 
L 295.890815 247.104 
L 296.359292 225.6 
L 296.827769 182.592 
L 297.296246 198.72 
L 297.764723 225.6 
L 298.2332 193.344 
L 298.701677 139.584 
L 299.170153 155.712 
L 299.63863 161.088 
L 300.107107 128.832 
L 300.575584 118.08 
L 301.044061 139.584 
L 301.512538 139.584 
L 301.981015 150.336 
L 302.449492 182.592 
L 302.917969 150.336 
L 303.386446 177.216 
L 303.854923 177.216 
L 304.3234 187.968 
L 304.791877 161.088 
L 305.728831 128.832 
L 306.197308 139.584 
L 306.665785 166.464 
L 307.134262 166.464 
L 307.602739 187.968 
L 308.071216 187.968 
L 308.539693 155.712 
L 309.00817 166.464 
L 309.476647 150.336 
L 309.945124 204.096 
L 310.413601 171.84 
L 310.882078 166.464 
L 311.350555 155.712 
L 311.819032 171.84 
L 312.287509 161.088 
L 312.755986 134.208 
L 313.224463 128.832 
L 313.69294 161.088 
L 314.161417 171.84 
L 314.629894 177.216 
L 315.098371 177.216 
L 315.566848 182.592 
L 316.035325 198.72 
L 316.503802 182.592 
L 316.972279 182.592 
L 317.909233 161.088 
L 318.37771 139.584 
L 318.846187 166.464 
L 319.314664 139.584 
L 319.78314 150.336 
L 320.251617 123.456 
L 320.720094 161.088 
L 321.188571 155.712 
L 321.657048 161.088 
L 322.125525 187.968 
L 323.062479 220.224 
L 323.530956 187.968 
L 323.999433 182.592 
L 324.46791 144.96 
L 325.404864 187.968 
L 325.873341 155.712 
L 326.341818 144.96 
L 326.810295 150.336 
L 327.278772 177.216 
L 327.747249 177.216 
L 328.215726 193.344 
L 328.684203 177.216 
L 329.15268 193.344 
L 329.621157 187.968 
L 330.089634 171.84 
L 330.558111 177.216 
L 331.026588 139.584 
L 331.495065 144.96 
L 331.963542 155.712 
L 332.432019 177.216 
L 332.900496 187.968 
L 333.368973 204.096 
L 333.83745 225.6 
L 334.305927 252.48 
L 335.242881 177.216 
L 336.179835 177.216 
L 336.648312 187.968 
L 337.116789 182.592 
L 337.585266 198.72 
L 338.053743 182.592 
L 338.52222 177.216 
L 338.990697 166.464 
L 340.396128 150.336 
L 340.864604 139.584 
L 341.333081 187.968 
L 341.801558 187.968 
L 342.270035 193.344 
L 342.738512 209.472 
L 343.206989 171.84 
L 343.675466 182.592 
L 344.143943 204.096 
L 344.61242 204.096 
L 345.080897 230.976 
L 345.549374 220.224 
L 346.017851 225.6 
L 346.954805 268.608 
L 347.423282 182.592 
L 347.891759 193.344 
L 348.828713 134.208 
L 349.29719 150.336 
L 349.765667 150.336 
L 350.234144 139.584 
L 350.702621 123.456 
L 351.171098 101.952 
L 351.639575 107.328 
L 352.108052 128.832 
L 352.576529 171.84 
L 353.045006 171.84 
L 353.513483 198.72 
L 353.98196 204.096 
L 354.450437 214.848 
L 354.918914 187.968 
L 355.387391 134.208 
L 355.855868 150.336 
L 356.324345 150.336 
L 356.792822 123.456 
L 357.261299 123.456 
L 358.198253 101.952 
L 358.66673 118.08 
L 359.135207 150.336 
L 359.603684 128.832 
L 360.072161 139.584 
L 360.540638 193.344 
L 361.009115 198.72 
L 361.477591 171.84 
L 361.946068 209.472 
L 362.414545 161.088 
L 362.883022 144.96 
L 363.351499 155.712 
L 363.819976 171.84 
L 364.288453 214.848 
L 364.75693 198.72 
L 365.225407 209.472 
L 365.693884 171.84 
L 366.162361 198.72 
L 366.630838 161.088 
L 367.099315 187.968 
L 367.567792 204.096 
L 368.504746 204.096 
L 369.4417 236.352 
L 369.910177 198.72 
L 370.378654 198.72 
L 370.847131 204.096 
L 371.315608 273.984 
L 371.784085 209.472 
L 372.252562 187.968 
L 372.721039 182.592 
L 373.189516 198.72 
L 373.657993 187.968 
L 374.12647 209.472 
L 374.594947 209.472 
L 375.531901 198.72 
L 376.468855 177.216 
L 376.937332 209.472 
L 377.405809 187.968 
L 377.874286 150.336 
L 378.342763 150.336 
L 378.81124 144.96 
L 379.279717 144.96 
L 379.748194 198.72 
L 380.216671 214.848 
L 380.685148 193.344 
L 381.622102 171.84 
L 382.090579 171.84 
L 382.559055 166.464 
L 383.027532 187.968 
L 383.496009 204.096 
L 383.964486 204.096 
L 384.432963 220.224 
L 384.90144 220.224 
L 385.369917 230.976 
L 385.838394 209.472 
L 386.306871 198.72 
L 386.775348 204.096 
L 387.243825 214.848 
L 387.712302 209.472 
L 388.180779 220.224 
L 388.649256 220.224 
L 389.117733 225.6 
L 389.58621 214.848 
L 390.054687 230.976 
L 390.523164 241.728 
L 390.991641 236.352 
L 391.460118 284.736 
L 391.928595 263.232 
L 392.397072 214.848 
L 392.865549 241.728 
L 393.334026 252.48 
L 393.802503 247.104 
L 394.27098 236.352 
L 394.739457 236.352 
L 395.676411 247.104 
L 396.144888 257.856 
L 396.613365 252.48 
L 397.550319 182.592 
L 398.018796 193.344 
L 398.487273 209.472 
L 398.487273 209.472 
" clip-path="url(#pda475fe8e0)" style="fill: none; stroke: #1f77b4; stroke-width: 1.5; stroke-linecap: square"/>
   </g>
   <g id="patch_3">
    <path d="M 57.6 307.584 
L 57.6 41.472 
" style="fill: none; stroke: #000000; stroke-width: 0.8; stroke-linejoin: miter; stroke-linecap: square"/>
   </g>
   <g id="patch_4">
    <path d="M 414.72 307.584 
L 414.72 41.472 
" style="fill: none; stroke: #000000; stroke-width: 0.8; stroke-linejoin: miter; stroke-linecap: square"/>
   </g>
   <g id="patch_5">
    <path d="M 57.6 307.584 
L 414.72 307.584 
" style="fill: none; stroke: #000000; stroke-width: 0.8; stroke-linejoin: miter; stroke-linecap: square"/>
   </g>
   <g id="patch_6">
    <path d="M 57.6 41.472 
L 414.72 41.472 
" style="fill: none; stroke: #000000; stroke-width: 0.8; stroke-linejoin: miter; stroke-linecap: square"/>
   </g>
   <g id="text_16">
    <!-- Simulated Anealling Cost -->
    <g transform="translate(160.8 35.472)scale(0.12 -0.12)">
     <defs>
      <path id="DejaVuSans-53" d="M 3425 4513 
L 3425 3897 
Q 3066 4069 2747 4153 
Q 2428 4238 2131 4238 
Q 1616 4238 1336 4038 
Q 1056 3838 1056 3469 
Q 1056 3159 1242 3001 
Q 1428 2844 1947 2747 
L 2328 2669 
Q 3034 2534 3370 2195 
Q 3706 1856 3706 1288 
Q 3706 609 3251 259 
Q 2797 -91 1919 -91 
Q 1588 -91 1214 -16 
Q 841 59 441 206 
L 441 856 
Q 825 641 1194 531 
Q 1563 422 1919 422 
Q 2459 422 2753 634 
Q 3047 847 3047 1241 
Q 3047 1584 2836 1778 
Q 2625 1972 2144 2069 
L 1759 2144 
Q 1053 2284 737 2584 
Q 422 2884 422 3419 
Q 422 4038 858 4394 
Q 1294 4750 2059 4750 
Q 2388 4750 2728 4690 
Q 3069 4631 3425 4513 
z
" transform="scale(0.015625)"/>
      <path id="DejaVuSans-69" d="M 603 3500 
L 1178 3500 
L 1178 0 
L 603 0 
L 603 3500 
z
M 603 4863 
L 1178 4863 
L 1178 4134 
L 603 4134 
L 603 4863 
z
" transform="scale(0.015625)"/>
      <path id="DejaVuSans-65" d="M 3597 1894 
L 3597 1613 
L 953 1613 
Q 991 1019 1311 708 
Q 1631 397 2203 397 
Q 2534 397 2845 478 
Q 3156 559 3463 722 
L 3463 178 
Q 3153 47 2828 -22 
Q 2503 -91 2169 -91 
Q 1331 -91 842 396 
Q 353 884 353 1716 
Q 353 2575 817 3079 
Q 1281 3584 2069 3584 
Q 2775 3584 3186 3129 
Q 3597 2675 3597 1894 
z
M 3022 2063 
Q 3016 2534 2758 2815 
Q 2500 3097 2075 3097 
Q 1594 3097 1305 2825 
Q 1016 2553 972 2059 
L 3022 2063 
z
" transform="scale(0.015625)"/>
      <path id="DejaVuSans-64" d="M 2906 2969 
L 2906 4863 
L 3481 4863 
L 3481 0 
L 2906 0 
L 2906 525 
Q 2725 213 2448 61 
Q 2172 -91 1784 -91 
Q 1150 -91 751 415 
Q 353 922 353 1747 
Q 353 2572 751 3078 
Q 1150 3584 1784 3584 
Q 2172 3584 2448 3432 
Q 2725 3281 2906 2969 
z
M 947 1747 
Q 947 1113 1208 752 
Q 1469 391 1925 391 
Q 2381 391 2643 752 
Q 2906 1113 2906 1747 
Q 2906 2381 2643 2742 
Q 2381 3103 1925 3103 
Q 1469 3103 1208 2742 
Q 947 2381 947 1747 
z
" transform="scale(0.015625)"/>
      <path id="DejaVuSans-41" d="M 2188 4044 
L 1331 1722 
L 3047 1722 
L 2188 4044 
z
M 1831 4666 
L 2547 4666 
L 4325 0 
L 3669 0 
L 3244 1197 
L 1141 1197 
L 716 0 
L 50 0 
L 1831 4666 
z
" transform="scale(0.015625)"/>
      <path id="DejaVuSans-67" d="M 2906 1791 
Q 2906 2416 2648 2759 
Q 2391 3103 1925 3103 
Q 1463 3103 1205 2759 
Q 947 2416 947 1791 
Q 947 1169 1205 825 
Q 1463 481 1925 481 
Q 2391 481 2648 825 
Q 2906 1169 2906 1791 
z
M 3481 434 
Q 3481 -459 3084 -895 
Q 2688 -1331 1869 -1331 
Q 1566 -1331 1297 -1286 
Q 1028 -1241 775 -1147 
L 775 -588 
Q 1028 -725 1275 -790 
Q 1522 -856 1778 -856 
Q 2344 -856 2625 -561 
Q 2906 -266 2906 331 
L 2906 616 
Q 2728 306 2450 153 
Q 2172 0 1784 0 
Q 1141 0 747 490 
Q 353 981 353 1791 
Q 353 2603 747 3093 
Q 1141 3584 1784 3584 
Q 2172 3584 2450 3431 
Q 2728 3278 2906 2969 
L 2906 3500 
L 3481 3500 
L 3481 434 
z
" transform="scale(0.015625)"/>
      <path id="DejaVuSans-43" d="M 4122 4306 
L 4122 3641 
Q 3803 3938 3442 4084 
Q 3081 4231 2675 4231 
Q 1875 4231 1450 3742 
Q 1025 3253 1025 2328 
Q 1025 1406 1450 917 
Q 1875 428 2675 428 
Q 3081 428 3442 575 
Q 3803 722 4122 1019 
L 4122 359 
Q 3791 134 3420 21 
Q 3050 -91 2638 -91 
Q 1578 -91 968 557 
Q 359 1206 359 2328 
Q 359 3453 968 4101 
Q 1578 4750 2638 4750 
Q 3056 4750 3426 4639 
Q 3797 4528 4122 4306 
z
" transform="scale(0.015625)"/>
     </defs>
     <use xlink:href="#DejaVuSans-53"/>
     <use xlink:href="#DejaVuSans-69" x="63.476562"/>
     <use xlink:href="#DejaVuSans-6d" x="91.259766"/>
     <use xlink:href="#DejaVuSans-75" x="188.671875"/>
     <use xlink:href="#DejaVuSans-6c" x="252.050781"/>
     <use xlink:href="#DejaVuSans-61" x="279.833984"/>
     <use xlink:href="#DejaVuSans-74" x="341.113281"/>
     <use xlink:href="#DejaVuSans-65" x="380.322266"/>
     <use xlink:href="#DejaVuSans-64" x="441.845703"/>
     <use xlink:href="#DejaVuSans-20" x="505.322266"/>
     <use xlink:href="#DejaVuSans-41" x="537.109375"/>
     <use xlink:href="#DejaVuSans-6e" x="605.517578"/>
     <use xlink:href="#DejaVuSans-65" x="668.896484"/>
     <use xlink:href="#DejaVuSans-61" x="730.419922"/>
     <use xlink:href="#DejaVuSans-6c" x="791.699219"/>
     <use xlink:href="#DejaVuSans-6c" x="819.482422"/>
     <use xlink:href="#DejaVuSans-69" x="847.265625"/>
     <use xlink:href="#DejaVuSans-6e" x="875.048828"/>
     <use xlink:href="#DejaVuSans-67" x="938.427734"/>
     <use xlink:href="#DejaVuSans-20" x="1001.904297"/>
     <use xlink:href="#DejaVuSans-43" x="1033.691406"/>
     <use xlink:href="#DejaVuSans-6f" x="1103.515625"/>
     <use xlink:href="#DejaVuSans-73" x="1164.697266"/>
     <use xlink:href="#DejaVuSans-74" x="1216.796875"/>
    </g>
   </g>
  </g>
 </g>
 <defs>
  <clipPath id="pda475fe8e0">
   <rect x="57.6" y="41.472" width="357.12" height="266.112"/>
  </clipPath>
 </defs>
</svg>
