<?xml version="1.0" encoding="utf-8" standalone="no"?>
<!DOCTYPE svg PUBLIC "-//W3C//DTD SVG 1.1//EN"
  "http://www.w3.org/Graphics/SVG/1.1/DTD/svg11.dtd">
<svg xmlns:xlink="http://www.w3.org/1999/xlink" width="460.8pt" height="345.6pt" viewBox="0 0 460.8 345.6" xmlns="http://www.w3.org/2000/svg" version="1.1">
 <metadata>
  <rdf:RDF xmlns:dc="http://purl.org/dc/elements/1.1/" xmlns:cc="http://creativecommons.org/ns#" xmlns:rdf="http://www.w3.org/1999/02/22-rdf-syntax-ns#">
   <cc:Work>
    <dc:type rdf:resource="http://purl.org/dc/dcmitype/StillImage"/>
    <dc:date>2022-06-01T08:04:38.161143</dc:date>
    <dc:format>image/svg+xml</dc:format>
    <dc:creator>
     <cc:Agent>
      <dc:title>Matplotlib v3.5.1, https://matplotlib.org/</dc:title>
     </cc:Agent>
    </dc:creator>
   </cc:Work>
  </rdf:RDF>
 </metadata>
 <defs>
  <style type="text/css">*{stroke-linejoin: round; stroke-linecap: butt}</style>
 </defs>
 <g id="figure_1">
  <g id="patch_1">
   <path d="M 0 345.6 
L 460.8 345.6 
L 460.8 0 
L 0 0 
z
" style="fill: #ffffff"/>
  </g>
  <g id="axes_1">
   <g id="patch_2">
    <path d="M 57.6 307.584 
L 414.72 307.584 
L 414.72 41.472 
L 57.6 41.472 
z
" style="fill: #ffffff"/>
   </g>
   <g id="matplotlib.axis_1">
    <g id="xtick_1">
     <g id="line2d_1">
      <defs>
       <path id="ma6be71da52" d="M 0 0 
L 0 3.5 
" style="stroke: #000000; stroke-width: 0.8"/>
      </defs>
      <g>
       <use xlink:href="#ma6be71da52" x="73.832727" y="307.584" style="stroke: #000000; stroke-width: 0.8"/>
      </g>
     </g>
     <g id="text_1">
      <!-- 0 -->
      <g transform="translate(70.651477 322.182437)scale(0.1 -0.1)">
       <defs>
        <path id="DejaVuSans-30" d="M 2034 4250 
Q 1547 4250 1301 3770 
Q 1056 3291 1056 2328 
Q 1056 1369 1301 889 
Q 1547 409 2034 409 
Q 2525 409 2770 889 
Q 3016 1369 3016 2328 
Q 3016 3291 2770 3770 
Q 2525 4250 2034 4250 
z
M 2034 4750 
Q 2819 4750 3233 4129 
Q 3647 3509 3647 2328 
Q 3647 1150 3233 529 
Q 2819 -91 2034 -91 
Q 1250 -91 836 529 
Q 422 1150 422 2328 
Q 422 3509 836 4129 
Q 1250 4750 2034 4750 
z
" transform="scale(0.015625)"/>
       </defs>
       <use xlink:href="#DejaVuSans-30"/>
      </g>
     </g>
    </g>
    <g id="xtick_2">
     <g id="line2d_2">
      <g>
       <use xlink:href="#ma6be71da52" x="118.98635" y="307.584" style="stroke: #000000; stroke-width: 0.8"/>
      </g>
     </g>
     <g id="text_2">
      <!-- 200 -->
      <g transform="translate(109.4426 322.182437)scale(0.1 -0.1)">
       <defs>
        <path id="DejaVuSans-32" d="M 1228 531 
L 3431 531 
L 3431 0 
L 469 0 
L 469 531 
Q 828 903 1448 1529 
Q 2069 2156 2228 2338 
Q 2531 2678 2651 2914 
Q 2772 3150 2772 3378 
Q 2772 3750 2511 3984 
Q 2250 4219 1831 4219 
Q 1534 4219 1204 4116 
Q 875 4013 500 3803 
L 500 4441 
Q 881 4594 1212 4672 
Q 1544 4750 1819 4750 
Q 2544 4750 2975 4387 
Q 3406 4025 3406 3419 
Q 3406 3131 3298 2873 
Q 3191 2616 2906 2266 
Q 2828 2175 2409 1742 
Q 1991 1309 1228 531 
z
" transform="scale(0.015625)"/>
       </defs>
       <use xlink:href="#DejaVuSans-32"/>
       <use xlink:href="#DejaVuSans-30" x="63.623047"/>
       <use xlink:href="#DejaVuSans-30" x="127.246094"/>
      </g>
     </g>
    </g>
    <g id="xtick_3">
     <g id="line2d_3">
      <g>
       <use xlink:href="#ma6be71da52" x="164.139972" y="307.584" style="stroke: #000000; stroke-width: 0.8"/>
      </g>
     </g>
     <g id="text_3">
      <!-- 400 -->
      <g transform="translate(154.596222 322.182437)scale(0.1 -0.1)">
       <defs>
        <path id="DejaVuSans-34" d="M 2419 4116 
L 825 1625 
L 2419 1625 
L 2419 4116 
z
M 2253 4666 
L 3047 4666 
L 3047 1625 
L 3713 1625 
L 3713 1100 
L 3047 1100 
L 3047 0 
L 2419 0 
L 2419 1100 
L 313 1100 
L 313 1709 
L 2253 4666 
z
" transform="scale(0.015625)"/>
       </defs>
       <use xlink:href="#DejaVuSans-34"/>
       <use xlink:href="#DejaVuSans-30" x="63.623047"/>
       <use xlink:href="#DejaVuSans-30" x="127.246094"/>
      </g>
     </g>
    </g>
    <g id="xtick_4">
     <g id="line2d_4">
      <g>
       <use xlink:href="#ma6be71da52" x="209.293595" y="307.584" style="stroke: #000000; stroke-width: 0.8"/>
      </g>
     </g>
     <g id="text_4">
      <!-- 600 -->
      <g transform="translate(199.749845 322.182437)scale(0.1 -0.1)">
       <defs>
        <path id="DejaVuSans-36" d="M 2113 2584 
Q 1688 2584 1439 2293 
Q 1191 2003 1191 1497 
Q 1191 994 1439 701 
Q 1688 409 2113 409 
Q 2538 409 2786 701 
Q 3034 994 3034 1497 
Q 3034 2003 2786 2293 
Q 2538 2584 2113 2584 
z
M 3366 4563 
L 3366 3988 
Q 3128 4100 2886 4159 
Q 2644 4219 2406 4219 
Q 1781 4219 1451 3797 
Q 1122 3375 1075 2522 
Q 1259 2794 1537 2939 
Q 1816 3084 2150 3084 
Q 2853 3084 3261 2657 
Q 3669 2231 3669 1497 
Q 3669 778 3244 343 
Q 2819 -91 2113 -91 
Q 1303 -91 875 529 
Q 447 1150 447 2328 
Q 447 3434 972 4092 
Q 1497 4750 2381 4750 
Q 2619 4750 2861 4703 
Q 3103 4656 3366 4563 
z
" transform="scale(0.015625)"/>
       </defs>
       <use xlink:href="#DejaVuSans-36"/>
       <use xlink:href="#DejaVuSans-30" x="63.623047"/>
       <use xlink:href="#DejaVuSans-30" x="127.246094"/>
      </g>
     </g>
    </g>
    <g id="xtick_5">
     <g id="line2d_5">
      <g>
       <use xlink:href="#ma6be71da52" x="254.447217" y="307.584" style="stroke: #000000; stroke-width: 0.8"/>
      </g>
     </g>
     <g id="text_5">
      <!-- 800 -->
      <g transform="translate(244.903467 322.182437)scale(0.1 -0.1)">
       <defs>
        <path id="DejaVuSans-38" d="M 2034 2216 
Q 1584 2216 1326 1975 
Q 1069 1734 1069 1313 
Q 1069 891 1326 650 
Q 1584 409 2034 409 
Q 2484 409 2743 651 
Q 3003 894 3003 1313 
Q 3003 1734 2745 1975 
Q 2488 2216 2034 2216 
z
M 1403 2484 
Q 997 2584 770 2862 
Q 544 3141 544 3541 
Q 544 4100 942 4425 
Q 1341 4750 2034 4750 
Q 2731 4750 3128 4425 
Q 3525 4100 3525 3541 
Q 3525 3141 3298 2862 
Q 3072 2584 2669 2484 
Q 3125 2378 3379 2068 
Q 3634 1759 3634 1313 
Q 3634 634 3220 271 
Q 2806 -91 2034 -91 
Q 1263 -91 848 271 
Q 434 634 434 1313 
Q 434 1759 690 2068 
Q 947 2378 1403 2484 
z
M 1172 3481 
Q 1172 3119 1398 2916 
Q 1625 2713 2034 2713 
Q 2441 2713 2670 2916 
Q 2900 3119 2900 3481 
Q 2900 3844 2670 4047 
Q 2441 4250 2034 4250 
Q 1625 4250 1398 4047 
Q 1172 3844 1172 3481 
z
" transform="scale(0.015625)"/>
       </defs>
       <use xlink:href="#DejaVuSans-38"/>
       <use xlink:href="#DejaVuSans-30" x="63.623047"/>
       <use xlink:href="#DejaVuSans-30" x="127.246094"/>
      </g>
     </g>
    </g>
    <g id="xtick_6">
     <g id="line2d_6">
      <g>
       <use xlink:href="#ma6be71da52" x="299.60084" y="307.584" style="stroke: #000000; stroke-width: 0.8"/>
      </g>
     </g>
     <g id="text_6">
      <!-- 1000 -->
      <g transform="translate(286.87584 322.182437)scale(0.1 -0.1)">
       <defs>
        <path id="DejaVuSans-31" d="M 794 531 
L 1825 531 
L 1825 4091 
L 703 3866 
L 703 4441 
L 1819 4666 
L 2450 4666 
L 2450 531 
L 3481 531 
L 3481 0 
L 794 0 
L 794 531 
z
" transform="scale(0.015625)"/>
       </defs>
       <use xlink:href="#DejaVuSans-31"/>
       <use xlink:href="#DejaVuSans-30" x="63.623047"/>
       <use xlink:href="#DejaVuSans-30" x="127.246094"/>
       <use xlink:href="#DejaVuSans-30" x="190.869141"/>
      </g>
     </g>
    </g>
    <g id="xtick_7">
     <g id="line2d_7">
      <g>
       <use xlink:href="#ma6be71da52" x="344.754462" y="307.584" style="stroke: #000000; stroke-width: 0.8"/>
      </g>
     </g>
     <g id="text_7">
      <!-- 1200 -->
      <g transform="translate(332.029462 322.182437)scale(0.1 -0.1)">
       <use xlink:href="#DejaVuSans-31"/>
       <use xlink:href="#DejaVuSans-32" x="63.623047"/>
       <use xlink:href="#DejaVuSans-30" x="127.246094"/>
       <use xlink:href="#DejaVuSans-30" x="190.869141"/>
      </g>
     </g>
    </g>
    <g id="xtick_8">
     <g id="line2d_8">
      <g>
       <use xlink:href="#ma6be71da52" x="389.908084" y="307.584" style="stroke: #000000; stroke-width: 0.8"/>
      </g>
     </g>
     <g id="text_8">
      <!-- 1400 -->
      <g transform="translate(377.183084 322.182437)scale(0.1 -0.1)">
       <use xlink:href="#DejaVuSans-31"/>
       <use xlink:href="#DejaVuSans-34" x="63.623047"/>
       <use xlink:href="#DejaVuSans-30" x="127.246094"/>
       <use xlink:href="#DejaVuSans-30" x="190.869141"/>
      </g>
     </g>
    </g>
    <g id="text_9">
     <!-- num swaps -->
     <g transform="translate(207.826406 335.860562)scale(0.1 -0.1)">
      <defs>
       <path id="DejaVuSans-6e" d="M 3513 2113 
L 3513 0 
L 2938 0 
L 2938 2094 
Q 2938 2591 2744 2837 
Q 2550 3084 2163 3084 
Q 1697 3084 1428 2787 
Q 1159 2491 1159 1978 
L 1159 0 
L 581 0 
L 581 3500 
L 1159 3500 
L 1159 2956 
Q 1366 3272 1645 3428 
Q 1925 3584 2291 3584 
Q 2894 3584 3203 3211 
Q 3513 2838 3513 2113 
z
" transform="scale(0.015625)"/>
       <path id="DejaVuSans-75" d="M 544 1381 
L 544 3500 
L 1119 3500 
L 1119 1403 
Q 1119 906 1312 657 
Q 1506 409 1894 409 
Q 2359 409 2629 706 
Q 2900 1003 2900 1516 
L 2900 3500 
L 3475 3500 
L 3475 0 
L 2900 0 
L 2900 538 
Q 2691 219 2414 64 
Q 2138 -91 1772 -91 
Q 1169 -91 856 284 
Q 544 659 544 1381 
z
M 1991 3584 
L 1991 3584 
z
" transform="scale(0.015625)"/>
       <path id="DejaVuSans-6d" d="M 3328 2828 
Q 3544 3216 3844 3400 
Q 4144 3584 4550 3584 
Q 5097 3584 5394 3201 
Q 5691 2819 5691 2113 
L 5691 0 
L 5113 0 
L 5113 2094 
Q 5113 2597 4934 2840 
Q 4756 3084 4391 3084 
Q 3944 3084 3684 2787 
Q 3425 2491 3425 1978 
L 3425 0 
L 2847 0 
L 2847 2094 
Q 2847 2600 2669 2842 
Q 2491 3084 2119 3084 
Q 1678 3084 1418 2786 
Q 1159 2488 1159 1978 
L 1159 0 
L 581 0 
L 581 3500 
L 1159 3500 
L 1159 2956 
Q 1356 3278 1631 3431 
Q 1906 3584 2284 3584 
Q 2666 3584 2933 3390 
Q 3200 3197 3328 2828 
z
" transform="scale(0.015625)"/>
       <path id="DejaVuSans-20" transform="scale(0.015625)"/>
       <path id="DejaVuSans-73" d="M 2834 3397 
L 2834 2853 
Q 2591 2978 2328 3040 
Q 2066 3103 1784 3103 
Q 1356 3103 1142 2972 
Q 928 2841 928 2578 
Q 928 2378 1081 2264 
Q 1234 2150 1697 2047 
L 1894 2003 
Q 2506 1872 2764 1633 
Q 3022 1394 3022 966 
Q 3022 478 2636 193 
Q 2250 -91 1575 -91 
Q 1294 -91 989 -36 
Q 684 19 347 128 
L 347 722 
Q 666 556 975 473 
Q 1284 391 1588 391 
Q 1994 391 2212 530 
Q 2431 669 2431 922 
Q 2431 1156 2273 1281 
Q 2116 1406 1581 1522 
L 1381 1569 
Q 847 1681 609 1914 
Q 372 2147 372 2553 
Q 372 3047 722 3315 
Q 1072 3584 1716 3584 
Q 2034 3584 2315 3537 
Q 2597 3491 2834 3397 
z
" transform="scale(0.015625)"/>
       <path id="DejaVuSans-77" d="M 269 3500 
L 844 3500 
L 1563 769 
L 2278 3500 
L 2956 3500 
L 3675 769 
L 4391 3500 
L 4966 3500 
L 4050 0 
L 3372 0 
L 2619 2869 
L 1863 0 
L 1184 0 
L 269 3500 
z
" transform="scale(0.015625)"/>
       <path id="DejaVuSans-61" d="M 2194 1759 
Q 1497 1759 1228 1600 
Q 959 1441 959 1056 
Q 959 750 1161 570 
Q 1363 391 1709 391 
Q 2188 391 2477 730 
Q 2766 1069 2766 1631 
L 2766 1759 
L 2194 1759 
z
M 3341 1997 
L 3341 0 
L 2766 0 
L 2766 531 
Q 2569 213 2275 61 
Q 1981 -91 1556 -91 
Q 1019 -91 701 211 
Q 384 513 384 1019 
Q 384 1609 779 1909 
Q 1175 2209 1959 2209 
L 2766 2209 
L 2766 2266 
Q 2766 2663 2505 2880 
Q 2244 3097 1772 3097 
Q 1472 3097 1187 3025 
Q 903 2953 641 2809 
L 641 3341 
Q 956 3463 1253 3523 
Q 1550 3584 1831 3584 
Q 2591 3584 2966 3190 
Q 3341 2797 3341 1997 
z
" transform="scale(0.015625)"/>
       <path id="DejaVuSans-70" d="M 1159 525 
L 1159 -1331 
L 581 -1331 
L 581 3500 
L 1159 3500 
L 1159 2969 
Q 1341 3281 1617 3432 
Q 1894 3584 2278 3584 
Q 2916 3584 3314 3078 
Q 3713 2572 3713 1747 
Q 3713 922 3314 415 
Q 2916 -91 2278 -91 
Q 1894 -91 1617 61 
Q 1341 213 1159 525 
z
M 3116 1747 
Q 3116 2381 2855 2742 
Q 2594 3103 2138 3103 
Q 1681 3103 1420 2742 
Q 1159 2381 1159 1747 
Q 1159 1113 1420 752 
Q 1681 391 2138 391 
Q 2594 391 2855 752 
Q 3116 1113 3116 1747 
z
" transform="scale(0.015625)"/>
      </defs>
      <use xlink:href="#DejaVuSans-6e"/>
      <use xlink:href="#DejaVuSans-75" x="63.378906"/>
      <use xlink:href="#DejaVuSans-6d" x="126.757812"/>
      <use xlink:href="#DejaVuSans-20" x="224.169922"/>
      <use xlink:href="#DejaVuSans-73" x="255.957031"/>
      <use xlink:href="#DejaVuSans-77" x="308.056641"/>
      <use xlink:href="#DejaVuSans-61" x="389.84375"/>
      <use xlink:href="#DejaVuSans-70" x="451.123047"/>
      <use xlink:href="#DejaVuSans-73" x="514.599609"/>
     </g>
    </g>
   </g>
   <g id="matplotlib.axis_2">
    <g id="ytick_1">
     <g id="line2d_9">
      <defs>
       <path id="m3878dc8fc4" d="M 0 0 
L -3.5 0 
" style="stroke: #000000; stroke-width: 0.8"/>
      </defs>
      <g>
       <use xlink:href="#m3878dc8fc4" x="57.6" y="304.232096" style="stroke: #000000; stroke-width: 0.8"/>
      </g>
     </g>
     <g id="text_10">
      <!-- 160 -->
      <g transform="translate(31.5125 308.031315)scale(0.1 -0.1)">
       <use xlink:href="#DejaVuSans-31"/>
       <use xlink:href="#DejaVuSans-36" x="63.623047"/>
       <use xlink:href="#DejaVuSans-30" x="127.246094"/>
      </g>
     </g>
    </g>
    <g id="ytick_2">
     <g id="line2d_10">
      <g>
       <use xlink:href="#m3878dc8fc4" x="57.6" y="245.93812" style="stroke: #000000; stroke-width: 0.8"/>
      </g>
     </g>
     <g id="text_11">
      <!-- 180 -->
      <g transform="translate(31.5125 249.737339)scale(0.1 -0.1)">
       <use xlink:href="#DejaVuSans-31"/>
       <use xlink:href="#DejaVuSans-38" x="63.623047"/>
       <use xlink:href="#DejaVuSans-30" x="127.246094"/>
      </g>
     </g>
    </g>
    <g id="ytick_3">
     <g id="line2d_11">
      <g>
       <use xlink:href="#m3878dc8fc4" x="57.6" y="187.644145" style="stroke: #000000; stroke-width: 0.8"/>
      </g>
     </g>
     <g id="text_12">
      <!-- 200 -->
      <g transform="translate(31.5125 191.443363)scale(0.1 -0.1)">
       <use xlink:href="#DejaVuSans-32"/>
       <use xlink:href="#DejaVuSans-30" x="63.623047"/>
       <use xlink:href="#DejaVuSans-30" x="127.246094"/>
      </g>
     </g>
    </g>
    <g id="ytick_4">
     <g id="line2d_12">
      <g>
       <use xlink:href="#m3878dc8fc4" x="57.6" y="129.350169" style="stroke: #000000; stroke-width: 0.8"/>
      </g>
     </g>
     <g id="text_13">
      <!-- 220 -->
      <g transform="translate(31.5125 133.149387)scale(0.1 -0.1)">
       <use xlink:href="#DejaVuSans-32"/>
       <use xlink:href="#DejaVuSans-32" x="63.623047"/>
       <use xlink:href="#DejaVuSans-30" x="127.246094"/>
      </g>
     </g>
    </g>
    <g id="ytick_5">
     <g id="line2d_13">
      <g>
       <use xlink:href="#m3878dc8fc4" x="57.6" y="71.056193" style="stroke: #000000; stroke-width: 0.8"/>
      </g>
     </g>
     <g id="text_14">
      <!-- 240 -->
      <g transform="translate(31.5125 74.855412)scale(0.1 -0.1)">
       <use xlink:href="#DejaVuSans-32"/>
       <use xlink:href="#DejaVuSans-34" x="63.623047"/>
       <use xlink:href="#DejaVuSans-30" x="127.246094"/>
      </g>
     </g>
    </g>
    <g id="text_15">
     <!-- total cost -->
     <g transform="translate(25.432812 197.923313)rotate(-90)scale(0.1 -0.1)">
      <defs>
       <path id="DejaVuSans-74" d="M 1172 4494 
L 1172 3500 
L 2356 3500 
L 2356 3053 
L 1172 3053 
L 1172 1153 
Q 1172 725 1289 603 
Q 1406 481 1766 481 
L 2356 481 
L 2356 0 
L 1766 0 
Q 1100 0 847 248 
Q 594 497 594 1153 
L 594 3053 
L 172 3053 
L 172 3500 
L 594 3500 
L 594 4494 
L 1172 4494 
z
" transform="scale(0.015625)"/>
       <path id="DejaVuSans-6f" d="M 1959 3097 
Q 1497 3097 1228 2736 
Q 959 2375 959 1747 
Q 959 1119 1226 758 
Q 1494 397 1959 397 
Q 2419 397 2687 759 
Q 2956 1122 2956 1747 
Q 2956 2369 2687 2733 
Q 2419 3097 1959 3097 
z
M 1959 3584 
Q 2709 3584 3137 3096 
Q 3566 2609 3566 1747 
Q 3566 888 3137 398 
Q 2709 -91 1959 -91 
Q 1206 -91 779 398 
Q 353 888 353 1747 
Q 353 2609 779 3096 
Q 1206 3584 1959 3584 
z
" transform="scale(0.015625)"/>
       <path id="DejaVuSans-6c" d="M 603 4863 
L 1178 4863 
L 1178 0 
L 603 0 
L 603 4863 
z
" transform="scale(0.015625)"/>
       <path id="DejaVuSans-63" d="M 3122 3366 
L 3122 2828 
Q 2878 2963 2633 3030 
Q 2388 3097 2138 3097 
Q 1578 3097 1268 2742 
Q 959 2388 959 1747 
Q 959 1106 1268 751 
Q 1578 397 2138 397 
Q 2388 397 2633 464 
Q 2878 531 3122 666 
L 3122 134 
Q 2881 22 2623 -34 
Q 2366 -91 2075 -91 
Q 1284 -91 818 406 
Q 353 903 353 1747 
Q 353 2603 823 3093 
Q 1294 3584 2113 3584 
Q 2378 3584 2631 3529 
Q 2884 3475 3122 3366 
z
" transform="scale(0.015625)"/>
      </defs>
      <use xlink:href="#DejaVuSans-74"/>
      <use xlink:href="#DejaVuSans-6f" x="39.208984"/>
      <use xlink:href="#DejaVuSans-74" x="100.390625"/>
      <use xlink:href="#DejaVuSans-61" x="139.599609"/>
      <use xlink:href="#DejaVuSans-6c" x="200.878906"/>
      <use xlink:href="#DejaVuSans-20" x="228.662109"/>
      <use xlink:href="#DejaVuSans-63" x="260.449219"/>
      <use xlink:href="#DejaVuSans-6f" x="315.429688"/>
      <use xlink:href="#DejaVuSans-73" x="376.611328"/>
      <use xlink:href="#DejaVuSans-74" x="428.710938"/>
     </g>
    </g>
   </g>
   <g id="line2d_14">
    <path d="M 73.832727 181.814747 
L 74.284263 138.094265 
L 74.7358 132.264867 
L 75.187336 173.070651 
L 75.638872 184.729446 
L 76.090408 175.985349 
L 76.541945 178.900048 
L 76.993481 190.558843 
L 77.445017 213.876434 
L 77.896553 199.30294 
L 78.34809 158.497157 
L 78.799626 181.814747 
L 79.702698 135.179566 
L 80.154234 129.350169 
L 80.605771 152.667759 
L 81.057307 155.582458 
L 81.508843 152.667759 
L 81.960379 178.900048 
L 82.411916 167.241253 
L 82.863452 184.729446 
L 83.314988 108.947277 
L 83.766524 108.947277 
L 84.21806 94.373783 
L 84.669597 94.373783 
L 85.121133 76.88559 
L 85.572669 117.691373 
L 86.024205 82.714988 
L 86.475742 82.714988 
L 86.927278 100.203181 
L 87.378814 170.155952 
L 87.83035 167.241253 
L 88.281886 173.070651 
L 89.184959 129.350169 
L 89.636495 138.094265 
L 90.088031 143.923663 
L 90.539568 111.861976 
L 91.44264 167.241253 
L 91.894176 126.43547 
L 92.345712 108.947277 
L 92.797249 132.264867 
L 93.248785 161.411855 
L 93.700321 138.094265 
L 94.151857 126.43547 
L 94.603394 184.729446 
L 95.05493 219.705831 
L 95.506466 208.047036 
L 95.958002 187.644145 
L 96.409539 178.900048 
L 96.861075 190.558843 
L 97.312611 187.644145 
L 97.764147 164.326554 
L 98.215683 190.558843 
L 98.66722 208.047036 
L 99.118756 237.194024 
L 99.570292 208.047036 
L 100.021828 205.132337 
L 100.473365 193.473542 
L 100.924901 187.644145 
L 101.376437 164.326554 
L 101.827973 129.350169 
L 102.279509 135.179566 
L 102.731046 170.155952 
L 103.182582 143.923663 
L 103.634118 79.800289 
L 104.085654 94.373783 
L 104.537191 100.203181 
L 104.988727 161.411855 
L 105.440263 155.582458 
L 105.891799 202.217639 
L 106.343335 190.558843 
L 106.794872 205.132337 
L 107.246408 196.388241 
L 107.697944 184.729446 
L 108.14948 190.558843 
L 108.601017 158.497157 
L 109.052553 138.094265 
L 109.504089 190.558843 
L 110.407161 117.691373 
L 110.858698 178.900048 
L 111.310234 170.155952 
L 111.76177 129.350169 
L 112.213306 108.947277 
L 112.664843 120.606072 
L 113.116379 167.241253 
L 113.567915 190.558843 
L 114.470987 120.606072 
L 115.825596 161.411855 
L 116.277132 170.155952 
L 116.728669 170.155952 
L 117.180205 178.900048 
L 118.083277 120.606072 
L 118.534814 126.43547 
L 118.98635 161.411855 
L 119.437886 155.582458 
L 119.889422 173.070651 
L 120.340958 175.985349 
L 120.792495 205.132337 
L 121.244031 199.30294 
L 121.695567 199.30294 
L 122.147103 234.279325 
L 122.59864 234.279325 
L 123.050176 210.961735 
L 123.501712 202.217639 
L 123.953248 213.876434 
L 124.404784 210.961735 
L 124.856321 205.132337 
L 125.307857 225.535229 
L 125.759393 190.558843 
L 126.210929 199.30294 
L 126.662466 164.326554 
L 127.114002 120.606072 
L 127.565538 149.75306 
L 128.017074 155.582458 
L 128.46861 143.923663 
L 128.920147 146.838361 
L 129.371683 173.070651 
L 130.274755 173.070651 
L 130.726292 138.094265 
L 131.177828 173.070651 
L 131.629364 108.947277 
L 132.532436 143.923663 
L 132.983973 167.241253 
L 133.435509 181.814747 
L 133.887045 164.326554 
L 134.338581 208.047036 
L 134.790118 202.217639 
L 135.241654 216.791133 
L 135.69319 210.961735 
L 136.144726 181.814747 
L 136.596262 167.241253 
L 137.047799 167.241253 
L 137.499335 161.411855 
L 137.950871 184.729446 
L 138.402407 158.497157 
L 138.853944 202.217639 
L 139.30548 234.279325 
L 139.757016 164.326554 
L 140.208552 175.985349 
L 140.660089 152.667759 
L 141.111625 158.497157 
L 141.563161 167.241253 
L 142.014697 196.388241 
L 142.466233 213.876434 
L 142.91777 205.132337 
L 143.369306 205.132337 
L 143.820842 216.791133 
L 144.272378 181.814747 
L 144.723915 178.900048 
L 145.175451 184.729446 
L 145.626987 187.644145 
L 146.078523 193.473542 
L 146.530059 196.388241 
L 146.981596 173.070651 
L 147.433132 132.264867 
L 147.884668 143.923663 
L 148.336204 167.241253 
L 148.787741 155.582458 
L 149.239277 184.729446 
L 149.690813 190.558843 
L 150.142349 161.411855 
L 150.593885 173.070651 
L 151.045422 181.814747 
L 151.496958 158.497157 
L 151.948494 143.923663 
L 152.40003 173.070651 
L 152.851567 138.094265 
L 153.303103 146.838361 
L 153.754639 138.094265 
L 154.206175 143.923663 
L 154.657711 146.838361 
L 155.109248 187.644145 
L 155.560784 146.838361 
L 156.01232 164.326554 
L 156.463856 164.326554 
L 156.915393 141.008964 
L 157.366929 129.350169 
L 157.818465 106.032578 
L 158.270001 108.947277 
L 158.721537 108.947277 
L 159.173074 120.606072 
L 159.62461 138.094265 
L 160.527682 161.411855 
L 160.979219 170.155952 
L 161.430755 170.155952 
L 161.882291 146.838361 
L 162.333827 135.179566 
L 162.785364 82.714988 
L 163.2369 85.629687 
L 163.688436 79.800289 
L 164.139972 68.141494 
L 164.591508 108.947277 
L 165.043045 91.459084 
L 165.494581 126.43547 
L 166.397653 170.155952 
L 166.84919 193.473542 
L 167.300726 187.644145 
L 167.752262 175.985349 
L 168.203798 143.923663 
L 169.106871 143.923663 
L 169.558407 123.520771 
L 170.009943 138.094265 
L 170.461479 173.070651 
L 170.913016 184.729446 
L 171.364552 141.008964 
L 171.816088 158.497157 
L 172.267624 170.155952 
L 172.71916 193.473542 
L 173.170697 190.558843 
L 173.622233 164.326554 
L 174.073769 170.155952 
L 174.525305 146.838361 
L 174.976842 88.544386 
L 175.428378 97.288482 
L 176.33145 108.947277 
L 176.782986 138.094265 
L 177.234523 155.582458 
L 177.686059 187.644145 
L 178.137595 126.43547 
L 178.589131 202.217639 
L 179.040668 158.497157 
L 179.492204 88.544386 
L 179.94374 53.568 
L 180.395276 65.226795 
L 181.298349 146.838361 
L 181.749885 135.179566 
L 182.201421 141.008964 
L 182.652957 129.350169 
L 183.104494 173.070651 
L 183.55603 164.326554 
L 184.007566 146.838361 
L 184.459102 135.179566 
L 184.910639 117.691373 
L 185.362175 152.667759 
L 185.813711 152.667759 
L 186.265247 135.179566 
L 186.716783 152.667759 
L 187.16832 146.838361 
L 187.619856 138.094265 
L 188.071392 138.094265 
L 188.522928 132.264867 
L 188.974465 219.705831 
L 189.426001 210.961735 
L 189.877537 205.132337 
L 190.329073 202.217639 
L 191.232146 164.326554 
L 191.683682 205.132337 
L 192.135218 175.985349 
L 192.586754 170.155952 
L 193.038291 71.056193 
L 193.489827 73.970892 
L 193.941363 129.350169 
L 194.392899 146.838361 
L 194.844435 175.985349 
L 195.295972 222.62053 
L 195.747508 231.364627 
L 196.199044 237.194024 
L 196.65058 210.961735 
L 197.102117 228.449928 
L 197.553653 210.961735 
L 198.005189 181.814747 
L 198.456725 205.132337 
L 198.908261 190.558843 
L 199.359798 187.644145 
L 199.811334 187.644145 
L 200.26287 181.814747 
L 200.714406 187.644145 
L 201.165943 254.682217 
L 201.617479 231.364627 
L 202.069015 219.705831 
L 202.520551 132.264867 
L 202.972087 120.606072 
L 203.423624 132.264867 
L 203.87516 108.947277 
L 204.326696 79.800289 
L 205.229769 56.482699 
L 205.681305 103.11788 
L 206.132841 129.350169 
L 206.584377 167.241253 
L 207.035914 173.070651 
L 207.48745 149.75306 
L 207.938986 178.900048 
L 208.390522 120.606072 
L 208.842058 108.947277 
L 209.293595 56.482699 
L 209.745131 73.970892 
L 210.648203 97.288482 
L 211.09974 103.11788 
L 211.551276 114.776675 
L 212.002812 117.691373 
L 212.454348 108.947277 
L 212.905884 103.11788 
L 213.357421 103.11788 
L 213.808957 68.141494 
L 214.712029 106.032578 
L 215.163566 129.350169 
L 215.615102 181.814747 
L 216.066638 196.388241 
L 216.518174 175.985349 
L 216.96971 202.217639 
L 217.421247 161.411855 
L 217.872783 138.094265 
L 218.324319 143.923663 
L 218.775855 152.667759 
L 219.227392 138.094265 
L 219.678928 161.411855 
L 220.130464 175.985349 
L 220.582 158.497157 
L 221.033536 149.75306 
L 221.485073 167.241253 
L 221.936609 138.094265 
L 222.388145 123.520771 
L 223.742754 158.497157 
L 224.19429 138.094265 
L 224.645826 190.558843 
L 225.097362 199.30294 
L 225.548899 199.30294 
L 226.000435 228.449928 
L 226.451971 205.132337 
L 226.903507 170.155952 
L 227.355044 193.473542 
L 227.80658 181.814747 
L 228.258116 164.326554 
L 228.709652 138.094265 
L 229.161189 170.155952 
L 229.612725 155.582458 
L 230.064261 152.667759 
L 230.515797 146.838361 
L 230.967333 158.497157 
L 231.41887 181.814747 
L 231.870406 152.667759 
L 232.321942 193.473542 
L 232.773478 181.814747 
L 233.225015 196.388241 
L 233.676551 149.75306 
L 234.128087 161.411855 
L 234.579623 143.923663 
L 235.482696 138.094265 
L 235.934232 111.861976 
L 236.385768 132.264867 
L 237.288841 196.388241 
L 237.740377 190.558843 
L 238.191913 167.241253 
L 238.643449 184.729446 
L 239.094985 196.388241 
L 239.546522 187.644145 
L 239.998058 213.876434 
L 240.449594 202.217639 
L 240.90113 202.217639 
L 241.352667 199.30294 
L 241.804203 173.070651 
L 242.255739 199.30294 
L 242.707275 199.30294 
L 243.158811 170.155952 
L 243.610348 164.326554 
L 244.061884 117.691373 
L 244.51342 120.606072 
L 244.964956 164.326554 
L 245.416493 135.179566 
L 245.868029 181.814747 
L 246.319565 175.985349 
L 246.771101 187.644145 
L 247.222638 181.814747 
L 247.674174 170.155952 
L 248.577246 193.473542 
L 249.028782 251.767518 
L 249.480319 234.279325 
L 249.931855 193.473542 
L 250.383391 190.558843 
L 250.834927 202.217639 
L 251.286464 184.729446 
L 251.738 146.838361 
L 252.189536 164.326554 
L 252.641072 175.985349 
L 253.092608 193.473542 
L 253.544145 196.388241 
L 253.995681 167.241253 
L 254.447217 187.644145 
L 254.898753 199.30294 
L 255.35029 193.473542 
L 255.801826 146.838361 
L 256.253362 141.008964 
L 256.704898 111.861976 
L 257.156434 129.350169 
L 257.607971 100.203181 
L 258.059507 141.008964 
L 258.511043 146.838361 
L 258.962579 141.008964 
L 259.414116 205.132337 
L 259.865652 193.473542 
L 260.317188 158.497157 
L 260.768724 138.094265 
L 261.22026 161.411855 
L 261.671797 173.070651 
L 262.123333 155.582458 
L 262.574869 158.497157 
L 263.026405 155.582458 
L 263.477942 164.326554 
L 263.929478 155.582458 
L 264.381014 79.800289 
L 264.83255 91.459084 
L 265.284086 88.544386 
L 265.735623 132.264867 
L 266.187159 138.094265 
L 266.638695 149.75306 
L 267.090231 132.264867 
L 267.541768 164.326554 
L 267.993304 181.814747 
L 268.44484 184.729446 
L 268.896376 161.411855 
L 269.347913 152.667759 
L 269.799449 146.838361 
L 270.250985 129.350169 
L 270.702521 141.008964 
L 271.154057 111.861976 
L 271.605594 114.776675 
L 272.05713 97.288482 
L 272.960202 108.947277 
L 273.411739 126.43547 
L 273.863275 149.75306 
L 274.766347 175.985349 
L 275.217883 170.155952 
L 275.66942 111.861976 
L 276.120956 117.691373 
L 276.572492 91.459084 
L 277.024028 138.094265 
L 277.475565 149.75306 
L 277.927101 123.520771 
L 278.378637 106.032578 
L 278.830173 100.203181 
L 279.281709 53.568 
L 279.733246 56.482699 
L 280.184782 56.482699 
L 280.636318 108.947277 
L 281.087854 85.629687 
L 281.539391 94.373783 
L 281.990927 94.373783 
L 282.442463 82.714988 
L 282.893999 108.947277 
L 283.345535 79.800289 
L 283.797072 149.75306 
L 284.248608 149.75306 
L 284.700144 196.388241 
L 285.15168 216.791133 
L 285.603217 231.364627 
L 286.054753 181.814747 
L 286.506289 205.132337 
L 286.957825 196.388241 
L 287.409361 213.876434 
L 287.860898 161.411855 
L 288.312434 167.241253 
L 288.76397 155.582458 
L 289.215506 123.520771 
L 289.667043 126.43547 
L 290.118579 155.582458 
L 290.570115 155.582458 
L 291.021651 178.900048 
L 291.473188 173.070651 
L 291.924724 202.217639 
L 292.37626 135.179566 
L 292.827796 117.691373 
L 293.730869 135.179566 
L 294.182405 135.179566 
L 294.633941 178.900048 
L 295.085477 196.388241 
L 295.537014 164.326554 
L 295.98855 155.582458 
L 296.440086 138.094265 
L 296.891622 114.776675 
L 297.343158 143.923663 
L 297.794695 123.520771 
L 298.246231 141.008964 
L 298.697767 190.558843 
L 299.149303 210.961735 
L 299.60084 187.644145 
L 300.052376 190.558843 
L 300.503912 126.43547 
L 300.955448 158.497157 
L 301.406984 158.497157 
L 301.858521 193.473542 
L 302.310057 175.985349 
L 303.213129 187.644145 
L 304.116202 216.791133 
L 304.567738 216.791133 
L 305.019274 234.279325 
L 305.47081 228.449928 
L 305.922347 263.426313 
L 306.373883 225.535229 
L 306.825419 158.497157 
L 307.276955 108.947277 
L 307.728492 103.11788 
L 308.180028 111.861976 
L 308.631564 103.11788 
L 309.0831 108.947277 
L 309.534636 132.264867 
L 309.986173 85.629687 
L 310.889245 73.970892 
L 311.340781 91.459084 
L 311.792318 79.800289 
L 312.243854 76.88559 
L 312.69539 94.373783 
L 313.146926 100.203181 
L 313.598463 126.43547 
L 314.049999 126.43547 
L 314.501535 85.629687 
L 314.953071 120.606072 
L 315.404607 132.264867 
L 315.856144 149.75306 
L 316.30768 106.032578 
L 316.759216 123.520771 
L 317.210752 123.520771 
L 317.662289 65.226795 
L 318.113825 65.226795 
L 318.565361 103.11788 
L 319.016897 178.900048 
L 319.468433 155.582458 
L 319.91997 167.241253 
L 320.371506 97.288482 
L 320.823042 91.459084 
L 321.274578 126.43547 
L 321.726115 79.800289 
L 322.177651 117.691373 
L 322.629187 108.947277 
L 323.080723 111.861976 
L 323.532259 152.667759 
L 323.983796 164.326554 
L 324.435332 173.070651 
L 324.886868 155.582458 
L 325.338404 164.326554 
L 325.789941 155.582458 
L 326.241477 173.070651 
L 326.693013 152.667759 
L 327.144549 175.985349 
L 327.596085 181.814747 
L 328.047622 210.961735 
L 328.499158 175.985349 
L 329.40223 199.30294 
L 329.853767 202.217639 
L 330.305303 184.729446 
L 330.756839 184.729446 
L 331.208375 149.75306 
L 331.659911 184.729446 
L 332.111448 199.30294 
L 332.562984 138.094265 
L 333.01452 170.155952 
L 333.466056 173.070651 
L 333.917593 152.667759 
L 334.369129 184.729446 
L 334.820665 184.729446 
L 335.272201 187.644145 
L 335.723738 146.838361 
L 336.175274 190.558843 
L 336.62681 196.388241 
L 337.078346 155.582458 
L 337.529882 173.070651 
L 337.981419 173.070651 
L 338.432955 178.900048 
L 338.884491 193.473542 
L 339.336027 225.535229 
L 339.787564 213.876434 
L 340.2391 213.876434 
L 340.690636 272.17041 
L 341.142172 295.488 
L 341.593708 295.488 
L 342.045245 277.999807 
L 342.496781 254.682217 
L 342.948317 213.876434 
L 343.399853 196.388241 
L 343.85139 143.923663 
L 344.754462 94.373783 
L 346.109071 143.923663 
L 346.560607 202.217639 
L 347.012143 208.047036 
L 347.463679 225.535229 
L 347.915216 190.558843 
L 348.366752 222.62053 
L 348.818288 240.108723 
L 349.269824 208.047036 
L 349.72136 228.449928 
L 350.172897 240.108723 
L 350.624433 263.426313 
L 351.075969 240.108723 
L 351.527505 208.047036 
L 351.979042 196.388241 
L 352.430578 181.814747 
L 352.882114 173.070651 
L 353.33365 149.75306 
L 353.785186 152.667759 
L 354.236723 149.75306 
L 354.688259 143.923663 
L 355.139795 149.75306 
L 355.591331 146.838361 
L 356.042868 216.791133 
L 356.494404 175.985349 
L 357.397476 164.326554 
L 357.849013 170.155952 
L 358.300549 199.30294 
L 358.752085 181.814747 
L 359.203621 170.155952 
L 359.655157 141.008964 
L 360.106694 164.326554 
L 360.55823 152.667759 
L 361.009766 146.838361 
L 361.461302 106.032578 
L 361.912839 120.606072 
L 362.364375 187.644145 
L 362.815911 193.473542 
L 363.267447 210.961735 
L 363.718983 243.023422 
L 364.17052 158.497157 
L 364.622056 117.691373 
L 365.073592 149.75306 
L 365.525128 114.776675 
L 365.976665 173.070651 
L 366.428201 146.838361 
L 366.879737 158.497157 
L 367.331273 181.814747 
L 367.782809 190.558843 
L 368.234346 184.729446 
L 368.685882 193.473542 
L 369.137418 181.814747 
L 369.588954 167.241253 
L 370.040491 219.705831 
L 370.492027 225.535229 
L 370.943563 208.047036 
L 371.395099 196.388241 
L 371.846635 155.582458 
L 372.298172 141.008964 
L 372.749708 135.179566 
L 373.201244 141.008964 
L 374.104317 213.876434 
L 375.007389 181.814747 
L 375.458925 216.791133 
L 375.910461 187.644145 
L 376.361998 193.473542 
L 376.813534 196.388241 
L 377.26507 190.558843 
L 377.716606 208.047036 
L 378.168143 208.047036 
L 378.619679 222.62053 
L 379.071215 205.132337 
L 379.974288 141.008964 
L 380.425824 132.264867 
L 380.87736 202.217639 
L 381.328896 199.30294 
L 381.780432 126.43547 
L 382.231969 129.350169 
L 382.683505 152.667759 
L 383.135041 155.582458 
L 383.586577 146.838361 
L 384.038114 111.861976 
L 384.48965 120.606072 
L 384.941186 152.667759 
L 385.392722 164.326554 
L 385.844258 146.838361 
L 386.747331 178.900048 
L 387.198867 167.241253 
L 387.650403 108.947277 
L 388.10194 88.544386 
L 388.553476 155.582458 
L 389.456548 181.814747 
L 389.908084 181.814747 
L 390.359621 161.411855 
L 390.811157 167.241253 
L 391.262693 178.900048 
L 391.714229 135.179566 
L 392.165766 111.861976 
L 392.617302 117.691373 
L 393.068838 59.397398 
L 393.520374 108.947277 
L 393.97191 85.629687 
L 394.423447 138.094265 
L 394.874983 155.582458 
L 395.326519 155.582458 
L 395.778055 152.667759 
L 396.229592 152.667759 
L 396.681128 146.838361 
L 397.132664 164.326554 
L 397.5842 141.008964 
L 398.035737 152.667759 
L 398.487273 152.667759 
L 398.487273 152.667759 
" clip-path="url(#p0f41359a03)" style="fill: none; stroke: #1f77b4; stroke-width: 1.5; stroke-linecap: square"/>
   </g>
   <g id="patch_3">
    <path d="M 57.6 307.584 
L 57.6 41.472 
" style="fill: none; stroke: #000000; stroke-width: 0.8; stroke-linejoin: miter; stroke-linecap: square"/>
   </g>
   <g id="patch_4">
    <path d="M 414.72 307.584 
L 414.72 41.472 
" style="fill: none; stroke: #000000; stroke-width: 0.8; stroke-linejoin: miter; stroke-linecap: square"/>
   </g>
   <g id="patch_5">
    <path d="M 57.6 307.584 
L 414.72 307.584 
" style="fill: none; stroke: #000000; stroke-width: 0.8; stroke-linejoin: miter; stroke-linecap: square"/>
   </g>
   <g id="patch_6">
    <path d="M 57.6 41.472 
L 414.72 41.472 
" style="fill: none; stroke: #000000; stroke-width: 0.8; stroke-linejoin: miter; stroke-linecap: square"/>
   </g>
   <g id="text_16">
    <!-- Simulated Anealling Cost -->
    <g transform="translate(160.8 35.472)scale(0.12 -0.12)">
     <defs>
      <path id="DejaVuSans-53" d="M 3425 4513 
L 3425 3897 
Q 3066 4069 2747 4153 
Q 2428 4238 2131 4238 
Q 1616 4238 1336 4038 
Q 1056 3838 1056 3469 
Q 1056 3159 1242 3001 
Q 1428 2844 1947 2747 
L 2328 2669 
Q 3034 2534 3370 2195 
Q 3706 1856 3706 1288 
Q 3706 609 3251 259 
Q 2797 -91 1919 -91 
Q 1588 -91 1214 -16 
Q 841 59 441 206 
L 441 856 
Q 825 641 1194 531 
Q 1563 422 1919 422 
Q 2459 422 2753 634 
Q 3047 847 3047 1241 
Q 3047 1584 2836 1778 
Q 2625 1972 2144 2069 
L 1759 2144 
Q 1053 2284 737 2584 
Q 422 2884 422 3419 
Q 422 4038 858 4394 
Q 1294 4750 2059 4750 
Q 2388 4750 2728 4690 
Q 3069 4631 3425 4513 
z
" transform="scale(0.015625)"/>
      <path id="DejaVuSans-69" d="M 603 3500 
L 1178 3500 
L 1178 0 
L 603 0 
L 603 3500 
z
M 603 4863 
L 1178 4863 
L 1178 4134 
L 603 4134 
L 603 4863 
z
" transform="scale(0.015625)"/>
      <path id="DejaVuSans-65" d="M 3597 1894 
L 3597 1613 
L 953 1613 
Q 991 1019 1311 708 
Q 1631 397 2203 397 
Q 2534 397 2845 478 
Q 3156 559 3463 722 
L 3463 178 
Q 3153 47 2828 -22 
Q 2503 -91 2169 -91 
Q 1331 -91 842 396 
Q 353 884 353 1716 
Q 353 2575 817 3079 
Q 1281 3584 2069 3584 
Q 2775 3584 3186 3129 
Q 3597 2675 3597 1894 
z
M 3022 2063 
Q 3016 2534 2758 2815 
Q 2500 3097 2075 3097 
Q 1594 3097 1305 2825 
Q 1016 2553 972 2059 
L 3022 2063 
z
" transform="scale(0.015625)"/>
      <path id="DejaVuSans-64" d="M 2906 2969 
L 2906 4863 
L 3481 4863 
L 3481 0 
L 2906 0 
L 2906 525 
Q 2725 213 2448 61 
Q 2172 -91 1784 -91 
Q 1150 -91 751 415 
Q 353 922 353 1747 
Q 353 2572 751 3078 
Q 1150 3584 1784 3584 
Q 2172 3584 2448 3432 
Q 2725 3281 2906 2969 
z
M 947 1747 
Q 947 1113 1208 752 
Q 1469 391 1925 391 
Q 2381 391 2643 752 
Q 2906 1113 2906 1747 
Q 2906 2381 2643 2742 
Q 2381 3103 1925 3103 
Q 1469 3103 1208 2742 
Q 947 2381 947 1747 
z
" transform="scale(0.015625)"/>
      <path id="DejaVuSans-41" d="M 2188 4044 
L 1331 1722 
L 3047 1722 
L 2188 4044 
z
M 1831 4666 
L 2547 4666 
L 4325 0 
L 3669 0 
L 3244 1197 
L 1141 1197 
L 716 0 
L 50 0 
L 1831 4666 
z
" transform="scale(0.015625)"/>
      <path id="DejaVuSans-67" d="M 2906 1791 
Q 2906 2416 2648 2759 
Q 2391 3103 1925 3103 
Q 1463 3103 1205 2759 
Q 947 2416 947 1791 
Q 947 1169 1205 825 
Q 1463 481 1925 481 
Q 2391 481 2648 825 
Q 2906 1169 2906 1791 
z
M 3481 434 
Q 3481 -459 3084 -895 
Q 2688 -1331 1869 -1331 
Q 1566 -1331 1297 -1286 
Q 1028 -1241 775 -1147 
L 775 -588 
Q 1028 -725 1275 -790 
Q 1522 -856 1778 -856 
Q 2344 -856 2625 -561 
Q 2906 -266 2906 331 
L 2906 616 
Q 2728 306 2450 153 
Q 2172 0 1784 0 
Q 1141 0 747 490 
Q 353 981 353 1791 
Q 353 2603 747 3093 
Q 1141 3584 1784 3584 
Q 2172 3584 2450 3431 
Q 2728 3278 2906 2969 
L 2906 3500 
L 3481 3500 
L 3481 434 
z
" transform="scale(0.015625)"/>
      <path id="DejaVuSans-43" d="M 4122 4306 
L 4122 3641 
Q 3803 3938 3442 4084 
Q 3081 4231 2675 4231 
Q 1875 4231 1450 3742 
Q 1025 3253 1025 2328 
Q 1025 1406 1450 917 
Q 1875 428 2675 428 
Q 3081 428 3442 575 
Q 3803 722 4122 1019 
L 4122 359 
Q 3791 134 3420 21 
Q 3050 -91 2638 -91 
Q 1578 -91 968 557 
Q 359 1206 359 2328 
Q 359 3453 968 4101 
Q 1578 4750 2638 4750 
Q 3056 4750 3426 4639 
Q 3797 4528 4122 4306 
z
" transform="scale(0.015625)"/>
     </defs>
     <use xlink:href="#DejaVuSans-53"/>
     <use xlink:href="#DejaVuSans-69" x="63.476562"/>
     <use xlink:href="#DejaVuSans-6d" x="91.259766"/>
     <use xlink:href="#DejaVuSans-75" x="188.671875"/>
     <use xlink:href="#DejaVuSans-6c" x="252.050781"/>
     <use xlink:href="#DejaVuSans-61" x="279.833984"/>
     <use xlink:href="#DejaVuSans-74" x="341.113281"/>
     <use xlink:href="#DejaVuSans-65" x="380.322266"/>
     <use xlink:href="#DejaVuSans-64" x="441.845703"/>
     <use xlink:href="#DejaVuSans-20" x="505.322266"/>
     <use xlink:href="#DejaVuSans-41" x="537.109375"/>
     <use xlink:href="#DejaVuSans-6e" x="605.517578"/>
     <use xlink:href="#DejaVuSans-65" x="668.896484"/>
     <use xlink:href="#DejaVuSans-61" x="730.419922"/>
     <use xlink:href="#DejaVuSans-6c" x="791.699219"/>
     <use xlink:href="#DejaVuSans-6c" x="819.482422"/>
     <use xlink:href="#DejaVuSans-69" x="847.265625"/>
     <use xlink:href="#DejaVuSans-6e" x="875.048828"/>
     <use xlink:href="#DejaVuSans-67" x="938.427734"/>
     <use xlink:href="#DejaVuSans-20" x="1001.904297"/>
     <use xlink:href="#DejaVuSans-43" x="1033.691406"/>
     <use xlink:href="#DejaVuSans-6f" x="1103.515625"/>
     <use xlink:href="#DejaVuSans-73" x="1164.697266"/>
     <use xlink:href="#DejaVuSans-74" x="1216.796875"/>
    </g>
   </g>
  </g>
 </g>
 <defs>
  <clipPath id="p0f41359a03">
   <rect x="57.6" y="41.472" width="357.12" height="266.112"/>
  </clipPath>
 </defs>
</svg>
